<!-- by TradingView --><svg width="18" height="18" viewBox="0 0 18 18" xmlns="http://www.w3.org/2000/svg"><path fill="#F0F3FA" d="M0 0h18v18H0z"/><path fill-rule="evenodd" d="M9 13a4 4 0 1 0 0-8 4 4 0 0 0 0 8Zm.12-.18a3.62 3.62 0 1 0 0-7.25 3.62 3.62 0 0 0 0 7.25Z" fill="#012A40"/><path fill-rule="evenodd" d="M4.65 13.82c1.37.74 4.42-.82 6.82-3.48 2.4-2.66 3.24-5.42 1.88-6.16-1.37-.74-4.42.82-6.82 3.48-2.4 2.66-3.24 5.42-1.88 6.16Zm.3-.43c1.23.68 3.99-.76 6.16-3.21 2.17-2.46 2.93-5 1.7-5.68-1.24-.69-4 .75-6.17 3.2-2.17 2.46-2.93 5-1.7 5.69Z" fill="#012A40"/></svg>