<!-- by TradingView --><svg width="18" height="18" fill="none" xmlns="http://www.w3.org/2000/svg"><path fill="url(#paint0_linear_3819_59609)" d="M0 0h18v18H0z"/><path fill-rule="evenodd" clip-rule="evenodd" d="M6.581 6.824a2.057 2.057 0 00-1.515-.664A2.07 2.07 0 003 8.234a2.07 2.07 0 002.066 2.075c.604 0 1.148-.261 1.526-.676.108.21.233.502.291.646.24-.298.504-.464.606-.51-.202-.2-.606-.777-.606-1.486 0-.71.404-1.336.606-1.561-.24-.131-.504-.399-.606-.516-.087.252-.214.48-.302.618zm-.22 1.41c0 .719-.58 1.3-1.295 1.3a1.298 1.298 0 01-1.296-1.3c0-.718.58-1.3 1.296-1.3.715 0 1.295.582 1.295 1.3z" fill="#fff"/><path fill-rule="evenodd" clip-rule="evenodd" d="M10.804 9.988c-.372.3-.843.48-1.355.48-1.207 0-2.186-1-2.186-2.234S8.242 6 9.45 6c.521 0 1 .186 1.375.497a1.836 1.836 0 00-.47.557 1.483 1.483 0 00-.95-.343c-.833 0-1.51.69-1.51 1.543 0 .852.677 1.542 1.51 1.542.358 0 .687-.127.945-.34.09.14.248.35.455.532z" fill="#fff"/><path fill-rule="evenodd" clip-rule="evenodd" d="M14.339 6.078l-.476.51a2.04 2.04 0 00-1.257-.428c-1.12 0-2.027.893-2.027 1.994 0 .717.384 1.346.961 1.697-.356.114-.826.375-.816.82.015.671.701.795 1.016.8.252.005.711-.08.91-.123.418-.086 1.257-.098 1.27.542.015.8-1.479.975-2.246.567-.17.097-.627.302-1.102.351.213.224.927.675 2.078.692 1.437.02 2.169-.873 2.159-1.61-.01-.738-.503-1.368-1.51-1.368-.074-.002-.382.015-1.02.098-.798.103-.844-.067-.849-.15-.004-.07.006-.236.744-.367.14.03.284.046.432.046 1.12 0 2.028-.893 2.028-1.995 0-.325-.08-.633-.22-.904L15 6.914a3.92 3.92 0 01-.661-.836zm-1.74 3.31a1.237 1.237 0 10-.002-2.478 1.237 1.237 0 00.002 2.478z" fill="#fff"/><defs><linearGradient id="paint0_linear_3819_59609" x1="14.923" y1="2.225" x2="2.89" y2="15.681" gradientUnits="userSpaceOnUse"><stop stop-color="#AB41B6"/><stop offset=".492" stop-color="#E4585D"/><stop offset="1" stop-color="#F9BD73"/></linearGradient></defs></svg>