<!-- by TradingView --><svg width="18" height="18" viewBox="0 0 18 18" xmlns="http://www.w3.org/2000/svg"><path fill="#F0F3FA" d="M0 0h18v18H0z"/><path d="M4 12.76c1 .3 4.44 1.1 9.35.19-.26.6-5 1.45-9.35-.2Z" fill="#5888A6"/><path d="M12.03 13.69c-1.8.3-5.68.65-6.66-.36.75.27 3.12.7 6.66.36Z" fill="#5888A6"/><path d="M4.35 12.72c-.2-.43-.2-.94-.18-1.15.86.09 1.8-.22 2.17-.38v.38c-.02.13-.45.27-.66.33.83-.04 2.37-.83 3.04-1.22l.07-.8.25-2.61V4.78l-.22-1.24.22-.12.32 2.82c.02.44-.18 3.02-.28 4.25a8.1 8.1 0 0 1 3.95-1.12L15 8.14l-1.56 1.42c0 .23-.06.4-.08.45-.62-.53-1.67-.16-2.11.09.22-.04.77-.11 1.14-.15.37-.05.31.13.24.23a5.7 5.7 0 0 0-.7 1.54c.23-.65.74-1.3.96-1.54.16-.24.38-.1.47 0-.11.25-.46.9-.97 1.47a3.18 3.18 0 0 0-.76 1.41c-4.16.5-6.59-.02-7.28-.34Z" fill="#595959"/><path d="M9.02 3h-.87c.05.38-.06.74-.12.87.58-.04 1.22.01 1.47.04.01-.05.02-.24-.06-.53A.5.5 0 0 0 9.02 3ZM8.79 4.07c-.78 0-1.59.07-1.89.1a3.39 3.39 0 0 1-.4 2.65c.39.05 1.43.1 2.48-.12 1.05-.2 1.68-.09 1.86 0 .04-.15.09-.67-.05-1.5-.17-1.04-1.02-1.12-2-1.13ZM9.19 6.92c-.89.17-2.94.25-3.85.27a3 3 0 0 1-.36 3.49c2.52-.59 4.06-.66 4.87-.57.3-.1.67-.33.92-.33.23-.47.47-1.12.5-1.72.04-1.07-.97-1.36-2.08-1.14Z" fill="#5888A6"/><path d="M11.48 9.07c.77-2.9-.1-4.36-.64-4.73a5.23 5.23 0 0 1 2.92 4.86c-.4-.5-1.69-.3-2.28-.13Z" fill="#5888A6"/></svg>