<!-- by TradingView --><svg width="18" height="18" viewBox="0 0 18 18" xmlns="http://www.w3.org/2000/svg"><path fill="#F0F3FA" d="M0 0h18v18H0z"/><path d="M8.58 4.46c.16-.39.21-.46.29-.46.08 0 .13.06.29.42.2.44 2.25 5.27 3.06 7.05.47 1.04.85 1.23 1.12 1.3.17.04.35.07.53.07.08 0 .13 0 .13.07s-.12.09-.26.09c-.2 0-1.16 0-2.06-.02-.25-.01-.4-.01-.4-.09 0-.04.04-.07.1-.08.07-.02.15-.13.07-.31l-1.22-2.88a.1.1 0 0 0-.04-.05.13.13 0 0 0-.07-.02H7.29a.15.15 0 0 0-.08.03.12.12 0 0 0-.05.07l-.78 2.06c-.11.25-.18.52-.19.79 0 .23.28.34.5.34h.13c.1 0 .13.02.13.07 0 .07-.08.09-.2.09h-2.5c-.17 0-.25-.02-.25-.1 0-.04.05-.06.12-.06l.38-.03c.6-.07.86-.51 1.1-1.1l2.98-7.25ZM9.94 9c.07 0 .07-.02.06-.07L8.75 5.9c-.07-.17-.13-.17-.2 0L7.4 8.93c-.03.06 0 .07.04.07h2.5Z"/></svg>