<!-- by TradingView --><svg width="18" height="18" viewBox="0 0 18 18" xmlns="http://www.w3.org/2000/svg"><path fill="#F0F3FA" d="M0 0h18v18H0z"/><path d="M11.3 4H6.58l1.4 2h2l2.5 4H15l-3.7-6Z" fill="#77C45C" fill-opacity=".8"/><path d="M12.5 10 10 6 8.37 7.9l2.61 4.1 1.5-2Z" fill="#549948" fill-opacity=".8"/><path d="M3 10.36 5.49 14l1.5-2-1.5-2 2.5-4-1.4-2L3 10.36Z" fill="#0372B7" fill-opacity=".8"/><path d="m7.99 6-2.5 4h2l2.5-4H8Z" fill="#1A498F" fill-opacity=".8"/><path d="m12.5 14 2.5-4h-2.5L11 12H6.98l-1.5 2h7Z" fill="#0AC3F2" fill-opacity=".8"/><path d="M6.99 12h4l-1.27-2H5.5l1.5 2Z" fill="#009BD4" fill-opacity=".8"/></svg>