<!-- by TradingView --><svg width="18" height="18" xmlns="http://www.w3.org/2000/svg"><path fill="url(#paint0_linear)" d="M0 0h18v18H0z"/><path d="M3.999 4h2.003v1H5v8h1.002v1H3.999V4zM14 4h-2v1h1v8h-1v1h2V4zM7.004 8l1.333-4h1.334l1.333 4h-1.001l-.332-1H8.337l-.333 1h-1z" fill="#fff"/><path d="M8.634 6l.364-1 .37 1h-.734z" fill="#08090D"/><path d="M7.004 14v-4h2.738c1.01 0 1.262.62 1.262 1.057 0 .629-.576.874-.798.956.548 0 .798.44.798.87 0 .9-.841 1.12-1.262 1.117H7.004z" fill="#fff"/><path d="M9.298 10.63h-.963v.92h.963a.488.488 0 00.368-.496c0-.333-.245-.42-.368-.423zm0 1.84h-.963v.918h.963a.489.489 0 00.368-.495c0-.333-.245-.421-.368-.423z" fill="#08090D"/><defs><linearGradient id="paint0_linear" x1="3.349" y1="3.122" x2="21.904" y2="24.434" gradientUnits="userSpaceOnUse"><stop stop-color="#1A1E21"/><stop offset="1" stop-color="#06060A"/></linearGradient></defs></svg>