<!-- by TradingView --><svg xmlns="http://www.w3.org/2000/svg" width="18" height="18"><path fill="#F0F3FA" d="M0 0h18v18H0z"/><path d="M8.71 4.17c.02-.06.07-.16.15-.16.08 0 .12.07.12.16.05 1.86-.2 6.37-1.59 9.56-.04.1-.16.29-.29.27-.16-.03-.11-.31-.08-.45l.01-.03c.08-.27.58-2.1-.14-2.25-.6-.14-1.9 1.28-2.47 2-.04.07-.13.1-.19.05-.08-.06-.06-.2 0-.3l.02-.02c.2-.3 1.65-2.48 1.64-3.29-.02-.85-1.2-1.95-2.28-2.84-.06-.05-.16-.18-.08-.25.09-.07.2 0 .26.04.64.56 2.17 1.54 3.1.95 1.16-.74 1.68-2.8 1.82-3.44zM7.4 6.19a1 1 0 00-1.35-1.03 1.02 1.02 0 00-.23 1.75.98.98 0 001.58-.72z" fill="#48AA43"/><path d="M9.46 4c.06 0 .16.07.17.25 0 .22.1 2.47 1.21 2.92.89.36 2.18-.47 2.7-.93.07-.05.21-.15.3-.04.09.1 0 .21-.09.3-.8.55-2.23 1.5-2.04 2.38.23 1.07.87 1.22 1.56 1.34.55.1.17.39-.09.52-.2.07-.54.29-.3.58l1.02 1.26c.05.05.13.19.08.25-.07.08-.2.04-.25 0l-1.78-1.37a.46.46 0 00-.53 0c-.28.19-.3.34-.3.47v1.85c0 .09 0 .2-.08.21-.07.03-.17-.07-.23-.21l-.68-1.65c-.04-.14-.22-.38-.57-.23l-.59.23c-.09.02-.26 0-.22-.23v-.06c.11-.6.8-4.5.58-7.6-.02-.07-.01-.22.13-.24zm.98 1.78c-.06-.75.66-1.3 1.34-1.03.73.28.85 1.27.23 1.74a.98.98 0 01-1.57-.71z" fill="#0067B4"/></svg>