<!-- by TradingView --><svg width="18" height="18" viewBox="0 0 18 18" xmlns="http://www.w3.org/2000/svg"><path fill="#F0F3FA" d="M0 0h18v18H0z"/><path d="M6.56 5.95H7.7v.32H6.56v-.32ZM5.42 8.5H4.28v.32h1.14V8.5Zm-2.28 2.23H2v.32h1.14v-.32Zm12.86 0h-1.14v.32H16v-.32Zm-9.71 0h5.7v.32H6.3v-.32ZM12.9 8.5h1.14v.32H12.9V8.5Zm-3.1 0h-1.3v.32h1.3V8.5Zm1.96-2.55h-1.14v.32h1.14v-.32Z" fill="#114835"/><ellipse cx="1.29" cy="1.26" rx="1.29" ry="1.26" transform="matrix(-1 0 0 1 14.68 9.48)" fill="#114835"/><path d="M14.13 10.06c-.34-.35-.86-.36-1.08-.31a.9.9 0 0 0-.03 1.05c.3.46.96.44 1.26.37.08-.22.18-.76-.15-1.11Z" fill="#A3B2AB"/><ellipse cx="1.3" cy="1.26" rx="1.3" ry="1.26" transform="matrix(-1 0 0 1 6.23 9.48)" fill="#114835"/><path d="M5.68 10.06c-.34-.35-.86-.36-1.08-.31a.9.9 0 0 0-.04 1.05c.3.46.97.44 1.27.37.09-.22.18-.76-.15-1.11Z" fill="#A3B2AB"/><ellipse cx="1.3" cy="1.27" rx="1.3" ry="1.27" transform="matrix(-1 0 0 1 12.74 7.23)" fill="#114835"/><path d="M12.19 7.81c-.34-.35-.86-.36-1.08-.31a.91.91 0 0 0-.04 1.06c.3.47.97.45 1.27.38.09-.23.18-.77-.15-1.13Z" fill="#A3B2AB"/><ellipse cx="1.3" cy="1.27" rx="1.3" ry="1.27" transform="matrix(-1 0 0 1 8.19 7.35)" fill="#114835"/><path d="M7.63 7.93c-.34-.35-.86-.36-1.08-.31a.91.91 0 0 0-.03 1.06c.3.47.96.45 1.26.38.09-.23.18-.77-.15-1.13Z" fill="#A3B2AB"/><ellipse cx="1.3" cy="1.27" rx="1.3" ry="1.27" transform="matrix(-1 0 0 1 10.47 5)" fill="#114835"/><path d="M9.9 5.59c-.33-.36-.85-.36-1.07-.32a.91.91 0 0 0-.04 1.06c.3.47.97.45 1.27.38.09-.23.18-.77-.15-1.12Z" fill="#A3B2AB"/></svg>