<!-- by TradingView --><svg width="18" height="18" viewBox="0 0 18 18" xmlns="http://www.w3.org/2000/svg"><path fill="#F0F3FA" d="M0 0h18v18H0z"/><path d="M11.22 4.13h.66v9.74H6.12v-1.98l5.1-7.76Z" fill="#FFF200"/><path d="M6.12 4.13v7.74l5.1-7.74h-5.1Z" fill="#ED1D24"/><path d="M6.25 13.7V4.3h5.5v9.4h-5.5ZM12 4H6v10h6V4Z"/><path d="M11 4.3 6 12h.62L11 5.31V4.3Z" fill="#0095DA"/><path d="M10.5 8.7 8.15 7.14l2.54-1.42-.19 3ZM10.71 12H8.14l1.3-2 1.27 2Z"/><path d="M8.59 13c0-.56 1.2-.51 1.7 0h-1.7Z" fill="#ED1D24"/></svg>