<!-- by TradingView --><svg xmlns="http://www.w3.org/2000/svg" width="18" height="18" viewBox="0 0 18 18"><path fill="#F0F3FA" d="M0 0h18v18H0z"/><path d="m6.27 6-.7-1.42C6 4.38 7.1 4 8.03 4c1.17 0 5.14.45 5.14 4.44-.02.4-.1 1.28-.31 1.72A6.45 6.45 0 0 1 14 13.5h-1.68c0-.4-.07-1.09-.36-1.59A5.23 5.23 0 0 1 7.7 14C4.77 14 4 11.81 4 10.7c0-1.1 1.2-2.94 4.12-2.94.63.03 2.19.26 3.39 1 .14-.62.06-2.04-1.35-2.77-1.42-.72-3.19-.3-3.9 0Zm4.71 4.44a4.77 4.77 0 0 0-3-1.08c-1.86 0-2.39 1.2-2.39 1.64 0 .45.32 1.36 2.19 1.36 1.86 0 2.72-1.2 3.2-1.92Z" fill="#F04B37"/></svg>