<!-- by TradingView --><svg xmlns="http://www.w3.org/2000/svg" width="18" height="18"><path fill="#8963C8" d="M0 0h18v18H0z"/><path fill-rule="evenodd" d="M13.58 8.58c0 1.2-.45 2.27-1.19 3.09-.62.83-2.2 2.62-3.68 3.24-.21.1-.7.2-.71-.25v-1.6A4.58 4.58 0 019 4a4.58 4.58 0 014.58 4.58zm-1.2 3.1a4.61 4.61 0 01-.46.43c.17-.12.33-.27.46-.43zM6 7a1 1 0 011-1h4a1 1 0 01.83.44h-.37c-.4.02-.6.25-.66.37l-.72 1.26c-.06.11-.14.19-.23.19-.1 0-.16-.13-.2-.19l-.8-1.33c-.17-.3-.61-.3-.87-.3-.78 0-1.01.16-1.08.26-.07.1-.07.36.18.42s.3.29.3.4c.07.65-.01 1.69-.05 2.14l-.01.16c-.02.24-.17.35-.24.37-.07.02-.21.1-.21.21 0 .15.04.32.87.32s.88-.27.88-.32c0-.04-.03-.16-.21-.23-.15-.06-.18-.29-.18-.4v-.86c0-.3.23-.16.33.06.26.57.6 1.2.73 1.43.08.13.14.2.22.2.07 0 .16-.11.2-.2.35-.75.68-1.3.8-1.5.13-.2.25-.08.25.07v.8a.46.46 0 01-.18.37c-.15.12-.18.22-.17.26 0 .28.44.33.66.32h.62A1 1 0 0111 11H7a1 1 0 01-1-1V7z" fill="#fff"/></svg>