<!-- by TradingView --><svg width="18" height="18" viewBox="0 0 18 18" xmlns="http://www.w3.org/2000/svg"><path fill="#F0F3FA" d="M0 0h18v18H0z"/><path fill-rule="evenodd" d="m11.88 5.37.26-2.19a4.2 4.2 0 0 0-.7 1.76c.21.12.32.26.3.43a.6.6 0 0 1 .37.09c0 .05 0 .1-.03.16 0-.06-.09-.1-.25-.11-.21-.02-.31.01-.3.1l-.03.02a.14.14 0 0 1-.01-.18.57.57 0 0 1 .18-.07c.04-.06-.07-.2-.33-.4a5 5 0 0 1 .82-1.97V3h.01v.03c.16.65.22 1.32.19 1.98-.22.09-.39.16-.48.36ZM9.4 7.4c.2-.05.31-.05.31.04-.08-.07-.18-.07-.31-.04ZM7.94 5.3c-.5.22-.5.66-.39 1.04a.93.93 0 0 1 .14-.42c.08-.12.18-.23.32-.32a.2.2 0 0 1 .03-.05.49.49 0 0 1 .07-.05c.07-.05.16-.12.14-.18-.05-.12-.2-.06-.3-.02h-.01Zm2.7 1.3h.02a.78.78 0 0 0-.07-.05h-.01c-.22-.13-.4-.3-.56-.5v-.11c0-.11-.01-.24-.05-.27l-.1.04-.08.04c-.33-.1-1.32.26-1.6.42 0 0 .35-.08.54-.04.43.07 1.1.22.93.5-.03.05-.19.08-.34.1l-.17.04c-.73.07-1.13.34-1.19.81.1-.22.36-.5 1.05-.66.42-.08.8 0 1.09.07l.2.05c.08.01.15.02.22.01.02 0 0-.02-.03-.05a1.2 1.2 0 0 1-.07-.08l-.32-.36a3.7 3.7 0 0 1-.2-.23V6.3a.13.13 0 0 0-.04-.06c-.13-.13-.67-.21-.76-.2-.03 0 .53-.27.85.1l.04.05c.08.08.2.23.33.3.1.06.2.1.32.1ZM9.2 7a.62.62 0 0 0-.33.2c-.16.2-.33.33-.5.35.19.02.38-.1.58-.37.07-.1.21-.16.44-.18a.5.5 0 0 0-.2 0c-.14-.03-.29.03-.41.16a.73.73 0 0 1-.42.29c.15.01.31-.09.48-.3.06-.08.18-.13.36-.14Zm0 0Zm.7 1.2c-.02-.02-.05-.02-.1-.01.01-.05-.02-.07-.06-.1-.04-.02-.08-.04-.09-.1v-.03a.36.36 0 0 1 .08-.01c.04-.01.08-.02.1-.05a.29.29 0 0 0 .04-.13c0-.04 0-.08.02-.15.02-.08-.06-.1-.11-.12h-.04c-.01 0-.02 0-.02.02v.03c-.1-.02-.2-.04-.29-.09.04.07.12.1.26.13a.36.36 0 0 1-.18-.02.32.32 0 0 1-.14-.1.26.26 0 0 0-.13-.02l.07-.02.06-.03a.46.46 0 0 1-.25-.03.54.54 0 0 0 .06-.04c.04-.04.07-.07.12-.08.34.02.54.07.6.14h.02c.03.04.06.07.06.09l.01.06.03.12.1.3a.5.5 0 0 0 .05.08l.01.02h-.02a.52.52 0 0 0-.17.03c-.04 0-.09.03-.1.11Zm-1.7-.46c.04.16.08.28-.47.34.46-.1.43-.23.4-.36-.03-.11-.06-.23.17-.35-.18.13-.14.26-.1.37Zm-.3.59c.15-.04.3-.07.3-.33-.08.18-.16.2-.27.24l-.06.02c-.14.05-.33.16-.33.26.06-.09.2-.15.33-.19h.03Zm-2.93 5.42a.45.45 0 0 1-.15-.22 4.3 4.3 0 0 1 .23-2.2c-.13 1.2-.07 2.03.18 2.53a.53.53 0 0 1-.26-.11Zm4.46-.48.02.54-.3-.08.04-.56.24.1Zm.38.56a4 4 0 0 1-.26-.58.2.2 0 0 1-.05.03l.1.55h-.02c.08.03.17.04.25.05l-.02-.05Zm-.85-.77-.2.49.25.12.14-.53a1.46 1.46 0 0 0-.2-.08Zm-.06-.37c-.18-.02-.39-.27-.29-.55-.2-.1-.67-.65-.21-.61a1.3 1.3 0 0 1-.47-.72c.15.3.45.57.72.77a.75.75 0 0 1-.14.02c-.46-.01-.01.4.2.49-.1.27.04.54.19.6Zm.66.4c-.02.1-.07.1-.13.03a.48.48 0 0 1-.08-.41c.04-.2.14-.27.2-.18v.01c-.05 0-.09.06-.11.18-.02.11 0 .23.07.33l.05.05Zm0-.55v-.07c.57-.26 1.04-.58 1.23-.95l.01-.07-.36 2.42c-.18.02-.36.02-.54 0-.12-.29-.35-.7-.35-.7v-.04l.01-.03c.02-.01.02-.03.03-.07.06-.29.02-.44-.04-.47v-.02Zm1.04 1.35.27-.1-.3.06c.1-1.03.3-2.21.42-3.06l.15-1.02c.06 0 .14 0 .22.04 0 0-.1.59-.18 1.21.38-.48.52-.88.42-1.1l-.08-.15c0-.06-.07-.13-.2-.2a.21.21 0 0 0-.11-.07c-.13.01-.17 0-.12-.02.12-.07.27-.06.46.03a.62.62 0 0 0-.32-.2.26.26 0 0 0-.1.03.23.23 0 0 0-.07.06c-.02 0-.03-.02-.02-.04a.37.37 0 0 1 .12-.1.4.4 0 0 1 .15-.03c.13.03.25.1.35.17.02-.02.02-.07 0-.13-.07 0-.11-.04-.16-.12a.09.09 0 0 0-.11-.01c-.14-.02-.24-.01-.3.05 0-.06.04-.1.15-.16A.1.1 0 0 0 11.2 9a.11.11 0 0 0-.14.03.5.5 0 0 0 0 .17c-.05.13-.07.26-.08.4-.01.16.01.27.04.35l-.05.35c-.29.4-.62.63-.88.82a2.61 2.61 0 0 0-.36.29c.05-.17.1-.33.17-.5.21-.05.33-.21.33-.47a2.9 2.9 0 0 1-.46-.87.97.97 0 0 0-.12-.3.53.53 0 0 0-.1-.13l.03.04c-.1-.12-.25-.22-.46-.3a.37.37 0 0 0-.06-.02c-.06-.18-.01-.24.13-.2.11.04.5.17.52.02.01-.02 0-.03-.01-.02l-.03.01c-.03.02-.04.03-.15 0-.34-.1-.85-.4-.59-.77a.14.14 0 0 0 .04-.05L9 7.78c-.01-.17.01-.3.07-.37h-.02v.01c-.19.24-.41.3-.64.23.21.01.49-.2.66-.4a.6.6 0 0 1 .42-.24l.07-.02.05.01h.02c.14.04.29.06.44.06.1 0 .07.31.02.39.01 0 .1-.06.21-.22.04-.05.13-.06.2-.07h.05c.12-.02.17-.06.18-.1l-.06-.09a1.09 1.09 0 0 1-.2-.24c.03 0 .06-.02.08-.03l.07-.04c.15-.04.15-.08-.05-.16a1.82 1.82 0 0 1-.52-.45c.01-.07.06-.42-.06-.45a.62.62 0 0 0-.12-.01c-.06 0-.1 0-.13-.09-.1-.22-.41-.3-.65-.3.1-.12.47-.19 1.04.2.11-.33.65-.82.83-.98-.08-.03-.3.21-.4.31l-.03.04c.16-.2.27-.34.35-.41a4.6 4.6 0 0 0-.24-.15 3.6 3.6 0 0 0-.57.83c.1-.31.27-.61.47-.89a1.7 1.7 0 0 0-.1-.05 3.9 3.9 0 0 0-.4.72c.08-.27.18-.52.3-.76-.2.24-.39.5-.53.78a3.6 3.6 0 0 1 .43-.84c-.24.26-.44.53-.6.83.12-.31.28-.6.48-.88a4.06 4.06 0 0 0-.65-.18c-.15.31-.26.65-.32 1 .01-.35.08-.7.2-1.02-.16.32-.27.65-.33 1 .01-.35.08-.7.21-1.02h-.01c-.16.32-.27.65-.34 1 .02-.35.08-.69.2-1.02h-.01c-.16.32-.27.66-.34 1 .02-.34.08-.68.2-1h-.3a3.8 3.8 0 0 0-.1 1.12c-.08-.43-.1-.79-.03-1.1-.09 0-.18.02-.27.04 0 .38.04.75.14 1.12a3.15 3.15 0 0 1-.26-1.1l-.17.05c.05.37.16.72.32 1.06-.2-.32-.35-.66-.44-1.02l-.17.07c.1.36.27.71.48 1.04-.26-.3-.46-.63-.6-.99l-.23.12c.18.35.42.66.7.94a3.5 3.5 0 0 1-.8-.87c-.11.07-.21.15-.3.23.3.1.65.35.86.58a2.32 2.32 0 0 0-.92-.53l-.17.18c.31.04.7.22.95.4-.3-.18-.64-.3-1-.34l-.16.27c.33-.04.66-.02.98.06a2.56 2.56 0 0 0-1.02.02c-.05.11-.09.23-.11.35a1.3 1.3 0 0 1 1.17-.27c-.55-.05-.98.16-1.2.5v.03c.35-.35.88-.48 1.27-.36-.61-.06-1.07.2-1.26.6.05.36.23.68.4.98.25.44.47.84.28 1.28.2-.06.7-.6.7-1.05 0 .06 0 .11.03.17l.07.35c-.01.06-.05.1-.1.15l-.08.13c0 .02 0 .06.02.11.01.06.02.13 0 .16-.1.08-.12.21-.15.31v.04a.36.36 0 0 1-.1.16c-.1.1-.18.12-.3.15H7a.97.97 0 0 1-.58-.06c-.2-.07-.4-.14-.77 0-.25.1-.1.36.1.27a.2.2 0 0 0 .1-.07.17.17 0 0 0 .02-.1c.17-.11.69.02.18.21-1.22.51-2.19 2.87-2.02 4.06.04-.94.4-1.85 1.09-2.75.51-.67.56-.7.44.22-.16 1.31-.06 2.28.21 2.53-.06-.7-.1-1.46.05-2.2.16-.82.4-1.16.38-.17-.03 1 .28 1.57.7 2.37l.05.1a6.4 6.4 0 0 1-.42-3.37c.03-.16.07-.14.16-.1-.18 1.64.28 2.93 1.33 3.63a2.87 2.87 0 0 0 2.42.5v.02c.15-.02.18-.04.17-.06Zm-1.48-5h.01-.01Zm-.09-.03Zm.55.32.07.1c.13.27.02.63-.41.58a.53.53 0 0 0 .38-.02.34.34 0 0 0 .1-.07.3.3 0 0 0 .07-.1c.03.23.02.47 0 .7l-.03.36c-.26-.33-.69-.5-1.11-.6.08-.05.16-.12.14-.21-.02-.12-.18-.17-.29-.2a1.56 1.56 0 0 0-.7-.01c-.23.04-.45.06-.68.05.1-.03.18-.09.24-.15.07.04.23.01.42-.01.42-.06 1-.14 1.13.3-.1-.48-.66-.42-1.06-.37-.19.02-.34.04-.41 0 .2-.3-.1-.7-1.16-.48a.14.14 0 0 0 .06-.06.12.12 0 0 0 0-.07c-.02-.1-.18-.13-.27-.13a.35.35 0 0 0-.22.04l-.03.03h.02v.02a.1.1 0 0 0-.06-.03h-.05a.1.1 0 0 0-.04.03.07.07 0 0 0 0 .08v-.04l.04-.02h.04l.03.01.01.03v.03a.13.13 0 0 1-.05.02c-.05.02-.11.03-.14-.02a.08.08 0 0 1 0-.07c0-.03.04-.06.08-.08a1 1 0 0 1 .4-.07c.1.01.2.03.3.07.09.04.18.06.28.08.12.03.24.03.36 0 .15-.03.3-.07.44-.13a1.1 1.1 0 0 0 .3-.15c-.02.31.24.69.4.7-.2-.13-.35-.57-.22-.82l.08-.04.1-.06a1.56 1.56 0 0 0 .9 1.25c.43.17.7-.15.54-.47ZM8.2 10.4c-.08-.19-.14-.32-.42-.23.26-.07.33.12.4.31.04.1.07.2.14.28.06.09.12.17.2.25.55.56 1.34.14 1.3-.19-.12.16-.27.2-.46.24H9.3c-.2 0-.44-.05-.73-.18a.88.88 0 0 1-.37-.48Zm1.5.18c-.03-.24-.2-.42-.5-.51l.33-.08-.78.08c.54.09.85.26.95.5Zm-3-1.32v-.02a.15.15 0 0 1 .06-.06.3.3 0 0 1 .35 0l.04.05c.02.02.02.05.02.07l-.01.07a.16.16 0 0 1-.05.05.32.32 0 0 1-.07.04h-.08c-.15 0-.26-.08-.26-.19v-.01Zm-.02-.05a.14.14 0 0 0-.03.1V9.3a1.72 1.72 0 0 0-.7.4c.08-.14.2-.28.34-.38l.2-.15-.25.05c-.22.05-.44.13-.63.24.3-.3.63-.42 1.07-.4.86-.11.81.45.28.56l.03-.12a.3.3 0 0 0 .2-.12.16.16 0 0 0 0-.16.18.18 0 0 0-.07-.07.28.28 0 0 0-.19-.06.34.34 0 0 0-.19.06.27.27 0 0 0-.06.07Zm.23.02.02-.05A.4.4 0 0 1 7 9.17l.07.02.02.03.01.03c0 .02-.01.04-.03.05a.15.15 0 0 1-.06.02.1.1 0 0 1-.06-.02.08.08 0 0 1-.03-.06Zm.17-.05a.17.17 0 0 0-.1-.03.2.2 0 0 0-.08.03.09.09 0 0 0-.03.03l-.01.04v.03c.02.02.02.03.04.03a.16.16 0 0 0 .18 0s.02-.01.02-.03l.01-.03v-.04a.1.1 0 0 0-.03-.03Zm1.27-.65c.15.54.47.62.69.64l-.02-.03a3.4 3.4 0 0 1-.18-.2c-.12-.17-.2-.41-.26-.6l-.08-.22c-.04-.04-.05-.03-.1-.02h-.04v.02l-.01.18c-.01.08-.02.16 0 .23Zm1.31-.23h.07c.08.04.13.03.15 0v-.03a.1.1 0 0 0 .02-.04h-.02l-.02-.01h-.02l-.02-.02a.8.8 0 0 1-.28.06c.03.04.08.04.12.04Zm.18.09Zm0 0a.13.13 0 0 0-.04.04l-.01.06a.14.14 0 0 1-.06-.04.12.12 0 0 1-.03-.05l.02-.01h.12ZM7.3 10.58c-.23.2-.2.03-.16-.1-.04-.01-.16.16-.17.26a1.6 1.6 0 0 1-.11-.94c.15.02.3.03.44.02.18.44.15.63 0 .76Zm3.94-1.72h.01-.03.02Zm.22.02-.2-.01-.04-.02a.43.43 0 0 1-.1-.07v.06l.01.02.05.07a.2.2 0 0 0 .09.05c.06.02.12.04.19.04.08-.01.16.06.23.24a.34.34 0 0 0 .02-.22.71.71 0 0 0-.25-.16Zm-.16-.16h-.08l.23-1.66c-.43.44-.58.84-.44 1.2-.26-.5-.1-.98.47-1.45l.01-.11c-.3-.5-.23-.87.22-1.12.12-.02.21 0 .25.06.1.13.32.27.66.4a1 1 0 0 1-.57-.2c.09.1.24.2.4.32l.34.23c.1.05.12 0 .06-.11.3.28.1.72-.17.99.36-.59.11-.77-.22-1.01l-.29-.22c.14.32.08.58-.2.77a.75.75 0 0 0 .1-.7 1 1 0 0 0-.15-.22c-.17-.03-.2.04-.1.23.12.16.18.3.16.4 0 .05 0 .1-.03.14a.31.31 0 0 1-.1.1c.1-.2.09-.37-.05-.5l-.08.27c-.03-.06-.07-.08-.1-.08-.2 1.5-.3 2.26-.32 2.27Zm.44-1.99-.02.2c.42.48.45.87.1 1.3a.93.93 0 0 0 .38-1 .87.87 0 0 0-.22-.39c.17.26.2.4.13.4l.01.01c-.07-.02-.16-.17-.24-.3-.05-.1-.1-.17-.14-.22Z" fill="#666"/></svg>