<!-- by TradingView --><svg width="18" height="18" viewBox="0 0 18 18" xmlns="http://www.w3.org/2000/svg"><path fill="url(#al2uwenqq)" d="M0 0h18v18H0z"/><path d="M6.33 11.33V12h1v-.66A2.5 2.5 0 0 0 9 12c.9 0 1.68-.5 2.17-1.25A2.59 2.59 0 0 0 13.33 12c1.46 0 2.64-1.3 2.67-2.93l-1.1.61c-.23.77-.85 1.32-1.57 1.32-.5 0-.94-.26-1.25-.68L15 8.56l.86-.51C15.51 6.85 14.51 6 13.33 6c-1.4 0-2.56 1.23-2.66 2.8l-.01-.02V9c0 1.1-.74 2-1.66 2-.92 0-1.66-.9-1.67-2 0-1.1.75-2 1.67-2 .3 0 .58.1.82.26l.53-.85C9.95 6.15 9.5 6 9 6c-.9 0-1.68.5-2.17 1.25A2.59 2.59 0 0 0 4.67 6C3.19 6 2 7.34 2 9c0 1.65 1.2 2.99 2.67 2.99.35 0 .69-.08 1-.22V10.6c-.28.25-.63.4-1 .4C3.75 11 3 10.1 3 9s.75-2 1.67-2c.92 0 1.66.9 1.66 2v2.33Zm5.34-2.32V9c0-1.1.74-2 1.66-2 .5 0 .95.26 1.25.68l-2.87 1.76a2.38 2.38 0 0 1-.04-.43Z" fill="#F0B430"/><defs><linearGradient id="al2uwenqq" x1="3.35" y1="3.12" x2="21.9" y2="24.43" gradientUnits="userSpaceOnUse"><stop stop-color="#1A1E21"/><stop offset="1" stop-color="#06060A"/></linearGradient></defs></svg>