<!-- by TradingView --><svg width="18" height="18" xmlns="http://www.w3.org/2000/svg"><path fill="#EE2E24" d="M0 0h18v18H0z"/><path d="M11.503 6.57C11.33 6.209 10.885 6 9.8 6c-1.56 0-1.875.346-2.205 1.605l-.6 2.244a6.538 6.538 0 00-.08.36c-.043.23-.063.42-.063.554 0 .175.018.335.064.478.151.475.607.758 1.714.758 1.553 0 1.868-.333 2.16-1.388l.335-1.017H9.49l-.221.66c-.101.252-.142.445-.405.445-.218 0-.33-.193-.255-.445l.63-2.45c.052-.245.127-.48.45-.48.21 0 .322.188.247.445L9.76 8.4h1.606l.1-.285a3.763 3.763 0 00.143-.925c0-.238-.021-.447-.105-.62zm4.392 0c-.174-.36-.619-.57-1.703-.57-1.56 0-1.876.346-2.206 1.606l-.6 2.244a6.476 6.476 0 00-.079.359 3.19 3.19 0 00-.064.555c0 .175.019.335.064.478.152.474.607.758 1.714.758 1.554 0 1.869-.334 2.161-1.389l.323-1.011h-1.636l-.21.654c-.1.252-.141.445-.405.445-.217 0-.33-.193-.255-.445l.63-2.449c.053-.246.128-.48.45-.48.21 0 .323.187.248.445l-.135.633h1.605l.06-.288A3.763 3.763 0 0016 7.19c0-.238-.021-.446-.105-.62zM5.084 9.6h-.86l1.231-2.273h.053L5.084 9.6zM7.155 6H4.656L1 12h1.907l.68-1.2h1.25L4.61 12h1.81l.734-5.518L7.219 6" fill="#fff"/></svg>