<!-- by TradingView --><svg width="18" height="18" viewBox="0 0 18 18" xmlns="http://www.w3.org/2000/svg"><path fill="#F0F3FA" d="M0 0h18v18H0z"/><path d="M5 7.18c0 .74.37.96.67 1.49C8.27 6.65 10.4 6.05 11.5 6l.5.01C6.65 7.66 6.5 9.27 6.5 9.58c.65 2.34 3.38 4.75 4.97 4.75 1.6 0 2.25-2.53 2.53-3.33 0 1.67-.65 4-2.78 4-3.72 0-5.44-3.96-5.56-4.32-.8.09-1.66-.57-1.66-2.83C4 6.05 5.68 4.55 6.5 4c-.09-.09-.32-.37-.32-.53 0-.36.56-.46.82-.47-.14.07-.47.24-.47.42 0 .22.28.36.47.58-1.8 1.15-2 2.43-2 3.18Z" fill="#1F63AD"/></svg>