<!-- by TradingView --><svg width="18" height="18" viewBox="0 0 18 18" xmlns="http://www.w3.org/2000/svg"><path fill="#F0F3FA" d="M0 0h18v18H0z"/><g opacity=".8"><ellipse cx="9" cy="9" rx="5" ry="6" fill="url(#addp5zgg1)"/><ellipse cx="9" cy="9" rx="4.57" ry="5.49" fill="url(#bddp5zgg1)"/><ellipse cx="9" cy="9" rx="4.16" ry="5" fill="url(#cddp5zgg1)"/><ellipse cx="9" cy="9.14" rx="3.79" ry="4.41" fill="url(#dddp5zgg1)"/><ellipse cx="9" cy="9.22" rx="3.26" ry="3.69" fill="url(#eddp5zgg1)"/><ellipse cx="9" cy="9.28" rx="2.45" ry="2.94" fill="#E22A2C"/><ellipse cx="9" cy="9.46" rx="1.74" ry="1.91" fill="#F76156"/><ellipse cx="9" cy="9.68" rx="1.32" ry="1.31" fill="#E8C8B1"/><ellipse cx="9" cy="9.68" rx=".93" ry=".92" fill="#FFF3EA"/></g><path d="M9.39 15h-1.7c-.06-.45-.05-1.54.42-2.17.8-1.14 3.45-1.2 4.56-1.17 0-.87 0-2.84-1.73-2.84-1.72 0-1.55 1-1.43 1.16.11.16.28.96-.59.96-.7 0-.8-.6-.77-.91 0-1.42 1.86-1.75 2.8-1.74 2.6 0 3.11 1.66 3.04 2.49v4.18h-2.2c.43-.3.84-1.13.88-1.5v-1.4c-1.92-.14-3.22.7-3.33 1.48-.08.61 0 1.24.05 1.46Z" fill="#F0F3FA"/><defs><linearGradient id="addp5zgg1" x1="9" y1="3" x2="9" y2="15" gradientUnits="userSpaceOnUse"><stop stop-color="#D9A1BA" stop-opacity=".7"/><stop offset="1" stop-color="#DA0E6D"/></linearGradient><linearGradient id="bddp5zgg1" x1="9" y1="3.51" x2="9" y2="14.49" gradientUnits="userSpaceOnUse"><stop stop-color="#E3BFD3"/><stop offset="1" stop-color="#EB2848"/></linearGradient><linearGradient id="cddp5zgg1" x1="9" y1="4" x2="9" y2="14" gradientUnits="userSpaceOnUse"><stop stop-color="#E5A8B9"/><stop offset="1" stop-color="#C44056"/></linearGradient><linearGradient id="dddp5zgg1" x1="9" y1="3.64" x2="9" y2="13.55" gradientUnits="userSpaceOnUse"><stop stop-color="#D21531" stop-opacity="0"/><stop offset=".76" stop-color="#D21531"/></linearGradient><linearGradient id="eddp5zgg1" x1="10.16" y1="13.25" x2="9.49" y2="3.95" gradientUnits="userSpaceOnUse"><stop stop-color="#BF2138"/><stop offset="1" stop-color="#BF2138" stop-opacity="0"/></linearGradient></defs></svg>