<!-- by TradingView --><svg xmlns="http://www.w3.org/2000/svg" width="18" height="18" viewBox="0 0 18 18"><path fill="#0057B8" d="M0 0h18v18H0z"/><path d="M13.29 8.23c-.08.43-.04.96.48.96.4 0 .71-.4.8-.96.09-.45-.01-.92-.49-.92-.4 0-.72.5-.8.92Zm2.37 0c-.2 1.13-.92 1.77-2.04 1.77-.87 0-1.6-.65-1.4-1.78.18-1.04.85-1.72 2.01-1.72 1.05 0 1.58.85 1.43 1.73Zm-11.5.5.52-1 .14 1h-.66ZM4.4 6.5 2.48 10h1.05l.27-.52h1.11L5 10h.99L5.4 6.5H4.4Zm4.55 0H6.08l-.18.95h.94L6.34 10h1.03l.5-2.55h.91l.18-.95Zm1.24 2.7c.3 0 .55-.22.7-.57h1.02A1.81 1.81 0 0 1 10.07 10c-.84 0-1.54-.65-1.35-1.78.18-1.04.82-1.72 1.93-1.72.87 0 1.37.65 1.39 1.4h-1c-.02-.34-.16-.6-.52-.6-.4 0-.72.5-.8.93-.06.43-.03.98.48.98Z" fill="#fff"/><path d="M16 11H2.47L2 12h13.53l.47-1Z" fill="#F2AA00"/></svg>