<!-- by TradingView --><svg width="18" height="18" viewBox="0 0 18 18" xmlns="http://www.w3.org/2000/svg"><path fill="#F0F3FA" d="M0 0h18v18H0z"/><path fill-rule="evenodd" d="M6.14 13.97c.02.04.07.04.1 0a12.66 12.66 0 0 1 2.1-1.54l.53-.34c.73-.41 1.47-.8 2.2-1.2l.87-.45a9.8 9.8 0 0 0 1.57-1.03c.58-.48 1.04-1.15.99-1.9-.07-.92-.47-1.62-1.21-2.11a4.11 4.11 0 0 0-1.18-.54 9.37 9.37 0 0 0-5.14 0c-1.82.56-3.15 2.07-2.95 4.07.04.4.21.98.52 1.74.46 1.14 1 2.24 1.6 3.3Zm4.76-9.04a23.49 23.49 0 0 0-1.12-.09.02.02 0 0 0 .01.03 3.11 3.11 0 0 1 1.6 1.91l.03.01c.31.04.54.2.69.47a.17.17 0 0 0 .11.09c.61.12 1.53.48 1.58 1.23a.03.03 0 0 0 .04.02h.01c.23-.33.33-.68.31-1.1-.07-1.76-1.81-2.38-3.26-2.57Zm-.33 2.35c.1-.2.24-.34.45-.43l.03-.02v-.04a2.8 2.8 0 0 0-1.4-1.63c-.38-.2-.89-.32-1.36-.25-.9.13-1.69.33-2.45.84a1.2 1.2 0 0 0-.29.25 1.8 1.8 0 0 0-.33.73c-.16.8.45 1.48 1.02 1.93a.06.06 0 0 0 .07 0c.2-.13.4-.14.58-.03a.09.09 0 0 0 .1 0 8.92 8.92 0 0 1 3.54-1.3.13.13 0 0 0 .04-.05Zm-5.66-.55c-.16.91.47 1.68 1.16 2.19a.1.1 0 0 1 .04.1c-.02.08-.01.17.02.24a.08.08 0 0 1-.02.09 3.06 3.06 0 0 0-.97 1.88h-.02l-.01-.01-.48-1.2a5.6 5.6 0 0 1-.21-.67 3.27 3.27 0 0 1 .46-2.65h.03v.03Zm5.9 1.6a.88.88 0 0 1-.33-.65.02.02 0 0 0-.02 0 9.14 9.14 0 0 0-3.3 1.24l-.01.03v.19a.06.06 0 0 0 .03.05l.34.16a7.87 7.87 0 0 0 2.68.52.1.1 0 0 0 .03-.04c.08-.15.2-.23.39-.23a.12.12 0 0 0 .1-.06 5.04 5.04 0 0 0 .38-1.02c0-.01 0-.02-.02-.02-.03-.03-.07-.05-.1-.06l-.17-.1Zm1.43-.65c.4.05 1.45.5 1.23 1.12-.14.4-.43.53-.85.7a5.84 5.84 0 0 1-1.62.35.08.08 0 0 1-.04-.06v-.04a4.65 4.65 0 0 0 .46-1.2c0-.02.02-.02.03-.03l.11-.03a.66.66 0 0 0 .14-.04.86.86 0 0 0 .51-.76.03.03 0 0 1 .02-.01h.01Zm-6 5.84h.02l.04-.01c.63-.55 1.3-1 2.02-1.46a8.03 8.03 0 0 0 1.92-1.79.08.08 0 0 0-.03-.05h-.04a8.04 8.04 0 0 1-3.16-.72c-.01 0-.03 0-.04.02a.56.56 0 0 1-.61.05.03.03 0 0 0-.03 0c-.67.7-1.04 1.49-.81 2.43.05.2.16.46.32.77a642.51 642.51 0 0 1 .4.76Zm3.77-2.41h-.02v-.02l.01-.04a5.23 5.23 0 0 0 .5-.57.1.1 0 0 1 .05 0c.18.01.35-.06.44-.23a.25.25 0 0 1 .04-.06 4.15 4.15 0 0 0 .94-.17.02.02 0 0 1-.01.03c-.07.06-.16.11-.27.17-.63.32-1.2.62-1.68.89Z" fill="#0373BC"/></svg>