<!-- by TradingView --><svg width="18" height="18" viewBox="0 0 18 18" xmlns="http://www.w3.org/2000/svg"><path fill="#F0F3FA" d="M0 0h18v18H0z"/><path d="M7 6.08c-.02.19.1.36.29.38a.33.33 0 0 0 .37-.3.34.34 0 0 0-.3-.37.34.34 0 0 0-.36.3Zm3.91.45a.34.34 0 0 1-.25-.58c.06-.06.14-.1.22-.1.19 0 .34.14.35.33.01.19-.13.34-.32.35Zm.67-.46c.09-.09.21-.12.33-.09.18.06.28.24.23.42a.33.33 0 0 1-.42.23.34.34 0 0 1-.14-.56Zm-1.83.08a.34.34 0 0 0-.07.36c.07.17.26.26.43.19a.34.34 0 0 0 .2-.44.33.33 0 0 0-.56-.11Zm2.7.85c.16.1.37.07.47-.08a.34.34 0 0 0-.07-.48.33.33 0 0 0-.43.04.34.34 0 0 0 .04.52Zm-3-.35c.12.14.1.35-.04.48a.33.33 0 0 1-.47-.04.34.34 0 0 1 .04-.48c.14-.12.35-.1.47.04Zm-1.1.7c.11-.11.28-.14.42-.06.15.1.2.3.11.47-.1.16-.3.2-.46.11a.34.34 0 0 1-.06-.53Zm-.33.87a.34.34 0 0 0 .17.57.34.34 0 0 0 .14-.66.33.33 0 0 0-.3.09Zm4.91 2.42a.33.33 0 0 1 .45-.01c.15.12.16.33.04.47a.33.33 0 0 1-.47.04.34.34 0 0 1-.02-.5Zm-.64.56a.34.34 0 0 0-.11.46c.1.16.3.22.45.12.16-.1.21-.3.12-.46a.33.33 0 0 0-.46-.12ZM8.26 9.73a.34.34 0 0 1-.37-.3.34.34 0 0 1 .29-.37c.18-.02.35.1.37.3.02.18-.1.35-.29.37ZM11 11.92a.34.34 0 0 0-.29-.38.34.34 0 0 0-.37.3c-.02.18.1.35.3.37.17.02.34-.1.36-.3Zm.93-.16a.33.33 0 1 1-.65.14.34.34 0 0 1 .25-.4c.18-.04.36.08.4.26Zm1.88-3.2a.34.34 0 0 0-.19-.66.34.34 0 0 0-.22.42c.05.18.24.28.41.23Zm-.74-1.42a.33.33 0 0 1 .5.04c.12.16.08.37-.07.48a.33.33 0 0 1-.46-.08.34.34 0 0 1 .03-.44Zm.78 1.68c.18 0 .32.16.32.35-.01.19-.17.33-.35.33a.34.34 0 0 1-.32-.35.34.34 0 0 1 .35-.33Zm-.33 1.57c.17.07.37-.02.43-.2a.34.34 0 0 0-.19-.43.33.33 0 0 0-.43.2c-.06.17.02.36.2.43Zm-4.5 1 .02-.02a.34.34 0 0 0 .02-.46.33.33 0 0 0-.47-.03.34.34 0 0 0-.04.47c.12.14.33.16.47.04Zm.62-.73c-.1.1-.27.13-.4.05a.34.34 0 0 1-.12-.47c.1-.16.3-.2.46-.11a.34.34 0 0 1 .06.53Zm.34-.88c.04-.04.08-.1.09-.17a.33.33 0 1 0-.65-.14c-.04.19.07.37.25.4.12.03.23-.01.31-.09ZM5.07 7.36a.33.33 0 0 1-.45.01.34.34 0 0 1-.04-.47.33.33 0 0 1 .47-.04c.14.12.16.33.04.48l-.02.02Zm.75-1.03a.33.33 0 0 0-.45-.11c-.16.1-.21.3-.12.46a.33.33 0 0 0 .52.07c.11-.1.14-.28.05-.42Zm3.92 1.94c.18-.03.35.1.37.3.02.1-.02.2-.1.27a.34.34 0 0 1-.57-.2.34.34 0 0 1 .3-.37ZM6.07 6.24a.33.33 0 1 1 .65-.14.34.34 0 0 1-.08.3.33.33 0 0 1-.56-.17ZM4.38 10.1c.05-.02.1-.05.14-.09a.34.34 0 0 0 .08-.33.33.33 0 0 0-.41-.23.34.34 0 0 0-.23.42c.06.18.24.28.42.23Zm.55.76a.33.33 0 0 1-.5-.04.34.34 0 0 1 .07-.48c.15-.1.36-.07.46.08.1.14.08.32-.03.44Zm.61.14a.33.33 0 0 0-.46.08c-.11.16-.08.37.07.48a.33.33 0 0 0 .47-.08.34.34 0 0 0-.08-.48ZM4.5 8.86a.33.33 0 1 1-.67-.03c.01-.19.17-.33.35-.33.19.01.33.17.32.36Zm3.75 3c.09-.1.12-.24.07-.37a.33.33 0 0 0-.43-.19.34.34 0 0 0-.19.44.33.33 0 0 0 .55.11Zm-2.39-.26a.33.33 0 0 1 .42-.23.34.34 0 0 1 .14.56.33.33 0 0 1-.33.09.34.34 0 0 1-.23-.42Zm-1.38-4a.33.33 0 0 0-.43.2c-.07.17.02.37.19.44a.33.33 0 0 0 .43-.2.34.34 0 0 0-.2-.43Zm2.6 3.87a.34.34 0 1 1 .03.68.34.34 0 0 1-.34-.33c0-.19.13-.34.32-.35Z" fill="#EE723C"/><path d="M11.15 5.56c.15 0 .28-.12.29-.27a.28.28 0 0 0-.27-.29.28.28 0 0 0-.28.27c-.01.15.1.28.26.29Zm-1.24-.1c.06.13 0 .3-.15.35-.14.06-.3 0-.36-.15a.28.28 0 0 1 .15-.36c.14-.06.3 0 .36.15Zm-.77.7a.28.28 0 0 0 .07-.39.27.27 0 0 0-.4-.05c-.12.09-.14.25-.06.37.09.12.26.16.39.07Zm-.55.46c.1-.1.1-.28 0-.39a.27.27 0 0 0-.38-.01v.01h-.02c-.1.12-.1.3.01.4.11.11.29.1.4 0Zm-.8 3.35c.05.15-.04.3-.18.35a.28.28 0 0 1-.35-.2.28.28 0 0 1 .09-.28.27.27 0 0 1 .44.13Zm5.17 1.89.02-.02c.13-.09.3-.06.39.07.08.13.05.3-.07.39a.27.27 0 0 1-.39-.07.28.28 0 0 1 .05-.37Zm1.06-1.13a.27.27 0 0 1 .32-.02c.13.08.17.25.09.38a.27.27 0 0 1-.38.1.28.28 0 0 1-.03-.46Zm-6.27-3.9a.28.28 0 0 0 .03.45c.13.09.3.05.38-.09a.28.28 0 0 0-.1-.38.27.27 0 0 0-.31.03Zm5.79 4.53c.11-.1.27-.1.38 0 .1.1.11.28 0 .4a.27.27 0 0 1-.38 0 .28.28 0 0 1-.01-.39l.01-.01Zm-1.18.82a.28.28 0 0 0-.15.36c.06.15.22.22.36.16.14-.06.2-.22.15-.36a.27.27 0 0 0-.36-.16Zm-4.7-2.92c.02.16-.1.3-.25.3a.28.28 0 0 1-.04-.55c.15-.02.28.1.3.25Zm4.02 3.13a.28.28 0 0 0-.22.32.27.27 0 1 0 .54-.1.27.27 0 0 0-.32-.22Zm-4-3.85a.28.28 0 0 1-.3.24.28.28 0 0 1-.24-.31.28.28 0 0 1 .3-.24c.16.02.26.16.24.31Zm0-1.05a.27.27 0 0 0-.27.05.28.28 0 0 0 .09.47c.14.06.3-.02.35-.17a.28.28 0 0 0-.17-.35Zm3.1 5.02a.27.27 0 0 1 .19-.07c.15 0 .27.14.27.29 0 .15-.14.27-.29.27a.28.28 0 0 1-.26-.29c0-.08.03-.15.1-.2Zm-.52-.16a.28.28 0 0 0-.33.2c-.03.15.06.3.2.34.15.04.3-.06.34-.2a.28.28 0 0 0-.2-.34Zm4.2-3.62c-.02-.09.02-.17.09-.23.04-.04.1-.06.15-.07.16 0 .29.1.3.26.01.15-.1.29-.25.3a.28.28 0 0 1-.3-.26Zm-.41-1.37c.07.13.24.18.37.11a.28.28 0 0 0 .11-.38.27.27 0 0 0-.42-.08.28.28 0 0 0-.06.35Zm.36.37a.27.27 0 0 1 .44.14c.04.15-.04.3-.19.34a.28.28 0 0 1-.34-.18.28.28 0 0 1 .09-.3Zm.33 1.48a.27.27 0 0 0-.21.07.28.28 0 0 0 .14.49c.15.02.29-.1.3-.24a.28.28 0 0 0-.23-.32Zm-.4.82a.27.27 0 0 1 .28-.05c.14.05.22.21.16.36a.28.28 0 0 1-.35.17.28.28 0 0 1-.08-.48Zm-.27-3.63c.1.12.08.3-.03.4a.27.27 0 0 1-.4-.03.28.28 0 0 1 .04-.4c.11-.1.29-.08.39.03Zm-3.63-.79a.28.28 0 0 0 .22-.32.27.27 0 1 0-.54.1c.03.15.17.25.32.22Zm1.75-.16a.27.27 0 0 1-.33.2.28.28 0 0 1-.12-.48.28.28 0 0 1 .45.28Zm.94.82c.12.1.3.07.39-.05.1-.12.07-.3-.05-.4a.27.27 0 0 0-.39.06c-.09.12-.07.3.05.39Zm-.24-.5a.27.27 0 0 1-.36.12.28.28 0 0 1-.06-.46c.08-.07.2-.09.3-.04.13.07.19.23.12.37Zm-2.34 2.45a.28.28 0 0 0 .19-.35.27.27 0 0 0-.34-.19.28.28 0 0 0-.19.35c.04.15.2.23.34.19ZM5.03 6.15l-.01.01a.27.27 0 0 1-.39-.07.28.28 0 0 1 .07-.39c.13-.09.3-.05.39.07a.28.28 0 0 1-.06.38Zm4.38 5.23c-.1.1-.1.28 0 .39.11.1.27.1.38.01l.02-.02c.1-.11.1-.29-.01-.4a.27.27 0 0 0-.4.02ZM3.99 7.26a.27.27 0 0 1-.33.03.28.28 0 0 1-.09-.38.27.27 0 0 1 .38-.1.28.28 0 0 1 .04.45Zm4.88 4.58a.28.28 0 0 0-.08.39.27.27 0 0 0 .41.05c.1-.09.13-.25.05-.37a.28.28 0 0 0-.38-.07Zm-.78.7c-.06-.13.01-.3.15-.35.14-.06.3 0 .36.15a.28.28 0 0 1-.15.36c-.14.06-.3 0-.36-.15Zm2.16-1.38a.28.28 0 0 0-.03-.45.27.27 0 0 0-.38.1c-.08.13-.04.3.1.38.1.06.23.05.31-.03ZM4.47 6.63l-.02.02a.27.27 0 0 1-.36-.01.28.28 0 0 1-.01-.4c.1-.1.28-.11.39 0 .1.1.1.28 0 .39Zm1.17-.81a.28.28 0 0 0 .15-.36.27.27 0 0 0-.36-.16.28.28 0 0 0-.15.36c.06.15.22.22.36.16Zm4.7 2.92a.28.28 0 1 1 .55-.04.28.28 0 0 1-.26.3.28.28 0 0 1-.3-.26ZM6.32 5.6a.28.28 0 0 0 .22-.32.27.27 0 1 0-.54.1c.03.15.17.25.32.22Zm4.3 3.6a.28.28 0 0 1 .15.5.27.27 0 0 1-.22.06.28.28 0 0 1-.23-.31.28.28 0 0 1 .3-.24Zm-.3 1.3c.1.04.2.01.27-.05a.28.28 0 0 0-.09-.47.27.27 0 0 0-.35.17c-.05.14.02.3.17.35ZM7.22 5.5a.27.27 0 0 1-.19.07.28.28 0 0 1-.26-.29c0-.15.13-.27.28-.27.15 0 .27.13.27.29 0 .08-.04.15-.1.2Zm.52.16c.09.02.18 0 .24-.06a.28.28 0 0 0-.11-.48.27.27 0 0 0-.34.2c-.03.15.06.3.2.34Zm-4.2 3.62c.02.09-.02.17-.09.23a.26.26 0 0 1-.15.07.28.28 0 0 1-.3-.26.28.28 0 0 1 .25-.3c.16-.01.29.1.3.26Zm.4 1.37a.27.27 0 0 0-.36-.11.28.28 0 0 0-.11.38.27.27 0 0 0 .42.08c.1-.09.12-.23.06-.35Zm-.35-.37a.27.27 0 0 1-.44-.14.28.28 0 0 1 .19-.34c.14-.05.3.04.34.18.03.11 0 .23-.09.3Zm-.33-1.48c.08 0 .16-.02.22-.07a.28.28 0 0 0-.15-.49.28.28 0 0 0-.3.24c-.03.16.08.3.23.32Zm.4-.82a.27.27 0 0 1-.28.05.28.28 0 0 1-.16-.36c.05-.14.2-.22.35-.17a.28.28 0 0 1 .08.48Zm3.19 4.47a.28.28 0 0 0-.28.27.28.28 0 0 0 .45.22c.06-.05.1-.12.1-.2a.28.28 0 0 0-.27-.29Zm-2.92-.84a.28.28 0 0 1 .03-.4c.12-.1.3-.08.4.03.1.12.08.3-.04.4a.27.27 0 0 1-.39-.03Zm3.63.79a.28.28 0 0 0 .1.55c.05-.01.09-.03.13-.07a.28.28 0 0 0 .09-.26.27.27 0 0 0-.32-.22Zm-1.75.16a.27.27 0 0 1 .33-.2.28.28 0 0 1 .12.48.28.28 0 0 1-.45-.28Zm-.94-.82a.27.27 0 0 0-.39.05c-.1.12-.07.3.05.4a.27.27 0 0 0 .39-.06c.1-.12.07-.3-.05-.39Zm.24.5c.06-.13.23-.19.36-.12a.28.28 0 0 1 .06.46.27.27 0 0 1-.3.04.28.28 0 0 1-.12-.37Z" fill="#03476D"/></svg>