<!-- by TradingView --><svg width="18" height="18" viewBox="0 0 18 18" xmlns="http://www.w3.org/2000/svg"><path fill="#144631" d="M0 0h18v18H0z"/><path fill-rule="evenodd" d="M4.37 13.8h-.3c-.04 0-.07.04-.07.09 0 .04.03.11.07.11h2.01c.04 0 .08-.07.08-.11 0-.05-.04-.08-.08-.08h-.16c-.4 0-.37-.38-.3-.57l.18-.82A4.26 4.26 0 0 0 8.6 14l-.1-.23A4.13 4.13 0 0 1 6 11.74l.42-1.4h1.99c.28.83.55 1.62.72 2.08.4 1.08 1.2 1.26 1.56 1.21 1.83 0 3.3-2.65 3.3-4.46.11-2-1.55-5.17-4.58-5.17-3.55 0-4.84 3.18-4.84 4.96 0 1.42.58 2.57.85 2.92-.08.18-.3.9-.41 1.3a.94.94 0 0 1-.65.63ZM8.3 10l-.92-2.72h-.04L6.53 10H8.3ZM5.16 8.97c0 1.02.4 1.88.56 2.16L7.41 5.8a.12.12 0 0 1 .11-.09c.05 0 .1.04.12.09l2.2 6.1c.06.33.31.98.94.98 1.06 0 1.94-1.12 2.25-1.68.21-.35.63-1.34.63-2.46 0-1.41-1.04-4.14-4.33-4.14-3.28 0-4.17 3.1-4.17 4.36Z" fill="#fff"/></svg>