<!-- by TradingView --><svg width="18" height="18" xmlns="http://www.w3.org/2000/svg"><path fill="#F0F3FA" d="M0 0h18v18H0z"/><rect x="6.647" y="4" width="2.059" height="2.059" rx=".3" fill="#153561"/><rect x="9.294" y="4" width="2.059" height="2.059" rx=".3" fill="#153561"/><rect x="4" y="6.647" width="2.059" height="2.059" rx=".3" fill="#153561"/><rect x="6.647" y="6.647" width="2.059" height="2.059" rx=".3" fill="#153561"/><rect x="9.294" y="6.647" width="2.059" height="2.059" rx=".3" fill="#EF331E"/><rect x="11.941" y="6.647" width="2.059" height="2.059" rx=".3" fill="#153561"/><rect x="11.941" y="9.294" width="2.059" height="2.059" rx=".3" fill="#EF331E"/><rect x="6.647" y="9.294" width="2.059" height="2.059" rx=".3" fill="#EF331E"/><rect x="9.294" y="9.294" width="2.059" height="2.059" rx=".3" fill="#153561"/><rect x="4" y="9.294" width="2.059" height="2.059" rx=".3" fill="#153561"/><rect x="6.647" y="11.941" width="2.059" height="2.059" rx=".3" fill="#153561"/><rect x="9.294" y="11.941" width="2.059" height="2.059" rx=".3" fill="#EF331E"/><path d="M6.647 8.108c-.182.819-.813 1.157-1.133 1.186l.544.61c.137-.804.91-1.153 1.273-1.198-.215-.216-.662-.598-.684-.598z" fill="#153561"/><path d="M9.294 8.109c-.181.819-.813 1.157-1.133 1.186l.544.61c.137-.804.91-1.153 1.273-1.198-.215-.216-.661-.598-.684-.598zm2.058 0c.181.819.813 1.157 1.133 1.186l-.544.61c-.137-.804-.91-1.153-1.273-1.198.215-.216.662-.598.684-.598zm-2.647 2.647c.182.819.814 1.157 1.133 1.187l-.543.61c-.138-.805-.91-1.154-1.273-1.199.214-.216.661-.598.683-.598z" fill="#EF331E"/></svg>