<!-- by TradingView --><svg width="18" height="18" viewBox="0 0 18 18" xmlns="http://www.w3.org/2000/svg"><path fill="#F0F3FA" d="M0 0h18v18H0z"/><path d="M10.23 12.07c-.38.23-.72.45-1.08.63-.09.05-.25.03-.34-.02-1.2-.7-2.4-1.4-3.59-2.12a.55.55 0 0 1-.2-.38C5 8.8 5 7.43 5 6.05c0-.2.08-.3.24-.4 1.18-.69 2.35-1.37 3.51-2.07.19-.11.33-.1.51 0 1.18.7 2.36 1.39 3.53 2.1.1.06.2.22.2.35v4.18c0 .12-.08.28-.17.34-.24.17-.51.3-.8.46-.12-.27-.25-.52-.33-.78-.02-.06.07-.16.1-.25.07-.13.2-.26.2-.39.02-.99 0-1.97.01-2.96 0-.2-.07-.31-.24-.4L9.24 4.73c-.16-.1-.3-.1-.46 0L6.2 6.26a.41.41 0 0 0-.17.3c-.02 1.03-.02 2.06-.01 3.1 0 .1.09.26.18.32a90.6 90.6 0 0 0 2.61 1.53c.1.06.28.03.4-.01.2-.09.38-.22.61-.35l.4.92Z" fill="#727272"/><path d="M12.81 14c-.45 0-.84.01-1.22-.02-.1 0-.2-.16-.26-.27L9.41 9.23 9 8.27l-1.02 2.34-1.08-.64L8.95 5.1h.1l3.76 8.9ZM5.2 14l.98-2.33.95.57c.04.03.07.18.04.24-.18.46-.38.9-.59 1.36-.02.07-.1.15-.17.15h-1.2Z" fill="#082E6E"/></svg>