<!-- by TradingView --><svg xmlns="http://www.w3.org/2000/svg" width="18" height="18" viewBox="0 0 18 18"><path fill="#F0F3FA" d="M0 0h18v18H0z"/><path d="m13.9 6-2.98 5h1.61l2.97-5h-1.6Zm-7.55 5H7.6l-.06-.5c-.38-.56-.4-1.31-.25-1.92l-.17-1.39-1.03 1.73.09.75h-.53l-.4.66h1.02l.1.67ZM2.5 12l2.99-5h1.6l-2.98 5H2.5Zm8.21-1.49c-.4.46-1 .7-1.67.68-1.22-.04-1.9-1.29-1.65-2.47a2.46 2.46 0 0 1 2.3-1.94c.52 0 1.08.25 1.39.69l-.9.97a.72.72 0 0 0-.45-.34c-.46-.13-1.02.23-1.15.74-.13.5.06.97.52 1.1.28.07.6-.02.85-.22l.76.8ZM10.72 7h.91l.28 2.1-1.02 1.73-.34-2.6.7-.76c-.1-.11-.34-.36-.53-.47Z" fill="url(#aegps1hmt)"/><defs><linearGradient id="aegps1hmt" x1="9" y1="6" x2="9" y2="12" gradientUnits="userSpaceOnUse"><stop stop-color="#C81B22"/><stop offset="1" stop-color="#EF6323"/></linearGradient></defs></svg>