<!-- by TradingView --><svg width="18" height="18" viewBox="0 0 18 18" xmlns="http://www.w3.org/2000/svg"><path fill="#F0F3FA" d="M0 0h18v18H0z"/><path d="M11 10h1v1.34c-.19.44-.4.66-.87.66-1 0-1.13-1.01-1.13-1.82V10H9v.18c0 1.35.56 2.82 2.13 2.82A2 2 0 0 0 13 11.82V9h-2v1Z" fill="#00B8B5"/><path d="M7.47 11H5.53l-.55 2H4l2.04-8h.94L9 12.99h-.98L7.47 11Zm-1.73-1h1.54l-.76-3-.78 3ZM10 8.99v-1.1c0-.76.07-1.89 1.04-1.89.85 0 .93.79.96 1.5h1c-.06-1.23-.58-2.5-1.97-2.5C9.46 5 9 6.6 9 7.9V9h1v-.01Z" fill="#006788"/></svg>