<!-- by TradingView --><svg xmlns="http://www.w3.org/2000/svg" width="18" height="18"><path fill="#F0F3FA" d="M0 0h18v18H0z"/><path d="M4 11.06C5.65 7.97 7.87 7 10.3 7c.33 0 .65.01.96.05a9.56 9.56 0 00-.74-3.01 7.6 7.6 0 00-4.6 2.02A6.9 6.9 0 004 10.93v-.24.37z" fill="#D15421"/><path d="M14 6.72c0 .26-.03.64-.11 1.1 0 0-1.1-.57-2.63-.77a9.58 9.58 0 00-.74-3.01 9.4 9.4 0 013.19.26c.15.48.29 1.6.29 2.42z" fill="#E8A07B"/><path d="M8.37 8.07c-2.31.76-3.49 3.28-3.49 3.28a6.77 6.77 0 014.3-1.76c.67 0 1.3.12 1.85.28.17-.54.26-1.62.26-1.97-.4-.05-.83-.08-1.31-.08a5.3 5.3 0 00-1.6.25z" fill="#5E834C"/><path d="M13.7 8.6c-.04.61-.28 1.4-.7 2.16 0 0-.8-.54-1.97-.89.17-.54.26-1.62.26-1.97 1.65.2 2.42.7 2.42.7z" fill="#88A44D"/><path d="M9.26 10.47c-1.99 0-3.5.8-4.38 2.35.9.82 2.47 1.18 3.57 1.18a7.8 7.8 0 002.32-3.31 5.88 5.88 0 00-1.51-.22z" fill="#5B6F7F"/><path d="M8.45 14c1.74 0 3.1-.97 4.08-2.53 0 0-.67-.49-1.76-.78A7.8 7.8 0 018.45 14z" fill="#9DAAB7"/></svg>