<!-- by TradingView --><svg width="18" height="18" viewBox="0 0 18 18" xmlns="http://www.w3.org/2000/svg"><path fill="#F0F3FA" d="M0 0h18v18H0z"/><path d="m12.13 8.69-1.85-.29c.07.94.3.37-1.81 2.65-.08.08-.21.1-.3.04l-.4-.26-.57 1.41a.23.23 0 0 1-.17.14.24.24 0 0 1-.21-.06l-.49-.44-1.92 2.05a.24.24 0 0 1-.33.02.22.22 0 0 1-.02-.33l2.09-2.21c.04-.05.1-.07.16-.08.06 0 .12.02.17.06l.4.38.57-1.37c.22-.33.57.06.8.2l1.6-1.67-.07-1.06 1.96.3.57-3.3-4.77 2.7 1.3.18 1.71-1.56c.1-.09.24-.08.33 0 .09.1.09.24 0 .32l-1.9 1.72-2.83-.4L12.93 4l-.8 4.69Z" fill="url(#addwma1ao)"/><path d="M14 14H4V4h.36v9.64H14V14Z" fill="#2E414D"/><defs><linearGradient id="addwma1ao" x1="17.44" y1="16.25" x2="19.91" y2="1.74" gradientUnits="userSpaceOnUse"><stop offset=".02" stop-color="#3560A5"/><stop offset=".11" stop-color="#1E70A9"/><stop offset=".22" stop-color="#0D7AAD"/><stop offset=".33" stop-color="#0381AE"/><stop offset=".48" stop-color="#0083AF"/><stop offset=".7" stop-color="#14A4C4"/><stop offset="1" stop-color="#24C0D5"/></linearGradient></defs></svg>