<!-- by TradingView --><svg width="18" height="18" viewBox="0 0 18 18" xmlns="http://www.w3.org/2000/svg"><path fill="#F0F3FA" d="M0 0h18v18H0z"/><path d="M9 7.9 9.64 9l.36.55c.07.16.16.32.28.45l.07.05 2.63 1.36c.1.06.17.16.18.3l-.01.06a.12.12 0 0 1-.05.05.38.38 0 0 1-.38 0 132.82 132.82 0 0 1-1.94-1l-.01.02a.02.02 0 0 0 0 .02l1.38 2.29a.3.3 0 0 1 .03.24l-.15.55c0 .02-.02.04-.04.05a10.18 10.18 0 0 1-.68-.15c-.12-.05-.17-.17-.24-.28a235.56 235.56 0 0 1-1.32-2.18l-.01.01v.01l-.06 2.1c0 .13-.06.24-.18.32a.13.13 0 0 1-.16 0 .38.38 0 0 1-.16-.34l.08-2.68c.01-.24-.08-.47-.26-.7L8.36 9c-.1-.15-.2-.3-.3-.48a.35.35 0 0 0-.09-.07l.02-.02V8.4L7.74 8a889.8 889.8 0 0 1-2.7-1.42c-.12-.05-.19-.16-.2-.31v-.06a.1.1 0 0 1 .05-.04c.25-.1.35-.02.6.11a138.7 138.7 0 0 1 1.73.89v-.03L5.85 4.84a.28.28 0 0 1-.03-.22l.15-.57.03-.04h.05c.17.03.68.1.79.28a116.94 116.94 0 0 1 1.4 2.32h.02l.02-.05c0-.46.01-1.16.04-2.08.01-.16.08-.25.21-.32a.12.12 0 0 1 .13.02c.12.1.18.2.17.35l-.1 2.74c0 .18.1.4.28.63Z" fill="#B1CCEA"/><path d="M10 8.45 9.63 9 9 7.9l.22-.36a.34.34 0 0 0 .05-.18l-.09-2.9c0-.08.06-.17.2-.29a.06.06 0 0 1 .07 0c.1.06.16.12.2.16l.02.1.06 2.2h.02c0 .01 0 0 0 0h.01l1.44-2.38a.15.15 0 0 1 .09-.07l.67-.18a.05.05 0 0 1 .05.02v.01l.19.63a.19.19 0 0 1-.02.15l-1.42 2.35a.02.02 0 0 0 0 .02.02.02 0 0 0 .03 0l2.02-1.04.05-.01.27.07c.01 0 .02 0 .03.02v.03a.57.57 0 0 1-.13.3l-.03.02-2.68 1.4a.14.14 0 0 0-.06.05l-.27.43Z" fill="#007EC5"/><path d="m7.97 8.45.1.07.29.47-.35.57a1.3 1.3 0 0 0-.4-.02.94.94 0 0 0-.36.14L4.83 11.1c-.09.05-.22.05-.38-.02a.06.06 0 0 1-.03-.03v-.04l.06-.23c0-.02.02-.04.04-.05L6.5 9.57a.01.01 0 0 0 0-.02 268.53 268.53 0 0 1-2.86 0 .2.2 0 0 1-.13-.06L3 9.03a.05.05 0 0 1 0-.07l.48-.46a.18.18 0 0 1 .13-.05h2.83l.02-.01a.02.02 0 0 0-.01-.03L4.5 7.25a.06.06 0 0 1-.03-.03l-.07-.26a.05.05 0 0 1 0-.04.05.05 0 0 1 .04-.02c.2-.05.29-.09.46.03l2.45 1.46c.12.07.33.1.61.06ZM10 9.55 9.64 9l.35-.55h.45c.06 0 .12-.02.17-.05l2.6-1.54a.1.1 0 0 1 .07-.01l.26.04s.02 0 .03.02v.03c0 .18-.05.3-.12.34a4387.46 4387.46 0 0 1-1.93 1.16v.01h2.85a.2.2 0 0 1 .14.06l.48.46L15 9l-.01.03-.48.47a.17.17 0 0 1-.13.04H11.53l-.01.02a.02.02 0 0 0 0 .02l1.86 1.1c.17.1.17.19.2.37l-.01.04-.04.02-.26.04h-.05l-2.63-1.56a.26.26 0 0 0-.12-.04H10Z" fill="#67A4DA"/><path d="M8.36 9 9 10.1c-.15.23-.28.39-.27.67l.08 2.68c0 .18-.06.31-.2.4h-.08a.74.74 0 0 1-.18-.2 66.85 66.85 0 0 1-.1-2.26.03.03 0 0 0-.02 0l-.01.01-1.4 2.33a.24.24 0 0 1-.14.1l-.63.17a.06.06 0 0 1-.06-.02v-.02l-.2-.64a.13.13 0 0 1 .02-.1l1.43-2.39a.02.02 0 0 0 0-.02h-.02l-1.9.99c-.19.1-.26.06-.44 0a.06.06 0 0 1-.03-.02.06.06 0 0 1 0-.04c.05-.24.05-.27.28-.38a809.03 809.03 0 0 0 2.63-1.39L8 9.56l.35-.57Z" fill="#007EC5"/></svg>