<!-- by TradingView --><svg width="18" height="18" xmlns="http://www.w3.org/2000/svg"><path fill="#00465A" d="M0 0h18v18H0z"/><path d="M13.592 3.092a.314.314 0 010 .444l-1.286 1.286a.314.314 0 01-.444-.444l1.287-1.286a.314.314 0 01.443 0zM4.822 12.184a.314.314 0 010 .444l-1.287 1.286a.314.314 0 01-.443-.444l1.286-1.286a.314.314 0 01.444 0z" fill="#BED733"/><path d="M11.654 5.255a.5.5 0 01.308.462v5.803a.5.5 0 11-1 0V9.996h-3.07L6.139 11.77a.5.5 0 01-.71-.704l1.9-1.922 3.78-3.78a.5.5 0 01.545-.108zM8.89 8.996h2.072V6.924L8.89 8.996z" fill="#fff"/></svg>