<!-- by TradingView --><svg width="18" height="18" xmlns="http://www.w3.org/2000/svg"><path fill="#0061AA" d="M0 0h18v18H0z"/><path d="M11.659 13.404l-.527-1.062h-4.25l-.542 1.062H3.5l5.507-11 5.493 11h-2.841zm-1.81-3.615L9.005 8.1l-.855 1.688h1.697z" fill="#fff"/><path d="M9.012 3.243l4.884 9.779h-2.264l-.498-1.002H6.891l-.51 1.002H4.115l4.896-9.779zM7.9 9.99h2.213l-1.1-2.205L7.9 9.99zm1.114-7.586l-.373.628L6.22 7.928l-2.514 4.876-.205.6h3.1l.107-.207.407-.796h3.785l.394.793.107.21h3.1l-.277-.556L9.346 3.07l-.333-.666zm-.499 7.198l.497-.981.492.981h-.989z" fill="#0061AA"/></svg>