<!-- by TradingView --><svg width="18" height="18" viewBox="0 0 18 18" xmlns="http://www.w3.org/2000/svg"><path fill="url(#axivoh1li)" d="M0 0h18v18H0z"/><path d="M8.82 4h.2a4.84 4.84 0 0 1 3.3 1.41c.06.05.12.1.12.19.01.08-.04.15-.1.2a.2.2 0 0 1-.27 0 4.45 4.45 0 0 0-4.09-1.24A4.4 4.4 0 0 0 4.82 7.2a4.59 4.59 0 0 0 3.08 6.23 4.36 4.36 0 0 0 3.8-.88c.04-.03.07-.07.11-.08a.2.2 0 0 1 .21.04l.1.12a.2.2 0 0 1-.06.22 4.85 4.85 0 0 1-7.58-1.68A5.05 5.05 0 0 1 6.6 4.59 4.89 4.89 0 0 1 8.82 4Zm-.16.85a3.98 3.98 0 0 1 3.4 1.5 4.19 4.19 0 0 1-3 6.81 3.96 3.96 0 0 1-3.12-1.3 4.26 4.26 0 0 1-1.01-1.95.2.2 0 0 1 .04-.21c.04-.05.1-.06.15-.07a.2.2 0 0 1 .2.07c.03.03.04.08.05.12a3.7 3.7 0 0 0 3.32 2.87 3.6 3.6 0 0 0 3.34-1.8 3.72 3.72 0 0 0-2.44-5.52 3.55 3.55 0 0 0-1.25-.02.2.2 0 0 1-.2-.08c-.03-.04-.04-.1-.05-.15-.01-.1.06-.2.15-.22a3 3 0 0 1 .42-.05Zm.02.84a3.29 3.29 0 0 1 3.11 1.75c.37.7.48 1.52.3 2.29-.01.06-.02.12-.06.17a.2.2 0 0 1-.2.06.35.35 0 0 1-.14-.06.2.2 0 0 1-.06-.2 2.88 2.88 0 0 0-1.37-3.2 2.77 2.77 0 0 0-2.94.16 2.92 2.92 0 0 0-1.1 3.17c.18.59.55 1.1 1.03 1.47.09.06.1.2.04.29-.04.07-.1.13-.19.12a.24.24 0 0 1-.16-.07A3.29 3.29 0 0 1 5.7 9.63a3.36 3.36 0 0 1 1.5-3.45c.44-.28.95-.45 1.47-.49Zm-.28.9c.05-.02.11 0 .16.03.05.05.07.12.09.19.02.1-.07.22-.18.23A1.93 1.93 0 0 0 6.93 8.9a2 2 0 0 0 1.11 1.92 1.94 1.94 0 0 0 1.76-.02c.18-.08.34-.19.48-.32a2.04 2.04 0 0 0 .57-1.89.2.2 0 0 1 .05-.19c.04-.05.1-.06.17-.08.09-.02.19.05.22.14.09.41.08.85-.04 1.26a2.38 2.38 0 0 1-1.42 1.58 2.42 2.42 0 0 1-3.1-1.21 2.61 2.61 0 0 1 .09-2.38c.34-.57.93-.99 1.58-1.13Z" fill="#fff"/><defs><linearGradient id="axivoh1li" x1="3.35" y1="3.12" x2="21.9" y2="24.43" gradientUnits="userSpaceOnUse"><stop stop-color="#1A1E21"/><stop offset="1" stop-color="#06060A"/></linearGradient></defs></svg>