<!-- by TradingView --><svg width="18" height="18" fill="none" xmlns="http://www.w3.org/2000/svg"><path fill="#F0F3FA" d="M0 0h18v18H0z"/><path fill-rule="evenodd" clip-rule="evenodd" d="M8.86 4a.5.5 0 01.45.284l1.834 3.834 1.643-.776a.5.5 0 11.426.904l-1.637.774 1.561 3.264a.5.5 0 01-.63.683l-5.333-2.04a.5.5 0 01-.035-.918l3.1-1.464-1.382-2.89-3.407 7.062a.5.5 0 01-.9-.434l3.858-8A.5.5 0 018.86 4zm1.811 5.447l-2.045.965 3.069 1.173-1.024-2.138z" fill="#509789"/><circle cx="14.375" cy="7.16" r=".627" fill="#E4AE3C"/></svg>