<!-- by TradingView --><svg width="18" height="18" xmlns="http://www.w3.org/2000/svg"><path fill="#1C4480" d="M0 0h18v18H0z"/><path d="M5 8c-.165 1.509-.58 4.083-1 5h9c-.197-.239-.658-.85-.731-1.382-.074-.533-.81-1.58-1.009-2.038 0-.588.585-.819.878-.86.024.004.207.01.744 0 .537-.012.913-.287 1.034-.424l-1.966.05c-.471.105-.585.114-.69.057 0-.193.353-.337.53-.385a4.632 4.632 0 011.979-.068v-.28h.147c0 .222.254.324.382.347h.269c.045 0 .185.186.25.278.635-1.845-.53-2.265-1.192-2.296h-1.414v.376c-.472 0-.57.552-.558.67.01.096-.187.272-.286.348v-.27c-.258.137-.565.386-.6.345-.036-.042.178-.303.288-.541-.497.087-.826-.332-.928-.552-.245.194-.795.31-.793.226.002-.084.455-.534.666-.605h2c.1-.716-.469-.972-.74-.993L7 5c-1.246.956-1.571 2.387-2 3z" fill="#fff"/></svg>