<!-- by TradingView --><svg width="18" height="18" viewBox="0 0 18 18" xmlns="http://www.w3.org/2000/svg"><path fill="#F0F3FA" d="M0 0h18v18H0z"/><path d="M4.8 13a.8.8 0 0 1-.47-.15.78.78 0 0 1-.26-.97l3.39-7.42c.13-.28.4-.46.72-.46.32 0 .6.18.73.46l1.9 4.16c1.05-.2 1.95-.11 2.53.33.5.37 1.17 1.33.04 3.47-.2.37-.58.59-1 .58a1.09 1.09 0 0 1-.97-.64l-1.17-2.58c-1.41.44-3.19 1.41-4.9 3a.78.78 0 0 1-.54.22Zm6.42-3.45 1.1 2.4a.1.1 0 0 0 .09.06.1.1 0 0 0 .1-.05c.27-.52.84-1.77.23-2.23-.29-.22-.82-.29-1.52-.18ZM8.18 5.27l-2.82 6.18a14.26 14.26 0 0 1 4.47-2.57L8.18 5.27Z" fill="#33CCBE"/></svg>