<!-- by TradingView --><svg width="18" height="18" viewBox="0 0 18 18" xmlns="http://www.w3.org/2000/svg"><path fill="#F0F3FA" d="M0 0h18v18H0z"/><path d="M10 9a1 1 0 1 1-2 0 1 1 0 0 1 2 0ZM10.72 7.87 11.66 3 9.28 6.38l1.44 1.49ZM14 11.44l-2.05-2.03-1.58 1.45 3.63.58ZM7.32 10.58 6.55 15l2.31-2.84-1.54-1.58ZM7.53 7.6 4 7l2.04 1.98 1.49-1.37Z" fill="#114870"/><path d="m11.95 9.13.73-.67-1.6-.23.87.9ZM8.93 6.32 7.6 4.96l.27 2.32 1.05-.96ZM9.07 12.06l1.4 1.4-.35-2.37-1.05.97ZM6.05 9.27l-.7.76 1.55.12-.85-.88Z" fill="#D8AD1D"/><path d="m11.8 9.27-1-1.04-.32 2.25 1.31-1.21ZM7.95 7.5l2.38.27-1.26-1.3L7.95 7.5ZM7.2 10.15l.32-2.25-1.33 1.22 1 1.03ZM9.93 10.99l-2.25-.34 1.24 1.27 1.01-.93Z" fill="#E9D635"/></svg>