<!-- by TradingView --><svg width="18" height="18" fill="none" xmlns="http://www.w3.org/2000/svg"><path fill="#51ADFB" d="M0 0h18v18H0z"/><path fill-rule="evenodd" clip-rule="evenodd" d="M9.175 4.814c.509.566 1.206 1.768 1.853 3.07.667 1.339 1.247 2.716 1.48 3.478l.025.08c.042.134.081.26.106.388.03.155.025.26.002.327-.008.024-.016.042-.082.059-.09.024-.264.03-.546-.027-.561-.114-1.389-.447-2.473-1.044a.44.44 0 00-.573.132c-.12.181-.055.417.143.526 1.11.61 2.029.993 2.721 1.134.344.07.674.09.957.016.309-.08.546-.27.648-.561.085-.242.064-.494.026-.694-.033-.172-.087-.343-.128-.476l-.021-.068c-.25-.816-.85-2.235-1.524-3.589-.667-1.34-1.44-2.688-2.046-3.321a.793.793 0 00-1.173.031c-.334.398-.765 1.1-1.214 1.9-.453.81-.94 1.748-1.387 2.638a132.372 132.372 0 00-1.599 3.302l-.034.072.324.127-.324-.127c-.09.195.009.42.221.503.213.083.458-.008.548-.203l.033-.07a81.097 81.097 0 01.445-.943c.295-.618.701-1.457 1.145-2.34.444-.885.926-1.812 1.371-2.608.421-.751.798-1.362 1.076-1.712z" fill="#fff"/></svg>