<!-- by TradingView --><svg xmlns="http://www.w3.org/2000/svg" width="18" height="18"><path fill="#F0F3FA" d="M0 0h18v18H0z"/><path d="M9.34 10.17c1.34-.57 2.72-2.22 2.72-3.5 0-1.12-1.04-2.03-2.22-1.39-.4.23-.65.54-.79.99a6.6 6.6 0 00-.1 2.16c.11.87.12 1.97 0 3a5.6 5.6 0 01-.27 1.17c-.37 1.04-1.19 2-2.4 1.78-.7-.12-1.25-.64-1.17-1.57.05-.55.32-1.12.76-1.53a3.53 3.53 0 012.07-.86 3.1 3.1 0 00-1.71 1.33c-.34.6-.41 1.24-.1 1.63.57.69 1.54.27 1.94-.38.4-.68.5-1.43.5-2.2 0-1.49-.7-3.04-.42-4.53.17-.87.77-2 1.92-2.23 2-.38 3.46 1.83 2.48 3.59-.29.5-.62.97-1.09 1.37a6.4 6.4 0 01-2.12 1.17z" fill="#539536"/><path d="M5.88 11.28a3.53 3.53 0 012.06-.86 3.1 3.1 0 00-1.71 1.33c-.16.29-.26.58-.3.85-.02.3.04.57.2.78.08.09.16.16.25.21 0 0-1.3-.57-1.1-1.45.13-.32.34-.61.6-.86zm3.46-1.11c1.34-.57 2.72-2.22 2.72-3.5 0-.64-.34-1.22-.87-1.47-.45-.22-.9-.12-1.35.08 0 0 .95-1.14 2.73 0 .37.7.41 1.57-.02 2.35-.29.5-.62.97-1.09 1.37a6.4 6.4 0 01-2.12 1.17z" fill="#05ADEF"/></svg>