<!-- by TradingView --><svg width="18" height="18" viewBox="0 0 18 18" xmlns="http://www.w3.org/2000/svg"><path fill="#F0F3FA" d="M0 0h18v18H0z"/><path fill-rule="evenodd" d="M14 4H4v10h10V4ZM9 5H7v.83c.33.1.57.37.57.67 0 .3-.24.56-.57.67v1.88c.33.1.57.36.57.67 0 .3-.24.56-.57.66v.45c.33.1.57.37.57.67 0 .3-.24.56-.57.67V13h-.5v-.8c-.4-.07-.71-.35-.71-.7s.3-.63.71-.7v-.38c-.4-.07-.71-.36-.71-.7 0-.35.3-.64.71-.7V7.2c-.4-.07-.71-.35-.71-.7s.3-.63.71-.7V5H5v8h8V5h-1.5v2.23c.4.06.71.35.71.7 0 .34-.3.63-.71.7V9c.4.07.71.36.71.7 0 .35-.3.64-.71.7v.39c.4.07.71.35.71.7s-.3.63-.71.7v.66H11v-.7c-.33-.1-.57-.36-.57-.66 0-.3.24-.56.57-.67v-.45c-.33-.1-.57-.36-.57-.67 0-.3.24-.56.57-.66v-.46c-.33-.1-.57-.36-.57-.66 0-.3.24-.57.57-.67V5H9.5v2.24c.38.08.66.36.66.69 0 .33-.28.6-.66.69v.4c.38.09.66.36.66.7 0 .33-.28.6-.66.69v.4c.38.08.66.36.66.69 0 .33-.28.61-.66.7v.8H9v-.82c-.36-.1-.62-.36-.62-.68 0-.32.26-.59.62-.68v-.42c-.36-.1-.62-.37-.62-.68 0-.32.26-.6.62-.68V8.6c-.36-.1-.62-.36-.62-.68 0-.32.26-.59.62-.68V5Z"/></svg>