<!-- by TradingView --><svg width="18" height="18" xmlns="http://www.w3.org/2000/svg"><path fill="#E31B23" d="M0 0h18v18H0z"/><path d="M14.336 9.543c-.717-.056-.116-.39-1.112-.52-2.422-.32-4.047.851-3.59-.013.143-.27.192-.33.356-.652.259-.512.434-1.25-.356-1.446C6.75 6.194 1.53 8.15 1.206 8.247c0 0-.079.028-.124.048-.125.056.051.028.051.028 1.265-.324 4.434-1.05 6.524-1 2 .048 2.222.398 1.456 1.7-.546.925-.005.788.213.756 1.931-.285 4.119-.394 4.219-.091.078.233.648.28.665.283.382.046.65.15.479.427-.814-.122-1.88.176-2.337.582-.028.024 0 .024.02.013.747-.414 2.67-.537 2.73-.303.465-.579.003-1.088-.766-1.147z" fill="#fff"/></svg>