<!-- by TradingView --><svg width="18" height="18" xmlns="http://www.w3.org/2000/svg"><path fill="#19245D" d="M0 0h18v18H0z"/><path d="M9.094 4.761l.442.202.34-.234-.024-.09-.783.033.025.09zm3.694 6.355c0-.831.035-1.632.035-2.274 0-.993-.417-1.467-.993-1.467-.524 0-.926.414-1.144.884h-.012c-.16-.573-.518-.884-.933-.884-.39 0-.806.348-1.049.75-.006-.223-.17-.375-.364-.375h-.622l.244-.618.65-1.96c.229-.593.518-.85.792-.91.45-.07.574.126.574.126l.17.247c.2.004.905.064 1.009.45.104.386-.223.452-.223.452s.085-.228-.062-.31c-.148-.082-.843.176-.843.176s.126.148.443.005a.257.257 0 01.296.056l-.053.307s.747-.134.588-.725c-.179-.663-1.06-.644-1.06-.644l-.199-.274s-.487-.28-1.09-.012c-.54.305-1.033 1.494-1.417 2.562l-.094.26-.273.812H5.135l-.069.206 2.02-.006-.762 2.077c-.747 2.083-.919 2.772-1.321 2.62-.218-.08-.418-.485-.585-.548-.176-.066-.402.132-.417.197-.021.098.197.544.515.663.293.11.71-.005 1.042-.315.423-.394.729-.867 1.168-2.102l.91-2.586h.392c.121.136.188.33.188.886v.933c0 1.198-.047 1.795-.092 1.915-.102.077-.281.103-.499.103h-.194v.205h1.251l.01-2.223V8.73c0-.463.39-.981.844-.981.563 0 .72.492.72 1.297v.59c0 1.336-.002 1.975-.047 2.095-.102.077-.37.102-.588.102v.164h1.875v-.164c-.218 0-.583-.025-.686-.102-.044-.12-.079-.759-.079-2.128V8.73c0-.463.434-.981.888-.981.564 0 .71.492.71 1.297 0 .925-.01 1.685-.01 2.284 0 .6.327.667 1.577.667l.104-.164c-1.036 0-1.212-.17-1.212-.718z" fill="#fff"/></svg>