<!-- by TradingView --><svg xmlns="http://www.w3.org/2000/svg" width="18" height="18" viewBox="0 0 18 18"><path fill="#F0F3FA" d="M0 0h18v18H0z"/><path fill-rule="evenodd" d="M14.05 6.75a4.14 4.14 0 0 1-3.1 3.08 4.15 4.15 0 0 1 3.1-3.08zm-4.5 2.61l.53.54A4.99 4.99 0 0 1 15 5.8a4.96 4.96 0 0 1-4.13 4.88l2.51 2.6H14V14h-3.32L9 12.16 7.33 14H4v-.71h.62l2.5-2.6A4.96 4.96 0 0 1 3 5.8c2.42 0 4.5 1.72 4.92 4.09l.54-.54A4.92 4.92 0 0 1 9 3a4.92 4.92 0 0 1 .54 6.36zm2.73 3.93l-2.06-2.19-.63.66 1.43 1.53h1.26zm-5.3 0l1.43-1.53-.61-.66-2.1 2.19h1.29zm2.61-2.7L9 10l-.6.58.6.6.6-.6zM9 4.31a4.1 4.1 0 0 0 0 4.36 4.1 4.1 0 0 0 0-4.36zM3.94 6.75a4.15 4.15 0 0 0 3.11 3.08 4.15 4.15 0 0 0-3.1-3.08z" fill="#D3B76C"/></svg>