<!-- by TradingView --><svg width="18" height="18" viewBox="0 0 18 18" xmlns="http://www.w3.org/2000/svg"><path fill="#F0F3FA" d="M0 0h18v18H0z"/><path d="M4.41 13H3l1.41-2.33c-.07.2-.17.82-.17 1.33 0 .5.08.84.17 1Zm2.27 0H5.23a3.61 3.61 0 0 1-.46-1.8c0-.52.2-1.15.3-1.4.44-.78 1.4-2.5 1.72-3.1A2.9 2.9 0 0 1 8.45 6c.17 0 .43.03.55.07-.54.46-.57 1.07-.65 1.26-.06-.02-.33-.14-.58-.14-1.4 0-2.2 1.67-2.2 3.41 0 1.4.74 2.18 1.11 2.4Z" fill="#AF006E"/><path d="M8.3 4.2 9 3l1.41 2.33a3.93 3.93 0 0 0-.98-.8A2.72 2.72 0 0 0 8.3 4.2ZM7.23 5.94 8 4.67c.72.02 1.21.14 1.76.46.44.25.86.74 1.01.95l1.74 3.01c.13 1-.19 1.65-.27 1.8a2.7 2.7 0 0 1-.35.44c-.1-.69-.5-1.07-.63-1.23.05-.04.2-.17.33-.4.72-1.22-.27-2.73-1.75-3.58a2.7 2.7 0 0 0-2.6-.18Z" fill="#A9A8AD"/><path d="M14.3 11.66 15 13h-2.82c.21-.04.76-.18 1.22-.46.45-.28.8-.7.9-.88Z" fill="#241F21"/><path d="m13.16 10 .78 1.25A3.48 3.48 0 0 1 11.23 13H7.57c-.98-.39-1.43-1-1.51-1.15-.1-.15-.2-.4-.24-.53.7.26 1.24.1 1.46.07.01.07.06.26.2.48.75 1.26 2.65 1.15 4.18.28 1.22-.7 1.5-1.7 1.5-2.15Z" fill="#241F21"/></svg>