<!-- by TradingView --><svg width="18" height="18" viewBox="0 0 18 18" xmlns="http://www.w3.org/2000/svg"><path fill="#F0F3FA" d="M0 0h18v18H0z"/><path d="M9.62 9.96c.34.36.57.6.71.7.69.57 1.68.5 2.28-.13.62-.65.61-1.64.04-2.3a7.86 7.86 0 0 0-.71-.71c-.42-.45-.79-.83-1.1-1.14a1.17 1.17 0 1 1 1.61-1.67 5.46 5.46 0 0 1 .56 6.96c-.14.2-.35.4-.5.6a5.47 5.47 0 0 1-6.32 1.2 5.25 5.25 0 0 1-1.5-1.09 2.69 2.69 0 0 1-.29-3.2 2.48 2.48 0 0 1 1.7-1.14c.85-.17 1.7.13 2.31.74l1.03 1.04c.07.07.13.11.18.14Z" fill="url(#a)"/><path d="M9.62 9.96c.31.17.57.27.77.3.48.09.9-.04 1.3-.37.41-.34.62-.78.62-1.3 0-.33-.1-.66-.3-1 .3.28.51.48.64.63a1.7 1.7 0 0 1-.04 2.3c-.6.64-1.6.71-2.28.15a8.91 8.91 0 0 1-.7-.71Z" fill="url(#b)"/><circle cx="7.5" cy="5.5" r="1.5" fill="#F0912D"/><circle cx="7.32" cy="5.32" r="1.11" fill="url(#c)"/><path d="M10.33 10.67a8.9 8.9 0 0 1-.7-.71.65.65 0 0 1-.19-.14L8.41 8.78a2.57 2.57 0 0 0-4.26.9c-.28.8-.17 1.73.32 2.42 2.07.47 5.13.63 5.85.44.85-.22.8-.34.5-1-.08-.2-.19-.43-.3-.72v-.02a1.7 1.7 0 0 1-.19-.13Z" fill="url(#d)"/><defs><linearGradient id="a" x1="12.13" y1="5.85" x2="8.94" y2="13.98" gradientUnits="userSpaceOnUse"><stop stop-color="#0187E0"/><stop offset=".61" stop-color="#5CB658"/><stop offset="1" stop-color="#7BCB20"/></linearGradient><linearGradient id="b" x1="10.17" y1="10.34" x2="11.92" y2="8.11" gradientUnits="userSpaceOnUse"><stop stop-color="#195752"/><stop offset="1" stop-color="#073D61"/></linearGradient><linearGradient id="c" x1="6.57" y1="4.52" x2="7.32" y2="5.91" gradientUnits="userSpaceOnUse"><stop stop-color="#FEDB2D"/><stop offset="1" stop-color="#F0912D"/></linearGradient><linearGradient id="d" x1="8.88" y1="9.24" x2="8.32" y2="11.33" gradientUnits="userSpaceOnUse"><stop stop-color="#E9963B"/><stop offset="1" stop-color="#77C828" stop-opacity="0"/></linearGradient></defs></svg>