<!-- by TradingView --><svg xmlns="http://www.w3.org/2000/svg" width="18" height="18" viewBox="0 0 18 18"><path fill="#F0F3FA" d="M0 0h18v18H0z"/><path d="M14.08 10.68c-.42.17-.85.32-1.32.32-.9 0-1.7-.44-1.9-1.33h.71c1.07-.04 3.43.16 3.43-1.76v-.14c-.58.94-2.44.98-3.26 1-.35 0-.58 0-.95-.02 0-.94.75-1.75 1.76-1.75.34 0 .62.08.86.22s.34.37.34.65c0 .12-.06.38-.06.38s.97-.3.97-1.09c0-.34-.6-1.16-2.07-1.16a3.1 3.1 0 0 0-3.17 2.62c-1.56-.14-3.1-.31-4.09-.31-.5 0-.92.04-1.26.12-.35.08-1.05.32-1.05.92 0 .68.84 1.04.84 1.04s-.12-.6.4-.94c.25-.16.6-.24 1.13-.24 1.15 0 2.29.28 4.03.38.22 1.42 1.66 2.41 3.15 2.41a3.8 3.8 0 0 0 2.27-.58l-.5-.86-.26.12Z" fill="#97D800"/><path d="M3.85 7.44C4.31 7.12 4.95 7 5.5 7c.82 0 1.64.22 1.76 1.15l1.41.12a2.34 2.34 0 0 0-.23-.97 1.9 1.9 0 0 0-.65-.74c-.27-.18-.6-.32-.98-.42a6.23 6.23 0 0 0-2.25-.08c-.25.04-.46.1-.61.18a.84.84 0 0 0-.32.28.61.61 0 0 0-.08.32c0 .16.04.28.13.38l.18.22ZM7.25 9.71v1.19c-.4.12-.86.1-1.26.1C3.33 11 3 10.17 3 10.17c0 .24.04.47.12.69.09.22.23.42.46.58.23.16.52.3.91.4.4.1.9.16 1.5.16.31 0 .6 0 .87-.02a39.68 39.68 0 0 0 1.37-.12l.43-.06v-2L7.25 9.7Z" fill="#6F7C7D"/></svg>