<!-- by TradingView --><svg width="18" height="18" viewBox="0 0 18 18" xmlns="http://www.w3.org/2000/svg"><path fill="url(#a)" d="M0 0h18v18H0z"/><path d="m8.1 5.38 3.36-.7.68 3.46-2.72.57a.64.64 0 0 1-.76-.52L8.1 5.4Z" fill="#6B6E70"/><path d="m9.64 13.16 3.36-.7L12.32 9l-2.73.57a.66.66 0 0 0-.5.78l.55 2.81Z" fill="#5CA8DC"/><path d="m9.01 13.3-3.36.7-.68-3.46 2.73-.57c.34-.07.68.16.76.52l.55 2.8Z" fill="#003D7A"/><path d="m4.46 9.07-.46 1 3.36-.7c.67-.15.72-.76.67-1.05L7.17 4l-.62 1.26.64 3.24-2.73.57Z" fill="#3F3F3F"/><defs><linearGradient id="a" x1="3.35" y1="3.12" x2="21.9" y2="24.43" gradientUnits="userSpaceOnUse"><stop stop-color="#1A1E21"/><stop offset="1" stop-color="#06060A"/></linearGradient></defs></svg>