<!-- by TradingView --><svg xmlns="http://www.w3.org/2000/svg" width="18" height="18" viewBox="0 0 18 18"><path fill="#F0F3FA" d="M0 0h18v18H0z"/><path d="m8.7 4.67 3.84-.63.63 3.83-2.85.47a1 1 0 0 1-1.14-.82L8.7 4.67Z" fill="#6B6E70"/><path d="m3.5 9.5 3.7-.61a1 1 0 0 0 .82-1.15L7.26 3.2l-.75 1.26.57 3.46-2.96.48-.62 1.1Z" fill="#3F3F3F"/><path d="M9.7 10.36a1 1 0 0 1 .82-1.15l2.85-.47.63 3.83-3.84.63-.46-2.84Z" fill="#5CA8DC"/><path d="M4.54 10.17 7.4 9.7a1 1 0 0 1 1.15.82L9 13.37 5.17 14l-.63-3.83Z" fill="#003D7A"/></svg>