<!-- by TradingView --><svg width="18" height="18" viewBox="0 0 18 18" xmlns="http://www.w3.org/2000/svg"><path fill="#F0F3FA" d="M0 0h18v18H0z"/><path d="M12.63 12.4a.02.02 0 0 1 .02 0v.03a5 5 0 1 1-3.6-8.4v.07l-.01.02h-.02c-.8.19-1.5.52-2.1.99-.94.73-.96 2.08.2 2.63.44.21 1.36.1 1.9.12a.07.07 0 0 1 .08.06.07.07 0 0 1-.06.07c-.91.24-1.67.49-2.28.76-1.44.64-1.06 2.54-.1 3.37a5.08 5.08 0 0 0 5.45.53l.52-.25Z" fill="#F2A71E"/><path d="M11.92 5.7a3.77 3.77 0 0 1 .81 1.6.1.1 0 0 1-.08.09c-2.15.4-2.55-1.53-2.55-3.15a.09.09 0 0 1 .07-.09h.04a5.01 5.01 0 0 1 3.52 3.15.05.05 0 0 0 .07-.01 2.74 2.74 0 0 0 .56-1.17.07.07 0 0 1 .07-.02l.04.02c.58.67.68 1.42.32 2.24-.12.26-.29.46-.5.6a.05.05 0 0 1-.07 0l-.02-.04v-.04a2.42 2.42 0 0 0 .3-1.08.02.02 0 0 0-.03 0l-.4.98a2.77 2.77 0 0 1-1.92 3.66c-.83.38-1.64.56-2.43.54-1.56-.03-3.26-.66-3.67-2.27a.02.02 0 0 1 .01-.02h.03c.96 1.46 2.54 1.87 4.23 1.58a3.62 3.62 0 0 0 3.07-3.25 4.13 4.13 0 0 0-1.43-3.37h-.03v.02l-.02.02.01.02Z" fill="#3EAD49"/><path d="M7.3 7.27a.72.72 0 1 0 0-1.44.72.72 0 0 0 0 1.44Z" fill="#F2A71E"/><path d="M12.66 9.37a.03.03 0 0 0-.03.05c.16.15.27.3.33.45a.25.25 0 0 1-.13.31c-.57.27-1.53.17-1.62-.58-.05-.39.32-.55.67-.66a.11.11 0 0 0 .08-.1c.04-1.1 1.67-.46 1.19.88a.06.06 0 0 1-.11 0 .7.7 0 0 0-.38-.35Z" fill="#3EAD49"/></svg>