<!-- by TradingView --><svg width="18" height="18" viewBox="0 0 18 18" xmlns="http://www.w3.org/2000/svg"><path fill="#01214A" d="M0 0h18v18H0z"/><path d="M13.33 7H16v.67h-2.55c-.2 0-.49.17-.49.53 0 .32.29.47.48.47h1.47c.48 0 .9.23 1.04.77.06.23.07.48 0 .71-.13.5-.57.85-1.04.85h-2.56v-.67h2.56c.2 0 .48-.22.48-.53 0-.26-.3-.46-.47-.47h-1.47c-.6.01-1.11-.45-1.1-1.13 0-.6.44-1.14.98-1.2Z" fill="#fff"/><path fill-rule="evenodd" d="M10.56 7.08a2.13 2.13 0 0 0-1.43.11 2 2 0 0 0-.55.4 2 2 0 0 0-.5 2c.11.42.36.72.7.99a2.21 2.21 0 0 0 2.1.25c.1-.04.25-.15.37-.23l.08-.06c.02.65-.68 1.3-1.33 1.3v.66l.36-.01A1.88 1.88 0 0 0 12 10.6V9a2.04 2.04 0 0 0-1.43-1.91ZM10 10.32a1.33 1.33 0 1 0 0-2.66 1.33 1.33 0 0 0 0 2.66Z" fill="#fff"/><path d="M6.25 7.07c-.26-.07-.54-.09-.8-.05-.37.04-.72.2-1 .44-.18.15-.33.34-.45.54l.43.24.1.06A1.32 1.32 0 0 1 7 9a1.33 1.33 0 0 1-2.41.77 71.18 71.18 0 0 0-.54.3l.14.2a1.98 1.98 0 0 0 2.05.67c.24-.07.58-.24.77-.39V11h.65V9.12l-.01-.37a1.9 1.9 0 0 0-.59-1.2c-.22-.22-.5-.39-.8-.48Z" fill="#fff"/><path d="M2.36 7.64c.07-.03.16 0 .22.04l2.18 1.14c.1.04.13.15.08.23-.03.07-.1.1-.16.13l-2.07 1.08c-.05.03-.1.06-.16.06-.07 0-.14-.03-.2-.05l-.14-.06a.21.21 0 0 1-.11-.19v-2.1c0-.09.06-.17.14-.2l.22-.08Z" fill="#F4821F"/></svg>