<!-- by TradingView --><svg width="18" height="18" viewBox="0 0 18 18" xmlns="http://www.w3.org/2000/svg"><path fill="#1B2F55" d="M0 0h18v18H0z"/><path d="M9.08 7.33c0-.1.15-.11.16 0a.8.8 0 0 1-.03.17c-.03.12-.08.23-.15.33.1.04.17.11.22.2.18-.1.42-.1.61-.1.12 0 .1.16-.01.15a1.64 1.64 0 0 0-.34-.03.77.77 0 0 0-.23.04l.03.12c.03.22-.06.41-.2.56.11.23.16.5.12.75-.05.4-.25.77-.52 1.07a.08.08 0 0 1-.13-.01l-.08-.14-.08-.13-.07-.14-.04-.07-.03-.07-.06-.15-.08-.22-.04-.15-.05-.24-.01-.08-.27.02-.22.01-.4.05c-.16.03-.51.17-.68.23l-.47.02c.47-.49 1.18-.52 1.54-.54l.49-.03a2 2 0 0 1 .15-.74 2.09 2.09 0 0 0-1.5.04l.01.02c.22.24.54.4.86.48.08.03.18.04.26.06.03 0 .04.03.04.05 0 .02-.03.04-.05.03l-.18-.02a1.81 1.81 0 0 1-1.12-.6l-.02-.02a.07.07 0 0 1 .03-.1c.28-.14.58-.23.89-.26.3-.02.6.02.88.13.1-.16.29-.25.48-.25.07 0 .14 0 .2.03a.9.9 0 0 0 .1-.47Zm-.13 1.6c-.2.13-.45.2-.7.23l.04.24.05.21.07.21.12.28.07.13.09.17.05-.07.04-.07c.25-.4.4-.9.2-1.35l-.03.02ZM8.4 8.3c-.07.16-.12.33-.13.51l-.01.11c.22-.03.44-.1.6-.2a1.45 1.45 0 0 0-.06-.08l-.09-.1c-.1-.1-.2-.18-.3-.24Zm.67-.2c-.12-.16-.38-.16-.52-.04a.35.35 0 0 0-.05.05 1.63 1.63 0 0 1 .52.46c.11-.14.16-.32.05-.48Z" fill="url(#a)"/><path d="M10.09 5.08c.91-.28 1.87.2 2.32.99.25.04.49.13.7.28.7.46.8 1.37.48 2.07.15.11.25.28.32.45.09.24.1.5.08.74a1.3 1.3 0 0 1-.29.73c-.33.4-.85.6-1.34.7-.28.07-.57.11-.85.16-.27.04-.55.07-.82.13-.26.06-.51.14-.75.26a1.32 1.32 0 0 0-.82 1.37 2 2 0 0 0 .34.7l.16.21c.06.07-.04.18-.12.1-.21-.2-.45-.46-.59-.75-.06-.13-.1-.26-.1-.4a1.6 1.6 0 0 1 .62-1.38c.18-.14.38-.25.6-.34.44-.2.93-.26 1.41-.33l.55-.1c.5-.1 1.05-.21 1.4-.58.14-.15.23-.33.26-.53.06-.28.06-.59-.07-.85a.74.74 0 0 0-.13-.19h-.01a.05.05 0 0 1-.04-.06v-.04l.01-.03c.08-.53.07-1.13-.26-1.57a2.2 2.2 0 0 0-.82-.6c-.02 0-.03-.03-.04-.04l-.07-.07c-.54-.56-1.26-.95-2.06-.77-.26.06-.52.16-.77.3h-.02a.07.07 0 0 1-.06 0 2.89 2.89 0 0 0-.7-.18 1.8 1.8 0 0 0-1.32.3c-.19.14-.35.32-.5.51a3.95 3.95 0 0 0-.27.06c-.86.2-1.56.6-1.61 1.53v.31l.02.35c0 .01 0 .03-.02.03l-.29.53c-.34.72-.55 1.66-.01 2.33.62.75 1.6 1 2.55.81.35-.07.77-.16.95-.5a.48.48 0 0 0 0-.45c-.09-.14-.27-.22-.46-.24-.18 0-.35.04-.54.08-.2.05-.41.1-.63.12a1.6 1.6 0 0 1-.68-.06.7.7 0 0 1-.32-.2.65.65 0 0 1-.13-.26c-.07-.28.05-.54.2-.75.27-.36.64-.61 1.05-.77l.17.2c-.4.15-.75.38-1 .72-.1.14-.2.33-.16.5v.03l.01.03v.02l.01.01c.09.2.33.25.54.27.3.02.59-.06.88-.13.19-.04.38-.1.58-.09.39.01.77.24.82.64.05.35-.15.67-.44.85-.24.14-.53.2-.8.27-.85.17-1.81 0-2.49-.57-.17-.14-.33-.3-.44-.49-.58-.9-.16-2.05.4-2.86l.08-.1a3.64 3.64 0 0 1-.07-.17l-.04-.2c-.1-.49-.01-1 .33-1.37a2.17 2.17 0 0 1 1.7-.61c.11-.21.27-.4.46-.57.41-.34 1-.45 1.51-.34.24.05.48.12.69.24.22-.17.47-.3.75-.39Z" fill="#fff"/><defs><linearGradient id="a" x1="8.86" y1="7.81" x2="6.8" y2="9.16" gradientUnits="userSpaceOnUse"><stop stop-color="#F3DC62"/><stop offset="1" stop-color="#fff"/></linearGradient></defs></svg>