<!-- by TradingView --><svg width="18" height="18" xmlns="http://www.w3.org/2000/svg"><path fill="#F0F3FA" d="M0 0h18v18H0z"/><path d="M14.508 10.817a.016.016 0 00-.003-.002.365.365 0 00.05-.039c.187-.166.188-.475.005-.623l-.004-.003c-.25-.098-.587-.055-.78-.17a.286.286 0 01-.104-.105.426.426 0 01-.045-.236 1.11 1.11 0 01.023-.164c.089.044.172.101.263.124.084.024.185-.02.266-.083l.008-.007.006-.004a.062.062 0 00.007-.006l.012-.011a.533.533 0 00.022-.021c.05-.052.085-.106.089-.142-.05-.206-.118-.343-.266-.447a1.236 1.236 0 00-.297-.144l-.009-.002c.11-.205.04-.413-.181-.58l-.018-.014-.015-.01a1.193 1.193 0 00-.133-.08l-.004.003c-.02.017-.04.032-.06.047l-.026.018c-.19.128-.33.126-.46.046l-.004-.003a1.35 1.35 0 01-.294-.298c-.056-.07-.114-.146-.178-.223l.022-.022.022-.023.093-.093.156-.157.05-.05a1.686 1.686 0 00-.341-.334l-.02-.014c-.181-.113-.392-.145-.662-.02l-.006.002a3.13 3.13 0 01-.01-.053l.152-.316-.056-.039-.027-.018-.045-.03a4.871 4.871 0 00-.095-.062c-.319-.2-.432-.206-.497-.155a.197.197 0 00-.037.043c-.04.059-.07.136-.18.15l-.014.002c-.094.007-.242-.029-.492-.15a6.35 6.35 0 01-.499-.275l-.008-.005c.144-.255.298-.342.141-.452l-.012-.007-.017-.01a1.234 1.234 0 00-.178-.082c-.276-.131-.316-.159-.397-.103l-.008.005c-.03.022-.067.055-.124.098l-.024.019c-.023.016-.049.034-.078.052l-.005.003a.893.893 0 00-.346-.416l-.046-.029-.02-.01c-.188-.108-.401-.143-.553-.04a.377.377 0 00-.034.027l-.004.002a.563.563 0 00-.145.273l.17.145a2.38 2.38 0 00-.416-.044l-.012-.001-.013-.003a.74.74 0 01-.329-.073c-.126-.074-.215-.224-.256-.539a.127.127 0 00-.059-.067l-.013-.008c-.167-.096-.563-.156-.741 0a.26.26 0 00-.08.13.56.56 0 00-.103-.081.27.27 0 00-.019-.012l-.02-.011c-.243-.137-.55-.121-.741.024l-.027.022-.005.004a.451.451 0 00-.15.31c.169.17.446.259.67.423-.15.046-.243.118-.34.174a1.003 1.003 0 01-.07.036l-.005.003a.497.497 0 01-.111.035.448.448 0 01-.129-.057l-.009-.005c-.202-.13-.394-.408-.595-.55l-.01-.006c-.137-.095-.28-.12-.435.01l-.016.013a.451.451 0 00-.02.02 4.398 4.398 0 00-.265.23c-.266.255-.47.568-.597.914l1.402.277-.107.42-.062.248a2.748 2.748 0 01-.225-.073l-.01-.003c-.305-.112-.636-.27-.907-.357l-.004.003-.013.01a.347.347 0 00-.05.054c-.197.255-.244.904.228.951.01.005.014.019.037.05-.318.225-.071.737.208.913.326.096.581-.105.922-.174.21-.122.387.079.626.4.137.184.294.407.49.632-.187.05-.367.025-.528.012l-.01-.002c-.156-.013-.293-.013-.403.08l-.01.008a.67.67 0 00-.142.24c.775.703.414.739 1.6.422l.035.068c-.05.176-.436.415-.347.573.45.258.818.581 1.035.422a.02.02 0 01.004-.004l.006-.005c.066-.054.118-.158.152-.328.025-.133.04-.267.044-.402l.96.441.783.36-.548.746c.491.133 1.142.615 1.393-.09.17.385.088.622.658.625.175.016.454.03.608-.091a.285.285 0 00.106-.184c-.07-.154-.182-.289-.287-.425a2.038 2.038 0 01-.167-.244l.443-.027.628-.039.391.964c.332-.023.655-.077.918-.314a.681.681 0 00.455-.176l.033-.027a.36.36 0 00.03-.028c.107-.093.208-.197.328-.275l.003-.003c-.065-.05-.102-.083-.139-.108l-.008-.006a1.805 1.805 0 00-.05-.033c-.151-.099-.342-.192-.512-.295l-.028-.018a1.234 1.234 0 01-.072-.048l-.027-.018a1.068 1.068 0 01-.162-.138.225.225 0 01.066-.117c.025-.028.052-.054.08-.079.082-.075.18-.15.232-.205.277.211.443.532.774.633a.681.681 0 00.236-.122l.004-.003.01-.009a.513.513 0 00.02-.017l.017-.016a.436.436 0 00.034-.033c.154-.163.224-.395.039-.584zM12.296 9.65a.015.015 0 01-.004.003l-.003.003a.033.033 0 00-.004.003l-.003.003-.004.003-.003.003-.004.003-.003.002-.004.003-.003.003-.003.003-.004.003-.003.003-.004.003-.004.003-.003.003-.004.003a.034.034 0 00-.003.003l-.004.003-.003.003a.028.028 0 01-.003.003l-.004.003-.004.003-.003.002-.003.003-.004.003-.002.002-.003.003-.004.003-.003.003a.032.032 0 00-.004.003l-.003.003-.004.003a.024.024 0 01-.003.003l-.004.003-.003.002-.004.003-.003.003a.024.024 0 01-.004.003l-.003.003-.003.003-.004.003-.004.003-.003.003-.004.003a.032.032 0 00-.003.003l-.004.003-.003.003-.004.003-.003.003a.025.025 0 00-.003.003l-.004.003-.004.002a.024.024 0 01-.003.003l-.004.003-.003.003-.003.003-.004.003a.025.025 0 01-.003.003l-.004.003-.003.003-.004.003-.003.003-.004.003-.003.003a.025.025 0 00-.004.003l-.003.003-.004.003-.003.003-.004.002a.033.033 0 00-.003.004l-.004.003-.003.002a.025.025 0 01-.004.003l-.003.003a.013.013 0 00-.004.003l-.003.003-.004.003a.024.024 0 01-.003.003l-.004.003-.003.003-.004.003-.003.003-.004.003-.003.003a.023.023 0 00-.003.003l-.004.003-.004.003-.003.002-.004.003-.003.003c-.075.065-.14.147-.211.214-.09.114-.078.202-.014.275h.001l.003.004a.45.45 0 00-.148-.013c-.121.049-.235.111-.341.186l-.017.014-.004.007-.006.005-.003.003a.033.033 0 00-.004.003l-.003.002-.004.003a.024.024 0 01-.003.003l-.004.003-.003.003-.004.003-.003.003-.003.003-.004.003-.003.003-.004.003-.004.003-.003.003-.004.003-.002.001v.002l-.004.003-.003.002a.033.033 0 01-.003.004l-.004.003a.024.024 0 00-.003.003l-.004.002-.003.003-.004.003-.004.003-.003.003-.003.003-.004.003-.003.003-.004.003-.003.003a.02.02 0 01-.004.003l-.003.003a.047.047 0 00-.004.003l-.003.003a.024.024 0 00-.004.003l-.003.003-.004.002a.032.032 0 01-.003.003l-.004.003a.024.024 0 00-.003.003l-.004.003-.007.005-.003.004-.004.002-.003.003-.004.003-.004.003-.003.003-.004.003-.003.003a.024.024 0 01-.003.003l-.004.003a.014.014 0 00-.003.003l-.004.003-.004.003a.032.032 0 01-.003.003l-.004.003-.003.003-.003.003-.004.002-.003.004-.004.002-.003.003-.004.003-.003.003-.004.003-.003.003a.024.024 0 00-.004.003l-.003.003-.004.003a.02.02 0 01-.003.003l-.004.003a.013.013 0 00-.003.003l-.004.003-.003.003a.033.033 0 01-.004.003l-.003.003-.004.002-.003.003-.004.003-.003.003-.004.003-.003.003-.004.003-.003.003-.003.003c-.078.065-.125.141-.125.238l-.001.003-.507-.053a.68.68 0 00-.32-.658.516.516 0 00-.39-.073 1.57 1.57 0 00-.17.096l-.019.013-.014.01-.014.01a.914.914 0 00-.038.03l-.012.01-.003.003-.004.003-.003.003a.02.02 0 01-.004.003l-.003.003-.003.003-.004.003a.034.034 0 00-.003.003l-.004.003-.004.002-.003.004-.003.003-.004.002-.003.003-.004.003-.003.003-.004.003-.004.003a.035.035 0 01-.003.003l-.003.003-.004.003-.003.003-.004.003a.024.024 0 01-.003.003l-.004.003-.003.003-.004.003-.003.003-.003.002-.003.002a.024.024 0 00-.004.004l-.003.002-.004.003a.016.016 0 01-.003.003l-.004.003a.024.024 0 00-.003.003l-.004.003-.003.003-.004.003-.003.003a.016.016 0 00-.004.003l-.003.003-.004.003-.003.003-.004.003-.003.003-.004.003-.003.003-.004.003-.003.002-.004.003a.034.034 0 01-.003.003l-.004.003a.03.03 0 01-.003.003l-.004.003-.003.003-.004.003-.003.003-.003.003-.004.003a.016.016 0 00-.003.003l-.004.003-.002.002-.004.003v.002c-.075.008-.202-.045-.523-.193-.184-.085-.431-.201-.769-.355.186-.279.324-.5.12-.64a3.094 3.094 0 00-.19-.12c-.346-.199-.473-.14-.562-.062l-.004.003a.025.025 0 01-.003.003l-.004.003-.003.003-.004.003-.003.003-.004.003-.003.003a.025.025 0 00-.004.003l-.003.003-.004.003-.003.003-.004.003a.014.014 0 00-.003.003l-.004.003-.003.002a.025.025 0 01-.004.003l-.003.003a.015.015 0 00-.003.004l-.004.002-.004.003a.025.025 0 01-.003.003l-.004.003-.003.003-.003.003a.025.025 0 00-.004.003l-.003.003-.004.003a.025.025 0 00-.003.003l-.005.003a.15.15 0 01-.06.02c-.106.009-.281-.086-.653-.518a9.296 9.296 0 01-.252-.308l-.056-.073.006-.006c.152-.144.403-.082.497-.223.365-.55-.529-.584-.951-.71a.02.02 0 000-.004l-.015-.145h.004a.653.653 0 00.337.055.612.612 0 00.231-.113l.004-.003.003-.002a.032.032 0 01.004-.003l.003-.003.004-.004.003-.002.004-.003.003-.003.004-.003a.034.034 0 00.003-.003l.004-.003a.025.025 0 00.003-.003l.004-.003.003-.003a.033.033 0 01.004-.003l.003-.003.004-.003a.03.03 0 00.003-.003l.004-.003.003-.003.004-.003.003-.002a.034.034 0 01.004-.003l.003-.003.003-.003.004-.003.004-.003.003-.003.004-.003a.033.033 0 00.003-.003l.003-.003.004-.003.003-.003.004-.003.003-.003.004-.003.004-.003a.033.033 0 00.003-.003l.003-.002a.033.033 0 01.004-.003l.001-.002.004-.003.003-.003.004-.003.003-.003.004-.003.003-.002a.032.032 0 01.003-.003l.004-.003a.034.034 0 00.003-.003l.004-.003.004-.003.003-.003.003-.003.004-.003.003-.003.004-.003a.033.033 0 00.003-.003l.004-.003.003-.003.004-.003.003-.003.004-.002.003-.003.004-.003.003-.003.004-.003a.033.033 0 01.003-.003l.004-.003a.015.015 0 00.003-.003l.004-.003.003-.003.004-.003.003-.003.003-.003.004-.003.004-.003a.033.033 0 00.003-.003l.004-.002.003-.003a.025.025 0 01.004-.004l.003-.003.003-.002.004-.003.004-.003a.034.034 0 00.003-.003l.005-.005a.033.033 0 01.004-.003l.003-.003.004-.003.003-.002.005-.005a.44.44 0 00.035-.032c.127-.127.142-.305.04-.465l.01.008c.354.273.512.448.807.19l.004-.004.003-.003a.025.025 0 00.004-.003l.003-.002.004-.003.003-.003.004-.003.003-.003.004-.003.003-.003.004-.003.003-.003.004-.003a.026.026 0 01.003-.003l.004-.003.003-.003.004-.003.003-.003a.026.026 0 01.004-.003l.003-.002a.032.032 0 01.003-.003l.004-.003.004-.003a.025.025 0 01.003-.003l.004-.003.003-.003.004-.003.003-.003.003-.003.004-.003.003-.003.004-.003.004-.003a.025.025 0 01.003-.003l.004-.003A.032.032 0 007.5 6.7l.003-.002.004-.003a.025.025 0 01.003-.003l.004-.003.003-.003.004-.003.003-.003a.025.025 0 01.004-.003l.003-.003.004-.003.003-.003.004-.003.003-.003.004-.003.003-.003.004-.003.003-.002a.025.025 0 01.004-.004l.003-.003a.025.025 0 00.004-.003l.003-.002.004-.003a.025.025 0 01.003-.003l.004-.003.003-.003.004-.003.003-.003.004-.003.003-.003a.025.025 0 00.003-.003l.004-.003.004-.003.003-.003.004-.003a.025.025 0 00.003-.003l.003-.003.004-.002a.025.025 0 01.003-.003l.004-.003a.026.026 0 00.003-.003l.004-.003.004-.003a.025.025 0 01.003-.003l.003-.003.004-.003.003-.003.004-.003.002-.002a.45.45 0 00.022-.018l.026-.023.022-.021c.208-.002.46.11.65.12-.004.34.33.62.648.56a.34.34 0 00.115-.07l.003-.002.004-.003.003-.003.004-.003.004-.003.003-.003.003-.003.004-.003.003-.002.004-.003a.025.025 0 01.003-.003l.004-.003.003-.003.004-.003.003-.003a.025.025 0 01.004-.003l.003-.003a.033.033 0 01.004-.003l.003-.003a.025.025 0 00.004-.003l.003-.003.004-.003.003-.003.004-.003.003-.002.004-.003.003-.003.004-.003.003-.003.004-.003a.025.025 0 01.003-.003l.004-.003.003-.003c.05-.031.106-.039.189.016.28.167.628.281.853.49-.373.32.336.764.653.482l.003-.003.004-.003a.031.031 0 01.003-.003l.004-.003a.025.025 0 00.003-.003l.004-.003.004-.003.003-.003.003-.002.7.641c-.184.265-.474.278-.08.632.327.245.545-.02.685.392l.004.009-.004.002z" fill="#E71E2A"/><path d="M7.93 9.497a2.391 2.391 0 00-.194-.118c-.346-.199-.473-.14-.563-.062l-.003.003a.025.025 0 01-.004.003l-.003.003-.003.003-.004.003-.004.003-.003.003-.004.003a.025.025 0 00-.003.003l-.004.003-.003.003-.003.003-.004.003a.014.014 0 00-.003.003l-.004.003-.004.002a.025.025 0 01-.003.003l-.004.003a.015.015 0 00-.003.004l-.003.002-.004.003a.025.025 0 01-.003.003l-.004.003-.003.003-.004.003a.025.025 0 00-.003.003l-.004.003-.003.003a.025.025 0 00-.004.003.15.15 0 01-.064.02c-.106-.002-.273-.116-.633-.52l-.019.003-1.012.2c.137.183.295.407.49.632-.191.051-.376.024-.538.011-.156-.012-.293-.013-.403.08a.569.569 0 00-.155.25c.779.701.417.737 1.602.42l.036.068c-.05.177-.436.416-.347.573.45.258.818.581 1.034.422l.005-.003.006-.005c.066-.055.118-.16.152-.329.025-.132.04-.267.044-.402l.96.441.343-.769v-.004c-.183-.085-.43-.2-.766-.354.188-.28.324-.497.122-.64zM13.84 11.913c-.253-.175-.641-.33-.844-.544a.225.225 0 01.067-.118c.024-.027.05-.053.079-.078l-.612-.45c-.057.061-.12.114-.162.156a1.436 1.436 0 01-.07-.057c-.073-.062-.139-.129-.204-.19-.11-.105-.219-.197-.352-.229a.444.444 0 00-.141-.01c-.134.06-.256.118-.343.189l-.017.014-.004.003-.006.005c-.133.123-.161.283.022.545l-.443-.045.4.826.628-.038.39.964c.33-.023.654-.077.918-.314a.68.68 0 00.454-.176l.033-.027.03-.026c.106-.093.208-.198.327-.275l.004-.003c-.074-.06-.111-.095-.155-.122zM11.926 8.968c.312.234.523.002.665.338l1.036.333c.003-.056.011-.11.023-.165.09.044.172.102.263.124.085.025.185-.02.266-.083l.008-.006.006-.005a.071.071 0 00.007-.006l.012-.01a.702.702 0 00.022-.022c.05-.051.085-.105.09-.142-.078-.314-.194-.466-.576-.59.134-.25.002-.504-.347-.684l-.004.003c-.02.017-.04.032-.06.046l-.026.02c-.337.228-.52.04-.758-.257l-.93.124.383.35c-.184.265-.475.28-.08.632zM9.818 5.467c-.275-.13-.316-.158-.396-.102l-.008.005c-.03.022-.068.054-.125.098l-.024.018a2.28 2.28 0 01-.083.057c-.126-.363-.664-.699-.966-.495a.372.372 0 00-.034.027l-.003.003-.003.002a.507.507 0 00-.142.27l.17.146a2.462 2.462 0 00-.43-.047h-.012l.511.8c.15.034.302.085.426.091-.002.34.332.62.65.56.176-.058.222-.282.42-.15.075.045.156.086.238.126l.384-.576a6.426 6.426 0 01-.507-.28c.184-.327.384-.376-.066-.553zM5.572 7.361a27.77 27.77 0 00-.04-.372c.26.102.443.257.71.225a.62.62 0 00.264-.142.358.358 0 00.05-.459.756.756 0 00-.354-.286c.063-.013.124-.031.184-.054l-.836-.53a.793.793 0 01-.075.038.497.497 0 01-.112.035c-.401-.098-.744-.976-1.178-.61l-.015.014a.686.686 0 00-.02.02c-.401.322-.663.634-.862 1.144l1.402.278-.107.42.99.28z" fill="#EE7A2B"/></svg>