<!-- by TradingView --><svg width="18" height="18" viewBox="0 0 18 18" xmlns="http://www.w3.org/2000/svg"><path fill="#F0F3FA" d="M0 0h18v18H0z"/><path d="M10.97 8.38 10.73 7l-3.29 4.66a2.41 2.41 0 0 0-.43 1.6L7.16 15l3.4-4.83c.37-.52.51-1.17.4-1.8Z" fill="url(#ah1bs1ua3)"/><path d="M11 5.86 10.59 3 7.66 7.08c-.5.68-.72 1.5-.65 2.34L7.14 11 11 5.86Z" fill="url(#bh1bs1ua3)"/><path d="M11 5.86 7.29 9.29l-.15 1.54V11L11 5.86Z" fill="url(#ch1bs1ua3)"/><path d="M11 5.86 7.43 10l-.29 1L11 5.86Z" fill="url(#dh1bs1ua3)"/><defs><linearGradient id="ah1bs1ua3" x1="9" y1="7" x2="9" y2="15" gradientUnits="userSpaceOnUse"><stop stop-color="#64BCD5"/><stop offset="1" stop-color="#3481C3"/></linearGradient><linearGradient id="bh1bs1ua3" x1="9" y1="3" x2="9" y2="11" gradientUnits="userSpaceOnUse"><stop stop-color="#A2ABD6"/><stop offset="1" stop-color="#558CC7"/></linearGradient><linearGradient id="ch1bs1ua3" x1="9.07" y1="5.82" x2="9.07" y2="11" gradientUnits="userSpaceOnUse"><stop stop-color="#4D3D87"/><stop offset="1" stop-color="#4B6BAE"/></linearGradient><linearGradient id="dh1bs1ua3" x1="9.1" y1="5.82" x2="9.1" y2="10.94" gradientUnits="userSpaceOnUse"><stop stop-color="#39265A"/><stop offset="1" stop-color="#344A7A"/></linearGradient></defs></svg>