<!-- by TradingView --><svg width="18" height="18" xmlns="http://www.w3.org/2000/svg"><path fill="#002386" d="M0 0h18v18H0z"/><path d="M10.657 6.207C9.048 4.842 8.587 3.5 8.559 3c-.472.515-.516 1.23-.472 1.5.05.635.274 1.045.697 1.5H7.502a.502.502 0 000 1.004h2.257a.48.48 0 00.085-.008c.244.22.514.469.813.755.088.085.171.168.251.249H7.5a.5.5 0 100 1h4.173a.502.502 0 00.079-.006c.645.91.71 1.533.723 1.92.014.436-.297 1.357-.454 1.764.874-1.294.979-2.063.979-2.607s-.332-2.157-2.343-3.864zm-3.314 5.586C8.952 13.158 9.413 14.5 9.441 15c.472-.515.516-1.23.472-1.5-.076-.98-.57-1.425-1.57-2.327L8.152 11H10.5a.5.5 0 000-1H7.176a.498.498 0 00-.078.006C5.652 8.534 5.54 7.601 5.525 7.086c-.014-.436.297-1.357.454-1.764C5.105 6.616 5 7.385 5 7.93s.332 2.157 2.343 3.864z" fill="#fff"/></svg>