<!-- by TradingView --><svg width="18" height="18" viewBox="0 0 18 18" xmlns="http://www.w3.org/2000/svg"><path fill="#F0F3FA" d="M0 0h18v18H0z"/><path fill-rule="evenodd" d="M3.81 6.43c-.29.04-.53.11-.72.35a.4.4 0 0 0-.09.24c0 .1.06.18.18.23.45.2 1 .05 1.36-.34a.08.08 0 0 1 .04-.02h.05c.2.14.35.31.46.54v.07l-.15.38v.06c0 .01 0 .03.02.04 0 .02.02.03.03.04h.05l.13-.03h.02L5.2 8l.01.02v.01a2.48 2.48 0 0 1-.2.94v.05l.01.03.02.02.04.01c.02.01.04 0 .06-.02.19-.33.28-.7.28-1.11 0-.03.01-.04.03-.04a.6.6 0 0 1 .58.24c.15.2.21.52.22.77v.33c0 .35 0 .58.08.9.14.55.48 1.15.94 1.47.15.1.26.17.34.2.73.28 1.48.24 2.22-.12a8.4 8.4 0 0 0 .63-.33l.02.02c.33.62.68 1.2 1.27 1.47.44.2.86.19 1.28-.03.26-.13.25-.46.05-.66a43.54 43.54 0 0 0-.21-.22v-.06c0-.02 0-.04.02-.06a.1.1 0 0 1 .05-.03l.1-.03.49-.07c.18-.04.3-.1.37-.18.13-.16.13-.32 0-.48-.2-.23-.6-.3-.89-.33a4.79 4.79 0 0 0-1.7.1c-.05.02-.06 0-.02-.04l.1-.14c.08-.08.15-.17.2-.26.24-.4.48-1.12.22-1.55a.07.07 0 0 1 0-.09c.4-.36 1.22-1.21 1-1.86 0-.03 0-.04.03-.06.27-.2.54-.45.83-.77.17-.19.36-.49.3-.76-.07-.3-.66-.23-.91-.2l-.03.01c-.8.1-1.55.31-2.27.62A6.73 6.73 0 0 0 8.5 7.3c-.05.05-.1.1-.13.15h-.04a3.46 3.46 0 0 0-1.22-.96c-.67-.3-1.23-.17-1.67.43a16.01 16.01 0 0 0-.21.25h-.01a.92.92 0 0 0-.3-.38c-.02 0-.02-.01-.03-.02a.07.07 0 0 1 0-.06l.02-.02c.37-.22.65-.46.8-.89a.52.52 0 0 0-.07-.52c-.07-.09-.17-.08-.26-.05-.38.14-.64.43-.76.88-.02.07-.04.07-.06 0-.1-.38-.32-.86-.64-1.03-.13-.07-.46-.18-.52.03a1.26 1.26 0 0 0 .42 1.28v.02Zm7.28 1.3a.4.4 0 0 1-.35-.07.12.12 0 0 1-.04-.07V7.5a.9.9 0 0 1 .34-.43 2.8 2.8 0 0 1 1.19-.48c.11-.01.26.01.45.08a.05.05 0 0 0 .05 0c.26-.24.47-.5.64-.77.1-.16.22-.53-.03-.61a1.01 1.01 0 0 0-.45-.03c-1.42.18-2.8.8-3.84 1.87a4.2 4.2 0 0 0-.46.57v.05c.71.94 1.25 1.97 1.83 3.11l.1.18s.01.02.03.02h.04c.55-.32.9-.8 1.01-1.45.04-.2.03-.37-.04-.56a.09.09 0 0 0-.02-.04l-.03-.01a.07.07 0 0 0-.06 0c-.3.24-.63.43-.97.56a.91.91 0 0 1-.36.06c-.15 0-.2-.17-.15-.31a.77.77 0 0 1 .23-.33c.42-.36.9-.48 1.4-.36h.07c.02 0 .03-.02.05-.03.34-.33.82-.96.8-1.49l-.02-.02c0-.01 0-.02-.02-.03a.05.05 0 0 0-.05 0c-.41.28-.88.57-1.34.67ZM4.43 6.54c0-.2-.06-.42-.18-.63-.13-.22-.31-.46-.54-.54h-.04a.1.1 0 0 0-.04.02.1.1 0 0 0-.03.04l-.01.05c-.02.4.18.64.44.87a1.36 1.36 0 0 0 .39.22l.01-.01v-.02Zm.98-.98c.08.07.07.2-.04.39-.14.27-.35.48-.6.62-.05.03-.1.04-.11.02-.02-.02-.02-.06 0-.13.07-.3.21-.57.42-.79.14-.15.25-.18.33-.1Zm-1.1 1.35c.05-.04.07-.07.07-.1 0-.02-.03-.04-.08-.06-.25-.07-.5-.06-.74.03-.17.06-.25.14-.23.24.01.1.1.15.28.14.26 0 .5-.1.7-.25Zm6.94.4c.28-.32.7-.48 1.07-.42.06 0 .06.03.01.07a2.9 2.9 0 0 1-.89.48c-.07.03-.12.03-.17.01a.08.08 0 0 1-.03-.02.1.1 0 0 1 0-.12Zm-3.1.47c-.19.28-.33.61-.43.99-.09.36-.1.74-.03 1.12a2.16 2.16 0 0 0 1.48 1.54l.18.04.18.03c.07.02.07.05 0 .07-.18.05-.35.08-.54.11a2.04 2.04 0 0 1-1.54-.38c-.47-.34-.81-1-.93-1.6-.05-.28-.1-.7-.15-1.25-.04-.4-.23-.66-.57-.8-.07-.03-.15-.04-.24-.05l-.08-.01-.05-.02a.1.1 0 0 1-.02-.04.12.12 0 0 1 0-.1c.28-.54.67-.78 1.17-.73.57.05 1.14.55 1.57 1.03l.01.03v.02ZM6.21 7.4c.1 0 .19-.1.19-.21 0-.12-.09-.21-.19-.21s-.18.1-.18.2c0 .13.08.22.18.22Zm4.11 3.78c-.11.05-.27.1-.38.1a1.87 1.87 0 0 1-1.73-.9 1.69 1.69 0 0 1-.23-1.05 2.9 2.9 0 0 1 .4-1.28l.01-.01h.02l.02.02a19.41 19.41 0 0 1 1.9 3.12Zm.98-2.32c.02.08-.18.23-.45.34-.28.1-.52.13-.54.06-.03-.08.17-.24.45-.35.27-.1.51-.13.54-.05Zm1.32 2.78c-.03.14.03.24.1.34.04.07.09.14.1.24.02.12-.04.22-.17.28a.92.92 0 0 1-.42.07c-.71-.03-1.24-.6-1.57-1.25a.06.06 0 0 1 0-.05v-.02l.03-.01a4.12 4.12 0 0 1 2.25-.3c.17.04.32.12.45.23.03.03.05.06.06.1a.2.2 0 0 1-.02.13c-.01.03-.04.05-.09.06a15.63 15.63 0 0 0-.71.16l-.01.02Z" fill="#B50740"/></svg>