<!-- by TradingView --><svg width="18" height="18" viewBox="0 0 18 18" xmlns="http://www.w3.org/2000/svg"><path fill="#F0F3FA" d="M0 0h18v18H0z"/><path d="M9 8.63a1.5 1.5 0 1 0 0-3 1.5 1.5 0 0 0 0 3Z" fill="#00644E"/><path fill-rule="evenodd" d="M13.13 7.64a.11.11 0 0 0-.04.08 4.05 4.05 0 0 1-2.57 3.25c-.18.07-.3.25-.22.43.3.73 1.1.97 1.51.97a1.31 1.31 0 1 1-1.31 1.32c0-.56-.72-1.2-1.5-1.2s-1.5.63-1.5 1.2a1.31 1.31 0 1 1-1.5-1.3v-.02a3 3 0 0 0 1.24-.47.93.93 0 0 0 .4-.6c.03-.16-.08-.3-.23-.36a4.05 4.05 0 0 1-2.5-3.22.11.11 0 0 0-.04-.08c-.17-.13-.37-.29-.37-.51 0-.23.2-.4.37-.52a.18.18 0 0 0 .06-.12A4.18 4.18 0 0 1 9 3a4.18 4.18 0 0 1 4.07 3.5c0 .04.03.08.06.1.17.14.37.3.37.52 0 .23-.2.4-.37.52Zm-1.5-.51a2.62 2.62 0 1 1-5.25 0 2.62 2.62 0 0 1 5.24 0Z" fill="#00644E"/></svg>