<!-- by TradingView --><svg width="18" height="18" viewBox="0 0 18 18" xmlns="http://www.w3.org/2000/svg"><path fill="#F0F3FA" d="M0 0h18v18H0z"/><path d="M11.8 5c-.13 1.07-.32 3.8 0 6.26.15-1 .3-4.02 0-6.26Zm-.84 1.12c-.13.97-.32 3.46 0 5.7.15-.92.3-3.66 0-5.7Zm-.77 1.21c-.13.68-.32 2.44 0 4 .15-.64.29-2.57 0-4Zm-.76.85c-.13.68-.32 2.44 0 4 .15-.64.29-2.56 0-4Zm3.2-2.44c-.13.77-.32 2.76 0 4.54.15-.73.29-2.91 0-4.54Zm.66 1.9c-.13.54-.3 1.9 0 3.13.13-.5.26-2 0-3.13Zm.6.5a5.8 5.8 0 0 0 0 2.36c.1-.38.2-1.52 0-2.37Zm.56-1.17c-.12.52-.3 1.88 0 3.09.14-.5.26-1.99 0-3.1Zm.43-.72c-.1.42-.24 1.52 0 2.5.1-.4.2-1.6 0-2.5Z" fill="url(#a3i4pyxne)"/><path d="M6.57 6.65c-.13.95-.32 3.39 0 5.57.15-.9.29-3.58 0-5.57Zm.67 1.12c-.14.69-.32 2.46 0 4.04.15-.65.29-2.6 0-4.04Zm.76.57a6.82 6.82 0 0 0 0 3.07c.15-.5.29-1.97 0-3.07Zm.76.4a8.15 8.15 0 0 0 0 3.36c.15-.54.29-2.15 0-3.36ZM5.81 7.5c-.13.7-.32 2.5 0 4.12.15-.66.29-2.65 0-4.12Zm-.67 1.07a7.67 7.67 0 0 0 0 3.25c.15-.52.29-2.09 0-3.25Zm-.67.88c-.13.47-.32 1.7 0 2.78.15-.45.3-1.79 0-2.78Zm-.59 1.31c-.1.39-.26 1.37 0 2.25.12-.36.24-1.44 0-2.25Zm-.41-.2c-.08.27-.18.95 0 1.55.08-.25.16-.99 0-1.54Zm-.37.3c-.08.25-.18.93 0 1.54.08-.25.16-1 0-1.55Z" fill="url(#b3i4pyxne)"/><defs><linearGradient id="a3i4pyxne" x1="12.13" y1="5" x2="12.13" y2="12.19" gradientUnits="userSpaceOnUse"><stop stop-color="#045C9B"/><stop offset=".5" stop-color="#007EC1"/><stop offset=".78" stop-color="#0071AF"/></linearGradient><linearGradient id="b3i4pyxne" x1="5.96" y1="6.65" x2="5.96" y2="13" gradientUnits="userSpaceOnUse"><stop stop-color="#FDB828"/><stop offset="1" stop-color="#E2BB29"/></linearGradient></defs></svg>