<!-- by TradingView --><svg xmlns="http://www.w3.org/2000/svg" width="18" height="18" viewBox="0 0 18 18"><path fill="url(#avxnrvfng)" d="M0 0h18v18H0z"/><path d="M10.5 15s.88-1.1.8-2.97c-.07-1.78-1.3-2.3-1.3-3.84 0-1.82 1.81-3.27 1-5.19 1.27 1.39 0 3.32 0 4.94 0 .87 1 2.39 1 3.78 0 1.1-.33 2.42-1.5 3.28Z" fill="#F4D879"/><path d="M7.4 15s-.78-1.1-.7-2.97C6.72 10.47 8 9.73 8 8.2 8 6.37 6.19 4.92 7 3 5.73 4.39 7 6.32 7 7.94c0 .87-1 2.39-1 3.78 0 1.1.38 2.25 1.4 3.28Z" fill="#E6CB72"/><defs><linearGradient id="avxnrvfng" x1="3.35" y1="3.12" x2="21.9" y2="24.43" gradientUnits="userSpaceOnUse"><stop stop-color="#1A1E21"/><stop offset="1" stop-color="#06060A"/></linearGradient></defs></svg>