<!-- by TradingView --><svg width="18" height="18" xmlns="http://www.w3.org/2000/svg"><path fill="#F0F3FA" d="M0 0h18v18H0z"/><path d="M4.021 8.72c0 .093-.013.185-.013.29 0 .934.248 1.815.693 2.565.314-1.052.772-2.17 1.347-3.275-.72.105-1.4.25-2.027.42zM4.884 6.17a18.7 18.7 0 012.707-.368c.458-.632.929-1.223 1.413-1.736L8.939 4a4.942 4.942 0 00-4.055 2.17zM11.737 4.815c-.366 1.473-1.02 3.077-1.935 4.655-.262.448-.523.881-.798 1.29.275.407.562.801.85 1.17.405-.014.81-.04 1.203-.08.262-.38.51-.788.746-1.21.732-1.288 1.308-2.577 1.7-3.786a5.221 5.221 0 00-1.766-2.039z" fill="#F89C0E"/><path d="M11.737 4.815A4.989 4.989 0 009.004 4h-.065a18.832 18.832 0 012.144 2.814c.275-.684.484-1.354.654-1.999zM13.504 6.854a19.93 19.93 0 01-1.034 2.538c.314.71.589 1.42.798 2.104.026-.014.065-.014.091-.027a5.021 5.021 0 00.642-2.459 5.323 5.323 0 00-.497-2.156zM8.194 9.47a16.555 16.555 0 01-.706-1.34c-.497.039-.968.091-1.426.157-.196.368-.366.736-.523 1.091.21.421.431.842.667 1.25a19.44 19.44 0 002.42 3.366c.13.013.26.013.392.013.81 0 1.57-.197 2.25-.539-1.1-1.039-2.159-2.406-3.074-3.998z" fill="#40B93C"/><path d="M13.346 11.47c-1.06.25-2.25.42-3.505.473.458.578.915 1.091 1.4 1.565a5.169 5.169 0 002.105-2.039zM6.937 11.85a18.456 18.456 0 01-2.21-.368c-.013.027-.013.053-.026.093a4.998 4.998 0 003.91 2.432 19.467 19.467 0 01-1.674-2.156zM8.99 5.749c-1.477 0-2.863.145-4.119.42a5.038 5.038 0 00-.863 2.552c1.452-.408 3.152-.644 4.983-.644.51 0 1.02.013 1.504.052.21-.447.405-.894.575-1.328a27.243 27.243 0 00-.68-1.013c-.444-.013-.915-.039-1.4-.039z" fill="#1575C5"/></svg>