<!-- by TradingView --><svg width="18" height="18" xmlns="http://www.w3.org/2000/svg"><path fill="url(#paint0_linear)" d="M0 0h18v18H0z"/><ellipse cx="9" cy="9" rx="6" ry="4" fill="#6DACDB"/><path d="M3.029 9.312s.073 1.535 1.868 2.64c0 0 2.02 1.431 5.4.948v-2.552H11V9H7v1.348h.678V11.4c-2.436-.7-2.182-2.562-2.182-2.562C5.84 6.595 8.76 6.466 8.76 6.466s.864-.052 1.535.173V5.103s-2.66-.586-5.41 1.035c0 0-2.16 1.285-1.857 3.174z" fill="#fff"/><defs><linearGradient id="paint0_linear" x1="3.349" y1="3.122" x2="21.904" y2="24.434" gradientUnits="userSpaceOnUse"><stop stop-color="#1A1E21"/><stop offset="1" stop-color="#06060A"/></linearGradient></defs></svg>