<!-- by TradingView --><svg width="18" height="18" xmlns="http://www.w3.org/2000/svg"><path fill="url(#paint0_linear)" d="M0 0h18v18H0z"/><path d="M9.518 13.778C7.28 13.152 5.653 11.25 5.653 9c0-2.274 1.661-4.192 3.934-4.802C9.82 4.135 9.759 4 9.475 4 6.453 4 4 6.243 4 9s2.453 5 5.475 5c.284 0 .301-.15.043-.222z" fill="#09C"/><path d="M6.696 10.161a3.192 3.192 0 01-.026-.404c0-2.195 1.928-3.97 4.313-3.97 2.255 0 2.927.927 3.013.864.095-.063-.818-1.902-3.46-1.902-2.386 0-4.314 1.775-4.314 3.97 0 .507.104.99.293 1.434.077.19.198.19.18.008z" fill="#09C"/><path d="M8.504 7.298c1.12-.451 2.532-.467 3.917-.015.93.3 1.473.729 1.516.705.077-.032-.543-.927-1.653-1.316-1.344-.467-2.79-.221-3.84.54-.12.086-.077.142.06.086z" fill="#09C"/><defs><linearGradient id="paint0_linear" x1="3.349" y1="3.122" x2="21.904" y2="24.434" gradientUnits="userSpaceOnUse"><stop stop-color="#1A1E21"/><stop offset="1" stop-color="#06060A"/></linearGradient></defs></svg>