<!-- by TradingView --><svg width="18" height="18" viewBox="0 0 18 18" xmlns="http://www.w3.org/2000/svg"><path fill="#F0F3FA" d="M0 0h18v18H0z"/><path fill-rule="evenodd" d="M14 5.7 9.65 3 4 5.96C3.94 11.14 7.11 14.15 8.7 15c.49-.29 1.52-1.06 2.5-2.21-.13 0-.55-.1-.89-.26l-.4.4c-2.88-2.06-3.58-5.6-3.57-7.16l3.32-1.74c1.12.71 3.34 2.14 3.46 2.2 0 .1-.03.64-.05.77H14V5.7Zm-8.5.51-.5.26c.01 1.61.73 5.38 3.69 7.46.13-.07.55-.4.55-.4-1.13-.8-3.42-3.4-3.74-7.32Z" fill="url(#asrorzggl)"/><defs><linearGradient id="asrorzggl" x1="14.02" y1="5.75" x2="4" y2="5.75" gradientUnits="userSpaceOnUse"><stop stop-color="#42ADE3"/><stop offset="1" stop-color="#5B55A6"/></linearGradient></defs></svg>