<!-- by TradingView --><svg width="18" height="18" xmlns="http://www.w3.org/2000/svg"><path fill="#008676" d="M0 0h18v18H0z"/><path d="M4 12.997h5s.408.062.748-.402c.238-.34-.068-.835-.068-.835L7.163 7.278c-.17.31-.328.65-.328.897 0 .278.136.65.34 1.02.442.747 1.197 2.08 1.336 2.319.139.24-.092.489-.262.489H5.514c-.51 0-.615-.331-.65-.578L4 12.997z" fill="#fff"/><path d="M11.058 12.997h-1.054s.238-.185.34-.494c.068-.279-.102-.65-.102-.65l-2.84-5.04.476-.865 3.248 5.627s.375.68.273.959c-.068.278-.34.463-.34.463z" fill="#fff"/><path d="M12.401 12.997h-.71s.404-.402.234-.773c-.204-.587-.578-1.144-.578-1.144L8.149 5.453 9 4l5 8.997h-1.598z" fill="#fff"/></svg>