<!-- by TradingView --><svg width="18" height="18" viewBox="0 0 18 18" xmlns="http://www.w3.org/2000/svg"><path fill="#F0F3FA" d="M0 0h18v18H0z"/><path d="M10.55 10a.64.64 0 0 0-.37.2.6.6 0 0 0-.18.44c0 .12.02.19.07.3.04.08.06.1.12.17.12.11.24.16.43.18.22.02.44.08.6.15.2.1.3.23.39.49l.1.46c.01.18.07.32.18.43a.6.6 0 0 0 .43.18c.21 0 .35-.04.49-.18.07-.07.1-.1.12-.17a.57.57 0 0 0 .07-.3.59.59 0 0 0-.2-.46c-.11-.11-.16-.14-.44-.21-.36-.1-.5-.16-.63-.26-.19-.14-.29-.33-.4-.78a3.3 3.3 0 0 0-.08-.24.65.65 0 0 0-.43-.38.85.85 0 0 0-.27-.01ZM6.9 10.2a.62.62 0 0 1 .5-.2c.17.01.29.07.41.2a.6.6 0 0 1 .19.44c0 .12-.01.2-.07.3a.59.59 0 0 1-.2.24c-.09.06-.15.08-.38.15-.5.13-.68.24-.82.49-.07.1-.12.24-.2.5-.08.31-.1.36-.21.47a.6.6 0 0 1-.47.21.65.65 0 0 1-.65-.68.65.65 0 0 1 .61-.62c.15-.01.38-.06.5-.1.33-.12.48-.32.57-.76l.03-.22c.02-.19.07-.31.19-.43ZM5.01 5.77A.64.64 0 0 1 5.57 5c.31-.03.6.14.7.44l.05.2c.08.3.14.44.22.57.15.22.33.33.8.46.18.05.3.09.35.12l.12.1c.09.1.15.2.18.31a.8.8 0 0 1-.02.37.66.66 0 0 1-.45.41.8.8 0 0 1-.33 0 .64.64 0 0 1-.48-.58c-.02-.21-.1-.5-.17-.64-.12-.24-.31-.36-.73-.44a1.75 1.75 0 0 0-.2-.03.64.64 0 0 1-.6-.52ZM11.9 5.18c.1-.09.21-.15.32-.17a.84.84 0 0 1 .32.01c.1.03.19.08.27.17.14.14.19.27.19.46 0 .2-.08.37-.23.5a.83.83 0 0 1-.32.15c-.4.11-.49.14-.62.22a.96.96 0 0 0-.15.1c-.16.15-.24.32-.36.78-.06.21-.1.3-.2.4a.64.64 0 0 1-.26.17.81.81 0 0 1-.38.02.6.6 0 0 1-.3-.18.6.6 0 0 1-.18-.46c0-.11.02-.2.07-.3a.7.7 0 0 1 .26-.27c.08-.04.2-.07.27-.07l.4-.08c.43-.12.58-.3.69-.85l.02-.17c0-.07.03-.17.08-.26.03-.08.05-.1.12-.17Z" fill="#0091AC"/><path d="M9 3c.56 0 1 .32 1 .73 0 .45-.68.8-.7 1.27-.02.5.69.8.7 1.27.01.41-.44.74-1 .73-.51-.01-.99-.31-1-.69-.02-.52.78-.77.75-1.31-.03-.5-.73-.8-.75-1.27-.02-.39.47-.72 1-.73ZM9 11c.56 0 1 .32 1 .73 0 .45-.68.8-.7 1.27-.02.5.69.8.7 1.27.01.41-.44.74-1 .73-.51-.01-.99-.31-1-.69-.02-.52.78-.77.75-1.31-.03-.5-.73-.8-.75-1.27-.02-.39.47-.72 1-.73ZM15 9c0 .56-.32 1-.73 1-.45 0-.8-.68-1.27-.7-.5-.02-.8.69-1.27.7-.41.01-.74-.44-.73-1 .01-.51.31-.99.69-1 .52-.02.77.78 1.31.75.5-.03.8-.73 1.27-.75.39-.02.72.47.73 1ZM7 9c0 .56-.32 1-.73 1-.45 0-.8-.68-1.27-.7-.5-.02-.8.69-1.27.7-.41.01-.74-.44-.73-1 .01-.51.31-.99.69-1 .52-.02.77.78 1.31.75.5-.03.8-.73 1.27-.75.39-.02.72.47.73 1Z" fill="#23B8BC"/></svg>