<!-- by TradingView --><svg xmlns="http://www.w3.org/2000/svg" width="18" height="18" viewBox="0 0 18 18"><path fill="#F0F3FA" d="M0 0h18v18H0z"/><path d="M9.84 11.67c-1.01.03-1.69-.38-2.22-1.11-.25.27-.47.55-.74.77a3 3 0 0 1-4.74-1.41 3.1 3.1 0 0 1 1.1-3.41c.6-.46 1.3-.56 2.04-.5 1.18.11 1.95.77 2.48 1.76l1.96 3.65.12.25ZM3.12 9c-.07 1.26 1.03 1.87 1.9 1.88a1.9 1.9 0 0 0 1.87-1.9C6.91 7.68 5.9 7.1 5 7.1c-1.08 0-1.92.9-1.88 1.91Z" fill="#3E007A"/><path d="M8.12 6.33a2.5 2.5 0 0 1 2.2 1.13l.25-.32c1.36-1.71 4.22-1.46 5.15.51a2.93 2.93 0 0 1-2.09 4.12 2.96 2.96 0 0 1-3.28-1.4C9.6 9.08 8.9 7.83 8.17 6.5l-.05-.17Zm6.78 2.58c-.01-1.09-.83-1.86-1.96-1.85a1.91 1.91 0 0 0-1.92 1.91c-.01 1.27 1.11 1.84 1.96 1.83a1.9 1.9 0 0 0 1.92-1.9Z" fill="#9C7CB8"/></svg>