<!-- by TradingView --><svg width="18" height="18" viewBox="0 0 18 18" xmlns="http://www.w3.org/2000/svg"><path fill="#F0F3FA" d="M0 0h18v18H0z"/><circle cx="9" cy="4" r="1" fill="url(#ag2x234pc)"/><path d="M7 4.1a2 2 0 0 0 1.03 1.65l-2.31 6.98A5.22 5.22 0 0 1 4 8.83 5.17 5.17 0 0 1 7 4.1Zm5.28 8.63-2.3-6.98A2 2 0 0 0 11 4.1c1.76.8 3 2.62 3 4.74 0 1.55-.66 2.94-1.72 3.9Zm-5.68.63L7.34 11h3.32l.74 2.36a4.86 4.86 0 0 1-4.8 0ZM10.34 10H7.66L9 5.75 10.34 10Z" fill="url(#bg2x234pc)"/><defs><linearGradient id="ag2x234pc" x1="8.38" y1="3" x2="9.52" y2="5" gradientUnits="userSpaceOnUse"><stop offset=".26" stop-color="#E6D937"/><stop offset=".8" stop-color="#E7A919"/></linearGradient><linearGradient id="bg2x234pc" x1="9" y1="4" x2="9" y2="14" gradientUnits="userSpaceOnUse"><stop stop-color="#010101"/><stop offset="1" stop-color="#184179"/></linearGradient></defs></svg>