<!-- by TradingView --><svg width="18" height="18" viewBox="0 0 18 18" xmlns="http://www.w3.org/2000/svg"><path fill="#F0F3FA" d="M0 0h18v18H0z"/><path d="M13 7.33h-1.66a2.11 2.11 0 0 0-2.16-1.75c-.49 0-.93.14-1.3.4-.39.26-.69.65-.9 1.16-.22.5-.33 1.13-.33 1.86 0 .74.11 1.37.33 1.88a2.29 2.29 0 0 0 2.2 1.54c.27 0 .53-.04.76-.12a2.04 2.04 0 0 0 1.13-.9c.13-.23.22-.45.27-.73H13a3.9 3.9 0 0 1-2.37 3.07c-.44.17-.93.26-1.47.26a3.91 3.91 0 0 1-3.62-2.31A6.15 6.15 0 0 1 5 9c0-1.05.18-1.95.55-2.69A3.9 3.9 0 0 1 9.16 4 3.77 3.77 0 0 1 13 7.33Z"/></svg>