<!-- by TradingView --><svg width="18" height="18" viewBox="0 0 18 18" xmlns="http://www.w3.org/2000/svg"><path fill="#F0F3FA" d="M0 0h18v18H0z"/><path d="M9.54 4.45C9.39 4.17 9.19 4 8.99 4c-.2 0-.4.18-.54.45-1.14 1.93-4.38 7.78-4.38 7.78a.58.58 0 0 0-.07.23v.1c0 .03.02.05.03.06a.5.5 0 0 0 .14.23l.05.04c.1.07.22.11.34.11h3.47c.08 0 .16-.02.23-.06.07-.04.12-.1.16-.16l.78-1.35c.01-.02 0-.03-.01-.03H6.66c-.03 0-.04-.03-.03-.05l2.34-4.18c0-.02.02-.02.03-.02.02 0 .03 0 .03.02l3.27 5.8.02.02h1.12c.13 0 .24-.04.34-.1l.05-.05a.5.5 0 0 0 .16-.28l.01-.07v-.03c-.03-.08-.04-.16-.09-.23 0 0-3.25-5.85-4.37-7.78Z" fill="url(#ap1d5kkbv)"/><defs><linearGradient id="ap1d5kkbv" x1="4" y1="13" x2="14" y2="13" gradientUnits="userSpaceOnUse"><stop offset=".3" stop-color="#0C0561"/><stop offset="1" stop-color="#02C2BB"/></linearGradient></defs></svg>