<!-- by TradingView --><svg width="18" height="18" viewBox="0 0 18 18" xmlns="http://www.w3.org/2000/svg"><path fill="#F0F3FA" d="M0 0h18v18H0z"/><path d="M3.25 12.38h1.33V12h.95v-.55h1.16l.08-.03c.21-.08.53-.2.58-.6h.33c0-.3.5-.92 1.26-.92s1.22.68 1.22.93h.42c.09.21.36.49.75.62h1.14V12h.95v.38h1.34L10.44 4H7.2l-3.95 8.38Zm5.09-3.72.62-1.4.67 1.4h-1.3Z" fill="#00583A"/><path d="M8.2 11.18c0-.11.06-.28.18-.42a.7.7 0 0 1 .56-.25v-.3a1 1 0 0 0-.8.35c-.11.14-.19.3-.22.44h-.35l-.03.12a.85.85 0 0 1-.34.44c-.15.1-.31.17-.42.2h-.94v.5H4.9v.43H3.15L3 13h2.21v-.43h.95v-.5h.66c.14-.04.36-.12.56-.26.16-.12.32-.28.41-.5h.38l.02-.13Zm1.49 0a.85.85 0 0 0-.2-.42.7.7 0 0 0-.55-.25v-.3a1 1 0 0 1 .79.35c.12.14.2.3.23.44h.35l.03.12c.05.18.18.33.34.44.15.1.31.17.42.2h1.06v.5h.95v.44h1.71l.18.3h-2.21v-.43h-.95v-.5h-.8a1.77 1.77 0 0 1-.54-.26 1.2 1.2 0 0 1-.42-.5H9.7l-.01-.13Z"/></svg>