<!-- by TradingView --><svg width="18" height="18" xmlns="http://www.w3.org/2000/svg"><path fill="#215796" d="M0 0h18v18H0z"/><path d="M15.992 10.992c-1.26-.23-4.3-1.155-4.3-1.155L15 7.815l-3.703.504 1.385-3.147-2.8 2.089L9.032 4l-.94 3.26-2.7-2.089 1.27 3.147L3 7.815l3 2.111s-2.71.832-4 1.066h13.992c.024 0-.018.016 0 0 .017-.016-.002.024 0 0s.015.019 0 0 .023.004 0 0z" fill="#FF9800"/><path d="M11.997 10.997c-.54-.1-1.843-.495-1.843-.495l1.417-.867-1.587.216.594-1.35-1.2.896L9.013 8l-.402 1.397-1.158-.895.545 1.349-1.57-.216 1.286.905s-1.161.357-1.714.457h5.997c.01 0-.008.007 0 0 .007-.007-.001.01 0 0 0-.01.006.008 0 0-.007-.008.01.001 0 0z" fill="#FBCE20"/></svg>