<!-- by TradingView --><svg width="18" height="18" viewBox="0 0 18 18" xmlns="http://www.w3.org/2000/svg"><path fill="#F0F3FA" d="M0 0h18v18H0z"/><path fill="#00A2A5" d="M4 7h4v1H4z"/><path d="M4 8.5h3v1H4v-1ZM11 8.5h3v1h-3v-1ZM8 8.5h2v1H8v-1Z" fill="#01BFF1"/><path fill="#F09927" d="M7 14v-3h1v3zM7 7V4h1v3zM7 10V8h1v2z"/><path fill="#EE4D23" d="M10 14v-3h1v3zM10 7V4h1v3zM10 10V8h1v2z"/><path fill="#0070B4" d="M4 10h4v1H4z"/><path fill="#00A2A5" d="M10 7h4v1h-4z"/><path d="M9.5 4v4h-1V4h1ZM9.5 10v4h-1v-4h1Z" fill="#66B444"/><path fill="#0070B4" d="M10 10h4v1h-4z"/></svg>