<!-- by TradingView --><svg xmlns="http://www.w3.org/2000/svg" width="18" height="18" viewBox="0 0 18 18"><path fill="#F0F3FA" d="M0 0h18v18H0z"/><path d="M7.26 4.18c.12-.3.4-1.24.54-1.68.22.34.94.93 1.27 1.19a5.13 5.13 0 0 1 1.75 2.1 4.96 4.96 0 0 1-.13 2.81c-.13.3-.45 1.38-.59 1.88-.2-.31-1.35-1.25-1.62-1.43C8.2 8.86 6.9 7.52 6.83 6.4c-.08-1.1.29-1.87.43-2.23Z" fill="#F4AF23"/><path d="M5.9 14.08c-.34.06-1.4.3-1.9.42.22-.34.44-1.19.53-1.57.1-.53.47-1.76 1.18-2.4a6.53 6.53 0 0 1 2.81-1.29c.35-.05 1.56-.34 2.12-.47-.2.31-.55 1.66-.6 1.96-.04.3-.7 1.97-1.75 2.58-1.04.6-1.97.7-2.39.77Z" fill="#4C5F71"/><path d="m10.64 8.78-1.95.43 1.4 1.3.55-1.73Z" fill="#2E334E"/><path d="M12.2 12.72c-.07.16-.23.69-.3.93a4.18 4.18 0 0 0-.7-.66 2.84 2.84 0 0 1-.97-1.16c-.2-.6-.02-1.35.07-1.56.07-.17.24-.76.32-1.04.12.18.75.7.9.8.15.1.87.84.91 1.45.04.61-.16 1.04-.24 1.24Z" fill="#F4AF23"/><path d="M12.95 7.24A25 25 0 0 0 14 7c-.12.18-.25.65-.3.87-.05.29-.25.97-.65 1.32-.49.44-1.3.68-1.55.72-.2.03-.87.18-1.18.26.12-.18.3-.92.33-1.09.03-.17.4-1.09.97-1.43.58-.33 1.1-.39 1.33-.42Z" fill="#4C5F71"/><path d="m10.33 10.17 1.08-.23-.78-.72-.3.95Z" fill="#2E334E"/></svg>