<!-- by TradingView --><svg width="18" height="18" viewBox="0 0 18 18" xmlns="http://www.w3.org/2000/svg"><path fill="#F0F3FA" d="M0 0h18v18H0z"/><path d="M5.58 9.56 7.77 4.3A.52.52 0 0 1 8.24 4h1.3l.36 1.79-1.38 4a.31.31 0 0 1-.3.21H5.87a.32.32 0 0 1-.28-.44Z" fill="url(#al5xobaep)"/><path d="M13.61 13H4.42a.42.42 0 0 1-.33-.16c-.19-.24.04-.55.23-.79l.47-.6c.13-.18.25-.44.47-.45h4.42c.18 0 .3-.16.32-.31 0-.05 0-.1-.02-.14L7.76 4.7a.51.51 0 0 1-.04-.2c.01-.27.23-.51.53-.51h1.79c.12 0 .24.08.29.2l3.58 8.37c.08.2-.07.43-.3.43Z" fill="url(#bl5xobaep)"/><defs><linearGradient id="al5xobaep" x1="5.59" y1="9.9" x2="9.95" y2="9.9" gradientUnits="userSpaceOnUse"><stop offset=".29" stop-color="#E52629"/><stop offset=".62" stop-color="#BD222F"/></linearGradient><linearGradient id="bl5xobaep" x1="4.09" y1="13" x2="14.05" y2="13" gradientUnits="userSpaceOnUse"><stop offset=".2" stop-color="#E62629"/><stop offset=".79" stop-color="#BD222F"/></linearGradient></defs></svg>