<!-- by TradingView --><svg width="18" height="18" viewBox="0 0 18 18" xmlns="http://www.w3.org/2000/svg"><path fill="#F0F3FA" d="M0 0h18v18H0z"/><path d="M8.34 10.75c0 .8.18 1.56.49 2.25h3.16c1.55 0 2.51-1.64 1.74-2.95L11.28 5.9a5.52 5.52 0 0 0-2.94 4.86Z" fill="#FFA497"/><path d="M5.9 8.7c2.38 0 4.3-1.88 4.3-4.2v-.1a2.03 2.03 0 0 0-2.94.58L5.11 8.63c.26.05.52.08.8.08Z" fill="#E56B59"/><path d="M8.2 12.6a3.72 3.72 0 0 0-3.27-3.65l-.66 1.1C3.5 11.36 4.47 13 6.01 13h2.17c.02-.13.03-.26.03-.4Z" fill="#D32737"/></svg>