<!-- by TradingView --><svg width="18" height="18" viewBox="0 0 18 18" xmlns="http://www.w3.org/2000/svg"><path fill="#F0F3FA" d="M0 0h18v18H0z"/><path d="M9.19 11.97c-1.02 0-1.96.81-2.51 1.45a5.03 5.03 0 0 0 4.06.28c-.53-.44-1.2-1.27-1.55-1.73ZM7.58 4.21c-.92 1.91-2.22 5.09-2.33 8.08a5 5 0 0 1 2.34-8.08ZM14.06 9c0 1.48-.65 2.82-1.68 3.73a2.77 2.77 0 0 1-.84-2.48c.23-1.33 1.38-2.6 2.1-3.23.27.6.42 1.28.42 1.98Z" fill="#68216D"/><path d="M11.94 7.37c-1.96 1.06-4.37 2.74-5.11 4.6-.1-1.1 0-3.63 1.26-5 .1.26.34.84.47 1.1l1.1-.63a6.9 6.9 0 0 1-1.1-3.42L9.02 4c1.76 0 3.31.9 4.21 2.27A5.24 5.24 0 0 1 15 6.19c-1.02.25-1.73.5-3.06 1.18Z" fill="#68216D"/></svg>