<!-- by TradingView --><svg xmlns="http://www.w3.org/2000/svg" width="18" height="18"><path fill="#959595" d="M0 0h18v18H0z"/><path d="M4.44 4.62l4.92-.61a.5.5 0 01.24.03l4.09 1.63a.5.5 0 01.31.47v6.25a.5.5 0 01-.4.48l-4.9 1.1a.5.5 0 01-.34-.04l-4.09-2.1A.5.5 0 014 11.4V5.12a.5.5 0 01.44-.5zM9.63 6.5l-1 .18c-.08.03-.23.15-.25.44v3.92l1-.17a.47.47 0 00.25-.42V6.5z" fill="#DDD"/><path d="M9.63 4.59c-.01-.4-.3-.54-.4-.56.15-.04.3-.03.33-.02l4.22 1.7-4.15.78v-1.9zm-1.26 8.94v-2.5c-1.13.2-3.63.6-3.9.64-.28.03-.43-.12-.47-.23 0 .18.05.27.17.35l4.12 2.1c.21.15.3.11.4.09-.3-.03-.32-.32-.32-.45z" fill="#CECECE"/><path d="M8.38 7.13c.01-.3.17-.42.26-.46L4.31 4.64c-.2 0-.31.17-.31.33l4.38 2.16zM9.6 10.6a.45.45 0 01-.2.25l4.29 2c.3-.04.31-.28.31-.46l-4.4-1.8z" fill="#EBEBEB"/></svg>