<!-- by TradingView --><svg xmlns="http://www.w3.org/2000/svg" width="18" height="18"><path fill="url(#ayci3b40w)" d="M0 0h18v18H0z"/><path d="M7.62 5.34a.5.5 0 000 .5l4.04 6.91a.5.5 0 00.44.25h1.65a.5.5 0 00.44-.75l-4.84-8.5a.5.5 0 00-.87.01l-.86 1.58zM6.36 13.5c1.16 0 2.1-.96 2.1-2.14 0-1.5-2.1-4.11-2.1-4.11s-2.1 2.56-2.1 4.11c0 1.18.94 2.14 2.1 2.14z" fill="#fff"/><defs><linearGradient id="ayci3b40w" x1="0" y1="9" x2="18" y2="9" gradientUnits="userSpaceOnUse"><stop stop-color="#5CCAD9"/><stop offset="1" stop-color="#E3D325"/></linearGradient></defs></svg>