<!-- by TradingView --><svg width="18" height="18" viewBox="0 0 18 18" xmlns="http://www.w3.org/2000/svg"><path fill="#F0F3FA" d="M0 0h18v18H0z"/><path d="M6.65 7.95c-.97.4-1.87.96-2.65 1.66a.15.15 0 0 1 .04-.12A6.15 6.15 0 0 1 7 7.03.12.12 0 0 0 7 6.98c.45-1.3.95-2.57 1.4-3.86.01-.04.03-.07.06-.1.04-.02.11-.02.11-.02h1.08s.06 0 .1.02l.05.08 1.43 3.3a.19.19 0 0 0 .15.11c.52.12 1.03.27 1.53.45a4.5 4.5 0 0 1 1.08.5c-.84-.17-1.7-.27-2.55-.33L12.11 9h-1.1c-.07 0-.07-.05-.08-.09-.19-.56-.36-1.04-.54-1.61-.03-.09-.06-.13-.16-.13a9.83 9.83 0 0 0-2.25.24.12.12 0 0 0-.1.1c-.15.5-.3.9-.45 1.4-.02.06-.05.1-.12.09h-.95s-.07-.03-.05-.1l.32-.86.02-.1Zm1.6-1.39c.57-.14 1.16-.2 1.74-.18.1 0 .1-.03.07-.1l-.55-1.4-.39-1-.03.08-.83 2.52c0 .02-.04.06 0 .08h-.01Z" fill="#00893C"/><path d="M6.24 15a3 3 0 0 1 1.27-2.5 3.05 3.05 0 0 1-1.27-2.43c0-.05 0-.07.07-.07h1.04c.1 0 .09.05.09.1 0 .26.07.52.18.76.12.24.29.45.5.63a1.68 1.68 0 0 0 1.9.16c.2-.12.36-.27.48-.45.24-.32.38-.69.39-1.07 0-.1.03-.13.14-.13H12c.08 0 .1.02.1.1 0 .45-.11.89-.32 1.3-.2.4-.5.76-.88 1.04-.07.06-.06.07 0 .12a3 3 0 0 1 1.2 2.44h-1.2v-.05c0-.47-.18-.92-.5-1.27a1.52 1.52 0 0 0-.72-.48c-.28-.09-.59-.1-.88-.03-.27.07-.51.19-.72.36-.2.17-.36.39-.46.63-.11.26-.18.56-.19.84H6.24Z" fill="#013E7D"/><path d="M8 9.52c-.01-.3.1-.58.3-.8a1.18 1.18 0 0 1 1.55-.16c.22.15.37.37.44.63.08.28.05.58-.08.84a1.2 1.2 0 0 1-.64.57 1.2 1.2 0 0 1-1.35-.4A1.1 1.1 0 0 1 8 9.51Z" fill="#013E7D"/></svg>