<!-- by TradingView --><svg width="18" height="18" viewBox="0 0 18 18" xmlns="http://www.w3.org/2000/svg"><path fill="#F0F3FA" d="M0 0h18v18H0z"/><circle cx="9.88" cy="8.13" r="1.88" fill="#61708F"/><path d="M10.55 15a5.54 5.54 0 0 0-.54-7.47A4.76 4.76 0 0 0 3 8.1l.76.7a3.81 3.81 0 0 1 5.6-.47 4.44 4.44 0 0 1 .44 5.98l.75.69Z" fill="url(#alxqgbv53)"/><path d="M12.32 10A3.17 3.17 0 0 0 12 5.73 2.72 2.72 0 0 0 8 6.06l.43.4a2.18 2.18 0 0 1 3.2-.27c.96.87 1.07 2.4.25 3.42l.44.39Z" fill="#61708F"/><defs><linearGradient id="alxqgbv53" x1="9.23" y1="7.42" x2="5.52" y2="10.89" gradientUnits="userSpaceOnUse"><stop stop-color="#61708F"/><stop offset="1" stop-color="#61708F" stop-opacity="0"/></linearGradient></defs></svg>