<!-- by TradingView --><svg xmlns="http://www.w3.org/2000/svg" width="18" height="18" viewBox="0 0 18 18"><path fill="#F0F3FA" d="M0 0h18v18H0z"/><path d="M6.67 11.62c0 .21-.15.38-.33.38a.33.33 0 0 1-.3-.24L5.6 10.5H3.07l-.43 1.26a.32.32 0 0 1-.3.24c-.2 0-.34-.17-.34-.37l.03-.15L3.81 6.4c.09-.24.29-.4.53-.4.24 0 .44.16.52.4l1.78 5.07.03.14zM5.47 10L4.33 6.7 3.22 10h2.24zM8 11.6V6.38c0-.2.14-.37.32-.37.16 0 .35.17.35.37v4.88h2.04c.15 0 .29.24.29.42s-.14.33-.29.33H8.33c-.21 0-.33-.14-.33-.4zM15.05 6.35c.12-.21.23-.35.5-.35.23 0 .3.1.3.22 0 .09-.04.18-.13.32l-1.45 2.3 1.6 2.6c.1.15.13.24.13.32 0 .14-.1.24-.34.24-.27 0-.38-.13-.5-.36L13.8 9.37l-1.34 2.28c-.12.21-.24.35-.5.35-.22 0-.3-.1-.3-.22 0-.1.04-.18.14-.33l1.61-2.59-1.41-2.3c-.1-.15-.14-.24-.14-.33 0-.14.1-.23.33-.23.27 0 .38.12.52.36l1.14 1.98 1.2-2z" fill="#B8024A"/></svg>