<!-- by TradingView --><svg width="18" height="18" xmlns="http://www.w3.org/2000/svg"><path fill="#2D578B" d="M0 0h18v18H0z"/><path opacity=".2" d="M10.28 11.904c-.487 1.111-1.948 2.025-3.27 2.025-1.32 0-1.992-.902-1.515-2.025 1.223-2.812 4.623-5.115 4.623-5.115s1.419 2.234.163 5.115z" fill="#fff"/><path d="M11.74 4s-4.958 3.738-6.528 7.337c-.618 1.412.162 2.558 1.732 2.58-1.375-.022-2.024-1.04-1.472-2.302C6.87 8.398 11.037 5.46 11.037 5.46s.961 2.82-.468 6.106c-.552 1.273-2.152 2.352-3.57 2.352 1.612 0 3.42-1.157 4.038-2.581C12.65 7.657 11.74 4 11.74 4z" fill="#fff"/><path opacity=".6" d="M11.06 5.412s-4.19 2.986-5.598 6.203c-.411.937-.14 1.747.596 2.106-.66-.324-.91-1.018-.563-1.817 1.223-2.812 4.623-5.115 4.623-5.115s1.418 2.234.162 5.115c-.303.694-.985 1.308-1.786 1.678.91-.405 1.71-1.134 2.068-1.967 1.44-3.287.498-6.203.498-6.203z" fill="#fff"/><path d="M9.575 8.259s-2.63 1.782-3.692 4.05c-.422.903.022 1.655.996 1.69.975.034 2.101-.66 2.523-1.563.812-1.724-.411-1.759.173-4.177zm-2.923 5.15c-1.137-.244.292-1.99.292-1.99-.758 1.434-.292 1.99-.292 1.99z" fill="#2D578B"/></svg>