<!-- by TradingView --><svg width="18" height="18" viewBox="0 0 18 18" xmlns="http://www.w3.org/2000/svg"><path fill="#00305E" d="M0 0h18v18H0z"/><path d="M14 11c0 1.58-1.4 3-3 3v1a3.8 3.8 0 0 0 4-4 4.08 4.08 0 0 0-4-4v1c1.6.01 3 1.42 3 3ZM4 7h1v1H4V7ZM6 9h2v1H6V9ZM9 12h1v1H9v-1ZM6 7h4v1H6V7Z" fill="#FAFFFF"/><path d="M11 9H9v1h2c.5 0 1 .25 1 1s-.5 1-1 1v1c1 0 2-.5 2-2.05C13 9.63 12 9 11 9Z" fill="#FAFFFF"/><path d="M7 5C5.5 5 5 6 5 7v1.86L6 10V7c0-.5.33-1 1-1 .67 0 1 .5 1 1h1c0-1-.5-2-2-2ZM11 15l-1-1.24V10h1v5Z" fill="#E68A2A"/><path d="M11 6.96C10.97 4.74 9.5 3 7 3S3.03 4.78 3 6.96L4 8V6.96A3.05 3.05 0 0 1 7 4a3.16 3.16 0 0 1 3 2.96V9h1V6.96Z" fill="#E68A2A"/><path d="m9 13-1-1.24V8h1v5Z" fill="#E68A2A"/></svg>