<!-- by TradingView --><svg width="18" height="18" viewBox="0 0 18 18" xmlns="http://www.w3.org/2000/svg"><path fill="#F0F3FA" d="M0 0h18v18H0z"/><path d="M5.28 13.7a5.96 5.96 0 0 0 7.39.04l-1.21-3.06a6.27 6.27 0 0 0-2.43-.48c-1.1 0-2.09.3-2.58.5l-1.17 3Zm8.48-1.06A6.02 6.02 0 0 0 9.83 3l3.93 9.64ZM8.14 3a6.02 6.02 0 0 0-3.94 9.58L8.14 3Zm.9 6c-.8 0-1.53.1-2 .2l1.9-4.86 1.94 4.9A7.4 7.4 0 0 0 9.03 9Z" fill="url(#a4iqqzwt5)"/><defs><linearGradient id="a4iqqzwt5" x1="9" y1="3" x2="9" y2="15" gradientUnits="userSpaceOnUse"><stop stop-color="#3C7FBF"/><stop offset=".44" stop-color="#209FD5"/><stop offset="1" stop-color="#F4DB0C"/></linearGradient></defs></svg>