<!-- by TradingView --><svg width="18" height="18" viewBox="0 0 18 18" xmlns="http://www.w3.org/2000/svg"><path fill="#F0F3FA" d="M0 0h18v18H0z"/><circle cx="9" cy="9" r="6" fill="#919395"/><circle cx="9" cy="9" r="5.29" fill="#0E97D4"/><path fill-rule="evenodd" d="M3.1 8.87c0-.11.06-.37.28-.54 0-.06.44-.44.66-.63-.13 0-.39-.03-.43-.14.1-.1.41-.32.93-.32 1.04-1.15 3.19-3.54 3.5-3.98.4-.56.7-.07.72.11 0 .2-.2 1.17-.98 3.42l.27-.06.14-.48c.03-.11.16-.3.42-.17.32.16.32.3.33.44v.01l.39 2.9 2.11-2.9c.05-.07.2-.2.46-.16.33.06.36.11.31.36l-.46 1.54.36-.08c.04-.12.18-.37.43-.34.25.02.3.21.28.3.73-.01 2.16.36 2.08 1.96-.08 1.6-2.33 1.97-3.45 1.95l-.98 2.8c-.19.09-.56.19-.6-.17l1-2.7-.21-.05c0 .28-.1.8-.47.6-.36-.2-.21-.75-.1-1l1.33-4-2.02 2.64c-.15.16-.46.38-.53-.07-.1-.92-.3-2.78-.4-2.85l-1.44 4.18c-.02.08-.05.26 0 .37.07.13.03.5-.42.54-.46.04-.44-.41-.38-.61l.65-1.56c-.08-.08-.2-.34-.11-.8l.47-2.2c-.56.07-1.8.26-2.23.44l-1.19.97c.05.16.03.51-.44.6-.47.1-.38-.17-.28-.32Zm2.14-1.69 2.67-2.8-.59 2.47-2.08.33Zm2.44-.06.28-.04-.64 1.89.36-1.85Zm4.38 1.3h-.37l-.93 2.84.38-.1.92-2.74Zm.63.36c.52.06 1.52.43 1.34 1.4-.21 1.23-2 1.49-2.45 1.44a2 2 0 0 1 .15-.36c.33-.16.8-.45.12-.34l.84-2.14Z" fill="#F0F3FA"/></svg>