<!-- by TradingView --><svg xmlns="http://www.w3.org/2000/svg" width="18" height="18"><path fill="#F0F3FA" d="M0 0h18v18H0z"/><path d="M7.54 14.19l-.05-.02-3.52-1.8c-.37-.18-.37-.51 0-.7l4.35-2.23c.37-.19 1-.19 1.36 0l4.13 2.1.22.11c.37.2.37.52 0 .7l-3.45 1.78-.08.04c-1.12.64-1.85.53-2.96.02z" fill="#CCC"/><path d="M13.17 4.54l.18.1c.34.17.34.43 0 .6l-3.03 1.5-.07.03c-.33.17-.6.6-.59.96v4.33c0 .36.3.53.64.36l3.07-1.54c.34-.17.63-.6.63-.97V5.6s-.02-.64-.61-.96m-8.77-.01c-.33.16-.33.43 0 .6l3.06 1.5.05.02c.34.17.6.6.6.97v4.3c0 .37-.26.53-.6.37l-3.1-1.53c-.33-.17-.63-.6-.63-.96V5.57s-.02-.59.56-.91m3.96.86l-1.2-.57c-.14-.06-.14-.16 0-.22l1.47-.69a.57.57 0 01.46 0l1.4.65.07.04c.13.06.13.16 0 .22l-1.17.56c-.37.2-.66.17-1.03.01z" fill="#E73B29"/></svg>