<!-- by TradingView --><svg width="18" height="18" viewBox="0 0 18 18" xmlns="http://www.w3.org/2000/svg"><path fill="#F0F3FA" d="M0 0h18v18H0z"/><path fill-rule="evenodd" d="M7.03 4.14a2.27 2.27 0 0 1 3.94 0l3.72 6.45A2.27 2.27 0 0 1 12.73 14H5.27a2.27 2.27 0 0 1-1.96-3.4l3.72-6.46Zm.45.48a1.73 1.73 0 0 1 3.06 0l.43.77L9 8.76 7.44 6.14c-.22-.4-.17-1-.02-1.42l.06-.1ZM6.73 6l-1.9 3.22A1 1 0 0 1 5.45 9h2.87L6.95 6.68A1.65 1.65 0 0 1 6.73 6ZM4.3 10.16l-.38.85c-.6 1.06.07 2.28 1.3 2.28h1.2l2-3.55H5.37c-.22 0-.63.08-1.06.42Zm2.9 3.13h3.67c-.1-.12-.25-.24-.46-.6l-1.41-2.6-1.8 3.2Zm4.64 0h.91c1.22 0 1.93-1.16 1.34-2.23l-.48-1.02-1.77 3.25ZM13.08 9l-1.74-2.94L9.59 9h3.49Zm-3.5.74 1.4 2.58c.08.13.23.38.4.6l1.7-3.18h-3.5Z" fill="#67C08F"/></svg>