<!-- by TradingView --><svg width="18" height="18" viewBox="0 0 18 18" fill="none" xmlns="http://www.w3.org/2000/svg">
<rect width="18" height="18" fill="#F0F3FA"/>
<path d="M6.75478 7.79598C5.96931 5.88927 6.45947 4.07583 8.04874 3.00474C8.05216 3.00237 8.05599 3.00085 8.05997 3.00027C8.06395 2.99969 8.06799 3.00006 8.07184 3.00135C8.07569 3.00265 8.07924 3.00485 8.08228 3.00781C8.08532 3.01076 8.08777 3.01441 8.08947 3.0185C8.86204 4.92903 8.40312 6.731 6.79552 7.80974C6.77741 7.82197 6.76384 7.81738 6.75478 7.79598Z" fill="#094975"/>
<path d="M12.46 8.66984C13.9391 9.46647 14.6497 11.023 14.9988 12.669C15.0017 12.6829 14.9999 12.6974 14.9938 12.7099C14.9877 12.7225 14.9778 12.7323 14.9656 12.7378C13.4779 13.4167 11.8405 13.3602 10.4974 12.3525C9.98752 11.9708 9.48102 11.5834 8.97789 11.1905C7.715 10.2027 6.38994 9.83267 4.85163 9.70347C4.82079 9.70092 4.81693 9.68894 4.84007 9.66753C6.98705 7.6882 9.91331 7.29753 12.46 8.66984Z" fill="#7FBD42"/>
<path d="M10.6507 13.9527C7.88535 14.263 5.07333 13.0238 3.00794 10.9244C3.00445 10.9208 3.00195 10.916 3.00077 10.9107C2.99959 10.9054 2.99977 10.8998 3.00131 10.8946C3.00284 10.8895 3.00565 10.885 3.00937 10.8817C3.01309 10.8784 3.01757 10.8765 3.02221 10.8762C5.95986 10.6759 8.53447 11.6894 10.746 13.9167C10.7499 13.9207 10.7526 13.9259 10.754 13.9317C10.7553 13.9375 10.7552 13.9436 10.7536 13.9493C10.752 13.955 10.749 13.96 10.745 13.9638C10.741 13.9675 10.7362 13.9697 10.7311 13.9702C10.7173 13.9718 10.7056 13.9695 10.6961 13.9634C10.6818 13.9542 10.6667 13.9506 10.6507 13.9527Z" fill="#7FBD42"/>
</svg>
