<!-- by TradingView --><svg width="18" height="18" xmlns="http://www.w3.org/2000/svg"><path fill="#0A4D93" d="M0 0h18v18H0z"/><path d="M9 4C5.688 4 3 6.234 3 8.996 3 11.758 5.688 14 9 14s6-2.242 6-5.004C15 6.234 12.312 4 9 4z" fill="#fff"/><path d="M9.73 11.037c.034-.032-.01-.037.086-.04H11V10H8.794L7.29 13h1.505l.936-1.963z" fill="#0A4D93"/><path d="M11.276 6c-.173.004-.366.076-.568.203-.505.32-1.405 2.231-1.546 2.797.16 0 1.406-.01 1.453 0l.66-1.566 2.364 4.853c.003-.003.004-.006.008-.008.033-.018.07-.035.1-.055l.009-.008c.197-.234.614-.83.718-.96.108-.135.072-.152-.008-.301a9.909 9.909 0 01-.16-.31 36.064 36.064 0 01-.308-.642c-.397-.844-.78-1.72-1.22-2.545-.306-.577-.755-1.474-1.502-1.458z" fill="#0A4D93"/></svg>