<!-- by TradingView --><svg width="18" height="18" viewBox="0 0 18 18" xmlns="http://www.w3.org/2000/svg"><path fill="#F0F3FA" d="M0 0h18v18H0z"/><path d="M11.54 7.69c.32 0 .59-.29.59-.63 0-.35-.27-.63-.6-.63-.32 0-.58.28-.58.63 0 .34.26.63.59.63ZM10.72 11.38c.17 0 .31-.15.31-.34 0-.18-.14-.33-.31-.33-.17 0-.31.15-.31.33 0 .19.14.34.31.34Z" fill="#733641"/><path d="M8.57 5c-.7 0-1.38.21-1.97.62-.58.4-1.05.97-1.34 1.65l-.24.56c.17.77.96 1.59 2.19 2.13l.4.17a.76.76 0 0 1 .26-.3.7.7 0 0 1 .9.14l.6-.52c.55-.53 1.04-1.13 1.47-1.78a1.02 1.02 0 0 1 .05-1.33.89.89 0 0 1 .82-.27c.15-.35.28-.7.4-1.07H8.57Z" fill="#733641"/><path d="M8.24 10.96c.24 0 .43-.2.43-.45s-.2-.46-.43-.46c-.23 0-.42.2-.42.46 0 .25.19.45.42.45ZM7.51 10.5v-.06a9.1 9.1 0 0 1-.42-.17c-1.22-.54-2-1.24-2.26-2l-1.4 3.26c.41.33 1.28.46 2.22.18.67-.21 1.32-.5 1.92-.89a.83.83 0 0 1-.06-.31ZM14.64 5h-2.07c-.13.43-.29.85-.47 1.25a1.04 1.04 0 0 1 .1 1.47.86.86 0 0 1-1.03.2 10.93 10.93 0 0 1-2.21 2.43l.01.16v.04c.39.1.8.17 1.23.23a.6.6 0 0 1 .2-.27.54.54 0 0 1 .68.04c.1.08.17.2.2.34.44.03.9.05 1.36.05l.1-.21 2.23-5.18a.41.41 0 0 0-.03-.37.37.37 0 0 0-.13-.13.34.34 0 0 0-.17-.05Z" fill="#733641"/><path d="M11.25 11.24a.6.6 0 0 1-.2.28.54.54 0 0 1-.7-.04.62.62 0 0 1-.2-.37c-.43-.06-.86-.14-1.26-.24a.77.77 0 0 1-.27.3.7.7 0 0 1-.8 0c-.64.4-1.34.72-2.06.95-.42.13-.85.2-1.28.2-.52 0-.94-.12-1.23-.37l-.22.5a.41.41 0 0 0 .03.37c.03.06.07.1.13.13.05.03.11.05.17.05h6.07c.6 0 1.18-.16 1.7-.45.53-.3.98-.73 1.31-1.26-.4 0-.8-.02-1.19-.05Z" fill="#733641"/></svg>