<!-- by TradingView --><svg xmlns="http://www.w3.org/2000/svg" width="18" height="18"><path fill="#FF6000" d="M0 0h18v18H0z"/><path d="M13.8 8.58A5.2 5.2 0 013.66 10.1 5.71 5.71 0 0015 9.27c0-2.9-2.15-5.31-4.94-5.68a5.2 5.2 0 013.75 5zm-1.44-1.8c.26.55.4 1.14.4 1.72a3.8 3.8 0 01-3.72 4.06 3.3 3.3 0 002.73-4.36 3.1 3.1 0 00-.61-1.01 3.17 3.17 0 00-2.58-.95c-1.75.2-2.96 1.86-2.71 3.73.1.87.52 1.63 1.1 2.17a3.67 3.67 0 01-1.51-1.51 3.66 3.66 0 01.33-4c.11-.17.25-.34.4-.5a3.86 3.86 0 00-1.63 3.8 4.22 4.22 0 017.8-3.15z" fill="#fff"/></svg>