<!-- by TradingView --><svg xmlns="http://www.w3.org/2000/svg" width="18" height="18" viewBox="0 0 18 18"><path fill="#10059F" d="M0 0h18v18H0z"/><path d="M6.21 8.48c.61-1.87 1.28-3.56 1.64-3.46.45.12 1 1.93 1.39 3.5a319.1 319.1 0 0 0-3.03-.04zm-1.24 1l-.48 1.84c-.05.21.08.42.3.48.23.05.46-.08.52-.29.16-.6.37-1.3.59-2.03h3.56l.1.48c.3 1.35 1.19 4.04 2.28 4.04 1.1 0 1.86-2.36 2.1-3.53l.02-.23a.16.16 0 0 0-.14-.17.17.17 0 0 0-.19.1l-.6 1.6c-.12.4-.47 1.2-.95 1.2s-1-1.72-1.2-2.58a29.6 29.6 0 0 0-.22-.91h3.94c.22 0 .4-.17.4-.38a.37.37 0 0 0-.34-.37c-.89-.09-2.48-.15-4.26-.19C9.78 6.44 8.83 4 7.9 4c-1.2 0-2.15 2.47-2.47 3.71l-.2.76h-1.7c-.3 0-.54.23-.54.5 0 .28.24.51.54.51h1.43z" fill="#fff"/></svg>