<!-- by TradingView --><svg width="18" height="18" viewBox="0 0 18 18" xmlns="http://www.w3.org/2000/svg"><path fill="url(#acz2ygwnv)" d="M0 0h18v18H0z"/><path d="M10.2 6.17c0 .64-.54 1.16-1.2 1.16-.66 0-1.2-.52-1.2-1.16C7.8 5.52 8.34 5 9 5c.66 0 1.2.52 1.2 1.17Zm2.4 2.33c0 .64-.54 1.17-1.2 1.17-.22 0-.43-.06-.61-.16l-.76.73c.1.17.17.38.17.6 0 .64-.54 1.16-1.2 1.16-.66 0-1.2-.52-1.2-1.17 0-.21.06-.42.17-.59l-.76-.73c-.18.1-.39.16-.61.16-.66 0-1.2-.53-1.2-1.17 0-.64.54-1.17 1.2-1.17.66 0 1.2.53 1.2 1.17 0 .22-.06.42-.17.6l.76.73a1.22 1.22 0 0 1 1.22 0l.76-.74c-.1-.17-.17-.37-.17-.59 0-.64.54-1.17 1.2-1.17.66 0 1.2.53 1.2 1.17Zm-7.2 2.33c0 .65-.54 1.17-1.2 1.17-.66 0-1.2-.52-1.2-1.17 0-.64.54-1.16 1.2-1.16.66 0 1.2.52 1.2 1.16ZM13.8 12c.66 0 1.2-.52 1.2-1.17 0-.64-.54-1.16-1.2-1.16-.66 0-1.2.52-1.2 1.16 0 .65.54 1.17 1.2 1.17Z" fill="#D1372C"/><defs><linearGradient id="acz2ygwnv" x1="3.35" y1="3.12" x2="21.9" y2="24.43" gradientUnits="userSpaceOnUse"><stop stop-color="#1A1E21"/><stop offset="1" stop-color="#06060A"/></linearGradient></defs></svg>