<!-- by TradingView --><svg xmlns="http://www.w3.org/2000/svg" width="18" height="18" viewBox="0 0 18 18"><path fill="#F0F3FA" d="M0 0h18v18H0z"/><path d="M7.15 6.65l.8 1c.09.05.34.15.68.12a5.14 5.14 0 0 0 2.08-.73A3.27 3.27 0 0 0 12 5.84V5h-.88l-.08.1c-.25.29-.68.79-1.27 1.05-.83.37-1.65.73-2.62.5zM4 5.45v1.31c1.27-.75 2.22-.57 2.54-.39-.3-.57-.8-1.04-1.3-1.07-.4-.03-1 .1-1.24.16zm0 4.11v-1.3c.6-.56 1.8-1.1 2.6-1.1s1.3.8 1.46 1.2a2.25 2.25 0 0 0-1.76-.17A8.3 8.3 0 0 0 4 9.56zM4 13v-1.7l.23-.22c.84-.8 2.22-2.12 3.62-2 0 0 .75-.03 1.52 1.09-.4-.21-1.47-.35-2.7.4C5.47 11.3 4.37 12.47 4 13zm5.33-3.38l-.8-1c.96.23 1.79-.13 2.61-.5A5.1 5.1 0 0 0 12.66 7h.92v.8c-.15.22-.66.76-1.5 1.22a5.14 5.14 0 0 1-2.07.72c-.35.04-.6-.07-.68-.12zm.62.95l.8.99c.08.05.34.16.68.12a5.14 5.14 0 0 0 2.08-.72c.84-.46 1.34-1 1.49-1.21V9h-.92c-.23.26-.85.77-1.51 1.07-.83.36-1.66.72-2.62.5z" fill="#2DAD6E"/></svg>