<!-- by TradingView --><svg xmlns="http://www.w3.org/2000/svg" width="18" height="18"><path fill="#F0F3FA" d="M0 0h18v18H0z"/><path fill-rule="evenodd" d="M3.13 11.15c.67 1.7 3.85 2.13 7.1.94 3.24-1.18 5.32-3.53 4.64-5.24-.67-1.7-3.85-2.13-7.1-.94-3.24 1.18-5.32 3.53-4.64 5.24zm.54-.73c.5 1.28 3.2 1.47 6.04.44 2.83-1.04 4.72-2.91 4.22-4.19-.5-1.27-3.21-1.46-6.05-.43-2.83 1.04-4.72 2.91-4.21 4.18z" fill="#0265A5"/><path fill-rule="evenodd" d="M8.2 14.98c1.88.24 3.77-2.25 4.22-5.55.44-3.31-.72-6.18-2.61-6.42-1.89-.23-3.78 2.26-4.23 5.56-.44 3.31.72 6.18 2.61 6.41zm-.41-.8c1.4.18 2.86-2.02 3.25-4.9.39-2.9-.44-5.37-1.84-5.55-1.41-.18-2.87 2.02-3.26 4.91-.39 2.89.44 5.37 1.85 5.54z" fill="#01853F"/><path d="M6.21 11.52c-.3 0-.59-.03-.7-.05l.2 1.23c.22.04.6.06.8.06l-.3-1.24z" fill="#0265A5"/></svg>