<!-- by TradingView --><svg xmlns="http://www.w3.org/2000/svg" width="18" height="18"><path fill="#F0F3FA" d="M0 0h18v18H0z"/><path d="M14 11.4V4H6.56C5.03 4 4 5 4 6.63V14h7.47c1.5 0 2.53-1.03 2.53-2.6z" fill="url(#ay0xne4ek)"/><path d="M10.98 7.45l-1.08.98c-.57-1.03-.24-1.74 0-1.97l1.14-1.11c.32-.24.67-.34.96-.35.44 0 .81.17 1 .32l-1 .99c-.72-.34-1.14-.3-1.26-.24-.2.5.08 1.12.24 1.38z" fill="url(#by0xne4ek)"/><path d="M11.03 7.56l1.08-.98c.58 1.03.24 1.74 0 1.97L10.94 9.7c-.32.24-.63.3-.92.31-.45 0-.83-.16-1.02-.3l1.02-1c.7.34 1.13.3 1.26.24.2-.5-.09-1.12-.25-1.38z" fill="url(#cy0xne4ek)"/><path d="M6.79 13c-.37 0-.68-.11-.93-.36a1.34 1.34 0 01-.36-.98c0-.48.16-.84.49-1.08.33-.24.8-.3 1.4-.3.12 0 .37-.03.6 0 0-.75-.6-.8-.89-.8-.42 0-.65.06-1.1.17v-.83c.36-.2.76-.29 1.34-.29 1.17 0 1.66.6 1.66 1.81V13H7.99v-.48s-.3.48-1.2.48zm.31-.73c.6 0 .8-.31.89-.54v-.7c-.37 0-1.47-.08-1.47.63 0 .26.19.6.58.6z" fill="#fff"/><defs><linearGradient id="ay0xne4ek" x1="5.44" y1="15.19" x2="17.25" y2=".94" gradientUnits="userSpaceOnUse"><stop offset=".21" stop-color="#185DAA"/><stop offset=".78" stop-color="#019BD9"/></linearGradient><linearGradient id="by0xne4ek" x1="10.31" y1="5.98" x2="11.92" y2="7.5" gradientUnits="userSpaceOnUse"><stop stop-color="#fff"/><stop offset=".84" stop-color="#0A82C6"/></linearGradient><linearGradient id="cy0xne4ek" x1="11.7" y1="9.03" x2="10.09" y2="7.51" gradientUnits="userSpaceOnUse"><stop stop-color="#fff"/><stop offset=".84" stop-color="#0A82C6"/></linearGradient></defs></svg>