<!-- by TradingView --><svg xmlns="http://www.w3.org/2000/svg" width="18" height="18" viewBox="0 0 18 18"><path fill="url(#ai31txpkn)" d="M0 0h18v18H0z"/><path d="M9.01 14a.47.47 0 0 1-.32-.13l-1.28-1.2a.42.42 0 0 1 0-.62.47.47 0 0 1 .64 0l.96.9 3.43-3.2a2.3 2.3 0 0 0 0-3.22 2.16 2.16 0 0 0-3.1 0 .47.47 0 0 1-.34.13.47.47 0 0 1-.33-.14 2.18 2.18 0 0 0-3.1 0c-.6.61-.8 1.5-.55 2.31a.43.43 0 0 1-.31.54.46.46 0 0 1-.57-.3A3.15 3.15 0 0 1 7.3 5.02c.62.03 1.21.25 1.7.62a3.1 3.1 0 0 1 4.1.3 3.16 3.16 0 0 1 0 4.42l-.01.02-3.76 3.5a.47.47 0 0 1-.32.13Z" fill="url(#bi31txpkn)"/><path d="M6.76 11.68a.52.52 0 0 1-.35-.14L5.2 10.4a.48.48 0 0 1 0-.7c.2-.19.51-.2.71 0l.84.79 2.9-2.75c.2-.19.51-.18.71.01.2.2.2.5 0 .7l-3.25 3.08c-.1.09-.23.14-.36.14Z" fill="#fff"/><defs><linearGradient id="ai31txpkn" x1="9" y1="0" x2="9" y2="18" gradientUnits="userSpaceOnUse"><stop stop-color="#00A1F7"/><stop offset="1" stop-color="#0062B2"/></linearGradient><linearGradient id="bi31txpkn" x1="9" y1="13.88" x2="9" y2="5" gradientUnits="userSpaceOnUse"><stop stop-color="#EF9C23"/><stop offset=".28" stop-color="#F3AD30"/><stop offset=".51" stop-color="#F5B838"/><stop offset="1" stop-color="#FCD54E"/></linearGradient></defs></svg>