<!-- by TradingView --><svg width="18" height="18" viewBox="0 0 18 18" xmlns="http://www.w3.org/2000/svg"><path fill="#F0F3FA" d="M0 0h18v18H0z"/><path d="M9.48 10.01c-.1.01-.17-.04-.25-.16-.53-.85-.06-1.43.55-2.02A2.9 2.9 0 0 1 11.95 7c.37.01.64.2.81.57.17.35-.02.9-.16 1.28a30.4 30.4 0 0 0-.78 2.22.58.58 0 0 0-.01.3c0 .03.02.05.03.07l.06.04a.14.14 0 0 0 .13 0c.23-.13.44-.31.62-.55.4-.5.78-1.11 1.12-1.81a23.02 23.02 0 0 0 .86-2 .1.1 0 0 1 .11-.01c.02 0 .04.01.05.03l.15.24c.03.03.05.08.05.12v.15c-.06.28-.13.51-.22.7-.38.84-.85 1.62-1.4 2.34-.34.44-1.28 1.52-1.88 1.28a.66.66 0 0 1-.4-.48c-.09-.3-.06-.61.09-.92.23-.5 1.4-3.13.7-3.34a.5.5 0 0 0-.27-.03c-.76.23-1.38.73-1.85 1.5a1.59 1.59 0 0 0-.23 1.26l-.01.02-.02.02-.02.01ZM11.14 5a.1.1 0 0 1 .1.08.1.1 0 0 1 0 .05c-.1.31-.4.58-.75.88-.73.6-1.43 1.1-2.12 1.53-.6.37-1.12.59-1.29 1.06a.13.13 0 0 0 .06.16c.01.02.03.02.06.03.45.06.98-.03 1.48-.17l-.1.2c-.47.12-.95.2-1.45.23a.15.15 0 0 0-.1.03.15.15 0 0 0-.04.1c-.08.52-.21.97-.5 1.42a6.14 6.14 0 0 1-2.4 2.18c-.28.14-1.07.46-1.09-.1-.01-.4.57-1.02.95-1.43.84-.88 1.7-1.72 2.56-2.5a.3.3 0 0 0 .08-.12c.06-.17.2-.57.42-.54.09.02.16 0 .23-.07.65-.66 1.33-1.28 2.02-1.85.6-.49.88-.72 1.4-1.03.15-.08.3-.13.48-.14ZM6.68 9.02a.1.1 0 0 0-.05.01 1.3 1.3 0 0 0-.4.26c-.68.64-1.45 1.4-2.3 2.28-.26.27-.65.72-.7 1.03l.01.07.04.06a.16.16 0 0 0 .12.05c.2-.01.39-.07.57-.16 1.2-.61 2.86-2.07 2.8-3.5a.1.1 0 0 0-.05-.08.1.1 0 0 0-.04-.02Zm4.31-3.79c-.07-.09-.46.15-1.16.72-1.17.95-1.73 1.44-1.7 1.49.05.05.67-.38 1.88-1.27.73-.54 1.05-.85.98-.94Z" fill="#020202"/></svg>