<!-- by TradingView --><svg width="18" height="18" viewBox="0 0 18 18" xmlns="http://www.w3.org/2000/svg"><path fill="#F0F3FA" d="M0 0h18v18H0z"/><path d="M5.99 4H12l3 5-3 5H6L3 9l2.99-5Zm3 1.74a53 53 0 0 0-1.43 2.42c.43.67.57 1.42.59 2.22.59.04 1.12.07 1.67-.02.07-.8.21-1.54.6-2.22L9 5.74Zm2.22 7.76a5.89 5.89 0 0 1-.91-1.24c-.23-.45-.3-.95-.46-1.42-.6.02-1.15.06-1.72-.04a4.83 4.83 0 0 1-.42 1.48c-.2.47-.58.77-.87 1.22h4.38ZM6.53 6.86l.76.8c.57-.93 1.12-1.84 1.68-2.79.63.96 1.12 1.9 1.72 2.8.32-.27.5-.6.8-.8L10.02 4.5H7.98L6.53 6.86Zm-.32 6.64c.84-.82 1.4-1.68 1.44-2.8-.43-.23-.86-.39-1.3-.69a2.6 2.6 0 0 1-.82 2.36l.68 1.13Zm6.24-1.12c-.66-.64-.9-1.4-.9-2.32-.42.29-.8.45-1.24.63a4.1 4.1 0 0 0 1.5 2.77l.64-1.08ZM6.24 4.5c-.3.5-.54.94-.85 1.38-.49.67-.23 1.32-.04 2.1.72-1.23 1.42-2.3 2.1-3.48H6.24Zm4.34 0c.68 1.14 1.33 2.23 2.05 3.35.22-.6.24-.87.17-1.65-.36-.59-.72-1.12-1.07-1.7h-1.15Zm1.14 2.75a4 4 0 0 0-1.4 2.94c.86-.24 1.93-1.19 2.05-1.84l-.65-1.1ZM7.7 10.22a4.05 4.05 0 0 0-1.43-2.94c-.13.23-.23.42-.35.6-.13.19-.26.38-.33.6a3.72 3.72 0 0 0 2.1 1.74Zm5-1.31c-.98.94-.79 2.48.01 3.03l.9-1.52-.91-1.51Zm-8.3 1.48c.18.5.71 1.33.94 1.5.87-.66.68-2.6-.1-2.9l-.84 1.4Zm8.92-3.27c-.16.45-.17.89-.41 1.27l.97 1.59.58-.98-1.14-1.88Zm-8.66 0c-.46.66-.8 1.28-1.14 1.87.16.35.36.68.6.97.35-.53.67-1.02.92-1.55a5.7 5.7 0 0 1-.38-1.29Z" fill="url(#apwth0qt2)"/><defs><linearGradient id="apwth0qt2" x1="5.16" y1="12.29" x2="12.29" y2="5.76" gradientUnits="userSpaceOnUse"><stop stop-color="#4FEB92"/><stop offset=".18" stop-color="#4DE696"/><stop offset=".39" stop-color="#45D8A2"/><stop offset=".62" stop-color="#3AC1B7"/><stop offset=".85" stop-color="#29A1D3"/><stop offset="1" stop-color="#1D89E8"/></linearGradient></defs></svg>