<!-- by TradingView --><svg width="18" height="18" viewBox="0 0 18 18" xmlns="http://www.w3.org/2000/svg"><path fill="#181B1E" d="M0 0h18v18H0z"/><path d="M9 4a5.01 5.01 0 0 1 5 4.86v4.83l-.62-.16V8.86A4.38 4.38 0 1 0 9 13.38c.52 0 .99-.05 1.46-.22l1 .22C10.75 13.8 9.9 14 9 14A5 5 0 0 1 9 4Z" fill="#E0FF01"/><path d="M9 4.94c2.23 0 4.03 1.66 4 3.86v4.51l-.63-.15V8.8A3.27 3.27 0 0 0 9 5.56 3.37 3.37 0 0 0 5.56 9 3.36 3.36 0 0 0 9 12.44c.47 0 .6-.15 1-.31v.63c-.22.17-.53.3-1 .3A4 4 0 0 1 4.94 9c0-2.3 1.8-4.06 4.06-4.06Z" fill="#01FE1E"/><path d="M9 5.88a2.93 2.93 0 0 1 3 2.96v4.22l-.63-.15V8.89C11.32 7.5 10.41 6.5 9 6.5A2.43 2.43 0 0 0 6.5 9c0 1.44 1.06 2.5 2.5 2.5.49 0 .61-.08 1-.31v.65c-.2.18-.53.29-1 .29A3.08 3.08 0 0 1 5.87 9 3.07 3.07 0 0 1 9 5.87Z" fill="#01D3E6"/><path d="M9 6.81c1.22 0 1.93.83 2 2.03v3.91l-.63-.16V8.84c-.06-.88-.47-1.4-1.37-1.4-.95 0-1.56.6-1.56 1.56 0 .95.6 1.56 1.56 1.56.54 0 .68-.08 1-.47v.79c-.18.2-.5.3-1 .3A2.11 2.11 0 0 1 6.81 9c0-1.27.92-2.19 2.19-2.19Z" fill="#FF00F8"/></svg>