<!-- by TradingView --><svg width="18" height="18" viewBox="0 0 18 18" xmlns="http://www.w3.org/2000/svg"><path fill="#444" d="M0 0h18v18H0z"/><path d="M10.01 5.34 11.51 3c.06.1.14.35.08.6.08.02.2.16.08.54.08.02.19.16 0 .52.09.04.2.2-.08.59.1 0 .22.12-.04.48.03.04.06.18-.03.36.04.02.09.12 0 .27.03.05.06.18-.08.35.02.06.02.21-.19.38 0 .06-.04.24-.28.47-.25.23-.68.66-.86.85 0-.1-.01-.28-.16-.28.1-.1.23-.34 0-.47.1-.13.22-.43 0-.53.13-.14.34-.46.16-.6.09-.18.2-.56-.03-.63.11-.19.27-.56-.07-.56ZM10 8.58c.2-.16.66-.57.9-.85l.2-.23c.18-.18.26-.27.21-.37.4.13 1.28.37 1.69.33a.4.4 0 0 1-.39.27c.05.08.06.26-.28.3 0 .11-.07.33-.37.33 0 .1-.1.32-.4.26-.05.1-.18.27-.4.17-.02.08-.12.22-.32.12 0 .02-.06.07-.18.04L10 8.58Zm-1.2.5c.26-.07.85-.34 1.12-.46.39.19 1.02.6 1.29.8.2.1.24.41.25.55-.02.92-.65 1.22-1.04 1.4l-.12.06c-.28.14-.53.57-.63.77.1.34-.13.5-.25.55l-.43.85c.12.02.2.1.22.15l.27-.05-.04.23c-.17.08-.45-.02-.58-.07-.13.09-.35.06-.43.04-.16.08-.43.08-.54.08v-.23c.07-.04.19-.02.24 0a.43.43 0 0 1 .35-.05l.14-.12-.14.06c-.13-.08-.29 0-.35.06-.08-.06-.2-.03-.26 0-.18 0-.2.15-.2.23-.1.09-.2.04-.24 0v-.35c.12-.1.27-.04.33 0a.59.59 0 0 1 .6-.08l.12-.05.53-1.4c-.13-.48.01-1.07.1-1.3a7.46 7.46 0 0 1-1.4-1.17c.26-.14.83-.45 1.09-.5Zm-1.6 4.9c-.06-.12-.12-.37.17-.42v.24c-.06 0-.17.02-.17.18Zm.64-.23c-.13.01-.14.16-.12.23 0-.08.08-.11.12-.12v-.11Zm1.68-.05c.06.02.16.1.13.25l-.17-.05.04-.2Zm.61.28c-.16-.37.05-.42.17-.4v.22c-.14-.01-.17.12-.17.18Zm.21-.42c.05-.04.19-.1.34.02.07-.07.28-.2.49-.13l.03-.82c-.28-.2-.84-.73-.88-1.16.17-.03.56-.16.8-.44.31-.36.37-.72.38-.89.08.14.2.57.02 1.23-.02.08-.04.27 0 .37.06.12.15.27.21.32.06.06.3.26.07.54l-.05.98c.1 0 .32.03.38.15l.27-.04-.03.22c-.08.05-.31.12-.57-.04a.84.84 0 0 1-.45.04.8.8 0 0 1-.54.07v-.25c.05-.02.16-.05.25 0 .05-.03.2-.1.34-.04l.11-.1-.11.06a.32.32 0 0 0-.34.04.32.32 0 0 0-.3 0c-.05.02-.18.08-.16.26-.08.04-.24.07-.26-.04v-.35Zm.43.17c-.13.03-.14.16-.12.22 0-.06.08-.08.12-.08v-.14Zm1.68-.04-.04.22c.04-.02.13-.04.17.04.03-.04.04-.16-.13-.26Zm-6.2-9.73c0-.06 0-.19.02-.25.03.04.1.15.13.23l-.16.02Zm-.44-.14c-.02.07.01.2.03.26L6 3.96a.45.45 0 0 0-.18-.14Zm-.3.23c-.04.13.01.28.04.34l.13-.16a.36.36 0 0 0-.16-.18Zm.22.2-.16.19c.12.58.36.89.46.97a8 8 0 0 0 .2 2.38c.1.16.54.42.74.52a4.82 4.82 0 0 1-.2-2.28L6.7 5.2c.02-.06.16-.1.23-.12a.7.7 0 0 0 .17-.44c-.08-.1-.23-.1-.29-.1.04.2.03.36-.07.37-.09.02-.14-.14-.18-.45-.03-.25-.1-.41-.13-.46L6.24 4c.03.2.06.48.03.46A3.58 3.58 0 0 1 6.02 4l-.18.12c.08.17.23.53.2.56-.05.04-.1-.05-.13-.1l-.18-.32Zm1.04-.05c.14 0 .38.08.29.38l-.2-.1c.03-.05.04-.17-.09-.28ZM5.7 9.73c-.24.1-.16.3-.09.37.02-.07.1-.12.13-.14l-.04-.23Zm.04-.03c.12-.05.42-.1.63.13.11-.39.43-1.27.8-1.72.09-.15.35-.38.63-.13.28.24.08.71-.05.92-.12.2-.48.68-1 1.12a.3.3 0 0 1-.06.36l-.13.74-.23-.06.04-.51-.25.46-.2-.13.2-.48-.32.37-.21-.14.47-.7c-.03-.04-.13-.08-.28.01l-.04-.24Zm-.21 1.28.06-.3.17.12-.23.18Zm.4-.05a.95.95 0 0 0-.05.28c.06-.03.18-.1.21-.15l-.16-.13Zm.44.46a.84.84 0 0 1-.04-.27l.2.05a.72.72 0 0 1-.16.22Zm.55-3.41c-.1-.47-.23-1.64.05-2.53C7.3 4.33 8.17 4.2 8.4 4.2c-.17.26-.4.96 0 1.67l-.05.9-1.14.82c-.1.05-.3.21-.3.39Zm1.84-3.96c.28-.06.43-.16.46-.2-.07.26-.26.31-.4.35a.76.76 0 0 0-.1.03c-.07.03-.08.09-.1.14 0 .04 0 .07-.04.08-.06.01-.1-.11-.1-.17-.03-.06 0-.17.28-.23Zm.6-.15c-.07.09-.26.27-.38.33l.2.05c.06-.07.19-.24.19-.38Zm-1.1 1.19c-.03-.36.1-.67.18-.78.1.3.22.14.24.03.02-.09.12-.11.17-.11.29.04.52.2.6.26a2.3 2.3 0 0 1-.2.33c.11 0 .2.03.24.04-.04.13.02.22.06.25-.02.06.03.13.06.15a.84.84 0 0 1-.16.22c-.5-.29-.83-.43-.83-.06 0 .28.2.4.3.43-.02.05-.11.15-.21.16-.1.01-.22-.07-.27-.11a2.64 2.64 0 0 1-.19-.81Zm.94.28-.13.2c.06-.01.2-.06.25-.12l-.12-.08Zm.51-.36c0-.07-.1-.13-.16-.15-.05.13.02.2.06.23-.02.06 0 .11.03.13A.5.5 0 0 0 9.7 5Zm-1.05.4c.08.01.25.06.27.23l-.17.06c-.03-.07-.1-.22-.1-.28Zm.27.29-.14.03.11.07.03-.1Zm0 .1.05-.09c.02.02.07.06.07.14l-.12-.05Zm-.08-1.34c0 .12.06.35.35.35 0-.12-.04-.37-.35-.35ZM7.11 7.76c-.17.12-.15.37-.13.49.16-.3.56-.7.94-.26.3.36-.11 1.04-.36 1.34l.12.19c.2-.11.65-.37.95-.45.3-.08.96-.36 1.26-.5.27-.21.04-.36-.1-.4.37-.24.15-.43 0-.5.38-.27.16-.46 0-.52.38-.22.3-.5.22-.62.3-.43.09-.57-.06-.58.01-.01.06-.09.16-.3.11-.2-.06-.25-.16-.25l-.28.41A4.89 4.89 0 0 1 8.29 6.9l-1.18.87Z" fill="#fff"/></svg>