<!-- by TradingView --><svg width="18" height="18" viewBox="0 0 18 18" xmlns="http://www.w3.org/2000/svg"><path fill="#006A92" d="M0 0h18v18H0z"/><path d="m9.55 11.58 4.25-3.97a5.02 5.02 0 0 0-1.14-2.03l-3.2 3.4.1 2.6ZM9.58 12.8l.03 1.14a4.97 4.97 0 0 0 3.58-2.28l-2.69.14-.92 1Z" fill="#80B5C7"/><path d="M10 4.11A5.1 5.1 0 0 0 9.3 4l.03.72.67-.6Z" fill="#85A0A9"/><path d="M8.6 6.34 6.87 4.5C6.12 4.83 5.48 5.35 5 6l3.52 3.36.09-3.02ZM4.03 9.36c.1 1.22.62 2.36 1.5 3.22l1.41-.1-2.91-3.12Z" fill="#80B5C7"/><path d="m13.9 8.16-2.85 3.06 2.34.1a4.77 4.77 0 0 0 .52-3.16ZM9.44 8.16l1.92-1.8.05-1.72a5.6 5.6 0 0 0-1.2-.47l-.88.94.1 3.05ZM8.5 10.17 6.34 7.9l-2.2-.07c-.06.28-.11.56-.14.83l4.39 4.14.1-2.63ZM8.68 4a4.9 4.9 0 0 0-1.66.39l1.6 1.53L8.69 4Z" fill="#BFDAE5"/><path d="M12.41 5.36a3.55 3.55 0 0 0-.83-.61l.05 1.36.78-.75ZM5.92 12.94c.69.55 1.51.9 2.38 1l-.86-.91-1.52-.09ZM4.8 6.28c-.27.42-.48.9-.6 1.39l1.85-.06-1.24-1.33Z" fill="#fff"/></svg>