<!-- by TradingView --><svg width="18" height="18" viewBox="0 0 18 18" xmlns="http://www.w3.org/2000/svg"><path fill="#F0F3FA" d="M0 0h18v18H0z"/><path d="M16 8.37h-.72c-.07-.48-.33-.74-.71-.74-.63 0-.83.7-.83 1.4 0 .71.19 1.34.83 1.34.37 0 .64-.25.71-.72H16c-.1.86-.77 1.35-1.44 1.35-.95 0-1.56-.89-1.56-2 0-1.1.61-2 1.56-2 .7 0 1.34.49 1.44 1.37ZM6 11V7h1.55C8.36 7 9 7.45 9 8.27c0 .83-.61 1.28-1.44 1.28H6.54v-.6h.92c.47 0 .78-.21.78-.68 0-.42-.25-.66-.8-.66h-.69V11H6ZM2.83 11H2l1.52-4h.96L6 11h-.83L4 7.82 2.83 11Zm.03-1.67h2.27v.58H2.86v-.58ZM9.83 11H9l1.52-4h.96L13 11h-.83L11 7.82 9.83 11Zm.03-1.67h2.27v.58H9.86v-.58Z"/></svg>