<!-- by TradingView --><svg xmlns="http://www.w3.org/2000/svg" width="18" height="18" viewBox="0 0 18 18"><path fill="#F0F3FA" d="M0 0h18v18H0z"/><path d="M14.03 6.69h-1.1c-.51-.06-.84-.5-.76-1.07l.26-1.16c.17-.72-.24-1.3-.92-1.3H9.46c-.68 0-1.37.58-1.54 1.3l-.26 1.15c-.18.57-.7 1.02-1.25 1.08H5.3c-.67 0-1.36.58-1.53 1.3l-.5 2.18c-.17.72.24 1.3.92 1.3h1.08c.53.06.85.5.78 1.07l-.27 1.15c-.17.72.24 1.31.92 1.31h2.05c.68 0 1.37-.59 1.54-1.31l.27-1.15c.18-.56.72-1.01 1.26-1.06h1.09c.68 0 1.37-.59 1.54-1.3l.5-2.18c.17-.73-.24-1.31-.93-1.31zm-5.8 5.73c-1.71 0-2.76-1.47-2.34-3.3.43-1.82 2.16-3.3 3.88-3.3 1.71 0 2.76 1.49 2.34 3.3-.42 1.83-2.16 3.3-3.88 3.3z"/><path d="M13.8 6.54h-1.1c-.52-.06-.85-.5-.77-1.07l.27-1.16c.16-.72-.25-1.31-.93-1.31H9.22c-.68 0-1.37.59-1.54 1.31l-.26 1.15c-.18.57-.7 1.02-1.25 1.08H5.08c-.68 0-1.37.58-1.54 1.3l-.5 2.18c-.17.72.25 1.3.93 1.3h1.08c.52.05.85.5.77 1.07l-.27 1.15c-.17.72.25 1.3.93 1.3h2.05c.68 0 1.37-.58 1.53-1.3l.27-1.15c.19-.57.72-1.02 1.27-1.07h1.08c.68 0 1.37-.58 1.54-1.3l.5-2.18c.17-.72-.24-1.3-.93-1.3zM8 12.27c-1.72 0-2.77-1.47-2.35-3.3.43-1.82 2.16-3.3 3.88-3.3 1.71 0 2.76 1.48 2.34 3.3-.42 1.83-2.16 3.3-3.87 3.3z" fill="#004D96"/></svg>