<!-- by TradingView --><svg xmlns="http://www.w3.org/2000/svg" width="18" height="18"><path fill="#F0F3FA" d="M0 0h18v18H0z"/><path d="M13.92 7.06a4.15 4.15 0 00-3.6-2.02 4.03 4.03 0 00-4.11 3.93 4.03 4.03 0 004.11 3.93c1.61 0 3-.88 3.68-2.17A5.16 5.16 0 019.16 14C6.3 14 4 11.76 4 9s2.31-5 5.16-5a5.16 5.16 0 014.76 3.06z" fill="#50C5D8"/><path d="M13.65 6.69a4.07 4.07 0 00-2.8-1.08C8.71 5.6 7 7.13 7 9c0 1.89 1.72 3.42 3.84 3.42a4.1 4.1 0 002.62-.91 4.3 4.3 0 01-3.25 1.44C7.88 12.96 6 11.18 6 8.98S7.89 5 10.21 5c1.42 0 2.68.67 3.44 1.69z" fill="#F89938"/><path opacity=".8" fill="#50C5D8" d="M8 8h6v2H8z"/></svg>