<!-- by TradingView --><svg width="18" height="18" viewBox="0 0 18 18" xmlns="http://www.w3.org/2000/svg"><path fill="#F0F3FA" d="M0 0h18v18H0z"/><path d="M8.48 4.02a5 5 0 0 0-4.42 4.05 8.12 8.12 0 0 0-.02 1.8 6.21 6.21 0 0 0 2.1 3.72c.39.36 1.2.82 1.84 1.06.49.18 1.38.35 1.84.35H10v-1.17l.14-.02c.33-.06 1-.33 1.34-.54a4.96 4.96 0 0 0-3-9.26Zm1.2 1.28c.15.03.4.1.55.16l.27.1v.29c-.01.31-.05.54-.17.93-.13.45-.4.64-.82.6-.18-.02-.3-.07-.62-.3-.44-.32-.8-.57-.98-.66a3.95 3.95 0 0 0-1.18-.36l-.1-.01.16-.12a3.8 3.8 0 0 1 2.88-.63Zm2.36 1.52a4 4 0 0 1 .6 1.41c.08.4.08 1.12 0 1.48-.06.3-.2.7-.25.76-.07.09-.83 0-1.25-.15-.35-.12-.48-.24-.55-.5a.74.74 0 0 1 .1-.67c.13-.2.6-.84.62-.87a3.03 3.03 0 0 0 .55-1.34.87.87 0 0 1 .06-.25l.12.13Zm-5.66.68c.76.16 1 .36 1 .86 0 .26 0 .27-.55 1.02l-.37.55c-.21.36-.38.9-.42 1.37 0 .14-.03.26-.04.26a4.5 4.5 0 0 1-.5-4l.05-.15.3.02c.16.01.4.04.53.07Zm2.26.67c.32.19.5.25.89.27.33.02.34.02.3.08-.27.47-.36.76-.33 1.12v.23a.49.49 0 0 1-.12-.06 1.86 1.86 0 0 0-1.13-.31l-.2-.01.06-.1c.22-.28.32-.6.32-1.02l.01-.31.2.11Zm0 2.42c.31.17.63.43.88.61.46.34.93.54 1.5.65l.27.05-.19.14c-.23.16-.68.38-1 .49-.28.1-.42.13-.81.16l-.29.03v.46c0 .42 0 .45-.05.44a5.95 5.95 0 0 1-1.28-.48c-.11-.07-.13-.1-.16-.25a3.16 3.16 0 0 1 .19-1.99c.18-.29.62-.47.93-.3Z" fill="url(#asyscwgg3)"/><defs><linearGradient id="asyscwgg3" x1="13.08" y1="7.71" x2="4.67" y2="8.54" gradientUnits="userSpaceOnUse"><stop offset=".75" stop-color="#306BE9"/><stop offset="1" stop-color="#B7B6EF"/></linearGradient></defs></svg>