<!-- by TradingView --><svg xmlns="http://www.w3.org/2000/svg" width="18" height="18" viewBox="0 0 18 18"><path fill="#04B6E1" d="M0 0h18v18H0z"/><path fill-rule="evenodd" d="M9 3.1a1.44 1.44 0 0 0-1.18 2.28l-2.97 5.38a1.48 1.48 0 0 0-1.43.37 1.44 1.44 0 0 0 1.04 2.47c.38 0 .75-.16 1.03-.43a1.43 1.43 0 0 0 .2-1.8c.78-.16 1.96-.3 3.31-.3 1.05-.01 2.19.05 3.3.32a1.45 1.45 0 1 0 2.7.76 1.44 1.44 0 0 0-1.45-1.45c-.16 0-.31.02-.46.07l-2.9-5.4.01-.02A1.45 1.45 0 0 0 9 3.1zm-.63 2.75a1.44 1.44 0 0 0 1.27 0l2.57 4.77C11.1 10.4 10 10.34 9 10.34c-1.28 0-2.43.13-3.27.29l2.64-4.78zm1.35-1.3a.72.72 0 1 1-1.45 0 .72.72 0 0 1 1.45 0zm-5.26 8.32c.4 0 .72-.32.72-.72 0-.4-.32-.73-.72-.73a.73.73 0 1 0 0 1.45zm9.81-.72a.73.73 0 1 1-1.45 0 .73.73 0 0 1 1.45 0z" fill="#fff"/></svg>