<!-- by TradingView --><svg width="18" height="18" xmlns="http://www.w3.org/2000/svg"><path fill="#F0F3FA" d="M0 0h18v18H0z"/><path d="M8.778 7.865H7.667V5L4 12h2.903c.46-.8.851-1.636 1.172-2.393.28-.123.825-.33 1.192-.465l-.489-1.277zm2.753.598a67.754 67.754 0 012.472-.621c.565-.135.98-.658.997-1.298.017-.744-.548-1.366-1.265-1.384-.706-.019-1.294.584-1.312 1.335-.006.596.344 1.107.834 1.298l-1.97.08.244.59zm2.886-1.236c-.152-.111-.408-.179-.7-.179-.291 0-.548.074-.7.179l-.35-.597.152-.277.216.388.292-.074-.187-.468.571-.731.572.731-.187.468.291.074.216-.388.152.277-.338.597z" fill="#0B3B60"/><path d="M8.77 7.864H7.668V5L4 12h2.903c.46-.8.852-1.636 1.173-2.393.28-.123.816-.322 1.183-.457l-.488-1.286zm2.761.6a67.754 67.754 0 012.472-.622c.565-.135.98-.658.997-1.298.017-.744-.548-1.366-1.265-1.384-.706-.019-1.294.584-1.312 1.335-.006.596.344 1.107.834 1.298l-1.97.08.244.59zm2.886-1.237c-.152-.111-.408-.179-.7-.179-.291 0-.548.074-.7.179l-.35-.597.152-.277.216.388.292-.074-.187-.468.571-.732.572.732-.187.468.291.074.216-.388.152.277-.338.597z" fill="url(#paint0_linear)"/><path d="M10.354 12h2.903l-2.938-6.994H9.56L7.667 5l2.687 7z" fill="#0B3B60"/><defs><linearGradient id="paint0_linear" x1="3.647" y1="8.965" x2="15.144" y2="7.627" gradientUnits="userSpaceOnUse"><stop stop-color="#0097CC" stop-opacity="0"/><stop offset=".22" stop-color="#0097CC" stop-opacity=".01"/><stop offset=".445" stop-color="#0097CC"/><stop offset=".71" stop-color="#0097CC" stop-opacity="0"/></linearGradient></defs></svg>