<!-- by TradingView --><svg xmlns="http://www.w3.org/2000/svg" width="18" height="18" viewBox="0 0 18 18"><path fill="#F0F3FA" d="M0 0h18v18H0z"/><path d="M9.03 9.4c-2.7 1.86-2.51 4.5-2.07 5.6 2.4-5.08 6.36-5.44 8.04-5-.62-1.93-3-1.67-4.11-1.3.78-.64 2.1-2.08 1.2-2.64A9.04 9.04 0 0 0 7.87 5c-1.57-.07-3.32.3-3.94.52-.57.2-.46.41-.32.53.42.33 1.33 1.08 1.64 1.37.3.28.97.22 1.26.16l1.96-.32c.26-.05.68-.14.86.08.19.22 0 .36-.15.4-.64.11-1.99.37-2.37.45-.39.07-.36.3-.3.4l.22.32c.18.2.52.17.76.14l1.4-.21c.08-.01.27 0 .33.17s-.1.32-.19.37z" fill="#6DC24B"/></svg>