<!-- by TradingView --><svg width="18" height="18" xmlns="http://www.w3.org/2000/svg"><path fill="#F0F3FA" d="M0 0h18v18H0z"/><path d="M8.112 11.97a2.468 2.468 0 01-1.62-2.092c.105 1.798 1.084 3.338 2.639 4.119.295-.008.582-.04.862-.097a4.712 4.712 0 01-1.881-1.93zM8.963 5.275c.181.178.355.359.522.542.45-.492.95-.971 1.478-1.416a4.998 4.998 0 00-.74-.249c-.44.353-.862.731-1.26 1.123z" fill="#07A7CB"/><path d="M10.964 4.4c-.528.445-1.03.925-1.479 1.417 1.153 1.264 1.96 2.617 1.96 3.734 0 .035-.003.07-.003.106h-.007a2.47 2.47 0 01-3.323 2.313 4.714 4.714 0 001.882 1.93 5 5 0 00.97-9.5z" fill="#2CBBE1"/><path d="M6.482 9.55c0-1.634 1.724-3.778 3.742-5.398A5 5 0 109 14c.044 0 .087-.002.131-.003-1.648-.827-2.65-2.509-2.65-4.446z" fill="#90D7ED"/></svg>