<!-- by TradingView --><svg width="18" height="18" viewBox="0 0 18 18" xmlns="http://www.w3.org/2000/svg"><path fill="#F0F3FA" d="M0 0h18v18H0z"/><path d="M9 13a1 1 0 1 0 0-2 1 1 0 0 0 0 2ZM9 7a1 1 0 1 0 0-2 1 1 0 0 0 0 2Z" fill="#00A2C1"/><path d="M7.39 7.64a.64.64 0 0 0 0-1.01l-.54-.46a.97.97 0 0 0-1.2 0L4 7.57l1.74 1.46 1.65-1.4Z" fill="#0F484E"/><path d="M7.39 10.4 4 7.56v2.93l1.65 1.37c.33.28.87.28 1.2 0l.54-.45a.64.64 0 0 0 0-1Z" fill="#619A35"/><path d="M10.6 10.41a.64.64 0 0 0 0 1.01l.54.45c.33.28.87.28 1.2 0L14 10.5l-1.66-1.63-1.74 1.54Z" fill="#0F484E"/><path d="M10.61 7.64 14 10.48V7.55l-1.65-1.37a.97.97 0 0 0-1.2 0l-.54.45a.64.64 0 0 0 0 1.01Z" fill="#619A35"/></svg>