<!-- by TradingView --><svg xmlns="http://www.w3.org/2000/svg" width="18" height="18" viewBox="0 0 18 18"><path fill="url(#a0p5kxqnx)" d="M0 0h18v18H0z"/><path d="M4 9c0-2.69 2.3-5 5-5 2.73 0 5 2.11 5 4.83v4.01c0 .74-.36 1.16-1 1.16-.72 0-1-.53-1-1.16-.6.72-1.93 1.16-3 1.16-2.68 0-5-2.28-5-5Zm5 3a3 3 0 1 0 0-6 3 3 0 0 0 0 6Z" fill="#fff"/><defs><linearGradient id="a0p5kxqnx" x1="0" y1="2.75" x2="20" y2="18" gradientUnits="userSpaceOnUse"><stop offset=".36" stop-color="#0583FE"/><stop offset=".73" stop-color="#0CF"/></linearGradient></defs></svg>