<!-- by TradingView --><svg width="18" height="18" viewBox="0 0 18 18" xmlns="http://www.w3.org/2000/svg"><path fill="#323232" d="M0 0h18v18H0z"/><ellipse cx="4.95" cy="9.62" rx=".17" ry=".18" fill="#F18E15"/><ellipse cx="8.63" cy="6.79" rx=".17" ry=".18" fill="#F1AC32"/><ellipse cx="10.05" cy="4.18" rx=".17" ry=".18" fill="#F1AC32"/><ellipse cx="4.33" cy="8.59" rx=".33" ry=".35" fill="#F18E15"/><ellipse cx="4.41" cy="7.32" rx=".41" ry=".43" fill="#F18E15"/><ellipse cx="7.28" cy="7.11" rx=".48" ry=".5" fill="#F1AC32"/><ellipse cx="5.36" cy="6.02" rx=".62" ry=".66" fill="#F18E15"/><ellipse cx="6.06" cy="8.52" rx=".62" ry=".66" fill="#F1AC32"/><ellipse cx="6.81" cy="5.11" rx=".7" ry=".74" fill="#F18E15"/><ellipse cx="7.44" cy="12.61" rx=".79" ry=".83" fill="#F1AC32"/><ellipse cx="9.46" cy="13.06" rx=".89" ry=".94" fill="#F1AC32"/><ellipse cx="11.39" cy="12.25" rx=".84" ry=".89" fill="#F1AC32"/><ellipse cx="12.72" cy="10.64" rx=".84" ry=".89" fill="#F1AC32"/><ellipse cx="13.26" cy="8.53" rx=".74" ry=".78" fill="#F1AC32"/><ellipse cx="8.49" cy="5.03" rx=".7" ry=".74" fill="#F18E15"/><ellipse cx="10.11" cy="5.77" rx=".7" ry=".74" fill="#F18E15"/><ellipse cx="6.06" cy="10.99" rx=".7" ry=".74" fill="#F1AC32"/><ellipse cx="11.06" cy="7.26" rx=".67" ry=".71" fill="#F18E15"/><ellipse cx="10.94" cy="9.09" rx=".63" ry=".67" fill="#F18E15"/><ellipse cx="12.72" cy="6.45" rx=".63" ry=".67" fill="#F1AC32"/><ellipse cx="11.57" cy="4.73" rx=".42" ry=".44" fill="#F1AC32"/><ellipse cx="9.86" cy="10.56" rx=".53" ry=".56" fill="#F18E15"/><ellipse cx="8.27" cy="10.86" rx=".41" ry=".43" fill="#F18E15"/><ellipse cx="7.14" cy="9.77" rx=".22" ry=".23" fill="#F18E15"/></svg>