<!-- by TradingView --><svg width="18" height="18" fill="none" xmlns="http://www.w3.org/2000/svg"><path fill="#013D78" d="M0 0h18v18H0z"/><path fill-rule="evenodd" clip-rule="evenodd" d="M5.7 9.352h1.652l.602-2.143s-.758-.126-1.604 1.165c-.189.288-.413.625-.65.978zM2 12c.11-.056 2.12-2.325 3.118-3.733C6.288 6.716 7.1 6.002 8.421 6h.954l-1.393 6H6.737l.387-1.662H5.04c-.438.652-.834 1.233-1.018 1.503L3.914 12H2zm11.245-3.666c.069-.069.158-.22.261-.64.087-.387.069-.524 0-.591-.043-.044-.121-.103-.377-.103h-1.48l-.354 1.428h1.582c.206 0 .29-.016.368-.094zm-.553 2.504c.075-.076.137-.198.256-.66.11-.448.103-.61.016-.686-.05-.06-.128-.085-.384-.085h-1.514L10.682 11H12.3a.544.544 0 00.393-.162zM13.684 6c.572 0 .864.094 1.052.282.274.275.333.697.185 1.346-.19.816-.608 1.14-1.276 1.286v.016c.517.15.846.42.812 1.023l-.003.054a1.652 1.652 0 01-.048.368c-.187.711-.473.995-.678 1.198l-.008.007c-.333.335-.76.42-1.223.42H8.683a.027.027 0 01-.025-.016c-.005-.016.014-.028.014-.028.146-.1.46-.403.665-1.215L10.51 6h3.173z" fill="#fff"/></svg>