<!-- by TradingView --><svg width="18" height="18" viewBox="0 0 18 18" xmlns="http://www.w3.org/2000/svg"><path fill="#F0F3FA" d="M0 0h18v18H0z"/><path d="M7.68 3c-.1 0-.18.32-.18.8 0 .2.04.44.13.7C7.93 5.33 9 7.04 9 9.12s.1 3.29-.94 4.68c0 0-.06.1-.06.3 0 .4.7.9 1.11.9.64 0 .12-1.92 1.01-2.62.9-.67 1.88-1.27 1.88-1.57 0-.32-1.5.02-1.5-.33 0-.64 1.47-.95 1.5-1.73 0-.3-.12-.45-.45-.45-.39 0-.88.28-1.14.28-.18 0-.41-.34-.41-.56 0-.24.3-.5.42-.64.18-.21.61-.78.58-1.2-.03-.33-.2-.43-.54-.46-.53-.03-.37.25-.7.28-.24.03-.73-.09-.76-.46-.03-.43.3-.64.3-1.07 0-.24 0-.47-.18-.47-.27 0-.51.41-.72.39-.06 0-.12-.05-.15-.16C8.19 3.88 8.22 3 7.68 3Z" fill="#094"/><path d="M6.7 5c.48 0 1.36.42 1.3.83-.04.12-.24.17-.48.17-.58 0-1.47-.2-1.5-.53-.1-.44.24-.47.68-.47ZM7.14 7c.46 0 1.37.42 1.28.82-.03.11-.21.18-.49.18-.58 0-1.46-.2-1.5-.51-.05-.47.28-.49.7-.49ZM7.71 9c.46 0 1.38.42 1.28.82-.03.11-.21.18-.49.18-.58 0-1.46-.2-1.5-.51-.05-.47.31-.49.71-.49ZM9 11.77c0 .12-.08.2-.32.23-.52.02-1.76-.36-1.68-.68.08-.23.24-.32.44-.32.72-.02 1.56.39 1.56.77Z" fill="#094"/></svg>