<!-- by TradingView --><svg xmlns="http://www.w3.org/2000/svg" width="18" height="18" viewBox="0 0 18 18"><path fill="#F0F3FA" d="M0 0h18v18H0z"/><path d="M8.83 15c3.4 0 6.17-2.69 6.17-6s-2.76-6-6.17-6A6.19 6.19 0 0 0 3.3 6.34a4.6 4.6 0 1 1 0 5.32C4.3 13.64 6.4 15 8.83 15Z" fill="url(#avc2ghhom)"/><path fill-rule="evenodd" d="m3.6 11 4.13-4h1.93l.17 4H8.5v-.73H5.66L4.9 11H3.6Zm2.7-1.34 2.12-2.04v2.04H6.3Z" fill="url(#bvc2ghhom)"/><defs><linearGradient id="avc2ghhom" x1="9.15" y1="3" x2="9.15" y2="15" gradientUnits="userSpaceOnUse"><stop stop-color="#5699D0"/><stop offset=".85" stop-color="#22488A"/></linearGradient><linearGradient id="bvc2ghhom" x1="6.71" y1="7" x2="6.71" y2="11" gradientUnits="userSpaceOnUse"><stop offset=".16" stop-color="#5699D0"/><stop offset=".3" stop-color="#5698CE"/><stop offset="1" stop-color="#22488A"/></linearGradient></defs></svg>