<!-- by TradingView --><svg width="18" height="18" viewBox="0 0 18 18" xmlns="http://www.w3.org/2000/svg"><path fill="#F0F3FA" d="M0 0h18v18H0z"/><path d="M10.56 8.49h-4.8l-.83 1.8h5.63V11l3.76-1.65-3.76-1.78v.92Z" fill="url(#au3a0egod)"/><path d="M5.48 7.98H3.05l-.32 1.46.7.83h2.05V7.98Z" fill="#ECED53"/><path d="M4.5 7H2v4h2.5a2 2 0 1 0 0-4ZM3 8h2v1.2l-1.02 1.07L3 9.2V8Z"/><path d="M4.3 8.61h-.6v.8l.3.23.3-.23v-.8Z"/><path d="M15.16 10.57c.46 0 .84-.45.84-1 0-.54-.84-1.59-.84-1.59s-.84 1.05-.84 1.6c0 .54.37.99.84.99Zm.24-1.5c.16.17.39.62 0 1v-1Z" fill="#476CDD"/><path d="M8 7H7v4h3v-1H8v-.5h2v-.94H8V8h2V7H8Z"/><defs><linearGradient id="au3a0egod" x1="5.41" y1="9.7" x2="13.07" y2="9.73" gradientUnits="userSpaceOnUse"><stop stop-color="#E0E263"/><stop offset="1" stop-color="#4369DF"/></linearGradient></defs></svg>