<!-- by TradingView --><svg width="18" height="18" viewBox="0 0 18 18" xmlns="http://www.w3.org/2000/svg"><path fill="#F0F3FA" d="M0 0h18v18H0z"/><path d="M7.07 6.3c.08.06.18.04.23-.04.04-.08.03-.19-.05-.23a.16.16 0 0 0-.22.04c-.05.08-.03.19.04.24ZM6.2 8.64c.15.07.34 0 .42-.17a.34.34 0 0 0-.16-.44.32.32 0 0 0-.43.17c-.08.16 0 .36.16.44ZM9.11 5.59c.14.11.34.1.46-.04a.35.35 0 0 0-.04-.47.32.32 0 0 0-.45.04c-.12.14-.1.35.03.47ZM8.27 4.3c.07-.07.07-.17.01-.24-.06-.08-.15-.08-.23-.02-.07.07-.07.17 0 .24.05.06.16.07.22.01ZM10.2 6.9c.22.17.51.11.67-.1a.51.51 0 0 0-.1-.7.48.48 0 0 0-.67.1.5.5 0 0 0 .1.7ZM8.15 7.61c.15.1.35.05.45-.1a.34.34 0 0 0-.1-.46c-.15-.1-.35-.05-.45.1a.35.35 0 0 0 .1.46ZM7.94 9.73a.5.5 0 0 0-.21-.67.5.5 0 0 0-.67.21.5.5 0 0 0 .21.67.5.5 0 0 0 .67-.21ZM9.93 9.76a.5.5 0 1 0-.69.17.5.5 0 0 0 .69-.17ZM5.65 9.64a.34.34 0 0 0-.36-.3c-.18.01-.3.17-.29.36.02.18.18.31.36.3.17-.02.31-.18.29-.36ZM7.7 11.04a.5.5 0 1 0 .26.66.51.51 0 0 0-.26-.66ZM13.08 11a1 1 0 1 0 .92 1.08 1.01 1.01 0 0 0-.92-1.08ZM12.87 9.17a.74.74 0 0 0-.2-1.04.74.74 0 0 0-1.04.2.74.74 0 1 0 1.25.83ZM10.63 11.1a.76.76 0 0 0-1.03.27c-.2.35-.09.81.27 1.03a.75.75 0 0 0 .76-1.3ZM3.25 11.69a.16.16 0 0 0-.23.06c-.04.08-.02.18.06.23.08.04.17.02.22-.06.05-.08.02-.18-.05-.23ZM5.6 11.02a.47.47 0 0 0-.58.36.5.5 0 0 0 .34.6c.26.08.53-.1.6-.36a.5.5 0 0 0-.35-.6Z" fill="#D81919"/></svg>