<!-- by TradingView --><svg width="18" height="18" xmlns="http://www.w3.org/2000/svg"><path fill="#1A6594" d="M0 0h18v18H0z"/><path d="M9 4a5 5 0 100 10A5 5 0 009 4zm.174 9.651a4.477 4.477 0 110-8.953 4.477 4.477 0 010 8.953z" fill="#fff"/><path d="M13.475 3.2c-1.229-.846-4.228 1.065-6.7 4.268-2.47 3.203-3.477 6.485-2.247 7.331 1.229.847 4.229-1.063 6.699-4.266 2.471-3.203 3.477-6.486 2.248-7.332zm-2.756 6.982c-2.27 2.943-4.956 4.747-6 4.029-1.042-.718-.047-3.686 2.223-6.629 2.27-2.943 4.956-4.746 5.998-4.028 1.044.717.049 3.686-2.221 6.628z" fill="#fff"/></svg>