<!-- by TradingView --><svg xmlns="http://www.w3.org/2000/svg" width="18" height="18" viewBox="0 0 18 18"><path fill="#1E382F" d="M0 0h18v18H0z"/><path d="M9.99 9c.07 0 .07-.04.05-.1l-1.29-3c-.06-.18-.13-.18-.2 0l-1.1 3c-.03.07 0 .1.03.1H10zm-1.4-4.54c.15-.39.2-.46.28-.46.08 0 .13.06.29.42.2.44 2.26 5.27 3.06 7.05.47 1.04.85 1.22 1.12 1.3.17.04.35.07.53.06.08 0 .13.02.13.07 0 .07-.12.1-.26.1h-2.06c-.25-.01-.4-.04-.4-.1 0-.05.04-.08.1-.09.08-.02.15-.13.08-.31l-1.18-3.02a.1.1 0 0 0-.05-.05.12.12 0 0 0-.07-.02H7.34l-.09.03a.12.12 0 0 0-.04.07l-.83 2.2c-.1.25-.17.52-.18.79 0 .23.27.34.5.34h.12c.1 0 .13.02.13.07 0 .07-.08.09-.2.09h-2.5c-.17 0-.25-.02-.25-.1 0-.04.05-.06.12-.06l.38-.03c.6-.07.86-.51 1.1-1.1l2.98-7.25z" fill="#fff"/></svg>