<!-- by TradingView --><svg width="18" height="18" viewBox="0 0 18 18" xmlns="http://www.w3.org/2000/svg"><path fill="#F0F3FA" d="M0 0h18v18H0z"/><path d="M5.33 12V9c0-.64-.77-.87-1.28-.87-.48 0-1 .15-1.38.45l-.5-.98c.27-.18.58-.33.95-.43.36-.1.73-.15 1.11-.15.73 0 1.4.17 1.8.52.4.35.64.89.64 1.63V12H5.33Zm-1.55 0c-.37 0-.69-.06-.96-.19-.26-.13-.47-.3-.6-.53a1.36 1.36 0 0 1-.22-.75C2 9.47 3.1 9 4.05 9h1.28l.09 1H4.18c-.38 0-.83-.04-.83.47 0 .43.4.59.78.59.23 0 .54-.06.72-.17.18-.11.4-.27.48-.49l.13.65c-.1.3-.28.55-.55.7-.27.17-.7.25-1.13.25ZM7.64 12V7H9v1.46l-.18-.4c.26-.62.91-1.04 1.58-1.04v1.3C9.6 8.22 9 8.83 9 9.63V12H7.64ZM12.1 10.94l.04-1.71L14.17 7h1.65L13.7 9.3l-.72.59-.87 1.05ZM11 12V6h1.33v6H11Zm3.33 0L12.7 9.9l.87-1.1L16 12h-1.67Z" fill="#865625"/></svg>