<!-- by TradingView --><svg width="18" height="18" viewBox="0 0 18 18" xmlns="http://www.w3.org/2000/svg"><path fill="#0090BF" d="M0 0h18v18H0z"/><path d="M5 7h1v4H5v-.64a1.3 1.3 0 0 1-1.17.64C2.88 11 2 10.12 2 9c-.01-1.1.88-2.02 1.83-2 .48 0 .94.21 1.17.63V7Zm0 2c0-.7-.43-1.16-1-1.16-.63 0-1 .59-1 1.16 0 .66.42 1.16 1 1.16.57 0 1-.46 1-1.16ZM9.69 7.12l-.41.8c-.14-.03-.27-.09-.56-.09-.65 0-.71.55-.71 1.2V11H7V7h1v.43c.32-.36.62-.43 1.12-.43a2 2 0 0 1 .57.12ZM16 8.8V11h-1V8.87c0-.66-.3-1-.76-1s-.74.45-.74 1.1V11h-1V8.87c0-.66-.2-1-.64-1-.58 0-.86.64-.86 1.1V11h-1V7h1v.66c.19-.4.62-.66 1.07-.66.54 0 .94.27 1.17.76.23-.46.64-.76 1.2-.76.86 0 1.56.67 1.56 1.8Z" fill="#FEFFFF"/></svg>