<!-- by TradingView --><svg width="18" height="18" viewBox="0 0 18 18" xmlns="http://www.w3.org/2000/svg"><path fill="#F0F3FA" d="M0 0h18v18H0z"/><path d="M3.27 12h.61a6.69 6.69 0 0 1-.34-2.16c0-1.24 1.28-5.31 5.48-5.31s5.37 4.3 5.37 5.3c0 1.02-.46 2.64-2.44 2.64-1.74 0-2.44-1.7-2.73-2.4l-.1-.23-.36-.7-.98-1.93L5.4 12h3.39l-.33-.5H6.26l1.52-3.14 1.43 2.99c.18.55.98 1.65 2.74 1.65C14.16 13 15 11.15 15 9.84S13.73 4 9.02 4C4.31 4 3 8.31 3 9.95c0 1.31.18 1.96.27 2.05Zm6-3.01.36.52.59-1.1 1.7 3.59h.62l-2.32-4.79L9.28 9Z" fill="#043A50"/></svg>