<!-- by TradingView --><svg width="18" height="18" viewBox="0 0 18 18" xmlns="http://www.w3.org/2000/svg"><path fill="#F0F3FA" d="M0 0h18v18H0z"/><path d="M12.68 9.2c.57-.91 1.36-3.41 0-6.2.7.9 1.76 3.45.46 6.35l-.46-.16ZM7.85 7.63l.7-.69c.25.11.79.4 1 .69.1.15.31.24.55.35.34.14.73.32.99.7a81.1 81.1 0 0 0-3.24-1.05Z" fill="#212020"/><path fill-rule="evenodd" d="M4.88 14.96c1.61.22 5.42-.4 7.78-4.57v-.29c.1 0 .3-.1.36-.45l.99.3-.53.32H15l-1-.95v.45L8 7.87l-.24.1v-.3c-.64-.1-2-.4-2.3-.94.46.2 1.55.66 2.3.78l.57-.63c-.18-.1-.44-.35 0-.52V5.6a.6.6 0 0 0 .28-.55c.15.01.44.1.38.3-.06.2-.28.25-.38.25.09.11.22.41 0 .67.1-.01.29-.16.3-.67.14-.14.38-.47.21-.75-.27-.12-.89-.24-1.22.2-.01-.15.11-.44.7-.5.6-.05.81.17.84.3 0-.27-.24-.78-1.18-.7-.93.07-1.28.67-1.34.97 0-.15-.1-.44-.4-.37-.3.08-.3.72-.25 1.03l-.2.29.59.34.38-.14c0 .13-.11.38-.52.27l-.34-.1c-.41-.14-.9-.3-1.77-.27-1.11.03.32 1.22 1.65 1.62-.15.32-.34 1.04.08 1.33.02.39 0 1.29-.3 1.85l.43.2 1.1-2.82-.92 2.9 3.4 1.52c-.48.3-1.56.99-2.09 1.45-.53.46-2.13.68-2.87.73Zm9.37-5.13.34.3-.46-.03.12-.27ZM9.22 8.49c-.38-.2-.61.04-.68.18-.28.62-.68 2.24.42 2.8 1.1.57 2.62-.42 2.99-1 .3-.47.03-.78-.14-.88-.7-.28-2.22-.9-2.6-1.1Z" fill="#212020"/></svg>