<!-- by TradingView --><svg width="18" height="18" viewBox="0 0 18 18" xmlns="http://www.w3.org/2000/svg"><path fill="#F0F3FA" d="M0 0h18v18H0z"/><path d="M11.7 4H6.3L9 8.6l.64-1.18L8.32 5h1.32l-.56.97.93.9L11.7 4ZM6.33 14h5.34L9 9.4l-.63 1.18L9.67 13h-1.3L9 11.98l-1-.85L6.34 14Z" fill="#005195"/><path d="M9.37 8.69H15L12.18 4l-1.73 2.9 1.07.53.66-1.04.71 1.05h-2.84l-.68 1.25Z" fill="#00AC9A"/><path d="M8.59 8.69H3L5.8 4l1.72 2.9-1.04.52-.69-1.03-.7 1.05h2.83l.67 1.25ZM9.37 9.31H15l-2.89 4.58-1.7-2.71 1.07-.55.63.93.73-1H10.06l-.7-1.25ZM6.33 9.31H3l2.79 4.58 2.8-4.58h-1.4l-1.4 2.25-.7-1h1.24V9.31Z" fill="#005195"/></svg>