<!-- by TradingView --><svg width="18" height="18" viewBox="0 0 18 18" xmlns="http://www.w3.org/2000/svg"><path fill="#F0F3FA" d="M0 0h18v18H0z"/><path d="M9.95 6.47c.24-.28.35-.58.37-.92v-.04c0-.13-.03-.27-.06-.42l-.02-.07-.05-.14a1.4 1.4 0 0 0-.4-.54c-.06-.05-.12-.1-.18-.13a1.49 1.49 0 0 0-1.6.05H8l-.06.06a1.48 1.48 0 0 0-.54 1.4v.03l.01.03v.03l.06.17.02.04v.03c.07.16.16.3.28.45.4.49.42.99.04 1.37-.38.39-.87.37-1.37-.05-.46-.41-.99-.5-1.55-.26A1.4 1.4 0 0 0 4 8.89c-.01.64.27 1.13.87 1.39.56.24 1.1.17 1.59-.25.51-.44.92-.45 1.42 0 .59.52 1.45.5 2-.02.58-.54.61-1.45.1-2.07-.47-.53-.47-.92-.03-1.47Zm-.38 3.19c-.4.4-.96.4-1.46-.02-.62-.53-1.3-.5-1.96.05-.38.33-.87.37-1.26.09-.4-.28-.54-.76-.38-1.22.18-.44.61-.73 1.1-.63.21.05.44.19.62.34.47.36.97.44 1.5.2.53-.25.77-.69.78-1.26 0-.1 0-.2-.02-.3a1.85 1.85 0 0 0-.4-.75 1.02 1.02 0 0 1 .47-1.65.99.99 0 0 1 1.11.4c.28.4.27.88-.07 1.26-.2.23-.35.48-.4.75-.05.18-.04.38.02.6.05.24.2.47.35.67.4.5.4 1.05 0 1.47Zm-.65 1.36c-.83 0-1.47.65-1.5 1.47 0 .83.65 1.51 1.46 1.51.83 0 1.5-.67 1.5-1.5 0-.81-.66-1.48-1.46-1.48Zm0 2.54a1.03 1.03 0 0 1-.02-2.07c.55 0 1.03.47 1.03 1.03.01.52-.48 1.02-1.02 1.04Zm2.13-4.58c.03-.83.67-1.47 1.5-1.47.8.01 1.46.68 1.45 1.47.01.84-.67 1.5-1.5 1.5-.8 0-1.46-.67-1.45-1.5Zm.48.04c0 .56.47 1.02 1.02 1.02.53 0 1.02-.5 1.02-1.03 0-.56-.48-1.03-1.03-1.03s-1 .47-1 1.04Z" fill="#C63663"/></svg>