<!-- by TradingView --><svg width="18" height="18" xmlns="http://www.w3.org/2000/svg"><path fill="#0977CB" d="M0 0h18v18H0z"/><path d="M8 10.5a1.387 1.387 0 100-2.773A1.387 1.387 0 008 10.5z" fill="#fff"/><path d="M15 13.733v.42h-4.36l.079-.078c.718-.394 1.397-1.344 1.906-2.146.784-1.21 1.123-2.604 1.332-3.471l.04-.053s.065 2.814.143 4.405c.092.316.429.752.86.923zm-3.692-9.425c.013 1.196-.054 2.624-.328 3.808-.235 1.012-.536 1.617-.823 2.038-.405.592-.81.894-1.228 1.039a2.343 2.343 0 01-3.278-2.156A2.343 2.343 0 017.99 6.681c1.215 0 2.207.934 2.325 2.117l.026.027c.34-.986.51-2.38.535-3.919C10.248 4.407 9.021 4 7.832 4c-1.306 0-2.56.605-3.46 1.538C3.47 6.472 3 7.708 3 9.062c0 1.342.535 2.59 1.463 3.55.953.987 2.076 1.54 3.421 1.54 3.762.118 5.943-3.775 6.086-9.508v-.336h-2.662z" fill="#fff"/></svg>