<!-- by TradingView --><svg width="18" height="18" viewBox="0 0 18 18" xmlns="http://www.w3.org/2000/svg"><path fill="#F0F3FA" d="M0 0h18v18H0z"/><path d="M4.01 13a.01.01 0 0 1 0-.02l4.2-8.94c0-.01 0-.02.02-.03L8.27 4h1.47l.04.01.02.03 4.2 8.93a.02.02 0 0 1-.01.03h-1.73a.05.05 0 0 1-.04-.03l-.54-1.14a6.7 6.7 0 0 0-2.15-.54 6.9 6.9 0 0 0-3.2.52.17.17 0 0 0-.1.08l-.5 1.08-.02.02-.03.01H4.01Zm4.97-3.07a8.96 8.96 0 0 1 1.92.2l.01-.02v-.01A1453.14 1453.14 0 0 1 9 5.97a.08.08 0 0 0-.08 0L8.91 6a1192.3 1192.3 0 0 1-1.86 4.13h.03c.62-.13 1.25-.2 1.9-.2Z" fill="#005687"/></svg>