<!-- by TradingView --><svg width="18" height="18" fill="none" xmlns="http://www.w3.org/2000/svg"><path fill="#F0F3FA" d="M0 0h18v18H0z"/><path fill-rule="evenodd" clip-rule="evenodd" d="M2.755 9h12.49c.418 0 .755.278.755.623v1.754c0 .345-.337.623-.755.623H2.755C2.337 12 2 11.722 2 11.377V9.623C2 9.278 2.337 9 2.755 9Z" fill="url(#a)"/><path fill-rule="evenodd" clip-rule="evenodd" d="M14 8c-.307-2.254-2.427-4-4.994-4C6.44 4 4.306 5.757 4 8h10Z" fill="url(#b)"/><path fill-rule="evenodd" clip-rule="evenodd" d="M14 7.988a4.025 4.025 0 0 0-.32-1.11s-.51-.473-1.94-.473c-1.444 0-1.84.647-3.053.693-.817-.011-1.42-.431-2.187-.431-.78 0-1.823.42-2.5 1.333 0 0 .792-.646 2.095-.646 1.302 0 1.698.646 2.784.646 1.085 0 2.158-.74 3.358-.74 1.2 0 1.763.728 1.763.728Z" fill="url(#c)"/><path fill-rule="evenodd" clip-rule="evenodd" d="M13.525 6.577c-.469-.327-1.67-1.244-2.878-1.244C8.61 5.333 6.9 7.527 5.25 8H14a4.106 4.106 0 0 0-.475-1.423Z" fill="url(#d)"/><path fill-rule="evenodd" clip-rule="evenodd" d="m14 8-.045-.201a.458.458 0 0 0-.026-.128c-.066-.243-.122-.466-.24-.688-.012-.011-.514-.316-1.968-.316-1.48 0-1.819.457-3.064.5-.406-.011-.994-.245-1.36-.32-.301.184-.495.366-.797.533.878.117 1.369.62 2.273.62 1.113 0 2.214-.667 3.445-.667C13.424 7.333 14 8 14 8Z" fill="url(#e)"/><path opacity=".5" fill="#F0F3FA" d="M4 9.5h10v2H4z"/><defs><linearGradient id="a" x1="9" y1="9" x2="9" y2="12" gradientUnits="userSpaceOnUse"><stop offset=".086" stop-color="#F2A00A"/><stop offset=".453" stop-color="#DF1922"/></linearGradient><linearGradient id="b" x1="3.583" y1="7.091" x2="14.624" y2="7.329" gradientUnits="userSpaceOnUse"><stop stop-color="#FFC812"/><stop offset=".587" stop-color="#F7731F"/><stop offset=".672" stop-color="#F66721"/></linearGradient><linearGradient id="c" x1="4.208" y1="7.455" x2="7.329" y2="7.216" gradientUnits="userSpaceOnUse"><stop stop-color="#FEF010"/><stop offset="1" stop-color="#E8AF18"/></linearGradient><linearGradient id="d" x1="4.813" y1="8" x2="14.217" y2="7.748" gradientUnits="userSpaceOnUse"><stop offset=".156" stop-color="#F48218"/><stop offset=".447" stop-color="#FBBA0A"/><stop offset=".963" stop-color="#F97517"/></linearGradient><linearGradient id="e" x1="6.307" y1="7.5" x2="14.638" y2="7.774" gradientUnits="userSpaceOnUse"><stop offset=".24" stop-color="#FFF100"/><stop offset=".849" stop-color="#F17418"/></linearGradient></defs></svg>