<!-- by TradingView --><svg width="18" height="18" viewBox="0 0 18 18" xmlns="http://www.w3.org/2000/svg"><path fill="#F0F3FA" d="M0 0h18v18H0z"/><path d="M3.5 9c0-.46.38-.83.86-.83h3.27c.47 0 .85.37.85.83 0 .46-.38.83-.85.83H4.36A.85.85 0 0 1 3.5 9Z" fill="#3693A2"/><path d="M9.51 9c0-.46.39-.83.86-.83h3.27c.47 0 .86.37.86.83 0 .46-.39.83-.86.83h-3.27A.85.85 0 0 1 9.51 9Z" fill="#1F555E"/><path d="M9.51 6.83c0-.46.39-.83.87-.83h1.2c.47 0 .86.37.86.83 0 .46-.39.84-.87.84h-1.2a.85.85 0 0 1-.86-.84ZM9.51 11.17c0 .46.39.83.87.83h1.2c.47 0 .86-.37.86-.83a.85.85 0 0 0-.87-.84h-1.2a.85.85 0 0 0-.86.84Z" fill="#3693A2"/><path d="M9.51 4.8c0-.44.39-.8.86-.8.48 0 .86.36.86.8v.07c0 .44-.38.8-.86.8-.47 0-.86-.36-.86-.8V4.8ZM9.51 13.2c0 .44.39.8.86.8.48 0 .86-.36.86-.8v-.07c0-.44-.38-.8-.86-.8-.47 0-.86.36-.86.8v.07Z" fill="#1F555E"/><path d="M6.77 4.8c0-.44.38-.8.85-.8.48 0 .86.36.86.8v.07c0 .44-.38.8-.86.8-.47 0-.85-.36-.85-.8V4.8ZM6.77 13.2c0 .44.38.8.85.8.48 0 .86-.36.86-.8v-.07c0-.44-.38-.8-.86-.8-.47 0-.85.36-.85.8v.07Z" fill="#3693A2"/><path d="M5.56 6.83c0-.46.39-.83.86-.83h1.2c.48 0 .86.37.86.83 0 .46-.38.84-.86.84h-1.2a.85.85 0 0 1-.86-.84ZM5.56 11.17c0 .46.39.83.86.83h1.2c.48 0 .86-.37.86-.83a.85.85 0 0 0-.86-.84h-1.2a.85.85 0 0 0-.86.84Z" fill="#1F555E"/></svg>