<!-- by TradingView --><svg width="18" height="18" viewBox="0 0 18 18" xmlns="http://www.w3.org/2000/svg"><path fill="#F0F3FA" d="M0 0h18v18H0z"/><path d="M4 9.89C4 10.56 3.55 11 2.88 11c-.3 0-.6-.05-.87-.2v-.6c.25.13.58.26.9.26.34 0 .6-.18.6-.53 0-.35-.23-.5-.68-.73-.48-.24-.78-.6-.78-1.15 0-.61.41-1.05 1.03-1.05.33 0 .61.09.9.24l-.17.52c-.26-.13-.5-.22-.74-.22-.3 0-.51.2-.51.5 0 .39.34.55.64.7.48.25.82.58.82 1.15ZM5.41 7c.73 0 1.17.53 1.17 1.23 0 .75-.46 1.26-1.23 1.26H5V11H4.5V7h.91Zm-.03.59H5V9h.29c.45 0 .75-.27.75-.75 0-.45-.2-.66-.67-.66ZM9.26 11l-.3-1.13h-1.2L7.44 11H6.9l1.17-4h.57l1.16 4h-.54Zm-.44-1.68-.47-1.74-.45 1.74h.92ZM11.55 7.54c-.75 0-.95.86-.95 1.46 0 .63.18 1.46.95 1.46.27 0 .51-.07.78-.18v.54c-.26.13-.5.18-.84.18-1.09 0-1.42-1.08-1.42-2 0-.92.4-2 1.49-2 .31 0 .62.1.88.25l-.18.53a1.43 1.43 0 0 0-.7-.24ZM14 11V7h.51v4H14ZM15.49 11V7H16v4h-.51Z" fill="#545454"/></svg>