<!-- by TradingView --><svg width="18" height="18" viewBox="0 0 18 18" xmlns="http://www.w3.org/2000/svg"><path fill="#F0F3FA" d="M0 0h18v18H0z"/><path d="M8.03 4.02 7.93 4H7.4l-.05.02-.16.04c-.35.08-.57.28-.61.6a2.1 2.1 0 0 0 0 .5.66.66 0 0 1-.3.16.83.83 0 0 0-.42.32c-.1.12-.17.25-.23.4a9.9 9.9 0 0 1-.8 1.55c-.2.33-.32.7-.32 1.08 0 .18 0 .35-.11.5a.18.18 0 0 0-.03.07c-.04.17.05.29.24.32.19.03.38 0 .55-.1.03-.26.04-.53.04-.8.31-.33.73-.47 1.17-.62L6.44 8a1 1 0 0 0-.09.22c-.05.23-.04.46-.04.68v.04c0 .2 0 .4-.02.6-.03.25-.15.48-.29.7-.1.19-.14.4-.1.6l.07.3c.04.15.08.3.08.46.06 0 .11 0 .17.02.1.01.19.03.28 0l.03-.14.05-.31c.04-.2.15-.34.4-.36a.26.26 0 0 0 .15-.07 4.37 4.37 0 0 1 .15.1c.31.2.63.2.93-.02.16-.11.28-.25.4-.39l.08-.09c.1-.13.23-.25.37-.35a.58.58 0 0 1 .24-.1l-.08.07-.15.17c-.1.13-.18.27-.27.41-.06.11-.12.22-.2.32-.25.37-.6.55-1.1.48l-.14-.03-.06-.01c.08.47.37.7.9.66.34-.02.63-.14.91-.28l.38-.17c.01.02 0 .04-.02.05l-.01.02c-.14.18-.32.3-.53.4-.14.08-.3.14-.44.2l-.25.1.27.1c.23.09.45.18.72.14.19-.45.45-.87.78-1.24.07-.07.06-.15.03-.24l-.03-.1a1.8 1.8 0 0 1-.05-.16c-.02-.11.03-.18.15-.21l.1.16.18.4c.06.15.13.3.23.42a.6.6 0 0 0 .58.23.6.6 0 0 0 .23-.1.07.07 0 0 0-.03 0h-.04a.7.7 0 0 1-.29 0 .64.64 0 0 1-.42-.64.5.5 0 0 1 .17-.39c.33.19.66.34 1.04.16a.44.44 0 0 0-.15-.52l-.15-.12-.13-.1a.42.42 0 0 1-.15-.19h.1c.02-.02.02-.03.02-.05l.01-.02.27.07c.2.05.4.1.62.13.1-.26.05-.52 0-.77l-.02-.05a1.2 1.2 0 0 0-.23-.13 1.75 1.75 0 0 0-.89-.12c-.18.02-.32 0-.44-.13a.7.7 0 0 0-.35-.2.5.5 0 0 0-.34.03c.14.15.03.24-.07.34a.28.28 0 0 0-.08.1.25.25 0 0 0-.03.11l-.04-.01a.07.07 0 0 1-.03-.04c-.07-.12-.06-.24-.05-.37V8.6a2.78 2.78 0 0 0-.64-.04c-.22 0-.43 0-.65-.06-.35-.08-.5-.4-.34-.69a.2.2 0 0 1 .05-.07.24.24 0 0 1 .1-.05.98.98 0 0 0 .01.55c.14.1.3.15.47.16.25.03.5.02.75.01h.64c.31 0 .6.13.83.33.18.15.4.17.62.1a7.08 7.08 0 0 0-.67-.98c-.37-.42-.84-.7-1.44-.8a4.35 4.35 0 0 0-.48-.05v-.09c.02-.28.01-.56-.07-.83a1.26 1.26 0 0 0-.97-.92 2.4 2.4 0 0 0-.6-.07c-.13-.1-.18-.24-.16-.45a.5.5 0 0 1 .4-.46c.1-.02.21-.02.32-.01.33.03.63.15.92.3.32.15.6.35.88.55a19 19 0 0 0 .67.46c.32.22.65.45 1 .65.26.16.55.24.88.2.49-.07.8-.44.72-.88a.48.48 0 0 0-.18-.3v.02l-.01.04c0 .06-.03.1-.07.15a.27.27 0 0 1-.15.07.63.63 0 0 0-.36.2l-.15.18-.14.15c-.16.18-.3.2-.51.07a15.63 15.63 0 0 1-1.5-1.02l-.52-.37a3.43 3.43 0 0 0-1.1-.57l-.25-.06Zm1.46 7.5.01-.01ZM7.3 8.74a.4.4 0 0 0 .15-.17c.01.06 0 .1-.03.16-.06.12-.1.24.02.35.12.13.27.14.44.11.16-.03.31-.09.46-.15L8.45 9c.15-.06.3-.09.46-.1.17 0 .27.05.31.17a.13.13 0 0 1-.07.03h-.07c-.21-.07-.38 0-.55.1-.27.19-.6.27-.93.26-.19 0-.35-.06-.42-.24-.06-.18-.04-.34.12-.47Zm3.65.98c.14.01.29.04.42.09-.04 0-.08 0-.13.02-.11.02-.22.05-.3-.11Zm.81-.97a.8.8 0 0 0 .46.24c-.1-.22-.17-.43-.25-.65a4.4 4.4 0 0 0-.18-.51 1.42 1.42 0 0 0-.7-.73 2.65 2.65 0 0 0-1.67-.21.2.2 0 0 0-.12.05c.4-.02.79.07 1.12.27.43.28.8.6 1.02 1.05h.01a2 2 0 0 0 .31.5Zm1.06 4.46c-.05.1-.15.11-.25.12-.11.01-.22 0-.32-.02l-.12-.02c-.12-.01-.25-.03-.36.03h-.01l-.01-.03c-.02-.13-.12-.2-.26-.26a8.34 8.34 0 0 0-.36-.13c-.26-.12-.34-.3-.27-.55a.62.62 0 0 1 .25-.34c.2-.13.41-.09.51.1l.13.27.06.15c.05.1.11.2.2.3.1.14.27.19.45.2.1 0 .19.04.27.08l.06.04.03.06Zm.06.79.04-.07.06-.02c.2.03.37-.02.54-.07h.04a.3.3 0 0 1 .27.04.1.1 0 0 0 .03.02.1.1 0 0 0 .05.01c.06-.14-.01-.25-.1-.36h.09c.04.01.07.02.11 0a.2.2 0 0 0-.05-.13.25.25 0 0 0-.13-.07.8.8 0 0 0-.67.11c-.02.01-.04.03-.03.05h.08c.07.01.14.01.2.04a.81.81 0 0 1-.32-.01h-.02c-.13-.03-.26-.05-.37.03-.24-.14-.54-.16-.7-.05v.14c0 .15.08.22.24.22h.24c.12 0 .24.01.33.1l.04.02h.03Zm-2.82-2.57c.09.1.07.22.05.34-.04.1-.1.2-.16.3a.87.87 0 0 0-.17.45h-.35l.1-.2c.15-.31.3-.62.53-.9Zm-3.74.45c-.28-.02-.48.11-.48.31.13.16.63.15.82.05.05-.2-.1-.34-.34-.36Zm6.25-1.54c0 .18-.07.27-.23.32-.04-.04-.06-.06-.1-.07-.04-.02-.09-.01-.22 0a.63.63 0 0 0-.07-.23c-.05-.1-.1-.21-.07-.34l.16.06c.2.07.38.13.53.26Zm-2.16 1.8c-.03.1-.06.22-.07.33.12.06.27.08.41.06v-.57c-.17-.02-.28.04-.34.18Zm-.18-.35c.03.02.06.06.07.1a.2.2 0 0 1 .01.11l-.05.2-.01.04a.58.58 0 0 0-.02.26c-.1.01-.21.02-.32.01.09-.24.2-.49.32-.72Zm-3.98.68c-.13.12-.06.4.14.46.1-.13.14-.27.09-.42a.12.12 0 0 0-.04-.05.14.14 0 0 0-.06-.03H6.3a.14.14 0 0 0-.06.04ZM4.3 10.02a.22.22 0 0 1-.13 0 .2.2 0 0 1-.11-.06.23.23 0 0 1-.03-.26.2.2 0 0 1 .09-.07.23.23 0 0 1 .12-.02c.08.01.14.08.1.13a.25.25 0 0 0-.04.28Zm1.34 2.48c-.04.1-.03.2.02.29.2-.03.3-.16.25-.36-.12-.1-.23-.07-.27.07Zm-.72-2.7a.34.34 0 0 1-.04.18l-.03.09a.58.58 0 0 1-.26-.07.13.13 0 0 1-.05-.06.12.12 0 0 1-.01-.08c0-.02.01-.05.03-.06a.13.13 0 0 1 .07-.04.36.36 0 0 1 .3.04Zm.53.25c.02-.09-.01-.15-.05-.21a.5.5 0 0 1-.05-.1c-.2-.02-.29.09-.23.27.1.06.21.05.33.04Zm5.74 1.07c-.09.06-.17.12-.13.24-.16.02-.24-.05-.19-.19.03-.05.07-.1.12-.14.1-.08.18-.06.25.04l-.05.05Zm-4.12 1.63c-.15-.01-.24-.1-.3-.3.19-.07.36.1.3.3Z" fill="#84242F"/></svg>