<!-- by TradingView --><svg width="18" height="18" viewBox="0 0 18 18" xmlns="http://www.w3.org/2000/svg"><path fill="#F0F3FA" d="M0 0h18v18H0z"/><path d="M8.82 7.73c.15.3.49.51.77.66l.18.09c.47.24 1.14.57 1.39 1.16.31.76.04 1.6-.55 2.03-.74.54-1.67.32-2.44.03l-.02-.01v-.03l.04-1.4c0-.01 0-.02.02-.02h.12c.02 0 .04 0 .04.03.1.54.24 1.07.74 1.29.53.22 1 .12 1.4-.31a.65.65 0 0 0 .12-.22c.25-.69-.08-1.24-.58-1.57-.2-.13-.39-.23-.59-.34a4.37 4.37 0 0 1-.9-.58c-.56-.5-.47-1.51.02-2.02.7-.72 1.62-.58 2.43-.26l.02.02.01.03a12.87 12.87 0 0 0 0 1.12c0 .05.01.1-.02.13l-.03.02h-.1c-.03 0-.04 0-.04-.03-.07-.4-.17-.79-.43-1.02-.4-.33-1.08-.35-1.44.06-.27.3-.34.76-.16 1.14ZM5.62 10H3.53l-.5 1.41c-.11.3.11.35.3.38.15.03.28.05.24.19 0 .01-.01.02-.03.02H2.02C2 12 2 11.98 2 11.96v-.08c0-.02 0-.03.02-.03.37-.1.51-.24.68-.64a105.43 105.43 0 0 0 1.93-5.2L4.66 6h.1c.02 0 .03 0 .04.02a103.64 103.64 0 0 0 1.96 5.32c.05.13.1.27.2.33.07.04.22.1.47.18.02 0 .02.02.02.04v.08c0 .02 0 .03-.02.03H5.55l-.03-.03c-.03-.1.08-.13.21-.17.2-.04.46-.1.32-.52L5.61 10ZM4.56 7.13h-.03l-.01.02-.14.39c-.27.73-.53 1.46-.77 2.2a.06.06 0 0 0 0 .04l.02.02h1.82l.03-.01.02-.02.01-.03v-.03l-.9-2.52c0-.03-.03-.04-.05-.05v-.01Zm9.65 4.7c-.23-.04-.7-.1-.7-.37a62.27 62.27 0 0 1 0-2.24l.03-.01h.02c.43.1.83.15 1.3.01.74-.23 1.24-1.06 1.11-2.04-.1-.75-.6-1.18-1.19-1.18h-2.6c-.02 0-.03 0-.03.02-.02.08 0 .13.06.14a2.77 2.77 0 0 1 .66.25.8.8 0 0 0 .06.1c.03.04.06.08.06.11v4.42c0 .15-.05.57-.22.63a6.26 6.26 0 0 1-.62.2v.09c-.01.02 0 .04.02.04h2.19v-.02c.04-.08 0-.13-.06-.14l-.09-.01Zm-.7-4.2c0-.38 0-.82.03-1.2 0-.03 0-.04.03-.04.8-.2 1.81-.12 1.82 1.24 0 .78-.35 1.27-.93 1.4a1.85 1.85 0 0 1-.95-.1V8.9a19.41 19.41 0 0 1 0-1.27Z" fill="#016F88"/></svg>