<!-- by TradingView --><svg xmlns="http://www.w3.org/2000/svg" width="18" height="18" viewBox="0 0 18 18"><path fill="#F0F3FA" d="M0 0h18v18H0z"/><path d="M8.9 11.32H6.78l-.63 1.18H5L8.04 7H9.3l.87 5.5H9.08l-.17-1.18Zm-.13-.94-.31-2.24-1.3 2.24h1.61Z"/><ellipse cx="5.8" cy="4.26" rx="1.3" ry="1.26" fill="#E38F10"/><path d="M10.3 10.51h1.08c-.04.68.5 1.07 1.08 1.07.4 0 .99-.08.99-.65 0-.57-.52-.59-.92-.73a6.97 6.97 0 0 1-.94-.46 1.3 1.3 0 0 1-.63-1.15 1.4 1.4 0 0 1 .5-1.1c.41-.33.86-.49 1.46-.49s1.07.16 1.5.48A1.6 1.6 0 0 1 15 8.65l-1.08.05c0-.42-.55-.7-1-.7-.34 0-.91.11-.91.6 0 .47.71.55 1.03.67.68.23 1.63.63 1.6 1.56 0 .23-.06.46-.16.67-.38.8-1.27 1-2.03 1-.7 0-1.55-.1-1.96-.81-.15-.3-.2-.85-.19-1.18Z"/><path d="M14.5 7a5.98 5.98 0 0 0-4.63-2.4C6.17 4.6 4 6.6 4 9.83c0 1.37.53 3.66 3 5.16a5.91 5.91 0 0 1-4-5.45C3 6.21 5.7 3.5 9.05 3.5A6.1 6.1 0 0 1 14.5 7Z" fill="#103C82"/></svg>