<!-- by TradingView --><svg width="18" height="18" fill="none" xmlns="http://www.w3.org/2000/svg"><path fill="url(#paint0_linear_3186)" d="M0 0h18v18H0z"/><path d="M8.902 11.556a.215.215 0 00.251 0l5.764-4.209c.16-.115.074-.358-.126-.358H3.21c-.2 0-.285.244-.126.359l5.819 4.208z" fill="#B8B8BA"/><path d="M8.8 3.138c.063-.184.333-.184.395 0l3.62 10.6c.063.183-.155.336-.318.224l-3.378-2.313a.215.215 0 00-.242 0l-3.378 2.313c-.164.112-.381-.042-.319-.225l3.62-10.6z" fill="#fff"/><defs><linearGradient id="paint0_linear_3186" x1="3.349" y1="3.122" x2="21.904" y2="24.434" gradientUnits="userSpaceOnUse"><stop stop-color="#1A1E21"/><stop offset="1" stop-color="#06060A"/></linearGradient></defs></svg>