<!-- by TradingView --><svg xmlns="http://www.w3.org/2000/svg" width="18" height="18"><path fill="#F0F3FA" d="M0 0h18v18H0z"/><path fill-rule="evenodd" d="M10.77 10.01c-.25.44-.76 1.32-2 1.32a3.1 3.1 0 01-2.3-.92l.47-.4c.17.2.8.7 1.83.7.88 0 1.22-.59 1.47-1.02l.03-.06.54.31a7 7 0 00-.04.07zM7.34 4.93L8.5 3l1.11 1.93 2.06-1.25-.25 2.38 2.63-.25-1.5 2.2L15 9.1l-2.75 1.05 1.8 2.45-2.95-.56.45 2.57-2.51-1.71-.97 2.1-.73-2.27-1.92 1.14.5-2.25-2.25.24 1.55-1.93L3 9.09l1.96-1.08-1.29-1.7h2.24l-.5-2.1 1.93.72zm1.73.3c.99.36 3 1.57 3.14 3.44.17 2.34-1.44 3.77-3.14 3.77V9H7.99l1.08-3.78z"/></svg>