<!-- by TradingView --><svg xmlns="http://www.w3.org/2000/svg" width="18" height="18" viewBox="0 0 18 18"><path fill="#F0F3FA" d="M0 0h18v18H0z"/><path d="M14 12.9c0 .6-.5 1.1-1.1 1.1H5.1c-.6 0-1.1-.5-1.1-1.1V5.1C4 4.5 4.5 4 5.1 4h7.8c.6 0 1.1.5 1.1 1.1v7.8z" fill="#003A78"/><path d="M12.9 4H5.1C4.5 4 4 4.49 4 5.08v3.57a9.65 9.65 0 0 0 5 1.3 9.65 9.65 0 0 0 5-1.3V5.08c0-.6-.5-1.08-1.1-1.08z" fill="url(#ahvdztkzh)" fill-opacity=".4"/><path d="M8.52 5.3l-.5 5.67-3.3 1.6 3.8-7.27zm.94 0l.52 5.67 3.3 1.6L9.45 5.3zM4.66 13l3.58-1.67h1.51L13.33 13H4.67zM8.43 10.6h1.14L9 4.89l-.57 5.73z" fill="#F0F3FA"/><defs><linearGradient id="ahvdztkzh" x1="9" y1="9.99" x2="9" y2="3" gradientUnits="userSpaceOnUse"><stop stop-color="#fff"/><stop offset=".12" stop-color="#BFC4DD"/><stop offset=".25" stop-color="#8692BC"/><stop offset=".37" stop-color="#586DA2"/><stop offset=".49" stop-color="#36548E"/><stop offset=".59" stop-color="#1C4582"/><stop offset=".69" stop-color="#043D7B"/><stop offset=".76" stop-color="#003A78"/></linearGradient></defs></svg>