<!-- by TradingView --><svg xmlns="http://www.w3.org/2000/svg" width="18" height="18" viewBox="0 0 18 18"><path fill="#F0F3FA" d="M0 0h18v18H0z"/><path d="M12.25 5.89a5.02 5.02 0 0 1-3.24 8.06 5.02 5.02 0 0 0 3.9-1.11 5.02 5.02 0 0 0-.66-6.95zM9.01 13.95a5.02 5.02 0 0 1-3.2-8.1 5.02 5.02 0 0 0-.76 6.95 4.97 4.97 0 0 0 3.96 1.15z" fill="#66DECF"/><path d="M5.8 5.85a4.97 4.97 0 0 1 6.45.04A5 5 0 0 0 9.01 4a5 5 0 0 0-3.2 1.85z" fill="#66DECF"/><path d="M5.8 5.85a5.02 5.02 0 0 0 3.21 8.1 5.02 5.02 0 0 0 3.24-8.06 4.97 4.97 0 0 0-6.45-.04zm6.3 3.5a3.09 3.09 0 1 1-6.19 0 3.09 3.09 0 0 1 6.18 0z" fill="#00C9AD"/></svg>