<!-- by TradingView --><svg width="18" height="18" viewBox="0 0 18 18" xmlns="http://www.w3.org/2000/svg"><path fill="#F0F3FA" d="M0 0h18v18H0z"/><path d="m12.76 4.8.29-2.59c-.35.5-.6 1.13-.78 2.08.24.14.35.31.34.51a.62.62 0 0 1 .4.1c0 .07 0 .14-.03.2 0-.08-.1-.13-.28-.14-.24-.02-.35.02-.33.13l-.03.02a.18.18 0 0 1-.02-.21.62.62 0 0 1 .2-.08V4.8c.04-.06-.08-.23-.36-.47.1-.8.43-1.58.91-2.32V2v.01l.01-.01v.04c.17.77.24 1.55.2 2.34-.24.1-.42.19-.52.42ZM10.55 8.14c-.02-.03-.05-.03-.1-.02.01-.06-.03-.08-.07-.11-.05-.03-.1-.06-.1-.13v-.02a.39.39 0 0 1 .09-.03c.04 0 .08-.01.1-.05.03-.05.04-.09.05-.16l.03-.17c.02-.1-.07-.12-.13-.14l-.04-.01a.06.06 0 0 0-.02.06 1.1 1.1 0 0 1-.32-.1c.04.08.13.13.28.15a.37.37 0 0 1-.35-.13.28.28 0 0 0-.14-.03l.07-.03.07-.03c-.1.02-.2 0-.28-.03a.6.6 0 0 0 .07-.06c.04-.04.08-.08.13-.09.38.03.6.08.67.16l.01.01c.05.04.07.08.07.1v.04l.02.03.03.15a2.7 2.7 0 0 0 .17.45v.02h-.01a.54.54 0 0 0-.2.03c-.04 0-.1.03-.1.14ZM10 7.19c.23-.06.35-.06.35.04-.09-.07-.2-.08-.35-.04ZM5.08 14.69a.54.54 0 0 1-.17-.26c-.14-.7-.06-1.57.26-2.6-.14 1.41-.08 2.4.2 2.99a.57.57 0 0 1-.3-.13ZM10.33 10.96c-.03-.28-.22-.48-.55-.6l.37-.1-.87.1c.6.11.94.31 1.05.6Z" fill="#7D7D7D"/><path fill-rule="evenodd" d="m11.33 14.86.3-.11-.33.06c.12-1.22.32-2.61.47-3.62l.17-1.2c.06-.01.15 0 .24.05 0 0-.12.69-.2 1.43.42-.57.57-1.04.46-1.3l-.08-.19c0-.06-.08-.14-.23-.22a.24.24 0 0 0-.12-.1c-.14.03-.19.02-.13-.02.13-.08.3-.07.5.04a.69.69 0 0 0-.35-.25.27.27 0 0 0-.18.13c-.03-.01-.04-.03-.03-.06a.42.42 0 0 1 .3-.15c.14.04.28.1.4.2.02-.03.02-.08-.02-.16-.06 0-.11-.04-.17-.13a.1.1 0 0 0-.13-.02c-.14-.02-.25 0-.32.06 0-.07.04-.12.16-.18a.12.12 0 0 0-.2 0 .62.62 0 0 0 0 .2c-.05.15-.07.3-.08.46-.02.2 0 .33.04.43l-.05.4c-.32.48-.7.75-.99.97a2.95 2.95 0 0 0-.4.34c.06-.2.12-.38.2-.57.23-.08.36-.26.37-.56a3.6 3.6 0 0 1-.52-1.03 1.2 1.2 0 0 0-.13-.35.63.63 0 0 0-.11-.17l.02.05a1.16 1.16 0 0 0-.5-.35.4.4 0 0 0-.07-.03c-.06-.2-.01-.29.15-.24.12.06.55.2.58.03 0-.03 0-.04-.02-.03l-.03.02c-.04.03-.04.03-.17 0-.37-.13-.94-.47-.65-.92a.16.16 0 0 0 .06-.12c0-.2.02-.35.08-.44H9.6v.01c-.2.29-.46.35-.71.27.23.02.54-.23.74-.46.11-.15.23-.26.46-.3l.07-.02.06.02h.03-.01c.16.05.33.06.5.06.11 0 .08.38.02.47 0 0 .1-.07.23-.26.05-.06.14-.07.23-.09h.04c.14-.02.2-.06.21-.12l-.07-.1a1.28 1.28 0 0 1-.21-.28l.08-.04a1 1 0 0 0 .08-.05c.16-.04.16-.08-.06-.18-.3-.21-.47-.37-.57-.54 0-.08.05-.5-.08-.52-.05-.02-.1-.02-.13-.02-.07 0-.1 0-.15-.1-.11-.27-.45-.37-.72-.37.11-.14.53-.2 1.16.24.1-.32.52-.68.77-.9l.12-.1c-.09-.38-1.03-.94-1.72-.94-1.46 0-3.37.18-3.45 2.55.06.44.26.82.46 1.17.27.51.52.98.3 1.5.24-.07.79-.7.78-1.24 0 .13.04.27.07.4l.04.21c-.02.17-.1.36-.17.56-.07.17-.14.34-.17.5a.44.44 0 0 1-.1.2c-.11.12-.2.14-.35.17l-.05.01c-.29.06-.47-.01-.65-.08-.22-.08-.45-.16-.86 0-.28.13-.11.43.12.33a.22.22 0 0 0 .1-.09c.18-.3.72-.07.23.13-1.36.6-2.43 3.39-2.25 4.8.05-1.11.45-2.19 1.2-3.25.58-.8.64-.83.5.26-.18 1.55-.06 2.7.24 2.99A9.28 9.28 0 0 1 6 11.4c.18-.97.45-1.37.42-.2-.03 1.17.3 1.85.79 2.8l.05.1c-.51-1.6-.69-2.83-.47-3.96.03-.2.07-.17.18-.12-.2 1.93.31 3.46 1.47 4.29a3.08 3.08 0 0 0 2.7.59v.01c.16-.01.2-.03.18-.06ZM8.38 4.7c-.55.26-.56.78-.43 1.23a1.15 1.15 0 0 1 .5-.88A.25.25 0 0 1 8.5 5a.55.55 0 0 1 .07-.05c.08-.06.19-.14.16-.22-.06-.15-.22-.07-.33-.02h-.01Zm3 1.54h.02a.87.87 0 0 0-.08-.06 2.22 2.22 0 0 1-.63-.59v-.14c-.01-.13-.01-.29-.06-.32l-.1.06-.1.04c-.37-.11-1.46.3-1.77.5 0 0 .39-.1.6-.06.47.09 1.22.26 1.03.6-.04.06-.21.1-.38.12l-.2.04c-.8.09-1.24.41-1.31.96.1-.26.4-.6 1.17-.78.46-.1.88 0 1.2.09l.24.05c.08.02.16.02.23.02.03 0 0-.03-.03-.07a1.42 1.42 0 0 1-.07-.09l-.36-.43-.23-.27a.16.16 0 0 0-.04-.07c-.15-.17-.74-.26-.84-.25-.04 0 .58-.32.94.12l.05.06c.08.1.22.28.37.37.1.06.22.1.35.1Zm-1.2 7.67c-.03.11-.08.12-.14.02a.61.61 0 0 1-.1-.48c.04-.24.16-.31.23-.2-.05.01-.1.08-.13.21-.02.14 0 .28.08.4l.06.05Zm0 0c.02 0 .02-.03.03-.08.07-.34.03-.52-.04-.56v-.11c.64-.3 1.16-.68 1.38-1.11v-.07l-.4 2.84c-.2.03-.4.03-.6.01a11.3 11.3 0 0 0-.38-.84v-.08Zm-.5-4.98h.02-.01Zm-.09-.03Zm.6.38c.04.03.06.07.09.12.14.32.02.74-.46.69a.56.56 0 0 0 .43-.03.38.38 0 0 0 .19-.2c.02.27.02.55 0 .83-.03.14-.03.28-.04.42-.29-.39-.77-.6-1.24-.71.1-.06.18-.14.16-.25-.02-.13-.2-.2-.32-.23a1.64 1.64 0 0 0-.78-.02c-.25.06-.5.08-.75.07.1-.04.2-.1.27-.18.07.04.25.02.46-.02.47-.06 1.12-.16 1.26.37-.12-.58-.73-.5-1.19-.44-.2.02-.37.05-.45 0 .23-.36-.1-.83-1.28-.57.8-.18 1.14-.02 1.46.13.2.08.38.17.65.18-.22-.15-.4-.67-.25-.96l.09-.05.12-.07a1.85 1.85 0 0 0 .99 1.48c.48.2.77-.18.6-.56Zm-1.53 1.47c-.08-.22-.14-.38-.46-.27.3-.09.37.13.45.37.03.12.07.24.14.32l.23.3c.61.66 1.49.17 1.44-.22-.12.18-.3.24-.5.27a1.76 1.76 0 0 1-.87-.2h-.02c-.25-.17-.34-.39-.4-.57Zm-1.2-1.49c-.15-.14-.51-.05-.52.19a1.77 1.77 0 0 0-.77.47c.13-.27.36-.45.6-.63v-.01a3.2 3.2 0 0 0-.98.34 1.4 1.4 0 0 1 1.17-.5c.96-.12.9.54.3.67l.03-.07.03-.05c.18-.03.35-.27.15-.4Zm1.37-.73c.17.64.53.74.77.76l-.03-.03-.2-.24c-.12-.2-.21-.49-.28-.7a1.41 1.41 0 0 0-.1-.26c-.03-.05-.05-.05-.1-.04l-.05.01v.02l-.01.22c-.01.1-.02.19 0 .26Zm-1.17 2.42c-.25.22-.22.03-.17-.12-.05-.01-.18.19-.19.31a2.08 2.08 0 0 1-.12-1.1c.16.02.32.02.49.02.2.5.16.73 0 .89Z" fill="#7D7D7D"/><path d="M10.3 8.28h.07c.09.04.14.03.16 0v-.04l.03-.04-.02-.02h-.05c0-.01-.01-.02-.03-.02a.85.85 0 0 1-.31.07c.04.05.1.05.14.05ZM12.03 8.92l.03.01c.08.02.15.02.23.02.1.04.2.1.28.2.02.08 0 .16-.02.24-.09-.2-.17-.29-.26-.28a.45.45 0 0 1-.21-.05.22.22 0 0 1-.1-.05.2.2 0 0 1-.06-.09V8.9l-.01-.07.1.09h.02Zm.01 0 .02.01-.03-.01h.01ZM12.1 8.76l-.07.01.25-1.98c-.48.53-.65 1-.49 1.42-.3-.59-.11-1.16.52-1.7l.02-.14c-.34-.59-.26-1.03.24-1.32.13-.03.24 0 .28.07.1.15.35.31.73.48-.3-.04-.5-.12-.63-.24.1.12.26.24.45.37.12.09.25.18.36.28.12.06.14 0 .07-.14.33.34.12.85-.19 1.18.4-.7.13-.91-.24-1.2l-.32-.26c.15.38.09.69-.22.91a.95.95 0 0 0 .11-.82c-.04-.1-.1-.18-.17-.26-.19-.04-.22.05-.12.27.14.19.2.35.2.47a.34.34 0 0 1-.17.3c.13-.26.11-.46-.05-.6l-.08.31c-.04-.06-.08-.1-.11-.1a51.3 51.3 0 0 1-.36 2.7Z" fill="#7D7D7D"/><path d="m12.6 6.41-.02.23c.46.58.5 1.04.1 1.53.39-.3.53-.7.44-1.17h-.01a1.05 1.05 0 0 0-.25-.46c.2.31.24.46.15.47l.02.02c-.09-.03-.19-.2-.27-.37-.06-.1-.11-.2-.16-.25Z" fill="#7D7D7D"/></svg>