<!-- by TradingView --><svg xmlns="http://www.w3.org/2000/svg" width="18" height="18" viewBox="0 0 18 18"><path fill="#F0F3FA" d="M0 0h18v18H0z"/><circle cx="12" cy="13.3" r=".7" fill="#3F4F70"/><path d="M11 4.3a.7.7 0 1 1-1.4 0 .7.7 0 0 1 1.4 0Z" fill="#3F4F70"/><circle cx="4.7" cy="10.3" r=".7" fill="#3F4F70"/><path fill-rule="evenodd" d="M9.79 6.91a7.21 7.21 0 0 1-1.72 2.06c1.14.7 1.74 1.23 2.49 1.81-.35-.87-.77-2.47-.77-3.87ZM7.58 9.47c1.4.74 2.25 1.62 3.4 2.7.13.12.35.17.48.1.18-.1.16-.35.08-.53-.43-.94-1.1-3.35-1.17-5.86-.01-.15-.05-.4-.26-.43-.25-.04-.37.1-.46.26a8.5 8.5 0 0 1-2.25 2.9l-1.02-.52h.95c.18.01.33-.1.33-.28 0-.17-.15-.3-.4-.3h-1.5c-.28 0-.5.1-.5.35 0 .13.04.25.26.4.23.17.88.5 1.4.84-.28.19-.56.35-.87.47-.17.07-.28.24-.22.4.07.2.3.3.48.22.46-.17.85-.4 1.27-.72Z" fill="#F37609"/></svg>