<!-- by TradingView --><svg width="18" height="18" viewBox="0 0 18 18" xmlns="http://www.w3.org/2000/svg"><path fill="#171731" d="M0 0h18v18H0z"/><path d="M10.98 13c-.05 0-.1 0-.14-.03a.38.38 0 0 1-.13-.09l-.61-.68a.48.48 0 0 1 0-.62l.66-.74a.59.59 0 0 0 .14-.38V8.8a.6.6 0 0 0-.14-.38l-.66-.74a.48.48 0 0 1 0-.62l.6-.69a.4.4 0 0 1 .13-.1.36.36 0 0 1 .3 0c.05.03.1.06.13.1l.61.68a.48.48 0 0 1 0 .62l-.66.75a.55.55 0 0 0-.1.17.6.6 0 0 0-.05.21v1.65c0 .07.02.14.05.2.02.07.06.13.1.18l.66.74.09.15a.48.48 0 0 1-.09.48l-.6.67a.37.37 0 0 1-.29.12Zm-3.96 0c-.05 0-.1 0-.15-.03a.39.39 0 0 1-.13-.09l-.6-.68a.48.48 0 0 1 0-.62l.66-.74a.6.6 0 0 0 .14-.38V8.8a.59.59 0 0 0-.14-.38l-.66-.74a.47.47 0 0 1-.12-.32c0-.11.04-.22.12-.3l.6-.69a.39.39 0 0 1 .13-.1.35.35 0 0 1 .3 0c.05.03.1.06.13.1l.6.68a.47.47 0 0 1 0 .62l-.65.75a.6.6 0 0 0-.14.38v1.65a.6.6 0 0 0 .14.38l.66.74c.07.09.11.2.11.32 0 .11-.04.22-.1.3l-.62.68a.37.37 0 0 1-.28.12ZM9 10.75a.36.36 0 0 1-.15-.03.4.4 0 0 1-.13-.1l-.6-.68a.48.48 0 0 1-.09-.48l.08-.14.66-.74a.6.6 0 0 0 .14-.38V6.54a.59.59 0 0 0-.14-.39l-.66-.74a.47.47 0 0 1-.11-.3c0-.12.04-.23.11-.32l.6-.67a.4.4 0 0 1 .14-.1.36.36 0 0 1 .3 0l.13.1.6.68c.08.08.12.2.12.3 0 .13-.04.24-.12.32l-.66.74a.6.6 0 0 0-.14.39V8.2a.6.6 0 0 0 .14.39l.66.74a.47.47 0 0 1 0 .62l-.6.68a.37.37 0 0 1-.28.12Zm4.04-.05a.45.45 0 0 1-.2-.05.5.5 0 0 1-.15-.12l-.45-.5a.61.61 0 0 1 0-.8l.45-.5c.1-.1.22-.17.35-.17.14 0 .26.06.36.17l.45.5a.61.61 0 0 1 0 .8l-.45.5a.5.5 0 0 1-.16.12.45.45 0 0 1-.2.05Zm-8.08 0a.45.45 0 0 1-.2-.05.5.5 0 0 1-.16-.12l-.45-.5a.61.61 0 0 1 0-.8l.45-.5c.1-.1.22-.17.36-.17.13 0 .26.06.35.17l.46.5c.09.1.14.25.14.4a.6.6 0 0 1-.14.4l-.46.5a.5.5 0 0 1-.16.12.45.45 0 0 1-.2.05Z" fill="url(#aegd54gph)"/><defs><linearGradient id="aegd54gph" x1="4" y1="8.5" x2="14" y2="8.5" gradientUnits="userSpaceOnUse"><stop stop-color="#48D2E5"/><stop offset="1" stop-color="#0C6EE1"/></linearGradient></defs></svg>