<!-- by TradingView --><svg width="18" height="18" viewBox="0 0 18 18" xmlns="http://www.w3.org/2000/svg"><path fill="#F0F3FA" d="M0 0h18v18H0z"/><path d="m10.43 4.2-.2.24-.66.91c-.48.47-1.2 1.09-1.43 1.72-.33.85-.59 1.49-.79 1.91-.35.76-.5 1.46-.25 2.17a12.36 12.36 0 0 1 .15.52 3.84 3.84 0 0 1-.38-2.2c.52-.87.78-1.43.88-2.22.04-.37.08-.99.13-1.86l.29-1.32a5.01 5.01 0 0 1 2.26.14Z" fill="#632FA8"/><path d="m8.17 4.07-.29 1.32c-.4.19-.73.46-1.02.82-.23.28-.41.6-.56.95-.36.83-.15 2 .23 2.77a.05.05 0 0 0 .09 0l.18-.34c-.42 1.5.26 2.68 1.4 3.57.5.38.85.66 1.03.83a5 5 0 0 1-2.14-.37 32.5 32.5 0 0 1-.98-3.1c-.29-1.1-.43-2.2-.42-3.34 0-.25.06-.49.18-.72.43-.83.97-1.57 1.65-2.23a5 5 0 0 1 .65-.16Z" fill="#360E99"/><path d="M7.52 4.23a8.63 8.63 0 0 0-1.65 2.23 1.6 1.6 0 0 0-.18.72c0 1.13.13 2.24.42 3.34.28 1.05.6 2.08.98 3.1a4.9 4.9 0 0 1-.39-.18c-.07-.26-.2-.63-.4-1.1-.36-.86-.68-1.84-.96-2.96a4.5 4.5 0 0 1 .07-2.2l1-2.45a5 5 0 0 1 1.1-.5ZM10.43 4.2a5 5 0 0 1 2.67 1.93c-.73.12-1.29.52-1.67 1.19a6.25 6.25 0 0 0-1.2-2.88l.2-.23Z" fill="#5720A5"/><path d="M10.23 4.44c.63.85 1.04 1.8 1.2 2.88a4.83 4.83 0 0 1-1.37 1.71c-.31.25-.56.47-.4.87.19.43.46.86.84 1.29.47.54.94 1.08 1.38 1.64-.3.1-.55.07-.76-.06-.25-.17-.64-.46-1.18-.9-.8-.64-1.25-1.3-.95-2.26.23-.72.32-1.39.26-2l-.04-.54c.05-.59.17-1.16.36-1.72l.66-.9Z" fill="#360E99"/><path d="m6.4 4.73-1 2.46c-.55.6-.9 1.33-1.03 2.19-.08.5-.06.9.06 1.17.3.65.8 1.46 1.55 2.43a5.02 5.02 0 0 1 .42-8.25Z" fill="#542C89"/><path d="M7.88 5.4c-.05.86-.1 1.48-.13 1.85a5.22 5.22 0 0 1-.95 2.34l-.18.34a.05.05 0 0 1-.09 0c-.38-.77-.59-1.94-.23-2.77.15-.35.33-.67.56-.95.29-.36.63-.63 1.02-.82Z" fill="#2E0E6E"/><path d="M9.57 5.35c-.2.56-.31 1.13-.36 1.72l-.12 1.07c-.01-.21-.05-.39-.13-.53a.17.17 0 0 0-.26-.06c-.15.13-.29.28-.4.45-.25.4-.54.93-.87 1.6-.41.83-.3 1.62.35 2.35a6 6 0 0 0 2.68 1.83c-.4.12-.82.2-1.23.21a14.3 14.3 0 0 0-1.02-.83c-1.15-.89-1.83-2.06-1.4-3.57l.06-.12a3.84 3.84 0 0 0 .4 2.2v-.01l-.17-.51c-.25-.71-.1-1.41.25-2.17.2-.42.46-1.06.79-1.9.24-.64.95-1.26 1.43-1.73Z" fill="#5720A5"/><path d="M13.1 6.13a5 5 0 0 1 .32 5.2c-.38-.35-.73-.74-1.04-1.14-.64-.82-.6-1.58.1-2.27a.24.24 0 0 0-.02-.36.33.33 0 0 0-.43 0 3.2 3.2 0 0 0-1.22 2.97 8.44 8.44 0 0 0 .25 1.01l.99 1.42a6.5 6.5 0 0 1-.1.07.29.29 0 0 1-.07-.2c-.44-.56-.9-1.1-1.38-1.64a4.7 4.7 0 0 1-.84-1.3c-.16-.39.09-.6.4-.86a4.83 4.83 0 0 0 1.37-1.71c.38-.67.94-1.07 1.67-1.19Z" fill="#7B22EE"/><path d="M13.42 11.34c-.2.36-.43.7-.71 1.01a5.34 5.34 0 0 0-1.38-1.17.1.1 0 0 0-.08.15l.86 1.58-.06.05-1-1.42a8.42 8.42 0 0 1-.24-1.02 3.2 3.2 0 0 1 1.22-2.97.33.33 0 0 1 .42 0 .25.25 0 0 1 .08.29.24.24 0 0 1-.06.08c-.7.7-.73 1.45-.09 2.27.31.4.66.79 1.04 1.15Z" fill="#882DF2"/><path d="M5.4 7.19a4.5 4.5 0 0 0-.06 2.2c.28 1.1.6 2.1.96 2.95.2.47.33.84.4 1.1-.25-.13-.5-.28-.72-.46a13.1 13.1 0 0 1-1.55-2.43 2.13 2.13 0 0 1-.06-1.17c.13-.86.48-1.59 1.04-2.2Z" fill="#360E99"/><path d="m9.2 7.07.05.53a4.58 4.58 0 0 1-.36 1.64c-.2.46-.3.75-.32.9-.1.68.14 1.24.71 1.69 1.02.8 1.68 1.34 2 1.62-.15.08-.3.15-.46.2a5 5 0 0 0-1.03-1.13 9.27 9.27 0 0 1-1.13-.92c-.53-.52-.7-1.44-.2-2.08.34-.42.55-.88.63-1.38l.12-1.07Z" fill="#632FA8"/><path d="M9.09 8.14c-.08.5-.3.96-.63 1.38-.5.64-.33 1.56.2 2.08.28.28.66.59 1.13.92a5 5 0 0 1 1.03 1.14l-.36.12a6 6 0 0 1-2.68-1.83c-.65-.73-.76-1.52-.35-2.36.33-.66.62-1.2.87-1.59.11-.17.25-.32.4-.44a.17.17 0 0 1 .26.05c.08.14.12.32.13.53Z" fill="#360E99"/><path d="M11.88 12.83c0 .07.03.14.08.2-.22.16-.44.3-.68.42-.32-.28-.98-.83-2-1.62a1.73 1.73 0 0 1-.71-1.7c.02-.14.12-.43.32-.89.22-.52.34-1.06.36-1.64.06.62-.03 1.29-.26 2-.3.97.15 1.63.95 2.28.54.43.93.72 1.18.88.2.14.46.17.76.07Z" fill="#5720A5"/><path d="M12.7 12.35c-.17.2-.37.4-.59.56l-.86-1.58a.1.1 0 0 1 .08-.15 5.34 5.34 0 0 1 1.38 1.17Z" fill="#9A4EF6"/></svg>