<!-- by TradingView --><svg width="18" height="18" viewBox="0 0 18 18" xmlns="http://www.w3.org/2000/svg"><path fill="#F0F3FA" d="M0 0h18v18H0z"/><path d="M8.47 8.04c.1-.05.12-.04.2.09L9 8.6c.02 0 .1-.06.12-.07.1-.07.13.1.13.17-.5 0-1.02.05-1.5.05l-.03-.1c.28-.18.35-.4.75-.6ZM5.33 7c0 .1-.03.23-.03.36 0 .07.06.97.09 1.07.03.13-.01.17.25.07.89-.36.6-.76.3-.8-.07 0-.1-.12-.11-.24-.02-.16-.02-.33-.02-.35.06-.02.09-.08.12.1.08.5.64.24.82.5.05.09.28.39.3.39.03 0 .09-.31.09.12 0 .15.2.54.2.56-.07 0-.17.04-.23.05-.48.07-.97.16-1.44.27 0-.1.1-.23.1-.37-.07.01 0 .05-.3.05-.07 0-.23-.62-.23-.62 0-.6-.05-1.05.1-1.16Zm1.9-2.37c0-.02.04-.03.02-.05-.01-.02-.59.18.03-.07a4.12 4.12 0 0 1 5.85 3.73c0 .34-.04.7-.12 1.06-.35-.1-.7-.2-1.04-.28-.85-.17-.67-.14-1.73-.26-.02-.2-.39-.37-.39-.5 0-.16.28-.3.33-.12.03 0 .01 0 .03-.02.44-.47.5.11.61-.74.02-.1-.12-.2-.19-.29-.06-.08-.23-.18-.2-.25.04-.12.08-.08.1-.15-.01 0-.61-.03-.37-.14.21-.09.6-.1.72.32.04 0 .1-.07.12-.1-.22-.41 0-.73-.24-1.04a3.1 3.1 0 0 0-.28-.23c-.03-.02-.1-.06-.12 0-.1 0-.14-.03-.2-.07.15-.31.43-.34.43-.5.29.15.3.5.7.59.01-.02-.4-.7-.44-.72-.19-.08-.2-.11.07-.08v-.03c-.47-.1-1.44-.22-1.84-.01-.5-.34-1.06-.24-1.85-.05ZM4.74 8.28c0 .42.1.7.13 1.05-1.49.72-1.5.59-2.8 1.6-.03.02-.06.03-.07.07.1-.02.43-.22.53-.27 1.97-1 4.1-1.44 6.3-1.49 1.43 0 2.95.17 4.32.58.9.27 1.65.57 2.49 1l.09.04.27.14c0-.03-.04-.05-.06-.08a6.4 6.4 0 0 0-1.42-.99c-.45-.23-.94-.38-1.4-.6A4.27 4.27 0 0 0 6.4 4.88a4.23 4.23 0 0 0-1.66 3.4ZM5.82 11.49l.23.63H5.6c.07-.19.13-.46.22-.63ZM5 12.95V13h.55c.02 0 .02 0 .02-.02 0-.05-.18-.02-.17-.19 0-.04 0-.08.03-.14l.13-.38h.55c0 .06.11.3.14.4.02.05.04.11.04.16a.1.1 0 0 1-.07.1c-.07.03-.11 0-.11.05 0 .01 0 .02.02.02H7c0-.05 0-.04-.05-.06a.3.3 0 0 1-.17-.1c-.08-.1-.25-.63-.3-.78-.13-.33-.27-.67-.37-1-.01-.04-.02-.05-.04-.06h-.21c-.03 0-.08.2-.1.25-.12.35-.23.72-.36 1.06-.05.14-.1.38-.2.5-.04.07-.1.14-.2.14ZM12 11.05c.16 0 .2.07.2.27v1.37c0 .19-.04.26-.2.26V13h.9c0-.07 0-.04-.1-.06-.1-.02-.12-.13-.12-.25v-.64h.37c.12 0 .2.09.2.2.04 0 .05.01.05-.02v-.53c0-.02-.04-.07-.05.01-.02.15-.1.21-.2.22h-.37v-.8h.31c.12 0 .2.03.24.14.03.07.02.1.06.1l.01-.04v-.14c-.01-.04-.01-.19-.04-.19H12v.05ZM7.29 11.48c.06 0 .06-.32.28-.32H8v1.58c0 .11-.05.19-.17.2-.07.02-.1-.01-.1.06h1.04v-.05c-.18 0-.27-.05-.27-.23v-1.56h.44c.26 0 .21.32.28.32.03 0 .03-.05.03-.1V11h-2v.38c0 .05 0 .1.04.1ZM10 11.02c0 .08.26-.06.26.31v1.33c0 .17-.03.25-.15.28-.1.03-.11-.02-.11.06h.98c.01 0 .02 0 .02-.02 0-.07-.26.05-.26-.29v-1.38c0-.35.26-.21.26-.29 0-.01 0-.02-.02-.02h-.96c-.01 0-.02 0-.02.02Z" fill="#D60006"/></svg>