<!-- by TradingView --><svg width="18" height="18" viewBox="0 0 18 18" xmlns="http://www.w3.org/2000/svg"><path fill="#F0F3FA" d="M0 0h18v18H0z"/><path d="M11.38 13.96c.17.42.26.63.28.65-.12-.4-.22-.97-.28-1.7-.05-.73 0-1.43.17-2.08.16-.67.5-1.1 1.05-1.28.81-.17 1.39-.1 1.72.22.33.3.49.5.49.56.17-.28.23-.6.17-1a1.91 1.91 0 0 0-.47-1 2.83 2.83 0 0 0-.92-.63l-.55-.21c0-.21-.13-.38-.37-.5a2.98 2.98 0 0 0-1.15-.34c.69.24 1 .5.97.8-.04.28-.09.44-.14.45.94.23 1.51.5 1.72.78.2.28.28.44.24.48a2.31 2.31 0 0 0-1.22-.37c-.4 0-.74.1-1.01.26-.48.29-.8.74-.95 1.36-.17.62-.21 1.27-.14 1.93.1.66.22 1.2.38 1.61Zm-7.13-4.5c-.33.04-.75-.01-1.25-.14.02.36.07.72.15 1.07.46.03.94-.02 1.46-.16l-.37.2c-.24.13-.57.24-.99.33.1.31.22.61.37.9.37-.14.73-.35 1.1-.63 0 .02-.08.11-.24.3-.16.18-.4.39-.7.62.15.27.33.52.53.75.27-.25.53-.57.77-.95a5.49 5.49 0 0 1-.57 1.2l.27.28A7.03 7.03 0 0 0 8 14.79c1.22.27 2.35.28 3.37.03l-.2-.1c-.1-.18-.23-.46-.4-.87a3 3 0 0 1-.3-1.01l-.35 1.03-.26-1.72-.48.83a.23.23 0 0 1-.04-.04L9.3 11.6l-.47.45a.19.19 0 0 1-.03-.07v-.73l-.24.14a7.83 7.83 0 0 1-.37-3.06 5.38 5.38 0 0 1 1.18-3.14 5.75 5.75 0 0 1 2.92-1.81A8.95 8.95 0 0 0 10.36 3c-.31.17-.71.46-1.2.87-.5.41-.94.97-1.33 1.67a5.2 5.2 0 0 0-.59 2.57 5.14 5.14 0 0 1 .08-2.85c.23-.78.77-1.54 1.62-2.26-.68.04-1.38.2-2.09.46A6.25 6.25 0 0 0 6.2 5.5c-.12.78-.02 1.63.3 2.54a5.11 5.11 0 0 1-.78-1.98 4.7 4.7 0 0 1 .12-2.09c-.45.28-.88.65-1.27 1.1 0 1.07.4 2.14 1.21 3.2a4.62 4.62 0 0 1-1.75-2.48c-.2.3-.37.62-.54.97l-.1.24c.38.7.98 1.27 1.79 1.74a4.23 4.23 0 0 1-2-1.11c-.1.4-.16.8-.18 1.19.5.32 1.09.52 1.77.6 0 .02-.18.04-.52.05Zm7.37-1.66c.03-.07.03-.1.02-.1l.4-.1c0-.04-.18-.1-.5-.19s-.8-.04-1.4.15l.57.09c0 .02.06.08.15.19.1.1.25.14.45.12.18-.06.29-.1.31-.16Z" fill="#232D5A"/></svg>