<!-- by TradingView --><svg width="18" height="18" viewBox="0 0 18 18" xmlns="http://www.w3.org/2000/svg"><path fill="#F0F3FA" d="M0 0h18v18H0z"/><path d="M10.38 6.86c-.02.22-.1.4-.2.65l-.4-.66a4.03 4.03 0 0 0-.53-.76 1.87 1.87 0 0 0-1.88-.52c-.7.16-1.1.66-1.25 1.34a8.69 8.69 0 0 0-.03 4.12l.03.1c.19.67.5 1.2 1.26 1.33a1.8 1.8 0 0 0 1.9-.8c.4-.59.64-1.26.82-1.95.34-1.26.67-2.64 1-3.9.1-.42.18-.5.64-.49.34 0 .8 0 1.02.15.1.24.04.46-.03.67-.42 1.25-.7 2.65-1.06 3.91a2.4 2.4 0 0 0 .36 2.06c.3.43.64.52 1.1.3.25-.13.46-.32.62-.55.14-.02.21.04.25.19-.44.54-.98.92-1.71.94-.73.02-1.25-.4-1.69-.9-.2 0-.3.1-.42.18a4.5 4.5 0 0 1-4.57.21 2.19 2.19 0 0 1-1.16-1.25 5.84 5.84 0 0 1-.32-3.45c.46-1.9 1.92-2.86 3.81-2.77 1.25.05 2 .75 2.44 1.85Z" fill="#4D9E2F"/></svg>