<!-- by TradingView --><svg width="18" height="18" viewBox="0 0 18 18" xmlns="http://www.w3.org/2000/svg"><path fill="#F0F3FA" d="M0 0h18v18H0z"/><path d="m7.62 4-.73 1H5.52l.69 1.39H4.8l.71 1.2H4l.82 1.32L4 10h1.37l-.68 1.46h1.37L5.37 13h1.38l.87 1 .68-1.02L9 14l.64-1.02.7 1.02.84-1h1.43l-.6-1.42h1.36L12.72 10H14l-.76-1.1L14 7.6h-1.4l.64-1.2h-1.4L12.53 5h-1.5l-.67-1-.71 1.2L8.99 4 8.3 5.2 7.62 4Z" fill="url(#abpfewq4k)"/><defs><linearGradient id="abpfewq4k" x1="5.65" y1="5.62" x2="12.14" y2="12.53" gradientUnits="userSpaceOnUse"><stop stop-color="#EC6C23" stop-opacity=".2"/><stop offset="1" stop-color="#EC6C23"/></linearGradient></defs></svg>