<!-- by TradingView --><svg width="18" height="18" viewBox="0 0 18 18" xmlns="http://www.w3.org/2000/svg"><path fill="#F0F3FA" d="M0 0h18v18H0z"/><path d="M8.66 13.5c.96 0 1.85-.28 2.59-.75 0-.9-.2-1.7-.35-2.19A2.8 2.8 0 0 1 5.83 9c0-1.5 1.25-2.73 2.78-2.73A2.76 2.76 0 0 1 11.4 9v.04c0 .16.02.32.04.47.2 2.7.43 3.36.62 3.49H14c-.56-.86-.67-2.75-.68-3.73V9c0-2.49-2.08-4.5-4.66-4.5A4.58 4.58 0 0 0 4 9c0 2.49 2.09 4.5 4.66 4.5Z" fill="url(#acgkwis45)" fill-opacity=".8"/><defs><linearGradient id="acgkwis45" x1="13.28" y1="11.95" x2="4.47" y2="6.99" gradientUnits="userSpaceOnUse"><stop stop-color="#3700FE"/><stop offset=".52" stop-color="#7002EF"/><stop offset="1" stop-color="#C2187B"/></linearGradient></defs></svg>