<!-- by TradingView --><svg xmlns="http://www.w3.org/2000/svg" width="18" height="18" viewBox="0 0 18 18"><path fill="#F0F3FA" d="M0 0h18v18H0z"/><circle cx="5.03" cy="10.5" fill="url(#auydqxw3o)" r=".6"/><circle cx="9.52" cy="5.98" fill="url(#buydqxw3o)" r=".68"/><path d="M13.42 8.67h-1.76L10.86 7h3.76c.15 0 .3.02.44.1.39.2.55.7.36 1.1l-1.57 3.36a.76.76 0 0 1-1.05.35.86.86 0 0 1-.37-1.12l.99-2.12Z" fill="url(#cuydqxw3o)"/><path d="M3.57 7.56c.24-.5.8-.7 1.27-.45l.58.31-1.91 4.1c-.2.43-.68.6-1.07.39a.89.89 0 0 1-.36-1.15l1.5-3.2Z" fill="url(#duydqxw3o)"/><path d="M8.04 7.56c.23-.5.8-.7 1.26-.45l.58.32-1.9 4.1c-.2.42-.67.59-1.06.38a.9.9 0 0 1-.36-1.16l1.48-3.19Z" fill="url(#euydqxw3o)"/><path d="M6.42 7.38A.62.62 0 0 0 5.86 7H4.31c.16.09.38.54.42.62l.01.02 1.82 3.88c.2.43.67.6 1.07.39.4-.22.55-.73.36-1.15L6.42 7.38Z" fill="#A071B1"/><path d="M10.84 7.38a.62.62 0 0 0-.56-.38H8.79a4.12 4.12 0 0 1 .37.64l1.9 3.99c.11.23.33.37.56.37h1.53c-.16-.06-.28-.28-.3-.34l-.02-.03-1.99-4.25Z" fill="#6A91CB"/><defs><linearGradient id="auydqxw3o" x1="5.03" y1="9.9" x2="5.03" y2="11.1" gradientUnits="userSpaceOnUse"><stop stop-color="#4D156B"/><stop offset=".51" stop-color="#5A207C"/><stop offset="1" stop-color="#4E156B"/></linearGradient><linearGradient id="buydqxw3o" x1="9.52" y1="5.3" x2="9.52" y2="6.66" gradientUnits="userSpaceOnUse"><stop stop-color="#005598"/><stop offset=".49" stop-color="#0062B0"/><stop offset="1" stop-color="#005499"/></linearGradient><linearGradient id="cuydqxw3o" x1="15.27" y1="7.39" x2="11.58" y2="9.48" gradientUnits="userSpaceOnUse"><stop stop-color="#0065B2"/><stop offset=".31" stop-color="#0064B2"/><stop offset="1" stop-color="#004580"/></linearGradient><linearGradient id="duydqxw3o" x1="3.71" y1="7" x2="3.71" y2="12" gradientUnits="userSpaceOnUse"><stop stop-color="#1A002A"/><stop offset=".23" stop-color="#561C77"/><stop offset=".55" stop-color="#591F7B"/><stop offset="1" stop-color="#5B217D"/></linearGradient><linearGradient id="euydqxw3o" x1="8.18" y1="7" x2="8.18" y2="12" gradientUnits="userSpaceOnUse"><stop stop-color="#00376C"/><stop offset=".3" stop-color="#00599F"/><stop offset="1" stop-color="#0065B1"/></linearGradient></defs></svg>