<!-- by TradingView --><svg width="18" height="18" viewBox="0 0 18 18" xmlns="http://www.w3.org/2000/svg"><path fill="#F0F3FA" d="M0 0h18v18H0z"/><path d="M12.71 8.37c-.2-.48-.49-.92-.86-1.27A4 4 0 0 0 9.3 5.9c-.12.28-.29.52-.5.72a1.92 1.92 0 0 1-1.56.5 1.88 1.88 0 0 1-.78-.32l-.3.29c-.36.36-.65.8-.86 1.27a4.32 4.32 0 0 0 0 3.17c.2.49.49.92.86 1.28s.8.66 1.27.87a3.93 3.93 0 0 0 4.41-.87 3.93 3.93 0 0 0 1.15-2.86 3.57 3.57 0 0 0-.27-1.59" fill="#004DC3"/><path d="M7.44 4a1 1 0 1 0 1.04 1 1.02 1.02 0 0 0-1.04-1Z" fill="#5DE585"/></svg>