<!-- by TradingView --><svg xmlns="http://www.w3.org/2000/svg" width="18" height="18" viewBox="0 0 18 18"><path fill="#F0F3FA" d="M0 0h18v18H0z"/><path d="m5.59 10.09.43.91h.67L4.71 7h-.72L2 11h.66l.43-.91h2.5ZM4.34 7.47l1.03 2.15H3.32l1.02-2.15ZM6.98 7v2.15c0 .59.18 1.05.53 1.37.35.32.84.48 1.5.48.63 0 1.13-.16 1.47-.48.35-.32.53-.78.53-1.37V7h-.6v2.13c0 .42-.13.75-.37.98a1.4 1.4 0 0 1-1.03.36c-.44 0-.78-.12-1.03-.35a1.32 1.32 0 0 1-.36-.99V7h-.64Zm4.48 0 1.9 4h.73L16 7h-.67l-1.59 3.4L12.17 7h-.71Z"/></svg>