<!-- by TradingView --><svg width="18" height="18" xmlns="http://www.w3.org/2000/svg"><path fill="url(#paint0_linear)" d="M0 0h18v18H0z"/><path d="M4.913 12.996c.237-.42.237-1.085.237-1.645v-1.137c0-.875-.326-1.715-.741-2.747C3.979 6.435 3.43 5.455 3 5h.92c.385 0 .46.105.637.472.415.788.904 2.205 1.112 3.097.045.193.089.385.163.385.074 0 .153-.227.252-.437l.727-1.522c.237-.508.474-1.12.474-1.487A.79.79 0 007.122 5h1.335L7.256 7.222c-.742 1.33-1.157 1.96-1.157 3.605v.524c0 .56 0 1.225.237 1.645H4.913z" fill="#fff"/><path d="M14 6.609c-.707-.667-1.6-1.072-2.394-1.072C10.005 5.537 9 7.103 9 8.835c0 2.216.995 3.649 2.98 3.649.26 0 .506-.034.765-.084.255-.352.255-.615.255-1.232v-.583s-.024-1.168-.255-1.584h1.522c-.23.416-.267 1.051-.267 1.584v2.234c-.62.116-1.63.181-2.351.181C9.471 13 8 11.9 8 9.219c0-2.9 1.817-4.215 4.125-4.215.52 0 1.288.093 1.875.305v1.3z" fill="#A29320"/><defs><linearGradient id="paint0_linear" x1="3.349" y1="3.122" x2="21.904" y2="24.434" gradientUnits="userSpaceOnUse"><stop stop-color="#1A1E21"/><stop offset="1" stop-color="#06060A"/></linearGradient></defs></svg>