<!-- by TradingView --><svg width="18" height="18" viewBox="0 0 18 18" xmlns="http://www.w3.org/2000/svg"><path fill="#F0F3FA" d="M0 0h18v18H0z"/><path d="M6.3 7.2a.66.66 0 0 0-.94 0L2.5 10.06l.93.93 2.4-2.42c.7-.65 1.77-.08 1.77-.08L6.3 7.2Z" fill="#255FAA"/><path d="M7.6 8.5s-1.08-.57-1.77.08L8.23 11l.93-.93L7.6 8.5Z" fill="url(#agveoexq2)"/><path d="M11.68 10.8c.26.26.68.26.94 0l2.88-2.87-.93-.93-2.42 2.42c-.7.65-1.77.08-1.77.08l1.3 1.3Z" fill="#D22417"/><path d="M10.38 9.5s1.08.57 1.77-.08L9.73 7l-.93.93 1.58 1.57Z" fill="url(#bgveoexq2)"/><defs><linearGradient id="agveoexq2" x1="6.22" y1="8.18" x2="8.59" y2="10.48" gradientUnits="userSpaceOnUse"><stop offset=".41" stop-color="#1C3A63"/><stop offset=".72" stop-color="#245BA3"/><stop offset="1" stop-color="#255FAA"/></linearGradient><linearGradient id="bgveoexq2" x1="11.76" y1="9.82" x2="9.39" y2="7.5" gradientUnits="userSpaceOnUse"><stop offset=".37" stop-color="#9C1D2B"/><stop offset=".72" stop-color="#CE2318"/><stop offset="1" stop-color="#D22417"/></linearGradient></defs></svg>