<!-- by TradingView --><svg width="18" height="18" viewBox="0 0 18 18" xmlns="http://www.w3.org/2000/svg"><path fill="#F0F3FA" d="M0 0h18v18H0z"/><path d="M5.39 6H7.6L10 12H7.86l-.33-1.03H5.47L5.14 12H3l2.39-6Zm.52 3.55H7.1L6.5 7.7l-.59 1.85Z" fill="#003D6E"/><path d="M10.5 6H10v.23h.5v5.54H10V12h2v-.55c.25.34.63.55 1.13.55 1.03 0 1.87-.9 1.87-2s-.84-2-1.87-2c-.5 0-.88.2-1.13.55V6h-1.5Zm1.5 4.85v-1.7c0-.4.33-.72.74-.72.42 0 .75.32.75.72v1.7c0 .4-.33.72-.75.72a.73.73 0 0 1-.74-.72Z" fill="#3A86C2"/></svg>