<!-- by TradingView --><svg width="18" height="18" fill="none" xmlns="http://www.w3.org/2000/svg"><path fill="#F0F3FA" d="M0 0h18v18H0z"/><path d="M7.67 13.306C6.418 13 5.354 11.018 6.926 9.041l1.033-1.091c.277-.297.65-.469 1.042-.474.39.009.762.182 1.04.476l1.037 1.09c1.572 1.975.506 3.957-.747 4.263a5.812 5.812 0 0 1-2.66 0ZM9 4a1.308 1.308 0 0 0-.507.098c-.207.08-.398.202-.561.36-.77.71-1.494 1.475-2.166 2.292-.45.564-1.757 1.878-1.766 3.49v.032c.002.462.116.916.33 1.317C5.379 13.593 7.484 14 9 14s3.62-.407 4.67-2.41c1.102-2.104-.863-4.121-1.436-4.84a22.816 22.816 0 0 0-2.166-2.291 1.651 1.651 0 0 0-.56-.36A1.308 1.308 0 0 0 9.008 4L9 4Z" fill="url(#a)"/><defs><linearGradient id="a" x1="4" y1="9" x2="14" y2="9" gradientUnits="userSpaceOnUse"><stop offset=".2" stop-color="#0BA1D4"/><stop offset=".8" stop-color="#EE7B27"/></linearGradient></defs></svg>