<!-- by TradingView --><svg xmlns="http://www.w3.org/2000/svg" width="18" height="18" viewBox="0 0 18 18"><path fill="#F0F3FA" d="M0 0h18v18H0z"/><rect x="4" y="4" width="10" height="10" rx="2.5" fill="url(#aaoexkbyd)"/><path d="M7.83 6.02H6L10.15 12H12L7.83 6.02z" fill="url(#baoexkbyd)"/><path d="M9.57 8.52l-1.28.8L10.15 12H12L9.57 8.52z" fill="#80FF00"/><path d="M10.17 6H12l-4.15 5.98H6L10.17 6z" fill="#fff"/><path d="M10.17 6H12L9.91 9 9 7.69 10.17 6z" fill="#80FF00"/><path d="M9 7.68L7.85 8.7l.22.32.91-1.33z" fill="#BDBEBF"/><defs><linearGradient id="aaoexkbyd" x1="4" y1="8.77" x2="14" y2="8.72" gradientUnits="userSpaceOnUse"><stop stop-color="#00C5F1"/><stop offset="1" stop-color="#005568"/></linearGradient><linearGradient id="baoexkbyd" x1="6" y1="6.82" x2="8.64" y2="6.88" gradientUnits="userSpaceOnUse"><stop stop-color="#fff"/><stop offset="1" stop-color="#D8D7D8"/></linearGradient></defs></svg>