<!-- by TradingView --><svg width="18" height="18" viewBox="0 0 18 18" xmlns="http://www.w3.org/2000/svg"><path fill="#C04F20" d="M0 0h18v18H0z"/><path d="M14.46 6.47 12.38 12h-.7L9.55 6.46 9 6.38V6h2.22v.38l-.55.04a.1.1 0 0 0-.06.05.15.15 0 0 0-.02.08v.03l1.63 4.31 1.57-4.3v-.03a.14.14 0 0 0-.03-.1.14.14 0 0 0-.1-.04l-.5-.04V6H15v.38l-.54.09ZM6.85 12v-.38l.52-.04c.03 0 .05-.01.07-.04a.16.16 0 0 0 .03-.09v-.02l-.63-1.6H4.76l-.6 1.58v.02c0 .04 0 .07.04.1.03.04.06.05.08.05l.54.04V12H3v-.38l.52-.1L5.63 6h.69l2.1 5.39c.02.06.03.1.05.12.02.02.07.04.13.05l.41.06V12H6.85ZM5.8 7.13l-.88 2.29h1.77l-.89-2.3Z" fill="#F0F3FA"/></svg>