<!-- by TradingView --><svg xmlns="http://www.w3.org/2000/svg" width="18" height="18"><path fill="#F0F3FA" d="M0 0h18v18H0z"/><path d="M7.17 10.82c.13.24.36.24.5 0l1.9-3.38C9.73 7.2 9.6 7 9.32 7H5.5c-.29 0-.41.2-.27.44l1.93 3.38zm-3.2-3.64c.13-.24.36-.24.5 0l1.93 3.38c.13.24.02.44-.28.44H2.34c-.3 0-.42-.2-.28-.44l1.91-3.38zM15.8 8.75c.27.14.27.37 0 .5l-3.3 1.7c-.28.13-.5.01-.5-.26V7.31c0-.27.22-.39.5-.25l3.3 1.7zM10.98 11c.29 0 .52-.21.52-.47V7.48c0-.27-.23-.48-.52-.48h-.46c-.29 0-.52.22-.52.48v3.05c0 .26.23.47.52.47h.46z" fill="#7825E7"/></svg>