<!-- by TradingView --><svg width="18" height="18" viewBox="0 0 18 18" xmlns="http://www.w3.org/2000/svg"><path fill="#F0F3FA" d="M0 0h18v18H0z"/><path d="M3 6v2.55c2.58 0 4.66 1.99 4.66 4.45C8.28 12.2 9 11.3 9 11.3V8.97A7.43 7.43 0 0 0 3 6Z" fill="url(#aavi1jirk)"/><path d="M9 8.97v2.34L10.34 13A4.56 4.56 0 0 1 15 8.55V6a7.43 7.43 0 0 0-6 2.97Z" fill="url(#bavi1jirk)"/><path d="M7.66 13h2.67c0-1.5-.49-2.89-1.33-4.03A6.76 6.76 0 0 0 7.66 13Z" fill="url(#cavi1jirk)"/><defs><linearGradient id="aavi1jirk" x1="3.94" y1="6.72" x2="9.25" y2="12.29" gradientUnits="userSpaceOnUse"><stop stop-color="#72BF44"/><stop offset="1" stop-color="#D7DF23"/></linearGradient><linearGradient id="bavi1jirk" x1="14.55" y1="7.15" x2="8.33" y2="12.25" gradientUnits="userSpaceOnUse"><stop stop-color="#D7DF23"/><stop offset="1" stop-color="#72BF44"/></linearGradient><linearGradient id="cavi1jirk" x1="7.66" y1="10.99" x2="10.34" y2="10.99" gradientUnits="userSpaceOnUse"><stop stop-color="#39B54A"/><stop offset=".6" stop-color="#5DBB46"/><stop offset="1" stop-color="#72BF44"/></linearGradient></defs></svg>