<!-- by TradingView --><svg width="18" height="18" viewBox="0 0 18 18" fill="none" xmlns="http://www.w3.org/2000/svg">
<rect width="18" height="18" fill="#1A2749"/>
<path fill-rule="evenodd" clip-rule="evenodd" d="M15 6L14 6.46429V11.5357L15 12V6Z" fill="#F0F3FA"/>
<path d="M9.664 11.5714C9.664 11.5714 9.92984 12 10.0529 12C10.1759 12 10.4418 11.5714 10.4418 11.5714L13.5529 6L12.2902 6.42857C12.2902 6.42857 10.5004 9.54896 10.2709 9.97673C10.2027 10.1038 10.1264 10.1268 10.0529 10.1365C9.97933 10.1268 9.90304 10.1038 9.83485 9.97673C9.60534 9.54896 7.82061 6.42857 7.82061 6.42857L6.55289 6L9.664 11.5714Z" fill="#F0F3FA"/>
<path fill-rule="evenodd" clip-rule="evenodd" d="M5.24401 6C5.35806 6 5.60446 6.42857 5.60446 6.42857L8.48802 12L7.22093 11.483C7.22093 11.483 7.12192 11.2923 6.97036 11H4.00006L4.53822 10H6.45219C6.02415 9.17321 5.55577 8.2664 5.4461 8.04585C5.3829 7.91876 5.31219 7.89579 5.24401 7.88608C5.17583 7.89579 5.10512 7.91876 5.04192 8.04585C4.8292 8.47362 3.25283 11.483 3.25283 11.483L2 12L4.88356 6.42857C4.88356 6.42857 5.12996 6 5.24401 6Z" fill="#F0F3FA"/>
</svg>
