<!-- by TradingView --><svg width="18" height="18" viewBox="0 0 18 18" xmlns="http://www.w3.org/2000/svg"><path fill="#F0F3FA" d="M0 0h18v18H0z"/><path d="M3.52 12H3l1-1c.02.17.08.35.1.42l-.58.58Z" fill="#475F90"/><path d="M4 10.42C4 8.38 9.4 5.96 11.78 5 7.44 7.39 6 8.68 6 9.5c0 .8.8 1.5 1.59 1.5 2.25 0 5.37-2.31 6.41-3-1.84 1.9-6.29 4-7.91 4C4.46 12 4 11.03 4 10.42Z" fill="url(#ahtd5svzc)"/><path d="m12.44 8.06-1 .63c-.25-.35.6-1.64 1.13-2.3-1.97.55-5.1 2.37-5.54 2.61-.08-.42.04-.6.16-.77C11.35 5.9 14.44 5.1 15 5c-2.08 1.86-2.58 2.82-2.56 3.06Z" fill="url(#bhtd5svzc)"/><path d="M11.72 12H8c1.7-.5 3.67-1.82 4-2-.3.73-.33 1.26-.33 1.6 0 .2.02.33.05.4Z" fill="#38393E"/><defs><linearGradient id="ahtd5svzc" x1="8.44" y1="5" x2="8.44" y2="12" gradientUnits="userSpaceOnUse"><stop stop-color="#8B8F9B"/><stop offset="1" stop-color="#425689"/></linearGradient><linearGradient id="bhtd5svzc" x1="11" y1="5" x2="11" y2="9" gradientUnits="userSpaceOnUse"><stop stop-color="#919BB0"/><stop offset="1" stop-color="#415379"/></linearGradient></defs></svg>