<!-- by TradingView --><svg xmlns="http://www.w3.org/2000/svg" width="18" height="18" viewBox="0 0 18 18"><path fill="#F0F3FA" d="M0 0h18v18H0z"/><path d="M10.95 13.64l.25-.4-1.1-1.77H7.9l-1.1 1.77.25.4L8.52 15h.96l1.47-1.36zM4.08 9.35H6.3l1.1 1.78-1.09 1.75-2.81-2.6.58-.93zm6.52 1.78l1.1-1.78h2.22l.58.93-2.81 2.6-1.1-1.75z" fill="#004C82"/><path d="M7.05 4.36l-.25.4 1.1 1.77h2.2l1.1-1.76-.25-.41L9.48 3h-.96L7.05 4.36zM6.3 8.65H4.08l-.58-.93 2.82-2.6L7.4 6.87 6.3 8.65zm7.62 0h-2.21l-1.12-1.78 1.1-1.74 2.8 2.6-.57.92z" fill="#1D96D3"/><path d="M10.1 10.76L11.2 9l-1.1-1.76H7.9L6.8 9l1.1 1.76h2.2z" fill="#55595B"/></svg>