<!-- by TradingView --><svg width="18" height="18" viewBox="0 0 18 18" xmlns="http://www.w3.org/2000/svg"><path fill="#F0F3FA" d="M0 0h18v18H0z"/><path d="M4 8.95c0 .23.02.45.05.68H6.19l-.7-1.26h-.44a4 4 0 0 1 7.63-.93h1.08A5 5 0 0 0 9 4C6.24 4 4 6.22 4 8.95ZM14 9.05c0-.23-.02-.45-.05-.68H12.5l-.69 1.26h1.11a3.96 3.96 0 0 1-7.58.94h-1.1A5 5 0 0 0 9 14c2.76 0 5-2.22 5-4.95Z" fill="#114368"/><path d="M6.07 7.89c-.22-.4.1-.89.6-.89h.15c.25 0 .47.13.59.33l1.52 2.78c.22.4-.1.89-.6.89h-.15a.67.67 0 0 1-.59-.34L6.07 7.9Z" fill="#114368"/><path d="M8.07 7.89c-.22-.4.1-.89.6-.89h.15c.25 0 .47.13.59.33l1.34 2.78c.22.4-.1.89-.6.89H10a.67.67 0 0 1-.59-.34L8.07 7.9Z" fill="#B2C1E3"/><path d="M11.93 7.89c.22-.4-.1-.89-.6-.89h-.15a.67.67 0 0 0-.59.33l-1.16 2.78a.57.57 0 0 0-.07.28c0 .32.28.61.66.61h.15c.25 0 .48-.13.6-.34l1.16-2.77Z" fill="#114368"/></svg>