<!-- by TradingView --><svg width="18" height="18" xmlns="http://www.w3.org/2000/svg"><path fill="url(#paint0_linear)" d="M0 0h18v18H0z"/><path d="M3 10.957s6.36 2.075 8.153-3.287c.965 1.007 2.11 2.069 1.793 3.539-.857 3.92-6.72 3.049-8.758 1.388-.482-.524-.864-.966-1.188-1.64z" fill="#008FD1"/><path d="M9.936 3.015c.021-.075-1.361.088-2.103 1.715 0 0-2.32 5.757 3.846 8.48 0 0 3.082-2.144-.274-5.289-1.887-1.769-1.865-3.58-1.47-4.906z" fill="#EAE100"/><path d="M8.517 10.787c.648.898 1.642 1.749 3.147 2.416.62-.443 1.088-1.09 1.282-1.994.094-.627-.029-1.389-.62-2.24-.345-.462-.777-.884-1.173-1.3-.555 1.654-1.542 2.6-2.636 3.118z" fill="#2A9F3A"/><defs><linearGradient id="paint0_linear" x1="3.349" y1="3.122" x2="21.904" y2="24.434" gradientUnits="userSpaceOnUse"><stop stop-color="#1A1E21"/><stop offset="1" stop-color="#06060A"/></linearGradient></defs></svg>