<!-- by TradingView --><svg width="18" height="18" xmlns="http://www.w3.org/2000/svg"><path fill="#00ADEE" d="M0 0h18v18H0z"/><path d="M9.827 13.078a11.852 11.852 0 01-1.204.177c-.227.02-.455.03-.68.03h-.025a6.57 6.57 0 01-.377-.011c-1.399-.086-2.221-.61-2.316-1.479-.052-.478.116-1.023.497-1.623l-.488-.145c-.882.991-1.307 1.89-1.23 2.6C4.102 13.512 5.012 14 6.568 14c.294 0 .588-.017.88-.047l.047-.005a14.515 14.515 0 001.624-.271c.314-.072.626-.152.935-.24.76-.218 1.506-.477 2.234-.776.243-.1.49-.205.738-.316l-.397-.118-.125.05c-.918.36-1.819.63-2.676.8zM8.174 4.932a11.723 11.723 0 011.204-.179c.226-.02.454-.03.679-.03h.026c.125 0 .25.003.376.01 1.4.087 2.222.617 2.316 1.494.052.483-.115 1.034-.497 1.64l.488.146c.882-1 1.307-1.908 1.23-2.626C13.899 4.492 12.989 4 11.433 4a8.613 8.613 0 00-.88.048l-.047.005a14.374 14.374 0 00-1.623.274 17.35 17.35 0 00-.936.242c-.76.22-1.506.482-2.233.784-.244.1-.491.207-.739.318l.397.12.125-.05a15.73 15.73 0 012.677-.81z" fill="#F6F8FD"/><path d="M8.143 9.818l.681-2.153.67 2.153H8.143zM9.284 6h-.57l-.292.99L7 12h.571l.476-1.634h1.507L10 12h1L9.683 7.38S9.419 6.452 9.284 6z" fill="#221F1F"/></svg>