<!-- by TradingView --><svg width="18" height="18" xmlns="http://www.w3.org/2000/svg"><path fill="#0090C8" d="M0 0h18v18H0z"/><path d="M12.87 12.109a.386.386 0 00-.382-.261.931.931 0 00-.15.018 6.59 6.59 0 01-.798.134c-.373.016-.516-.459-.54-.837v-5.2c-.012-.12-.024-.24-.126-.312l-.037-.022c-.012-.008-.024-.019-.04-.027a4.022 4.022 0 00-1.065-.42l-.033-.008a7.891 7.891 0 00-2.43-.137c-.25.021-.927.124-1.155.194-.065.02-.28.111-.286.294.003.094.122.399.122.399.078.212.154.224.303.251.12.013.376-.036.547-.063a6.31 6.31 0 011.936-.06A4.831 4.831 0 0110 6.4v2.019l-.065.001-1.821.043c-2.139.06-3.129.83-3.114 2.381-.003.705.24 1.269.704 1.634.431.342 1.062.523 1.82.523h.004c.872 0 1.845-.25 2.575-.774l.07-.049.036.073c.176.352.254.585.665.68a2.715 2.715 0 00.867.06c.244-.03.568-.07.93-.225.199-.085.339-.191.329-.382-.012-.166-.13-.274-.13-.274zM10 11.354c-.532.334-1.537.646-2.189.646-.956-.019-1.792-.384-1.811-1.217.02-.96.872-1.36 2.066-1.43l1.86.003.073-.003.001 2z" fill="#F6F8FD"/></svg>