<!-- by TradingView --><svg xmlns="http://www.w3.org/2000/svg" width="18" height="18" viewBox="0 0 18 18"><path fill="#F0F3FA" d="M0 0h18v18H0z"/><path d="m8.6 12 1.17-3.5h1l1.11 3.5h-.93l-.12-.4h-1.2l-.13.4h-.9Zm1.28-1.28h.7l-.36-1.17-.34 1.17Z" fill="#0071B9"/><path d="M7.83 12.63 6.45 14l-.29-.3 1.37-1.37.3.3Zm-.58-.67-3.2 1.84-.2-.36 3.19-1.84.2.36Zm.77.5-.17-.15a3.15 3.15 0 1 1 4.61-4.3l-.13.14a2.96 2.96 0 0 0-4.18 4.18l-.13.13Zm-1.16-1.3-1.88.5-.1-.4 1.87-.5.1.4Zm-.17-.87H3v-.42h3.69v.42ZM6.86 9l-.11.4-1.88-.5.11-.4 1.88.5Zm.39-.8-.21.36-3.2-1.84.21-.36 3.2 1.84Zm.58-.67-.3.3-1.37-1.38.3-.29 1.37 1.37ZM14 6.45l-1.37 1.38-.3-.3 1.38-1.37.29.3Zm-5.44.59-.36.2-1.84-3.19.36-.2 1.84 3.19Zm5.24-2.99-1.84 3.2-.36-.21 1.84-3.2.36.21Zm-2.14.93-.5 1.88-.4-.11.5-1.88.4.11ZM9.4 6.75l-.4.1-.5-1.87.4-.1.5 1.87Zm.89-.06h-.42V3h.42v3.69Z" fill="#F99D1E"/></svg>