<!-- by TradingView --><svg width="18" height="18" xmlns="http://www.w3.org/2000/svg"><path fill="#0065B3" d="M0 0h18v18H0z"/><path d="M8.375 12.465c-.938 1.347-2.33 1.842-2.813 1.347-.415-.426-.351-1.543.355-2.95a3.5 3.5 0 014.293-5.417c.723-.629 1.406-1.132 1.915-1.445-.16.165-.353.354-.568.567-.314.31-.677.666-1.056 1.06a3.496 3.496 0 01.962 4.737c1.85.558 4.85.754 4.85.754l-5.715.184A3.484 3.484 0 018.5 12a3.484 3.484 0 01-2.003-.63c-.512 1.303-.275 1.8.19 1.865.516.072 1.313-.385 1.688-.77zm-1.784-1.323a3.245 3.245 0 001.909.617c.653 0 1.26-.192 1.77-.522L9 9.002s.84.72 1.875 1.154c.109.046.226.09.35.132a3.256 3.256 0 00-.893-4.484A21.05 21.05 0 008.75 7.655l-.065.087c-.864 1.155-1.389 1.857-1.998 3.184a9.651 9.651 0 00-.096.216zm-.555-.508c.085-.156.177-.316.277-.478.715-1.158 1.154-1.843 2.062-2.885a18.858 18.858 0 011.643-1.656 3.26 3.26 0 00-3.982 5.019z" fill="#fff"/></svg>