<!-- by TradingView --><svg xmlns="http://www.w3.org/2000/svg" width="18" height="18"><path fill="#F0F3FA" d="M0 0h18v18H0z"/><path fill-rule="evenodd" d="M14.98 10.84a2.5 2.5 0 11.36-1.03H11.8c.02.3.25.92 1.07.94.32 0 .8-.17 1.01-.64l1.1.73zm-2.14-2.59c.69.01.91.42.94.63h-1.97c.06-.22.34-.64 1.03-.63z" fill="#319088"/><path d="M6.45 5H8v7H6.45V5z" fill="#D98628"/><path d="M9.33 7c.84.02 1.33.52 1.47.77l-.85.82a1 1 0 00-.66-.43c-.11-.02-.4 0-.4.2 0 .17.2.27.29.3l.61.25c1.08.4 1.27 1.13 1.28 1.54 0 .42-.29 1.57-1.8 1.55-1.2-.02-1.8-.68-1.95-1.02l1.12-.76c.23.5.72.6.94.59.11 0 .34-.04.35-.23 0-.24-.6-.44-1.08-.6-.49-.16-1.16-.78-1.1-1.54.05-.76.74-1.46 1.78-1.44z" fill="#B3CC34"/><circle cx="15.2" cy="11.2" r=".8" fill="#F1E67E"/><path fill-rule="evenodd" d="M6.61 10.84a2.5 2.5 0 11.37-1.03H3.44c.01.3.25.92 1.06.94.32 0 .81-.17 1.02-.64l1.1.73zM4.47 8.25c.7.02.92.5.95.75H3.45a.99.99 0 011.02-.75z" fill="#901D58"/></svg>