<!-- by TradingView --><svg width="18" height="18" xmlns="http://www.w3.org/2000/svg"><path fill="#027D78" d="M0 0h18v18H0z"/><path d="M6.076 4.5V4h2.848c.42 0 .804.058 1.154.174.349.11.649.27.9.477.256.202.454.45.594.745.145.289.218.612.218.968v.832c0 .207-.043.402-.13.586a1.79 1.79 0 01-.324.491 1.814 1.814 0 01-.437.362 1.312 1.312 0 01-.49.166c.14.024.3.077.481.16.18.076.353.194.516.354a1.8 1.8 0 01.42.6c.116.246.174.547.174.904v.882c0 .347-.076.662-.227.947a2.2 2.2 0 01-.603.73 2.952 2.952 0 01-.892.463A3.535 3.535 0 019.212 14H6.076V4.5zm1.975 4.923v3.34h.664c.227 0 .422-.036.585-.108.163-.072.297-.166.402-.282a1.14 1.14 0 00.323-.78v-.868c0-.237-.04-.437-.122-.6a1.106 1.106 0 00-.323-.398 1.212 1.212 0 00-.446-.232 1.75 1.75 0 00-.498-.072h-.585zm0-4.172v3.044l.559-.012c.116 0 .253-.014.41-.043.164-.029.318-.082.464-.16.151-.076.28-.18.384-.31a.824.824 0 00.157-.52v-.825c0-.405-.128-.704-.384-.897-.256-.192-.586-.289-.988-.289l-.602.012z" fill="#fff"/></svg>