<!-- by TradingView --><svg width="18" height="18" xmlns="http://www.w3.org/2000/svg"><path fill="url(#paint0_linear)" d="M0 0h18v18H0z"/><path d="M5.335 3c-.304 0-.45.347-.227.539L11.47 9l.336-.289C14.174 6.68 12.63 3 9.408 3H5.335z" fill="url(#paint2_linear)"/><path d="M8.73 11.351L5.11 14.46c-.224.193-.077.541.228.541h4.148c3.193 0 4.725-3.648 2.378-5.662L11.47 9 9.037 6.91c1.107 1.321 1.152 3.183-.306 4.44z" fill="url(#paint3_linear)"/><defs><linearGradient id="paint0_linear" x1="3.349" y1="3.122" x2="21.904" y2="24.434" gradientUnits="userSpaceOnUse"><stop stop-color="#1A1E21"/><stop offset="1" stop-color="#06060A"/></linearGradient><linearGradient id="paint2_linear" x1="5" y1="6" x2="12.952" y2="6" gradientUnits="userSpaceOnUse"><stop stop-color="#F25C19"/><stop offset=".599" stop-color="#FBC707"/></linearGradient><linearGradient id="paint3_linear" x1="11.842" y1="8.354" x2="7.879" y2="16.058" gradientUnits="userSpaceOnUse"><stop stop-color="#1C63B7"/><stop offset=".515" stop-color="#33BDF2"/></linearGradient></defs></svg>