<!-- by TradingView --><svg width="18" height="18" viewBox="0 0 18 18" xmlns="http://www.w3.org/2000/svg"><path fill="#F0F3FA" d="M0 0h18v18H0z"/><path d="M10.98 4H5v10h6.03a2.97 2.97 0 0 0 1.72-5.38A2.64 2.64 0 0 0 10.98 4Z" fill="#11345A"/><path d="M11.29 9.88c0 1.1-.98 2.01-2.19 2.01-1.2 0-2.18-.9-2.18-2.01 0-1.12 1.11-1.41 2.18-3.72.93 2.13 2.19 2.6 2.19 3.72Z" fill="url(#afkgotuwg)"/><path d="M7.86 10.8c-.94-.89-.31-1.79.12-2.12-.69.91-.16 1.6.18 1.82.08.07.2.23.08.38-.11.14-.3.01-.38-.07Z" fill="#11345A"/><defs><linearGradient id="afkgotuwg" x1="8.27" y1="7.26" x2="10.08" y2="11.62" gradientUnits="userSpaceOnUse"><stop stop-color="#C79217"/><stop offset=".19" stop-color="#E1B71F"/><stop offset=".8" stop-color="#9D6023"/><stop offset="1" stop-color="#CC911F"/></linearGradient></defs></svg>