<!-- by TradingView --><svg width="18" height="18" viewBox="0 0 18 18" xmlns="http://www.w3.org/2000/svg"><path fill="#F0F3FA" d="M0 0h18v18H0z"/><path d="M7.37 4.55a.2.2 0 0 1 .11-.25 5.24 5.24 0 0 1 4.78.66c.09.07.1.2.04.28L9.23 9.23 7.37 4.55Z" fill="#DFB431"/><path d="M9.8 13.4a4.24 4.24 0 0 1-4.03-1.73l3.46-2.44.56 4.16Z" fill="#A8B242"/><path d="M6.91 5.59A4 4 0 0 1 13 9.02L9 9 6.91 5.59Z" fill="#DD6727"/><path d="M13.77 8.7c.11-.01.2.07.22.18a4.76 4.76 0 0 1-1.5 3.82.2.2 0 0 1-.27-.02L9.23 9.23l4.54-.53Z" fill="#E49D2B"/><path d="m9.23 9.23.55 5.6c.01.1.1.18.22.17a5.97 5.97 0 0 0 2.93-1.24.19.19 0 0 0 .07-.14.2.2 0 0 0-.05-.14l-.6-.67c-.47.39-1.05.75-1.63.93L9.23 9.23Z" fill="#D8493B"/><path d="M4.63 6.34a.2.2 0 0 1-.06-.27c.48-.7 1.12-1.3 1.86-1.72a.2.2 0 0 1 .26.08l2.54 4.8-4.6-2.89Z" fill="#654A92"/><path d="M5.29 12.35a.2.2 0 0 1-.28-.03 5.22 5.22 0 0 1-.1-6.05.2.2 0 0 1 .28-.04l4.04 3-3.94 3.12Z" fill="#6098CA"/><path d="M6.66 11.8a.2.2 0 0 1-.28 0 3.84 3.84 0 0 1-.95-2.04.2.2 0 0 1 .17-.21l3.63-.32-2.57 2.57Z" fill="#654A92"/><circle cx="9" cy="9" r="3" fill="#fff"/><circle cx="9" cy="9" r="2" fill="#D8493B"/></svg>