<!-- by TradingView --><svg xmlns="http://www.w3.org/2000/svg" width="18" height="18" viewBox="0 0 18 18"><path fill="#F0F3FA" d="M0 0h18v18H0z"/><path d="M4.57 13.31c.67-.01 2.16.2 2.62-.44l.48-.5.27-.01.27-.36c0-.69.07-1.83-.48-2.32-.26-.19-.74-.4-1.06-.27-.23.13-.32.54-.37.77-.08.4-.03.75.1 1.14.09.28.3.5.39.79.02.1.07.2.14.27l.29.28c-.4.04-.43-.23-.3.3-.18.04-.76-.31-.4.1-.2.06-.68-.3-.38.05-.04 0-.1 0-.14-.02-.96-.37-1.38-1.6-1.3-2.54.03-.59.1-1.13.03-1.72-.07-.44-.01-.84.05-1.28.05-.4-.04-.8-.02-1.22 0-1.2 1.53-2.34 2.3-3.15.14-.13.34-.2.53-.18.49.05.99.5 1.37.78l.35.27c-.27.07-.48.28-.65.5-.41-.09-.84-.04-1.24.1l-.17.07a1.1 1.1 0 0 0-.43-.4.56.56 0 0 0-.47-.07c-.4.2-.4.8-.25 1.16l.08.14c-.04-.3-.08-.9.28-1.03.24-.1.47.18.6.35-.83.28-1.12 1.4-.87 2.16l.11.25a1.73 1.73 0 0 1 .43-1.84 1.94 1.94 0 0 1 .72-.43c-.35.39-.93.83-.86 1.4.01.2.15.4.34.42.15.02.29-.08.43-.1.09.16.22.3.37.4a.45.45 0 0 1-.12-.23c-.1-.43.42-.56.72-.37.03.01.24.14.23.28-.05.19-.28.23-.36.4.1-.01.2 0 .28.06.1.06.17.16.2.27l.03.12c-.3-.29-.55.14-.48.42.18.02.25.08.28.13.02.04.14.23.2.18.04-.03-.08-.18-.1-.22-.03-.2.2-.3.35-.34a.35.35 0 0 0-.19.18c-.05.13.06.15.14.05.07-.08.76-.1.35-.25a.2.2 0 0 1 .13 0c.11.04.17.18.14.3l.02-.04c.04-.17.04-.35 0-.51-.06-.24-.2-.45-.27-.68a1.2 1.2 0 0 1-.03-.15c.04.04.08.06.13.08.19.04.3-.17.26-.33-.01.02-.09.2-.22.21-.2.04-.13-.18-.05-.26.05-.05.22-.23.3-.18.04.02.05.08.05.14v.17a2.1 2.1 0 0 0 .07.75c.2-.3.3-.65.31-1.01.04-.48-.32-1.03-.83-1.04-.47.05-.31.71-.27 1.01 0 .1-.02.2-.04.28-.03-.63-.6-1.3-1.27-1.2-.09 0-.16.02-.2.03.32-.34.8-.3 1.23-.22.26-.22.64-.2.93-.05a.9.9 0 0 0-.55-.38.71.71 0 0 0-.13 0c.04-.07.27-.5.52-.55.23-.08.3.17.3.34l.13.68c.14.61.62 1.05.78 1.65.05.36.08.75.07 1.1-.04.3-.18.51-.28.78-.15.36-.26.78-.26 1.17.32-.45.51-.97.82-1.43.17-.25.26-.55.26-.86l-.08-1.73c.07.06.13.13.19.21.15.23.23.5.24.8.04.32-.02.32 0 .73.02.22.04.44.08.66a4.38 4.38 0 0 1 .1 1.16c.16-.19.26-.42.28-.67.03-.54-.12-1.07-.02-1.61.06-.37.07-.76-.03-1.12a5.32 5.32 0 0 0-1.6-2.25c-.23-.2-.47-.38-.72-.54 1.22.69 2.33 1.66 2.56 3.1 0 .28.03.56.1.83.14.42.28.79.24 1.25-.03.5-.18.91 0 1.4.02.69-.04 1.37-.03 2.05 0 .12.01.24.04.35l.95.77.39 1H4l.57-.69ZM11.36 12a1.91 1.91 0 0 0-.14-.5c-.14-.36-.5-.54-.69-.87a.63.63 0 0 0-.36-.35c-.2.62-.34 1.25-.45 1.89.55-.06 1.08-.16 1.64-.16Z" fill="#101849"/></svg>