<!-- by TradingView --><svg width="18" height="18" viewBox="0 0 18 18" xmlns="http://www.w3.org/2000/svg"><path fill="url(#ar2p4ttdv)" d="M0 0h18v18H0z"/><path d="M9.67 13.28c-.74 0-2.54-.13-2.67-.26V9.05c0-.02.01-.04.05-.05h2.37c.55.03 1.1.09 1.55.45.73.57 1.03 1.17 1.03 1.76 0 1.43-1.23 2.07-2.33 2.07ZM7 4.84c0-.04.03-.06.05-.08.1-.02 1.6-.05 2.03-.05 1.32 0 2 .75 2 1.86 0 .58-.27 1.2-.8 1.56-.16.1-.26.12-.5.12-.2 0-2.47-.01-2.71-.03-.04-.01-.07-.04-.07-.06V4.84Zm3.86 3.58a2.4 2.4 0 0 0 1.25-2.11c0-.97-.54-2.31-2.75-2.31H6v10h3.62c2.3 0 3.38-1.44 3.38-2.95 0-1.5-1.04-2.3-2.14-2.63Z" fill="#fff"/><defs><linearGradient id="ar2p4ttdv" x1="9" y1="0" x2="9" y2="18" gradientUnits="userSpaceOnUse"><stop stop-color="#002653"/><stop offset="1" stop-color="#011935"/></linearGradient></defs></svg>