<!-- by TradingView --><svg xmlns="http://www.w3.org/2000/svg" width="18" height="18"><path fill="url(#ajxkyuocy)" d="M0 0h18v18H0z"/><path d="M13.48 8.24l-1.43.33L14.5 4l-2.97 1 .37-.73c-2.7.38-5.16.94-6.65 2.45a4.3 4.3 0 000 6.06 4.28 4.28 0 005.98 0c1.8-1.81 2.25-4.54 2.25-4.54zm-6.71 3a2.19 2.19 0 010-3.08c.84-.86 2.19-.86 3.03 0 .84.85.84 2.22 0 3.07-.83.85-2.2.85-3.03 0z" fill="#fff"/><defs><linearGradient id="ajxkyuocy" x1="15.06" y1="2.96" x2="2.17" y2="14.81" gradientUnits="userSpaceOnUse"><stop stop-color="#FFBB03"/><stop offset="1" stop-color="#FF009C"/></linearGradient></defs></svg>