<!-- by TradingView --><svg xmlns="http://www.w3.org/2000/svg" width="18" height="18" viewBox="0 0 18 18"><path fill="#F0F3FA" d="M0 0h18v18H0z"/><circle cx="9" cy="9" r="5" fill="#76AAC9"/><circle opacity=".4" cx="11" cy="7" r="1" fill="#FEFEFE"/><path opacity=".6" d="M8.32 13.95a4.97 4.97 0 0 1-1.72-.56l.2-.43c.54-1.07 1.09-2.18.81-3.38-.07-.34-.18-.67-.28-1-.23-.72-.45-1.43-.4-2.19.1-1.03.6-1.84.97-2.27.2-.04.41-.08.62-.1.46.2.96.67.85.9L8.8 6.09c-.4.84-.24 1.6-.01 2.47.3 1.18.61 2.44.28 3.65-.18.68-.5 1.33-.75 1.75Z" fill="#fff"/></svg>