<!-- by TradingView --><svg width="18" height="18" viewBox="0 0 18 18" xmlns="http://www.w3.org/2000/svg"><path fill="#032F5F" d="M0 0h18v18H0z"/><path d="M15.92 7h-.81l-.1.4c0 .13-.02.27-.07.45l-.03.17-.08.02-.21.82c.03.14.01.35-.07.65l-.14.57c-.08.28-.17.5-.29.65l-.07.27h.89L16 7h-.08ZM11.13 7.75l-.13.5a.98.98 0 0 1-.47.62c0 .3.17.42.54.45l.23.01h2.39l-.24 1h-2.7l.1-.53.02-.03-.26.06-.1.42a1 1 0 0 1-.44.61c.12.1.33.14.64.14h2.37c.72 0 1-.2 1.2-.95l.15-.55c.2-.75.02-.83-.7-.83h-2.4l.24-1h2.5l-.12.48.13-.02.7-.17.03-.08c.18-.7-.03-.88-.72-.88h-2.17c-.31 0-.54.04-.72.14a.83.83 0 0 0-.08.06c.07.13.08.3.01.55Z" fill="#fff"/><path d="M10.38 10.22c-.14.53-.59.78-1.34.78H6l.03-.11c.24-.15.4-.37.47-.65l.14-.52c.07-.28.03-.52-.13-.65l.06-.23a.9.9 0 0 0 .43-.6l.13-.5c.09-.3.05-.52-.1-.64l.03-.1h3.28c.59 0 .8.22.66.77l-.13.5c-.1.38-.4.61-.84.67.43.06.6.34.49.76l-.14.52ZM7.5 8.67H9.6c.22-.01.36-.14.42-.35l.1-.38c.06-.24-.06-.27-.33-.27H7.76l-.26 1Zm-.43 1.66H9.1c.3 0 .45-.11.53-.4l.08-.31c.06-.22 0-.26-.16-.29H7.33l-.26 1Z" fill="#fff"/><path d="M6.38 10.22c-.15.53-.59.78-1.34.78H2l1.06-4h3.28c.58 0 .8.22.65.77l-.13.5c-.1.38-.4.61-.83.67.42.06.6.34.48.76l-.13.52Zm-2.9-1.55H5.5l.16-.01c.17-.03.3-.16.36-.34l.1-.38c.06-.24-.06-.27-.34-.27H3.76l-.29 1Zm-.41 1.66H5.1c.3 0 .45-.11.52-.4l.08-.31c.07-.25-.02-.27-.23-.29H3.32l-.25 1Z" fill="#fff"/></svg>