<!-- by TradingView --><svg width="18" height="18" viewBox="0 0 18 18" xmlns="http://www.w3.org/2000/svg"><path fill="#F0F3FA" d="M0 0h18v18H0z"/><path d="M4.46 9.22c.01-.87.33-1.7.89-2.31a2.84 2.84 0 0 1 2.1-.95c.78 0 1.53.34 2.09.95.55.6.83 1.73.84 2.6v.18c.27.13.53.28.79.43.08-.63.08-1.56-.1-2.17a4.34 4.34 0 0 0-.86-1.63 3.8 3.8 0 0 0-1.42-1.05 3.47 3.47 0 0 0-3.31.33c-.5.33-.91.78-1.23 1.31a4.51 4.51 0 0 0-.42 3.66l.71-.59c-.05-.25-.08-.5-.08-.76Z" fill="#F47B20"/><path d="M9.57 9.14C5.47 7.72 3 11.56 3 11.56c2.32-1.08 2.97-.45 4.95.82 2.34 1.5 3.65-.18 3.8-.4 2.78 1.48 4.25-.75 4.25-.75-2.48 1.78-4.66-1.48-6.43-2.09ZM6.5 10.26c-.07-.03-.14-.04-.22-.06 1.83-.36 3.17.33 5.06 1.54l.41.24c-2.02 1.42-3.78-1.29-5.25-1.72Z" fill="#005CAB"/></svg>