<!-- by TradingView --><svg width="18" height="18" viewBox="0 0 18 18" xmlns="http://www.w3.org/2000/svg"><path fill="url(#a4kflq34c)" d="M0 0h18v18H0z"/><path d="M8.77 11.38c-.28.28-.7.52-1.08.68a6.8 6.8 0 0 1-3.26.49c.2-.48.67-.81 1.12-1.02.07.07.16.11.26.11.2 0 .38-.18.38-.41 0-.23-.17-.41-.38-.41-.19 0-.35.14-.38.34-.63.28-1.26.78-1.42 1.51-.03.14.05.24.17.26a7.2 7.2 0 0 0 3.65-.5 3.8 3.8 0 0 0 1.2-.77c.17-.18-.1-.46-.26-.28Zm-2.96-.4c.12 0 .23.11.23.25 0 .13-.1.25-.23.25s-.23-.12-.23-.25c0-.14.1-.25.23-.25Z" fill="url(#b4kflq34c)"/><path d="M9.23 11.38c.28.28.7.52 1.08.68a6.8 6.8 0 0 0 3.26.49c-.2-.48-.67-.81-1.12-1.02a.36.36 0 0 1-.26.11c-.2 0-.38-.18-.38-.41 0-.23.17-.41.38-.41.19 0 .35.14.38.34.63.28 1.26.78 1.42 1.51.03.14-.05.24-.17.26a7.2 7.2 0 0 1-3.65-.5 3.8 3.8 0 0 1-1.2-.77c-.17-.18.1-.46.26-.28Zm2.96-.4c-.12 0-.23.11-.23.25 0 .13.1.25.23.25s.23-.12.23-.25c0-.14-.1-.25-.23-.25Z" fill="url(#c4kflq34c)"/><path d="M13.7 6.58c-1.2-.24-2.32.55-2.94 1.61-.2 0-.38.19-.38.41 0 .23.17.42.38.42.22 0 .39-.19.39-.42a.43.43 0 0 0-.06-.22c.37-.64.9-1.15 1.59-1.35a2.34 2.34 0 0 1 .76-.08 6.4 6.4 0 0 1-.78 2.15 4.44 4.44 0 0 1-3.4 2.15c-.24.01-.24.4 0 .4.17 0 .35-.04.52-.07A4.84 4.84 0 0 0 12 10.47a6.06 6.06 0 0 0 1.83-3.65c.02-.1-.02-.22-.13-.24Zm-2.94 2.27c-.12 0-.23-.11-.23-.25 0-.13.1-.24.23-.24s.23.1.23.24c0 .14-.1.25-.23.25Z" fill="url(#d4kflq34c)"/><path d="M4.46 6.58c1.2-.24 2.32.55 2.94 1.61.21 0 .38.19.38.41 0 .23-.17.42-.38.42s-.38-.19-.38-.42c0-.08.02-.16.06-.22a2.73 2.73 0 0 0-1.6-1.35 2.34 2.34 0 0 0-.75-.08c.14.76.38 1.5.77 2.15a4.44 4.44 0 0 0 3.4 2.15c.24.01.24.4 0 .4-.17 0-.34-.04-.51-.07a4.84 4.84 0 0 1-2.23-1.11 6.06 6.06 0 0 1-1.83-3.65c-.02-.1.02-.22.13-.24ZM7.4 8.85c.13 0 .23-.11.23-.25 0-.13-.1-.24-.23-.24s-.23.1-.23.24c0 .14.1.25.23.25Z" fill="url(#e4kflq34c)"/><path d="M9.16 14.11V6c0-.14-.07-.25-.18-.25-.12 0-.14.11-.14.25v8.12c-.11.09-.27.24-.27.41 0 .27.18.48.4.48.23 0 .41-.21.41-.48 0-.17-.1-.33-.22-.4Zm-.18.7c-.14 0-.25-.13-.25-.29 0-.16.11-.29.25-.29.13 0 .24.13.24.3 0 .15-.1.28-.24.28Z" fill="url(#f4kflq34c)"/><path d="M9.28 3.67a.44.44 0 0 0 .09-.26c0-.22-.17-.41-.38-.41-.2 0-.37.19-.37.41 0 .1.02.18.07.25a8.12 8.12 0 0 0 .07 7.65c.05.07.11.1.17.09.08.08.23.11.31-.01a8.13 8.13 0 0 0 .04-7.71ZM9 3.17c.13 0 .23.1.23.24 0 .14-.1.25-.23.25-.12 0-.22-.11-.22-.25 0-.13.1-.24.22-.24Zm.03 7.87a7.07 7.07 0 0 1-.84-4.68c.13-.87.42-1.7.8-2.47.4.8.7 1.64.84 2.54.24 1.5 0 3.3-.8 4.6Z" fill="url(#g4kflq34c)"/><defs><linearGradient id="a4kflq34c" x1="9" y1="0" x2="9" y2="18" gradientUnits="userSpaceOnUse"><stop stop-color="#1F1F57"/><stop offset="1" stop-color="#181945"/></linearGradient><linearGradient id="b4kflq34c" x1="4.74" y1="12.97" x2="9.13" y2="11.84" gradientUnits="userSpaceOnUse"><stop offset=".42" stop-color="#48ACE1"/><stop offset="1" stop-color="#48ACE1" stop-opacity="0"/></linearGradient><linearGradient id="c4kflq34c" x1="13.26" y1="12.97" x2="8.87" y2="11.84" gradientUnits="userSpaceOnUse"><stop offset=".42" stop-color="#48ACE1"/><stop offset="1" stop-color="#48ACE1" stop-opacity="0"/></linearGradient><linearGradient id="d4kflq34c" x1="13.84" y1="7.37" x2="8.77" y2="11.24" gradientUnits="userSpaceOnUse"><stop offset=".5" stop-color="#22AC98"/><stop offset="1" stop-color="#22AC98" stop-opacity="0"/></linearGradient><linearGradient id="e4kflq34c" x1="4.33" y1="7.37" x2="9.39" y2="11.24" gradientUnits="userSpaceOnUse"><stop offset=".5" stop-color="#22AC98"/><stop offset="1" stop-color="#22AC98" stop-opacity="0"/></linearGradient><linearGradient id="f4kflq34c" x1="9.65" y1="14.15" x2="9.62" y2="5.74" gradientUnits="userSpaceOnUse"><stop offset=".64" stop-color="#E5672F"/><stop offset=".92" stop-color="#E5672F" stop-opacity="0"/></linearGradient><linearGradient id="g4kflq34c" x1="9" y1="3" x2="9" y2="11.47" gradientUnits="userSpaceOnUse"><stop offset=".35" stop-color="#E5672F"/><stop offset="1" stop-color="#E5672F" stop-opacity="0"/></linearGradient></defs></svg>