<!-- by TradingView --><svg xmlns="http://www.w3.org/2000/svg" width="18" height="18" viewBox="0 0 18 18"><path fill="#F0F3FA" d="M0 0h18v18H0z"/><path fill-rule="evenodd" d="M6.74 6H4v6h2.15c.9-.05 2.27-.46 2.28-1.8 0-1.08-1.07-1.43-1.61-1.47.45-.1 1.37-.52 1.38-1.49.02-.96-.97-1.23-1.46-1.24Zm-.7.34H5V8.6h.6c.88 0 1.64-.38 1.63-1.29 0-.72-.8-.97-1.19-.97ZM5 9h1.14c.43 0 1.3.3 1.3 1.14.02 1.05-.82 1.5-1.78 1.5H5V9Z" fill="#262324"/><path d="M13.84 11.39c-.48.38-1.11.61-1.85.61C10.36 12 9 10.76 9 9c0-1.8 1.36-3 3-3 .65 0 1.43.1 2 .42l-.26.81c-.4-.43-.94-.7-1.54-.7C11 6.53 9.95 7.5 10 9c0 1.59.99 2.47 2.2 2.47.77-.03 1.29-.25 1.63-.6l.01.52Z" fill="#C92127"/></svg>