<!-- by TradingView --><svg width="18" height="18" viewBox="0 0 18 18" xmlns="http://www.w3.org/2000/svg"><path fill="#F0F3FA" d="M0 0h18v18H0z"/><path fill-rule="evenodd" d="M4.83 6H2v6h3.2c.78 0 1.3-.7 1.3-1.55 0-.73-.39-1.35-1-1.5.45-.27.76-.79.76-1.38C6.26 6.7 5.62 6 4.83 6Zm-.14 1H3v1.5h1.69c.45 0 .81-.34.81-.75S5.14 7 4.69 7Zm.22 2.5H3V11h1.9c.38 0 .7-.34.7-.75s-.32-.75-.7-.75ZM9.86 12c.85 0 1.63-.4 2.15-1.03l-.69-.76c-.33.48-.87.79-1.47.79C8.83 11 8 10.1 8 9s.83-2 1.85-2c.57 0 1.07.28 1.41.71l.68-.76A2.79 2.79 0 0 0 9.86 6 2.93 2.93 0 0 0 7 9c0 1.66 1.28 3 2.86 3ZM13 6h1v6h-1V6Zm3 0h-1v6h1V6Z" fill="#303030"/></svg>