<!-- by TradingView --><svg xmlns="http://www.w3.org/2000/svg" width="18" height="18"><path fill="url(#a2fjm0gfe)" d="M0 0h18v18H0z"/><path d="M11.8 5.86c.45-.06.74-.53.66-1.04-.08-.51-.5-.88-.94-.81-.44.06-.73.53-.66 1.04.04.24.15.45.31.6l-.33.46a1 1 0 00-.42-.09.95.95 0 00-.97.94c0 .27.12.51.3.68l-.35.51a.99.99 0 00-.72-.05l-.18-.44c.34-.16.54-.5.47-.85-.08-.42-.54-.7-1.03-.6-.48.08-.81.5-.73.92.08.43.54.7 1.03.61h.03l.2.45a.94.94 0 00-.45.62l-.7-.05a.57.57 0 00-.14-.34c-.23-.27-.67-.27-.97-.02-.3.25-.36.67-.13.93.23.27.67.27.97.02.12-.1.2-.23.24-.36l.71.05c.02.26.13.48.32.65l-.36.5a.99.99 0 00-.44-.1.95.95 0 00-.97.94c0 .28.12.53.32.7l-.33.47a.7.7 0 00-.31-.08c-.45 0-.81.42-.81.94s.36.94.8.94c.45 0 .81-.42.81-.94a1 1 0 00-.3-.73l.34-.47c.13.07.29.1.45.1.53 0 .97-.41.97-.93a.92.92 0 00-.33-.7l.35-.51a.99.99 0 00.69.09l.22.52c-.39.22-.57.64-.42.98.17.37.69.51 1.15.32.47-.2.71-.67.54-1.04-.16-.35-.61-.5-1.05-.36l-.22-.5a.94.94 0 00.5-.64l.72.03c0 .13.06.25.15.36.23.25.65.25.94 0 .1-.08.18-.2.21-.31h.75c-.02.16.02.32.09.44l-.64.77a.78.78 0 00-.47.13c-.3.18-.42.51-.28.73.15.22.5.24.8.05.3-.19.43-.52.28-.73a.37.37 0 00-.09-.1l.57-.68.06.02c.3.12.7-.12.88-.54.18-.41.07-.84-.24-.96-.3-.12-.7.12-.88.54l-.04.1h-.75a.56.56 0 00-.15-.35c-.23-.26-.65-.26-.94-.02a.8.8 0 00-.21.32l-.74-.03a.93.93 0 00-.34-.68l.35-.5c.14.08.3.12.47.12.54 0 .97-.42.97-.94a.93.93 0 00-.35-.72l.32-.45c.14.07.29.1.44.07zm1.87 0c.27-.01.47-.3.44-.65-.02-.35-.26-.61-.53-.6-.26.02-.46.32-.43.66.02.35.26.61.52.6zm-4.3 0c-.26 0-.57-.12-.56-.4 0-.22.22-.43.52-.5.35-.1.68.04.76.28.1.39-.4.62-.73.62zM6.96 6c.14.02.31 0 .46-.04.33-.1.75-.4.73-.69a.3.3 0 00-.06-.16c-.16-.21-.6-.22-.99-.01-.34.18-.53.45-.47.66.02.07.05.11.1.15l-.45.57a.68.68 0 00-.5.16.89.89 0 00-.22.24l-.64.1c0-.03 0-.06-.02-.09a.16.16 0 00-.09-.06c-.16-.06-.47.1-.67.35-.18.22-.23.43-.14.53.13.12.42-.03.6-.18.08-.08.18-.19.24-.3l.63-.1c-.01.1 0 .19.05.26.13.2.46.2.74-.01.27-.21.39-.55.26-.75a.31.31 0 00-.02-.04L6.96 6zM5.81 6c-.18.14-.46.26-.54.1-.07-.11.02-.34.22-.55.24-.25.53-.37.66-.28.03.02.05.05.06.08.05.18-.2.5-.4.65zM3.6 9.14c-.1.21-.3.46-.46.4-.13-.05-.18-.27-.1-.54.07-.31.28-.57.46-.59.04 0 .08 0 .1.03.16.1.1.46 0 .7zm-.02 2.08c.14.02.27-.1.34-.27l.88.1c.07.26.28.45.54.45.31 0 .56-.28.56-.63 0-.34-.25-.62-.56-.62-.3 0-.54.25-.57.57l-.8-.1a.55.55 0 00-.07-.3l.5-.81c.3.06.64-.16.79-.53.16-.42.03-.86-.29-.99-.32-.13-.7.1-.87.5-.13.36-.06.73.16.91l-.49.79c-.18-.02-.35.17-.38.42-.03.26.08.49.26.5zm9.02-3.48c.31 0 .57-.28.57-.62 0-.35-.26-.63-.57-.63-.31 0-.56.28-.56.63 0 .34.25.62.56.62zm1.79 1.84c.17.06.4-.15.53-.47.13-.33.1-.64-.07-.7-.17-.06-.4.15-.53.47-.13.32-.1.64.07.7zm-.58 1.3c-.2.25-.5.37-.68.27-.18-.1-.16-.37.04-.6.2-.25.5-.37.68-.27.18.1.16.37-.04.6zm-2.03 1.62c.01.16.2.2.45.07.23-.13.42-.37.41-.53 0-.17-.2-.2-.44-.07-.24.12-.43.36-.42.53zm-1.09.47c.42-.16.66-.5.55-.75-.1-.26-.53-.34-.94-.17-.41.16-.66.5-.55.76.07.16.27.25.5.25.14 0 .3-.03.44-.09zm-2.2.1c.35 0 .64-.22.64-.48s-.29-.47-.64-.47c-.36 0-.65.21-.65.47s.29.47.65.47z" fill="#fff"/><defs><linearGradient id="a2fjm0gfe" x1="9" y1="0" x2="9" y2="18" gradientUnits="userSpaceOnUse"><stop stop-color="#0087D4"/><stop offset="1" stop-color="#0078BF"/></linearGradient></defs></svg>