<!-- by TradingView --><svg width="18" height="18" viewBox="0 0 18 18" xmlns="http://www.w3.org/2000/svg"><path fill="#181B1E" d="M0 0h18v18H0z"/><path d="M4 4h5.61c.23 0 .45.1.6.25l.74.75H5v6.85l-1-1V4Zm2.14 9 1 1h5.3c.86 0 1.56-.7 1.56-1.56v-.35c0-.44-.16-.86-.44-1.2l-.57-.65.01.2v.44c0 1.17-.91 2.12-2.03 2.12H6.14Zm6.84-2.82A1.06 1.06 0 0 0 14 9.12v-.17c0-.54-.2-1.05-.58-1.43L13 7.1v.36c0 .74-.6 1.2-1.35 1.2H11V9h.65c.66 0 1.21.52 1.33 1.18ZM9.54 7H8v1h1.54c.25 0 .46-.18.46-.41V7.4c0-.23-.2-.41-.46-.41ZM8 10h1.54c.25 0 .46.18.46.41v.18c0 .23-.2.41-.46.41H8v-1Z" fill="#fff"/></svg>