<!-- by TradingView --><svg width="18" height="18" xmlns="http://www.w3.org/2000/svg"><path fill="url(#paint0_linear)" d="M0 0h18v18H0z"/><path d="M13.633 6.181a2.214 2.214 0 00-.541-.67.848.848 0 00-.434-.202 1.939 1.939 0 00-.433-.067h-.036c-.18 0-.542.033-.759.302-.108.1-.144.268-.108.436.036.134.108.235.253.268 0 0 .036 0 .108.034-.036 0-.072.067-.072.067-.072.1-.253.268-.759.268h-.036c-.252 0-.47-.067-.722-.369-.144-.201-.253-.503-.253-1.04 0-.268-.036-.503-.108-.671a.543.543 0 00-.253-.302c-.072-.067-.18-.1-.325-.134C9.011 4 8.795 4 8.614 4c-.217 0-.326.034-.398.134 0 0 0 .034-.036.034h-.144c-.109 0-.217.033-.325.033a.979.979 0 00-.47.202.609.609 0 00-.18.268c-.036.1 0 .168.036.201 0 0 0 .034.036.034.072-.067.18-.1.361-.1.217 0 .542.1.65.268.144.235.108.403.072.637-.072.57-.325.873-.794.94h-.253c-.361 0-.614-.1-.722-.302-.073-.067-.073-.1-.073-.1s.037 0 .073-.034c.144-.067.216-.134.252-.269a.505.505 0 00-.108-.436c-.18-.168-.433-.268-.758-.268-.18 0-.325.033-.434.067-.433.1-.758.369-1.01.872a3.36 3.36 0 00-.362 1.275 7.1 7.1 0 000 1.242c.072.604.18.973.325 1.342.145.403.361.772.578 1.108.072.134.108.201.144.235a.47.47 0 00.109-.135 5.75 5.75 0 00.397-.47c.108-.067.217-.268.289-.402l.036-.067.072.067a.295.295 0 01.109.235c0 .1-.037.201-.073.402-.072.202-.18.47-.325.672 0 .033-.036.067-.036.067-.072.134-.108.201-.072.235a.466.466 0 00.253-.135c.108-.067.36-.268.686-.704.253-.302.433-.638.614-1.007l.036-.067.072.033c.036 0 .072.034.072.068.037.067.037.134.037.234-.037.235-.181.57-.29.806-.18.402-.541.872-.794 1.208 0 0-.072.067-.072.1a.477.477 0 00.144.101l.109.067c.36.269.686.504 1.12.705.324.168 1.01.503 1.444.604.433-.1 1.12-.436 1.444-.604a8.73 8.73 0 001.12-.705l.108-.067c.072-.033.108-.1.145-.1 0 0-.037-.034-.037-.068l-.036-.033c-.252-.336-.614-.806-.794-1.208-.109-.235-.253-.604-.289-.806 0-.1 0-.167.036-.235 0-.033.036-.033.072-.067.036-.033.072-.033.072-.033l.037.067c.18.37.397.671.614 1.007.325.436.577.637.686.704.108.067.216.135.252.135h.037c.036-.034 0-.101-.073-.235 0-.034-.036-.067-.036-.067a3.675 3.675 0 01-.325-.672c-.072-.2-.108-.302-.108-.402 0-.1.036-.202.108-.235l.072-.034.037.067c.072.135.216.336.252.403.073.1.325.37.398.47l.108.1c.036-.033.072-.1.145-.2v-.034a8.28 8.28 0 00.577-1.108 5.38 5.38 0 00.325-1.342c.036-.37.072-.772 0-1.242 0-.47-.108-.94-.325-1.275z" fill="#fff"/><defs><linearGradient id="paint0_linear" x1="1.593" y1="4.268" x2="15.24" y2="15.816" gradientUnits="userSpaceOnUse"><stop stop-color="#20C4F4"/><stop offset="1" stop-color="#006E98"/></linearGradient></defs></svg>