<!-- by TradingView --><svg xmlns="http://www.w3.org/2000/svg" width="18" height="18"><path fill="#F0F3FA" d="M0 0h18v18H0z"/><path d="M6.23 8.33L4 6.1C5.44 5.36 5.99 4.41 6.07 4l2.3 2.35-2.14 1.98z" fill="#1A934C"/><path d="M11.77 8.33L14 6.1c-1.44-.75-1.99-1.7-2.07-2.11l-2.3 2.35 2.14 1.98z" fill="#C42324"/><path d="M11.77 9.67L14 11.9c-1.44.75-1.99 1.7-2.07 2.11l-2.3-2.35 2.14-1.98z" fill="#69308D"/><path d="M6.23 9.67L4 11.9c1.44.75 1.99 1.7 2.07 2.11l2.3-2.35-2.14-1.98z" fill="#F89520"/><path fill-rule="evenodd" d="M9 12a3 3 0 100-6 3 3 0 000 6zm0-2a1 1 0 100-2 1 1 0 000 2z" fill="#2D488D"/></svg>