<!-- by TradingView --><svg width="18" height="18" viewBox="0 0 18 18" xmlns="http://www.w3.org/2000/svg"><path fill="#103C25" d="M0 0h18v18H0z"/><path d="M11 9h-1l.46.43L11 9Z" fill="#B5BCB5"/><path d="M11 9.57V9l-.54.43v.14c0 .69.72.86 1.08.86h1.84L14 10h-2.46c-.5 0-.54-.24-.54-.43Z" fill="#FFFCFA"/><path d="M10.46 9.43 10 9v.86c0 .91 1.03 1.14 1.54 1.14h1.84v-.57h-1.84a1 1 0 0 1-1.08-1Z" fill="#858A84"/><path d="M13.38 10.43V11l.62-1-.62.43Z" fill="#9DAAA1"/><path d="M4.13 7.67 3 8l.75-1 .38.67Z" fill="#FAFEFC"/><path d="M15 7H3.75l.38.67h10.12L15 7Z" fill="#BFBFC1"/><path d="M14.25 7.67V8L15 7l-.75.67Z" fill="#9DAAA1"/><path d="M4.13 7.67 3 8h5.5l.5-.33H4.12ZM9.5 8 9 7.67h5.25V8H9.5Z" fill="#838A85"/><path d="M8.5 8v3l.5-.5.5.5V8L9 7.67 8.5 8Z" fill="#FFFAFB"/><path d="m9 10.5-.5.5h1l-.5-.5Z" fill="#7E8480"/><path d="m4.13 10.14-.38.29h3.4l-.38-.29H4.13Z" fill="#C0BCBB"/><path d="M6.77 11H3l.75-.57h2.83c.46 0 .7-.2.76-.29l.56.29c-.15.46-.81.57-1.13.57Z" fill="#838E88"/><path d="M6.96 9.86c0-.12-.12-.15-.19-.15l.38-.28L6.96 9h.94l-.37.43c.6.11.5.71.37 1l-.56-.29-.19.29-.38-.29c.07-.04.2-.17.2-.28Z" fill="#EBEDEA"/><path d="M6.96 9H3l.57.43h3.58L6.96 9Z" fill="#BFBEB9"/><path d="M3 11V9l1.13.71v.43L3 11Z" fill="#FFFFFA"/><path d="m3.57 9.43.56.28h2.64l.57-.28H3.57Z" fill="#838E88"/></svg>