<!-- by TradingView --><svg width="18" height="18" viewBox="0 0 18 18" xmlns="http://www.w3.org/2000/svg"><path fill="#F0F3FA" d="M0 0h18v18H0z"/><path d="M13.16 5.56c.26.3.45.13.45.12-.18-.23-.37-.23.1-.6-.44-.13-.86.07-.55.48Z" fill="#F16D33"/><path d="M11.54 12.31c.23-.46-.3-1.46.22-1.73v1.04l.32.56c-.18.3-.52.49-.97.48.09-.14.26-.35.43-.35ZM6.57 12c-.29-.2-.66-.82-.65-1.34 0-.67 0-1.44.62-1.61.13-.04.22-.05.28-.05C7 9 7 9 7 9.1c-.59.5-.73.72-.76 1.66 0 .43.31.8.33 1.24ZM10 10c-.89-.28-1.83-1.73-2.96-2.25a2.71 2.71 0 0 0-1.1-.29c-.2 0-.4.04-.6.12-.59.25-.72.49-.72 1.27a.66.66 0 0 1-.32-.55c0-.46.34-1.14.92-1.3H8.2c.52 1.63.73 1.99 1.81 3Zm3.4-5.3c.36 0 .64.34.63.64 0 .15-.1.3-.28.4-.47.28-1.03-.13-1.02-.53 0-.31.4-.52.67-.52ZM12 5c0-.48.55-.65 1.01-.65.38 0 .76.14.87.4-.24-.13-.56-.26-.9-.14-.4.15-.6.39-.98.39Zm-4.46 6.27c0-.27-.48-.75-.06-1.18C7.6 10 8 10 8.3 10c.7 0 1.04.15 1.11.18.63.3.59.32.59 1.37 0 1.07.6 1.45 1.2 1.45s1.2-.38 1.2-.76c0-.45-.18-.26-.3-.56-.05-.16-.1-.28-.1-.37.03-.65 1.38-.11 1.38-1.08-.4.06-.49.35-.97.35l.32-.18c.09-1.28-.22-1.54.49-3.1.75.15.58.47 1.14-.28.17-.24.64-.88.64-1.09 0-.3-.96-1.53-1.54-1.8a1.6 1.6 0 0 0-1.37.06c-1.1.58-.12 1.12-2.9 2.19-1.47.56-5.15-.7-5.19 1.95-.02 1.35 1.23 3.2.24 4.04-.57.48-.75 0-1.24 0 0 .46.6.66 1 .63.59-.04.58-.13.95-.35.2.17.5.36.94.35.27 0 .71-.01 1.11-.35 0-.65-.28-.76-.3-1.38h.84Z" fill="#F16D33"/></svg>