<!-- by TradingView --><svg width="18" height="18" viewBox="0 0 18 18" xmlns="http://www.w3.org/2000/svg"><path fill="#F0F3FA" d="M0 0h18v18H0z"/><path fill-rule="evenodd" d="M9 14a5 5 0 1 0-2-9.58.4.4 0 0 1 0 .05v3.77c0 .6.41.76.95.76h1.5c.25 0 .55.24.55.5s-.3.5-.55.5h-1.5C6.92 10 6 9.36 6 8.24V5a5 5 0 0 0 3 9Zm-.6-7a.46.46 0 0 0-.45.47c0 .26.2.53.45.53h1.2c.87 0 1.4.6 1.4 1.5S10.47 11 9.6 11H7.45c-.25 0-.45.27-.45.53s.2.47.45.47H9.6c1.36 0 2.4-1.08 2.4-2.5S10.96 7 9.6 7H8.4Z" fill="#405BA8"/></svg>