<!-- by TradingView --><svg xmlns="http://www.w3.org/2000/svg" width="18" height="18"><path fill="#F0F3FA" d="M0 0h18v18H0z"/><path fill-rule="evenodd" d="M5.92 7.72c.1-.42.46-.72.9-.72h1.53c.74 0 1.26.73 1.01 1.43a1.6 1.6 0 01-.88.94c.56.3.85 1 .58 1.64-.25.6-.83.99-1.48.99H5l.58-2.79h.01l.33-1.5zm.93.1h1.1a.5.5 0 01.51.58.8.8 0 01-.8.7H6.62l.24-1.28zm-.4 2.07h1.26c.32 0 .56.28.5.6a.8.8 0 01-.79.67H6.19l.26-1.27z"/><rect width=".75" height="3.53" rx=".38" transform="matrix(.78356 .62131 -.78592 .61833 10.8 3)" fill="#00833F"/><rect width=".76" height="2.08" rx=".38" transform="matrix(.78461 -.61998 -.78697 -.617 9.63 15)" fill="#D0323A"/><rect width=".69" height="3.41" rx=".35" transform="matrix(.46929 .88305 -.94985 .31272 12.82 5.8)" fill="#94C11F"/><rect width=".69" height="2.63" rx=".35" transform="matrix(.46929 -.88305 -.94985 -.31272 12.08 12.86)" fill="#ED672B"/><rect x="10.45" y="9.81" width=".66" height="3.05" rx=".33" transform="rotate(-90 10.45 9.81)" fill="#EDCC09"/></svg>