<!-- by TradingView --><svg width="18" height="18" fill="none" xmlns="http://www.w3.org/2000/svg"><path fill="#3673EB" d="M0 0h18v18H0z"/><path fill-rule="evenodd" clip-rule="evenodd" d="M4 6.5A2.5 2.5 0 016.5 4h5A2.5 2.5 0 0114 6.5v5a2.5 2.5 0 01-2.5 2.5h-5A2.5 2.5 0 014 11.5v-5zm5.3.6a.5.5 0 00-.599 0L6.238 8.937a.5.5 0 01-.598-.801l2.464-1.837a1.5 1.5 0 011.793 0l2.463 1.837a.5.5 0 11-.598.801L9.299 7.101zM7.076 9.937a.5.5 0 00-.955.296A2.991 2.991 0 009 12.334a2.99 2.99 0 002.877-2.102.5.5 0 10-.955-.296A1.991 1.991 0 019 11.334a1.991 1.991 0 01-1.923-1.398z" fill="#fff"/></svg>