<!-- by TradingView --><svg width="18" height="18" xmlns="http://www.w3.org/2000/svg"><path fill="url(#paint0_linear)" d="M0 0h18v18H0z"/><path d="M5 9.644c0-.064.049-.075.091-.075.16 0 1.443.011 1.677.033a.477.477 0 01.447.33.84.84 0 01.064.279c0 .064.032.128.085.128.096 0 .107-.128.107-.203 0-.064.01-.481.032-.663.031-.288.074-.59.074-.644 0-.053-.021-.085-.053-.085-.053 0-.075.042-.128.096-.085.117-.223.15-.394.16-.138.01-.266 0-.426 0H5.091C5.038 9 5 8.99 5 8.936V6.791c0-.107.06-.128.112-.128l1.73.032c.352.01.533.15.597.278.064.128.053.267.053.341 0 .107.053.15.117.15s.085-.107.096-.182c.01-.106.032-.64.042-.737.032-.235.075-.342.075-.406 0-.043-.032-.086-.064-.086-.053 0-.096.043-.149.054a2.576 2.576 0 01-.383.043s-2.67-.022-4.002-.022c-.15 0-.224.022-.224.086s.075.096.16.096c.138 0 .298.01.372.032.298.075.447.182.468.492v5.46c0 .272-.18.439-.372.482a1.378 1.378 0 01-.33.032c-.106 0-.138.053-.138.096 0 .075.064.096.191.096h2.693c.139 0 .203-.032.203-.096 0-.043-.043-.096-.16-.096-.128 0-.33-.011-.458-.032-.277-.043-.597-.214-.629-.481v-2.65zM11.395 10.36s.023 1.55-.02 1.935c-.031.267-.084.438-.276.48a1.318 1.318 0 01-.33.033c-.117 0-.149.053-.149.096 0 .064.064.096.181.096h2.225c.107 0 .181-.032.181-.096 0-.121-.279-.113-.368-.128-.444-.043-.412-.225-.444-.481V6.684l1.063.021c.841.011 1.295.289 1.316.524l.01.096c.011.14.032.182.107.182.053 0 .074-.054.085-.15 0-.235.021-.908.021-1.1 0-.14-.01-.193-.074-.193-.032 0-.107.021-.256.043a4.13 4.13 0 01-.638.043h-3.703c-.308 0-.66-.011-.936-.043C9.155 6.075 9.06 6 8.985 6c-.053 0-.085.053-.106.171-.022.075-.203.951-.203 1.1 0 .097.022.15.086.15.063 0 .085-.042.106-.117.021-.064.064-.182.16-.31.138-.203.362-.267.904-.278l1.463-.032v3.676z" fill="#fff"/><defs><linearGradient id="paint0_linear" x1="3.349" y1="3.122" x2="21.904" y2="24.434" gradientUnits="userSpaceOnUse"><stop stop-color="#1A1E21"/><stop offset="1" stop-color="#06060A"/></linearGradient></defs></svg>