<!-- by TradingView --><svg width="18" height="18" viewBox="0 0 18 18" xmlns="http://www.w3.org/2000/svg"><path fill="#F0F3FA" d="M0 0h18v18H0z"/><path d="m7.13 13-.03-.01c-.02-.01-.02-.02 0-.02.6-.16 1.1-.52 1.48-1.07.84-1.18 1.23-2.79 1.47-4.22a28.69 28.69 0 0 0 .4-3.68l3.54 3.39.01.03c-.11 1.9-.62 4.7-2.49 5.54a.47.47 0 0 1-.19.04h-4.2Z" fill="#1189A7"/><path d="M8.58 11.9c-.38.55-.88.91-1.48 1.07-.02 0-.02.01 0 .02h.03c-.18 0-.36.03-.52-.04C4.87 12.27 4.16 9.94 4 8.17v-.01a.01.01 0 0 1 .02 0 133.48 133.48 0 0 1 3.56 2.18l.02.03c.14.63.45 1.2.98 1.53Z" fill="#0E5173"/></svg>