<!-- by TradingView --><svg width="18" height="18" xmlns="http://www.w3.org/2000/svg"><path fill="#F0F3FA" d="M0 0h18v18H0z"/><path d="M5.731 13.413L3 9.625c1.024 1.082 3.262.998 4.184.938L9 12.437C8.546 12.995 7.5 14 6.925 14a1.5 1.5 0 01-1.194-.587z" fill="#C62D27"/><path d="M12.26 13.413L15 9.625c-1.027 1.082-3.271.998-4.196.938L9 12.437c.455.558 1.486 1.563 2.063 1.563.577 0 1.015-.314 1.197-.587z" fill="#0B2343"/><path d="M11.902 4.28C10.899 3.833 9.55 5.32 9 6c1.49 1.596 2.496 3.42 2.842 4.25 2.028-.108 2.73-.68 3.027-.975.237-.235.099-.665 0-.85-.572-1.196-1.965-3.7-2.967-4.146z" fill="#C62D27"/><path d="M6.158 4C4.362 5.501 3.474 7.576 3.093 8.595c-.084.225-.157.399 0 .581.864 1.004 2.296 1.13 2.946 1.057C8.118 5.517 10.097 4.113 11 4H6.158z" fill="#0B2343"/></svg>