<!-- by TradingView --><svg xmlns="http://www.w3.org/2000/svg" width="18" height="18" viewBox="0 0 18 18"><path fill="url(#atmdoetlf)" d="M0 0h18v18H0z"/><path d="M10.43 12.32c.79.84 1.76 1.4 2.25 1.66a.22.22 0 0 0 .3-.1.23.23 0 0 0 .02-.1v-1.79c0-.35-.1-.7-.3-.99a1.7 1.7 0 0 0-.79-.63l-.6-.23c-1.6.5-.93 2.07-.88 2.18z" fill="url(#btmdoetlf)"/><path d="M12.63 9.35C13.3 9.18 14 8.9 14 7.79V5.44a.45.45 0 0 0-.2-.37.41.41 0 0 0-.39-.03c-1.26.57-4.1 2.14-4.1 4.59a4.1 4.1 0 0 0 1.2 2.76c-1.49-2.18 1.13-2.8 2.12-3.04z" fill="url(#ctmdoetlf)"/><path d="M7.56 12.32a8.43 8.43 0 0 1-2.25 1.66.22.22 0 0 1-.28-.1.23.23 0 0 1-.03-.1v-1.79c0-.35.1-.7.3-.99.2-.29.47-.5.79-.63l.6-.23c1.59.5.92 2.07.87 2.18z" fill="url(#dtmdoetlf)"/><path d="M5.37 9.35C4.7 9.18 4 8.9 4 7.79V5.44a.45.45 0 0 1 .2-.37.41.41 0 0 1 .39-.03c1.26.57 4.1 2.14 4.1 4.59a4.1 4.1 0 0 1-1.2 2.76c1.49-2.18-1.13-2.8-2.12-3.04z" fill="url(#etmdoetlf)"/><defs><linearGradient id="atmdoetlf" x1="0" y1="0" x2="11.08" y2="16.03" gradientUnits="userSpaceOnUse"><stop stop-color="#2B302A"/><stop offset="1" stop-color="#181B1E"/></linearGradient><linearGradient id="btmdoetlf" x1="11.63" y1="10.14" x2="11.63" y2="14" gradientUnits="userSpaceOnUse"><stop stop-color="#63A6FC"/><stop offset="1" stop-color="#2C75FF"/></linearGradient><linearGradient id="ctmdoetlf" x1="11.66" y1="5" x2="11.66" y2="12.39" gradientUnits="userSpaceOnUse"><stop stop-color="#63A6FC"/><stop offset="1" stop-color="#2C75FF"/></linearGradient><linearGradient id="dtmdoetlf" x1="6.37" y1="10.14" x2="6.37" y2="14" gradientUnits="userSpaceOnUse"><stop stop-color="#63A6FC"/><stop offset="1" stop-color="#2C75FF"/></linearGradient><linearGradient id="etmdoetlf" x1="6.34" y1="5" x2="6.34" y2="12.39" gradientUnits="userSpaceOnUse"><stop stop-color="#63A6FC"/><stop offset="1" stop-color="#2C75FF"/></linearGradient></defs></svg>