<!-- by TradingView --><svg width="18" height="18" viewBox="0 0 18 18" xmlns="http://www.w3.org/2000/svg"><path fill="#F0F3FA" d="M0 0h18v18H0z"/><path d="M6 4.84C6 4.38 5.55 4 5 4s-1 .38-1 .84v5.83l2-.65V4.84Z" fill="#7BADD3"/><path d="M7.5 14a3.5 3.5 0 1 0 0-7 3.5 3.5 0 0 0 0 7Z" fill="#7BADD3"/><path d="M7.5 12a1.5 1.5 0 1 0 0-3 1.5 1.5 0 0 0 0 3Z" fill="#E0592A"/><path d="M7.69 8.97C6.47 9.03 6 9.93 6 10.52V7.39C6.5 7.09 7.09 7 7.7 7l-.01 1.97Z" fill="url(#a1qh1rkjd)"/><path d="m12.3 4.17-1.95 1.38c-.44.3-.47.81-.06 1.14.37.3 1.3.33 1.71.05v6.42c0 .46.21.84.85.84.63 0 1.15-.38 1.15-.84V4.69c0-.77-1.3-.82-1.7-.52Z" fill="#7BADD3"/><path d="m12 6.78 2-1.53v6.39l-2 .04v-4.9Z" fill="url(#b1qh1rkjd)"/><defs><linearGradient id="a1qh1rkjd" x1="7.33" y1="8.33" x2="5.42" y2="9.19" gradientUnits="userSpaceOnUse"><stop offset=".08" stop-color="#fff" stop-opacity="0"/><stop offset=".2" stop-color="#BCC2C8" stop-opacity=".08"/><stop offset=".29" stop-color="#96A0A9" stop-opacity=".14"/><stop offset=".38" stop-color="#778490" stop-opacity=".2"/><stop offset=".47" stop-color="#5F6E7D" stop-opacity=".27"/><stop offset=".57" stop-color="#4E5F6F" stop-opacity=".33"/><stop offset=".82" stop-color="#415364" stop-opacity=".5"/></linearGradient><linearGradient id="b1qh1rkjd" x1="13.02" y1="8.53" x2="11.37" y2="1.33" gradientUnits="userSpaceOnUse"><stop offset=".08" stop-color="#fff" stop-opacity="0"/><stop offset=".12" stop-color="#E8EAEC" stop-opacity=".03"/><stop offset=".2" stop-color="#BCC2C8" stop-opacity=".08"/><stop offset=".29" stop-color="#96A0A9" stop-opacity=".14"/><stop offset=".57" stop-color="#4E5F6F" stop-opacity=".33"/></linearGradient></defs></svg>