<!-- by TradingView --><svg width="18" height="18" fill="none" xmlns="http://www.w3.org/2000/svg"><path fill="#F0F3FA" d="M0 0h18v18H0z"/><path fill-rule="evenodd" clip-rule="evenodd" d="M9.854 8.939l.094.014c.072.01.143.02.213.035.291.057.55.175.71.454a1.036 1.036 0 01.088.797.996.996 0 01-.505.607 1.572 1.572 0 01-.695.153H7v-.12c.136-.019.291-.095.34-.226.037-.095.03-.2.03-.302 0-.907 0-1.814-.002-2.721a2.084 2.084 0 00-.019-.255C7.334 7.21 7.141 7.15 7 7.126v-.124h.559S9.5 7 9.779 7.004c.16.005.338.035.49.09.624.219.739 1.05.271 1.463a2.705 2.705 0 01-.686.382zm-.004-.001h.004l-.003.002.003.005-.004-.007zm-1.307.004l.2-.018c.143-.013.282-.025.42-.047.532-.088.834-.4.825-.912-.008-.405-.232-.678-.586-.76a3.58 3.58 0 00-1.046-.029c-.095.004-.15.107-.147.193a1.14 1.14 0 00-.005.117v2.691c-.018.205.175.409.367.459.333.11.765.125 1.095.002a.836.836 0 00.49-.799c-.02-.397-.205-.538-.56-.635a4.535 4.535 0 00-.612-.105c-.1-.013-.201-.017-.303-.02a7.427 7.427 0 01-.137-.006l-.001-.131z" fill="#000"/><path fill-rule="evenodd" clip-rule="evenodd" d="M9 3.849L3.849 9 9 14.152 14.152 9 9 3.849zM3 9l6 6 6-6-6-6-6 6z" fill="#000"/></svg>