<!-- by TradingView --><svg width="18" height="18" viewBox="0 0 18 18" xmlns="http://www.w3.org/2000/svg"><path fill="#F0F3FA" d="M0 0h18v18H0z"/><path d="M9 4c.72 0 1.38.12 1.98.37A4.84 4.84 0 0 1 14 9a4.84 4.84 0 0 1-2.35 4.3l-.9-1.8a2.73 2.73 0 0 0 .89-1.24c.14-.38.22-.8.22-1.26 0-.46-.08-.88-.22-1.26a2.84 2.84 0 0 0-1.5-1.61A2.88 2.88 0 0 0 9 5.9a2.72 2.72 0 0 0-2.04.86A3 3 0 0 0 6.14 9a3.13 3.13 0 0 0 .81 2.24c.1.1.2.18.3.26l-.9 1.8A4.72 4.72 0 0 1 4.37 11 5.3 5.3 0 0 1 4 9a4.84 4.84 0 0 1 5-5Z" fill="#C6A464"/><path d="M8 14c-.4 0-.5-.67-.5-1-.06-.5.5-1.5 1.5-2s1 .5 1.5 1c.4.4.5 1.5.5 2H8Z" fill="#D3AE37"/></svg>