<!-- by TradingView --><svg width="18" height="18" viewBox="0 0 18 18" xmlns="http://www.w3.org/2000/svg"><path fill="#F0F3FA" d="M0 0h18v18H0z"/><path d="m8.44 11.87-.76-2.24c.04-.48.14-1.52.22-1.85.1-.41.9-1.73 1.2-1.77.25-.04.35.07.37.14l.87 2.1-.94 2.86c-.1.27-.36.81-.55.87-.2.06-.35-.05-.41-.11Z" fill="url(#agb0nzdqq)"/><path d="M6.04 13H3c1.58-1.68 1.6-3.55 2.21-5.26.5-1.37.84-1.73.97-1.74H9.1c.27 0 .37.19.39.28-.56-.48-1.07.91-1.25 1.66-.33 1.06-1.06 3.3-1.28 3.9A2.7 2.7 0 0 1 6.04 13Z" fill="url(#bgb0nzdqq)"/><path fill-rule="evenodd" d="M5.4 10.33V8h.97c.34 0 .61.34.61.76 0 .34-.17.62-.41.72l.4.72v.13h-.5l-.4-.81h-.26v.81H5.4Zm.42-1.83h.42c.13 0 .24.13.24.3 0 .16-.1.29-.24.29h-.42v-.6Z" fill="url(#cgb0nzdqq)"/><path d="M8.83 12c-.21 0-.37-.25-.42-.37.43.57.88-.2 1.05-.67.42-1.33 1.29-4.1 1.41-4.53.13-.43.71-1.13 1-1.43H15c-.24.27-.78.9-1.04 1.3-.33.5-1.34 3.95-1.6 4.75-.22.65-.53.9-.66.95H8.83Z" fill="url(#dgb0nzdqq)"/><path fill-rule="evenodd" d="M10.5 10.33h.4l.18-.54h.67l.14.5h.41L11.6 8h-.35l-.75 2.33Zm1.12-1-.18-.68-.22.68h.4Z" fill="url(#egb0nzdqq)"/><defs><linearGradient id="agb0nzdqq" x1="7.94" y1="9.59" x2="10.09" y2="9.59" gradientUnits="userSpaceOnUse"><stop stop-color="#0293CA"/><stop offset=".5" stop-color="#A2E4FE"/><stop offset="1" stop-color="#0578A3"/></linearGradient><linearGradient id="bgb0nzdqq" x1="6.25" y1="6" x2="6.25" y2="13" gradientUnits="userSpaceOnUse"><stop stop-color="#4E5164"/><stop offset=".28" stop-color="#FFFEFD"/><stop offset=".72" stop-color="#CBCACF"/><stop offset="1" stop-color="#6A677A"/></linearGradient><linearGradient id="cgb0nzdqq" x1="6.19" y1="8" x2="6.19" y2="10.33" gradientUnits="userSpaceOnUse"><stop stop-color="#681312"/><stop offset=".35" stop-color="#FD0506"/><stop offset=".57" stop-color="#FC0A06"/><stop offset="1" stop-color="#780202"/></linearGradient><linearGradient id="dgb0nzdqq" x1="11.71" y1="5" x2="11.71" y2="12" gradientUnits="userSpaceOnUse"><stop stop-color="#47495E"/><stop offset=".16" stop-color="#A3A1AC"/><stop offset=".75" stop-color="#F4F3F8"/><stop offset="1" stop-color="#686D80"/></linearGradient><linearGradient id="egb0nzdqq" x1="11.4" y1="8" x2="11.4" y2="10.33" gradientUnits="userSpaceOnUse"><stop stop-color="#641F1A"/><stop offset=".4" stop-color="#FC0704"/><stop offset=".63" stop-color="#E70004"/><stop offset="1" stop-color="#601510"/></linearGradient></defs></svg>