<!-- by TradingView --><svg width="18" height="18" viewBox="0 0 18 18" xmlns="http://www.w3.org/2000/svg"><path fill="#F0F3FA" d="M0 0h18v18H0z"/><path fill-rule="evenodd" d="M9.84 3.35 9 3l-.84.35a8.88 8.88 0 0 0-4.81 4.8L3 9l.35.84a8.88 8.88 0 0 0 4.8 4.81L9 15l.84-.35a8.88 8.88 0 0 0 4.81-4.8L15 9l-.35-.84a8.88 8.88 0 0 0-4.8-4.81ZM9 14.33A13.68 13.68 0 0 0 14.33 9 13.08 13.08 0 0 0 9 3.67 13.73 13.73 0 0 0 3.67 9 14 14 0 0 0 9 14.33Zm3.98-6.91A12.49 12.49 0 0 0 9 4a13.06 13.06 0 0 0-4.76 4.65c.07 0 .34.02.55.1.06.02.12-.03.17-.08.05-.05.1-.1.15-.1.13 0 .25-.02.33-.14l.14-.19c.06-.06.09-.07.15-.09h.03c.21-.07.33-.34.43-.58l.12-.24c.06-.12.16-.21.25-.3.1-.1.19-.19.25-.3.09-.14.15-.13.18.03v.04c.01.07.03.14.06.2.04.06.1.14.18.14h.03a.4.4 0 0 0 .1-.15c.09-.19.17-.36.27-.52.02-.03.1-.2.22-.5.05-.12.12-.2.2-.3l.04-.05c.04-.05.11-.04.19-.04.06 0 .11 0 .16-.02l.09-.04h.02c.04.01.13.03.15-.02l.08-.23c.06-.18.12-.37.2-.54a.11.11 0 0 1 .04-.05.1.1 0 0 1 .06-.01c.05 0 .1.02.13.04.17.11.35.2.52.25.04.02.06.04.05.09 0 .17.01.35.05.53v.01c.03.14.05.24.16.32.04.03.1.02.15-.04.02-.02.04-.02.07 0 .12.1.23.44.33.72l.12.35c.07.13.17.22.32.28.09.03.13-.02.17-.06.03-.04.06-.07.1-.07.06 0 .15.11.2.17v.02c.07.09.16.13.25.11.07 0 .09-.01.13.03.12.12.26.2.44.25.1.03.2-.04.28-.1.06-.06.13-.11.2-.13l.23-.02Zm.55.78L14 9a12.9 12.9 0 0 1-1.09 1.67h-7.8A13.4 13.4 0 0 1 4 9l.02-.03h.02c.07-.04.17-.1.24-.06l.23.14h.04c.14-.08.4-.15.54-.18.05-.01.16 0 .17.07v.04a7.8 7.8 0 0 0-.06.11c-.13.24-.28.53-.5.64a.04.04 0 0 0-.02.03v.22c0 .02.03.03.04.01l.16-.18c.09-.11.16-.23.24-.34.18-.27.35-.53.6-.75a.4.4 0 0 1 .1-.07c.34-.14.55-.27.79-.54.03-.03.02-.11.02-.18v-.06c0-.06.04-.08.09-.07.05.01.08.05.07.11v.16c.01.09-.09.21-.16.3l-.03.04c-.06.08-.05.1.05.07l.15-.07c.1-.04.17-.1.22-.18l.24-.34c.18-.23.33-.5.46-.79a.07.07 0 0 1 .12-.02l.04.03c.05.05.13.1.12.17a3.9 3.9 0 0 0-.04.45 1.48 1.48 0 0 1-.07.4c-.03.14 0 .17.1.08.05-.04.1-.11.15-.2a.64.64 0 0 0 .06-.24c.01-.2.03-.33.06-.4.01-.05.06-.09.1-.13.05-.06.1-.1.1-.17 0-.16.02-.31.05-.47V6.6c.02-.05.04-.16.1-.15.07 0 .11.04.14.12.06.15.06.37.06.54v.08c0 .02.03.03.04.02.07-.06.12-.06.16-.01l.03.06.04.07.03.02c.07.01.14.04.19.1 0 0 .03 0 .03-.02 0-.07-.01-.15-.04-.22l-.03-.07c-.1-.23-.2-.47-.22-.72-.01-.1-.02-.18-.01-.22 0-.05.07-.07.13-.09.03 0 .06 0 .07-.02.05-.02.07-.09.08-.15.02-.07.04-.14.1-.17.05-.05.11.06.12.11l.05.32c0 .05.03.1.06.15l.24.35a.7.7 0 0 1 .1.25c.02.04.05.04.1.04.04 0 .08-.01.1.05l.1.3.1.34c.02.05.05.07.1.08.07.01.12.04.14.08l.2.39c0 .01 0 .04.02.07.03.1.07.27.17.2.08-.07.18-.28.15-.39-.01-.06-.02-.17.04-.21.05-.04.14.05.18.08.04.05.06.04.04-.02 0-.06.04-.21.11-.12.12.13.22.3.32.5.02.04.05.07.09.09.04.02.06.01.04-.04a1.27 1.27 0 0 1-.04-.19c-.01-.07.04-.14.1-.07.1.1.17.2.23.35l.18.5a.2.2 0 0 0 .06.08c.06.05.06-.06.07-.12v-.02c0-.04-.02-.1-.05-.14l-.03-.1a3.94 3.94 0 0 0-.11-.46c-.02-.05.03-.1.08-.08.09.03.16.13.22.21l.06.08c.03.04.04.08.05.12l.05.11c.05.07.08-.08.07-.11l-.02-.46c-.01-.22.1-.24.24-.12.14.1.25.22.34.36a.28.28 0 0 0 .05-.12Zm-7.01 4.03a13.7 13.7 0 0 1-.24-.23h5.48l-.24.23h-5Zm.64.59L7 12.67h4l-.16.15-.2.18H7.36a2.62 2.62 0 0 1-.2-.18Zm.7.51h2.31c-.25.18-.5.32-.77.45L9 14l-.38-.2c-.26-.15-.51-.29-.76-.47ZM6.29 9h1.6l.29.2.28-.2H9.7l.28.19.27-.19h1.45l.29.2v1.35H6V9.2l.3-.2Z" fill="#042993"/><path fill="#042993" fill-opacity=".5" d="M6 11h6v.67H6z"/></svg>