<!-- by TradingView --><svg width="18" height="18" xmlns="http://www.w3.org/2000/svg"><path fill="#EE3E33" d="M0 0h18v18H0z"/><path d="M14.991 8.98l-.15-.41c-.008-.01-.012-.02-.024-.028a.066.066 0 00-.036-.01H12v-.127c0-.302-.064-1.37.436-1.37s.682.206 1.04.853c.095.174.185.351.259.517.002.012.014.023.024.03.01.007.024.011.037.01l.472-.01a.066.066 0 00.045-.017.06.06 0 00.02-.042v-1.99c0-.008-.003-.016-.007-.024l-.156-.325a.063.063 0 00-.024-.027.067.067 0 00-.036-.01l-.495.01a.068.068 0 00-.04.013l-.51.366c-.363-.252-.797-.379-1.291-.379-.859 0-2.073.56-2.417 2.04-.11-.162-.317-.285-.6-.285-.154 0-.284.027-.393.072-.003-.23-.026-.687-.13-.895-.136-.264-.278-.453-.543-.628-.293-.194-.731-.304-1.16-.304H3.059A.057.057 0 003 6.067v.572l.185.37c.011.006.023.01.036.01l.112.003v4.032h-.27a.068.068 0 00-.044.021.059.059 0 00-.019.043v.497c0 .02.002.033.01.05.04.093.091.212.144.3.006.01.014.02.025.027.01.006.022.01.035.01h3.121c.474 0 .967-.025 1.37-.21.502-.232.764-.828.764-1.451 0-.07-.005-.135-.013-.198.14 0 .283-.028.452-.087.122.058.21.087.353.087.057 0 .166-.025.221-.034.16.4.334.788.631 1.116.459.507 1.09.775 1.824.775.48 0 1.075-.119 1.906-.486a1.53 1.53 0 01.647-.144h.106c.033 0 .07-.025.07-.057V9.477h.267c.036 0 .067-.034.067-.067v-.406a.057.057 0 00-.009-.026z" fill="#221F20"/><path d="M12.001 8.847v.316h.333v1.292c0 .412.042 1.04-.334 1.04-.313 0-.333-.453-.333-.765V8.327c0-.72-.115-1.652.713-1.652.67 0 1.214.785 1.467 1.445H14V6.325h-.217l-.593.423c-.387-.304-.841-.423-1.304-.423-.95 0-2.148.702-2.294 2.414h.256c.159 0 .288.12.288.268v.036c0 .112-.085.214-.207.25-.01.047-.02.085-.03.12a.295.295 0 01.159.074.266.266 0 01.082.187v.008c-.007.272-.047.427-.292.521.36.888 1.142 1.482 2.152 1.482.444 0 .57-.059 1.41-.428.234-.104.664-.203.924-.203V9.163h.333v-.316H12zm-5.667 1.778c0 .459-.164.745-.634.745h-.367V9.163h.252c.309 0 .748.13.748.51v.952zm-1-3.984h.25c.316 0 .75.15.75.585v1.01c0 .417-.393.611-.634.611h-.367V6.641zm2.252 2.935c0-.151.04-.273.103-.373a1.527 1.527 0 00-.614-.197 7.39 7.39 0 00-.408-.037v-.122c.607-.014 1.442-.27 1.442-1.156 0-.93-.88-1.366-1.517-1.366H3.334v.316h.333v4.729h-.333v.315h2.583c.841 0 2.233-.071 2.294-1.41-.412-.102-.625-.402-.625-.7z" fill="#FEFEFE"/><path d="M8.83 8.203c.123 0 .15.094.15.174 0 .12-.044.202-.135.264-.05-.118-.098-.238-.098-.353 0-.085.057-.085.082-.085zm-.254 1.424a1.174 1.174 0 01-.18-.258.641.641 0 01-.084-.254c0-.035.013-.06.07-.092.124.224.275.472.485.706a.297.297 0 01-.055.008c-.114 0-.158-.031-.236-.11zm1.157-.14l-.011.048c-.038.173-.071.173-.096.173-.033 0-.082-.006-.176-.111a.894.894 0 00.276-.523c.012-.075.012-.075.126-.083l.062-.004v-.15h-.637v.153l.065.002c.17.005.17.057.17.082 0 .096-.08.263-.186.374a5.387 5.387 0 01-.355-.567l-.047-.083c.24-.096.39-.245.39-.406 0-.146-.148-.35-.477-.35-.416 0-.604.231-.604.46 0 .13.053.287.082.367-.306.14-.508.296-.508.582 0 .249.226.516.719.516.161 0 .322-.037.489-.106a.699.699 0 00.385.106c.322 0 .511-.153.519-.419l.002-.062h-.188z" fill="#FEFEFE"/></svg>