<!-- by TradingView --><svg width="18" height="18" viewBox="0 0 18 18" xmlns="http://www.w3.org/2000/svg"><path fill="#F0F3FA" d="M0 0h18v18H0z"/><path d="m7.08 10.34-.68-.73-1.36 1.46L3 8.87l2.04-2.19L6.4 8.15l1.8-1.96.69.74-1.81 1.95.67.73-.67.73Zm-2.04-2.2-.68.74.68.73.68-.73-.68-.73Z" fill="#002C5C"/><path d="m10.92 7.66.68.73 1.36-1.46L15 9.13l-2.04 2.19-1.36-1.47-1.8 1.95-.69-.73 1.81-1.95-.67-.73.67-.73Zm2.04 2.2.68-.74-.68-.73-.68.73.68.73ZM5.49 6.2l1.36 1.46.68-.73-.68-.74.68-.73 2.04 2.2.68-.73L7.53 4 5.49 6.2Z" fill="#A30B33"/><path d="m7.53 8.39.68-.73 2.04 2.2-.68.72L7.53 8.4Z" fill="#F99D2A"/><path d="m9.57 6.2-.68-.74L10.24 4l2.04 2.2-2.71 2.92-.68-.73 2.03-2.2-.68-.73-.67.73Z" fill="#007DB6"/><path d="m8.43 10.34-.68.73L10.47 14l1.81-1.95-1.36-1.47-.67.74.67.73-.45.49-2.04-2.2Z" fill="#F99D2A"/><path d="m8.89 9.85-.68-.73-2.5 2.68L7.76 14l1.36-1.46-.68-.74-.68.74-.67-.74 1.8-1.95Z" fill="#007DB6"/></svg>