<!-- by TradingView --><svg width="18" height="18" viewBox="0 0 18 18" xmlns="http://www.w3.org/2000/svg"><path fill="#F0F3FA" d="M0 0h18v18H0z"/><path d="m4.93 10.35-.02-1.93c0-.22-.1-.27-.26-.3V8H6c.67 0 1.48.28 1.48 1.02 0 .49-.42.8-.87.94v.01c.56.15.94.45.94 1.05 0 .74-.78.98-1.44.98H4.6v-.13c.26-.03.34-.11.34-.36v-1.16Zm.65-.5h.27c.53 0 .9-.31.9-.81s-.25-.84-.9-.84c-.17 0-.24.01-.24.12l-.03 1.52Zm0 1.57c0 .31.04.37.41.37.52 0 .83-.35.83-.8 0-.52-.34-.9-.92-.9h-.32v1.33Zm4.22-3.3c-.22.04-.24.19-.24.39l-.01 1.22c.15 0 .83.04 1.16.04l1.23-.04a36.4 36.4 0 0 1-.02-1.15c0-.24-.02-.42-.27-.45V8h1.24v.13c-.22.03-.24.18-.24.38l-.03 1.84v1.11c0 .2.07.4.3.41V12h-1.25v-.13c.2 0 .3-.16.3-.4l-.02-1.38-1.24-.04c-.32 0-1.01.04-1.16.04l-.01 1.37c0 .2.05.4.28.41V12H8.6v-.13c.2 0 .3-.16.3-.4v-.83c0-.7-.05-1.7-.05-2.06 0-.23-.03-.42-.27-.45V8H9.8v.13" fill="#006FBA"/><path d="M8.93 12.82c.96.06 1.8.18 2.72.24.3.02.7.08.96.1l.16-.07c.3-.05.5.14.63.23.25.16.57.26.54.62-.05.03-.05.03-.13.05-.13.05-.5-.08-.66-.13-.6-.19-1.28-.23-1.96-.4-1.42-.37-3.6-.34-4.74-.04l-1.42.36c-.15.04-.43.18-.56.12-.22-.07-.85-.7-.91-.9l.1.02c.2.18.77.2 1.1.15 1-.15 2.04-.18 3.07-.32.23-.03.95.03 1.1-.03Z" fill="#5CAADE"/><path d="m9.63 5.97.09.09c-.48.48-1.42 1.08-1.9.77-.15-.68-.93-1.56-1.7-2.24h-.45c-.24.08-1.38.98-1.58 1.33-.13.22.02.33-.17.59-.32.04-.6.27-.91.34-.3.08-.66.08-.96.14L2 6.95l.09-.08c.07-.42.93-1.2 1.35-1.45l.63-.6C5.07 4.24 6 3.7 7 4.2c.26.13.54.52.65.66.33.45 1.08.99 1.48 1.24.2-.04.3-.02.5-.13Z" fill="#97D2B5"/><path d="M8.83 7.1c-.27.2-.62.46-1.68.33.14-.27.38-.54.6-.81a4.8 4.8 0 0 1 2.15-1.3c1.78-.52 3.06.03 4.71.9.45.23.97.51 1.39.86v.05l-.05.03c-.32-.06-.68.15-1 .07-.57-.15-1.04-.7-1.6-.97a3.77 3.77 0 0 0-3.33-.07c-.44.2-.95.58-1.19.91Z" fill="#00AA4F"/></svg>