<!-- by TradingView --><svg xmlns="http://www.w3.org/2000/svg" width="18" height="18" viewBox="0 0 18 18"><path fill="#F0F3FA" d="M0 0h18v18H0z"/><path d="M11.03 10.81a.41.41 0 1 0-.76-.32.41.41 0 0 0 .76.32ZM7.35 7.76a.41.41 0 1 0 0-.82.41.41 0 0 0 0 .82ZM11.03 7.5a.41.41 0 1 0-.76-.3.41.41 0 0 0 .76.3ZM7.35 11.07a.41.41 0 1 0 0-.83.41.41 0 0 0 0 .83Z" fill="#73E5AE"/><path d="M10.57 6.3a.41.41 0 1 0-.76-.32.41.41 0 0 0 .76.31ZM8.2 12.02a.41.41 0 1 0-.77-.31.41.41 0 0 0 .76.31ZM7.97 6.52a.41.41 0 1 0-.32-.77.41.41 0 0 0 .32.77ZM10.35 12.25a.41.41 0 1 0-.32-.77.41.41 0 0 0 .32.77ZM12.25 10.35a.41.41 0 1 0-.77-.32.41.41 0 0 0 .77.32ZM6.52 7.97a.41.41 0 1 0-.77-.32.41.41 0 0 0 .77.32ZM12.02 8.2a.41.41 0 1 0-.31-.77.41.41 0 0 0 .31.76ZM6.3 10.57a.41.41 0 1 0-.32-.76.41.41 0 0 0 .31.76Z" fill="#52A8BC"/><path d="M6.52 11.9a.41.41 0 1 0 0-.83.41.41 0 0 0 0 .82ZM11.48 6.93a.41.41 0 1 0 0-.82.41.41 0 0 0 0 .82ZM6.52 6.93a.41.41 0 1 0 0-.82.41.41 0 0 0 0 .82ZM11.48 11.9a.41.41 0 1 0 0-.83.41.41 0 0 0 0 .82ZM9 5.91a.41.41 0 1 0 0-.82.41.41 0 0 0 0 .82ZM9 12.91a.41.41 0 1 0 0-.82.41.41 0 0 0 0 .82ZM5.5 9.41a.41.41 0 1 0 0-.82.41.41 0 0 0 0 .82ZM12.5 9.41a.41.41 0 1 0 0-.82.41.41 0 0 0 0 .82Z" fill="#247CDF"/><path d="M6.97 4.1a.27.27 0 1 0-.2-.5.27.27 0 0 0 .2.5ZM11.24 14.4a.27.27 0 1 0-.21-.5.27.27 0 0 0 .2.5ZM11.38 3.96a.27.27 0 1 0-.5-.2.27.27 0 0 0 .5.2ZM7.12 14.25a.27.27 0 1 0-.5-.21.27.27 0 0 0 .5.2ZM14.25 7.12a.27.27 0 1 0-.21-.5.27.27 0 0 0 .2.5ZM3.96 11.38a.27.27 0 1 0-.2-.5.27.27 0 0 0 .2.5ZM14.4 11.24a.27.27 0 1 0-.5-.21.27.27 0 0 0 .5.2ZM4.1 6.97a.27.27 0 1 0-.5-.2.27.27 0 0 0 .5.2ZM12.3 5.97a.27.27 0 1 0 0-.54.27.27 0 0 0 0 .54ZM5.7 12.57a.27.27 0 1 0 0-.54.27.27 0 0 0 0 .54ZM12.3 12.57a.27.27 0 1 0 0-.54.27.27 0 0 0 0 .54ZM5.7 5.97a.27.27 0 1 0 0-.54.27.27 0 0 0 0 .54ZM13 7.75a.41.41 0 1 0 0-.82.41.41 0 0 0 0 .82ZM5 11.07a.41.41 0 1 0 0-.82.41.41 0 0 0 0 .82ZM13 11.07a.41.41 0 1 0 0-.82.41.41 0 0 0 0 .82ZM5 7.75a.41.41 0 1 0 0-.82.41.41 0 0 0 0 .82ZM9 4.6a.27.27 0 1 0 0-.54.27.27 0 0 0 0 .55ZM9 13.94a.27.27 0 1 0 0-.54.27.27 0 0 0 0 .54ZM7.34 5.41a.41.41 0 1 0 0-.83.41.41 0 0 0 0 .83ZM10.66 5.41a.41.41 0 1 0 0-.83.41.41 0 0 0 0 .83ZM7.34 13.42a.41.41 0 1 0 0-.83.41.41 0 0 0 0 .83ZM10.66 13.42a.41.41 0 1 0 0-.83.41.41 0 0 0 0 .83ZM13.66 9.27a.27.27 0 1 0 0-.54.27.27 0 0 0 0 .54ZM4.33 9.27a.27.27 0 1 0 0-.54.27.27 0 0 0 0 .54Z" fill="#2C3E92"/></svg>