<!-- by TradingView --><svg width="18" height="18" xmlns="http://www.w3.org/2000/svg"><path fill="#E65400" d="M0 0h18v18H0z"/><path d="M9.485 5.882c.664 0 1.351.525 1.351 1.327 0 .99-.792 1.057-1.052 1.811-.252.73.399 1.418.399 2.229 0 1.036-.862 1.751-1.754 1.751-.95 0-1.766-.73-1.766-1.748 0-1.569 1.56-1.612 1.722-2.533.126-.715-.219-.913-.219-1.519 0-.774.694-1.318 1.319-1.318zm3.2-.164c-.527 1.193-1.543 3.817-1.942 5.079-.27.856.208 1.924 1.095 2.148 1.11.28 1.867-.574 2.058-1.246.188-.66.888-3.787 1.09-5.283.091-.681-.27-1.203-.87-1.37a1.194 1.194 0 00-1.431.672zM3 11.312c0 .884.719 1.6 1.606 1.6.887 0 1.606-.716 1.606-1.6 0-.884-.719-1.6-1.606-1.6-.887 0-1.606.716-1.606 1.6zm1.608-3.088c0 .613.499 1.11 1.114 1.11.615 0 1.114-.497 1.114-1.11 0-.613-.499-1.11-1.114-1.11-.615 0-1.114.497-1.114 1.11z" fill="#fff"/></svg>