<!-- by TradingView --><svg width="18" height="18" xmlns="http://www.w3.org/2000/svg"><path fill="url(#paint0_linear)" d="M0 0h18v18H0z"/><mask id="a" maskUnits="userSpaceOnUse" x="4" y="4" width="10" height="10"><ellipse cx="9.05" cy="9" rx="4.95" ry="5" fill="#C4C4C4"/></mask><g mask="url(#a)"><path d="M9.838 10.19c-.114.118-.229.197-.229.197-1.53 1.142-3.859 2.064-3.859 2.064l-.306.08c.88.905 2.268 2.025 3.606 2.025 1.147 0 2.459-.403 3.3-1.112.076-.078.283-.914.397-.993.039-.039.077-.078.153-.118.077-.079.115-.157.191-.197.039-.078.115-.118.153-.196.038-.04.038-.08.077-.118-.88.236-2.298-.569-3.483-1.632z" fill="url(#paint2_linear)"/><path d="M13.656 7.053c0-.04-.038-.078-.038-.118-.077-.157-.153-.354-.23-.512 0 0 0-.039-.038-.039-1.212 1.142-1.55 1.505-2.905 2.222.076.276-.219.552-.295.866-.115.394-.126.827-.355 1.024 1.185 1.063 3.035 1.597 3.914 1.282.038-.04.038-.079.077-.118.038-.04.038-.08.076-.119.038-.078.115-.157.153-.236a.302.302 0 00.076-.157l.115-.236a.675.675 0 00.076-.197c.039-.079.039-.118.077-.197a.827.827 0 00.035-.083c.348-.967-.502-2.41-.738-3.382z" fill="url(#paint3_linear)"/><path d="M7.4 4c.192.315.905.748.905.748s1.337 1.575 1.987 3.425v.04c.039.078.077.236.115.472 1.376-.551 2.66-1.636 3.043-2.463 0-1.266-2.157-2.059-3.85-2.222-.756-.073-1.754-.125-2.2 0z" fill="url(#paint4_linear)"/><path d="M7.753 4.04c-.423 0-1.836.552-2.17.8C4.363 5.743 4.33 7.2 4.33 9c0 .376.88 2.246.082 2.65.018.028.32.68.34.702.49.505.355-.2.591.288.23-.079.707-.215.707-.215 1.36-.384 3.896-1.289 4.358-2.874.758-1.82-1.427-4.248-2.654-5.511z" fill="#43698B"/></g><path d="M6.049 4.197S3.832 5.22 3.182 7.504c-.65 2.283.65 4.37.65 4.37s1.95-.551 3.478-1.732c0 0 .688-.512.88-1.103.19-.63-.153-1.417-.153-1.417-.65-1.85-1.988-3.425-1.988-3.425z" fill="#BED6EA"/><defs><linearGradient id="paint0_linear" x1="3.349" y1="3.122" x2="21.904" y2="24.434" gradientUnits="userSpaceOnUse"><stop stop-color="#1A1E21"/><stop offset="1" stop-color="#06060A"/></linearGradient><linearGradient id="paint2_linear" x1="11.38" y1="13.997" x2="7.28" y2="10.657" gradientUnits="userSpaceOnUse"><stop stop-color="#C4CA80"/><stop offset=".505" stop-color="#DBE08C"/></linearGradient><linearGradient id="paint3_linear" x1="14.078" y1="10.667" x2="10.902" y2="8.08" gradientUnits="userSpaceOnUse"><stop stop-color="#9FBC6E"/><stop offset=".403" stop-color="#AFCE79"/></linearGradient><linearGradient id="paint4_linear" x1="12.394" y1="7.82" x2="7.887" y2="4.148" gradientUnits="userSpaceOnUse"><stop stop-color="#9EC381"/><stop offset=".161" stop-color="#84B16B"/><stop offset=".321" stop-color="#71A45A"/><stop offset=".432" stop-color="#6A9F54"/></linearGradient></defs></svg>