<!-- by TradingView --><svg width="18" height="18" viewBox="0 0 18 18" fill="none" xmlns="http://www.w3.org/2000/svg">
<rect width="18" height="18" fill="#F0F3FA"/>
<path d="M11 13C12.4806 13 13.7733 12.1956 14.4649 11H13.2361C12.6868 11.6137 11.8885 12 11 12C10.1115 12 9.31324 11.6137 8.76392 11H7.53516C8.22678 12.1956 9.51946 13 11 13Z" fill="#A4ECA3"/>
<path fill-rule="evenodd" clip-rule="evenodd" d="M10.4649 11C9.77325 12.1956 8.48056 13 7 13C5.51944 13 4.22675 12.1956 3.53513 11H4.76389C5.31321 11.6137 6.1115 12 7 12C7.8885 12 8.68679 11.6137 9.23611 11H10.4649ZM10.4649 7C9.77325 5.8044 8.48056 5 7 5C5.51944 5 4.22675 5.8044 3.53513 7H4.76389C5.31321 6.38625 6.1115 6 7 6C7.8885 6 8.68679 6.38625 9.23611 7H10.4649ZM3 9C3 8.6547 3.04375 8.31962 3.12602 8H4.17071C4.06015 8.31278 4 8.64936 4 9C4 9.35064 4.06015 9.68722 4.17071 10H3.12602C3.04375 9.68038 3 9.3453 3 9Z" fill="#32C5B3"/>
<path d="M14.4649 7C13.7733 5.8044 12.4806 5 11 5C9.51946 5 8.22678 5.8044 7.53516 7H8.76392C9.31324 6.38625 10.1115 6 11 6C11.8885 6 12.6868 6.38625 13.2361 7H14.4649Z" fill="#A4ECA3"/>
<path d="M15 9C15 9.3453 14.9563 9.68038 14.874 10H13.8293C13.9398 9.68722 14 9.35064 14 9C14 8.64936 13.9398 8.31278 13.8293 8H14.874C14.9563 8.31962 15 8.6547 15 9Z" fill="#32C5B3"/>
<path d="M8.17071 8C8.06015 8.31278 8 8.64936 8 9C8 9.35064 8.06015 9.68722 8.17071 10H7.12602C7.04375 9.68038 7 9.3453 7 9C7 8.6547 7.04375 8.31962 7.12602 8H8.17071Z" fill="#32C5B3"/>
<path fill-rule="evenodd" clip-rule="evenodd" d="M4.81891 8H3.41553V9.07017H4.81891C5.11443 9.07017 5.35399 8.8306 5.35399 8.53508C5.35399 8.23957 5.11443 8 4.81891 8ZM4.54699 8.25312H3.6001V8.75935H4.54699C4.68678 8.75935 4.8001 8.64602 4.8001 8.50624C4.8001 8.36645 4.68678 8.25312 4.54699 8.25312Z" fill="#32C5B3"/>
<path fill-rule="evenodd" clip-rule="evenodd" d="M4.95737 10H3.41553V8.92983H4.95737C5.25289 8.92983 5.49245 9.1694 5.49245 9.46492C5.49245 9.76043 5.25289 10 4.95737 10ZM4.54699 9.74688H3.6001V9.24065H4.54699C4.68678 9.24065 4.8001 9.35398 4.8001 9.49376C4.8001 9.63355 4.68678 9.74688 4.54699 9.74688Z" fill="#32C5B3"/>
<path d="M10 8V10H10.6667V8.875L11.3594 9.75H11.6406L12.3333 8.875V10H13V8H12.3906L11.5 9.09152L10.6094 8H10Z" fill="#32C5B3"/>
</svg>
