<!-- by TradingView --><svg width="18" height="18" viewBox="0 0 18 18" xmlns="http://www.w3.org/2000/svg"><path fill="#3C2767" d="M0 0h18v18H0z"/><path d="M9 4A4.99 4.99 0 0 0 5.2 5.74l-.88-.49.02.05a5.56 5.56 0 0 0 .9 3.29 3.77 3.77 0 0 1 2.35-3.1h.03l.19-.07h.02l.42-.12h.06l.16-.03.07-.01.15-.02H9A3.77 3.77 0 0 1 12.77 9v.2a3.87 3.87 0 0 1-.63 1.89A3.78 3.78 0 0 1 9 12.77h-.25l-.12-.01-.07-.01-.11-.01-.08-.02-.1-.01-.08-.02-.1-.02-.08-.03-.1-.02-.07-.03-.1-.03-.07-.03-.1-.03-.07-.04-.08-.03-.08-.04-.08-.04-.08-.04-.07-.04-.08-.05-.07-.04-.08-.06-.06-.04a3.93 3.93 0 0 1-.33-.26l-.02-.02-.09-.09-.03-.03-.09-.09-.04-.03-.07-.1-.04-.04a2.4 2.4 0 0 1-.07-.09L6 11.3l-.07-.1-.03-.04a1.88 1.88 0 0 1-.07-.1l-.02-.04-.07-.1a.75.75 0 0 0-.02-.05l-.06-.11-.02-.04-.06-.12-.02-.03a3.65 3.65 0 0 1-.05-.13l-.01-.03-.06-.13c-.1-.28-.16-.56-.19-.85a4.52 4.52 0 0 1-1.1-1.64A5 5 0 1 0 9 4.01V4Z" fill="#fff"/></svg>