<!-- by TradingView --><svg width="18" height="18" viewBox="0 0 18 18" xmlns="http://www.w3.org/2000/svg"><path fill="#2E008C" d="M0 0h18v18H0z"/><path d="M8.5 5.19V4c-3.78.38-3.73 3.5-3.31 5 .16-.71.74-2.14 1.99-2.38C8.36 6.39 8.5 5.59 8.5 5.19ZM8.5 12.8V14c-3.78-.38-3.73-3.5-3.31-5 .16.71.74 2.14 1.99 2.38 1.18.23 1.32 1.03 1.32 1.43ZM9.5 5.19V4c3.78.38 3.73 3.5 3.31 5-.16-.71-.74-2.14-1.99-2.38C9.64 6.39 9.5 5.59 9.5 5.19ZM9.5 12.8V14c3.78-.38 3.73-3.5 3.31-5-.16.71-.74 2.14-1.99 2.38-1.18.23-1.32 1.03-1.32 1.43Z" fill="#fff"/><ellipse cx="9" cy="9" rx=".99" ry="1" fill="#F4A020"/></svg>