<!-- by TradingView --><svg xmlns="http://www.w3.org/2000/svg" width="18" height="18" viewBox="0 0 18 18"><path fill="url(#acr1bz0dn)" d="M0 0h18v18H0z"/><path fill-rule="evenodd" d="M11.99 11.6a1.1 1.1 0 0 1-.57-.15c-.27-.19-.4-.5-.34-.9.04-.22.25-.78.29-.87v-.02l1.5-4.3c.08-.2-.03-.36-.24-.36h-.7a.57.57 0 0 0-.36.16.46.46 0 0 0-.13.2l-.14.38-.3.85-.13-.2-.15-.2A3.27 3.27 0 0 0 8.22 5C6.44 5 5.17 6.16 4.44 7.6c-.2.4-.34.84-.4 1.3-.16 1.05.1 2.18.73 2.94.19.23.4.43.65.6l.15.09c.5.3 1.08.47 1.7.47 1.02 0 2-.44 2.75-1.13.1.22.25.37.41.53l.03.03c.44.4.98.57 1.55.57.74 0 1.47-.29 1.98-.85l-.64-1.3c-.19.47-.56.75-1.37.75zm-6.04-.68c.35.42.85.66 1.44.66 1.21 0 2.35-1.12 2.68-2.37l.07-.33c.1-.65-.06-1.35-.4-1.8a1.8 1.8 0 0 0-1.44-.66c-1.47-.04-2.55 1.26-2.75 2.67a2.6 2.6 0 0 0 .4 1.83z" fill="#fff"/><defs><linearGradient id="acr1bz0dn" x1="3.35" y1="3.12" x2="21.9" y2="24.43" gradientUnits="userSpaceOnUse"><stop stop-color="#1A1E21"/><stop offset="1" stop-color="#06060A"/></linearGradient></defs></svg>