<!-- by TradingView --><svg width="18" height="18" viewBox="0 0 18 18" xmlns="http://www.w3.org/2000/svg"><path fill="#F0F3FA" d="M0 0h18v18H0z"/><path d="M12.17 8.8c-.1-.05-.07-.14.01-.2.54-.48.67-.96.67-1.44V6C12.84 4.6 12.27 4 10.42 4H6.24c-.13 0-.24.1-.24.2v9.6c0 .1.11.2.24.2h4.34c1.74 0 2.42-1.05 2.42-2.51v-.82c0-.98-.18-1.45-.83-1.86ZM8 5.65c0-.11.03-.14.16-.14h2.01c.5 0 .7.44.7 1.25 0 .92-.28 1.25-.7 1.25h-2C8.02 8 8 7.97 8 7.86V5.64ZM10.33 12H8.17c-.13 0-.16-.03-.16-.14V9.64c0-.11.03-.14.16-.14h2.16c.54 0 .68.5.69 1.26.01 1-.18 1.24-.69 1.24Z" fill="#101415"/></svg>