<!-- by TradingView --><svg xmlns="http://www.w3.org/2000/svg" width="18" height="18" viewBox="0 0 18 18"><path fill="#F0F3FA" d="M0 0h18v18H0z"/><path d="M8.5 5.5a1.5 1.5 0 1 1-3 0 1.5 1.5 0 0 1 3 0zm0 3.5a1.5 1.5 0 1 1-3 0 1.5 1.5 0 0 1 3 0zM7 14a1.5 1.5 0 1 0 0-3 1.5 1.5 0 0 0 0 3zm5.5-5a1.5 1.5 0 1 1-3 0 1.5 1.5 0 0 1 3 0zM11 14a1.5 1.5 0 1 0 0-3 1.5 1.5 0 0 0 0 3z" fill="url(#azqr1dziy)"/><defs><linearGradient id="azqr1dziy" x1="6.04" y1="4" x2="12.19" y2="13.82" gradientUnits="userSpaceOnUse"><stop stop-color="#00809B"/><stop offset="1" stop-color="#BDE3C7"/></linearGradient></defs></svg>