<!-- by TradingView --><svg width="18" height="18" xmlns="http://www.w3.org/2000/svg"><path fill="#F0F3FA" d="M0 0h18v18H0z"/><path d="M9.696 4.205c.048-.065.1-.126.154-.184a2.974 2.974 0 00-.106-.226c-.183-.36-.364-.589-.364-.589s-1.158.836-1.328 2.03c-.17 1.196.71 2.296.71 2.296s.603-.437 1.004-1.13c-.332.11-.568.147-.568.147s-.239-1.365.498-2.344z" fill="#3A7C4A"/><path d="M11.867 3s-1.251.195-2.018 1.02c.177.41.318.936.24 1.48-.039.27-.128.524-.243.752-.026.051-.054.101-.08.15.297-.1.672-.257 1.018-.501.213-.152.416-.335.583-.557.402-.534.514-1.182.532-1.661.017-.4-.032-.683-.032-.683z" fill="#80AA89"/><path d="M10.09 5.5c.077-.544-.064-1.07-.24-1.48-.054.06-.106.12-.154.184-.737.98-.498 2.345-.498 2.345s.236-.037.567-.147c.027-.049.055-.099.081-.15.115-.228.204-.482.243-.752z" fill="#5A9166"/><path d="M6.07 8.548s-.36.708-.36 1.543c.443.243 1.078.685 1.398 1.357.173.365.233.75.235 1.103.139.08.228.122.228.122s.636-1.243.222-2.382C7.379 9.15 6.07 8.548 6.07 8.548zM12.115 9.242c.47-.876.362-1.882.362-1.882s-1.447.14-2.245 1.074c-.8.935-.651 2.311-.651 2.311s.104-.01.273-.043c.166-.31.398-.624.718-.872.48-.37 1.067-.526 1.543-.588z" fill="#80AA89"/><path d="M12.115 9.242c-.078.15-.173.294-.29.429-.584.683-1.514.942-1.971 1.031-.345.64-.413 1.264-.413 1.264s1.444.144 2.428-.616C12.852 10.59 13 9.214 13 9.214s-.38-.037-.885.028z" fill="#3A7C4A"/><path d="M11.825 9.67c.116-.134.212-.279.29-.428-.476.063-1.063.218-1.543.588-.32.248-.552.562-.718.872.457-.089 1.386-.348 1.97-1.031z" fill="#5A9166"/><path d="M5.85 10.93a2.443 2.443 0 01-.14-.839c-.281-.152-.485-.226-.485-.226s-.513 1.295.01 2.393c.524 1.098 1.884 1.583 1.884 1.583s.229-.578.224-1.29c-.392-.229-1.187-.778-1.493-1.62z" fill="#3A7C4A"/><path d="M5.71 10.091c0 .274.038.56.14.84.306.842 1.1 1.391 1.493 1.62a2.603 2.603 0 00-.235-1.103c-.32-.672-.955-1.114-1.399-1.357z" fill="#5A9166"/><path d="M7.388 14.998c1.585-1.57 1.262-3.086 1.52-5.022.349-2.63 2.118-3.576 2.088-3.558.058-.033.04-.032-.047.007-.487.221-2.11 1.154-2.443 3.904-.212 1.748.204 2.636-1.12 4.668-.002.003 0 .004.002.001z" fill="#3A7C4A"/></svg>