<!-- by TradingView --><svg width="18" height="18" xmlns="http://www.w3.org/2000/svg"><path fill="url(#paint0_linear)" d="M0 0h18v18H0z"/><path d="M9.562 6.664h2.694l.17-.664H9.748l-.186.664zM10.294 7.327h1.795l.167-.663H9.912l.382.663zM3.17 6.664h6.195C9.299 6.498 8.753 6 8.578 6L3.326 6l-.156.664zM6.608 7.327L6.397 8h1.907c.004-.053.055-.623.067-.673H6.608zM8.783 6.664H3.17l-.172.663h5.508c.058-.06.206-.62.277-.663zM2.998 7.327L2.811 8h2.663l.213-.673H2.998zM11.923 8l.166-.673h-1.754c.013.05-.05.673-.05.673h1.638z" fill="#B2B5BE"/><path d="M10.408 7.522a1.038 1.038 0 11-2.075 0 1.038 1.038 0 012.075 0z" fill="#F48126"/><path d="M9.105 7.932l.164-.687c-.243.054-.58.193-.92.348-.232.109-.407.3-.63.407l-4.903-.01-.902 4.012h5.67a.78.78 0 00.771-.655l.405-2.013a.78.78 0 00-.574-.857.777.777 0 00.918-.545zm-3.248 2.381H4.92l.188-.664h.937l-.188.664z" fill="#fff"/><path d="M13.196 6.664h2.625L16 6h-2.638l-.167.664zM13.196 6.664l-.17.663h2.62l.174-.663h-2.624zM13.026 7.327L12.86 8h2.614l.171-.673h-2.619z" fill="#B2B5BE"/><path d="M15.475 8h-4.977s-.156-.177-.186-.201c-.358-.299-.691-.58-.877-.577H9.43l-.302 1.245L8.32 12H11l.51-2.35h.94L11.94 12h2.61l.925-4z" fill="#fff"/><defs><linearGradient id="paint0_linear" x1="3.349" y1="3.122" x2="21.904" y2="24.434" gradientUnits="userSpaceOnUse"><stop stop-color="#1A1E21"/><stop offset="1" stop-color="#06060A"/></linearGradient></defs></svg>