<!-- by TradingView --><svg width="18" height="18" xmlns="http://www.w3.org/2000/svg"><path fill="#023D2F" d="M0 0h18v18H0z"/><path d="M4.84 5.33a1.908 1.908 0 012.413-1.032l5.234 1.937c1.12.415 1.112 2.003-.014 2.406l-.248.088.314.119c1.106.417 1.104 1.983-.004 2.397l-5.22 1.95A1.987 1.987 0 115.953 9.46l2.146-.767-2.18-.822A1.908 1.908 0 014.84 5.329zm5.328 2.624l1.458-.521L6.76 5.632a.485.485 0 00-.34.909l3.749 1.413zm-.013 1.515L6.43 10.8a.565.565 0 10.388 1.062l4.864-1.817-1.527-.576z" fill="#167565"/><path d="M7.253 4.298A1.908 1.908 0 005.31 7.503a1.31 1.31 0 011.882-1.71l4.433 1.64-.685.245.031.016-2.917 1.02-.008-.002-2.095.749a1.987 1.987 0 101.364 3.733l5.22-1.95c1.107-.413 1.11-1.979.003-2.396l-.314-.119.248-.088c1.126-.403 1.135-1.991.014-2.406L7.253 4.298zM6.43 10.8l3.725-1.33 1.527.575-4.864 1.817A.565.565 0 116.43 10.8z" fill="#22C49A"/><path d="M12.653 8.561h-.003L8.856 9.917l-.034.029 1.333-.477 1.527.576L7.251 11.7l-.008.023-.218.082a1.285 1.285 0 11-1.017-2.35 1.946 1.946 0 00-.228.076 1.988 1.988 0 00.646 3.78 1.893 1.893 0 00.281-.007l-.003.01h.086c.175-.016.352-.055.526-.12l5.22-1.95c1.107-.413 1.11-1.979.003-2.396l-.314-.119.248-.088c.064-.023.124-.05.18-.08z" fill="#167565"/></svg>