<!-- by TradingView --><svg width="18" height="18" viewBox="0 0 18 18" xmlns="http://www.w3.org/2000/svg"><path fill="#F0F3FA" d="M0 0h18v18H0z"/><path d="M11 8.11a.63.63 0 0 0 .29-.53c0-.23-.05-.48-.34-.48-.66 0-.66 1.28-.66 1.72-.02.42-.06.75-.15 1-.24.74-.98 1.18-1.79 1.18-.63 0-1.35-.32-1.35-.99 0-.27.15-.6.49-.6.2 0 .33.13.33.33s-.1.33-.3.33a.54.54 0 0 0-.04.22c0 .41.41.65.82.65 1.12 0 1.22-1.22 1.27-2 .02-.33.03-.68.14-1 .21-.6.79-.94 1.44-.94.39 0 .85.16.85.59 0 .33-.4.54-.74.54a1.5 1.5 0 0 1-.25-.02ZM7 7v.06h-.1c-.22 0-.44.07-.64.21.38.17.74.46.74.81 0 .5-.57.79-1.29.86l-.02.07h.1c.43 0 .84.28.84.78 0 .14-.04.29-.1.43a1.68 1.68 0 0 1-1.4.78c-.28 0-.62-.16-.62-.5 0-.2.16-.4.36-.4.14 0 .24.06.32.17a.86.86 0 0 0-.18.21.44.44 0 0 0-.06.22c0 .15.08.23.23.23.08 0 .16-.03.25-.08.22-.15.37-.42.46-.68.05-.16.08-.31.08-.46 0-.4-.2-.67-.53-.67h-.19L5.27 9c.51-.08 1.1-.44 1.1-1.03 0-.21-.19-.4-.32-.52-.13.12-.38.53-.73 1.23l-.37.72c-.28.53-.6.93-.96 1.2-.36.27-.75.4-1.19.4a.93.93 0 0 1-.58-.17.54.54 0 0 1-.22-.44c0-.26.15-.44.35-.44.17 0 .3.14.3.32a.3.3 0 0 1-.19.3c0 .22.15.37.4.37.23 0 .46-.12.67-.35.21-.23.48-.67.8-1.32.3-.6.56-1.04.79-1.33.23-.28.47-.5.74-.63-.2-.12-.46-.25-.8-.25-1 0-2.12.86-2.12 2.02 0 .31.18.63.5.63.2 0 .37-.1.51-.3.15-.21.23-.46.23-.74 0-.16-.02-.3-.05-.42A1.01 1.01 0 0 0 4 7.92l.04-.02a1.47 1.47 0 0 1 .2.73 1.3 1.3 0 0 1-.71 1.22.85.85 0 0 1-.36.07c-.44 0-.77-.36-.77-.83 0-1.44 1.71-2.08 2.83-2.08.26 0 .53.11.82.2A1.79 1.79 0 0 1 7 7ZM14.56 7.35l.03.02a.61.61 0 0 0-.2.44c0 .25.17.42.41.42a.8.8 0 0 0 .81-.8c0-.24-.13-.38-.39-.38-.19 0-.4.06-.64.16-1 .46-1.91 1.65-1.91 2.77 0 .44.28.92.78.92.62 0 1-.66 1-1.22 0-.37-.16-.5-.43-.5-.47 0-.64.52-.64.9a1.18 1.18 0 0 0 0 .12h-.03a.86.86 0 0 1-.02-.13c0-.53.32-1.07.93-1.07.4 0 .7.18.7.59 0 .62-.62 1.08-1.15 1.28-.23.09-.46.13-.67.13-.68 0-1.14-.46-1.14-1.13 0-.8.55-1.52 1.14-2.01A3.48 3.48 0 0 1 15.27 7c.45 0 .73.23.73.6 0 .53-.55.73-1.04.73-.3 0-.62-.17-.62-.51a.6.6 0 0 1 .22-.47Z" fill="#956F2A"/></svg>