<!-- by TradingView --><svg width="18" height="18" viewBox="0 0 18 18" xmlns="http://www.w3.org/2000/svg"><path fill="#F0F3FA" d="M0 0h18v18H0z"/><path d="M13.69 5.06c-.09.18-.38.49-.89.93a26.1 26.1 0 0 1-4.96 3.3.13.13 0 0 1-.08-.03.15.15 0 0 1-.05-.15l.74-2.89.05-.08a.14.14 0 0 1 .08-.03c1.32-.1 2.59-.3 3.8-.62A4.16 4.16 0 0 0 13.66 5l.03.01.01.03v.02Z" fill="#00B49D"/><path d="M13.93 5.24h.05l.02.02v.03l-2.88 5.2a.2.2 0 0 1-.1.1.19.19 0 0 1-.12 0l-2.8-.78a.16.16 0 0 1-.08-.05.17.17 0 0 1-.02-.19.17.17 0 0 1 .06-.07 52.13 52.13 0 0 0 3.02-1.84c.98-.65 1.94-1.46 2.85-2.42Z" fill="#094E8F"/><path d="M6.03 6.62a3.87 3.87 0 0 1 2.1-.43.1.1 0 0 1 .03.03.12.12 0 0 1 .02.1L7.46 9c0 .03-.03.06-.05.08a.16.16 0 0 1-.09.04l-.1-.01a.17.17 0 0 1-.06-.07l-1.2-2.2a.17.17 0 0 1 .07-.22ZM4.53 8.64a3.94 3.94 0 0 1 1.1-1.72.1.1 0 0 1 .09.01.1.1 0 0 1 .03.04l1.21 2.26a.17.17 0 0 1-.01.17.15.15 0 0 1-.07.06.15.15 0 0 1-.1 0l-2.15-.63a.14.14 0 0 1-.1-.07.16.16 0 0 1 0-.12ZM4.62 9.12l2.14.6.07.05a.14.14 0 0 1 .02.15.14.14 0 0 1-.06.06l-2.57 1.55a.1.1 0 0 1-.14-.02.12.12 0 0 1-.03-.04c-.19-.63.17-1.74.36-2.24a.18.18 0 0 1 .09-.1.17.17 0 0 1 .12-.01Z" fill="#00B49D"/><path d="m9.1 12.51-1.2-2.16a.18.18 0 0 1 0-.2.17.17 0 0 1 .09-.05.16.16 0 0 1 .09 0l2.56.7a.11.11 0 0 1 .07.07.12.12 0 0 1 0 .1 4.11 4.11 0 0 1-1.46 1.62.15.15 0 0 1-.12-.03.16.16 0 0 1-.04-.05ZM6.35 12.75c-.5-.08-1.61-.31-2.03-.8a.12.12 0 0 1-.03-.1l.02-.05a.11.11 0 0 1 .04-.03l2.57-1.55a.13.13 0 0 1 .15 0l.05.07v.08l-.57 2.24a.18.18 0 0 1-.07.11.17.17 0 0 1-.13.03ZM6.92 12.92a.14.14 0 0 1-.1-.07.15.15 0 0 1-.01-.11l.54-2.25.05-.07a.15.15 0 0 1 .17-.03l.06.06 1.26 2.2a.1.1 0 0 1-.02.13 3.56 3.56 0 0 1-1.96.14Z" fill="#094E8F"/></svg>