<!-- by TradingView --><svg width="18" height="18" viewBox="0 0 18 18" xmlns="http://www.w3.org/2000/svg"><path fill="#F0F3FA" d="M0 0h18v18H0z"/><path d="M9 13c3.31 0 6-1.8 6-4s-2.69-4-6-4-6 1.8-6 4 2.69 4 6 4ZM4.88 7.73C6.65 7.18 8.76 7 10.18 7c1.76 0 1.9.73 1.9.9 0 .06-.05.22-.13.41-.19.5-.47 1.24-.16 1.24.2 0 .45-.2.7-.41.3-.24.6-.5.92-.5.47 0 .59.12.59.18-.1 0-.32.03-.44.18l-.07.1c-.3.43-1.3 1.9-3.02 1.9-1.62 0-5-.73-6.47-1.45h4.7c.15 0 .5-.08.74-.37s.3-.48.3-.54c.04-.12.05-.4-.3-.55-.44-.18-2.8-.54-4.56-.36Z" fill="#00477E"/></svg>