<!-- by TradingView --><svg xmlns="http://www.w3.org/2000/svg" width="18" height="18" viewBox="0 0 18 18"><path fill="url(#a0zbyaubt)" d="M0 0h18v18H0z"/><path d="M9 3.55 5.19 6.26 9 8.98l3.81-2.72L9 3.55Z" fill="url(#b0zbyaubt)"/><path d="M12.8 6.26 9 8.98v5.43l3.81-2.72V6.26Z" fill="url(#c0zbyaubt)"/><path d="M9 8.98 5.19 6.26v5.43L9 14.41V8.98Z" fill="url(#d0zbyaubt)"/><path d="M9 13.05v-4l3-2v4l-3 2Z" fill="url(#e0zbyaubt)"/><path d="m9 5.05-3 2 3 2 3-2-3-2Z" fill="url(#f0zbyaubt)"/><path d="m9 9.05-3-2v4l3 2v-4Z" fill="url(#g0zbyaubt)"/><path fill-rule="evenodd" d="m9 3.3 4 2.86v5.64l-4 2.85-4-2.85V6.16L9 3.3ZM5.38 6.65l3.43 2.44v4.95l-3.43-2.44V6.64Zm3.81 7.39 3.43-2.44V6.64L9.19 9.08v4.95ZM9 8.73l3.47-2.47L9 3.8 5.53 6.26 9 8.74Z" fill="#8FA888"/><defs><linearGradient id="a0zbyaubt" x1="16.23" y1="2.25" x2="2.73" y2="15.59" gradientUnits="userSpaceOnUse"><stop stop-color="#636267"/><stop offset=".95" stop-color="#0C0111"/></linearGradient><linearGradient id="b0zbyaubt" x1="5.19" y1="6.41" x2="12.81" y2="6.41" gradientUnits="userSpaceOnUse"><stop offset=".14" stop-color="#2C5F22"/><stop offset=".33" stop-color="#589337"/><stop offset=".49" stop-color="#6DB235"/><stop offset=".68" stop-color="#508C34"/><stop offset=".88" stop-color="#2D5F23"/></linearGradient><linearGradient id="c0zbyaubt" x1="12.54" y1="7.12" x2="9.01" y2="13.84" gradientUnits="userSpaceOnUse"><stop stop-color="#2E6024"/><stop offset=".29" stop-color="#5F9B3B"/><stop offset=".48" stop-color="#679741"/><stop offset=".7" stop-color="#558C38"/><stop offset="1" stop-color="#296221"/></linearGradient><linearGradient id="d0zbyaubt" x1="5.46" y1="6.69" x2="9.28" y2="13.97" gradientUnits="userSpaceOnUse"><stop stop-color="#2D6023"/><stop offset=".31" stop-color="#538D35"/><stop offset=".51" stop-color="#65A23B"/><stop offset=".71" stop-color="#558B37"/><stop offset="1" stop-color="#2A6322"/></linearGradient><linearGradient id="e0zbyaubt" x1="12" y1="9.58" x2="9" y2="9.58" gradientUnits="userSpaceOnUse"><stop stop-color="#5E5E5C"/><stop offset=".5" stop-color="#160D0E"/><stop offset="1" stop-color="#000600"/></linearGradient><linearGradient id="f0zbyaubt" x1="12" y1="7.18" x2="6" y2="7.18" gradientUnits="userSpaceOnUse"><stop offset=".16" stop-color="#030104"/><stop offset=".29" stop-color="#242324"/><stop offset=".49" stop-color="#545454"/><stop offset=".67" stop-color="#1E1916"/><stop offset=".85" stop-color="#070C0B"/></linearGradient><linearGradient id="g0zbyaubt" x1="9" y1="10.38" x2="6" y2="10.38" gradientUnits="userSpaceOnUse"><stop offset=".13" stop-color="#5D5D5E"/><stop offset=".43" stop-color="#1C1714"/><stop offset="1" stop-color="#040108"/></linearGradient></defs></svg>