<!-- by TradingView --><svg xmlns="http://www.w3.org/2000/svg" width="18" height="18" viewBox="0 0 18 18"><path fill="#137DA5" d="M0 0h18v18H0z"/><path fill-rule="evenodd" d="M9.58 11.62l-5.21.88 3.69-1.06H2.03l6.88-.36c.47-.26 1.17-.82.26-1.64a5.21 5.21 0 0 0-.7-.57c-.3-.18-.7-.47-.85-.69-.15-.22-.99-.47-1.26-.47a.75.75 0 0 1-.25-.08 6.55 6.55 0 0 0-1.92.3c-.28.12-.45.02-.5-.04-.04-.03-.21-.04-.59.06a.36.36 0 0 1-.27-.03 1.9 1.9 0 0 0-.7 0c-.08.01-.2-.01-.08-.16.14-.18.76-.51 1.55-.84.08-.05.2-.12-.03-.1l-.24.05c-.15.02-.26.04-.27 0-.02-.04.23-.19.73-.37.15-.04.51-.12.76-.16a.5.5 0 0 0 .3-.18c.1-.14.34-.28.83-.27a1.7 1.7 0 0 0 .5-.03 4.2 4.2 0 0 1 .8-.01c.25.02.52.04.62.06.1.02.31 0 .4-.02.04-.01.1-.05-.04-.09a2.21 2.21 0 0 0-.56 0c-.05 0-.13-.03 0-.08l.03-.01c.16-.07.34-.14.89-.14.02 0 .08 0 .13-.05.06-.05.31-.02.55.07.12.04.25.06.4.08.17.02.36.05.58.1.23 0 .74-.02 1 0 .25.04.53-.03.63-.06.05-.02.22-.05.45.04.05.01.16.04.27.03.11-.01.37.07.48.12.1.06.4.2.68.23.29.03.43.16.46.22.05.05.22.16.5.23l.03.1c-.32.01-1 0-1.1-.03l-.05.04c0 .01.1.06.51.1.44.04.83.24 1 .32l.05.03c.12.06.76.4.9.56.11.12-.01.17-.09.18-.12.01-.4.06-.54.12a.51.51 0 0 1-.27 0l-.5.02c-.19 0-.66-.02-1.01-.14a3.14 3.14 0 0 0-1.24-.02c-.05 0-.16 0-.12-.07l.04-.08h-.1l-.07.03c-.14.05-.44.15-1 .13-.17 0-.55-.04-.7-.06-.17-.02-.76.05-1.09.7-.01.03 0 .15.17.36.09.1.13.17.17.24.07.1.12.19.29.3.27.2.51.58.57 1.17.03.3.1.45.13.53.02.03.03.05.02.07l5.55.26-5.21.1 3.4.92-4.6-.84zM8.1 7.82c.4.05.81.1 1.04.01-.09.21-.35.62-.65.51-.17-.06-.26-.14-.36-.23a1.54 1.54 0 0 0-.6-.34c.16 0 .36.03.57.05z" fill="#fff"/></svg>