<!-- by TradingView --><svg width="18" height="18" viewBox="0 0 18 18" xmlns="http://www.w3.org/2000/svg"><path fill="#F0F3FA" d="M0 0h18v18H0z"/><path d="M9.58 4.7a.06.06 0 0 0-.04-.03.06.06 0 0 0-.06.02c-.3.32-.52.7-.66 1.11-.01.03-.03.03-.05.02L8 5.4c-.01-.01-.02-.02 0-.04.22-.3.48-.55.77-.74.33-.2.62-.4.86-.59.05-.03.08-.02.1.03.04.12.2.3.5.51a2.1 2.1 0 0 1 .49.7.04.04 0 0 1-.03.04 1 1 0 0 0-.51.38c-.02.03-.04.03-.06 0-.22-.31-.4-.64-.55-.97Z" fill="#EC74A8"/><path d="M8.6 7.12a.1.1 0 0 0 .12.1 2.83 2.83 0 0 1 1.6.2c.06.03.08.07.05.12l-.12.2c-.02.03-.05.04-.08.02a1.63 1.63 0 0 0-1.8-.13c-.04.02-.06 0-.07-.02-.16-.48-.09-.87.2-1.17.24-.24.37-.4.4-.47l.43-.92.11-.16c.05-.05.07-.05.06.02-.05.72-.3 1.33-.76 1.83-.1.1-.14.23-.14.38ZM11.79 7.18c-.35-.08-.7-.07-1.06.01-.04.01-.06 0-.06-.04.01-.43-.1-.82-.34-1.18a.22.22 0 0 1 .02-.26c.11-.14.26-.24.43-.3.08-.04.25-.06.52-.08.38-.02.74-.1 1.09-.25.03-.01.05 0 .03.04-.09.22-.14.4-.14.5-.02.2 0 .6.02 1.18.01.09-.03.2-.1.32-.07.11-.16.15-.27.1a7.04 7.04 0 0 0-.14-.04Z" fill="#EC74A8"/><path d="M8.09 7.22a.02.02 0 0 1-.01.02.02.02 0 0 1-.03 0c-.08-.1-.17-.19-.26-.24-.2-.14-.6-.16-.84-.2a.1.1 0 0 1-.07-.07 1.62 1.62 0 0 1 .43-1.63c.02-.03.05-.03.07 0 .22.28.5.46.84.56.04.01.18.1.41.28.03.02.04.05 0 .08-.35.35-.59.66-.54 1.2ZM8.72 7.03c.06-.14.15-.28.25-.4.36-.45.54-.9.6-1.48.01-.09.04-.1.09-.02.22.39.47.85.75 1.4.1.18.13.43.09.73a.1.1 0 0 1-.06.08.11.11 0 0 1-.1 0 2.58 2.58 0 0 0-1.59-.23.05.05 0 0 1-.03-.05v-.03ZM6.33 6.15l.03.36a.14.14 0 0 1-.08.14L6 6.78a.15.15 0 0 1-.2-.08l-.15-.5a.14.14 0 0 1 .07-.17.15.15 0 0 1 .07-.01h.38a.15.15 0 0 1 .15.13ZM13.03 7.14l-.64.01a.03.03 0 0 1-.03-.04l.1-.6a.03.03 0 0 1 .01-.02.03.03 0 0 1 .04 0l.32.22.01.02.22.36a.03.03 0 0 1 0 .03l-.01.02h-.02ZM5.48 7.2c.24.21.38.5.43.88 0 .03-.02.06-.05.06a1.8 1.8 0 0 0-.88.4.16.16 0 0 1-.09.03c-.03 0-.06 0-.09-.02-.44-.26-.58-.77-.8-1.27-.01-.04 0-.07.05-.08.36-.1.7-.28 1.03-.56.04-.02.06-.02.08.02.17.32.27.5.32.53Z" fill="#EC74A8"/><path d="M6.65 6.95c-.1.01-.12-.02-.05-.09a.78.78 0 0 1 .12-.08c.03-.02.04-.05.03-.08a1.5 1.5 0 0 1-.02-.84.12.12 0 0 0-.05-.15.13.13 0 0 0-.06-.01L5.3 5.59c-.05 0-.07.01-.07.05-.03.4.02.76.15 1.12.06.16.2.33.33.48v.01c.07.08.14.2.2.37l.1.24c.08.22.17.46.28.63.29.44.73.65 1.31.64.04 0 .06-.02.05-.05-.04-.4.05-.73.28-1a12.26 12.26 0 0 0 .27-.34l-.01-.05c-.16-.34-.35-.55-.6-.64-.3-.1-.62-.14-.94-.1Zm-.17-.88.03.46a.22.22 0 0 1-.12.21l-.35.19a.23.23 0 0 1-.32-.13l-.2-.64a.22.22 0 0 1 .1-.26.23.23 0 0 1 .1-.03h.54a.23.23 0 0 1 .22.2Zm-.24 1.9a4.26 4.26 0 0 1-.17-.57.1.1 0 0 1 .07-.11 2.06 2.06 0 0 1 1.85.36.05.05 0 0 1-.03.07c-.44.24-.65.63-.61 1.17a.07.07 0 0 1-.07.08l-.03-.01a2.45 2.45 0 0 1-.7-.5c-.13-.14-.23-.3-.3-.5ZM13.7 7.6c-.3.52-.64.9-1.03 1.16-.1.07-.15.04-.13-.08.07-.37.01-.88-.3-1.13a54.58 54.58 0 0 1-.2-.18h.02a2.74 2.74 0 0 1 1.63.16.05.05 0 0 1 0 .06Z" fill="#EC74A8"/><path d="M7.73 7.7c-.35.22-.52.56-.53 1.01 0 .04-.01.05-.05.03a1.53 1.53 0 0 1-.94-1.25.1.1 0 0 1 .08-.1 1.96 1.96 0 0 1 1.45.26.04.04 0 0 1-.01.06Z" fill="#EC74A8"/><path fill-rule="evenodd" d="M10.44 7.97c.43.28.5.9.37 1.36a.08.08 0 0 0 .07.1c.43.05.9.01 1.21-.24.29-.23.38-.58.27-1.05a.97.97 0 0 0-.61-.71c-.55-.22-1-.12-1.34.32a.15.15 0 0 0 0 .17c0 .02.02.03.03.05Zm.2-.06c.05.13.12.24.22.32l.06.08c.12.29.16.56.12.8a.16.16 0 0 0 .11.19h.08l.46-.13c.09-.03.17-.08.24-.16.1-.1.17-.18.18-.23.1-.45 0-.8-.26-1.02-.4-.34-.8-.32-1.18.05a.09.09 0 0 0-.03.1Z" fill="#EC74A8"/><path d="M9.43 7.56c.16.02.26.13.3.33 0 .01.01.02.03.01.15-.07.26-.1.34-.05.23.1.29.27.18.48-.03.04-.01.07.03.07.38.05.47.48.12.66l-.02.02v.03c.3.28.08.66-.3.6-.04 0-.06.01-.05.06.04.23-.06.37-.32.41-.08.01-.18-.04-.3-.15H9.4c-.09.18-.22.26-.38.23-.16-.02-.25-.13-.3-.33 0-.01 0-.02-.02-.01-.15.07-.26.1-.34.05-.23-.1-.29-.27-.18-.48.02-.04.01-.07-.04-.07-.37-.05-.46-.48-.1-.66V8.7c-.29-.28-.07-.66.3-.6.05 0 .07-.01.06-.06-.04-.23.06-.37.31-.41.09-.01.19.04.31.15h.03c.1-.18.22-.26.38-.23Z" fill="#F2A359"/><path d="M11 8.16a13.27 13.27 0 0 0-.16-.24.13.13 0 0 1 .07-.14c.3-.15.57-.14.81.03.25.17.35.46.29.86a.46.46 0 0 1-.33.38l-.24.07c-.18.06-.26-.01-.25-.2a1.2 1.2 0 0 0-.2-.76Z" fill="#EC74A8"/><path d="M8.88 9.56c.4.21.88.08 1.07-.28.2-.37.02-.83-.39-1.04-.4-.2-.88-.07-1.07.29-.19.37-.02.83.39 1.03Z" fill="#FCCE43"/><path d="M4.24 9.22c.11-.06.28-.13.4-.22.42-.33.8-.63 1.28-.71.04-.01.07 0 .09.04.17.35.4.6.69.76.05.04.05.07 0 .1-.51.25-.8.56-.86.93a.05.05 0 0 1-.03.03.05.05 0 0 1-.04 0c-.31-.11-.6-.28-.88-.5a2.89 2.89 0 0 0-.66-.4.03.03 0 0 1 0-.03ZM13.86 8.76l.11.07c.04.02.04.05 0 .07-.16.1-.3.28-.45.51a.1.1 0 0 1-.08.05.1.1 0 0 1-.09-.04c-.11-.16-.29-.32-.54-.5-.02-.01-.02-.03 0-.04l.55-.56a.14.14 0 0 1 .18-.01l.05.05c.13.24.22.37.27.4ZM11.41 9.66c-.04-.03-.03-.05.02-.05.47-.02.81-.22 1.04-.61a.07.07 0 0 1 .1-.03c.36.2.57.44.84.78.12.16.28.3.47.4.04.02.04.04 0 .05l-.57.27c-.47.25-.84.29-1.33.23-.03 0-.06-.02-.06-.06a1.44 1.44 0 0 0-.5-.98ZM6.42 10.47H6.4a.03.03 0 0 0 0 .04c.14.21.29.38.45.53.05.05.04.07-.03.08h-.08a.25.25 0 0 1-.19-.05 1.5 1.5 0 0 1-.48-.78.09.09 0 0 1 .05-.1h.04l1.35.09c.16 0 .29-.01.4-.05.03-.02.04-.04 0-.07-.23-.24-.4-.5-.48-.79-.02-.08 0-.12.09-.13h.07c.07-.01.12.02.14.1a1.66 1.66 0 0 0 .48.78.03.03 0 0 1 0 .02v.01l-.39.38a.14.14 0 0 1-.11.05l-1.3-.1Z" fill="#EC74A8"/><path d="M7.35 9.42c.05.21.13.39.24.53.12.15.09.21-.1.2l-1.34-.11a.05.05 0 0 1-.04-.05v-.02c.24-.47.62-.7 1.13-.71l.05.01.03.04s0 .04.03.11Z" fill="#EC74A8"/><path fill-rule="evenodd" d="M10.72 9.58c-.24.4-.6.79-1.1.8-.04 0-.05.03-.05.06.01.27.06.5.14.71.29.7 1.14.76 1.66.27.53-.48.5-1.39-.2-1.72-.11-.06-.24-.11-.37-.15a.07.07 0 0 0-.08.03Zm-.87.96a.18.18 0 0 0-.04.12c.02.46.22.73.6.8a.8.8 0 0 0 .76-.21c.37-.36.42-.75.14-1.18a.74.74 0 0 0-.41-.31.16.16 0 0 0-.18.07c-.2.33-.34.59-.75.65a.18.18 0 0 0-.12.06Z" fill="#EC74A8"/><path d="m5.43 11.4.16-.05a.7.7 0 0 1 .3-.03.1.1 0 0 1 .08.07.1.1 0 0 1 0 .03l-.03.44c0 .04-.03.06-.07.04a4.36 4.36 0 0 0-1.55-.38c-.04 0-.05-.02-.03-.06.24-.53.38-1.07.43-1.61 0-.04.02-.05.05-.03.33.2.47.34.84.46a.06.06 0 0 1 .03.1c-.22.3-.32.62-.29.97 0 .04.03.06.08.06ZM10.02 10.64c.36-.07.64-.32.78-.65a.14.14 0 0 1 .23-.04c.36.4.41.77.15 1.1a.76.76 0 0 1-.63.3c-.3-.01-.51-.2-.6-.6-.02-.06 0-.1.07-.11ZM8.49 11.67l-.5.28c-.07.04-.13.03-.17-.05a1.4 1.4 0 0 1 .46-1.63c.05-.04.1-.04.15-.01l.03.02c.05.02.05.05 0 .07-.44.28-.62.72-.54 1.32a.06.06 0 0 0 .02.04.06.06 0 0 0 .05.01c.2-.04.38-.16.56-.35.04-.04.06-.04.07.02.05.24.16.43.33.58l.06.01c.02 0 .04 0 .05-.02.34-.38.26-1 .1-1.42-.02-.05 0-.08.06-.09h.09c.05-.01.08.01.1.06.18.55.17 1.28-.27 1.7a.11.11 0 0 1-.13.02.92.92 0 0 1-.44-.53c-.01-.04-.04-.06-.08-.03Z" fill="#EC74A8"/><path d="m6.35 11.03.07.07c.04.05.02.08-.06.07-.3-.03-.57-.03-.82 0-.04 0-.06-.01-.06-.05.02-.24.13-.47.35-.7.06-.06.1-.05.12.02.08.24.2.43.4.59ZM8.6 11.1c-.15.2-.3.35-.45.45a.08.08 0 0 1-.08 0 .08.08 0 0 1-.05-.06c0-.47.18-.83.57-1.08a.12.12 0 0 1 .1-.02l.28.06a.1.1 0 0 1 .08.06 1.5 1.5 0 0 1 .02 1.18.04.04 0 0 1-.06 0 1.6 1.6 0 0 1-.34-.57c-.01-.05-.04-.05-.07-.01ZM7.65 10.78l-.55.3a.04.04 0 0 1-.05 0l-.4-.38a.04.04 0 0 1 0-.04.04.04 0 0 1 .03-.03l.95.08a.04.04 0 0 1 .04.03.04.04 0 0 1-.02.04ZM12.97 10.84l.7.76a.04.04 0 0 1 0 .03v.02h-.02l-.96.29h-.02l-.02-.02-.4-.98a.04.04 0 0 1 .03-.05l.66-.06a.04.04 0 0 1 .03.01ZM10.28 11.83c.81.15 1.41-.08 1.58-.94a.06.06 0 0 1 .05-.04.06.06 0 0 1 .06.02c.23.33.4.7.51 1.13.1.39.22.7.34.93.01.03 0 .04-.03.04a8.24 8.24 0 0 1-1.43-.33c-.45-.16-.83-.4-1.13-.73-.07-.07-.05-.1.05-.08ZM7.04 11.28c.07 0 .23-.06.47-.14.04-.02.06 0 .06.04-.02.45.06.84.24 1.17.02.03.02.06-.01.08-.33.3-.72.45-1.15.48-.19.02-.33.06-.47.13-.04.02-.06 0-.06-.04 0-.12.04-.3.02-.44a5 5 0 0 1-.04-1.14c0-.06.04-.09.1-.09.3 0 .58-.02.84-.05Z" fill="#EC74A8"/><path d="M10.77 13.32c-.33.18-.57.3-.64.62-.01.07-.04.08-.08.02l-.22-.26c-.17-.16-.44-.24-.61-.32a1.32 1.32 0 0 1-.63-.65.06.06 0 0 1 .02-.04l.02-.02c.55-.15.9-.5 1.08-1.04 0-.05.03-.05.06-.02l.29.33a2.7 2.7 0 0 0 1.2.83.06.06 0 0 1 .01.05v.03c-.15.2-.31.36-.5.47ZM8.22 12.7H8.2a.03.03 0 0 1-.01-.02v-.01a2.35 2.35 0 0 1-.19-.4.5.5 0 0 1-.02-.15c0-.03 0-.06.03-.07l.4-.23c.04-.02.1.02.2.1.08.1.17.22.25.37v.01a.03.03 0 0 1 .01.02.03.03 0 0 1-.01.02l-.64.35Z" fill="#EC74A8"/><path d="M8.16 12.95c.02 0 .04-.02.07-.06a.23.23 0 0 1 .07-.06l.08-.04c.04-.02.07-.02.08.03a1.45 1.45 0 0 0 .38.5v.02a.03.03 0 0 1-.03.02c-.28 0-.58.08-.87.22-.04.02-.07.01-.1-.02a1.54 1.54 0 0 0-.73-.49.02.02 0 0 1 0-.04c.28-.13.55-.29.79-.48.02-.02.04-.02.06 0 .03.02.05.06.07.12l.05.23c.01.05.04.06.08.05Z" fill="#EC74A8"/></svg>