<!-- by TradingView --><svg width="18" height="18" viewBox="0 0 18 18" xmlns="http://www.w3.org/2000/svg"><path fill="#F0F3FA" d="M0 0h18v18H0z"/><path d="M5 8.04V4h1.38c.44 0 .79.12 1.03.3.25.18.38.43.38.76a.93.93 0 0 1-.57.88 1.4 1.4 0 0 1-.57.11l.1-.14c.25 0 .47.04.66.12.19.08.33.2.43.35.1.15.16.34.16.57 0 .33-.13.6-.38.78-.25.19-.62.31-1.13.31H5Zm.42-.38h1.06c.36 0 .63-.06.81-.17.2-.12.29-.32.29-.58 0-.25-.1-.44-.29-.56a1.5 1.5 0 0 0-.8-.18H5.37v-.35h.97c.32 0 .57-.06.74-.18a.6.6 0 0 0 .27-.54c0-.24-.09-.42-.27-.54a1.3 1.3 0 0 0-.74-.18h-.93v3.28ZM12.05 14c-.3 0-.57-.05-.82-.15a1.97 1.97 0 0 1-1.08-1.05c-.1-.25-.15-.51-.15-.8a1.97 1.97 0 0 1 .58-1.43 2.16 2.16 0 0 1 1.47-.57c.29 0 .56.05.8.15.26.09.47.23.64.42l-.26.27a1.43 1.43 0 0 0-.53-.36c-.2-.07-.4-.1-.63-.1a1.72 1.72 0 0 0-1.18.46A1.6 1.6 0 0 0 10.4 12c0 .24.04.45.12.65a1.62 1.62 0 0 0 1.54.98 1.5 1.5 0 0 0 1.16-.47l.26.26c-.17.2-.38.34-.63.43-.25.1-.52.15-.8.15Z"/><rect x="4" y="8.54" width="10" height=".92" rx=".46" fill="url(#ayprn4aof)"/><defs><linearGradient id="ayprn4aof" x1="4" y1="9" x2="14" y2="9" gradientUnits="userSpaceOnUse"><stop stop-color="#08786A"/><stop offset=".46" stop-color="#39BFC7"/><stop offset="1" stop-color="#4AC04E"/></linearGradient></defs></svg>