<!-- by TradingView --><svg width="18" height="18" viewBox="0 0 18 18" xmlns="http://www.w3.org/2000/svg"><path fill="#F0F3FA" d="M0 0h18v18H0z"/><g clip-path="url(#a2rowil5w)"><path d="M9 14A5 5 0 1 0 9 4a5 5 0 0 0 0 10Z" fill="url(#b2rowil5w)"/><path d="M10.43 9.21a19.55 19.55 0 0 1-.9.15H9.5c-.33.06-.76.13-1.17.24-.19.05-.36.1-.52.17-.16.07-.3.15-.43.23a.4.4 0 0 0-.16.18.18.18 0 0 0-.01.06c0 .03.02.06.05.1l.14.1a2.3 2.3 0 0 0 .26.14c.37.17.78.27 1.17.37l.1.03a2.57 2.57 0 0 1 .12.03h.02l.01.01c.09.03.16.06.22.1.08.06.13.13.11.22l-.03.1a.47.47 0 0 1-.06.08H9.3l-.02.02h-.01v.01c-.08.08-.2.15-.32.22-.13.07-.28.13-.45.2a10.2 10.2 0 0 1-1.26.38 32.81 32.81 0 0 1-1.47.39c-.06.01-.08.01-.13-.03A4.99 4.99 0 0 1 4 8.85v-.02c.02-.56.13-1.1.32-1.59v-.01a.1.1 0 0 1 .05-.04h.02l.51-.21c.2-.08.4-.16.6-.18a.95.95 0 0 1 .46.06c.08.02.16.06.25.1a2.8 2.8 0 0 1 .6.45l.32.28.18.18a5.04 5.04 0 0 0 .55.47c.12.07.23.04.35-.03a1.38 1.38 0 0 1 1.1-.09l.28.13a3.25 3.25 0 0 1 .57.37l.32.24.1.07.03.06c0 .05-.02.1-.07.1l-.11.02Zm3.33-1.73A5 5 0 0 1 8.98 14a5.01 5.01 0 0 1-.9-.11c-.03-.04 0-.1.04-.12l.09-.04c.67-.35 1.55-.8 2.13-1.3v-.01a4.81 4.81 0 0 0 .52-.55c.06-.1.11-.2.14-.3.04-.1.05-.2.04-.3-.02-.13-.11-.24-.23-.33a2.95 2.95 0 0 0-.65-.35l-.35-.13-.24-.08a1.59 1.59 0 0 1-.2-.1c-.09-.04-.14-.09-.15-.13-.02-.06 0-.1.04-.15.05-.06.14-.1.2-.12l.57-.2c.37-.1.74-.22 1.07-.43.1-.06.18-.12.25-.19.47-.4.81-.92 1.28-1.32a2.71 2.71 0 0 1 .46-.31.81.81 0 0 1 .4-.06l.2.03h.02c.04 0 .04.04.05.08Zm-6.55 2.76" fill="#466FB5"/></g><defs><linearGradient id="b2rowil5w" x1="9" y1="4" x2="9" y2="14" gradientUnits="userSpaceOnUse"><stop offset=".03" stop-color="#798FC8"/><stop offset=".14" stop-color="#9FACD8"/><stop offset=".3" stop-color="#CFD4ED"/><stop offset=".43" stop-color="#ECEEF8"/><stop offset=".49" stop-color="#F7F8FC" stop-opacity="0"/></linearGradient><clipPath id="a2rowil5w"><path transform="translate(4 4)" d="M0 0h10v10H0z"/></clipPath></defs></svg>