<!-- by TradingView --><svg width="18" height="18" viewBox="0 0 18 18" xmlns="http://www.w3.org/2000/svg"><path fill="#23A7A9" d="M0 0h18v18H0z"/><path d="M9.27 11.67v-.02a.02.02 0 0 0-.03 0l-1.27.84c-.27.17-.45.13-.66-.1a570.29 570.29 0 0 1-2.27-2.34 166.73 166.73 0 0 0-1.02-2.7c-.08-.2.07-.35.27-.45l3.63-1.83c.18-.09.35-.1.5.01l3.02 2.4c.17.14.08.4.08.6 0 .01 0 .03.03.03l2.08.6c.31.09.42.23.35.53-.21.78-.4 1.56-.7 2.32-.15.39-.3.77-.47 1.16-.09.21-.27.33-.5.26l-2.57-.73c-.35-.1-.61-.2-.47-.58Zm-1.24-6.2-.01-.01a.02.02 0 0 0-.02 0L4.44 7.25a.02.02 0 0 0 0 .02v.01l1.72 1.6.01.01h.01l2.13-1.22v-.02l-.28-2.18ZM11.1 7.7 8.5 5.64c-.02-.02-.03-.01-.03.02.03.24.2 1.97.3 2.05.31.26.63.54.94.83.03.03.07.03.1 0l1.28-.8c.03 0 .03-.02 0-.04ZM9.4 8.8a.02.02 0 0 0 0-.02L8.52 8H8.5L6.48 9.16a.02.02 0 0 0 0 .03l.9.85a.02.02 0 0 0 .03 0L9.39 8.8Zm-3.62.27-1-.93c-.03-.03-.04-.03-.03 0l.46 1.28c0 .01.01.02.02 0l.54-.3c.03-.01.03-.03 0-.05Zm4.81.24.35.1c.03.02.05 0 .05-.02l.09-1c0-.02 0-.04-.02-.05a.07.07 0 0 0-.04-.02h-.05a.07.07 0 0 0-.03.04l-.37.9v.02a.03.03 0 0 0 0 .02l.02.01Zm3-.2V9.1h-.02l-2.06-.6a.03.03 0 0 0-.03 0v.02l-.11 1v.02l.02.01 1.9.55a.03.03 0 0 0 .03 0 .03.03 0 0 0 .01-.02l.26-.96Zm-3.5-.27h-.01v.02l.15.11a.02.02 0 0 0 .03 0l.1-.27v-.02h-.02l-.26.16Zm-.02.54a.02.02 0 0 0 0-.02l-.34-.29H9.7l-2.1 1.3v.02l.2 1.7.02.02h.02l1.63-1.08.01-.01.6-1.64Zm-2.9 1.01-1.06-1h-.02l-.72.41a.02.02 0 0 0 0 .03l1.96 2.02a.02.02 0 0 0 .02 0l.01-.01-.18-1.45Zm3.68-.33-.4-.37c-.02-.02-.04-.02-.05 0l-.13.3c-.01.03 0 .05.02.06.12.04.48.2.57.06v-.05Zm2.36.4-1.85-.53c-.03 0-.04 0-.04.03 0 .11-.01.23-.07.34 0 .02 0 .03.02.04l1.81.54c.02 0 .04 0 .04-.02l.1-.38v-.01l-.01-.02Zm-2.91.03v-.04l-.15-.05a.02.02 0 0 0-.03 0v.01l-.07.2v.02a.02.02 0 0 0 .03 0l.22-.14Zm2.68.78a.02.02 0 0 0 0-.02l-.02-.01-2.12-.63a.03.03 0 0 0-.03 0l-.97.65-.19.55a.02.02 0 0 0 0 .02h.02l2.72.78h.02l.02-.01.55-1.33Z" fill="#fff"/></svg>