<!-- by TradingView --><svg xmlns="http://www.w3.org/2000/svg" width="18" height="18" viewBox="0 0 18 18"><path fill="#E10626" d="M0 0h18v18H0z"/><path d="M7.67 2.5S9.55 4.13 9.3 5.57c-.04.2-.14.42-.25.68-.27.6-.59 1.32-.26 2.03.5 1.08.76 3.18-1.5 2.63-2.23-.53-2.06-3.23-.4-4.65C8.57 4.8 8 3.22 7.67 2.5zM9.4 7.38c-.05.4.1.8.23 1.23.25.72.52 1.5-.1 2.45-.68 1.03.36 2.48 1.7 2.21 1.45-.29 1.82-1.2 1.78-2.26-.05-1.27-.54-1.68-1.6-2.57l-.2-.16c-1.3-1.1-.3-3.16-.3-3.16S9.53 6.17 9.4 7.38zm-1.23 4.34c-1.53-.04-2.33-.63-2.74-1.13-.1-.11-.24.81.05 1.6v.03c.27.72.68 1.86 2.26 2.45 1.34.5 3.23.58 4.32-.8.23-.3-.07-.19-.4-.06h-.01c-.58.22-1.66.2-2.46-.46-.51-.43-.63-.88-.7-1.2-.07-.26-.12-.43-.32-.43z" fill="#fff"/></svg>