<!-- by TradingView --><svg width="18" height="18" viewBox="0 0 18 18" xmlns="http://www.w3.org/2000/svg"><path fill="#F0F3FA" d="M0 0h18v18H0z"/><path d="M12.15 8.57c-.03-.07-.1-.16-.17-.28l-1.14-1.73A25.2 25.2 0 0 1 9 3c-.26.63-.96 2.16-1.86 3.56A64.5 64.5 0 0 1 6 8.29l-.15.28c-.38.65-1.63 2.52-.14 4.76A3.73 3.73 0 0 0 9 15a3.78 3.78 0 0 0 3.29-1.67c1.49-2.24.24-4.11-.14-4.76Z"/><path d="M11.37 10.58a.25.25 0 0 0-.09-.05c-.04-.03-.01-.1-.04-.1-.02-.02-.06 0-.1 0-.03.02-.28-.18-.4-.27l-.43-.26c-.08-.03-.08.01-.15.1-.08.1-.3.36-.38.36-.08.02-.11-.05-.16-.03-.04.02-.4.45-.44.46-.04.02-.04-.03-.07 0-.02.02-.26.37-.3.39-.05.02-.1-.03-.13-.02a.84.84 0 0 0-.14.27c-.01.06-.1.23-.15.23-.04 0-.12-.1-.17-.14l-.2-.14a.52.52 0 0 1-.2-.18c-.04-.08-.16-.2-.2-.24-.05-.03-.08-.03-.1-.09-.01-.06-.07-.1-.09-.15-.01-.03-.04 0-.1 0-.05 0-.08.03-.11.07-.03.05-.08.1-.14.16-.06.06-.07.06-.13.1-.3.14-.58.25-.8.53-.04.06-.12.08-.2.11-.07.03-.2.06-.25.1-.17.08-.27.41-.35.58l.06.16c.03-.04.1-.08.12-.1.1-.1.15-.4.18-.52.03-.09.22-.13.3-.14.1-.02.2.03.2.03.02 0 .02-.03.02-.05l-.09-.04c-.02-.02.03-.05.06-.07.02-.03.14.02.17 0 .04-.01.03-.03 0-.04l-.06-.05c-.02-.01.01-.05.04-.06.18-.1.53-.3.66-.43l.16-.08c.08-.03.16-.16.19-.16s.06.17.06.17l.1.04c.03.01-.01.03-.03.04-.01.02.05.05.08.05.03.01.1.04.14.08.03.04-.03.04-.08.03-.04-.02-.04 0-.1-.03-.05-.04-.07-.08-.08-.13-.02-.04-.03 0-.03.03-.02.03.01.14.03.22.08.42-.49.75-.49 1.2 0 .08.05.08.12.11.08.03.08 0 .14.02.06.01.03.08 0 .1-.03.04-.1 0-.18 0-.08 0-.05.05-.05.1s.1-.02.1-.02l.15-.01c.04 0 .04.01.09.05.04.03.03 0 .07-.05.05-.05.03 0 .08.01.04.02.17 0 .35 0a.8.8 0 0 0 .3-.04c.03-.02.02-.03-.03-.03l-.18-.02-.12-.01c-.08 0-.2.01-.28-.02-.07-.03-.07-.05-.1-.08s.03 0 .07-.01c.05-.02.02-.03.02-.08 0-.13.42.08.64.08.09 0 .03-.02.04-.05.02-.03-.01-.01-.07-.01-.15 0-.25-.11-.4-.11H7.5c-.09 0-.06-.02-.07-.06-.06-.18.4-.05.47-.03.06.01.24 0 .26-.02 0-.02-.05-.03-.08-.05-.03-.03-.06-.03-.12-.03s-.15.02-.17-.01c-.01-.03.06-.02.1-.02.02-.01.02-.01.02-.04 0-.04.05-.02.1 0 .04.01.2-.02.22-.04.03-.01-.03-.06-.07-.07l-.3-.06c-.04-.02 0-.07-.02-.1s-.1-.01-.1-.04c-.02-.04.07-.04.1-.02s.01-.05.04-.1c.03-.04.05.04.1.09.04.04.06.04.12.06.06.01.03-.03.01-.08-.03-.05-.03-.02-.07-.03-.05-.02-.05-.05-.06-.1-.02-.04.04 0 .09.04.04.03.15.06.16.04.03-.01-.06-.06-.1-.09-.05-.02-.03-.1 0-.14.03-.05.03 0 .04.02.02.01.05.03.1.03.04 0 .1.12.12.18.03.07-.02.05-.05.11-.03.06-.01.17 0 .23.02.05.05-.01.05-.04l.06-.3c.03-.1.09-.21.1-.3.02-.1.14-.25.19-.25.04-.02.04.03.1.04.06.02.06-.04.1-.1l.15-.27c.04-.06.03-.04.09 0 .04.05.04-.01.06-.03l.07-.14a.2.2 0 0 1 .08-.1c.05-.02.24-.22.29-.22.04 0 .06.01.08.07 0 .07.03.04.07.04.05 0 .03-.02.05-.07.01-.04.16-.24.23-.34.06-.09.1-.09.16-.09s.02.1.02.14c0 .05.04.1.07.14.01 0-.08.51-.13.57-.03.05.01.05.01.06 0 .02-.03 0-.04 0-.02 0-.03.02-.06 0-.05-.01-.02-.04-.05-.04-.03 0-.08.04-.08.12 0 .08.14.05.23.03.1 0 .06-.03.1-.06.05-.03 0-.05 0-.1 0-.07.05-.16.08-.2.04-.03.02.04.08.02.06 0 .03-.03.08.02.03.03.03.17.03.2 0 .1.14.37.2.46.03.08.01.25-.05.25-.06.01-.06-.08-.12-.11s-.02.08-.03.17c-.02.1.06.06.06.1 0 .02 0 .13.04.15.05.01.02.04.02.1-.02.04.04.05.06.08.02.03-.03.03-.1.08-.08.05-.02.08-.05.19-.03.1-.08.06-.12.12-.05.06-.03.34-.08.37-.14.15-.36.32-.53.43-.05.04-.03.08-.03.11 0 .1-.55.94-.64 1.04-.05.04-.08.03-.14.08-.06.04-.03.1-.06.2-.03.09-.08.1-.1.14 0 .03-.08.01-.08.01l-.03.02h.23c.06-.1.08-.23.15-.33.03-.03.06-.01.09-.03.04-.01.03-.05.03-.05s.33.02.35 0c.01-.01.06-.01.08-.04.01-.02-.05-.02-.1-.02-.03 0-.09-.01-.09-.04-.01-.03.1 0 .14 0 .03 0 .03-.03.03-.07 0-.03-.03-.01-.1-.03l-.13-.01c-.01-.02.1-.03.14-.03a.28.28 0 0 1 .1-.03c.04 0 .04-.03 0-.05a.9.9 0 0 0-.18-.03c-.03-.02.02-.05.03-.1.02-.04.06-.04.11-.07.05-.03.44.03.47.01.03 0 .06-.03.06-.06-.01-.03-.15-.03-.24-.04a.79.79 0 0 1-.23-.08c-.06-.03.02-.1.03-.12.03-.04.1 0 .17.01.07.02.3 0 .3 0l.1-.01c.02 0 .12.06.18.07.06.02 0-.07 0-.07l-.06-.02-.1-.03-.1-.03c-.06-.02-.02-.1-.02-.1h-.03l-.03.11c-.53 0-.09-.33 0-.24l.17.01c.03 0 .03-.04.03-.06 0-.02-.06 0-.1 0-.05 0-.05-.02-.08-.03-.03-.02-.02-.03.01-.05.17-.08.03-.18.25-.18l.07.12.02.22c0 .06.18.15.18.15l-.03.25c0 .03-.02.1 0 .14.01.03.04 0 .08 0 .03 0 .01.1.01.15 0 .05.05.02.1.06.07.05.11.11.13.14.01.03-.18.24-.18.24l.16-.08c.14-.08.3-.17.43-.28l-.03-.15.17.04c.12-.1.22-.2.33-.32l.18-.22-.03-.06-.04.01c-.04.03-.23-.1-.3-.1-.1.09-.21.02-.27-.07l-.09-.01c-.06-.02-.03-.03-.04-.03h-.1l-.18-.1c-.07-.03-.01-.12.03-.15.05-.03.17 0 .25.02.07.01.09.1.09.1s.04-.01.07 0c.06 0 .53.1.58.14.05.02.11.11.12.13a.47.47 0 0 0 .08-.11l.15-.23c0-.05-.01-.11-.03-.13l-.09-.15h-.23c-.07-.02-.06-.06-.1-.1-.05-.03-.06-.01-.13-.01-.06 0-.03-.05-.06-.08s-.04 0-.1 0c-.06 0 0 .08 0 .11 0 .1-.4-.1-.43-.12l-.1-.1c-.07-.04-.05-.06-.04-.09.02-.03.17-.01.23.02.06.01.14.04.2.09.06.03.12.03.2.03.07 0 .01-.03.04-.03.03.02.08.05.17.06.1.02.1 0 .14.05l.14.1c.07.04.15 0 .18 0 .01 0 .06.15.07.22.08-.15.16-.3.2-.45l-.12-.01c-.05-.02-.02-.03-.05-.06-.03-.03-.2 0-.28 0-.1 0-.05-.02-.08-.06l-.15-.28c-.1 0-.12-.1-.19-.13-.03-.01-.04 0-.07.02-.15.07-.34-.07-.44-.17-.03-.03-.05-.02-.1-.03l-.07-.03c-.05-.08.02-.08.06-.1.05-.01.08.03.1.05l.14.08c.02.01.08-.03.13-.03.04 0 .07.03.12.04.04.02.1-.01.12-.06.01-.05-.02-.14-.12-.2-.1-.06-.17-.05-.22-.08a1.7 1.7 0 0 1-.15-.14s.03-.03.1-.01c.05.01.07.08.12.08.04 0 .06-.04.07-.08.02-.05-.01-.08-.09-.13a.6.6 0 0 0-.18-.1c-.06-.02-.12-.05-.14-.08-.01-.03-.06-.1-.1-.1-.02-.02-.02.02-.07.04-.04.01-.06 0-.12-.02-.06-.01-.04-.1-.06-.12-.01-.03-.08-.03-.1-.05-.04-.01-.04-.06-.02-.1.01-.02.04.02.06.02l.1.04.14.01c.05.02.03.03.06.1.05.04.03 0 .07-.04.03-.03.03 0 .07.05.05.03.06 0 .1-.02.05-.01 0-.03-.02-.06-.03-.04-.08-.08-.12-.1-.15-.1-.33-.12-.46-.2-.06-.04-.15-.15-.23-.2-.08-.09-.09-.15-.06-.15s.72.44.72.44l.06.01.07.06c.02 0 .05.02.08.05a6.79 6.79 0 0 0 1.49 1.28c.01-.03.01-.07.03-.1a7.3 7.3 0 0 1-1.5-1.24Z" fill="#F0F3FA"/><path d="M6.8 11.29c.02-.02.07 0 .09.04.03.05.03.02.06.02s.03-.03.06 0c.03.02.09 0 .12 0s.03-.02.03-.05c0-.03-.08-.01-.1-.03-.05-.01-.04 0-.05-.03-.02-.01-.03 0-.08.02-.04.01-.03-.02-.08-.03-.04-.02-.07 0-.07 0l.01.07.02-.01ZM6.28 12.14c-.02-.03-.06 0-.1 0h-.13c-.03-.02-.03-.06-.05-.05l-.09-.01-.04-.03c-.02-.02-.03 0-.08 0v.03h.03c.02 0 .06.01.08.04.01.03.04.02.07.02.05 0 .02.01.05.06.03.05.04.02.12.02.08 0 .1-.02.1 0 .02.01.04.03.08.03.05 0 .02-.02 0-.03l-.04-.08ZM5.68 12.32l.11.02c.01 0 .06.03.1.03.02 0 .05 0 .08.02l.1.01c.04.02 0 .05.04.03.03-.01.08-.04.04-.06-.03-.01-.04-.03-.07-.03a.16.16 0 0 1-.1-.03c0-.02 0-.05-.04-.05s-.06.02-.07.02c-.03-.02-.1-.02-.11-.03-.02-.02-.05-.02-.06-.02-.02 0-.03.05-.03.05 0 .03-.02.04.01.04ZM6.22 12.74h-.19c-.04 0-.04.02-.09-.01a.72.72 0 0 0-.17-.08l-.09-.03-.06.01c-.01.03-.01.05 0 .07.02.01.06-.02.06.03.02.04-.01.06.03.06h.1c.03 0-.02.03.04.04.06.02.06 0 .1 0 .02 0 .02.02.05.02.03 0 .03-.02.08-.02l.12.02c.03 0 .08.03.08-.02.01-.06-.03-.09-.06-.09ZM5.7 12.96c.03 0 .04-.02.07 0 .04.01.02.04.05.03.03 0 .06.01.05-.02.01-.01 0-.07-.05-.07s-.1 0-.14-.02l-.06-.03c-.03-.02-.06 0-.06 0l-.01.03.01.03c.02 0 .05 0 .06.02.05.01.05.03.08.03ZM5.79 13.1h.05c0-.02 0-.06-.03-.08-.04-.02-.05.02-.1 0l-.09-.03.02.03c.01 0 .01.02.03.02l.12.06ZM8.03 13.07h-.17c-.02-.02.01-.05-.03-.08-.05-.03-.08.01-.1-.02-.04-.03 0-.04-.08-.04l-.17.01c-.05 0-.1.02-.12-.01l-.06-.06-.03.01c-.02.03 0 .05-.08.05s-.12-.03-.14.01c-.01.05-.07.16-.03.16.05 0 .06-.02.08-.03.03-.02.06 0 .09 0 .03-.02.05-.03.08-.02.03.02-.02.02.01.03.03.02.08 0 .1.02.02.01.04.06.07.06.03.01.01.05.06 0 .04-.05.04-.1.09-.1.05 0 .06 0 .06.04 0 .03-.01.04.05.06l.24.05c.03 0 .03-.02.06-.07.02-.03.03-.07.02-.07ZM7.93 13.56h-.16c-.05 0-.02.02-.06.02-.05 0-.05 0-.06-.02-.02-.01 0-.04-.05-.01-.03.01-.03.04-.08.03-.03-.02-.09-.03-.07-.08.01-.05-.03-.12.01-.1.05 0 .02.02.06.04.05 0 .03-.02.1 0l.13.03c.05 0 .1-.02.1-.03.02-.02-.02-.06-.05-.06-.03 0-.14 0-.18-.02-.05-.02-.07-.06-.13-.06s-.1.01-.13-.03c-.03-.05-.05-.06-.08-.06-.06 0-.1.07-.12.07-.03 0-.2-.03-.23 0s-.06.11-.03.11.06-.05.1-.05c.02 0 .02.05.04.08.01.05.01.06.04.05.05-.02.05-.05.08-.05s.08-.03.08.02c.01.04.06.04 0 .06a.54.54 0 0 0-.17.1c-.02.02 0 .04.03.04h.09c.01-.02.01-.05.06-.06.05 0 .06-.02.08 0 .01.01.1.09.16.09l.06.02h.13l.04.01c.03 0 .02-.05.06-.05.05 0 .15.02.15-.01s.07-.08 0-.08ZM7.81 13.86c-.01-.04 0-.07-.04-.05-.05.01-.12.03-.14.01-.01-.01-.06-.06-.09-.04-.03.01-.06.03-.08.01-.01-.01-.01-.04-.06-.03-.03.02-.06 0-.07-.03-.03-.01-.1-.03-.13-.01-.04.01-.07.04-.12.03L7 13.7c-.06-.03-.12.02-.12.02-.03.01-.05.06-.02.06.04 0 .13-.02.16 0 .03.01.03.06.07.06.03 0 .05-.05.08-.05.04-.01.08-.03.1 0 .04.03 0 .08.07.08h.16c.03.02.06.06.11.08.05.01.06.04.1.03.05-.02.05-.03.07-.02.03.02.04.08.07.07.03-.02.13-.13.08-.13-.05-.04-.1-.01-.1-.04ZM7.65 14.21c-.06-.01-.32-.1-.37-.1-.04 0-.06 0-.06-.02 0-.03.02-.06-.03-.08-.05-.02-.06-.02-.08-.05-.01-.03-.01.02-.03 0l-.06-.03c-.01.02.02.02-.01.03-.03.02-.03.05-.08.03-.04-.01-.04-.03-.07 0-.02.04-.02.07-.05.07-.03 0-.06-.02-.06.01s-.02.05.03.06c.04.02.14.03.18.03.03.02.05.04.1.04l.24.01c.04 0 .12 0 .18.02.04.01.1.01.15.04.05.03.05.05.08.02.03-.03-.02-.06-.06-.08ZM7.16 14.32c-.06-.02-.05 0-.1 0-.04 0-.05 0-.08-.02-.03-.01-.08-.04-.11-.04s-.06 0-.08-.02l-.01.02.03.03.1.06.16.08.12.01.12.03c.05 0 0-.04-.01-.07-.02-.03-.08-.07-.14-.08ZM8.82 14.58c-.05-.03-.22-.1-.23-.15-.02-.06-.05-.08.03-.08s.2.03.18-.02c-.01-.04 0-.07-.06-.07l-.23-.02c-.03 0-.16.02-.16-.03s-.05-.05-.05-.05c-.03.02-.03.04-.05.04-.03 0-.01-.04-.06-.04-.04.02-.1.04-.04.07a.4.4 0 0 0 .17.04l.12.03c.04.02.03.02.01.05-.03.02.02.05-.04.05s-.23-.03-.28 0c-.04.03-.18.06-.13.07.04.03.16 0 .24.02.08.01.12-.02.15.05.03.06 0 .09.03.09s.02-.05.05-.05l.09.02c.04.01.09.03.14 0 .04-.02.06-.02.09-.02.03.05.07.03.03 0ZM8.98 13.34c.02-.01.05-.01.04-.04-.02-.03-.04-.06 0-.06.01 0 .07.04.09 0 .01-.05 0-.07-.03-.07s-.06.02-.08 0c-.02-.01-.02-.04-.06-.04l-.06.01c-.02.02-.05.02 0 .05.04.03.06.03.07.06.02.03.02.05-.01.05s-.14-.03-.12 0c0 .03.01.08.04.08s.02 0 .05-.02c.01-.02.04 0 .07-.02ZM9.6 12.96c-.05.01-.07.01-.1.03a.19.19 0 0 0-.04.03c-.02.02-.03.05-.05.03-.01-.01-.03-.03-.05 0-.03.03-.06.05-.03.05.03.01.03-.02.07 0 .03.01 0 .03.04.01.05-.01 0-.04.06-.04.05 0 0-.02.05 0 .04.01.04 0 .07 0 .03.01-.01.01.03.01.05-.01.03-.04.05-.03.01.02.01.05.06.06.05 0 .03-.04.02-.07-.03-.04-.05-.07-.08-.07-.05-.01-.06-.03-.1-.01ZM8.76 12.77h.12c.01.02-.02.02.03.03.03 0 .07-.01.07.02 0 .01-.01.03.04.03h.1c.03.02.08.03.1.03.04-.01.1-.05.07-.06-.03-.03-.06-.02-.1-.03-.04-.02-.02-.02-.07-.02-.04 0-.06-.03-.09-.03s-.01.03-.06.03c-.03 0-.06-.03-.1-.04l-.16.01c0 .02.02.03.05.03ZM8.8 12.62l.08.01c.03.02.04-.01.07-.01.03 0 .05.03.08.04.03.02.05.04.05-.01s0-.08.03-.05c.03.02.06.05.09.05s.07.01.07-.02-.01-.07-.04-.07c-.05 0-.06 0-.1-.03-.04-.02-.08-.04-.1-.02-.03.02-.03.03-.03.05h-.06c-.05-.02-.05.03-.08 0s-.03-.05-.06-.05-.04.03-.04.03c.01.06 0 .08.04.08ZM9.88 12.4c.03.02.05.05.08.02.03-.02.03-.05.06-.06.03 0 .1-.04.12-.02.03.02.05.06.08.06s.04-.03.06-.01c.01.01-.02.03.04.04.06.02.06.02.08-.01.01-.03.03 0 .03-.05.02-.05 0-.06-.02-.05-.01.02-.04.07-.06.05l-.03-.06c-.01-.05-.03-.06-.09-.05-.06.02-.1.02-.13.02-.04-.02-.05-.03-.08-.02-.03.02-.03.05-.06.02a.19.19 0 0 0-.03-.05c-.03.02-.03 0-.03.03v.06c-.03.04-.05.07-.02.08ZM10.14 11.6l-.15-.02c-.02 0-.02.02-.02.02-.03.03-.04.07-.03.1.03.04.05.04.06.02.02-.01.05-.03.08-.01.03 0 0 .03.05.03h.07l.06.01c.03 0 .06-.01.03-.06-.03-.05-.09-.1-.15-.1ZM9.15 11.41c.03.02.06-.01.08-.03.01-.01.03.02.07.02.03 0 .07-.02.07.01 0 .05.01.06-.02.06-.05 0-.12-.01-.14 0-.01.02-.04.03-.01.05.03.02.09.03.13.02.05-.02.08-.02.13.01l.09.03c.03 0 .07 0 .04-.03-.04-.03-.09-.01-.1-.05-.02-.03-.03-.07 0-.06.03 0 .04.03.07.02.03-.02.08.01.06-.03-.01-.03-.07-.06-.12-.06-.06 0-.07.01-.13-.02-.07-.03-.1-.05-.11-.03a.25.25 0 0 1-.08.03c-.03.03-.06.06-.03.06ZM9.43 11.72c-.02-.03-.03-.05-.08-.08-.03-.03-.06-.04-.1-.04l-.04.03c.02.04-.01.08.05.08.06.01.18.04.17.01ZM9.3 10.87c.05.02.03.03.08.02.05 0 .03-.02.1 0 .07.01.05.03.1.03.03.01.07-.02.09-.03.01-.02 0-.05-.03-.05s-.03 0-.03-.03-.03-.06-.08-.08c-.04-.01-.1 0-.12.02a.22.22 0 0 0-.03.04c-.05 0-.05 0-.05.03 0 .04-.07.04-.03.05ZM10.46 14.06c.05 0 .2.03.2 0s.04-.08 0-.1c-.05-.01-.08-.03-.1 0 0 .03-.05.02-.1.02a.16.16 0 0 0-.06.01c.01.05.01.07.06.07ZM10.6 14.46c-.03.01-.03.01-.05.04-.01.04-.04.07-.09.07-.05 0-.1-.02-.12 0-.02.01-.03.03-.06.01h-.17c-.05.02-.03.06.02.08l.12.03c.07 0 .13-.02.18-.03l.38-.16-.15-.01-.06-.03ZM12.2 11.61h-.13c-.03 0-.07-.06-.1-.07-.03-.02-.05 0-.05 0-.04.06-.07.1-.03.13.05.04.1.02.14.04.03.01 0 .15.07.15.08 0 .1.02.11-.08 0-.07.05-.14-.02-.17ZM12.4 11.74c-.05-.03-.13-.03-.13-.03 0 .07-.06.04-.03.13.03.08.05.11.08.1.03-.02.04-.05.09-.03.04.01.09.09.1.03.03-.06.03-.05-.03-.11-.04-.08-.01-.06-.07-.1Z" fill="#F0F3FA"/><path d="m7.43 6.1-.29.46A64.52 64.52 0 0 1 5.9 8.47l-.05.1-.06.1c-.18.3-.48.8-.65 1.45.44.5 1.07.8 1.78.8 1.33 0 2.4-1.1 2.4-2.44 0-1.17-.8-2.15-1.89-2.39Z" fill="#333"/><path d="m7.19 6.48-.05.08C6.7 7.26 6.3 7.87 6 8.29l-.1.18-.05.1-.06.1c-.14.23-.35.58-.52 1.02.37.5.94.81 1.6.81a2 2 0 0 0 1.98-2.02c0-1-.72-1.84-1.66-2Z" fill="#545454"/><path d="M6.9 6.93a55.01 55.01 0 0 1-1 1.54l-.05.1-.06.1-.29.51c.25.5.77.85 1.36.85.85 0 1.53-.7 1.53-1.55 0-.85-.66-1.53-1.48-1.55Z" fill="gray"/><path d="M6.57 7.45a41.95 41.95 0 0 1-.67 1.02l-.05.1-.03.05c.07.53.5.93 1.04.93.59 0 1.06-.48 1.06-1.07a1.07 1.07 0 0 0-1.35-1.03Z" fill="#ABABAB"/><path d="M6.86 9.12c.35 0 .63-.29.63-.64a.64.64 0 0 0-.63-.64.64.64 0 0 0-.63.64c0 .35.29.64.63.64Z" fill="#D1D1D1"/><path d="M6.85 8.79a.3.3 0 0 0 .3-.31.3.3 0 0 0-.3-.31.3.3 0 0 0-.3.3c0 .18.14.32.3.32Z" fill="#F0F0F0"/></svg>