<!-- by TradingView --><svg width="18" height="18" xmlns="http://www.w3.org/2000/svg"><path fill="url(#paint0_linear)" d="M0 0h18v18H0z"/><path d="M8.896 7.995L6.875 4.676l2.021 1.142v2.177zM9 5.638L6.996 4.5h4.008L9 5.638zM11.125 4.676L9.104 5.818v2.177l2.021-3.319zM6.022 4.962L4 8.282 6.022 7.14V4.962zM6.125 7.32L4.121 8.5H8.13L6.125 7.32zM8.25 8.282L6.23 7.14V4.962l2.022 3.32zM6.875 13.308l2.021-3.275v2.134l-2.021 1.141zM6.996 13.5L9 12.346l2.004 1.154H6.996zM9.104 12.167l2.021 1.141-2.021-3.275v2.134zM9.75 8.282l2.021-3.32V7.14L9.75 8.282zM9.87 8.5l2.005-1.18 2.004 1.18H9.87zM11.978 7.14L14 8.282l-2.022-3.32V7.14zM6.022 13.022L4 9.746l2.022 1.142v2.134zM6.125 10.708L4.121 9.5H8.13l-2.004 1.208zM8.25 9.746L6.23 10.888v2.134L8.25 9.746zM11.771 13.022L9.75 9.746l2.022 1.142v2.134zM11.875 10.708L9.87 9.5h4.008l-2.004 1.208zM14 9.746l-2.022 1.142v2.134L14 9.746z" fill="#fff"/><defs><linearGradient id="paint0_linear" x1="3.349" y1="3.122" x2="21.904" y2="24.434" gradientUnits="userSpaceOnUse"><stop stop-color="#1A1E21"/><stop offset="1" stop-color="#06060A"/></linearGradient></defs></svg>