<!-- by TradingView --><svg xmlns="http://www.w3.org/2000/svg" width="18" height="18"><path fill="#015CB7" d="M0 0h18v18H0z"/><path d="M9.42 5.31c.03.1.02.22-.03.32-.06.13-.18.2-.31.24-.42.13-1.26.43-2.1.8a247.8 247.8 0 011.03.38 14 14 0 013.72 1.74c2.79 2.06-2.9 3.83-4.29 4.2-.23.06-.4-.12-.44-.34a.53.53 0 010-.12c0-.15.08-.3.24-.35l.14-.04c.3-.1.91-.28 1.59-.53-.89-.37-1.78-.8-2.62-1.21l-.21-.1a8.85 8.85 0 01-1.4-.85c-1.47-1.1-.54-2.18.92-3.03 1.18-.7 2.76-1.23 3.3-1.4a.35.35 0 01.3.04c.04.02.07.06.1.1l.06.15zm.7 5.83c1.09-.5 1.9-1.12 1.2-1.64a13.15 13.15 0 00-3.5-1.63l-.76-.27-1.1-.4c-.83.5-1.41 1.07-.8 1.53a8.31 8.31 0 001.51.89c1.1.54 2.3 1.12 3.44 1.52z" fill="#fff"/><path d="M13.23 8L16 10H7.1L4.88 8.95V8h8.34z" fill="#fff" fill-opacity=".6"/></svg>