<!-- by TradingView --><svg width="18" height="18" viewBox="0 0 18 18" xmlns="http://www.w3.org/2000/svg"><path fill="#0F3066" d="M0 0h18v18H0z"/><path d="M6 13V5h3.37c.62 0 1.14.09 1.55.26.42.18.73.42.94.73.2.3.31.66.31 1.06 0 .31-.06.59-.2.83-.13.23-.3.42-.54.57-.23.15-.49.26-.78.32v.08a1.96 1.96 0 0 1 1.59.92c.17.29.26.63.26 1.02a2 2 0 0 1-.33 1.14c-.22.33-.55.59-.98.78-.43.2-.96.29-1.59.29H6Zm2-1.38h1.23c.5 0 .86-.1 1.09-.27a.88.88 0 0 0 .34-.73 1.03 1.03 0 0 0-.65-.98c-.2-.1-.45-.15-.74-.15H8v2.13Zm0-3.27h1.1c.25 0 .46-.04.65-.12.2-.09.34-.2.45-.36a.88.88 0 0 0 .17-.54c0-.29-.1-.52-.32-.7a1.4 1.4 0 0 0-.92-.26H8v1.98Z" fill="#fff"/></svg>