<!-- by TradingView --><svg width="18" height="18" viewBox="0 0 18 18" fill="none" xmlns="http://www.w3.org/2000/svg">
<rect width="18" height="18" fill="#F0F3FA"/>
<path d="M13.3785 8.56742C14.4098 8.9436 14.9488 9.70835 14.9957 10.8617C15.094 13.2331 13.4993 13.9629 11.434 14L4.56201 13.9973H4V4.15035C4 4.1117 4.01525 4.07464 4.04239 4.04731C4.06953 4.01999 4.10634 4.00464 4.14472 4.00464L10.6387 4C12.669 4.00714 14.4491 4.75605 14.1077 7.22887C14.0356 7.75362 13.7878 8.16266 13.3645 8.45599C13.355 8.4625 13.3474 8.47157 13.3427 8.48219C13.338 8.49281 13.3362 8.50455 13.3377 8.51611C13.3391 8.52767 13.3437 8.53859 13.3509 8.54765C13.3581 8.55671 13.3677 8.56355 13.3785 8.56742ZM8 10V7.92838C8 7.81886 8.04977 7.76552 8.15749 7.76838C9.01174 7.79409 11.7136 8.22028 11.8414 7.03459C11.9159 6.34603 11.3985 6.00286 10.7564 6H6V12H11.2447C12.0358 11.9714 12.7884 11.7317 12.69 10.8188C12.6128 10.1045 12.0761 10.0243 11.4452 10H8Z" fill="#18355E"/>
</svg>
