<!-- by TradingView --><svg width="18" height="18" viewBox="0 0 18 18" xmlns="http://www.w3.org/2000/svg"><path fill="#F0F3FA" d="M0 0h18v18H0z"/><path d="M11.54 5.65a4.6 4.6 0 0 1 1.38 3.04H14a4.88 4.88 0 0 0-1.46-3.25 5.07 5.07 0 0 0-5.73-.95c1.67-.5 3.5-.06 4.73 1.16Zm-.2 3.04a3.58 3.58 0 0 0-1.17-2.4A4.6 4.6 0 0 0 6 5.44 5.45 5.45 0 0 1 8.11 5c1.13 0 2.24.34 3.07 1.1.73.67 1.2 1.58 1.26 2.59h-1.1Zm-1.54 0a3.06 3.06 0 0 0-.9-1.94A2.9 2.9 0 0 0 6 6c1.32-.7 2.83-.5 3.89.55.56.55.92 1.3.98 2.14H9.8Zm-.8 0H4A2.41 2.41 0 0 1 6.5 6.5c1.25 0 2.37.9 2.5 2.19Z" fill="url(#adejouona)"/><path d="M10.17 11.64c.67-.62 1.1-1.4 1.17-2.33h1.1a3.7 3.7 0 0 1-1.26 2.52A4.5 4.5 0 0 1 8.14 13c-.67 0-1.52-.14-2.14-.43 1.4.39 3.13.03 4.17-.93Z" fill="url(#bdejouona)"/><path d="M6.5 11.5c1.25 0 2.37-.9 2.5-2.19H4a2.41 2.41 0 0 0 2.5 2.19Zm2.4-.25c.5-.5.84-1.18.9-1.94h1.07a3.34 3.34 0 0 1-.98 2.14A3.25 3.25 0 0 1 6 12a2.9 2.9 0 0 0 2.9-.75Zm2.64 1.1a4.6 4.6 0 0 0 1.38-3.04H14a4.88 4.88 0 0 1-1.46 3.25 5.07 5.07 0 0 1-5.73.95c1.67.5 3.5.06 4.73-1.16Z" fill="url(#cdejouona)"/><defs><linearGradient id="adejouona" x1="4" y1="4.36" x2="14.1" y2="4.36" gradientUnits="userSpaceOnUse"><stop stop-color="#FFD400"/><stop offset=".56" stop-color="#F99D1C"/><stop offset="1" stop-color="#EF3B45"/></linearGradient><linearGradient id="bdejouona" x1="6" y1="9.14" x2="12.5" y2="9.14" gradientUnits="userSpaceOnUse"><stop offset=".02" stop-color="#FFD400" stop-opacity="0"/><stop offset=".32" stop-color="#FBB311" stop-opacity=".3"/><stop offset=".51" stop-color="#F99D1C" stop-opacity=".5"/><stop offset="1" stop-color="#EF3A44"/></linearGradient><linearGradient id="cdejouona" x1="4" y1="9.09" x2="14.1" y2="9.09" gradientUnits="userSpaceOnUse"><stop offset=".02" stop-color="#FFD400" stop-opacity="0"/><stop offset=".32" stop-color="#FBB311" stop-opacity=".3"/><stop offset=".51" stop-color="#F99D1C" stop-opacity=".5"/><stop offset="1" stop-color="#EF3A44"/></linearGradient></defs></svg>