<!-- by TradingView --><svg width="18" height="18" xmlns="http://www.w3.org/2000/svg"><path fill="#EE3224" d="M0 0h18v18H0z"/><path d="M11.997 9.004c.035 1.71-1.51 3-2.802 3H6.003L4 14h5.16c1.648 0 3.228-1.482 3.228-3.251 0-.52-.063-1.197-.39-1.71l-.001-.035zm-.548 1.26c.2-.356.297-.747.321-1.128h-1.448c0 .353-.059.737-.191 1.128h1.318zm-1.413.223c-.164.418-.555.963-.935 1.26.736 0 1.577-.322 2.192-1.26h-1.257zm-.164-.223c.13-.356.188-.747.223-1.128h-2.19c.034.38.093.772.222 1.128h1.745zm-1.995 0a3.64 3.64 0 01-.2-1.128H6.23c.034.38.129.772.32 1.128h1.327zm1.126 1.256c.286-.259.607-.677.771-1.033H8.225c.165.356.485.774.778 1.033zM6.68 10.487c.641.938 1.482 1.26 2.23 1.26-.392-.298-.807-.841-.94-1.26H6.68zm3.45-2.704c.133.345.192.736.192 1.126h1.448a2.57 2.57 0 00-.32-1.126h-1.32zm1.163-.262c-.615-.9-1.456-1.256-2.192-1.256.38.286.77.83.935 1.256h1.257zm-3.166.262c-.129.345-.188.736-.223 1.126h2.191c-.035-.39-.094-.78-.223-1.126H8.127zm-1.577 0a2.833 2.833 0 00-.32 1.126h1.448c0-.39.07-.78.199-1.126H6.55zm2.453-1.267c-.293.258-.613.649-.778 1.005h1.55c-.165-.356-.486-.747-.772-1.005zM7.97 7.521c.134-.426.548-.97.94-1.256-.748 0-1.589.356-2.23 1.256h1.29zM6.003 8.969c-.321-.51-.391-1.186-.391-1.706C5.612 5.493 7.192 4 8.839 4H14l-2.003 2.02H8.804c-1.283 0-2.837 1.301-2.801 2.948z" fill="#fff"/></svg>