<!-- by TradingView --><svg width="18" height="18" viewBox="0 0 18 18" xmlns="http://www.w3.org/2000/svg"><path fill="#F0F3FA" d="M0 0h18v18H0z"/><path d="M4.77 5.08c.04.04.1.11.11.16V10.85l-.1.1.1.04c.06.01.35.17.64.35.63.38.82.49 1.05.56.82.26 1.83-.01 2.47-.65.65-.66.89-1.68.6-2.56A2.54 2.54 0 0 0 7.6 7.02a3.49 3.49 0 0 0-1.15.04c-.34.09-.65.29-.8.5a.38.38 0 0 1-.1.11s-.02-.6-.02-1.33V5H4.7l.08.08Zm2.96 2.61c.1.02.26.08.37.14.18.09.26.15.44.34.18.18.25.27.33.45.3.62.27 1.32-.08 1.85a1.9 1.9 0 0 1-2.36.7c-.1-.04-.35-.19-.54-.32l-.35-.23V8.4l.14-.13c.29-.29.53-.44.85-.54.33-.1.86-.12 1.2-.04ZM11.22 6.66c-.72.17-1.12.77-1.03 1.53.05.41.27.75.64.96.09.05.34.18.57.27l.54.26c.2.13.37.33.43.5.06.19.06.5 0 .64-.15.33-.55.5-1.12.47a1.8 1.8 0 0 1-1.1-.47l-.15-.13v1.2l.1-.05.1-.06.37.09c.5.12.95.16 1.27.1.93-.16 1.48-.99 1.29-1.92-.11-.53-.43-.85-1.14-1.15-.87-.36-1.06-.53-1.06-.94 0-.25.11-.45.3-.55.18-.08.47-.12.7-.08.18.03.53.18.69.29l.06.04V6.64l-.06.03c-.08.05-.28.04-.54 0a2.37 2.37 0 0 0-.86 0Z"/><path d="M9.52 12.93c.97-.34 2.57-.71 3.37-.87h.03a7.35 7.35 0 0 1 1.2-.05 3.36 3.36 0 0 1 1.84.67c-.31-.11-.75-.2-1.18-.24a8.1 8.1 0 0 0-1.89.07c-.63.13-2.13.5-2.8.77-.7.28-1.08.42-1.56.53a5.85 5.85 0 0 1-2.91 0 6.3 6.3 0 0 1-2.53-1.55 8.15 8.15 0 0 0 4.55 1.13 6.26 6.26 0 0 0 1.88-.46Z" fill="#0679E6"/></svg>