<!-- by TradingView --><svg width="18" height="18" viewBox="0 0 18 18" xmlns="http://www.w3.org/2000/svg"><path fill="#F0F3FA" d="M0 0h18v18H0z"/><path d="m6.2 8.86-.42.6-.03.33.54 1.05c.14-.19.48-.65.7-.98.29-.4.23-.88-.1-1.12-.25-.19-.56 0-.68.12Z" fill="url(#am2xl0gvv)"/><path d="M9.41 10.6 7.6 13.2c0 .63.53.93.8 1l1.56-2.34-.54-1.25Z" fill="url(#bm2xl0gvv)"/><path d="M8.05 13.86 5.92 9.97a.87.87 0 0 1-.07-.64l-.74 1.13a.7.7 0 0 0 0 .74l2.22 3.66c.1.17.35.19.48.03l.73-.87a.39.39 0 0 1-.49-.16Z" fill="url(#cm2xl0gvv)"/><path d="M9.58 3.8 8.13 5.9l-.04.7.53.8 1.73-2.47-.77-1.13Z" fill="url(#dm2xl0gvv)"/><path d="M9.7 11.51 7.44 7.54a.64.64 0 0 1 .03-.69l.74-1.07c-.08.2-.01.48.03.6l2.3 3.91c.18.3.15.68-.07.94-.33.4-.68.82-.68.84.06-.2-.03-.46-.09-.56Z" fill="url(#em2xl0gvv)"/><path d="m10.95 8.07.73-1.08.75 1.08c-.12.19-.42.62-.62.86-.25.3-.56.4-.86 0-.25-.32-.1-.7 0-.86Z" fill="url(#fm2xl0gvv)"/><path d="m12.91 7.4-.74 1.1c.04-.3-.06-.57-.12-.66l-2.5-4.02.53-.68c.15-.2.45-.18.58.03l2.26 3.66c.11.18.1.4-.01.57Z" fill="url(#gm2xl0gvv)"/><defs><linearGradient id="am2xl0gvv" x1="7.11" y1="9.35" x2="6.02" y2="9.35" gradientUnits="userSpaceOnUse"><stop stop-color="#0B6A96"/><stop offset="1" stop-color="#133659"/></linearGradient><linearGradient id="bm2xl0gvv" x1="7.98" y1="13.19" x2="9.77" y2="13.15" gradientUnits="userSpaceOnUse"><stop stop-color="#066796"/><stop offset="1" stop-color="#0F3D5A"/></linearGradient><linearGradient id="cm2xl0gvv" x1="6.01" y1="12.66" x2="6.93" y2="12.16" gradientUnits="userSpaceOnUse"><stop stop-color="#0171B0"/><stop offset="1" stop-color="#35A0C3"/></linearGradient><linearGradient id="dm2xl0gvv" x1="10.14" y1="4.63" x2="8.67" y2="6.52" gradientUnits="userSpaceOnUse"><stop stop-color="#083F61"/><stop offset="1" stop-color="#05668D"/></linearGradient><linearGradient id="em2xl0gvv" x1="8.47" y1="8.83" x2="9.16" y2="8.47" gradientUnits="userSpaceOnUse"><stop stop-color="#0178B0"/><stop offset="1" stop-color="#239AC8"/></linearGradient><linearGradient id="fm2xl0gvv" x1="11.02" y1="8.52" x2="12.04" y2="8.04" gradientUnits="userSpaceOnUse"><stop stop-color="#0D74AB"/><stop offset="1" stop-color="#044463"/></linearGradient><linearGradient id="gm2xl0gvv" x1="10.92" y1="5.52" x2="11.62" y2="5.14" gradientUnits="userSpaceOnUse"><stop stop-color="#0174B1"/><stop offset="1" stop-color="#2EA6D4"/></linearGradient></defs></svg>