<!-- by TradingView --><svg width="18" height="18" viewBox="0 0 18 18" xmlns="http://www.w3.org/2000/svg"><path fill="#F0F3FA" d="M0 0h18v18H0z"/><path d="m13 4-1.32.3c-.97.2-1.88.4-2.78.65-.7.2-1.19.72-1.39 1.44-.26.92-.32 1.86-.35 2.9l.83.01c.6.02 1.18.03 1.76-.02.99-.1 1.72-.64 2.05-1.63l.8-2.43L13 4Zm-.97 7.77a33 33 0 0 0-1.9-1.19 1.72 1.72 0 0 0-1.88.08c-.42.28-.81.6-1.2.91l-.52.41c2.12 2.69 2.8 2.58 6.33.34l-.83-.55Zm-6.99-2.2c1.6-1.4 1.6-1.62.28-3.86-1.66 1.23-1.76 2.28-.28 3.87Z" fill="#84BE32"/></svg>