<!-- by TradingView --><svg xmlns="http://www.w3.org/2000/svg" width="18" height="18" viewBox="0 0 18 18"><path fill="#F0F3FA" d="M0 0h18v18H0z"/><path d="M4 6.18 9.01 3.3 14 6.18v5.66L9.01 14.7 4 11.84V6.18Z" fill="#012A4A"/><ellipse cx="9" cy="8.98" rx="4.69" ry="4.75" fill="url(#a2nb025uh)"/><ellipse cx="9" cy="9" rx="3.75" ry="3.8" fill="url(#b2nb025uh)"/><ellipse cx="9" cy="9" rx="2.81" ry="2.85" fill="#CE916F"/><ellipse cx="9" cy="9" rx="1.56" ry="1.58" fill="#F35437"/><path d="m7.28 8.39 3.21-4.25.26.16L9.5 6.68l1.38-.67-2.16 4.12.93-.33-2.49 3.85-.22-.13.9-2.26-1.1.49 2.02-3.86-1.48.5Z" fill="#F0F3FA"/><defs><linearGradient id="a2nb025uh" x1="9" y1="4.23" x2="9" y2="13.72" gradientUnits="userSpaceOnUse"><stop stop-color="#0C426E"/><stop offset=".5" stop-color="#3774AB"/><stop offset="1" stop-color="#0C426E" stop-opacity="0"/></linearGradient><linearGradient id="b2nb025uh" x1="9" y1="5.2" x2="9" y2="12.8" gradientUnits="userSpaceOnUse"><stop stop-color="#3671A9"/><stop offset=".48" stop-color="#5D92CB"/><stop offset="1" stop-color="#3671A9"/></linearGradient></defs></svg>