<!-- by TradingView --><svg width="18" height="18" viewBox="0 0 18 18" xmlns="http://www.w3.org/2000/svg"><path fill="#F0F3FA" d="M0 0h18v18H0z"/><path d="M12.87 6.66c.08-.23.13-.47.13-.72 0-.23-.05-.45-.13-.65v1.37ZM9.95 8.72c1.51-.34 2.56-1.12 2.92-2.06V5.3C12.54 4.53 11.65 4 10.42 4c-.5 0-1.01.09-1.51.24v.97c.23-.04.46-.07.67-.07 1 0 1.44.5 1.44 1.07 0 .86-.68 1.74-2.1 2.1v.98c.96.09 1.43.57 1.43 1.43 0 .82-.47 1.8-1.44 2.25v.94c2.52-.37 3.52-1.77 3.52-3.17 0-1.17-1.02-1.93-2.48-2.02ZM8.91 7.05V5.99l.26-.04-.26 1.1Zm0-2.8a6.68 6.68 0 0 0-3.38 2.4c-.08.13-.03.23.07.15a8.57 8.57 0 0 1 3.31-1.6v-.96Zm0 4.07v.97a4.04 4.04 0 0 0-.52 0l-.92 3.91c.57.05 1.04-.05 1.44-.23v.94c-.4.06-.86.09-1.35.09-.54 0-1.95-.02-2.54-.07-.03 0-.03-.03 0-.04.26-.16.45-.33.56-.75.12-.46.95-4.05 1.32-5.5.29-1.14.88-1.45 2-1.65v1.05L8.6 8.4l.31-.07Z" fill="#00512C"/></svg>