<!-- by TradingView --><svg xmlns="http://www.w3.org/2000/svg" width="18" height="18"><path fill="#F0F3FA" d="M0 0h18v18H0z"/><path d="M7 3.3c0-.23.24-.37.42-.26l1.04.63a.3.3 0 010 .51l-1.04.63c-.18.11-.42-.03-.42-.26V3.3zm-.32 2.48c0-.23.23-.37.42-.26l1.04.63a.3.3 0 010 .51L7.1 7.3c-.19.12-.42-.03-.42-.26V5.78zM4.79 4.5c0-.23.23-.37.42-.26l1.04.63a.3.3 0 010 .51l-1.04.63c-.19.11-.42-.03-.42-.26V4.5zM3.14 7.98a.3.3 0 010-.51l1.04-.63c.18-.11.42.03.42.26v1.25c0 .23-.24.37-.42.26l-1.04-.63zm0 2.55a.3.3 0 010-.51l1.04-.63c.18-.11.42.03.42.26v1.25c0 .23-.24.37-.42.26l-1.04-.63zM5.3 9.35a.3.3 0 010-.5l.98-.61c.18-.11.4.03.4.25V9.7c0 .22-.22.36-.4.25l-.98-.61zM14.75 8a.3.3 0 000-.51l-1.03-.63c-.19-.11-.42.03-.42.26v1.25c0 .23.23.37.42.26L14.75 8zm0 2.53a.3.3 0 000-.51l-1.03-.63c-.19-.11-.42.03-.42.26v1.25c0 .23.23.37.42.26l1.03-.63zM12.6 9.35a.3.3 0 000-.5l-.98-.61c-.18-.11-.4.03-.4.25V9.7c0 .22.22.36.4.25l.98-.61zM10.99 3.3c0-.23-.24-.37-.42-.26l-1.04.63a.3.3 0 000 .51l1.04.63c.18.11.42-.03.42-.26V3.3zm.23 2.48c0-.23-.24-.37-.43-.26l-1.03.63a.3.3 0 000 .51l1.03.63c.2.12.43-.03.43-.26V5.78zM13 4.5c0-.23-.23-.37-.42-.26l-1.04.63a.3.3 0 000 .51l1.04.63c.19.11.42-.03.42-.26V4.5zM7 14.7c0 .23.24.37.42.26l1.04-.63a.3.3 0 000-.51l-1.04-.63c-.18-.11-.42.03-.42.26v1.25zm-.32-2.52c0 .23.23.37.42.26l1.04-.63a.3.3 0 000-.52l-1.04-.62c-.19-.12-.42.03-.42.26v1.25zM5 13.43c0 .23.24.37.43.26l1.04-.63a.3.3 0 000-.51l-1.04-.63c-.19-.11-.42.03-.42.26v1.25zm5.99 1.27c0 .23-.24.37-.42.26l-1.04-.63a.3.3 0 010-.51l1.04-.63c.18-.11.42.03.42.26v1.25zm.23-2.52c0 .23-.24.37-.43.26l-1.03-.63a.3.3 0 010-.52l1.03-.62c.2-.12.43.03.43.26v1.25zM13 13.43c0 .23-.23.37-.41.26l-1.04-.63a.3.3 0 010-.51l1.04-.63c.18-.11.42.03.42.26v1.25z" fill="#0069FF"/></svg>