<!-- by TradingView --><svg width="18" height="18" viewBox="0 0 18 18" xmlns="http://www.w3.org/2000/svg"><path fill="#F0F3FA" d="M0 0h18v18H0z"/><path fill-rule="evenodd" d="M5.24 8H3.68l-.33 1.88H4.8a1.2 1.2 0 0 0 1.19-.98.77.77 0 0 0-.75-.9Zm-.31 1.88H3.35L3 12h1.47c.6 0 1.1-.47 1.2-1.12.1-.52-.27-1-.74-1Zm-.8.23h.36c.24 0 .43.21.36.7-.04.34-.34.88-.65.88h-.36l.28-1.58Zm.66-1.76h-.36l-.26 1.42h.36c.3 0 .58-.38.63-.72.06-.49-.12-.7-.37-.7Z" fill="#0C3F81"/><path d="m8.9 10.54.43.46c.27-.24.67-.64.67-1.51 0-1.1-.85-1.4-1.32-1.49a2 2 0 0 0-.22.33c.23.03.69.29.69 1 0 .72-.12 1.01-.25 1.21ZM7.64 8.1c-.6.13-1.64.72-1.64 2.34C6 11.3 6.42 12 7.6 12c.73 0 1.2-.28 1.38-.45l-.4-.42a1 1 0 0 1-.94.55c-.7 0-.8-.56-.8-1.24 0-.67.27-1.56.8-1.94 0-.07.02-.15.03-.2.03-.1.05-.18-.03-.2ZM13 8.27l-.35.56c0-.07-.23-.5-.7-.5-.45 0-.62.35-.62.57 0 .2.04.38.45.56.61.28.89.59.89.96 0 .29-.21.7-.34.87-.1.14-.45.48-.96.71a3.5 3.5 0 0 1-1.37-.39l.33-.61c.04.2.23.52.77.52.67 0 .86-.47.86-.64 0-.26-.1-.3-.59-.56-.51-.27-.87-.53-.87-.93 0-.79.86-1.39 1.51-1.39.52 0 .88.18.99.27Z" fill="#0C3F81"/><path d="M14.7 8.92c0 1.82-1.99 2.36-3 2.4-.09.13-.81.36-1.17.46.24.1.12.22 1.02.22C13.61 12 15 10.57 15 9.1a2.34 2.34 0 0 0-1.5-2.2c.57.38 1.2.99 1.2 2.02Z" fill="#0C3F81"/><path d="m12 6.17-.53.77a6.8 6.8 0 0 0-1.02-.1c-2.04 0-2.72.99-2.72 1.85 0 .86 1.5 2.63 1.79 2.9C8.52 11.05 7 9.53 7 8.5 7 6.53 9.8 6 10.66 6c.68 0 1.18.11 1.34.17Z" fill="#898A86"/></svg>