<!-- by TradingView --><svg width="18" height="18" viewBox="0 0 18 18" xmlns="http://www.w3.org/2000/svg"><path fill="#1779B6" d="M0 0h18v18H0z"/><path fill-rule="evenodd" d="M14.13 7.93h-.02c-.07-.23-.25-.4-.53-.5-.17-.06-.42-.1-.76-.14a.42.42 0 0 1-.18-.06 1.24 1.24 0 0 1-.16-.12l-.03-.03a.29.29 0 0 0-.2-.08c-.08 0-.14.05-.16.15a.73.73 0 0 0 .04.44c.16.43.46.75.9.94.08.04.13.1.15.18.02.08 0 .16-.04.23a.66.66 0 0 1-.44.27 1.2 1.2 0 0 1-.53 0 3.2 3.2 0 0 1-.48-.16c-.46-.18-.91-.4-1.37-.68a7.15 7.15 0 0 0-2.27-.73 7.94 7.94 0 0 0-1.88-.03.63.63 0 0 1-.41-.09 1.4 1.4 0 0 0-.88-.18c-.28.02-.5.09-.65.2-.09.08-.25.15-.48.23l-.07.02c-.3.11-.58.26-.83.45-.05.04-.12.1-.2.2-.1.11-.19.19-.25.23-.1.06-.17.13-.24.2a.46.46 0 0 0-.16.27c-.01.1.04.2.15.26a.7.7 0 0 1 .04.03l.01.02.03.22-.01.03c-.1.06-.13.15-.08.26a1 1 0 0 0 .43.44c.17.11.38.19.6.23.47.08.96.07 1.47-.02l.45-.08a3.2 3.2 0 0 1 1.12.06 5.05 5.05 0 0 0 1.69.15c.18.16.39.2.62.14h.04c.27.07.6.1.97.12a8.5 8.5 0 0 0 2.98-.43c.36-.12.68-.28.97-.46.38-.25.64-.52.78-.82.04-.08.1-.14.18-.17l.56-.23c.71-.3 1.05-.78 1-1.45a.75.75 0 0 0-.06-.23c-.02-.06-.06-.08-.11-.08a.18.18 0 0 0-.12.07c-.13.15-.25.27-.38.37a.77.77 0 0 1-.5.16h-.38a.57.57 0 0 0-.32.2Zm-9.68 2.44-.01.02c-.88.15-1.56.05-2.05-.3-.03-.02-.03-.02-.01 0 .2.22.49.36.88.41.47.07.96.04 1.46-.07a3.74 3.74 0 0 1 1.74.06 6.27 6.27 0 0 0 1.27.13 1.1 1.1 0 0 0-.36-.2l-.04-.02a2.08 2.08 0 0 1-.3-.1.46.46 0 0 1-.23-.18v-.03h.05c.08.07.18.13.29.16l.04.02.38.09c.14 0 .27.04.4.1.12.04.23.07.35.07l.02.01v.02l-.03.01c-.08.01-.17 0-.26-.01a2.5 2.5 0 0 1-.32-.1 12.92 12.92 0 0 0 .3.27.6.6 0 0 0 .21.08.7.7 0 0 0 .23 0c.13-.03.28-.08.43-.14l.4-.2a.27.27 0 0 0 .1-.1c.02-.03.01-.06-.02-.08a.45.45 0 0 0-.17-.09l-.18-.04a1.2 1.2 0 0 1-.6-.29A.69.69 0 0 0 8 9.7c-.13 0-.28.02-.46.07a.27.27 0 0 1-.17-.01c-.1-.04-.19-.06-.3-.07-.01 0-.02 0-.01-.02 0-.02 0-.03.02-.03.12-.01.23 0 .33.03h.04c.17-.04.32-.07.43-.07a1 1 0 0 1 .43.07c.05.03.1.04.15.05a5.13 5.13 0 0 1 .79.19c0 .02-.02.02-.03.02l-.65-.12c-.04 0-.04 0-.01.03.16.13.35.22.57.25.3.05.43.13.4.25 0 .05-.03.09-.08.12-.2.13-.4.24-.62.32a9.43 9.43 0 0 0 3.55-.33c.74-.24 1.28-.6 1.63-1.05a.93.93 0 0 0 .1-.17.6.6 0 0 1 .34-.3l.58-.23c.39-.17.64-.41.75-.73.01-.02 0-.02 0 0-.13.1-.27.2-.43.25-.23.09-.44.18-.62.3-.03 0-.04 0-.03-.03l.01-.03a2.64 2.64 0 0 1 .65-.35c.1-.05.2-.12.3-.21.14-.12.2-.22.2-.3 0-.03-.02-.03-.03 0-.08.15-.22.3-.42.42-.17.1-.36.18-.58.24a.81.81 0 0 0-.4.26h-.02c-.02-.01-.02-.03-.01-.04.06-.1.14-.17.23-.23a1.8 1.8 0 0 1 .4-.17c.2-.07.36-.17.5-.29.16-.15.26-.3.29-.47 0-.04 0-.04-.03 0l-.1.12c-.13.16-.27.27-.43.35a.87.87 0 0 1-.56.09.55.55 0 0 0-.55.2.27.27 0 0 0-.05.13.6.6 0 0 1-.09.22l-.03.02c-.01 0-.02 0-.01-.02a.9.9 0 0 0 .05-.29.55.55 0 0 0-.07-.28c-.08-.14-.24-.24-.49-.31a3.8 3.8 0 0 0-.6-.1h-.05a.58.58 0 0 1-.35-.15l-.17-.14h-.03l-.01.01a.5.5 0 0 0-.01.17c0 .07.02.13.05.17a1.74 1.74 0 0 0 .75.5l.01.02c0 .03-.02.03-.04.03a1.84 1.84 0 0 1-.59-.27c-.02-.02-.03-.02-.01 0 .17.27.38.46.64.58.17.07.26.18.28.32a.47.47 0 0 1-.11.37.67.67 0 0 1-.34.23 2.7 2.7 0 0 1-1.77-.13 4.93 4.93 0 0 1-.73-.36h.01a7.27 7.27 0 0 0 1.37.42c-.5-.2-.99-.42-1.45-.67A6 6 0 0 0 8 7.78c-.6-.09-1.22-.1-1.85-.05a.69.69 0 0 1-.46-.1.97.97 0 0 0-.57-.17c-.38 0-.7.1-.96.3a19.15 19.15 0 0 0 .94-.02c0 .01 0 .02-.02.02-.31.06-.64.09-1 .1-.12 0-.28.05-.49.14-.04.02-.04.02 0 .02L3.82 8a15.12 15.12 0 0 0 1.36-.1v.02l-.03.02c-.4.08-.8.13-1.2.14-.22 0-.43.03-.63.08a.47.47 0 0 0-.2.1c-.02.02-.02.02 0 .02.11-.03.24-.04.39-.04a13.44 13.44 0 0 0 1.2-.09v.01a7.37 7.37 0 0 1-1.22.16c-.15 0-.32.03-.52.08-.06.01-.12.06-.18.13 0 .02 0 .03.01.02.12-.02.24-.04.35-.04a13.7 13.7 0 0 0 1.15-.06c0 .02 0 .03-.02.03-.3.06-.67.1-1.08.12-.14 0-.3.03-.47.06a.3.3 0 0 0-.13.07 4.1 4.1 0 0 1-.22.18c.29-.06.59-.07.89-.03l.01.02c0 .02-.01.03-.03.03-.45-.04-.8 0-1.02.15-.05.02-.07.07-.07.12 0 .06.03.1.08.13h.04l.04-.02c.01 0 .02 0 .02.02.02.2.1.37.22.53v.02c-.12.04-.2.04-.26.01-.03-.02-.03 0-.02.02.02.05.08.07.18.07.07 0 .14-.02.21-.04a.9.9 0 0 1 .41-.03A3.9 3.9 0 0 0 5 9.85c.1-.03.23-.05.36-.06a6.09 6.09 0 0 1 .5-.01.2.2 0 0 0 .15-.06h.04v.05a.1.1 0 0 1-.04.05.34.34 0 0 1-.18.05c-.33 0-.66.05-1 .14-.48.12-1.03.13-1.66.03a1.85 1.85 0 0 0-.29-.03.92.92 0 0 0-.27.04c.15.1.31.16.48.2a4.23 4.23 0 0 0 1.37.1v.02Zm9.22-1.63a.55.55 0 0 0-.07-.52.86.86 0 0 0-.45-.31c-.44-.15-.72-.34-.83-.58v-.01l.01-.01.02.01a1.52 1.52 0 0 0 .77.48c.19.06.32.12.4.17.12.08.2.2.23.35.03.13.02.28-.04.43l-.02.01h-.01c-.01 0-.02-.01-.01-.02ZM7.77 8a4.55 4.55 0 0 0-1.1.02c0 .02.01.02.02.02a8.64 8.64 0 0 1 2.32.3h.01V8.3c-.4-.16-.82-.26-1.25-.3Zm5.3 1.35a.57.57 0 0 0 .3-.27.79.79 0 0 0 .08-.4l.01-.01.03.01a.6.6 0 0 1-.04.45.55.55 0 0 1-.36.26l-.02-.01v-.03Zm-7.95-.29c.11.02.23.02.34.02.01 0 .02 0 .01.02l-.01.06-.03.02-.42.03a3 3 0 0 0 .43.03l.03.01c.04.11.13.17.27.16a2.32 2.32 0 0 0 .35-.03v-.01h-.24c-.02 0-.03 0 0-.02l.04-.04a.06.06 0 0 1 .04-.02 1.48 1.48 0 0 0 .26-.03l-.01-.01a4.3 4.3 0 0 1-.26 0V9.2a.22.22 0 0 1-.12.12.18.18 0 0 1-.16-.01c-.08-.04-.1-.1-.1-.18.02-.08.07-.14.15-.16.02 0 .02-.01 0-.01-.04-.01-.1.01-.17.06H5.5a61.49 61.49 0 0 1-.37.04Zm-2.4.07c-.19.02-.34.07-.46.14h-.03c-.01-.03 0-.05.02-.06.15-.1.3-.15.5-.18.3-.04.63-.02.97.05a6 6 0 0 1 .94.3c.23.1.49.15.75.17.02 0 .03 0 .02.02v.01c0 .02-.01.03-.03.03-.25 0-.49-.03-.7-.1l-.1-.04a7.54 7.54 0 0 0-.93-.27c-.34-.08-.66-.1-.95-.07Zm3.15 0c0 .07-.06.12-.12.12a.12.12 0 0 1-.12-.12c0-.06.05-.11.12-.11.06 0 .12.05.12.11Zm2.98.28a6.8 6.8 0 0 0-1.35-.18c0-.02 0-.03.02-.03.46-.05.9 0 1.33.17.01 0 .02.01.01.02v.01l-.01.01Zm-5.57.45c.02 0 .03 0 .01-.01a1.03 1.03 0 0 1-.24-.61h-.01l-.1-.01h-.01c.02.22.09.41.21.58l.04.03.1.02Zm-.41-.62c.02.2.09.4.2.58.01 0 0 0 0 0h-.12l-.01-.01a1.25 1.25 0 0 1-.2-.56l.01-.01.1-.01.02.01Zm.65.65a1.08 1.08 0 0 1-.28-.64l-.12-.02c.02.26.1.47.27.64l.03.02.1.01v-.01Zm-.64-.08-.12.01h-.01c-.1-.17-.17-.35-.2-.55h.01l.1-.02h.02c.02.2.09.38.2.56Zm.84.1h.01a1.03 1.03 0 0 1-.3-.63l-.12-.03c.02.27.13.48.32.65l.03.02h.06ZM2.5 9.29c.03.21.1.39.19.53l-.01.02-.07.02-.04-.01c-.1-.16-.16-.33-.2-.52l.02-.01.1-.03Zm1.43.62a.93.93 0 0 1-.3-.57c0-.01 0-.02-.02-.02l-.1-.02-.02.01c.04.25.15.45.34.6.01.02.03.02.04.02h.05c.02 0 .02 0 0-.02Zm-.21-.56.08.02c.01 0 .02.01.02.03a1.04 1.04 0 0 0 .3.52h-.1a.84.84 0 0 1-.32-.56l.02-.01Zm.3.09-.1-.03H3.9c.02.2.11.36.27.48.01.02.03.02.05.02h.04c.02 0 .02-.02 0-.03a.88.88 0 0 1-.25-.43v-.01Zm.36.44h-.03a.79.79 0 0 1-.26-.41s0-.01 0 0l.12.02.02.02a.9.9 0 0 0 .2.34l.01.02h-.01l-.05.01Zm-.09-.36a.8.8 0 0 0 .2.32h.09c.02 0 .02-.01 0-.02a.88.88 0 0 1-.15-.26l-.01-.01a3.55 3.55 0 0 0-.13-.03Zm1.24.17a9.61 9.61 0 0 0-.87.12.83.83 0 0 1-.16-.23l.01-.01a3.04 3.04 0 0 0 1.03.1l-.01.02Zm4.54.97a7.7 7.7 0 0 0 2.57-.54v-.02c0-.02 0-.02-.02-.02a14.02 14.02 0 0 1-2.56.55v.01l.01.02Z" fill="#fff"/></svg>