<!-- by TradingView --><svg width="18" height="18" viewBox="0 0 18 18" xmlns="http://www.w3.org/2000/svg"><path fill="#F0F3FA" d="M0 0h18v18H0z"/><path d="M5.43 10.96c-.06-.06-.05-.15-.09-.22a14.47 14.47 0 0 1-1.33-5.62 12.01 12.01 0 0 1 9.43-.25c.14.05.32.15.49.2a.1.1 0 0 1 .07.1c-.01.88-.14 1.73-.33 2.6-.64 2.91-2.11 5.58-4.65 7.22a9.91 9.91 0 0 1-3.59-4.04Zm4.57 2.8c2.31-2.02 3.4-5.26 3.62-8.25l-.01-.14-.01-.02-.03-.02a11.63 11.63 0 0 0-9.19.02v.02c.1 1.96.58 3.8 1.45 5.53a9.9 9.9 0 0 0 2.89 3.47c.18.14.24.24.45.08l.83-.69Z" fill="#E4C988"/><path d="m10 13.76-.84.69c-.2.16-.26.06-.44-.08a9.9 9.9 0 0 1-2.89-3.47A13.63 13.63 0 0 1 4.4 5.34l.02-.01a11.63 11.63 0 0 1 9.19.02v.02c.02.04.02.1.02.14-.22 2.99-1.31 6.23-3.62 8.25Zm-.98.6c2.9-1.93 4.26-5.53 4.45-8.84a.05.05 0 0 0-.03-.05c-1-.4-2.04-.68-3.12-.83a11.08 11.08 0 0 0-5.79.87c.16 3.4 1.58 6.85 4.43 8.86a.05.05 0 0 0 .06 0Z" fill="#A88651"/><path d="M13.47 5.52c-.19 3.3-1.54 6.92-4.45 8.85a.05.05 0 0 1-.06 0c-2.85-2-4.27-5.46-4.42-8.86v-.02l.02-.02a11.08 11.08 0 0 1 8.91.05Zm-4.45-.23a.04.04 0 0 1 .03-.02.03.03 0 0 1 .03.02l.25.61a.03.03 0 0 0 .05 0c.1-.23.29-.73.49-.89.02-.02.02-.03-.01-.03l-.24-.02a.02.02 0 0 0-.02.03h.01l.07.04c.02.01.03.03.02.05l-.25.5a.02.02 0 0 1-.03 0l-.2-.54c0-.02 0-.03.03-.04l.09-.02v-.02a.02.02 0 0 0-.03-.02h-.5l-.01.02v.01c.38.06.06.47-.01.62-.02.03-.03.03-.04 0a21.8 21.8 0 0 1-.21-.56C8.55 5 8.58 5 8.62 5l.01-.01v-.02l-.01-.01H8.6l-.47.02c-.03 0-.03.01 0 .03.05.02.09.04.12.1a141.97 141.97 0 0 1 .44.83l.33-.64Zm2.25.57c-.15.17-.42.23-.62.1a.06.06 0 0 1-.02-.05l.1-.74.01-.02.02-.01c.26-.04.43.05.51.28.01.03.03.03.03 0l.06-.2c0-.03 0-.05-.03-.05L10.35 5h-.01l-.01.01v.02l.1.07c.02.02.03.03.02.06l-.08.68c0 .02 0 .04-.02.05a.09.09 0 0 1-.06.03h-.08l-.01.02v.01h.01l.96.16c.01 0 .03 0 .03-.02l.1-.21v-.02a.02.02 0 0 0-.02-.01h-.01Zm-3.53-.38a.4.4 0 0 0-.08-.18.5.5 0 0 0-.16-.13.66.66 0 0 0-.22-.07.78.78 0 0 0-.65.22.5.5 0 0 0-.1.18.4.4 0 0 0 .06.36c.04.06.1.1.16.14l.21.07a.78.78 0 0 0 .66-.22.5.5 0 0 0 .1-.18.4.4 0 0 0 .02-.2Zm4.13.73a.06.06 0 0 1-.02-.07l.15-.57a.03.03 0 0 1 .02-.02.03.03 0 0 1 .03.01l.54.94a.02.02 0 0 0 .01 0 .02.02 0 0 0 .02 0l.25-.74c.03-.08.09-.11.17-.07l.02-.02a.01.01 0 0 0 0-.02l-.33-.12a.02.02 0 0 0-.02.03l.1.08a.06.06 0 0 1 .01.06l-.14.42c0 .03-.02.03-.03 0l-.35-.6c-.1-.16-.24-.21-.41-.22a.03.03 0 0 0-.03.02.03.03 0 0 0 .02.03c.06.03.08.07.07.14a7.34 7.34 0 0 1-.2.68l-.1.03-.01.01v.02l.28.08h.02a.02.02 0 0 0 0-.04l-.07-.06Zm-.97-.7-.16.03h-.01v.01l.16.08a.02.02 0 0 1 .01.02l.06.14v.01a.02.02 0 0 0 .03 0V5.8l.07-.4v-.02a.02.02 0 0 0-.02 0h-.01l-.08.1a.09.09 0 0 1-.05.03Zm-5.06.29c.1-.09.22-.2.09-.31-.19-.17-.74.06-.99.16v.02l.01.02.04-.01c.05-.03.1-.01.12.04a10.73 10.73 0 0 1 .23.73l-.08.08a.02.02 0 0 0 0 .03h.02c.21-.08.46-.13.66-.24.33-.17.31-.45-.09-.5-.03 0-.03 0-.01-.02Zm2.72 2.28a2.3 2.3 0 0 1 1-.17.01.01 0 0 0 0-.02.77.77 0 0 0-.55-.12.03.03 0 0 1-.03-.02.03.03 0 0 1 .02-.03c.24-.1.48-.16.72-.2.2-.03.36-.14.22-.35a.04.04 0 0 1 .04-.06l.02.01c.25.25.41.54.5.88 0 .02 0 .03-.03.03-.24 0-.42.06-.65.09 0 0-.02 0-.02.02-.02.01-.01.02.01.02a1 1 0 0 1 .73.09c.02 0 .03.02.04.04.29 1 .27 1.95-.05 2.87-.05.16-.19.5-.41 1.02-.08.18-.07.33-.07.52v.03a.05.05 0 0 1-.06.02l-.08-.04a.03.03 0 0 0-.05.02.45.45 0 0 0 .04.39.06.06 0 0 0 .04.03.06.06 0 0 0 .05-.01c.24-.18.2-.5.18-.76a.1.1 0 0 1 .01-.05c.48-1.07 1.01-2 .82-3.24-.11-.73-.32-1.5-.64-2.29-.14-.37-.4-.52-.78-.45-.42.07-.92.97-1.15 1.35 0 .02-.02.02-.02 0l-.05-.33a.08.08 0 0 0-.05-.06.07.07 0 0 0-.07 0c-.7.47-.98 1.42-.92 2.23 0 .08 0 .08-.03 0a1.73 1.73 0 0 1-.09-.44.04.04 0 0 0-.03-.04c-.27-.08-.23.4-.19.53a9.93 9.93 0 0 0 .86 1.92l.17.07h.06c.12-.04.25-.05.37-.04h.03a.04.04 0 0 0 0-.08.4.4 0 0 0-.31 0c-.02 0-.04 0-.05-.02A6.3 6.3 0 0 1 7.33 10c-.04-.08-.03-.09.02-.01l.27.39a.03.03 0 0 0 .04 0 .03.03 0 0 0 0-.03c-.31-.63-.19-1.63.06-2.26 0-.02.02-.02.03-.02h.01a.01.01 0 0 1 .01.02l-.01.12c0 .05 0 .05.03.02.15-.21.38-.01.53.07a.2.2 0 0 0 .17 0 1.83 1.83 0 0 1 .6-.17.03.03 0 0 0-.02-.04h-.51c-.01 0-.01 0 0 0ZM8 8.46 7.9 8.4a.03.03 0 0 0-.04 0 .03.03 0 0 0 0 .03l.09.22a.06.06 0 0 0 .05.03c.1 0 .18-.03.24-.09.02-.01.02-.03.01-.05l-.03-.05a.04.04 0 0 1 0-.05l.07-.07c.02-.02.02-.03-.01-.04l-.26-.07a.03.03 0 0 0-.04.02v.02l.06.15a.02.02 0 0 1-.03.02Zm2.1 0 .06-.17v-.02a.03.03 0 0 0-.03-.02l-.27.07c-.04.01-.04.03 0 .05l.06.06a.03.03 0 0 1 0 .05l-.04.04v.05c.08.07.16.1.26.1a.06.06 0 0 0 .05-.03l.1-.22a.03.03 0 0 0-.01-.03.03.03 0 0 0-.03 0l-.13.08c-.02.02-.03.01-.02-.02Zm-1.23-.02a1.03 1.03 0 0 0-.48.23.02.02 0 0 0 .03.02c.4-.25.81-.26 1.23-.04.14.07.14.06.02-.03a1.16 1.16 0 0 0-.44-.2.02.02 0 0 1 .01-.03h.14c.03 0 .03-.02 0-.04-.11-.07-.58 0-.7 0v.03c.07 0 .14 0 .2.04v.02Zm.65 2.34h.04c.03 0 .04 0 .04-.03v-.05c0-.02.01-.04.03-.05l.12-.09v-.03h-.02l-.13.02c.25-.2.1-.42-.1-.58a.02.02 0 0 0-.02 0 .02.02 0 0 0-.01.01l-.04.15c0 .04-.02.04-.03 0-.16-.33-.07-.48.12-.76v-.06l-.17-.2a.02.02 0 0 1 0-.03.02.02 0 0 1 .03-.01l.43.16a.02.02 0 0 0 .01 0 .02.02 0 0 0 .01-.01c0-.18-.07-.32-.2-.4-.18-.12-.39-.23-.54 0a.03.03 0 0 1-.06-.01c-.17-.29-.48-.04-.64.14-.08.08-.09.16-.08.27 0 .03.01.03.04.02a1.04 1.04 0 0 1 .4-.15.02.02 0 0 1 0 .04l-.15.18v.06c.22.28.27.43.13.77a.02.02 0 0 1-.04 0l-.02-.15c0-.03-.01-.03-.03-.02-.28.2-.32.38-.06.62v.03h-.02l-.14-.1h-.02a.03.03 0 0 0-.02.04c.1.08.2.13.32.14.02 0 .02 0 0 .02a.12.12 0 0 1-.1.02H8.6l-.02.02a.02.02 0 0 0 0 .03h.02l.2.03c.02 0 .02 0 .01.03l-.03.02c-.03 0-.03.02 0 .02.13.04.3-.06.18-.21a2.6 2.6 0 0 0-.19-.22.05.05 0 0 1 .06-.06l.1.02c.02 0 .04 0 .05.02l.1.07c0 .02.02.01.04 0a.27.27 0 0 1 .23-.11c.03 0 .03 0 .03.03-.04.1-.1.2-.19.26a.09.09 0 0 0-.03.08c.01.07.05.1.11.11.02 0 .03 0 .04-.02.01-.04.05-.06.1-.05.02.01.07 0 .13-.03Zm-1.8-1.21c.03-.02.05-.02.05.01a1.47 1.47 0 0 1-.08.62.02.02 0 0 0 .04 0l.1-.08h.03l.27.2h.03a.02.02 0 0 0 0-.03l-.21-.3a.04.04 0 0 0-.03-.02H7.9c-.03 0-.05-.02-.05-.05 0-.17.07-.43.02-.58l.01-.06.23-.4v-.01l-.31.27a.03.03 0 0 0-.01.03v.09l-.15.31a.02.02 0 0 0 .02.04h.02l.05-.04Zm2.68 0 .05.04c.02.01.03 0 .03-.01l-.01-.09a3.19 3.19 0 0 1-.15-.3h.01l.02-.02v-.02a.02.02 0 0 0 0-.02l-.28-.24h-.01v.01l.2.39c.02.03.01.06-.02.08a.05.05 0 0 0-.01.05c.05.17.06.35.05.54 0 .02-.02.03-.04.01l-.03-.02h-.03l-.2.33-.01.01a.02.02 0 0 0 .03.01l.24-.18.04-.02.04.02.1.07c.03.02.04.02.02-.02-.07-.2-.1-.4-.08-.6 0-.03.02-.03.04-.02Zm-.41.15a.3.3 0 0 1-.19.27.02.02 0 0 0 .02.04c.35-.05.32-.44.2-.67 0-.03-.02-.03-.03 0a.7.7 0 0 1-.15.3c-.05.05-.13.08-.18.15-.02.02-.02.03.01.03a.4.4 0 0 0 .28-.14.02.02 0 0 1 .04.02Zm-1.83-.05c.08.07.18.2.3.17a.02.02 0 0 0 0-.04.71.71 0 0 1-.32-.43.02.02 0 0 0-.04 0c-.1.22-.13.6.2.67l.02-.02V10a.4.4 0 0 1-.18-.3c0-.03 0-.03.02-.02Zm.47-.14-.24-.1a.02.02 0 0 0-.03.01v.01a.14.14 0 0 0 0 .1c.02.04.04.07.08.08l.02.01h.1a.14.14 0 0 0 .08-.07v-.01a.02.02 0 0 0-.01-.03ZM9.8 9.5a.06.06 0 0 0-.02-.03.1.1 0 0 0-.04-.01h-.05a.23.23 0 0 0-.15.07.1.1 0 0 0-.02.03v.04l.03.03a.1.1 0 0 0 .04.02h.05a.23.23 0 0 0 .14-.07.1.1 0 0 0 .02-.04V9.5Zm-.36 2.68.45.02h.01a.01.01 0 0 0 0-.03l-.17-.08a.08.08 0 0 1-.04-.1l.53-1.55v-.01a.01.01 0 0 0-.02 0c-.11.1-.21.13-.28.26l-.68 1.35c-.1.2-.24.15-.4.25-.14.1-.28.54-.21.69.06.14.3.23.32 0a1.25 1.25 0 0 1 .2-.54h.02v.02c-.08.2-.21.57-.04.76a.1.1 0 0 0 .1.03.1.1 0 0 0 .06-.08c.04-.31.12-.6.26-.89 0-.02 0-.03-.02-.03l-.1-.02a.03.03 0 0 1 0-.04l.01-.01Zm-.06-1.06.07-.04c.03-.02.03-.03 0-.04-.05 0-.1 0-.17.03-.05 0-.11 0-.17-.04a.06.06 0 0 0-.05 0 .49.49 0 0 1-.33 0c-.02 0-.04 0-.06.02-.02.02-.01.03.01.03l.08.02c.02 0 .02.02 0 .03-.04.02-.08.02-.12-.01l-.01-.01h-.01a.03.03 0 0 0-.02.01c-.03.05-.03.09 0 .12a.04.04 0 0 0 .04.02l.07-.02c.05-.02.07 0 .06.05 0 .05 0 .08.03.12h.05l.08-.05a.03.03 0 0 1 .05.01l.05.13a.05.05 0 0 0 .04.03l.02-.01.02-.02.07-.13a.03.03 0 0 1 .02-.02.03.03 0 0 1 .02 0l.09.07c.03.02.04.02.05-.02l.01-.14a.03.03 0 0 1 .03-.02l.12.03a.03.03 0 0 0 .03 0 .03.03 0 0 0 0-.03l.02-.1a.03.03 0 0 0-.04-.03.18.18 0 0 1-.15 0Zm-1.56.86.22-.04a.02.02 0 0 0 .01-.01l-.02-.18a.22.22 0 0 0-.06-.12c-.02-.02-.05-.04-.08-.03h-.03c-.01 0-.03 0-.04.02a.12.12 0 0 0-.03.04l-.02.06v.06l.03.19h.02Zm.65-.05-.1-.3a.07.07 0 0 0-.09-.05l-.02.01a.26.26 0 0 0-.14.1.17.17 0 0 0-.03.15l.03.08c.02.05.05.09.1.1.06.02.12.02.18 0h.03l.02-.02a.07.07 0 0 0 .02-.07Zm.22-.24a.1.1 0 0 0-.1-.08h-.02a.09.09 0 0 0-.08.11l.04.24a.1.1 0 0 0 .1.07h.02a.09.09 0 0 0 .08-.1l-.04-.24Zm.79 1.55c.1.02.18.01.27-.02.02 0 .02-.02.02-.04a2.36 2.36 0 0 1-.07-.63c0-.05-.02-.09-.07-.12-.02-.01-.03-.01-.04.01-.1.24-.16.48-.17.74 0 .01 0 .03.02.04l.04.02Z" fill="#050404"/><path d="m9.02 5.29-.32.63a.02.02 0 0 1-.03 0l-.42-.83c-.03-.05-.07-.07-.12-.1-.03 0-.03-.01 0-.02l.47-.03h.02v.02l.01.02c-.05 0-.08.02-.1.05l.01.08.2.48c.02.03.03.03.05 0 .07-.15.4-.56.02-.62H8.8v-.02h.51l.03.01a.23.23 0 0 1 0 .02l-.1.02c-.02 0-.03.02-.02.04l.2.54a.02.02 0 0 0 .01.01.02.02 0 0 0 .02-.01l.25-.5c.01-.02 0-.04-.02-.05L9.61 5a.02.02 0 0 1 .01-.04l.24.02c.03 0 .03.01 0 .03-.19.16-.38.66-.48.9a.03.03 0 0 1-.05 0l-.25-.62a.03.03 0 0 0-.05-.02l-.01.02ZM7.74 5.48a.4.4 0 0 1-.02.19.5.5 0 0 1-.1.18.66.66 0 0 1-.19.14.78.78 0 0 1-.47.08.66.66 0 0 1-.21-.07.5.5 0 0 1-.16-.14.4.4 0 0 1-.07-.36.5.5 0 0 1 .11-.18c.05-.05.11-.1.18-.14a.78.78 0 0 1 .47-.08c.08.01.16.04.22.07a.5.5 0 0 1 .16.13.4.4 0 0 1 .08.18Zm-.54.56c.05-.01.09-.03.12-.06a.35.35 0 0 0 .1-.12.5.5 0 0 0 .04-.16.6.6 0 0 0-.06-.34.5.5 0 0 0-.1-.14.35.35 0 0 0-.12-.07.26.26 0 0 0-.13-.02.26.26 0 0 0-.12.06.35.35 0 0 0-.1.12.5.5 0 0 0-.04.16.6.6 0 0 0 .06.34l.1.14c.04.03.08.06.12.07.05.02.1.02.13.02Z" fill="#E4C988"/><path d="M6.8 5.64c.04.25.22.43.4.4.19-.04.3-.26.25-.51-.04-.25-.22-.43-.4-.4-.19.04-.3.26-.26.51Z" fill="#050404"/><path d="m11.87 6.2.07.07a.02.02 0 0 1 0 .03.02.02 0 0 1-.02 0l-.27-.07h-.01V6.2l.1-.04c.02 0 .03-.02.04-.04l.17-.64c0-.07-.01-.11-.07-.14l-.02-.01a.03.03 0 0 1 .01-.04h.02c.17 0 .3.06.4.22l.36.6c.01.03.02.03.03 0l.14-.42a.06.06 0 0 0-.02-.06l-.09-.08a.02.02 0 0 1 0-.03h.02l.33.12a.01.01 0 0 1 0 .02l-.02.02c-.08-.04-.14 0-.17.07a53.92 53.92 0 0 0-.28.74l-.54-.94a.03.03 0 0 0-.04 0l-.01.01-.15.57a.06.06 0 0 0 .02.07ZM10.95 5.47l.08-.1a.02.02 0 0 1 .03.01L11 5.8v.01a.02.02 0 0 1-.04 0l-.06-.15v-.01h-.01l-.16-.08v-.02l.17-.04c.02 0 .04-.01.05-.03ZM5.85 5.83c.4.04.42.32.09.5-.2.1-.45.15-.66.23a.02.02 0 0 1-.03-.02l.09-.1a.04.04 0 0 0 0-.03c-.1-.34-.19-.57-.23-.69-.03-.05-.07-.07-.12-.04h-.05v-.03c.25-.1.8-.33.99-.16.13.12 0 .22-.1.3-.01.02 0 .03.02.04Zm-.48-.27.11.34a.02.02 0 0 0 .02.02l.05-.02a.28.28 0 0 0 .14-.1c.03-.05.04-.1.03-.16a.18.18 0 0 0-.11-.11.27.27 0 0 0-.18 0h-.05a.02.02 0 0 0-.01.03Zm.15.47.1.3a.07.07 0 0 0 .08.05h.02a.27.27 0 0 0 .14-.12.21.21 0 0 0 .02-.18v-.01a.21.21 0 0 0-.12-.13.27.27 0 0 0-.19 0h-.01a.07.07 0 0 0-.04.09Z" fill="#E4C988"/><path d="M5.37 5.56a.02.02 0 0 1 .01-.02l.05-.02a.27.27 0 0 1 .18 0c.05.03.09.07.1.12.02.05.01.1-.02.15a.28.28 0 0 1-.14.11l-.05.01a.02.02 0 0 1-.02 0l-.11-.35ZM5.52 6.03a.07.07 0 0 1 .04-.09h.01a.27.27 0 0 1 .19 0c.06.03.1.07.12.13v.01c.02.06.02.12-.02.18a.27.27 0 0 1-.14.12H5.7a.07.07 0 0 1-.08-.04l-.1-.31Z" fill="#050404"/><path d="M8.56 8.08h.5a.03.03 0 0 1 .03.05h-.02c-.2.03-.4.08-.58.17a.2.2 0 0 1-.17 0c-.15-.08-.38-.28-.53-.07-.03.03-.04.03-.03-.02l.02-.12a.01.01 0 0 0-.01-.02h-.02c-.01 0-.02 0-.03.02-.25.63-.37 1.63-.05 2.26a.03.03 0 0 1-.01.04h-.02l-.02-.01-.26-.4c-.06-.07-.07-.07-.03.02.2.52.46 1 .78 1.44.01.01.03.02.05.01a.4.4 0 0 1 .3.01l.02.02a.04.04 0 0 1-.04.06c-.12 0-.25 0-.37.04H8l-.17-.07a9.93 9.93 0 0 1-.86-1.93c-.04-.13-.08-.6.2-.52l.02.04c.01.15.04.3.09.44.03.08.04.08.03 0-.06-.81.22-1.76.92-2.23a.07.07 0 0 1 .1.02l.02.04.05.33c0 .02.01.02.02 0 .23-.38.73-1.28 1.15-1.35.38-.07.64.08.79.45.3.8.52 1.56.63 2.29.2 1.23-.33 2.17-.82 3.24a.1.1 0 0 0 0 .05c.02.27.05.58-.2.76a.06.06 0 0 1-.08-.02.45.45 0 0 1-.04-.39.04.04 0 0 1 .02-.02.04.04 0 0 1 .03 0l.08.04a.05.05 0 0 0 .07-.05c-.01-.2-.02-.34.06-.52.22-.52.36-.86.41-1.02a4.63 4.63 0 0 0 .01-2.91 1 1 0 0 0-.73-.1c-.02.01-.03 0-.01-.02l.02-.01c.23-.03.4-.1.65-.1.02 0 .03 0 .03-.02a1.85 1.85 0 0 0-.5-.88.04.04 0 0 0-.06.02v.03c.14.2-.02.32-.22.35a3.47 3.47 0 0 0-.73.21.03.03 0 0 0 0 .04h.03a.77.77 0 0 1 .55.13.01.01 0 0 1 0 .02h-.02a2.3 2.3 0 0 0-1 .16Z" fill="#E4C988"/><path d="m8.04 8.44-.06-.15A.03.03 0 0 1 8 8.25h.02l.26.07c.03.01.03.02.01.04l-.06.07a.04.04 0 0 0-.01.05l.03.05v.05a.32.32 0 0 1-.25.1.06.06 0 0 1-.05-.04l-.1-.22a.03.03 0 0 1 .01-.03.03.03 0 0 1 .04 0l.1.07a.02.02 0 0 0 .03 0 .02.02 0 0 0 0-.02ZM10.13 8.47l.13-.08a.03.03 0 0 1 .04.01v.02l-.1.22a.06.06 0 0 1-.05.03.33.33 0 0 1-.26-.1v-.05l.05-.04a.03.03 0 0 0 0-.04v-.01l-.08-.06c-.03-.02-.03-.04.01-.05l.27-.07a.03.03 0 0 1 .03.04l-.06.16c-.01.03 0 .04.02.02ZM8.89 8.42a.26.26 0 0 0-.2-.04v-.02c.12-.02.59-.08.7 0 .03.01.03.02 0 .02l-.14.01a.02.02 0 0 0-.01.02.02.02 0 0 0 .01.02c.2.05.3.1.43.2.12.08.12.1-.02.02a1.18 1.18 0 0 0-1.24.04.02.02 0 0 1-.01 0 .02.02 0 0 1 0-.03c.14-.12.3-.19.47-.22.02 0 .02-.01 0-.02Z" fill="#E4C988"/><path d="M9.6 10.55a.16.16 0 0 0-.05.05.02.02 0 0 0 0 .02l.01.01c.02.02.01.03 0 .03l-.1.03c-.03.01-.03.03 0 .04.05.01.07.03.07.05-.06.03-.1.04-.13.03-.05 0-.09 0-.1.05 0 .02-.02.03-.04.02-.06 0-.1-.04-.1-.1a.09.09 0 0 1 .02-.09.59.59 0 0 0 .19-.26c0-.02 0-.03-.03-.03-.1 0-.17.03-.23.1-.02.02-.03.03-.05.01l-.09-.07a.11.11 0 0 0-.05-.02l-.1-.02a.05.05 0 0 0-.04.09l.17.19c.11.15-.05.25-.18.21-.03 0-.03-.01 0-.02l.03-.02c.02-.02.01-.03 0-.03l-.21-.02h-.01a.02.02 0 0 1-.01-.03l.02-.02.02-.01c.04 0 .08 0 .1-.02.02-.01.02-.02 0-.02a.54.54 0 0 1-.31-.14.03.03 0 0 1 .01-.05h.02l.14.11h.02v-.02c-.26-.25-.22-.44.06-.63.02-.01.03 0 .03.02l.02.14a.02.02 0 0 0 .04.01c.14-.34.09-.5-.13-.77v-.06l.16-.18a.02.02 0 0 0-.03-.04c-.13.02-.26.07-.38.15-.03.01-.04 0-.04-.02 0-.1 0-.19.08-.27.16-.18.47-.43.64-.14a.03.03 0 0 0 .05.01h.01c.15-.23.37-.12.54 0 .13.08.2.22.2.4a.02.02 0 0 1 0 .01.02.02 0 0 1-.02 0l-.43-.16a.02.02 0 0 0-.03 0 .02.02 0 0 0 0 .03l.17.21v.06c-.2.28-.28.43-.12.77.01.03.03.03.03 0l.04-.16a.02.02 0 0 1 .01-.02.02.02 0 0 1 .02 0c.2.17.36.38.1.6ZM10.37 9.58c-.02.21 0 .41.08.6.02.05.01.05-.02.03l-.1-.07a.06.06 0 0 0-.08 0l-.24.18H10a.02.02 0 0 1-.02-.01v-.01l.21-.32c0-.01.02-.02.03 0l.03.01c.02.01.03 0 .04-.01.01-.19 0-.37-.05-.54 0-.02 0-.04.02-.05.02-.02.03-.05.01-.08a8.12 8.12 0 0 0-.2-.4h.01l.28.24a.02.02 0 0 1 0 .04l-.02.01v.03l.14.28c.01.03.02.06.01.09 0 .02-.01.02-.03.01l-.05-.04c-.02-.02-.03-.01-.04.01Z" fill="#E4C988"/><path d="M9.96 9.7a.4.4 0 0 1-.28.14c-.03 0-.03 0-.01-.03.05-.07.13-.1.18-.16a.7.7 0 0 0 .15-.29c.01-.03.02-.03.04 0 .11.23.14.62-.21.67H9.8a.02.02 0 0 1 0-.05.3.3 0 0 0 .19-.26.02.02 0 0 0-.03-.03h-.01ZM8.15 9.68a.4.4 0 0 0 .17.31.02.02 0 0 1 .01.03l-.01.01H8.3c-.31-.06-.29-.44-.2-.66a.02.02 0 0 1 .04-.01c.06.2.17.34.34.43a.02.02 0 0 1 0 .04c-.13.04-.23-.09-.3-.16-.02-.01-.03-.01-.03.01ZM8.64 9.53a.02.02 0 0 1 .01.03.14.14 0 0 1-.08.08.14.14 0 0 1-.1 0h-.02a.14.14 0 0 1-.08-.08.14.14 0 0 1 0-.1v-.02a.02.02 0 0 1 .03 0l.24.09ZM9.7 9.64c.07-.03.12-.09.1-.14-.01-.04-.09-.06-.17-.03-.07.02-.12.08-.1.13.01.05.08.06.16.04ZM9.44 12.23l.09.02c.02 0 .03.01.02.03-.14.28-.22.58-.26.9a.1.1 0 0 1-.12.07.1.1 0 0 1-.04-.03c-.17-.2-.04-.55.04-.76a.02.02 0 0 0 0-.02.02.02 0 0 0-.03 0c-.1.17-.17.35-.19.54-.02.23-.26.14-.32 0-.07-.15.07-.6.21-.69.16-.1.3-.04.4-.25l.68-1.35c.07-.13.17-.17.28-.27h.01a.01.01 0 0 1 0 .02l-.52 1.55a.08.08 0 0 0 .04.1l.17.08a.01.01 0 0 1 0 .02l-.46-.01a.03.03 0 0 0-.02.04h.02Z" fill="#E4C988"/><path d="M9.53 10.78c0-.02-.02-.04-.06-.05-.04-.01-.04-.03 0-.04l.08-.03c.02 0 .03-.01.01-.03v-.01a.02.02 0 0 1-.01-.02.16.16 0 0 1 .06-.05l.13-.02a.02.02 0 0 1 .03 0 .02.02 0 0 1-.01.03l-.12.1a.05.05 0 0 0-.03.04v.05c0 .02-.01.03-.04.03h-.04Z" fill="#A88651"/><path d="m9.28 11.07.1.05c.05.02.1.02.15 0a.03.03 0 0 1 .03 0 .03.03 0 0 1 .01.03l-.01.1a.03.03 0 0 1-.01.01h-.03l-.11-.02H9.4a.03.03 0 0 0-.02.01v.01l-.02.14c0 .04-.02.04-.05.02l-.09-.06h-.04l-.07.14a.04.04 0 0 1-.04.03.04.04 0 0 1-.04-.03l-.05-.13a.03.03 0 0 0-.04-.02h-.01l-.08.06a.03.03 0 0 1-.05 0 .13.13 0 0 1-.03-.12c.01-.05 0-.07-.06-.05l-.07.02H8.6l-.02-.02c-.02-.03-.02-.07 0-.12a.03.03 0 0 1 .03-.01.03.03 0 0 1 .02 0c.04.04.08.04.12.02.03-.02.02-.02 0-.03l-.08-.02c-.02 0-.03-.01 0-.03a.06.06 0 0 1 .05-.01c.12.03.23.03.33-.01a.06.06 0 0 1 .05 0c.06.03.12.04.17.04ZM8.47 11.93a.07.07 0 0 1-.04.08l-.03.01a.26.26 0 0 1-.18 0 .17.17 0 0 1-.1-.1l-.03-.08c-.01-.05 0-.1.03-.15a.26.26 0 0 1 .13-.1h.03l.03-.01a.07.07 0 0 1 .06.05l.1.3ZM9.48 13.24a.07.07 0 0 1-.06-.06c.01-.26.06-.5.17-.74 0-.02.02-.02.04-.01.05.03.07.07.07.12 0 .24.02.45.07.63 0 .02 0 .03-.02.04a.49.49 0 0 1-.27.02Z" fill="#E4C988"/></svg>