<!-- by TradingView --><svg width="18" height="18" xmlns="http://www.w3.org/2000/svg"><path fill="url(#paint0_linear)" d="M0 0h18v18H0z"/><path d="M9.013 4.017c.129.19.425.625.667 1.19-.245.259-.487.566-.679.912a4.719 4.719 0 00-.68-.913c.243-.564.54-1 .668-1.189L9.001 4l.012.017zM7.29 4.32c.19.138.613.445 1.03.886-.14.327-.261.695-.321 1.086a4.742 4.742 0 00-.955-.627c-.018.352-.004.742.076 1.127a4.699 4.699 0 00-1.117-.267 6.872 6.872 0 01-.266-1.356l.033.01c.228.065.73.21 1.274.486.03-.601.155-1.102.212-1.331l.008-.033.026.019zm1.698 9.663a6.976 6.976 0 01-.667-1.19A4.78 4.78 0 009 11.882c.192.346.434.651.68.913-.243.564-.54 1-.668 1.189L9 14l-.012-.017zm-2.985-2.508a4.704 4.704 0 001.117-.27c-.08.39-.094.776-.076 1.13.32-.161.653-.368.955-.627.06.39.182.76.322 1.086-.418.441-.84.748-1.031.886l-.026.019-.008-.033c-.057-.229-.182-.73-.212-1.33-.562.284-1.08.43-1.296.49l-.01.003c.021-.214.077-.75.265-1.354zm0 0c.106-.338.256-.698.464-1.035a4.634 4.634 0 01-1.143-.124c-.372.487-.606.955-.71 1.162l-.012.023.027.002c.235.015.763.048 1.374-.028zm4.703 2.202c-.192-.14-.614-.445-1.027-.883.14-.327.26-.697.32-1.086.302.26.635.466.955.627.02-.354.004-.74-.074-1.13.374.145.76.227 1.115.27.182.58.24 1.095.265 1.326l.003.028h-.004c-.215-.06-.737-.206-1.305-.494-.03.609-.156 1.115-.212 1.34l-.006.024-.03-.022zM6.467 7.56a4.624 4.624 0 01-.463-1.035c-.611-.076-1.14-.043-1.374-.028l-.027.002.012.022c.104.208.338.675.71 1.16a4.732 4.732 0 011.143-.121zm5.529 3.915a4.499 4.499 0 00-.463-1.035c.403.01.793-.043 1.142-.124.386.504.624.986.72 1.183l.002.002-.025.002c-.232.014-.761.048-1.376-.028zM5.325 7.682c-.616.14-1.108.355-1.316.446L4 8.132l.038.035c.179.167.552.513 1.05.833a7.208 7.208 0 00-1.046.829L4 9.868l.037.016c.221.095.698.3 1.288.432.217-.281.481-.568.795-.816A4.66 4.66 0 015.089 9a4.66 4.66 0 011.03-.5 4.658 4.658 0 01-.794-.818zM11.882 9.5c.38-.126.727-.307 1.03-.5.507.323.884.676 1.058.84l.03.028-.028.012a7.057 7.057 0 01-1.297.436 4.704 4.704 0 00-.793-.816zm1.03-.5a4.645 4.645 0 00-1.03-.5c.312-.248.578-.535.793-.818a7.103 7.103 0 011.325.45l-.026.024A7.216 7.216 0 0112.911 9zm.483-2.499a6.9 6.9 0 01-.72 1.18 4.709 4.709 0 00-1.143-.121c.21-.339.358-.697.464-1.035a7.272 7.272 0 011.376-.028l.025.002-.002.002zm-1.399.024a4.707 4.707 0 00-1.115.267c.078-.387.094-.775.074-1.127-.32.161-.653.368-.955.627-.06-.391-.18-.76-.32-1.086.413-.438.835-.744 1.027-.883l.03-.022.006.025c.056.224.181.73.212 1.339.549-.278 1.055-.423 1.282-.488l.027-.008-.003.026a6.855 6.855 0 01-.265 1.33z" fill="#168A44"/><path d="M10 6.292a3.2 3.2 0 00-.651.764A3.09 3.09 0 009 6.119a3.09 3.09 0 00-.348.937A3.163 3.163 0 008 6.292c-.05.323-.058.66-.002.998a3.27 3.27 0 00-.877-.498 4.475 4.475 0 01-.076-1.127c.32.161.653.368.955.627.06-.391.182-.76.322-1.086.243.26.485.567.679.913a4.56 4.56 0 01.68-.913c.14.327.26.695.319 1.086.302-.26.635-.466.955-.627.02.352.004.74-.074 1.127-.308.12-.61.28-.879.498A3.096 3.096 0 0010 6.292zm-.999 5.589c.16-.286.284-.6.348-.937.177.295.403.547.651.764.05-.323.06-.66.002-.998.27.216.571.378.88.496.077.39.093.775.073 1.13a4.739 4.739 0 01-.955-.628c-.06.39-.18.76-.32 1.086a4.618 4.618 0 01-.679-.913zm-.348-.937c.064.337.188.651.348.937a4.78 4.78 0 01-.68.913A4.54 4.54 0 018 11.708c-.302.26-.635.466-.955.627a4.497 4.497 0 01.076-1.13c.308-.117.607-.279.877-.495-.056.338-.048.675.002.998.25-.217.476-.469.653-.764zM7.467 7.731a3.087 3.087 0 01-.346-.939 4.698 4.698 0 00-1.117-.267c.106.338.256.696.464 1.035.33.008.669.057.999.17zm-.35.594a3.222 3.222 0 00-.997.175 4.658 4.658 0 01-.795-.818 4.731 4.731 0 011.143-.122c.171.277.385.54.649.765zM6.997 9a3.211 3.211 0 01-.877-.5 4.66 4.66 0 00-1.031.5 4.66 4.66 0 001.03.5c.259-.203.55-.38.878-.5zm.12.675a3.16 3.16 0 00-.65.765 4.634 4.634 0 01-1.142-.124c.217-.281.481-.568.795-.816.314.104.65.171.997.175zm.35.594a3.29 3.29 0 01-1 .171 4.586 4.586 0 00-.463 1.035 4.704 4.704 0 001.117-.27c.064-.318.174-.637.346-.936zm3.069 0c.171.3.28.618.345.937.374.144.76.226 1.115.27a4.499 4.499 0 00-.463-1.036c.403.01.793-.043 1.142-.124a4.703 4.703 0 00-.793-.816c-.314.104-.65.171-.999.175.266.222.48.486.65.765a3.277 3.277 0 01-.997-.17zm1.346-.77A3.27 3.27 0 0011.005 9a3.27 3.27 0 00.877-.5c.38.126.727.307 1.03.5-.303.193-.65.374-1.03.5zm-.35-1.94c-.17.278-.383.542-.649.766.35.004.685.069 1 .175.31-.248.577-.535.792-.818a4.709 4.709 0 00-1.143-.122zm0 0c-.33.009-.667.058-.996.172.171-.3.28-.618.345-.939.374-.143.76-.224 1.115-.267a4.535 4.535 0 01-.463 1.035z" fill="#5BB046"/><path d="M8.653 8.063a2.705 2.705 0 00-.655-.773c.054.317.164.636.352.945a2.779 2.779 0 00-.883-.504c.157.28.373.541.657.77a2.81 2.81 0 00-1.007-.176c.248.209.54.382.885.502A2.754 2.754 0 006.997 9c.304.112.64.177 1.005.173-.346.12-.637.293-.885.502.326.004.663-.05 1.007-.177-.284.23-.5.49-.657.771.305-.108.605-.27.883-.505-.188.31-.298.63-.352.946.252-.205.478-.459.655-.773-.068.354-.06.69 0 1.007a2.7 2.7 0 00.348-.946 2.7 2.7 0 00.348.946 2.67 2.67 0 00-.002-1.007c.18.315.403.568.655.773a2.648 2.648 0 00-.352-.947c.28.237.578.398.886.506a2.71 2.71 0 00-.658-.771c.344.128.68.18 1.005.177a2.774 2.774 0 00-.885-.502c.368.004.701-.06 1.007-.173a2.765 2.765 0 00-1.007-.173c.346-.12.637-.293.885-.502a2.8 2.8 0 00-1.005.175c.284-.228.498-.49.658-.77-.308.107-.606.27-.886.505.188-.31.3-.628.352-.945a2.737 2.737 0 00-.655.773 2.67 2.67 0 00.002-1.007c-.166.275-.288.59-.348.946a2.685 2.685 0 00-.348-.946c-.06.315-.068.651 0 1.007z" fill="#fff"/><path d="M9.349 7.056A3.09 3.09 0 009 6.119a3.09 3.09 0 00-.348.937c.166.275.288.59.348.946.06-.356.182-.67.348-.946.06.315.066.651-.002 1.007.18-.314.403-.568.655-.773A3.096 3.096 0 0010 6.292a3.2 3.2 0 00-.651.764zm-.696 0c-.06.315-.068.651 0 1.007a2.705 2.705 0 00-.655-.773c.054.317.164.636.352.945a2.779 2.779 0 00-.883-.504c.157.28.373.541.657.77a2.81 2.81 0 00-1.007-.176 3.234 3.234 0 01-.65-.765c.33.008.67.057 1 .17a3.087 3.087 0 01-.346-.938c.308.12.607.28.877.498A3.152 3.152 0 018 6.292c.25.215.476.469.653.764zm.696 3.888a2.67 2.67 0 00-.002-1.007c.18.315.403.568.655.773.058.338.048.675-.002.998a3.236 3.236 0 01-.651-.764 3.109 3.109 0 01-.348.937c-.16-.286-.284-.6-.348-.937a2.7 2.7 0 00.348-.946 2.7 2.7 0 00.348.946zm1.532.262a3.272 3.272 0 01-.879-.496 2.648 2.648 0 00-.352-.947c.28.237.578.398.886.506a2.709 2.709 0 00-.658-.771c.344.128.68.18 1.005.177.266.222.48.486.65.765a3.277 3.277 0 01-.997-.17c.171.298.28.617.345.936zm-2.879-2.38a2.775 2.775 0 01-.885-.5 3.222 3.222 0 00-.997.174c.258.203.55.38.877.5-.328.12-.62.297-.877.5.314.104.65.171.997.175.248-.209.54-.382.885-.502A2.796 2.796 0 016.997 9c.304-.114.64-.177 1.005-.173zm2.881.849a2.775 2.775 0 00-.885-.502c.368.004.701-.06 1.007-.173a2.765 2.765 0 00-1.007-.173c.346-.12.637-.293.885-.502a2.8 2.8 0 00-1.005.175c.284-.228.498-.49.658-.77-.308.107-.606.27-.886.505.188-.31.3-.628.352-.945a3.28 3.28 0 01.88-.498 3.14 3.14 0 01-.346.939c.33-.114.667-.163.997-.171-.17.277-.384.54-.65.765.35.004.685.069 1 .175a3.27 3.27 0 01-.878.5c.326.12.617.297.877.5-.314.104-.65.171-.999.175zM7.998 10.71c-.27.216-.57.378-.877.496.064-.319.174-.638.346-.937.305-.108.605-.27.883-.506-.188.311-.298.63-.352.947.252-.205.478-.459.655-.773-.068.354-.06.69 0 1.007a3.198 3.198 0 01-.653.764 3.151 3.151 0 01-.002-.998zm-.531-.44a3.29 3.29 0 01-1 .17c.172-.279.386-.543.65-.765.326.004.663-.05 1.007-.177-.284.23-.5.49-.657.771z" fill="#FEDC00"/><defs><linearGradient id="paint0_linear" x1="3.349" y1="3.122" x2="21.904" y2="24.434" gradientUnits="userSpaceOnUse"><stop stop-color="#1A1E21"/><stop offset="1" stop-color="#06060A"/></linearGradient></defs></svg>