<!-- by TradingView --><svg xmlns="http://www.w3.org/2000/svg" width="18" height="18" viewBox="0 0 18 18"><path fill="#F0F3FA" d="M0 0h18v18H0z"/><path d="M4.5 6v6h2.28c.65 0 1.14-.16 1.5-.46.34-.3.52-.73.52-1.3 0-.34-.08-.63-.25-.86a1.2 1.2 0 0 0-.7-.47c.26-.1.46-.27.6-.49.15-.22.22-.48.22-.78 0-.54-.18-.94-.54-1.22A2.52 2.52 0 0 0 6.56 6H4.5zm1.3 4.71V9.4h1.01c.54 0 .76.32.76.7 0 .36-.27.62-.83.62H5.8zm.8-2.2h-.8V7.28h.76c.65 0 .89.24.89.57 0 .49-.25.65-.85.66zm4.4 3.5V10h.94C13.11 10 14 9.26 14 8s-.83-2-2-2H9.7v6H11zm.8-3.19H11V7.2h.83c.6 0 .93.31.93.81s-.32.82-.96.82z"/></svg>