<!-- by TradingView --><svg width="18" height="18" viewBox="0 0 18 18" xmlns="http://www.w3.org/2000/svg"><path fill="#F0F3FA" d="M0 0h18v18H0z"/><path fill-rule="evenodd" d="M5.08 12.08c.06.19.2.35.43.52.3.24 2.66 1.82 3.39 2.3l.16.1.12-.08c.12-.08 2.98-2.06 3.33-2.32.22-.17.34-.33.42-.52.1-.29.06-.51.04-.68-.02-.08-.48-2.93-.73-4.29C11.2 6.95 10.14 7 9.06 7H9v7.26c-1.44-.94-2.82-1.87-3.07-2.05a.72.72 0 0 1-.26-.31c-.06-.15-.04-.27-.02-.41.02-.09.53-3.15.77-4.44-.22.02-.39.06-.6.1l-.78 4.25a1 1 0 0 0 .04.68ZM7 8h1v.56H7V8Zm.08 1h.86l.29 2H6.8l.27-2Zm-.36 2.4h1.7v.6H8v-.28h-.88V12h-.4v-.6Zm.39-5.46c-.16.02-.26.04-.4.08l-.1.58a16.97 16.97 0 0 1 4.73-.02c-.05-.19-.09-.44-.11-.56-.1-.04-.22-.06-.4-.08.52-.12.85-.5.85-.86 0-.48-.37-.87-1.3-.95a2.2 2.2 0 0 0-1.18-.41c.1-.06.16-.19.16-.33 0-.2-.2-.39-.4-.39s-.4.16-.4.39c0 .12.05.25.15.33-.38.04-.85.14-1.17.41-.92.08-1.28.47-1.28.95 0 .37.32.74.85.86Zm3.47-1.52s.69.06.69.68c0 .49-.53.76-1.18.65.9-.35.71-1.07.49-1.33Zm-1.4-.35c.59.06 1.04.43 1.04.88s-.47.84-1.06.89c.12-.17.2-.5.2-.9a2.1 2.1 0 0 0-.18-.87Zm-.43 0c-.1.18-.18.5-.18.86 0 .4.08.74.2.9-.58-.04-1.05-.4-1.05-.88 0-.47.45-.84 1.03-.88Zm-1.4.35c-.22.26-.4.96.51 1.33-.65.09-1.18-.18-1.18-.65-.04-.6.67-.68.67-.68Zm3.45 7.89c0-.1.08-.1.17-.1.05-.04.15-.43.24-.25l.04-.23c.06-.16.22-.26.16-.57l-.02-.02c-.15.3-.33-.38-.04-.46.1.31.57.4.61-.02 0-.08-.06-.18-.14-.3.04-.13.08-.23.12-.3.02-.04-.15-.25-.1-.3.02-.04-.14.04-.2.19-.02-.09-.05-.17-.05-.23 0-.19.07-.56.15-.86.02-.09.06-.25.18-.31-.1-.02-.26.06-.26.24a.42.42 0 0 0-.33-.39c.33.31.06.99.06 1.3 0 .41.49.82.4.96-.1.21-.3-.18-.36-.32-.06-.13-.28-.33-.44-.5.1-.06.2-.24.2-.4.02.01.04.03.04.05h.02c-.02-.16.04-.35-.02-.49h.08c-.02-.74-.55-.6-.81-.53 0 .04-.01.21.06.28.02-.06.02-.08.08-.1.06.04.1.14.06.25-.05.03-.25.08-.04.24 0-.1.04-.14.12-.12-.02.23-.18.16-.32.23-.29.1-.35.53-.61.6.02.1.12.18.18.22-.04.06-.18.29-.26.29-.02-.04-.04-.09-.1-.09-.07.04-.1.04-.14.09.05 0 .11.09.18.12 0 .05-.09 0-.12 0a.39.39 0 0 0-.09.18l.15.25c.08-.09.23-.18.34-.12v.06c.12-.12-.04-.25.12-.4.08.05.13.05.2 0 .03-.01.03-.03.05-.05-.02-.01-.13-.13-.06-.13.04-.06.14-.06.2-.04.16.06.26.23.38.35a2 2 0 0 0 0 .5c.05.14.15.2.1.39.1 0 .11-.09.2-.09-.05.13-.17.35-.3.4-.12.04-.16-.1-.26-.09-.04.04-.14.07-.14.13.22 0 .06.12.06.28l.22-.08c-.03.05-.05.29.04.29Zm.02-.93c-.06-.06-.28-.33-.22-.49.02-.08.1-.06.16-.02 0-.04 0-.1.02-.14-.04-.07-.14-.1-.1-.21-.28-.23-.26.16-.49.14 0 .09.07.15.13.17 0 .18.06.3.14.37v.02c-.1.02-.25.02-.3-.04-.1-.08-.13-.19-.27-.19 0 .13.1.09.1.19-.08-.02-.18-.02-.2.08.08 0 .08.03.1.1.04-.04.06-.08.1-.1-.02.1-.1.12-.1.25.11 0 .15-.1.18-.1-.03.11 0 .18 0 .28a1 1 0 0 1 .29-.18c.02.02.04.04.04.1.1-.04.36-.15.42-.23ZM10.38 9c.12-.02.3-.24.2-.14-.06.02-.32.16-.22-.07-.1 0-.14.23.02.21Zm-.83.6c.02.04.1.04.14.04.03-.03.03-.09.08-.09.06.09.12.17.18.23h.02c.06-.06.1-.14.14-.2-.02-.13-.14-.17-.18-.27-.04-.13.08-.29-.08-.4l-.02.25c-.07-.07-.05-.2-.2-.2.02.05.08.21.08.27-.1 0-.11-.13-.25-.07.11.11.23.3.09.44Zm1.05-1.55a.32.32 0 0 1 .18-.06l-.02-.04c0-.04.04-.06.06-.06.04 0 .06.02.06.06 0 .02 0 .04-.02.04.07 0 .13.02.19.06.14.03.2.09.2.15s-.06.12-.16.14v.06c-.17-.05-.36 0-.53 0v-.06c-.1-.02-.16-.08-.16-.14 0-.06.06-.12.2-.15Z" fill="#C9B500"/></svg>