<!-- by TradingView --><svg width="18" height="18" xmlns="http://www.w3.org/2000/svg"><path fill="#B5333C" d="M0 0h18v18H0z"/><circle cx="9" cy="9" r="5" fill="#fff"/><path d="M13.813 12.066l-.89-1.79h-.002c.444-.443.98-1.091.98-2.185 0-.59-.096-1.054-.28-1.46a5.002 5.002 0 01.192 5.435zm-1.444 1.558v-3.065l1.03 2.107a5.034 5.034 0 01-1.03.958zm-6.61-.755l.039-.012.072-.024v-.006a2.142 2.142 0 001.378-1.674v2.848a5.029 5.029 0 01-1.489-1.132zm-.527-6.043v5.348a5.002 5.002 0 010-5.348zm2.016-1.827v2.648c-.166-.87-.97-1.333-1.5-1.504.421-.47.93-.858 1.5-1.144zM9.49 7.13c-.187-.986-.709-1.741-1.553-2.414a5.018 5.018 0 011.553-.248V7.13zm2.879-1.196c1.171.835 1.366 2.954 0 4.062V5.933zM10.312 4.54c.502.083.98.24 1.42.46v1.343c-.248-.734-.722-1.311-1.42-1.803zm1.42 4.492V14a5.011 5.011 0 01-1.605.487V11.09c.382-.204 1.215-.868 1.605-2.058zm-1.605-3.885c1.69 1.052 1.629 4.064 0 5.249v-5.25zM9.49 8.805v5.728c-.562 0-1.1-.097-1.604-.266v-3.163c.374-.207 1.323-.898 1.604-2.3zm-1.604-3.33c1.465.954 1.59 3.839 0 4.946V5.475zM6.518 9.393l-.002-.004s.583-.352.732-1.075v2.157c-.126-.657-.621-1.005-.73-1.078zm-.648-.207V6.785c1.03.416 1.202 1.79 0 2.4zm0 2.984V9.632c1.162.626 1.058 2.008 0 2.538zM3 3v13h13V3H3z" fill="#B5333C"/></svg>