<!-- by TradingView --><svg width="18" height="18" fill="none" xmlns="http://www.w3.org/2000/svg"><path fill="#F0F3FA" d="M0 0h18v18H0z"/><path fill-rule="evenodd" clip-rule="evenodd" d="M7.575 4.257A.167.167 0 017.715 4h2.723c.132 0 .212.146.14.257l-.486.59a.333.333 0 01-.28.153h-1.47a.333.333 0 01-.28-.153l-.487-.59zm3.486-.25c0 .965-.845 1.44-1.539 1.792-.16.081-.326.164-.495.247-.688.341-1.417.703-1.91 1.081-.612.471-1.046 1.373-.955 2.189.093.841.607 1.363 1.297 1.81.382.249.881.515 1.4.792h.001c.401.214.816.435 1.198.66.638.374 1.03.776 1.117 1.422h.89c0-1.606-1.882-2.5-2.987-2.992-.57-.253-2.174-1.068-1.687-2.587-.023-.136.122-.452.74-.847.397-.252.841-.49 1.289-.727.5-.266 1.003-.534 1.447-.83.737-.488 1.156-1.024 1.209-2.01H11.06zM10.8 8.25c.35.46.421 1.192-.103 1.68l-.126.147 1.06.294.069-.098c.338-.545.508-1.208.308-1.84-.275-.865-1.085-1.464-1.516-1.68-.309.123-.741.393-.89.491.42.238.893.605 1.198 1.006zM7.715 9a.167.167 0 01-.14-.257l.487-.587a.333.333 0 01.28-.153h1.47c.113 0 .218.058.28.153l.486.587a.167.167 0 01-.14.257H7.715zm-.14 4.743a.167.167 0 00.14.257h2.723a.167.167 0 00.14-.257l-.486-.59a.333.333 0 00-.28-.153h-1.47a.333.333 0 00-.28.153l-.487.59zm.13-7.443c-1.307-.675-1.592-1.732-1.592-2.281h1.054c.103.988.984 1.512 1.523 1.756l-.344.185c-.242.13-.488.263-.641.34zm-.18 5.599C6.47 12.427 6.16 13.513 6.137 14H7.18c.185-1.089.861-1.44 1.417-1.727l.07-.036a4.118 4.118 0 01-.524-.284.693.693 0 00-.367-.111.56.56 0 00-.252.056z" fill="url(#paint0_linear_3186)"/><path d="M4.016 4.853c2.128 3.682 6.223 5.355 9.984 6.13v.831C6.912 11.264 3.744 8.5 4.016 4.853z" fill="url(#paint1_linear_3186)"/><defs><linearGradient id="paint0_linear_3186" x1="9.103" y1="4" x2="9.103" y2="14" gradientUnits="userSpaceOnUse"><stop stop-color="#064F98"/><stop offset="1" stop-color="#020407"/></linearGradient><linearGradient id="paint1_linear_3186" x1="3.993" y1="5.282" x2="19.188" y2="10.941" gradientUnits="userSpaceOnUse"><stop stop-color="#05529F"/><stop offset="1" stop-color="#06529E"/></linearGradient></defs></svg>