<!-- by TradingView --><svg width="18" height="18" viewBox="0 0 18 18" xmlns="http://www.w3.org/2000/svg"><path fill="#F0F3FA" d="M0 0h18v18H0z"/><circle cx="9.5" cy="9.5" r="1.5" fill="#49A385"/><path d="M14 5.8c0 .98-.87 1.78-1.95 1.78h-.11c-.4 0-.67-.08-.95-.18-.23-.07-.46-.15-.8-.2a2.66 2.66 0 0 0-2.31.65c-.8.67-.76 1.65-.49 2.43.21.63.95 1.09 1.29 1.24.56.16.98.64.98 1.21 0 .7-.62 1.27-1.38 1.27-.77 0-1.38-.57-1.38-1.27 0-.17.03-.32.1-.47h-.02c.15-.32.36-1.14 0-1.87-.34-.7-1.1-.97-1.47-1.03C4.68 9.34 4 8.72 4 7.95c0-.78.69-1.42 1.54-1.42.45 0 .85.18 1.13.47.9.42 1.31.25 1.9.01l.2-.08c.3-.12.67-.66.81-.88l.69-.99c.3-.62.99-1.06 1.78-1.06C13.13 4 14 4.8 14 5.8Z" fill="#6A8CC4"/></svg>