<!-- by TradingView --><svg xmlns="http://www.w3.org/2000/svg" width="18" height="18" viewBox="0 0 18 18"><path fill="#F0F3FA" d="M0 0h18v18H0z"/><path fill-rule="evenodd" d="M15 9A6 6 0 1 1 3 9a6 6 0 0 1 12 0zm-1 0a5 5 0 0 1-8.64 3.43c.35.02.75 0 1.1-.13a3.02 3.02 0 0 0 1.35-.95c.36.83.98 1.12 1.75 1.12.86 0 1.5-.85 1.7-1.27.25-.48.37-1.12.37-1.62 0-1.4-.83-2.27-1.88-2.27-.32 0-.65.1-.97.3l.26-1.43.08-.4c.04-.24-.12-.66-.42-.66H7.15c-.08 0-.15.06-.17.16a4.7 4.7 0 0 0-.09.55c0 .12.08.17.18.17h1.12l-.63 3.68c-.13.68-.62 1.52-1.43 1.82-.7.18-1.2-.01-1.58-.23A5 5 0 1 1 14 9zm-4.58 2.6c.25 0 .51-.11.72-.32.83-.84.8-2.28.24-2.84a.87.87 0 0 0-.62-.28c-.27 0-.53.12-.75.34-.76.76-.81 2.22-.22 2.81.18.18.38.29.63.29z"/></svg>