<!-- by TradingView --><svg xmlns="http://www.w3.org/2000/svg" width="18" height="18" viewBox="0 0 18 18"><path fill="url(#aq2x1f1nr)" d="M0 0h18v18H0z"/><path fill-rule="evenodd" d="M3 5.4c0-.22.18-.4.4-.4h1.39a1.62 1.62 0 0 1 .94 2.9A1.75 1.75 0 0 1 4.66 11H3.4a.4.4 0 0 1-.4-.4V5.4ZM4 6h.68c.4 0 .72.28.72.69 0 .4-.32.73-.72.73H4V6Zm0 2.37h.68c.43 0 .79.36.79.81 0 .45-.36.82-.8.82H4V8.37Z" fill="#fff"/><path fill="#00DE00" d="M3 12h12v1H3z"/><path d="M7.32 5.5c0-.27.23-.5.5-.5h2.35a.5.5 0 1 1 0 1H9.5V10h.67a.5.5 0 1 1 0 1H7.82a.5.5 0 1 1 0-1h.68V6h-.68a.5.5 0 0 1-.5-.5Z" fill="#fff"/><rect x="12.83" y="7.67" width="2.17" height="1" rx=".5" fill="#fff"/><path d="M11.4 6.8a1.8 1.8 0 1 1 3.6 0V7h-1v-.27a.8.8 0 0 0-1.6 0v2.53a.8.8 0 1 0 1.6 0V7.83l1 .25V9.2a1.8 1.8 0 0 1-3.6 0V6.8Z" fill="#fff"/><defs><linearGradient id="aq2x1f1nr" x1="3.35" y1="3.12" x2="21.9" y2="24.43" gradientUnits="userSpaceOnUse"><stop stop-color="#1A1E21"/><stop offset="1" stop-color="#06060A"/></linearGradient></defs></svg>