<!-- by TradingView --><svg width="18" height="18" viewBox="0 0 18 18" xmlns="http://www.w3.org/2000/svg"><path fill="#F0F3FA" d="M0 0h18v18H0z"/><path d="M9 12.53a3.53 3.53 0 1 0 0-7.06 3.53 3.53 0 0 0 0 7.06Zm0-.26a3.27 3.27 0 1 0 0-6.54 3.27 3.27 0 0 0 0 6.54Z" fill="#020305"/><path fill-rule="evenodd" d="M15 9A6 6 0 1 1 3 9a6 6 0 0 1 12 0Zm-.35 0a5.65 5.65 0 1 1-11.3 0 5.65 5.65 0 0 1 11.3 0ZM9 12.35a3.35 3.35 0 1 0 0-6.7 3.35 3.35 0 0 0 0 6.7Z" fill="#020305"/><path d="M9 15A6 6 0 0 0 9 3v.35a5.65 5.65 0 0 1 0 11.3V15Zm0-2.65a3.35 3.35 0 1 0 0-6.7v6.7ZM9 5.47a3.53 3.53 0 1 0 0 7.06v-.18a3.35 3.35 0 0 1 0-6.7v-.18Z" fill="#296B47"/><path fill-rule="evenodd" d="m11.28 6.7-2.3-.96-2.3.96L5.71 9l.95 2.3 2.3.96 2.3-.96h.02v-.03L12.23 9l-.94-2.27v-.02l-.01-.01ZM12 9l-.7 1.71V7.3L12 9Zm-1 .18V11H9.18l.25-.4.72.39.02-.82.82-.02-.4-.72.41-.25Zm0-.36V7H9.18l.25.4.72-.39.02.82.82.02-.4.72.41.25ZM9 6.71h1.75l-1.77-.74-1.78.74H9ZM8.82 7l-.25.4-.72-.39-.02.82-.82.02.4.72-.41.25V7h1.82ZM7 9.18l.4.25-.39.72.82.02.02.82.72-.4.25.41H7V9.18Zm2 2.11H7.2l1.78.74 1.77-.74H9ZM6.7 9V7.17L5.96 9l.76 1.83V9Z" fill="#F7CE42"/><path opacity=".5" d="m6.33 5.9-.75-.96a6.57 6.57 0 0 1 3.45-1.18 5.4 5.4 0 0 1 3.06.97l-.4 1.23a3.7 3.7 0 0 0-2.66-1.02c-1.43 0-2.4.64-2.7.95ZM6.14 12.17l-.5.69c.52.4 1.94 1.2 3.4 1.2 1.45 0 2.8-.8 3.28-1.2l-.53-.7c-.26.37-1.17 1.1-2.75 1.1s-2.6-.73-2.9-1.1Z"/></svg>