<!-- by TradingView --><svg width="18" height="18" xmlns="http://www.w3.org/2000/svg"><path fill="#F0F3FA" d="M0 0h18v18H0z"/><path d="M8.937 11.085c.952-.358 1.883-.846 2.696-1.492a8.722 8.722 0 01-2.044-1.127 23.848 23.848 0 01-.652 2.619z" fill="#E63329"/><path d="M12.012 7.659a4.688 4.688 0 01-.955-1.555A6.577 6.577 0 019.94 5.89c-.063.84-.183 1.713-.35 2.575a7.08 7.08 0 002.42-.807z" fill="#F39121"/><path d="M9.592 8.466a8.528 8.528 0 002.043 1.127 7.606 7.606 0 001.258-1.255 3.501 3.501 0 01-.881-.682 7.027 7.027 0 01-2.42.81z" fill="#EC6624"/><path d="M9.592 8.466a8.9 8.9 0 01-1.318-1.2c-.311.395-.66.77-1.037 1.1a6.6 6.6 0 002.355.1z" fill="#E95028"/><path d="M7.802 13.854a4.994 4.994 0 003.274-.306 8.966 8.966 0 01-1.629-.325 9.815 9.815 0 01-1.645.63zM6.332 11.753c.376.84.867 1.572 1.47 2.1.172-.305.341-.654.505-1.036-.69-.29-1.356-.65-1.975-1.064z" fill="#234295"/><path d="M7.802 13.854a9.696 9.696 0 001.643-.63 10.281 10.281 0 01-1.138-.407 10.24 10.24 0 01-.505 1.037z" fill="#0A66B0"/><path d="M8.937 11.085c.477.597.99 1.132 1.52 1.566a10.096 10.096 0 001.825-1.509c-1.02.265-2.19.232-3.345-.057zM5.625 9.415c.147.816.385 1.618.707 2.341a12.805 12.805 0 002.605-.668 8.481 8.481 0 01-3.312-1.673z" fill="#7C2F88"/><path d="M8.937 11.085a14.734 14.734 0 01-1.702-2.723 6.344 6.344 0 01-1.61 1.05 8.409 8.409 0 003.312 1.673z" fill="#B92A2E"/><path d="M5.445 7.656c.013.578.073 1.173.18 1.76a6.344 6.344 0 001.61-1.05 6.47 6.47 0 01-1.79-.71z" fill="#E32127"/><path d="M9.592 8.466c-.802.11-1.599.07-2.355-.104.467.963 1.05 1.902 1.703 2.723.253-.821.477-1.713.652-2.619z" fill="#D12429"/><path d="M11.633 9.593a7.825 7.825 0 001.577.425c.305-.433.567-.878.78-1.328a3.134 3.134 0 01-1.1-.352 7.3 7.3 0 01-1.257 1.255z" fill="#EF7824"/><path d="M5.625 9.416A6.874 6.874 0 014.16 7.75a4.992 4.992 0 00-.107 1.984c.51.03 1.045-.09 1.572-.32z" fill="#8A2E88"/><path d="M5.625 9.415a11.42 11.42 0 01-.18-1.76 6.373 6.373 0 01-.999-.717 5.001 5.001 0 00-.286.813c.39.63.892 1.187 1.465 1.664z" fill="#C8262B"/><path d="M4.053 9.735c.115.774.412 1.511.863 2.15.447-.014.922-.058 1.416-.129a10.722 10.722 0 01-2.279-2.021z" fill="#0B55A3"/><path d="M5.625 9.415c-.527.23-1.061.35-1.572.32.614.739 1.397 1.432 2.279 2.021a10.31 10.31 0 01-.707-2.34z" fill="#2B3B8F"/><path d="M7.802 13.854c-.603-.527-1.094-1.26-1.47-2.1a12.2 12.2 0 01-1.416.127 4.98 4.98 0 002.373 1.815c.172.065.341.117.513.158z" fill="#0A66B0"/><path d="M9.447 13.224c.54.158 1.086.267 1.629.324a4.69 4.69 0 00.404-.207 6.403 6.403 0 01-1.02-.69c-.325.207-.66.4-1.013.573z" fill="#0B55A3"/><path d="M12.284 11.143a4.367 4.367 0 001.501-.694c.036-.12.068-.237.096-.357a6.832 6.832 0 01-.669-.074 9.89 9.89 0 01-.928 1.124z" fill="#E44025"/><path d="M13.99 8.69c-.213.45-.475.895-.78 1.329.22.035.444.06.668.073.106-.466.142-.938.112-1.402z" fill="#F39121"/><path d="M10.457 12.65c.335.274.676.508 1.02.691a4.972 4.972 0 002.218-2.632c.033-.088.06-.175.087-.262-.439.322-.949.55-1.5.693a9.803 9.803 0 01-1.825 1.51z" fill="#9D2B4F"/><path d="M9.938 5.891c.35.101.718.17 1.116.213a5.878 5.878 0 01-.385-1.817 4.934 4.934 0 00-.692-.19c.024.57.008 1.172-.039 1.794z" fill="#F8AD1C"/><path d="M9.938 5.891c.047-.622.06-1.225.038-1.795a5.296 5.296 0 00-.362-.06c0 .505-.134 1.05-.366 1.599.224.103.453.188.69.256z" fill="#F59C20"/><path d="M5.445 7.656a6.47 6.47 0 001.79.71c-.57-1.18-.966-2.393-1.095-3.465a4.94 4.94 0 00-.442.346c-.19.718-.275 1.547-.253 2.409z" fill="#E95028"/><path d="M8.271 7.266C7.554 6.46 7 5.542 6.673 4.576c-.183.096-.36.205-.532.322.128 1.075.523 2.286 1.094 3.464.376-.33.725-.7 1.036-1.096z" fill="#ED7025"/><path d="M9.248 5.637c-.657-.294-1.263-.733-1.904-1.353-.23.082-.456.18-.671.292.327.966.88 1.885 1.601 2.687.404-.515.74-1.072.974-1.626z" fill="#F39121"/><path d="M11.054 6.104c.224.583.546 1.121.955 1.555a8.359 8.359 0 001.416-.982 5.22 5.22 0 00-.33-.543c-.775.038-1.44.035-2.04-.03z" fill="#F08225"/><path d="M12.893 8.34c.287-.362.54-.755.753-1.183a5.088 5.088 0 00-.22-.48c-.457.392-.931.72-1.417.982.26.273.554.505.884.682z" fill="#F39121"/><path d="M13.99 8.69a5.005 5.005 0 00-.344-1.536c-.216.428-.47.824-.753 1.184.33.18.696.303 1.097.352z" fill="#EC6624"/><path d="M9.592 8.466c.166-.86.286-1.732.349-2.575a5.095 5.095 0 01-.69-.254 7.208 7.208 0 01-.977 1.626 8.64 8.64 0 001.318 1.203z" fill="#F08225"/><path d="M8.937 11.085a17.788 17.788 0 01-.63 1.732c.374.156.753.292 1.137.407.352-.172.69-.366 1.013-.573a10.264 10.264 0 01-1.52-1.566z" fill="#234295"/><path d="M8.937 11.085c-.87.327-1.762.543-2.605.668.616.412 1.285.775 1.975 1.064a17.1 17.1 0 00.63-1.732z" fill="#942F88"/><path d="M8.937 11.085c1.151.29 2.322.322 3.345.057.344-.36.652-.736.928-1.124a7.655 7.655 0 01-1.578-.425c-.813.646-1.74 1.135-2.695 1.492z" fill="#D12429"/><path d="M5.699 5.247a4.96 4.96 0 00-1.253 1.691c.311.273.647.513.999.718-.022-.862.063-1.691.254-2.409z" fill="#ED7025"/><path d="M13.095 6.134a4.98 4.98 0 00-2.385-1.83c-.013-.006-.027-.011-.04-.014a6.06 6.06 0 00.384 1.817c.6.063 1.266.065 2.04.027zM9.614 4.039a4.987 4.987 0 00-2.273.245c.644.62 1.25 1.059 1.904 1.353.235-.548.369-1.094.369-1.598z" fill="#FCC112"/></svg>