<!-- by TradingView --><svg width="18" height="18" viewBox="0 0 18 18" xmlns="http://www.w3.org/2000/svg"><path fill="#F0F3FA" d="M0 0h18v18H0z"/><path d="m9.84 5.36.09.03c.43.14.82.34 1.17.6-.19-.06-.37-.13-.55-.21a4.45 4.45 0 0 0-4.66.88h.03A4.61 4.61 0 0 1 12.94 9c-.01-.2-.03-.37-.1-.57-.05-.16-.07-.33-.12-.47-.14-.32-.35-.58-.4-.92.97 1 1.21 2.57.88 3.86a.08.08 0 0 0-.05-.05.04.04 0 0 1-.03-.03c-.03-.31.01-.64-.03-.92-.16-1.18-.74-1.9-1.6-2.68A3.76 3.76 0 0 0 6.9 6.8a4.66 4.66 0 0 0-2.32 2.42c.05-.7.28-1.32.69-1.86a57.38 57.38 0 0 0 .22-.33 4.54 4.54 0 0 0-1.45 3.04l-.02-.01v-.01c-.3-3.19 2.68-5.55 5.82-4.68Z" fill="#FBA71C"/><path d="M11.1 6c.46.28.86.63 1.22 1.04.05.34.26.6.4.92.05.14.07.31.12.47a2.27 2.27 0 0 1 .1.58h-.01L12.92 9A4.61 4.61 0 0 0 5.9 6.67v-.02c-.01 0-.01 0 0 0a4.45 4.45 0 0 1 4.65-.87l.55.22Z" fill="#F67D1F"/><path d="M9.35 6.5c.05.07.11.1.2.1C11 7 12.27 8.11 12.54 9.6c.01.1.04.19.07.28.14 1-.13 2.13-.78 2.96-.1.12-.19.25-.27.37-.33.29-.7.54-1.07.76-.05.02-.05.04 0 .03h.03a.65.65 0 0 1-.25.13c-.03 0-.04 0-.03-.03v-.07l.34-.2.31-.18a.11.11 0 0 0 .04-.04.22.22 0 0 1 .05-.06 3.75 3.75 0 0 0 1.56-2.94c.12-1-.36-2.12-1.07-2.83a3.89 3.89 0 0 0-3.6-1.13c-.14.03-.32.02-.43.05-.58.18-.85.33-1.25.6-1.16.78-1.59 1.95-1.67 3.27 0 .36.1.68.19 1.02.03.12.09.24.16.34a3.48 3.48 0 0 0 2 2.09c.1 0 .15.05.15.14A3.97 3.97 0 0 1 4.5 9.72a.2.2 0 0 0-.03-.17A4.66 4.66 0 0 1 6.9 6.8c.8-.28 1.61-.38 2.45-.28Z" fill="#957D1E"/><path d="M11.5 7.22c.85.78 1.43 1.5 1.6 2.68.03.28 0 .61.02.92 0 .02.01.03.03.03l.05.05c-.22.65-.49 1.27-.8 1.88-.12.15-.26.28-.43.38.16-.2.3-.43.42-.67.02-.05.08-.14.19-.26a3.9 3.9 0 0 0-.05-3.69.42.42 0 0 0-.2-.2c-.41-.96-1.59-1.54-2.58-1.76-.05-.01-.11 0-.2.01-.09.01-.15-.02-.2-.08.1-.01.19-.01.28 0 .67.11 1.3.35 1.86.71Z" fill="#C67C0C"/><path d="M7.36 6.98c-.07.06-.16.12-.28.18-.75.36-1.3.91-1.69 1.65 0 .02-.01.02-.02 0l.01-.07a4 4 0 0 1 1.69-1.7L7.09 7l-.04-.02c.14-.1.3-.19.46-.24.02 0 .03 0 .03.02v.03l-.01.02-.3.13c-.05.01-.05.03 0 .03l.13.01Z" fill="#FBA71C"/><path d="M12.49 10.63a3.64 3.64 0 0 1-2.25 3.19.14.14 0 0 1-.12.04c-.02 0-.04 0-.05.02l-.05.05a4.43 4.43 0 0 1-3.19-.32c-.02-.01-.02 0-.02.01v.03a1.3 1.3 0 0 1-.54-.39.1.1 0 0 0-.05-.03c-.16-.06-.28-.31-.4-.49-.1-.13-.28-.27-.36-.5a.96.96 0 0 0-.1-.15c-.52-.75-.53-2.01-.23-2.86.06-.15.11-.3.14-.47 0-.02.01-.03.03-.05.15-.12.15-.28.26-.42.22-.28.47-.54.66-.83.26-.2.54-.35.84-.48.01 0 .02 0 .03.02 0 .02 0 .04-.02.05a4 4 0 0 0-1.69 1.7c-.01.02-.02.04-.01.06 0 .02.01.02.03 0 .37-.74.93-1.29 1.68-1.65.12-.06.2-.12.28-.18 1.64-.43 3.2-.12 4.3 1.15.6.7.87 1.54.83 2.5Zm-7.27-.78a.64.64 0 0 0-.13.34 3.2 3.2 0 0 0 .86 2.47c.27.37.6.66 1 .89a3.68 3.68 0 0 0 5.15-1.7c.39-.84.42-1.7.09-2.55-.06-.14-.08-.32-.15-.44a3.72 3.72 0 0 0-6.63.1c-.13.25-.2.55-.2.89Z" fill="#E64819"/><path d="m6.19 7.32-.02.1c0 .02 0 .03.03.03h.02c-.2.3-.44.56-.66.84-.1.14-.1.3-.26.42a.08.08 0 0 0-.03.05c-.03.17-.08.32-.14.47-.02-.05-.06-.06-.1-.04a11.42 11.42 0 0 0-.34 1.52l-.03-.01a.05.05 0 0 1-.03-.04c0-.06-.04-.09-.11-.08.08-1.32.5-2.5 1.67-3.26Z" fill="#F67D1F"/><path d="M12.39 12.49c-.25.29-.52.53-.83.73.08-.12.17-.25.27-.37.65-.83.92-1.97.78-2.96a3.44 3.44 0 0 0-.29-1.55c.08.03.15.1.21.2a3.9 3.9 0 0 1 .05 3.7c-.11.11-.17.2-.2.25Z" fill="#FBA71C"/><path d="M9.83 15h-.4l-.45-.06c-.37-.05-.73-.17-1.1-.24a.35.35 0 0 0-.25-.18l-.6-.35c-.01-.09-.06-.14-.15-.14l-.3-.31a7.75 7.75 0 0 1-1.79-2.38c-.01-.02-.02-.02-.03 0-.03.18.1.39.11.6-.07-.1-.13-.22-.16-.34-.1-.34-.2-.66-.2-1.02.08-.01.12.02.12.08 0 .02.01.03.03.04h.05a11.42 11.42 0 0 1 .31-1.51c.05-.02.09 0 .1.04-.3.85-.28 2.1.24 2.86.06.08.1.13.1.16.08.22.25.36.35.5.13.17.25.42.41.48a.1.1 0 0 1 .05.03c.14.18.33.3.54.4.31.19.7.33 1.19.42.57.11 1.05.16 1.41.15a2.1 2.1 0 0 1-1.24.05l-.04.01c-.1.1-.24.04-.35.03-.03 0-.04 0-.04.03v.03a4.85 4.85 0 0 0 3.79-.81c.08-.05.14-.11.18-.2l.26-.2c.17-.1.31-.24.43-.4a4.14 4.14 0 0 0 1.1-3.71c1.26 2.8-.58 5.67-3.67 5.94Z" fill="#F25A2B"/><path d="M12.19 9.3c.33.86.3 1.7-.09 2.55l-.09-.07h-.05c-.15.22-.28.42-.47.6-.64.57-1.41.92-2.3 1.02-.02 0-.04 0-.05-.02-.02-.02-.03-.04-.02-.08 1-.25 1.8-.78 2.4-1.58.2.05.36 0 .46-.15.13-.18.08-.4-.12-.51a4.5 4.5 0 0 0 .33-1.76ZM4.47 9.55c.03.05.05.1.03.17a3.97 3.97 0 0 0 1.52 3.91c.4.38.86.66 1.38.86.07.03.16.03.23.03.11.03.2.09.25.18h-.22c-2.49-.44-3.98-2.79-3.19-5.15Z" fill="#FBA71C"/><path d="M5.22 9.85a3.67 3.67 0 0 0 2.93 3.45c-.05.1-.13.12-.24.09-.35-.11-.74-.16-1.07-.31a7.8 7.8 0 0 1-.83-.42h-.06a3.2 3.2 0 0 1-.86-2.47c0-.12.05-.24.13-.34ZM12.54 10.62a3.75 3.75 0 0 1-1.56 2.94.22.22 0 0 0-.05.06.11.11 0 0 1-.04.04l-.3.18-.04-.02a.06.06 0 0 0-.06 0c-.15.06-.3.1-.47.11l.05-.05a.06.06 0 0 1 .05-.02c.05 0 .09 0 .12-.04a3.64 3.64 0 0 0 2.25-3.18l.05-.02Z" fill="#FBA71C"/><path d="M12.1 11.85a3.68 3.68 0 0 1-5.14 1.7c-.4-.23-.74-.52-1.01-.89H6a7.76 7.76 0 0 0 .83.42c.33.15.72.2 1.07.3.11.04.2.02.24-.08.32.07.65.07.97 0 0 .04 0 .06.02.08.01.02.03.02.05.02.89-.1 1.66-.45 2.3-1.03.2-.17.32-.37.47-.58.01-.02.03-.02.05-.01l.1.07Z" fill="#F67D1F"/><path d="m11.51 13.52.02.04a4.85 4.85 0 0 1-3.79.82v-.03c0-.02.01-.03.04-.03.1.01.26.07.35-.03a.05.05 0 0 1 .04-.01c.4.08.88.12 1.24-.05.28-.03.56-.1.82-.2.02.03.02.06.01.08 0 .03 0 .04.03.03.1-.02.18-.07.25-.13.35-.12.68-.29 1-.5Z" fill="#A5441B"/><path d="M11.02 5.3H11l-.01-.02c.06-.37.21-.7.41-1.01.14-.22.3-.42.51-.58.03.05 0 .08-.03.1-.06.07-.1.14-.15.22-.1.12-.16.28-.26.4-.14.2-.21.42-.3.64.07 0 .1-.04.14-.06l.5-.3 2.04-1.2a.16.16 0 0 0 .08-.1.16.16 0 0 1 .09-.07.13.13 0 0 1 .07-.02l.07.06c.03.07-.02.1-.07.13a5500.06 5500.06 0 0 1-2.94 1.73l-.13.08Z" fill="#BABCBF"/><path d="m14.1 3.31-.07.03a1.3 1.3 0 0 1-.2-.03 2.6 2.6 0 0 0-1.3.07l-.31.14c-.05.03-.09.06-.14.03.26-.25.58-.43.94-.5.35-.07.72-.07 1.07.02h.1c.05 0 .09.03.13.04.03 0 .05 0 .05.04s-.04.03-.06.04a.02.02 0 0 0-.02 0c-.01.02-.02.05-.05.04-.03 0-.04 0-.05.03a.1.1 0 0 1-.1.05Z" fill="#739E3D"/><path d="M12.08 3.55c.17-.07.32-.17.5-.22.21-.07.44-.1.67-.1a3.86 3.86 0 0 1 .78.1l-.08.07a.06.06 0 0 1-.05.02 3.4 3.4 0 0 0-.57-.07 2 2 0 0 0-1.5.6c-.03.02-.06.07-.12.05.04-.12.15-.2.2-.3l.17-.15Z" fill="#55772C"/><path d="M11.7 4c.13-.06.2-.18.31-.26.3-.23.66-.37 1.04-.41.28-.04.55.02.82.06l.03.03c0 .05-.05.06-.08.08l-1.67 1-.32.19-.45.27c-.06.03-.1.05-.12-.04.04-.18.1-.36.2-.52.1-.12.13-.29.25-.4Z" fill="#739E3D"/></svg>