<!-- by TradingView --><svg width="18" height="18" viewBox="0 0 18 18" xmlns="http://www.w3.org/2000/svg"><path fill="#F0F3FA" d="M0 0h18v18H0z"/><path d="M6.72 7.59v-.7H5.9C4.57 6.88 3.4 8.32 3 9a4.66 4.66 0 0 0 3.35 1.76c1.5 0 2.24-.43 2.44-.76l-.41-.6c-.2.27-.87.66-2.03.66-1.16 0-2.2-.66-2.47-1.06A4.7 4.7 0 0 1 5.9 7.59h.82Z" fill="url(#a)"/><path d="m7.97 9-.73.6V5.8C7.24 4.36 8.38 3.33 9 3c1.49.96 1.76 2.27 1.76 2.8v1c0 .8-.73 1.8-1.14 2.2.83.48 1.14 1.8 1.14 2.4v.8c0 1.44-1.2 2.47-1.76 2.8-.83-.6-1.76-1.6-1.76-2.4v-1.2l.7-.4v1.6c.2.6.65 1.38 1.06 1.52a2.8 2.8 0 0 0 1.06-1.92v-.8c0-1.28-1-2.13-1.47-2.4l.62-.8c.62-.8.85-1.4.85-1.6v-.8c0-.8-.72-1.54-1.06-1.74-.83.48-1.03 1.67-1.03 2.14V9Z" fill="url(#b)"/><path d="M12.1 7.59h-1.03l.41-.7h.62c1.33 0 2.49 1.44 2.9 2.11-.83 1.6-2.2 2.12-2.82 2.12-.5 0-1.04-.29-1.11-.36l-.13-.7c.33.16 1.03.35 1.24.35.82 0 1.6-1.01 1.94-1.41-.83-.96-1.67-1.41-2.02-1.41Z" fill="url(#c)"/><defs><linearGradient id="a" x1="9.83" y1="4.4" x2="6.9" y2="11.67" gradientUnits="userSpaceOnUse"><stop stop-color="#3C6CCE"/><stop offset="1" stop-color="#35568C"/></linearGradient><linearGradient id="b" x1="9.83" y1="4.4" x2="6.9" y2="11.67" gradientUnits="userSpaceOnUse"><stop stop-color="#3C6CCE"/><stop offset="1" stop-color="#35568C"/></linearGradient><linearGradient id="c" x1="9.83" y1="4.4" x2="6.9" y2="11.67" gradientUnits="userSpaceOnUse"><stop stop-color="#3C6CCE"/><stop offset="1" stop-color="#35568C"/></linearGradient></defs></svg>