<!-- by TradingView --><svg width="18" height="18" viewBox="0 0 18 18" xmlns="http://www.w3.org/2000/svg"><path fill="#F0F3FA" d="M0 0h18v18H0z"/><path d="M11.42 4.4a4.86 4.86 0 0 0-3.77.51 4.8 4.8 0 0 0-1.9 6.43 4.62 4.62 0 0 0 6.42 1.54A5.06 5.06 0 0 0 14 11.03a4.87 4.87 0 0 1-8.74.47 5.05 5.05 0 0 1 1.8-6.83c1.38-.81 3-.86 4.36-.28Z" fill="#D2B04C"/><path d="M9.71 6.67c.74.03 1.4.35 1.87.83a1.96 1.96 0 0 0-.92-.22c-.98 0-1.77.7-1.77 1.55 0 .86.8 1.55 1.77 1.55.68 0 1.27-.33 1.57-.81a2.49 2.49 0 0 1-1.1 1.64l.53 3.79-1.91-3.34h-.17c-.96 0-1.81-.47-2.28-1.18l-4.3.48 3.9-1.78v-.01c0-.93.54-1.74 1.35-2.17l-.6-4L9.7 6.67Z" fill="#01438D"/></svg>