<!-- by TradingView --><svg width="18" height="18" viewBox="0 0 18 18" xmlns="http://www.w3.org/2000/svg"><path fill="#F0F3FA" d="M0 0h18v18H0z"/><path d="M10 3.52c.18 0 .33-.12.33-.26S10.18 3 10 3c-.18 0-.33.12-.33.26s.15.26.33.26ZM9 5.35c.37 0 .67-.24.67-.52 0-.3-.3-.53-.67-.53-.37 0-.67.24-.67.53 0 .28.3.52.67.52ZM7.33 7.43h3.34c0 .15.15.27.33.27.18 0 .33-.12.33-.27 0-.14-.15-.26-.33-.26-.11 0-.2.04-.27.1H7.3a.5.5 0 0 0-.12-.17.73.73 0 0 0-.4-.18.83.83 0 0 0-.46.07.57.57 0 0 0-.28.28.42.42 0 0 0 0 .36c.06.11.17.2.31.26.14.06.3.08.46.06.15-.03.29-.1.38-.2l-.52-.32h.66Zm2.7 2.98a.5.5 0 0 1 .13-.18c.1-.1.24-.16.4-.18.15-.02.31 0 .45.07.14.06.24.16.29.28.05.11.05.24-.01.36a.59.59 0 0 1-.3.26.83.83 0 0 1-.46.06.7.7 0 0 1-.39-.2l.53-.31h-4c0 .14-.15.26-.33.26-.19 0-.34-.12-.34-.26 0-.15.15-.27.34-.27.1 0 .2.05.26.1h3.43Zm-.7 2.76c0 .3-.3.53-.66.53-.37 0-.67-.24-.67-.53 0-.28.3-.52.67-.52.36 0 .66.24.66.52ZM8 14.74c0 .14-.15.26-.33.26-.19 0-.34-.12-.34-.26s.15-.26.34-.26c.18 0 .33.12.33.26Zm-.67-8.87H10v-.16H7.97a.5.5 0 0 0-.13-.18.73.73 0 0 0-.4-.18.83.83 0 0 0-.45.07.57.57 0 0 0-.29.28.42.42 0 0 0 .01.36c.06.12.17.21.3.27.14.06.3.08.46.05.15-.03.3-.1.39-.2l-.53-.31Zm2.16 5.92a.5.5 0 0 0-.13.18H7.33v.16H10l-.53.32c.1.1.24.17.4.2.15.02.3 0 .45-.06a.59.59 0 0 0 .3-.27.42.42 0 0 0 .01-.36.57.57 0 0 0-.29-.28.83.83 0 0 0-.45-.06.73.73 0 0 0-.4.17ZM6.67 9.52c.33 0 .6-.2.66-.44h3.34c.05.25.33.44.66.44.37 0 .67-.23.67-.52 0-.29-.3-.52-.67-.52-.33 0-.6.2-.66.44H7.33c-.05-.25-.33-.44-.66-.44C6.3 8.48 6 8.7 6 9c0 .29.3.52.67.52Z" fill="url(#az3r34cz4)"/><defs><linearGradient id="az3r34cz4" x1="5.79" y1="7.74" x2="11.69" y2="8.88" gradientUnits="userSpaceOnUse"><stop stop-color="#12966D"/><stop offset="1" stop-color="#73F06D"/></linearGradient></defs></svg>