<!-- by TradingView --><svg xmlns="http://www.w3.org/2000/svg" width="18" height="18"><path fill="#F0F3FA" d="M0 0h18v18H0z"/><ellipse cx="9" cy="9" rx="7" ry="4" fill="#0072B1"/><path fill-rule="evenodd" d="M11.63 8.2a.4.4 0 01-.4.4H10v-.8h1.22a.4.4 0 01.41.4zm.59.97c.18.2.5.63.5 1.04V11h-1.05c.02-.42-.03-1.32-.38-1.4H10V11H9V6.99h2.48c.69 0 1.24.55 1.24 1.2 0 .4-.2.76-.5.98zM6 7.8h1.07c.22 0 .4.18.4.4a.4.4 0 01-.4.4H6v-.8zm-1-.1V7h2.24c.67 0 1.22.54 1.22 1.2 0 .26-.09.5-.23.69.26.22.43.55.43.9 0 .67-.55 1.21-1.22 1.21H5V7.7zm1 2.5h1.29a.4.4 0 00.4-.4.4.4 0 00-.4-.4H6v.8z"/></svg>