<!-- by TradingView --><svg width="18" height="18" viewBox="0 0 18 18" xmlns="http://www.w3.org/2000/svg"><path fill="#F0F3FA" d="M0 0h18v18H0z"/><path d="M4 9.92a5.05 5.05 0 0 1 4.2-5.08c.83 2.2.05 4.4-.68 5.62a2.7 2.7 0 0 0-.27 2.3c.63 1.88 2.55 2.18 3.43 2.09-.41.13-1.07.16-1.35.15-4.16-.46-5.29-3.58-5.33-5.08Z" fill="#81162B"/><path d="M8.55 3c-.47 0-.9.07-1.06.1.77.8 1.32 1.58 1.48 3.32.15 1.73-1.12 3.4-.96 4.7.17 1.29 1.37 2.05 1.95 2.03.58-.03 1.07-.56 1.06-1.03-.01-.47-.1-.57-.56-1-.46-.44-1.48-.76-1.5-1.85 0-.87.84-1.43 1.26-1.6-.63 1.23.5 1.86 1.42 2.69.74.66.7 1.4.58 1.68A5.2 5.2 0 0 0 14 8.18C13.67 3.38 9.13 3 8.55 3Z" fill="#B5985A"/></svg>