<!-- by TradingView --><svg xmlns="http://www.w3.org/2000/svg" width="18" height="18" viewBox="0 0 18 18"><path fill="#F0F3FA" d="M0 0h18v18H0z"/><path d="M8.17 3.88l-3.92 2.2-.02.01a.04.04 0 0 0 .02.07l1.49.64a.05.05 0 0 0 .05-.02l2.44-2.84a.04.04 0 0 0 0-.05l-.03-.02h-.03zM4 6.4v4.52l.01.03a.05.05 0 0 0 .06.01l.02-.02L5.6 7.08v-.04a.05.05 0 0 0-.02-.02l-1.53-.65a.05.05 0 0 0-.04 0 .05.05 0 0 0-.02.04z" fill="#BED630"/><path d="M5.8 7.37l-1.73 4.35a.05.05 0 0 0 .02.05l.02.01 4.55.55a.05.05 0 0 0 .04-.02.05.05 0 0 0 0-.05l-2.82-4.9-.02-.02a.05.05 0 0 0-.05 0l-.02.03z" fill="#97CA60"/><path d="M13.74 6.07L9.78 3.85a.05.05 0 0 0-.06 0 .04.04 0 0 0 0 .07l2.37 2.86a.05.05 0 0 0 .05.01l1.6-.64.02-.01a.04.04 0 0 0 0-.06l-.02-.01zM8.86 14.45v-1.8l-.01-.03-.03-.02-4.08-.48-.03.01-.02.02v.03l.02.03 4.08 2.28a.05.05 0 0 0 .07-.01v-.03z" fill="#69C086"/><path d="M11.72 6.92l-2.69-3.4a.05.05 0 0 0-.06 0l-2.8 3.4a.05.05 0 0 0 0 .07L6.2 7h5.49a.05.05 0 0 0 .04-.03.05.05 0 0 0 0-.05z" fill="#97CA60"/><path d="M9.33 12.33l4.55-.54h.02l.02-.02v-.02-.02L12.1 7.37l-.02-.01a.05.05 0 0 0-.07.01L9.3 12.25a.04.04 0 0 0 0 .06l.02.02h.02z" fill="#03B8A5"/><path d="M6.08 7.33l2.88 4.9.01.02a.05.05 0 0 0 .07-.01l2.76-4.91a.04.04 0 0 0 0-.05l-.02-.01-.02-.01H6.1l-.02.02a.04.04 0 0 0 0 .05z" fill="#69C086"/><path d="M14 10.98V6.4v-.02a.04.04 0 0 0-.04-.02h-.02l-1.65.67a.05.05 0 0 0-.03.02v.04L13.91 11l.02.02h.04s.02 0 .02-.02v-.03zM9.2 14.5l4.09-2.3s.02 0 .02-.02v-.03a.04.04 0 0 0-.02-.02h-.03l-4.08.48-.03.01-.02.03v1.8l.01.03.02.01a.05.05 0 0 0 .05 0z" fill="#00B0C3"/></svg>