<!-- by TradingView --><svg width="18" height="18" xmlns="http://www.w3.org/2000/svg"><path fill="#EA1D25" d="M0 0h18v18H0z"/><path d="M11.191 7.602a2.35 2.35 0 00-.296-1.036L9.342 3.7A2.545 2.545 0 019.092 3l-.07.12a2.396 2.396 0 000 2.29l1.256 2.289c.388.699.388 1.59 0 2.289l-.068.12a2.542 2.542 0 00-.251-.698L8.817 7.313l-.73-1.35a2.545 2.545 0 01-.252-.698l-.068.12a2.396 2.396 0 000 2.29l1.256 2.289c.388.699.388 1.59 0 2.289l-.069.12a2.545 2.545 0 00-.251-.698L7.128 8.807a2.658 2.658 0 01-.297-1.253C5.164 8.012 4 9 4 10.133 4 11.723 6.237 13 9 13c2.762 0 5-1.277 5-2.867.023-1.085-1.119-2.073-2.809-2.53z" fill="#fff"/></svg>