<!-- by TradingView --><svg width="18" height="18" viewBox="0 0 18 18" xmlns="http://www.w3.org/2000/svg"><path fill="#F0F3FA" d="M0 0h18v18H0z"/><path d="M9 2c.5 1.08 1.25 2.47 3.41 4.2 2.4 1.94 1.77 4.36.2 5.2 1.13-.91 1.42-2.86-.54-4.44A9.82 9.82 0 0 1 9 3.17a9.82 9.82 0 0 1-3.07 3.8c-1.96 1.57-1.67 3.52-.54 4.42-1.57-.83-2.2-3.25.2-5.18A10.91 10.91 0 0 0 9 2Zm.08 11.61.02.1a2.5 2.5 0 0 1 .04.75l-.02.14c0 .06-.01.1-.03.16l-.07.29v.03l-.04-.13-.05-.2-.03-.14-.02-.16a2.71 2.71 0 0 1 .06-.84l.02-.03v-.04l.02-.06.02-.05.01-.04.01.04.02.05.02.06.02.07Zm-3.5-3.58a.55.55 0 0 1-.12-.02h-.02l-.04-.02a.6.6 0 0 1-.25-.18.8.8 0 0 1-.16-.4 1.27 1.27 0 0 1 .1-.67l.1-.2c.09-.13.2-.24.33-.34.11-.07.23-.15.4-.22l.23-.11.06-.03a6.36 6.36 0 0 0 1.44-.9 1.2 1.2 0 0 0 .23-.3l.02-.03v-.02l.02-.05a.5.5 0 0 0 .02-.15v-.04l-.02-.05-.02-.05a.78.78 0 0 0-.03-.06l-.02-.05-.03-.03-.02-.02-.02-.02-.02-.01A.24.24 0 0 0 7.64 6h-.06l-.04.02a.36.36 0 0 0-.25.35c0 .04.02.08.04.12l.03.03.02.02.02.02.02.01.04.03c.02.01.03.04.02.06l-.04.03-.02-.01-.04-.02-.01-.01h-.02v-.02h-.02l-.01-.02-.02-.01a.16.16 0 0 1-.03-.04l-.01-.01a.36.36 0 0 1-.06-.17.48.48 0 0 1 .3-.48.3.3 0 0 1 .07-.01h.01l.02-.01h.05a.33.33 0 0 1 .17.06l.02.01.03.03.03.03.04.04.03.06.02.02a.68.68 0 0 1 .05.12l.01.07.01.05a.58.58 0 0 1-.04.26v.03l-.01.02-.04.07c-.05.1-.12.2-.23.3A6.38 6.38 0 0 1 6.3 8l-.03.02-.08.04-.2.09c-.15.07-.26.14-.36.21a1.1 1.1 0 0 0-.44.65c-.04.13-.05.27-.04.38a.6.6 0 0 0 .12.32c.07.08.16.14.26.17h.07a.5.5 0 0 0 .2-.04c.09-.04.17-.1.22-.17.06-.07.1-.15.1-.22 0-.1-.04-.17-.07-.2a.34.34 0 0 0-.14-.13.2.2 0 0 0-.14 0 .26.26 0 0 0-.1.06.45.45 0 0 0-.03.03l-.01.01-.01.01-.02.02-.02.03-.02.05-.04.02H5.5a.05.05 0 0 1-.01-.07l.02-.05.02-.03.02-.03.01-.02.01-.01A.4.4 0 0 1 5.73 9a.3.3 0 0 1 .2 0c.08.02.14.08.2.15.04.05.1.15.1.28 0 .1-.05.22-.12.3a.76.76 0 0 1-.26.22.58.58 0 0 1-.27.07Zm6.57-.06c.1.04.19.06.27.06h.09l.03-.02h.02l.04-.02a.64.64 0 0 0 .24-.18c.1-.1.15-.24.17-.4a1.27 1.27 0 0 0-.1-.67 1.34 1.34 0 0 0-.44-.53c-.1-.08-.23-.15-.39-.23-.08-.05-.17-.08-.26-.12l-.03-.02a6.32 6.32 0 0 1-1.44-.89 1.22 1.22 0 0 1-.23-.31l-.01-.02-.01-.03a.43.43 0 0 1-.03-.2v-.03l.01-.06h-.04.05v-.04l.03-.05V6.2l.03-.05.03-.04.03-.02.02-.02h.01l.01-.01a.24.24 0 0 1 .1-.04h.08l.02.01a.37.37 0 0 1 .25.35c0 .04-.01.08-.04.12v.01h-.01c0 .02-.01.02-.02.03l-.01.02.02.03-.04-.02-.01.01-.01.01-.05.03c-.02 0-.02.03-.01.06l.03.02h.02l.05-.03.02-.02.02-.01.02-.02h.01a.38.38 0 0 0 .04-.05v-.01c.04-.05.06-.11.07-.17a.48.48 0 0 0-.37-.49H10.34a.33.33 0 0 0-.17.06h-.01a.25.25 0 0 0-.04.04l-.03.03-.04.04-.03.06-.02.03-.02.05-.02.04v.02l-.01.04v.02l-.01.01v.05a.55.55 0 0 0 .03.26l.01.03v.02H10l.03.07c.05.1.13.2.23.3a6.23 6.23 0 0 0 .98.7c.17.1.34.17.5.25h.01l.09.04.19.09c.15.07.27.14.37.21.11.09.21.18.28.28.07.1.12.23.16.37.03.13.04.26.03.38a.61.61 0 0 1-.12.32.47.47 0 0 1-.25.17h-.08a.5.5 0 0 1-.2-.04.62.62 0 0 1-.22-.17.4.4 0 0 1-.1-.22c0-.1.04-.17.07-.2.04-.07.09-.11.14-.13a.2.2 0 0 1 .08-.02l.06.01c.04.01.07.03.1.07.02 0 .02.01.03.02l.01.01.01.02.02.02.02.03.02.04.04.02h.02a.05.05 0 0 0 .02-.06l-.03-.05-.02-.04v-.01l-.02-.01-.01-.02-.01-.02a.32.32 0 0 0-.03-.03.36.36 0 0 0-.14-.09.3.3 0 0 0-.2 0 .44.44 0 0 0-.2.16.44.44 0 0 0-.1.28c0 .1.05.2.12.3.07.1.16.17.26.22Zm-1.1.94s-.47.6-.2 1.36c.29.76 1.32 1.2 1.67.35.24-.58-.4-1-.7-.68-.27.29-.1.46-.1.46-.06-.07.09-.33.22-.39.5-.21.65.87-.07.74-.46-.08-1.33-1.05-.81-1.84Zm-4 1.36c.27-.76-.2-1.36-.2-1.36.5.79-.36 1.76-.82 1.84-.71.13-.56-.95-.07-.74.13.06.28.32.22.39 0 0 .17-.17-.1-.46-.3-.31-.94.1-.7.68.35.84 1.38.41 1.67-.35ZM9 4.03c-.04.53-.35.72-.54.78l-.16.03.17.03c.19.06.49.2.52.72l.01.12.01-.1c.04-.53.33-.68.52-.74l.17-.03-.16-.03c-.2-.06-.5-.25-.54-.78v-.1.1Zm.9 8.03a6.8 6.8 0 0 1-.05.08c.31.84.8 1.46 1.29 1.78l-.03.01c-.41.15-.84.42-1.24.8C9.5 15.13 9 16 9 16a3.8 3.8 0 0 0-2.15-2.08c.5-.32.98-.94 1.3-1.78a3.1 3.1 0 0 1-.05-.09L8.06 12a13.23 13.23 0 0 0-.27-.49l.2.2a2.72 2.72 0 0 1 .2.22l.02.02.12-.43-.3-.15c.3-.2.62-.67.7-1.3-1.38 1.03-2.95-.85-1.28-2.2A4.96 4.96 0 0 0 9 5.97c.23.49.56 1.12 1.54 1.9 1.67 1.35.1 3.23-1.28 2.2.09.64.4 1.1.7 1.3l-.3.15a5.52 5.52 0 0 0 .14.41l.02-.02a3.6 3.6 0 0 1 .39-.4 6.32 6.32 0 0 0-.27.48V12l-.05.07Zm-.11 2.58c.35-.34.73-.59 1.1-.72l.04-.01a3.23 3.23 0 0 1-1.16-1.6l-.05.09-.04.06a4.64 4.64 0 0 0-.18.44.74.74 0 0 0-.02.41l.01.04a.28.28 0 0 1 .02.03l.01.01.01.01a.42.42 0 0 0 .23.13h.11l.09-.03.03-.02c0-.02.01-.02.02-.03l.02-.03v-.01l.01-.02v.03l-.01.04-.01.02v.02l-.02.02-.01.02a.25.25 0 0 1-.09.07.43.43 0 0 1-.3.03.46.46 0 0 1-.18-.1H9.4l-.03-.04a1.2 1.2 0 0 1-.04-.05l-.03-.05-.02-.04v-.02a.7.7 0 0 1-.05-.25c0-.1.02-.18.04-.27.05-.17.13-.33.22-.48l.19-.27a4.74 4.74 0 0 1-.12-.48l-.17.15c-.18.17-.4.57-.4.57a1.7 1.7 0 0 0-.57-.72c-.03.16-.07.33-.12.48l.19.27c.09.15.17.31.22.48.02.09.04.18.04.26a.74.74 0 0 1-.05.28l-.02.04-.01.02-.02.03a1.14 1.14 0 0 1-.08.1.47.47 0 0 1-.18.09c-.06.01-.11.02-.16.01a.36.36 0 0 1-.14-.04.27.27 0 0 1-.09-.08.43.43 0 0 1-.02-.04.31.31 0 0 1-.03-.07v-.03.02h.01l.02.04.02.02.02.02h.01c.02.02.05.03.09.04h.1c.04 0 .09-.02.13-.04a.32.32 0 0 0 .1-.09h.01l.02-.03v-.01l.01-.02a.49.49 0 0 0 .03-.07.72.72 0 0 0-.03-.38 1.87 1.87 0 0 0-.18-.43 7.33 7.33 0 0 0-.09-.16 3.23 3.23 0 0 1-1.16 1.6l.04.02a3.4 3.4 0 0 1 1.9 1.86s.43-.8.78-1.14Z"/></svg>