<!-- by TradingView --><svg width="18" height="18" viewBox="0 0 18 18" xmlns="http://www.w3.org/2000/svg"><path fill="#322C2C" d="M0 0h18v18H0z"/><path d="M8 9h.58c1.43 0 2.42.27 2.42 1.89 0 1.26-.59 2.15-2.08 2.15-.26.01-.67 0-.92-.05v-4Zm0-3.94a8 8 0 0 1 1.01-.1c1.02 0 1.73.18 1.73 1.3 0 1.4-.91 1.74-2.16 1.74H8V5.06ZM6 6v6.57c0 .67.02.75-.54 1.08V14h3.65c2.28.06 3.89-1.46 3.89-3.23 0-1.67-1.02-2.32-2.81-2.4v-.02c1.29-.44 2.49-.93 2.49-2.4 0-1.63-1.37-1.97-2.66-1.95H5v.53c.83 0 1.05.54 1 1.46Z" fill="#fff"/></svg>