<!-- by TradingView --><svg xmlns="http://www.w3.org/2000/svg" width="18" height="18" viewBox="0 0 18 18"><path fill="#F0F3FA" d="M0 0h18v18H0z"/><ellipse cx="5.51" cy="4.34" rx=".46" ry=".3" fill="#EDBA2B"/><ellipse rx=".57" ry=".32" transform="matrix(.8499 .52694 -.48571 .87412 11.2 4.37)" fill="#E99236"/><ellipse rx=".58" ry=".36" transform="matrix(.60668 .79495 -.76136 .64833 13.6 6.9)" fill="#F3903D"/><ellipse cx="6.89" cy="4.8" rx=".48" ry=".31" fill="#F8923C"/><ellipse rx=".48" ry=".31" transform="matrix(.96861 .24857 -.22414 .97456 9.79 4.23)" fill="#F78638"/><ellipse rx=".72" ry=".5" transform="matrix(.95354 -.30126 .27244 .96217 5.11 5.66)" fill="#E8AA2F"/><ellipse rx=".78" ry=".7" transform="matrix(.84126 -.54063 .4991 .86655 4.72 9.47)" fill="#E39D3B"/><ellipse rx=".64" ry=".45" transform="matrix(.95354 -.30126 .27244 .96217 5.28 7.28)" fill="#EB853A"/><ellipse rx=".64" ry=".6" transform="matrix(.95354 -.30126 .27244 .96217 6.5 10.78)" fill="#F19250"/><ellipse rx=".64" ry=".6" transform="matrix(.9878 .15572 -.1399 .99017 5.78 12.53)" fill="#F1AA39"/><ellipse cx="9.89" cy="12.58" rx=".51" ry=".57" fill="#D28743"/><ellipse cx="10.62" cy="14.13" rx=".45" ry=".57" fill="#F0A32F"/><ellipse cx="12.03" cy="12.85" rx=".55" ry=".71" fill="#EC9F2B"/><ellipse rx=".37" ry=".56" transform="matrix(.99126 -.1319 .11841 .99296 12.7 11.23)" fill="#F37930"/><ellipse rx=".34" ry=".52" transform="matrix(.99126 -.1319 .11841 .99296 13.98 12)" fill="#EEB11A"/><ellipse rx=".45" ry=".7" transform="matrix(.99126 -.1319 .11841 .99296 14.08 10.26)" fill="#F2A638"/><ellipse rx=".79" ry=".77" transform="matrix(.9878 .15572 -.1399 .99017 7.94 12.89)" fill="#F1AE2E"/><ellipse rx=".57" ry=".4" transform="matrix(.89993 -.43603 .3983 .91725 3.67 7.9)" fill="#F8A430"/><ellipse rx=".64" ry=".45" transform="matrix(.9656 .26002 -.2346 .9721 7.88 3.88)" fill="#E6942B"/><ellipse rx=".4" ry=".26" transform="matrix(.98279 .18474 -.16612 .9861 9.06 3.4)" fill="#F4A335"/><ellipse rx=".47" ry=".26" transform="matrix(.6916 .72228 -.68335 .7301 12.41 5.75)" fill="#D38731"/><ellipse rx=".48" ry=".25" transform="matrix(.41098 .91164 -.89335 .44937 13.65 8.47)" fill="#F6882F"/><ellipse rx=".4" ry=".21" transform="matrix(.41098 .91164 -.89335 .44937 14.46 8.27)" fill="#FAA12E"/><ellipse rx=".41" ry=".23" transform="matrix(.6916 .72228 -.68335 .7301 12.57 4.97)" fill="#E5A442"/></svg>