<!-- by TradingView --><svg width="18" height="18" viewBox="0 0 18 18" xmlns="http://www.w3.org/2000/svg"><path fill="#F0F3FA" d="M0 0h18v18H0z"/><path fill-rule="evenodd" d="M13.73 11.84c.17-.42.26-.88.26-1.34L14 7.52A3.5 3.5 0 0 0 10.5 4L7.52 4A3.5 3.5 0 0 0 4 7.5L4 10.48A3.5 3.5 0 0 0 7.5 14l2.98.01a3.5 3.5 0 0 0 3.25-2.16Zm-.4-5.74a3.2 3.2 0 0 0-2.72-1.75c-.68 0-1.3 0-1.85-.02-.12 0-.12.03-.02.08 1 .5 1.95 1.25 2.77 2.08.83.82 1.59 1.76 2.08 2.77.05.1.08.1.08-.02l-.02-1.85c0-.44-.1-.87-.32-1.3Zm-8.5 2.56a12.6 12.6 0 0 1 1.72-2.1A12.55 12.55 0 0 1 8.66 4.8c-.23-.12-.5-.25-.85-.39a.98.98 0 0 0-.5-.08 3.2 3.2 0 0 0-2.01.95 3.2 3.2 0 0 0-.96 2.01c-.02.16 0 .33.08.51a12.53 12.53 0 0 0 .4.85h.02ZM9 5h.03A12.64 12.64 0 0 1 13 9v.03A12.65 12.65 0 0 1 9 13h-.03A12.64 12.64 0 0 1 5 9v-.03A12.64 12.64 0 0 1 9 5Zm-2.26 6.75a39.94 39.94 0 0 1-.5-.5c-.73-.75-1.34-1.6-1.83-2.52-.05-.1-.08-.09-.08.02.01.54.02 1.2.01 1.95 0 .18.05.42.14.71a3.12 3.12 0 0 0 2.1 2.1c.3.1.53.14.72.14.75 0 1.4 0 1.95.02.1 0 .11-.03.02-.08-.93-.49-1.77-1.1-2.53-1.84Zm5.97.97c-.49.48-1.08.79-1.78.91-.26.05-.45.06-.71-.04a11.14 11.14 0 0 1-.88-.42c.73-.46 1.43-1.03 2.12-1.72a12.2 12.2 0 0 0 1.73-2.11c.15.29.28.58.4.88.1.27.09.46.04.71-.12.7-.43 1.3-.92 1.79Z" fill="#030308"/></svg>