<!-- by TradingView --><svg width="18" height="18" viewBox="0 0 18 18" xmlns="http://www.w3.org/2000/svg"><path fill="#F0F3FA" d="M0 0h18v18H0z"/><path d="M12 9.27v.31a1.73 1.73 0 0 0-.92-.32c-.15 0-.3.04-.4.13-.12.08-.17.17-.17.28 0 .08.03.17.09.25.07.08.25.22.54.4.3.2.5.36.59.5.1.14.14.28.14.42 0 .21-.1.4-.27.54a1 1 0 0 1-.65.22c-.34 0-.66-.13-.95-.38l.09-.3c.25.28.54.42.87.42.18 0 .32-.05.44-.14a.4.4 0 0 0 .17-.32.48.48 0 0 0-.1-.28c-.07-.1-.25-.24-.54-.44a2.2 2.2 0 0 1-.56-.47.65.65 0 0 1-.13-.37c0-.2.09-.37.26-.51s.38-.21.64-.21c.3 0 .58.09.86.27ZM3 9.6c0 1.37.57 2.17.83 2.4a5.32 5.32 0 0 1-.41-2c0-2.65 2.64-4.44 5-4.44 2.35 0 3.63 1.14 4.58 1.89A5.68 5.68 0 0 0 8.41 5C4.71 5 3 7.88 3 9.6ZM13.43 8l1.03.74.9-.74-.31 1.15.95.66-1.15.04-.3 1.15-.4-1.12-1.15.05.9-.74L13.43 8Z" fill="#1805FF"/><path fill-rule="evenodd" d="M7 7H6v5h1v-.6c.2.39.6.6 1.02.6.98 0 1.43-.94 1.43-1.79 0-.83-.44-1.54-1.4-1.54-.42 0-.86.2-1.05.53V7Zm.73 4.17c.47 0 .86-.38.86-.84a.85.85 0 0 0-.86-.83.85.85 0 0 0-.87.83c0 .46.39.84.87.84Z" fill="#1805FF"/></svg>