<!-- by TradingView --><svg xmlns="http://www.w3.org/2000/svg" width="18" height="18"><path fill="url(#amejuj4lj)" d="M0 0h18v18H0z"/><path d="M11.87 8.39a4.29 4.29 0 00-1.7-1.8c-.06-.03-.17-.1-.17-.15V4c1.23.05 2 .86 2 2h2v2h-2v.83a1.72 1.72 0 00-.13-.44zm-1.03-.88a3.7 3.7 0 011.1 2.67c0 .88.71 1.58 1.62 1.76l.3.05.14.03V14l-.4-.07a7.3 7.3 0 01-.8-.16A4.21 4.21 0 0110 10a2 2 0 00-3.71-1.03l-.1-.04V6.86c0-.08.18-.2.27-.23a4.1 4.1 0 014.38.88zM6 10V5.75C5.99 4.8 5.04 4.03 4 4v5.9c0 .4.02.8.13 1.18.6 1.93 2.2 2.98 4.3 2.82a3.72 3.72 0 002.26-1.01l-.95-1.86-.01.01-.08.1a1.5 1.5 0 01-.2.23A2 2 0 016 10.04V10z" fill="#fff"/><defs><linearGradient id="amejuj4lj" x1="0" y1="9" x2="18" y2="9" gradientUnits="userSpaceOnUse"><stop stop-color="#0290C6"/><stop offset="1" stop-color="#283B91"/></linearGradient></defs></svg>