<!-- by TradingView --><svg xmlns="http://www.w3.org/2000/svg" width="18" height="18" viewBox="0 0 18 18"><path fill="red" d="M0 0h18v18H0z"/><path fill-rule="evenodd" d="M7 6.27v-.54c-.01-.35.2-1.08 1.3-1.25.37-.03 1.25-.1 1.89-.08l.58-1.27c.03-.06.15-.16.39-.12.24.04.23.22.2.3L11 4.49h.04c.56.17 1.23.35 1.2 1.32v1.18c0 .1-.16.28-.39.28a.39.39 0 0 1-.38-.28V5.91c.03-.31-.23-.85-1.83-.86-2 0-1.93.54-1.92.58v.67c-.01.08-.1.2-.34.22-.24.01-.38-.15-.38-.25zm4.64 1.21c.07-.06.29-.1.45.06.2.21.85 1.25.25 1.44-.07.03-.3.07-.38-.28-.07-.36-.3-.67-.46-.8-.05-.06-.07-.3.14-.42zm-6.05 5.64c.2.12.38.12.45.06.2-.11.21-.35.16-.4-.34-.17-.58-.5-.64-.85-.07-.36-.33-.33-.4-.3-.6.2-.07 1.2.43 1.5zm-1.12-2.05c.34.48.8.41 1 .32l5.4-3.48c.66-.4.4-.91 0-1.23-.38-.31-2.53-1.03-4.53.59-2.03 1.63-2.3 3.2-1.87 3.8zm.55-.55c.22.29.44.23.56.17l4.5-2.98c.41-.25.32-.6 0-.74a4.2 4.2 0 0 0-3.37.87c-1.27.98-1.95 2.33-1.69 2.68zm1.63 2.23c1.15-.8 3.82-2.6 5.3-3.34.23-.1.73-.24.93.12.25.45.1.8-.41 1.2l-.96.67c.12 0 .23.05.3.2.04.21.08.82-.06 1.6-.13.78-1.02.8-1.55.8H8.76c-.12 0-.35-.13-.35-.34 0-.09.07-.3.39-.32h1.5c.29.02.78-.02.83-.65l.05-1.07-3.29 2.12c-.33.2-1.06.46-1.34 0a.8.8 0 0 1 .1-.99zm.5.58c-.03-.05-.05-.16.08-.27a76.4 76.4 0 0 1 4.57-3.13c.07-.02.22-.07.29 0 .07.07-.05.19-.11.24-1.01.77-3.33 2.5-4.56 3.16-.05.03-.18.08-.27 0z" fill="#fff"/></svg>