<!-- by TradingView --><svg width="18" height="18" viewBox="0 0 18 18" xmlns="http://www.w3.org/2000/svg"><path fill="#F0F3FA" d="M0 0h18v18H0z"/><path d="M8.8 4.2s.3-.16.59-.19a3.37 3.37 0 0 1 2.22.67s.62 2.45.65 2.52c.02.06-.03 1.9 0 2.07.02.18-.32 1.14-.35 1.48-.02.33-1.02 1.4-1.3 1.67-.3.29-4.03 1.23-6.21-.15l1.57-4.61L7.75 4.9l1.06-.7Z" fill="#fff"/><path d="M9.31 8.37a1.37 1.37 0 0 1-.85-.64.07.07 0 0 1 0-.08.07.07 0 0 1 .07-.03h.37a2.15 2.15 0 0 1-.88-1.73 2.06 2.06 0 0 1 1.06-1.72c.1-.06.2-.12.31-.16-.74.04-1.45.34-2 .82-.55.5-.9 1.15-1.02 1.86h-.22a3.2 3.2 0 0 0-2.23.89 3 3 0 0 0 .8 4.87c.04-.52.28-1 .67-1.35.4-.35.92-.53 1.45-.52l1.24.03c.31 0 .6-.11.83-.31.23-.2.37-.48.4-.77l.11-1.02c0-.03 0-.07-.02-.1a.17.17 0 0 0-.09-.04Zm3.55-1.46a3.22 3.22 0 0 0-1.67-2.5 2 2 0 0 0-1.9.11c-.24.15-.45.35-.6.59-.15.24-.23.51-.25.8 0 .28.07.57.21.82v-.06a1.36 1.36 0 0 1 .88-1.27c.17-.07.36-.1.54-.1h.17l-.17.4a1 1 0 0 0-.7.29.94.94 0 0 0 0 1.33 1 1 0 0 0 .67.3h1.25a.2.2 0 0 1 .17.12c.02.03.02.07.01.1 0 .04-.03.07-.05.1l-.46.39a.64.64 0 0 0-.2.62c.09.41.23 1.07.28 1.37.14.72-.01 1.47-.43 2.1a3.15 3.15 0 0 0 3.5-.59 2.92 2.92 0 0 0-1.25-4.93v.01Z" fill="url(#ayedkofgl)"/><defs><linearGradient id="ayedkofgl" x1="5.64" y1="6.33" x2="15.49" y2="15.95" gradientUnits="userSpaceOnUse"><stop stop-color="#36CEAA"/><stop offset=".98" stop-color="#5FF570"/></linearGradient></defs></svg>