<!-- by TradingView --><svg xmlns="http://www.w3.org/2000/svg" width="18" height="18"><path d="M0 9a9 9 0 1118 0A9 9 0 010 9z" fill="#F0F3FA"/><path d="M12.83 12.21a5 5 0 10-7.66 0 10.6 10.6 0 017.66 0z" fill="#088B3D"/><path d="M9.55 7.44h1.32v3.6c0 .08.08.15.16.15h.63c.08 0 .15-.07.15-.16v-3.6h.94c.17 0 .31-.13.31-.3v-.79a.16.16 0 00-.15-.15H8.86c-.05 0-.1.02-.13.06l-1 1.35-.87-1.34a.16.16 0 00-.13-.07H5.09a.16.16 0 00-.15.15v.16c0 .17.14.31.31.31h1.41L7.43 8l-.28.38h.6l1.22-1.66a.16.16 0 01.12-.06h3.41c.05 0 .1.04.1.09v.13a.1.1 0 01-.1.09h-1v3.81a.1.1 0 01-.1.1h-.12a.1.1 0 01-.1-.1V6.97H9.32l-2.66 3.6H6.1L7.27 9h-.6l-1.26 1.69c-.16.2-.01.5.25.5h1.8l-.3-.54 2.39-3.21z" fill="#F0F3FA"/><path d="M9.03 10.56l-.56-.94H9l.8 1.33c.06.1-.02.24-.14.24H7.91l.3-.63h.82z" fill="#F0F3FA"/><path opacity=".7" d="M9 14a4.98 4.98 0 01-3.35-1.29l-.13-.12a9.98 9.98 0 016.96 0A5 5 0 019 14z" fill="#F18200"/></svg>