<!-- by TradingView --><svg width="18" height="18" viewBox="0 0 18 18" xmlns="http://www.w3.org/2000/svg"><path fill="#17192C" d="M0 0h18v18H0z"/><path d="M5.67 12.33a4.72 4.72 0 0 1-1-5.17c-.2 1.4.42 3.1 1.74 4.43a5.97 5.97 0 0 0 3.23 1.73 4.29 4.29 0 0 0 1.2.01 4.7 4.7 0 0 1-5.17-1ZM5.09 6.5c-.05 1.16.75 2.8 2.17 4.23a8.19 8.19 0 0 0 2.95 1.96c.42.15.8.22 1.15.22h.1a3.4 3.4 0 0 1-1.78.15 5.73 5.73 0 0 1-3.1-1.66C5.09 9.9 4.54 7.9 5.1 6.5Zm5.64.75C9.31 5.84 7.67 5.04 6.52 5.09c.35-.14.75-.21 1.16-.21 1.22 0 2.6.6 3.72 1.71.9.9 1.49 2 1.66 3.09.1.66.05 1.28-.16 1.8.05-1.15-.75-2.8-2.17-4.22Zm-5.3-1.33.24-.26.26-.23c.2-.1.44-.16.7-.16 1.09 0 2.62.79 3.96 2.13 1.67 1.68 2.48 3.65 1.97 4.66l-.23.26-.26.23c-.43.22-1.05.2-1.79-.05a7.94 7.94 0 0 1-2.88-1.92C5.73 8.9 4.92 6.94 5.44 5.93Zm6.9-.26a4.72 4.72 0 0 1 1 5.17c.2-1.4-.42-3.1-1.74-4.42-1.33-1.33-3.04-1.95-4.43-1.75a4.73 4.73 0 0 1 5.17 1Zm.2-.2a5 5 0 1 0-7.07 7.08 5 5 0 0 0 7.08-7.09Z" fill="url(#at3z1mtno)"/><defs><linearGradient id="at3z1mtno" x1="5.53" y1="5.53" x2="12.57" y2="13.03" gradientUnits="userSpaceOnUse"><stop stop-color="#01EDF7"/><stop offset="1" stop-color="#009CFF"/></linearGradient></defs></svg>