<!-- by TradingView --><svg xmlns="http://www.w3.org/2000/svg" width="18" height="18"><path fill="#F0F3FA" d="M0 0h18v18H0z"/><path d="M14 5.73V4.51c-4.26-.25-6.3 3.36-6.3 3.36C5.83 11.15 6.19 14 6.19 14h1.28c0-3.94 1.55-5.78 1.55-5.78C10.75 5.58 14 5.73 14 5.73zm0 1.98v-1.3a4.65 4.65 0 00-4.52 2.54C8.2 11.29 8.38 14 8.38 14H9.6c.03-1.44.31-2.87.83-4.23C11.77 7.34 14 7.71 14 7.71z" fill="#00599B"/><path d="M4 5.73V4.51c4.24-.25 6.28 3.36 6.28 3.36C12.15 11.15 11.8 14 11.8 14h-1.26c0-3.94-1.55-5.78-1.55-5.78C7.25 5.58 4 5.73 4 5.73zm0 1.98v-1.3c3.09-.2 4.38 2.25 4.53 2.51v.03C9.84 11.29 9.65 14 9.65 14H8.4a12.7 12.7 0 00-.83-4.23C6.23 7.34 4 7.71 4 7.71z" fill="#ED1D24"/></svg>