<!-- by TradingView --><svg width="18" height="18" viewBox="0 0 18 18" xmlns="http://www.w3.org/2000/svg"><path fill="#F0F3FA" d="M0 0h18v18H0z"/><path d="M10.34 10.24c-.34-1.34-.57-1.67-1-1.81-.42-.14-.99 0-1.41.28-.27.17-1.14.97-1.99 1.25-.85.28-1.7 1.12-1.13 2.23.57 1.11 2.12.7 2.83.84.71.13 1.42.97 2.13.97.7 0 1.42-.56 1.42-1.53 0-.98-.43-.56-.85-2.23Z" fill="#0083CB"/><ellipse cx="5.25" cy="7.28" rx="1.25" ry="1.72" fill="#0083CB"/><ellipse cx="8.06" cy="5.72" rx="1.25" ry="1.72" fill="#0083CB"/><path d="M12.52 7.35c-.43.81-1.3 1.23-1.95.93-.65-.3-.83-1.2-.4-2 .43-.82 1.3-1.23 1.95-.93.65.3.83 1.2.4 2ZM13.77 10.48c-.43.8-1.3 1.22-1.95.92-.65-.3-.83-1.2-.4-2 .43-.81 1.3-1.23 1.95-.93.65.3.83 1.2.4 2Z" fill="#0083CB"/></svg>