<!-- by TradingView --><svg xmlns="http://www.w3.org/2000/svg" width="18" height="18" viewBox="0 0 18 18"><path fill="#F0F3FA" d="M0 0h18v18H0z"/><path d="M15 6.51c0 .09-.07.16-.15.16h-1.19v1.18c0 .08-.07.15-.15.15h-1.03a.15.15 0 0 1-.15-.15V6.67h-1.2a.12.12 0 0 1-.13-.13V5.45c0-.06.05-.12.12-.12h1.2v-1.2c0-.08.06-.13.13-.13h1.09c.07 0 .12.05.12.12v1.21h1.22c.07 0 .12.06.12.12v1.06z" fill="#00D4F4"/><path d="M10.16 9.76a2 2 0 0 1 1.34 1.97c0 1.36-.97 2.27-2.36 2.27H5.6c-.4 0-.6-.2-.6-.63V6.63c0-.44.2-.63.6-.63h3.17c1.36 0 2.32.87 2.32 2.1 0 .71-.3 1.34-.93 1.66zM10 8.19C10 7.45 9.44 7 8.6 7H6v2.5h2.6c.83 0 1.4-.56 1.4-1.31zM8.87 13c.95 0 1.59-.44 1.59-1.27 0-.84-.65-1.23-1.59-1.23H6V13h2.87z"/></svg>