<!-- by TradingView --><svg width="18" height="18" viewBox="0 0 18 18" xmlns="http://www.w3.org/2000/svg"><path fill="url(#a)" d="M0 0h18v18H0z"/><path d="M9 9c2.15 0 5.37-1.12 5.08-3.87 0-.03.01-.06.04-.1.05-.03.1-.04.14-.01l.07.1a4.93 4.93 0 0 1-.04 5.03 5.67 5.67 0 0 1-2.34 2.15A6.37 6.37 0 0 1 9 13a6.62 6.62 0 0 1-2.95-.7A5.67 5.67 0 0 1 3.2 9a4.93 4.93 0 0 1 .54-3.99c.05-.02.1-.01.14.03a.1.1 0 0 1 .04.1C3.62 7.87 6.85 9 9 9Z" fill="#fff"/><defs><linearGradient id="a" x1="9" y1="0" x2="9" y2="18" gradientUnits="userSpaceOnUse"><stop stop-color="#0079FF"/><stop offset="1" stop-color="#0059FF"/></linearGradient></defs></svg>