<!-- by TradingView --><svg width="18" height="18" xmlns="http://www.w3.org/2000/svg"><path fill="#2C546B" d="M0 0h18v18H0z"/><path d="M7.656 14c-.517-.322-.771-.87-.778-1.448l-.031-4.904c0-.135.109-.245.243-.245s.243.11.243.245l.031 4.9c.007.904 1.005 1.43 2.212 1.452 1.782-.047 3.424-.886 3.424-2.862 0-.883-.502-2.718-2.43-2.931V8.18c1.156-.4 1.928-1.178 1.887-2.156C12.395 4.486 11.117 4 9.738 4H4.41c-.285-.007-.326.184-.388.414-.078.146.062.186.296.24.652.093.666.82.682 1.346h3.044c.01-.245.084-.455.361-.729.277-.274.84-.274 1.17-.274.671.034 1.15.333 1.15 1.32 0 .883-.723 1.685-1.814 1.685h-.105c-.156.002-.216.07-.219.205v.299c.003.16.072.22.208.22h.09c1.329 0 2.127 1.422 2.115 2.412-.011.99-.458 1.862-1.546 1.862-.687 0-1.41-.04-1.41-.938l-.03-4.715c.061 0 .218-.14.218-.31 0-.165-.117-.31-.219-.31h-3.01c-.162 0-.379.068-.37.31.008.24.204.31.37.31l.03 5.124c0 .682.529 1.107 1.191 1.266-.379-.308-.513-.652-.51-1.169l-.034-4.92c0-.135.11-.245.243-.245.134 0 .243.11.243.245l.032 4.92c-.005.89.678 1.31 1.458 1.432z" fill="#fff"/></svg>