<!-- by TradingView --><svg width="18" height="18" xmlns="http://www.w3.org/2000/svg"><path fill="#8BC400" d="M0 0h18v18H0z"/><path d="M8.337 3c-.623 0-1.013.172-1.334.3l.018 1.32c.06-.126.42-.62 1.334-.62 1.149 0 1.647.827 1.647 1.394 0 .453-.312.775-.472.906.397.063 1.485.489 1.47 1.472-.018 1.228-1.538 1.54-2.33 1.54A3.161 3.161 0 017.336 9H7.02v6h.98l3.335-3H9.8L8 13.5v-2.989c2.723 0 4-1.2 4-2.74 0-1.54-.575-1.69-.871-1.905.327-1.575-.8-2.42-1.405-2.646-.26-.073-.572-.22-1.387-.22z" fill="#fff"/></svg>