<!-- by TradingView --><svg width="18" height="18" viewBox="0 0 18 18" xmlns="http://www.w3.org/2000/svg"><path fill="#F0F3FA" d="M0 0h18v18H0z"/><path d="M10.6 5.2a1.07 1.07 0 0 0-1.05-.68c-.66 0-1.48.34-2.1 1.2.2 0 .62.02 1.13.14.3-.7.58-.98.97-1 .72-.03.75.17 1.05.35Z" fill="url(#abq4u0hfu)"/><path d="M8.06 8.2a5.16 5.16 0 0 0-1.34-.02c-.13 3.08.82 5.68 3.88 5.82.8-.06 2.4-.66 2.4-2.59 0-1.93-.4-2.64-.6-2.75a5 5 0 0 1 0 2.75c-.45 1.21-1.35 1.21-1.8 1.21-.45 0-2.52-.17-2.54-4.43Z" fill="url(#bbq4u0hfu)"/><path d="M10.75 7.28C9.37 5.95 7.69 6.07 7.29 6.07 6.69 6.07 4 6.42 4 9.6c0 2.12 2.19 3.07 3.29 3-.9-.35-2.54-1.4-2.4-3 .15-1.57 1.51-1.82 2.4-1.82 1.21 0 2.04.22 2.77.83.32-.44.54-.9.69-1.34Z" fill="url(#cbq4u0hfu)"/><path d="M11.5 10.32c.25-.37.46-.76.63-1.15.47 1.03.27 2.59-.78 3.1.62-.54.58-1.26.15-1.95Z" fill="url(#dbq4u0hfu)"/><path d="M7.45 5.38C7.8 4.92 8.77 4 9.85 4c1.35 0 2.55 1.03 2.55 2.93 0 1.52-1 3.9-3 4.83-.3-.33-.6-.8-.82-1.47.54-.3.97-.64 1.57-1.46 1.5-2.07 1.05-4.49-.3-4.49-1.08 0-2.05.7-2.4 1.04Z" fill="url(#ebq4u0hfu)"/><path d="m6.76 10.88-.36.02c-.6 0-1.1-.58-1.2-.87.14 1.17 1.2 2.17 2.1 2.25-.25-.43-.42-.91-.54-1.4Z" fill="url(#fbq4u0hfu)"/><defs><linearGradient id="abq4u0hfu" x1="7" y1="6.41" x2="13.59" y2="11.7" gradientUnits="userSpaceOnUse"><stop stop-color="#BF6C1C"/><stop offset=".68" stop-color="#D79D77"/></linearGradient><linearGradient id="bbq4u0hfu" x1="7" y1="6.41" x2="13.59" y2="11.7" gradientUnits="userSpaceOnUse"><stop stop-color="#BF6C1C"/><stop offset=".68" stop-color="#D79D77"/><stop offset="1" stop-color="#BD5E1E"/></linearGradient><linearGradient id="cbq4u0hfu" x1="4.3" y1="10.32" x2="12.07" y2="9.94" gradientUnits="userSpaceOnUse"><stop stop-color="#951F59"/><stop offset=".46" stop-color="#B88CA3"/><stop offset="1" stop-color="#87084D"/></linearGradient><linearGradient id="dbq4u0hfu" x1="4.3" y1="10.32" x2="12.07" y2="9.94" gradientUnits="userSpaceOnUse"><stop offset=".46" stop-color="#B88CA3"/><stop offset="1" stop-color="#87084D"/></linearGradient><linearGradient id="ebq4u0hfu" x1="11.2" y1="4.69" x2="5.7" y2="11.02" gradientUnits="userSpaceOnUse"><stop stop-color="#58227A"/><stop offset=".47" stop-color="#A790BA"/><stop offset="1" stop-color="#56297B"/></linearGradient><linearGradient id="fbq4u0hfu" x1="11.2" y1="4.69" x2="5.7" y2="11.02" gradientUnits="userSpaceOnUse"><stop offset=".47" stop-color="#A790BA"/><stop offset="1" stop-color="#56297B"/></linearGradient></defs></svg>