<!-- by TradingView --><svg width="18" height="18" viewBox="0 0 18 18" xmlns="http://www.w3.org/2000/svg"><path fill="#F0F3FA" d="M0 0h18v18H0z"/><path d="M14.08 9.46c0-2.8-3.02-3.47-4.53-3.46C6.41 6 4 8.4 4 10.8c0 1.91 1.31 2.26 1.97 2.2.62 0 1.79-.62 3.16-.98.95-.26 2-.3 2.68-.4 1.69-.22 2.27-1.22 2.27-2.16Z" fill="#3CB0DB"/><path d="M9.82 5.3c-2.62-.02-5.48 1.8-5.5 4.47 0 1 .53 1.9 1.66 1.93 1.3.03 2.54-.6 3.84-.61.87 0 1.78.3 2.3.3 1.59 0 2.55-.88 2.56-2.38 0-2.36-2.62-3.68-4.86-3.7ZM4 9.77c.01-2.8 3.04-4.8 5.82-4.77 2.4.02 5.18 1.51 5.18 4 0 1.6-1.13 2.7-2.9 2.7-.66 0-1.43-.32-2.28-.32-1.3.01-2.55.62-3.84.62S4 10.88 4 9.77Z" fill="#71BE4C"/><path d="M4.38 9.11c-.03.22-.06.43-.06.66 0 1 .53 1.9 1.66 1.93a7.6 7.6 0 0 0 1.98-.3c.62-.16 1.23-.3 1.86-.31.5 0 1 .1 1.45.18.33.06.63.12.85.12.28 0 .55-.03.8-.08a3.48 3.48 0 0 1-1.31.34l-.5-.1c-.4-.08-.83-.17-1.29-.17-.65 0-1.28.16-1.92.31-.64.15-1.27.3-1.92.31-1.1 0-1.77-.82-1.94-1.76.06-.38.18-.76.34-1.13Z" fill="#0D9648"/></svg>