<!-- by TradingView --><svg xmlns="http://www.w3.org/2000/svg" width="18" height="18" viewBox="0 0 18 18"><path fill="#F0F3FA" d="M0 0h18v18H0z"/><path fill-rule="evenodd" d="M4 4h10v10h-2.59c.31-.18.59-.43.8-.71h1.08V4.7H4V4Zm.71 10v-.71.71h4.83a2.68 2.68 0 0 0 2.54-3.51c-.16.22-.36.4-.58.56a2.32 2.32 0 0 1-2.32 2.24H4.7V6.7h5c.99 0 1.79.7 1.79 1.69s-.8 1.67-1.79 1.67H5.8v2.5h.71V10.8h3.21c1.38 0 2.5-1 2.5-2.39 0-1.38-1.12-2.4-2.5-2.4H4v8h.71ZM5.8 7.21H9.7a1.07 1.07 0 1 1 0 2.15H5.8V7.2Zm.71.72h2.86a.36.36 0 0 1 0 .71H6.5v-.71Zm3.04 4.64H6.5v-.71h3.21c.54 0 .98-.2 1.06-.45h.01a1.25 1.25 0 0 1-1.24 1.16Z"/></svg>