<!-- by TradingView --><svg xmlns="http://www.w3.org/2000/svg" width="18" height="18" viewBox="0 0 18 18"><path fill="#02ABC8" d="M0 0h18v18H0z"/><path fill-rule="evenodd" d="m4.13 5.4 4.8-1.9a.2.2 0 0 1 .14 0l4.8 1.9c.08.03.13.1.13.19v.9a.2.2 0 0 1-.27.18l-4.66-1.8a.2.2 0 0 0-.14 0l-4.66 1.8A.2.2 0 0 1 4 6.48v-.9a.2.2 0 0 1 .13-.18ZM7.17 7c-.1 0-.17.08-.17.17V13.81c0 .1.08.19.19.19h2.87a1.94 1.94 0 0 0 .7-3.75A1.8 1.8 0 0 0 9.68 7H7.17Zm2.25 1H8v2h1.42a1 1 0 0 0 0-2Zm.45 3H8v2h1.87a1 1 0 1 0 0-2Z" fill="#fff"/></svg>