<!-- by TradingView --><svg width="18" height="18" fill="none" xmlns="http://www.w3.org/2000/svg"><path fill="#F0F3FA" d="M0 0h18v18H0z"/><path fill-rule="evenodd" clip-rule="evenodd" d="M3 7h3.039c.664 0 1.415.238 1.396 1.023-.01.398-.273.77-.809.847.186.029.353.07.483.142 0 .217.106.44.254.554v.024c-.308.086-.576.33-.638.625-.071.342.156.64.465.785H3V7zm1.584.83h.953c.206 0 .372.152.372.352 0 .2-.166.36-.372.36h-.953V7.83zm1.04 1.495h-1.04v.818h1.04c.668 0 .638-.818 0-.818zm2.723-.939L7.89 7h1.603l.588 2.223L10.922 7h1.553l.854 2.223L13.905 7h1.597l-1.213 4h-1.622l-.966-2.481L10.755 11H9.622l-.47-.442c.278-.246.44-.613.52-.992h-.675c-.045.385-.171.57-.229.613l-.483-.487c.291-.126.737-.463.607-.873a.629.629 0 00-.545-.433zm-.39 1.005c-.087-.076-.212-.232-.213-.39-.002-.353.548-.362.523 0-.008.107-.078.258-.31.39zm-.309.493l.725.686c-.276.168-.682.176-.88-.102-.116-.164-.12-.383.155-.584z" fill="url(#paint0_linear_3186)"/><path fill-rule="evenodd" clip-rule="evenodd" d="M4.46 6.475S6.25 3.677 9.846 4.31C6.769 4.07 5.28 6.181 5.087 6.455a2.17 2.17 0 01-.014.02h-.612zm-.279 5.056h.792c.255.43.863 1.184 1.74 1.767 1.824 1.213 4.162 1.083 5.923-.22-1.882 1.852-4.857 1.844-6.878.275-.81-.629-1.34-1.37-1.577-1.822z" fill="url(#paint1_linear_3186)"/><path fill-rule="evenodd" clip-rule="evenodd" d="M13.602 6.83l.123-.361h.434c-.34-.726-1.454-2.157-3.318-2.722-1.822-.554-3.738-.176-5.26 1.13.757-.525 1.58-.869 2.449-.995a5.28 5.28 0 013.678.84c1.244.833 1.845 1.969 1.894 2.107zm-.339 4.724h.65l-.031.038c-.505.61-2.096 2.535-5.232 2.113 1.137.054 3.112-.16 4.613-2.151z" fill="#818285"/><defs><linearGradient id="paint0_linear_3186" x1="5.217" y1="7.226" x2="5.217" y2="11.226" gradientUnits="userSpaceOnUse"><stop stop-color="#005795"/><stop offset="1" stop-color="#002B5E"/></linearGradient><linearGradient id="paint1_linear_3186" x1="11.426" y1="10.625" x2="4.102" y2="10.625" gradientUnits="userSpaceOnUse"><stop stop-color="#002F62"/><stop offset="1" stop-color="#005B9A"/></linearGradient></defs></svg>