<!-- by TradingView --><svg width="18" height="18" viewBox="0 0 18 18" xmlns="http://www.w3.org/2000/svg"><path fill="#F0F3FA" d="M0 0h18v18H0z"/><path d="M3.62 8C2.82 8 2.3 8.66 2 9c.1-.1.42-.3.99-.3.82 0 2.5 1.3 3.5 1.3.65 0 1.28-.67 1.51-1-.16.1-.59.3-.99.3-.93 0-2.5-1.3-3.39-1.3Z" fill="#1A2980"/><path d="M7.62 8C6.82 8 6.3 8.66 6 9c.1-.1.42-.3.99-.3.82 0 2.5 1.3 3.5 1.3.65 0 1.28-.67 1.51-1-.16.1-.59.3-.99.3-.93 0-2.5-1.3-3.39-1.3Z" fill="#006AB0"/><path d="M11.62 8c-.8 0-1.33.66-1.62 1 .1-.1.42-.3.99-.3.82 0 2.5 1.3 3.5 1.3.65 0 1.28-.67 1.51-1-.16.1-.59.3-.99.3-.93 0-2.5-1.3-3.39-1.3Z" fill="#009DD8"/></svg>