<!-- by TradingView --><svg xmlns="http://www.w3.org/2000/svg" width="18" height="18" viewBox="0 0 18 18"><path fill="#005596" d="M0 0h18v18H0z"/><path d="M4.6 6.5c-.82 1.76-1.38 2.52-1.59 2.72v.05c.27.17.64-.2.68-.24.03-.05.12-.09.29-.36.13-.21.62-1.32.85-1.84.06-.13.13-.12.17-.09l.26.21c.15.13.1.32.06.4-.1.26-.16.59-.06.62.07.02.47-.45.66-.68l1.22-1.44c.11-.13.2-.28.33-.4.25-.22.45.05.6.17.54.46 1.04 1.03 1.48 1.54.04.05.5.58 1 1.2.4.49.52.56.53.53.04-.39-.12-.9-.2-1.12a2.03 2.03 0 0 1-.1-.43c0-.12.21-.22.27-.28l.28-.28c.04-.03.03-.02.05.02.4 1.14 1.09 1.8 1.16 1.86.05.06.44.48 1.16 1.07.57.47.77.48.8.43.04-.42-.37-.82-.44-.89-.06-.07-.5-.49-.9-.84-.39-.35-.94-1-1.1-1.2a3.28 3.28 0 0 1-.32-.92c-.03-.1-.06-.18-.1-.25-.04-.07-.14-.08-.2-.02l-1.09 1.02c-.5-.7-1.68-1.82-2.5-2.48a.37.37 0 0 0-.52.07c-.5.65-.98 1.32-1.47 1.97-.07.1-.13.14-.2.04-.03-.04-.07-.09-.1-.1l-.55-.44a.17.17 0 0 0-.26.06l-.14.31Z" fill="#fff"/><path d="M7.42 6.64C7.18 6.91 6.06 8 5.5 8.53c.02.04.13.11.51.1.38-.02.48 0 .5 0-.19.31-.86.66-1.15.83l-.25.15c-.1.07-.05.2.07.2h.92c.1 0 .1.03.07.05l-1.43.85c-.27.19.1.18.24.17a9.72 9.72 0 0 0 1.87-.32H5.7l1.12-.76c.02-.01.03-.04.01-.06-.16-.24-.54-.29-.72-.28l.35-.24c.3-.2.51-.3.7-.65.07-.14-.05-.3-.22-.3h-.51l1-1.03 1.01 1.09-.35.09c-.19.04-.16.12-.13.15.1.11.35.39.57.57l.3.31c-.23.04-.5.05-.7.15-.1.04-.14.11-.06.2.15.17.5.38.64.46.15.07.1.11.06.11-.22.03-.68.03-.88.03-.16 0-.26.1-.34.16.02-.14.1-.31.07-.38h-.37c-.2 0-.2.09-.21.14-.05.26-.06.52-.08.78 0 .13-.03.4-.04.5-.03.18.1.28.24.33.17.05.43.04.53-.13.06-.1 0-.2-.03-.3a.72.72 0 0 1-.02-.2c0-.16.03-.42.05-.53l.85-.03c.16 0 .32 0 .48-.03.4-.04.61-.12.7-.2.1-.1.04-.2-.05-.28-.11-.08-.28-.16-.38-.2-.14-.07-.29-.11-.42-.19-.06-.04-.08-.07 0-.1.08-.04.2-.02.37-.04.23-.01.23-.14.13-.35-.1-.2-.3-.36-.47-.48-.13-.1-.07-.16-.03-.18.2-.08.32-.15.4-.2.04-.04.04-.1 0-.13a14.29 14.29 0 0 1-1.79-1.72.04.04 0 0 0-.06 0Z" fill="#fff"/><path d="M11.16 11.06c-.3-.17-.62-.28-.91-.45-.31-.18-.2-.37.04-.53.22-.16.5-.25.7-.31.28-.08.35.08.09.2-.13.07-.25.13-.31.19-.18.17.41.36.54.42.13.07.84.35 1.09.56.24.2-.1.37-.8.52-.55.12-2.56.32-3.49.4h-.26c-.11-.03-.06-.07 0-.09.38-.07 1.7-.3 2.36-.4.1-.04 1-.14 1.1-.24.08-.08-.06-.22-.15-.27Z" fill="#fff"/><path d="M11.73 10c.32-.18.7-.25.94-.26.04 0 .05.03.01.05l-.28.1c-.1.03-.38.1-.24.24.08.08.49.29.68.38.48.26.91.45 1.36.78.08.06.14.13.16.23a.43.43 0 0 1-.08.32c-.15.21-.4.34-.67.43-.82.29-1.71.42-2.57.54-.54.07-1.08.16-1.63.18l-.2.01c-.1 0-.29-.06-.1-.13.12-.04.3-.06.34-.07l.93-.16c.51-.07 1.56-.3 2.02-.42.53-.12.9-.25 1.13-.36.3-.15.25-.31-.01-.51-.21-.17-.47-.28-.7-.4l-.92-.38c-.24-.1-.34-.2-.38-.3-.06-.14.1-.21.2-.27Z" fill="#fff"/></svg>