<!-- by TradingView --><svg width="18" height="18" viewBox="0 0 18 18" xmlns="http://www.w3.org/2000/svg"><path fill="#F0F3FA" d="M0 0h18v18H0z"/><path d="M11.14 8.79a.16.16 0 0 1 .05-.22c.1-.05.22-.14.22-.26V6.16c0-.09.07-.16.16-.16h.27c.09 0 .16.07.16.16v2.19c0 .32-.24.49-.52.63a.16.16 0 0 1-.07.02c-.11 0-.18-.15-.27-.21ZM11 11.84c0 .09-.07.16-.16.16h-.27a.16.16 0 0 1-.16-.16v-2.2c0-.28-.2-.35-.47-.48-.28-.15-.53-.5-.53-.81V6.16c0-.09.07-.16.16-.16h.27c.09 0 .16.07.16.16v2.15c0 .17.11.25.2.3.4.2.8.45.8.93v2.3ZM9 8.07c0 .34-.1.64-.34.86.23.21.34.52.34.86v1.07C9 11.5 8.5 12 7.85 12H6.16a.16.16 0 0 1-.16-.16v-.27c0-.09.07-.16.16-.16h1.69c.28 0 .56-.27.56-.55V9.79c0-.3-.28-.5-.56-.5H7.4a.16.16 0 0 1-.16-.16v-.26c0-.09.06-.16.15-.16h.46c.28 0 .56-.35.56-.64v-.95a.55.55 0 0 0-.55-.53h-1.7A.16.16 0 0 1 6 6.43v-.27c0-.09.07-.16.16-.16h1.7C8.5 6 9 6.46 9 7.1v.97ZM6 7.7c0-.09.07-.16.16-.16h.27c.09 0 .16.07.16.16v2.62c0 .09-.07.16-.16.16h-.27a.16.16 0 0 1-.16-.16V7.7ZM9 4a5 5 0 1 0 0 10A5 5 0 0 0 9 4Z" fill="#FB4F14"/></svg>