<!-- by TradingView --><svg width="18" height="18" viewBox="0 0 18 18" xmlns="http://www.w3.org/2000/svg"><path fill="#F0F3FA" d="M0 0h18v18H0z"/><path d="m13.89 5.98-1.87-1.87a.4.4 0 0 0-.56 0L9.6 5.98a.4.4 0 0 0 0 .56l1.86 1.86c.16.16.4.16.56 0l1.87-1.86a.4.4 0 0 0 0-.56" fill="#03DAFF"/><path d="M4.11 11.46a.37.37 0 0 0-.1.2v.15c.01.08.05.15.1.2l1.87 1.88a.39.39 0 0 0 .36.1.38.38 0 0 0 .2-.1l1.01-1.02a2.03 2.03 0 0 1 2.88 0l1.01 1.01c.16.16.4.16.56 0l1.87-1.86a.4.4 0 0 0 0-.56L12 9.6a.4.4 0 0 0-.56 0l-1.01 1.02a2.03 2.03 0 0 1-2.88 0l-.16-.16a2.03 2.03 0 0 1 0-2.88l1.03-1a.4.4 0 0 0 0-.56L6.54 4.14a.4.4 0 0 0-.55 0L4.12 6a.4.4 0 0 0 0 .55l1.02 1.02a2.03 2.03 0 0 1 0 2.87L4.1 11.46Z" fill="#067EF6"/></svg>