<!-- by TradingView --><svg xmlns="http://www.w3.org/2000/svg" width="18" height="18" viewBox="0 0 18 18"><path fill="#F0F3FA" d="M0 0h18v18H0z"/><path d="M12.37 4.6h-.75c-2.82 0-5.55 2.07-5.34 4.62.28-.22.58-.32.9-.46l-.01-.05c0-1.68 2.56-3.2 4.35-3.66-.37.73-1.54 2.77-2.02 3.23.3 0 .61.06.9.15 1.15-.48 1.99-3.02 1.97-3.83Z" fill="#96C64D"/><path d="M10.1 6.3a5.4 5.4 0 0 0-1.98 2.16l.02.06c.22-.1.45-.17.69-.23.34-.48.86-1.28 1.26-1.99Z" fill="#96C64D"/><path d="M9.88 8c1.83 0 3.93.98 4.62 3.62-1.8.77-3.04 1.38-4.04 1.38-2.57 0-4.32-1.81-4.84-1.81-.32 0-.84.54-1.71.54-.22 0-.91.05-.91-.23 0-.27.36-.6.6-.6.26 0 .42.1.7.1.46 0 .55-.02.67-.1a6.37 6.37 0 0 1 7.6 0c-1.63-.46-3.03-.42-3.9-.42-.85 0-2.18.41-2.18.41 1.32.42 2.4 1.11 4.23 1.11.69 0 2.04-.5 2.87-.83-.55-1.75-2.56-2.36-3.87-2.37-1.47-.01-2.86.5-4.53 1.96-.15.08-.48.45-.56.41C5.3 9.52 7.6 8 9.88 8Z" fill="#609615"/></svg>