<!-- by TradingView --><svg width="18" height="18" fill="none" xmlns="http://www.w3.org/2000/svg"><path fill="#F0F3FA" d="M0 0h18v18H0z"/><path d="M10 11c0 1-.688 1.5-1.5 1.5C7.687 12.5 7 12 7 11s1-.856 1-1.5v-1c-.007-.634-1-.63-1-1.5 0-.953.5-1.5 1.5-1.5.828 0 1.5.563 1.5 1.5 0 1-1 .856-1 1.5v1c.004.636 1 .628 1 1.5Zm1.969-2.313c1.086-.97 1.594-2.14 1.23-3.092-.609-1.59-3.43-2.072-6.305-1.078-1.054.365-1.969.878-2.673 1.46-.3.246-.241.686.033.958.394.39.567.754.67.983.186.41.326.92.326 1.394 0 .504-.153.924-.358 1.353a3.426 3.426 0 0 1-.657.922c-.282.283-.337.745-.016.985.912.682 2.18 1.24 3.647 1.383 2.784.271 5.819-.695 6.108-2.438.183-1.092-.597-2.036-2.005-2.83Z" fill="#20294D"/></svg>