<!-- by TradingView --><svg width="18" height="18" viewBox="0 0 18 18" xmlns="http://www.w3.org/2000/svg"><path fill="#F0F3FA" d="M0 0h18v18H0z"/><path d="M7.5 8.67H8v.45c0 .49-.35.88-.78.88H4.78C4.35 10 4 9.6 4 9.12V6.88c0-.49.35-.88.78-.88h2.44c.43 0 .78.4.78.88v.45h-.5v-.55c0-.16-.19-.2-.33-.2H4.74c-.14 0-.24.04-.24.2V9.2c0 .16.1.23.24.23h2.43c.14 0 .33-.07.33-.23v-.53ZM10 8.6h.57v.57c0 .15.17.25.32.25h2.26c.15 0 .28-.1.28-.25v-.61a.28.28 0 0 0-.28-.28H10.7a.7.7 0 0 1-.7-.72v-.86c0-.4.31-.71.7-.71h2.6c.39 0 .7.32.7.71v.43h-.57v-.28a.29.29 0 0 0-.29-.29h-2.28a.29.29 0 0 0-.29.29v.54c0 .15.13.31.29.31h2.44c.39 0 .7.3.7.69v.89a.7.7 0 0 1-.7.71h-2.6a.7.7 0 0 1-.7-.71V8.6Z" fill="#000028"/><path d="m3.94 16-.44-3.25c1.75-.33 5.24-1.94 5.24-5.75a8.37 8.37 0 0 1-4.8 9Z" fill="url(#aptusy3wc)"/><path d="m14.04 16 .46-3.25c-1.8-.33-5.41-1.94-5.41-5.75-.7 5.38 3 8.24 4.95 9Z" fill="url(#bptusy3wc)"/><defs><linearGradient id="aptusy3wc" x1="8.83" y1="10.28" x2="4.06" y2="12.17" gradientUnits="userSpaceOnUse"><stop stop-color="#E39E00"/><stop offset="1" stop-color="#E39E00" stop-opacity="0"/></linearGradient><linearGradient id="bptusy3wc" x1="9" y1="10.28" x2="13.88" y2="12.28" gradientUnits="userSpaceOnUse"><stop stop-color="#C6B7CD"/><stop offset="1" stop-color="#C6B7CD" stop-opacity="0"/></linearGradient></defs></svg>