<!-- by TradingView --><svg width="18" height="18" xmlns="http://www.w3.org/2000/svg"><path fill="url(#paint0_linear)" d="M0 0h18v18H0z"/><path fill="#FF2538" d="M5 13h8v1H5z"/><path d="M13 4v2.656h-.239c-.179-.693-.513-1.224-1.003-1.593-.49-.37-1.177-.554-1.797-.554-.518 0-.993.137-1.425.412a2.455 2.455 0 00-.949 1.08A4.563 4.563 0 007.202 7.9c0 .686.094 1.311.282 1.876.187.562.48.988.88 1.278 1.362.975 3.396.25 4.625-.58-1.554 1.498-3.877 1.984-5.842 1.049a3.67 3.67 0 01-1.59-1.413A3.73 3.73 0 015 8.149c0-.731.206-1.425.618-2.08a4.259 4.259 0 011.676-1.526A4.853 4.853 0 019.539 4a6.2 6.2 0 011.98.35c.376.136.614.204.716.204.13 0 .243-.043.337-.13.098-.09.16-.232.19-.424H13z" fill="#fff"/><defs><linearGradient id="paint0_linear" x1="3.349" y1="3.122" x2="21.904" y2="24.434" gradientUnits="userSpaceOnUse"><stop stop-color="#1A1E21"/><stop offset="1" stop-color="#06060A"/></linearGradient></defs></svg>