<!-- by TradingView --><svg width="18" height="18" viewBox="0 0 18 18" xmlns="http://www.w3.org/2000/svg"><path fill="#003466" d="M0 0h18v18H0z"/><path d="M10.74 10h2.97a.04.04 0 0 1 .02.03v.02a5.38 5.38 0 0 1-4.11 3.81c-1.4.3-3.26.15-4.42-.82-1.08-.9-1.33-2.26-1.15-3.75a5.9 5.9 0 0 1 4.83-5.2c1.37-.24 3.3-.04 4.31 1.06.69.75.85 1.78.8 2.79 0 .01 0 .03-.02.04a.06.06 0 0 1-.04.02h-2.89a.06.06 0 0 1-.05-.02.07.07 0 0 1-.01-.06c.08-1.26-1.05-1.81-2.04-1.48-1.25.43-1.71 2.22-1.79 3.51-.03.6.1 1.18.62 1.52.17.11.4.18.71.2 1.05.07 1.83-.52 2.18-1.61.01-.04.04-.06.08-.06Z" fill="#fff"/></svg>