<!-- by TradingView --><svg width="18" height="18" xmlns="http://www.w3.org/2000/svg"><path fill="#BF1920" d="M0 0h18v18H0z"/><path d="M10.603 12.206c-1.88 0-3.404-1.44-3.404-3.214 0-1.775 1.524-3.213 3.404-3.213.663 0 1.282.179 1.805.488l-1.805 2.725L14 7.14c-.369-.555-.898-1.033-1.538-1.396-.815-.46-1.948-.745-3.2-.745-1.787 0-3.355.613-4.23 1.53C4.386 7.21 4 8.064 4 8.993c0 .93.385 1.784 1.033 2.463C5.909 12.373 7.453 13 9.21 13c1.757 0 3.301-.627 4.178-1.545.048-.051.095-.102.139-.155l-.133-.469a3.467 3.467 0 01-2.792 1.375z" fill="#fff"/></svg>