<!-- by TradingView --><svg width="18" height="18" xmlns="http://www.w3.org/2000/svg"><path fill="#0956A6" d="M0 0h18v18H0z"/><path d="M9 12V7.002h1L12.501 11 15 7.002h1V12h-1V9l-2 3h-1l-2-3v3H9zM2.462 7.003H8.23c.193 0 .235.148.232.221v1.119c0 .238-.1.312-.149.324H7.55c-.124-.187-.394-.575-.524-.667h-3.76c-.126.009-.253.146-.265.197v2.557c0 .132.215.239.264.246h3.761c.434 0 .527-.553.524-.667h.912v1.139c0 .406-.364.507-.546.507-1.694.015-5.17.036-5.518 0-.348-.035-.404-.353-.389-.507-.006-1.07-.015-3.343 0-3.873.015-.53.309-.618.454-.596z" fill="#fff"/></svg>