<!-- by TradingView --><svg xmlns="http://www.w3.org/2000/svg" width="18" height="18"><path fill="#44377D" d="M0 0h18v18H0z"/><path d="M12.4 12.59A5.14 5.14 0 018.86 14 5.1 5.1 0 014 10.55C5.09 9.27 6.46 9 6.46 9S5.1 8.6 4.01 7.43A5.1 5.1 0 018.85 4a5.14 5.14 0 013.56 1.41l-2 2.02a2.25 2.25 0 00-1.56-.62c-1.23 0-2.23.98-2.23 2.19 0 1.2 1 2.19 2.23 2.19.6 0 1.15-.24 1.56-.62l2 2.02z" fill="#fff"/><path d="M13.75 7.45A4.77 4.77 0 0111.29 9s1.36.4 2.45 1.57A4.9 4.9 0 0014 9a4.9 4.9 0 00-.25-1.55z" fill="#E87C24"/></svg>