<!-- by TradingView --><svg xmlns="http://www.w3.org/2000/svg" width="18" height="18" viewBox="0 0 18 18"><path fill="#F0F3FA" d="M0 0h18v18H0z"/><path d="M5.39 5.95c.6 0 1.33.05 1.66.09h.06c.07 0 .16-.02.16-.15v-.1c0-.11-.1-.2-.21-.2H7c-.54-.06-1.08-.09-1.62-.09-.9 0-2.39.38-2.39 2.9v1.2c0 2.53 1.5 2.9 2.39 2.9.54 0 1.08-.03 1.62-.09h.04c.11 0 .2-.09.21-.2v-.1c0-.13-.08-.15-.16-.15h-.06c-.33.04-1.05.09-1.66.09-1.23 0-1.9-.87-1.9-2.44V8.38c.01-1.56.68-2.43 1.9-2.43ZM14.99 12.22l-1.9-6.26a.63.63 0 0 0-.64-.47.64.64 0 0 0-.64.48l-1.9 6.25-.01.1c-.01.08.06.17.15.18h.13c.08-.01.16-.07.18-.15l.75-2.47h2.62l.77 2.47c.02.08.1.14.18.15h.1c.1 0 .18-.05.2-.14v-.03c.03-.05.03-.08 0-.11Zm-2.53-6.29c.1 0 .15.05.18.16l1 3.3h-2.37l1-3.32c.03-.08.07-.14.2-.14Z"/><path d="M10.13 4 7.39 14h.48l2.74-10h-.48Z" fill="#02ABCA"/></svg>