<!-- by TradingView --><svg xmlns="http://www.w3.org/2000/svg" width="18" height="18"><path fill="#1F5185" d="M0 0h18v18H0z"/><path d="M4.57 5.6l3.53-2c.28.03.28.32.28.32v1.26c-.01.08-.04.1-.04.1L5.84 6.7c-.07.05-.2-.05-.2-.05l-.96-.58c-.38-.24-.11-.45-.11-.45zM4 11V6.9c.16-.23.4-.08.4-.08l1.09.66c.07.05.07.08.07.08v2.84c0 .09-.15.16-.15.16l-.96.56C4.05 11.34 4 11 4 11zm4.1 3.35l-3.53-2s-.28-.2.11-.45l.95-.58s.14-.1.22-.05l2.49 1.4s.03.03.04.1v1.27s0 .28-.28.3zm5.03-8.73l-3.54-2c-.28.02-.28.31-.28.31V5.2c0 .08.04.1.04.1l2.5 1.4c.07.05.2-.05.2-.05l.96-.58c.39-.24.12-.45.12-.45zm-.8 4.62a.3.3 0 00.1.06h.01c.07.04.48.27.92.48.11.05.2.07.25.05.04-.02.05-.06.06-.08V7.17c-.1-.09-.22-.04-.26-.02a52.37 52.37 0 00-1.08.57v2.51zm1.3.95c-.1 0-.2-.03-.32-.08a58.8 58.8 0 01-1.07-.53c-.07-.03-.24-.11-.24-.25V7.6c0-.03.04-.09.14-.15l1.21-.63c.14-.06.43-.13.63.12l.02.03v3.93c0 .02-.03.17-.2.25a.4.4 0 01-.17.03zm-4 1.54a.3.3 0 01.02-.1l2.17-1.22.02.01.97.6c.03.03.13.1.1.23l-3.1 1.73c-.02 0-.06.01-.1-.01-.03-.03-.06-.12-.06-.23a17.2 17.2 0 01-.01-1v-.01zm-.32-.02v1.15c0 .14.08.33.2.43.14.1.3.05.31.04l3.4-1.9.02-.03c.13-.28-.06-.5-.18-.58l-1.1-.7c-.1-.05-.16-.05-.19-.04l-2.35 1.31c-.12.07-.11.26-.1.32z" fill="#fff"/></svg>