<!-- by TradingView --><svg width="18" height="18" viewBox="0 0 18 18" xmlns="http://www.w3.org/2000/svg"><path fill="#F0F3FA" d="M0 0h18v18H0z"/><path d="M10.79 7.1c-3.43-.92-6.08.04-6.93.72.91-.73 3.49-2.03 6.98-1.1l-.05.38Z" fill="#A2B1B8"/><path d="M3.86 7.71c2.2-2.29 4.74-2.97 8-2.62l-.02.38c-3-.32-5.64-.05-7.98 2.24ZM3.7 7.87c2.57-2.07 5.05-2.6 7.98-1.73l-.06.38c-2.86-.85-5.4-.67-7.92 1.35Z" fill="#A2B1B8"/><path d="m7.38 9 .29-1H5.29C4.87 8 3 8.03 3 10.02 3 11.6 4.3 12 4.95 12h1.12l.47-1H5.3c-.28 0-.79-.27-.79-.98C4.5 9.45 5 9 5.27 9h2.1Z" fill="#055BA8"/><path fill-rule="evenodd" d="m9.5 8 1.5 4h1v-1h1.29c.55 0 1.71-.37 1.71-1.5S13.84 8 13.29 8H9.5ZM12 9.14v.57h1.05c.18 0 .45-.05.45-.28 0-.23-.27-.29-.45-.29H12Z" fill="#EC2125"/><path d="M9.5 8h-2l-1.43 4h1.79l.14-.57h1.43l.14.57h1.72L9.5 8Z" fill="url(#a14b5tzi4)"/><path d="M9.43 11.43H8l-.14.57h1.71l-.14-.57ZM8.14 10.29l.43-1.15L9 10.3h-.86Z" fill="#055BA8"/><path d="M12 5.1c-.29 1.37-.79 1.85-1.5 2.04.71.2 1.21.58 1.5 1.36V5.1Z" fill="#B1212B"/><path d="M12 5.1c.29 1.37.79 1.85 1.5 2.04-.71.2-1.21.58-1.5 1.36V5.1Z" fill="#E71D29"/><defs><linearGradient id="a14b5tzi4" x1="7.05" y1="9.45" x2="10.43" y2="11.67" gradientUnits="userSpaceOnUse"><stop stop-color="#FEFFFF"/><stop offset="1" stop-color="#DBDFE2"/></linearGradient></defs></svg>