<!-- by TradingView --><svg width="18" height="18" viewBox="0 0 18 18" xmlns="http://www.w3.org/2000/svg"><path fill="#F0F3FA" d="M0 0h18v18H0z"/><path d="M12.48 10.33h-2l-.23.57c-.08.19-.12.35-.12.47 0 .17.07.29.2.37.07.04.25.08.55.1V12H9v-.16c.2-.03.37-.12.5-.26s.3-.44.48-.89L12 6h.08l2.04 4.82c.2.46.36.74.48.86.1.1.23.15.4.16V12h-2.73v-.16h.1c.23 0 .38-.03.47-.1.06-.04.1-.1.1-.2l-.03-.16-.13-.32-.3-.73Zm-.14-.32-.84-2.03-.87 2.03h1.71ZM9 6v1.99h-.18c-.14-.52-.4-.92-.77-1.2-.37-.27-.8-.4-1.27-.4a2.01 2.01 0 0 0-1.8 1.1c-.2.43-.3.9-.3 1.43 0 .51.07.98.21 1.4.15.42.37.74.68.96.3.22.7.32 1.18.32.4 0 .76-.08 1.1-.23a3.7 3.7 0 0 0 1.04-.82v.5c-.35.33-.72.57-1.1.73-.39.15-.84.22-1.35.22-.68 0-1.28-.12-1.8-.37a2.78 2.78 0 0 1-1.17-4.08c.32-.5.74-.87 1.28-1.14a3.76 3.76 0 0 1 3.12-.15c.29.1.47.15.55.15.1 0 .18-.03.25-.1A.52.52 0 0 0 8.82 6H9Z" fill="#35542D"/></svg>