<!-- by TradingView --><svg width="18" height="18" xmlns="http://www.w3.org/2000/svg"><path fill="#F0F3FA" d="M0 0h18v18H0z"/><path d="M8 10c0 1.152-1.38 1.76-2.38 1.76-1.434 0-2.594-1.225-2.594-2.734 0-1.51 1.169-2.734 2.593-2.734C6.734 6.292 8 6.898 8 8h1c0-1.83-1.797-2.683-3.38-2.683-2 0-3.62 1.656-3.62 3.7 0 2.044 1.62 3.709 3.62 3.709C7.06 12.726 9 11.76 9 10H8z" fill="#EF3742"/><path d="M5 8h1v2H5V8zM7.03 9.021a.5.5 0 100-1 .5.5 0 000 1zM4.131 9a.5.5 0 100-1 .5.5 0 000 1z" fill="#EF3742"/><path d="M12 9v1h2.434l.026-.049a2.22 2.22 0 00.138-.485A3.32 3.32 0 0014.65 9H12z" fill="#00A0DD"/><path d="M15 10.002c0 1.028-1.137 1.723-2.426 1.723-1.29 0-2.565-1.224-2.565-2.716 0-1.501 1.154-2.726 2.565-2.726.955 0 2.393.648 2.426 1.717h1c0-1.922-1.954-2.726-3.426-2.726-1.97 0-3.572 1.674-3.572 3.726 0 2.053 1.601 3.726 3.572 3.726C13.95 12.726 16 11.848 16 10H15z" fill="#00A0DD"/><path d="M12.636 8.612a.5.5 0 100-1 .5.5 0 000 1zM14.15 8.612a.5.5 0 100-1 .5.5 0 000 1z" fill="#00A0DD"/></svg>