<!-- by TradingView --><svg xmlns="http://www.w3.org/2000/svg" width="18" height="18"><path fill="#241C71" d="M0 0h18v18H0z"/><path d="M6.75 9.6a5.73 5.73 0 01.73-3.25c-1.14-.87-2.3-1.18-3.18-.47-1.5 1.2-.68 4.03.79 5.5 1.04 1.03 2.17 1.53 3.12 1.35-.81-.5-1.34-1.65-1.46-3.14z" fill="#79CEDE"/><path d="M13.5 7.9a2.1 2.1 0 00-1.91-.51c.1.49.17.99.19 1.5.1 2.53-.64 3.58-1.65 3.94.82.3 1.78.06 2.9-1.37.98-1.27 1.36-2.67.47-3.56zm-5-.62c.38.4.72.85 1.02 1.33a3.8 3.8 0 012.07-1.22c-.3-1.35-.95-2.3-2-2.39-.88-.06-1.6.51-2.1 1.34.35.29.7.6 1 .94zm.68 4.96c-.27.25-.6.42-.96.5.34.2.73.29 1.11.25.27-.01.54-.07.8-.16a2.87 2.87 0 01-.95-.6z" fill="#A66BF9"/><path d="M9.31 8.87l.2-.26a8.13 8.13 0 00-2.03-2.26 5.73 5.73 0 00-.73 3.25c.12 1.48.65 2.64 1.47 3.13.36-.07.7-.24.96-.5-.85-.82-.74-2.13.13-3.36z" fill="#1D54CE"/><path d="M11.78 8.88c-.02-.5-.08-1-.19-1.5-.8.17-1.53.6-2.07 1.23.95 1.59.55 2.7-.23 3.53l-.1.1c.05.05.1.1.17.14.23.2.5.35.78.45 1-.36 1.74-1.4 1.64-3.95z" fill="#5E40DD"/><path d="M9.18 12.24l.1-.1c.79-.84 1.19-1.94.23-3.53-.08.08-.14.17-.2.26-.87 1.23-.98 2.54-.13 3.37z" fill="#1825C6"/></svg>