<!-- by TradingView --><svg width="18" height="18" viewBox="0 0 18 18" xmlns="http://www.w3.org/2000/svg"><path fill="#2F58A8" d="M0 0h18v18H0z"/><path d="M6.97 10.67a9.18 9.18 0 0 0 6.94-1.36c.11-.08.09-.18.09-.18V8.05c0-.08-.04-.08-.08-.02-.1.18-.38.35-.7.44-.27.08-.52.11-.7.14-.08.01-.11-.01-.13-.07a2.95 2.95 0 0 1-.06-.24c-.02-.1.04-.1.09-.08.2.05.3.05.46-.02.3-.13.3-.4.06-.53-.15-.08-.35-.14-.52-.21-.11-.05-.21-.08-.38-.17a.73.73 0 0 1-.34-.28c-.12-.23.01-.48.22-.62.33-.21.7-.37 1.05-.42.05-.01.1 0 .12.05.05.08.07.13.08.21.01.06-.05.06-.13.04-.18-.03-.42.1-.52.16-.08.05-.17.14-.13.26.03.05.1.08.18.1.55.1 1.12.15 1.37.57.02.03.05.04.05 0v-.4c0-.32-.05-.73-.4-1.19a2.22 2.22 0 0 0-1.6-.77H6c-.42 0-1.16.24-1.59.78-.36.46-.4.87-.4 1.2v2.36c0 .07 0 .07.08.12.4.28.92.54 1.51.8.07.03.1-.04.03-.07a.87.87 0 0 1-.22-.17c-.2-.22-.24-.25-.4-.6-.6-1.2.3-2.1.88-2.39.43-.22.86-.27 1.33-.28.1 0 .14.02.18.08.08.11.2.32.19.51 0 .07-.08.08-.13.02a.48.48 0 0 0-.22-.14c-.41-.1-.72-.1-1.05.15-.4.29-.46.79-.36 1.22.14.61.46.97.8 1.25.16.14.46.25.7.24.2 0 .4-.12.5-.24.06-.05.07-.08.08-.15a.67.67 0 0 1-.1-.5c.03-.22.14-.34.3-.52.16-.18.43-.4.48-.42.09-.05.18.08.15.15-.08.16-.27.4-.26.68 0 .16.06.28.15.37.1.11.35.16.52.06.2-.12.25-.28.15-.54l-.38-.94c-.04-.1-.1-.23-.2-.24a.66.66 0 0 0-.56.14c-.05.04-.14.17-.19.13-.09-.06-.12-.24-.07-.28.16-.13.47-.25.72-.32.35-.1.84-.13 1 .25.12.3.13.37.19.53.13.35.21.69.55.77.23.06.54-.05.76-.18.29-.17.25-.42.02-.55-.16-.08-.35-.14-.53-.21l-.38-.16a.73.73 0 0 1-.33-.29c-.13-.23 0-.47.22-.61.32-.22.7-.38 1.05-.43.05 0 .09 0 .12.06.04.07.06.12.07.2.01.04-.05.06-.12.05-.16-.03-.42.1-.52.15-.09.05-.18.14-.13.26.02.06.1.08.18.1.54.1 1.1.11 1.38.56.1.17.17.42.03.65-.18.27-.43.4-.8.52-.37.11-.65.2-.87.3-.4.18-.6.18-.78.08-.11-.06-.15-.08-.19-.01-.1.2-.19.34-.4.43-.28.13-.55.16-.78.08-.13-.04-.16.07-.23.14-.2.2-.3.3-.56.38-.22.07-.39.08-.58.08-.08 0-.08.05-.01.06Zm7.03-.05v.4c0 .33-.05.74-.4 1.2-.43.54-1.18.77-1.6.77L6 13c-.41 0-1.16-.23-1.59-.77a1.8 1.8 0 0 1-.4-1.2v-.78c0-.05.02-.08.08-.03a9.62 9.62 0 0 0 7.5 1.22 9.92 9.92 0 0 0 2.32-.85c.06-.04.09-.02.09.03Z" fill="#fff"/></svg>