<!-- by TradingView --><svg width="18" height="18" xmlns="http://www.w3.org/2000/svg"><path fill="#08090D" d="M0 0h18v18H0z"/><path d="M12.974 13L9.351 9.667 5.597 13h7.377z" fill="#FFC400"/><path d="M6.757 10.838c0 .28-.047.592-.321.843L4.959 13h-.462C3.657 13 3 12.31 3 11.398V6.681C3 5.76 3.516 5 4.88 5c1.33.002 1.875.759 1.875 1.679v1.665H5.267V6.74c0-.228-.167-.413-.374-.413s-.36.185-.36.413v4.518c0 .229.153.414.36.414s.374-.185.374-.414V9.662h1.49v1.176zm2.194-2.096l.401-2.413.399 2.413h-.8zM10.385 5H8.31L7.1 11.119l2.252-1.996 2.347 2.16L10.385 5zm1.923 6.878V6.524H11.28V5H15v1.524h-1V13h-.474l-1.218-1.122z" fill="#fff"/></svg>