<!-- by TradingView --><svg xmlns="http://www.w3.org/2000/svg" width="18" height="18"><path fill="#F0F3FA" d="M0 0h18v18H0z"/><path d="M14.44 8.34a4.45 4.45 0 00-.8-2.34c.78.8 1.36 1.99 1.36 3.13 0 2.46-2.47 3.86-4.6 4.21C8.1 13.73 6 13 6 13s2.05.32 4.27-.23c2.22-.55 4.07-2.1 4.17-4.43z" fill="#112F7E"/><path d="M3.65 9.62c-.04 1.17 1 2.46 1 2.46A4.04 4.04 0 013 8.95c0-2.49 2.53-3.82 4.65-4.24a9.3 9.3 0 013.35 0c-2.92-.13-7.24 1.46-7.35 4.9z" fill="#2695B0"/><path fill-rule="evenodd" d="M8.48 11l1.25-4h2.32s.95.05.95.91-.74 1.08-.74 1.08.6.12.5.94c-.12.82-.94 1.07-1.55 1.07H8.48zm1.8-2.5l.17-.5h1.39s.16.06.16.21c0 .16-.13.31-.3.29h-1.43zm-.23 1l-.17.5h1.42s.22-.02.29-.25c.06-.22-.15-.25-.15-.25h-1.39z" fill="#112F7E"/><circle cx="12.51" cy="5.04" r=".49" fill="#2695B0"/><path d="M6.99 7H9.3L9 8H6.97c-.27 0-.43.12-.54.34l-.42 1.08a.4.4 0 00-.02.13c0 .22.17.45.38.45h1.99l-.31 1h-1.7c-.94 0-1.59-.91-1.27-1.78l.21-.6.25-.63C5.76 7.4 6.34 7 7 7z" fill="#192E7F"/></svg>