<!-- by TradingView --><svg xmlns="http://www.w3.org/2000/svg" width="18" height="18"><path fill="#F0F3FA" d="M0 0h18v18H0z"/><path d="M8.97 6a5.45 5.45 0 014.68 2.65l-1.57.17a4.64 4.64 0 00-8.32 2.6h-.23c0-3 2.43-5.42 5.44-5.42zm-.85 1.58c1.23 0 2.32.57 3.03 1.46l-.93.42a3.29 3.29 0 00-5.8 1.97h-.16v-.15a3.85 3.85 0 013.86-3.7z" fill="#AE093F"/><path d="M8.25 10.51c-3.2 1.55-4.6 1.23-5.25.92.26.17 1.04.57 2.09.57 1.09 0 3.06-.64 3.94-1 1.1-.45 3.42-1.38 4.7-1.38a4 4 0 012.27.65 3.85 3.85 0 00-2.76-1.34c-.6 0-1.78.04-4.99 1.58z" fill="#0A255D"/></svg>