<!-- by TradingView --><svg width="18" height="18" viewBox="0 0 18 18" xmlns="http://www.w3.org/2000/svg"><path fill="#008457" d="M0 0h18v18H0z"/><path fill-rule="evenodd" d="M12.75 4.68a.53.53 0 0 0-.35-.5c-.74-.24-1.74-.33-2.37.3-.6.6-.9 1.5-1.03 2.33a4.28 4.28 0 0 0-1.03-2.33c-.63-.63-1.63-.54-2.37-.3a.53.53 0 0 0-.35.52l.01.14.07.27c.04.2-.04.27-.24.22l-.25-.06a.6.6 0 0 0-.16-.02.53.53 0 0 0-.5.35c-.24.74-.32 1.75.3 2.37.6.6 1.5.9 2.33 1.03-.82.13-1.73.43-2.33 1.03-.63.63-.54 1.63-.3 2.37.08.21.29.35.51.35l.15-.01.27-.07c.2-.04.27.04.22.24l-.06.25a.6.6 0 0 0-.02.12c0 .24.12.46.35.54.74.24 1.75.32 2.37-.3.6-.6.9-1.5 1.03-2.33.13.82.43 1.73 1.03 2.33.62.62 1.63.54 2.37.3a.53.53 0 0 0 .35-.5c0-.06 0-.11-.02-.16l-.06-.25c-.05-.2.02-.28.22-.24l.27.07a.6.6 0 0 0 .12.01c.23 0 .46-.13.53-.35.25-.74.34-1.74-.29-2.37-.6-.6-1.5-.9-2.33-1.03a4.28 4.28 0 0 0 2.33-1.03c.62-.62.54-1.63.3-2.37a.54.54 0 0 0-.55-.35.6.6 0 0 0-.11.02l-.25.06c-.2.05-.28-.02-.24-.22l.07-.27a.6.6 0 0 0 .01-.16ZM9 10a1 1 0 1 0 0-2 1 1 0 0 0 0 2Z" fill="#F0F3FA"/></svg>