<!-- by TradingView --><svg width="18" height="18" xmlns="http://www.w3.org/2000/svg"><path fill="#004877" d="M0 0h18v18H0z"/><path d="M8.444 5c-.414.008-.85.1-1.26.284-.408.183-.788.45-1.124.762a6.33 6.33 0 00-.886 1.046 9.179 9.179 0 00-.68 1.18c-.197.401-.36.81-.507 1.209a15.22 15.22 0 00-.37 1.162c-.105.373-.189.73-.26 1.06A21.646 21.646 0 003 13.924a.065.065 0 00.054.075.065.065 0 00.078-.056s.011-.054.027-.158a21.46 21.46 0 01.411-2.027 18.334 18.334 0 01.708-2.16c.157-.384.334-.773.54-1.154.203-.38.435-.754.693-1.101.257-.349.544-.667.859-.94.314-.27.66-.49 1.014-.631a2.705 2.705 0 011.06-.19c.34.009.664.08.949.185.287.107.534.243.749.377.214.136.396.264.539.38l.05.043c-.013.005-.028.008-.041.014a3.31 3.31 0 00-.457.237c-.147.086-.29.186-.424.292a4.691 4.691 0 00-.384.344c-.121.12-.235.24-.343.368a6.842 6.842 0 00-.57.794 8.366 8.366 0 00-.74 1.548c-.17.475-.27.888-.315 1.18a3.073 3.073 0 00-.037.34c-.002.042 0 .045 0 .065v.023c0 .033.027.059.06.06a.06.06 0 00.064-.055s-.002-.014 0-.033c0-.02 0-.014.004-.05.007-.074.021-.185.05-.326.055-.279.169-.675.357-1.13.187-.452.445-.966.79-1.468.17-.251.365-.499.58-.73a4.548 4.548 0 01.703-.627c.127-.092.26-.179.397-.251.135-.074.273-.136.416-.186.07-.028.143-.048.214-.07.017-.004.03-.01.046-.014.056-.014.113-.028.169-.037.072-.014.143-.022.215-.033l.105-.014.082-.004h.027c.14-.01.28.007.416.018.134.019.263.041.388.075.253.064.487.156.694.255.21.1.394.208.553.312.078.053.152.102.219.153.066.049.128.096.182.14.053.042.105.078.147.111l.1.088.092.075.004.009.014.005a.303.303 0 00.429-.06.316.316 0 00-.06-.438s-.037-.024-.1-.074a3.094 3.094 0 01-.114-.088l-.164-.117c-.06-.044-.13-.09-.206-.139-.074-.051-.158-.1-.247-.153a5.293 5.293 0 00-.63-.321 4.225 4.225 0 00-.803-.256 3.418 3.418 0 00-.941-.055c-.04.002-.08.004-.119.009-.02-.018-.051-.046-.096-.084a3.796 3.796 0 00-.155-.125c-.063-.049-.131-.104-.215-.163a5.926 5.926 0 00-.616-.404 4.85 4.85 0 00-.886-.395A3.592 3.592 0 008.444 5z" fill="#fff"/></svg>