<!-- by TradingView --><svg width="18" height="18" viewBox="0 0 18 18" xmlns="http://www.w3.org/2000/svg"><path fill="#C0C1C2" d="M0 0h18v18H0z"/><path d="M6.81 6v2h-.2c-.2-.9-.76-1.68-1.6-1.6-.83.06-1.66.7-1.66 2.66 0 1.94.69 2.48 1.67 2.53.78.05 1.43-.64 1.66-1v.48c-.36.72-1.4.94-1.95.93-2.25-.05-2.76-1.92-2.73-2.94C2.08 6.32 4.2 6 4.8 6c.59 0 .8.11 1.32.32.42.17.54-.14.56-.32h.13ZM16 6v2h-.2c-.2-.9-.77-1.68-1.6-1.6-.83.06-1.66.7-1.66 2.66 0 1.94.68 2.48 1.66 2.53.78.05 1.44-.64 1.66-1v.48c-.36.72-1.38.94-1.94.93-2.26-.05-2.76-1.92-2.73-2.94.08-2.74 2.2-3.06 2.79-3.06.6 0 .8.11 1.32.32.42.17.55-.14.56-.32H16Z" fill="#00539F"/><path fill-rule="evenodd" d="M6.6 12H9.4c.64 0 1.92-.31 1.91-1.6 0-1.28-.92-1.6-1.38-1.59.4-.08 1.21-.47 1.18-1.38C11.07 6.29 10.17 6 9.45 6H6.61v.19h.23c.17-.02.51.08.5.6v4.38c0 .2-.09.61-.5.6H6.6V12Zm1.93-5.67v2.39c.42.02 1.27-.2 1.28-1.22 0-1.2-.98-1.18-1.24-1.17h-.04Zm0 2.72c.48-.12 1.45 0 1.46 1.34 0 1.35-1.46 1.48-1.46.89V9.05Z" fill="#00539F"/></svg>