<!-- by TradingView --><svg width="18" height="18" viewBox="0 0 18 18" xmlns="http://www.w3.org/2000/svg"><path fill="#F0F3FA" d="M0 0h18v18H0z"/><path d="M13 10.02a4.1 4.1 0 0 1-1.03 2.95c-.62.61-1.47.92-2.38 1-1.9.17-3.69-.46-4.33-2.24a4.16 4.16 0 0 1-.25-1.4V7.81c0-.8.17-1.6.62-2.27.67-.99 1.78-1.46 3.03-1.53.44-.02.86 0 1.28.06.52.08 1.03.24 1.47.51 1.23.76 1.58 2.1 1.59 3.4l-.02.02h-2.55v-.01l-.01-.01c.03-.75-.1-1.72-1.05-1.89a2.09 2.09 0 0 0-.88.04c-.74.18-.9.85-.9 1.49v2.88c.1.67.31 1.3 1.12 1.43.85.13 1.37-.26 1.6-1a3 3 0 0 0 .11-.92V10H13v.02Z" fill="#4E5055"/></svg>