<!-- by TradingView --><svg width="18" height="18" viewBox="0 0 18 18" xmlns="http://www.w3.org/2000/svg"><path fill="#F0F3FA" d="M0 0h18v18H0z"/><path d="M3.59 10.66c0-.01.02-.01.04.01-.01.1 0 .15.06.14a.92.92 0 0 1 .17 0v-.05c-.03 0-.06 0-.08.02h-.05l-.05-.06a.01.01 0 0 1 0-.02l.17-.03c.03 0 .05 0 .06.04l.02.02h.02c.05-.01.08 0 .09.05v.03l.03.01a76.29 76.29 0 0 0 .34-.02.79.79 0 0 0 .03-.06h.01v.05l.02.02.01.01a17.62 17.62 0 0 0 .76-.02l.01-.02a.1.1 0 0 0 0-.04V10.33l-.03-.02h-.21v.04l-.02.02c-.01.01-.02 0-.02-.01 0-.04-.03-.05-.07-.05a7.63 7.63 0 0 1-.58.02H4.3a.37.37 0 0 0-.23 0c-.02 0-.03 0-.02-.01h-.52c.08-.39 0-.66-.26-.83a4.91 4.91 0 0 0-1.2-.5.09.09 0 0 1-.05-.05.13.13 0 0 1-.02-.06V8L2.03 8h13.97l.01.03v.82c0 .04 0 .07-.02.1a.11.11 0 0 1-.07.04c-.41.12-.8.28-1.14.47-.23.13-.4.4-.32.76v.04l-.05.15v.56l-.01.02h-1.95v-.61a.1.1 0 0 0-.02-.03c-.14-.16.07-.38-.09-.58-.1-.13-.33-.27-.47-.35a5.32 5.32 0 0 0-2.7-.7l-.11.07a.1.1 0 0 1-.06.02.1.1 0 0 1-.05-.02 1.07 1.07 0 0 0-.1-.06 5.25 5.25 0 0 0-2.82.76c-.14.08-.26.17-.34.27-.19.2.03.4-.1.59a.11.11 0 0 0-.03.07V10.99h-.02V11h-1.9l-.03-.01v-.03l-.01-.3Z" fill="#014A91"/><path d="M2.14 8.21c.05 0 .09-.02.09-.04 0-.03-.04-.05-.09-.05-.04 0-.08.02-.08.05 0 .02.04.04.08.04ZM2.28 8.18v-.02h-.01v-.02l.02-.01H4.8l.01.01v.03l-.01.03h-.5a.13.13 0 0 1-.08-.03c-.02-.01-.04-.01-.07.01a.08.08 0 0 1-.06.03c-.2 0-.44.03-.55-.04H3.5v.01l-.02.02h-.02c-.11.01-.33.04-.41-.03-.02-.02-.04-.01-.06.01-.01.02-.03.03-.06.03a27.79 27.79 0 0 1-.62 0 .09.09 0 0 1-.03-.03ZM8.33 8.15a.66.66 0 0 1 .32 0h.01v.03a.32.32 0 0 1-.32-.01H8.3v.02l-.04.02a.3.3 0 0 1-.2-.03h-.04a.37.37 0 0 1-.35-.01h-.03l-.02.02-.02.02c-.15 0-.3.02-.39-.04h-.03a.36.36 0 0 1-.35 0h-.05v.02l-.03.01c-.16.01-.32.04-.41-.03H6.3l-.01.01c0 .02-.02.03-.03.03h-.18a.1.1 0 0 1-.09-.04v-.03H6a.88.88 0 0 1 .3 0 1.73 1.73 0 0 1 .53 0c.17-.02.28 0 .43 0a4.76 4.76 0 0 1 .35-.01c.06.03.13-.01.18 0h.44l.07.01h.03ZM9.68 8.14a.52.52 0 0 1 .24 0h.05c.1-.02.22-.02.34 0l.45-.02h.01l.01.02v.03l-.02.03h-.03c-.17.01-.31.03-.4-.04h-.02l-.01.01-.01.02-.02.01a.46.46 0 0 1-.29-.02h-.04c-.1.05-.19.05-.27 0v-.03ZM11.15 8.13v.01c0 .02 0 .04-.02.05a.12.12 0 0 1-.07.02h-.19a.1.1 0 0 1-.03-.02l-.02-.02v-.04h.33ZM11.2 8.18v-.04l.01-.01h1.31l.02.01.01.03v.03h-.02c-.22.01-.36.03-.49-.03H12a.35.35 0 0 1-.32 0h-.02l-.02.01-.02.01a.06.06 0 0 1-.04.02h-.32c-.02 0-.04 0-.05-.03ZM15.92 8.2v.01H15.85a.3.3 0 0 1-.07-.02h-.02l-.01-.02v-.01l.03-.03h.12V8.2ZM9.2 8.38V8.3l-.01-.01h-.04v.01l-.01.05v.02l-.02.02c-.1.04-.23.05-.28-.1h-.02c-.02 0-.03.01-.03.04l-.01.02-.01.01h-.04a.02.02 0 0 1 0-.02l.03-.15v-.02l.03-.02a.93.93 0 0 1 .4 0h.02l.02.03.03.15v.02l-.01.02H9.2ZM2.98 8.48h-.52c-.02 0-.03.02-.03.04v.06c0 .02.01.04.03.04h.52c.02 0 .03-.02.03-.04v-.07c0-.02-.01-.03-.03-.03ZM3.64 8.48h-.5s-.02.01-.02.03v.07c0 .02.02.04.03.04h.5l.02-.03V8.5c0-.02-.01-.03-.03-.03ZM4.32 8.48h-.54c-.01 0-.02.01-.02.03v.08l.02.03h.54c.02 0 .03-.02.03-.03V8.5c0-.02-.01-.03-.03-.03ZM4.98 8.48h-.51c-.02 0-.03.01-.03.03v.07c0 .02.01.04.03.04h.5C5 8.62 5 8.6 5 8.59V8.5c0-.02 0-.03-.02-.03ZM5.49 8.48H5.1l-.03.03v.07c0 .02.02.04.03.04h.38c.01 0 .03-.02.03-.04v-.07l-.03-.03ZM6.27 8.48h-.63c-.01 0-.03.02-.03.04v.06c0 .02.02.04.03.04h.63c.01 0 .03-.03.03-.05v-.05c0-.02-.02-.04-.03-.04ZM7.61 8.52c0 .04-.1.06-.29.05a.3.3 0 0 1-.11-.02h-.04a.38.38 0 0 1-.2.02c-.06 0-.1-.02-.1-.04 0-.03.04-.05.1-.05.07-.01.14 0 .2.02h.04a.3.3 0 0 1 .11-.02c.2 0 .29 0 .29.04ZM11.1 8.53c0 .02-.03.03-.1.04-.06 0-.12 0-.18-.02h-.04a.3.3 0 0 1-.11.02c-.2 0-.29 0-.29-.05 0-.03.1-.05.29-.04a.3.3 0 0 1 .11.02h.04a.38.38 0 0 1 .19-.02c.06 0 .1.02.1.05ZM12.89 8.48h-.4l-.02.04v.06c0 .02.01.03.03.03h.39c.02 0 .03-.01.03-.04v-.05c0-.02-.01-.04-.03-.04ZM13.52 8.48h-.5c-.01 0-.02.01-.02.03v.08c0 .01 0 .03.02.03h.5c.02 0 .03-.02.03-.03V8.5c0-.02-.01-.03-.03-.03ZM14.2 8.48h-.54c-.01 0-.02.01-.02.03v.07c0 .02 0 .04.02.04h.54c.02 0 .03-.02.03-.04v-.07c0-.02-.01-.03-.03-.03ZM14.85 8.48h-.5s-.02.01-.02.03v.08l.02.03h.5l.02-.03V8.5c0-.02 0-.03-.02-.03ZM15.53 8.48h-.52c-.02 0-.03.02-.03.03v.07c0 .02.01.04.03.04h.52c.02 0 .03-.02.03-.04v-.07c0-.02-.01-.03-.03-.03ZM2.3 8.55l.01.02a.03.03 0 0 1 0 .02v.01a.32.32 0 0 1-.16.01h-.02v-.03a.22.22 0 0 1 0-.06v-.03h.02c.05-.02.1-.01.15 0h.01v.01a.03.03 0 0 1 0 .02v.03ZM9.04 8.52c0 .03.02.06.04.07l.01.01a.04.04 0 0 1 0 .03v.01L9 8.7l-.03.01-.02-.01-.04-.06a.04.04 0 0 1 0-.03.15.15 0 0 0 .03-.07c0-.01 0-.03.02-.03L9 8.48l.02.01.02.03ZM12.35 8.49h-.63c-.03 0-.05.02-.05.05v.01c0 .03.02.06.05.06h.63c.02 0 .04-.02.04-.06 0-.04-.02-.06-.04-.06ZM15.85 8.48h-.15c-.01 0-.02.01-.02.03v.08l.02.03h.15l.02-.04v-.07c0-.02 0-.03-.02-.03ZM7.89 8.6a.18.18 0 0 1 .11.01h.04c.05-.04.1-.04.14-.02h.04a.46.46 0 0 1 .29-.04h.03c.07-.03.1.03.15 0a.1.1 0 0 1 .09 0v.04l-.02.02H8.62l-.05.02a.64.64 0 0 0-.03-.02H8.5a.49.49 0 0 1-.26.04h-.06a.18.18 0 0 1-.14 0 .05.05 0 0 0-.05.01l-.04.04h-.06v-.02l-.02-.03a.04.04 0 0 1 0-.04h.02ZM9.46 8.59v.03l-.03.01c-.02 0-.04 0-.07-.02a.06.06 0 0 0-.05-.01c-.02 0-.1.02-.1-.03s.08-.02.1-.01h.06c.02-.02.05-.03.07-.02l.02.02v.03ZM9.5 8.6a.05.05 0 0 1 0-.04v-.02h.02l.22.02.02.02v.05c0 .01 0 .02-.02.02-.04.02-.09.01-.12-.03h-.03l-.01.03h-.03a.1.1 0 0 1-.06-.05ZM9.8 8.65v-.01l-.01-.02c0-.03.02-.05.05-.05.02 0 .05 0 .07.02.05.02.1.03.14 0h.03l.03.02.01.04v.03c-.02.03-.05.03-.09.01a.09.09 0 0 1-.04-.04h-.04c-.04.03-.09.03-.15 0ZM6.98 8.67a.17.17 0 0 1-.09.04l-.23.08c-.1.05-.2.05-.26.09-.35.16-.56.27-.64.33-.13.1-.23.19-.3.27a1.1 1.1 0 0 0-.18.32h-.02v-.62l.01-.04.02-.01h.03l.01.03c.02.06.02.12-.01.16v.04c.03.02.05.02.07 0 .11-.13.21-.2.3-.2h.02l.02-.02c.06-.09.13-.13.21-.12h.02L5.98 9c.05-.06.1-.1.16-.1.1 0 .16-.09.26-.08l.03-.02c.05-.05.13-.09.24-.11h.02l.02.01c.03.03.06.02.08-.02l.02-.02h.17v.01ZM7.32 8.82H7.3V8.8c0-.04 0-.06.03-.07a.13.13 0 0 1 .08-.01c.05 0 .1-.01.14-.05l.03-.02.03.01.02.03v.04c0 .03-.03.04-.08.04-.02 0-.04 0-.05-.02h-.04c-.03.06-.08.08-.14.07ZM11.02 8.7v-.01L11 8.67l.01-.01c.11-.02.2.04.3.03.04 0 .12.03.24.1l.04.01a4.25 4.25 0 0 1 1.07.56v-.02l-.03-.14a.07.07 0 0 1 0-.04l.02-.02h.06v.03l.01.02v.58l-.02.01-.02-.01c-.11-.31-.35-.52-.6-.65-.33-.19-.7-.33-1.07-.43ZM3.76 9.35c0 .02 0 .03-.02.03l-.04.1h-.03c-.2-.2-.45-.36-.74-.47a7.71 7.71 0 0 0-.64-.24.05.05 0 0 1 0-.04l.02-.02c.05 0 .11 0 .17.02a4.04 4.04 0 0 1 1.28.62ZM10.54 8.72c.03-.01.07-.01.14.01l.01.02.01.02v.02l-.02.02c-.05.03-.1.02-.15-.05a.03.03 0 0 1 0-.03h.01ZM14.26 9.46l-.01-.1v-.02s0-.02.02-.02a3.85 3.85 0 0 1 1.42-.61l.02.03v.03l-.01.01a9.6 9.6 0 0 0-.59.2 2.45 2.45 0 0 0-.81.51h-.02l-.01-.01v-.02ZM14.02 9.89H13.45v-.03l-.01-1.07.01-.04h.02l.51-.01.03.01v.04l.01 1.1ZM3.9 8.81c-.03.07-.03.13 0 .16.02.02.02.04.02.05a.1.1 0 0 1-.04.03v.01l-.01.02v.02c.05.03.06.08.04.15v.02l-.03.01H3.8v-.5l.01-.01.02-.01c.04-.01.06.01.08.05ZM14.2 8.8a13.03 13.03 0 0 0-.04.49H14.1l-.01-.01h-.01a.04.04 0 0 1 0-.03v-.13l.02-.01c.03-.01.03-.03.02-.06h-.04v-.01c-.03-.04 0-.08.04-.12a.02.02 0 0 0 0-.02c-.03-.06-.04-.1-.03-.12l.03-.03h.04l.03.01v.04ZM5.33 9.05h-.06l-.01-.02V8.78c.03-.01.04-.02.06-.01 0 0 .02 0 .02.02l.02.03a.1.1 0 0 1 0 .04l-.02.03c-.03.04-.03.08 0 .12v.03l-.01.01ZM10.8 8.87c.03.02.06 0 .07-.03 0-.03-.02-.07-.05-.08-.03 0-.07 0-.07.04-.01.03.01.06.05.07ZM12.66 9c.03-.04.03-.08 0-.12l-.02-.03a.1.1 0 0 1 0-.03l.01-.04.03-.01h.04l.01.02v.02l.02.18v.03l-.03.02h-.05l-.01-.02a.03.03 0 0 1 0-.02Z" fill="#F0F3FA"/><path d="m4.6 8.78.02.05a44.2 44.2 0 0 1 0 1.06h.58v.09l-.53.02h-.01c0 .03.01.05.05.04v.01l-.23-.07H4c-.02 0-.04 0-.05.02l-.03.02a.27.27 0 0 0-.04-.16l.01-.17v-.03l-.01-.01a.1.1 0 0 0-.08 0v-.08c.03.01.06.02.09 0h.01a.04.04 0 0 0 0-.03V9.4a.05.05 0 0 0 0-.03v-.01l-.01-.01c-.07-.02-.12.01-.14.1l-.01-.08c.02 0 .03-.01.01-.03.03 0 .05 0 .06-.02v-.05c.02.01.05.01.07 0h.02l.01-.03c.02-.07 0-.12-.03-.15a.03.03 0 0 1 0-.04.1.1 0 0 0 .04-.05l-.02-.04c-.03-.03-.03-.09 0-.16.04.02.05 0 .06-.02v1.08l.01.02H4.54l.01-.02V8.78h.05ZM14.02 9.89c.01.02.01.05 0 .07h-.35.01a.8.8 0 0 1-.16.01l-.03.01c-.08.07-.17.08-.27.02h-.14a.67.67 0 0 0-.29-.02l.02-.09h.56v-.02l.01-.01V8.82l.06-.03v1.07l.01.02.02.01h.55Z" fill="#145EA2"/><path d="M15.8 8.92a.01.01 0 0 1-.02 0V8.9a.1.1 0 0 1 0-.06c0-.02.02-.03.03-.04h.02a.05.05 0 0 1 .04 0l.02.02.01.03v.03l-.1.04ZM2.2 8.9v.01c0 .01 0 .01 0 0h-.02a.26.26 0 0 1-.07-.03l-.02-.02v-.05H2.22v.1Z" fill="#F0F3FA"/><path d="m4.5 9.78-.01.03H4.02V8.83l.03-.02h.42l.03.02v.93ZM5.14 9.76v.03h-.02l-.01.01H4.67v-.04l-.01-.9v-.03l.02-.01H5.13v.04l.01.9Z" fill="#145EA2"/><path d="M6.8 8.92v-.05l.01-.01h.01l.1.01h.02l.01-.01c.02-.03.05-.04.1-.05h.02l.01.02a.05.05 0 0 1 0 .04c-.03.05-.08.06-.14.05H6.9l-.01.02c-.02.03-.05.04-.1.03l-.05.01c-.04.05-.09.06-.13.04H6.6l-.01.01c-.03.06-.07.09-.14.09l-.04.01a.24.24 0 0 1-.13.08h-.02l-.02-.02a.06.06 0 0 1 0-.05c.05-.06.1-.08.17-.05h.02l.01-.02c.02-.05.07-.08.14-.07h.02l.02-.03c.04-.07.09-.08.15-.03h.02v-.02ZM10.91 8.83c.06-.02.1-.01.13.03h.03c.1-.02.11.06.2.05.03 0 .07.02.1.06l.04.02a4.89 4.89 0 0 0 .46.2 1.85 1.85 0 0 1 .57.38l.02.04a.1.1 0 0 1 0 .05v.03l-.02.01h-.03a1.7 1.7 0 0 0-.3-.25 4.2 4.2 0 0 0-.7-.4c-.01-.02-.03-.02-.05-.02-.05.02-.13-.06-.19-.06-.04 0-.07-.01-.1-.04V8.9h-.03c-.04.03-.09 0-.14-.05a.02.02 0 0 1 0-.03h.01Z" fill="#F0F3FA"/><path d="M13.33 9.76v.03l-.02.01h-.45v-.02l-.01-.02v-.92l.01-.01.01-.01h.45l.01.02v.92ZM13.97 9.77v.03l-.02.01h-.44l-.01-.02V8.84h.03l.4-.01h.02l.01.01.01.02v.91Z" fill="#145EA2"/><path d="M2.3 8.97c.04 0 .07 0 .08-.04 0-.03-.02-.06-.05-.07-.04-.01-.07 0-.07.03-.01.03.01.07.05.08ZM5.09 8.97v.01H4.87c-.02 0-.04-.02-.04-.03v-.01l.01-.02.03-.01.05-.02H5.08v.08ZM13.1 8.89h-.16c-.02 0-.04.03-.04.05 0 .03.02.05.04.05h.16c.02 0 .03-.03.03-.05 0-.03-.02-.05-.03-.05ZM4.35 9.12a.1.1 0 0 1 0 .03l-.01.03-.02.02H4.1l-.01-.01v-.27l.01-.01.02-.01h.02c.02.02.03.03.03.05 0 .03-.03.05-.04.06l-.01.01v.03h.02l.17.01.03.01.01.03v.02Z" fill="#F0F3FA"/><path d="M4.21 8.92V8.9H4.34l.09.01c.02.01.04.02.04.04l-.01.03-.03.01-.04.02h-.16V8.91ZM4.76 9c.02 0 .05-.02.05-.05a.05.05 0 0 0-.05-.06.05.05 0 0 0-.05.05c0 .03.02.05.05.06ZM13.23 8.9h.04l.02.02v.03c-.01.03-.03.05-.06.05-.02 0-.04-.02-.05-.05v-.03l.02-.02h.03ZM13.56 8.91a.39.39 0 0 1 .2 0l.02.01v.06l-.05.03a.05.05 0 0 1-.03 0h-.13l-.03-.02v-.06l.02-.02Z" fill="#F0F3FA"/><path d="M13.64 9.12v-.01l.01-.04.03-.01h.19l.01-.02v-.03c-.03-.01-.05-.03-.05-.06 0-.02 0-.03.03-.05h.04l.01.02v.28h-.24l-.02-.02-.01-.02a.1.1 0 0 1 0-.04ZM2.51 8.97l.01.02h.02c.07-.03.12-.02.13.03l.02.02H2.8l.02.03v.05l-.02.02c-.03 0-.05-.01-.07-.03-.02-.03-.04-.04-.06-.04-.05.02-.1 0-.13-.05L2.53 9H2.5c-.04.03-.07.02-.09-.02a.04.04 0 0 1 0-.04h.01a.1.1 0 0 1 .05-.02l.02.01v.03l.01.01ZM15.38 9.08c.04-.02.06-.05.05-.08 0-.03-.04-.03-.07-.02-.04.02-.06.05-.05.08.01.02.04.03.07.02ZM15.2 9.03c.04 0 .06.01.07.05 0 .02 0 .03-.02.04l-.03.02h-.04l-.02-.04c0-.04.01-.06.05-.07ZM4.8 9.25c.01.05 0 .1-.03.13v.03h.28l.02.02.01.03v.27h-.03l-.2-.01h-.1c-.02.02-.04.01-.04-.01a.1.1 0 0 1 0-.04l.02-.03.02-.02h.03l.02.04.03.03c.02 0 .03-.02.04-.04v-.03h.14l.01-.01v-.02A.26.26 0 0 0 5 9.5h-.02c0-.01 0 0 0 0h-.01c-.05.05-.13.07-.22.04l-.03-.02v-.47l.02-.01H4.95l.01.02.02.03.01.01H5V9.1c.01-.02.03-.04.06-.05a.02.02 0 0 1 .02 0l.01.02V9.16h-.31v.01h-.01v.03l.02.03h.01v.02ZM12.91 9.7v-.28H13.22l.01-.02a.03.03 0 0 0 0-.02.15.15 0 0 0-.04-.06v-.05a.1.1 0 0 1 .03-.04l.01-.02v-.03h-.02a2.8 2.8 0 0 0-.28-.03l-.02-.02V9.1l.01-.03c.03-.03.07-.02.1.03h.02l.01-.02c0-.01 0-.02.02-.03h.2l.01.03V9.54l-.03.02h-.17l-.02-.03v-.01l-.02-.01H13a.18.18 0 0 0-.03.05v.04l.02.01h.1l.03.02.02.04-.01.04-.03.02h-.17l-.01-.01-.01-.02ZM13.59 9.12l-.01.04v.03l-.02.01h-.02V9.09l.02-.01.03.01v.03ZM2.99 9.12l-.06-.02c-.03 0-.05.01-.05.04s0 .06.02.07l.07.02c.02 0 .04-.01.04-.04.01-.03 0-.06-.02-.07ZM15.06 9.22c.04-.01.07-.05.07-.08-.01-.03-.05-.04-.1-.02-.04 0-.07.04-.06.07 0 .03.04.04.09.03ZM6.05 9.28c0-.08.04-.11.14-.1h.02v.02l.01.02v.03a.2.2 0 0 1-.15.07l-.03.01-.01.02-.02.02c-.1.05-.18.13-.28.18a.3.3 0 0 0-.1.1c0 .02-.02.03-.03.04h-.04l-.01-.01-.01-.01-.01-.02a.06.06 0 0 1 0-.05.27.27 0 0 1 .1-.1.1.1 0 0 0 .04-.03c.03-.04.1-.12.16-.12.02 0 .04 0 .05-.03.04-.08.09-.08.15-.02h.01l.01-.02ZM3.15 9.21l.04.02v.01a.04.04 0 0 1 .01.03c-.02.04-.05.05-.08.04-.03-.01-.04-.04-.05-.08v-.01l.01-.01.02-.01.05.01ZM14.87 9.31c.04-.01.06-.05.05-.07 0-.03-.04-.05-.07-.03-.04 0-.07.04-.06.07 0 .03.04.04.08.03Z" fill="#F0F3FA"/><path d="M5.05 9.22h-.17c-.02 0-.03.03-.03.05v.04c0 .02.01.04.03.04h.17c.02 0 .04-.02.04-.04v-.04c0-.03-.02-.05-.04-.05ZM13.1 9.22h-.16c-.02 0-.03.02-.03.04v.06c0 .02 0 .04.03.04h.16c.02 0 .04-.02.04-.04v-.05c0-.03-.02-.05-.04-.05ZM4.46 9.32c0 .03-.02.04-.05.05a.75.75 0 0 0-.16.04h-.02l-.01-.02a.16.16 0 0 1-.02-.07c0-.02 0-.04.02-.07l.01-.01h.02l.16.03c.03 0 .05.02.05.05ZM13.8 9.32c0 .03-.01.06-.03.08l-.02.01h-.02a.42.42 0 0 0-.15-.03c-.02 0-.04-.02-.04-.06 0-.03.02-.05.04-.05.07 0 .12-.02.15-.03h.04c.02.03.03.05.03.08Z" fill="#F0F3FA"/><path d="m13.78 9.66.01.02h.05a.25.25 0 0 0 .02-.1v-.01h-.01l-.14-.01-.02-.01-.02-.02a.06.06 0 0 1 0-.05c0-.02.02-.04.03-.05h.05a.2.2 0 0 0 .1 0h.01v-.01a.04.04 0 0 0 .01-.02.08.08 0 0 0-.03-.05l-.01-.02v-.02c0-.02.03-.04.07-.04h.01v.47h-.36v-.1l.02-.01H13.77v.02l.01.01ZM4.2 9.66a1.14 1.14 0 0 1 .02-.03l.02-.01h.16l.03.01.01.05v.05l-.03.01h-.32l-.01-.03v-.44h.01c.04 0 .07.02.07.04v.04a.08.08 0 0 0-.04.05.04.04 0 0 0 0 .02h.01l.01.01a.2.2 0 0 0 .1 0h.05l.03.04a.07.07 0 0 1 0 .06l-.02.02h-.15v.01h-.01v.02l.01.1h.05v-.02ZM3.8 9.57c-.03-.01-.05-.05-.05-.11.02-.09.07-.12.14-.1l.02.02a.05.05 0 0 1 0 .03.32.32 0 0 0 0 .13.04.04 0 0 1 0 .02l-.01.01h-.01c-.03.02-.06.01-.09 0ZM14.18 9.35h-.06c-.02 0-.04.02-.04.05v.15c0 .02.02.04.04.04h.07c.02 0 .03-.03.03-.05v-.15c0-.02-.02-.04-.04-.04ZM3.43 9.48c.02 0 .04-.03.04-.06 0-.02-.03-.04-.06-.04-.02 0-.04.03-.04.06s.03.05.06.04ZM14.56 9.48c.03.01.06 0 .07-.03 0-.02-.02-.05-.05-.06-.03-.01-.05 0-.06.02 0 .03.01.06.04.07ZM3.53 9.62c.03 0 .06-.02.07-.06 0-.04-.03-.08-.06-.08-.04 0-.07.03-.07.07 0 .03.02.07.06.07ZM14.46 9.62c.04-.01.06-.04.06-.08a.06.06 0 0 0-.07-.05.07.07 0 0 0-.05.07c0 .04.03.06.06.06ZM13.24 9.73a.07.07 0 0 0 .04-.07.05.05 0 0 0-.07-.04.07.07 0 0 0-.03.08c0 .03.03.04.06.03ZM3.71 9.69l.01.01v.04H3.7c-.08.05-.12.05-.14.01a.09.09 0 0 1 .01-.08l.04-.03h.04l.05.05ZM14.28 9.7c.02-.04.04-.06.06-.06h.05a.1.1 0 0 1 .03.04v.05l-.01.04c-.03.03-.07.02-.12-.03l-.01-.02V9.7ZM3.88 9.86c-.03.01-.04-.02-.05-.1v-.02l-.01-.02c-.03-.02-.04-.05-.02-.08a.1.1 0 0 1 .08 0l.01.02v.2ZM14.2 9.64v.03a.26.26 0 0 0-.05.15v.02l-.03.01h-.02v-.2H14.19ZM5.48 9.83c.04 0 .07-.03.07-.06 0-.04-.03-.06-.07-.07-.03 0-.06.03-.06.06 0 .04.03.06.06.07ZM12.55 9.87c.04.06 0 .13.06.18v.01a.03.03 0 0 1 0 .02v.01a.11.11 0 0 1-.09.01h-.01v-.02l.01-.22v-.02l-.02-.02c-.03-.01-.04-.03-.04-.06 0-.02 0-.03.02-.04 0-.01.01-.02.03-.02l.03.01.03.04c0 .02 0 .04-.02.07v.05ZM3.73 9.94c-.04.02-.07.02-.08 0a.08.08 0 0 1 0-.1.07.07 0 0 1 .1 0s.01.03 0 .07v.02h-.02ZM5.43 9.87v-.01h.02l.01.01.03.2v.02l-.02.02a.1.1 0 0 1-.06 0c-.04-.02-.04-.03-.03-.06l.02-.03.02-.02v-.03l.01-.1ZM14.02 9.96l.01.04.02.02h.02c.03 0 .05.01.06.03v.03a37.56 37.56 0 0 1-1.15 0h-.25v-.03l.06-.07a.67.67 0 0 1 .3.01c.04.02.07.02.09.01h.04c.1.06.19.05.27-.02a.05.05 0 0 1 .03 0 .8.8 0 0 0 .14-.02h.36ZM5.2 9.98a.2.2 0 0 0 .06.07.02.02 0 0 1 0 .02v.01c-.03.01-.06 0-.08-.01h-.02v.01l-.01.01h-.01l-.29-.03h-.02a.65.65 0 0 1-.3.02l-.01-.02-.01-.01a.01.01 0 0 0-.01 0v.03h-.64v-.02l.06-.04.03-.02A.08.08 0 0 1 4 9.98h.48l.23.08v-.01c-.04 0-.06-.02-.05-.04V10h.01l.52-.02ZM3.69 10.08c.03 0 .05 0 .05-.02s-.02-.03-.05-.04c-.02 0-.05 0-.05.02s.02.04.05.04ZM14.34 10.02l.01.02v.02c-.03.03-.05.03-.08.02a.03.03 0 0 1 0-.04v-.01c.03 0 .05-.01.07 0ZM5.31 10.16H3.64l-.02.03c0 .02 0 .04.02.04h1.67c.02 0 .03-.02.03-.03 0-.02-.01-.04-.03-.04Z" fill="#F0F3FA"/><path d="M3.63 10.32c.03.07.08.1.15.1h.01v.05h-.13l-.02.01v.05l.01.01c.06.02.12.02.18 0h.01l.01-.02a.05.05 0 0 0 0-.03.33.33 0 0 1 0-.13v-.01h.02c.04.05.08.07.14.06.02 0 .03-.04.04-.1 0 .02 0 .02.02.01.02.08.08.11.19.09l.01-.01.01-.02.02-.06c0 .02 0 .02.02 0l.02.06.02.02h.02l.16.03h.02v-.07l.02-.02h.02l.01.02c.04.07.07.08.1 0h.01l.02-.01h.01l.01.01c.03.04.06.06.1.07h.01v.02l-.27.04v.04a.01.01 0 0 0 .01 0l.05-.01h.04c.07.04.13.04.2.01.02 0 .03-.03.03-.06v-.01h.02v.02c0 .02 0 .05.04.1v.01h-.01l-.25.04h-.01c-.04-.02-.08-.02-.13 0l-.01.01a.03.03 0 0 0 0 .03h.01a.2.2 0 0 0 .14 0h.01l.17.03v.05h-.33l-.02-.01v-.26l-.02-.01h-.32v.03l-.01.02v.03l.02.01.13.01h.01v.01h.01a.03.03 0 0 1 0 .02v.01H4.1v.01h-.01v.03a.02.02 0 0 0 0 .02l.15.02.01.02v.02h-.01a.76.76 0 0 1-.2 0 .02.02 0 0 1 0-.01l.01-.07a.04.04 0 0 0 0-.02l-.01-.01c-.07 0-.12 0-.15.02h-.04a.24.24 0 0 0-.2-.01l-.02.04c-.02-.02-.03-.02-.04 0 .02-.19 0-.3-.05-.36h.09Z" fill="#145EA2"/><path d="M4.05 10.32c0 .05-.02.09-.04.1-.06 0-.1-.02-.14-.07h-.02v.14a.06.06 0 0 1 0 .03v.02h-.02a.32.32 0 0 1-.18 0l-.01-.01a.04.04 0 0 1 0-.05H3.78v-.01l.01-.02v-.02a.01.01 0 0 0 0-.01c-.08 0-.13-.03-.16-.1h.42ZM4.3 10.33l-.02.05v.02l-.03.01c-.1.02-.16 0-.18-.09a.37.37 0 0 1 .23 0Z" fill="#F0F3FA"/><path d="M3.64 10.67c-.01-.02 0-.04.01-.04a.24.24 0 0 1 .2.01.04.04 0 0 0 .04 0c.03-.02.08-.03.15-.02l.01.01a.03.03 0 0 1 0 .03l-.01.06v.01h.2l.01-.02v-.01h-.01l-.14-.02-.01-.01a.02.02 0 0 1 0-.02v-.03h.28l.01-.02a.03.03 0 0 0 0-.02h-.01l-.14-.02-.01-.01-.01-.03v-.04l.03-.01h.32v.27h.01l.01.01h.33v-.04l-.17-.04h-.01a.2.2 0 0 1-.14 0l-.01-.02v-.01h.01c.05-.03.1-.03.13-.01l.26-.03v-.02l-.03-.1v-.02h-.02c0 .04-.01.07-.03.07a.24.24 0 0 1-.2 0c-.01-.02-.03-.02-.04-.01l-.05.02H4.6v-.04l.27-.04v-.02a.16.16 0 0 1-.1-.08h-.02l-.01-.01h-.02v.02c-.04.07-.07.06-.1-.01l-.02-.02h-.02l-.02.02V10.42h-.02l-.16-.01-.02-.01-.02-.02a.15.15 0 0 0-.02-.05 7.64 7.64 0 0 0 .58-.02c.04 0 .06.01.07.05 0 .02 0 .02.02.01l.01-.02v-.02l.01-.01.01-.01H5.22c.01 0 .02 0 .02.02l.01.02v.39a.1.1 0 0 1 0 .04l-.01.02-.02.02h-.03a5.74 5.74 0 0 1-.3 0 17.72 17.72 0 0 1-.42-.01l-.01-.02v-.05h-.02l-.01.01-.02.05-.04.02a76.3 76.3 0 0 1-.32-.01l-.01-.03c0-.04-.04-.06-.09-.05h-.02l-.02-.02c-.01-.03-.03-.04-.06-.04l-.17.03v.02l.05.05.03.01h.02a.12.12 0 0 1 .08-.02v.05h-.17c-.05 0-.07-.04-.05-.14ZM12.68 10.37v.05h-.02v.01h-.02a.09.09 0 0 0-.09 0h-.02l-.01-.01v-.02a.15.15 0 0 1-.01-.05v-.02l.02-.01h.11l.01-.01h.01l.01.01v.05Z" fill="#F0F3FA"/><path d="M13 10.34v.01c.01.03.03.03.04 0v-.03h.34v.02c0 .03-.01.06-.04.07h-.03l-.06-.06h-.02v.01c-.01.04-.04.07-.1.07v.02c.03.02.07.02.12.02h.02l.02.02v.05H13.06a.03.03 0 0 1 0-.03v-.04h-.02c0 .03-.02.06-.04.1v.03h.02c.09 0 .15 0 .2.03h.04a.18.18 0 0 1 .08-.02h.02v.01l.01.02v.01l-.01.03-.03.01a.43.43 0 0 0-.24.01l-.02.01v.04h.34V10.32H13.67a.03.03 0 0 1 0 .03v.02l-.01.03-.03.01H13.47V10.48h.29l.02.01v.08h-.15v.04l.3.03a.3.3 0 0 1 .13-.02l.02.02.01.03v.06l-.03.01h-.09v.02l-.02.05a62.03 62.03 0 0 0-.36 0v-.05h-.01l-.01-.01h-.01v.01l-.01.03-.02.03h-1.01v-.04c.07-.06.13-.05.18.02v.01h.02v-.01a.36.36 0 0 0 0-.24l-.01-.01h-.02c-.06.04-.11.04-.17 0l-.01-.02v-.01c.07-.03.12-.03.17-.01h.03l.02-.02.01-.04v-.03a.15.15 0 0 1-.01-.08l.01-.02H12.98l.01.02Z" fill="#F0F3FA"/><path d="M13.9 10.31h.02v.02a.1.1 0 0 1 0 .03l-.02.03-.02.02h-.12c-.01 0-.03 0-.04-.02a.09.09 0 0 1-.02-.06v-.01h.2ZM14.08 10.4v.01a.01.01 0 0 1-.01 0h-.09l-.02-.02v-.02l-.01-.01v-.03l.02-.02H14.08V10.4ZM14.21 10.47h.1l.03.01v.07H14.14V10.31l.02-.01h.16l.02.01V10.41h-.03c-.04 0-.08 0-.1.02l-.01.01v.02h.01ZM5.44 10.49h-.12c-.01 0-.02.01-.02.03 0 .03 0 .04.02.04h.12c.01 0 .03-.01.03-.03 0-.02-.02-.04-.03-.04ZM5.42 10.7a.23.23 0 0 1 0-.04v-.04h.02l.02.02v.07h-.01a.01.01 0 0 1-.02 0ZM14.15 10.62h.19v.18l-.02.02-.07-.01v-.03c.05-.04.06-.07.03-.09h-.01l-.14-.01v-.05l.02-.01ZM12.57 10.63l.01.02v.02l-.01.02h-.02c-.02 0-.03 0-.02-.02 0-.04.02-.05.04-.04ZM12.65 10.7l-.03-.03v-.04h.02l.03.01v.04l-.02.01ZM12.7 10.69v-.05h.02v.05a.01.01 0 0 1-.02 0ZM5.44 10.74h-.12l-.02.04v.02c0 .01.01.03.03.03l.12-.02s.02-.01.02-.03v-.02c0-.01-.02-.03-.03-.02ZM14.2 10.81h-.05l-.01-.01a.05.05 0 0 1 0-.04c.01-.01.03-.02.05 0h.01v.05Z" fill="#F0F3FA"/></svg>