<!-- by TradingView --><svg width="18" height="18" viewBox="0 0 18 18" xmlns="http://www.w3.org/2000/svg"><path fill="#F0F3FA" d="M0 0h18v18H0z"/><path d="M4.66 12.65c.82-1.26 1.85-2.17 3.3-2.26a1.81 1.81 0 0 0 .78-.28v-.02l-.01-.01h-.02c-.65.15-1.39.16-2.09.16h-.45c-.22 0-.42.06-.62.11-.21.05-.42.1-.65.1A3.48 3.48 0 0 1 3 9.89a.04.04 0 0 1 0-.05h.03a4.9 4.9 0 0 1 3.3.15c.15.06.3.09.45.1A10.7 10.7 0 0 0 11 9.25a.04.04 0 0 0 0-.05l-.02-.01c-.39-.03-.66.07-1.1.24h-.02c-1.23.49-2.44.03-3.55-.55-.01 0-.02 0-.02-.02a.05.05 0 0 1 0-.05l.02-.01c.66-.2 1.26-.34 2.02-.33a7.1 7.1 0 0 1 2.82.62c.06.03.13.03.2 0 1.6-.69 3.26-2.04 3.46-4.03l.01-.03.02-.02.03-.02h.03l.05.01.03.02.01.04c-.13 1.74-1.43 3.06-2.77 3.81l-.64.36a.26.26 0 0 0-.1.11 8.07 8.07 0 0 1-1.88 2.63 5.87 5.87 0 0 1-1.54 1.01l-.01-.02v-.02a5.48 5.48 0 0 1 2.02-2.87l.12-.05c.35-.15.91-.39 1.03-.6V9.4l-.02-.01h-.02c-.7.3-1.39.5-2.09.63a.27.27 0 0 0-.15.09c-.27.3-.5.54-.71.74a6.8 6.8 0 0 1-3.58 1.84.04.04 0 0 1 0-.04Zm6.7-3.97c.32.13.63.04.7-.19.08-.23-.12-.5-.43-.63-.32-.12-.64-.04-.71.19-.07.23.12.51.44.63Zm.76 2.33c-.31 0-.56-.44-.55-.98 0-.53.27-.95.59-.94.32 0 .57.44.56.97-.01.53-.28.96-.6.95Z" fill="#D5BC82"/></svg>