<!-- by TradingView --><svg width="18" height="18" xmlns="http://www.w3.org/2000/svg"><path fill="#F6F8FD" d="M0 0h18v18H0z"/><path d="M4.62 5c-.72-.004-1.1.239-1.575.592-.06.05-.115.104-.164.165-.366.408-.63.887-.78 1.545-.149.66-.215 2.108.396 3.216.278.502.918 1.148.918 1.148 1.417 1.43 3.893 1.997 6.812 1.86 1.522-.07 2.77-.455 3.858-1.135A4.03 4.03 0 0016 9.136V8.97c-.04-1.267-.551-2.042-1.19-2.68-.636-.635-1.53-1.007-2.6-1.054-.588-.026-1.06.094-1.52.205-.386.094-.755.255-1.176.274-.294.013-.587-.075-.875-.082-.073.076-.06.192-.11.273-.12.2-.496.29-.834.26-.561-.049-.935-.395-1.368-.67A3.217 3.217 0 004.62 5h.001z" fill="#561B0D"/><path d="M4.574 5.131a2.16 2.16 0 00-1.6.716c-.363.39-.567.835-.74 1.464l.246.04c.212-.905.861-1.851 1.874-1.928.626-.048 1.123.201 1.355.643.028.054.031.148.082.205.055.062.18.039.232.123-.002.108-.1.055-.15.055-.353 0-.676-.012-.971.11-.127.051-.182.16-.342.136.088-.205.348-.22.424-.41a.452.452 0 00-.123-.48c-.215-.17-.564.006-.712.124-.747.596-.528 1.962-.027 2.585.285.356.764.649 1.327.575.305-.04.347-.236.588-.356-.143.55-.66.91-1.327.958-.349.025-.63-.035-.985-.205-.991-.479-.962-1.677-.99-2.039-.194.043-.203 1.475 0 2.122.374 1.19 1.154 1.791 1.565 2.12.085.067.671.505.998.505.041-.825-.013-1.746.028-2.571.191-.11.405-.172.533-.329.091-.11.35-.578.178-.643-.104-.039-.247.204-.37.274a.5.5 0 01-.355.082c-.024-.118.003-.276-.027-.41-.021-.094-.098-.15-.082-.22.31-.048.678-.027 1.026-.027.346 0 .72-.013.97.096.304.131.506.592.397.958-.095.322-.436.405-.82.465.496.001.881.14 1.149.356.03.024.047.095.096.068-.04-.36.046-.71.232-.903a.854.854 0 01.41-.219c.218-.028.335.115.534.123.085.004.176-.062.26-.027.001.53-.071 1.174.014 1.655-.2-.019-.48.042-.616-.041-.12.094-.339.094-.506.041 0-.008-.011-.015-.014 0 .23 1.037-.305 1.733-1.122 1.902 1.84.305 4.237.226 5.65-.41-1.625.019-2.258-.952-2.653-2.162-.03.185-.018.518.013.643h-.63c.07-.226.042-.528.042-.848 0-.362.025-.678-.069-.876.606.013 1.25-.114 1.382.342.1.35-.188.5-.479.561.116.044.283-.017.356-.014.052.286.14.535.26.753-.034-.539.094-1.25-.055-1.642.328.038.716-.048 1.026.014.254.05.444.331.356.602-.062.191-.284.217-.479.3.121.008.22-.007.328-.013.073.324.209.585.342.848-.232-.009-.5.018-.711-.014-.003-.293-.125-.468-.219-.67-.008.23-.027.523.014.684h-.547c.137.364.364.629.656.876.253.213.643.48 1.04.506.411.025.75-.23 1.012-.41.323-.223.555-.428.766-.671.438-.505.816-1.208.835-2.025a3.178 3.178 0 00-.233-1.19c-.384-.98-1.261-1.75-2.558-1.75-.928 0-1.542.362-2.12.765.117-.029.203-.088.328-.109.103.5.205.999.438 1.368h-.698c-.108-.311-.172-.667-.287-.971.005.216-.053.57-.014.793.013.074.065.108.055.164H9.62c.03-.058.034-.1.041-.178.055-.625.02-1.402-.04-1.928.245-.032.47-.085.683-.15.017.275.012.571.027.847.672-.42 1.386-.88 2.572-.807a2.75 2.75 0 011.93.93 3.45 3.45 0 01.82 2.039c.045.81-.26 1.44-.588 1.956-.588.923-1.544 1.499-2.668 1.847-1.727.534-4.264.473-6.06.027-1.145-.284-2.024-.805-2.735-1.49 0 0-.868-.767-1.123-1.916-.153-.69-.13-1.534 0-2.093l-.246-.041c-.05.182-.15 1.12-.042 1.778.107.658.144.906.543 1.573.233.388.69.821.69.821 1.442 1.533 4.327 2.158 7.264 1.86 1.4-.141 2.53-.547 3.447-1.176.844-.578 1.645-1.612 1.71-2.914.067-1.336-.502-2.264-1.176-2.886-.632-.583-1.428-1.006-2.627-.998-.474.002-.89.095-1.286.191-.642.156-1.286.436-2.052.205-.089.418-.505.583-1.067.534-.602-.053-.996-.43-1.463-.712-.412-.249-.986-.464-1.601-.456zm7.361 1.403c.03.001.061.005.093.01.321.058.525.407.465.862-.196.032-.45.005-.67.014-.002.247.094.426.274.424.201-.002.171-.289.41-.232-.066.233-.121.493-.3.629-.204.153-.573.108-.767-.055-.194-.163-.268-.534-.246-.82.03-.396.288-.851.741-.832zm1.34.004c.422.008.778.089.737.526-.023.243-.238.319-.52.356.091.06.223.024.342.014.069.323.235.622.356.848h-.698c-.018-.288-.137-.474-.219-.698-.047.18-.044.521.014.684h-.643c.046-.201.027-.517.027-.848 0-.36.037-.684-.068-.875.153.003.322-.004.488-.007a5.27 5.27 0 01.184 0zm-7.625.014c.472-.005.896.026.948.417.04.308-.212.448-.548.478.097.06.258.01.37 0 .064.324.23.617.342.849h-.698c.005-.293-.142-.433-.205-.657-.048.164-.047.51.014.657H5.23c-.01-.34.1-1.125.027-1.533-.014-.078-.086-.133-.082-.205.156.002.318-.004.475-.006zm3.38.007a.993.993 0 01.44.122c-.011.172.02.478-.013.67-.195.027-.151-.197-.192-.314-.043-.123-.136-.288-.246-.287-.319.004-.246 1.111.096 1.122.166.005.188-.191.396-.233.13.507-.542.873-.957.63-.43-.253-.47-1.06-.137-1.437a.777.777 0 01.613-.273zm-1.616.019c.028 0 .057.003.086.008.173.025.307.13.589.082.022.477-.047 1.158.04 1.614-.176.011-.495.05-.629-.027-.587.242-.909-.322-.848-.917.042-.408.337-.773.762-.76zm5.91.169a.278.278 0 00-.065.003 2.001 2.001 0 000 .52c.332.047.361-.5.064-.523zm-1.36.014c-.16.006-.186.298-.168.468.075.058.218.017.273-.028.03-.14.023-.3-.027-.424a.182.182 0 00-.077-.016zm-6.024.01a.223.223 0 00-.122.02c.009.16-.017.355.014.492.335.095.355-.476.108-.512zm1.536.07c-.386-.01-.288 1.232.025 1.154.072-.137.04-.36.04-.561 0-.214.021-.431-.027-.588a.2.2 0 00-.038-.005zm7.138 1.77h.027c.068.67-.096 1.456-.014 2.092.011.086.057.158.082.206h-.82c.102-.211.068-.637.068-1.095 0-.432.028-.842-.055-1.067.278-.005.505-.06.712-.137zm-8.262.068c-.017.005-.028.017-.027.04.009.302-.018.639.014.917.578.084.555-.976.013-.957zm9.63.287v.164c.024-.024.024-.14 0-.164zm-2.814.196c.357-.01.7.28.599.857h-.67c.008.25.092.455.314.424.169-.023.148-.283.37-.232-.053.237-.108.472-.274.615-.208.181-.609.138-.807-.054-.311-.302-.303-1.085.014-1.41a.66.66 0 01.454-.2zm.093.207c-.192-.013-.19.3-.192.459.072.068.202.03.274-.014.047-.128.033-.348-.041-.438a.215.215 0 00-.041-.007zm-1.507.004a.287.287 0 00-.066.003c-.032.152-.006.36-.014.534.341.06.386-.513.08-.537zm-1.504.025a.297.297 0 00-.067.006v.533c.329.063.381-.53.067-.54zm-1.481.037c-.338.028-.272 1.195.06 1.159.036-.334.069-.812.013-1.15a.18.18 0 00-.073-.01zm-2.416.64a.069.069 0 00-.041.04c.003.79.021 1.565.013 2.367 1.197.243 1.367-1.55.684-2.162a1.098 1.098 0 00-.656-.246z" fill="#F9A61A"/></svg>