<!-- by TradingView --><svg width="18" height="18" xmlns="http://www.w3.org/2000/svg"><path fill="#F0F3FA" d="M0 0h18v18H0z"/><path d="M8.004 9L5 4l4.502 2.5L8.004 9z" fill="#F79210"/><path d="M14 9H8.004L9.5 6.5 14 9z" fill="#E52F1F"/><path d="M14 9L9.501 6.5l1.5-2.5L14 9z" fill="#CF181F"/><path d="M9.502 6.5L5 4h6L9.502 6.5z" fill="#E85726"/><path d="M5 14l3.004-5L9.5 11.5 5 14z" fill="#F9A70D"/><path d="M9.501 11.5L8.004 9H14L9.5 11.5z" fill="#E85726"/><path d="M14 9l-3 5-1.499-2.5L13.999 9z" fill="#CF181F"/><path d="M11.001 14H5l4.501-2.5 1.5 2.5z" fill="#E52F1F"/></svg>