<!-- by TradingView --><svg width="18" height="18" viewBox="0 0 18 18" xmlns="http://www.w3.org/2000/svg"><path fill="#F0F3FA" d="M0 0h18v18H0z"/><path d="M9 3 4 6v6l4.93 2.96L9 15l4.98-2.99H14V6L9 3Zm.19 6 4.41-2.65-2.2 3.97L9.18 9Zm2.11 1.5-2.2 3.96v-5.3l2.2 1.33ZM9.1 8.82V6.18h4.4L9.1 8.83ZM9.1 6V3.4l4.3 2.59H9.1Zm4.52 5.9L9.3 14.46l2.15-3.88 2.16 1.3Zm.07-5.35v5.18l-2.13-1.3 2.13-3.88ZM8.9 9.17v5.3L6.7 10.48l2.2-1.32Zm-2.3 1.15L4.4 6.35 8.81 9l-2.2 1.32Zm-.07.27 2.15 3.88-4.3-2.59 2.15-1.29Zm-.1-.17-2.13 1.3V6.54l2.13 3.88Zm2.47-4.24v2.65L4.49 6.18h4.42Zm0-2.78v2.59H4.59L8.91 3.4Z" fill="#6FA5D9"/></svg>