<!-- by TradingView --><svg xmlns="http://www.w3.org/2000/svg" width="18" height="18" viewBox="0 0 18 18"><path fill="#F0F3FA" d="M0 0h18v18H0z"/><path d="M4.44 5L4 13h10l-.48-8H4.44z" fill="url(#agh3jj3wf)"/><path d="M4 13h10l-.48-8h-.02l-.5.73-3.95 2.83-4.49 3.76-.55.68z" fill="#8C4105"/><path d="M4.88 5.63l-.4 6.74h9.04l-.43-6.74H4.88z" fill="url(#bgh3jj3wf)"/><path d="M9.86 6.45c1.24 0 1.4.57 1.15 1-.07.1-.27.02-.35-.08-.14-.17-.43-.34-1-.34-1.2 0-2.14 1.36-2.14 2.12 0 .75.4 1.75 1.44 1.75.84 0 1.39-.52 1.56-.78h.24v.9c-.11.17-.64.53-1.8.53-4.4 0-3.11-5.1.9-5.1z" fill="#FFD133"/><path d="M10.88 6.9c.07.02.2.08.17.24-.02.2-.15.35-.3.21-.17-.13-.5-.35-1.12-.35-.62 0-2.26.48-2.26 2.25 0 1.43 1.08 1.8 1.62 1.82.24.05.9-.01 1.64-.72.04-.02.13 0 .11.2 0 .26-.32.96-1.75.96-1.13 0-1.7-.29-1.85-.44.08.08.49.2 1.55.15a1.88 1.88 0 0 1-1.56-1.97c0-1.38 1.3-2.22 1.93-2.46l1.82.12z" fill="#FFFFBE"/><path d="M9.63 6.77c.21.02.69.1.9.31.1.08.15.15.2.2.11.13.15.17.15.06 0-.1-.05-.16-.08-.2-.02-.03-.03-.05-.02-.06l.16-.13c.1-.07-.37-.4-1.13-.4-.76 0-3.4.47-3.52 3.02 0 .4.25 1.27 1.2 1.57-.33-.19-1-.75-1-1.48.02-.9.68-2.7 3.14-2.89zm.97 3.45c-.16.28-.7.85-1.69.85-.97 0-1.48-.72-1.61-1.08.04.42.43 1.26 1.63 1.26 1.21 0 1.64-.5 1.7-.75.03-.1.05-.28-.03-.28z" fill="#A25800"/><defs><linearGradient id="agh3jj3wf" x1="7.82" y1="3.36" x2="1.84" y2="4.73" gradientUnits="userSpaceOnUse"><stop stop-color="#FFCF37"/><stop offset=".56" stop-color="#FFC936" stop-opacity=".44"/><stop offset=".64" stop-color="#E0AB68"/><stop offset="1" stop-color="#DEB26A"/></linearGradient><linearGradient id="bgh3jj3wf" x1="4.93" y1="15.59" x2="14.4" y2="14.6" gradientUnits="userSpaceOnUse"><stop stop-color="#D1841A"/><stop offset=".2" stop-color="#D29A15"/><stop offset=".37" stop-color="#D2861A"/><stop offset=".57" stop-color="#F2C011"/><stop offset=".86" stop-color="#CC801A"/><stop offset="1" stop-color="#D1841A"/></linearGradient></defs></svg>