<!-- by TradingView --><svg width="18" height="18" viewBox="0 0 18 18" xmlns="http://www.w3.org/2000/svg"><path fill="#F0F3FA" d="M0 0h18v18H0z"/><path d="M4.32 10.69h.02a.1.1 0 0 1 .06.06.1.1 0 0 1 0 .07c-.71 1.88 1.34 3.38 2.96 3.74.9.2 1.84.23 2.8.09 1.9-.28 3.81-1.51 3.53-3.67a.06.06 0 0 0-.02-.04.07.07 0 0 0-.04-.01H13.53l-.02.01v.03c.15 2.06-1.35 3.05-3.14 3.48a.89.89 0 0 1-.23.02c-.69 0-1.22 0-1.57.02a4.66 4.66 0 0 1-3.06-1 2.47 2.47 0 0 1-.94-2.47.14.14 0 0 1 .14-.06h.04c.03.01.06.03.08.06.02.03.03.07.02.1C4.51 12.9 6.2 14 7.8 14.26c.22.03.73.06 1.53.07 1.62.03 4.04-.97 3.87-2.88-.03-.37.14-.57.41-.71a.18.18 0 0 1 .2.02l.05.06c.12.3.17.6.14.91-.22 2.41-3.19 3.34-5.22 3.27-2.1-.08-5.62-1.45-4.58-4.25a.1.1 0 0 1 .05-.06.1.1 0 0 1 .08 0Zm3.15 1.53c.47.14.97.2 1.51.2s1.04-.06 1.5-.2a.3.3 0 0 1 .3.08c.3.31.49.6.56.84a.33.33 0 0 1-.24.41c-.64.19-1.35.28-2.12.28-.78 0-1.48-.1-2.12-.28a.34.34 0 0 1-.2-.16.34.34 0 0 1-.04-.26c.07-.24.26-.52.56-.84a.3.3 0 0 1 .3-.07Zm1.25-9.2v.07c-.2.24-.29.46-.29.64 0 .1.02.2.05.29l.32.85.04.2c.01.33-.1.6-.35.83a.07.07 0 0 0-.02.04v.04L8.5 6h.04L8.63 6a4 4 0 0 0 .67-1.27c.1-.3.31-.42.65-.34h-.1a.51.51 0 0 0-.46.31.5.5 0 0 0-.03.2c.02 1-.37 1.54-.9 2.68-.12.26-.06.55.17.86.57.58 1.1.59 1.61.03.34-.37.27-.75-.19-1.13a.3.3 0 0 0-.22-.07c-.2.02-.36.06-.47.13a.1.1 0 0 1-.06.01.1.1 0 0 1-.1-.08c0-.02 0-.04.02-.06.47-.95 1.66-1.04 2.4-.3.51.5.63 1.22.36 2.17l-.06.2-.06.14a3.28 3.28 0 0 1-.67 1.01v.04l.03.02h.04c.68-.15 1.37-.26 1.94-.76a.16.16 0 0 0 .05-.15.16.16 0 0 0-.11-.12l-.76-.24a.07.07 0 0 1-.04-.06c0-.02 0-.03.02-.04a.07.07 0 0 1 .04-.02c.48-.06.89.06 1.23.35.1.07.15.18.16.3a.5.5 0 0 1-.09.34c-.25.36-.56.65-.92.88a6.61 6.61 0 0 1-6.16.68l-.42-.17-.3-.13a3.8 3.8 0 0 1-1.63-1.3.47.47 0 0 1-.07-.38.47.47 0 0 1 .23-.3c.48-.28.87-.36 1.17-.26.02 0 .03 0 .04.02a.07.07 0 0 1-.05.1c-.35.06-.61.17-.77.34a.16.16 0 0 0-.02.19l.05.05c.73.46 1.26.49 1.98.68a.07.07 0 0 0 .08-.03l.01-.04c0-.02 0-.03-.02-.04a3.14 3.14 0 0 1-.8-1.37l-.18-.93a.38.38 0 0 0-.05-.12l-.28-.47a1.01 1.01 0 0 1-.1-1.09c.27-.53.65-1.07 1.13-1.6.36-.4.46-.82.29-1.25v-.04l.01-.02.03-.02.04.01c.5.36.65.98.46 1.85v.04l.03.02h.03l.02-.01c.45-.45.43-1.09.44-1.75 0-.1.03-.19.08-.27.12-.18.32-.32.6-.42h.04l.03.02Zm2.48 1.81.04.03.01.04v.23a.1.1 0 0 0 .07.1.11.11 0 0 0 .11-.02c.31-.26.53-.37.65-.35.01 0 .03 0 .04.02l.02.03v.05c0 .01 0 .02-.02.03-.22.24-.35.52-.4.86a.54.54 0 0 1-.66.43c-.5-.11-.93-.07-1.3.13a.12.12 0 0 1-.13-.02.11.11 0 0 1-.03-.12l.14-.45a.5.5 0 0 1 .3-.3 2.5 2.5 0 0 0 1.12-.69h.04Z" fill="url(#a)"/><defs><linearGradient id="a" x1="6.12" y1="6.05" x2="10.56" y2="14.68" gradientUnits="userSpaceOnUse"><stop stop-color="#ED913C"/><stop offset="1" stop-color="#BE1025"/></linearGradient></defs></svg>