<!-- by TradingView --><svg width="18" height="18" xmlns="http://www.w3.org/2000/svg"><path fill="#968966" d="M0 0h18v18H0z"/><path d="M13.19 10.725c-1.078-.55-2.856-.76-4.281-.76a12.048 12.048 0 00-3.003.342c-.44.086-.864.231-1.26.432-.336-1.3-.696-2.066-1.717-2.818a4.87 4.87 0 011.211-.873c.4.812.955.96 1.201.987.192.02.386-.013.559-.096a.969.969 0 00.41-.372 1.17 1.17 0 00.174-.633 1.927 1.927 0 00-.264-.92c.48-.19.993-.3 1.514-.324a2.79 2.79 0 00-.024.332c0 .61.214 1.093.616 1.355a1.088 1.088 0 001.202 0c.424-.272.652-.777.652-1.414a1.867 1.867 0 00-.018-.311A5.035 5.035 0 0111.638 6a1.913 1.913 0 00-.283.938c-.004.228.06.451.182.646.106.166.26.297.445.378.184.082.39.109.59.078.497-.066.916-.435 1.17-1 .45.238.855.544 1.2.905-1.082.66-1.386 1.502-1.753 2.777v.003zm-1.18 1.306a12.882 12.882 0 01-3.103.332 12.898 12.898 0 01-3.103-.332c-.801-.205-1.033-.422-1.075-.5.376-.28.81-.48 1.275-.587a13.548 13.548 0 012.903-.283c1.045-.013 2.088.1 3.103.336.89.228 1.081.473 1.081.52 0 .048-.2.293-1.081.523v-.01zm3.648-4.276a5.651 5.651 0 00-1.974-1.425l-.35-.152-.103.342c-.176.61-.508.865-.76.899a.386.386 0 01-.217-.025.363.363 0 01-.164-.137c-.134-.207-.132-.634.288-1.214l.217-.283-.34-.16a5.816 5.816 0 00-2.477-.587L9.355 5l.09.391c.189.83-.026 1.308-.29 1.475a.4.4 0 01-.454 0c-.25-.163-.447-.627-.25-1.444l.098-.412-.563.038c-.8.053-1.417.095-2.382.552l-.347.16.218.295c.4.55.4.976.269 1.191a.324.324 0 01-.138.13.348.348 0 01-.19.035c-.239-.024-.57-.277-.791-.91l-.127-.36-.346.19c-.879.463-1.513.866-1.964 1.48L2 8.066l.27.19c1.12.734 1.428 1.345 1.832 3.014a.61.61 0 00-.052.245C4.05 12.534 6.563 13 8.897 13c2.334 0 4.845-.466 4.845-1.484a.59.59 0 00-.036-.205l.038-.133c.444-1.555.644-2.267 1.87-2.873l.386-.19-.342-.36z" fill="#fff"/><path d="M9.506 8a.5.5 0 10.494.506.497.497 0 00-.494-.497M7.5 8a.5.5 0 100 1 .5.5 0 000-1zM10.509 9a.5.5 0 10.345.147A.5.5 0 0010.5 9M5.503 9a.5.5 0 10-.006 1 .5.5 0 00.006-1zM12.503 9a.5.5 0 10-.006 1 .5.5 0 00.006-1z" fill="#fff"/></svg>