<!-- by TradingView --><svg width="18" height="18" viewBox="0 0 18 18" xmlns="http://www.w3.org/2000/svg"><path fill="#F0F3FA" d="M0 0h18v18H0z"/><path d="M2.95 9.4 2 10.74c.39.8 1.53 1.84 2.05 2.26h7.75v-.1c-4.39-.3-5.9-1.14-7.08-1.74A4.37 4.37 0 0 1 2.95 9.4ZM15.05 8.6 16 7.26A8.67 8.67 0 0 0 13.95 5H6.2v.1c4.39.3 5.9 1.14 7.08 1.74a4.36 4.36 0 0 1 1.77 1.76Z" fill="#EE021F"/><path fill-rule="evenodd" d="m3.33 8.92 2.3-3.12c1.02 0 3.55.16 5.55.83 2.27.77 2.87 1.6 3.34 2.25l.14.2-2.3 3.12c-2.07-.13-6.55-.73-7.96-2.09-.44-.32-.9-.93-1.07-1.2Zm6.69-.9.48-.55A1.54 1.54 0 0 0 9.4 7c-.7 0-1.24.48-1.24 1.17 0 .68.57.92.98 1.08.4.16.58.35.58.6 0 .24-.16.37-.52.37-.29 0-.58-.25-.7-.38l-.5.59c.16.17.63.51 1.2.51.71 0 1.3-.4 1.3-1.21 0-.8-.8-1.12-1.03-1.16-.22-.04-.53-.19-.53-.46s.28-.38.53-.38c.2 0 .32.1.45.21l.1.09ZM6.74 11c.5 0 .94-.24 1.26-.62l-.48-.59a.93.93 0 0 1-.72.36c-.55 0-1-.53-1-1.18 0-.65.45-1.17 1-1.17.26 0 .5.11.67.3l.5-.5c-.3-.37-.75-.6-1.23-.6C5.78 7 5 7.9 5 9s.78 2 1.74 2ZM11 7h1v4h-1V7Z" fill="#1E2D72"/></svg>