<!-- by TradingView --><svg width="18" height="18" xmlns="http://www.w3.org/2000/svg"><path fill="#F0F3FA" d="M0 0h18v18H0z"/><path d="M8.319 5.002l-.926.375c-.817.338-2.136 1.176-2.724 2.087C4.136 8.29 4.004 8.91 4 9.04V5.977a.97.97 0 01.966-.975h3.353zM13.998 9.006c-1.19.957-3.177 2.046-4.066 2.407-.755.307-2.489.925-3.876.65C4.699 11.794 4.272 11.038 4 10.55v1.474a.97.97 0 00.966.975h8c.534 0 1.032-.454 1.032-.993V9.006z" fill="#2A2F4C"/><path d="M13.998 6.249v1.324c-.941.775-2.227 1.71-3.582 2.403-2.22 1.08-3.63.75-4.174.375-.417-.259-1.077-1.105-.334-2.425.928-1.65 3.43-2.386 4.124-2.574.693-.187 1.424-.375 2.576-.35 1.226.027 1.415.826 1.39 1.247z" fill="#279DD7"/></svg>