<!-- by TradingView --><svg width="18" height="18" xmlns="http://www.w3.org/2000/svg"><path fill="url(#paint0_linear)" d="M0 0h18v18H0z"/><path fill-rule="evenodd" d="M9.826 5.15a1.225 1.225 0 00-.656 1.076l.015.015-.014-.015c.005-.448.247-.86.655-1.077zm2.092 1.502c.086-.332.093-.708-.068-1.039-.097-.219-.25-.41-.432-.558-.463-.393-1.198-.476-1.738-.168-.317.17-.553.435-.686.747a2.015 2.015 0 00-.076-.158l-.003-.006-.004-.006a1.608 1.608 0 00-.744-.643c-.551-.233-1.248-.122-1.681.314-.395.388-.577.96-.422 1.52a1.608 1.608 0 00-1.44-.172h-.002a1.57 1.57 0 00-.94 1.037 1.527 1.527 0 00.506 1.587l.01.01.128.086a1.595 1.595 0 00-1.495.924c-.234.499-.144 1.152.189 1.573l.005.006c.318.379.753.6 1.263.59l4.484.005H9.227l4.483-.006c.51.01.945-.21 1.263-.589l.005-.006c.334-.42.424-1.074.19-1.573a1.595 1.595 0 00-1.48-.924l.06-.045c.12-.09.25-.205.353-.365.155-.224.24-.503.258-.776a1.44 1.44 0 00-.174-.81c-.23-.446-.686-.728-1.126-.808l-.007-.001-.007-.001a1.627 1.627 0 00-1.128.255zM7.4 5.012a1.204 1.204 0 00-.703.336c-.337.33-.48.817-.327 1.28l1.619 3.605.052.104-.052-.104-1.62-3.605c-.151-.463-.009-.95.328-1.28.186-.188.439-.302.703-.336zm1.99 2.659l.001.002-.11-.695c-.038-.273.188-.421.392-.556.054-.035.107-.07.153-.106-.006-.035-.034-.044-.064-.054a.186.186 0 01-.04-.017c.011.008.026.013.04.017.01.004.021.007.03.012.017.008.03.02.034.042-.033.025-.069.05-.106.075l-.047.031-.09.06-.016.011a1.604 1.604 0 00-.068.05c-.138.109-.246.24-.22.435l.111.693zm3.617-.977c-.541-.07-1.05.166-1.315.638L10 11.13l1.692-3.798c.266-.472.774-.709 1.315-.638zM4.48 9.52a1.293 1.293 0 00-1.376.733c-.186.392-.115.926.151 1.261-.266-.335-.337-.87-.152-1.261a1.293 1.293 0 011.377-.733zM10 11.813l3.064-2.128L10 11.813zM5.368 6.7a1.318 1.318 0 00-.64.065 1.27 1.27 0 00-.756.831c-.128.482.029.964.409 1.28L8 11.363 4.38 8.877a1.227 1.227 0 01-.408-1.28c.095-.364.399-.7.755-.832.21-.076.43-.096.64-.065z" fill="#fff"/><path d="M13.923 7.351c.219.369.171.93-.07 1.276-.153.24-.4.363-.609.52l-3.361 2.29h-.01l.039-.108 1.78-3.997c.266-.472.774-.709 1.315-.638.366.066.736.303.916.657z" fill="#0089CF"/><path d="M6.294 7.332l1.851 4.11h-.028L4.38 8.877a1.227 1.227 0 01-.409-1.28c.095-.364.399-.7.755-.832a1.29 1.29 0 011.567.567z" fill="#F36F21"/><path d="M14.896 10.252c.186.392.114.926-.152 1.261-.265.317-.617.492-1.03.482L9.731 12l3.333-2.315a1.295 1.295 0 011.177-.076c.276.109.537.374.655.643z" fill="#0DB14B"/><path d="M3.103 10.252c-.185.392-.114.926.152 1.261.266.317.618.492 1.03.482L8.27 12 4.936 9.685a1.295 1.295 0 00-1.177-.076 1.293 1.293 0 00-.656.643z" fill="#FDB913"/><path d="M11.578 5.74c.195.392.08.912-.123 1.266l-1.586 3.553-.014.019-.575-3.6c-.047-.345.328-.492.546-.662-.01-.052-.066-.047-.104-.07l-.537-.005-.014-.015c.005-.448.247-.86.655-1.077.427-.246 1.03-.18 1.4.137.153.123.276.279.352.454z" fill="#645FAA"/><path d="M8.653 5.617c.129.241.205.51.157.808l-.646 4.125c.005.004-.004.01-.01.014l-.165-.33-1.62-3.606c-.151-.463-.009-.95.328-1.28.342-.345.907-.44 1.353-.25.238.099.466.287.603.519z" fill="#C9234A"/><defs><linearGradient id="paint0_linear" x1="3.349" y1="3.122" x2="21.904" y2="24.434" gradientUnits="userSpaceOnUse"><stop stop-color="#1A1E21"/><stop offset="1" stop-color="#06060A"/></linearGradient></defs></svg>