<!-- by TradingView --><svg width="18" height="18" viewBox="0 0 18 18" xmlns="http://www.w3.org/2000/svg"><path fill="#F0F3FA" d="M0 0h18v18H0z"/><path fill-rule="evenodd" d="M7.95 11.5v1.08a3.6 3.6 0 0 1-1.92.42C4.67 13 3 12.3 3 8.88S5.4 5 6.22 5c.82 0 1.38.23 1.96.62l-.52 1.2C7.46 6.6 6.9 6 6.22 6 5.37 6 4 6.85 4 9s1.24 3 2.22 3a3.85 3.85 0 0 0 1.73-.5ZM11.32 5H9v8h2.32c.8 0 3.68-.63 3.68-4.05C15 6.21 13.46 5 11.32 5Zm.23 1H10v6h1.55c.53 0 2.45-.47 2.45-3.04C14 6.91 12.97 6 11.55 6Z" fill="#1C244E"/></svg>