<!-- by TradingView --><svg width="18" height="18" xmlns="http://www.w3.org/2000/svg"><path fill="#0C2459" d="M0 0h18v18H0z"/><path d="M7.413 13.28c-.76-.406-1.34-1.036-1.787-1.802A5.398 5.398 0 015 8.957c0-.856.223-1.756.626-2.477.402-.765 1.028-1.35 1.787-1.8a5.305 5.305 0 012.593-.676c1.072-.045 2.1.315 2.994.9l-.983 1.531c-.581-.45-1.252-.72-2.011-.72-.581 0-1.162.135-1.654.45-.447.27-.85.72-1.073 1.216a3.04 3.04 0 00-.357 1.666c0 .585.134 1.126.357 1.62a3.04 3.04 0 002.727 1.667c.715 0 1.43-.27 2.01-.72l.984 1.44a5.141 5.141 0 01-2.994.946 5.9 5.9 0 01-2.593-.72z" fill="#fff"/></svg>