<!-- by TradingView --><svg xmlns="http://www.w3.org/2000/svg" width="18" height="18"><path fill="#F0F3FA" d="M0 0h18v18H0z"/><path d="M14 8H4v4h10V8z" fill="#B2B2B4"/><path d="M8.34 5.74a8.3 8.3 0 012.37-.37c1.4 0 2.48.45 2.72 1.27.14.46-.01.97-.38 1.47h.42c.33-.53.44-1.08.3-1.58-.44-1.45-2.87-1.96-5.53-1.14-1.9.58-3.3 1.63-3.84 2.72h.4c.54-.93 1.87-1.86 3.54-2.37z" fill="#F68944"/><path d="M4.25 9.34c.3.9 1.48 1.39 3.06 1.39.76 0 1.6-.12 2.47-.36 1.75-.5 3.08-1.35 3.7-2.26h-.43a6.75 6.75 0 01-3.38 1.94c-2.44.68-4.72.32-5.08-.82-.12-.34-.04-.74.21-1.12h-.4c-.22.43-.28.84-.15 1.23z" fill="#444E69"/><path d="M3.4 9.17c-.37-1.2 1.32-2.75 3.76-3.46a8.63 8.63 0 012.37-.36c1.4 0 2.48.44 2.72 1.22.14.45-.01 1.06-.38 1.54h.42c.33-.5.44-1.16.3-1.64-.44-1.4-2.87-1.88-5.54-1.1-2.66.8-4.42 2.5-3.98 3.9.13.4.3.73.73.98v-.42c-.25-.18-.32-.41-.4-.66z" fill="#AA5155"/><path d="M8.6 10.35c1.75-.52 3.08-1.28 3.7-2.24h-.43c-.63.82-1.84 1.46-3.38 1.9-1.9.57-3.82.47-4.69-.18v.42c.55.32 1.44.48 2.33.48.76 0 1.6-.13 2.47-.38z" fill="#444E69"/></svg>