<!-- by TradingView --><svg width="18" height="18" viewBox="0 0 18 18" xmlns="http://www.w3.org/2000/svg"><path fill="#F0F3FA" d="M0 0h18v18H0z"/><path d="m4.78 9.9-.2-.2a2.91 2.91 0 0 1 1.77-5.1 3.55 3.55 0 0 1 2.18.6c.56.4 1.13.94 1.45 1.57.53 1.02-.05 1.98-.83 2.61l-.13.1h-.03l-.67-.69c-.01-.02-.01-.02.01-.02h1l.02-.02.02-.02.31-.38a.02.02 0 0 0 0-.02h-.01c-.54 0-1.09-.05-1.64-.05-.08 0-.1-.02-.13-.1a1.82 1.82 0 0 1-.1-.38l.02-.01h2.03c.02 0 .03-.02.03-.03.02-.14.02-.29-.01-.43 0 0 0-.02-.02-.02l-.02-.01H7.84l-.01-.02c.02-.17.12-.42.19-.57 0-.02.02-.02.03-.02l1.64-.01a.01.01 0 0 0 0-.02v-.01c-.06-.1-.27-.45-.37-.45a171.33 171.33 0 0 0-1-.02c.14-.19.24-.26.41-.41.03-.02.03-.04 0-.06l-.41-.33h-.03c-.12.08-.22.18-.3.3-.36.4-.7.99-.75 1.53-.2 1.24.44 1.86 1.24 2.62l.04.04v.03l-.33.33c-1.02.99-1.45 2.3-.47 3.53a4.49 4.49 0 0 0 .65.65l.38-.39c.02-.02.02-.04 0-.06-.3-.24-.55-.52-.75-.84-.4-.63-.3-1.21.08-1.8a4.25 4.25 0 0 1 .92-1l.16.15c.2.2.4.5.57.73a.02.02 0 0 1 0 .02H8.6l-.03.01-.3.44v.02l.01.01H10c.12 0 .17.22.19.3.01.04 0 .07-.05.07H8.07l-.02.01v.46c0 .02 0 .03.02.03h2.1c.03 0 .04.02.03.06-.02.09-.1.44-.23.44H9.2a23.13 23.13 0 0 1-.88 0 .02.02 0 0 0 0 .03l.37.42.03.01h.93c.05 0 .06.04.03.08l-.18.18a29.4 29.4 0 0 1-.89.82l.43.39a.02.02 0 0 0 .03 0l.24-.22c.49-.42.96-.84 1.27-1.43.68-1.32-.18-2.54-1.09-3.41a.03.03 0 0 1 0-.03.03.03 0 0 1 0-.02c.72-.57 1.39-1.5 1.31-2.48-.08-1-.95-2-1.72-2.56a4.31 4.31 0 0 0-1.56-.74 3.95 3.95 0 0 0-1.33-.09 3.54 3.54 0 0 0-2.62 1.6 3.46 3.46 0 0 0 .5 4.39 318.71 318.71 0 0 0 2.67 2.69c-.08-.27-.09-.54-.03-.82v-.03c-.63-.66-1.28-1.31-1.92-1.96Zm6.52 1.95c.63-.66 1.28-1.31 1.92-1.96l.2-.19a2.91 2.91 0 0 0-1.16-5 3.36 3.36 0 0 0-2.53.31l-.46-.38a.02.02 0 0 1 0-.01V4.6c1.76-1.05 4-.76 5.17 1.02a3.46 3.46 0 0 1-.5 4.38 318.11 318.11 0 0 1-2.67 2.69c.08-.27.09-.54.03-.82v-.03Z" fill="url(#afnicemwq)"/><defs><linearGradient id="afnicemwq" x1="3.65" y1="8.3" x2="14.49" y2="8.54" gradientUnits="userSpaceOnUse"><stop stop-color="#273466"/><stop offset="1" stop-color="#59B5CA"/></linearGradient></defs></svg>