<!-- by TradingView --><svg xmlns="http://www.w3.org/2000/svg" width="18" height="18"><path fill="#F0F3FA" d="M0 0h18v18H0z"/><path d="M5.2 10.17H3.4a.18.18 0 00-.15.09l-.4.74H2l2.26-3.95c.01-.03.04-.05.06-.05.03 0 .06.02.07.05L6.65 11h-.9l-.4-.74a.18.18 0 00-.14-.1zm-1.4-.71h1.03c.04 0 .06-.05.05-.08l-.52-.93c-.02-.03-.07-.03-.1 0l-.5.93c-.03.03 0 .08.04.08zM5.1 7h.79a.2.2 0 01.16.1l1.39 2.57h.03L8.86 7.1a.2.2 0 01.17-.1h.79L7.6 10.93c-.06.1-.23.1-.3 0L5.1 7zm4.9 4V7.2c0-.1.09-.2.2-.2h.55v4H10zm1.22 0V7.2c0-.1.09-.2.19-.2h1.85c1.4 0 2.24.72 2.24 1.99 0 1.26-.84 2.01-2.24 2.01h-2.04zm2.04-.83c.96 0 1.4-.46 1.4-1.19 0-.87-.44-1.2-1.4-1.2H12v2.39h1.26z" fill="#CA1F40"/></svg>