<!-- by TradingView --><svg xmlns="http://www.w3.org/2000/svg" width="18" height="18" viewBox="0 0 18 18"><path fill="#F0F3FA" d="M0 0h18v18H0z"/><path d="M8.38 6.98a1.3 1.3 0 0 1 2.2-.2 1.17 1.17 0 0 1 0 1.35 1.3 1.3 0 0 1-1.93.17 1.16 1.16 0 0 1-.26-1.31zM6.73 8.83a1.1 1.1 0 0 1-1.19 0 1.04 1.04 0 0 1-.39-.47 1 1 0 0 1 .24-1.12 1.09 1.09 0 0 1 1.17-.22 1.06 1.06 0 0 1 .63.75 1 1 0 0 1-.16.78c-.08.1-.18.2-.3.28zM4.9 11.4c.17 0 .35-.05.5-.15a.83.83 0 0 0 .25-1.19.89.89 0 0 0-.4-.31.93.93 0 0 0-.97.18.83.83 0 0 0-.2.94c.06.15.18.28.32.38.15.1.32.15.5.15zm1.43 2.1a.83.83 0 0 1-.9 0 .78.78 0 0 1-.29-.35.75.75 0 0 1 .18-.84.81.81 0 0 1 .88-.17.8.8 0 0 1 .47.57.75.75 0 0 1-.12.58.79.79 0 0 1-.22.21zm2.36.88a.74.74 0 0 1-.8 0 .7.7 0 0 1-.26-.32.66.66 0 0 1 .16-.75c.1-.1.23-.16.37-.18a.74.74 0 0 1 .41.04.7.7 0 0 1 .43.5.66.66 0 0 1-.11.52.7.7 0 0 1-.2.19z" fill="#2B7C9B"/><path d="M9.32 3.61a.74.74 0 0 1 .8 0c.11.09.2.2.26.32a.66.66 0 0 1-.16.75.72.72 0 0 1-.79.14.7.7 0 0 1-.31-.26.67.67 0 0 1-.1-.51.69.69 0 0 1 .3-.44zm2.19.88a.82.82 0 0 1 .89 0c.13.09.23.21.3.35a.75.75 0 0 1-.19.84.81.81 0 0 1-.88.17.8.8 0 0 1-.47-.57.75.75 0 0 1 .12-.58.79.79 0 0 1 .23-.21zm1.6 2.1a.92.92 0 0 0-.5.15.86.86 0 0 0-.38.54c-.04.23 0 .46.13.65.1.14.24.25.4.32a.93.93 0 0 0 .98-.19.83.83 0 0 0 .2-.94.87.87 0 0 0-.33-.38.92.92 0 0 0-.5-.15zm-1.84 2.58a1.1 1.1 0 0 1 1.2.01c.17.11.3.28.38.47a1 1 0 0 1-.24 1.12 1.09 1.09 0 0 1-1.17.21 1.06 1.06 0 0 1-.64-.76 1 1 0 0 1 .17-.77c.08-.11.18-.2.3-.28zM9.62 11a1.28 1.28 0 0 1-2.2.2 1.17 1.17 0 0 1 0-1.34 1.3 1.3 0 0 1 1.92-.17 1.16 1.16 0 0 1 .26 1.31z" fill="#BB5B27"/></svg>