<!-- by TradingView --><svg xmlns="http://www.w3.org/2000/svg" width="18" height="18" viewBox="0 0 18 18"><path fill="#F0F3FA" d="M0 0h18v18H0z"/><path d="M4 6.14c.76 0 2.2.3 3.3 1.33.52.49.82 1.1 1.15 1.83l.04.1c.31.66.66 1.44 1.3 2.09C11.23 13 13.05 13 13.97 13H14v-1.14c-.9 0-2.2-.01-3.28-1.13a6.34 6.34 0 0 1-1.1-1.84l-.02-.04c-.32-.7-.7-1.5-1.4-2.17A6.39 6.39 0 0 0 4 5v1.14Zm10 0c-.76 0-2.2.3-3.3 1.33-.28.27-.5.57-.7.91l-.55-1.33A6.39 6.39 0 0 1 14 5v1.14Zm-6.72 4.6c.24-.26.51-.54.68-.85 0 0 .43.75.67 1.1a4.7 4.7 0 0 1-.41.5C6.76 13 4.94 13 4.02 13H4v-1.14c.9 0 2.2-.01 3.28-1.13Z" fill="#509E48"/></svg>