<!-- by TradingView --><svg width="18" height="18" viewBox="0 0 18 18" xmlns="http://www.w3.org/2000/svg"><path fill="#F0F3FA" d="M0 0h18v18H0z"/><path d="m12.16 9.35.67.47-.6 2.32-.92.32a1.12 1.12 0 0 0-.55-2.1 1.13 1.13 0 1 0 .17 2.23l-1.82.63-.49-.4.5-.53-.26-.4-.8.06L8 11.1l.84-.04.2-.46-.57-.47.62-.62.56.5.54-.28-.15-.6L11 9v.72l.72.15.44-.52ZM7.47 6.07l-.18-.6 1.62-1.32 2.5.62.1.5-.61.13-.04.4.54.29-.42.63-.55-.34-.36.2.1.57-.7.15-.08-.58-.48-.03-.22.48-.72-.38.38-.48-.32-.4-.56.16Zm2.36-1.43c.33.24.4.71.14 1.05a.76.76 0 0 1-1.05.17.75.75 0 0 1-.14-1.05.76.76 0 0 1 1.05-.17Z" fill="#EBAD51"/><path d="M9.97 5.69a.75.75 0 0 0-.14-1.05.76.76 0 0 0-1.05.17c-.25.34-.19.8.14 1.05.34.24.8.16 1.05-.17Z" fill="#F0F3FA"/><path d="M4.38 11.83c.79-8.47 9.08-7.2 9.08-7.2S12.13 3 9 3C5 3 3 6.33 3 8.62c0 1.58.47 2.36.77 2.84.13.23.23.39.23.54 0 .24-.11.48-.2.66-.1.2-.16.34-.02.33.22.01.5-.18.6-1.16Zm.78 1.64C5.25 11.97 6.92 10.08 8 9c-1.51.5-3.3 3.13-3.76 3.8l-.1.14C5.12 14.28 7.34 15 9 15c3.94 0 6-3.38 6-5.62 0-2.15-.55-2.73-.86-3.06-.12-.13-.21-.22-.21-.36 0-.17.01-.34.03-.48.02-.28.04-.48-.07-.48-.26 0-.4.19-.48 1.17-.63 6.8-4.58 7.29-7.15 7.33-.4 0-.78-.01-1.1-.03Z" fill="url(#af4sagklk)"/><defs><linearGradient id="af4sagklk" x1="2.25" y1="8.62" x2="15.38" y2="8.44" gradientUnits="userSpaceOnUse"><stop stop-color="#598A55"/><stop offset=".84" stop-color="#97C93C"/></linearGradient></defs></svg>