<!-- by TradingView --><svg width="18" height="18" viewBox="0 0 18 18" xmlns="http://www.w3.org/2000/svg"><path fill="#DEC721" d="M0 0h18v18H0z"/><path d="M15.8 9.61c0 .02.5-.5-.09-.89-.63-.4-1.85-.48-3.02-.1-.72.23-4.17 1.47-6.06 5.38 0 0 1.53-1.94 2.91-2.6 0 0-.63.94-.65 1.44 0 0 1.08-1.44 3.3-2.6 1.96-1.04 3.74-1.25 3.61-.63Z" fill="#0083C7"/><path d="M14.08 8.1s-.6-.1-.94-.04c-.36.07-1.18.32-1.3.04 0 0-.6 0-2.23 1.23-.22.17-1.99 1.61-3.02 2.02-.34.15-.77.2-1.21.14a2.9 2.9 0 0 1-1.46-.75c-.36-.37-.72-.98-.36-1.46 0 0 .22.58 1.04 1 .98.5 2.16.63 3.6-.32 0 0-2.57.78-3.53-.68 0 0 .52.3.91.16 0 0-1.35-.31-1.58-1.55-.15-.76.3-1.34.5-1.49.05-.03.1-.03.09 0-.04.17-.07.17-.07.4 0 .21-.17 1.14 1.71 1.92 1.89.78 3.7.17 3.93-.2 0 0-3.45.56-4.44-.95 0 0 .36.29.62.24 0 0-.62-.36-.67-.92-.02-.3.17-.64.32-.85 0 0 .12-.13.12.07.02.24 0 .58.77 1 .8.4 1.27.51 2.03.51 0 0 .92.03 2.02-.15.48-.09 2.17-.3 3.15.63Z" fill="#077664"/><path d="M5.68 6.21c.04-.06.06-.1 0-.13-.03-.04-.12.07-.2.18-.1.16-.55.78.17 1.43 0 0-.19-.15-.09-.29.04-.07.14 0 .18.03 0 0-.42-.54-.06-1.22ZM5.26 7.62c-.06-.05.65 1.26 3.34 1.1 0 0-1.87.1-2.78-.83 0 0-.3-.03-.56-.27ZM4.21 9.33s.38.97 2.38.94c0 0-1.37 0-1.93-.77 0 0-.26 0-.45-.17ZM4.14 6.55c-.05.05-.38.36-.3 1.1.04.75.52 1.31.92 1.53 0 0-.19-.14-.24-.05-.05.08-.04.12 0 .15 0 0-.8-.47-.94-1.29-.06-.37-.06-.96.39-1.4l.1-.1c.05-.04.12 0 .07.06ZM3.13 9.37l.14.15s-.05.34.1.7c.14.32.77 1.2 2.14 1.38 0 0-1.13.16-2.2-.96-.28-.32-.44-.92-.18-1.27Z" fill="#0083C7"/></svg>