<!-- by TradingView --><svg width="18" height="18" viewBox="0 0 18 18" fill="none" xmlns="http://www.w3.org/2000/svg">
<rect width="18" height="18" fill="#F0F3FA"/>
<path d="M8.48212 7C8.71683 7 8.83419 7.25509 8.83419 7.50054C8.83419 7.74598 8.71683 8 8.48212 8H4.97826C4.25737 8 4 8.22302 4 8.51755V9.4767C4 9.81213 4.30766 10 5.12914 10H8.51565C8.74198 10 8.85095 10.2817 8.85095 10.5517C8.85095 10.7726 8.70845 11 8.43183 11H5.104C4.46693 11 4.00589 10.9345 3.72089 10.8118C3.24309 10.6318 3 10.2882 3 9.78916V8.21833C3 7.40838 3.63707 7 4.91958 7H8.48212Z" fill="#008EC8"/>
<path d="M14.6137 7C14.8541 7 14.9742 7.1232 14.9742 7.36961C14.9742 7.61602 14.8541 8 14.6137 8H11.0343C10.2961 8 10 8.20048 10 8.49616V9.42756C10 9.76432 10.3476 10 11.1888 10H14.6567C14.8884 10 15 10.4004 15 10.6715C15 10.8932 14.8541 11 14.5708 11H11.1545C10.5021 11 10.03 10.9425 9.7382 10.8193C9.24034 10.6304 9 10.2854 9 9.78439V8.21561C9 7.40246 9.65236 7 10.9657 7H14.6137Z" fill="#353D46"/>
</svg>
