<!-- by TradingView --><svg width="18" height="18" viewBox="0 0 18 18" xmlns="http://www.w3.org/2000/svg"><path fill="#F0F3FA" d="M0 0h18v18H0z"/><path d="M5.43 8.17s.96-.1 1.92-.1 3.55.3 4.18.3c.62 0 2.06-.16 2.47-.37-.05.04-1.43 1.84-1.43 1.84s-1.08.14-1.9.14c-.82 0-3-.3-4.34-.3C4.99 9.68 4 10 4 10l1.43-1.83Z" fill="url(#ajghcujzm)"/><path d="M6 6.75s1.57-1.4 3.22-1.4c1.65 0 2.36.14 3.5.14 1.13 0 1.88-.12 2.28-.49-.35.72-.87 1.54-.87 1.54s-.69.46-2.36.46c-1.66 0-2.9-.22-4.05-.25-1.16-.04-1.72 0-1.72 0Z" fill="url(#bjghcujzm)"/><path d="M12 11.25s-1.57 1.4-3.22 1.4c-1.65 0-2.36-.14-3.5-.14-1.13 0-1.88.12-2.28.49.35-.72.87-1.54.87-1.54S4.56 11 6.23 11c1.66 0 2.9.22 4.05.25 1.16.04 1.72 0 1.72 0Z" fill="url(#cjghcujzm)"/><path d="M3.88 11.46c.08-.05.7-.4 1.75-.21 1.12.2 2.35.73 3.64.72a7 7 0 0 0 2.73-.72s-.56.04-1.72 0C9.13 11.22 7.9 11 6.23 11a4.6 4.6 0 0 0-2.35.46Z" fill="url(#djghcujzm)"/><defs><linearGradient id="ajghcujzm" x1="4.25" y1="9.56" x2="14.24" y2="9.27" gradientUnits="userSpaceOnUse"><stop stop-color="#F05523"/><stop offset="1" stop-color="#F89C2F"/></linearGradient><linearGradient id="bjghcujzm" x1="6" y1="6.46" x2="15.16" y2="6.14" gradientUnits="userSpaceOnUse"><stop stop-color="#0E93D3"/><stop offset="1" stop-color="#164899"/></linearGradient><linearGradient id="cjghcujzm" x1="3" y1="12.84" x2="12" y2="12.2" gradientUnits="userSpaceOnUse"><stop stop-color="#029148"/><stop offset="1" stop-color="#B3C33D"/></linearGradient><linearGradient id="djghcujzm" x1="3.64" y1="11.7" x2="12.48" y2="11.54" gradientUnits="userSpaceOnUse"><stop offset=".32" stop-color="#008F48"/><stop offset=".89" stop-color="#B1C23E"/></linearGradient></defs></svg>