<!-- by TradingView --><svg xmlns="http://www.w3.org/2000/svg" width="18" height="18"><path d="M0 9a9 9 0 1118 0A9 9 0 010 9z" fill="#F0F3FA"/><path d="M8.8 12.28a2.8 2.8 0 10-.29-5.6.64.64 0 000 1.29h.2l.1-.01a1.52 1.52 0 010 3.03c-.84 0-1.48-.68-1.48-1.52V4.58C7.3 4.26 6.98 4 6.64 4a.64.64 0 00-.64.58v4.9a2.8 2.8 0 002.8 2.8zm-.14-6.95h2.65c.38 0 .7-.3.7-.66C12 4.1 11.48 4 11.3 4H8.66a.67.67 0 00-.66.67c0 .36.3.66.66.66zm-2 7.34h4.68a.67.67 0 010 1.33H6.66a.67.67 0 010-1.33z" fill="#3EB4E4"/></svg>