<!-- by TradingView --><svg width="18" height="18" viewBox="0 0 18 18" xmlns="http://www.w3.org/2000/svg"><path fill="#F0F3FA" d="M0 0h18v18H0z"/><path d="M3 8.86A3.04 3.04 0 0 0 5.9 12c.55.02 1.62-.13 1.97-.67-.16-.25-.67-.89-.77-1.08-.45.25-.42.39-1.23.39-.91 0-1.57-.86-1.56-1.78 0-.91.78-1.5 1.56-1.49 1.04 0 1.43.54 2 1.44.37-.04.82-.48 1.13-.67C8.48 7.12 7.43 6 6 6 4.45 6 3 7.04 3 8.86Z" fill="#564098"/><path d="M15 9.14A3.04 3.04 0 0 0 12.1 6c-.55-.02-1.62.13-1.97.67.16.25.67.89.77 1.08.45-.25.42-.39 1.23-.39.91 0 1.57.86 1.56 1.78 0 .91-.78 1.5-1.56 1.49-1.04 0-1.43-.54-2-1.44-.37.04-.82.48-1.13.67.52 1.02 1.57 2.14 3 2.14 1.55 0 3-1.04 3-2.86Z" fill="#1C9BA1"/></svg>