<!-- by TradingView --><svg xmlns="http://www.w3.org/2000/svg" width="18" height="18"><path fill="#146CB6" d="M0 0h18v18H0z"/><path d="M12.6 4.84c-.02.1-.1.2-.29.29-.42.18.14.46.26.45.11-.02.24.16-.36.24 0 .07-.11.24-.46.31-.04.04-.1.14 0 .28-.17 0-.51.07-.53.32-.01.25.4.26.62.23.05-.16.22-.48.51-.47.37.02.55.35.6.54.03.18.4.03.36-.13.04.05.16.09.26-.17s.2.12.23.34c.19-.02.52.04.38.41a.45.45 0 01-.6-.12c-.05-.06-.17-.15-.27 0-.12.19-.38.1-.49 0a2.4 2.4 0 00-.02-.02 1.2 1.2 0 00-.45-.31c-.16-.06-.52.05-.68.11h-.5c-.07.08-.19.29-.1.44-.19.14-.56.44-.55.56a.22.22 0 00.14.2.49.49 0 00-.14.47c.08.28.46.71.85.73.2 0 .3-.03.37-.07a.5.5 0 01.28-.07c.3.01.55.14.55.32-.04.05-.1.18-.06.28.04.1.2.32.26.43.05.07.14.28.05.48-.07.08-.18.27 0 .42.02.08.07.31.06.56.09.07.27.28.24.58a.6.6 0 000 .17 5.5 5.5 0 01-9.26-5.6c.1.1.22.26.24.45.04.3.15.54.36.58 0 0 .35.27.35.18a.7.7 0 00.81.45c.13.07.44.27.62.45.18.04.53.15.54.29.01.14-.15.33-.24.41-.08.08-.2.31 0 .58h.01c.24.34.41.58.76.76l.06.84c0 .06.05.59.15.74.08.12.1.55.1.75.07.14.3.47.6.6.32.12.22-.12.13-.26l-.06-.34-.16-.07v-.49c.3-.05.89-.36.88-1.2.2-.03.63-.14.63-.39v-.09c0-.26 0-.46.08-.55.1-.1.22-.49-.14-.68-.28.04-.86 0-.9-.54a11.1 11.1 0 00-.55-.36 6.72 6.72 0 01-.6-.18.7.7 0 00-.75.18c-.11 0-.35-.06-.4-.18V8.7c-.11-.03-.32-.15-.24-.41.08-.27-.18-.05-.32.09-.15.06-.45.11-.48-.2-.03-.39.34-.62.72-.7.3-.04.52.23.6.38.03-.15.15-.48.34-.61a.85.85 0 01.17-.05c.05-.13.23-.44.52-.58.36-.18.52-.48.55-.6h.6c.1 0 .27-.04.26-.2 0-.15-.15-.29-.21-.33-.02-.06-.1-.16-.3-.1a.351.351 0 00-.35-.25c-.28.01-.28.28-.28.31 0 .03-.29.3-.44.43a.42.42 0 00-.4-.33c-.27-.02-.1-.24 0-.34.08-.08.28-.23.46-.23a.22.22 0 01.15.08c.06.08.23 0 .23-.08s.32-.37.57-.35c.24.03.13.26 0 .3-.14.05.1.26.36.13.25-.12.31-.22.31-.27a.64.64 0 00-.67-.46c-.51.03-.57.3-.57.38-.06-.01-.16-.05-.13-.15.04-.12.02-.23-.1-.23-.09 0-.11.1-.13.18a.65.65 0 01-.02.05c-.03.07-.22.23-.51.23-.23 0 .03-.2.19-.29.03-.04.02-.12-.26-.09a4.67 4.67 0 00-1.02 0A5.47 5.47 0 019 3.5c1.38 0 2.63.5 3.6 1.34zM9 15A6 6 0 109 3a6 6 0 000 12z" fill="#fff"/></svg>