<!-- by TradingView --><svg xmlns="http://www.w3.org/2000/svg" width="18" height="18" viewBox="0 0 18 18"><path fill="#293D96" d="M0 0h18v18H0z"/><path d="M5.7 8.75c0-1.82.95-2.77 1.97-3.25L7.13 4A5.3 5.3 0 0 0 4 8.75c0 2.8 2 4.75 4.6 4.75 2.6 0 4.43-1.8 4.4-4.5h-1.7c0 1.76-1.02 2.8-2.7 2.8-1.97 0-2.9-1.6-2.9-3.05Z" fill="#FDB228"/><path d="M12.3 9c0-1.67-1.27-2.8-2.8-2.8A2.75 2.75 0 0 0 6.7 9H5c0-2.55 1.82-4.5 4.5-4.5C11.83 4.5 14 6.24 14 9c0 2.12-1 4-3.12 5l-.37-.9C11.96 12.46 13 11.06 13 9h-.7Z" fill="#E32726"/></svg>