<!-- by TradingView --><svg width="18" height="18" viewBox="0 0 18 18" xmlns="http://www.w3.org/2000/svg"><path fill="#1A3564" d="M0 0h18v18H0z"/><path d="m9.2 9.55-.75 1.3A4.98 4.98 0 0 0 11.52 12c1.8 0 3.48-1.16 3.48-3.27C15 6.62 12.88 6 11.52 6c-.2 0-.68.03-.9.08l-.27.98c.16-.07.62-.2 1.17-.2.7 0 2.1.25 2.1 1.98 0 1.72-1.22 2.27-2.25 2.27-1.02 0-1.6-.47-2.18-1.56Zm-.4-1.1.75-1.3A4.98 4.98 0 0 0 6.48 6C4.68 6 3 7.16 3 9.27 3 11.38 5.12 12 6.48 12a8 8 0 0 0 .9-.08l.27-.98c-.16.07-.62.2-1.17.2-.7 0-2.1-.25-2.1-1.98 0-1.72 1.22-2.27 2.25-2.27 1.02 0 1.6.47 2.18 1.56Z" fill="#31B782"/></svg>