<!-- by TradingView --><svg width="18" height="18" viewBox="0 0 18 18" xmlns="http://www.w3.org/2000/svg"><path fill="#F0F3FA" d="M0 0h18v18H0z"/><path d="M14 5.71 13.38 4c-1.24 1.97-2.92 2-3.88 2s-2.36-.03-3.87.76a2.85 2.85 0 0 0-1.57 3.12l1.44 2.8A3.57 3.57 0 0 0 8.24 14c.66 0 1.28-.18 1.5-.26l-.95-2.1c.18-.14.71-.43 1.37-.53.82-.14 2.2.13 2.88-.4.55-.42.87-.88.96-1.05l-.41-1.71c-.69.92-2.01 1.2-2.56 1.2-.55 0-1.45-.15-2-.15-.44 0-1.09.44-1.34.66l.96 1.97c-2.08.63-3.24 0-3.56-.4C5.22 9.67 6.94 8.14 9 8c2.06-.13 2.26-.05 3.63-.58C13.73 7 14 6.11 14 5.72Z" fill="#0067A6"/></svg>