<!-- by TradingView --><svg width="18" height="18" viewBox="0 0 18 18" xmlns="http://www.w3.org/2000/svg"><path fill="#F0F3FA" d="M0 0h18v18H0z"/><path d="M8 5.6V4C5.75 4 4 5.7 4 8c0 2.98 2.67 5.24 4 6v-1.95c-.86-.63-2.5-2.36-2.5-4.2C5.5 5.98 7.14 5.56 8 5.6ZM9 4h5l-.6 1.5h-2.73V8H13l-.64 1.5h-1.7v3.47L9 14V4Z" fill="#005A41"/><path d="m8.4 7.14-.1.36c-.02-.06-.14-.2-.37-.2-.3 0-.3.28-.3.34.29-.12.47.05.47.14 0 .08-.09.2-.26.2a.41.41 0 0 1-.29-.15.74.74 0 0 0-.17.45c0 .25.34.47.55.47.2 0 .49-.14.49-.25 0-.11-.03-.22-.2-.22a.58.58 0 0 0-.32.1c.05-.13.18-.38.35-.38.2 0 .4.2.49.2.09 0 .12-.03.26-.12-.14.4-.29.36-.4.34 0 .36-.44.58-.82.58C7.41 9 7 8.78 7 8.36c0-.33.3-.58.46-.67-.03 0-.08-.03-.08-.19 0-.2.29-.5.55-.5.2 0 .4.1.46.14Z" fill="#005A41"/></svg>