<!-- by TradingView --><svg width="18" height="18" xmlns="http://www.w3.org/2000/svg"><path fill="#00A271" d="M0 0h18v18H0z"/><path d="M8.307 7.183c-.846.304-1.138 1.126-1.138 1.126-.113.303-.416.334-.757.334H4.808a.778.778 0 01-.795-.779c0-.443.288-.84.793-.84h1.21L4.24 5.387a.803.803 0 010-1.138.8.8 0 011.136 0L7.01 5.83V4.83a.818.818 0 011.634-.025v1.606c0 .342-.033.671-.336.772zM7.84 14c-.441 0-.854-.305-.841-.81v-1.169l-1.61 1.738a.798.798 0 01-1.137 0 .801.801 0 010-1.137L5.852 11H4.821a.81.81 0 01-.808-.814c0-.443.353-.829.808-.829h1.604c.34 0 .644.014.758.318.29.859 1.032 1.15 1.032 1.15.316.114.428.404.428.759v1.606c0 .443-.348.81-.803.81zm5.353-3h-1.061l1.616 1.622a.8.8 0 010 1.137.798.798 0 01-1.137 0l-1.626-1.738v1.17c0 .48-.377.809-.82.809a.815.815 0 01-.808-.81v-1.606c0-.342.021-.658.325-.76.845-.29 1.136-1.124 1.136-1.124.114-.303.417-.343.758-.343h1.604c.442 0 .82.386.82.83a.794.794 0 01-.807.813zm0-2.357h-1.605c-.34 0-.656-.018-.757-.322-.291-.847-1.124-1.15-1.124-1.15-.303-.115-.35-.405-.35-.76V4.805c0-.442.392-.795.834-.795.442 0 .795.328.795.795v1.199l1.638-1.767a.8.8 0 011.136 0 .817.817 0 010 1.15l-1.588 1.637h1.02c.442 0 .808.462.808.905 0 .442-.366.714-.807.714z" fill="#fff"/></svg>