<!-- by TradingView --><svg width="18" height="18" viewBox="0 0 18 18" xmlns="http://www.w3.org/2000/svg"><path fill="#F0F3FA" d="M0 0h18v18H0z"/><path d="M12.37 14H5.63a1.65 1.65 0 0 1-1.15-.47A1.6 1.6 0 0 1 4 12.4V5.62A1.61 1.61 0 0 1 5.63 4h6.74a1.65 1.65 0 0 1 1.15.47A1.6 1.6 0 0 1 14 5.6v6.78a1.55 1.55 0 0 1-.46 1.15 1.6 1.6 0 0 1-1.17.47ZM5.63 4.3a1.34 1.34 0 0 0-1.34 1.32v6.78a1.35 1.35 0 0 0 1.34 1.31h6.74a1.31 1.31 0 0 0 1.34-1.31V5.62a1.35 1.35 0 0 0-1.34-1.31H5.63Z" fill="#296795"/><path d="M12.33 13.37a1.06 1.06 0 0 0 .73-.29.9.9 0 0 0 .23-.32.94.94 0 0 0 .06-.38V5.64a.94.94 0 0 0-.06-.38.98.98 0 0 0-.56-.54 1.06 1.06 0 0 0-.4-.07H5.66a1.06 1.06 0 0 0-.73.29.98.98 0 0 0-.3.7v6.74a.95.95 0 0 0 .3.7 1.03 1.03 0 0 0 .73.3h6.67Z" fill="#A9BBD3"/><path d="M5.1 7.91c-.16.02-.33-.05-.47-.22-.21-.26-.33-.89.15-1.16h.02c1.7-.84 3.73-.77 5.33-.73 0 0 .66 1.9.77 2.95.12 1.24.89 2.1 1.15 2.33a.2.2 0 0 0 .12-.05c.09-.05.05-.01.14-.07a.43.43 0 0 1 .56.14c.12.2.08.38-.04.51-.73.87-3.03 2.05-4.3 1.96 0 0-.16.04-.52-.05-.39-.08-.9-.71-1.55-2.93-.18-.53-.28-1.96-.56-2.99l-.07.04s-.4.24-.7.27H5.1Z" fill="#fff"/><path d="M8.4 13.64c-.14 0-.28-.02-.43-.05-.52-.12-1.04-1.1-1.6-2.97a9.1 9.1 0 0 1-.21-1.16c-.09-.58-.17-1.22-.31-1.77-.06.03-.42.24-.72.27h-.1c-.18 0-.33-.08-.47-.24a.94.94 0 0 1-.18-.76.65.65 0 0 1 .37-.46h.02a9.69 9.69 0 0 1 4.25-.75l.9.01h.23l.02.04c0 .01.66 1.92.76 2.96.13 1.25.9 2.08 1.12 2.29l.03-.01.02-.02.02-.02.07-.04.07-.03a.58.58 0 0 1 .22-.07.5.5 0 0 1 .4.22c.14.2.13.41-.03.58-.75.89-3.05 2.05-4.36 1.98h-.08ZM5.94 7.5l.02.07c.16.58.26 1.26.35 1.86.07.48.12.9.2 1.14.53 1.81 1.04 2.78 1.5 2.88.37.09.51.06.51.06h.02c1.25.06 3.54-1.08 4.25-1.93.12-.14.12-.3.04-.45a.36.36 0 0 0-.3-.17.34.34 0 0 0-.18.06l-.08.05-.05.01a.27.27 0 0 1-.16.07H12l-.01-.02a3.94 3.94 0 0 1-1.17-2.37c-.09-.95-.66-2.62-.75-2.9h-.14l-.9-.01a9.6 9.6 0 0 0-4.2.73h-.02a.54.54 0 0 0-.3.4.88.88 0 0 0 .16.68c.12.13.26.22.42.2h.03c.3-.03.68-.26.68-.26l.12-.1Zm2.27 6.12a.8.8 0 0 1-.3-.06c-.5-.23-.96-1.11-1.53-2.95-.1-.4-.16-.79-.21-1.18-.16-1.07-.37-2.54-.87-2.87a.38.38 0 0 0-.33-.05c-.21.09-.37.2-.44.41-.08.26 0 .58.14.74.18.22.39.22.52.17.14-.07.28-.24.25-.52l-.72.18-.05.01-.02-.07c-.07-.29-.01-.52.13-.64a.4.4 0 0 1 .36-.07.61.61 0 0 1 .4.5c.07.32-.05.59-.3.7-.22.11-.48.03-.66-.2a.95.95 0 0 1-.15-.85.7.7 0 0 1 .52-.46.5.5 0 0 1 .42.07c.56.36.75 1.79.92 2.93.07.5.14.92.21 1.16.56 1.8 1.01 2.68 1.46 2.88a.7.7 0 0 0 .56-.01c.4-.17.32-.58.28-.72-.09-.3-.35-.61-.64-.6-.23.02-.4.14-.47.33a.58.58 0 0 0 .07.58.47.47 0 0 0 .47.17.42.42 0 0 0 .18-.08c.05-.04.1-.1.11-.16a.5.5 0 0 0 .04-.17l-.77.14-.02-.06c-.03-.18 0-.54.33-.6a.45.45 0 0 1 .44.14.66.66 0 0 1 .09.6.48.48 0 0 1-.4.3c-.25.04-.46-.04-.58-.21a.74.74 0 0 1-.09-.7c.1-.22.3-.36.58-.4.35-.03.66.31.77.69.08.3.03.68-.35.85a.7.7 0 0 1-.35.08Zm.02-1.2h-.1c-.24.04-.24.28-.24.4l.67-.12a.62.62 0 0 0-.09-.18.32.32 0 0 0-.24-.1ZM5 6.82a.29.29 0 0 0-.15.05c-.1.09-.13.26-.1.48l.65-.17a.45.45 0 0 0-.31-.34.77.77 0 0 0-.09-.02Zm6.94 4.35c-.02-.02-1.05-.96-1.19-2.37a17.5 17.5 0 0 0-.76-2.92h-.23c-1.53-.03-3.42-.07-5.02.72l-.05-.1c1.64-.79 3.54-.75 5.09-.74h.31l.02.04c0 .01.68 1.94.78 2.98.14 1.37 1.15 2.29 1.15 2.29l-.1.1Zm-3.52.97h-.23v-.12c.94.05 2.56-.2 4.04-1.06.21-.12.53-.12.68.1l-.1.07c-.1-.15-.35-.15-.52-.06a8.3 8.3 0 0 1-3.87 1.07Zm.03 1.5c-.08 0-.16 0-.24-.02l.02-.11c1.48.13 3.88-1.1 4.56-1.91.14-.18.14-.33.04-.5l.1-.07a.48.48 0 0 1-.04.63 7.52 7.52 0 0 1-4.44 1.98Zm-3.3-5.7-.03-.06c.3-.04.75-.3.75-.3l.04.06s-.45.25-.77.3Zm1.72.7s-.28-.81.47-1.85l.05.01c-.42.51-.6 1.32-.42 1.73a.38.38 0 0 1-.1.11Zm-.06.07-.01-.05c-.02-.03-.28-.85.49-1.9l.01-.04.18.05-.06.07C7 7.38 6.86 8.15 7 8.5l.01.02-.01.01a.4.4 0 0 1-.14.16l-.06.01Zm.07-.24v.04c.02 0 0-.02 0-.04Zm.42.69c.35.4 1.5.54 2.13-1.03l.1-.13c.1.13-.96 2.3-2.28 1.22l.05-.06Zm.7.42c-.26 0-.52-.1-.78-.3l-.04-.04.12-.19.05.07c.13.16.37.24.61.24.28 0 .96-.12 1.42-1.24l.01-.02.16-.19.05.05c.02.02.07.09-.08.4-.23.46-.79 1.22-1.52 1.22Zm1.38 2.4c-.68-1.25-.46-3.1.3-3.08.78.02.46 2.29-.51 2.29-.79.01-1.38-.79-1.22-2.17l-.1.02c-.15.42-.02 2.32 1.2 2.33 1.25.02 1.53-2.62.6-2.55-.78.06-1.06 1.85-.41 3.17h.14Zm-.18.08-.02-.04a3.07 3.07 0 0 1-.22-.6 1.06 1.06 0 0 1-.82-.47 2.76 2.76 0 0 1-.37-1.93l.02-.03.23-.02v.07c-.13 1.1.22 1.9.89 2.08-.16-.82-.06-1.64.27-2.07.14-.17.3-.27.47-.29.35-.03.6.3.61.84.04.7-.3 1.7-1.04 1.82.06.2.14.37.23.55l.05.09h-.3ZM7.85 9.14c-.05.36-.02 1.2.38 1.74a.95.95 0 0 0 .7.43l-.02-.07c-.75-.16-1.15-.96-1.06-2.1Zm1.29 2.11.02.06a.78.78 0 0 0 .45-.24.71.71 0 0 1-.47.18Zm-.04-.12h.04c.57 0 .89-.85.9-1.44 0-.35-.08-.72-.36-.72h-.02c-.12 0-.24.07-.35.19-.31.35-.38 1.19-.2 1.97Z" fill="#296795"/><path d="M6.1 10.38v.74s.67.88.69 1.04c.03.13-.02.36-.2.36H4.95c-.17 0-.23-.23-.2-.36.04-.16.69-1.04.69-1.04v-.74h.68Z" fill="#fff"/><path d="M6.6 12.57H4.94a.28.28 0 0 1-.2-.09c-.08-.1-.08-.24-.06-.34.03-.15.56-.87.68-1.06v-.76h.8v.76c.14.2.66.89.68 1.06.02.1 0 .26-.07.34a.18.18 0 0 1-.17.09Zm-1.12-2.13v.7l-.02.01c-.24.34-.66.92-.68 1.03a.29.29 0 0 0 .06.23c0 .02.02.03.03.04a.1.1 0 0 0 .05.02h1.66a.1.1 0 0 0 .09-.06.3.3 0 0 0 .05-.23c-.02-.1-.44-.69-.68-1.03l-.02-.02v-.7h-.54Z" fill="#296795"/><path d="M5.86 10.38c.5-1.02.88-2 3.44-4.23a5.66 5.66 0 0 1 1.83-1.14 5.1 5.1 0 0 0 2.8-1.8c0 .08.01.17.04.25l-.07.24-.32.4s.07 0 .12.03c-.2.17-.4.33-.62.47.1.01.19.03.28.07-.1.05-.63.17-.88.3.16.1.5.11.5.11s-.58.3-.84.46c.05.04.27-.08.38-.07-.12.3-.3.3-.49.43.07.05.32.07.32.07s-.5.53-1.56.7c.06 0 .18.03.54.1-.25.16-.54.28-.83.36.1.07-.09.22-.09.22s-.31.27-.47.27c.05.05.1.07.21.12-.26.15-.4.15-.52.22.08.02.16.06.22.1l-.34.07c.1.07.15.14.24.2l-.37.06-.68-.02c.01.09.03.18.06.26 0 0-.5.22-.86.27a.8.8 0 0 0 .16.17s-.49.09-.65.09c.04.08-.06.18-.06.18a6 6 0 0 0-1.36 1.03l-.1-.02" fill="#FDF6DC"/><path d="m5.97 10.44-.12-.04.01-.03-.05-.04.12-.25c.47-.96.96-1.95 3.31-4a5.44 5.44 0 0 1 1.85-1.15 4.8 4.8 0 0 0 2.77-1.76l.1-.17v.2c0 .09.02.17.04.24v.02l-.09.27-.26.33.05.01.07.04-.05.07c-.05.06-.3.25-.5.39l.14.03.12.05-.1.06-.29.08c-.13.05-.33.1-.47.17.12.03.23.05.35.05l.21.02-.17.1-.5.27h.03l.07.02-.04.07a.7.7 0 0 1-.35.36c-.03.03-.05.05-.07.05.06.02.14.02.2.03l.12.02-.09.09c-.02.01-.42.44-1.29.66l.24.05.14.04-.12.08c-.19.14-.52.27-.78.34v.02c0 .1-.12.2-.14.22-.11.1-.23.18-.37.24l.09.05.09.05-.09.05c-.11.07-.24.13-.37.17l-.03.02a.5.5 0 0 0 .1.05l.1.07-.11.03a2.34 2.34 0 0 0-.22.06.02.02 0 0 1 0 .01c.04.04.08.05.11.09l.1.07-.13.03a5.3 5.3 0 0 1-.37.07c-.02 0-.31-.02-.63-.02l.04.17.02.05-.06.02c-.01 0-.43.19-.76.26l.08.08.1.09-.11.01c-.02 0-.39.07-.6.09a.38.38 0 0 1-.08.17l-.02.02c-.1.05-.66.35-1.34 1v-.01Zm7.9-7.06a5.28 5.28 0 0 1-2.74 1.68c-.27.07-.94.38-1.8 1.13C7 8.22 6.51 9.2 6.03 10.15a.42.42 0 0 1-.06.12 5.9 5.9 0 0 1 1.3-.96.18.18 0 0 0 .06-.12l-.04-.08h.1c.1 0 .34-.04.51-.06a.52.52 0 0 1-.08-.12l-.02-.06.07-.02c.28-.03.66-.19.78-.24a.74.74 0 0 1-.03-.22v-.07h.07l.7.02.22-.04-.02-.01a.75.75 0 0 0-.12-.1l-.17-.07.15-.02.2-.03a.1.1 0 0 0-.07-.02L9.44 8l.12-.06a.74.74 0 0 1 .17-.07.94.94 0 0 0 .25-.1.2.2 0 0 1-.13-.09l-.08-.1h.14c.08 0 .31-.14.43-.26.05-.05.1-.1.1-.12l-.12-.07.14-.03c.25-.06.48-.15.7-.27a3.05 3.05 0 0 0-.38-.07v-.12a3.16 3.16 0 0 0 1.43-.61.75.75 0 0 1-.21-.07l-.07-.05.07-.05a.58.58 0 0 1 .17-.1c.1-.06.18-.13.24-.21l-.08.02c-.1.03-.18.05-.23.01l-.1-.03.08-.05.68-.38a1.07 1.07 0 0 1-.33-.1l-.08-.05.08-.05c.16-.09.42-.17.61-.24l.09-.04-.09-.01h-.2l.17-.1c.19-.12.37-.26.54-.4h-.02l-.1-.01.38-.45.07-.22c0-.03 0-.06-.02-.08Zm-8.27 8.1s.09 0 .1-.02c0-.43.29-1.08.29-1.08l-.1-.01a3.3 3.3 0 0 0-.29 1.1Zm.04.05h-.09v-.05c.02-.43.26-1.11.28-1.15l.02-.05.22.05-.03.07s-.26.65-.28 1.06v.02c-.02.05-.1.05-.12.05Zm.83.56c-.03-.09-.3-.44-.43-.63h-.58c-.14.19-.4.54-.43.63-.05.1.02.22.17.22h1.12c.14 0 .2-.12.15-.22Zm-.3.29h-.98c-.1 0-.18-.03-.21-.1a.27.27 0 0 1-.02-.2c.03-.11.31-.47.45-.66l.02-.01h.63l.01.01c.17.21.32.43.46.65a.18.18 0 0 1-.02.2.23.23 0 0 1-.21.11h-.14Zm-.36-.12h.49a.14.14 0 0 0 .12-.05.08.08 0 0 0 0-.09 8.38 8.38 0 0 0-.42-.6h-.5a5.48 5.48 0 0 0-.43.65l.01.04c.02.03.05.05.12.05h.61Z" fill="#296795"/></svg>