<!-- by TradingView --><svg width="18" height="18" viewBox="0 0 18 18" xmlns="http://www.w3.org/2000/svg"><path fill="url(#ax2nxthps)" d="M0 0h18v18H0z"/><path d="M9 6.36c1.13.01 2.05-.31 2.05-.73 0-.41-.9-.76-2.04-.77-1.13-.02-2.05.31-2.06.73 0 .41.91.76 2.05.77Z" fill="#fff"/><path d="M7.98 8.6a5.5 5.5 0 0 1-1.05-2.65c.3.27.69.4 1.04.47.61.12 1.22.14 1.84.06a2.48 2.48 0 0 0 1.27-.47c-.18 1-.6 2.55-1.57 2.99-.54.24-1.13.06-1.53-.4ZM9.47 10.83c.1.32.29.54.53.75l.09.04c.23.08.5.21.65.4.38.46-.12.8-.48.93a4.4 4.4 0 0 1-1.86.2c-.39-.04-1.39-.2-1.48-.74-.08-.47.63-.75.94-.84a.2.2 0 0 0 .08-.04c.26-.23.44-.48.51-.85a6.11 6.11 0 0 0 .08-.5.42.42 0 0 1-.24-.27c-.07-.19.07-.37.22-.45v-.01a.34.34 0 0 0 .02-.23h.01a1.11 1.11 0 0 0 .87.01v.01a.3.3 0 0 0 .02.21v.02c.13.08.25.25.2.4a.4.4 0 0 1-.27.31h-.01v.02c.03.26.07.47.12.63Z" fill="#fff"/><path fill-rule="evenodd" d="M12.54 12.54a5 5 0 1 0-7.07-7.08 5 5 0 0 0 7.07 7.08ZM9 13.7a4.7 4.7 0 1 0 0-9.42 4.7 4.7 0 0 0 0 9.42Z" fill="#fff"/><defs><linearGradient id="ax2nxthps" x1="3.35" y1="3.12" x2="21.9" y2="24.43" gradientUnits="userSpaceOnUse"><stop stop-color="#1A1E21"/><stop offset="1" stop-color="#06060A"/></linearGradient></defs></svg>