<!-- by TradingView --><svg width="18" height="18" viewBox="0 0 18 18" xmlns="http://www.w3.org/2000/svg"><path fill="#F0F3FA" d="M0 0h18v18H0z"/><path fill-rule="evenodd" d="M5.35 11V7H6v1.67h2V7h.67v4H8V9.33H6V11h-.65ZM9 11h.74l.31-1h1.42l.32 1h.74l-1.34-4h-.85L9 11Zm2.26-1.67-.48-1.51h-.03l-.48 1.51h1ZM13 7v4h.67V9.67H14.5l.7 1.33h.8l-.82-1.52c.4-.23.68-.66.68-1.2 0-.81-.61-1.28-1.39-1.28H13Zm.67 2h.7c.42 0 .76-.26.76-.72 0-.46-.34-.61-.77-.61h-.7V9Zm-9.3-.63H5c-.03-.22-.08-.41-.16-.58a1.4 1.4 0 0 0-.75-.7 1.5 1.5 0 0 0-1.33.15 1.6 1.6 0 0 0-.56.68c-.13.3-.2.66-.2 1.08 0 .42.07.78.2 1.08.14.3.32.52.56.68.23.16.5.24.8.24a1.36 1.36 0 0 0 1.29-.82c.08-.16.13-.34.15-.52h-.62a.92.92 0 0 1-.1.3.78.78 0 0 1-.43.36.88.88 0 0 1-.77-.1c-.14-.11-.26-.26-.34-.47-.08-.2-.12-.45-.12-.75s.04-.54.12-.74c.08-.2.2-.36.34-.47a.8.8 0 0 1 .49-.16c.1 0 .2.02.29.05.1.03.17.08.24.15.07.06.13.14.18.23.05.09.08.19.1.3Z"/></svg>