<!-- by TradingView --><svg width="18" height="18" fill="none" xmlns="http://www.w3.org/2000/svg"><path fill="#004785" d="M0 0h18v18H0z"/><path d="M8.998 12.746c3.174 0 5.747-1.678 5.747-3.747 0-2.07-2.573-3.748-5.747-3.748S3.25 6.93 3.25 9c0 2.07 2.573 3.747 5.747 3.747z" stroke="#fff" stroke-width=".5"/><path d="M8.956 11.717c2.578 0 4.667-1.22 4.667-2.722 0-1.504-2.09-2.723-4.667-2.723S4.29 7.492 4.29 8.995s2.09 2.722 4.667 2.722z" fill="#fff"/><path d="M11.255 8.195l-.125-.074s-.086-.329-.286-.445c-.201-.117-.89-.202-1.788-.18-.898.02-2.147.473-2.147 1.491 0 1.019 1.067 1.5 2.281 1.5 1.74 0 1.75-.371 2.026-.53.144-.01.325-.01.325-.01l-.258.7s-.315.01-.41.042c-.096.032-.851.19-1.683.19-.87 0-3.326-.381-3.326-1.92 0-1.538 2.772-1.793 3.192-1.793.73 0 1.676.107 1.877.128.2.021.618.031.618.031s.019.075.01.17c-.01.096-.306.7-.306.7z" fill="#004785"/></svg>