<!-- by TradingView --><svg width="18" height="18" viewBox="0 0 18 18" xmlns="http://www.w3.org/2000/svg"><path fill="#F0F3FA" d="M0 0h18v18H0z"/><path fill-rule="evenodd" d="M8.7 7v5.86c0 .13-.12.19-.2.1L3.04 7.23a.13.13 0 0 1 .1-.23H8.7Zm.6 0v5.86c0 .13.12.19.2.1l5.46-5.73a.13.13 0 0 0-.1-.23H9.3ZM8 9.11v.52c-.17.26-.5.37-.82.37C6.51 10 6 9.62 6 9s.51-1 1.19-1c.25 0 .5.04.73.15v.47H7.9a.67.67 0 0 0-.68-.5c-.53 0-.72.46-.72.88 0 .4.16.87.68.88.5 0 .73-.36.8-.77H8Zm4 0v.52c-.17.26-.5.37-.82.37-.67 0-1.18-.38-1.18-1s.51-1 1.19-1c.25 0 .51.04.73.15v.47h-.03a.67.67 0 0 0-.67-.5c-.53 0-.72.46-.72.88 0 .4.16.87.68.88.5 0 .73-.36.8-.77H12Z" fill="#084975"/></svg>