<!-- by TradingView --><svg width="18" height="18" viewBox="0 0 18 18" xmlns="http://www.w3.org/2000/svg"><path fill="#F0F3FA" d="M0 0h18v18H0z"/><path d="M12.84 4H5.16A1.17 1.17 0 0 0 4 5.16v7.68A1.17 1.17 0 0 0 5.16 14h7.68A1.17 1.17 0 0 0 14 12.84V5.16A1.17 1.17 0 0 0 12.84 4Z" fill="#023985"/><path d="m6.55 8.63.67-1.11-.17-.1-.78 1.06c-.35.23-.2-.18-.2-.18l.5-.78c-.47 0-.44-.25-.44-.25-.1-.2.7-.19.7-.19l.04-.24h-.74v-.33l.52-.03c-.09-.12.1-.48.1-.48.27-.03.37.45.37.45h.46a.54.54 0 0 1 .22-.39c.22-.02.28.45.28.45h.28c.28.04.17.33.17.33H7.22l.26.55.49-.37c.2-.1.24.21.24.21l-.5.49c.1.65 1.2.91 1.2.91-.19.28-.72.37-.72.37-.62.01-.85-.97-.85-.97l-.62.78c-.35.12-.17-.18-.17-.18ZM9.17 7.93c.43.22.97-.4.97-.4h.01V7.3c-.22.1-.45.17-.68.21-.32.05-.22-.36-.22-.36.02-.11.77-.2.9-.2v-.23c-.1 0-.2.02-.3.04-.45.07-.49-.08-.49-.08-.2-.24.49-.44.49-.44h1.1c.75.27 0 .54 0 .54a1.8 1.8 0 0 0-.57-.07v.22l.51.01c.33.07 0 .29 0 .29-.16-.08-.36-.05-.51-.01v.32l.36.07c.39.1.2.32.2.32-.09.06-.38-.02-.56-.08v1.07h-.23V7.9c-.22.3-.65.46-.65.46-.56-.04-.33-.43-.33-.43Z" fill="#023985"/><path d="M6 6.85h.69l-.04.23s-.77-.01-.68.2c0 0-.02.25.43.24l-.5.79s-.13.4.2.18l.76-1.06.16.1-.64 1.1s-.18.3.16.18l.6-.78s.22.98.83.97c0 0 .5-.1.7-.37 0 0-1.08-.26-1.16-.9l.47-.5s-.04-.31-.23-.2l-.48.36-.25-.54H8.3s.1-.3-.16-.34h-.27s-.06-.47-.27-.44a.53.53 0 0 0-.22.39h-.44s-.1-.49-.36-.46c0 0-.18.36-.1.49L6 6.5v.34Zm-.82 1.78s.6.14.72-1.04c0 0 .08-.83-.2-1.16 0 0-.27-.1-.21.12 0 0 .42.85-.23 1.36 0 0-.53.53-.08.72Zm5.6-1.75c-.15-.05-.3-.07-.45-.08v.22c.13 0 .26 0 .4.02.32.07 0 .28 0 .28a.63.63 0 0 0-.4-.04v.37l.24.05c.38.1.2.32.2.32-.07.04-.27 0-.44-.05V9H10V7.97c-.2.3-.63.46-.63.46C8.83 8.4 9.04 8 9.04 8c.42.23.95-.4.95-.4H10v-.2c-.21.09-.43.16-.66.2-.31.05-.22-.35-.22-.35.03-.12.76-.2.88-.21v-.23l-.3.05c-.43.07-.47-.08-.47-.08-.19-.24.48-.45.48-.45h1.07c.73.28 0 .55 0 .55Zm.24.12h1.45s.38.14.08.33h-.22v.69s.37.14.11.29l-1.34-.06s-.1.18-.28.18c0 0-.25-.13 0-.26 0 0 .28-.27.28-.36v-.6s-.36-.07-.08-.21Zm.31.87.73-.06.06-.48h-.79v.54Z" fill="#EEF1F8"/><path opacity=".7" fill="#F0F3FA" d="M5 10h8v2H5z"/></svg>