<!-- by TradingView --><svg width="18" height="18" viewBox="0 0 18 18" xmlns="http://www.w3.org/2000/svg"><path fill="#024B99" d="M0 0h18v18H0z"/><path d="M7.73 7.5h-2.1c-.13 0-.13.25-.05.32l.39.2.03.03A.08.08 0 0 1 6 8.1L6 8.15c-.1.14-.14.3-.1.46l.04.07c.02.02.05.03.08.03.11 0 .23-.05.32-.12.25-.22.56-.4.92-.57a.53.53 0 0 1 .25-.04c.02 0 .04 0 .05.02.06.06.1.14.12.23a.37.37 0 0 1-.19.36c-.46.3-.76.5-.9.62-.25.2-.09.35.08.57a3.79 3.79 0 0 0 1.86 1.3l.4.11a.1.1 0 0 1 .06.05.1.1 0 0 1 0 .08c-.05.18-.65.49-.79.56-.3.15-.77.14-1.11.08-.6-.12-1.01-1.28-1.15-1.75a.15.15 0 0 0-.02-.05l-.03-.04a.1.1 0 0 0-.08-.04.1.1 0 0 0-.09.04c-.43.55-.8 1.01-1.23 1.44a.96.96 0 0 1-.22.16.1.1 0 0 1-.08 0c-.13-.05-.18-.13-.15-.25.04-.18.13-.36.25-.55.32-.53.66-1.02 1.03-1.48.11-.15.17-.36 0-.49-.23-.17-.79.54-.9.7l-.69.99c-.13.2-.3.34-.52.45a.11.11 0 0 1-.14-.03.1.1 0 0 1-.02-.05.98.98 0 0 1 .13-.55c.18-.34.44-.71.78-1.13a.38.38 0 0 0 .09-.18.07.07 0 0 0-.02-.06.08.08 0 0 0-.07-.03c-.28.04-.73.12-.73-.26 0-.24 0-.32.17-.49a10.38 10.38 0 0 0 .4-.05c.27-.03.56-.11.88-.24.19-.08.2-.45-.05-.37a4.1 4.1 0 0 1-.47.14c-.26.05-.99.11-1.11-.16-.09-.2-.06-.41.09-.62.13-.18.53-.01.74-.06.16-.04.3-.11.41-.2a.2.2 0 0 0 .06-.08.2.2 0 0 0 .02-.09l-.02-.32V6.2c.06-.1.13-.16.22-.19.25-.07.4.27.49.45.19.39.48.35.87.3.48-.05.38-.44.74-.61l.06-.02c.27.03.35.27.45.51.12.26.43.19.64.24.15.03.42.12.44.28.04.28-.3.29-.53.34ZM9.71 7.77l1.18-.31c.03 0 .05-.02.07-.04a.19.19 0 0 0 .04-.06.21.21 0 0 0 .02-.15.23.23 0 0 0-.04-.08.2.2 0 0 0-.06-.05.18.18 0 0 0-.14-.02c-.43.13-.8.18-1.14.15-.29-.08-.38-.42-.35-.7 0-.05.03-.1.05-.13a.22.22 0 0 1 .1-.07 4.7 4.7 0 0 1 1.7-.31c.3 0 .66.02 1.12.06.2.02.39.08.58.18.16.08.2.21.13.4-.1.24-.41.3-.61.3-.37 0-.62 0-.75.02-.16.01-.16.19-.16.32l.01.05.03.02c.13.07.24.1.32.1.33 0 .64.04.93.12a.1.1 0 0 1 .06.04l.01.07c-.02.19-.09.28-.2.43a.57.57 0 0 1-.5.22c-.15 0-.5-.06-.6.06a.12.12 0 0 0-.03.1l.04.08c.28.32.75.3 1.02.62l.04.05c.1.31-.13.47-.38.5h-.04a2.82 2.82 0 0 1-.46-.21c-.08-.05-.15-.03-.2.04a109.53 109.53 0 0 1-.06 2.17c0 .1-.03.18-.08.23a.1.1 0 0 1-.04.03.1.1 0 0 1-.05 0 .14.14 0 0 1-.05-.02.17.17 0 0 1-.04-.04c-.18-.23-.2-.7-.19-.98l.06-1.12c0-.03 0-.06-.02-.09a.11.11 0 0 0-.07-.05c-.07-.01-.13.01-.2.08-.32.34-.63.59-.94.75-.1.06-.23.1-.38.11-.4.05-.43-.6-.44-.9l.01-.05a.1.1 0 0 1 .03-.04.08.08 0 0 1 .09-.01l.28.13a.15.15 0 0 0 .14-.01c.4-.25.77-.54 1.12-.88a1.78 1.78 0 0 0 .3-.42l-.01-.03-.02-.02h-.03c-.46.13-.85.26-1.32.3-.4.04-.43-.43-.4-.76.01-.1.07-.16.17-.17h.35ZM2.62 8.03c.07-.05.15-.04.22.03.03.03.06.2.09.26.04.09.06.2.07.33v.63c-.01.16-.04.31-.08.46l-.1.5a1.23 1.23 0 0 1-.43.73c-.11.05-.2.04-.3-.02a.1.1 0 0 1-.02-.04.63.63 0 0 1 0-.56c.04-.11.08-.27.15-.36a.07.07 0 0 1 .04-.02l.1-.03a.1.1 0 0 0 .05-.03.13.13 0 0 0 .03-.04c.13-.31.17-.63.23-.98.05-.27-.16-.54-.07-.83 0-.01 0-.02.02-.03ZM13 9.83c.02-.2.2-.42.34-.6.05-.06.1-.14.12-.22.17-.5.27-1.01.01-1.48-.08-.16-.2-.31-.1-.48l.02-.03h.03l.25-.02c.21.06.4.09.57.09.37 0 .87-.01 1.34-.07.13-.01.24-.02.32 0 .02 0 .04 0 .05.02l.03.06c.04.18.02.36-.04.56a3.08 3.08 0 0 0-.14 1.59c.02.12.04.28.02.4a.2.2 0 0 1-.04.08.14.14 0 0 1-.06.05.45.45 0 0 1-.22.03 5.09 5.09 0 0 0-1.59-.03.7.7 0 0 0-.21.06c-.21.12-.4.2-.62.13a.1.1 0 0 1-.06-.05.16.16 0 0 1-.02-.09Zm1.07-.89c.13.06.34-.01.49-.05a67.27 67.27 0 0 1 .46-.01c.23 0 .25-.19.28-.44.02-.15.02-.31 0-.5a.16.16 0 0 0-.03-.08.1.1 0 0 0-.08-.04l-.89.07a.1.1 0 0 0-.06.03.16.16 0 0 0-.05.07 3.48 3.48 0 0 0-.15.93l.03.02Z" fill="#fff"/></svg>