<!-- by TradingView --><svg width="18" height="18" xmlns="http://www.w3.org/2000/svg"><path fill="#F48DA1" d="M0 0h18v18H0z"/><path d="M5.727 9.89c-.231-.268-.296-.582-.361-.8-.417-1.394-.633-3.337.322-4.58.282-.364.295-.313.731-.452 1.733-.154 3.59.372 5.315.023.405-.08.905.06.905.43 0 1.683.691 3.1.428 4.776-.037.235-.136.419-.213.451-2.108.909-6.024.152-7.127.152z" fill="#273896"/><path d="M6.731 4.358c2.688.389 3.785.024 5.041.253.174.03.33.081.354.248.184 1.342.203 2.905.115 3.748-.024.23.05.272-.168.444-1.065.837-4.468.812-5.686.321-.359-.145-.382-.33-.411-.694-.112-1.268.03-2.506.256-3.754.066-.361.207-.608.499-.566z" fill="#fff"/><path d="M13.857 12.91l-.01.004c-3.066.954-3.964.105-9.735 1.054-.402.056-.582-.027-.693-.19-.212-.312-.402-1.415-.142-1.687a1.68 1.68 0 01.5-.334c2.682-1.436 6.383-1.254 9.212-1.538.322 0 .636.018.8.123.409.262.32 1.659.353 2.089.012.166-.098.312-.285.48z" fill="#273896"/></svg>