<!-- by TradingView --><svg xmlns="http://www.w3.org/2000/svg" width="18" height="18"><path fill="#F0F3FA" d="M0 0h18v18H0z"/><path d="M12.99 6c-1.97 1.71-2.4 4.66-2.37 6h2.6A2.86 2.86 0 0016 9.07v-.14A2.86 2.86 0 0013.22 6h-.23z" fill="url(#aec0hdxaa)"/><path d="M12 6c-.48.47-1.44 1.93-1.9 4.59l-.55-.92h-.8A6.9 6.9 0 019.96 12H4.78A2.86 2.86 0 012 9.07v-.14A2.86 2.86 0 014.78 6H12z" fill="url(#bec0hdxaa)"/><defs><linearGradient id="aec0hdxaa" x1="13.31" y1="6" x2="13.31" y2="12" gradientUnits="userSpaceOnUse"><stop stop-color="#E6E7E9"/><stop offset=".44" stop-color="#B2B3B7"/></linearGradient><linearGradient id="bec0hdxaa" x1="7" y1="6" x2="7" y2="12" gradientUnits="userSpaceOnUse"><stop stop-color="#96ADCF"/><stop offset=".25" stop-color="#1F2C60"/></linearGradient></defs></svg>