<!-- by TradingView --><svg xmlns="http://www.w3.org/2000/svg" width="18" height="18"><path fill="#F0F3FA" d="M0 0h18v18H0z"/><path d="M16 6.5c-.55.9-3.93 2.55-3.93 2.55s-1.17.57-1.73.74c-1.03.33-2.13.3-2.91-.25 1.57-.07 2.83-.5 4.48-1.23L16 6.5zm-.79 2.3s-2.69 1.98-4.32 2.63c-1.48.6-2.6.06-3.6-1.07-.41-.46-.8-.94-1.2-1.42-.4-.49-.8-.98-1.23-1.45C4.07 6.6 2.89 6.26 2 7.24c.63-.13 1.31.44 1.57.74 0 0 1.18 1.4 1.9 2.3 1.09 1.4 2.51 3.1 4.4 2.64.86-.2 2.13-1 3.22-1.85l.18-.14c.78-.6 1.56-1.2 1.94-2.13zm-4.17 2.06c-1.25.59-2.4.1-2.67-.17 1.15.05 2.66-.63 4.1-1.31a30.78 30.78 0 003.3-1.9c-.51.99-1.88 1.78-2.9 2.38l-.25.15c-.58.33-1.13.64-1.58.85z" fill="#B89F63"/></svg>