<!-- by TradingView --><svg width="18" height="18" viewBox="0 0 18 18" xmlns="http://www.w3.org/2000/svg"><path fill="#F0F3FA" d="M0 0h18v18H0z"/><path d="M12 5.9c-.1-1.1-.83-1.95-1.65-1.9-.82.06-1.43 1-1.34 2.1.08 1.1.82 1.95 1.64 1.9.82-.06 1.43-1 1.34-2.1Z" fill="#56B5EE"/><path d="M8.86 5.54C8.52 4.47 7.63 3.8 6.87 4.05c-.75.26-1.08 1.33-.73 2.4.34 1.08 1.23 1.75 1.99 1.5.75-.26 1.08-1.33.73-2.4ZM13.97 7.68c.13-.82-.2-1.57-.74-1.67-.54-.1-1.08.49-1.2 1.31-.13.82.2 1.57.74 1.67.54.1 1.08-.49 1.2-1.31ZM6.12 8.86c-.44-.73-1.2-1.06-1.7-.74-.5.33-.56 1.19-.12 1.92.44.73 1.2 1.06 1.71.74.5-.33.56-1.18.11-1.92ZM7.06 11.13c.08.21.14.35.3.48a2.44 2.44 0 0 0 1.8.35c.02 0 .02-.02.03-.03a.06.06 0 0 0-.01-.06c-.04-.05-.13-.12-.15-.18-.04-.16.02-.26.2-.28.07-.01.15.03.22.05l.08.01a4.5 4.5 0 0 0 .76-.17.04.04 0 0 0 0-.04l-.03-.04a.08.08 0 0 0-.03-.03h-.05c-.5.11-1 .18-1.46.2-.2.02-.41 0-.67-.04-.31-.05-.71-.23-.8-.54-.12-.46.06-.79.4-1.15A2.24 2.24 0 0 1 9.35 9c.88.02 1.6.53 1.95 1.26.03.07.07.1.16.1.7.05 1.29.46 1.48 1.1.1.3.08.61-.04.91-.18.48-.55.8-1.1.95l-.52.09c-.07 0-.25.04-.52.08-1.1.2-2.08.36-2.92.5h-.36c-1.01-.1-1.7-.98-1.42-1.9a1.61 1.61 0 0 1 .95-1l.02.01.02.01.01.02Zm3.73.27-.03.02-.02.02a.06.06 0 0 0 0 .06l.12.2.04.02h.04l.23-.04.03-.01.02-.03a.06.06 0 0 0 0-.06l-.13-.2a.07.07 0 0 0-.03-.02h-.04l-.23.04Zm-3.28.52c.42.37 1.08.55 1.65.57a7.94 7.94 0 0 0 .64-.01c0-.1-.01-.22-.06-.32a.08.08 0 0 0-.04-.04c-.16-.09-.21-.26-.07-.39l.03-.02c.14-.06.25 0 .36.07a.08.08 0 0 0 .06.01l.42-.08.01-.01.01-.01v-.04l-.1-.15a.07.07 0 0 0-.03-.03h-.04a3.98 3.98 0 0 1-.81.17.1.1 0 0 0-.04.03l-.14.2-.01.03v.14l-.01.03-.03.02a3.4 3.4 0 0 1-.39.07c-.23.02-.46-.03-.72-.05a2.2 2.2 0 0 1-.7-.2.01.01 0 0 0 .01.01Zm4.1-.38a.04.04 0 0 0-.02-.02h-.03l-.19.07a.04.04 0 0 0-.02.02v.03l.08.18.02.02h.04l.18-.07.02-.02v-.04l-.07-.17Zm-2.35 0h-.02l-.02.02-.02.03v.09l.04.03h.03l.02-.02.02-.02v-.04a.1.1 0 0 0 0-.06c-.02-.01-.03-.03-.05-.03Zm.76.93a7.48 7.48 0 0 0 1.3-.3.06.06 0 0 0-.01-.06l-.14-.24a.09.09 0 0 0-.05-.04 7.4 7.4 0 0 1-.31.08c-.07.02-.13.01-.17-.04a.08.08 0 0 0-.07-.02l-.43.08c-.09.01-.16.07-.21.18v.04l.05.28.01.03h.03Zm-.16-.57c0-.01 0-.03-.02-.04a.08.08 0 0 0-.05-.02c-.02 0-.04 0-.05.02a.06.06 0 0 0-.02.04c0 .02 0 .04.02.05l.05.02c.02 0 .04 0 .05-.02a.06.06 0 0 0 .02-.05Z" fill="#56B5EE"/></svg>