<!-- by TradingView --><svg width="18" height="18" xmlns="http://www.w3.org/2000/svg"><path fill="#F0F3FA" d="M0 0h18v18H0z"/><path d="M8.543 5.015c-.944.054-1.75.35-2.423.887-.798.637-1.18 1.494-1.113 2.496.053.777.358 1.411.927 1.931.646.59 1.437.919 2.434 1.013.3.027 1.024.01 1.291-.032.765-.12 1.342-.35 1.871-.747.686-.514 1.073-1.16 1.181-1.965.035-.258.023-.72-.023-.975-.115-.615-.422-1.144-.922-1.599-.684-.62-1.535-.952-2.593-1.011a3.622 3.622 0 00-.63.002zm1.003.791c.662.115 1.177.36 1.628.773.2.184.433.521.534.777.226.571.193 1.313-.084 1.862-.238.474-.71.896-1.259 1.125-.415.172-.8.247-1.362.261-1.069.027-1.867-.23-2.447-.793a2.109 2.109 0 01-.63-1.118 3.075 3.075 0 01-.022-.866c.08-.522.328-.957.757-1.332.442-.387 1.008-.625 1.691-.711.27-.033.945-.022 1.194.022z" fill="#004890"/><path d="M8.51 11.277l.197-.038c1.92-.354 3.613-.506 4.293-.525v1.207c-1.137 0-2.13.324-2.505.458-.06.022-.107.038-.139.048-.052.055-.146.066-.228.075-.085.01-.159.019-.159.074.004.52.956.99 3.031 1.358v.081a44.114 44.114 0 01-1.84-.204c-2.532-.34-4.183-.793-4.682-1.284-.74-.732 1.299-1.113 2.032-1.25z" fill="#E7A614"/><path d="M13 11.567l-.37.031c-.17.014-.283.039-.406.06-.84.17-1.438.348-1.862.555-.342.168-.5.327-.5.508 0 .105.047.188.163.294.381.35 1.291.676 2.975.944v-2.392z" fill="#004890"/></svg>