<!-- by TradingView --><svg width="18" height="18" viewBox="0 0 18 18" xmlns="http://www.w3.org/2000/svg"><path fill="#F0F3FA" d="M0 0h18v18H0z"/><path d="M5.55 8.1c-1.42.7-2.22 1.57-2 2.45.35 1.36 3.01 1.9 6.11 1.33 3.1-.58 5.08-1.76 4.98-3.21-.04-.54-.4-1.11-1.15-1.4 0 0-.02-.01-.01-.02 0-.02.02-.01.02-.01.96.3 1.34.82 1.46 1.43.32 1.55-1.36 3.35-5.23 4.07-3.87.72-6.26-.11-6.69-1.77-.25-.99.69-2.1 2.48-2.92 0 0 .03-.02.04 0 .01.03-.01.05-.01.05Z" fill="#0B4B8C"/><path d="M8.51 7.65c0 .16.05.21.18.21h1.38c.33 0 .35 0 .35-.09V6.51c0-.21 0-.25-.3-.3-.1-.01-.17-.03-.17-.1 0-.11.1-.11.18-.11h1.23c.06 0 .18 0 .18.1 0 .08-.07.08-.27.1h-.09c-.11.01-.18.1-.18.27v3.08c0 .18.09.24.26.24.15 0 .28.01.28.12 0 .08-.12.09-.18.09h-1.4c-.06 0-.13-.01-.13-.08 0-.1.15-.12.29-.13.26-.02.3-.1.3-.52V8.25c0-.15-.02-.16-.29-.17H9.06c-.45 0-.55.04-.55.16v1.3c0 .17.16.2.4.25h.02c.07.02.18.04.18.13 0 .07-.09.08-.14.08H7.56c-.05 0-.16 0-.16-.07 0-.09.1-.1.2-.13h.07l.02-.01c.17-.04.31-.07.31-.28V6.53c0-.26-.03-.26-.37-.32-.08-.01-.15-.03-.15-.13 0-.07.07-.08.13-.08h1.26c.14 0 .18.02.18.1 0 .09-.11.1-.23.1h-.06c-.14.02-.25.1-.25.28v1.17ZM6.2 6c.07 0 .34.02.53.06.48.1.49.12.49.65 0 .05 0 .07-.04.07-.05 0-.1-.06-.16-.15-.13-.17-.32-.44-.81-.44-.7 0-1.3.74-1.3 1.9 0 .85.39 1.72 1.25 1.72.48 0 .7-.25.82-.43l.1-.14c.06-.1.1-.15.13-.15s.07.02.07.05c0 .32-.08.5-.1.57-.04.1-.48.29-.98.29a1.89 1.89 0 0 1-1.94-1.96c0-1 .62-2.04 1.94-2.04Zm7.24 1c.03 0 .05-.03.05-.06v-.51c0-.24 0-.3-.46-.4a1.65 1.65 0 0 0-.32-.03c-.75 0-1.12.52-1.12 1.04 0 .63.5.91.97 1.18.42.23.81.45.81.9 0 .3-.22.67-.79.67-.5 0-.7-.36-.76-.47-.09-.17-.1-.3-.1-.39-.02-.09-.02-.14-.1-.14-.12 0-.14.38-.14.55 0 .37.07.49.44.57.2.04.47.09.57.09.72 0 1.27-.35 1.27-1.16 0-.7-.52-.97-1-1.23-.4-.22-.78-.41-.78-.82 0-.3.19-.58.65-.58.54 0 .63.35.69.58.03.12.05.2.12.2Z"/></svg>