<!-- by TradingView --><svg width="18" height="18" xmlns="http://www.w3.org/2000/svg"><path fill="#3363A8" d="M0 0h18v18H0z"/><path d="M5.467 8.763h-1.46a5.224 5.224 0 000 .476h1.55a3.478 3.478 0 01-.09-.476zm.247-1.906H4.48a4.846 4.846 0 00-.196.476h1.272a3.71 3.71 0 01.157-.476zm-.276 1.428c0-.16.01-.32.029-.476H4.143a4.72 4.72 0 00-.092.476h1.387zm.276 1.43H4.05c.023.16.053.32.092.476h1.804a3.606 3.606 0 01-.233-.476zm.557.952H4.285c.058.163.122.32.196.477h2.246a4.052 4.052 0 01-.456-.477zM14 9c0-.079-.002-.159-.006-.237h-1.726a3.862 3.862 0 00-.232-.478h1.913a5.095 5.095 0 00-.092-.476h-2.15a3.612 3.612 0 00-.456-.476h2.464a4.585 4.585 0 00-.197-.476H8V9h2v2.621H4.739c.101.165.214.323.334.475h2.959v.477h-2.53c.175.172.363.33.563.475h1.967v.476H6.868C7.515 13.83 8.238 14 9 14a4.96 4.96 0 002.13-.476h-.538c.241-.134.465-.293.671-.476h.671c.2-.144.388-.303.564-.475h-.783c.12-.15.229-.31.326-.477h.884c.12-.152.232-.31.334-.475h-.988c.063-.156.116-.315.156-.477h1.09c.074-.156.14-.314.197-.477H12.52c.018-.155.029-.312.029-.472v-.004h1.31c.037-.157.068-.315.091-.476h-1.431a3.856 3.856 0 00-.091-.476h1.567c.004-.08.006-.16.006-.239zm-4-3.573h2.5a5.177 5.177 0 00-.565-.476H10v.476zm-3.73.477H5.074a5.17 5.17 0 00-.334.476h1.207c.096-.167.206-.327.325-.476zM10 6.38h3.26a5.148 5.148 0 00-.333-.476H10v.476zM7.4 4.95H6.065c-.2.146-.388.305-.562.477h1.225c.206-.18.43-.342.674-.476zM9 4a5 5 0 00-2.132.474h4.263A4.993 4.993 0 009 4z" fill="#fff"/></svg>