<!-- by TradingView --><svg width="18" height="18" xmlns="http://www.w3.org/2000/svg"><path fill="url(#paint0_linear)" d="M0 0h18v18H0z"/><path d="M8.106 8.76s-.24.24 0 .48l.655.654s.24.24.479 0l.654-.654s.24-.24 0-.48l-.655-.653s-.24-.24-.479 0" fill="#F0553B"/><path d="M7.84 10.555l-1.602-1.56 1.594-1.542s.36-.369 0-.738l-.537-.547s-.36-.37-.722 0L4.161 8.63s-.362.369 0 .738l.536.548.003.002 1.88 1.92s.362.37.723 0l.536-.547s.362-.369 0-.737zM13.85 8.666L10.32 5.15s-.335-.335-.671 0l-.5.497s-.336.335 0 .67l2.695 2.685-2.692 2.683s-.336.335 0 .67l.5.497s.335.335.671 0l3.528-3.515s.336-.335 0-.67z" fill="#fff"/><defs><linearGradient id="paint0_linear" x1="3.349" y1="3.122" x2="21.904" y2="24.434" gradientUnits="userSpaceOnUse"><stop stop-color="#1A1E21"/><stop offset="1" stop-color="#06060A"/></linearGradient></defs></svg>