<!-- by TradingView --><svg xmlns="http://www.w3.org/2000/svg" width="18" height="18" viewBox="0 0 18 18"><path fill="#F0F3FA" d="M0 0h18v18H0z"/><path d="M8.05 4c5.4.26 6.88 2.88 6.95 4.16a9.23 9.23 0 0 0-5.5-2.22c-2.78-.12-4.25.68-4.42 2.02-.13 1.08.2 1.7.69 2.04-2.25-.78-2.84-2.46-2.76-3.22C3.2 4.37 6.45 3.93 8.05 4z" fill="url(#auvyg222o)"/><path d="M10.88 13.55c-1.42.68-3.07.6-4.07-.3-1.27-1.13-1.02-3.15.54-4.5C8.74 7.54 10.7 7.26 12 8l-.32 1.4a1.68 1.68 0 0 0-.43-.4c-.94-.62-2.4-.31-3.24.7-.85 1-.77 2.31.17 2.93.8.51 1.94.38 2.79-.27l-.1 1.19z" fill="#343A74"/><defs><linearGradient id="auvyg222o" x1="3" y1="6.52" x2="14.33" y2="6.69" gradientUnits="userSpaceOnUse"><stop stop-color="#FA9422"/><stop offset="1" stop-color="#F6CB34"/></linearGradient></defs></svg>