<!-- by TradingView --><svg width="18" height="18" viewBox="0 0 18 18" xmlns="http://www.w3.org/2000/svg"><path fill="#F0F3FA" d="M0 0h18v18H0z"/><path d="M9.01 10.6c1.64 0 1.92-.74 1.99-1.08h-.7c-.07.23-.42.54-1.24.54-.76 0-1.46-.36-1.46-1.07 0-.64.52-1.1 1.5-1.1.84 0 1.11.44 1.15.54h.7c-.07-.2-.34-1.08-1.89-1.08-1.4 0-2.06.67-2.06 1.58 0 1.12.89 1.67 2.01 1.67Z" fill="#A92A31"/><path d="M6.36 13.2c-.6-.31-.9-1.03-.94-1.93h-.39c-.13 1.23.16 2.2.9 2.57 1.19.6 3.17-.52 4.78-2.57h-.17c-1.36 1.56-3.1 2.47-4.18 1.92Z" fill="url(#abdekrdhx)"/><path d="M11.66 4.79c.65.3.94 1.03.92 1.94h.36c.2-1.24-.08-2.22-.87-2.58-1.24-.57-3.33.55-4.97 2.58h.17c1.4-1.54 3.27-2.46 4.4-1.94Z" fill="url(#bbdekrdhx)"/><defs><linearGradient id="abdekrdhx" x1="5.4" y1="10.73" x2="9.31" y2="13.36" gradientUnits="userSpaceOnUse"><stop offset=".25" stop-color="#888C96"/><stop offset=".47" stop-color="#fff"/><stop offset=".77" stop-color="#888C96"/></linearGradient><linearGradient id="bbdekrdhx" x1="8.5" y1="4.81" x2="12.3" y2="7.59" gradientUnits="userSpaceOnUse"><stop offset=".3" stop-color="#888C96"/><stop offset=".57" stop-color="#fff"/><stop offset=".88" stop-color="#888C96"/></linearGradient></defs></svg>