<!-- by TradingView --><svg xmlns="http://www.w3.org/2000/svg" width="18" height="18" viewBox="0 0 18 18"><path fill="#18243C" d="M0 0h18v18H0z"/><path d="M14 5.42C10.82 5.52 9 4 9 4S7.18 5.52 4 5.42c0 0-.34 6.24 5 9.58 5.34-3.34 5-9.58 5-9.58Z" fill="#C05902"/><path d="m11.53 6.53-.03-.04a.13.13 0 0 0-.12-.05c-.12 0-.24-.03-.36-.05a.4.4 0 0 1-.25-.28.26.26 0 0 0-.04.2c.02.04.05.07.1.1-.17-.06-.26-.3-.26-.3a.52.52 0 0 0 .07.6.28.28 0 0 1-.15-.16c-.14.06-.27.13-.4.21l-.24.3.14-.53.3-.12-.04-.29-.13.17-.21.02a.25.25 0 0 1 .08-.24.3.3 0 0 1 .24 0l-.08-.43-.45.15-.16-.01a.14.14 0 0 0-.12.04l-.3.21a.4.4 0 0 1-.37-.02h-.01c.01.08.05.13.11.17.05.02.1.02.14.02a.6.6 0 0 1-.4-.04c.03.1.1.2.18.26.08.07.19.1.3.12a.28.28 0 0 1-.22-.02l-.17.39-.19.1a.27.27 0 0 1-.05.2.52.52 0 0 0-.22-.55H8.2c.02.13 0 .27-.08.38a.21.21 0 0 0 .03-.13.26.26 0 0 0-.13-.15.37.37 0 0 1-.09.36c-.09.08-.19.15-.3.21a.13.13 0 0 0-.07.1l-.03.16-.28.37.4.2a.28.28 0 0 1 .08-.23.26.26 0 0 1 .25 0l-.08.18-.2.07.28.13.2-.25.47-.09.32.38c-.05.3-.07.6-.04.9l-.03.02c-.12.07-.56.34-.82.52a1.1 1.1 0 0 0-.31.58l-.09.42-.64.5-.25.51c-.25.26-.24.37-.24.38h.75c.03-.12-.1-.33-.13-.37l.11-.28 1.02-.41c.4-.17.42-.4.43-.49v-.02l.01-.1c.02-.14.04-.29.08-.43a.75.75 0 0 1 .25-.18l-.16.16a.6.6 0 0 0-.05.46c.36-.07.7-.22.99-.44.16-.1.31-.22.45-.35l.1-.1.54.5c.09.19.15.24.18.25a.03.03 0 0 0 .03 0l.43-.11.2.12-.04-.22a.19.19 0 0 0-.1-.13c-.16-.06-.32-.1-.48-.13l-.49-.65c.1-.18.15-.36.18-.55a1.1 1.1 0 0 0-.06-.64.7.7 0 0 1-.05-.45.4.4 0 0 1 .07-.16l.45-.15.3.13.18-.24-.2.03-.17-.13c.08-.09.15-.12.22-.11.12.02.18.16.18.16l.26-.36-.43-.18-.07-.08Zm.22 1.24a.37.37 0 0 1 .26-.07h.01l-.13.14v.45l-1.02.7v-.01c.07-.2.1-.4.08-.61l.65-.2v-.02l.02-.14c.01-.1.06-.18.13-.24ZM10.1 11.7c.05.02.09.05.12.08.05.04.08.1.09.17h-.65l-.5-.44.25-.48-.48-.43c.32-.06.62-.19.88-.38l.01.02.17.31a.34.34 0 0 1-.05.36l-.39.48.18.28a2.29 2.29 0 0 1 .37.03Zm-2.68-1.57c.13.01.26 0 .37-.06-.04.1-.08.2-.1.32h-.1c-.14 0-.28-.02-.4-.07a.73.73 0 0 1-.33-.25.52.52 0 0 1 .09-.71c.05-.05.12-.1.19-.13l.07-.04c.1-.06.1-.1.1-.12a.28.28 0 0 0-.1-.1A2.4 2.4 0 0 0 7 8.85a.48.48 0 0 1-.26-.3.3.3 0 0 1 .05-.23l.04-.05.02.06c.01.05.04.1.08.13-.01-.05 0-.1.01-.15l.03-.06.03.06a.24.24 0 0 0 .22.1c.1 0 .21.01.3.06a.63.63 0 0 0-.04-.08l-.07-.1.11.05c.1.04.17.1.23.19a.48.48 0 0 1-.08.57c-.1.13-.24.24-.4.32l-.07.04a.35.35 0 0 0-.14.13.34.34 0 0 0-.06.18c0 .08.03.15.08.2.1.09.22.14.34.16Z" fill="#fff"/></svg>