<!-- by TradingView --><svg width="18" height="18" viewBox="0 0 18 18" xmlns="http://www.w3.org/2000/svg"><path fill="#F0F3FA" d="M0 0h18v18H0z"/><path fill-rule="evenodd" d="m4 13 .95-5.26C5 7.42 4.8 7.2 4.65 7h.85l-.11.6c.44-.6 1-.78 1.54-.4.72.5.92 1.84.46 2.97-.47 1.13-1.43 1.64-2.15 1.13a1.23 1.23 0 0 1-.41-.54L4.43 13H4Zm3.04-3.03c-.31.88-.97 1.27-1.46.88-.5-.4-.63-1.43-.32-2.32.32-.88.98-1.27 1.47-.88.49.4.63 1.43.31 2.32Z" fill="#F5192F"/><path d="M14 5h-2.9L9.46 7.13 7.8 5H4.9l1.16 1.48c.15-.04.3-.06.47-.05 1.14.03 1.7 1.3 1.66 2.44-.05 1.38-.9 3.24-2.27 3.27-.11 0-.22 0-.32-.03l-.7.89h2.9l1.65-2.13L11.11 13H14l-3.1-4L14 5Z" fill="#201D1D"/></svg>