<!-- by TradingView --><svg width="18" height="18" viewBox="0 0 18 18" xmlns="http://www.w3.org/2000/svg"><path fill="#F0F3FA" d="M0 0h18v18H0z"/><path fill-rule="evenodd" d="M9 14A5 5 0 1 0 9 4a5 5 0 0 0 0 10Zm.03-.63c2.43 0 4.4-1.95 4.4-4.37a4.39 4.39 0 0 0-4.4-4.38A4.39 4.39 0 0 0 4.63 9a4.39 4.39 0 0 0 4.4 4.38Z" fill="#8CBF4D"/><path d="M14 7.24c0-1.72-1.61-2.88-2.42-3.24a5.11 5.11 0 0 1 1.6 3.62c0 2.93-1.76 4.03-2.18 4.38 1.95-.8 3-2.61 3-4.76ZM13.98 11c-.62 2.1-2.25 1.76-2.98 1.34 0 .1.82.66 1.47.66 1.35 0 1.6-1.73 1.51-2Z" fill="#0457B6"/><path d="M8.58 6h.75l-1.47 6H7.1l1.47-6Z" fill="#8CBF4D"/><path d="M9.7 6h.74l-1.47 6h-.75L9.7 6ZM10.8 6h.75l-1.47 6h-.75l1.48-6Z" fill="#0457B6"/><path d="M11 8.25h-.75L10.81 6h.74L11 8.25ZM7.47 6h.75l-.24 1h-.75l.24-1Zm-.49 2h.75l-.5 2H6.5L7 8Zm-.73 3L6 12h.75l.24-1h-.74Z" fill="#8CBF4D"/></svg>