<!-- by TradingView --><svg width="18" height="18" viewBox="0 0 18 18" xmlns="http://www.w3.org/2000/svg"><path fill="#F0F3FA" d="M0 0h18v18H0z"/><path d="M11 7.08a.5.5 0 1 1-1 0 .5.5 0 0 1 1 0Z" fill="#405B70"/><circle cx="11.5" cy="9.5" r=".5" fill="#405B70"/><path d="M11 11.75a.75.75 0 1 1-1.5 0 .75.75 0 0 1 1.5 0ZM5.75 6.75a.75.75 0 1 1-1.5 0 .75.75 0 0 1 1.5 0ZM8.5 6a.5.5 0 1 1-1 0 .5.5 0 0 1 1 0Z" fill="#405B70"/><path d="M13.05 6.05 12 6.5l1.05.45L13.5 8l.45-1.05L15 6.5l-1.05-.45L13.5 5l-.45 1.05Z" fill="#F7622A"/><circle cx="8" cy="13" r="1" fill="#405B70"/><circle cx="5" cy="12" r="1" fill="#405B70"/><path d="M5 9.5a1 1 0 1 1-2 0 1 1 0 0 1 2 0Z" fill="#405B70"/></svg>