<!-- by TradingView --><svg xmlns="http://www.w3.org/2000/svg" width="18" height="18" viewBox="0 0 18 18"><path fill="#F0F3FA" d="M0 0h18v18H0z"/><path d="M10.2 12.52h.14c-.13.48-.22.97-.26 1.46a5.35 5.35 0 0 0 4.2-5.7 8.3 8.3 0 0 0-4.07 4.24ZM7.85 12.52h-.13c.11.48.19.98.23 1.48a5.32 5.32 0 0 1-4.22-5.78 9.28 9.28 0 0 1 4.12 4.3Z" fill="#261C02"/><path opacity=".6" d="M10.03 12.52h-2l-.3-.64a9.29 9.29 0 0 0-3.5-3.77A4.76 4.76 0 0 1 9 4c2.5 0 4.54 1.85 4.78 4.2a8.3 8.3 0 0 0-3.44 3.68c-.1.22-.21.42-.3.64Z" fill="#0069AA"/></svg>