<!-- by TradingView --><svg width="18" height="18" viewBox="0 0 18 18" xmlns="http://www.w3.org/2000/svg"><path fill="#F0F3FA" d="M0 0h18v18H0z"/><path d="m11.43 6.17-.25.08a4.5 4.5 0 0 0-.46-.68c.42-.2.85-.38 1.29-.54-.49.08-.96.2-1.42.38a5.92 5.92 0 0 0-.38-.38c.01-.03.04-.04.06-.06a7.48 7.48 0 0 1 1.93-.9l-.05.01a6.1 6.1 0 0 0-1.52.45l-.23.11h-.01a6.04 6.04 0 0 1 1.16-1.16l.11-.08c.03 0 .04-.01.06-.04h-.03l-.02.01a3.65 3.65 0 0 0-1.88 1.87 6.25 6.25 0 0 0-.48 1.62 11.7 11.7 0 0 0-.14 1.78c.06-.39.12-.77.2-1.16l.6-.44c.14.46.22.93.26 1.4a4.71 4.71 0 0 1-1.05.37.08.08 0 0 0-.02.07c0 .27 0 .53-.02.8a6.52 6.52 0 0 1-.7 2.74c-.1.18-.2.36-.33.53a3.73 3.73 0 0 1-.56-.8l.12-.42c.1-.4.17-.82.2-1.24.06-.51.06-1.03.07-1.55a6.86 6.86 0 0 1 .4-2.58c.17-.46.4-.9.69-1.3a4.66 4.66 0 0 1 3.55-1.93l.35-.02.07.01v.39c-.01.32-.04.65-.09.97a5.71 5.71 0 0 1-1.13 2.75l-.12.15a5.87 5.87 0 0 0-.44-1.07l.21-.12c.02 0 .04 0 .04-.03a.02.02 0 0 0-.03 0Zm.09-.02h-.02.02Z" fill="#3F7B32"/><path d="M6.2 10.37a.26.26 0 0 0-.08.18.2.2 0 0 0 0 .1l.07.1.08.05c.04.03.08.07.1.13.01.05.02.1 0 .15l-.08.27c-.01.09 0 .18.03.27.03.08.1.15.17.2.08.05.18.07.28.08.05 0 .1 0 .15.02l.2.38a4.46 4.46 0 0 0 1.52 1.61c.3.2.6.36.93.5.43.18.88.33 1.33.43l.73.14c0 .02-.02.02-.03.02a15.47 15.47 0 0 1-1.7-.31 9.9 9.9 0 0 1-1.17-.38c-.51-.19-1-.44-1.45-.75a5.27 5.27 0 0 1-1.89-2.33 5.5 5.5 0 0 1-.31-1.18 7.1 7.1 0 0 1 .23-3.13A4.78 4.78 0 0 1 7.6 4.18c.14.08.28.17.41.28a3.45 3.45 0 0 0-.65.72l-.53.75a4.65 4.65 0 0 0-.66 1.56c-.02.08 0 .15.03.22.09.15.12.3.05.47-.04.1-.1.18-.16.26-.17.19-.36.37-.55.53-.15.13-.13.28.04.37.06.03.13.06.2.07l.2.05a.2.2 0 0 1 .1.05c.06.12.03.25.01.38 0 .05-.02.1-.04.15a.22.22 0 0 0 .05.24l.1.1Z" fill="#68B337"/><path d="M9.1 13.83a3.8 3.8 0 0 1-.46-.28l.36-.3a5.28 5.28 0 0 0 1.68-4.08c0-1.02-.31-2.18-.84-3.08l-.03-.07c.11-.28.23-.57.42-.84a5.24 5.24 0 0 1 .87.89 5.15 5.15 0 0 1-.05 6.23 5.19 5.19 0 0 1-1.85 1.48l-.1.05Zm.05-9.39-.37.4a5.32 5.32 0 0 0-2.2-1.31A8.6 8.6 0 0 0 5 3.13a.52.52 0 0 1 .22.02l.48.07.42.08a12.05 12.05 0 0 1 1.62.45c.42.15.83.34 1.21.56l.2.13Z" fill="#68B337"/><path d="M5.12 14.76v-.1a3.7 3.7 0 0 0 1.68-1.28l.46.35a4.9 4.9 0 0 1-2.14 1.03Z" fill="#3F7B32"/><path d="M8.65 3.99c-.12-.06-.26-.1-.4-.16l.25-.11a8.39 8.39 0 0 1 2.6-.65l.6-.07a.08.08 0 0 1 .07.02c-1.09.2-2.14.45-3.12.97Zm-.77 10.09.32.17c-.96.39-1.94.6-2.95.7.45-.09.9-.18 1.35-.32a6.7 6.7 0 0 0 1.28-.55Z" fill="#68B337"/><path d="M9.37 7.04c.06-.27.12-.53.2-.8.1.18.18.36.24.55l-.44.25Z" fill="#3F7B32"/></svg>