<!-- by TradingView --><svg width="18" height="18" viewBox="0 0 18 18" xmlns="http://www.w3.org/2000/svg"><path fill="#F0F3FA" d="M0 0h18v18H0z"/><path d="M11.21 3.48a.87.87 0 0 0 .09-.12c.04-.08.09-.1.13-.09a38.64 38.64 0 0 1 .13.04.1.1 0 0 0 .05-.03l.24-.26A.07.07 0 0 1 11.9 3c.02 0 .04.01.05.03l1.03 1.35.02.07c0 .03-.01.06-.03.08l-.24.25a.1.1 0 0 0-.02.06v.05c.04.09.03.15 0 .19l-.25.27a.08.08 0 0 0-.01.05l.01.05c.03.03.04.06.04.08 0 .03-.01.06-.04.08l-.66.74c-.1.11-.18.14-.23.07a.06.06 0 0 0-.04-.02l-.04.01c-.08.06-.14.05-.18-.03l-.01-.02h-.04v.02c-.03.03-.05.05-.09.06a6.77 6.77 0 0 0-.2-.21h-.04c-.06.07-.12.05-.2-.03a9.6 9.6 0 0 1-.24-.3h-.02l-.02.02c-.07.07-.14.04-.2-.09a.14.14 0 0 0-.04-.04.11.11 0 0 0-.05-.03.1.1 0 0 0-.06 0 .12.12 0 0 0-.04.04l-.34.36a.08.08 0 0 1-.06.03h-.2a.2.2 0 0 1-.16-.08.3.3 0 0 1-.07-.19V5.7l.01-.07a55.12 55.12 0 0 1 1.03-1.16V4.4a.11.11 0 0 0-.01-.05.09.09 0 0 0-.04-.03c-.03-.01-.06 0-.1.04l-.02.02a.06.06 0 0 1-.06 0l-.02-.02-.24-.31a.1.1 0 0 1-.02-.07.1.1 0 0 1 .02-.06l.26-.28a.09.09 0 0 1 .05-.02l.06.01.03.02.04.01h.04c.05-.04.1-.04.13-.02a.1.1 0 0 1 .03.11c-.02.06-.04.09-.08.1l-.04-.01a.08.08 0 0 1-.03-.04.82.82 0 0 1-.01-.02l-.02-.02-.02-.01h-.02l-.02.01-.17.18-.02.04v.04c.08.16.17.22.27.17a.1.1 0 0 1 .07 0c.02 0 .04.02.05.03l.02.02.04.02c.01 0 .02 0 .03-.02l.28-.3a.08.08 0 0 1 .06-.02l.06.03.03.04v.02a.07.07 0 0 1 0 .04v.02L9.4 5.71a.15.15 0 0 0-.03.05.17.17 0 0 0 .02.16l.08.1c.01.02.04.03.06.03.03 0 .05 0 .07-.02l1.02-1.12.02-.02h.03l.02.01.02.02.02.05v.06a.1.1 0 0 1-.02.06l-.38.42a.1.1 0 0 0-.03.07l.02.07.12.15.02.02h.06l.02-.01.4-.44.03-.02a.07.07 0 0 1 .06 0l.03.03v.02a.1.1 0 0 1 .02.06.1.1 0 0 1-.02.06l-.3.32-.01.04.01.03.18.24h.02l.43-.47a.08.08 0 0 1 .06-.02c.02 0 .05 0 .06.03l.02.02a.1.1 0 0 1 .01.06c0 .02 0 .04-.02.05l-.28.32a.09.09 0 0 0-.03.05l.02.06.03.04h.01a.03.03 0 0 0 .03 0h.01a.11.11 0 0 1 .12-.07c.03 0 .05.02.07.05.01.03.03.03.05.03a24.58 24.58 0 0 1 .8-.86.1.1 0 0 0-.01-.1l-.03-.04v-.02a.08.08 0 0 1 0-.05V5.2l.29-.3a.07.07 0 0 0 0-.09c-.06-.1-.02-.2.12-.3l.02-.03.01-.04a.1.1 0 0 0 0-.04.1.1 0 0 0-.02-.03l-.8-1.06-.03-.02h-.06l-.02.03c-.08.17-.17.2-.25.12a.06.06 0 0 0-.05-.02c-.01 0-.03 0-.04.02l-.15.17a.06.06 0 0 1-.05.02.06.06 0 0 1-.05-.03l-.03-.04a.05.05 0 0 0-.04-.02l-.04.01-.16.18-.02.01a.05.05 0 0 1-.04 0l-.02-.01-.03-.04a.08.08 0 0 1-.02-.05c0-.02 0-.04.02-.05l.14-.17c.05-.04.08-.05.1-.03.03.02.05.04.05.06l.01.03h.02l.02.01.02-.01ZM9.91 9H7.1c-.05 0-.09.02-.09.05v5.9c0 .03.04.05.09.05H9.9c.05 0 .09-.02.09-.05v-5.9c0-.03-.04-.05-.09-.05Z" fill="#231F20"/><path d="M9.29 5.22c-.24.26-.42.53-.29.78.3.62.68.6 1 .42v.08a1.5 1.5 0 1 1-.71-1.28Z" fill="#EA7A1E"/></svg>