<!-- by TradingView --><svg xmlns="http://www.w3.org/2000/svg" width="18" height="18"><path fill="#F0F3FA" d="M0 0h18v18H0z"/><path d="M4 11.9c0-1.27.55-2.59 1.65-3.96a11.8 11.8 0 014.58-3.5c.82-.35 2.71-.64 3.45-.25 1.15.6-1.16 1.73-1.16 1.73.64-.43 1.1-1.4.02-1.4-2.6 0-4.88 2.01-6.26 4.03-.66.98-1.82 2.96-.85 4.12.26.31.6.47 1.05.47a4.4 4.4 0 002.1-.72c.63-.37 3.18-2 3.18-2s-3.05 3.3-5.94 3.57C4.62 14.11 4 12.94 4 11.9z" fill="#01281E"/><path d="M6.94 8.85c.05-.02.17-.02.23-.03l.04-.01A46.4 46.4 0 0010 7.66c-.55-.77-1.32-1-1.9-1.04l.2-.19c.85.04 1.57.63 1.92 1.15l.1-.04c.04-.06.09-.07.13-.08h.01c.03 0 .06-.02.1-.04V7.4c-.03.02-.12.05-.17 0-.05-.05 0-.1.03-.12.03 0 .07.03.07.06l.08-.08c-.1 0-.07-.28.13-.18.09.04.06.2-.1.3v.01l.1-.05.09-.07a.24.24 0 01.1-.07c.09-.03.18-.01.18-.01s-.04.09-.11.14a.24.24 0 01-.12.03 4.33 4.33 0 00-.21.06v.02c.18-.07.32.01.3.11-.02.1-.12.13-.17.09-.06-.04-.06-.12-.01-.14 0 0-.17.04-.16.05.03.02.03.07 0 .1-.02.02-.1.01-.1-.06-.02-.07.06-.11.1-.13l-.02-.01a.37.37 0 00-.09.05c-.04.03-.07.07-.15.07l-.1.04.11.17s.02 0 .03-.02l.05-.02.05.1c.05.08.12.2.08.26h-.01a.1.1 0 01-.03.04c.8 1.94-.92 3.03-.92 3.03 1.12-1.15 1.02-2.24.73-2.94-.02.01-.05.03-.08.03a.2.2 0 00-.09.02l-.55.3a30.57 30.57 0 01-.86.46c-.2.1-.36.21-.52.33l-.2.15c.1.1.18.23.2.34 0 .1-.02.2-.11.29l-.07.07s-.13.5-.03.97c.04.2.07.33.08.45l.09-.09a1.51 1.51 0 00.15-.16.23.23 0 01-.1-.15c-.02 0-.04-.02-.05-.03-.04-.04-.05-.1-.04-.16-.22.03-.13-.4.07-.54-.11-.01-.11-.2-.07-.27a.37.37 0 01.13-.12c0-.1.06-.2.15-.23-.09-.18.2-.13.3-.12l.05.01c.08.02.18.04.24 0 .04-.02.04-.07.04-.11l.01-.06c.02-.14.41-.45.55-.38.03.02-.04.14-.1.22l-.04.09c-.02.04-.01.1.03.1a.23.23 0 00.07-.04c.06-.05.15-.12.22-.06.09-.04.05.05.02.1l-.12.13c-.08.08-.14.14-.15.3a.97.97 0 00.1.45c.06.12.12.28 0 .38a.36.36 0 01-.19.09c-.02.08.02.16.05.25.04.08.07.16.07.23l.01.15c.01.04-.26.16-.28.14 0 0-.05-.25-.04-.3 0-.01.07-.24-.02-.4l-.07.11c-.06.1-.11.2-.2.25v.04c0 .06 0 .13.05.2l.02.02.04.07c.03.05.02.2.02.2-.23.15-.45.3-.69.43l.03-.07.05-.1c.21-.15.35-.32.48-.46l.02-.03a.45.45 0 01-.09-.25c-.14.07-.3.07-.43-.06-.02.01-.06.02-.08.01a1.96 1.96 0 01-.25.27c-.1.1-.17.17-.25.3l-.03.06c-.1.19-.56.56-1.07.61l-.03-.05c0-.3 0-.6.03-.77.14-.46.25-.99.02-1.43a3.47 3.47 0 01-.04-.08c-.09-.2-.22-.46-.44-.42a1.5 1.5 0 00-.39.13c-.13.06-.27.12-.42.13l.05-.07c.17-.05.31-.1.44-.16.39-.16.6-.25.87.46.08.04.12-.04.16-.12l.02-.04.04-.08c.18-.3.42-.57.46-1.01.18-.03.35-.1.51-.18l.2-.12c.09-.06.18-.12.28-.16l.17-.08c.45-.2.91-.38 1.37-.56v-.01l.07-.15a2.87 2.87 0 00-.12-.2l-2.8 1.27-.01.01c-.06.06-.22.23-.28.12 0 .07-.06.3-.17.3-.23.03-.45.2-.66.35-.18.14-.35.28-.54.32l.09-.18c.19-.04.34-.16.49-.28.14-.11.29-.22.46-.27l.03-.02c.12-.03.13-.03.2-.15.07-.1.03-.25-.11-.22.04-.03.15-.14.08-.18l-.02.04a.14.14 0 01-.04.06l-.08.03c-.03 0-.07.02-.1.05a.46.46 0 00-.03.08l-.04.1c-.1.17-.3.24-.48.31l-.19.08c.34-.63.75-1.21 1.2-1.76.17-.03.12.09.09.1-.03 0-.15.02-.1.11l.01.04c.07.15.12.28-.01.42l-.13-.03c-.16-.04-.04.2.02.22 0 .1 0 .17-.04.25h.06zm1.37 1.66c-.14.28-.16.4.03.31a2.24 2.24 0 00.14-.07l-.06.08-.03.03c-.27.29.04.45.27.22.1-.07.14-.04.1.02a.67.67 0 01-.2.18c.2.26.55-.11.64-.33.03-.03.26-.22.26-.07v.07c.25-.09.2-.22.12-.43v-.02l-.04-.1c-.1-.22-.18-.41.1-.64h.01c.07-.06.15-.12.17-.2a.86.86 0 00-.07.05c-.05.04-.1.08-.16.08-.1.02-.2-.05-.17-.15l.09-.15.04-.06c.06-.1-.03-.09-.13-.02-.1.07-.28.23-.3.3v.04c0 .07-.01.15-.06.19-.07.05-.22.02-.3 0h-.08c-.08-.02-.2-.05-.18.05.16.04.06.07-.03.07-.04 0-.16.07-.15.17.16.02.1.05.03.08l-.08.06c-.07.06-.08.18.04.24z" fill="#01281E"/><path d="M6.3 10.88c.22 0 .35.13.35.13-.84-.4-1.38.76-.78 1.34.22.21.53.36.8.4.51.07 1.08-.07 1.49-.31v.08l-.1.05c-.34.18-.75.4-1.11.4-.56 0-1.23-.36-1.43-.87-.22-.54.19-1.22.79-1.22z" fill="#01281E"/></svg>