<!-- by TradingView --><svg xmlns="http://www.w3.org/2000/svg" width="18" height="18" viewBox="0 0 18 18"><path fill="#F0F3FA" d="M0 0h18v18H0z"/><path d="M6.15 13.24c-.75-.62-1.86-2.51-.52-5.1C6.96 5.58 9 3.5 9 3.5s2.04 2.07 3.37 4.65c1.34 2.58.23 4.47-.52 5.09.76-.98.5-2.61.08-3.58A15.25 15.25 0 0 0 9 5.6c-.96.92-2.3 2.65-2.93 4.07-.43.97-.68 2.6.08 3.58ZM9 14.5c-.75 0-2.56-.78-2.56-2.62 0-1.46 1.7-3.73 2.56-4.43.86.7 2.56 2.97 2.56 4.43 0 1.84-1.8 2.62-2.56 2.62Z" fill="url(#atrt405gy)"/><defs><linearGradient id="atrt405gy" x1="9" y1="3.5" x2="9" y2="14.5" gradientUnits="userSpaceOnUse"><stop stop-color="#8DC63F"/><stop offset=".5" stop-color="#6679A3"/></linearGradient></defs></svg>