<!-- by TradingView --><svg width="18" height="18" fill="none" xmlns="http://www.w3.org/2000/svg"><path fill="#F0F3FA" d="M0 0h18v18H0z"/><path d="M2 9c0-2.073 2.725-3.756 6.22-4 1.747.61 2.609 1.39 2.818 2.098-.023 0-.233.024-.256.024-5.078.658-7.268 1.976-7.268 3.268 0 .83.979 1.683 3.028 2.366C3.91 12.171 2 10.707 2 9z" fill="#014896"/><path d="M2 9c0-2.073 2.725-3.756 6.22-4 1.747.61 2.609 1.39 2.818 2.098-.023 0-.233.024-.256.024-5.078.658-7.268 1.976-7.268 3.268 0 .83.979 1.683 3.028 2.366C3.91 12.171 2 10.707 2 9z" stroke="#014896" stroke-width=".063" stroke-miterlimit="3.864"/><path d="M6.682 10.293c.07-1.293 1.305-2.147 4.403-2.83v.025c0 1.244-1.211 2.122-4.403 2.805z" fill="#27AB48"/><path d="M6.682 10.293c.07-1.293 1.305-2.147 4.403-2.83v.025c0 1.244-1.211 2.122-4.403 2.805z" stroke="#27AB48" stroke-width=".105" stroke-miterlimit="3.864"/><path d="M10.829 5.122C13.81 5.585 16 7.146 16 9c0 2.098-2.842 3.83-6.43 4-1.886-.683-2.748-1.585-2.864-2.39.023 0 .326-.025.349-.025 5.078-.61 7.198-1.878 7.198-3.097-.023-.83-1.118-1.708-3.424-2.366z" fill="#014896"/><path d="M10.829 5.122C13.81 5.585 16 7.146 16 9c0 2.098-2.842 3.83-6.43 4-1.886-.683-2.748-1.585-2.864-2.39.023 0 .326-.025.349-.025 5.078-.61 7.198-1.878 7.198-3.097-.023-.83-1.118-1.708-3.424-2.366z" stroke="#014896" stroke-width=".063" stroke-miterlimit="3.864"/></svg>