<!-- by TradingView --><svg width="18" height="18" viewBox="0 0 18 18" xmlns="http://www.w3.org/2000/svg"><path fill="#F0F3FA" d="M0 0h18v18H0z"/><path d="M14.87 11.88c.09-.44.13-.89.13-1.35C15 6.93 12.31 4 9 4s-6 2.92-6 6.53c0 .5.05 1 .15 1.47l.12-.19a6.93 6.93 0 0 1-.12-1.28C3.15 7 5.77 4.17 9 4.17c3.23 0 5.85 2.84 5.85 6.36 0 .42-.04.83-.11 1.23l.13.12Zm-.29-.27c.06-.35.1-.71.1-1.08 0-3.41-2.55-6.17-5.68-6.17s-5.67 2.76-5.67 6.17c0 .36.03.72.08 1.07l.16-.25a6.53 6.53 0 0 1-.05-.82c0-3.3 2.45-5.96 5.48-5.96 3.03 0 5.48 2.67 5.48 5.96 0 .3-.02.61-.07.91l.17.17Zm-.33-.32c.03-.25.05-.5.05-.76 0-3.19-2.37-5.77-5.3-5.77-2.93 0-5.3 2.58-5.3 5.77 0 .2.01.39.03.58l.59-.91.53.18 2.2-2.42.62-.07 1.3-2.03 1.55 2.3.37.12 1.02 1.24.53-.15.74 1.21.4.07.67.64ZM9 4.93c2.84 0 5.15 2.5 5.15 5.6 0-3.1-2.3-5.6-5.15-5.6-2.8 0-5.07 2.42-5.15 5.45C3.93 7.35 6.2 4.93 9 4.93Zm-.27 2.14.21-.3.35.8.47.23.59.73-1-.17.84.5.74.07.76 1.29-.73-.69-.35.07-1.02-.67.97 1.47.05.83-.99-1.35-1.18-.67.45-.2-.43-1.54.27-.18v-.22Zm-2.88 3.56-.36.62 1.17-.38.45-1.61.92-.1.22-.83-.57.43-.5-.43-.6.65.18.19-.9 1.04v.42Zm6.28-.6-.2.83.3.47-.06.23.67-.23.65.45-.52-.92-.42-.19-.42-.63Z" fill="url(#absthc4zq)"/><defs><linearGradient id="absthc4zq" x1="9" y1="4.93" x2="9" y2="16.13" gradientUnits="userSpaceOnUse"><stop stop-color="#1F2D4C"/><stop offset=".59" stop-color="#41638E"/></linearGradient></defs></svg>