<!-- by TradingView --><svg xmlns="http://www.w3.org/2000/svg" width="18" height="18"><path fill="#696C71" d="M0 0h18v18H0z"/><path d="M4.6 9.08c-.16.8-.12 1.57.92 1.57.9 0 1.2-1.07 1.23-1.14H8.7A3.5 3.5 0 015.28 12c-2.05 0-3.07-1.11-2.72-2.98A3.7 3.7 0 016.24 6c1.9 0 2.79.87 2.67 2.35H6.98c.05-.6-.29-.94-.92-.94-.72 0-1.26.57-1.47 1.67zm7.3 1.57c.87 0 1.35-.7 1.53-1.63.14-.77-.04-1.6-.93-1.58-.91 0-1.35.86-1.48 1.58-.15.72-.08 1.63.89 1.63zM9 9.01A3.7 3.7 0 0112.78 6c2.19 0 2.95 1.52 2.66 3.02-.37 1.94-1.98 2.98-3.8 2.98C9.7 12 8.63 10.94 9 9z" fill="#fff"/></svg>