<!-- by TradingView --><svg width="18" height="18" xmlns="http://www.w3.org/2000/svg"><path fill="#F0F3FA" d="M0 0h18v18H0z"/><path d="M9.957 7.464c0 .22-.195.398-.437.398s-.438-.179-.438-.398c0-.22.196-.4.438-.4s.437.18.437.4zM9.957 10.537c0-.22-.195-.398-.437-.398s-.438.178-.438.398c0 .221.196.398.438.398s.437-.177.437-.398zM7.83 8.602c.243 0 .44.178.44.398 0 .221-.197.4-.44.4-.24 0-.436-.179-.436-.4 0-.22.196-.398.437-.398zM8.636 7.632a.372.372 0 010 .563.469.469 0 01-.62 0 .373.373 0 010-.563.467.467 0 01.62 0zM11.023 9.805a.466.466 0 00-.618 0 .373.373 0 000 .564c.17.156.446.156.618 0a.373.373 0 000-.564zM8.017 9.805a.469.469 0 01.619 0 .374.374 0 010 .564.468.468 0 01-.62 0 .375.375 0 010-.564zM10.405 7.632a.371.371 0 000 .563c.17.156.446.156.618 0a.371.371 0 000-.563.464.464 0 00-.618 0zM9.89 6.452c0 .185-.166.337-.37.337-.205 0-.37-.152-.37-.337 0-.187.165-.338.37-.338.204 0 .37.15.37.338zM9.89 11.55c0-.186-.166-.338-.37-.338-.205 0-.37.152-.37.337 0 .187.165.337.37.337.204 0 .37-.15.37-.337zM6.72 8.664c.204 0 .37.15.37.336 0 .186-.166.336-.37.336s-.37-.15-.37-.336c0-.186.166-.336.37-.336zM7.802 6.96a.315.315 0 010 .476.397.397 0 01-.523 0 .315.315 0 010-.477c.144-.13.38-.13.523 0zM11.762 10.565a.397.397 0 00-.524 0 .316.316 0 000 .476.395.395 0 00.524 0 .318.318 0 000-.476zM7.279 10.565a.395.395 0 01.523 0 .314.314 0 010 .476.393.393 0 01-.523 0 .314.314 0 010-.476zM11.238 6.96a.317.317 0 000 .476.399.399 0 00.524 0 .32.32 0 000-.477.4.4 0 00-.524 0zM8.877 6.809c.067.15-.012.325-.178.387a.338.338 0 01-.427-.16c-.069-.152.01-.326.177-.388.167-.064.359.01.428.16zM10.768 10.964c-.07-.15-.26-.222-.428-.16-.165.063-.246.236-.176.39.068.15.26.223.427.16.165-.063.245-.238.177-.39zM7.11 9.587a.34.34 0 01.43.16c.068.152-.012.326-.178.388-.168.063-.359-.009-.427-.16-.069-.152.01-.325.176-.388zM7.362 7.864c.166.063.246.237.177.39-.07.15-.261.223-.428.16-.165-.063-.245-.237-.176-.388.068-.152.26-.224.427-.162zM8.272 10.964c.07-.15.26-.222.427-.16.166.063.245.236.178.39-.07.15-.261.223-.428.16-.167-.063-.246-.238-.177-.39zM10.164 6.809c-.07.15.01.325.176.387.169.064.358-.008.428-.16.068-.152-.012-.326-.177-.388-.167-.064-.359.01-.427.16z" fill="#D50032"/><path d="M9.782 5.562c0 .152-.134.275-.3.275-.168 0-.305-.123-.305-.275 0-.153.137-.276.304-.276.167 0 .3.123.3.276zM9.717 4.796c0 .118-.106.213-.235.213-.13 0-.236-.095-.236-.213 0-.119.105-.215.236-.215.129 0 .235.096.235.215zM9.648 4.152c0 .085-.073.153-.167.153-.093 0-.168-.068-.168-.153 0-.084.075-.152.168-.152.094 0 .167.068.167.152zM9.806 12.439c0-.153-.136-.277-.304-.277-.167 0-.302.124-.302.277 0 .15.135.275.302.275.168 0 .304-.125.304-.275zM9.74 13.204c0-.119-.106-.214-.237-.214-.13 0-.234.095-.234.214 0 .118.105.214.234.214.131 0 .236-.096.236-.214zM9.67 13.846c0-.084-.073-.152-.168-.152-.092 0-.167.068-.167.152 0 .085.075.154.167.154.095 0 .169-.069.169-.154zM7.027 6.38a.257.257 0 010 .39.32.32 0 01-.427 0 .259.259 0 010-.39.322.322 0 01.427 0zM6.386 5.883a.2.2 0 010 .302.253.253 0 01-.332.001.2.2 0 010-.303.251.251 0 01.332 0zM5.838 5.472a.142.142 0 010 .215.177.177 0 01-.237 0 .143.143 0 010-.215.179.179 0 01.237 0zM12.384 11.229a.323.323 0 00-.428 0 .257.257 0 000 .39.32.32 0 00.427 0 .258.258 0 00.001-.39zM12.931 11.813a.253.253 0 00-.333 0 .203.203 0 000 .303.252.252 0 00.333 0 .2.2 0 000-.303zM5.716 8.734c.165 0 .303.124.303.276 0 .152-.138.275-.303.275-.169 0-.303-.123-.303-.275 0-.152.134-.276.303-.276zM4.875 8.795c.128 0 .234.096.234.215 0 .117-.106.213-.234.213-.13 0-.236-.096-.236-.213 0-.119.106-.215.236-.215zM4.168 8.858c.093 0 .168.067.168.152 0 .084-.075.152-.168.152-.091 0-.168-.068-.168-.152 0-.084.077-.152.168-.152zM6.616 11.243a.323.323 0 01.427 0 .258.258 0 010 .39.323.323 0 01-.427 0 .258.258 0 010-.39zM6.069 11.828a.251.251 0 01.331 0 .2.2 0 010 .303.252.252 0 01-.332 0 .2.2 0 010-.303zM5.615 12.326a.18.18 0 01.239 0 .145.145 0 010 .216.182.182 0 01-.239 0 .145.145 0 010-.216zM11.94 6.366a.257.257 0 000 .39c.117.107.309.107.426 0a.256.256 0 000-.39.321.321 0 00-.426 0zM8.478 6.072c.057.126-.01.27-.149.321-.139.051-.297-.01-.353-.136-.056-.126.01-.27.149-.321a.28.28 0 01.353.136zM8.139 5.456c.043.098-.009.21-.117.25-.107.04-.23-.007-.274-.105-.044-.099.01-.21.115-.25.11-.04.232.007.276.105zM11.043 11.776c-.056-.127-.214-.188-.353-.137-.138.052-.207.197-.149.323a.28.28 0 00.353.134c.139-.05.205-.195.15-.32zM11.271 12.432c-.043-.099-.166-.145-.275-.106-.108.04-.16.152-.116.25s.167.146.275.107c.107-.041.16-.153.116-.25zM11.453 12.986c-.031-.069-.118-.103-.196-.074-.076.027-.113.108-.082.178.031.07.119.103.196.075.076-.028.113-.108.082-.179zM6.493 7.599c.138.052.204.197.145.323-.06.126-.219.185-.356.131-.138-.053-.202-.198-.145-.324.06-.125.218-.183.356-.13zM5.776 7.381c.107.042.158.154.112.252s-.169.143-.277.103c-.107-.042-.158-.155-.112-.252.045-.097.17-.143.277-.103zM5.167 7.208c.077.03.112.11.08.179a.154.154 0 01-.198.071c-.075-.028-.112-.107-.079-.177a.156.156 0 01.197-.073zM6.275 9.955c.138-.05.298.01.353.135.056.127-.01.272-.148.323-.14.05-.297-.01-.353-.136-.057-.127.01-.27.148-.322zM5.6 10.265c.107-.04.23.007.274.105.044.098-.008.211-.116.25-.107.04-.23-.007-.276-.106-.041-.097.01-.21.117-.248zM5.035 10.533c.078-.028.165.005.196.075.032.07-.005.15-.083.178-.077.028-.164-.005-.194-.075-.033-.07.005-.15.081-.178zM7.953 11.761c.058-.124.217-.182.355-.13.138.053.201.199.144.324a.282.282 0 01-.355.131c-.138-.053-.204-.197-.144-.325zM7.714 12.416a.216.216 0 01.276-.1c.108.04.157.153.113.25a.221.221 0 01-.277.102c-.107-.041-.157-.154-.112-.252zM7.523 12.97c.032-.07.12-.103.198-.073.076.029.111.108.078.178-.03.07-.12.103-.195.073-.077-.03-.114-.11-.08-.179zM10.568 6.078c-.06.125.005.27.143.324.138.053.299-.007.357-.132.058-.126-.008-.27-.146-.324-.138-.053-.297.006-.354.132zM10.916 5.467c-.045.098.005.21.113.251.106.041.23-.004.275-.102.046-.098-.004-.21-.11-.251a.22.22 0 00-.278.102zM11.218 4.956c-.032.071.003.151.082.18.074.028.162-.003.195-.073.033-.07-.004-.15-.08-.179-.077-.03-.164.003-.197.072z" fill="#97999B"/></svg>