<!-- by TradingView --><svg width="18" height="18" viewBox="0 0 18 18" xmlns="http://www.w3.org/2000/svg"><path fill="#F0F3FA" d="M0 0h18v18H0z"/><path d="M8.42 9.77c.04-.08.1-.33 0-.69a5.27 5.27 0 0 0-.9-1.49A61.4 61.4 0 0 1 6 5.58c-.1-.13-.25-.41-.14-.52.11-.1.45.33.6.54l.07.09 1.72 2.24a11.3 11.3 0 0 0-.3-1.75l-.13-.43c-.22-.71-.5-1.66-.44-1.74.08-.1.4.43.53.83.1.32.78 2.8 1.1 4 .02.05.07.14.14.07.07-.05.15-.35.3-.83.05-.19.1-.4.18-.64.2-.69.63-2.02.82-2.6.09-.18.27-.54.36-.57.11-.03.05.61-.09 1.14-.1.43-.58 2.25-.8 3.1-.04.24-.03.56.27 0 .3-.54.74-1.43.91-1.8.22-.27.7-.8.93-.81.23-.01-.87 2.03-1.34 2.89l-.2.36c-.08.2-.05.3.5 0 .56-.29 2.78-1.28 3.24-1.45.47-.18 1.04-.17 1.02 0-.01.1-.27.17-.6.26-.26.08-.56.16-.83.28-.51.22-2.02.93-2.72 1.25.25-.06 1.01-.26 2.08-.58 1.34-.4 2.25-.62 2.46-.45.21.16-1.49.75-2.46 1.03.75.02 2.22.1 2.15.28-.05.13-.35.15-.84.17-.33.01-.73.03-1.2.08-.95.12-2.26.32-2.8.4.01.05.12.16.5.27.4.12 2.75 1.06 3.88 1.52.39.16 1.17.54 1.12.74-.04.15-.53-.05-1.2-.3-.49-.2-1.06-.42-1.6-.57l-.92-.25c-.78-.23-1.34-.39-1.77-.39H7.59L4 12.74c-.63.16-1.53.28-.07-.5 1.47-.8 3.05-1.3 3.66-1.46-.53-.1-1.78-.29-2.58-.29-.34 0-.79.04-1.24.07-.9.07-1.8.13-1.77-.07.04-.3.77-.39 1.7-.39l.73.02c.88.04 2.03.09 3.32-.19-.35-.21-1.42-.78-2.84-1.36-1.79-.72-2.52-1.62-.98-1.13 1.24.39 3.51 1.72 4.5 2.33Zm1.88 1.02 1.47.52c.03.04.08.12 0 .12a.8.8 0 0 1-.22-.1c-.15-.07-.34-.16-.5-.17h-.12c-.28-.01-.68-.03-.63-.37Z" fill="#F8A434"/><path fill-rule="evenodd" d="M8.42 9.08c.1.36.04.61 0 .7-.44-.29-1.15-.71-1.9-1.13-.1.17-.18.34-.25.52.73.34 1.25.62 1.48.76a10 10 0 0 1-1.67.2 3.28 3.28 0 0 0 .02.43c.59.07 1.17.16 1.5.22-.29.07-.78.22-1.37.44.06.21.16.42.27.62l1.1-.4h2.9c.4 0 .9.13 1.59.33.1-.18.18-.38.24-.58-.63-.25-1.15-.45-1.32-.5-.4-.1-.5-.22-.5-.26a96 96 0 0 1 1.95-.3 3.2 3.2 0 0 0-.18-.95l-1.17.31 1.1-.5c-.06-.12-.1-.22-.17-.33-.45.2-.84.4-1.03.5-.56.28-.59.18-.5 0a88.08 88.08 0 0 0 .75-1.4 3.2 3.2 0 0 0-.5-.34c-.18.37-.39.79-.56 1.1-.3.55-.3.23-.27 0 .08-.34.2-.82.34-1.31-.17-.05-.35-.1-.52-.12a40.92 40.92 0 0 0-.3.99c-.14.48-.22.78-.29.83-.07.07-.12-.02-.14-.08l-.46-1.7-.39.12.09.68-.41-.54-.34.2c.25.28.79 1.05.91 1.5Zm3.35 2.23-1.47-.52c-.05.34.35.36.63.36h.13c.15.02.34.11.5.19.1.05.17.09.21.09.08 0 .03-.08 0-.12Z" fill="#FDC50E"/><path d="M8.42 9.08c.1.36.04.61 0 .7-.28-.18-.67-.42-1.1-.67-.09.14-.16.3-.21.47.3.15.51.27.64.35-.25.05-.5.1-.74.13a2.32 2.32 0 0 0 .04.63l.54.09-.49.14c.07.21.16.41.28.6l.21-.08h2.92c.19 0 .4.03.65.08.06-.09.12-.19.16-.29a.91.91 0 0 0-.26-.07h-.13c-.28-.01-.68-.03-.63-.37l1.05.37c.05-.1.08-.2.11-.3a7.9 7.9 0 0 0-.45-.17c-.4-.1-.5-.22-.5-.26l1.03-.16v-.01c0-.3-.06-.58-.16-.84l-.27.07.25-.12c-.04-.1-.1-.21-.16-.31l-.2.1c-.55.28-.58.18-.5 0l.2-.37.11-.2c-.14-.14-.3-.25-.46-.34l-.15.27c-.3.55-.3.23-.27 0l.1-.4c-.17-.07-.36-.11-.55-.13l-.03.09c-.14.48-.22.78-.29.83-.07.07-.12-.02-.14-.08l-.22-.8c-.27.06-.52.16-.75.3.17.27.31.55.37.75Z" fill="#FDD461"/><path d="M8.45 9.23c.05.28 0 .47-.03.54l-.28-.17a1.32 1.32 0 0 0 .56 1.84h1.15c.2-.1.37-.25.5-.43-.04-.06-.06-.13-.05-.22l.15.05c.05-.1.09-.22.11-.34-.04-.03-.05-.06-.05-.07l.06-.01.01-.16a1.31 1.31 0 0 0-2.13-1.03Z" fill="#FEEAB0"/><path d="M9.78 11.44H8.54a.82.82 0 0 1 .62-1.35.82.82 0 0 1 .62 1.35Z" fill="#fff"/></svg>