<!-- by TradingView --><svg xmlns="http://www.w3.org/2000/svg" width="18" height="18"><path fill="#F0F3FA" d="M0 0h18v18H0z"/><path d="M7.29 15c0-.56.04-1-.06-1.55a2.99 2.99 0 00-1.26-1.79A4.8 4.8 0 014 7.82 4.91 4.91 0 019 3c2.76 0 5 2.16 5 4.82a4.76 4.76 0 01-2.11 3.94c-.52.38-1.17 1.03-1.2 1.71a19.13 19.13 0 000 1.18c0 .19-.16.35-.36.35h-1.3a.36.36 0 01-.35-.35v-4.46l-.12-.1-.1-.07-.2-.16a.75.75 0 01-.36.05C6.7 9.84 6.25 8.58 6 7.61c.66.07 1.34.2 1.9.59.42.28.76.8.7 1.21l.08.06V8.3c-.36-.24-.54-.88-.47-1.4.06-.46.27-.87.49-1.22.1-.17.2-.32.3-.45h.01c.1.13.2.29.3.46.21.34.42.75.49 1.2.07.5-.07 1.16-.4 1.4v1.15l.04-.04c-.06-.4.28-.92.7-1.2.56-.38 1.2-.53 1.86-.6-.26.97-.66 2.24-1.87 2.31a.75.75 0 01-.36-.06l-.21.17-.1.08-.07.05v4.13H10v-.83c.04-.93.85-1.75 1.54-2.3l.08-.05c.87-.7 1.66-1.71 1.66-3.28A4.21 4.21 0 009 3.7a4.21 4.21 0 00-4.28 4.13c0 1.33.58 2.46 1.64 3.26.94.71 1.4 1.32 1.57 2.2.07.36.08.9.07 1.72h-.71z" fill="#00A6A7"/></svg>