<!-- by TradingView --><svg width="18" height="18" viewBox="0 0 18 18" xmlns="http://www.w3.org/2000/svg"><path fill="#F0F3FA" d="M0 0h18v18H0z"/><path d="M7.1 11.9A8.1 8.1 0 0 0 8.36 14 12 12 0 0 0 14 11.04 8.24 8.24 0 0 0 12.63 9a9.41 9.41 0 0 1-5.53 2.9Z" fill="#16AB03"/><path d="M8.35 4A8.07 8.07 0 0 0 7.1 6.1 9.41 9.41 0 0 1 12.63 9 8.24 8.24 0 0 0 14 6.96 12 12 0 0 0 8.35 4Z" fill="#5E33BF"/><path d="M7.1 11.9a7.54 7.54 0 0 1 0-5.8 10.1 10.1 0 0 0-2.64-.06 9.66 9.66 0 0 0 0 5.92 10.14 10.14 0 0 0 2.64-.06Z"/></svg>