<!-- by TradingView --><svg width="18" height="18" xmlns="http://www.w3.org/2000/svg"><path fill="#F0F3FA" d="M0 0h18v18H0z"/><path d="M16 10V7.934c-2.006-1.14-4.104-1.958-6.776-2.89a.59.59 0 00-.45 0C6.102 5.976 4.003 6.86 2 8v1.998c2.004 1.14 4.102 2.024 6.774 2.957a.59.59 0 00.45 0c2.672-.933 4.77-1.817 6.776-2.957z" fill="#E25A46"/><path d="M8.878 5.942C6.27 6.867 4.41 7.698 2.46 8.81a.217.217 0 00-.113.19c0 .078.042.148.113.188 1.95 1.112 3.81 1.945 6.42 2.868a.3.3 0 00.24 0c2.608-.923 4.468-1.756 6.42-2.868a.216.216 0 000-.378c-1.952-1.114-3.812-1.944-6.42-2.87a.307.307 0 00-.24.002z" fill="#FCCF26"/><path d="M8.94 6.173c-2.561.91-4.381 1.722-6.284 2.802L2.643 9l.013.024c.485.277.952.527 1.428.768.073.037.073.1.073.304v.791c0 .055.034.103.1.093.053-.008.134-.014.29-.07.156-.055.187-.154.187-.293v-.392c0-.03.011-.056.032-.07.012-.006.032-.012.063 0 1.193.567 2.5 1.099 4.114 1.672a.16.16 0 00.115 0c2.56-.91 4.382-1.723 6.285-2.803L15.356 9l-.013-.024c-.83-.47-1.64-.89-2.48-1.277-.05-.024-.105-.128-.195-.314l-.09-.182c-.018-.034-.111-.066-.154-.05-.008.003-.015.005-.01.027.01.042.061.249.007.29l-.051.007A46.275 46.275 0 009.056 6.17a.168.168 0 00-.115.002z" fill="#0082C0"/><path d="M9.859 10.526l1.04-.216c.04.005.081.008.125.008.264 0 .617-.082.867-.26a2.3 2.3 0 00-.018.057l.17-.037.627-.131a.441.441 0 00.327-.27l.085-.292.035.107c.03.083.11.149.203.176a.371.371 0 00.319.077l.702-.146s-.605-1.526-.632-1.597l.707-1.756s-.126.028-.16.034l.043-.106-.853.178a.445.445 0 00-.328.27l-.09.253a3.408 3.408 0 01-.031-.073c-.068-.161-.339-.286-.519-.25l-.75.157s.019.042.037.075a.764.764 0 00-.279-.048c-.642 0-1.066.307-1.197.66a.669.669 0 00-.16-.108.683.683 0 00-.384-.136 1.676 1.676 0 00-.424.035l-.92.19v.3a.68.68 0 00-.095-.053.691.691 0 00-.443-.134c-.403 0-.767.134-1 .366a.746.746 0 00-.235.52v1.787a.734.734 0 01-.21.117l-.002-2.392-.118.024v-.097l-1.02.213v.262l-.047-.029a.72.72 0 00-.45-.139c-.648 0-1.31.365-1.31.919v2.039c0 .393.434.63.803.63.3 0 .73-.108.99-.323l.14-.03v.093l1.552-.324v-.19c.217.145.389.136.469.136.355 0 .739-.146.942-.33l.16-.032v.093l.983-.205v-.248c.04.032.081.06.133.077.019.022.124.085.216.1z" fill="#0082C0"/><path d="M4.624 10.835c0 .1-.133.135-.213.135-.064 0-.077-.045-.077-.063V9.013c0-.136.188-.146.217-.146.042 0 .074.026.074.063v.51c0 .076.067.122.155.101l.429-.096v-.76c0-.192-.11-.386-.42-.386-.461 0-1.039.256-1.039.748v2.034c0 .214.17.384.45.384.443 0 1.009-.234 1.009-.736v-.713l-.39.097c-.088.019-.194.097-.194.17l-.001.553zM6.59 10.36c-.112.083-.256.118-.407.152l-.176.024v-2.5l-.583.139v2.99l1.167-.25v-.555zM12.002 9.358c0 .413-.443.715-1.066.715-.366 0-.488-.23-.486-.426l.01-2.06c0-.326.322-.702 1.093-.702.327 0 .45.203.45.42v2.053zm-.618-1.897c0-.032-.027-.062-.083-.062-.122 0-.22.06-.221.152v1.964c0 .016.01.06.086.06.201 0 .218-.092.218-.153v-1.96zM8.359 10.149c0 .414-.416.718-1.001.718-.344 0-.46-.232-.458-.428V8.372c0-.328.312-.705 1.037-.705.307 0 .422.204.422.422v2.06zm-.584-1.903c0-.033-.022-.063-.075-.063-.114 0-.215.06-.216.152v1.971c0 .016.019.061.09.061.188 0 .201-.093.201-.154V8.246zM13.498 7.933l.615 1.47-.525.104c-.099.019-.182-.013-.21-.074l-.304-.879-.304.999c-.027.074-.11.136-.208.157l-.528.102.616-1.71-.648-1.263.56-.11c.098-.02.181.012.208.073l.304.678.303-.798c.027-.072.11-.136.21-.156l.559-.11-.648 1.517zM9.292 8.697l.193-.045c.08-.018.099-.09.099-.162v-.606c0-.06-.016-.135-.1-.116l-.192.044v.885zm.292.433c0-.059-.012-.137-.098-.115l-.194.043v1.33l-.583.132V7.525l.72-.162c.122-.027.25-.038.35-.032.232.016.388.164.388.383v.559c0 .177-.1.356-.263.48.16.024.263.133.263.291v.858c0 .11.06.202.145.254l-.53.12c-.116-.032-.198-.121-.198-.243V9.13z" fill="#fff"/></svg>