<!-- by TradingView --><svg width="18" height="18" viewBox="0 0 18 18" xmlns="http://www.w3.org/2000/svg"><path fill="#F26522" d="M0 0h18v18H0z"/><path d="m6.92 8.7.58-.59c.05-.04.01-.11-.06-.11H4.68c-.3 0-.84.1-1.33.66-.5.64-.59 1.34.64 1.34h1.56c.08 0 .16-.03.2-.09l.56-.55c.04-.05 0-.11-.06-.11H4.28c-.06 0-.1-.07-.06-.12l.29-.3c.04-.04.1-.08.15-.08h2.08c.07 0 .14-.01.18-.06Zm-1.51 2.19 2.73-2.76c.08-.08.2-.13.33-.13h7.45c.07 0 .1.07.06.11l-.52.49c-.13.12-.32.15-.52.15h-2.23l-.86.95a.7.7 0 0 1-.58.3h-.86c-.07 0-.1-.1-.06-.15l1-.98c.03-.03.08-.12-.06-.12h-.28a1.1 1.1 0 0 0-.6.37c-.2.23-.47.51-.73.77-.05.05-.11.11-.18.11H8.44c-.07 0-.1-.1-.06-.15l1-.98c.03-.03.07-.12-.05-.12h-.26c-.1 0-.33.09-.53.3-.2.18-1.23 1.23-1.82 1.83a.42.42 0 0 1-.3.12h-.95c-.07 0-.1-.07-.06-.11Z" fill="#fff"/></svg>