<!-- by TradingView --><svg width="18" height="18" xmlns="http://www.w3.org/2000/svg"><path fill="#0480CA" d="M0 0h18v18H0z"/><path d="M6.869 4h.974s-.974 1.097-1.39 2.069H4.81L6.87 4zm1.464 0h.485l-.012 2.069H6.817C7.333 4.964 8.333 4 8.333 4zm.848 0h.485s.833.619 1.492 2.069h-1.98L9.182 4zm.974 0h.939l2.06 2.069h-1.637C11.094 4.938 10.155 4 10.155 4zM4.464 6.413H6.33s-.367 1.064-.385 2.414H4.004L4 7l.464-.587zm2.227 0h2.127l.003 2.414h-2.54c0-1.552.41-2.414.41-2.414zm2.494 0h2.12s.388 1.039.415 2.414H9.185V6.413zm2.482 0h1.86l.47.587L14 8.827h-1.94c-.004-1.315-.393-2.414-.393-2.414zM4 9.172h1.936s0 1.15.4 2.408H4.452L4 11.12V9.172zm2.276 0h2.542v2.413H6.693c-.417-1.262-.417-2.413-.417-2.413zm2.905 0h2.529s.01 1.323-.41 2.413H9.18V9.172zm2.875 0H14v1.935l-.464.478H11.65c.41-1.09.405-2.413.405-2.413zM4.81 11.93h1.649s.707 1.552 1.448 2.07h-.993L4.81 11.93zm2.019 0h1.98l.02 2.069h-.496c-1-.862-1.504-2.069-1.504-2.069zm2.35 0h1.963s-.643 1.38-1.476 2.07l-.47-.001-.017-2.069zm2.335 0h1.652l-2.068 2.069h-.979c.833-.862 1.395-2.069 1.395-2.069z" fill="#fff"/></svg>