<!-- by TradingView --><svg width="18" height="18" viewBox="0 0 18 18" xmlns="http://www.w3.org/2000/svg"><path fill="#F0F3FA" d="M0 0h18v18H0z"/><path d="M10.4 5.7a.67.67 0 0 0-.55-.48.75.75 0 0 0-.65.18c-.1.1-.25.16-.4.16h-.05a.97.97 0 0 1-.78-.37 1.35 1.35 0 0 0-1.19-.52c-.64.05-1.16.54-1.19 1.12-.01.32.12.62.36.85.25.23.58.36.94.36.44 0 .85-.2 1.1-.54a.95.95 0 0 1 .76-.36h.06c.14 0 .28.06.4.17.13.12.3.2.5.2s.4-.1.54-.24a.59.59 0 0 0 .14-.53ZM10.4 12.03a.67.67 0 0 0-.55-.48.75.75 0 0 0-.65.19c-.1.1-.25.16-.4.16h-.05a.97.97 0 0 1-.78-.38A1.35 1.35 0 0 0 6.78 11c-.64.05-1.16.54-1.19 1.12-.01.32.12.63.36.86.25.23.58.35.94.35.44 0 .85-.2 1.1-.53a.95.95 0 0 1 .76-.36h.06c.14 0 .28.06.4.16.13.13.3.2.5.2s.4-.09.54-.24a.59.59 0 0 0 .14-.53Z" fill="#5B6BF9"/><path d="M9.67 3c-.41 0-.74.3-.74.67 0 .36.33.66.74.66.4 0 .74-.3.74-.66 0-.37-.34-.67-.74-.67ZM12.26 5.33c-.41 0-.74.3-.74.67 0 .37.33.67.74.67.4 0 .74-.3.74-.67 0-.37-.33-.67-.74-.67ZM9.67 13.67c-.41 0-.74.3-.74.66 0 .37.33.67.74.67.4 0 .74-.3.74-.67 0-.36-.34-.66-.74-.66ZM12.26 11.33c-.41 0-.74.3-.74.67 0 .37.33.67.74.67.4 0 .74-.3.74-.67 0-.37-.33-.67-.74-.67ZM9.67 8.33c-.41 0-.74.3-.74.67 0 .37.33.67.74.67.4 0 .74-.3.74-.67 0-.37-.34-.67-.74-.67Z" fill="#001E60"/><path d="M11 9.75a.37.37 0 0 0-.4.04c-.26.22-.6.34-.95.34-.4 0-.78-.15-1.03-.41a1 1 0 0 1-.28-.95c.1-.43.52-.79 1.04-.87.44-.08.88.03 1.2.3.11.09.28.1.4.03a.27.27 0 0 0 .15-.2.24.24 0 0 0-.1-.21 2.16 2.16 0 0 0-1.38-.49c-.62 0-1.2.24-1.57.66a2.4 2.4 0 0 1-1.76.75H6.3a1.3 1.3 0 0 1-.96-.4c-.3-.34-.8-.5-1.3-.42-.51.08-.93.43-1.02.86-.08.33.02.66.27.92.25.25.61.4 1 .4.43 0 .82-.17 1.07-.46.2-.25.5-.39.83-.39h.08c.72 0 1.38.28 1.77.73.37.43.97.69 1.6.69.53 0 1.04-.18 1.41-.5.07-.06.1-.14.09-.22a.27.27 0 0 0-.15-.2Z" fill="#5B6BF9"/></svg>