<!-- by TradingView --><svg width="18" height="18" viewBox="0 0 18 18" fill="none" xmlns="http://www.w3.org/2000/svg">
<rect width="18" height="18" fill="#F0F3FA"/>
<path d="M11.1466 10.4549C10.6932 11.1153 9.9303 11.5492 9.06667 11.5492C7.66326 11.5492 6.53333 10.4123 6.53333 9.04889C6.53333 7.64291 7.66326 6.51642 9.06667 6.51642C9.77917 6.51642 10.4125 6.81211 10.8659 7.28077C11.5568 6.83341 12.3125 6.36475 13.0682 5.91739C12.1398 4.74575 10.6932 4.00015 9.07386 4.00015C6.26705 3.97885 4 6.21563 4 8.98498C4 11.7543 6.26705 13.9911 9.07386 13.9911C10.9739 13.9911 12.6148 12.9686 13.5 11.4348L11.1466 10.4549Z" fill="#1F2C4F"/>
<path opacity="0.8" d="M12.0101 13.083C11.3192 12.167 10.218 11.5492 8.96577 11.5492C7.75668 11.5492 6.69872 12.1031 6.00781 12.9765C6.84986 13.6156 7.9294 13.999 9.07372 13.999C10.1533 14.0203 11.168 13.6795 12.0101 13.083Z" fill="url(#paint0_linear_229_11824)"/>
<defs>
<linearGradient id="paint0_linear_229_11824" x1="6.53374" y1="12.7746" x2="10.9173" y2="12.7746" gradientUnits="userSpaceOnUse">
<stop stop-color="#562E88"/>
<stop offset="1" stop-color="#265FA6"/>
</linearGradient>
</defs>
</svg>
