<!-- by TradingView --><svg width="18" height="18" viewBox="0 0 18 18" xmlns="http://www.w3.org/2000/svg"><path d="M6.68 6.03a4.1 4.1 0 0 0-3 1.19c.04-.16.13-.38.13-.38.3-.65 1.15-1.93 3.37-1.86a6.78 6.78 0 0 1 5.11 2.73c.3-.29.55-.58.75-.84 0 0-1.63-2.78-5.42-2.78-.85 0-1.54.23-2.04.46a5.6 5.6 0 0 1 1.7-.9c3.84-1.2 6.32 2.38 6.32 2.38.18-.33.26-.55.26-.55a5.99 5.99 0 0 0-10.29 6.07l.14-.36c-.07-.18-.29-.8-.35-1.29-.1-.78.03-2.69 2.85-2.69a4.72 4.72 0 0 1 4.05 2.32c.67-.46 1.12-.92 1.12-.92s-1.4-2.58-4.7-2.58Zm4.65 5.95a4.1 4.1 0 0 0 3-1.2c-.05.17-.14.38-.14.38-.3.66-1.15 1.93-3.36 1.87-3.34-.1-5.12-2.74-5.12-2.74-.3.3-.54.58-.75.85 0 0 1.63 2.77 5.43 2.77.84 0 1.54-.22 2.03-.45-.5.39-1.07.69-1.69.89-3.85 1.2-6.32-2.37-6.32-2.37-.19.32-.27.54-.27.54a6 6 0 0 0 10.3-6.06l-.15.35c.07.19.3.8.35 1.3.1.78-.14 2.68-2.85 2.68-2.82 0-4.04-2.31-4.04-2.31-.68.46-1.13.92-1.13.92s1.4 2.58 4.7 2.58Z" fill="#0F264D"/></svg>