<!-- by TradingView --><svg width="18" height="18" viewBox="0 0 18 18" fill="none" xmlns="http://www.w3.org/2000/svg">
<rect width="18" height="18" fill="#F0F3FA"/>
<path d="M12.751 12.0185C12.7016 12.0185 12.6646 12.0062 12.6276 11.9815C12.5288 11.9076 12.5165 11.7844 12.5905 11.6858C13.1583 10.9466 13.4877 10.0472 13.5 9.09857C13.5371 7.60781 12.8004 6.20329 11.5537 5.35319C11.455 5.29159 11.4303 5.15607 11.5044 5.0575C11.5661 4.95894 11.7019 4.9343 11.8006 5.00822C13.146 5.94457 13.9121 7.48461 13.875 9.11089C13.8503 10.1335 13.541 11.1191 12.9238 11.9322C12.8868 11.9815 12.8251 12.0185 12.751 12.0185Z" fill="#0395D1"/>
<path d="M11.1587 11.9938C11.097 11.9938 11.0353 11.9692 10.9983 11.9076C10.9242 11.8213 10.9365 11.6858 11.0353 11.6119C11.8006 11.0205 12.3256 10.1211 12.375 9.14783C12.4244 8.14989 11.9487 7.1889 11.2081 6.5236C11.1217 6.44968 11.1093 6.31416 11.1957 6.22792C11.2698 6.14167 11.4056 6.12935 11.492 6.2156C12.3313 6.96714 12.7994 8.03901 12.75 9.17248C12.7006 10.2567 12.1585 11.2793 11.2945 11.9569C11.2575 11.9815 11.2081 11.9938 11.1587 11.9938Z" fill="#0395D1"/>
<path d="M8.9987 15H8.92464C7.34473 14.9877 5.83889 14.347 4.72802 13.2136C3.60481 12.0801 3 10.577 3 9C3 7.41068 3.62949 5.89528 4.75271 4.76181C5.88826 3.62834 7.38176 3 8.9987 3C10.2947 3 11.529 3.40657 12.5658 4.17043C12.6646 4.24435 12.6769 4.36756 12.6152 4.46612C12.5411 4.56468 12.4177 4.577 12.319 4.5154C11.3562 3.80082 10.2083 3.43121 8.9987 3.43121C7.51754 3.43121 6.11044 4.01027 5.04894 5.05749C3.98744 6.11704 3.375 7.50924 3.375 9C3.375 12.0431 5.88826 14.59 8.9123 14.6147H8.97401C10.1343 14.6147 11.2575 14.2115 12.2079 13.5462C12.2943 13.4846 12.3436 13.3984 12.3436 13.2998C12.356 13.2012 12.3066 13.1027 12.2326 13.0287L12.2079 13.0041C12.0968 12.8932 11.9116 12.8809 11.7759 12.9795C10.9489 13.5585 9.98614 13.8665 8.96167 13.8665C6.27089 13.8665 4.125 11.6735 4.125 9C4.125 7.70637 4.59225 6.47433 5.49329 5.56263C6.40667 4.65092 7.62862 4.14579 8.92464 4.13347C9.35664 4.13347 9.77631 4.18275 10.1836 4.29363C10.3935 4.35524 10.5786 4.49076 10.6773 4.68788C10.7761 4.88501 10.7884 5.1191 10.702 5.31622V5.32854C10.5539 5.68583 10.1713 5.88296 9.78865 5.78439C9.5171 5.71047 9.23321 5.67351 8.94933 5.67351C8.07297 5.67351 7.24599 6.00616 6.6165 6.62218C5.99935 7.23819 5.63734 8.05133 5.625 8.9384C5.61266 9.82546 5.94998 10.6632 6.57947 11.3039C7.20896 11.9446 8.03594 12.3565 8.93698 12.3688C9.26166 12.3688 9.86158 12.3175 9.80099 11.8337V11.8214C9.76396 11.6366 9.59142 11.5663 9.39393 11.5909C9.23347 11.6156 9.06067 11.6202 8.88787 11.6202C7.48077 11.5832 6.36266 10.3676 6.375 8.95072C6.375 8.26078 6.62884 7.62012 7.11022 7.12731C7.60394 6.64682 8.24577 6.37577 8.93698 6.37577C9.04807 6.37577 9.14681 6.47433 9.14681 6.58522C9.14681 6.6961 9.04807 6.79466 8.93698 6.79466C8.35686 6.79466 7.81377 7.01643 7.40645 7.423C6.99913 7.82957 6.75 8.37166 6.75 8.95072C6.75 10.1212 7.81507 11.193 9 11.23C9.13578 11.23 9.19619 11.23 9.33196 11.2053C9.75162 11.1314 10.1343 11.3162 10.2083 11.7351V11.7474C10.2453 11.9569 10.2083 12.1663 10.0849 12.3388C9.79598 12.7425 9.38077 12.7431 8.92464 12.7431C7.92486 12.7431 6.97445 12.3018 6.27089 11.5873C5.56734 10.8727 5.23766 9.92402 5.25 8.91376C5.26234 7.92813 5.60437 6.99179 6.30792 6.30185C7.01147 5.61191 7.9372 5.22998 8.93698 5.22998C9.2579 5.22998 9.57882 5.26694 9.88739 5.35318C10.0602 5.40246 10.233 5.3039 10.2947 5.14374V5.13142C10.3317 5.03285 10.3317 4.93429 10.2824 4.84805C10.233 4.76181 10.1589 4.68789 10.0602 4.66324C9.68991 4.56468 9.29493 4.5154 8.89995 4.5154C7.71502 4.52772 6.59181 4.98357 5.76483 5.82136C5.01191 6.6961 4.5 7.81725 4.5 9C4.48766 11.4517 6.54244 13.4917 9.01104 13.4917C9.93677 13.4917 10.8255 13.1766 11.5784 12.6468C11.8746 12.4374 12.2819 12.462 12.5411 12.7084L12.5658 12.7331C12.7386 12.8932 12.825 13.115 12.8003 13.3368C12.788 13.5585 12.6646 13.768 12.4794 13.9035C11.455 14.6181 10.2577 15 8.9987 15Z" fill="#0395D1"/>
<path d="M10.739 10.848C10.6897 10.848 10.6403 10.8234 10.5909 10.7864C10.5045 10.7125 10.5045 10.577 10.5786 10.4908C10.9612 10.0842 11.25 9.55441 11.25 9.01232C11.25 8.26078 10.7884 7.57084 10.1466 7.16427C10.0478 7.10267 10.0231 6.96714 10.0849 6.86858C10.1466 6.77002 10.2823 6.74538 10.3811 6.80698C11.1464 7.28747 11.625 8.11293 11.625 9.02464C11.625 9.68994 11.3562 10.3183 10.8995 10.7988C10.8501 10.8357 10.8007 10.848 10.739 10.848ZM13.7754 12.499C13.7384 12.499 13.689 12.4867 13.652 12.462C13.5532 12.4004 13.5286 12.2649 13.6026 12.1663C14.2815 11.1807 14.662 10.0226 14.625 8.82751C14.5879 7.63244 14.121 6.48665 13.3804 5.56263C13.3064 5.47638 13.3187 5.34086 13.4175 5.26694C13.5039 5.19302 13.6396 5.20534 13.7137 5.3039C14.516 6.31417 14.9603 7.53388 14.9974 8.82751C15.0344 10.1088 14.6765 11.3532 13.9482 12.4127C13.9112 12.462 13.8371 12.499 13.7754 12.499Z" fill="#0395D1"/>
</svg>
