<!-- by TradingView --><svg xmlns="http://www.w3.org/2000/svg" width="18" height="18" viewBox="0 0 18 18"><path fill="#F0F3FA" d="M0 0h18v18H0z"/><path d="M4.97 8.36l.01.01.26-.14c-.1-.15-.18-.27-.32-.4-.44-.4-1-.43-1.2-.43-.24 0-.9.05-1.37.6-.32.4-.35.8-.35 1 0 .51.23.99.65 1.3.19.13.51.3 1.07.3.58 0 .92-.2 1.12-.34.27-.2.4-.41.47-.54V9.7l-.26-.13a1.47 1.47 0 0 1-1.32.75c-.16 0-.65-.02-1.02-.39a1.36 1.36 0 0 1-.01-1.87c.37-.37.86-.4 1.03-.4.16 0 .66.02 1.01.38.12.12.2.26.23.31zm2.4 1.74l-.05-.1-1.16-2.6h-.39v3.2h.28V7.75l.04.13.02.06.02.05 1.17 2.6h.3l1.16-2.62.08-.2.01-.02v2.85h.28V7.4h-.38l-1.3 2.93a3.66 3.66 0 0 0-.07-.2l-.01-.03zm5.06-2.7v.26h-1.28v2.94h-.29V7.66H9.54V7.4h2.89zm3.07.75c.07.08.1.12.14.21l.29-.16-.01-.02a1.62 1.62 0 0 0-.36-.4 2.01 2.01 0 0 0-1.19-.38c-.75 0-1.17.35-1.37.57-.34.4-.37.86-.37 1.04 0 .4.13.66.2.79.3.53.8.68 1 .73.24.07.42.07.52.07.6 0 .99-.25 1.15-.4.05-.05.14-.14.24-.3v.7H16V9h-2v.26h1.74c0 .06-.02.13-.07.29-.14.36-.48.61-.84.72-.2.06-.37.06-.45.06-.62 0-.98-.28-1.14-.47-.28-.32-.3-.71-.3-.86 0-.55.3-1.03.84-1.23.25-.1.47-.1.56-.1.43 0 .88.14 1.16.48z" fill="#162C53"/></svg>