<!-- by TradingView --><svg width="18" height="18" viewBox="0 0 18 18" fill="none" xmlns="http://www.w3.org/2000/svg">
<rect width="18" height="18" fill="#F0F3FA"/>
<path fill-rule="evenodd" clip-rule="evenodd" d="M10.4275 7H12.1426C11.8984 6.3046 10.9204 5 8.96218 5C6.51439 5 4 7.24138 4 9.2931C4 11.3448 5.99819 12 7.29702 12H11.356L11.5736 10.5H7.01424C6.47576 10.3739 5.3988 10.0934 5.3988 9.12261C5.3988 7.90911 7.08503 6.12602 8.89084 6.12602C9.23363 6.11399 10.0209 6.20299 10.4275 7ZM12.8769 10.5H11.8181L11.6103 12H12.6691L12.8769 10.5ZM14 10.5L13.1787 10.5L12.9709 12L13.7922 12L14 10.5Z" fill="#231F20"/>
<ellipse opacity="0.6" cx="8.33192" cy="8.75" rx="1.78374" ry="1.75" fill="#1577AB"/>
<path d="M7.56466 9.35582C7.4856 9.42059 7.40936 9.72825 7.38112 9.87398C7.33762 10.0623 7.16937 9.69587 7.11289 9.58252C7.05642 9.46918 6.94348 9.40441 6.88701 9.24248C6.83054 9.08055 6.61877 9.05626 6.58347 8.71621C6.55524 8.44417 6.73642 8.22504 6.83053 8.14948C6.92936 8.29521 7.14677 8.61258 7.22583 8.71621C7.32465 8.84576 7.56466 8.77289 7.6776 8.82956C7.79054 8.88624 7.66348 9.27486 7.56466 9.35582Z" fill="#1073AC"/>
<path d="M8.1717 8.23848C8.19428 8.11541 8.43994 7.89034 8.55994 7.79318C8.67524 7.69873 8.94394 7.50657 9.09642 7.49362C9.28701 7.47742 9.39289 7.57458 9.45642 7.63125C9.51995 7.68793 9.81642 8.06036 9.86584 8.13322C9.91525 8.20609 9.85878 8.28705 9.81642 8.31944C9.77407 8.35182 9.62583 8.6271 9.45642 8.6271C9.28701 8.6271 9.48466 8.91856 9.45642 9.03191C9.42818 9.14526 9.36465 9.34767 9.24465 9.48531C9.12465 9.62294 9.09642 9.67152 8.99759 9.79297C8.89877 9.91441 8.86347 9.63104 8.77876 9.52579C8.69406 9.42054 8.75053 9.17765 8.71523 9.03191C8.67994 8.88618 8.65876 8.74045 8.55994 8.6271C8.46112 8.51375 8.33406 8.58662 8.26347 8.54613C8.19288 8.50565 8.14346 8.39231 8.1717 8.23848Z" fill="#1073AC"/>
</svg>
