<!-- by TradingView --><svg width="18" height="18" viewBox="0 0 18 18" xmlns="http://www.w3.org/2000/svg"><path fill="#F0F3FA" d="M0 0h18v18H0z"/><path d="M5.17 8.65H3.08c-.07 0-.1-.09-.06-.14l5.49-5.49a.08.08 0 0 1 .14.06v2.1c0 .14-.06.29-.17.4l-2.9 2.9c-.11.1-.26.17-.4.17ZM12.83 9.35h2.09c.07 0 .1.09.06.14l-5.49 5.49a.08.08 0 0 1-.14-.06v-2.1c0-.14.06-.29.17-.4l2.9-2.9c.11-.1.26-.17.4-.17ZM9.35 5.17V3.08c0-.07.1-.1.14-.06l5.49 5.49c.05.05.01.14-.06.14h-2.1a.57.57 0 0 1-.4-.17l-2.9-2.9a.57.57 0 0 1-.17-.4ZM8.65 12.83v2.09c0 .07-.1.1-.14.06L3.02 9.49a.08.08 0 0 1 .06-.14h2.1c.14 0 .29.06.4.17l2.9 2.9c.1.11.17.26.17.4ZM6.66 8.68l2.02-2.02a.45.45 0 0 1 .64 0l2.02 2.02c.17.18.17.46 0 .64l-2.02 2.02a.45.45 0 0 1-.64 0L6.66 9.32a.46.46 0 0 1 0-.64Z"/></svg>