<!-- by TradingView --><svg width="18" height="18" viewBox="0 0 18 18" xmlns="http://www.w3.org/2000/svg"><path fill="#F0F3FA" d="M0 0h18v18H0z"/><path d="M10.08 12.85c-.92-.2-3.04-.98-4.12-2.5C4.73 8.63 4.5 7.7 4.88 6.16a5 5 0 0 0 5.72 7.58l-.52-.89Z" fill="url(#atsh5npt2)"/><path d="M12.85 7.92c-.2.92-.98 3.04-2.5 4.12-1.72 1.23-2.66 1.45-4.19 1.07a5 5 0 0 0 7.58-5.72l-.89.53Z" fill="url(#btsh5npt2)"/><path d="M7.92 5.15c.92.2 3.04.98 4.12 2.5 1.23 1.72 1.45 2.66 1.07 4.19A5 5 0 0 0 7.4 4.26l.53.89Z" fill="url(#ctsh5npt2)"/><path d="M5.34 9.4a7.15 7.15 0 0 1 2.3-3.44c1.73-1.23 2.67-1.45 4.2-1.08A5 5 0 0 0 4 9V9c0-1.05.33-2.03.88-2.84a3.84 3.84 0 0 0 .46 3.24Z" fill="url(#dtsh5npt2)"/><defs><linearGradient id="atsh5npt2" x1="4.34" y1="7.04" x2="9.94" y2="13.39" gradientUnits="userSpaceOnUse"><stop stop-color="#37719E"/><stop offset="1" stop-color="#171C24"/></linearGradient><linearGradient id="btsh5npt2" x1="7.04" y1="13.64" x2="13.39" y2="8.04" gradientUnits="userSpaceOnUse"><stop stop-color="#37719E"/><stop offset="1" stop-color="#171C24"/></linearGradient><linearGradient id="ctsh5npt2" x1="13.64" y1="10.96" x2="8.04" y2="4.61" gradientUnits="userSpaceOnUse"><stop stop-color="#37719E"/><stop offset="1" stop-color="#171C24"/></linearGradient><linearGradient id="dtsh5npt2" x1="10.96" y1="4.34" x2="4.6" y2="9.96" gradientUnits="userSpaceOnUse"><stop stop-color="#37719E"/><stop offset="1" stop-color="#171C24"/></linearGradient></defs></svg>