<!-- by TradingView --><svg width="18" height="18" viewBox="0 0 18 18" xmlns="http://www.w3.org/2000/svg"><path fill="#F0F3FA" d="M0 0h18v18H0z"/><path d="m11.13 6.58 2.74-1.5c.1-.13.23-.55 0-1.08l-2.46 1.2c-.22.16-.61.58-.28 1.38Zm0 2.58 2.74-1.5c.1-.13.23-.55 0-1.08l-2.46 1.2c-.22.16-.61.58-.28 1.38ZM7 9.16v3.13c.75-.29 2.36-.93 2.81-1.18.45-.25.54-.64.52-.8v-.7L8 10.66V10c0-.82.92-1.15 1.5-1.36l.23-.09c.42-.16.58-.58.6-.77v-.75c-.81.37-2.53 1.15-2.88 1.34-.34.18-.44.6-.45.78ZM8 14a4 4 0 0 0 3.94-4.71l-1.22.62V10a2.72 2.72 0 1 1-3.6-2.58l2.3-1.16A4 4 0 0 0 4 10a4 4 0 0 0 4 4Z" fill="#B72B38"/></svg>