<!-- by TradingView --><svg width="18" height="18" viewBox="0 0 18 18" xmlns="http://www.w3.org/2000/svg"><path fill="#0F4D48" d="M0 0h18v18H0z"/><path d="M5 5h.34v1.44l1 .63v1.27l1.85 1.31.81-.5V8h.34v1.13l1 .61v1.15l1.14.66 1.1-.72 1.08.72 1.1-.72 1.24.84-.16.33-1.08-.73-1.1.72-1.08-.72-1.1.72-1.23-.71-1.1.71-.98-.63-.63.36-.16-.32.62-.36v-1.1L6.17 8.66l-.84.5v.91l1.05.64-.17.3-1.05-.63-1 .63-.16-.3 1-.64v-.87l-1-.64V7.07l1-.63V5Zm-.67 2.28v1.06l.82.53.85-.53V7.28l-.85-.53-.82.53Zm4 2.7v1.06l.82.53.85-.56V9.95l-.85-.5-.82.53Z" fill="url(#aq1abb1j2)"/><defs><linearGradient id="aq1abb1j2" x1="10" y1="5" x2="10" y2="12" gradientUnits="userSpaceOnUse"><stop stop-color="#D5E6B4"/><stop offset="1" stop-color="#55A299"/></linearGradient></defs></svg>