<!-- by TradingView --><svg width="18" height="18" viewBox="0 0 18 18" xmlns="http://www.w3.org/2000/svg"><path fill="#F0F3FA" d="M0 0h18v18H0z"/><path d="M11.89 12.89a4.84 4.84 0 0 0 1.8-5l.64-1.1a5.22 5.22 0 0 1-2.44 6.1Zm-1.25-8.43A4.8 4.8 0 0 0 9 4.18c-1.24 0-2.44.43-3.33 1.3H4.4c.47-.5 1.03-.86 1.66-1.14a5.27 5.27 0 0 1 4.57.12ZM4.2 9.53a4.84 4.84 0 0 0 3.43 4.12l.63 1.1A5.17 5.17 0 0 1 4.2 9.54Z" fill="#666"/><path d="M9 3c2.01 0 3.8.95 4.88 2.47H12.6l-.1-.1a5.71 5.71 0 0 0-7.13-1.14A5.93 5.93 0 0 1 9 3Zm5.99 5.6L15 9A6.01 6.01 0 0 1 9.6 15l.63-1.1.18-.04A5.57 5.57 0 0 0 15 8.6Zm-8.67 5.8a6.02 6.02 0 0 1-2.8-7.86l.65 1.12-.06.16-.03.09a5.59 5.59 0 0 0 2.07 6.37l.17.11ZM5.57 7 9 13l.42-.74L8.07 10h1.16l.77 1.26.58 1L9 15l-2.58-4.48L3.84 6H7l.58 1.04L8.7 9H7.55L6.42 7h-.85Zm4 0h.86l1 1.78.58 1 .58-1-.58-1-.43-.78h.85l.58 1.04L14.16 6H7.85l.57 1.04 2 3.48.59 1 .58-1-.58-1-.58 1 .58-1L9.58 7Z" fill="#20A7C9"/></svg>