<!-- by TradingView --><svg width="18" height="18" fill="none" xmlns="http://www.w3.org/2000/svg"><path fill="#F6CD55" d="M0 0h18v18H0z"/><path d="M15.8 7.372L9.039 6.008 9.006 6l-.038.008-6.78 1.372L2 7.425v3.12l.187.045 6.774 1.402.045.008.046-.008 6.76-1.417.188-.045V7.418l-.2-.046z" fill="#fff"/><path d="M8.996 6.264l-6.774 1.38v2.685l6.774 1.395 6.768-1.41V7.63L8.996 6.264zm.458 3.383a.61.61 0 01-.202.148.537.537 0 01-.237.047c-.426-.035-.598-.571-.392-.91a.44.44 0 01.231-.193.492.492 0 01-.103-.3c0-.232.116-.439.445-.439.22 0 .432.117.432.424 0 .203-.077.315-.245.383l.18.277a3.45 3.45 0 00.214-.33l.18.255c-.057.119-.127.23-.206.33l.297.443h-.5l-.094-.135zm-.432-.653c-.1.08-.117.27-.038.377.073.1.213.093.302.013l-.264-.39zm.174-.405c.05-.034.088-.06.103-.11.03-.099-.075-.224-.162-.13-.069.075.003.18.06.24z" fill="#000"/><path d="M2.551 10.045V7.93L9 6.61v1.265c-.307.071-.47.478-.34.795a.72.72 0 00-.284.503c-.046.397.212.785.624.827v1.363l-6.449-1.318zM10.765 7.769h1.236l.366 1.487.367-1.487H14v2.434h-.806V8.402l-.5 1.801h-.666l-.467-1.801v1.801h-.801l.005-2.434z" fill="#F6CD55"/><path d="M5.394 9.008c0-.549.262-.76.686-.76.316 0 .545.202.572.477h1.176C7.68 7.662 6.718 7.51 6.08 7.51c-.637 0-1.813.087-1.813 1.499 0 1.412 1.176 1.455 1.813 1.455.817 0 1.63-.26 1.764-1.173H6.668c0 .281-.313.432-.588.434-.422 0-.686-.259-.686-.716z" fill="#000"/></svg>