<!-- by TradingView --><svg width="18" height="18" viewBox="0 0 18 18" xmlns="http://www.w3.org/2000/svg"><path fill="#F0F3FA" d="M0 0h18v18H0z"/><path fill-rule="evenodd" d="M9.49 3.2a.69.69 0 0 0-.98 0l-1.8 1.81a.69.69 0 0 0 0 .98l1.8 1.8c.27.28.7.28.98 0l1.8-1.8a.69.69 0 0 0 0-.98l-1.8-1.8Zm0 1a.69.69 0 0 0-.98 0l-.8.81a.69.69 0 0 0 0 .98l.8.8a.69.69 0 0 0 .98 0l.8-.8a.69.69 0 0 0 0-.98l-.8-.8ZM9.49 10.2a.69.69 0 0 0-.98 0l-1.8 1.81a.69.69 0 0 0 0 .98l1.8 1.8c.27.28.7.28.98 0l1.8-1.8a.69.69 0 0 0 0-.98l-1.8-1.8Zm0 1a.69.69 0 0 0-.98 0l-.8.81a.69.69 0 0 0 0 .98l.8.8a.69.69 0 0 0 .98 0l.8-.8a.69.69 0 0 0 0-.98l-.8-.8ZM5.99 6.7a.69.69 0 0 0-.98 0l-1.8 1.81a.69.69 0 0 0 0 .98l1.8 1.8c.27.28.7.28.98 0l1.8-1.8a.69.69 0 0 0 0-.98L6 6.71Zm0 1a.69.69 0 0 0-.98 0l-.8.81a.69.69 0 0 0 0 .98l.8.8a.69.69 0 0 0 .98 0l.8-.8a.69.69 0 0 0 0-.98l-.8-.8Z" fill="#395676"/><path fill-rule="evenodd" d="M12.99 6.7a.69.69 0 0 0-.98 0l-1.8 1.81a.69.69 0 0 0 0 .98l1.8 1.8c.27.28.7.28.98 0l1.8-1.8a.69.69 0 0 0 0-.98L13 6.71Zm0 1a.69.69 0 0 0-.98 0l-.8.81a.69.69 0 0 0 0 .98l.8.8a.69.69 0 0 0 .98 0l.8-.8a.69.69 0 0 0 0-.98l-.8-.8Z" fill="#179CD7"/><path d="m7.66 6.4.55.55-1.1 1.1-.55-.55 1.1-1.1ZM8.18 11.02l-.55.55-1.1-1.1.56-.54 1.09 1.09Z" fill="#395676"/></svg>