<!-- by TradingView --><svg width="18" height="18" viewBox="0 0 18 18" xmlns="http://www.w3.org/2000/svg"><path fill="#F0F3FA" d="M0 0h18v18H0z"/><path d="M10.58 12.1h-.02a2.04 2.04 0 0 1-1.51-.63l-.1-.1a2.4 2.4 0 0 1-.65-2.04 2.2 2.2 0 0 0 0-.65 2.46 2.46 0 0 1 .66-2.04l.1-.11a2.1 2.1 0 0 1 1.52-.64h.02c.28 0 .55-.08.78-.24a1.49 1.49 0 0 0 .2-2.22 1.4 1.4 0 0 0-1.52-.32c-.26.1-.48.3-.63.53-.16.23-.24.51-.24.8v.02A2.21 2.21 0 0 1 8.57 6l-.11.12a2.29 2.29 0 0 1-1.99.67l-.3-.02c-.57 0-1.12.23-1.53.65a2.26 2.26 0 0 0 0 3.15 2.13 2.13 0 0 0 1.84.63 2.27 2.27 0 0 1 1.98.68l.1.09a2.18 2.18 0 0 1 .6 1.55v.02c0 .29.1.57.25.8a1.37 1.37 0 0 0 2.16.22 1.46 1.46 0 0 0 .3-1.57 1.38 1.38 0 0 0-1.3-.9Z" fill="url(#adhm3ljvy)"/><path d="M10.59 5.88c.78 0 1.4-.64 1.4-1.43 0-.79-.62-1.43-1.4-1.43-.78 0-1.41.64-1.41 1.43 0 .8.63 1.43 1.4 1.43Z" fill="url(#bdhm3ljvy)"/><path d="M10.59 15c.78 0 1.4-.64 1.4-1.43 0-.79-.62-1.43-1.4-1.43-.78 0-1.41.64-1.41 1.43 0 .79.63 1.43 1.4 1.43Z" fill="url(#cdhm3ljvy)"/><defs><radialGradient id="bdhm3ljvy" cx="0" cy="0" r="1" gradientUnits="userSpaceOnUse" gradientTransform="matrix(1.41598 0 0 1.43327 10.61 4.46)"><stop stop-color="#0199FF"/><stop offset=".48" stop-color="#019CFF"/><stop offset=".81" stop-color="#00A5FF"/><stop offset="1" stop-color="#00AEFF"/></radialGradient><radialGradient id="cdhm3ljvy" cx="0" cy="0" r="1" gradientUnits="userSpaceOnUse" gradientTransform="matrix(1.41598 0 0 1.43327 10.61 13.6)"><stop stop-color="#0199FF"/><stop offset=".48" stop-color="#019CFF"/><stop offset=".81" stop-color="#00A5FF"/><stop offset="1" stop-color="#00AEFF"/></radialGradient><linearGradient id="adhm3ljvy" x1="4" y1="9" x2="12" y2="9" gradientUnits="userSpaceOnUse"><stop stop-color="#00BCFF"/><stop offset="1" stop-color="#017FFF"/></linearGradient></defs></svg>