<!-- by TradingView --><svg width="18" height="18" viewBox="0 0 18 18" xmlns="http://www.w3.org/2000/svg"><path fill="#F0F3FA" d="M0 0h18v18H0z"/><path d="m5.32 3 3.66 3.67L12.65 3c.42.6.04 1.76-.46 2.26L9 8.46l-3.21-3.2c-.5-.5-.8-1.63-.46-2.26Zm7.36 12-3.66-3.67L5.35 15c-.42-.6-.04-1.76.46-2.26L9 9.54l3.21 3.2c.5.5.8 1.63.46 2.26Z" fill="#057398"/><path d="M6.67 9.02 3 12.68c.63.35 1.76.04 2.26-.46l3.2-3.2-3.2-3.21c-.5-.5-1.66-.88-2.26-.46l3.67 3.67Z" fill="#099EC9"/><path d="M11.33 8.98 15 5.32c-.63-.35-1.76-.04-2.26.46l-3.2 3.2 3.2 3.21c.5.5 1.66.88 2.26.46l-3.67-3.67Z" fill="#F1592A"/></svg>