<!-- by TradingView --><svg xmlns="http://www.w3.org/2000/svg" width="18" height="18"><path fill="#F0F3FA" d="M0 0h18v18H0z"/><path d="M11.46 11c-.54.62-1.33 1-2.21 1a2.99 2.99 0 01-2.98-3c0-1.66 1.33-3 2.98-3 .9 0 1.72.4 2.26 1.05l-.94.88c-.3-.43-.78-.7-1.32-.7-.92 0-1.66.8-1.66 1.77 0 .98.74 1.77 1.66 1.77.54 0 1.02-.27 1.32-.7l.9.94z" fill="#0E55E4"/><path d="M9 4a5 5 0 103.72 8.34.5.5 0 11.74.67A5.99 5.99 0 013 9a6 6 0 0110.46-4.01.5.5 0 01-.74.67A4.99 4.99 0 009 4z" fill="#EB8A39" fill-opacity=".7"/></svg>