<!-- by TradingView --><svg width="18" height="18" xmlns="http://www.w3.org/2000/svg"><path fill="#1F8DB8" d="M0 0h18v18H0z"/><path d="M8.11 5.015c.165-.744.138-1.672.124-1.955-.002-.042.062-.085.103-.042.633.653 1.11 1.38 1.42 2.23.061.17.226.808.267.914.041.106.103.149.165.127.269-.092.271-1.23.288-1.402 0-.021.012-.064.062-.064s.5.907.72 1.36c.247.659.741 2.282.741 3.506 0 2.067-.873 3.828-2.264 5.311h-.411l.015-.02c.383-.478.781-.976.931-1.595.02-.085.083-.68.062-.722-.017-.034-.062-.024-.082 0-.35.404-.453.382-.618.34-.164-.043-.164-.404-.164-.531 0-.739-.227-1.445-.515-2.125-.123-.233-.383-.692-.432-.658-.062.042-.02.467 0 .764.015.225-.086 2.71-.597 2.38-.33-.213-.288-.701-.288-.765 0-.05.041-.347.062-.489.007-.042.004-.127-.062-.127-.124 0-.309.871-.268 1.678.033.646.522 1.516.762 1.87h-.37c-.24-.213-.836-.846-1.297-1.678-.576-1.041-.453-2.04-.453-2.529 0-.488.206-1.614.453-2.358.247-.743.33-2.018.33-2.082 0-.064-.063-.319.04-.382.247-.064.391.998.433 1.168.04.17.164.128.185.064.014-.045.607-1.957.658-2.188z" fill="#fff"/></svg>