<!-- by TradingView --><svg xmlns="http://www.w3.org/2000/svg" width="18" height="18"><path fill="#F0F3FA" d="M0 0h18v18H0z"/><path d="M11.58 5h-5.2l.86 1h3.6l.74-1z" fill="#70B2CA"/><path d="M14 9.9l-1.64-4.58-.69 1.06 1.14 3.16 1.19.37zm-10 0l1.64-4.58.69 1.06-1.14 3.16L4 9.91z" fill="#0084B9"/><path d="M8.38 14l-4.15-2.89 1.3-.3 2.78 2L8.38 14z" fill="#3F97B6"/><path d="M9.53 14l4.16-2.9-1.31-.3-2.79 1.97L9.53 14z" fill="#70B2CA"/><path d="M10.54 7H7.5L6.47 9.9l2.5 1.88L11.5 9.9 10.54 7z" fill="#8F95C4"/></svg>