<!-- by TradingView --><svg width="18" height="18" viewBox="0 0 18 18" xmlns="http://www.w3.org/2000/svg"><path fill="#FDE700" d="M0 0h18v18H0z"/><path d="M11 7h-1c0-.89 1-2 2-2 .8 0 1 .6 1 .89v6.22c0 .3-.2.89-1 .89s-1-.6-1-.89V7ZM6.14 5h2.94c.5 0 .92.5.92 1s-.41 1-.92 1H7.39l-.2.47C8.85 7.73 10 8.37 10 10c0 1.46-1.26 3-2.77 3a4 4 0 0 1-2.96-1.15.87.87 0 0 1 0-1.26.95.95 0 0 1 1.3 0C6 11 6.5 11 7 11c.5 0 1-.5 1-1 0-1.15-.98-1.15-2.02-1l-.8.1c-.35.05-.62-.29-.49-.6L6.14 5Z" fill="#00B4EE"/></svg>