<!-- by TradingView --><svg width="18" height="18" viewBox="0 0 18 18" xmlns="http://www.w3.org/2000/svg"><path fill="#F0F3FA" d="M0 0h18v18H0z"/><path d="M13.87 7.67c-.93.75-1.7 1.6-2.63 2.24-.77.54-1.69.5-2.4-.08a2.11 2.11 0 0 1-.77-2.17c.06-.22.18-.43.3-.76a11.8 11.8 0 0 0-4.27 3.13 4.86 4.86 0 0 1 .94-4.08 4.83 4.83 0 0 1 5.13-1.8 4.9 4.9 0 0 1 3.7 3.52Z" fill="#025E64"/><path d="M4.5 11.18c.76-.6 1.58-1.08 2.46-1.46.1.31.17.6.3.88.86 1.83 2.89 2.3 4.42 1 .66-.54 1.19-1.23 1.71-1.92l.54-.66c.42 1.51-1.08 3.8-2.98 4.6a5.02 5.02 0 0 1-6.44-2.44Z" fill="#0AA7E1"/></svg>