<!-- by TradingView --><svg xmlns="http://www.w3.org/2000/svg" width="18" height="18"><path fill="#F0F3FA" d="M0 0h18v18H0z"/><path d="M14 10.68a4.94 4.94 0 01-4.28 2.5A5.01 5.01 0 014.76 8.1c0-1.7.81-3.2 2.07-4.11A5.3 5.3 0 004 8.71 5.24 5.24 0 009.19 14 5.19 5.19 0 0014 10.68z" fill="#4D9B45"/><path d="M10.16 4.56A3.98 3.98 0 005.7 8.54a3.98 3.98 0 004.37 3.99 4.08 4.08 0 01-5.01-4 4.08 4.08 0 015.1-3.97z" fill="#8FC740"/><path d="M6.64 10.39a4 4 0 01-.18-1.2c0-1.97 1.41-3.57 3.16-3.57 1.16 0 2.18.71 2.73 1.78A3.28 3.28 0 009.2 4.99a3.3 3.3 0 00-3.27 3.33c0 .78.27 1.5.71 2.07z" fill="#4D9B45"/></svg>