<!-- by TradingView --><svg xmlns="http://www.w3.org/2000/svg" width="18" height="18"><path fill="#063C78" d="M0 0h18v18H0z"/><path fill-rule="evenodd" d="M5 5h8v8H5V5zm3.24 3.61c-.2.1-.43.14-.67.14C6.7 8.75 6 8.08 6 7.25s.7-1.5 1.57-1.5c.24 0 .47.05.67.15v.57a1.08 1.08 0 00-.67-.23c-.58 0-1.06.45-1.06 1.01 0 .57.48 1.02 1.06 1.02.26 0 .49-.09.67-.23v.57zm-.67 3.61c.24 0 .47-.05.67-.14v-.57c-.18.15-.41.23-.67.23-.58 0-1.06-.45-1.06-1.02 0-.56.48-1.01 1.06-1.01.26 0 .49.08.67.23v-.57c-.2-.1-.43-.15-.67-.15-.87 0-1.57.68-1.57 1.5 0 .83.7 1.5 1.57 1.5zm3.87-4.16c.3-.29.4-.79.39-.97h-.48c0 .23-.17.54-.23.64l-.44-.53c.39-.2.5-.47.5-.75s-.21-.7-.8-.7c-.6 0-.89.38-.89.7 0 .34.22.5.36.61l.04.03a.84.84 0 00-.56.8c0 .31.25.86.97.86.51 0 .72-.22.77-.32l.28.32H12l-.56-.7zm-.65.06l-.6-.68c-.29.15-.34.58-.14.74.3.22.64.04.74-.06zm-.43-1.28c-.09-.05-.26-.2-.26-.35 0-.18.1-.3.26-.29.15 0 .28.06.28.29 0 .17-.19.3-.28.35zM12 10.72c0 .83-.63 1.5-1.4 1.5-.77 0-1.4-.67-1.4-1.5 0-.82.63-1.5 1.4-1.5.77 0 1.4.68 1.4 1.5zm-.56 0c0 .58-.37 1.05-.83 1.05-.47 0-.84-.47-.84-1.05 0-.57.37-1.04.84-1.04.46 0 .83.47.83 1.04z" fill="#fff"/></svg>