<!-- by TradingView --><svg width="18" height="18" viewBox="0 0 18 18" xmlns="http://www.w3.org/2000/svg"><path fill="#F0F3FA" d="M0 0h18v18H0z"/><path d="M11.98 5.37 9.03 3h-.06L6.02 5.4a.04.04 0 0 0-.02.03c0 .01 0 .02.02.02l.65.54.04.01.03-.01C7.4 5.59 8.18 5.4 9 5.4a4.28 4.28 0 0 1 2.3.6h.03l.65-.58.02-.02c0-.01 0-.02-.02-.03Z" fill="#EE7623"/><path d="M6 11.24c-.4-.65-.6-1.41-.6-2.24 0-.81.2-1.61.58-2.26.01-.02.01-.04 0-.07l-.52-.65c-.02-.03-.05-.03-.06 0L3.01 8.96 3 9l.01.03 2.38 2.96.02.01.03-.01.54-.68a.06.06 0 0 0 .01-.07Z" fill="#002F6C"/><path d="m11.98 12.56-.67-.55c-.03-.01-.05-.01-.07 0-.66.4-1.43.59-2.24.59-.81 0-1.6-.2-2.24-.59H6.7l-.67.55c-.03.02-.03.05 0 .05L8.97 15 9 15h.03l2.95-2.39c.03-.01.03-.03 0-.05Z" fill="#92BA1F"/><path d="m14.99 8.97-2.62-2.62a.05.05 0 0 0-.04-.02c-.01 0-.02 0-.03.02l-1.13 1.32c-.48-.72-1.3-1.34-2.17-1.34A2.75 2.75 0 0 0 6.33 9c0 1.4 1.25 2.67 2.67 2.67.86 0 1.69-.63 2.17-1.34l1.13 1.33h.06l2.62-2.62c.03-.02.03-.05 0-.07Z" fill="#0374C1"/></svg>