<!-- by TradingView --><svg xmlns="http://www.w3.org/2000/svg" width="18" height="18" viewBox="0 0 18 18"><path fill="#F0F3FA" d="M0 0h18v18H0z"/><path d="M5 4c-.55 0-1 .48-1 1.07v7.86c0 .59.45 1.07 1 1.07h8c.55 0 1-.48 1-1.07V5.07C14 4.48 13.55 4 13 4H5Zm7 2H6.55c-.16 0-.35.2-.35.37v3.64c0 .16.02.29.25.29H9.7c.2 0 .31-.2.31-.36v-.3c0-.16-.15-.34-.32-.34H8.21c-.5 0-.95-.42-.95-.93v-.42c0-.5.5-.93.95-.93h3.7c.7 0 1.09.38 1.09.89v4.28c0 .5-.21.81-.67.81H6v-1h5.48c.15 0 .27-.18.27-.35v-3.6c0-.17-.12-.35-.27-.35H8.37c-.24 0-.37.23-.37.4v.23c0 .17.17.37.37.37h1.35c.46 0 .98.32.98.82v.64c0 .5-.52.84-.98.84H5.84C5.4 11 5 10.5 5 10l.01-4.03c0-.5.38-.97.83-.97H12v1Z" fill="url(#a1rvrb1fb)"/><defs><linearGradient id="a1rvrb1fb" x1="9" y1=".31" x2="9" y2="16.75" gradientUnits="userSpaceOnUse"><stop offset=".21" stop-color="#4EC1E0"/><stop offset=".56" stop-color="#0C4091"/></linearGradient></defs></svg>