<!-- by TradingView --><svg xmlns="http://www.w3.org/2000/svg" width="18" height="18"><path fill="#D52B1E" d="M0 0h18v18H0z"/><path d="M13.6 6.95c0-.3.26-.53.55-.53.29 0 .53.26.53.55 0 .44-.44.74-.69.74l.1-.26c-.28-.02-.5-.22-.5-.5zm-3.93 3.84c1.67-.31 4.9-.87 6.1.7-.88 0-2.4.8-2.54.93-.85-.86-2.62-1-3.36-1-1.14 0-2.01.2-2.84.4-.74.17-1.45.33-2.27.33-1.62 0-2.73-1.03-2.76-2.63-.01-.52.06-1.04.27-1.5A3.78 3.78 0 015.73 5.9c.5 0 1.1.11 1.41.43a.8.8 0 01.27.63c0 .4-.4.67-.68.67-.39 0-.58-.28-.58-.51 0-.25.04-.29.12-.36l.04-.04c.1-.09-.12-.15-.3-.15A2.74 2.74 0 003.45 9.4c0 2.75 3.47 1.99 5.5 1.54l.72-.15zm5.34-3.66c-.05.19-.07.49-.07.67 0 .16-.89 1.19-1.11 1.41-.27.27-.59.42-.78.42-.21 0-.07-.28.1-.6.13-.26.27-.53.27-.73 0-.36-.22-.58-.53-.59-.35-.01-.63.2-.63.2l.04-.2h-.94s-.59 1.39-.87 1.67c-.15.15-.28.22-.4.22-.2 0-.07-.24.1-.56.14-.28.32-.61.32-.88s-.21-.45-.48-.45c-.42 0-.66.2-.66.2l.03-.2h-.97s-.27.5-.66.67c-.32.14-.4.04-.4.04 0-.42-.35-.7-.75-.7-.85 0-1.71.88-1.72 1.73v.18c.05.35.27.62.77.62.67 0 1.46-.7 1.63-1.36.01-.05.69-.2.69-.2l-.61 1.56h.95s.52-1.87 1.06-1.87c.28 0 .12.4-.05.82-.1.25-.21.5-.21.67 0 .18.06.38.34.38.54 0 .87-.3 1-.42a.33.33 0 01.05-.04c.06-.03-.13.46-.13.46h.87s.62-1.9 1.07-1.9c.07 0 .16.01.16.26 0 .14-.1.3-.2.47-.12.22-.27.46-.27.72 0 .24.16.45.42.45.68 0 1.6-.8 1.6-.8-.08.56.46.8 1 .8.5 0 .96-.3.96-.87 0-.45-.14-.76-.24-1a1.1 1.1 0 01-.14-.45c0-.51.19-.8.28-.91.1-.11-.1-.4-.36-.4-.31 0-.47.23-.53.51zm-.7 2c.1-.1.65-.84.65-.84s.04.41.04 1.07c0 .27-.16.5-.3.5-.07 0-.1-.06 0-.15.05-.06.17-.3-.03-.5-.12-.13-.28-.09-.34-.07-.03 0-.04.01-.02-.02zm-8.4-.44c.27-.34.69-.44.69-.44s-.23.32-.05.5c.08.08.16.07.22.07.04 0 .06 0 .06.03 0 .1-.15.35-.33.5-.59.5-1.12.03-.58-.66z" fill="#fff"/></svg>