<!-- by TradingView --><svg width="18" height="18" fill="none" xmlns="http://www.w3.org/2000/svg"><path fill="url(#paint0_linear_3186)" d="M0 0h18v18H0z"/><path fill-rule="evenodd" clip-rule="evenodd" d="M13.584 6.02a3.663 3.663 0 00-.022.171c-.016.143-1.022 3.602-.23 3.483.07-.01.114-.045.17-.104l-.008.333a5.174 5.174 0 01-.019.39.6.6 0 01-.058.142c-.026.046-.044.088-.04.094.062.093.442.08.538.014.034-.024.034-.024.007-.036a.648.648 0 01-.086-.057c-.093-.071-.107-.13-.116-.498l-.008-.3c.038.053.072.062.124.059.588-.033.016-2.521-.156-3.513a.906.906 0 00-.042-.175c-.02-.03-.048-.03-.054-.002zm-4.537.191c-.067.046-.591.587-1.148 1.186l-.339.364-.47-.402c-.329-.282-.479-.402-.503-.402-.024 0-.394.291-1.219.96-.65.528-1.225.987-1.275 1.02-.392.258-1.053.516-1.805.706-.158.04-.268.076-.278.09-.019.029-.01.075.017.086.01.004.271-.022.579-.058.708-.082.718-.082.723-.047.004.033-.022.05-.359.227-.132.07-.257.14-.276.154-.067.052-.057.148.015.148.322 0 2.056-1.286 2.098-.518.003.055.008.065.033.07.108.018 1.119-.828 1.132-.846.09-.12.626-1.553.65-1.553.031 0 .105.06.37.304l.335.31c.014.019-.628.638-.934.902-.688.592-1.502 1.15-2.125 1.46-.152.074-.18.098-.19.158-.016.094.064.112.241.056.057-.018.313-.106.57-.197a5.75 5.75 0 01.51-.163c.076 0 .087.075.025.164-.017.024-.101.137-.188.25-.087.114-.16.223-.164.245a.177.177 0 00.007.075c.024.07.072.046.262-.125.592-.534 1.434-1.003 1.938-1.04.712-.054.99.473 1.03.479.043.006.034.025.527-1.013.406-.852.401-.842.401-.904 0-.131-.156-.062-.203-.143-.034-.058.045-1.487.072-1.487.04 0 .097.05.485.434.47.465.671.667 1.388 1.397.252.256.493.493.537.526.186.14.879.522 1.527.844.3.148.305.15.329.119.027-.037.029-.06.009-.1-.008-.016-.369-.249-.802-.517-.434-.269-.826-.52-.873-.56-.108-.093-.166-.187-.156-.25.014-.082.11-.57.127-.602.02-.041-.454-.919.71.003.531.42.563.44.563.349 0-.034-.087-.122-.586-.594-.433-.41-.596-.555-.626-.56-.033-.004-.14.057-.524.298l-.482.303-.03-.033-.773-.81c-.682-.713-.745-.775-.793-.781a.148.148 0 00-.09.018zm5.543 1.35a.494.494 0 00-.024.106c-.066.564-.535 1.604-.326 2.28.059.187.122.293.255.192.037-.028.07-.048.074-.044.007.012-.018.289-.033.352-.007.029-.019.052-.027.052-.021 0-.36-.174-.494-.255a.794.794 0 00-.134-.07c-.01 0-.025.02-.036.043-.017.04-.017.046 0 .085.015.034.063.064.25.155.331.16.814.356.85.343.02-.008.027-.02.024-.049-.003-.04-.04-.064-.182-.123-.077-.033-.076-.029-.086-.315l-.007-.213.054.056c.134.138.21.006.24-.204.08-.604-.25-1.813-.313-2.268-.023-.166-.05-.206-.085-.123z" fill="#fff"/><defs><linearGradient id="paint0_linear_3186" x1="3.349" y1="3.122" x2="21.904" y2="24.434" gradientUnits="userSpaceOnUse"><stop stop-color="#1A1E21"/><stop offset="1" stop-color="#06060A"/></linearGradient></defs></svg>