<!-- by TradingView --><svg width="18" height="18" viewBox="0 0 18 18" xmlns="http://www.w3.org/2000/svg"><path fill="#F0F3FA" d="M0 0h18v18H0z"/><path fill-rule="evenodd" d="M8.7 6h.6v1h.45c.05 0 .1.02.14.06 2.76.33 5.17 2.13 6.11 3.14-.96-.41-3.23-1.23-4.55-1.23-.58 0-1.06.03-1.45.08v.64c0 .17-.11.31-.25.31H9.3v1h-.6v-1h-.45C8.11 10 8 9.86 8 9.69v-.64c-.39-.05-.87-.08-1.45-.08-1.32 0-3.59.82-4.55 1.23.94-1 3.35-2.8 6.1-3.14A.22.22 0 0 1 8.26 7h.45V6Zm-.92 1.53v.5c-.74.09-2.75.55-4.87 1.64.66-.53 2.33-1.58 4.87-2.14Zm2.44 0v.5c.74.09 2.76.55 4.89 1.64a12.43 12.43 0 0 0-4.89-2.14Zm-.88-.02h-.91c-.1 0-.17.1-.17.2V9.5a8.3 8.3 0 0 1 .3-1.77c.06-.1.57-.2.78-.2Z" fill="#C27353"/></svg>