<!-- by TradingView --><svg width="18" height="18" viewBox="0 0 18 18" xmlns="http://www.w3.org/2000/svg"><path fill="#F0F3FA" d="M0 0h18v18H0z"/><path d="M9.93 9.2a.92.92 0 0 0-.3.08c-.16.1-.32.21-.58.22-.27 0-.53.05-.79.14a.34.34 0 0 0-.19.14c-.15.28-.43.34-.72.4a3.52 3.52 0 0 1-.9.29.86.86 0 0 1-.24.01c-.17-.01-.27.11-.39.21l-.4-.17-.1-.07a.07.07 0 0 0-.04 0c-.26.02-.3-.2-.27-.4l.01-.03a2.7 2.7 0 0 1 .49-.66v-.18l.02-.05.11-.19a2.09 2.09 0 0 1 .25-.53.61.61 0 0 0 .05-.12.06.06 0 0 0-.01-.05.27.27 0 0 1-.04-.09.07.07 0 0 0-.04-.05l-.26-.14a.22.22 0 0 1-.1-.1l-.13-.28a.14.14 0 0 1-.01-.05c0-.1 0-.17-.03-.25a1.92 1.92 0 0 1-.08-.6 379.75 379.75 0 0 0 .01-3.67.04.04 0 0 1 .03-.01h1.27l.04.02v.03l.01 1.39c0 .06.03.11.08.17a3.21 3.21 0 0 1 .36.44l.08.37c0 .01 0 .03.02.04l.14.12.17.1c.04.01.07.03.1.06l.45.47.2.26.03.01.26.12h.01l.23.01.04.02.03.04c.02.06.03.12.02.17a.1.1 0 0 1-.01.04L8.74 7l-.02.03-.08.45v.03c.03.04.03.08 0 .11a.2.2 0 0 0-.02.03.03.03 0 0 0 0 .04c.2.14.15.22-.03.33-.07.04-.05.1 0 .15a.05.05 0 0 1 0 .04l-.03.06a.04.04 0 0 0 0 .04v.01l.01.02.18.07a.08.08 0 0 0 .08 0c.11-.08.24-.16.27-.28v-.03c.02 0 .02-.01.03-.02a.06.06 0 0 1 .06.01l.27.21c.03.02.04.05.05.08l.06.27c.01.06.04.12.07.17l.29.4Z" fill="#AFBBC9"/><path d="M9.93 9.2c.03.05.01.1-.05.15v.05h.02c.07 0 .08.08.14.1a.04.04 0 0 0 .04-.02c.03-.03.06-.04.1-.03.04.01.04.03.05.06l.02.03c.08.06.14.14.17.23a.77.77 0 0 0 .16.32h.02v-.01a.3.3 0 0 1 .2-.14c.1 0 .25-.04.32.05a.03.03 0 0 0 .02.01.03.03 0 0 0 .02 0c.1-.1.22-.15.39-.12.14.02.24-.03.38 0l.35-.02v-.01l.01-.01c0-.1.05-.17.14-.24a.15.15 0 0 1 .13-.02c.01 0 .02 0 .03.02l.36.37c.02.03.05.08.05.12v1.62a2.2 2.2 0 0 0-.85-.02l-.37.05c-.32.03-.62.1-.95 0-.2-.05-.36-.1-.5-.16l-.35-.14c-.2-.06-.4-.11-.56-.25-.2-.17-.41-.27-.63-.28-.07 0-.24 0-.53.03a.62.62 0 0 1-.38-.07c-.12-.06-.3.03-.42.04h-.07l-.65-.18c-.12-.01-.25 0-.42.02a.8.8 0 0 1-.25 0 1.29 1.29 0 0 1-.25-.06c.12-.1.22-.22.4-.2.07 0 .14 0 .22-.02a3.53 3.53 0 0 0 .9-.3c.3-.05.58-.11.73-.4a.34.34 0 0 1 .2-.13c.25-.09.51-.13.78-.14.26 0 .42-.13.57-.22a.92.92 0 0 1 .3-.07Z" fill="#D26C0A"/><path d="m5.82 10.7.25.06a.8.8 0 0 0 .25 0c.17-.03.3-.04.42-.03l.65.18h.07c.12-.01.3-.1.42-.04.13.07.22.08.38.07l.53-.03c.22.01.43.1.63.28.16.14.36.19.56.25l.35.14c.14.05.3.11.5.16.33.1.63.03.95 0l.37-.05c.27-.05.56-.04.85.02v.85a.5.5 0 0 1-.18-.07.58.58 0 0 0-.16-.08c-.1-.02-.18-.07-.3-.08a.58.58 0 0 0-.23 0 7.48 7.48 0 0 0-.43.22.89.89 0 0 1-.37.02.69.69 0 0 0-.24-.01c-.25.06-.44.2-.77.38a.27.27 0 0 1-.06.02c-.17.04-.3.13-.47.04-.18-.1-.3-.22-.47-.32a.7.7 0 0 1-.18-.15.15.15 0 0 0-.07-.05c-.13-.04-.27-.04-.38-.12-.25-.2-.53-.36-.8-.11-.16.13-.36.28-.6.43-.23.14-.49.2-.77.18a7.4 7.4 0 0 0-.47-.03c-.13 0-.26-.03-.39-.05-.14-.01-.53.04-.66.08V10.9c0-.13.3-.26.43-.4l.4.18Z" fill="#A04D21"/><path d="M13 12.56v1.41a.03.03 0 0 1 0 .02h-.02l-.01.01H5v-1.17c.13-.04.52-.06.66-.05.13.02.26.05.39.05l.47.03c.28.02.54-.04.77-.18.24-.15.44-.3.6-.43.27-.25.55-.09.8.1.1.1.25.09.38.13l.07.05a.7.7 0 0 0 .18.15c.18.1.29.21.47.32.17.09.3 0 .47-.04l.06-.02c.33-.19.52-.32.77-.38.04-.01.12 0 .24.01a.89.89 0 0 0 .4-.04l.4-.2a.58.58 0 0 1 .23 0c.12.01.2.06.3.08.03 0 .08.03.16.08a.5.5 0 0 0 .18.07Z" fill="#4C566F"/></svg>