<!-- by TradingView --><svg width="18" height="18" viewBox="0 0 18 18" xmlns="http://www.w3.org/2000/svg"><path fill="#2E5864" d="M0 0h18v18H0z"/><path d="M9.72 13v-.27c.35-.02.6-.1.76-.24a.74.74 0 0 0 .24-.57c0-.2-.06-.46-.16-.76L10.18 10h-3.2l-.4 1.16c-.1.3-.14.55-.14.76 0 .25.07.44.23.57.16.14.4.22.76.24V13H4.5v-.27c.29-.02.52-.1.69-.24.17-.13.3-.3.4-.5.11-.19.23-.47.37-.83L8.54 4h.8l2.52 7.16c.16.45.29.78.39.97.1.19.24.34.41.44.18.1.52.15.84.15V13H9.72ZM10 9.5 8.5 5.32 7.15 9.5h2.84Z" fill="#fff"/></svg>