<!-- by TradingView --><svg width="18" height="18" viewBox="0 0 18 18" xmlns="http://www.w3.org/2000/svg"><path fill="#F0F3FA" d="M0 0h18v18H0z"/><path d="M8.25 5.44 4 8.85c.23-2.79 2.05-4.12 2.92-4.44l1.33 1.03ZM11.52 6.8 8 4.04c2.65-.3 4.22.88 4.68 1.5L11.52 6.8ZM7.05 13.67A5.13 5.13 0 0 1 4 9.85l1.76-1.31c0 .48.07 1.59.47 2.17.63 1.15 2.06 1.49 2.7 1.51l-1.9 1.45ZM11.74 11.12l-3.5 2.84c2.64.28 4.28-1.1 4.76-1.83l-1.26-1.01Z" fill="#00D3C2"/><path d="M9.12 11.2c-1.32 0-2.16-1.13-2.16-1.81 0-1.4 1.21-2.35 2.16-3.12 1.27 1.1 2.04 2.1 2.04 2.94 0 .83-.73 2-2.04 2Z" fill="#00D3C2"/></svg>