<!-- by TradingView --><svg width="18" height="18" viewBox="0 0 18 18" xmlns="http://www.w3.org/2000/svg"><path fill="#F0F3FA" d="M0 0h18v18H0z"/><path d="m9.47 7.53.28-1.57.08-.43c.12-.33.42-.53.82-.53H14c-.12.76-.23 1.51-.38 2.26l-.15.8a.75.75 0 0 1-.72.63H9.31c-.02 0 .15-1.05.16-1.16ZM4 13l.3-1.72.2-1.2c.09-.54.42-.76.85-.77H8.7s-.27 2.08-.42 2.74c-.04.15-.06.32-.14.47-.14.28-.36.48-.7.48H4Z" fill="#A49132"/><path d="M9.31 9.3H12.63c.4 0 .79.23.86.7.12.75.28 1.5.41 2.25l.1.75h-3.3c-.52 0-.79-.22-.88-.73-.13-.74-.28-1.48-.4-2.22-.05-.23-.07-.47-.1-.74ZM8.69 8.69H5.4c-.61.01-.85-.36-.92-.79-.08-.52-.19-1.04-.28-1.57L4 5.11l.01-.08c.1-.05.19-.03.28-.03h2.9c.62 0 .95.33 1 .85.06.5.18.99.27 1.49l.23 1.35Z" fill="#007798"/></svg>