<!-- by TradingView --><svg width="18" height="18" viewBox="0 0 18 18" xmlns="http://www.w3.org/2000/svg"><path fill="#F0F3FA" d="M0 0h18v18H0z"/><path d="M8.94 8.3c-.26 0-.57.26-.7.38-.14.06-.26-.15-.24-.22.02-.07.4-.46.94-.46.53 0 1.06.39 1.06 1.03s-.65.97-1.06.97c-.36 0-.63-.26-.8-.39l.1-.1c.13.1.45.3.7.3.31 0 .78-.36.78-.78 0-.41-.46-.72-.78-.72Z" fill="#FFAC50"/><path d="M9.03 7c.73 0 1.34.47 1.63.8.06.06.05.16-.02.22a.18.18 0 0 1-.24-.01c-.3-.28-.85-.69-1.37-.69-1.3 0-1.75 1.14-1.75 1.75 0 .6.37 1.72 1.84 1.72 1.32 0 1.73-1.63 1.73-1.72 0-.1.15-.16.15-.06 0 .95-.82 1.99-1.88 1.99C7.9 11 7 10.16 7 9.07 7 7.97 7.99 7 9.03 7Z" fill="#064477"/><path d="M8.92 6.2c-.99 0-1.82.66-2.24 1.13a.34.34 0 0 1-.41.08c-.15-.09-.2-.27-.1-.4a3.5 3.5 0 0 1 2.75-1.36c2 0 3.43 1.6 3.43 3.23 0 1.44-1.13 3.47-3.24 3.47a3.25 3.25 0 0 1-3.46-3.03c0-.7.23-1.24.35-1.53l.2.1c-.1.18-.3.69-.3 1.32 0 1.3 1.44 2.77 3.2 2.77 1.6 0 2.82-1.5 2.82-3.1 0-1.59-1.58-2.67-3-2.67Z" fill="#43C2BB"/><path d="M9.05 4.77c1.1 0 2.2.6 2.87 1.12.08.07.18.1.28.11.1 0 .2-.02.28-.07.2-.13.27-.42.1-.59A5.32 5.32 0 0 0 9.05 4C5.05 4 4 7.54 4 8.97 4 10.57 5.17 14 9.17 14 12.66 14 14 10.63 14 8.98c0-1.11-.43-2.13-.76-2.63L13 6.5c.25.38.64 1.3.7 2.26 0 3.1-2.75 4.78-4.53 4.78-1.78 0-4.48-1.77-4.48-4.57 0-3 2.78-4.2 4.36-4.2Z" fill="#064477"/></svg>