<!-- by TradingView --><svg width="18" height="18" fill="none" xmlns="http://www.w3.org/2000/svg"><path fill="#F0F3FA" d="M0 0h18v18H0z"/><path d="M9.814 14c-1.65 0-2.95-.46-3.9-1.377C4.97 11.696 4.5 10.437 4.5 8.847c0-.536.09-1.08.271-1.633a4.815 4.815 0 011.049-1.85C6.66 4.455 7.858 4 9.413 4c.628 0 1.198.051 1.708.153.543.11.908.156 1.167.173.102.009.153.056.153.14 0 .676.021 1.36 0 2.034-.008.179-.047.25-.11.25s-.114-.071-.114-.25c0-.561-.2-.982-.53-1.288-.526-.485-1.312-.727-2.356-.727-1.21 0-2.113.31-2.71.93-.707.74-1.06 1.85-1.06 3.33 0 1.258.392 2.343 1.178 3.252.824.944 1.85 1.416 3.075 1.416.99 0 1.673-.212 2.05-.638.212-.238.357-.595.436-1.07.023-.129.063-.192.117-.192.056 0 .083.063.083.191 0 .068-.027.298-.082.689a7.529 7.529 0 01-.177.944.524.524 0 01-.306.37c-.44.195-1.147.293-2.121.293z" fill="#3D3D3D"/></svg>