<!-- by TradingView --><svg width="18" height="18" viewBox="0 0 18 18" xmlns="http://www.w3.org/2000/svg"><path fill="#01B2AA" d="M0 0h18v18H0z"/><path fill-rule="evenodd" d="M8 12V6h1.32c.56-.02 1.68.5 1.68 2s-1.28 2.04-1.92 2H9v2H8Zm1.11-5H9v2.24h.11c.64 0 .89-.32.89-.7V7.7c0-.4-.25-.71-.89-.71ZM3 8a2 2 0 0 1 4 0v.03l-1 .12V8a1 1 0 0 0-2 0v2a1 1 0 1 0 2 0v-.2l1 .08V10a2 2 0 0 1-4 0V8Zm9-2v6h1.18c1.4 0 1.8-.87 1.82-1.3v-.53c0-.96-.75-1.3-1.12-1.34.33-.1 1-.47 1-1.27 0-1.2-.96-1.54-1.44-1.56H12Zm1.51 1H13v1h.51c.27 0 .49-.12.49-.28v-.44c0-.16-.22-.28-.49-.28Zm0 2.42H13V11h.51c.27 0 .49-.2.49-.44v-.7c0-.24-.22-.44-.49-.44Z" fill="#fff"/></svg>