<!-- by TradingView --><svg xmlns="http://www.w3.org/2000/svg" width="18" height="18"><path fill="#F0F3FA" d="M0 0h18v18H0z"/><path fill-rule="evenodd" d="M9 13c3.87 0 7-1.8 7-4s-3.13-4-7-4-7 1.8-7 4 3.13 4 7 4zm.76-6.8c-.2-.26-.8-.6-1.6.15.28-.14.98-.35 1.6-.15zm.56-.17a.74.74 0 00-.51.22c.09-.05.28-.06.36-.06.38.02.36.26.3.38.12 0 .22-.13.23-.21.02-.08-.07-.32-.38-.33zm3.42 1.02c-.1 0-.32-.03-.38-.09-.08.05-.27.19-.38.37 0-.08.04-.29.22-.44l-.5-.4a.73.73 0 00-.44-.06.58.58 0 01.45-.22c.22 0 .52.4.65.6h.25v.08h-.09c.08.04.22.14.22.16zm-1.57.02c.1.38.62.4.86.35-.13.25-.41.28-.45.28a.43.43 0 01-.3-.11c-.12 0-.55.04-.67.6-.1.5-.26.6-.34.58.11-.57-.14-.65-.7-.75-.44-.08-.51-.3-.5-.4.1.14.38.22.78.2.31-.01.5.1.54.15.17-.43.59-.5.8-.49a.67.67 0 01-.02-.41zm1.5.59c.36-.1.29-.34.2-.45-.04.28-.31.33-.33.27-.02-.05-.14-.12-.2-.08-.07.04-.16.04-.21.03h-.02c0 .15.2.16.29.14.06.09.2.1.27.09zM12.14 6.5c-.2 0-.3-.16-.34-.23-.05.2.1.29.17.31h.28c.12.01.1.06.08.08-.21 0-.28.1-.28.15.05-.06.14-.05.2-.05h.08c.07 0 .23 0 .22-.15-.02-.11-.1-.11-.24-.1h-.17zm-.74.31c-.18-.04-.56-.14-.56-.26.1-.02.34-.05.56 0 0-.02-.06-.1-.1-.14.16.01.5.07.57.19h-.1l.14.14-.58-.08.07.15zm-.38.07c.1-.04.32-.08.32.06.01.19-.33.22-.5.13-.1.04-.3.07-.36-.04-.1.04-.3.1-.4-.04-.16.03-.48.02-.56-.28.1.04.29.13.37.13l-.03-.13c.1.06.33.17.45.17l-.02-.11c.08.06.28.17.45.17.18 0 .21.03.2.05.09.01.22 0 .08-.11zm-1.3-.49c.52.12.96.36 1.11.47a6.06 6.06 0 00-1.36-.33c-.14 0-.06.12 0 .19-.08 0-.24 0-.26-.16-.03-.14.12-.17.26-.17.11 0 .13-.12.12-.18.07 0 .12.12.14.18zm.32 1.04c-.23-.15-.1-.24 0-.27-.1.26.25.19.5.14l.13-.03c.22-.03.41-.03.36.13-.03.13.08.12.14.1.36-.13.45 0 .45.07-.13-.02-.2.01-.31.05-.07.03-.16.06-.28.08-.23.04-.25-.17-.24-.27-.58.06-.69.02-.73 0h-.02zm.69.94c.34-.06.47.15.49.27 0 .04-.03.08-.16-.04s-.3-.08-.37-.05c-.38.1-.56-.15-.6-.29.07.07.3.18.64.11zm.46.56c.17-.13.59-.25.86.24.32.56.54.63.8.71l.06.02.07.02c.24.09.4.14.54.38.15.27.28.3.4.3.13 0 .08.12-.05.12s-.47-.23-.54-.32a1.8 1.8 0 00-.56-.27l-.06-.02a2.3 2.3 0 01-.88-.7c-.16-.28-.43-.48-.64-.48zm2.24 1.72c.05.13.24.15.32.14-.2.22-.42.04-.5-.07-.14.06-.44.1-.6-.2-.17-.3-.4-.32-.57-.33l-.1-.01c-.18-.03-.34-.08-.58-.4a.97.97 0 00-.81-.4c-.16 0-.31-.11-.43-.23-.16.14-.72.3-1 .37.06.1.15.32-.07.48a.64.64 0 00-.25.45c-.01.45-.3.59-.43.6.26-.25.29-.46.27-.54-.04-.12-.1-.39.08-.5.18-.13.17-.38.14-.49a2.6 2.6 0 01-1.04-.4 2.68 2.68 0 00-1.04-.43c.26-.28.71-.06.89.02l.06.03c.75.66 1.83.48 2.3.3a.5.5 0 01-.09-.15.67.67 0 00-.37-.42.49.49 0 01-.27-.33c.03.1.17.12.23.12.34-.03.54.17.63.46.08.3.39.41.53.43h.07c.18.01.5.04.57.22.08.21.8.67 1.08.73.22.04.49.3.6.43.1-.02.32-.02.38.12zM7.7 6.97c-.1 0-.29.05-.32.33-.11 0-.32.12-.3.52-.12.08-.35.27-.34.4a.96.96 0 01.4-.15c.15 0 .15-.22.14-.33-.04-.1-.02-.31.42-.35-.07-.07-.17-.26 0-.42zm-.01-.18c-.05-.24.27-.37.44-.4-.45.47-.08.56.16.54.42-.07 1.25-.14 1.25.14 0 .36-.97.6-1.25.61-.23.01-.16.14-.1.2-.46.02-.3-.29.1-.39l.16-.04c.36-.09.73-.18.74-.28 0-.11-.16-.13-.62-.1-.46.04-.83.02-.88-.28zm1.42.89c-.02.19-.42.59-1.85.67.73.18 2.12.29 1.85-.67zm.53 1.85c-.28.33-.84 1.08-.84 1.48 0 .4.31.33.47.25-.13-.04-.33-.2-.15-.54l.19-.34c.2-.36.4-.73.33-.85zM5.58 7.32a1.42 1.42 0 011.59 0c-1.51-.13-1.8.48-1.85 1.09-.03.48-.37.6-.54.6-.13-.03-.45.04-.64.65-.2.61-.67.64-.89.58.5-.11.65-.5.7-.81a.87.87 0 01.72-.7c.33-.07.42-.53.43-.75-.08.17-.66.41-.96.21-.18-.1-.37-.13-.5-.15-.1-.01-.16-.02-.14-.06.04-.09.44-.14.57-.07.13.06.4.17.8 0 .31-.14.43-.32.45-.39-.26.2-.6.34-1 .2s-.73-.09-.94-.05A.65.65 0 013 7.63c.2-.17.72-.45 1.22-.24.5.2.66.12.75.07l.05-.02c.27-.27.48-.2.56-.12zm.86.8c.15.28.16.88-.97.97-1.13.1-1.4.7-1.39.98-.04.1-.22.33-.53.47.16 0 .54-.14.8-.6.26-.46.89-.57 1.17-.57-.04.07-.21.22-.5.23-.29.01-.47.32-.52.47a.62.62 0 01-.34.33c.1.05.34.04.55-.33l.05-.05c.07-.07.19-.2.4-.26.31-.08.61-.32.65-.44.29 0 .89-.16.95-.73.01-.1-.03-.35-.32-.47zm2.63-.96c-.43-.04-1.38.07-1.72.83.22-.22.87-.7 1.72-.83z" fill="#005737"/><path d="M3 11.1c0-.22.18-.4.4-.4h11.2c.22 0 .4.18.4.4v.8a.4.4 0 01-.4.4H3.4a.4.4 0 01-.4-.4v-.8z"/><path d="M4 11.2c0-.11.09-.2.2-.2h9.6c.11 0 .2.09.2.2v.6a.2.2 0 01-.2.2H4.2a.2.2 0 01-.2-.2v-.6z" fill="#D2D2D2"/></svg>