<!-- by TradingView --><svg width="18" height="18" viewBox="0 0 18 18" fill="none" xmlns="http://www.w3.org/2000/svg">
<rect width="18" height="18" fill="#F0F3FA"/>
<path fill-rule="evenodd" clip-rule="evenodd" d="M7.75049 5.76618L6.28595 4.79509L6.59673 4.21183L8.06112 5.17054L8.70588 4.79263V3H9.29412V4.79263L9.82489 5.10373L11.1652 4.21183L11.476 4.79509L10.2495 5.60834V6.55835L11.9959 7.54575V9.45833L12.4745 9.73481L13.6911 8.75964L14 9.34416L13 10.1294V11.381L14 12.1662L13.6911 12.7507L12.4971 11.7937L11.9959 12.0832V14H11.4076V12.0471L10.8196 11.7058L8.9828 12.9546L7.25471 11.6572L6.5948 12.0408V14H6V12.0845L5.5807 11.8407L4.31049 12.7502L4 12.1668L5 11.4879V10.0384L5.01263 10.0311L4 9.34363L4.31049 8.76018L5.60473 9.68684L6 9.45706V7.54575L7.75049 6.45473V5.76618ZM8.09607 7.01993L6.5948 7.93176V9.50076L7.30857 9.9157L8.70588 9.06811V7.37736L8.09607 7.01993ZM9.29412 7.37736V9.06742L10.7729 9.86291L11.4076 9.49443V7.93176L9.81873 7.06987L9.29412 7.37736ZM10.4706 10.4643L8.98389 9.65541L7.51963 10.6251V10.9221L8.98389 12.1662L10.4706 11.1284V10.4643Z" fill="#183A93"/>
</svg>
