<!-- by TradingView --><svg xmlns="http://www.w3.org/2000/svg" width="18" height="18" viewBox="0 0 18 18"><path fill="#F0F3FA" d="M0 0h18v18H0z"/><path d="M9 2.5c-.05.78-.22 1.81-.39 2.27.35 1.22 2.26 3.33 3.23 4.19a9.62 9.62 0 0 0-2 1.98l-.62-.89a5.2 5.2 0 0 1 1.82-1.33l-.76-.65-2.22 2.24c.67.57 1.4 1.84 1.67 2.4A6.88 6.88 0 0 1 13.5 9a7.72 7.72 0 0 1-2.7-2.34A9.13 9.13 0 0 1 9 2.5zm0 13c.05-.78.22-1.81.39-2.27C9.04 12 7.13 9.9 6.16 9.04a9.63 9.63 0 0 0 2-1.98l.62.89a5.2 5.2 0 0 1-1.82 1.33l.76.65 2.22-2.24a9.02 9.02 0 0 1-1.67-2.4A6.88 6.88 0 0 1 4.5 9c.34.12 1.48.8 2.7 2.34A9.13 9.13 0 0 1 9 15.5zm1.04-10.73A2.84 2.84 0 0 1 9.72 4H13v4.33a7.8 7.8 0 0 1-1-.75V5h-1.96v-.23zM7.95 5l.44-1H5v4.39c.28-.17.66-.4 1-.64V5h1.95zM6 13h1.91v.06l.38.94H5V9.79l1 .69V13zm7 1H9.65l.39-.94V13H12v-2.81c.38-.28.73-.48 1-.61V14z" fill="#5C6564"/></svg>