<!-- by TradingView --><svg width="18" height="18" viewBox="0 0 18 18" xmlns="http://www.w3.org/2000/svg"><path fill="url(#aib2nf1yt)" d="M0 0h18v18H0z"/><path d="m14 8-1.99 6H10l-1-4-1 4H5.92L4 8h1.92L7 12l1-4h2l1 4 1-4h2ZM6 6a1 1 0 1 1-2 0 1 1 0 0 1 2 0ZM10 6a1 1 0 1 1-2 0 1 1 0 0 1 2 0ZM14 6a1 1 0 1 1-2 0 1 1 0 0 1 2 0Z" fill="#fff"/><defs><linearGradient id="aib2nf1yt" x1="3.35" y1="3.12" x2="21.9" y2="24.43" gradientUnits="userSpaceOnUse"><stop stop-color="#1A1E21"/><stop offset="1" stop-color="#06060A"/></linearGradient></defs></svg>