<!-- by TradingView --><svg xmlns="http://www.w3.org/2000/svg" width="18" height="18" viewBox="0 0 18 18"><path fill="#F0F3FA" d="M0 0h18v18H0z"/><path d="M7 4.72a.43.43 0 0 0-.21.05L4.94 5.83a.42.42 0 0 0-.21.36v2.12c0 .15.08.28.2.36L6.8 9.73c.13.07.3.07.42 0l1.85-1.06a.42.42 0 0 0 .21-.36V6.19a.42.42 0 0 0-.2-.36L7.2 4.77A.43.43 0 0 0 7 4.72zm0 5.78c-.2 0-.4-.05-.57-.15L4.57 9.29c-.35-.2-.57-.58-.57-.98V6.19c0-.4.22-.78.57-.98l1.86-1.06c.35-.2.79-.2 1.14 0l1.86 1.06c.35.2.57.58.57.98v2.12c0 .4-.22.78-.57.98l-1.86 1.06c-.17.1-.37.15-.57.15z" fill="#8B1535"/><path d="M12.25 5.5a.73.73 0 0 0-.38.1l-.99.6a.81.81 0 0 0-.38.7v1.2c0 .29.15.55.38.7l.99.6a.73.73 0 0 0 .76 0l.99-.6c.23-.15.38-.41.38-.7V6.9a.81.81 0 0 0-.38-.7l-.99-.6a.74.74 0 0 0-.38-.1zm0 .65l.07.02.99.6c.04.03.07.08.07.13v1.2c0 .05-.03.1-.07.13l-.99.6a.14.14 0 0 1-.14 0l-.99-.6a.15.15 0 0 1-.07-.13V6.9c0-.05.03-.1.07-.13l.99-.6a.14.14 0 0 1 .07-.02z" fill="#EF933F"/><path d="M10 10.13a.3.3 0 0 0-.15.04l-1.1.65a.32.32 0 0 0-.15.27v1.32c0 .1.06.21.15.27l1.1.65c.1.06.2.06.3 0l1.1-.65c.09-.06.15-.16.15-.27v-1.32a.32.32 0 0 0-.15-.27l-1.1-.65a.3.3 0 0 0-.15-.04zM10 14a.88.88 0 0 1-.45-.13l-1.1-.65A.95.95 0 0 1 8 12.4v-1.32c0-.33.17-.64.45-.8l1.1-.66a.88.88 0 0 1 .9 0l1.1.65c.28.17.45.48.45.81v1.32c0 .33-.17.64-.45.8l-1.1.66A.88.88 0 0 1 10 14z" fill="#155343"/></svg>