<!-- by TradingView --><svg width="18" height="18" viewBox="0 0 18 18" xmlns="http://www.w3.org/2000/svg"><path fill="#F0F3FA" d="M0 0h18v18H0z"/><path d="M14 8c-.62-2.3-2.62-4-5-4a5.25 5.25 0 0 0-5 4h.18a3.84 3.84 0 0 1 3.55-2.67c1.62 0 3 1.11 3.55 2.67H14Z" fill="url(#av4j4wizh)"/><path d="M4 10c.62 2.3 2.62 4 5 4s4.38-1.7 5-4h-.18a3.84 3.84 0 0 1-3.55 2.67c-1.62 0-3-1.11-3.55-2.67H4Z" fill="url(#bv4j4wizh)"/><path fill-opacity=".4" d="M4 8h10v2H4z"/><defs><linearGradient id="av4j4wizh" x1="14.09" y1="8.33" x2="3.91" y2="8.33" gradientUnits="userSpaceOnUse"><stop stop-color="#1382C1"/><stop offset=".64" stop-color="#4AB4C2"/><stop offset="1" stop-color="#0E83CA"/></linearGradient><linearGradient id="bv4j4wizh" x1="14.09" y1="9.67" x2="3.91" y2="9.67" gradientUnits="userSpaceOnUse"><stop stop-color="#24913E"/><stop offset=".57" stop-color="#80B62C"/><stop offset="1" stop-color="#2C9131"/></linearGradient></defs></svg>