<!-- by TradingView --><svg xmlns="http://www.w3.org/2000/svg" width="18" height="18"><path fill="url(#a3153bofs)" d="M0 0h18v18H0z"/><path d="M8.77 4.4c-.17.25-.24.57-.25.77a.5.5 0 01-.52.48.5.5 0 01-.48-.52c.01-.34.12-.85.42-1.29.3-.46.83-.84 1.6-.84.76 0 1.27.38 1.57.84.3.44.4.95.41 1.3a.5.5 0 01-.5.51.5.5 0 01-.5-.49c0-.2-.07-.52-.24-.77a.83.83 0 00-.74-.4.86.86 0 00-.77.4zm.73.6c.25 0 .5.21.5.48v2.1c0 .44-.3.78-.7.8-1 .08-2.78.73-2.78 1.99 0 1.3 2.37 1.62 3.5 1.63v-.47c-.18-.02-.5-.14-.5-.44 0-.31.34-.41.5-.42h.95c.18 0 .55.1.55.42 0 .31-.32.43-.5.44v1.64h.01c.18.05.49.13.49.46s-.36.38-.55.37H9.96c-.15-.01-.44-.08-.44-.37 0-.27.27-.37.45-.44l.05-.02V13c-.73 0-1.7-.06-2.55-.33a3.3 3.3 0 01-1.33-.76 2.08 2.08 0 01-.62-1.52 2.6 2.6 0 011.42-2.3c.7-.4 1.41-.59 2.06-.65V5.48c0-.27.25-.48.5-.48z" fill="#fff"/><defs><linearGradient id="a3153bofs" x1="3.35" y1="3.12" x2="21.9" y2="24.43" gradientUnits="userSpaceOnUse"><stop stop-color="#1A1E21"/><stop offset="1" stop-color="#06060A"/></linearGradient></defs></svg>