<!-- by TradingView --><svg width="18" height="18" viewBox="0 0 18 18" xmlns="http://www.w3.org/2000/svg"><path fill="#F0F3FA" d="M0 0h18v18H0z"/><path d="M3.34 8C2.54 8 2 8.63 2 9.54 2 10.3 2.51 11 3.34 11c.63 0 1.19-.5 1.2-1.11h-.78s-.06.54-.42.54c-.4 0-.54-.57-.54-.99.01-.38.18-.89.54-.89.42 0 .42.45.42.45h.77c.02-.45-.44-1-1.19-1ZM7 8v.78h-.1c-.58 0-.58.67-.58.67V11H5.5V8h.75v.58C6.44 8 7 8 7 8ZM15.19 8l-.55 2.27L14.06 8h-.9l-.59 2.27L12.06 8h-.87l.91 3h.9l.59-2.22.57 2.22h.88L16 8h-.81Z" fill="#254639"/><path d="M9.3 5c-.52 1-1.58 3.21-1.57 3.96 0 .75.27 1.2.4 1.33-.28-.78-.45-2.4 1.18-2.57.42-.03 1.29.18 1.38 1.24l.02.63H8.73c-.01.25.08.68.58.7a.5.5 0 0 0 .54-.35h.77c0 .07-.02.22-.1.35.13-.15.4-.62.39-1.3 0-.78-.72-2.23-1.45-3.68L9.31 5Zm.12 3.33h-.2l-.1.03-.09.04-.07.05-.06.07-.04.09-.04.09-.03.09-.02.1V9h1.06v-.14l-.02-.07-.01-.07-.02-.07-.03-.07-.04-.07-.06-.06-.06-.05-.07-.03-.1-.03Z" fill="#C3472B"/></svg>