<!-- by TradingView --><svg xmlns="http://www.w3.org/2000/svg" width="18" height="18" viewBox="0 0 18 18"><path fill="url(#afoyxgms1)" d="M0 0h18v18H0z"/><path d="M6.76 5.28a1 1 0 0 1 .7-.28H12a1 1 0 0 1 1 1v4.54a1 1 0 0 1-.3.71l-1.46 1.46a1 1 0 0 1-.7.29H6a1 1 0 0 1-1-1V7.42a1 1 0 0 1 .3-.71l1.46-1.43zM12 6H7.46L6 7.42V12h4.53L12 10.54V6z" fill="#fff"/><defs><linearGradient id="afoyxgms1" x1="3.35" y1="3.12" x2="21.9" y2="24.43" gradientUnits="userSpaceOnUse"><stop stop-color="#1A1E21"/><stop offset="1" stop-color="#06060A"/></linearGradient></defs></svg>