<!-- by TradingView --><svg width="18" height="18" viewBox="0 0 18 18" fill="none" xmlns="http://www.w3.org/2000/svg">
<rect width="18" height="18" fill="#F0F3FA"/>
<path d="M6.14742 12C5.69897 12 5.28098 11.9502 4.89343 11.8065C4.51142 11.6572 4.17924 11.4471 3.89689 11.1762C3.61454 10.9053 3.39308 10.5875 3.23253 10.2226C3.07751 9.85773 3 9.45693 3 9.02019C3 8.58346 3.07751 8.18265 3.23253 7.81778C3.39308 7.45292 3.61454 7.13504 3.89689 6.86415C4.18478 6.59326 4.51973 6.38595 4.90174 6.24222C5.28375 6.09295 5.70174 6.01832 6.15572 6.01832C6.65953 6.01832 7.11351 6.10677 7.51766 6.28368C7.92735 6.45506 8.27061 6.70936 8.54742 7.04659L7.68375 7.84266C7.48444 7.616 7.26299 7.44739 7.01939 7.33682C6.77579 7.22073 6.51005 7.16268 6.22216 7.16268C5.95088 7.16268 5.70174 7.20691 5.47475 7.29536C5.24776 7.38381 5.05122 7.51096 4.88513 7.67681C4.71904 7.84266 4.58893 8.03892 4.49481 8.26558C4.40623 8.49224 4.36194 8.74378 4.36194 9.02019C4.36194 9.29661 4.40623 9.54815 4.49481 9.77481C4.58893 10.0015 4.71904 10.1977 4.88513 10.3636C5.05122 10.5294 5.24776 10.6566 5.47475 10.745C5.70174 10.8335 5.95088 10.8777 6.22216 10.8777C6.51005 10.8777 6.77579 10.8224 7.01939 10.7119C7.26299 10.5958 7.48444 10.4216 7.68375 10.1894L8.54742 10.9855C8.27061 11.3227 7.92735 11.5798 7.51766 11.7567C7.11351 11.9336 6.65676 12 6.14742 12Z" fill="black"/>
<path d="M12.5419 12C12.0823 12 11.6588 11.9281 11.2713 11.7844C10.8893 11.6351 10.5543 11.425 10.2664 11.1541C9.98407 10.8832 9.76261 10.5654 9.60206 10.2005C9.44704 9.83563 9.36953 9.43482 9.36953 8.99809C9.36953 8.56135 9.44704 8.16055 9.60206 7.79568C9.76261 7.43081 9.98683 7.11293 10.2747 6.84205C10.5626 6.57116 10.9003 6.36385 11.2879 6.22011C11.6754 6.07085 12.1017 5.99622 12.5668 5.99622C13.0817 5.99622 13.5439 6.0819 13.9536 6.25328C14.3689 6.42466 14.7176 6.67343 15 6.9996L14.1363 7.79568C13.9259 7.57455 13.6962 7.41146 13.4471 7.30642C13.1979 7.19586 12.9266 7.14057 12.6332 7.14057C12.3509 7.14057 12.0934 7.1848 11.8609 7.27325C11.6284 7.36171 11.4263 7.48886 11.2547 7.65471C11.0886 7.82056 10.9585 8.01681 10.8643 8.24347C10.7758 8.47013 10.7315 8.72167 10.7315 8.99809C10.7315 9.26897 10.7758 9.51775 10.8643 9.74441C10.9585 9.97107 11.0886 10.1701 11.2547 10.3415C11.4263 10.5073 11.6256 10.6345 11.8526 10.7229C12.0851 10.8114 12.3398 10.8556 12.6166 10.8556C12.8823 10.8556 13.1398 10.8141 13.3889 10.7312C13.6436 10.6428 13.89 10.4963 14.128 10.2917L15 11.2619C14.6844 11.4996 14.2083 11.6821 13.7875 11.8092C13.3723 11.9364 12.9571 12 12.5419 12ZM13.663 11.0878V9H15V11.2619L13.663 11.0878Z" fill="black"/>
</svg>
