<!-- by TradingView --><svg xmlns="http://www.w3.org/2000/svg" width="18" height="18" viewBox="0 0 18 18"><path fill="#F0F3FA" d="M0 0h18v18H0z"/><rect x="3" y="5" width="12" height="8" rx="4" fill="url(#auzxhuegl)"/><path d="M11.37 6.4c.24.03.43.12.54.26.33.44.21 1.2-.26 1.72-.1.1-.17.19-.17.2l.17.3c.31.52.53 1.04.68 1.66.05.18.1.38.14.45.05.11.06.12.14.12h.09v.44h-1.84v-.2c0-.23 0-.24.12-.24.04 0 .06-.02.06-.07 0-.25-.05-.51-.2-.95-.1-.3-.32-.83-.36-.87h-.08l-.05.04v.7c0 1 .02 1.15.19 1.15h.07v.44H8.95v-.44h.09l.01-.01h.06c.09-.05.09-.28.1-1.81V9.1c0-2.17 0-2.26-.18-2.28h-.08v-.45h1.07l1.35.02Zm-.93.53a.3.3 0 0 0-.07.04c-.08.06-.08.21-.08.92 0 .68 0 .8.02.8.04 0 .32-.2.4-.28.11-.11.23-.33.28-.48.12-.4.05-.85-.15-.99-.09-.05-.28-.06-.4-.01Z" fill="#020E16"/><path d="M11.15 6.3c.25.02.43.11.54.25.33.44.21 1.2-.26 1.72-.1.1-.17.19-.17.2l.17.3c.31.52.53 1.04.68 1.66.05.18.1.38.14.45.05.11.06.12.14.12h.09v.44h-1.84v-.2c0-.23 0-.24.12-.24.05 0 .06-.02.06-.07 0-.25-.05-.51-.2-.95-.1-.3-.32-.83-.36-.87l-.07.01-.06.03v.7c0 1 .03 1.15.19 1.15h.07v.44H8.74V11h.1l.06-.02c.1-.04.1-.27.1-1.8V9c.01-2.17 0-2.26-.18-2.28h-.08v-.45H9.8l1.35.02Zm-.93.52a.3.3 0 0 0-.07.04c-.08.06-.08.21-.08.92 0 .68 0 .8.02.8.04 0 .32-.2.4-.28.11-.11.23-.33.28-.48.12-.4.05-.85-.15-.99-.09-.05-.28-.06-.4-.01Z" fill="#C59F58"/><path d="m8.4 8.23-.11-.94-.11-.95h-.25c0 .05-.02.2-.09.2a.98.98 0 0 1-.15-.05 1.4 1.4 0 0 0-.7-.1c-1.15.16-1.47 1.75-1.44 2.7.03.8.3 1.5.75 2 .4.43.9.67 1.47.49l.12-.02c.08-.01.1 0 .14.06l.03.05h.09c.07 0 .09 0 .09-.02l.4-1.78v-.03h-.28l-.04.16c-.18.7-.37 1.04-.64 1.12-.77.24-1.15-1.9-1.14-2.5.02-.81.2-1.44.45-1.68.13-.12.28-.14.47-.04.4.2.56.8.65 1.21l.03.11.12.01h.13Z" fill="#020E16"/><path d="m8.17 8.17-.1-.95-.12-.94-.24-.01c-.01.05-.02.2-.09.2a.98.98 0 0 1-.15-.05 1.4 1.4 0 0 0-.7-.1c-1.16.16-1.48 1.75-1.44 2.7.03.8.3 1.51.75 2 .4.43.9.67 1.47.49l.11-.02c.1 0 .1 0 .15.06l.03.05h.08c.08 0 .1 0 .1-.02l.4-1.78v-.03l-.28.01-.04.15c-.18.71-.37 1.04-.64 1.13-.77.23-1.16-1.91-1.14-2.51.02-.8.19-1.43.45-1.67.13-.13.28-.14.47-.05.4.2.56.81.65 1.22l.03.1.12.01h.13Z" fill="#C59F58"/><defs><linearGradient id="auzxhuegl" x1="9" y1="5" x2="9" y2="13" gradientUnits="userSpaceOnUse"><stop stop-color="#154072"/><stop offset="1" stop-color="#127EC2"/></linearGradient></defs></svg>