<!-- by TradingView --><svg width="18" height="18" viewBox="0 0 18 18" xmlns="http://www.w3.org/2000/svg"><path fill="#F0F3FA" d="M0 0h18v18H0z"/><path fill-rule="evenodd" d="m8.45 5.57 1.23-1.06.07.09L8.58 5.6l.61.2 2.22-.75.04.1-2.08.7.93.3h2.27v.12h-1.93l3.1 1-.04.1-3.42-1.1H8.15l-.56.19-1 .87-.4.62-.3 1.13.03.63.54 1.28.88.97 2.4 1.43-.06.1-2.08-1.25 1.3 1.44-.09.07-1.54-1.7-.48-.29.7 1.65-.11.05-.76-1.8L6 11.3l.07 1.59h-.12l-.07-1.66-.46-.28-.21.84-.11-.03.22-.87-.82-.48.53-.83L4.49 9l.74-.64-.45-1.06.91-.3-.04-.83h.88l.29-1.13.9.3.52-.81.1.05-.5.79.61.2Zm-.1.09-.58-.2-.44.7h.43l.6-.5Zm-.71.62h-.38l-.15.23.42-.14.1-.1Zm-.34.29-.29.1L6.8 7l.51-.44Zm-.8.7.34-.55-.37.13-.14.56.16-.15Zm-.33.27.17-.65-.53.18.03.76.33-.29Zm-.32.43.27-.24-.04.2-.22.33-.01-.29Zm-.12-.05-.03-.81-.77.26.39.91.41-.36Zm-.37.47.38-.32.01.36-.22.35-.17-.39Zm-.09.08L4.65 9l.43.48.37-.58-.18-.43Zm.24.55-.35.55.38.42.14-.55-.17-.42Zm.25.6-.12.47.2.22-.03-.57-.05-.12Zm.18.42.01.4.28.3-.3-.7Zm.42 1.02-.4-.45.02.55.57.34-.19-.44Zm.35.54.3.17-.42-.46.12.29Zm-.84-.5-.03-.62-.24-.26-.16.62.43.25Zm-.53-.32.17-.66-.41-.45-.45.7.7.41Zm.44-1.7-.05.18-.15-.35.18-.28.02.44Zm.1-.39.1-.42-.11.19v.23Zm.4-1.08V7.6v.01Zm-.48-.66.57-.19.13-.48h-.73l.03.67Zm.82-.67-.12.44.43-.15.2-.3h-.51Zm.57-.11.47-.74-.76-.25-.26.99h.55Zm.94 0h-.2l.55-.47.53.17-.88.3Zm.35 0h1.45l-.74-.24-.7.24Z" fill="url(#aec1vgesz)"/><path d="M14 7.5a.5.5 0 1 1-1 0 .5.5 0 0 1 1 0ZM13.04 6.24a.5.5 0 1 1-1 0 .5.5 0 0 1 1 0ZM12.06 5.25a.5.5 0 1 1-1 0 .5.5 0 0 1 1 0ZM10.5 4.5a.5.5 0 1 1-1 0 .5.5 0 0 1 1 0ZM9 4.5a.5.5 0 1 1-1 0 .5.5 0 0 1 1 0ZM7.5 5a.5.5 0 1 1-1 0 .5.5 0 0 1 1 0ZM6 6a.5.5 0 1 1-1 0 .5.5 0 0 1 1 0ZM5.18 7.39a.5.5 0 1 1-1 0 .5.5 0 0 1 1 0ZM5 9a.5.5 0 1 1-1 0 .5.5 0 0 1 1 0Z" fill="#1A8C9A"/><path d="M5 10.5a.5.5 0 1 1-1 0 .5.5 0 0 1 1 0Z" fill="#589AAD"/><path d="M5.51 11.88a.5.5 0 1 1-1 0 .5.5 0 0 1 1 0Z" fill="#84ADB8"/><path d="M6.5 13a.5.5 0 1 1-1 0 .5.5 0 0 1 1 0Z" fill="#A9C4CB"/><circle cx="7.5" cy="13.5" r=".5" fill="#D5DDE6"/><path d="M8.88 8.54c-.2 0-.36.04-.51.1-.15.07-.28.17-.38.3-.1.12-.18.28-.23.46a2.1 2.1 0 0 0-.09.6c0 .3.05.57.13.78.1.22.22.39.4.5.18.12.4.18.67.18.17 0 .33-.02.5-.05.15-.03.31-.08.48-.13v.54A2.56 2.56 0 0 1 8.8 12c-.4 0-.74-.08-1.01-.25-.26-.16-.46-.4-.6-.7C7.06 10.76 7 10.4 7 10c0-.3.04-.56.12-.8.09-.25.2-.46.37-.64.16-.18.35-.32.58-.41.24-.1.5-.15.8-.15a2.58 2.58 0 0 1 1.13.25l-.23.53a3.36 3.36 0 0 0-.43-.17c-.15-.04-.3-.07-.46-.07ZM12.5 9a1.76 1.76 0 0 1 .3.03l-.05.58a1.43 1.43 0 0 0-.28-.03.9.9 0 0 0-.31.06.75.75 0 0 0-.45.44c-.04.1-.07.23-.07.38V12h-.62V9h.49l.08.57h.03c.06-.1.13-.2.22-.28.08-.09.18-.16.29-.21A.85.85 0 0 1 12.5 9ZM14 9v3h-.6V9h.6Z" fill="#687070"/><defs><linearGradient id="aec1vgesz" x1="6.57" y1="4.83" x2="9.56" y2="13.5" gradientUnits="userSpaceOnUse"><stop stop-color="#606565"/><stop offset="1" stop-color="#F1F3F5"/></linearGradient></defs></svg>