<!-- by TradingView --><svg width="18" height="18" viewBox="0 0 18 18" fill="none" xmlns="http://www.w3.org/2000/svg">
<rect width="18" height="18" fill="#F0F3FA"/>
<path d="M8.10509 11.6285C8.08024 11.6449 8.07263 11.6547 8.08227 11.6579C7.26669 11.8845 6.5069 11.9607 5.8029 11.8867C5.59596 11.8648 5.19426 11.779 4.59779 11.6291C4.55822 11.6191 4.54935 11.6298 4.57116 11.6613C4.82574 11.8093 4.92417 11.8354 5.12426 11.8867C6.67022 12.2855 8.20856 12.2807 9.7393 11.8724C9.80828 11.8541 9.87143 11.8491 9.92874 11.8573C9.96526 11.8623 9.96602 11.8701 9.93102 11.8806C8.31584 12.3725 6.84444 12.3348 5.2011 11.9874C5.18234 11.9838 5.17346 11.9906 5.17447 12.008C5.17498 12.0148 5.17524 12.0215 5.17524 12.0279C5.17574 12.0448 5.18487 12.056 5.20262 12.0614C6.94385 12.5812 8.70562 12.6785 10.4879 12.3533C11.0677 12.2471 11.5957 12.0703 12.1746 11.871C12.1924 11.865 12.2058 11.8689 12.215 11.8826C12.2167 11.8853 12.2178 11.8883 12.2181 11.8914C12.2184 11.8945 12.218 11.8977 12.2168 11.9006C12.2157 11.9036 12.2139 11.9064 12.2114 11.9087C12.209 11.911 12.2061 11.9129 12.2028 11.9141C10.0223 12.7678 7.82968 12.8164 5.54118 12.2594C5.53815 12.2588 5.53499 12.2587 5.53195 12.2594C5.52892 12.26 5.5261 12.2612 5.52373 12.2629C5.52135 12.2647 5.51949 12.2669 5.51829 12.2694C5.5171 12.2718 5.5166 12.2745 5.51684 12.2772C5.51734 12.2855 5.5176 12.293 5.5176 12.2998C5.5176 12.3049 5.52013 12.3083 5.52521 12.3101C8.36377 13.2288 11.9198 13.1206 14.5925 11.808C14.6026 11.8025 14.6107 11.8018 14.6168 11.8059C14.6259 11.8123 14.6257 11.818 14.6161 11.823C11.671 13.3967 7.2994 13.3576 4.34672 11.9135C2.9263 11.2188 1.5888 9.87533 2.11832 8.2962C2.68741 6.59924 4.90819 5.6367 6.73641 5.26469C8.67037 4.87077 11.0045 4.89201 12.9103 5.49488C12.9143 5.49597 12.9176 5.49843 12.9195 5.5017C12.9214 5.50498 12.9218 5.50881 12.9206 5.51235C12.9194 5.5159 12.9167 5.51886 12.913 5.52059C12.9094 5.52233 12.9051 5.52269 12.9012 5.5216C12.5254 5.43665 12.1252 5.33046 11.779 5.27497C9.59931 4.92489 7.57938 5.06944 5.54879 5.67095C5.53408 5.67552 5.53053 5.68374 5.53814 5.69561L5.5564 5.72302C5.55877 5.72674 5.56245 5.72964 5.56686 5.73125C5.57128 5.73287 5.57617 5.7331 5.58074 5.73192C7.70415 5.16878 10.3304 5.21194 12.3481 6.16284C12.3499 6.1635 12.3513 6.16474 12.3519 6.1663C12.3526 6.16785 12.3524 6.1696 12.3515 6.17114C12.3506 6.17268 12.349 6.1739 12.3471 6.17453C12.3452 6.17516 12.3431 6.17514 12.3413 6.17449C10.2977 5.35376 8.03738 5.2551 5.87898 5.73877C5.59939 5.80171 5.26079 5.91852 4.97743 6.00527C4.97264 6.00674 4.96865 6.0098 4.96629 6.01383C4.96393 6.01786 4.96338 6.02255 4.96474 6.02694C4.9661 6.03133 4.96928 6.03508 4.97363 6.03742C4.97797 6.03976 4.98314 6.04051 4.98808 6.03953C5.62791 5.91758 6.31644 5.76823 6.919 5.73672C8.31431 5.66204 10.0018 5.95115 11.1749 6.70338C11.1763 6.70405 11.1772 6.70513 11.1775 6.70637C11.1778 6.70762 11.1775 6.70893 11.1765 6.71002C11.1756 6.71111 11.1742 6.71189 11.1727 6.71219C11.1711 6.71248 11.1694 6.71227 11.1681 6.7116C9.43041 5.73809 7.36711 5.63464 5.4225 6.03473C5.15165 6.09022 4.77554 6.21005 4.62898 6.27383C4.6224 6.27577 4.61684 6.27982 4.61337 6.28522C4.6099 6.29062 4.60876 6.29698 4.61017 6.30309C4.61159 6.30919 4.61545 6.31462 4.62103 6.31832C4.6266 6.32202 4.63349 6.32374 4.64039 6.32315C4.94776 6.2889 5.2886 6.17038 5.53434 6.13818C6.79194 5.9717 8.26182 6.20395 9.33151 6.88903C9.33256 6.88993 9.33322 6.89114 9.33337 6.89245C9.33352 6.89375 9.33315 6.89505 9.33232 6.89613C9.3315 6.8972 9.33027 6.89798 9.32887 6.89831C9.32746 6.89864 9.32597 6.89851 9.32466 6.89794C7.83425 6.06693 6.18654 6.02551 4.52267 6.4345C4.44808 6.45284 4.29321 6.5184 4.20597 6.5965C4.16742 6.63076 4.17402 6.63989 4.22575 6.6239C5.30457 6.28479 6.39328 6.43071 7.36711 6.99728C7.36821 6.99825 7.36891 6.99952 7.3691 7.00089C7.36929 7.00226 7.36897 7.00365 7.36818 7.00484C7.36739 7.00603 7.36618 7.00694 7.36474 7.00743C7.36331 7.00792 7.36173 7.00797 7.36027 7.00755C6.06842 6.36768 4.39693 6.3485 3.18802 7.18431C1.82237 8.12835 1.80639 9.78626 3.14389 10.7666C4.35281 11.6524 6.13613 11.6634 7.43635 10.9297C7.43849 10.9285 7.44114 10.928 7.44373 10.9284C7.44631 10.9289 7.44862 10.9301 7.45013 10.9319C7.45164 10.9337 7.45224 10.936 7.4518 10.9381C7.45135 10.9403 7.4499 10.9422 7.44776 10.9434C6.59566 11.5709 5.22925 11.66 4.24021 11.3901C4.19152 11.3768 4.18644 11.3853 4.22499 11.4154C4.28991 11.467 4.36473 11.5045 4.44943 11.5278C5.23661 11.7488 6.039 11.8427 6.85661 11.8093C7.24919 11.7929 7.68741 11.6935 8.10509 11.6285Z" fill="#1798D4"/>
<path fill-rule="evenodd" clip-rule="evenodd" d="M15.9937 10.6113L14.9689 9.56719C14.9629 9.5611 14.9581 9.55384 14.9548 9.54587C14.9516 9.5379 14.9499 9.52941 14.95 9.52096C14.9501 9.51251 14.9518 9.50429 14.9552 9.49684C14.9586 9.48939 14.9635 9.48288 14.9696 9.47774C15.719 8.86505 15.6064 7.4782 14.6912 7.11407C14.4939 7.03597 14.1256 6.99797 13.5865 7.00008C12.9555 7.00219 12.3268 7.00219 11.7004 7.00008C11.693 7.00008 11.6858 7.00309 11.6805 7.00843C11.6753 7.01377 11.6723 7.02102 11.6723 7.02858V10.5923C11.6723 10.6255 11.688 10.6493 11.7195 10.6493L12.5937 10.6493C12.6257 10.6493 12.6416 10.6255 12.6416 10.5923L12.641 7.98561C12.641 7.95553 12.6538 7.93996 12.6827 7.9389C13.2158 7.91779 13.6932 7.92307 14.2263 7.95473C14.4173 7.96582 14.4934 8.05843 14.5291 8.24129C14.6042 8.63233 14.4646 8.83286 14.1085 8.84289H13.0325C13.0087 8.84289 12.9641 8.87746 12.9641 8.90226V9.61318C12.9641 9.62368 12.9681 9.63374 12.9752 9.64117C12.9824 9.64859 12.9921 9.65276 13.0021 9.65276L13.8695 9.65276C13.8949 9.65276 13.9162 9.66252 13.9334 9.68205L14.6851 10.6089C14.6935 10.6184 14.7036 10.626 14.7149 10.6311C14.7189 10.633 14.723 10.6358 14.7272 10.6387C14.7348 10.6439 14.7426 10.6493 14.7505 10.6493L15.9784 10.6493C15.9827 10.6493 15.9869 10.6481 15.9904 10.6457C15.994 10.6432 15.9968 10.6397 15.9984 10.6356C16.0001 10.6316 16.0005 10.6271 15.9996 10.6227C15.9988 10.6184 15.9967 10.6144 15.9937 10.6113ZM3.80747 10.5607C1.89785 10.1678 2.07195 7.03419 4.24177 7.00606C4.85751 6.99773 5.47934 6.99799 6.10726 7.00685C6.1316 7.00737 6.14377 7.02013 6.14377 7.04513L6.14606 7.87559C6.14606 7.90476 6.13186 7.9196 6.10345 7.92012C5.60893 7.92221 5.11694 7.92221 4.62749 7.92012C4.31404 7.91908 4.09848 7.93757 3.98081 7.97559C3.06404 8.27481 3.30522 9.66671 4.35741 9.65265L6.14751 9.65403C6.1678 9.65455 6.19189 9.66124 6.19189 9.68155V10.6157C6.19239 10.6376 6.18023 10.6488 6.15892 10.6493H4.24177C4.24177 10.6493 3.96046 10.6197 3.80747 10.5607ZM8.9207 9.25365C8.92475 9.26061 8.93049 9.26637 8.93736 9.27037C8.94422 9.27437 8.95198 9.27647 8.95988 9.27647C8.96777 9.27647 8.97553 9.27437 8.9824 9.27037C8.98927 9.26637 8.99501 9.26061 8.99906 9.25365L10.2567 7.05912C10.2664 7.04198 10.2804 7.02777 10.2972 7.0179C10.314 7.00803 10.3331 7.00285 10.3525 7.00287H11.2975C11.333 7.00287 11.3416 7.0185 11.3233 7.04975C10.7086 8.08568 10.0964 9.12162 9.48674 10.1576C9.19002 10.6607 8.82255 10.8974 8.45737 10.2786C7.84923 9.24688 7.21472 8.17136 6.55383 7.05209C6.55104 7.04712 6.54957 7.04149 6.54955 7.03576C6.54954 7.03002 6.55099 7.02438 6.55376 7.0194C6.55653 7.01442 6.56053 7.01028 6.56535 7.00738C6.57016 7.00447 6.57564 7.00292 6.58122 7.00287H7.57483C7.58989 7.00289 7.60468 7.00693 7.61776 7.01461C7.63083 7.02228 7.64173 7.03331 7.64939 7.04662L8.9207 9.25365Z" fill="#1A80C2"/>
<path d="M15.4122 7.94597C15.3113 7.5805 15.0708 7.2624 14.6947 7.11474C14.4974 7.03765 14.1291 6.99799 13.59 7.00008H11.7039C11.6965 7.00008 11.6893 7.0052 11.684 7.01048C11.6788 7.01575 11.6738 7.0229 11.6738 7.03036V8.80302C11.9925 8.74586 12.3521 8.68813 12.6411 8.63049V8.03697C12.6411 8.00728 12.6584 7.99635 12.6873 7.99531H14.2197C14.3984 8.00555 14.4866 8.03536 14.5252 8.19362C14.8717 8.10462 15.1686 8.02097 15.4122 7.94597Z" fill="#1798D4"/>
<path d="M10.1196 9.08587C10.5198 8.40781 10.9211 7.72975 11.3234 7.05169C11.3417 7.02044 11.3331 7.00187 11.2976 7.00187H10.3526C10.3332 7.00185 10.3141 7.00997 10.2973 7.01984C10.2805 7.02972 10.2665 7.04393 10.2568 7.06106L9.00985 9.23689C9.39186 9.18862 9.762 9.13807 10.1196 9.08587Z" fill="#1798D4"/>
<path d="M8.91681 9.24857L7.64951 7.04857C7.64185 7.03525 7.63094 7.02422 7.61787 7.01655C7.6048 7.00888 7.59 7.00189 7.57495 7.00187H6.58134C6.57575 7.00192 6.57028 7.00642 6.56546 7.00932C6.56064 7.01222 6.55665 7.01637 6.55388 7.02135C6.55111 7.02633 6.54965 7.03197 6.54967 7.0377C6.54968 7.04344 6.55116 7.04907 6.55395 7.05403C7.0217 7.84619 7.47624 8.61644 7.91757 9.36477C8.2588 9.32796 8.59202 9.2891 8.91681 9.24857Z" fill="#1798D4"/>
<path d="M4.17024 9.65571C3.34189 9.45714 3.1443 8.32023 3.98091 8.04718C4.09858 8.00916 4.31414 7.99606 4.6276 7.9971H6.14934C6.17774 7.99658 6.19195 7.97635 6.19195 7.94719L6.19205 7.04699C6.19205 7.022 6.17749 7.00239 6.15315 7.00187H4.24187C2.68291 7.02208 2.14216 8.65599 2.6908 9.71272C3.15611 9.70154 3.7213 9.67636 4.17024 9.65571Z" fill="#1798D4"/>
<rect x="8" y="11" width="7" height="0.666199" fill="#0F9D98"/>
</svg>
