<!-- by TradingView --><svg width="18" height="18" xmlns="http://www.w3.org/2000/svg"><path fill="#EE2E4F" d="M0 0h18v18H0z"/><path d="M10.667 7.503c-.376-.369-.867-.677-1.717-.677-1.4 0-2.262.946-2.262 2.25s1.144 2.149 2.262 2.149c.784 0 1.29-.178 1.717-.467l.194.817c-.32.287-.99.582-1.903.582-1.711 0-3.099-1.392-3.099-3.08a3.083 3.083 0 013.099-3.08c1.053 0 1.817.442 2.005.765l-.296.741z" fill="#fff"/><path d="M7.068 12.294a3.712 3.712 0 01-1.871-3.217 3.72 3.72 0 013.72-3.72 3.725 3.725 0 013.741 3.72h-.41a3.32 3.32 0 00-3.332-3.332 3.316 3.316 0 00-3.308 3.332 3.29 3.29 0 001.665 2.874l-.205.343z" fill="#fff"/><path d="M11.129 12.887a4.391 4.391 0 002.213-3.81c0-2.442-1.985-4.404-4.427-4.404a4.406 4.406 0 00-4.403 4.404h.387c0-2.236 1.803-4.039 4.016-4.039a4.03 4.03 0 014.038 4.039 4.035 4.035 0 01-2.007 3.49l.183.32z" fill="#fff"/><path d="M4.455 7.57a4.591 4.591 0 011.327-2.043 4.742 4.742 0 016.701.38 4.742 4.742 0 01-.379 6.7c-.63.563-1.394.94-2.179 1.09l.064.31a5.148 5.148 0 002.313-1.178c2.093-1.87 2.274-5.059.42-7.135-1.855-2.077-5.044-2.257-7.137-.388-.681.608-1.176 1.356-1.432 2.165l.302.098z" fill="#fff"/></svg>