<!-- by TradingView --><svg width="18" height="18" viewBox="0 0 18 18" xmlns="http://www.w3.org/2000/svg"><path fill="#F0F3FA" d="M0 0h18v18H0z"/><path d="M12.95 4.12a2.94 2.94 0 0 1-3.95 0v.01a2.94 2.94 0 0 1-3.95 0v6.09c0 2.08.8 2.53 2.24 3.34l.06.03c1.07.6 1.5 1.09 1.65 1.39v-.01c.14-.3.58-.78 1.66-1.39l.05-.03c1.44-.81 2.24-1.26 2.24-3.34V4.12Z" fill="#0000C8"/><path d="M13 4v6.2c0 1.06-.2 1.7-.6 2.2-.38.47-.94.8-1.66 1.2l-.06.03c-1.07.6-1.5 1.08-1.63 1.36h-.02l-.08.01c-.13-.28-.56-.76-1.63-1.36l-.06-.04c-.72-.4-1.28-.72-1.67-1.2-.39-.49-.59-1.13-.59-2.18V4l.09.08a2.9 2.9 0 0 0 3.86.01V4l.08.08a2.9 2.9 0 0 0 3.88 0L13 4Zm-4 .2a3 3 0 0 1-3.9.05v5.97c0 1.03.2 1.65.57 2.1.37.47.92.78 1.64 1.19l.06.03c.98.55 1.44 1 1.63 1.32.18-.32.65-.77 1.63-1.33l.06-.03c.72-.4 1.27-.72 1.64-1.18.37-.46.57-1.08.57-2.11V4.24A2.99 2.99 0 0 1 9 4.2Z"/><ellipse cx="9" cy="9.05" rx="3.43" ry="3.57" fill="#0000A0"/><ellipse cx="9" cy="9.05" rx="2.82" ry="2.98" fill="#00007C"/><ellipse cx="9" cy="9.05" rx="2.23" ry="2.36" fill="#00005B"/><ellipse cx="9" cy="9.05" rx="1.72" ry="1.82" fill="#00003F"/><ellipse cx="9" cy="9.05" rx="1.24" ry="1.31" fill="#000021"/><path fill-rule="evenodd" d="M6.71 10V8H11v2H6.7Zm-.28-2.1c0-.13.1-.22.22-.22h4.39c.12 0 .24.1.24.21v.44h.58v1.32h-.58v.44c0 .12-.12.22-.24.22h-4.4a.22.22 0 0 1-.21-.22V7.9Zm4.85 1.42h.3v-.66h-.3v.66Z" fill="#fff"/><path d="m7.39 9.41 2.28-3.8-.82 2.95h1.45L7.95 12.4l.81-2.99H7.4Z" fill="#fff"/></svg>