<!-- by TradingView --><svg xmlns="http://www.w3.org/2000/svg" width="18" height="18" viewBox="0 0 18 18"><path fill="#F0F3FA" d="M0 0h18v18H0z"/><path d="M5.14 4.87A5 5 0 0 1 7.96 4C8 4 8 4.04 8 4.05v2.64s0 .05-.04.05a4.73 4.73 0 0 0-3.48 1.41C4.16 7.75 4 7.3 4 6.83c0-.74.4-1.43 1.14-1.96ZM4 9.74V7.63c.53 1.27 2.26 2.2 4.32 2.2 2 0 3.77-.9 4.31-2.19v1.94c-.17.17-.37.32-.58.46a7.26 7.26 0 0 1-3.74 1.04c-.12.01-.31.1-.31.23v1.25c-2.34-.03-4-1.28-4-2.82Z" fill="#0589D3"/><path d="M8.37 11.27c-.03 0-.05.02-.05.04v2.64c0 .04.03.05.04.05a7.1 7.1 0 0 0 3.71-1.04A3.87 3.87 0 0 0 14 9.74V7.9c-.29.9-.93 1.7-1.85 2.3a7.3 7.3 0 0 1-3.78 1.07Z" fill="#01C2BD"/></svg>