<!-- by TradingView --><svg xmlns="http://www.w3.org/2000/svg" width="18" height="18" viewBox="0 0 18 18"><path fill="#F0F3FA" d="M0 0h18v18H0z"/><path d="M6.93 8.63c2.33-3.77 5.7-4.28 6.5-3 .68 1.07-.14 3.12-1.4 4.5-2.44 2.66-5.43 3.2-6.74 2.5-.44-.24-.8-.6-1.02-1.06a2.6 2.6 0 0 1-.25-1.48C4.18 8.16 5.92 6.7 7.4 5.9a5.98 5.98 0 0 0-2.32 3.03c-.22.7-.08 1.93.72 2.36 1.66.85 4.3-.52 5.67-1.77 1.62-1.49 2.25-2.82 1.76-3.65-.5-.83-3.36-.54-6.3 2.76z" fill="url(#a1lqpfujc)"/><path d="M6.93 8.63c2.49-2.79 4.94-3.4 5.91-3.06l.41-.18c-1.06-.95-4.15-.28-6.32 3.24z" fill="url(#b1lqpfujc)"/><path d="M11.75 9.39c-.87-.89-2-1.42-3.21-1.5l-.28.27-.25.23-.03.03h.1c1.22.08 2.37.56 3.3 1.4 1.04.88 1.92 1.96 2.6 3.18H14a10.91 10.91 0 0 0-2.25-3.61z" fill="#0464A0"/><defs><linearGradient id="a1lqpfujc" x1="4.82" y1="12.62" x2="12.59" y2="5.63" gradientUnits="userSpaceOnUse"><stop offset=".23" stop-color="#69C130"/><stop offset=".32" stop-color="#65C037"/><stop offset=".44" stop-color="#5BBE4A"/><stop offset=".58" stop-color="#49BB6A"/><stop offset=".74" stop-color="#31B696"/><stop offset=".91" stop-color="#12B0CD"/><stop offset="1" stop-color="#00ADEE"/></linearGradient><linearGradient id="b1lqpfujc" x1="8.2" y1="7.22" x2="12.28" y2="5.47" gradientUnits="userSpaceOnUse"><stop offset=".23" stop-color="#0464A0"/><stop offset=".38" stop-color="#046AA7"/><stop offset=".6" stop-color="#037CBA"/><stop offset=".86" stop-color="#019AD9"/><stop offset="1" stop-color="#00ADEE"/></linearGradient></defs></svg>