<!-- by TradingView --><svg width="18" height="18" viewBox="0 0 18 18" xmlns="http://www.w3.org/2000/svg"><path fill="#F0F3FA" d="M0 0h18v18H0z"/><path d="M10.68 9.44c.07.11.23.14.35.05l2.58-2.44a.25.25 0 0 1 .13-.05c.13 0 .26.1.26.23v5.52c0 .2-.25.32-.4.19A6.73 6.73 0 0 0 9 11.18a6.68 6.68 0 0 0-4.6 1.76c-.17.13-.4.04-.4-.19V7.23c0-.13.1-.22.22-.23.05 0 .12.01.17.05l2.58 2.44c.12.09.26.06.35-.05l1.52-2.35c.1-.12.25-.12.32 0" fill="#0A9AD7"/><path d="M4 7a1 1 0 1 0 0-2 1 1 0 0 0 0 2Zm10 0a1 1 0 1 0 0-2 1 1 0 0 0 0 2ZM9 7a1 1 0 1 0 0-2 1 1 0 0 0 0 2Z" fill="#26588C"/></svg>