<!-- by TradingView --><svg width="18" height="18" viewBox="0 0 18 18" xmlns="http://www.w3.org/2000/svg"><path fill="#F0F3FA" d="M0 0h18v18H0z"/><path d="M6.1 7.64h.87c.13 0 .25-.06.32-.16l.83-1.24c.07-.1-.01-.24-.16-.24H5.18a.38.38 0 0 0-.32.16L3.05 8.84a.28.28 0 0 0 0 .32l1.81 2.68c.07.1.2.16.32.16h3.34c.14 0 .23-.13.15-.24l-.83-1.24a.38.38 0 0 0-.31-.16H6.1a.38.38 0 0 1-.32-.16l-.72-1.05a.28.28 0 0 1 0-.3l.72-1.05c.06-.1.18-.16.32-.16Z" fill="#2B42E7"/><path d="M7.82 7.62 8.7 6.1a.18.18 0 0 1 .32 0l.87 1.53c.03.06.03.12 0 .17L9 9.2a.18.18 0 0 1-.3 0l-.87-1.4a.17.17 0 0 1 0-.17ZM9.66 11.91l-.64-1.16a.17.17 0 0 1 0-.16l2.63-4.5a.17.17 0 0 1 .29 0l.64 1.16c.03.05.03.11 0 .16l-2.63 4.5a.17.17 0 0 1-.29 0ZM12.06 11.91l-.64-1.16a.17.17 0 0 1 0-.16l2.63-4.5a.17.17 0 0 1 .29 0l.64 1.16c.03.05.03.11 0 .16l-2.63 4.5a.17.17 0 0 1-.29 0Z"/></svg>