<!-- by TradingView --><svg width="18" height="18" viewBox="0 0 18 18" fill="none" xmlns="http://www.w3.org/2000/svg">
<rect width="18" height="18" fill="#003662"/>
<circle cx="9" cy="9" r="9" fill="#003662"/>
<path d="M12.76 10.8506C13.3203 11.0338 13.8806 11.278 14.4999 11.6444C12.9959 9.07975 10.3418 6.30137 7.7171 4.5C8.39539 5.20223 9.48654 6.72881 9.78145 8.34699C10.8431 9.14081 11.8458 9.9957 12.76 10.8506Z" fill="white"/>
<path d="M12.7601 10.8513C11.4625 10.4239 10.3713 10.3933 9.57507 10.4849C9.86998 9.7827 9.89947 9.04994 9.78151 8.34771C7.80563 6.88219 5.59383 5.59986 3.5 4.65338C5.03351 5.72199 6.74397 8.86675 7.45175 12.2252C8.98526 11.7673 11.315 11.4314 14.3526 12.5C13.8512 11.9505 13.3204 11.4009 12.7601 10.8513Z" fill="white"/>
</svg>
