<!-- by TradingView --><svg width="18" height="18" viewBox="0 0 18 18" xmlns="http://www.w3.org/2000/svg"><path fill="#F0F3FA" d="M0 0h18v18H0z"/><path d="M3.3 7.62c-.48 0-1-.09-1.24-.14-.03 0-.05.02-.06.06 0 .03 0 .06.02.07l.11.1c-.02.04 0 .2.2.5s.68.27.9.22c-.05.02-.12.1-.12.28 0 .2.42.2.62.17a.33.33 0 0 0 0 .3c.07.12.3.06.41.01.02.17.05.45.27.45.18 0 .37-.15.44-.22.1.33.18.38.3.38.1 0 .19-.07.22-.1.03.07.13.23.26.23.14 0 .24-.1.27-.14.03.12.12.37.26.37.15 0 .24-.12.27-.18.03.13.13.4.29.4.16 0 .27-.2.31-.3.03.1.14.32.28.32.15 0 .25-.15.28-.22 0 .05.07.16.22.16.16 0 .26-.09.3-.14l-.42.74c-.05.11-.03.17-.01.18l.15.22c.04.06.08.03.1 0 .03-.1.1-.3.14-.32.03-.03.04.03.03.06l-.11.25a.18.18 0 0 0-.02.16c.04.06.13.19.18.22.05.04.1 0 .11-.03l.1-.28c.02-.02.04-.08.06-.06a8.53 8.53 0 0 0-.1.36c-.02.08 0 .13 0 .14l.19.1c.08.02.12-.01.12-.03l.03-.4c.01-.03.02-.05.04-.05s.02.04.02.06c-.01.06-.03.2-.03.32 0 .14.1.16.22.16.1 0 .12-.07.12-.1v-.34c0-.05-.02-.06.02-.06.03 0 .03.03.03.05v.26c0 .05-.02.19.06.19s.09-.01.18-.04c.08-.03.08-.1.08-.13l-.06-.3c0-.02-.03-.1 0-.11l.03.05c.01.08.05.25.08.33.02.09.08.07.1.06.04-.03.12-.1.17-.12.05-.03.03-.1.01-.13l-.12-.27c0-.02-.01-.07 0-.07.03 0 .04.03.05.05l.12.26c.02.07.08.05.1.04l.12-.15c.04-.05.01-.1 0-.13l-.17-.26c0-.02-.03-.06-.02-.07l.05.02.17.26c.04.06.09.03.1 0 .02-.03.07-.1.1-.19a.25.25 0 0 0 0-.19l-.35-.7c.29.24.49.1.55 0 .3.37.49.08.54-.1.38.53.56.13.6-.13.37.38.51.04.54-.19.27.27.47.05.53-.1.34.27.49-.08.52-.28.59.47.72.06.7-.2.48.16.5-.14.44-.31.78.04.66-.3.5-.47.81.14 1.06-.42 1.09-.72l.09-.1a.08.08 0 0 0 .02-.05c0-.05-.03-.08-.06-.07-.17.05-.56.13-1.2.13-.75 0-1.85-.3-2.31-.45a1.5 1.5 0 0 0-.78-.17c-.52 0-1.07.7-1.34 1.13-.22.35-.53.36-.66.33H8.3c-.4.07-.77-.56-1.14-1C6.8 7 6.43 7 6.27 7c-.16 0-.32.02-.72.17-.4.16-1.61.45-2.25.45Z" fill="#521729"/><path d="M4.9 7.76c-.39.04-1.72.08-2.34.1v.05h1.29c.38-.01 2.26-.18 2.56-.18.3 0 .73.67.9.95.18.28.47.48.67.53.16.04.16.24.14.34h.05c.05-.32-.04-.4-.27-.48-.23-.09-.35-.3-.58-.61-.23-.32-.65-.82-.91-.82s-1 .06-1.5.12ZM13.05 7.76c.4.04 1.73.08 2.34.1v.05h-1.28c-.39-.01-2.26-.18-2.56-.18-.3 0-.74.67-.91.95-.18.28-.46.48-.66.53-.16.04-.16.24-.14.34h-.05c-.05-.32.04-.4.26-.48.23-.09.36-.3.59-.61.22-.32.64-.82.9-.82.27 0 1.01.06 1.5.12ZM8.96 8.92a.73.73 0 0 1-.68-.47c.13-.05.2-.48.23-.68-.17-.12-.3-.11-.36-.1-.02-.36.15-.4.27-.4.12 0 .14-.12.17-.15s.03-.08.35-.08c.33 0 .28.34.41.8.1.36.26.56.32.61a.77.77 0 0 1-.7.47Z" fill="#802B4C"/></svg>