<!-- by TradingView --><svg width="18" height="18" xmlns="http://www.w3.org/2000/svg"><path fill="#F0F3FA" d="M0 0h18v18H0z"/><path d="M10.031 8.773C8.51 9.788 9.002 11.347 9.438 12h.593c-.248-1.017-.235-1.823.689-2.423.924-.6 2.246-.138 2.784.15L14 9.2c-.69-.565-2.448-1.44-3.969-.427zM6.818 11H3c.203.599.785.916 1.05 1H8c-.345-.705-.932-.96-1.182-1z" fill="#D00412"/><path d="M7.636 9.072L4.462 7.565c-.165.66.142 1.199.316 1.385l3.283 1.56c.106-.821-.239-1.3-.425-1.438z" fill="#EB6100"/><path d="M9.082 7.39L6.836 5.183c-.424.573-.37 1.152-.29 1.37L8.87 8.837c.436-.737.323-1.271.212-1.446z" fill="#FCC902"/><path d="M11.175 6.81L10.45 4c-.624.29-.865.794-.908 1.01l.75 2.905c.715-.42.886-.912.883-1.106z" fill="#EB6100"/><path d="M13.755 7.067l.19-2.487c-.672.09-1.052.447-1.158.615l-.197 2.572c.797-.175 1.109-.54 1.165-.7z" fill="#D00412"/></svg>