<!-- by TradingView --><svg width="18" height="18" viewBox="0 0 18 18" xmlns="http://www.w3.org/2000/svg"><path fill="#F0F3FA" d="M0 0h18v18H0z"/><path d="M12.36 13A3.97 3.97 0 0 1 9 10.98l.92-1 .62.74c.24.27 1.04.82 1.92.82 1.76 0 2.27-1.74 2.2-2.62 0-1.66-1.51-2.46-2.31-2.46V5.01c2.07 0 3.65 2.01 3.65 3.91 0 1.9-1.38 4.08-3.64 4.08Z" fill="url(#aly1alyzl)"/><path d="M11.55 6.68c.42-.23.56-.24.82-.24V5c-1.4 0-2.34.84-2.82 1.34-.82.84-2.53 2.63-2.87 3.09-.34.45-.74.66-.94.66-.93 0-1.12-.8-1.11-1.23H3.4a2.48 2.48 0 0 0 2.34 2.82c.74 0 1.46-.63 1.73-.94.7-.8 2.17-2.47 2.46-2.75a9.19 9.19 0 0 1 1.62-1.31Z" fill="url(#bly1alyzl)"/><path d="M6.45 11.32c-.42.23-.56.23-.82.23V13c1.4 0 2.34-.84 2.82-1.34.82-.84 2.53-2.63 2.87-3.09.34-.45.77-.66.94-.7.93 0 1.14.85 1.13 1.27h1.3c0-2.08-1.5-2.82-2.43-2.82-.74 0-1.46.63-1.73.94-.7.8-2.17 2.47-2.46 2.75a9.18 9.18 0 0 1-1.62 1.31Z" fill="url(#cly1alyzl)"/><path d="M5.64 5c1.82 0 2.9 1.24 3.31 1.95l-.93.99-.56-.66a2.4 2.4 0 0 0-1.74-.81c-2 0-2.32 1.73-2.32 2.6a2.46 2.46 0 0 0 2.25 2.48V13C3.58 13 2 10.98 2 9.08S3.38 5 5.64 5Z" fill="url(#dly1alyzl)"/><path d="M4.62 8.86H3.4c0-.98.57-2.4 2.22-2.4 1.32 0 2.15.99 2.4 1.48l-.95 1.03-.47-.57a1.32 1.32 0 0 0-.87-.54c-.9 0-1.1.67-1.1 1Z" fill="url(#ely1alyzl)"/><path d="m10.93 9.04-.94 1.02c.29.47 1.16 1.44 2.38 1.49 1.9 0 2.34-1.61 2.32-2.41h-1.3c0 .5-.63.96-1.02.96-.32 0-.63-.16-.73-.25l-.71-.81Z" fill="url(#fly1alyzl)"/><defs><linearGradient id="aly1alyzl" x1="14.85" y1="9.01" x2="11.15" y2="7.65" gradientUnits="userSpaceOnUse"><stop stop-color="#C59A3E"/><stop offset="1" stop-color="#D9BC7D"/></linearGradient><linearGradient id="bly1alyzl" x1="12.37" y1="5.52" x2="4.28" y2="5.46" gradientUnits="userSpaceOnUse"><stop stop-color="#D7B874"/><stop offset=".8" stop-color="#E7D5AD"/><stop offset="1" stop-color="#D9C080"/></linearGradient><linearGradient id="cly1alyzl" x1="5.7" y1="12.28" x2="14.01" y2="12.28" gradientUnits="userSpaceOnUse"><stop offset=".03" stop-color="#D8BB7C"/><stop offset=".12" stop-color="#E9DAB1"/><stop offset=".46" stop-color="#F6EFDD"/><stop offset=".76" stop-color="#DBC188"/><stop offset="1" stop-color="#C9A44C"/></linearGradient><linearGradient id="dly1alyzl" x1="3.15" y1="8.99" x2="6.85" y2="10.35" gradientUnits="userSpaceOnUse"><stop stop-color="#C59A3E"/><stop offset="1" stop-color="#D9BC7D"/></linearGradient><linearGradient id="ely1alyzl" x1="4.02" y1="8.45" x2="7.67" y2="8.97" gradientUnits="userSpaceOnUse"><stop stop-color="#DAC080"/><stop offset="1" stop-color="#CAA453"/></linearGradient><linearGradient id="fly1alyzl" x1="10.07" y1="10.14" x2="14.19" y2="10.06" gradientUnits="userSpaceOnUse"><stop stop-color="#D2B372"/><stop offset="1" stop-color="#CAA44C"/></linearGradient></defs></svg>