<!-- by TradingView --><svg width="18" height="18" viewBox="0 0 18 18" xmlns="http://www.w3.org/2000/svg"><path fill="#F0F3FA" d="M0 0h18v18H0z"/><path d="M6.5 9.67h.98v.13c0 .18.12.37.26.37h1.49c.1 0 .3-.1.3-.36 0-.31-.14-.31-.3-.31H7.67c-.24 0-.75-.1-.89-.28-.17-.23-.27-.45-.27-.97 0-.53.09-.8.33-1 .24-.22.91-.25 1.6-.25h.3c.58 0 1.14-.01 1.4.24.23.22.23.75.23 1.03v.06h-1c0-.13-.06-.5-.3-.5H7.76c-.1.02-.3.14-.3.36 0 .27.12.31.33.31h1.63c.2 0 .64.09.85.3.2.23.24.72.24.94.01.28-.04.88-.36 1.04-.4.19-1.01.21-1.67.21h-.3c-.57.02-1.19.03-1.47-.28-.18-.12-.2-.73-.2-1.04ZM2 8.94c0-.37.05-1.2.26-1.52C2.53 7.02 2.97 7 4 7h.16c.9 0 1.3 0 1.57.25.28.26.28.9.28 1.08H5v-.08C5 8.08 4.89 8 4.76 8H3.3c-.18 0-.3.13-.3.36v1.22c0 .22.12.42.3.42h1.46c.13 0 .24-.15.24-.31v-.02h1v.31c0 .24-.07.75-.37.86A5.33 5.33 0 0 1 4.1 11c-.38 0-1.52.03-1.8-.34C2 10.26 2 9.35 2 8.94ZM11 7v1h2.71c.1-.03.28.02.28.47 0 .44-.18.53-.28.53H11v2h1v-1h1.92C14.98 10 15 9.07 15 8.59v-.03V11h1V8.5h-1v.06C15 7.3 14.64 7 13.92 7H11Z" fill="#3F3A36"/><path d="M15 7h1v1h-1V7Z" fill="#77BD20"/></svg>