<!-- by TradingView --><svg xmlns="http://www.w3.org/2000/svg" width="18" height="18" viewBox="0 0 18 18"><path fill="#EC2127" d="M0 0h18v18H0z"/><path d="M12.77 8.63c.4 0 .89 0 .89-.43 0-.38-.66-.36-.87-.36h-.04v-.83h.23c.35-.01.72-.02 1.03.07.99.28 1 1.3.62 1.75-.21.26-.37.32-.61.4l-.09.03.18.29L15 11h-1.4l-.3-.47c-.2-.3-.39-.6-.55-.9v-1h.02ZM8.5 8H9V7h-.55c-.43 0-1.08.26-1.28.64-.24.47-.17.96.16 1.3.35.37 1.02.52 1.51.63h.04c.12.04.21.09.19.24-.03.2-.27.2-.48.2a4 4 0 0 0-.1 0V11c.5 0 1-.09 1.39-.32.32-.2.61-.66.51-1.2-.08-.44-.51-.69-.93-.82l-.38-.11c-.26-.07-.54-.15-.63-.2-.17-.09-.15-.32.05-.35Zm-2.25 2.8V9.76c-.46.16-1.41.49-1.9-.21-.18-.27-.2-.64-.06-.98.1-.24.36-.53.7-.56V7c-.65 0-1.23.35-1.57.8-.97 1.27-.22 3.26 1.83 3.2.28-.02.8-.09 1-.2ZM11 7.88h.36V11H12.43V7.02H11v.86Zm-.75.13h-1v-.99h1v1Zm-2.97 3h.97v-1h-.97v1ZM6.25 8h-1V7h1v1Z" fill="#FDFDFD"/></svg>