<!-- by TradingView --><svg width="18" height="18" viewBox="0 0 18 18" xmlns="http://www.w3.org/2000/svg"><path fill="#F0F3FA" d="M0 0h18v18H0z"/><path d="M15 5H9.74c-1.8-.08-5.48.72-5.74 4.65-.06 1.3.74 3.97 4.46 4.35a7 7 0 0 0 1.86-.25c-1.7.05-5.11-.7-5.15-4.1-.07-1.25.7-3.81 4.35-4.05h3.26c.46 0 1.54-.11 2.22-.6Zm-1.73 4.76c-.1-3.1-3.18-3.49-4.58-3.19 1.08.14 3.16.61 3.18 3.05 0 2.45-1.95 2.97-2.93 2.93.49.22.98.34 1.39.3a3.1 3.1 0 0 0 2.94-3.09Zm-6.62-.08C6.7 7.69 8.9 7.44 9.9 7.64c-.77.09-2.25.39-2.26 1.95 0 1.57 1.38 1.9 2.08 1.88-.35.14-.7.22-.99.2-1.67-.13-2.1-1.42-2.08-1.99Z" fill="#F58026"/></svg>