<!-- by TradingView --><svg xmlns="http://www.w3.org/2000/svg" width="18" height="18"><path fill="#F0F3FA" d="M0 0h18v18H0z"/><path d="M3.94 11a1.9 1.9 0 001.42-.65l-.42-.4c-.25.3-.62.5-1.03.5-.76 0-1.36-.64-1.36-1.45 0-.81.6-1.45 1.36-1.45.35 0 .67.14.9.37l.48-.35A1.9 1.9 0 003.94 7C2.87 7 2 7.9 2 9s.87 2 1.94 2zM8.6 7.45c-.1-.14-.45-.44-1.02-.45-.7-.02-1.3.46-1.3 1.11.01.65.54.99.98 1.13l.18.06c.36.1.67.2.7.61.02.48-.52.56-.75.56-.24 0-.66-.1-.85-.4l-.33.4c.09.17.46.5 1.18.53.9.03 1.27-.67 1.26-1.09 0-.42-.19-.84-.9-1.08-.72-.24-.9-.36-.92-.72-.03-.35.27-.6.75-.6.42 0 .59.23.64.33l.38-.39zM12.49 7H9.37v.54h1.29V11h.57V7.54h1.26V7zm1.06 0h.6v3.43H16V11h-2.45V7z" fill="#084E8B"/></svg>