<!-- by TradingView --><svg width="18" height="18" viewBox="0 0 18 18" xmlns="http://www.w3.org/2000/svg"><path fill="#F0F3FA" d="M0 0h18v18H0z"/><path d="M7.22 3.94A11.62 11.62 0 0 0 3 9c.18.45.4.88.64 1.29a15.39 15.39 0 0 1 4.9-5.59c-.43-.27-.87-.53-1.32-.76M10.78 14.06A11.66 11.66 0 0 0 15 9c-.18-.44-.4-.88-.64-1.29a15.39 15.39 0 0 1-4.9 5.59c.43.27.87.53 1.32.76Z" fill="#62A043"/><path d="M3.94 10.78A11.63 11.63 0 0 0 9 15c.44-.18.87-.4 1.29-.64a15.4 15.4 0 0 1-5.59-4.9c-.27.43-.53.87-.76 1.32M14.06 7.22A11.6 11.6 0 0 0 9 3c-.44.18-.88.4-1.29.64a15.38 15.38 0 0 1 5.59 4.9c.27-.43.53-.87.76-1.31" fill="#655C59"/><path d="M6.7 9.24c-.3.3-.54.56-.74.78A16.4 16.4 0 0 0 9 12.87c.24-.17.47-.35.7-.54a24.15 24.15 0 0 1-3-3.1Z" fill="#62A043"/><path d="m9.24 11.3.78.75A16.42 16.42 0 0 0 12.87 9a16.5 16.5 0 0 0-.55-.7 24.17 24.17 0 0 1-3.08 3Z" fill="#655C59"/><path d="m11.3 8.76.75-.78A16.43 16.43 0 0 0 9 5.13c-.24.17-.47.36-.7.54 1.1.94 2.1 1.98 3 3.1" fill="#62A043"/><path d="m8.76 6.7-.78-.75A16.45 16.45 0 0 0 5.13 9c.17.24.35.47.54.7.94-1.1 1.98-2.1 3.1-3Z" fill="#655C59"/></svg>