<!-- by TradingView --><svg xmlns="http://www.w3.org/2000/svg" width="18" height="18" viewBox="0 0 18 18"><path fill="#F2D4D6" d="M0 0h18v18H0z"/><path d="M10.95 11.6a2.66 2.66 0 0 0 .64-.01 2.78 2.78 0 0 0 0-.6v-.04-.07h-.01a2.65 2.65 0 0 0-1.23-1.86l-.91.27c.64.18 1.38.78 1.52 1.67a2.13 2.13 0 0 1-1.67-1.52l-.27.91c.4.64 1.08 1.14 1.93 1.24zm-3.9-.64c.13-.9.87-1.49 1.51-1.67l-.91-.27a2.64 2.64 0 0 0-1.23 1.86v.07H6.4V11a2.65 2.65 0 0 0 0 .59 2.75 2.75 0 0 0 .64 0c.85-.1 1.53-.6 1.93-1.24l-.27-.91a2.13 2.13 0 0 1-1.67 1.52zm2.61-5.33a1.97 1.97 0 0 1 3.1-.4h.01a1.98 1.98 0 0 1-.4 3.1 1.8 1.8 0 0 1 .46.46 2.6 2.6 0 0 0 .4-4.02 2.6 2.6 0 0 0-4.02.4 1.8 1.8 0 0 1 .45.46zM4.78 8.47c.12.12.25.23.39.32a1.79 1.79 0 0 1 .46-.45 1.98 1.98 0 0 1-.4-3.11 1.97 1.97 0 0 1 3.1.4 1.79 1.79 0 0 1 .46-.46 2.64 2.64 0 0 0-4.02-.4 2.6 2.6 0 0 0 .01 3.7z" fill="#212322"/><path d="M13.22 9.53a2.65 2.65 0 0 0-.39-.32 1.79 1.79 0 0 1-.46.45 1.98 1.98 0 0 1 .4 3.11 1.97 1.97 0 0 1-3.1-.4 1.8 1.8 0 0 1-.46.46 2.6 2.6 0 0 0 4.02.4 2.6 2.6 0 0 0-.01-3.7zM8.34 12.37a1.97 1.97 0 0 1-3.1.4h-.01a1.98 1.98 0 0 1 .4-3.1 1.8 1.8 0 0 1-.46-.46 2.6 2.6 0 0 0-.4 4.02 2.6 2.6 0 0 0 4.02-.4 1.8 1.8 0 0 1-.45-.46zM10.96 7.04c-.14.9-.88 1.49-1.52 1.67l.91.27a2.64 2.64 0 0 0 1.23-1.86v-.07h.01V7a2.64 2.64 0 0 0 0-.59 2.76 2.76 0 0 0-.64 0c-.85.1-1.53.6-1.93 1.24l.27.91c.18-.64.78-1.39 1.67-1.52zM7.05 6.4a2.66 2.66 0 0 0-.64.01 2.77 2.77 0 0 0 0 .6V7.11h.01c.12.82.6 1.48 1.23 1.86l.91-.27a2.13 2.13 0 0 1-1.52-1.67c.9.13 1.49.88 1.67 1.52l.27-.91A2.64 2.64 0 0 0 7.05 6.4z" fill="#212322"/></svg>