<!-- by TradingView --><svg xmlns="http://www.w3.org/2000/svg" width="18" height="18"><path fill="#F0F3FA" d="M0 0h18v18H0z"/><ellipse cx="10.55" cy="5.57" rx="1.63" ry="1.57" fill="url(#adimdjnsi)"/><ellipse cx="7.01" cy="6.78" rx="1.4" ry="1.47" fill="url(#bdimdjnsi)"/><ellipse rx="1.14" ry="1.41" transform="matrix(.97964 -.20077 .22561 .97422 5.44 9.66)" fill="url(#cdimdjnsi)"/><ellipse rx=".97" ry="1.27" transform="matrix(.9101 -.41437 .4575 .88921 6.99 12.34)" fill="url(#ddimdjnsi)"/><ellipse rx=".82" ry=".99" transform="matrix(.77216 -.63543 .68097 .73231 9.53 13.13)" fill="url(#edimdjnsi)"/><ellipse rx=".69" ry=".84" transform="matrix(.95197 -.3062 .3416 .93985 11.26 12.34)" fill="url(#fdimdjnsi)"/><ellipse rx=".5" ry=".66" transform="matrix(.99426 .10696 -.12068 .9927 12.4 10.99)" fill="url(#gdimdjnsi)"/><ellipse rx=".6" ry=".51" transform="matrix(.7085 .70571 -.73423 .6789 11.8 9.68)" fill="url(#hdimdjnsi)"/><defs><linearGradient id="adimdjnsi" x1="11.02" y1="5.1" x2="9.37" y2="6.65" gradientUnits="userSpaceOnUse"><stop stop-color="#63297A"/><stop offset="1" stop-color="#8B2680"/></linearGradient><linearGradient id="bdimdjnsi" x1="7.01" y1="5.31" x2="6.36" y2="8.04" gradientUnits="userSpaceOnUse"><stop stop-color="#452B7D"/><stop offset="1" stop-color="#4C2B7E"/></linearGradient><linearGradient id="cdimdjnsi" x1="1.14" y1="0" x2="1.14" y2="2.82" gradientUnits="userSpaceOnUse"><stop offset=".08" stop-color="#2A2A82"/><stop offset="1" stop-color="#4476BA"/></linearGradient><linearGradient id="ddimdjnsi" x1=".97" y1="0" x2=".97" y2="2.53" gradientUnits="userSpaceOnUse"><stop stop-color="#287755"/><stop offset="1" stop-color="#45A547"/></linearGradient><linearGradient id="edimdjnsi" x1=".82" y1="0" x2=".82" y2="1.98" gradientUnits="userSpaceOnUse"><stop stop-color="#F69D30"/><stop offset="1" stop-color="#F3D80E"/></linearGradient><linearGradient id="fdimdjnsi" x1=".98" y1=".05" x2=".48" y2="1.56" gradientUnits="userSpaceOnUse"><stop stop-color="#D64635"/><stop offset="1" stop-color="#FAAE17"/></linearGradient><linearGradient id="gdimdjnsi" x1=".5" y1="0" x2=".5" y2="1.32" gradientUnits="userSpaceOnUse"><stop stop-color="#C12026"/><stop offset="1" stop-color="#F37423"/></linearGradient><linearGradient id="hdimdjnsi" x1=".6" y1="0" x2=".6" y2="1.01" gradientUnits="userSpaceOnUse"><stop stop-color="#AA232A"/><stop offset="1" stop-color="#E15124"/></linearGradient></defs></svg>