<!-- by TradingView --><svg width="18" height="18" fill="none" xmlns="http://www.w3.org/2000/svg"><path fill="#4BAAC6" d="M0 0h18v18H0z"/><path d="M7.08 5c-1.43 0-2.071.894-2.071 1.997v4.01c-.002.06 0 .177 0 .177 0 1.104.874 1.816 2.002 1.816C8.139 13 9 12.21 9 11.044V10H8v1.055c0 .507-.472.913-.989.913S6 11.565 6 10.982V7.037C6 6.457 6.333 6 7.011 6 7.689 6 8 6.454 8 7.118V8h1v-.867C8.994 5.96 8.458 5 7.08 5z" fill="#fff"/><path fill-rule="evenodd" clip-rule="evenodd" d="M13.65 5H9.372v1H11v7h1V6h1.65V5z" fill="#FEE774"/></svg>