<!-- by TradingView --><svg width="18" height="18" viewBox="0 0 18 18" xmlns="http://www.w3.org/2000/svg"><path fill="#F0F3FA" d="M0 0h18v18H0z"/><path d="M7 3.17c0-.1.07-.17.15-.17h1.7c.08 0 .15.08.15.17V5H7.15C7.07 5 7 4.92 7 4.83V3.17Z" fill="#95D402"/><path d="M9 5h1.88c.07 0 .12.06.12.14v1.72c0 .08-.05.14-.12.14H9V5Z" fill="#FD8203"/><path d="M7 11.52V7.15c0-.08.05-.15.12-.15H9v4.22C9 12.73 10.2 13 10.87 13c.07 0 .13.06.13.15v1.68c0 .08-.05.15-.11.15C7.53 15.25 7 12.6 7 11.52Z" fill="#013B71"/></svg>