<!-- by TradingView --><svg width="18" height="18" viewBox="0 0 18 18" xmlns="http://www.w3.org/2000/svg"><path fill="#F0F3FA" d="M0 0h18v18H0z"/><path d="M6.5 5C5.12 5 4 6.04 4 7.32v3.36C4 11.96 5.12 13 6.5 13S9 11.96 9 10.68V10H7v1.14c0 .2-.22.36-.5.36s-.5-.16-.5-.36V6.86c0-.2.22-.36.5-.36s.5.16.5.36V8h2v-.68C9 6.04 7.88 5 6.5 5Z" fill="#002D87"/><path d="M14 7.5h-2v-.52c0-.22-.08-.48-.5-.48-.5 0-.5.26-.5.48v.1c0 .26.17.5.4.66l1.95 1.19c.4.25.65.66.65 1.1v.71C14 12 12.88 13 11.5 13S9 11.99 9 10.74V10h2v1c0 .22.22.5.46.5.24 0 .54-.17.54-.5v-.44c0-.28-.25-.46-.5-.6L9.67 8.9A1.3 1.3 0 0 1 9 7.78v-.52C9 6 10.12 5 11.5 5A2.6 2.6 0 0 1 14 7.5Z" fill="#0379D3"/></svg>