<!-- by TradingView --><svg xmlns="http://www.w3.org/2000/svg" width="18" height="18"><path fill="#F0F3FA" d="M0 0h18v18H0z"/><path d="M9.63 7.38a2.4 2.4 0 011.78.34l.5-1.27a4.04 4.04 0 00-3.35-.17l1.07 1.1zm-3.25.92A4.02 4.02 0 0012 13.5l-.49-1.29c-.4.29-.89.46-1.4.46a2.6 2.6 0 01-2.53-2.82L6.38 8.3z"/><path d="M4.62 3.48c1.51 1.13 5.17 3.88 5.17 5.1 0 .38-.08.72-.23.97L4 3l.62.48zm0 1.73c1.5 1.22 5.22 4.25 5.03 5.43 0 .2-.09.7-.3 1.03L4.13 4.8c.1.1.27.23.49.4z" fill="url(#aknyxgzax)"/><defs><linearGradient id="aknyxgzax" x1="3.72" y1="3.39" x2="8.91" y2="8.57" gradientUnits="userSpaceOnUse"><stop stop-color="#295654"/><stop offset="1" stop-color="#397593"/></linearGradient></defs></svg>