<!-- by TradingView --><svg width="18" height="18" viewBox="0 0 18 18" xmlns="http://www.w3.org/2000/svg"><path fill="#F0F3FA" d="M0 0h18v18H0z"/><path d="M8.29 12.66c1.1.04 1.6 0 2.33-.09.4-.05.69-.23.88-.55.12-.2.2-.55.22-1.02 0-.08.05-.12.14-.13h.03c.07 0 .11.03.11.1v1.96c0 .05-.03.07-.08.07H6.07l-.03-.1a.07.07 0 0 1-.03-.02.07.07 0 0 1 0-.06v-.04l.02-.02h.03l.58-.05c.27-.02.36-.2.36-.43V5.46c0-.07-.08-.14-.13-.19a.29.29 0 0 0-.2-.08h-.56c-.07 0-.1-.03-.1-.1v-.04l.01-.03A.06.06 0 0 1 6.06 5H9.1c.05 0 .07.02.07.06v.04c0 .05-.03.07-.09.08l-.52.02c-.24 0-.33.16-.33.38v7.02c0 .04.02.06.07.06Z"/></svg>