<!-- by TradingView --><svg xmlns="http://www.w3.org/2000/svg" width="18" height="18" viewBox="0 0 18 18"><path fill="#FFB701" d="M0 0h18v18H0z"/><path d="M8.98 15c1.58 0 3.03-.62 4.1-1.63l-1.03-.95A4.58 4.58 0 1 1 12 5.54l.94-1.03A5.99 5.99 0 1 0 8.98 15zM5.46 7.52c.06-.06.51-.2 1.81-.23.13-.2.53-.58 1.1-.56.65.02.97.51 1.09.7l.03.05-.1.07.26.27c.02.02.1.06.24 0 .2-.13.73-.38 1.16-.38.1 0 .39.03.65.2.65-.25 2.15-.6 2.9-.05-.13.1-.47.36-.84.58-.1.03-.33.12-.52.25-.2.12-1.4.71-1.97 1-.04.01-.1.1.02.25l.08.1c.22.31.75 1.05 1.22 1.35l.95.8c-.04.01-.23-.01-.6-.26-.02.03-.01.1.11.19-.02 0-.11-.01-.37-.19-.33-.21-.48-.25-1.05-.33a4.45 4.45 0 0 1-1.03-.27c-.26 0-.86-.02-1.2-.23A3.6 3.6 0 0 1 8.12 9l-.65-1.22c-.1-.17-.23-.24-.52-.26-.31-.01-1.05-.04-1.5 0z" fill="#fff"/></svg>