<!-- by TradingView --><svg width="18" height="18" viewBox="0 0 18 18" xmlns="http://www.w3.org/2000/svg"><path fill="#F0F3FA" d="M0 0h18v18H0z"/><path d="M15 9.52c-.9 1.83-2.94 3.48-5.4 4.16-3 .84-5.63-.04-6.42-1.96l5.25-1.47c.46 1.47 2.03 2.17 3.79 1.6A5.16 5.16 0 0 0 15 9.51Zm-5.75 1.54 5.53-1.54a4.93 4.93 0 0 1-2.55 2.03c-1.19.39-2.28.17-2.98-.49ZM3 9.8c.4-2.3 2.8-4.62 5.84-5.47 2.36-.66 4.49-.26 5.68.88a3.16 3.16 0 0 0-2.87-.3 5.13 5.13 0 0 0-3.21 3.37L3 9.8Zm11.3-4.46-4.65 1.3a4.86 4.86 0 0 1 2.12-1.44 3.15 3.15 0 0 1 2.54.14Z" fill="url(#a5jwxbp11)"/><defs><linearGradient id="a5jwxbp11" x1="4.41" y1="11.97" x2="16.28" y2="8.35" gradientUnits="userSpaceOnUse"><stop stop-color="#C2D500"/><stop offset="1" stop-color="#ACB663"/></linearGradient></defs></svg>