<!-- by TradingView --><svg width="18" height="18" viewBox="0 0 18 18" xmlns="http://www.w3.org/2000/svg"><path fill="#F0F3FA" d="M0 0h18v18H0z"/><path d="M4.3 7c.7 0 1.19.22 1.35.33l-.23.56c-.3-.46-.87-.56-1.12-.56C3.13 7.33 2.9 8.46 2.9 9c.02.54.31 1.68 1.3 1.68.79 0 1.32-.52 1.44-.7v.61c-.41.3-1.2.4-1.5.4C2.34 10.93 1.96 9.65 2 9c0-1.67 1.43-1.99 2.3-2ZM6 9.85V7h1v2.6c0 .33.01 1 .96.99C8.9 10.57 9 10 9 9.74V7h.64v2.85c0 .66-.64 1.2-2.1 1.15C6.37 10.95 6 10.2 6 9.85ZM13.73 7h1.13a1.14 1.14 0 0 1 0 2.29H14V11h-1V7h.73Zm.27.3v1.69h.16a.84.84 0 0 0 0-1.69H14ZM11.36 7h-.97v4h2.27v-.42h-1.3V7Z"/></svg>