<!-- by TradingView --><svg width="18" height="18" xmlns="http://www.w3.org/2000/svg"><path fill="#FFF601" d="M0 0h18v18H0z"/><path d="M6.548 8h-2.36c-.29 0-.192.453 0 .484.158.026.383.436.48.622L6.003 14H7l1.371-3.615c1.42-3.492 2.394-4.488 3.388-5.254.795-.612 1.538-.537 1.798-.433-1.214.43-3.037 2.193-3.222 2.393-.147.16-.02.2.062.2.344-.213 1.051-.307 1.362-.327 1.352-.257 2.018-1.118 2.332-1.53.315-.412.538-.44.784-.563.198-.099.118-.217.053-.264-.943-.464-1.291-.724-2.749-.555-1.363.158-2.759 2.284-3.282 3.44L7 11.608c-.163-.536-.478-2.27-.583-2.604-.106-.335.044-.463.131-.485.316-.255.132-.447 0-.52z" fill="#004D17"/></svg>