<!-- by TradingView --><svg width="18" height="18" viewBox="0 0 18 18" xmlns="http://www.w3.org/2000/svg"><path fill="#F0F3FA" d="M0 0h18v18H0z"/><path d="M8.5 5v1.59A2.8 2.8 0 0 0 6 9.29h1.5V11H5.06C4.47 11 4 10.49 4 9.92v-.5C4 6.23 7 5.07 8.5 5Z" fill="#FFC330"/><path d="M10 9h1a2.08 2.08 0 0 0-2-1.5c-.95 0-1.75.64-2 1.5h1v4h2V9Z" fill="#FB652D"/><path d="M9.5 6.57V5c1.45.06 4.5 1.22 4.5 4.43v.5c0 .56-.46 1.07-1.02 1.07h-.66l1.1 2H11.6l-1.1-2V9.29H12c0-.68-.5-2.36-2.5-2.72Z" fill="#FFC330"/></svg>