<!-- by TradingView --><svg width="18" height="18" viewBox="0 0 18 18" xmlns="http://www.w3.org/2000/svg"><path fill="#F0F3FA" d="M0 0h18v18H0z"/><path d="M4.75 8.54h.75C5.44 8.06 5.02 7 3.84 7 2.36 7 2 8.16 2 9.01 2 9.87 2.33 11 3.84 11c1.2 0 1.61-1.03 1.66-1.54h-.75c-.02.27-.23.77-.91.77-.85 0-1.11-.64-1.11-1.22s.29-1.24 1.1-1.24a.9.9 0 0 1 .92.77ZM5.65 7l1.6 4h.6l1.59-4H8.6L7.55 9.64 6.48 7h-.83ZM10 7v4h.73V9.3h.7l.94 1.7h.83l-.93-1.73c.47-.12.78-.55.78-1.1C13.05 7.53 12.61 7 12 7H10Zm.73.62h1.05c.3 0 .55.24.55.53 0 .3-.25.54-.55.54h-1.05V7.62Zm3.5.38h-.9l.9 1.34h.95L16 8h-.82l-.5.84-.45-.84Zm0 3h-.9l.9-1.33h.95L16 11h-.82l-.5-.84-.45.84Z" fill="#0A1438"/></svg>