<!-- by TradingView --><svg width="18" height="18" viewBox="0 0 18 18" xmlns="http://www.w3.org/2000/svg"><path fill="url(#ajrffy0xx)" d="M0 0h18v18H0z"/><path d="M12.7 6.7a1 1 0 0 0 .3-.71c0-.25-.22-.67-.45-.84A6.24 6.24 0 0 0 9.14 4 5.07 5.07 0 0 0 4 9c0 2.76 2.3 5 5.14 5 1.17 0 2.51-.53 3.38-1.17.22-.16.48-.56.48-.8a1 1 0 0 0-.3-.73c-.22-.2-.5-.3-.79-.3-.32 0-.72.29-1 .46A4.5 4.5 0 0 1 9 12a3 3 0 1 1 0-6c.57 0 1.34.26 1.79.53.29.17.8.48 1.12.47.3 0 .57-.1.78-.3Z" fill="#F0F3FA"/><defs><linearGradient id="ajrffy0xx" x1="2.41" y1="2.73" x2="16.07" y2="14.63" gradientUnits="userSpaceOnUse"><stop offset=".2" stop-color="#1859AB"/><stop offset=".59" stop-color="#00ADB8"/></linearGradient></defs></svg>