<!-- by TradingView --><svg xmlns="http://www.w3.org/2000/svg" width="18" height="18" viewBox="0 0 18 18"><path fill="#F0F3FA" d="M0 0h18v18H0z"/><path d="M7.02 10.42 8.3 7.73a.74.74 0 0 1 .28-.33.77.77 0 0 1 .84 0c.12.08.22.2.28.33l1.28 2.7c.02.04.05.08.1.1a.26.26 0 0 0 .27 0 .24.24 0 0 0 .1-.1L12.9 7c-.06 0-.15.01-.22-.02a.37.37 0 0 1-.16-.15.4.4 0 0 1-.02-.17v-.95a.05.05 0 0 0-.02-.04.05.05 0 0 0-.05 0l-.72.31a.33.33 0 0 1-.13.04.39.39 0 0 1-.2-.08.37.37 0 0 1-.13-.18l-.13-.3-.02-.01a.05.05 0 0 0-.06.01l-.44.59c-.26.35-.61.1-.61-.14V4.68c0-.03-.05-.06-.08-.03-.16.14-.41.2-.55-.02l-.33-.61A.05.05 0 0 0 9 4h-.02l-.02.02-.33.6c-.14.22-.4.17-.56.03-.03-.02-.07 0-.07.03v1.23c0 .24-.34.48-.61.14l-.44-.59a.05.05 0 0 0-.04-.02.05.05 0 0 0-.05.02l-.1.29c-.08.16-.2.27-.35.26a.34.34 0 0 1-.12-.04c-.23-.12-.72-.31-.72-.31a.05.05 0 0 0-.04 0 .05.05 0 0 0-.03.04v.95a.4.4 0 0 1-.02.17.37.37 0 0 1-.16.15.68.68 0 0 1-.26.03l1.5 3.41c.03.04.06.08.1.1a.25.25 0 0 0 .36-.09Z" fill="#D9AA28"/><path d="M12.94 7h-.03l-1.46 3.17a.23.23 0 0 1-.1.1.27.27 0 0 1-.28 0 .23.23 0 0 1-.09-.1L9.7 7.67a.7.7 0 0 0-.28-.3.82.82 0 0 0-.84 0 .7.7 0 0 0-.28.3l-1.28 2.5a.23.23 0 0 1-.1.1.27.27 0 0 1-.27 0 .23.23 0 0 1-.1-.1L5.08 7H3l2.7 6h2.23l.84-2.06a.22.22 0 0 1 .09-.11.27.27 0 0 1 .28 0c.04.03.08.06.1.1l.83 2.07h2.23L15 7h-2.06Z" fill="#0898A9"/></svg>