<!-- by TradingView --><svg width="18" height="18" viewBox="0 0 18 18" xmlns="http://www.w3.org/2000/svg"><path fill="#F0F3FA" d="M0 0h18v18H0z"/><path d="M6.2 10.33c.82-.38 2.13.17 2.13-.48-.4-.14-.91-.07-1.33-.06-.37.01-1.13-.15-1.28-.4a.36.36 0 0 1-.05-.16c0-.4.55-.47.87-.47h.88c.42 0 .6.12.58-.36-.5-.42-1.52.04-2.13-.3-.02-.33.08-.6.18-.83.67-.06 1.3-.03 1.98-.03.24 0 .22-.06.3-.18-.18-.37-1.57-.2-2.08-.17-.16-.39 0-.53.2-.8.12-.15.35-.42.69-.44.74-.04 1.95.15 2.2-.16-.27-.37-1.77-.1-2.24-.27-.1-.76.78-.88 1.45-.89 1.52 0 3.14.94 3.12 1.44 0 .1-.06.17-.17.22-.47.23-1.87-.11-2.17.24.19.3.83.15 1.18.15.45 0 1.03-.05 1.4.06.07.17.1.32.09.43-.02.96-2.11.23-2.67.6.04.3.3.24.6.24.66 0 1.88-.09 2.26.16 0 .37-.28.35-.65.35-.68.01-2.29-.12-2.54.18.21.27 1.86.13 2.3.14 1.27 0 1.3.8.2.8H9.52c-.25 0-.38-.04-.53.16.38.53 2.46-.18 2.9.44.07.1.1.21.1.33 0 .1-.03.22-.07.3-.09.22-.27.23-.58.23-.55 0-1.33-.12-1.35.27.19.18.42.09.7.09h.8c.28 0 .5.15.5.39a.4.4 0 0 1-.01.1c-.18.42-2.09.35-2.74.35-.18 0-.58-.02-.58.2 0 .47.6.24.77.24h1.15c.32 0 .41.16.41.35 0 .21-.14.46-.24.58-.44.52-2.34.39-2.81.28-.7-.17-1.3-.89-1.64-1.48a.93.93 0 0 1-.14-.44c0-.64 1.33-.47 2.05-.47.4 0 1.05.14 1.11-.28-.06-.15-.15-.22-.36-.22l-2.35.01c-.46 0-.62-.1-.62-.23 0-.07.08-.15.2-.2ZM5 9.04C5.01 11.3 6.22 15 8.95 15c2.1 0 4.05-2.53 4.05-5.92 0-2.1-.93-5.37-3.3-5.98-.25-.07-.5-.1-.73-.1C6.2 3 5 6.75 5 9.04Z" fill="url(#a4lxkbn0x)"/><defs><linearGradient id="a4lxkbn0x" x1="11.28" y1="3.99" x2="7.33" y2="14.82" gradientUnits="userSpaceOnUse"><stop stop-color="#66C3EF"/><stop offset=".93" stop-color="#1A365E"/></linearGradient></defs></svg>