<!-- by TradingView --><svg width="18" height="18" viewBox="0 0 18 18" xmlns="http://www.w3.org/2000/svg"><path fill="#F0F3FA" d="M0 0h18v18H0z"/><path d="M4.07 6h9.43l-1.02 1H4.36c-.12 0-.36.21-.36.34v3.35c0 .12.24.31.36.31h4.68L8 12H4.07C3.44 12 3 11.48 3 10.84V7.16C3 6.52 3.44 6 4.07 6Z" fill="#969699"/><path d="M13.95 12H9l1.02-1h3.69c.12 0 .28-.09.28-.22V9.21c0-.13-.16-.21-.28-.21H9V7.76l1-.43V8h3.95c.58 0 1.05.37 1.05.97v1.94c0 .6-.47 1.09-1.05 1.09Z" fill="#969699"/><path d="M10 7.4V7H9v1l1-.6Z" fill="#5C5F5F"/></svg>