<!-- by TradingView --><svg xmlns="http://www.w3.org/2000/svg" width="18" height="18" viewBox="0 0 18 18"><path fill="url(#ahju4euqt)" d="M0 0h18v18H0z"/><path d="M4.8 10.88c1.48.15 2.36.66 2.77 1 .05.05.13 0 .1-.07-.76-1.9-2.16-2.52-2.74-2.58H4.8a.8.8 0 0 0-.8.8c0 .45.36.81.8.85z" fill="#70BF54"/><path d="M13.2 10.88a5.07 5.07 0 0 0-2.78 1c-.05.05-.13 0-.1-.07.77-1.9 2.17-2.52 2.75-2.58h.12c.45 0 .8.36.8.8 0 .45-.36.81-.8.85z" fill="#138ACC"/><path d="M5.21 7.27C6.7 8.2 7.1 8.68 7.7 10.03c.03.07.14.06.14-.02.11-2.53-1.05-3.95-1.63-4.32l-.13-.07a.9.9 0 0 0-1.23.48c-.22.5-.08.9.36 1.17z" fill="#FAA21C"/><path d="M12.3 7.42c-2.9 2.31-2.85 3.4-3.28 5.5-.02.12-.2.1-.21-.02-1.03-4.43.89-6.8 1.69-7.5l.18-.12c.66-.45 1.64-.38 2.03.4.4.8.2 1.22-.4 1.74z" fill="#00BAE9"/><defs><linearGradient id="ahju4euqt" x1="3.35" y1="3.12" x2="21.9" y2="24.43" gradientUnits="userSpaceOnUse"><stop stop-color="#1A1E21"/><stop offset="1" stop-color="#06060A"/></linearGradient></defs></svg>