<!-- by TradingView --><svg width="18" height="18" viewBox="0 0 18 18" xmlns="http://www.w3.org/2000/svg"><path d="M0 9a9 9 0 1 1 18 0A9 9 0 0 1 0 9Z" fill="#F0F3FA"/><path d="M9.34 7.01 6.19 3a5.02 5.02 0 0 0-2.37 3.43L8.6 7.89c.12-.36.4-.67.74-.88Z" fill="#F9A01B"/><path d="M3.79 7c0-.19 0-.38.03-.57l-.57-.16a4.81 4.81 0 0 0 .54 4.16l1.06-.33A5.1 5.1 0 0 1 3.8 7Z" fill="#EE3472"/><path d="m4.78 10.01.07.09 3.76-1.13a1.69 1.69 0 0 1-.02-1.08L3.82 6.43 3.79 7c0 1.05.27 2.1 1 3.01Z" fill="#C61B2C"/><path d="m3.79 10.43-.4.14a5.2 5.2 0 0 0 2.96 3.1l.65-.85c-1.25-.54-2.55-1.32-3.21-2.39Z" fill="#3BBEB4"/><path d="m7 12.82.8-.91c-1.1-.3-2.2-.92-2.95-1.81l-1.06.33a5.38 5.38 0 0 0 3.2 2.39Z" fill="#6E1F56"/><path d="M8.6 8.97 4.86 10.1a5.8 5.8 0 0 0 2.96 1.8l1.54-2.02a1.76 1.76 0 0 1-.74-.9Z" fill="#5D0E2C"/><path d="m12.62 5.68-.97 1.3c.32.21.56.52.69.87l.67 1.88c-3.6 1.63-4.22 2.36-6.68 3.93l-.28.36a6.07 6.07 0 0 0 7.9-1.16c1.83-2.28 1.2-5.51-1.33-7.18Z" fill="#B3B7C0"/><path d="M14.22 8.93c0-.53-.21-1.05-.4-1.57l-1.48.5a1.62 1.62 0 0 1 0 1.1c0 1.68-1.86 2.34-5.34 3.86l-.67.84c.75.31 1.52.43 2.27.43 2.97 0 5.64-2.18 5.62-5.16Z" fill="#329C93"/><path d="m11.65 9.84.97 1.29a5.57 5.57 0 0 1-3.33.96c-.52 0-.98-.05-1.48-.18l-.81.9a6.2 6.2 0 0 0 3.49-.06 5.1 5.1 0 0 0 3.33-3.29l-1.48-.5c-.13.36-.37.66-.69.88Z" fill="#58285B"/><path d="M10.49 11.99a5.57 5.57 0 0 0 2.13-.86l-.97-1.29a2.09 2.09 0 0 1-2.31.04L7.8 11.9a6.26 6.26 0 0 0 2.68.08Z" fill="#4C0524"/><ellipse cx="10.3" cy="8.64" rx="2.3" ry="2.36" fill="#F0F3FA"/></svg>