<!-- by TradingView --><svg width="18" height="18" viewBox="0 0 18 18" xmlns="http://www.w3.org/2000/svg"><path fill="#F0F3FA" d="M0 0h18v18H0z"/><path d="M7.95 11.77a2.95 2.95 0 0 0 1.63-.28.05.05 0 0 1 .05.04l.37 1.2a.04.04 0 0 1-.01.03l-.02.01c-1.75.45-4.11.34-5.27-1.24-.95-1.3-.9-3.5-.06-4.82 1.08-1.73 3.48-2.03 5.3-1.42a.07.07 0 0 1 .04.07v.03l-.4 1.2a.05.05 0 0 1-.04.02.05.05 0 0 1-.04 0 2.2 2.2 0 0 0-1.72-.34c-1.13.22-1.82.9-2.07 2.03-.35 1.63.45 3.3 2.24 3.47Z" fill="#0099A7"/><path d="M10.95 8h-.86c-.03 0-.1-.05-.09-.09v-.82c0-.05.03-.1.1-.09h.85c.04 0 .05-.03.05-.07V6.5c0-.03 0-.05.03-.07l1.5-1.4c.03-.03.05-.03.05.02V6.9a.1.1 0 0 0 .02.06.09.09 0 0 0 .07.03h1.16c.03 0 .17 0 .17.03v.85c0 .03-.06.12-.1.12h-1.28c-.03 0-.04.01-.04.04v3.1c.02.79.77.83 1.34.58.03 0 .08 0 .08.04v1.06c0 .03-.01.05-.04.06-1 .24-2.39.2-2.82-.86a2.93 2.93 0 0 1-.14-1.03V8.1c0-.02-.02-.1-.05-.09Z" fill="#D6441D"/></svg>