<!-- by TradingView --><svg width="18" height="18" viewBox="0 0 18 18" xmlns="http://www.w3.org/2000/svg"><path fill="#F0F3FA" d="M0 0h18v18H0z"/><path d="M11.08 13.4c-.26.17-.55.29-.84.4a4.4 4.4 0 0 1-1.9.17 4.52 4.52 0 0 1-2.43-.99 5 5 0 0 1-.24-7.67 4.93 4.93 0 0 1 6.5-.2c.23.18.26.45.1.65-.2.23-.44.24-.69.04a4.27 4.27 0 0 0-6.84 1.93 4.6 4.6 0 0 0 1.3 4.98c1.11.97 2.4 1.3 3.84 1.05.41-.07.8-.22 1.2-.37Z" fill="#1980D5"/><path d="M10.46 12.51c-.37.25-.8.34-1.23.38a3.72 3.72 0 0 1-3.76-2.3A3.94 3.94 0 0 1 7.5 5.45a3.82 3.82 0 0 1 3.98.49c.2.15.24.37.11.54-.14.18-.34.2-.54.03a3.22 3.22 0 0 0-2.5-.77 3.27 3.27 0 0 0-2.4 1.47c-.43.6-.64 1.31-.61 2.04a3.47 3.47 0 0 0 1.77 3.03c.84.5 1.74.6 2.69.35.15-.04.3-.1.47-.12Z" fill="#1980D5"/><path d="M9.79 11.89c-1.27.55-2.88-.13-3.52-1.44-.84-1.7.06-3.8 1.86-4.3.98-.28 1.9-.1 2.72.52.18.13.2.28.1.42-.11.15-.26.15-.44.01-.97-.77-2.2-.8-3.2-.07a2.75 2.75 0 0 0-1 2.74 2.71 2.71 0 0 0 2.88 2.19c.2-.03.4-.02.6-.07Z" fill="#1980D5"/><path d="M10.48 7.5c-.08.23-.2.27-.38.13a1.9 1.9 0 0 0-2.2-.15 2.03 2.03 0 0 0 .9 3.74c.15.02.49.03.64-.02-.76.31-1.98-.04-2.5-1.16a2.28 2.28 0 0 1 1.13-3.02c.88-.38 2.34-.09 2.41.47Z" fill="#1980D5"/><path d="M10.07 7.94c-.08.19-.14.2-.3.09a1.37 1.37 0 0 0-1.97.28 1.46 1.46 0 0 0 .35 2.05c.17.11.35.2.54.25-.15.03-.2.03-.28 0A1.57 1.57 0 0 1 7.37 9.1c0-.69.43-1.32 1.05-1.54a1.58 1.58 0 0 1 1.51.2c.1.07.1.07.14.18Z" fill="#1980D5"/><path d="M12.4 6.1 9.54 8.83a.1.1 0 0 0-.02.1c.02.07.1.09.16.05l3.2-2.38a.32.32 0 0 0 .03-.5.36.36 0 0 0-.5 0Z"/></svg>