<!-- by TradingView --><svg width="18" height="18" viewBox="0 0 18 18" xmlns="http://www.w3.org/2000/svg"><path fill="#F0F3FA" d="M0 0h18v18H0z"/><path d="M11 6.15v-.76h-1V5h2.59v.4H12v.91l1.05.22.74-1.14h-.45V5h1.98v.4h-.87c-.28.39-.56.87-.85 1.28l.12.04c.25.07.5.16.76.27.33.13.65.31.95.53a2 2 0 0 1 .36.36c.1.12.17.27.2.43.02.15 0 .3-.05.44-.08.19-.2.35-.34.49-.17.15-.36.28-.55.39a6.26 6.26 0 0 1-1.3.53V9.6l.12-.04c.25-.07.49-.17.72-.3.2-.1.38-.22.53-.42a.7.7 0 0 0 .14-.32.5.5 0 0 0-.02-.24.81.81 0 0 0-.16-.27c-.14-.16-.3-.28-.48-.37a3.8 3.8 0 0 0-.78-.32l-.55-.13h-.03l-1.9 2.67c.3.01.62 0 .94-.02.3-.02.68-.07.99-.1v.59c-.83.2-1.72.34-2.57.4l-.42.6-1.7 2.38a.72.72 0 0 1-.23.2.62.62 0 0 1-.29.09.4.4 0 0 1-.24-.07.5.5 0 0 1-.17-.21.58.58 0 0 1 .05-.55.5.5 0 0 1 .18-.16.44.44 0 0 1 .22-.04h.34L10 10.8c-.02-.03-.05-.02-.08-.02l-.27.02a58.83 58.83 0 0 1-1.55-.01l-.99-.07-1.15-.15c-.56-.09-1.11-.21-1.66-.38a6.62 6.62 0 0 1-1.4-.59c-.2-.12-.4-.26-.57-.44a1.08 1.08 0 0 1-.3-.53.85.85 0 0 1 .07-.56c.1-.18.22-.33.37-.46.24-.2.51-.38.8-.5a8.1 8.1 0 0 1 1.43-.51 17.1 17.1 0 0 1 4.08-.47c.55-.01 1.1-.02 1.65.02H11Zm0 .95c-.2.03-.92.07-1.1.1-.4.07-.77.2-1.13.36-.22.1-.43.24-.6.42a.7.7 0 0 0-.21.38c-.03.2.03.35.14.49.12.15.28.28.44.37a6.38 6.38 0 0 0 1.8.56l.66.01V7.1Zm.96-.05s.04-.02.04 0v.98c.07-.07.6-.87.63-.94a4.66 4.66 0 0 0-.67-.04Z" fill="#D70211"/></svg>