<!-- by TradingView --><svg width="18" height="18" viewBox="0 0 18 18" xmlns="http://www.w3.org/2000/svg"><path fill="#F0F3FA" d="M0 0h18v18H0z"/><path d="M8.9 4.02a.28.28 0 0 0-.19.26c0 .1.04.16.12.24a.3.3 0 0 1 .1.16c.03.08.04.11.04.34 0 .2 0 .26-.03.33a.47.47 0 0 1-.12.21.27.27 0 0 0-.09.2c0 .15.12.27.3.28.05.01.07 0 .14-.03.1-.05.15-.12.16-.22 0-.1-.01-.16-.1-.25-.12-.13-.17-.31-.15-.59 0-.22.06-.38.15-.46a.28.28 0 0 0 .09-.2c0-.2-.22-.34-.41-.27Zm-1.88.22c-.07.03-.1.05-.14.13a.22.22 0 0 0 0 .22c.11.2.42.2.51 0 .07-.13 0-.3-.14-.36a.42.42 0 0 0-.23.01Zm3.73 0c-.17.09-.22.29-.09.42.09.09.26.1.37.04.07-.05.13-.16.12-.24a.29.29 0 0 0-.15-.21.34.34 0 0 0-.25 0Zm-6.36.86a.25.25 0 0 0-.08.4c.09.1.21.12.33.06.1-.04.15-.11.16-.22 0-.06 0-.09-.03-.13-.07-.14-.24-.18-.38-.11Zm8.97 0c-.1.04-.15.1-.15.23 0 .08 0 .1.04.14.07.1.24.15.35.1.19-.09.22-.3.08-.43a.28.28 0 0 0-.32-.05Zm-7.26.32a.47.47 0 0 0-.3.24.39.39 0 0 0-.03.18c0 .15.03.22.13.31.14.13.27.16.48.1.15-.03.28-.01.52.08.28.1.54.26.72.43.13.11.16.17.19.3.04.17.12.27.28.34.1.04.26.04.36 0a.5.5 0 0 0 .23-.2c.04-.07.04-.1.04-.2s0-.14-.03-.2a.48.48 0 0 0-.54-.23c-.2.05-.43.01-.73-.13a1.82 1.82 0 0 1-.65-.49.74.74 0 0 1-.08-.17c-.05-.14-.07-.18-.14-.24a.5.5 0 0 0-.45-.12Zm5.56 0a.49.49 0 0 0-.2.1c-.07.06-.1.12-.14.25a.6.6 0 0 1-.19.29c-.17.17-.4.32-.65.42-.26.11-.46.14-.64.1a.45.45 0 0 0-.3.01.61.61 0 0 0-.23.22c-.03.06-.04.1-.04.19s0 .12.04.18a.47.47 0 0 0 .6.21.43.43 0 0 0 .28-.34l.03-.12c.14-.25.75-.6 1.16-.68a.42.42 0 0 1 .24 0c.09.03.15.03.2.03.21-.02.39-.2.42-.4.02-.17-.1-.35-.26-.43a.48.48 0 0 0-.32-.03ZM3.4 6.52a.28.28 0 0 0-.18.27c0 .11.06.2.17.25.1.05.19.04.3-.01.08-.04.1-.05.2-.05.21 0 .52.1.7.22.1.06.12.09.16.19.04.1.1.16.2.2.09.04.11.05.2.05.22 0 .39-.16.4-.36a.33.33 0 0 0-.13-.3.39.39 0 0 0-.31-.11c-.1 0-.16.03-.26.1-.14.09-.47.05-.78-.09a.73.73 0 0 1-.3-.25c-.06-.11-.24-.16-.37-.1Zm10.97 0a.32.32 0 0 0-.16.16.44.44 0 0 1-.12.12c-.2.15-.6.25-.8.2a.54.54 0 0 1-.16-.05c-.2-.12-.38-.11-.53.03a.35.35 0 0 0-.1.4c.03.09.15.2.25.23.14.05.3.01.41-.08.05-.04.06-.06.13-.2a.29.29 0 0 1 .1-.12c.15-.1.44-.2.64-.23.13-.01.22 0 .29.05.1.07.27.06.37-.03.12-.1.14-.28.03-.4a.31.31 0 0 0-.35-.07Zm-2.95.83a.3.3 0 0 0-.17.14c-.04.08-.1.12-.23.18-.22.1-.48.14-.63.08-.08-.03-.15-.04-.21 0-.1.04-.15.11-.15.2 0 .1.04.16.11.2.06.04.07.04.14.04a.27.27 0 0 0 .23-.15.37.37 0 0 1 .08-.1c.11-.1.36-.18.56-.19.12 0 .14 0 .22.03.1.04.17.04.25 0 .04-.03.1-.11.12-.17.02-.1-.07-.23-.19-.26-.06-.02-.08-.02-.13 0Zm-5 .01a.32.32 0 0 0-.14.16c-.03.1.04.23.15.28.07.02.13.02.23-.02.08-.03.1-.03.2-.03.17.01.4.08.51.16.07.04.1.07.13.12.04.08.06.1.12.13.07.04.16.04.23 0a.22.22 0 0 0 0-.41c-.08-.04-.14-.04-.24 0a.36.36 0 0 1-.21.03.91.91 0 0 1-.4-.1c-.13-.06-.2-.12-.24-.2-.06-.1-.22-.17-.33-.12Zm-.6 1a.65.65 0 0 0-.3.15c-.31.3-.22.77.18.93.24.1.47.05.68-.14.14-.13.24-.18.5-.23.2-.04.37-.05.62-.05.37 0 .65.04.85.13.07.03.1.05.13.1.17.26.53.35.82.21a.7.7 0 0 0 .23-.2c.04-.07.06-.08.15-.12.2-.09.47-.13.85-.12.32 0 .56.03.77.1.16.04.23.08.34.18.17.16.35.22.54.18a.6.6 0 0 0 .44-.31.38.38 0 0 0 .06-.22c0-.1 0-.14-.03-.2a.6.6 0 0 0-.49-.4c-.2-.03-.35.03-.53.2a1 1 0 0 1-.59.26c-.3.06-.74.06-1.04 0-.29-.06-.4-.1-.53-.23a.6.6 0 0 0-.2-.14c-.1-.05-.1-.05-.26-.05-.17 0-.17 0-.28.05a.6.6 0 0 0-.2.14.53.53 0 0 1-.18.13c-.11.05-.33.1-.5.13a4 4 0 0 1-.76 0c-.35-.06-.53-.13-.7-.3a.62.62 0 0 0-.57-.18Zm-1.94.17a.38.38 0 0 0-.27.34c-.01.18.08.32.25.39.07.03.1.03.18.03.11 0 .2-.05.28-.12a.37.37 0 0 0 0-.54.45.45 0 0 0-.44-.1Zm10.01 0a.41.41 0 0 0-.27.23c-.06.15-.03.3.1.42.19.18.52.13.66-.1a.46.46 0 0 0 0-.35.41.41 0 0 0-.36-.21h-.13Zm-11.65.11c-.18.04-.28.2-.2.36.08.2.36.22.49.05a.22.22 0 0 0 .04-.15c0-.07 0-.1-.04-.14a.32.32 0 0 0-.3-.12Zm13.44 0c-.1.02-.19.1-.22.16a.3.3 0 0 0 .06.28c.09.1.26.1.37.04a.27.27 0 0 0 .12-.24.3.3 0 0 0-.13-.2.35.35 0 0 0-.2-.04ZM7.65 9.7a.26.26 0 0 0-.16.13c-.05.1-.15.17-.36.23-.22.07-.4.09-.48.04a.26.26 0 0 0-.3.03c-.14.13-.09.34.1.4.1.02.2-.02.27-.11a.53.53 0 0 1 .26-.22c.24-.1.48-.14.62-.08a.3.3 0 0 0 .26 0c.18-.12.14-.37-.07-.43a.17.17 0 0 0-.14 0Zm2.52 0c-.14.06-.2.2-.11.33.06.11.2.15.33.1.14-.07.37-.04.6.05.14.07.21.12.25.2.06.12.18.17.3.14a.22.22 0 0 0 .16-.12c.04-.08.04-.12.01-.19a.26.26 0 0 0-.36-.12c-.12.06-.35.03-.58-.06-.14-.06-.22-.1-.26-.18-.08-.15-.2-.2-.34-.15Zm2.54.49a.43.43 0 0 0-.22.2.4.4 0 0 0 0 .32c.04.09.14.17.23.2.13.05.27.03.4-.06.1-.06.16-.07.3-.07.17.01.33.06.5.13.15.07.24.14.31.25.1.16.34.18.48.04.1-.1.1-.23.03-.34-.08-.11-.26-.17-.37-.12l-.1.05c-.05.03-.07.03-.2.03-.32-.02-.74-.2-.8-.36a.46.46 0 0 0-.15-.22.46.46 0 0 0-.4-.05Zm-7.77.02a.39.39 0 0 0-.2.23c-.04.08-.12.16-.27.23-.22.1-.44.16-.62.15-.1 0-.12-.01-.18-.05a.23.23 0 0 0-.15-.05.3.3 0 0 0-.3.29c0 .22.22.35.43.25.06-.03.1-.06.15-.14.05-.09.11-.14.28-.21.16-.07.32-.12.48-.13.14 0 .21.01.3.07.1.06.14.07.23.08a.4.4 0 0 0 .4-.22c.04-.07.05-.2.02-.28a.4.4 0 0 0-.2-.22.33.33 0 0 0-.19-.04c-.08 0-.11 0-.18.04Zm3.22.32a.57.57 0 0 0-.22.14.43.43 0 0 0-.1.24c-.02.1-.07.18-.2.29-.15.14-.39.29-.62.39-.3.12-.47.15-.62.1a.75.75 0 0 0-.16-.02c-.16 0-.32.1-.4.25-.04.06-.04.09-.04.19s0 .13.04.2c.05.09.16.19.26.22a.5.5 0 0 0 .34-.02.62.62 0 0 0 .14-.09.49.49 0 0 0 .13-.23c.02-.1.09-.2.22-.33.26-.24.65-.44.97-.5a.47.47 0 0 1 .26.02c.14.03.21.03.32-.02a.45.45 0 0 0 .27-.31.26.26 0 0 0 0-.16.46.46 0 0 0-.3-.35.7.7 0 0 0-.29 0Zm1.39.01c-.15.06-.21.12-.27.24-.1.21 0 .46.22.57.11.05.2.06.35.03a.48.48 0 0 1 .25-.01c.41.07.95.39 1.13.67l.06.15c.03.12.07.19.14.24.15.13.34.16.51.08a.43.43 0 0 0 .26-.32c.04-.18-.07-.38-.26-.48a.54.54 0 0 0-.33-.02c-.15.04-.3.02-.56-.07-.37-.14-.8-.44-.86-.62a.7.7 0 0 1-.03-.1.42.42 0 0 0-.26-.34.54.54 0 0 0-.35-.02Zm-.62 1.44a.36.36 0 0 0-.1.06c-.15.11-.15.3 0 .43l.08.1c.04.08.06.23.06.41 0 .27-.04.43-.13.52-.1.1-.13.2-.1.3.02.08.08.14.16.18.2.1.43-.04.43-.25 0-.09-.01-.12-.08-.2-.13-.13-.17-.25-.17-.54 0-.28.03-.4.14-.52.12-.13.13-.3.02-.41a.34.34 0 0 0-.3-.08Zm-4.48.48a.27.27 0 0 0-.21.24c-.01.07.04.18.12.23.08.05.2.06.28.02.23-.1.2-.41-.03-.49-.07-.02-.07-.02-.16 0Zm8.94 0c-.2.08-.25.33-.08.46.1.08.22.08.33 0a.25.25 0 0 0-.02-.44.34.34 0 0 0-.23-.01ZM7 13.48a.25.25 0 0 0-.15.17c-.02.07 0 .13.05.21.1.15.33.15.46 0a.25.25 0 0 0-.01-.31.3.3 0 0 0-.35-.07Zm3.74 0c-.14.06-.2.2-.14.33.08.2.36.22.5.05a.22.22 0 0 0 .04-.15c0-.08-.01-.1-.05-.14a.29.29 0 0 0-.24-.12l-.11.02Z" fill="#1C8089"/></svg>