<!-- by TradingView --><svg xmlns="http://www.w3.org/2000/svg" width="18" height="18" viewBox="0 0 18 18"><path fill="#F0F3FA" d="M0 0h18v18H0z"/><path d="M5.6 8.31c0-1.03.53-2.04 1.18-2.81-.28.14-1 .56-1.25.74a4.47 4.47 0 0 0-.98 6.24 4.5 4.5 0 0 0 6.3.76c.23-.18.45-.9.65-1.12-.58.26-1.21.38-1.84.38A3.91 3.91 0 0 1 5.6 8.31Z" fill="#60636A"/><path d="M14.71 8.13c-.19.31-.44.58-.74.8-.27.2-1.05.69-1.37.8a1.19 1.19 0 0 0-.85.96C11.46 12.8 10.33 14 8.1 14 5.86 14 4 11.88 4 9.72 4 7.7 5.66 6 7.45 6c.4 0 .8.06 1.2.12.92.15.88-.83 1.29-1.4a2.97 2.97 0 0 1 1.81-1.06A6.17 6.17 0 0 0 8.93 3 6.1 6.1 0 0 0 3 8.93 5.87 5.87 0 0 0 9.16 15C12.42 15 15 12.1 15 8.93c0-.38-.04-.75-.11-1.12-.07.1-.12.2-.18.32Z" fill="#90BF27"/><path d="M12.04 5.08c-.24.07-.45.2-.62.39l-.2.24a1.5 1.5 0 0 0 2.02 2.1 1.53 1.53 0 0 0 .67-.8c.08-.23.1-.48.08-.73a1.5 1.5 0 0 0-1.95-1.2Z" fill="#60636A"/></svg>