<!-- by TradingView --><svg xmlns="http://www.w3.org/2000/svg" width="18" height="18" viewBox="0 0 18 18"><path fill="#F0F3FA" d="M0 0h18v18H0z"/><path d="M9.01 4H4.5c.32.43.7.8 1.13 1.11 1.23.95 2.53 1.46 4.14 2.39 1.08.64 1.98 1.15 2.64 1.93.35.42.56.96.59 1.51V8.56c0-.66 0-2.6-3.99-4.56z" fill="url(#a0u10jcdg)"/><path d="M12.42 10.13l-.18.17s-.9.85-2.67 1.66c-.45.2-1.57.54-1.57.54V15c1.62-.7 3.18-1.28 3.97-2.37.41-.52.64-1.13.66-1.76v-.1c-.02-.23-.1-.44-.21-.64z" fill="#123C8A"/><path d="M7.94 7.05L7.86 7H6.43a.4.4 0 0 0-.3.15.54.54 0 0 0-.13.35c0 .13.05.26.13.35.08.1.19.15.3.15h3.1c-.57-.36-1.09-.66-1.59-.95zm4.13 2.46a4.78 4.78 0 0 0-.45-.51H6.43a.4.4 0 0 0-.3.15.54.54 0 0 0-.13.35c0 .13.05.26.13.35.08.1.19.15.3.15h5.93a2.39 2.39 0 0 0-.3-.5zM6.44 11h4.78a.4.4 0 0 1 .17.04c.06.02.1.06.15.1l.1.17a.55.55 0 0 1-.1.54.44.44 0 0 1-.15.11.4.4 0 0 1-.17.04H6.44a.42.42 0 0 1-.31-.15.53.53 0 0 1-.13-.35c0-.13.05-.26.13-.35.08-.1.2-.15.31-.15z" fill="#F69E01"/><defs><linearGradient id="a0u10jcdg" x1="13.26" y1="7.47" x2="4.76" y2="7.47" gradientUnits="userSpaceOnUse"><stop stop-color="#468DCC"/><stop offset=".5" stop-color="#123C8A"/></linearGradient></defs></svg>