<!-- by TradingView --><svg width="18" height="18" viewBox="0 0 18 18" fill="none" xmlns="http://www.w3.org/2000/svg">
<rect width="18" height="18" fill="#F0F3FA"/>
<path fill-rule="evenodd" clip-rule="evenodd" d="M8.56642 6.96167C9.82685 6.30778 12.8007 5 14.6128 5C15.4988 5.04087 16.8666 5.52475 15.2492 7.13332C15.6111 6.58569 15.9905 5.49042 14.6128 5.49042C13.235 5.49042 10.0078 6.47125 8.56642 6.96167ZM5.35159 7C5.86063 7 6.33189 7.13756 6.71679 7.37135V8.4151C6.44435 8.16364 6.00084 8 5.5 8C4.67157 8 4 8.44772 4 9C4 9.55228 4.67157 10 5.5 10C6.00084 10 6.44435 9.83636 6.71679 9.5849V10.6286C6.33189 10.8624 5.86063 11 5.35159 11C4.05284 11 3 10.1046 3 9C3 7.89543 4.05284 7 5.35159 7ZM9.31541 7C9.81662 7 10.2806 7.13756 10.6596 7.37135V8.36563C10.3845 8.14239 9.9672 8 9.5 8C8.67157 8 8 8.44772 8 9C8 9.55228 8.67157 10 9.5 10C9.9672 10 10.3845 9.85761 10.6596 9.63437V10.2323C9.97891 10.4991 9.23781 10.7512 8.68907 10.926C7.7146 10.69 7 9.91709 7 9C7 7.89543 8.03664 7 9.31541 7ZM11 10.5318V11H12V10.0615C11.7052 10.2017 11.3556 10.3666 11 10.5318ZM12.1982 9.50006H12V9.62336C11.7382 9.77344 11.3873 9.9351 11 10.0953V7H14V8H12V8.50006H14V9.50006H12.2021L12.2015 9.49774L12.1982 9.50006ZM2 12.2784C2 11.6145 2.62231 10.9314 2.93347 10.6728C1.67802 12.4335 2.92445 12.6813 3.70459 12.5851C6.05314 12.5851 10.4798 10.5561 12.2927 9.50977C9.78988 11.873 4.66512 13 3.40697 13C2.40044 13 2.0496 12.5189 2 12.2784Z" fill="#0E284B"/>
</svg>
