<!-- by TradingView --><svg xmlns="http://www.w3.org/2000/svg" width="18" height="18"><path fill="#F0F3FA" d="M0 0h18v18H0z"/><path d="M9 9a3.5 3.5 0 11-7 0 3.5 3.5 0 017 0z" fill="#07E"/><path d="M16 9a3.5 3.5 0 11-7 0 3.5 3.5 0 017 0z" fill="#00A82D"/><path d="M14.17 7.34a5 5 0 00-3.88.85c-.1-.1-.35-.3-.55-.32-.25-.03-.3.23-.28.43 0 .2-.06.5-.11.67a.89.89 0 00-.04.27c0 .16.16.48.68.47.53-.01.67-.28.68-.41.49.35 1.62 1 2.28.81.66-.2 1.18-1.14 1.36-1.59.58.45 1.23-.07 1.33-.22.1-.15.04-.38-.18-.48-.2-.11-.4-.34-.51-.63-.09-.24-.27-.29-.35-.29-.28.02-.4.3-.43.44z" fill="#fff"/><path d="M14.59 6.67c.17 0 .45.1.58.44.09.24.25.42.4.5.3.14.48.52.26.82-.04.07-.12.15-.22.22s-.23.15-.37.2a1.1 1.1 0 01-.82 0c-.1.22-.24.47-.42.7-.24.33-.58.67-.98.79-.21.06-.45.05-.68 0a3.4 3.4 0 01-.68-.22 6.19 6.19 0 01-.9-.48c-.14.17-.39.3-.76.3a.96.96 0 01-.7-.23.7.7 0 01-.22-.45c-.01-.07 0-.2.04-.36.05-.16.1-.43.1-.6 0-.1 0-.26.07-.4.03-.08.1-.15.18-.2.1-.06.2-.07.3-.06.16.02.3.1.41.17l.12.08A5.34 5.34 0 0114 7.1l.1-.15c.09-.13.25-.25.47-.27zm-.42.67a5 5 0 00-3.88.85c-.1-.1-.35-.3-.55-.32-.25-.03-.3.23-.28.43 0 .2-.06.5-.11.67a.89.89 0 00-.04.27c0 .16.16.48.68.47.45-.07.59-.3.68-.4m0 0c.55.36 1.7.97 2.28.8.57-.16 1.03-.88 1.26-1.37.04-.08.08-.15.1-.22.07.06.14.1.2.12.52.21 1.04-.2 1.13-.34.1-.15.04-.38-.18-.48-.2-.1-.4-.34-.51-.63-.09-.24-.27-.29-.35-.29-.28.02-.4.3-.43.44"/><ellipse cx="11.01" cy="8.3" rx=".18" ry=".25"/><ellipse rx=".18" ry=".25" transform="matrix(.83698 -.54724 .55843 .82955 13.65 7.7)"/><ellipse rx=".65" ry=".19" transform="matrix(.95964 -.28123 .28887 .95737 12.4 8.2)"/><path d="M14.16 8.25l.1-.01a.44.44 0 00-.04-.12.2.2 0 00-.06-.07.14.14 0 00-.14-.02c-.08.04-.1.1-.1.15v.07a.78.78 0 01-.28.3c-.2.15-.51.31-1 .44-.49.12-.86.12-1.13.08a1 1 0 01-.47-.16.46.46 0 00-.06-.08c-.03-.02-.09-.07-.17-.07a.2.2 0 00-.15.1.3.3 0 00-.04.11l.2.03c.01.01.03.03.03.05l.01.01.01.01c.1.1.3.2.6.24.3.04.71.03 1.22-.1.52-.13.86-.3 1.1-.47.21-.16.33-.33.36-.46v-.03z"/><path d="M14.31 10.82c-.43-.03-.8-.14-.93-.2l-.03-.13.44-.11h-.49v-.25c.39-.34.7-.44.81-.45.23.32.23.9.2 1.14zm-2.74-.65c.44.03.8.14.94.19l.03.14-.44.1h.48v.26c-.38.33-.7.43-.8.44-.23-.32-.23-.89-.2-1.13zm1.06.14c.06-.03.26-.1.54-.11l.01.03c.03.08.1.26.1.47a1 1 0 01-.56.1.78.78 0 01-.1-.49z" fill="#C8161D"/><path d="M5.43 7.88c-.4-.01-.56-.37-.57-.54.24-.04.77-.22 1-.3.1.08.1.25.1.3-.04.44-.37.54-.53.54zm-.09-1.32c.23 0 .37.13.4.2-.3.26-.73.43-.91.49a.52.52 0 01.51-.68z" fill="#fff"/><path d="M5.74 6.76c-.35.28-.73.43-.88.48 1.01-.22 1.28-.51 1.29-.63a.87.87 0 00-.41.15z" fill="#FA0"/><path d="M6.84 7.34c.02-.14-.07-.18-.12-.19-.05 0-.1.06-.11.09-.28.52-.69.7-.86.7h-.99c-.46 0-.9.47-1 .64a.21.21 0 000 .21c.05.09.15.04.2 0 .25-.37.46-.4.65-.4.16 0 .23.04.24.07v.55a.63.63 0 01-.6.49c-.23.01-.46-.17-.55-.27-.11.2-.34.61-.34.7 0 .1.07.14.12.14.05 0 .2-.13.28-.19.18.17.81.26 1.24-.1.35-.29.68-.34.8-.33.58 0 .9.58.98.87.26-.18.8-.54.8-.63.02-.1-.05-.13-.1-.12l-.43.09c-.31-.68-.88-.78-1.13-.75v-.57c.8-.24.9-.83.92-1z" fill="#fff"/><path d="M7.97 10.46l-.23-.43c-.5.19-1.17.54-2.72.6-.99.03-1.65-.2-1.86-.32l-.13.15c.25.21 1.06.64 2.25.63a6.71 6.71 0 002.69-.63z" fill="#fff"/></svg>