<!-- by TradingView --><svg width="18" height="18" viewBox="0 0 18 18" xmlns="http://www.w3.org/2000/svg"><path fill="#F0F3FA" d="M0 0h18v18H0z"/><path d="M13 8a1 1 0 1 0 0-2 1 1 0 0 0 0 2Z" fill="#98A3AF"/><path d="M5 8a1 1 0 1 0 0-2 1 1 0 0 0 0 2Z" fill="#353558"/><path d="M9 8a1 1 0 1 0 0-2 1 1 0 0 0 0 2Z" fill="#9580B8"/><path d="M7.12 9.26c.29.37.42.8.38 1.3l-.1.29c-.04.15-.33.2-.47.1-.03-.03-.07-.1-.12-.2-.13-.31-.34-.54-.62-.7A1.87 1.87 0 0 0 4.44 10c-.36.16-.61.41-.76.75-.08.2-.19.31-.44.24-.14-.05-.17-.18-.2-.32-.16-.73.2-1.52.96-1.92a2.6 2.6 0 0 1 2.23-.14c.35.14.64.35.89.66Z" fill="#353558"/><path d="M10.89 9.26v.03c-.02 0-.04 0-.05.02-.26.36-.38.77-.35 1.25-.38-.5-.88-.76-1.5-.76a1.81 1.81 0 0 0-1.5.76 1.8 1.8 0 0 0-.37-1.3 2.4 2.4 0 0 1 1.93-.84 2.49 2.49 0 0 1 1.84.84Z" fill="#9580B8"/><path d="M11.25 10.56c.03-.49-.09-.91-.36-1.27v-.03c.22-.37.78-.66 1.24-.77 1.59-.38 3.13.77 2.83 2.15a.8.8 0 0 1-.1.26c-.07.12-.3.12-.43.04a.63.63 0 0 1-.12-.2c-.29-.64-1.04-1.02-1.84-.91-.5.06-.9.3-1.22.73Z" fill="#98A3AF"/><path d="M10.9 9.29c.26.36.38.78.35 1.27l-.1.3c-.02.06-.08.1-.2.13-.15.03-.27 0-.35-.12l-.01-.02-.1-.3c-.03-.47.09-.88.35-1.24a.04.04 0 0 1 .05-.02Z" fill="#70658E"/></svg>