<!-- by TradingView --><svg width="18" height="18" viewBox="0 0 18 18" xmlns="http://www.w3.org/2000/svg"><path fill="#F0F3FA" d="M0 0h18v18H0z"/><path fill-rule="evenodd" d="M10.2 6c.81-.48 1.94-1 2.91-1 .7 0 .88.38.88.56-.4-.2-1.71-.26-3.9 1.02l-.08.42H8.4l.23-1h1.58ZM3.09 6 2 12h1.71a1.2 1.2 0 0 0-.07.4c0 .27.15.37.23.38 0-.06-.02-.34.12-.78 2.61 0 3.44-2.18 3.53-3.27 0-2.26-1.3-2.76-1.95-2.73H3.08Zm1.4 1.22a41.08 41.08 0 0 1-.56 3.18c.5 0 1.79-.21 1.79-1.86 0-1.32-.82-1.43-1.22-1.32Zm5 3.56L7.6 12l.75-4h1.58l-.44 2.78ZM14.1 6c.64.03 1.91.53 1.91 2.32 0 2.23-1.59 3.68-3.43 3.68-1.47 0-2.06-1.47-2.13-2.11l2.13-2a6.8 6.8 0 0 0-.29 1.91c0 .72.44.87.66.85.4 0 1.22-.45 1.22-2.37.03-.36-.18-1.24-.92-1.14L14.1 6Z" fill="#164EA2"/><path d="M4.44 13c-.55 0-.76-.28-.8-.42 3.71.98 9.6-5.84 10-6.46.32-.5.34-.96.3-1.12.1.05.31.26.31.64 0 1.06-2.4 3.5-4.59 5.2A9.94 9.94 0 0 1 4.44 13Z" fill="#F5D84E"/></svg>