<!-- by TradingView --><svg width="18" height="18" viewBox="0 0 18 18" fill="none" xmlns="http://www.w3.org/2000/svg">
<rect width="18" height="18" fill="#FC021B"/>
<path fill-rule="evenodd" clip-rule="evenodd" d="M14.6 6L14.763 5.39001C14.7731 5.22185 14.3156 5.08464 14.1167 5.02499L14.1167 5.02498L14.1166 5.02498L14.1166 5.02498C14.0795 5.01385 14.0514 5.00542 14.0371 5C13.9587 5.08855 13.8994 5.29542 13.8394 5.50496C13.7844 5.69694 13.7287 5.89115 13.6572 5.99865H12.9999C12.9807 5.90524 12.9706 5.77401 12.9599 5.63488V5.63487C12.9416 5.39602 12.9215 5.1339 12.85 5L12.15 5.30886L12.2476 5.99769L11.1612 6.00178L11.1 7H13.3233L13.1185 7.24885C12.6953 7.30266 11.7019 7.44309 11.45 7.66667C11.411 7.75674 10.9779 10.4372 10.9999 10.619C11.5898 10.835 12.1086 11.0018 12.6153 11C13.3572 10.9974 13.9751 10.876 14.8499 10.619L15.3 7.66667C15.0768 7.49073 14.3386 7.33445 13.9999 7.28571C14.0162 7.2002 14.081 7.15329 14.1466 7.10581C14.1875 7.07621 14.2287 7.04638 14.2587 7.00684L15.9341 7L16 6H14.6ZM4.51358 7.4415L4.44841 7.39845L4.8 7L8.99898 7L9 6L5.17907 6L5.38754 5.34614C5.30287 5.25704 4.76911 5.01525 4.63456 5L4.21753 6L2.69999 6V7.00021L3.8638 7C3.75548 7.3743 2.79299 8.53868 2.2951 9.14101C2.12412 9.34785 2.00793 9.48841 1.99994 9.50794C2.09103 9.61172 2.53731 9.95989 2.68229 10C2.73952 9.87874 2.83116 9.74496 2.92416 9.6092L2.92416 9.6092C2.97883 9.5294 3.03396 9.44892 3.08285 9.36989C3.14759 9.26524 3.25371 9.18837 3.35186 9.11726C3.40654 9.07765 3.45874 9.03983 3.49995 9L2.99994 12.9951L3.99994 12.9992C4.02652 12.724 4.04049 12.431 4.0547 12.1328V12.1328C4.08485 11.5002 4.11613 10.8441 4.27131 10.2844C4.35396 9.9864 5.97901 9.60506 6.3962 9.62462L7.25 9.57143L7.23957 9.72938L7.2165 10.3174L7.15605 10.4361L7.04863 10.4197C6.91762 10.4185 6.82588 10.3975 6.73311 10.3763C6.61901 10.3503 6.50335 10.3238 6.31117 10.3333C5.54596 10.3711 5.16045 10.7711 5.15 11.3915C5.13653 12.1899 5.66803 12.491 6.28912 12.6905C6.6694 12.8126 7.59221 13.0121 7.99994 12.9992L8.1319 11.5906C8.27674 11.5829 8.88027 11.9045 9.32623 12.1421C9.51942 12.245 9.68304 12.3322 9.76699 12.37C10.775 12.8242 11.9066 12.9829 13.025 13C13.9 13 14.4999 13 15.65 12.7619C15.648 12.606 15.5306 12.1719 15.475 12C14.6811 12.1949 13.8044 12.2456 12.9923 12.2381C12.2174 12.2309 10.9005 12.0627 10.283 11.5821C10.349 11.2896 10.3973 10.7898 10.4 10.1429C10.4008 9.95546 10.3777 9.75572 10.3185 9.54509C10.1713 9.02129 9.83758 8.5386 9.35 8.42857L8.99066 9.19048C9.05188 9.23594 9.11414 9.27454 9.17517 9.31238L9.17517 9.31239L9.17518 9.31239L9.17518 9.31239L9.17518 9.31239C9.39082 9.4461 9.59116 9.57031 9.67639 9.95415C9.69672 10.0457 9.70362 10.1445 9.7 10.2454C9.68871 10.5596 9.63779 10.8943 9.50994 11.0952L8.29999 10.5828L8.65 7.76864C8.58363 7.74869 8.51651 7.72829 8.44875 7.70769C7.87437 7.53307 7.25407 7.34449 6.66195 7.30286C6.53101 7.29366 6.40702 7.28818 6.2896 7.28571C5.6644 7.2726 5.2256 7.34499 4.91832 7.39569C4.74473 7.42433 4.61311 7.44604 4.51358 7.4415ZM4.28311 8.93726L4.28308 8.93727L4.28304 8.93727L4.283 8.93728L4.28285 8.93732C4.19279 8.95762 4.10002 8.97853 4.00277 9C3.98339 8.86831 4.06929 8.26408 4.14268 8.15745C5.67342 7.92452 6.51981 7.97261 8 8.15488V8.553C7.98677 8.55564 7.83174 8.56162 7.60694 8.57029C7.09228 8.59014 6.21191 8.6241 5.83 8.6644C5.19737 8.73118 4.78168 8.82488 4.28311 8.93726ZM12.1499 9.57145H14.2036L14.2499 9.19231L12.1878 9.1905L12.1499 9.57145ZM12.1524 8.42859L12.1499 8.35322L12.1646 8.17093C12.3884 8.08413 13.0829 8.00068 13.3799 8.00003C13.6885 7.99936 13.9291 8.04167 14.1761 8.0851C14.3102 8.10869 14.4461 8.1326 14.5959 8.15014L14.596 8.15418C14.5989 8.27392 14.6018 8.39566 14.4828 8.42859H12.1524ZM7 11.1622L6.99041 11.1585C6.77112 11.0744 5.92262 10.7489 6.0057 11.382C6.05173 11.7327 6.66708 11.9721 6.94533 12L7 11.1622ZM13.9568 10.2953C13.36 10.4931 12.6053 10.4253 11.9999 10.2971L12.0344 10H13.9998C14.0008 10.103 13.9977 10.2174 13.9568 10.2953Z" fill="#F0F3FA"/>
<path d="M10.9999 7.56298C10.7894 7.44895 9.84571 7.03098 9.50199 7L8.99994 7.47705C9.535 7.60336 10.3294 7.98038 10.4077 8C10.5047 7.95394 10.9583 7.6237 10.9999 7.56298Z" fill="#F0F3FA"/>
</svg>
