<!-- by TradingView --><svg width="18" height="18" viewBox="0 0 18 18" xmlns="http://www.w3.org/2000/svg"><path fill="#F0F3FA" d="M0 0h18v18H0z"/><path d="M4.5 6H3v6h1.5V6ZM9 6H5v1.5h2.5v3H5V12h4V6Z" fill="#AAAFB5"/><path d="M4.5 11.44 3 12h1.5v-.56Z" fill="#192026"/><path d="M7.5 12H5v-.75l2.5-.75V12Z" fill="#3E4C57"/><path d="m9 11.44-1.5-.94V12l1.5-.56Z" fill="#192026"/><path d="M9 12H7.5l1.5-.56V12Z" fill="#3E4C57"/><path d="M15 6H9.5v6H15V8h-2.5v1.5h1v1H11v-3h4V6Z" fill="#F2E694"/><path d="m10 12-.5-.37V12h.5Z" fill="#36473D"/><path d="m12.5 10.5-2 1.5h3l-1-1.5Z" fill="#E99A01"/><path d="M13.5 10.5h-1l1 1.5v-1.5Z" fill="#36473D"/><path d="M13.5 10.5V12L15 9l-1.5 1.5Z" fill="#E99A01"/><path d="M15 12V9l-1.5 3H15Z" fill="#36473D"/></svg>