<!-- by TradingView --><svg width="18" height="18" viewBox="0 0 18 18" xmlns="http://www.w3.org/2000/svg"><path fill="#F0F3FA" d="M0 0h18v18H0z"/><path fill-rule="evenodd" d="M9 4h-.89v1.73c-.32-.2-.7-.3-1.11-.3-1.1 0-2 .8-2 1.78C5 8.2 5.9 9 7 9c.41 0 .8-.11 1.11-.3V9H9V4Zm-.89 3.22c0 .59-.5 1.07-1.11 1.07A1.1 1.1 0 0 1 5.89 7.2c0-.59.5-1.07 1.11-1.07.61 0 1.1.48 1.11 1.07ZM13 4h-3v.7h3V4Zm0 6h-3v.7h3V10Zm-3-4h3v.7h-3V6Zm3 5.67h-3v.66h3v-.66ZM10 8h3v.7h-3V8Zm3 5.3h-3v.7h3v-.7ZM5 10v4h2.17C7.95 14 9 13.84 9 12.95c0-.7-.6-.98-.9-1.03.2-.09.61-.38.61-.84 0-.86-.9-1.08-1.34-1.08H5Zm2.1.62H5.9v.92h1.2c.35 0 .63-.2.63-.46s-.28-.46-.63-.46Zm.24 1.53H5.91v1.23h1.43c.42 0 .75-.27.75-.61 0-.34-.33-.62-.75-.62Z"/></svg>