<!-- by TradingView --><svg width="18" height="18" xmlns="http://www.w3.org/2000/svg"><path fill="url(#paint0_linear)" d="M0 0h18v18H0z"/><path d="M4.712 14s-.71 0-.71-.142c0-.111.041-.122.28-.14.595-.035.718-.448.718-1.119V4.884c-.077-.416-.204-.6-.655-.617C4.119 4.259 4 4.279 4 4.143c0-.137-.012-.156.938-.137h2.758c3.362.053 6.3.771 6.3 4.757.126 3.25-1.537 5.237-4.442 5.216C7.939 14 6.313 14 4.712 14zm4.805-1c2.082-.23 2.465-1.965 2.483-4.237.018-2.272-1.173-3.764-4.06-3.764-.574-.002-.707.08-.803.18-.046.05-.122.084-.137.488-.023.588-.03 5.687-.003 6.08.023.355.038.625.08.725.294.69 2.44.528 2.44.528z" fill="#fff"/><defs><linearGradient id="paint0_linear" x1="3.349" y1="3.122" x2="21.904" y2="24.434" gradientUnits="userSpaceOnUse"><stop stop-color="#1A1E21"/><stop offset="1" stop-color="#06060A"/></linearGradient></defs></svg>