<!-- by TradingView --><svg width="18" height="18" xmlns="http://www.w3.org/2000/svg"><path fill="url(#paint0_linear)" d="M0 0h18v18H0z"/><path d="M12.335 5.665H5.664v6.671h6.671V5.665z" fill="#fff"/><path d="M13.249 9v-.002c0-.657.027-1.243.514-2.278.143-.3.453-.74-.005-1.25-.372-.372-.797-.31-1.082-.146.163-.285.226-.71-.147-1.083-.51-.459-.95-.147-1.25-.007-1.033.49-1.62.517-2.28.517-.659 0-1.246-.027-2.28-.517-.299-.14-.74-.451-1.249.007-.371.373-.31.798-.147 1.083-.286-.164-.71-.226-1.082.146-.459.51-.147.95-.006 1.25.488 1.035.514 1.62.514 2.28 0 .658-.026 1.246-.514 2.28-.141.3-.453.74.006 1.25.372.371.796.309 1.082.147-.164.284-.226.71.147 1.082.51.459.95.148 1.25.005 1.033-.488 1.62-.515 2.28-.515.658 0 1.246.027 2.278.514.302.144.74.455 1.251-.004.372-.373.31-.798.146-1.082.286.163.711.225 1.083-.146.458-.511.148-.952.005-1.251-.487-1.035-.514-1.622-.514-2.28zm-1.13 3.126l-2.422-2.032s-.327-.32-.698-.32c-.37 0-.699.32-.699.32l-2.42 2.032-.009-.007 2.034-2.421s.319-.328.319-.699c0-.37-.32-.697-.32-.697L5.872 5.88l.01-.009L8.3 7.904s.328.32.698.32c.37 0 .698-.32.698-.32l2.42-2.032.008.008-2.03 2.422s-.32.327-.32.697c0 .371.32.699.32.699l2.03 2.42-.007.008z" fill="#C00"/><defs><linearGradient id="paint0_linear" x1="3.349" y1="3.122" x2="21.904" y2="24.434" gradientUnits="userSpaceOnUse"><stop stop-color="#1A1E21"/><stop offset="1" stop-color="#06060A"/></linearGradient></defs></svg>