<!-- by TradingView --><svg width="18" height="18" viewBox="0 0 18 18" xmlns="http://www.w3.org/2000/svg"><path fill="url(#ayw51hi5u)" d="M0 0h18v18H0z"/><path d="m6.43 11.26-.93-.44a.94.94 0 0 1-.5-.78V8.21l.93.44c.28.13.5.48.5.78v1.83ZM8.21 13.3l-.93-.47a1 1 0 0 1-.5-.82V9.22l.94.47c.27.14.5.51.5.83v2.78ZM10 15l-.93-.45a.97.97 0 0 1-.5-.8v-3.5l.93.45c.28.13.5.49.5.8V15ZM12.53 9.55v.82c0 .24-.22.55-.5.69l-1.7.85v-.82c0-.24.23-.55.5-.69l1.7-.85ZM13.27 7.49v.8c0 .23-.23.53-.5.67l-2.44 1.18v-.8c0-.23.23-.53.5-.67l2.44-1.18ZM14 5.43v.78c0 .23-.23.52-.5.66l-3.17 1.5V7.6c0-.23.23-.52.5-.66L14 5.43ZM8.25 5.07l.89-.48c.26-.14.71-.12 1.02.04l1.84.99-.89.47c-.26.14-.71.12-1.02-.04l-1.84-.98ZM5.63 5.72l.87-.46c.26-.13.72-.11 1.01.04l2.62 1.35-.88.45c-.26.14-.72.12-1.01-.03L5.63 5.72ZM3 6.12l.87-.5c.26-.16.71-.14 1 .03L8.26 7.6l-.87.5c-.26.15-.71.14-1-.04L3 6.12Z" fill="#F0F3FA"/><defs><linearGradient id="ayw51hi5u" x1="0" y1="13.5" x2="18" y2="2.73" gradientUnits="userSpaceOnUse"><stop stop-color="#01506E"/><stop offset=".74" stop-color="#001A2B"/></linearGradient></defs></svg>