<!-- by TradingView --><svg width="18" height="18" xmlns="http://www.w3.org/2000/svg"><path fill="#0063CE" d="M0 0h18v18H0z"/><path d="M6.614 10.114a2.148 2.148 0 01.134-.784 2.04 2.04 0 01.406-.667c.176-.192.385-.344.616-.447a1.779 1.779 0 011.46 0c.23.103.44.255.615.447.176.191.314.418.407.667.093.25.138.516.134.784a2.093 2.093 0 01-.564 1.406c-.353.372-.827.58-1.322.58-.495 0-.97-.208-1.322-.58a2.092 2.092 0 01-.564-1.406zM10.996 3v3c-.76-.563-1.57-.77-2.495-.768-.756-.002-1.5.2-2.166.585.35-.102.713-.149 1.076-.14 1.91.05 3.396 1.609 3.58 3.595a.58.58 0 01.005.08H13V3h-2.004zM5.942 9.353C6.26 8.16 7.285 7.265 8.501 7.265c.652 0 1.249.251 1.712.669a3.461 3.461 0 00-1.184-1.3A3.163 3.163 0 007.4 6.13a3.155 3.155 0 00-1.761.486c-.534.334-.97.821-1.259 1.406-.155.348-.27.715-.344 1.092-.01.073-.02.166-.026.24h1.931zm3.65 5.2c-1.911-.05-3.452-1.623-3.637-3.609l-.012-.18H4C4.35 13.09 6.232 15 8.501 15c.756.001 1.501-.2 2.166-.585-.35.101-.713.148-1.076.138zm1.468-3.788c-.318 1.193-1.343 2.201-2.559 2.201a2.545 2.545 0 01-1.711-.669 3.46 3.46 0 001.183 1.3c.493.316 1.054.49 1.629.505a3.155 3.155 0 001.76-.486c.534-.335.97-.821 1.26-1.406.154-.348.269-.715.342-1.093.03-.176.03-.352.03-.352H11.06z" fill="#fff"/></svg>