<!-- by TradingView --><svg width="18" height="18" viewBox="0 0 18 18" xmlns="http://www.w3.org/2000/svg"><path fill="#F0F3FA" d="M0 0h18v18H0z"/><path d="M5 13.98V4.01a31.5 31.5 0 0 1 1.6 0 4065.43 4065.43 0 0 1 1.5 0 62.47 62.47 0 0 1 1.86.03c.6.06 1.17.26 1.7.58a4.8 4.8 0 0 1 1.8 2.02 5.36 5.36 0 0 1-.46 5.48 4.12 4.12 0 0 1-3.16 1.84L8.9 14a129.45 129.45 0 0 1-3.9-.02Zm1.03-8.83.03 7.68-.03.02a.03.03 0 0 0 .02.01c1.26 0 2.53.08 3.78-.03.51-.04.99-.2 1.42-.5a4.03 4.03 0 0 0 1.63-4.2 4.04 4.04 0 0 0-.68-1.54c-.33-.45-.73-.81-1.21-1.08-.36-.2-.76-.31-1.18-.35-1.25-.12-2.5-.05-3.75-.05l-.03.04Z" fill="#263845"/><path d="M12.02 8.77a3.06 3.06 0 0 1-1.03 2.5 2.37 2.37 0 0 1-1.69.58H6.92l-.01-.02a22.15 22.15 0 0 1 0-1.6c0-.1.02-.17.1-.2a3053.03 3053.03 0 0 1 3.8-2.43 1.76 1.76 0 0 0-.97-.65 2.78 2.78 0 0 0-.63-.04 163.68 163.68 0 0 1-1.54.01v.79a281.81 281.81 0 0 1 1.46.02.03.03 0 0 1 0 .03l-1.57 1a.75.75 0 0 1-.26.12c-.19.01-.3-.08-.37-.26a972.11 972.11 0 0 0 0-2.56 5170.17 5170.17 0 0 0 2.72.01c.56.06 1.05.28 1.46.67.29.26.52.62.7 1.06.03.06.03.11 0 .16l-.13.08-3.94 2.49a.32.32 0 0 0-.07.09.1.1 0 0 0-.02.04 1.37 1.37 0 0 0 0 .35h.02a1136.73 1136.73 0 0 1 2-.02 1.77 1.77 0 0 0 1.2-.76v-.02l-.01-.02h-.02a3098.36 3098.36 0 0 1-1.06-.03l.01-.01a3073.55 3073.55 0 0 1 2.23-1.38Z" fill="#3C7F83"/></svg>