<!-- by TradingView --><svg width="18" height="18" xmlns="http://www.w3.org/2000/svg"><path fill="#E22739" d="M0 0h18v18H0z"/><path d="M10.98 8.379v2.337c0 .526-.36.61-.74.631-.378.021-.738-.042-.738-.547V8.379H9.9v2.295c0 .231.19.252.34.252.171-.021.342-.042.342-.252V8.379h.398zm0 0h-.398V7.326c0-.21-.17-.231-.341-.231-.152-.021-.34 0-.34.231L9.9 8.38h-.398V7.2c0-.505.36-.569.74-.547.378.02.738.105.738.61V8.38zm-1.876 0v1.073c0 .443-.34.548-.587.548h-.512v1.347c-.076 0-.303-.021-.397-.021V8.379h.397v1.179h.531c.095 0 .152-.021.152-.19V8.38h.416zm-1.496 0V6.695a7.695 7.695 0 011.06-.064c.19 0 .436.106.436.485v1.263h-.416v-1.2c0-.084-.039-.105-.076-.105-.038 0-.569.02-.607.02V8.38h-.397zm6.611 2.105a7.582 7.582 0 01-.379.168V7.81a3.302 3.302 0 00-.549-.189V7.18c.701.19 1.061.4 1.459.674v.526a2.283 2.283 0 00-.53-.358v2.463zm-2.425.674c-.151.042-.227.042-.397.084V6.78c.17.021.265.021.416.063l.663 2.716v-2.61c.17.041.247.062.398.105v3.915c-.151.043-.265.043-.416.084l-.664-2.589v2.695zm-5.153-4.4v3.852c0 .59-.36.59-.739.527-.378-.085-.72-.126-.72-.653V7.053l.38-.106v3.495c0 .19.17.21.34.253.171.021.342.063.342-.169V6.821l.397-.063zm-1.894 1.62v1.896c0 .295-.227.505-.436.42-.227-.083-.7-.273-.947-.462V8.379h.398v1.62c.133.043.284.127.398.19.151.043.19-.02.19-.126V8.379h.397zm-.398 0v-.441c0-.084-.057-.169-.151-.127-.076.043-.303.127-.436.211v.358h-.398v-.61c.265-.19.682-.38.872-.443.208-.084.511.043.511.4v.653H4.35zm4.66-2.062c-3.902 0-6.725 1.053-6.725 2.673 0 1.643 2.823 2.695 6.726 2.695V12C4.955 12 2 10.82 2 8.99 2 7.178 4.955 6 9.01 6v.316zm0 5.368c3.903 0 6.726-1.052 6.726-2.695 0-1.62-2.822-2.673-6.725-2.673V6C13.064 6 16 7.179 16 8.99 16 10.82 13.064 12 9.01 12v-.316z" fill="#fff"/></svg>