<!-- by TradingView --><svg width="18" height="18" viewBox="0 0 18 18" xmlns="http://www.w3.org/2000/svg"><path fill="#F0F3FA" d="M0 0h18v18H0z"/><path d="M9 3.73c-.54-.65-1.48-.94-2.15-.56-.72.43-.85 1.49-.35 2.27.16.25.41.46.7.63A4.03 4.03 0 0 0 5 9.57C5 12.18 9 15 9 15s4-3 4-5.44c0-1.44-.9-2.81-2.2-3.49.29-.17.54-.38.7-.63.5-.78.37-1.84-.36-2.27-.66-.38-1.6-.1-2.14.56Z" fill="#136E42"/><path d="M12.2 9.53c0 1.95-3.2 4.35-3.2 4.35s-3.2-2.26-3.2-4.36A3.24 3.24 0 0 1 9 6.38c1.77 0 3.2 1.5 3.2 3.15Z" fill="#F42434"/><path d="M8.8 6c-1.08-.48-2.27-1.71-1.43-2.14C8.2 3.43 8.65 5.05 8.8 6ZM9.2 6c1.08-.48 2.4-1.64 1.43-2.14C9.67 3.36 9.35 5.05 9.2 6Z" fill="#87C12E"/></svg>