<!-- by TradingView --><svg width="18" height="18" viewBox="0 0 18 18" xmlns="http://www.w3.org/2000/svg"><path fill="#F0F3FA" d="M0 0h18v18H0z"/><path d="M13.42 13H14l-2.5-6.55C11.17 5.64 10.5 4 9 4S6.83 5.64 6.5 6.45L4 13h.73c.2-.67.5-1.41.77-1.64.25-.2.38-.5.5-.81.13-.31.25-.62.5-.82.5-.41 1-2.05 1-2.46 0-.4.5-1.63 1-1.63.29 0 .57.53.86 1.06.21.4.43.8.64.98.5.41 1 1.23 1.5 2.05.2.31.38.56.55.78.26.35.45.6.45.85 0 .23.47.97.92 1.64Zm-.71 0c-.2-.5-.46-1.03-.71-1.23-.25-.2-.38-.4-.5-.61-.13-.2-.25-.41-.5-.61-.5-.41-1.5-1.23-1.5-1.64 0-.41-1-2.05-1-1.64v2.05c0 .37 0 .49-.05.58-.05.12-.18.2-.45.65a3.5 3.5 0 0 0-.5 1.63l-.25.82h5.46Z" fill="#145092"/></svg>