<!-- by TradingView --><svg width="18" height="18" viewBox="0 0 18 18" xmlns="http://www.w3.org/2000/svg"><path fill="url(#aluveeba0)" d="M0 0h18v18H0z"/><path d="M14.64 5.5 3 5.51V6h12l-.36-.5Z" fill="url(#bluveeba0)"/><path d="M3.49 5.86v6.64h-.48L3 5.5l.49.36Z" fill="url(#cluveeba0)"/><path d="M12.4 8.24h.55c.88 0 1.16.51 1.16 1.32 0 .89-.48 1.2-1 1.2h-.71V8.24Zm-.96 3.26h1.73c1.23 0 1.83-.86 1.83-2.02 0-1.33-.79-1.98-1.83-1.98h-1.74v4ZM5.53 11.5c1.24 0 1.47-.82 1.47-1.32V7.5H6v2.64c0 .27 0 .64-.48.64-.43 0-.53-.27-.53-.65V10h-.82v.3c0 .84.67 1.2 1.36 1.2ZM9.35 8.2c.44 0 .82.3.88.67h.86C10.98 8 10.23 7.5 9.35 7.5c-1.25 0-1.98.88-1.98 2.02 0 1.1.73 1.98 1.98 1.98.97 0 1.65-.58 1.76-1.5h-.86c-.08.47-.38.8-.9.8-.8 0-1.1-.65-1.1-1.28 0-.67.3-1.31 1.1-1.31Z" fill="#fff"/><defs><linearGradient id="aluveeba0" x1="3.35" y1="3.12" x2="21.9" y2="24.43" gradientUnits="userSpaceOnUse"><stop stop-color="#1A1E21"/><stop offset="1" stop-color="#06060A"/></linearGradient><linearGradient id="bluveeba0" x1="14.5" y1="5.5" x2="13.6" y2="8.72" gradientUnits="userSpaceOnUse"><stop stop-color="#fff" stop-opacity="0"/><stop offset="1" stop-color="#fff"/></linearGradient><linearGradient id="cluveeba0" x1="3.13" y1="7.19" x2="2.97" y2="11.5" gradientUnits="userSpaceOnUse"><stop stop-color="#fff"/><stop offset="1" stop-color="#fff" stop-opacity="0"/></linearGradient></defs></svg>