<!-- by TradingView --><svg xmlns="http://www.w3.org/2000/svg" width="18" height="18"><path fill="#12487C" d="M0 0h18v18H0z"/><path d="M10.9 9.21c-.3.3-.84.3-1.16 0a.84.84 0 010-1.17.82.82 0 01.58-.25c.21 0 .42.1.57.25a.824.824 0 01.01 1.17zM9.01 12c-1 0-1.8-.82-1.8-1.82a1.81 1.81 0 011.95-1.8 1.18 1.18 0 001.6 1.37A1.82 1.82 0 019 12zm-.5-5.78a.7.7 0 011.02 0c.27.28.27.74 0 1.02a.7.7 0 01-1.01 0 .72.72 0 010-1.02zm3.21.77L10.4 5.44C9.7 4.64 9 3.5 9 3.5s-.72 1.2-1.42 1.98-1.3 1.5-1.3 1.5c-1.58 1.75-1.74 4.27-.16 5.84a4.1 4.1 0 005.76 0c1.6-1.57 1.46-4.13-.15-5.83z" fill="#fff"/></svg>