<!-- by TradingView --><svg width="18" height="18" viewBox="0 0 18 18" xmlns="http://www.w3.org/2000/svg"><path fill="#F0F3FA" d="M0 0h18v18H0z"/><path d="M4.07 10.26c.3.2.22.4.22.48-.07.27-.22.87-.22 1.12 0 .31.4.53.69.68l1.57.92c.48.5 1.76 1.36 2.97.92 1.51-.56 2.1-.17 2.86-.37.75-.2.68-1.06 1.33-1.94.66-.9 1.25-1.65 1.25-1.98 0-.33-.13-.5.03-1.1.17-.6.23-1.19.23-1.48 0-.23-.26-.86-.4-1.14-.21-.36-.8-1.12-1.4-1.32-.77-.24-1.6-.79-2.05-1.17-.45-.37-1.46-.38-2.26-.38-.8 0-1.28.16-1.48.43-.2.27-.42.47-.75.76-.33.3-1.86.74-2.71 1.26-.86.52-.95 1.62-.95 2.7 0 1.1.76 1.4 1.07 1.6Z" fill="#8F6A25"/><path d="M4.58 10.12c-.06-.12-.6-.2-.47-1.02.13-.82.17-1.3.19-1.57.02-.26-.2-.26 0-.56.2-.3.17-.44.59-.68.42-.23 1.24-.75 1.33-.83.08-.09.7-.78 1.54-1.02a6.36 6.36 0 0 1 1.69-.33c.3.02 1.78.57 2.01.77.16.15.28.38.36.5.06.05.09.08.07.08a4.89 4.89 0 0 0-1.7-.95c-.57-.07-1.05-.24-1.5-.07-.44.17-1.1.36-1.25.44-.16.08-1.19.8-1.4 1.07A8.1 8.1 0 0 0 4.8 8.57c-.22 1.1.37 2.25.23 2.13-.14-.12.89 1.38 1 1.57.13.2.22.72-.19.36-.4-.36-.67-.4-.8-.81-.15-.42-.24-1.53-.46-1.7Z" fill="#CBA34C"/><path d="M13.66 7.4a11.34 11.34 0 0 0-1.6-2.16c-.32-.32-1.1-.98-1.65-1.06-.69-.1-.25-.38.21-.25.47.12 2.4 1.2 2.93 1.5.52.3.92 1.15 1.1 1.47.19.3.11 1.11.09 1.57-.03.45-.16 1.15-.09 1.44.07.28-.08.4-.3.73-.24.34-1.01 1.49-1.15 1.73-.15.24-.64 1.11-.9 1.37-.28.25-.8 0-1.2 0-.4 0-1.92.31-2.41.28a8.57 8.57 0 0 1-2.42-.96c-.07-.14.47-.07.61.14.14.21 1.6.5 2 .54.42.04 1.67-.21 2.06-.26.38-.04 1.11-.42 1.35-.5.24-.06 1.37-1.72 1.5-2.03.13-.3.21-1.23.25-1.5a9.46 9.46 0 0 0-.38-2.05Z" fill="#BE9441"/><path d="M10.6 3.77c-.5-.13-.26.19-.23.26.2.13.68.4.92.45.3.07 1.3.7 1.7.96.38.27 1.44 1.29 1.63 1.37.2.08-.02-.23-.06-.35-.03-.11-.6-.84-.76-1.02-.17-.18-.87-.4-1.06-.48a6.98 6.98 0 0 1-1.25-.75c-.18-.19-.37-.3-.88-.44Z" fill="#FFF797"/><path d="M6.48 12.47c-1.45-1-1.56-2.49-1.5-2.56-.2 0-.06.99 0 1.3.05.31.52.95.93 1.26.42.31 1.14.81 1.58 1.02.45.2 1-.03 1.02-.1.04-.06-.57.08-2.03-.92Z" fill="#FBF193"/><circle cx="9.25" cy="9.09" fill="#98702A" r="4.34"/><path fill-rule="evenodd" d="M9.34 13.47a4.3 4.3 0 1 0 0-8.58 4.3 4.3 0 0 0 0 8.58Zm0-.35a3.95 3.95 0 1 0 0-7.9 3.95 3.95 0 0 0 0 7.9Z" fill="url(#a1cx3pomu)"/><path d="M6 7.63h1.78c.55-.03 1.73.24 1.73 1.5 0 1.58-1.52 1.59-2 1.59h-1.5v-.08h.23c.08 0 .16-.17.19-.26V8.02c0-.13-.17-.27-.26-.33H6v-.06ZM7.11 8v2.36c.05.09.17.27.34.27h.07c.22 0 .58.01.73-.12.16-.15.58-.7.58-1.46s-.73-1.34-1-1.34H7.4c-.1.02-.29.11-.29.3ZM9.51 7.73v-.1h2.6l.09.86h-.08c-.1-.25-.4-.76-.73-.76h-.58c-.23 0-.41.17-.41.38V9h.62c.11 0 .36.16.47.25V8.5h.08V9.7h-.08v-.11c0-.25-.32-.43-.47-.5h-.62v1.33c.05.07.18.23.32.23h.22v.08H9.51v-.08h.14c.06-.04.2-.12.2-.23V7.98c-.06-.09-.17-.25-.34-.25Z" fill="#EAC27D"/><defs><linearGradient id="a1cx3pomu" x1="5.11" y1="10.5" x2="12.97" y2="6.76" gradientUnits="userSpaceOnUse"><stop stop-color="#754E13"/><stop offset="1" stop-color="#E6CA76"/></linearGradient></defs></svg>