<!-- by TradingView --><svg width="18" height="18" viewBox="0 0 18 18" xmlns="http://www.w3.org/2000/svg"><path fill="#F0F3FA" d="M0 0h18v18H0z"/><path d="M3 7.83C3 6.82 3.86 6 4.91 6H9.1C10.14 6 11 6.82 11 7.83V9h-1V7.72c0-.4-.32-.72-.71-.72H4.7c-.39 0-.71.32-.71.72v1.56c0 .4.32.72.71.72h1.71c.1.35.29.8.54 1H4.9A1.87 1.87 0 0 1 3 9.17V7.83Z" fill="#150A84"/><path d="M15 10.17c0 1.01-.86 1.83-1.91 1.83H8.9A1.87 1.87 0 0 1 7 10.17V9h1v1.28c0 .4.32.72.71.72h4.58c.39 0 .71-.32.71-.72V8.72c0-.4-.32-.72-.71-.72h-1.71c-.1-.35-.29-.8-.54-1h2.05C14.14 7 15 7.82 15 8.83v1.34Z" fill="#150A84"/></svg>