<!-- by TradingView --><svg width="18" height="18" viewBox="0 0 18 18" xmlns="http://www.w3.org/2000/svg"><path fill="#0A1C2A" d="M0 0h18v18H0z"/><path fill-rule="evenodd" d="M3 6.3c0-.17.14-.3.31-.3h1.97C7.06 6 8.5 7.34 8.5 9s-1.44 3-3.22 3H3.3c-.17 0-.31-.13-.31-.3V6.3ZM4 11V7h1.45c1.13 0 2.05.9 2.05 2s-.92 2-2.05 2H4Z" fill="#FAFDFB"/><path d="M14 6.3c0-.17.15-.3.33-.3h.34c.18 0 .33.13.33.3v5.4c0 .17-.15.3-.33.3h-.34c-.18 0-.33-.13-.33-.3V9.5h-4v2.2c0 .17-.15.3-.33.3h-.34c-.18 0-.33-.13-.33-.3V6.3c0-.17.15-.3.33-.3h.34c.18 0 .33.13.33.3v2.2h4V6.3Z" fill="#FAFDFB"/></svg>