<!-- by TradingView --><svg width="18" height="18" viewBox="0 0 18 18" xmlns="http://www.w3.org/2000/svg"><path fill="url(#alxse2mei)" d="M0 0h18v18H0z"/><path d="M5.02 4.5 5 4h3.27C10.32 4 14 4.58 14 9c0 4.3-3.27 5-5.73 5H5v-.5h3.27c1.23 0 4.23.12 4.23-4.5 0-3.7-2.71-4.56-4.21-4.5H5.02Z" fill="#fff"/><path d="M7.5 11.83V5c-.6.47-2 .72-2.5.78v.2c1.05 0 1 .52 1 .78v5.07c0 .62-.35 1.04-.67 1.17H8c-.45-.16-.5-.59-.5-1.17ZM8.43 10.33H8L9.5 9v1h1.29l-.22.33H9.5v1.87c0 .13 0 .47.21.47.4 0 1.04-.34 1.29-.47-.25.27-.9.8-1.5.8-.86 0-1.07-.5-1.07-.8v-1.87Z" fill="#fff"/><path d="M10.57 6.1v-.74A1.55 1.55 0 0 0 9.5 5C9 5 8 5.22 8 5.89S8.82 7 9.36 7.22c.5.2.64.45.64.67 0 .44-.26.61-.5.61A1.9 1.9 0 0 1 8 7.73v.72c.1.15.63.55 1.5.55 1.1 0 1.5-.67 1.5-1.11 0-.45-.27-.89-1.36-1.33C9.02 6.3 9 6.04 9 5.89c0-.15.06-.53.5-.53s.89.5 1.07.73Z" fill="#fff"/><defs><linearGradient id="alxse2mei" x1="3.35" y1="3.12" x2="21.9" y2="24.43" gradientUnits="userSpaceOnUse"><stop stop-color="#1A1E21"/><stop offset="1" stop-color="#06060A"/></linearGradient></defs></svg>