<!-- by TradingView --><svg width="18" height="18" viewBox="0 0 18 18" xmlns="http://www.w3.org/2000/svg"><path fill="#181B1E" d="M0 0h18v18H0z"/><path d="M8.77 4H5.3a.3.3 0 0 0-.3.29v.74A1 1 0 0 0 6 6h2.8c1.7 0 3.17 1.35 3.2 3 .02 1.61-1.4 3-3.16 3H6a1 1 0 0 0-.7.29c-.38.37-.3.95-.3 1.42 0 .15.15.29.3.29h3.54A5.14 5.14 0 0 0 14 9a5.2 5.2 0 0 0-5.23-5Z" fill="#fff"/><path d="M6 7c-.27 0-.52.09-.7.24a.75.75 0 0 0-.3.58v2.36c0 .22.1.43.3.58.18.15.43.24.7.24.27 0 .52-.09.7-.24.2-.15.3-.36.3-.58V7.82c0-.22-.1-.43-.3-.58A1.13 1.13 0 0 0 6 7Z" fill="#FF2400"/></svg>