<!-- by TradingView --><svg width="18" height="18" viewBox="0 0 18 18" xmlns="http://www.w3.org/2000/svg"><path fill="#F0F3FA" d="M0 0h18v18H0z"/><path fill-rule="evenodd" d="M9 15A6 6 0 1 0 9 3a6 6 0 0 0 0 12Zm0-.7A5.3 5.3 0 1 0 9 3.7a5.3 5.3 0 0 0 0 10.6Z" fill="#354F72"/><path d="m11.25 8.26-.65.2.02.04a10.25 10.25 0 0 1 .2.88v.2c-.02.19-.14.51-.2.65V12l.52-.34v-1.58c0-.06.01-.13.05-.22a3.8 3.8 0 0 1 .46-.72l-.07-.07-.47.35v-.03a15.19 15.19 0 0 1 .13-1.05l.01-.08Zm-.14 1.2Zm.02-1.06a14.7 14.7 0 0 0-.12.99v.1l.03.04.04.01.03-.01.26-.18a3.54 3.54 0 0 0-.27.48.72.72 0 0 0-.06.25v1.53l-.32.21v-1.56c.06-.15.18-.47.2-.67v-.22a4.53 4.53 0 0 0-.2-.85l.4-.12Z" fill="#354F72"/><path d="M11.63 8.82c.24-.18.55-.27.73-.27h.05v.04a1.09 1.09 0 0 1-1.12 1.13h-.04v-.05c-.06-.38.13-.66.38-.85Zm-.3.8a.98.98 0 0 0 .97-.98c-.16.02-.4.1-.61.26-.22.16-.38.4-.35.72Z" fill="#354F72"/><path d="M12.62 8.95c.12.02.25.05.34.1l.04.02-.02.04a1 1 0 0 1-.64.54c-.25.08-.5.07-.67.05l.02-.1c.15.03.39.03.62-.04a.9.9 0 0 0 .56-.44 2.2 2.2 0 0 0-.55-.1v-.1l.3.03ZM10.7 7.63l.02.02c.2.17.5.7.2 1.54l-.03.07-.06-.05a.61.61 0 0 0-.07-.04l-.05-.02a2.09 2.09 0 0 1-.26-.15c-.18-.13-.37-.32-.37-.58 0-.2.1-.38.22-.5.12-.14.27-.23.37-.28l.03-.01Zm-.32.34a.67.67 0 0 0-.2.45c0 .22.15.38.33.5a2 2 0 0 0 .24.14l.05.03.04.01c.24-.73 0-1.2-.16-1.36-.09.05-.2.13-.3.23ZM11.07 6l.03.03c.5.34.6.76.58 1.1a1.53 1.53 0 0 1-.17.58v.02l-.02.06-.06-.03c-.49-.25-.64-.62-.65-.96 0-.33.15-.64.26-.76l.03-.04Zm.02.13c-.1.13-.2.39-.2.67 0 .3.12.62.54.85.1-.21.42-.96-.34-1.52ZM11.55 8.38c.62-.1.91-.3 1.05-.5s.14-.41.14-.6c-.3.01-.55.19-.76.43-.2.21-.35.48-.43.67Zm.35-.73c.23-.26.53-.47.9-.46h.04v.09c0 .18 0 .43-.15.65-.17.25-.52.46-1.21.56l-.09.01.03-.07c.09-.21.25-.53.48-.78Z" fill="#354F72"/><path d="M10.26 6.56h.05c.11.01.37.1.58.39l-.08.05a.9.9 0 0 0-.47-.34.8.8 0 0 0 .1.54c.11.2.36.4.82.46l-.02.1c-.48-.07-.76-.28-.9-.51a.9.9 0 0 1-.09-.65l.01-.04ZM9.38 7.88h.04c.43.03.68.24.76.34l-.09.05c-.05-.07-.25-.25-.63-.29a.91.91 0 0 0 .08.54c.1.2.34.38.9.37v.09c-.58.01-.86-.17-1-.41-.12-.23-.09-.5-.07-.64v-.05ZM9.96 9.5h.8v.09h-.35a.8.8 0 0 1-.2.4.4.4 0 0 1-.2.1.32.32 0 0 1-.23-.04c-.06-.04-.1-.1-.1-.15-.01-.06 0-.11.04-.16.05-.1.16-.18.23-.24h.01Zm.35.09H10a.74.74 0 0 0-.2.2.17.17 0 0 0-.03.1c0 .03.02.05.06.08.06.03.11.04.16.03.05 0 .1-.03.14-.08a.7.7 0 0 0 .18-.33ZM11.42 8.02c0-.1-.02-.2-.04-.26l.1-.02.04.28c0 .1 0 .22-.04.31a.17.17 0 0 1-.14.1.24.24 0 0 1-.16-.05.37.37 0 0 1-.15-.33h.1c-.01.12.04.21.11.26l.09.03c.02 0 .04-.01.05-.05a.6.6 0 0 0 .04-.27Z" fill="#354F72"/><path d="m9 12 .53-.3h-.22c.16-.92.47-3.03.47-3.44C9.78 8.13 9.62 8 9 8s-.78.13-.78.26c0 .4.32 2.52.47 3.44h-.22L9 12Z" fill="url(#ayqjab2w0)"/><path d="m9.49 6 .03.03c.08.1.13.2.16.31l.04.16.1-.08c.04-.04.1-.07.13-.08l.06-.02.01.06c.05.22.04.42.02.54a.34.34 0 0 1 .1-.02h.08l-.02.06c-.21.8-.58 1.23-.75 1.35l-.8.07h-.01c-.17-.1-.5-.4-.5-.83 0-.15.07-.3.16-.45a5.8 5.8 0 0 1 1.15-1.08L9.49 6Zm.43.97c.03-.08.05-.28.01-.5a7.93 7.93 0 0 0-.6.52l-.08-.07c.1-.1.23-.23.37-.34a.93.93 0 0 0-.04-.21.7.7 0 0 0-.1-.23c-.18.11-.47.34-.73.6-.13.13-.26.28-.36.42a.75.75 0 0 0-.14.39c0 .37.28.63.43.73l.72-.06c.15-.11.47-.5.68-1.2a1.68 1.68 0 0 0-.38.24l-.08-.07c.07-.06.18-.15.3-.22Z" fill="#354F72"/><path d="m8.7 6.2.24.42-.09.05-.17-.3a.83.83 0 0 0-.17.22c-.05.11-.06.23 0 .33L8.46 7a3.27 3.27 0 0 0-.33-.16.9.9 0 0 0 0 .28c.01.12.06.21.14.24l-.03.1c-.14-.05-.2-.2-.22-.32a.98.98 0 0 1 .02-.38l.01-.03h.09l.04.02a1.33 1.33 0 0 1 .2.09c-.02-.1 0-.2.05-.3a.95.95 0 0 1 .24-.3l.05-.04ZM6.86 8.31l.58.2v.04a10.94 10.94 0 0 0-.18.87.97.97 0 0 0-.01.2c.02.18.13.5.18.64V12l-.46-.33V10.1a.68.68 0 0 0-.05-.22 3.76 3.76 0 0 0-.41-.71l.06-.07a34.09 34.09 0 0 0 .42.32c0-.07 0-.18-.02-.3-.02-.24-.06-.54-.1-.74V8.3ZM7 9.51V9.5Zm-.01-1.06a15.93 15.93 0 0 1 .1 1.07l-.03.04c0 .01-.02.02-.03.01h-.03l-.23-.19a3.56 3.56 0 0 1 .24.48c.04.09.06.17.06.25v1.5l.28.21v-1.54a3.4 3.4 0 0 1-.18-.65V9.4a4.83 4.83 0 0 1 .18-.84l-.36-.12Z" fill="#354F72"/><path d="m5.99 7.79.05.02c.23.08.68.49.74 1.44v.1l-.07-.06a1.81 1.81 0 0 0-.13-.09 4.27 4.27 0 0 1-.11-.07c-.1-.07-.2-.15-.29-.25-.17-.22-.3-.53-.2-1.04V7.8Zm.07.13c-.07.44.04.71.2.9.07.1.16.17.26.23l.11.08h.02l.03.03c-.07-.78-.42-1.14-.62-1.24ZM6.55 7.74l.05.02c.25.1.4.27.44.4.03.07.04.14.01.19A.12.12 0 0 1 7 8.4a.14.14 0 0 1-.09 0h-.01c-.32-.21-.37-.49-.35-.61v-.06Zm.07.14c.01.1.07.29.3.44h.04l.01-.01c0-.02.01-.06-.01-.11a.66.66 0 0 0-.34-.32Z" fill="#354F72"/><path d="m7.94 7.04.02.05c.02.1.06.4-.03.68a.93.93 0 0 1-.81.67h-.05V8.4c-.03-.34.09-1.08.83-1.35l.04-.01Zm-.79 1.3c.2-.05.36-.13.47-.23.11-.1.18-.23.22-.37.07-.23.06-.46.04-.58-.61.25-.74.86-.73 1.18ZM8.72 8.35v.06c0 .1 0 .33-.15.61-.15.28-.43.6-1 .9l-.16.22-.07-.06.16-.22c-.02-.39.19-1.2 1.17-1.5l.05-.01ZM7.6 9.8c.51-.28.77-.58.9-.82.12-.22.14-.4.14-.5-.83.28-1.03.96-1.04 1.32Z" fill="#354F72"/><path d="M8.38 8.16v.06l-.03.35-.08-.01.02-.27c-.54.24-.63.86-.64 1v.02l-.1-.02a.75.75 0 0 0 0-.02l.01-.03a1.77 1.77 0 0 1 .12-.42c.1-.24.29-.51.64-.64l.06-.02ZM8.7 9c.09-.03.17-.04.23-.04H9l-.03.06a1.4 1.4 0 0 1-1.27.9v-.1c.25.02.83-.12 1.16-.76a2.03 2.03 0 0 0-.36.07l-.02-.09L8.7 9ZM8.33 7.31v.06c0 .32-.17 1-.94 1.17l-.01-.1c.66-.13.85-.7.86-1.02l-.3.05-.01-.1.4-.06ZM5.73 8.15l.27.07-.03.09a3.56 3.56 0 0 0-.46-.1c.01.09.04.28.16.47.14.23.4.46.9.48v.1c-.53-.03-.82-.28-.98-.53a1.2 1.2 0 0 1-.17-.57v-.04h.04c.07 0 .17 0 .27.03Z" fill="#354F72"/><path d="M5.17 9.5c.1-.13.34-.4.74-.43v-.1c-.28.02-.49.15-.63.27a1.37 1.37 0 0 0-.2.23l-.01.01h-.01v.01L5 9.55l.08.02c.16.04.43.07.7.04a1 1 0 0 0 .7-.36l-.07-.06c-.15.2-.4.3-.65.33a2 2 0 0 1-.6-.02Z" fill="#354F72"/><path fill-rule="evenodd" d="m7.13 6 .03.04c.35.44.38.83.3 1.14-.07.3-.26.52-.34.62l-.04.05-.03-.05a1.4 1.4 0 0 1 .05-1.76L7.13 6ZM7.1 7.7a1.3 1.3 0 0 1 .04-1.56c.3.4.32.75.25 1.02-.07.24-.2.43-.3.54Z" fill="#354F72"/><path d="m6.45 6.27.05.02a20.74 20.74 0 0 1 .4.2l-.06.06a1.22 1.22 0 0 0-.14-.07l-.18-.08c-.03.32.05.95.54 1.35l-.05.08a1.74 1.74 0 0 1-.57-1.5v-.06ZM7.29 6.28a.1.1 0 0 0-.05 0l-.02-.1.1.01c.03.02.07.03.1.06.08.05.17.13.22.24.06.1.08.24.05.4-.03.16-.12.34-.29.54l-.07-.07c.17-.18.25-.35.27-.49a.52.52 0 0 0-.31-.59ZM6.6 10h4.8v.35H6.6V10Z" fill="#354F72"/><path d="M13.22 11.68a5 5 0 0 1-8.49-.07l.68-.43a4.2 4.2 0 0 0 7.12.09l.69.41Zm.54-1.16a5 5 0 1 0-9.52.03l.77-.23A4.2 4.2 0 1 1 13 10.3l.76.22Z" fill="#354F72" fill-opacity=".44"/><defs><linearGradient id="ayqjab2w0" x1="9" y1="7.53" x2="9" y2="11.35" gradientUnits="userSpaceOnUse"><stop stop-color="#717A89"/><stop offset="1" stop-color="#344966"/></linearGradient></defs></svg>