<!-- by TradingView --><svg width="18" height="18" viewBox="0 0 18 18" xmlns="http://www.w3.org/2000/svg"><path fill="#F0F3FA" d="M0 0h18v18H0z"/><path d="M11.77 8c-.9 0-1.67-.99-2.7-1-1.55-.02-2.28 1.26-3.05 2.52-.21.36-.7.98-1 1.24-.12.1-.3.24-.46.24-.12 0-.23 0-.33-.09-.39-.3-.09-1.4-.92-1.45H3.2c-.1 0-.19.02-.19.12 0 .15.24.1.42.28.16.17.22.37.23.55 0 .26-.08.5-.08.6 0 .19.02.34.1.48.21.35.48.51.9.51 1.27 0 2.06-1.59 2.52-1.59.09 0 .09.04.09.16l-.08.6c-.04.2-.1.54-.1.76 0 .08.32.07.42.07.19 0 .45 0 .68-.02 0-.23-.1-.35-.1-.55 0-.1.04-.24.1-.42a.43.43 0 0 1 .37-.28c.1 0 .2.24.2.37 0 .09-.02.16 0 .25 0 .18.04.36.1.54.02.04.01.07.05.08.11.04.64 0 .8 0 .07 0 .07 0 .1-.03 0-.06-.05-.14-.07-.2-.03-.11-.07-.3-.08-.58 0-.17-.02-.43.18-.43.26 0 .24.46.25.63.02.3 0 .64.3.64h.34c.15 0 .32.02.2-.2l-.05-.13a1.3 1.3 0 0 1-.08-.42c0-.12.04-.24.14-.24.12 0 .16.35.2.45.03.12.14.42.22.5.02.03.21.04.41.04h.46c0-.07-.03-.11-.07-.16-.17-.22-.3-.48-.41-.73a.95.95 0 0 1-.09-.42c0-.13.04-.26.1-.38.12-.2.3-.3.46-.43.4-.31.73-.9 1-1.34.36-.69.51-1.4.7-2.15.06-.19.19-.65.38-.65.15 0 .16.08.26.14.02.01.15.06.28.06.12 0 .25-.07.25-.28 0-.37-.35-.66-.67-.66a.8.8 0 0 0-.5.2c-.77.63-1.1 2.8-2.06 2.8Z" fill="#00833D"/></svg>