<!-- by TradingView --><svg width="18" height="18" viewBox="0 0 18 18" xmlns="http://www.w3.org/2000/svg"><path fill="#F0F3FA" d="M0 0h18v18H0z"/><path d="M8.55 4V3h.9v1h3.24c.79 0 1.31.51 1.31 1.27V14h-1V5.27C13 5 12.98 5 12.69 5H9.45v1H11c.53 0 1.01.5 1.01 1.03V11H9.45v.5H12V14H7.01C6.47 14 6 13.52 6 13v-1.5h2.55V11H6v-1h2.55V9H6V8h2.55V7H6V6h2.55V5H5.52c-.3 0-.52-.01-.52.43V14H4V5.27C4 4.7 4.57 4 5.62 4h2.93Zm.9 3v1H11v-.76c0-.15-.05-.24-.2-.24H9.45ZM11 9H9.45v1H11V9Zm-3.98 3.5-.01.2c0 .15.18.3.33.3H11l.01-.5H7.01Z" fill="#E50112"/></svg>