<!-- by TradingView --><svg width="18" height="18" xmlns="http://www.w3.org/2000/svg"><path fill="#187BE0" d="M0 0h18v18H0z"/><circle cx="9" cy="9" r="9" fill="#187BE2"/><path d="M12.19 6.558a10.38 10.38 0 00-6.295-2.551C4.157 3.942 4 4.37 4 4.543c0 .214.26.428.348.471.104.065.4.129.4.022 0-.193-.365-.3-.365-.343 0-.065-.035-.215 1.269-.107 4.243.321 7.425 3.13 7.408 5.403-.018 1.308-1.078 2.573-3.27 2.53a5.385 5.385 0 01-1.321-.214c.017-.622.017-1.372.017-2.166v-.643h.035c1.67-.021 2.14.15 2.209.172.087.021.052.064.034.085-.034.022-.347.3-.347.365 0 .043-.035.193.26.15.296-.043.713-.472.713-.793-.017-.322-.921-.987-2.921-.944-.052-1.2-.209-1.844-.313-1.844-.174 0-.278.88-.348 1.887-1.826.214-2.506 1.137-2.558 1.544-.052 1.222 1.237 2.08 2.454 2.595.035.707.122 1.265.348 1.286.226.022.33-.386.382-1.008.54.172 1.078.258 1.496.258 2.052.064 4.034-.858 4.069-3.067.035-1.587-.678-2.659-1.809-3.624zm-6.557 3.817c.034-.472.923-.772 2.123-.857-.017.407-.035.793-.035 1.115-.017.428-.017.922-.017 1.393-1.13-.514-2.106-1.243-2.071-1.65z" fill="#fff"/></svg>