<!-- by TradingView --><svg width="18" height="18" xmlns="http://www.w3.org/2000/svg"><path fill="#EC1944" d="M0 0h18v18H0z"/><path d="M7.517 3.496C7.517 2.67 8.19 2 8.979 2c.808 0 1.462.67 1.462 1.496 0 .827-.654 1.496-1.462 1.496-.789 0-1.462-.669-1.462-1.496zm4.261 9.828c-.988.588-2.048.743-2.778.744-.73-.001-1.79-.156-2.778-.744-.162-.092-.248.07-.215.21.336 1.411 1.543 2.457 2.984 2.466h.018c1.44-.009 2.648-1.054 2.984-2.465.034-.142-.053-.304-.215-.21zm-.585-3.562c-.78.464-1.617.586-2.193.587-.576 0-1.413-.123-2.193-.587-.128-.073-.197.055-.17.167.265 1.113 1.218 1.94 2.356 1.946h.014c1.138-.007 2.09-.833 2.356-1.946.027-.112-.042-.24-.17-.167zm-.622-3.035a3.144 3.144 0 01-3.142 0c-.092-.053-.14.039-.121.118.19.798.872 1.39 1.687 1.394h.01c.815-.005 1.498-.596 1.687-1.394.02-.08-.03-.17-.121-.118z" fill="#fff"/></svg>