<!-- by TradingView --><svg xmlns="http://www.w3.org/2000/svg" width="18" height="18"><path fill="url(#ahs3zgyk5)" d="M0 0h18v18H0z"/><path fill-rule="evenodd" d="M7.47 5H4v1h.27c.32.01.4.25.4.45v5.15c0 .36-.23.4-.4.4H4v1h3.47c.86-.03 2.57-.87 2.53-4.06C9.96 5.76 8.3 5 7.47 5zM8.6 9.08C8.67 6.24 6.86 5.87 6 6.03v5.63c.3.49 2.52.97 2.6-2.58zM11.35 5H14v1h-.24c-.12 0-.33.07-.36.44v4.03c0 1.52-1.26 3.53-2.7 3.53a.79.79 0 01-.7-.37l.7-1.06.55.34c.23.11.73.15.75-.92V6.44c0-.15-.13-.44-.43-.44h-.22V5z" fill="#fff"/><defs><linearGradient id="ahs3zgyk5" x1="3.35" y1="3.12" x2="21.9" y2="24.43" gradientUnits="userSpaceOnUse"><stop stop-color="#1A1E21"/><stop offset="1" stop-color="#06060A"/></linearGradient></defs></svg>