<!-- by TradingView --><svg width="18" height="18" viewBox="0 0 18 18" xmlns="http://www.w3.org/2000/svg"><path fill="#F0F3FA" d="M0 0h18v18H0z"/><path d="M10.05 6.73 14 3l-3.31 3.73h-.64ZM7.78 5 5.85 7h1l1.72-1.8h.52L8.9 5h-1.1Zm1.1.5-.5.53.5.52-.21.45h.56l.73-.75h-.85l.43-.45.34.23-.3-.53h-.7ZM5.4 9l-.67.61v1.02l.88-.8v.73L4 12h.9l1.3-1.23v-1.5L6.57 9H5.4Zm2.27-.92.63-.63h-.63v.63Zm2.41-.63-1.94 1.9-.42-.38 1.55-1.52h.81ZM11 8.82v-.87l.82-.95h1.97l-1.25 1.44.2.27h.74l.52.57v.49h-.26l-.6-.69h-.36l-.4-.48-.46.53V10l-.7-.8 1.18-1.37v-.2h-.37L11 8.83Zm-2.2 1.42-.4-.4L10 8.43v.78l-1.2 1.04Zm.7-.12v1.34h1.1l-.6-.6V9.65l-.5.48Zm-3.67 3.6V14h.61v-.41l-.47-.47.73-.79h.31L8.63 14h.85L8 12.53h1.93L11.41 14h.63l-1.48-1.47.54-.53H6.44l-1.13 1.12.52.6Zm6.98-1.23.33.29.4-.34v-1.11l-.73-.62-.38.32.57.5v.8l-.2.16Z" fill="#2C3E7E"/></svg>