<!-- by TradingView --><svg width="18" height="18" viewBox="0 0 18 18" xmlns="http://www.w3.org/2000/svg"><path fill="#F0F3FA" d="M0 0h18v18H0z"/><path d="M10.32 5.02c-.23.23-.34.56-.37.92-.03.26 0 .51.03.72.2-.06.41-.09.6-.1.16 0 .34.03.51.1.15-.41.48-.98 1.07-1.4a5.46 5.46 0 0 0-1.84-.24Zm2.39.47c-.69.36-1.04 1-1.17 1.38a1.77 1.77 0 0 1 .77 1 2.09 2.09 0 0 1 2.03-.2 4.26 4.26 0 0 0-.65-1.36 2.7 2.7 0 0 0-.98-.82Zm1.75 2.78a1.67 1.67 0 0 0-1.3-.27c-.35.08-.62.28-.78.44a2.45 2.45 0 0 1-.36 1.18c.6.08 1.38.44 1.91 1.4.45-.8.66-1.78.53-2.75Zm-.84 3.24c-.57-1.27-1.53-1.46-1.97-1.42-.4.37-.96.63-1.68.65-.2 0-.4 0-.58-.05A2.96 2.96 0 0 1 7.34 9c-.86-.07-1.84-.3-2.24-.41-1.26-.39-2-.2-2.33 0 .33.25.65.61.91.97.35.46.64.93.8 1.24v.01l.1.14.3.36c.26.3.63.66 1.1 1 .91.7 2.19 1.34 3.68 1.2 2.32-.2 3.57-1.38 3.96-2ZM7.2 8.5l-.02-.13a3.34 3.34 0 0 1 2.72-3.8h.03l.26-.02c.68-.04 1.71.03 2.63.46.49.23.95.56 1.29 1.04a4.88 4.88 0 0 1 0 5.6c-.4.72-1.8 2.1-4.4 2.33a5.86 5.86 0 0 1-4.05-1.3A8.36 8.36 0 0 1 4.03 11a9.53 9.53 0 0 0-.75-1.18c-.34-.44-.7-.84-1.04-1.03L2 8.66l.16-.21c.32-.41 1.34-.86 3.09-.33.36.1 1.18.3 1.95.38ZM9.5 6.86c-.05-.26-.1-.6-.06-.96.02-.25.07-.51.19-.76-.86.29-1.37.8-1.65 1.35.08.22.27.43.52.63.16.13.34.24.5.32.1-.25.3-.44.5-.58ZM8.9 7.93a4.2 4.2 0 0 1-.72-.45c-.14-.12-.3-.25-.42-.4-.12.46-.13.92-.08 1.23v.03c0 .1.03.21.08.35l.11.25c.61-.02.97-.2 1.13-.33a1.47 1.47 0 0 1-.1-.68Zm.38 1.08c-.24.17-.6.33-1.1.39.3.36.71.67 1.2.8.16-.11.4-.39.53-.84-.2-.05-.44-.16-.63-.35Zm1.14.35c-.08.38-.25.68-.41.9a1.84 1.84 0 0 0 1.62-.95 1.01 1.01 0 0 0-.3-.3 1.39 1.39 0 0 0-.19-.12c-.18.28-.48.4-.72.47Zm.88-.92a1.9 1.9 0 0 1 .53.35c.04-.15.05-.3.05-.44 0-.32-.12-.59-.3-.8a1.27 1.27 0 0 0-.41.26.97.97 0 0 1 .13.63Zm-.5-.97a2.18 2.18 0 0 1 .37-.26l-.04-.02c-.2-.1-.4-.15-.54-.15-.22.01-.47.05-.68.15a.83.83 0 0 0-.5.64c-.01.08-.02.18-.01.28.01.19.06.33.12.43.17.28.48.38.67.39.24-.05.5-.16.59-.41a.61.61 0 0 0 .03-.19.87.87 0 0 1-.14.25.61.61 0 0 1-.45.25.6.6 0 0 1-.53-.25.86.86 0 0 1-.14-.55.64.64 0 0 1 .33-.53c.16-.1.34-.12.47-.13.13-.01.3.02.46.1Zm0 .8a.45.45 0 0 0-.41-.43.6.6 0 0 0-.25.07.17.17 0 0 0-.09.15c0 .14.02.22.05.26l.03.02.06.01c.02 0 .04 0 .08-.05a.4.4 0 0 0 .07-.14l.46.1Z"/><path d="M5.63 7.35c.22-.09.64-.43.63-1.05 0-.37-.27-.71-.53-1.06-.3-.38-.59-.77-.58-1.21L5.03 3l-.12 1.03c.01.44-.28.83-.57 1.2-.27.36-.53.7-.54 1.07 0 .62.42.96.63 1.05-.2-.42-.09-.86.2-1.16.23-.24.36-.75.4-.98.04.23.18.74.4.98.3.3.4.74.2 1.16Z" fill="#182D5A"/></svg>