<!-- by TradingView --><svg xmlns="http://www.w3.org/2000/svg" width="18" height="18" viewBox="0 0 18 18"><path fill="#F0F3FA" d="M0 0h18v18H0z"/><path d="M11.6 7.54c0-.16-.34-.15-.37-.17-.03-.02-.55-.92-2-.92h.01a3.61 3.61 0 0 0-1.97.46s-1.13-.52-2 .25c-.12.11.04.11.04.11s.45.09.73.4c0 0-2.32 2.28-2.01 5.33 0 0 .33-2.36 3.77-3.85.62-.27 1.24-.63 3.12-.66H11.5c.11 0 .1-.78.1-.95z" fill="#C2E4F1"/><path d="M13.1 8.81c.05-.18-.27-.31-.29-.35-.02-.03-.23-1.24-1.58-1.87a3.15 3.15 0 0 0-2-.36s-.9-1.06-1.96-.59c-.15.07 0 .14 0 .14s.4.28.57.76c0 0-2.9 1.48-3.56 4.94 0 0 1.3-3.3 4.99-3.42.67-.02 1.37-.14 3.14.63l.12.06.43.2c.1.04.09.04.14-.14z" fill="#47A7DD"/><path d="M11.26 6.2c-.03-.05-.59-1.18-1.67-1.2-.16 0-.04.1-.04.1s.18.41.2.86c0 0-2.64-.02-4.68 4.03 2.36-2.44 7.05-1.43 8.39.79l.26.26c.08.08.16.13.26 0s-.17-.35-.18-.39c.18-1.14-.27-3.81-2.54-4.44z" fill="#0064A4"/></svg>