<!-- by TradingView --><svg width="18" height="18" viewBox="0 0 18 18" xmlns="http://www.w3.org/2000/svg"><path fill="#F0F3FA" d="M0 0h18v18H0z"/><path d="M8.41 4.3c0 .16-.03.32-.1.47l4.05 4.62a1.17 1.17 0 0 1 1.54.6 5.02 5.02 0 0 0-5.52-5.95c.02.08.03.17.03.25Zm4.9 7.24a1.17 1.17 0 0 1-1.62-.75l-2.1.55c-1.15.29-2.43.6-3.53.85a1.2 1.2 0 0 1-.2.7 4.98 4.98 0 0 0 7.45-1.35Zm-8.83-.4c.05-.03.1-.05.17-.06l1.9-5.83c-.15-.1-.26-.24-.35-.4a5 5 0 0 0-1.72 6.28Zm2.76-5.67h-.02l-1.85 5.7c.18.07.33.2.44.35a233.41 233.41 0 0 0 5.92-1.48c.02-.07.06-.13.1-.19l-4-4.54c-.17.1-.37.16-.6.16Z" fill="#192959"/></svg>