<!-- by TradingView --><svg width="18" height="18" viewBox="0 0 18 18" fill="none" xmlns="http://www.w3.org/2000/svg">
<rect width="18" height="18" fill="#F0F3FA"/>
<path d="M4.0313 5L9.86755 5C11.5404 4.99917 13.0585 5.42992 13.6484 6.97033C13.6646 7.01349 13.6471 7.03396 13.5958 7.03175C11.1616 6.93049 8.87108 7.37673 6.72438 8.37047C6.70688 8.37844 6.68726 8.38197 6.66771 8.38065C6.64817 8.37933 6.62947 8.37322 6.61373 8.363C5.38159 7.5679 4.23291 6.38936 4.00036 5.03237C3.99968 5.02832 3.99997 5.02419 4.00122 5.02026C4.00246 5.01633 4.00463 5.0127 4.00758 5.00962C4.01052 5.00654 4.01417 5.00409 4.01827 5.00243C4.02236 5.00076 4.02681 4.99994 4.0313 5Z" fill="#00AE3F"/>
<path d="M13.7611 10.481C11.6213 10.4644 9.43831 9.9689 7.5901 9.0103C7.584 9.00728 7.57896 9.00286 7.57548 8.9975C7.572 8.99213 7.57022 8.98602 7.57032 8.97977C7.57041 8.97352 7.57238 8.96737 7.57602 8.96194C7.57966 8.95652 7.58485 8.95201 7.59104 8.94888C9.50082 8.00107 11.5563 7.51526 13.7574 7.49147C13.7924 7.49092 13.8136 7.50586 13.8211 7.53629C14.0599 8.50458 14.0599 9.47231 13.8211 10.4395C13.8183 10.4514 13.8107 10.4621 13.7998 10.4697C13.7888 10.4773 13.7751 10.4813 13.7611 10.481Z" fill="#7AC200"/>
<path d="M12.8265 10.9359C13.0828 10.9365 13.3335 10.9392 13.5786 10.9442C13.5892 10.9445 13.5997 10.9469 13.609 10.9514C13.6184 10.9559 13.6264 10.9623 13.6324 10.9701C13.6385 10.9779 13.6424 10.9868 13.6438 10.9961C13.6451 11.0055 13.644 11.015 13.6405 11.0239C13.0553 12.4946 11.6497 12.9843 10.0012 13.0001L4.0853 13C4.02716 13.0006 4.00216 12.9751 4.01028 12.9237C4.22783 11.5658 5.42246 10.3873 6.62272 9.6005C6.64835 9.5839 6.67523 9.58224 6.70336 9.59552C8.61314 10.4858 10.6542 10.9326 12.8265 10.9359Z" fill="#008452"/>
</svg>
