<!-- by TradingView --><svg xmlns="http://www.w3.org/2000/svg" width="18" height="18" viewBox="0 0 18 18"><path fill="#F0F3FA" d="M0 0h18v18H0z"/><path d="M13.49 4h-.96L10.3 7.42h.15L13.5 4zm-7.7.9l1.87 2.94-2.3-2.6c.13-.13.28-.24.43-.34zm-1.05.95l2.57 2.36-2.9-1.92c.1-.15.21-.3.33-.44zm-.91 5.33l3.23-1.07.02.05-3.03 1.53a5.22 5.22 0 0 1-.22-.5zm3.1-2.03V9.1l-3.38-.7c-.03.18-.05.37-.06.55l3.44.2zm-2.09 3.69a5.4 5.4 0 0 1-.34-.42l2.84-1.82-2.5 2.24zm2.1-3.18v-.04L3.5 9.8l.08.55 3.36-.7zm2.78-2.24h-.08L10.76 4h.68L9.72 7.42zm-1.62.16l.05-.02-1.08-3.28a5.2 5.2 0 0 0-.52.2l1.55 3.1zm.54-.15H8.6l-.7-3.36c.2-.03.37-.05.56-.06l.2 3.42zm.46-.01h.06L9.86 4H9.3l-.2 3.42zM7.08 8.6l-.02.04-3.3-1.09.22-.52 3.1 1.57zm3.74.49v.05L14 8.97v-.53l-3.17.66zm-.02.56l.01-.05 3.15.18c-.01.18-.04.35-.07.52l-3.09-.65zm-.11.45l-.02.05 2.8 1.42.2-.48-2.98-.99zm.13-2.16V7.8L14 5v.88l-3.17 2.08zm0 .58v.08L14 7.56v-.64l-3.17 1.6zm1.94 4.16l-2.33-2.13 2.63 1.73-.3.4zM8.15 11.2l-.05-.02-1.47 2.94.5.2 1.02-3.12zm-2.69 2.22l2.24-2.47-1.8 2.77-.44-.3zm3.18-2.1H8.6l-.66 3.18.53.05.18-3.23zm3.14 2.26l-1.7-2.66 2.1 2.35a4.7 4.7 0 0 1-.4.31zm-2.63-2.26H9.1l.18 3.22c.18-.02.35-.04.52-.08l-.65-3.14zm.45-.12l.04-.02 1.42 2.84-.47.2-1-3.02z" fill="#003262"/></svg>