<!-- by TradingView --><svg width="18" height="18" viewBox="0 0 18 18" xmlns="http://www.w3.org/2000/svg"><path fill="#F0F3FA" d="M0 0h18v18H0z"/><path d="M7.85 5C9.97 5 10.83 7 11 8c-.66-1.68-1.76-2.42-2.82-2.42a2.8 2.8 0 0 0-1.79.7c.27.24 1.33.9 2.1.9.6 0 1.04-.31 1.18-.47-.26.7-1.02.94-1.65.94-.63 0-1.73-.78-2.12-.78-.32 0-.73.13-.9.2C5.3 6.36 6.31 5 7.85 5Z" fill="#74B340"/><path d="M7 12.42c0 .12.03.2.09.24.06.04.18.06.37.06 1.4 0 2.54-.67 2.54-2.2 0-1.5-1.15-2.24-2.57-2.24a.73.73 0 0 0-.34.05c-.06.04-.09.12-.09.25v3.84Zm-1.5.44c.48-.05.5-.18.5-.68V8.82c0-.5-.01-.65-.5-.68V8h2.1c1.61 0 3.4.67 3.4 2.52C11 12.23 9.23 13 7.66 13H5.5v-.14Z" fill="#01137F"/><path d="M7.85 13.67A3.92 3.92 0 0 1 6 13.31c.23.23.98.69 2.15.69 3.05 0 4.55-2.65 4.55-4.76 0-2.1-.96-2.14-.96-3.55 0-1.14.87-1.86 1.3-2.07.14 1.22-.51 1.96-.85 2.18 1.06-.15 1.16-1.06 1.2-1.67.02-.5.42-.91.61-1.06-2.38 0-2.63 1.99-2.46 2.98-.14-.17-.5-.56-.82-.76a1.08 1.08 0 0 1-.55-.95c0-.26.18-.59.27-.72.08.12.24.43.24.69 0 .26-.11.47-.17.54.14-.1.41-.4.41-.65 0-.33-.27-.58-.27-.7 0-.08.05-.37.07-.5-.26.22-.79.8-.79 1.34 0 .7.89 1.35 1.2 1.67.3.33.92.98.92 3.02a4.57 4.57 0 0 1-4.2 4.64Z" fill="#74B340"/></svg>