<!-- by TradingView --><svg width="18" height="18" viewBox="0 0 18 18" xmlns="http://www.w3.org/2000/svg"><path fill="#F0F3FA" d="M0 0h18v18H0z"/><path d="M8.72 7H7v.9c.13 0 .31.15.31.3v2.7c0 .24-.2.3-.31.3v.8h3c1 0 2-.4 2-2.5 0-1.8-.88-2.5-1.5-2.5h-.31c.72.5 1.03 1.83 1.03 2.55 0 .9-.47 1.95-1.72 1.95s-1.72-1.2-1.72-1.95.63-1.95.94-2.55Z" fill="#EC0601"/><path d="M9.5 6C8.8 8.5 8 9.04 8 9.89c0 .7.6 1.02.83 1.11-.33-.28-.5-.78-.5-1.11 0-.56.67-1.25 1.17-1.67.5.42 1.17 1.11 1.17 1.67 0 .42-.17.83-.5 1.11.23-.1.83-.44.83-1.11 0-.67-.8-1.39-1.5-3.89Z" fill="#2B11CD"/><path d="M9 10.5c0 .4.33.5.5.5.17 0 .5-.1.5-.5S9.67 9.33 9.5 9c-.17.33-.5 1.1-.5 1.5Z" fill="#2B11CD"/><path fill-rule="evenodd" d="m14.26 10.96-3.96-6.7a1.48 1.48 0 0 0-2.6 0l-3.96 6.7c-.67 1.14.13 2.54 1.3 2.54h7.92c1.17 0 1.97-1.4 1.3-2.54Zm-3.53-6.95a1.98 1.98 0 0 0-3.46 0l-3.96 6.7C2.47 12.14 3.44 14 5.04 14h7.92c1.6 0 2.57-1.86 1.73-3.3l-3.96-6.69Z" fill="#2B11CD"/></svg>