<!-- by TradingView --><svg width="18" height="18" viewBox="0 0 18 18" xmlns="http://www.w3.org/2000/svg"><path fill="#F0F3FA" d="M0 0h18v18H0z"/><path d="m11.91 8.29-2.9-2.57c-.01 0 0 0 0 0L6.1 8.3v.02l1.99 2.26v.02l-3.06 2.6h-.02c0 .01 0 0 0 0H5V4L5.03 4h7.96a.02.02 0 0 1 .01 0v.01H13v9.16h-.01a.02.02 0 0 1-.03 0L9.92 10.6v-.02l2-2.26v-.02Z" fill="#7DC0BF"/><path d="m8.98 7.12-1.29 1.3a.03.03 0 0 0 0 .04L9 9.8h.04l1.29-1.33a.03.03 0 0 0 0-.04l-1.3-1.31a.04.04 0 0 0-.04 0ZM5.93 13.96 9 11.36a.03.03 0 0 1 .02 0h.01l3.07 2.6V14H5.92v-.04Z" fill="#4D2669"/></svg>