<!-- by TradingView --><svg width="18" height="18" viewBox="0 0 18 18" xmlns="http://www.w3.org/2000/svg"><path fill="#317773" d="M0 0h18v18H0z"/><path fill-rule="evenodd" d="M2 11V7h2v.67H2.57v1H4v.66H2.57V11H2Zm3-4v4h1.17C7.18 11 8 10.1 8 9s-.82-2-1.83-2H5Zm.6.67v2.66h.53c.7 0 1.27-.6 1.27-1.33a1.3 1.3 0 0 0-1.27-1.33H5.6ZM10.27 11c1.06 0 1.91-.9 1.91-2s-.85-2-1.9-2c-1.06 0-1.92.9-1.92 2s.86 2 1.91 2Zm0-.67c.7 0 1.28-.6 1.28-1.33a1.3 1.3 0 0 0-1.28-1.33C9.57 7.67 9 8.27 9 9c0 .74.57 1.33 1.27 1.33Zm4.2.67c.6 0 1.12-.27 1.49-.69l-.49-.43a1.33 1.33 0 1 1 0-1.76l.53-.38A1.96 1.96 0 0 0 14.47 7c-1.09 0-1.97.9-1.97 2s.88 2 1.97 2Z" fill="#fff"/></svg>