<!-- by TradingView --><svg xmlns="http://www.w3.org/2000/svg" width="18" height="18" viewBox="0 0 18 18"><path fill="#F0F3FA" d="M0 0h18v18H0z"/><path fill-rule="evenodd" d="M15 9c0 .93-.21 1.61-.59 2.4h-1.16c.15-.15.3-.2.3-.57 0-.51-.4-.87-.71-1.01a.1.1 0 0 0-.12.04c-.03.05 0 .12.05.15.22.11.56.37.56.8 0 .37-.2.46-.31.59h-.47a2.2 2.2 0 0 0-1.01-1.54.82.82 0 0 1-.6-.04 7.8 7.8 0 0 0-.32 1.58h-2.1c-.12-.76-.63-1.64-.87-2.1l-.33-.18a.47.47 0 0 1-.33 0c-.08.1-.27.22-.36.26a5.98 5.98 0 0 0-1.42 2.02H3.59A5.14 5.14 0 0 1 3 9a6 6 0 1 1 12 0zm-6 6c-1.6 0-3.04-.49-4.11-1.5h8.22A5.87 5.87 0 0 1 9 15zM6.74 4.94a7.32 7.32 0 0 1 .12 1.64c-.01.55-.04 1.4-.6 1.67a.8.8 0 0 1-1.04-.3c-.08-.11-.21-.52-.07-1.24l.7-.18.12-1.14c-.07.32-.24.99-.33 1.04-.07.04-.18.06-.3.08l-.26.06c-.1-.13-.3-.5-.37-.88.06-.14.29-.52.8-.85.1.08.34.23.46.26l.11-.03c.15-.05.43-.13.66-.13zm-.35 1.8v.13a.94.94 0 0 0-.46.03c-.18.07-.32.29-.37.39l-.13-.06c.06-.13.22-.4.4-.46.2-.07.45-.05.56-.04zm-.34 1.18a.35.35 0 1 0 0-.7.35.35 0 0 0 0 .7zm-.17.57c.13.07.46.22.7.22.29 0 .47-.35.47-.51l-.01-.13c-.03-.2-.06-.54.17-.54.24 0 .18.3.15.47a.7.7 0 0 0-.01.1c0 .1 0 .61.26.61.2 0 .64-.2.83-.3a1.06 1.06 0 0 1-.95-1.09c-.02-.8-.07-1.9-.1-2.35h-.48a13.36 13.36 0 0 1 .04 2.11c-.02.5-.07 1.18-1.07 1.41zM7 8.87c0 .08-.07.24-.3.3l-.08.02c-.24.07-.46.13-.45-.02.02-.16.1-.35.22-.35l.19.02c.13.02.3.04.42.03zm.38.16a.5.5 0 0 0 0-.16c.2 0 .5-.07.63-.11.01 0 .04.03.13.2.1.22-.04.31-.15.3a5.45 5.45 0 0 1-.61-.23zm-.2 0a.1.1 0 1 0 0-.21.1.1 0 0 0 0 .2zm.37-2.76a7.95 7.95 0 0 1-.03-1.32 4.17 4.17 0 0 1 .71.08L8.3 5c.1-.02.24-.05.33-.11.62 0 .86.36.91.5-.03.14-.04.34-.06.55-.03.32-.07.64-.12.72l-.1-.03c-.2-.06-.5-.15-.59-.21a2.26 2.26 0 0 1-.33-.83l.2.93.65.21c.13.7.01 1.09-.06 1.2a.76.76 0 0 1-1 .3c-.53-.26-.55-1.1-.57-1.62v-.25l-.01-.1zm.46.58v-.12c.1-.02.35-.04.53.03.18.07.33.32.38.44l-.12.05c-.05-.1-.18-.3-.35-.36A.9.9 0 0 0 8 6.85zM8 7.52a.34.34 0 1 0 .67 0 .34.34 0 0 0-.67 0zm3.06 1.7l-.03.15c.19.11.4.07.47.03l.01-.12c1.85.06 2.07-1.21 1.95-1.86.21-.27.6-.87.4-1.05-.2-.18-.72-.02-.95.08-.57-.71-1.54-.63-1.95-.5-.17-.25-.56-.7-.8-.51-.24.18-.2.8-.14 1.09-.41.3-.5.88-.5 1.14.03 1.03 1.04 1.46 1.54 1.55zm-.24-1.27l-.26.29a.06.06 0 1 1-.08-.08l.11-.12-.15-.04-.24.14a.06.06 0 1 1-.05-.1l.17-.08-.03-.07h-.26a.04.04 0 0 1 0-.08h.18l-.02-.11c0-.03.02-.06.05-.06.03 0 .05.01.06.04.02.08.08.2.17.23.1.03.22-.01.28-.05h.06c.03.02.04.06.01.09zm.82-.04h-.33c-.04.18.05.3.1.34l-.02.16c0 .08-.13.15-.18.15a.14.14 0 0 1-.13-.13c0-.05.04-.1.08-.14.03-.02.03-.07 0-.1-.01-.01-.04-.02-.06 0a.29.29 0 0 0-.14.24c0 .2.22.22.25.22l.2-.05c.02.04.1.11.23.11.17 0 .22-.16.22-.24a.28.28 0 0 0-.07-.18c-.04-.05-.15 0-.1.05.05.04.06.1.06.12 0 .11-.06.15-.13.15-.05 0-.1-.07-.11-.1v-.22c.17-.2.16-.33.13-.38zm1.35.35c0 .11-.16.2-.36.2-.2 0-.36-.09-.36-.2 0-.12.16-.21.36-.21.2 0 .36.1.36.2z" fill="#0055A0"/><path fill="#0055A0" d="M5 12h8v1H5z"/></svg>