<!-- by TradingView --><svg width="18" height="18" xmlns="http://www.w3.org/2000/svg"><path fill="url(#paint0_linear)" d="M0 0h18v18H0z"/><path d="M14 9A5 5 0 114 9a5 5 0 0110 0z" fill="#fff"/><path d="M13.005 9.02a3.972 3.972 0 01-3.985 3.985A3.972 3.972 0 015.034 9.02 3.972 3.972 0 019.02 5.035a3.972 3.972 0 013.985 3.985z" fill="url(#paint1_linear)"/><path d="M12.528 9.044c0 1.923-1.58 3.483-3.528 3.483s-3.527-1.56-3.527-3.483S7.053 5.562 9 5.562c1.948 0 3.528 1.559 3.528 3.482z" fill="url(#paint2_linear)"/><path d="M7.462 11.563a2.92 2.92 0 01-1.491-2.536c0-1.62 1.343-2.933 3-2.933 1.624 0 3 .848 3 3.307h-1.007c0-1.474-.966-2.25-1.992-2.25-1.06 0-1.92.84-1.92 1.876 0 .656.42 1.35.941 1.687l-.53.849z" fill="#fff"/><path d="M9.643 6.061a4.447 4.447 0 00-1.247-.003s.573 2.327 1.247.003z" fill="url(#paint3_linear)"/><path d="M7.625 6.368a4.24 4.24 0 00-.924.724s1.666 1.389.925-.724z" fill="url(#paint4_linear)"/><path d="M6.194 7.765a4.474 4.474 0 00-.349 1.19s2.343.056.35-1.19z" fill="url(#paint5_linear)"/><path d="M10.34 6.205a4.853 4.853 0 011.053.824s-1.899 1.583-1.054-.824z" fill="url(#paint6_linear)"/><path d="M11.82 7.673a5.303 5.303 0 01.368 1.347s-2.476.063-.369-1.347z" fill="url(#paint7_linear)"/><defs><linearGradient id="paint0_linear" x1="3.349" y1="3.122" x2="21.904" y2="24.434" gradientUnits="userSpaceOnUse"><stop stop-color="#1A1E21"/><stop offset="1" stop-color="#06060A"/></linearGradient><linearGradient id="paint1_linear" x1="6.517" y1="11.623" x2="14.734" y2="2.186" gradientUnits="userSpaceOnUse"><stop stop-color="#1A1E21"/><stop offset="1" stop-color="#06060A"/></linearGradient><linearGradient id="paint2_linear" x1="6.786" y1="11.319" x2="13.953" y2="2.982" gradientUnits="userSpaceOnUse"><stop stop-color="#1A1E21"/><stop offset="1" stop-color="#06060A"/></linearGradient><linearGradient id="paint3_linear" x1="8.628" y1="6.907" x2="9.705" y2="5.474" gradientUnits="userSpaceOnUse"><stop stop-color="#1A1E21"/><stop offset="1" stop-color="#06060A"/></linearGradient><linearGradient id="paint4_linear" x1="6.908" y1="7.337" x2="8.123" y2="6.009" gradientUnits="userSpaceOnUse"><stop stop-color="#1A1E21"/><stop offset="1" stop-color="#06060A"/></linearGradient><linearGradient id="paint5_linear" x1="6.06" y1="8.749" x2="7.291" y2="7.378" gradientUnits="userSpaceOnUse"><stop stop-color="#1A1E21"/><stop offset="1" stop-color="#06060A"/></linearGradient><linearGradient id="paint6_linear" x1="10.359" y1="7.308" x2="11.742" y2="5.796" gradientUnits="userSpaceOnUse"><stop stop-color="#1A1E21"/><stop offset="1" stop-color="#06060A"/></linearGradient><linearGradient id="paint7_linear" x1="11.196" y1="8.786" x2="12.597" y2="7.331" gradientUnits="userSpaceOnUse"><stop stop-color="#1A1E21"/><stop offset="1" stop-color="#06060A"/></linearGradient></defs></svg>