<!-- by TradingView --><svg width="18" height="18" viewBox="0 0 18 18" xmlns="http://www.w3.org/2000/svg"><path fill="#F0F3FA" d="M0 0h18v18H0z"/><path fill-rule="evenodd" d="M9 15A6 6 0 1 0 9 3a6 6 0 0 0 0 12Zm0-.7A5.3 5.3 0 1 0 9 3.7a5.3 5.3 0 0 0 0 10.6Zm0-.3A5 5 0 1 0 9 4a5 5 0 0 0 0 10Zm-.35-9.22a4.24 4.24 0 0 0 0 8.44V4.78Zm.7 8.44a4.24 4.24 0 0 0 3.87-3.87h-1.24a3 3 0 0 1-1.57 2.3v-2.3h1.06V8.3h-1.06V6.35a3 3 0 0 1 1.5 1.94h1.27a4.24 4.24 0 0 0-3.83-3.51v8.44ZM6 9a3 3 0 0 1 1.59-2.65v5.3A3 3 0 0 1 6 9Z" fill="#1B98AC"/></svg>