<!-- by TradingView --><svg xmlns="http://www.w3.org/2000/svg" width="18" height="18"><path fill="#F0F3FA" d="M0 0h18v18H0z"/><path d="M10.99 4.18a3.3 3.3 0 013.96 1.47c.05.08.1.24-.07.3-.3.02-1.02.23-1.65.95.1.2.3.86.3 1.78a4.8 4.8 0 01-4.06 4.73A2.12 2.12 0 017.66 15c-.08.01-.22 0-.17-.2.25-.35.5-1.24-.53-1.94-.6-.23-1.78-1.01-1.8-2.36 0-.17.05-.44.2-.72-1.36-.36-1.63-.16-1.72.03-.27.61.61 1.4 1.2 1.73-.67-.26-1.95-1.14-1.83-1.79.14-.8 1.75-.51 2.55-.26.12-.13.28-.26.48-.35a4.32 4.32 0 01-1.99-.7c-.06-.04-.18-.18-.1-.33.2-.69 1-2.28 2.56-3.19.14-.26.61-.75 1.37-.63l.04-.02c.24-.07 1.46-.46 3.07-.09z" fill="#231815"/><path d="M6.4 5.36a6.3 6.3 0 00-2.1 2.8 3.8 3.8 0 004.05.14 4.27 4.27 0 001.85-2.5 3.7 3.7 0 01-1.15 4.02l.2.26c.08-.02.34-.26.46-.37-.44.79-1.38 1.09-1.8 1.14.62.5 1.3.54 1.58.5a2.26 2.26 0 001.87-1.55 2.15 2.15 0 01-1.77 1.86c-.34 1.24-1.47 1.36-2 1.27.58.51.48 1.3.35 1.63.9-.2 1.25-1.07 1.3-1.47 3.4-.54 4-3.68 3.91-4.79a6.56 6.56 0 00-.83-2.3c.08.07.33.4.44.57a4.59 4.59 0 011.76-.9 2.96 2.96 0 00-1.81-1.3c-.54-.1-1.18.13-1.43.26.23.12.48.42.59.55-.88-.8-2.52-.66-3.23-.48.27.37.28.72.3.95 0 1.06-.78 1.28-1.21 1.23C6.55 6.8 6.36 5.83 6.4 5.36z" fill="#F0F3FA"/><path d="M10.17 6.62a4.29 4.29 0 01-2.64 2.37c.3.05.72.26.9.35l-.09-.49c.27.23.84.64.98.53.13-.1 0-.74-.07-1.04.14.14.46.4.59.3.13-.1.07-.7.03-.98.1.1.21.1.26.1.2-.1.1-.86.04-1.14z" fill="#F0F3FA"/><ellipse cx="7.88" cy="5.77" rx="1.16" ry="1.17" fill="#F0F3FA"/><path d="M8.37 5.33c.12 0 .22.05.3.12a.86.86 0 10-1.52-.24.26.26 0 01.29.26c0 .15-.12.26-.26.26A.26.26 0 017 5.65a.87.87 0 00.86.95c.3 0 .57-.16.72-.4a.44.44 0 01-.2.05.45.45 0 01-.45-.46c0-.25.2-.46.45-.46z" fill="#231815"/><path d="M7.78 9.31c.72.31 1.12.8 1.23 1-.48.3-1.15.33-1.42.3-.3 0-.24.18-.16.27.46.72 1.42.87 1.84.86-.15.57-.66.85-.9.91a2.3 2.3 0 01-2.44-.82c-.93-1.27-.3-2-.14-2.22.17-.22 1.1-.68 2-.3z" fill="#F8C100"/></svg>