<!-- by TradingView --><svg xmlns="http://www.w3.org/2000/svg" width="18" height="18"><path fill="#001487" d="M0 0h18v18H0z"/><path d="M8.59 4.52l.32.5-.32.6c-.45.06-.86.21-1.23.44l-.13-.63-.53-.26c.55-.36 1.2-.59 1.89-.65zm.56-.02l.31.5-.31.6c.47.02.92.15 1.32.36l.55-.33.07-.59a4.25 4.25 0 00-1.94-.54zm2.63 2.73a3.21 3.21 0 00-.86-.99l.56-.32.06-.58c.53.39.97.9 1.27 1.5l-.37.45-.66-.06zm.22.49a3.2 3.2 0 01.18 1.36l.07.06h.05v.03l.41.33.54-.16a4.37 4.37 0 00-.22-2.01l-.37.45-.66-.06zm.3 2.92v-.87l.31.25.55-.17-.07.23c-.3.08-.53.4-.62.56h-.17zm-7.14.06c-.1-.2-.2-.43-.26-.65l.47-.34.6.1.06.15h-.87v.74zm.1-1.48l-.48.33a4.34 4.34 0 01.14-2.06h.56l.44.48a3.22 3.22 0 00-.07 1.35l-.6-.1zm.84-1.76c.2-.42.48-.8.82-1.1l-.12-.62-.53-.25c-.5.41-.9.94-1.18 1.54h.61l.4.43zm4.88 1c.04-.05-.03-.15-.11-.11-.18.08-.25-.02-.3-.2a2.78 2.78 0 00-.41-.04l-.18.26h-.22c.06-.26.26-.47.44-.68l.05-.04c-.13-.17.08-.02.13.05l.14-.03c.01-.13 0-.21-.02-.29-.02-.08-.04-.15 0-.23 0-.07-.06-.09-.1-.09-.04.1-.02.22 0 .33v.16c-.02.06-.06.03-.08 0-.02-.09-.08-.17-.16-.07-.08.01-.17-.26-.06-.3.12-.03.09-.14.05-.23a.48.48 0 01-.02-.06c.02-.14.28-.18.3-.12.01 0 .46-.11.46-.13l.02-.13a2.9 2.9 0 00-1.54-.7v.24c.2.14.15.79-.12.8-.02.1-.1.19-.16.28-.05.06-.1.12-.14.2-.16-.05-.2-.33-.25-.59-.04-.25-.07-.47-.2-.43-.11-.03.04-.17.11-.23a.73.73 0 00.03-.03l.15-.22-.04-.02-.13.11c-.08.07-.17.13-.22.21-.07.03-.11.1-.15.16-.05.09-.1.18-.27.12v-.16l.17-.15.13-.21a3.2 3.2 0 00-1.4.8l.07.08c.16-.05.26 0 .36.05.08.03.16.07.27.08l.1-.16c.08-.11.15-.22.26-.27l-.13.3.02.13.18-.13c-.16-.08-.1-.28.09-.28.12 0 .44.46.33.54a.1.1 0 00-.1 0c.1.1.02.18-.02.22-.15-.1-.16-.22-.16-.33 0-.08 0-.14-.07-.15-.04 0-.16.19-.17.23 0 .04.04.1.07.12h-.2c-.08 0-.2.18-.2.26 0 .06.17.16.25.2v.12c0 .05.08.07.11.08v-.2c.06-.03.05-.11.04-.18 0-.1-.01-.19.1-.2.1-.01.12.06.13.13.01.04.02.09.07.09.02 0 .07-.07.1-.1.01.1.14.3.2.38v.1c.07.02.14.15.1.16-.07 0-.18-.04-.28-.08l-.16-.05.2.17c-.02.05-.14.05-.2.04l-.4.49c.08.12.03.16 0 .16-.07-.14-.4-.2-.42 0 0 .13.08.22.12.22.18 0 .2.03.25.1a.6.6 0 00.1.1c.09.07.2 0 .26-.03.18-.08.36.04.55.17.14.1.3.2.45.21.14.06.05.17 0 .21 0 .1-.07.2-.1.24h-.13l-.04.14c.36.16.5.64.53.86.1-.36.46-.67.63-.79.07-.07.09-.24.08-.31.06-.09.17-.27.12-.28-.05-.02-.05-.13-.05-.18 0-.03-.04-.07-.25-.03-.25.06-.41-.16-.43-.29-.01-.1.22-.43.35-.58.05.02.13-.01.2-.04.12-.04.24-.09.28-.01.05.11.16.15.2.16.07-.05.14-.04.21-.04.09 0 .17.01.23-.07zm-4.93.21c-.03.52.14 1.06.23 1.27h1.55V10c.21-.1.46-.1.55-.1v-.08c-.1-.07-.29-.24-.35-.3-.06-.05-.01-.26.02-.3 0 0-.63-.3-.7-.3 0 0-.52-.57-.6-.73l.05-.29-.14-.5c-.02-.08-.13-.2-.23-.04-.1.15-.34.66-.38 1.31z" fill="#fff"/><path opacity=".55" d="M3 10h12v2H3v-2z" fill="#ECECEC"/></svg>