<!-- by TradingView --><svg xmlns="http://www.w3.org/2000/svg" width="18" height="18"><path d="M0 9a9 9 0 1118 0A9 9 0 010 9z" fill="#FABC11"/><path d="M14 6.14c-.19 2.8-2.26 5.24-5.34 5.24-3.48 0-4.83-3.06-4.64-5.38l1.02-.33a4.14 4.14 0 00.51 2.7A2.83 2.83 0 018.36 5a2.78 2.78 0 012.86 2.82c.24-.74.38-1.5.42-2.28l2.36.6zm-8.65 5.63h1.33L5.48 13H4.15l1.2-1.23zm3.12 0L7.27 13H5.94l1.2-1.23h1.33zm.58 0h1.33l1.2 1.23h-1.32l-1.2-1.23zm3.12 0h-1.32l1.2 1.23h1.33l-1.2-1.23zM8.36 10a2 2 0 100-4 2 2 0 000 4z" fill="#1F1C1D"/></svg>