<!-- by TradingView --><svg xmlns="http://www.w3.org/2000/svg" width="18" height="18"><path fill="#F0F3FA" d="M0 0h18v18H0z"/><path d="M8.5 2h1v1.02a6 6 0 015.49 5.6h-1a5 5 0 00-4.49-4.6v1.01c1.65.2 3 1.4 3.42 2.97h-1.1a3 3 0 00-5.65 0h-1.1A4.07 4.07 0 018.5 5.03v-1a5 5 0 00-4.49 4.6h-1A6 6 0 018.5 3.02V2z" fill="#EF8114"/><path d="M11.74 12c.33-.29.6-.62.82-1H9.5v-1h3.43a3.43 3.43 0 00.06-1H5a3.45 3.45 0 00.06 1H8.5v1H5.44c.21.38.49.71.82 1H8.5v1.98A5 5 0 014.02 9.5H3.01A6 6 0 009 15a6 6 0 006-5.5h-1.02a5 5 0 01-4.48 4.48V12h2.24z" fill="#033C90"/></svg>