<!-- by TradingView --><svg width="18" height="18" viewBox="0 0 18 18" xmlns="http://www.w3.org/2000/svg"><path fill="#F0F3FA" d="M0 0h18v18H0z"/><path d="M14 9.5a4.5 4.5 0 0 1-6.19 4.16l.32-.12a4.26 4.26 0 1 0-1.95-6.69L6 6.7a4.47 4.47 0 0 1 8 2.79Z" fill="#1085B8"/><path d="M6.74 7.37 2 5.32l.29 1.03c.05.2.2.34.39.4L5.9 7.8c0 1.11.6 2.3.9 2.76l-1.29 1.21c.51.92 1.5 1.58 1.93 1.8l1.71-.74.37-.87h.6l.61-.87.5-.43.5.43v.27l.97.14-.51-.8-.79-.5H11l-.85.6-.2-.14-.5-.9.18-1.2.19.7 1 .45.05.18.53-.18.09-.45-.73-.93V7.9l-.39-.31 1.36-1.44-1.61 1.23-.14-.08.14-.36-2.04.65-1.03 1.8-.05.65a5.33 5.33 0 0 1-.26-2.66Z" fill="url(#a)"/><path d="m11.4 12.2-.29-1.1-.48.58.12.41-.32.27.75.68.23-.84Z" fill="url(#b)"/><path d="m5.74 8.4-.06-.5L2.55 7l.46.85c.1.2.3.33.53.35l2.2.2Z" fill="#1A96C1"/><path d="m4.09 9.2 1.8-.17-.12-.42-2.6-.2.27.46c.13.23.39.36.65.33Z" fill="#2FA8C9"/><path d="m6.06 9.61-.13-.4-2.24.23.23.41c.11.2.35.3.57.23l1.57-.47Z" fill="#4CBCD6"/><path d="m6.34 10.13-.2-.34-2 .62.23.28c.13.15.35.2.54.11l1.43-.67Z" fill="#5DCFE2"/><path d="m6.62 10.52-.22-.22-1.69.83.29.25c.16.15.41.15.58.01l1.04-.87Z" fill="#67E2EF"/><defs><linearGradient id="a" x1="7.41" y1="5.32" x2="7.41" y2="13.56" gradientUnits="userSpaceOnUse"><stop stop-color="#057DB7"/><stop offset="1" stop-color="#3EB6CE"/></linearGradient><linearGradient id="b" x1="10.92" y1="11.11" x2="10.92" y2="13.04" gradientUnits="userSpaceOnUse"><stop stop-color="#0579B5"/><stop offset="1" stop-color="#0291BF"/></linearGradient></defs></svg>