<!-- by TradingView --><svg width="18" height="18" viewBox="0 0 18 18" xmlns="http://www.w3.org/2000/svg"><path fill="#F0F3FA" d="M0 0h18v18H0z"/><path d="M2 8h1.08L6.8 5.62l.77.59.38-.2L6.8 5 4 6.75V6h-.35v.97L2 8ZM16 8h-1.07l-3.7-2.38-.77.59-.38-.2L11.23 5 14 6.74V6h.35v.96L16 8Z" fill="#61A63F"/><path d="M14 8 9 5 4 8h1.26L9 5.71 12.74 8H14Z" fill="#61A63F"/><path d="M7 10c0-.94-.82-1.2-1.68-1.2H5v2.4h.32C6.17 11.2 7 10.95 7 10Zm1 0c0 1.42-1.31 2-2.56 2H4V8h1.44C6.68 8 8 8.59 8 10ZM10 8h1v1.6h2V8h1v4h-1v-1.6h-2V12h-1V8Z" fill="#433F3F"/></svg>