<!-- by TradingView --><svg width="18" height="18" viewBox="0 0 18 18" xmlns="http://www.w3.org/2000/svg"><path fill="#F0F3FA" d="M0 0h18v18H0z"/><path d="M8.3 7.5H8V10h.3V8.9c0-.3.3-.46.6-.46.24 0 .3.2.3.31V10h.3V8.75c0-.31-.15-.62-.6-.62-.36 0-.55.3-.6.46V7.5Z" fill="#1F1D1E"/><path d="M5.32 11.35h.15c.7-1.3 1.67-2.2 2.06-2.5v-.44a6.64 6.64 0 0 0-2.2 2.94ZM8.41 8.12v-.3a12.64 12.64 0 0 1 4.27-1.32l-.44.59A9.34 9.34 0 0 0 8.4 8.12Z" fill="#00ABF7"/><path d="M5.76 11.35h-.14a4.8 4.8 0 0 1 1.9-2.2v.3a4.28 4.28 0 0 0-1.76 1.9ZM9.72 8.26a.47.47 0 0 0-.3-.14c.83-.47 1.93-.54 2.52-.6l-.44.6c-.7 0-1.4.05-1.78.14Z"/><path fill-rule="evenodd" d="M9 13.5a4.5 4.5 0 1 0 0-9 4.5 4.5 0 0 0 0 9Zm0 .5A5 5 0 1 0 9 4a5 5 0 0 0 0 10Z" fill="#00ABF7"/></svg>