<!-- by TradingView --><svg xmlns="http://www.w3.org/2000/svg" width="18" height="18"><path fill="#EA0B2A" d="M0 0h18v18H0z"/><path d="M12.86 11.72c-3.65-.9-5.23-2.3-5.23-2.3s1.56 2.45 4.02 3.41l.13.05.04.02.14.04a.1.1 0 00.11 0c.04 0 .07-.02.1-.05l.8-.9a.16.16 0 00.03-.07v-.09a.17.17 0 00-.06-.07.19.19 0 00-.08-.04zm.95-3.56l-.6-.04a53 53 0 00-5.38.66l5.96.78h.01a.1.1 0 00.03-.02c.06-.03.07-.1.07-.12l.1-1.04a.2.2 0 00-.05-.14.23.23 0 00-.14-.08zm-5.98-.21c1.86-1.58 5.06-2.14 5.38-2.2a.2.2 0 00.08-.04.16.16 0 00.04-.22 16.9 16.9 0 00-.73-.93c-.05-.06-.12-.08-.2-.06l-.03.01h-.01l-.2.07a9.56 9.56 0 00-4.33 3.37zm-.94 0c.03-.2.13-.65.18-.78A8.64 8.64 0 019.6 3.79a.17.17 0 00.06-.09l-.01-.1a.17.17 0 00-.08-.08.2.2 0 00-.1-.02l-1.18.09a.41.41 0 00-.12.02.1.1 0 00-.05.04l-.2.23a2.83 2.83 0 00-.17.24l-.1.15c-.3.48-.92 1.87-.76 3.68zm-.59.08S5.7 7 5.63 5.7v-.14a.18.18 0 00-.04-.1.2.2 0 00-.23-.07.2.2 0 00-.1.07 5.65 5.65 0 00-.5 1.05c0 .03 0 .05.02.07.3.64 1.52 1.45 1.52 1.45zm-1.68 2.6a.17.17 0 00-.04.13c.02.11.12.7.27 1.05.06.13.2.11.2.11.12 0 .17-.16.21-.27.29-.97 1.01-2.23 1.01-2.23s-1.16.58-1.65 1.2zm4.74 3.03l-.09-.08A7.2 7.2 0 016.9 9.5s-.46 3.14 1.3 4.96c.04.03.1.03.14.03l1.3-.2h.04a.17.17 0 00.1-.19.16.16 0 00-.05-.09 9.3 9.3 0 01-.38-.36zm-3.21-5l-.6-.13a3.07 3.07 0 01-1.2-.5.2.2 0 00-.1 0h-.01a.2.2 0 00-.1.05.18.18 0 00-.04.09c-.05.16-.11.76-.1.87.01.04.04.08.09.1l.06.02h.04c.28-.04 1.07-.27 1.4-.36l.56-.15z" fill="#fff"/></svg>