<!-- by TradingView --><svg xmlns="http://www.w3.org/2000/svg" width="18" height="18" viewBox="0 0 18 18"><path fill="#0593DF" d="M0 0h18v18H0z"/><path d="M6.83 4h-.78l-.76.77c-.18.18-.45.72-.08 1.42.09.16.42.6 1 1.05l.4-.38c-.31-.25-.97-.8-1.13-1.02-.2-.29-.11-.41-.05-.47L6.83 4Zm-.9 0h-.58l.3.26.27-.26Zm1.06 0H9a5 5 0 0 1 0 10H7.75l-.56-.67c-.17.23-.4.46-.7.67h-.87c.5-.33 1.39-.99 1.63-1.59.06-.13.08-.25 0-.35a9.1 9.1 0 0 0-1.14-1.14l.38-.4.7.64c.15.13.42.5.41 1 0 .36-.11.74-.36 1.1h1.7a4.26 4.26 0 0 0 0-8.52H7.07v-.09l-.39-.31L7 4Zm1 1.56h1.02a3.44 3.44 0 1 1 0 6.88H8v-.76h.96a2.68 2.68 0 0 0 0-5.36H8v-.76Zm-.38.23c.02-.54-.68-1.12-1.03-1.35l-.36.35c.38.26 1.12.87 1.1 1.13-.01.26-.3.64-.45.8L5.29 8.33c-.43.61-.29 1.17-.16 1.37l.37.66.41-.37a3.3 3.3 0 0 1-.41-.46.44.44 0 0 1 .05-.64c.17-.15.64-.6 1.15-1.14.64-.68.89-1.3.91-1.97Zm-.4 1.53c.14.14.41.52.41.95 0 .55-.26 1.13-.57 1.48a87.3 87.3 0 0 1-1.6 1.7c-.08.07-.2.26 0 .47.18.22.84.86 1.14 1.15l-.4.38a5.9 5.9 0 0 1-.98-1.18c-.3-.54-.15-1.14.1-1.5.2-.27.87-.9 1.18-1.18.29-.28.85-.93.84-1.28a.46.46 0 0 0-.12-.22 6.3 6.3 0 0 1-.34-.36l.34-.4ZM7.6 14H6.9l-.12-.09.42-.39.4.48Z" fill="#fff"/></svg>