<!-- by TradingView --><svg width="18" height="18" viewBox="0 0 18 18" xmlns="http://www.w3.org/2000/svg"><path fill="#445680" d="M0 0h18v18H0z"/><path d="M10.29 7.4c.04-.18-.04-.4-.21-.4H8.9c-.18 0-.3.22-.34.4l-.13.56c-.04.18.04.24.21.28l1.44.33c.6.14 1.04.53.9 1.19l-.25 1.07c-.16.7-.74 1.17-1.42 1.17H7.51c-.69 0-1.05-.48-.89-1.17l.17-.83h1.14l-.12.6c-.04.18.03.4.21.4H9.3c.18 0 .3-.22.34-.4l.14-.63c.04-.18-.04-.24-.21-.28l-1.44-.33c-.6-.14-1.05-.53-.9-1.18l.23-1.01C7.61 6.47 8.2 6 8.87 6h1.72c.68 0 1.04.48.88 1.17l-.15.83h-1.14l.1-.6ZM6.4 6H3.34l-.94 4.18 1.32-.69L4.26 7h1.58c.18 0 .26.23.22.42l-.72 3.16c-.04.19-.16.42-.33.42H2.25L2 12h3.04c.68 0 1.26-.48 1.42-1.18l.82-3.64c.15-.7-.2-1.18-.89-1.18ZM15.08 6h-1.92c-.68 0-1.26.48-1.42 1.17l-.83 3.66c-.16.7.2 1.17.88 1.17h1.93c.68 0 1.26-.48 1.42-1.17L15.59 9h-2.05l.68.72-.2.88c-.04.18-.16.4-.34.4h-1.34c-.18 0-.25-.22-.21-.4l.72-3.2c.05-.18.16-.4.34-.4h1.34c.18 0 .26.22.21.4l-.12.6h1.17l.17-.83c.16-.7-.2-1.17-.88-1.17Z" fill="#fff"/></svg>