<!-- by TradingView --><svg xmlns="http://www.w3.org/2000/svg" width="18" height="18"><path fill="#F0F3FA" d="M0 0h18v18H0z"/><path d="M6.02 14L4 4.62c.13-.1.35-.12.44-.12l2.04 9.4-.46.1z" fill="url(#amkleuubz)"/><path d="M5.83 10.16a10.6 10.6 0 00-.95-4.33c1.03.76 1.78 3.2 1.96 4.2-.21.01-.85.1-1.01.13zM7.34 6.9l-.64-.14 1.47 3.4c.12.03.21.22.26.32.13.36.99.41 1.3.4L7.33 6.9zm3.3 1.71l.14 2.3c.19.15 1.44.19 1.88.15l-2.02-2.45zm2.14-.69l-1.09-.9a14.38 14.38 0 002.26 3.76h.3l-1.47-2.86z" fill="#AFA7A4"/><path d="M9.53 7.3c-.27 0-.7.06-.88.09.12.14.46.78.52.98.07.2-.05.2-.3.2-.18 0-.75-.13-1.02-.2l.33.89c.17-.1.57-.28.75-.28.22 0 .37 0 .46.28.08.22.03.8 0 1.07h.94a18.6 18.6 0 01-.56-1.15c-.01-.07-.06-.23.22-.2.23.02.81.2 1.08.28l-.27-.9c-.25.1-.81.27-.98.28a.28.28 0 01-.29-.27V7.3z" fill="#303F5C"/><path d="M6.35 5.84c-.24-.81-1.3-.86-1.8-.79l.33.8c1.29-.12 1.75.56 1.81.91.5.37 3.2.23 4.5.11.71.08 1.1.74 1.2 1.05.17.07.72-.03.97-.08l-.23-.97c-.24.21-.87.24-1.16.23-.3-1.02-1.24-1.1-1.67-1.01-2.5.36-3.68-.01-3.95-.25zm1.79 4.31c-.6-.22-1.79-.1-2.31 0V11c1.6-.36 2.84.07 2.91.37.05.24.44.32.63.32.37 0 1.22.02 1.67.1.56.1 1.39.08 2.45-.1.85-.14 1.2-.13 1.27-.1.05.2.18.15.24.1-.14-.27-.47-.83-.65-.9a1.97 1.97 0 00-.74 0 6.98 6.98 0 01-2.95.09c-1.1.1-2.14-.12-2.2-.4a.46.46 0 00-.32-.33z" fill="#303F5C"/><defs><linearGradient id="amkleuubz" x1="6.06" y1="12.89" x2="6.28" y2="14" gradientUnits="userSpaceOnUse"><stop stop-color="#A47E5A"/><stop offset="1" stop-color="#EAD6C2"/></linearGradient></defs></svg>