<!-- by TradingView --><svg width="18" height="18" viewBox="0 0 18 18" xmlns="http://www.w3.org/2000/svg"><path fill="#F0F3FA" d="M0 0h18v18H0z"/><path d="M10.47 4.28H8.03c-.41 0-.75.11-1.01.34-.26.23-.27.5-.03.84.25.36.6.64 1.03.84l.65.28c.63.26 1.08.48 1.37.66a3 3 0 0 1 1.12 3.94c-.38.7-.9 1.29-1.53 1.77-.66.51-1.38.83-2.13.96a7.07 7.07 0 0 1-3.5-.32v-.03h.01c.95.3 1.91.4 2.88.33 1.39-.1 2.51-.71 3.37-1.81.58-.76.76-1.55.52-2.38-.11-.37-.3-.7-.55-1.02a3.4 3.4 0 0 0-.71-.65 9.29 9.29 0 0 0-1.28-.7 5.93 5.93 0 0 1-.85-.53c-.39-.28-.65-.5-.78-.67-.23-.28-.31-.6-.25-.94.09-.5.33-.84.73-1.04A3 3 0 0 1 8.24 4a765.32 765.32 0 0 1 3.73.01c.04.05.04.08 0 .11L10.1 5.44c-.02 0-.03 0-.04-.02v-.03c.22-.16.36-.31.44-.45.1-.18.11-.38.04-.6-.01-.04-.04-.06-.08-.06Zm-2.7 3.06.2.09c.02 0 .03.02.03.04v2.21c0 .2.03.34.08.41.1.12.24.18.43.2.02 0 .03 0 .04.02v.05a6.5 6.5 0 0 1-.87.9c-.2.2-.4.37-.55.55l-.17.19c-.3.35-.66.77-1.31 1.26-.03.02-.05.01-.05-.02v-.05c0-.02 0-.04.02-.05a3.43 3.43 0 0 0 1.19-1.7c.12-.46.2-.94.19-1.44V7c0-.02.01-.02.02-.02.26.17.56.28.76.36Zm1.84 2.72c-.02.02-.02.04 0 .07l.28.3c.08.08.08.17 0 .25l-.2.2a.06.06 0 0 1-.06.02c-.03-.01-.05-.03-.05-.06v-.16a.1.1 0 0 0-.03-.08L8.21 9.42c-.08-.07-.06-.1.03-.1h.31c.07 0 .12.02.17.06l.49.43c.05.04.1.04.15 0l.03-.03c.3-.29.5-.44.64-.45.12-.02.24-.02.34 0 .01 0 .02 0 .03.02l-.01.04-.78.67Zm-.23 1.5.09-.09c.02-.03.02-.05 0-.08l-.8-.7-.01-.02c-.07-.18.01-.33.24-.44.06-.03.1-.02.1.06v.15c0 .04.01.07.04.1.33.24.6.49.85.74.1.1.1.2 0 .3-.09.09-.2.2-.36.32-.07.05-.11.1-.12.15-.02.16.04.26.18.3l.18.02c.01 0 .02 0 .02.02v.04H8.77c-.03 0-.03 0 0-.03l.02-.03h.03c.25.01.38-.08.37-.3a.12.12 0 0 0-.04-.08l-.44-.39c-.1-.08-.11-.18-.04-.29a.71.71 0 0 1 .24-.22.05.05 0 0 1 .05 0l.02.04c0 .2.08.35.23.45.07.04.12.03.17-.02Z" fill="#D6B356"/></svg>