<!-- by TradingView --><svg xmlns="http://www.w3.org/2000/svg" width="18" height="18" viewBox="0 0 18 18"><path fill="#F67522" d="M0 0h18v18H0z"/><path d="M12.92 13h-.95A3.14 3.14 0 0 0 13 10.65c0-2-1.27-2.1-.87-3.53a.04.04 0 0 0 0-.04l-.02-.01h-.02c-.91.03-1.26 1.3-1.32 1.3A6.08 6.08 0 0 0 8.52 3h-.03l-.02.02v.03c.6 2.31-.3 3.83-.9 4.1 0-1.18-1.22-1.4-1.49-1.38h-.02v.02a.04.04 0 0 0-.01.03C6.6 7.62 5 8.4 5 10.46c0 1.2.49 2 1.04 2.54H5.1c-.06 0-.09.05-.09.1v.82c0 .04.04.08.09.08h2.66l-.06-.05c-1.24-1.11-1.4-3.42.7-4.88l.03-.01h.02l.02.02v.03c-.26 1.29-.03 2.12.66 2.82a5.71 5.71 0 0 0 1.14-1.65h.02l.02.02c1.47 1.25.68 3.09.17 3.65l-.05.05h2.5c.04 0 .08-.04.08-.08v-.85c0-.04-.04-.07-.08-.07Z" fill="#fff"/></svg>