<!-- by TradingView --><svg width="18" height="18" viewBox="0 0 18 18" xmlns="http://www.w3.org/2000/svg"><path fill="#F0F3FA" d="M0 0h18v18H0z"/><path d="M3 10.24C3 8.68 5.2 6.76 6.31 6c-.7.61-2.09 2.15-2.09 3.38 0 1.5 2.04 2.05 3.05 2.13l8.73.2c-6.73.1-5.74.29-8.9.29-3.15 0-4.05-1.17-4.1-1.76Z" fill="url(#aq13nrbse)"/><path d="M5.81 6.13 5 11h1.07C8.4 11 9.7 9.97 9.7 8.04S8.14 6 7.39 6c-.6 0-1.3.08-1.58.13ZM6.4 10l.46-2.97c.5-.1 1.5-.02 1.5 1.02 0 1.36-.84 1.87-1.26 1.95h-.7Zm3.85-3h1.2l-.65 4h1.24l.65-4h1.17l.24-1H10.5l-.24 1Z" fill="#004A6C"/><defs><linearGradient id="aq13nrbse" x1="7.16" y1="5.44" x2="13.92" y2="11.52" gradientUnits="userSpaceOnUse"><stop stop-color="#BA975F"/><stop offset=".21" stop-color="#FEFAD4"/><stop offset="1" stop-color="#CE822A"/></linearGradient></defs></svg>