<!-- by TradingView --><svg width="18" height="18" xmlns="http://www.w3.org/2000/svg"><path fill="#00477F" d="M0 0h18v18H0z"/><path d="M2 12V6h1.781c.477 0 .96.006 1.425.097C6.3 6.325 6.93 7.243 6.98 8.671c.02.432-.006.888-.095 1.313-.242 1.161-.929 1.845-1.89 1.943C4.017 12.041 3.019 12 2 12zm2-4.502v2.993c.566.046.897-.137.954-.714a6.72 6.72 0 00-.01-1.558c-.064-.592-.397-.797-.944-.721zM14 9.742v.748h2V12h-4V6h4v1.498h-2v.748h1.668v1.496H14zM8.237 12V7.498h-.992V6h4.3v1.498h-.992V12H8.237z" fill="#fff"/></svg>