<!-- by TradingView --><svg width="18" height="18" viewBox="0 0 18 18" xmlns="http://www.w3.org/2000/svg"><path fill="#F0F3FA" d="M0 0h18v18H0z"/><path d="M5.54 6.54a3 3 0 0 0 .24 1.19l.7-.06a2.43 2.43 0 0 1-.27-1.13c0-1.8 1.82-2.33 2.26-2.33.36 0 .62.06.71.09-.07-.36-.6-.63-.85-.71-.49 0-1.59.16-2.03.7a3.68 3.68 0 0 0-.76 2.25Z" fill="url(#a)"/><path d="M11 3.68c-.94-.15-1.6.35-1.8.62-.1-.16-.48-.47-1.26-.47a3 3 0 0 0-1.75.64A3.34 3.34 0 0 1 9.02 3c1.02 0 1.74.45 1.98.68Z" fill="url(#b)"/><path d="M3 10.67c0-.67.31-1.32.47-1.56l1.17-.91 1.12.08.2.48c-1.12-.06-2.34.74-2.34 2.14 0 1.39 1.19 2.23 2.14 2.23.96 0 1.34-.31 1.74-.86.4-.55.24-1.14.98-1.14.6 0 .68.52.65.78-.2.7-1.06 2.09-2.89 2.09C3.44 14 3 11.52 3 10.67Z" fill="url(#c)"/><path d="M6.24 7.55c.58 0 1.07.2 1.24.29-.93.06-1.4.64-1.52.92-.1-.06-.38-.19-.76-.19-.97 0-1.7.62-1.94.92a3.2 3.2 0 0 1 2.98-1.94Z" fill="url(#d)"/><path d="M15 10.88c0 .68-.31 1.32-.47 1.56l-1.17.92-1.12-.09-.2-.48c1.12.06 2.34-.74 2.34-2.13 0-1.4-1.19-2.23-2.14-2.23-.96 0-1.34.3-1.74.85-.4.56-.24 1.14-.98 1.14-.6 0-.68-.52-.65-.78.2-.7 1.06-2.09 2.89-2.09 2.8 0 3.24 2.48 3.24 3.33Z" fill="url(#e)"/><path d="M11.76 14c-.58 0-1.07-.2-1.24-.29.93-.06 1.4-.64 1.52-.92.1.06.38.19.76.19.97 0 1.7-.62 1.94-.92A3.2 3.2 0 0 1 11.76 14Z" fill="url(#f)"/><path d="M11.47 10.74c0-.53-.29-.95-.43-1.1.2.2.57.47 1.1.47.42 0 .86-.32 1.03-.47-.15.18-.45.66-.45 1.1a2 2 0 0 0 .42 1.09 1.43 1.43 0 0 0-.97-.47 1.57 1.57 0 0 0-1.08.41c.15-.18.38-.56.38-1.03Z" fill="url(#g)"/><defs><linearGradient id="a" x1="8.94" y1="4.75" x2="7.33" y2="7.71" gradientUnits="userSpaceOnUse"><stop stop-color="#B78550"/><stop offset="1" stop-color="#EADFC4"/></linearGradient><linearGradient id="b" x1="11.83" y1="3.34" x2="6.64" y2="4.53" gradientUnits="userSpaceOnUse"><stop stop-color="#B78550"/><stop offset="1" stop-color="#E9DCC1"/></linearGradient><linearGradient id="c" x1="4.32" y1="8.91" x2="8.38" y2="10.97" gradientUnits="userSpaceOnUse"><stop stop-color="#B78550"/><stop offset="1" stop-color="#EADFC4"/></linearGradient><linearGradient id="d" x1="7.21" y1="8.37" x2="5.36" y2="9.47" gradientUnits="userSpaceOnUse"><stop stop-color="#B78550"/><stop offset="1" stop-color="#E4D4B6"/></linearGradient><linearGradient id="e" x1="13.54" y1="10.68" x2="8.86" y2="10.29" gradientUnits="userSpaceOnUse"><stop stop-color="#EADFC4"/><stop offset="1" stop-color="#BB8C59"/></linearGradient><linearGradient id="f" x1="14.03" y1="12.9" x2="10.41" y2="13.98" gradientUnits="userSpaceOnUse"><stop stop-color="#B78550"/><stop offset="1" stop-color="#E4D4B6"/></linearGradient><linearGradient id="g" x1="11.45" y1="10.67" x2="12.87" y2="10.67" gradientUnits="userSpaceOnUse"><stop stop-color="#E5D5B8"/><stop offset="1" stop-color="#B78550"/></linearGradient></defs></svg>