<!-- by TradingView --><svg width="18" height="18" xmlns="http://www.w3.org/2000/svg"><path fill="url(#paint0_linear)" d="M0 0h18v18H0z"/><path d="M10.494 12.955c-.24.245-.559.405-.905.454-.524.03-1.035-.28-1.19-1.408l-2.118-.6c.925 3.171 3.487 3.06 4.368 1.68.06-.09.041-.136 0-.159-.043-.022-.095-.022-.155.033zm0-8.326c-.852-1.64-3.872-.02-4.397 4.214a.441.441 0 00.233.487c.269.14.56.233.863.275.232.052.47.071.708.058a.437.437 0 00.42-.366c.45-4.541 1.528-5.57 2.029-4.594.057.113.204.053.141-.074h.003z" fill="#0070A6"/><path d="M9.972 6.062a.557.557 0 00-.542.23 1.939 1.939 0 00-.242.7 2.439 2.439 0 00-.05.756c.041.135.169.228.315.23.965.057 3.796.446 4.195 1.238.262.545-.525.684-1.106.828a.463.463 0 00-.38.366c-.067.281-.01.577.157.817.073.12.234.16.359.088l.034-.022c.3-.19.566-.426.786-.7 1.893-2.54-2.076-4.503-3.526-4.53z" fill="#54B948"/><path d="M10.945 10.223c-4.748.504-8.494-1.585-5.658-2.092 0 0 .362-.08.43-.277s.09-.252.168-.543c.05-.179.094-.28.142-.418.076-.215-.066-.344-.38-.195-2.593 1.219-1.836 3.495.28 4.635a6.773 6.773 0 004.593.74.937.937 0 00.627-.42 1.52 1.52 0 00.262-1.047.366.366 0 00-.137-.297.399.399 0 00-.327-.081v-.005z" fill="#26BCD7"/><defs><linearGradient id="paint0_linear" x1="3.349" y1="3.122" x2="21.904" y2="24.434" gradientUnits="userSpaceOnUse"><stop stop-color="#1A1E21"/><stop offset="1" stop-color="#06060A"/></linearGradient></defs></svg>