<!-- by TradingView --><svg width="18" height="18" viewBox="0 0 18 18" xmlns="http://www.w3.org/2000/svg"><path fill="#E64526" d="M0 0h18v18H0z"/><path d="m10.02 12.07-.02.86c0 .04.06.07.1.07h.9c.8 0 1.45-.62 1.45-1.4V10h.47c.6 0 1.08-.46 1.08-1.03 0-.28-.11-.55-.32-.74l-4.2-4.04a.7.7 0 0 0-.97 0l-4.2 4.04c-.2.2-.31.46-.31.74C4 9.54 4.49 10 5.08 10h.48v1.6c0 .78.58 1.4 1.38 1.4h1.08c.55 0 .98-.43.98-.95v-1.9c0-.08.08-.15.17-.15h.78c.04 0 .05-.03.05-.07v-.87c0-.04 0-.06-.05-.06h-.78C9.08 9 9 8.92 9 8.84v-.1c0-.36.25-.74.62-.74h.31c.04 0 .07-.07.07-.1v-.82c0-.05-.03-.08-.07-.08h-.3C8.73 7 8 7.77 8 8.62v3.21c0 .09-.05.17-.13.17H6.81a.32.32 0 0 1-.31-.31V9.57c0-.25-.16-.57-.42-.57h-.73c-.13 0-.32.03-.32-.1 0-.05.02-.1.07-.15L8.78 5.2a.31.31 0 0 1 .44 0l3.68 3.55c.05.04.07.1.07.16 0 .12-.1.09-.23.09h-.84c-.26 0-.4.2-.4.43v2.28c0 .16-.2.29-.37.29H10.1a.07.07 0 0 0-.08.07Z" fill="#fff"/></svg>