<!-- by TradingView --><svg width="18" height="18" viewBox="0 0 18 18" xmlns="http://www.w3.org/2000/svg"><path fill="#F0F3FA" d="M0 0h18v18H0z"/><path d="M7 7.53V5.05C7 5.02 7 5 7.05 5h1.9a.05.05 0 0 1 .04.02.06.06 0 0 1 .01.03v7.82c0 .03-.05.13-.08.13H7.05c-.03 0-.05-.02-.05-.06v-.73c0-.07-.02-.08-.06-.02-.47.57-1.05.84-1.79.8-1.97-.1-2.44-2.67-2-4.3.49-1.74 2.5-2.15 3.8-1.13.03.02.05.01.05-.03Zm-.08 1.69c-.28-.96-1.64-.99-1.85.01-.11.56-.13 1.57.24 2.01.27.33.95.37 1.29.09.46-.4.49-1.55.32-2.11Z" fill="#548DD4"/><path d="m11 6.9-.01-.7c0-.05.02-.09.05-.1L12.93 5c.04-.02.07 0 .07.05v1.88c0 .04.02.06.06.06h.8c.05 0 .14.06.14.1v1.43c0 .04-.08.06-.12.06h-.83c-.04 0-.05.01-.05.05V11c0 .69.4.5.8.38.04-.01.06 0 .06.05l.14 1.32c0 .03-.01.06-.05.07-.74.18-1.42.22-2.04.11-.77-.13-.91-.69-.91-1.54V8.7c0-.05-.07-.1-.11-.1h-.83c-.04 0-.06-.03-.06-.07V7.07c0-.04.02-.07.06-.07h.85c.04 0 .09-.04.09-.1Z"/></svg>