<!-- by TradingView --><svg width="18" height="18" viewBox="0 0 18 18" fill="none" xmlns="http://www.w3.org/2000/svg">
<rect width="18" height="18" fill="#F0F3FA"/>
<path d="M6.33609 7.29522C6.54982 6.91325 6.8792 6.6738 7.32425 6.57687C7.37439 6.56537 7.39814 6.5358 7.3955 6.48816C7.3546 5.8807 7.10789 4.34542 7.87705 4.13472C8.55782 3.94866 10.2492 3.79711 10.294 4.81857C10.3275 5.58909 9.93826 5.97968 9.12644 5.99036C9.07543 5.99118 9.04729 6.01542 9.04201 6.06306L9.00375 6.40807C8.99759 6.46392 9.02178 6.50335 9.07631 6.52635C9.451 6.68489 9.74169 6.93091 9.94838 7.26442C9.97037 7.29974 9.99939 7.3059 10.0355 7.2829L12.7453 5.63057C12.7884 5.60346 12.8315 5.60346 12.8746 5.63057C13.12 5.78459 13.1609 5.97558 12.8984 6.13206C11.9362 6.70954 10.9665 7.27921 9.98928 7.84107C9.95797 7.85904 9.92285 7.87043 9.88638 7.87444C9.84992 7.87846 9.81298 7.87501 9.77816 7.86432C9.74334 7.85364 9.71149 7.83599 9.68483 7.8126C9.65817 7.78922 9.63735 7.76066 9.62383 7.72895C9.44 7.30426 9.11193 7.04263 8.63962 6.94406C8.53231 6.92188 8.48174 6.85945 8.48789 6.75677L8.5565 5.72421C8.56058 5.65937 8.59205 5.59868 8.64399 5.55548C8.69594 5.51228 8.76411 5.4901 8.83355 5.4938C9.08774 5.50776 9.33314 5.47449 9.56974 5.39399C9.6102 5.38003 9.6401 5.35539 9.65945 5.32006C9.78083 5.09252 9.7883 4.86991 9.68188 4.65223C9.66077 4.61034 9.62646 4.58487 9.57897 4.57584C9.06619 4.47644 8.55606 4.48548 8.04856 4.60294C8.00958 4.61166 7.97497 4.63267 7.95049 4.66249C7.92601 4.6923 7.91312 4.72912 7.91399 4.76682L7.94697 6.77279C7.94854 6.84119 7.92197 6.90758 7.87269 6.95841C7.82341 7.00924 7.75514 7.04069 7.68179 7.04633C7.15319 7.08904 6.82204 7.34739 6.68835 7.82136C6.6785 7.85663 6.65908 7.88893 6.63196 7.91515C6.60485 7.94136 6.57094 7.9606 6.53354 7.971C6.49614 7.98141 6.45649 7.98263 6.41844 7.97455C6.38038 7.96646 6.3452 7.94935 6.3163 7.92486C5.56033 7.29153 5.10648 6.57318 4.08533 6.23063C4.05643 6.22066 4.03223 6.20146 4.01702 6.17643C4.00181 6.1514 3.99657 6.12215 4.00221 6.09386C4.05235 5.83511 4.21638 5.74762 4.49432 5.83141C5.33868 6.08524 5.69226 6.70995 6.22131 7.30755C6.26528 7.35765 6.30354 7.35355 6.33609 7.29522Z" fill="#B17B16"/>
<path d="M8.85808 5.16722C8.9943 5.16989 9.10675 5.08216 9.10924 4.97126C9.11172 4.86036 9.0033 4.7683 8.86708 4.76563C8.73085 4.76297 8.6184 4.8507 8.61592 4.9616C8.61343 5.0725 8.72185 5.16456 8.85808 5.16722Z" fill="#B17B16"/>
<path d="M12.306 8.65308L13.8958 9.20632C13.945 9.22357 13.9745 9.25602 13.9842 9.30366C14.0475 9.62526 13.8404 9.7152 13.5567 9.61293C12.5549 9.2515 11.5382 8.93196 10.5065 8.65431C10.4044 8.6272 10.3081 8.58777 10.2175 8.53602C10.1806 8.51548 10.1573 8.48509 10.1476 8.44484C10.1151 8.31423 10.1617 8.22018 10.2875 8.16267C11.2655 7.71827 12.2471 7.27921 13.2322 6.84549C13.4459 6.75185 13.7203 6.78511 13.7124 7.04756C13.7112 7.08877 13.6978 7.12889 13.6735 7.16348C13.6493 7.19806 13.6153 7.22575 13.5752 7.24348L11.8667 8.00865C11.8579 8.01247 11.8508 8.01897 11.8466 8.02708C11.8423 8.03519 11.8412 8.04441 11.8434 8.05321C11.8455 8.06201 11.8509 8.06985 11.8585 8.07542C11.8661 8.08099 11.8755 8.08395 11.8851 8.08382H13.8628C13.9217 8.08382 13.956 8.11092 13.9657 8.16514L13.9974 8.34873C14.0175 8.46507 13.9175 8.52856 13.7929 8.52941H12.3192C12.175 8.53023 12.1706 8.60625 12.306 8.65308Z" fill="#B17B16"/>
<path d="M8.03538 8.5508L7.94963 8.79477C7.92764 8.85638 7.88498 8.87404 7.82165 8.84776L7.70027 8.79724C7.65629 8.77916 7.63255 8.74754 7.62903 8.70236C7.56702 7.9224 8.72538 7.94827 8.79927 8.63459C8.86391 9.23589 8.13433 9.65113 7.56438 9.58952C6.25958 9.44782 6.5683 6.6237 8.85335 7.56384C10.2294 8.1294 9.75313 9.89879 8.36521 10.0257C8.32387 10.029 8.29089 10.015 8.26626 9.98381C8.14488 9.82733 8.23855 9.73368 8.41007 9.69179C9.30984 9.4737 9.67265 8.41896 8.84017 7.93719C8.60269 7.80041 7.7979 7.62175 7.50633 7.82506C7.24906 8.00495 7.03402 8.82558 7.30052 9.07571C7.82825 9.56857 8.78871 8.84036 8.29397 8.47811C8.27315 8.4628 8.24869 8.45241 8.22266 8.4478C8.19663 8.4432 8.1698 8.44452 8.14443 8.45165C8.11906 8.45878 8.0959 8.47151 8.07692 8.48877C8.05794 8.50603 8.04369 8.52731 8.03538 8.5508Z" fill="#B17B16"/>
<path d="M7.09601 10.4989C6.49 10.2541 6.09157 9.83061 5.90071 9.22849C5.88782 9.18821 5.88782 9.14529 5.90071 9.10501C5.91361 9.06473 5.93883 9.02884 5.97327 9.00178C6.07706 8.92045 6.18568 8.89951 6.29914 8.93893C6.33784 8.95208 6.36555 8.97672 6.38226 9.01286C6.67911 9.67331 7.01157 9.98874 7.7306 10.2142C7.76208 10.2243 7.79074 10.2408 7.81443 10.2626C7.83813 10.2843 7.85624 10.3108 7.86741 10.34C7.87858 10.3691 7.88252 10.4002 7.87893 10.431C7.87535 10.4617 7.86433 10.4912 7.8467 10.5173L5.84002 13.4758C5.82348 13.5002 5.80137 13.521 5.77526 13.5366C5.74915 13.5522 5.71969 13.5622 5.68897 13.566C5.65824 13.5698 5.627 13.5672 5.59747 13.5584C5.56794 13.5496 5.54084 13.5349 5.5181 13.5152L5.3809 13.3957C5.33252 13.353 5.32592 13.3057 5.3611 13.254L7.13295 10.6061C7.1655 10.5576 7.15318 10.5219 7.09601 10.4989Z" fill="#B17B16"/>
<path d="M9.30192 10.6171L11.2004 13.2614C11.233 13.3065 11.233 13.3513 11.2004 13.3957C11.0157 13.6495 10.7809 13.5793 10.6212 13.3575C9.99764 12.4925 9.37228 11.6283 8.74516 10.765C8.66249 10.6508 8.60048 10.5399 8.55914 10.4323C8.55134 10.4122 8.54801 10.3908 8.54934 10.3695C8.55067 10.3481 8.55664 10.3272 8.56688 10.3081C8.57713 10.289 8.59143 10.272 8.60892 10.2582C8.62642 10.2444 8.64674 10.234 8.66864 10.2278C9.27465 10.0594 9.72454 9.71067 10.0183 9.18166C10.0463 9.13148 10.0932 9.09269 10.1499 9.0727C10.2066 9.0527 10.2692 9.05289 10.3257 9.07323C11.214 9.38867 12.109 9.7119 13.0105 10.0429C13.2717 10.1391 13.5435 10.1477 13.5805 10.4643C13.5845 10.4985 13.579 10.5331 13.5646 10.5647C13.5502 10.5964 13.5273 10.624 13.4982 10.645C13.469 10.666 13.4346 10.6797 13.3982 10.6848C13.3618 10.6898 13.3246 10.686 13.2902 10.6738L10.4537 9.66097C10.4312 9.65293 10.4066 9.65221 10.3838 9.65893C10.361 9.66565 10.3414 9.67942 10.3283 9.69794C10.0724 10.0618 9.73729 10.3424 9.32302 10.5395C9.31591 10.5431 9.30967 10.548 9.30469 10.5539C9.29972 10.5598 9.29612 10.5667 9.29413 10.574C9.29215 10.5813 9.29181 10.5889 9.29315 10.5963C9.29449 10.6038 9.29748 10.6108 9.30192 10.6171Z" fill="#B17B16"/>
<path d="M8.76891 12.3964L9.38767 14.4381C9.40175 14.4849 9.39691 14.5301 9.37316 14.5736C9.29664 14.7166 9.16823 14.7642 8.98792 14.7166C8.94218 14.7051 8.91228 14.6775 8.89821 14.634L8.34409 12.8437C8.34187 12.834 8.33605 12.8253 8.32765 12.8193C8.31925 12.8132 8.30882 12.8101 8.29822 12.8106C8.28762 12.811 8.27753 12.815 8.26974 12.8217C8.26195 12.8284 8.25698 12.8375 8.2557 12.8474L7.85199 14.8583C7.84687 14.8835 7.83587 14.9073 7.81979 14.9281C7.8037 14.9489 7.78293 14.9661 7.75896 14.9785C7.73499 14.9908 7.70842 14.9981 7.68116 14.9997C7.65391 15.0013 7.62664 14.9971 7.60132 14.9876C7.41133 14.917 7.33306 14.793 7.36648 14.6155C7.50193 13.8984 7.64222 13.178 7.78734 12.4543C7.78889 12.4452 7.78702 12.4359 7.78207 12.4278C7.77711 12.4198 7.76938 12.4136 7.76025 12.4104C7.75111 12.4071 7.74115 12.4071 7.73211 12.4101C7.72307 12.4132 7.71553 12.4192 7.71082 12.4272C7.38099 12.9496 7.0516 13.468 6.72265 13.9822C6.58808 14.1925 6.42316 14.2216 6.22791 14.0697C6.18937 14.0403 6.1635 13.9989 6.15502 13.9529C6.14654 13.907 6.15602 13.8597 6.18173 13.8195C6.77542 12.8946 7.36736 11.9873 7.95753 11.0977C8.07495 10.9203 8.29792 10.8217 8.44832 11.0151C9.07456 11.8169 9.6788 12.6219 10.2611 13.4302C10.3138 13.5033 10.3121 13.5756 10.2558 13.647C10.0724 13.8787 9.9497 13.8245 9.78215 13.6249C9.44616 13.224 9.13305 12.8042 8.84279 12.3656C8.83753 12.3579 8.82946 12.3522 8.82007 12.3495C8.81068 12.3469 8.80058 12.3475 8.79163 12.3512C8.78268 12.355 8.77546 12.3616 8.77129 12.3699C8.76712 12.3782 8.76628 12.3876 8.76891 12.3964Z" fill="#B17B16"/>
</svg>
