<!-- by TradingView --><svg width="18" height="18" viewBox="0 0 18 18" fill="none" xmlns="http://www.w3.org/2000/svg">
<rect width="18" height="18" fill="url(#paint0_linear_228_5985)"/>
<path d="M8.23333 11C8.40556 11.1667 8.8 11.5 9 11.5C9.2 11.5 9.59444 11.1667 9.76667 11C9.81667 11.0526 9.93333 11.1763 10 11.25C9.72 11.7447 9.21667 11.9561 9 12C8.78333 11.9561 8.28 11.7447 8 11.25C8.06667 11.1763 8.18333 11.0526 8.23333 11Z" fill="white"/>
<path d="M8.28809 10.1731C8.3636 10.3654 8.61172 10.8 9.00008 11C9.38844 10.8 9.63656 10.3654 9.71208 10.1731V8.19231C9.47906 8.03846 9.14032 8 9.00008 8C8.85984 8 8.5211 8.03846 8.28809 8.19231V10.1731Z" fill="white"/>
<path d="M8 9.99425V8H2C3.14286 9.72835 6.47619 10.0496 8 9.99425Z" fill="white"/>
<path d="M10 9.99425V8H16C14.8571 9.72835 11.5238 10.0496 10 9.99425Z" fill="white"/>
<path d="M8.71053 7H9.28947C9.44737 7 9.81579 7.625 10 8C9.66316 7.8 9.19298 7.75 9 7.75C8.80702 7.75 8.33684 7.8 8 8C8.18421 7.625 8.55263 7 8.71053 7Z" fill="white"/>
<defs>
<linearGradient id="paint0_linear_228_5985" x1="9" y1="0" x2="9" y2="18" gradientUnits="userSpaceOnUse">
<stop stop-color="#181B1E"/>
<stop offset="1" stop-color="#181B1E"/>
</linearGradient>
</defs>
</svg>
