<!-- by TradingView --><svg width="18" height="18" viewBox="0 0 18 18" fill="none" xmlns="http://www.w3.org/2000/svg">
<rect width="18" height="18" fill="#F0F3FA"/>
<path d="M8.5 10H9.5V15H8.5V10Z" fill="black"/>
<ellipse cx="9" cy="8.5" rx="0.5" ry="0.5" fill="black"/>
<path fill-rule="evenodd" clip-rule="evenodd" d="M14.9993 9C14.9998 8.96993 15 8.93981 15 8.90964C15 5.64584 12.3137 3 9 3C5.68629 3 3 5.64584 3 8.90964C3 8.93981 3.00023 8.96993 3.00069 9C3.04972 5.77785 5.71692 3.18071 9 3.18071C12.2831 3.18071 14.9503 5.77785 14.9993 9Z" fill="#D9D9D9"/>
<path fill-rule="evenodd" clip-rule="evenodd" d="M13.9992 8.99998C13.9997 8.97006 14 8.94007 14 8.91002C14 6.19825 11.7614 3.99994 9 3.99994C6.23858 3.99994 4 6.19825 4 8.91002C4 8.94007 4.00027 8.97006 4.00082 8.99998C4.04968 6.32973 6.26918 4.17987 9 4.17987C11.7308 4.17987 13.9503 6.32973 13.9992 8.99998Z" fill="#B3B3B3"/>
<path fill-rule="evenodd" clip-rule="evenodd" d="M12.9979 9.00003C12.9993 8.95801 13 8.91582 13 8.87348C13 6.73425 11.2091 5.00006 9 5.00006C6.79086 5.00006 5 6.73425 5 8.87348C5 8.91582 5.0007 8.95801 5.00209 9.00003C5.07107 6.9103 6.83459 5.23682 9 5.23682C11.1654 5.23682 12.9289 6.9103 12.9979 9.00003Z" fill="#808080"/>
<path fill-rule="evenodd" clip-rule="evenodd" d="M11.9697 8.99835C11.9897 8.87615 12 8.75125 12 8.62423C12 7.17491 10.6569 6 9 6C7.34315 6 6 7.17491 6 8.62423C6 8.75233 6.01049 8.87828 6.03077 9.00147C6.02865 8.96115 6.02757 8.92059 6.02757 8.87981C6.02757 7.44315 7.35845 6.2785 9.00017 6.2785C10.6419 6.2785 11.9728 7.44315 11.9728 8.87981C11.9728 8.91954 11.9718 8.95906 11.9697 8.99835Z" fill="black"/>
<path fill-rule="evenodd" clip-rule="evenodd" d="M10.9097 8.99999C10.9684 8.85494 11 8.70069 11 8.54074C11 7.68978 10.1046 6.99994 9 6.99994C7.89543 6.99994 7 7.68978 7 8.54074C7 8.70063 7.03161 8.85483 7.09028 8.99983C7.08097 8.93878 7.07617 8.87662 7.07617 8.81356C7.07617 7.96844 7.93749 7.28334 8.99998 7.28334C10.0625 7.28334 10.9238 7.96844 10.9238 8.81356C10.9238 8.87667 10.919 8.93888 10.9097 8.99999Z" fill="black"/>
</svg>
