<!-- by TradingView --><svg width="18" height="18" viewBox="0 0 18 18" xmlns="http://www.w3.org/2000/svg"><path fill="url(#acdslfq4s)" d="M0 0h18v18H0z"/><path d="M8.75 4H6.06C5.47 4 5 4.53 5 5.19v1.26c1.54-.33 2.68.76 3.07 1.36.52-1.05.67-2.9.68-3.81ZM5 7.1v2.08c1.42.74 2.41-.21 2.74-.8A2.37 2.37 0 0 0 5 7.11Zm0 2.84v2.87c0 .66.47 1.19 1.06 1.19h2.65c-.05-2.37-.45-4.3-.64-5A2.72 2.72 0 0 1 5 9.95ZM9.25 14h2.69c.59 0 1.06-.53 1.06-1.19V9.93c-.68.25-2.12.38-3.11-.92-.2.68-.6 2.62-.64 4.99ZM13 9.16V7.12c-.65-.2-2-.18-2.78 1.26.33.6 1.34 1.56 2.78.78Zm0-2.7c-1.56-.36-2.72.74-3.11 1.35C9.36 6.76 9.22 4.9 9.2 4h2.73c.59 0 1.06.53 1.06 1.19v1.27ZM8.38 8.38a8 8 0 0 0 .6-1.7 8 8 0 0 0 .6 1.7c-.24.66-.5 1.82-.6 2.41-.11-.59-.36-1.75-.6-2.4Z" fill="#A8A8AA"/><defs><linearGradient id="acdslfq4s" x1="3.35" y1="3.12" x2="21.9" y2="24.43" gradientUnits="userSpaceOnUse"><stop stop-color="#1A1E21"/><stop offset="1" stop-color="#06060A"/></linearGradient></defs></svg>