<!-- by TradingView --><svg xmlns="http://www.w3.org/2000/svg" width="18" height="18"><path fill="url(#ahouoigfe)" d="M0 0h18v18H0z"/><path d="M11.8 6h-1.22L9.43 7.7l.6 1.02L11.8 6zm-2.35 4.17L10.6 12h1.21l-1.73-2.81-.62.98zm-.8-1.21L6.9 6h1.2l1.77 2.96L8.1 12H6.9l1.75-3.04zM12.5 6v6H16v-1h-2.5V6h-1zm-8.44 5A1.9 1.9 0 006 9.02C6 7.84 5.1 7 4.06 7H3v4h1.06zm0-5C5.8 6 7 7.3 7 8.98V9c0 1.7-1.2 3-2.94 3H2V6h2.06z" fill="#fff"/><defs><linearGradient id="ahouoigfe" x1="3.35" y1="3.12" x2="21.9" y2="24.43" gradientUnits="userSpaceOnUse"><stop stop-color="#1A1E21"/><stop offset="1" stop-color="#06060A"/></linearGradient></defs></svg>