<!-- by TradingView --><svg width="18" height="18" viewBox="0 0 18 18" xmlns="http://www.w3.org/2000/svg"><path fill="#F0F3FA" d="M0 0h18v18H0z"/><path d="M4.93 4.58c.01-.02.04 0 .03.03-.21.43-.28.87-.2 1.33.01.02.04.02.04 0a3.52 3.52 0 0 1 2.94-2.82 6.63 6.63 0 0 1 2.21-.03c-1.05.05-2.25.37-2.94 1.2-.01.02 0 .05.02.05.34.02.95.16 1.17.44 0 .01 0 .03-.02.04a.8.8 0 0 0-.53.42.12.12 0 0 0 0 .09c.1.35.2.69.41.94h.06a2.11 2.11 0 0 1 .77-.43c.01 0 .02 0 .03.02l.08.18c.01.03 0 .06-.03.07-.29.1-.54.27-.75.5a2.5 2.5 0 0 1-1.19.33 3.3 3.3 0 0 1-1.86-.77c-.02-.02-.06 0-.04.04.27.45 1.2 1.8 1.84 1.68a26.58 26.58 0 0 0 1.56-.35c.02.01.03.02.03.04.14.4.31.75-.08 1.09-.42.35-1 .55-1.4.7a.45.45 0 0 0-.1.05c-.97.68-1.14 1.61-1.22 2.7 0 .03-.03.05-.06.05-.64-.1-1.2-.34-1.66-.76-.78-.69-1.02-1.78-1.04-2.75 0-.02.03-.03.04-.01.11.3.33.63.64.97.03.02.08 0 .06-.04-.1-.26-.23-.52-.3-.8-.23-.82-.18-1.61.14-2.4 0-.01.06-.08.08-.02a5.9 5.9 0 0 0 .3.99c.02 0 .04 0 .03-.02-.11-1.05.08-2.05.94-2.75Z" fill="url(#a)"/><path d="M13.95 5.57c.01.01 0 .03-.02.02l-.15-.07a1.7 1.7 0 0 0-.87-.2c-.02 0-.02.03 0 .03.83.38 1.44.96 1.82 1.77.06.13.1.26.13.41 0 .02-.01.03-.03.02-.2-.25-.45-.46-.75-.65-.01 0-.15-.05-.1 0 1.36 1.31 1.22 3.23.42 4.79-.01.01-.04 0-.04-.01.04-.44.04-.86.02-1.26a2.6 2.6 0 0 0-.17-.8c-.01-.03-.05-.04-.07-.02a4.07 4.07 0 0 1-3.05 1.14.17.17 0 0 1-.14-.1l-.47-.98.01-.06c.33-.28.36-.65.3-1.05-.07-.5-.23-.97-.47-1.44-.02-.03 0-.07.04-.06 1.1.13 1.84 1.24 2.58 1.85.03.03.07 0 .06-.04a24.7 24.7 0 0 1-.4-.82 4.42 4.42 0 0 0-.88-1.25v-.02a2.7 2.7 0 0 0-1.36-.7c-.33-.06-.67-.2-.97-.33-.07-.13.92-.39 1.04-.45.04-.02.04-.08 0-.1-.42-.1-1.45-.16-1.74-.45a3.01 3.01 0 0 0-.85-.63c.8-.41 1.53-.74 2.45-.77a3.2 3.2 0 0 1 1.8.47c.02.01.01.05-.01.04a2.2 2.2 0 0 0-.96.1c-.02 0-.02.04 0 .04 1.12.08 2.2.58 2.83 1.58Z" fill="url(#b)"/><path d="M12.34 13.1v-.01h-.02a3.1 3.1 0 0 1-1.85 1.69c-.43.15-.87.23-1.3.22-.04 0-.05-.05-.02-.06.38-.16 1.02-.54 1.15-.95 0-.01-.01-.03-.03-.02-.93.74-2 .97-3.2.7-.02-.01-.02-.05 0-.06.32-.06.63-.13.93-.22.2-.05.37-.12.53-.21.03-.01.01-.05-.02-.04-.91.27-1.96.23-2.8-.22a4.84 4.84 0 0 1-1.95-2.05c-.01-.03.02-.05.05-.04a3 3 0 0 0 2 .63.15.15 0 0 0 .13-.1l.16-.5c.19-.6.7-1.08 1.26-1.36A8.4 8.4 0 0 1 9.2 9.8a.1.1 0 0 1 .1.07c.2.8.55 1.63 1.19 2.18.02.02.05.03.08.03a3.5 3.5 0 0 0 1.7-.5c.65-.37 1.2-.95 1.75-1.41a.04.04 0 0 1 .04 0 .04.04 0 0 1 .03.02c.35 1.84-.6 3.3-2.25 4.1a.03.03 0 0 1-.03 0v-.04c.29-.3.55-.74.52-1.16Z" fill="#0066C3"/><defs><linearGradient id="a" x1="9.97" y1="7.58" x2="3" y2="7.58" gradientUnits="userSpaceOnUse"><stop stop-color="#0F865E"/><stop offset="1" stop-color="#46C43E"/></linearGradient><linearGradient id="b" x1="15" y1="7.52" x2="7.84" y2="7.52" gradientUnits="userSpaceOnUse"><stop stop-color="#077E72"/><stop offset="1" stop-color="#4CC134"/></linearGradient></defs></svg>