<!-- by TradingView --><svg xmlns="http://www.w3.org/2000/svg" width="18" height="18" viewBox="0 0 18 18"><path fill="#F0F3FA" d="M0 0h18v18H0z"/><path d="M4 7.1V9H3V6.46c.53-.6 1.4-.96 2.22-.96 2.34 0 3.13 1.61 4 3.04l.08.14c.83 1.37 1.83 2.82 3.6 2.82.49 0 .94-.19 1.1-.31V9h1v2.6c-.53.56-1.3.9-2.1.9-2.15 0-3.43-1.62-4.46-3.31C7.5 7.65 6.99 6.5 5.22 6.5c-.52 0-1.05.46-1.22.6Z" fill="#024D96"/><path d="m13.97 7.07.03.02 1-.63c-.53-.6-1.4-.96-2.22-.96-2.18 0-3.01 1.4-3.82 2.74l-.17.3-.09.14c-.83 1.37-1.83 2.82-3.6 2.82-.49 0-.94-.19-1.1-.31l-1 .42c.53.55 1.3.89 2.1.89 2.15 0 3.43-1.62 4.46-3.31l.25-.4c.79-1.34 1.36-2.29 2.97-2.29.5 0 1 .41 1.19.57Z" fill="#9A9A9B"/></svg>