<!-- by TradingView --><svg width="18" height="18" viewBox="0 0 18 18" xmlns="http://www.w3.org/2000/svg"><path fill="#F0F3FA" d="M0 0h18v18H0z"/><path d="M5.76 7.5h-.01a1.75 1.75 0 1 1 1.72-1.4c.22 1.44 1.64 2.3 2.45 2.62l-.08.04c.53.25.9.75.9 1.32 0 .84-.78 1.52-1.74 1.52s-1.74-.68-1.74-1.52c0-.11.02-.23.05-.33A3.12 3.12 0 0 0 5.76 7.5Z" fill="#115DA9"/><path d="M10.55 6.18A1.75 1.75 0 0 1 12.25 4a1.75 1.75 0 0 1 .11 3.5 3.13 3.13 0 0 0-1.7 2.17 1.75 1.75 0 1 1-2-1.14 3.84 3.84 0 0 0 1.9-2.35Z" fill="#E12526"/><circle r="1.5" transform="matrix(-1 0 0 1 9 14)" fill="#115DA9"/></svg>