<!-- by TradingView --><svg width="18" height="18" viewBox="0 0 18 18" xmlns="http://www.w3.org/2000/svg"><path fill="#F0F3FA" d="M0 0h18v18H0z"/><path fill-rule="evenodd" d="M16 6H2v1.63h9V8H2v3.25h2l.73-1.93h-.4V9H6v.32h-.45L6 10.61h-.43l-.12-.32h-.6l-.37.96h4.86c.07.16.15.3.24.38H8.23l-.22.37H16V6ZM2.6 9.8V9h1.12v.4h-.84v.4h.84v.4h-.84v.4H4l-.11.4H2.6v-.8h-.28v-.4h.28Zm12.76-2.3v.35H14.1V7.5h1.27Zm-1.27.35v1.4h-.32v.35h.32V11h1.6v-.35H14.4V9.6h.95v-.35h-.95v-1.4h-.32Zm-2.54.4h-.32V11h.32V8.25Zm-.32-.63h.32V8h-.32v-.38ZM9.2 9.4h.6c.04-.13.07-.2.2-.4H8v.29c-.1-.1-.41-.29-.93-.29-.65 0-.93.35-.93.6 0 .26.33.45.75.56.43.1.5.17.5.29 0 .12-.21.19-.39.19-.14 0-.5-.13-.65-.2l-.35.28c.15.1.56.28 1 .28.54 0 1-.27 1-.55 0-.3-.23-.51-.61-.62l-.14-.04c-.3-.08-.5-.13-.5-.25 0-.13.13-.18.32-.18.15 0 .43.12.54.18L8 9.3v.11h.8V11h.4V9.4Zm-4.04.05-.2.51h.38l-.18-.5ZM11 9.3l-.2.25c-.05-.06-.19-.18-.26-.18-.1 0-.16.05-.16.18 0 .12.1.17.24.25l.07.04c.2.11.31.33.31.62 0 .28-.23.55-.5.55-.22 0-.42-.18-.5-.28l.18-.27c.07.06.25.19.32.19a.2.2 0 0 0 .2-.2c0-.11-.04-.17-.25-.28-.21-.11-.38-.3-.38-.56 0-.25.14-.6.47-.6.25 0 .41.2.46.29ZM12 8h.89c.49 0 .88.4.88.9v1.2c0 .5-.4.9-.88.9H12V8Zm.3.3h.59c.32 0 .59.27.59.6v1.2a.6.6 0 0 1-.6.6h-.58V8.3Z"/></svg>