<!-- by TradingView --><svg width="18" height="18" xmlns="http://www.w3.org/2000/svg"><path fill="#F05537" d="M0 0h18v18H0z"/><path d="M8.024 5.914c1.496-.371 3.187.163 3.687 1.668l-5.696 1.65c-.332-1.124.514-2.947 2.01-3.318zm4.196 4.753c-.402.569-1.413 1.414-2.104 1.564-1.52.34-2.9-.332-3.799-1.564L11.9 9.124l.833-.183 1.099-.353c.048-.162.034-.473 0-.697-.47-3.122-3.4-4.355-6.206-3.736-2.806.62-4.11 3.298-3.462 5.98.648 2.683 3.447 4.355 6.253 3.736 1.653-.365 2.94-1.444 3.584-2.818l-1.78-.386z" fill="#fff"/></svg>