<!-- by TradingView --><svg width="18" height="18" xmlns="http://www.w3.org/2000/svg"><path fill="#F0F3FA" d="M0 0h18v18H0z"/><path d="M3.81 7.336C2.823 7.336 2 7.81 2 9.24c0 1.134.553 1.848 1.836 1.848 1.51 0 1.606-1.236 1.606-1.236h-.731s-.157.716-.92.716c-.621 0-1.068-.37-1.068-1.035H5.52V9.01c0-.659-.37-1.674-1.709-1.674zm-.019.59c.591 0 1.008.47 1.008 1.084h-2.04c0-.652.513-1.085 1.032-1.085z" fill="#E53238"/><path d="M5.5 6l-.009 5h.875l.009-.419s.195.611 1.132.611c.987 0 1.657-.776 1.657-1.888 0-1.034-.616-1.865-1.656-1.865-.973 0-1.142.595-1.142.595V6H5.5zm1.894 1.983c.67 0 1.03.566 1.03 1.321 0 .811-.43 1.348-1.03 1.348-.715 0-1.028-.618-1.028-1.319 0-.653.278-1.35 1.028-1.35z" fill="#0064D2"/><path d="M10.898 7.428c-1.486 0-1.58 1.008-1.58 1.155h.739s.038-.625.79-.625c.488 0 .778.253.778.74v.207h-.778c-1.15 0-1.76.348-1.76 1.121 0 .762.563 1.176 1.322 1.176 1.036 0 1.216-.648 1.216-.648V11h.875V8.81c0-1.142-.885-1.382-1.602-1.382zm.727 1.963v.231c0 .301-.075 1.05-1.042 1.05-.529 0-.756-.299-.756-.646 0-.63.675-.635 1.798-.635z" fill="#F5AF02"/><path d="M12.115 7.63h.814l1.168 2.704 1.166-2.704H16l-2.123 4.87h-.773l.612-1.381-1.6-3.49z" fill="#86B817"/></svg>