<!-- by TradingView --><svg width="18" height="18" viewBox="0 0 18 18" xmlns="http://www.w3.org/2000/svg"><path fill="#F0F3FA" d="M0 0h18v18H0z"/><path d="m13.93 8.81-.27-.26c-.17-1.51-2-3.91-5.25-3.91-2.6 0-4.27 1.5-4.78 2.24a5.74 5.74 0 0 1 5.87-2.4c3.67.54 4.48 3.11 4.43 4.33Z" fill="url(#aqh25r3wm)"/><path d="M13.9 8.8H3.16c0 .44.15 1.62.78 2.78.79 1.44 2.98 2.3 4.24 2.3 1 0 1.83-.17 2.12-.25-4.5 0-6.07-2.91-6.3-4.36h10.77l.22.18c-.12-3.3-2.45-4.53-3.88-5.02a7.04 7.04 0 0 0-3.17-.17l-.53.24c4.81-.31 6.4 2.86 6.47 4.3Z" fill="#B8B9BE"/><path d="m4.36 9.45-.38-.22h10.8l.22.22H4.36Z" fill="#7F8386"/><path d="m4.36 9.46-.42-.28c0 .05.14.34.14.92 0 .58 1.26 2.06 1.89 2.73.56.3 2.2.9 4.2.9 2.02 0 3.61-1.64 4.16-2.46-.56.7-2.24 2.1-4.4 2.1-3.92 0-5.34-2.6-5.57-3.9Z" fill="url(#bqh25r3wm)"/><path d="M3.53 7.04A6.37 6.37 0 0 1 9.11 4c4.05 0 5.87 2.8 5.87 5.46l-.2-.21c0-2.07-1.72-5-5.33-5-3.54 0-5.39 1.82-5.92 2.79Z" fill="url(#cqh25r3wm)"/><path d="M14.53 10.96A6.42 6.42 0 0 1 8.91 14C4.84 14 3 11.2 3 8.54l.2.21c0 2.07 1.73 5 5.37 5 3.56 0 5.43-1.82 5.96-2.79Z" fill="url(#dqh25r3wm)"/><defs><linearGradient id="aqh25r3wm" x1="12.37" y1="7.16" x2="5.42" y2="7.48" gradientUnits="userSpaceOnUse"><stop stop-color="#737479"/><stop offset="1" stop-color="#A0A3A8"/></linearGradient><linearGradient id="bqh25r3wm" x1="5.29" y1="9.23" x2="6.86" y2="12.22" gradientUnits="userSpaceOnUse"><stop stop-color="#B7B7C1"/><stop offset="1" stop-color="#B7B7C1" stop-opacity="0"/></linearGradient><linearGradient id="cqh25r3wm" x1="4.72" y1="5.23" x2="15.28" y2="8.69" gradientUnits="userSpaceOnUse"><stop stop-color="#AEB1B6"/><stop offset=".47" stop-color="#E8EBF2"/><stop offset="1" stop-color="#B2B5BA"/></linearGradient><linearGradient id="dqh25r3wm" x1="13.42" y1="10.71" x2="3" y2="10.32" gradientUnits="userSpaceOnUse"><stop offset=".5" stop-color="#717274"/><stop offset="1" stop-color="#C1C4C9"/></linearGradient></defs></svg>