<!-- by TradingView --><svg xmlns="http://www.w3.org/2000/svg" width="18" height="18" viewBox="0 0 18 18"><path fill="#F0F3FA" d="M0 0h18v18H0z"/><path fill-rule="evenodd" d="M6.3 6.58c.05-.07.2-.19.44-.2.02-.04.1-.09.29 0l.5.1c.03.1.08.35 0 .59a.87.87 0 0 0 0 .54c-.05.13-.14.4-.05.43.09.03.21.02.27 0 .18-.17.6-.5.82-.43.22.07.54.15.67.18.04.08.14.25.2.3.06.18.15.74 0 1.48-.2.93-.47 1.54-.67 1.68-.2.15-.73.5-1.18.7l-.61-.19a1.1 1.1 0 0 0-.43.01c-.1.05-.26.11-.51 0-.23-.1-.34-.2-.37-.23-.01-.21-.03-.65.04-.75.07-.1.16-.67.2-.94a7.56 7.56 0 0 0 .47-2.01.74.74 0 0 0 0-.36l-.08-.9zm.58 4.1c.17-.44.59-1.41.92-1.89.15-.12.47-.26.54.14a2.06 2.06 0 0 1-.33 1.47c-.1.13-.23.37-.29.48-.11.03-.39.1-.54.05-.15-.04-.17-.15-.16-.2l-.14-.06z" fill="#003895"/><path d="M10.54 7.47c-.44-.03-.51.32-.5.5-.02.22-.21 1.52-.21 1.62 0 .08-.04.16-.06.2-.12.41-.35 1.32-.36 1.54 0 .29.25.43.63.54.3.08.57-.18.66-.32-.32-.19.36-1.46.36-1.58 0-.13.44-.75.5-.75.15-.37.62-.2.7-.19.08.03.31-.1.5-.7.15-.46.06-.68 0-.73-.37-.16-.63-.07-.71 0-.12.12-.4.44-.64.74-.3.36-.2-.2-.17-.37.03-.17-.16-.46-.7-.5zM5.36 6.14A9.86 9.86 0 0 1 2.82 6c-.1.05-.28.17-.23.27.05.1-.02.29-.07.37l-.05 1.13c-.01.27-.07.9-.18 1.25-.1.35-.24 1.3-.29 1.72.1 1 .82 1.19 1.06 1.19.2 0 .5.04.62.07.58.03 1.16-.34 1.38-.53l.3-.67c.1-.17-.2-.47-.76-.26-.44.17-.97.14-1.17.1v-.8a.81.81 0 0 1 .68-.1c.12-.04.46-.14.86-.2.4-.06.51-.73.51-1.05-.1-.1-.42-.07-.51-.12-.4.12-1.2 0-1.3 0-.07 0 .04-.4.1-.6.1-.34.64-.36 1.3-.33.51.02.76-.45.82-.7-.08-.04.1-.34.07-.47-.02-.1-.4-.13-.6-.13z" fill="#003895"/><path fill-rule="evenodd" d="M14.54 7.55c.4-.01 1.22.17 1.38 1 .04.14.09.5 0 .73.09.05.17.28-.15.74-.19.42-.58 1.29-.67 1.4-.02 0-.03.02-.04.04-.09.1-.13.16-.23.06-.32.12-1.03.34-1.35.27-.4-.1-.98-.28-1.12-1.02-.14-.75.3-2 .73-2.35a3 3 0 0 0 .39-.45c.18-.27.82-.44 1.06-.42zm-.63 1.08l.57-.26c.09-.01.27 0 .3.18l-.01.19c-.01.05-.02.08.04.15a.63.63 0 0 0-.04.44l-.03.13-.06.2c-.06.2-.07.55-.06.7h-.14c0 .1-.06.3-.29.42-.04.07-.15.22-.28.23-.16.02-.41-.1-.41-.65 0-.44.03-.56.04-.56.08-.2.24-.62.23-.73 0-.13.04-.4.14-.44z" fill="#D0142C"/><path d="M13.64 10.6c.17.04.06.15.06.17.23.1.34-.04.36-.13.05-.04.15-.13.16-.18l.07-.22c.13-.12.22-.52.21-.75 0-.19.05-.36.08-.42l.06-.33c-.06-.04-.03-.16-.06-.2-.03-.05-.16-.04-.22 0l-.2.1-.18.37c-.02.01-.07.05-.09.1l-.06.21c0 .03 0 .11-.05.22-.05.08-.1.74-.14 1.06z" fill="#F7D118"/></svg>