<!-- by TradingView --><svg width="18" height="18" xmlns="http://www.w3.org/2000/svg"><path fill="#0098CC" d="M0 0h18v18H0z"/><path fill-rule="evenodd" d="M9 14A5 5 0 109 4a5 5 0 000 10zm.63-6.034l1.592-2.993L9.056 7.79a1.232 1.232 0 00-.476.073L5.167 6.071l2.876 2.187c-.047.062-.09.128-.124.198L4.784 6.809l3.008 2.287c.006.07.017.14.034.206l-1.655 3.152 1.973-2.597c.07.07.149.131.234.182l-1.47 2.797 1.999-2.629a1.224 1.224 0 00.41-.039l3.15 1.679-2.601-2.002c.065-.067.122-.14.17-.221l2.942 1.567-2.77-2.131a1.192 1.192 0 00-.038-.37l1.707-3.207-2.035 2.648a1.216 1.216 0 00-.214-.165z" fill="#fff"/></svg>