<!-- by TradingView --><svg width="18" height="18" viewBox="0 0 18 18" xmlns="http://www.w3.org/2000/svg"><path fill="#F0F3FA" d="M0 0h18v18H0z"/><path d="M11.72 13.15a5.23 5.23 0 0 1-3.16.84l-4.04-3.76 7.2 2.92ZM4.7 9.56l7.1 3.54a5.03 5.03 0 0 0 1.9-2.43l-9-1.1Zm9.03 1.04a4.87 4.87 0 0 0 0-3.2L5.45 9l8.28 1.6Zm-2-5.75A5.23 5.23 0 0 0 8.55 4L4.52 7.77l7.2-2.92Zm1.97 2.48a5.03 5.03 0 0 0-1.9-2.43L4.7 8.44l9-1.11ZM4 10.66a5.12 5.12 0 0 0 4.37 3.32L4 10.66Zm4.37-6.64A5.12 5.12 0 0 0 4 7.35l4.37-3.33Z" fill="url(#awckktrmo)"/><defs><linearGradient id="awckktrmo" x1="4.59" y1="11.8" x2="14.21" y2="5.12" gradientUnits="userSpaceOnUse"><stop stop-color="#36C3DE"/><stop offset=".13" stop-color="#38C3D8"/><stop offset=".3" stop-color="#40C3C8"/><stop offset=".48" stop-color="#4DC3AD"/><stop offset=".69" stop-color="#5EC388"/><stop offset=".9" stop-color="#75C359"/></linearGradient></defs></svg>