<!-- by TradingView --><svg width="18" height="18" xmlns="http://www.w3.org/2000/svg"><path fill="url(#paint0_linear)" d="M0 0h18v18H0z"/><path d="M14 8.104C13.624 5.791 11.519 4 9.038 4 6.256 4 4 6.239 4 9s2.256 5 5.038 5c1.654 0 3.083-.746 3.985-1.94l-1.203-.896c-.677.747-1.655 1.344-2.782 1.344-1.955 0-3.534-1.568-3.534-3.508s1.579-3.507 3.534-3.507c1.654 0 3.082 1.119 3.458 2.611H14z" fill="url(#paint2_linear)"/><path d="M14 9.5H9V8h5v1.5z" fill="#B2B3AD"/><defs><linearGradient id="paint0_linear" x1="3.349" y1="3.122" x2="21.904" y2="24.434" gradientUnits="userSpaceOnUse"><stop stop-color="#1A1E21"/><stop offset="1" stop-color="#06060A"/></linearGradient><linearGradient id="paint2_linear" x1="10.722" y1="7.571" x2="6.553" y2="11.04" gradientUnits="userSpaceOnUse"><stop offset=".007" stop-color="#04C1E8"/><stop offset=".057" stop-color="#04BDE6"/><stop offset=".683" stop-color="#018ACB"/><stop offset=".992" stop-color="#0077C0"/></linearGradient></defs></svg>