<!-- by TradingView --><svg xmlns="http://www.w3.org/2000/svg" width="18" height="18"><path fill="url(#ak5ypo3oj)" d="M0 0h18v18H0z"/><path d="M13 5v1.9a2.58 2.58 0 00-1.74-.78c-.4 0-.97.08-1.35.24a2.42 2.42 0 00-1.1 1c.28.44.49.92.63 1.42.08-.93.75-1.8 1.82-1.8.75 0 1.45.5 1.65 1.28a3.1 3.1 0 010 1.56 1.8 1.8 0 01-1.65 1.3 1.8 1.8 0 01-.82-.13l-.11-.06a2.3 2.3 0 001.5.96c.15-.03.29-.07.43-.13.36-.2.65-.37.74-.6V12h1V5h-1zm-7.07 6.13c-.6 0-1.4-.42-1.6-.91l3.09-2.1a3.58 3.58 0 00-1.46-2h-.03a2.94 2.94 0 102.42 4.6c-.2-.38-.4-.76-.52-1.17a1.95 1.95 0 01-1.9 1.57zm0-4.1a2 2 0 011.1.34L4.05 9.42c-.24-1.18.62-2.43 1.9-2.4z" fill="#fff"/><path d="M6.02 6.12c2.94 1.45 1.04 6.45 5.7 5.8-3.5-.6-1.33-5.72-5.7-5.8z" fill="url(#bk5ypo3oj)"/><defs><linearGradient id="ak5ypo3oj" x1="3.35" y1="3.12" x2="21.9" y2="24.43" gradientUnits="userSpaceOnUse"><stop stop-color="#1A1E21"/><stop offset="1" stop-color="#06060A"/></linearGradient><linearGradient id="bk5ypo3oj" x1="8.88" y1="11.97" x2="8.88" y2="6.12" gradientUnits="userSpaceOnUse"><stop offset=".02" stop-color="#F36A10"/><stop offset=".99" stop-color="#FFB700"/></linearGradient></defs></svg>