<!-- by TradingView --><svg xmlns="http://www.w3.org/2000/svg" width="18" height="18"><path fill="url(#avvb5cmrr)" d="M0 0h18v18H0z"/><path d="M8.01 7c-1.04 0-1.8.33-2.29.97A4.27 4.27 0 005 10.58c0 .55.07 1.04.2 1.46.13.42.3.75.5 1l.1.1c.52.57 1.31.86 2.38.86.44 0 .91-.08 1.42-.24.5-.15.76-.37.76-.64 0-.13-.08-.32-.23-.56-.15-.24-.28-.36-.4-.36l-.51.19c-.33.12-.83.2-1.2.2-.86 0-1.24-.62-1.3-1.45-.03-1.07.05-2.8 1.3-2.8.9 0 1.2.9 1.27 1.68l-.55.04-1.01.07-.17.01a4.21 4.21 0 01-.08.01.3.3 0 00-.27.29.36.36 0 00.33.38l.89.07 1.95.07.62-1.05c0-.9-.24-1.34-.74-1.96C9.75 7.32 9 7 8 7z" fill="#fff"/><path opacity=".5" d="M13.6 5.44a1.94 1.94 0 01-2.65 1.26 1.53 1.53 0 102.65-1.26z" fill="#fff"/><path opacity=".5" d="M12.46 4.93c.45 0 .86.2 1.14.5A1.93 1.93 0 0011.73 3a1.93 1.93 0 00-.78 3.7 1.54 1.54 0 011.51-1.77z" fill="#fff"/><path d="M13.6 5.44a1.54 1.54 0 00-2.65 1.26 1.94 1.94 0 002.65-1.27z" fill="#fff"/><defs><linearGradient id="avvb5cmrr" x1="18" y1="9" x2="0" y2="9" gradientUnits="userSpaceOnUse"><stop stop-color="#03E603"/><stop offset=".34" stop-color="#34B2A5"/><stop offset=".64" stop-color="#4289E2"/><stop offset="1" stop-color="#1E578E"/></linearGradient></defs></svg>