<!-- by TradingView --><svg width="18" height="18" fill="none" xmlns="http://www.w3.org/2000/svg"><path fill="#F0F3FA" d="M0 0h18v18H0z"/><path fill-rule="evenodd" clip-rule="evenodd" d="M8 6.093v5.556c1.46.62 2.537.344 3.26-.218.81-.628 1.24-1.658 1.24-2.461 0-1.223-.595-2.222-1.47-2.76-.805-.497-1.885-.624-3.03-.117zm3.555-.735c1.18.726 1.945 2.053 1.945 3.612 0 1.098-.563 2.425-1.626 3.25-1.103.856-2.685 1.13-4.593.2L7 12.283V5.48l.267-.141c1.538-.81 3.101-.71 4.288.02z" fill="#155A91"/><path d="M11.799 8.561l-.586.878H5V8h1v.561h5.799z" fill="#268BDE"/><path d="M12.327 13.125a5 5 0 11.115-8.168l.506-.868a6 6 0 10.055 9.783l-.676-.747z" fill="#268BDE"/></svg>