<!-- by TradingView --><svg width="18" height="18" viewBox="0 0 18 18" xmlns="http://www.w3.org/2000/svg"><path fill="#F0F3FA" d="M0 0h18v18H0z"/><path d="M13 5H5v5.41c0 .16.02.38.03.43C5.26 12.56 7.57 13.46 9 14c1.45-.47 3.8-1.5 3.97-3.21l.02-.3c.02-.69 0-2.24 0-2.24L13 5Zm-4 8.45c-1.35-.39-3.38-1.37-3.43-2.93V5.55h6.86v4.97c-.02 1.54-2.17 2.54-3.43 2.93Z" fill="#002F70"/><path d="M8.6 9.46 8 8h.78l.34.86c.54-.73 1.24-1.68 2.01-2.56l.27-.3H6v4.61a.9.9 0 0 0 .24.71c.24-.01.48-.07.7-.17a5.6 5.6 0 0 0 1.66-1.7Z" fill="#0085DD"/><path d="M9.4 9.41 10 11h-.72l-.37-.92c-.78.98-1.51 1.46-2.31 1.56l.04.05C7.43 12.46 8.9 12.96 9 13c1.17-.4 2.97-1.31 3-2.5V6.28c-.93 1-1.8 2.04-2.6 3.13Z" fill="#002F70"/></svg>