<!-- by TradingView --><svg width="18" height="18" viewBox="0 0 18 18" xmlns="http://www.w3.org/2000/svg"><path fill="#F0F3FA" d="M0 0h18v18H0z"/><circle cx="12.5" cy="11.5" r="1.5" fill="url(#atuajbwsw)"/><path d="M10 8.32c0-2.87 2-3.4 3-3.31 0 .46 0 .87-1.16 1.7-.94.67-1.5 2.47-1.66 3.29-.06-.41-.18-1.32-.18-1.68Z" fill="url(#btuajbwsw)"/><path d="M11 13.95C9.05 13.77 4.93 12.53 4.02 9c0 1.18-.7 5.5 6.98 4.95Z" fill="url(#ctuajbwsw)"/><path d="M8.35 8.48c0 2.42 1.77 4.69 2.65 5.52-5.72-1.93-6-5.9-6-6.41 0-.52.26-.91.66-1.59 0 3.5 1.43 3.8 1.84 4C6.68 7.99 7 6.77 7 5.5 7 4.21 7.9 4 8.28 4s1.22.18 1.22.44S8.35 6.1 8.35 8.48Z" fill="url(#dtuajbwsw)"/><defs><linearGradient id="atuajbwsw" x1="11" y1="11.34" x2="14" y2="11.34" gradientUnits="userSpaceOnUse"><stop stop-color="#6AB242"/><stop offset="1" stop-color="#016934"/></linearGradient><linearGradient id="btuajbwsw" x1="10.25" y1="10" x2="13.15" y2="5.48" gradientUnits="userSpaceOnUse"><stop stop-color="#82BD45"/><stop offset=".71" stop-color="#086938"/></linearGradient><linearGradient id="ctuajbwsw" x1="3.85" y1="9.23" x2="10.85" y2="13.85" gradientUnits="userSpaceOnUse"><stop stop-color="#82BD45"/><stop offset="1" stop-color="#086938"/></linearGradient><linearGradient id="dtuajbwsw" x1="8" y1="4" x2="8" y2="14" gradientUnits="userSpaceOnUse"><stop stop-color="#82BD45"/><stop offset=".71" stop-color="#086938"/></linearGradient></defs></svg>