<!-- by TradingView --><svg xmlns="http://www.w3.org/2000/svg" width="18" height="18"><path fill="#F0F3FA" d="M0 0h18v18H0z"/><path d="M10.28 14a4.28 4.28 0 003.23-3h-1.29c-.51 1.66-2.07 2-3.2 2a3.95 3.95 0 01-3.86-2.44c-.15-.45.2-1.12.96-.85.64.22 2.12.28 2.75.29 2.4 0 3.98-1 4.64-3.43l.1-.34c.18-.68.3-1.1.39-1.34V14h-3.72zm-2.63 0H4v-3.34A4.81 4.81 0 007.65 14zM4 7.28A5.15 5.15 0 017.42 4H4v3.28zM7.31 5.3C5.54 6 5.03 8.04 5 9c.18-.32 1.15-.27 1.61-.2 1.68.35 3.18.2 3.77 0 1.67-.59 2.03-2.17 2.18-2.86.1-.5.34-.83.44-.93-.81.21-1.96.2-3.36.07-1.12-.1-2.02.1-2.33.22z" fill="#7EC044"/></svg>