<!-- by TradingView --><svg width="18" height="18" viewBox="0 0 18 18" xmlns="http://www.w3.org/2000/svg"><path fill="#F0F3FA" d="M0 0h18v18H0z"/><path d="M9.38 3.72a5.5 5.5 0 0 1 3.2 1.03 5.69 5.69 0 0 0-3.72-1.39A6 6 0 0 0 3 9.48c0 1.91.84 3.62 2.15 4.74l.49-.08a6.04 6.04 0 0 1-1.95-4.48 5.82 5.82 0 0 1 5.69-5.94Z" fill="#E6EFC2"/><path d="M4.38 8.76a5.66 5.66 0 0 1 5.18-5.75 6 6 0 0 0-6.21 6.11A6.1 6.1 0 0 0 7.55 15l1.12-.62a5.71 5.71 0 0 1-4.3-5.62Z" fill="#43B1A9"/><path d="M11 13.56c-.51.16-1.06.24-1.62.24a5.82 5.82 0 0 1-5.69-5.94c0-1.24.36-2.39.99-3.34A6.26 6.26 0 0 0 3.34 8.4a6 6 0 0 0 5.87 6.12c.46 0 .9-.05 1.33-.16l.46-.8Z" fill="#A1D5AF"/><path d="M13 11.4a5.55 5.55 0 0 1-3.97 1.68 5.82 5.82 0 0 1-5.69-5.94c0-1.24.37-2.39 1-3.34A6.26 6.26 0 0 0 3 7.68a6 6 0 0 0 5.86 6.12c1.62 0 3.08-.68 4.14-1.78v-.62Z" fill="#557A82"/><path d="M6 7.33V7h.7v2.67h.34V10H6v-.33h.35V7.33H6Z" fill="#557A82"/><path d="M11.91 7v.67h.35v-.34h1.32a5.4 5.4 0 0 0-.97 2.34h-.35V10h1.22v-.33h-.45c0-1 .62-1.84.97-2.34V7h-2.09Z" fill="#557A80"/><path fill-rule="evenodd" d="M10.8 7h.42v1.67h.35V9h-.35v.67h.35V10h-1.22v-.33h.52V9H9.83l-.18-.33L10.8 7Zm.07.5v1.17h-.77l.77-1.17ZM9.06 8.5c.25-.15.42-.4.42-.67C9.48 7.37 9 7 8.44 7c-.58 0-1.05.37-1.05.83 0 .28.17.52.42.67-.25.15-.42.4-.42.67 0 .46.47.83 1.05.83.57 0 1.04-.37 1.04-.83 0-.28-.17-.52-.42-.67Zm.07-.67c0 .23-.25.5-.7.5-.44 0-.7-.27-.7-.5 0-.22.26-.5.7-.5.45 0 .7.28.7.5Zm-.7.84c-.44 0-.7.27-.7.5 0 .22.26.5.7.5.45 0 .7-.28.7-.5 0-.23-.25-.5-.7-.5Z" fill="#557A80"/></svg>