<!-- by TradingView --><svg xmlns="http://www.w3.org/2000/svg" width="18" height="18"><path fill="url(#asi5kprjl)" d="M0 0h18v18H0z"/><path d="M9.64 8h4.23l-1.33 6h-1.41l.05-1.44C10.52 13.14 9.55 14 7.7 14c-2.44 0-4.28-1.64-3.53-4.97C4.75 6.45 6.83 4 10.23 4h.03c3.1 0 3.9 1.93 3.72 3h-2.12c.08-.37-.37-1.36-1.86-1.36-1.5 0-3.13.98-3.68 3.41-.58 2.6.77 3.27 2.21 3.27.47 0 2.18-.22 3.1-2.32H9.28l.36-2z" fill="#fff"/><defs><linearGradient id="asi5kprjl" x1="3.35" y1="3.12" x2="21.9" y2="24.43" gradientUnits="userSpaceOnUse"><stop stop-color="#1A1E21"/><stop offset="1" stop-color="#06060A"/></linearGradient></defs></svg>