<!-- by TradingView --><svg width="18" height="18" viewBox="0 0 18 18" xmlns="http://www.w3.org/2000/svg"><path fill="#F0F3FA" d="M0 0h18v18H0z"/><path d="M11.12 8.92c.3-.04.38-.13.38-.46V6.49c0-.3-.11-.39-.38-.4V6h1.27v.08c-.27.02-.39.1-.39.41v.87h1V6.5c0-.3-.11-.39-.38-.4V6h1.25v.08c-.27.02-.37.1-.37.41v2.02c0 .3.1.38.37.4V9h-1.25v-.08c.3-.03.38-.13.38-.46v-.82h-1v.87c0 .3.12.39.39.4V9h-1.27v-.08ZM9.03 6c.17 0 .34.02.5.07l.29.07c.06 0 .1-.01.13-.04a.28.28 0 0 0 .07-.1h.11v.92h-.08c-.1-.21-.18-.37-.28-.47a.9.9 0 0 0-.68-.28C8.4 6.17 8 6.81 8 7.52c0 .72.46 1.3 1.14 1.3.17 0 .44-.02.57-.15.03-.02.04-.06.04-.1V8.1c0-.31-.1-.38-.38-.4v-.07h1.13v.08c-.2.01-.25.1-.25.33v.62c0 .05-.14.12-.45.2a2.2 2.2 0 0 1-.72.13c-.8 0-1.58-.53-1.58-1.48C7.5 6.6 8.23 6 9.03 6ZM4 8.92c.33-.03.33-.1.33-.41V6.49c0-.3 0-.39-.33-.4V6h2.33v.6H6.2c-.04-.2-.09-.28-.17-.34-.1-.06-.23-.09-.53-.09h-.33c-.08 0-.13.01-.14.04-.02.02-.03.06-.03.12v1h.32c.22 0 .35-.04.42-.1.05-.05.1-.15.14-.33H6v1.03h-.12c-.04-.17-.09-.29-.15-.34-.06-.06-.2-.09-.41-.09H5v1.14c0 .09.03.14.1.16.06.01-.1.02.21.02.35 0 .6-.03.77-.1.16-.06.31-.23.44-.49h.15L6.43 9H4v-.08Z" fill="#073D95"/><path d="M2 11.97a.08.08 0 0 1 .04-.07c.2-.13.38-.23.52-.29a8.18 8.18 0 0 1 3.35-.41 303.4 303.4 0 0 1 3.58.28l1.73.15c.5.04 1.01.06 1.55.05.82 0 2.37-.17 2.56-1.23l.04-.3c.01-.07.04-.13.12-.15.16-.03.2.1.2.23.02 1.12-1.1 1.62-2.03 1.66-.9.04-1.8.02-2.72-.04-.67-.04-1.35-.1-2.06-.17-.72-.08-1.28-.13-1.69-.16a20.04 20.04 0 0 0-2.8-.09A6.56 6.56 0 0 0 2 12v-.01L2 11.97Z" fill="#4268EC"/><path d="M15.11 11.71h-.02v-.02l.23-.23c.23-.22.36-.48.42-.78.02-.1.07-.13.16-.1.22.07.02.44-.04.54a1.6 1.6 0 0 1-.75.6ZM2.62 11.43H2.6v-.01a3.18 3.18 0 0 1 2.42-.48l.01.01v.04h-.02c-.54.03-1.06.1-1.56.19-.29.05-.57.13-.84.25Z" fill="#4268EC"/></svg>