<!-- by TradingView --><svg xmlns="http://www.w3.org/2000/svg" width="18" height="18"><path fill="url(#a12ozn1pp)" d="M0 0h18v18H0z"/><path d="M12 5l-.31 1.92h-.41c.1-1.02-.54-1.32-.88-1.34H9.2c-.27-.01-.4.22-.42.35l-.46 2.56h1.39c.48-.04.78-.66.87-.96h.36l-.54 2.64h-.31c.11-.74-.2-.96-.38-.97H8.17c-.12.62-.37 1.99-.44 2.53-.06.54.32.67.52.67h1.18c.73.06 1.35-.94 1.57-1.45h.48L10.66 13H5v-.38c.63.05 1.05-.31 1.12-.7.33-1.67.98-5.15 1.07-5.76.1-.61-.48-.74-.78-.73V5H12z" fill="#fff"/><defs><linearGradient id="a12ozn1pp" x1="3.35" y1="3.12" x2="21.9" y2="24.43" gradientUnits="userSpaceOnUse"><stop stop-color="#1A1E21"/><stop offset="1" stop-color="#06060A"/></linearGradient></defs></svg>