<!-- by TradingView --><svg width="18" height="18" viewBox="0 0 18 18" xmlns="http://www.w3.org/2000/svg"><path d="M0 9a9 9 0 1 1 18 0A9 9 0 1 1 0 9Z" fill="url(#arzcrgoaj)"/><path d="M5.5 5.9c-2.07 2.06-2 4.19.2 6.4 2.2 2.2 4.34 2.27 6.41.21l2.39-2.36-1.45-1.45-2.38 2.37c-1.06 1.04-2.28 1.02-3.52-.22-1.45-1.51-1.5-2.2-.26-3.43l1.15-1.15a.8.8 0 0 1 1.14 0c.32.32.42.83.1 1.14L7.67 9l1.44 1.44 1.62-1.6a2.83 2.83 0 0 0-.1-4.01 2.86 2.86 0 0 0-4.03-.01L5.5 5.9Z" fill="#fff"/><defs><linearGradient id="arzcrgoaj" x1="3.35" y1="3.12" x2="21.9" y2="24.43" gradientUnits="userSpaceOnUse"><stop stop-color="#1A1E21"/><stop offset="1" stop-color="#06060A"/></linearGradient></defs></svg>