<!-- by TradingView --><svg width="18" height="18" xmlns="http://www.w3.org/2000/svg"><path fill="url(#paint0_linear)" d="M0 0h18v18H0z"/><path d="M9.96 4.5h4.029a.51.51 0 01.504.582 2.74 2.74 0 01-.805 1.583c-.357.345-.822.599-1.234.599H9.087v.924h2.438v1H9.087v.764h2.438c.33 0 .494-.088.565-.15a.224.224 0 00.081-.194c-.01-.142-.17-.42-.646-.42v-1c.916 0 1.587.603 1.643 1.344.029.37-.107.745-.415 1.018-.303.268-.728.402-1.228.402H9.087v.763h1.51v1h-1.51v.14l-.5.002h-.5v-.142H5.958c-.421 0-.766-.178-.996-.459a1.46 1.46 0 01-.316-.922c0-.317.096-.655.316-.923.23-.281.575-.46.996-.46h2.129v-.763H5.031c-.47 0-.863-.167-1.138-.456A1.45 1.45 0 013.5 7.723c.002-.356.13-.723.399-1.004.274-.287.666-.455 1.132-.455v1c-.216 0-.339.072-.409.146a.465.465 0 00-.122.318.45.45 0 00.117.315c.068.071.19.145.414.145h3.056v-.924H5.031v-1h3.056v-.462c0-.285.073-.545.233-.759a1.22 1.22 0 01.565-.408C9.25 4.5 9.681 4.5 9.96 4.5zm-.873 1.764h3.367c.05 0 .278-.065.538-.317.124-.12.24-.27.333-.447H9.979c-.32 0-.572.008-.746.073-.074.027-.101.054-.112.068-.008.011-.034.05-.034.16v.463zm-1 4.688H5.958c-.12 0-.181.042-.222.092a.465.465 0 00-.09.29c0 .124.04.227.09.29.04.05.102.091.222.091h2.129v-.763zm.5 1.905l.5-.001c0 .307.048.452.084.515.023.04.05.067.127.09.1.03.248.042.486.038.074 0 .172-.004.28-.008.169-.005.363-.012.533-.012.24 0 .37-.073.439-.138a.333.333 0 000-.488c-.068-.064-.2-.138-.439-.138v-1c.457 0 .848.148 1.128.414a1.333 1.333 0 010 1.937c-.28.266-.67.413-1.128.413-.173 0-.312.005-.453.01-.109.004-.218.008-.346.01-.25.004-.53-.004-.787-.08a1.175 1.175 0 01-.708-.552c-.16-.278-.216-.622-.216-1.01h.5z" fill="#fff"/><defs><linearGradient id="paint0_linear" x1="0" y1="9" x2="18" y2="9" gradientUnits="userSpaceOnUse"><stop stop-color="#632CB7"/><stop offset=".365" stop-color="#4347BA"/><stop offset="1" stop-color="#0BA6EC"/></linearGradient></defs></svg>