<!-- by TradingView --><svg width="18" height="18" viewBox="0 0 18 18" xmlns="http://www.w3.org/2000/svg"><path fill="#F0F3FA" d="M0 0h18v18H0z"/><path d="M4 4v4.53l.78.32 2.74-3.18 2.52 3.3 1.73-.92L14 11.67V4H4Z" fill="url(#a10eyj212)"/><path d="M7.46 5.33 4 8.26V14h1.17l.25-1-.47-1.98.76 1.65.82-1.5V7.63l.45 3.06.63-4.76 2.32 3.11-.61 3.52L8.15 14h1.78l.53-.89.52.14-.4-.58.28-.63 1.44 1.07-1.32-1.6.78-2.92L14 12.34V11.3l-2.24-3.56-1.66 1.12-2.64-3.53Z" fill="#949CA1"/><defs><linearGradient id="a10eyj212" x1="4.4" y1="5.48" x2="12.27" y2="5.48" gradientUnits="userSpaceOnUse"><stop stop-color="#045883"/><stop offset="1" stop-color="#045883" stop-opacity="0"/></linearGradient></defs></svg>