<!-- by TradingView --><svg width="18" height="18" viewBox="0 0 18 18" xmlns="http://www.w3.org/2000/svg"><path fill="#F0F3FA" d="M0 0h18v18H0z"/><path d="M7.4 4.37v1.81h2.47v1.2c.15.05.5.2.8.38.28.2.49.67.56.89V4.37H7.4Z" fill="#5C8CB3"/><path d="M5.7 9.26c-.13.27.02.68.12.84-.04-.22.15-.37.25-.41l1.18-.48a9.2 9.2 0 0 1 2.74.08c1.02.28 1.1.94 1.1.96l.07-.48.46.3-.04-.34c-.3-1-1.74-1.35-2.43-1.41l-.6.13-1.47.32-.53-.3a2.9 2.9 0 0 0-.85.79Z" fill="url(#a0qefgcob)"/><path d="m8.09 13.83.2.17H5V6h2V4h4.67v5.57-.01a1.44 1.44 0 0 0-.2-.42c-.11-.15-.64-.67-.89-.92.17.07.52.23.61.32.1.08.24.3.3.4v-4.8H7.17V6H10v1.36c.17.05.56.24.94.64a7.06 7.06 0 0 0-.94-.07c.1-.04.32-.11.49-.1l-1.02-.6.28.03V6.21H5.2v7.62h2.9Zm-2-4.15a3.26 3.26 0 0 1 2.25-.57l-.54.17.41.36-.59-.15c.03.08.05.3-.11.55l-.11-.3a1.6 1.6 0 0 1-.29.4l-.3.67c-.08.13-.13.47-.14.62l.44-.6c-.06.26-.17.85-.13 1.08l.02.14c.05.3.11.72.53 1.36-.4-.34-1.2-1.2-1.2-1.95s.5-1.2.74-1.33a.97.97 0 0 0 .06-.39c-.01-.1-.11-.2-.16-.23-.15.06-.53.17-.88.17Zm1.12-2.12a.95.95 0 0 0-.57.85c.08-.07.3-.25.55-.51a5.6 5.6 0 0 1 1.32-.77c-.23.05-.82.21-1.3.43Zm-.02 1c-.1.05-.14.2-.15.28a.9.9 0 0 1 .3-.1c.14-.03.4-.02.5 0 .03.05.14.16.35.14.2 0 .27-.22.28-.32l.74-.25c-.17-.02-.6-.06-.93-.03-.43.04-.95.21-1.09.28Zm.7.1.07-.08.04.04c-.01.04 0 .12.13.12.12 0 .11-.11.1-.16l.06-.02c.03 0 .09.02.07.09 0 .06-.04.17-.23.17a.24.24 0 0 1-.24-.16Zm1.7 1.74-1.32 1.42A3.32 3.32 0 0 0 9.6 10.7l.2.61.73-.61c.33-.28.42-.72.42-.9L10 10.96l-.41-.57Zm1.77-.42A85.6 85.6 0 0 0 13 11.12a2.9 2.9 0 0 0-1.64-1.14Z" fill="#0F4472"/><defs><linearGradient id="a0qefgcob" x1="7.45" y1="8.94" x2="11.86" y2="9.59" gradientUnits="userSpaceOnUse"><stop stop-color="#5C8CB3"/><stop offset="1" stop-color="#5C8CB3" stop-opacity="0"/></linearGradient></defs></svg>