<!-- by TradingView --><svg xmlns="http://www.w3.org/2000/svg" width="18" height="18" viewBox="0 0 18 18"><path fill="#00B5DF" d="M0 0h18v18H0z"/><path d="M4.88 4.17a.5.5 0 0 0-.75.66L7.37 8.6c.09.09.13.2.13.33v5.58a.5.5 0 0 0 1 0V8.92c0-.37-.13-.72-.38-1L4.88 4.17zm7.3.3a1 1 0 0 1 1.82.56v2.19c0 .35-.12.68-.34.95l-1.73 2.1a.5.5 0 0 1-.77-.63l1.73-2.1a.5.5 0 0 0 .11-.32v-2.2L10.59 8.6a.5.5 0 0 0-.09.28v5.63a.5.5 0 0 1-1 0V8.87c0-.3.09-.6.26-.85l2.41-3.55zm-8 2.73a.5.5 0 0 1 .7.05l2 2.32a.5.5 0 0 1-.75.66l-2-2.33a.5.5 0 0 1 .04-.7zm.7 2.98a.5.5 0 0 0-.76.66l2 2.32a.5.5 0 0 0 .77-.65l-2.01-2.33z" fill="#fff"/></svg>