<!-- by TradingView --><svg xmlns="http://www.w3.org/2000/svg" width="18" height="18" viewBox="0 0 18 18"><path fill="url(#aralmqclz)" d="M0 0h18v18H0z"/><path fill-rule="evenodd" d="M12.6 11.9c-.35.45-1.49 1.4-3.2 1.4-2.14 0-3.61-1.86-3.61-4.3h7.71c-.05-1.6-.97-5-4.3-5-4.14 0-4.7 3.87-4.7 4.81 0 .94.33 5.19 4.9 5.19a5.95 5.95 0 0 0 3.68-1.62l-.48-.47zM5.8 8h6.42c-.02-1.15-.68-3.34-3.06-3.34-2.39 0-3.27 2.19-3.36 3.34z" fill="#fff"/><defs><linearGradient id="aralmqclz" x1="3.35" y1="3.12" x2="21.9" y2="24.43" gradientUnits="userSpaceOnUse"><stop stop-color="#1A1E21"/><stop offset="1" stop-color="#06060A"/></linearGradient></defs></svg>