<!-- by TradingView --><svg width="18" height="18" viewBox="0 0 18 18" xmlns="http://www.w3.org/2000/svg"><path fill="#F0F3FA" d="M0 0h18v18H0z"/><path d="M14.86 7.13A543.53 543.53 0 0 1 12.6 5.1a.76.76 0 0 0-.37-.1H9a.24.24 0 0 0-.19.08.29.29 0 0 0 .05.38l1.65 1.57c.28.27.27.44.27.45 0 .05 0 .1-.03.15a.95.95 0 0 1-.22.3l-.16.16-.07.07-1.13 1.18-.19.18a.29.29 0 0 0-.03.4c.05.05.1.07.17.07h3.12c.12 0 .25-.03.36-.1a.53.53 0 0 0 .08-.06l2.1-1.9A.57.57 0 0 0 15 7.5a.56.56 0 0 0-.15-.37" fill="#E3000B"/><path d="M8.22 11h-.14a.73.73 0 0 1-.58-.36c-.22-.36.03-.72.29-.99l1.18-1.24.05-.04v-.01l-.21-.2a.52.52 0 0 0-.08-.06.8.8 0 0 0-.38-.1H4.25a.25.25 0 0 0-.2.08v.01a.28.28 0 0 0 .05.38l1.8 1.57c.28.27.27.44.27.45 0 .05 0 .1-.03.15a.95.95 0 0 1-.23.3l-.24.23-1.38 1.18-.18.18a.28.28 0 0 0-.03.4c.04.04.1.07.17.07h4.1c.13 0 .26-.04.38-.1a.53.53 0 0 0 .08-.06c.15-.14 2.08-1.73 2.1-1.75L11 11H8.22Z" fill="#00A5AA"/></svg>