<!-- by TradingView --><svg width="18" height="18" viewBox="0 0 18 18" xmlns="http://www.w3.org/2000/svg"><path fill="#F0F3FA" d="M0 0h18v18H0z"/><path fill-rule="evenodd" d="M6.76 7.5h6.12A3.53 3.53 0 0 0 9.16 4C5.48 4 5 7.04 5 8.3 5 9.55 6.34 12 9.43 12c2.13 0 3.27-1.08 3.57-1.62v-.62a3.96 3.96 0 0 1-3.03 1.58c-1.92 0-3.2-1.25-3.2-3.84ZM6.75 7h4.43c.02-.83-.4-2.5-2.19-2.5-1.8 0-2.24 1.67-2.24 2.5Z" fill="#00703C"/><path d="M9.21 13c-1.42 0-4.07.35-5.21.52 1.2.16 3.92.48 5.21.48 1.3 0 3.73-.32 4.79-.48-1-.17-3.36-.52-4.79-.52Z" fill="#838385"/></svg>