<!-- by TradingView --><svg width="18" height="18" viewBox="0 0 18 18" xmlns="http://www.w3.org/2000/svg"><path fill="#F0F3FA" d="M0 0h18v18H0z"/><path d="M9.5 9a.5.5 0 1 1-1 0 .5.5 0 0 1 1 0Z" fill="#E12F29"/><path d="M7.25 10.06c.27.31 1.4.6 2.5-.06H14a5.14 5.14 0 0 1-6.39 3.8 5.07 5.07 0 0 1-.43-3.74h.07Z" fill="url(#az15qai5z)"/><path d="M10.5 8c-.17-.33-1.35-.8-2.5 0H4a4.9 4.9 0 0 1 6.1-3.8c.5 1.05.84 2.43.4 3.8Zm-2.93 2H4a4.9 4.9 0 0 0 4.48 4l-.1-.36c-.31-1.14-.68-2.52-.8-3.64Z" fill="url(#bz15qai5z)"/><path d="M10.23 8h3.74A4.93 4.93 0 0 0 9.3 4l.1.35c.33 1.18.7 2.51.82 3.65Z" fill="#E12F29"/><defs><linearGradient id="az15qai5z" x1="12.5" y1="12.5" x2="7.99" y2="11" gradientUnits="userSpaceOnUse"><stop stop-color="#E12F29"/><stop offset="1" stop-color="#E12F29" stop-opacity="0"/></linearGradient><linearGradient id="bz15qai5z" x1="10.7" y1="6.03" x2="5.73" y2="12.59" gradientUnits="userSpaceOnUse"><stop stop-opacity=".24"/><stop offset="1"/></linearGradient></defs></svg>