<!-- by TradingView --><svg width="18" height="18" viewBox="0 0 18 18" xmlns="http://www.w3.org/2000/svg"><path fill="#F0F3FA" d="M0 0h18v18H0z"/><path d="M9.55 14a10.88 10.88 0 0 1-3.36-1.36c-.5-.29-.96-.64-1.38-1.03a5.78 5.78 0 0 1-1.4-2 4.81 4.81 0 0 1-.31-1.2c.12.22.24.45.38.67a7.3 7.3 0 0 0 .98 1.13c.39.34.82.63 1.3.84.36.17.75.3 1.14.4L9.55 14Z" fill="#243E89"/><path d="M13.9 11.18c-.2.06-.4.12-.61.16l-.52.09c-.67.11-1.34.19-2.02.22a10.5 10.5 0 0 1-3.34-.38 7.03 7.03 0 0 1-2.74-1.52A6.13 6.13 0 0 1 3.3 7.86v-.02a3.96 3.96 0 0 0 .96.83 5.87 5.87 0 0 0 3.25 1.07c.38 0 .76 0 1.14-.04.27-.03.54-.09.81-.13l4.44 1.61Z" fill="#80B79E"/><path d="M16 5.99c-.62.57-1.29 1.08-1.99 1.54-.67.44-1.37.81-2.1 1.12-.73.3-1.48.52-2.26.64a7.4 7.4 0 0 1-5.5-1.33c-.46-.34-.8-.81-1.01-1.36A2.25 2.25 0 0 1 3 5.8l.15.43c.17.4.43.75.77 1.01.52.41 1.14.68 1.79.76a6.66 6.66 0 0 0 3.5-.32c.39-.15.76-.33 1.12-.54.22-.12.41-.27.62-.4C11.7 6.13 12.56 5 12.6 5l3.4.99Z" fill="#F2E400"/></svg>