<!-- by TradingView --><svg width="18" height="18" viewBox="0 0 18 18" xmlns="http://www.w3.org/2000/svg"><path fill="#F0F3FA" d="M0 0h18v18H0z"/><path d="M6.6 9.91 4.01 8.4l1.75-1.36 2.41 1.51L6.6 9.91Z" fill="url(#aavc0f1jp)"/><path d="M4 6.1v2.3l6.9-4.26L9 3 4 6.1Z" fill="url(#bavc0f1jp)"/><path d="m8.96 15-4.01-2.37 3.16-2.45c.03-.04 3.95-2.78 5.89-4.14v1.14l-7.14 4.26 2.1 1.38L14 9.75v2.31L8.96 15Z" fill="url(#cavc0f1jp)"/><path d="M4 12v-1.08l9.03-5.57.97.66L9.76 9.7l-4.79 2.92L4 12Z" fill="url(#davc0f1jp)"/><defs><linearGradient id="aavc0f1jp" x1="4.21" y1="8.55" x2="7.9" y2="8.19" gradientUnits="userSpaceOnUse"><stop stop-color="#19DAE1"/><stop offset="1" stop-color="#1590FF"/></linearGradient><linearGradient id="bavc0f1jp" x1="4.2" y1="7.65" x2="8.85" y2="3.85" gradientUnits="userSpaceOnUse"><stop stop-color="#014CFF"/><stop offset="1" stop-color="#0085FF"/></linearGradient><linearGradient id="cavc0f1jp" x1="13.8" y1="11.8" x2="5.16" y2="11.48" gradientUnits="userSpaceOnUse"><stop stop-color="#FD020B"/><stop offset=".57" stop-color="#FFB906"/><stop offset="1" stop-color="#F03C00"/></linearGradient><linearGradient id="davc0f1jp" x1="4.15" y1="12.04" x2="13.03" y2="5.69" gradientUnits="userSpaceOnUse"><stop stop-color="#0087F7"/><stop offset="1" stop-color="#00E7FF"/></linearGradient></defs></svg>