<!-- by TradingView --><svg xmlns="http://www.w3.org/2000/svg" width="18" height="18" viewBox="0 0 18 18"><path fill="#F0F3FA" d="M0 0h18v18H0z"/><ellipse cx="9.29" cy="3.65" rx=".68" ry=".65" fill="#009395"/><path d="M12.59 5.18c.26.48.34 1.34.34 1.34-.3.19-.65.3-1.03.3a1.8 1.8 0 0 1-1.83-1.76c0-.64.36-1.2.88-1.5.4.15 1.03.53 1.64 1.62Z" fill="#33A9AB"/><ellipse cx="7.73" cy="5.06" rx="1.08" ry="1.04" fill="#66BEC0"/><ellipse cx="6.82" cy="7.48" rx=".85" ry=".82" fill="#009395"/><ellipse cx="8.1" cy="6.24" rx="1.24" ry="1.19" fill="#7FC9CA"/><path d="M6.95 5.79a1.27 1.27 0 0 1 1.84-.53c-.1.48-.53.84-1.06.84-.3 0-.58-.12-.78-.31Z" fill="#339799"/><ellipse cx="5.93" cy="4.02" rx=".68" ry=".65" fill="#7FC9CA"/><ellipse cx="4.62" cy="5.02" rx=".6" ry=".57" fill="#7FC9CA"/><ellipse cx="5.05" cy="6.5" rx=".59" ry=".57" fill="#33A9AB"/><ellipse cx="5.23" cy="8.48" rx=".67" ry=".64" fill="#7FC9CA"/><ellipse cx="6.66" cy="8.83" rx="1.12" ry="1.08" fill="#66BEC0"/><ellipse cx="8.69" cy="9.18" rx="1.44" ry="1.39" fill="#7FC9CA"/><path d="M12.86 8.3c0 1.25.04 1.98-1.26 1.98a2.3 2.3 0 0 1-2.35-2.26 2.3 2.3 0 0 1 2.35-2.26c.46 0 .9.13 1.26.35.16.5.1 1.57 0 2.2Z" fill="#7FC9CA"/><path d="M10.4 6.07a2.42 2.42 0 0 1 2.46.04c.03.11.06.25.07.4a1.87 1.87 0 0 1-2.52-.44Z" fill="#198588"/><ellipse cx="3.63" cy="7.37" rx=".63" ry=".6" fill="#7FC9CA"/><ellipse cx="7.13" cy="11.1" rx=".51" ry=".49" fill="#7FC9CA"/><ellipse cx="7.44" cy="13" rx=".65" ry=".63" fill="#7FC9CA"/><path d="M10.84 13.34v.11c-.65.23-1.1.79-1.47 1.53a1.7 1.7 0 0 1-1.99-1.64c0-.91.78-1.65 1.73-1.65s1.73.74 1.73 1.65Z" fill="#33A9AB"/><path d="M7.68 12.41c.25.1.42.32.42.59a.64.64 0 0 1-.69.63 1.6 1.6 0 0 1 .27-1.22Z" fill="#188487"/><path d="M13.08 10.57c0 .22.22.3.25.52 0 .13-.14.19-.25.21.09.11.1.14.1.3 0 .15-.1.27-.28.36.07.15.16.6.06.87-.18.5-.53.6-1.3.6-.4 0-.62 0-1 .07A2.91 2.91 0 0 1 8.8 10.8c0-1.6 1.36-2.9 3.03-2.9.37 0 .73.06 1.06.18.31.55 1.12.96 1.12 1.4 0 .43-.33.57-.56.63-.26.1-.36.2-.36.45Z" fill="#009395"/></svg>