<!-- by TradingView --><svg width="18" height="18" viewBox="0 0 18 18" xmlns="http://www.w3.org/2000/svg"><path fill="url(#apv3pkfb3)" d="M0 0h18v18H0z"/><path d="M8 4h2v1h1.3c.39 0 .7.3.7.67v6.66c0 .37-.31.67-.7.67H6.7c-.39 0-.7-.3-.7-.67V5.67c0-.37.31-.67.7-.67H8V4Zm-.36 3.25c.2 0 .38-.17.38-.38 0-.2-.17-.37-.38-.37-.2 0-.38.17-.38.38 0 .2.17.37.38.37Zm2.78 0c.2 0 .37-.17.37-.38 0-.2-.16-.37-.37-.37s-.38.17-.38.38c0 .2.17.37.38.37ZM9.85 8.5H8.2l-.26.51-.26-.51h-.17c-.28 0-.51.2-.51.44v2.12c0 .24.23.44.51.44h2.98c.28 0 .51-.2.51-.44V8.94c0-.24-.23-.44-.51-.44h-.12l-.25.51-.27-.51Zm-.7.5-.63 1h.38v1l.63-1h-.38V9Z" fill="#2BB7B7"/><defs><linearGradient id="apv3pkfb3" x1="3.35" y1="3.12" x2="21.9" y2="24.43" gradientUnits="userSpaceOnUse"><stop stop-color="#1A1E21"/><stop offset="1" stop-color="#06060A"/></linearGradient></defs></svg>