<!-- by TradingView --><svg xmlns="http://www.w3.org/2000/svg" width="18" height="18" viewBox="0 0 18 18"><path fill="#F0F3FA" d="M0 0h18v18H0z"/><path d="m7.22 12.15 1.27-5.36s1.18.5 1.44 1.15c.16.41 0 1.1 0 1.1L8.49 15c-.69-.42-1.5-1.04-1.49-1.71 0-.47.22-1.14.22-1.14Z" fill="#015FBF"/><path d="M4.72 9.24 5.99 4s1.18.54 1.44 1.17c.16.4 0 1.06 0 1.06L5.99 12c-.69-.4-1.5-1-1.49-1.66 0-.45.22-1.1.22-1.1ZM12.11 5l-2.02 8s.81-.04 1.51-.42c.5-.27.68-.75.68-.75l1.11-4.51s.11-.2.11-.62-.1-.75-.31-1.03A2.17 2.17 0 0 0 12.1 5Z" fill="#379DFF"/></svg>