<!-- by TradingView --><svg width="18" height="18" viewBox="0 0 18 18" xmlns="http://www.w3.org/2000/svg"><path fill="#F0F3FA" d="M0 0h18v18H0z"/><path d="M15.88 8.2c.16 0 .16-.01 0-.03-4.44-.6-8.65.4-12.63 2.98a43.86 43.86 0 0 0-1.23.85 24.17 24.17 0 0 1 13.86-3.8Zm-3.94.88a9.3 9.3 0 0 0-6.24 1.75 12.16 12.16 0 0 1 6.25-1.73v-.02Z" fill="#B69033"/><path d="M10.3 6.12a2.5 2.5 0 0 1-.89.24c-.02 0-.04-.02-.04-.05 0-.16.05-.31.13-.45a.13.13 0 0 1 .06-.06c.3-.12.6-.18.9-.18.04 0 .06-.02.07-.05l.24-.53V5h-.03a5.4 5.4 0 0 1-1.66.27c-.03 0-.05.02-.06.05l-.96 3.06c-.02.04 0 .06.03.04.6-.21 1.2-.38 1.8-.49.03 0 .05-.02.06-.05l.24-.55c.02-.04 0-.06-.03-.04A2.46 2.46 0 0 1 9 7.53l-.01-.01v-.03c.02-.16.11-.6.25-.64.27-.08.54-.13.81-.13.03 0 .05-.02.07-.04l.23-.51a.04.04 0 0 0 0-.04l-.02-.01h-.02Zm-2 6.6h-.15c-.09 0-.12-.04-.09-.14l.75-2.4c0-.04 0-.05-.04-.05l-.9.14s-.02 0-.02.02l-.02.03.01.04.03.02.13.05.04.04v.06l-.77 2.43c0 .03 0 .04.03.04.2-.01 1-.05 1.05-.21 0-.04 0-.06-.04-.06Z" fill="#B1141E"/></svg>