<!-- by TradingView --><svg width="18" height="18" viewBox="0 0 18 18" xmlns="http://www.w3.org/2000/svg"><path fill="#F0F3FA" d="M0 0h18v18H0z"/><path d="M9.63 11h-1.3l.36-2H6.87l-.35 2h-1.3l.88-5h1.3l-.32 2H8.9l.31-2h1.3l-.88 5Zm3.59-1.5.88 1.5h-1.16l-.44-.79c-.42.55-.92 1.08-1.5 1.57-2.64 2.24-5.93 2.9-7.35 1.47-.96-.97-.83-3.25.2-4.66-.49 1.42-.35 3.02.46 3.77 1.52 1.4 4.92.44 7.6-2.15l.35-.36-.29-.43L11.15 8h1.17l.37.71.25.37c.27-.35.51-.7.73-1.04-.13.42-.32.85-.57 1.28l.12.18Z" fill="#522D54"/><path opacity=".8" d="M3 8.63c.4-1.01 1.56-2.03 3.19-3 3.15-1.9 6.82-2.18 8.2-.64.93 1.05.91 2.85-.86 4.4.76-1.36.83-2.79.03-3.6C12.07 4.25 8.24 4.81 5 7.04c-.86.6-1.1.68-2 1.58Z" fill="#018C90"/></svg>