<!-- by TradingView --><svg width="18" height="18" xmlns="http://www.w3.org/2000/svg"><path fill="#A0ACBC" d="M0 0h18v18H0z"/><path d="M8.816 3c-.024.098.198.344.198.344l3.853 4.531s.148.172.124.221l-.498.892-.182.087-4.026-4.783s-.12-.123-.072-.196C8.22 4.086 8.816 3 8.816 3zM8.033 4.518c-.023.098.199.344.199.344l3.853 4.531s.148.173.124.222l-.485.871-.188.116L7.502 5.81s-.12-.123-.071-.196l.602-1.096zM7.304 6.064l4.015 4.719s.149.172.125.22l-.51.918-.156.08-4.041-4.802s-.129-.135-.08-.208l.466-.84c.06-.108.18-.087.18-.087zM6.402 7.48c-.024.097.273.198.273.198l3.853 4.531s.149.172.124.221l-.627 1.162c-.008-.122-.243-.408-.243-.408L5.946 8.626s-.12-.124-.072-.196c.007-.01.528-.95.528-.95zM5.55 8.88c-.023.098.262.192.262.192l3.854 4.531s.148.172.124.221c0 0-.643 1.188-.642 1.176.013-.157-.18-.364-.18-.364L5.084 10.02s-.12-.124-.072-.197c.007-.01.54-.943.54-.943z" fill="#fff"/><path d="M7.502 5.961L12.5 7.97s.467.2.5.115l-.508.903c-.102.181-.322.108-.322.108L6.967 7.02s-.273-.119-.329-.014c0 0 .314-.599.528-.955.105-.176.337-.09.337-.09zM6.726 7.414L11.72 9.49s.467.2.5.115l-.508.903c-.101.181-.322.108-.322.108L6.191 8.473s-.274-.12-.33-.014c0 0 .315-.6.528-.956.106-.176.337-.09.337-.09zM5.873 8.785l5.078 2.103s.466.2.499.114l-.508.904c-.1.18-.321.108-.321.108l-5.284-2.17s-.273-.12-.329-.014c0 0 .314-.6.528-.956.105-.176.337-.09.337-.09z" fill="#184680"/></svg>