<!-- by TradingView --><svg width="18" height="18" viewBox="0 0 18 18" xmlns="http://www.w3.org/2000/svg"><path fill="#F0F3FA" d="M0 0h18v18H0z"/><path d="M9 14A5 5 0 1 0 9 4a5 5 0 0 0 0 10Z" fill="url(#ailxhaupd)"/><path d="M7.57 6.1c-.06-.37-1-.36-1.32-.02-.48.2-.3.3-.36.66l.03.2c-.96.12-.99 1.14-1 1.17-.05.06-.16.11-.22.15-.02.1 0 .08.01.15-.09.05-.2.09-.27.16-.25.4-.27.74-.01 1.08.06.07.06.13.11.19.2.2.24.2.35.17 1.54-.27.83 1.77 1.75 2.2-.02.19 0 .2.12.28.08-.03.03 0 .08-.04.08-.01.14 0 .2.03.07-.22.22-.07.2-.46 0-.14-.05-.04.08-.11-.05-.26.04-1.15.26-1.41.17-.2.08.06.26-.38.9-.42 1.1.38 1.53-.5.8-.48.57-.35 1.15.37.04-.05.24-.19.19-.4-.1-.42.23-.36.45-.59 1.28-1.36.79-3.23 1.5-2.02.23-.49.09-.45.14-.68.33-.13.35-.05.05-.43-.1-.13-.16-.19-.27-.3h-.1c-.17-.17-.2 0-.38-.07-.22-.1.05-.08-.46-.07-.06.12-.02.04-.03.12-.57-.04-1.24-.32-1.36-.31-.06 0-.15-.04-.26-.05a.1.1 0 0 0-.02.06c-.08.13-3.35 1.44-2.4.84Z" fill="#D4E7D1"/><path d="m11.5 11.04-.11.03c.04.09-.32.36-.45.49-.1.1-.47 0-.36.5 0 .07.02.1 0 .16-.02.14-.03.02-.02.14.17.04.05.01.16-.03.1-.04.08 0 .17-.05.46-.27.42.08.56.2.22.07.33-.04.42-.19a.55.55 0 0 1 .06-.09c.26-.3.1-.87 0-1.2-.45.48-.07.44-.42.04Z" fill="#CAE3E9"/><defs><linearGradient id="ailxhaupd" x1="5.43" y1="4.71" x2="14" y2="14" gradientUnits="userSpaceOnUse"><stop stop-color="#9BCA43"/><stop offset=".74" stop-color="#6AADC4"/></linearGradient></defs></svg>