<!-- by TradingView --><svg xmlns="http://www.w3.org/2000/svg" width="18" height="18" viewBox="0 0 18 18"><path fill="#F0F3FA" d="M0 0h18v18H0z"/><path d="M8.54 14.54a.46.46 0 1 0 .92 0 .46.46 0 0 0-.92 0zM8.3 12a.7.7 0 1 0 1.38 0 .7.7 0 0 0-1.38 0zM3.92 9A.46.46 0 1 0 3 9a.46.46 0 0 0 .92 0zM6.7 6a.7.7 0 1 0-1.38 0 .7.7 0 0 0 1.38 0zm0 3a.7.7 0 1 0-1.38 0 .7.7 0 0 0 1.38 0zm0 3a.7.7 0 1 0-1.38 0 .7.7 0 0 0 1.38 0zm2.77-8.54a.46.46 0 1 0-.92 0 .46.46 0 0 0 .92 0zM9.7 6a.7.7 0 1 0-1.38 0 .7.7 0 0 0 1.38 0zM10 9a1 1 0 1 0-2 0 1 1 0 0 0 2 0zm2.7-3a.7.7 0 1 0-1.4 0 .7.7 0 0 0 1.4 0zm0 3a.7.7 0 1 0-1.4 0 .7.7 0 0 0 1.4 0zM15 9a.46.46 0 1 0-.92 0A.46.46 0 0 0 15 9z" fill="#7D5FFB"/></svg>