<!-- by TradingView --><svg width="18" height="18" viewBox="0 0 18 18" xmlns="http://www.w3.org/2000/svg"><path fill="#F0F3FA" d="M0 0h18v18H0z"/><path d="M6 4.74a5.33 5.33 0 0 1 8 4.61c0 2-1.08 3.73-2.7 4.65l-1.08-1.45c.63-.36 1.13-.9 1.44-1.55H10.4a2.42 2.42 0 0 1-4.27-1h5.84a3.5 3.5 0 0 0-5-3.65L6 4.74ZM10.87 9H6.13a2.42 2.42 0 0 1 4.74 0Z" fill="url(#aphk23duv)"/><defs><linearGradient id="aphk23duv" x1="7.07" y1="4.45" x2="11.69" y2="13.63" gradientUnits="userSpaceOnUse"><stop offset=".4" stop-color="#FF1A58"/><stop offset=".52" stop-color="#A822CA"/><stop offset="1" stop-color="#8026FF"/></linearGradient></defs></svg>