<!-- by TradingView --><svg width="18" height="18" viewBox="0 0 18 18" xmlns="http://www.w3.org/2000/svg"><path fill="#F0F3FA" d="M0 0h18v18H0z"/><path d="M14 8.95A4.84 4.84 0 0 0 9.28 4c-1.24 0-2.4.57-3.27 1.45-.02.02 0 .06.02.04.6-.37 1.29-.54 2-.54a4 4 0 0 1 3.97 4c0 1.53-1.4 2.63-2.87 2.63-.39 0-.76-.09-1.1-.25-.03-.01 0 0-.03.04a3.9 3.9 0 0 0 2.54 1.16c1.88 0 3.44-1.6 3.46-3.59" fill="#231F20"/><path d="M4 9.04A4.85 4.85 0 0 0 8.72 14c1.24 0 2.4-.51 3.27-1.4.02-.01 0-.04-.02-.03-.6.37-1.3.55-2 .55A4 4 0 0 1 6 9.18V9.1C5.97 7.5 7.46 6.38 8.9 6.4c.38 0 .74.1 1.07.25.03.01 0 0 .03-.04a3.9 3.9 0 0 0-2.54-1.16A3.57 3.57 0 0 0 4 9.05" fill="#C8202F"/></svg>