<!-- by TradingView --><svg width="18" height="18" viewBox="0 0 18 18" xmlns="http://www.w3.org/2000/svg"><path fill="#F0F3FA" d="M0 0h18v18H0z"/><path d="M15 12h-1.57l-.52-.52a2.93 2.93 0 0 1-2.85.28 3.18 3.18 0 0 1-.96-.64 3.95 3.95 0 0 1-1.07-2c-.1-.41-.25-.79-.48-1.1a1.9 1.9 0 0 0-1.57-.83c-.8 0-1.47.54-1.7 1.26h3.25c.12.23.2.46.26.72.02.12.05.25.1.38h-3.6a1.78 1.78 0 0 0 2.95.72l.84.85A2.99 2.99 0 0 1 3 9a2.98 2.98 0 0 1 4.17-2.76c.36.16.68.38.95.64.56.53.92 1.24 1.08 2 .09.41.25.79.48 1.1a1.9 1.9 0 0 0 1.57.83c.29 0 .56-.07.8-.2L10.7 9.24l.79-.79 1.36 1.37c.11-.24.25-.52.25-.81 0-1-.86-1.8-1.84-1.8a1.8 1.8 0 0 0-1.79 1.7c0-.03 0-.05-.02-.08a4.37 4.37 0 0 0-.64-1.54A2.95 2.95 0 0 1 14.18 9c0 .63-.15 1.2-.47 1.7L15 12Z" fill="url(#a0qg23wnz)"/><defs><linearGradient id="a0qg23wnz" x1="3" y1="9" x2="10.28" y2="7.96" gradientUnits="userSpaceOnUse"><stop stop-color="#0094DA"/><stop offset=".74" stop-color="#015894"/><stop offset="1" stop-color="#0E024C"/></linearGradient></defs></svg>