<!-- by TradingView --><svg width="18" height="18" xmlns="http://www.w3.org/2000/svg"><path fill="url(#paint0_linear)" d="M0 0h18v18H0z"/><path d="M7.376 3L6 13h4.386l.348-2H8.193l.376-2h2.294l.348-2H8.778l.36-2h2.513L12 3H7.376z" fill="#fff"/><path d="M14.98 10.006c.01 0 .02-.005.02.008-2.602 1.239-4.992 3.412-7.364 4.986.045 0-.03.013 0 0-1.018-.189-2.49-.267-3.594 0v-.008h.013l.24-.115c.198-.091.395-.183.591-.275l1.857-.852 1.956-.894 3.456-1.568 2.826-1.282z" fill="#EE2E2F"/><defs><linearGradient id="paint0_linear" x1="3.349" y1="3.122" x2="21.904" y2="24.434" gradientUnits="userSpaceOnUse"><stop stop-color="#1A1E21"/><stop offset="1" stop-color="#06060A"/></linearGradient></defs></svg>