<!-- by TradingView --><svg xmlns="http://www.w3.org/2000/svg" width="18" height="18"><path fill="#F0F3FA" d="M0 0h18v18H0z"/><path d="M10.25 5.9C9.08 4.8 9.42 3.6 9.6 3c-2.24 2.49-.32 4.14.66 4.7.98.57 2.24 1.67 2.2 2.87a3.22 3.22 0 01-.82 2c-1.38-1.43-2.04-.98-4.24-1.55-1.75-.45-1.35-2.8-.9-3.81-.89.94-1.5 1.53-1.5 3.17C5 11.82 6.45 14 9 14s4-1.66 4-3.62C13 8.23 11.43 7 10.25 5.9z" fill="#F5992E"/><path d="M9.44 7.84a2 2 0 01-1.37-2.16c-.62 1.85 0 2.82 1.59 3.62 1.27.64 1.3 1.17 1.16 1.35a7.14 7.14 0 00-2.5-1.35c-.98-.37-1.13-1.87-.98-2.57-.2.37-.72 1.26-.72 2.26 0 1.15 1.45 1.96 2.82 2.12 1.27.15 2.05.55 2.28.8 1.12-2.02-.69-3.55-2.28-4.07z" fill="url(#acfch3adt)"/><defs><linearGradient id="acfch3adt" x1="9.34" y1="5.68" x2="9.34" y2="11.91" gradientUnits="userSpaceOnUse"><stop stop-color="#2B4799"/><stop offset="1" stop-color="#3D99CA"/></linearGradient></defs></svg>