<!-- by TradingView --><svg width="18" height="18" viewBox="0 0 18 18" xmlns="http://www.w3.org/2000/svg"><path fill="#F0F3FA" d="M0 0h18v18H0z"/><path d="M10.5 10.5h-1V12H9v-1.5H6V10l3-4h.5v4h1v.5ZM9 10V6.7L6.61 10H9ZM10.51 11.5c0-.33.18-.5.5-.5.31 0 .5.17.5.5 0 .32-.2.5-.5.5s-.5-.14-.5-.5ZM16 9c0 2.01-.65 3-2 3-1.3 0-2-1.04-2-3 0-2.03.65-3 2-3 1.3 0 2 1.05 2 3Zm-3.5 0c0 .9.27 2.5 1.5 2.5.91 0 1.5-.83 1.5-2.5 0-1.68-.6-2.5-1.5-2.5-1.24 0-1.5 1.6-1.5 2.5ZM5 12H2V6h3v.5H2.5v2H5V9H2.5v2.5H5v.5Z" fill="#0A2EEA"/></svg>