<!-- by TradingView --><svg width="18" height="18" xmlns="http://www.w3.org/2000/svg"><path fill="#AB0E1C" d="M0 0h18v18H0z"/><path d="M9.913 6.961c-.02-.593-.185-1.097-.521-1.454-.33-.348-.792-.526-1.34-.504-1.08.037-2.393.823-3.428 2.055C3.594 8.29 2.968 9.81 3 11.028c.02.615.198 1.12.528 1.468.897.957 2.69.505 4.214-.964a2.354 2.354 0 01-.284-.245c-.692.63-1.444 1.009-2.064 1.03-.35.008-.646-.096-.85-.318-.205-.215-.324-.542-.33-.935-.027-.92.48-2.107 1.325-3.108.838-1.01 1.866-1.647 2.677-1.67.35-.014.647.097.851.312.11.115.193.257.244.416a1.732 1.732 0 01.086.527c.026.838-.402 1.913-1.128 2.863.092.074.185.141.284.208.817-1.09 1.286-2.3 1.352-3.324.007-.111.007-.223.007-.327z" fill="#fff"/><path d="M14.582 9.002c-.647-.972-1.979-1.729-3.47-1.966a6.074 6.074 0 00-1.2-.075c0 .104 0 .216-.006.327.356-.015.739 0 1.121.067 1.827.289 3.199 1.424 3.06 2.522-.138 1.105-1.741 1.766-3.568 1.469-.745-.119-1.431-.378-1.965-.734a4.21 4.21 0 01-.284-.208 2.69 2.69 0 01-.54-.579c-.218-.326-.31-.675-.27-1.009.039-.326.217-.63.507-.875.356-.297.85-.497 1.418-.593a1.744 1.744 0 00-.073-.334c-1.51.215-2.638 1.023-2.783 2.15-.092.75.264 1.507.93 2.123.086.089.185.17.284.245.686.541 1.615.95 2.657 1.112 2.335.379 4.393-.578 4.584-2.129.066-.497-.073-1.024-.402-1.513z" fill="#fff"/></svg>