<!-- by TradingView --><svg xmlns="http://www.w3.org/2000/svg" width="18" height="18" viewBox="0 0 18 18"><path fill="#F0F3FA" d="M0 0h18v18H0z"/><path d="M13 10.04c-.53.28-1.15.42-1.77.62-3.13.95-5.89.33-6.37-1.45-.38-1.43.78-3.1 2.92-4.21C5.07 6.06 3.3 8.1 3.75 9.77c.5 1.82 3.42 2.52 6.55 1.57a9.56 9.56 0 0 0 2.7-1.3z" fill="#014C8D"/><path d="M11.56 13.5c2.7-1.96 4.07-4.16 3.16-5.39-1.13-1.5-5.31-.95-9.34 1.24A17.45 17.45 0 0 0 2 11.71c.66-.5 1.39-.82 2.2-1.26 4.03-2.2 8.11-2.78 9.24-1.28.77 1.03.03 2.64-1.88 4.33z" fill="#7AC043"/></svg>