<!-- by TradingView --><svg xmlns="http://www.w3.org/2000/svg" width="18" height="18" viewBox="0 0 18 18"><path fill="#00A4E3" d="M0 0h18v18H0z"/><path d="M5.54 13.45c5.47 1.94 8.21-1.87 8.21-1.87L14 9.66c-2.45 5.1-8.46 3.8-8.46 3.8zM13.35 4.87s.72 1.9-4.55 4.1l-1.53.56 1.08 1.2 1.52-.57c.42-.16 2.84-1.14 3.5-2.28.34-.6.55-1.85-.02-3.01z" fill="#fff"/><path d="M6.91 6.81a5.12 5.12 0 0 1 3.22-.8s1.14-1.07-.1-1.85c0 0-1.9-.78-4.29 1.08-2.1 1.61-1.8 3.7-1.6 4.23.33.92.84 1.57 2.27 2.11 0 0-3.08-2.67.5-4.77z" fill="#fff"/></svg>