<!-- by TradingView --><svg width="18" height="18" viewBox="0 0 18 18" xmlns="http://www.w3.org/2000/svg"><path fill="#F0F3FA" d="M0 0h18v18H0z"/><path d="M10.34 5.92C9.18 4.8 9.29 3.5 9.48 3c-.85 1.68.36 3.4 1.4 4.27.82.7.5 1.13.25 1.26.44 1.94-1.29 2.4-2.1 2.43-.65.01-.27-.64 0-.97-2.22-.77-1.46-2.72-.8-3.6A4 4 0 0 0 5 10.3C4.98 12.66 7.12 14 9.03 14c2.1 0 4.07-1.72 3.97-3.83-.09-1.81-.92-2.6-2.06-3.67-.2-.19-.4-.37-.6-.58Zm-1.25 5.73c1.6 0 2.89-1.2 2.89-2.67v-.04c.05.22.08.44.08.67 0 1.65-1.46 2.99-3.26 2.99-1.8 0-3.25-1.34-3.25-2.99 0-1.06.6-2 1.51-2.52a2.56 2.56 0 0 0-.85 1.9c0 1.46 1.29 2.66 2.88 2.66Zm-.08-8.08c-.02.49-.41 1.75-1.8 2.91a5.6 5.6 0 0 1 1.57-.85c.08-.23.23-.96.23-2.06Z"/></svg>