<!-- by TradingView --><svg width="18" height="18" viewBox="0 0 18 18" xmlns="http://www.w3.org/2000/svg"><path fill="url(#arg3q32we)" d="M0 0h18v18H0z"/><path d="M12.6 9h-2.5a.16.16 0 0 1-.12-.05.2.2 0 0 1-.05-.13c0-.1.08-.15.17-.15h2.36L12.87 7h-1.1c-.1 0-.17-.05-.17-.15 0-.05.02-.1.05-.13a.16.16 0 0 1 .12-.05h1.32c.03 0 .06 0 .08.02.02 0 .04.03.06.05a.2.2 0 0 1 .03.16l-.5 1.97a.19.19 0 0 1-.07.1.16.16 0 0 1-.1.03ZM11.62 11.33h-1.14a.18.18 0 0 1-.12-.04.15.15 0 0 1 0-.23.17.17 0 0 1 .06-.03l.06-.03h1l.42-1.33H8.95c-.05 0-.09-.04-.12-.07a.15.15 0 0 1-.05-.1c0-.05.02-.09.05-.12a.17.17 0 0 1 .12-.05h3.17a.18.18 0 0 1 .13.07l.03.06c.01.03 0 .05 0 .07l-.5 1.69a.16.16 0 0 1-.06.08.18.18 0 0 1-.1.03Z" fill="#FFFFFE"/><path d="M12.47 4c.76 0 1.13.29 1.13.3.52.41.53 1.24.04 2.21-.85 1.68-3.07 3.46-5.5 3.46a5.63 5.63 0 0 1-.16-.02l-.01-.02v-.02l.02-.02.4-.18c2.9-1.18 4.58-3.36 4.8-4.45.05-.3.01-.5-.12-.61-.03-.02-.15-.08-.37-.08-.47 0-1.68.27-3.6 2.58l.08-.23H7.35C9.75 4.52 11.45 4 12.47 4ZM5.95 8.67c-.16.26-.31.52-.45.79h1.92c.15-.25.33-.5.52-.8h-2Zm.59 2.54H4.87c-.13.62-.13 1.2.03 1.66.17.48.52.8 1.02.95.02 0 .43.18 1.08.18 1.31 0 3.24-.67 4.96-3.87v-.03l-.02-.02a.06.06 0 0 0-.06 0l-.6.5v.02c-1.08.93-2.42 2.1-4.2 2.1h-.13s-.26-.02-.42-.26c-.15-.22-.2-.6 0-1.23Z" fill="#F6BE5A"/><path d="M9.83 9H5.04c-.02 0-.05 0-.07-.02a.17.17 0 0 1-.06-.05.2.2 0 0 1-.03-.16l.6-1.97a.19.19 0 0 1 .07-.1.16.16 0 0 1 .1-.03h6.14V7H5.78l-.51 1.67h4.97l-.4.33ZM10.53 11.33H4.17l-.08-.01a.17.17 0 0 1-.06-.05.15.15 0 0 1-.02-.14l.6-1.68a.16.16 0 0 1 .06-.08.18.18 0 0 1 .1-.04h4.62l-.56.34H4.9L4.4 11h6.13v.33Z" fill="#FFFFFE"/><defs><linearGradient id="arg3q32we" x1="3.35" y1="3.12" x2="21.9" y2="24.43" gradientUnits="userSpaceOnUse"><stop stop-color="#1A1E21"/><stop offset="1" stop-color="#06060A"/></linearGradient></defs></svg>