<!-- by TradingView --><svg width="18" height="18" viewBox="0 0 18 18" xmlns="http://www.w3.org/2000/svg"><path fill="#275DB2" d="M0 0h18v18H0z"/><path d="M6 7H3v4h3v-1H3.75v-.71h1.98v-.86H3.75V8H6V7ZM10.13 10.65a2 2 0 1 1 .52-.52l.35.35-.52.52-.35-.35ZM9.92 9.4A1 1 0 0 0 9 8a1 1 0 1 0 .4 1.92l-.4-.4.52-.52.4.4ZM15 7.4c-.31-.25-.7-.4-1.13-.4C12.84 7 12 7.9 12 9s.84 2 1.87 2c.42 0 .82-.15 1.13-.4l-.61-.77a.89.89 0 0 1-.52.17c-.52 0-.87-.45-.87-1s.35-1 .87-1c.2 0 .37.06.52.17L15 7.4Z" fill="#fff"/></svg>