<!-- by TradingView --><svg width="18" height="18" xmlns="http://www.w3.org/2000/svg"><path fill="#FF033E" d="M0 0h18v18H0z"/><path d="M12.978 3.352c-.001-.332-.184-.432-.402-.287l-3.36 2.246c-.183.122-.217.171-.216.424l.013 4.47c0 .253.18.374.38.24l3.352-2.258.02-.013c.117-.079.176-.119.206-.174.03-.057.03-.13.029-.279v-.05l-.022-4.32zm-8.897 8.476c-.108-.067-.104-.162-.012-.222l1.416-.92c.077-.05.1-.053.182-.002l1.454.904c.083.051.086.149.001.203l-1.418.914-.008.006c-.051.033-.076.049-.101.049-.024 0-.048-.015-.094-.045l-.017-.01-1.403-.877zm5.962-.374c-.057.028-.06.073.008.105l.881.415.01.005c.03.014.045.02.06.021.015 0 .031-.008.063-.023l.005-.003.89-.432c.054-.026.052-.072 0-.097l-.913-.428c-.052-.024-.066-.022-.114.002l-.89.435zM9 13.071c0-.066.044-.087.099-.058l.837.442c.045.024.054.034.054.085l.01.9c0 .051-.044.076-.093.05l-.836-.445-.004-.003c-.031-.016-.046-.024-.053-.037-.007-.01-.007-.025-.007-.054v-.01L9 13.071zm-1.099-.054c.055-.038.1-.01.099.078l-.007 1.16v.014c0 .04 0 .06-.009.075-.007.015-.022.025-.05.045l-.005.004-.836.593c-.05.035-.094.002-.093-.066l.01-1.2c0-.068.009-.081.054-.113l.837-.59zM5 5.238c-.002-.223.133-.292.296-.196l2.512 1.475c.136.08.161.112.163.282l.029 3c.002.17-.13.254-.28.165L5.214 8.482c-.1-.06-.147-.086-.17-.127-.024-.041-.022-.098-.023-.217L5 5.238z" fill="#fff"/></svg>