<!-- by TradingView --><svg width="18" height="18" fill="none" xmlns="http://www.w3.org/2000/svg"><path fill="#150A84" d="M0 0h18v18H0z"/><path fill-rule="evenodd" clip-rule="evenodd" d="M6.646 11.498h.172a2.738 2.738 0 01-.529-1.16c-.024-.142-.091-.17-.214-.17-.416.003-.685.003-1.101 0-.416-.005-.698-.29-.702-.719-.004-.47-.004-.939 0-1.408.004-.445.278-.719.713-.719H8.77c.436 0 .701.274.705.723.004.38.008.763 0 1.143 0 .13.06.175.174.175h.892c.16 0 .222-.04.218-.216 0-.414 0-.793-.004-1.225.012-1.032-.88-1.926-1.85-1.922-.617.002-1.185.001-1.746 0-.745 0-1.478 0-2.296.004C3.844 6.008 3.008 6.886 3 7.94l.001.49c.001.326.002.653 0 .98-.009.595.154 1.105.594 1.534.348.343.733.534 1.196.547.495.012.91.01 1.365.009l.49-.001zm5.31-4.993c-.207.003-.425.006-.67.006.281.365.463.738.519 1.116.02.154.083.207.23.203.396-.004.548-.004.944 0 .468.004.741.272.753.751.012.459.012.922 0 1.38-.012.423-.253.67-.665.71-.08.009-.159.009-.238.009H9.72c-.171 0-.342.001-.51-.012-.488-.04-.677-.284-.68-.788-.005-.357-.005-.718.003-1.076.004-.138-.035-.182-.166-.178H7.455c-.127-.002-.186.044-.186.186.002.22.002.44.002.66 0 .22 0 .44.002.66.004.467.157.865.458 1.21.408.47.943.65 1.542.653a170.28 170.28 0 002.637 0c.496-.004.825-.006 1.355-.032.982-.049 1.731-.927 1.731-1.92 0-.452 0-1.109-.004-1.665-.004-.954-.772-1.815-1.704-1.86-.504-.024-.893-.019-1.332-.013z" fill="#fff"/></svg>