<!-- by TradingView --><svg width="18" height="18" viewBox="0 0 18 18" xmlns="http://www.w3.org/2000/svg"><path fill="#F0F3FA" d="M0 0h18v18H0z"/><path d="M7 7v3h3V9h-.2c0 .46-.43.83-.96.83H8V8.57h.19c.33 0 .6.19.6.42V9H9V8h-.2v.01c0 .23-.28.42-.61.42H8V7.17h.84c.53 0 .96.37.96.83h.2V7H7Z" fill="#2B5E96"/><path fill-rule="evenodd" d="M11.63 10h-.13a1.5 1.5 0 1 1 .85-.26l.11.07c.08.05.15.1.37.1.32 0 .55-.15.81-.33l.1-.07c-.11.98-.4 1.23-1.1 1.23-.72 0-1.02-.36-1.02-.69a.2.2 0 0 1 0-.06ZM11 7.63a.5.5 0 0 1 1 0v1.72a.5.5 0 0 1-1 0V7.64Z" fill="#2B5E96"/><path d="M8.47 4c2.1 0 3.9 1.62 4.53 2.41h-.22c-.57-.54-2.06-1.64-3.32-1.64-2.68 0-3.23 2-3.23 3.02 0 3.55 3.94 5.3 5.85 4.98-.2.07-.66.26-1.18.23A6.23 6.23 0 0 1 5 7.2C5 5.99 5.84 4 8.47 4Z" fill="#2B5E96"/><path d="M10.52 13.56c-4.63 0-6.8-4.7-6.42-6.56-.73 3.64 2.72 7 6.14 7 3.42 0 3.76-2.17 3.76-2.43-.47 1.36-1.73 1.99-3.48 1.99Z" fill="#999"/></svg>