<!-- by TradingView --><svg width="18" height="18" xmlns="http://www.w3.org/2000/svg"><path fill="#79242F" d="M0 0h18v18H0z"/><path d="M12 12.004h-2c-1.71 0-3-.11-3-1.044v-.499c0-.29.238-.46.665-.46h4.002c.085 0 .166-.03.226-.083.06-.053.107-.125.107-.2V8.286c0-.038-.022-.074-.038-.108a.282.282 0 00-.07-.092.325.325 0 00-.103-.06.36.36 0 00-.122-.027H7.541C7.205 7.965 7 7.81 7 7.555v-.498C7 6.122 8.291 6 10 6h2V4.002l-2 .001c-3.024 0-5 1.563-5 3.35v3.281C5 12.421 7.015 14 10.036 14H12v-1.996z" fill="#F6F8FD"/></svg>