<!-- by TradingView --><svg xmlns="http://www.w3.org/2000/svg" width="18" height="18"><path fill="#F0F3FA" d="M0 0h18v18H0z"/><path d="M5.06 6.43a3.92 3.92 0 114.42 4.37c-.37-.4-.54-.84-.6-1.12h.07a2.76 2.76 0 10-2.5-3.93c-.64.27-1.13.53-1.39.68z" fill="url(#ayesaiyos)"/><path d="M8.68 13.72a3.92 3.92 0 111.6-6c-.17.52-.47.89-.68 1.08a2.76 2.76 0 10-2.2 4.05c.55.43 1.02.73 1.28.87z" fill="url(#byesaiyos)"/><path d="M13.18 6.92a3.92 3.92 0 11-5.97 1.74c.54-.12 1-.06 1.28.02l-.04.06a2.76 2.76 0 104.65-.27c.08-.7.09-1.25.08-1.55z" fill="url(#cyesaiyos)"/><path d="M10.07 4.4s2.08 0 2.5 1.03a3.92 3.92 0 01-3.1 5.37c-.36-.4-.53-.84-.6-1.12h.08a2.76 2.76 0 001.12-5.28z" fill="url(#dyesaiyos)"/><path d="M4.43 10.39s-1.04-1.81-.36-2.7c0 0 .36-.53 1.15-.98a3.92 3.92 0 015.06 1c-.17.53-.47.9-.68 1.1a2.76 2.76 0 00-5.17 1.59z" fill="url(#eyesaiyos)"/><path d="M12.52 12.29s-1 1.82-2.12 1.69c0 0-.65-.03-1.44-.47a3.92 3.92 0 01-1.75-4.85c.54-.12 1-.06 1.28.02l-.04.06a2.76 2.76 0 004.07 3.55z" fill="url(#fyesaiyos)"/><defs><linearGradient id="ayesaiyos" x1="6.34" y1="5.45" x2="6.38" y2="4.19" gradientUnits="userSpaceOnUse"><stop stop-color="#604017"/><stop offset="1" stop-color="#CB9B37"/></linearGradient><linearGradient id="byesaiyos" x1="7.19" y1="13.1" x2="5.97" y2="13.49" gradientUnits="userSpaceOnUse"><stop stop-color="#604017"/><stop offset="1" stop-color="#CB9B37"/></linearGradient><linearGradient id="cyesaiyos" x1="13.42" y1="8.52" x2="14.43" y2="9.8" gradientUnits="userSpaceOnUse"><stop stop-color="#604017"/><stop offset="1" stop-color="#CB9B37"/></linearGradient><linearGradient id="dyesaiyos" x1="10.87" y1="4.58" x2="11.23" y2="8.62" gradientUnits="userSpaceOnUse"><stop stop-color="#654114"/><stop offset="1" stop-color="#D5AF61"/></linearGradient><linearGradient id="eyesaiyos" x1="4.18" y1="9.6" x2="7.51" y2="7.28" gradientUnits="userSpaceOnUse"><stop stop-color="#654114"/><stop offset="1" stop-color="#D5AF61"/></linearGradient><linearGradient id="fyesaiyos" x1="11.98" y1="12.9" x2="8.27" y2="11.25" gradientUnits="userSpaceOnUse"><stop stop-color="#654114"/><stop offset="1" stop-color="#D5AF61"/></linearGradient></defs></svg>