<!-- by TradingView --><svg width="18" height="18" viewBox="0 0 18 18" xmlns="http://www.w3.org/2000/svg"><path fill="#F0F3FA" d="M0 0h18v18H0z"/><path d="M5 5.28 8.19 7.3a8.29 8.29 0 0 1 5.22-2.14c.05 0 .09-.07.09-.11 0-.02 0-.09-.09-.15-.49-.3-1.53-.9-4-.9C6.92 4 5 5.28 5 5.28Zm3.19 5.87L5 9.13s1.93-1.28 4.4-1.28c2.48 0 3.52.6 4.01.9.09.06.09.13.09.15 0 .04-.04.1-.09.1-1.37 0-3.7.67-5.22 2.15Zm0 3.85L5 12.98s1.93-1.28 4.4-1.28c2.48 0 3.52.6 4.01.9.09.06.09.13.09.15 0 .04-.04.1-.09.1-1.37 0-3.7.67-5.22 2.15Z" fill="#2970CC"/></svg>