<!-- by TradingView --><svg width="18" height="18" viewBox="0 0 18 18" xmlns="http://www.w3.org/2000/svg"><path fill="#F0F3FA" d="M0 0h18v18H0z"/><path d="M9.89 15c-3.59-2.34-3.1-5.51-2.4-6.81l.6.49a4.19 4.19 0 0 0 0 3.56c-.24-1.42.2-2.75.45-3.24l.6.49c-.84 1.68-.45 3.08-.15 3.56-.24-1.42.4-2.75.75-3.24l.6.49c-.96 1.3-.7 3.67-.45 4.7Z" fill="#ADAFB2"/><path d="M10.64 9.97C11.95 5.43 9.39 3.43 7.94 3c.72 2.34.1 4.1-.3 4.7l.75.65c.6-.78.65-2.38.6-3.08.6 1.3.05 2.81-.3 3.4l.75.5c.36-.66.45-2.33.45-3.09a7.29 7.29 0 0 1 0 3.4l.75.5Z" fill="#EE2E24"/></svg>