<!-- by TradingView --><svg width="18" height="18" xmlns="http://www.w3.org/2000/svg"><path fill="#0079C1" d="M0 0h18v18H0z"/><path d="M5 3h8v11.351c0 .065-.082.081-.115.05L12 13.788V11.61l.309-.244c.082-.048.115-.113.115-.178 0-.032-.033-.097-.115-.146L9.333 9.195V7.638l.556-.6c.05-.065.066-.097.066-.13 0-.032 0-.065-.05-.097l-.247-.179-.296-.55-.872-.601-.346.049V3.892c.033-.033.05-.065.05-.097 0-.065-.05-.114-.132-.114-.05 0-.116.049-.116.114 0 .032.021.064.054.097v1.654l-.761.114-1.07 1.248-.013.017c-.04.051-.053.069-.053.113 0 .032.016.097.066.13l.498.34V8.75l-1.519 1.693c-.066.065-.148.049-.148-.048V3z" fill="#FFFFFE"/><path d="M6.547 7.005c-.016.016-.016.033 0 .049l.1.081c.005 0 .008.002.012.004.007.003.015.007.037-.004l.411-.47 1.3-.227.955.649a.05.05 0 00.066 0l.115-.13c.017-.016.017-.033 0-.049l-.115-.097-.296-.52-.659-.437-1.135.178c-.025.009-.038.013-.044.02-.006.009-.006.021-.006.045 0 .033.033.033.066.033l.971-.146c.033 0 .066.016.066.097s0 .097-.082.114l-1.251.21-.51.6zM6.591 15h1.745c.1 0 .132-.016.132-.081 0-.033-.033-.065-.099-.114L6.575 13.67c-.05-.032-.099-.065-.148-.065-.033 0-.094.017-.094.114v1.086c0 .13.11.195.258.195zM8.904 8.994l-.186-.119c-.033-.016-.051-.033-.051-.097V7.437c0-.146.023-.243.154-.243.132 0 .179.097.179.243v1.508c0 .065-.063.065-.096.049zM12.078 14.919l-4.992-3.126-.01-.007C7.032 11.758 7 11.74 7 11.68v-.39c0-.13.06-.133.152-.08l5.782 3.628c.05.032.066.065.066.08 0 .066-.05.082-.165.082h-.526c-.083 0-.132-.016-.23-.081zM9.79 11.935l-.609.162c-.05.017-.082.017-.131.017-.067 0-.165-.066-.231-.163-.082-.113-.181-.259-.181-.438 0-.162.099-.356.395-.356.395 0 .642.26.79.454.082.113.099.162.099.21 0 .065-.05.098-.132.114z" fill="#FFFFFE"/><path d="M7.14 9.519L5.115 11.87c-.05.065-.115.049-.115-.032v-.6c0-.081.017-.114.05-.146l2.172-2.546c.066-.081.116-.097.165-.097.05 0 .115.032.197.08l4.149 2.547c.049.032.098.08.098.13 0 .064-.016.08-.082.13l-.416.291v.34c0 .098-.095.114-.144.082L7.403 9.697c-.082-.048-.082-.08-.082-.146v-.048c0-.065-.016-.098-.066-.098-.026 0-.042.02-.08.069l-.035.045z" fill="#FFFFFE"/><path d="M11.436 15H9.214c-.115 0-.148-.016-.247-.081L6.58 13.395c-.043-.026-.063-.038-.073-.056-.009-.015-.009-.036-.009-.074V13.2c0-.049-.017-.065-.05-.065-.032 0-.082.065-.131.13L5.165 14.61l-.025.026c-.024.027-.05.055-.074.055-.05 0-.066-.016-.066-.097v-.811c0-.042.012-.06.037-.096l.005-.007.007-.01 1.449-1.703v-.13c0-.097.05-.114.132-.065l4.839 3.065c.099.048.099.162-.033.162zM8.334 8.572V7.259c0-.13-.133-.26-.333-.26s-.334.13-.334.26v.94c0 .112.022.145.067.161l.467.277c.044.016.133.016.133-.065zM7.333 8.157V7.54c0-.098-.037-.195-.167-.195S7 7.443 7 7.54v.875c0 .065.055.098.11.033l.186-.179c.037-.032.037-.048.037-.113z" fill="#FFFFFE"/></svg>