<!-- by TradingView --><svg xmlns="http://www.w3.org/2000/svg" width="18" height="18" viewBox="0 0 18 18"><path fill="#F0F3FA" d="M0 0h18v18H0z"/><path fill-rule="evenodd" d="M16 6H2v6h14V6Zm-13.25.63H4.9V7H3.13v.86h1.1v.38h-1.1v.86H4.9v.38H2.75V6.63Zm3 0h-.37v2.86h.38V8.27h1.09l.64 1.22h.43l-.66-1.25a.82.82 0 0 0-.22-1.61H5.76Zm1.29 1.3H5.76v-.96h1.28a.48.48 0 0 1 0 .96Zm2.6 1.56c.8 0 1.43-.64 1.43-1.43 0-.8-.64-1.43-1.42-1.43-.79 0-1.43.64-1.43 1.43 0 .79.64 1.43 1.43 1.43Zm0-.38c.58 0 1.05-.47 1.05-1.05 0-.58-.47-1.05-1.04-1.05-.58 0-1.05.47-1.05 1.05 0 .58.47 1.05 1.05 1.05Z" fill="#2A8B91"/><path d="M2 10h14v2H2v-2Z" fill="#010101"/><path fill="#2A8B91" d="M6 10.5h9v1H6z"/></svg>