<!-- by TradingView --><svg width="18" height="18" viewBox="0 0 18 18" xmlns="http://www.w3.org/2000/svg"><path fill="#F0F3FA" d="M0 0h18v18H0z"/><path d="M7.96 4.08c-.18.04-.5.17-.72.27-.56.29-1.06.84-1.34 1.39a2.98 2.98 0 0 0-.17 2.36c.18.47.44.83.6.83.1 0 .12-.05.13-.25a5.24 5.24 0 0 1 2.75-4.5c.18-.08.2-.1.1-.14-.18-.07-1-.04-1.35.04Z" fill="#407E7E"/><path d="M10.02 4.76c-1 .2-1.83.8-2.3 1.7-.07.13-.06.16.01.25.1.08.17.06.72-.2.85-.38 1.5-.5 2.48-.46.9.04 1.35.15 2.11.52.32.16.57.27.57.25l-.2-.41a3.52 3.52 0 0 0-1.16-1.23 3.44 3.44 0 0 0-2.23-.42ZM4.61 6.43a3.1 3.1 0 0 0 2.33 4.93c.37.03.53.02.61-.05.18-.13.1-.24-.39-.53a5.08 5.08 0 0 1-2.32-4.03l-.03-.6-.2.28Z" fill="#407E7E"/><path d="M10.46 6.7c-.07.07 0 .13.26.27.16.1.62.16 1.93 2.22.27.53.5 1.36.55 2l.04.59.15-.18c.19-.22.45-.74.54-1.07.1-.37.09-1.22-.03-1.65-.21-.8-.9-1.57-1.8-1.98-.25-.12-1.41-.47-1.64-.2Z" fill="#407E7E"/><path d="M11.56 9.14a1.2 1.2 0 0 0-.04.42c0 1.09-.43 2.08-1.09 2.92-.36.47-.94.98-1.38 1.22-.19.1-.34.22-.34.25 0 .05.24.06.7.04a2.77 2.77 0 0 0 1.7-.53c.4-.27.72-.62.98-1.1.5-.93.45-2.27-.13-3.1-.11-.15-.3-.22-.4-.12Z" fill="#407E7E"/><path d="M4.46 11.29c.3.78 1.17 1.61 1.99 1.86.46.14 1.18.18 1.63.09.8-.16 1.67-.77 2.07-1.46.2-.33.22-.52.03-.52-.05 0-.3.1-.56.22-.5.25-1.28.45-2 .52-.84.07-2.02-.2-2.89-.69l-.34-.19.07.17Z" fill="#407E7E"/></svg>