<!-- by TradingView --><svg width="18" height="18" viewBox="0 0 18 18" xmlns="http://www.w3.org/2000/svg"><path fill="#F0F3FA" d="M0 0h18v18H0z"/><path d="M11.97 15H6.03S6 14.95 6 14.85a6.48 6.48 0 0 1 .02-.85h5.94s.02.05.02.15a6.54 6.54 0 0 1-.02.85Z" fill="#C4C8C9"/><path d="M12 5.77V4.23c0-.12-.1-.23-.22-.23H6.94c-.6-.02-.95.52-.94.98v7.79c0 .12.1.23.22.23h5.56c.12 0 .22-.1.22-.23v-1.54c0-.12-.1-.23-.22-.23H8V9h2.79c.1 0 .21-.1.21-.23v-.54c0-.12-.1-.23-.21-.23H8V6h3.78c.12 0 .22-.1.22-.23Z"/></svg>