<!-- by TradingView --><svg width="18" height="18" xmlns="http://www.w3.org/2000/svg"><path fill="#143B6C" d="M0 0h18v18H0z"/><path d="M11.812 11.857l-1.25-1.955c-.757.569-2.081-.403-2.812-.326l-1.563 2.281h5.625z" fill="#fff"/><path d="M8.375 7.545l-.938-1.818h2.5L10.25 5H6.362L7.75 7.545 4 13h4.687L9 12.273H5.25l3.125-4.728z" fill="#fff"/><path d="M10.25 7.546L11.63 5h-.755l-1.25 2.546 3.125 4.727H9l.312.727H14l-3.75-5.454z" fill="#fff"/><path d="M10.887 5l.453-1h.774l-.467 1h-.76z" fill="#D41042"/></svg>