<!-- by TradingView --><svg width="18" height="18" viewBox="0 0 18 18" xmlns="http://www.w3.org/2000/svg"><path fill="#F0F3FA" d="M0 0h18v18H0z"/><path d="M10 7V4.1a5.2 5.2 0 0 0-2 0V7h2Z" fill="#00B3E6"/><path d="M8 11v2.9a5.2 5.2 0 0 0 2 0V11H8ZM12 7v1l1.3-1.57a5.03 5.03 0 0 0-1.32-1.45L10 7H12ZM12 11h-2l1.98 2.03c.53-.4.97-.89 1.31-1.45L12 10v1Z" fill="#F68D39"/><path d="M6 9.77V8.23c0-.08.07-.15.08-.23h-2a5.82 5.82 0 0 0 0 2h2c0-.08-.08-.15-.08-.23ZM7.54 11c-.59 0-1.35-.49-1.46-1L4.52 11.6c.37.56.84 1.05 1.4 1.44L8.02 11h-.48ZM6.13 4.97c-.51.4-.94.88-1.26 1.45L6.07 8c.11-.6.94-1 1.52-1h.43l-1.9-2.03Z" fill="#00B3E6"/><path d="M13.9 8H7.45v2h6.47c.12-.66.12-1.34 0-2Z" fill="#F68D39"/></svg>