<!-- by TradingView --><svg width="18" height="18" viewBox="0 0 18 18" xmlns="http://www.w3.org/2000/svg"><path fill="#F0F3FA" d="M0 0h18v18H0z"/><path d="M4.97 5.04a30.87 30.87 0 0 1 .9-.03L6.5 5l.25.11c.62.28 1.6.63 2.96 1.07a25.22 25.22 0 0 0 4.27 1.04s-.03.01-.07 0l-.42-.04a29.5 29.5 0 0 1-2.96-.46c-1.18-.25-3.2-.8-4.22-1.15-.48-.16-1.34-.5-1.34-.53Zm3.96.36a3.81 3.81 0 0 1-.65-.38c0-.01.43-.02.95-.02h.95l.3.21c.61.46 1.2.81 2.01 1.23.6.31 1.01.5 1.37.62.42.15.14.1-.6-.08-1.33-.35-3.16-1.01-4.33-1.58Zm-5.88.95c.09-.34.26-.64.48-.87l.13-.13.1.06c.95.55 3.25 1.1 6.84 1.62 1.79.27 3.1.4 4.26.45H15v2.2L15 12H9.74c-5.06 0-5.3 0-5.51-.09l-.1-.04c-.5-.2-.92-.82-1.08-1.41L3 10.29V6.52l.05-.17Zm11.3 2.23c-.1-.48-.41-.65-1.2-.7a8.26 8.26 0 0 0-.38-.02c-.67.04-.85.06-1.05.15a.7.7 0 0 0-.31.32c-.05.1-.09.33-.09.45v.07h.53l.01-.14c.03-.31.17-.45.64-.5.12-.02.35-.04.52-.03.7.03.78.41.78 1.08v.36a.71.71 0 0 0-.49-.3 6.45 6.45 0 0 0-1.34-.02c-.21.04-.39.11-.48.18-.2.15-.38.47-.39.82l.01.24c.08.63.56.85 1.65.82.57-.02.7-.1.93-.31l.11-.1-.01.14v.03l-.03.2c0 .03.12.04.37.04h.27v-1.32c0-1.22 0-1.3-.04-1.46Zm-7.21.02c-.15-.5-.45-.67-1.2-.72a3.73 3.73 0 0 0-.72 0c-.76.05-1.1.28-1.24.83-.08.32-.1.92-.06 1.4.07.75.3 1.06.88 1.2.24.05.96.07 1.32.03.6-.06.88-.18 1.02-.48a.69.69 0 0 0 .08-.35l.01-.2h-.56l-.01.15c-.03.3-.13.42-.4.47-.35.06-1.1.04-1.35-.03a.58.58 0 0 1-.34-.36 2.67 2.67 0 0 1-.1-.69v-.08H7.2v-.23c0-.37-.01-.77-.06-.94Zm2.9-.66c-.08-.02-.3-.05-.48-.06l-.32-.02-.46.02c-.6.03-.89.14-1.04.38-.08.13-.1.28-.1.58 0 .33.05.5.18.64.2.21.55.28 1.72.32.52.02.59.05.67.21.04.1.05.14.05.34s-.01.24-.06.33c-.1.2-.24.26-.72.3-.33.02-.84 0-1.03-.05-.18-.05-.3-.25-.3-.52v-.15H7.6v.08c-.01.46.1.7.42.86.24.12.56.16 1.17.16.82 0 1.2-.08 1.41-.31.3-.33.29-1.12-.03-1.4-.21-.2-.36-.23-1.23-.27-.81-.03-.85-.04-.97-.1-.14-.07-.18-.18-.18-.48 0-.2 0-.25.04-.32.09-.18.28-.23.96-.23.79 0 .93.06.97.4v.14h.54v-.14c0-.4-.2-.62-.65-.71Zm2.24 1.71c-.47.05-.6.2-.58.68.03.53.18.63.96.63.43 0 .63-.03.84-.12.24-.1.31-.24.3-.59-.02-.3-.1-.44-.35-.53-.21-.08-.75-.1-1.17-.07Zm-7.75-1c.08-.25.26-.4.57-.45.21-.04.96-.01 1.1.04.32.1.42.32.44.92v.28h-1.1l-1.1.01v-.1c0-.2.05-.57.1-.7Z" fill="#0B76BD"/></svg>