<!-- by TradingView --><svg xmlns="http://www.w3.org/2000/svg" width="18" height="18" viewBox="0 0 18 18"><path fill="#F0F3FA" d="M0 0h18v18H0z"/><path d="M6.34 4.8l-.47 2.63c.34.1 1.12.35 1.45.48.33.13 1.04.25 1.35.3V3.58c-.7.23-1.85.9-2.33 1.22z" fill="#7C581C"/><path d="M11 3l-2 .5v4.8a16.6 16.6 0 0 1 3.14-.14c-.12-.37-.8-3.6-1.13-5.16z" fill="#7E5720"/><path d="M5.3 10.96l.23-1.99c.68.58 2.41.65 3.14.61 0 1.66.9 2.05 1.41 2.04h2.61l.2 1.25c-.1.02-.5.04-1.4 0a5.87 5.87 0 0 1-2.88-1.1c-.73-.47-1.78-1-2.18-1.02-.32-.02-.89.13-1.13.2z" fill="#7B6A58"/><path d="M5.2 11.43L5 13.9c2.33.26 6.3-.05 8-.24v-.56c-.1 0-.57-.02-1.6 0-1.3.03-1.89-.35-2.74-.86-.85-.5-1.8-1.1-2.13-1.1-.26 0-1 .2-1.32.29z" fill="#82531D"/><path d="M10.1 11.18C9.2 11 9 10.02 9 9.55a6.76 6.76 0 0 1 3.53.73l.14.9h-2.58z" fill="#766656"/><path d="M5.6 8.75l.17-1.03c.5.3 2.2.68 2.9.83v.69c-.3.02-1.12.06-1.55 0a8.69 8.69 0 0 1-1.52-.49z" fill="#CEAC7C"/><path d="M9 9.22v-.63a14.3 14.3 0 0 1 3.26-.07l.17 1.3A8.2 8.2 0 0 0 9 9.22z" fill="#CDAB7B"/></svg>