<!-- by TradingView --><svg width="18" height="18" viewBox="0 0 18 18" xmlns="http://www.w3.org/2000/svg"><path fill="#F0F3FA" d="M0 0h18v18H0z"/><path d="M6.36 7.8c.26.4.44.83.44 1.3 0 .47-.18.9-.44 1.3-.2.27-.36.58-.36.8a1 1 0 1 0 2 0c0-.22-.16-.53-.36-.8a2.3 2.3 0 0 1-.44-1.3c0-.47.18-.9.44-1.3.2-.27.36-.58.36-.8a1 1 0 1 0-2 0c0 .22.16.53.36.8Z" fill="url(#ax1vkyg5i)"/><path d="M11.36 7.8c.26.4.44.83.44 1.3 0 .47-.18.9-.44 1.3-.2.28-.36.58-.36.8a1 1 0 1 0 2 0c0-.22-.16-.53-.36-.8a2.3 2.3 0 0 1-.44-1.3c0-.47.18-.9.44-1.3.2-.27.36-.58.36-.8a1 1 0 1 0-2 0c0 .22.16.53.36.8Z" fill="url(#bx1vkyg5i)"/><circle cx="5" cy="9" fill="url(#cx1vkyg5i)" r="1"/><path d="M10.5 5c0 .25-.23.6-.48.91-.26.31-.42.7-.42 1.09 0 .4.16.78.42 1.09.25.3.48.66.48.91 0 .22-.18.49-.4.73-.3.33-.5.74-.5 1.19 0 .35.13.69.34.97.28.38.56.83.56 1.11 0 .55-.5 1-1.13 1-.62 0-1.12-.45-1.12-1 0-.28.28-.73.56-1.1.21-.3.34-.63.34-.98 0-.45-.2-.86-.5-1.19-.22-.24-.4-.5-.4-.73 0-.25.23-.6.48-.91.26-.31.42-.7.42-1.09 0-.4-.16-.78-.42-1.09-.25-.3-.48-.66-.48-.91 0-.55.5-1 1.13-1 .62 0 1.12.45 1.12 1Z" fill="url(#dx1vkyg5i)"/><defs><linearGradient id="ax1vkyg5i" x1="7" y1="6" x2="7" y2="12.2" gradientUnits="userSpaceOnUse"><stop stop-color="#C6D195"/><stop offset=".26" stop-color="#ACBB54"/><stop offset=".77" stop-color="#9AB236"/><stop offset="1" stop-color="#869D55"/></linearGradient><linearGradient id="bx1vkyg5i" x1="12" y1="6" x2="12" y2="12.2" gradientUnits="userSpaceOnUse"><stop stop-color="#C9E0D6"/><stop offset=".34" stop-color="#87B6A6"/><stop offset=".53" stop-color="#42776D"/><stop offset="1" stop-color="#166B64"/></linearGradient><linearGradient id="cx1vkyg5i" x1="5" y1="8" x2="5" y2="10" gradientUnits="userSpaceOnUse"><stop stop-color="#EED5AC"/><stop offset=".55" stop-color="#B06F69"/><stop offset=".98" stop-color="#C3A29C"/></linearGradient><linearGradient id="dx1vkyg5i" x1="9.38" y1="4" x2="9.38" y2="14" gradientUnits="userSpaceOnUse"><stop stop-color="#C58792"/><stop offset=".41" stop-color="#FFB991"/><stop offset=".61" stop-color="#CBC3B6"/><stop offset=".8" stop-color="#E7A875"/><stop offset="1" stop-color="#A26E47"/></linearGradient></defs></svg>