<!-- by TradingView --><svg width="18" height="18" viewBox="0 0 18 18" xmlns="http://www.w3.org/2000/svg"><path fill="#F0F3FA" d="M0 0h18v18H0z"/><path d="M4 12.92V6.15C4.59 6.06 5.3 6 6.05 6 8.08 6 10 7.03 10 9.32 10 11.8 8 13 5.76 13c-.7 0-1.27-.03-1.76-.08ZM5 7.1v4.86c.25.04.5.04.91.04C8.04 12.01 9 11.06 9 9.36 9.01 7.78 8.1 7 6.08 7c-.54 0-.82.05-1.08.1Z" fill="#184946"/><path fill-rule="evenodd" d="M12.58 6 11 7.58v.84L12.58 10h.84L15 8.42v-.84L13.42 6h-.84Zm1.1 1.98-.7-.69-.69.7.7.69.69-.7Z" fill="#8ED881"/><path d="M14.78 7.36 13.06 8.6l-.08.08-.69-.7-.04-.04-.45.5L13.43 10 15 8.42v-.84l-.22-.22Z" fill="#055749"/><path d="m12.4 6.17 1.64 1.32-.36.5-.7.69-.02.02.47.39L15 7.75v-.17L13.42 6h-.84l-.17.17Z" fill="#508E8B"/></svg>