<!-- by TradingView --><svg xmlns="http://www.w3.org/2000/svg" width="18" height="18"><path d="M0 9a9 9 0 1118 0A9 9 0 010 9z" fill="#F0F3FA"/><path d="M8.88 8.56H6.66l.3-.3H9l.92.89-.21.2-.83-.8z"/><path d="M8.67 9.15h-2.6l.3-.3h2.42l.74.74-.4.4-.2-.2.19-.2-.45-.44zm2.21.65l-1.14 1.13H7.9l.28-.3h1.44l1.05-1.05.2.21z"/><path d="M10.44 9.4l-.94.93H8.38l.3-.3h.7l.85-.84.2.21zm-2.45.04l-1.46 1.49h-.41L7.6 9.44H8zm-.62 1.49l1.2-1.23-.2-.21-1.42 1.44h.42z"/><path d="M8.64 7.01c1.3-1.1 2.63-1.84 3.69-2 .14-.02.67 0 .8.04.3.09.58.3.72.56.2.38.2 1.02.01 1.72-.27.98-.98 2.25-1.89 3.37a16.2 16.2 0 01-2.1 2.14l-.2.16h-.83l.2-.14c.89-.64 1.72-1.43 2.5-2.4a9.71 9.71 0 001.42-2.2c.72-1.66.37-2.76-.88-2.68-1.03.06-2.62.99-3.95 2.26L7.97 8H7.6l.06-.06c.15-.17.73-.7.98-.93z" fill="#073975"/><path d="M8.58 8l.1-.09c.5-.42.97-.76 1.43-1 .68-.33 1.23-.45 1.62-.32.12.04.17.07.26.17.27.27.3.73.11 1.36-.27.86-.9 1.8-1.9 2.8-.7.7-2.03 2.08-3.5 1.73-1.24-.41-.68-1.7-.68-1.7l-1.01 1.02L4 13h4.23l.28-.16c2-1.18 3.96-3.6 4.3-5.32.07-.31.06-.77-.02-.96a.91.91 0 00-.57-.54 2.3 2.3 0 00-.79-.03c-.88.18-2 .86-3.04 1.83l-.2.18h.4z" fill="#073975"/></svg>