<!-- by TradingView --><svg width="18" height="18" viewBox="0 0 18 18" xmlns="http://www.w3.org/2000/svg"><path fill="#F0F3FA" d="M0 0h18v18H0z"/><path fill-rule="evenodd" d="M11.5 5a2.5 2.5 0 0 1 2.08 3.89l-2.03 3.88a.43.43 0 0 1-.37.23c-.24 0-.64-.2-.64-.44v-.02c0-.08.02-.16.06-.23l1.22-2.33-.32.02a2.5 2.5 0 0 1 0-5Zm0 1a1.5 1.5 0 1 1 0 3 1.5 1.5 0 0 1 0-3Zm-7 1a2 2 0 0 0 .6 1.43 2.5 2.5 0 1 0 2.8 0A2 2 0 0 0 6.5 5a2 2 0 0 0-2 2Zm1 0a1 1 0 0 0 .99 1h.02A1 1 0 1 0 5.5 7Zm1 5a1.5 1.5 0 1 0 0-3 1.5 1.5 0 0 0 0 3Z" fill="#9EACB4"/></svg>