<!-- by TradingView --><svg width="18" height="18" viewBox="0 0 18 18" xmlns="http://www.w3.org/2000/svg"><path fill="url(#a)" d="M0 0h18v18H0z"/><path d="M6.18 9.89h-.02a3.3 3.3 0 0 1-.88-.22c-.3-.12-.55-.28-.75-.48a1.65 1.65 0 0 1-.46-.72c-.1-.3-.1-.64 0-1 .04-.18.15-.4.32-.66A35.37 35.37 0 0 1 6.46 4c.06-.02.11 0 .15.07.02.03.02.07 0 .1-.22.54-.42 1.08-.58 1.62-.11.38-.16.68-.15.9 0 .19.06.34.18.46.11.11.26.18.44.2.14.02.3.02.46 0l.02.01v.03a.25.25 0 0 1-.05.08c-.25.23-.44.51-.56.83-.12.3-.18.64-.18 1v.57ZM11.84 9.93v-.01h-.03v-.57c0-.36-.04-.7-.16-1-.12-.32-.3-.6-.55-.83a.24.24 0 0 1-.05-.08v-.02l.02-.01c.16.02.31.02.45 0 .18-.02.32-.1.44-.2a.66.66 0 0 0 .18-.47c0-.22-.04-.52-.15-.9a13.4 13.4 0 0 0-.59-1.61.12.12 0 0 1 .01-.1c.04-.08.09-.1.15-.08.05.02.1.06.14.12l.5.66c.67.9 1.14 1.58 1.42 2.02.16.26.27.49.31.67.1.36.1.69 0 .99-.08.27-.23.51-.45.73-.2.19-.45.35-.74.47a3.26 3.26 0 0 1-.9.22ZM8.28 7.14c.56-.2 1.1-.19 1.64.06.33.16.6.39.78.7.2.32.3.68.3 1.1v.96c0 .14 0 .24-.02.3a.26.26 0 0 1-.16.18.66.66 0 0 1-.22.03H8.02v.56c0 .17.09.33.2.47a1.08 1.08 0 0 0 1.45.15c.1-.07.2-.15.25-.24l.06-.09H10c.04 0 .32.18.83.53.05.03.06.07.03.11-.24.43-.6.73-1.06.9a2.16 2.16 0 0 1-2.44-.68A1.9 1.9 0 0 1 7 11.04v-1.5c0-.49 0-.8.03-.9a1.88 1.88 0 0 1 1.25-1.5Zm.68 1.12c-.26 0-.5.09-.68.26a.8.8 0 0 0-.28.62v.33c0 .04.02.06.05.06h1.9c.03 0 .05-.03.05-.06v-.34a.8.8 0 0 0-.28-.61.98.98 0 0 0-.68-.26h-.08Z" fill="#fff"/><defs><linearGradient id="a" x1="1.98" y1="3.41" x2="14.59" y2="16.29" gradientUnits="userSpaceOnUse"><stop stop-color="#17C83C"/><stop offset="1" stop-color="#4BE38D"/></linearGradient></defs></svg>