<!-- by TradingView --><svg width="18" height="18" xmlns="http://www.w3.org/2000/svg"><path fill="#EF3E42" d="M0 0h18v18H0z"/><path d="M12.4 12.75c-.225.212-.47.457-.732.625H10V14H8v-.625H6.332c-.262-.168-.506-.413-.732-.625H8v.625h2v-.625h2.401zm1.008-1.14c-.19.356-.473.644-.678.828H12V12h-2v.438H8V12H6v.438h-.736c-.134-.086-.488-.472-.678-.828H6V11h2v.61h2V11h2v.61h1.408zm.58-1.985c-.03.449-.116.963-.25 1.375H12v-.75h-2V11H8v-.75H6V11H4.257a5.742 5.742 0 01-.245-1.375H6V9h2v.625h2V9h2v.625h1.988zM4 9c.043-2.78 2.265-5 5-5s4.957 2.22 5 5h-2v-.313h-2V9H8v-.313H6V9H4z" fill="#fff"/></svg>