<!-- by TradingView --><svg xmlns="http://www.w3.org/2000/svg" width="18" height="18" viewBox="0 0 18 18"><path fill="#FF5000" d="M0 0h18v18H0z"/><path d="M8.87 8.36c.04-.03.08-.06.13-.06s.1.03.13.06L10 9l-.87.62a.24.24 0 0 1-.13.05.22.22 0 0 1-.13-.05L8 9l.87-.64Zm6.31-.01-.88-.63h-.02s-.02 0-.02.02l.01.02c.1.15.23.31.23.5 0 .25-.14.5-.34.64L9.78 12c-.23.16-.5.2-.78.2s-.55-.04-.79-.2l-1.88-1.39c-.06-.04-.13-.12-.13-.2 0-.09.07-.17.13-.21l.72-.53 1.56 1.2c.11.08.25.13.39.13s.28-.05.4-.13l3.63-2.63c.2-.14.37-.37.37-.62s-.17-.48-.37-.62l-2.85-2.13a2.05 2.05 0 0 0-2.36 0l-5 3.54a.78.78 0 0 0 0 1.25l.87.6.02.03c.02 0 .03-.01.03-.03l-.01-.02c-.1-.14-.23-.33-.23-.5 0-.15.07-.3.14-.42a.76.76 0 0 1 .2-.22L8.2 6.01c.24-.16.51-.21.79-.21s.55.05.78.21l1.9 1.4c.06.05.12.13.12.21 0 .08-.06.16-.12.2l-.73.48-1.56-1.16A.7.7 0 0 0 9 7a.7.7 0 0 0-.4.14L5 9.74c-.28.2-.4.4-.4.63 0 .23.1.4.4.62l2.83 2.14a2.04 2.04 0 0 0 2.35 0l5-3.56a.76.76 0 0 0 0-1.22" fill="#fff"/></svg>