<!-- by TradingView --><svg xmlns="http://www.w3.org/2000/svg" width="18" height="18" viewBox="0 0 18 18"><path fill="#F0F3FA" d="M0 0h18v18H0z"/><path d="m8.68 5.76-.17 1.6c-.46.04-1.61.38-2.55 1.43-.93 1.05-.45 2.3-.09 2.8-.65-.22-1.8-1.14-1.2-3.07.6-1.93 2.92-2.64 4-2.76Z" fill="url(#as0k0dkt1)"/><path d="m8.68 9.65-.06 1.15c-.34.03-1.77.45-2.45 1.28-1.33 1.62 1 2.28 1.41 2.42-.53 0-2.99.17-2.32-2.66.36-1.54 2.64-2.1 3.42-2.2Z" fill="url(#bs0k0dkt1)"/><path d="m12.54 7.06-.27 1.19a4.69 4.69 0 0 0-2.69.91c-1.63 1.46.62 2.54 1.01 2.75-.54-.09-3.1-.37-1.93-3.19.63-1.54 3.07-1.7 3.88-1.66Z" fill="#9CC742"/><path d="m13.5 3.51-.43 1.53a5.1 5.1 0 0 0-3.08.92c-1.21.85-.86 2.16-.54 2.7-.7-.33-1.84-1.43-.87-3.2.96-1.76 3.68-2.03 4.92-1.95Z" fill="url(#cs0k0dkt1)"/><defs><linearGradient id="as0k0dkt1" x1="7.86" y1="6.03" x2="5.85" y2="11.21" gradientUnits="userSpaceOnUse"><stop stop-color="#243796"/><stop offset="1" stop-color="#1768A1"/></linearGradient><linearGradient id="bs0k0dkt1" x1="6.91" y1="9.65" x2="4.38" y2="13.88" gradientUnits="userSpaceOnUse"><stop stop-color="#1768A0"/><stop offset="1" stop-color="#1268A5"/></linearGradient><linearGradient id="cs0k0dkt1" x1="10.85" y1="3.5" x2="10.85" y2="8.67" gradientUnits="userSpaceOnUse"><stop stop-color="#69B246"/><stop offset="1" stop-color="#80BE3F"/></linearGradient></defs></svg>