<!-- by TradingView --><svg xmlns="http://www.w3.org/2000/svg" width="18" height="18" viewBox="0 0 18 18"><path fill="#F0F3FA" d="M0 0h18v18H0z"/><path d="M6.3 10.96a2.93 2.93 0 0 1-1.36-.5 9.16 9.16 0 0 1-1.13-.83A3.89 3.89 0 0 1 3 8.6c.08.26.83 2.72 2 3.25.61.3 1.21.12 1.86-.29.2-.18.69-.67 1.02-1.07a2.9 2.9 0 0 1-1.57.47z" fill="url(#aymnpaydz)"/><path d="M10.78 11.95l-.28-.03c-.4-.1-2.01-.72-2.91-1.1l.3-.33-.12.07c.17-.1.32-.24.47-.39a4.4 4.4 0 0 1 1.69-1.1c.65.4 1.39.85 1.59.92.27.11.5.19.76.19h.1a2.82 2.82 0 0 1-.44 1.2c-.15.2-.34.31-.55.42-.21.09-.4.15-.6.15z" fill="url(#bymnpaydz)"/><path d="M3.08 7.25c0 .15.04.52.17.86.11.34.53.98.82 1.22v.01h.01c.07.08.22.2.4.32.22 0 .48.08.8.17.34.1 1.24.52 1.6.68.4-.09.77-.3 1.07-.61A4.9 4.9 0 0 1 9.5 8.8l-.73-.42c-.38-.22-3.3-1.84-4.4-1.94-.92-.09-1.3.27-1.3.81z" fill="url(#cymnpaydz)"/><path d="M12.52 11.1c.07-.15.12-.31.17-.47.06-.24.1-.45.1-.64 0-.42-.15-.74-.47-1.02-.38-.34-.84-.5-1.36-.5-.29 0-.6.04-.92.14-.55.17-1.04.42-1.49.77.33-.44 1.2-1.66 2.17-2.43a3.95 3.95 0 0 1 2.5-.95l.39.02c.26.03 1.39.3 1.39 1.59l-.01.27c-.2 1.34-1.5 2.42-1.5 2.42l-.97.8z" fill="url(#dymnpaydz)"/><defs><linearGradient id="aymnpaydz" x1="2.6" y1="9.58" x2="7.38" y2="11.56" gradientUnits="userSpaceOnUse"><stop stop-color="#87878B"/><stop offset=".09" stop-color="#919195"/><stop offset=".34" stop-color="#A5A7A9"/><stop offset=".5" stop-color="#ADAFB1"/><stop offset=".76" stop-color="#A1A3A5"/><stop offset="1" stop-color="#939496"/></linearGradient><radialGradient id="bymnpaydz" cx="0" cy="0" r="1" gradientUnits="userSpaceOnUse" gradientTransform="matrix(4.6935 0 0 4.69559 7.62 8.94)"><stop offset=".33" stop-color="#95C73E"/><stop offset=".56" stop-color="#8DBE3E"/><stop offset=".75" stop-color="#81AF3E"/><stop offset=".92" stop-color="#6F9A3D"/><stop offset="1" stop-color="#648D3D"/></radialGradient><radialGradient id="cymnpaydz" cx="0" cy="0" r="1" gradientUnits="userSpaceOnUse" gradientTransform="matrix(4.66046 0 0 4.66253 7.4 9.01)"><stop stop-color="#97CA3E"/><stop offset=".33" stop-color="#95C73E"/><stop offset=".56" stop-color="#8DBE3E"/><stop offset=".75" stop-color="#81AF3E"/><stop offset=".92" stop-color="#6F9A3D"/><stop offset="1" stop-color="#648D3D"/></radialGradient><linearGradient id="dymnpaydz" x1="10.79" y1="7.49" x2="14.44" y2="9.38" gradientUnits="userSpaceOnUse"><stop stop-color="#C8CACC"/><stop offset="1" stop-color="#7A797D"/></linearGradient></defs></svg>