<!-- by TradingView --><svg width="18" height="18" xmlns="http://www.w3.org/2000/svg"><path fill="#F0F3FA" d="M0 0h18v18H0z"/><path d="M8.947 9.9c1.424 1.742 3.63 2.94 6.053 3.1v-.667a7.925 7.925 0 01-5.652-3l-.326-.446a7.05 7.05 0 01-.556-.957L8.2 7.295A7.584 7.584 0 017.765 5h-.706C6.964 7.26 5.293 9.067 3 9.333V10c2.022-.213 3.72-1.553 4.412-3.333.105.446.177.846.353 1.263l.266.548c.17.325.379.704.59 1l.326.423z" fill="#F27121"/><path d="M9.838 8.522c1.129 1.61 3.045 2.808 5.162 2.978v-.667c-2.047-.18-3.828-1.321-4.836-2.942l-.326-.601c-.331-.699-.45-1.48-.485-2.29h-.706c-.035.81-.159 1.582-.49 2.28-.1.214-.21.417-.336.616C6.813 9.516 5.047 10.65 3 10.833v.667c2.117-.17 4.028-1.368 5.157-2.978.12-.17.231-.35.336-.53.236-.417.367-.86.507-1.325.14.465.276.928.512 1.345l.326.51z" fill="#D0202A"/><path d="M10.941 5h-.706a7.345 7.345 0 01-.705 2.93c-.166.35-.314.69-.53 1.005-.105.155-.216.31-.331.456-1.33 1.683-3.361 2.777-5.669 2.942V13c2.428-.16 4.645-1.364 6.07-3.105a7.22 7.22 0 00.33-.437c.211-.296.394-.584.564-.905.096-.184.186-.433.271-.622.176-.418.295-.92.353-1.264.693 1.78 2.39 3.12 4.412 3.333v-.667C12.702 9.067 11.037 7.27 10.941 5z" fill="#58595B"/></svg>