<!-- by TradingView --><svg xmlns="http://www.w3.org/2000/svg" width="18" height="18" viewBox="0 0 18 18"><path fill="url(#agypab0gv)" d="M0 0h18v18H0z"/><path d="M5.98 9.4s.58-.36.91-.49a2.43 2.43 0 0 1 1.76-2.15 3.4 3.4 0 0 1 3.27.58c.35-.05 1.03-.3.94-.83a3.17 3.17 0 0 0-.8-.9 3.7 3.7 0 0 0-5.48 1.04c-.43.7-.7 1.64-.6 2.75Zm7.33-1.47c-.04.68-.67.97-1.25 1.1-1.67.39-3.29.85-4.89 1.43-.7.26-1.36.6-1.93 1.1a2.93 2.93 0 0 0-1 1.43c-.35-.5-.57-1.83 1.3-3.14 1.8-1.25 3.9-1.78 5.98-2.31l.32-.08c.47-.13 1.16-.32 1.05-.94.3.5.44 1 .42 1.41Zm-5.97 2.58-.98.46a3.94 3.94 0 0 0 3.36 2.33c2.38-.04 3.56-2.13 3.78-3.53 0-.05-.07-.07-.09-.02-.55 1.18-1.76 1.91-3.36 1.91a3.76 3.76 0 0 1-2.71-1.15Z" fill="#fff"/><defs><linearGradient id="agypab0gv" x1="16.39" y1="6.43" x2="3.21" y2="13.5" gradientUnits="userSpaceOnUse"><stop stop-color="#D10D5C"/><stop offset="1" stop-color="#8F109C"/></linearGradient></defs></svg>