<!-- by TradingView --><svg width="18" height="18" viewBox="0 0 18 18" xmlns="http://www.w3.org/2000/svg"><path fill="#323243" d="M0 0h18v18H0z"/><path d="M14.6 7.48A2.96 2.96 0 0 0 12 6a2.9 2.9 0 0 0-2.33 1.12l-2.55 2.89a4.1 4.1 0 0 1-.38.34c-.22.14-.48.22-.75.21a1.34 1.34 0 0 1-1.05-.44 1.6 1.6 0 0 1-.4-1.13 1.6 1.6 0 0 1 .4-1.12A1.38 1.38 0 0 1 6 7.42a1.3 1.3 0 0 1 .92.34l.94-1.05A2.7 2.7 0 0 0 5.98 6 2.93 2.93 0 0 0 3.4 7.47a3.06 3.06 0 0 0 1.08 4.13 2.9 2.9 0 0 0 3.38-.33l1.3-1.4 1.75-1.9.01-.02.06-.07a1.42 1.42 0 0 1 2.03-.02l.03.03c.27.3.42.7.41 1.12a1.59 1.59 0 0 1-.4 1.1 1.38 1.38 0 0 1-1.55.36c-.27-.1-.5-.29-.66-.53a1.5 1.5 0 0 1-.26-.81l-1.2 1.28.05.1A2.88 2.88 0 0 0 12 12a2.95 2.95 0 0 0 3-3c0-.54-.14-1.07-.4-1.52Z" fill="#16CA94"/></svg>