<!-- by TradingView --><svg width="18" height="18" viewBox="0 0 18 18" xmlns="http://www.w3.org/2000/svg"><path fill="#F0F3FA" d="M0 0h18v18H0z"/><path d="M2.62 6.67v2H6v.66H2.62v2H6V12H2V6h4v.67H2.62ZM7.23 6h-.9l2.2 6h.95l2.2-6h-.9L9 11.14 7.23 6ZM13.77 12a2.02 2.02 0 0 0 2.06-1.34h-.77a1.4 1.4 0 0 1-1.29.67c-.88-.02-1.4-.58-1.51-1.34H15.99l.01-.33c0-1.3-.86-2.34-2.23-2.34-1.36 0-2.22 1.05-2.22 2.34 0 1.3.76 2.31 2.22 2.34Zm1.52-2.67h-3.03c.13-.77.69-1.34 1.51-1.34.83 0 1.4.57 1.52 1.34Z" fill="#7DB5E1"/></svg>