<!-- by TradingView --><svg xmlns="http://www.w3.org/2000/svg" width="18" height="18" viewBox="0 0 18 18"><path fill="#F0F3FA" d="M0 0h18v18H0z"/><path d="M9.04 6.1l-.85 3.17-.04.07a.1.1 0 0 1-.07.02.1.1 0 0 1-.06-.02.13.13 0 0 1-.04-.06l-.87-3.2a.13.13 0 0 0-.04-.06A.1.1 0 0 0 7 6H3.1a.1.1 0 0 0-.08.04.15.15 0 0 0-.03.1v4.73c0 .03.01.07.03.1a.1.1 0 0 0 .08.03h2.78a.1.1 0 0 0 .08-.04.15.15 0 0 0 .03-.1v-.73a.15.15 0 0 0-.03-.09.1.1 0 0 0-.08-.04H4.11C4.06 10 4 9.94 4 9.87v-.74c0-.07.02-.13.1-.13h1.46c.06 0 .1-.07.1-.13v-.75c0-.06-.03-.13-.1-.13L4.1 8c-.05 0-.1-.07-.1-.14L4 7.12c0-.07.06-.13.11-.13h2.17a.1.1 0 0 1 .06.02l.04.07 1.16 3.83c0 .03.02.05.04.07a.1.1 0 0 0 .06.02h.83a.1.1 0 0 0 .06-.02.13.13 0 0 0 .04-.07l1.42-4.73a.16.16 0 0 0 0-.12.12.12 0 0 0-.05-.04A.1.1 0 0 0 9.9 6h-.75a.1.1 0 0 0-.06.03.13.13 0 0 0-.04.06z" fill="#072A3D"/><path d="M10.18 12a.12.12 0 0 1 .06-.05.1.1 0 0 1 .09 0 1.43 1.43 0 0 0 .75.2c.18.02.36-.05.5-.18a.8.8 0 0 0 .18-.56v-.07a.12.12 0 0 0-.05-.04.1.1 0 0 0-.11 0c-.2.1-.4.16-.62.15-.2 0-.4-.04-.58-.12a1.2 1.2 0 0 1-.44-.34 1.55 1.55 0 0 1-.27-.5c-.07-.22-.1-.44-.1-.66 0-.26.04-.51.13-.75a1.57 1.57 0 0 1 .92-.95c.23-.09.48-.13.72-.13s.49.02.73.07c.13.03.5.07.5.26v3.01c0 .56-.03 1-.3 1.26-.28.27-.67.4-1.15.4-.24 0-.49-.03-.72-.09a1.74 1.74 0 0 1-.47-.2.13.13 0 0 1-.05-.08v-.1l.28-.52zm1.6-2.97c0-.03-.01-.06-.03-.08a.12.12 0 0 0-.06-.05 1.08 1.08 0 0 0-.34-.04.75.75 0 0 0-.6.28.84.84 0 0 0-.16.3c-.03.11-.05.23-.05.35 0 .21.05.42.16.6.06.06.13.12.21.16.09.04.17.05.26.05a.6.6 0 0 0 .45-.16.68.68 0 0 0 .16-.49v-.92zM12.84 9.73a1.76 1.76 0 0 1 .49-1.23c.15-.15.34-.28.55-.37.23-.09.47-.13.71-.13a1.66 1.66 0 0 1 1.62 1.05c.09.22.13.45.13.68a1.76 1.76 0 0 1-.49 1.22 1.7 1.7 0 0 1-1.26.51 1.8 1.8 0 0 1-1.26-.51 1.7 1.7 0 0 1-.5-1.22zm1.75.87a.74.74 0 0 0 .59-.27.84.84 0 0 0 .14-.28 1.07 1.07 0 0 0 0-.64.75.75 0 0 0-.4-.47.74.74 0 0 0-.33-.08.77.77 0 0 0-.33.08.7.7 0 0 0-.25.19.88.88 0 0 0-.15.28 1 1 0 0 0 .15.92c.06.08.15.15.25.2.1.04.22.07.33.07z" fill="#31647E"/></svg>