<!-- by TradingView --><svg xmlns="http://www.w3.org/2000/svg" width="18" height="18" viewBox="0 0 18 18"><path fill="#F0F3FA" d="M0 0h18v18H0z"/><path fill-rule="evenodd" d="M7.05 6a.72.72 0 0 0-.67.44c.02-.06.13-.18.63-.18s.95.4.99.6V8H2l.7.57h.52l.58.57h-.37l.6.57h.46l.57.58h-.34l.57.57h.37l.75.67h-.2l.55.47h.66a1 1 0 0 0 1-1v-.01c0-.09.07-.13.16-.13h.86c.1 0 .15.04.15.13V11a1 1 0 0 0 1 1h.61l.56-.47h-.21l.63-.67h.39l.65-.57h-.35l.6-.58h.46l.66-.57h-.4l.64-.57h.46L16 8h-5.74c-.4-.2-.4-.73-.38-.97.07-.07.17-.26.17-.54 0-.45-.64-.49-1.1-.49h-1.9zm2.88 2H9.3v-.69C9.3 7.14 9.18 7 9 7s-.3.14-.3.31V8h-.57l-.16.12.18.13c.17.13.27.32.27.53v.07a.58.58 0 0 0 1.16 0v-.08c0-.18.08-.35.2-.48l.19-.17L9.93 8zM9.3 6.57c0 .16-.13.29-.29.29a.29.29 0 0 1-.3-.29c0-.16.14-.28.3-.28.16 0 .3.12.3.28z" fill="#004098"/></svg>