<!-- by TradingView --><svg width="18" height="18" viewBox="0 0 18 18" xmlns="http://www.w3.org/2000/svg"><path fill="#F0F3FA" d="M0 0h18v18H0z"/><path d="M15 9.47c0 .07.01.1 0 .14l-.28 2.31c-.02.2-.11.4-.17.6-.12.35-.37.57-.7.73A.86.86 0 0 1 12.8 13c-.23-.3-.3-.64-.37-1-.13-.84-.11-1.7-.13-2.53-.02-.58-.02-1.17-.13-1.75l-.04-.14-.04-.1-.06.17c-.17.54-.2 1.1-.21 1.65l-.04 2.11c-.02.55-.06 1.1-.29 1.6a2 2 0 0 1-.55.75c-.5.37-1.16.31-1.56-.14-.3-.33-.42-.75-.44-1.17-.02-.6.02-1.18.03-1.78.04-1.2.06-2.4-.03-3.6-.02-.28-.08-.53-.14-.8-.02-.06-.08-.11-.11-.15-.04.04-.12.07-.14.13-.08.25-.17.53-.2.8-.14 1-.24 2.02-.36 3.04a10.4 10.4 0 0 1-.4 2.3c-.1.32-.23.6-.44.86-.33.4-.73.6-1.27.53-.37-.06-.6-.3-.75-.6-.25-.47-.37-1-.37-1.53-.01-.76.02-1.53.02-2.3 0-.68 0-1.36-.15-2.03a1.09 1.09 0 0 0-.13-.34l-.04-.02c-.08.07-.16.14-.21.22-.2.27-.25.6-.33.9-.06.26-.08.52-.14.77-.05.27-.11.56-.2.84-.06.14-.06.32-.24.43l-.13.06c0-.04-.04-.1-.02-.13 0-.27.04-.55.06-.8H3.2c-.04.16-.08.33-.14.47h-.04l-.01-.25a6.08 6.08 0 0 1 .23-2.28c.1-.27.2-.5.4-.72.33-.37.8-.51 1.23-.35.25.1.42.27.54.47.23.37.33.77.38 1.19.14.96.1 1.92.02 2.89-.04.54-.06 1.1-.07 1.65 0 .13.03.26.1.37.09.25.34.29.53.07.21-.24.29-.53.36-.82.16-.62.2-1.25.25-1.89l.25-3.2c.04-.37.14-.73.27-1.07.31-.79 1.06-.93 1.77-.64.23.09.39.27.46.5.1.34.21.68.25 1 .16 1.2.14 2.37.1 3.56L10 12c0 .23.04.47.08.7.02.06.1.15.15.15a.3.3 0 0 0 .2-.1c.2-.3.28-.63.3-.97.06-.67.1-1.37.14-2.04.06-.74.1-1.47.17-2.22.02-.23.1-.47.21-.69.31-.64 1.08-.73 1.6-.22.25.26.36.58.44.91.15.66.15 1.33.13 2 0 .57-.03 1.13-.03 1.7 0 .34.03.7.07 1.05 0 .07.08.15.12.22.07-.06.17-.1.19-.15l.44-.87c.21-.47.3-.98.43-1.5.03-.12.07-.27.15-.4 0 0 .1-.03.2-.1Z" fill="#4E5050"/><circle cx="11.75" cy="4.75" r=".75" fill="#C14835"/></svg>