<!-- by TradingView --><svg width="18" height="18" xmlns="http://www.w3.org/2000/svg"><path fill="#234695" d="M0 0h18v18H0z"/><path d="M6.657 11H4.39V9.13h1.312l-.401-.695h-.91V7H7V6H3v6h4.265l-.608-1z" fill="#fff"/><path d="M9.627 14l3.012-5.565h-1.466l-1.967 3.66-1.914-3.66H5.71L8.731 14h.896z" fill="#fff"/><path d="M12.268 6C10.18 6 8.684 7.205 8.684 8.929c0 .793.247 1.474.747 1.981l.79-1.475a2.816 2.816 0 01-.045-.504c0-1.214.74-2.056 2.089-2.056 1.35 0 2.088.729 2.088 2.056 0 1.26-.935 2.055-2.088 2.055-.18.001-.36-.015-.539-.046l-.462.837c.332.055.668.081 1.004.08 1.981 0 3.58-.986 3.58-2.928 0-1.941-1.497-2.927-3.58-2.927z" fill="#fff"/></svg>