<!-- by TradingView --><svg width="18" height="18" viewBox="0 0 18 18" xmlns="http://www.w3.org/2000/svg"><path fill="#F0F3FA" d="M0 0h18v18H0z"/><ellipse cx="9" cy="9" rx="6" ry="5" fill="#01295D"/><path fill-rule="evenodd" d="M9 13.5c3.04 0 5.5-2.01 5.5-4.5S12.04 4.5 9 4.5 3.5 6.51 3.5 9s2.46 4.5 5.5 4.5Zm0-.3c2.88 0 5.21-1.88 5.21-4.2 0-2.32-2.33-4.2-5.21-4.2S3.79 6.68 3.79 9c0 2.32 2.33 4.2 5.21 4.2Z" fill="url(#amezdca4l)"/><path opacity=".3" d="M12.98 12.2C8.95 8.43 5.5 6.87 4.3 6.57c.1.03 1.22-2.18 4.52-2.18 3.82.03 5.65 2.5 5.65 4.6 0 1.68-1 2.83-1.5 3.2Z" fill="url(#bmezdca4l)"/><path d="M6.52 6a.51.51 0 0 0-.52.5c0 .28.23.5.52.5h4.96c.29 0 .52-.22.52-.5s-.23-.5-.52-.5H6.52ZM7 9c0-.28.18-.5.4-.5h3.2c.22 0 .4.22.4.5s-.18.5-.4.5H7.4c-.22 0-.4-.22-.4-.5Zm-1 2.5c0-.28.23-.5.52-.5h4.96c.29 0 .52.22.52.5s-.23.5-.52.5H6.52a.51.51 0 0 1-.52-.5Z" fill="#FEFDFF"/><defs><linearGradient id="amezdca4l" x1="3.5" y1="9.43" x2="14.5" y2="9.04" gradientUnits="userSpaceOnUse"><stop stop-color="#DBDBDB"/><stop offset=".23" stop-color="#938086"/><stop offset=".49" stop-color="#F8FCFB"/><stop offset=".76" stop-color="#A4A3A9"/><stop offset="1" stop-color="#E3E4DE"/></linearGradient><linearGradient id="bmezdca4l" x1="4.9" y1="6.38" x2="13.41" y2="10.38" gradientUnits="userSpaceOnUse"><stop stop-color="#0A2F63" stop-opacity="0"/><stop offset=".48" stop-color="#fff"/><stop offset="1" stop-color="#01295D" stop-opacity="0"/></linearGradient></defs></svg>