<!-- by TradingView --><svg xmlns="http://www.w3.org/2000/svg" width="18" height="18" viewBox="0 0 18 18"><path fill="url(#ahp4tjpja)" d="M0 0h18v18H0z"/><path d="M9.3 13.27c-.4.55-.94.92-1.67.83.04-.04.15-.1.25-.16l.17-.1c.42-.26.75-.58 1.06-1 .43-.6.54-.92.68-1.34l.13-.36c-.03-.3-.07-.54-.13-.67l-.01-.03-.01-.02h-.01c-.24 0-.47.08-.7.17-.2.07-.39.15-.6.18-.52.08-.81 0-1.2-.13l-.18-.05.45-.03c.63-.03 1.3-.06 1.74-.38l-.41.09-.32.07c-.64.1-1.94.15-2.2-.43l.97.06a9.55 9.55 0 0 0 1.76-.18l.01-.02-1.15.05c-.9.02-2.71-.13-2.76-1.06.13.02.25.06.38.1.14.05.3.1.45.13.77.16 2.07.29 2.82.24-1.56-.1-4.82-.57-4.48-2.39.05.03.1.07.15.13.11.12.28.3.65.51.78.45 2.6.9 3.4.86-1.33-.33-3.42-.86-4.23-2.03-.34-.49-.43-1.26-.11-1.57.33.72.86 1.2 1.5 1.59.47.29 1.6.8 2.2.86C6.5 6.7 3.46 5.3 4.53 3.3A.8.8 0 0 1 4.76 3c0 1.33 1.32 2.47 2.1 2.95.4.25.79.4 1.21.58a25.65 25.65 0 0 1 2.14 1.03c.63.38.91.6 1.25 1.28.66 1.33.3 2.7-.7 3.66-.12.1-.28.27-.46.44-.3.3-.63.65-.8.78.32-.4.44-1.32.44-2.1a4.8 4.8 0 0 1-.06.27c-.03 1.22-.75 3.3-2.37 3.1.04-.05.15-.11.26-.17l.16-.09c.42-.27.75-.59 1.06-1 .13-.18.22-.32.3-.46Zm3.57-4.2c-.18.2-.63.71-.72.42-.06-.46.15-.76.45-.86l-.03-.03h-.01l-.02-.01c-.05-.04-.09-.05-.12-.06a.24.24 0 0 1-.1-.05.26.26 0 0 1-.07-.16c.08-.23.3-.2.53-.14-.7-.83-1.32-.44-1.78-.07.46-.53 1.34-.84 2.02-.14.24.33.55.4.87.46.2.04.42.09.61.2-.31 0-1.3.1-1.58.4-.02 0-.03.02-.05.04Z" fill="#fff"/><defs><linearGradient id="ahp4tjpja" x1="3.35" y1="3.12" x2="21.9" y2="24.43" gradientUnits="userSpaceOnUse"><stop stop-color="#1A1E21"/><stop offset="1" stop-color="#06060A"/></linearGradient></defs></svg>