<!-- by TradingView --><svg width="18" height="18" viewBox="0 0 18 18" xmlns="http://www.w3.org/2000/svg"><path fill="#F0F3FA" d="M0 0h18v18H0z"/><path d="M11 9a3.95 3.95 0 0 1-2.52 3.7 4.15 4.15 0 0 1-4.44-.87L6.87 9H11Z" fill="#FF6370"/><path d="M4.17 11.96a4.1 4.1 0 0 1-.87-4.44A4.06 4.06 0 0 1 7 5v4.08l-2.83 2.88Z" fill="#BC9F5D"/><path d="M4.17 11.96A4.1 4.1 0 0 1 7 5v4.1l-2.83 2.86Zm2.76-2.89v-4a3.88 3.88 0 0 0-3.56 2.47 4.07 4.07 0 0 0 .8 4.31l2.76-2.78Z"/><path fill-rule="evenodd" d="M15.94 8.1h-4.88v.8h4.88v-.8ZM11 8v1h5V8h-5Z"/><path d="M11 7.67h5v.66h-5v-.66Z" fill="#FF6370"/><path d="M11 7h5v.73h-5V7Z" fill="#BC9F5D"/><path opacity=".5" d="M7 6h2v1H7z"/><path opacity=".5" fill="#FF6370" d="M9 7h2v1H9z"/></svg>