<!-- by TradingView --><svg width="18" height="18" viewBox="0 0 18 18" xmlns="http://www.w3.org/2000/svg"><path fill="#F0F3FA" d="M0 0h18v18H0z"/><path d="M11.85 4.67H9V5h2.85v-.33Z" fill="#5BB9BF"/><path d="M9.04 4.67H6.88V5h2.16v-.33Z" fill="#0C3247"/><path d="M7 6a1 1 0 1 0 0-2 1 1 0 0 0 0 2Z" fill="#0C3247"/><path d="M11 6a1 1 0 1 0 0-2 1 1 0 0 0 0 2ZM14.3 8.67H9V9h5.3v-.33Z" fill="#5BB9BF"/><path d="M9 8.67H4.06V9H9v-.33Z" fill="#0C3247"/><path d="M4 10a1 1 0 1 0 0-2 1 1 0 0 0 0 2Z" fill="#0C3247"/><path d="M14 10a1 1 0 1 0 0-2 1 1 0 0 0 0 2ZM13.71 6.67H9V7h4.71v-.33Z" fill="#5BB9BF"/><path d="M9 6.67H4.91V7h4.1v-.33Z" fill="#0C3247"/><path d="M5 8a1 1 0 1 0 0-2 1 1 0 0 0 0 2Z" fill="#0C3247"/><path d="M13 8a1 1 0 1 0 0-2 1 1 0 0 0 0 2ZM11.82 13H9v.33h2.82V13Z" fill="#5BB9BF"/><path d="M9 13H6.88v.33H9V13Z" fill="#0C3247"/><path d="M7 14a1 1 0 1 0 0-2 1 1 0 0 0 0 2Z" fill="#0C3247"/><path d="M11 14a1 1 0 1 0 0-2 1 1 0 0 0 0 2ZM13.59 11H9v.33h4.59V11Z" fill="#5BB9BF"/><path d="M9 11H4.76v.33H9V11Z" fill="#0C3247"/><path d="M5 12a1 1 0 1 0 0-2 1 1 0 0 0 0 2Z" fill="#0C3247"/><path d="M13 12a1 1 0 1 0 0-2 1 1 0 0 0 0 2Z" fill="#5BB9BF"/></svg>