<!-- by TradingView --><svg xmlns="http://www.w3.org/2000/svg" width="18" height="18" viewBox="0 0 18 18"><path fill="#F0F3FA" d="M0 0h18v18H0z"/><path d="M13.6 11a4.95 4.95 0 0 1-6.49 2.6l1.63-3.85h2.66a1 1 0 1 0-.02-.5H8.74l-1.1-2.5.54-.25-.7-1.5-1.5.69.7 1.5.5-.24L8.3 9.5l-1.64 3.89h-.01l-.03-.02-.02-.02a3 3 0 0 1-.14-.08l-.12-.07a2.37 2.37 0 0 1-.18-.12 4.4 4.4 0 0 1-.28-.21l-.13-.1-.02-.03a3.09 3.09 0 0 1-.31-.3 4.98 4.98 0 0 1-.68-.87v-.01a4.26 4.26 0 0 1-.16-.28l-.02-.03a3.67 3.67 0 0 1-.19-.41c0-.03-.02-.05-.03-.08a1.9 1.9 0 0 1-.05-.15 2.13 2.13 0 0 1-.04-.12l-.02-.07-.03-.08a1.53 1.53 0 0 1-.05-.2v-.02a3.83 3.83 0 0 1-.11-.58l-.01-.07V9.4A2.05 2.05 0 0 1 4 9.12v-.18a4.95 4.95 0 0 1 6.95-4.52A5.05 5.05 0 0 1 13.6 11zm-1.23-.94a.6.6 0 1 0 0-1.21.6.6 0 0 0 0 1.2z" fill="#F60"/></svg>