<!-- by TradingView --><svg width="18" height="18" viewBox="0 0 18 18" xmlns="http://www.w3.org/2000/svg"><path fill="#F0F3FA" d="M0 0h18v18H0z"/><path d="m5 12.98.02.02c.32-.18.3-.37.96-.49.4-.07.99-.04 1.42-.03.45 0 .96.12 1.21-.2.18-.23.37-.7.48-1.04.17.08.66.59.88.73l.03-.03c-.5-.89-1.27-1.35-1.5-1.89-.19-.4.07-.65-.04-1.05l-.01.02c-.04.2-.59.53-.4 1.07.11.36.48.59.7.83-.03.19-.3.92-.39 1.09-.12.26-.12.28-.43.3l-.68.04c-.45.01-.92 0-1.34.1-.51.1-.63.24-.91.53Z" fill="#EF7D01"/><path d="M14 14.28c-.36-.05-.32.34-.73.44-.33.08-.79.09-1.05-.07-.25-.14-.22-.5-.34-.82-.12-.33-.34-.52-.43-.75.16.1.48.3.63.02.2-.37-.5-1.23-.76-1.5l-.23-.22.4.5a5 5 0 0 1 .37.54c.1.16.3.49.14.69-.16.19-.5-.13-.67-.16.02.16.35.56.44.8.12.29.14.7.34.9.26.23 1.14.29 1.48-.02.1-.1.19-.29.35-.3-.04.18-.33.4-.52.49-.24.1-.67.11-.95.08-.88-.09-.58-.55-.87-1.16-.14-.3-.4-.6-.58-.92-.08-.13-.14-.2-.09-.39.18-.54-.47-.66-.6-.84-.38-.54.19-.44.4-.57-.84-.1-.88.25-.5.75.18.25.15.1.4.22.12.06.22.23.15.4-.08.22 0 .24.11.42.5.72.6.73.81 1.58.08.34.23.55.61.59.34.03.81.04 1.1-.08.23-.1.61-.36.59-.62Z" fill="#605F5F"/><path d="m10 9.63.3.18c.08.05.21.16.28.19.08-.28.06-.5.11-.77.2-.98.42-1.02.25-2.23-.01.31 0 .5-.08.8-.06.25-.13.46-.2.7-.25.92-.06 1.07-.66 1.13ZM4.28 12.98c-.09-.04-.17-.02-.2-.14a.5.5 0 0 1 .06-.29c.15-.38.4-.42.57-.78.07-.17.09-.38.26-.46.28.02.17.28.66.2.25-.05.47-.14.7-.2.64-.19 1-.13 1.67-.1-.13-.13-.52-.2-.69-.2-.27-.02-.56 0-.8.07-.37.1-.98.62-1.28.3-.45-.5-.52.29-.83.63-.14.15-.26.25-.36.5-.08.23-.06.57.24.47ZM9 8c0-.24-.2-.5-.39-.64L8 7c.16.2.23.43.42.6.21.19.43.14.58.4ZM12.61 5.15c-.06.04-.05.02-.1.13.03-.01.04 0 .07-.02.1-.07.02 0 .07-.08.18-.22.3-.45.34-.75l.01-.26c-.12-.04-.16-.05-.24.03-.04.03-.05.06-.1.08-.1.04 0-.1-.08.01-.32.4-.08.44-.44.85-.2.22-.43.36-.7.56-.17.12-.2.17-.33.3l-.73.56c-.04.01-.4.14-.48.11-.09-.29.26-.33.42-.46 0-.1-.04-.46.05-.6.01-.04 0 .01.05-.08-.07-.27-.2-.1-.25-.5-.08-.7-.77-.83-1.28-.55-.25.14-.49.66-.31 1.1.14.37.57.56.27.99-.23.02-.36-.15-.6-.21-.57-.15-.52-.29-1-.65-.21-.15-.29-.15-.46-.36-.4-.5-.54-.55-.8-.86-.11-.12-.33-.32-.35-.5-.02-.15.02-.24-.01-.41-.04-.21-.03-.2-.02-.41l-.14.06c-.08-.18-.19-.25-.36-.22-.02.06 0 .03-.01.07-.06.23-.1.07-.05.25l-.02.04-.01.02L5 3.4c.02.17.11.17.15.36.04.19 0 .28.1.43 0-.2-.17-.93.2-.8.06.36-.27.36.34 1.16.22.29.51.5.74.78.37.46.36.35.8.7.36.3.45.36.96.55.13.05.44.17.6.08.13-.09.15-.43.08-.62-.14-.4-.44-.66-.21-1.21.2-.46 1.22-.6 1.36.14.1.55.2.26.25.55-.17.1-.03-.05-.14.03l.07.15c-.06.1-.1.09-.07.21.02.14.05.1.03.26-.13.12-.4.17-.4.39 0 .18.27.39.36.43.14-.09.2-.16.31-.27.24-.22.34-.26.66-.58.1-.11.17-.2.32-.3 1.11-.74.81-1.15 1.12-1.36.08.07.14.2.13.34-.02.14-.1.24-.15.32Z" fill="#EF7D01"/></svg>