<!-- by TradingView --><svg width="18" height="18" viewBox="0 0 18 18" xmlns="http://www.w3.org/2000/svg"><path fill="#FF5C56" d="M0 0h18v18H0z"/><path d="M15.48 9a4 4 0 1 1-8 0 4 4 0 0 1 8 0Z" fill="#00474A"/><path d="m11.61 7.83.9 1.3-.98 1.45h.96l.51-.76.5.74v.01h.98l-1-1.46.9-1.28h-.97l-.4.61-.42-.61h-.98ZM8.48 9.23c0 .8.66 1.35 1.57 1.35.7 0 1.24-.4 1.43-.95h-.82c-.08.2-.36.33-.6.33-.34 0-.63-.19-.63-.48h2.09c.08-.78-.46-1.65-1.46-1.65.01 0 0 0 0 0-.9 0-1.58.65-1.58 1.4Zm1.54-.77c.29 0 .52.22.54.47H9.43c.03-.25.31-.47.6-.47ZM10.15 7l-.49.58h.6l.81-.58h-.92Z" fill="#FF5C56"/><path d="M4.67 7c-1.14 0-1.79 1.1-1.8 2.16 0 1.1.63 2.1 1.8 2.1.54 0 1.03-.26 1.33-.67v1.22c-.04.39-.57.69-1.2.69-.52 0-1.23-.24-1.25-.85h-.51c0 .75.8 1.35 1.75 1.35.97 0 1.75-.6 1.76-1.35V7H6v.64C5.7 7.24 5.21 7 4.67 7Zm.07.47c.97 0 1.37.89 1.37 1.73 0 .44-.1.82-.26 1.01a1.3 1.3 0 0 1-1.11.62c-.93 0-1.38-.85-1.38-1.67 0-.83.43-1.69 1.38-1.69Z" fill="#00474A"/></svg>