<!-- by TradingView --><svg width="18" height="18" viewBox="0 0 18 18" xmlns="http://www.w3.org/2000/svg"><path fill="#F0F3FA" d="M0 0h18v18H0z"/><path fill-rule="evenodd" d="M13.77 10.41c-.18-.36-.65-.45-1-.25-.5.3-1.05.52-1.57.72l-.05.02v-.02c-.01-.49.2-1.67.34-2.47.05-.27.1-.5.11-.64v-.12c0-.37-.27-.68-.62-.68a.64.64 0 0 0-.57.41c-.07.17-.11.36-.16.55-.06.24-.12.49-.21.69a2.5 2.5 0 0 1-2.27 1.5 1.52 1.52 0 0 1-1.34-.87c-.47-.98-.18-2.24.42-3.06.48-.65 1.2-1.02 1.98-.87.33.07.54.28.73.47l.2.18c.1.08.24.14.38.14.35 0 .63-.3.63-.69a.68.68 0 0 0-.15-.44 2.94 2.94 0 0 0-3.38-.72c-1.47.67-2.33 2.41-2.23 4.1.07 1.16.65 2.31 1.66 2.8 1.07.5 2.41.2 3.3-.46l-.04.75c-.92.53-1.41 1.2-1.4 2.13.02.58.4 1.14.88 1.33.52.2 1.11.04 1.5-.34.57-.55.46-1.32.34-2.12l-.02-.18.45-.2c.6-.25 1.27-.53 1.9-.9a.57.57 0 0 0 .19-.76Zm-3.95 3.23c.09.05.17.05.25 0 .14-.18.09-.43.05-.63l-.03-.12c-.14.12-.24.3-.31.46v.01c-.03.09-.06.22.04.28Z" fill="#E70012"/></svg>