<!-- by TradingView --><svg width="18" height="18" viewBox="0 0 18 18" xmlns="http://www.w3.org/2000/svg"><path fill="url(#a)" d="M0 0h18v18H0z"/><path d="M6 6.5C6 5.67 6.67 5 7.5 5H9v3H7.5A1.5 1.5 0 0 1 6 6.5Z" fill="#F24E1E"/><path d="M12 6.5c0-.83-.67-1.5-1.5-1.5H9v3h1.5c.83 0 1.5-.67 1.5-1.5Z" fill="#FF7262"/><path d="M12 9.5a1.5 1.5 0 1 0-3 0 1.5 1.5 0 0 0 3 0Z" fill="#1ABCFE"/><path d="M6 9.5C6 8.67 6.67 8 7.5 8H9v3H7.5A1.5 1.5 0 0 1 6 9.5Z" fill="#A259FF"/><path d="M6 12.5c0-.83.67-1.5 1.5-1.5H9v1.5a1.5 1.5 0 0 1-3 0Z" fill="#0ACF83"/><defs><linearGradient id="a" x1="3.35" y1="3.12" x2="21.9" y2="24.43" gradientUnits="userSpaceOnUse"><stop stop-color="#1A1E21"/><stop offset="1" stop-color="#06060A"/></linearGradient></defs></svg>