<!-- by TradingView --><svg width="18" height="18" viewBox="0 0 18 18" xmlns="http://www.w3.org/2000/svg"><path fill="#012E65" d="M0 0h18v18H0z"/><path fill-rule="evenodd" d="M6.29 5C5.58 5 5 5.58 5 6.29V9.5h1V11h.5V9.5H9V11h2a1 1 0 0 0 .5-1.86.95.95 0 0 0-.65-1.64H6.51c-.28 0-.51.25-.51.56V9h-.5V6.16c0-.36.3-.66.66-.66h5.68c.36 0 .66.3.66.66v5.68c0 .36-.3.66-.66.66H5v.5h6.71c.71 0 1.29-.58 1.29-1.29V6.3C13 5.58 12.42 5 11.71 5H6.3ZM9 8H6.76c-.15 0-.26.13-.26.28V9h4.3a.5.5 0 0 0 0-1H9.5v.47H9V8Zm2 1.52H9.5v.98H11a.5.5 0 0 0 0-.98Z" fill="#FFFCFB"/></svg>