<!-- by TradingView --><svg width="18" height="18" xmlns="http://www.w3.org/2000/svg"><path fill="#03386B" d="M0 0h18v18H0z"/><path d="M13.092 6.34c.02.021.053.015.067.044-.047.061-.136.06-.21.078a.977.977 0 01-.634-.072c.023.065.142.102.096.188-.049.073-.164.04-.231.029-.176-.052-.134-.07-.21-.036-.045.02-.057.06-.089.086-.142.013-.23-.043-.373-.014-.126.026-.176.096-.299.13-.136.038-.23-.007-.361.043-.365.136-.746.82-.61 1.706.008.054-.086.036-.143.036-.439-.103-.737-.507-1.046-.792 0 0 .18-.29.315-.461.362-.461.592-.747 1.135-1.008a2.873 2.873 0 011.711-.26c.312.06.593.19.882.303z" fill="#fff"/><path d="M8.15 6.68c.489.693.984 1.646 1.891 1.914l.068.079c-.057.016-.362.041-.261.152-.036.027-.09.011-.127 0-.032-.061-.047.017-.083.013-.131.026-.144-.09-.186-.165-.039-.018-.261.007-.224-.158-.205.087-.306-.11-.172-.222-.093-.01-.431.012-.33-.181-.166.003-.324-.051-.238-.217-.165-.039-.367 0-.276-.252-.396-.072-.24-.137-.337-.316-.203.022-.306-.176-.284-.288-.292-.066-.275-.03-.374-.245-.242.026-.155-.07-.277-.15-.169-.042-.26-.17-.41-.228-.553.19-1.56.85-2.057 1.155v.094a7.82 7.82 0 00.874-.54l.517-.028c-.296.21-2.982 2.019-3.229 1.663 0-.158 1.54-.93 1.838-1.095V7.57c-.634.32-1.268.788-1.95 1.017-.165.031-.363.13-.523.02.082-.23 3.478-2.085 4.156-2.348 0 0 .329-.164.5-.229.6-.13 1.176.153 1.494.648zM16 8.075c-.172.296-2.868-1.365-3.11-1.505l.337-.133c.823.387 2.246.864 2.773 1.638zm-3.215-1.484c.227.132 2.912 1.715 2.56 1.793-.268.008-.481-.152-.711-.251-.558-.345-1.63-1.13-1.63-1.13.156.247.499.432.748.596.147.098 1.114.74.98.858-.544.215-2.39-1.788-2.363-1.798.028-.01.105-.017.105-.168l.311.1z" fill="#fff"/><path d="M6.828 6.707s-.914.44-1.218.268c.268-.201.78-.371 1.093-.371.065 0 .125.103.125.103zm5.338.014c.43.381 1.353 1.084 1.614 1.52-.414.317-2.25-1.81-1.614-1.52z" fill="#fff"/><path d="M11.695 6.68c.197.206 1.284 1.215 1.284 1.39-.284.1-1.665-1.33-1.284-1.39z" fill="#fff"/><path d="M11.448 6.801c.076.092.837.804.837 1.036 0 .232-.982-.784-1.055-.914.03-.12.08-.145.218-.122zm-4.411.067c-.072.107-.507.276-.896.314-.175-.066.465-.401.824-.388.072.002.072.034.072.074zm.18.154c-.188.219-.514.307-.876.307-.05-.07.675-.398.843-.373.03.005.047.05.033.066zm.287.122c-.09.2-.564.29-.75.29-.026-.03.51-.336.687-.356.042-.005.08.027.063.066zM6.2 7.268c-.27.196-2.52 1.848-2.757 1.52-.058-.08 2.516-1.688 2.757-1.52zm1.555.192c-.029.046-.392.22-.718.111.15-.223.405-.262.615-.242.103.01.127.092.103.13zm-1.333 0c.014.024-1.97 1.391-1.949 1.213.026-.216 1.812-1.448 1.949-1.213zm.496.046c-.04.159-1.512.915-1.57.806-.041-.074 1.645-1.104 1.57-.806zm1.152.195c-.046.065-.458.198-.681.108.097-.252.44-.254.635-.173.018.007.046.033.046.065zm-.786.036c-.1.12-1.454.74-1.307.518.163-.246 1.207-.777 1.307-.518zm.285.246c.022.07-1.084.532-1.176.373.08-.277 1.13-.52 1.176-.373zm.455-.152c.085.082.27.1.382.108-.168.152-.411.286-.651.215-.275-.113.214-.288.269-.323-.026.01 0-.005 0 0zm.36.237l.269.101c-.14.136-.681.252-.705.208-.073-.135.37-.284.436-.309zm-.605.174c-.017.18-.893.352-.995.164.094-.052 1.016-.39.995-.164zm.799.078c.069.001.17-.007.231 0 .057.006.097.1.097.1-.098.058-.636.253-.664.13-.068-.115.259-.231.336-.23zm3.37.052c-.021.133-.175.146-.268.207-.525.22-1.065.397-1.668.433-.083-.008-.208.023-.262-.057.006-.042.097-.08.097-.08s.095-.038.076-.073c-.026-.045.003-.054.067-.078.146-.068.141-.033.112-.122 1.066-.072 1.48-.227 1.696-.261.052.006.117-.017.15.03z" fill="#fff"/><path d="M12.285 8.385c.124.122.018.291.008.433-.028.043-.046-.022-.075-.016-.067-.015-.129.025-.186.052-.592.625-1.967 1.36-1.967 1.36s-.4-.738-.322-1.152c.678.008 1.294-.173 1.877-.41.042.012.103.043.143 0 .022-.133.22-.112.223-.259.085-.035.218-.092.299-.008zm-4.14.072c.012.009-.86.47-1.01.223-.075-.165.804-.359 1.01-.223zm.694.073c.12.068.217.065.352.072-.043.13-.613.28-.651.135.034-.131.299-.207.299-.207zm-.516.122c.165.186-.964.38-.882.23.067-.124.73-.4.882-.23z" fill="#fff"/><path d="M9.377 8.709c.051.008.067.109.067.109s-.395.165-.576.165c-.04-.025-.109-.059-.08-.1.068-.104.47-.193.589-.174zm-.686.217c-.18.09-.977.412-1.114.244.06-.274 1.192-.418 1.114-.244zm.88-.03c.035.02.045.087.045.087-.025-.042.046.05 0 0l.127.08-.672.053s-.056-.035-.076-.06c-.013-.063.505-.2.576-.16zm-.8.072s.082.032.068.065c-.072.162-1.01.464-1.055.331-.03-.086.863-.347.987-.396z" fill="#fff"/><path d="M8.922 9.134l.134.036c-.149.09-1.105.612-1.18.36-.017-.051.94-.36 1.046-.396zm.821-.072c-.079.414.322 1.152.322 1.152s.176.266.27.446l-.577.347c-.137-.116-.22-.489-.366-.549-.162.04-.49.076-.658.073-.186.155-.156.23-.156.23s.585-.97 1.165-1.699zm4.777.417c-.352.4-.767.766-1.256.909.267-.181.449-.503.74-.642l.516-.288v.02zm-6.706 0c-.412.276-1.224.966-1.224.966l-.097-.065-.032-.044s.888-.602 1.353-.857zm-.006.072c-.398.335-.708.709-1.092 1.044l-.097-.1 1.189-.944zm5.957.023c-.291.261-.257.692-.657.87-.043.02-.113.045-.113.045s.275-.559.56-.78c.065-.052.135-.097.21-.135zm-5.906.042l-.979 1.166-.118-.143 1.097-1.023z" fill="#fff"/><path d="M7.956 9.639l-.799 1.187-.217.044 1.016-1.231zm.054.056c.396-.165 1.278-.525 1.278-.525l.455-.108c-.58.73-1.165 1.7-1.165 1.7l-.719.36s-.045.034-.096.036c-.066-.075.148-.354.142-.47-.086.056-.275.186-.42.124.101-.068.214-.14.293-.23-.128 0-.399.377-.54.207.215-.15.295-.39.495-.712.066-.137.12-.316.277-.382zm5.135.102c-.22.208-.227.501-.457.705a1.984 1.984 0 01-.882.454c.43-.086.71-.503.92-.843.117-.139.263-.25.42-.316zm-8.38.79l.149.11c-.5-.126-.94-.452-1.292-.858.042-.015.077.028.119.036.386.14.748.387 1.025.713zm.418.096l.067.07s-.078-.014-.126-.028c-.434-.126-.485-.568-.732-.85L4.4 9.87c.332.166.617.504.783.814z" fill="#fff"/><path d="M11.844 10.862c-.095.033-.172.113-.277.122.34-.358.528-.875 1.024-1.094-.3.303-.35.745-.747.972zm-6.04-.02a.629.629 0 00.441.264c-.652.002-.931-.663-1.323-1.073l.008-.005c.378.131.688.476.874.813zm5.254.236c-.132.059-.259.121-.403.152-.008-.011-.006-.029-.006-.044.469-.11.597-.627.993-.87.087-.073.186-.125.285-.174-.003.278-.61.838-.869.936zm-4.506-.042l.105.085c-.083-.018-.083-.008-.134-.02-.238-.059-.487-.376-.487-.376l-.075-.107s-.261-.306-.396-.447c.435.099.72.539.987.865zm.837.2c.104.04.221.053.328.087l-.022.014c-.423-.067-.855-.189-1.098-.59-.129-.178-.245-.36-.405-.525.522.206.672.835 1.197 1.014zm6.93-.993c-.38.358-.905.406-1.45.389a2.364 2.364 0 00-.374.085c.23-.1.488-.175.74-.251.342-.118.751-.08 1.083-.223zm-5.585.287c-.186.156-.156.231-.156.231l.156-.23zm1.6.13c-.021.057-.512.352-.576.347.214-.128.363-.217.576-.347zm.044.223a.69.69 0 01.234.36s-.028.067-.062.073c-.065 0-.027-.076-.059-.109-.03-.158-.206-.356-.157-.547l.044.223zm-4.76.044c-.469-.149-.951.12-1.407-.093-.09-.044-.183-.084-.269-.145l.008-.006c.548.1 1.176.015 1.668.244z" fill="#fff"/><path d="M13.69 10.818c-.43.284-1.473.037-1.473.037s.127-.044.21-.065c.476-.123.855.053 1.262.028zm-5.575.324l-.256-.02.719-.36-.463.38zm.463-.38l-.337.416-.126-.036.463-.38zm-2.924.23c.066.022.166.065.166.065s-.82.217-1.213.044l-.127-.06c.396.018.74-.191 1.174-.05zm4.329.324l-.225-.309c.214-.128.363-.217.576-.347-.125.25-.351.656-.351.656zm2.826-.202s.15.017.202.028c-.366.15-.845.063-1.213-.036-.22-.036-.686.015-.686.015s.302-.072.5-.093c.48-.051 1.197.086 1.197.086zm-2.445-.036c.022.063.08.139.089.202.011.075-.053.073-.09.028-.06-.148-.181-.52-.029-.648l.03.418zm-.03.253c.021.083-.133.12-.172.05-.006-.014.008-.02.014-.03.104 0 .013-.082-.036-.144-.037.06-.091.053-.157.109 0 0 .286-.665.351-.656-.035.191-.149.493 0 .67zm-3.222-.095l-.485.015c-.366.078-.73.24-1.122.166l-.285-.052v-.013c.38-.027.7-.196 1.092-.194.285-.018.533.051.8.078zm.941-.058c-.143.015-.057.27-.14.311-.032.008-.05-.024-.061-.044l.061-.238c.01-.026.04-.04.067-.05.026.005.06-.01.073.021zm-.178.008c.006.03-.046.261-.067.275-.038 0-.05-.027-.067-.052 0-.086-.012-.175.067-.23.024.007.05-.025.067.007zm4.14.195c.12.042.27.038.39.057-.556.15-1.033-.119-1.562-.215.247-.079.542-.014.791.028l.382.13z" fill="#fff"/><path d="M8.188 11.453c-.017.122-.264.221-.336.093.089-.068.261.063.263-.1-.057-.046-.019.035-.075.05l-.06-.007a.38.38 0 01.12-.288c.175-.07.007.188.088.252zm1.982-.145c-.722.223-1.458.408-2.154.692-.034-.038 0-.084-.006-.13.613-.21 1.973-.554 1.973-.554s.08-.015.163-.036l.024.028zm-2.76.008l-.201.065a1.84 1.84 0 01-1.322.23v-.007c.526-.052.96-.366 1.523-.288z" fill="#fff"/><path d="M9.07 11.518l-.089.036c-.277-.046-.544-.11-.815-.166l.022-.028c.295.051.593.095.882.158zm1.377-.109c-.09.032-.18.088-.285.065-.025-.023-.03-.056-.037-.086.104.111.276-.047.322.021zm-.121.425c.014.033.04.076.008.109a14.064 14.064 0 00-1.025-.303l-.021-.021.037-.029c.339.069.683.126 1.001.244zm.824-4.918c.056.087.731.82.508.857-.21-.007-.587-.48-.748-.734-.068-.115.164-.181.24-.123zm-.008.821c-.212.04-.358-.187-.501-.316a.619.619 0 01.097.373c-.1.11-.226.017-.255-.093l.33-.722s.537.72.329.758z" fill="#fff"/></svg>