<!-- by TradingView --><svg xmlns="http://www.w3.org/2000/svg" width="18" height="18"><path fill="#F0F3FA" d="M0 0h18v18H0z"/><path d="M8 6H4a1 1 0 00-1 1v5h1.33V9.43H8v-.86H4.33V7.3H8V6zm1 5l-.14-.67a4.81 4.81 0 002.1-2.66h-.8V8h-.7V7h1.65c.04-.22.06-.44.09-.67L12.5 6c-.04.34-.1.68-.2 1h2a.7.7 0 01.69.7V8h-.7v-.33h-2.24c-.1.23-.2.45-.32.66h.7c.14.67.7 1.34.7 1.34s.18-.13.42-.39c.18-.2.47-.61.47-.61H15c-.12.33-.35 1-1.52 1.33L15 11v1a4.9 4.9 0 01-3.46-3.33v-.02 2.63c.44-.12.86-.44 1.04-.61v.66c-.55.54-1.38.67-1.73.67V9.57A5.88 5.88 0 019 11z" fill="#0A4431"/></svg>