<!-- by TradingView --><svg width="18" height="18" viewBox="0 0 18 18" xmlns="http://www.w3.org/2000/svg"><path fill="#F0F3FA" d="M0 0h18v18H0z"/><path d="M12.87 7.2h-.04l-.03.02v.07l-.02.05a.28.28 0 0 0-.05.15c-.03.3-.17.5-.43.63a.96.96 0 0 0 .2-.36c.03-.1.01-.2-.04-.34.1.03.12 0 .08-.12a.2.2 0 0 0-.12-.11l-.22-.1H11.78c.33-.11.81-.16 1.09.1Z" fill="#933049"/><path d="M12.87 7.2c.12.09.16.2.1.35-.1.31-.48.58-.77.73a25.73 25.73 0 0 0-.64.34c-.2.18-.22.73-.21.95v.03l.03.01h.01a.03.03 0 0 1 .02.02v.03c-.1.14-.23.25-.4.34.06-.1.1-.17.12-.24a.8.8 0 0 0 .06-.25c.02-.25.06-.49.13-.73a9.74 9.74 0 0 0 .26-1.26.1.1 0 0 1 .03-.06.5.5 0 0 0 .12-.18c.03-.02.06-.03.08-.02l.01.02v.01l-.28 1.2v.01a.01.01 0 0 0 .01.01h.01l.62-.31.02-.02a.54.54 0 0 1 .1-.06c.26-.13.4-.34.43-.63 0-.06.02-.11.05-.15l.01-.05v-.04a.05.05 0 0 1 .04-.05h.04Z" fill="#201E1A"/><path d="M11.73 7.28a.5.5 0 0 1-.12.18 41.53 41.53 0 0 1-.42 2.04c0 .1-.03.19-.06.26l-.11.24a.94.94 0 0 1-.02-.31 31.69 31.69 0 0 1 .47-2.34l.26-.07ZM10.87 7.37a.6.6 0 0 1-.2.14l-.57.4c0-.02 0-.05.02-.08.2-.2.45-.36.75-.46Z" fill="#AE3357"/><path d="M12.18 7.1h.02l.22.09a.2.2 0 0 1 .12.11c.04.11.01.15-.08.12-.17-.21-.42-.29-.75-.23-.12.02-.3.08-.5.16l-.24.1c-.26.12-.7.36-.8.6-.05.13-.03.22.06.28a.04.04 0 0 1 .01.03.04.04 0 0 1-.02.03h-.01c-.01.01-.03.02-.04.01l-.03-.01c-.12-.12-.23-.34-.04-.48.25-.18.38-.36.77-.54l.9-.29.41.02Z" fill="#201E1A"/><path d="M4.56 7a.3.3 0 0 1-.26.18l-.79.04c-.24.01-.3.24-.3.47v1.66a.9.9 0 0 1-.13.42.39.39 0 0 1-.08-.24V7.39c0-.24.21-.39.4-.39h1.16Z" fill="#AE3357"/><path d="M4.74 7.09c-.1.14-.23.2-.4.2-.33.01-.7-.02-1.02.05h-.01v.02L3.3 9c0 .31 0 .58-.22.78a.9.9 0 0 0 .13-.42V7.7c0-.23.06-.46.3-.47l.79-.04c.12 0 .2-.07.26-.18l.18.09Z" fill="#933049"/><path d="M4.74 7.09c.04.02.07.06.1.1l-.07.2a.77.77 0 0 0-.11.3.1.1 0 0 1-.03.05A11.37 11.37 0 0 1 4 7.8c-.18 0-.3.11-.31.34a.88.88 0 0 0 .05.41v.02l-.04.1v.07l-.03.69c0 .15-.07.2-.2.25a5.1 5.1 0 0 0-.35.14.17.17 0 0 1-.04-.05c.22-.2.22-.47.22-.78a117.15 117.15 0 0 1 .02-1.65c.33-.07.69-.04 1.02-.04.17 0 .3-.07.4-.21Z" fill="#6C2B39"/><path d="M4.84 7.19c.06.05.1.12.12.2-.05-.04-.12-.04-.19 0l.07-.2Z" fill="#353325"/><path d="M4.96 7.4c.07.2.05.39-.05.55-.09.15-.26.14-.43.14H4L4 8.13v.24c-.01.3 0 .16.6.06.08.1.08.28-.03.35-.03.03-.09.03-.17.03h-.39L4 8.83v.51c0 .13-.01.23-.04.3-.08.24-.25.4-.5.35a.53.53 0 0 1-.34-.17l.35-.14c.13-.04.2-.1.2-.25a23.91 23.91 0 0 0 .03-.75l.03-.1a.05.05 0 0 0 0-.04.88.88 0 0 1-.04-.4c.01-.23.13-.33.32-.34a11.38 11.38 0 0 0 .62-.06.1.1 0 0 0 .03-.05.77.77 0 0 1 .11-.3c.07-.04.14-.04.2 0Z" fill="#201E1A"/><path d="M4.6 8.42c-.1.01-.1.16-.22.16a71.54 71.54 0 0 0-.44-.02l-.01-.02a.06.06 0 0 1 0-.06L4 8.37h.49c.04 0 .08.01.1.05ZM8.74 8c-.03.11-.14.19-.3.19h-.76c-.29.02-.5.14-.61.38-.18-.25.01-.5.3-.57h1.37Z" fill="#AE3357"/><path d="M8.74 8c.03 0 .05.04.07.05a.7.7 0 0 1-.17.22h-.02l-.73-.02c-.19 0-.4 0-.52.1-.08.05-.18.13-.29.24l-.01-.02c.11-.24.32-.36.61-.37l.76-.01c.16 0 .27-.08.3-.19Z" fill="#933049"/><path d="m8.81 8.05.06.04-.21.34-.02.02h-.02c-.24 0-.49.04-.5.3 0 .24.02.6 0 .93l-.01.01-.02.01-.28.15h-.04l-.13-.02-.06-.04v-.02l.12-.01a.35.35 0 0 0 .17-.33c0-.16-.03-.37-.06-.61-.01-.1-.07-.16-.18-.19l.02-.07v-.04a.07.07 0 0 0-.02-.03l-.03-.02a.1.1 0 0 0-.04 0c-.18 0-.3.08-.45.15a.07.07 0 0 1-.03-.03c.11-.1.21-.2.3-.25.12-.08.32-.09.51-.09a13.13 13.13 0 0 1 .76.01.7.7 0 0 0 .16-.2Z" fill="#6C2B39"/><path d="M8.87 8.09c.15.11.14.25.12.42-.02.08-.1.15-.21.16h-.26l-.02.01v1.04l-.01.03c-.14.31-.63.32-.85.08l.13.02h.04l.28-.15h.02v-.02c.03-.33.01-.69.02-.93 0-.26.25-.3.49-.3h.02l.02-.02.2-.34ZM7.53 8.74c-.17 0-.31.01-.42-.12.16-.07.27-.14.45-.16.07 0 .2.03.19.1-.02.08-.15.13-.22.18Z" fill="#201E1A"/><path d="M7.7 9.76c.07-.22.1-.46.08-.72 0-.13.02-.33-.18-.35l.03-.06c.11.03.17.1.18.19l.06.61c0 .14-.05.25-.17.33Z" fill="#933049"/><path d="M7.75 9.78c-.16.02-.24.02-.25-.18v-.86l.1-.05c.2.02.17.22.18.35.01.26.04.52-.03.74Z" fill="#AE3357"/><path d="M12.92 8.23 13.3 8h.06a.02.02 0 0 1 0 .02 7.01 7.01 0 0 0-.35.25.1.1 0 0 1-.03 0 .08.08 0 0 1-.06-.03v-.02Z" fill="#201E1A"/><path d="M13.1 8.6c-.14.04-.23.1-.26.18-.04.07-.11.3-.23.68-.03.1-.04.2-.04.3 0 .05-.05.1-.12.14a.17.17 0 0 1-.08-.15c0-.12.02-.26.07-.42a7.11 7.11 0 0 1 .26-.75h.39v.02Z" fill="#AE3357"/><path d="m13.1 8.6-.33.88c-.03.1-.04.2-.03.31 0 .02.02.04.04.06.02.01.05.02.08.01l.32-.02h.01c-.26.1-.48.27-.74.06.07-.04.11-.09.12-.14 0-.1 0-.2.04-.3l.23-.68c.03-.08.12-.14.26-.18Z" fill="#201E1A"/><path d="m6.16 8.02-.3.24c-.18.12-.24.28-.31.48l-.23.7a.7.7 0 0 1-.28.4c-.04-.06-.05-.1-.03-.15a445.4 445.4 0 0 0 .47-1.44c.18-.22.4-.3.68-.23Z" fill="#AE3357"/><path d="m6.16 8.02.1.04c-.08.12-.16.16-.3.22-.17.08-.25.2-.3.38l-.25.76c-.07.2-.15.35-.37.42a.7.7 0 0 0 .28-.4l.23-.7c.07-.2.13-.36.3-.48.11-.08.22-.15.31-.24Z" fill="#933049"/><path d="M6.48 8.22c-.18.15-.18.28-.1.49l.25.7a.72.72 0 0 1 .02.31h.02a.69.69 0 0 0-.04-.45 8.5 8.5 0 0 1-.19-.54.87.87 0 0 1-.05-.3l.06.25.24.7a.68.68 0 0 1 0 .33l-.01.01-.2.13a.04.04 0 0 1-.04 0l-.13-.04a.48.48 0 0 1-.08-.16.1.1 0 0 0 .03-.02l.08.15a.01.01 0 0 0 .02 0l.04-.15v-.01L6.4 9.6a.13.13 0 0 0-.1 0l.05-.1c.12-.12.06-.23 0-.38-.06-.12-.13-.2-.27-.25l.03-.14V8.7l-.03-.01c-.2-.06-.33.02-.4.2a1.47 1.47 0 0 0-.14.54l-.13.27v.02l-.26.15h-.03v.02l-.01.02-.06-.07c.22-.07.3-.22.37-.42l.25-.76c.05-.18.13-.3.3-.38.14-.06.22-.1.3-.22.08.04.15.1.22.16Z" fill="#6C2B39"/><path d="m6.48 8.22.08.09-.17.12c0 .09.02.19.05.3.08.25.15.43.2.54.06.16.07.3.03.44v.01h-.02a.72.72 0 0 0-.02-.31l-.25-.7c-.08-.2-.08-.34.1-.49Z" fill="#353325"/><path d="m6.3 9.81.14.05a.04.04 0 0 0 .04-.01l.2-.13a.05.05 0 0 0 .02-.03.68.68 0 0 0 0-.31l-.25-.7a1.3 1.3 0 0 1-.06-.25l.17-.12.42 1.17c.04.11.03.32-.06.43-.05.05-.11.08-.2.09h-.07a.44.44 0 0 1-.34-.19Z" fill="#201E1A"/><path d="m6.07 8.87-.08.09-.15.42a.21.21 0 0 0-.06.09v.01l.02.01c.12.05.37.02.46 0h.08l-.05.1c0 .02-.02.03-.03.04a.1.1 0 0 1-.03.02H6.2l-.01-.01h-.43l-.01.02c-.03.07-.05.19-.1.24-.15.14-.41.13-.56 0V9.9l.01-.02h.03l.25-.15.01-.02.13-.27c0-.18.05-.36.14-.55.07-.17.2-.25.4-.2l.03.02v.03l-.03.14Z" fill="#201E1A"/><path d="m6.34 9.5-.08-.01.1-.04v-.07l-.03-.01c-.08-.02-.13-.02-.17 0L6 8.96l.08-.1c.14.05.2.14.26.26.07.15.13.26 0 .37Z" fill="#933049"/><path d="M6.26 9.49c-.09.02-.34.05-.46 0h-.01v-.02a.21.21 0 0 1 .05-.09l.32-.01c.04-.02.1-.02.17 0l.02.01.01.02a.04.04 0 0 1 0 .05l-.1.04ZM6.29 9.6c.04-.02.07-.01.1 0l.01.02v.01l-.03.15h-.02l-.09-.15a.12.12 0 0 0 .03-.04Z" fill="#AE3357"/><path d="M15.74 8.05c-.13.02-.2.07-.21.16-.04 0-.08.01-.1.06a1.1 1.1 0 0 0-.08.29c-.03-.06-.05-.06-.08 0-.12.26-.15.56-.09.89.02.09.05.14.06.22a.2.2 0 0 1 0 .06l-.03.05-.03.01c-.02 0-.03 0-.04-.02-.02-.03-.04-.02-.03.03-.1-.26-.13-.53-.1-.8.04-.4.37-.82.57-.97.05-.05.1-.04.16.02Z" fill="#933049"/><path d="M15.74 8.05c.06.05.13.14.2.26.16.26-.05.45-.17.5h-.02v-.04a.7.7 0 0 0 .1-.3.2.2 0 0 0 0-.05l-.01-.05a.07.07 0 0 0-.02-.03h-.03c-.02 0-.03.01-.04.05l-.02.03h-.03a.5.5 0 0 0-.17-.21c0-.09.08-.14.2-.16Z" fill="#201E1A"/><path d="m15.77 8.81-.36.27c-.02-.05-.05-.07-.1-.05l-.01-.01V8.95l.01.02V9h.02c.14-.08.27-.12.37-.25l.01-.02v-.03a.9.9 0 0 0 0-.27h.02l.02-.03c.01-.04.02-.05.04-.06h.03l.02.04.01.05a.2.2 0 0 1 0 .05.7.7 0 0 1-.1.3v.04h.02Z" fill="#933049"/><path d="m15.35 8.56-.04.4c-.02 0-.02.02-.02.05v.01h.01v.01h.02c.04-.02.07 0 .1.05l-.1.08-.02.01v.03c.02.15.05.28.1.4a.1.1 0 0 1 0 .05h-.03c-.02 0-.04 0-.05.02l-.01.02a.08.08 0 0 0 0 .05v.01c.1.1.19.11.27.05l.16-.05a.7.7 0 0 1-.15.16c-.2.15-.37.11-.48-.1 0-.06 0-.07.03-.04.01.02.02.02.04.02l.03-.01a.12.12 0 0 0 .02-.05.2.2 0 0 0 0-.06c0-.08-.03-.13-.05-.22-.06-.33-.03-.63.1-.9.02-.05.04-.05.07 0Z" fill="#201E1A"/><path d="M9.72 8.56c-.01.04-.03.07-.06.08-.04.02-.06.04-.07.06l-.05.02.01-.11c0-.03 0-.05.02-.08.2-.54.41-1.2.53-1.78.05-.27.06-.5.16-.8l.1-.32c0-.06.03-.17.09-.34l.07-.3.07-.3c-.01-.18.17-.47.26-.64L10.9 4h.03l.02.02c.03.09.05.17.05.26 0 .17-.03.4-.09.68-.1.5-.24 1-.4 1.49-.23.71-.5 1.42-.8 2.1ZM9.77 5.86c.02 0 .04.01.06.04v.02c0 .06 0 .1-.03.16-.01.06-.05.08-.11.07-.17.09-.32.23-.45.44C9 6.95 8.68 7.68 8.52 8c-.03 0-.06.04-.07 0a.29.29 0 0 0 .04-.07c.2-.42.57-1.22.81-1.62.1-.16.27-.4.47-.45Z" fill="#353325"/><path d="M7.7 9.85v.03c-.12.4-.35 1.12-.45 1.52-.08.3-.14.6-.18.91-.03.2-.01.4.05.57l.01.02.02.01c.25.04.71-.72.82-.9l.03.02a4.6 4.6 0 0 1-.56.76.78.78 0 0 1-.28.2.09.09 0 0 1-.1-.03 14.61 14.61 0 0 1 .64-3.11Z" fill="#6F715C"/><path d="M10.63 4.6c-.18.74-.4 1.4-.53 2.15l-.12-.49a.05.05 0 0 0-.03-.03l-.32-.14c.2-.5.48-1.19 1-1.5Z" fill="#C0CD53"/><path d="M14.1 7.67c-.2 1.04-.55 2.03-.76 3.08a.07.07 0 0 1-.03.04l-.3.21-.01-.06v-.03l.02-.02c.06-.04.1-.09.12-.15a204.02 204.02 0 0 1 .67-2.66h-.02a.31.31 0 0 0-.1.07h-.04l-.01-.02a.02.02 0 0 1 0-.02l.46-.44ZM14.8 8.01c.02.07 0 .15-.06.24l-.02.03a.07.07 0 0 1-.07 0 .08.08 0 0 1-.03-.02c-.01-.02-.03-.02-.07-.02.07-.12.15-.2.25-.23Z" fill="#AE3357"/><path d="M14.17 7.62h.01l.01.02v.01l-.27 1.2v.02l.02.01h.02l.6-.64c.03 0 .05 0 .06.02l.03.02h.07l.02-.03c.06-.1.08-.17.06-.24.08-.03.13.01.15.13l.04.42c.04.33-.06.6-.28.8a3.5 3.5 0 0 1-.95.64.2.2 0 0 0-.07.05.21.21 0 0 0-.04.09l-.14.63v.05l.04.03c.04.02.07.04.09.07a.04.04 0 0 1 0 .06h-.03l-.6.02.3-.2a.07.07 0 0 0 .03-.05c.06-.31.14-.66.24-1.02.17-.66.4-1.4.52-2.06l.06-.06h.01Zm.37.98c-.3.1-.5.4-.55.46-.06.06-.26.68-.23.7.03.04.17-.02.49-.27.25-.2.3-.67.29-.89Z" fill="#201E1A"/></svg>