<!-- by TradingView --><svg width="18" height="18" fill="none" xmlns="http://www.w3.org/2000/svg"><path fill="#F0F3FA" d="M0 0h18v18H0z"/><path d="M4.404 8.63C5.414 10.707 8 14 8 14s3.5-2.25 5-5.4c.624-1.31.112-3.6-1.907-3.6C9.478 5 9.126 5.961 9 6.35 8.874 5.961 8.19 5 6.297 5 4.368 5 3.395 6.556 4.404 8.63Z" fill="#FFDA20"/><path fill-rule="evenodd" clip-rule="evenodd" d="M7.007 5.01c1.194.106 1.873.863 1.998 1.35-.11-.426-.936-.886-1.998-.98-2.239-.197-1.741 2.733-.999 4.125.841 1.578 1.401 2.246 2.802 4.195 1.052-.75 4.696-3.476 4.696-5.998 0-1.476-.533-2.443-1.972-2.443-.26 0-.718.169-1.09.495-.369.323-.633.781-.556 1.352.055.403.215.62.377.738a.78.78 0 0 0 .446.149c.303 0 .779-.08.92-.304-.171.272-.517.552-.92.552-.133 0-.364-.034-.58-.193-.22-.16-.412-.441-.475-.907-.093-.684.23-1.22.638-1.578.404-.354.912-.552 1.24-.552.297 0 .912.027 1.454.37C13.543 5.73 14 6.477 14 7.702c0 .501-.22.984-.56 1.56-.34.58-.813 1.184-1.337 1.768A21.349 21.349 0 0 1 8.81 14c-1.29-1.669-3.256-3.814-3.7-5.848-.32-1.464-.017-3.31 1.897-3.141Z" fill="#1A2855"/></svg>