<!-- by TradingView --><svg xmlns="http://www.w3.org/2000/svg" width="18" height="18"><path fill="#F0F3FA" d="M0 0h18v18H0z"/><circle cx="9" cy="9" r="5" fill="#0663AC"/><ellipse cx="8.3" cy="9.76" rx="2.57" ry="2.94" fill="#5D83C1"/><ellipse cx="8.27" cy="9.69" rx="1.82" ry="2.03" fill="#7A95CB"/><ellipse cx="8.27" cy="9.69" rx=".74" ry=".87" fill="#B6C3E4"/><path d="M9.06 4.51c2.2.01 3.47 1.5 3.83 2.24-3.15-1.24-4.13.89-4.63 1.6-.5.72-1.73 1.3-2.71.45-.74-.64-.58-1.56-.4-1.94a4.49 4.49 0 013.91-2.35z" fill="url(#af2o3ualy)"/><path d="M9.1 13.41c-2 .22-3.53-1.46-3.69-1.72 3.31.96 4.03-1.1 4.83-1.9.66-.67 1.7-1.18 2.4-.49.66.63.26 1.61 0 2a5.02 5.02 0 01-3.54 2.11z" fill="url(#bf2o3ualy)"/><defs><linearGradient id="af2o3ualy" x1="8.04" y1="6.11" x2="8.68" y2="8.48" gradientUnits="userSpaceOnUse"><stop stop-color="#85C8F2"/><stop offset="1" stop-color="#FDFFFE"/></linearGradient><linearGradient id="bf2o3ualy" x1="10.83" y1="11.69" x2="9.84" y2="9.48" gradientUnits="userSpaceOnUse"><stop stop-color="#79C7EE"/><stop offset="1" stop-color="#D3E9F7"/></linearGradient></defs></svg>