<!-- by TradingView --><svg width="18" height="18" viewBox="0 0 18 18" xmlns="http://www.w3.org/2000/svg"><path fill="#F0F3FA" d="M0 0h18v18H0z"/><path fill-rule="evenodd" d="M9.1 3.34V3h-.2v.34h-.45V4L8 4.7V5l.48 1.6h1.04L10 5v-.3L9.55 4v-.66h-.46Zm.26.66H9.1v.71h.72L9.36 4Zm-.45 0v.71h-.72L8.64 4h.27Zm0 1h-.73l.43 1.43h.3V5Zm.9 0H9.1v1.43h.3L9.82 5Z" fill="#002438"/><path d="M8.55 7h.9L9 7.5l.45 4.5c.16 0 .46.09.46.43 0 .43-.46.43-.46.86 0 .42.46 0 .46.42 0 .43-.46 0-.46.43 0 .35.4.43.55.43V15H8v-.43c.15 0 .55-.08.55-.43 0-.43-.46 0-.46-.43 0-.42.46 0 .46-.42 0-.43-.46-.43-.46-.86 0-.34.3-.43.46-.43L9 7.5 8.55 7Z" fill="#002438"/></svg>