<!-- by TradingView --><svg xmlns="http://www.w3.org/2000/svg" width="18" height="18" viewBox="0 0 18 18"><path fill="#F0F3FA" d="M0 0h18v18H0z"/><path d="M5 4h8v1H5V4Z" fill="url(#as5qafhmo)"/><path d="M5 6h3v1H6v2h2v1H6v3H5V6ZM11.23 13H9V6h1.72c.44-.02.87.06 1.27.24.29.13.58.35.75.63.16.28.26.61.26.94 0 .7-.4 1.19-1.07 1.49a2 2 0 0 1 1.14.63 1.83 1.83 0 0 1 .17 2.12c-.2.29-.46.53-.76.68-.4.19-.82.28-1.25.27Zm-.48-6H10v2h.57c.64 0 1.45-.2 1.43-.98C12 7.35 11.55 7 10.75 7Zm.07 3H10v2h.87c.76 0 1.5-.17 1.5-1 0-.94-1.01-1-1.54-1Z" fill="#1D3164"/><defs><linearGradient id="as5qafhmo" x1="7" y1="5" x2="14.31" y2="4.94" gradientUnits="userSpaceOnUse"><stop offset=".12" stop-color="#1D3164"/><stop offset=".63" stop-color="#63A6CB"/><stop offset=".93" stop-color="#BFC4C9"/></linearGradient></defs></svg>