<!-- by TradingView --><svg width="18" height="18" viewBox="0 0 18 18" xmlns="http://www.w3.org/2000/svg"><path fill="#F0F3FA" d="M0 0h18v18H0z"/><path d="M14.73 8.95a5.77 5.77 0 0 1-5.83 5.71 5.77 5.77 0 0 1-5.82-5.7A5.77 5.77 0 0 1 8.9 3.24a5.77 5.77 0 0 1 5.83 5.7Z" fill="#15204C"/><path d="M12 6.53V5H7v2.57A3.05 3.05 0 0 0 4.7 11c.23 1.67 1.84 2.81 3.46 2.85a3.13 3.13 0 0 0 2.47-1.16l-.94-.92c-.5.39-1.1.59-1.74.56-1.6-.18-2.33-2.21-.95-3.2v2.35h1.5V9c.47.08 1.01.27 1.26.68l1.06-.99a4.45 4.45 0 0 0-2.32-1.2v-.96H12Z" fill="#FFD500"/><path d="M9 3a6 6 0 1 0 0 12A6 6 0 0 0 9 3Zm0 11.56A5.56 5.56 0 1 1 9 3.44a5.56 5.56 0 0 1 0 11.12Z" fill="#FFD500"/></svg>