<!-- by TradingView --><svg width="18" height="18" viewBox="0 0 18 18" xmlns="http://www.w3.org/2000/svg"><path fill="#00481A" d="M0 0h18v18H0z"/><path d="M6.28 10.7c2.52-.36 2.58-2.07 2.3-2.87-.25-.33-.26-.04-.23.15.3.96-.47 2.14-2.07 2.1C5 10.05 4.76 9.33 4.8 8.97 4.8 7.39 7.96 7 9.54 7h2.73a5.08 5.08 0 0 0-3.24 2.5h-.38l-.22.5h.45c-.15.2-.45.46-.75 1.03-.33.63-1.25 1.67-2.13 1.7-.71.02-.97-.37-1.02-.56a.65.65 0 0 0 .38-.42c.07-.27.04-.82-.56-.8-.6 0-.78.54-.8.8.13 1 1.39 1.25 2 1.25 2.96-.24 4.15-2 4.38-3h.65v.49l.67-.99h-1.22c.87-1.74 1.83-2.33 2.2-2.38 1.2.1 2.39 0 2.32-.53-.06-.43-.5-.57-.7-.59h-4.06c-3.4.1-5.82 1.38-5.73 3.04.06 1.32 1.2 1.66 1.77 1.66Z" fill="#fff"/></svg>