<!-- by TradingView --><svg width="18" height="18" xmlns="http://www.w3.org/2000/svg"><path fill="#0F7C40" d="M0 0h18v18H0z"/><path d="M8.956 5.886S9.943 5 11.478 5C13.012 5 15 6.07 15 9.062c0 2.993-2.189 3.534-3.296 3.1 0 0 .139 1.016-1.333 1.314-1.472.298-1.22.47-1.346.524 0 0-.052-.312-1.327-.52-1.275-.207-1.376-1.047-1.384-1.3 0 0-.081.146-.76.146-.68 0-2.554-.46-2.554-3.386 0-2.924 1.987-3.913 3.51-3.913 1.521 0 2.446.859 2.446.859z" fill="#FD0"/><path d="M8.968 6.612s1.162-1.1 2.86-1.1c1.7 0 2.913 1.499 2.913 3.343 0 1.843-1.341 3.22-3.065 2.6 0 0 .206.995-1.038 1.256s-1.483.33-1.606.601c0 0-.029-.343-1.128-.481-1.099-.137-1.559-.523-1.533-1.341 0 0-.23.158-.908.158-.677 0-2.204-.635-2.204-2.819 0-2.183 1.55-3.303 3.007-3.303 1.456 0 2.702 1.086 2.702 1.086z" fill="#EE3124"/><path opacity=".9" fill="#fff" d="M4 8h10v2H4z"/></svg>