<!-- by TradingView --><svg width="18" height="18" viewBox="0 0 18 18" fill="none" xmlns="http://www.w3.org/2000/svg"><path fill="#F0F3FA" d="M0 0h18v18H0z"/><g opacity=".6" stroke="#E0E3EB"><circle cx="9" cy="9" r="8.88" stroke-width=".25"/><rect x="3.05" y="5.05" width="11.9" height="7.9" rx=".95" stroke-width=".1"/><rect x="2.05" y="6.05" width="13.9" height="5.9" rx=".95" stroke-width=".1"/><rect x="4.05" y="4.05" width="9.9" height="9.9" rx=".95" stroke-width=".1"/><rect x="5.05" y="3.05" width="7.9" height="11.9" rx=".95" stroke-width=".1"/><rect x="6.05" y="2.05" width="5.9" height="13.9" rx=".95" stroke-width=".1"/></g><path d="M12 7.8c-.27.86-.92 1.39-2.4 1.96-.82.33-1.13.45-1.4.73-.6.6-.56 1.6-.02 2.24.07.08.07.08.02 0-.56-.97.07-1.97 1.58-2.51 1.3-.46 1.9-1.07 2.2-2.21.08-.3.1-.44.02-.2Z" fill="#6874A6"/><path d="M8.43 4.03a4.9 4.9 0 0 0-1.66.49c-4.63 2.3-3.12 9.21 2.05 9.46l.45.02-.27-.26c-.8-.75-1.28-1.68-1.19-2.31.11-.77.53-1.14 1.8-1.62 1.67-.63 2.29-1.2 2.5-2.32.07-.36.07-.36-.13-.15-.4.44-.83.67-2.3 1.23-1.84.7-2.35 1-2.74 1.59-.7 1.04-.3 2.2 1.12 3.13.28.19.3.24.06.2a4.58 4.58 0 1 1 2.22-8.89c.05.01.18-.03.34-.1l.25-.12-.2-.08a5.6 5.6 0 0 0-2.3-.27Zm4.3 1.7c-.02.02-.05.12-.09.22-.06.18-.06.18.11.43a4.58 4.58 0 0 1-3.24 7.16c-.07.01-.07.02.12.2.2.18.2.18.46.12a5 5 0 0 0 3.36-7.15c-.25-.48-.7-1.09-.73-.98Z" fill="#1C3D82"/><path d="m12.36 4.07-.02.06c.04-.03.05-.05.01.27-.17 1.4-.87 2.03-3.59 3.16-2.76 1.13-3.3 1.85-2.83 3 .01.03.05-.06.1-.2.25-.88.84-1.37 2.5-2.05a112.4 112.4 0 0 0 1.13-.46c1.88-.77 2.61-1.42 2.81-2.5.09-.47 0-1.64-.1-1.28Z" fill="#E5CB98"/><path d="M12.3 4.2c-.21.44-1.18.98-3.04 1.7C6.49 6.98 5.5 8.07 5.75 9.8c.05.4.1.46.09.15-.01-.88.7-1.46 2.92-2.4 2.73-1.12 3.43-1.74 3.6-3.16.03-.3.02-.34-.06-.19Z" fill="#D5AF5E"/></svg>