<!-- by TradingView --><svg width="18" height="18" viewBox="0 0 18 18" xmlns="http://www.w3.org/2000/svg"><path fill="#F0F3FA" d="M0 0h18v18H0z"/><path d="M15 9A6 6 0 1 1 3 9a6 6 0 0 1 12 0Zm-6 5.65a5.64 5.64 0 1 0 .02-11.28A5.64 5.64 0 0 0 9 14.65Z" fill="#046EB7"/><path d="M4.77 9.2a4.3 4.3 0 0 1 3.15-4.3c2.06-.53 4.2.52 4.98 2.5a4.06 4.06 0 0 1-.82 4.47 4.2 4.2 0 0 1-6 .2A4.1 4.1 0 0 1 4.77 9.2Zm8.12-.2c-.04-.27-.06-.54-.11-.8a3.87 3.87 0 1 0-6.53 3.53A3.9 3.9 0 0 0 12.88 9Z" fill="#046EB7"/><path d="M8.83 7.76a.58.58 0 0 0-.43-.15c-.3 0-.61.02-.92.05a.35.35 0 0 1-.28-.1c-.3-.27-.41-.9-.22-1.25l.07-.11c.19-.02.26.03.27.2v.37c.01.18.08.27.26.32.08.02.16.04.24.04h.93c.06-.22.01-.33-.18-.37a4.33 4.33 0 0 0-.51-.05l-.27-.02a.62.62 0 0 1 0-.5c.36 0 .7-.05 1.06.04.1.03.2.08.22.19l.2.7c.18.04.4 0 .62 0h.7l.06-.21c.02-.16.01-.31.03-.46 0-.06.02-.1.06-.15.03-.04.09-.06.14-.06.15.08.21.22.23.37a1.15 1.15 0 0 1-.3.93.4.4 0 0 1-.32.14 55.9 55.9 0 0 0-1-.03l-.23.03v.05c.07.02.14.06.22.06h.69c.17 0 .34.02.51.04.07.01.13.05.17.1.17.25.21.53.18.81l-.14 1.07c-.08.52-.09 1.03.08 1.53.04.14.07.28.08.43.02.2-.08.33-.28.39l-.12-.23a3.62 3.62 0 0 1-.25-1.35 9.2 9.2 0 0 1 .2-2.08v-.06c-.44-.16-.89-.1-1.33-.05l-.02.03c.05.03.09.05.14.06l.35.05c.07 0 .15.02.21.06.07.04.12.1.15.16a1.09 1.09 0 0 1 .06 1.02c-.08.16-.2.28-.42.28l-.3.01-.22.04c.05.11.14.14.24.15h.44l.22.02c.1.02.17.06.19.16.01.05 0 .1-.02.15a.22.22 0 0 1-.1.1c-.1.04-.21.06-.32.07h-.6l-.05.35c-.03.21-.05.42-.1.63-.06.22-.2.38-.47.37-.24 0-.48.01-.72-.01-.18-.02-.26-.14-.24-.27.01-.14.08-.21.24-.22h.41c.35.02.44-.05.44-.38v-.46c-.35-.05-.7.04-1.04-.06v-.31c0-.12.07-.18.18-.18l.42.03c.14.02.3.04.43-.04 0-.1-.07-.13-.15-.14h-.37a.37.37 0 0 1-.3-.13.9.9 0 0 1-.15-1c.15-.36.44-.51.83-.5a.1.1 0 0 0 .06-.02c-.42-.15-.86 0-1.32-.06l.04.48c.06.42.13.85.17 1.27.05.48.01.96-.12 1.42-.04.17-.14.32-.24.47-.04.07-.12.12-.2.19a.72.72 0 0 1-.1-.48c.01-.14.04-.28.08-.41.2-.61.2-1.26.02-1.88a3.86 3.86 0 0 1-.13-.79c-.04-.54.24-.81.8-.82h.84l.3-.04Zm.95 1.33c-.2-.02-.36-.05-.53-.05-.3 0-.6-.02-.88.02s-.33.24-.13.45c.52-.02 1.06.1 1.61-.1l-.07-.32Z" fill="#046EB7"/><path opacity=".5" d="M13.14 10.6A4.43 4.43 0 0 0 9 4.56a4.44 4.44 0 0 0-4.12 6.09l-.94.34A5.42 5.42 0 0 1 9 3.56a5.44 5.44 0 0 1 5.09 7.36l-.95-.32Z" fill="#046EB7"/></svg>