<!-- by TradingView --><svg width="18" height="18" viewBox="0 0 18 18" xmlns="http://www.w3.org/2000/svg"><path fill="#F0F3FA" d="M0 0h18v18H0z"/><path d="M14.2 11.99a6 6 0 1 0 0 .01H3.8l5.2-8.96 5.2 8.95Z" fill="#3754A4"/><path fill-rule="evenodd" d="M7.2 11.88a1.74 1.74 0 1 0 0-3.49 1.74 1.74 0 0 0 0 3.49Zm-.17-2.25L7 9.98h.18a2.54 2.54 0 0 0-.15-.42V9.63Zm-.31-.02-.04.37h-.25a5.55 5.55 0 0 0-.16-.55.27.27 0 0 0-.11-.1.25.25 0 0 0-.24 0 .53.53 0 0 0-.14.13c-.07.08-.13.2-.17.27l.28.13.13-.2c.03.07.06.16.08.27l.01.05h-.5v.33h.56l.04.25v.01a1.97 1.97 0 0 0 .1.4c.03.03.05.08.1.11a.2.2 0 0 0 .2.05.27.27 0 0 0 .14-.12c.05-.1.1-.23.14-.43l.06-.27h.3c.04.17.06.33.07.4l.07.2c.03.06.08.14.15.18a.23.23 0 0 0 .3-.05c.07-.08.1-.19.14-.32.02-.13.04-.27.04-.41h.12l.01.12a.5.5 0 0 0 .13.3c.08.08.18.1.26.1.07 0 .14-.02.19-.04h.03l.03-.02h.01l-.03-.31-.08.02h-.03l-.03.02a.37.37 0 0 1-.1.02H8.5c0-.01-.03-.04-.04-.13v-.08h.3v-.33h-.34c0-.08-.02-.16-.03-.23a1.1 1.1 0 0 0-.08-.3.4.4 0 0 0-.23-.21.22.22 0 0 0-.23.04.33.33 0 0 0-.09.16l-.04.37v.17H7.5a5.76 5.76 0 0 0-.17-.53.77.77 0 0 0-.1-.17.29.29 0 0 0-.33-.1.24.24 0 0 0-.13.11.39.39 0 0 0-.04.13l-.01.13v.06Zm-.09.7h-.14a8.43 8.43 0 0 1 .06.36 2.64 2.64 0 0 0 .08-.36Zm1 .34c0-.06-.03-.19-.06-.34h.14a2.3 2.3 0 0 1-.06.42v-.01a.4.4 0 0 1-.02-.06Zm.47-.67h-.07a12.09 12.09 0 0 1 .02-.33l.03.15.02.18Z" fill="#3754A4"/><path d="M8.25 5.25h1.5V6H9v.37h.75v.75H9v1.5h-.75V5.26Z" fill="#3754A4"/><path d="M9.62 7.62h-.36V11h1.5v-.75H10V9.7h.76v-.71H10v-.62h.76v-.75H9.62Z" fill="#3754A4"/></svg>