<!-- by TradingView --><svg xmlns="http://www.w3.org/2000/svg" width="18" height="18" viewBox="0 0 18 18"><path fill="url(#apcusw3e2)" d="M0 0h18v18H0z"/><path d="M9.35 11.92a4.5 4.5 0 1 0-2.18-.12l-.24.15-.22.95.92.35-.04.42a.3.3 0 0 0 .6.1l.09-.44a12.5 12.5 0 0 0 1.26-.83c0-.04-.11-.36-.19-.58z" fill="#fff"/><path d="M12.5 5.44l1.2-.03a.75.75 0 0 1 .66.3.69.69 0 0 1 .08.69l-1.82 6.31c-.1.27-.28.51-.52.69-.24.17-.53.27-.83.28H8.2l.17-.95h.48c.15 0 .28-.07.28-.2a.27.27 0 0 0-.28-.27h-.4V12a4.48 4.48 0 0 0 4.04-6.56zm-5.24 7.29h.5l-.18.94h-2.8a.75.75 0 0 1-.64-.3.69.69 0 0 1-.08-.67l.64-2.8a4.9 4.9 0 0 0 3.16 2.08v.27h-.6a.27.27 0 0 0-.28.26c0 .14.13.22.28.22z" fill="#A4A4CE"/><path d="M5.03 7.06a3.5 3.5 0 1 0 6.94.88 3.5 3.5 0 0 0-6.94-.88z" fill="#BCDB88"/><defs><linearGradient id="apcusw3e2" x1="3.08" y1="3.37" x2="13.09" y2="15.8" gradientUnits="userSpaceOnUse"><stop offset=".13" stop-color="#35286A"/><stop offset="1" stop-color="#5F325A"/></linearGradient></defs></svg>