<!-- by TradingView --><svg xmlns="http://www.w3.org/2000/svg" width="18" height="18"><path fill="#F0F3FA" d="M0 0h18v18H0z"/><path d="M4 8.9a4.3 4.3 0 01.7-2.45c-.78 2.41.25 3.83.87 4.24a5.71 5.71 0 01-.69-2.49C4.97 4.77 7.56 3.97 8.84 4c-2.89.8-3.23 2.93-3.27 3.87-.05.93.36 1.53.56 1.83a6.18 6.18 0 01-.15-1.31c.03-2.17 1.74-4.12 3.98-4.06a3.8 3.8 0 013.2 1.92 4.16 4.16 0 00-2.75-1.33C7.94 4.94 6.96 7 6.87 8.4c-.07 1.1.59 1.66.92 1.8.34.13 1.12.19 1.62-.64.5-.83 1.07-.87 1.3-.79-.37.16-.4.44-.45.87l-.05.4c-.15.85-.9 2.54-2.74 2.46-2.3-.1-3.45-2.1-3.47-3.6zm10 .2a4.3 4.3 0 01-.7 2.45c.78-2.41-.25-3.83-.87-4.24.53.91.68 2.04.69 2.49-.09 3.43-2.68 4.23-3.96 4.2 2.89-.8 3.23-2.93 3.27-3.87.05-.93-.36-1.53-.56-1.83.1.38.14 1.04.15 1.31-.03 2.17-1.74 4.12-3.98 4.06a3.8 3.8 0 01-3.2-1.92 4.16 4.16 0 002.75 1.33c2.47-.02 3.45-2.08 3.54-3.47.07-1.1-.59-1.66-.92-1.8-.34-.13-1.12-.19-1.62.64-.5.83-1.07.87-1.3.79.37-.16.4-.44.45-.87l.05-.4c.15-.85.9-2.54 2.74-2.46 2.3.09 3.45 2.1 3.47 3.59zm-5.8.22c.1-.03.36-.16.59-.48.29-.4.73-.37.99-.25-.12.05-.37.23-.55.53-.27.42-.81.4-1.02.2z" fill="#F54343"/></svg>