<!-- by TradingView --><svg xmlns="http://www.w3.org/2000/svg" width="18" height="18" viewBox="0 0 18 18"><path fill="url(#asqcdikg5)" d="M0 0h18v18H0z"/><path d="M9.48 4.6a.35.35 0 0 0 0 .49l1.75 1.8c.13.13.35.13.48 0a.35.35 0 0 0 0-.5L9.96 4.6a.33.33 0 0 0-.48 0Zm3.19 3.26a.35.35 0 0 0 0 .49l1.75 1.79c.13.14.35.14.48 0a.35.35 0 0 0 0-.49l-1.75-1.79a.33.33 0 0 0-.48 0Zm-3.2 3.75a.35.35 0 0 1 0-.5.33.33 0 0 1 .49 0l1.75 1.8c.13.13.13.35 0 .49a.33.33 0 0 1-.48 0l-1.75-1.8ZM6.3 7.86a.35.35 0 0 0 0 .49l1.75 1.79c.14.14.35.14.48 0a.35.35 0 0 0 0-.49L6.77 7.86a.33.33 0 0 0-.48 0ZM8.04 4.6a.33.33 0 0 1 .48 0c.13.14.13.36 0 .49l-1.75 1.8a.33.33 0 0 1-.48 0 .35.35 0 0 1 0-.5L8.04 4.6Zm3.67 3.26a.33.33 0 0 0-.48 0l-1.75 1.8a.35.35 0 0 0 0 .48c.13.14.34.14.48 0l1.75-1.8a.35.35 0 0 0 0-.48Zm-3.67 3.26a.33.33 0 0 1 .48 0c.13.13.13.35 0 .49L6.77 13.4a.33.33 0 0 1-.48 0 .35.35 0 0 1 0-.49l1.75-1.8Zm-2.7-3.26a.33.33 0 0 0-.49 0L3.1 9.66a.35.35 0 0 0 0 .48c.13.14.35.14.48 0l1.75-1.8a.35.35 0 0 0 0-.48Z" fill="#fff"/><defs><linearGradient id="asqcdikg5" x1="3.35" y1="3.12" x2="21.9" y2="24.43" gradientUnits="userSpaceOnUse"><stop stop-color="#1A1E21"/><stop offset="1" stop-color="#06060A"/></linearGradient></defs></svg>