<!-- by TradingView --><svg width="18" height="18" viewBox="0 0 18 18" xmlns="http://www.w3.org/2000/svg"><path fill="#F0F3FA" d="M0 0h18v18H0z"/><path d="M10.12 5H5v6.72C5.8 7 10.12 5 10.12 5ZM7.48 8.83A10.01 10.01 0 0 1 13 6.24V5h-.5c-.73.19-2.84.82-5.04 3.17C5.26 10.5 5 12.77 5 12.77c.1-.42 1.13-2.6 2.48-3.94Zm1.97.07c.53-.29 2.3-.83 3.55-.9v-.93s-1.53.36-1.96.55c-.43.19-1.55.53-3.32 1.89-2 1.54-2.58 3.49-2.58 3.49a11.74 11.74 0 0 1 2.59-3.07c.3-.26 1.19-.74 1.72-1.03ZM13 13V8.9s-2.5.23-4.41 1.27C6.17 11.47 5.35 13 5.35 13H13Z" fill="#044577"/></svg>