<!-- by TradingView --><svg width="18" height="18" viewBox="0 0 18 18" xmlns="http://www.w3.org/2000/svg"><path fill="#F0F3FA" d="M0 0h18v18H0z"/><path d="M8.82 6 8.2 8h3.22l-.6 2h-3.2L7 12H5.55c-1.23 0-.82 1 .06 1h5.44l.63-2.05a.1.1 0 0 0-.01-.08l-.35-.5c-.02-.03-.01-.04.01-.04h.52c.02 0 .03-.01.03-.03l.65-2.03V8.2l-.37-.5c-.01-.03 0-.04.02-.04h.47l.05-.02a.1.1 0 0 0 .04-.05l.5-1.94v-.05l-.37-.57c0-.01 0-.04.02-.04h1.09c.02 0 .02.03.02.05l-2.65 8.9c0 .03-.02.05-.03.05H5.5c-.27 0-.48-.04-.62-.09-.56-.2-.93-.85-.89-1.51.01-.15.06-.38.16-.68l1.96-6.33c.13-.44.25-.73.34-.87C6.8 4.04 7.2 4 7.77 4h4.9c.02 0 .02 0 .02.03L12.04 6H8.82Z" fill="#660774"/></svg>