<!-- by TradingView --><svg width="18" height="18" viewBox="0 0 18 18" xmlns="http://www.w3.org/2000/svg"><path fill="#F0F3FA" d="M0 0h18v18H0z"/><path d="M9 5v9H7V9.18c0-.44-.37-1.42-.7-1.57-.17-.07-.52-.1-1.07-.1H5V6.45A4.4 4.4 0 0 0 7.61 5H9Z" fill="#503520"/><path d="M10.39 8.7c1.14 0 2.06-.9 2.06-2.02s-.92-2.02-2.06-2.02c-1.15 0-2.07.9-2.07 2.02 0 1.11.92 2.01 2.07 2.01Z" fill="#E39B00"/><path d="M8.68 4.79a2.47 2.47 0 0 1 3.58-.06c.48.47.74 1.09.74 1.72a2.6 2.6 0 0 1-.68 1.75c-.48.52-1.1.8-1.81.8-.7 0-1.3-.24-1.79-.74A2.53 2.53 0 0 1 8 6.51c0-.67.23-1.25.68-1.72ZM10.51 8C11.4 8 12 7.46 12 6.5c0-.98-.6-1.5-1.5-1.5C9.63 5 9 5.53 9 6.5c0 .95.6 1.5 1.51 1.5Z" fill="#503520"/><path opacity=".7" fill="#503520" d="M10 6h1v1h-1z"/></svg>