<!-- by TradingView --><svg width="18" height="18" viewBox="0 0 18 18" xmlns="http://www.w3.org/2000/svg"><path fill="#F0F3FA" d="M0 0h18v18H0z"/><path d="M12.8 4H5.2a.2.2 0 0 0-.2.2v.1c0 .11.09.2.2.2h.6c.11 0 .2.09.2.2v8.6a.2.2 0 0 1-.2.2h-.6a.2.2 0 0 0-.2.2v.1c0 .11.09.2.2.2h4.1a.2.2 0 0 0 .2-.2v-.1a.2.2 0 0 0-.2-.2H8.2a.2.2 0 0 1-.2-.2V9.2c0-.11.09-.2.2-.2H10c.68 0 .93.84.99 1.3 0 .11.1.2.21.2h.1a.2.2 0 0 0 .2-.2V7.2a.2.2 0 0 0-.2-.2h-.1c-.11 0-.2.09-.2.2-.08 1.03-.69 1.3-1 1.3H8.2a.2.2 0 0 1-.2-.2V4.7c0-.11.09-.2.2-.2H11c1.11 0 1.45 1.43 1.5 2.3 0 .11.09.2.2.2h.1a.2.2 0 0 0 .2-.2V4.2a.2.2 0 0 0-.2-.2Z" fill="#013E77"/></svg>