<!-- by TradingView --><svg width="18" height="18" fill="none" xmlns="http://www.w3.org/2000/svg"><path fill="#F4D923" d="M0 0h18v18H0z"/><path fill-rule="evenodd" clip-rule="evenodd" d="M8.964 14.143H9a5.08 5.08 0 003.614-1.479 5.161 5.161 0 001.15-5.606 5.14 5.14 0 00-1.88-2.321 5.11 5.11 0 00-2.848-.88H9a5.08 5.08 0 00-3.614 1.479 5.16 5.16 0 00-1.15 5.606 5.14 5.14 0 001.88 2.321 5.11 5.11 0 002.848.88zM7.169 4.559A4.767 4.767 0 019 4.2h.034a4.773 4.773 0 013.377 1.418 4.81 4.81 0 01-.024 6.788A4.773 4.773 0 019 13.8h-.034a4.773 4.773 0 01-3.377-1.418 4.805 4.805 0 01-1.255-2.259c.07.273.161.54.276.798.102-.4.252-.787.446-1.15.223.076.451.134.684.172.043.754.138 1.504.283 2.245h-.12c-.17 0-.34-.01-.51-.028.113.133.234.258.361.376h.148c.28-.001.558-.023.834-.064 1.615-.244 2.928-.854 3.903-1.811.863-.854 1.46-1.956 1.855-3.383.08-.3.043-.62-.105-.89a1.16 1.16 0 00-.685-.56 1.139 1.139 0 00-1.007.199 1.187 1.187 0 00-.414.626 4.107 4.107 0 01-1.319 2.07 3.947 3.947 0 01-2.24.917c-.048 0-.095.003-.142.005-.048.003-.095.006-.142.006A3.912 3.912 0 014.2 8.947a4.809 4.809 0 011.413-3.353 4.78 4.78 0 011.555-1.035zm.7 5.574c.309.454.562.945.755 1.461v.004c.42-.179.819-.407 1.188-.679-.44-.5-.91-.97-1.409-1.41a4.232 4.232 0 01-1.655.488 7.576 7.576 0 00-.073 2.135H6.7c.399-.06.793-.148 1.18-.262-.08-.479-.183-.987-.323-1.523-.075-.301.138-.446.313-.214zm2.351.46c.917-.82 1.568-1.95 1.96-3.402a.857.857 0 00-.08-.635.828.828 0 00-.704-.422.802.802 0 00-.493.171.836.836 0 00-.29.442 4.48 4.48 0 01-.476 1.12c.32.233.624.488.909.763.267.258.044.412-.098.331-.405-.233-.788-.43-1.153-.598a4.605 4.605 0 01-.57.594c.37.52.702 1.066.995 1.635z" fill="#040000"/></svg>