<!-- by TradingView --><svg width="18" height="18" viewBox="0 0 18 18" xmlns="http://www.w3.org/2000/svg"><path fill="#F0F3FA" d="M0 0h18v18H0z"/><path d="M14.68 7.2H13v.6h1.37v1.6h-.95v.6h1.26l.32-.3V7.5l-.32-.3Z" fill="#546174"/><path d="m13.08 6.15-.94 3.45-.61-.15.94-3.45.61.15Z" fill="#C93A4B"/><path d="M6.16 6.3h1.26v.6H6.16v-.6ZM4.58 7.2H9v.6H4.58v-.6ZM5 8.1h3.68v.6H5v-.6ZM5 9h3.68v.6H5V9ZM5 12h2v-.6H5.63v-.8h.16l.47.45.32-.45-.63-.6h-.63l-.32.3V12ZM8.68 10h-1.9v.5H8v.9h-.1l-.48-.45-.32.45.64.6h.63l.31-.3V10ZM3.63 7.35 3 7.5v-.6l.79-.3.47.3V12h-.63V7.35ZM10.58 6.3H10v.87h-.37v.6H10v3.63c0 .48.37.6.58.6H15v-.6h-4.1c-.26 0-.32-.2-.32-.3V7.77h1.1v-.6h-1.1V6.3Z" fill="#546174"/></svg>