<!-- by TradingView --><svg width="18" height="18" viewBox="0 0 18 18" xmlns="http://www.w3.org/2000/svg"><path fill="#F0F3FA" d="M0 0h18v18H0z"/><path d="M13.02 9c.26.65.41 1.15.46 1.48.16 1.15.33 2.3.52 3.45 0 .04-.01.06-.05.05-1.13-.18-2.27-.36-3.4-.51-.32-.05-.81-.2-1.48-.44a.16.16 0 0 0-.11 0c-1.6.6-3.28.67-4.92.97a.04.04 0 0 1-.04-.03v-.01c.19-1.07.35-2.14.48-3.21.06-.45.22-1.01.49-1.7a.16.16 0 0 0 0-.1C4.39 7.37 4.3 5.68 4 4.04c0-.04.01-.06.05-.05l3.6.55c.24.03.69.18 1.35.43h.11c.66-.24 1.27-.4 1.83-.47a106 106 0 0 0 2.92-.44c.04 0 .06.01.05.05l-.5 3.25a8.8 8.8 0 0 1-.4 1.52.16.16 0 0 0 0 .11ZM7.26 6.17c.3-.31.64-.58 1.02-.8.05-.02.05-.05-.01-.06-1.14-.36-2.23-.42-3.49-.61-.03 0-.05 0-.05.04.1 1.16.28 2.3.55 3.43.02.1.07.11.13.02 1.16-1.86 2.96-2.07 4.8-1.04a.22.22 0 0 0 .33-.25c-.13-.5-1-1.05-1.44-1.26a.13.13 0 0 0-.1 0c-.36.16-.62.39-1 .45l-.71.14c-.08.01-.09 0-.03-.06Zm4.01.63a2.85 2.85 0 0 1 1.38 1.24.05.05 0 0 0 .06-.03c.23-1.04.4-2.1.5-3.16 0-.04-.02-.06-.06-.06-1.07.1-2.12.26-3.17.5-.05.01-.06.03-.01.07.52.43.98.68 1.23 1.37.02.03.04.06.07.07Zm-3.73.73c.74.06 1.48.04 2.21-.06.06-.01.07-.03.01-.06a3.05 3.05 0 0 0-2.44-.29.17.17 0 0 0-.1.08c-.4.67-.2 1.8.16 2.43.03.06.05.06.06-.01.09-.68.1-1.35.03-2.03 0-.04.02-.07.07-.06Zm3.28.19c.42.88.7 1.5.64 2.51 0 .06.02.07.06.03.35-.37.64-.79.84-1.26a.12.12 0 0 0 0-.1 3.6 3.6 0 0 0-1.21-1.46.11.11 0 0 0-.14 0l-.16.14c-.05.04-.06.09-.03.14Zm-3.72 2.6a4.5 4.5 0 0 1-.63-2.5c0-.05-.01-.06-.05-.02a4.19 4.19 0 0 0-.8 1.18l.01.05c.27.62.68 1.12 1.22 1.5a.17.17 0 0 0 .25-.21Zm.8-.19a7.85 7.85 0 0 1 2.03-.15c.05 0 .07-.02.07-.06-.04-.68 0-1.35.14-2.01.01-.05 0-.06-.05-.06-.66.14-1.33.19-2 .15-.05 0-.07.02-.07.07a7.95 7.95 0 0 1-.14 2.06h.01Zm2.6.39a9.52 9.52 0 0 0-2.25.08v.01l.01.01a3.04 3.04 0 0 0 2.53.27.17.17 0 0 0 .04-.05c.37-.71.19-1.76-.18-2.42-.03-.05-.05-.05-.05.01-.08.67-.1 1.35-.04 2.02 0 .05-.02.07-.07.07Zm.24 1.3c-.29.31-.6.57-.96.78-.06.03-.05.06 0 .08 1.05.37 2.36.47 3.46.6.04 0 .05-.02.05-.06-.13-1.19-.23-2.51-.6-3.5-.03-.06-.05-.06-.08 0-1.04 1.95-3.08 2.3-4.93 1.17a.17.17 0 0 0-.22.23 3.47 3.47 0 0 0 1.57 1.26c.02 0 .03 0 .05-.02.34-.18.62-.44 1-.49.21-.02.42-.06.62-.1.07-.01.08 0 .04.06Zm-4.1-.74a2.93 2.93 0 0 1-1.27-1.24c-.03-.05-.05-.05-.07 0-.38 1-.46 2.31-.58 3.37 0 .04.01.06.06.06 1.14-.1 2.26-.28 3.37-.55.06-.01.07-.04.01-.07-.54-.36-1.12-.81-1.3-1.4a.13.13 0 0 0-.06-.09l-.16-.08Z"/></svg>