<!-- by TradingView --><svg width="18" height="18" xmlns="http://www.w3.org/2000/svg"><path fill="#7AB726" d="M0 0h18v18H0z"/><path d="M16 7.308c0-.172-.12-.308-.283-.308h-3.588C11.506 7 11 7.424 11 8.077c0 .652.506 1.077 1.129 1.077h2.742c.33 0 .504.344.504.623 0 .28-.237.603-.504.603h-3.575a.303.303 0 00-.296.31c0 .171.133.31.296.31h3.575C15.493 11 16 10.43 16 9.777c0-.652-.507-1.239-1.13-1.239H12.13c-.267 0-.504-.182-.504-.461 0-.28.237-.457.504-.457h3.588c.163 0 .283-.141.283-.312zM7.1 7H4.037C2.83 7 2 7.792 2 8.99v1.675c0 .185.132.335.318.335.187 0 .318-.15.318-.335V8.99c0-.83.558-1.38 1.4-1.38H7.1c.17 0 .309-.135.309-.305A.307.307 0 007.099 7z" fill="#fff"/><path d="M3.514 9.29c0 .163.132.305.302.305h2.898c.17 0 .3-.142.3-.305a.29.29 0 00-.3-.29H3.816a.293.293 0 00-.302.29zM8.682 7.333v3.333c0 .184.142.334.318.334.176 0 .318-.15.318-.334V7.333A.326.326 0 009 7a.326.326 0 00-.318.333z" fill="#fff"/></svg>