<!-- by TradingView --><svg width="18" height="18" xmlns="http://www.w3.org/2000/svg"><path fill="#294ED6" d="M0 0h18v18H0z"/><path d="M6.5 4.78c.67-.286 1.267-.354 1.992-.288a4.395 4.395 0 012.031.718 4.425 4.425 0 011.451 1.598c.345.645.51 1.655.526 2.098.015.442-.045 2.185-.75 3.094h1.5c.63-.941.756-1.96.75-3.094a5.952 5.952 0 00-1.967-4.434 5.889 5.889 0 00-2.145-1.23c-.793-.254-2.561-.293-3.388-.197V4.78z" fill="#fff"/><path d="M6.5 15l1.767-3c-.138.03-.564.007-.705 0C6.247 11.936 5 10.942 5 9.175 5 7.3 6.42 6 8 6c1.556 0 3 1.229 3 3.163a3.319 3.319 0 01-.199 1.098c-.132.348-.3.68-.503.991L8 15H6.5zM8 7.503c-.948 0-1.5.804-1.5 1.497 0 .896.649 1.5 1.5 1.5.935 0 1.5-.844 1.5-1.5 0-.869-.682-1.497-1.5-1.497z" fill="#fff"/></svg>