<!-- by TradingView --><svg width="18" height="18" xmlns="http://www.w3.org/2000/svg"><path fill="#F0F3FA" d="M0 0h18v18H0z"/><path d="M4.839 9.618c-.767-1.21.604-3.428 3.064-4.92 1.25-.765 2.54-1.209 3.587-1.33h.888c.645.081 1.129.323 1.411.726.444.686.161 1.694-.605 2.742l.646.161-1.653 1.17-.403-1.936.604.242c0-.322-.04-.605-.12-.726-.444-.685-1.895-.524-3.267.322-1.37.847-2.136 2.661-1.693 3.307.403.645 1.694.564 3.024-.162 0 0 .081-.04.04.04-1.33.726-2.66 1.13-3.709 1.13-.848 0-1.493-.242-1.814-.766z" fill="#2279BB"/><path d="M4.193 14.415c-.403-.685-.162-1.693.604-2.7l-.645-.162 1.694-1.21.363 1.976-.604-.242c0 .322.04.604.12.726.443.685 1.896.523 3.266-.323 1.37-.846 2.137-2.66 1.734-3.346-.404-.605-1.735-.524-3.024.201h-.04s-.081.04-.001-.04c2.339-1.33 4.758-1.532 5.484-.363.766 1.21-.605 3.387-3.064 4.919-1.453.887-2.903 1.33-4.033 1.33-.846 0-1.532-.241-1.854-.766z" fill="#C82A34"/></svg>