<!-- by TradingView --><svg width="18" height="18" viewBox="0 0 18 18" xmlns="http://www.w3.org/2000/svg"><path fill="#59585D" d="M0 0h18v18H0z"/><path fill-rule="evenodd" d="m7.5 4.78.4 1.71c-.54.16-1.15.31-1.72.44.07-.66.2-1.2.31-1.53-.2.35-.46.93-.64 1.6a13 13 0 0 1-1.21.2 4.59 4.59 0 0 1 2.85-2.42Zm1.45 1.73-.45.16a42.76 42.76 0 0 1 .86 2.51 37.8 37.8 0 0 0 2.06-.8 7.6 7.6 0 0 0-2.78-3.73 6.25 6.25 0 0 1 3.25 3.52c.42-.19.82-.38 1.17-.57a4.58 4.58 0 0 0-5.3-2.89l.63 1.65a38 38 0 0 0 .44-.14c0-.24.2-.43.46-.43s.47.2.47.43c0 .24-.21.43-.47.43a.48.48 0 0 1-.34-.14Zm4.88 1.19a5 5 0 0 1-3.35 6.08l.27 1.22-.42-1.18a5 5 0 0 1-5.17-1.62c-1.3.02-2.16-.21-2.16-.56 0-.65.71-1.06 1.13-1.3l.05-.02A5 5 0 0 1 4.2 7.6c-.68.02-1.16-.1-1.2-.47-.07-.76 1.6-1.57 2.89-2.05.44-.35.94-.63 1.49-.82L7.08 3l.49 1.2a5 5 0 0 1 5.34 1.68c.93-.15 1.72-.12 2.01.32.28.43-.23.96-1.1 1.5Zm-5.06 6.06c-1.37 0-2.6-.6-3.44-1.56.54-.02 1.15-.08 1.8-.19a5.91 5.91 0 0 0 2.01 1.5 8.05 8.05 0 0 1-1.62-1.57c.63-.12 1.29-.29 1.95-.5l.75 2.08c-.45.15-.94.24-1.45.24Zm-3.7-1.88c.52.02 1.15 0 1.86-.1a7.1 7.1 0 0 1-1.07-1.9 4.47 4.47 0 0 1-.1-2.48c-.45.1-.9.16-1.28.19a4.57 4.57 0 0 0 .6 4.29Zm4.3-.7c-.71.25-1.4.42-2.02.53a5.95 5.95 0 0 1-1-1.98 7.8 7.8 0 0 1-.2-2.4c.64-.15 1.29-.33 1.84-.5.26 1.02.53 1.98.74 2.57a30 30 0 0 1-.4.14.53.53 0 0 0-.07-.11.59.59 0 0 0-.8-.11c-.24.17-.3.5-.1.74.18.24.53.29.78.1a.53.53 0 0 0 .2-.23l.53-.14.5 1.4Zm1.04 2.27-.5-2.17c.58-.22 1.17-.48 1.74-.8-.02 1-.2 1.84-.35 2.28.28-.51.7-1.49.82-2.54l.32-.2c.05.04.1.06.16.06.13 0 .24-.14.24-.31 0-.18-.1-.32-.24-.32-.14 0-.25.14-.25.32v.02l-.2.13c.02-.44 0-.88-.12-1.3.41-.19.81-.38 1.18-.57a4.59 4.59 0 0 1-2.8 5.4Zm-.57-2.43c.59-.22 1.2-.5 1.82-.83 0-.44-.05-.9-.14-1.36-.7.3-1.42.56-2.05.76l.37 1.43Zm-6.4.41c.06.18.6.38 1.46.44-.27-.4-.5-.84-.65-1.3a7.3 7.3 0 0 1-.12.06c-.34.19-.8.45-.68.8Zm9.6-5.37c.53-.03.97.03 1.23.26.24.22-.03.55-.59.92a4.99 4.99 0 0 0-.63-1.18Zm-9.54.86c-.05.26.29.34.82.31a5 5 0 0 1 1.3-1.9c-.96.4-2.02 1-2.12 1.6Z" fill="#fff"/></svg>