<!-- by TradingView --><svg width="18" height="18" xmlns="http://www.w3.org/2000/svg"><path fill="#F0F3FA" d="M0 0h18v18H0z"/><path d="M3.923 9.143l-.689.508-.22.382-.014.603.368.766.618.622 2.248 1.363.034.063-.187.55h5.196l.015-.23.234-.072 2.613-1.56.861-.88-.067-.473-.627-.886-.703-.617-.201-.244-.919-.636-1.105-.512a3.79 3.79 0 00-.636-.225l-.268-.115a.385.385 0 00.162-.301.427.427 0 00-.062-.25l.134-.2-.048-.263.158-.206.043-.09-.09-.264-.197-.153a1.97 1.97 0 00-.115-.565l.13-.325v-.148c-.053-.278-.115-.445-.187-.498l-.167-.143-.369.009A1.623 1.623 0 009.296 4l-.32.034-.244.062-.373.038c-.053 0-.1.019-.134.062l-.201.158-.335.182-.048.081a.555.555 0 01-.253.268l-.067.086-.197.531.335 1.273.364.507.038.039-.258.215-.971.129-.096.024-1.325.689-1.288.765zm1.728 1.508l.287-.307.143-.047.072.507.201.823-.01.248-.325-.224-.306-.33-.306-.584.244-.086zm6.033 1.344l-.158.11.35-1.454.507.248.206.216-.905.88z" fill="#fff"/><path d="M4.733 9.64l.12.185c-.13.14-.313.223-.54.261l-.063.083-.01.135.16.562.27.509c.078.12.488.465 1.232 1.036l.323.349.237.024c.184-.15.343-.242.493-.261l.029-.727-.165-1.085.054-1.865.164-.227c-.049.32-.049.557-.01.707v3.448l.145.228.087-1.652c.048-.876.053-1.443.034-1.69l-.034-.412.053-.305.246-.324-.096.925-.155 3.71-.101.746h.318l.14-2.238c.044-1.22.083-2.01.121-2.359a6.98 6.98 0 01.179-.896l.058-.082.029.082.005.238-.16 3.918-.087.61.025.727h.323l.42-5.275.266-.106L8.49 14h.474l.338-5.275.14-.184.145.15L9.34 14h.401l.087-2.577.285.121L10.05 14h.41v-1.68l.112-.742c.058 0 .12-.043.183-.135L10.605 14h.266l.275-4.253a3.587 3.587 0 00-.183-1.26l.217.19.155 1.206-.31 4.117h.242l.015-.17.352-.096c.218-.19 1.077-.703 2.589-1.54l.777-.79-.063-.29-.574-.824-.71-.615-.188-.238-.865-.605-1.101-.5a4.943 4.943 0 00-.792-.28l-.087-.058-.372-.136c-.275-.077-.246-.15.082-.237.18-.058.266-.126.276-.204a.322.322 0 00-.082-.198l.014-.107.116-.198a1.234 1.234 0 01-.048-.344l.154-.082.049-.102-.034-.092-.232-.194a1.156 1.156 0 00-.058-.426l-.068-.238c-.01-.058.044-.198.155-.43l-.12-.364-.098-.087-.337.014c-.107-.092-.28-.145-.541-.169l-.479.102-.405.034-.232.188-.304.165c-.106.218-.208.344-.324.378l-.154.421.323 1.187.29.412.145.135v.252h-.068l-.367.29-1.082.156-1.318.678-1.917 1.25-.17.29-.014.485.338.663.575.586c.758.47 1.516.93 2.27 1.385l.169.194-.12.349h.42c.062-.157.091-.325.086-.494a.67.67 0 00-.11-.373H6.51l-.323-.155a6.492 6.492 0 00-.686-.45 9.238 9.238 0 01-.768-.514c-.468-.373-.797-.727-.98-1.06l-.063-.258.015-.295.082-.16.323-.31.541-.305.082.015zm.55.204v-.106l1.363-.824.004.116-1.135.838-.135.049-.096-.073zm-.173-.47l-.03-.092 1.648-.881-.082.155-1.097.644-.44.174zm1.555.3l-.048.088-.899.528-.048.077-.048-.077.029-.087.792-.625.203-.02.019.117zm-.13.529c.019.27.038.532.077.784l.169 1.366-.13.034-.174.015a5.684 5.684 0 01-.74-.746 4.938 4.938 0 01-.497-.79l.044-.068c.232-.15.468-.29.71-.426a5.22 5.22 0 01.502-.218l.039.049zm6.37-.31l-.015.087-.17-.034-.917-.572h-.145l-.154-.12-.048-.19c.15.047.297.11.434.19l1.014.639zm.236-.272l-.237-.077-.98-.683c-.29-.121-.44-.184-.468-.184l-.02-.14.31.043 1.467.993-.072.048zm-2.922-3.86l-.048.063-.406.184.097.16.372.063.227-.049.169.15-.145.107-.116.049.116.13v.058l-.188.04-.126.13.014.111.17-.043.067-.005.03.048-.122.059c-.019 0-.048.038-.077.135h.053l.073.136c.01.043-.034.072-.111.087l-.541-.102-.575.015-.222.135v.097l.294.242-.024.407c0 .058-.048.049-.154-.02l-.565-.353.01-.344.072-.014.15-.673-.199-.262-.024-.305.102-.111.203-.034.25.218h.136l.058-.262.54-.34h.373l.067.093zM8.983 8.822c0-.039.024-.063.072-.063.044 0 .063.024.063.063 0 .053-.02.073-.063.073-.048 0-.072-.02-.072-.073zm.101.838c0 .053-.024.078-.072.078-.048 0-.077-.025-.077-.078 0-.048.029-.068.077-.068s.072.02.072.068zm.932-.954l.049-.015.188.393.015.271-.034.61h-.31l.092-1.26zm.604.189l.203-.136-.034 1.22h-.198l.03-1.084zm1.966 1.36l.072.132-.12.087-.624-.32-.328-.528 1 .63zm-.763.606l.029-.305c.12.034.231.078.328.136a12 12 0 01.976.634c-.358.373-.73.717-1.136 1.032-.197.165-.415.3-.656.402l.202-.61.256-1.289zm-.285-.32l-.005-.44c0-.078.029-.092.087-.039.024.039.048.13.053.276l-.087.819-.135.571.087-1.186zm-.681-.222v.068h-.932v-.068h.932zm0-.204v.088h-.932v-.088h.932l.507 3.212.005-.427.458-.053 1.637-1.497-.54-.552.352-.508.14.014.696.901-.039.184c-.364.345-.753.663-1.164.95-.502.358-1.01.692-1.545.988l-.507-3.212z" fill="#161413"/><path d="M8.916 6.006L8.662 6l-.062.124.04.096.096-.017.056.101.084.096.085-.006.04-.197-.085-.191z" fill="#161413"/></svg>