<!-- by TradingView --><svg width="18" height="18" viewBox="0 0 18 18" xmlns="http://www.w3.org/2000/svg"><path fill="#F0F3FA" d="M0 0h18v18H0z"/><path d="M8.65 5H6.16c-2.99.37-3.62 3.54-2.87 5.81.15.46.4.86.76 1.21.02.01.02.03.01.04L3.13 14l1.85-1.33h.05c.52.23.95.33 1.57.33h5.18a2 2 0 0 0 1.06-.34c.02 0 .02-.02.01-.04l-1.84-2.78h-.02l-1.3 2.14c-.01.02-.02.02-.04.02H8.54a.02.02 0 0 1 0-.02l1.85-3.05V8.9L8.67 6.3a.1.1 0 0 1-.02-.05V5Zm-4 5.53c-.78-2.07.37-4.97 3.14-4.2.25.06.45.14.61.25.02 0 .02.02.02.04l-.25.73c-.01.01-.02.02-.04 0a2.19 2.19 0 0 0-1.81-.17c-.99.4-1.05 1.92-.85 2.75.31 1.32 1.68 1.45 2.74.9a.02.02 0 0 1 .03 0 .02.02 0 0 1 0 .02l.23.7c.01.06 0 .1-.06.12-1.4.6-3.18.42-3.76-1.14ZM12 5H9.12L11 7.86c.01.02.03.02.04 0l.86-1.38c0-.02.02-.02.04-.02h1.12v.01l-1.42 2.31v.05l2.12 3.2.01.02a.05.05 0 0 0 .04 0h.02A4.19 4.19 0 0 0 15 9.3v-.77c-.09-1.79-1-3.28-3-3.54Z" fill="#71A624"/></svg>