<!-- by TradingView --><svg width="18" height="18" xmlns="http://www.w3.org/2000/svg"><path fill="#0099DE" d="M0 0h18v18H0z"/><path d="M8.007 8.004H6.854c-.475 0-.86-.369-.86-.823 0-.455.385-.823.86-.823h1.153v-.536c0-.962.255-1.679.733-2.135.476-.457 1.141-.685 2.027-.685.37 0 .683.026.96.07.411.064.71.408.71.806-.001.48-.429.856-.928.814a3.513 3.513 0 00-.282-.011c-.784 0-1.193.407-1.193 1.304v.389h1.533c.47 0 .852.365.852.815 0 .45-.382.815-.852.815H10v6.01c0 .544-.393.986-.962.986-.57 0-1.031-.442-1.031-.986v-6.01z" fill="#fff"/></svg>