<!-- by TradingView --><svg width="18" height="18" viewBox="0 0 18 18" xmlns="http://www.w3.org/2000/svg"><path fill="#F0F3FA" d="M0 0h18v18H0z"/><path fill-rule="evenodd" d="M4 5.15V9.2c0 .7.26 2.29 1.32 3l.7.48C7.22 13.45 8.5 14.3 9 15c.37-.4 1.44-1.37 2.8-2.12a3.84 3.84 0 0 0 2.2-3.7V5.16A7.1 7.1 0 0 1 9 3a7 7 0 0 1-5 2.15Zm.5.53v3.5c0 .61.24 1.99 1.2 2.61l.63.41c1.06.68 2.2 1.42 2.66 2.02.33-.34 1.3-1.19 2.52-1.84 1.53-.81 1.99-1.88 1.99-3.2v-3.5A6.52 6.52 0 0 1 9 3.82a6.43 6.43 0 0 1-4.5 1.86Z" fill="#0199EC"/><path d="M5 5.93v3.22c0 .56.29 1.83 1.13 2.4l.57.38c.94.62 1.96 1.3 2.36 1.86.83-.9 1.92-1.57 2.84-2.29H9v-4H7V10h-.5V5.81a6 6 0 0 1-1.5.12Z" fill="#082247"/><path d="M9.5 5.5H7.03a5.3 5.3 0 0 0 2.03-1.29A5.56 5.56 0 0 0 13 5.93v3.22c0 1-.15 1.34-1 2.03V11H9.5V7H7V6h2.5v-.5Zm2.45 1.07-.18-.54-.18.54H11l.48.33-.18.54.47-.33.47.33-.18-.54.47-.33h-.58Z" fill="#0199EC"/></svg>