<!-- by TradingView --><svg width="18" height="18" viewBox="0 0 18 18" xmlns="http://www.w3.org/2000/svg"><path fill="#F0F3FA" d="M0 0h18v18H0z"/><path d="M7.97 4.15c.15.5.22.92.22 1.45a3 3 0 0 1-.52 1.87l-.17.27-.03-.2a2.2 2.2 0 0 0-.69-1.39c-.01 0-.03.28-.04.62-.02.58-.03.66-.15 1.1-.09.3-.21.61-.34.88l-.37.78-.16.36-.07-.15a13.2 13.2 0 0 1-.7-2.45l-.07-.4.12-.12a6.5 6.5 0 0 1 2.58-1.4c.17-.05.32-.11.33-.14.02-.04-.08-.68-.12-.71-.03-.03-.61.13-1.02.27a6 6 0 0 0-1.35.66c-.47.3-.7.47-1.12.85-.24.22-.3.29-.3.37 0 .06.04.33.1.6a11.25 11.25 0 0 0 2.74 5.8c.01 0-.03-.16-.1-.34a5.39 5.39 0 0 1-.27-1.38c-.04-.65.16-1.46.5-2.02l.12-.2.05.37c.07.59.26 1.02.59 1.36l.14.16.02-.53c.03-.69.1-.97.48-2.03a14 14 0 0 0 .57-1.95c.08-.07.79.55 1.02.89.64.95.52 2.4-.37 4.19l-.21.46c0 .05.36-.02.63-.12.33-.13.7-.37 1.04-.67l.28-.24-.02.2A6.05 6.05 0 0 1 9 14.8c-.14.11-.24.2-.22.2a6.11 6.11 0 0 0 2.74-2.07c.8-1.12 1.18-1.82 1.65-3.06.36-.95.71-2.32.8-3.08l.02-.22-.37-.33a6.9 6.9 0 0 0-4.29-1.82L8.9 4.4l.22.18.48.41c.25.23.27.24.6.32a6 6 0 0 1 2.82 1.48c.12.11.13.06-.06.95-.14.65-.5 1.8-.6 1.96-.02.03-.05-.04-.1-.2a3.23 3.23 0 0 0-.42-1.06c-.01 0-.04.04-.05.1a3.5 3.5 0 0 1-.62 1.13 8.1 8.1 0 0 0-.04-1.76 4.32 4.32 0 0 0-1.44-2.48A23.6 23.6 0 0 0 7.95 4c-.02 0 0 .06.02.15Zm.83 4.2a6.04 6.04 0 0 0-.6 2.11c-.04.43 0 1.07.1 1.49.03.15.03.21 0 .21-.02 0-.16-.07-.31-.16-.26-.16-.7-.55-.94-.85-.06-.07-.13-.12-.14-.1l-.05.36c-.04.7.17 1.34.65 1.97.2.27.8.9.85.9.02 0 0-.06-.03-.13a4.34 4.34 0 0 1-.4-1.2c-.02-.16-.01-.27 0-.27.03 0 .11.05.2.12l.42.24c.27.12.74.25.78.21a5.46 5.46 0 0 1-.62-2.93 14 14 0 0 1 .25-1.9 4 4 0 0 0 .08-.5c0-.02-.11.18-.24.44Z" fill="#E55727"/></svg>