<!-- by TradingView --><svg xmlns="http://www.w3.org/2000/svg" width="18" height="18" viewBox="0 0 18 18"><path fill="#33533B" d="M0 0h18v18H0z"/><path fill-rule="evenodd" d="M9 4.23l.12-.1-.12.1zm-5.84 8.23h.02a5.42 5.42 0 0 0 .37.13c.24.08.58.18.97.26.79.16 1.8.25 2.66-.05A2.64 2.64 0 0 0 9 10.5v.02c.03.18.08.43.2.7.22.54.68 1.16 1.62 1.5.86.3 1.87.2 2.66.05a9.1 9.1 0 0 0 1.34-.39h.02l.16-.07-.07-.15-.02-.03a4.76 4.76 0 0 0-.19-.34 8.9 8.9 0 0 0-.57-.84 5.5 5.5 0 0 0-1.58-1.46c.5-.61.75-1.42.9-2.1a8.74 8.74 0 0 0 .18-1.38v-.2h-.2a5.03 5.03 0 0 0-.38.04c-.26.03-.6.08-1 .17-.46.1-.98.27-1.46.51-.17-.48-.4-.92-.64-1.3a8.74 8.74 0 0 0-.83-1.1l-.02-.01L9 4l-.11.12-.02.02a5.06 5.06 0 0 0-.27.3c-.16.2-.39.47-.61.8a6.2 6.2 0 0 0-.7 1.37 6.66 6.66 0 0 0-1.39-.47 9.1 9.1 0 0 0-1.38-.2h-.03l-.17-.01v.19a4.88 4.88 0 0 0 .03.39c.02.26.07.61.15 1 .15.67.4 1.47.89 2.09-.63.36-1.15.93-1.54 1.43a8.9 8.9 0 0 0-.76 1.19l-.01.02-.08.15.16.07zm0 0l.06-.15-.06.15zm1.32-6.37h-.16.16zm5.22-.68c.24.38.47.82.63 1.29-.24.14-.46.3-.65.49-.21.2-.38.43-.5.64V4.68c.15.19.33.44.52.73zm.2 2c-.52.52-.7 1.07-.72 1.54v.25c.01.24.06.44.1.6l.15-.1.7-.67c.21-.33.37-.76.37-1.32 0-.23-.03-.47-.08-.7-.19.12-.36.25-.51.4zm.47 1.82a2.67 2.67 0 0 1 1.91.13 4.8 4.8 0 0 0 .88-2.02c.08-.38.12-.72.14-.96v-.02l-2.93 2.87zm2.66-3.05l-2.3 2.25c.06-.21.1-.45.1-.72 0-.29-.05-.58-.13-.86.46-.24.98-.4 1.44-.51.34-.08.66-.13.9-.16zm-.7 3.6c-.61.6-1.29.77-1.85.78l3.98 1.42-.01-.02c-.13-.21-.32-.5-.55-.82a5.11 5.11 0 0 0-1.54-1.4l-.03.04zm-2.09.46a2.3 2.3 0 0 0 1.82-.64 2.33 2.33 0 0 0-2.05.13c-.21.11-.38.24-.5.35a2.93 2.93 0 0 0 .73.16zm-.92.25l.3.12a2.3 2.3 0 0 1 1.32 1.82h-.02a2.32 2.32 0 0 1-1.6-1.94zm4.09 1.98c-.65.14-1.44.21-2.14.06a2.72 2.72 0 0 0-.7-1.6l3.71 1.32c-.22.07-.53.15-.87.22zm-8.74-6l2.87 2.8a2.68 2.68 0 0 0-1.87.18 4.82 4.82 0 0 1-.85-2 8.43 8.43 0 0 1-.15-.97v-.02zm-.57 4.75c.4-.51.9-1.05 1.5-1.38a2.75 2.75 0 0 0 1.83.82l-3.89 1.39.01-.02c.13-.21.32-.5.55-.81zm-.38 1.1c.22.07.53.16.87.23.67.13 1.47.21 2.18.04a2.73 2.73 0 0 1 .68-1.6l-3.73 1.33zm4.74-1.69l-.03.01c-.47.23-1 .66-1.24 1.5-.04.11-.06.23-.08.35a2.31 2.31 0 0 0 1.57-1.93l-.22.07zm0-.45l-.26-.26a2.33 2.33 0 0 0-2.3-.23c.62.6 1.3.7 1.83.66a2.83 2.83 0 0 0 .74-.17zM7.2 8.5a2.73 2.73 0 0 1 0-1.59 6.27 6.27 0 0 0-1.36-.47 8.77 8.77 0 0 0-.9-.15l2.26 2.2zm1.67-3.88v3.45a2.83 2.83 0 0 0-.57-.78 3.5 3.5 0 0 0-.72-.53c.16-.48.42-.95.68-1.34.22-.32.44-.6.6-.79l.01-.01zm-.8 2.9a3.12 3.12 0 0 0-.58-.45c-.05.21-.08.43-.08.64 0 .88.41 1.43.82 1.78.18.14.35.24.5.32.03-.14.06-.31.07-.5.03-.52-.1-1.18-.73-1.8z" fill="#FDDC8D"/></svg>