<!-- by TradingView --><svg xmlns="http://www.w3.org/2000/svg" width="18" height="18" viewBox="0 0 18 18"><path fill="#F0F3FA" d="M0 0h18v18H0z"/><path d="M9 3 4 6v3.63h.06c.23 0 .33-.03.5-.06h.07V6.45L9 3.77l4.38 2.68v3.12h.05c.2.03.28.06.51.06H14V6L9 3Z" fill="#043251"/><path d="M12.44 6.96 9 4.89 5.56 6.96v2.36l.09-.03c.17-.1.22-.18.37-.27a.62.62 0 0 0 .14-.1l.03-.02V7.4L9 5.72l2.81 1.68v1.5l.03.03c.06.03.12.06.14.09.15.09.2.18.37.27l.09.03V6.96Z" fill="#043251"/><path d="m9 7.58.94.54h.03c.28.06.56.11.82.22l.09.03v-.55L9 6.8 7.13 7.82v.55l.05-.03c.26-.1.54-.16.83-.22L9 7.58Z" fill="#043251"/><path d="M13.43 10.38h-.05v1.17L9 14.15l-4.38-2.6v-1.17h-.05c-.2.03-.28.03-.51.03H4V12l5 3 5-3v-1.56h-.06c-.2 0-.33-.03-.5-.06Z" fill="#00AAE7"/><path d="m7.58 12.3.99.49h.03c.26-.03.54-.03.8 0h.03l.99-.49A5.55 5.55 0 0 0 9 12.16c-.48 0-.95.02-1.42.14ZM12.44 10.9v-.77a7.46 7.46 0 0 1-.83-.4A4.52 4.52 0 0 0 9 9c-1.32 0-1.98.37-2.6.74-.26.14-.55.28-.84.4v.75l.06-.02c.46-.14.8-.34 1.12-.54.57-.34 1.14-.7 2.26-.7 1.12 0 1.63.36 2.2.7.35.2.7.4 1.15.54l.09.02Z" fill="#00AAE7"/><path d="m11.11 11.84.7-.41-.18-.12A4.43 4.43 0 0 0 9 10.58c-1.33 0-2 .34-2.63.73-.06.03-.12.1-.18.12l.62.41c.52-.3 1.18-.63 2.19-.63s1.56.33 2.11.63Z" fill="#00AAE7"/></svg>