<!-- by TradingView --><svg width="18" height="18" viewBox="0 0 18 18" xmlns="http://www.w3.org/2000/svg"><path fill="#F0F3FA" d="M0 0h18v18H0z"/><path d="M12.98 5.44a.29.29 0 0 0 0-.23c-.07-.22-.3-.21-.53-.2H6.42c-.24 0-.4.14-.42.39-.01.36.01.67.22.98.29.42.73.62 1.34.62h4.26c.35 0 .52-.16.65-.46l.5-1.1Zm-1.54 3.35a.6.6 0 0 0-.22-.7c-.08-.06-.25-.09-.5-.09H8.63a3.95 3.95 0 0 0-1.29.1c-.43.17-.77.44-1.01.82-.27.41-.34.83-.34 1.36v1.89c0 .47.1.81.57.83h1.14c.53 0 .73-.24.72-.81a138.1 138.1 0 0 1 0-1.14c0-.47.07-1.05.54-1.05a78.64 78.64 0 0 1 1.42 0c.33 0 .49 0 .63-.33.06-.16.13-.29.2-.42s.15-.27.22-.46Z" fill="#013567"/></svg>