<!-- by TradingView --><svg width="18" height="18" viewBox="0 0 18 18" fill="none" xmlns="http://www.w3.org/2000/svg">
<rect width="18" height="18" fill="#F0F3FA"/>
<path fill-rule="evenodd" clip-rule="evenodd" d="M10.4687 13.4354C10.3155 13.5157 10.1623 13.6021 10.0139 13.7036C9.39728 13.86 8.60466 14 7.73829 14C6.55319 14 5.50361 13.7381 4.85751 13.5306C4.65231 13.4646 4.3485 13.4113 4.08927 13.3738C3.97478 13.3572 3.96868 13.2413 4.08103 13.2185C4.34527 13.1651 4.65876 13.0953 4.87114 13.0275C5.3915 12.861 6.16823 12.6616 7.06447 12.5898C7.18064 12.6418 8.80054 13.1198 9.98852 13.1763C9.99676 13.1766 10.0035 13.1769 10.0113 13.1774C8.86711 13.2318 7.34127 13.3033 7.34127 13.3033L10.4687 13.4354Z" fill="#91C962"/>
<path fill-rule="evenodd" clip-rule="evenodd" d="M11.3899 6.17244C11.3899 6.17244 11.0935 11.5668 11.0933 12.8718L10.9921 12.8096C10.9947 12.8088 10.9971 12.8087 10.9996 12.8102C10.5117 12.0118 9.625 10.2855 9.625 8.28403C9.625 6.44 10.3777 4.82477 10.8777 3.95822C11.0445 3.6692 11.183 3.26866 11.2563 3.0362C11.264 3.01207 11.2879 3 11.3119 3C11.336 3 11.3601 3.01219 11.3676 3.03632C11.439 3.26732 11.5738 3.66335 11.7366 3.94834C11.7383 3.95163 11.7401 3.95505 11.7421 3.95822C11.7862 4.03452 11.8324 4.11692 11.8798 4.20457C11.9324 4.3016 11.9866 4.40521 12.0414 4.51516C12.082 4.59658 12.123 4.68179 12.1639 4.76992C12.1947 4.83598 12.2254 4.90364 12.256 4.97336C12.2922 5.056 12.3283 5.14133 12.3637 5.22873C12.402 5.3232 12.4396 5.42071 12.4764 5.5203C12.5068 5.60258 12.5364 5.68645 12.5653 5.77202C12.5992 5.87258 12.6318 5.97546 12.6631 6.08041C12.6887 6.16635 12.7134 6.25338 12.7368 6.342C12.7665 6.45402 12.794 6.56823 12.8196 6.68428C12.838 6.76753 12.8554 6.85164 12.8714 6.93685C12.893 7.05228 12.9121 7.16942 12.9289 7.28827C12.9404 7.37055 12.9505 7.4538 12.9593 7.53767C12.9721 7.65676 12.982 7.77731 12.9888 7.89921C12.9932 7.97917 12.9964 8.05974 12.9982 8.1408C12.9992 8.18846 13 8.23612 13 8.28403C13 8.35388 12.9986 8.42336 12.9964 8.49271C12.9941 8.57195 12.9901 8.65069 12.9851 8.72895C12.9768 8.8573 12.9652 8.9842 12.9505 9.10963C12.9426 9.17716 12.9339 9.2442 12.9243 9.31063C12.9051 9.44398 12.8828 9.57551 12.8575 9.70472C12.8467 9.75994 12.8353 9.81467 12.8234 9.86915C12.6071 10.8606 12.0821 11.8833 11.7587 12.4886C11.6828 12.599 11.5981 12.695 11.5073 12.7821C11.5074 11.5134 11.3899 6.17244 11.3899 6.17244Z" fill="#5EA2D7"/>
<path fill-rule="evenodd" clip-rule="evenodd" d="M10.9245 12.8416C10.9112 12.8423 10.8975 12.8431 10.8836 12.8438C9.94206 12.7677 8.15899 12.3688 6.94711 11.6157C5.70819 10.8457 4.93761 9.83699 4.53397 9.18876C4.39979 8.97331 4.18444 8.71272 4.01891 8.52295C3.96885 8.46556 4.0257 8.39462 4.10161 8.39462C4.11544 8.39462 4.12998 8.39694 4.14464 8.40226C4.16489 8.40955 4.18635 8.41719 4.20768 8.42471C4.24629 8.43836 4.28609 8.45213 4.32745 8.46613C4.4471 8.5064 4.57557 8.54609 4.70153 8.57953C4.7411 8.58995 4.78007 8.59955 4.81868 8.60846C4.87481 8.62154 4.92999 8.63322 4.98218 8.64202C5.07538 8.65752 5.17548 8.67546 5.28083 8.69571C5.32421 8.70416 5.36831 8.71283 5.41359 8.72209C5.5653 8.7531 5.72714 8.78932 5.89636 8.83133C5.94391 8.84313 5.99194 8.85528 6.04068 8.86801C6.21253 8.9129 6.39105 8.96393 6.57422 9.02144C6.61557 9.03452 6.65717 9.04782 6.69888 9.06159C6.86333 9.11552 7.03089 9.17499 7.19988 9.24026C7.23945 9.25553 7.27913 9.27127 7.31893 9.28724C7.47302 9.34914 7.62783 9.41614 7.7824 9.48846C7.81863 9.50547 7.85486 9.5226 7.89097 9.54019C8.0441 9.61447 8.19664 9.6942 8.34728 9.77983C8.37707 9.79672 8.40663 9.81408 8.43618 9.83144C8.48933 9.86256 8.54237 9.89415 8.59492 9.9269C8.69384 9.98834 8.78929 10.0516 8.88225 10.1159C8.88964 10.121 8.89738 10.126 8.90477 10.1312C9.23047 10.3579 9.52006 10.5994 9.77545 10.8424C9.88581 11.1131 10.2493 11.8376 10.6894 12.3553L7.08929 10.276L10.9245 12.8416Z" fill="#A2B447"/>
<path fill-rule="evenodd" clip-rule="evenodd" d="M11.0557 12.8746C11.0396 12.8734 11.0226 12.872 11.0059 12.8707C11.0196 12.87 11.0333 12.8692 11.0465 12.8686L11.0557 12.8746Z" fill="#90C74B"/>
</svg>
