<!-- by TradingView --><svg width="18" height="18" viewBox="0 0 18 18" xmlns="http://www.w3.org/2000/svg"><path fill="#20AEBC" d="M0 0h18v18H0z"/><path d="M13.94 7h-3.25c.07-.62-.37-1.08-1.27-1.08S7.9 6.4 7.9 6.98c0 .6.75.66 2.73.9 1.98.26 3 .6 3 2.15 0 2.24-1.44 3.97-4.8 3.97C5.02 14 4 12.87 4 11.43c0-.24.02-.68.07-.93h3.3c0 .74.37 1.2 1.45 1.2 1.1 0 1.43-.37 1.43-.89 0-.51-.94-.64-2.35-.78-3.09-.29-3.06-1.5-3.06-2.33C5 5.4 6.42 4 9.98 4 13.2 4 13.99 5.48 14 6.56c0 .19-.02.29-.06.44Z" fill="#FFEC01"/></svg>