<!-- by TradingView --><svg width="18" height="18" viewBox="0 0 18 18" xmlns="http://www.w3.org/2000/svg"><path fill="#F0F3FA" d="M0 0h18v18H0z"/><path d="M12.69 4.04a.47.47 0 0 0-.2-.04H5v9.32c0 .4.35.68.65.68H13V4.56a.59.59 0 0 0-.15-.4.5.5 0 0 0-.16-.12ZM5.3 9V4.33H10V9H5.3Zm2.15.33h2.87v-.66h2.36v5H7.46V9.33Zm-2.15.2v-.2H6V13h1.15v.67H5.7c-.2 0-.38-.17-.38-.43V9.53Zm7.38-4.85v3.65H12V5h-1.67v-.67h2.05c.2 0 .31.13.31.35Zm-7.67 8.89L5 13.48l.03.1v-.01Zm4.67-.24-1.3-2.85v1.9c0 .32.06.65.3.65v.3h-.92v-.3c.3.01.27-.22.24-.48l-.01-.2v-2.09c.02-.2.02-.3-.23-.3v-.3h1.3l1 2.42.86-2.41h1.45v.3h-.07c-.29 0-.31.14-.31.45v2.16c0 .14.02.42.31.42h.07v.33H10.7v-.3c.27 0 .3-.33.3-.45v-2.15l-1.13 2.9H9.7ZM8 7.85V6.67h.37c.14 0 .23.12.29.19.05.07.08.26.1.47H9V5.91h-.25c-.01.2-.04.33-.1.4-.03.04-.1.03-.17.03H8V5h.5c.46 0 .55.25.64.67h.3v-1H6.48V5h.07c.17 0 .29.02.34.1.06.07.11.2.11.38v2.37c0 .18-.05.3-.1.38-.06.07-.17.1-.35.1h-.06v.34h1.95v-.33h-.08C8 8.34 8 8.19 8 7.92v-.07Z" fill="#0060AB"/></svg>