<!-- by TradingView --><svg width="18" height="18" viewBox="0 0 18 18" xmlns="http://www.w3.org/2000/svg"><path fill="#F0F3FA" d="M0 0h18v18H0z"/><path d="M4 6v6h2v-2h1V8.5H6v-.92h1.5V6H4Zm7.68 6H11c.12-.1.2-.21.22-.29h-.15a.28.28 0 0 1-.24.14c-.2 0-.6-.39-.77-.58.17-.27.27-.52.37-.76l.11-.26c.12-.26.4-.31.53-.3v-.16H9.95v.15c.1 0 .32.03.33.27 0 .24-.23.7-.35.91L9 10.1c.24-.14.72-.51.72-.88 0-.47-.46-.68-.76-.68s-.84.22-.84.8c0 .47.28.74.42.82l-.52.42c-.35.27-.3.77-.23.99.06.12.2.3.42.44H7l.99-6h2.18l.8 3.07.85-3.07h2.2l.98 6h-2.1l-.27-3.2-.95 3.2Zm-1.53-.09.1.09h-.97c.25-.14.45-.33.54-.46l.33.37ZM8.51 9.38l.35.5c.34-.2.53-.43.53-.65 0-.22-.08-.57-.45-.57-.36 0-.5.26-.5.43 0 .14.05.25.07.3Zm1.25 2-1.13-1.2c-.14.12-.44.41-.44.7 0 .36.38.88.78.88.32 0 .66-.26.79-.38Z" fill="#21529A"/></svg>