<!-- by TradingView --><svg width="18" height="18" viewBox="0 0 18 18" xmlns="http://www.w3.org/2000/svg"><path fill="#F0F3FA" d="M0 0h18v18H0z"/><path d="M6.5 12 4 9.55V12h2.5ZM5.67 6H4v1.64L5.67 6Z" fill="#0C3D4D"/><path d="M7.92 9.63 5.94 7.58l.66-.8 1.32 1.43L10.23 6l1 6h-1.4l-.26-3.79-1.65 1.42Z" fill="url(#a)"/><path d="M8.29 6H6.64L4 8.53 7.63 12h1.65L5.65 8.53 8.29 6ZM12.61 6l-2.78 6h1.4L14 6h-1.39Z" fill="#0C3D4D"/><defs><linearGradient id="a" x1="6.27" y1="6.95" x2="10.37" y2="11.39" gradientUnits="userSpaceOnUse"><stop stop-color="#FFE9AC"/><stop offset=".47" stop-color="#FFC92B"/></linearGradient></defs></svg>