<!-- by TradingView --><svg width="18" height="18" fill="none" xmlns="http://www.w3.org/2000/svg"><path fill="#4A317A" d="M0 0h18v18H0z"/><path fill-rule="evenodd" clip-rule="evenodd" d="M8.734 4.547c-.172.115-.14.308-.103.39.066.164.242.199.315.174l.12-.05c.177-.074.436-.182.605-.268a1.18 1.18 0 0 1 .48-.134c.197-.008.56.07.575.565.012.372-.428.548-.792.694a2.854 2.854 0 0 0-.32.142c-.853.483-1.094 1.125-1.125 1.578C8.043 7.16 7.407 7 7.027 7h-.984C4.368 7.053 4 8.159 4 8.674v4.993c.017.11.168.333.5.333.332 0 .487-.222.5-.333v-4.69c.018-.72.573-.97.887-.977h.879C7.196 8 8 8 8 8.976c0 1.07-.77 1.043-1.195 1.024h-1.12c-.164-.002-.391.18-.4.49-.01.31.18.504.328.51h1.444c.667-.016 1.989-.473 1.942-2.024A2.139 2.139 0 0 0 8.75 8h2.822c.144.233.355.427.61.56-.697.28-1.183.91-1.183 1.64 0 .993.895 1.797 2 1.797s2-.804 2-1.796c0-.731-.486-1.36-1.184-1.64.49-.257.82-.737.82-1.287 0-.82-.732-1.484-1.636-1.484-.904 0-1.636.665-1.636 1.484v.049H9.37c.133-.635.581-.75.897-.813.2-.04.595-.305.873-.586.287-.29.451-1.064-.162-1.599a1.31 1.31 0 0 0-1.307-.248c-.24.11-.766.356-.937.47ZM13 8.26c.552 0 1-.426 1-.952 0-.525-.448-.951-1-.951s-1 .426-1 .951c0 .526.448.952 1 .952Zm.005 3.024c.635 0 1.15-.482 1.15-1.077s-.514-1.078-1.15-1.078c-.635 0-1.15.483-1.15 1.078 0 .595.515 1.077 1.15 1.077Z" fill="#fff"/></svg>