<!-- by TradingView --><svg width="18" height="18" xmlns="http://www.w3.org/2000/svg"><path fill="#F0F3FA" d="M0 0h18v18H0z"/><path d="M7.302 8.535c0 .377-.048.404-.42.401H4.213c-.767.017-1.07.197-1.213.871.074-.593.445-1.186 1.458-1.217h2.151c.465 0 .676-.003.695-.377-.002.137-.002.261-.002.322zM3 11.645c.006-.087.017-.299.033-.372.12-.58.49-.745 1.18-.734h2.325c.407 0 .71.02.77-.308v.252c0 .53-.068.525-.445.517h-2.68c-.593 0-1.06-.079-1.183.645zM12.846 5H8.773c-.777 0-1.469.293-1.469 1.077v.431c0 .377-.05.462-.427.453H4.208C3.296 6.961 3 8.276 3 8.276V13s.308-.461 1.205-.461h2.388c.486 0 .72-.033.715-.462v-.481c0-.69.973-1.057 1.476-1.057h2.36L12.19 9H8.726c-.89 0-1.353.178-1.422.814V9.43C7.3 8.64 8.231 8.5 9 8.5h4.5L14.535 7H8.692c-.934 0-1.352.245-1.388.957l-.002-.462C7.337 6.618 8.497 6.5 9 6.5h6.461S14.625 5 12.846 5z" fill="#A5001D"/><path d="M5.578 5h3.268c-.49 0-1.538.308-1.538 1.057V10.231c0 .308-.387.308-.75.308H4.077c-.77 0-1.022.51-1.077 1.003v-3.78C3 6.205 4.54 5 5.578 5z" fill="#091C5A"/><path d="M5.298 6.798l.25.769h.807l-.653.474.25.769-.654-.475-.654.475.25-.769-.654-.474h.808l.25-.769z" fill="#fff"/></svg>