<!-- by TradingView --><svg width="18" height="18" viewBox="0 0 18 18" xmlns="http://www.w3.org/2000/svg"><path fill="#F0F3FA" d="M0 0h18v18H0z"/><path d="M15 9a6 6 0 0 1-6 6 .27.27 0 0 1-.27-.3v-.23c.02-.13.12-.22.25-.22A5.25 5.25 0 1 0 3.73 9c0 .21-.17.4-.38.4A.35.35 0 0 1 3 9.06V9a6 6 0 1 1 12 0Z" fill="#DC252E"/><path d="M5.24 9c0-.17-.11-.32-.28-.34H4.9a.35.35 0 0 0-.4.33 4.5 4.5 0 1 0 4.44-4.5c-.2 0-.34.17-.34.36v.01c0 .22.19.38.4.38A3.75 3.75 0 1 1 5.24 9Z" fill="#241A22"/><path d="M11.55 8.64c-.18.01-.3.17-.3.36A2.25 2.25 0 1 1 9 6.75c.22 0 .42-.17.42-.4A.34.34 0 0 0 9.1 6H9a3 3 0 1 0 3 2.95c0-.2-.19-.34-.38-.32h-.07Z" fill="#DC252E"/></svg>