<!-- by TradingView --><svg width="18" height="18" viewBox="0 0 18 18" xmlns="http://www.w3.org/2000/svg"><path fill="#F0F3FA" d="M0 0h18v18H0z"/><path fill-rule="evenodd" d="M8.87 13.61V13A4 4 0 0 1 5 9.13H4.4a4.61 4.61 0 0 0 4.48 4.48Zm.26 0V13A4 4 0 0 0 13 9.13h.61a4.61 4.61 0 0 1-4.48 4.48Zm0-1.02a3.6 3.6 0 0 0 3.46-3.46H10.3a1.3 1.3 0 0 1-1.17 1.16v2.3Zm-.26-2.3v2.3a3.6 3.6 0 0 1-3.46-3.46H7.7c.06.61.55 1.1 1.17 1.16Zm.26-.3a1 1 0 0 0 .86-.86h-.86v.86Zm1.17-1.12h2.3a3.6 3.6 0 0 0-3.47-3.46v2.3a1.3 1.3 0 0 1 1.17 1.16Zm-1.17-.86a1 1 0 0 1 .86.86h-.86v-.86Zm-.26-.3V5.4a3.6 3.6 0 0 0-3.46 3.46H7.7a1.3 1.3 0 0 1 1.17-1.16Zm-.86 1.16a1 1 0 0 1 .86-.86v.86h-.86Zm0 .26h.86v.86a1 1 0 0 1-.86-.86Zm5.6-.26H13A4 4 0 0 0 9.13 5V4.4a4.61 4.61 0 0 1 4.48 4.48ZM8.87 4.4V5A4 4 0 0 0 5 8.87H4.4A4.61 4.61 0 0 1 8.87 4.4Zm0 9.6V15h.26v-1A5 5 0 0 0 14 9.13h1v-.26h-1A5 5 0 0 0 9.13 4V3h-.26v1A5 5 0 0 0 4 8.87H3v.26h1A5 5 0 0 0 8.87 14Z" fill="#1986AA"/><path fill-rule="evenodd" d="M12 9a3 3 0 1 1-6 0 3 3 0 0 1 6 0Zm-.35 0a2.65 2.65 0 1 1-5.3 0 2.65 2.65 0 0 1 5.3 0Z" fill="#1986AA"/></svg>