<!-- by TradingView --><svg width="18" height="18" viewBox="0 0 18 18" xmlns="http://www.w3.org/2000/svg"><path fill="#F0F3FA" d="M0 0h18v18H0z"/><path d="M4.55 8.3A.26.26 0 0 0 4.3 8a.24.24 0 0 0-.24.2A5 5 0 1 0 8.2 4.07.24.24 0 0 0 8 4.3c0 .16.15.28.3.25A4.5 4.5 0 1 1 4.55 8.3Z" fill="#47567B"/><path d="M6.02 6.85c-.1-.13-.31-.13-.4.01a4 4 0 1 0 2.57-1.78.24.24 0 0 0-.19.24c0 .16.16.28.32.25A3.52 3.52 0 0 1 12.5 9a3.5 3.5 0 1 1-6.48-1.84.27.27 0 0 0 0-.3Z" fill="#528AAC"/><path d="M6.78 10.15a.28.28 0 0 0-.24-.15c-.18 0-.3.18-.23.34a3 3 0 1 0 1.85-4.22.23.23 0 0 0-.16.22c0 .17.18.3.35.25a2.5 2.5 0 1 1-1.57 3.56Z" fill="#5BC1DE"/><path d="M8.11 10.21c-.15-.11-.4-.06-.44.13a.2.2 0 0 0 .06.2 2 2 0 1 0 .38-3.34.2.2 0 0 0-.11.2c0 .18.24.3.41.22A1.5 1.5 0 0 1 10.5 9a1.5 1.5 0 0 1-2.39 1.21Z" fill="#D5EDF7"/></svg>