<!-- by TradingView --><svg width="18" height="18" viewBox="0 0 18 18" xmlns="http://www.w3.org/2000/svg"><path fill="#003D2E" d="M0 0h18v18H0z"/><path d="M11.82 4H6.28c-.1 0-.28.08-.28.28 0 .19.2.2.5.23.7.04.5.4.5.97v5.68c0 .45.1.93-.5.97-.25.02-.41.03-.41.2 0 .16.15.17.24.17h2.6c.1 0 .26 0 .26-.17 0-.18-.17-.2-.42-.2-.59-.04-.78-.52-.78-1V9.16c0-.39-.02-.54.2-.6.15-.04 1-.04 1.41-.04.35 0 1.1 0 1.3.74.03.06.12.42.15.52.03.07.08.22.22.22.17-.01.15-.17.15-.27V7.1c0-.14-.02-.23-.14-.24-.13 0-.2.12-.23.22-.17.72-.28.93-1.4.93H8.19c-.18-.03-.2.02-.2-.72V5.23c0-.64.43-.67.9-.67 2.16 0 2.34.29 2.76 1.2.05.12.1.28.26.28.15 0 .07-.22.07-.26V4.32c0-.17.07-.32-.16-.32Z" fill="#fff"/><path fill="#A8E383" d="M6 13h6v1H6z"/></svg>