<!-- by TradingView --><svg width="18" height="18" xmlns="http://www.w3.org/2000/svg"><path fill="url(#paint0_linear)" d="M0 0h18v18H0z"/><path d="M6.747 10.089c.01-.187.05-.672.239-1.181.187-.51.518-1.039 1.093-1.336a.73.73 0 01.332-.07c.225 0 .485.074.679.222a.8.8 0 01.33.669c0 .145-.03.313-.106.505-.199.362-.282.648-.284.893a.935.935 0 00.182.56c.046.066.098.123.15.18.324.468.677.755 1.053.947a4.2 4.2 0 00.712.277 2.558 2.558 0 01-.113.003c-.396 0-.854-.088-1.21-.178-.178-.044-.332-.09-.442-.121-.109-.034-.17-.055-.17-.055l-.266-.092.12.254c.24.51.645.782 1.029.931.078.03.157.058.234.08a5.112 5.112 0 01-1.083-.158 8.084 8.084 0 01-.393-.109 4.656 4.656 0 01-.147-.05l-.275-.099.127.261c.119.243.286.421.46.549a3.476 3.476 0 01-.514-.146 2.803 2.803 0 01-.8-.468c-.4-.32-.883-.855-.942-2.191.003-.005.003-.032.005-.077zm4.11 1.187c.432.066.838.07 1.008.11.216.047.48.17.699.36a1.236 1.236 0 01.449.973c.001.284-.074.633-.262.867a1.05 1.05 0 00-.932-.544 13.976 13.976 0 00-.27-.004c-.186 0-.397.003-.628.008h-.006l-.383.018a7.99 7.99 0 01-.712 0l-.008-.002a1.692 1.692 0 01-.483-.168 1.369 1.369 0 01-.401-.315c.34.098.904.23 1.456.23.236 0 .468-.024.685-.088l.42-.124-.426-.104c-.207-.05-.55-.084-.9-.221a1.64 1.64 0 01-.75-.557c.371.109 1.029.273 1.603.275.24 0 .467-.029.66-.109l.31-.131-.324-.091c-.413-.117-.792-.216-1.137-.394a2.505 2.505 0 01-.189-.109c.173.058.35.095.521.12zm.066-2.85c0-.434-.224-1.074-.423-1.426h.625L12 8.519 11.125 10h-.74a2.713 2.713 0 00.538-1.574zm2.308 4.04a1.48 1.48 0 00-.513-.898 1.903 1.903 0 00-.804-.413c-.223-.048-.606-.048-1.023-.112-.414-.063-.845-.188-1.128-.452a.478.478 0 00-.022-.02l-.035-.036h-.002l-.003-.003a1.54 1.54 0 00.104-.06c.252-.173.454-.317.58-.472l.012 1h2.121v-1H12.3l.45-.495.45.495H13v1h2v-1h-.6l-.9-1.481L14.425 7H15V6h-2v1h.225l-.475.778c.008-.008-.425-.778-.425-.778h.193V6h-1.993L10.5 7c-.438-.642-1.006-.992-2.007-1-1-.008-1.893.658-1.893 1.02V6H3v1h.6v3H3v1h2v-1h-.5V9h1.2V8H4.5V7h.9v.778h.763a2.034 2.034 0 00-.104.643c0 .36.078.703.22 1.01V9.43c.07.147.152.286.248.416-.021.193-.021.316-.021.32v.005c.053 1.392.593 2.026 1.031 2.368.196.155.457.352.865.504.343.13.789.227 1.392.256l.018.003v-.001a7.321 7.321 0 00.726 0c.014 0 .37-.018.388-.02h.002a30.2 30.2 0 01.617-.008c.097 0 .186.002.267.004.33.008.514.144.633.28a.911.911 0 01.144.246c.004.007.004.013.005.016l.002.003.048.178.141-.117c.358-.3.462-.787.464-1.165 0-.09-.007-.176-.018-.253z" fill="#F60"/><defs><linearGradient id="paint0_linear" x1="3.349" y1="3.122" x2="21.904" y2="24.434" gradientUnits="userSpaceOnUse"><stop stop-color="#1A1E21"/><stop offset="1" stop-color="#06060A"/></linearGradient></defs></svg>