<!-- by TradingView --><svg width="18" height="18" viewBox="0 0 18 18" xmlns="http://www.w3.org/2000/svg"><path fill="#181B1E" d="M0 0h18v18H0z"/><path d="M9.59 4c-.42 0-.84.07-1.24.2-.26-.13-.54-.2-.82-.2-.5 0-.99.21-1.37.58-.2-.37-.44-.58-.69-.58C4.66 4 4 6.24 4 9s.66 5 1.47 5c.25 0 .48-.21.69-.58.38.37.87.57 1.37.58.28 0 .56-.07.82-.2.39.13.79.2 1.2.2 2.38.03 4.45-2.28 4.45-5 0-2.74-2.05-5-4.41-5Zm-2.06.33c.12 0 .25.02.37.05-.52.25-1 .6-1.4 1.05a5.23 5.23 0 0 0-.2-.56 1.8 1.8 0 0 1 1.23-.54ZM6.07 12.9C5.22 11.87 5 10.38 5 9c0-1.27.17-2.46.7-3.35.1-.2.23-.37.37-.54.08.2.14.39.2.6A5.3 5.3 0 0 0 5.31 9c0 1.21.25 2.38.96 3.3-.06.2-.12.4-.2.59ZM5.62 9c0-1.05.17-2.03.75-2.86.18.96.32 1.62.32 2.86 0 1.32-.14 1.9-.32 2.86A4.8 4.8 0 0 1 5.62 9ZM7 9c0-1.3-.16-2.16-.4-3.2a4.1 4.1 0 0 1 1.73-1.24C9.7 5.38 10 7.36 10 9c0 1.63-.31 3.62-1.67 4.44A4.1 4.1 0 0 1 6.6 12.2c.24-1.04.4-1.65.4-3.2Zm-1.53 4.64c-.84 0-1.16-3.92-1.16-4.64 0-1.3.13-2.52.4-3.43.27-.91.58-1.21.76-1.21.12 0 .29.1.46.44-.8.9-1.24 2.44-1.24 4.2 0 1.76.43 3.3 1.24 4.2-.17.33-.34.44-.46.44Zm2.06 0a1.78 1.78 0 0 1-1.23-.51c.08-.18.14-.37.2-.56.4.45.88.8 1.4 1.05-.12.03-.25.02-.37.02Zm2.01 0c-.27 0-.54-.01-.8-.08 1.02-.78 1.57-2.53 1.57-4.56s-.55-3.78-1.58-4.56c.28-.07.57-.08.86-.08 2.2 0 4.12 2.1 4.12 4.64 0 2.57-1.9 4.67-4.17 4.64Z" fill="url(#a1o5z3exp)"/><defs><linearGradient id="a1o5z3exp" x1="4.57" y1="13.25" x2="13.01" y2="5.81" gradientUnits="userSpaceOnUse"><stop offset=".1" stop-color="#F04F23"/><stop offset=".5" stop-color="#A0F"/><stop offset=".9" stop-color="#006EFA"/></linearGradient></defs></svg>