<!-- by TradingView --><svg width="18" height="18" viewBox="0 0 18 18" xmlns="http://www.w3.org/2000/svg"><path fill="#F0F3FA" d="M0 0h18v18H0z"/><path d="M6 6.1V8c.23-1.04 1.1-1.75 3-1.38 1.52.29 2.41.2 2.67.12L10.37 5c-.32-.04-1.05-.15-1.37-.24-.4-.1-1.49-.3-2.2.12-.58.32-.78.95-.8 1.22Z" fill="url(#a)"/><path d="M6 8.76v1.9c.23-1.04 1.1-1.74 2.97-1.38 1.5.29 1.78-.33 2.03-.41l-.68-1.22c-.32-.04-1.04-.14-1.35-.23-.4-.12-1.47-.3-2.19.11-.57.33-.76.95-.78 1.23Z" fill="url(#b)"/><path d="m10.19 5.93.07-.48h3.02l.2.48-1.43 1.03h-.4l-1.46-1.03Z" fill="url(#c)"/><path d="m10.35 5.48-.64-1.45c.06.03.81.12.83.16l.63.7h1.16l.62-.6 1.02-.26-.74 1.45h-2.88Z" fill="#DFDFDF"/><path d="M10.85 4.78a1.9 1.9 0 0 0-1.16-.74c.39-.09 1.26-.1 1.64.57 0 .03-.14.17-.2.24l-.28-.07Zm1.99 0c.1-.17.47-.57 1.16-.74-.39-.09-1.26-.1-1.64.57 0 .03.14.17.2.24l.28-.07Z" fill="url(#d)"/><path d="M12.71 4.65h-1.7c-.36.16-.67.64-.79.87.37.07 1.16.48 1.35 1.5h.54c0-.36.26-1.14 1.2-1.45-.1-.43-.44-.8-.6-.92Z" fill="url(#e)"/><path d="M12.1 6.9h-.54l.27.34.27-.35Z" fill="#150D02"/><path d="M10.68 7.63c-.6 0-1.39-.17-1.71-.26.07.6.81 1.19 1.17 1.4h-1.4c.22.23.85.68 1.56.68 1.33 0 1.56-1.42 1.52-2.13-.14.1-.55.3-1.14.3Z" fill="url(#f)"/><path d="M8 11.44c0-1.11.67-1.55 1-1.63H7.93c-1.45 0-1.9 1.45-1.93 2.18v1.06c0 .52.45.95 1 .95.56 0 1-.43 1-.95v-1.61Z" fill="url(#g)"/><defs><linearGradient id="a" x1="5.88" y1="6.71" x2="10.74" y2="6.71" gradientUnits="userSpaceOnUse"><stop stop-color="#BCBCBC"/><stop offset=".19" stop-color="#D9D9DB"/><stop offset=".43" stop-color="#BCBCBC"/><stop offset="1" stop-color="#878586"/></linearGradient><linearGradient id="b" x1="5.88" y1="9.37" x2="10.69" y2="9.37" gradientUnits="userSpaceOnUse"><stop stop-color="#BCBCBC"/><stop offset=".19" stop-color="#D9D9DB"/><stop offset=".43" stop-color="#BCBCBC"/><stop offset="1" stop-color="#878586"/></linearGradient><linearGradient id="c" x1="12.44" y1="5.83" x2="13.06" y2="5.08" gradientUnits="userSpaceOnUse"><stop stop-color="#CACACA"/><stop offset="1" stop-color="#918F90"/></linearGradient><linearGradient id="d" x1="11.07" y1="3.49" x2="11.07" y2="4.61" gradientUnits="userSpaceOnUse"><stop offset=".42" stop-color="#727071"/><stop offset="1" stop-color="#9E9C9D"/></linearGradient><linearGradient id="e" x1="11.77" y1="4.65" x2="11.77" y2="7.01" gradientUnits="userSpaceOnUse"><stop offset=".17" stop-color="#727071"/><stop offset="1" stop-color="#D9D9DB"/></linearGradient><linearGradient id="f" x1="10.53" y1="8.52" x2="11.36" y2="8.98" gradientUnits="userSpaceOnUse"><stop stop-color="#D5D3D4"/><stop offset="1" stop-color="#EBEAEB"/></linearGradient><linearGradient id="g" x1="9.15" y1="10.33" x2="6.68" y2="13.97" gradientUnits="userSpaceOnUse"><stop stop-color="#353C92"/><stop offset="1" stop-color="#4488C8"/></linearGradient></defs></svg>