<!-- by TradingView --><svg xmlns="http://www.w3.org/2000/svg" width="18" height="18" viewBox="0 0 18 18"><path fill="#F0F3FA" d="M0 0h18v18H0z"/><path d="M12.02 11c-.18.63-.44 1.2-.76 1.67A2.95 2.95 0 0 1 9.35 14v-3h2.67zm.73 0A8.3 8.3 0 0 1 11 14a7.24 7.24 0 0 0 3.5-3h-1.75zM7 14a7.24 7.24 0 0 1-3.5-3h1.75A8.3 8.3 0 0 0 7 14zm1.65 0a2.95 2.95 0 0 1-1.9-1.33A5.73 5.73 0 0 1 5.97 11h2.67v3zm-2.84-3.7h2.84V8H5.76a7.98 7.98 0 0 0 .05 2.3zm.08-3h2.76V4c-.7.12-1.36.59-1.9 1.36a5.63 5.63 0 0 0-.86 1.94zM7 4c-.7.72-1.57 2.1-1.82 3.3H3.34A5.93 5.93 0 0 1 7 4zm2.35 0v3.3h2.76a5.63 5.63 0 0 0-.85-1.94A3.03 3.03 0 0 0 9.35 4zm3.47 3.3A7.82 7.82 0 0 0 11 4c1.73.4 3.1 1.97 3.66 3.3h-1.84zm.12.7h1.95a4.55 4.55 0 0 1-.1 2.3h-1.9a8 8 0 0 0 .05-2.3zm-.7 0a7.98 7.98 0 0 1-.05 2.3H9.35V8h2.89zM5.06 8a8.76 8.76 0 0 0 .04 2.3H3.2A4.2 4.2 0 0 1 3.12 8h1.95z" fill="#FC0808"/></svg>