<!-- by TradingView --><svg width="18" height="18" viewBox="0 0 18 18" xmlns="http://www.w3.org/2000/svg"><path fill="#F0F3FA" d="M0 0h18v18H0z"/><path d="M4 4h3.82v.02l-.11.08-.26.16c-.32.2-.64.43-.88.73-.49.6-.65 1.27-.44 2.01a.85.85 0 0 1-.14.8c-.18.24-.35.48-.47.76-.1.26-.2.51-.07.8H5.4a.79.79 0 0 1-.09.04.79.79 0 0 0-.6.7c-.01.4.15.72.44.98.08.07.17.13.26.18l.12.07.05.04.03.01c0 .1-.08.11-.14.12h-.18l-.13.01-.3.03a.52.52 0 0 0-.38.3.42.42 0 0 0-.02.1l.14-.01.28-.02c.32 0 .64.05.94.16.27.1.48.27.69.46l.54.5.3.28c.2.17.42.26.66.34l.74.23c.07.03.13.07.19.12H4V4Zm3.92 1.62.11.06A7.47 7.47 0 0 1 9.1 6.75c.02.04.02.09.01.13a.41.41 0 0 1-.08.18l-.2.22-.18.19c-.07.07-.13.16-.18.24a.63.63 0 0 0-.08.5 1.18 1.18 0 0 0 .67.81c.06.03.13.05.2.06a1.44 1.44 0 0 0 .14-.48l.02-.1c.06-.33.27-.58.53-.77.17-.13.36-.15.56-.04l.13.08.66.54a.2.2 0 0 1-.04.2c-.11.13-.2.27-.3.41-.07.12-.12.25-.16.39-.06.15-.01.3.06.44a.27.27 0 0 0 .23.16l.17-.15c.18-.23.29-.49.4-.75l.02-.08.05-.1.02-.04c.09.04.08.1.06.15l-.03.12-.04.13-.02.2c.13.03.25 0 .36-.03l.15-.03a.48.48 0 0 0-.11-.61 7.17 7.17 0 0 0-.18-.13l-.08-.06.01-.1c.1-.03.17.02.24.06l.12.07c.2-.02.41-.07.6-.16.04-.01.06-.05.09-.08l.03-.04c-.03-.14-.12-.23-.2-.33-.08-.08-.15-.15-.2-.25l.13-.7-.15-.05-.07.17-.1.39c-.01.1-.04.2-.06.29l-.04.12c-.11-.01-.1-.08-.1-.14l.05-.2.02-.1c.05-.18 0-.29-.2-.4l-.05.05-.11.1c-.1.08-.19.13-.32.08-.05-.02-.11 0-.17.02h-.04l-.05.03c-.06.02-.11.04-.2 0 .07-.11.15-.2.24-.3.09-.1.18-.22.25-.35h-.35l-.01-.12c.19-.15.4-.14.63-.14h.07v-.18l-.1-.55-.01-.04a.94.94 0 0 0-.2-.4 1.45 1.45 0 0 0-.2-.22l-.11-.1c-.47-.37-.94-.75-1.54-.92A.46.46 0 0 1 9.68 4h4.29c.04.14.04 9.81 0 10h-1.63l-.19-.25-.43-.58a3.08 3.08 0 0 0-.93-.9 1.43 1.43 0 0 0-.19-.07.5.5 0 0 0 .04.35l.19.43a39.1 39.1 0 0 1 .23.53 38.54 38.54 0 0 0 .14.36c0 .04 0 .07-.02.1a.4.4 0 0 1-.08-.02l-.19-.12-.93-.58a1.47 1.47 0 0 1-.43-.45l-.02-.04-.29-.44c-.18-.3-.44-.54-.74-.7-.18-.1-.36-.18-.53-.26l-.25-.12a26.23 26.23 0 0 1-.25-.16.15.15 0 0 1-.02-.1c.03-.07.1-.07.16-.08a.28.28 0 0 0 .26-.24c.02-.15 0-.3-.05-.43a1.9 1.9 0 0 0-.2-.36c-.2-.3-.2-.61-.1-.94.08-.25.22-.47.36-.68.22-.34.3-.7.2-1.09a1.63 1.63 0 0 0-.08-.2h-.04a.77.77 0 0 0-.05.12.99.99 0 0 1-.38.62c-.1.08-.2.17-.29.27-.23.23-.27.53-.26.84.01.19.08.37.2.52.23.31.23.67.1 1.03-.1.25-.33.28-.5.07a1.78 1.78 0 0 1-.06-.07c-.06-.08-.12-.16-.23-.2l-.1.04c-.02.28 0 .34.33.66-.05.07-.12.07-.2.04a.97.97 0 0 1-.63-.77c-.08-.42.03-.8.24-1.15.15-.25.34-.48.56-.68.4-.37.64-.82.76-1.35.05-.25.1-.5.13-.75.02-.15.08-.3.17-.42.05-.06.1-.11.17-.16Zm3.04 5.03c0 .05 0 .1.02.14.04.25-.1.38-.34.3a3.2 3.2 0 0 1-.45-.19 5.63 5.63 0 0 0-1-.36 1.52 1.52 0 0 0-.52-.06c-.07 0-.15.01-.2.1.06.1.16.16.26.22l.13.06.21.12.43.3.3.2c.1.08.2.14.31.2.41.17.92.02 1.22-.3a.46.46 0 0 0 .1-.54.62.62 0 0 0-.36-.32l-.12.06.01.07Zm.32-.54c.08.08.16.17.23.27l.11.19.05.1.07.1a.35.35 0 0 0 .31.16c.24-.17.27-.3.13-.55l-.01-.01c-.11-.16-.12-.31.02-.46.06-.07.12-.14.09-.25-.06-.09-.14-.17-.26-.15-.14.02-.29.05-.42.1-.2.1-.29.3-.32.5Zm-1.11-4.55a.13.13 0 0 0-.1.04l.01.15.05.2c.1.24.12.5.05.74a1.2 1.2 0 0 0-.03.25.26.26 0 0 0 .12.23c.06 0 .12-.02.18-.04l.3-.15c.23-.15.26-.25.19-.52a1.47 1.47 0 0 0-.41-.67 1.63 1.63 0 0 0-.26-.2.13.13 0 0 0-.1-.03Z" fill="#1A4379"/></svg>