<!-- by TradingView --><svg width="18" height="18" viewBox="0 0 18 18" xmlns="http://www.w3.org/2000/svg"><path fill="#F0F3FA" d="M0 0h18v18H0z"/><path d="M9 13.7a4.7 4.7 0 1 0 0-9.4 4.7 4.7 0 0 0 0 9.4Zm0 .3A5 5 0 1 0 9 4a5 5 0 0 0 0 10Z" fill="#6BADDE"/><circle cx="9" cy="9" r="4.7" fill="#13216A"/><path fill-rule="evenodd" d="M8 8v4h3.33c.54 0 .67-.4.67-.59v-.82a.55.55 0 0 0-.56-.59c.45 0 .56-.4.56-.59v-.7c0-.57-.67-.71-.97-.71H8Zm1 .62v1.07h1.7a.3.3 0 0 0 .3-.3v-.47c0-.15-.13-.3-.3-.3H9Zm0 1.69v1.07h1.7c.11 0 .3-.15.3-.32v-.44c0-.16-.13-.31-.3-.31H9Z" fill="#6CAEDF"/><path d="M10 6H6v4h1V8.62h1.77V8H7V6.62h3V6Z" fill="#fff"/></svg>