<!-- by TradingView --><svg width="18" height="18" viewBox="0 0 18 18" xmlns="http://www.w3.org/2000/svg"><path fill="#F0F3FA" d="M0 0h18v18H0z"/><path d="M13.64 6c.16 0 .36.16.36.4v.2c0 .22-.2.4-.36.4H5.36C5.15 7 5 6.82 5 6.6v-.2c0-.24.15-.4.36-.4h8.28Z" fill="#007DA5"/><path d="M7.64 8c.21 0 .36.16.36.4v.2c0 .23-.15.4-.36.4H5.36C5.15 9 5 8.83 5 8.6v-.2c0-.24.15-.4.36-.4h2.28Z" fill="#FF671D"/><path d="M10.67 10c.2 0 .33.16.33.4v.2c0 .23-.13.4-.33.4H5.33c-.2 0-.33-.17-.33-.4v-.2c0-.24.14-.4.33-.4h5.34Z" fill="#007DA5"/><path d="M7.66 12c.2 0 .34.16.34.34v.32c0 .18-.15.34-.34.34H5.34a.34.34 0 0 1-.34-.34v-.32c0-.18.15-.34.34-.34h2.32Z" fill="#FF671D"/></svg>