<!-- by TradingView --><svg width="18" height="18" viewBox="0 0 18 18" xmlns="http://www.w3.org/2000/svg"><path fill="#F0F3FA" d="M0 0h18v18H0z"/><path d="M11.3 6.4c.26-.22.47-.4.62-.55.15-.15.28-.3.38-.46.1-.15.15-.31.15-.47 0-.16-.04-.3-.12-.38-.07-.1-.2-.14-.36-.14a.47.47 0 0 0-.38.15.63.63 0 0 0-.14.41H11c0-.31.1-.55.28-.71.18-.17.4-.25.69-.25.3 0 .53.08.7.25.16.16.25.38.25.65 0 .2-.05.38-.15.57-.1.18-.22.34-.36.48-.14.15-.31.31-.53.5l-.18.16H13V7h-2v-.34l.3-.25Z" fill="#57A352"/><path d="M7 6c-.8 0-1 .58-1 .88V13h1.5v-2.5h1c.8 0 1.39-1.11 1.5-1.5H7.5V8c0-.47.28-.5.5-.5h2c.8 0 .89-1.11 1-1.5H7Z" fill="#EC872B"/></svg>