<!-- by TradingView --><svg xmlns="http://www.w3.org/2000/svg" width="18" height="18" viewBox="0 0 18 18"><path fill="#F0F3FA" d="M0 0h18v18H0z"/><path fill-rule="evenodd" d="M4 7h2.58v1.1h-.64v-.37H5v1.09h.92v.73H5v.72h.29V11H4v-.73h.36V7.73H4V7zm3.12 0H9c.67 0 1.12.53 1.12 1.27 0 .58-.27 1.03-.7 1.2l.5.8h.53V11H9.42l-.94-1.45h-.36v.72h.33V11H7.12v-.73h.33V7.73h-.33V7zm1.74 1.83h-.74v-1.1h.74c.3 0 .6.22.6.54 0 .32-.3.56-.6.56zm4.4.35h-.6v.73h.47v.16c-.19.13-.4.2-.64.2-.65 0-1.18-.57-1.18-1.27 0-.7.53-1.27 1.18-1.27.33 0 .63.15.84.38V8.1H14V7h-.67v.22a1.73 1.73 0 0 0-.84-.22c-1.02 0-1.85.9-1.85 2s.83 2 1.85 2c.27 0 .53-.06.76-.18V11H14V9.18h-.75z" fill="#1E1D55"/><path d="M3 5.5h11.03V6H3.5v6h11.01V7.57H15v4.93H3v-7z" fill="#1E1D55"/><path d="M15 5h-1v1h1V5zm-.74 2.7h1.04l-.54-.7-.5.7z" fill="#1E1D55"/></svg>