<!-- by TradingView --><svg width="18" height="18" viewBox="0 0 18 18" xmlns="http://www.w3.org/2000/svg"><path fill="#F0F3FA" d="M0 0h18v18H0z"/><path fill-rule="evenodd" d="M6.68 5.14c.07-.2.31-.62.7-.68.5-.08.75.11.87.22a1.6 1.6 0 0 1 1.24.12c.05-.01.1-.08-.04-.23-.07-.04-.2-.14-.2-.27 0-.15.08-.3.29-.3.2 0 .33.23.33.34 0 .12.2.69.53.65.3-.04.3-.3.3-.37v-.01l-.04-.05c-.04-.05-.1-.12-.1-.22 0-.15.13-.26.3-.26.16 0 .33.11.33.3 0 .08-.04.16-.07.25a.9.9 0 0 0-.1.47c.02.17.17.42.32.68.12.22.25.44.3.62l.05.13.07.25v1.48c0 .11-.1.33-.32.3-.14-.02-.26-.07-.35-.1-.11-.06-.19-.09-.23-.05-.09.08.24.76.66.84.07 0 .17-.1.28-.19.08-.07.16-.14.21-.16.1.03.3.07.33.04.05-.04-.12-.42-.24-.45-.13-.04-.21-.08-.21-.23 0-.15.12-.23.2-.23.09 0 .25.05.25.18 0 .12.13.35.21.35.08 0 .08-.53.08-.68 0-.08-.03-.12-.07-.16-.02-.03-.05-.05-.05-.1 0-.12.08-.27.25-.27.16 0 .24.15.24.26 0 .06-.03.09-.06.12-.03.02-.06.05-.06.11 0 .11.04.68.37.72.22.03.26-.08.3-.18.01-.05.03-.1.07-.12.13-.08.25-.08.34 0 .08.07.04.23-.05.3a.24.24 0 0 1-.11.06c-.04 0-.07.02-.1.06l-.06.15c-.35.87-2.08 5.06-2.87 5.06-.15 0-.2-.1-.26-.21-.07-.12-.14-.25-.36-.25-.14 0-.21.14-.28.28-.08.15-.15.29-.3.29-.1-.01-.4-.08-.7-.27-.13-.08-.6-.45-1.16-.88-.96-.74-2.18-1.7-2.39-1.74-.21-.05-.27-.03-.34-.02a.6.6 0 0 1-.15.02c-.21 0-.33-.19-.3-.34.05-.15.21-.2.3-.2.02 0 .06.04.11.08.1.08.24.2.38.12.18-.1-.04-.28-.16-.38l-.04-.04-.62-.57c-.1-.01-.3-.08-.3-.23 0-.19.13-.3.21-.3.09 0 .3 0 .33.23 0 .02.05.12.25.3l.2.2c.13.14.23.26.38.26.2 0 .5-.12.45-.73-.04-.6-.99-1.7-1.52-1.75a.68.68 0 0 1-.25.04c-.17 0-.25-.15-.25-.3s.12-.23.25-.23c.07 0 .12.06.18.11.04.05.1.1.15.12l.07.02c.12.05.3.11.47.02.2-.12.16-.3.08-.5-.07-.15-.11-.29-.13-.34-.08-.05-.24-.19-.2-.34.04-.2.16-.23.2-.23.05 0 .33 0 .33.23v.1c0 .17 0 .28.13.47l.05.06c.15.21.3.43.49.4.2-.04.08-.61.04-.73a.58.58 0 0 0-.12-.14c-.13-.14-.33-.34-.3-.58.04-.34.7-.76 1-.8Zm3.6 1.07.35 1.74c.04.15.13.26.26.22.13-.03.17-.1.09-.34l-.09-.2c-.17-.46-.52-1.36-.52-1.42 0-.03 0-.04.02-.05.01-.02.04-.04.07-.18.03-.16-.13-.57-.23-.82l-.03-.1c-.05-.1-.1-.1-.05.05l.07.18c.07.19.17.43.1.46-.02.01-.12-.27-.19-.46l-.06-.18c-.05-.08-.1-.08-.05.04l.02.05c.07.15.23.56.16.59-.07.03-.2-.37-.28-.56l-.03-.08c-.04-.12-.08-.04-.04.03.02.04.26.65.22.65-.08 0-.25-.45-.3-.58v-.03c-.05-.11-.1-.07-.05.04l.04.12c.09.24.26.7.3.75.06.04.12.05.16.05.04 0 .06 0 .06.03ZM6.11 8.26c-.11-.3 0-.64.17-.68.18-.04.44.08.57.5.09.27-.02.4-.09.49l-.04.07c0 .08.4 1.07.57 1.33.17.27.26.65.08.65-.17 0-.3-.16-.34-.57a4.61 4.61 0 0 0-.44-1.37.31.31 0 0 0-.1-.05c-.12-.03-.29-.09-.38-.37Zm4.15 4.48c.44-.08.65-.95.42-1.72-.23-.82-.8-.96-1.09-1.03l-.11-.03c-.16-.32-.85-2.36-.9-3.39-.04-1.02-.5-1.56-.92-1.4-.5.19-.22.86.17 1.53.4.67 1.32 3.15 1.31 3.34 0 .05-.03.1-.07.17-.12.2-.31.53-.13 1.23.27 1.03.88 1.37 1.32 1.3Zm-3.78-1.57c0-.12.08-.1.13-.08l1.43 1.06a11 11 0 0 0 1.19.76c.16.07.42.3.25.41-.14.1-.42-.04-.55-.11l-1.01-.87c-.07-.06-.13-.03-.17-.01H7.7c-.04 0-.55-.4-.8-.63-.25-.23-.42-.38-.42-.53Zm5.86-1.02c.02-.04.1-.09.15.02.07.13 0 .34-.13.65-.12.3-.37.88-.4.9h-.06c-.04 0-.11.01-.14.08l-.5 1.2c-.07.12-.27.35-.43.32-.2-.03-.09-.34.03-.47.11-.14.54-.84.7-1.16.12-.26.57-1.13.78-1.54Z" fill="#9BCA3C"/></svg>