<!-- by TradingView --><svg width="18" height="18" viewBox="0 0 18 18" fill="none" xmlns="http://www.w3.org/2000/svg">
<rect width="18" height="18" fill="#C01923"/>
<path fill-rule="evenodd" clip-rule="evenodd" d="M9 10C9.8885 10 10.6868 9.61375 11.2361 9C10.6868 8.38625 9.8885 8 9 8C8.1115 8 7.31321 8.38625 6.76389 9C7.31321 9.61375 8.1115 10 9 10ZM9 7C10.081 7 11.0618 7.42881 11.7817 8.1256C11.9225 7.77802 12 7.39807 12 7C12 5.34315 10.6569 4 9 4C7.34315 4 6 5.34315 6 7C6 7.39806 6.07753 7.77802 6.21831 8.12559C6.93818 7.4288 7.91901 7 9 7ZM12.7091 8.50037C12.8967 8.03705 13 7.53059 13 7C13 4.79086 11.2091 3 9 3C6.79086 3 5 4.79086 5 7C5 7.53059 5.10331 8.03705 5.29091 8.50037L3.50264 8.50037C3.22504 8.50037 3 8.72422 3 9.00037C3 9.27651 3.22504 9.50037 3.50264 9.50037L5.29061 9.50037C5.1032 9.96348 5 10.4697 5 11C5 13.2091 6.79086 15 9 15C11.2091 15 13 13.2091 13 11C13 10.4697 12.8968 9.96348 12.7094 9.50037H14.4974C14.775 9.50037 15 9.27651 15 9.00037C15 8.72422 14.775 8.50037 14.4974 8.50037H12.7091ZM9 11C10.081 11 11.0618 10.5712 11.7817 9.87441C11.9225 10.222 12 10.6019 12 11C12 12.6569 10.6569 14 9 14C7.34315 14 6 12.6569 6 11C6 10.6019 6.07753 10.222 6.21831 9.87441C6.93818 10.5712 7.91901 11 9 11Z" fill="white"/>
</svg>
