<!-- by TradingView --><svg width="18" height="18" viewBox="0 0 18 18" xmlns="http://www.w3.org/2000/svg"><path fill="#F0F3FA" d="M0 0h18v18H0z"/><path d="m12 12 1.71-5H15l-1.29 4.34c-.12.38-.6.66-1.17.66H12Z" fill="url(#aq2w14zoe)"/><path d="m14 6 .37-1h1.13l-.14.4c-.06.36-.49.6-.97.6H14Z" fill="url(#bq2w14zoe)"/><path d="m12 7-.3 1H9.83a.38.38 0 0 0-.36.3L9 10.53a.39.39 0 0 0 .37.47h.97c.18 0 .3-.13.34-.31L11 9.48h-.51L10.6 9H12l-.54 2.26a.91.91 0 0 1-.9.74h-1.7c-.56 0-.96-.55-.84-1.09l.7-3.17c.1-.44.47-.73.9-.74H12ZM2 12h1l1-4v3.31c.02.32.24.61.57.68.33.07.66-.22.81-.5L7 8l-1 4h1l.99-4.31c.08-.4-.26-.69-.67-.69-.4 0-.91.22-1.1.58L5 10.5V7.94C4.99 7.25 4.5 7 4 7a1 1 0 0 0-1 .77L2 12Z" fill="#004C96"/><defs><linearGradient id="aq2w14zoe" x1="13.5" y1="7" x2="13.5" y2="12" gradientUnits="userSpaceOnUse"><stop offset=".2" stop-color="#6487BD"/><stop offset=".3" stop-color="#01499B"/></linearGradient><linearGradient id="bq2w14zoe" x1="14.33" y1="5.06" x2="15.01" y2="5.98" gradientUnits="userSpaceOnUse"><stop stop-color="#DD0B7B"/><stop offset=".43" stop-color="#FCDC09"/><stop offset="1" stop-color="#089AE8"/></linearGradient></defs></svg>