<!-- by TradingView --><svg width="18" height="18" xmlns="http://www.w3.org/2000/svg"><path fill="#F0F3FA" d="M0 0h18v18H0z"/><path d="M9.557 9.172c.147-.026.294-.047.442-.06v-.07c-.045-1.073-.922-1.905-1.958-1.868-1.037.047-1.844.96-1.798 2.031.012.282.077.551.204.795a14.165 14.165 0 013.11-.828zm.987-1.46a.385.385 0 00-.283.467c.05.21.238.35.443.303a.385.385 0 00.282-.467.368.368 0 00-.442-.302zM5.587 9.185a.367.367 0 00-.524.118c-.115.19-.07.42.114.538.172.118.41.072.525-.118a.395.395 0 00-.115-.538zm4.514-2.523a.367.367 0 00-.524.118.387.387 0 00.115.538c.172.118.41.072.524-.117a.41.41 0 00-.115-.539zM5.722 7.84a.367.367 0 00-.524.118.387.387 0 00.115.538c.172.117.41.071.524-.118a.397.397 0 00-.115-.538zm3.22-1.775a.367.367 0 00-.524.118.387.387 0 00.114.538c.172.118.41.072.525-.117a.408.408 0 00-.115-.539zm-2.49.677a.367.367 0 00-.525.118c-.115.19-.07.42.115.538.172.118.41.072.524-.117a.396.396 0 00-.115-.539zm1.261-.126a.368.368 0 01-.524.118.4.4 0 01-.115-.538.368.368 0 01.524-.118c.185.118.23.362.115.538z" fill="#FFD300"/><path d="M15.846 10.186c-.295-.187-2.878-1.698-6.919-1.006-3.687.633-5.725 3.308-5.846 3.494-.188.225-.009.412.139.285.907-.79 2.855-1.823 6.036-2.368 3.46-.594 6.631-.12 6.631-.12.088.038.221-.127-.041-.285z" fill="#56AA46"/></svg>