<!-- by TradingView --><svg xmlns="http://www.w3.org/2000/svg" width="18" height="18"><path fill="#F6821F" d="M0 0h18v18H0z"/><path d="M9.53 6.43c-.04-.64-.49-.77-.7-.75-.68 0-.8.75-.79 1.06.01.25.1.8.14 1.05.06.53-.25.63-.37.59-1.02-.33-.83-2.17-.84-2.79 0-.49-.26-.6-.4-.59-.25-.03-.76.13-.74 1.02.02 1.1.87 2.29 1.3 2.78.34.4 0 .59-.22.64l-2.53.47c-.2.04-.7.17-.87-.04-.13-.16-.25-.18-.3-.17-.18.05-.22.27-.2.38.08 1.28.9 1.38 1.12 1.37.18 0 .47-.1.59-.14.7-.3 2.31-.9 3.22-.9 1.13-.02 2.58 2.13 3.32 2.9.59.61.78.69 1.19.69.73-.08.74-1.56.61-2.17-.04-.2-.3-.38-.52-.08-.22.3-.6.23-.75.16-.4-.18-2-1.3-1.9-2.6.1-1.3 2.24-2.58 3.3-3.05.29-.13.86-.39.8-.77-.06-.45-.43-.5-.65-.49-1.26.05-2.48 1.55-2.8 2.01-.3.46-.74 1.06-1.1 1.07-.37.01-.3-.5-.1-.9.16-.31.2-.63.19-.75z" fill="#fff"/></svg>