<!-- by TradingView --><svg width="18" height="18" viewBox="0 0 18 18" xmlns="http://www.w3.org/2000/svg"><path fill="#F0F3FA" d="M0 0h18v18H0z"/><path d="m11.2 7.83.88-4.58c.04-.2-.23-.34-.38-.18l-6.65 7.58c-.12.14-.02.35.16.35H7.3c.08 0 .15-.04.19-.12l1.48-2.76a.21.21 0 0 1 .2-.12h1.83c.1 0 .19-.07.2-.17Z" fill="#BFD353"/><path d="M12.79 9h-3.1a.21.21 0 0 0-.2.12l-.29.6c-.07.13.04.28.2.28h.9c.17 0 .27.18.2.31l-.35.57a.21.21 0 0 1-.19.12h-.8a.21.21 0 0 0-.2.12l-2.25 3.73c-.05.1.09.2.17.12l6.06-5.61c.13-.14.04-.36-.15-.36Z" fill="#BFD353"/></svg>