<!-- by TradingView --><svg width="18" height="18" viewBox="0 0 18 18" xmlns="http://www.w3.org/2000/svg"><path fill="#F0F3FA" d="M0 0h18v18H0z"/><path d="m13.53 14-1.5-1.45.32-.28L13.53 14Z" fill="url(#an2h10nfd)"/><path d="M9 14A5 5 0 1 0 9 4a5 5 0 0 0 0 10Zm0-.14a4.86 4.86 0 1 0 0-9.72 4.86 4.86 0 0 0 0 9.72Z" fill="#07102F"/><circle cx="9" cy="9" fill="#023E96" r="4.61"/><path d="M6.37 12.27a2.46 2.46 0 0 1-1.16-1.54c.11.14.4.5.63.84.3.41.89.7 1.42 1.05.53.34 1.08.45 1 .48-.06.03-.86-.2-1.89-.83Z" fill="#035AA9"/><path d="m9.12 4.56-.25-.08c.48-.13 2.18-.17 3.75 1.58 1.57 1.74.85 3.94.71 3.89-.13-.05.52-1.46-.71-3.35-1.23-1.89-3.41-2.03-3.5-2.04Z" fill="#1879C6"/><path fill-rule="evenodd" d="M5.26 6.35 5.2 6.2l2.27-.51.13.74-.16.03c-.2-.47-.59-.48-.76-.43l-.5.17.19 1.17.63-.15c.27-.07.3-.34.27-.46l.17-.05.18.98-.18.05c-.1-.32-.34-.34-.46-.31l-.57.14c.04.2.13.68.2.96.07.28.33.23.46.17l.06.16-1.4.3-.03-.18c.27-.07.3-.23.29-.3-.11-.7-.34-2.12-.38-2.25-.05-.13-.26-.1-.36-.08Zm2.8 4.02-.22-.78h.19c.14.22.52.66.84.66.4 0 .66-.14.66-.48 0-.34-.27-.6-.56-.65L8.9 9.1c-.3-.05-.8-.14-1.1-.5-.26-.32-.2-.83.32-1.26.4-.33 1.09-.22 1.38-.12l.13.73-.17.04c-.23-.74-1.24-.84-1.24-.04 0 .37.42.46.86.55.51.11 1.06.23 1.06.79 0 1.04-.87 1.22-1.4 1.22-.41 0-.61-.1-.66-.14ZM9.93 8.7l-.05-.18a37.3 37.3 0 0 0 1.38-.24c.36-.08 1.16-.17 1.3.42.12.47-.25.81-.45.92.24-.01.74.07.82.54.17.64-.48.98-.82 1.08l-1.59.35-.05-.18c.34-.1.33-.3.29-.38l-.43-2.14c-.06-.27-.3-.24-.4-.2Zm1.24.98-.19-.93c0-.09.05-.27.32-.27.35 0 .57.15.63.49.06.35-.18.68-.76.71Zm.03.22.2 1c.04.1.18.31.41.21.3-.13.6-.3.44-.85-.1-.33-.44-.5-1.05-.36Z" fill="#FEFEF9"/><defs><linearGradient id="an2h10nfd" x1="12.39" y1="12.86" x2="12.6" y2="12.66" gradientUnits="userSpaceOnUse"><stop stop-color="#3B3C40"/><stop offset=".69" stop-color="#DADCDB"/></linearGradient></defs></svg>