<!-- by TradingView --><svg width="18" height="18" viewBox="0 0 18 18" xmlns="http://www.w3.org/2000/svg"><path fill="#F0F3FA" d="M0 0h18v18H0z"/><path d="m4.71 5.33-.63.45c-.68 5.41 3 8.4 4.92 9.22v-2.95a7.62 7.62 0 0 1-4.29-6.72Z" fill="url(#a)"/><path d="m13.29 5.33.63.45c.68 5.41-3 8.4-4.92 9.22v-2.95a7.62 7.62 0 0 0 4.29-6.72Z" fill="url(#b)"/><path d="M9 10.67a7.38 7.38 0 0 1-3.08-4.98L9 4.67v6Z" fill="url(#c)"/><path d="M9 10.67a7.38 7.38 0 0 0 3.08-4.98L9 4.67v6Z" fill="url(#d)"/><path d="M5.54 5v-.87L9 3v.88L5.54 5Z" fill="#C48B0A"/><path d="M12.46 5v-.87L9 3v.88L12.46 5Z" fill="#D5AD4D"/><defs><linearGradient id="a" x1="2.43" y1="7.14" x2="9.03" y2="13.06" gradientUnits="userSpaceOnUse"><stop stop-color="#CC9F38"/><stop offset="1" stop-color="#DAB96A"/></linearGradient><linearGradient id="b" x1="15.57" y1="7.14" x2="8.97" y2="13.06" gradientUnits="userSpaceOnUse"><stop stop-color="#C99623"/><stop offset="1" stop-color="#C48A0D"/></linearGradient><linearGradient id="c" x1="7.46" y1="4.67" x2="7.46" y2="10.67" gradientUnits="userSpaceOnUse"><stop stop-color="#C48A0D"/><stop offset="1" stop-color="#CD9D37"/></linearGradient><linearGradient id="d" x1="10.54" y1="4.67" x2="10.54" y2="10.67" gradientUnits="userSpaceOnUse"><stop stop-color="#D3AB4C"/><stop offset="1" stop-color="#C58E17"/></linearGradient></defs></svg>