<!-- by TradingView --><svg width="18" height="18" viewBox="0 0 18 18" xmlns="http://www.w3.org/2000/svg"><path fill="#F0F3FA" d="M0 0h18v18H0z"/><path d="M8.99 15a5.38 5.38 0 0 1-3.17-.9 6 6 0 0 1-2.78-5.77 5.88 5.88 0 0 1 2.03-3.86 5.82 5.82 0 0 1 5.04-1.37 5.94 5.94 0 0 1 4.23 3.17c.45.87.68 1.86.66 2.86a5.91 5.91 0 0 1-1.03 3.24A5.92 5.92 0 0 1 8.99 15Zm5.57-6.6a5.47 5.47 0 0 0-1.47-3.2 5.5 5.5 0 0 0-6.17-1.4 5.56 5.56 0 0 0-2.93 7.7 5.57 5.57 0 0 0 8.68 1.74c.45-.4.84-.87 1.17-1.4l.13-.26c0-.02-.02-.06 0-.07.3-.4.4-.9.52-1.39.14-.52.12-1.06.11-1.6.02-.05-.01-.09-.04-.13Z" fill="#0B0B0B"/><path d="m13.84 11.85-.02-.02c-.4.2-.92.2-1.11.78-.06.15-.17.28-.25.43-.14.25-.4.3-.68.16h-.05c-.33.35-.82.4-1.15.75a.45.45 0 0 1-.18.13.42.42 0 0 1-.22.01c-.22-.02-.4.13-.56.28-.12 0-.27-.07-.29.16-.16-.02-.37.1-.42-.23.55-.08.9-.52 1.14-.93.21-.37.46-.83.4-1.34-.15-.07-.25-.14-.38-.16a.29.29 0 0 1-.15-.09.33.33 0 0 1-.09-.16c-.04-.22-.18-.33-.32-.44-.37-.29-.4-.5-.16-.9a2 2 0 0 0 .22-.5c-.09-.21-.21-.18-.34-.06a.6.6 0 0 1-.26.15c-.1.03-.2.03-.3 0l-.06-.52a.34.34 0 0 0-.27-.05c-.2.04-.38.07-.55-.1-.13-.14-.24.06-.4.06-.2-.13-.36-.4-.66-.3-.08-.22-.08-.45-.27-.58-.23-.16-.22-.52-.46-.7-.16.3.1.46.12.7-.5-.18-.79-1.48-.49-2.17l.33-.02c-.12-.35-.3-.66-.29-1.06-.35.2-.63.42-.98.55.1-.23.22-.4.41-.49.34-.14.57-.46.89-.63.1-.06.18-.09.28-.03.1.05.22.05.32 0 .17-.05.32-.05.47.08.09.09.2.08.28-.03a.82.82 0 0 1 .13-.12c.12-.02.2.1.3.01.04-.1.04-.2-.09-.25a.26.26 0 0 1 .07-.09 3.27 3.27 0 0 1 1.6-.3c.28.01.37.2.4.56.03.19.05.37.17.56-.4-.03-.6-.46-.96-.44-.1.05 0 .2-.19.24-.1-.03-.25-.22-.44-.13-.1-.05-.12-.22-.27-.15-.15.13.11.23.01.38-.08.1-.25-.05-.36.08-.06.12-.01.22.11.23.24.03.43.13.52.43.08-.12.09-.24.16-.29 0-.17-.18-.24-.14-.42.22-.06.4.03.59.14l.14-.16c.09-.02.15 0 .2.07.04.06.1.1.16.12.06.02.13.02.2 0a.25.25 0 0 1 .16 0c.06.03.1.07.14.13.09.14.23.24.38.28-.03.31-.2.13-.33.12-.08-.02-.1.1-.19.1-.1-.09 0-.23-.08-.33a.55.55 0 0 0-.24.07.6.6 0 0 0-.2.17c.08.07.15-.02.22.02l.1.2c.1.07.23-.06.33.1-.14.1-.2.29-.36.34-.1-.07-.02-.19-.08-.26-.36.32-.43.51-.5 1.23l-.17.17c-.08.1-.1.2-.01.32.07.1.14.22.03.37a.47.47 0 0 1-.18-.2.53.53 0 0 1-.06-.26.35.35 0 0 0-.23-.08.35.35 0 0 0-.23.09.49.49 0 0 1-.37.1.44.44 0 0 0-.23.03.48.48 0 0 0-.2.15c-.05.5.02.65.39.85.17-.12.3-.32.52-.36h.14c.11.19 0 .38.05.58l.36.1c.14.13.07.3.11.46a.1.1 0 0 0 .08.02c.03 0 .05 0 .07-.03.18-.14.35-.2.57-.07.13.07.3.03.41-.1.1-.09.17-.2.27-.31l-.34-.13c.2-.1.25-.25.3-.42l.56.07c-.02.26-.23.21-.37.28.15.04.3.11.42.21.13-.01.21-.1.3-.17.16-.17.38-.2.56-.05.12.1.26.17.4.2a1 1 0 0 0 .46.02c.25-.04.43.11.55.34.14.25.32.4.61.34.12-.03.2.1.3.14.1 0 .19-.11.32.05l-.42 1.65-.13.27ZM8.53 4.4a.2.2 0 0 0-.04-.09.17.17 0 0 0-.08-.05l-.06.03.07.08.1.03Z" fill="#369807"/><path d="M12.16 4.6c.03.53-.34.72-.71.95.46.1.76-.23 1.13-.4 0 .33-.18.54-.34.74-.17.2-.44.22-.66.32.62.11 1.07-.32 1.56-.63-.1.75-.43 1.25-1.48 1.45.45.1.65.02 1.79-.69.07.39-.27.88-.76 1.12.34.01.48-.07 1-.55.09.32-.02.54-.52 1.1.32.05.45-.02.9-.5.04.28-.01.4-.4.98.3-.02.46-.26.64-.48.1.35-.11.57-.24.82-.02 0-.05.01-.05.06.04 0 .06.01.08-.03.24-.05.3-.3.46-.47.03.04.06.08.04.14-.1.05-.07.18-.1.27-.04.21-.11.4-.32.5-.33-.05-.49-.38-.73-.56-.4-.32-.81-.52-1.31-.51-.3 0-.51-.07-.65-.4a.57.57 0 0 0-.55-.36c-.25 0-.5.05-.75.01a.4.4 0 0 1-.28-.13.53.53 0 0 1-.15-.3c-.04-.2.06-.34.22-.45.14-.1.29-.2.44-.28a.81.81 0 0 0 .43-.9c-.04-.14-.14-.2-.23-.3-.1-.1-.2-.2-.18-.36.01-.18.1-.35.27-.3.3.1.55.03.78-.2a.35.35 0 0 1 .1-.05c.02.36-.12.57-.48.75.2.11.44.07.74-.14l.31-.21ZM3.92 7.16c.15 0 .24.18.41.12-.06-.19-.33-.25-.27-.52l.27.13c0-.17-.2-.27-.12-.45.08 0 .08.11.18.16l.21.03a3.02 3.02 0 0 0 2.39 3.2A2 2 0 0 1 8.4 10.9c.15.29.18.63.34.91.14.24.29.46.52.61.3.21.28.7-.05 1.03-.46.47-1 .74-1.65.67a2.3 2.3 0 0 1-1.19-.52c.68.12 1.36.37 2-.16a3 3 0 0 1-2.69-.63c.71.11 1.42.23 2.14.13.1-.02.18-.1.26-.16-1.04.12-2-.15-2.88-.7.84.07 1.67.33 2.5 0a4.1 4.1 0 0 1-2.68-.59c.7.05 1.4.2 2.08-.06a3.9 3.9 0 0 1-2.48-.56c.64.01 1.25.14 1.85-.14-.76 0-1.53.03-2.19-.58.45.11.92.12 1.37.02-.6-.03-1.17-.16-1.57-.73.19-.03.32.14.49.13.17 0 .34.11.53-.05-.47-.1-.87-.28-1.2-.7.26-.06.5.2.74 0-.31-.17-.66-.29-.85-.67.26.03.47.22.75.15-.28-.23-.63-.31-.75-.74.2.13.37.24.57.16-.14-.2-.43-.24-.47-.53l.02-.03Z" fill="#046496"/><path d="M10.03 8.42c0 .3-.11.34-.24.38-.1.03-.81-.15-.97-.26.43-.13.82.17 1.21-.12Zm-.15-4.1c.22-.25.4-.06.57-.12.06.1.01.17-.03.24-.2.08-.32-.1-.54-.12Zm.07 4.58c-.1.24-.14.25-.35.14.1-.09.2-.07.35-.13Z" fill="#369807"/></svg>