<!-- by TradingView --><svg width="18" height="18" viewBox="0 0 18 18" xmlns="http://www.w3.org/2000/svg"><path fill="url(#apmouiq4u)" d="M0 0h18v18H0z"/><path d="M9 3.5 4.34 6.1l1.06.57L9 4.58l4 2.18v3.94l1 .5V6.14L9 3.5Zm0 2.05L6.34 7.1l.93.53 1.71-.9L11 7.8v2.04l1 .49V7.18L9 5.55Zm-5 1.1V7.8l8.65 4.59 1-.65L4 6.65Zm0 2.99V8.48l8.03 4.28-1 .63L4 9.64Zm0 .86v1.16l5.28 2.84.99-.62L4 10.5Z" fill="#fff"/><defs><linearGradient id="apmouiq4u" x1="3.35" y1="3.12" x2="21.9" y2="24.43" gradientUnits="userSpaceOnUse"><stop stop-color="#1A1E21"/><stop offset="1" stop-color="#06060A"/></linearGradient></defs></svg>