<!-- by TradingView --><svg width="18" height="18" viewBox="0 0 18 18" xmlns="http://www.w3.org/2000/svg"><path fill="#F0F3FA" d="M0 0h18v18H0z"/><path d="M8.56 5.05c0-.3.3-.83.44-1.05.15.22.44.74.44 1.05h.09v-.04c.06-.3.45-.75.64-.94a2.65 2.65 0 0 1 .23 1.16l.12.03v-.03c.12-.28.59-.64.8-.79.06.27.14.87.03 1.14l-.01.03.1.05v-.02c.17-.25.7-.5.94-.6 0 .26-.03.87-.2 1.12l.08.07c.21-.21.78-.36 1.04-.4-.05.26-.2.83-.4 1.05L13 7a2.5 2.5 0 0 1 1.07-.16c-.1.23-.34.73-.57.92l.02.05c.29-.09.82 0 1.06.05-.13.2-.44.63-.7.78 0 .04.02.07.03.1.3 0 .78.17 1 .27-.17.17-.53.5-.8.62v.1c.3.07.7.31.89.45a3.1 3.1 0 0 1-.85.44l-.01.13c.27.13.6.43.75.6l-.28.1-1.05-.78h.04v-.09a1.66 1.66 0 0 1-.3-.1v-.6c.06-.03.15-.07.27-.1l-.01-.1a1.58 1.58 0 0 1-.27-.04l-.1-.6.2-.12a4.75 4.75 0 0 0-.04-.13h-.24l-.21-.55c.03-.04.08-.1.15-.15A4.95 4.95 0 0 0 13 8l-.2.05-.31-.51.1-.15-.14-.18a1.4 1.4 0 0 1-.16.07l-.4-.43c0-.03.03-.08.06-.14l-.16-.13-.12.09-.48-.34.03-.14a4.57 4.57 0 0 0-.19-.1l-.1.1-.52-.23v-.13a4.45 4.45 0 0 0-.22-.07c-.02.05-.05.08-.07.1l-.56-.1-.03-.13-.18-.01-.06.15H8.7a1.47 1.47 0 0 1-.06-.15l-.17.01c0 .05-.02.1-.03.12l-.56.12a1.33 1.33 0 0 1-.07-.11l-.22.06v.14l-.53.23a1.35 1.35 0 0 1-.1-.1l-.18.1.03.14-.48.34a1.38 1.38 0 0 1-.13-.1l-.15.13.07.15-.4.43-.18-.07-.14.17.12.16-.32.5c-.04 0-.12-.01-.2-.04l-.06.1c.08.06.13.11.16.15l-.21.55h-.25l-.04.12c.1.05.17.1.22.14l-.11.59a1.6 1.6 0 0 1-.28.04l-.01.1c.12.03.21.07.27.1v.59l-.04.03c-.06.02-.15.06-.26.08v.09h.04l-.99.78a3.7 3.7 0 0 1-.27-.1c.14-.15.43-.42.68-.56v-.17a3.1 3.1 0 0 1-.86-.44c.19-.14.6-.38.88-.45l.02-.1A3.02 3.02 0 0 1 3.1 9c.22-.1.69-.27.99-.26l.03-.11a2.94 2.94 0 0 1-.69-.78c.24-.05.76-.14 1.05-.06l.03-.05c-.24-.19-.48-.68-.57-.91.25-.01.8 0 1.06.16l.1-.13c-.2-.22-.34-.78-.39-1.04.26.04.82.19 1.03.4l.09-.07c-.17-.25-.2-.86-.2-1.13.24.1.77.36.93.61l.01.01.1-.05v-.02c-.12-.27-.04-.87.01-1.14a2.52 2.52 0 0 1 .81.82 5 5 0 0 1 .12-.04V5.2c-.06-.3.13-.87.23-1.12a2.57 2.57 0 0 1 .64.98 5 5 0 0 1 .08 0Z" fill="#004A98"/><path d="M5.05 10.19v-.52h3.48l-.66.66h-2.1l-.35-.37-.37.23ZM11.84 9.67h-1.58l.73.56.85-.56ZM6.2 10.67h1.22l-.54.43-.67-.43ZM12.92 10.1v-.43h-.5l.5.43ZM12.61 8.67c.1.2.18.43.24.66H9.87l-.45-.41-.46.41H5.14c.07-.23.15-.45.25-.66h7.22Zm-.17-.34a4.1 4.1 0 0 0-.49-.66h-5.9c-.19.2-.35.42-.49.66h6.88ZM11.19 7c.15.1.3.21.43.33H6.38c.14-.12.28-.23.43-.33h4.38Zm-.6-.33a3.9 3.9 0 0 0-3.17 0h3.16Z" fill="#004A98"/><path d="M5.99 12H3.13l2.16-1.77 1.45 1.04-.75.73ZM6.9 11.42l-.62.58h1.33l-.7-.58ZM9.41 9.14 7.1 11.28l.86.72h.55l2.26-1.63L9.4 9.14ZM12.56 12h-3.7l2.09-1.48 1.6 1.48ZM12.1 9.77l-.97.65L12.88 12h2.07L12.1 9.77Z" fill="#004A98"/></svg>