<!-- by TradingView --><svg width="18" height="18" xmlns="http://www.w3.org/2000/svg"><path fill="#F0F3FA" d="M0 0h18v18H0z"/><path d="M6.552 11.64c-.347-.315-.541-.705-.551-1.109v2.48c0 .109.015.217.045.323.177.647.894 1.233 1.955 1.666v-2.48a4.645 4.645 0 01-1.45-.875" fill="#004867"/><path d="M8.63 7.738a6.19 6.19 0 00-1.074.427c-.827.427-1.382 1.007-1.521 1.65a1.498 1.498 0 00-.035.321v2.458c.008-.4.16-.787.43-1.1.45-.549 1.227-1.004 2.203-1.296a8.413 8.413 0 011.633-.308l.893-1.295-.893-1.158a8.416 8.416 0 00-1.633.31" fill="#0097CC"/><path d="M12.197 4.043A10.213 10.213 0 0011.26 4a9.37 9.37 0 00-2.57.344 6.47 6.47 0 00-1.099.42c-.844.42-1.413.988-1.555 1.62-.024.104-.036.21-.036.315V9c.078-.344.246-.668.49-.945a4.539 4.539 0 012.204-1.421 9.379 9.379 0 012.571-.344c.313 0 .626.014.937.043L13 5.155l-.803-1.112z" fill="#4DB8DF"/></svg>