<!-- by TradingView --><svg xmlns="http://www.w3.org/2000/svg" width="18" height="18" viewBox="0 0 18 18"><path d="M18 0H0v18h18V0Z" fill="#F0F3FA"/><path d="M13.23 5H4.77c-.42 0-.77.4-.77.9v6.2c0 .5.35.9.77.9h8.46c.42 0 .77-.4.77-.9V5.9c0-.5-.35-.9-.77-.9Z" fill="#F9A01F"/><path d="M5 11.68V7.92C5 6.43 5.5 6 7 6h5.72c.15 0 .28.15.28.34v.32c0 .19-.13.34-.28.34H8.14C7.3 7 7 7.5 7 8h4.73c.15 0 .27.14.27.32v.36c0 .18-.12.32-.27.32H7v2.68c0 .17-.12.32-.27.32H5.27c-.15 0-.27-.15-.27-.32Z" fill="#F0F3FA"/></svg>