<!-- by TradingView --><svg xmlns="http://www.w3.org/2000/svg" width="18" height="18"><path fill="#0171BB" d="M0 0h18v18H0z"/><ellipse cx="9" cy="9" rx="5.21" ry="4.99" transform="rotate(11.06 9 9)" fill="#878988"/><path fill-rule="evenodd" d="M13.67 9.95a5.04 5.04 0 01-5.42 3.95l.27-1.83a56.2 56.2 0 01-2.06-.4c.35 1.1.93 1.72 1.3 1.94a3.37 3.37 0 01-1.63-2.02c-.6-.14-.93-.24-1.12-.3l1.05.07a7.46 7.46 0 01-.25-2.79v-.03c-.45-.1-.75-.18-.9-.23l.93.07c.19-1.02.53-1.82.94-2.44-.6-.13-.96-.22-1.14-.28.43.02.86.06 1.27.1.84-1.15 1.9-1.6 2.42-1.6-.53.1-1.44.56-2.15 1.62.99.1 1.83.23 2.25.33l.35-1.95a5.29 5.29 0 013.4 2.6l-1.13-.2c-.29-.89-.8-1.7-1.68-2.13.39.22.97.88 1.29 2.07l-2.22-.38-.06.33 2.36.4c.14.67.19 1.47.1 2.43L9 8.81l-.05.35 2.83.47a6.47 6.47 0 01-.81 2.48l-2.4-.39-.05.35 2.24.36a3.42 3.42 0 01-1.96 1.44c.5 0 1.45-.39 2.26-1.4l.55.1-.23-.39-.09-.01c.43-.62.8-1.43.99-2.46l1.38.23v.01zm-5.1 1.77l.38-2.56c-1.12-.2-2.04-.39-2.73-.53a7.65 7.65 0 00.16 2.76c.97.1 1.75.22 2.19.33zm.8-5.27L9.02 8.8c-.46-.1-1.58-.27-2.76-.38A6.3 6.3 0 017.05 6l2.33.45zm4.35 3.15l-1.38-.23c.06-.62.04-1.54-.19-2.44l1.2.2c.34.77.48 1.62.37 2.48V9.6z" fill="#fff"/><path d="M2.5 9.38a3.6 3.6 0 012.37-3.53l-.35.6a3.69 3.69 0 00-1.57 2.93c.36 2.6 4.49 2.54 6.74 1.45v.4c-1.09.64-2.83.75-3.69.75-.74 0-3.37-.53-3.5-2.6zm12.14-1.72c-1.3.94-2.95 1.96-3.66 2.35v.2c.97-.49 2.67-1.6 3.4-2.13L13 10.3l1.94-2.45.76.97-.53-1.17.82-.53-.9.19.15-1.37-.46 1.37-1.92-.5 1.77.84z" fill="#fff"/></svg>