<!-- by TradingView --><svg width="18" height="18" viewBox="0 0 18 18" xmlns="http://www.w3.org/2000/svg"><path fill="#F0F3FA" d="M0 0h18v18H0z"/><path d="M7.24 7.45c-.02-.02-.04-.02-.05 0v.02a.1.1 0 0 1 0 .07.02.02 0 0 0 0 .02c.04.07-.01.1-.08.1-.07.02-.12.06-.14.13v.02c.08.04.13.1.14.18l.01.02c.08.09.14.19.17.3h.01c.12-.1.26-.3.16-.45a.02.02 0 0 1 0-.02l.1-.12a.01.01 0 0 1 0-.01.02.02 0 0 1 .01 0 .1.1 0 0 0 .08.02.02.02 0 0 1 .02 0l.13.1v.05c-.07.08-.15.17-.17.28a.97.97 0 0 1-.07.18v.02h.01l-.02.02c-.05.12-.1.25-.22.32h-.02a.83.83 0 0 1-.33-.25.47.47 0 0 0-.07-.09v-.03h-.03c-.02 0-.03.02-.02.04h-.02a2.7 2.7 0 0 0-.34.56.04.04 0 0 0 .02.02c.28.12.72.35.88.64v.02l-.16.25a9.04 9.04 0 0 0-.53.76c-.03.08 0 .2.02.28l.01.01.22.2.01.02c0 .04-.02.06-.05.06-.19.02-.35-.04-.46-.17-.06-.08-.13-.13-.23-.14h-.01v-.02c.05-.1.13-.19.21-.25.08-.15.19-.34.22-.5a.54.54 0 0 1 .27-.4.02.02 0 0 0 0-.02 1.34 1.34 0 0 0-.72-.16H6.2c-.11.2-.34.58-.54.66-.14.06-.28.14-.43.23l-.02.03h-.02c-.15.11-.32.24-.37.43-.03.1-.04.16-.1.23l-.01.01v.01c0 .06.05.16.01.22l-.02.01c-.2 0-.25-.13-.28-.32a3.24 3.24 0 0 0-.04-.3l.26-.11h.04l.02-.01.27-.35c.05-.12.12-.2.23-.26.08-.05.19-.06.25-.14.03-.04.05-.07.05-.1.01-.17.05-.34.12-.5a.22.22 0 0 0 .01-.09c0-.21.07-.38.24-.5.16-.11.23-.55.26-.73l-.01-.01-.34-.15h-.01c-.12.13-.28.4-.22.58.01.05.05.08.08.12v.02l-.02.15-.01.01h-.01c-.06 0-.11 0-.17.02H5.4c-.12-.08-.08-.27-.04-.38a.21.21 0 0 0 .02-.08c0-.2.03-.38.11-.58.09-.13.22-.17.38-.19l.2.04c.11.03.2.01.31.09h.02c.1-.02.23 0 .26-.1a.1.1 0 0 0 0-.07.32.32 0 0 0-.05-.07v-.1c-.03-.12.02-.2.13-.23.23-.08.46 0 .45.26v.02c.04.05.06.1.06.15Z" fill="#1C1E23"/><path d="M7.19 7.3c.03.05.04.1.05.15.23.07.43.19.6.37h.03l1.08-.89v-.01C8.46 6.3 7.8 6.03 7 6a3.75 3.75 0 0 0-3.55 1.87c-.41.75-.57 1.7-.32 2.52.43 1.34 1.75 1.7 3.04 1.59.42-.04.82-.13 1.18-.28.4-.15.83-.42 1.06-.77a.31.31 0 0 0 .05-.12L8.9 8.3v-.01H7.57c-.05.14-.14.34-.25.41h-.02a.83.83 0 0 1-.33-.25.47.47 0 0 0-.07-.09h-.05l-.02.01a2.7 2.7 0 0 0-.35.56.04.04 0 0 0 .02.02c.3.12.73.35.89.64v.02l-.16.25-.09.48v.02c-.12.07-.25.12-.4.17l-.04.09c-.03.08 0 .19.02.27l.01.02.22.2.01.02c0 .04-.02.06-.05.06-.19.02-.35-.04-.46-.17-.06-.08-.13-.13-.23-.14h-.01v-.02c.05-.1.12-.19.21-.25-.44.04-.83.07-1.23-.16h-.02c-.15.11-.32.24-.37.43v.02c-.03.1-.04.15-.1.21l-.01.01V11.2c.02.06.04.12.01.16l-.02.01c-.2 0-.25-.13-.28-.32a3.24 3.24 0 0 0-.04-.3l.26-.11h.04l.02-.01.27-.35c-.38-.42-.39-.89-.28-1.4.1-.48.37-.94.8-1.22.09-.13.22-.17.38-.19.24-.08.48-.11.74-.11v-.1c-.03-.12.02-.2.13-.23.23-.08.46 0 .45.26v.02Zm-.24 3.91Z" fill="url(#a3w0oc1yl)"/><path d="M11.1 12H8.76l.7-3.7.01-.01h1.63v.01l-.45 2.24.01.03h.25c.96.02 1.88-.2 2.23-1.19.25-.73.16-1.77-.8-1.93a2.05 2.05 0 0 0-.3-.02H9.55l-.02-.03.25-1.38L9.8 6h2.55A2.58 2.58 0 0 1 15 8.57c-.04 1.95-1.85 3.44-3.9 3.43Z" fill="url(#b3w0oc1yl)"/><defs><linearGradient id="a3w0oc1yl" x1="14.91" y1="7.37" x2="7.58" y2="13.08" gradientUnits="userSpaceOnUse"><stop stop-color="#FC2F0E"/><stop offset="1" stop-color="#EFED4C"/></linearGradient><linearGradient id="b3w0oc1yl" x1="14.91" y1="7.37" x2="7.58" y2="13.08" gradientUnits="userSpaceOnUse"><stop stop-color="#FC2F0E"/><stop offset="1" stop-color="#EFED4C"/></linearGradient></defs></svg>