<!-- by TradingView --><svg width="18" height="18" viewBox="0 0 18 18" xmlns="http://www.w3.org/2000/svg"><path fill="#F0F3FA" d="M0 0h18v18H0z"/><path d="M8.12 5.12c-.54.53-1.3.47-1.75.01a1.26 1.26 0 0 1 .4-2.03 1.24 1.24 0 0 1 1.35.27 1.2 1.2 0 0 1 0 1.76Z" fill="url(#ayymtazo3)"/><path d="m8.25 14.63 4.38-4.44a1.29 1.29 0 0 0-.9-2.18c-.32 0-.65.13-.88.36l-4.39 4.45c-.24.24-.46.56-.46.9 0 .34.22.66.46.9a1.26 1.26 0 0 0 1.79.02Z" fill="url(#byymtazo3)"/><path d="M8.7 5.67 6.36 8.03a1.25 1.25 0 0 0 .86 2.13c.33 0 .65-.13.88-.36l2.33-2.36a1.25 1.25 0 0 0-.86-2.13c-.33 0-.65.13-.88.36Z" fill="url(#cyymtazo3)"/><path d="M12.62 10.13a1.21 1.21 0 0 1-1.35.28 1.26 1.26 0 0 1-.42-2.04 1.24 1.24 0 0 1 1.77 0 1.2 1.2 0 0 1 0 1.76Z" fill="#0BC11C"/><defs><linearGradient id="ayymtazo3" x1="5.13" y1="6.34" x2="7.92" y2="3.51" gradientUnits="userSpaceOnUse"><stop stop-color="#0BC11C" stop-opacity="0"/><stop offset=".87" stop-color="#0BC11C"/></linearGradient><linearGradient id="byymtazo3" x1="9.86" y1="9.66" x2="4.98" y2="13.17" gradientUnits="userSpaceOnUse"><stop offset=".14" stop-color="#0BC11C" stop-opacity="0"/><stop offset=".64" stop-color="#0BC11C" stop-opacity=".8"/><stop offset="1" stop-color="#0BC11C"/></linearGradient><linearGradient id="cyymtazo3" x1="5.76" y1="15.45" x2="14.6" y2="8.89" gradientUnits="userSpaceOnUse"><stop stop-color="#0BC11C" stop-opacity="0"/><stop offset=".87" stop-color="#0BC11C"/></linearGradient></defs></svg>