<!-- by TradingView --><svg width="18" height="18" viewBox="0 0 18 18" xmlns="http://www.w3.org/2000/svg"><path fill="url(#a)" d="M0 0h18v18H0z"/><path d="M9.53 13.78c-.15.06-.35.13-.53.14a4.59 4.59 0 0 1-1.66-.14.26.26 0 0 1-.22 0 5.4 5.4 0 0 1-.4-.21c-.07-.05-.26-.03-.23.12a.04.04 0 0 1-.01.04l-.02.01h-.03A1.43 1.43 0 0 1 6 13.4l-.2-.12a.06.06 0 0 1-.02-.05.06.06 0 0 1 .04-.05l.1-.04a.02.02 0 0 0 0-.02.02.02 0 0 0-.01-.02c-.4-.01-.82-.56-.99-.88a.22.22 0 0 1-.02-.05c-.07-.3-.29-.44-.56-.69a.4.4 0 0 1-.13-.3l-.02-.09c-.1-.16-.17-.34-.23-.54-.1-.38-.18-.77-.24-1.17a5.18 5.18 0 0 1 2.8-4.93c.51-.25 1.03-.38 1.56-.39.22 0 .37.1.45.3.1.25.14.52.12.8-.02.27-.1.46-.36.55-.45.15-.97.26-1.38.53a.18.18 0 0 0-.05.05c-.11.18-.28.37-.52.57a.82.82 0 0 0-.28.5c0 .03-.02.05-.03.07l-.07.09v.01l-.25.52a.06.06 0 0 0 0 .04c.01.04.04.07.05.13a1.44 1.44 0 0 1-.08.55l-.03.02-.03.01h-.03a.17.17 0 0 0-.07-.02.06.06 0 0 0-.05.04c-.1.19-.05.25.03.45a.1.1 0 0 1 0 .07l-.05.2v.06a.74.74 0 0 1 .09.33l.24.63a.08.08 0 0 1-.01.08c-.19.27-.18.54.02.8l.02.04c.18.33.28.53.32.58.39.54.9.94 1.52 1.2a6.6 6.6 0 0 0 1.89.46.03.03 0 0 1 0 .04v.02ZM11.58 6.37c-.13-.17-.3-.35-.5-.33a.08.08 0 0 1-.06-.02c-.16-.14-.42-.28-.65-.24a.06.06 0 0 0-.04.03l-.02.08v.02a.03.03 0 0 1-.03 0 .52.52 0 0 1-.16-.08c-.03-.01-.04-.05-.04-.1s-.04-.08-.12-.1a1.09 1.09 0 0 0-.33-.03.07.07 0 0 1-.06-.02.42.42 0 0 1-.13-.35c0-.03.02-.06.04-.08a.13.13 0 0 1 .09-.04c.58.02 1.11-.12 1.63-.18.27-.03.71 0 .92.2.4.41.73.85.97 1.34.03.06.07.1.12.14l.36.25c.05.03.09.09.11.15.07.17.1.38.26.52a.1.1 0 0 1 .04.06 10.4 10.4 0 0 1 .14 1.85l.68.07c.38.04-.1.65-.22.75a.07.07 0 0 1-.08 0 .9.9 0 0 0-.45-.1h-.01a.04.04 0 0 0-.02.04c.01.25-.13.45-.23.66a.94.94 0 0 0-.08.3c0 .05-.02.1-.05.13-.14.2-.3.4-.5.6a40.33 40.33 0 0 1-.7.88c-.09.11-.25.25-.48.41a.1.1 0 0 0-.04.04l-.04.1a.12.12 0 0 1-.05.05.87.87 0 0 1-.28.11c-.37.06-.6.08-.9.26a.54.54 0 0 1-.28.05.07.07 0 0 1-.05-.02l-.03-.04a.07.07 0 0 0-.05-.03.36.36 0 0 1-.17-.04.03.03 0 0 1-.02-.02.03.03 0 0 1 .03-.02c.16 0 .3-.06.4-.18l.34-.36c.05-.05.16-.1.33-.15l.04-.03c.04-.07.08-.11.12-.13.34-.1.62-.3.82-.59a3.39 3.39 0 0 1 .3-.42l.25-.5c.05-.08.1-.22.18-.43.02-.05.03-.11.02-.17 0-.15.02-.3.06-.45a.7.7 0 0 0 0-.32v-.04l-.01-.74c0-.17-.05-.35-.13-.56a3.7 3.7 0 0 0-.2-.92l-.64-.8-.02-.02a2.82 2.82 0 0 0-.41-.21c-.05-.03-.08-.08-.09-.16v-.01a.03.03 0 0 1 .03-.02h.09a.03.03 0 0 0 0-.03v-.01Z" fill="#fff"/><path d="M7.94 8.92a.04.04 0 0 1-.03-.03c0-.25.04-.48.14-.69v-.05c.01-.07.04-.13.08-.2.23-.37.56-.6 1-.7.5-.1 1.12.05 1.45.47a1.93 1.93 0 0 1 .28.64l-.01.02a.06.06 0 0 1-.04.03 2.23 2.23 0 0 0-.84.29c-.19.05-.36.08-.51.08h-.08c-.47.12-.95.16-1.44.14ZM12.9 10.2v.02h-.03c-.4.03-.77.12-1.13.28a.45.45 0 0 0-.24.28c-.08.22-.13.48-.35.64a4.24 4.24 0 0 1-2.2.41c-.35-.05-.7-.2-1.03-.43a1.18 1.18 0 0 1-.35-.35 60.78 60.78 0 0 0-.18-.34.1.1 0 0 1 .03-.05c.07-.08.1-.16.1-.24a.08.08 0 0 0-.03-.04l-.14-.14-.01-.03v-.03c0-.02.02-.04.04-.05h.06c.62.2 1.3.27 1.93.07a40.01 40.01 0 0 1 2.16-.6h.53l.8-.16a.05.05 0 0 1 .03.01.05.05 0 0 1 .02.04l-.01.41v.03c.03.08.03.17 0 .27ZM6.03 11.1l-.2.17a.06.06 0 0 1-.05.01.06.06 0 0 1-.05-.04c-.1-.25 0-.4.11-.64v-.02l-.2-.56a.07.07 0 0 1 .01-.07l.02-.02.31-.12a.22.22 0 0 1 .25.06l.29.3a.2.2 0 0 1 .04.2c-.03.1-.03.19.01.28a.05.05 0 0 1-.02.06c-.16.1-.33.03-.48.19-.05.05-.06.1-.03.13a.05.05 0 0 1 0 .07ZM3.86 10.6a.03.03 0 0 1 .06 0l.12.34c.04.08.1.16.1.25 0 .16.1.29.22.38a.03.03 0 0 1 .01.04v.01l-.02.01-.52.21a.06.06 0 0 1-.07-.02 2.85 2.85 0 0 0-.18-.19c-.05-.05-.09-.15-.14-.16a.12.12 0 0 1-.07-.05c-.08-.12-.15-.22-.26-.26a.07.07 0 0 1-.05-.05.07.07 0 0 1 .02-.07l.3-.27c.05-.05.1-.07.18-.06l.03.01.08.08v.01a.03.03 0 0 0 .03 0l.16-.21Z" fill="#fff"/><defs><linearGradient id="a" x1="3.35" y1="3.12" x2="21.9" y2="24.43" gradientUnits="userSpaceOnUse"><stop stop-color="#1A1E21"/><stop offset="1" stop-color="#06060A"/></linearGradient></defs></svg>