<!-- by TradingView --><svg width="18" height="18" xmlns="http://www.w3.org/2000/svg"><path fill="url(#paint0_linear)" d="M0 0h18v18H0z"/><path d="M2 8.312l1.717-.58.923 1.512 1.222-.454-.671-1.57 1.483-.513.616 1.571 1.063-.375-.391-1.571L9.06 6l1 .332s-.251 1.024-.42 1.605c.365.136 1.064.375 1.064.375l.643-1.524s.98.295 1.428.466c-.223.512-.447 1.024-.671 1.57.392.137.875.324 1.266.427l.874-1.478L16 8.358 13.537 12H4.359L2 8.312z" fill="#fff"/><defs><linearGradient id="paint0_linear" x1="3.349" y1="3.122" x2="21.904" y2="24.434" gradientUnits="userSpaceOnUse"><stop stop-color="#1A1E21"/><stop offset="1" stop-color="#06060A"/></linearGradient></defs></svg>