<!-- by TradingView --><svg width="18" height="18" xmlns="http://www.w3.org/2000/svg"><path fill="#00599B" d="M0 0h18v18H0z"/><path d="M11.271 6l-.175-1.245a.311.311 0 00-.072-.143.178.178 0 00-.138-.061L8 4.485v4.218l2.053-.002a.183.183 0 00.144-.072.288.288 0 00.079-.132L10.39 8h.614v2.002h-.614l-.115-.548a.288.288 0 00-.078-.132.195.195 0 00-.144-.072L8 9.254v3.904c0 .055.028.108.068.16.044.051.11.08.199.088l.733.11V14H6v-.485l.743-.044c.088-.007.153-.037.193-.088a.243.243 0 00.066-.16l.01-8.446a.243.243 0 00-.066-.16c-.04-.051-.105-.08-.193-.088L6 4.485V4h6v2h-.729z" fill="#fff"/></svg>