<!-- by TradingView --><svg width="18" height="18" viewBox="0 0 18 18" xmlns="http://www.w3.org/2000/svg"><path fill="#F0F3FA" d="M0 0h18v18H0z"/><path d="M11 9a2 2 0 1 1-4 0 2 2 0 0 1 4 0Z" fill="#D74027"/><path d="M10.63 8.63a1.63 1.63 0 1 1-3.26 0 1.63 1.63 0 0 1 3.26 0Z" fill="#B03120"/><path d="M10.1 8.41a1.24 1.24 0 1 1-2.5 0 1.24 1.24 0 0 1 2.5 0Z" fill="#DC7336"/><path d="M9.21 8.01a.62.62 0 1 1-1.24 0 .62.62 0 0 1 1.24 0Z" fill="#FBE792"/><path fill-rule="evenodd" d="M11.6 12.66c.3-1.1.33-2.58 0-4.17a9.28 9.28 0 0 0-1.65-3.83C9.2 3.74 8.49 3.4 7.94 3.52c-.56.11-1.1.69-1.4 1.82a9.22 9.22 0 0 0-.02 4.17 9.28 9.28 0 0 0 1.66 3.83c.74.93 1.46 1.25 2.01 1.14.55-.11 1.1-.69 1.4-1.82Zm-1.3 2.31c1.67-.34 2.48-3.28 1.8-6.58-.67-3.3-2.59-5.7-4.27-5.36-1.67.34-2.49 3.28-1.8 6.58.67 3.3 2.58 5.7 4.26 5.36Z" fill="#B6B6B6"/><path fill-rule="evenodd" d="M7 12.9a9.53 9.53 0 0 0 3.73-1.97 9.37 9.37 0 0 0 2.63-3.26c.47-1.08.42-1.86.06-2.29-.36-.42-1.13-.62-2.29-.35A9.53 9.53 0 0 0 7.4 7a9.37 9.37 0 0 0-2.63 3.26c-.48 1.08-.42 1.86-.06 2.29.36.42 1.13.61 2.29.35Zm-2.68-.03c1.1 1.3 4.11.6 6.73-1.56 2.62-2.15 3.86-4.95 2.76-6.25-1.1-1.3-4.11-.6-6.73 1.56-2.62 2.15-3.86 4.95-2.76 6.25Z" fill="#B6B6B6"/><path fill-rule="evenodd" d="M4.54 9.45c.85.78 2.16 1.5 3.74 1.94 1.58.45 3.08.53 4.22.32 1.17-.21 1.8-.7 1.95-1.23.16-.53-.11-1.27-.99-2.06a9.53 9.53 0 0 0-3.74-1.94 9.61 9.61 0 0 0-4.22-.32c-1.17.21-1.8.7-1.95 1.23-.16.53.11 1.27.99 2.06Zm-1.48-2.2c-.47 1.62 1.8 3.7 5.08 4.62 3.28.93 6.32.37 6.8-1.25C15.4 9 13.14 6.92 9.86 6c-3.28-.94-6.32-.37-6.8 1.25Z" fill="#B6B6B6"/><path d="M7.07 6.4c0 .37-.3.67-.67.67a.67.67 0 0 1-.68-.67c0-.36.3-.66.68-.66.37 0 .67.3.67.66Z" fill="#D74027"/><path d="M6.77 6.2c0 .23-.2.42-.42.42a.42.42 0 0 1-.42-.41c0-.23.19-.42.42-.42.23 0 .42.19.42.42Z" fill="#DC7336"/><path d="M6.47 6.07c0 .12-.1.21-.21.21a.2.2 0 0 1-.21-.2c0-.12.1-.21.2-.21.12 0 .22.09.22.2Z" fill="#FBE792"/><path d="M14.34 5a1 1 0 1 1-2 0 1 1 0 0 1 2 0Z" fill="#D74027"/><path d="M14.16 4.82a.82.82 0 1 1-1.63 0 .82.82 0 0 1 1.63 0Z" fill="#B03120"/><path d="M13.9 4.7a.62.62 0 1 1-1.25 0 .62.62 0 0 1 1.24 0Z" fill="#DC7336"/><path d="M13.45 4.5a.31.31 0 1 1-.62 0 .31.31 0 0 1 .62 0Z" fill="#FBE792"/><path d="M14 12a1 1 0 1 1-2 0 1 1 0 0 1 2 0Z" fill="#D74027"/><path d="M13.55 11.7a.62.62 0 1 1-1.25 0 .62.62 0 0 1 1.25 0Z" fill="#DC7336"/><path d="M13.1 11.5a.31.31 0 1 1-.61 0 .31.31 0 0 1 .62 0Z" fill="#FBE792"/></svg>