<!-- by TradingView --><svg xmlns="http://www.w3.org/2000/svg" width="18" height="18"><path fill="url(#awklkxn22)" d="M0 0h18v18H0z"/><path d="M7.52 8.41A26.1 26.1 0 012 7c.1.3.49.92.64 1.14.13.18.37.32.48.37 1.25.58 2.78.95 3.38 1.06l1.02-1.16z" fill="url(#bwklkxn22)"/><path d="M10.48 8.41A26.1 26.1 0 0016 7c-.1.3-.49.92-.64 1.14a1.4 1.4 0 01-.48.37c-1.25.58-2.78.95-3.38 1.06l-1.02-1.16z" fill="url(#cwklkxn22)"/><path d="M6.19 9.9A9.83 9.83 0 013.42 9c.24.36.81 1.1 1.17 1.25.35.14.9.25 1.13.28l.47-.63z" fill="url(#dwklkxn22)"/><path d="M11.81 9.9a9.83 9.83 0 002.77-.9 4.4 4.4 0 01-1.17 1.25c-.35.14-.9.25-1.13.28l-.47-.63z" fill="url(#ewklkxn22)"/><path d="M7.93 10.2l-.44.62h2.99l-.45-.63h-2.1z" fill="url(#fwklkxn22)"/><path d="M8.24 8.28C7.74 8.28 5.67 10.9 5 12c1.11-.1 1.67-.47 1.81-.64.6-.92 1.36-1.93 1.53-2.12.14-.15.28-.18.33-.18h.57c.13 0 .3.12.36.18.33.32 1.16 1.55 1.53 2.12.4.42 1.4.6 1.84.64-1.26-1.98-2.83-3.72-3.3-3.72H8.24z" fill="url(#gwklkxn22)"/><defs><linearGradient id="awklkxn22" x1="3.35" y1="3.12" x2="21.9" y2="24.43" gradientUnits="userSpaceOnUse"><stop stop-color="#1A1E21"/><stop offset="1" stop-color="#06060A"/></linearGradient><linearGradient id="bwklkxn22" x1="2.13" y1="7.28" x2="7.21" y2="8.14" gradientUnits="userSpaceOnUse"><stop offset=".26" stop-color="#1F99D6"/><stop offset="1" stop-color="#D8E8F0"/></linearGradient><linearGradient id="cwklkxn22" x1="15.87" y1="7.28" x2="10.79" y2="8.14" gradientUnits="userSpaceOnUse"><stop offset=".26" stop-color="#1F99D6"/><stop offset="1" stop-color="#D8E8F0"/></linearGradient><linearGradient id="dwklkxn22" x1="3.74" y1="9.31" x2="5.96" y2="9.81" gradientUnits="userSpaceOnUse"><stop stop-color="#1A7BA8"/><stop offset="1" stop-color="#1D8CCF"/></linearGradient><linearGradient id="ewklkxn22" x1="14.26" y1="9.31" x2="12.04" y2="9.81" gradientUnits="userSpaceOnUse"><stop stop-color="#1A7BA8"/><stop offset="1" stop-color="#1D8CCF"/></linearGradient><linearGradient id="fwklkxn22" x1="10.18" y1="10.51" x2="7.73" y2="10.51" gradientUnits="userSpaceOnUse"><stop stop-color="#84C6E2"/><stop offset="1" stop-color="#61AAD1"/></linearGradient><linearGradient id="gwklkxn22" x1="8.98" y1="8.28" x2="8.98" y2="12" gradientUnits="userSpaceOnUse"><stop stop-color="#F7F7F6"/><stop offset=".48" stop-color="#827D7C"/><stop offset=".68" stop-color="#7A716E"/><stop offset="1" stop-color="#9E928D"/></linearGradient></defs></svg>