<!-- by TradingView --><svg width="18" height="18" viewBox="0 0 18 18" xmlns="http://www.w3.org/2000/svg"><path fill="#F0F3FA" d="M0 0h18v18H0z"/><path d="M7.99 4.1a5 5 0 1 0 3.33 9.35 5.04 5.04 0 0 0 2.55-3.17C14 9.86 14 9.77 14 9c0-.72-.02-.89-.1-1.2a4.85 4.85 0 0 0-1.35-2.33c-.54-.54-.84-.73-1.16-.73-.24 0-.3.04-.35.2l-.03.1-.33-.12a3.37 3.37 0 0 0-2.16-.06c-.54.17-.92.4-1.3.78-.54.56-.8 1.17-.8 1.93s.26 1.39.8 1.93a2.71 2.71 0 0 0 4.22-.45c.32-.5.39-.75.4-1.46 0-.54-.02-.66-.1-.9-.16-.39-.41-.74-.73-.98a6.12 6.12 0 0 1-.36-.3c-.09-.08-.09-.08 0-.17.06-.08.12-.1.28-.07.53.07 1.29.83 1.53 1.52.23.67.23 1.5 0 2.18-.2.58-.42.94-.87 1.4-.34.32-.48.43-.87.62-.78.4-1.58.48-2.43.25a3.54 3.54 0 0 1-2.45-2.49 3.78 3.78 0 0 1 .02-1.68c.58-2.01 2.6-3.12 4.85-2.67a5.39 5.39 0 0 0-2.72-.2Z" fill="url(#answh1wws)"/><path d="M11.06 5.2 11 5.04l-.33-.12a3.37 3.37 0 0 0-2.16-.06c-.54.17-.92.4-1.3.78-.54.56-.8 1.17-.8 1.93s.26 1.39.8 1.93a2.71 2.71 0 0 0 4.22-.45c.32-.5.39-.75.4-1.46 0-.54-.02-.66-.1-.9-.16-.39-.41-.74-.73-.98a6.12 6.12 0 0 1-.36-.3c-.09-.08-.09-.08 0-.17.06-.08.12-.1.28-.07l.13.03Z" fill="url(#bnswh1wws)"/><circle opacity=".5" cx="10.07" cy="6.44" fill="#ACD728" r="1.12"/><circle opacity=".5" cx="10.07" cy="6.44" fill="#EBE509" r=".87"/><circle opacity=".5" cx="10.07" cy="6.44" fill="#EBE509" r=".66"/><defs><linearGradient id="answh1wws" x1="13" y1="7.36" x2="8.23" y2="13.53" gradientUnits="userSpaceOnUse"><stop stop-color="#C5D922"/><stop offset=".47" stop-color="#18B59D"/><stop offset="1" stop-color="#0F4279"/></linearGradient><linearGradient id="bnswh1wws" x1="11.83" y1="5.82" x2="8.04" y2="9.94" gradientUnits="userSpaceOnUse"><stop stop-color="#A1CE3E"/><stop offset=".39" stop-color="#1AAEA9"/><stop offset=".62" stop-color="#055D9D"/><stop offset="1" stop-color="#252D51"/></linearGradient></defs></svg>