<!-- by TradingView --><svg width="18" height="18" xmlns="http://www.w3.org/2000/svg"><path fill="#F0F3FA" d="M0 0h18v18H0z"/><path d="M8.598 4.014a5.3 5.3 0 00-1.909.505c-1.548.755-2.484 2.201-2.673 4.127-.033.322-.013.781.047 1.143.022.14.042.211.042.218 0 .006 2.491-.014 5.538-.007h5.637l.109-.056c.115-.084.208-.162.208-.17a1.66 1.66 0 00-.108-.207L15.004 9H5c.108-2.196 1.322-3.778 3.598-4 2.43-.233 4.106 1.312 4.402 3.68.08 0 1 .013 1-.023 0-1.487-1.036-3.064-2.236-3.86-.886-.588-1.997-.863-3.166-.783z" fill="#CF112B"/><path d="M5 11.993L8.992 12H13s.552-.607.711-1H4.3c.108.416.7.993.7.993zM6 13c.027.017.177.119.29.183 1.954 1.084 3.74 1.135 5.624-.124L12 13H6z" fill="#000"/></svg>