<!-- by TradingView --><svg width="18" height="18" viewBox="0 0 18 18" xmlns="http://www.w3.org/2000/svg"><path fill="url(#axkketgqm)" d="M0 0h18v18H0z"/><path d="M12.68 5.33C12.36 4.9 11.46 4 9.4 4 6.5 4 4 5.33 4 9s2.5 5 5.4 5c.96 0 3.09-.47 3.6-1V9H9v.5l1 .5v3.33h-.6C8.33 13.23 7 11.93 7 9c0-2.67 1.11-4.34 2.4-4.34.9 0 1.56.09 2.06.37-.59.12-1.03.66-1.03 1.3 0 .74.57 1.34 1.28 1.34.71 0 1.29-.6 1.29-1.34 0-.37-.08-.75-.32-1Z" fill="#F0F3FA"/><defs><linearGradient id="axkketgqm" x1="18" y1="0" x2="0" y2="18" gradientUnits="userSpaceOnUse"><stop offset=".2" stop-color="#715195"/><stop offset="1" stop-color="#0CBEC4"/></linearGradient></defs></svg>