<!-- by TradingView --><svg xmlns="http://www.w3.org/2000/svg" width="18" height="18"><path fill="#20263C" d="M0 0h18v18H0z"/><path d="M5.1 6c1.28 0 1.9.53 2.05.8l-.13.69-.82.34c-.04-.15-.32-.43-1.1-.45-.79-.02-1.1.56-1.1.86v1.68c0 .32.27.75.97.75.8 0 1.04-.33 1.03-.55v-.45H5V8.33h1.8l-.5 2.92L7.83 6h1.88l1.66 5.25L10.39 6h1.24l1.87 3.23V6H15v6h-1.17L12 8.93V12H9.67l-.27-1.13c-.03-.12-.13-.2-.18-.2h-.87l.3-1.34h.63l-.52-2.02L7.73 12H6.08l.07-.27c-.27.2-1.05.27-1.43.27-2.18-.04-2.2-.76-2.22-3.17C2.48 6.4 3.5 6 5.1 6z" fill="#fff"/></svg>