<!-- by TradingView --><svg width="18" height="18" viewBox="0 0 18 18" xmlns="http://www.w3.org/2000/svg"><path fill="#A7BAC8" d="M0 0h18v18H0z"/><path d="M14 9.34c-.22.01-.4.04-.53.09-.5.12-.47.6-.47 1.02v2.53c-.15.13-.39.26-.67.38a8.88 8.88 0 0 1-3.06.64c-.82 0-1.58-.13-2.28-.4a4.82 4.82 0 0 1-1.77-1.15 4.14 4.14 0 0 1-.92-1.47C4.1 10.43 4 9.8 4 9.1c0-.75.13-1.43.38-2.05.25-.63.6-1.17 1.03-1.61.45-.45.98-.8 1.6-1.06C7.63 4.13 8.3 4 9.05 4c.68 0 1.35.11 2.02.33.29.1.5.15.66.15.16 0 .3-.04.42-.14.12-.09.2-.2.24-.34h.31l.13 3h-.33a4.65 4.65 0 0 0-1.05-1.63c-.59-.53-1.3-.8-2.14-.8-.53 0-1.03.1-1.49.3-.45.21-.83.5-1.15.88-.3.37-.55.85-.73 1.45a6.35 6.35 0 0 0 0 3.7c.18.53.44.99.78 1.36.34.37.74.66 1.22.86a4.17 4.17 0 0 0 3.02.05c.18-.07.32-.16.42-.26.1-.11.17-.23.17-.35v-1.94c0-.26-.02-.47-.05-.64a.6.6 0 0 0-.18-.36.7.7 0 0 0-.39-.2c-.17-.04-.4-.07-.7-.08V9H14v.34Z" fill="#fff"/></svg>