<!-- by TradingView --><svg width="18" height="18" viewBox="0 0 18 18" xmlns="http://www.w3.org/2000/svg"><path fill="#F0F3FA" d="M0 0h18v18H0z"/><path d="M14 5v8H4V5.1c.02-.04.04-.08.07-.1H14Z" fill="#FFD300"/><path d="M6.35 6H5.18c-.1 0-.18.08-.18.17v1.44c0 .1.08.17.18.17h1.17c.1 0 .19-.08.19-.17V6.17c0-.1-.09-.17-.19-.17ZM13.34 9a4.3 4.3 0 0 1-1.03 2.92.23.23 0 0 1-.09.06.25.25 0 0 1-.1.02h-1.05l-.04-.01a.08.08 0 0 1-.03-.03.07.07 0 0 1 0-.07c.5-.88.76-1.84.77-2.89a5.67 5.67 0 0 0-.78-2.93c0-.01 0-.02.02-.03l.03-.03h1.09c.03 0 .07 0 .1.02.03 0 .06.03.08.05A4.3 4.3 0 0 1 13.34 9ZM10.28 8H7.72c-.04 0-.08.05-.08.12v1.76c0 .07.03.12.08.12h2.56c.05 0 .08-.05.08-.11V8.12c0-.06-.03-.12-.08-.12ZM6.4 10.22H5.13c-.07 0-.13.05-.13.12v1.54c0 .06.06.12.12.12H6.4c.07 0 .13-.05.13-.12v-1.54c0-.07-.05-.12-.12-.12Z"/></svg>