<!-- by TradingView --><svg width="18" height="18" viewBox="0 0 18 18" xmlns="http://www.w3.org/2000/svg"><path fill="#00A8E3" d="M0 0h18v18H0z"/><path d="M11.93 9.83a1.04 1.04 0 0 0-.56-.34c-.17-.05-.4-.07-.68-.07H7.21c-.1 0-.2-.05-.29-.15a.3.3 0 0 1-.05-.29c.04-.17.18-.26.4-.26h3.39c.46 0 .78.02.97.09.35.11.65.32.88.6a2.42 2.42 0 0 1 .41 2.04 2 2 0 0 1-.51.98c-.28.28-.61.46-1 .53-.13.02-.5.04-1.1.04H8c-.62 0-1.04-.03-1.25-.09a2.51 2.51 0 0 1-1.45-1.05c-.1-.14-.18-.35-.25-.64a3.21 3.21 0 0 1-.04-.68V7.18c0-.5.15-.91.45-1.26.53-.61 1.2-.92 2-.92h5c.2 0 .33.03.41.09a.3.3 0 0 1 .14.23c0 .12-.04.22-.12.3a.46.46 0 0 1-.3.1H7.42c-.4 0-.76.14-1.1.42-.25.2-.4.46-.47.76-.02.09-.03.37-.03.86v2.49c0 .48 0 .78.03.88.06.26.2.5.43.7.2.18.45.31.73.39.14.04.38.06.7.06h2.86c.47 0 .8-.04.96-.11.53-.23.75-.7.67-1.57a1.38 1.38 0 0 0-.28-.77Z" fill="#fff"/></svg>