<!-- by TradingView --><svg width="18" height="18" viewBox="0 0 18 18" xmlns="http://www.w3.org/2000/svg"><path fill="#001A6E" d="M0 0h18v18H0z"/><path d="M12.22 8.96c.05.36.14.71.27 1.04.36-.2.76-.38 1.19-.53a8.03 8.03 0 0 0-1.18-.74l-.28.23Zm.15 2.29c.22 0 .45 0 .67.02-.14-.18-.4-.53-.63-1.04-.3.19-.58.4-.82.62l.11.42c.22-.02.45-.02.67-.02Zm-.57 1.45v-.06a8.53 8.53 0 0 0-.22-1.21l-.57.05c-.17.22-.32.46-.45.71.4.08.81.25 1.24.51Zm-1.4-.53a3.92 3.92 0 0 1 .4-.67c-.72.09-1.44.24-2.16.44l.48.42a2.17 2.17 0 0 1 1.28-.2Zm-1.16.31c.33.32.58.64.75.94.04-.21.12-.63.34-1.1l-.25-.02a2 2 0 0 0-.84.18Zm-1.23.94a3.08 3.08 0 0 1 .97-.98L8.45 12l-.78.26c.08.38.2.78.34 1.17Zm.29-1.54c-.23-.18-.5-.36-.77-.54.02.25.06.5.1.75l.67-.21Zm-.8-1.14.01.29A11.7 11.7 0 0 0 11 9.63c-.16-.38-.34-.75-.53-1.1-.06.14-.13.27-.2.38C9.83 9.63 9.23 10 8.49 10c-.29 0-.6-.05-.92-.16-.04.3-.06.6-.06.91Zm-1.04.64c-.07.42-.14.85-.19 1.28.17-.09.61-.3 1.21-.51a7.6 7.6 0 0 1-.12-.92l-.9.15Zm-1.44-.06h.09c.26 0 .68-.02 1.21-.08l.12-.57-.79-.41c-.2.39-.43.74-.68 1.06h.05Zm.45-2.7c-.26.33-.63.62-1.09.86.22.1.66.3 1.2.57.17-.32.32-.65.45-1.01a10.25 10.25 0 0 1-.56-.42Zm-.95-1.06a11.54 11.54 0 0 0 .92.83c.2-.3.3-.63.32-1-.4.04-.83.1-1.24.17Zm2.03-.2-.63.03c-.01.4-.13.77-.36 1.1a8.14 8.14 0 0 0 .53.4c.17-.48.33-1 .46-1.53Zm.23-1.12a8.03 8.03 0 0 1-1.23-.32c.14.25.36.75.37 1.3l.67-.02.2-.96Zm1.03.12c-.3-.02-.6-.05-.87-.1l-.19.94h.1l.6.01.36-.85Zm.34-.76c-.32-.29-.66-.57-1.02-.83-.01.2-.06.7-.16 1.34.28.04.59.08.9.1l.28-.6Zm.14.13-.01-.01-.24.5.68.02h.1c-.17-.18-.36-.35-.53-.51ZM9 4.37a14.53 14.53 0 0 0-.65 1.2c.23.21.5.45.7.68l.12-.15.51-.53a4.4 4.4 0 0 1-.67-1.21v.01Zm.25 1.86.98-.07c-.16-.15-.31-.3-.45-.47l-.06.06c-.16.15-.32.3-.46.47Zm1.65-1.44a7.28 7.28 0 0 0-1 .8c.16.2.35.38.55.55l.41-.06c.04-.34.06-.72.07-1.1v-.21l-.02.01Zm1.2 2.46a6.22 6.22 0 0 1-1.15-.56c-.06.41-.14.79-.23 1.12.44.14.87.31 1.29.5v-.05c0-.33.03-.67.1-1.01Zm.4-1.31c-.22.05-.77.18-1.49.28l-.04.3a5.84 5.84 0 0 0 1.16.57c.09-.38.2-.76.36-1.15Zm-.27 2.65-.05-.02.01.2.09-.06.07-.06a8.57 8.57 0 0 0-.12-.06Zm-1.05 1.1c.14.32.26.66.36 1 .24-.22.52-.43.81-.6a4.8 4.8 0 0 1-.28-1.02c-.28.22-.58.43-.89.62Zm.36 1.59-.08-.3-.31.33.39-.03Zm-.13-.48c-.08-.27-.18-.55-.28-.82l-.03-.08a6.51 6.51 0 0 0-.05-.13 11.85 11.85 0 0 1-3.48 1.4c.33.22.64.44.92.65.81-.23 1.63-.4 2.44-.49.14-.18.3-.36.48-.53Zm.54-2.34c-.4-.2-.84-.36-1.28-.5l-.13.39c.21.38.41.78.58 1.19.32-.2.63-.42.93-.65a5.51 5.51 0 0 1-.04-.4 3.3 3.3 0 0 0-.06-.03Zm-1.1-2.22-.23.03.2.16.03-.19Zm-1.7.15c.34.38.66.8.94 1.23l.48.14c.1-.34.17-.73.23-1.16l-.4-.3c-.43.05-.85.07-1.25.09Zm1.37 1.52-.3-.1.21.36.1-.26ZM10 7.76c-.52-.14-1.06-.24-1.6-.31-.4.7-.67 1.45-.8 2.23.32.1.62.16.9.16.68 0 1.23-.34 1.63-1 .09-.15.17-.3.24-.48-.11-.2-.24-.4-.37-.6Zm-.13-.2c-.25-.37-.53-.72-.82-1.05-.2.25-.4.52-.56.8.47.05.93.14 1.38.25Zm-2.24-.34.69.06c.18-.3.39-.6.62-.89a16.6 16.6 0 0 1-.96-.02c0 .03-.02.06-.03.08l-.04.1c-.1.22-.2.45-.28.67Zm-.05.15c-.25.66-.47 1.33-.66 2.01.18.1.36.18.53.24.13-.76.4-1.5.78-2.2l-.65-.05Zm-.85-.02c-.14.58-.3 1.13-.5 1.63l.55.33c.18-.66.39-1.31.63-1.95h-.68Zm-.25 3.16c.07-.35.16-.7.25-1.05-.18-.1-.36-.2-.55-.33-.14.35-.29.68-.44.99l.74.4Zm.11.25-.09.45.67-.1a19.4 19.4 0 0 0-.58-.35Zm.2-.07.57.34a7.82 7.82 0 0 1 .06-1.25 5.23 5.23 0 0 1-.54-.24c-.1.35-.18.7-.26 1.06a8.06 8.06 0 0 1 .18.1Zm5.7-2.15c.34-.3.67-.62.99-.96-.2-.02-.66-.1-1.21-.28a5.37 5.37 0 0 0-.1 1.09l.32.15Zm1.5.97.01.01.01.01h-.01l-.02.01h-.02l-.05.02-.03.01c-.48.16-.92.35-1.32.58a4.15 4.15 0 0 0 .73 1.15l.04.04.05.05.02.02.03.03.01.01h-.09l-.07-.01h-.05a11.29 11.29 0 0 0-1.48-.02c.19.78.22 1.32.23 1.42V13l-.03-.02-.02-.01-.04-.03-.03-.02a3.7 3.7 0 0 0-1.36-.58 4.1 4.1 0 0 0-.38 1.5l-.01.16-.12-.27a4.24 4.24 0 0 0-.89-1.17 2.82 2.82 0 0 0-1.02 1.08l-.03.05-.02.06-.02.03-.01.02v.02l-.01-.02-.01-.03-.01-.03-.03-.05-.01-.05c-.18-.45-.31-.9-.4-1.34-.58.22-.99.4-1.18.5h-.02l-.1.06-.04.02-.04.03H6.1l-.02.02h-.01v-.06l.01-.05v-.03l.2-1.4a9.95 9.95 0 0 1-1.5.07h-.14l.01-.01.02-.02.01-.02.04-.04.02-.03c.27-.33.53-.72.76-1.15a23 23 0 0 0-1.35-.63l-.04-.02-.05-.02-.03-.01-.03-.01H4l.01-.02h.03l.03-.02.05-.03.04-.02c.52-.24.92-.55 1.18-.9-.58-.47-.98-.89-1.03-.94l-.03-.04-.03-.03-.02-.02-.02-.01v-.01l.03-.01h.02l.05-.01h.04c.47-.1.94-.16 1.41-.2a2.92 2.92 0 0 0-.44-1.4v-.01l-.01-.01-.04-.06-.05-.07-.02-.03-.03-.04-.01-.01h.02l.04.02.04.01.08.04.06.02c.43.16.9.3 1.4.38a16.49 16.49 0 0 0 .18-1.46v-.14H7l.02.02.02.02.04.02.03.02c.39.28.76.58 1.12.9.4-.8.7-1.27.74-1.32l.02-.04.03-.04.01-.03.02-.02V4l.01.01.02.05.02.06v.03c.17.48.4.92.7 1.31.61-.57 1.13-.88 1.17-.9l.03-.02.04-.02.04-.03v.05l.01.05v.38c0 .39-.03.75-.06 1.1.75-.12 1.3-.25 1.5-.3l.08-.02.04-.01.05-.02h.03l.03-.01v.03l-.02.03-.02.05-.02.04c-.19.43-.33.86-.41 1.28a6.5 6.5 0 0 0 1.34.3h.1l.02.01h.04v.01l-.02.02-.02.02-.04.04-.02.03c-.33.37-.7.73-1.06 1.05.8.44 1.25.8 1.26.82l.03.02.03.03.02.02Z" fill="#fff"/></svg>