<!-- by TradingView --><svg width="18" height="18" viewBox="0 0 18 18" xmlns="http://www.w3.org/2000/svg"><path fill="#F0F3FA" d="M0 0h18v18H0z"/><path d="M4.33 9v1.46c-.25.42-.71.54-1.1.54C2.46 11 2 10.15 2 9.12v-.24C2 7.88 2.41 7 3.2 7c.6 0 1.06.43 1.13 1.28h-.57c-.04-.41-.24-.65-.55-.65-.49 0-.61.7-.61 1.25v.24c0 .6.16 1.25.67 1.25.16 0 .35-.03.47-.2V9.6h-.57V9h1.16ZM6.23 9.2h-.8v-.6h.67c.24 0 .52-.1.52-.5 0-.42-.26-.5-.53-.5h-.5V11H5V7h1.1c.52 0 1.11.23 1.11 1.1 0 .64-.38.91-.8.93l-.18.17ZM6.2 11h-.95l.25-.6h.7c.25 0 .55-.2.55-.57 0-.39-.25-.63-.52-.63h-.69v-.52h.85l.14.22c.42 0 .8.32.8.93 0 .87-.58 1.17-1.13 1.17ZM9.23 9.2h-.8v-.6h.67c.24 0 .52-.1.52-.5 0-.42-.26-.5-.53-.5h-.5V11H8V7h1.1c.52 0 1.11.23 1.11 1.1 0 .64-.38.91-.8.93l-.18.17ZM9.2 11h-.95l.25-.6h.7c.25 0 .55-.2.55-.57 0-.39-.25-.63-.52-.63h-.69v-.52h.85l.14.22c.42 0 .8.32.8.93 0 .87-.58 1.17-1.13 1.17ZM11.58 7v4H11V7h.58ZM13 7l-1.48 2.96-.12-.8.9-2.16h.7Zm-.7 4-.84-1.85.43-.51L13 11h-.7ZM13.5 7h1.28c.56 0 1.07.34 1.07 1.2 0 .74-.38 1.17-.87 1.2h-1.19v-.6h1.04c.27 0 .48-.2.48-.6 0-.4-.24-.6-.52-.6H14V11h-.5V7Zm1.92 4-.69-1.78h.58L16 11h-.58Z"/></svg>