<!-- by TradingView --><svg width="18" height="18" viewBox="0 0 18 18" xmlns="http://www.w3.org/2000/svg"><path fill="#F0F3FA" d="M0 0h18v18H0z"/><path d="M3 9.1a.94.94 0 0 0 .01-.2c-.04-.43.28-.54.61-.49.33.05.64.13.96.2l3 .7c.53.1 1.01.29 1.38.7.22.26.33.54.24.9l-.9 3.56c-.1.43-.33.59-.76.51a4.8 4.8 0 0 1-1.95-.88A6.16 6.16 0 0 1 3 9.1Z" fill="#6EC04A"/><path d="M9.48 7.46c.01.27 0 .54-.02.8-.04.37-.2.47-.51.3A42.44 42.44 0 0 1 4.67 5.9c-.4-.28-.43-.5-.15-.88.17-.22.36-.41.58-.57.15-.12.33-.09.5-.02.86.37 1.73.7 2.6 1.06.54.22.91.64 1.19 1.14.15.27.08.58.1.82ZM13.46 5a6.6 6.6 0 0 1 1.32 2.53c.04.14.06.3.04.44-.04.24-.25.33-.43.4-.51.22-1.04.4-1.59.49-.27.04-.53.07-.8-.04-.1-.05-.2-.1-.24-.23a3.86 3.86 0 0 1-.25-.98.76.76 0 0 1 .1-.47c.13-.22.28-.41.38-.64L13.02 5l.03-.01.02-.04a.11.11 0 0 0 .1-.05c.11-.02.2.04.29.1Z" fill="#6EBF4B"/><path d="M13.08 13.16c-.35-.9-.61-1.83-.79-2.77.06-.21.2-.33.37-.43.65-.38 1.37-.62 2.07-.88a.22.22 0 0 1 .25.05c.06.4-.01.83-.1 1.24a6.07 6.07 0 0 1-1.33 2.68c-.16.2-.23.22-.47.1ZM7.74 8.73c-.04.1-.08.14-.19.12a80.6 80.6 0 0 1-4.3-1.06c-.11-.18-.02-.36.03-.53.07-.3.19-.58.33-.85.15-.27.27-.3.53-.14.32.2.63.42.94.63l2.43 1.63c.08.05.18.1.23.2ZM10.5 3.18a.5.5 0 0 1 .07.39 15.12 15.12 0 0 1-.48 2c-.13.34-.29.37-.53.1l-.49-.62a.37.37 0 0 1-.06-.33c.1-.55.34-1.04.53-1.55a.19.19 0 0 1 .2-.12c.26 0 .51.04.76.13ZM8.4 4.9c-.13.06-.24.03-.35-.01-.67-.25-1.36-.46-2.04-.67-.15-.05-.23-.11-.2-.3.48-.3.97-.56 1.52-.69a.35.35 0 0 1 .25.02c.07.04.13.1.17.18l.6 1.16c.05.1.1.2.06.31Z" fill="#329945"/><path d="M11.21 5.4c-.14.3-.2.65-.4.92-.2-.03-.26-.1-.23-.34l.14-.83.25-1.47c.01-.1.04-.2.14-.26.14-.05.25.08.38.09.04.06.12.07.15.16.02.1 0 .19-.02.28l-.4 1.45ZM8.18 3.03c.3-.04.62-.04.92-.01.03.45-.23.77-.4 1.12C8.3 4 8 3.29 8.17 3.03Z" fill="#6EBF4B"/><path d="M11.96 3.87c.41.09.65.36.89.56.06.19 0 .31-.1.42-.28.35-.57.7-.87 1.04-.08.1-.18.16-.36.08.1-.7.29-1.37.44-2.1Z" fill="#329945"/></svg>