<!-- by TradingView --><svg width="18" height="18" viewBox="0 0 18 18" xmlns="http://www.w3.org/2000/svg"><path fill="#016FD1" d="M0 0h18v18H0z"/><path d="M9.5 6.5V9h1.16L9.5 6.5ZM12.5 6.5V9h-1.16l1.16-2.5ZM13.42 5H14v4h-.58zM5.15 5h.74L3.74 9H3l2.15-4ZM7.16 5h-.69L8.5 8.5V7.28L7.16 5Z" fill="#FEFEFF"/><path fill="#FEFEFF" d="M5.32 5h1.74v.5H5.32zM8 5h1.95v.5H8V5ZM11.68 5h1.74v.5h-1.74zM3.58 8.5h9.84V9H3.58zM6.18 6l.69 1.5H5.5L6.18 6ZM9.5 11 8 13V9l1.5 2ZM14 13l-2.5-2.07L14 8.5v1.06L12.5 11l1.5 1.11V13ZM10.53 10.5 9.08 9h2.9l-1.45 1.5ZM9.05 13l1.48-1.75L12 13h-.88l-.6-.75-.59.75h-.88Z"/><path d="m5.34 8-.35.75h2.44L7.08 8H5.34ZM8 5h.5v2.5L8 7.17V5ZM10.38 5h-.72l1.16 2.5L11.97 5h-.72l-.43.96-.44-.96ZM4.42 9H5v4h-.58V9ZM9.95 12.5l-.59.5H5v-.5h4.95ZM14 12.5v.5h-2.14l-.75-.5H14ZM6.3 10h2.2v.5H6.3V10ZM6.3 11h2.32v.5H6.3V11Z" fill="#FEFEFF"/></svg>