<!-- by TradingView --><svg xmlns="http://www.w3.org/2000/svg" width="18" height="18"><path d="M0 9a9 9 0 1118 0A9 9 0 010 9z" fill="#D70B38"/><path d="M10.39 6.92c-.97 0-1.73-.43-1.71-.96.02-.53.8-.96 1.77-.96s1.73.43 1.71.96c-.01.53-.8.96-1.77.96zm1.1 1.84c-.48-.31-1.19-.34-2.15.91-.46.6-.9 1.43-1.43 2.11-.53.69-1.15 1.22-1.96 1.22-1.04 0-1.53-.84-1.76-1.89a9.06 9.06 0 01-.18-1.65C3.99 8.91 4 8.4 4 8c.01-.23.07-.58.15-.8.42-1.2 1.64-1.86 2.71-1.5.83.29 1.37 1.1 1.34 2l-.07 1.34c-.02.4-.02.71 0 .84.05.2.23.19.33.09l.35-.4c.15-.2.34-.42.49-.6.3-.35 1-1.06 2.26-1.06 1.4 0 2.49 1.14 2.44 2.54-.05 1.4-.9 2.54-2.6 2.54-1.43 0-2.2-.95-1.81-2.17.35-1.1 1.78-1.42 2.37-1.21.01 0 0-.55-.47-.86z" fill="#fff"/></svg>