<!-- by TradingView --><svg width="18" height="18" viewBox="0 0 18 18" xmlns="http://www.w3.org/2000/svg"><path fill="#F0F3FA" d="M0 0h18v18H0z"/><path fill-rule="evenodd" d="M14 5H4v8h10V5ZM7.2 6.88h.12v-.5l-.06-.05C7.12 6.21 6.86 6 6.24 6 5.56 6 5 6.6 5 7.54 5 8.5 5.63 9 6.35 9c.58 0 .9-.22.97-.33v-.96l.18-.12V7.5h-.75v.09L7 7.7v.83a.9.9 0 0 1-.64.25c-.41 0-1.02-.47-1.02-1.27s.44-1.24 1.05-1.24c.6 0 .78.39.82.6Zm2.57-.07h.14v-.53c-.15-.1-.55-.28-.95-.28-.5 0-1.3.45-1.3 1.56S8.52 9 9.08 9c.45 0 .8-.22.93-.34V8.1h-.1c-.07.23-.35.68-.83.68-.6 0-1.07-.63-1.07-1.26 0-.64.51-1.24.96-1.24.45 0 .76.12.81.53ZM10 6v.22l.19.15V8.7l-.19.15V9h.64v-.15l-.26-.15V6.56L11.5 9h.12l1.01-2.44V8.7l-.26.15V9h.83v-.15L13 8.7V6.22h.2V6h-.6l-.94 2.28L10.69 6H10Z" fill="#3D76A4"/></svg>