<!-- by TradingView --><svg width="18" height="18" viewBox="0 0 18 18" xmlns="http://www.w3.org/2000/svg"><path fill="#F0F3FA" d="M0 0h18v18H0z"/><path fill-rule="evenodd" d="M13 6.5a3.5 3.5 0 1 1-7 0 3.5 3.5 0 0 1 7 0Zm-1 0a2.5 2.5 0 1 1-5 0 2.5 2.5 0 0 1 5 0Z" fill="#00275E"/><path d="M13 10.08V6l-1 1.71v2.12c0 1.17-.87 2.23-1.32 2.68-.05.05-.07.1-.13.06-.26-.15.08-.52.23-.78.44-.76.58-1.24.57-1.71-.39.32-.33-.1-1.3 1.1-.46.59-1.62.86-1.97.96 0 1.3 1.22 1.86 2.13 1.86 2.31 0 2.82-2.62 2.79-3.92Z" fill="#00275E"/><path d="M7.54 12.63c.36 1.57 1.79 1.82 2.46 1.75-.31.2-.8.41-1.3.41-1.65 0-2.23-1.3-2.34-2.1-.02-.09-.05-.16-.13-.16-.1 0-.2.08-.2.18.1 1.37 1.35 2 1.74 2.29C5.94 14.9 5 12.89 5 11.75c0-1.13.71-1.75.94-1.75.22 0 .49-.05.98.52.5.56.45 1.34.62 2.1Z" fill="#0087FA"/></svg>