<!-- by TradingView --><svg width="18" height="18" viewBox="0 0 18 18" xmlns="http://www.w3.org/2000/svg"><path d="M0 9a9 9 0 1 1 18 0A9 9 0 0 1 0 9Z" fill="#F0F3FA"/><path d="m13.27 12.6.6.63c.06.07.13.21.13.32 0 .1-.03.2-.1.31a.52.52 0 0 1-.32.14c-.1 0-.2-.03-.31-.14l-.56-.52c-1.78-1.7-2.72-2.58-3.41-2.79-.7-.17-1.2.23-2.46 1.28-.1.1-.23.17-.39.17-.1 0-.2-.03-.31-.14a.44.44 0 0 1-.14-.31c0-.16.07-.28.17-.39C7.22 9.91 7.62 9.4 7.45 8.74c-.21-.7-1.08-1.64-2.79-3.42l-.52-.55A.52.52 0 0 1 4 4.45c0-.1.03-.2.14-.31.07-.07.2-.14.31-.14.1 0 .21.03.32.14l.62.6C7.14 6.4 8.04 7.23 8.7 7.47c.63.21 1.38-.47 2.5-1.34a.5.5 0 0 1 .35-.14c.1 0 .2.03.31.14.07.07.14.17.14.31a.5.5 0 0 1-.14.35c-.87 1.08-1.55 1.87-1.3 2.5.16.66 1.04 1.56 2.7 3.3Z" fill="#FEB317"/></svg>