<!-- by TradingView --><svg xmlns="http://www.w3.org/2000/svg" width="18" height="18"><path fill="url(#atdy4drum)" d="M0 0h18v18H0z"/><path d="M6.51 13c-.25 0-.51-.22-.51-.5s.26-.5.51-.5h4.96c.25 0 .53.22.53.5s-.28.5-.53.5H6.51z" fill="#F2591A"/><path d="M6.52 9.5C6.28 9.5 6 9.28 6 9s.28-.5.52-.5h4.94c.25 0 .54.22.54.5s-.29.5-.54.5H6.52z" fill="#F3A00F"/><path d="M6.54 6C6.29 6 6 5.78 6 5.5s.29-.5.54-.5h4.91c.25 0 .55.22.55.5s-.3.5-.55.5H6.54z" fill="#FBC208"/><defs><linearGradient id="atdy4drum" x1="3.35" y1="3.12" x2="21.9" y2="24.43" gradientUnits="userSpaceOnUse"><stop stop-color="#1A1E21"/><stop offset="1" stop-color="#06060A"/></linearGradient></defs></svg>