<!-- by TradingView --><svg width="18" height="18" viewBox="0 0 18 18" xmlns="http://www.w3.org/2000/svg"><path fill="#F0F3FA" d="M0 0h18v18H0z"/><path d="M9 9h4v3.6a14.76 14.76 0 0 1-3.8.4 7.4 7.4 0 0 1-2.85-.48 3.9 3.9 0 0 1-1.76-1.38C4.2 10.54 4 9.82 4 9c0-.81.22-1.52.67-2.11A4.26 4.26 0 0 1 6.58 5.5c.84-.33 1.85-.5 3.04-.5a11.64 11.64 0 0 1 3.23.46l-.52.85a10.16 10.16 0 0 0-2.79-.45c-.86 0-1.6.13-2.22.38A2.84 2.84 0 0 0 5.42 9c0 .62.14 1.17.42 1.65.28.47.72.84 1.32 1.1.6.27 1.38.4 2.35.4a14.47 14.47 0 0 0 1.53-.1l.6-.09V10H9V9Z" fill="#484848"/></svg>