<!-- by TradingView --><svg width="18" height="18" viewBox="0 0 18 18" xmlns="http://www.w3.org/2000/svg"><path fill="#F0F3FA" d="M0 0h18v18H0z"/><path d="M12.56 11.5A4.35 4.35 0 0 1 4.62 9a4.37 4.37 0 0 1 8.05-2.34l.53-.32A4.97 4.97 0 0 0 4 9a5 5 0 0 0 9.08 2.84l-.52-.35Z" fill="#3691EE"/><path fill-rule="evenodd" d="M9 13a4 4 0 1 0 0-8 4 4 0 0 0 0 8Zm.63-6.85c.3.16.73.41 1.04.67.17.13.29.25.36.36.07.1.05.14.05.15-.04.06-.12.1-.3.14-.16.03-.35.04-.55.04l-.73-.67-.2.23.5.46c-.14.01-.28.03-.4.06-.24.05-.47.15-.58.39-.12.24 0 .47.15.64l.1.1-.3.04a1.3 1.3 0 0 0-.34.1.4.4 0 0 0-.22.23c-.05.16.01.32.1.45.07.13.2.25.33.36.14.12.29.22.43.32-.6.05-1.3.04-1.76.01l-.02.32c.6.03 1.56.03 2.28-.07.25-.04.48-.1.65-.16.16-.07.33-.18.38-.36.06-.25-.1-.46-.26-.62a3.8 3.8 0 0 0-.42-.35 9.25 9.25 0 0 0 .88-.08.55.55 0 0 0 .13-.05.28.28 0 0 0 .1-.12c.1-.18 0-.37-.09-.5-.1-.13-.26-.25-.42-.33l-.14.28c.14.07.26.16.33.25.06.08.06.13.06.15a10.71 10.71 0 0 1-1.15.1h-.1c-.14-.1-.25-.19-.33-.28-.13-.15-.14-.23-.1-.3.04-.1.16-.17.37-.22.2-.04.45-.05.72-.06h.02c.21-.01.44-.02.63-.05.19-.04.39-.1.5-.27.11-.18.04-.37-.05-.51-.1-.15-.25-.3-.42-.43a7.14 7.14 0 0 0-1.1-.7l-.13.28Zm-.81 2.92c.17-.03.38-.05.6-.06l.14.1.04.03c.2.15.4.29.53.43.16.15.2.25.18.31 0 .02-.05.08-.2.15-.13.05-.32.1-.53.13-.22-.12-.52-.3-.75-.5a1.5 1.5 0 0 1-.28-.3c-.06-.1-.06-.15-.06-.17l.01-.01a.23.23 0 0 1 .06-.04c.06-.03.15-.05.26-.07Zm.93 1.59c.06.06.12.16.15.25s.02.13 0 .15a.36.36 0 0 1-.13.07 7.54 7.54 0 0 1-1.14.16c-.66.04-1.4.04-1.93.04v.31c.53 0 1.28 0 1.94-.04a7.8 7.8 0 0 0 1.23-.18.62.62 0 0 0 .24-.14c.14-.14.12-.34.07-.48a1.03 1.03 0 0 0-.22-.36l-.21.22Z" fill="#36BA92"/><path d="M10.4 6.68A6.85 6.85 0 0 0 9.36 6l.13-.27c.3.15.75.42 1.1.7.16.13.31.27.41.42.1.14.16.33.05.5-.1.18-.3.24-.5.28-.19.03-.41.04-.63.05H9.9c-.26 0-.51.02-.72.06-.2.05-.32.13-.37.23-.03.06-.02.14.1.29.09.1.2.19.33.28H9.54a10.7 10.7 0 0 0 .9-.08c.03 0 .04-.01.05-.02 0-.02 0-.07-.06-.15a1.01 1.01 0 0 0-.32-.25l.13-.28c.17.08.32.2.42.34.1.12.19.3.1.5a.28.28 0 0 1-.11.1.55.55 0 0 1-.13.06c-.1.03-.2.04-.32.06l-.55.02c.15.12.3.23.42.35.15.16.31.37.25.62-.04.18-.21.29-.38.36s-.4.12-.64.16c-.72.1-1.69.1-2.28.07l.01-.32c.47.03 1.16.04 1.76-.01-.14-.1-.3-.2-.42-.32a1.8 1.8 0 0 1-.35-.36c-.08-.13-.14-.29-.09-.45a.4.4 0 0 1 .23-.23c.1-.05.2-.08.33-.1l.3-.04a1.65 1.65 0 0 1-.1-.1c-.15-.17-.27-.4-.15-.64.11-.24.35-.34.58-.4l.4-.05-.5-.46.2-.23.73.67c.2 0 .4-.01.55-.04.18-.03.27-.08.3-.14 0 0 .03-.04-.05-.15-.07-.1-.2-.23-.35-.36Zm-1.25 2.2a4.9 4.9 0 0 0-.6.05c-.12.02-.2.04-.27.07a.23.23 0 0 0-.05.04h-.01c-.01.03-.01.09.05.18.06.1.16.2.29.3.23.2.52.38.74.5.22-.03.4-.08.53-.13.16-.07.2-.13.2-.15.01-.06-.02-.16-.17-.31-.14-.14-.33-.28-.54-.43l-.04-.03-.13-.1Zm.47 1.89a.72.72 0 0 0-.15-.25l.21-.22c.09.09.18.22.23.36.04.14.06.34-.08.48a.62.62 0 0 1-.24.14c-.1.04-.2.06-.33.09-.25.04-.57.07-.9.1-.66.03-1.4.03-1.93.03v-.31c.52 0 1.27 0 1.92-.04a7.54 7.54 0 0 0 1.14-.16.36.36 0 0 0 .13-.07c.02-.02.04-.06 0-.15Z" fill="#3691EE"/></svg>