<!-- by TradingView --><svg xmlns="http://www.w3.org/2000/svg" width="18" height="18"><path fill="#F0F3FA" d="M0 0h18v18H0z"/><path d="M13.1 9.95c.07.64.06 1.3-.04 1.92-1.02 1.19-4.56 1.77-6.8 1.6a3.23 3.23 0 01-.56-1.6c2.86.54 5.91-.34 7.4-1.92z" fill="#EA5B25"/><path d="M13.9 8.65c-.52-2.54-3.33-4.93-5.26-5.15-.15.1-.28.23-.39.37 1.13.1 2.1.87 3.23 2.08a7.05 7.05 0 011.6 4.05 8.4 8.4 0 01-.04 1.9 3.54 3.54 0 00.87-3.25z" fill="#F29100"/><path d="M10.74 10.49l-.1-.02A3.8 3.8 0 019.2 9.13c1.5-1.81.67-3.18-.38-3.46a1.3 1.3 0 00-.93.05c.3-.14.62-.25.95-.27.78-.04 1.6.18 2.12.95.67 1.06.54 2.98-.21 4.09z" fill="#0069B3"/><path d="M8.99 5.45c-.27.23-.67.59-.94.89-.06-.26-.09-.55-.11-.8.42-.1.73-.1 1.05-.1zm-3.25 6.43c-.1-1.22.41-2.56 1.13-3.75-.06-.56-.08-1.12-.08-1.62-1.18 1.1-2.6 3.25-2.77 4.86-.1.84.16 1.53.96 1.87.34.12.8.2 1.32.24a3.17 3.17 0 01-.56-1.6z" fill="#A9AA00"/><path d="M10.71 10.39c-.5-.21-1-.7-1.43-1.33A7.97 7.97 0 017.96 5.7c-.07-.72.03-1.36.35-1.8.1-.15.24-.27.4-.37-.6-.07-1.1.06-1.43.45-.26.29-.42.72-.44 1.33-.1.96-.1 1.92 0 2.87.24 2.1 1.05 4.19 3.3 2.88.27-.16.5-.38.67-.64l-.1-.02z" fill="#62B8E8"/></svg>