<!-- by TradingView --><svg width="18" height="18" xmlns="http://www.w3.org/2000/svg"><path fill="#F0F3FA" d="M0 0h18v18H0z"/><path d="M9.071 6.498c.918 0 1.808.823 1.929 1.496H7c.25-.86 1.16-1.503 2.071-1.496z" fill="#2D99C2"/><path d="M14 8h-1c-.546-1.597-2.32-2.988-4-3-1.89-.019-3.589 1.618-3.911 3.369-.149.801-.08 1.582.292 2.328.52 1.042 1.63 1.971 2.752 2.218 1.308.29 2.675.002 3.63-.978.415-.428.996-1.58.996-1.937H8.003L7 9h7c-.112 1.51-.744 3.16-1.984 4.047-1.729 1.24-4.308 1.27-6.05.062-1.065-.734-1.66-1.77-1.89-3.02-.128-.7-.094-1.432 0-2.134.456-2.56 2.942-4.11 5.467-3.94C11.84 4.173 13.361 5.944 14 8z" fill="#1D2847"/></svg>