<!-- by TradingView --><svg width="18" height="18" viewBox="0 0 18 18" xmlns="http://www.w3.org/2000/svg"><path fill="#F0F3FA" d="M0 0h18v18H0z"/><path fill-rule="evenodd" d="M11.12 7.05 9 5 6.88 7.05a2.83 2.83 0 0 0 0 4.1 3.07 3.07 0 0 0 4.24 0 2.83 2.83 0 0 0 0-4.1Zm-.7.6L9 6.27 7.59 7.65c-.79.77-.79 2.01 0 2.78.78.76 2.04.76 2.82 0 .79-.77.79-2.01 0-2.78Z" fill="#A1A9AC"/><path d="M6.7 5.17a.56.56 0 0 0-.78 0l-.46.44A4.85 4.85 0 0 0 4 9.15a5 5 0 0 0 10 0 4.85 4.85 0 0 0-1.46-3.54l-.47-.45a.56.56 0 0 0-.78 0 .53.53 0 0 0 0 .76l.47.46A3.9 3.9 0 0 1 13 9.15C12.97 11.22 11.02 13 9 13s-3.97-1.78-4-3.85c-.01-1 .46-2 1.24-2.77l.45-.45a.53.53 0 0 0 0-.76Z" fill="#1E345D"/><circle cx="7.5" cy="4.5" r=".5" fill="#A1A9AC"/><circle cx="10.5" cy="4.5" r=".5" fill="#A1A9AC"/><path d="M9.5 3.5a.5.5 0 1 1-1 0 .5.5 0 0 1 1 0Z" fill="#A1A9AC"/></svg>