<!-- by TradingView --><svg width="18" height="18" viewBox="0 0 18 18" xmlns="http://www.w3.org/2000/svg"><path fill="url(#a)" d="M0 0h18v18H0z"/><path d="M12.8 12.92A6.4 6.4 0 0 0 14.11 9a6.66 6.66 0 0 0-1.33-3.93l.1-.08A5.1 5.1 0 0 1 15 9a5.07 5.07 0 0 1-2.1 4l-.1-.08ZM11.28 9.12c.36 0 .66-.27.66-.6 0-.34-.3-.6-.66-.6-.37 0-.66.26-.66.6 0 .33.3.6.66.6ZM11.28 11.73c.36 0 .66-.27.66-.6 0-.33-.3-.6-.66-.6-.37 0-.66.27-.66.6 0 .33.3.6.66.6Z" fill="#C0A171"/><path d="M6.86 9.53c.4 0 .66.06.84.18.17.13.3.33.3.6v.64c0 .58-.56.91-1.41.91-1.57 0-2.37-1.4-2.37-2.86s.8-2.86 2.37-2.86c.52 0 1.01.15 1.36.45.35.3.72.7.97 1.39h.11V6.15H8.9c-.03.2-.14.31-.3.31-.14 0-.28-.05-.35-.08l-.29-.11c-.25-.1-.8-.27-1.43-.27-.78 0-2.09.15-2.87 1.1A2.87 2.87 0 0 0 3 9c0 .84.29 1.44.66 1.9.78.95 2.09 1.1 2.87 1.1 1.07 0 1.55-.3 2.47-.43v-1.3c0-.46.26-.6.38-.64.11-.05.32-.08.6-.1v-.1H6.86v.1Z" fill="#F4F4F4"/><defs><linearGradient id="a" x1="3.35" y1="3.12" x2="21.9" y2="24.43" gradientUnits="userSpaceOnUse"><stop stop-color="#1A1E21"/><stop offset="1" stop-color="#06060A"/></linearGradient></defs></svg>