<!-- by TradingView --><svg width="18" height="18" viewBox="0 0 18 18" xmlns="http://www.w3.org/2000/svg"><path fill="#B11AA7" d="M0 0h18v18H0z"/><path d="M8.69 5H12c0 .67-.79 1.13-1.06 1.13h-2.2c-.77 0-1.4.66-1.4 1.53s.48 1.6 1.4 1.6c.91 0 1.44-.69 1.44-1.47 0-.63-.3-.95-.44-1.1h1.47a2.93 2.93 0 0 1-.6 3.2c.6.32.84.94.84 1.6 0 .65-.12 2.51-2.67 2.51-2.05 0-2.7-1.45-2.78-2.17l1.38-.14c.2.97 1.3 1.04 1.4 1.04.08 0 1.36-.04 1.36-1.15 0-.9-.97-1.12-1.45-1.12-2.1-.02-2.67-1.79-2.69-2.67C6 5.7 7.56 5 8.69 5Z" fill="#fff"/></svg>