<!-- by TradingView --><svg width="18" height="18" xmlns="http://www.w3.org/2000/svg"><path fill="#F0F3FA" d="M0 0h18v18H0z"/><path d="M4 9.102c0-2.706 2.21-4.899 4.935-4.899 2.726 0 4.936 2.193 4.936 4.9 0 2.704-2.21 4.897-4.936 4.897C6.21 14 4 11.807 4 9.102z" fill="#1C3361"/><path d="M4.49 8.753c0-2.585 2.111-4.682 4.718-4.682 2.607 0 4.718 2.097 4.718 4.682 0 2.587-2.11 4.682-4.718 4.682-2.607 0-4.718-2.095-4.718-4.682z" fill="#fff"/><path d="M9.194 8.786l-.002.201h-.027l-.122-.197h-.339l.249-1.127.174-.086-1.116-.153-.158.161.059.021s.448.425.693.321c.031.01.063.03.09.068l-.133.098-.141.607c-.184.04-.425.146-.597.278l-.07.22-.381-1.162.773-1.195h2.061l.778 1.195-.125.04-.296.902a1.632 1.632 0 00-.593-.278l-.124.09-.188-.795a.179.179 0 01.09-.068c.248.104.696-.32.696-.32l.091-.03-.155-.153-1.116.153.242 1.108h-.249l-.064.1zm-.756-2.77c.198 0 .657.585.657.585h-.433l-.185-.078c-.346-.09-.457-.288-.53-.375l-.257-.14s.55.008.748.008zm1.436 2.987s.581.194.575.445l-.11.037c-.01.19-.224.383-.333.47l-.542-.343-.148.047v-.4l.54-.09.018-.166zm-.7.73l.706.482-.172.05c-.116.136-.339.362-.517.362-.182 0-.405-.226-.522-.362l-.206-.05.71-.481zm.436 1.112l-.085.223c.007.17.148.33.14.56-.007.157-.122.278-.215.358l-.202.128c.26-.28-.37-.931.362-1.27zm.603-.601l-.092.19c.003.407.199.491.203.914a.634.634 0 01-.235.487l-.257.16c.513-.528-.565-1.364.38-1.751zm.642-1.126l.27.33c.292.449.434.737.287 1.133-.077.577-.85 1.142-.85 1.142-.026-1.56-.196-1.755.293-2.605zm0 0l.27.33c.078.208.256.913.287 1.133a1.097 1.097 0 01-.676-1.133.918.918 0 01.12-.33zm.73-.782l.107 1.509-.133-1.179c-.073-.065-.18-.116-.217-.183-.03-.052-.296.157-.304.063l.13-.556s.334.205.417.346zm-.916-2.328l-.23.14c-.07.087-.184.285-.526.375l-.652.078c.101-.079 1.019-.585 1.019-.585.198 0 .389-.008.389-.008zm-.39.008l.39-.008c-.05.09-1.146.47-1.253.49l-.155.103c.113-.168-.017-.585.313-.585h.706zm1.48.424c.018.334-.016.437-.017.441l-.074-.227a.597.597 0 00-.306-.173c-.235-.04-.492.038-.855.148l-.137-.008c.235-.242.45-.721.806-.721.336 0 .558.161.582.54zm-1.28.432c.202.095.599-.144.856-.053.415.15.357.556.357.556l.008.788c-.117-.086-.854-1.01-.997-1.147l-.225-.144zm.559 1.674s.458-.47.547-.21c.12.358.107 1.509.107 1.509l-.28-.263s-.31-.296-.374-.547c-.048-.185 0-.489 0-.489zm-4.32-1.892l-.102.227s-.039-.1-.016-.44c.025-.38.244-.541.583-.541.357 0 .57.48.806.721l-.11.008c-.362-.11-.62-.188-.855-.148a.596.596 0 00-.306.173zm.064 1.275l-.123.234-.022-.792s1.034-.337 1.244-.499L6.659 8.163c-.04.06.168-.312.123-.234zm-.114 1.004s.022-.454.106-.597c.083-.141.416-.345.416-.345l-.1.239c-.008.094-.422.703-.422.703zm.306.615l-.307.297.001-.912.522-.942.183.745c.007.062.008.2 0 .267-.026.215-.4.545-.4.545zm.823 2.175c-.298-.113-.98-.992-1.015-1.308-.074-.636.725-1.183.725-1.183s.213.48.288.806c.15.64.001 1.027.002 1.685zm0 0l-.29-2.49s.213.48.288.805c.15.64.001 1.027.002 1.685zm.507.112l.223.16c-.398-.093-.603-.3-.623-.647-.032-.507.217-.551.242-1.104l.126.19c.406.359-.17.87.032 1.401zm.632.151l.174.128s-.449-.019-.515-.497c-.019-.274.15-.516.15-.772l.116.223c.305.21-.05.635.075.918zm-2.3-4.615s-.033-.4.388-.552c.257-.091.65.148.857.053l-.194.144c-.283.262-1.05.355-1.05.355zm1.802-1.355h.347c.327 0 .2.417.31.585L8.97 6.5c-.103-.022-.257-.257-.308-.348l-.224-.135zm-.066 3.939l-.02.132s-.457-.3-.457-.639c-.007-.25.573-.445.573-.445l-.09.203.01.097.1-.134.539.09-.11.13v.224" fill="#1C3361"/><path d="M8.86 11.068c.163.112.327.28.327.28v.773s-.386-.059-.462-.492c-.008-.23.129-.39.136-.56zm.665 0c-.16.112-.338.28-.338.28v.773s.463-.113.477-.492c.009-.23-.131-.39-.14-.56zm1.187-.338c.056.2.02.388-.086.755.247-.26.759-.82.69-1.063l-.604.308zm-.739 0c-.018.318.267.706.116 1.105a.634.634 0 00.235-.488c-.003-.296-.101-.426-.16-.617h-.19zm-1.553 0c.018.318-.267.706-.116 1.105a.635.635 0 01-.235-.488c.003-.296.102-.426.16-.617h.191zm-.746 0c-.085.182-.153.388-.05.755-.244-.26-.754-.898-.683-1.141" fill="#BD9D53"/><path d="M9.086 6.598s-.373-.356-.424-.447l.424.447zm-1.471.394c-.148.137-.563.23-.755.17.054-.13.106-.178.238-.222.152-.05.246.033.517.052zm-.18 2.477c-.038.489-.155.536-.501.883.105-.197.42-.674.501-.883zm-.337-1.25s.183.718.175.784c-.026.216-.338.367-.482.574.01-.079.003-.812 0-.891.071-.215.15-.304.307-.467zm-.307.467c.018-.105.223-.403.307-.467-.008.094-.228.416-.307.467zm.824-1.694c-.04.06-.788.86-.833.937.001-.047.07-.721.078-.768.105-.01.655-.134.755-.169zm.92-.394c-.346-.09-.516-.363-.589-.45.05.003.66.003.716.003.06 0 .424.447.424.447s-.616-.075-.55 0zm-.656.032c-.363-.111-.62-.189-.855-.149a.598.598 0 00-.306.173c.007-.428.125-.59.43-.616.257-.02.508.365.73.592zm2.997 2.785c.035.488.397 1.213.397 1.213.28-.568-.32-1.005-.397-1.213zm.354-1.196c-.007.062-.098.693-.09.759.03.215.31.392.454.599-.009-.079-.029-.788-.069-.891a1.313 1.313 0 00-.295-.467zm.295.467c-.032-.053-.206-.403-.295-.467.009.094.264.414.295.467-.072-.066.037.067 0 0zm-.748-1.746c.037.059.782.911.83.989a18.402 18.402 0 00-.082-.768c-.04-.14-.648-.186-.748-.221zm0 0c.144.136.631.136.748.221-.058-.079-.106-.177-.238-.221-.151-.05-.243-.02-.51 0zm-.864-.416s.457-.289.527-.375c-.05.002-.101.002-.153.002-.065 0-.99.405-1.022.447-.011.02.648-.074.648-.074zm-.648.074s.971-.356 1.022-.447h-.706c-.166 0-.258.293-.316.447zm1.242.032c.362-.111.62-.189.855-.149.122.019.23.1.306.173-.007-.428-.125-.59-.432-.616-.251-.02-.506.365-.73.592zm-.168 2.84v.016c-.01.19-.224.383-.334.47l-.54-.343V9.39l.524-.087.01-.096c.147.066.34.172.34.262zm-.63.795c-.117.137-.34.363-.519.363-.181 0-.404-.226-.521-.363l.522-.354.517.354zm-1.32-.962l.528.087v.223l-.545.343c-.111-.09-.333-.29-.333-.487-.001-.09.192-.196.34-.262l.01.096zm.805-.517l-.06-.1h-.25l.242-1.108-1.115-.153-.158.16.383-.593h1.92l.38.586-.155-.153-1.116.153.242 1.108h-.249l-.064.1zm1.394-1.13l.272.421-.296.9a1.635 1.635 0 00-.593-.277l-.141-.608c.301.01.717-.399.758-.436zm-2.798.02c.04.036.464.446.772.417L8.42 8.7c-.183.041-.424.146-.596.278l-.293-.9.26-.402zm3.483 2.952s-.254-.99-.397-1.213c-.08.322-.255 1.117-.164 1.315 0 0 .288-.046.561-.102zm-1.109.102a.987.987 0 01-.043-.295.415.415 0 00-.148.295h.191zm-1.935 0a.99.99 0 00.043-.295c.104.09.141.188.148.295h-.19zm-1.295-.378c.073-.256.355-.66.501-.883.077.323.33 1.063.239 1.26" fill="#BD9D53"/><path d="M4.417 8.753C4.417 6.127 6.561 4 9.208 4 11.852 4 14 6.127 14 8.753c0 2.625-2.148 4.752-4.792 4.752-2.647 0-4.791-2.127-4.791-4.752zm.166 0c0 2.534 2.07 4.59 4.625 4.59 2.553 0 4.626-2.056 4.626-4.59 0-2.535-2.073-4.589-4.626-4.589-2.556 0-4.625 2.054-4.625 4.589z" fill="#BD9D53"/><path d="M8.654 10.438c.14.14.333.296.52.296.182 0 .375-.156.515-.296h-.146c-.11.1-.24.19-.352.19-.115 0-.246-.09-.356-.19h-.181zM6.617 6.882c.115-.156.316-.277.434-.297.274-.046.797.149.803.15l.135-.113-.11.007c-.363-.11-.62-.188-.855-.148a.596.596 0 00-.306.173l-.101.228zm1.073-.874c.222.679.809.655 1.4.594l-.613-.078c-.346-.091-.457-.288-.53-.375l-.257-.14zm4.052.874c-.114-.156-.316-.277-.438-.297-.274-.046-.797.149-.8.15-.041-.036-.134-.113-.134-.113l.137.007c.363-.11.62-.188.855-.148.122.019.23.1.306.173l.075.228zm-1.073-.874c-.299.614-.81.655-1.404.594l.648-.078c.224-.13.43-.31.532-.375l.224-.14zM8.917 9.39v.223l-.545.342-.02.133.675-.428v-.401l-.11.131zm-.528-.087l-.01-.097.09-.203.019.166-.1.134zm-.565-.325c.172-.132.413-.237.597-.278l.141-.607.132-.096-.184.793c-.233.024-.647.221-.756.407l.07-.219zM9.971 8.7c.184.04.425.146.593.278l.297-.901.124-.041-.38 1.161c-.11-.186-.525-.383-.758-.407l.124-.09zM8.953 7.663l-.98-.134c0 .004-.061.078-.061.078l-.059-.022.158-.16 1.116.153-.174.085zm.24 1.325l.118-.198h.338l-.248-1.127.98-.135c0 .005.064.078.064.078l.091-.029-.155-.152-1.116.153.243 1.108h-.25l-.064.1-.002.202zm.124.671l.674.428s.458-.3.458-.639l-.11.037c-.01.191-.224.383-.334.47l-.54-.342-.148.046zm.372.779c.112-.116.191-.223.191-.223l-.171.05c-.043.05-.1.114-.166.173h.146zm-.854 0a1.815 1.815 0 01-.166-.173l-.206-.05s.08.107.19.223h.182z" fill="#BD9D53"/></svg>