<!-- by TradingView --><svg width="18" height="18" xmlns="http://www.w3.org/2000/svg"><path fill="#004A8F" d="M0 0h18v18H0z"/><path d="M8 11.853H6.88v-.524c-.405.35-.941.671-1.726.671C3.053 12 2 10.39 2 9.002 2 7.615 3.042 6 5.122 6s2.866 1.739 2.866 1.739l-.941.528s-.649-1.15-1.904-1.15-1.984 1.015-1.984 1.885c0 .87.74 1.875 2.005 1.875.877 0 1.492-.55 1.716-.857H5.2V8.972H8v2.881zM10 8.983h2.857v1.043h-1.714c.223.306.816.852 1.692.852 1.266 0 2.006-1.005 2.006-1.876 0-.87-.73-1.885-1.984-1.885-1.255 0-1.904 1.15-1.904 1.15l-.941-.528S10.799 6 12.878 6C14.958 6 16 7.615 16 9.002 16 10.39 14.947 12 12.846 12c-.785 0-1.298-.32-1.703-.67v.522L10 11.853v-2.87z" fill="#fff"/></svg>