<!-- by TradingView --><svg width="18" height="18" viewBox="0 0 18 18" xmlns="http://www.w3.org/2000/svg"><path fill="#F0F3FA" d="M0 0h18v18H0z"/><path d="M5 6h2.53c.23 0 .47.26.47.5s-.24.5-.47.5H5C4 7 3 8 3 9s.7 2 2 2h2v-1H5.5c-.24 0-.5-.26-.5-.5s.26-.5.5-.5h2.07c.24 0 .43.2.43.43v2.14c0 .24-.2.43-.43.43H5c-1.61 0-3-1-3-3s1.53-3 3-3ZM9.25 6.03a.4.4 0 0 1 .45.09L14 10.2V6.43c0-.43.3-.43.53-.43.22 0 .47.03.47.43v5.14c0 .17-.1.33-.25.4a.4.4 0 0 1-.45-.09L10 7.8v3.77c0 .43-.27.43-.5.43-.23 0-.5-.03-.5-.43V6.43c0-.17.1-.33.25-.4Z" fill="#EC7101"/></svg>