<!-- by TradingView --><svg width="18" height="18" xmlns="http://www.w3.org/2000/svg"><path fill="#0080A7" d="M0 0h18v18H0z"/><path d="M6.5 9.373v.63H7v1.049c-.309.387-.556.518-1.074.563-.05.007-.099.01-.148.01-1.229-.013-1.77-.832-1.776-2.625 0-1.535.375-2.308 1.264-2.553.154-.04.339-.072.512-.072.636 0 1.068.08 1.352.448.185.251.272.644.42 1.18h.455V6l-.805.375C6.81 6.175 6.216 6 5.778 6c-.741 0-1.377.255-1.908.765C3.29 7.325 3 8.058 3 8.96c0 1.033.352 1.839 1.056 2.42.512.412 1.086.619 1.722.619.462 0 1.222-.256 1.422-.375l.805.375v-1.998h.593v-.629H6.5zM11.002 12v-.464c.03 0-.031-.006 0 0l-.504-.013V9h2.995v2.523H13V12h2v-.464c.03 0-.03-.006 0 0l-.508-.013V6.427H15V6h-2v.417l.493.01v2.198h-2.995V6.427h.504V6H9v.417h.5v5.096l-.5.01V12h2.002z" fill="#fff"/></svg>