<!-- by TradingView --><svg width="18" height="18" viewBox="0 0 18 18" xmlns="http://www.w3.org/2000/svg"><path fill="#91BA44" d="M0 0h18v18H0z"/><path d="M9.1 4.11c-.35.15-.79.28-1.07.31-.38.05-.46.12-.6.54-.07.2-.11.28-.18.31-.14.07-.28.27-.42.6l-.13.3-.18.03-.35.05c-.27.04-.51.12-.58.19-.05.05-.07.17-.09.56-.03.53-.05.62-.25.87-.16.19-.3.25-.7.33-.42.09-.45.1-.58.19-.14.09-.21.24-.36.73-.11.36-.14.42-.3.58-.19.2-.3.43-.3.64l-.01.13.47.15.47.15.25-.1c.13-.07.25-.11.26-.11l.1.2.1.2.32.08c.47.1.62.12.88.05.3-.08.52-.19.74-.38l.18-.16.24.07c.3.1.47.1.85-.01.17-.05.31-.09.32-.08.03.03-.07.82-.13 1.08-.04.15-.13.38-.2.51l-.13.23-.2-.02a11 11 0 0 0-1.56-.04c-.32.03-.59.13-.71.26l-.08.08.1.15.1.14.68.02c2.86.1 4.23.08 5.12-.07l1.03-.17.96-.13c.3-.02.32-.03.17-.05l-1.29-.05c-.62 0-1.31-.03-1.53-.04l-.39-.02-.22-.31a1.88 1.88 0 0 1-.4-.9c-.04-.28 0-.5.11-.58.05-.04.19-.1.32-.13a10 10 0 0 0 .53-.18l.3-.11.08.1.32.35c.2.21.25.25.3.23.46-.13.45-.13.87 0 .51.18.7.18 1.23 0l.39-.12.26.05c.33.07.45.07.6 0 .12-.06.19-.17.19-.33 0-.13-.07-.25-.26-.5-.23-.3-.3-.44-.38-.86-.04-.2-.1-.41-.13-.46-.03-.04-.2-.18-.4-.3-.4-.26-.47-.33-.55-.6-.12-.42-.21-.63-.32-.74a1.79 1.79 0 0 0-.47-.26L12 6.52a1.77 1.77 0 0 1-.3-.48c-.11-.24-.27-.5-.41-.68-.4-.5-.47-.56-.79-.69-.27-.1-.3-.13-.51-.39l-.23-.27h-.2a.97.97 0 0 0-.47.1Zm.08 4.91v.24l-.25.15c-.3.17-.32.16-.19-.25.08-.23.13-.3.24-.41.15-.14.15-.14.18-.06l.02.33Zm1.37-.14c.29.04.3.05.12.26-.09.1-.2.2-.25.23-.1.05-.73.13-.77.1-.02-.02.11-.2.35-.46.14-.17.17-.19.27-.17l.28.04Zm-2.59.41c.1.4.1.4.05.4-.04 0-.68-.14-.7-.16 0 0 .11-.13.27-.28.15-.15.29-.25.3-.23l.08.27Z" fill="#fff"/></svg>