<!-- by TradingView --><svg width="18" height="18" viewBox="0 0 18 18" xmlns="http://www.w3.org/2000/svg"><path fill="#F0F3FA" d="M0 0h18v18H0z"/><path d="M11 9.72V10h-.52c0 1.9-.1 3.94-.9 4.71a.94.94 0 0 1-.68.29c-.46 0-.85-.37-1.15-1.11A14.6 14.6 0 0 1 7 8.93c0-2.15.36-4.19.91-5.18.29-.52.58-.75.97-.75.33 0 .5.17.73.69.06.14.1.14.14.14.1 0 .14-.1.18-.63v-.06h.27v3.54h-.27v-.05a15.02 15.02 0 0 0-.62-2.86c-.12-.31-.26-.5-.4-.5-.23 0-.36.23-.45.8-.09 1-.1 3.1-.09 4.6 0 2.7 0 4.33.07 5.17.06.55.24.87.48.87.32 0 .48-.51.48-1.51V10h-.65v-.28H11Z" fill="#3C4D4F"/></svg>