<!-- by TradingView --><svg width="18" height="18" xmlns="http://www.w3.org/2000/svg"><path fill="#E11937" d="M0 0h18v18H0z"/><path d="M5.231 6.912c-1.183 0-2.056.932-2.056 2.088 0 1.156 1.063 2.09 2.065 2.09.665 0 1.224-.302 1.76-.79v1.253c-.562.347-1.26.56-1.855.56C3.435 12.113 2 10.681 2 9c0-1.779 1.443-3.113 3.153-3.113.657 0 1.346.205 1.847.462v1.23c-.63-.427-1.19-.667-1.769-.667zM10.9 12.113A3.117 3.117 0 017.77 9c0-1.752 1.402-3.113 3.207-3.113.657 0 1.522.178 2.023.418v1.197c-.57-.338-1-.613-1.997-.613-1.183 0-2.078.865-2.078 2.111 0 1.246 1.033 2.057 2.095 2.057.225 0 .704-.018.98-.125V10h-1V9h2v2.668a5.007 5.007 0 01-2.1.445zM14 12V6h1v6h-1z" fill="#fff"/></svg>