<!-- by TradingView --><svg width="18" height="18" viewBox="0 0 18 18" xmlns="http://www.w3.org/2000/svg"><path fill="#F0F3FA" d="M0 0h18v18H0z"/><path fill-rule="evenodd" d="M7.07 13c1.46 0 2.75-.6 3.51-1.67A4.24 4.24 0 0 0 14.1 13c.32 0 .62-.03.91-.1-2.04-.26-3-1.9-3-3.9s.96-3.64 3-3.9c-.3-.07-.6-.1-.9-.1-1.47 0-2.76.6-3.52 1.67A4.24 4.24 0 0 0 7.07 5c-.5 0-.96.08-1.4.23A4.1 4.1 0 0 1 9 6.9c.33.45-.08.98-.66.98h-.1a.83.83 0 0 1-.64-.33 2.55 2.55 0 0 0-2.04-.88C4.14 6.67 3 7.67 3 9s1.14 2.33 2.56 2.33c.83 0 1.57-.3 2.04-.88.15-.2.38-.33.64-.33h.1c.58 0 .99.53.66.98a4.1 4.1 0 0 1-3.33 1.67c.44.15.9.23 1.4.23Zm-.33-4.67c-.4 0-.74.3-.74.67 0 .37.33.67.74.67h2.52c.4 0 .74-.3.74-.67 0-.37-.33-.67-.74-.67H6.74Z" fill="#F06925"/></svg>