<!-- by TradingView --><svg width="18" height="18" viewBox="0 0 18 18" xmlns="http://www.w3.org/2000/svg"><path fill="#F0F3FA" d="M0 0h18v18H0z"/><path fill="#00146A" d="M6 5h1v1H6zM12.92 7c-.3.06-.92.55-.92 1.76 0 1.5.67 1.9 1.12 1.9.3 0 .6-.2.79-.35v.36H15V7h1v5H9.42c1.23 0 1.57-.95 1.58-1.43V7h1.92Zm.57.8c.18 0 .33.05.42.12v1.7a.69.69 0 0 1-.42.16c-.33 0-.66-.28-.66-.94 0-.65.3-1.05.66-1.05ZM3.09 7C2.73 7 2 7.47 2 8.78V7h1.1ZM2 8.78c0 1.65.82 1.89 1.24 1.89H4c-.05.24-.26.47-.7.47-.4 0-.83-.19-.99-.28v.98c.22.05.75.16 1.1.16H2V8.78ZM9.4 12H3.42C4.65 12 5 11.05 5 10.57V7h1v4h1V7h2.1C8.72 7 8 7.47 8 8.78c0 1.65.82 1.89 1.24 1.89H10c-.05.24-.26.47-.7.47-.4 0-.83-.19-.99-.28v.98c.22.05.75.16 1.1.16ZM4 7.86c-.1-.03-.22-.06-.35-.06-.48 0-.75.5-.75 1.1 0 .6.32.94.68.94.18 0 .32-.04.42-.08v-1.9Zm5.65-.06c.13 0 .25.03.35.06v1.9c-.1.04-.24.08-.42.08-.36 0-.68-.34-.68-.94 0-.6.27-1.1.75-1.1Z"/></svg>