<!-- by TradingView --><svg width="18" height="18" xmlns="http://www.w3.org/2000/svg"><path fill="#D41E40" d="M0 0h18v18H0z"/><path d="M12.974 3c.014 0 .026.015.026.032 0 .016-.01.03-.024.031v.001c-1.977.797-3.938 3.85-4.73 7.349-.118.52-.21 1.052-.272 1.587 0 0-.327.042.024-1.753C5.967 8.659 6.758 3.687 12.97 3h.003zm-.004 1.01c.017 0 .03.015.03.033v5.961C13 13.207 9 15 9 15s-4-2.024-4-5.256V4l3.186.01c.016.002.028.016.028.033 0 .019-.013.033-.029.033h-.001l-2.866.295v5.383C5.318 12.627 9 14.633 9 14.633v-3.63c1.313.098 2.164-.99 2.642-2.51.156-.494.3-1.07.448-1.662.249-.998.508-2.038.853-2.798.004-.013.015-.022.027-.022z" fill="#fff"/></svg>