<!-- by TradingView --><svg xmlns="http://www.w3.org/2000/svg" width="18" height="18"><path fill="#F0F3FA" d="M0 0h18v18H0z"/><path fill="#1B1B4D" d="M5 5h8v8H5z"/><path d="M8.49 3.54l-.15.13c-.78.84-.17 2.85 1.36 4.5 1.53 1.64 3.4 2.3 4.18 1.47.05-.06.1-.12.13-.18.06-.04.1-.09.15-.14.72-.77.25-2.54-1.03-4.1l.61-.62-.25-.3-1.48 1.29.38.48.34-.41c1.23 1.48 1.78 3.08 1.28 3.8-.7.6-2.42-.14-3.9-1.74-1.47-1.58-2.17-3.4-1.62-4.18.65-.56 2.14.02 3.52 1.34l.4-.44C10.97 3.08 9.33 2.6 8.62 3.36c-.05.05-.1.11-.13.18z" fill="#9EA2A5"/><path d="M6.65 10L6 12h4.38l.62-2H6.65z" fill="#EAEAEA"/></svg>