<!-- by TradingView --><svg width="18" height="18" xmlns="http://www.w3.org/2000/svg"><path fill="url(#paint0_linear)" d="M0 0h18v18H0z"/><path d="M10.709 10.074l.675.207c.169.083.253.124.338.207.084.289.168.826.126 1.57 0 .372-.21.62-.59.826-.676.29-1.309.455-1.942.455-.717 0-1.434-.165-2.194-.579-.633-.372-1.139-.909-1.476-1.694a5.11 5.11 0 01-.422-2.025c-.043-1.653.548-2.85 1.687-3.595.802-.537 1.773-.785 2.87-.785.717 0 1.308.124 1.814.33.169.083.337.166.38.249.042.082.084.206.126.372l.253 1.157c.043.124.085.206.127.206.084.042.127-.041.127-.165l.21-2.314C11.723 4.166 10.709 4 9.739 4c-1.645 0-3.08.496-4.219 1.446C4.506 6.273 4 7.471 4 8.96c0 .206.042.413.042.62.211 1.818 1.055 3.14 2.574 3.884.76.372 1.646.537 2.616.537 1.393 0 2.658-.29 3.798-.95a21.079 21.079 0 01-.127-2.273c0-.248.127-.413.38-.496l.59-.207c.085-.04.127-.082.127-.124 0-.04-.084-.082-.253-.082h-2.912c-.168 0-.295.041-.295.082-.042.042.042.083.169.124z" fill="#fff"/><defs><linearGradient id="paint0_linear" x1="3.349" y1="3.122" x2="21.904" y2="24.434" gradientUnits="userSpaceOnUse"><stop stop-color="#1A1E21"/><stop offset="1" stop-color="#06060A"/></linearGradient></defs></svg>