<!-- by TradingView --><svg xmlns="http://www.w3.org/2000/svg" width="18" height="18" viewBox="0 0 18 18"><path fill="#F0F3FA" d="M0 0h18v18H0z"/><path d="M12.5 12.64C11.23 13.87 9.76 14 8.3 14A5.27 5.27 0 0 1 3 8.75a5.27 5.27 0 0 1 6.15-5.18c.39.06.61.45.52.83-.1.42-.53.66-.96.62a3.78 3.78 0 0 0-4.2 3.73c-.01 2.07 1.7 3.75 3.8 3.75 1.66 0 3.3-.3 4.03-2.5h-1.59a.75.75 0 0 1 0-1.5h2.5c.41 0 .75.34.75.75v4a.75.75 0 0 1-1.5 0v-.61zm.75-4.65c.41 0 .75-.33.75-.74a.75.75 0 0 0-.75-.75.75.75 0 0 0-.75.75c0 .4.34.74.75.74z" fill="#2A4246"/></svg>