<!-- by TradingView --><svg width="18" height="18" viewBox="0 0 18 18" xmlns="http://www.w3.org/2000/svg"><path fill="#2B94A7" d="M0 0h18v18H0z"/><path d="M15 6H6.8C4.75 6 3 7.99 3 9.97a4.1 4.1 0 0 0 3.41 3.97l.36.06.15-.37c.29-.7.74-1.67 1.29-2.66.68.31 1.49.45 2.24.45 2.5 0 4.03-2.57 4.43-4.77L15 6Zm-4.55 4.33c-.57 0-1.17-.1-1.7-.29l.15-.26c.62-1.02 1.45-2.39 2.57-2.78h2.32c-.47 1.56-1.48 3.33-3.34 3.33ZM6.81 7h2.9c-.77.79-1.39 1.8-1.95 2.76l-1.43-.33.98 1.12c-.43.8-.8 1.59-1.09 2.23-1.27-.39-2.27-1.43-2.27-2.8C3.95 8.57 5.35 7 6.81 7Z" fill="#FAFFFF"/></svg>