<!-- by TradingView --><svg width="18" height="18" viewBox="0 0 18 18" xmlns="http://www.w3.org/2000/svg"><path fill="url(#a)" d="M0 0h18v18H0z"/><path d="M8.47 5.03a3.01 3.01 0 0 1 2.3.59l.04-.56h1.09v5.75c0 .38-.03.74-.1 1.1a2.7 2.7 0 0 1-.64 1.3c-.27.3-.61.5-1.03.63a4.3 4.3 0 0 1-1.2.16v-.01l-.02-1.1h.01c.32 0 .6-.04.85-.12.46-.15.75-.47.9-.94.04-.18.07-.39.09-.62a8.74 8.74 0 0 0 0-.62c-.62.47-1.3.68-2.08.62a2.86 2.86 0 0 1-1.76-.76 3.06 3.06 0 0 1-.94-1.7 3.2 3.2 0 0 1 .15-1.84 2.97 2.97 0 0 1 2.34-1.88Zm.44 1.09c-.55 0-1.01.2-1.38.58-.35.38-.53.84-.53 1.39 0 .55.18 1 .54 1.38.36.4.82.59 1.37.59.55 0 1.01-.2 1.38-.59.35-.37.53-.84.53-1.38 0-.55-.18-1.01-.53-1.39a1.81 1.81 0 0 0-1.38-.58Z" fill="#fff"/><defs><linearGradient id="a" x1="9" y1="0" x2="9" y2="19.68" gradientUnits="userSpaceOnUse"><stop offset=".71" stop-color="#171A1E"/><stop offset=".96" stop-color="#F3C114"/></linearGradient></defs></svg>