<!-- by TradingView --><svg xmlns="http://www.w3.org/2000/svg" width="18" height="18" viewBox="0 0 18 18"><path fill="#F0F3FA" d="M0 0h18v18H0z"/><path d="M7.71 6.77s1.05-.9 2.44-.75c1.51.16 2.5 1.61 3.48 2.24.95.6 1.87.67 1.87.67s-1.22.86-2.37.78c-1.6-.12-2.78-1.46-3.59-2.13-.85-.71-1.83-.8-1.83-.8z" fill="#204667"/><path d="M5.1 7.91s1.06-.9 2.45-.75c1.5.16 2.5 1.62 3.47 2.24.95.6 1.87.68 1.87.68s-1.21.86-2.37.77c-1.6-.12-2.77-1.46-3.58-2.13-.86-.7-1.83-.8-1.83-.8z" fill="#204667"/><path d="M2.5 9.06s1.05-.9 2.44-.76c1.51.16 2.5 1.62 3.48 2.24.95.6 1.87.68 1.87.68s-1.22.86-2.37.77c-1.6-.12-2.78-1.45-3.59-2.13a3.74 3.74 0 0 0-1.83-.8z" fill="#204667"/></svg>