<!-- by TradingView --><svg width="18" height="18" viewBox="0 0 18 18" xmlns="http://www.w3.org/2000/svg"><path fill="#F0F3FA" d="M0 0h18v18H0z"/><path d="M14 12a4.18 4.18 0 0 0-8 0h.3c.6-1.23 2.03-2 3.7-2 1.67 0 3.1.77 3.7 2h.3Z" fill="#0B5537"/><path d="M14 12c-.77-2.9-3.16-5-6-5s-5.23 2.1-6 5h.3C3.09 9.63 5.34 8 8 8a5.93 5.93 0 0 1 5.7 4h.3Z" fill="#21A957"/><path d="M2 12c1.2-5.6 5.07-7 6.86-7 1.4 0 3.1.85 3.64 1.17-1.07-.03-3.62-.13-4.28 0-3.4.52-5.4 4.06-5.96 5.83H2Z" fill="#71BA32"/><path d="M16 12c-.73-3.83-3.02-6.63-5.73-6.63-2.7 0-5 2.8-5.72 6.63h.3c.75-3.21 2.9-5.53 5.42-5.53 2.53 0 4.67 2.32 5.43 5.53h.3Z" fill="#0B5537"/></svg>