<!-- by TradingView --><svg width="18" height="18" viewBox="0 0 18 18" xmlns="http://www.w3.org/2000/svg"><path fill="#F0F3FA" d="M0 0h18v18H0z"/><path fill-rule="evenodd" d="M14 4H4v5.77c2.13 0 6.46.83 9.06 4.23H14v-1.59c-.44.03-.97.08-1.53.17a7.65 7.65 0 0 0-.41-.4c.71-.11 1.4-.18 1.94-.22v-.29c-.6.04-1.4.12-2.24.27a9.8 9.8 0 0 0-.49-.37c1.02-.2 2-.3 2.73-.35v-.3c-.77.04-1.92.15-3.09.41-.18-.12-.37-.23-.55-.33 1.36-.35 2.75-.48 3.64-.52v-.21c-.85.01-2.45.15-3.96.55l-.56-.27-.12-.03V5.9l.35.28v4.25l.29-.07V6.3l.36.28v3.7l.34-.08V6.76l.3.29v3.1a18.9 18.9 0 0 1 3-.33V4Zm-1.55 10c-2.5-3.03-6.48-3.79-8.45-3.79v.28c1.87-.02 5.56.64 7.84 3.51h.6Zm-1.24 0c-2.16-2.5-5.5-3.08-7.21-3.06v.27c1.7.05 4.63.65 6.67 2.79h.54ZM10 14A9.45 9.45 0 0 0 4 11.66v.37A9.5 9.5 0 0 1 9.41 14H10Zm-1.35 0A9.15 9.15 0 0 0 4 12.48V14h4.64ZM7 9.54c.43.08 1.5.33 2 .73v-4.6L7 7.06v2.48Z" fill="url(#adkqwvzpq)"/><defs><linearGradient id="adkqwvzpq" x1="9" y1="4" x2="9" y2="14" gradientUnits="userSpaceOnUse"><stop stop-color="#C8B46D"/><stop offset=".79" stop-color="#695405"/></linearGradient></defs></svg>