<!-- by TradingView --><svg xmlns="http://www.w3.org/2000/svg" width="18" height="18" viewBox="0 0 18 18"><path fill="#F0F3FA" d="M0 0h18v18H0z"/><path fill-rule="evenodd" d="M13.14 11.8a5 5 0 0 0-6.12-7.4c.54.23 1.21.7 1.57 1.5.12.5.28 1.54 0 1.84.05-.7-.23-2.26-1.73-3.26a5.02 5.02 0 0 0-2.34 2.3 3.73 3.73 0 0 0 2.83 2 3 3 0 0 1-2.48-.88 5.19 5.19 0 0 1-.45-.9A4.98 4.98 0 0 0 9 14a5 5 0 0 0 1.36-.19 4.2 4.2 0 0 1-1.02-.74c-.66-.92-.49-2-.32-2.43a3.44 3.44 0 0 0 1.5 3.12c1.05-.33 1.94-1 2.56-1.87-.18-.65-.96-1.9-2.85-2.25.48-.05 1.45.06 2.22.87l.12.19c.23.33.55.8.57 1.1zM6.78 8.9c-.7 0-1.38-.42-1.63-.64.41.5 1.61 1.48 3.09 1.34.01-.12.1-.55.13-.75-.24.01-.9.04-1.6.05zm4.03.66c.69.02 1.36.47 1.6.7A3.84 3.84 0 0 0 9.39 8.8l-.16.74c.24 0 .9-.01 1.59.01zm-2.05-1.8c.2-.82-.03-1.63-.17-1.93 1.07 1.52.79 2.6.64 3.17l-.05.2-.14.6c-.13.54-.29 1.16-.28 1.65 0 .56.16 1.03.24 1.2a3.95 3.95 0 0 1-.65-3.28l.13-.48.28-1.12zm4.39-1.17c.14.22.48.87.64 1.74.15.86-.01 1.63-.11 1.9.05-.57.03-2.1-.53-3.64zm-8.46.29a.08.08 0 0 1 .02-.12l2.38-1.92a.08.08 0 0 1 .11.01l.06.07c.03.04.02.09-.01.12L4.87 6.95a.08.08 0 0 1-.12-.01l-.06-.07zm.55.5a.08.08 0 0 0-.01.1l.06.08c.03.03.08.04.11.01l2.38-1.92a.08.08 0 0 0 .02-.12l-.06-.07a.08.08 0 0 0-.12-.01L5.24 7.36zm.53.62a.08.08 0 0 1 .01-.11L8 6.09a.08.08 0 0 1 .11.02l.06.07c.03.03.02.08-.02.11l-2.2 1.79a.08.08 0 0 1-.12-.02L5.77 8zm.8.24a.08.08 0 0 0-.02.12l.06.07c.02.03.08.04.11.01l1.73-1.4a.08.08 0 0 0 0-.1l-.05-.08a.08.08 0 0 0-.11 0L6.56 8.22zm.91.36a.07.07 0 0 1 .01-.1l.92-.73a.07.07 0 0 1 .1 0c.06.08.05.2-.03.26l-.74.6a.18.18 0 0 1-.26-.03zm3.07 5a.08.08 0 0 1-.11-.02l-.06-.07a.08.08 0 0 1 .01-.12l2.3-1.82a.08.08 0 0 1 .1.02l.06.07c.03.04.03.09 0 .11l-2.3 1.82zm-.7-.6c.03.04.08.05.11.02l2.4-1.9a.08.08 0 0 0 .02-.12l-.06-.07a.08.08 0 0 0-.12-.01l-2.4 1.9a.08.08 0 0 0 0 .12l.05.07zm-.27-.62a.08.08 0 0 1-.11-.02l-.06-.07a.08.08 0 0 1 .01-.11l2.23-1.77a.08.08 0 0 1 .11.02l.06.07c.03.03.02.08-.01.11l-2.23 1.77zm-.35-.76c.03.04.08.05.11.02l1.74-1.38a.08.08 0 0 0 .01-.11l-.05-.07a.08.08 0 0 0-.12-.02L9.2 11.43a.08.08 0 0 0-.02.11l.06.07zm.01-.95a.07.07 0 0 1-.1 0 .18.18 0 0 1 .03-.26l.75-.6c.08-.06.2-.05.25.03.03.03.02.08 0 .1l-.93.73zM11.5 7.6a.78.78 0 1 1-1.56 0 .78.78 0 0 1 1.56 0z" fill="#122F5A"/><path fill-rule="evenodd" d="M8.59 5.82l.02.04a4.59 4.59 0 0 0-.13-.18A2.97 2.97 0 0 0 7.02 4.4 4.98 4.98 0 0 1 14 9c0 1.04-.32 2-.86 2.8-.02-.3-.34-.77-.57-1.1l-.12-.2a2.77 2.77 0 0 0-2.22-.86c1.89.36 2.67 1.6 2.85 2.25a5.01 5.01 0 0 1-2.55 1.87 3.44 3.44 0 0 1-1.51-3.12c-.16.4-.32 1.41.23 2.3l-.29-.4c-.07-.17-.17-.5-.2-.88a16 16 0 0 1 .28-1.88v.01a14.28 14.28 0 0 0 .19-.8c.15-.58.43-1.65-.64-3.17zm.02.06v-.02.02zm3.8 4.37a2.83 2.83 0 0 0-1.6-.7c-.7-.02-1.35-.01-1.6 0l.17-.75a3.84 3.84 0 0 1 3.04 1.45zm-1.86 3.33a.08.08 0 0 1-.11-.01l-.06-.07a.08.08 0 0 1 .01-.12l2.3-1.82a.08.08 0 0 1 .1.02l.06.07c.03.04.03.09 0 .11l-2.3 1.82zm-.7-.58c.03.03.08.04.11.01l2.4-1.9a.08.08 0 0 0 .02-.12l-.06-.07a.08.08 0 0 0-.12-.01l-2.4 1.9a.08.08 0 0 0 0 .12l.05.07zm-.27-.63a.08.08 0 0 1-.11-.02l-.06-.07a.08.08 0 0 1 .01-.11l2.23-1.77a.08.08 0 0 1 .11.02l.06.07c.03.03.02.08-.01.11l-2.23 1.77zm-.35-.76c.03.04.08.05.11.02l1.74-1.38a.08.08 0 0 0 .01-.11l-.05-.07a.08.08 0 0 0-.12-.02L9.2 11.43a.08.08 0 0 0-.02.11l.06.07zm.01-.95a.07.07 0 0 1-.1 0 .18.18 0 0 1 .03-.26l.75-.6c.08-.06.2-.05.25.03.03.03.02.08 0 .1l-.93.73zm2.25-3.02c0 .38-.33.73-.77.73a.77.77 0 0 1-.78-.73c0-.45.34-.83.78-.83s.77.38.77.83z" fill="#9F151B"/></svg>