<!-- by TradingView --><svg width="18" height="18" viewBox="0 0 18 18" xmlns="http://www.w3.org/2000/svg"><path fill="#008084" d="M0 0h18v18H0z"/><path d="m12 10.37-.51.47A11.4 11.4 0 0 1 9 13.01c-2.76 1.73-5 1.13-5-1.35S6.24 5.74 9 4v.72c-2.32 1.47-4.2 4.35-4.2 6.43 0 2.1 1.9 2.6 4.2 1.14a9.63 9.63 0 0 0 3-3.42M9 6.29c-1.35.85-2.44 2.52-2.44 3.74 0 1.2 1.1 1.5 2.44.65a5.85 5.85 0 0 0 2.07-2.34L9 9.65v-.72c.7-.44 2.36-1.6 3-2.01a7 7 0 0 1-3 4.5c-1.79 1.13-3.24.73-3.24-.88 0-1.6 1.45-3.83 3.24-4.95m5 3.65-1 .59V5.59L9 8.06v-.71l5-3.16" fill="#fff"/></svg>