<!-- by TradingView --><svg width="18" height="18" viewBox="0 0 18 18" xmlns="http://www.w3.org/2000/svg"><path fill="#F0F3FA" d="M0 0h18v18H0z"/><path d="M5.93 11H3.1a.1.1 0 0 1-.1-.16l3.32-5.79a.1.1 0 0 1 .18 0l1.43 2.41a.4.4 0 0 1 0 .4L6.28 10.8a.4.4 0 0 1-.34.2ZM12.52 8.1c.04-.07.12-.1.19-.1s.14.03.19.1l2.07 2.62c.08.13-.02.28-.19.28h-3.56c-.17 0-.27-.15-.2-.28l1.5-2.63ZM7.06 11.5l1.37 2.43c.06.1.2.1.25 0l3.56-6.25c.15-.28-.1-.58-.3-.82l-1.27-1.63c-.1-.11-.25-.3-.32-.17L7.06 11a.5.5 0 0 0 0 .5Z" fill="#003AB5"/></svg>