<!-- by TradingView --><svg width="18" height="18" viewBox="0 0 18 18" fill="none" xmlns="http://www.w3.org/2000/svg">
<rect width="18" height="18" fill="#F0F3FA"/>
<path fill-rule="evenodd" clip-rule="evenodd" d="M5.65322 12.7485C6.02622 12.9162 6.46231 13 6.9615 13C7.33169 13 7.66962 12.9643 7.97531 12.8929C8.28099 12.8215 8.71114 12.7112 9 12.5622V10.5828C9 10.2198 9.11323 9.89355 9.57906 9.89355H9.61272V9.5H7.25597V9.89355H7.28962C7.76875 9.89355 7.99634 10.1294 7.99634 10.5409V12.3433C7.87575 12.3837 7.73693 12.4132 7.57988 12.4318C7.42564 12.4504 7.26578 12.4597 7.10032 12.4597C6.7077 12.4597 6.37537 12.3945 6.10334 12.2641C5.00485 11.7375 5 10.4463 5 9.49301C5 9.477 4.99999 9.46088 4.99999 9.44466C4.99967 8.51198 4.99923 7.24201 6.04444 6.70792C6.30245 6.57441 6.61375 6.50765 6.97833 6.50765C7.18866 6.50765 7.36674 6.54336 7.51257 6.61477C7.65841 6.68618 7.77619 6.78088 7.86593 6.89887C7.95568 7.01375 8.02018 7.14571 8.05944 7.29474C8.0987 7.44067 8.11834 7.58816 8.11834 7.73719C8.33428 7.73719 8.52077 7.6782 8.67782 7.56021C8.83768 7.44223 8.9176 7.27922 8.9176 7.07119C8.9176 6.75139 8.76055 6.49678 8.44646 6.30739C8.2866 6.21113 8.08749 6.13662 7.84911 6.08383C7.61353 6.02794 7.33589 6 7.01619 6C6.5198 6 6.08371 6.08538 5.70791 6.25615C5.33211 6.42692 5.01802 6.666 4.76561 6.97339C4.51041 7.28077 4.31831 7.6487 4.1893 8.07718C4.0631 8.50566 4 8.9776 4 9.49301C4 10.0177 4.0603 10.4959 4.18089 10.9275C4.30148 11.3591 4.48517 11.7285 4.73196 12.0359C4.97595 12.3433 5.28304 12.5808 5.65322 12.7485ZM11.7009 13L13.2782 7.17305C13.2857 7.14498 13.2931 7.115 13.3008 7.08377C13.3707 6.79963 13.4663 6.41176 13.8549 6.41176H14V6H12.1436V6.41176H12.3184C12.9066 6.41176 12.7844 7.05464 12.6918 7.41205L11.5952 11.507L10.5736 7.24487C10.5538 7.17145 10.5377 7.10602 10.5253 7.04856C10.5153 6.99111 10.5104 6.93525 10.5104 6.88099C10.5104 6.56817 10.6629 6.41176 10.968 6.41176H11.1428V6H8.8586V6.41176H8.95905C9.26388 6.41176 9.39508 6.53596 9.49848 6.92886L11.1428 13H11.7009Z" fill="#98012E"/>
</svg>
