<!-- by TradingView --><svg width="18" height="18" viewBox="0 0 18 18" xmlns="http://www.w3.org/2000/svg"><path fill="#F0F3FA" d="M0 0h18v18H0z"/><path d="M7.11 13.5c.62 0 1.57-.47 1.97-.73-.43.36-1.64 1.23-2.72 1.23C5.27 14 5 13.16 5 12.47 5 9.57 8.22 6.46 10 6c-3.53 2.4-4.21 5.31-4.21 6.15 0 .85.55 1.35 1.32 1.35Z" fill="url(#a)"/><circle cx="12.5" cy="7.5" r=".5" fill="#CD2429"/><path d="M11.42 5.12c.9 0 1.03.76.97 1.13.28-.13.61-.64.61-1.11 0-.48-.5-1.2-1.11-1.14-3.32 0-7.3 4.82-6.86 7 1.18-3.95 5.26-5.88 6.39-5.88Z" fill="#CD2429"/><defs><linearGradient id="a" x1="7.5" y1="6" x2="7.5" y2="14" gradientUnits="userSpaceOnUse"><stop stop-color="#2358A4"/><stop offset="1" stop-color="#148CBE"/></linearGradient></defs></svg>