<!-- by TradingView --><svg xmlns="http://www.w3.org/2000/svg" width="18" height="18"><path fill="url(#asuc405um)" d="M0 0h18v18H0z"/><path fill-rule="evenodd" d="M7.1 5.02a.88.88 0 01-.02-.18c0-.46.36-.84.8-.84.32 0 .6.2.73.5a5.25 5.25 0 012.63.27.78.78 0 01.58-.26c.44 0 .8.37.8.83 0 .47-.36.84-.8.84a.82.82 0 01-.79-.97 4.8 4.8 0 00-2.37-.23c-.06.4-.39.7-.78.7a.78.78 0 01-.55-.23c-.68.37-1.23.94-1.65 1.6.1.13.17.3.17.48 0 .41-.33.75-.73.75-.1.29-.16.57-.2.85l.68-.4C6.89 8.02 8.45 7.38 9.68 7a.69.69 0 01.67-.64c.37 0 .67.32.67.71 0 .39-.3.7-.67.7a.66.66 0 01-.55-.3 23 23 0 00-3.98 1.7c-.34.19-.65.38-.93.56.01.5.12.98.34 1.37.16.28.33.54.52.76l.3-.04a18.6 18.6 0 006.54-2.17 3.52 3.52 0 00-.02-.74c-.1.06-.2.09-.33.09a.67.67 0 01-.61-.42l-.16.02c-.37.05-.82.18-1.3.36-.7.26-1.46.6-2.08.9v.08c0 .4-.3.7-.67.7a.69.69 0 01-.67-.7c0-.39.3-.7.67-.7.18 0 .34.07.46.2.64-.33 1.41-.68 2.14-.94a7.3 7.3 0 011.58-.4c.08-.3.34-.51.64-.51a.69.69 0 01.67.77l.05.12a2.6 2.6 0 01.11.9 8.54 8.54 0 001.45-1c.21-.2.36-.38.44-.54.08-.15.09-.26.06-.34-.04-.1-.13-.22-.37-.34a2.62 2.62 0 00-.42-.17.64.64 0 01-.57.35.66.66 0 01-.64-.68c0-.38.29-.68.64-.68.3 0 .57.22.63.52.22.07.4.14.56.22.3.15.5.35.6.6.1.26.04.52-.08.76-.12.23-.31.45-.55.67-.45.41-1.1.83-1.8 1.22l-.09.48c-.11.44-.3.89-.6 1.3.02.07.04.15.04.24 0 .39-.3.7-.67.7a.65.65 0 01-.3-.07c-.28.17-.6.31-.95.42-.34.1-.66.18-.97.24a.82.82 0 01-.8.73.82.82 0 01-.78-.62 3.97 3.97 0 01-.95-.17c-.54-.18-1-.47-1.38-.86-.55.05-1.05.04-1.46-.03-.51-.1-1-.32-1.1-.82-.04-.26.02-.52.15-.76.12-.24.31-.47.55-.7.2-.2.45-.39.72-.58.02-.45.1-.9.24-1.34a.77.77 0 01-.27-.6c0-.41.32-.75.72-.75a.7.7 0 01.17.02 5.13 5.13 0 011.8-1.77zm5.38 5.29c-.1.35-.24.71-.47 1.05a.65.65 0 00-.31-.09.69.69 0 00-.68.7c0 .1.02.19.05.27-.22.12-.47.23-.75.32-.32.1-.62.17-.91.22a.8.8 0 00-.73-.48.82.82 0 00-.78.6c-.3-.03-.57-.08-.82-.16-.32-.1-.6-.26-.87-.45a19.12 19.12 0 006.29-2.05l-.02.07zm-8.46.1c.13-.12.27-.24.43-.36.04.46.16.9.37 1.28.11.2.23.38.35.56-.37.01-.7 0-.98-.06-.5-.09-.68-.26-.72-.43a.64.64 0 01.1-.43c.08-.17.24-.36.45-.56z" fill="#fff"/><defs><linearGradient id="asuc405um" x1="3.35" y1="3.12" x2="21.9" y2="24.43" gradientUnits="userSpaceOnUse"><stop stop-color="#1A1E21"/><stop offset="1" stop-color="#06060A"/></linearGradient></defs></svg>