<!-- by TradingView --><svg width="18" height="18" viewBox="0 0 18 18" xmlns="http://www.w3.org/2000/svg"><path fill="#F0F3FA" d="M0 0h18v18H0z"/><path d="M9 13c.49 0 .88-.46.88-1.02s-.4-1.02-.88-1.02c-.49 0-.88.46-.88 1.02S8.52 13 9 13ZM9 10.67c.49 0 .88-.46.88-1.02 0-.57-.4-1.03-.88-1.03-.49 0-.88.46-.88 1.03 0 .56.4 1.02.88 1.02M8.27 8.5c.2-.4-.07-.95-.6-1.2-.2-.1-.4-.14-.58-.13-.33 0-.62.15-.75.41-.2.42.07.95.6 1.2.53.26 1.13.14 1.33-.28Z" fill="#636569"/><path d="M6 7.34c.2-.42-.08-.95-.6-1.2-.54-.26-1.13-.14-1.33.28-.2.41.06.95.6 1.2.53.25 1.12.13 1.32-.28Z" fill="#3D8175"/><path d="M9.75 8.5c-.2-.4.07-.95.6-1.2.19-.09.38-.13.56-.13.34 0 .64.14.77.41.2.42-.07.95-.6 1.2-.53.26-1.13.14-1.33-.28ZM12 7.33c-.2-.4.08-.95.6-1.2.53-.25 1.12-.13 1.33.29.05.1.07.2.07.3 0 .35-.26.7-.67.9-.53.25-1.12.13-1.32-.29Z" fill="#636569"/></svg>