<!-- by TradingView --><svg width="18" height="18" viewBox="0 0 18 18" xmlns="http://www.w3.org/2000/svg"><path fill="#F0F3FA" d="M0 0h18v18H0z"/><path d="M6 13V5h.35v8H6ZM11 13V5h.35v8H11ZM5.23 7.9h.12c0-.17.05-.39.13-.54C5.06 7.13 4.58 7 4.1 7c-.84.02-2.04.33-2.09 2 0 0-.13 1.98 2.04 2 0 0 .9-.02 1.44-.26V9h-.7v1.47s-.11.17-.68.17c-.57 0-1.41-.2-1.4-1.7 0 0-.16-1.58 1.4-1.58.16 0 .7-.05 1.13.54ZM8.73 7h-.15s-1.55 3.6-1.76 4h.55s.22-.84.48-1.45H9.2s.4.98.53 1.45h.73c.01 0-.3-.58-1.74-4Zm-.75 2.18.55-1.3.6 1.3H7.97ZM12.47 7h-.13s-.22 1.8-.57 4h.43s0-.37.27-2.8c0 0 1.12 2.31 1.32 2.8h.1s.47-1.26 1.3-2.82c0 0 .18 1.79.25 2.82H16s-.2-1.75-.41-4h-.12l-1.58 3.06S13 8.2 12.47 7Z" fill="#0192D8"/></svg>