<!-- by TradingView --><svg xmlns="http://www.w3.org/2000/svg" width="18" height="18" viewBox="0 0 18 18"><path fill="#F0F3FA" d="M0 0h18v18H0z"/><path d="M6.7 6.75 6 6.6v-.1h1.47L9.2 10l1.64-3.5h1.56v.1l-.73.15.33 4.75h-.98l-.27-3.66-1.74 3.66-1.88-3.8L7 11.5h-.48l.18-4.75Zm-1 4.07v.34c-.55.25-.9.34-1.53.34A2.1 2.1 0 0 1 2 9.37C2 7.7 3.11 7 4.54 7h1.15v1.4h-.14c0-.45-.26-.9-1.23-.9-1.03 0-1.62.77-1.62 1.75S3.33 11 4.32 11c.49 0 .68-.04.68-.04V9.88l-.5-.03v-.1l1.5.02v.08l-.3.03v.94Zm8.2.68c-.64 0-1.3-.4-1.3-.4V10h.1c.12.65.74 1 1.28 1 .43 0 1.02-.14 1.02-.66 0-.34-.42-.5-1.06-.72l-.04-.02c-.66-.24-1.3-.65-1.3-1.41 0-.92.85-1.19 1.49-1.19.14 0 .29.03.43.05.26.05.51.1.72-.05v1.5h-.1c0-.53-.47-1-1.05-1-.56 0-.93.24-.93.6 0 .4.4.57.93.78l.3.13c.67.3 1.11.56 1.11 1.24 0 .68-.56 1.25-1.6 1.25Z" fill="#1F3384"/></svg>