<!-- by TradingView --><svg width="18" height="18" viewBox="0 0 18 18" xmlns="http://www.w3.org/2000/svg"><path fill="#F0F3FA" d="M0 0h18v18H0z"/><path d="M8 8v.61h1.33c-.14.56-.63.77-1.18.77-.78 0-1.53-.57-1.53-1.39 0-.77.68-1.37 1.43-1.37.54 0 .98.27 1.34.63l.46-.44A2.58 2.58 0 0 0 8.05 6C6.95 6 6 6.85 6 8c0 1.17.98 2 2.1 2S10 9.34 10 8.23V8H8Z" fill="#016474"/><path d="M11.18 10.53a7.21 7.21 0 0 1 3.46 0 .5.5 0 0 1 .34.64.52.52 0 0 1-.66.33 5.01 5.01 0 0 0-3.76.32 4.82 4.82 0 0 0-2.43 2.82.52.52 0 0 1-.65.34.5.5 0 0 1-.34-.64c.28-.87.62-1.72 1.25-2.36L8 12c-2.28 0-4-1.74-4-3.97A4.09 4.09 0 0 1 8.13 4C10.41 4 12 5.78 12 8c0 .89-.32 1.86-.82 2.53ZM8 11a3 3 0 1 0 0-6 3 3 0 0 0 0 6Z" fill="#0096AE"/></svg>