<!-- by TradingView --><svg xmlns="http://www.w3.org/2000/svg" width="18" height="18" viewBox="0 0 18 18"><path fill="#F0F3FA" d="M0 0h18v18H0z"/><ellipse cx="10.34" cy="8.11" rx="1.1" ry="1.09" fill="#FE9901"/><path d="M8.86 4.54c.33 0 .6-.11.6-.26 0-.15-.26-.28-.6-.28-.33 0-.6.12-.6.26 0 .15.26.28.6.28Zm2.49.37c-.06.14-.36.15-.66.02-.31-.13-.51-.34-.46-.48.06-.14.36-.15.67-.02.3.13.5.35.45.48Zm1.15 1.75c.22.31.52.48.67.38.15-.1.09-.44-.13-.75s-.52-.48-.67-.38c-.15.1-.1.44.13.75Zm-6.27-.23c.31.12.43.58.26 1.04-.17.46-.57.73-.89.61-.32-.12-.43-.58-.26-1.04.17-.45.57-.73.89-.6Zm2.36.55c.32.38.22.98-.21 1.33-.43.35-1.04.33-1.36-.06-.32-.38-.22-.98.21-1.33.43-.35 1.04-.32 1.36.06Zm2.05 3c.31.39.22.99-.21 1.34-.44.35-1.05.32-1.36-.06-.32-.38-.23-.98.2-1.33.44-.35 1.05-.33 1.37.06Zm-3.97.6c-.3-.42-.23-.98.16-1.25.4-.28.96-.16 1.26.26.3.43.23 1-.16 1.27-.4.27-.96.15-1.26-.27Zm5.72-.7c.32.11.45.58.3 1.04-.17.46-.56.74-.88.63-.32-.1-.45-.57-.29-1.03.16-.46.55-.74.87-.63Zm.74-1.35c.02-.49-.23-.9-.57-.91-.33-.02-.63.36-.66.84-.03.49.22.9.56.92.34.01.64-.36.67-.85Zm-7.04.96c0-.48-.26-.88-.6-.89-.34 0-.62.39-.63.87-.01.49.26.89.6.9.34 0 .62-.39.63-.88Zm-1.82-.97c.15 0 .28.26.29.6 0 .33-.12.6-.27.6-.15 0-.28-.26-.29-.6 0-.32.11-.6.27-.6Zm1.25 2.85c-.22-.33-.52-.5-.67-.4-.15.1-.1.44.13.76.22.32.52.5.67.4.15-.1.1-.44-.13-.76Zm1.15 1.76c.05-.15.36-.16.67-.04.32.12.53.33.47.48-.06.14-.36.16-.67.04-.32-.12-.53-.34-.47-.48Zm2.48.31c-.34.01-.61.15-.6.3 0 .16.28.27.62.26.34-.01.6-.15.6-.3 0-.16-.28-.27-.62-.26Zm1.88-.27c-.1-.15.09-.44.4-.65.33-.21.67-.27.77-.13.1.15-.09.44-.4.65-.33.21-.67.27-.77.13Zm2.12-2.47c-.13.31-.12.61.03.67.14.06.36-.14.5-.45.13-.3.12-.6-.03-.67-.14-.06-.36.15-.5.45Zm.58-1.2c-.16 0-.29-.27-.3-.6 0-.34.12-.61.28-.61.15 0 .28.26.29.6 0 .33-.11.6-.27.61Zm-4.31-4c0 .33-.4.6-.89.6-.48-.01-.88-.29-.87-.62 0-.33.4-.6.88-.6.49 0 .88.28.88.62Zm1.07.96c.45.17.92.05 1.04-.26.12-.3-.15-.7-.6-.87-.46-.17-.93-.06-1.05.25s.15.7.6.88ZM8.1 12.39c-.12.32-.59.43-1.04.26-.46-.17-.73-.57-.6-.88.11-.3.58-.42 1.03-.25.46.17.73.56.61.87Zm1.33.7c.5.01.9-.25.9-.58.01-.34-.38-.62-.86-.63-.49-.01-.89.24-.9.58 0 .33.38.61.86.63ZM6.96 4.84c.1.14-.06.44-.38.67-.3.22-.65.28-.76.14-.1-.15.06-.45.38-.67.31-.23.65-.29.76-.14ZM4.85 7.29c.12-.3.1-.6-.05-.66-.14-.05-.35.15-.47.46-.12.31-.1.6.04.66.14.06.36-.15.48-.46Z" fill="#1D41AF"/></svg>