<!-- by TradingView --><svg width="18" height="18" viewBox="0 0 18 18" fill="none" xmlns="http://www.w3.org/2000/svg">
<rect width="18" height="18" fill="#F0F3FA"/>
<path fill-rule="evenodd" clip-rule="evenodd" d="M5.21581 5.13224C4.45323 5.61048 3.97682 5.90924 4.00088 6.89101L4 11.3331C4.01596 11.9725 4.34787 12.3356 4.85934 12.6553C5.92715 13.3236 6.99519 13.9924 8.06347 14.6618C8.98711 15.2397 9.35241 15.0128 10.2357 14.464L10.3439 14.3969C11.2299 13.8481 12.114 13.2956 12.9963 12.7393C13.5668 12.3784 13.9799 12.0685 14 11.3692V6.64114C13.9903 6.0386 13.6029 5.65817 13.1074 5.34302C12.0821 4.6922 11.0529 4.04915 10.0198 3.41384C9.36053 3.00789 8.95177 2.8068 8.22933 3.25326C7.25266 3.85655 6.27807 4.4641 5.30557 5.07589L5.21581 5.13224ZM13.6875 6.81072V11.1163C13.6805 11.6453 13.5113 12.007 13.1025 12.2651C12.4386 12.6843 11.2243 13.4412 9.45977 14.5357C9.06072 14.7833 8.68459 14.6295 8.27652 14.3774C7.21704 13.721 6.15917 13.0617 5.10292 12.3994C4.62269 12.0985 4.30487 11.7931 4.3125 11.2003V6.79647C4.31111 6.33475 4.51628 5.98533 4.89195 5.74821C6.04721 5.01836 7.20547 4.29401 8.36674 3.57517C8.7866 3.31479 9.13637 3.27577 9.54929 3.53015C10.6745 4.22498 11.7964 4.92632 12.9151 5.63416C13.4238 5.95606 13.6722 6.18117 13.6875 6.81072ZM8.76842 4.64452C9.12178 4.71244 9.40239 4.76638 9.71304 5.12093C9.73062 5.14094 9.73525 5.16395 9.72692 5.18996C9.65475 5.42408 9.6913 5.63868 9.83657 5.83377C9.85277 5.85528 9.87104 5.85803 9.8914 5.84203C10.0731 5.6981 10.0208 5.44116 9.97415 5.21181C9.95951 5.13983 9.94542 5.07057 9.93928 5.00838C9.93651 4.98336 9.92725 4.9616 9.91152 4.94309C9.62282 4.60318 9.14259 4.49438 8.72481 4.41409C8.70029 4.40909 8.67808 4.41484 8.65819 4.43135L8.52633 4.5364C8.52137 4.54041 8.51761 4.5459 8.51548 4.55218C8.51336 4.55847 8.51298 4.56529 8.51437 4.57181C8.51577 4.57833 8.51889 4.58427 8.52335 4.58891C8.52782 4.59354 8.53343 4.59668 8.53951 4.59793C8.61952 4.6159 8.69552 4.6305 8.76842 4.64452ZM7.98436 4.96334C7.8656 5.17322 8.00604 5.41084 8.12277 5.60833C8.14042 5.6382 8.15753 5.66715 8.17312 5.69494C8.18153 5.70956 8.18588 5.72648 8.18567 5.74369C8.18546 5.7609 8.18069 5.77769 8.17193 5.79206C8.16316 5.80643 8.15077 5.81779 8.13623 5.82478C8.12168 5.83177 8.10558 5.83411 8.08984 5.83151C7.80253 5.78574 7.39516 5.43082 7.65055 5.0759C7.66489 5.05589 7.68409 5.04463 7.70815 5.04213C7.84196 5.02944 7.87158 4.96042 7.90683 4.8783C7.92369 4.83903 7.94182 4.79677 7.97325 4.75624C7.98991 4.73473 8.01119 4.72223 8.0371 4.71872C8.27675 4.68521 8.51572 4.68846 8.75399 4.72848C8.76063 4.72962 8.76692 4.73252 8.77227 4.73692C8.77763 4.74131 8.78188 4.74706 8.78464 4.75363C8.78741 4.7602 8.78859 4.76738 8.78808 4.77452C8.78757 4.78167 8.7854 4.78854 8.78174 4.79451C8.71661 4.90483 8.58027 4.87994 8.43445 4.85332C8.26488 4.82236 8.08249 4.78906 7.98436 4.96334ZM8.70748 5.15464C8.79816 5.21217 8.8738 5.20116 8.93441 5.12163C8.95014 5.10062 8.97026 5.08711 8.99479 5.08111C9.10132 5.05388 9.18969 5.07038 9.27596 5.08649C9.34422 5.09923 9.41116 5.11173 9.48474 5.10212C9.52175 5.09761 9.52753 5.08061 9.50209 5.05109C9.24624 4.75995 8.9772 4.74444 8.69498 5.00457C8.68459 5.01414 8.67648 5.02627 8.67131 5.03993C8.66615 5.0536 8.6641 5.0684 8.66532 5.0831C8.66655 5.0978 8.67101 5.11197 8.67835 5.12442C8.68568 5.13687 8.69567 5.14723 8.70748 5.15464ZM8.56382 5.02334C8.50925 5.22546 8.50344 5.33133 8.49309 5.51995L8.48957 5.58311C8.48772 5.61662 8.47152 5.62988 8.44099 5.62287C8.21961 5.5711 7.87747 5.22443 8.07942 4.96106C8.09793 4.93704 8.12152 4.92604 8.15021 4.92804L8.5208 4.95655C8.56059 4.96006 8.57493 4.98232 8.56382 5.02334ZM10.042 5.16666C10.1593 5.41578 10.1683 5.77295 9.93169 5.94853C9.59534 6.19866 9.25852 6.44152 8.92125 6.67714C8.917 6.67989 8.9138 6.68418 8.91222 6.68925C8.91064 6.69432 8.91078 6.69983 8.91262 6.7048C8.91446 6.70977 8.91787 6.71387 8.92225 6.71636C8.92663 6.71885 8.93169 6.71958 8.93651 6.71841C9.1646 6.66688 9.38228 6.58934 9.58955 6.48579C9.63073 6.46528 9.67561 6.45203 9.72419 6.44602C9.94266 6.42024 10.0402 6.33937 10.1778 6.22522L10.1778 6.22522C10.2124 6.19651 10.2496 6.1657 10.2919 6.13312C10.5514 5.93353 10.6583 5.6604 10.6437 5.31523C10.6423 5.28722 10.6319 5.26371 10.6125 5.2447C10.4913 5.13014 10.3476 5.0446 10.1815 4.98807C10.1595 4.98063 10.1359 4.98038 10.1138 4.98736C10.0916 4.99433 10.0718 5.00823 10.0569 5.02729C10.042 5.04636 10.0327 5.06975 10.03 5.09454C10.0274 5.11933 10.0316 5.14442 10.042 5.16666ZM8.91985 5.29647C8.91703 5.29224 8.915 5.28744 8.91389 5.28235C8.91278 5.27727 8.9126 5.272 8.91338 5.26684C8.91415 5.26169 8.91586 5.25675 8.9184 5.2523C8.92094 5.24786 8.92426 5.244 8.92818 5.24095L8.9372 5.23344C8.99294 5.18928 9.05384 5.15785 9.10653 5.14603C9.15922 5.13421 9.19941 5.14298 9.21827 5.17041L9.21965 5.17191C9.22892 5.18559 9.23264 5.20345 9.23061 5.22447C9.22857 5.24549 9.22083 5.26926 9.20781 5.29442C9.19479 5.31957 9.17675 5.34562 9.15473 5.37108C9.13271 5.39654 9.10714 5.42091 9.07947 5.44279L9.06975 5.4503C9.06192 5.45655 9.05212 5.45919 9.0425 5.45764C9.03287 5.45609 9.02421 5.45048 9.0184 5.44204L8.91985 5.29647ZM9.58434 5.18069C9.60698 5.21258 9.53289 5.31513 9.41886 5.40973C9.30483 5.50434 9.19404 5.55518 9.17141 5.52328C9.14878 5.49139 9.22287 5.38885 9.3369 5.29424C9.45093 5.19964 9.56171 5.1488 9.58434 5.18069ZM9.0094 5.55835C9.01144 5.5604 9.01308 5.56287 9.01422 5.56561C9.01536 5.56836 9.01598 5.57132 9.01605 5.57433C9.01611 5.57733 9.01562 5.58033 9.0146 5.58312C9.01357 5.58592 9.01204 5.58847 9.01009 5.59062L8.98858 5.61388C8.94066 5.66769 8.87626 5.70013 8.80952 5.70407C8.74278 5.70801 8.67914 5.68313 8.63256 5.63489L8.6284 5.63039C8.58194 5.58194 8.55642 5.5141 8.55746 5.44179C8.55851 5.36947 8.58602 5.29859 8.63395 5.2447L8.65477 5.22069C8.65671 5.21853 8.65903 5.21682 8.66159 5.21565C8.66416 5.21448 8.66691 5.21388 8.66969 5.21388C8.67247 5.21388 8.67523 5.21448 8.67779 5.21565C8.68035 5.21682 8.68267 5.21853 8.68461 5.22069L9.0094 5.55835ZM9.63077 5.60594C9.6203 5.55968 9.60875 5.50872 9.58814 5.44657C9.57704 5.41406 9.55923 5.40906 9.53471 5.43157C9.17985 5.76773 8.77387 5.85827 8.31676 5.7032C8.28854 5.69369 8.27258 5.70495 8.26888 5.73696L8.255 5.84877C8.2513 5.87928 8.26309 5.89929 8.29039 5.9088C8.58973 6.00884 8.86247 6.16292 9.1086 6.37102C9.11814 6.37895 9.12977 6.38348 9.14192 6.38402C9.15408 6.38455 9.16618 6.38107 9.17661 6.37402L9.73249 5.98533C9.73999 5.98008 9.7464 5.97321 9.75132 5.96514C9.75623 5.95708 9.75954 5.948 9.76104 5.93847C9.76254 5.92895 9.7622 5.9192 9.76003 5.90983C9.75786 5.90045 9.75392 5.89167 9.74845 5.88403C9.66894 5.77443 9.65205 5.69987 9.63077 5.60594ZM7.72272 6.63288L7.34172 5.97181C7.32645 5.94479 7.32923 5.92003 7.35005 5.89752L7.54089 5.69117C7.55801 5.67266 7.57791 5.66766 7.60058 5.67617C7.98227 5.82474 7.88858 6.31172 7.78726 6.62462C7.78505 6.63156 7.78107 6.63768 7.77578 6.64228C7.7705 6.64688 7.76412 6.64978 7.75738 6.65064C7.75065 6.65151 7.74382 6.6503 7.73769 6.64715C7.73155 6.64401 7.72637 6.63906 7.72272 6.63288ZM8.82676 6.63794C8.88587 6.59309 8.9442 6.54883 8.99757 6.50383C9.00541 6.49728 9.01169 6.48881 9.0159 6.47912C9.02011 6.46943 9.02213 6.45879 9.02179 6.44809C9.02145 6.43739 9.01876 6.42693 9.01395 6.41757C9.00913 6.40822 9.00233 6.40023 8.9941 6.39428C8.69152 6.17117 8.36165 6.01259 8.00448 5.91855C8.00034 5.91751 7.99603 5.91749 7.99189 5.91849C7.98775 5.91949 7.98388 5.92148 7.9806 5.92431C7.97731 5.92713 7.97469 5.93073 7.97293 5.9348C7.97118 5.93888 7.97034 5.94333 7.97047 5.94781C7.97219 6.12079 7.94816 6.29945 7.9246 6.47453C7.85313 7.00578 7.78607 7.50423 8.45626 7.71191C8.50623 7.72692 8.51618 7.71191 8.4861 7.66689C8.14619 7.15438 8.49849 6.88705 8.82676 6.63794ZM8.87335 6.83398C9.04849 6.79736 9.21388 6.73822 9.37845 6.67937C9.56797 6.61159 9.7564 6.54421 9.95736 6.51208C9.97586 6.50908 9.98743 6.51733 9.99205 6.53684C10.0897 6.96605 10.0062 7.30696 9.74153 7.55958C9.4556 7.83271 8.84351 7.93176 8.55481 7.59035C8.26125 7.24368 8.51317 6.90902 8.87335 6.83398ZM9.6444 8.15833C9.40845 8.33842 9.22385 8.56478 9.0906 8.83741C9.0832 8.85191 9.07927 8.85091 9.07881 8.83441C9.06446 8.53226 9.08667 8.24387 9.14543 7.96924C9.14959 7.94973 9.14242 7.93822 9.12392 7.93472L8.69226 7.85218C8.6881 7.85132 8.68381 7.85175 8.67988 7.85344C8.67595 7.85512 8.67254 7.85798 8.67007 7.86169C8.66759 7.86539 8.66614 7.86978 8.66589 7.87435C8.66564 7.87891 8.6666 7.88346 8.66866 7.88745C8.79589 8.15308 8.86876 8.43696 8.88727 8.73911C8.89004 8.78513 8.87894 8.78938 8.85395 8.75187C8.70359 8.53026 8.53287 8.32841 8.34179 8.14633C8.30848 8.11431 8.299 8.12106 8.31334 8.16658L8.47643 8.68658C8.4866 8.7191 8.47781 8.72685 8.45006 8.70985C7.83013 8.32608 7.32905 8.2845 6.55715 8.22046L6.53188 8.21836C6.51707 8.21736 6.51569 8.22161 6.52771 8.23112C6.59357 8.28372 6.65842 8.33636 6.72263 8.38848C7.36547 8.91029 7.94455 9.38034 8.83799 9.24936C8.85789 9.24635 8.86807 9.25861 8.86853 9.28612C8.86853 9.31264 8.85673 9.32864 8.83314 9.33415C8.72395 9.35873 8.60987 9.36449 8.49723 9.37018C8.34853 9.37768 8.20234 9.38507 8.07322 9.43545C7.34163 9.7217 6.85634 10.3507 6.37479 10.9748C6.3123 11.0558 6.24987 11.1367 6.18697 11.2168C6.17077 11.2373 6.17494 11.2443 6.19946 11.2378C6.23386 11.2286 6.26812 11.2194 6.30221 11.2103C7.3871 10.9201 8.31213 10.6726 8.84771 9.4497C8.85083 9.44295 8.85591 9.4375 8.86217 9.43417C8.86843 9.43084 8.87553 9.42982 8.88238 9.43127C8.88923 9.43272 8.89545 9.43655 8.90009 9.44218C8.90474 9.44781 8.90754 9.45494 8.90809 9.46246C8.91225 9.53074 8.89976 9.62979 8.86575 9.69507C8.2171 10.9529 8.55519 12.3093 8.88722 13.6415C8.92144 13.7788 8.95559 13.9158 8.98859 14.0524C8.99275 14.0709 8.99692 14.0709 9.00108 14.0524C9.04298 13.8692 9.08491 13.6928 9.12556 13.5218C9.39194 12.4013 9.60368 11.5105 9.39596 10.4312C9.36012 10.2433 9.28075 10.0554 9.19946 9.863C9.14536 9.73495 9.09042 9.60488 9.04688 9.47146C9.04477 9.4654 9.04461 9.45878 9.04641 9.45265C9.04822 9.44651 9.0519 9.44119 9.05688 9.43752C9.06186 9.43384 9.06786 9.43201 9.07396 9.43232C9.08006 9.43262 9.08591 9.43504 9.0906 9.4392C9.18673 9.52876 9.25457 9.66265 9.32086 9.79345C9.35842 9.86757 9.39548 9.94071 9.4369 10.0042C9.89393 10.7039 10.7389 10.9489 11.4855 11.1654C11.5892 11.1955 11.6909 11.225 11.7895 11.2551C11.8219 11.2651 11.8272 11.2561 11.8055 11.2281C11.7464 11.1523 11.6868 11.0744 11.6264 10.9954C11.0136 10.1947 10.3167 9.28398 9.25994 9.36116C9.19933 9.36566 9.15098 9.34015 9.11489 9.28462C9.09592 9.25611 9.1024 9.2446 9.13433 9.25011C10.0546 9.40388 10.7149 8.85112 11.4125 8.26713C11.423 8.25838 11.4334 8.24963 11.4439 8.24087C11.4601 8.22736 11.458 8.22136 11.4377 8.22286C10.6666 8.27839 10.1704 8.32641 9.54863 8.69634C9.51301 8.71785 9.50191 8.70785 9.51532 8.66633L9.67216 8.18084C9.68466 8.14182 9.6754 8.13432 9.6444 8.15833Z" fill="#065B06"/>
</svg>
