<!-- by TradingView --><svg width="18" height="18" viewBox="0 0 18 18" xmlns="http://www.w3.org/2000/svg"><path fill="#F0F3FA" d="M0 0h18v18H0z"/><path d="m9 11.43-1.26.8-.34-.52L4 6.1a2.17 2.17 0 0 1 1.85-1.04l3.31 5.4-.15.96Z" fill="url(#a01ydnlue)"/><path d="m9 6.57 1.26-.8.34.52 3.4 5.6a2.17 2.17 0 0 1-1.86 1.04l-3.3-5.4.15-.96Z" fill="url(#b01ydnlue)"/><path d="M14 6.1a2.8 2.8 0 0 0-1.79-1.08l-3.94 6.44c-.26.46-.7.35-.88.24.42.7.93 1.3 1.64 1.3.56 0 1.02-.44 1.18-.66L14 6.1Z" fill="url(#c01ydnlue)"/><path d="M4 11.9a2.8 2.8 0 0 0 1.79 1.08l3.94-6.44c.26-.46.7-.35.88-.24C10.2 5.6 9.68 5 8.97 5c-.56 0-1.02.44-1.18.66L4 11.9Z" fill="url(#d01ydnlue)"/><defs><linearGradient id="a01ydnlue" x1="4.71" y1="5.39" x2="8.48" y2="11.42" gradientUnits="userSpaceOnUse"><stop stop-color="#59B6D5"/><stop offset=".4" stop-color="#65B6D4"/><stop offset=".88" stop-color="#8CC389"/><stop offset="1" stop-color="#85AD92"/></linearGradient><linearGradient id="b01ydnlue" x1="13.29" y1="12.61" x2="9.52" y2="6.58" gradientUnits="userSpaceOnUse"><stop stop-color="#BC93BF"/><stop offset=".4" stop-color="#AA9CBD"/><stop offset=".88" stop-color="#89A4BF"/><stop offset="1" stop-color="#8596AA"/></linearGradient><linearGradient id="c01ydnlue" x1="13.27" y1="5.44" x2="8.11" y2="12.61" gradientUnits="userSpaceOnUse"><stop stop-color="#A3D157"/><stop offset=".61" stop-color="#93CD9A"/><stop offset="1" stop-color="#78CFE2"/></linearGradient><linearGradient id="d01ydnlue" x1="4.73" y1="12.56" x2="9.89" y2="5.39" gradientUnits="userSpaceOnUse"><stop stop-color="#4EBECC"/><stop offset=".61" stop-color="#9CA9C9"/><stop offset="1" stop-color="#BC97C0"/></linearGradient></defs></svg>