<!-- by TradingView --><svg width="18" height="18" viewBox="0 0 18 18" xmlns="http://www.w3.org/2000/svg"><path fill="#F0F3FA" d="M0 0h18v18H0z"/><path d="M10.33 9c0 .69-.6 1.25-1.33 1.25-.74 0-1.33-.56-1.33-1.25S8.27 7.75 9 7.75c.74 0 1.33.56 1.33 1.25Z" fill="#0266A4"/><path d="M8.33 10.88c0 .51-.44.93-1 .93-.55 0-1-.42-1-.94 0-.51.45-.93 1-.93.56 0 1 .42 1 .94ZM9.67 10.88c0 .51.44.93 1 .93.55 0 1-.42 1-.94 0-.51-.45-.93-1-.93-.56 0-1 .42-1 .94Z" fill="#D62134"/><path d="M7 12.44c0 .34-.3.62-.67.62-.36 0-.66-.28-.66-.62 0-.35.3-.63.66-.63.37 0 .67.28.67.63ZM11 12.44c0 .34.3.62.67.62.36 0 .66-.28.66-.62 0-.35-.3-.63-.66-.63-.37 0-.67.28-.67.63Z" fill="#EC6524"/><path d="M8 7.6c0 .43-.37.78-.83.78-.46 0-.84-.35-.84-.79 0-.43.38-.78.84-.78.46 0 .83.35.83.78ZM10 7.6c0 .43.37.78.83.78.46 0 .84-.35.84-.79 0-.43-.38-.78-.84-.78-.46 0-.83.35-.83.78Z" fill="#006840"/><ellipse cx="5.5" cy="13.53" rx=".5" ry=".47" fill="#FBB320"/><path d="M12 13.53c0 .26.22.47.5.47s.5-.21.5-.47-.22-.47-.5-.47-.5.21-.5.47Z" fill="#FBB320"/><path d="M6.33 7.13c0 .34-.3.62-.66.62-.37 0-.67-.28-.67-.63 0-.34.3-.62.67-.62.36 0 .66.28.66.63ZM11.67 7.13c0 .34.3.62.66.62.37 0 .67-.28.67-.63 0-.34-.3-.62-.67-.62-.36 0-.66.28-.66.63Z" fill="#429545"/><path d="M5 6.66c0 .26-.22.46-.5.46s-.5-.2-.5-.46.22-.47.5-.47.5.2.5.47ZM13 6.66c0 .26.22.46.5.46s.5-.2.5-.46-.22-.47-.5-.47-.5.2-.5.47Z" fill="#8BC241"/><path d="M9.67 6.81c0 .35-.3.63-.67.63-.37 0-.67-.28-.67-.63 0-.34.3-.62.67-.62.37 0 .67.28.67.62Z" fill="#1B88C9"/><path d="M10 4.94c0 .52-.45.93-1 .93s-1-.41-1-.93S8.45 4 9 4s1 .42 1 .94Z" fill="#0D99D6"/></svg>