<!-- by TradingView --><svg xmlns="http://www.w3.org/2000/svg" width="18" height="18"><path fill="#F0F3FA" d="M0 0h18v18H0z"/><path fill-rule="evenodd" d="M11.34 10.82C10.9 12.12 10.02 13 9 13c-1.02 0-1.9-.89-2.34-2.18C5.44 10.44 4.62 9.77 4.62 9s.82-1.44 2.04-1.82C7.1 5.88 7.98 5 9 5c1.02 0 1.9.89 2.34 2.18a4 4 0 011.54.82h-1a4.1 4.1 0 00-.37-.15c.06.27.1.55.1.84h1.72c.03.1.04.2.04.31 0 .77-.8 1.44-2.03 1.82zm-.7.18c-.36.84-.96 1.38-1.64 1.38-.68 0-1.28-.54-1.65-1.38a8.43 8.43 0 003.3 0zm.24-.66a8.42 8.42 0 01-3.76 0 5.34 5.34 0 010-2.68 8.42 8.42 0 013.76 0c.08.32.13.67.15 1.03H9c0 .34.28.62.62.62h1.41c-.02.36-.07.7-.15 1.03zm.63-.19c.6-.22 1.04-.5 1.2-.84h-1.1c0 .29-.04.57-.1.84zM10.65 7a8.43 8.43 0 00-3.3 0c.37-.84.97-1.38 1.65-1.38.68 0 1.28.54 1.65 1.38zm-4.16.85C5.7 8.13 5.2 8.55 5.2 9c0 .46.5.87 1.28 1.15a5.97 5.97 0 010-2.3zM2 8h2.56c-.22.2-.89 1.22 0 2h-.89c-.17 0-.24-.05-.3-.11L2 8zm11.44 0H16l-1.38 1.88c-.05.07-.13.11-.3.12h-.88c.89-.78.22-1.8 0-2z" fill="#B9A154"/></svg>