<!-- by TradingView --><svg width="18" height="18" xmlns="http://www.w3.org/2000/svg"><path fill="#40B4E5" d="M0 0h18v18H0z"/><path d="M14.936 8.4h-.878l.789.777H13.38c-.367-1.25-1.71-1.777-2.553-1.56-.284-.734-1.137-.994-1.748-.78C8.717 6.356 7.932 6 7.233 6a2.575 2.575 0 00-2.347 1.57C3.75 7.723 3 8.57 3 9.575c0 1.142.972 2.072 2.226 2.072.288 0 .64-.066.883-.201.525.357 1.274.554 2.016.554.771 0 1.547-.209 2.125-.574.577.409 1.382.28 1.846-.264.253-.296.364-.676.364-1.072 0-.772-.59-1.387-1.319-1.387-.426 0-.772.155-1.043.4l.407.603a.846.846 0 01.6-.252c.278 0 .608.177.623.647.013.418-.338.744-.661.744a.93.93 0 01-.772-.377c-.553.501-1.459.712-2.17.712-.974 0-1.62-.361-1.944-.608-.247.161-.658.254-.955.254-.818 0-1.437-.56-1.437-1.25 0-.65.632-1.272 1.621-1.263.225-.868.974-1.494 1.823-1.493.856.002 1.274.453 1.598.933.205-.236.732-.343 1.103-.11.314.198.459.505.452.883.329-.168 1.127-.272 1.653.129.527.4.667.803.725 1.343h2.08l-.783.801h.878L16 9.586l-1.064-1.187z" fill="#fff"/></svg>