<!-- by TradingView --><svg width="18" height="18" viewBox="0 0 18 18" xmlns="http://www.w3.org/2000/svg"><path fill="#F0F3FA" d="M0 0h18v18H0z"/><path d="M6.86 8c.02 0 .04.02.04.04v3.22c.01.57.32 1.01.7 1.32.36.28.82.41 1.4.41s1.05-.14 1.4-.42c.39-.3.7-.74.7-1.32V8.04c0-.03 0-.04.03-.04h.82c.03 0 .04.01.04.04v2.72c.01.58-.02.99-.09 1.24a2.55 2.55 0 0 1-1.09 1.52c-.5.32-1.1.48-1.8.48-.71 0-1.31-.16-1.81-.48-.55-.35-.91-.85-1.1-1.5-.07-.26-.1-.68-.1-1.25V8.05c0-.03.01-.05.04-.05h.82Zm2.32-5c.03 0 .04.01.04.03v.76l.62.75v.02l.66 7.4c0 .03-.01.04-.04.04H7.54c-.03 0-.04-.01-.04-.03l.69-7.36v-.02l.67-.74.01-.02v-.8c0-.02.01-.03.04-.03h.27Zm-.34 8.38-.74.34-.01.02h.74c.03 0 .04 0 .04-.03v-.31c0-.03 0-.03-.03-.02Zm.38.05v.28c0 .02.01.03.03.04h.66l.01-.01v-.02l-.67-.3c-.02-.02-.03-.01-.03.01Zm-1.32-.62-.08.84c0 .02 0 .02.03.01l.94-.43c.02-.01.02-.03 0-.04l-.86-.4c-.02 0-.03 0-.03.02Zm2.18-.01-.85.4c-.03 0-.03.02 0 .03l.92.43c.02 0 .03 0 .03-.02l-.07-.83c0-.02-.01-.02-.03-.01Zm-1.24-.64-.84.46c-.02.01-.02.02 0 .03l.84.4c.02 0 .03 0 .03-.02v-.85c0-.02 0-.03-.03-.02Zm.38.04v.8c0 .01 0 .02.03 0l.78-.36c.02 0 .02-.02 0-.03l-.78-.42c-.02-.02-.03-.01-.03.01Zm-1.2-.66-.09.9.01.03h.02l.87-.48v-.03l-.79-.43h-.03Zm1.94 0-.73.41c-.02.02-.02.03 0 .04l.8.44h.03l.01-.02-.07-.85c0-.02-.01-.03-.04-.01Zm-1.12-.6-.75.4c-.02.01-.02.02 0 .03l.75.41c.02.01.03 0 .03-.02v-.81c0-.02-.01-.03-.03-.02Zm.38.05v.75c0 .03 0 .03.03.02l.68-.37c.02-.01.02-.03 0-.04l-.68-.38c-.02 0-.03 0-.03.02Zm.64-.61-.64.33a.04.04 0 0 0-.02.04c0 .02 0 .03.02.04l.73.38h.01l-.06-.78c0-.02-.02-.02-.04-.01Zm-1.74 0-.07.76.01.02h.02l.74-.4c.02-.01.02-.02 0-.03l-.66-.37c-.02-.01-.03 0-.04.02Zm.72-.52-.62.32c-.02 0-.02.02 0 .03l.62.35c.02.01.03 0 .03-.02v-.66c0-.02 0-.03-.03-.02Zm.37.05v.59c0 .02.01.02.03.01l.57-.3c.02 0 .02-.01 0-.02l-.57-.3c-.02 0-.03 0-.03.02Zm.57-.51-.57.26c-.02.01-.02.02 0 .04l.62.32c.02 0 .03 0 .03-.02l-.05-.59c0-.01-.01-.02-.03-.01Zm-1.56-.03L8.16 8c0 .02 0 .02.03.01l.65-.3c.02-.01.02-.02 0-.03l-.6-.31c-.01-.01-.02 0-.02.01Zm.62-.4-.48.24c-.02 0-.02.02 0 .03l.48.25c.02.01.03 0 .03-.02v-.5c0-.01 0-.02-.03 0Zm.38 0v.5c0 .02.01.02.03.01l.47-.24c.02-.02.02-.03 0-.04l-.47-.24c-.02-.01-.03 0-.03.01Zm-.93-.45-.04.53c0 .02 0 .02.03.01l.56-.27c.02 0 .02-.02 0-.03l-.52-.25c-.02-.01-.03 0-.03.01Zm1.41.02-.44.22c-.02 0-.02.02 0 .03l.48.24c.02 0 .03 0 .03-.02l-.04-.45c0-.02 0-.03-.03-.02Zm-.48-.45v.48c0 .02 0 .03.03.02l.45-.22c.02-.01.02-.02 0-.04l-.45-.25c-.02-.01-.03 0-.03.01Zm-.38-.04-.46.28c-.02 0-.02.02 0 .03l.46.22c.02.01.03 0 .03-.01v-.5c0-.03 0-.03-.03-.02Zm-.46-.43-.05.5c0 .02.01.02.03.01l.5-.26c.02 0 .02-.02 0-.03l-.45-.23-.03.01Zm1.24-.02-.41.22c-.02 0-.02.02-.02.03 0 .01 0 .03.02.03l.46.24c.02.01.02 0 .02-.02l-.04-.49c0-.01-.01-.02-.03 0Zm-.78-.37-.37.2c-.02 0-.02.01 0 .02l.38.22c.02 0 .03 0 .03-.02l-.01-.4c0-.02-.01-.03-.03-.02Zm.38.04V5.62h.03l.31-.18c.02-.02.02-.03 0-.04l-.3-.15c-.03-.01-.04 0-.04.02Zm-.77-.39-.04.37c0 .02.01.02.02.01l.39-.2c.02 0 .02-.02 0-.03l-.33-.17c-.02-.01-.04 0-.04.02Zm1.1-.03-.32.18c-.02 0-.02.02 0 .03l.35.18h.02l.01-.02-.03-.36c0-.02-.01-.03-.03-.01Zm-1.03-.17H8.5l.01.03.34.15c.02.01.03 0 .03-.01V4.7c0-.02-.02-.03-.04-.03h-.32Zm.74-.01c-.02 0-.03 0-.04.03V4.84h.02l.25-.13v-.02l-.23-.02Zm-.4-.4-.2.21v.02l.02.02h.15c.03 0 .04-.01.04-.03l.01-.22h-.02Zm.36-.01v.22c0 .03.01.04.04.04h.16l.02-.01v-.02l-.2-.24h-.01v.01Z" fill="#000F47"/></svg>