<!-- by TradingView --><svg xmlns="http://www.w3.org/2000/svg" width="18" height="18" viewBox="0 0 18 18"><path fill="#F0F3FA" d="M0 0h18v18H0z"/><path d="M8.84 5.42 5.79 7.17l.66.38 2.39-1.37v-.76ZM5.7 8.6V7.5l.66.38v.37l-.66.36ZM11.53 7.54 9.17 6.18v-.76l3.02 1.74-.66.38ZM11.64 8.2v-.34l.66-.38v1.08l-.66-.36ZM8.84 4 4.56 6.46l.66.38 3.62-2.08V4ZM4.38 9.33v-2.6l.66.39v1.85l-.66.36ZM12.76 6.83l-3.6-2.07V4l4.26 2.45-.66.38ZM12.96 8.92V7.1l.66-.38v2.56l-.66-.36Z" fill="#DFC439"/><path d="m10.62 8.95 4.13 2.3.85-.47-5.02-2.8-.88.6.76.48.16-.11ZM10.44 10.61 7.5 8.91l-4.25 2.43-.84-.47 5.1-2.9 3.75 2.16-.8.48Z" fill="#18478D"/><path d="m9.58 11.05-.8.48-1.43-.84-1.16.68 2.9 1.68 3.68-2.16 1.2.69-.8.49-.4-.23L9.08 14l-3.7-2.16-.5.3-.83-.48 3.33-1.94 2.2 1.33Z" fill="#18478D"/></svg>