<!-- by TradingView --><svg width="18" height="18" xmlns="http://www.w3.org/2000/svg"><path fill="#71B2C9" d="M0 0h18v18H0z"/><path d="M9.844 13.695a4.507 4.507 0 01-3.917-2.265C4.68 9.264 5.422 6.488 7.582 5.242a4.507 4.507 0 016.17 1.655c1.247 2.166.505 4.943-1.655 6.19a4.48 4.48 0 01-2.253.61zm0-8.768c-.778 0-1.426.114-2.116.517-2.14 1.236-2.759 3.699-1.527 5.84.83 1.437 1.992 2.097 3.544 2.097.758 0 1.523-.136 2.23-.545 2.139-1.235 2.691-3.712 1.46-5.852-.599-1.04-1.341-1.575-2.496-1.885-.391-.103-.708-.172-1.095-.172z" fill="#fff"/><path d="M9.175 13.732c-1.243 0-2.449-.507-3.279-1.505-.742-.895-1.072-2.043-.927-3.232a4.761 4.761 0 011.69-3.071c1.954-1.63 4.789-1.458 6.32.388 1.53 1.846 1.185 4.669-.763 6.303a4.768 4.768 0 01-3.041 1.117zm.53-8.7c-1.046 0-2.001.323-2.893 1.062-.938.781-1.448 1.722-1.593 2.901a3.95 3.95 0 00.916 3.112c.82.987 1.808 1.367 3.04 1.367 1.046 0 1.974-.31 2.866-1.049 1.933-1.618 2.25-4.128.73-5.959-.82-.982-1.834-1.433-3.066-1.433z" fill="#fff"/><path d="M8.283 13.618a3.716 3.716 0 01-2.288-.76c-.887-.683-1.408-1.733-1.47-2.958-.061-1.226.351-2.477 1.15-3.527.804-1.05 1.902-1.768 3.093-2.032 1.195-.258 2.34-.026 3.231.657.887.682 1.407 1.732 1.47 2.958.061 1.225-.351 2.476-1.15 3.526-.804 1.05-1.902 1.768-3.093 2.032-.32.067-.634.104-.943.104zm-2.103-.985c.876.678 1.681.884 2.862.625a5.353 5.353 0 003.099-1.987c.793-1.04 1.081-2.1 1.024-3.315-.056-1.216-.435-2.049-1.312-2.72-.876-.678-1.9-.91-3.085-.65-1.186.258-2.09.842-2.888 1.886A5.126 5.126 0 004.818 9.9c.056 1.21.48 2.056 1.362 2.733z" fill="#fff"/><path d="M8.324 14c-2.268 0-4.113-2.171-4.113-4.845 0-2.673 1.845-4.845 4.113-4.845 2.268 0 4.113 2.172 4.113 4.845 0 2.674-1.845 4.845-4.113 4.845zm0-9.44c-2.247 0-3.844 1.948-3.844 4.595 0 2.648 1.597 4.566 3.844 4.566s3.854-1.918 3.854-4.566c0-2.647-1.607-4.594-3.854-4.594z" fill="#fff"/><path d="M8.658 13.656c-.809 0-1.435-.177-2.203-.586-1.175-.625-2.167-1.433-2.574-2.684a4.73 4.73 0 01.31-3.697 4.698 4.698 0 012.886-2.322 5.034 5.034 0 013.773.42c2.422 1.297 3.38 4.26 2.134 6.608-.846 1.597-3.176 2.197-4.326 2.26zm-.213-9.289a4.4 4.4 0 00-1.288.198C5.91 4.922 5.02 5.652 4.422 6.78c-.598 1.127-.706 2.31-.31 3.545.403 1.236 1.078 2.312 2.243 2.937 2.402 1.288 5.196.46 6.434-1.866 1.236-2.327.373-5.138-2.034-6.425-.752-.399-1.495-.603-2.31-.603z" fill="#fff"/></svg>