<!-- by TradingView --><svg xmlns="http://www.w3.org/2000/svg" width="18" height="18" viewBox="0 0 18 18"><path fill="#203864" d="M0 0h18v18H0z"/><path d="M13.24 7.35l-1.87 4.53a.2.2 0 0 1-.37 0c-.39-.95-1-2.37-1.37-3.21-.17-.39-.29-.65-.3-.7-.08-.19-.25-.4-.33-.47h.5c.18 0 .35.14.42.3l1.28 2.93 1.46-3.55c-.96-.26-2.1-.42-3.4-.42C5.4 6.76 2.9 8.18 2.9 9.5c0 1.06 1.67 1.89 2.5 2.17-1 0-3.39-1.21-3.39-2.5 0-1.3 2.57-2.84 7.27-2.84 1.42 0 2.6.17 3.56.45l.61-1.5a.45.45 0 0 1 .42-.28h.56c-.14 0-.29.21-.34.32l-.68 1.64c1.79.64 2.6 1.63 2.6 2.2 0 .73-.58 1.25-.87 1.41.58-.63.66-.98.62-1.07 0-.77-.93-1.6-2.51-2.15zM9 7.74v.63c0-.18-.2-.28-.29-.3H7.17c-.53.05-1.6.48-1.6 1.71s1.12 1.62 1.67 1.66h1.19v-1.38c0-.03-.02-.06-.05-.06H7.12c-.22 0-.38.2-.4.3v-.45c0-.25.26-.45.51-.45h1.38c.25 0 .4.2.4.45v1.77c0 .2.2.34.28.38H7.33C6.55 11.97 5 11.48 5 9.78A2.2 2.2 0 0 1 7.03 7.5h1.48c.38 0 .48.16.49.24z" fill="#fff"/></svg>