<!-- by TradingView --><svg width="18" height="18" viewBox="0 0 18 18" xmlns="http://www.w3.org/2000/svg"><path fill="#F0F3FA" d="M0 0h18v18H0z"/><path fill-rule="evenodd" d="M9 4H4v5h5V4ZM5 6.5C5 7.36 5.83 8 6.65 8c.23 0 .42-.08.6-.16.14-.07.28-.13.45-.15.03-.01.05-.02.06-.04a.12.12 0 0 0 .02-.06c0-.01 0-.03-.02-.04-.02-.04-.06-.1-.06-.15v-.1a2.52 2.52 0 0 1 0-.3c.02-.15.03-.3.2-.35.03 0 .05 0 .07-.02A.07.07 0 0 0 8 6.57c0-.03-.01-.04-.03-.05a.1.1 0 0 0-.06-.02H6.75c-.02 0-.04 0-.06.02a.06.06 0 0 0-.04.05c0 .02.02.05.04.06l.07.03c.24.03.36.2.34.47v.27c0 .3-.16.39-.44.39-.71 0-1.06-.68-1.06-1.29 0-.62.45-1.29 1.13-1.29.39 0 .66.18.82.52a.6.6 0 0 0 .04.08c.02.02.04.03.07.03.02 0 .04 0 .05-.03a.1.1 0 0 0 .03-.06c0-.06 0-.14-.02-.23a5.4 5.4 0 0 0-.06-.33.13.13 0 0 0-.05-.04 2.53 2.53 0 0 0-.9-.15C5.82 5 5 5.58 5 6.5Z" fill="#003064"/><path fill-rule="evenodd" d="M14 4H9v5h5V4Zm-4 3.94c0 .04.06.06.13.06h1.36c.05 0 .12-.02.12-.06 0-.05-.04-.08-.13-.09-.24-.04-.48-.1-.48-.31V5.42c0-.14.43-.25.56-.25.54 0 .69.36.69.73 0 .27-.03.83-.5.83a1.7 1.7 0 0 1-.23-.01c-.02 0-.04 0-.07.02-.02.01-.03.03-.03.05 0 .02.02.05.07.07.05.03.12.04.21.04.76 0 1.3-.39 1.3-1 0-.62-.77-.9-1.44-.9h-1.42c-.05 0-.14.04-.14.09 0 .03.04.07.14.09.2.03.23.24.23.37v1.99c0 .2 0 .27-.23.31-.1.02-.14.05-.14.1ZM9 9H4v5h5V9Zm-4 3.93c0 .04.05.06.12.06h.9c.08 0 .11-.04.11-.07 0-.04-.04-.07-.11-.09-.15-.04-.28-.11-.25-.29.02-.12.06-.24.1-.36l.05-.17c.02-.06.04-.08.07-.08h.75c.06 0 .08.02.1.07l.14.59c.02.13-.07.2-.27.24-.06 0-.11.04-.11.09 0 .04.06.08.1.08a109.52 109.52 0 0 1 1.2 0c.03 0 .1-.03.1-.07 0-.05-.04-.08-.11-.1a.5.5 0 0 1-.28-.16.6.6 0 0 1-.1-.19c-.25-.82-.86-2.47-.86-2.47-.26 0-.35.28-.43.5l-.01.05s-.48 1.32-.74 1.96a.51.51 0 0 1-.36.3c-.06.03-.11.05-.11.1Zm1.69-1.13H6.1c-.06 0-.1-.09-.07-.14l.35-1.01c0-.04.02-.06.02-.06l.03.06.3 1c0 .05 0 .15-.05.15Z" fill="#83ABF1"/><path fill-rule="evenodd" d="M14 9H9v5h5V9Zm-4 2.53c0 .95.93 1.47 1.79 1.47.38 0 .72-.05.96-.15a.27.27 0 0 0 .09-.04.2.2 0 0 0 .04-.08 1.87 1.87 0 0 0 .12-.49c0-.04-.02-.07-.07-.07-.04 0-.08.02-.1.07-.2.37-.53.56-.96.56-.76 0-1.27-.6-1.27-1.3 0-.65.6-1.3 1.26-1.3.45 0 .78.16.91.6.02.03.04.06.07.07h.08a.06.06 0 0 0 .03-.07 3.44 3.44 0 0 0-.04-.53.12.12 0 0 0-.04-.08.2.2 0 0 0-.08-.05c-.27-.09-.58-.14-.87-.14-.88 0-1.92.53-1.92 1.53Z" fill="#003064"/></svg>