<!-- by TradingView --><svg width="18" height="18" viewBox="0 0 18 18" xmlns="http://www.w3.org/2000/svg"><path fill="#F0F3FA" d="M0 0h18v18H0z"/><path d="M6.3 9v.34c.23-.02.7-.03.7.39v.15c.02.57.04 1.6-1.15 1.6-1.3 0-1.85-1.21-1.85-2.75S5.1 6.5 5.93 6.5c.83 0 1.6.62 1.78 1.5H8V6.18h-.33l-.14.5c-.2-.23-1-.68-1.8-.68C4.7 6 3 6.8 3 9.07 3 11.33 4.7 12 5.64 12c.47 0 .8-.09 1.15-.18.35-.1.7-.19 1.21-.19V9.8c0-.29.36-.45.62-.45h.08V9H6.3Zm6.3-3c-.96 0-2 .05-2.4.08v.25h.27c.27 0 .53.4.53.7v4.04c0 .3-.26.6-.53.6h-.27V12h2.69v-.33h-.3c-.26 0-.59-.3-.59-.6V9.32c2.03.1 3-.45 3-1.71C15 6.34 13.81 6 12.6 6ZM12 8.86V6.52h.51c1.35 0 1.49.63 1.49 1.03s-.02.7-.33 1.02c-.25.25-.83.3-1.1.29H12Z" fill="#010F3C"/><path d="M9.81 10h.78v.08a.6.6 0 0 0-.3.2c-.04.05-.09.13-.13.22-.07.15-.15.3-.25.4.09.14.32.43.54.43.16 0 .25-.09.27-.14h.08a.42.42 0 0 1-.42.31.77.77 0 0 1-.63-.36c-.1.12-.36.36-.66.36a.7.7 0 0 1-.69-.72c0-.34.4-.64.6-.75a.85.85 0 0 1-.22-.5c0-.27.16-.53.53-.53s.48.29.48.43c0 .13-.15.38-.51.53l.6.84.03-.04c.08-.11.2-.29.2-.43 0-.17-.2-.22-.3-.23V10Zm-.8-.6c0 .18.15.4.22.5.12-.07.36-.25.36-.45 0-.25-.16-.36-.29-.36-.12 0-.3.06-.3.3Zm.69 1.66-.65-.97c-.22.17-.4.37-.4.66 0 .29.33.57.6.57.22 0 .39-.17.45-.26Z" fill="#EDB531"/></svg>