<!-- by TradingView --><svg xmlns="http://www.w3.org/2000/svg" width="18" height="18" viewBox="0 0 18 18"><path fill="url(#azxvgjesr)" d="M0 0h18v18H0z"/><path d="M14 12.26V10.2c-.91.34-2.1 1.3-2.47 2.28-.48-.03-1.02-.11-1.62-.23a11.61 11.61 0 0 0-5.2.07c.68-2 3.1-2.96 4.82-2.96C9.25 8.76 8.52 8.2 7.3 8H4V13h10v-.74ZM13 9.5c0-.44-1.12-1.3-2.71-1.5H14v1.5h-1ZM4 5h10v2.3h-1.5S11.44 5.5 9 5.5 5.5 7.3 5.5 7.3H4V5Z" fill="#fff"/><path d="M8.4 8a3.1 3.1 0 0 1 2.07 1.5h.43c-.25-.44-.9-1.33-2.5-1.5Z" fill="#fff"/><path d="M9.31 8c1.59.28 2.2 1.1 2.41 1.5h.44c-.23-.44-.8-1.33-2.85-1.5ZM6.2 12.1h.67s.97-2.05 3.96-2.62a.77.77 0 0 0-.04-.04c-4 .45-4.59 2.67-4.59 2.67Z" fill="#fff"/><path d="M9.34 12.16s.72-2.2 4.25-2.75c-3.82.07-4.9 2.75-4.9 2.75h.65Z" fill="#fff"/><defs><linearGradient id="azxvgjesr" x1="7" y1="-2.25" x2="9" y2="22.25" gradientUnits="userSpaceOnUse"><stop offset=".11" stop-color="#3E5F7C"/><stop offset=".35" stop-color="#83969B"/><stop offset=".57" stop-color="#A5A079"/><stop offset=".74" stop-color="#C4A959"/></linearGradient></defs></svg>