<!-- by TradingView --><svg width="18" height="18" xmlns="http://www.w3.org/2000/svg"><path fill="#122344" d="M0 0h18v18H0z"/><path d="M12.949 5h-1.281v.333h.317v7.242c-.009.155-.063.213-.281.222h-.036V13h1.562v-.203h-.245c-.254-.01-.37-.116-.38-.357V9.667h.444c.636 0 .99-.382.99-.816V5.888c0-.434-.3-.888-1.09-.888zm.447 2.278V8.88c0 .24-.129.463-.41.453h-.38v-4h.343a.43.43 0 01.447.449v1.496zM5.25 9.667h.313v2.706c.009.241-.318.444-.545.453H5.01c-.227 0-.384-.202-.384-.453V5.782c0-.184.111-.608.402-.599.237 0 .38.232.452.589.082.367.182.986.243 1.721 0 .126.045.174.173.174h.293V5h-.313v.183c0 .126-.063.116-.127.078A1.553 1.553 0 004.955 5C4.564 5 4 5.183 4 5.975v5.819c.01 1.013.51 1.196 1.01 1.206.38 0 .705-.212.85-.29.1-.048.173.136.173.29h.154V9.667H6.5v-.334H5.25v.334zm3.353-.334l.355-3.165.4 3.165h-.755zm1.746 3.117L9.494 5h-.672l-.855 7.47c-.045.23-.202.289-.53.308V13h1.25v-.203a.573.573 0 01-.374-.106.245.245 0 01-.055-.154l.318-2.87h.818l.337 2.87c0 .183-.019.25-.228.26h-.19V13h1.562v-.203h-.162c-.264 0-.346-.173-.364-.347z" fill="#fff"/></svg>