<!-- by TradingView --><svg width="18" height="18" viewBox="0 0 18 18" xmlns="http://www.w3.org/2000/svg"><path fill="#F0F3FA" d="M0 0h18v18H0z"/><path d="M5.14 10.05V5.96a6.03 6.03 0 0 0 3.91-1.75c1.1 1.34 3 1.73 3.8 1.75v3.28c-3.52.3-6.38 1.58-7.37 2.18a3.53 3.53 0 0 1-.34-1.37Z" fill="url(#a)"/><path d="M12.86 9.84c-3.24.71-5.61 2.24-6.39 2.9a3.38 3.38 0 0 0 2.58 1.12c3.13-.38 3.84-2.83 3.8-4.02Z" fill="url(#b)"/><path d="m9.06 4 .1.13a4.58 4.58 0 0 0 1.95 1.32c.7.27 1.36.37 1.75.38H13v3.53l-.13.01c-3.5.3-6.34 1.58-7.31 2.17l-.14.08-.06-.14A3.66 3.66 0 0 1 5 10.05V5.83h.14a5.94 5.94 0 0 0 3.8-1.7L9.07 4ZM5.28 6.1v3.95c0 .19.06.67.27 1.18 1.1-.63 3.82-1.8 7.17-2.11V6.09a6.3 6.3 0 0 1-1.7-.38 4.94 4.94 0 0 1-1.98-1.3c-.23.23-.68.6-1.27.93a5.5 5.5 0 0 1-2.49.76ZM13 9.68v.16c.03.61-.15 1.55-.73 2.39A4.32 4.32 0 0 1 9.07 14h-.01a3.52 3.52 0 0 1-2.7-1.17l-.08-.1.1-.08a16 16 0 0 1 6.45-2.94l.16-.03Zm-6.32 3.08c.75.82 1.88.99 2.37.97a4.04 4.04 0 0 0 2.99-1.65c.5-.71.67-1.5.69-2.07-3 .7-5.21 2.07-6.05 2.75Z" fill="#F7C65C"/><defs><linearGradient id="a" x1="12.86" y1="9.04" x2="5.14" y2="9.04" gradientUnits="userSpaceOnUse"><stop stop-color="#F7DB93"/><stop offset=".5" stop-color="#FBE6AA"/><stop offset="1" stop-color="#F7DB93"/></linearGradient><linearGradient id="b" x1="12.86" y1="9.04" x2="5.14" y2="9.04" gradientUnits="userSpaceOnUse"><stop stop-color="#F7DB93"/><stop offset=".5" stop-color="#FBE6AA"/><stop offset="1" stop-color="#F7DB93"/></linearGradient></defs></svg>