<!-- by TradingView --><svg width="18" height="18" xmlns="http://www.w3.org/2000/svg"><path fill="#006D58" d="M0 0h18v18H0z"/><path d="M7.932 4.008a5.49 5.49 0 00-2.97 1.08c-.092.071-.298.255-.458.408-.431.414-.711.788-.973 1.297a4.605 4.605 0 00-.489 1.517c-.065.428-.053 1.176.023 1.57a4.985 4.985 0 002.233 3.275 5.3 5.3 0 002.02.782c.366.068 1.163.084 1.582.033a5.377 5.377 0 002.205-.786c.331-.21.523-.361.813-.636.218-.206.31-.274.31-.274L11.984 14h1.529L14 8.513H9v1.505h2.385a2.866 2.866 0 01-.424.84 3.075 3.075 0 01-.519.554 3.488 3.488 0 01-1.653.762 4.202 4.202 0 01-1.12.002 3.603 3.603 0 01-1.405-.562 4.172 4.172 0 01-.804-.782 3.47 3.47 0 01-.532-1.198c-.033-.146-.042-.28-.04-.66 0-.462.003-.482.077-.741.176-.625.458-1.09.933-1.53A3.34 3.34 0 018.221 5.8c.399 0 .683.045 1.056.162.512.162.934.408 1.318.775.255.246.438.483.607.788l.12.22.135-.266c.072-.146.287-.574.48-.952l.344-.684-.088-.102a6.963 6.963 0 00-.678-.63c-.987-.768-2.307-1.175-3.583-1.104z" fill="#fff"/></svg>