<!-- by TradingView --><svg width="18" height="18" viewBox="0 0 18 18" fill="none" xmlns="http://www.w3.org/2000/svg">
<rect width="18" height="18" fill="#008000"/>
<path d="M9.58792 4.54022L9.69217 4.17066C9.70622 4.1209 9.73824 4.09602 9.78821 4.09602H9.93228C9.98147 4.09602 10 4.1213 10 4.17186V6.19424C10 6.24801 9.97991 6.2765 9.92759 6.27971H9.68712C9.63636 6.28292 9.60434 6.25924 9.59107 6.20868C9.33807 5.20151 8.76373 4.66501 7.86497 4.57032C6.9666 4.47642 6.06035 4.9146 5.74176 5.79097C5.16901 7.36674 5.26036 10.3822 7.59589 10.298C8.4193 10.2691 8.99791 9.84415 9.04593 8.96899C9.07717 8.47369 8.80856 8.17154 8.2401 8.14585C8.19168 8.14345 8.15303 8.11978 8.14991 8.07002V7.87861C8.146 7.82003 8.17255 7.7931 8.22955 7.7931H10.4936C10.5428 7.7931 10.5674 7.81561 10.5674 7.86537V8.05798C10.5674 8.11335 10.5405 8.14104 10.4866 8.14104C9.57769 8.14345 9.79907 9.23623 9.80961 10.0055C9.81039 10.0512 9.7897 10.0817 9.74753 10.0969C9.61166 10.1475 9.49688 10.162 9.37506 10.2402C8.20925 10.9898 6.99737 11.0973 5.73942 10.5628C4.08792 9.861 3.65337 7.66407 4.26244 6.10395C4.93124 4.39095 6.78857 3.68071 8.47638 4.13334C8.64895 4.17988 8.98745 4.33036 9.49188 4.58476C9.54107 4.60964 9.57309 4.59479 9.58792 4.54022Z" fill="white"/>
<path d="M12.0865 10.6588C13.1125 10.8026 13.8984 11.1675 13.9945 12.2688C14.0987 13.4496 12.6756 13.9804 11.7163 14H8.09358C8.0436 13.9992 8.01588 13.9648 8.01042 13.9157L7.99753 13.7845C7.99128 13.7301 8.01588 13.6997 8.07132 13.6936C8.60542 13.6349 8.99638 13.5428 8.99989 12.987V11.065C8.99989 11.0259 9.00901 10.9948 9.0418 10.9718C9.41778 10.706 9.66192 10.4781 10.1527 10.4907C11.1342 10.5172 12.1989 10.3745 12.0666 9.16495C12.015 8.69156 11.7753 8.40231 11.3474 8.2972C11.3154 8.28952 11.2994 8.26919 11.2994 8.2362V7.8426C11.2994 7.80884 11.3165 7.79235 11.3509 7.79312C11.9483 7.80079 12.4476 7.94119 12.849 8.21433C13.5576 8.69655 13.6255 9.6276 12.9555 10.1697C12.7041 10.3722 12.4136 10.5226 12.0841 10.6208C12.0271 10.6377 12.0279 10.6503 12.0865 10.6588ZM11.989 11.1824C11.5112 11.0017 10.6211 10.9005 10.0706 10.9833C10.0354 10.9887 10.0007 11.0086 9.99989 11.0432V12.7021C10.0432 13.7966 12.1378 13.7465 12.5536 12.987C12.8816 12.3874 12.7316 11.4621 11.989 11.1824Z" fill="white"/>
</svg>
