<!-- by TradingView --><svg width="18" height="18" viewBox="0 0 18 18" xmlns="http://www.w3.org/2000/svg"><path fill="url(#awrcsuxac)" d="M0 0h18v18H0z"/><path fill-rule="evenodd" d="m5.15 5.5.35-.37A.4.4 0 0 1 5.85 5c.74.1 2.12.28 3.1.28.99 0 2.4-.18 3.12-.29a.4.4 0 0 1 .32.1l.47.38c.09.08.14.19.14.3-.02 1.47-.2 4.53-.87 6.56a.37.37 0 0 1-.11.17c-.65.54-2.04 1.49-3.07 1.49-1.05 0-2.37-.97-2.95-1.5a.36.36 0 0 1-.08-.12 15.3 15.3 0 0 1-.88-6.63c0-.1.04-.19.1-.26ZM6 9.75c0-.5.46-.77.77-.77 1.38 0 1.68.46 1.68.92C8.45 10.38 8 11 7.38 11 6.77 11 6 10.38 6 9.76Zm6 0c0-.5-.46-.77-.77-.77-1.38 0-1.68.46-1.68.92 0 .47.46 1.08 1.07 1.08.61 0 1.38-.61 1.38-1.23Z" fill="#FC0"/><defs><linearGradient id="awrcsuxac" x1="3.35" y1="3.12" x2="21.9" y2="24.43" gradientUnits="userSpaceOnUse"><stop stop-color="#1A1E21"/><stop offset="1" stop-color="#06060A"/></linearGradient></defs></svg>