<!-- by TradingView --><svg width="18" height="18" viewBox="0 0 18 18" xmlns="http://www.w3.org/2000/svg"><path fill="#0C3B6A" d="M0 0h18v18H0z"/><path fill-rule="evenodd" d="m9 3-.27.6A2.64 2.64 0 0 1 5.37 5l-.61-.24.23.6c.5 1.32-.1 2.8-1.4 3.37L3 9l.6.27A2.64 2.64 0 0 1 5 12.63l-.24.61.6-.23c1.32-.5 2.8.1 3.37 1.4L9 15l.27-.6a2.64 2.64 0 0 1 3.36-1.4l.61.24-.23-.6c-.5-1.32.1-2.8 1.4-3.37L15 9l-.6-.27A2.64 2.64 0 0 1 13 5.37l.24-.61-.6.23c-1.32.5-2.8-.1-3.37-1.4L9 3Zm0 .44-.1.23a2.82 2.82 0 0 1-3.6 1.49l-.23-.09.09.23a2.82 2.82 0 0 1-1.49 3.6l-.23.1.23.1a2.82 2.82 0 0 1 1.49 3.6l-.09.23.23-.09c1.4-.54 2.99.11 3.6 1.49l.1.23.1-.23a2.82 2.82 0 0 1 3.6-1.49l.23.09-.09-.23a2.82 2.82 0 0 1 1.49-3.6l.23-.1-.23-.1a2.82 2.82 0 0 1-1.49-3.6l.09-.23-.23.09a2.82 2.82 0 0 1-3.6-1.49L9 3.44Zm3.47 5.45 1.27.11-1.27.1a3.47 3.47 0 0 1-3.36 3.37L9 13.74l-.1-1.27a3.47 3.47 0 0 1-3.37-3.36L4.26 9l1.27-.1a3.47 3.47 0 0 1 3.36-3.37L9 4.26l.1 1.27a3.47 3.47 0 0 1 3.37 3.36ZM8.85 6A3 3 0 0 0 6 8.85l2.63-.22L8.85 6Zm.3 0A3 3 0 0 1 12 8.85l-2.63-.22L9.15 6ZM6 9.15A3 3 0 0 0 8.85 12l-.22-2.63L6 9.15ZM9.15 12A3 3 0 0 0 12 9.15l-2.63.22L9.15 12Z" fill="#fff"/></svg>