<!-- by TradingView --><svg xmlns="http://www.w3.org/2000/svg" width="18" height="18"><path fill="#F0F3FA" d="M0 0h18v18H0z"/><path fill="#C4C4C4" d="M4.31 5.32h9.38v6.53H4.31z"/><path d="M4.31 5.86a.5.5 0 00.33-.04c.08-.05.09-.12.1-.17.01-.06.02-.1.1-.06.12.05.13.06.14.05l.03-.02c.03-.01-.11-.19-.2-.3h-.5v.54zm9.38 3.81V8.48h-.12a.56.56 0 01-.24-.06l-.1-.05a.73.73 0 00-.16-.07c-.02 0 .02.05.06.1a1.22 1.22 0 01.08.11c.03.06.07.13.12.13.03 0 .06-.02.07-.03.03-.02.04-.03.06 0 .03.03.11.1.11.08 0 0 0-.02-.02-.03-.02-.03-.05-.07-.02-.09.03-.03.1.01.13.03v.61a1.72 1.72 0 00-.16-.24l-.1-.15-.03-.04-.01.04c0 .04-.02.08-.03.09-.02.01-.07.02-.1-.02a.9.9 0 01-.03-.16c-.04 0-.12-.03-.13 0l-.05.14h-.13a.2.2 0 01-.05.1l-.17.13-.02.01a.17.17 0 00-.06.18l.06.3c0 .05.11.04.16.02l.04-.03c.05-.05.11-.1.22-.06.11.05.18.13.22.18l.04.04c.04.03.15.03.17.03.02 0 .08-.06.1-.1h.09zm0-3.77v-.58h-3.6a.74.74 0 01-.1.2c-.05.07-.27.32-.27.38 0 .05.1.08.15.1l.05.1c.03-.01.1-.04.12-.07.02-.04.07-.12.05-.16a.08.08 0 010-.08l.12-.18c-.02.06-.03.2 0 .23s.1.03.13.03l-.3.32c-.02.01-.06.01-.12-.03a.69.69 0 01-.1-.1c.01.03.04.1 0 .13-.06.03-.12.1-.15.12l-.17-.37c-.05.07-.17.23-.17.33s.1-.01.14-.08c-.02.06-.05.16-.03.18l.13-.03c-.05.03-.15.1-.12.13s.1.12.08.16c-.05 0-.17 0-.18.05a.98.98 0 00-.02.22l.09.05h.08l.17-.25.16-.07c.01.01.03.03 0 .07-.03.04-.04.07-.03.09.02.02.06.07.06 0 0-.09.05-.06.07-.03l.05.11c.02 0 .06 0 .07-.04.01-.05-.06-.16-.09-.2.03.01.1.05.12.09l.03.07.04.1c.04.03.09.03.08 0l-.04-.1.13-.06c-.02.04-.03.13.04.19.05.04.1.04.15.04.04 0 .06.01.07.03.01.05-.1.15-.1.15h-.02c-.05.01-.19.04-.23 0l-.04-.03c0-.01-.01-.02-.04-.02l-.04.02s-.01.02-.03.02c-.03.01-.11-.09-.17-.15l-.04-.04c-.03-.03-.18-.03-.25-.02l-.19.06a2 2 0 00-.33.67c0 .15.22.46.3.5.03.02.06-.01.1-.05.05-.04.1-.09.17-.06.1.05.15.13.16.16v.23c.04.03.13.13.13.2l-.03.15c-.02.09-.05.19-.03.24.04.09.06.25.06.29 0 .03.06.1.08.14 0 .03.02.11.05.13.03.03.27-.13.33-.27.05-.12.1-.13.11-.13l.02-.19.11-.11v-.5c.1-.13.3-.4.28-.47-.02-.04-.04-.03-.08-.01-.02.01-.05.02-.08.01a3.07 3.07 0 01-.29-.61c.1.16.27.48.3.5.02.01.04.02.15-.06.08-.05.2-.19.24-.25.01-.01 0-.05-.1-.1l-.14-.06-.05-.19a.3.3 0 00.1.15l.04.02c.07.04.14.08.22.08.1 0 .17.03.22.12.04.06.04.1.05.14l.01.07v.03c.03.07.07.2.12.23.03.01.04.03.04.06v.01c.02.03.04.06.06.04h.01c.02-.02.03-.03 0-.09l-.02-.02c-.04-.05-.05-.07 0-.17.05-.11.16-.32.28-.3.1 0 .1.13.08.2l.08.05c0 .03.03.11.03.2 0 .07.04.15.06.17l-.08-.02c-.06-.02-.08.01-.07.03 0 .02.13.26.23.34.1.08.18.1.25.12h.02c.07.02 0-.05-.06-.06a.31.31 0 01-.2-.29c0-.14-.04-.19-.05-.2a.72.72 0 01-.03-.19l.03.03c.02.02.05.06.09.06.06 0 .13-.1.12-.14a1.23 1.23 0 00-.12-.19c0-.04.03-.12.08-.1.04 0 .05 0 .06.02h.04a.91.91 0 00.22-.2c.04-.06.03-.21 0-.28 0-.04 0-.05.02-.06l.03-.04c.02-.05.02-.11-.02-.1-.04.02-.08.04-.09.02-.01-.03-.02-.1.05-.11.07-.01.15.1.17.14.01.04.04.07.05.07l.1.19c.02.04.12.03.17.02.06-.13.16-.4.15-.42 0-.04-.08-.05-.15 0l-.2.2a.23.23 0 01-.06-.15c.01-.09.06-.11.11-.14h.01c.05-.02.14-.21.18-.3.02 0 .06.04.06.1 0 .04-.01.07-.04.09a.1.1 0 00-.02.04c-.02.04-.02.07 0 .07h.11v-.04c-.02-.01-.02-.03-.03-.05l.02-.12c.02-.07.04-.17.02-.2-.01-.05-.16-.09-.23-.1-.02-.09 0-.26.2-.26l.28-.02zm-4.03-.58H8.21l-.04.29c.04.05.13.18.22.26.1.08.13-.13.14-.24l.49-.25.64-.06zm-2.04 0h.42l-.16.38-.13.1v.07l.19.2c.04.01.12.06.16.12.04.06.04.15.04.18l.1.13-.2-.07-.1-.1-.02.12-.38.52-.11.19.05.2-.12.31.03.27.15.03.06-.08c.03-.01.12-.02.2 0 .08.02.32.18.43.26l.01.12.13.07c.21.06.3.2.31.25-.03.01-.1.1-.14.32-.04.22-.17.32-.24.34a.5.5 0 01-.1.23c-.06.1-.12.1-.14.1v.1l-.28.57c-.05.08.03.18.07.22l-.04.02c-.06-.02-.19-.08-.21-.12-.03-.06-.07-.39.01-.62.1-.23.1-.57.09-.73a.24.24 0 00-.17-.2l-.03-.19a.29.29 0 00-.1-.13c0-.05 0-.16.05-.23s.05-.2.05-.26l-.11.03a.3.3 0 01-.08-.1 1.11 1.11 0 00-.19-.2v-.18c.07-.02.22-.08.24-.2.02-.15-.01-.16-.21-.17-.12 0-.12.18-.12.32 0 .09 0 .15-.03.14-.07-.03-.26-.25-.44-.45a56.6 56.6 0 00-.06-.07 1.02 1.02 0 01-.24-.37l-.01-.29c-.03-.23-.49-.6-.55-.63-.03-.02-.07.02-.1.05-.01.02-.03.04-.04.03-.02-.01-.03-.06-.03-.08l-.13.2-.24-.28.1-.1c-.04 0-.13-.01-.13-.05-.01-.04.07-.07.1-.08-.08-.04-.1-.14-.1-.21h2.24l.06.24-.12.14-.23.2c.05.05.15.15.2.16l.03.01c.06.02.14.05.17 0a1.3 1.3 0 000-.39h.08c.02 0 .06-.06.04-.18a.36.36 0 01.02-.18z" fill="#F0F3FA"/><path fill-rule="evenodd" d="M14 5H4v8h10V5zm-.31.32H6.8c.34.11.56.35.7.6l.01-.02a.04.04 0 01.06-.01c.02.01.03.04.02.06l-.01.02-.04.02.1.23v-.37H7.6a.05.05 0 01-.02-.06l.01-.02a.04.04 0 01.05-.02v-.43h.19v.06l.06.04v.01a.04.04 0 01-.07.01v2.14h.02l.02.02c.02 0 .03.04.01.06a.04.04 0 01-.04.02v3.71a4.95 4.95 0 003.43-1.52v-.04a.04.04 0 01.05-.02 6.18 6.18 0 001.45-2.5l-.2.01.45-.74.04.87-.12-.08a5.4 5.4 0 01-5.1 4.26v.09h5.85v-6.4zm-9.38 0H5.9c-.3.09-.6.25-.84.48l-.01-.02-.02-.01a.04.04 0 00-.06.01c-.01.02 0 .05.02.07H5c-.32.31-.56.71-.68 1.15V5.32zm0 6.4V8.47c.12.67.38 1.27.73 1.76-.01.02 0 .05.02.06h.03c.62.81 1.52 1.32 2.56 1.34v.09H4.3zm.9-1.62a2.89 2.89 0 002.44 1.3V7.82H6.52v.02l-.01.01a.04.04 0 01-.06.02.05.05 0 01-.02-.05H4.44a4.9 4.9 0 00.77 2.28zm1.05-4.67c-.4.03-.77.2-1.07.46v.04a.04.04 0 01-.06.01 2.28 2.28 0 00-.7 1.69h1.83v-.96a.05.05 0 010-.08V5.43zm.19 1.21v-1.2c.54.01.83.3 1 .6l-.01.02c-.02.02 0 .05.01.06h.03c.09.2.13.39.14.52H7.2l.01-.02a.05.05 0 00-.01-.06.04.04 0 00-.06.02l-.01.02v.04h-.68zm.61.21h.57c0 .12-.03.33-.15.5l-.01-.01a.04.04 0 00-.06.01c-.02.02-.01.05.01.06a.56.56 0 01-.4.17v-.42h.01l.02.02c.02.01.05 0 .06-.02a.05.05 0 00-.01-.06l-.02-.01a.04.04 0 00-.05 0v-.16l.02-.02V6.9c.02-.01.02-.02.01-.04zm-.13.73V7.1v.48zm0-.62v-.1.1zm-.43.33c.05.15.18.24.34.28v-.28h-.01l-.01.03a.04.04 0 01-.06.01.05.05 0 01-.02-.04H6.5zm.08.26a.48.48 0 01-.13-.18v.26h.27a.59.59 0 01-.07-.04.04.04 0 01-.05.01.05.05 0 01-.02-.05zm.26-.46h-.35a.26.26 0 01.11-.18l.03-.03c0 .02 0 .03.02.04l.02.01c.02.01.04 0 .06-.01a.05.05 0 00-.02-.07h.07l.04.02.02.01v.05h-.02a.04.04 0 00-.06 0v.05h-.02l-.03.08a.2.2 0 00.13 0v.03zm-.4-.14a.37.37 0 01.08-.1h-.07v.1zm1.2.31a.76.76 0 01-.38.37h.39v-.37zM4.36 5.45v-.01l.04-.08c.03.02.03.05.02.07a.04.04 0 01-.06.02zm.1 0a.04.04 0 01.06-.01l.01.01c.02.01.03.04.02.06a.04.04 0 01-.06.02l-.02-.01a.05.05 0 01-.01-.07zm.13.09a.04.04 0 01.05-.02l.02.01c.02.02.03.04.02.07a.04.04 0 01-.06.01L4.6 5.6a.05.05 0 01-.01-.06zm.12.08a.04.04 0 01.06-.02l.02.02c.02 0 .03.04.02.06a.04.04 0 01-.06.01h-.02a.05.05 0 01-.02-.07zm.13.08a.04.04 0 01.06-.01h.02c.02.02.03.05.01.07a.04.04 0 01-.05.02l-.02-.02a.05.05 0 01-.02-.06zm.39.25a.04.04 0 01.06-.02l.02.02c.02 0 .02.04.01.06a.04.04 0 01-.06.01h-.02a.05.05 0 01-.01-.07zm.13.08a.04.04 0 01.06-.01h.02c.02.02.02.05 0 .07a.04.04 0 01-.05.02l-.02-.02a.05.05 0 01-.01-.06zm.13.08a.04.04 0 01.06-.01l.01.01c.02.01.03.04.02.06a.04.04 0 01-.06.02l-.02-.01a.05.05 0 01-.01-.07zm.12.09a.04.04 0 01.06-.02l.02.01c.02.02.03.04.02.07a.04.04 0 01-.06.01l-.02-.01a.05.05 0 01-.02-.06zm.13.08a.04.04 0 01.06-.02l.02.02c.02 0 .03.04.02.06a.04.04 0 01-.06.01h-.02a.05.05 0 01-.02-.07zm.13.08a.04.04 0 01.06-.01h.02c.02.02.03.05.01.07a.04.04 0 01-.06.02l-.01-.02a.05.05 0 01-.02-.06zm.13.08a.04.04 0 01.06-.01l.02.01c.02.01.03.04.01.06a.04.04 0 01-.06.02L6 6.5a.05.05 0 010-.07zm.13.09a.04.04 0 01.06-.02l.02.01c.02.02.02.04.01.07a.04.04 0 01-.06.01l-.02-.01a.05.05 0 01-.01-.06zm1.03.66a.04.04 0 01.06-.02l.02.01c.02.02.02.04.01.07a.04.04 0 01-.06.01l-.02-.01a.05.05 0 01-.01-.06zm.13.08a.04.04 0 01.06-.02l.02.02c.02 0 .02.04.01.06a.04.04 0 01-.06.01H7.3a.05.05 0 01-.01-.07zm.25.16a.04.04 0 01.06-.01l.02.01c.02.01.03.04.02.06a.04.04 0 01-.06.02l-.02-.01a.05.05 0 01-.02-.07zm.4.25a.04.04 0 01.05-.01H8c.02.02.03.05.01.07a.04.04 0 01-.06.02l-.01-.02a.05.05 0 01-.02-.06zm.12.08a.04.04 0 01.06-.01l.02.01c.02.01.02.04.01.06a.04.04 0 01-.06.02l-.02-.01a.05.05 0 01-.01-.07zm.13.09a.04.04 0 01.06-.02l.02.01c.02.02.02.04.01.07a.04.04 0 01-.06.01l-.02-.01a.05.05 0 01-.01-.06zm.13.08a.04.04 0 01.06-.02l.02.02c.02 0 .02.04 0 .06a.04.04 0 01-.05.01h-.02a.05.05 0 01-.01-.07zm.13.08A.04.04 0 018.5 8h.01c.02.02.03.05.02.07a.04.04 0 01-.06.02l-.02-.02a.05.05 0 01-.01-.06zm.12.08a.04.04 0 01.06-.01l.02.01c.02.01.03.04.02.06a.04.04 0 01-.06.02l-.02-.01a.05.05 0 01-.02-.07zm.13.09a.04.04 0 01.06-.02l.02.01c.02.02.03.04.02.07a.04.04 0 01-.06.01l-.02-.01a.05.05 0 01-.02-.06zm.13.08a.04.04 0 01.06-.02l.02.02c.02 0 .03.04.01.06a.04.04 0 01-.06.01h-.01a.05.05 0 01-.02-.07zm.13.08a.04.04 0 01.06-.01h.02c.02.02.03.05.01.07a.04.04 0 01-.06.02l-.02-.02a.05.05 0 010-.06zm.13.08a.04.04 0 01.06-.01l.02.01c.02.01.02.04.01.06a.04.04 0 01-.06.02l-.02-.01a.05.05 0 01-.01-.07zm.13.09a.04.04 0 01.06-.02l.02.01c.02.02.02.04.01.07a.04.04 0 01-.06.01l-.02-.01a.05.05 0 01-.01-.06zm.13.08a.04.04 0 01.06-.02l.01.02c.02 0 .03.04.02.06a.04.04 0 01-.06.01h-.02a.05.05 0 01-.01-.07zm.13.08a.04.04 0 01.05-.01h.02c.02.02.03.05.02.07a.04.04 0 01-.06.02l-.02-.02a.05.05 0 01-.01-.06zm.12.08a.04.04 0 01.06-.01l.02.01c.02.01.03.04.02.06a.04.04 0 01-.06.02l-.02-.01a.05.05 0 01-.02-.07zm.13.09a.04.04 0 01.06-.02l.02.01c.02.02.03.04.01.07a.04.04 0 01-.05.01l-.02-.01a.05.05 0 01-.02-.06zm.13.08a.04.04 0 01.06-.02l.02.02c.02 0 .03.04.01.06a.04.04 0 01-.06.01h-.01a.05.05 0 01-.02-.07zm.13.08a.04.04 0 01.06-.01h.02c.02.02.02.05.01.07a.04.04 0 01-.06.02L10 9.06A.05.05 0 019.98 9zm.13.08a.04.04 0 01.06-.01l.02.01c.02.01.02.04.01.06a.04.04 0 01-.06.02l-.02-.01a.05.05 0 01-.01-.07zm.13.09a.04.04 0 01.06-.02l.02.01c.02.02.02.04.01.07a.04.04 0 01-.06.01l-.02-.01a.05.05 0 01-.01-.06zm.13.08a.04.04 0 01.06-.02l.01.02c.02 0 .03.04.02.06a.04.04 0 01-.06.01h-.02a.05.05 0 01-.01-.07zm.12.08a.04.04 0 01.06-.01h.02c.02.02.03.05.02.07a.04.04 0 01-.06.02l-.02-.02a.05.05 0 01-.02-.06zm.13.08a.04.04 0 01.06-.01l.02.01c.02.01.03.04.02.06a.04.04 0 01-.06.02l-.02-.01a.05.05 0 01-.02-.07zm.13.09a.04.04 0 01.06-.02l.02.01c.02.02.03.04.01.07a.04.04 0 01-.06.01l-.01-.01a.05.05 0 01-.02-.06zm.13.08a.04.04 0 01.06-.02l.02.02c.02 0 .03.04.01.06a.04.04 0 01-.06.01h-.01a.05.05 0 01-.02-.07zm.13.08a.04.04 0 01.06-.01h.02c.02.02.02.05.01.07a.04.04 0 01-.06.02l-.02-.02a.05.05 0 01-.01-.06zm.13.08a.04.04 0 01.06-.01l.02.01c.02.01.02.04.01.06a.04.04 0 01-.06.02l-.02-.01a.05.05 0 01-.01-.07zm.38.25a.04.04 0 01.06-.01h.02c.02.02.03.05.02.07a.04.04 0 01-.06.01h-.02a.05.05 0 01-.02-.07zm.13.08a.04.04 0 01.06-.01l.02.01c.02.01.03.04.02.06a.04.04 0 01-.06.02l-.02-.01a.05.05 0 01-.02-.07zm.13.09a.04.04 0 01.06-.02l.02.01c.02.02.03.04.01.07a.04.04 0 01-.06.01l-.01-.01a.05.05 0 01-.02-.06zm.13.08a.04.04 0 01.06-.02l.02.02c.02 0 .03.04.01.06a.04.04 0 01-.06.01h-.02a.05.05 0 01-.01-.07zm.13.08a.04.04 0 01.06-.01h.02c.02.02.02.05.01.07a.04.04 0 01-.06.01h-.02a.05.05 0 01-.01-.07zm.13.08a.04.04 0 01.06-.01l.02.01c.02.01.02.04.01.06a.04.04 0 01-.06.02l-.02-.01a.05.05 0 01-.01-.07zm.13.09a.04.04 0 01.06-.02l.01.01c.02.02.03.04.02.07a.04.04 0 01-.06.01l-.02-.01a.05.05 0 01-.01-.06zm.13.08a.04.04 0 01.05-.02l.02.02c.02 0 .03.04.02.06a.04.04 0 01-.06.01h-.02a.05.05 0 01-.01-.07zm.12.08a.04.04 0 01.06-.01h.02c.02.02.03.05.02.07a.04.04 0 01-.06.01h-.02a.05.05 0 01-.02-.07zm.13.08a.04.04 0 01.06-.01l.02.01c.02.01.03.04.01.06a.04.04 0 01-.05.02l-.02-.01a.05.05 0 01-.02-.07zm.13.09a.04.04 0 01.06-.02l.02.01c.02.02.03.04.01.07a.04.04 0 01-.06.01l-.01-.01a.05.05 0 01-.02-.06zm.13.08a.04.04 0 01.06-.02l.02.02c.02 0 .02.04.01.06a.04.04 0 01-.06.01h-.02a.05.05 0 01-.01-.07zm.13.08a.04.04 0 01.06-.01h.02c.02.02.02.05.01.07a.04.04 0 01-.06.02l-.02-.02a.05.05 0 01-.01-.06zm.13.08a.04.04 0 01.06-.01l.02.01c.02.01.02.04.01.06a.04.04 0 01-.06.02l-.02-.01a.05.05 0 01-.01-.07zm.13.09a.04.04 0 01.06-.02l.01.01c.02.02.03.04.02.07a.04.04 0 01-.06.01l-.02-.01a.05.05 0 01-.01-.06zm.12.08a.04.04 0 01.06-.02l.02.02c.02 0 .03.04.02.06a.04.04 0 01-.06.01h-.02a.05.05 0 01-.02-.07zm.13.08a.04.04 0 01.06-.01h.01l-.04.08h-.01a.05.05 0 01-.02-.07zm-9.15.17v-.01a.05.05 0 00-.01-.06.04.04 0 00-.06.01v.01l.07.05zm0-.17c-.02.02-.01.05.01.06.02.01.05 0 .06-.02l.01-.02a.05.05 0 00-.01-.06.04.04 0 00-.06.02l-.02.02zm.07-.14c-.01.02 0 .05.02.06.02.02.04.01.06-.01v-.02a.05.05 0 000-.06.04.04 0 00-.07.01v.02zm.08-.13c-.01.02 0 .05.01.06.02.01.05 0 .06-.02l.01-.01a.05.05 0 00-.01-.07.04.04 0 00-.06.02l-.01.02zm.08-.14c-.02.03 0 .05.01.07.02 0 .05 0 .06-.02l.01-.02a.05.05 0 00-.01-.06.04.04 0 00-.06.01l-.01.02zm.07-.13c0 .02 0 .05.02.06.02.01.05 0 .06-.01v-.02a.05.05 0 000-.07.04.04 0 00-.07.02v.02zm.08-.14c-.01.03 0 .05.02.07.02 0 .04 0 .06-.02v-.02a.05.05 0 000-.06.04.04 0 00-.07.02v.01zm.08-.13c-.01.02 0 .05.01.06.02.01.05 0 .06-.01l.01-.02a.05.05 0 00-.01-.06.04.04 0 00-.06.01l-.01.02zm.08-.13c-.02.02-.01.04.01.06.02.01.05 0 .06-.02l.01-.02a.05.05 0 00-.01-.06.04.04 0 00-.06.02l-.01.02zm.23-.4c-.02.01 0 .04.01.05.02.02.05 0 .06-.01l.01-.02a.05.05 0 00-.01-.06.04.04 0 00-.06.01l-.01.02zm.07-.14c0 .02 0 .05.02.06.02.01.05 0 .06-.02v-.02a.05.05 0 000-.06.04.04 0 00-.06.02l-.02.02zm.08-.14c-.01.02 0 .05.02.06.02.02.04.01.06-.01v-.02a.05.05 0 000-.06.04.04 0 00-.07.01v.02zm.08-.13c-.01.02 0 .05.01.06.02.01.05 0 .06-.02l.01-.02a.05.05 0 00-.01-.06.04.04 0 00-.06.02l-.01.02zm.08-.14c-.02.02-.01.05.01.07.02 0 .05 0 .06-.02l.01-.02a.05.05 0 00-.01-.06.04.04 0 00-.06.01l-.01.02zm.07-.13c0 .02 0 .05.02.06.02.01.05 0 .06-.02v-.01a.05.05 0 000-.07.04.04 0 00-.07.02v.02zm.08-.14c-.01.03 0 .05.02.07.02 0 .04 0 .05-.02l.02-.02a.05.05 0 00-.02-.06.04.04 0 00-.06.01l-.01.02zm.08-.13c-.01.02 0 .05.01.06.02.01.05 0 .06-.01l.01-.02a.05.05 0 00-.01-.07.04.04 0 00-.06.02l-.01.02zm.07-.14c0 .03 0 .05.02.07.02.01.05 0 .06-.02l.01-.02a.05.05 0 00-.01-.06.04.04 0 00-.06.02l-.02.01zm.08-.13c-.01.02 0 .05.02.06.02.01.04 0 .06-.01v-.02a.05.05 0 000-.06.04.04 0 00-.07.01v.02zm.08-.13c-.01.02 0 .04.01.06.02.01.05 0 .06-.02l.01-.02a.05.05 0 00-.01-.06.04.04 0 00-.06.02l-.01.02zm.08-.14c-.02.02 0 .05.01.06.02.02.05 0 .06-.01l.01-.02a.05.05 0 00-.01-.06.04.04 0 00-.06.01l-.01.02zm.07-.13c0 .02 0 .05.02.06.02.01.05 0 .06-.02v-.02a.05.05 0 000-.06.04.04 0 00-.07.02v.02zm.08-.14c-.01.02 0 .05.02.06.02.02.04.01.06-.01v-.02a.05.05 0 000-.06.04.04 0 00-.07.01v.02zm.08-.13c-.01.02 0 .05.01.06.02.01.05 0 .06-.02l.01-.02a.05.05 0 00-.01-.06.04.04 0 00-.06.02l-.01.02zm.08-.14c-.02.02-.01.05.01.06.02.02.05.01.06-.01l.01-.02a.05.05 0 00-.01-.06.04.04 0 00-.06.01l-.01.02zm.3-.54c0 .03 0 .05.02.07.02 0 .05 0 .06-.02l.01-.02a.05.05 0 00-.02-.06.04.04 0 00-.05.01l-.02.02zm.54-.94c0 .02 0 .05.02.06.02.02.05.01.06-.01l.01-.02a.05.05 0 00-.01-.06.04.04 0 00-.06.01l-.02.02zm.08-.13c-.01.02 0 .05.02.06.02.01.04 0 .06-.02v-.02a.05.05 0 000-.06.04.04 0 00-.07.02v.02zm.08-.14c-.01.02 0 .05.01.06.02.02.05.01.06-.01l.01-.02a.05.05 0 00-.01-.06.04.04 0 00-.06.01l-.01.02z" fill="#003060"/><path fill="#F0F3FA" d="M5 12h8v.5H5z"/></svg>