<!-- by TradingView --><svg xmlns="http://www.w3.org/2000/svg" width="18" height="18" viewBox="0 0 18 18"><path fill="#F0F3FA" d="M0 0h18v18H0z"/><path d="M9.03 14.84 6.46 13.4v-2.9l2.57-1.45 2.57 1.45v2.9l-2.57 1.45Zm-2.36-1.56 2.36 1.33 2.36-1.33V10.6L9.03 9.28l-2.36 1.33v2.67Z" fill="#7BC24E"/><path d="m9.03 9.34-2.6-1.47V4.94l2.6-1.47 2.6 1.47v2.93l-2.6 1.47ZM6.7 7.72l2.32 1.31 2.33-1.3V5.08L9.03 3.8 6.7 5.08v2.63Z" fill="#00984C"/><path d="M6.56 10.67 4 9.22v-2.9l2.57-1.45 2.57 1.45v2.9l-2.57 1.45ZM4.2 9.1l2.37 1.34L8.92 9.1V6.44L6.56 5.11 4.2 6.44V9.1Z" fill="#7BC24E"/><path d="M11.5 10.67 8.91 9.22v-2.9l2.57-1.45 2.57 1.45v2.9l-2.57 1.45ZM9.12 9.1l2.36 1.34 2.32-1.34V6.44L11.5 5.11 9.13 6.44V9.1Z" fill="#7BC24E"/><path d="m6.57 13.51-2.6-1.47V9.11l2.6-1.47 2.6 1.47v2.93l-2.6 1.47ZM4.19 11.9l2.37 1.31 2.33-1.31V9.26l-2.32-1.3-2.38 1.3v2.63Z" fill="#00984C"/><path d="m11.5 13.5-2.6-1.46V9.1l2.6-1.47 2.54 1.47v2.94L11.5 13.5Zm-2.32-1.62 2.33 1.31 2.3-1.3V9.25l-2.3-1.32-2.33 1.32v2.62Z" fill="#00984C"/><path d="M9.02 4.12c.32 0 .58-.25.58-.56 0-.31-.26-.56-.58-.56a.57.57 0 0 0-.57.56c0 .3.26.56.57.56ZM11.48 8.33c.32 0 .58-.25.58-.56 0-.3-.26-.56-.58-.56a.57.57 0 0 0-.57.56c0 .31.26.56.57.56ZM6.55 8.33c.31 0 .57-.25.57-.56 0-.3-.26-.56-.57-.56a.57.57 0 0 0-.58.56c0 .31.26.56.58.56ZM9.02 12.5c.32 0 .58-.25.58-.56 0-.3-.26-.56-.58-.56a.57.57 0 0 0-.57.56c0 .31.26.56.57.56ZM13.93 12.5c.31 0 .57-.25.57-.56 0-.3-.26-.56-.57-.56a.57.57 0 0 0-.57.56c0 .31.25.56.57.56ZM4.07 12.5c.32 0 .57-.25.57-.56 0-.3-.25-.56-.57-.56a.57.57 0 0 0-.57.56c0 .31.26.56.57.56Z" fill="#3D4643"/><path d="M11.48 13.83c.32 0 .58-.25.58-.56 0-.3-.26-.56-.58-.56a.57.57 0 0 0-.57.56c0 .3.26.56.57.56ZM6.55 13.83c.31 0 .57-.25.57-.56 0-.3-.26-.56-.57-.56a.57.57 0 0 0-.58.56c0 .3.26.56.58.56ZM13.93 9.66c.31 0 .57-.25.57-.56 0-.3-.26-.56-.57-.56a.57.57 0 0 0-.57.56c0 .3.25.56.57.56ZM9.02 9.66c.32 0 .58-.25.58-.56 0-.3-.26-.56-.58-.56a.57.57 0 0 0-.57.56c0 .3.26.56.57.56ZM4.07 9.66c.32 0 .57-.25.57-.56 0-.3-.25-.56-.57-.56a.57.57 0 0 0-.57.56c0 .3.26.56.57.56ZM11.48 5.5c.32 0 .58-.24.58-.55 0-.31-.26-.56-.58-.56a.57.57 0 0 0-.57.56c0 .3.26.56.57.56ZM6.55 5.5c.31 0 .57-.24.57-.55 0-.31-.26-.56-.57-.56a.57.57 0 0 0-.58.56c0 .3.26.56.58.56Z" fill="#00984C"/><path d="M9.02 6.72c.22 0 .39-.17.39-.38 0-.2-.17-.38-.39-.38a.38.38 0 0 0-.38.38c0 .21.17.38.38.38ZM4.07 6.72c.22 0 .39-.17.39-.38 0-.2-.17-.38-.39-.38a.38.38 0 0 0-.38.38c0 .21.17.38.38.38ZM13.93 6.72c.21 0 .38-.17.38-.38 0-.2-.17-.38-.38-.38a.38.38 0 0 0-.39.38c0 .21.17.38.39.38ZM6.55 10.94c.21 0 .38-.16.38-.37s-.17-.38-.38-.38a.38.38 0 0 0-.39.38c0 .2.17.37.39.37ZM11.48 10.94c.22 0 .39-.16.39-.37s-.17-.38-.39-.38a.38.38 0 0 0-.38.38c0 .2.17.37.38.37ZM9.02 15c.22 0 .39-.17.39-.38 0-.2-.17-.37-.39-.37a.38.38 0 0 0-.38.37c0 .21.17.38.38.38Z" fill="#7BC24E"/></svg>