<!-- by TradingView --><svg xmlns="http://www.w3.org/2000/svg" width="18" height="18"><path fill="#F0F3FA" d="M0 0h18v18H0z"/><path d="M10 3.25l-.67.5v1.67l.67-.5V3.25zm-.67.5c-5.5 0-5 4.83-5 4.83a4.71 4.71 0 015-3.16V3.75zm4.13 4.67s.54-1.67-.8-3c-.01-.02-4 2.93-4 2.93L8 7.85v1.73l.67.5v.02l3.97-2.93c.36.08.82 1.25.82 1.25z" fill="#004A92"/><path d="M13.91 8.42A5.1 5.1 0 019 12.75a5.1 5.1 0 01-4.91-4.33 5.7 5.7 0 00-.09 1c0 2.94 2.24 5.33 5 5.33s5-2.39 5-5.33c0-.35-.03-.68-.09-1z" fill="#00A3ED"/></svg>