<!-- by TradingView --><svg width="18" height="18" viewBox="0 0 18 18" xmlns="http://www.w3.org/2000/svg"><path fill="#F0F3FA" d="M0 0h18v18H0z"/><path d="M8.38 9.63a.83.83 0 0 1-1.22 0C6.64 9.08 6 9.47 6 10.27v1.8c0 .49-.52.9-1.01.93-.45 0-.99-.41-.99-.91V5.94c0-.53.4-.94.86-.94.24 0 .44.11.6.28l2.92 3.09c.34.35.34.93 0 1.26Z" fill="#045A71"/><path d="M13 13c-.55 0-1-.4-1-.89V9.9c0-.49.45-.89 1-.89s1 .4 1 .89v2.22c0 .49-.45.89-1 .89ZM8.42 11.23a1 1 0 0 1 0-1.3l4.17-4.65a.76.76 0 0 1 1.16 0 1 1 0 0 1 0 1.3l-4.17 4.65a.76.76 0 0 1-1.16 0Z" fill="#FBAD18"/></svg>