<!-- by TradingView --><svg width="18" height="18" viewBox="0 0 18 18" xmlns="http://www.w3.org/2000/svg"><path fill="#F0F3FA" d="M0 0h18v18H0z"/><path d="M12.55 11.68c-.27-.05-.53-.1-.8-.17-.76-.17-1.5-.4-2.25-.6-.1-.05-.2-.1-.32-.06-.12.1-.2.23-.25.37.07.24.25.25.44.27.1.08.27.08.32.26a.4.4 0 0 1-.13.31c-.97 0-4.75-1.44-5.42-2.02a.9.9 0 0 0 .16.58c.06.11.17.23.33.21.74.59 1.9 1 2.7 1.16.15.05.27.12.3.29l-.04.12c-.5.3-2.21-.95-2.93-.98-.02-.07-.07-.04 0 0 .06.23.13.44.39.52 1.34.87 3.1 1.23 4.62 1.67.31.1.55.01.8-.2-.76-.2-1.5-.4-2.21-.62-.1-.22-.1-.23.06-.4.2-.02.38.09.58.1.63.24 1.28.4 1.93.55.14-.12.27-.23.37-.4-.28-.18-.62-.14-.9-.3-.1-.19-.03-.33.1-.46.12-.02.23 0 .34.02.36.1.73.2 1.1.27.24.05.48.14.75.09.09-.1.19-.2.23-.34-.03-.16-.13-.22-.27-.24Z" fill="url(#a1w4o1c4b)"/><path d="M11.8 9.29c.03.1.08.16.15.18.38.1.75.21 1.15.24.16-.16.27-.3.3-.47-.04-.1-.1-.17-.17-.18-.4-.06-.77-.22-1.17-.22a1.1 1.1 0 0 0-.26.45Z" fill="#E0271E"/><path d="M4.98 9.9c1.12.52 2.28.94 3.46 1.31.2-.07.27-.22.33-.36 0-.16-.1-.21-.2-.25-.4-.13-.82-.33-1.23-.39-.1-.08-.22-.1-.31-.19 0-.23.05-.44.3-.53 1.72.51 3.36 1.13 5.12 1.52.22-.15.24-.17.36-.46-.03-.12-.1-.18-.22-.2l-.57-.14a384 384 0 0 1-1.73-.47c-.15-.05-.31-.1-.34-.3.1-.13.1-.32.27-.41.39 0 .73.22 1.13.27.16-.16.34-.3.28-.6-.78-.34-1.92-.74-2.78-.86l-.2-.11c-.04-.22 0-.4.2-.54.14-.02.28.1.47.06.04-.16.2-.28.16-.5-1.57-.66-2.64-.77-3.61-1.63l-.43.37v.14c.04.1.13.12.2.16.72.43 1.55.94 2.39 1.03.16.33.1.5-.23.65a.67.67 0 0 0-.33-.13c-.84-.47-1.74-.58-2.5-1.25-.24.29-.3.41-.3.62.05.07.12.13.2.17 1.27.84 2.73 1.3 4.62 1.92-.01.37-.1.51-.38.57-1.42-.43-2.35-.9-3.5-1.35a5.71 5.71 0 0 1-1.26-.67.1.1 0 0 0-.07.02l-.16.59c.5.48 1.63 1.04 2.36 1.17.15.34.03.59-.32.64-.63-.26-1.1-.47-1.54-.71-.2-.1-.36-.28-.58-.34-.06.13-.02.25-.04.37-.02.2.07.32.24.42.24.15.49.27.74.39Z" fill="url(#b1w4o1c4b)"/><path d="M13.27 10.5c-.16.13-.23.29-.32.48.2.28.5.2.74.3.23-.13.32-.32.31-.58-.23-.16-.49-.17-.73-.2Z" fill="#E0271E"/><path d="M10.07 6.3c.13.07.29.1.35.24.01.12-.06.21-.08.32-.15.12-.3.02-.46.02-.13.12-.18.29-.26.46.15.14.33.19.52.2.23.13.48.18.73.24.61.2 1.22.4 1.88.5.04-.22.01-.4 0-.61l-1.65-.42c-.16-.14-.15-.29-.08-.42.08-.11.17-.1.24-.15.46.16.94.29 1.42.37.05-.23-.06-.38-.12-.56-1.9-.46-3.99-.98-5.62-2.06-.16.12-.38.15-.54.34.8.64 2.43 1.25 3.67 1.54Z" fill="url(#c1w4o1c4b)"/><path d="M6.56 12.98a2.47 2.47 0 0 0-.6-.24 1.1 1.1 0 0 0-.46-.22c-.01-.03-.04-.05-.06 0-.01.04.02.07.06.08.12.16.26.3.46.34.18.13.37.23.6.26 0 .04.03.09.02.14-.03 0-.06-.01-.07.03l.06.01h.01c.08-.17.21-.06.3-.03.16.03.29.14.45.15.51.21 1.05.35 1.58.47a.78.78 0 0 0 .63-.1c-.76-.17-1.47-.41-2.2-.61-.26-.1-.51-.22-.78-.28Z" fill="url(#d1w4o1c4b)"/><path d="M12.39 5.96a1.2 1.2 0 0 0-.36-.51c-1.36-.2-2.63-.9-3.79-1.4-.18.02-.4.05-.6.18.83.86 3.78 1.56 4.75 1.73Z" fill="url(#e1w4o1c4b)"/><path d="M9.3 4.24c.68.43 1.7.69 2.47.8-.19-.2-.33-.36-.52-.38a3.86 3.86 0 0 1-1.5-.49c-.01-.07.1-.05.1-.12-.21.02-.76-.12-.88 0 .08.12.2.17.33.2Z" fill="url(#f1w4o1c4b)"/><path d="M7.02 13.58c-.04-.05-.08-.09-.13-.02.03.04.07.04.1.04.22.34 1.07.33 1.38.38-.29-.2-1-.34-1.35-.4Z" fill="url(#g1w4o1c4b)"/><defs><linearGradient id="a1w4o1c4b" x1="3.7" y1="10.41" x2="10.21" y2="12.35" gradientUnits="userSpaceOnUse"><stop stop-color="#FFD673"/><stop offset="1" stop-color="#E0271E"/></linearGradient><linearGradient id="b1w4o1c4b" x1="4.6" y1="7.39" x2="11.11" y2="9.33" gradientUnits="userSpaceOnUse"><stop stop-color="#FFD673"/><stop offset="1" stop-color="#E0271E"/></linearGradient><linearGradient id="c1w4o1c4b" x1="5.3" y1="5.03" x2="11.82" y2="6.97" gradientUnits="userSpaceOnUse"><stop stop-color="#FFD673"/><stop offset="1" stop-color="#E0271E"/></linearGradient><linearGradient id="d1w4o1c4b" x1="3.2" y1="12.08" x2="9.71" y2="14.02" gradientUnits="userSpaceOnUse"><stop stop-color="#FFD673"/><stop offset="1" stop-color="#E0271E"/></linearGradient><linearGradient id="e1w4o1c4b" x1="5.72" y1="3.65" x2="12.23" y2="5.59" gradientUnits="userSpaceOnUse"><stop stop-color="#FFD673"/><stop offset="1" stop-color="#E0271E"/></linearGradient><linearGradient id="f1w4o1c4b" x1="5.88" y1="3.08" x2="12.39" y2="5.02" gradientUnits="userSpaceOnUse"><stop stop-color="#FFD673"/><stop offset="1" stop-color="#E0271E"/></linearGradient><linearGradient id="g1w4o1c4b" x1="3.1" y1="12.42" x2="9.61" y2="14.36" gradientUnits="userSpaceOnUse"><stop stop-color="#FFD673"/><stop offset="1" stop-color="#E0271E"/></linearGradient></defs></svg>