<!-- by TradingView --><svg width="18" height="18" viewBox="0 0 18 18" xmlns="http://www.w3.org/2000/svg"><path fill="#F0F3FA" d="M0 0h18v18H0z"/><path d="M8.17 4v.74c-1.1.42-2 1.25-2 2.8 0 1.23.9 2.1 1.33 2.37V7.77h.67V11c-.9-.21-2.71-1.2-2.71-3.46 0-2.27 1.8-3.3 2.7-3.54Zm.73 2.22c0-1.12.53-1.95.8-2.22h.9a4 4 0 0 0-.9 2.1c0 .52.24 1.2.48 1.83.2.58.41 1.13.41 1.51 0 .65-.34 1.3-.52 1.56h-.93c.23-.22.7-.85.7-1.56 0-.4-.2-.8-.4-1.24a4.65 4.65 0 0 1-.54-1.98ZM12.17 4h-.67v7h.67V4Z" fill="#000017"/><path d="M8 4v.74C6.76 5.16 5.75 6 5.75 7.54c0 1.23 1 2.1 1.5 2.37V7.77H8V11c-1.01-.21-3-1.2-3-3.46C5 5.27 6.99 4.24 8 4Zm.78 2.22c0-1.12.52-1.95.79-2.22h.9a4 4 0 0 0-.9 2.1c0 .52.25 1.2.48 1.83.21.58.41 1.13.41 1.51 0 .65-.34 1.3-.51 1.56h-.93c.23-.22.68-.85.68-1.56 0-.4-.18-.8-.38-1.24a4.65 4.65 0 0 1-.54-1.98ZM12 4h-.7v7h.7V4Z" fill="url(#amjwonn2k)"/><path fill-rule="evenodd" d="M8.67 13.68c2.57 0 4.66-.94 4.66-2.1 0-1.16-2.09-2.1-4.66-2.1-2.58 0-4.67.94-4.67 2.1 0 1.16 2.09 2.1 4.67 2.1Zm0-.28c2.35 0 4.25-.81 4.25-1.82 0-1-1.9-1.82-4.25-1.82s-4.26.82-4.26 1.82 1.9 1.82 4.26 1.82Z" fill="url(#bmjwonn2k)"/><path d="M10.03 11.36c-.05.08-.15.31-.15.57 0 .32.72 1.12 3.03 1.12.2 0 .4-.01.57-.03-.39.18-.98.32-1.87.32-3.08 0-3.8-1.18-3.77-1.77-.1.12-.3.42-.3.67 0 .32.84 1.76 4.48 1.76 2.54 0 2.68-.76 2.46-1.28.81-.46.67-1.28-.42-1.62.29.46.33 1.4-1.77 1.4-2.11 0-2.38-.76-2.26-1.14Z" fill="#000017"/><path d="M9.67 11.93c0-.26.1-.49.15-.57-.13.38.14 1.13 2.25 1.13 2.1 0 2.06-.93 1.77-1.4 1.57.5 1.17 1.96-1.14 1.96-2.32 0-3.03-.8-3.03-1.12Z" fill="url(#cmjwonn2k)"/><path d="M7.33 12.24c0-.25.2-.55.3-.67-.03.59.68 1.77 3.76 1.77 2.05 0 2.55-.73 2.54-1.1.24.2 1.52 1.76-2.12 1.76s-4.48-1.44-4.48-1.76Z" fill="url(#dmjwonn2k)"/><defs><linearGradient id="amjwonn2k" x1="8.77" y1="4" x2="8.77" y2="11.42" gradientUnits="userSpaceOnUse"><stop stop-color="#133A88"/><stop offset=".52" stop-color="#CBCCFF"/><stop offset="1" stop-color="#16398E"/></linearGradient><linearGradient id="bmjwonn2k" x1="4.44" y1="11.39" x2="13.19" y2="11.45" gradientUnits="userSpaceOnUse"><stop stop-color="#1D3F93"/><stop offset=".49" stop-color="#6F83C5"/><stop offset="1" stop-color="#1E448D"/></linearGradient><linearGradient id="cmjwonn2k" x1="10.04" y1="12.47" x2="14.73" y2="12.86" gradientUnits="userSpaceOnUse"><stop stop-color="#1C3F92"/><stop offset=".47" stop-color="#8A99D5"/><stop offset="1" stop-color="#1A3F9A"/></linearGradient><linearGradient id="dmjwonn2k" x1="7.63" y1="12.39" x2="14.06" y2="12.98" gradientUnits="userSpaceOnUse"><stop stop-color="#174291"/><stop offset=".6" stop-color="#8693D2"/><stop offset="1" stop-color="#224895"/></linearGradient></defs></svg>