<!-- by TradingView --><svg width="18" height="18" viewBox="0 0 18 18" xmlns="http://www.w3.org/2000/svg"><path fill="#F0F3FA" d="M0 0h18v18H0z"/><path d="m13.64 7 .84 3.15h.04L15.36 7H16l-1.14 4h-.72L13 7h.64ZM12.67 7v4H12V7h.67ZM8 11V7h1.47c.74 0 1.39.43 1.39 1.28 0 .85-.66 1.26-1.4 1.26H8.41v-.6h.96c.4 0 .76-.18.76-.66 0-.48-.36-.67-.77-.67h-.61V11H8Zm2.03-1.81L11 11h-.8l-.95-1.81h.78ZM7.27 8.12c-.05-.39-.42-.52-.74-.52-.3 0-.7.12-.7.5 0 .26.21.4.42.47l.23.07.37.09c.15.03.3.08.43.14.4.17.72.5.72.98C8 10.69 7.19 11 6.52 11 5.8 11 5.03 10.67 5 9.8h.7c.03.44.45.6.81.6.32 0 .74-.13.74-.54 0-.2-.08-.35-.3-.43-.1-.05-.22-.09-.36-.13l-.44-.1c-.5-.14-1.05-.43-1.05-1.05 0-.8.8-1.15 1.44-1.15.63 0 1.4.34 1.4 1.12h-.67ZM4.35 8.3c-.12-.43-.43-.67-.8-.67-.63 0-.88.68-.88 1.37 0 .7.25 1.37.9 1.37.37 0 .84-.28.84-.8l.14.03h-.88V9H5v.38C5 10.36 4.36 11 3.57 11 2.6 11 2 10.12 2 9c0-1.08.62-2 1.55-2 .66 0 1.31.47 1.42 1.3h-.62Z"/></svg>