<!-- by TradingView --><svg width="18" height="18" viewBox="0 0 18 18" xmlns="http://www.w3.org/2000/svg"><path fill="#F0F3FA" d="M0 0h18v18H0z"/><path d="M7 7.63c0 1.5.76 3.54 1.14 4.37-.2-.68-.58-2.51-.58-4.37C7.56 5.3 8.64 3.65 9 3c-1 .93-2 2.74-2 4.63Z" fill="#002E6E"/><path d="M8 7.8C8 6 9.39 4.51 10 4a4.85 4.85 0 0 0-1.3 3.01c0 1.75 1.01 2.92 1.01 5.22A5.41 5.41 0 0 1 8 16c.25-.57.86-2.05.86-3.43 0-1.72-.86-2.55-.86-4.78Z" fill="#00B8DE"/><path d="M10.74 7.62c0-.33-.46-.55-.76-.62.62 0 2.02.12 2.02.62 0 1.06-5.15 2.42-8 2.38 4.8-.37 6.74-1.97 6.74-2.38Z" fill="#002E6E"/><path d="M11.74 8.62c0-.33-.46-.55-.76-.62.62 0 2.02.12 2.02.62 0 1.06-5.15 2.42-8 2.38 4.8-.37 6.74-1.97 6.74-2.38Z" fill="#002E6E"/></svg>