<!-- by TradingView --><svg xmlns="http://www.w3.org/2000/svg" width="18" height="18"><path fill="#F0F3FA" d="M0 0h18v18H0z"/><path d="M13.43 9A4.43 4.43 0 119 4.57v.53A3.9 3.9 0 1012.9 9v-.27h.53V9z" fill="#1CA7DD"/><path d="M14 9a5 5 0 11-3.4-4.74h-.02l-.21.53a4.42 4.42 0 103.05 3.91H14V9z" fill="#1580C0"/><path d="M13.56 11.05a5.02 5.02 0 01-1.8 2.12l-.32-.47c.7-.46 1.25-1.1 1.6-1.87l.52.22z" fill="#FEC940"/><path d="M12.9 9a3.9 3.9 0 11-1.85-3.3l-.36.58A3.22 3.22 0 1012.2 9c0-.11-.02-.17-.03-.28h.7l.01.27z" fill="#1C2845"/><path d="M5.8 12.09a4.42 4.42 0 013.18-7.52c1.22 0 2.32.49 3.12 1.28l-.52.54-.68-.54.09-.13a3.72 3.72 0 00-2-.62 3.83 3.83 0 00-3.8 3.92 3.7 3.7 0 001.04 2.65l-.43.42z" fill="#FEC942"/><path d="M12.9 9A3.9 3.9 0 019 12.9v-.67A3.22 3.22 0 0012.2 9c0-.11.02-.16 0-.27h.7V9zM9 5.1c.75 0 1.46.22 2.05.6l-.36.58a3.22 3.22 0 00-4.84 2.05l-.67-.16A3.9 3.9 0 018.99 5.1z" fill="#E52045"/><path fill-rule="evenodd" d="M9 12.24a3.24 3.24 0 100-6.47 3.24 3.24 0 000 6.47zm0-.4A2.85 2.85 0 0011.86 9 2.85 2.85 0 009 6.16 2.85 2.85 0 006.14 9 2.85 2.85 0 009 11.85z" fill="#1C2845"/><path d="M5.76 9.01a3.24 3.24 0 004.94 2.76l-.22-.33A2.86 2.86 0 016.51 7.6l-.32-.21A3.21 3.21 0 005.76 9z" fill="#1CA6DF"/><path d="M9.03 11.87A2.88 2.88 0 0011.92 9c0-.1-.03-.22-.04-.32h-.72a2.16 2.16 0 01-2.14 2.48H9v.7h.03zm-.07-5.73a2.88 2.88 0 00-2.84 2.84l.74.03c0-1.17.93-2.13 2.1-2.16v-.71zM7.09 9.97c.24.49.65.87 1.16 1.06l-.24.65a2.91 2.91 0 01-1.58-1.42l.66-.29z" fill="#1874AD"/><path d="M10.57 9.38c.07-.23.03-.56 0-.69l3.4.01c.04.1.03.5.01.68h-3.41z" fill="#1580C0"/></svg>