<!-- by TradingView --><svg width="18" height="18" viewBox="0 0 18 18" xmlns="http://www.w3.org/2000/svg"><path fill="#F0F3FA" d="M0 0h18v18H0z"/><path d="M7.36 4.67C8.2 4.67 8.8 4.2 9 4c.2.2.8.67 1.64.67.83 0 1.7-.47 2.04-.67.44.32 1.32 1.48 1.32 3.6 0 4.8-3.33 6.93-5 7.4-1.67-.47-5-2.6-5-7.4 0-2.12.88-3.28 1.32-3.6.33.2 1.2.67 2.04.67Z" fill="#308E09"/><path d="M8.5 6A3.5 3.5 0 1 0 12 9.5h-2A1.5 1.5 0 1 1 8.5 8V6Z" fill="#F7FCFF"/><path d="M9 9a4 4 0 0 1 4-4v2a2 2 0 0 0-2 2.02H9V9Z" fill="#FF1F10"/></svg>