<!-- by TradingView --><svg xmlns="http://www.w3.org/2000/svg" width="18" height="18" viewBox="0 0 18 18"><path fill="#F0F3FA" d="M0 0h18v18H0z"/><path fill-rule="evenodd" d="M14 4H4v9.35L9 15l5-1.65V4zm-.33.3H4.33v8.84l4.68 1.55 4.66-1.55V4.3zM13 6H5v6.58c1.29-.39 2.8-1.53 2.9-5.58h2.22c0 1.6.25 4.75 2.88 5.58V6zm-5.25 7.7l-2.4-.78c1.73-.7 2.38-2.8 2.48-3.86l-.08 4.64zm1.24.4l-.67-.21.6-.7h.17l.6.7-.7.22zm3.67-1.18l-2.39.77-.08-4.63c.24 2.34 1.53 3.45 2.47 3.86zm-.58-4.93l-.28 3.82c.35.3.91.54 1.15.62L12.63 8h-.23l-.06-1.27-.07 1.27h-.19zm.53.18h-.5l.2 3.86h.11l.2-3.86zm-7.03 1.6l-.27 2.55a3 3 0 0 0 1.09-.7L6.2 9.75V8.13l-.15-.09-.17-1.3-.15 1.3-.16.09v1.63zM8.43 7.7h1.15v.15l-.5.59h-.16l-.5-.6v-.14zm-.1.29H8.2v1.36h.08l.52-.62v-.18L8.33 8zm-.14 2.11h.12l.5.57v.18l-.55.62H8.2V10.1zm.09 2.16h-.12v1.37h.08L8.8 13v-.18l-.52-.56zM9.79 8h-.11l-.48.56v.18l.52.62h.07V8zm-.08 2.11h.12v1.37h-.07l-.55-.62v-.18l.5-.57zm.14 2.16h-.12l-.52.56v.18l.56.63h.08v-1.37zM9.1 8.9H8.9l-.58.7v.24l.58.68h.16l.6-.68v-.21l-.58-.73zm-.18 2.14h.18l.58.73v.2l-.6.69h-.16l-.58-.68v-.23l.58-.7z" fill="#015229"/><path d="M5.95 9.17H5.8l-.3 2.78c.43-.15.63-.39.68-.48l-.23-2.3z" fill="#0A6D3B"/><path opacity=".7" fill="#015229" d="M5 4.71h8v1H5z"/></svg>