<!-- by TradingView --><svg xmlns="http://www.w3.org/2000/svg" width="18" height="18" viewBox="0 0 18 18"><path fill="#00A7D4" d="M0 0h18v18H0z"/><path d="M10.88 12.18c-.67-.39-1.89-1.36-.49-3.82.64-1.12 1.87-3.43-1.24-4.36 4.02.4 2.21 4.16 1.92 4.77l-.03.06c-.16.35-.52 1.23.3 1.7.83.49 1.38.12 1.71-.45.26-.46.17-1.42.1-1.84.48.57 1.22 1.9.63 2.93-.73 1.27-2.23 1.4-2.9 1.01zm-3.35-3.8c2.82-.01 3.05-1.55 3.05-2.33s-.86-2.02-2.33-2.02c-1.17 0-1.95 1.31-2.2 2.02.33-.28 1.1-.84 1.63-.84.66 0 1.25.3 1.25 1.26 0 .95-.94 1.07-1.32 1.11h-.07c-.67.06-4.82.37-3.15 4.06-.75-3.17 1.85-3.25 3.14-3.26zm-3.12.35a3.16 3.16 0 0 1 2.24-1.51c.91-.17 1.51-.29 1.5-.97-.02-.62-1.65-.67-2.51.31A6.08 6.08 0 0 0 4.4 8.73zm7.24-3.26a3.18 3.18 0 0 1 .18 2.7c-.3.89-.5 1.46.1 1.79.53.3 1.39-1.1.97-2.34a6.08 6.08 0 0 0-1.25-2.15zm-6.19 3.9c.68-.37 2.14-.9 3.5 1.52.62 1.1 1.93 3.28 4.34 1.16-2.43 3.15-4.68-.25-5.05-.8l-.03-.06c-.21-.3-.77-1.06-1.6-.6-.84.44-.82 1.09-.5 1.65.24.45 1.1.86 1.5 1-.73.12-2.26.07-2.81-.94-.7-1.25-.03-2.57.65-2.93zm5.3 4.03c-.42 0-1.55-.22-2.14-.91-.1-.1-.18-.21-.26-.31-.59-.7-.97-1.16-1.56-.82-.53.3.2 1.72 1.47 2 1.12.24 2.09.12 2.48.04z" fill="#fff"/></svg>