<!-- by TradingView --><svg xmlns="http://www.w3.org/2000/svg" width="18" height="18" viewBox="0 0 18 18"><path fill="#F0F3FA" d="M0 0h18v18H0z"/><path d="M15 8.99V9c0 1.1-.86 2-2 2-1.15 0-2-.88-2-1.99V9c0-1.1.86-2 2-2 1.15 0 2 .88 2 1.99ZM14 9c0-.56-.44-1-1-1-.57 0-1 .43-1 .99V9a1 1 0 0 0 1 1c.57 0 1-.43 1-.99V9Z" fill="#FF3A00"/><path d="M9.68 8.95 11.1 11H9.78l-.8-1.21L8.2 11H6.9l1.42-2.03L6.96 7h1.32L9 8.13 9.75 7h1.3L9.67 8.95ZM5.06 7A2 2 0 0 0 3 9v.01C3 10.18 3.89 11 5.08 11c.7 0 1.26-.26 1.67-.6V8.71H5.37l-.54.75h.91v.52c-.15.1-.35.16-.61.16C4.52 10.14 4 9.63 4 9c0-.59.51-1.14 1.07-1.14.26 0 .48.06.67.18l.56-.72A2.3 2.3 0 0 0 5.06 7Z" fill="#FF3A00"/></svg>