<!-- by TradingView --><svg width="18" height="18" viewBox="0 0 18 18" xmlns="http://www.w3.org/2000/svg"><path fill="#F0F3FA" d="M0 0h18v18H0z"/><path fill-rule="evenodd" d="M8.66 7.48c-.11-.3.1-1.38 1.81-3.4h.25c.05-.17.22-.51.49-.58.04.7-.08 2.39-.9 3.55.11-.46.26-1.43.24-2-.33.14-1.12.75-1.9 2.43Zm1.69 1.19c.23-.21 1.32-.42 3.84.41l.1.24c.17-.02.54.01.71.24-.64.3-2.25.81-3.64.48a8.82 8.82 0 0 0 1.89-.55c-.26-.25-1.05-.73-2.9-.82Zm.55 5.41c-.11-2.65-.7-3.6-.97-3.73.56 1.75.38 2.68.23 3.01-.4-.4-.93-1.17-1.16-1.59A6.18 6.18 0 0 0 10.74 15c.15-.23.04-.6-.03-.75l.19-.17Zm-2.88-3.76c-.06.3-.8 1.13-3.32 1.97l-.22-.13c-.12.11-.44.32-.7.24.32-.62 1.3-2 2.6-2.57a8.7 8.7 0 0 0-1.22 1.54c.36.04 1.33-.02 2.86-1.05Zm-4.06-3.9C5.73 8.42 6.78 8.78 7.1 8.7c-1.56-1-1.96-1.8-2.06-2.15.57.06 1.42.28 1.87.46a6.2 6.2 0 0 0-3.4-1.4c.03.29.35.5.5.57l-.04.25Zm5.76 1.94c-.28-.25-.7-.06-.86.06-.15-.15-.52-.39-.8-.06-.3.32-.05.68.11.82-.13.08-.49.47-.12.8.3.27.71.06.86-.06l.02.01c.09.08.46.37.79.06.28-.27.03-.65-.13-.81l.03-.04c.12-.15.42-.5.1-.78Zm-.35.34c-.17-.14-.4-.03-.5.04-.09-.1-.3-.23-.46-.04-.17.19-.03.4.06.47-.07.05-.28.27-.06.47.16.15.4.03.49-.04.06.05.28.22.47.04.16-.16.01-.38-.08-.47l.02-.02c.07-.09.24-.3.06-.45Z" fill="#87A4BB"/></svg>