<!-- by TradingView --><svg width="18" height="18" viewBox="0 0 18 18" xmlns="http://www.w3.org/2000/svg"><path fill="#F0F3FA" d="M0 0h18v18H0z"/><path d="M14.88 7.6c-.41 2.15-1.72 3-3.14 3-2.6 0-4.08-1.1-6.1-1.1-1.59 0-2.27 1.35-2.26 1.92 0 .07.01.13.04.17A6.12 6.12 0 0 0 9.02 15c1.86 0 3.54-.77 4.69-2.1-.85.62-2.72 1.1-4.3 1.1-.93 0-1.41-.16-1.41-.55 0-.97 1.19-.45 1.93-.45C12.25 13 15 11.68 15 9.34c0-.32-.04-1.36-.12-1.74Z" fill="url(#a5vywdjdz)"/><path d="M3.16 10.4c0-1.7 1.16-2.98 2.75-2.98 1.78 0 3.78 1.08 6.02 1.08 1.8 0 2.7-1.12 2.7-1.71a.47.47 0 0 0-.04-.2A6 6 0 0 0 9.04 3c-1.87 0-3.56.81-4.72 2.21A7.58 7.58 0 0 1 8.45 4c1.2 0 1.55.22 1.55.64 0 .8-1.16.36-2.69.36C5.7 5 3 6.13 3 9c0 .3.07 1.12.16 1.4Z" fill="url(#b5vywdjdz)"/><defs><linearGradient id="a5vywdjdz" x1="9.09" y1="14.97" x2="9.36" y2="3.82" gradientUnits="userSpaceOnUse"><stop offset=".18" stop-color="#004976"/><stop offset=".2" stop-color="#014C75"/><stop offset=".29" stop-color="#045774"/><stop offset=".4" stop-color="#055A73"/><stop offset=".46" stop-color="#146876"/><stop offset=".71" stop-color="#47967F"/></linearGradient><linearGradient id="b5vywdjdz" x1="8.63" y1="14.75" x2="8.92" y2="3.03" gradientUnits="userSpaceOnUse"><stop offset=".4" stop-color="#055A73"/><stop offset=".56" stop-color="#146876"/><stop offset=".84" stop-color="#47967F"/><stop offset=".93" stop-color="#67B385"/><stop offset="1" stop-color="#73C88A"/></linearGradient></defs></svg>