<!-- by TradingView --><svg width="18" height="18" viewBox="0 0 18 18" xmlns="http://www.w3.org/2000/svg"><path fill="#F0F3FA" d="M0 0h18v18H0z"/><path d="M4.4 8.8v.54H2.5V8.8h1.9ZM2.7 7v4H2V7h.7ZM5 7v4h-.7V7H5ZM7.34 7.57 6.18 11h-.7l1.46-4h.44l-.04.57ZM8.3 11 7.14 7.57 7.1 7h.45L9 11h-.7Zm-.03-1.56.01.56h-2.1v-.56h2.09ZM11.34 7.57 10.18 11h-.7l1.46-4h.44l-.04.57ZM12.3 11l-1.16-3.43L11.1 7h.45L13 11h-.7Zm-.02-1.56V10h-2.1v-.56h2.1ZM15.33 9.68H16c-.07.85-.73 1.32-1.51 1.32-1 0-1.49-.88-1.49-1.86v-.32c0-.99.5-1.82 1.51-1.82.8 0 1.4.5 1.49 1.34h-.66c-.06-.5-.34-.8-.83-.8-.7 0-.81.64-.81 1.26v.36c0 .6.1 1.3.79 1.3.5 0 .79-.27.84-.78Z"/></svg>