<!-- by TradingView --><svg width="18" height="18" xmlns="http://www.w3.org/2000/svg"><path fill="url(#paint0_radial)" d="M0 0h18v18H0z"/><path fill-rule="evenodd" d="M7.398 8.677s-1.947.682-2.852 1.299c-.346.22-1.122 1.221.184 1.221.37-.029.738-.107 1.095-.233l1.759-.59.293 2.467s.055.41.087.546c0 0 .067.702.512.604.316-.012.63-.079.932-.2a.556.556 0 01.024-.012c.08-.042.222-.116.146-.426a414.73 414.73 0 00-.445-3.476l1.53-.48.414 3.324s.077.762.55.621l.029-.005c.156-.03.477-.09.678-.23a.463.463 0 01.015-.013c.057-.044.147-.114.014-.426-.044-.176-.51-2.235-.6-3.548l.005-.001c.139-.03 1.766-.389 1.748-.312l-.001.003.001-.003.484-.982c-.126.02-1.186.198-2.317.497-.012-.176-.14-2.358-.04-3.465l.013-.103c.037-.288.11-.853-.418-.74-.107.017-.703.126-1.005.37-.01.009-.022.017-.033.024-.073.05-.14.096-.032.19l.008.014c.052.074.134.19.152.578.013.155.245 3.448.245 3.448l-1.536.5s-.289-2.754-.304-3.918v-.087c0-.274.002-.875-.608-.61-.155.051-.863.283-1.36.768 0 0-.281.209.006.295a.483.483 0 01.167.186c.042.08.067.171.072.267.03.185.379 2.64.379 2.64l.01-.002zM5.36 9.983c-.095.07-.158.26.03.24.25.002 1.157-.225 2.128-.585l-.075-.655s-1.338.419-2.083 1z" fill="#fff"/><defs><radialGradient id="paint0_radial" cx="0" cy="0" r="1" gradientUnits="userSpaceOnUse" gradientTransform="matrix(23.7704 0 0 22.3361 15.92 .139)"><stop offset=".09" stop-color="#00A8AB"/><stop offset=".59" stop-color="#0073BD"/></radialGradient></defs></svg>