<!-- by TradingView --><svg xmlns="http://www.w3.org/2000/svg" width="18" height="18" viewBox="0 0 18 18"><path fill="#F0F3FA" d="M0 0h18v18H0z"/><path d="M13 8.66l-.02.34h-.79c0-.18-.15-.4-.33-.4h-.36a.3.3 0 0 0-.31.3c0 .17.14.3.3.3h.7c.35 0 .65.28.65.62v.1c0 .6-.52 1.08-1.14 1.08h-.86a.63.63 0 0 1-.64-.62V10h.76v.12c0 .17.14.28.32.28h.42c.17 0 .31-.1.31-.28a.42.42 0 0 0-.42-.41H11a.62.62 0 0 1-.62-.75l.03-.12c.11-.5.57-.84 1.09-.84h.86c.37 0 .66.3.64.66z" fill="#2E3192"/><path fill-rule="evenodd" d="M3 11l.62-3H5.4c.46 0 .66.43.6.78a.77.77 0 0 1-.65.63.7.7 0 0 1 .35.86l-.07.2a.8.8 0 0 1-.76.53H3zm1.27-2.4h.6c.19 0 .33.19.28.38a.29.29 0 0 1-.28.22h-.76l.16-.6zm-.22 1.2h.6c.19 0 .33.19.28.38a.29.29 0 0 1-.28.22H3.9l.16-.6z" fill="#2E3192"/><path d="M6.52 8l-.66 3h.8l.48-2.26L7.4 11h.69l1.35-2.26L8.87 11h.85l.6-3H8.99L7.94 9.9 7.8 8H6.52z" fill="#2E3192"/><path d="M14.37 8.7c.11.14.2.3.27.47.21.46.08 1.57-2.19 2.33 1.19-.17 3.55-.9 3.55-2.49 0-.45-.38-.88-1.04-1.26v.05c0 .4-.24.75-.59.9zm-1.3-1a.97.97 0 0 1 .3-.6 19.29 19.29 0 0 0-10.07.14c2.76-.37 7.3-.67 9.77.46z" fill="#00AEEF"/><ellipse cx="14.01" cy="7.83" rx=".83" ry=".82" fill="url(#a0vmsj2wj)"/><defs><linearGradient id="a0vmsj2wj" x1="14.6" y1="7.16" x2="13.7" y2="8.19" gradientUnits="userSpaceOnUse"><stop stop-color="#FDE9DF"/><stop offset="1" stop-color="#ED1C24"/></linearGradient></defs></svg>