<!-- by TradingView --><svg width="18" height="18" viewBox="0 0 18 18" xmlns="http://www.w3.org/2000/svg"><path fill="#F0F3FA" d="M0 0h18v18H0z"/><path d="M2 8h2.12C6.02 6.28 6.97 5.32 9 5.32c2.05 0 3.06.96 4.89 2.68H16c-2.62-2.1-4.38-3-7-3-2.63 0-4.39.9-7 3Z" fill="#54B948"/><path d="M11.89 10.3c.38 0 .64.03.76.1.11.06.18.17.18.34s-.07.3-.2.36c-.12.07-.37.1-.74.1H11v-.9h.89Zm-.08-1.56c.35 0 .57.04.67.1.11.05.17.16.17.3 0 .17-.06.29-.18.34-.11.07-.33.1-.66.1H11v-.84h.81Zm.23 3.26c.45 0 .78-.04 1-.09.22-.04.4-.11.55-.22.13-.1.24-.22.3-.35.07-.14.11-.3.11-.48 0-.3-.09-.53-.27-.69a1.2 1.2 0 0 0-.77-.28c.31-.06.53-.17.67-.3a.74.74 0 0 0 .2-.56 1 1 0 0 0-.16-.55.84.84 0 0 0-.44-.35 1.76 1.76 0 0 0-.44-.1 7.52 7.52 0 0 0-.76-.03H10v4h2.04ZM5 8h1v1.53h2V8h1v4H8v-1.65H6V12H5V8Z"/></svg>