<!-- by TradingView --><svg xmlns="http://www.w3.org/2000/svg" width="18" height="18" viewBox="0 0 18 18"><path d="M18 0H0v18h18V0Z" fill="#F0F3FA"/><path d="M3.36 11.2c-.52-.67 1.32-1.48 2.14-1.6 1.42-.22 2.24-.17 3.68-.09-.76 1.86-4.92 2.89-5.82 1.7Zm10.3-1.67a3.96 3.96 0 0 1-1.3-.12c.03-.2.07-.57.23-1.2C13.1 6.3 13.8 5.36 14 5c-1.13.24-2.08 3.51-2.33 4.32L9.71 9.1c-.01-.28.7-2.16.36-3.7l-.69.26c.3 1.07.36 2.37.02 3.44-1.15.06-4.22-.34-5.88 1.12-1.13 1-.28 1.81 1.12 1.97 1.4.16 3.35-.32 4.4-1.9.17-.26.3-.43.46-.7l2.1.22c-.04.72-.87 3.05-.87 3.19.75-.1 1.23-2.26 1.46-3.06.3-.01 1.4-.02 1.48-.4Z" fill="#35820A"/></svg>