<!-- by TradingView --><svg width="18" height="18" viewBox="0 0 18 18" xmlns="http://www.w3.org/2000/svg"><path fill="#F0F3FA" d="M0 0h18v18H0z"/><path d="M9.49 4.86c-.57.08-1 .18-1.3.29l-.9.35c-.02-.1-.07-.11-.16-.07-.13.07-.16.15-.08.25-.02.05-.06.08-.13.1a.14.14 0 0 0-.08.08L6.76 6a5.82 5.82 0 0 0-1.58 2.44 6.6 6.6 0 0 0-.4 2.6.8.8 0 0 1-.08.3c-.37-1.13 0-2.41.38-3.5.12-.34.32-.7.6-1.06.42-.55.7-.9.84-1.02a4.27 4.27 0 0 1 2.06-1c.34-.07.64-.04.9.1Z" fill="#DAF3DC"/><path d="M7.29 5.5c-.03.13-.1.19-.24.18-.08-.1-.05-.18.08-.25.09-.04.14-.02.16.07Z" fill="#318677"/><path d="M11.28 5.46c0 .09.02.14.07.17a.1.1 0 0 1 .04.03l.02.06-.01.05a3 3 0 0 1-.92.56.23.23 0 0 0-.08.06.26.26 0 0 0-.06.09l-1.7 4.45-.02.03c-.1.14-.25.16-.42.04l-.38-.25a.6.6 0 0 1 .38 0c.03.02.07.02.1 0a.15.15 0 0 0 .07-.08l1.74-4.58.02-.03.02-.01.13-.04a1.6 1.6 0 0 0 1-.55Z" fill="#CAE1DC"/><path fill-rule="evenodd" d="M12.33 6.38a.16.16 0 0 0 .05-.06l.26-.62a.22.22 0 0 0 .01-.08c0-.36-.21-.37-.47-.38-.14 0-.22.03-.27.13l-.09.18c-.15.29-.27.52-.23.77 0 .03.01.05.03.06l.06.03h.57c.03 0 .06-.01.08-.03Zm-.24-.85-.28.51a.03.03 0 0 0 0 .03h.01l.01.01h.35l.01-.03.22-.49a.08.08 0 0 0 0-.07.07.07 0 0 0-.03-.02l-.03-.01h-.15c-.02 0-.05 0-.06.02a.14.14 0 0 0-.05.05Z" fill="#126785"/><path d="M7.42 6c.07-.06.1-.15.06-.22-.04-.06-.13-.07-.2-.02-.08.06-.1.16-.07.22.04.07.13.07.2.02Z" fill="#26787E"/><path d="M7.96 5.97 7.21 7.6a.05.05 0 0 0 0 .04l.01.01H7.57l1.04.02a.1.1 0 0 0 .06-.02.12.12 0 0 0 .04-.06L9.3 6a.14.14 0 0 1 .05-.07.12.12 0 0 1 .07-.02h.71c.05 0 .1.04.14.1l-.12.04-.03.01-.02.03-1.74 4.58a.15.15 0 0 1-.07.08.13.13 0 0 1-.1 0 .6.6 0 0 0-.38 0l-.18-.01h-.01l-.02-.02a.04.04 0 0 1 0-.04l.64-1.62c.16-.4.13-.55-.08-.41L6.86 8.6a.1.1 0 0 0-.04 0 .1.1 0 0 0-.04.03.8.8 0 0 0-.17.27c-.1.37-.2.65-.3.83-.14.28-.2.6-.34.9a.21.21 0 0 1-.08.09.18.18 0 0 1-.1.03l-.45-.02H5.28l-.02-.02a.05.05 0 0 1 0-.04c.28-.58.42-1.2.69-1.77.33-.72.64-1.71 1.08-2.57a.15.15 0 0 1 .05-.05.13.13 0 0 1 .08-.03h.3a.1.1 0 0 0 .07-.03.12.12 0 0 0 .03-.07l.04-.16a.1.1 0 0 1 .03-.05.1.1 0 0 1 .04-.02c.16-.03.26-.01.3.05Z" fill="url(#a)"/><path d="M7.96 5.97c-.02.07-.02.12.01.16.03.04.07.06.13.05.05 0 .09 0 .11.03l.02.04v.03l-.66 1.38H7.22l-.01-.01a.04.04 0 0 1 0-.04l.75-1.64Z" fill="#C5DDEB"/><path d="M10.78 8.62c-.26.35-.45.74-.57 1.18-.07.23-.04.42.08.56.92.11 1.16-1.17 1.4-1.88a.1.1 0 0 1 .03-.04.08.08 0 0 1 .04-.02c.42-.08.55.01.4.28-.08.24-.23.64-.46 1.22-.19.48-.47.82-.85 1.03a.13.13 0 0 1-.06.02l-.92-.02c-.35-.27-.29-.85-.15-1.23a12.6 12.6 0 0 1 .55-1.3.11.11 0 0 1 .06-.01h.4c.02 0 .04 0 .05.02.02 0 .02.03.03.05 0 .03 0 .08-.03.14Z" fill="#318677"/><path d="M12.3 10.88h-.48l-.02-.01-.01-.02a.04.04 0 0 1 0-.04l1.28-2.38.01-.02h.62l.01.03.42 2.39v.03l-.02.01h-.53l-.01-.03-.29-1.64v-.02l-.03-.01h-.02l-.01.02-.9 1.66v.02h-.02Z" fill="#126785"/><path d="M8.17 8.65c.01.07 0 .12-.01.17-.02.04-.07.06-.13.06A11.87 11.87 0 0 1 7 8.85a.08.08 0 0 0-.03.04l-.75 1.97a.31.31 0 0 1-.1.14.26.26 0 0 1-.18.05 1.34 1.34 0 0 0-.41.02l-.02-.01-.01-.02-.01-.02c0-.11-.05-.2-.15-.29l.45.02c.03 0 .07-.01.1-.03a.21.21 0 0 0 .08-.09c.14-.3.2-.62.34-.9.1-.18.2-.46.3-.83a.8.8 0 0 1 .17-.27.1.1 0 0 1 .03-.03.1.1 0 0 1 .05 0l1.31.05ZM10.78 8.62c.05.06.11.1.18.09h.02l.03.02a.07.07 0 0 1 0 .06l-.24.62-.01.02-.47.93c-.12-.14-.15-.33-.08-.56.12-.44.31-.83.57-1.18ZM9.87 10.95l.92.02c.02 0 .04 0 .06-.02.38-.2.66-.55.85-1.03.23-.58.38-.98.46-1.22.03.07.07.07.14 0a.08.08 0 0 1 .05-.03l.04.01c.02 0 .03.02.04.04a.1.1 0 0 1 0 .05l-.04.26c0 .02 0 .05-.02.07l-.3.78c-.2.57-.46.9-.87 1.25a.2.2 0 0 1-.11.05c-.42.04-.69.04-.81.03-.12-.02-.26-.11-.4-.26Z" fill="#CAE1DC"/><path d="M5.89 14.47c1.16.26 2.3.28 3.4.07.5-.11.98-.23 1.46-.36.3-.08.77-.3 1.4-.68a5.43 5.43 0 0 0 2.69-4.3c.12.07.17.2.16.38l-.07.6c-.1.9-.6 1.78-1.14 2.4a6.48 6.48 0 0 1-1.96 1.53c-.32.16-.68.23-.97.37-.12.07-.25.03-.39.13a.21.21 0 0 1-.07.04c-.15.04-.39.12-.55.15l-1.25.15c-.61.07-1.17.07-1.67 0a2.1 2.1 0 0 1-1.04-.48Z" fill="#C5DDEB"/><path d="M11.28 5.46c-.25.3-.58.48-1 .55a.27.27 0 0 0-.14-.1c.07-.32.01-.58-.17-.77-.13-.14-.29-.23-.48-.28a1.32 1.32 0 0 0-.9-.1c-.86.18-1.55.51-2.07 1-.14.13-.42.47-.84 1.02-.28.36-.48.72-.6 1.06-.38 1.09-.75 2.37-.38 3.5l.04.14c.17.44.38.76.64.95.82.6 1.77.82 2.84.67a7.1 7.1 0 0 0 1.18-.3l1.41-.74a.57.57 0 0 0 .16-.12l.81-.89a.07.07 0 0 1 .06-.02h.5l.04-.01.03-.04.71-1.31.02-.02h.02l.01.01.01.02.17 1.22c0 .04.02.07.05.1.02.02.06.04.1.04h.66l.05-.01.05-.04a.15.15 0 0 0 .03-.07v-.04l-.03-.52a24.22 24.22 0 0 0-.3-1.19c0-.03 0-.05.02-.08a.19.19 0 0 1 .05-.06.17.17 0 0 1 .07-.03c.5 0 .73 0 .74.2a5.62 5.62 0 0 1-.66 2.2c-.5.9-1.17 1.6-2.03 2.1-.63.37-1.1.6-1.4.68-.48.13-.97.25-1.46.36a8.42 8.42 0 0 1-3.4-.07c-.33-.11-.6-.23-.83-.35a3.75 3.75 0 0 1-1.96-2.77 6.79 6.79 0 0 1 .49-3.89 7.3 7.3 0 0 1 4.58-4.33c.16-.05.4-.1.7-.12.81-.08 1.87.44 2.39 1.12.33.43.3.87.02 1.33Z" fill="url(#b)"/><defs><linearGradient id="a" x1="7.25" y1="8.01" x2="8.49" y2="10.66" gradientUnits="userSpaceOnUse"><stop stop-color="#366883"/><stop offset="1" stop-color="#409B6B"/></linearGradient><linearGradient id="b" x1="3.73" y1="6.6" x2="14.42" y2="10.74" gradientUnits="userSpaceOnUse"><stop stop-color="#52AF40"/><stop offset="1" stop-color="#186289"/></linearGradient></defs></svg>