<!-- by TradingView --><svg width="18" height="18" viewBox="0 0 18 18" xmlns="http://www.w3.org/2000/svg"><path fill="#F0F3FA" d="M0 0h18v18H0z"/><path d="M5.92 8.7c0-1.4 3.6-2.55 8.07-2.58V6c-.02 0 .03 0 0 0C7.96 6 3 7.34 3 9s4.96 3 11 3c-.03 0 .02 0 0 0v-.76C9.5 11.2 5.91 10.1 5.91 8.7Z" fill="#62A24C"/><path d="M7.54 8.7s-.37-.58.5-1.1c0 0-1.12.5-.92 1.12 0 0 .19 1.71 6.87 1.93v-.53c-.47-.01-5.32-.11-6.45-1.42Z" fill="#2360A5"/><path d="M12.09 9.38s.1.15 1.9.1v-.11c-.4.02-1.24.05-1.9.01Z" fill="#62A24C"/><path d="M12.26 6.65c.55-.04 1.27-.04 1.73-.04v-.1c-1.59 0-1.73.14-1.73.14Zm-1.32 1.71c-.02-.54 2.28-.6 3.05-.6v-.08c-2.6 0-4.18.32-4.18.75 0 .45 1.66.75 4.18.72v-.23c-3.14.04-3.05-.56-3.05-.56Z" fill="#2360A5"/><path d="M8.31 8.24s-.02.38.67.53c0 0-.82-.32-.15-.79 0 0 .97-.81 5.16-.71v-.35c-.94 0-5.62.1-5.68 1.32Z" fill="#62A24C"/></svg>