<!-- by TradingView --><svg xmlns="http://www.w3.org/2000/svg" width="18" height="18"><path fill="#F0F3FA" d="M0 0h18v18H0z"/><path d="M8.77 6.18L9.25 6C5.57 6 2 7.33 2 9c0 1.65 2.6 2.94 6.75 3l.5-.17c-4-.07-6.49-1.45-6.49-2.84 0-1.57 2.92-2.8 6-2.8z" fill="#9D150E"/><path d="M9.24 11.83l-.5.17c3.7 0 7.26-1.33 7.26-3 0-1.65-2.6-2.94-6.75-3l-.49.18c4 .07 6.5 1.44 6.5 2.83 0 1.57-3.27 2.82-6.02 2.82z" fill="#252262"/><path d="M11.25 7.57h-.1c-.02.1-.12.27-.39.15a2 2 0 00-.7-.15c-.55 0-1.62.36-1.64 1.44-.01.47.3 1.4 1.69 1.42.28 0 .8-.1 1.09-.46v-.23c-.13.15-.5.47-.97.48-.58.02-1.08-.36-1.08-1.21 0-.96.65-1.26 1.02-1.25a1 1 0 01.98.7h.1v-.9zm-4.71.07H4.92v.09h.2c.21.02.23.18.23.28v2c0 .2-.16.25-.24.26h-.2v.1h1.63v-.1h-.19c-.21-.01-.27-.16-.27-.26V9.1h1.17v.9c0 .22-.16.26-.24.27h-.19v.1h1.6v-.1h-.18c-.21-.01-.26-.16-.26-.26V8c0-.2.18-.28.26-.28h.18v-.1h-1.6v.1h.19c.21.02.24.18.24.28v.89H6.08V8c0-.2.19-.27.27-.27h.19v-.1zm4.95 0h1.6v.09h-.17c-.08 0-.27.08-.27.28v2c0 .1.06.25.27.26h.16v.1H11.5v-.1h.2c.07 0 .23-.05.23-.26V8c0-.1-.02-.26-.24-.28h-.19v-.1z" fill="#252262"/></svg>