<!-- by TradingView --><svg width="18" height="18" viewBox="0 0 18 18" xmlns="http://www.w3.org/2000/svg"><path fill="#F0F3FA" d="M0 0h18v18H0z"/><path d="m8.25 7.3.14-.8c0-.03.01-.06.04-.07a.11.11 0 0 1 .07-.03c2.54-.05 7.09 2.63 5.52 5.88a.04.04 0 0 0 0 .03v.02a.03.03 0 0 0 .05-.01c.18-.21.33-.46.45-.74a5.5 5.5 0 0 0 .19-4C13.14 3.22 7.63 2.9 5.7 7.14a5.42 5.42 0 0 0 1.16 6.01 4.64 4.64 0 0 0 6.02.4.43.43 0 0 0-.14-.1 2.2 2.2 0 0 1-1.81.05c-2.22-.88-2.89-4.02-2.68-6.2Z" fill="url(#a)"/><path d="M4.11 8.06c.6-2.77 2.79-4.68 5.5-4.68.78 0 1.53.17 2.23.52a5.85 5.85 0 0 1 3.1 3.87h.02v-.02c-.44-2.22-1.92-3.64-3.9-4.42-.3-.12-.64-.17-.93-.2a5.9 5.9 0 0 1-.35-.06 6.05 6.05 0 0 0-6.66 4.7 5.87 5.87 0 0 0 1.54 5.32 5.88 5.88 0 0 0 4.62 1.86v-.02l-.03-.01a5.78 5.78 0 0 1-5.14-6.85Z" fill="url(#b)"/><path d="M12.87 13.56a.43.43 0 0 0-.13-.1c.02-.02.02-.04 0-.04-1.4.12-2.3-1.08-2.8-2.35a6.36 6.36 0 0 1-.36-3.19h.04a6.63 6.63 0 0 1 3.67 2.26c.88 1.13.9 2.64-.42 3.42Z" fill="url(#c)"/><defs><linearGradient id="a" x1="9.72" y1="3.53" x2="11.78" y2="9.86" gradientUnits="userSpaceOnUse"><stop stop-color="#BB9368"/><stop offset=".93" stop-color="#8B5941"/></linearGradient><linearGradient id="b" x1="8.98" y1="3" x2="4.71" y2="11.65" gradientUnits="userSpaceOnUse"><stop stop-color="#B7D149"/><stop offset="1" stop-color="#309458"/></linearGradient><linearGradient id="c" x1="9.5" y1="7.87" x2="13.2" y2="12.07" gradientUnits="userSpaceOnUse"><stop stop-color="#9CC229"/><stop offset="1" stop-color="#31964A"/></linearGradient></defs></svg>