<!-- by TradingView --><svg xmlns="http://www.w3.org/2000/svg" width="18" height="18"><path fill="#E60011" d="M0 0h18v18H0z"/><path d="M7.76 8.7c.4-.07.78-.16 1.18-.21.12-.02.19-.07.23-.2.15-.4.3-.82.48-1.22.11-.26.24-.5.37-.76.2-.38.54.17.43.44-.2.49-.39.97-.56 1.47l-.04.14c.18.04.38.05.46.28l-.34.06c-.2 0-.28.1-.32.28-.2.77-.34 1.54-.41 2.33-.05.61-.79.55-.73-.08.03-.3.06-.61.12-.9.07-.4.18-.8.27-1.2l.05-.2c-.44.1-.86.23-1.28.38-.05.02-.1.1-.12.14-.1.44-.2.88-.28 1.32-.07.37-.11.74-.16 1.11-.03.22-.12.5-.4.37-.32-.15-.48-.32-.42-.66l.31-1.63.05-.21-.14.06-.51.3c-.42.25-.47-.53-.15-.72.24-.14.5-.26.76-.35.2-.07.3-.17.37-.38.34-1.09.77-2.16 1.4-3.12.2-.29.6.16.47.42-.4.86-.73 1.73-1.06 2.62l-.03.12zm3.83-.7a.54.54 0 00.07.45c.07.1.04.19 0 .29a5.68 5.68 0 00-.56 1.6c-.02.1-.02.2-.02.3 0 .23.16.36.38.31.3-.07.43-.3.6-.52.05-.07.08-.13.17-.1.01.01.02.06.01.07-.16.44-.49.87-.9.95-.56.12-.97-.3-.98-.84 0-.54.22-1.04.35-1.56l.1-.54c.02-.15.14-.2.28-.23.24-.06.29-.1.32-.35.02-.16.11-.52-.12-.53a.2.2 0 01-.2-.21c0-.11.07-.19.19-.21.41-.09.36.91.3 1.12z" fill="#fff"/><path fill-rule="evenodd" d="M9 13.88c.62 0 .19.56.19.56 2.36-.34 4.69-2.98 4.69-5.44A4.87 4.87 0 109 13.88zM9 15A6 6 0 109 3a6 6 0 000 12z" fill="#fff"/></svg>