<!-- by TradingView --><svg width="18" height="18" fill="none" xmlns="http://www.w3.org/2000/svg"><path fill="#00497B" d="M0 0h18v18H0z"/><path d="M3.167 8.29v-.457h2.187v.457h-.627v.507h1.628V8.29h-.636v-.457h2.187v.457h-.67v1.42h.67v.457H5.72V9.71h.636v-.456H4.727v.456h.627v.457H3.167V9.71h.678V8.29h-.678zM9 8.29h-.73v-.457h4.011v.964h-.729V8.29h-1.67v.507h1.123v.495H9.882v.418h1.67v-.418h.73v.875H8.27V9.71H9V8.29zM14.833 7.833H12.8v.457h.542v1.42H12.8v.457h2.034V9.71h-.542V8.29h.542v-.457z" fill="#fff"/><path d="M15.75 11.75H2.25v-5.5h13.5v5.5z" stroke="#fff" stroke-width=".5"/></svg>