<!-- by TradingView --><svg width="18" height="18" viewBox="0 0 18 18" xmlns="http://www.w3.org/2000/svg"><path fill="url(#aiyj4kjzv)" d="M0 0h18v18H0z"/><path d="M3 5h3v3h1V5h2.12a1.82 1.82 0 0 0-1.06 1.74c0 .5.16 1.08.57 1.65-1.05.8-1.37 1.42-1.37 2.36s.35 1.73 1.43 2.25H7v-3H6v3H3V5Z" fill="#F18B21"/><path d="M11.11 12.19s.56.83.56.8h-1.8c.48-.1.91-.39 1.24-.8Zm.28-5.44c0 .72-.33 1.27-1.07 1.93l.91 1.33c.21-.43.28-.87.35-1.28h1.1v.25c0 .5-.44 1.73-.72 2.12l1.3 1.9H15v-2h-2v-1h2V8h-2V7h2V5h-4.68c.82.3 1.07 1.1 1.07 1.75Zm-2.87 3.89c0 .55.32 1.08.94 1.08.2 0 .4-.04.57-.14.17-.1.32-.25.44-.43L9.28 9.39c-.53.42-.76.77-.76 1.25Zm.69-3.91c0 .35.26.7.5.98.42-.37.56-.6.56-.97 0-.3-.13-.64-.52-.64a.48.48 0 0 0-.2.05.55.55 0 0 0-.18.14.64.64 0 0 0-.12.2.7.7 0 0 0-.04.24Z" fill="#fff"/><defs><linearGradient id="aiyj4kjzv" x1="3.35" y1="3.12" x2="21.9" y2="24.43" gradientUnits="userSpaceOnUse"><stop stop-color="#1A1E21"/><stop offset="1" stop-color="#06060A"/></linearGradient></defs></svg>