<!-- by TradingView --><svg width="18" height="18" viewBox="0 0 18 18" xmlns="http://www.w3.org/2000/svg"><path fill="#AB2229" d="M0 0h18v18H0z"/><path fill-rule="evenodd" d="M11.3 12.66c-2.45 1.88-5.47 1.77-6.74-.25-1.18-1.88-.44-4.74 1.64-6.65l-.08-.1.11.07.47-.39c2.45-1.88 5.47-1.77 6.74.25.96 1.53.65 3.7-.62 5.49l.27.25-.3-.2a7.48 7.48 0 0 1-1.5 1.53Zm1.2-1.71c-.39.5-.85.97-1.38 1.37-2.37 1.82-5.26 1.76-6.45-.15-1.1-1.76-.37-4.47 1.62-6.3l.15.18c-1.72 1.52-2.35 3.83-1.38 5.34 1.04 1.62 3.51 1.7 5.52.2.44-.33.83-.72 1.15-1.14l.76.5Zm.07-.11c1.25-1.72 1.58-3.8.68-5.25-1.2-1.9-4.09-1.97-6.45-.15l-.45.36.22.13a6.05 6.05 0 0 1 .99-.67c1.84-.98 3.86-.74 4.77.68.44.68.55 1.52.39 2.38l.06.02v.05l-.02.05-.07-.01c-.13.6-.4 1.21-.78 1.78l.66.63ZM7.51 5.4a5.82 5.82 0 0 0-.84.58l.96.57a2.7 2.7 0 0 1 .12-.1L7.5 5.41Zm.26 1.15-.05.05.07.04-.02-.09Zm.14.16-.05-.22.15-.1.18.45-.03.02-.25-.15Zm-.07-.32L7.6 5.38l.36.93-.13.09Zm.3-.18-.53-.87a4.69 4.69 0 0 1 2.15-.59L9.08 6c-.3 0-.62.07-.94.22Zm.05.08.26.44.26-.06.33-.6c-.27 0-.57.08-.85.22Zm.32.53.22.37.04.03.57-.32c-.21-.15-.52-.18-.83-.08Zm3.2 3.18a4.9 4.9 0 0 0 .77-1.64l-.07-.01-2.23-.2c-.04.09-.08.18-.14.27L11.71 10ZM9.89 8.28l.08-.14-.25-.02.17.16Zm-.39-.37a1 1 0 0 0 .1-.52l-.36.27.26.25Zm-.46-.44.5-.32a.64.64 0 0 0-.12-.16l-.56.31.18.17Zm-2-.02.46.08-.05.1-.45-.1.04-.08Zm-.08.18.45.1c-.06.16-.09.33-.07.5l-.5.34c-.05-.3-.01-.62.12-.94Zm.95.18-.46.33c0-.19.05-.4.17-.6l.09.02.2.25Zm-.41.58.6-.36.12.15.03.02-.66.35a.63.63 0 0 1-.1-.16Zm.03.32c.06.07.13.13.22.18l-.06-.03-.2.5a.93.93 0 0 1-.47-.38l.5-.27Zm-.62.33.02.04c.12.2.3.35.49.44L6.4 12.01l-.09.15a2.46 2.46 0 0 1-1.55-1.97L6.9 9.04Zm-.05-.1L4.8 10.05l2-1.23.06.12Zm.1-.05.5-.27a.8.8 0 0 1-.07-.16l-.49.3.06.13Zm-2.2 1.18 2-1.43c-.07-.33-.03-.69.1-1.03L5.5 7.29c-.58.9-.85 1.9-.75 2.78Zm2.9-1.44.65-.34.23.46c-.34.11-.67.07-.88-.12ZM6.91 7.5l.03-.07-1.32-.22 1.3.3Zm-1.34-.3 1.46.07c.06-.1.12-.2.2-.29l-.72-.85a5.8 5.8 0 0 0-.94 1.07Zm1.9.1-.34-.03.15-.21.2.23Zm1.37-.63h.14l.27-.57-.1-.01-.31.58ZM9.2 6l.66-1.22-.57 1.23-.1-.01Zm.2.12-.22.58c.1.03.2.08.27.14l.55-.3a1.06 1.06 0 0 0-.6-.42Zm.02-.08.46-1.29a2.8 2.8 0 0 1 1.95.76l-1.74.97c-.16-.22-.4-.37-.67-.44Zm-.56 2.54.02.01h-.02Zm.2.13.14.1.05.16-.2.14-.11-.32.12-.08Zm.27.18h.02l-.01.02V8.9Zm.22.14 1.94 1.26a5.91 5.91 0 0 1-1.39 1.25l-.7-2.4c.06-.03.1-.07.15-.11Zm-1.66-.1c.22.08.48.08.74 0l.17.32c-.31.15-.62.21-.9.2l.2-.4L8.03 9l-.24.44-.12-.02.23-.47Zm2.2-1.03-.38-.07c.02-.05.03-.1.03-.16l.39.1-.05.13Zm.07-.24-.4-.1c0-.1 0-.2-.03-.28l.45-.35c.05.23.04.48-.02.73Zm-.03-.9-.48.3a.8.8 0 0 0-.12-.14l.53-.3.07.13ZM7.58 9.58l-.95 2L7.7 9.62c-.04 0-.08-.02-.11-.03Zm.21.05L6.42 12.2c1.02.37 2.35.18 3.57-.57L8.9 9.47a1.9 1.9 0 0 1-1.11.17Zm1.35-.3.87 2.27-.69-2.4a2.6 2.6 0 0 1-.18.13Zm1.12-1.4 1.74.31-1.7-.43-.04.12Zm.06-.23 2.18.55c.19-.84.1-1.66-.33-2.32a2.45 2.45 0 0 0-.25-.33l-1.63 1.25c.09.26.1.56.03.85Zm-.1-1 1.7-1.1-1.76.97.06.12Z" fill="#FDFDFD"/></svg>