<!-- by TradingView --><svg width="18" height="18" viewBox="0 0 18 18" xmlns="http://www.w3.org/2000/svg"><path fill="#F0F3FA" d="M0 0h18v18H0z"/><path d="M4 6.64C4 5.18 5.2 4 6.68 4h4.64A2.66 2.66 0 0 1 14 6.64v4.72c0 1.46-1.2 2.64-2.68 2.64H6.68A2.66 2.66 0 0 1 4 11.36V6.64Z" fill="#96979B"/><path d="M4.68 7.39c0-1.46 1.2-2.65 2.67-2.65h3.3a2.66 2.66 0 0 1 2.67 2.65v3.29c0 1.46-1.2 2.64-2.67 2.64h-3.3a2.66 2.66 0 0 1-2.67-2.64v-3.3Z" fill="#4CA8D9"/><path d="M14 7.04v4.32c0 1.46-1.2 2.64-2.68 2.64H6.68A2.66 2.66 0 0 1 4 11.36v-.17c.21-.42.7-1.03 1.63-1.33 1.15-.36 4.42-.48 5.92-.5.66-.04 1.99-.58 2.45-2.32Z" fill="url(#aqhfnudwa)"/><path d="M13.32 8.39v2.29c0 1.46-1.2 2.64-2.67 2.64h-3.3a2.66 2.66 0 0 1-2.67-2.64v-.31c.25-.2.56-.38.95-.5 1.15-.37 4.42-.5 5.92-.5.45-.04 1.19-.3 1.77-.98Z" fill="url(#bqhfnudwa)"/><path fill-rule="evenodd" d="M10.8 4.88H7.2a2.32 2.32 0 0 0-2.32 2.33v3.58a2.32 2.32 0 0 0 2.31 2.33h3.62a2.32 2.32 0 0 0 2.3-2.33V7.21a2.32 2.32 0 0 0-2.3-2.33Zm-3.6-.25A2.58 2.58 0 0 0 4.61 7.2v3.58a2.58 2.58 0 0 0 2.57 2.59h3.62a2.58 2.58 0 0 0 2.56-2.59V7.21a2.58 2.58 0 0 0-2.56-2.58H7.19Z" fill="url(#cqhfnudwa)"/><path d="M9.61 7H12.75v1H11v.53h1.44v1H11V11H9.61V7ZM5.25 7h1.44v1.53h.87V7H9v4H7.56V9.53h-.87V11H5.25V7Z" fill="#F0F3FA"/><ellipse cx="6.43" cy="5.95" rx=".75" ry=".74" fill="#E4F3FF" fill-opacity=".7"/><ellipse cx="12.3" cy="11.7" rx=".54" ry=".53" fill="#9BCCED"/><defs><linearGradient id="aqhfnudwa" x1="9" y1="7.04" x2="9" y2="14" gradientUnits="userSpaceOnUse"><stop offset=".63" stop-color="#D5D5D7"/><stop offset="1" stop-color="#A4A3A8"/></linearGradient><linearGradient id="bqhfnudwa" x1="9" y1="8.39" x2="9" y2="13.32" gradientUnits="userSpaceOnUse"><stop offset=".4" stop-color="#74D2EC"/><stop offset="1" stop-color="#338ACF"/></linearGradient><linearGradient id="cqhfnudwa" x1="9" y1="4.63" x2="9" y2="13.38" gradientUnits="userSpaceOnUse"><stop stop-color="#B6B7B9"/><stop offset="1" stop-color="#C0C1C5"/></linearGradient></defs></svg>