<!-- by TradingView --><svg xmlns="http://www.w3.org/2000/svg" width="18" height="18"><path fill="url(#a0orjtdhx)" d="M0 0h18v18H0z"/><path d="M9 4L4.5 5.47v5.4C4.5 12.98 9 15 9 15s4.5-2.03 4.5-4.12v-5.4L9 4zM6.84 9.25L5.5 7.75l.5-.39 1.3 1.52-.47.37zm1.84.44v2.68h-.64V9.2a.98.98 0 00-.25-.65L6.35 7.06l.48-.37 1.44 1.49c.25.27.4.64.4 1.02v.5zm1.28-.5v3.18h-.64V9.2c0-.37.16-.73.4-1.02l1.45-1.49.48.37-1.44 1.5a.9.9 0 00-.25.63zm1.2.06l-.49-.38L12 7.35l.48.39-1.32 1.51z" fill="#fff"/><defs><linearGradient id="a0orjtdhx" x1="3.35" y1="3.12" x2="21.9" y2="24.43" gradientUnits="userSpaceOnUse"><stop stop-color="#1A1E21"/><stop offset="1" stop-color="#06060A"/></linearGradient></defs></svg>