<!-- by TradingView --><svg width="18" height="18" viewBox="0 0 18 18" xmlns="http://www.w3.org/2000/svg"><path fill="#F0F3FA" d="M0 0h18v18H0z"/><path d="M12.45 6.76a6.04 6.04 0 0 1-1.33-2.57c-.06 0-.2.02-.26.1 0 .83.69 1.9 1.03 2.33.34.43 1.48 1.38 1.48 3.33a2.8 2.8 0 0 1-1.7 2.57c-.72.18-1.85.48-.47.48 1.72 0 2.8-1.58 2.8-2.88 0-1.11-.49-2.16-1.55-3.36Z" fill="#B9BABC"/><path d="m10.38 5.7-.64.34L9 4l-.78 2.04-1.04-.62.18 2.49-.85-.84-.4 1.1-1.68-.63.59 1.73-1.03.6 3.26 2.8-.64.6c.43-.05 1.1-.03 1.93-.07v.8H9v-.8h.57c-.04-1.45-.16-4.15-.22-5.3l1.03-2.2Z" fill="#E51837"/><path d="m11.27 10.07 1.17 1.52-1.16 2.32a.15.15 0 0 1-.13.09.15.15 0 0 1-.15-.16v-.16c-2.76-.32-2.94-2.57-2.94-3.37 0-.92.46-2.09 1.16-3.03 1.18-1.56 1.54-2.37 1.6-3.1 0-.1.07-.18.16-.18.1 0 .18.08.17.18-.04.37-.2.93-.43 1.46-.26.63-1.2 2.2-1.2 3.43s1.05 1.7 1.2 1.7a.4.4 0 0 0 .28-.1v-.5c0-.1.07-.17.15-.17.04 0 .09.02.12.07Z" fill="#025299"/></svg>