<!-- by TradingView --><svg width="18" height="18" viewBox="0 0 18 18" xmlns="http://www.w3.org/2000/svg"><path fill="#F0F3FA" d="M0 0h18v18H0z"/><path d="M5.45 10.5H3.92v-.16c.17-.02.44-.02.44-.26V9.05h-1.3v1c0 .23.27.27.44.29v.16H2v-.16c.18-.01.42-.03.42-.26V7.95c0-.2-.25-.27-.42-.29V7.5h1.5v.16c-.17.02-.43.05-.43.27v.9h1.3v-.88c0-.22-.27-.26-.45-.29V7.5h1.53v.16c-.17.02-.44.05-.44.27v2.13c0 .22.26.26.44.28v.16ZM9.33 10.5H7.81v-.16c.17-.02.44-.02.44-.26V9.05h-1.3v1c0 .23.26.27.43.29v.16h-1.5v-.16c.19-.01.43-.03.43-.26V7.95c0-.2-.26-.27-.42-.29V7.5h1.5v.16c-.18.02-.44.05-.44.27v.9h1.3v-.88c0-.22-.27-.26-.44-.29V7.5h1.52v.16c-.17.02-.43.05-.43.27v2.13c0 .22.26.26.43.28v.16ZM12.97 10.5H11.8c-.09-.1-.16-.25-.25-.37a1.15 1.15 0 0 1-.86.37.89.89 0 0 1-.6-.2.67.67 0 0 1-.23-.53c0-.11.01-.2.04-.28a.97.97 0 0 1 .36-.43c.1-.07.2-.12.3-.17a2 2 0 0 1-.24-.4.83.83 0 0 1-.07-.32c0-.2.08-.36.23-.48a.87.87 0 0 1 .57-.19c.2 0 .37.05.5.15.12.1.18.23.18.4 0 .13-.03.26-.11.37-.08.12-.2.23-.38.33a18.17 18.17 0 0 0 .64.8c.09-.13.15-.24.19-.34.04-.1.06-.2.06-.27 0-.04-.03-.07-.09-.1a1.25 1.25 0 0 0-.24-.07v-.15h1.1v.15l-.27.05a.42.42 0 0 0-.17.11 44.47 44.47 0 0 0-.3.52L12 9.7c.12.14.22.25.3.32.19.18.4.24.66.26v.23Zm-1.52-2.43a.42.42 0 0 0-.09-.27.26.26 0 0 0-.21-.1.27.27 0 0 0-.21.08.3.3 0 0 0-.08.21c0 .08.02.17.07.27s.13.22.23.36a.66.66 0 0 0 .29-.55Zm0 1.93a291.98 291.98 0 0 0-.78-.98.62.62 0 0 0-.15.24.9.9 0 0 0-.05.28c0 .18.06.32.17.44.11.11.25.17.42.17.08 0 .15-.01.21-.03a.66.66 0 0 0 .19-.12ZM16 9.5l-.06 1h-2.63v-.16c.19-.02.45-.03.45-.27V7.95c0-.23-.26-.26-.45-.29V7.5h1.57v.16c-.18.02-.47.03-.47.27v1.98c0 .19.06.36.27.39h.26c.37 0 .56-.07.74-.4.07-.13.13-.3.17-.4H16Z"/></svg>