<!-- by TradingView --><svg width="18" height="18" xmlns="http://www.w3.org/2000/svg"><path fill="#15406D" d="M0 0h18v18H0z"/><path d="M6.997 8H11V6.43c0-.407-.011-.68-.057-.81-.034-.097-.213-.22-.318-.292-.143-.094-.465-.105-.625-.105v-.219h3v.22h-.24a.86.86 0 00-.46.133.461.461 0 00-.219.286c-.038.13-.081.389-.081.782v5.159c0 .407.043.67.09.8a.506.506 0 00.206.254.857.857 0 00.464.143H13V13h-3v-.219c.278 0 .773-.094.9-.29.084-.125.11-.496.1-.907V9H6.997v2.584c0 .407.021.67.067.8a.506.506 0 00.207.254c.143.094.569.143.729.143V13H5v-.219h.244c.283 0 .49-.094.616-.29.08-.125.14-.429.14-.907v-5.16c0-.406-.039-.678-.085-.808a.506.506 0 00-.207-.254.857.857 0 00-.464-.143H5V5h3v.219c-.16 0-.538.049-.681.138-.106.063-.22.152-.263.282-.042.13-.059.388-.059.781V8z" fill="#fff"/></svg>