<!-- by TradingView --><svg width="18" height="18" viewBox="0 0 18 18" xmlns="http://www.w3.org/2000/svg"><path fill="#4D1822" d="M0 0h18v18H0z"/><path d="M9.01 3 14 5.67l-.24.33h-9.5l-.24-.33 5-2.67ZM4 7v-.59h10V7H4Zm0 7v-1h10v1H4Zm8.4-8.34h.98l-4.37-2.4-4.37 2.4h.99L9 3.97l3.38 1.69ZM9 5.66c.2 0 .36-.21.36-.52 0-.3-.16-.49-.36-.49-.2 0-.36.19-.36.5 0 .3.16.5.36.5ZM9.38 12H7.63v-.15c.32-.03.37-.06.37-.42v-1.25H6.43v1.25c0 .36 0 .39.32.42V12H5v-.15c.31-.04.4-.07.4-.42V8.57c0-.38-.15-.4-.4-.42V8h1.75v.15c-.26.02-.32.03-.32.42v1.25H8V8.57c0-.4-.1-.4-.37-.42V8h1.75v.15c-.25.02-.38.03-.38.42v2.86c0 .36.07.38.38.42V12Zm2.03-3.82c.74 0 1.12.52 1.23.91h.12V8h-.13c-.03.1-.06.2-.2.2a.98.98 0 0 1-.27-.07c-.17-.05-.4-.12-.72-.12C10.25 8 10 8.77 10 9.1c0 .26.1.8 1.17 1.26l.42.18.06.02c.37.16.6.26.6.61 0 .08-.03.63-.78.63-.8 0-1.16-.7-1.29-1.26H10V12h.18c.03-.09.06-.2.2-.2.06 0 .14.03.25.07.18.05.43.13.81.13 1.16 0 1.56-.68 1.56-1.18 0-.6-.53-.92-.75-1.01l-.92-.41c-.53-.24-.54-.38-.54-.69 0-.36.3-.53.62-.53Z" fill="#fff"/></svg>