<!-- by TradingView --><svg width="18" height="18" xmlns="http://www.w3.org/2000/svg"><path fill="#38C6F4" d="M0 0h18v18H0z"/><path d="M12.271 2.802c.05.116.238.52.215.635-.009.045-.029.16-.044.189-.006.011-.038.067-.072.063-.07-.005-.076-.217-.098-.282a.714.714 0 00-.156-.229c-.022-.024-.073-.062-.098-.082-.155-.137-.35-.42-.575-.472 0 0-.002-.001-.004.002 0 .002.002.009.005.013.009.008.062.048.17.158.06.064.144.145.194.216.06.085.207.216.258.292a.535.535 0 01.093.214c.006.05.006.066-.024.073-.019.006-.146-.043-.341-.058-.018 0-.181-.014-.199-.014-.246-.028-.231-.018-.44-.083-.14-.044-.312-.105-.464-.136-.019-.004-.22-.073-.233-.058-.01.01.059.051.073.058.06.026.231.09.298.121.083.041.159.074.233.103.116.045.226.087.365.119-.013.167-.046.446-.112.566a2.74 2.74 0 01-.512.656c-.041.04-.081.097-.137.147-.048.044-.111.116-.157.127-.028.006-.068-.003-.101.004-.046.01-.083.036-.123.03-.04-.007-.053-.042-.087-.06a.727.727 0 00-.176-.043c-.043-.005-.061 0-.054-.039 0 0 .003-.004.005-.028.01-.128.011-.247.01-.337-.006-.367-.237-.66-.375-.908-.034-.061-.105-.2-.16-.263-.062-.07-.025.05-.016.088.012.044.05.094.064.131.01.021.017.052.024.073.073.217.26.51.287.772.002.017.006.038.005.05-.017.171-.043.387-.205.422a.13.13 0 01-.033.006c-.256-.002-.478-.352-.59-.535a2.47 2.47 0 01-.274-.594c-.034-.11-.049-.432-.06-.548l-.004-.155c0-.007-.003-.016-.007-.016-.014 0-.034.11-.041.137-.023.093-.03.295-.03.378 0 .23.068.46.162.661.056.123.179.366.247.482.02.034.072.1.069.126-.008.06-.12.058-.156.069a1.618 1.618 0 01-.62-.054c-.2-.056-.386-.12-.551-.224-.018-.014-.037-.025-.05-.043-.22-.173-.352-.569-.4-.87a1.501 1.501 0 01-.01-.129l.056-.014c.232-.058.545-.26.72-.37.06-.035.118-.074.172-.119.006-.005.008-.008.006-.01 0 0-.005-.001-.012.001-.252.08-.589.287-.824.347-.017.005-.082.022-.126.03l.002-.078v-.076c.026-.018.053-.046.09-.075.202-.159.336-.612.475-.837.001-.002.006-.01.004-.01-.002-.002-.006 0-.01.003-.243.114-.358.614-.575.757-.177.116-.399.205-.518.37-.014.019-.044.09-.068.097-.01.002-.045.034-.064.024-.065-.04-.123-.163-.167-.233-.064-.101-.046-.397-.033-.507.02-.17.16-.389.242-.528l.002-.006-.006.002a.662.662 0 00-.126.099c-.114.13-.261.347-.273.527-.012.17.035.548.146.66.02.024.04.044.064.062.136.122.199.303.268.478a.636.636 0 00.084.155c.124.186.36.286.57.39.2.1.434.202.659.272.141.046.328.091.497.122.065.013.121.024.153.052.023.019.038.1.05.139l.05.139c.037.104.06.203.099.279.055.1.184.144.304.188.016.003.089.025.175.02.055-.002.062.064.059.095-.003.044.004.073.003.118-.003.114.007.114-.008.212-.003.022-.029.09-.047.147-.004.008-.009.017-.01.025-.012.055-.019.157-.037.212-.016.058-.087.236-.105.506a.891.891 0 01-.098.318c-.023.05-.019.076-.037.132-.019.058-.03.103-.05.133a.443.443 0 01-.06.076 2.313 2.313 0 00-.268.235c-.036.035-.074.126-.108.144-.023.013-.15.094-.182.103-.191.058-.236.09-.39.184-.33.204-2.615.194-2.573 1.792a.992.992 0 01-.01.093.932.932 0 00.008.27c.036.227.099.435.183.61.142.294.275.465.486.655.053.048.115.088.167.139.105.103.16.3.24.435.01.01-.003.281-.003.284-.002.008-.005.054-.01.108-.837.139-1.71.246-2.495.306V14h8v-2.526c-.05.012-1.029.401-1.237.479a1.72 1.72 0 00.04-.096c.043-.134.071-.28.12-.383.033-.068.113-.278.113-.278a3.6 3.6 0 00.125-.52c.004-.033.113-.167.113-.167.032-.042.057-.099.093-.15 0 0 .175-.362.17-.676-.001-.057.016-.317.015-.542 0-.013.003-.025.003-.04a.944.944 0 00-.01-.132c-.001-.009 0-.018-.002-.027-.008-.058.005-.172.001-.223-.004-.068-.027-.06-.032-.13-.004-.049-.02-.085-.032-.13-.008-.032-.027-.062-.043-.091a.348.348 0 01-.004-.038c.009-.243-.154-.532-.158-.542-.077-.177-.068-.184-.055-.4a1.408 1.408 0 00-.08-.476 2.646 2.646 0 01-.12-.24.113.113 0 01-.006-.073c.018-.076.15-.098.203-.134a.294.294 0 00.087-.123.036.036 0 00.003-.013v-.08c0-.007-.005-.012-.005-.018-.003-.012.001-.03 0-.044l.001-.012c.047-.143.095-.269-.042-.34-.056-.03-.131-.043-.128-.1.002-.042.057-.058.089-.08a.575.575 0 00.194-.187c.02-.035.02-.129.046-.153.017-.017.065-.031.097-.048.104-.054.205-.088.298-.142.25-.142.52-.416.712-.613a2.3 2.3 0 00.317-.397c.055-.103.105-.352.112-.486l.01-.145c-.001-.005-.001-.011-.004-.011-.002 0-.005.002-.006.005-.066.161-.13.456-.234.592-.077.1-.31.36-.424.433l-.016.01.012-.03a.176.176 0 00.009-.04c.027-.162.103-.278.103-.554 0-.027.05-.075.063-.097.088-.15.098-.352.073-.505-.016-.1-.164-.36-.219-.422-.005-.006-.09-.11-.102-.097-.005.004.004.025.008.034zm-5.377.864c.056-.07.184-.145.234-.176a.21.21 0 00.017-.011c-.007.058-.01.112-.015.137-.027.011-.077.028-.127.046-.03.01-.069.035-.114.047-.034.009-.01-.025.005-.043zm.147.802a.356.356 0 01-.054-.053.537.537 0 01-.132-.25c-.05-.187-.1-.15.015-.266a.508.508 0 01.127-.088c.032-.016.078-.04.108-.047l.03-.008.004.084c.019.31.07.55.2.779a2.787 2.787 0 01-.298-.151zm2.313.914c-.013-.01-.069-.02-.054-.064.004-.014.036-.024.045-.025.092-.017.243.027.193.114 0 0-.08.055-.084.055 0 0-.037-.015-.044-.02-.023-.014-.041-.05-.056-.06zm-2.13 7.588a.553.553 0 01.142-.23c.02-.019.19-.196.21-.222a.995.995 0 00.157-.282.379.379 0 01.084-.119c.217-.103.433-.016.54-.044.081-.021.067-.083.083-.157l.102-.004c.077 0 .16-.021.232-.031l.149-.02c.188-.027.238-.066.238-.066.133-.034.27-.08.327-.124.061.008.094.148.138.221.043.074.048.101.088.153.004.004.056.115.11.238-.597.243-1.544.486-2.6.687zm3.183-1.553c-.005.052-.012.516-.02.674-.068.024-.115.04-.15.05-.037-.135-.083-.47-.096-.5-.043-.097-.044-.173-.056-.304.11-.002.22-.01.319-.031a.66.66 0 01.007.068l-.004.043zm1.75-6.84c-.078.192-.343.35-.564.426-.062.02-.194.097-.235.069-.015-.012.07-.083.088-.098.192-.154.443-.27.634-.415.046-.036.087-.068.096-.078-.002.02-.002.054-.02.096zm-.003-.318c-.19.235-.588.355-.804.506-.056.039-.1.09-.18.141-.025.015-.104.064-.158.088-.005.002-.031.025-.038.014-.013-.017.074-.115.083-.126.22-.282.42-.557.463-.983.008-.096.014-.176.008-.245l.065.002c.27.013.628.039.664.306.017.126-.048.229-.103.297z" fill="#95013D"/></svg>