<!-- by TradingView --><svg xmlns="http://www.w3.org/2000/svg" width="18" height="18" viewBox="0 0 18 18"><path fill="#F0F3FA" d="M0 0h18v18H0z"/><path d="M8.93 9.29c-.08-.17-.19-.34-.23-.52l-.06-.2c-.03-.11-.1-.2-.1-.32-.05.01-.06 0-.06-.04 0-.1 0-.18-.03-.3-.05.05-.07.05-.08.02-.04-.12-.03-.27-.07-.39-.04.04-.09.07-.1.01 0-.06.02-.42-.02-.44-.06.12-.09.08-.1-.05 0-.1-.01-.2-.06-.3-.02.04-.06.11-.08.03 0-.04-.04-.35-.09-.36-.01.04-.02.07-.05.1-.06-.06-.08-.4-.17-.4 0 .04-.02.15-.06.08-.03-.07-.09-.29-.16-.32l-.05.16c-.03 0-.39-.68-.43-.75l-.01-.01v.02l.03.27c0 .06.05.53.02.5-.03 0-.05-.03-.08-.04.03.1.06.2.11.28.03.05-.06.03-.08.02-.03.07.08.25.11.3.03.05-.04.04-.07.04.04.12.1.22.17.3.06.07-.05.05-.07.05 0 .1.3.39.1.31 0 .09.22.34.2.34h-.1c.13.23.3.2.16.33.07.1.32.2.2.3.06.07.34.2.2.25.08.1.16.18.28.21.08.02 0 .06-.04.09l.3.15c.07.03-.02.09 0 .1.06.03.34.13.27.17.05.02.35.15.37.14l-.07-.13z" fill="#25B4B8"/><path d="M8.52 7.06c0 .04 0 .07.02.1.02.06.17.32 0 .2.01.04.15.33.02.22l.01.1c.03.06.19.24.03.2l.02.08c.03.07.22.26.05.21.03.08.09.13.13.2.04.06-.06.05-.03.1.03.07.07.13.12.18.03.05-.03.05-.06.05.01.06.2.24.1.24l.08.19h.11l.08-.19c-.08 0 .1-.2.1-.24-.05 0-.09 0-.06-.05.03-.03.18-.2.1-.22-.06-.02.1-.22.13-.26l-.07.02c-.04-.01.12-.26.13-.3-.17.04.05-.24.04-.3-.12.09.01-.2.02-.23-.17.12.01-.24.03-.3-.13.06-.04-.12-.03-.18.02-.04.02-.1.03-.14-.02 0-.04.02-.05.03-.02.01-.04 0-.04-.02v-.03c.05-.1.08-.18.08-.28-.15.1-.05-.2-.04-.28-.14.12-.05-.13-.03-.2 0-.03.03-.16 0-.17-.03.02-.06.05-.1.05 0-.12.08-.24.05-.36-.03.02-.05.05-.09.04-.02 0 .04-.3.04-.33v-.1l-.07.03c-.05.03-.01-.28 0-.31-.07-.03-.11.08-.09-.07a.78.78 0 0 0-.01-.32l-.07.04c-.03.02-.04.01-.04-.02-.03-.2-.05-.41-.1-.62l-.08.62c0 .03-.02.04-.05.02l-.07-.04c-.06.21.06.33-.09.39 0 .03.04.34 0 .31-.03 0-.04-.02-.08-.04v.11c0 .05.08.37 0 .33-.01-.01-.05-.06-.05-.03.02.22.07.25-.06.3.01.13.03.26.06.38.01.06-.07 0-.08 0 .01.08.12.38-.04.27 0 .11.1.24-.01.3.02.08.14.38 0 .32z" fill="#22908F"/><path d="M6.97 9.34l.16.04c.07 0 .3-.05.27.06.1 0 .36-.1.34.03.14-.02.28 0 .42-.01.14 0 .27 0 .4-.02-.22-.21-.48-.35-.67-.6-.02.22-.28-.21-.32-.27-.02.06-.04.08-.09.03-.06-.09-.14-.23-.24-.27 0 .03.01.13-.04.1l-.35-.26c0 .03.03.15-.04.1l-.32-.25c0 .04.02.14-.04.1l-.3-.19c-.01.07 0 .14-.06.11l-.31-.16c-.04-.01.01.1-.05.07l-.43-.23c-.05-.02.02.14-.04.1-.25-.14-.48-.3-.72-.46l-.02-.01.1.13c.15.18.33.33.53.46.05.04-.1.07-.12.07l.32.16c.07.03-.05.06-.08.07.08.06.47.16.3.26.07.03.4.14.27.2.09.05.36.09.26.2l.14.05c.11.02.27-.01.14.11.1.07.4.04.32.18.12.04.37-.07.27.1z" fill="#2781BD"/><path d="M13.57 7.37l-.72.47c-.02 0-.04-.01-.03-.03l.01-.08c-.14 0-.33.17-.45.23-.05.03-.03-.07-.04-.07-.06.03-.36.2-.36.14l-.02-.08-.3.18c-.05.04-.04-.06-.03-.1l-.32.24c-.06.06-.05-.06-.04-.1l-.35.26c-.05.04-.04-.07-.04-.1-.1.05-.18.2-.24.27-.04.05-.06.04-.08-.02l-.26.31c-.04.05-.06-.02-.07-.05-.18.25-.45.38-.66.6.14.02.38-.05.47-.03l.35.06c-.03-.13.24-.03.34-.03-.02-.06-.01-.06.04-.06.13 0 .25.01.38-.04-.02-.03-.08-.13 0-.1.1.04.18.03.27 0-.01-.01-.06-.07-.05-.09.07-.06.27-.02.37-.09-.02-.01-.1-.09-.03-.1.11 0 .2-.02.3-.06-.03-.03-.07-.04-.06-.06 0-.03.28-.11.32-.13-.04-.02-.08-.05-.02-.07l.3-.13c-.02-.01-.13-.07-.07-.09.13-.03.25-.1.36-.17-.07-.03-.14-.05-.08-.07l.2-.09.11-.07c-.02 0-.17-.02-.1-.06.19-.14.37-.29.52-.47.01-.01.12-.15.08-.12z" fill="#074F28"/><path d="M9.3 9.37c.03-.02.2-.07.2-.1-.04-.06.2-.13.26-.16.03-.01-.06-.07 0-.1.11-.04.2-.1.3-.15-.03-.03-.1-.07-.03-.09.12-.03.2-.11.29-.21-.04-.01-.13-.05-.04-.08a.6.6 0 0 0 .17-.1l.07-.06c-.13-.1.12-.2.19-.3-.02-.03-.11.02-.12 0 0-.09.23-.26.27-.34h-.13c.04-.1.15-.14.2-.23a.24.24 0 0 0 .05-.1c-.04 0-.09.03-.1 0-.04-.02.18-.25.2-.32-.02 0-.1.02-.1-.02.02-.09.13-.17.17-.26l.02-.07h-.08c-.04-.1.18-.22.12-.34-.03 0-.07.03-.08 0-.02-.02.1-.26.11-.3-.01 0-.12.08-.11.02l.07-.76c-.04.07-.4.76-.43.75-.01-.03-.04-.16-.06-.15-.05.1-.1.26-.18.34a.55.55 0 0 1-.03-.1c-.04 0-.07.15-.09.18-.02.07-.03.16-.08.2-.02-.02-.04-.05-.05-.09-.05.01-.08.32-.1.36-.01.08-.05 0-.07-.02-.07.11-.06.27-.07.4 0 .04-.04.04-.05.01-.08-.15-.05.11-.05.18 0 .06 0 .13-.02.2 0 .07-.09-.03-.1 0-.01.12-.02.25-.06.37-.01.03-.03.03-.08-.02l-.02.1c0 .05.03.26-.06.24l-.01.1c-.03.17-.11.27-.15.42-.01.03-.02.04-.06.02-.06.22-.14.43-.24.63.01.02.13-.04.15-.05z" fill="#1B703E"/><path d="M11.52 12.23s-3.48-1.34-6.57-.7c.23.37.5.7.8.98.36-.27 2.49-1.06 5.77-.28z" fill="#2781BD"/><path d="M6.13 11.08c2.57-.56 5.28.31 6.7.9.38-.47.66-1.01.84-1.6-5.44-1.02-7.54.7-7.54.7z" fill="#2D3E50"/><path d="M4.26 9.49c.05.52.19 1.01.39 1.47C6.37 10.02 8.5 9.9 8.5 9.9c-1.63-.4-3.25-.45-4.25-.41z" fill="#2781BD"/><path d="M11.79 12.94l.01.02a4.79 4.79 0 0 1-5.71-.15l.05-.02c3.01-1 5.65.15 5.65.15z" fill="#2D3E50"/><path d="M13.8 9.49l-.07.45c-1.8-.4-4.2-.04-4.2-.04 1.64-.4 3.26-.45 4.26-.41z" fill="#074F28"/><path d="M9 3.53a5.46 5.46 0 1 1 0 10.94A5.46 5.46 0 1 1 9 3.53zM9 15A6 6 0 1 0 9 3a6 6 0 0 0 0 12z" fill="#2781BD"/></svg>