<!-- by TradingView --><svg width="18" height="18" viewBox="0 0 18 18" xmlns="http://www.w3.org/2000/svg"><path fill="#F0F3FA" d="M0 0h18v18H0z"/><path d="M8 8h2V6.63c-.08-.2-.3-.29-.51-.33-.11-.03-.16-.1-.15-.23V5.2c0-.13.06-.19.17-.19h3.3c.1 0 .19.05.19.16v.93c0 .12-.1.19-.2.21l-.3.08c-.1.03-.5.1-.5.2v4.8c0 .1.39.16.47.2.26.1.46.06.53.28v.96s-.03.17-.16.17H9.48c-.12 0-.14-.06-.14-.2v-.9c0-.1.04-.2.14-.21l.36-.05c.1-.02.16-.1.16-.21v-1.29c0-.08-.04-.13-.12-.13H8.13c-.1 0-.13.07-.13.2v1.2c0 .1 0 .18.09.23h.36c.2.06.24.14.24.23v1c0 .08-.04.14-.11.14H5.24c-.1 0-.24-.06-.24-.18v-.96c0-.1.13-.17.23-.18l.36-.05c.1 0 .41-.07.41-.18V7.07c0-.9-1.22-.7-.88-1.9.02-.08.07-.17.14-.17h3.31c.09 0 .2.1.2.19v.88c0 .08-.03.14-.1.17l-.56.17c-.1.03-.11.1-.11.22V8Z" fill="#4A5376"/></svg>