<!-- by TradingView --><svg xmlns="http://www.w3.org/2000/svg" width="18" height="18"><path fill="#F0F3FA" d="M0 0h18v18H0z"/><path d="M14 11.28V6.72c0-.38-.2-.74-.53-.93L9.54 3.52c-.33-.2-.73-.2-1.07 0L4.53 5.79C4.2 6 4 6.35 4 6.72v4.54c0 .39.2.74.53.93l3.94 2.3c.34.18.74.18 1.07 0l3.93-2.28c.34-.2.53-.55.53-.93z" fill="url(#ajncudviz)"/><path opacity=".6" d="M11.81 7.53V5.5c0-.39-.2-.74-.52-.93L9.54 3.52c-.33-.2-.73-.2-1.06 0L6.7 4.56c-.33.19-.52.54-.52.93v2.04c0 .38.2.74.52.93l1.77 1.02c.33.2.73.2 1.06 0l1.75-1.02c.33-.2.52-.55.52-.93z" fill="#fff"/><path opacity=".8" d="M11.84 12.5v-2.07c0-.38-.2-.73-.52-.93L9.54 8.48c-.33-.2-.73-.2-1.07 0L6.7 9.5c-.34.2-.53.55-.53.93v2.07c0 .38.21.73.53.92l1.77 1.03c.34.2.74.2 1.07 0l1.78-1.03c.33-.19.52-.54.52-.92z" fill="url(#bjncudviz)"/><path opacity=".6" d="M14 11.3V9.21c0-.38-.2-.73-.52-.93l-1.76-1.02c-.33-.2-.72-.2-1.05 0L8.9 8.29c-.33.2-.54.55-.54.93v2.06c0 .38.21.73.53.93l1.75 1.02c.33.2.73.2 1.06 0l1.75-1.02a1 1 0 00.54-.92z" fill="#fff"/><path opacity=".6" d="M9.63 11.3V9.21c0-.38-.21-.73-.52-.93L7.36 7.27c-.33-.2-.73-.2-1.06 0L4.52 8.29c-.31.2-.52.55-.52.93v2.06c0 .38.2.73.52.93l1.75 1.02c.33.2.72.2 1.05 0l1.75-1.02c.35-.18.56-.53.56-.92z" fill="#fff"/><defs><linearGradient id="ajncudviz" x1="5.15" y1="12.86" x2="12.88" y2="5.15" gradientUnits="userSpaceOnUse"><stop stop-color="#2AB4FF"/><stop offset="1" stop-color="#7FC6CE"/></linearGradient><linearGradient id="bjncudviz" x1="9.01" y1="14.59" x2="9.01" y2="8.34" gradientUnits="userSpaceOnUse"><stop stop-color="#2A85FF"/><stop offset="1" stop-color="#fff"/></linearGradient></defs></svg>