<!-- by TradingView --><svg width="18" height="18" fill="none" xmlns="http://www.w3.org/2000/svg"><path fill="#96C855" d="M0 0h18v18H0z"/><path fill-rule="evenodd" clip-rule="evenodd" d="M6 5h3.214L9 6c-.464 0-.6-.073-.759.524C8.047 7.254 7.86 8 7.86 8h2.872l.487-1.74s.096-.26-.449-.26L11 5h3l-.233 1c-.427 0-.628 0-.76.402-.058.243-1.322 4.956-1.322 4.956s-.2.642.283.642h.35s-.146.542-.318 1H8.767L9 12l.42.001s.293.068.429-.42c.136-.507.684-2.581.684-2.581h-2.93l-.704 2.663S6.63 12 7.233 12L7 13H4l.343-1s.675 0 .766-.337c.175-.65 1.265-5.018 1.265-5.018S6.584 6 6.194 6h-.37L6 5Z" fill="#F0F3FA"/></svg>