<!-- by TradingView --><svg width="18" height="18" viewBox="0 0 18 18" xmlns="http://www.w3.org/2000/svg"><path fill="#F0F3FA" d="M0 0h18v18H0z"/><path d="M11.08 7.91c.02 0 .05-.02.08-.05l2.58-2.8a.19.19 0 0 1 .12-.06.13.13 0 0 1 .1.04.13.13 0 0 1 .04.1v1.95c0 .26-.13.44-.31.64l-4.7 5.12a.55.55 0 0 1-.17.14c-.14.05-.29-.06-.29-.21v-7.6c0-.12.06-.18.19-.18h2.14c.1 0 .14.05.14.14v2.7a.07.07 0 0 0 .03.06.06.06 0 0 0 .05.01Z" fill="#084E91"/><path d="M4.07 7.57c-.01 0-.03 0-.05-.02A.06.06 0 0 1 4 7.51V5.29c0-.08.03-.15.1-.2A.35.35 0 0 1 4.33 5h1.82c.08 0 .17.03.23.09.06.05.1.12.1.2v2.22l-.03.04a.08.08 0 0 1-.05.02H4.07Z" fill="#128C45"/><path d="M4 8.1a.1.1 0 0 1 .03-.07.09.09 0 0 1 .06-.03H7.9a.1.1 0 0 1 .07.03.1.1 0 0 1 .03.07v1.8c0 .06-.06.1-.12.1H6.63c-.11 0-.17.06-.17.18v1.99c0 .27.08.61-.2.78a.6.6 0 0 1-.3.05H4.54c-.3 0-.54-.05-.54-.4V8.1Z" fill="#084E91"/><path d="m11.27 10.48 1.42-1.36a.13.13 0 0 1 .16 0l1.12.92a.1.1 0 0 1 .03.04v2.82l-.01.06a.11.11 0 0 1-.06.03h-.06a.12.12 0 0 1-.06-.02l-2.54-2.35a.1.1 0 0 1-.03-.07.1.1 0 0 1 .03-.07Z" fill="#128C45"/></svg>