<!-- by TradingView --><svg width="18" height="18" xmlns="http://www.w3.org/2000/svg"><path fill="#7AC142" d="M0 0h18v18H0z"/><path d="M8.548 13.32a4.334 4.334 0 01-3.903-4.44 6.015 6.015 0 013.903 4.44zM9.447 13.32a4.334 4.334 0 003.904-4.44 6.015 6.015 0 00-3.904 4.44z" fill="#fff"/><path d="M9 4.618c-.927 1.339-2.224 4.95 0 8.69 2.19-3.903.806-7.348 0-8.69z" fill="#fff"/><path fill-rule="evenodd" d="M9 13.688c2.565 0 4.688-2.123 4.688-4.688 0-2.565-2.123-4.688-4.688-4.688-2.565 0-4.688 2.123-4.688 4.688 0 2.565 2.123 4.688 4.688 4.688zM9 14A5 5 0 109 4a5 5 0 000 10z" fill="#fff"/></svg>