<!-- by TradingView --><svg xmlns="http://www.w3.org/2000/svg" width="18" height="18" viewBox="0 0 18 18"><path fill="#F0F3FA" d="M0 0h18v18H0z"/><path d="M12.32 6.33c.15-.2.42-.21.61-.08.2.15.23.42.08.61a.43.43 0 0 1-.62.08.45.45 0 0 1-.07-.61ZM13.37 9.1c.22.07.34.29.27.5-.07.22-.29.35-.5.28-.22-.08-.35-.3-.28-.51a.4.4 0 0 1 .51-.27ZM12.32 11.85a.4.4 0 0 1-.07.56.41.41 0 0 1-.57-.05.4.4 0 0 1 .07-.57.4.4 0 0 1 .57.06ZM9.64 13.28a.4.4 0 0 1-.4.44.4.4 0 0 1-.44-.39.4.4 0 0 1 .4-.44c.21-.02.42.14.44.39ZM6.57 12.64a.4.4 0 0 1-.58.15c-.2-.13-.27-.37-.14-.58a.4.4 0 0 1 .57-.15c.19.12.26.37.15.58ZM5 10.28a.4.4 0 0 1-.55-.2c-.1-.2-.02-.46.18-.55a.4.4 0 0 1 .55.2c.1.2.03.44-.19.55ZM5.07 7.43a.4.4 0 1 1 .13-.8.4.4 0 0 1 .34.46.4.4 0 0 1-.47.34ZM6.75 5.34c-.16-.16-.18-.42-.01-.58.16-.17.42-.18.58-.02.16.16.18.42.02.58-.17.17-.42.18-.59.02ZM9.64 4.8a.44.44 0 0 1 .47-.4c.24.01.43.23.41.46a.44.44 0 0 1-.47.41c-.23 0-.43-.21-.41-.47Z" fill="#FF6B00"/><path d="M8.5 3.5c0-.3.23-.5.5-.5.3 0 .5.23.5.5A.5.5 0 0 1 9 4a.5.5 0 0 1-.5-.5ZM11.05 3.61a.49.49 0 0 1 .67-.22c.25.13.36.4.23.67a.5.5 0 0 1-.68.22.51.51 0 0 1-.22-.67ZM13.35 5.06a.5.5 0 0 1 .7.1.5.5 0 0 1-.07.69.5.5 0 0 1-.7-.1c-.18-.22-.16-.52.07-.7ZM14.39 7.61a.5.5 0 0 1 .6.38.51.51 0 0 1-.38.6.5.5 0 0 1-.6-.38c-.05-.28.1-.54.38-.6ZM14.61 10.13a.5.5 0 0 1 .38.6.51.51 0 0 1-.6.38.5.5 0 0 1-.38-.6.48.48 0 0 1 .6-.38ZM13.81 12.39c.23.17.25.5.08.7a.5.5 0 0 1-.7.08.5.5 0 0 1-.08-.7.5.5 0 0 1 .7-.08ZM11.9 14.13c.12.25.01.55-.25.68a.5.5 0 0 1-.66-.23c-.1-.26-.02-.54.25-.65.24-.15.52-.06.65.2ZM9.5 14.5a.5.5 0 0 1-.5.5.5.5 0 0 1-.5-.5c0-.28.22-.5.5-.5.3.02.52.22.5.5ZM6.98 14.44c-.1.26-.4.35-.67.22A.48.48 0 0 1 6.1 14c.13-.24.41-.35.67-.22.24.11.35.41.22.66ZM4.81 12.88a.49.49 0 0 1-.7-.07.5.5 0 0 1 .07-.7.5.5 0 0 1 .7.07c.18.21.16.53-.07.7ZM3.6 10.65a.48.48 0 0 1-.59-.38.5.5 0 0 1 .37-.6.5.5 0 0 1 .6.38c.07.26-.1.52-.37.6ZM3.4 8.29c-.28-.06-.43-.34-.38-.6a.5.5 0 0 1 .6-.38c.29.06.44.32.38.6a.5.5 0 0 1-.6.38ZM4.18 5.73a.52.52 0 0 1-.08-.71c.17-.2.5-.26.7-.08.23.17.26.49.08.7a.5.5 0 0 1-.7.09ZM6.07 4.06c-.13-.24-.02-.55.23-.68.24-.11.55-.02.66.23.13.24.02.54-.23.68a.51.51 0 0 1-.66-.23Z" fill="#FF9E18"/><path d="M9 12.67a3.67 3.67 0 1 0 0-7.34 3.67 3.67 0 0 0 0 7.34Z" fill="#285C8E"/><path d="M9 10.67a1.67 1.67 0 1 0 0-3.34 1.67 1.67 0 0 0 0 3.34Z" fill="url(#arrhrstsl)"/><defs><linearGradient id="arrhrstsl" x1="9" y1="10.66" x2="9" y2="7.33" gradientUnits="userSpaceOnUse"><stop offset="0" stop-color="#FCF17E"/><stop offset="1" stop-color="#FAAE1B"/></linearGradient></defs></svg>