<!-- by TradingView --><svg width="18" height="18" xmlns="http://www.w3.org/2000/svg"><path fill="url(#paint0_linear)" d="M0 0h18v18H0z"/><path d="M5.47 8L4 8.857 5.47 10V8z" fill="#B2A389"/><path d="M12.53 8l1.47.857L12.53 10V8z" fill="#E5D9C4"/><path d="M10 4h4v.311h-.525L13 5v8l.475.688H14V14h-4v-.313h.47L11 13V5l-.53-.689H10V4z" fill="#B2A389"/><path d="M4 4h4v.312h-.471L7 5v8l.529.688H8V14H4v-.313h.546L5 13V5l-.454-.688H4v-.313zm5 2.187l3 1.547v2.271L9 11.5V6.187z" fill="#E5D9C4"/><path d="M9 6.187L6 7.616v2.346L9 11.5V6.187z" fill="#B2A389"/><defs><linearGradient id="paint0_linear" x1="3.349" y1="3.122" x2="21.904" y2="24.434" gradientUnits="userSpaceOnUse"><stop stop-color="#1A1E21"/><stop offset="1" stop-color="#06060A"/></linearGradient></defs></svg>