<!-- by TradingView --><svg width="18" height="18" viewBox="0 0 18 18" xmlns="http://www.w3.org/2000/svg"><path fill="#F0F3FA" d="M0 0h18v18H0z"/><path d="m6.31 4-.14.29.14.28h.15l.53.86H5.23L4 7.28 5 9l-1 1.71.94 1.74-.06.12.15.29h.28l.14-.29-.14-.28h-.13l-.46-.86h1.82l1.08-1.86-1-1.7 1.15-1.72-1.08-1.76.05-.1L6.6 4H6.3ZM5.4 5.71h1.78l.26.43-.3.43H4.83l.57-.86Zm-.76 1.15h2.32l-.57.85h-1.8l-.24-.42.29-.43ZM4.75 8h1.62l.5.86H5.25L4.75 8Zm.5 1.14h1.79l.25.43-.25.43H4.75l.5-.86Zm-.67 1.15h2.3l-.5.85H4.55l-.23-.42.25-.43ZM12.62 5.14l-.14.29.14.28h.14l.46.86h-1.67L10.3 8.42l1 1.72-1.02 1.72.96 1.74-.06.11.15.29h.28l.14-.29-.14-.28h-.13l-.46-.86h1.82L14 10.71l-1.07-1.7L14 7.29l-1-1.75.05-.11-.14-.29h-.29Zm-.92 1.72h1.7l.26.42-.26.43h-2.27l.57-.85ZM10.94 8h2.32l-.57.86h-1.8l-.24-.43.29-.43Zm.12 1.14h1.62l.5.86h-1.62l-.5-.86Zm.5 1.15h1.81l.3.42-.32.43h-2.29l.5-.85Zm-.67 1.14h2.3l-.5.86h-1.82l-.26-.43.28-.43Z" fill="#1D698D"/><path d="m9.48 4.57-.14.29.14.28h.15l.53.86H8.4L7.17 7.85l1 1.72-1 1.71.94 1.74-.06.12.14.29h.29l.14-.29-.14-.28h-.14L7.88 12H9.7l1.09-1.86-1-1.7 1.14-1.72-1.08-1.76.06-.1-.15-.29h-.28ZM8.56 6.3h1.77l.27.42-.3.43H7.99l.58-.85Zm-.77 1.14h2.33l-.57.86h-1.8l-.25-.43.3-.43Zm.13 1.14h1.62l.5.86H8.42l-.5-.86Zm.5 1.14h1.79l.25.43-.25.43H7.9l.5-.86Zm-.67 1.15h2.29l-.5.85H7.73l-.23-.42.25-.43Z" fill="#5BC0AE"/></svg>