<!-- by TradingView --><svg width="18" height="18" viewBox="0 0 18 18" xmlns="http://www.w3.org/2000/svg"><path fill="#2C3581" d="M0 0h18v18H0z"/><path d="M10.12 10.45a.73.73 0 0 0 .56-.2c.21-.19.37-.44.45-.71.03.45-.05.91-.23 1.33-.22.47-.62.7-1.13.75-.2.02-.4.02-.6 0a1.6 1.6 0 0 1-1.05-.54c-.39-.43-.68-.92-.96-1.42-.28-.52-.53-1.06-.77-1.6-.09-.22-.2-.43-.35-.62-.2-.26-.38-.27-.63-.06-.23.2-.41.43-.55.69-.37.63-.69 1.29-1.03 1.93-.35.66-.63 1.36-1 2H2c.92-1.44 1.56-3.07 2.4-4.56.2-.38.48-.73.81-1.02.1-.09.22-.17.34-.24.5-.28.97-.24 1.4.13a4 4 0 0 1 .8 1c.25.4.46.81.68 1.22.13.24.26.46.41.68l.06.1c.14.32.37.57.62.81.17.17.35.32.6.33Z" fill="url(#ae4ss2paa)"/><path d="M16 12h-.86c-.87-1.55-1.72-3.11-2.6-4.65a3.97 3.97 0 0 0-.27-.42c-.34-.45-.78-.7-1.35-.7.3-.18.64-.25.98-.22a1.3 1.3 0 0 1 1.03.6c.24.36.43.74.64 1.11.8 1.42 1.56 2.9 2.43 4.28Z" fill="url(#be4ss2paa)"/><path d="M13.88 10.38c-.26-.46-.5-.93-.8-1.39-.27-.51-.55-1.02-.85-1.52-.11-.18-.25-.34-.4-.48a1.06 1.06 0 0 0-1.35-.1c-.27.17-.48.41-.63.7L9.02 9.1l-.12.2c.14.33.37.58.62.82.17.17.35.32.6.33l.2-.4c.15-.3.33-.59.46-.9 0 0 .23-.47.3-.46.06-.03.27.4.27.4.23.49.5.96.76 1.44l.8 1.47h1.9c-.31-.47-.65-1.13-.93-1.62Z" fill="url(#ce4ss2paa)"/><path d="M8.06 11.43c-.4-.32-.67-.78-.9-1.22l-.84-1.56-.29-.63c-.24-.4-.53-.4-.8-.03-.15.23-.28.47-.39.72-.01.02.01-.02 0 0C4.28 9.8 3.7 10.9 3.18 12h1.79c.4-.68.73-1.41 1.12-2.1.05-.1.09-.2.23-.2.1.04.13.14.17.22.16.27.3.56.46.82.14.24.33.44.56.59.17.1.36.13.55.1Z" fill="url(#de4ss2paa)"/><defs><linearGradient id="ae4ss2paa" x1="6.64" y1="11.64" x2="6.64" y2="6.44" gradientUnits="userSpaceOnUse"><stop offset=".48" stop-color="#DBC87D"/><stop offset="1" stop-color="#FAEAC0"/></linearGradient><linearGradient id="be4ss2paa" x1="10.92" y1="9" x2="16" y2="9" gradientUnits="userSpaceOnUse"><stop stop-color="#FAEAC0"/><stop offset=".52" stop-color="#DBC87D"/></linearGradient><linearGradient id="ce4ss2paa" x1="11.8" y1="11.75" x2="11.8" y2="7.15" gradientUnits="userSpaceOnUse"><stop stop-color="#B79443"/><stop offset=".78" stop-color="#ECCE78"/></linearGradient><linearGradient id="de4ss2paa" x1="5.69" y1="11.7" x2="6.11" y2="7.98" gradientUnits="userSpaceOnUse"><stop offset=".4" stop-color="#A88234"/><stop offset=".99" stop-color="#DBC16D"/></linearGradient></defs></svg>