<!-- by TradingView --><svg width="18" height="18" viewBox="0 0 18 18" xmlns="http://www.w3.org/2000/svg"><path fill="#F0F3FA" d="M0 0h18v18H0z"/><path d="M15 4.6a.77.77 0 0 0-.3-.54.3.3 0 0 0-.28-.05.53.53 0 0 0-.2.13c-.11.1-.24.28-.4.56-.04.08-.14.2-.3.31a7.95 7.95 0 0 1-1.65.8c-.78.13-2.32.98-3.05 3.34h-.16c-.24-.3-.66-.61-1.22-.75-.63-.16-1.43-.07-2.33.5v.01H5.1a2.9 2.9 0 0 1-.97.45c-.42.1-.9.12-1.37-.06a1.32 1.32 0 0 0-.23-.08.54.54 0 0 0-.3 0 .33.33 0 0 0-.19.15.37.37 0 0 0-.04.23c.02.12.1.25.18.39a2.98 2.98 0 0 0 1.57 1.06c.15.03.3.05.46.02l.12.11.36.25a6.99 6.99 0 0 0 2.27.85 2.3 2.3 0 0 0-.26 1.15.6.6 0 0 0 .2.44c.13.1.28.13.4.13.1 0 .23 0 .34-.02h.05l.36-.05a.76.76 0 0 0 .34-.15c.17.1.4.14.67.1.18-.02.33-.06.46-.12a.5.5 0 0 0 .28-.32c.04-.15 0-.29-.06-.4a1.9 1.9 0 0 0-.18-.29c0-.04 0-.08.03-.13l.2-.26h.01l.01-.02c.13-.15.32-.37.35-.65l.31-.15c.29-.15.66-.37 1.02-.65.36-.27.72-.6.97-.94.22-.3.38-.64.36-1l.2-.19a12.45 12.45 0 0 0 1.3-1.95c.26-.52.5-1.07.61-1.53.06-.24.09-.47.06-.67Zm-7.06 6.85c-.17.04-.4.15-.6.34-.13.01-.33 0-.58-.06a6.47 6.47 0 0 1-2.11-.94.64.64 0 0 1-.14-.14l-.11-.2-.2.1c-.08.03-.19.04-.34 0-.15-.03-.32-.1-.5-.2a2.8 2.8 0 0 1-.69-.54c.56.19 1.12.15 1.58.04.5-.13.9-.35 1.14-.52.8-.51 1.45-.56 1.93-.44.5.12.85.43 1.01.66l.07.1h.8l.04-.18c.67-2.35 2.15-3.07 2.72-3.15H12L12 6.3c.3-.1.77-.29 1.2-.52.22-.11.44-.24.62-.38.18-.13.34-.3.44-.47l.21-.34.01.07c.02.12 0 .28-.05.49-.1.4-.3.91-.58 1.42a11.95 11.95 0 0 1-1.22 1.84 1.78 1.78 0 0 1-.2.19l-.18.09.05.2c.04.2-.03.45-.25.75-.21.29-.53.58-.87.84a7.03 7.03 0 0 1-1.24.74h-.03s.05 0 .1.03a.24.24 0 0 1 .13.16l-.5.05.01.07c.03.15-.05.26-.24.48l-.02.02c-.08.1-.18.21-.25.34a.72.72 0 0 0-.07.53v.06l.04.04a1.64 1.64 0 0 1 .19.3H9.3c-.05.02-.15.05-.3.07-.23.03-.34-.02-.38-.05a.17.17 0 0 1-.07-.11l-.5.04v.15a3.03 3.03 0 0 1-.4.07H7.6c-.12 0-.2.02-.28.01a.25.25 0 0 1-.1-.01l-.02-.09c0-.1 0-.25.06-.48.07-.33.21-.55.36-.7a.98.98 0 0 1 .43-.26l-.11-.5Zm.67-.05c-.06-.02-.12-.11.08-.3l.2-.16c.3-.24.73-.57.64-.85-.12-.34-.12-.42 0-.8.11-.39.4-1.11.5-1.02.04.04 0 .19-.09.4-.1.29-.24.7-.28 1.15a.67.67 0 0 0 .06.41c.1.2-.1.54-.64 1-.04-.02-.11-.1-.07-.2-.13.09-.4.28-.4.37ZM7.34 9.15c.53.25.85.89.94 1.17 0-.1.11-.44.14-.5.03-.07-.2-.29-.75-.67-.55-.37-1-.3-.33 0Zm1.08 1.63c-.1-.05-.08-.16-.05-.21 0 .05.33.13.35-.06.03-.19.13-.33.29-.28.13.05-.01.2-.1.28 0 .26-.24.29-.37.27 0 .05-.03.15-.12.14-.1-.02-.04-.1 0-.14Z"/></svg>