<!-- by TradingView --><svg xmlns="http://www.w3.org/2000/svg" width="18" height="18"><path fill="#F0F3FA" d="M0 0h18v18H0z"/><path d="M3.4 9.04A5.68 5.68 0 019 3.4a5.7 5.7 0 015.6 5.64 5.6 5.6 0 01-11.2 0zM3 9c0 3.32 2.72 6 6 6a6.04 6.04 0 006-6A6 6 0 103 9zm6.68-.04C9.81 7.38 10.97 6.3 13 6.3v.15c0 1.48 0 2.8-2.2 2.8h-.87l-.25-.29zM5 6.3c1.99 0 3.2 1.08 3.32 2.66l-.21.33H7.2C5 9.3 5 7.93 5 6.45V6.3zm5.55 3.53c1.58 0 1.7.92 1.7 2.13-2.03 0-2.52-.88-2.57-1.92l.17-.2h.7zm-3.06.05h.7l.17.2C8.32 11.13 7.86 12 5.79 12c0-1.2.12-2.12 1.7-2.12zm2.07-2.92c.04.04.08.13.04.17 0 0-.5 1-.45 1l.06.33.06.33c.04.34.04.67.04 1 0 .34 0 .67-.04 1l-.07.34c-.05.22-.1.44-.18.66-.08-.33-.17-.66-.2-1a8.06 8.06 0 01.12-2.66l-.5-1c-.04-.08 0-.13.04-.17.04-.04.13 0 .17.04l.37.75L9.4 7c.05-.04.13-.08.17-.04z"/></svg>