<!-- by TradingView --><svg width="18" height="18" viewBox="0 0 18 18" xmlns="http://www.w3.org/2000/svg"><path fill="#F0F3FA" d="M0 0h18v18H0z"/><path fill-rule="evenodd" d="M5 12.92V5.07c0-.1.08-.17.18-.18.04 0 .08 0 .12.03L8.64 6.7V3.18c0-.14.16-.22.3-.16L13 5.03v7.9c0 .1-.1.18-.2.18-.04 0-.07-.01-.1-.03L9.36 11.3v3.52c0 .14-.16.23-.3.16L5 12.92Zm3.64-5.81L5.73 8.68V5.53l2.9 1.58Zm-2.91 5.36 2.9-1.58-2.9-1.57v3.15Zm3.63-5.36 2.91 1.57V5.53L9.37 7.1Zm2.91 5.36-2.9-1.58 2.9-1.57v3.15ZM5.73 9l2.9 1.58V7.42L5.74 9Zm2.9 5.37-2.9-1.58 2.9-1.58v3.16Zm3.64-9.16L9.37 6.8V3.63l2.9 1.58Zm-2.9 5.37L12.26 9l-2.9-1.58v3.16Z" fill="url(#aqmqisx2m)"/><defs><linearGradient id="aqmqisx2m" x1="12.65" y1="5.07" x2="5.99" y2="13.75" gradientUnits="userSpaceOnUse"><stop stop-color="#11C0DE"/><stop offset=".33" stop-color="#3263F8"/><stop offset=".5" stop-color="#3A60F6"/><stop offset="1" stop-color="#FD0BD1"/></linearGradient></defs></svg>