<!-- by TradingView --><svg width="18" height="18" viewBox="0 0 18 18" xmlns="http://www.w3.org/2000/svg"><path fill="#F0F3FA" d="M0 0h18v18H0z"/><path d="M2 7.12V7h1.45v.12l-.36.17V8.8h1.82V7.29l-.36-.17V7H6v.12l-.36.17v3.43l.36.17V11H4.55v-.1l.36-.18V9.2H3.09v1.52l.36.17V11H2v-.1l.36-.18V7.29L2 7.12Zm8.48 1.07h-.22c-.06-.3-.34-.9-1.02-.9-.85 0-1.42.72-1.42 1.71 0 1 .53 1.7 1.43 1.7.73 0 1-.6 1.04-.89h.21l-.14.94c-.15.08-.6.25-1.22.25C7.42 11 7 9.7 7 9.06 7 7.23 8.66 7 9.24 7c.47 0 .97.15 1.16.22l.08.97ZM11.5 11h1.29v-.13l-.58-.18.2-2.81 1.09 2.85h.32l1-2.85.2 2.85-.43.14V11H16v-.13l-.45-.14-.24-3.45.46-.14V7h-.96l-1 2.88L12.76 7h-1.06v.14l.47.22-.25 3.33-.41.18V11Z" fill="#C68B31"/></svg>