<!-- by TradingView --><svg xmlns="http://www.w3.org/2000/svg" width="18" height="18"><path fill="#00C805" d="M0 0h18v18H0z"/><path d="M11.57 4c.48.02.8.11 1.02.3.26.22.53 1.1.35 2.24a.45.45 0 01-.1.18c-.58.68-1.7 2.2-1.7 2.2-.08-.87-.12-1.9-.1-2.8 0-.14-.1-.21-.23-.21-.89.1-1.78.23-2.69.44l-.06.01c-.01.02-.03 0-.04-.01-.02-.02-.02-.03 0-.05l.04-.05C8.61 5.63 9.2 5 9.8 4.42c.08-.06.14-.1.23-.14A4.8 4.8 0 0111.57 4zm-3.22 8.64l-.07.03c-.46.16-1.15.39-1.74.69-.03.01-.06.06-.06.06l-.05.1-.05.13-.15.36-.02.08v.05h.02l.08-.03.32-.17.28-.14h.01l1.17-.58s.05-.03.08-.08l.21-.44v-.03c0-.03-.01-.05-.03-.03zm-1.7-.7l.2-.38v-.02c.92-1.8 2.05-3.49 3.35-5.04l.03-.04V6.4c-.02-.02-.03-.03-.05-.02h-.06c-.85.13-1.72.29-2.57.5-.09.03-.13.08-.15.1a27.2 27.2 0 00-1.8 2.46l.01.14s.14 1.1.34 1.9C5.45 13 5 15 5 15h.35a18.3 18.3 0 011.3-3.05zm3.99-5.1v-.07l-.03-.04h-.05l-.03.06a26.6 26.6 0 00-3.8 5.94l-.02.05v.05h.01l.02.01h.01l.05-.01c.85-.37 1.72-.68 2.59-.94.04-.02.1-.05.12-.1.38-.75 1.26-2.22 1.26-2.22.04-.05.02-.1.02-.1s-.15-1.75-.15-2.64z" fill="#fff"/></svg>