<!-- by TradingView --><svg width="18" height="18" viewBox="0 0 18 18" xmlns="http://www.w3.org/2000/svg"><path fill="#F0F3FA" d="M0 0h18v18H0z"/><path d="M8.45 5C7.52 5 6.66 5.3 6 6c2.9.96 4.98 3.36 5.29 6 .41-.7.65-1.5.7-2.3.14-2.12-1.15-4.7-3.54-4.7Z" fill="#00A2D9"/><path d="M12 6c.54.93.6 2.18.52 3.53C12.4 11.7 11.35 13.47 10 14c2.26-.59 3.89-2.13 4-4.06A4.38 4.38 0 0 0 12 6Z" fill="#1E63AF"/><path d="M5.51 7A4.17 4.17 0 0 0 3 10c.8-.41 1.81-.57 2.9-.57h.01c2.64 0 3.95 1.44 4.09 1.57a7.87 7.87 0 0 0-4.49-4Z" fill="#7FC9E6"/></svg>