<!-- by TradingView --><svg width="18" height="18" xmlns="http://www.w3.org/2000/svg"><path fill="#4A5E5E" d="M0 0h18v18H0z"/><path d="M13.492 7.833c-.478-1.928-2.259-3.52-4.5-3.52-2.646 0-4.718 2.319-4.68 4.638 0 .131.005.27.019.425.623-.325 1.163-.692 1.795-1.108.215-.142.427-.288.634-.435.117-.427.26-.945.271-.977.294-.212.894-.525 1.032-.668.004.147.035.37.063.625a6.28 6.28 0 00.96-1.037v-.002c1.289.912 2.572 1.605 4.406 2.06zm.505.883c-1.09-.233-2.654-.757-4.777-1.813-1.697 1.304-3.538 2.578-5.062 3.33a4.88 4.88 0 01-.13-.745h.012-.012l-.009-.096a5.06 5.06 0 01-.02-.44C3.999 6.22 6.239 4 8.992 4c2.333 0 4.332 1.572 4.862 3.822l.022.094h-.006l.008.003a4.9 4.9 0 01.12.797zm-.014.637l.016.004c.004-.057-.005-.166-.004-.224-.543-.228-1.143-.408-1.98-.602-2.6-.603-5.346.447-7.74 2.094.255.755.69 1.43 1.254 1.973 1.686-2.459 4.701-3.8 8.454-3.245zM5.97 12.977c1.633-2.502 4.773-3.634 7.976-3.142C13.566 12.196 11.502 14 9.012 14a5.004 5.004 0 01-3.042-1.023z" fill="#fff"/></svg>