<!-- by TradingView --><svg width="18" height="18" xmlns="http://www.w3.org/2000/svg"><path fill="#0060A9" d="M0 0h18v18H0z"/><path fill-rule="evenodd" d="M12.546 7v2.15h.156c.268 0 .47-.148.47-.42V7.436c0-.312-.206-.436-.503-.436h-.123zM13 11h-.454v-.994h1.712c.435 0 .739-.403.739-.817L15 5.698l-.004-.016c-.092-.437-.238-.567-.688-.652l-.009-.002h-3.955L10.341 7H11v4h-.66l-.014 2H13v-2zM5.44 9.644h1.562V11h-.497v1.981h2.972V11h-.454V7h.457V5H6.505v2h.497v1.58H5.44V7h.562V5H3v2h.67v4H3v1.982h2.973V11H5.44V9.644z" fill="#fff"/></svg>