<!-- by TradingView --><svg width="18" height="18" viewBox="0 0 18 18" xmlns="http://www.w3.org/2000/svg"><path fill="#F0F3FA" d="M0 0h18v18H0z"/><path fill-rule="evenodd" d="M4.14 10.54h7.22c.18 0 .32.13.32.3v3.23H4.14v-3.53Zm1 2.34v-1.8h.4v1.32l.1-.12a.2.2 0 0 1 .3 0l.2.26.2-.25a.2.2 0 0 1 .3-.01l.12.12v-1.33h.38v1.81a.2.2 0 0 1-.12.18.2.2 0 0 1-.21-.05l-.3-.31-.21.27a.2.2 0 0 1-.3 0l-.22-.27-.3.31a.2.2 0 0 1-.21.05.2.2 0 0 1-.13-.18Zm3-1.8v1.8c0 .08.05.15.13.18a.2.2 0 0 0 .2-.05l.3-.31.22.27a.2.2 0 0 0 .3 0l.22-.27.3.31a.2.2 0 0 0 .21.05.2.2 0 0 0 .12-.18v-1.8h-.38v1.32l-.12-.12a.2.2 0 0 0-.3 0l-.2.26-.2-.25a.2.2 0 0 0-.3-.01l-.1.12v-1.33h-.4Z" fill="#A28D3C"/><path d="M5.36 7.07c-.12 0-.22.08-.22.18v2.82h4V7.25c0-.1-.1-.18-.22-.18h-.78v1.81a.2.2 0 0 1-.12.18.2.2 0 0 1-.21-.05l-.3-.31-.21.27a.2.2 0 0 1-.3 0l-.22-.27-.3.31a.2.2 0 0 1-.21.05.2.2 0 0 1-.13-.18v-1.8h-.78Zm1.17 0V8.4l.12-.12a.2.2 0 0 1 .3 0l.2.26.2-.25a.2.2 0 0 1 .29-.01l.12.12V7.07H6.53ZM13 7.75l.99.21c.09.02.15.1.15.2V9.6a.2.2 0 0 1-.15.2l-1 .21V7.75ZM8.1 5.22l.21-1a.2.2 0 0 1 .2-.15h1.45c.1 0 .17.07.2.16l.2 1H8.1ZM11.14 5.4l.85-.56a.2.2 0 0 1 .25.02l1.04 1a.2.2 0 0 1 .03.26l-.53.86-1.64-1.58ZM6.5 4.8l.84.57-1.32 1.28h-.5l-.35-.56a.2.2 0 0 1 .03-.25l1.05-1.01a.2.2 0 0 1 .25-.02ZM12.14 12.95v-1.6l.59-.56.53.87a.2.2 0 0 1-.03.24l-1.04 1.02a.2.2 0 0 1-.05.03Z" fill="#A28D3C"/><path d="M13.34 8.87c0 1.14-.45 2.17-1.2 2.92V10.7c0-.35-.31-.63-.7-.63H9.62v-.2a.98.98 0 0 0 .96-.96.98.98 0 0 0-.96-.97v-.8a.48.48 0 0 0-.49-.49H5.7a4.15 4.15 0 0 1 7.65 2.22Zm-3.71-.6v1.29a.65.65 0 0 0 0-1.3Z" fill="#A28D3C"/></svg>