<!-- by TradingView --><svg width="18" height="18" viewBox="0 0 18 18" xmlns="http://www.w3.org/2000/svg"><path fill="#F0F3FA" d="M0 0h18v18H0z"/><path d="M4 10.77v-1.7a5.35 5.35 0 0 1 4.93-5.05c1.5-.17 4.45.96 5.07 4.31v2.08c-.6-.22-2.44-.5-5.07.17-2.64.67-4.39.4-4.93.19Zm2.7 1.73L9.14 14l2.45-1.5a5.07 5.07 0 0 0-2.45.17c-.7.33-1.93.02-2.46-.17ZM8.4 5.07a4.7 4.7 0 0 0-3.55 3.92L8.6 5.34 5.53 9.51l1.34-.95.38.26 1.84-1.45 1.94 1.45.4-.26 1.27.95-2.96-4.17L13.3 9c-.44-2.87-2.55-3.81-3.56-3.92l-.65-.9c-.22.26-.68.82-.68.9Zm.72 1.57.1-1.36 1.04 1.46-.7-.4-.44.3Z" fill="#72736C"/><path d="m12.69 11.9.81-.54c-1.02-.43-1.9-.6-4.4 0-2 .48-3.78.13-4.43-.1 1.13 1.05 3.7 1.14 4.89.77.95-.3 2.48-.21 3.13-.13Z" fill="#5199D1"/></svg>