<!-- by TradingView --><svg width="18" height="18" viewBox="0 0 18 18" xmlns="http://www.w3.org/2000/svg"><path fill="#F0F3FA" d="M0 0h18v18H0z"/><path d="m10.8 6.61.12 1.2a.07.07 0 0 0 .03.05c1.05.73 2.3 1.8 2.88 2.98.32.68.18 1.48-.64 1.63-1.29.24-3-.49-4.14-1.1a.06.06 0 0 0-.05 0l-1.15.53c-.02 0-.03.02-.03.05.13.73.36 1.67.84 2.3.64.81 1.2-.99 1.31-1.34.12-.35.58-.2.49.14-.16.63-.56 1.67-1.2 1.9-1.17.42-1.75-1.85-1.89-2.6 0-.01-.01-.02-.02 0-.35.42-.72.45-1.13.08a.06.06 0 0 0-.06-.01c-.65.16-2.03.26-2.15-.74C3.86 10.36 6.05 8.54 7 7.9a.2.2 0 0 0 .08-.15l.13-1.26a.04.04 0 0 0-.03-.05 4.56 4.56 0 0 0-2.26-.38c-1.03.14.2 1.61.45 1.92.2.25-.13.61-.37.35-.4-.42-.82-.99-.96-1.58-.19-.77.36-1.23 1.05-1.27a5.44 5.44 0 0 1 2.22.41.05.05 0 0 0 .02-.03c.13-.82.58-2.63 1.51-2.84 1.09-.25 1.65 1.88 1.79 2.62 0 .03.01.03.03 0 .34-.41.71-.44 1.12-.07.01.01.03.02.05.01.73-.17 2.27-.26 2.16.98-.05.6-.43 1.1-.84 1.61-.33.42-.72.04-.4-.33.26-.3.92-1.17.68-1.58-.22-.36-1.11-.24-1.46-.15a.06.06 0 0 0-.05.04c-.2.55-.56.7-1.09.44-.02 0-.03 0-.03.02Zm-.63-.54c-.05-.36-.62-3.04-1.39-2.43-.56.44-.83 1.7-.95 2.4 0 .04 0 .06.03.07l1.12.53h.05l1.13-.53c.01-.01.02-.02.01-.04ZM7.64 7.4a.02.02 0 0 0 .01.03.02.02 0 0 0 .03 0l.7-.43h.02a.02.02 0 0 0 0-.03h-.01l-.64-.3a.02.02 0 0 0-.02 0l-.01.02-.08.71Zm1.97-.44v.01a.02.02 0 0 0 0 .03l.71.43a.02.02 0 0 0 .02 0 .02.02 0 0 0 .02-.02l-.08-.72a.02.02 0 0 0 0-.02.02.02 0 0 0-.03 0l-.64.3Zm-.83 1.51c-.08-.21.1-.42.06-.64-.07-.3-.34-.27-.55-.14-.26.15-.67.34-.7.69-.03.4-.1 1.38.2 1.61.22.18.8.69 1.05.23a.1.1 0 0 0 .01-.05c-.01-.17-.13-.48-.07-.62.09-.22.44-.16.46.09.01.22-.17.41-.06.62.2.41.73-.05.95-.2.23-.16.28-.28.28-.56l-.01-1.12c-.02-.37-.51-.58-.76-.73-.17-.1-.35-.08-.45.1-.16.25.22.64-.06.82-.11.08-.3.04-.35-.1Zm-2.3.52a.02.02 0 0 0-.01.02.02.02 0 0 0 0 .01l.55.42a.02.02 0 0 0 .03 0v-.89a.02.02 0 0 0-.03 0l-.54.44Zm4.5-.43a.02.02 0 0 0-.02 0l-.01.02v.89h.01a.02.02 0 0 0 .03 0l.54-.44a.02.02 0 0 0 0-.02v-.01l-.55-.44Zm-3.9 1.6a17.64 17.64 0 0 1-1.04-.77l-.03.01c-.46.4-.84.85-1.16 1.32-.92 1.38.35 1.38 1.18 1.2.02 0 .04-.02.05-.04.2-.57.57-.72 1.1-.45.02 0 .03 0 .02-.02a17.3 17.3 0 0 1-.12-1.25Zm6.33 1.09A4.89 4.89 0 0 0 12 9.4c-.02-.02-.04-.02-.06 0l-1 .76a.08.08 0 0 0-.02.06l-.12 1.3c0 .02.01.04.04.05.34.13 3.15 1.02 2.58-.33Zm-5.01-.19a.02.02 0 0 0 .01-.01.02.02 0 0 0 0-.02l-.74-.45h-.01a.02.02 0 0 0-.02.01v.02l.08.73a.02.02 0 0 0 0 .01.02.02 0 0 0 .03 0l.65-.29Zm1.94-.45a.02.02 0 0 0 0-.02.02.02 0 0 0-.03 0l-.7.43v.01a.02.02 0 0 0 0 .02v.01l.65.3a.02.02 0 0 0 .02 0v-.02l.06-.73Z" fill="#040708"/></svg>