<!-- by TradingView --><svg width="18" height="18" viewBox="0 0 18 18" xmlns="http://www.w3.org/2000/svg"><path fill="#F0F3FA" d="M0 0h18v18H0z"/><path d="M5 12.86C6.11 10.2 7.24 7.54 8.4 4.9c.07-.17.17-.3.32-.43.6-.5 1.23-.98 1.89-1.44.05-.05.07-.04.04.03L7.17 11.1a.9.9 0 0 1-.3.36 97.55 97.55 0 0 0-1.85 1.43L5 12.88v-.02Z" fill="#ACD923"/><path d="M8.23 12.36c-.26.25-.94.77-2.03 1.57-.03.03-.04.02-.03-.01l3.42-8a1 1 0 0 1 .3-.4c.62-.5 1.25-.98 1.89-1.45.05-.03.07-.03.04.03l-3.6 8.26Z" fill="#67823B"/><path d="M7.37 15h-.04c1.12-2.66 2.26-5.31 3.41-7.96.07-.17.18-.31.33-.43.6-.51 1.23-1 1.88-1.49.05-.03.06-.03.04.03-1.14 2.68-2.28 5.37-3.44 8.05a.89.89 0 0 1-.3.36L7.37 15Z" fill="#031C5D"/></svg>