<!-- by TradingView --><svg width="18" height="18" xmlns="http://www.w3.org/2000/svg"><path fill="#F0F3FA" d="M0 0h18v18H0z"/><path d="M12.667 9.249l-1.877.433c-.25 0-.388.144-.425.216-.246.498-.766 1.55-.875 1.781-.109.231.1.316.217.33h.658c.43 0 .67-.172.738-.258.54-.612 1.657-1.907 1.805-2.19.147-.282-.1-.326-.241-.312zM8.987 9.658l-1.554-.08c-.203.037-.147.292-.094.415.175.426.542 1.342.617 1.594a.464.464 0 00.375.341h.455c.268 0 .375-.156.395-.234.083-.353.241-1.159.215-1.56-.027-.403-.284-.485-.409-.476z" fill="#51B948"/><path d="M9.525 11.928H8.077c-.386 0-.42.135-.389.202.242.782.754 2.41.871 2.666.118.256.273.215.336.162.27-.806.848-2.477 1.008-2.717.16-.24-.186-.309-.378-.313z" fill="#007EC3"/><path d="M6.557 9.949l-1.565-.334c-.421-.126-.37.094-.292.22.396.507 1.231 1.576 1.402 1.792.17.217.46.36.583.406.104.012.402.04.761.057.358.017.344-.206.292-.32-.128-.301-.431-.987-.62-1.323-.187-.336-.452-.472-.561-.498z" fill="#51B948"/><path d="M6.922 8.766l-1.08-.176c-.204-.033-.198.129-.17.214.165.345.553 1.103.79 1.37.296.335.29.176.871.351.465.14.464-.088.406-.22-.053-.178-.192-.63-.323-1.002-.132-.373-.384-.513-.494-.537zM9.784 4.974H7.643c-.36.059-.377.464-.34.66.113.718.353 2.245.406 2.606.053.36.33.526.462.564.222.007.754.018 1.106 0a.529.529 0 00.507-.429c.094-.684.3-2.177.372-2.673.073-.497-.218-.692-.372-.728z" fill="#1C3E95"/><path d="M11.068 7.206L8.82 7.37c-.415 0-.532.4-.539.6.055.697.169 2.198.184 2.619.016.42.265.503.388.492.142-.004.526-.021.925-.053.4-.031.584-.2.627-.28.377-.704 1.16-2.267 1.282-2.896.121-.628-.363-.693-.62-.647zM12.689 4h-.855c-.162 0-.265.198-.297.297-.085.264-.219.907-.303 1.241-.088.348.052.414.155.41h.6c.251 0 .361-.159.385-.238.129-.376.404-1.178.475-1.377.072-.2-.077-.305-.16-.333zM13.857 7.02l-.56.1c-.101 0-.165.076-.185.104-.097.13-.33.437-.483.623-.154.186-.01.237.081.238.12 0 .313-.05.445-.095.116-.038.199-.047.271-.143.144-.19.453-.598.541-.708.089-.11-.036-.125-.11-.119zM4.841 6.461l-.724-.15c-.172-.036-.115.102-.064.176.193.262.6.804.672.883.072.08.236.146.304.168.034.01.178.064.527.121.352.057.323-.049.267-.12-.156-.245-.499-.764-.616-.888a.707.707 0 00-.366-.19z" fill="#1C3E95"/></svg>