<!-- by TradingView --><svg width="18" height="18" viewBox="0 0 18 18" xmlns="http://www.w3.org/2000/svg"><path fill="#F0F3FA" d="M0 0h18v18H0z"/><path d="M10.5 9c0-.22-.05-.43-.13-.62h1.57a3 3 0 0 1-4.78 3l.91-1.2A1.5 1.5 0 0 0 10.5 9Zm-2.9.55A1.5 1.5 0 0 1 9 7.5c.3 0 .6.1.83.25l.91-1.2a3 3 0 0 0-4.69 3H7.6Z" fill="#6E6F71"/><path d="M5.38 4A6.32 6.32 0 0 0 3 8.98c0 1.99.9 3.76 2.3 4.9l1.3-1.67A4 4 0 0 1 5.14 10h7.74a4 4 0 0 1-1.48 2.2l1.32 1.68A6.32 6.32 0 0 0 15 8.98c0-2.04-.93-3.84-2.38-4.98l-1.34 1.71A4 4 0 0 1 12.88 8H5.12a4 4 0 0 1 1.6-2.29L5.37 4Z" fill="#EC1D23"/></svg>