<!-- by TradingView --><svg width="18" height="18" viewBox="0 0 18 18" xmlns="http://www.w3.org/2000/svg"><path fill="#F0F3FA" d="M0 0h18v18H0z"/><path d="M8 5.12 7.31 4C5.61 4.51 4 5.75 4 8c0 3.2 2.67 5.33 4 6v-.3c-.65-.46-2.46-2.83-2.46-4.98 0-2.43 1.64-3.41 2.46-3.6Z" fill="url(#adlyaxtwf)"/><path d="m7.89 5.15-2.43.12A4.63 4.63 0 0 0 4 8.16c.01.33.05.65.11.96v.01c.62 2.07 2.43 3.48 3.26 4.01a11.74 11.74 0 0 1-2.3-2.84c.37.64 1.35 1.67 1.81 2.11l.02.01c-.15-.22-.3-.46-.45-.72a4.53 4.53 0 0 1-1.43-3.05c0-1.64 1.24-2.7 2.23-3.22.23-.14.45-.23.64-.28Z" fill="#49C6F2"/><path d="M5.05 8.18c0-1.27.73-2.2 1.1-2.51-.4.22-1.53 1.42-1.53 2.62 0 .96.72 2.16 1.09 2.63a6.12 6.12 0 0 1-.66-2.74Z" fill="#348EB0"/><path d="M7.96 5.13C6.49 5.3 3.83 6.3 4.13 9.09l.02.2C4.05 8.9 4 8.46 4 8c0-2.25 1.6-3.49 3.31-4L8 5.12h-.04Z" fill="url(#bdlyaxtwf)"/><path d="m9.9 10.64-1.32.84C8.38 10.98 8 9.7 8 8.59 8 6.28 9.56 5 10.99 5 12.4 5 14 6.32 14 8.6c0 3.48-2.86 5.72-4.29 6.4v-.32c2.86-2.39 3.43-4.35 3.43-5.6 0-1.24-.66-2.52-1.8-2.52-1.13 0-1.91 1.3-1.91 2.37 0 .86.33 1.5.47 1.7Z" fill="#EE1C27"/><path d="M11.37 13.62c.74-.8 2.22-2.98 2.25-5.19.06.8.16 3.24-2.25 5.2Z" fill="url(#cdlyaxtwf)"/><path d="M9.16 11.11c-.4-.3-.75-1.87-.76-2.5-.02-.68.97-2.98 2.93-2.98 1.57 0 2.18 1.4 2.29 2.14-.1-.66-.7-1.93-2.29-1.93-1.98 0-2.55 2.26-2.55 3.29 0 .77.27 1.57.43 1.95l-.05.03Z" fill="#C0141C"/><path d="M8.43 6.7 10 5.42c-.46.67-1.38 2.3-1.38 3.45 0 1.02.32 1.84.53 2.23l-.58.37a9.76 9.76 0 0 1-.55-2.33l.12-1.73c.07-.26.16-.5.28-.73Z" fill="url(#ddlyaxtwf)"/><path d="M8.6 11.47a9.28 9.28 0 0 1-.41-2.53c0-1.29.76-3.63 2.94-3.63 1.52 0 2.34 1.12 2.74 2.22C13.47 5.9 12.17 5 11 5 9.56 5 8 6.28 8 8.6c0 1.1.39 2.38.58 2.88l.02-.01Z" fill="url(#edlyaxtwf)"/><defs><linearGradient id="adlyaxtwf" x1="6" y1="4" x2="6" y2="14" gradientUnits="userSpaceOnUse"><stop offset=".16" stop-color="#EDF7FF"/><stop offset="1" stop-color="#177592"/></linearGradient><linearGradient id="bdlyaxtwf" x1="7.53" y1="4.46" x2="4.75" y2="6.75" gradientUnits="userSpaceOnUse"><stop stop-color="#370540"/><stop offset="1" stop-color="#1C7092"/></linearGradient><linearGradient id="cdlyaxtwf" x1="13.5" y1="8.42" x2="10.83" y2="13.67" gradientUnits="userSpaceOnUse"><stop stop-color="#F7A188"/><stop offset="1" stop-color="#C51A22"/></linearGradient><linearGradient id="ddlyaxtwf" x1="9.02" y1="5.43" x2="9.02" y2="11.48" gradientUnits="userSpaceOnUse"><stop stop-color="#E32329"/><stop offset="1" stop-color="#670131"/></linearGradient><linearGradient id="edlyaxtwf" x1="10.03" y1="5" x2="8.49" y2="11.16" gradientUnits="userSpaceOnUse"><stop stop-color="#FFFCFB"/><stop offset="1" stop-color="#F41A28"/></linearGradient></defs></svg>