<!-- by TradingView --><svg width="18" height="18" viewBox="0 0 18 18" xmlns="http://www.w3.org/2000/svg"><path fill="#F0F3FA" d="M0 0h18v18H0z"/><path fill-rule="evenodd" d="M13.7 11.97C15.1 11.23 16 10.17 16 9c0-.42-.11-.82-.32-1.2v1.63l-1.98 2.54Zm-.07.03h-1.5l-.26-.3-.26.3H9.95v-2h1.48l1.18-1.33h.92L12.47 10h1.16l1.7-2.72C14.2 5.93 11.78 5 9 5 5.13 5 2 6.8 2 9c0 .75.37 1.46 1 2.06V10h1.54L5.9 8.58 5.64 10h.9l.96-.9-.3.9H8l2-2.6v1.81L8.38 12h-1.4l-.3-.29-.27.29H4.97l-.27-.29-.27.29h-.06c1.23.62 2.85 1 4.63 1 1.78 0 3.4-.38 4.63-1Zm-.04-4h-.72l.48-1.08.32.56-.08.52Zm-6.56-.07.64.11.05-.7-.69.59Z" fill="url(#apiem21r2)"/><defs><linearGradient id="apiem21r2" x1="3.76" y1="7.47" x2="15.44" y2="10.38" gradientUnits="userSpaceOnUse"><stop stop-color="#0273CD"/><stop offset="1" stop-color="#0053A7"/></linearGradient></defs></svg>