<!-- by TradingView --><svg width="18" height="18" xmlns="http://www.w3.org/2000/svg"><path fill="#BF2E1B" d="M0 0h18v18H0z"/><path d="M9.046 5.301c-.46.166-1.29.51-1.864.766-.562.243-1.507.575-2.107.728-.587.14-1.251.37-1.468.51-.55.333-.869 1.022-.78 1.724.052.536.04.588-.433.932-.383.268-.46.396-.345.485.498.383 1.162.256 1.392-.268.115-.23.115-.472 0-.906-.115-.473-.115-.639.05-.958.294-.574.422-.562.358.039-.05.408.013.702.217 1.11.23.434.445.613.33.843-.077.166-.179.306-.243.306s-.127.511-.14 1.15L4 13h.472c.486 0 .296 0 .296-.536 0-.524.013-.626.869-1.124.842-.472.893-.485 1.123-.268.128.115.243.294.243.396 0 .09.14.293.306.434.179.153.383.524.46.728.14.319.23.37.664.37h.51l-.268-.434a2.004 2.004 0 01-.268-.856c0-.28.051-.332.383-.332.256 0 .422.09.524.281.09.166.332.6.549.856.332.408.472.485.894.485.408 0 .472-.038.395-.23-.153-.396-.23-1.136-.114-1.136.063.013.344.383.625.728.447.561.562.638 1.009.638h.485l-.217-.332c-.115-.179-.294-.651-.396-.945-.153-.447-.166-.549 0-.702.153-.153.192-.14.268.09.115.37.498.344.677-.052.076-.178.217-.28.306-.255.256.102.524-.153 1.175-1.124.485-.715.587-.97.587-1.455 0-.792-.574-1.38-1.468-1.52-.536-.076-.715-.178-1.175-.702-.932-1.021-2.285-1.277-3.868-.702zM7.27 7.561c.14.945.843 1.966 1.839 2.732.242.192.217.205-.32.128-.778-.115-1.391-.306-1.864-.587L6.53 9.59l-.357.383c-.192.204-.524.434-.715.498-.37.128-.37.128-.37-.409-.013-.293-.09-.676-.192-.855-.102-.179-.179-.536-.191-.792 0-.574.23-.766 1.315-1.047.421-.102.791-.217.83-.268.166-.153.344.039.421.46z" fill="#fff"/><path d="M14.13 8.32c.191.383-.064.702-.384.638a.786.786 0 01-.255-.128c-.587-.518.424-1.267.958-1.149 0 0-.511.256-.32.639z" fill="#BF2E1B"/></svg>