<!-- by TradingView --><svg width="18" height="18" xmlns="http://www.w3.org/2000/svg"><path fill="#005E98" d="M0 0h18v18H0z"/><path d="M11.27 6.545l-.281-.777a3.15 3.15 0 00-.242-.582c.685.097 1.234.26 1.474.5.312.309.53.904.66 1.62a3.918 3.918 0 00-.705-.326l-.761-.288a.247.247 0 01-.144-.147zM12.87 10.86c-.206.13-.438.242-.694.33l-.761.287a.247.247 0 00-.144.147l-.282.777a2.59 2.59 0 01-.318.664c.679-.134 1.244-.348 1.55-.634.298-.278.515-.858.649-1.57zM7.215 13.087a2.655 2.655 0 01-.35-.686l-.28-.777a.247.247 0 00-.145-.147l-.761-.288a2.681 2.681 0 01-.705-.315c.131.66.357 1.22.695 1.557.314.31.875.527 1.546.656zM5.011 7.316c.148-.745.377-1.351.658-1.63.21-.21.741-.369 1.417-.472-.086.168-.16.352-.22.554l-.282.777a.247.247 0 01-.144.147l-.761.288c-.25.089-.473.203-.668.336z" fill="#fff"/><path d="M9.735 6.204l.009.027.281.777c.158.436.496.782.927.945l.761.288.015.005c.642.21.833.568.828.823-.005.267-.224.634-.837.853h0l-.006.003-.76.287c-.432.163-.77.51-.928.945l-.281.777a.364.364 0 00-.007.022c-.145.498-.487.697-.79.697-.307 0-.665-.203-.833-.71h0l-.003-.009-.281-.777a1.584 1.584 0 00-.927-.945l-.761-.287a.35.35 0 00-.044-.014c-.566-.133-.771-.48-.771-.772 0-.304.22-.694.805-.895h0l.01-.003.76-.288c.432-.163.77-.51.928-.945l.281-.777a.35.35 0 00.01-.032c.164-.64.53-.851.797-.851.268 0 .641.214.817.856zm2.562.445l-.713-.27-.263-.725c-.4-1.295-1.375-2.004-2.403-2.004-1.029 0-1.998.71-2.385 2.006l-.262.724-.713.269c-1.246.446-1.908 1.46-1.908 2.49 0 1.03.665 2.012 1.918 2.38l.703.266.265.731c.414 1.202 1.404 1.834 2.41 1.834 1.008 0 1.986-.633 2.374-1.837l.264-.728.711-.268c1.204-.416 1.987-1.334 2.05-2.348.066-1.04-.631-2.016-2.049-2.52z" fill="#fff" stroke="#005E98" stroke-width=".7" stroke-linejoin="round"/></svg>