<!-- by TradingView --><svg width="18" height="18" viewBox="0 0 18 18" xmlns="http://www.w3.org/2000/svg"><path fill="#EE4049" d="M0 0h18v18H0z"/><path d="M4.39 9.21a94.75 94.75 0 0 1 .73 0 125.02 125.02 0 0 0-.65 3.73l-.03.66c0 .1.03.2.09.3.09.15.36.12.45 0 .02-.02.05-.12.1-.29a135.17 135.17 0 0 0 1.07-4.53l.02-.01a.3.3 0 0 1 .1-.02l.18-.02c.52-.06 1.13-.12 1.61-.2l1.54-.21a11.98 11.98 0 0 1 .3-.02 95.78 95.78 0 0 0-.38 2.81c-.01.28 0 .6.02.93.03.6.4 1.3 1.05 1.44.38.07.67-.07.97-.29l.94-.7c.13-.1.22-.18.16-.34-.02-.06-.06-.1-.13-.11-.1-.03-.24.05-.31.1-.28.19-.57.36-.85.5a.9.9 0 0 1-.65.09c-.33-.09-.4-.57-.42-.84-.03-.29-.02-.6.01-.93a34.45 34.45 0 0 1 .42-2.65c.02-.14.03-.2.18-.25l.1-.03c.3-.08.65-.17.9-.3.42-.22.74-.54.96-.96.1-.18.16-.39.16-.6l-.01-.64a2.5 2.5 0 0 0-.57-1.45.52.52 0 0 0-.37-.18c-.36 0-.67.26-.86.54l-.18.31c-.1.2-.18.38-.24.55-.27.77-.48 1.4-.63 1.9-.05.16-.17.26-.36.3a82.24 82.24 0 0 1-.68.11l-.4.08a26.65 26.65 0 0 1-2.42.35.03.03 0 0 1 0-.02v-.07L7 4.51v-.03c.03-.15.07-.32-.08-.43-.15-.12-.34-.01-.4.16a56.94 56.94 0 0 0-1.24 4.3h-.02l-1.08.2h-.03c-.09.04-.14.11-.14.2-.01.25.17.3.39.3Zm6.6-1.73a17.89 17.89 0 0 1 .99-2.25.24.24 0 0 1 .08-.08.06.06 0 0 1 .08.01l.1.14c.17.35.15.74.06 1.12-.14.59-.55.88-1.11 1.05a.75.75 0 0 1-.18.02H11Zm2.95 4.89c.08-.18.08-.35-.01-.5a.12.12 0 0 0-.04-.03c-.4-.29-.74.31-.41.6.16.14.36.15.46-.07Z" fill="#fff"/></svg>