<!-- by TradingView --><svg width="18" height="18" viewBox="0 0 18 18" xmlns="http://www.w3.org/2000/svg"><path fill="#F0F3FA" d="M0 0h18v18H0z"/><path d="M8.68 14.02h.23v.5h-.23L7.9 15c-.6-.69-.25-1.3 0-1.51l.78.53Z" fill="url(#ap0lao03e)"/><path d="M9.36 14.02h-.22v.5h.22l.79.48c.6-.69.24-1.3 0-1.51l-.79.53Z" fill="url(#bp0lao03e)"/><path fill="#3799CD" d="M8.61 14.02h.77v.5h-.77z"/><path d="M6.01 4.19c-.09 1.06.37 1.69.62 1.87l.9-.83A1.62 1.62 0 0 0 6 4.19Z" fill="url(#cp0lao03e)"/><path d="M11.99 4.19c.09 1.06-.37 1.69-.62 1.87l-.9-.83A1.62 1.62 0 0 1 12 4.19Z" fill="url(#dp0lao03e)"/><path d="m6.27 6.88-.2 4.46h5.88l-.15-4.36C11.57 5.64 10.7 5.1 10.29 5l-2.7.07c-.9.38-1.25 1.37-1.32 1.81Z" fill="#38A6D7"/><path d="M7.52 5.3c-.06-.8.64-1.2 1-1.3-.21.3-.29.61-.3.74.84-.6 1.55-.63 1.8-.58-.33.18-.56.46-.64.58.27-.16 1.1-.35 1.06.56-.03.73-.86 1.02-1.27 1.07.15-.1.5-.36.62-.6.16-.3-.16-.24-.72.12-.56.37-1.48.42-1.55-.59Z" fill="url(#ep0lao03e)"/><ellipse cx="7.58" cy="8.51" rx=".49" ry=".57" fill="#251F1F"/><ellipse cx="7.72" cy="8.39" rx=".19" ry=".22" fill="#fff"/><ellipse cx="10.44" cy="8.51" rx=".49" ry=".57" fill="#251F1F"/><ellipse cx="10.57" cy="8.39" rx=".19" ry=".22" fill="#fff"/><ellipse cx="9.01" cy="11.38" rx="2.95" ry="2.11" fill="url(#fp0lao03e)"/><path d="m11 11.57-.06-.07.08-.1.24.24-.08.1-.08-.09a3.2 3.2 0 0 1-4.15.13l-.07.09-.1-.08.23-.28.1.08-.08.1a3.08 3.08 0 0 0 3.98-.12Z" fill="#052A70"/><defs><linearGradient id="ap0lao03e" x1="7.57" y1="14.24" x2="8.91" y2="14.24" gradientUnits="userSpaceOnUse"><stop stop-color="#273758"/><stop offset="1" stop-color="#184892"/></linearGradient><linearGradient id="bp0lao03e" x1="10.47" y1="14.24" x2="9.14" y2="14.24" gradientUnits="userSpaceOnUse"><stop stop-color="#273758"/><stop offset="1" stop-color="#184892"/></linearGradient><linearGradient id="cp0lao03e" x1="6.76" y1="4.19" x2="6.76" y2="6.06" gradientUnits="userSpaceOnUse"><stop stop-color="#4285B2"/><stop offset="1" stop-color="#1B56A0"/></linearGradient><linearGradient id="dp0lao03e" x1="11.24" y1="4.19" x2="11.24" y2="6.06" gradientUnits="userSpaceOnUse"><stop stop-color="#4285B2"/><stop offset="1" stop-color="#1B56A0"/></linearGradient><linearGradient id="ep0lao03e" x1="8.98" y1="4" x2="8.98" y2="6.37" gradientUnits="userSpaceOnUse"><stop stop-color="#E9AB22"/><stop offset="1" stop-color="#C98E0E"/></linearGradient><linearGradient id="fp0lao03e" x1="9.01" y1="9.28" x2="9.01" y2="13.49" gradientUnits="userSpaceOnUse"><stop stop-color="#1A51A3"/><stop offset="1" stop-color="#15306A"/></linearGradient></defs></svg>