<!-- by TradingView --><svg xmlns="http://www.w3.org/2000/svg" width="18" height="18" viewBox="0 0 18 18"><path fill="url(#ak05wuzht)" d="M0 0h18v18H0z"/><path d="M15 6.3s-1.15-.86-4.63-.86c-3.28 0-5.87.81-5.87 2.54 0 1.27 1.75 1.87 2.1 2.02C5.27 10 3 9.07 3 7.66c0-2 3.54-3.16 6.38-3.16 3.4 0 5.62 1.8 5.62 1.8Z" fill="#E43B34"/><path d="M8 13H7V7h1v3h3V7h1v6h-1v-1.98H8V13Z" fill="#fff"/><defs><linearGradient id="ak05wuzht" x1="3.35" y1="3.12" x2="21.9" y2="24.43" gradientUnits="userSpaceOnUse"><stop stop-color="#1A1E21"/><stop offset="1" stop-color="#06060A"/></linearGradient></defs></svg>