<!-- by TradingView --><svg width="18" height="18" viewBox="0 0 18 18" xmlns="http://www.w3.org/2000/svg"><path fill="url(#arzieqolw)" d="M0 0h18v18H0z"/><path d="M8.7 10.6v.78C6.28 11.5 6 10.45 6 9.75V8.8c0-.5 0-1.38.44-1.73.55-.44 1.7-.47 2.26-.44v.8c-1.22-.13-1.71.52-1.7.87v1.46c-.02.75 1.2.88 1.7.85ZM9.3 10.6v.78c2.42.12 2.7-.93 2.7-1.63V8.8c0-.5 0-1.38-.44-1.73-.55-.44-1.7-.47-2.26-.44v.8c1.22-.13 1.71.52 1.7.87v1.46c.02.75-1.2.88-1.7.85Z" fill="#fff"/><path d="M8 8.56c0-.3.23-.56.52-.56h.96c.29 0 .52.25.52.56v.88c0 .3-.23.56-.52.56h-.96C8.23 10 8 9.75 8 9.44v-.88Z" fill="#00B6E6"/><path fill-rule="evenodd" d="M9 14A5 5 0 1 0 9 4a5 5 0 0 0 0 10Zm0 1A6 6 0 1 0 9 3a6 6 0 0 0 0 12Z" fill="#00B6E6"/><defs><linearGradient id="arzieqolw" x1="3.35" y1="3.12" x2="21.9" y2="24.43" gradientUnits="userSpaceOnUse"><stop stop-color="#1A1E21"/><stop offset="1" stop-color="#06060A"/></linearGradient></defs></svg>