<!-- by TradingView --><svg width="18" height="18" viewBox="0 0 18 18" xmlns="http://www.w3.org/2000/svg"><path fill="#F0F3FA" d="M0 0h18v18H0z"/><path fill-rule="evenodd" d="M6.56 14h4.88A2.56 2.56 0 0 0 14 11.44V6.56A2.56 2.56 0 0 0 11.44 4H6.56A2.56 2.56 0 0 0 4 6.56v4.88A2.56 2.56 0 0 0 6.56 14Zm5.5-7.67a1.3 1.3 0 0 0-.9-.33h-1.6c-.34 0-.57.1-.81.33-.25.22-.37.53-.38.86v1.5h1.26V7H11v4h-.75v1.44h.9c.34 0 .67-.13.91-.36.24-.23.38-.54.38-.86V7.2c0-.33-.14-.64-.38-.86ZM7.75 7V5.56h-.9c-.34 0-.67.13-.91.36-.24.23-.38.54-.38.86v4.01c0 .33.14.64.38.86.24.23.57.35.9.35h1.4c.35 0 .67-.12.91-.35.25-.22.47-.53.47-.86V9.31H8.38V11H7V7h.75Z" fill="#00558C"/></svg>