<!-- by TradingView --><svg width="18" height="18" viewBox="0 0 18 18" xmlns="http://www.w3.org/2000/svg"><path fill="#181B1E" d="M0 0h18v18H0z"/><path d="M16 8.37h-.67c-.07-.48-.38-.74-.76-.74-.64 0-.9.66-.9 1.35 0 .7.25 1.39.9 1.39.37 0 .69-.25.76-.72H16c-.1.86-.76 1.35-1.44 1.35-.95 0-1.56-.9-1.56-2s.6-2 1.56-2c.7 0 1.34.5 1.44 1.37ZM9 7h.85L11 9.9 12.15 7H13v4h-.73V8.4l-1.02 2.59h-.5l-1.02-2.6V11H9V7ZM5.86 7 7 10.13 8.14 7H9l-1.52 4h-.96L5 7h.86ZM2 11V7h.75v1.6h1.5V7H5v4h-.75V9.4h-1.5V11H2Z" fill="#fff"/></svg>