<!-- by TradingView --><svg width="18" height="18" viewBox="0 0 18 18" xmlns="http://www.w3.org/2000/svg"><path fill="#4C5164" d="M0 0h18v18H0z"/><path d="M11 4.57v8.87c0 .1-.06.22-.11.31a.64.64 0 0 1-.21.25h2.62a.59.59 0 0 1-.2-.24c-.05-.1-.11-.21-.1-.32V4.58c-.01-.11.04-.22.1-.33.04-.1.1-.18.2-.25h-2.62c.09.07.16.15.2.25.06.1.13.2.12.32ZM4.7 14h2.6a.62.62 0 0 1-.22-.24.61.61 0 0 1-.08-.32V10h2.94l.8-2H7V4.56a.61.61 0 0 1 .08-.32c.05-.1.12-.18.21-.24H4.7c.18.13.32.34.3.56v8.88c.02.22-.12.43-.3.56Z" fill="#fff"/></svg>