<!-- by TradingView --><svg width="18" height="18" viewBox="0 0 18 18" xmlns="http://www.w3.org/2000/svg"><path fill="#063C82" d="M0 0h18v18H0z"/><path d="M14.22 4.17c.17-.09.36-.15.55-.17.07 0 .14 0 .2.02.03.02.04.06.03.09a90.77 90.77 0 0 0-1.84 2.45c-.09.12-.18.23-.25.35l-.54.8-.25.4c-.18.29-.34.58-.51.88l-1.05 1.83-.5.85c-.04.07-.09.12-.12.19a46.54 46.54 0 0 0-.86 1.87l-.1.27h-.87c.06-.16.14-.31.22-.47l.2-.4L10 10.39c.16-.3.32-.62.5-.92.03-.08.06-.15.07-.23.01-.06.01-.12-.04-.17a.28.28 0 0 0-.16-.06h-1.5l-.29.02-.49.03c-.15 0-.3.02-.45.04a8 8 0 0 0-.32.04c-.05 0-.1.03-.12.06-.03.05-.08.08-.1.12l-.57.77-.42.58a10.16 10.16 0 0 0-.72 1.2c-.02.02-.06.03-.1.04-.28.07-.57.12-.86.18-.08.02-.15.05-.23.06-.06 0-.12.01-.17-.02-.03-.02-.01-.05 0-.07.05-.08.1-.15.17-.22l.14-.16.4-.47.57-.72.5-.64.63-.8L7 8.2l.1-.17.54-.84.2-.31.07-.15c.04-.1.09-.2.11-.3.02-.06.01-.12-.04-.17l-.26-.02-1.16.05c-.04 0-.08 0-.11-.03-.04-.04-.05-.1-.04-.14.01-.07.07-.12.13-.15a.46.46 0 0 1 .18-.04l.9-.03.48-.02.55-.02.6-.03c.05 0 .11.02.14.05l.06.08c0 .06-.03.13-.06.18l-.33.43-.29.38-.2.3-.37.53-.52.82-.05.05c.57.04.88.04 1.32.04.65-.01 1.3-.09 1.96-.14.06-.01.13-.05.17-.09l.05-.07 1.04-1.63a38.83 38.83 0 0 1 1.21-1.79l.3-.39c.1-.11.22-.23.36-.31l.19-.1Z" fill="#DB9E2F"/></svg>