<!-- by TradingView --><svg width="18" height="18" fill="none" xmlns="http://www.w3.org/2000/svg"><path fill="#F0F3FA" d="M0 0h18v18H0z"/><path d="M10 12.01v-2.007H8v2.007H6.277a.308.308 0 01-.215-.091c-.056-.057-.062-.134-.062-.215V9.357H4v3.34c0 .346.138.677.383.921.245.245.578.382.925.382h7.384c.347 0 .68-.137.925-.382a1.3 1.3 0 00.383-.92v-3.34h-2v2.346c0 .081-.005.16-.062.216a.308.308 0 01-.217.09H10z" fill="#231F20"/><path d="M8 7.997V5.99H6.27a.306.306 0 00-.216.09c-.057.057-.054.135-.054.216v2.347H4V5.302A1.302 1.302 0 015.302 4h7.352C13.326 4 14 4.605 14 5.302v3.34h-2V6.297a.315.315 0 00-.098-.217.306.306 0 00-.216-.09H10v2.008H8z" fill="#00ABC8"/></svg>