<!-- by TradingView --><svg width="18" height="18" viewBox="0 0 18 18" xmlns="http://www.w3.org/2000/svg"><path fill="#F0F3FA" d="M0 0h18v18H0z"/><path d="M8.76 4a5 5 0 0 0-4.5 3.96c1.02-.62 6.36-2.12 6.03-3.18-.2-.67-1.1-.8-1.53-.78Z" fill="url(#au2nozupm)"/><path d="M12.1 5.84c.07-1-1.21-1.55-1.86-1.7 2.15 1.58-4.68 3.45-5.68 4-.8.44-.45 1.6-.2 2.11a8.86 8.86 0 0 1 2.67-1.14c4.14-1.48 4.96-2.03 5.06-3.27Z" fill="url(#bu2nozupm)"/><path d="M2 11.33C2 10.45 3.27 9.41 3.9 9c-.05.42-.09 1.3.21 1.43.38.16.92.2 4.5-1.43 3.56-1.63 3.99-2.39 4.35-2.87.29-.39-.26-.16-.57 0v-.8c2.3-.62 3.03.09 3.11.52-.15 2.47-6.4 5.14-8.93 5.79-2.52.65-4.57.8-4.57-.3Z" fill="url(#cu2nozupm)"/><path d="M12.64 11.2c1.48-1.08 1.48-2.25 1.3-2.7-2.06 1.9-6.5 3.45-8.47 3.98.04.06.24.28.74.71.61.54 4.59-.64 6.43-2Z" fill="url(#du2nozupm)"/><path d="M13.4 11.03c-1.5 1.54-4.58 2.4-5.92 2.64.6.27 1.33.33 1.62.33 3.13-.28 4.17-2.1 4.3-2.97Z" fill="url(#eu2nozupm)"/><defs><linearGradient id="au2nozupm" x1="15.07" y1="6.25" x2="1.95" y2="11.84" gradientUnits="userSpaceOnUse"><stop stop-color="#008EC8"/><stop offset=".52" stop-color="#9AE4FF"/><stop offset="1" stop-color="#0696D3"/></linearGradient><linearGradient id="bu2nozupm" x1="15.07" y1="6.25" x2="1.95" y2="11.84" gradientUnits="userSpaceOnUse"><stop stop-color="#008EC8"/><stop offset=".52" stop-color="#9AE4FF"/><stop offset="1" stop-color="#0696D3"/></linearGradient><linearGradient id="cu2nozupm" x1="15.07" y1="6.25" x2="1.95" y2="11.84" gradientUnits="userSpaceOnUse"><stop stop-color="#008EC8"/><stop offset=".52" stop-color="#9AE4FF"/><stop offset="1" stop-color="#0696D3"/></linearGradient><linearGradient id="du2nozupm" x1="15.07" y1="6.25" x2="1.95" y2="11.84" gradientUnits="userSpaceOnUse"><stop stop-color="#008EC8"/><stop offset=".52" stop-color="#9AE4FF"/><stop offset="1" stop-color="#0696D3"/></linearGradient><linearGradient id="eu2nozupm" x1="15.07" y1="6.25" x2="1.95" y2="11.84" gradientUnits="userSpaceOnUse"><stop stop-color="#008EC8"/><stop offset=".52" stop-color="#9AE4FF"/><stop offset="1" stop-color="#0696D3"/></linearGradient></defs></svg>