<!-- by TradingView --><svg xmlns="http://www.w3.org/2000/svg" width="18" height="18" viewBox="0 0 18 18"><path fill="#00703C" d="M0 0h18v18H0z"/><path d="M8.5 4.4c-.2.1-.4.04-.5-.02a.03.03 0 0 1 0-.05c.17-.16.42-.09.5.02v.04Z" fill="#fff"/><path d="M7.7 4.43h.19c.12.13.2.16.37.16.16 0 .3-.04.43-.13h.2l1.2-.44c.07-.03.24-.05.34.09.11.17.14.35.14.43 0 .07 0 .36-.3.5-.03 0-.06.03-.44 0L8.6 4.85c-.08.06-.2.17-.45.17-.2 0-.36-.16-.4-.24h-.14c-.3.1-.74.32-1.08.32-.14 0-.55-.12-.46-.68.07-.45.57-.4.81-.3l.81.3ZM8.39 5.13a4.1 4.1 0 0 0-.46 0c.01.13.06.24.23.26.15 0 .2-.14.23-.26Z" fill="#fff"/><path d="M7.67 5.16c-.31.04-.5.13-.51.23 0 .15.46.28 1.09.29.62 0 1.1-.1 1.1-.25 0-.12-.32-.24-.77-.28-.03.23-.14.4-.39.4-.26 0-.41-.17-.52-.39ZM7.35 5.68c-.1-.05-.27-.08-.3 0-.04.1.14.17.21.2.14.07.26.04.26-.01.01-.06-.07-.13-.17-.19ZM7.68 5.93c.07.06.28.07.37.07.33 0 .4-.04.43-.12.02-.06-.06-.1-.1-.09-.11.01-.36.02-.51 0-.19-.02-.27.07-.19.14ZM8.63 5.92c.02.05.12.05.23.04.1-.01.23-.03.33-.06.1-.02.2-.07.16-.13-.03-.04-.14-.05-.25-.04-.1.01-.53.05-.47.19ZM11.45 9.74c-.51.02-.93-.17-1-.28-.05-.07-.02-.14.03-.2.03-.03.04-.03.08 0 .38.2 1.15.38 1.85-.15.08-.06.1.07.09.17 0 .04-.01.06-.04.09-.18.2-.54.35-1.01.37ZM5.67 5.97c.05-.1-.04-.1-.17-.01-.11.07-.23.19-.32.28-.1.1-.03.16.08.1.18-.1.36-.28.4-.37ZM5.55 8.12c.1.05.1-.03 0-.16-.08-.1-.2-.22-.3-.3-.11-.1-.16-.03-.1.08.1.17.3.34.4.38Z" fill="#fff"/><path fill-rule="evenodd" d="M7.9 6.15a1.6 1.6 0 0 1-.74-.17s-.04-.02-.08.04a.7.7 0 0 1-.34.28.62.62 0 0 1-.28.01c-.03 0-.02-.07 0-.07a.72.72 0 0 0 .28-.17.53.53 0 0 0-.7-.19c-.17.1-.35.28-.47.42l-.02.01c-.08.09-.15.17-.15.3v.83a.12.12 0 0 1-.12-.12v-.71c0-.07-.28-.1-.28 0v.82c0 .07.09.08.17.1l.08.01c.15.06.32.28.5.49.16.21.35.21.36.21h.4c.18 0 .17-.15.1-.25-.05-.08-.17-.07-.24-.06h-.05c-.06 0-.06-.07-.02-.08.04-.02.27-.01.37 0 .1 0 .29.14.65.44a1.55 1.55 0 0 0 1.03.33c.17 0 .42-.01.9-.19.42-.15.82-.15.96-.13.54.06.62.5.59.7-.02.04-.08.03-.1 0-.07-.08-.13-.03-.16.03-.03.03-.04.05 0 .07.9.61 1.83-.02 1.87-.1.03-.05-.02-.14-.04-.18-.04-.04-.05.02-.05.06-.07.05-.08-.03-.08-.09.02-.44 0-.88-.39-1.27-.3-.32-.94-.42-1.21-.42-.35-.07-.61-.25-.72-.38l-.56-.66c-.28.05-1.01.12-1.46.1ZM6.88 7.6c.08.04.27.12.36.22.74.75 1.34.62 2.11.45a12.57 12.57 0 0 1 .49-.1c.32-.06.59-.11.85.11.2.19.27.4.27.68 0 .04.02.1.09.04.1-.08.05-.23 0-.36-.05-.13-.26-.62-.64-.65-.28-.02-.7.06-1.1.13-.33.06-.64.12-.85.12-.4 0-.8-.2-1.1-.46-.53-.43-.55-.2-.48-.18ZM10.3 10.85c.43-.3.88-.78 1.04-1.01h.25a2.15 2.15 0 0 0 0 1.38c.07.22.18.45.29.7l.2.44c.7 1.75-.45 2.94-2.3 2.57-1.4-.27-1.58-1.38-1.49-1.9.1-.98 1.02-1.56 1.66-1.95l.36-.23Zm-1.15 2.89c-.27.02-.35-.36-.35-.55-.03-.74.5-1.3.8-1.53.08-.05.18-.07.1.05-.4.41-.54.7-.6.89-.07.27 0 .53.13.78.12.23 0 .34-.08.36Zm.43-1.2c.03-.02.1-.04.08.02l-.01.05c-.03.1-.1.33-.03.5.11.21-.21.26-.27 0-.05-.26.12-.48.23-.57Z" fill="#fff"/></svg>