<!-- by TradingView --><svg width="18" height="18" viewBox="0 0 18 18" xmlns="http://www.w3.org/2000/svg"><path fill="#F0F3FA" d="M0 0h18v18H0z"/><path d="M13 5.67v-.15c-.06-.33-.31-.56-.57-.5-.26.02-.43.32-.43.65v1.25C12 7 12 7 11.94 7H6.06C6.02 7 6 6.98 6 6.92V5.67c0-.36-.2-.66-.47-.67h-.02c-.28-.01-.51.28-.51.65V12.34c0 .42.33.75.64.64.23-.08.36-.31.36-.62v-2.25c0-.08 0-.08.06-.08l5.88-.03c.06 0 .06 0 .06.08v2.36c.06.37.3.6.58.55.24-.06.42-.34.42-.66V5.67ZM11.95 9H6.06C6.02 9 6 8.99 6 8.93v-.86c0-.06.02-.07.06-.07h5.88C12 8 12 8 12 8.08v.85c0 .06-.02.07-.06.07ZM13 5.67l-.02-.15c-.05-.33-.3-.56-.56-.5-.26.02-.43.32-.43.65v1.25C12 7 12 7 11.94 7H6.06C6.02 7 6 6.98 6 6.92V5.67c0-.36-.2-.66-.47-.67h-.02c-.28-.01-.51.28-.51.65V12.34c0 .42.33.75.64.64.23-.08.36-.31.36-.62v-2.25c0-.08 0-.08.06-.08l5.88-.03c.06 0 .06 0 .06.08v2.36c.06.37.3.6.58.55.24-.06.42-.34.42-.66V5.67ZM11.94 9H6.06C6.02 9 6 8.99 6 8.93v-.86c0-.06.02-.07.06-.07h5.88C12 8 12 8 12 8.08v.85c0 .06-.02.07-.06.07ZM13 5.67l-.02-.15c-.05-.33-.3-.56-.56-.5-.26.02-.43.32-.43.65v1.25C12 7 12 7 11.94 7H6.06C6.02 7 6 6.98 6 6.92V5.67c0-.36-.2-.66-.47-.67h-.02c-.28-.01-.51.28-.51.65V12.34c0 .42.33.75.64.64.23-.08.36-.31.36-.62v-2.25c0-.08 0-.08.06-.08l5.88-.03c.06 0 .06 0 .06.08v2.36c.06.37.3.6.58.55.24-.06.42-.34.42-.66V5.67ZM11.94 9H6.06C6.02 9 6 8.99 6 8.93v-.86c0-.06.02-.07.06-.07h5.88C12 8 12 8 12 8.08v.85c0 .06-.02.07-.06.07ZM13 5.67l-.02-.15c-.05-.33-.3-.56-.56-.5-.26.02-.43.32-.43.65v1.25C12 7 12 7 11.94 7H6.06C6.02 7 6 6.98 6 6.92V5.67c0-.36-.2-.66-.47-.67h-.02c-.28-.01-.51.28-.51.65V12.34c0 .42.33.75.64.64.23-.08.36-.31.36-.62v-2.25c0-.08 0-.08.06-.08l5.88-.03c.06 0 .06 0 .06.08v2.36c.06.37.3.6.58.55.24-.06.42-.34.42-.66V5.67ZM11.94 9H6.06C6.02 9 6 8.99 6 8.93v-.86c0-.06.02-.07.06-.07h5.88C12 8 12 8 12 8.08v.85c0 .06-.02.07-.06.07ZM13 5.67l-.02-.15c-.05-.33-.3-.56-.56-.5-.26.02-.43.32-.43.65v1.25C12 7 12 7 11.94 7H6.06C6.02 7 6 6.98 6 6.92V5.67c0-.36-.2-.66-.47-.67h-.02c-.28-.01-.51.28-.51.65V12.34c0 .42.33.75.64.64.23-.08.36-.31.36-.62v-2.25c0-.08 0-.08.06-.08l5.88-.03c.06 0 .06 0 .06.08v2.36c.06.37.3.6.58.55.24-.06.42-.34.42-.66V5.67ZM11.94 9H6.06C6.02 9 6 8.99 6 8.93v-.86c0-.06.02-.07.06-.07h5.88C12 8 12 8 12 8.08v.85c0 .06-.02.07-.06.07Z" fill="url(#abdpibx5y)"/><defs><linearGradient id="abdpibx5y" x1="5" y1="8.47" x2="13.29" y2="8.47" gradientUnits="userSpaceOnUse"><stop stop-color="#333570"/><stop offset="1" stop-color="#5C3469"/></linearGradient></defs></svg>