<!-- by TradingView --><svg xmlns="http://www.w3.org/2000/svg" width="18" height="18"><path fill="#F0F3FA" d="M0 0h18v18H0z"/><path d="M4.34 7.08c0-.77.68-.97 1.16-.97.82 0 1.17.37 1.17.89H7.7c0-1.37-1-2-2.19-2-1.1 0-2.19.77-2.19 2.24 0 1.3.9 1.67 1.9 1.94l.26.07c.69.17 1.53.38 1.53 1.42 0 1.07-.91 1.24-1.4 1.24-.5 0-1.6-.26-1.6-1.46H3C3 12.25 4.22 13 5.57 13 6.77 13 8 12.23 8 10.67 8 8.75 6.44 8.27 5.34 8l-.17-.04c-.44-.1-.83-.2-.83-.88zM11 8.5V5h-1v8h1V9.5h3V13h1V5h-1v3.5h-3z"/><path d="M9 12.3L8.53 10l-1.03.5.5-1.03L5.7 9 8 8.5l-.5-1 1.03.5L9 5.7 9.5 8l1-.5-.5 1 2.3.5-2.3.47.5 1.03-1-.5-.5 2.3z" fill="#F8BF39"/></svg>