<!-- by TradingView --><svg xmlns="http://www.w3.org/2000/svg" width="18" height="18" viewBox="0 0 18 18"><path fill="url(#agsqjm3tk)" d="M0 0h18v18H0z"/><path d="M12 6.44v-.27-.53c0-.48.1-.64.38-.64h.25c.25 0 .36.15.36.55v1.9c0 .4-.11.54-.36.55h-.28c-.22 0-.33-.16-.34-.53v-.71-.32zM8.43 9h3.95c.37 0 .6.23.62.58v2.88c0 .24-.06.54-.41.54h-.2c-.28-.01-.38-.24-.39-.5v-2.16c0-.22-.05-.34-.37-.34h-5.3c-.15 0-.33.02-.33.2v2.3c0 .27-.12.5-.42.5h-.14c-.38 0-.44-.21-.44-.59V9.5c0-.36.21-.49.6-.5h.86L8.43 9zM5 6.17v.27a41.24 41.24 0 0 1 0 1.03c.02.37.13.52.35.53h.28c.25 0 .36-.16.36-.55v-1.9c0-.4-.11-.55-.36-.55h-.25c-.28 0-.37.16-.38.64v.53z" fill="#fff"/><defs><linearGradient id="agsqjm3tk" x1="3.35" y1="3.12" x2="21.9" y2="24.43" gradientUnits="userSpaceOnUse"><stop stop-color="#1A1E21"/><stop offset="1" stop-color="#06060A"/></linearGradient></defs></svg>