<!-- by TradingView --><svg xmlns="http://www.w3.org/2000/svg" width="18" height="18" viewBox="0 0 18 18"><path fill="#F0F3FA" d="M0 0h18v18H0z"/><path d="M2.56 8h1.07l-.56 4H2l.56-4ZM3.24 7.32c.36 0 .65-.3.65-.66C3.9 6.3 3.6 6 3.24 6c-.36 0-.66.3-.66.66 0 .37.3.66.66.66ZM7.53 12h1.1L7.25 6.38h-.97L3.4 12h1.1l.76-1.5h1.9l.37 1.5Zm-1.7-2.62L6.55 8l.32 1.37H5.83Z" fill="#003DA5"/><path d="M15.02 6a.9.9 0 0 1 .42.1 1 1 0 0 1 .34.3 1.24 1.24 0 0 1 .2.91l-.44 3.36a.2.2 0 0 0 0 .03c0 .05.02.1.05.13.03.04.07.04.11.04h.17v.76h-.46a.6.6 0 0 1-.26-.06.65.65 0 0 1-.2-.16.81.81 0 0 1-.2-.52V9h-.84c-.64 0-1.06-.75-.96-1.4l.22-1.6h1.85Z" fill="#7C878E"/><path d="M12.75 6.38h-1.4c-.98 0-1.79.85-1.9 1.95L8.94 12h.85l.36-1.5H13V12h.81l.25-2.62h-.15c-.83 0-1.43-.96-1.32-1.8l.16-1.2Z" fill="#7C878E"/><path d="M10.18 12h.8l.4-1h-.94l-.26 1Z" fill="#7C878E"/></svg>