<!-- by TradingView --><svg width="18" height="18" viewBox="0 0 18 18" xmlns="http://www.w3.org/2000/svg"><path fill="#003249" d="M0 0h18v18H0z"/><path d="M5.5 10H4v2h1.5v-2Z" fill="#FF574A"/><path d="M5.3 6H4.2c-.11 0-.2.1-.2.22V10h1.5V6.22c0-.12-.09-.22-.2-.22Z" fill="#fff"/><path d="M13.74 10.28a.69.69 0 0 1-.2.35.79.79 0 0 1-.5.21H13a.8.8 0 0 1-.5-.17.7.7 0 0 1-.25-.39H11A1.97 1.97 0 0 0 13 12c1.04 0 1.91-.75 2-1.71h-1.26Z" fill="#FF574A"/><path d="M14.56 8.97a2.02 2.02 0 0 0-1.1-.65s-.57-.12-.7-.16a.52.52 0 0 1-.4-.5c0-.28.25-.5.55-.5.26 0 .49.17.54.4.01.07.05.12.11.16.06.03.13.05.2.03l.7-.13a.25.25 0 0 0 .17-.1c.03-.05.05-.12.03-.18A1.77 1.77 0 0 0 12.91 6c-.99 0-1.79.75-1.79 1.67 0 .76.54 1.43 1.32 1.6 0 0 .38.1.74.17.16.04.31.13.42.25a.68.68 0 0 1 .15.55v.04h1.24v-.03l.01-.12c0-.42-.15-.83-.44-1.16Z" fill="#fff"/><path d="M6 12h1.23l.56-1.68H6.56L6 12ZM10.44 10.32h-1.2L9.79 12H11l-.56-1.68Z" fill="#FF574A"/><path d="M8.63 6h-.26c-.22 0-.42.17-.51.43l-1.3 3.9H7.8l.71-2.16.38 1.01c-.22 0-.3.1-.38.31l-.27.83h2.21l-1.3-3.89c-.08-.26-.28-.43-.5-.43Z" fill="#fff"/></svg>