<!-- by TradingView --><svg width="18" height="18" xmlns="http://www.w3.org/2000/svg"><path fill="#F37B24" d="M0 0h18v18H0z"/><path d="M9 14c-3.896.052-4.987 1.025-4.987 1.025-.007 0-.013-.014-.013-.033 0-.017.004-.033.01-.036 1.61-1.443 3.322-1.954 4.99-1.954 1.668 0 3.38.512 4.992 1.955.005.005.008.02.008.035 0 .009 0 .021-.008.033.003 0-.002.006 0 0 0 0-1.096-1.077-4.992-1.025zM10.493 7.71S12 8.25 12 9.93c0 1.706-1.73 2.072-2.762 2.072L6.302 12c-.169-.003-.304-.252-.302-.452V4.383c0-.198.11-.38.278-.383l2.687.001h.604s2.193-.045 2.193 1.9c0 1.392-1.175 1.65-1.566 1.758 0-.005.134.02.297.05zM7.921 5.553V6.71c-.002.2.129.287.298.291h.223c.2-.004.402-.017.6-.058 0 0 .676-.07.676-.802s-.318-.95-.963-.95h-.522c-.168.003-.312.164-.312.363zm1.285 5.11s.636-.17.636-.951c0-.778-.237-1.015-.933-1.015h-.69c-.169.002-.304.166-.303.366v1.305c0 .199.135.36.303.363h.387a3.28 3.28 0 00.6-.067z" fill="#fff"/></svg>