<!-- by TradingView --><svg width="18" height="18" xmlns="http://www.w3.org/2000/svg"><path fill="url(#paint0_linear)" d="M0 0h18v18H0z"/><path d="M7.752 4C7.53 7.082 4.049 6.873 4 9.809c-.007.43.158 1.026.603 1.51.145.163.317.298.507.404A8.367 8.367 0 005.03 14l.424-.025a6.836 6.836 0 01-.094-2.13C7.134 12.57 9.91 10.897 7.752 4z" fill="url(#paint2_linear)"/><path d="M10.467 4c-.22 3.082-3.704 2.873-3.752 5.809-.006.43.16 1.026.602 1.51 1.513 1.655 5.655.688 3.15-7.319z" fill="url(#paint3_radial)"/><path d="M6.715 9.809c-.006.43.16 1.027.602 1.51.053.058.108.111.168.163.764-.68 1.271-2.078.962-4.461-.877.68-1.708 1.363-1.732 2.788z" fill="url(#paint4_radial)"/><path d="M13.213 4c-.221 3.082-3.704 2.873-3.75 5.809-.008.43.157 1.026.601 1.51 1.511 1.655 5.655.688 3.149-7.319z" fill="url(#paint5_radial)"/><path d="M9.463 9.809c-.008.43.157 1.027.601 1.51a1.6 1.6 0 00.15.15c.756-.683 1.253-2.073.951-4.426C10.3 7.717 9.484 8.4 9.463 9.81z" fill="url(#paint6_radial)"/><defs><radialGradient id="paint3_radial" cx="0" cy="0" r="1" gradientUnits="userSpaceOnUse" gradientTransform="matrix(10.6833 0 0 11.6808 5.418 2.625)"><stop offset=".48" stop-color="#A1C1E6"/><stop offset=".589" stop-color="#81AEDD"/><stop offset=".696" stop-color="#589BD4"/><stop offset=".799" stop-color="#0088CA"/><stop offset=".885" stop-color="#0079C1"/></radialGradient><radialGradient id="paint4_radial" cx="0" cy="0" r="1" gradientUnits="userSpaceOnUse" gradientTransform="matrix(10.6838 0 0 11.6814 5.422 2.629)"><stop offset=".457" stop-color="#8CB3D9"/><stop offset=".623" stop-color="#3990CB"/><stop offset=".741" stop-color="#007EC4"/><stop offset=".8" stop-color="#0079C1"/></radialGradient><radialGradient id="paint5_radial" cx="0" cy="0" r="1" gradientUnits="userSpaceOnUse" gradientTransform="matrix(10.6832 0 0 11.6807 8.165 2.625)"><stop offset=".5" stop-color="#FFC907"/><stop offset=".575" stop-color="#FEBE10"/><stop offset=".825" stop-color="#F99B1C"/><stop offset=".95" stop-color="#F78F1E"/></radialGradient><radialGradient id="paint6_radial" cx="0" cy="0" r="1" gradientUnits="userSpaceOnUse" gradientTransform="matrix(10.6829 0 0 11.6805 8.165 2.625)"><stop offset=".45" stop-color="#F5B922"/><stop offset=".545" stop-color="#F4A620"/><stop offset=".649" stop-color="#F6991F"/><stop offset=".751" stop-color="#F7911F"/></radialGradient><linearGradient id="paint0_linear" x1="3.349" y1="3.122" x2="21.904" y2="24.434" gradientUnits="userSpaceOnUse"><stop stop-color="#1A1E21"/><stop offset="1" stop-color="#06060A"/></linearGradient><linearGradient id="paint2_linear" x1="4.454" y1="5.751" x2="8.649" y2="11.639" gradientUnits="userSpaceOnUse"><stop offset=".034" stop-color="#C6CF21"/><stop offset=".215" stop-color="#B2C427"/><stop offset=".571" stop-color="#80A830"/><stop offset=".8" stop-color="#5D9732"/></linearGradient></defs></svg>