<!-- by TradingView --><svg width="18" height="18" viewBox="0 0 18 18" xmlns="http://www.w3.org/2000/svg"><path fill="#F0F3FA" d="M0 0h18v18H0z"/><path d="m9.84 10.67 1.2-.5c.4-.17.63-.54.17-.85a3108.1 3108.1 0 0 1-2.95-1.99 2490.99 2490.99 0 0 1 5.42-2.3c.26-.11.38.13.29.35a2000.2 2000.2 0 0 1-1.74 2.52c-.27.38-.2.72-.04 1.17l1.2 3.32c.11.34-.12.6-.44.37l-3.04-2a.28.28 0 0 1-.07-.09Z" fill="#E77844"/><path d="m8.19 7.33-1.23.53c-.47.19-.58.54-.13.84a45308.79 45308.79 0 0 0 2.96 1.99l-5.43 2.27c-.36.15-.45-.19-.27-.43l1.7-2.46c.19-.25.22-.55.1-.9A561 561 0 0 0 4.6 5.61c-.1-.31.1-.6.42-.38l3.16 2.1Z" fill="#0093DC"/><path d="m8.19 7.32.07.01a3108.1 3108.1 0 0 0 2.95 2c.46.3.23.67-.18.84a43.19 43.19 0 0 0-1.24.52A43940.27 43940.27 0 0 1 6.83 8.7c-.45-.3-.34-.65.13-.84l1.23-.54Z" fill="#01589C"/></svg>