<!-- by TradingView --><svg width="18" height="18" viewBox="0 0 18 18" xmlns="http://www.w3.org/2000/svg"><path fill="#F0F3FA" d="M0 0h18v18H0z"/><path d="M11.6 3.18c.44.2-.17.96-.52.5-.2-.24-.03-.51.2-.65.1-.06.18-.04.23.06.02.04.05.07.09.09ZM10.08 4.69a.75.75 0 1 0 0-1.48.75.75 0 0 0-.75.73c0 .41.33.75.75.75ZM4.4 4.99c.22 0 .39-.17.39-.38 0-.2-.17-.37-.38-.37s-.38.17-.38.37c0 .2.17.38.38.38Z" fill="#F7B137"/><path d="M8.7 6.95c.66 0 1.2-.53 1.2-1.18a1.2 1.2 0 0 0-1.2-1.19c-.67 0-1.2.53-1.2 1.19 0 .65.53 1.18 1.2 1.18Z" fill="#F1941A"/><path d="M4.5 6.7c.4 0 .75-.32.75-.73a.75.75 0 0 0-.76-.74.75.75 0 0 0-.75.74c0 .4.34.74.75.74Z" fill="#F7B137"/><path d="M7.3 6.23c.57 1.35 2.21 1.34 2.81 0a.1.1 0 0 1 .15-.04l.44.31c.06.05.06.1.01.15-1.02 1.09-.67 2.48.9 2.7.08 0 .1.05.08.12l-.19.54a.1.1 0 0 1-.06.06.1.1 0 0 1-.09 0c-1.25-.86-2.63.21-2.25 1.63a.08.08 0 0 1-.05.1h-.67a.1.1 0 0 1-.08-.04.1.1 0 0 1-.02-.1c.15-.35.14-.67 0-.95-.5-.96-1.25-1.18-2.26-.65a.08.08 0 0 1-.1-.02.09.09 0 0 1-.02-.03l-.19-.63c-.01-.06 0-.09.07-.09 1.48-.09 2.07-1.69.9-2.63a.1.1 0 0 1-.04-.08.1.1 0 0 1 .05-.08l.48-.32c.06-.04.1-.02.14.05Z" fill="#EA5A24"/><path d="M5.82 9.02a1.2 1.2 0 1 0 0-2.38c-.67 0-1.2.53-1.2 1.19 0 .65.53 1.19 1.2 1.19ZM11.58 9.04c.67 0 1.2-.53 1.2-1.19a1.2 1.2 0 0 0-1.2-1.18c-.66 0-1.2.53-1.2 1.18 0 .66.54 1.19 1.2 1.19Z" fill="#F1941A"/><path d="M13.75 9.34c.42 0 .76-.34.76-.75a.75.75 0 0 0-.76-.74.75.75 0 0 0-.75.74c0 .41.34.75.75.75ZM14.63 10c.2 0 .37-.16.37-.36 0-.2-.17-.37-.37-.37-.2 0-.37.17-.37.37 0 .2.16.37.37.37Z" fill="#F7B137"/><path d="M6.9 12.4c.66 0 1.2-.53 1.2-1.18a1.2 1.2 0 0 0-1.2-1.18c-.67 0-1.2.53-1.2 1.18 0 .65.53 1.18 1.2 1.18ZM10.47 12.39c.66 0 1.2-.53 1.2-1.19a1.2 1.2 0 0 0-1.2-1.18c-.67 0-1.2.53-1.2 1.18 0 .66.53 1.19 1.2 1.19Z" fill="#F1941A"/><path d="M4.7 12.64c.42 0 .75-.33.75-.74a.75.75 0 0 0-.75-.74.75.75 0 0 0-.75.74c0 .4.34.74.75.74ZM3.37 11.92c.21 0 .38-.16.38-.36 0-.2-.17-.37-.38-.37-.2 0-.37.16-.37.37 0 .2.17.36.37.36ZM10.43 14.22c.42 0 .76-.33.76-.74a.75.75 0 0 0-.76-.75.75.75 0 0 0-.75.75c0 .4.34.74.75.74ZM9.7 15c.2 0 .38-.17.38-.38 0-.2-.17-.37-.38-.37a.38.38 0 0 0-.38.37c0 .21.17.38.38.38Z" fill="#F7B137"/></svg>