<!-- by TradingView --><svg width="18" height="18" viewBox="0 0 18 18" xmlns="http://www.w3.org/2000/svg"><path fill="#F0F3FA" d="M0 0h18v18H0z"/><path d="M6 9H3l3-3v3Z" fill="url(#amdwarmny)"/><path d="M6 9h3L6 6v3Z" fill="url(#bmdwarmny)"/><path d="M9 6h3L9 9V6Z" fill="url(#cmdwarmny)"/><path d="M12 9H9l3-3v3Z" fill="url(#dmdwarmny)"/><path d="M9 12H6l3-3v3Z" fill="url(#emdwarmny)"/><path d="M6 9h3l-3 3V9Z" fill="url(#fmdwarmny)"/><path d="M12 9h3l-3 3V9Z" fill="url(#gmdwarmny)"/><path d="M9 12H6l3 3v-3Z" fill="url(#hmdwarmny)"/><path d="M12 9H9l3 3V9Z" fill="url(#imdwarmny)"/><path d="M9 6H6l3 3V6Z" fill="url(#jmdwarmny)"/><path d="M9 6h3L9 3v3Z" fill="url(#kmdwarmny)"/><path d="M9 12h3L9 9v3Z" fill="url(#lmdwarmny)"/><defs><linearGradient id="amdwarmny" x1="3.38" y1="8.63" x2="6" y2="8.44" gradientUnits="userSpaceOnUse"><stop stop-color="#0EE3DD"/><stop offset="1" stop-color="#1BD7E2"/></linearGradient><linearGradient id="bmdwarmny" x1="6" y1="7.5" x2="8.06" y2="8.63" gradientUnits="userSpaceOnUse"><stop stop-color="#15DCDF"/><stop offset="1" stop-color="#2EACE6"/></linearGradient><linearGradient id="cmdwarmny" x1="9" y1="8.81" x2="11.25" y2="6.19" gradientUnits="userSpaceOnUse"><stop stop-color="#439CF0"/><stop offset="1" stop-color="#7E4CF0"/></linearGradient><linearGradient id="dmdwarmny" x1="9.56" y1="9" x2="12.19" y2="6.38" gradientUnits="userSpaceOnUse"><stop stop-color="#20CBE1"/><stop offset="1" stop-color="#3AAEE5"/></linearGradient><linearGradient id="emdwarmny" x1="9" y1="9.19" x2="7.5" y2="12" gradientUnits="userSpaceOnUse"><stop stop-color="#11D3DF"/><stop offset="1" stop-color="#08DCDF"/></linearGradient><linearGradient id="fmdwarmny" x1="6.38" y1="11.81" x2="7.5" y2="9" gradientUnits="userSpaceOnUse"><stop stop-color="#26C7E3"/><stop offset="1" stop-color="#4B99E7"/></linearGradient><linearGradient id="gmdwarmny" x1="14.63" y1="9" x2="12" y2="9.94" gradientUnits="userSpaceOnUse"><stop stop-color="#8949F6"/><stop offset="1" stop-color="#4796F2"/></linearGradient><linearGradient id="hmdwarmny" x1="8.81" y1="14.44" x2="7.13" y2="12.19" gradientUnits="userSpaceOnUse"><stop stop-color="#0DE4DD"/><stop offset="1" stop-color="#1DD3E1"/></linearGradient><linearGradient id="imdwarmny" x1="9.38" y1="9.38" x2="12" y2="9.75" gradientUnits="userSpaceOnUse"><stop stop-color="#1BC3E3"/><stop offset="1" stop-color="#37A2E8"/></linearGradient><linearGradient id="jmdwarmny" x1="9" y1="6.94" x2="6.19" y2="6.94" gradientUnits="userSpaceOnUse"><stop stop-color="#499CE8"/><stop offset="1" stop-color="#21CDE1"/></linearGradient><linearGradient id="kmdwarmny" x1="9.38" y1="3.56" x2="11.63" y2="5.81" gradientUnits="userSpaceOnUse"><stop stop-color="#8A4CF6"/><stop offset="1" stop-color="#5294ED"/></linearGradient><linearGradient id="lmdwarmny" x1="9.38" y1="9.38" x2="11.81" y2="11.81" gradientUnits="userSpaceOnUse"><stop stop-color="#22CCE4"/><stop offset="1" stop-color="#43A5E6"/></linearGradient></defs></svg>