<!-- by TradingView --><svg xmlns="http://www.w3.org/2000/svg" width="18" height="18" viewBox="0 0 18 18"><path d="M18 0H0v18h18V0Z" fill="#F0F3FA"/><path d="M9.02 4c1.07 0 2.15.43 2.97 1h-1.6l.27 1h2.36c.38.64.2.32.54 1H9.81l-.16 1.31h4.2l.08.4c.03.2.04.72-.05.95H9.8V11h3.77c-.12.3-.35.77-.56 1h-3.2v1h2.1a5.04 5.04 0 0 1-3.06 1V4h.16Z" fill="#D21146"/><path d="M8.85 4v10a5 5 0 0 1 0-10Z" fill="#005895"/><path d="M7 12h1V6H7V5h3.84l-.04 1.5H10v4.91h.8V13H7v-1Z" fill="#F0F3FA"/><path d="M10.22 6.6v4.77h.93v2.06l-.87.23H8.99v-.22H11V12h-1V6h1.01V4.56H8.95v-.22h1.49l.75.2v2.07h-.97Z" fill="#D21146"/><path fill="#F0F3FA" d="M5 8h2v2H5z"/></svg>