<!-- by TradingView --><svg xmlns="http://www.w3.org/2000/svg" width="18" height="18" viewBox="0 0 18 18"><path fill="#F0F3FA" d="M0 0h18v18H0z"/><circle cx="14" cy="9" r="1" fill="url(#aoly5p4lm)"/><path d="M7.5 4.45c0 .22-.1.42-.22.59-.07.1-.28.5-.28.93 0 .42.21.82.28.92.14.2.22.37.22.6 0 .21-.14.45-.22.57-.05.08-.28.57-.28.94 0 .38.24.85.29.94.13.16.21.36.21.58 0 .22-.1.4-.2.58-.06.08-.3.55-.3.93 0 .39.24.86.3.94.1.18.2.36.2.58 0 .53-.45.95-1 .95s-1-.42-1-.95c0-.22.1-.42.2-.58.06-.08.3-.55.3-.94 0-.38-.24-.85-.3-.93-.1-.18-.2-.36-.2-.58 0-.22.08-.42.21-.58.05-.09.3-.56.29-.94 0-.37-.24-.86-.3-.94-.1-.18-.2-.36-.2-.58 0-.22.1-.43.22-.59.07-.1.28-.5.28-.92 0-.43-.21-.83-.28-.93a1 1 0 0 1-.22-.6c0-.52.45-.94 1-.94s1 .42 1 .95Z" fill="url(#boly5p4lm)"/><path d="M10 5.95c0 .27-.15.5-.31.69-.14.17-.37.5-.37.84 0 .34.23.67.37.83.16.2.3.42.3.69a1 1 0 0 1-.24.63c-.12.15-.43.57-.43.9 0 .32.28.71.41.87.16.19.27.4.27.65 0 .52-.45.95-1 .95-.56 0-1-.43-1-.95 0-.25.11-.47.26-.65.13-.16.42-.55.42-.88 0-.32-.32-.74-.44-.9A1.01 1.01 0 0 1 8 9c0-.27.14-.5.3-.69.14-.16.38-.5.38-.83 0-.35-.24-.67-.38-.84-.17-.2-.3-.42-.3-.69C8 5.43 8.44 5 9 5c.55 0 1 .43 1 .95Z" fill="url(#coly5p4lm)"/><path d="M12.5 7.4c0 .3-.18.53-.37.75-.2.21-.43.53-.43.83 0 .35.35.75.5.91.16.2.3.42.3.7v.03c0 .52-.45.88-1 .88s-1-.36-1-.88v-.04c0-.27.14-.49.3-.68.15-.17.5-.57.5-.92 0-.3-.24-.62-.43-.84-.2-.21-.37-.44-.37-.74v-.01c.01-.52.45-.89 1-.89s.99.37 1 .89v.01Z" fill="url(#doly5p4lm)"/><defs><linearGradient id="aoly5p4lm" x1="12.7" y1="9" x2="15.33" y2="9" gradientUnits="userSpaceOnUse"><stop offset=".26" stop-color="#D45B22"/><stop offset=".86" stop-color="#FAB017"/></linearGradient><linearGradient id="boly5p4lm" x1="5.2" y1="13.55" x2="7.83" y2="13.55" gradientUnits="userSpaceOnUse"><stop offset=".26" stop-color="#D45B22"/><stop offset=".74" stop-color="#FAB017"/></linearGradient><linearGradient id="coly5p4lm" x1="7.55" y1="10.17" x2="10.73" y2="10.18" gradientUnits="userSpaceOnUse"><stop offset=".29" stop-color="#D45B22"/><stop offset=".71" stop-color="#F9AD18"/></linearGradient><linearGradient id="doly5p4lm" x1="10.05" y1="11.68" x2="13.24" y2="11.7" gradientUnits="userSpaceOnUse"><stop offset=".29" stop-color="#D45B22"/><stop offset=".71" stop-color="#F9AD18"/></linearGradient></defs></svg>