<!-- by TradingView --><svg width="18" height="18" viewBox="0 0 18 18" xmlns="http://www.w3.org/2000/svg"><path fill="#F0F3FA" d="M0 0h18v18H0z"/><path d="M6.48 6.54c.74-.92 3.76-2.31 4.71-1.01.06.08.04.14-.05.17-1 .3-1.9.78-2.7 1.42a.18.18 0 0 1-.21.01 2.93 2.93 0 0 0-1.66-.4c-.17 0-.2-.06-.1-.19Z" fill="#9599A3"/><path d="M12.42 6.1c1.1-.06 3.42.58 2.27 2.2a4.37 4.37 0 0 1-2.84 1.79c-.08.01-.12-.02-.14-.09a2.11 2.11 0 0 0-1.3-1.61.1.1 0 0 1-.07-.09.1.1 0 0 1 .05-.09 5.51 5.51 0 0 0 1.86-2 .2.2 0 0 1 .17-.1ZM5.88 8.98a7.73 7.73 0 0 0-1.73 1.77.21.21 0 0 1-.22.08c-2.25-.6.17-2.77 1.1-3.16a.12.12 0 0 1 .1 0 .12.12 0 0 1 .06.09c.11.43.34.79.69 1.07a.1.1 0 0 1 .02.11.1.1 0 0 1-.02.04Z" fill="#21B1E5"/><path d="M7.42 8.93a.44.44 0 0 1-.1-.09c-.05-.07-.04-.13.03-.18l.73-.52a.19.19 0 0 1 .23-.01l.41.27a.1.1 0 0 1 .03.14 19.08 19.08 0 0 0-.77.53c-.13.1-.26.1-.38-.01l-.18-.13Z"/><path d="m9.06 7.63.08.03c.05.01.1.04.13.07.5.45 1.6-.84 1.88-1.2a.1.1 0 0 0-.05-.16 6.87 6.87 0 0 0-2.07 1.08c-.1.08-.1.14.03.18Zm-1.55.05a2.18 2.18 0 0 0-1.44-.3.15.15 0 0 0-.06.1v.07c.05.33.24.59.54.77.07.04.14.04.21 0l.73-.54a.08.08 0 0 0 .03-.06v-.04ZM9.58 8.9l.03.02c.51.3.94.56 1.04 1.21 0 .08-.03.13-.11.13-.74.05-1.4-.14-1.99-.56-.08-.06-.08-.12 0-.18l.83-.61a.17.17 0 0 1 .2-.01Zm-2.6.87-.01-.04-.35-.48a.05.05 0 0 0-.06-.01l-.06.04c-.45.31-.86.64-1.14.92-.28.27-.42.46-.37.52l.04.07c.03.03.1.03.2 0s.25-.1.42-.18a8.06 8.06 0 0 0 1.25-.77l.06-.04.02-.03Z" fill="#0B3667"/><path d="M4.78 11.7a.16.16 0 0 1 .12-.2 6.2 6.2 0 0 0 2.54-1.23.32.32 0 0 1 .4 0c.7.55 1.5.81 2.4.79a.14.14 0 0 1 .15.15 4.38 4.38 0 0 1-4.14 1.75c-.82-.1-1.31-.52-1.47-1.27Z" fill="#9599A3"/></svg>