<!-- by TradingView --><svg width="18" height="18" viewBox="0 0 18 18" xmlns="http://www.w3.org/2000/svg"><path fill="#F0F3FA" d="M0 0h18v18H0z"/><path fill-rule="evenodd" d="M10.43 5.75 14 5.33 12.45 8.8c-.42.93-1.4 1.4-2.33 1.13a2.12 2.12 0 0 1-1.46-2.2 2.07 2.07 0 0 1 1.77-1.97Zm.05.5 2.76-.33-1.2 2.69a1.51 1.51 0 0 1-1.8.88 1.67 1.67 0 0 1-1.13-1.71 1.6 1.6 0 0 1 1.37-1.54Z" fill="#BBD72D"/><path fill-rule="evenodd" d="m12.5 9.23 1.5 3.44-3.6-.5a2.07 2.07 0 0 1-1.74-1.97 2.1 2.1 0 0 1 1.51-2.14 2 2 0 0 1 2.33 1.17Zm-.34.23 1.18 2.73-2.83-.4a1.64 1.64 0 0 1-1.37-1.57c-.04-.79.46-1.5 1.19-1.69.74-.2 1.51.2 1.83.93Z" fill="#BCCD8C"/><path fill-rule="evenodd" d="M6.8 11.39 7.38 15l2.53-2.44c.68-.66.83-1.75.35-2.59a1.82 1.82 0 0 0-2.25-.85A2.06 2.06 0 0 0 6.8 11.4Zm.42-.03.45 2.8 1.96-1.9c.52-.5.64-1.35.27-2a1.4 1.4 0 0 0-1.74-.65 1.6 1.6 0 0 0-.94 1.75Z" fill="#91C0AE"/><path fill-rule="evenodd" d="M6.27 7.23 3 8.93l3.2 1.8c.86.49 1.96.3 2.6-.44.63-.72.65-1.78.05-2.52a2.1 2.1 0 0 0-2.58-.54Zm.13.44L3.89 8.94l2.45 1.36c.66.37 1.5.23 2-.33.48-.54.5-1.34.03-1.9a1.63 1.63 0 0 0-1.97-.4Z" fill="#43A8AE"/><path fill-rule="evenodd" d="M6.5 6.76 7.26 3 9.9 5.66c.72.72.84 1.86.3 2.72a2 2 0 0 1-2.48.8A2.16 2.16 0 0 1 6.5 6.76Zm.46.03.58-2.89L9.6 5.94c.55.55.65 1.43.22 2.1-.41.64-1.2.9-1.9.6a1.64 1.64 0 0 1-.95-1.85Z" fill="#156D80"/></svg>