<!-- by TradingView --><svg width="18" height="18" viewBox="0 0 18 18" xmlns="http://www.w3.org/2000/svg"><path fill="#192650" d="M0 0h18v18H0z"/><path d="M9.39 4.17A.2.2 0 0 1 9.6 4c1.21.16 2.34.72 3.18 1.59a.2.2 0 0 1 0 .28.2.2 0 0 1-.29 0 4.97 4.97 0 0 0-2.94-1.48.2.2 0 0 1-.17-.22ZM9 4.2c0 .12-.08.21-.18.22a4.3 4.3 0 0 0-2.23.7c-.09.06-.2.03-.26-.07a.22.22 0 0 1 .07-.28A4.65 4.65 0 0 1 8.8 4c.11 0 .2.09.2.2ZM5.86 5.35c.07.07.07.19-.01.26a4.63 4.63 0 0 0-1.24 4.85.19.19 0 1 1-.36.11A5 5 0 0 1 5.6 5.34c.07-.07.19-.07.26 0ZM4.86 11.33c.09-.05.2-.02.25.07a4.54 4.54 0 0 0 3.35 2.24.18.18 0 1 1-.05.36 4.96 4.96 0 0 1-3.62-2.42.18.18 0 0 1 .07-.25ZM13.5 10.55c.1.05.14.16.1.26a5.17 5.17 0 0 1-1.76 2.29 4.7 4.7 0 0 1-2.65.9c-.1 0-.19-.08-.19-.19 0-.1.08-.2.18-.2a4.35 4.35 0 0 0 2.45-.83 4.78 4.78 0 0 0 1.63-2.12c.04-.1.15-.15.24-.1ZM13.09 6.45c.09-.05.2-.02.25.07a5 5 0 0 1 .53 3.62.19.19 0 0 1-.37-.08 4.62 4.62 0 0 0-.49-3.35.19.19 0 0 1 .08-.26ZM10.54 5.75a3.49 3.49 0 0 0-2.26-.28.2.2 0 1 1-.08-.39 3.87 3.87 0 0 1 4.3 2.13.2.2 0 1 1-.35.17c-.34-.7-.9-1.28-1.6-1.63ZM7.56 5.48a.2.2 0 0 1-.09.26c-.7.34-1.26.9-1.6 1.6a.2.2 0 0 1-.35-.17c.38-.78 1-1.4 1.78-1.78a.2.2 0 0 1 .26.1Z" fill="#309D63"/><path d="M5.46 7.84c.1.03.17.13.15.24a3.49 3.49 0 0 0 1 3.37.2.2 0 0 1 .01.28c-.07.08-.15.08-.23.01a3.88 3.88 0 0 1-1.16-3.75.2.2 0 0 1 .23-.15ZM11.28 11.77a.2.2 0 0 1-.05.27 3.87 3.87 0 0 1-4.16.2.2.2 0 1 1 .2-.35 3.49 3.49 0 0 0 3.73-.17.2.2 0 0 1 .28.05ZM12.55 7.9a.2.2 0 0 1 .24.16c.21 1 .02 2.05-.53 2.92a.2.2 0 1 1-.33-.22 3.49 3.49 0 0 0 .47-2.62.2.2 0 0 1 .15-.23ZM10.03 6.41a.22.22 0 0 1 .3-.1A3 3 0 0 1 12 9.01a.22.22 0 0 1-.45 0 2.55 2.55 0 0 0-1.42-2.3.22.22 0 0 1-.1-.3ZM9.1 6.45A2.55 2.55 0 0 0 6.76 7.8a.22.22 0 0 1-.4-.22A3 3 0 0 1 9.12 6a.22.22 0 1 1-.02.45Z" fill="#309D63"/><path d="M6.24 8.65c.12 0 .22.11.21.24a2.55 2.55 0 0 0 1.33 2.35.22.22 0 0 1-.22.4A3 3 0 0 1 6 8.86c0-.13.11-.22.24-.22ZM11.6 10.02c.1.05.15.19.1.3A3 3 0 0 1 9 12a.22.22 0 1 1 0-.45 2.55 2.55 0 0 0 2.29-1.43.22.22 0 0 1 .3-.1ZM14.68 7.75c.1-.02.2.04.22.14a6 6 0 0 1-1.78 5.47.18.18 0 0 1-.25-.26 5.64 5.64 0 0 0 1.67-5.14c-.02-.1.05-.2.14-.21ZM11.45 3.72a.18.18 0 0 1 .24-.08 6 6 0 0 1 3 3.48.18.18 0 0 1-.34.11 5.64 5.64 0 0 0-2.82-3.27.18.18 0 0 1-.08-.24ZM10.84 3.67a5.63 5.63 0 0 0-3.2-.14 5.64 5.64 0 0 0-2.78 1.64.18.18 0 0 1-.26-.25 6 6 0 0 1 6.36-1.59.18.18 0 1 1-.12.34ZM4.48 5.33c.08.06.1.17.04.25-.7.92-1.11 2.04-1.16 3.2A.18.18 0 0 1 3 8.76a6 6 0 0 1 1.23-3.4c.06-.08.17-.1.25-.03ZM3.19 9.4c.1-.02.19.05.2.15a5.63 5.63 0 0 0 2.57 4.2.18.18 0 1 1-.2.3A6 6 0 0 1 3.03 9.6a.18.18 0 0 1 .17-.2ZM12.23 13.84c.06.09.03.2-.06.25a6 6 0 0 1-5.57.41.18.18 0 1 1 .15-.33 5.68 5.68 0 0 0 5.23-.39c.09-.05.2-.02.25.06Z" fill="#309D63"/><path fill-rule="evenodd" d="M9 10a1 1 0 1 0 0-2 1 1 0 0 0 0 2Zm0-.5a.5.5 0 1 0 0-1 .5.5 0 0 0 0 1Z" fill="#309D63"/></svg>