<!-- by TradingView --><svg width="18" height="18" viewBox="0 0 18 18" xmlns="http://www.w3.org/2000/svg"><path fill="#F0F3FA" d="M0 0h18v18H0z"/><path d="M11.25 5.56c.7-.75 1.84-.75 2.54 0L15 7l-6.03 6.44C8 14.5 5.99 13 5 12l6.25-6.44Z" fill="#FDAA08"/><path d="M6.45 13.46c.89.95 2.8-.84 3.74-1.3L6.51 8.53a1.6 1.6 0 0 0-2.38 0L3 10l3.45 3.46Z" fill="#0091FC"/><path d="M5.76 12.76 5 12l2.46-2.54 2.72 2.69-1.21 1.3a1.74 1.74 0 0 1-2.38.14l-.14-.13-.7-.7Z" fill="#F08519"/><path d="M9.41 7.41A2 2 0 1 1 6.6 4.6 2 2 0 0 1 9.4 7.4Z" fill="#0091FC"/></svg>