<!-- by TradingView --><svg width="18" height="18" viewBox="0 0 18 18" xmlns="http://www.w3.org/2000/svg"><path fill="#F0F3FA" d="M0 0h18v18H0z"/><path fill-rule="evenodd" d="m9.03 6 6.28 1.19c.4.08.69.41.69.8v2.02c0 .39-.29.72-.7.8L9.04 12l-6.34-1.2A.83.83 0 0 1 2 10V8c0-.4.3-.73.7-.8L9.02 6Zm0 .89 5.98.84c.38.06.66.3.66.57v1.43c0 .28-.28.52-.66.57l-5.97.85L3 10.3c-.39-.05-.66-.3-.66-.57V8.3c0-.27.27-.51.66-.57l6.03-.84Z"/><path d="M14 10H4l1.64-1.1v.37l1.44-.88v.5L9 7.7l1.92 1.2v-.51l1.44.88V8.9L14 10Z"/></svg>