<!-- by TradingView --><svg xmlns="http://www.w3.org/2000/svg" width="18" height="18" viewBox="0 0 18 18"><path fill="#F0F3FA" d="M0 0h18v18H0z"/><path d="M4 11.14V14h10V4H4v7.14Z"/><path d="M13 8.93V5H7.69l.12.05c1.25.55 2.7 1.54 4.1 2.83l.8.77.29.28Zm-2.2-1.52a7.33 7.33 0 0 0-3.25-1.56c-.1 0-.45-.02-.52-.01-.2.02-.32.04-.46.09-.51.17-.85.54-.96 1.05-.08.36-.05.8.07 1.27.32 1.28 1.29 2.83 2.78 4.47l.2.22.07.06h.65l-.17-.18c-.35-.37-.66-.7-.93-1.04-1.1-1.36-1.77-2.64-1.88-3.64a2.62 2.62 0 0 1 0-.49c.04-.29.15-.51.32-.68.48-.5 1.36-.47 2.48.06.8.37 1.72 1.02 2.62 1.84.3.27.82.78 1.08 1.06l.1.1v-.66l-.28-.27c-.7-.71-1.27-1.2-1.91-1.69Zm.63 1.4a5.56 5.56 0 0 0-2.65-1.38 2.95 2.95 0 0 0-.58 0c-.44.05-.75.23-.91.55-.29.56-.14 1.45.42 2.48.4.74 1.08 1.62 1.81 2.38l.17.16h.18l.45-1.68.46-1.68.53 1.68.53 1.68H13v-2.6l-.1-.11a16.64 16.64 0 0 0-1.47-1.47Zm-4.22 2.86A16.21 16.21 0 0 1 5 8.02L5 10.5V13h3.32l-.03-.04c-.47-.52-.74-.85-1.08-1.29Z" fill="#FEE60E"/></svg>