<!-- by TradingView --><svg width="18" height="18" viewBox="0 0 18 18" xmlns="http://www.w3.org/2000/svg"><path fill="#F0F3FA" d="M0 0h18v18H0z"/><path d="M13.68 7.38c-1.12.56-2.6 1.3-3.1 1.6l-.11.06c-.87.51-2.83 1.64-3.07 3.08-.2 1.13 1.8 1.6 3 1.71-.21.06-.42.11-.63.14-1.32.12-3.1-.11-3.07-1.55.04-1.42 2.23-3.02 3.33-3.64-2.7.96-4.1 2.23-4.24 3.15-.07.43.1.86.33 1.2-.3-.21-.56-.45-.8-.71a.96.96 0 0 1-.06-.7 4.2 4.2 0 0 1 1.02-1.49c-.84.43-1.36.95-1.62 1.3A5.03 5.03 0 0 1 8.97 4a4.98 4.98 0 0 1 4.7 3.38Z" fill="#0A75BB"/><path d="m13.78 7.74.72-.65-.65.93a5.09 5.09 0 0 1-2.53 5.43c-.61-.05-1.4-.3-1.42-1.2-.02-.94 2.19-3.06 3.88-4.5Z" fill="#808185"/></svg>