<!-- by TradingView --><svg width="18" height="18" viewBox="0 0 18 18" xmlns="http://www.w3.org/2000/svg"><path fill="#F0F3FA" d="M0 0h18v18H0z"/><path d="M3.05 8.93c.89 1.05.37 1.74 0 1.96.1-.28.26-.96 0-1.43S2.24 9 2 9.06c.1-.19.42-.58.79-.58.36 0 .85.09 1.04.13 0-.04.07-.13.33-.13.33 0 .59.32.85.32.2 0 .52-.13.65-.2 0 .37-.3.64-.45.73.1.47.91 1.02 1.3 1.24-1.17-.07-2.15-1.5-2.35-1.5-.16 0-.07.26 0 .39-.42-.53-.92-.57-1.11-.53Z" fill="#F70303"/><path d="M3.83 11.35c0 .26-.35.45-.52.52.2-.26.43-.98.52-1.3v.78ZM5.8 10.7a3.64 3.64 0 0 1-1.18-.79c.04.16.2.51.46.72.26.2.58.13.71.07ZM9.79 9.2a13.95 13.95 0 0 0-4 2.8c.32-.57 1.27-1.72 1.7-2.22-1.1-.2-.19-.91.53-1.37.72-.45 1.9-.84 2.68-1.37A14.1 14.1 0 0 0 12.08 6c-.06 1.2-1.64 2.24-2.43 2.6.46-.36 1.23-1.07.66-.97a5.21 5.21 0 0 0-2.16 1.5c-.13.26.2.26.59.26.4 0 1.63-.91 2.68-1.24 1.05-.32 1.57-.26 2.75-.58A4.2 4.2 0 0 0 16 6.52c-1.1 2.61-3.77 3.18-4.97 3.13 1.25-.31 2.14-1 2.42-1.3-.5-.02-1.94.12-3.66.85Z" fill="#F36304"/></svg>