<!-- by TradingView --><svg width="18" height="18" viewBox="0 0 18 18" xmlns="http://www.w3.org/2000/svg"><path fill="#F0F3FA" d="M0 0h18v18H0z"/><path fill-rule="evenodd" d="M4 12V6H3v6h1Zm4.91-4c-.04-.15-.1-.35-.19-.47a1.25 1.25 0 0 0-.28-.32 1.14 1.14 0 0 0-.38-.2 1.53 1.53 0 0 0-1.28.18c-.23.15-.42.39-.55.7-.14.3-.2.67-.2 1.1 0 .45.06.82.2 1.13.13.3.32.53.55.7.24.15.52.23.83.23.29 0 .54-.06.75-.17.2-.11.37-.28.48-.49.11-.2.17-.43.17-.7h-1.3v-.83H10v.7c0 .5-.1.94-.3 1.3-.21.37-.5.65-.85.85-.36.2-.78.29-1.24.29-.52 0-.98-.12-1.37-.36-.39-.25-.7-.6-.91-1.04A3.62 3.62 0 0 1 5 9c0-.47.06-.89.2-1.26.12-.37.3-.68.54-.94.23-.26.5-.46.82-.6.3-.13.65-.2 1.02-.2.31 0 .6.05.87.14a2.28 2.28 0 0 1 1.24 1.02c.13.24.22.55.26.84H8.91Zm1.59 4V6h2.1c1.14 0 1.96.75 1.96 1.92 0 .77-.36 1.42-.93 1.78L15 12h-1.21l-1.11-2H11.5v2h-1Zm1.94-3h-.94V7h.94c.64 0 1.09.25 1.09.92 0 .66-.46 1.08-1.09 1.08Z"/></svg>