<!-- by TradingView --><svg width="18" height="18" viewBox="0 0 18 18" xmlns="http://www.w3.org/2000/svg"><path fill="#F0F3FA" d="M0 0h18v18H0z"/><path fill-rule="evenodd" d="M6 6.83v-.9c.05-.65.71-1.95 2.94-1.93 2.78.02 3.08 1.76 3.06 2.22v5.7c-.05.64-.67 1.94-2.7 2.07-2.56.16-3.3-1.28-3.3-2.07v-3.7c0-.1.09-.22.2-.22h3.35V6.22c0-.3-.24-.55-.55-.55-.3 0-.55.25-.55.55v.61c0 .1-.15.17-.25.17h-2c-.11 0-.2-.06-.2-.17ZM10 10a1 1 0 0 1-.6.91v1.06a.4.4 0 1 1-.8 0v-1.06A1 1 0 1 1 10 10Z" fill="#025599"/></svg>