<!-- by TradingView --><svg xmlns="http://www.w3.org/2000/svg" width="18" height="18" viewBox="0 0 18 18"><path fill="#F0F3FA" d="M0 0h18v18H0z"/><path d="M2 8.65C1.97 6.55 3.45 6 4 6v6H2V8.65z" fill="#01402B"/><path d="M2.42 6H2v.5c.09-.18.32-.4.42-.5zM2.68 6h.62c-.79.37-1.2 1.18-1.3 1.55v-.73c.17-.36.53-.7.68-.82z" fill="#F34D47"/><path fill="#01402B" d="M5 6h2v6H5zM8 6h2v6H8z"/><path fill="#01402B" d="M6.5 8h2.32v2H6.5zM11 7.8c0-1 .8-1.8 1.8-1.8h2.84v1.6h-2.1a.4.4 0 0 0-.03.8h.69a1.8 1.8 0 1 1 0 3.6H11v-1.6h2.46a.4.4 0 0 0 0-.8H12.8c-1 0-1.8-.8-1.8-1.8z"/></svg>