<!-- by TradingView --><svg xmlns="http://www.w3.org/2000/svg" width="18" height="18" viewBox="0 0 18 18"><path fill="#20416D" d="M0 0h18v18H0z"/><path d="M6 8H4.33v.92h.47v2.16h-.47V12H6.5v-.92H6V8ZM4.27 6.81l.58.4.43-.56.43.56.58-.4-.42-.59.69-.2-.2-.68-.72.21v-.72h-.73v.72l-.7-.2L4 6l.69.21-.42.6ZM8.76 9.54c-.4-.13-.65-.22-.65-.38 0-.2.2-.32.52-.32l.24.02.07.43h.85V8.16S9.37 8 8.63 8C7.63 8 7 8.48 7 9.23c0 .78.72 1 1.24 1.16.4.12.64.2.64.4 0 .08 0 .34-.5.34a1.9 1.9 0 0 1-.4-.05l-.06-.42H7v1.13s.56.21 1.38.21c.97 0 1.62-.53 1.62-1.31 0-.75-.72-.98-1.24-1.15M12.67 8.9c.13 0 .26.02.39.04l.07.45H14V8.17S13.52 8 12.71 8c-1.42 0-2.38.84-2.38 2.08 0 1.19.84 1.92 2.18 1.92.97 0 1.49-.25 1.49-.25v-1.9h-1.67v.62l.63.07v.51c-.12.03-.24.04-.35.04-.72 0-1.12-.38-1.12-1.07 0-.7.44-1.12 1.18-1.12" fill="#fff"/></svg>