<!-- by TradingView --><svg width="18" height="18" viewBox="0 0 18 18" xmlns="http://www.w3.org/2000/svg"><path fill="#333439" d="M0 0h18v18H0z"/><path d="M7.5 7.25a.75.75 0 1 1-1.5 0 .75.75 0 0 1 1.5 0Z" fill="#8EC582"/><path d="M10.9 6.69 12.5 4H6.03l.57 1h4.2L8.7 8.5l.57.94 1.15-1.94a3 3 0 0 1 1.36 1.4 2.88 2.88 0 0 1-.9 3.54 3.1 3.1 0 0 1-3.5.17l-.47.81a4.08 4.08 0 0 0 4.97-.6 3.8 3.8 0 0 0 .88-4.03c-.34-.9-1-1.65-1.86-2.1Z" fill="#FBF3F1"/><path d="M6.64 11.97a2.93 2.93 0 0 1-.47-2.95l.06-.14-.9-.34-.05.14a3.78 3.78 0 0 0 .85 4.14l.51-.85Z" fill="#8EC582"/></svg>