<!-- by TradingView --><svg width="18" height="18" viewBox="0 0 18 18" xmlns="http://www.w3.org/2000/svg"><path fill="#F0F3FA" d="M0 0h18v18H0z"/><path d="M13.44 11.59c-1.13.26-2.44.41-3.84.41C5.4 12 2 10.66 2 9s3.4-3 7.6-3c.74 0 1.46.04 2.14.12-.48-.03-.99-.04-1.52-.03-3.86 0-6.98 1.33-6.98 2.87 0 1.55 3.12 2.8 6.98 2.8 1.26.03 2.33-.03 3.22-.17Z" fill="#004593"/><path d="M16 8.62V8h-1.11v.62h.22l-.25.47-.36-.47h.23V8h-1.75v.62h.43l.39.52-.43.74H13v.62h1v-.62h-.17l.22-.4.3.4h-.2v.61H16v-.62h-.54l-.35-.45.46-.8H16Z" fill="#EE7316"/><path d="M11.14 10.5 10 8.64v1.2h.5v.66H9.08v-.67h.43V7.84L9.3 7.5h1.44L12 9.59v-.96h-.48V8h1.37v.63h-.34v1.87H11.14ZM5 9.87v.63h1.87v-.63h-.34V8.63h.34V8H5v.63h.34v1.24H5Zm2.04 0v.63h1.87v-.64h-.33V8.63h.33V8H7.04v.63h.34v1.23h-.34Z" fill="#004593"/><path opacity=".5" fill="#F0F3FA" d="M5 9.8h11v.41H5z"/></svg>