<!-- by TradingView --><svg width="18" height="18" viewBox="0 0 18 18" xmlns="http://www.w3.org/2000/svg"><path d="M0 9a9 9 0 1 1 18 0A9 9 0 0 1 0 9Z" fill="#F0F3FA"/><path d="M8.47 13s-.34-2.52-1.3-2.96C6.24 9.52 2 9 2 9s4.23-.6 5.18-1.04C8.13 7.44 8.47 5 8.47 5s.04.6.03 1.3c0 .55-.05 1.16-.17 1.59C8.06 8.93 7.45 9 7.45 9s.61.15.88 1.11c.13.45.17 1.11.17 1.7 0 .65-.03 1.19-.03 1.19ZM9.53 13s.34-2.52 1.3-2.96C11.76 9.52 16 9 16 9s-4.23-.6-5.18-1.04C9.87 7.44 9.53 5 9.53 5s-.04.6-.03 1.3c0 .55.05 1.16.17 1.59.27 1.04.88 1.11.88 1.11s-.61.15-.88 1.11a7.15 7.15 0 0 0-.17 1.7c0 .65.03 1.19.03 1.19Z" fill="#B9C711"/></svg>