<!-- by TradingView --><svg width="18" height="18" viewBox="0 0 18 18" xmlns="http://www.w3.org/2000/svg"><path fill="#F0F3FA" d="M0 0h18v18H0z"/><path d="M8.51 3 4 14h.65L9 3.4 13.35 14H14L9.49 3H8.5Z" fill="#E9D7D0"/><path d="M12.33 14h.65L9 4.29 5.02 14h.65L9 5.87 12.33 14Z" fill="#E9D7D0"/><path d="M11.24 14h.65l-2.9-7.04L6.12 14h.65L9 8.55 11.24 14Z" fill="#E9D7D0"/><path d="m4.33 14 4.4-10.8h.22l.05.2L4.66 14h-.33ZM9.17 3.25 9.49 3 14 14h-.66l.22-.3-4.4-10.45ZM5.48 13.6l-.44.4h.6l3.47-8.42L12.63 14H13L9 4.29v1.09l-.16.1-3.36 8.12Z"/><path d="m6.47 13.75-.33.25h.6l2.37-5.85 2.36 5.6-.1.25h.54L9 6.96v1l-.28.2-2.25 5.6Z"/></svg>