<!-- by TradingView --><svg width="18" height="18" viewBox="0 0 18 18" xmlns="http://www.w3.org/2000/svg"><path fill="#F0F3FA" d="M0 0h18v18H0z"/><path d="M8.51 3c3 0 5.49 2.49 5.49 5.49V14H8.51C5.51 14 3 11.49 3 8.49S5.51 3 8.51 3Zm3.99 9.5V8.49A4.06 4.06 0 0 0 8.51 4.5 3.95 3.95 0 0 0 4.5 8.49c0 2.2 2.18 4.01 4.01 4.01h3.99Z" fill="#08928F"/><path d="M8.5 6C9.88 6 11 7.13 11 8.5V11H8.5A2.53 2.53 0 0 1 6 8.5C6 7.12 7.14 6 8.5 6Zm1.5 4V8.5C10 7.66 9.37 7 8.5 7 7.65 7 7 7.58 7 8.5c0 .9.67 1.5 1.5 1.5H10Z" fill="#9D9E9E"/></svg>