<!-- by TradingView --><svg width="18" height="18" xmlns="http://www.w3.org/2000/svg"><path fill="url(#paint0_linear)" d="M0 0h18v18H0z"/><path d="M5 11V9.522h.316L5.802 11h.384l.504-1.478h.308V11H8V8H6.522l-.516 1.522L5.514 8H4v3h1zM2 11h1V8H2v3z" fill="#4092C9"/><path fill-rule="evenodd" d="M9.5 8l-1.55 3H9l.391-.722h1.249L11 11h1.029l-1.533-3H9.5zm.504.73l-.468.9h.96l-.492-.9z" fill="#4092C9"/><path d="M13 8h-.97l1.312 1.5-1.313 1.5H13l1-1 .998 1H16l-1.302-1.5L16 8h-1.002L14 9l-1-1z" fill="#4092C9"/><defs><linearGradient id="paint0_linear" x1="3.349" y1="3.122" x2="21.904" y2="24.434" gradientUnits="userSpaceOnUse"><stop stop-color="#1A1E21"/><stop offset="1" stop-color="#06060A"/></linearGradient></defs></svg>