<!-- by TradingView --><svg xmlns="http://www.w3.org/2000/svg" width="18" height="18"><path fill="#70B782" d="M0 0h18v18H0z"/><path d="M3.54 6.54c.06-.05.1-.13.1-.22a.3.3 0 00-.1-.24.32.32 0 00-.22-.08.33.33 0 00-.23.08.3.3 0 00-.09.24c0 .09.03.17.1.22.05.05.13.08.22.08.08 0 .16-.03.22-.08zM3 7.25h.63V11H3V7.25zm8.29.63c.64 0 .87.57.87 1.2V11h.63V8.93c0-.29 0-.66-.08-.89.2-.12.52-.16.75-.16.61 0 .9.54.9 1.06V11H15V8.94c0-.25-.02-.48-.06-.69a1.3 1.3 0 00-.22-.53.97.97 0 00-.44-.35 1.77 1.77 0 00-.7-.12c-.11 0-.23.01-.34.03l-.31.1-.27.1-.03.03c-.06.03-.12.06-.16.1-.1-.1-.24-.19-.4-.26-.17-.06-.38-.1-.63-.1a5.55 5.55 0 00-1.5.2V11h.64V7.96c.16-.06.52-.08.7-.08zm-4.82 1.2c0-.63-.23-1.2-.86-1.2-.2 0-.55.02-.72.08V11h-.63V7.45a6.86 6.86 0 011.5-.2c.25 0 .46.04.62.1.16.07.3.15.4.26l.17-.1.03-.02a2.4 2.4 0 01.58-.2 1.77 1.77 0 011.04.09c.18.07.33.19.44.34.1.15.17.32.21.53.05.21.07.44.07.69V11h-.64V8.94c0-.52-.3-1.06-.9-1.06-.23 0-.56.04-.75.16.08.23.08.6.08.9V11h-.64V9.07z" fill="#fff"/></svg>