<!-- by TradingView --><svg xmlns="http://www.w3.org/2000/svg" width="18" height="18"><path fill="#F0F3FA" d="M0 0h18v18H0z"/><path d="M8.79 4.36c-2.93-.71-4.6.95-4.19 3.52A8.77 8.77 0 0010.34 14a5.49 5.49 0 01-.31-.09c-2.73-.78-5.91-3.42-6.38-6.44-.41-2.67 1.74-4.1 4.83-3.2l.3.1zM5.78 5.62c.92-1.1 3.15-.9 4.97.58 1.23.99 2.91 3.27 1.64 4.77l-.05.05a1.56 1.56 0 01-.05.05c1.1-1.55-.54-3.55-1.71-4.55-1.73-1.47-3.9-1.76-4.89-.8a.4.4 0 00.03-.04l.06-.06zm6.01 1.08v.03c1.29 1.2 2.85 3.55 1.47 5.29-1.09 1.4-3.56 1.35-5.87-.34l.07.06.16.13c2.35 1.85 5.18 2.19 6.31.75 1.52-1.94-.64-4.72-2.13-5.92zm-2.66.05c0 .49-.4.88-.89.88a.89.89 0 01-.89-.88c0-.49.4-.88.9-.88.49 0 .88.4.88.88z" fill="#E9AA17"/></svg>