<!-- by TradingView --><svg width="18" height="18" viewBox="0 0 18 18" xmlns="http://www.w3.org/2000/svg"><path fill="#F0F3FA" d="M0 0h18v18H0z"/><path fill="#6D326A" d="M4 4h1v1H4zM8 8h1v1H8zM11 11h3v3h-3z"/><path d="M9 11.74c-1.8 1.42-3.63 2-4.5 1.3-1.14-.91-.26-3.6 1.95-6.01 2.22-2.41 4.93-3.64 6.06-2.73.93.74.5 2.7-.91 4.7h-.83c1.05-1.4 1.38-2.78.71-3.3-.78-.62-2.67.21-4.2 1.85-1.55 1.64-2.16 3.47-1.37 4.09.6.47 1.85.1 3.09-.85v.95Z" fill="#039A87"/><path fill="#6D326A" d="M6 6h1v1H6zM9.5 9.5H11V11H9.5V9.5Z"/></svg>