<!-- by TradingView --><svg xmlns="http://www.w3.org/2000/svg" width="18" height="18"><path fill="#F0F3FA" d="M0 0h18v18H0z"/><path d="M12.09 4.42L9.35 7.96v2.54h-.7V7.96L5.93 4.43a.54.54 0 00-.75-.1.52.52 0 00-.1.73l1.1 1.43-.6.48-1.09-1.4a.54.54 0 00-.74-.1.52.52 0 00-.1.73L6.1 9.38c.06.09.19.1.28.04l.52-.4a.2.2 0 00.04-.28L5.87 7.36l.61-.47 1.14 1.47v6.44c0 .11.1.2.2.2h.64a.2.2 0 00.2-.2V11h.68v3.8c0 .11.1.2.2.2h.64a.2.2 0 00.2-.2V8.36L11.5 6.9l.61.48-1.06 1.38a.2.2 0 00.04.28l.52.4a.2.2 0 00.28-.04l2.46-3.18a.52.52 0 00-.1-.74.54.54 0 00-.74.1l-1.09 1.4-.6-.48 1.1-1.44a.52.52 0 00-.1-.73.54.54 0 00-.74.1z" fill="url(#a31ypfrnq)"/><path d="M5.44 5.54l.85-.64-.37-.47a.54.54 0 00-.75-.1.52.52 0 00-.1.73l.37.48zm7.13-.01l-.85-.63.37-.48a.54.54 0 01.75-.1c.23.17.27.5.1.74l-.37.47zm-8.6 1.1l.84-.64-.33-.42a.54.54 0 00-.74-.1.52.52 0 00-.1.73l.33.43zm10.06 0L13.2 6l.33-.43a.54.54 0 01.74-.1c.24.18.28.5.1.74l-.33.42z" fill="#51A7F3"/><defs><linearGradient id="a31ypfrnq" x1="9" y1="5" x2="9" y2="15" gradientUnits="userSpaceOnUse"><stop stop-color="#8D89C6"/><stop offset=".62" stop-color="#272264"/></linearGradient></defs></svg>