<!-- by TradingView --><svg width="18" height="18" viewBox="0 0 18 18" xmlns="http://www.w3.org/2000/svg"><path fill="#F0F3FA" d="M0 0h18v18H0z"/><path d="M5.5 6.2c.05 1.3 1.11 2.35 1.64 2.71l1.68-1.05C7.7 7.26 7.4 6.5 7.4 6.2c.03-1.13 1.13-1.49 1.64-1.47.4.02.78.17.91.25h.2v-.02c0-.2.16-.35.36-.35a.35.35 0 0 1 .36.37h.18a.42.42 0 0 1-.1-.27c0-.24.2-.43.44-.43.25 0 .45.2.45.43 0 .1-.04.2-.1.27h.47A3.57 3.57 0 0 0 9.04 3c-1.9.02-3.6 1.56-3.54 3.2Zm6.64 1.15a.36.36 0 0 1-.53.08v.03a.6.6 0 0 1-.6.6.6.6 0 0 1-.6-.7h-.46c-.48.35-1.78 1.14-2.37 1.49-.71.39-2.06 1.46-2.05 3.07.02 1.62 1.66 3.1 3.51 3.08 1.85-.02 3.4-1.47 3.46-3.08.05-1.28-1.04-2.4-1.58-2.8L9.2 10.19c.56.33 1.46.96 1.48 1.73 0 .78-.8 1.42-1.64 1.43-.83.01-1.63-.6-1.66-1.43-.02-.66.77-1.28 1.17-1.5l1.89-1.24c1-.52 1.6-1.43 1.77-1.83h-.07Z" fill="url(#abaki3jpm)"/><ellipse cx="10.5" cy="4.95" rx=".3" ry=".29" fill="url(#bbaki3jpm)"/><ellipse cx="11.39" cy="4.7" rx=".37" ry=".36" fill="url(#cbaki3jpm)"/><ellipse cx="11.79" cy="5.26" rx=".21" ry=".2" fill="url(#dbaki3jpm)"/><circle cx="11.29" cy="5.65" fill="url(#ebaki3jpm)" r=".26"/><ellipse cx="10.58" cy="5.84" rx=".34" ry=".33" fill="url(#fbaki3jpm)"/><circle cx="12.01" cy="6.07" fill="url(#gbaki3jpm)" r=".26"/><ellipse cx="11.14" cy="6.52" rx=".35" ry=".34" fill="url(#hbaki3jpm)"/><ellipse cx="10.31" cy="7" rx=".27" ry=".26" fill="url(#ibaki3jpm)"/><ellipse cx="11.83" cy="7.16" rx=".31" ry=".3" fill="url(#jbaki3jpm)"/><ellipse cx="11.02" cy="7.46" rx=".49" ry=".48" fill="url(#kbaki3jpm)"/><path d="M8.42 11h1.16v.48H10V12h-.42v.5H8.42V12H8v-.52h.42V11Z" fill="#00A59F"/><path fill="url(#lbaki3jpm)" d="M8 6h2v1H8z"/><defs><linearGradient id="abaki3jpm" x1="9" y1="3" x2="9" y2="15" gradientUnits="userSpaceOnUse"><stop stop-color="#00A79B"/><stop offset="1" stop-color="#009BD1"/></linearGradient><linearGradient id="bbaki3jpm" x1="10.73" y1="4.8" x2="10.24" y2="5.1" gradientUnits="userSpaceOnUse"><stop stop-color="#009AD1"/><stop offset="1" stop-color="#00A09D"/></linearGradient><linearGradient id="cbaki3jpm" x1="11.67" y1="4.51" x2="11.07" y2="4.87" gradientUnits="userSpaceOnUse"><stop stop-color="#009AD1"/><stop offset="1" stop-color="#00A09D"/></linearGradient><linearGradient id="dbaki3jpm" x1="11.94" y1="5.15" x2="11.61" y2="5.36" gradientUnits="userSpaceOnUse"><stop stop-color="#009AD1"/><stop offset="1" stop-color="#00A09D"/></linearGradient><linearGradient id="ebaki3jpm" x1="11.48" y1="5.52" x2="11.05" y2="5.78" gradientUnits="userSpaceOnUse"><stop stop-color="#009AD1"/><stop offset="1" stop-color="#00A09D"/></linearGradient><linearGradient id="fbaki3jpm" x1="10.83" y1="5.67" x2="10.28" y2="6" gradientUnits="userSpaceOnUse"><stop stop-color="#009AD1"/><stop offset="1" stop-color="#00A09D"/></linearGradient><linearGradient id="gbaki3jpm" x1="12.21" y1="5.93" x2="11.78" y2="6.19" gradientUnits="userSpaceOnUse"><stop stop-color="#009AD1"/><stop offset="1" stop-color="#00A09D"/></linearGradient><linearGradient id="hbaki3jpm" x1="11.4" y1="6.34" x2="10.83" y2="6.68" gradientUnits="userSpaceOnUse"><stop stop-color="#009AD1"/><stop offset="1" stop-color="#00A09D"/></linearGradient><linearGradient id="ibaki3jpm" x1="10.51" y1="6.86" x2="10.07" y2="7.13" gradientUnits="userSpaceOnUse"><stop stop-color="#009AD1"/><stop offset="1" stop-color="#00A09D"/></linearGradient><linearGradient id="jbaki3jpm" x1="12.06" y1="7" x2="11.56" y2="7.31" gradientUnits="userSpaceOnUse"><stop stop-color="#009AD1"/><stop offset="1" stop-color="#00A09D"/></linearGradient><linearGradient id="kbaki3jpm" x1="11.39" y1="7.22" x2="10.59" y2="7.7" gradientUnits="userSpaceOnUse"><stop stop-color="#009AD1"/><stop offset="1" stop-color="#00A09D"/></linearGradient><linearGradient id="lbaki3jpm" x1="9" y1="6" x2="9" y2="7" gradientUnits="userSpaceOnUse"><stop stop-color="#01A79D"/><stop offset="1" stop-color="#019CD0"/></linearGradient></defs></svg>