<!-- by TradingView --><svg xmlns="http://www.w3.org/2000/svg" width="18" height="18"><path fill="url(#andzeswq3)" d="M0 0h18v18H0z"/><path d="M14 6.5V6h-.04a.75.75 0 00-1.42 0H4v2L3 9l1 1v2h8.54a.75.75 0 001.42 0h.03v-.13a.76.76 0 000-.24v-.13h-.03a.75.75 0 00-1.42 0H4.5v-1.48l.97-.98-.97-.97V6.5h8.04a.75.75 0 001.42 0H14zm-.04 2.75a.75.75 0 01-1.42 0H8.46a.75.75 0 110-.5h4.08a.75.75 0 011.42 0H14v.5h-.04z" fill="#fff"/><defs><linearGradient id="andzeswq3" x1="15.01" y1="2.75" x2="2.95" y2="15.26" gradientUnits="userSpaceOnUse"><stop stop-color="#4E0F44"/><stop offset="1" stop-color="#7A2753"/></linearGradient></defs></svg>