<!-- by TradingView --><svg width="18" height="18" xmlns="http://www.w3.org/2000/svg"><path fill="#3C509E" d="M0 0h18v18H0z"/><path d="M8.976 9.55c-.22.108-.331.134-.508.134a.5.5 0 01-.49-.52c0-.331.229-.53.504-.53.151 0 .29.028.432.107.014.01.026.012.026-.006v-.35a1.67 1.67 0 00-.507-.08c-.538 0-.914.369-.914.86 0 .489.37.858.93.858.267 0 .476-.063.551-.1V9.56c0-.018-.015-.018-.024-.01M12.453 9c.004-.102.102-.368.353-.368.297 0 .354.276.354.368h-.707zm1.049.565a1.195 1.195 0 01-.62.163c-.332 0-.44-.239-.44-.375h1.152v-.099c0-.489-.248-.91-.788-.91-.517 0-.822.412-.822.877 0 .473.37.817.88.817.349 0 .576-.096.667-.131v-.333c0-.017-.019-.017-.03-.01zM4.552 10H5V7.696h-.448V10z" fill="#fff"/><path d="M11.808 9.645c-.144.064-.338.066-.406.017-.045-.033-.069-.091-.069-.172l.004-.8h.47v-.33h-.474v-.554c0-.011-.008-.015-.018-.012l-.432.212c.295 1.23-.086 2.522-1.054 3.482a3.825 3.825 0 01-5.375 0 3.744 3.744 0 010-5.327 3.819 3.819 0 013.574-.999l.007-.028a4.023 4.023 0 00-3.864 1.027 3.94 3.94 0 000 5.607c1.563 1.549 4.095 1.685 5.658.137.595-.59 1.01-1.285 1.15-2.048.014.015.029.03.045.043.142.117.481.142.784.061v-.316c.007-.006 0-.01 0 0z" fill="#fff"/><path d="M13.829 6.161a4.026 4.026 0 00-5.658 0c-.656.65-1.036 1.686-1.14 2.533-.099-.165-.264-.254-.537-.254-.2 0-.366.11-.494.226V8.51h-.434v1.487H6v-.998c.067-.073.208-.235.387-.235.178 0 .28.122.28.25v.983h.455c-.217-1.175.133-2.647 1.05-3.555a3.824 3.824 0 015.374 0 3.743 3.743 0 010 5.327 3.818 3.818 0 01-3.574.999l-.007.027a4.023 4.023 0 003.864-1.026 3.94 3.94 0 000-5.608z" fill="#fff"/><path d="M10.352 8.304l-.406.797-.397-.797h-.436l.624 1.207-.563 1.106h.428l1.178-2.313h-.428z" fill="#fff"/></svg>