<!-- by TradingView --><svg xmlns="http://www.w3.org/2000/svg" width="18" height="18" viewBox="0 0 18 18"><path fill="#F0F3FA" d="M0 0h18v18H0z"/><path opacity=".65" d="M7.9 2.5 7.77 6a3.8 3.8 0 0 1 2.32-.48l.3-.37-.38-.45.55-.53-.62-1.14-.92.65L7.89 2.5Z" fill="#0374A6"/><path opacity=".65" d="m12.28 3.2-2.23 2.7a3.8 3.8 0 0 1 2.13 1.04l.47-.1-.04-.6.76-.08.21-1.28-1.12-.05-.18-1.64Z" fill="#5D5B5B"/><path opacity=".65" d="m15.2 6.48-3.45.7a3.8 3.8 0 0 1 1 2.15l.43.21.35-.48.64.41.97-.86-.84-.75.9-1.38Z" fill="#8A1F68"/><path opacity=".65" d="m15.5 10.72-3.25-1.5c.02.16.01.33 0 .5a3.77 3.77 0 0 1-.48 1.83l.21.42.57-.18.27.72 1.3-.12-.23-1.1 1.61-.57Z" fill="#F20102"/><path opacity=".65" d="m12.98 14.34-1.49-3.19a3.8 3.8 0 0 1-1.85 1.49l-.1.46.54.22-.25.73 1.07.74.53-1 1.55.55Z" fill="#FF6601"/><path opacity=".65" d="m8.68 15.5.96-3.37a3.8 3.8 0 0 1-2.38-.1l-.38.29.27.53-.66.38.32 1.26 1.05-.4.82 1.41Z" fill="#F3C302"/><path opacity=".65" d="m4.36 13.52 3-1.82a3.81 3.81 0 0 1-1.66-1.68l-.47-.06-.17.57-.74-.17-.63 1.14 1.05.42-.38 1.6Z" fill="#95C916"/><path opacity=".65" d="m2.5 9.32 3.54.6a3.8 3.8 0 0 1-.17-2.38l-.32-.35-.5.33-.45-.62-1.21.46.51 1-1.4.96Z" fill="#62BAAF"/><path opacity=".65" d="M3.99 4.65 6.07 7.5A3.8 3.8 0 0 1 7.6 5.67l.01-.47-.58-.12.1-.76-1.2-.51-.32 1.08L4 4.65Z" fill="#018134"/></svg>