<!-- by TradingView --><svg width="18" height="18" viewBox="0 0 18 18" xmlns="http://www.w3.org/2000/svg"><path fill="#F0F3FA" d="M0 0h18v18H0z"/><path d="M7.24 5.04 7.84 4h2.34l.58 1.05a2.8 2.8 0 0 0-1.1 1.05c-.17.32-1.16.26-1.34 0-.29-.44-.6-.79-1.08-1.06ZM7.73 8.28c.64.18 1.09.43 1.27.72-.36-.36-1.03-.6-2-.7.38-.06.67-.18.95-.3l-.22.28Z"/><path d="m10.28 8.3-.21-.3c.22.13.58.23.93.3-.93.11-1.61.34-2 .7.23-.3.66-.53 1.28-.7Z"/><path d="M8 8.17 8.36 8l-.04.17c.5.21.7.49.68.83-.11-.35-.44-.63-1-.83Z"/><path d="M9 9c-.04-.34.2-.6.67-.83 0 0 .01.02 0 0L9.63 8l.38.17c-.54.2-.9.47-1 .83Z"/><path d="M12.83 6.94c-.2-.34-.5-.5-.86-.48-.68 0-.85.37-1.14.9.13.15.22.3.3.47.09.34.13.62-.1.91-.02.05-.05.07-.07.07-.48.12-.94.4-1.04.94l-.04.24c.03-.13.13-.35.27-.4.05-.03.08-.03.1-.03.35.06.6-.07.74-.38.07.2.13.4.13.59 0 .28-.07.32-.3.46l-.03.02c-.12.07-.23.14-.32.22-.22.2-.39.5-.5.77-.18-.34-.31-.63-.39-1a3.03 3.03 0 0 0 .44 1.53l-.03.18c-.17.36-.41.85-.88.48a.02.02 0 0 1 0-.04c.37-.2.76-.43-.1-.06h-.03c-.06-.03-.68-.2-.61-.08.06.1.16.1.26.1.09 0 .18 0 .26.04v.03c-.14.14-.42.21-.56.03a1.58 1.58 0 0 1-.13-.22c-.07-.15-.16-.31-.22-.34-.01-.06-.02-.12.02-.18.27-.48.4-.93.42-1.48a4 4 0 0 1-.41 1.02c-.11-.26-.23-.5-.42-.7-.1-.12-.22-.2-.34-.26-.2-.11-.37-.21-.37-.53 0-.2.06-.41.11-.57.13.28.37.4.67.38.29-.02.41.18.45.44-.04-.72-.45-1.02-1.1-1.2-.25-.33-.24-.8-.06-1.15l.22-.3-.08-.12c-.25-.4-.44-.69-.96-.76-.4-.07-.72.08-.94.45-.1.12-.17.27-.22.46-.12.48-.05.92.2 1.32.35.53.84.37.98-.2.05-.23.1-.47.1-.7l.17 1.03c-.04.26-.07.43-.1.53-.18.58-.68.69-1.2.5a3.24 3.24 0 0 1-.39-.2c-.7-.6-1.05-1.27-.93-2.2-.07.23-.1.46-.1.68 0 .69.35 1.3.9 1.83L3 13h5.65c-.07-.05-.1-.12-.14-.2l.49-.22.49.21-.02.04c-.03.07-.06.13-.11.17H15l-1.61-3c.55-.57.9-1.13.9-1.8 0-.22-.02-.48-.09-.74.14.89-.18 1.5-.84 2.12-.78.73-1.69.27-1.77-.76.03-.37.09-.69.16-1.01-.02.38.1 1.34.68 1.2.17-.03.34-.2.43-.35.31-.6.3-1.17-.03-1.72Z"/></svg>