<!-- by TradingView --><svg xmlns="http://www.w3.org/2000/svg" width="18" height="18" viewBox="0 0 18 18"><path fill="#F0F3FA" d="M0 0h18v18H0z"/><path d="M8.9 6.03A77.31 77.31 0 0 1 6.91 9.5h-.59c-.73 0-1.2-.02-1.86-.22-.7-.22-.96-.56-.96-1.1 0-.18.17-.61.26-.78l1.62-2.6c.27-.48.77-.8 1.3-.8h4.79c-1.4 0-1.82.84-2.57 2.03Z" fill="url(#asflsb2dg)"/><path d="M11.23 10.58C10.47 9.12 9 7.03 9 7.03s.06-.31 1.1-1.84a2.24 2.24 0 0 1 1.56-.89c.36 0 .68.32.86.61l1.74 2.97c.17.3.24.52.24.79 0 .25-.1.5-.23.71L12 13c0-.66 0-.97-.77-2.42Z" fill="url(#bsflsb2dg)"/><path d="M9 7.02s.12-.4 1.17-1.92c.38-.55.91-.8 1.32-.8.37 0 .7.11 1.05.62l.9 1.56c-.37-.38-.75-.98-1.95-.98S9.12 7.19 9.12 7.19L9 7.02Z" fill="#9997A4"/><path d="M6.15 10h4.09c.48.83.9 1.62 1.2 2.57l.04.14.03.24c0 .54-.46 1.05-1.06 1.05H7.47a1.6 1.6 0 0 1-1.32-.74L3.5 9.5c.92.39 1.63.5 2.65.5Z" fill="#8DB63F"/><path d="M10.24 10s.54.8 1.08 2.18c.12.29.18.5.18.73 0 .21-.04.4-.13.57-.2.35-.62.52-.94.52h-1.8c.47-.1 1.34-.37 1.77-1.17.1-.2.14-.43.14-.69 0-.84-.5-2.14-.5-2.14h.2Z" fill="#819756"/><defs><linearGradient id="asflsb2dg" x1="7.2" y1="2.89" x2="6.68" y2="10.39" gradientUnits="userSpaceOnUse"><stop offset=".24" stop-color="#23325A"/><stop offset=".4" stop-color="#7B7D97"/><stop offset=".57" stop-color="#22315A"/></linearGradient><linearGradient id="bsflsb2dg" x1="10.8" y1="6.71" x2="13.92" y2="10.6" gradientUnits="userSpaceOnUse"><stop offset=".17" stop-color="#C3C1C1"/><stop offset=".83" stop-color="#8C8D8F"/></linearGradient></defs></svg>