<!-- by TradingView --><svg xmlns="http://www.w3.org/2000/svg" width="18" height="18" viewBox="0 0 18 18"><path fill="#F0F3FA" d="M0 0h18v18H0z"/><path d="M8.98 14a5 5 0 0 0 4.67-6.84v.19c-.06.73-1.27 1.02-2.72.68-.14 1.89-1.1 5.63-3.81 5.61.57.23 1.2.36 1.86.36zm-4.56-2.92A4.96 4.96 0 0 1 4 9.4c.06-3.7 4.2-2.44 6.23-1.52-1.96 5.34-4.76 5.03-5.8 3.2zM4.2 7.52a5.02 5.02 0 0 1 7.48-2.74c-.49.16-.84 1.24-.96 1.84a32.7 32.7 0 0 0-1.51-.38l-.18-.03c-.55-.12-1.99-.43-3.1-.11-.84.25-1.44.95-1.73 1.42zm7.02-.78c.15-.64.67-1.84 1.35-1.17.83.83.64 1.51-1.35 1.17z" fill="url(#a1j4iw0ra)"/><defs><linearGradient id="a1j4iw0ra" x1="4.69" y1="10.73" x2="13.61" y2="7.41" gradientUnits="userSpaceOnUse"><stop stop-color="#FCAF01"/><stop offset="1" stop-color="#FF4B01"/></linearGradient></defs></svg>