<!-- by TradingView --><svg xmlns="http://www.w3.org/2000/svg" width="18" height="18" viewBox="0 0 18 18"><path fill="#F0F3FA" d="M0 0h18v18H0z"/><path d="M8.15 10.68h-1.6l.16-2.03h1.6l-.16 2.03z" fill="#8F8F8F"/><path d="M10.15 10.68H8.51l.16-2.03h1.63l-.15 2.03z" fill="#1F1F1F"/><path d="M12.1 10.68h-1.6l.16-2.03h1.58l-.14 2.03z" fill="#212121"/><path d="M7.98 13h-1.6l.16-2h1.6l-.16 2z" fill="#898989"/><path d="M9.98 13H8.34l.15-2h1.64l-.15 2zM11.92 13h-1.58l.15-2h1.6l-.17 2z" fill="#232323"/><path d="M6.02 13H4.5l.14-2h1.54l-.16 2z" fill="#B4B4B4"/><path d="M10.42 7.2C9.58 7.06 9.16 5.98 9 5.28h-.06l-.26 3.07h1.64l.1-1.15z" fill="#212423"/><path d="M10.78 7.2l-.1 1.15h1.59l.23-2.77c-.23.6-.8 1.54-1.72 1.61z" fill="#1F1F1F"/><path d="M12.1 4H9.6c-.09.3-.27.96-.28 1.27 0 .4.26 1.63 1.4 1.63 1.15 0 1.49-1.76 1.49-2.07 0-.25-.05-.66-.12-.83z" fill="url(#adrzqjhbi)"/><defs><linearGradient id="adrzqjhbi" x1="9.68" y1="4.18" x2="10.95" y2="6.23" gradientUnits="userSpaceOnUse"><stop stop-color="#F39C8E"/><stop offset="1" stop-color="#690100"/></linearGradient></defs></svg>