<!-- by TradingView --><svg width="18" height="18" xmlns="http://www.w3.org/2000/svg"><path fill="#2A7CC9" d="M0 0h18v18H0z"/><path d="M6.857 6c-.562 0-.799.282-.857 1.006h-.4v.412H6V11h.6V7.412h.97c-.404.36-.582.938-.582 1.596 0 1.092.634 1.921 1.519 1.933.893 0 1.513-.864 1.513-1.964 0-.129-.002-.179-.002-.25.162.283.507.367.919.564.488.227.758.423.758.762 0 .407-.314.635-.705.633-.383 0-.658-.169-.99-.5v.61c.203.143.463.204.803.204.261-.003.69-.039.987-.314.188-.174.32-.434.32-.817a.896.896 0 00-.32-.702 2.525 2.525 0 00-.61-.369c-.588-.321-.81-.388-.803-.756 0-.49.368-.67.67-.67.131 0 .242.03.348.071.2.08.28.266.35.444l.045.11.01.02c.002.01 0 .01 0 .005l.874 2.34c-.204.512-.436 1.145-.674 1.638h.6c.208-.507 1.224-2.805 1.414-3.312.215.268.345.353.812.574.486.227.763.423.763.762 0 .405-.355.648-.746.643-.396 0-.721-.236-1.07-.592v.647c.194.18.535.278.918.278.426 0 1.309-.17 1.309-1.155-.002-.59-.448-.85-.93-1.076-.588-.321-.788-.386-.781-.752 0-.49.325-.684.626-.684.344 0 .464.189.767.433v-.627A1.63 1.63 0 0015 7.004c-.557 0-.91.174-1.175.754L13 9.608l-.957-2.43c-.064-.02-.19-.073-.274-.092A2.921 2.921 0 0011.18 7c.025 0-.022-.002 0 0-.645 0-1.228.335-1.228 1.042 0 .041.002.083.004.12C9.727 7.311 9.227 7 8.58 7h-.018c-.073.003-.144 0-.212 0H6.6c0-.437.065-.649.388-.649.404 0 .478.178.652.356h.018l.002-.06v-.488A2.032 2.032 0 006.857 6zM2 6v5h.6V6H2zm2.527 1c-.59 0-.74.258-.936.492.007-.02-.009.01 0 0L3.6 7H3v4h.6V8.126c0-.339.32-.683.656-.683.405 0 .744.32.744.734v2.83h.6V7.932C5.6 7.58 5.21 7 4.527 7zm3.98.412c.658 0 .964.675.978 1.555.013.895-.368 1.608-.978 1.62-.6-.007-.959-.696-.974-1.579-.014-.892.338-1.596.975-1.596z" fill="#fff"/></svg>