<!-- by TradingView --><svg width="18" height="18" viewBox="0 0 18 18" xmlns="http://www.w3.org/2000/svg"><path fill="#F0F3FA" d="M0 0h18v18H0z"/><path d="M9.46 9c-.8.34-2.43 1.02-2.46 1.05l2 1.45 2-1.38L9.46 9ZM7 12.14 5.65 11c-.43.36-.65.73-.65 1 0 .22.62.76.92 1L7 12.14ZM6.94 8.15l-1.23-.91c-1.3.47-1.42.9-1.42 1 0 .07.08.2.12.26l.43.5 2.1-.85ZM8.7 13l-.7.3c.47.34.41.52.38.7.27-.18.62-.45.62-.64 0-.14-.2-.3-.3-.36Z" fill="#5D9335"/><path d="M5.1 5.9C4.56 6.2 4.15 7.42 4 8c.7-.76.96-.73 3.03-1.59C9.76 5.28 10 4.67 10 4.46c0-.22-.4-.46-.55-.46-.24.58-3.64 1.5-4.34 1.9Z" fill="url(#a5ssrqzdy)"/><path d="M13.45 6.71c0-.74-.62-1.45-.88-1.71A4.55 4.55 0 0 1 14 8.11c0 3.3-6.03 5.11-6.6 5.6-.15.14-.05.2 0 .29-.32.03-1.4-.4-1.4-1.03 0-.62 2.08-1.56 3-2.02 3.4-1.72 4.45-3.3 4.45-4.24Z" fill="url(#b5ssrqzdy)"/><path d="M10.83 12.36 10 13c.24.33.02.95 0 1 .81-.12 1.01-.72 1-1 0-.1 0-.48-.17-.64Z" fill="#5D9335"/><path d="M10.72 4.9c0-.48-.84-.8-1.26-.9C11.11 4.14 12 5.1 12 5.74c0 1.51-3.01 2.95-5.24 3.8-1.78.68-2.2 1.26-2.17 1.46A6.73 6.73 0 0 1 4 9.3c0-.45.72-.9 1.73-1.28 4.07-1.48 4.99-2.5 4.99-3.11Z" fill="url(#c5ssrqzdy)"/><defs><linearGradient id="a5ssrqzdy" x1="10" y1="4.52" x2="4.2" y2="4.52" gradientUnits="userSpaceOnUse"><stop offset=".77" stop-color="#85BE56"/><stop offset="1" stop-color="#33581A"/></linearGradient><linearGradient id="b5ssrqzdy" x1="14" y1="6.17" x2="6.27" y2="6.17" gradientUnits="userSpaceOnUse"><stop offset=".77" stop-color="#85BE56"/><stop offset="1" stop-color="#33581A"/></linearGradient><linearGradient id="c5ssrqzdy" x1="12" y1="4.91" x2="4.27" y2="4.91" gradientUnits="userSpaceOnUse"><stop offset=".77" stop-color="#85BE56"/><stop offset="1" stop-color="#33581A"/></linearGradient></defs></svg>