<!-- by TradingView --><svg width="18" height="18" viewBox="0 0 18 18" xmlns="http://www.w3.org/2000/svg"><path fill="#F0F3FA" d="M0 0h18v18H0z"/><path fill-rule="evenodd" d="M7 5a2 2 0 0 0-2 2v4c0 1.1.9 2 2 2h4a2 2 0 0 0 2-2V7a2 2 0 0 0-2-2H7Zm.26 1.35c0-.2.16-.35.36-.35h.87a.35.35 0 1 1 0 .7h-.87a.35.35 0 0 1-.36-.35Zm3.48 0c0-.2-.16-.35-.36-.35h-.87a.35.35 0 1 0 0 .7h.87c.2 0 .36-.15.36-.35ZM7.62 11.3a.35.35 0 0 0 0 .71h.87a.35.35 0 1 0 0-.7h-.87Zm3.12.36c0-.2-.16-.36-.36-.36h-.87a.35.35 0 0 0 0 .71h.87c.2 0 .36-.16.36-.35ZM6.99 7a.35.35 0 1 0 0 .7h1.5a.35.35 0 0 0 0-.7H7Zm4.38.35c0-.2-.16-.35-.35-.35h-1.5a.35.35 0 1 0 0 .7h1.5c.19 0 .35-.15.35-.35ZM6.99 10.3a.35.35 0 1 0 0 .71h1.5a.35.35 0 0 0 0-.7h-1.5Zm4.43.36c0-.2-.16-.36-.35-.36h-1.5a.35.35 0 0 0 0 .71h1.5c.2 0 .35-.16.35-.35ZM6.35 8a.35.35 0 0 0 0 .7H8.5a.35.35 0 1 0 0-.7H6.35Zm5.65.35c0-.2-.16-.35-.35-.35H9.5a.35.35 0 1 0 0 .7h2.14c.2 0 .35-.15.35-.35Zm-5.65.94a.35.35 0 0 0 0 .71H8.5a.35.35 0 1 0 0-.7H6.35Zm5.65.36c0-.2-.16-.36-.35-.36H9.5a.35.35 0 1 0 0 .71h2.14c.2 0 .35-.16.35-.35Z" fill="#09426A"/><path d="M5.5 7h-2a.5.5 0 0 0 0 1h2a.5.5 0 0 0 0-1ZM14.5 7h-2a.5.5 0 0 0 0 1h2a.5.5 0 0 0 0-1ZM5.5 9h-2a.5.5 0 0 0 0 1h2a.5.5 0 0 0 0-1ZM14.5 9h-2a.5.5 0 0 0 0 1h2a.5.5 0 0 0 0-1ZM5.5 11h-2a.5.5 0 0 0 0 1h2a.5.5 0 0 0 0-1ZM14.5 11h-2a.5.5 0 0 0 0 1h2a.5.5 0 0 0 0-1ZM6.5 5.5v-2a.5.5 0 0 1 1 0v2a.5.5 0 0 1-1 0ZM8.5 5.5v-2a.5.5 0 0 1 1 0v2a.5.5 0 0 1-1 0ZM10.5 5.5v-2a.5.5 0 0 1 1 0v2a.5.5 0 0 1-1 0ZM6.5 14.5v-2a.5.5 0 0 1 1 0v2a.5.5 0 0 1-1 0ZM8.5 14.5v-2a.5.5 0 0 1 1 0v2a.5.5 0 0 1-1 0ZM10.5 14.5v-2a.5.5 0 0 1 1 0v2a.5.5 0 0 1-1 0Z" fill="#09426A"/></svg>