<!-- by TradingView --><svg width="18" height="18" viewBox="0 0 18 18" xmlns="http://www.w3.org/2000/svg"><path fill="#F0F3FA" d="M0 0h18v18H0z"/><path fill-rule="evenodd" d="M8.75 5h.5v.68c2.74.08 4.95 1.43 5.2 3.16H15v.47h-.52c-.1 1.82-2.39 3.28-5.23 3.36V13h-.5v-.33c-2.84-.08-5.12-1.54-5.22-3.36H3v-.47h.55c.26-1.73 2.47-3.08 5.2-3.16V5ZM4.98 9.3c.1 1.5 1.73 2.69 3.77 2.78v-1.05c-1.22-.09-2.2-.8-2.4-1.72H4.99Zm1.36-.46H5c.22-1.4 1.8-2.49 3.75-2.57v.7c-1.29.1-2.31.88-2.41 1.87Zm.43.47h1.15v-.47H6.74c.1-.73.9-1.4 2.01-1.49v.78h.5v-.78c1.12.09 1.91.76 2.02 1.49H9.94v.47h1.3c-.18.67-.94 1.26-1.99 1.34v-.78h-.5v.78c-1.04-.08-1.8-.67-1.98-1.34Zm2.48-3.04c1.96.08 3.53 1.18 3.75 2.57h-1.33c-.1-.99-1.13-1.78-2.42-1.87v-.7Zm3.78 3.04h-1.38c-.19.91-1.17 1.63-2.4 1.72v1.05c2.05-.1 3.68-1.29 3.78-2.77Z" fill="#575651"/></svg>