<!-- by TradingView --><svg width="18" height="18" viewBox="0 0 18 18" xmlns="http://www.w3.org/2000/svg"><path fill="#F0F3FA" d="M0 0h18v18H0z"/><path d="M13.6 7.67a4.73 4.73 0 1 1-9.05 2.78 4.73 4.73 0 0 1 9.04-2.78Z" fill="url(#asn0dw0jk)"/><path d="M10.12 12.18a1.8 1.8 0 1 1 1.53-3.27 1.8 1.8 0 0 1-1.53 3.27Z" fill="#0E4722"/><path d="M12.63 9.48a2.63 2.63 0 0 0-3.46-2.05 2.63 2.63 0 0 0-1.34 3.79 2.63 2.63 0 0 0 3.12 1.1 2.63 2.63 0 0 0 1.68-2.84ZM8.95 6.83c1.9-.7 4 .56 4.31 2.55a3.27 3.27 0 0 1-2.1 3.54 3.27 3.27 0 0 1-3.87-1.37 3.27 3.27 0 0 1 1.66-4.72Z" fill="#0E4722"/><path d="M10 4.92a4.2 4.2 0 0 0-2.77 7.89 4.2 4.2 0 0 0 5.57-2.03A4.2 4.2 0 0 0 10 4.92ZM7.3 4.3a5 5 0 1 1 3.4 9.4 5 5 0 0 1-3.4-9.4Z" fill="#0E4722"/><path d="M10.37 6.17a3.39 3.39 0 1 0-1.61 6.58 3.39 3.39 0 0 0 1.6-6.58Zm-2.2-.56a4.1 4.1 0 0 1 5.1 5.59 4.1 4.1 0 0 1-5.44 1.98 4.1 4.1 0 0 1 .33-7.57Z" fill="#0E4722"/><path d="M11.04 8.39a1.95 1.95 0 1 0-.94 3.78 1.95 1.95 0 0 0 .94-3.78Zm-1.32-.47a2.51 2.51 0 0 1 3.12 3.43 2.52 2.52 0 0 1-3.35 1.2 2.51 2.51 0 0 1 .23-4.63Z" fill="#0E4722"/><path d="M10.35 11.86a1.42 1.42 0 1 1 1.06-2.64 1.42 1.42 0 0 1-1.06 2.64Z" fill="#FCEE22"/><defs><linearGradient id="asn0dw0jk" x1="11.67" y1="12.13" x2="6.93" y2="4.33" gradientUnits="userSpaceOnUse"><stop offset=".13" stop-color="#FCF043"/><stop offset=".47" stop-color="#FDF697"/><stop offset=".71" stop-color="#FDFACC"/><stop offset=".83" stop-color="#FDFBE0"/></linearGradient></defs></svg>