<!-- by TradingView --><svg xmlns="http://www.w3.org/2000/svg" width="18" height="18" viewBox="0 0 18 18"><path fill="#F0F3FA" d="M0 0h18v18H0z"/><path d="M5.09 4.73s3.7-1.7 7.87.09c0 0 .67 5.96-3.6 9.03-1.99 1.13-4.9-4.45-4.27-8.28-.02.1 0 .2.01.3a11.97 11.97 0 0 0 1.51 4.94c.15.26.31.5.48.75l.4.55c.03.04.06.08.11.1.18.07.16-.11.12-.19-.04-.1-.12-.18-.17-.28a16.33 16.33 0 0 1-.84-1.78c-.84-2.4-.55-3.93-.55-4.08.01.46.09 1.27.2 1.72.34 1.26.94 2.47 1.76 3.57.1.14.21.26.37.36.04.02.08.05.12.04.16-.02.12-.27.1-.35-.05-.14-.14-.27-.22-.4-.15-.22-.27-.46-.42-.7-1.2-1.92-1.06-3.4-.9-3.92-.07 1.08.46 2.7 1.96 4.22.6.36.89-.09.38-.82-.39-.47-1.68-1.78-1.45-3.13.04.92.94 1.95 1.37 2.39.16.15.31.32.5.45.15.1.41.28.6.21a.2.2 0 0 0 .14-.16c.05-.35-1.43-1.22-1.55-2.84a4.2 4.2 0 0 0 1.92 2.16c.1.05.23.1.35.07.08-.03.13-.1.15-.18.1-.37-.8-.6-1.25-1.82 0 0 .6.95 1.46 1.04 0 0 .78-1.05.74-2.75 0 0-2.76-1.25-7.4-.3z" fill="#2A317D"/></svg>