<!-- by TradingView --><svg xmlns="http://www.w3.org/2000/svg" width="18" height="18"><path fill="url(#az5pxf1zo)" d="M0 0h18v18H0z"/><path fill="#A7CD44" d="M5 4h7v1H5z"/><path d="M6.06 7H5v1h.5c.32 0 .5.25.5.38v3.17c.03 1.24.58 2.45 2.46 2.45 1.5 0 2.27-1.16 2.54-1.7v.72c0 .66.7.99.98.98H13v-1h-.5a.5.5 0 01-.5-.44V7h-1v3.1c0 1.37-.72 2.82-2.45 2.9-1.39.06-1.55-.88-1.55-1.45V7.83c-.01-.69-.67-.84-.94-.83z" fill="#fff"/><defs><linearGradient id="az5pxf1zo" x1="3.35" y1="3.12" x2="21.9" y2="24.43" gradientUnits="userSpaceOnUse"><stop stop-color="#1A1E21"/><stop offset="1" stop-color="#06060A"/></linearGradient></defs></svg>