<!-- by TradingView --><svg xmlns="http://www.w3.org/2000/svg" width="18" height="18" viewBox="0 0 18 18"><path fill="#F0F3FA" d="M0 0h18v18H0z"/><path d="M13.5 9.7c0 2.37-1.37 4.3-3.05 4.3-1.69 0-3.06-1.93-3.06-4.3 0-2.38 1.37-4.3 3.06-4.3 1.68 0 3.05 1.92 3.05 4.3zm-.56.36c0-1.96-1.01-3.55-2.26-3.55-1.25 0-2.26 1.59-2.26 3.55 0 1.96 1.01 3.55 2.26 3.55 1.25 0 2.26-1.59 2.26-3.55zM6.3 9.7c0 2.37.79 4.3.5 4.3C6.5 14 5 12.06 5 9.68 5 7.31 6.5 5.4 6.8 5.4c.29 0-.5 1.93-.5 4.3z" fill="#32477A"/><path d="M8.22 4.16c.27-.5.28-1 .01-1.13-.26-.13-.7.17-.97.67s-.28 1-.01 1.13c.26.13.7-.17.97-.67z" fill="#6C1431"/></svg>