<!-- by TradingView --><svg width="18" height="18" viewBox="0 0 18 18" fill="none" xmlns="http://www.w3.org/2000/svg">
<rect width="18" height="18" fill="#F0F3FA"/>
<path fill-rule="evenodd" clip-rule="evenodd" d="M10.2879 6H10.8818H11.9H12.4939L14 11H12.3879L12.0867 10H9.26969L8.61211 11H7L10.2879 6ZM9.92726 9H11.7855L11.2017 7.06191L9.92726 9Z" fill="url(#paint0_linear_228_6274)"/>
<path d="M6.85591 6C8.82546 6 10.7193 6.72386 11.42 7.08579C10.7118 6.81619 8.96935 6.27699 7.66531 6.27699C4.89985 6.27699 4.33305 7.41817 4.33305 8.22697C4.33305 10.5869 8.58714 12.5616 11.5774 12.5616C14.5677 12.5616 14.8963 11.1664 14.9975 10.8119C15.0762 12.1303 13.3199 13.1573 10.9929 12.98C4.23659 12.282 3 9.10224 3 8.06078C3 7.01931 4.39397 6 6.85591 6Z" fill="#0005D9"/>
<path fill-rule="evenodd" clip-rule="evenodd" d="M5.61175 6.58716C4.59155 6.98264 4.33293 7.68063 4.33293 8.22697C4.33293 10.5869 8.58701 12.559 11.5773 12.559C11.9312 12.559 12.2478 12.5387 12.531 12.5023C11.7322 12.6501 10.6862 12.6797 9.36268 12.4593C5.37186 11.7945 3.38208 9.21299 3.38208 8.10504C3.38208 7.21869 3.98164 6.7238 4.28142 6.58716H5.61175Z" fill="url(#paint1_linear_228_6274)"/>
<path fill-rule="evenodd" clip-rule="evenodd" d="M4.99327 12C4.86459 12 4.85043 11.7794 4.83699 11.6822C4.79924 11.4091 4.81188 11.1315 4.79679 10.8559C4.78941 10.721 4.78375 10.5856 4.77065 10.4512C4.63774 10.536 4.49632 10.617 4.31494 10.617C4.11287 10.617 4.00521 10.4251 3.86696 10.2986C3.83311 10.2677 3.81584 10.2624 3.80888 10.2624C3.49462 10.2624 3.23266 10.555 2.92034 10.6096C2.63158 10.6364 2.30435 10.6364 2 10.6364V10.4709C2.29396 10.4709 2.5398 10.4709 2.89662 10.4462C3.2198 10.3897 3.47776 10.0969 3.80888 10.0969C3.87191 10.0969 3.92463 10.136 3.96346 10.1715C4.06674 10.266 4.16943 10.4515 4.31494 10.4515C4.40903 10.4515 4.52683 10.4093 4.61003 10.3607C4.67365 10.3236 4.7467 10.2506 4.82305 10.2506C4.86898 10.2506 4.89001 10.2904 4.89309 10.2963C4.97212 10.4459 4.9383 10.6825 4.94737 10.8479C4.96298 11.1326 4.94792 11.4205 4.9926 11.7018C5.21826 10.437 5.16972 9.10984 5.28468 7.83002C5.30425 7.61218 5.288 7.23265 5.41999 7.04589C5.43192 7.02901 5.45796 7 5.49933 7C5.5489 7 5.57852 7.03883 5.5918 7.06058C5.65284 7.16058 5.66418 7.30214 5.68003 7.41708C5.81281 8.37997 5.77732 9.44181 5.78947 10.4127C5.78988 10.4449 5.81365 10.4709 5.84351 10.4709H10V10.6364H5.84351C5.73172 10.6364 5.64029 10.5383 5.63875 10.415C5.62669 9.45166 5.66273 8.39724 5.53099 7.44185C5.52216 7.37783 5.51304 7.32291 5.50376 7.27773C5.46835 7.46472 5.45175 7.65645 5.4347 7.84626C5.31944 9.1293 5.36364 10.4564 5.14203 11.7251C5.12657 11.8136 5.10743 12 4.99327 12Z" fill="#CC0000"/>
<defs>
<linearGradient id="paint0_linear_228_6274" x1="10.5" y1="6" x2="10.5" y2="11" gradientUnits="userSpaceOnUse">
<stop stop-color="#0005D9"/>
<stop offset="0.46875" stop-color="#5C5FE7"/>
<stop offset="0.494792" stop-color="#0005D9"/>
</linearGradient>
<linearGradient id="paint1_linear_228_6274" x1="7.95655" y1="6.58716" x2="7.95655" y2="12.6189" gradientUnits="userSpaceOnUse">
<stop stop-color="#0005D9"/>
<stop offset="0.479167" stop-color="#4A4EE4"/>
<stop offset="1" stop-color="#0005D9"/>
</linearGradient>
</defs>
</svg>
