<!-- by TradingView --><svg xmlns="http://www.w3.org/2000/svg" width="18" height="18"><path fill="#F0F3FA" d="M0 0h18v18H0z"/><path d="M6 9c0-1.74.97-3.25 2.39-4.04A4.22 4.22 0 003 9a4.22 4.22 0 005.4 4.04A4.64 4.64 0 016 9z" fill="#74B943"/><path fill-rule="evenodd" d="M6.6 9A4.2 4.2 0 1115 9a4.2 4.2 0 01-8.4 0zm1.5-1.04c0-.09-.06-.16-.15-.16s-.15.07-.15.16v2.08c0 .09.06.16.15.16s.15-.07.15-.16V7.96zm6.06-.16h-.94c-.24 0-.32.15-.32.38v1.87c0 .08.06.15.15.15s.14-.07.15-.15v-.83c0-.05 0-.07.07-.07h.57c.08 0 .13-.06.13-.15 0-.07-.05-.15-.13-.15h-.64v-.6c0-.1.02-.15.16-.15h.79c.08 0 .12-.08.12-.15 0-.07-.04-.15-.11-.15zM10.36 9c0 .52.4.94.94.94.55 0 .93-.42.93-.94a.92.92 0 00-.93-.94.94.94 0 00-.57.18 1.18 1.18 0 01.05 1.46.8.8 0 01-.24-.26c.06-.13.1-.28.1-.44a.92.92 0 00-.94-.94.92.92 0 00-.93.94c0 .52.39.94.93.94.22 0 .42-.07.57-.18a1.18 1.18 0 01-.05-1.46c.1.07.19.16.24.26a.97.97 0 00-.1.44zm.14-.96c.22-.15.5-.24.8-.24.72 0 1.3.5 1.3 1.2s-.58 1.2-1.3 1.2c-.3 0-.58-.09-.8-.24-.22.15-.5.24-.8.24-.72 0-1.3-.5-1.3-1.2s.58-1.2 1.3-1.2c.3 0 .58.09.8.24z" fill="#007C4C"/></svg>