<!-- by TradingView --><svg width="18" height="18" viewBox="0 0 18 18" xmlns="http://www.w3.org/2000/svg"><path fill="#F0F3FA" d="M0 0h18v18H0z"/><path fill="#1C314C" d="M3 8h1v4H3z"/><circle cx="3.5" cy="6.5" r=".5" fill="#1C314C"/><path d="M8 6a3 3 0 1 1 0 6 3 3 0 0 1 0-6Zm0 1a2 2 0 1 0 0 4 2 2 0 0 0 0-4Z" fill="#1C314C"/><path d="M14.48 9c.17.13.52.56.52 1.28 0 .9-.7 1.72-1.99 1.72-1.28 0-1.8-.77-2.01-1.79h1.02c.05.27.32.89.99.89.65 0 .94-.47.94-.89 0-.2-.05-.34-.07-.39l.6-.82ZM15 6.31c0 .14-.05.23-.24.5-.16.22-1.5 1.66-2.01 2.35l-.58-.8L13.39 7H11V6h4v.31Z" fill="url(#a)"/><defs><linearGradient id="a" x1="12.96" y1="6.1" x2="12.96" y2="11.78" gradientUnits="userSpaceOnUse"><stop offset=".05" stop-color="#375BA7"/><stop offset=".86" stop-color="#1DBDBD"/></linearGradient></defs></svg>