<!-- by TradingView --><svg width="18" height="18" xmlns="http://www.w3.org/2000/svg"><path fill="#F0F3FA" d="M0 0h18v18H0z"/><path d="M10.46 13.09c-.33.082-.68.123-1.032.123A4.306 4.306 0 015.116 8.91c0-.515.103-1.03.268-1.483-.02.145-.02.289-.02.453-.021 2.821 2.27 5.128 5.096 5.21z" fill="#82BD41"/><path d="M10.088 13.525c-.338.083-.699.124-1.059.124-2.457 0-4.427-1.945-4.427-4.325 0-.518.105-1.035.275-1.49-.021.144-.021.29-.021.455 0 2.835 2.33 5.154 5.232 5.236z" fill="#A1CD71"/><path d="M9.735 13.877A4.905 4.905 0 018.632 14C6.073 14 4 12.094 4 9.716c0-.512.11-1.025.287-1.476-.022.144-.022.287-.022.451 0 2.808 2.426 5.124 5.47 5.186z" fill="#C1DEA0"/><path d="M14 9c0 2.756-2.248 5-5.009 5h-.124a4.113 4.113 0 00-.991-8.11A4.135 4.135 0 004 8.576 5.007 5.007 0 018.991 4C11.752 4 14 6.244 14 9z" fill="#033C5A"/></svg>