<!-- by TradingView --><svg width="18" height="18" viewBox="0 0 18 18" xmlns="http://www.w3.org/2000/svg"><path d="M0 9a9 9 0 1 1 18 0A9 9 0 1 1 0 9Z" fill="#F0F3FA"/><path fill-rule="evenodd" d="M12.89 10.59c.08.14.15.29.25.44.1.14.33.36.68.52-.57 1.68-.54 2.11-.52 2.38V14h-1.75l.05-.12c.12-.24.35-.72.4-1.18a.93.93 0 0 1-.95.16 9.3 9.3 0 0 1-.58 1.14H8.92l.12-.2c.2-.31.5-.78.67-1.4l-.45.04-.03-.35-.27.02-.07 1a7.6 7.6 0 0 1-.98.09H7.9c-.15 0-.57 0-.99-.37l-.9-.8c-.02.68-.16 1.8-.19 1.97H4.4l.07-.37c.12-.54.2-.89-.1-2.23-.07-.26-.05-.59.1-.85a2.09 2.09 0 0 1-.38-1.87c.16-.6.45-1.54.67-2.2l-.43-.04c-.01-.16.1-.4.26-.52-.22-.27-.3-.55-.3-.8C4.3 3.97 5.46 3.99 5.85 4c-.27.43-.39.82-.26.9.06.05.16.02.3-.02.16-.04.36-.1.6-.1.26 0 .46.06.61.1.14.04.24.07.3.03.13-.09.02-.48-.25-.9.39-.02 1.54-.04 1.57 1.1 0 .3-.1.57-.28.79.12.15.24.36.26.54h-.5l.16.31.03.06a8.3 8.3 0 0 0 1.03 1.52 3.53 3.53 0 0 0 2.28 1.09c.74.05 1.19-.1 1.35-.46.1-.22.1-.44 0-.65-.23-.44-.9-.59-1.9-.78-.91-.17-1.56-.44-1.79-1.18 0-.02-.13-.47.15-.85.23-.31.66-.5 1.26-.5H14v.01c-.05.09-.28.56-.56.87-.37.39-.73.5-1.04.5-.5 0-.78-.29-1.01-.52-.2-.2-.34-.33-.55-.35h-.02c-.13 0-.71 0-.92.28a.54.54 0 0 0-.08.42c.14.45.51.67 1.41.84l.2.04c.77.14 1.7.31 2.04 1 .17.33.18.72.02 1.07-.18.4-.54.63-1.07.72.23.25.35.48.47.7Zm-.49-4.7c.3 0 .54-.19.72-.38h-1.4c.22.22.39.39.68.39Zm-7.42 7.62h.41c.08-.65.17-1.55.14-1.91l-.03-.03-.68-.63c-.05.12 0 .36.06.67.1.5.25 1.2.1 1.9Zm4.8 0h.41c.13-.23.32-.6.46-.94a1.21 1.21 0 0 1-.17-.24l-.27.02c-.1.49-.28.88-.43 1.16Zm1.1-1.5c.05.17.2.37.44.42a.44.44 0 0 0 .45-.18 4.7 4.7 0 0 0-.9-.23Zm1.41 1.5h.53c.06-.61.36-1.55.42-1.72v-.01a2.23 2.23 0 0 1-.8-1c-.16-.33-.41-.8-1.02-.9a4.02 4.02 0 0 1-2.56-1.46c.01.3-.05.71-.23 1.05l-.38-.34c.07-.16.11-.32.12-.49.05-.48-.09-1.02-.4-1.6l-.4-.74-.44.65.07.26-.18.32a2.5 2.5 0 0 0-.95 0L5.9 7.2h.9s.05-.13.02-.28c-.13-.55-.1-1.1.6-1.12h.2c.42 0 .6-.42.6-.7 0-.29-.22-.58-.45-.61.1.18.09.48.03.6a.5.5 0 0 1-.44.3c-.07 0-.15-.02-.25-.04-.16-.04-.37-.1-.62-.1-.26 0-.46.06-.62.1l-.25.04a.5.5 0 0 1-.45-.3.82.82 0 0 1 .03-.6c-.23.03-.46.31-.45.62 0 .35.3.73.7.8a6.6 6.6 0 0 1-.04.1l-.13.36a41.8 41.8 0 0 0-.74 2.42c-.18.67.01 1.26.57 1.76l.52.48.82.76c0-.32.1-.72.4-1.19l.37.33c-.28.46-.35.88-.22 1.21.1.27.35.47.66.54.15.03.5.02.76-.01l.04-.53-.79.06c.18-.19.39-.68.39-1.14h.48c0 .2-.03.4-.08.6h1.2v.23l.67-.05v-.03c-.34-.17-.7-.68-.53-1.43h.5c-.12.29-.1.79.24.99.2.12.5.18.78.24.49.1 1.04.22 1.15.74.07.34-.07.83-.19 1.15Zm-4.9-7.45c.02.24-.11.43-.39.44 0-.25.13-.43.4-.44Zm-1.72-.04c-.02.4.2.7.63.71.02-.4-.2-.7-.63-.7Z" fill="#0D3881"/></svg>