<!-- by TradingView --><svg xmlns="http://www.w3.org/2000/svg" width="18" height="18" viewBox="0 0 18 18"><path fill="#1C95D1" d="M0 0h18v18H0z"/><path d="M11.83 4.1c.67.16 1.2.58 1.58 1.26a6.4 6.4 0 0 1 .34 4.46 3.83 3.83 0 0 1-3.2 2.47c-1.76.23-3.43.32-3.82.34h-.02L4.59 14.5l.8-2.7c-.42-.25-1.6-1.05-1.85-2.26-.14-.72.08-1.46.68-2.2A9.02 9.02 0 0 1 10.8 4c.37 0 .71.04 1.03.1zm1.5 5.9l.1-.3c.35-1.17.4-2.95-.26-4.12-.5-.9-1.44-1.24-2.37-1.24A8.82 8.82 0 0 0 4.45 7.6c-.51.63-.71 1.26-.6 1.86.13.62.61 1.13 1.02 1.48.08-.3.34-1 1.07-1.16.94-.23 1.45.59 1.45.59s.17-1.63 1.62-1.73c1.45-.1 1.94 1.42 1.94 1.42s.27-.76 1.26-.76c.63 0 .97.42 1.11.7zM12 9a1 1 0 1 0 0-2 1 1 0 0 0 0 2zm-1.7-2.3a1.3 1.3 0 1 1-2.6 0 1.3 1.3 0 0 1 2.6 0zM6.2 9.24a.8.8 0 1 0 0-1.61.8.8 0 0 0 0 1.61z" fill="#fff"/></svg>