<!-- by TradingView --><svg width="18" height="18" xmlns="http://www.w3.org/2000/svg"><path fill="url(#paint0_linear)" d="M0 0h18v18H0z"/><path d="M14 7.074c0-.04-.037-.074-.084-.074h-.833c-.045 0-.083.033-.083.074v3.853c0 .041.038.073.083.073h.833c.047 0 .084-.032.084-.073V7.074zM9.723 7.074c0-.04-.037-.074-.084-.074h-.833c-.045 0-.083.033-.083.074v3.853c0 .041.038.073.083.073h.833c.047 0 .084-.032.084-.073V7.074zM7 10.465c0 .185-.075.266-.266.259-.185.006-.287-.077-.287-.259V7.66c0-.188.098-.256.283-.256.197 0 .268.063.27.256v2.806zm.932.646h-.257c-.09 0-.137-.016-.143-.043.275-.099.468-.25.468-.547V7.61c0-.591-.756-.706-1.249-.7-.476 0-1.241.118-1.241.7v2.913c.014.616.992.772 1.513.68.017.329.266.489.589.495h.32c.043 0 .068-.034.068-.077v-.435c0-.042-.025-.075-.068-.075zM4.917 7.01h-.834c-.045 0-.083.03-.083.068v.675c0 .038.037.069.083.069h.834c.046 0 .083-.03.083-.069v-.675c0-.038-.037-.068-.083-.068zM4.917 8.003h-.834a.082.082 0 00-.083.08v2.837c0 .044.038.08.083.08h.834A.082.082 0 005 10.92V8.083a.082.082 0 00-.083-.08zM12.808 7.1a.07.07 0 00.005-.026c0-.039-.032-.07-.072-.073h-.003L12.734 7h-.8a.079.079 0 00-.072.044l-.002.005s-.383 1.218-.423 1.426c-.04-.208-.484-1.426-.484-1.426s0-.003-.002-.005A.079.079 0 0010.879 7h-.753a.076.076 0 00-.07.074c0 .009.002.017.004.025L11 9.53v1.393c0 .041.033.077.076.077h.854c.043 0 .07-.036.07-.077V9.53l.808-2.43zM13.493 5.384c-.537-.456-3.358-.62-3.858-.63a32.661 32.661 0 00-1.27 0c-.5.01-3.321.174-3.858.63C4.135 5.701 4 6.09 4 6.556h.998c.012-.374.333-.626.676-.689A15.797 15.797 0 018.03 5.6a26.899 26.899 0 011.938 0c.801.03 1.498.112 2.353.267.344.063.663.315.677.689H14c0-.466-.135-.855-.507-1.172z" fill="#00BE06"/><path d="M4.507 12.726c.537.456 3.358.62 3.858.63.423.008.847.008 1.27 0 .5-.01 3.321-.174 3.858-.63.372-.317.507-.705.507-1.171h-.94c-.012.373-.332.626-.675.688-.855.156-1.615.237-2.416.268-.645.023-1.293.023-1.938 0a16.542 16.542 0 01-2.416-.268c-.343-.063-.662-.315-.676-.688H4c0 .466.135.855.507 1.171z" fill="#00BE06"/><defs><linearGradient id="paint0_linear" x1="3.349" y1="3.122" x2="21.904" y2="24.434" gradientUnits="userSpaceOnUse"><stop stop-color="#1A1E21"/><stop offset="1" stop-color="#06060A"/></linearGradient></defs></svg>