<!-- by TradingView --><svg width="18" height="18" xmlns="http://www.w3.org/2000/svg"><path fill="#63A50B" d="M0 0h18v18H0z"/><path d="M8 6.996L8.586 4h2.544c1.484 0 2.866.908 2.866 2.484 0 .424.077 1.588-.15 2.215-.348.965-.985 1.724-1.846 2.274L14 14h-3L7.795 8.982C7.434 10.905 7.325 12.072 7 14H4c.326-1.288.52-2.64 1.419-3.677.47-.616 1.145-1.082 1.87-1.237.282-.06.47-.104.687-.104h2.029c.737 0 .995-.386.995-.982s-.259-1.004-.995-1.004H8z" fill="#fff"/><path d="M6.013 6.998c-.894.044-1.565-.738-1.52-1.477 0-.87.67-1.521 1.565-1.521.984.043 1.565.739 1.565 1.52a1.597 1.597 0 01-1.61 1.478z" fill="#fff"/></svg>