<!-- by TradingView --><svg xmlns="http://www.w3.org/2000/svg" width="18" height="18" viewBox="0 0 18 18"><path fill="#F0F3FA" d="M0 0h18v18H0z"/><path d="M13.37 4.96a5 5 0 0 0-3.24-1.18c-2.7 0-4.89 2.1-4.89 4.67 0 .69.15 1.33.43 1.92-.63-.78-1-1.75-1-2.8A4.68 4.68 0 0 1 9.45 3c1.62 0 3.05.78 3.92 1.96z" fill="url(#afusmer0i)"/><path d="M13.54 12.7c.62-.93.9-2.08.7-3.25a4.86 4.86 0 0 0-5.6-3.87 5 5 0 0 0-1.9.71A4.82 4.82 0 0 1 9.45 4.9c2.6-.4 5.06 1.3 5.48 3.78a4.45 4.45 0 0 1-1.4 4.02z" fill="url(#bfusmer0i)"/><path d="M4.52 5.47a4.5 4.5 0 0 0-.76 3.24 4.85 4.85 0 0 0 5.52 3.97A5 5 0 0 0 11.2 12c-.7.7-1.66 1.2-2.75 1.34a4.75 4.75 0 0 1-5.4-3.88c-.23-1.54.37-3 1.47-3.99z" fill="url(#cfusmer0i)"/><path d="M5.06 13.5c.95.62 2.14.92 3.37.77a4.72 4.72 0 0 0 4.23-5.23 4.52 4.52 0 0 0-.68-1.84c.73.69 1.23 1.6 1.37 2.65a4.61 4.61 0 0 1-4.14 5.11 4.9 4.9 0 0 1-4.15-1.47z" fill="url(#dfusmer0i)"/><ellipse cx="9" cy="9" rx="1.21" ry="1.21" fill="#212BD2"/><ellipse cx="9" cy="9" rx=".61" ry=".61" fill="#949DED"/><defs><linearGradient id="afusmer0i" x1="12.22" y1="3.92" x2="5.27" y2="8.94" gradientUnits="userSpaceOnUse"><stop offset=".16" stop-color="#258BF5"/><stop offset=".73" stop-color="#55B4FF"/><stop offset="1" stop-color="#3295F7"/></linearGradient><linearGradient id="bfusmer0i" x1="14.95" y1="10.61" x2="9.46" y2="5.86" gradientUnits="userSpaceOnUse"><stop stop-color="#3461E0"/><stop offset=".31" stop-color="#5079E6"/><stop offset="1" stop-color="#2756DE"/></linearGradient><linearGradient id="cfusmer0i" x1="3.28" y1="7.12" x2="8.13" y2="13.59" gradientUnits="userSpaceOnUse"><stop stop-color="#353AD2"/><stop offset=".27" stop-color="#5757D9"/><stop offset="1" stop-color="#2028CE"/></linearGradient><linearGradient id="dfusmer0i" x1="8.49" y1="14.18" x2="13.28" y2="9.02" gradientUnits="userSpaceOnUse"><stop stop-color="#C9844C"/><stop offset=".71" stop-color="#FEB157"/><stop offset="1" stop-color="#DB9350"/></linearGradient></defs></svg>