<!-- by TradingView --><svg width="18" height="18" viewBox="0 0 18 18" xmlns="http://www.w3.org/2000/svg"><path fill="#F0F3FA" d="M0 0h18v18H0z"/><path d="M2 6h1.56v6H2V6Z" fill="#094F69"/><path d="M4 12V6h2.34c.48-.02 1.44.26 1.42 1.57-.02 1.3-.8 1.52-1.03 1.52.3.02.91.28.92 1.16.01 1.1.04 1.43.18 1.75h-1.5c-.03-.03-.12-.2-.13-.67l-.04-1.08c0-.19-.09-.56-.6-.56V12H4Zm1.78-5.45a2.9 2.9 0 0 1-.4.87 1.5 1.5 0 0 0-.29.69c-.02.34.33.72.7.7a.7.7 0 0 0 .63-.7c0-.26-.17-.57-.3-.8a23.74 23.74 0 0 1-.34-.76Z" fill="#FAAB42"/><path d="M13.74 10.41 15.27 12l.73-.75-1.53-1.58 1.52-1.54-.73-.73-1.5 1.54-1.56-1.6-.73.71 1.56 1.62-1.17 1.19.32 1.14 1.56-1.59Z" fill="#9F9E9A"/><path fill-rule="evenodd" d="M8.4 6v6h.56a.22.22 0 0 1-.08-.05c-.1-.1-.16-.33-.17-.43.1 0 .31 0 .42.1l.04.06v-.34a.2.2 0 0 1-.3 0c-.09-.1-.15-.33-.16-.43.1 0 .31.01.42.11l.04.06v-.35a.2.2 0 0 1-.3 0c-.09-.1-.15-.33-.16-.43.1 0 .31 0 .42.1l.04.06v-.34a.2.2 0 0 1-.3 0c-.09-.1-.15-.33-.16-.43.1 0 .31.01.42.11l.04.06V9.5a.2.2 0 0 1-.3 0c-.09-.1-.14-.33-.16-.43.1 0 .31 0 .42.1l.04.06V8.9a.2.2 0 0 1-.3 0c-.09-.1-.15-.33-.16-.43.1 0 .31 0 .42.1l.04.06v-.27a.24.24 0 0 1-.15-.24c0-.14.12-.33.18-.41.07.07.2.26.2.41 0 .15-.09.22-.15.24v.27a.28.28 0 0 1 .04-.05c.1-.1.32-.12.42-.11-.02.1-.07.33-.17.43a.2.2 0 0 1-.3 0v.34a.28.28 0 0 1 .05-.05c.1-.1.32-.12.42-.11-.02.1-.07.33-.17.42a.2.2 0 0 1-.29.01v.34a.28.28 0 0 1 .04-.05c.1-.1.32-.11.42-.1-.02.1-.07.32-.17.42a.2.2 0 0 1-.3 0v.33a.28.28 0 0 1 .05-.04c.1-.1.32-.12.42-.11-.02.1-.07.33-.17.42a.2.2 0 0 1-.3.01v.34a.28.28 0 0 1 .05-.05c.1-.1.32-.11.42-.1-.02.1-.07.32-.17.42a.2.2 0 0 1-.3 0v.33a.28.28 0 0 1 .05-.04c.1-.1.32-.12.42-.11-.02.1-.07.33-.17.43a.22.22 0 0 1-.08.05H10V9.69c.52 0 .57.37.56.56l.05 1.08c0 .47.1.64.13.67h1.5c-.15-.32-.17-.66-.18-1.75-.01-.88-.62-1.14-.92-1.16.23 0 1-.21 1.03-1.52.02-1.3-.95-1.6-1.43-1.57H8.41Zm.93 6a.2.2 0 0 1-.08-.05V12h.08Zm-.16 0v-.05a.2.2 0 0 1-.08.05h.08Zm1.16-5H10v1.67h.33c.18-.03.4-.15.4-.9.01-.6-.27-.77-.4-.77Z" fill="#203E22"/></svg>