<!-- by TradingView --><svg xmlns="http://www.w3.org/2000/svg" width="18" height="18"><path fill="#F0F3FA" d="M0 0h18v18H0z"/><path d="M5 5h8v8H5V5zm1 1v.19h.58c.44.9.86 1.9 1.3 2.8L7.03 9c-.33-.7-.67-1.3-1-2H6v3h6V7h-.09c-.33.69-.67 1.3-1 2h-.86c.42-.9.93-1.79 1.37-2.68v-.17H12V6h-1.5c-.2 1.14-.46 1.86-.65 3h-.63l.48-3H8.28l.48 3h-.6c-.19-1.13-.44-1.87-.62-3H6z"/><path d="M7.75 6H6v.54h.66l.59 1.23L7.84 9h-.5L6.4 7H6v3h6V7h-.4l-.94 2h-.49l1.17-2.46H12V6h-1.75l-.27 1.56L9.72 9h-.47l.25-1.5.25-1.5h-1.5l.23 1.5.23 1.5h-.42c-.08-.51-.18-1-.27-1.5-.1-.5-.19-.99-.27-1.5zM12 11H6v1h6v-1z" fill="#70A39A"/></svg>