<!-- by TradingView --><svg width="18" height="18" xmlns="http://www.w3.org/2000/svg"><path fill="#99C03C" d="M0 0h18v18H0z"/><path d="M5.498 3.115l.628.49c1.56 1.218 2.772 2.8 3.46 4.695.69 1.882.777 3.87.36 5.805l-.167.78-.628-.49c-.201-.157-.397-.32-.586-.489v.658l-.726-.37c-1.295-.658-2.405-1.617-3.183-2.866A7.672 7.672 0 013.5 7.24v-.818l.728.373c.317.162.62.34.91.536a10.809 10.809 0 01.192-3.437l.168-.78zm-.086 5.7a7.22 7.22 0 00-.854-.668 6.61 6.61 0 002.945 4.695 4.782 4.782 0 00-.004-.03 10.205 10.205 0 01-2.087-3.998zm.75-3.869c-.194 1.493-.053 2.99.468 4.411v.001a9.347 9.347 0 002.484 3.696c.195-1.492.054-2.99-.467-4.411v-.001a9.347 9.347 0 00-2.484-3.696zm7.89-.068l.198.77a7.847 7.847 0 01-.182 4.532v.002c-.517 1.498-1.47 2.801-2.71 3.844l-.609.512-.197-.771a7.73 7.73 0 01.183-4.534c.516-1.498 1.47-2.8 2.709-3.843l.609-.512zm-.607 1.873c-.8.819-1.406 1.766-1.765 2.809l-.001.003a6.66 6.66 0 00-.323 3.103c.8-.819 1.406-1.767 1.766-2.81a6.853 6.853 0 00.323-3.105z" fill="#fff"/></svg>