<!-- by TradingView --><svg width="18" height="18" viewBox="0 0 18 18" xmlns="http://www.w3.org/2000/svg"><path fill="#F0F3FA" d="M0 0h18v18H0z"/><path d="M9.2 8.2c-.1.3-.17.52-.17.66l.04 3.4v.91l.48-2.02c.04-.2.16-.58.29-.97.15-.49.3-.99.31-1.14l.02-.27c.01-.32.03-.6.09-.94a5.04 5.04 0 0 1 1.15-2.45l.02-.03c.06-.05.1-.1.16-.09.14.76-.12 1.65-.36 2.24-.18.43-.4.73-.61 1.01-.15.2-.3.4-.41.62-.13.25-1.13 3.98-1.1 4.32l.17-.47.17-.48c.43-1 .73-1.4 1.01-1.76a5.41 5.41 0 0 0 .72-1.23l.2-.43c.37-.79 1.06-1.8 1.93-2.08-.15 1.2-1.03 2.16-1.93 2.81-.09.07-.15.07-.2.07-.06 0-.11 0-.18.12-.18.34-.36.59-.55.86-.14.2-.3.4-.46.67-.05.15-.14.31-.23.48-.11.2-.22.39-.28.58-.27.89-.1.77-.1.76l.85-1.01c.32-.37.69-.65 1.06-.94l.33-.25c.07-.05.11-.1.16-.16l.1-.12.17-.15c.13-.12.26-.24.4-.33.34-.23 1-.59 1.55-.5a3.26 3.26 0 0 1-2.12 1.24c-.21.04-.22.04-.33.13a7.11 7.11 0 0 1-.34.26l-.05.05c-.12.09-.2.15-.3.26l-.58.55-.07.07c-.08.07-.16.15-.22.23l-.91 1.24v.01l-.05.06L9 14H9l-.04-.02-.03-.06L8 12.68a2.1 2.1 0 0 0-.21-.23l-.07-.07-.59-.55a2.86 2.86 0 0 0-.35-.3 4.79 4.79 0 0 0-.33-.27c-.12-.09-.12-.1-.34-.13A3.27 3.27 0 0 1 4 9.88c.54-.08 1.22.28 1.55.5.15.1.27.22.4.34l.17.15c.04.04.08.08.1.12l.16.16.33.25c.37.29.75.57 1.07.94l.84 1c0 .02.17.14-.1-.75-.06-.19-.17-.39-.27-.58-.1-.17-.18-.33-.24-.48-.16-.26-.31-.47-.45-.67-.2-.27-.38-.52-.56-.86-.06-.12-.11-.12-.17-.12-.06 0-.12 0-.2-.07-.9-.65-1.78-1.6-1.94-2.81.87.29 1.56 1.3 1.94 2.08l.2.43.18.41c.19.36.36.58.53.82.28.37.58.77 1.01 1.76l.17.48.17.47c.04-.34-.96-4.07-1.1-4.32-.1-.22-.25-.42-.4-.62-.21-.28-.43-.58-.61-1.01a4.25 4.25 0 0 1-.37-2.24c.06-.01.1.04.16.1l.03.02a5.04 5.04 0 0 1 1.15 2.45c.06.34.07.62.09.94l.01.27c.02.15.17.65.32 1.14.12.4.24.78.28.97l.52 2.16c.01-.25.04-4.3 0-4.57-.02-.11-.07-.25-.13-.44a6.23 6.23 0 0 1-.43-2.24c0-.62.3-1.72.6-2.06.33.35.58 1.47.58 2.06 0 .86-.23 1.61-.4 2.14Z" fill="#010101"/></svg>