<!-- by TradingView --><svg width="18" height="18" viewBox="0 0 18 18" xmlns="http://www.w3.org/2000/svg"><path fill="#072D6C" d="M0 0h18v18H0z"/><path d="m14.02 6.54.73-1.28A10.5 10.5 0 0 0 11.8 5c-2.3 0-3.36.68-3.36 1.26s.94 1.03 2.12 1.15c1.18.13 2.21.24 2.21.42s-.4.37-1.43.37c-1.34 0-1.98-.63-2.15-.97l-.42-.07L8 8.44c.35.14 1.49.4 3.27.4 2.22 0 3.73-.58 3.73-1.33 0-.76-1.06-.89-1.89-1.1-.96-.1-2.36-.29-2.55-.4 0-.27.7-.4 1.24-.4 1.08 0 1.65.57 1.8.86l.42.07ZM13.31 10.6l1.27-1.32c-.37-.1-1.9-.28-5.06-.28-3.95 0-5.85.71-5.85 1.32 0 .6 1.7 1.07 3.72 1.2 2.02.12 3.94.24 3.94.43 0 .2-.78.43-2.53.43-2.3 0-3.46-.7-3.76-1.06l-.72-.07L3 12.59c.6.13 2.55.41 5.6.41 3.82 0 6.4-.6 6.4-1.39 0-.79-1.81-.92-3.23-1.14-1.65-.1-4.06-.3-4.38-.42 0-.28 1.21-.43 2.13-.43 1.85 0 2.82.61 3.07.9l.72.08ZM3 5v.63c.2.01 1 .13 1 .43v1.9c-.02.13-.47.4-1 .4V9h4v-.65c-.53 0-.98-.26-1-.4v-1.9c0-.3.8-.4 1-.42V5H3Z" fill="#FEFCFD"/></svg>