<!-- by TradingView --><svg xmlns="http://www.w3.org/2000/svg" width="18" height="18"><path fill="#F0F3FA" d="M0 0h18v18H0z"/><path fill-rule="evenodd" d="M6.84 8.78c0-.29.07-.99.64-1.39l.64-.45c.04-.04.67-.3 1.27-.3.07.02.23.05.35.12.16.1.5.27.78.4.3.11.83.39 1 1.5a2.21 2.21 0 01-2.02 2.46c-1.05.09-1.8-.42-2.02-.68a2.48 2.48 0 01-.64-1.66zm.63.17c0-.47.4-1.53 1.88-1.5 1.53.03 1.59 1.14 1.42 1.75-.13.48-.67 1.44-1.72 1.43-1.05 0-1.56-.94-1.58-1.68z" fill="url(#a3nfkqswb)"/><path d="M10.09 3.95c.14-.27.21-.56.23-.67.1-.03.15.01.16.04 0 .48-.1 1.1-.16 1.34-.14.57-.38 1.71-.23 1.69.14-.03.16-.17.16-.31.35-.9.61-.8.76-.8.11 0 .21-.1.25-.16.07-.25.36-.71.5-.9l.08.1c-.44.8-.63 1.43-.67 1.68-.4-.2-.63.28-.69.55-.03.11-.18.27-.57 0-.5-.33 0-2.22.18-2.56z" fill="url(#b3nfkqswb)"/><path d="M11.95 6.5c-.76.1-.96.34-.97.46.16.45.88.4 1.04.15.16-.27.4-.38.56-.4.17-.02.4.13.51.3.1.12.32.08.43.04l.86-.55c-.08-.19-.49-.05-.64.06-.14.1-.51.17-.6-.06-.05-.18-.32-.17-.45-.14-.1.02.02.05-.74.14z" fill="url(#c3nfkqswb)"/><path d="M14.05 8.89c.54-.05.86-.35.95-.49-.14-.02-.45-.03-.65.1-.2.14-.42.1-.5.06a5.4 5.4 0 00-.74-.52c-.24-.12-.6-.05-.74 0-.18.03-.54.13-.56.36-.02.24.17.28.27.28.05-.05 1.05-.33 1.34-.04.22.23.52.26.63.25z" fill="url(#d3nfkqswb)"/><path d="M13.93 10.88c.6 0 .67.13.64.2-.8.03-1.65-.08-1.88-.47-.19-.3-.42-.5-.52-.56-.16.02-.5 0-.52-.26-.02-.25.23-.24.35-.2.61.1.93.52 1 .72.06.2.33.58.93.57z" fill="url(#e3nfkqswb)"/><path d="M12 11.7c.64.16 1.15.83 1.32 1.14a.62.62 0 01-.43-.2c-.23-.26-.55-.64-1.03-.67-.48-.02-.65-.14-.74-.27-.01-.06-.1-.18-.37-.18-.26 0 .26.65.56.96l-.07.05c-.24-.24-.17-.13-.52-.41-.28-.23-.36-.42-.36-.53-.03-.53.68-.66.99-.33.24.27.54.4.66.44z" fill="url(#f3nfkqswb)"/><path d="M9.62 12.81c.02-.94.1-1.38.14-1.48-.2-.09-.57-.09-.72-.07v.44c.14.32.38 1.06.22 1.47-.16.41-.1.82-.07.97l.21.86c.12-.13.12-.33.1-.41-.1-.47-.1-.72 0-1.03.1-.25.12-.6.12-.75z" fill="url(#g3nfkqswb)"/><path d="M5.81 13.6c-.03.11.02.17.05.18.19-.42.65-.8 1.24-.85.46-.04.69-.28.74-.4.1-.16.33-.5.51-.6.18-.12.18-.21.16-.25a.9.9 0 00-.34-.34c-.25-.15-.36.04-.6.58-.23.54-.5.62-1.06.77-.56.16-.65.77-.7.9z" fill="url(#h3nfkqswb)"/><path d="M6.05 11.43c.7-.42 1.24-.48 1.42-.46 0-.18-.18-.53-.6-.86-.42-.32-.24-.84-.24-1.3 0-.31-.13-.44-.25-.47l-1.05-.51c-.15-.08-.67-.04-.81 0-1.08-.27-1.4-.26-1.52-.21.4.14 1.1.64 1.4.88.23.02.46-.13.55-.2l.9.33c.11.02.32.13.32.36 0 .23-.2.29-.31.28-.38.02-1.15.09-1.16.2 0 .12.16.14.25.13a6.56 6.56 0 011.43 0c.05.35-.45.32-.86.51-.34.16-.42.4-.43.5-.19.53-1.09 1.16-1.51 1.42v.12l.82-.33c.78-.35.77-.65.93-.96.12-.25.34-.27.44-.24.13-.07.5-.2.92-.23.41-.02.26.22.13.34-.62.24-.77.57-.77.7z" fill="url(#i3nfkqswb)"/><path d="M7.05 7.6c-.18.17-.29.52-.32.68a2.61 2.61 0 00-1.09-.87c-.19-.04-.15-.12-.1-.15.8.34 1.09.27 1.13.19a.87.87 0 00-.33-.4c-.17-.1-.25.03-.27.1a3.9 3.9 0 01-1.15-1.29c.13.1.44.36.62.56.18.21.46.04.58-.07.18.27.73.58.85.63.12.06.31.4.08.61z" fill="url(#j3nfkqswb)"/><path d="M7.4 5.45a4.7 4.7 0 00-1.33-1.76l.67 1.02v.57c.18.1.46.44.58.6.41.63.43.78.39.78-.39.06-.5-.4-.67-.58-.13-.15-.17-.06-.18 0 .12.37.42.92.53 1.02.11.1.3.03.49-.23.14-.2.29-.23.34-.21.05-.1.02-.36-.4-.58-.43-.22-.59-.51-.62-.63h.2z" fill="url(#k3nfkqswb)"/><path d="M8.56 5.2A5.7 5.7 0 008.24 3c.64.34.68 1.78.67 2.2 0 .33.16.7.24.83 0 .23-.21.3-.32.31-.11.01-.33-.2-.27-1.14z" fill="url(#l3nfkqswb)"/><defs><linearGradient id="a3nfkqswb" x1="10.32" y1="8.58" x2="7.04" y2="9.16" gradientUnits="userSpaceOnUse"><stop stop-color="#D3613A"/><stop offset="1" stop-color="#F89923"/></linearGradient><linearGradient id="b3nfkqswb" x1="9.35" y1="4.49" x2="11.22" y2="5.72" gradientUnits="userSpaceOnUse"><stop stop-color="#F89923"/><stop offset=".84" stop-color="#D3613A"/></linearGradient><linearGradient id="c3nfkqswb" x1="13.43" y1="6.82" x2="10.98" y2="7.08" gradientUnits="userSpaceOnUse"><stop offset=".4" stop-color="#D3613A"/><stop offset="1" stop-color="#F89923"/></linearGradient><linearGradient id="d3nfkqswb" x1="14.8" y1="8.43" x2="11.81" y2="8.43" gradientUnits="userSpaceOnUse"><stop offset=".38" stop-color="#F89923"/><stop offset="1" stop-color="#F5D329"/></linearGradient><linearGradient id="e3nfkqswb" x1="11.8" y1="9.71" x2="14.37" y2="11.05" gradientUnits="userSpaceOnUse"><stop stop-color="#F5D329"/><stop offset=".61" stop-color="#F89923"/></linearGradient><linearGradient id="f3nfkqswb" x1="12.54" y1="12.28" x2="10.35" y2="11.25" gradientUnits="userSpaceOnUse"><stop offset=".3" stop-color="#D3613A"/><stop offset="1" stop-color="#F89923"/></linearGradient><linearGradient id="g3nfkqswb" x1="9.4" y1="11.25" x2="9.4" y2="12.59" gradientUnits="userSpaceOnUse"><stop stop-color="#F89923"/><stop offset="1" stop-color="#D3613A"/></linearGradient><linearGradient id="h3nfkqswb" x1="8.11" y1="11.43" x2="5.77" y2="13.43" gradientUnits="userSpaceOnUse"><stop offset=".5" stop-color="#F89923"/><stop offset="1" stop-color="#F5D329"/></linearGradient><linearGradient id="i3nfkqswb" x1="6.65" y1="9.53" x2="3.37" y2="10" gradientUnits="userSpaceOnUse"><stop offset=".59" stop-color="#F89923"/><stop offset="1" stop-color="#F5D329"/></linearGradient><linearGradient id="j3nfkqswb" x1="4.92" y1="5.67" x2="6.48" y2="7.37" gradientUnits="userSpaceOnUse"><stop stop-color="#F89923"/><stop offset=".81" stop-color="#D3613A"/></linearGradient><linearGradient id="k3nfkqswb" x1="6.25" y1="3.96" x2="7.85" y2="6.72" gradientUnits="userSpaceOnUse"><stop stop-color="#F5D329"/><stop offset="1" stop-color="#F89923"/></linearGradient><linearGradient id="l3nfkqswb" x1="8.69" y1="3" x2="8.69" y2="6.34" gradientUnits="userSpaceOnUse"><stop stop-color="#F89923"/><stop offset=".66" stop-color="#D3613A"/></linearGradient></defs></svg>