<!-- by TradingView --><svg width="18" height="18" xmlns="http://www.w3.org/2000/svg"><path fill="#4B3C32" d="M0 0h18v18H0z"/><path d="M10.727 9.495a.648.648 0 01-.804.415.622.622 0 01-.428-.78.648.648 0 01.805-.415c.34.1.532.45.427.78z" fill="#fff"/><path d="M9.442 10.245a1.165 1.165 0 01-.496-.934.13.13 0 00-.081-.105l-3.218-.971s-.099-.016-.148-.016a.611.611 0 00-.216 1.189l2.044.618-3.973 2.082h.001l-.001.001a.657.657 0 00.128 1.219.674.674 0 00.507-.053c.01-.004 3.931-2.057 3.931-2.057l-.607 1.957a.614.614 0 00.421.74l.007.001a.624.624 0 00.763-.382l.982-3.161a.13.13 0 00-.044-.128zm4.536 1.025a.5.5 0 00-.315-.618l-2.427-.733a.133.133 0 00-.134.043c-.22.31-.581.499-.966.5v.001a.132.132 0 00-.117.09l-.743 2.397h.002a.499.499 0 00.343.602h.005a.508.508 0 00.62-.31h.002l.51-1.644 1.147 2.117h.001a.545.545 0 00.477.285c.09.001.18-.02.265-.065a.537.537 0 00.223-.731l-1.126-2.084 1.62.489a.507.507 0 00.612-.339zM6.117 7.798V7.8l2.905.873c.05.013.1-.004.132-.04.213-.305.563-.493.938-.505a.133.133 0 00.116-.088l.882-2.851h-.002a.565.565 0 00-.39-.683l-.013-.003a.574.574 0 00-.695.355l-.58 1.865-1.302-2.4h-.002A.617.617 0 007.556 4c-.099 0-.2.024-.292.073a.608.608 0 00-.252.83L8.29 7.265l-1.838-.553s-.096-.017-.144-.017a.567.567 0 00-.192 1.104zm4.68.532c.317.212.51.567.518.944a.132.132 0 00.09.115l1.548.466s.064.01.096.01a.374.374 0 00.355-.262l.002-.004a.369.369 0 00-.234-.452l-1.233-.373 1.588-.836v-.001a.398.398 0 00-.195-.751.402.402 0 00-.189.047l-1.563.821.365-1.175.002-.006a.37.37 0 00-.367-.462.377.377 0 00-.351.246h-.001l-.476 1.532a.13.13 0 00.045.14" fill="#F07300"/></svg>