<!-- by TradingView --><svg width="18" height="18" viewBox="0 0 18 18" xmlns="http://www.w3.org/2000/svg"><path fill="#F0F3FA" d="M0 0h18v18H0z"/><path d="M2 7.25c.66-.11 2.4-.1 4.03.83a70.2 70.2 0 0 0 1.72-.28l.08-.01c.27-.06.45-.1.35-.19-.07-.06-.3 0-.58.06l-.45.1c-.48.09-1.16.14-1.12.07.05-.07.76-.16 1.06-.2.3-.03 1-.22.92-.28-.04-.03-.15-.01-.35.03l-.5.1a5.1 5.1 0 0 1-1.33.03c.04-.02.14-.02.28-.03.18 0 .43-.02.72-.07.5-.1.96-.19.92-.25-.03-.07-.2-.07-.77.04-.57.12-1.12.17-1.18.09-.04-.05.06-.05.26-.07.17-.02.43-.04.73-.1l.17-.04c.52-.1.7-.14.63-.21-.08-.07-.28-.02-.67.1-.4.11-1.33.17-1.25.08.05-.04.2-.04.38-.03.19 0 .42 0 .57-.05l.2-.07c.28-.08.58-.17.55-.27-.01-.08-.08-.06-.23 0-.1.03-.23.08-.4.11-.45.1-1.22.17-1.1.1.05-.03.2-.05.38-.07.17-.02.36-.04.52-.08l.18-.05c.28-.06.53-.12.51-.23-.01-.08-.15-.04-.34.02l-.32.08c-.31.05-1.14.1-1.02.05.06-.02.18-.03.33-.05.19-.02.43-.04.66-.1.41-.1.58-.18.55-.22-.02-.03-.2.01-.42.06-.18.04-.38.08-.5.09-.27.02-.82 0-.76 0l.95-.12c.34-.06.62-.16.62-.25 0-.07-.28 0-.58.06a18.71 18.71 0 0 1-.43.09c-.33.07-.66.14-.62.07.03-.05.16-.07.35-.1.15-.03.34-.06.55-.12.48-.12.87-.23.66-.26-.14-.02-.37.04-.6.1l-.34.09c-.34.07-.89.15-.75.07.1-.05.44-.13.74-.2l.24-.06.32-.09c.22-.06.41-.11.46-.1.05.02.1.17.15.3l.1.25.03.05c.17.3.95 1.73 2.68 2.41.02.01.08.08.12.26l.02.08c.05.22.13.51.22.62.08.1.23.36.3.48a12.84 12.84 0 0 0 .24 1.2c.1.38.36 1.3.92 2.2.1.12.35.37.5.4.2.03-.06-.38-.24-.66a9.18 9.18 0 0 1-.9-2.17c-.15-.72-.1-1.45-.1-1.45-.15-.27-.44-.9-.48-1.3-.04-.49-.15-.8-.4-1.03L10 7.03c-.24-.22-.5-.47-.48-.52.02-.06.2.08.4.3l.14.14c.19.19.37.37.43.57.07.2.06.26.04.26.03 0 .1-.02.24-.1.03 0 .06-.03.1-.06.32-.2 1.14-.71 2.01-.71.58 0 .92.13 1.22.25.22.08.41.15.64.15h.44c0-.14.03-.44.23-.5 0-.01-.01-.05-.1-.1-.03-.02-.06-.06-.1-.12-.15-.17-.4-.46-.85-.46-.27 0-.42.02-.6.05-.2.03-.45.07-.97.07h-.36c-.82.03-1.69.04-2.43-.71A3.56 3.56 0 0 0 7.95 5C6.57 5 3.9 5.96 2 7.25Zm12.45-.51c.13.22.11.33.1.37v.01c-.24.02-.48-.25-.48-.35 0-.1.05-.39.08-.42.03-.03.16.14.3.39Zm.64.02c0 .04-.03.07-.06.07-.04 0-.07-.03-.07-.07 0-.04.03-.07.07-.07.03 0 .06.03.06.07Zm.28.47c.01.07.48.08.5.08.06 0 .12-.01.13-.04.01-.03-.05-.12-.15-.15-.06-.01-.12-.07-.18-.12-.07-.06-.13-.12-.17-.11-.08 0-.15.27-.13.34Zm-7.58.87c.13-.06.4-.17.52-.2.14-.05.22-.16.1-.13l-.69.12-.59.13-.33.08h-.1c-.13.02-.28.03-.31.07-.05.05.01.15.28.16.21 0 .84-.15 1.12-.23Zm.81 0c-.12.04-.4.17-.53.23-.3.09-.97.28-1.2.28-.27.01-.34-.1-.3-.14.04-.04.19-.06.34-.08l.1-.01a8.56 8.56 0 0 1 .97-.25l.74-.17c.11-.03.04.09-.12.14Zm-.39.45c.13-.06.42-.19.54-.23.15-.04.23-.16.11-.13l-.73.16c-.24.05-.45.12-.63.17a3.14 3.14 0 0 1-.45.1c-.15.02-.3.04-.33.08-.05.05.02.15.3.14.23 0 .89-.2 1.19-.29Zm-.86.32c-.22.04-.43.02-.5 0-.24.11.03.3.4.3.36 0 .9-.16 1.11-.3.2-.13.67-.28.9-.35.21-.07.12-.16.02-.18-.08-.01-.23.04-.51.13l-.36.12c-.52.16-.8.24-1.06.28Zm-.28.5c.04.06.2.2.43.2.2 0 .38-.13.53-.25l.17-.13.5-.24a9.6 9.6 0 0 0 .38-.17c.24-.1.55-.23.53-.26-.04-.03-.2 0-.74.2-.21.07-.43.16-.63.25-.33.13-.61.26-.76.27h-.01c-.23.01-.44.03-.4.12Zm.96.75c-.22.11-.4.05-.46 0-.13-.22.27-.62.55-.79.23-.14 1.01-.45 1.38-.58l-.61.65c-.2.2-.65.61-.86.72Zm1.75-1.48c-.25.28-.78.88-1 1.05-.27.2-.88.73-.96.83-.07.1-.01.4.36.18a6.64 6.64 0 0 0 1.67-1.94c.06-.06.13-.18-.07-.12Zm-.05.38c-.1.13-.16.32-.18.4.06.23.5-.46.44-.52s-.14-.06-.26.12Zm.2.3c-.28.22-.93.75-1.27 1.12-.42.46-.53.67-.44.83.1.16.26.03.63-.35.3-.3.82-1 1.05-1.3.07-.12.2-.35.18-.37-.02-.03-.1.04-.15.08Zm-1.35 2.15c.11-.16 1.06-1.29 1.52-1.83.18-.13.13.05.08.15-.18.36-.61 1.18-.89 1.56-.34.48-.53.66-.68.63-.14-.04-.18-.31-.03-.51Zm1.47-1.15c.11-.2.27-.49.32-.46.05.05-.07.72-.18 1.1-.08.31-.48 1.04-.66 1.36-.07.08-.25.27-.4.3-.2.02-.25-.3-.16-.45l1-1.71.08-.14Zm-.3 2c.15-.27.55-1.43.74-1.98a5.2 5.2 0 0 1-.15 1.57l-.09.27c-.16.47-.39 1.15-.5 1.16-.13.01-.18-.26-.17-.4v-.08c.01-.12.02-.28.17-.55Zm.86-1.44a6.56 6.56 0 0 1-.33 1.58 1.6 1.6 0 0 0-.07 1.13l.04.07c.04.07.06.12.12.14.05.01.06-.16.07-.4l.04-.52c.06-.47.16-1.35.2-1.5.02-.12-.04-.38-.07-.5Zm.1 2.33a6.26 6.26 0 0 1 0-1.28c.05.33.22 1.07.4 1.41l.04.1c.18.35.25.5.08.5-.18 0-.45-.22-.53-.73Zm.05-1.9c.02.33.13 1.14.32 1.63.24.62.73 1.09.75 1.06.02-.03-.2-.6-.44-1.14-.25-.54-.56-1.26-.63-1.56Z" fill="#007C85"/></svg>