<!-- by TradingView --><svg xmlns="http://www.w3.org/2000/svg" width="18" height="18" viewBox="0 0 18 18"><path fill="#F0F3FA" d="M0 0h18v18H0z"/><path d="M9.38 10.4c-.16 0-.31.02-.47.07 0 0-.5.14-.79.1-.32-.05-.93-.76-.98-.95-.05-.17-.1-.49.13-.92a2.4 2.4 0 0 0-.2-2.91 2.33 2.33 0 0 0-3.87.62 2.4 2.4 0 0 0 .7 2.83 2.31 2.31 0 0 0 1.62.5s1.14-.11 1.42.17c.21.2.86.8.89 1.08.02.28-.15.67-.17.8a1.83 1.83 0 0 0 .78 1.93 1.75 1.75 0 0 0 2.05-.11 1.8 1.8 0 0 0 .57-2 1.8 1.8 0 0 0-1.68-1.21Z" fill="url(#ahy1ewbqj)"/><path d="M14.03 5.08a1.13 1.13 0 0 0-1.15.55 1.17 1.17 0 0 0-.17.52s-.03.56-.19.68c-.11.08-.45.36-.58.35a.95.95 0 0 1-.31-.12.86.86 0 0 0-1.07.25.9.9 0 0 0 .45 1.4.86.86 0 0 0 .98-.4.9.9 0 0 0 .12-.55c-.02-.14-.02-.27 0-.4.06-.16.44-.4.54-.41a.56.56 0 0 1 .43.13 1.14 1.14 0 0 0 1.47.07 1.16 1.16 0 0 0 .45-.94 1.18 1.18 0 0 0-.48-.93c-.15-.1-.31-.17-.5-.2Z" fill="#0091FB"/><defs><linearGradient id="ahy1ewbqj" x1="10.62" y1="5.08" x2="2.91" y2="13.33" gradientUnits="userSpaceOnUse"><stop stop-color="#00AAE7"/><stop offset="1" stop-color="#0091FB"/></linearGradient></defs></svg>