<!-- by TradingView --><svg width="18" height="18" viewBox="0 0 18 18" xmlns="http://www.w3.org/2000/svg"><path fill="#F0F3FA" d="M0 0h18v18H0z"/><path d="M9.3 3.28c0 .15-.14.28-.3.28-.18 0-.31-.13-.31-.28 0-.16.13-.28.3-.28.17 0 .3.12.3.28Zm1.43.3c.16 0 .3-.12.3-.28 0-.15-.14-.27-.3-.27-.17 0-.3.12-.3.27 0 .16.13.28.3.28Zm-1.17.93c0 .29-.25.52-.56.52-.3 0-.56-.23-.56-.52 0-.28.25-.51.56-.51.31 0 .56.23.56.51Zm1.73 0c0 .29-.25.52-.56.52-.31 0-.56-.23-.56-.52 0-.28.25-.51.56-.51.3 0 .56.23.56.51ZM9 6.4c.34 0 .61-.25.61-.56 0-.32-.27-.57-.61-.57-.35 0-.62.25-.62.57 0 .3.27.56.62.56Zm2.32-.56c0 .3-.27.53-.59.53-.32 0-.58-.24-.58-.53 0-.3.26-.54.58-.54.32 0 .59.24.59.54ZM8.99 7.64c.34 0 .62-.25.62-.56 0-.32-.28-.57-.62-.57-.34 0-.62.25-.62.57 0 .31.28.56.62.56Zm2.32-.56c0 .3-.26.53-.58.53-.33 0-.59-.24-.59-.53 0-.3.26-.54.59-.54.32 0 .58.24.58.54ZM9 8.92c.34 0 .62-.26.62-.57 0-.31-.28-.57-.62-.57-.34 0-.62.26-.62.57 0 .31.28.57.62.57Zm2.32-.57c0 .3-.26.54-.58.54-.33 0-.59-.24-.59-.54 0-.3.26-.54.59-.54.32 0 .58.24.58.54ZM9 10.21c.34 0 .62-.25.62-.57 0-.31-.28-.57-.62-.57-.34 0-.62.26-.62.57 0 .32.28.57.62.57Zm2.32-.57c0 .3-.26.54-.58.54-.33 0-.59-.24-.59-.54 0-.3.26-.53.59-.53.32 0 .58.24.58.53ZM9 11.5c.34 0 .62-.25.62-.57 0-.31-.28-.57-.62-.57-.34 0-.62.26-.62.57 0 .32.28.57.62.57Zm2.32-.57c0 .3-.26.54-.58.54-.33 0-.59-.24-.59-.54 0-.3.26-.53.59-.53.32 0 .58.24.58.53ZM9 12.77c.34 0 .62-.25.62-.57 0-.31-.28-.57-.62-.57-.34 0-.62.26-.62.57 0 .32.28.57.62.57Zm2.3-.57c0 .29-.25.52-.56.52-.31 0-.56-.23-.56-.52 0-.28.25-.51.56-.51.3 0 .56.23.56.51Zm1.02-5.84c.33 0 .59-.24.59-.53 0-.3-.26-.54-.59-.54-.32 0-.58.24-.58.54 0 .3.26.53.58.53Zm.59.72c0 .3-.26.53-.59.53-.32 0-.58-.24-.58-.53 0-.3.26-.54.58-.54.33 0 .59.24.59.54Zm-.59 1.8c.33 0 .59-.23.59-.53 0-.3-.26-.54-.59-.54-.32 0-.58.24-.58.54 0 .3.26.54.58.54Zm.3-4.37c0 .16-.13.28-.3.28-.16 0-.3-.12-.3-.28 0-.15.14-.28.3-.28.17 0 .3.13.3.28Zm-5.3-.91c.17 0 .3-.13.3-.28 0-.16-.13-.28-.3-.28-.16 0-.3.12-.3.28 0 .15.14.28.3.28ZM14 8.35c0 .16-.14.28-.3.28-.17 0-.31-.13-.31-.28 0-.15.14-.28.3-.28.17 0 .3.13.3.28Zm-.3-1c.16 0 .3-.12.3-.27 0-.16-.14-.28-.3-.28-.17 0-.31.12-.31.28 0 .15.14.27.3.27ZM14 5.83c0 .15-.14.27-.3.27-.17 0-.3-.12-.3-.27 0-.16.13-.28.3-.28.16 0 .3.12.3.28Zm-9.7 2.8c.17 0 .3-.13.3-.28 0-.15-.13-.28-.3-.28-.16 0-.3.13-.3.28 0 .15.14.28.3.28Zm.3.98c0 .15-.13.28-.3.28-.16 0-.3-.13-.3-.28 0-.15.14-.28.3-.28.17 0 .3.13.3.28Zm-.3-2.26c.17 0 .3-.12.3-.27 0-.16-.13-.28-.3-.28-.16 0-.3.12-.3.28 0 .15.14.27.3.27Zm.3-1.52c0 .15-.13.27-.3.27-.16 0-.3-.12-.3-.27 0-.16.14-.28.3-.28.17 0 .3.12.3.28Zm1.13-1.04c.16 0 .3-.12.3-.28 0-.15-.14-.28-.3-.28-.17 0-.3.13-.3.28 0 .16.13.28.3.28Zm.3 6.1c0 .15-.14.28-.3.28-.17 0-.3-.13-.3-.28 0-.15.13-.28.3-.28.16 0 .3.13.3.28Zm-.3 1.6c.16 0 .3-.13.3-.29 0-.15-.14-.28-.3-.28-.17 0-.3.13-.3.28 0 .16.13.28.3.28Zm1.89.98c0 .15-.14.28-.3.28-.17 0-.3-.13-.3-.28 0-.15.13-.28.3-.28.16 0 .3.13.3.28Zm3.1.27c.17 0 .31-.13.31-.28 0-.16-.14-.28-.3-.28-.17 0-.3.12-.3.28 0 .15.13.28.3.28Zm-1.41.98c0 .16-.14.28-.3.28-.17 0-.3-.12-.3-.28 0-.15.13-.28.3-.28.16 0 .3.13.3.28ZM5.73 6.36c.32 0 .58-.24.58-.53 0-.3-.26-.54-.58-.54-.33 0-.59.24-.59.54 0 .3.27.53.59.53Zm.58.72c0 .3-.26.53-.58.53-.33 0-.59-.24-.59-.53 0-.3.27-.54.59-.54.32 0 .58.24.58.54Zm-.58 3.1c.32 0 .58-.24.58-.54 0-.3-.26-.53-.58-.53-.33 0-.59.24-.59.53 0 .3.27.54.59.54Zm.56-1.83c0 .29-.25.52-.56.52-.31 0-.56-.23-.56-.52 0-.28.25-.51.56-.51.3 0 .56.23.56.51Zm1.59-3.83c0 .29-.25.52-.56.52-.31 0-.56-.23-.56-.52 0-.28.25-.51.56-.51.3 0 .56.23.56.51Zm-.56 1.86c.32 0 .58-.24.58-.54 0-.3-.26-.54-.58-.54-.33 0-.59.24-.59.54 0 .3.26.54.59.54Zm.58.7c0 .3-.26.55-.58.55-.33 0-.59-.24-.59-.54 0-.3.26-.54.59-.54.32 0 .58.24.58.54ZM7.32 8.9c.32 0 .58-.24.58-.54 0-.3-.26-.53-.58-.53-.33 0-.59.24-.59.53 0 .3.26.54.59.54Zm.58.74c0 .3-.26.54-.58.54-.33 0-.59-.24-.59-.54 0-.3.26-.54.59-.54.32 0 .58.24.58.54Zm-.58 1.82c.32 0 .58-.24.58-.54 0-.3-.26-.54-.58-.54-.33 0-.59.24-.59.54 0 .3.26.54.59.54Zm.56.74c0 .28-.25.51-.56.51-.31 0-.56-.23-.56-.51 0-.29.25-.52.56-.52.3 0 .56.23.56.52Zm1.67 1.26c0 .28-.25.51-.56.51-.3 0-.56-.23-.56-.51 0-.29.25-.52.56-.52.31 0 .56.23.56.52Z" fill="#009ADF"/></svg>