<!-- by TradingView --><svg width="18" height="18" viewBox="0 0 18 18" xmlns="http://www.w3.org/2000/svg"><path fill="#F0F3FA" d="M0 0h18v18H0z"/><path d="M7.56 3.63v-.31h2.73v.31c-.73.13-.9.7-.9.98v8.5c0 .75.7 1.05 1.05 1.1v.47H7.56v-.47c.73 0 .91-.74.91-1.1V4.58c0-.63-.6-.9-.9-.95Z" fill="#038F46"/><path d="M7.62 3.58c.16.03.37.12.55.26.2.16.36.4.36.74v8.53c0 .19-.04.48-.19.72a.86.86 0 0 1-.72.44v.35h2.76v-.36a1.54 1.54 0 0 1-.64-.29 1.07 1.07 0 0 1-.42-.86V4.6c0-.3.19-.88.9-1.03v-.2h-2.6v.2Zm2.67-.26v.31c-.73.13-.9.7-.9.98v8.5c0 .75.7 1.05 1.05 1.1v.47H7.56v-.47c.73 0 .91-.74.91-1.1V4.58c0-.63-.6-.9-.9-.95v-.31h2.72Z" fill="#191F1D"/><path d="M10.84 3.06H7.02v.83c.35.01.57.17.71.38.15.2.2.46.2.62v8.22c0 .28-.18.46-.38.56-.17.09-.38.12-.53.13v1.14h3.82V13.8a1.03 1.03 0 0 1-.71-.25.63.63 0 0 1-.2-.44V4.89c0-.4.16-.65.36-.8.18-.14.39-.2.55-.2v-.83Zm.06 10.68V15H6.96v-1.26c.3 0 .9-.13.9-.63V4.89c0-.31-.18-.94-.9-.94V3h3.94v.95c-.3 0-.91.19-.91.94v8.22c0 .2.18.63.9.63Z"/><path fill-rule="evenodd" d="M5.57 13.38c-.34.08-.5.02-.59-.05-.07-.07-.14-.24-.1-.6a8.53 8.53 0 0 1 1.64-3.67 20.18 20.18 0 0 0 2.63 2.14 8.44 8.44 0 0 1-3.58 2.18Zm-.8.18c-.6-.58.12-2.48 1.66-4.58-1.8-1.77-2.8-3.47-2.3-4.14.44-.6 1.96-.21 3.77.85v.16a6.96 6.96 0 0 0-2.97-.98c-.34-.01-.5.08-.56.16-.06.09-.1.27 0 .6A8.37 8.37 0 0 0 6.49 8.9 20.67 20.67 0 0 1 7.9 7.2v.16A19.86 19.86 0 0 0 6.57 9a16.14 16.14 0 0 0 2.65 2.14 16.94 16.94 0 0 0 2.2-2.58c-.46-.46-.94-.88-1.38-1.23v-.15a20.86 20.86 0 0 1 1.46 1.28 8.38 8.38 0 0 0 1.48-3.5c.05-.35-.02-.52-.1-.6-.08-.07-.24-.13-.58-.05a6.4 6.4 0 0 0-2.26 1.1v-.2c1.39-1.07 2.57-1.53 3.05-1.08.59.56-.08 2.37-1.52 4.4 1.8 1.76 2.8 3.47 2.3 4.14-.51.7-2.46.06-4.65-1.41-1.95 1.9-3.81 2.92-4.44 2.31Zm5.52-3.43c.44-.5.85-1.01 1.2-1.51a8.26 8.26 0 0 1 2.14 3.24c.1.34.06.52 0 .6-.06.09-.22.18-.56.16a8.15 8.15 0 0 1-3.78-1.44c.33-.32.67-.68 1-1.05Z" fill="#231C16"/><ellipse cx="6.2" cy="8.68" rx="1.36" ry="1.26" fill="#FFF903"/><path fill-rule="evenodd" d="M6.2 9.88c.73 0 1.3-.54 1.3-1.2 0-.65-.57-1.2-1.3-1.2-.73 0-1.3.55-1.3 1.2 0 .66.57 1.2 1.3 1.2Zm0 .07c.75 0 1.36-.57 1.36-1.27 0-.7-.6-1.26-1.36-1.26-.75 0-1.36.57-1.36 1.26 0 .7.6 1.27 1.36 1.27Z" fill="#231C16"/><path d="M12.26 4.03c-.14-.05-.3-.08-.45-.08-.67 0-1.22.5-1.22 1.1 0 .61.55 1.1 1.22 1.1.16 0 .31-.02.45-.07a1.11 1.11 0 0 1-.76-1.03c0-.46.32-.86.76-1.02Z" fill="#C5C5C5"/><path fill-rule="evenodd" d="M12.26 4.03a1.27 1.27 0 0 0-.45-.08c-.67 0-1.22.5-1.22 1.1 0 .61.55 1.1 1.22 1.1a1.32 1.32 0 0 0 .45-.07 1.1 1.1 0 0 1-.76-1.02 1.1 1.1 0 0 1 .76-1.03Zm-.18.01a1.27 1.27 0 0 0-.27-.03c-.65 0-1.16.47-1.16 1.04 0 .57.51 1.04 1.16 1.04.09 0 .18 0 .27-.02-.38-.2-.64-.58-.64-1.02 0-.43.26-.8.64-1.01Z" fill="#231C16"/></svg>