<!-- by TradingView --><svg width="18" height="18" viewBox="0 0 18 18" xmlns="http://www.w3.org/2000/svg"><path fill="#F0F3FA" d="M0 0h18v18H0z"/><path d="M12.19 5.62c.49.47.88 1 1.2 1.58.3.6.5 1.2.57 1.83a4.24 4.24 0 0 1-1.18 3.59 4.18 4.18 0 0 1-3.5 1.37 5.23 5.23 0 0 1-1.84-.5 6.04 6.04 0 0 1-3.4-4.52 4.24 4.24 0 0 1 1.18-3.59 4.18 4.18 0 0 1 3.5-1.37c.62.05 1.24.21 1.84.5.6.27 1.14.65 1.63 1.11Z" fill="#78B1E3"/><path d="M6.88 11.96a7.57 7.57 0 0 1-2.2-2.9c-.5-1.3-.33-2.43.56-3.37a3.37 3.37 0 0 1 2.99-1.2 5.27 5.27 0 0 1 2.9 1.53 3.17 3.17 0 0 0-1.72-.81 2.98 2.98 0 0 0-2.53.8 3.72 3.72 0 0 0-1.16 2.43 4.21 4.21 0 0 0 1.16 3.52Z" fill="#F0F3FA"/><path d="M11.38 8.3c-.1-.45-.28-.82-.57-1.1a1.93 1.93 0 0 0-.96-.54 2.3 2.3 0 0 0-1.13.03c-.4.1-.75.3-1.07.57A2.98 2.98 0 0 0 6.67 9a4.66 4.66 0 0 1 .49-2.59c.36-.65.9-1 1.6-1.04.87-.05 1.54.26 2 .91.4.57.6 1.24.62 2.02Z" fill="#F0F3FA"/><path d="M7.52 12.4c.68.26 1.08.4 1.21.4 1.09.03 1.97-.3 2.63-1 .65-.67.98-1.55 1.02-2.64a4.22 4.22 0 0 0-1.12-3.03 7.83 7.83 0 0 1 1.84 2.38c.54 1.1.6 2.06.22 2.91-.28.6-.72 1.11-1.32 1.55-.7.52-1.52.67-2.44.45a5.74 5.74 0 0 1-2.07-.95c-.02 0-.03-.03-.02-.05.01-.02.03-.02.05-.02Z" fill="#F0F3FA"/><path d="m11.38 8.3.04.45a2.8 2.8 0 0 1-1.97 2.52c-.56.16-1.08.14-1.56-.08A2.16 2.16 0 0 1 6.7 9.77l-.04-.78c.13-.7.46-1.27.98-1.73.32-.27.67-.47 1.07-.57.39-.1.76-.11 1.13-.03.38.09.7.27.96.53.29.3.48.66.57 1.1Z" fill="#002D68"/><path d="M10.79 7.32c.38.4.45.9.21 1.47-.17.4-.48.83-.94 1.26-.46.44-.9.73-1.31.88-.58.2-1.06.1-1.44-.3-.38-.4-.45-.9-.21-1.46.17-.42.48-.84.94-1.27.46-.43.9-.72 1.31-.87.58-.2 1.06-.11 1.44.3Z" fill="#F0F3FA"/><path d="M11.42 8.75c.03.43 0 .98-.12 1.66-.08.46-.24.9-.5 1.28-.29.46-.64.74-1.05.84-.5.11-.92.12-1.29.02-.5-.14-.9-.43-1.18-.9a3.82 3.82 0 0 1-.57-1.88c.2.68.6 1.15 1.18 1.42.48.22 1 .24 1.56.07a2.8 2.8 0 0 0 1.97-2.51Z" fill="#F0F3FA"/></svg>