<!-- by TradingView --><svg width="18" height="18" viewBox="0 0 18 18" xmlns="http://www.w3.org/2000/svg"><path fill="#F0F3FA" d="M0 0h18v18H0z"/><path d="M12.66 9.67A4.68 4.68 0 0 1 3.33 9a4.68 4.68 0 0 1 9.19-1.33h.34A5.02 5.02 0 0 0 3 9a5.01 5.01 0 0 0 10 .67h-.34Z" fill="#A0D583"/><path d="M11 5.5h-1V12h1V9h3v1.67h1V4h-1v4h-3V5.5Z" fill="url(#a0y0ftdtc)"/><path d="M9 4.83v6.67c0 .37 0 1.08.24 1.6A4.27 4.27 0 0 1 3.65 9c0-2.4 1.88-4.33 4.2-4.33.4 0 .78.05 1.15.16Z" fill="url(#b0y0ftdtc)"/><circle cx="7" cy="10" r="1" fill="#0276A5"/><circle cx="6.5" cy="8.5" r="1.5" fill="#A0D587"/><defs><linearGradient id="a0y0ftdtc" x1="11.74" y1="4" x2="11.74" y2="12.33" gradientUnits="userSpaceOnUse"><stop stop-color="#003D75"/><stop offset="1" stop-color="#0065B1"/></linearGradient><linearGradient id="b0y0ftdtc" x1="6.44" y1="4.67" x2="6.44" y2="13.33" gradientUnits="userSpaceOnUse"><stop stop-color="#003B73"/><stop offset="1" stop-color="#0052A8"/></linearGradient></defs></svg>