<!-- by TradingView --><svg width="18" height="18" viewBox="0 0 18 18" fill="none" xmlns="http://www.w3.org/2000/svg">
<rect width="18" height="18" fill="#F0F3FA"/>
<path d="M14.2006 5.84679C14.3367 5.46951 14.6501 5.45203 14.9873 5.46427C14.9908 5.46437 14.9935 5.46372 14.9956 5.46232C14.9984 5.46032 14.9999 5.45683 15 5.45184V5.0032H12.3908V5.44719C12.3908 5.44944 12.391 5.45139 12.3916 5.45308C12.3932 5.45808 12.3972 5.46067 12.4036 5.46087C12.6788 5.46956 12.9538 5.48644 13.2285 5.51141C13.3754 5.52469 13.4736 5.57588 13.4575 5.74272C13.4477 5.8437 13.4279 5.96065 13.3983 6.09363C13.0082 7.84385 12.5258 9.57373 12.0451 11.2978L12.038 11.3231C11.9718 11.5608 11.9056 11.7983 11.8396 12.0358C11.8354 12.0508 11.8308 12.051 11.8258 12.0364C11.6578 11.5527 11.4896 11.0719 11.3219 10.5923L11.3156 10.5743C10.6718 8.73378 10.0343 6.91111 9.43791 5.01223C9.43715 5.00984 9.43615 5.00779 9.43492 5.00609C9.43194 5.00205 9.42756 5 9.42179 5H9.04371C9.03487 5 9.02901 5.00429 9.02616 5.01283C8.6799 6.00434 8.32875 6.99326 7.95842 7.97548C7.8844 8.17194 7.84214 8.35116 7.7969 8.54302L7.78703 8.58487C7.50273 9.78647 7.22116 10.983 6.94231 12.1746L6.94309 12.1792L6.94667 12.1821L6.9512 12.1817L6.95435 12.1783C7.57778 10.483 8.22572 8.8029 8.87516 7.1189L8.88252 7.09988L8.88293 7.09893L8.88555 7.09593C8.88693 7.09493 8.88857 7.09443 8.89024 7.09448C8.8919 7.09448 8.89352 7.09503 8.89488 7.09603C8.89623 7.09703 8.89726 7.09843 8.89782 7.10008L9.26727 8.14192C9.66734 9.27101 10.0679 10.4014 10.4767 11.5287C10.7703 12.3382 11.0314 13.1654 11.2869 13.9881C11.288 13.9916 11.2901 13.9946 11.2929 13.9967C11.2957 13.9988 11.2991 13.9999 11.3026 14L11.9007 13.9993C11.9081 13.9993 11.9128 13.9956 11.9147 13.9881C12.2012 12.8737 12.4894 11.7598 12.7792 10.6464C12.8656 10.3144 12.9323 10.0687 12.9794 9.90936L13.0419 9.69763C13.168 9.27006 13.295 8.83975 13.4216 8.40964C13.6731 7.55583 13.8984 6.68469 14.2006 5.84679Z" fill="#0472BB"/>
<path d="M3 5.38797V5H6.09628V5.37863C6.09628 5.38811 6.09173 5.39296 6.08262 5.39326C5.80621 5.40235 5.56606 5.41873 5.36216 5.44255C5.24524 5.45613 5.11996 5.49029 5.12669 5.64424C5.13934 5.94512 5.17138 6.21778 5.23626 6.53139C5.34168 7.04015 5.41235 7.42562 5.44826 7.68779C5.73663 9.78737 6.02548 11.8873 6.31481 13.9876C6.3159 13.9954 6.31264 13.9993 6.30502 13.9993L5.70902 14C5.70544 14 5.70195 13.9987 5.69914 13.9964C5.69633 13.9941 5.69434 13.9908 5.69351 13.9872L5.63084 13.6922C5.59505 13.5232 5.55941 13.3541 5.52375 13.1849C5.38232 12.5138 5.24064 11.8416 5.08895 11.172C4.70141 9.46187 4.31482 7.75151 3.92919 6.0409L3.9246 6.02047C3.88515 5.84444 3.82683 5.58422 3.67353 5.52195C3.51021 5.45573 3.3435 5.43366 3.12257 5.40444L3.11077 5.40285C3.07531 5.39815 3.03846 5.39326 3 5.38797Z" fill="#0472BB"/>
</svg>
