<!-- by TradingView --><svg width="18" height="18" xmlns="http://www.w3.org/2000/svg"><path fill="#D3003F" d="M0 0h18v18H0z"/><path d="M3 7.401v.388l12-3.402V4L3 7.401zM3 14l12-3.401v-.388L3 13.613V14zM11.799 6.178L15 5.275v-.388l-3.652 1.035s.013.123.013.183c0 .6-.61 1.02-1.299 1.021-.727 0-.93-.576-.93-.576L3 8.288v.388L8.913 7s.32.544 1.118.543c.798 0 1.627-.42 1.768-1.366z" fill="#fff"/><path d="M12.776 6.792L15 6.162v-.388l-2.513.719c-.188 1.23-1.4 1.822-2.456 1.823-1.095.001-1.548-.692-1.548-.692L3 9.176v.387l5.397-1.529c.352.418.938.67 1.658.669 1.274-.002 2.456-.799 2.721-1.91z" fill="#fff"/><path d="M13.274 7.539L15 7.049v-.387l-1.887.535C12.8 8.653 11.329 9.31 10.14 9.31c-.368 0-1.166-.023-1.845-.748L3 10.063v.388L8.331 8.94c.613.647 1.442.734 1.912.733 1.798-.001 2.917-1.336 3.031-2.134z" fill="#fff"/><path d="M13.45 8.376l1.55-.44V7.55l-1.594.452c-.41 1.7-2.077 2.175-3.046 2.176-.782 0-1.283-.18-1.909-.772L3 10.95v.388L8.604 9.75c.653.64 1.388.726 1.85.726 1.9-.002 2.794-1.288 2.996-2.1z" fill="#fff"/><path d="M13.332 9.297L15 8.823v-.387l-1.575.446a4.924 4.924 0 01-.093.415zM9.172 10.476L3 12.226v-.388l5.882-1.667c.125.125.29.305.29.305zM13.122 9.856L15 9.324v.387l-2.313.655c-.323.32-.99.756-1.897.757-.164 0-.376-.04-.525-.07L3 13.113v-.388l6.68-1.886s-.18-.095-.314-.205c0 0 .571.235 1.217.234.973 0 2.076-.482 2.647-1.341 0 0-.083.248-.108.329z" fill="#fff"/></svg>