<!-- by TradingView --><svg width="18" height="18" viewBox="0 0 18 18" xmlns="http://www.w3.org/2000/svg"><path fill="#F0F3FA" d="M0 0h18v18H0z"/><path d="M10.11 4c.48 0 .85.27.96.69.03.23.03.38.04.63.01.2.07.37.13.49a.87.87 0 0 0 0-.25c-.01-.2-.1-.4-.1-.6l.2-.1c.12.22.21.43.23.67a1 1 0 0 1-.16.7l-.11.15-.15-.13c-.12-.12-.3-.4-.36-.81v-.32c.02-.42-.18-.81-.68-.81-.61 0-.82.38-.82.91 0 .55.84 1.27 1.25 1.56.58.4.73.95.73 1.2 0 .47-.57.6-.99.6-.98 0-1.64-.3-2.48-.3-.49 0-.85.32-1.05.7.61-.11 1.25-.24 1.88-.24a4.9 4.9 0 0 0 1.07-.1h.6c-.18.2-.43.29-.69.34-.3.06-.65.06-.97.06-.72 0-1.42.16-2.12.3l-.27.06.08-.25c.19-.62.74-1.18 1.47-1.18.8 0 1.52.28 2.31.3.24 0 .83.04.83-.3 0-.16-.11-.61-.6-.94-.5-.36-1.38-1.16-1.38-1.8 0-.7.35-1.23 1.15-1.23Z" fill="#DB3E7E"/><path d="M10.53 8.18a1.2 1.2 0 0 0-.08-.77c-.2-.39-.66-.66-1.49-.66-1.04 0-1.82.36-2.37.93-.78.8-1 1.8-.9 2.8.02.14.03.28.06.41-.18-.1-.42-.26-.42-.47 0-.16.13-.28.26-.36v-.34c-.3.12-.59.36-.59.7 0 .44.53.76.93.9l.33.12-.11-.3c-.06-.17-.1-.43-.13-.68-.08-.85.15-1.89.81-2.58.49-.5 1.19-.82 2.13-.82.75 0 1.06.23 1.19.48.1.2.1.46.03.67.12.01.24 0 .35-.03Z" fill="#DB3E7E"/><path d="M10.7 5.14a.52.52 0 0 1-.16.02c-.18-.02-.32-.15-.5-.17-.48-.07-.58.47-.42.77.09.18.23.37.4.5.89.68 1.36 1.23 1.55 1.66.13.28.17.62-.09.86-.22.2-.58.2-.87.23a3 3 0 0 0-1.41.36c-.58.36-.73 1.05-.74 2.11v.2c-.08-.55-.14-1.67-.74-2a2.17 2.17 0 0 0-1.53-.16c-.03.12-.04.23-.03.33.45-.13.98-.15 1.4.09.49.27.52 1.41.58 1.85.12.96.2 2.35.2 3.06 0 .08.07.15.16.15s.16-.06.17-.14l.12-3.37c0-1.08.18-1.6.6-1.86.37-.24.81-.29 1.25-.32.38-.02.8-.05 1.08-.31.35-.33.34-.8.16-1.2a5.18 5.18 0 0 0-1.65-1.77c-.1-.1-.24-.25-.31-.4-.04-.06-.12-.37.07-.34.18.02.33.15.52.17h.2v-.32Z" fill="#DB3E7E"/><path d="M11.52 5.27c.03.08.04.17.05.26a1 1 0 0 1-.16.7l-.11.15-.15-.13a1.18 1.18 0 0 1-.26-.42l.21-.3.03-.02.1.3a.87.87 0 0 0 0-.36l.3-.18Z"/></svg>