<!-- by TradingView --><svg xmlns="http://www.w3.org/2000/svg" width="18" height="18"><path fill="#932677" d="M0 0h18v18H0z"/><path d="M13.67 5.02c-4.13.97-7.94.4-9.32 0-.3-.08-.35.09-.35.18v7.57c0 .24.27.23.4.2a20.52 20.52 0 019.18 0c.35.11.43-.08.42-.19V5.22c0-.24-.22-.23-.33-.2z" fill="#fff"/><path d="M5.72 11.25V6.7c0-.1-.14-.18-.43-.21-.22-.03-.29.07-.3.12a1217.23 1217.23 0 000 4.67c.01.23.27.18.52.14.2-.03.22-.13.21-.18zM7.97 6.8a40.84 40.84 0 01-1.67-.12c-.17-.01-.21.07-.21.1v.26c0 .07.06.1.09.11.52.06 1.05.08 1.18.1.11.02.08.12.05.16l-1.3 2.46c-.07.25.1.37.46.34a33.07 33.07 0 011.5-.1c.16 0 .2-.1.2-.15v-.2c0-.11-.13-.13-.2-.13-.23.01-.75.05-.95.05-.2.01-.19-.08-.15-.13l1.27-2.4c.08-.25-.15-.34-.27-.35zM9 6.83a67.06 67.06 0 011.27-.03c.13 0 .17.1.17.14v.22c0 .1-.12.13-.18.14h-.75c-.11 0-.16.07-.16.1v.49c0 .07.11.1.16.1h.71c.17 0 .22.08.22.12v.22c0 .11-.12.14-.19.15a20.14 20.14 0 00-.74 0c-.12 0-.16.07-.16.1a46.41 46.41 0 000 .9c0 .1.11.13.16.13l.67.03c.2 0 .26.1.26.13V10c0 .1-.14.13-.22.13-.25 0-.87 0-1.24-.03-.3-.01-.36-.19-.36-.28V7.1c.02-.22.26-.27.38-.27z" fill="#932677"/><path fill-rule="evenodd" d="M10.82 10.04V7.25c0-.16.26-.5.8-.56l.3-.03c.45-.05.68-.08.88.1.2.19.21.4.2.49v3.99c0 .11-.07.32-.44.25-.46-.09-3.13-.44-6.2-.13-.08.02-.26.02-.27-.1a3.06 3.06 0 010-.35c0-.03.05-.11.28-.13.27-.03 3.08-.28 5.65.07.08.02.25.01.25-.12a107.2 107.2 0 010-1.2c0-.03-.02-.1-.12-.1h-.5c-.03 0-.1.03-.1.14v.5c0 .05-.05.14-.18.14h-.03c-.18-.01-.52-.02-.52-.17zm.83-2.86l.48-.08c.04 0 .14 0 .14.1v1.67c0 .03-.03.09-.12.09h-.5c-.03 0-.1-.02-.1-.13V7.29a.12.12 0 01.1-.11z" fill="#932677"/></svg>