<!-- by TradingView --><svg xmlns="http://www.w3.org/2000/svg" width="18" height="18"><path fill="#F0F3FA" d="M0 0h18v18H0z"/><path d="M11 4H8v.22h.67c.31 0 .33.21.33.31V8.8c.01 1.34-.65 2.03-1.01 2.21 1.4-.19 2-1.55 2.01-2.09V4.53c-.01-.27.17-.32.28-.3H11V4z" fill="#5E5F61"/><path d="M9.17 11c-3.71.04-5.66 1.35-6.17 2 .87-.55 2.4-1.02 6.17-1 3.01.01 5.14.47 5.83 1-1.6-1.63-4.56-2.01-5.83-2z" fill="url(#a3wafjm3l)"/><defs><linearGradient id="a3wafjm3l" x1="15" y1="12.47" x2="3" y2="12.39" gradientUnits="userSpaceOnUse"><stop stop-color="#C69304"/><stop offset=".48" stop-color="#DDC486"/><stop offset="1" stop-color="#C69304"/></linearGradient></defs></svg>