<!-- by TradingView --><svg width="18" height="18" viewBox="0 0 18 18" xmlns="http://www.w3.org/2000/svg"><path fill="#F0F3FA" d="M0 0h18v18H0z"/><path d="M7.75 4h-1.5C6.1 4 6 4.09 6 4.2V11c0 .37-.37.9-.93 1.37-.09.07-.1.19-.02.27l.04.04.86 1.24.04.04c.1.06.23.05.32-.02C7.44 13.02 8 12.5 8 11.06V4.2c0-.11-.11-.2-.25-.2ZM11.75 4h-1.5c-.14 0-.25.09-.25.2V11c0 .37-.37.9-.93 1.37-.09.07-.1.19-.02.27l.04.04.86 1.24.04.04c.1.06.23.05.32-.02 1.13-.92 1.69-1.44 1.69-2.88V4.2c0-.11-.11-.2-.25-.2Z" fill="#FFC629"/></svg>