<!-- by TradingView --><svg width="18" height="18" viewBox="0 0 18 18" xmlns="http://www.w3.org/2000/svg"><path fill="#F0F3FA" d="M0 0h18v18H0z"/><path fill-rule="evenodd" d="M11.79 13.41c-1.5.64-3.05.76-4.64.36-5.43-1.35-5.57-7.96-.18-9.49a7.15 7.15 0 0 1 4.34.12 5.77 5.77 0 0 1 3.1 2.4c1.54 2.58-.14 5.56-2.62 6.61Zm-5.27-6.2v-.14l.02-.05A.07.07 0 0 1 6.6 7h1.68c.03 0 .06.01.08.03l.03.09v.06a.1.1 0 0 1-.03.07.1.1 0 0 1-.07.03c-.25 0-.28.16-.28.4v2.48c0 .2-.04.47-.08.62-.17.77-.91 1.35-1.7 1.2-.32-.06-.47-.25-.28-.57.04-.07.15-.12.32-.17l.06.01c.1.05.19.13.28.23.26.27.4.01.4-.26V7.77c0-.44 0-.48-.41-.5-.02 0-.04 0-.05-.02a.07.07 0 0 1-.02-.04Zm4.74 1.57h.01l.05-.03c.17-.07.4-.17.48-.3.1-.16.15-.32.13-.49-.1-.84-1.02-.97-1.62-.96a70.44 70.44 0 0 0-1.8.1.1.1 0 0 0-.01.05v.19l.02.03.03.01h.03c.25-.02.42.1.42.36v2.46c0 .34-.13.5-.46.56h-.07l-.04.02a.1.1 0 0 0-.02.03.1.1 0 0 0-.02.08c0 .03.02.06.04.07.03.02.05.04.08.04h2.14c.67 0 1.48-.3 1.47-1.2a1 1 0 0 0-.85-1v-.02Zm-1.25-1.44-.01.04v1.24l.01.03.03.02h.37c.35 0 .66-.3.66-.68v-.04c0-.4-.3-.62-.65-.62h-.38l-.03.01Zm.04 1.62h.12c.38-.02.6-.03.86.28.3.38.26 1.25-.26 1.4-.18.04-.37.06-.56.03-.23-.04-.22-.21-.21-.43V9.02c0-.02 0-.03.02-.05a.05.05 0 0 1 .03-.01Z" fill="#010080"/></svg>