<!-- by TradingView --><svg width="18" height="18" viewBox="0 0 18 18" xmlns="http://www.w3.org/2000/svg"><path fill="#F0F3FA" d="M0 0h18v18H0z"/><path fill-rule="evenodd" d="M5 9.07c.14.15.43.5.43.73 0 .23-.1.78-.15 1.02H6V9.8c0-.35.38-.73.57-.87.11.23.43.48.57.58.12-.23.14-.58.14-.73.31.23.6.2.72.15l-.43-.44h-.86c-.23 0-.1-.2 0-.29a.82.82 0 0 1 0-.87c-.23 0-.38-.3-.43-.44h-.14c.12-.35.05-.53 0-.58-.23 0-.57.39-.71.58a1.93 1.93 0 0 0-.57-.58c-.11.22-.06.65 0 .85-.06-.1-.5-.22-.72-.27l.14.58c-.22 0-.57.3-.71.44.11.12.52.14.71.14-.45.12-.66.73-.71 1.02.46 0 .76-.2.86-.29-.12.35-.05.63 0 .73.23-.12.47-.34.57-.44Zm.14-1.6.14.44.15-.3-.29-.14Zm.57.3-.14.14v.29L6 7.9l-.29-.14Zm-.28 1.16v-.44l-.29.3.43.57v-.43h-.14Zm.43-.15v.44l.57-.44V8.5l-.57.3Z" fill="#FBD7A1"/><path fill-rule="evenodd" d="M8.57 11.1c.05-.33.14-1.1.14-1.45 0-.34-.38-.92-.57-1.16-.04.05-.17.12-.28 0-.12-.12-.15-.34-.15-.44-.19.1-.65.24-1 0 .05-.19.26-.64.72-.87a6.43 6.43 0 0 1-.72-.29c.1-.14.4-.44.86-.44-.1-.1-.28-.34-.28-.58.23 0 .74.06.85.3V5.14c.2.1.6.34.72.58.1-.2.37-.61.71-.73.14.1.4.4.29.87.1-.1.4-.29.85-.29 0 .1-.02.35-.14.58h.57l-.43.59c.3-.05.98-.06 1.43.29-.1.1-.34.29-.57.29.14.2.43.7.43 1.16-.19 0-.63-.06-.86-.29.05.1.09.4-.14.87-.24-.05-.71-.23-.71-.58-.2.1-.6.47-.72 1.16-.11.7.05 1.36.14 1.6l-1.14-.14Zm.29-4.35-.43-.3.14.44.29-.14Zm0 .29.14.43.57-.43-.43-.3-.28.3Zm-.43 1.3.28-.43.15.58H9v.44l-.57-.58Zm1 0v.44l.71-.58-.14-.44-.57.59ZM10 7.19l.71.15-.57.27-.14-.42Z" fill="#A31D36"/><path fill-rule="evenodd" d="M12 11.25c.1-.24.29-.81.29-1.16 0-.35-.29-.82-.43-1.02l-.29.15-.14-.58.71.29.29.43.14-.43-.28-.15c.04-.14.14-.46.14-.58l.43-.3-.29-.14-.28.15-.15-.44.29-.29c.05-.24.23-.78.57-1.02.1.2.26.64.14.88.05-.1.26-.3.72-.3 0 .15-.03.47-.14.59h.42l-.28.29c.24 0 .77.06 1 .29-.1.1-.32.29-.43.29.1.05.31.3.43.87a6.42 6.42 0 0 1-.72-.29v.73c-.19-.1-.6-.35-.71-.58-.2.1-.57.43-.57 1.02 0 .58.1 1.11.14 1.3h-1Zm1.57-3.2.15.44.42-.44h-.57Zm-.28.44.14.3-.71.43v-.44l.57-.29Z" fill="#F5A81D"/><path d="M11.58 6.5c.24.12.48.27.7.43l.08-.3c-.21-.14-.42-.27-.65-.39l-.13.26Zm-4.54-.58c-.27.1-.53.2-.79.34l.26.2c.21-.11.43-.2.65-.28l-.12-.26Zm7.59 3.66-.26.12c.2.54.3 1.11.34 1.7H3.29c.04-.7.2-1.37.45-2l-.28-.06A6.2 6.2 0 0 0 3 11.69h12a6.26 6.26 0 0 0-.37-2.11Z" fill="#F5A81D"/><path d="M4.29 12.42v-1.46c.38-.1 1.4-.29 2.42-.29 1.29 0 2.58.58 4.29.58 1.37 0 2.38-.29 2.71-.43v1.3c-.52.2-1.8.59-2.71.59-1.14 0-3.14-.73-4.14-.73-.8 0-2.05.3-2.57.44Z" fill="#1D2757"/><path d="m4 10.74.22-.06c.4-.1 1.44-.3 2.5-.3.62 0 1.25.13 1.88.27l.15.03c.7.14 1.42.28 2.25.28 1.34 0 2.3-.28 2.6-.4l.4-.18v1.95l-.19.07c-.53.2-1.84.6-2.81.6-.61 0-1.43-.2-2.19-.37l-.05-.01c-.76-.18-1.45-.35-1.9-.35-.76 0-1.98.28-2.5.43l-.36.1v-2.06Zm.29 1.68.28-.08c.6-.15 1.6-.36 2.29-.36.48 0 1.2.17 1.94.35.79.18 1.6.38 2.2.38.91 0 2.19-.39 2.71-.58v-1.31a8.43 8.43 0 0 1-2.71.44c-.92 0-1.71-.17-2.45-.33a9 9 0 0 0-1.84-.26c-1.02 0-2.04.2-2.42.3v1.45Z" fill="#F5A81D"/></svg>