<!-- by TradingView --><svg width="18" height="18" viewBox="0 0 18 18" xmlns="http://www.w3.org/2000/svg"><path fill="#F0F3FA" d="M0 0h18v18H0z"/><path d="M8 11.67h3.36c.54-.53 1.01-1.1 1.4-1.67H8v-.67h5.17c.37-.67.63-1.36.75-2H8v-.66h6c.02-.64-.11-1.21-.42-1.67H8.37c-.32.2-.64.42-.96.67H11v.66H6.64c-.54.53-1.02 1.1-1.4 1.67H11v.67H4.83a6.81 6.81 0 0 0-.75 2H11v.66H4a3 3 0 0 0 .23 1.34h5.91c.15-.1.3-.22.45-.34H8v-.66Zm1.03 1.66H4.69c.92.91 2.6.87 4.34 0Zm.72-9h3.12c-.8-.45-1.92-.43-3.12 0Z" fill="#E3190F"/></svg>