<!-- by TradingView --><svg width="18" height="18" viewBox="0 0 18 18" xmlns="http://www.w3.org/2000/svg"><path fill="#23282A" d="M0 0h18v18H0z"/><path fill-rule="evenodd" d="M9 14A5 5 0 1 0 9 4a5 5 0 0 0 0 10Zm0-.59A4.41 4.41 0 1 0 9 4.6a4.41 4.41 0 0 0 0 8.82Z" fill="#DFD9C7"/><path d="M8.86 5.5a.25.25 0 0 1 .28 0l1.25.85c.16.1.2.32.1.49-.1.16-.3.2-.46.1l-.88-.6a.25.25 0 0 0-.28 0l-.9.6a.33.33 0 0 1-.46-.1.36.36 0 0 1 .09-.49l1.26-.86Z" fill="#DFD9C7"/><path d="M8.85 7.05a.25.25 0 0 1 .29 0l1.7 1.23c.16.11.2.35.1.54a.35.35 0 0 1-.29.18.32.32 0 0 1-.19-.06l-1.31-.97a.25.25 0 0 0-.3 0l-1.3.96c-.17.12-.38.08-.5-.1a.42.42 0 0 1 .1-.54l1.7-1.24Z" fill="#DFD9C7"/><path d="M8.81 9.06A.3.3 0 0 1 9 9a.3.3 0 0 1 .18.06l2.62 2c.2.15.26.47.13.7a.43.43 0 0 1-.39.24.4.4 0 0 1-.22-.08L9.2 10.27a.3.3 0 0 0-.37 0L6.7 11.91c-.2.16-.48.1-.62-.14a.55.55 0 0 1 .13-.7l2.61-2Z" fill="#DFD9C7"/><path fill="#DFD9C7" fill-opacity=".5" d="M5 8h1v1H5zM12 8h1v1h-1z"/></svg>