<!-- by TradingView --><svg width="18" height="18" viewBox="0 0 18 18" xmlns="http://www.w3.org/2000/svg"><path fill="#181B1E" d="M0 0h18v18H0z"/><path d="M4.93 7h4.42l1.06 1H5l-.07-1Z" fill="#ED87B1"/><path d="M9 15 3 9.35h1.24L9 13.78V15Z" fill="#E7649B"/><path d="M15 9.35 9 15v-1.22l4.76-4.43H15Z" fill="#B43D73"/><path d="M13.17 7.02 15 8.65h-1.24l-1.83-1.63h1.24Z" fill="#E7649B"/><path d="M9 3v1.2L6.5 6.6H5.26L9 3Z" fill="#C1C1C0"/><path d="m9 3 3.74 3.6h-1.26L9 4.2V3ZM9 4.79 7.2 6.6h1.23L9 6V4.79ZM6 9l.62-.7H5.38l-.62.7H6Z" fill="#FEFEFE"/><path d="M9 11.82 6 9H4.76L9 13.02v-1.2Z" fill="#959493"/><path d="m12 9-3 2.82v1.2L13.24 9H12Z" fill="#A9A8A8"/><path d="m9 6 3 3h1.24L9 4.79v1.22Z" fill="#C1C1C0"/><path d="M4.94 7 3 8.65h1.24L5 8l-.06-1Z" fill="#E7649B"/></svg>