<!-- by TradingView --><svg width="18" height="18" viewBox="0 0 18 18" xmlns="http://www.w3.org/2000/svg"><path fill="#F0F3FA" d="M0 0h18v18H0z"/><path d="m10.21 3 .45.47L8.33 5.7v.88l2.78-2.66 1.15 1.19-.23.22H14V6h-2.67l-.7.67H14v1.66h-.8l1.8 1.81-.46.46-2.25-2.27h-.9l2.7 2.7-1.19 1.17-.23-.24V14h-1v-3.04l-.67-.68V14H9.67v-.84L7.8 15l-.46-.46 2.32-2.28v-.88L6.9 14.09l-1.17-1.17.6-.59H4v-.66h3L7.7 11H4V9.33h.46L3 7.87l.46-.46 1.92 1.92h.9L3.9 6.97 5.1 5.8l.24.23V4H6v2.71l.67.67V4h1.66v.8L10.21 3Zm-2.6 5.33.57.57-.44.43h.6v1.03l.68-.67.65.75v-.77h.72l-.57-.57.78-.77h-.93V7.6L9 8.24l-.67-.68v.77h-.71Z" fill="#2A73C7"/></svg>