<!-- by TradingView --><svg width="18" height="18" viewBox="0 0 18 18" xmlns="http://www.w3.org/2000/svg"><path fill="#F0F3FA" d="M0 0h18v18H0z"/><path d="M8.77 4.01a.33.33 0 0 1-.1.02.39.39 0 0 0-.22.06v.05l.06.03c.01 0 .03 0 .03.02l.08.02c.05 0 .09-.01.09-.02s.02-.02.05-.02c.03 0 .05 0 .05-.02 0 0 .04-.02.1-.02l.1-.01c0-.01.1-.02.27-.02a1 1 0 0 1 .29.02l.09.01c.05 0 .09 0 .1.02l.02.02c.02 0 .03 0 .03.02 0 .01.03.02.1 0 .3-.02.62.01.62.07 0 .01.04.02.09.02.06 0 .08-.01.08-.03l.02-.03-.01-.02a1.9 1.9 0 0 0-.58-.13.68.68 0 0 1-.14-.02A11.54 11.54 0 0 0 8.77 4Zm-.76.2a.63.63 0 0 1-.12.05c-.05 0-.2.06-.21.08a.15.15 0 0 1-.08.03c-.05 0-.07 0-.1.05-.05.1-.07.12-.1.12-.02 0-.03.01-.03.02 0 .03-.1.02-.11 0-.01-.02-.01-.02-.02 0l-.04.02c-.02 0-.04 0-.04.02l-.03.01-.04.02-.15.08c-.28.14-.7.72-.99.72l-.04.04c-.01.02-.04.03-.07.03-.03 0-.05.01-.05.02l-.25.28-.25.27a4.78 4.78 0 0 1-.59.82c-.02 0-.01.05.02.12.05.1.05.27 0 .33-.02.03-.04.03-.04.02-.02-.05-.1-.02-.2.07-.08.1-.08.1-.08.18 0 .06-.01.1-.03.11-.07.07-.1.17-.06.21.01.02.01.03-.01.05-.03.02-.04.05-.1.23v.11a.3.3 0 0 1-.04.11c-.02.05-.02.06 0 .11a.3.3 0 0 1 .03.12c0 .05-.01.06-.06.1-.04.02-.06.04-.06.08l-.01.04c-.02 0-.06.17-.06.25 0 .06.03.1.08.1l.02.02.04.02.04.02c0 .02.01.02.02 0l.03-.02c.02 0 .03-.01.04-.03 0-.02.04-.04.08-.06l.09-.03.06.03c.03.03.03.05.03.14 0 .11 0 .11-.04.11-.08 0-.13.05-.13.12 0 .03 0 .06-.02.06l-.01.02-.04.1c-.03.07-.03.07-.01.1.01.02.04.03.05.03.02 0 .03 0 .03.02l.02.01c.02 0 .04.02.06.04.03.02.06.04.1.04.04 0 .06 0 .06.02 0 .04.01.06.03.1l.03.11c.01.04.03.08.06.1l.04.05.01.02.02.06c0 .04 0 .05-.05.06h-.07c-.04-.01-.08-.17-.05-.18l.02-.06c0-.04-.01-.05-.04-.05-.02 0-.03-.01-.03-.02l-.05-.03c-.04-.02-.05-.02-.08.02-.08.08-.11.2-.05.2.03 0 .1.08.1.12l-.01.05c-.02.03-.03.03-.06.02-.08-.05-.15.04-.1.12.03.03.05.04.1.03.05 0 .08 0 .08.02 0 0-.01.02-.03.02a.09.09 0 0 0-.05.02c-.03.03-.03.12 0 .12l.01.07c0 .05.01.1.03.13l.04.07.01.03c.04 0 .12.1.13.15 0 .03.02.06.03.07.03.02.04.01.08-.03l.05-.05-.03-.06a.34.34 0 0 1-.03-.15c0-.05 0-.09-.02-.09 0 0-.02-.01-.02-.03-.01-.02-.03-.04-.05-.04-.04 0-.08-.04-.08-.07 0-.03.08-.04.1-.02.02.03.08.01.17-.05.06-.04.07-.05.07-.1s-.01-.08-.05-.12c-.03-.03-.05-.07-.05-.09 0-.03 0-.03 0 0l.06.05c.05.03.1.12.1.2a2.57 2.57 0 0 0 .24.5c.04.03.08.12.08.2 0 .05 0 .05-.02.02-.02-.05-.1-.06-.1 0 0 .02 0 .03.02.03l.01.04-.01.03c-.01 0-.02 0-.02-.02l-.04-.01-.03.01-.03.02c-.02 0-.04 0-.04-.02l-.02-.01c-.02 0-.03-.01-.03-.02s-.02-.02-.05-.02c-.03 0-.05.01-.05.02l-.03.02c-.02 0-.03.01-.03.05 0 .03.01.05.02.05l.02.04.01.04c.02 0 .06.08.06.13 0 .04.11.18.17.2.03 0 .03.02.03.07 0 .12.18.48.27.48l.05.06.05.05s.04.02.06.05c.06.07.14.08.14.02 0-.02 0-.03.02-.03 0 0 .02-.03.02-.07 0-.05-.01-.08-.04-.1-.02 0-.03-.03-.03-.04 0-.04-.05-.08-.08-.08l-.03-.01c0-.01-.01-.03-.04-.04a.24.24 0 0 1-.08-.16c0-.01.03-.02.07-.02.04 0 .07 0 .08-.02l.06-.02c.05 0 .05 0 .05-.05 0-.03 0-.05-.02-.05l-.01-.04-.02-.04c-.02 0-.02 0 0 0 .02-.01.13.1.15.15 0 .02.01.03.02.03l.02.03.03.06c.02.01.05.06.07.1l.05.06a.9.9 0 0 1 .17.15l.08.05.05.03c0 .02.03.04.03.04.02 0 .18.1.19.13l.02.01s.04.02.06.05l.13.1c.04.02.09.05.1.07l.16.1c.15.07.41.27.56.27.1 0 .2.11.14.15-.04.03-.02.1.05.17.04.04.07.08.07.1 0 .02.02.02.07.02l.07-.01c0-.04.03-.02.05.03.02.05.02.05.14.05.07 0 .11.01.11.02 0 .02.03.02.1.01.21-.02.3-.03.3 0 0 .02.17.02.18 0 .02-.03 1.07-.24 1.21-.28a4.47 4.47 0 0 0 1.73-.75c.6-.54 1.03-.85 1.63-1.7a.22.22 0 0 0 .04-.1l.02-.02.02-.04c0-.02 0-.03.02-.03l.01-.04c0-.02.01-.03.02-.03l.02-.04.01-.04c.01 0 .02-.01.02-.03l.02-.04s.02-.01.02-.03l.01-.04.02-.04c0-.03 0-.05.02-.05 0 0 .02-.01.02-.03 0-.02 0-.06.02-.08.04-.08.04-.1.04-.13l.02-.04.03-.09.04-.11a2.83 2.83 0 0 0 .16-1.15c-.02 0-.06.06-.06.1l-.01.04-.03.09a7.64 7.64 0 0 1-.15.8c-.04.15-.1.34-.12.35l-.01.05-.02.05-.02.06c0 .02 0 .04-.02.04l-.01.04c0 .03-.01.05-.02.05 0 0-.02.01-.02.03l-.01.02c-.01 0-.02.02-.02.05 0 .07-.02.1-.06.1-.05 0-.05 0-.01-.1a.33.33 0 0 0 .03-.1l.02-.04.02-.06c0-.02 0-.04.02-.04l.01-.07c0-.04.01-.07.02-.07l.02-.06.01-.05.02-.04c0-.02 0-.03-.02-.03l-.01-.06.01-.05.02-.04c0-.04.04-.08.08-.08.06 0 .07-.08.1-.56a9.32 9.32 0 0 1 .01-.55s-.02-.02-.02-.05l-.01-.05-.03-.32c-.02-.95-.24-2.1-.91-2.77a.67.67 0 0 1-.11-.13l-.05-.05a.2.2 0 0 1-.07-.08l-.05-.06a.5.5 0 0 1-.11-.09.45.45 0 0 0-.1-.08s-.04-.02-.07-.06c-.04-.03-.08-.06-.1-.06l-.02-.01c0-.01-.02-.03-.05-.04a.57.57 0 0 1-.1-.1c-.04-.03-.08-.06-.1-.06l-.02-.02-.03-.02-.07-.04a.62.62 0 0 0-.13-.09c-.05-.02-.12-.1-.18-.1-.05 0-.13-.04-.13-.06l-.03-.01c-.02 0-.04 0-.04-.02a1.17 1.17 0 0 0-.29-.14c0-.02.21.05.22.07.01.03.07 0 .07.04l.06.01c.06 0 .13.07.19.07.04 0 .08.08.12.08l.05.03c.04.04.1.07.14.07.04 0 .05 0 .05-.04 0-.03-.02-.05-.07-.07l-.07-.05s-.01-.02-.03-.02l-.02-.01-.04-.02c-.1 0-.22-.13-.32-.16-.05-.01-.09-.03-.09-.04l-.03-.01-.04-.02c0-.01 0-.02-.02-.02a.27.27 0 0 1-.08-.03c-.13-.07-.26-.1-.26-.06 0 .02.1.13.14.15.02 0 .02 0 0 .01-.02 0-.04 0-.04-.02l-.06-.01a.45.45 0 0 1-.19-.06l-.07-.02c-.05 0-.06.01-.05.04 0 .04.02.05.12.08.06.01.11.03.11.04l.04.02c.09 0 .4.16.45.22.01.02.04.03.05.03.02 0 .03 0 .03.02l.09.05.09.06.01.01.08.05c.06.04.06.04.03.04-.02 0-.04 0-.04-.02l-.03-.01a.17.17 0 0 1-.07-.04.7.7 0 0 0-.1-.05l-.06-.04s0-.02-.02-.02c-.36 0-.66-.37-1-.37-.02 0-.04 0-.04-.02 0 0-.06-.02-.13-.02a19 19 0 0 1-.64-.06l-.12-.02h.11c.08 0 .1 0 .1-.03 0-.02-.05-.03-.4-.03-.4 0-.55.02-.55.07 0 .03.03.04.2.03h.08c-.03 0-.06.02-.06.03 0 0-.13.02-.29.02-.32.01-.4.02-.43.07a.1.1 0 0 1-.07.03L8 4.5l-.1.02c-.03 0-.07 0-.07.02 0 .03-.1.02-.1-.01-.02-.05-.02-.05.02-.05.02 0 .08-.02.15-.06l.21-.08c.11-.03.13-.04.1-.11-.02-.06-.06-.06-.2 0Zm-.74.5c.03.02.02.03-.04.05a.75.75 0 0 0-.13.05c-.07.04-.13.05-.13 0 0 0 .02-.02.05-.02.03 0 .07-.02.1-.05.06-.06.1-.07.15-.03Zm4.48.3.1.09.05.03c.03 0 .11.09.1.1h-.03c0-.02-.01-.03-.03-.04a.24.24 0 0 1-.08-.05c-.02-.03-.05-.05-.06-.05-.01 0-.04-.01-.05-.03-.01-.02-.03-.04-.05-.04l-.02-.01-.03-.03c-.01 0-.02 0 0 0l.1.04Zm.5.1c0 .03.1.13.12.13l.04-.03c.03-.02.02-.03-.01-.07-.05-.05-.15-.06-.15-.03Zm.35.26c-.03.04.04.15.1.15.06 0 .06-.05 0-.1-.06-.06-.08-.07-.1-.05ZM4.62 8.52c.03.02.03.15 0 .16l-.03.06c-.02.03-.02.04.01.07l.04.07c0 .03-.01.04-.08.04s-.1-.01-.14-.07l-.09-.06-.02-.01c0-.03.04-.06.08-.06l.06-.03.04-.04c.03 0 .04-.04.04-.1 0-.04.04-.06.09-.03Zm.04.7c.02.05.01.09 0 .09-.02 0-.02-.02-.02-.04s-.01-.03-.02-.03l-.02-.02c0-.03.05-.02.06 0Zm.3 2.02-.03.06c0 .02-.01.03-.02.03-.04 0-.02.07.03.09.05 0 .07 0 .1-.07s.03-.12 0-.13c-.04-.01-.03-.02-.08.02Zm.22.47c.03.03-.05.12-.09.09a.1.1 0 0 1-.02-.07c0-.03 0-.04.04-.04.02 0 .05 0 .07.02Zm.14.13-.05.07c-.05.05-.1.06-.1.03s.04-.07.07-.07c.02 0 .03-.01.03-.02s.01-.02.03-.02l.02.01Zm.4.4c-.03 0-.02.05 0 .06h.06l.01-.02-.02-.03c0-.03-.01-.03-.05-.02Zm.2.28v.06c.01.05.1.05.1 0 0-.06-.08-.1-.1-.06Zm-.15.26c-.03.1-.01.14.08.23.1.1.27.23.3.23l.02.01c0 .01.02.02.05.02.03 0 .05 0 .05.02l.06.02c.07 0 .16-.08.13-.11a.09.09 0 0 1-.02-.06c0-.08-.15-.15-.32-.15-.05 0-.07-.01-.07-.03L6 12.91l-.03-.06-.04-.05-.03-.06c0-.01-.02-.02-.06-.02-.05 0-.06 0-.08.06Zm.45.03c-.04.04-.02.1.02.12.06.03.08.03.1 0 .03-.03.03-.04-.02-.09-.05-.05-.07-.06-.1-.03Zm.33.2c-.02.03 0 .05.03.09a.3.3 0 0 0 .08.06l.04.02c0 .03.05.02.07 0 .03-.03.01-.06-.1-.14-.1-.06-.1-.06-.12-.02Zm-.08.27c0 .01-.02.03-.05.04-.06.03-.06.04-.01.1.04.03.08.04.08.01 0 0 .01-.02.03-.02.04 0 .08-.05.07-.1-.01-.03-.02-.04-.06-.04l-.06.01Z" fill="#BE0E1E"/><path fill-rule="evenodd" d="M8.01 4.81c.5-.26.48-.3.43-.38a.3.3 0 0 1-.03-.05 9.05 9.05 0 0 1 .42-.03l.06-.03H8.8c-.16 0-.2 0-.2-.03 0-.05.16-.07.56-.07.35 0 .4 0 .4.03 0 .02-.02.03-.1.03h-.1l.11.02a19.01 19.01 0 0 0 .77.08l.04.02c.17 0 .33.1.49.18.16.1.33.2.51.2h.02c0 .02.03.03.06.05a.7.7 0 0 1 .1.05l.07.04.03.01.04.02c.03 0 .03 0-.02-.04a.28.28 0 0 0-.09-.05l-.01-.01-.1-.06-.08-.05c0-.01-.01-.02-.03-.02-.01 0-.04-.01-.05-.03a1.16 1.16 0 0 0-.45-.22c-.02 0-.03 0-.04-.02 0 0-.05-.03-.11-.04-.1-.03-.12-.04-.12-.08 0-.03 0-.04.05-.04l.07.02c.02.02.14.06.19.06l.06.01.04.02c.02 0 .02 0 0-.01a.45.45 0 0 1-.14-.15c0-.04.13 0 .26.06l.08.03c.01 0 .02 0 .02.02l.04.02.03.01s.04.03.09.04l.14.07c.06.05.13.09.18.09.02 0 .04 0 .04.02l.02.01c.02 0 .03.01.03.02l.07.05c.05.02.07.04.07.07 0 .03-.01.04-.05.04a.21.21 0 0 1-.14-.07l-.05-.03c-.02 0-.04-.02-.06-.04-.02-.02-.04-.04-.06-.04a.2.2 0 0 1-.1-.03.22.22 0 0 0-.1-.04l-.04-.01c0-.02-.02-.02-.04-.02s-.03 0-.04-.02c0-.02-.22-.09-.22-.07l.04.02a1.17 1.17 0 0 1 .29.14l.03.01c0 .02.08.06.13.06.03 0 .08.03.11.06l.07.04.13.09.07.04c.01 0 .03 0 .03.02 0 0 0 .02.02.02s.06.03.1.06l.1.1c.03 0 .05.03.05.04l.03.01.09.06c.03.04.06.06.07.06l.1.08.1.1c.02 0 .05.03.06.05l.02.04a.66.66 0 0 0-.11-.05 2 2 0 0 1-.35-.16c-.17-.08-.24-.12-.39 0-.14.1-.19.05-.32-.08a2.9 2.9 0 0 0-.37-.3 1.23 1.23 0 0 0-.8-.29l-.35-.03c-.57-.06-.73-.04-.93.2-.12.14.21.24.6.35.3.08.62.18.83.3l.5.34c.17.11.31.22.59.38.3.17.45.34.6.5.1.1.18.2.3.3.3.22 0 .41-.36.39-.25-.02-.35-.15-.53-.37a4.83 4.83 0 0 0-.4-.47c-.29-.3-.29-.3-.56-.25-.14.02-.16.2-.17.37-.01.2-.02.4-.25.28-.33-.17-.28-1.1-.22-1.55l-.35.14c-.22-.07-.73-.22-.93-.26-.17-.04-.59.1-.96.23a7.4 7.4 0 0 1-.46.14c-.38.1-.79 1.1-.79 1.45 0 .22.1.37.16.47.03.05.06.1.04.12-.03.06-.18.48-.2 1.03-.01.37.12.42.39.52.14.06.32.13.54.27.64.41.75.7.63 1.11-.09.29-.08.31-.05.39l.05.15c.03.15.08.17.22.25.1.05.23.11.43.26.43.3.19.49 0 .63a1.95 1.95 0 0 0-.17.14.34.34 0 0 1-.1.06c-.03.02-.06.01-.14.01-.16 0-.32-.08-.54-.18l-.13-.07-.07-.03a5.48 5.48 0 0 1-1.7-1.03c-.2-.26-.17-.3-.14-.36.03-.04.05-.08-.02-.22-.12-.23-.22-.26-.28-.27-.03-.01-.05-.01-.06-.03a2.5 2.5 0 0 1-.22-.8 4 4 0 0 1 .35-1.62c.12-.27.29-.53.44-.77.15-.24.28-.45.3-.58.03-.11.03-.19.04-.26 0-.1 0-.18.06-.32.06-.17.17-.22.35-.31a3.63 3.63 0 0 0 .59-.34c.15-.11.28-.2.84-.49Zm.44-.68v-.04a.4.4 0 0 1 .22-.06l.1-.02a11.54 11.54 0 0 1 1.22.04l.14.02c.29.04.52.09.58.13.02.01.02.02.01.02l-.02.03c0 .02-.02.03-.08.03-.05 0-.09-.01-.09-.02 0-.06-.33-.1-.61-.06l-.11-.01c0-.01-.01-.02-.03-.02 0 0-.02 0-.03-.02 0-.01-.04-.02-.1-.02l-.08-.01a1 1 0 0 0-.29-.02c-.17 0-.28 0-.28.02l-.1.01c-.05 0-.09.01-.09.02s-.02.02-.05.02c-.03 0-.05 0-.05.02 0 0-.04.02-.09.02l-.08-.02-.03-.02a.09.09 0 0 1-.05-.03l-.01-.01Zm5.06 2.99-.63-.7c-.78-.9-.62-.64-.38-.28.14.21.31.47.31.53 0 .18.42 1.58.57 2.09.13.44-.3 1.4-.5 1.85a12.27 12.27 0 0 1-1.08 1.86.7.7 0 0 1-.08.06h-.01c-.13.1-.46.2-.8.24-.2.02-.28.07-.36.11a.92.92 0 0 1-.3.1c-.25.05-.32.04-.52.02a10.63 10.63 0 0 0-.55-.03c-.13 0-.26 0-.61-.04-.39-.04-.5-.07-.79-.18a16.5 16.5 0 0 0-.66-.21l-.34-.1c-.3-.1-.41-.13-.5-.2-.05-.04-.09-.1-.16-.18a2.71 2.71 0 0 0-.49-.5c-.15-.14-.28-.25-.34-.43a3.05 3.05 0 0 0-.4-.64c-.1-.16-.21-.3-.26-.4l.03.11c.01.04.03.08.06.1l.04.05.01.02.02.06c0 .04 0 .05-.05.06h-.07c-.04-.01-.08-.17-.05-.18l.02-.06c0-.04-.01-.05-.04-.05-.02 0-.03-.01-.03-.02l-.03-.02a.67.67 0 0 0-.13.22c.04.02.09.08.09.1l-.02.06c-.02.03-.03.03-.06.02a.08.08 0 0 0-.05-.01l-.02.15c.02.01.04.02.08.01.04 0 .07 0 .07.02 0 0-.01.02-.03.02a.09.09 0 0 0-.05.02c-.03.03-.03.12 0 .12l.01.07c0 .05.01.1.03.12l.04.08.01.03c.04 0 .12.1.13.15 0 .03.02.06.03.07.03.02.04.01.08-.03l.06-.05-.04-.06a.33.33 0 0 1-.03-.15c0-.05 0-.09-.02-.09 0 0-.02-.01-.02-.03-.01-.02-.03-.04-.05-.04-.04 0-.08-.04-.08-.07 0-.03.08-.04.1-.02.02.03.08.01.17-.05.06-.04.07-.05.07-.1s-.01-.08-.05-.12c-.03-.03-.05-.07-.05-.09 0-.03 0-.03.01 0l.05.05c.05.03.1.12.1.2a2.56 2.56 0 0 0 .24.5c.04.03.08.12.08.2 0 .05 0 .05-.02.02-.02-.05-.1-.06-.1 0 0 .02 0 .03.02.03l.01.04-.01.03c-.01 0-.02 0-.02-.02l-.04-.01-.03.01-.03.02c-.02 0-.04 0-.04-.02l-.02-.01c-.02 0-.03-.01-.03-.02s-.02-.02-.05-.02c-.03 0-.05.01-.05.02 0 0-.01.02-.03.02-.02 0-.02.01-.02.05l.01.05.02.04.01.04c.02 0 .06.08.06.13 0 .04.11.18.17.2.03 0 .03.02.03.07 0 .12.18.48.27.48l.05.06.05.05s.04.02.06.05c.06.07.14.08.14.02 0-.02 0-.03.02-.03 0 0 .02-.03.02-.07 0-.05-.01-.08-.04-.1-.02 0-.03-.03-.03-.04 0-.04-.05-.08-.08-.08l-.03-.01c0-.01-.01-.03-.04-.04a.24.24 0 0 1-.08-.16c0-.01.03-.02.07-.02.04 0 .07 0 .08-.02l.06-.02c.05 0 .05 0 .05-.05 0-.03 0-.05-.02-.05l-.01-.04-.02-.04c-.02 0-.02 0 0 0 .02-.01.13.1.15.15 0 .02.01.03.02.03l.02.03.03.06c.02.01.05.06.07.1l.05.06a.9.9 0 0 1 .17.15l.08.05.05.03c0 .02.03.04.04.04.01 0 .17.1.18.13l.02.01s.04.02.06.05l.13.1c.04.02.09.05.1.07l.16.1.14.08c.14.08.31.19.42.19.1 0 .2.11.14.15-.04.03-.02.1.05.17.04.04.07.08.07.1 0 .02.02.02.07.02l.07-.01c0-.04.03-.02.05.03.02.05.02.05.14.05.07 0 .11.01.11.02 0 .02.03.02.1.01.21-.02.3-.03.3 0 0 .02.17.02.18 0 .01-.02.43-.11.78-.18l.44-.1a4.5 4.5 0 0 0 1.72-.75l.32-.29c.44-.39.82-.72 1.31-1.42a.22.22 0 0 0 .04-.08c0-.02.01-.03.02-.03l.02-.04c0-.02 0-.03.02-.03l.01-.04c0-.02.01-.03.02-.03l.02-.04c0-.02 0-.04.02-.04l.01-.03.02-.04s.02-.01.02-.03l.01-.04.02-.04c0-.03 0-.05.02-.05 0 0 .02-.01.02-.03 0-.02 0-.06.02-.08.04-.08.04-.1.04-.13l.02-.04.03-.09.04-.12a2.8 2.8 0 0 0 .16-1.14c-.02 0-.06.06-.06.1l-.01.04-.03.09a8 8 0 0 1-.1.62l-.05.17c-.04.16-.1.35-.12.36l-.01.05-.02.05-.02.06-.01.04-.02.04c0 .03-.01.05-.02.05 0 0-.02.01-.02.03l-.01.02c-.01 0-.02.02-.02.05 0 .07-.02.1-.06.1-.05 0-.05 0-.01-.1a.33.33 0 0 0 .03-.1l.02-.05.02-.05c0-.02 0-.04.02-.04l.01-.07c0-.04.01-.07.02-.07l.02-.06c0-.03 0-.05.02-.05l.01-.04-.01-.03-.02-.06c0-.03 0-.05.02-.05l.01-.04c0-.04.04-.08.08-.08.06 0 .08-.08.1-.56a9.37 9.37 0 0 1 .01-.55s-.02-.02-.02-.05l-.01-.05-.03-.32a6.13 6.13 0 0 0-.19-1.4ZM8.77 8.8c-.03.3.1.6.16.63.16-.06.23-.52.23-.85 0-.2-.01-.2-.07-.2a.39.39 0 0 1-.19-.06c-.16-.1-.15.01-.13.19v.3Zm.24 2.73c-.05-.16-.12-.34.17-.32.16 0 .24.08.3.14.07.07.12.1.26-.06l.1-.13a.69.69 0 0 0 .09-.12l.06-.12c.04-.08.05-.19.06-.26.01-.13.02-.19.16-.02.07.09.12.2.15.28.08.18.12.28.38-.08.15-.21.23-.35.29-.45.08-.15.1-.19.21-.19.05 0 .1-.02.16-.04.13-.05.24-.1.18.31-.09.57-.14.76-.84 1.04-.26.11-.4.2-.5.25-.18.1-.23.12-.5.1a1.46 1.46 0 0 1-.7-.23.92.92 0 0 0-.03-.1Zm2.85-6.43a.58.58 0 0 0-.22-.13l.01.01c.02 0 .03.02.03.03l.02.01c.02 0 .04.02.05.04.01.02.04.03.05.03.01 0 .04.02.06.05.03.02.06.05.08.05.02 0 .03.02.03.03H12c.02 0-.06-.09-.09-.09l-.04-.03Zm.5.14c-.02 0-.11-.1-.11-.13s.1-.02.15.03c.04.04.04.05.01.07l-.04.03Zm.34.28c-.06 0-.13-.1-.1-.15.02-.02.04-.01.1.04.06.06.06.11 0 .11ZM4.93 11.3c0-.01.01-.04.04-.06l.04-.03.03.01c.03.01.03.06 0 .13s-.05.08-.1.07c-.05-.02-.07-.09-.03-.09.01 0 .02 0 .02-.03Zm.16.5c.04.03.12-.06.09-.09a.1.1 0 0 0-.07-.02c-.04 0-.04 0-.04.04 0 .02 0 .05.02.07Zm.18.1a.25.25 0 0 0 .05-.06h-.05c0 .02-.01.03-.03.03-.03 0-.07.04-.07.07 0 .03.05.02.1-.03Zm.46.4c-.03-.01-.04-.05 0-.07.03-.01.04 0 .04.02l.02.03v.01a.07.07 0 0 1-.06.01Zm.19.28v-.06c.02-.04.1 0 .1.06 0 .05-.09.05-.1 0Zm-.07.43c-.1-.09-.1-.14-.08-.23.02-.05.03-.06.08-.06.04 0 .06 0 .06.02l.03.06.04.05.03.06.04.05c0 .02.02.03.07.03.17 0 .32.07.32.15 0 .02 0 .04.02.06.03.03-.06.1-.13.1l-.06-.01c0-.01-.02-.02-.05-.02-.03 0-.05 0-.05-.02l-.02-.01c-.03 0-.2-.14-.3-.23Zm.4-.08a.07.07 0 0 1-.03-.12c.03-.03.05-.02.1.03s.05.06.03.08c-.03.04-.05.04-.1.01Zm.33.17c-.04-.04-.05-.06-.03-.08.02-.04.03-.04.12.02.11.08.13.1.1.14-.02.02-.07.03-.07 0l-.04-.02a.3.3 0 0 1-.08-.06Zm-.16.22c.03-.01.05-.03.05-.04h.06c.04 0 .05 0 .06.04.01.04-.03.1-.07.1l-.03.01c0 .03-.04.02-.08-.02-.05-.05-.05-.06.01-.09Z" fill="#DB0F21"/><path d="M5.82 6.7c-.14.22.37.45.51.57l.6-.83c.08-.16.86-.2 1.37-.12.5.07.21.45 0 .46-.21.02-.43.09-.5.35-.08.27.16.25.42.59.26.34.37.27.59.08.21-.18.49-.16.94-.08.45.08.34.79 0 1.26-.35.46.34.22.76.42.42.2.43.62.64 1.06.21.44-.1.56-.27.93-.16.37-.25.27-1.18.4-.92.14-.54.42-.64.58-.1.17.36.39.64.35.29-.04.6 0 1.02-.29.41-.29.35-.37.64-.94.3-.57.53-.89.75-2.16.22-1.26.43.01.4.63a3.6 3.6 0 0 1-.8 1.98c-.48.63-.18.18 0 .5.2.3.3-.16.88-.9.58-.73.27-.55.74-2 .47-1.46-.29-1.24-.4-2.16-.1-.92-.26-.46-.53-.79-.26-.33-.2-.56-.2-.81 0-.26.34.2.84.76.5.55.14-.02 0-.3-.14-.27-.54-.73-.83-.79-.3-.05-.4-.16-1.06-.36-.66-.2-1.12-.19-1.31-.1-.2.08.21.26.91.46.7.2 1.18.9 1.65 1.54.47.63.14.52.19.92.05.4.05.36-.19 0a4.9 4.9 0 0 0-.68-.83c-.32-.33-.47-.49-.97-.49s-.21.24-.45.33c-.24.1-.4-.1-.46-.22-.07-.1-.07-.05-.42-.35s0-.1 0-.19c0-.08.14-.16.23-.43s-.08-.07-.23-.22c-.15-.15-.44-.1-.9-.13-.48-.04-.7.05-1.1.28-.4.23-.6.25-.93.44-.33.18-.54.38-.67.6Z" fill="#95070F"/><path d="M7.51 9.87V7H8v2.87C8 10.36 7.66 11 6.93 11a.96.96 0 0 1-.93-.58l.43-.4c.05.13.22.4.5.4.41 0 .56-.37.58-.55Z" fill="url(#ayaynchao)"/><path d="M12 9.96V9h-1v.4h.62v.72c-.23.3-.56.48-.93.48-.73 0-1.32-.72-1.32-1.6 0-.88.6-1.6 1.32-1.6.45 0 .7.3.92.7l.3-.24c-.29-.52-.77-.86-1.31-.86C9.7 7 9 7.9 9 9s.71 2 1.6 2c.39 0 .75-.18 1.02-.47V11H12V9.96Z" fill="url(#byaynchao)"/><defs><linearGradient id="ayaynchao" x1="8.46" y1="8.92" x2="6.64" y2="10.61" gradientUnits="userSpaceOnUse"><stop stop-color="#FFF7B0"/><stop offset="1" stop-color="#F8E580"/></linearGradient><linearGradient id="byaynchao" x1="11.97" y1="10.07" x2="11.31" y2="10.24" gradientUnits="userSpaceOnUse"><stop stop-color="#FFFAB0"/><stop offset="1" stop-color="#FFF494"/></linearGradient></defs></svg>