<!-- by TradingView --><svg width="18" height="18" xmlns="http://www.w3.org/2000/svg"><path fill="url(#paint0_linear)" d="M0 0h18v18H0z"/><path d="M14.964 5.349c.092-.184 0-.332-.185-.349h-2.425c-.204 0-.462.147-.535.387 0 0-.074.368-.205.349h-.944l.149-.387c.073-.184-.02-.332-.205-.349H8.19a.608.608 0 00-.536.387S6.478 8.49 6.35 8.47l-2.164-.019c-.185 0-.509.355-.601.594C2.362 11.106 3.066 13 5.619 13c.98 0 1.628-.295 2.091-.7.426.442 1.11.7 2.072.7 2.257 0 3.145-2.502 3.145-2.502l2.037-5.15z" fill="#FFC609"/><path d="M11.82 6.93h.407c.148 0 .148.073.112.147-.166.312-.37.607-.629.828l.278.588c.036.055.073.128-.037.128h-1.018c-.073 0-.111-.092-.129-.128-.019 0-.056.036-.092.055-.259.092-.37.111-.796.092-.777-.019-1.147-.643-.944-1.067.129-.276.166-.57.796-.808 0 0-.037-.22.055-.48.149-.348.796-.643 1.425-.624.426.02.98.332.796.791-.168.422-.335.478-.224.478z" fill="#FFC609"/><path fill-rule="evenodd" d="M8.828 9.215L9.3 8.02c.067.143.223.259.464.312.078.018.166.03.263.032.21.011.376-.006.521-.04a1.99 1.99 0 00.238-.07.552.552 0 00.033-.02c.017-.01.03-.017.04-.017l.009.016c.016.035.036.076.084.076h.165l-.13.322.001-.002c-.34.844-.633 1.568-.684 1.684l-.014.035c-.1.25-.146.367-.408.351l-.001.002c-.24-.034-.147-.305-.103-.432l.01-.028c.016-.048.05-.134.096-.254.06-.156.142-.369.237-.629.056-.128.004-.143-.125-.143H8.828zm.933-2.368l-.142.362c.106-.08.25-.158.447-.226h.017c-.092-.11-.073-.239 0-.423.085-.287.51-.556.95-.6h-.001c.04-.004.08-.006.12-.007h.002c.23.01.425.131.5.31v.002c.04.097.045.211 0 .333-.063.187-.232.317-.395.403l.004-.01-.004.008c-.108.058-.214.097-.281.122l-.027.01.098.181a.217.217 0 01.03.058l.13-.11a2.68 2.68 0 01.11-.093l.006-.004c.071-.055.09-.069.18-.069h.099l.566-1.414c.075-.184.29-.373.438-.373h1.14l-.001.002H14.219c.129.019.191.203.135.35l-.575 1.462-.021.041.02-.04-1.33 3.375c-.215.518-.613 1.304-1.406 1.747l.001-.003-.001.001a2.535 2.535 0 01-.753.276v-.002c-.198.041-.26.044-.382.051l-.032.002v.001a2.913 2.913 0 01-.944-.09v.002c-.598-.163-.96-.55-1.133-1.031a2.78 2.78 0 01-.944.826c-.35.182-.774.298-1.288.298-.154 0-.3-.011-.44-.03l-.001.003a2.49 2.49 0 01-.53-.133l.001-.002a1.808 1.808 0 01-.717-.482l.252-.488-.252.486c-.547-.638-.57-1.648.005-2.644A.451.451 0 014.29 9h1.105l-.001.002h.444c.129 0 .204.128.148.256-.13.36-.234.688-.29.868l-.037.114-.007.022c-.025.07-.066.187-.056.284l-.002.002c.01.076.05.137.157.153.263.017.31-.098.41-.347l.015-.04c.087-.195.878-2.164 1.402-3.472l.003-.004-.003.004.466-1.163c.056-.137.246-.354.405-.372l-.002.004a.18.18 0 01.047-.003h1.602c.13.019.204.132.149.28L9.76 6.847zm.914-.268a.215.215 0 01.075-.092.29.29 0 01.164-.054c.13 0 .185.056.166.148-.037.092-.166.165-.314.22a.415.415 0 01-.094-.165l.002-.003a.121.121 0 01.001-.054zm-.647 1.03c.028-.086.104-.139.226-.194v.001l.086-.036.02-.008.203.349-.024.01a.91.91 0 01-.309.082.296.296 0 01-.166-.04.12.12 0 01-.036-.163z" fill="url(#paint1_linear)"/><defs><linearGradient id="paint0_linear" x1="3.349" y1="3.122" x2="21.904" y2="24.434" gradientUnits="userSpaceOnUse"><stop stop-color="#1A1E21"/><stop offset="1" stop-color="#06060A"/></linearGradient><linearGradient id="paint1_linear" x1="5.491" y1="6.567" x2="12.057" y2="17.89" gradientUnits="userSpaceOnUse"><stop stop-color="#1A1E21"/><stop offset="1" stop-color="#06060A"/></linearGradient></defs></svg>