<!-- by TradingView --><svg width="18" height="18" viewBox="0 0 18 18" xmlns="http://www.w3.org/2000/svg"><path fill="#F0F3FA" d="M0 0h18v18H0z"/><path d="M13.14 11.88a94.12 94.12 0 0 1 .48-.28c.02 0 .03.02.04.03l-.01.03-.82 1.1c-.27.38-.78.33-1.14.56-.49.32-.94.51-1.34.59a4.9 4.9 0 0 1-3.43-.57c-1.76-1-2.91-2.47-2.92-4.4-.01-2.59 2.01-4.4 4.57-4.81.49-.08 1.12-.06 1.62-.04.03 0 .05-.02.06-.04 0-.03-.01-.05-.03-.06a8.4 8.4 0 0 0-3.3-.38.05.05 0 0 1-.04-.04c0-.02 0-.04.03-.04a6.72 6.72 0 0 1 1.48-.26l.01-.02v-.01h-.01l-.94-.13c-.02 0-.04-.02-.04-.04s.02-.04.04-.04a7.6 7.6 0 0 1 1.18 0 5.9 5.9 0 0 1 3.12 1.03c.47.38 1 .49 1.14 1.2 0 .05.02.09.05.12.02.03.06.06.1.08.34.15.69.37.9.64.04.03.06.09.06.14 0 .06-.03.13-.1.16-.33.16-.92-.1-1.34-.29a6.55 6.55 0 0 0-2.65-.52c-1.33 0-2.38.7-3.08 1.78-.03.03 0 .08.05.08a.77.77 0 0 0 .46-.18c.04-.04.1-.06.14-.08l.85-.28c.69-.22 1.42-.3 2.2-.23.02 0 .04.02.04.04v.03l-.03.02c-.26-.01-.45.02-.58.1a.06.06 0 0 0-.03.06c0 .03.03.05.06.05.98.03 2.34.55 2.34 1.76 0 1.22-1.43 1.7-2.45 1.7a8.75 8.75 0 0 1-3.35-.85c-.03 0-.06.01-.06.04.09.93.53 1.62 1.33 2.09.04.02.08-.01.07-.05l-.05-.24v-.02c.01-.02.03-.03.05-.03h.02c.24.16.43.3.69.35.33.08.58.19.74.33.03.02.08.03.12.02l.3-.12a.17.17 0 0 1 .14 0c.15.09.28.12.4.1 1.32-.14 2.51-1 3.48-1.87a.06.06 0 0 1 .1.03v.04a2.77 2.77 0 0 1-.91 1.03c0 .01.02.05.04.05H13l.94-.65h.03c.01 0 .03 0 .03.02v.02c-.23.44-.53.8-.9 1.1-.02 0 0 .04 0 .05h.04Zm-6.59-2.8c.52.2 1.95.72 3.08.71.85 0 1.35-.33 1.37-1.16.01-.61-.64-.97-1.2-1.07a4.9 4.9 0 0 0-1-.12c-.63.05-1.3.12-1.99.23-.05.01-.1.05-.13.1-.2.37-.26.77-.2 1.21 0 .05.03.08.07.1Z" fill="#A83C2E"/></svg>