<!-- by TradingView --><svg xmlns="http://www.w3.org/2000/svg" width="18" height="18" viewBox="0 0 18 18"><path fill="#F0F3FA" d="M0 0h18v18H0z"/><path d="M8.07 10A5.36 5.36 0 0 1 5.8 7.24l-.04-.1c1.43-.19 3.08-.19 4.36.44l.3.17L8.06 10Zm2.64-2.02-2.66 2.51.65.3c.82.29 1.76.37 2.45-.33.3-.29.41-.58.43-.86.02-.29-.07-.57-.23-.85a3.1 3.1 0 0 0-.64-.77Zm-2.97 2.8c.24.13.52.27.83.38.86.31 2 .45 2.87-.41.35-.36.52-.74.54-1.13.02-.38-.1-.74-.28-1.06a3.48 3.48 0 0 0-.7-.86l.95-.9c.37-.34.87-.76 1.51-.76.36 0 .76.3.76.3H15c-1.39.45-1.58 1.42-1.85 2.82a4.65 4.65 0 0 1-1.05 2.44 3.1 3.1 0 0 1-2.43.93c-.62 0-1.21-.23-1.77-.53-.3-.16-.6-.36-.84-.57l.68-.65Zm2.98-3.3c-.15-.12-.3-.2-.41-.26-1.42-.7-3.21-.67-4.69-.46-.23-.64-.36-1.3-.53-2.13L4.96 4s.84.37 1.54.7c.7.33 1.34.51 1.94.67 1.04.29 1.96.54 2.88 1.53l-.6.57Zm-2.27 5.2a5.31 5.31 0 0 1-1.65-.97L4 14.21v.29a8.53 8.53 0 0 1 4.45-1.82Z" fill="#0158A7"/></svg>