<!-- by TradingView --><svg width="18" height="18" viewBox="0 0 18 18" xmlns="http://www.w3.org/2000/svg"><path fill="#F0F3FA" d="M0 0h18v18H0z"/><path d="M5.77 6h.2c.4.02.8.21 1.09.5.23.24.38.55.47.87.08.37.05.75 0 1.13-.06.42-.16.83-.32 1.23A6.6 6.6 0 0 1 9.8 9.1c.9 0 1.81.25 2.63.67.57.3 1.1.66 1.63 1.05.54.38 1.16.63 1.78.83.07.02.16.06.17.15.02.1-.06.2-.16.2H3.04c-.03-.03-.05-.08-.03-.12.06-.34.3-.6.53-.82.42-.4.88-.76 1.23-1.22.18-.26.32-.58.28-.9a.69.69 0 0 0-.34-.5 2.12 2.12 0 0 0-.79-.27l-1.6-.24-.23-.04c-.09-.04-.12-.16-.06-.24.03-.05.1-.06.15-.08l1.36-.26c.21-.05.43-.1.6-.25.16-.12.25-.3.38-.46A1.7 1.7 0 0 1 5.77 6Zm-.52.66a.37.37 0 0 0-.26.22l-.1.31c-.02.03-.02.09.02.1.14.04.27.11.4.13.23.02.43-.2.4-.42 0-.23-.24-.4-.46-.34Zm2 1.5a.79.79 0 0 1-.38.54c-.31.2-.7.23-1.06.16a1.59 1.59 0 0 1-.68-.3c.17.33.15.75-.01 1.07-.08.17-.2.31-.31.45.22-.18.45-.35.72-.46.17-.09.36-.13.54-.2.27-.1.54-.23.77-.41.3-.23.48-.62.46-1-.05.03-.04.1-.05.16Zm-1.5 2.63c-.63.26-2.22.03-2.46.9h3.25c-.75-.1-.68-.71-.25-1.16-.18.1-.35.2-.54.26Z" fill="#212533"/><path d="M5.25 6.8c.12-.05.28.03.32.16.06.15-.07.33-.23.32-.09 0-.17-.04-.25-.08-.04 0-.05-.05-.03-.08.04-.11.06-.27.19-.32Z" fill="#E9473B"/></svg>