<!-- by TradingView --><svg width="18" height="18" viewBox="0 0 18 18" xmlns="http://www.w3.org/2000/svg"><path fill="#33993C" d="M0 0h18v18H0z"/><path d="M7.01 6.07V6h-2.7v.07c.45.08.69.27.69.98v3.66c0 .5-.33 1.05-.76 1.27 0 0 .65.12 1.28-.24.18-.1.34-.23.46-.36l.01-.02c.34-.39.34-.86.34-.98V7.05c0-.74.26-.9.68-.98Zm-2.79 4.9c-.2-.32-.59-.38-.9-.18-.3.2-.42.59-.22.91.2.32.6.38.9.18.32-.21.42-.6.22-.9ZM9.94 6l1.28 3.44.15.38-.74 2.18-1.72-4.6a2.85 2.85 0 0 0-.54-.94c-.19-.2-.45-.35-.7-.39V6h2.27ZM14 7.17v3.57c.03.84.26 1.06.7 1.13V12h-2.82v-.13c.4-.07.8-.25.8-1.02V6.49l-1.23 3.02-.14-.38L12.53 6h2.13v.07c-.46.08-.66.3-.66 1.1Zm-5.1 4.35c-.18-.22-.2-.59-.2-.98V7.73l-.27-.48v3.1c-.03.3-.08.53-.12.7l-.2.36c-.02 0-.02.02-.02.02a.5.5 0 0 0-.03.04l-.05.05c-.18.24-.38.35-.67.4V12h2.24v-.07a.92.92 0 0 1-.69-.4Z" fill="#fff"/></svg>