<!-- by TradingView --><svg xmlns="http://www.w3.org/2000/svg" width="18" height="18" viewBox="0 0 18 18"><path fill="#F0F3FA" d="M0 0h18v18H0z"/><path d="M4 14h10V4H4v10Z" fill="#376AB3"/><path d="M7.74 6.08c0 1.18 1.51.92 1.51 1.87 0 .17-.08.67-.56.68-.61-.02-.61-.53-.61-.66v-.42h-.31v1.3c.3.07.63.15.92.15.53 0 1.14-.23 1.14-1.12 0-1.2-1.53-1.18-1.53-1.9 0-.17.05-.6.5-.58.46-.02.5.7.5.7l.32.01v-1.1s-.69-.04-1.06.02c-.46.12-.82.46-.82 1.05Zm-1.66-.7c.23 0 .48-.01.46.36V8a.63.63 0 0 1-.64.57c-.16 0-.51-.04-.51-.43v-.6H5v1.3c.04.01.38.16.92.16.8-.01 1.26-.62 1.23-1.12V5.74c0-.25.28-.37.47-.37v-.36H6.08v.36Zm5.07.43v1.01h.4c.26 0 .53-.34.53-.72 0-.22-.12-.6-.38-.6h-.34c-.13 0-.2.18-.2.31Zm.8-.8c.42 0 .67.6.67 1.05 0 .56-.28.8-.7.98.6.28.43 1.43 1.08 1.6V9h-.76c-.03-.1-.48-1.81-.92-1.81h-.17v1c0 .24.14.44.4.44V9h-1.41v-.37c.16.03.4-.1.4-.42V5.8c0-.23-.08-.3-.3-.3-.02-.05 0-.4 0-.49h1.72Z" fill="#F0F3FA"/><path d="M13.5 12a8.72 8.72 0 0 0-9-.01c2.66-2.63 6.35-2.68 9 .01Z" fill="#FFE62B"/></svg>