<!-- by TradingView --><svg xmlns="http://www.w3.org/2000/svg" width="18" height="18" viewBox="0 0 18 18"><path fill="#F0F3FA" d="M0 0h18v18H0z"/><path d="M12.95 6.1c.23 1.61-.24 5.85-2.76 8.03-3.38 2.93 2.92-2.08-.06-7.26.5.1 1.03.09 1.53-.05.5-.13.94-.38 1.29-.72z" fill="url(#ai53eh03x)"/><path d="M8.52 15c-2.6-.54-3.7-2.8-3.23-4.78.2.1 1.28 4.74 4.7 2.78-.32.75-.8 1.52-1.47 2z" fill="url(#bi53eh03x)"/><path d="M5.5 10a.5.5 0 1 0 0-1 .5.5 0 0 0 0 1zM5.7 8.45A.7.7 0 0 0 6.36 8a.72.72 0 0 0-.16-.78.7.7 0 0 0-1.2.5.72.72 0 0 0 .43.66.7.7 0 0 0 .27.06zM6.4 6.47a.9.9 0 1 0 0-1.82.9.9 0 0 0 0 1.82zM8.63 5.18c.6 0 1.1-.49 1.1-1.09a1.1 1.1 0 1 0-2.18 0c-.01.6.48 1.1 1.08 1.1zM11.18 6.47a1.32 1.32 0 0 0 .01-2.65 1.32 1.32 0 0 0-.01 2.65z" fill="#BC191E"/><defs><linearGradient id="ai53eh03x" x1="11.69" y1="6.29" x2="9.95" y2="14.89" gradientUnits="userSpaceOnUse"><stop stop-color="#E58D05"/><stop offset="1" stop-color="#A24711"/></linearGradient><linearGradient id="bi53eh03x" x1="5.18" y1="10.68" x2="8.08" y2="15.11" gradientUnits="userSpaceOnUse"><stop stop-color="#A24711"/><stop offset="1" stop-color="#E58D05"/></linearGradient></defs></svg>