<!-- by TradingView --><svg width="18" height="18" viewBox="0 0 18 18" xmlns="http://www.w3.org/2000/svg"><path fill="#F0F3FA" d="M0 0h18v18H0z"/><path d="m12.23 11.09.74.48a4.75 4.75 0 0 0 .69-1.72l-.88-.16c.1-.5.08-1.01-.02-1.5l.87-.18a4.76 4.76 0 0 0-.73-1.7l-.74.5c-.28-.4-.64-.76-1.07-1.04l.48-.74a4.75 4.75 0 0 0-1.72-.69l-.16.88c-.5-.1-1.01-.08-1.5.02l-.18-.87c-.6.13-1.19.38-1.7.73l.5.74c-.4.28-.76.64-1.04 1.07l-.74-.48a4.75 4.75 0 0 0-.69 1.72l.88.16c-.1.5-.08 1.01.02 1.5l-.87.18c.13.61.38 1.19.73 1.7l.74-.5c.28.4.64.76 1.07 1.04l-.48.74a4.76 4.76 0 0 0 1.72.69l.16-.88c.5.1 1.01.08 1.5-.02l.18.87c.61-.13 1.19-.38 1.7-.73l-.5-.74c.4-.28.76-.64 1.04-1.07Z" fill="#FABB14"/><path d="m13.22 11.73-.16.25-.75-.49c-.21.28-.45.53-.72.74l.5.74-.23.17c-.55.37-1.16.64-1.8.78l-.3.06-.18-.88c-.34.05-.69.06-1.03.02l-.17.88-.29-.05a5.05 5.05 0 0 1-1.82-.73l-.25-.16.49-.75a4.12 4.12 0 0 1-.74-.72l-.74.5-.17-.23a5.05 5.05 0 0 1-.78-1.8l-.06-.3.88-.18a4.12 4.12 0 0 1-.02-1.03L4 8.38l.05-.29a5.05 5.05 0 0 1 .73-1.82l.16-.25.75.49c.21-.28.45-.53.72-.74l-.5-.74.23-.17a5.05 5.05 0 0 1 1.8-.78l.3-.06.18.88c.34-.05.69-.06 1.03-.02L9.62 4l.29.05a5.05 5.05 0 0 1 1.82.73l.25.16-.49.75c.28.21.53.45.74.72l.74-.5.17.23c.37.55.64 1.16.78 1.8l.06.3-.88.18c.05.34.06.69.02 1.03l.88.17-.05.29a5.05 5.05 0 0 1-.73 1.82Zm-1.06-4.91c-.28-.41-.64-.77-1.07-1.05l.48-.74a4.7 4.7 0 0 0-1.72-.69l-.16.88c-.5-.1-1.01-.08-1.5.02l-.18-.87a4.75 4.75 0 0 0-1.7.73l.5.74c-.4.28-.76.64-1.04 1.07l-.74-.48a4.72 4.72 0 0 0-.69 1.72l.88.16c-.1.5-.08 1.01.02 1.5l-.87.18a4.76 4.76 0 0 0 .73 1.7l.74-.5c.28.4.64.76 1.07 1.04l-.48.74a4.76 4.76 0 0 0 1.72.69l.16-.88c.5.1 1.01.08 1.5-.02l.18.87a4.76 4.76 0 0 0 1.7-.73l-.5-.74c.4-.28.76-.64 1.04-1.07l.74.48a4.78 4.78 0 0 0 .69-1.72l-.88-.16c.1-.5.08-1.01-.02-1.5l.87-.18a4.76 4.76 0 0 0-.73-1.7l-.74.5Z" fill="#050608"/><circle cx="9.08" cy="9.08" fill="#050608" r="3.25"/><path d="M9.22 7.3c0-.35.2-.74.3-.89-.44 0-.74.6-.74.9 0 .29.15.29.3.29.12 0 .14-.2.14-.3Zm.45-.44c.15.1.44.41.44.89 0 .05-.03.14-.15.14-.11 0-.14-.1-.14-.14.05-.2.08-.65-.15-.9ZM7.15 8.34c-.05 0-.14-.06-.14-.3s.3-.4.44-.44c-.05.1-.15.32-.15.44 0 .15 0 .3-.15.3Zm0 .15c-.2.1-.59.4-.59.88 0 .15.06.45.3.45.3 0 .59-.6.59-.74 0-.15 0-.6-.3-.6Zm.45.3c0-.6.4-.75.59-.75.44 0 .3 1.18-.15 1.18-.35 0-.44-.3-.44-.44Zm1.48-1.04c-.15.05-.45.26-.45.74 0 .14.06.44.3.44.3 0 .44-.3.44-.44 0-.15 0-.74-.3-.74Zm.44 1.03c0-.47.3-.69.44-.74.6 0 .45 1.18 0 1.18-.35 0-.44-.3-.44-.44Zm1.33 0c-.1 0-.3.09-.3.44 0 .15.06.45.3.45.3 0 .3-.3.3-.45 0-.14 0-.44-.3-.44Zm0-.15c-.12 0-.15-.1-.15-.14.12-.24.05-.6 0-.74.24.11.3.54.3.74 0 .04-.03.14-.15.14ZM8.5 6.86c-.05.1-.15.35-.15.59 0 .3-.15.44-.3.44s-.15-.14-.15-.3c0-.14.15-.73.6-.73Zm.59 4.88c1.14 0 1.77-.7 1.77-1.18 0-.5-.63-1.19-1.77-1.19-1.15 0-2.37.45-2.37 1.19 0 .49 1.04 1.18 2.37 1.18Z" fill="#FABB14"/></svg>