<!-- by TradingView --><svg width="18" height="18" viewBox="0 0 18 18" xmlns="http://www.w3.org/2000/svg"><path fill="#F0F3FA" d="M0 0h18v18H0z"/><path fill-rule="evenodd" d="M9 12c3.87 0 7-1.34 7-3s-3.13-3-7-3-7 1.34-7 3 3.13 3 7 3Zm0-.34c3.48 0 6.3-1.19 6.3-2.66 0-1.47-2.82-2.66-6.3-2.66S2.7 7.53 2.7 9c0 1.47 2.82 2.66 6.3 2.66Z" fill="url(#ancbiq5lb)"/><path fill-rule="evenodd" d="M9 11.4c3.06 0 5.54-1.07 5.54-2.4 0-1.33-2.48-2.4-5.54-2.4S3.46 7.67 3.46 9c0 1.33 2.48 2.4 5.54 2.4Zm0-.27c2.75 0 4.99-.95 4.99-2.13S11.75 6.87 9 6.87 4.01 7.82 4.01 9s2.24 2.13 5 2.13Z" fill="url(#bncbiq5lb)"/><path d="M7.55 8.58a1.68 1.68 0 0 0-.09-.26.83.83 0 0 0-.12-.17.59.59 0 0 0-.2-.16.64.64 0 0 0-.79.23c-.07.09-.11.2-.15.33a1.76 1.76 0 0 0 .02.96.7.7 0 0 0 .7.54c.12 0 .24-.03.35-.08.1-.06.22-.15.33-.27l.06.06a.98.98 0 0 1-.84.44.95.95 0 0 1-.74-.32c-.1-.1-.17-.23-.22-.38a1.5 1.5 0 0 1-.07-.48c0-.2.03-.38.1-.54a1.05 1.05 0 0 1 .58-.6.91.91 0 0 1 .35-.08c.16 0 .3.03.46.09l.12.03c.03 0 .06-.01.08-.03a.16.16 0 0 0 .05-.09h.06l.03.78h-.07ZM9.44 8.9v-.67c0-.2-.09-.3-.3-.31V7.8h.87v.12c-.2.02-.27.1-.27.3v1.56c0 .2.07.29.27.3v.12h-.86v-.11c.23-.02.29-.15.29-.36v-.67H8.42v.72c0 .21.08.29.28.3v.12h-.86v-.11c.23-.02.28-.14.28-.36v-1.5c0-.2-.07-.3-.28-.31V7.8h.86v.12c-.2.02-.28.1-.28.3v.68h1.02ZM11.94 8.58a1.68 1.68 0 0 0-.08-.26.82.82 0 0 0-.12-.17.59.59 0 0 0-.21-.16.64.64 0 0 0-.79.23c-.06.09-.1.2-.14.33a1.76 1.76 0 0 0 .02.96c.05.15.12.27.2.35.14.13.3.19.49.19.13 0 .25-.03.35-.08.11-.06.22-.15.34-.27l.05.06a.98.98 0 0 1-.84.44 1 1 0 0 1-.42-.09c-.4-.18-.62-.64-.62-1.09 0-.48.24-.97.7-1.15a.91.91 0 0 1 .35-.07c.15 0 .3.03.45.09l.12.03c.03 0 .06-.01.08-.03a.16.16 0 0 0 .05-.09H12l.03.78h-.08Z"/><defs><linearGradient id="ancbiq5lb" x1="16" y1="9" x2="2" y2="9" gradientUnits="userSpaceOnUse"><stop stop-color="#C99630"/><stop offset=".07" stop-color="#FBF2AF"/><stop offset=".15" stop-color="#7E491D"/><stop offset=".5" stop-color="#FBF2AF"/><stop offset=".66" stop-color="#C18A2B"/><stop offset=".83" stop-color="#7D4E1F"/><stop offset=".94" stop-color="#F9CF5C"/><stop offset="1" stop-color="#C99630"/></linearGradient><linearGradient id="bncbiq5lb" x1="9" y1="6.6" x2="9" y2="11.4" gradientUnits="userSpaceOnUse"><stop stop-color="#D3A94F"/><stop offset=".29" stop-color="#915B23"/><stop offset=".52" stop-color="#FBF2AF"/><stop offset=".78" stop-color="#7D4E1F"/><stop offset="1" stop-color="#D7A53C"/></linearGradient></defs></svg>