<!-- by TradingView --><svg width="18" height="18" xmlns="http://www.w3.org/2000/svg"><path fill="#D01F3C" d="M0 0h18v18H0z"/><path d="M9.772 13.385c-.278-.015-.408-.363-.408-.784 0-.464.285-1.468.398-1.943.115-.48.164-1.255-.249-1.7 1.57-.662 3.894-2.92 4.192-3.414.299-.494.358-1.122-.055-1.436-.41-.313-1.082.096-1.479.695-1.091 1.653-1.75 2.46-2.494 3.139-.58.53-.862.538-1.14.579 0 0 1.071-1.842 1.471-2.395.48-.661-.111-.909-.685-.49A20.24 20.24 0 017.2 6.973c-1.957 1.06-2.428 1.548-2.428 2.184 0 .282.187.638.58.638.767 0 1.526-1.44 1.897-1.798.144-.14.48-.447.61-.447.042 0 .072.027.072.113 0 .276-.51 1.057-1.298 1.952-1.145 1.297-2.082 1.82-2.082 2.65 0 .54.387.832.805.832.882 0 1.472-1.235 1.825-1.848.14-.244.919-1.766 1.083-2.096.17.096.275.294.22.698-.106.726-.722 1.605-.722 2.832 0 1.001.882 1.315 1.236 1.316.327 0 .76-.133.867-.476.013-.052-.003-.139-.09-.145l-.004.006z" fill="#fff"/></svg>