<!-- by TradingView --><svg width="18" height="18" viewBox="0 0 18 18" xmlns="http://www.w3.org/2000/svg"><path fill="#F0F3FA" d="M0 0h18v18H0z"/><path d="M3 8.98C3 6 5.16 3.48 8 3v1.1a5 5 0 1 0 4.37 8.6l.78.63A6.01 6.01 0 0 1 3 8.98Z" fill="url(#a1m4jrvhr)"/><path d="M14.25 11.9A6.06 6.06 0 0 0 10 3v1.1a5 5 0 0 1 3.46 7.17l.8.62Z" fill="#151302"/><ellipse cx="9" cy="9" rx="3.53" ry="3.51" fill="#83092E"/><path d="M5.48 9.27V9c0-1.46.89-2.7 2.16-3.24a2.13 2.13 0 1 1-2.16 3.51Z" fill="#AB1538" fill-opacity=".8"/><path d="M5.57 8.56c.07-.97.62-1.82 1.41-2.33.81.06 1.45.7 1.45 1.5 0 .83-.7 1.5-1.56 1.5-.54 0-1.02-.27-1.3-.67Z" fill="#E1435C"/><path d="M5.48 8.76a3.5 3.5 0 0 1 1.57-2.69 1.73 1.73 0 1 1-1.57 2.69Z" fill="#C21A3B" fill-opacity=".8"/><path d="M5.73 7.68c.17-.36.39-.7.65-1a1.09 1.09 0 0 1 1.52.98 1.08 1.08 0 0 1-2.17.02Z" fill="#E85F71"/><ellipse cx="6.78" cy="7.6" rx=".81" ry=".8" fill="#F59EA6"/><circle cx="6.76" cy="7.6" fill="#FFCFD5" fill-opacity=".8" r=".56"/><path fill="#F0F3FA" d="M8 5.3h1.46v7.52H8z"/><path d="m9.42 7.9 2.02-1.6.89 1.05-2.07 1.7 2.07 1.67-.76 1.23-2.15-1.75V7.9Z" fill="#F0F3FA"/><defs><linearGradient id="a1m4jrvhr" x1="12.53" y1="13.27" x2="4.02" y2="5.55" gradientUnits="userSpaceOnUse"><stop offset=".76" stop-color="#151302"/><stop offset="1" stop-color="#2C63B5"/></linearGradient></defs></svg>