<!-- by TradingView --><svg width="18" height="18" viewBox="0 0 18 18" xmlns="http://www.w3.org/2000/svg"><path fill="#F0F3FA" d="M0 0h18v18H0z"/><path d="M8.79 3.04a.5.5 0 0 0-.14.15.43.43 0 0 0 .22.63c.24.08.51-.14.51-.42a.5.5 0 0 0-.19-.34.45.45 0 0 0-.4-.02Zm1.93.33c-.21.14-.3.4-.2.65.14.4.66.44.88.08.14-.24.04-.62-.2-.74a.57.57 0 0 0-.48.01Zm-3.95.22c-.08.08-.1.11-.1.24 0 .18.1.3.28.32.11.02.13 0 .23-.1.14-.15.14-.3 0-.44-.13-.14-.27-.15-.4-.02Zm5.73.87a.68.68 0 0 0-.4.58c0 .17.12.42.26.52.17.12.42.14.6.04a.6.6 0 0 0 .3-.49c.06-.44-.37-.8-.76-.65Zm-2.28.88c-.09.1-.1.17-.01.28.04.06.09.08.16.08.18 0 .27-.23.13-.38-.08-.08-.2-.08-.28.02Zm1.1.76c-.08.1-.08.12-.07.24.03.21.2.32.39.23.25-.13.18-.5-.1-.55-.1-.01-.13 0-.21.08Zm2.24.13a.8.8 0 0 0-.37.46c-.1.38.11.77.47.88.64.2 1.13-.63.69-1.16a.86.86 0 0 0-.23-.18.73.73 0 0 0-.56 0Zm-1.5 1.03a.4.4 0 0 0 .07.6c.23.12.5-.05.5-.33 0-.12-.02-.16-.1-.25-.09-.09-.12-.1-.24-.1-.1 0-.15.01-.22.08Zm-1.01.72c-.05.07-.05.08 0 .15.08.14.25.09.25-.08 0-.16-.17-.21-.25-.07Zm2.86.27a.9.9 0 0 0-.45.75 1 1 0 0 0 .2.54.76.76 0 0 0 1.3-.23c.06-.14.05-.48 0-.63a.75.75 0 0 0-.69-.49.6.6 0 0 0-.36.06Zm-1.57.4a.4.4 0 0 0-.14.2c-.05.15-.05.16 0 .3.07.17.2.26.37.26.23 0 .38-.17.38-.43 0-.13-.01-.16-.11-.27-.1-.1-.13-.12-.26-.12a.46.46 0 0 0-.24.06Zm-1.12.2c-.12.1-.07.31.08.35.17.04.28-.19.16-.33-.06-.07-.15-.08-.24-.01Zm-.22.93c-.05.04-.07.09-.07.18 0 .14.1.23.24.23.1 0 .22-.12.22-.23a.4.4 0 0 0-.06-.16c-.08-.1-.23-.1-.33-.02Zm1.13.22c-.27.12-.38.49-.23.73.18.29.57.3.77.02a.56.56 0 0 0 .07-.25.48.48 0 0 0-.2-.44.5.5 0 0 0-.41-.06Zm1.49.23a.88.88 0 0 0-.57.53.95.95 0 0 0 .37 1.18c.18.11.5.14.72.06a.93.93 0 0 0 .51-.55c.15-.47-.05-.97-.46-1.16a.86.86 0 0 0-.57-.06Zm-6.5.15a.47.47 0 0 0 0 .78c.19.13.45.06.58-.16.08-.14.06-.4-.04-.51-.15-.18-.37-.22-.55-.11Zm3.36.14c-.08.06-.14.24-.1.33.06.17.22.25.37.18.12-.06.17-.13.17-.28 0-.22-.27-.36-.44-.23Zm-2.53.4c-.26.1-.32.5-.1.7.26.24.64.05.64-.33 0-.3-.28-.5-.54-.38Zm1.76.12a.33.33 0 0 0-.11.4c.09.21.32.27.5.1.08-.07.1-.1.1-.23 0-.11-.02-.16-.08-.23a.32.32 0 0 0-.4-.04Zm-.9.14c-.22.13-.22.5 0 .63.16.08.3.06.41-.06.09-.1.1-.13.1-.26 0-.12-.01-.16-.1-.25-.08-.09-.12-.1-.21-.1a.47.47 0 0 0-.2.04Zm2.47 0a.57.57 0 0 0-.28.64c.1.42.55.58.86.3.27-.25.24-.72-.07-.9a.55.55 0 0 0-.51-.03Zm-1.23.8a.64.64 0 0 0-.12.94c.29.34.78.28.97-.13a.62.62 0 0 0-.06-.68.58.58 0 0 0-.79-.13Zm2.3.04a1.04 1.04 0 0 0-.05 1.88c.11.06.19.08.39.08a.7.7 0 0 0 .42-.1c.43-.22.64-.77.48-1.27a1.1 1.1 0 0 0-.56-.6.97.97 0 0 0-.69 0Zm-3.54.12a.73.73 0 0 0-.36.29c-.08.11-.09.15-.09.38s0 .27.09.39c.13.2.3.3.55.3.2 0 .31-.04.45-.19.4-.41.15-1.14-.4-1.19-.09 0-.2 0-.24.02Z" fill="#EA2C29"/><path d="M4.99 4.1a1 1 0 0 0-.53.48c-.08.17-.09.22-.09.47 0 .34.07.51.26.72.19.2.4.3.69.29.46 0 .8-.29.92-.78.18-.77-.54-1.45-1.25-1.19Zm3.7.5a.72.72 0 0 0-.19 1.06c.2.23.53.3.78.17.26-.14.38-.38.36-.7a.62.62 0 0 0-.35-.54.55.55 0 0 0-.6 0Zm-1.34.35a.69.69 0 0 0-.32.47c-.06.35.24.72.6.72.34 0 .64-.37.58-.72-.06-.43-.5-.66-.86-.47Zm-1.09.86a.67.67 0 0 0-.18.15c-.3.35-.04.93.4.93.34 0 .61-.4.5-.73-.1-.32-.43-.49-.72-.35Zm-2.32.18c-.62.19-.85.99-.42 1.5.18.21.33.29.59.3.3.03.5-.06.69-.29a.9.9 0 0 0 .13-1.03.86.86 0 0 0-1-.48Zm4.88.22c-.1.06-.15.17-.15.32 0 .32.35.47.57.25.22-.23.08-.61-.23-.6a.47.47 0 0 0-.19.03Zm.9.12a.5.5 0 0 0-.14.12.5.5 0 0 0-.03.5c.06.1.22.2.33.2.11 0 .27-.1.33-.2a.54.54 0 0 0 0-.48.41.41 0 0 0-.5-.14Zm-1.75.08a.28.28 0 0 0-.15.16c-.13.34.26.62.5.37.16-.17.12-.43-.08-.53-.12-.06-.15-.06-.27 0Zm2.45.45c-.25.16-.24.6 0 .77.13.09.27.1.42.02.3-.15.33-.54.08-.77-.12-.1-.35-.11-.5-.02Zm-3.26.19a.27.27 0 0 0-.08.2c0 .31.39.4.51.13.13-.3-.21-.56-.43-.33Zm-1.64.05a.54.54 0 0 0-.27.39c-.02.16.08.38.21.47a.5.5 0 0 0 .49 0c.3-.2.28-.7-.04-.85-.15-.07-.27-.07-.4 0Zm1.17.8c-.1.1-.1.14-.05.26.07.18.33.17.4-.01.05-.12 0-.26-.1-.31-.11-.05-.16-.04-.25.06Zm-3.16.33c-.3.1-.53.43-.53.78 0 .46.33.81.77.82.16 0 .22-.02.35-.1.1-.05.2-.15.26-.23.32-.44.11-1.11-.39-1.27a.64.64 0 0 0-.46 0Zm1.72.41c-.37.2-.22.8.2.8.11 0 .27-.12.34-.26.07-.16.04-.31-.08-.46a.36.36 0 0 0-.46-.08Zm1.28.23c-.05.06-.06.18-.02.24.05.08.15.11.22.07.08-.05.1-.09.1-.19.01-.16-.2-.24-.3-.12Zm.23.96c-.07.05-.09.17-.03.23.05.06.2.04.23-.02.04-.09.03-.12-.03-.2-.07-.07-.09-.07-.17 0Zm-1.18.3a.5.5 0 0 0-.14.12c-.16.2-.06.5.19.57.2.07.41-.1.41-.35 0-.26-.24-.44-.46-.34Zm-1.72.35a.75.75 0 0 0-.3.95c.24.54.97.54 1.2 0 .21-.49-.1-1.02-.62-1.02-.1 0-.2.02-.28.07Zm2.45.99c-.1.07-.13.18-.09.31.04.14.13.2.27.2.22 0 .34-.3.19-.48-.09-.1-.26-.11-.37-.03Zm1.18.89c-.13.13-.03.38.14.38.1 0 .21-.13.21-.22a.3.3 0 0 0-.06-.14.19.19 0 0 0-.3-.02Zm-2.38.01a.65.65 0 0 0-.32.87c.06.12.23.27.36.31.48.16.91-.4.68-.88-.13-.26-.46-.4-.72-.3Zm1.71 1.32a.6.6 0 0 0-.26.32c-.04.13 0 .38.07.48.13.2.46.26.65.12a.49.49 0 0 0 .23-.4c0-.14 0-.2-.06-.3a.5.5 0 0 0-.63-.22Zm4.08.18c-.17.07-.25.34-.14.49.16.2.44.17.54-.08.1-.25-.16-.52-.4-.41Zm-2 .33c-.14.05-.2.1-.25.22a.38.38 0 0 0 .01.35c.14.3.56.3.7 0 .17-.32-.14-.7-.46-.57Z" fill="#FAC7C9"/></svg>