<!-- by TradingView --><svg width="18" height="18" viewBox="0 0 18 18" xmlns="http://www.w3.org/2000/svg"><path fill="#F0F3FA" d="M0 0h18v18H0z"/><path d="m13.44 7.36-.04.03a3.99 3.99 0 0 0-2.32-1.88 4.12 4.12 0 0 0-3.01.42l-.03-.04 3.16-1.85a.3.3 0 0 1 .42.12l1.82 3.2Z" fill="#2B3990"/><path d="M9.92 4.32v.04c-1.05 0-2.09.42-2.77 1.12a4.36 4.36 0 0 0-1.16 2.9h-.05l.01-3.75a.33.33 0 0 1 .1-.22.31.31 0 0 1 .21-.1l3.66.01Z" fill="#E79B24"/><path d="m5.38 5.66.03.02a4.1 4.1 0 0 0-.45 2.98c.25.95.96 1.92 1.86 2.45l-.02.04L3.65 9.3a.32.32 0 0 1-.11-.43l1.84-3.2Z" fill="#2B3990"/><path d="m4.55 10.61.03-.02a3.99 3.99 0 0 0 2.31 1.9c.93.25 2.12.11 3.02-.4l.02.03-3.16 1.83a.3.3 0 0 1-.42-.12l-1.8-3.22Z" fill="#E79B24"/><path d="M8.08 13.97v-.05a3.9 3.9 0 0 0 2.76-1.1 4.37 4.37 0 0 0 1.17-2.88h.05l-.04 3.74a.33.33 0 0 1-.09.23.3.3 0 0 1-.22.09l-3.63-.03Z" fill="#2B3990"/><path d="m12.6 12.38-.03-.02c.53-.91.7-2.03.46-2.98a4.25 4.25 0 0 0-1.84-2.46l.03-.04 3.13 1.88c.07.05.12.12.14.2.02.08 0 .16-.03.24l-1.86 3.18Z" fill="#E79B24"/></svg>