<!-- by TradingView --><svg width="18" height="18" viewBox="0 0 18 18" xmlns="http://www.w3.org/2000/svg"><path fill="#F0F3FA" d="M0 0h18v18H0z"/><path d="m11.68 4 .1.03c-.17.03-.33.1-.48.18-.39.25-.6.74-.7 1.15-.22.61-.51 1.2-.8 1.79-.22.47-.4.96-.54 1.46.1-.52.24-1 .4-1.45a128.95 128.95 0 0 0 .85-2.31c.14-.36.45-.75.88-.83h.05l.24-.01Z" fill="#DDDDDF"/><path d="M7.18 5.7 7 5.62a.02.02 0 0 0-.02 0v.01l-.12.34a.03.03 0 0 1-.02.01h-.02l-.17-.05h-.02v-.02c.03-.45.08-1.07-.61-1a.88.88 0 0 0-.66.38l-.02.01h-.02a.25.25 0 0 1-.2-.1c.11-.41.35-.72.74-.94.2-.12.41-.17.62-.15a.8.8 0 0 1 .76.68c.05.28.03.57-.07.9Z" fill="#99E0F9"/><path d="m12.26 5.93-.15.28-.18-.25a.06.06 0 0 1 0-.06c.08-.23.11-.46.1-.69-.02-.29-.18-.52-.54-.45h-.02l-.02-.01-.16-.21V4.5c.39-.37.81-.21 1 .2.2.4.15.82-.03 1.23Z" fill="#DDDDDF"/><path d="M7.18 5.7c-.17.55-.81 1.93-.07 2.33.65.35 1.48-.29 1.9-.7a6.4 6.4 0 0 0 1.33-1.97l-.67 1.8c-.17.45-.3.93-.4 1.45l-.04.41-.01.05v.02a.13.13 0 0 0-.01.09c0 .32.12.6.36.85.11.11.24.22.39.34a16.13 16.13 0 0 1-2.38-1.32l-.42-.29c-.32-.24-.62-.5-.9-.76a4.09 4.09 0 0 1-1.04-1.53c-.1-.3-.14-.53-.14-.7v-.3l.06-.26c.05.07.12.1.2.1h.01l.02-.01a.88.88 0 0 1 .66-.39c.69-.06.64.56.61 1v.02h.02l.18.06a.03.03 0 0 0 .02 0v-.01l.12-.34H7a.02.02 0 0 1 .02 0l.17.05Z" fill="#00B6EC"/><path d="M5.08 5.47v.3c0 .17.04.4.14.7 0 .13.04.26.1.39a20.17 20.17 0 0 1 .14.3c.17.3.36.56.59.82l-.83.46L5.06 7c-.05-.51-.05-1.02.02-1.52Z" fill="#112059"/><path d="M7.16 8.76a.52.52 0 0 0-.32-.03 5.09 5.09 0 0 1-1.52-1.88 1.25 1.25 0 0 1-.1-.38c.22.57.57 1.08 1.04 1.53.28.26.58.52.9.76Z" fill="#12569A"/><path fill-rule="evenodd" d="m12.64 5.04.01.03c.03.35-.04.68-.2 1-.1.27-.27.5-.5.7-.38.33-.84.6-1.3.85l-.02.02a4.92 4.92 0 0 0-1.16.87c-.11.15-.2.32-.25.51l.04-.4c.13-.51.32-1 .55-1.47l.15-.32c.23-.48.46-.96.65-1.47.1-.4.3-.9.7-1.15.14-.09.3-.15.47-.18.22.04.4.16.57.35.16.18.26.4.3.66Zm-.34-.33c.18.4.14.8-.04 1.22l-.15.28-.18-.25a.06.06 0 0 1 0-.06c.08-.23.11-.46.1-.69-.02-.29-.19-.52-.54-.45h-.02l-.02-.01-.16-.21a.03.03 0 0 1 0-.04c.39-.37.81-.21 1 .2Z" fill="url(#a)"/><path d="M6.84 8.73c.3.25.6.48.92.7l.18.12c-.12.14-.3.18-.49.17l-.14-.05c-.33-.06-.58.05-.73.3-.55.23-.89.47-1.1 1.03-.1.27-.16.45-.17.54a64.3 64.3 0 0 0-.05.75c-.03.4-.05.69.15.99.18.24.43.4.77.44l.62-.03a.05.05 0 0 0 .04-.01l.14-.15c.16-.24.22-.51.2-.81.1-.08.17-.16.24-.26.06.29.04.55-.04.78-.19.54-.74.8-1.33.68A1.24 1.24 0 0 1 5 12.65l.03-.45.17-2.35c.04-.47.04-.94.02-1.4l.83-.47c.25.26.51.52.8.75Z" fill="#1C336F"/><path d="m7.16 8.76.42.3a15.9 15.9 0 0 0 1.5.92h-.01l-.13.08a16.17 16.17 0 0 1-1.2-.68l.02.05c-.32-.22-.63-.45-.92-.7.1-.02.21-.01.32.03Z" fill="#7AA1C5"/><path d="m9.96 10.37.79.42.32.2c.07.05.11.12.1.2-.75-.35-1.5-.73-2.23-1.13l.13-.07v-.01a.02.02 0 0 0 0-.03 15.9 15.9 0 0 1 .88.42Z" fill="#12569A"/><path d="M8.94 10.06a36.71 36.71 0 0 0 2.9 1.47c.1.05.21.11.32.2.01.02 0 .05-.03.07a2 2 0 0 0-.3-.18c-.67-.31-1.33-.64-1.98-.98a30.7 30.7 0 0 1-1.91-1.09l-.18-.12-.01-.05v-.01a.01.01 0 0 1 .02 0c.38.24.77.47 1.17.69Z" fill="#DDDDDF"/><path d="M7.94 9.55c.62.38 1.25.75 1.9 1.09-.17.17-.3.32-.37.43-.2.28-.31.6-.33 1 0 .01 0 .03.02.05.03.02.04.05.04.08a60.35 60.35 0 0 1 .43.67c.06.1.15.2.26.33l.26.32c-.4-.33-.72-.82-.97-1.26l-.8-1.37c.04.01.06 0 .05-.04a2.6 2.6 0 0 0-.72-.97 2.6 2.6 0 0 0-.26-.16c.2 0 .37-.03.49-.17Z" fill="#254380"/><path d="M7.3 9.67c-.08.15-.23.3-.43.45a.7.7 0 0 1-.34.15c0-.1.01-.2.05-.3.15-.25.4-.36.73-.3Z" fill="#7AA1C5"/><path d="m7.45 9.72.26.16c.09.07.21.21.37.43a8.85 8.85 0 0 1 .35.54c0 .04 0 .05-.04.04a3.16 3.16 0 0 0-.54-.67.7.7 0 0 0-.51-.2h-.05c-.64.11-.43.8-.29 1.19l.32.86c.04.11.07.24.1.39-.07.1-.15.18-.24.26-.03-.2-.06-.36-.11-.5a42.25 42.25 0 0 1-.48-1.44l-.03-.14v-.01h-.01l-.01.02-.01-.02a1.38 1.38 0 0 1 0-.36.7.7 0 0 0 .34-.15c.2-.15.35-.3.44-.45l.14.05Z" fill="#12569A"/><path d="M6.58 9.98c-.04.09-.05.19-.05.3a1.38 1.38 0 0 0 0 .37c.04.3.1.57.18.8.15.47.32.91.38 1.4.02.25-.01.47-.11.68l-.14.15a.05.05 0 0 1-.04.01l-.62.03a.6.6 0 0 0 .63-.44c0-.04-.01-.11-.06-.22h-.02v-.01h-.01a.79.79 0 0 1-.4.12c-.31 0-.53-.11-.65-.36-.08-.16-.13-.3-.15-.43a58.08 58.08 0 0 0-.17-.87c0 .1-.03.18-.05.28l.01-.25c0-.09.06-.27.17-.54.21-.56.55-.8 1.1-1.02Z" fill="#254380"/><path d="M7.18 12.72c.02.3-.04.57-.2.8.1-.2.13-.42.1-.67-.05-.49-.22-.93-.37-1.4-.08-.23-.14-.5-.17-.8v-.01a.01.01 0 0 1 .02 0l.03.14v.02c.14.46.3.93.48 1.42.05.14.08.3.1.5Z" fill="#DDDDDF"/><path d="m12.13 11.8.2.17c.22.17.38.37.5.62.07.27.05.53-.05.78-.63.83-1.86.8-2.63.15a8.4 8.4 0 0 0-.26-.32l-.26-.33a60.69 60.69 0 0 0-.47-.75.07.07 0 0 1-.02-.06c.02-.38.13-.71.33-.99.08-.11.2-.26.38-.43.65.34 1.3.67 1.97.98.1.04.2.1.3.18Z" fill="#12569A"/><path d="M12.78 13.37c.1-.25.12-.51.04-.78-.06-.34-.28-.63-.66-.87-.1-.08-.21-.14-.32-.2a23.7 23.7 0 0 0-.66-.32.22.22 0 0 0-.11-.21l-.32-.2a40.18 40.18 0 0 1 1.5.75c.64.44 1.02 1.14.53 1.83Z" fill="#112059"/><path d="m12.09 13.65-.33-.4c.37-.44-.1-1.02-.43-1.31a7.1 7.1 0 0 0-1-.75v-.01h.02a14.07 14.07 0 0 0 1.29.61c.4.19.83.52.95.9.14.43-.09.78-.5.96Z" fill="#7AA1C5"/><path d="m6.32 13.17.27.43a.6.6 0 0 1-.4.12 1.1 1.1 0 0 1-.78-.44c-.2-.3-.18-.58-.15-1a10.03 10.03 0 0 1 .1-.77l.16.87c.02.13.07.27.15.43.12.25.34.37.65.36Z" fill="#7F8CA7"/><path d="M12.82 12.59a1.61 1.61 0 0 0-.48-.62l-.21-.17c.03-.02.04-.05.03-.08.38.24.6.53.66.87Z" fill="#7C7D80"/><path d="m6.6 13.6-.28-.43a.79.79 0 0 0 .4-.12h.02c.06.12.08.19.07.23a.58.58 0 0 1-.22.32ZM11.76 13.25l.33.4c-.18.08-.37.12-.57.12l-.04-.01a.6.6 0 0 1-.18-.18v-.02a.04.04 0 0 1 0-.04h.03a.88.88 0 0 0 .43-.27Z" fill="#3574AD"/><defs><linearGradient id="a" x1="12.1" y1="4.03" x2="9.9" y2="8.31" gradientUnits="userSpaceOnUse"><stop stop-color="#BBBCBF"/><stop offset="1" stop-color="#78797B"/></linearGradient></defs></svg>