<!-- by TradingView --><svg width="18" height="18" xmlns="http://www.w3.org/2000/svg"><path fill="#006D46" d="M0 0h18v18H0z"/><path d="M6.673 4.027l-.743.382-1.725.768a.362.362 0 00-.196.328v1.708a.216.216 0 00.205.218.214.214 0 00.107-.023l2.473-1.152a.362.362 0 00.199-.326V4.224a.218.218 0 00-.21-.223.216.216 0 00-.11.026zm6.004-.001L4.2 8.506a.362.362 0 00-.2.328v1.704a.22.22 0 00.207.22.219.219 0 00.107-.022l8.48-4.476a.361.361 0 00.2-.328v-1.71a.216.216 0 00-.21-.222.214.214 0 00-.108.026zm1.315 8.249a.397.397 0 00-.191-.422L9.11 9.508a.383.383 0 00-.38 0L4.19 11.87a.396.396 0 00-.163.18c-.034.075-.028.242-.028.242v1.49a.241.241 0 00.233.217.24.24 0 00.112-.025l4.382-2.303a.407.407 0 01.18-.04.41.41 0 01.19.04l4.545 2.285a.24.24 0 00.345-.192l.005-1.49z" fill="#fff"/></svg>