<!-- by TradingView --><svg xmlns="http://www.w3.org/2000/svg" width="18" height="18" viewBox="0 0 18 18"><path fill="#F0F3FA" d="M0 0h18v18H0z"/><path d="M6.69 9.97V7.5l1.58-1.03v1.54c1.26-.97 3.99-3.52 3.72-4.06-.2-.44-1.78.66-2.54 1.26 2.35-2.25 3.3-2.35 3.48-2.13.7.93-4.03 5-6.24 6.89z" fill="#BCBABA"/><path d="M3.75 12.24c-.21-.22-.04-.65.08-.83-.41.54-1.12 1.72-.7 2.03.52.4 2.9-1.33 3.56-1.95V13h1.58v-2.8l.96-.75L11.12 13h1.57l-2.5-4.44a7.64 7.64 0 0 0 1.65-2.72c-4.17 4.88-7.68 6.82-8.09 6.4z" fill="#9B8343"/></svg>