<!-- by TradingView --><svg width="18" height="18" xmlns="http://www.w3.org/2000/svg"><path fill="#FCAF16" d="M0 0h18v18H0z"/><path d="M14.057 9.05c-.59.034-1.06.26-1.418.468v-.015c0-.526.219-1.135-.006-1.64-.098-.229-.798-.186-.804.247-.016 1.028-.259 1.982-.13 3.04.06.442.994.202 1.008-.233.135-.528.682-1.158 1.33-1.252 1.597-.243 1.274 1.397-.272 1.897-.444.144-.939.23-1.546.21l-.57-.37c-1.193-.805-2.472-1.532-3.692-2.318 1.594-.974 3.448-2.042 4.802-2.97.28-.192.391-.828-.03-.584-1.2.585-4.084 2.178-4.7 2.556.046-.733.187-1.776.361-2.646.105-.381-.706-.676-.916-.173-.34.787-.622 2.081-.69 3.117-.876-.536-1.814-.903-2.682-1.437-.659-.327-.953.36-.659.631.77.71 1.827 1.104 2.742 1.608-.535.344-1.893 1.194-3.095 1.974-.408.265.682.157 1.043.005.919-.39 1.751-.968 2.624-1.434-.036 1.247.141 2.326.456 3.484.058.353.588 1.117.82.624.087-.47-.282-1.893-.122-3.669 0 .022 0-.022 0 0 1.468.88 2.93 2.043 4.608 2.5.19.056.506-.183.436-.363C14.178 12.248 16 11.62 16 10.201c.002-.902-1.183-1.194-1.943-1.151z" fill="#6D655D"/></svg>