<!-- by TradingView --><svg width="18" height="18" viewBox="0 0 18 18" xmlns="http://www.w3.org/2000/svg"><path fill="#F0F3FA" d="M0 0h18v18H0z"/><path d="M3 11.84c.64-.06 1-.27 1-.93V6.98c0-.6-.44-.77-1-.81V6h2.9v.17c-.57.03-.9.2-.9.81v1.86c.54-.47.93-.88 1.27-1.21.6-.6.91-1 .91-1.17 0-.3-.39-.3-.6-.3V6H9v.15c-.57.06-1.05.32-1.46.73L5.9 8.57l1.74 2.28c.41.46.75.92 1.37 1V12H6.43v-.16c.17-.01.57.03.57-.25 0-.2-.26-.45-.39-.59L5.3 9.12 5 9.38v1.64c0 .61.3.77.86.82V12H3v-.16Z" fill="#00933F"/><path d="M11.92 11.7c.98 0 1.91-.34 1.91-1.33 0-1.11-1.26-1.37-2.27-1.37H11v2.3c0 .42.57.4.92.4ZM9 11.84c.68-.04 1-.17 1-.82V6.98c0-.64-.32-.78-1-.81V6h2.92c1.18 0 2.75.24 2.75 1.55 0 .78-.59 1.13-1.34 1.3.85.17 1.67.6 1.67 1.48 0 1.3-1.4 1.67-2.6 1.67H9v-.16Zm3.06-3.14c.76-.01 1.6-.32 1.6-1.11 0-1.07-1.16-1.29-2.12-1.29-.3 0-.54.05-.54.35V8.7h1.06Z" fill="#00933F"/></svg>