<!-- by TradingView --><svg width="18" height="18" xmlns="http://www.w3.org/2000/svg"><path fill="#FFC527" d="M0 0h18v18H0z"/><path d="M12.48 7c-.929 0-1.197.53-1.48.898V5H9v1h.5v7H11v-1c0 .371.68 1 1.43 1 1.566 0 2.57-1.355 2.57-2.958C14.988 8.502 14.137 7 12.48 7zm1.02 3c-.007.796-.636 1.41-1.334 1.4-.699-.01-1.291-.416-1.291-1.365 0-.95.431-1.471 1.29-1.435.86.036 1.342.604 1.335 1.4zM8.201 11.5c-.272 0-.474-.213-.601-.368a99.626 99.626 0 01-.997-1.559L8.625 7H7L5 9.4V5H3v1h.5v7H5v-3l1.347 2.09c.475.688.835.91 1.487.91.133 0 .62-.02.791-.067V11.5c.006-.007-.367 0-.424 0z" fill="#222720"/></svg>