<!-- by TradingView --><svg width="18" height="18" viewBox="0 0 18 18" xmlns="http://www.w3.org/2000/svg"><path fill="#F0F3FA" d="M0 0h18v18H0z"/><path d="M2.37 9.82c0 .47-.25.98-.37 1.18.37-.15.52-.59.6-1.18.06-.47-.28-.97-.45-1.17h.97c.3 0 1.19-1.62 3.8-1.47.17.01.42.1.52.15H6.9c-1.48 0-2.97.88-2.97 1.32 0 .44 2.23.44 2.53.44.3 0 3.35-.15 4.84 0 1.19.12 2.68 1.22 3.28 1.76H16c-1.34-1.76-3.72-2.05-4.7-2.2-.96-.15-4.09.15-4.83.15-.75 0-1.57-.3-1.57-.74 0-.15.75-.59 2.01-.59 1.02 0 2.16.4 2.61.6-.07-.25-.7-.8-2.6-1.04-2.39-.3-3.8 1.47-4.03 1.47H2c.12.25.37.85.37 1.32Z" fill="#1979C3"/></svg>