<!-- by TradingView --><svg width="18" height="18" viewBox="0 0 18 18" xmlns="http://www.w3.org/2000/svg"><path fill="#F0F3FA" d="M0 0h18v18H0z"/><path d="M4.5 6.33v.15h1.8l-.6.62.6.62H4.5V8c1.07 0 1.44.89 1.5 1.33V13H3V9.33c.05-.42.4-1.24 1.35-1.32V6.48a.15.15 0 0 1-.15-.15c0-.09.07-.16.15-.16.08 0 .15.07.15.16Z" fill="#E70012"/><path fill="#FFBF00" d="M6 11h2v2H6z"/><path d="M8 13V9h1V6.5h1c.05-.52.5-1.5 1-1.5v-.53c0-.16.2-.47.5-.47s.5.34.5.5V5c.5 0 1 .5 1 1.5h1V9h1v4h-2v-.93c0-.2-.02-.57-.5-.57s-.5.36-.5.57V13h-1v-.93c0-.2-.02-.57-.5-.57s-.5.36-.5.57V13H8Zm3-5.4V9h1V7.6l-.02-.1c-.02-.21-.06-.5-.48-.5-.5 0-.5.5-.5.6Z" fill="#0499DB"/></svg>