<!-- by TradingView --><svg xmlns="http://www.w3.org/2000/svg" width="18" height="18" viewBox="0 0 18 18"><path fill="#F0F3FA" d="M0 0h18v18H0z"/><path d="M11.66 8.5c-2.2 0-2.57 2.5-4.57 2.5-1.2 0-1.96-.74-2.25-2.28-.12 2.2 1.48 2.84 2.85 2.84 1.36 0 2.41-1.06 3.97-1.06 1.55 0 1.5 1 2.65 1 .31 0 .6-.2.69-.47-1.34.64-1.94-1.71-3.98-1.4 0 0 .38-.23.77-.23 1.35 0 1.85 1.5 3.3 1.4.28-.02.76-.34.91-.8a1 1 0 0 1-.81.44c-1.4-.04-1.35-1.94-3.53-1.94Z" fill="url(#ag3im1usd)"/><path d="M7.4 11.35A2.47 2.47 0 0 1 5 8.94c0-1.41 1.05-2.35 2.4-2.35.69 0 1.3.08 1.86.53a2.37 2.37 0 0 0-2.02-1.06c-2.92 0-3.88 3.4-2.07 5.29 0 0-1.17-.7-1.17-2.52 0-1.98 1.64-3.33 3.5-3.3.68 0 1.67.23 2.29.53A3.62 3.62 0 0 0 7.24 5C5.2 5 3 6.43 3 9c0 2.2 1.59 4 3.8 4 2.82 0 3.23-2.32 5.04-2.5l-1.1-.03c-1.44 0-1.51.88-3.34.88Z" fill="url(#bg3im1usd)"/><defs><linearGradient id="ag3im1usd" x1="6.05" y1="10.85" x2="17.43" y2="12.27" gradientUnits="userSpaceOnUse"><stop offset=".47" stop-color="#42762C"/><stop offset=".79" stop-color="#88AB52"/></linearGradient><linearGradient id="bg3im1usd" x1="7.52" y1="4.42" x2="8.73" y2="13.43" gradientUnits="userSpaceOnUse"><stop offset=".08" stop-color="#88AB52"/><stop offset=".29" stop-color="#42762C"/></linearGradient></defs></svg>