<!-- by TradingView --><svg width="18" height="18" viewBox="0 0 18 18" xmlns="http://www.w3.org/2000/svg"><path fill="#2F282F" d="M0 0h18v18H0z"/><path d="M11 4h3l-3 5 3 5h-3L8 9l3-5z" fill="#fff"/><path d="M7.92 12.18c0 1.26-.84 1.96-2 1.96-1.15 0-1.92-1-1.92-2.12 0-1.25 2.23-3.05 3.34-3.18-.13 1.41.58 2.15.58 3.34z" fill="#D8007B"/><path d="M7.43 5.28c-.05-.86-.67-1.31-1.48-1.27-.8.05-1.3.76-1.25 1.54.05.86 1.7 2.01 2.48 2.05-.16-.96.3-1.5.25-2.32z" fill="#75F713"/><ellipse cx="5.08" cy="7.91" rx=".81" ry=".77" fill="#843632"/><ellipse cx="6.74" cy="8.26" rx=".44" ry=".42" fill="#63FFFC"/></svg>