<!-- by TradingView --><svg width="18" height="18" viewBox="0 0 18 18" xmlns="http://www.w3.org/2000/svg"><path fill="#F0F3FA" d="M0 0h18v18H0z"/><path d="M12.97 4.33c-1.3.39-1.91 1-1.72 2.68a6.84 6.84 0 0 1-.2 3.02l-.05.12c-.1.2-.32.63-.42.79-.08.13-.26.32-.5.32l-.85-.02-.34.01c.33.36.9.7 1.68.7.58 0 1.24-.16 1.86-.62 2.29-1.65 1.72-5.85.54-7Z" fill="url(#a1hwqslmf)"/><path d="M8.24 8.39c-1.6.5-2.43 2.5-1.72 4.5.05.16.12.32.2.48.98 2.05 2.94 1.59 2.94 1.59s.71-1.37-.6-2.42c-.92-.74-1.39-1.47-.95-2.63l.08-.18a6.12 6.12 0 0 1 .54-.92c.1-.15.21-.22.46-.23.23-.03.78-.01.93 0 .21.02.3.06.41.22l.01.02c-.32-.6-1.33-.74-2.3-.43Z" fill="url(#b1hwqslmf)"/><path d="M9.33 11.26c-.17-.02-.3-.02-.39-.05a.43.43 0 0 1-.2-.18c-.15-.2-.42-.67-.51-.87-.1-.2-.1-.3-.02-.46.16-.34.39-.68.53-.89V8.8c-.06.05-.6.53-.97 1.03-.66.92-.48 2.2.28 3 .56.58 1.2.7 1.7.69.9-.03 1.73-.75 1.73-.75-.3-.9-1.15-1.38-2.15-1.5Z" fill="url(#c1hwqslmf)"/><path d="M9.74 13.52h.03a2.1 2.1 0 0 0-.7-.98c-.93-.74-1.4-1.47-.96-2.63l.08-.18c0-.01 0-.03.02-.04.15-.34.38-.68.52-.89V8.8c-.06.05-.6.53-.97 1.03-.66.92-.47 2.2.28 3 .56.59 1.2.7 1.7.7Z" fill="url(#d1hwqslmf)"/><path d="M12.08 6.9a4.29 4.29 0 0 0-2.85-2.7C6.95 3.6 5.02 4.42 4 5.84c0 0 .76 1.23 2.71 1.13 1.27-.07 2.59.05 3.51 1.38a9.77 9.77 0 0 1 .31.46c.1.15.26.38.48.82.08.15.09.33 0 .52-.1.2-.32.64-.42.8-.07.11-.24.29-.46.3.76-.03 1.38-.52 1.8-1.25.47-.87.51-2.06.15-3.08Z" fill="url(#e1hwqslmf)"/><path d="M11.2 7.42a3.47 3.47 0 0 0-3.17-1.74 3.61 3.61 0 0 0-3.76 3.67c0 1.43.77 2.86 2.24 3.54-.53-2.2.43-4.17 2.65-4.3h.03c.23-.03.78-.01.93 0 .21.02.3.06.41.22.1.16.26.38.48.82.08.15.09.34 0 .53l-.38.72c.03-.03.54-.64.7-1.04.38-.96.1-2-.12-2.42Z" fill="url(#f1hwqslmf)"/><path d="M10.13 11.26c.76-.04 1.38-.52 1.8-1.26.47-.87.52-2.06.15-3.1a4.38 4.38 0 0 0-.74-1.3c-.13.36-.16.82-.1 1.41a6.84 6.84 0 0 1-.2 3.02l-.05.12c-.1.2-.32.63-.42.79a.6.6 0 0 1-.44.32Z" fill="url(#g1hwqslmf)"/><path d="M11.33 9.83c.37-.95.1-1.99-.12-2.4a3.47 3.47 0 0 0-3.18-1.74c-1.18 0-2.1.43-2.73 1.09.38.13.84.21 1.41.18 1.27-.07 2.59.06 3.51 1.39l.28.41c0 .01 0 .02.02.02l.01.02c.1.16.26.39.48.82.08.15.09.34 0 .53l-.38.72c.03-.03.54-.64.7-1.04Z" fill="url(#h1hwqslmf)"/><path d="M12.76 11.68c-.31-.22-.5-.67-.48-1.12.02-.47-.26-.4-.26-.4s-.58 1.09-1.92 1.1l-.84-.02c-.86 0-1.7.17-2.37 1.04 0 0 .71-.04 2.12.4 2.6.81 3.89-.71 3.75-1Z" fill="#D779AE"/><path d="M12.02 10.17s-.58 1.07-1.9 1.1h-.03c-.07 0-.15 0-.25-.02l-.6-.01H8.9c.34.37.9.7 1.69.7a3.1 3.1 0 0 0 1.86-.62h.02a1.53 1.53 0 0 1-.17-.76c.01-.47-.27-.4-.27-.4Z" fill="url(#i1hwqslmf)"/><path d="M8.24 8.39c-1.6.5-2.43 2.5-1.72 4.5-.53-2.2.43-4.17 2.64-4.3h.04c.23-.03.78-.01.92 0 .22.02.31.06.42.22v.02c-.32-.6-1.33-.75-2.3-.44Z" fill="#13377D"/><path d="M11.48 12.76c-.3-.88-1.15-1.37-2.15-1.5a6.3 6.3 0 0 1-.19-.02c-.82.02-1.6.2-2.26 1.04 0 0 .71-.04 2.12.4 1.04.33 1.87.28 2.48.08Z" fill="url(#j1hwqslmf)"/><path d="M9.31 12.77a4.05 4.05 0 0 0-.26-.23 3.2 3.2 0 0 1-.96-1.13c-.43.15-.86.4-1.22.88 0 0 .7-.04 2.12.4l.32.08Z" fill="#58277C"/><path d="M9.14 11.25H8.9c.34.36.9.7 1.69.7.12 0 .23 0 .35-.02a2.98 2.98 0 0 0-1.6-.67l-.19-.01Z" fill="#6F2780"/><defs><linearGradient id="a1hwqslmf" x1="13.99" y1="4.89" x2="10.05" y2="12.01" gradientUnits="userSpaceOnUse"><stop stop-color="#F9B500"/><stop offset=".12" stop-color="#F6A500"/><stop offset=".84" stop-color="#BE2C7A"/></linearGradient><linearGradient id="b1hwqslmf" x1="8.4" y1="15" x2="8.4" y2="8.23" gradientUnits="userSpaceOnUse"><stop stop-color="#99C44B"/><stop offset=".27" stop-color="#78B844"/><stop offset="1" stop-color="#00793D"/></linearGradient><linearGradient id="c1hwqslmf" x1="10.95" y1="13.31" x2="7.51" y2="10.03" gradientUnits="userSpaceOnUse"><stop stop-color="#3EB8BC"/><stop offset=".26" stop-color="#21B2A8"/><stop offset=".89" stop-color="#009378"/></linearGradient><linearGradient id="d1hwqslmf" x1="8.56" y1="8.79" x2="8.56" y2="13.51" gradientUnits="userSpaceOnUse"><stop stop-color="#005328"/><stop offset=".91" stop-color="#008A60"/></linearGradient><linearGradient id="e1hwqslmf" x1="7.4" y1="3.91" x2="9.45" y2="11.49" gradientUnits="userSpaceOnUse"><stop offset=".01" stop-color="#74CBF3"/><stop offset=".6" stop-color="#04BAEE"/></linearGradient><linearGradient id="f1hwqslmf" x1="7.31" y1="5.74" x2="8.52" y2="12.53" gradientUnits="userSpaceOnUse"><stop offset=".16" stop-color="#0091D7"/><stop offset=".6" stop-color="#164193"/><stop offset="1" stop-color="#123376"/></linearGradient><linearGradient id="g1hwqslmf" x1="11.23" y1="10.55" x2="11.23" y2="6.73" gradientUnits="userSpaceOnUse"><stop stop-color="#432A72"/><stop offset="1" stop-color="#B48A6C"/></linearGradient><linearGradient id="h1hwqslmf" x1="5.8" y1="5.89" x2="11.68" y2="9.24" gradientUnits="userSpaceOnUse"><stop stop-color="#0082CA"/><stop offset=".2" stop-color="#0479C2"/><stop offset=".53" stop-color="#1061AE"/><stop offset=".94" stop-color="#24398C"/><stop offset="1" stop-color="#273387"/></linearGradient><linearGradient id="i1hwqslmf" x1="11.34" y1="12.09" x2="10.52" y2="10.73" gradientUnits="userSpaceOnUse"><stop stop-color="#B13580"/><stop offset=".8" stop-color="#9C1C78"/></linearGradient><linearGradient id="j1hwqslmf" x1="6.71" y1="12.08" x2="10.56" y2="12.08" gradientUnits="userSpaceOnUse"><stop stop-color="#55377F"/><stop offset="1" stop-color="#944B96"/></linearGradient></defs></svg>