<!-- by TradingView --><svg width="18" height="18" viewBox="0 0 18 18" xmlns="http://www.w3.org/2000/svg"><path fill="#F0F3FA" d="M0 0h18v18H0z"/><path d="M6.62 8.02 8.02 7H9.7l.01.01v.02L8.02 8.15v.03l1.14 1.8a.02.02 0 0 1 0 .02h-.01l-.02.01H7.46l-.01-.01-.62-1.12v-.01h-.01a.03.03 0 0 0-.02 0l-.5.33-.18.8-.02.01H4.84a.03.03 0 0 1-.02 0v-.02l.7-2.96V7h1.29v.02L6.59 8v.02a.03.03 0 0 0 .03 0Z" fill="#004B8D"/><path d="M2.62 9.36c-.76-.86-.03-1.52.87-1.84a9.44 9.44 0 0 1 1.79-.44C4.15 7.51 3 8.25 2.68 9.35v.01l-.03.01h-.02l-.01-.01Z" fill="#EE2D23"/><path d="M10 9.1c.14.42.8.38 1.11.22.14-.06.4-.14.4-.14h1c-.55.7-1.64.9-2.5.8a1.68 1.68 0 0 1-.87-.3c-.5-.41-.28-1.22.16-1.63.61-.56 1.68-.61 2.48-.43.79.17.9.7.8 1.34l-.02.04a.07.07 0 0 1-.04.01h-2.44l-.03.01a.08.08 0 0 0-.03.02l-.01.03v.03Zm1.5-.66c.03-.5-1.12-.44-1.34 0 0 .03 0 .04.03.04h1.27c.03 0 .05-.01.05-.04Z" fill="#004B8D"/><path d="M13.96 8.77v.01h.02a.02.02 0 0 0 .02 0l.8-1.23a.05.05 0 0 1 .04-.02h1.12c.04 0 .05.01.03.04-.7.99-1.38 1.98-2.09 2.97-.38.54-1.3.41-1.87.37-.02 0-.03-.02-.01-.03l.43-.67a.08.08 0 0 1 .06-.04c.27-.03.44.04.59-.25.04-.07.04-.15 0-.26l-.6-2.1c-.02-.02 0-.03.02-.03h1.13a.04.04 0 0 1 .04.03l.27 1.21ZM4.87 10.73c2.1.64 4.8.69 6.8-.29h.03v.03c-1.54 1.44-4.13 1.77-6.23 1.38-1.37-.26-2.8-1-3.34-2.14a1.28 1.28 0 0 1 .1-1.3c-.32 1.13 1.72 2.04 2.64 2.32Z" fill="#004B8D"/></svg>