<!-- by TradingView --><svg width="18" height="18" xmlns="http://www.w3.org/2000/svg"><path fill="#E90029" d="M0 0h18v18H0z"/><path d="M14 9c-.079-.013-.245.037-.364-.436-.191-.757-.28-1.406-.604-1.406-.323 0-.47.65-.66 1.406-.114.448-.232.572-.423.572-.179 0-.364-.091-.637-1.261-.238-1.023-.4-2.875-1.2-2.875-.8 0-1.036 2.414-1.139 2.88-.127.574-.441 1.256-.837 1.256-.396 0-.6-.475-.72-.985-.18-.78-.387-1.91-.913-1.91s-.698.936-.93 1.958C5.438 8.8 5.22 9 4.837 9H4c.11.034.327.362.383.726.133.86.234 1.392.522 1.392.288 0 .393-.459.56-1.174.13-.56.334-.804.577-.804.358 0 .526.451.721 1.313C7.153 12.17 7.235 13 7.862 13c.621 0 .718-.832 1.136-2.547.182-.746.521-1.313.917-1.313s.678.55.823.987c.311.95.455 1.307.799 1.307.343 0 .537-.429.84-1.465.19-.652.218-.969.78-.969H14z" fill="#fff"/></svg>