<!-- by TradingView --><svg width="18" height="18" viewBox="0 0 18 18" xmlns="http://www.w3.org/2000/svg"><path fill="#F0F3FA" d="M0 0h18v18H0z"/><path d="M14.58 5.07c-.77.34-1.67.94-2.1 1.4-.68.71-.87 1.16-1.1 2.57-.26 1.54-.58 2.06-1.76 2.75a5.22 5.22 0 0 0-1.92 1.9c-.2.35-.16.34.31-.1.53-.5 1.02-.84 2-1.4 1.68-1 1.97-1.45 2.03-3.17.07-1.76.76-2.79 2.6-3.85.32-.18.42-.26.33-.26-.02 0-.2.07-.39.16ZM5 5.8c-.38 1.17.08 2.03 1.87 3.5 1.76 1.45 1.91 1.78 1.18 2.52A3.88 3.88 0 0 0 7 14.57c0 .42.05.56.1.3.18-.9.99-2.43 1.4-2.66.25-.13.57-.62.63-.96.18-.9-.25-1.55-1.81-2.7-1.3-.95-2-1.8-2.17-2.65-.06-.26-.1-.29-.15-.1Zm6.21.99.05.03c.03.04.06.05.09.06.04 0 .07-.03.06-.09-.02-.07.03-.1.1-.09.04 0 .1.03.14.07.17.15.03.42-.22.42h-.04c-.18-.03-.32-.24-.22-.37l.04-.03Zm-1.15 1.46c-.37-.99.18-1.77 1.4-2 .38-.07 1.03-.09 1.01-.03 0 .03-.18.08-.37.12-1.16.27-1.53.6-1.69 1.5-.1.52-.13.75-.18.75-.04 0-.09-.12-.17-.34Z" fill="#1D3567"/><path d="M5.73 5.62c0-.58.17-.89.8-1.43.27-.24.34-.25.2-.04-.3.46-.25 1.05.11 1.58a8 8 0 0 0 1.23 1.23 53.88 53.88 0 0 1 .9.8c.02-.02-.14-.53-.22-.68-.09-.18-.05-.2.17-.06 1.3.78 1.56 2.09.7 3.53-.18.3-.23.28-.26-.1-.08-.76-.34-1.11-1.88-2.47-1.53-1.35-1.76-1.65-1.75-2.36Zm1.7 6.17c-2.5-.54-3.84-2.34-3.32-4.49.08-.34.1-.35.23-.05.44.88.9 1.4 2 2.24 1.24.94 1.53 1.35 1.53 2.12 0 .26-.02.27-.44.18Z" fill="url(#aur433cgm)"/><defs><linearGradient id="aur433cgm" x1="5.14" y1="5.01" x2="6.71" y2="8.1" gradientUnits="userSpaceOnUse"><stop stop-color="#8DC83B"/><stop offset="1" stop-color="#0C9543"/></linearGradient></defs></svg>