<!-- by TradingView --><svg width="18" height="18" viewBox="0 0 18 18" xmlns="http://www.w3.org/2000/svg"><path fill="#F0F3FA" d="M0 0h18v18H0z"/><path d="M8.57 4h-4.3C4 4 4 4.16 4 4.3c0 .1.14.29.28.29H5V12h-.72a.3.3 0 0 0-.28.3c0 .2.19.29.28.29h4.27c.09 0 .3-.09.3-.3 0-.2-.17-.29-.3-.29H8V9.26c0-.73.63-.3 1 0 .56.57 1.86 1.92 2.64 2.77.97 1.05-.14 1.44-.42 1.44-.28 0-.55-.26-.7-.4l-.4-.39-.56.53c.44.53.97.79 1.66.79 1.95 0 2.78-1.18 2.78-2.1 0-.74 0-1.19-.42-1.58l-3.33-3.43.7-.89h-.56L8 8.21V4.6h.57c.1 0 .28-.12.28-.33 0-.2-.19-.26-.28-.26ZM10.39 4.53c0 .42.65 1.05.97 1.31.33-.26.97-.9.97-1.31 0-.53-.7-.53-.97-.53-.28 0-.97 0-.97.53Z" fill="#F8C220"/></svg>