<!-- by TradingView --><svg width="18" height="18" viewBox="0 0 18 18" xmlns="http://www.w3.org/2000/svg"><path fill="#F0F3FA" d="M0 0h18v18H0z"/><path d="M5.27 6.33 3 11.53 6.2 7l-.93-.67Z" fill="url(#aytxtmv42)"/><path d="M8.6 8.6 6.2 7 3 11.53a4.81 4.81 0 0 1 2.93-1.46L8.6 8.6Z" fill="url(#bytxtmv42)"/><path d="M7.67 5 6.2 7l2.4 1.6 1.87-.93L7.67 5Z" fill="url(#cytxtmv42)"/><path d="M5.93 10.07 8.6 8.6l2.67 1.87c-3.52-.64-5.03-.54-5.34-.4Z" fill="url(#dytxtmv42)"/><path d="M10.47 7.67 8.6 8.6l2.67 1.87c.17.04.64.13 1.06.13.43 0 .9-.18 1.07-.27l-2.93-2.66Z" fill="url(#eytxtmv42)"/><path d="m12.33 6.73-1.86.94 2.93 2.66c.21 0 .27-.35.27-.53l-1.34-3.07Z" fill="url(#fytxtmv42)"/><path d="M13.93 10.2c0 .21-.18.44-.26.53L15 13l-1.07-2.8Z" fill="#966635"/><path d="M13.67 10.73c-.22.32-.98.4-1.34.4L15 13l-1.33-2.27Z" fill="url(#gytxtmv42)"/><path d="m15 13-2.67-1.87c-.13.05-.58.11-1.33 0-.93-.13-2.53-.53-4-.53-1.17 0-2.44.71-2.93 1.07L15 13Z" fill="url(#hytxtmv42)"/><defs><linearGradient id="aytxtmv42" x1="4.6" y1="6.33" x2="3.27" y2="11.27" gradientUnits="userSpaceOnUse"><stop stop-color="#D2A854"/><stop offset="1" stop-color="#A77836"/></linearGradient><linearGradient id="bytxtmv42" x1="8.6" y1="8.6" x2="4.07" y2="8.87" gradientUnits="userSpaceOnUse"><stop stop-color="#D89C38"/><stop offset=".54" stop-color="#B07327"/><stop offset="1" stop-color="#744315"/></linearGradient><linearGradient id="cytxtmv42" x1="6.33" y1="7.67" x2="10.33" y2="7.67" gradientUnits="userSpaceOnUse"><stop stop-color="#D3AC5C"/><stop offset=".57" stop-color="#EED17A"/><stop offset="1" stop-color="#D4AF63"/></linearGradient><linearGradient id="dytxtmv42" x1="6.33" y1="9.93" x2="10.6" y2="10.33" gradientUnits="userSpaceOnUse"><stop stop-color="#793C0A"/><stop offset=".5" stop-color="#97500F"/><stop offset="1" stop-color="#612C09"/></linearGradient><linearGradient id="eytxtmv42" x1="8.6" y1="9.53" x2="12.87" y2="9.67" gradientUnits="userSpaceOnUse"><stop stop-color="#CE9233"/><stop offset=".46" stop-color="#B57C2E"/><stop offset="1" stop-color="#573213"/></linearGradient><linearGradient id="fytxtmv42" x1="10.87" y1="7.93" x2="13.27" y2="8.6" gradientUnits="userSpaceOnUse"><stop stop-color="#DCB566"/><stop offset="1" stop-color="#85562C"/></linearGradient><linearGradient id="gytxtmv42" x1="13.67" y1="10.73" x2="14.73" y2="12.73" gradientUnits="userSpaceOnUse"><stop stop-color="#78461B"/><stop offset="1" stop-color="#4F2810"/></linearGradient><linearGradient id="hytxtmv42" x1="13.27" y1="11.8" x2="4.33" y2="11.53" gradientUnits="userSpaceOnUse"><stop stop-color="#411B06"/><stop offset=".35" stop-color="#DD8A1B"/><stop offset="1" stop-color="#3B1704"/></linearGradient></defs></svg>