<!-- by TradingView --><svg width="18" height="18" viewBox="0 0 18 18" xmlns="http://www.w3.org/2000/svg"><path fill="#0C563F" d="M0 0h18v18H0z"/><path d="m5.78 7.06 2.66-1.14A1.4 1.4 0 0 1 9.8 5c.14 0 .39.2.21.9.46-.08 1.76 0 3.27 1.05l-.11.47c.31.07 1.13.32 1.82.78-.22.49-.75 1.47-1.04 1.47l-.28.24c-.02-.15-.07-.43-.11-.38l-.16.22-.16-.27a.7.7 0 0 0-.4-.1c-.21 0-.36.33-.41.5h.22l.13-.2.06.23.24-.24.09.24.16.08.14-.15.04.2.36.1c-.07.2-.29.59-.63.59-.09 0-.19 0-.31-.02a3.2 3.2 0 0 0-1.82.26c-.68.36-1.28 1.5-1.5 2.03L8.07 9.84l1.58 1.54a4.56 4.56 0 0 1 1.7-.92c-.07-.59.04-1.8.98-1.88-.03 0-.77.51-.65 1.83a4.31 4.31 0 0 1 1.57 0l.12-.27-1.25-.15c.11-.33.44-.95.9-.88.2.03.36.1.5.15.21.1.36.16.57 0a.74.74 0 0 0-.25-1.3l-.36-.12c-.55-.2-.88-.32-1.15-.62l.62.04-.07-.25a6.54 6.54 0 0 0-3.07-.77c.06-.34.11-1.01-.2-1.01-.4 0-1.05.52-.98 1.57l-.02-.04c-.04-.06-.14-.2-.18-.38l-2.65.68ZM5.43 13l.32-1.96.8 1.96h1.68l-1.08-2.46L9 8H7.43l-1.52 2.02L6.23 8H4.78L4 13h1.43Zm3.44-6.66a9 9 0 0 1 .35-.59l-.04-.17c.17-.02.5-.05.5 0l-.11.6-.13-.37-.57.53Z" fill="#fff"/></svg>