<!-- by TradingView --><svg width="18" height="18" viewBox="0 0 18 18" xmlns="http://www.w3.org/2000/svg"><path fill="#F0F3FA" d="M0 0h18v18H0z"/><path d="M15 12V9.54h-1.48c-.17 0-.47.07-.7-.14-.16-.14-.18-.29-.06-.55.03-.07.1-.17.17-.28C13.03 8.4 14.67 6.4 15 6h-3.12c-.14.15-.9 1.18-1.3 1.88l-.17.25V4H7.6v4.13l-.16-.25A19.82 19.82 0 0 0 6.12 6H3c.33.4 1.96 2.4 2.07 2.57.08.11.14.2.17.28.12.26.08.4-.07.54-.24.21-.52.15-.7.15H3V12h2.53a2.24 2.24 0 0 0 1.94-1.06l.12-.18V14h2.82v-3.24a5.53 5.53 0 0 0 .2.3c.21.31.83.95 1.87.94" fill="#004DCD"/></svg>