<!-- by TradingView --><svg width="18" height="18" xmlns="http://www.w3.org/2000/svg"><path fill="#5C165F" d="M0 0h18v18H0z"/><path d="M5.143 11L3.549 8.895l-.966.89V11H2V7h.583v2.071L4.873 7h.793L3.97 8.514 5.85 11h-.706zm5.424 0L8.973 8.895 8 9.785V11h-.572V7H8v2.071L10.297 7h.793L9.395 8.514 11.274 11h-.707zm4.796 0l-.898-1.667h-1.673V11h-.584V7h2.646c.697 0 1.118.428 1.118 1.201 0 .707-.367 1-.861 1.1L16 11h-.637zm.046-2.799c0-.442-.225-.534-.687-.534h-1.93v1h1.98c.412 0 .637-.074.637-.466z" fill="#fff"/></svg>