<!-- by TradingView --><svg xmlns="http://www.w3.org/2000/svg" width="18" height="18"><path fill="#00A1E1" d="M0 0h18v18H0z"/><path fill-rule="evenodd" d="M7.33 3h3v.8h-.66V5h1.14c.81 0 1.24.7 1.24 1.07v1.58c0 .47-.3.77-.47.93L13 14a1 1 0 01-1 1H6a1 1 0 01-1-1l2.96-9V3.8h-.63V3zM5.67 14H8.6L7.17 9.57 5.67 14zm4 0h2.65l-1.37-5.04H9.67V14zM7.6 8.24L8.67 5H9v8.19l-1.26-4.1.93-.75v-.96l-1.07.86zm3.02-2.52h-.95v2.52h1c.23-.02.66-.21.66-.85v-.87c0-.11-.02-.37-.16-.46L10 7.4v-1l.62-.69z" fill="#fff"/></svg>