<!-- by TradingView --><svg width="18" height="18" viewBox="0 0 18 18" xmlns="http://www.w3.org/2000/svg"><path fill="#F0F3FA" d="M0 0h18v18H0z"/><path d="M9.03 7.24a.1.1 0 0 1 0 .06H9c-.02 0-.03.01-.05.03-.33.36-.62.74-.85 1.14v.05l-.07.05a.21.21 0 0 0-.06-.18A5.47 5.47 0 0 0 4.34 6.6c-.2-.02-.31-.14-.32-.38L4 5.48c0-.34.15-.5.46-.47 1.75.14 3.25.88 4.5 2.21.02.02.04.02.07.02Z" fill="#BEBCBD"/><path d="M9.94 8.53a6.65 6.65 0 0 0-.9-1.22.1.1 0 0 0-.01-.07A6.74 6.74 0 0 1 13.47 5c.3-.02.47.07.5.28.04.24.04.57.01 1 0 .12-.05.2-.13.25a.66.66 0 0 1-.28.08c-1.4.14-2.6.75-3.6 1.83a.1.1 0 0 0-.03.09Z" fill="#FDB736"/><path d="M9.03 7.3a6.65 6.65 0 0 1 .88 1.2c0 .02 0 .03-.02.03-.33.4-.63.84-.89 1.33-.26-.5-.56-.95-.9-1.34v-.05A6.57 6.57 0 0 1 9 7.3h.03Z" fill="#7A736B"/><path d="M7.4 9.94c-.17.43-.3.86-.37 1.28l-.18 1.19a7.7 7.7 0 0 1-.15-.44A2.94 2.94 0 0 0 4.31 9.8c-.2-.04-.3-.17-.3-.4v-.55c-.01-.23.01-.4.07-.5.07-.12.2-.17.4-.14 1.14.16 2.08.72 2.8 1.67.04.05.08.07.12.05Z" fill="#BEBCBD"/><path d="M11.15 12.52a8.88 8.88 0 0 0-.49-2.54c.36-.5.8-.91 1.3-1.22.51-.3 1.06-.49 1.63-.54.27-.03.4.14.4.5v.77c-.02.17-.1.26-.26.3-1.4.26-2.26 1.17-2.58 2.73Z" fill="#FDB736"/><path d="M9.94 8.53c.28.45.5.92.69 1.43 0 .02.02.02.03.02v.04a4.66 4.66 0 0 0-.61 1.15c-.12.3-.22.7-.32 1.19l-.15-.77a6.34 6.34 0 0 0-.55-1.66c-.01-.03-.03-.03-.06-.01L9 9.86a6.77 6.77 0 0 1 .91-1.37.1.1 0 0 1 .03.04Z" fill="#BEBCBD"/><path d="M8.1 8.52c.34.4.64.84.9 1.34l-.03.06a6.8 6.8 0 0 0-.5 1.46l-.2.95-.1-.47A4.67 4.67 0 0 0 7.4 10v-.09l.07-.21c.16-.4.35-.78.56-1.14l.07-.05Z" fill="#FDB736"/><path d="M7.4 9.92v.1a5.19 5.19 0 0 1 .88 2.32c.01.18 0 .33-.03.42a.3.3 0 0 1-.3.23h-.7c-.18 0-.3-.06-.36-.2a.76.76 0 0 1-.04-.38l.18-1.19a6.54 6.54 0 0 1 .38-1.3ZM10.65 10.02a8.89 8.89 0 0 1 .5 2.5c.02.3-.11.46-.38.47h-.68c-.15 0-.26-.06-.32-.19a.85.85 0 0 1-.04-.44c.1-.49.2-.89.31-1.2a4.66 4.66 0 0 1 .61-1.14Z" fill="#7A736B"/></svg>