<!-- by TradingView --><svg width="18" height="18" viewBox="0 0 18 18" xmlns="http://www.w3.org/2000/svg"><path fill="#F0F3FA" d="M0 0h18v18H0z"/><path d="M5 8V4h1v1.78L7.8 4h1.03L7.3 5.54 9 8H7.97L6.68 6.1 6 6.7V8H5ZM11.4 6.54V6H13v1.4c-.48.42-1.21.6-1.83.6C9.97 8 9 7.24 9 5.99 9 4.76 9.95 4 11.12 4c1.07 0 1.65.43 1.82 1.14l-.94.14c-.12-.38-.38-.61-.88-.61-.77 0-1.12.53-1.12 1.29 0 .75.3 1.37 1.12 1.37.35 0 .59-.12.88-.33v-.46h-.6ZM5 10h1v2.13c0 .61.4 1.2 1.03 1.2.64 0 .97-.56.97-1.15V10h1v2.07C9 13.2 8.66 14 7.06 14 5.44 14 5 13.28 5 12.1V10ZM10 12.67l.72-.07c.1.51.36.74.81.74.3 0 .47-.14.47-.53 0-.81-2-.3-2-1.73 0-.78.86-1.08 1.48-1.08.7 0 1.39.34 1.41 1.17l-.74.04c-.06-.4-.26-.56-.68-.56-.22 0-.47.06-.47.38 0 .64 2 .4 2 1.78 0 .86-.78 1.19-1.48 1.19-.93 0-1.42-.46-1.52-1.33Z"/></svg>