<!-- by TradingView --><svg width="18" height="18" viewBox="0 0 18 18" xmlns="http://www.w3.org/2000/svg"><path fill="#F0F3FA" d="M0 0h18v18H0z"/><path d="M11.98 7H14a5.38 5.38 0 0 0-5-3 5.38 5.38 0 0 0-5 3h2.13a4.4 4.4 0 0 1 2.92-2.24A4.4 4.4 0 0 1 11.98 7Z" fill="#662777"/><path d="M5.2 5.38a5.74 5.74 0 0 1 3.85-.62c.37.08.7.2 1.01.35.16-.1.6-.31 1.36-.31.26 0 .53.05.78.12-.9-.58-2-.92-3.2-.92-1.49 0-2.83.53-3.8 1.38Z" fill="#B294B9"/><path d="M11.98 11H14a5.38 5.38 0 0 1-5 3 5.38 5.38 0 0 1-5-3h2.13a4.4 4.4 0 0 0 2.92 2.24A4.4 4.4 0 0 0 11.98 11Z" fill="#662777"/><path d="M5.2 12.62a5.74 5.74 0 0 0 3.85.62c.37-.08.7-.2 1.01-.35.16.1.6.31 1.36.31.26 0 .53-.05.78-.12-.9.58-2 .92-3.2.92a5.75 5.75 0 0 1-3.8-1.38Z" fill="#B294B9"/><path fill="#662777" d="M2 8h14v2H2z"/><path fill="#B294B9" d="M5 8h2v2H5z"/></svg>