<!-- by TradingView --><svg xmlns="http://www.w3.org/2000/svg" width="18" height="18"><path fill="#14264D" d="M0 0h18v18H0z"/><path d="M5.7 5H4.3c-.16 0-.3.12-.3.28v7.44c0 .16.14.28.3.28h1.4c.16 0 .3-.12.3-.28V5.28C6 5.12 5.86 5 5.7 5z" fill="#fff"/><path d="M13.25 5a.3.3 0 00-.2.08L10 8.94v.03a.08.08 0 000 .07v.02l3.04 3.86a.3.3 0 00.2.08h.49c.1 0 .18-.06.23-.14a.26.26 0 00-.02-.27l-2.7-3.54a.07.07 0 010-.1l2.7-3.53a.26.26 0 00.02-.27.26.26 0 00-.23-.15h-.5z" fill="url(#aee2e2nbi)"/><path d="M8.86 9.05A.1.1 0 018.84 9c0-.02 0-.04.02-.05l2.72-3.54a.26.26 0 00.02-.27.27.27 0 00-.24-.14H9.82a.3.3 0 00-.2.08L6.55 8.94v.11l3.07 3.87a.3.3 0 00.2.08h1.55a.26.26 0 00.21-.42L8.86 9.05" fill="#fff"/><defs><linearGradient id="aee2e2nbi" x1="11.99" y1="13" x2="11.99" y2="5" gradientUnits="userSpaceOnUse"><stop stop-color="#0890AB"/><stop offset="1" stop-color="#00E2DD"/></linearGradient></defs></svg>