<!-- by TradingView --><svg width="18" height="18" fill="none" xmlns="http://www.w3.org/2000/svg"><path fill="#D71539" d="M0 0h18v18H0z"/><path opacity=".8" fill-rule="evenodd" clip-rule="evenodd" d="M9.067 6.64c-.942 0-1.815.24-2.133.36a9.92 9.92 0 0 0-.745-1.404c-.413-.62-.141-1.888.745-1.888.708 0 1.409.24 1.67.36V3h.675v1.068c.184-.198.817-.536 1.872-.298 1.055.239.842 1.317.604 1.826L10.93 7c-.229-.12-.92-.36-1.863-.36ZM5.147 8.5c.11.614.764.759 1.076.755.357-.072.651-.298.777-.402V9.93c-.872 0-1.036.719-1.033 1.069H7v1.265c-.815 0-2 .555-2 1.38C5 14.469 5.806 15 7.53 15c1.726 0 2.408-.905 2.408-1.243 0-.338-.322-.67-.796-.67-.474 0-.787.247-.787.558 0 .248.19.404.285.45-.089.194-.435.583-1.11.583-.843 0-1.146-.274-1.146-.583 0-.308.265-.545.616-.545.28 0 .575.063.663.095.69-.827 1.532-.968 1.92-.936v-1.263c.705-.127.758.26.758 1.47 0 .967.479 1.577.718 1.762l1.941-.92-.18-.29-.43.177c-.317-.33-.379-.901-.37-1.146 0-1.046-.857-1.448-1.286-1.518l1.287-.622v-.715c0-1.214-1.641-.598-2.408-.138V7.923c.408-.141.703.058.745.176v.754l1.564-.754v-.415c0-.844-.88-.72-1.32-.553l-1.39.704-.325-.528-.44.176c-.313-.276-.869-.402-1.54-.44-.672-.038-1.9.691-1.76 1.458ZM9 8H8v4.325h1V8Z" fill="#FFF572"/></svg>