<!-- by TradingView --><svg width="18" height="18" xmlns="http://www.w3.org/2000/svg"><path fill="#0468B3" d="M0 0h18v18H0z"/><path d="M7.205 8.055s-.08-.04-.222-.037c-.252.003-.427.159-.427.159L6.49 8h-.488L6 10.51h.608V9c0-.138.068-.205.123-.253.161-.14.474-.145.474-.145v-.547zM14.79 8.055s-.08-.04-.222-.038a.712.712 0 00-.427.16L14.077 8h-.489l-.003 2.51h.59V9c0-.138.086-.205.14-.253.163-.141.476-.145.476-.145v-.547zM7.777 9.279c0-.447.115-.77.408-.77s.408.323.408.77-.115.77-.408.77-.408-.323-.408-.77zm1.403.002c0-.69-.34-1.249-.997-1.249-.643 0-.998.559-.998 1.249 0 .689.306 1.248.998 1.248.678 0 .997-.56.997-1.248zM12.414 8.509c.199 0 .315.177.37.41h-.737c.054-.233.17-.41.367-.41zm.435 1.015c-.038.315-.157.525-.393.525-.285 0-.403-.282-.407-.715h1.402c.008-.228-.039-.415-.039-.415-.107-.498-.43-.887-.958-.887-.643 0-.998.559-.998 1.249 0 .689.307 1.248.998 1.248.596 0 .915-.432.983-1.005h-.588z" fill="#fff"/><path d="M10.322 10.066c-.293 0-.41-.329-.41-.783 0-.455.117-.785.41-.785.295 0 .41.33.41.785 0 .454-.115.783-.41.783zm.947.565c-.002-.184 0-2.631 0-2.631h-.597v.154c-.078-.08-.24-.13-.353-.133-.646-.016-1.002.56-1.002 1.263 0 .702.308 1.265 1.003 1.265.136 0 .255-.055.362-.096.03.494.047 2.126-1.065 2.16-1.205.026-1.085-1.754-1.085-1.754h-.656s-.088 2.18 1.67 2.18c1.904 0 1.726-2.223 1.723-2.408zM6.81 5.529c-.798 0-1.25.445-1.472.97h-.001c-.004.01-.008.019-.01.03-.003.001-.003.004-.004.006a1.788 1.788 0 00-.119.541c.037 1.313-.595 1.394-.595 1.394-.01-.112 0-1.47 0-1.47h-.607v3.502h.61V9.03c0-.06.549-.003.586.68.003.06 0 .793 0 .793h.63c-.013-.097.132-1.676-.673-1.688-.128-.003.663-.182.639-1.361-.006-.264.024-.5.082-.706.133-.422.372-.8.866-.807 1.111-.014.985 1.71 1 1.71h.618s.11-2.121-1.55-2.121z" fill="#fff"/><path d="M8.412 15.084c-2.693-.229-4.94-1.672-5.928-3.805a5.207 5.207 0 01-.24-3.77c.278-.869.674-1.525 1.349-2.233a6.265 6.265 0 011.64-1.264A7.898 7.898 0 017.67 3.16c.549-.103 2.093-.103 2.65 0 1.691.31 3.016.997 4.083 2.114.516.542.802.949 1.086 1.547a5.273 5.273 0 01-.148 4.812c-.855 1.57-2.515 2.776-4.472 3.25-.638.155-1.842.253-2.458.2zm1.987-.463c1.545-.29 2.821-.962 3.808-2.007 1.97-2.086 1.961-5.033-.022-7.112-.501-.525-.992-.891-1.677-1.25-2.367-1.243-5.33-1.127-7.539.293-2.209 1.42-3.15 3.857-2.368 6.14.707 2.065 2.78 3.62 5.323 3.992.6.088 1.862.06 2.475-.055z" fill="#fff"/></svg>