<!-- by TradingView --><svg width="18" height="18" viewBox="0 0 18 18" xmlns="http://www.w3.org/2000/svg"><path fill="#0F364D" d="M0 0h18v18H0z"/><path fill-rule="evenodd" d="M9.15 3h-.3l-.19 3.4c-.24.04-.47.1-.68.2L6.13 3.68l-.26.14 1.53 3.1c-.24.17-.33.25-.45.43L3.88 5.84l-.15.26L6.6 7.94c-.11.2-.17.39-.2.72L3 8.86v.29l3.4.18c.03.28.06.4.16.64l-2.82 1.9.15.25 3-1.55c.15.22.23.3.48.5l-1.51 3.02.26.15 1.83-2.83c.26.12.39.15.7.19l.2 3.4h.3l.18-3.4c.22-.03.44-.09.65-.17l1.87 2.82.26-.15-1.54-3c.21-.16.39-.34.55-.56l3 1.55.15-.25-2.83-1.88a1.81 1.81 0 0 0 .15-.61l3.41-.2v-.3l-3.4-.17a2.6 2.6 0 0 0-.2-.74l2.86-1.86-.15-.26-3.07 1.54c-.14-.17-.3-.32-.47-.45l1.6-3.05-.27-.15-1.92 2.86a2.6 2.6 0 0 0-.63-.16L9.15 3ZM9 11a2 2 0 1 0 0-4 2 2 0 0 0 0 4Z" fill="#DD822B"/></svg>