<!-- by TradingView --><svg width="18" height="18" viewBox="0 0 18 18" xmlns="http://www.w3.org/2000/svg"><path fill="#F0F3FA" d="M0 0h18v18H0z"/><path d="M4 5v6.5l4.5-3L4 5Z" fill="#067AC0"/><path d="M4 5h1.88v1.54L4 5Z" fill="#00A0DD"/><path d="M5.83 6.5V5H14L8.5 8.5l-2.67-2Z" fill="#00A0DD"/><path d="M4 11.46V13h10L8.5 8.5 4 11.46Z" fill="#044F7C"/><path d="M8.5 8.5 14 5v8L8.5 8.5Z" fill="#36B4E5"/><path d="M14 5h-.4L4 11.22v.58l4.48-2.9 5.15 4.1H14l.01-.33-5.09-4.05L14 5.32V5Z" fill="#F0F3FA"/><path d="M6.5 5H6v8h.5V5Z" fill="#F0F3FA"/></svg>