<!-- by TradingView --><svg xmlns="http://www.w3.org/2000/svg" width="18" height="18" viewBox="0 0 18 18"><path fill="url(#ahm00q2df)" d="M0 0h18v18H0z"/><path d="M8.73 7.12c-.03-.87-.86-1.3-1.26-1.4.03.14.01.19 0 .2-.05-.13-.15-.37-.17-.29a.3.3 0 0 1-.08.16c0-.1-.02-.3-.08-.29-.06.01-.1.23-.12.34-.28.43-2.13 1.57-3.02 2.1-.31-.05-.94.14-1 1.25-.05 1.1.7 1.41 1.08 1.43 1.16.33 2.46 1.1 2.96 1.44.07.15.34.45.84.44.63-.02.73-.52.78-.98.04-.37-.13-.75-.22-.9v-.26c-.05.01-.14.02-.11-.02.04-.05.04-.26-.04-.19l-.03.03c-.05.05-.06.06-.08.06.04-.13 0-.18-.03-.19-.37.13-1.88-.52-2.59-.86l.58-.3c-.09.02-.17-.07.21-.28.4-.22.4-.12.36-.02l1.16-.66c.14-.04.15-.1.14-.12.06-.1.28-.05.38 0 .25-.08.33-.5.34-.69zm5.01-.27c-.01-.74-.5-.88-.75-.86-.88.13-2.23-.2-2.82-.36a4.5 4.5 0 0 0-.27-.06c-.18-.03-.16.08-.12.14.08.05.2.2.06.37a.79.79 0 0 0-.17.45c.04.66.44.69.72.7.17 0 .43-.02.63-.04l.29-.02c.15 0 0 .28-.09.4l.1.33c.15-.21.33-.1.49 0 .09.06.17.11.24.1l.05-.04c.06-.04.08-.06.1-.06l.01.04.03.08c.15 0 .29-.05.42-.1.16-.06.3-.11.48-.08.1.01.62-.06.6-.99zM10.64 9c.3-.32 1.11-.95 1.94-.9 1.04.05 1.89.68 1.92 2.05.03 1.36-1.33 2.38-2.62 2.3-.75-.03-1.63-.41-1.46-.87.04-.11-.07-.25-.17-.39-.1-.11-.18-.22-.18-.31l.05-.18c.04-.1.66.06.97.15.12.01.47 0 .88-.2v.1c.23-.08.62-.3.4-.4.03-.03.29-.64-.51-.64l-.72.1h-.1c-.14.05-.43.22-.47.38l-.45.46c-.1.18-.3.57-.3.7 0 .15-.6.31-.81-.05-.22-.23-.64-.78-.48-1.18.06-.08.2-.33.26-.66.07-.34.3-1.22.42-1.62l-.05-.54c-.02-.13.1.06.15.17-.02-.08-.02-.2.14-.04 0-.05.11-.13.26-.13.19-.03.48-.04.89.13.5.22.7.6.46.82-.2.18-.36.58-.41.75z" fill="#fff"/><defs><linearGradient id="ahm00q2df" x1="3.35" y1="3.12" x2="21.9" y2="24.43" gradientUnits="userSpaceOnUse"><stop stop-color="#1A1E21"/><stop offset="1" stop-color="#06060A"/></linearGradient></defs></svg>