<!-- by TradingView --><svg width="18" height="18" viewBox="0 0 18 18" xmlns="http://www.w3.org/2000/svg"><path fill="#E94433" d="M0 0h18v18H0z"/><path d="M9.23 9.36c.9.14 1.02.67 1.1 1.16v.08l.01.06.05.3c.08.55.26 1.7.26 2.3 0 .14-.01.26-.04.32-.04.1-.16.2-.32.27-.39.1-.8.15-1.22.15h-.13c-.17-.05-.3-.13-.37-.24-.2-.34-.21-1.08-.22-1.94v-.36c0-.92-.01-1.71.32-2 .13-.1.31-.14.56-.1Zm-1.95 2c.2-.01.32.94.35 1.66.01.5-.04.71-.12.79l-.29-.1c-.06-.12-.1-.3-.13-.53-.1-.72-.02-1.81.2-1.82Zm4.86 1.42a.6.6 0 0 1-.05.16c-.16.14-.34.26-.52.37-.06 0-.1 0-.13-.04-.24-.43-.34-1.76-.1-1.88.3-.14.85 1.16.8 1.4ZM9 4a4.98 4.98 0 0 1 5 4.84v.14a4.9 4.9 0 0 1-1.19 3.17c-.02 0-.07-.05-.16-.18a5.38 5.38 0 0 1-.88-2.73c0-.28.4-.7.74-1.07.26-.28.5-.55.6-.76.11-.27.03-.45-.1-.52-.11-.05-.28-.01-.4.2-.2.35-.27.42-.56.65-.29.24-.74.47-.74.17 0-.17.25-.54.38-.8.13-.27-.01-.46-.28-.46-.52 0-.86.66-.86.9 0 .22.11.26.11.52 0 .27-.57.62-1.1.62-.52 0-.82-.1-.95-.4l-.01-.04-.04-.1c-.12-.38-.22-.65-.37-.93-.09-.15-.22-.25-.33-.34-.15-.12-.23-.22-.24-.3-.02-.08-.02-.23.23-.57.25-.33.28-.59.16-.72-.05-.04-.12-.07-.22-.07-.18 0-.43.09-.68.35-.4.4-.17.78-.17.95 0 .17-.07.26-.3.49-.24.23-.32.42-.35 1.21-.01.4-.08.64-.15.85a1.95 1.95 0 0 0-.01 1.25 4.72 4.72 0 0 1 .08 2.28l-.03.12v.03c-.03.09-.06.2-.09.23A4.93 4.93 0 0 1 9 4Z" fill="#fff"/></svg>