<!-- by TradingView --><svg width="18" height="18" viewBox="0 0 18 18" xmlns="http://www.w3.org/2000/svg"><path fill="#F0F3FA" d="M0 0h18v18H0z"/><path fill-rule="evenodd" d="M9 15A6 6 0 1 0 9 3a6 6 0 0 0 0 12Zm0-1A5 5 0 1 0 9 4a5 5 0 0 0 0 10Z" fill="#3A5C81"/><path fill-rule="evenodd" d="M12 6.5A1.5 1.5 0 0 1 10.42 8l-.68.96.73 1.04h.03a1.5 1.5 0 1 1-.96.35l-.9-1.27a.2.2 0 0 1 0-.24l.86-1.22a1.5 1.5 0 0 1 1-2.62c.83 0 1.5.67 1.5 1.5Zm-1 0a.5.5 0 1 1-1 0 .5.5 0 0 1 1 0Zm-.5 5.5a.5.5 0 1 0 0-1 .5.5 0 0 0 0 1ZM7 5.09A1.5 1.5 0 0 0 7 7.9v2.18a1.5 1.5 0 1 0 1 0V7.9a1.5 1.5 0 0 0 0-2.8v.97c0 .21-.22.39-.5.39s-.5-.19-.5-.4V5.1Z" fill="#F38432"/></svg>