<!-- by TradingView --><svg width="18" height="18" xmlns="http://www.w3.org/2000/svg"><path fill="#782F40" d="M0 0h18v18H0z"/><path d="M6.516 3.636a7.036 7.036 0 00-1.067 1.567c-.379.76-.563 1.448-.592 2.209l-.01.3-.218-.304a2.445 2.445 0 00-.23-.295c-.022.014-.084.299-.103.48-.079.713.114 1.57.512 2.27l.08.142-.1-.055-.441-.26c-.205-.124-.344-.197-.347-.183-.002.012.032.127.077.255.312.89.77 1.604 1.256 1.964.107.078.13.1.097.1-.116 0-.663.042-.663.05s.121.091.268.188c.96.63 2.026 1.089 2.986 1.283l.23.047-.025.063c-.212.498-.27.649-.261.678.008.027.1.063.425.165l.519.167a.763.763 0 00.156.033c.073 0 1.069-.276 1.084-.3.025-.038.016-.065-.15-.446l-.163-.379.077-.012c.262-.038.86-.217 1.293-.386.31-.121.907-.408 1.237-.595.276-.156.786-.483.786-.503a.667.667 0 00-.175-.025l-.35-.02-.174-.013.1-.07c.424-.293.837-.876 1.156-1.635.104-.244.214-.553.214-.598 0-.027-.095.024-.438.225-.24.143-.438.255-.438.252 0 0 .054-.106.123-.228.271-.496.436-.944.518-1.413.042-.24.039-.621-.007-.836-.031-.155-.133-.415-.16-.414a6.29 6.29 0 00-.236.318c-.222.31-.226.314-.215.234.014-.105-.014-.564-.05-.795-.155-1.03-.679-2.123-1.464-3.055a4.051 4.051 0 00-.226-.252c-.068-.062-.073-.066-.063-.026.039.155.12.568.149.781.303 2.077.012 4.143-.82 5.86-.207.425-.648 1.166-.67 1.126a7.853 7.853 0 00-.352-.856c-.148-.317-.15-.314.087-.314.176 0 .178-.003.064-.2-.096-.164-.131-.2-.21-.2-.09 0-.14-.03-.219-.135-.103-.133-.184-.166-.41-.168-.164 0-.184.003-.292.057a.569.569 0 00-.274.273c-.084.167-.262.824-.334 1.241-.065.363-.044.35-.19.129a9.073 9.073 0 01-1.37-3.691 11.4 11.4 0 01-.043-2.74c.036-.333.103-.746.156-.982.026-.111.042-.205.038-.209a.882.882 0 00-.138.136z" fill="#fff"/></svg>