<!-- by TradingView --><svg xmlns="http://www.w3.org/2000/svg" width="18" height="18"><path fill="#F0F3FA" d="M0 0h18v18H0z"/><path d="M12.4 12.75A5.06 5.06 0 009 4c-1.8 0-3.38.96-4.26 2.4.18.14.67.33 1.62.34.23-.02.76-.1 1.03-.23.34-.16.71-.08.87.7h1.1c.1 0 .26.03.24.24v.26c0 .06.04.21.14.28.13.08.25.3 0 .43-.2.11-.6.16-.8.17-.05.01-.13.07 0 .21.19.18.21.49 0 .57-.16.06-.84.22-1.16.3-.16.04-.39.18 0 .38.28.02.83.14.74.42-.12.34-.07.87.43.92.4.04.7-.1.8-.17.1-.05.33-.11.45.1l.11.4c.05.18.22.5.6.44.27.03.93.18 1.49.6z" fill="url(#a1p51i1nu)"/><path d="M8.03 14a5.04 5.04 0 01-3.71-6.73c.3-.08.85-.16 1.22-.05.42.12.83.05.98 0 .11-.05.39-.12.61-.07.27.07.35.18.18.39-.15.17-.01.24.08.26.27 0 .81.06.77.4-.05.43-.77.45-.85.45-.08 0-.32.01-.18.34.11.26-.14.32-.28.32H5.13c-.3.13-.25.54.3.66.45.1.42.39.4.57v.19c0 .11-.01.24.53.12.67-.13.95.1 1.03.37.05.2-.15.38-.34.54l-.2.19c-.15.17.03.27.14.3 1.08.4 1.15 1.3 1.04 1.75z" fill="url(#b1p51i1nu)"/><path d="M8.03 14a5 5 0 01-2.96-1.84c.99.18 1.92.08 1.92.08 1.08.4 1.15 1.32 1.04 1.76z" fill="#0040A1" fill-opacity=".7"/><path d="M12.4 12.75a5.06 5.06 0 00.65-6.67c-.65 2.97-1.82 4.15-3 5.1.06.03.1.07.15.14l.12.4c.04.18.22.5.58.44.28.03.94.18 1.5.6z" fill="url(#c1p51i1nu)"/><defs><linearGradient id="a1p51i1nu" x1="7.31" y1="4.25" x2="11.23" y2="13.17" gradientUnits="userSpaceOnUse"><stop stop-color="#08B9FE"/><stop offset="1" stop-color="#0E58AB"/></linearGradient><linearGradient id="b1p51i1nu" x1="7.31" y1="4.25" x2="11.23" y2="13.17" gradientUnits="userSpaceOnUse"><stop stop-color="#08B9FE"/><stop offset="1" stop-color="#0E58AB"/></linearGradient><linearGradient id="c1p51i1nu" x1="12.03" y1="7.73" x2="10.65" y2="14.07" gradientUnits="userSpaceOnUse"><stop stop-color="#0070BE"/><stop offset="1" stop-color="#002993"/></linearGradient></defs></svg>