<!-- by TradingView --><svg width="18" height="18" viewBox="0 0 18 18" xmlns="http://www.w3.org/2000/svg"><path fill="#F6584B" d="M0 0h18v18H0z"/><path d="M11 7h3l-.84-1L14 5h-3v2ZM12 12.86a.79.79 0 0 1-.18.02c-.44 0-.62-.3-.83-.64l-.8-1.32a1.3 1.3 0 0 0-1.17-.65c-.13 0-.27.02-.4.05l.92-1c.7-.75.85-.98 1.46-1.18V8H9.32v.14c.53.2.64.39.04 1.08L8 10.7V5l-2 .38v.15c.3 0 .6.29.6.8v5.63c0 .62-.29.86-.6.9V13h2.58v-.14c-.38-.05-.58-.34-.58-.9v-1.04l.56-.54 1.23 1.96c.29.47.27.66.7.66H12v-.14Z" fill="#fff"/></svg>