<!-- by TradingView --><svg width="18" height="18" viewBox="0 0 18 18" xmlns="http://www.w3.org/2000/svg"><path fill="#F0F3FA" d="M0 0h18v18H0z"/><path d="M9.02 6.17c-.44.65-.6.83-.92 1-.45.26-1.11.44-2.38.67-1.78.31-2.28.44-3.09.76-.31.13-.63.48-.63.7 0 .5.3.78 1.32 1.25.8.37 1.54.8 1.78 1.06.2.2.37.2.4 0 .05-.31-.45-.7-1.7-1.34-1.32-.67-1.33-.68-1.06-.99.3-.35 1.3-.65 3.1-.94 1.77-.28 2.74-.65 3.2-1.22.4-.49.52-1.07.24-1.12-.09-.01-.18.05-.26.17Zm6.4 2.06c-.22.16-.9.37-1.44.44-.32.04-1.41.1-2.43.14-3.03.13-4.42.35-5.3.84-.65.37-.79.84-.4 1.46.17.29.8.89.92.89.18 0 .15-.14-.1-.4-.46-.49-.55-.82-.32-1.14.4-.52 1.61-.76 4.84-.96 2.5-.15 3.7-.28 4.23-.47.48-.17.71-.5.5-.71-.1-.12-.4-.17-.5-.1Z" fill="#1DB442"/></svg>