<!-- by TradingView --><svg width="18" height="18" fill="none" xmlns="http://www.w3.org/2000/svg"><path fill="#F0F3FA" d="M0 0h18v18H0z"/><path d="M5 7.667h1.333v.1H6v1.308l1.239-1.308H7v-.1h.667v.1h-.245l-.733.774.919 1.692H8v.1H6.667v-.1h.182l-.642-1.182L6 9.269v.964h.333v.1H5v-.1h.333V7.767H5v-.1zM7.833 7.667v.1h.244L8.667 9v1.233h-.334v.1h1.334v-.1h-.334V9l.544-1.233h.34v-.1h-.833v.1h.347l-.45 1-.47-1H9v-.1H7.833zM10.333 7.667v.1h.27v2.466h-.27v.1H11v-.1h-.263V7.767h.018l1.378 2.566h.6V7.767H13v-.1h-.667v.1h.267v2.027l-1.142-2.127h-1.125z" fill="#32669B"/><circle cx="9" cy="9" r="5.65" stroke="#32669B" stroke-width=".7"/></svg>