<!-- by TradingView --><svg xmlns="http://www.w3.org/2000/svg" width="18" height="18" viewBox="0 0 18 18"><path fill="#F0F3FA" d="M0 0h18v18H0z"/><path d="M7.7 10.37h-.02a2.17 2.17 0 0 0-.13-.13c-.23-.22-.78-.7-.78-1.25 0-.52.52-.98.76-1.21a2.13 2.13 0 0 0 .8-1.66C8.33 4.95 7.36 4 6.17 4 4.97 4 4 4.95 4 6.12c0 .59.24 1.11.63 1.5l.16.14c.23.23.76.7.76 1.23 0 .54-.53 1.02-.76 1.25A2.13 2.13 0 0 0 4 11.88C4 13.05 4.97 14 6.17 14s2.16-.95 2.16-2.12a2.1 2.1 0 0 0-.64-1.51" fill="#58C1A7"/><path d="M5.82 9.78s1.68-.2 2.7-1.24c1.03-1.03 1.26-2.69 1.26-2.69a2.12 2.12 0 1 1 2.35 2.38s-1.65.22-2.68 1.25c-1.02 1.03-1.24 2.74-1.24 2.74a2.12 2.12 0 1 1-2.4-2.44z" fill="#3DC3DA"/><path d="M7.7 10.35h-.02a2.18 2.18 0 0 0-.13-.13c-.16-.15-.44-.4-.62-.72-.6.2-1.07.25-1.07.25a2.19 2.19 0 0 0-1.71 1.34l-.01.02-.06.17v.01l-.04.16v.03a2.1 2.1 0 0 0-.03.17v.04l-.01.18a2.15 2.15 0 0 0 2.38 2.12l.07-.01.13-.02.09-.02.11-.03.09-.03a2.22 2.22 0 0 0 .54-.27l.06-.04.1-.08.03-.02a2.14 2.14 0 0 0 .6-.89 2.12 2.12 0 0 0-.5-2.23" fill="#12948F"/><path d="M9.67 11.83a2.17 2.17 0 1 1 4.33 0 2.17 2.17 0 0 1-4.33 0" fill="#009BDE"/></svg>