<!-- by TradingView --><svg xmlns="http://www.w3.org/2000/svg" width="18" height="18"><path fill="#009D50" d="M0 0h18v18H0z"/><path d="M12 13.24a.85.85 0 01-.2.54.68.68 0 01-.22.16.62.62 0 01-.26.06H8.4c-.03-.55.03-1.11.17-1.64.13-.5.59-.67 1.02-.76h.04c.25-.06.5-.1.73-.24.3-.17.43-.54.46-.9-.33.13-.67.23-1 .33-.55.17-.96.63-1.2 1.18-.04-.65.37-1.17.87-1.43.21-.12.43-.2.64-.26.27-.1.53-.18.78-.34.3-.2.5-.48.64-.82.16-.4.24-.93-.03-1.3a1.4 1.4 0 01-.59.58l-.33.14c-.61.24-1.23.5-1.63 1.1-.06-.25.1-.47.25-.64.26-.3.57-.45.9-.6l.51-.27c.32-.2.6-.47.67-.87.05-.27-.03-.67-.27-.77-.15.47-.58.63-1 .78-.13.04-.26.1-.38.15-.16.08-.28.2-.39.36-.02-.5.39-.69.77-.86.12-.05.23-.1.33-.16.14-.09.27-.19.32-.35l.01-.04c.02-.05.04-.1.03-.16-.02-.24-.05-.48-.2-.65-.13.07-.25.14-.4.16-.04 0-.07.01-.1-.03h.02c.07-.04.15-.07.17-.16.04-.12 0-.24-.05-.35v-.01a4.14 4.14 0 00-.45-.88l-.15.1c-.24.19-.49.36-.67.64-.08.11-.1.32.05.4-.16.04-.3-.14-.4-.27-.38.14-.5.74-.27 1.07.09.13.2.25.33.38.31.31.63.63.42 1.12a.35.35 0 01-.04-.18.34.34 0 00-.05-.19c-.12-.18-.28-.3-.44-.42-.2-.16-.4-.3-.53-.57-.1-.2-.14-.4-.18-.6l-.02-.1c-.34.32-.55.86-.34 1.34a3.03 3.03 0 00.6.9c.32.36.63.73.74 1.22.03.15 0 .32-.06.46a2.3 2.3 0 00-.61-1.26c-.52-.48-.97-1-1.15-1.7-.15.04-.21.2-.27.35l-.05.12c-.17.35-.19.76-.12 1.15a2.66 2.66 0 00.87 1.43c.39.32.75.66.93 1.16a1.42 1.42 0 01-.02 1.05 2.52 2.52 0 00-.44-1.34c-.14-.18-.3-.3-.47-.44A3.1 3.1 0 017 9.8l-.14-.18a1.2 1.2 0 00-.17-.21v.18c-.02.34-.03.7.16.99.14.2.32.34.51.47.17.12.33.24.47.4.19.24.33.5.4.81 0 .06-.02.12-.05.18l-.07-.14a2.56 2.56 0 00-.49-.8 2.11 2.11 0 00-.86-.46c.03.44.29.81.64 1l.24.12c.2.08.4.17.53.39l-.02.22c-.04.41-.08.83-.08 1.24H6.68a.65.65 0 01-.48-.22.82.82 0 01-.2-.54V4.76a.85.85 0 01.2-.54.68.68 0 01.22-.16.62.62 0 01.26-.06h4.64c.09 0 .18.02.26.06.08.04.16.1.22.16.06.07.11.16.15.25.03.1.05.2.05.3v8.47zM9.95 13c-.2-.19-.4-.37-.64-.48a1.3 1.3 0 00-.63-.08c-.02 0-.04.04-.03.04.08.02.14.05.19.1.4.47.91 1.07 1.53.77-.15-.1-.29-.23-.42-.35z" fill="#fff"/></svg>