<!-- by TradingView --><svg width="18" height="18" xmlns="http://www.w3.org/2000/svg"><path fill="#1B0088" d="M0 0h18v18H0z"/><path d="M6.175 7.847L8 7.291s-.02-.13-.085-.194c-.065-.063-.183-.103-.183-.103l-2.536-.983s-.08-.029-.14.006c-.058.035-.056.125-.056.125V7.4s-.006.12.157.39c.164.27.551.202.551.202l.467-.145zM12.455 5l1.54-.735s.024-.127-.036-.174c-.059-.046-.13-.06-.13-.06L7.178 2.008s-.073-.02-.127.004c-.053.026-.051.091-.051.091v.786s0 .183.147.378c.149.196.39.247.39.247L12.455 5zM12.486 8l1.505-.732s.032-.185-.026-.235a.47.47 0 00-.136-.076L5.174 4.01s-.072-.023-.124.004c-.052.027-.05.098-.05.098v.846s0 .196.144.406a.7.7 0 00.38.265L12.487 8z" fill="#ED1651"/><path d="M13.764 4s.087.012.161.078c.074.067.075.148.075.148v1.091s-.004.15-.07.283c-.066.135-.164.166-.164.166l-.202.068-6.45 2.157S7.083 8 7.042 8c-.04 0-.07-.009-.07-.009l-1.798-.6s-.045-.01-.108-.102C4.995 7.187 5 6.984 5 6.984s.011.104.075.153c.064.05.235-.004.235-.004l8.254-2.761s.328-.123.328-.248c0-.087-.128-.124-.128-.124zM13.76 7s.089.012.164.079a.217.217 0 01.076.147V8.32s-.004.15-.071.284a.322.322 0 01-.167.166l-.205.068L7 11V9.534l6.557-2.162s.333-.123.333-.248c0-.087-.13-.124-.13-.124zM9.947 11.02c.053.066.053.212.053.212v.957s-.003.175-.06.332c-.057.157-.14.194-.14.194l-.173.08L7 14v-1.714l2.627-1.205s.267-.128.32-.062zM8.92 14.017c.08.06.08.19.08.19v.853s-.005.156-.092.296a.397.397 0 01-.214.173l-.265.07L7 16v-1.528l1.429-.4s.41-.114.49-.055z" fill="#fff"/></svg>