<!-- by TradingView --><svg width="18" height="18" viewBox="0 0 18 18" xmlns="http://www.w3.org/2000/svg"><path fill="#F0F3FA" d="M0 0h18v18H0z"/><path d="M5 6h1v2.6c-.4.05-.77.16-1 .23V6Zm0 3.8V12h4v-1H6V9.67c-.24.01-.68.05-1 .14ZM11.27 6H8.42v4h1.16V7h1.57c.42 0 .76.3.76.74a.8.8 0 0 1-.55.78l1.03.17c.24-.29.4-.66.4-1.08 0-.89-.7-1.61-1.52-1.61Zm1.75 3.81-1-.13c.12.16.19.35.19.54 0 .45-.4.78-.82.78H10v1h1.48c.88 0 1.6-.77 1.6-1.72 0-.16-.02-.32-.06-.47Z"/><path d="M8.13 8.58c-2.19.11-4.26.65-6.13 1.53 1.98-.41 4.03-.65 6.13-.7v-.83Zm1.75.83c2.09.05 4.14.29 6.12.7a16.39 16.39 0 0 0-6.12-1.53v.83Z"/></svg>