<!-- by TradingView --><svg width="18" height="18" xmlns="http://www.w3.org/2000/svg"><path fill="#F0F3FA" d="M0 0h18v18H0z"/><path d="M7 2v5h4V6H8V2H7z" fill="#929292"/><path d="M10.092 14H7V8h2.997c.492 0 .872.176 1.142.482.27.299.404.655.404 1.068 0 .36-.087.661-.262.907-.169.245-.383.4-.642.467.286.048.523.212.714.493.195.276.293.599.293.97 0 .46-.135.847-.404 1.158-.27.311-.653.455-1.15.455zm-.404-3.678a.436.436 0 00.333-.135.516.516 0 00.134-.368.473.473 0 00-.134-.35.423.423 0 00-.333-.143H8.364v.996h1.324zm.047 2.388c.164 0 .291-.048.38-.144a.555.555 0 00.144-.395.543.543 0 00-.143-.385.481.481 0 00-.38-.153H8.363v1.077h1.371z" fill="#2F4F85"/><path d="M7 15h5l-.833 1H7v-1z" fill="#929292"/></svg>