<!-- by TradingView --><svg width="18" height="18" xmlns="http://www.w3.org/2000/svg"><path fill="#262626" d="M0 0h18v18H0z"/><path d="M10.41 6.018c0 .02.026.028.258.061.268.039.596.104.893.176 1.56.382 2.55 1.082 2.804 1.984.054.193.068.294.068.514-.002.52-.249 1.013-.749 1.491-.83.793-2.212 1.349-3.778 1.518a11.89 11.89 0 01-1.678.017c-.946-.082-1.767-.302-2.484-.664A2.692 2.692 0 005.5 11c-.072-.017.002.043.192.159 1.26.765 3.144 1.094 5.153.9 1.682-.162 3.123-.656 4.052-1.39.365-.288.631-.604.782-.928.187-.401.209-.86.062-1.261-.467-1.286-2.453-2.267-4.956-2.454L10.42 6c-.007 0-.012.007-.012.018z" fill="#EE273C"/><path d="M7.711 6.174c-1.112.051-2.05.21-2.93.5-1.067.35-1.871.844-2.355 1.447-.393.49-.52 1.06-.356 1.597.343 1.117 1.82 2.028 3.911 2.406a12.16 12.16 0 001.372.151c.052.006.07.002.065-.014-.003-.01-.02-.022-.041-.026-2.215-.31-3.6-1.09-3.908-2.207a1.843 1.843 0 01-.025-.85c.23-.965 1.34-1.859 2.907-2.337.533-.162.913-.24 1.648-.33.295-.036 1.538-.029 1.841.01.908.117 1.61.322 2.297.666.117.058.216.102.22.095.015-.017-.032-.053-.24-.174-.838-.498-1.922-.809-3.15-.907-.239-.02-1.04-.037-1.256-.027z" fill="#EE273C"/><path d="M5.7 11H12l.598-1.432H8.75L9.9 7H7.494l-1.795 4z" fill="#fff"/></svg>