<!-- by TradingView --><svg width="18" height="18" xmlns="http://www.w3.org/2000/svg"><path fill="#EE742B" d="M0 0h18v18H0z"/><path d="M5.131 9.798c-.272-1.23-.065-2.934.818-3.231-.044-.416-.033-.922-.022-1.338.011-.446.044-.773-.12-.753-.196.03-.85 1.219-.992 2.755-.054.555-.01 1.11.077 1.606.065.327.141.644.24.96zM12.847 9.798c.098-.317.175-.635.23-.962.086-.505.13-1.06.075-1.605-.141-1.526-.784-2.726-.991-2.755-.142-.02-.12.317-.099.763.011.416.011.921-.021 1.338.883.287 1.079 2.002.806 3.22zM7.224 7.41c.512 1.13.828 2.348.904 2.626.087-.11.436-.407.861-.407s.774.288.861.407c.076-.278.392-1.497.905-2.627a13.703 13.703 0 00-.208-1.06C10.45 5.923 9.981 4 8.99 4c-.992 0-1.471 1.923-1.57 2.339-.054.228-.174.852-.195 1.07zM6.995 7.043c.174-.922.338-1.467.545-1.973-.393.06-.85.902-.992 1.546.218.14.436.417.447.427zM11.43 6.616c-.141-.644-.599-1.486-.992-1.546.208.506.382 1.05.546 1.973.01-.01.229-.288.447-.427z" fill="#fff"/><path d="M12.63 11.84c1.078-.774 1.514-2.25 1.329-2.39-.098-.029-.284.328-.534.764-.197.327-.382.545-.382.545l-.022.02c-.01 0 .011-.02.011-.02.774-1.457.861-2.488.894-2.953.054-1.06-.153-1.11-.24-.773-.098.406-.218.921-.305 1.427-.24 1.407-.894 2.804-1.417 3.568-.076.109-.141.099-.163.079-.011-.02 0-.04.043-.129 1.504-2.527.872-5.084-.021-5.114-.85-.03-1.668 3.033-1.766 3.37.578.892.72 2.14.676 2.448 0 .03-.033.05-.055.05-.032 0-.054-.02-.065-.05 0-.575-.48-2.745-1.602-2.745-1.123 0-1.613 2.18-1.613 2.755 0 .03-.033.05-.065.05-.033 0-.055-.02-.055-.05-.033-.308.098-1.556.676-2.448-.098-.337-.916-3.4-1.766-3.37-.893.03-1.536 2.577-.021 5.104.043.08.054.11.043.129-.022.02-.087.03-.163-.08-.523-.762-1.188-2.16-1.417-3.567a22.465 22.465 0 00-.305-1.427c-.087-.347-.295-.298-.24.773.022.475.109 1.496.894 2.953 0 0 .01.02 0 .02-.011 0-.022-.02-.022-.02s-.185-.218-.382-.545c-.25-.436-.436-.793-.534-.763-.185.129.251 1.605 1.33 2.388l.044.04c0 .02-.044-.01-.044-.01-.425-.238-.98-.763-1.079-.575-.054.228.817 1.16 2.212 1.616 0 0 .098.03.098.05 0 .02-.054 0-.054 0-.196-.06-.85-.288-1.024-.268-.186.02-.077.139.098.277.174.139.959.565 2.037.635.011.089.382.396 1.341.396.96 0 1.34-.307 1.34-.396 1.08-.07 1.875-.496 2.038-.635.175-.138.273-.258.098-.277-.174-.02-.828.208-1.024.267 0 0-.054.02-.054 0s.098-.05.098-.05c1.395-.455 2.266-1.387 2.201-1.605-.098-.188-.654.337-1.079.575 0 0-.043.02-.043.01s.054-.05.054-.05z" fill="#fff"/></svg>