<!-- by TradingView --><svg width="18" height="18" viewBox="0 0 18 18" xmlns="http://www.w3.org/2000/svg"><path fill="#F0F3FA" d="M0 0h18v18H0z"/><path fill-rule="evenodd" d="M14 4v10H4V4h10Zm-1 7.08c-.2.52-.54 1.92-.54 1.92H5s.08-.24.33-.28c.3-.04.83-.12.95-.4l1.91-5.8c.17-.44.2-.68.2-.84.05-.2-.07-.32-.49-.32 0 0-.25 0-.41-.08-.17-.04-.21-.28-.21-.28h3.81s-.08.24-.25.28c-.12.04-.45.04-.45.04-.54.04-.66.12-.83.56l-2.11 6.6h4.18c.17 0 .33-.12.58-.64l.25-.48c.08-.28.54-.28.54-.28Z" fill="#002D56"/></svg>