<!-- by TradingView --><svg width="18" height="18" xmlns="http://www.w3.org/2000/svg"><path fill="#003DA5" d="M0 0h18v18H0z"/><path d="M4.734 10.316V8.079c0-.053.038-.079.112-.079.074 0 .111.026.111.079V10.2h.963c.05 0 .074.033.074.099 0 .067-.025.101-.074.101H4.836a.114.114 0 01-.071-.023.074.074 0 01-.03-.062zM6.947 9.718V8.7c0-.239.066-.415.197-.53A.754.754 0 017.656 8c.214 0 .383.053.508.16a.495.495 0 01.187.39c0 .052-.008.087-.025.104-.017.018-.046.027-.086.027-.07 0-.107-.028-.112-.082a.421.421 0 00-.134-.299.383.383 0 00-.136-.07.67.67 0 00-.203-.029c-.324 0-.486.167-.486.5V9.72c0 .335.167.502.5.502.08.003.16-.01.236-.038a.275.275 0 00.139-.11.558.558 0 00.059-.123.83.83 0 00.025-.133c.007-.057.044-.085.112-.085.04 0 .069.009.086.028.017.018.025.054.025.106a.498.498 0 01-.19.395c-.128.107-.3.16-.516.16a.736.736 0 01-.505-.17c-.13-.114-.194-.292-.193-.534zM9.777 10.316V8.079c0-.053.037-.079.111-.079.075 0 .112.026.112.079v2.237a.073.073 0 01-.034.062.134.134 0 01-.078.023.132.132 0 01-.079-.023.073.073 0 01-.032-.062z" fill="#fff"/><path opacity=".5" d="M9 14a5 5 0 10-3.837-8.206 4.17 4.17 0 110 6.413A4.99 4.99 0 009 14z" fill="#fff"/></svg>