<!-- by TradingView --><svg width="18" height="18" viewBox="0 0 18 18" xmlns="http://www.w3.org/2000/svg"><path fill="#F0F3FA" d="M0 0h18v18H0z"/><path d="M2 12V6h1v5h2v1H2Zm6.86-1.54.58.62c-.56.62-1.16.92-1.9.92S5 11.45 5 9.08 6.56 6 7.7 6c.91 0 1.54.55 1.74.82l-.52.66A2 2 0 0 0 7.7 7c-.63 0-1.67.43-1.67 1.82 0 1.4.65 2.18 1.51 2.18.7 0 1.17-.33 1.32-.54ZM9.5 6l1.38 6h.8l1.08-3.82L13.8 12h.82L16 6h-.78c-.1 0-.19.09-.22.22L14.16 10l-.96-3.8c-.03-.12-.11-.2-.2-.2h-.47c-.1 0-.18.08-.21.2l-.96 3.8-.82-3.78c-.03-.13-.11-.22-.21-.22H9.5Z" fill="#13235A"/></svg>