<!-- by TradingView --><svg xmlns="http://www.w3.org/2000/svg" width="18" height="18" viewBox="0 0 18 18"><path fill="#323F48" d="M0 0h18v18H0z"/><path d="M7.59 8.76c.8-1.4.9-3.28.84-4.1A.6.6 0 0 1 9 4a.6.6 0 0 1 .64.57 9.3 9.3 0 0 1-1 4.8c-1.2 2.12-2.86 3.06-3.72 3.54l-.01.01a.6.6 0 0 1-.82-.24.61.61 0 0 1 .23-.83A7.96 7.96 0 0 0 7.6 8.76z" fill="#FEE800"/><path d="M8.84 11.6c-1.59 0-3.2.84-3.87 1.3a.64.64 0 0 1-.86-.17.62.62 0 0 1 .14-.85 9.01 9.01 0 0 1 4.6-1.5c2.39 0 4 .98 4.85 1.49a.6.6 0 0 1 .22.83.6.6 0 0 1-.82.21 7.82 7.82 0 0 0-4.26-1.32z" fill="#BF569E"/><path d="M9.04 8.5c.11.3.25.6.4.87a9.06 9.06 0 0 0 3.67 3.54v.01c.3.16.66.06.81-.24a.62.62 0 0 0-.22-.83 7.89 7.89 0 0 1-3.23-3.09 7.7 7.7 0 0 1-.83-3.23c-.04.85-.2 1.94-.6 2.98zm.6-3.83v-.02a.6.6 0 0 0-.6-.65c.3 0 .57.25.59.57v.1zm-1.2.2z" fill="#00A7D1"/></svg>