<!-- by TradingView --><svg xmlns="http://www.w3.org/2000/svg" width="18" height="18" viewBox="0 0 18 18"><path fill="#102F53" d="M0 0h18v18H0z"/><path fill-rule="evenodd" d="M7.84 11.89h2.27L9.5 7h-.99l-.68 4.89zm3.08 0c.58.03 1.04.55 1.04 1.17v.36c.6-.17.93-.58 1.04-.81v1.03c-.31.32-.88.91-1.64.86a8.88 8.88 0 0 1-2.2-.94c-.94-.47-1.89-.95-2.31-.95-.67 0-1.51.68-1.85 1.03V12.6l.11-.1c.34-.33.88-.83 1.74-.83l.23.03L7.63 7h-.39V6h.39V4.55H7.4v-.83L8.85 3l1.5.72v.83h-.18V6h.37v1h-.37l.75 4.89zm-2.1-7.32h-.48V6h.48V4.57zm.77 0h-.48V6h.48V4.57zM9.5 7.7H9v1.05h.5V7.7zm-.99 2.62H9v1.04h-.5v-1.04zM10.7 13c.28 0 .5.22.54.5a4.6 4.6 0 0 1-1.47-.5h.93z" fill="#fff"/></svg>