<!-- by TradingView --><svg xmlns="http://www.w3.org/2000/svg" width="18" height="18" viewBox="0 0 18 18"><path fill="#23A9FE" d="M0 0h18v18H0z"/><path d="M7.94 9.74a.58.58 0 0 1-.55-.38c.26-.05.76-.23.76-.61 0-.39-.14-.53-.21-.56-.72-.44-1.06.26-1.15.67-.05.46.1 1.39 1.15 1.39 1.31 0 3.28-2.09 3.28-3.94 0-1.48-1.04-1.82-1.57-1.81-2.9 0-4.8 2.92-4.8 4.68 0 1.77 1.26 2.53 2.33 2.53.85 0 1.74-.49 2.08-.73a2.65 2.65 0 0 1-1.32 1.22c-.83-.3-4.44-1.17-4.44.2 0 1.11 2.62.81 3.93.53l.37.18c1.16.5 2.52.58 3.6-.11a2 2 0 0 1-.79-.07c-.47-.17-1.7-.52-1.78-.52a5.7 5.7 0 0 0 2.83-3.39c.63-.58 2.02-1.98 2.56-2.88.54-.9.18-1.16-.06-1.18-1.02.05-1.85 1.3-2.86 2.84l-.82 1.22c-1.14 1.64-2.54 2.14-3.09 2.2-.57.07-1.72-.13-1.72-1.48s.75-2.6 1.12-3.05C7.22 6.13 8.35 5 9.43 5c1.33 0 1.33 1.06 1.33 1.3v.05c0 .23 0 .86-.87 1.94-.93 1.14-1.53 1.45-1.95 1.45zm4.26-2c.21-.57.85-1.83 1.7-2.24.84-.4-.78 1.33-1.7 2.25zm-8.22 4.6c.72-.35 1.72.05 2.13.3-.2 0-.76 0-1.44-.04-.68-.03-.74-.18-.69-.25z" fill="#F8FEFF"/></svg>