<!-- by TradingView --><svg xmlns="http://www.w3.org/2000/svg" width="18" height="18"><path fill="#F0F3FA" d="M0 0h18v18H0z"/><path d="M9.5 3.15c.19.2.19.5 0 .7l-.39.37c-.3.28-.63.6-.92.94-.44.51-.69.96-.69 1.33 0 .76.39 1.13.86 1.59l.18.17-.7.71-.16-.15C7.2 8.37 6.5 7.71 6.5 6.5c0-.76.47-1.45.93-1.98a15.02 15.02 0 011.35-1.36c.2-.2.52-.2.71 0z" fill="#3D68AD"/><path d="M12.35 6.1c.2.2.2.52 0 .72l-4.37 4.46c-.3.32-.48.68-.48 1.2 0 .66.5 1.52 1.52 1.52.55 0 .93-.24 1.18-.54.27-.33.38-.72.38-.97 0-.47-.33-1.21-1.02-1.79l.64-.77a3.59 3.59 0 011.38 2.56c0 .49-.2 1.1-.6 1.6-.42.51-1.08.91-1.96.91-1.73 0-2.52-1.49-2.52-2.51 0-.82.3-1.42.75-1.9l.01-.01 4.38-4.46c.2-.2.51-.2.71-.01z" fill="#F04973"/></svg>