<!-- by TradingView --><svg width="18" height="18" viewBox="0 0 18 18" xmlns="http://www.w3.org/2000/svg"><path fill="#F0F3FA" d="M0 0h18v18H0z"/><path d="M7.84 5.07c-1.96.24-3.78 1.28-4.49 2.58-.54 1-.45 2.14.25 3.13.74 1.04 2.29 1.88 3.95 2.15C10 13.33 10 11.87 10 9.86V7.01h-.8V10.4c.05 1.6.07 2.54-1.98 1.98-2.74-.73-4.02-2.95-2.81-4.87.71-1.14 2.35-1.97 4.11-2.09 2.33-.16 4.5.86 5.26 2.48.22.47.24.57.24 1.06 0 .69-.1 1-.43 1.54a4.82 4.82 0 0 1-2.56 1.82c-.23.06-.46.18-.5.24l-.23.27-.14.14.29-.05c.68-.1 1.56-.4 2.23-.75 1.6-.83 2.53-2.26 2.28-3.55-.46-2.42-3.6-3.99-7.12-3.56Zm2.7 3.5c0 1.76.04 1.94.47 2.24.33.23 1 .26 1.34.05.43-.25.63-.46.65-2.2V7h-.55v1.5c0 1.72-.21 1.83-.66 1.83h-.02c-.14 0-.23 0-.32-.14-.1-.15-.1-.26-.09-.94V7h-.81v1.58ZM5 10.73s.02-.34 0-1.88V7h.73v3.34h1.09V11H5.68c-.7-.02-.68-.28-.68-.28Zm2.1 0-.1-.15V7h2v.67H8v1h.73v.24c0 .32-.3.3-.55.29H8v1.13h1V11h-.8c-.67 0-.95-.14-1.1-.28Z" fill="#C7202B"/></svg>