<!-- by TradingView --><svg xmlns="http://www.w3.org/2000/svg" width="18" height="18"><path fill="#00539F" d="M0 0h18v18H0z"/><path d="M4.38 12.7c1.66 1.86 5.06 1.7 7.61-.34a7.29 7.29 0 001.7-1.94 1.96 1.96 0 01-.95-.56c-.52.4-1.78.96-2.66 0-.48.39-1.68.93-2.66 0-.52.4-1.77.97-2.65 0-.2.15-.7.45-1.27.55.03.86.31 1.65.88 2.3z" fill="#00AEE7"/><path d="M3.97 8.21a7.06 7.06 0 012.04-2.57c2.54-2.04 5.95-2.2 7.6-.34.7.78.98 1.8.87 2.87-.57 0-.93-.45-1.05-.68-1.47 1.24-2.39.51-2.66 0-1.4 1.16-2.5.62-2.87.2-1.42.99-2.23.27-2.46-.2-.42.43-1.1.65-1.47.72z" fill="url(#aaa5zwwrv)"/><path d="M9.94 6H7.66c.3.24.31.56.3.7-.14 1.25-.42 3.9-.49 4.43-.06.54-.34.8-.47.87h3.56l.44-1.25c-.8.56-1.68.37-2.02.2.15-1.34.47-4.09.53-4.36.06-.27.31-.5.43-.59z" fill="#fff"/><defs><linearGradient id="aaa5zwwrv" x1="10.06" y1="4" x2="9.29" y2="8.22" gradientUnits="userSpaceOnUse"><stop stop-color="#F05E77"/><stop offset="1" stop-color="#FECA06"/></linearGradient></defs></svg>