<!-- by TradingView --><svg xmlns="http://www.w3.org/2000/svg" width="18" height="18" viewBox="0 0 18 18"><path fill="#F0F3FA" d="M0 0h18v18H0z"/><path d="M10.25 11.33c.09.31.5.94 1.45.9-.1-.34-.54-.99-1.45-.9Z" fill="url(#aoxmaha2j)"/><path d="M9.7 12.24c.1.38-.15 1.9-1.57 2.26a2.1 2.1 0 0 1 1.57-2.26Z" fill="url(#boxmaha2j)"/><path d="M7.14 5.09c-1.03 1.4-.42 4.23 1.11 5.27 1.3-1.8.25-4.55-1.1-5.27Z" fill="url(#coxmaha2j)"/><path d="M4.5 9.17c2.46-.36 3.68 1.86 3.75 2.4-1.29.09-3.16-.6-3.75-2.4Z" fill="url(#doxmaha2j)"/><path d="M12.93 4C8.8 5.34 9.2 9.38 9.2 9.38a4.89 4.89 0 0 0 2.9-2.02A4.47 4.47 0 0 0 12.94 4Z" fill="url(#eoxmaha2j)"/><path d="M5.41 12.88c1.04-1.4 3-1.04 3.48-.67a2.8 2.8 0 0 1-3.48.67Z" fill="url(#foxmaha2j)"/><path d="M10.2 11.86c-.56 1 .12 1.93.44 2.07.3-.43.32-1.46-.44-2.07Z" fill="url(#goxmaha2j)"/><path d="M10.07 11c.16-.23.67-.6 1.4-.26-.18.23-.71.6-1.4.26Z" fill="url(#hoxmaha2j)"/><defs><linearGradient id="aoxmaha2j" x1="10.38" y1="11.31" x2="11.69" y2="12.06" gradientUnits="userSpaceOnUse"><stop stop-color="#AA9BC8"/><stop offset="1" stop-color="#7496D8"/></linearGradient><linearGradient id="boxmaha2j" x1="9.57" y1="12.5" x2="8.4" y2="14.31" gradientUnits="userSpaceOnUse"><stop stop-color="#D380BE"/><stop offset="1" stop-color="#7C3C8B"/></linearGradient><linearGradient id="coxmaha2j" x1="7.74" y1="5.09" x2="7.74" y2="10.36" gradientUnits="userSpaceOnUse"><stop stop-color="#EBD861"/><stop offset="1" stop-color="#EE844A"/></linearGradient><linearGradient id="doxmaha2j" x1="4.93" y1="9.14" x2="8.17" y2="11.47" gradientUnits="userSpaceOnUse"><stop stop-color="#D13E5E"/><stop offset="1" stop-color="#EC8C6E"/></linearGradient><linearGradient id="eoxmaha2j" x1="12.3" y1="7.43" x2="9.41" y2="7.41" gradientUnits="userSpaceOnUse"><stop stop-color="#1FAF67"/><stop offset="1" stop-color="#E6D76F"/></linearGradient><linearGradient id="foxmaha2j" x1="8.71" y1="12.24" x2="5.63" y2="12.87" gradientUnits="userSpaceOnUse"><stop stop-color="#E086A5"/><stop offset="1" stop-color="#C93E6A"/></linearGradient><linearGradient id="goxmaha2j" x1="10.41" y1="11.86" x2="10.41" y2="13.93" gradientUnits="userSpaceOnUse"><stop stop-color="#A581CA"/><stop offset="1" stop-color="#604FA9"/></linearGradient><linearGradient id="hoxmaha2j" x1="11.46" y1="10.59" x2="10.29" y2="10.88" gradientUnits="userSpaceOnUse"><stop stop-color="#A5B8C3"/><stop offset="1" stop-color="#B8B1BF"/></linearGradient></defs></svg>