<!-- by TradingView --><svg width="18" height="18" viewBox="0 0 18 18" xmlns="http://www.w3.org/2000/svg"><path fill="url(#ahttgbbb0)" d="M0 0h18v18H0z"/><path fill-rule="evenodd" d="M14 9A5 5 0 1 0 4 9a5 5 0 0 0 10 0ZM8.69 5.62V5h.62v.63H8.7Zm0 1V6h.62v.63H8.7Zm.62 1V7H8.7v.63h.62Zm-.62 1V8h.62v.63H8.7Zm.62 1V9H8.7v.63h.62Zm-.62 1V10h.62v.63H8.7Zm.62 1V11H8.7v.63h.62Zm-.62 1V12h.62v.63H8.7ZM5.63 8.7a.31.31 0 1 0-.63 0 .31.31 0 0 0 .63 0Zm7.06-.31a.31.31 0 1 0 0 .62.31.31 0 0 0 0-.63ZM6.8 8.3a.31.31 0 1 0-.62 0 .31.31 0 0 0 .62 0ZM11.7 8a.31.31 0 1 0 0 .62.31.31 0 0 0 0-.62ZM7.8 9.31a.31.31 0 1 0-.62 0 .31.31 0 0 0 .62 0ZM10.7 9a.31.31 0 1 0 0 .62.31.31 0 0 0 0-.62ZM7.8 8.31a.31.31 0 1 0-.62 0 .31.31 0 0 0 .62 0ZM10.7 8a.31.31 0 1 0 0 .62.31.31 0 0 0 0-.62ZM6.8 9.31a.31.31 0 1 0-.62 0 .31.31 0 0 0 .62 0ZM11.7 9a.31.31 0 1 0 0 .62.31.31 0 0 0 0-.62ZM7.8 10.31a.31.31 0 1 0-.62 0 .31.31 0 0 0 .62 0ZM10.7 10a.31.31 0 1 0 0 .62.31.31 0 0 0 0-.62ZM7.8 7.31a.31.31 0 1 0-.62 0 .31.31 0 0 0 .62 0ZM10.7 7a.31.31 0 1 0 0 .62.31.31 0 0 0 0-.62Z" fill="#064566"/><defs><linearGradient id="ahttgbbb0" x1="18" y1="9" x2="0" y2="9" gradientUnits="userSpaceOnUse"><stop offset=".37" stop-color="#8697AB"/><stop offset=".6" stop-color="#86C6B6"/></linearGradient></defs></svg>