<!-- by TradingView --><svg width="18" height="18" viewBox="0 0 18 18" xmlns="http://www.w3.org/2000/svg"><path fill="#F0F3FA" d="M0 0h18v18H0z"/><path d="M9.09 12.24a.15.15 0 0 1-.17 0l-2.86-1.92h-.04l-.01.01v.02L6 12.27c0 .05.02.12.09.12h2c.28 0 .61.1.87.3a.1.1 0 0 0 .1-.01c.31-.2.75-.3 1.32-.3h1.64v.97H10.3c-.6 0-.95.14-1.3.63a.05.05 0 0 1-.03.02h-.02l-.02-.02c-.37-.5-.73-.63-1.37-.62H5V9.69l-.02-.05a.1.1 0 0 0-.03-.04L3.02 8.18 3 8.17a.04.04 0 0 1 0-.04l.02-.01 5.94-4.1a.1.1 0 0 1 .1 0l5.92 4.1.02.01a.04.04 0 0 1-.02.06l-5.9 4.05Z" fill="#1F3D71"/><path d="M13 9.84v3.91l-.02.04-.03.03a.07.07 0 0 1-.08 0c-.2-.16-.55-.16-.74 0a.07.07 0 0 1-.08.01.08.08 0 0 1-.03-.03.09.09 0 0 1-.01-.04v-3.3s-2.84-1.8-3.26-2.1a.31.31 0 0 1-.1-.11.34.34 0 0 1 .11-.43l.04-.02a.73.73 0 0 1 .82 0L13 9.84Z" fill="#9F8704"/></svg>