<!-- by TradingView --><svg width="18" height="18" viewBox="0 0 18 18" xmlns="http://www.w3.org/2000/svg"><path fill="#ECB143" d="M0 0h18v18H0z"/><path fill-rule="evenodd" d="M7.5 7.5a1.5 1.5 0 0 1 3 0v3a1.5 1.5 0 0 1-3 0v-3Zm1 0a.5.5 0 0 1 1 0v3a.5.5 0 1 1-1 0v-3Zm3 .01c0-.83.78-1.51 1.75-1.51S15 6.68 15 7.51v3.99a.5.5 0 1 1-1 0V7.66c0-.35-.28-.67-.75-.66-.47.01-.75.3-.75.66v3.84a.5.5 0 1 1-1 0V7.5ZM4.75 12C3.78 12 3 11.3 3 10.45V6.5a.5.5 0 1 1 1 0v3.8c0 .37.25.7.75.7s.75-.33.75-.7V8.5a.5.5 0 0 1 1 0v1.95c0 .85-.78 1.55-1.75 1.55ZM6 7a.5.5 0 1 0 0-1 .5.5 0 0 0 0 1Z" fill="#fff"/></svg>