<!-- by TradingView --><svg width="18" height="18" xmlns="http://www.w3.org/2000/svg"><path fill="#064157" d="M0 0h18v18H0z"/><path d="M7.187 6.002h4.287c0 .348.099.939.148 1.119-.206-.09-.527-.117-.662-.12-.637 0-2.007-.003-2.397 0-.39.004-.567.321-.563.465.006.747.013 1.822 0 2.114-.013.292.337.401.47.42h.985c.316-.018.558-.287.545-.421v-.58h-.003a16.611 16.611 0 00-.542 0c-.152.004-.355.081-.455.118V7.999h2.197c-.173.207-.198.642-.197.788-.003 1.007-.007 3.12 0 3.526.007.406.12.627.197.687H9.874c.14-.184.108-.872.126-1.193v-1.223c-.193.346-.47.423-.65.416-.293.002-1.13.004-2.128 0-.999-.004-1.225-.67-1.213-1-.007-.734-.016-2.234 0-3.044.015-.81.791-.973 1.178-.954z" fill="#DBBD5B"/><path d="M3 6.839V6h2.3c-.24.134-.295.622-.3.839V12c.562-.002 2.03-.004 2.892 0 .862.005 1.61-.415 1.876-.5A8.731 8.731 0 019.52 13H3V6.839zM12 6.72V6h2v.72s-.015 5.278 0 5.585V13h-2V6.719z" fill="#DBBD5B"/></svg>