<!-- by TradingView --><svg xmlns="http://www.w3.org/2000/svg" width="18" height="18" viewBox="0 0 18 18"><path fill="#F0F3FA" d="M0 0h18v18H0z"/><path d="M9.01 5a4 4 0 1 0 2.75 6.91l1.37 1.46a6 6 0 1 1 .47-8.25l-1.53 1.3A4 4 0 0 0 9.01 5z" fill="#586492"/><path d="M10.03 8.85c.65.26.97.7.97 1.31 0 .54-.18.98-.55 1.31-.4.35-.92.53-1.6.53a5.54 5.54 0 0 1-1.59-.23L7 11.7v-1.46h.44c.1 0 .16.04.18.14l.04.4.03.35c.46.15.83.23 1.1.23.25 0 .47-.03.65-.08a.96.96 0 0 0 .41-.22.95.95 0 0 0 .34-.77c0-.32-.16-.56-.48-.72-.14-.08-.3-.15-.48-.2-.64-.17-1.02-.29-1.13-.34a1.97 1.97 0 0 1-.5-.29 1.32 1.32 0 0 1-.47-1.09c0-.43.17-.8.51-1.1C8.01 6.2 8.5 6 9.08 6c.62 0 1.22.16 1.8.37v1.35h-.43c-.11 0-.17-.05-.2-.14l-.01-.16-.05-.57c-.41-.1-.76-.15-1.05-.15-.39 0-.69.09-.9.26a.8.8 0 0 0-.3.65c0 .29.16.51.48.67.13.08.3.15.5.2l1.13.37h-.02z" fill="#888388"/></svg>