<!-- by TradingView --><svg width="18" height="18" viewBox="0 0 18 18" xmlns="http://www.w3.org/2000/svg"><path fill="#F0F3FA" d="M0 0h18v18H0z"/><path d="M14 9c0 1.38-.49 2.56-1.46 3.54A4.82 4.82 0 0 1 9 14a4.82 4.82 0 0 1-3.54-1.46A4.82 4.82 0 0 1 4 9c0-1.38.49-2.56 1.46-3.54A4.82 4.82 0 0 1 9 4c1.38 0 2.56.49 3.54 1.46A4.82 4.82 0 0 1 14 9ZM6.24 5.69a3.1 3.1 0 0 0-1.3 2.43 4.54 4.54 0 0 0 .89 3.03 4.54 4.54 0 0 0 2.56 1.86c1.03.28 1.94.15 2.72-.4a3.1 3.1 0 0 0 1.3-2.44 4.54 4.54 0 0 0-.89-3.03 4.54 4.54 0 0 0-2.55-1.86 3.09 3.09 0 0 0-2.73.41Z" fill="#10327A"/><path d="M11.42 9.14c0 .77-.27 1.42-.81 1.95-.54.54-1.19.81-1.95.81s-1.41-.27-1.95-.8a2.66 2.66 0 0 1-.81-1.96c0-.76.27-1.4.8-1.95.55-.54 1.2-.8 1.96-.8s1.41.26 1.95.8.8 1.2.8 1.95ZM10.14 7c-.46-.36-1-.48-1.64-.34-.64.13-1.18.47-1.62 1.02a2.74 2.74 0 0 0-.64 1.8c0 .66.24 1.17.7 1.53.46.37 1 .48 1.64.35a2.75 2.75 0 0 0 1.62-1.03c.44-.55.66-1.15.64-1.8a1.89 1.89 0 0 0-.7-1.53Z" fill="#10327A"/></svg>