<!-- by TradingView --><svg xmlns="http://www.w3.org/2000/svg" width="18" height="18" viewBox="0 0 18 18"><path fill="#F0F3FA" d="M0 0h18v18H0z"/><path d="M9.04 4c1.22 1.16 2.86 3.92 3.53 5.16-.53-.63-1.92-1.82-3.3-1.82-1.4 0-2.49.9-2.86 1.39C6.79 9.1 7.85 10 9.04 10s1.8-.69 1.95-.97c-2.36.85-3.22.02-3.6-.37C7.81 8.12 8.65 8 9.25 8c2.62 0 4.33 3.43 4.74 5-.77-.7-2.84-2-4.96-2S4.8 12.3 4 13a22.17 22.17 0 0 1 5.04-9z" fill="url(#arordwpj5)"/><defs><linearGradient id="arordwpj5" x1="9" y1="4" x2="9" y2="13" gradientUnits="userSpaceOnUse"><stop stop-color="#008AB5"/><stop offset=".89" stop-color="#09588E"/></linearGradient></defs></svg>