<!-- by TradingView --><svg width="18" height="18" viewBox="0 0 18 18" xmlns="http://www.w3.org/2000/svg"><path fill="#8154F5" d="M0 0h18v18H0z"/><path d="M8.97 8.06c-.69 0-.6 1.12-.6 1.56 0 .42.06 1.25.63 1.38.56.04.63-1.06.63-1.53s.06-1.4-.66-1.4ZM9 6.62c-1.82 0-2.37 1.44-2.37 3 .05 1.17.3 2.3 1.2 3.04.4-.14.62-.56.86-.89-.85-.63-.95-1.3-.94-2.3 0-1 .27-2.03 1.25-2.03.93 0 1.26 1.02 1.25 1.77-.01.83-.3 1.39-.61 2.15 1.22.37 1.73-1.44 1.73-2.27-.01-1.4-.94-2.45-2.37-2.46Zm-.42 6.51c.38.2.75.24 1.17.24 2.1 0 3.54-2.07 3.63-4.02 0-2.51-1.66-4.67-4.28-4.72H9a4.37 4.37 0 0 0-4.38 4.34c-.03 1.4.67 3.74 2.44 3.8C6.24 11.94 6 10.72 6 9.63 6 7.58 6.82 6 9 6c1.75 0 3 1.36 3 3.09 0 1.45-.76 2.91-2.37 2.91-.1 0-.2 0-.29-.02-.23.34-.44.88-.76 1.15Zm1.17.87c-.72 0-1.42-.3-2.03-.67a2.7 2.7 0 0 1-.48.04C5 13.38 3.96 10.84 4 8.96A5 5 0 0 1 9.11 4a5.07 5.07 0 0 1 4.88 5.39c-.1 2.3-1.8 4.6-4.24 4.61Z" fill="#fff"/></svg>