<!-- by TradingView --><svg width="18" height="18" fill="none" xmlns="http://www.w3.org/2000/svg"><path fill="#F0F3FA" d="M0 0h18v18H0z"/><path fill-rule="evenodd" clip-rule="evenodd" d="M10.507 12.834c-1.083.995-2.476 1.423-3.768 1.009-2.135-.684-3.189-3.407-2.353-6.081.835-2.675 3.243-4.289 5.378-3.605.737.236 1.344.715 1.79 1.35l.171-.65a.5.5 0 01.484-.373h.891a.5.5 0 01.495.569l-1.17 8.414a.5.5 0 01-.495.431h-.69a.5.5 0 01-.47-.331l-.263-.733zM10.28 9.57c-.406 1.3-1.5 2.108-2.444 1.806-.944-.302-1.38-1.6-.974-2.9.406-1.3 1.5-2.108 2.444-1.806.944.302 1.38 1.6.974 2.9z" fill="url(#paint0_linear)"/><defs><linearGradient id="paint0_linear" x1="4.356" y1="9" x2="17.879" y2="9" gradientUnits="userSpaceOnUse"><stop stop-color="#D2A46C"/><stop offset="1" stop-color="#193819"/></linearGradient></defs></svg>