<!-- by TradingView --><svg width="18" height="18" xmlns="http://www.w3.org/2000/svg"><path fill="#005590" d="M0 0h18v18H0z"/><path d="M5.74 10.673c-.64-.179-1.234-.303-1.785-.303-.581 0-1.041.262-1.041.669 0 .382.342.61.953.61.626 0 1.263-.41 1.873-.976zM3.86 12C2.718 12 2 11.642 2 11.118 2 10.37 3.132 9.98 4.464 9.98c.551 0 1.152.073 1.785.183.248-.265.493-.548.728-.824.47-.551 1.161-1.344 1.74-1.812C9.812 6.64 11.212 6 12.69 6 14.528 6 16 6.655 16 7.634c0 .561-.522 1.047-1.456 1.085l-.029-.18c.196-.096.437-.268.437-.799 0-.696-.74-1.388-2.101-1.388-1.309 0-2.056.647-2.898 1.571-.44.483-.914 1.082-1.345 1.55a9.406 9.406 0 01-1.028.955c1.475.314 3.035.68 4.478.68 1.485 0 2.16-.407 2.506-.745l.095.145C14.287 11.314 13.16 12 11.722 12c-1.844 0-3.489-.548-4.931-1.006C5.782 11.63 4.738 12 3.86 12z" fill="#fff"/></svg>