<!-- by TradingView --><svg width="18" height="18" viewBox="0 0 18 18" xmlns="http://www.w3.org/2000/svg"><path fill="#F0F3FA" d="M0 0h18v18H0z"/><path d="M9.2 15a.5.5 0 0 1-.37-.15.52.52 0 0 1-.15-.38c0-.15.06-.28.16-.38a.52.52 0 0 1 .74 0 .54.54 0 0 1-.01.76c-.1.1-.23.15-.37.15ZM15 8.65c0 .14-.06.28-.16.38-.1.1-.23.15-.37.15a.53.53 0 0 1-.36-.16.55.55 0 0 1-.15-.38c0-.14.06-.28.16-.37.1-.1.23-.16.37-.16.13 0 .27.06.36.16.1.1.15.24.15.38ZM13.34 11.5a.54.54 0 0 1 .15-.38.52.52 0 0 1 .36-.16.51.51 0 0 1 .38.15.53.53 0 0 1 .15.37.54.54 0 0 1-.3.5.51.51 0 0 1-.7-.28.54.54 0 0 1-.04-.2Z" fill="#315B82"/><path d="M4.7 11.76c0 .31-.28.53-.53.52a.53.53 0 0 1-.37-.16.55.55 0 0 1-.15-.37c0-.14.06-.28.16-.38.1-.1.23-.15.37-.15.31 0 .53.28.51.54Z" fill="#51AF47"/><path d="M12.12 3.95a.52.52 0 0 1-.9.37.54.54 0 0 1 .18-.87.51.51 0 0 1 .57.12.53.53 0 0 1 .15.38Z" fill="#315B82"/><path d="M6.4 4.72c-.25.03-.53-.2-.53-.52a.54.54 0 0 1 .15-.38.52.52 0 0 1 .57-.12.52.52 0 0 1 .29.29c.03.06.04.13.04.2 0 .26-.22.55-.52.53Z" fill="#51AF47"/><path d="M14.15 5.9a.53.53 0 0 1-.52.54.53.53 0 0 1-.37-.17.55.55 0 0 1-.15-.38.52.52 0 0 1 .52-.53c.28 0 .54.25.52.53Z" fill="#315B82"/><path d="M3.52 9.47c-.3.02-.53-.26-.52-.53 0-.14.06-.28.15-.38.1-.1.24-.15.37-.15.33 0 .53.3.53.53 0 .24-.2.55-.53.53ZM4.33 6.71a.52.52 0 0 1-.37-.16.54.54 0 0 1 0-.75.52.52 0 0 1 .74 0 .54.54 0 0 1 0 .75c-.1.1-.23.16-.37.16ZM8.64 3.53A.51.51 0 0 1 9.15 3a.5.5 0 0 1 .38.16.53.53 0 0 1 .15.38c0 .13-.06.27-.16.37a.52.52 0 0 1-.88-.38Z" fill="#51AF47"/><path d="M11.9 14.1a.52.52 0 0 1-.37-.15.54.54 0 0 1 0-.75c.1-.1.23-.15.36-.16a.55.55 0 0 1 .53.53.52.52 0 0 1-.53.53Z" fill="#315B82"/><path d="M6.12 14.38a.51.51 0 0 1-.37-.15.53.53 0 0 1-.11-.58.53.53 0 0 1 .28-.3.51.51 0 0 1 .2-.03c.14 0 .27.06.37.16.1.1.15.24.16.38 0 .25-.26.54-.53.52Z" fill="#51AF47"/><path d="M8.12 14.18c-.22.02-.45-.18-.45-.46a.47.47 0 0 1 .13-.33.45.45 0 0 1 .32-.13.44.44 0 0 1 .32.14.46.46 0 0 1 .13.33.46.46 0 0 1-.13.32.44.44 0 0 1-.32.13ZM14.26 9.8a.46.46 0 0 1-.14.32.44.44 0 0 1-.32.13.46.46 0 0 1-.32-.15.48.48 0 0 1-.12-.32c0-.12.05-.24.14-.32a.45.45 0 0 1 .5-.09.44.44 0 0 1 .23.26c.02.05.03.11.03.17Z" fill="#315B82"/><path d="M5.57 6.23a.45.45 0 0 1-.31-.14.46.46 0 0 1 0-.65c.09-.08.2-.13.32-.13.24 0 .46.21.45.46 0 .25-.2.47-.46.46Z" fill="#51AF47"/><path d="M10.59 14a.44.44 0 0 1-.32-.12.45.45 0 0 1-.13-.33.47.47 0 0 1 .13-.32.45.45 0 0 1 .64 0 .46.46 0 0 1 .13.33.46.46 0 0 1-.13.32.44.44 0 0 1-.32.13Z" fill="#315B82"/><path d="M10.57 4.43c.01.25-.2.45-.45.45a.46.46 0 0 1-.31-.13.48.48 0 0 1-.14-.32c0-.12.05-.24.13-.32.08-.09.2-.14.31-.14a.44.44 0 0 1 .33.13.45.45 0 0 1 .13.33ZM6.17 12.59a.47.47 0 0 1-.28.42.44.44 0 0 1-.5-.1.46.46 0 0 1 .34-.79c.12 0 .23.06.31.14.08.09.13.2.13.33ZM4.4 7.5a.43.43 0 0 1 .32.13.45.45 0 0 1 .13.32c0 .12-.05.24-.13.33a.46.46 0 0 1-.32.14.46.46 0 0 1-.31-.14.48.48 0 0 1-.14-.32.46.46 0 0 1 .13-.33.44.44 0 0 1 .32-.13Z" fill="#51AF47"/><path d="M12.67 5.12a.46.46 0 0 1-.28.43.44.44 0 0 1-.17.03.44.44 0 0 1-.32-.14.46.46 0 0 1-.1-.5.46.46 0 0 1 .25-.24.45.45 0 0 1 .62.43ZM12.7 11.66c.25 0 .44.17.46.46.01.23-.22.47-.45.46a.46.46 0 0 1-.32-.14.48.48 0 0 1-.14-.32c0-.24.22-.47.46-.46Z" fill="#315B82"/><path d="M7.22 4.48a.47.47 0 0 1 .13-.33.45.45 0 0 1 .5-.1.45.45 0 0 1 .24.24.47.47 0 0 1-.1.5.45.45 0 0 1-.63.01.46.46 0 0 1-.14-.32ZM4 10.44c-.01-.26.22-.45.45-.45a.45.45 0 0 1 .43.28.47.47 0 0 1-.1.5.45.45 0 0 1-.77-.33Z" fill="#51AF47"/><path d="M13.61 7.68c-.2.02-.45-.16-.45-.45 0-.13.05-.24.13-.33.08-.09.2-.14.32-.14.24 0 .44.21.44.46.01.25-.2.48-.44.46ZM9.19 13.1a.38.38 0 0 1 .1-.28.37.37 0 0 1 .26-.12c.1 0 .2.04.27.1a.4.4 0 0 1 .13.28c0 .1-.04.2-.11.27a.4.4 0 0 1-.26.12.38.38 0 0 1-.27-.1.39.39 0 0 1-.12-.28Z" fill="#315B82"/><path d="M8.48 4.77c.27-.03.46.09.49.31a.4.4 0 0 1-.1.31.4.4 0 0 1-.28.14c-.24-.06-.36-.16-.38-.35-.01-.2.1-.33.27-.41Z" fill="#51AF47"/><path d="M13.15 7.89c.1 0 .2.04.26.11.07.08.11.17.11.27s-.04.2-.12.28a.39.39 0 0 1-.27.1c-.1 0-.2-.04-.26-.12a.4.4 0 0 1 .01-.54.37.37 0 0 1 .27-.1Z" fill="#315B82"/><path d="M5.49 9.51c-.07.27-.22.41-.42.39a.38.38 0 0 1-.24-.12.4.4 0 0 1 .23-.65c.2-.03.36.1.43.38ZM5.83 11.05c.1 0 .2.05.26.12a.4.4 0 0 1 0 .54.38.38 0 0 1-.62-.12.4.4 0 0 1 .08-.42.38.38 0 0 1 .28-.12ZM6.7 5.49c.1 0 .2.05.27.12.07.07.1.17.11.27a.4.4 0 0 1-.11.27.38.38 0 0 1-.42.08.38.38 0 0 1-.2-.22.4.4 0 0 1-.03-.15c0-.1.05-.2.12-.26a.4.4 0 0 1 .27-.11Z" fill="#51AF47"/><path d="M7.5 12.38c.1 0 .2.04.27.1.07.08.12.17.12.27s-.04.2-.11.28a.38.38 0 0 1-.54 0 .39.39 0 0 1-.08-.41.38.38 0 0 1 .2-.21l.14-.03ZM12.7 6.28a.39.39 0 0 1-.25.35.37.37 0 0 1-.41-.1.39.39 0 0 1 .3-.64.37.37 0 0 1 .26.12.38.38 0 0 1 .1.27ZM12.51 10.48c.03-.3.24-.42.43-.4.1.01.17.06.24.13a.39.39 0 0 1-.22.63c-.23.03-.38-.09-.45-.36Z" fill="#315B82"/><path d="M5.41 7.1c.1-.01.2.03.27.1a.39.39 0 0 1 .02.54.38.38 0 0 1-.26.12c-.2.02-.4-.17-.4-.38 0-.1.04-.2.1-.27a.38.38 0 0 1 .27-.12ZM10.58 5.07a.4.4 0 0 1 .29.14.4.4 0 0 1 .1.3.4.4 0 0 1-.13.24.39.39 0 0 1-.25.1.39.39 0 0 1-.25-.1.4.4 0 0 1-.13-.25c-.02-.2.12-.36.37-.43Z" fill="#51AF47"/><path d="M11.96 12.22a.37.37 0 0 1-.23.35.36.36 0 0 1-.14.03.36.36 0 0 1-.35-.24.38.38 0 0 1 .2-.5.37.37 0 0 1 .49.21l.03.15ZM12.29 7.27a.31.31 0 0 1-.19.29.3.3 0 0 1-.33-.07.3.3 0 0 1-.06-.34.3.3 0 0 1 .28-.19.3.3 0 0 1 .21.1c.06.05.09.13.09.21Z" fill="#315B82"/><path d="M7.3 6.38c.07-.22.2-.33.36-.3a.3.3 0 0 1 .19.1c.04.06.07.13.07.2 0 .08-.03.16-.08.21a.33.33 0 0 1-.2.11c-.15.02-.28-.1-.34-.32Z" fill="#51AF47"/><path d="M7.34 11.4a.3.3 0 0 1 .22.09.32.32 0 0 1 0 .44.3.3 0 0 1-.22.1c-.16 0-.31-.16-.3-.33 0-.08.03-.16.09-.21a.31.31 0 0 1 .21-.1Z" fill="#315B82"/><path d="M8.82 6.04c.01-.08.04-.15.1-.21.06-.06.13-.1.21-.1.21.06.33.18.31.34a.34.34 0 0 1-.1.2.33.33 0 0 1-.18.1c-.16 0-.28-.1-.34-.33Z" fill="#51AF47"/><path d="M11.56 10.69c.07-.23.2-.34.35-.3.07 0 .14.04.19.1.05.05.08.12.08.2 0 .07-.03.15-.08.2a.33.33 0 0 1-.2.11c-.15.02-.28-.1-.34-.31ZM12.37 9.3a.3.3 0 0 1-.22-.1.31.31 0 0 1-.09-.22c0-.08.04-.16.1-.21a.31.31 0 0 1 .2-.1c.1 0 .17.04.23.1.05.06.09.14.09.22 0 .08-.04.16-.1.22a.3.3 0 0 1-.2.08ZM10.3 11.87a.3.3 0 0 1 .18-.28.28.28 0 0 1 .11-.02.3.3 0 0 1 .22.09.3.3 0 0 1 .09.22.31.31 0 0 1-.2.28.3.3 0 0 1-.12.02.28.28 0 0 1-.2-.1.3.3 0 0 1-.08-.21ZM9.17 12.3c-.06.23-.18.33-.35.3a.32.32 0 0 1-.19-.1.33.33 0 0 1-.08-.2c0-.08.04-.15.09-.21.05-.06.12-.1.2-.1.15-.02.28.1.33.31Z" fill="#315B82"/><path d="M6.46 10.8c-.25.03-.37-.03-.42-.21a.3.3 0 0 1 .01-.22.3.3 0 0 1 .16-.15.3.3 0 0 1 .37.13c.1.16.07.28-.12.44ZM10.62 6.21a.35.35 0 0 1 .27.18c.05.24-.02.4-.2.45a.3.3 0 0 1-.23-.05.3.3 0 0 1-.14-.18c-.05-.19.06-.33.3-.4ZM5.68 8.97c.06-.22.18-.34.34-.32.14.01.28.15.28.3 0 .07-.02.15-.07.2a.31.31 0 0 1-.2.12c-.15.03-.28-.08-.35-.3ZM6.16 7.45c.02-.18.12-.28.3-.31a.31.31 0 0 1 .22.1.32.32 0 0 1 .1.23c0 .14-.15.28-.29.3a.33.33 0 0 1-.23-.1.34.34 0 0 1-.1-.22Z" fill="#51AF47"/></svg>