<!-- by TradingView --><svg width="18" height="18" viewBox="0 0 18 18" xmlns="http://www.w3.org/2000/svg"><path fill="#F0F3FA" d="M0 0h18v18H0z"/><path d="M4.59 6c.18 0 .41.15.41.33V11h1.66c.19 0 .34.37.34.56 0 .18-.15.44-.34.44h-2.2a.45.45 0 0 1-.46-.44V6.33c0-.18.4-.33.59-.33ZM8.5 6c.28 0 .5.14.5.32v5.36c0 .18-.22.32-.5.32s-.5-.14-.5-.32V6.32c0-.18.22-.32.5-.32Zm2.31.23c-.06-.17-.3-.27-.52-.22-.22.06-.34.24-.27.41l2.06 5.27c.16.42.92.41 1.06-.01L15 6.41c.06-.17-.07-.35-.3-.4-.22-.05-.45.06-.5.23l-1.6 4.55-1.78-4.56Z" fill="#29ABE2"/></svg>