<!-- by TradingView --><svg width="18" height="18" fill="none" xmlns="http://www.w3.org/2000/svg"><g clip-path="url(#clip0)"><path fill="#F0F3FA" d="M0 0h18v18H0z"/><path opacity=".5" d="M10.596 4.003l2.625 1.91L14.224 9 13.22 12.09l-2.625 1.909H7.351l-2.625-1.91-1.002-3.088 1.002-3.089 2.625-1.909h3.245z" fill="#C4C4C4"/><path d="M8.975 12.609l-1.624 1.39h3.245l-1.621-1.39z" fill="url(#paint0_linear)"/><path d="M4.726 12.09l2.125-.191.5 2.1-2.625-1.91z" fill="#D65879"/><path d="M3.724 9.001l1.846 1.085-.844 2.004L3.724 9z" fill="#E47992"/><path d="M3.729 9.003l1.876-1.152-.878-1.964-.998 3.116z" fill="#EE9DBD"/><path d="M8.976 5.384l1.618-1.38H7.361l1.615 1.38z" fill="#E9A0BC"/><path d="M11.136 6.093l2.083-.182-2.624-1.907.54 2.089z" fill="#E77B93"/><path d="M13.22 5.911l-.842 1.997L14.224 9 13.22 5.912h-.002z" fill="#D8557B"/><path d="M13.22 12.09l-.876-2.019 1.88-1.07-1.003 3.089z" fill="#C1356C"/><path d="M13.22 12.09l-2.13-.201-.494 2.11 2.625-1.909z" fill="#B03F6D"/><path d="M7.352 4.003l-.54 2.059-2.083-.152 2.622-1.907h.001z" fill="#F1D8E2"/><path d="M6.812 10.535l.039 1.364-2.123.185.842-1.998 1.242.449z" fill="#E46283"/><path d="M8.15 11.61l.825.999L7.353 14l-.502-2.101 1.298-.288z" fill="#D04671"/><path d="M11.136 11.905l-1.359-.253-.802.957 1.621 1.39.54-2.094z" fill="#BB3B6E"/><path d="M12.374 10.097l-1.244.435v1.38l2.09.178-.846-1.993z" fill="#BE396E"/><path d="M11.697 9.002l.681-1.094L14.224 9l-1.846 1.107-.68-1.106z" fill="#CF4874"/><path d="M3.727 9.002l1.843 1.084.681-1.084-.664-1.148-1.86 1.148z" fill="#E98DA9"/><path d="M4.725 5.91l.862 1.944 1.225-.385V6.062L4.725 5.91z" fill="#EEC3D6"/><path d="M11.136 7.47V6.092l2.084-.182-.842 1.997-1.242-.439z" fill="#E36283"/><path d="M11.135 6.093l-.54-2.09-1.62 1.381.803.957 1.357-.248z" fill="#E68FA8"/><path d="M7.353 4l-.541 2.062 1.337.279.827-.957L7.353 4z" fill="#EEC1D7"/><path d="M11.136 7.47l1.242.438-.68 1.094H8.973l2.162-1.533z" fill="#E25578"/><path d="M6.812 7.47l-1.227.384.665 1.148h2.724L6.812 7.47z" fill="#E994AA"/><path d="M11.136 10.535l1.242-.438-.68-1.095H8.973l2.162 1.533z" fill="#D63169"/><path d="M6.812 10.535l-1.242-.438.68-1.095h2.724l-2.162 1.533z" fill="#E57992"/><path d="M8.973 5.381l.805.96L8.975 9l-.826-2.66.824-.96z" fill="#E995AB"/><path d="M9.778 6.34l1.357-.249v1.378L8.975 9.001l.804-2.66z" fill="#E57992"/><path d="M8.152 6.342l-1.34-.251v1.378l2.162 1.532-.822-2.659z" fill="#E87793"/><path d="M8.152 6.342l-1.34-.288V7.47l2.162 1.532-.822-2.659z" fill="#EAB2C5"/><path d="M8.973 12.62l.805-.958-.803-2.66-.826 2.66.824.959z" fill="#D6316A"/><path d="M9.778 11.662l1.358.25v-1.379L8.974 9.001l.804 2.66z" fill="#C9326D"/><path d="M8.152 11.66l-1.34.251v-1.378l2.162-1.532-.822 2.659z" fill="#E55379"/></g><defs><linearGradient id="paint0_linear" x1="5.564" y1="5.252" x2="11.813" y2="13.149" gradientUnits="userSpaceOnUse"><stop stop-color="#E9A0BC"/><stop offset="1" stop-color="#B43E6E"/></linearGradient><clipPath id="clip0"><path fill="#fff" d="M0 0h18v18H0z"/></clipPath></defs></svg>