<!-- by TradingView --><svg width="18" height="18" viewBox="0 0 18 18" xmlns="http://www.w3.org/2000/svg"><path fill="#F0F3FA" d="M0 0h18v18H0z"/><path d="M8.82 3.04a11.7 11.7 0 0 1 2.04 2.83l-.03.06c-.12.13-.23.23-.33.29-1.35.87-2.5 1.86-3.19 3.37-.37.83-.47 2.13.16 2.9 1.12 1.38 2.98 1.23 4.06-.12a5.44 5.44 0 0 0 1.19-3.32l.02-.02a.05.05 0 0 1 .05 0 5.96 5.96 0 0 1 .02 2.97c-.24.77-.62 1.4-1.14 1.88a3.82 3.82 0 0 1-3.95.92 3.88 3.88 0 0 1-1.99-1.43c-1.14-1.68-.86-3.68.24-5.3.68-.98 1.66-2.04 2.33-3.25a4.8 4.8 0 0 0 .49-1.79h.02Z" fill="#345A97"/><path d="M12.06 3c.47.73.79 1.67.66 2.53a3.82 3.82 0 0 1-1.04 2.12h-.03l-.03-.01-.02-.04a8.02 8.02 0 0 0-.59-1.56.23.23 0 0 1 .03-.25 4.14 4.14 0 0 0 1-2.79h.02ZM11.65 7.86c.17.86.25 2.05-.17 2.86-.27.51-.66 1.09-1.18 1.24-.54.16-1.17-.07-1.4-.62-.38-.97.64-2 1.33-2.48a25.13 25.13 0 0 0 1.4-1.02h.01v.02Z" fill="#345A97"/></svg>