<!-- by TradingView --><svg width="18" height="18" viewBox="0 0 18 18" xmlns="http://www.w3.org/2000/svg"><path fill="#F0F3FA" d="M0 0h18v18H0z"/><path d="M10.45 8.02 9.53 8c-3.87 0-4.37.26-5.39 1.83-.04.06-.16.01-.14-.06 0 0 .13-1.28.32-2.1.2-.83.56-1.64 1.2-2.15.63-.5 1.73-.51 2.46-.52H10.88c1.65 0 2.4.34 1.96 1.65-.47 1.43-1.02 1.42-2.39 1.37ZM7.57 9.98l.92.02c3.91 0 4.35-.26 5.37-1.83.04-.06.15-.01.14.06 0 0-.13 1.28-.32 2.1a3.78 3.78 0 0 1-1.2 2.15c-.63.5-1.73.51-2.46.52H7.12c-1.65 0-2.4-.34-1.96-1.65.47-1.43 1.04-1.42 2.4-1.37Z" fill="#05C3DD"/></svg>