<!-- by TradingView --><svg xmlns="http://www.w3.org/2000/svg" width="18" height="18" viewBox="0 0 18 18"><path d="M18 0H0v18h18V0Z" fill="#F0F3FA"/><path d="M11.54 7.88a3.61 3.61 0 0 0-4.68-3.4 5.01 5.01 0 0 0-2.38 2.38 3.6 3.6 0 0 0 1.74 4.25c.5.26 1.03.45 1.59.46l1.22-.02A2.54 2.54 0 1 1 11.54 9V7.88Z" fill="#00AB57"/><path d="m10.15 11.6-.26-.05H7.85a3.72 3.72 0 0 1-2.87-1.52 3.61 3.61 0 0 1-.5-3.17 5 5 0 0 0 4.08 7.12l4.74.02a5.37 5.37 0 0 0-3.15-2.4Z" fill="#00B2BA"/><path d="M14 9a5 5 0 0 0-7.14-4.52 3.6 3.6 0 0 1 4.68 3.4v1.79c0 .08 0 .16.02.24.1.5.55 2.1 2.44 3.32V9Z" fill="#D3DF4E"/><path style="mix-blend-mode:multiply" opacity=".4" d="M13.37 6.56a5.18 5.18 0 0 0-1.3-1.5c.16.2.3.41.43.64.39.7.48 1.48.5 2.28v4.45c.32.33.61.55 1 .8V8.99c0-.85-.23-1.68-.63-2.43Z" fill="url(#aonk0i450)"/><path style="mix-blend-mode:multiply" opacity=".4" d="M11.63 13H8.24c-.68 0-1.35 0-1.99-.23-.42-.17-.82-.4-1.18-.7h-.01a5.04 5.04 0 0 0 3.5 1.9h.17l.38.03h4.19c-.26-.4-.47-.68-.8-1h-.87Z" fill="url(#bonk0i450)"/><path style="mix-blend-mode:multiply" opacity=".4" d="M11.54 7.88a3.61 3.61 0 0 0-4.68-3.4 5.01 5.01 0 0 0-2.38 2.38 3.6 3.6 0 0 0 3.3 4.68l1.24.02a2.62 2.62 0 0 1-2.37-1.6A2.54 2.54 0 1 1 11.54 9V7.88Z" fill="url(#conk0i450)"/><defs><linearGradient id="aonk0i450" x1="15.68" y1="11.96" x2="7.14" y2="11.48" gradientUnits="userSpaceOnUse"><stop offset=".24" stop-color="#231F20"/><stop offset=".54" stop-color="#fff"/></linearGradient><linearGradient id="bonk0i450" x1="11.82" y1="15.7" x2="11.36" y2="6.93" gradientUnits="userSpaceOnUse"><stop offset=".24" stop-color="#231F20"/><stop offset=".54" stop-color="#fff"/></linearGradient><linearGradient id="conk0i450" x1="5.32" y1="10.42" x2="10.42" y2="5.31" gradientUnits="userSpaceOnUse"><stop offset=".04" stop-color="#231F20"/><stop offset=".06" stop-color="#393536"/><stop offset=".12" stop-color="#6D6A6B"/><stop offset=".25" stop-color="#BEBDBD"/><stop offset=".38" stop-color="#EFEFEF"/><stop offset=".44" stop-color="#FBFBFB"/><stop offset=".5" stop-color="#fff"/><stop offset=".57" stop-color="#FBFBFB"/><stop offset=".63" stop-color="#EFEFEF"/><stop offset=".76" stop-color="#C0BFBF"/><stop offset=".82" stop-color="#9D9B9B"/><stop offset=".88" stop-color="#716E6F"/><stop offset=".94" stop-color="#3E3B3C"/><stop offset=".97" stop-color="#231F20"/></linearGradient></defs></svg>