<!-- by TradingView --><svg width="18" height="18" viewBox="0 0 18 18" xmlns="http://www.w3.org/2000/svg"><path fill="#F0F3FA" d="M0 0h18v18H0z"/><path d="M9.98 4.68s.58.8.77 1.79c0 0 .23 1.02-.34 1.73l-.26.33-.3.3-.46.45-.46.4-.54.55s-.5.41-.81 1.44c0 0-.18.67.2 1.64 0 0 .15.38.56 1.06l-1.65-1.25s-1.8-1.49-1.68-2.97l.01-.15.05-.17.05-.13.06-.16.07-.12.1-.16.1-.18.12-.16.12-.17.16-.19.53-.62s.18-.24 1.03-1.05c.24-.23.51-.54.83-.92 0 0 1.11-1.17-.02-2.97 0 0 .84.35 1.76 1.68Zm-1.28 8.3s.34-.57 1.13-1.1l.16-.12.33-.24.2-.17.31-.26s.83-.64.83-1.7c0 0-.26.57-1.27 1.13l-.73.43s-.68.37-1.04.98c0 0-.2-1.1 1.11-2.1 0 0 .57-.43 1.09-.98 0 0 .59-.5.86-1.54 0 0 .17.78.85 1.95 0 0 .51.77.47 1.49 0 0 .07 1.02-1.62 1.98l-.29.16-.67.37-.73.42s-1.07.66-1.12 1.33c0 0-.44-1.14.13-2.03Z" fill="url(#akafsytxv)"/><defs><linearGradient id="akafsytxv" x1="12.96" y1="9.28" x2="3.83" y2="11.09" gradientUnits="userSpaceOnUse"><stop stop-color="#1E6CB4"/><stop offset="1" stop-color="#17AADC"/></linearGradient></defs></svg>