<!-- by TradingView --><svg xmlns="http://www.w3.org/2000/svg" width="18" height="18"><path fill="url(#aej1nurv4)" d="M0 0h18v18H0z"/><path d="M7.13 7.38H9.9c.87 0 1.38.97.94 1.7l-2.48 3.9a1.1 1.1 0 01-1.9 0l-2.32-3.9c-.4-.63.1-1.7.98-1.7H6.6l.6-.97H5.13a2.13 2.13 0 00-1.83 3.2l2.33 3.87a2.14 2.14 0 003.65 0l2.45-3.87A2.13 2.13 0 009.9 6.4H7.66l-.53.97z" fill="#fff"/><path d="M8.79 4.53a2.14 2.14 0 013.66 0l2.26 3.83c.82 1.38-.2 3.23-1.83 3.23H10.9l.6-.97h1.38c.87 0 1.4-1.01.98-1.74L11.6 5.03a1.14 1.14 0 00-1.95 0l-2.3 3.85c-.43.74.11 1.74.98 1.74h2.66l-.55.97H8.29c-1.63 0-2.65-1.85-1.84-3.23L8.8 4.53z" fill="#fff"/><defs><linearGradient id="aej1nurv4" x1="16.48" y1="14.26" x2="1.17" y2="4.44" gradientUnits="userSpaceOnUse"><stop stop-color="#ABCB3B"/><stop offset="1" stop-color="#2BB1E6"/></linearGradient></defs></svg>