<!-- by TradingView --><svg xmlns="http://www.w3.org/2000/svg" width="18" height="18"><path fill="#F0F3FA" d="M0 0h18v18H0z"/><path d="M8.78 9.1C8.63 7.02 4.2 6.24 2 6.1c5-.19 7.4.9 7.47 2.44.06 1.22-1.35 2.8-2.06 3.44 4.59-1.92 5.6-3.22 5.6-3.86 0-.51-.49-.89-.73-1C13.75 7.55 14 8.23 14 8.54c0 1.53-5.54 3.6-8.31 4.45 2.66-1.73 3.13-3.35 3.09-3.9z" fill="#00A65E"/><path d="M10.18 8.45C10.14 6.87 7.6 6.16 6.34 6c1.99.1 6.09.66 6.09 2.08 0 1.13-2.5 2.51-3.75 3.06 1.23-1.1 1.5-2.24 1.5-2.69z" fill="#71BF44"/></svg>