<!-- by TradingView --><svg width="18" height="18" viewBox="0 0 18 18" xmlns="http://www.w3.org/2000/svg"><path fill="#F0F3FA" d="M0 0h18v18H0z"/><path d="M12.18 6.33c1.05 0 1.9-.04 2.72.26l.07.03.02-.04a6.96 6.96 0 0 0-3.47-.57c-.89.03-1.76.23-2.57.58.22.1.43.22.63.34.81-.4 1.68-.57 2.6-.6ZM14.98 11.19h-.02c-.86.4-1.71.42-2.6.47H12c-.81 0-1.64-.13-2.37-.47-.24-.11-.5-.24-.7-.41-.56-.41-.94-1.01-.94-1.7 0-.65.33-1.27.96-1.75-.2-.15-.41-.28-.63-.4C7.4 7.52 6.96 8.33 7 9.2a2.4 2.4 0 0 0 1.25 1.98h.02c.22.14.45.25.69.35a6.9 6.9 0 0 0 2.85.46 6.58 6.58 0 0 0 3.17-.77H15l-.02-.03Z" fill="#7A2682"/><path d="m8.27 11.19-.24.1a5.93 5.93 0 0 1-2.48.37c-.86-.05-1.7-.07-2.53-.42l-.02.04a6.91 6.91 0 0 0 3.45.72 6.9 6.9 0 0 0 2.5-.47l-.08-.03-.6-.31ZM9.59 6.93a6.92 6.92 0 0 0-3.2-.92A7.14 7.14 0 0 0 3 6.54l.02.05c.81-.3 1.74-.26 2.7-.26.9.03 1.8.2 2.6.6.23.12.44.25.64.4.63.49 1.04 1.1 1.04 1.76 0 .7-.47 1.28-1.03 1.69l-.01.01c.21.16.44.29.68.4.73-.44 1.36-1.12 1.36-1.99 0-.87-.49-1.68-1.41-2.27Z" fill="#003A5D"/><path d="M6.98 10.67c-.53.15-1.08.12-1.63.12-1.08 0-2.54-.5-2.64-1.68-.04-1 1.2-1.85 2.77-1.92.49-.03 1.02.03 1.5.14L7 7.27A5.42 5.42 0 0 0 5.4 7C4.07 7 1.93 7.58 2 9.14 2.06 10.46 3.83 11 5 11c.68 0 1.36-.02 2-.27l-.02-.06Z" fill="#7A2682"/><path d="M11.02 10.67c.53.15 1.08.12 1.63.12 1.08 0 2.54-.5 2.64-1.68.04-1-1.2-1.85-2.77-1.92a5.44 5.44 0 0 0-1.5.14L11 7.27c.5-.16 1.07-.27 1.6-.27 1.33 0 3.47.58 3.4 2.14-.06 1.32-1.83 1.86-3 1.86-.68 0-1.36-.02-2-.27l.02-.06Z" fill="#00ADBB"/></svg>