<!-- by TradingView --><svg width="18" height="18" viewBox="0 0 18 18" xmlns="http://www.w3.org/2000/svg"><path fill="#F0F3FA" d="M0 0h18v18H0z"/><path d="M8.76 4c-2.98 1.5-4.3 4.56-4.63 6.12a5.02 5.02 0 0 1-.1-1.73c.95-2.1 2.54-3.53 3.52-4.18.39-.12.8-.19 1.2-.21Z" fill="url(#abwszqmj1)"/><path d="M10 4.1a5 5 0 0 0-.7-.1C6.03 5.82 4.8 9.44 4.55 11.3c.23.44.51.83.85 1.18.53-4.98 3.17-7.6 4.6-8.38Z" fill="url(#bbwszqmj1)"/><path d="M11.18 4.5c-2.69 2.61-3.91 7.04-4.21 9.07a5 5 0 0 1-.86-.5c.16-3.9 2.69-7.35 4.23-8.9.3.09.57.2.84.32Z" fill="url(#cbwszqmj1)"/><path d="M12.26 5.2c-.2-.16-.4-.31-.61-.45-2.26 2.78-3.43 6.97-3.8 9.12A5 5 0 0 0 9 14h.02c1-4.2 2.5-7.5 3.24-8.8Z" fill="url(#dbwszqmj1)"/><path d="M14 9.02V9c0-.38-.04-.74-.12-1.1a15.3 15.3 0 0 0-8.24-2.6l-.23.21C10 6.1 12.95 8.01 14 9.02Z" fill="url(#ebwszqmj1)"/><path d="M5.16 5.8c1.86.24 5.84 1.4 8.7 4.4-.1.39-.24.76-.42 1.1-1.37-1.6-4.76-4.66-8.52-5.2l.24-.3Z" fill="url(#fbwszqmj1)"/><path d="M4.74 6.38c1.98.82 6.02 2.93 8.24 5.65-.2.26-.43.5-.68.72-1.44-1.52-4.77-4.6-7.8-5.94a5 5 0 0 1 .24-.43Z" fill="url(#gbwszqmj1)"/><path d="M4.37 7.1a70.9 70.9 0 0 1 7.2 6.19c-.36.22-.75.39-1.16.51-1.46-1.56-4.5-4.74-6.2-6.25l.16-.44Z" fill="url(#hbwszqmj1)"/><path d="m4.38 7.7.24-.4.47.35c-.1.16-.17.32-.25.48l-.46-.43Z" fill="#15547F"/><path d="m4.83 6.97.3-.42.5.23-.3.44-.5-.25Z" fill="#185583"/><path d="m6.94 7.43-.78-.4-.3.49c.27.15.53.31.79.48.1-.2.19-.39.3-.57Z" fill="#144D7A"/><path d="m6.35 8.65-.76-.6c-.1.18-.18.36-.26.55l.76.74.26-.69Z" fill="#124572"/><path d="m5.4 6.2.27-.32.56.11-.26.33c-.2-.05-.38-.1-.57-.13Z" fill="#145484"/><path d="M7.6 6.38c-.27-.1-.55-.18-.8-.25l-.27.36c.27.09.54.18.8.3l.28-.41Z" fill="#185284"/><path d="M8.66 6.2 9 5.74c.3.07.6.16.9.26l-.33.5-.9-.3Z" fill="#144C80"/><path d="m8.07 7.11.3-.47c.28.12.59.24.89.38l-.31.56a14.3 14.3 0 0 0-.88-.47Z" fill="#154777"/><path d="M7.33 8.46c.1-.22.22-.43.33-.63.3.16.6.34.9.53l-.33.76-.9-.66Z" fill="#17406C"/><path d="m5.94 5.58.28-.28c.2 0 .4.02.63.04a8.7 8.7 0 0 0-.33.34l-.58-.1Z" fill="#185C8E"/><path d="m8.26 5.56-.82-.14-.36.37.82.2.36-.43Z" fill="#13598A"/><path d="M6.72 9.96c.09-.26.18-.52.29-.78l.9.76-.3.93-.9-.9Z" fill="#233863"/><path d="M10.98 7.91c-.33-.2-.66-.38-.99-.54l-.32.66c.34.22.67.46.99.7.1-.29.21-.56.32-.82Z" fill="#17406F"/><path d="M10.34 9.57c-.34-.25-.68-.5-1.02-.72a24 24 0 0 0-.34.86c.36.28.7.57 1.02.85l.34-.99Z" fill="#17395F"/><path d="m9.7 11.5-1.02-.91c-.12.36-.23.71-.32 1.05l1 1.04c.1-.4.22-.8.34-1.19Z" fill="#1C2E52"/><defs><linearGradient id="abwszqmj1" x1="8.76" y1="3.99" x2="3.86" y2="9.89" gradientUnits="userSpaceOnUse"><stop stop-color="#156CA7"/><stop offset="1" stop-color="#044B78"/></linearGradient><linearGradient id="bbwszqmj1" x1="9.56" y1="4.12" x2="4.56" y2="11.94" gradientUnits="userSpaceOnUse"><stop stop-color="#0A70B9"/><stop offset=".72" stop-color="#003C70"/></linearGradient><linearGradient id="cbwszqmj1" x1="10.54" y1="4.19" x2="6.42" y2="13.58" gradientUnits="userSpaceOnUse"><stop stop-color="#0A70B7"/><stop offset=".69" stop-color="#003A68"/></linearGradient><linearGradient id="dbwszqmj1" x1="11.91" y1="5.03" x2="8.3" y2="14" gradientUnits="userSpaceOnUse"><stop stop-color="#0073C7"/><stop offset=".72" stop-color="#003D6C"/></linearGradient><linearGradient id="ebwszqmj1" x1="5.51" y1="5.24" x2="14.2" y2="8.84" gradientUnits="userSpaceOnUse"><stop stop-color="#2C9DDF"/><stop offset=".77" stop-color="#003F71"/></linearGradient><linearGradient id="fbwszqmj1" x1="5.02" y1="5.73" x2="14.78" y2="8.58" gradientUnits="userSpaceOnUse"><stop stop-color="#2C9DDF"/><stop offset=".63" stop-color="#003F71"/></linearGradient><linearGradient id="gbwszqmj1" x1="4.6" y1="6.3" x2="14.1" y2="8.58" gradientUnits="userSpaceOnUse"><stop stop-color="#2C9DDF"/><stop offset=".57" stop-color="#003F71"/></linearGradient><linearGradient id="hbwszqmj1" x1="4.3" y1="7.02" x2="12.69" y2="8.69" gradientUnits="userSpaceOnUse"><stop stop-color="#2C9DDF"/><stop offset=".55" stop-color="#003F71"/></linearGradient></defs></svg>