<!-- by TradingView --><svg xmlns="http://www.w3.org/2000/svg" width="18" height="18" viewBox="0 0 18 18"><path fill="#F0F3FA" d="M0 0h18v18H0z"/><path d="M8.57 6.18c-.32.04-1.27.24-1.7.36a.16.16 0 0 0-.11.1L5 11.21c4.18 1.53 6.58-.87 6.54-2.31-.28 1.16-1.63 2-3.24 2.06-1.28.03-1.27-.84-1.1-1.29.08-.36.9-2.44 1.37-3.5Z" fill="#92C547"/><path d="M9 12.05c-2.26.2-3.48-.45-4-.84 3.11 1.12 5.53.02 6.28-1.44.24-.47.32-1.2.07-1.58-.57-.9-1.95-.86-2.78-.71l.61-1.35C10.5 6 12.43 6.1 13.1 7.48c.27.54.3 1.2.1 1.8-.47 1.43-2.2 2.6-4.2 2.77Z" fill="#552981"/><path d="M9 14.5a5.5 5.5 0 1 0 0-11 5.5 5.5 0 0 0 0 11ZM15 9A6 6 0 1 1 3 9a6 6 0 0 1 12 0Z" fill="url(#aldzchp0r)"/><defs><linearGradient id="aldzchp0r" x1="13.83" y1="5" x2="4.33" y2="13.17" gradientUnits="userSpaceOnUse"><stop stop-color="#9ACE45"/><stop offset="1" stop-color="#5E33F2"/></linearGradient></defs></svg>