<!-- by TradingView --><svg width="18" height="18" viewBox="0 0 18 18" xmlns="http://www.w3.org/2000/svg"><path fill="#F0F3FA" d="M0 0h18v18H0z"/><path fill-rule="evenodd" d="M8.52 13.83c-.24.15-.04.18.09.17h1.6a1.22 1.22 0 0 1-.39-.35 9.35 9.35 0 0 1-.15-1.94c-.04-.34.23-.76.47-.6.2.14.46.15.58.14-.07-.12-.11-.33.25-.2s.2.3.06.37l.41.29c.1-.04.3-.07.47.05.2.15.34.08.21-.15-.08-.14-.01-.18.05-.22.04-.02.08-.04.08-.1 0-.05-.1-.07-.2-.08-.13-.02-.26-.05-.14-.16.17-.16.59-.27.77-.3.21.28.6.29.94.3h.17c.3.01.31-.2.29-.3.18.19.57.56.68.5.06-.03.01-.1-.05-.17-.08-.1-.17-.22-.09-.33.15-.19.13-.22.03-.41 0-.02-.02-.03-.03-.05-.06-.12.09-.14.22-.16.11-.02.21-.03.13-.12-.13-.14-.12-.5-.1-.66-.41-.15-.7-.5-.8-.66.2-.06.57-.18.49-.28-.08-.1-.55-.1-.77-.1-.08.07-.26.17-.37.04-.11-.13.13-.3.26-.37.21.02.65.01.7-.16.08-.22-.6-.78-.87-.8-.27-.03-.99-.18-1.14-.39-.15-.2.06-.4.35-.56.24-.13.13-.17-.02-.22l-.1-.05c-.15-.06.02-.17.12-.21-.11-.22-.49-.13-.66-.06.16-.1-.13-.27-.37-.34-.1-.03-.23.09-.35.2-.13.12-.25.23-.32.09-.08-.18-.35-.23-.54-.23.03-.03.04-.11.03-.27-.03-.33-.36-.4-.53-.39-.17-.21-.37-.13-.45-.07-.33-.23-.98-.65-.92-.48.06.16-.26.23-.43.24-.13.18-.45.5-.7.31-.25-.18-.46-.07-.53 0 .05.16.11.44 0 .39a.4.4 0 0 0-.3 0c-.3.21-.23.36-.2.45.04.07.05.1-.1.1-.3-.01-.4.14-.42.22a.42.42 0 0 1 .24-.04c.12.02 0 .53-.1.39A.4.4 0 0 0 5.5 6c-.2.12.08.4.25.53.2-.01.2.13.18.2.07.05.16.18 0 .25-.11.05-.15 0-.21-.08a.5.5 0 0 0-.22-.17c-.2-.08-.4.03-.46.1 0 .08-.02.26-.1.3-.08.05-.11-.14-.12-.24-.32.1-.95.32-.93.45 0 .08.2.07.43.07.27-.01.58-.02.72.09.21.17-.24.25-.5.28-.03.24-.21.25-.46.27l-.26.03c-.2.03-.18.09-.17.13 0 .04.01.08-.13.1-.23.02-.44.14-.52.2.2.2.6.63.52.74a.47.47 0 0 1-.16.12c-.16.1-.37.22-.36.53.01.37.65.54.97.58-.15.08-.39.33-.22.63.12.22-.1.23-.3.23-.14 0-.27.01-.25.1.05.16.53.1.77.04l.38-.58c.16.07.48.24.42.33-.04.07-.14.06-.24.05-.07 0-.14-.01-.18.02-.1.06.4.57.69.23.22-.28.82-.23 1.1-.18.1.06.33.17.36.13.04-.05.3-.25.51-.25.22 0 .24.12.07.25-.08.06-.27.08-.44.1-.18.02-.33.04-.29.1.07.1.47.3.84.09.18-.11.23-.24.27-.34.05-.1.08-.17.23-.13.23.05.42-.1.49-.19l.43.12c0 .08-.1.1-.2.14-.12.03-.21.06-.08.16.15.1.21.02.28-.07.06-.06.11-.12.2-.1.2.02.23.13.22.63-.02.5-.21 1.65-.51 1.84Zm.12-9.02c-.07-.16-.27.02-.36.13h.16a2.9 2.9 0 0 0-.21.33c-.03.07-.15.08-.27.08-.05 0-.1 0-.16.02-.13.02 0 .21.08.3.13-.02.4-.1.4-.15 0-.04.06-.09.12-.14.06-.03.1-.07.12-.1l.04-.07c.05-.1.14-.24.08-.4Zm.9.13c.08 0 .24.05.24.28 0 .16-.06.18-.11.2a.18.18 0 0 0-.12.1c-.07.12-.03-.33 0-.58Zm-1.2 1.2c-.27-.1-.5.1-.6.21.16-.13.33.05.46.18.05.06.1.11.13.11.1-.08.14-.03.18.02.05.06.1.12.21.07.22-.12.41-.1.52 0 .12.09.36-.04.54-.18.12-.1.28-.1.44-.08h.15c.11 0 .16-.03.2-.06.04-.03.08-.06.16-.06.17 0 .3-.13.14-.48-.13-.27-.53-.24-.7-.2.12.07.37.23.4.4 0 .1-.08.07-.18.04-.1-.04-.22-.08-.23.03-.01.18-.2.13-.33.1l-.05-.02c-.08-.02-.27.04-.41.08l-.2.05-.1.05c-.09.06-.19.12-.27.07a.46.46 0 0 1-.12-.1c-.06-.07-.14-.16-.35-.23ZM7.07 7.57C7 7.2 6.7 7.3 6.57 7.41c.1.04.13.12.16.2.04.1.08.2.22.27l.08.04c.06.03.09.05.1.04.02 0 .01-.07-.01-.2l-.04-.19Zm-.55-1.35c.08.08.24.25.2.33v.13c0 .12.02.23-.16.12-.16-.1-.11-.23-.07-.35.04-.09.07-.17.03-.23Zm5.22-.4c-.1-.09 0-.17.08-.2l.4.06c-.13.03-.17.17-.2.27-.03.07-.04.12-.08.12s-.06-.04-.08-.09a.45.45 0 0 0-.12-.16Zm.48 1.05c.15.08.46.26.44.36-.01.12-.28.29-.36.2-.04-.03-.03-.1-.02-.16.01-.09.03-.17-.06-.17-.16 0-.22-.23 0-.23Zm-.48.63c-.17-.14-.07-.28 0-.33.12-.11.17 0 .24.14l.1.2c.15.18-.03.32-.2.29-.07-.02-.06-.04-.06-.08.02-.05.03-.12-.08-.22Zm-.71.1c.1.01.3.08.24.2-.09.14-.43.15-.24-.2Zm-.88 2.43c.04-.13-.1-.2-.18-.21-.07.02-.19.12-.12.29.09.21.26.08.3-.08Zm.88-.94c.05-.06.18-.16.24-.1.06.1.09.35-.08.32a.33.33 0 0 0-.18.02c-.06.02-.1.04-.15-.02-.07-.09.08-.18.17-.22Zm1.93.08c-.19.03-.45.01-.56 0-.03.13-.05.4.16.4l.23-.01c.1-.01.17-.02.27.01.16.04.14-.44-.1-.4Zm.1-.84c.11.04.36.17.43.28.1.15-.13.3-.28.24-.05-.02-.1-.06-.16-.11-.11-.1-.25-.2-.43-.18-.2.04-.44 0-.54-.04.13-.02.4-.11.48-.24.08-.13.37-.02.5.05Zm1.36 1.95c.01-.2-.32-.18-.42-.17H14c-.04.12-.13.38-.1.42.02.04.09.06.17.09l.19.08c.13.07.16-.19.18-.42Zm-3.01.8c.13.02.4.09.37.25-.02.16.14.25.21.28h-.42c-.13-.07-.34-.26-.16-.53Z" fill="#273326"/></svg>