<!-- by TradingView --><svg width="18" height="18" viewBox="0 0 18 18" xmlns="http://www.w3.org/2000/svg"><path fill="#F0F3FA" d="M0 0h18v18H0z"/><path d="m14 6.83-.25 5.66c0 .29-.26.51-.57.51H4.82c-.3 0-.56-.22-.57-.5L4 6.82a.54.54 0 0 1 .45-.54L6 5.99C6.09 5.32 6.82 4 9 4c2.18 0 2.92 1.32 3.01 1.99l1.54.3c.27.05.46.28.45.54Z" fill="#FDC526"/><path fill-rule="evenodd" d="m11.57 6.35-.03-.18c-.03-.26-.2-.67-.6-1.02-.38-.33-.99-.62-1.94-.62s-1.56.29-1.95.62c-.39.35-.56.76-.6 1.02l-.02.18-1.65.33a.24.24 0 0 0-.2.24l.24 5.33c0 .13.12.22.24.22h7.87c.13 0 .24-.1.25-.22l.23-5.33a.24.24 0 0 0-.2-.24l-1.64-.33Zm1.9 5.9.24-5.32a.5.5 0 0 0-.43-.51l-1.45-.29c-.09-.62-.78-1.87-2.83-1.87S6.26 5.51 6.17 6.13l-1.45.29a.5.5 0 0 0-.43.5l.24 5.34c0 .26.25.48.53.48h7.87c.3 0 .53-.22.54-.48Z" fill="#F83B19"/><path d="M7.6 6.7a2 2 0 0 0-.78.21c-.4.19-.7.46-.8.72a.53.53 0 0 0-.02.13c0 .09.04.17.11.24.02.02.04.02.06-.02a2.57 2.57 0 0 1 .58-.54 1.6 1.6 0 0 1 .7-.26c.3-.04.56.04.74.22a.6.6 0 0 1 .18.54.72.72 0 0 1-.23.42c-.1.08-.2.16-.34.23-.21.1-.4.15-.62.15-.08 0-.08 0-.06-.04l.04-.08.08-.14.2-.4c.05-.09.07-.2.07-.26 0-.04 0-.1-.02-.13a.42.42 0 0 0-.16-.18c-.04-.03-.05-.03-.06 0-.03.1-.1.25-.16.38l-.34.56-.05.07a.6.6 0 0 0-.03.05l-.04-.02a.4.4 0 0 1-.1-.15.2.2 0 0 1-.02-.07c0-.04 0-.05.02-.08.01-.03.02-.05 0-.05a.47.47 0 0 0-.28.14.35.35 0 0 0-.11.21c0 .08.02.18.08.26.03.04.1.11.15.14.05.03.05.04.03.06a3.1 3.1 0 0 0-.22.53l-.01.06a2.62 2.62 0 0 0-.05.27c-.02.1-.03.32-.02.44.04.41.2.72.45.84l.15.04c.06.01.07.01.07-.01v-.03l-.02-.05a2.53 2.53 0 0 0-.04-.14l-.02-.08a3 3 0 0 1-.06-.6 2.5 2.5 0 0 1 .2-1l.06-.16h.03a2.18 2.18 0 0 0 .94-.13 1.82 1.82 0 0 0 .81-.53c.17-.2.27-.42.3-.67a.83.83 0 0 0-.44-.88 1.61 1.61 0 0 0-.95-.2ZM10.9 7.6c-.1.03-.24.13-.34.27a2.92 2.92 0 0 0-.4.78h-.04a.37.37 0 0 1-.21-.26.76.76 0 0 1-.03-.2c0-.06 0-.16.02-.23.01-.05.01-.06 0-.07l-.06.01c-.09.05-.15.19-.18.39v.28c.02.13.05.2.1.29a.53.53 0 0 0 .24.2v.08a.96.96 0 0 0-.04.1 14 14 0 0 0-.2.78h-.04c-.23-.03-.45.08-.6.31a.8.8 0 0 0-.12.48c.02.14.09.24.2.28.1.04.24.02.35-.06.07-.05.12-.1.2-.19.06-.07.14-.22.2-.36l.02-.05H10c.03 0 .24.13.35.2l.05.04a1.85 1.85 0 0 1 .13.09l.06.04a.89.89 0 0 0 .11.07 2.72 2.72 0 0 0 .35.17 2.1 2.1 0 0 0 .7.16l.23-.02c.2-.03.41-.12.59-.24a1.83 1.83 0 0 0 .44-.45c0-.02 0-.02-.04 0a3.3 3.3 0 0 1-.6.24h-.05l-.22.05a2.15 2.15 0 0 1-.72-.02 1.07 1.07 0 0 1-.14-.05l.03-.03a.25.25 0 0 0 .07-.07l-.01-.03h-.07c-.15-.02-.31-.05-.45-.1s-.2-.08-.46-.22a5.85 5.85 0 0 0-.22-.12c-.03-.01-.03-.02-.02-.06a11.02 11.02 0 0 0 .23-.84l.03-.08v-.04h.04a.62.62 0 0 0 .18-.08.67.67 0 0 0 .13-.08c.09-.07.2-.2.27-.32.2-.35.28-.78.17-.95a.2.2 0 0 0-.11-.09h-.13Zm.02.37c.03.04.02.16-.03.28-.06.17-.19.3-.33.37l-.04.02c-.02 0 0-.03.05-.17a1.98 1.98 0 0 1 .23-.45c.05-.05.1-.07.12-.05Zm-1.26 2.36c.02 0-.04.13-.09.2a.45.45 0 0 1-.1.12c-.11.08-.19.1-.21.05v-.1c.03-.09.12-.2.2-.24a.4.4 0 0 1 .2-.03Z" fill="#F83B19"/></svg>