<!-- by TradingView --><svg xmlns="http://www.w3.org/2000/svg" width="18" height="18"><path fill="url(#awmax21vn)" d="M0 0h18v18H0z"/><path fill-rule="evenodd" d="M16 9.4v-.73C16 7.75 12.87 7 9 7s-7 .75-7 1.67c0 .92 3.13 1.66 7 1.66 3.19 0 6.15-.24 7-.94zm-7 .26c2.01 0 3.65-.44 3.65-1 0-.55-1.64-1-3.66-1-2.02 0-3.66.45-3.66 1 0 .56 1.64 1 3.66 1z" fill="url(#bwmax21vn)"/><path d="M16 9.4c0 .88-3.13 1.6-7 1.6-3.19 0-6.08-.45-7-1.33v-.98c.82 1.09 5 1.6 7 1.64 1.33-.01 3.5-.4 3.5-1 0-.52-2.46-1-3.5-1-2.1.01-3.23.55-3.43.69a.4.4 0 01-.11-.7c.6-.49 2.26-.65 3.54-.65 3.87 0 7 .84 7 1.72z" fill="url(#cwmax21vn)"/><defs><linearGradient id="awmax21vn" x1="3.35" y1="3.12" x2="21.9" y2="24.43" gradientUnits="userSpaceOnUse"><stop stop-color="#1A1E21"/><stop offset="1" stop-color="#06060A"/></linearGradient><linearGradient id="bwmax21vn" x1="16" y1="8.98" x2="2" y2="8.75" gradientUnits="userSpaceOnUse"><stop stop-color="#3A673C"/><stop offset=".62" stop-color="#C7C7C6"/><stop offset="1" stop-color="#121212"/></linearGradient><linearGradient id="cwmax21vn" x1="16" y1="9.39" x2="2" y2="9.39" gradientUnits="userSpaceOnUse"><stop stop-color="#121212"/><stop offset=".41" stop-color="#A4A4A4"/><stop offset=".59" stop-color="#E1E1E1"/><stop offset=".71" stop-color="#E1E1E1"/><stop offset="1" stop-color="#6F6F6E"/></linearGradient></defs></svg>