<!-- by TradingView --><svg width="18" height="18" viewBox="0 0 18 18" xmlns="http://www.w3.org/2000/svg"><path fill="#F0F3FA" d="M0 0h18v18H0z"/><path d="m12.95 10.92.4-.1.17-.01c.02 0 .04-.02.04-.04s0-.03-.02-.04a.25.25 0 0 0-.16-.02l.14-.05c.05-.02.08-.06.07-.12a1 1 0 0 1 0-.34c0-.04.02-.07.05-.1l.25-.27a.18.18 0 0 0 .03-.05c.05-.13 0-.2-.17-.2a.16.16 0 0 1-.13-.05c-.2-.23-.4-.28-.58-.17a.88.88 0 0 1-.25.1c-.09.02-.13.07-.14.16 0 .1.03.15.12.17.15.04.18.14.08.3a.38.38 0 0 1-.24.18c-.1.02-.18 0-.25-.06l-.15-.15a.25.25 0 0 0-.24-.08.25.25 0 0 0-.2.16l-.16.38c-.04.11-.12.14-.23.1l-.79-.37c-.07-.03-.1-.08-.09-.16 0-.08.05-.12.12-.14.03 0 .08 0 .17.03.06.02.1.06.14.11.06.1.12.19.2.26.07.06.16.1.26.1s.17-.04.22-.11c.1-.12.1-.26 0-.4a.16.16 0 0 0-.1-.08 1.13 1.13 0 0 1-.61-.38.15.15 0 0 1-.03-.15c.06-.2.2-.4.4-.62a.16.16 0 0 1 .12-.05h.42l.03-.01c.05-.03.06-.08.03-.15-.01-.04-.04-.05-.08-.04l-.05.02h-.09l-.9-.26c-.06-.02-.09-.06-.09-.11 0-.06.03-.1.08-.12h.05c.08.02.13-.02.15-.1a.36.36 0 0 0 0-.14c.05.05.1.07.13.05.05-.03.07-.07.07-.12-.01-.06-.05-.1-.11-.1-.07 0-.1.04-.11.1l.02.07c-.1-.1-.1-.22 0-.36.07-.1.05-.18-.06-.24-.28-.17-.54-.18-.78-.05a.1.1 0 0 1-.1 0 .1.1 0 0 1-.04-.11l.07-.26c.02-.07 0-.1-.08-.1-.17.01-.29.09-.35.21-.03.06-.07.07-.13.06-.19-.05-.36-.12-.51-.2a.19.19 0 0 0-.18-.01c-.06.02-.08.06-.07.12 0 .01-.02.03-.06.05-.04.03-.07.02-.08-.03a.6.6 0 0 0-.14-.2c-.1-.12-.15-.23-.14-.34.05.05.1.07.16.06.05-.02.08-.05.1-.1 0-.07-.02-.12-.09-.15a1.41 1.41 0 0 0-.33-.06c-.05 0-.1.01-.14.04-.12.07-.11.14.02.21-.07.1-.1.16-.08.22.03.08.02.17-.03.25a.32.32 0 0 1-.22.15c-.16.04-.36.12-.58.25-.03.02-.04.04-.04.07.01.03.03.04.05.05.06.01.04-.03-.06-.13-.01-.02-.03-.02-.04 0-.01 0-.02.02-.01.03l.22.5a.64.64 0 0 1-.14-.16.47.47 0 0 0-.13-.13.47.47 0 0 0-.4-.02l-.02.04c0 .02 0 .04.03.04.12.05.28.18.47.4.03.04.06.05.1.05.05 0 .07-.03.08-.08.1.1.05.2-.12.34a.18.18 0 0 0-.07.19c.01.08.06.13.13.15l.12.03c.05.01.07.05.06.1 0 .04-.04.07-.09.06-.1 0-.2-.04-.26-.08-.05-.03-.07-.02-.07.04v.18c0 .05.02.1.06.12.08.04.17.06.26.04.03 0 .06-.01.08-.03l.62-.38a.1.1 0 0 1 .04-.01l.64-.06c.09 0 .16.02.22.08l.02.02c.04.04.1.07.15.08.18.05.31.14.4.27.02.03.02.06 0 .08-.03.03-.06.03-.09 0-.23-.17-.38-.21-.43-.12-.02.03-.05.04-.08.03a1.05 1.05 0 0 0-.68.05 1.3 1.3 0 0 1-.28.07.81.81 0 0 0-.38.13.15.15 0 0 1-.15.03l-.67-.2a.09.09 0 0 1-.07-.08c0-.1-.07-.15-.18-.15-.04 0-.06.02-.05.05 0 .03-.02.05-.06.07-.04.02-.07 0-.08-.04-.03-.09-.1-.13-.19-.12-.15.01-.27-.07-.35-.25-.02-.06-.07-.08-.12-.06-.06.02-.09.06-.08.12.02.13 0 .24-.08.35a.8.8 0 0 0-.08.13c-.07.16-.13.26-.18.3-.05.03-.06.07-.01.11l.11.12c.02.02.03.04.02.07a.06.06 0 0 1-.06.04c-.27 0-.54.14-.8.4a.16.16 0 0 0-.05.12v.06c0 .08-.04.11-.12.1-.14-.01-.22.02-.24.08l-.7-.19a.34.34 0 0 1-.22-.17.35.35 0 0 1-.04-.27l.1-.33c0-.01 0-.02.02-.03l.34-.14a.1.1 0 0 0 .07-.08.1.1 0 0 0-.03-.1.4.4 0 0 1-.12-.36c0-.05-.01-.08-.05-.1a.52.52 0 0 1-.23-.2c-.04-.07-.02-.11.05-.13l.34-.08c.06 0 .1-.03.13-.08a.58.58 0 0 1 .57-.22c.21.03.33-.01.37-.14a.12.12 0 0 1 .07-.09l.52-.21a.06.06 0 0 0 .03-.06.06.06 0 0 0-.03-.05l-.36-.15a.27.27 0 0 0-.2-.01c-.16.06-.35.08-.55.07-.05 0-.08-.03-.08-.08-.01-.04 0-.08.05-.1l1.32-.54h.04l.5.22c.05.02.08.01.11-.02a.1.1 0 0 0 .03-.1l-.1-.27c-.03-.06-.08-.09-.14-.08-.16.01-.24-.1-.25-.32 0-.06.02-.1.06-.13.09-.06.18-.1.27-.12.06-.02.1 0 .12.05 0 .03.02.05.02.05.05.06.11.08.18.05.07-.04.1-.1.09-.17-.02-.1-.05-.16-.1-.17-.1 0-.15-.02-.12-.06l.04-.06c.01-.02.04-.04.07-.03.08.02.15.02.21 0 .07 0 .1-.05.1-.12-.05-.32.1-.5.4-.55.06 0 .09-.04.09-.1V4.5c0-.07.03-.11.1-.12.2-.02.32 0 .37.05.09.1.2.14.34.1a.49.49 0 0 0 .33-.25c.03-.06.08-.09.16-.1.06 0 .11-.02.17-.05.17-.1.32-.14.43-.13.1.02.23.1.4.22.08.07.18.11.28.13a2.2 2.2 0 0 1 .7.2c.2.12.28.28.23.48-.01.06 0 .08.07.07.19-.04.34 0 .46.15.05.06.1.1.18.1.08 0 .14-.02.2-.07.11-.09.2-.16.29-.21a.17.17 0 0 1 .1-.03c.08 0 .17.11.28.32.04.07.09.08.15.03.13-.12.28-.11.44.03.04.04.04.07 0 .1-.11.08-.15.15-.12.2.01.02.03.03.05.03l.17-.03c.04 0 .06.01.07.05l.02.04c.01.05 0 .08-.04.09l-.2.07a.2.2 0 0 0-.13.11c-.08.15-.2.24-.4.27-.05 0-.07.03-.05.08l.01.04c.01.03.03.04.05.03.17-.07.28 0 .3.2.01.03.03.05.06.05s.04-.01.05-.04l.03-.11c.01-.03.03-.04.06-.04s.04.02.05.05c0 .17.06.24.17.23.07-.01.12 0 .17.06l.03.03c.04.03.1.04.15.02.38-.1.64.04.77.4.01.05.04.08.09.09.2.04.28.14.25.3a.25.25 0 0 1-.15.2.31.31 0 0 1-.27-.02 3.89 3.89 0 0 1-.22-.11h-.04c-.02.01-.02.03-.01.04.05.13 0 .25-.13.35a.22.22 0 0 0-.09.15v.04c0 .08-.05.11-.13.1a.3.3 0 0 1-.12-.07h-.06a.05.05 0 0 0-.02.06c.01.08.04.15.1.23.06.07.11.07.17 0 .27-.41.65-.54 1.15-.4.02.01.03.03.03.05 0 .02 0 .04-.03.04l-.25.1a.2.2 0 0 0-.13.12.2.2 0 0 0 .01.17c.16.27.41.43.77.5.03.01.04.03.05.05 0 .03-.01.05-.03.07l-.08.04c-.06.04-.08.09-.05.15l.28.57-.01.03a.1.1 0 0 1-.04.02h-.03c-.11-.1-.21-.14-.3-.12-.06.02-.07.05-.04.1.05.07.1.12.16.15.04.02.05.06.04.1 0 .05-.03.07-.08.08-.18.02-.25.15-.21.39 0 .06.03.1.08.12l.24.1c.03.01.04.03.04.05 0 .03-.01.04-.04.05l-.05.03h-.02l-.6-.49a.08.08 0 0 0-.09 0 .08.08 0 0 0-.04.08v.08c0 .03 0 .05-.02.07a.07.07 0 0 1-.08.01l-.03-.02a.13.13 0 0 0-.1-.02c-.28.05-.56.03-.83-.06Z" fill="#3B443C"/><path d="M8.28 4.29c.01-.02.04-.04.09-.06.02 0 .03 0 .03.03s0 .04-.02.05a.08.08 0 0 1-.07.02c-.02 0-.03-.02-.03-.04ZM9.49 4.55c.01.03-.08.13-.29.31-.03.03-.06.04-.08.04-.03 0-.06-.02-.08-.05-.02-.03-.03-.06-.01-.1 0-.02.03-.04.07-.05.24-.12.37-.17.39-.15ZM8.35 4.62c.18.07.27.21.26.43 0 .02-.01.04-.04.04-.02 0-.04 0-.05-.02l-.22-.39a.04.04 0 0 1 0-.05c.01-.01.03-.02.05-.01ZM9.64 5.42c0 .02-.02.02-.03.01h-.02c-.14-.06-.17-.17-.1-.35l.01-.05c.07-.18.18-.24.32-.19l.01.01c.01 0 .02.01.01.03l-.2.54ZM9.22 5.9c-.01-.06-.1-.16-.24-.3-.05-.05-.05-.1 0-.14a.18.18 0 0 1 .13-.04c.03 0 .05.02.06.05.01.11.06.23.16.37.01.03 0 .05-.01.06l-.03.02c-.04.03-.06.02-.07-.02ZM11.74 5.65c.02-.06.08-.12.18-.19.04-.02.07 0 .1.06.03.05 0 .12-.06.2-.04.06-.1.07-.16.05-.06-.02-.08-.06-.06-.12ZM10.25 6.3c-.06-.08-.07-.18-.04-.3 0-.02.01-.04.03-.04.03 0 .04 0 .05.03.05.13.15.16.3.1.06-.03.08-.07.07-.13l-.03-.16c0-.02 0-.04.02-.05.02-.04.05-.06.08-.07.05 0 .07.02.06.06 0 .17.05.28.17.33.05.02.1.01.15-.03l.13-.1c.04-.04.07-.04.1 0l.05.06c.03.04.02.06-.02.06l-.94.16a.4.4 0 0 0-.1.04l-.02.03c-.01.04-.03.04-.06 0ZM8.3 6.3a.16.16 0 0 0-.12-.1c-.05 0-.1.03-.17.1-.13-.08-.14-.15-.02-.22a.21.21 0 0 1 .14-.04l.33.06c.07.03.1.08.08.16 0 .04-.04.07-.1.09-.05 0-.1-.01-.15-.06ZM6.7 6.3a.1.1 0 0 1-.1.07.12.12 0 0 1-.13-.07v-.05c.07-.06.13-.06.2 0l.03.05Z" fill="#F0F3FA"/><path d="M8.3 6.3c-.02.1.03.21.13.32a.6.6 0 0 1 .14.21c.01.05.04.06.08.03.04-.02.06-.04.06-.05-.01-.06.01-.1.07-.12a.19.19 0 0 1 .18 0c.15.09.32.16.51.2.06.02.1 0 .13-.05.06-.12.18-.2.35-.21.07 0 .1.03.08.1l-.07.26a.1.1 0 0 0 .03.1.1.1 0 0 0 .11.01c.24-.13.5-.12.78.05.1.06.13.14.06.24-.1.14-.1.25 0 .36v.15c-.02.07-.07.1-.15.1h-.05c-.05.01-.08.05-.08.1 0 .06.03.1.09.12l.9.25h.14c.04-.02.07-.01.08.03.03.07.02.12-.03.15H11.39c-.05 0-.1.02-.13.06-.2.22-.33.42-.4.62 0 .06 0 .1.04.15.16.2.36.32.6.38.05.01.09.04.11.08.1.14.1.28 0 .4a.28.28 0 0 1-.22.1.36.36 0 0 1-.26-.1 1.05 1.05 0 0 1-.2-.25.23.23 0 0 0-.14-.11.47.47 0 0 0-.17-.03c-.07.02-.11.06-.12.14 0 .08.03.13.1.16l.78.36c.1.05.19.02.23-.09l.16-.38c.04-.09.1-.14.2-.16.1-.02.17 0 .24.08l.15.15c.07.07.15.08.25.06.1-.02.18-.08.24-.17.1-.17.07-.27-.08-.3-.09-.03-.13-.09-.12-.18 0-.09.05-.14.14-.17.11-.02.2-.05.25-.09.19-.11.38-.06.58.17.03.04.08.06.13.06.16 0 .22.06.17.2l-.03.04-.25.26a.22.22 0 0 0-.05.11 1 1 0 0 0 0 .34c0 .06-.02.1-.07.12l-.14.05a.28.28 0 0 0-.03.1l-.4.11-.28-.18a.1.1 0 0 0-.1 0l-.6.2a.15.15 0 0 0-.1.1c-.01.07 0 .11.04.15l.1.1c.04.05.04.1 0 .15l-.01.01c-.05.04-.04.08 0 .11.05.04.11.05.18.05.04 0 .07 0 .08.05.02.04 0 .07-.02.1a.33.33 0 0 1-.2.06c-.08 0-.1-.04-.1-.1.02-.05.02-.09.02-.12a.1.1 0 0 0-.05-.07.09.09 0 0 0-.1 0l-.16.1a.14.14 0 0 1-.1 0l-.42-.11a.09.09 0 0 1-.06-.08c-.01-.03 0-.06.03-.09a.42.42 0 0 0 .12-.15c.03-.06.01-.1-.05-.12l-.37-.1c-.06-.02-.1 0-.12.07l-.03.11c-.02.06-.06.09-.12.07l-.51-.15a.15.15 0 0 0-.15.03c-.14.12-.22.3-.22.52a.77.77 0 0 1-.44.4c-.14.04-.23-.03-.26-.21a.36.36 0 0 1 0-.29c.04-.08.02-.14-.06-.18-.07-.05-.14-.04-.2.03-.04.04-.13.1-.3.18a.06.06 0 0 1-.06-.01.06.06 0 0 1-.02-.06l.22-.21a.07.07 0 0 0 .03-.07.06.06 0 0 0-.05-.06c-.2-.06-.35-.04-.46.06a.16.16 0 0 1-.14.04.66.66 0 0 0-.34.04.12.12 0 0 0-.07.05l-.21.31c-.03.05-.08.06-.14.04-.02-.01-.04 0-.05.04 0 .03-.02.04-.05.05a.57.57 0 0 1-.42.02.07.07 0 0 1-.05-.06c0-.03 0-.06.03-.08a.5.5 0 0 1 .22-.1c.12-.02.22-.09.29-.19l.04-.07c.04-.05.02-.08-.04-.08-.2 0-.35.04-.48.13a.28.28 0 0 1-.21.05l-.9-.14a.78.78 0 0 0-.43.02c-.3-.08-.48-.17-.56-.29a.21.21 0 0 0-.18-.09.21.21 0 0 0-.19.1c-.08.12-.15.27-.2.43-.03.12-.1.16-.22.13l-.44-.13c-.05-.01-.06-.04-.01-.07.09-.06.17-.06.24 0 .04.03.08.04.12.01l.27-.16c.04-.02.04-.05.01-.08-.04-.05-.08-.05-.11-.02-.02.01-.03 0-.06-.02a.13.13 0 0 1-.02-.07c0-.05.01-.08.05-.1.04-.02.08-.01.11.02.11.12.17.16.17.14a.18.18 0 0 0-.07-.17.18.18 0 0 0-.18-.03c-.03 0-.07 0-.12-.04-.06-.05-.06-.1 0-.16l.26-.23c.02-.06.1-.09.24-.07.08 0 .12-.03.12-.11v-.06c0-.05.02-.09.05-.12.26-.26.53-.4.8-.4.03 0 .05-.02.06-.04 0-.03 0-.05-.02-.07l-.11-.12c-.05-.04-.04-.08 0-.12.06-.03.12-.13.2-.29a.8.8 0 0 1 .07-.13c.08-.1.1-.22.08-.35 0-.06.02-.1.08-.12.05-.02.1 0 .12.06.08.18.2.26.35.25.1 0 .16.03.19.12.01.05.04.06.08.04.04-.02.06-.04.06-.07 0-.03.01-.05.05-.05.11 0 .18.06.18.15 0 .05.03.08.07.09l.67.19c.06.02.1 0 .15-.03.07-.06.2-.1.38-.13.12-.02.22-.04.28-.07.2-.09.43-.1.68-.05.03.01.06 0 .08-.03.05-.1.2-.05.43.13.03.02.06.02.09 0 .02-.03.03-.06 0-.1A.68.68 0 0 0 9 8.7a.32.32 0 0 1-.17-.1.26.26 0 0 0-.22-.08l-.64.06a.1.1 0 0 0-.04.01l-.62.38a.21.21 0 0 1-.08.03c-.1.02-.18 0-.26-.04a.13.13 0 0 1-.06-.12v-.18c0-.06.02-.07.07-.04.07.04.16.07.26.08.05 0 .08-.02.1-.07 0-.04-.02-.08-.07-.09l-.12-.03a.18.18 0 0 1-.13-.15.18.18 0 0 1 .07-.19c.17-.13.21-.25.12-.34l.01-.14-.22-.5.01-.04h.04c.1.1.12.15.07.14a.06.06 0 0 1-.06-.05c0-.03.01-.05.04-.07.22-.13.42-.21.58-.25.1-.02.17-.07.22-.15a.29.29 0 0 0 .03-.25c-.02-.06.01-.13.08-.22.06-.06.12-.09.17-.08.04 0 .08.03.11.08Z" fill="#2A342A"/><path d="m11.86 7.08.2.5c.02.06 0 .1-.04.11l-.1.04a.08.08 0 0 1-.08-.01.08.08 0 0 1-.03-.09c.01-.1-.02-.17-.1-.23-.1-.06-.12-.12-.1-.18l.11-.16a.07.07 0 0 1 .08-.03c.02 0 .05.02.06.05ZM13.2 7.5c0-.1.05-.19.11-.24.06-.05.1-.04.11.03.04.13-.01.22-.14.28l-.06-.01a.06.06 0 0 1-.03-.05ZM10.94 7.75a.23.23 0 0 1-.02-.07c0-.06.04-.1.1-.1.07 0 .1.04.12.1 0 .05-.02.09-.07.12-.03.02-.08 0-.13-.05Z" fill="#F0F3FA"/><path d="M10.53 8.14c0 .03-.01.05-.06.04-.03 0-.04-.01-.04-.04 0-.06-.07-.19-.24-.4V7.7l.05-.02c.13.03.2.1.23.18l.06.29ZM8.2 9.17c.01-.03.05-.04.1-.05.07-.01.1.01.12.07.02.04 0 .08-.04.1a.13.13 0 0 1-.13-.01c-.04-.03-.05-.06-.04-.1ZM6.12 9.66c.13-.09.3-.1.52-.05.04.01.07.04.1.08l.04.13c.01.04 0 .07-.05.1a.14.14 0 0 1-.14-.02c-.17-.1-.32-.15-.45-.16-.02 0-.03-.01-.04-.03 0-.02 0-.04.02-.05ZM5.21 9.95c.06 0 .1-.01.14-.06.1-.13.26-.17.45-.11.03 0 .04.02.04.05 0 .03 0 .05-.03.06l-.45.27c-.06.03-.11.02-.15-.04l-.05-.1a.05.05 0 0 1 0-.05.05.05 0 0 1 .05-.02Z" fill="#3B443C"/><path d="M10.07 10.18c-.05.03-.13 0-.23-.12-.03-.04-.05-.08-.04-.12 0-.04.03-.08.07-.1.05-.03.1-.04.13-.02.04.02.07.05.08.1.05.15.04.23-.01.26Z" fill="#F0F3FA"/><path d="m6.69 10.4-.05-.26c0-.02 0-.04.03-.06.03 0 .05 0 .07.02.06.08.09.14.09.19 0 .07-.03.12-.07.14-.04.02-.07 0-.07-.04Z" fill="#3B443C"/><path d="M14.25 10.57c0 .02-.02.03-.05.03l-.04-.02c-.17-.05-.24-.13-.21-.23l.05-.17c.03-.1.13-.13.3-.07h.04c.03.02.04.03.03.06l-.12.4Z" fill="#F0F3FA"/><path d="M5.33 10.64c-.02.01-.09 0-.2-.02a.05.05 0 0 1-.05-.04c0-.02 0-.04.03-.05.04-.03.1-.03.2.01.07.03.07.06.02.1Z" fill="#3B443C"/><path d="M13.38 10.7c.07 0 .12 0 .16.03.02 0 .03.02.02.04 0 .02-.02.03-.04.04h-.17c0-.03.01-.07.03-.1ZM11.36 11.41c-.03 0-.04-.02-.03-.05v-.02c.03-.18.1-.26.24-.24h.03c.13.03.19.13.16.3v.03c-.01.03-.03.04-.06.04l-.34-.06Z" fill="#F0F3FA"/><path d="M5.1 11.28c.15-.05.3-.06.43-.02-.02.05-.09.06-.21.04-.1-.02-.17.01-.21.1-.09.16-.16.25-.2.26a.17.17 0 0 1-.18-.05.5.5 0 0 0-.28-.17c-.05-.01-.07-.04-.07-.1 0-.05.02-.08.07-.1.15-.03.3 0 .45.1.06.04.11.03.16-.02a1 1 0 0 0 .04-.04ZM9.65 11.63l.04.73a.48.48 0 0 1-.22-.05.16.16 0 0 0-.14 0c-.06.01-.1.06-.13.14a.16.16 0 0 1-.07.08.28.28 0 0 1-.22.02l.04-.73c.03.18.12.25.26.2a.77.77 0 0 0 .44-.4ZM11.33 11.8c0 .04-.03.07-.09.08-.02 0-.04 0-.05-.02a.18.18 0 0 1-.05-.1c0-.04.01-.06.05-.04l.12.05.02.03Z" fill="#3B443C"/><path d="M9.69 12.36c.05.23.2.41.43.54.02.01.03.03.02.06 0 .03-.02.04-.05.04H8.5c-.02 0-.03 0-.04-.02-.04-.04-.03-.08.04-.11.16-.07.3-.18.42-.32.08.03.15.02.22-.02a.16.16 0 0 0 .07-.08c.03-.08.08-.12.13-.15.05-.01.1-.01.14.01.07.03.14.05.22.05Z" fill="#2A342A"/></svg>