<!-- by TradingView --><svg width="18" height="18" xmlns="http://www.w3.org/2000/svg"><path fill="#C5013D" d="M0 0h18v18H0z"/><path d="M13.248 4.783c-1.156-1.155-2.573-1.752-4.251-1.752-1.64 0-3.058.597-4.214 1.752C3.628 5.94 3.031 7.356 3.031 8.997c0 1.64.597 3.057 1.752 4.213 1.156 1.156 2.573 1.753 4.214 1.753 1.678 0 3.095-.597 4.25-1.753C14.404 12.054 15 10.637 15 8.997c0-1.64-.597-3.058-1.752-4.214z" fill="#fff"/><path d="M9.003 3.963c-1.38 0-2.541.516-3.51 1.523-.97.932-1.461 2.131-1.461 3.51 0 1.343.497 2.536 1.43 3.543 1.006.932 2.199 1.414 3.541 1.414 1.38 0 2.573-.482 3.543-1.414.969-1.007 1.444-2.162 1.444-3.542v-.218h-3.542v.435h3.092v.078c-.075 1.156-.556 2.163-1.414 2.983-.895.82-1.93 1.227-3.123 1.227-1.267 0-2.312-.44-3.17-1.336-.894-.857-1.35-1.901-1.35-3.17 0-1.23.456-2.305 1.35-3.2.859-.894 1.903-1.351 3.17-1.351h.249v-.482h-.249zm-1.91 2.393c-.485 0-.7.214-.7.699s.215.746.7.746c.484 0 .745-.261.745-.746s-.26-.7-.746-.7zm1.677 0v5.25h1.678v-.48H9.252v-4.77H8.77z" fill="#C5013D"/></svg>