<!-- by TradingView --><svg width="18" height="18" viewBox="0 0 18 18" xmlns="http://www.w3.org/2000/svg"><path fill="url(#aeja4zo33)" d="M0 0h18v18H0z"/><path d="M5.58 6.02A3 3 0 0 1 5.91 6h6.25c.66 0 1.32.26 1.82.7.43.38.75.88.9 1.44.2.7.15 1.47-.14 2.12a2.9 2.9 0 0 1-1.98 1.67c-.37.1-.76.07-1.15.07H6.24l-.62-.01a2.79 2.79 0 0 1-1.73-.81 3.15 3.15 0 0 1-.81-2.88c.13-.57.41-1.08.81-1.48a2.78 2.78 0 0 1 1.7-.8ZM6.05 8c-.66.01-1.01.36-1.05 1-.06.84.42 1 1.22 1h5.7c.75-.02 1.07-.31 1.08-1 .01-.78-.36-1-1.1-1H6.05Z" fill="#fff"/><defs><linearGradient id="aeja4zo33" x1="3.35" y1="3.12" x2="21.9" y2="24.43" gradientUnits="userSpaceOnUse"><stop stop-color="#1A1E21"/><stop offset="1" stop-color="#06060A"/></linearGradient></defs></svg>