<!-- by TradingView --><svg width="18" height="18" xmlns="http://www.w3.org/2000/svg"><path fill="#F0F3FA" d="M0 0h18v18H0z"/><path d="M7.337 5.908l5.183-1.883c.361-.131.47.288.48.515v1.853c-2.01.123-6.024.294-6 0a.575.575 0 01.337-.485z" fill="#0F5BA6"/><path d="M7 6.442c0-.328.275-.431.412-.442h6.055c.413 0 .526.295.53.442.002 2.16.005 6.587 0 7.013-.005.425-.27.54-.403.545-1.917-.004-5.836-.01-6.182 0-.346.009-.419-.281-.412-.428v-7.13z" fill="#24C0DD"/><path fill="#F2C717" d="M5 5h1v1H5zM3 8h1v1H3z"/><path fill="#19AAB6" d="M5 8h1v1H5z"/><path fill="#F2C717" d="M6 9h1v1.003H6z"/><path fill="#19AAB6" d="M5 10.003h1V11H5z"/><path fill="#F2C717" d="M4 11h1v1H4z"/><path fill="#0F5BA6" d="M7 10h1v1H7z"/><path fill="#19AAB6" d="M6 11.999h1v1H6z"/><path fill="#0F5BA6" d="M9 11h1v1H9zM7 8h1v1H7z"/><path fill="#fff" d="M10 6h1v1h-1z"/><path fill="#0F5BA6" d="M10 8h1v1h-1z"/><path fill="#fff" d="M11 11h1v1h-1z"/></svg>