<!-- by TradingView --><svg xmlns="http://www.w3.org/2000/svg" width="18" height="18"><path fill="#DC1E34" d="M0 0h18v18H0z"/><path d="M8.57 15c-.06 0-.45-.1-.49-.23a9.3 9.3 0 01.08-3.99c.07-.17.12-.32-.01-.26-.02.01-.06.01-.13-.06-.08-.1-.45.21-.5.28-.07.07-.22.04-.25-.12v-.13c.02-.07.02-.1-.11-.1-.54.06-1.2.18-1.69.44-.22.11-.25-.1-.24-.14.02-.03.15-.23.24-.32-.05 0-.17-.01-.28-.04-.18-.06-.46.05-.72.15-.17.07-.34.13-.46.14-.02-.03-.01-.13.13-.3.14-.15.82-.58 1.14-.77.04-.05.08-.16-.09-.24a1.2 1.2 0 00-.26-.07c-.2-.03-.42-.08-.59-.24-.2-.2.07-.21.23-.2.28-.03.93-.14 1.24-.3.08-.04.15-.14-.15-.25a4.57 4.57 0 00-.5-.3c-.5-.27-1.15-.63-1.1-.82.02-.12.73-.04 1.37.03.47.05.9.1 1.03.07.07-.01.15-.06-.03-.15a2.96 2.96 0 00-.23-.1 1.02 1.02 0 01-.39-.21c-.04-.06.03-.08.1-.1.12-.04.24-.08 0-.25l-.23-.15c-.2-.13-.37-.23-.35-.36.02-.14.49-.03.72.04.16.03.43 0 .27-.31-.16-.32-.44-.78-.55-.97-.03-.05-.04-.15.08-.17.27-.04.58.33.8.61l.19.21c.04.04.13.1.15 0-.07-.19-.16-.58 0-.61.22-.06.36.14.5.33.15.23.31.46.6.34.09.04.3.1.41-.06.15-.19.16-.5.08-.9-.04-.09-.1-.27-.03-.31l.08-.51c.16-.02.27.13.37.28.1.15.2.3.37.27.11-.01.42-.72.57-1.07.03-.04.1-.12.14-.05.04.06.1.04.13.02.02 0 .06.02.03.14-.03.14-.2 1.18-.03 1.2.12.03.3-.04.5-.1.2-.07.4-.14.5-.08.05.2.09.66-.16 1 .04.03-.14.63-.16.65-.11.09-.56.78-.34 1.08.18.23 1.1-.58 1.54-1.01.12-.12.37-.32.48-.21.03.03.03.18-.16.49l-.18.45c-.02.08.2.1.32.11l1.1.04c.13 0 .37.01.35.13-.02.11-.31.28-.63.46l-.25.15c-.06.04-.14.15.04.2.18.05.4.15.5.19.05.02.13.11 0 .25-.14.13-.98.52-1.38.7-.07.03-.16.1 0 .17.3.07 1.01.21 1.38.16.04.02.1.09 0 .2a9.56 9.56 0 01-1.38-.29c-.06-.02-.19-.08-.22-.17-.05.04-.11.12 0 .17.11.05.92.29 1.32.4l.09.06.1.07c.02.04 0 .13-.2.22-.09.04-.4.02-.73 0-.47-.04-.99-.08-1.02.05-.02.15.25.54.4.72.11.12.3.45.14.79a10.64 10.64 0 01-.71-.37c.04.03.13.13.21.28.11.13.18.3.24.46.09.2.17.4.33.55.16.18-.04.3-.21.17l-.63-.45c-.27-.19-.54-.38-.81-.59-.03-.02-.1-.05-.1.02v.06c-.02.1-.05.27 0 .87 0 .03-.02.08-.08 0l-.18-.23c-.21-.27-.46-.59-.54-.86-.03-.04-.08-.08-.12.03-.04.13-.12.25-.24.25-.09 0-.12-.14-.15-.3-.05-.2-.1-.42-.27-.42-.15 0-.28.19-.38.67-.1.47-.06 2.48-.06 2.48a54.44 54.44 0 00.14.75c.03.07.03.1-.03.19zm2.09-7.49c-.01-.05-.07-.13-.22-.07l-.13-.07c0-.05-.02-.14-.11-.13-.09.02-.04-.06 0-.1-.09 0-.3-.01-.4-.1 0-.1 0-.28-.1-.3 0 .08-.05.25-.12.3 0 .06-.04.2-.08.2s-.12-.17-.15-.25l-.18.21c.07 0 .17 0 .1.17a.41.41 0 01-.15.18.7.7 0 00-.28.4c.01.1.02.37-.04.66a.21.21 0 00-.06.23c-.01.06-.06.19-.15.24a.9.9 0 010 .5v.05c.03.08.06.22.03.33.1.01.32-.01.43-.21-.1-.1-.31-.29-.31-.35 0-.09.15-.1.2 0 .06 0 .18.06.18.24.09-.07.3-.24.38-.38a.8.8 0 01.66-.18c.05-.03.15-.08.2-.04.03 0 .1.04.08.1.11 0 .34-.03.37-.1.02-.08-.13-.12-.21-.13 0-.08-.02-.24-.1-.3a.78.78 0 01-.3.13c0 .04-.02.1-.1.1-.06 0-.1.07-.12.1a.39.39 0 00-.22 0c.04-.08.07-.22-.22-.03-.12.05-.36.09-.42-.17-.02-.08-.04-.24 0-.25.06 0 .26-.03.2-.28l.35-.11a.86.86 0 00-.1.31c.03.07.14.03.19 0h.1c.1-.05.26-.18.12-.24H9.8v-.15l.86-.5z" fill="#fff"/></svg>