<!-- by TradingView --><svg xmlns="http://www.w3.org/2000/svg" width="18" height="18"><path fill="#F0F3FA" d="M0 0h18v18H0z"/><path fill="#A0ADD9" d="M5 6h1v6H5z"/><path d="M8.5 3H9v12h-.5z"/><path d="M12.48 6c.63.04 1.09.2 1.24.28l-.09.82c-.14-.06-.56-.2-1.15-.25-.75-.07-.91.34-.91.54 0 0-.13.72.91 1.13 1.04.4 1.52 1.14 1.52 1.87 0 1.15-1 1.56-1.79 1.6a4.8 4.8 0 01-1.63-.26l.09-.88c.26.2 1.16.33 1.54.3.39-.02.79-.3.79-.76 0-.58-.53-.83-.93-1.02-.4-.2-1.5-.78-1.5-1.89.02-1.1 1.13-1.52 1.91-1.48z" fill="#0D4B96"/></svg>