<!-- by TradingView --><svg xmlns="http://www.w3.org/2000/svg" width="18" height="18" viewBox="0 0 18 18"><path fill="url(#agnvkj4us)" d="M0 0h18v18H0z"/><path d="M8.4 6.5v.9h1.45c.4 0 .85.2.85.74s-.35.86-.75.86H8.44l1.84 2.5h1.22l-1.31-1.75c.66 0 1.41-.64 1.41-1.61 0-.86-.7-1.64-1.32-1.64H8.4Zm3.36 0h1.12l1 1.72 1.07-1.72H16l-1.63 2.46L16 11.5h-1.05l-1.06-1.78-1.13 1.78h-1l1.62-2.54-1.62-2.46ZM3 6.5H2v5h3v-.9H3V6.5Zm5 0v.9H7v4.1H6V7.4H5v-.9h3Z" fill="#fff"/><defs><linearGradient id="agnvkj4us" x1="-7.75" y1=".75" x2="18" y2="18" gradientUnits="userSpaceOnUse"><stop offset=".28" stop-color="#C82F26"/><stop offset=".77" stop-color="#E94924"/></linearGradient></defs></svg>