<!-- by TradingView --><svg xmlns="http://www.w3.org/2000/svg" width="18" height="18" viewBox="0 0 18 18"><path fill="url(#ajv1juqgx)" d="M0 0h18v18H0z"/><path fill-rule="evenodd" d="M9 14A5 5 0 1 0 9 4a5 5 0 0 0 0 10zM7.05 8.6l.46-.43a.97.97 0 0 0-.07-.07c-.42-.44-1.19-.4-1.7.1s-.58 1.26-.15 1.7c.42.44 1.18.4 1.69-.1l-.34-.45c-.25.25-.62.27-.82.06-.2-.21-.17-.58.07-.82.25-.24.62-.26.82-.05l.04.05zm3.06-.72l-.37 2.22h.7l.27-1.42a.33.33 0 0 1 .65.12l-.24 1.27.74.03.22-1.38a.37.37 0 1 1 .73.12l-.24 1.26h.72l.26-1.45c.04-.27-.12-.82-.64-.82-.51 0-.73.24-.85.37l-.02.03c-.02-.13-.15-.4-.53-.4-.48 0-.69.26-.79.4l.04-.35h-.65zM5.23 9.96c-.14.2-.4.26-.6.13a.43.43 0 0 1-.09-.6c.14-.2.4-.25.6-.12.18.13.23.4.09.6zm2.36-.06c.44.44 1.23.4 1.77-.1.53-.5.6-1.26.16-1.7-.44-.44-1.23-.4-1.77.1-.53.5-.6 1.26-.16 1.7zm.66-.38c.26.13.6-.02.76-.33.16-.3.07-.65-.18-.77-.26-.12-.6.03-.76.33-.16.3-.08.65.18.77z" fill="#fff"/><defs><linearGradient id="ajv1juqgx" x1="9" y1="0" x2="9" y2="18" gradientUnits="userSpaceOnUse"><stop stop-color="#FE2C2D"/><stop offset="1" stop-color="#D42424"/></linearGradient></defs></svg>