<!-- by TradingView --><svg width="18" height="18" viewBox="0 0 18 18" xmlns="http://www.w3.org/2000/svg"><path fill="#F0F3FA" d="M0 0h18v18H0z"/><path d="M8.93 14 4 12.48l1.94-.6v.6s.44.23.7.3v.31h3.47c0-.12.17-.24.28-.3l1.94-.6v-.31l1.67.6L8.93 14ZM9.28 4.9v5.47h.89V6.08l1.1-.56v4.72c0 .9-.73 1.03-1.58 1.03-.84 0-1.52-.13-1.52-1.03V5.66l1.1-.75Zm1.16 1.36v4.4H9V5.45l-.56.38v4.42c0 .74.56.73 1.25.73.7 0 1.31.01 1.31-.73V5.99l-.56.27Z" fill="#00004F"/><path d="M8 6.12v5.58h2.67l-.68 1.09-3.27.05V6.76L8 6.12Zm-1 .83v5.6l2.85-.06.3-.49H7.72V6.6L7 6.96Z" fill="#00004F"/><path d="M8.72 4.02v.89l-.28.15v-.48l-2.16 1.4v6.2l.14.12v.33l-.42-.2V5.82l2.72-1.8ZM9.56 4 12 5.07v6.88l-1.47.53.14-.3 1.05-.41V5.24l-1.89-.71v5.53h-.27V4Z" fill="#00004F"/></svg>