<!-- by TradingView --><svg width="18" height="18" viewBox="0 0 18 18" xmlns="http://www.w3.org/2000/svg"><path fill="#F0F3FA" d="M0 0h18v18H0z"/><path d="M8.04 10.76c-.49.36-.97.84-1.62.83-.5 0-.92-.22-1.1-.54.23.41.54.77.92 1.05 1.6 1.19 5.31 1.21 6.96 0l1.8-1.34c-.82-.6-1.9-.76-2.98-.76s-3.15.16-3.98.76" fill="url(#ag3slxnxm)"/><path d="M5 9.9c0 1.92 2.23 3.09 3.9 3.09h.31c.51.01 1.02-.05 1.52-.2-.1.03-.21.05-.32.05-.66 0-1.41-.4-1.41-.89V8.12C9 6.39 7.33 5 5 5v4.9Z" fill="url(#bg3slxnxm)"/><path d="M10.41 12.84c-.66 0-1.41-.4-1.41-.89v-1.8c-.42.15-.6.35-.96.61l-.78.58c-.25.17-.54.33-.84.33-.5 0-.93-.29-1.11-.6.73 1.33 2.35 1.9 3.8 1.93h.1c.5 0 .98-.06 1.45-.19a1.4 1.4 0 0 1-.25.03" fill="#502C1E"/><defs><linearGradient id="ag3slxnxm" x1="5.32" y1="11.42" x2="14" y2="11.42" gradientUnits="userSpaceOnUse"><stop offset=".35" stop-color="#39B54A"/><stop offset="1" stop-color="#D7DF23"/></linearGradient><linearGradient id="bg3slxnxm" x1="7.86" y1="13" x2="7.86" y2="5" gradientUnits="userSpaceOnUse"><stop stop-color="#262261"/><stop offset="1" stop-color="#EE2B7B"/></linearGradient></defs></svg>