<!-- by TradingView --><svg width="18" height="18" xmlns="http://www.w3.org/2000/svg"><path fill="#7A5827" d="M0 0h18v18H0z"/><path d="M4.562 12.507c-1.253-.213-1.107 0-1.562.003.165-.385 1.093-.947 1.6-1.32 1.367-.958 1.215-.399 2.468.16 1.215.545 4.825 1.263 5.66-.093.38-.871-1.114-1.237-1.974-1.37-1.392-.213-4.471-.2-5.572-.732-1.013-.479-1.056-1.65-.296-2.434C7.05 4.486 14.443 4.485 15 6.387c-.203.24-1.571.854-2.027 1.027-.287.109-.498.129-.787 0 .136-.072.275-.217.405-.32-.075-1.822-7.477-1.316-6.426.32.506.771 2.743.858 3.82.965 1.214.133 2.362.13 3.311.635 1.38.731 1.353 2.083.404 2.801-.924.679-1.255.84-2.584 1.04-.91.152-2.39.173-3.015.115-1.292-.073-2.123-.221-3.54-.463z" fill="#fff"/></svg>