<!-- by TradingView --><svg width="18" height="18" viewBox="0 0 18 18" xmlns="http://www.w3.org/2000/svg"><path fill="#F0F3FA" d="M0 0h18v18H0z"/><path d="m6 11.2-.41.8A5.07 5.07 0 0 1 4 8.16c0-1.04.25-2.3.67-3.16-.37 4.07.7 5.76 1.33 6.2Z" fill="#D6762E"/><path d="M6.55 11a5.09 5.09 0 0 1-1.53-4c.74 2.3 1.63 3.3 1.98 3.52-.07.09-.26.3-.45.48ZM8.06 12H7c.1-.32.73-2.2 1.22-2.32C12.14 8.76 12.72 5.77 13 5c-.02 1.77-.73 3.8-1.44 4.5-.7.68-2.1.76-2.6.95-.4.14-.77 1.1-.9 1.55Z" fill="#D6762E"/><path d="M9.57 12H9c.35-1.4 2.04-1 2.97-1.8 1.55-1.3 1.67-3.21 1.71-3.57L14 4v2.63c0 1.64-.95 3-1.47 3.67-.52.66-2.07.92-2.45.99-.3.05-.46.5-.51.71Z" fill="#D6762E"/><path d="M7 6.8c0-.62.47-1.46.7-1.8-.08.22-.25.8-.25 1.27 0 .59.55 1.3.55 1.84a2 2 0 0 1-.3.89C7.54 7.6 7 7.56 7 6.8Z" fill="#398743"/><path d="M5 13h8v1H5v-1Z" fill="#D6762E"/></svg>