<!-- by TradingView --><svg width="18" height="18" viewBox="0 0 18 18" xmlns="http://www.w3.org/2000/svg"><path fill="#F0F3FA" d="M0 0h18v18H0z"/><path d="M9 6 3 7.49v3.02L9 12V6Z" fill="url(#a32joztjy)"/><path d="m9 12 6-1.49V7.49L9 6v6Z" fill="url(#b32joztjy)"/><path d="M5.5 8H5v2h1.5v-.5h-1V8ZM10 8h-.56L9 8.6 8.56 8H8l.72 1L8 10h.56L9 9.4l.44.6H10l-.72-1L10 8Z" fill="#fff"/><path fill-rule="evenodd" d="M11.5 8H11v2h.5v-.67h.8c.3 0 .7-.3.7-.66 0-.37-.4-.67-.7-.67h-.8Zm0 .9h.7c.13 0 .23-.1.23-.23s-.1-.24-.22-.24h-.71v.47Z" fill="#fff"/><defs><linearGradient id="a32joztjy" x1="6" y1="6" x2="6" y2="12" gradientUnits="userSpaceOnUse"><stop stop-color="#0C4CA6"/><stop offset="1" stop-color="#02A7E6"/></linearGradient><linearGradient id="b32joztjy" x1="12" y1="12" x2="12" y2="6" gradientUnits="userSpaceOnUse"><stop stop-color="#0C4CA6"/><stop offset="1" stop-color="#02A7E6"/></linearGradient></defs></svg>