<!-- by TradingView --><svg xmlns="http://www.w3.org/2000/svg" width="18" height="18" viewBox="0 0 18 18"><path fill="#F0F3FA" d="M0 0h18v18H0z"/><path d="M10.98 7.83c.01 2.35.04 7.07 0 7.17-2.13-1.27-5.31-1.35-6.63-1.24L4 6.02c3.83-.19 6.25 1.13 6.98 1.81z" fill="url(#a555ctgzr)"/><path d="M9 5.39V12c1.16-1.26 3.15-1.8 4-1.9V3a5.3 5.3 0 0 0-4 2.39z" fill="url(#b555ctgzr)"/><path d="M9 6.73V12a5.78 5.78 0 0 1 2-1.33l-.02-2.84c-.33-.3-1-.74-1.98-1.1z" fill="#007B46"/><defs><linearGradient id="a555ctgzr" x1="10.57" y1="12.2" x2="3.8" y2="11.62" gradientUnits="userSpaceOnUse"><stop offset=".27" stop-color="#7BC144"/><stop offset=".96" stop-color="#F0F3FA"/></linearGradient><linearGradient id="b555ctgzr" x1="9" y1="7.5" x2="13.57" y2="7.3" gradientUnits="userSpaceOnUse"><stop stop-color="#0095D7"/><stop offset=".88" stop-color="#F0F3FA"/></linearGradient></defs></svg>