<!-- by TradingView --><svg width="18" height="18" viewBox="0 0 18 18" xmlns="http://www.w3.org/2000/svg"><path fill="#F0F3FA" d="M0 0h18v18H0z"/><path d="M6.62 5.25c.83-.8 2.2-1.2 3.38-1.25v.65a4.41 4.41 0 0 0-4.35 3.63c-.2.01-.5-.04-.65-.11a5 5 0 0 1 1.62-2.92Zm3.38 7a3.04 3.04 0 0 0-.43-.07 3.19 3.19 0 0 1-2.43-4.69c.05-.1.1-.18.14-.3-.1-.03-.18-.09-.26-.15-.08-.06-.17-.12-.27-.16a3.6 3.6 0 0 0-.65 1.96 3.9 3.9 0 0 0 3.9 4.03v-.62Zm0 1.13A4.5 4.5 0 0 1 5.61 9.6l-.6.09c-.03.48.35 1.38.55 1.73A5.04 5.04 0 0 0 10 14v-.62Zm-1.72-3.3a1.67 1.67 0 0 1-.3-.78c-.14-1.15.69-2.2 2.02-2.28v-.6c-1.15 0-1.98.69-2.36 1.41-.46.9-.3 2.2.31 2.81.14-.05.36-.24.45-.35l-.12-.21Zm-.6-4.19c.83-.5 1.22-.69 2.32-.74v.65c-.38-.02-.77.05-1.11.18-.21.07-.38.17-.54.26l-.31.16-.17-.23c-.07-.1-.15-.19-.19-.28Z" fill="#0AAEFF"/><path d="M9.53 8.06c-.3-.15-.53-.02-.53.3v2.29c0 .3.23.44.53.29l2.25-1.15c.3-.16.3-.4 0-.56L9.53 8.06Z" fill="#FF3030"/></svg>