<!-- by TradingView --><svg width="18" height="18" viewBox="0 0 18 18" xmlns="http://www.w3.org/2000/svg"><path fill="#F0F3FA" d="M0 0h18v18H0z"/><path opacity=".7" d="M4.41 13H3c0-2.7 1.6-9 3.84-9 2.24 0 2.03 5.07 2.77 5.43.75.37.7-3.07 2.67-3.07 1.58 0 2.47 4.43 2.72 6.64h-1.28c-.33-1.82-1.16-5.46-1.84-5.46-.85 0-1.1 3.05-2.27 3.05S7.88 7.32 7.43 6.04c-.46-1.28-1.15-.66-2 1.5A20.31 20.31 0 0 0 4.4 13Z" fill="url(#a1pmynobu)"/><defs><linearGradient id="a1pmynobu" x1="9" y1="4" x2="9" y2="14.5" gradientUnits="userSpaceOnUse"><stop stop-color="#056A90"/><stop offset="1" stop-color="#00ADEE" stop-opacity="0"/></linearGradient></defs></svg>