<!-- by TradingView --><svg width="18" height="18" viewBox="0 0 18 18" xmlns="http://www.w3.org/2000/svg"><path fill="#014769" d="M0 0h18v18H0z"/><path d="m11.64 13-.18-.06-.07-.1a.04.04 0 0 0-.04-.02.54.54 0 0 0-.35.21.04.04 0 0 0 0 .05l.05.12-.05.18-.1.08a.04.04 0 0 0-.02.04.61.61 0 0 0 .2.37c.01.01.03.02.04 0l.12-.05.18.05.07.11c0 .02.02.02.04.02a.54.54 0 0 0 .35-.21.04.04 0 0 0 0-.05l-.05-.12.05-.19.1-.07a.04.04 0 0 0 .02-.05.61.61 0 0 0-.2-.36.04.04 0 0 0-.04-.01l-.12.05ZM11.1 7.6c0-.01 0-.04-.03-.05l-.6-.33c0-.23-.03-.45-.08-.67l.5-.49a.05.05 0 0 0 0-.05 2.44 2.44 0 0 0-.45-.8h-.03l-.65.2c-.15-.16-.32-.3-.5-.4l.02-.73a.05.05 0 0 0-.03-.04c-.18-.09-.22-.1-.4-.15A2.16 2.16 0 0 0 8.41 4c-.02 0-.04 0-.05.03l-.31.63c-.22 0-.43.03-.64.1l-.46-.54-.03-.01H6.9c-.36.16-.43.2-.74.46a.05.05 0 0 0-.02.05l.2.69c-.15.16-.28.34-.39.53l-.68-.02a.05.05 0 0 0-.05.03c-.07.19-.09.23-.14.43-.05.2-.06.24-.08.44 0 .03 0 .05.03.06l.6.33c0 .23.03.45.08.67l-.5.49a.05.05 0 0 0 0 .05 2.44 2.44 0 0 0 .45.81h.02l.65-.21c.16.16.33.3.51.4l-.02.73c0 .02 0 .04.03.05.18.08.22.09.4.14.2.06.23.07.43.1.02 0 .04-.02.05-.04l.31-.63c.22 0 .43-.03.64-.1l.46.54.03.01h.03c.36-.16.43-.2.74-.46a.05.05 0 0 0 .02-.05l-.2-.69c.15-.16.28-.34.39-.53l.68.03c.02 0 .04-.02.05-.04.07-.19.09-.23.14-.43.05-.2.06-.24.08-.44ZM8.05 8.9c-.89 0-1.6-.75-1.6-1.68 0-.94.71-1.7 1.6-1.7.89 0 1.6.76 1.6 1.7 0 .93-.71 1.69-1.6 1.69ZM11.63 11.85l-.24-.23c.02-.12.02-.24 0-.35l.24-.23a.05.05 0 0 0 .01-.05 1.43 1.43 0 0 0-.26-.49.05.05 0 0 0-.05-.01l-.3.1a1.03 1.03 0 0 0-.3-.17l-.06-.33a.05.05 0 0 0-.04-.04 1.28 1.28 0 0 0-.53 0 .05.05 0 0 0-.04.04l-.07.33c-.1.04-.2.1-.28.17l-.3-.1-.06.01a1.43 1.43 0 0 0-.26.49v.05l.25.23c-.02.12-.02.23 0 .35l-.24.23a.05.05 0 0 0-.01.05c.05.18.14.34.26.48.01.02.03.02.05.02l.3-.1c.1.07.19.13.3.17l.06.33a.05.05 0 0 0 .04.04c.17.03.35.03.53 0 .02 0 .03-.02.04-.04l.07-.33c.1-.04.2-.1.28-.17l.3.1c.03 0 .05 0 .06-.02a1.42 1.42 0 0 0 .26-.48l-.01-.05Zm-1.27.1a.49.49 0 0 1-.47-.5c0-.28.21-.5.47-.5.27 0 .48.22.48.5 0 .27-.21.5-.48.5Z" fill="#FDB913"/></svg>