<!-- by TradingView --><svg xmlns="http://www.w3.org/2000/svg" width="18" height="18"><path fill="url(#as5zbssyy)" d="M0 0h18v18H0z"/><path fill-rule="evenodd" d="M12 5H6v8h6V5zM5 4v10h8V4H5z" fill="url(#bs5zbssyy)"/><path d="M7.82 7.12c-.02.3-.19.4-.27.4h.65c-.16 0-.19-.12-.18-.17l.15-1.2.73 1.38.7-1.37.18 1.2c0 .06-.04.14-.05.17h.72a.32.32 0 01-.34-.3l-.28-1.76c-.03-.1-.08-.04-.1 0l-.76 1.55a60 60 0 00-.77-1.55c-.06-.1-.1-.04-.12 0l-.26 1.65z" fill="#E7E7E8"/><path fill-rule="evenodd" d="M7.82 10.02c.08 0 .27-.1.37-.34l.74-1.8.83 1.93a.4.4 0 00.35.21h-.75c.04-.01.1-.06.04-.15l-.2-.54h-.65l-.2.54c-.02.05 0 .15.2.15h-.73zm.79-.84l.28-.7.25.7H8.6z" fill="#E7E7E8"/><path d="M9.16 10.42c.28 0 .64.06.79.1v.54a.85.85 0 00-.8-.48c-.34 0-.8.15-.8.92 0 .68.65.93.95.93.24 0 .3-.12.3-.18v-.56c0-.1-.18-.15-.27-.16h.85c-.18 0-.23.11-.23.16v.74c-.13.12-.53.15-.7.15-.37 0-1.3-.15-1.3-1.08 0-.92.85-1.09 1.2-1.08z" fill="#E7E7E8"/><defs><linearGradient id="as5zbssyy" x1="3.35" y1="3.12" x2="21.9" y2="24.43" gradientUnits="userSpaceOnUse"><stop stop-color="#1A1E21"/><stop offset="1" stop-color="#06060A"/></linearGradient><linearGradient id="bs5zbssyy" x1="13" y1="4" x2="7.22" y2="15.15" gradientUnits="userSpaceOnUse"><stop stop-color="#8A8C8F"/><stop offset=".5" stop-color="#F3F3F4"/><stop offset="1" stop-color="#8A8C8F"/></linearGradient></defs></svg>