<!-- by TradingView --><svg width="18" height="18" xmlns="http://www.w3.org/2000/svg"><path fill="#0086FF" d="M0 0h18v18H0z"/><path d="M13.44 5.525c-.034-.353-.224-.525-.57-.525h-.913c-.293 0-.5.118-.655.373L8.998 9.262l-2.24-3.889C6.62 5.117 6.392 5 6.101 5H5.12c-.345 0-.535.172-.57.525l-.546 6.96c-.035.373.156.515.517.515h1.104c.344 0 .58-.125.596-.48l.214-3.795 1.327 2.353c.138.255.365.373.655.373h1.011c.293 0 .5-.103.655-.374l1.5-2.523.191 3.963c.018.358.19.483.533.483h1.19c.364 0 .533-.144.498-.517l-.555-6.958z" fill="#fff"/></svg>