<!-- by TradingView --><svg width="18" height="18" viewBox="0 0 18 18" xmlns="http://www.w3.org/2000/svg"><path fill="#F0F3FA" d="M0 0h18v18H0z"/><path d="m12.9 10.92-.07-.01a6.01 6.01 0 0 0-.78-.17 3.6 3.6 0 0 1-3.84 1.4 6 6 0 0 1-.9.47 4.47 4.47 0 0 0 5.59-1.68ZM9.36 5.25c.4.03.77.12 1.12.27a5.69 5.69 0 0 1 1.56.07c-.7-.6-1.61-1-2.62-1.08a4.37 4.37 0 0 0-4.6 3.33c.39-.07.69-.16.95-.26a3.6 3.6 0 0 1 3.59-2.33Z" fill="#17365E"/><path d="M4.75 9.35a6.2 6.2 0 0 0 .82-.16 5.86 5.86 0 0 0 2.25-1.13 4.56 4.56 0 0 1 2.16-.98 4.53 4.53 0 0 1 2.28.07l.1.02c.27.07.57.15.9.2.55.07 1.2.09 2.09-.09h.01L16 6.27c-.24.08-.5.15-.81.2a5 5 0 0 1-2.42-.04l-.21-.05a5.62 5.62 0 0 0-2.74-.1 5.4 5.4 0 0 0-2.5 1.12c-.47.35-.92.69-1.74.93-.2.06-.4.11-.65.16l-.21.04c-.49.08-.88.09-1.22.07v.82c.36.02.77 0 1.25-.07Z" fill="#85C441"/><path d="m13.46 8.05-.58-.13-.32-.08a5.27 5.27 0 0 0-2.42-.03c-1.31.26-1.91.7-2.5 1.13a5.04 5.04 0 0 1-2.7 1.14c-.59.09-1.04.08-1.44.03v.82l.22.03c.44.03.96 0 1.6-.1.03-.02.06-.02.1-.03A5.9 5.9 0 0 0 8.14 9.6c.56-.41 1.04-.77 2.16-.99a4.61 4.61 0 0 1 2.37.1h.02a5.18 5.18 0 0 0 1.62.24l.53-.84a4.6 4.6 0 0 1-1.38-.06Z" fill="#85C441"/><path d="M13.45 9.52a17.79 17.79 0 0 1-.8-.2 5.24 5.24 0 0 0-2.19.03c-1.3.26-1.91.7-2.5 1.13-.37.28-.73.55-1.27.77a5.52 5.52 0 0 1-1.1.32 5 5 0 0 1-2.09.02v.84a5.53 5.53 0 0 0 2.24-.06 7.51 7.51 0 0 0 1.73-.58c.4-.2.7-.44 1-.65.55-.41 1.03-.77 2.15-.98a4.45 4.45 0 0 1 2.38.1l.2.05.24.05.46-.74-.45-.1Z" fill="#85C441"/></svg>