<!-- by TradingView --><svg xmlns="http://www.w3.org/2000/svg" width="18" height="18" viewBox="0 0 18 18"><path fill="url(#akxvzdmhi)" d="M0 0h18v18H0z"/><path d="m3 6 1.15 4H5.2l.63-2.8.63 2.8h1.05l1.16-4H7.59l-.63 2.6L6.37 6H5.3L4.7 8.6 4.07 6H3Zm7.33 0h-1v3.98h1V7.56c0-.38.3-.7.67-.7.37 0 .67.32.67.7v2.42h1V7.56c0-.38.3-.7.66-.7.37 0 .67.32.67.7v2.42h1v-2.6C15 6.63 14.4 6 13.67 6c-.5 0-.94.29-1.17.71a1.3 1.3 0 0 0-2.17-.25V6Z" fill="#00CFBD"/><path d="m5 11.67.52-.67c1.05.67 2.26 1 3.48 1 1.22 0 2.43-.33 3.48-1l.52.67A7.09 7.09 0 0 1 9 13a7.09 7.09 0 0 1-4-1.33Z" fill="#fff"/><defs><linearGradient id="akxvzdmhi" x1="3.35" y1="3.12" x2="21.9" y2="24.43" gradientUnits="userSpaceOnUse"><stop stop-color="#1A1E21"/><stop offset="1" stop-color="#06060A"/></linearGradient></defs></svg>