<!-- by TradingView --><svg width="18" height="18" viewBox="0 0 18 18" xmlns="http://www.w3.org/2000/svg"><path fill="#F0F3FA" d="M0 0h18v18H0z"/><path fill-rule="evenodd" d="M9.18 15a6 6 0 1 0-.52-12 5.97 5.97 0 0 0-5.14 8.46A5.99 5.99 0 0 0 9.18 15ZM4.39 12.1v-.03c-.02 0-.03-.02-.03-.04h.04v.01l.06.04c.3.19.6.37.95.49a4.6 4.6 0 0 0 1.98.17c1.5-.15 2.43-1.5 3.06-2.75h1.3a5.28 5.28 0 0 1-3.93 3.6 4.35 4.35 0 0 1-2.33-.3 4.93 4.93 0 0 1-1.1-1.19Zm2.02-8 .02-.02c-.02-.01-.03 0-.02.02Zm-.07.02c.02-.02.04-.03.06-.02a.05.05 0 0 1-.03.05 25.52 25.52 0 0 1-.25.41 3.03 3.03 0 0 0 1.17 4.1c.46.26.99.34 1.51.33h5.82c.05.27.03.43-.04.7h-4.4c-.05.05-.07.1-.09.16l-.01.04c-.27.68-.7 1.41-1.28 1.87-.44.34-.95.52-1.5.57-.58.06-1.14.04-1.7-.14a3.38 3.38 0 0 1-2.2-2.14v-.08c.68-.39 1.29-.93 1.43-1.72.14-.8-.17-1.52-.7-2.12a5.53 5.53 0 0 1 2.21-2.01Zm6.78 1.11a5.6 5.6 0 0 1 1.53 3.4H8.8A2.62 2.62 0 0 1 6.33 6.9a2.56 2.56 0 0 1 .57-2.67.12.12 0 0 1 .06-.01 3 3 0 0 0 1.7 2.27c.66.32 1.4.38 2.1.19 0-.46-.12-.87-.31-1.3.38-.12.73-.27 1.06-.52a2.95 2.95 0 0 0-.8-1.11c.5 0 1.75.8 2.4 1.5ZM6.8 14.07v-.02c1.22.09 2.33-.25 3.33-.94A5.83 5.83 0 0 0 12.19 10h.94a.9.9 0 0 1-.04.4 6.03 6.03 0 0 1-4.6 3.96 2.65 2.65 0 0 1-1.69-.27v-.02Zm.61-9.9c.13 1.33 1.57 2.4 2.88 2.14-.07-1.04-1.27-2.37-2.88-2.14Zm5.23 9.02c-.8.71-1.8 1.16-2.87 1.29A6.77 6.77 0 0 0 13.62 10h.85a6.43 6.43 0 0 1-1.83 3.2ZM7.66 3.7a2.52 2.52 0 0 1 3.3 1.01c-.23.14-.48.23-.74.28A3.06 3.06 0 0 0 7.66 3.7ZM3.38 9.47c.97-.52 1.3-2.06.56-2.85-.4.89-.66 1.88-.56 2.85Zm5.1.25a.5.5 0 0 0-.54.52.52.52 0 0 0 .5.53.55.55 0 0 0 .56-.52.53.53 0 0 0-.52-.53Z" fill="#3694CF"/></svg>