<!-- by TradingView --><svg width="18" height="18" xmlns="http://www.w3.org/2000/svg"><path fill="#C6003D" d="M0 0h18v18H0z"/><path d="M12.14 12.635c-.09.364-.414.534-.576.61L7.434 4.21c.257-.083.556-.17.828-.211l3.878 8.635zM10 4.004l3.312 7.358c1.818-2.82-.132-6.69-3.312-7.358zM10.067 13.407l-1.91-4.36c-.036 1.544-1.713 2.898-3.209 2.728.685 1.245 2.274 2.038 3.507 2.197.544.06 1.426.085 1.612-.565z" fill="#fff"/><path d="M4.083 9.93c.559.456 1.244.583 1.983.515.703-.116 1.37-.7 1.532-1.419.172-.634.046-1.037-.174-1.513A205.47 205.47 0 006.16 4.831c-1.64 1.135-2.432 3.16-2.078 5.1z" fill="#fff"/></svg>