<!-- by TradingView --><svg width="18" height="18" xmlns="http://www.w3.org/2000/svg"><path fill="#F0F3FA" d="M0 0h18v18H0z"/><path d="M5.972 13.99C4.684 13.88 4.119 13.019 4 12.6c.405.737 1.483.793 1.972.73 4.06-.73 6.803-4.979 6.88-7.114.052-1.427-1.056-1.755-1.616-1.74-1.47.038-2.623.7-3.006.986.55-.498 2.129-1.539 3.836-1.458 1.706.082 1.956 1.7 1.933 2.31-.135 3.519-5.296 7.912-8.027 7.677z" fill="#7886A3"/><path d="M6.87 12.604c-1.487.526-2.361.273-2.613.081.178.207.67.375 1.248.375.726 0 2.811-.456 5.18-2.975 1.895-2.016 2.024-3.946 1.852-4.66.036 1.545-.714 2.868-1.093 3.337-1.379 2.12-3.624 3.444-4.574 3.842z" fill="#032452"/><path d="M5.07 7.151v5.805c.57.133 1.428-.131 1.786-.28V8.398c0-1.227-1.19-1.343-1.786-1.247zm2.5-.936v6.223c.646-.286 1.428-1.034 1.786-1.189V7.513c0-1.278-1.19-1.398-1.786-1.298zm2.5-.938v5.285c.614-.388 1.463-1.898 1.787-2.147V6.56c0-1.264-1.191-1.383-1.786-1.284z" fill="#032452"/></svg>