<!-- by TradingView --><svg width="18" height="18" viewBox="0 0 18 18" xmlns="http://www.w3.org/2000/svg"><path fill="url(#ataxecioq)" d="M0 0h18v18H0z"/><path fill-rule="evenodd" d="M9 14A5 5 0 1 0 9 4a5 5 0 0 0 0 10Zm0-.31A4.69 4.69 0 1 0 9 4.3a4.69 4.69 0 0 0 0 9.38ZM13.38 9a4.37 4.37 0 1 1-8.75 0 4.37 4.37 0 0 1 8.75 0ZM6 6h1.41l1.67 4.8L10.67 6H12v5.62l-1 .85V7.7L9.77 13H8.3L7 7.7v4.77l-1-.85V6Z" fill="url(#btaxecioq)"/><defs><linearGradient id="ataxecioq" x1="3.35" y1="3.12" x2="21.9" y2="24.43" gradientUnits="userSpaceOnUse"><stop stop-color="#1A1E21"/><stop offset="1" stop-color="#06060A"/></linearGradient><linearGradient id="btaxecioq" x1="4" y1="8.39" x2="14" y2="8.39" gradientUnits="userSpaceOnUse"><stop stop-color="#808184"/><stop offset=".22" stop-color="#97989D"/><stop offset=".36" stop-color="#555556"/><stop offset=".5" stop-color="#8D8E92"/><stop offset=".62" stop-color="#F9FAFD"/><stop offset=".86" stop-color="#88898D"/><stop offset="1" stop-color="#7F7F83"/></linearGradient></defs></svg>