<!-- by TradingView --><svg xmlns="http://www.w3.org/2000/svg" width="18" height="18" viewBox="0 0 18 18"><path fill="url(#a0jvfhzp3)" d="M0 0h18v18H0z"/><path d="M8.73 7.35L8.8 7h1.37c.33 0 .6.05.8.14.2.09.34.21.43.38.09.16.13.36.13.58 0 .22-.06.43-.17.63-.12.2-.3.37-.56.5-.25.14-.57.2-.97.2H9.7a23.73 23.73 0 0 0-.16 1.07l.46.05-.06.45h-1.8l.07-.45.4-.05.27-1.64A64.45 64.45 0 0 0 9.1 7.4l-.38-.05zm1.04 1.7v.02h.1c.13 0 .25-.04.37-.12.11-.09.2-.2.27-.37.08-.16.11-.36.11-.59 0-.2-.04-.35-.13-.46a.45.45 0 0 0-.37-.16h-.08l-.27 1.67zM3 11l.06-.47.52-.09.61-3.2-.38-.05.07-.19h1.18l.41 2.42L6.71 7h1.26l-.07.19-.38.05-.22 1.71a57.57 57.57 0 0 0-.19 1.54l.37.04-.06.47H5.73l.07-.47.4-.05.3-2.47L5.13 11h-.3l-.5-3-.45 2.45.45.08-.06.47H3zm8.91-4l-.2 1.13h.48l.22-.78h.5a27.32 27.32 0 0 1-.23 1.5l-.28 1.65-.46.05-.06.45h1.83l.07-.45-.44-.05.12-.73.12-.73.29-1.69h.52l-.05.78h.47L15 7h-3.09z" fill="#fff"/><defs><linearGradient id="a0jvfhzp3" x1="9" y1="0" x2="9" y2="18" gradientUnits="userSpaceOnUse"><stop stop-color="#A7A0BF"/><stop offset="1" stop-color="#8781A3"/></linearGradient></defs></svg>