<!-- by TradingView --><svg xmlns="http://www.w3.org/2000/svg" width="18" height="18"><path fill="#E60012" d="M0 0h18v18H0z"/><path d="M3.69 6h3.22c.42 0 1.01.13 1.23.62.2.48 1 2.25 1 2.25S10 6.93 10.16 6.6c.15-.33.52-.61 1.03-.61h1.52c.73 0 1.28.42 1.28 1.32v3.33c0 .96.21 1.07.29 1.16.07.1 0 .19-.07.19h-3.09c-.12 0-.13-.12-.13-.19V9.36l-1 2.22c-.18.38-.58.42-.94.42-.37 0-.72-.01-.95-.5C7.9 11.03 7 9.34 7 9.34v1.62c0 .5.21.78.3.85.1.07.06.2 0 .2H4.16c-.12 0-.17-.1-.17-.19V7.4c0-.6-.25-1.07-.37-1.2-.1-.15.06-.2.06-.2z" fill="#fff"/></svg>