<!-- by TradingView --><svg width="18" height="18" viewBox="0 0 18 18" xmlns="http://www.w3.org/2000/svg"><path fill="#F0F3FA" d="M0 0h18v18H0z"/><path fill-rule="evenodd" d="M9 15A6 6 0 1 0 9 3a6 6 0 0 0 0 12Zm0-.5a5.5 5.5 0 1 0 0-11 5.5 5.5 0 0 0 0 11Zm0-.5A5 5 0 1 0 9 4a5 5 0 0 0 0 10Zm2.15-2.39L9.01 9.95 6.9 11.66l-.13.87-1.3-1.3.92-.08L8.08 9 6.39 6.85l-.92-.08 1.3-1.3.13.87 2.12 1.72 2.13-1.67.08-.92 1.3 1.3-.87.13L9.96 9l1.7 2.1.87.13-1.3 1.3-.08-.92Zm-1.4-2.6L9 8.26 8.27 9l.73.74.74-.74Z"/></svg>