<!-- by TradingView --><svg width="18" height="18" viewBox="0 0 18 18" xmlns="http://www.w3.org/2000/svg"><path fill="#F0F3FA" d="M0 0h18v18H0z"/><path fill-rule="evenodd" d="m6.4 4.63 2.37-1.6a.22.22 0 0 1 .17-.02c.06 0 .11.05.15.1v.01a.25.25 0 0 1 .04.19l-.04.08a.23.23 0 0 1-.06.07l-4.3 2.87a.03.03 0 0 0-.02.01.04.04 0 0 0 0 .04.03.03 0 0 0 .02 0L6.6 7.63a.14.14 0 0 0 .15 0l1.13-.76 1.6-1.08 1.82-1.2a.1.1 0 0 1 .12 0l2.4 1.58c.18.11.22.25.14.4v.02l-.02.02-1.85 1.24-2.55 1.68-.2.15c-.02.02-.03.05-.03.08v1.88c0 .05.05.1.1.06l2.56-1.72c.56-.38 1.12-.76 1.68-1.12.13-.08.35-.02.35.17v2.7c0 .03-.03.07-.05.1a.2.2 0 0 1-.07.08l-.59.38-2.65 1.77-1.28.85c-.23.16-.37.11-.6-.04l-4.6-3.03a.25.25 0 0 1-.1-.14.26.26 0 0 1 .02-.18v-.02a.2.2 0 0 1 .05-.06.18.18 0 0 1 .22-.02l4.45 2.92h.01a.03.03 0 0 0 .03-.02.04.04 0 0 0 0-.01l.01-.94v-1.02l-.01-.04a3114.9 3114.9 0 0 1-4.68-3.1c-.1-.06-.16-.17-.16-.32V6.46c0-.18.12-.3.27-.4.71-.5 1.42-.97 2.13-1.43Zm3.36 9.44 3.34-2.22.38-.26.03-.04V9.52h-.02l-.95.63-3.19 2.12a.09.09 0 0 0-.03.03.1.1 0 0 0 0 .05v1.99a.02.02 0 0 0 .03 0l.41-.27Zm-.96-2.44-.42-.22-3.82-2.5a.18.18 0 0 1-.06-.07.2.2 0 0 1-.02-.1l.01-1.88a.03.03 0 0 1 .01-.02.03.03 0 0 1 .02 0h.01l4.3 2.82.02.02v1.92c0 .03-.02.05-.05.03Zm2.54-3.86 1.94-1.3.01-.02a.04.04 0 0 0 0-.03V6.4l-1.9-1.26h-.01a.07.07 0 0 0-.08 0L8.5 7.03l-1.35.9-.01.02a.04.04 0 0 0 0 .03V8l1.9 1.25a.1.1 0 0 0 .1 0l2.2-1.47ZM11 11.05Z" fill="url(#a)"/><defs><linearGradient id="a" x1="9" y1="3" x2="9" y2="15" gradientUnits="userSpaceOnUse"><stop stop-color="#004197"/><stop offset="1" stop-color="#49AAE1"/></linearGradient></defs></svg>