<!-- by TradingView --><svg width="18" height="18" viewBox="0 0 18 18" xmlns="http://www.w3.org/2000/svg"><path fill="#F0F3FA" d="M0 0h18v18H0z"/><path d="M13.24 5.64c0 .24-.04.47-.12.63-.76 1.6-3.49 6.11-5.2 6.11-.17 0-.17-.17-.17-.3 0-.74.74-1.86 1.16-2.43a.76.76 0 0 0 .09-.3.44.44 0 0 0-.06-.25c-.04-.07-.12-.1-.22-.1-.18 0-.4.11-.53.28-.64.78-1.55 1.67-2.34 2.3-.24.18-.52.42-.85.42-.14 0-.25-.16-.25-.29C4.75 11 6.95 9.8 7 8.37 7 8.2 6.95 8 6.8 8c-.33 0-.77.67-.95.96-.68 1.1-1.3 1.53-1.69 2.34-.09.2-.15.4-.16.61 0 .46.26 1.1.81 1.09.45 0 .92-.52 1.39-.79.2-.12.52-.44.8-.44 0 .67.13 1.23.87 1.23 1.59 0 2.93-2 3.83-3.13.17-.24.35-.5.48-.76.52-.86 1.08-1.7 1.59-2.57.15-.27.23-.44.23-.75 0-.4-.4-.98-.72-.73-.05.04-.08.06-.08.15 0 .15.04.29.04.43Z" fill="#775D42"/></svg>