<!-- by TradingView --><svg width="18" height="18" viewBox="0 0 18 18" xmlns="http://www.w3.org/2000/svg"><path fill="#F0F3FA" d="M0 0h18v18H0z"/><path d="M8.37 4.15c.02.12.02.22 0 .31L6.4 13.62c-.07.33-.26.38-.54.38h-1.6c-.22-.02-.3-.18-.24-.42l1.55-7.26c.09-.39.18-.68.28-.87.48-.89 1.2-1.37 2.17-1.45.1 0 .2.02.3.08a.1.1 0 0 1 .05.07Zm1.62 9.74a.46.46 0 0 1-.03-.26 3800.41 3800.41 0 0 1 2-9.27c.06-.27.24-.38.51-.36.86.1 1.53.73 1.53 1.66 0 .12-.03.35-.1.69-.37 1.83-.89 4.26-1.56 7.3-.05.22-.18.34-.4.35H10.3a.89.89 0 0 1-.26-.06.09.09 0 0 1-.03-.02.1.1 0 0 1-.02-.03Zm-3-.36c-.06.27.01.45.29.47H8.7c.38 0 .62-.1.7-.47l1.4-6.63c.13-.58.08-1.08-.43-1.4a1.24 1.24 0 0 0-1.67.38c-.08.13-.17.4-.26.83l-1.45 6.82Z" fill="red"/></svg>