<!-- by TradingView --><svg width="18" height="18" viewBox="0 0 18 18" xmlns="http://www.w3.org/2000/svg"><path fill="#105242" d="M0 0h18v18H0z"/><path d="m3.1 9.36-1.07.19c-.07.54-.08 1.45 1.1 1.45.95 0 1.44-.9 1.57-1.34L5.26 7H4.21L3.8 9c-.06.35-.26 1.04-.52 1.04s-.23-.45-.18-.68Zm2.08.64-.22 1h.94l.22-1h-.94Zm4.89 1 .22-1h.93l-.21 1h-.94Zm-3.84 0 .05-4h.88v2.07l.94-2.06h.98v2.12l.85-2.12h.93L9.32 11h-1l-.04-2.5L7.2 11h-.97Zm5.27 0h.83l.63-2.98V11h.75l1.25-2.98-.63 2.98h.88L16 7h-1.38l-.97 2.34V7h-1.32l-.83 4Z" fill="#fff"/></svg>