<!-- by TradingView --><svg width="18" height="18" viewBox="0 0 18 18" xmlns="http://www.w3.org/2000/svg"><path fill="#F0F3FA" d="M0 0h18v18H0z"/><path d="M12.76 6v5h-.5V6h.5Zm-.43 4.37V11H12v-.07h.04c.13 0 .27-.37.28-.56Zm0-3.86h-.01c0-.19-.07-.44-.2-.44h-.11V6h.32v.5Zm.38 3.86c0 .19.12.56.25.56H13V11h-.3v-.63Zm0-3.86V6H13v.07h-.04c-.13 0-.24.25-.24.44h-.01ZM13.8 6v5h-.6V6h.6Zm-.52 4.37V11H13v-.07h.05c.15 0 .22-.37.22-.56h.01Zm0-3.86c-.01-.19-.09-.44-.23-.44H13V6h.28v.5Zm.45 3.86h.02c0 .19.05.56.2.56H14V11h-.27v-.63Zm0-3.86V6H14v.07h-.05c-.15 0-.2.25-.2.44h-.02ZM7.45 6 5.77 9.48 4.02 6h-.05l-.48 4.58a.48.48 0 0 1-.13.24.39.39 0 0 1-.27.11H3V11h1.18v-.06h-.09c-.06 0-.1-.03-.15-.09a.37.37 0 0 1-.07-.2v-.04l.23-2.54L5.54 11h.06c0-.11.02-.23.05-.34l.11-.29.06-.12 1.05-2.2.23 2.56v.04c0 .07-.02.14-.07.2a.19.19 0 0 1-.15.09h-.09V11h.71c0-.44 0-1 .5-1.5L7.5 6h-.05ZM11.74 10V6.46c0-.2.08-.39.22-.39H12V6h-1v.07h.04c.14 0 .14.2.15.4V9c.12.16.4.77.55.99ZM8.7 7.14V8.3l.3-.43h.6l-.9-.72Z" fill="#173058"/><path fill-rule="evenodd" d="M8.56 8.87c-.18.14-.33.3-.45.46l.3-.2.15-.26Zm-.26.52c-.2.14-.35.28-.44.38-.33.72-.34 1.5-.2 1.93a2.86 2.86 0 0 1 .05-2c.22-.46.59-.91 1.19-1.24a1.97 1.97 0 0 1 1.69.03 2.53 2.53 0 0 1 1.08 1.13c.09.17.26.67.33.87 0 0-.28-.39-.3-.44-.04.12-.1.26-.3.31.13-.14.15-.32.17-.43 0-.1-.01-.18-.04-.24l-.01-.02a.91.91 0 0 0-.6-.18c.07.11.11.23.11.38-.13-.17-.2-.24-.28-.36-.24.02-.51.1-.78.21.12.26.23.6.23.96-.13-.34-.26-.65-.38-.9a5.65 5.65 0 0 0-.84.44c.05.42.09.86.28 1.18-.32-.3-.37-.69-.43-1.09-.2.12-.38.25-.54.37.03.4.08.86.33 1.32a3.72 3.72 0 0 1-.48-1.21l-.49.3c.06-.15.34-.38.47-.48-.02-.22 0-.42.02-.62-.04.04-.32.2-.35.23h-.02c.04-.18.3-.37.41-.45.03-.14.07-.26.12-.38Zm.08.24c.05-.14.1-.28.16-.4l.25-.14-.01.32-.4.22Zm-.05.22c-.04.2-.06.42-.06.65l.54-.36a5.42 5.42 0 0 1-.03-.56l-.45.27Zm.6-.35a6.03 6.03 0 0 0 .03.55 7.57 7.57 0 0 1 .8-.4 4.24 4.24 0 0 0-.23-.38l-.6.23Zm.76-.28c.07.1.14.23.2.36.27-.1.52-.18.77-.22a2.43 2.43 0 0 0-.24-.3c-.26.04-.5.1-.73.16Zm.59-.29c-.24.04-.47.1-.68.16a3.3 3.3 0 0 0-.2-.26c.17-.05.34-.1.53-.13.11.06.23.13.35.23Zm-.1-.27.35-.02c.29.14.57.39.83.77a1.32 1.32 0 0 0-.53-.06 1.9 1.9 0 0 0-.66-.69Zm.02-.15a1.8 1.8 0 0 0-.54-.07 1.62 1.62 0 0 1 .3.1l.24-.03Zm-.53.09c-.2-.06-.4-.07-.55-.04l.17.15.38-.11Zm-.54.17A1.6 1.6 0 0 0 9 8.66l-.02.17.15-.06Zm.11.12.2.25c-.18.06-.34.12-.5.2L8.96 9l.28-.11Zm-.43.02-.13.06.14-.2a6 6 0 0 0-.01.14Z" fill="#CC5662"/></svg>