<!-- by TradingView --><svg width="18" height="18" viewBox="0 0 18 18" xmlns="http://www.w3.org/2000/svg"><path fill="url(#aqd4etaf0)" d="M0 0h18v18H0z"/><path fill-rule="evenodd" d="M11.44 5.07 10.22 11h1.06l.1-.8c.1.25.48.8 1.32.8 1.46 0 2.3-.81 2.3-2.25S14.2 7 13.32 7c-.7 0-1.18.33-1.31.51L13.03 3l-1.59 2.07Zm1.52 2.51c-.96 0-1.24 1.19-1.25 1.78-.06.48.17.97.83.97.66 0 1.26-.75 1.26-1.77 0-.82-.56-.99-.84-.98ZM3 11l.96-4h1.08l-.12.63c.14-.2.63-.63 1.43-.63.8 0 1.08.53 1.11.8.15-.27.65-.8 1.54-.8 1.1 0 1.4.86 1.28 1.53L9.56 12l-1.68 2 1.24-5.58c0-.21-.13-.63-.57-.63-.54 0-.88.37-1.03 1l-.23.87c-.13.46-.27.97-.35 1.34h-1.2l.61-2.47c.05-.25 0-.74-.56-.74-.7 0-.94.82-1.05 1.23l-.15.52c-.13.44-.3 1.03-.4 1.46H3Z" fill="#fff"/><defs><linearGradient id="aqd4etaf0" x1="9" y1="0" x2="9" y2="18" gradientUnits="userSpaceOnUse"><stop stop-color="#2A808D"/><stop offset="1" stop-color="#045C5E"/></linearGradient></defs></svg>