<!-- by TradingView --><svg xmlns="http://www.w3.org/2000/svg" width="18" height="18"><path fill="#F0F3FA" d="M0 0h18v18H0z"/><path d="M14.58 7.23l.42.67-.48.26-.43-.36-.84-.78-.45 1.08-.3.22.38.8-.38.57 1.59.5.07.43-.77 1.03-.28-.13h-.35l-.34-.26.61-.29.08.15v.14l.14.09v-.15h.14l.31-.63-.15-.13h-1.54l-.43.25 1 1.08-.26.35-.85.18-.32.14h-.28l-.46-.29h-.22L9.83 12l.63-.43.23.2v.25h.13l.15-.17.51.15.54-.11-1.65-1.31L9 10.35l-.66 1.53.51.95.25.25.04.18.49.4.16.34-.79-.07.06-.27-.25-.1-.1.04-.19-.7-.05.7-.47-.66.3-.22H8l-.1-.2-.8-.44-.74-.24.3-1.1-.46-.5-.68-.96.16-.82-.23-.08-.17.8.24 1.35-.42.37-1.38.79.27-.6-1.13 1 .35-.62-1.14.56.89-.77-.37-.16 1.25-.65.15-.5-.44-.17.29-1.32.67-.4 1.3-.26L7 7.23l2.56.36-.58-.26L10 7.16l-.62-.22 1.54-.35-1.22-.18 1.94-.32-.5-.38.9.19-.42-.48 1.22.1-.32-.5.84.63V5h.23l.28 1 .43.56.28.67z" fill="#0A578F"/><path d="M13.87 6l-1.1.52 1.36.69-.26-1.22z" fill="#9AB4C3"/><path d="M12.77 6.53l.06-1.02-.74 1.64.68-.62z" fill="#03314B"/><path d="M11.41 8.12l.69-.97-.16 1.6-.53-.63zm-3.37.23l1.39-.6 1.98.37-1.13.83-2.24-.6-1.46.41L8.2 7.4l-.17.95z" fill="#9AB4C3"/><path d="M10.63 9.5l.78-1.4-.17 1.7-.6-.3zm1.39.16l.88-.55-.88 1.33-1.04.62-.6-.5 1.64-.12v-.78z" fill="#03314B"/><path d="M10.63 9.5l.62.3-.87.76-.94-.67 1.2-.4z" fill="#9AB4C3"/><path d="M8.33 11.92l-.5-1.52L9 10.34l-.68 1.58zM7.2 9.85l3.09-.9-.84.94-2.25-.04z" fill="#688DA7"/><path d="M7.21 9.85l-.63-1.1 3.7.2-3.07.9zm-1.69-.57L5.8 7.8 7 7.22 5.5 9.28z" fill="#9AB4C3"/><path d="M7.24 11.4L6.2 10.24l1.63.15-.59 1z" fill="#688DA7"/><path d="M7.66 11.2l.24-.57.43 1.23-.67-.65z" fill="#03314B"/><path d="M6.36 11.83l.29-1.1.59.66.14.3.69.3-.41-.78.67.62.36.68-.46-.4-.05.61H8l-.1-.2-.79-.43-.75-.26z" fill="#9AB4C3"/><path d="M8.69 12.5l-.12-.1-.05.53.2.67.1-.05.24.1-.06.28.79.07-.16-.35-.5-.4-.02-.17-.26-.25-.16-.32z" fill="#03314B"/><path d="M12.01 10.44l.5-.76 1.58.5.08.44-.77 1.04v-.48l.3-.61-.15-.13.54-.25-2.08.25z" fill="#9AB4C3"/><path d="M13.4 11.66v-.48h-.15v.16l-.12-.08v-.14l-.1-.16-.62.3.36.27h.36l.27.13zm-1.82-.96l-.6.36 1.34 1.06-.74-1.43z" fill="#688DA7"/><path d="M11.58 10.7l1 1.06-.26.36-.85.18-.3.14h-.3l-.3-.19.24-.24.15-.18.5.15.56-.1.3.24-.74-1.42z" fill="#9AB4C3"/><path d="M10.42 12.16l.15.1.24-.25h-.1l-.02-.24-.23-.21-.63.42.36.18h.23z" fill="#688DA7"/></svg>