<!-- by TradingView --><svg width="18" height="18" viewBox="0 0 18 18" xmlns="http://www.w3.org/2000/svg"><path fill="#F0F3FA" d="M0 0h18v18H0z"/><path fill-rule="evenodd" d="m9.16 5.78-.56-.82.28-.5-.37-.5-.54-.05-.43-.53.3-.38.67.11.45.48-.17.29.37.46.65.12.53.76-.29.67-.89-.1Zm-1.2-2.35.19.22.31.04.12-.17-.2-.21-.3-.05-.13.17ZM9.02 5l.28.44.5.06.17-.36-.3-.42-.45-.08-.2.36Zm2-.87-.48-.4c-.13-.02-.26-.01-.3 0l.2.49.56.45.29-.07-.27-.47Zm-.36-.2h-.14l.1.25.28.2.13-.02-.13-.22-.24-.21Zm1.97 2.88c.24.42.34 1.17.36 1.5l-.09.29-.25-.42-.33.34v.94l.33.34.25-.42c.03.05.08.2.08.38 0 .24-.14 1.05-.35 1.4l-.19-.26.12-.8-.3-.34-.56.53-.08.81.4.3-.23.91-.68.65-.6-.26.18-1.03.67-.53.08-.82-.66-.47-.68.5-.07.96-1.01.65L8 11.44l.04-1.26 1.1-.66.8.5.72-.47V8.46L9.94 8l-.8.5-1.1-.67L8 6.57l1.03-.53 1.02.65.05.96.69.48.65-.45-.07-.83-.67-.53-.17-1.03.58-.26.7.65.22.91-.4.3.08.8.55.54.3-.33-.1-.8a.8.8 0 0 0 .18-.28Zm-1.67-.66-.12-.62.36-.18.44.41.14.58-.34.22-.48-.41ZM11 9.53V8.48l.6-.48.54.53v.96l-.54.51-.6-.47Zm1.61-2.2.1.6.19.33.05-.23-.1-.6-.13-.28-.1.18Zm.09 2.75-.08.6.1.17.13-.33.1-.55-.06-.22-.2.33Zm-1.74 1.76-.11.63.36.17.45-.41.13-.58-.33-.22-.5.4Zm-2.53-.65.04-.79.66-.4.62.37-.05.75-.65.4-.62-.33Zm.04-3.6-.04-.78.62-.33.65.4.05.75-.62.37-.66-.4Zm3.82-1.16a6.76 6.76 0 0 0-.36-.7l-.03-.44a2.68 2.68 0 0 1 .68 1.33l-.3-.19Zm-.19-.62-.02-.22c.04.05.14.18.22.32.08.14.13.32.14.4l-.15-.13-.19-.37Zm-.17 6.49c.09-.16.29-.52.36-.71l.29-.2a2.68 2.68 0 0 1-.68 1.33l.03-.42Zm.15.13.02-.22.19-.37.15-.13c-.01.08-.06.26-.14.4-.08.14-.18.27-.22.32Zm-1.53 1.84.48-.4.27-.48-.29-.06-.56.44-.2.5c.04 0 .17.02.3 0Zm-.02-.22.14.02.24-.21.13-.23-.13-.02-.27.2-.11.24ZM8.6 13.04l.56-.82.9-.1.28.66-.53.76-.65.12-.37.46.17.29-.45.48-.68.11-.29-.38.43-.53.54-.06.37-.5-.28-.5Zm-.45 1.3-.2.23.13.17.3-.05.2-.2-.12-.18-.31.04Zm1.16-1.79-.28.44.2.36.44-.08.31-.42-.17-.36-.5.06ZM4.45 8.2 4 9.02l.45.82h.9l.33-.59h.72l.44.75h1.09l.54-.98L7.93 8h-1.1l-.43.78h-.72l-.33-.59h-.9ZM6.8 9l.3-.5h.59l.29.5-.3.5h-.57L6.8 9ZM4.5 9l.2-.34h.4l.19.34-.2.34h-.38L4.5 9ZM6 6.27v-.88l.8-.4.8.44.05.84-.83.45L6 6.27Zm.43-.24v-.42l.38-.19.39.2.02.41-.4.22-.4-.22ZM6 12.6v-.88l.82-.44.83.44-.05.85-.8.42-.8-.39Zm.43-.22v-.42l.4-.21.39.21-.02.4-.39.21-.38-.19Z" fill="url(#ac115nqor)"/><defs><linearGradient id="ac115nqor" x1="4.42" y1="9" x2="13" y2="9" gradientUnits="userSpaceOnUse"><stop offset=".23" stop-color="#1C2EFA"/><stop offset=".57" stop-color="#FF1264"/><stop offset="1" stop-color="#FF6406"/></linearGradient></defs></svg>