<!-- by TradingView --><svg width="18" height="18" viewBox="0 0 18 18" xmlns="http://www.w3.org/2000/svg"><path fill="#F0F3FA" d="M0 0h18v18H0z"/><path d="M12 12c-.39 0-.73-.07-1.03-.21-.3-.14-.53-.34-.7-.59a1.6 1.6 0 0 1-.27-.87h1c0 .16.06.3.14.42.1.11.21.2.36.27.14.06.3.1.5.1.19 0 .36-.04.5-.12a.87.87 0 0 0 .36-.3.8.8 0 0 0 .13-.46.83.83 0 0 0-.13-.46.86.86 0 0 0-.38-.32 1.38 1.38 0 0 0-.59-.11h-.48v-.82h.48c.2 0 .36-.04.5-.1a.82.82 0 0 0 .34-.3.8.8 0 0 0 .12-.45c0-.17-.04-.3-.1-.43a.72.72 0 0 0-.3-.29 1.1 1.1 0 0 0-.9 0 .85.85 0 0 0-.35.27.73.73 0 0 0-.14.42h-.95c.01-.32.1-.61.27-.86s.4-.44.68-.58c.28-.14.6-.21.95-.21.36 0 .68.07.94.22a1.58 1.58 0 0 1 .85 1.4c0 .33-.09.6-.27.82-.18.23-.42.37-.71.44v.05c.38.05.67.2.87.45.21.25.31.55.31.92 0 .32-.09.62-.26.88-.17.25-.4.45-.71.6-.3.15-.65.22-1.04.22ZM4 6h1.27L7 10.35 8.73 6H10v6H9V8l-1.63 3.98h-.74L5 8V12H4V6Z"/></svg>