<!-- by TradingView --><svg width="18" height="18" viewBox="0 0 18 18" xmlns="http://www.w3.org/2000/svg"><path fill="#F0F3FA" d="M0 0h18v18H0z"/><path d="m8.32 6.34-1.56 3.73-.72 1.72c-.07.17-.3.21-.5.21H3.52c-.49 0-.62-.18-.45-.58l2.16-5.18c.08-.2.25-.24.47-.24h2.24c.22 0 .35.11.38.34ZM12.78 6.35l-1.55 3.71-.71 1.71c-.08.18-.27.23-.49.23H7.88c-.25 0-.4-.11-.44-.33l1.55-3.74.68-1.62c.1-.24.22-.31.5-.3L12.32 6c.14 0 .25.03.32.08.1.07.14.16.14.27Z" fill="#2768B2"/><path d="m9 7.93-1.56 3.74-.68-1.6 1.56-3.73.67 1.59ZM12.78 6.35a31.7 31.7 0 0 1 .82 1.98c-.18-.05-.3 0-.37.15-.45 1.07-.9 2.13-1.33 3.2l-.67-1.62 1.55-3.7Z" fill="#93B3D9"/><path d="M13.6 8.33a489.82 489.82 0 0 1 1.39 3.25.2.2 0 0 1 0 .13c-.05.26-.27.29-.54.29h-2.17c-.18 0-.31-.11-.38-.32l1.33-3.2c.06-.16.19-.2.37-.15Z" fill="#2768B2"/></svg>