<!-- by TradingView --><svg width="18" height="18" xmlns="http://www.w3.org/2000/svg"><path fill="url(#paint0_linear)" d="M0 0h18v18H0z"/><path d="M6 10.404c0 .973-.071 1.315 1 1.315V12H4v-.28c1.071 0 1-.343 1-1.316v-2.65c0-.974.071-1.473-1-1.473V6h2.583l2.182 4L11 6h3v.28c-1.081 0-1 .5-1 1.474v2.537c0 .974-.091 1.428 1 1.428V12h-4v-.28c1.071 0 1-.455 1-1.429V8l-2.315 4h-.28L6 8v2.404z" fill="#fff"/><defs><linearGradient id="paint0_linear" x1="3.349" y1="3.122" x2="21.904" y2="24.434" gradientUnits="userSpaceOnUse"><stop stop-color="#1A1E21"/><stop offset="1" stop-color="#06060A"/></linearGradient></defs></svg>