<!-- by TradingView --><svg width="18" height="18" viewBox="0 0 18 18" xmlns="http://www.w3.org/2000/svg"><path fill="#F0F3FA" d="M0 0h18v18H0z"/><path d="M3 6.66c0-.37.32-.66.7-.66h10.6c.38 0 .7.3.7.66v4.68c0 .37-.32.66-.7.66H3.7c-.38 0-.7-.3-.7-.66V6.66Z" fill="#0D0D0B"/><path fill="#A18313" d="M3.44 6.37h11.13v5.25H3.44z"/><path d="M4 10.69c0-.12.07-.22.21-.28.22-.08.2-.36.21-.55.03-.28.04-.67.04-1.17v-.43c0-.17.02-.4-.13-.53a1.8 1.8 0 0 0-.1-.06c-.12-.09-.19-.19-.19-.3 0-.12.07-.21.2-.27.15-.06.36-.1.64-.1.16 0 .3.02.42.03.13.02.21.04.25.07.3.19.48.79.64 1.09.16.32.28.48.36.48.08 0 .19-.15.32-.44.26-.56.45-.94.7-1.1.14-.09.34-.13.62-.13.3 0 .51.03.63.09a.3.3 0 0 1 .18.28c0 .1-.05.17-.15.23a.99.99 0 0 0-.05.03c-.06.05-.1.17-.14.36a11.9 11.9 0 0 0-.01 1.87c.02.16 0 .38.16.47.12.08.18.17.18.3 0 .13-.07.23-.22.29-.15.05-.42.08-.8.08-.38 0-.64-.03-.79-.08-.14-.06-.22-.16-.22-.3 0-.1.06-.2.17-.26a.41.41 0 0 0 .08-.06.48.48 0 0 0 .08-.24 5.34 5.34 0 0 0-.01-.8.1.1 0 0 0-.1-.05c-.06 0-.14.1-.23.32l-.27.65c-.2.48-.35.72-.45.72-.09 0-.24-.24-.45-.7l-.27-.65c-.1-.26-.18-.4-.24-.4-.04 0-.08.05-.1.13a4.52 4.52 0 0 0 .01 1c.02.05.06.1.12.13.15.06.22.15.22.27 0 .12-.06.2-.17.25-.12.05-.31.07-.59.07-.27 0-.47-.02-.58-.07-.12-.05-.18-.13-.18-.24ZM11.59 8.69c.05.02.1.02.14.02.25 0 .36-.2.36-.62 0-.15-.03-.33-.09-.4-.05-.08-.14-.12-.26-.12-.07 0-.11.03-.14.08-.02.04-.03.23-.03.44v.4l.02.2Zm.01.62v.54c0 .17 0 .31.02.37.01.05.04.09.08.12.11.07.23.16.23.3 0 .13-.07.23-.2.28-.15.05-.39.08-.74.08-.36 0-.61-.03-.76-.09-.15-.05-.23-.15-.23-.28 0-.15.08-.24.2-.3.04-.03.07-.19.1-.43a15.18 15.18 0 0 0 .02-1.95c-.02-.16-.04-.25-.07-.29a.5.5 0 0 0-.1-.07C10 7.52 10 7.43 10 7.33s.05-.18.16-.24c.11-.05.28-.07.5-.07h.21L12.12 7c.84 0 1.31.36 1.31 1.01a.85.85 0 0 1-.45.79c-.07.04-.1.07-.1.1 0 .05.04.09.14.12l.16.07c.1.05.18.14.25.26.09.15.15.88.29.95l.06.02c.15.07.22.14.22.24 0 .13-.08.24-.23.32a1.3 1.3 0 0 1-.6.12c-.64 0-.88-.39-1-.98-.1-.49-.25-.73-.44-.73h-.06l-.07.02Z"/></svg>