<!-- by TradingView --><svg width="18" height="18" viewBox="0 0 18 18" xmlns="http://www.w3.org/2000/svg"><path fill="#347690" d="M0 0h18v18H0z"/><path d="M6.63 7.85v4.07c0 .04-.03.06-.08.07a16.35 16.35 0 0 1-1.32 0c-.16 0-.23-.06-.23-.2V5.04C5 5 5.02 5 5.05 5H6.6c.07 0 .11.03.14.08l2.21 4.23.04.02c.01 0 .02 0 .03-.02l2.2-4.2a.2.2 0 0 1 .19-.11h1.43c.1 0 .15.05.15.14v5.25c0 .08-.04.12-.13.12h-.6c-.04 0-.06.02-.06.06v.62c0 .05-.02.08-.08.08h-.65c-.08 0-.12-.04-.12-.12v-3.3h-.01l-1.69 3.2c-.03.06-.07.08-.13.08H8.48a.18.18 0 0 1-.17-.1L6.65 7.84c-.02-.02-.02-.02-.02 0ZM12.9 12h-.8a.1.1 0 0 0-.1.1v.8c0 .05.05.1.1.1h.8a.1.1 0 0 0 .1-.1v-.8a.1.1 0 0 0-.1-.1Z" fill="#FEFDFB"/></svg>