<!-- by TradingView --><svg width="18" height="18" viewBox="0 0 18 18" xmlns="http://www.w3.org/2000/svg"><path fill="#23B8BD" d="M0 0h18v18H0z"/><path d="M13 11.7a1.28 1.28 0 0 1-.82 1.2c-.16.07-.33.1-.5.1H6.32a1.34 1.34 0 0 1-1.22-.8c-.07-.16-.1-.33-.1-.5V6.3c0-.34.14-.67.39-.92.25-.24.58-.38.93-.38h5.36a1.34 1.34 0 0 1 1.22.8c.07.16.1.33.1.5v5.4Zm-1.38-5.55a.69.69 0 0 0-.2-.49.71.71 0 0 0-.5-.2H6.72a.71.71 0 0 0-.5.2.71.71 0 0 0-.23.5V11c0 .18.1.36.23.49s.31.2.5.2h4.18a.69.69 0 0 0 .7-.7V6.16Z" fill="#fff"/></svg>