<!-- by TradingView --><svg width="18" height="18" xmlns="http://www.w3.org/2000/svg"><path fill="#283C4A" d="M0 0h18v18H0z"/><path d="M11.893 7.776c-.704-2.79-2.17-3.532-2.545-4.057A5.767 5.767 0 018.94 3c-.02.248-.056.404-.29.592-.471.377-2.47 1.84-2.638 5.009-.157 2.954 2.418 4.776 2.758 4.965.261.115.58.002.735-.104a5.502 5.502 0 002.39-5.686" fill="#10AA50"/><path d="M9.046 11.992c-.065.731-.111 1.156-.276 1.574 0 0 .108.696.184 1.434h.268c.065-.52.162-1.035.293-1.544-.347-.154-.456-.822-.47-1.464z" fill="#B8C4C2"/><path d="M9.515 13.457c-.352-.146-.5-.829-.515-1.465v-8.93c.11.227.206.446.348.657.374.525 1.842 1.268 2.545 4.056a5.497 5.497 0 01-2.378 5.682z" fill="#12924F"/></svg>