<!-- by TradingView --><svg width="18" height="18" xmlns="http://www.w3.org/2000/svg"><path fill="#016EA9" d="M0 0h18v18H0z"/><path d="M9.254 13.086h-.426v-.19c0-.197.054-.546.089-.752.06-.352-.001-.394.116-.724.032-.091.098-.216.123-.295.03-.094.025-.233.064-.355.059-.182.18-.476.196-.663.058.016.201.137.29.183.121.062.206.1.332.162.255.124.15.441.242.762.09.311.158.444.324.677.114.16.329.424.374.625-.064.018-.284.15-.38.197a3.703 3.703 0 01-.4.175c-.205.073-.693.198-.944.198zm-4.28-3.36c.132-.011.167-.105.324-.105h.061c.171 0 .454.36.974.36h.182c.366 0 1.238-.286 1.299-.277l.446.065h.166l-.024.486-.007.043.047.485v.17c0 .384-.223.702-.223.95l-.016.235.138.906H8.26c-.29 0-.982-.3-1.204-.415a4.107 4.107 0 01-.941-.71 4.1 4.1 0 01-.708-.953c-.142-.27-.423-.863-.433-1.24zm6.004-.105c.274.006.543.232.831.232l.184.004.871-.152c0 .309-.312 1.04-.438 1.255-.115.196-.569.917-.738.964-.078-.348-.289-.846-.326-1.182-.024-.22-.01-.492-.093-.664-.102-.212-.215-.306-.291-.457zm-1.506-.782l.005-.127c.102.025.437.255.54.326.255.177.25.198.439.43.15.183.264.288.416.453.159.173.202.345.206.673.005.334.266 1.108.363 1.397.174.516.506.567 1.16.567-.056.079-.432.224-.556.267-.128.045-.218.038-.334.075-.08.026-.203.123-.287.123h-.02c-.097 0-.107-.4-.135-.494-.065-.224-.098-.27-.206-.44-.174-.273-.363-.45-.473-.796-.063-.196-.071-.28-.111-.518-.043-.25.01-.344-.166-.482-.034-.027-.81-.459-.812-.461l-.03-.993zm-4.096-.085c.363.18.588-.017.795-.168.224-.164.45-.254.831-.254h.06c.395 0 .795.593 1.137.782.004.18.134.251.203.359-.513 0-.44-.12-.946.03-.282.082-.594.181-.94.181h-.183c-.549 0-.674-.359-.954-.359h-.162c-.14 0-.225.148-.406.148H4.61c-.209 0-.325-.247-.325-.486v-.042c0-.43.236-.529.65-.529.03-.022.073-.063.12-.063.05 0 .06.034.102.063h.163l.08.043.005.064-.028.231zm4.162-.464c.25 0 .604.08.793.145.123.042.234.066.355.116.217.09.146.05.386.105.254.06.324.228.737.225.353-.001.55.085.873.085h.365c.402 0 .55-.812.667-.845l.043.528c.006.067-.055.265-.061.359-.012.166.013.273-.02.423-.138 0-.343-.075-.409-.08l-1.356.228c-.187.032-.79-.275-1.197-.275-.12-.084-.392-.358-.533-.48-.103-.09-.502-.374-.643-.386V8.29zm-4.564-.296c0-.262.427-1.275.568-1.374.578.14.354.293.567.74.065.135.169.292.27.396.084.088.292.248.34.322-.498 0-.85.423-.954.423h-.081a.327.327 0 00-.206-.315 3.013 3.013 0 00-.383-.129h-.121v-.063zm3.61-1.965c0-.05.014-.064.061-.064.157 0 .304.204.304.402l.007.17-.047.421.007.021.074 1.036v.148c0 .22-.048.769-.017.926.015.082.341.39.341.595 0 .049-.014.064-.06.064-.048 0-.06-.044-.142-.064.034.067.101.319.101.423v.063c0 .05-.054.106-.101.106H9.07c-.256 0-.467-.376-.467-.592v-.232c0-.049.015-.064.061-.064.112 0 .012.73.406.74 0-.245-.131-.41-.081-.634l.11-.007-.25-.331-.022-.254c-.025-.222.04-.544.04-.803v-.105c0-.018-.052-.3-.06-.361-.012-.11-.001-.303 0-.421 0-.145-.037-.243-.02-.4.015-.126.04-.23.04-.382 0-.338-.244-.322-.244-.401zM5.38 5.944v-.021c0-.24.28-.57.507-.57h.02c.163 0 .283.078.371.163.17.162.279.067.279.28.039.027.142.11.142.17v.02c0 .151-.426.207-.426.317v.043c0 .048.014.063.06.063.123 0 .185-.06.285-.085.227.447.449.194.864.368.286.119.465.432.738.499.025.306.162.34.162.782-.135-.075-.186-.185-.3-.28-.106-.087-.252-.146-.354-.243-.127-.12-.444-.555-.644-.555h-.142c-.067 0-.264.063-.264.148v.084c0 .06.07.106.122.106.034 0 .11-.063.223-.063.13 0 .484.47.63.57.141.1.212.127.339.259.07.074.234.243.33.27-.013.16-.163.235-.163.485-.134-.093-.223-.223-.34-.343-.123-.128-.282-.163-.444-.255-.23-.133-.651-.402-.824-.58-.373-.384-.196-.61-.428-.969-.173-.267-.743-.202-.743-.663zm2.698.338l-.008.022.049.485c-.077-.02-.324-.276-.497-.349a2.3 2.3 0 00-.7-.137c-.013-.056-.02-.04-.02-.084 0-.028.06-.045.06-.148v-.085c0-.167-.087-.212-.118-.32-.062-.217-.136-.177-.166-.292.097-.024.54-.307.728-.384.185-.075.64-.245.875-.25.032.144.142.229.142.401v.063c0 .343-.345.58-.345 1.078zm1.36-1.542c.92 0 1.954.77 2.422 1.28.51.558 1.086 1.619 1.086 2.692-.31 0-.618-.106-.872-.106-.34 0-.574-.053-.818-.162-.195-.087-.222-.048-.386-.105-.13-.045-.229-.1-.358-.134-.26-.07-.49-.169-.831-.169h-.102v-.592c0-.227-.08-.798-.13-1.006-.053-.225-.418-.707-.418-.726v-.064c0-.092.041-.077.041-.169v-.105c-.07-.007-.284-.125-.284-.17 0-.048.014-.063.06-.063.061 0 .228.17.407.17h.04c.046 0 .045-.018.081-.043 0-.157.04-.14.04-.233v-.084h.062v-.085c0-.077-.026-.005-.04-.126zM8.97 4h-.345c-.259.171-.293.052-.386.465-.259 0-.793.21-.996.293-.313.126-.573.31-.83.489-.119-.084-.29-.19-.486-.19-.382 0-.832.462-.832.866 0 .261.13.361.223.507-.227.353-.606 1.183-.649 1.712-.387.033-.669.349-.669.782v.169c0 .326.215.526.452.627.312.133.192-.085.282.256.038.143.084.272.13.415.155.49.477 1.073.774 1.412.34.389.695.73 1.154.995.341.196 1.11.542 1.61.542v.084c0 .16-.061.258-.061.338v.106c0 .152.245.085.365.085l.021-.007.344.049.102.005.507-.026c.01-.017.04-.052.04-.064 0-.047-.016-.046-.04-.084-.236 0-.714-.291-.792-.444.929 0 1.564-.257 2.17-.591.02.234.094.528.325.528h.061c.1 0 .282-.135.367-.167.121-.046.297-.057.442-.11.204-.076.611-.214.611-.484v-.042c0-.108-.09-.207-.179-.237-.111-.037-.238.004-.369.004-.165 0-.312-.052-.446-.084.008-.093.337-.413.414-.52.137-.19.274-.365.377-.579.268-.553.334-.752.487-1.437h.162c.116 0 .198.063.345.063.356 0 .304-.41.304-.718v-.063c0-.093.041-.077.041-.17v-.359c0-.242-.052-.612-.284-.612h-.081c-.285 0-.219.517-.446.676 0-1.041-.69-2.188-1.202-2.72a4.243 4.243 0 00-1.09-.852c-.301-.159-1.028-.464-1.46-.464h-.062C9.284 4.035 9.2 4.167 8.97 4z" fill="#fff"/></svg>