<!-- by TradingView --><svg width="18" height="18" viewBox="0 0 18 18" xmlns="http://www.w3.org/2000/svg"><path fill="#F0F3FA" d="M0 0h18v18H0z"/><path d="M4 6.69v5.62c0 .38.27.69.6.69h1.85c.24 0 .46-.17.55-.44l.97-2.87a.5.5 0 0 0 0-.32L7 6.44C6.9 6.17 6.69 6 6.45 6H4.59c-.32 0-.59.3-.59.69Z" fill="#00ADEF"/><path d="M14 6.69v5.62c0 .38-.27.69-.6.69h-1.85c-.24 0-.46-.17-.55-.44l-.97-2.87a.5.5 0 0 1 0-.32L11 6.44c.1-.27.31-.44.55-.44h1.86c.32 0 .59.3.59.69ZM10.37 6h-.9l.4-1.67a.67.67 0 0 1 .56-.33c.3 0 .38.22.38.33L10.37 6Z" fill="#BDD63D"/></svg>