<!-- by TradingView --><svg width="18" height="18" viewBox="0 0 18 18" xmlns="http://www.w3.org/2000/svg"><path fill="#F0F3FA" d="M0 0h18v18H0z"/><path d="M13.71 12.06c-.04-.06-.13-.08-.26-.08h-.08l-.37.05c-.21.04-.51.09-.84.13l-.7-.76h1.3c.36.06.45.17.47.2l.06.08.08.02.08.02.16.04a.2.2 0 0 1 .13.1c.05.11-.03.2-.03.2ZM5.07 12l-.3-.28h2.34l.33.28H5.07Zm8.6-.48-.23-.06c-.07-.1-.22-.24-.64-.28a5.9 5.9 0 0 0-.26-.01 3.85 3.85 0 0 0 1.15-2.5V6.92h-.58v1.2l-.34-1.2h-.52l.35 1.2-.7-1.2a.93.93 0 0 0-.4.29l.54.91-.72-.55a3.82 3.82 0 0 1-1.22 2.56 167.9 167.9 0 0 1-1.95-2.08A4.56 4.56 0 0 1 6.82 5h-.6c0 .55.13 1.07.35 1.55A4.39 4.39 0 0 1 5.8 5h-.58a5 5 0 0 0 .7 1.55s-.58-.43-.93-1.09a4.23 4.23 0 0 1-.17-.35c-.18.08-.34.2-.48.35.24.54.79 1.1.79 1.1h-.01s-.6-.24-1.01-.71C4.04 6 4 6.3 4 6.49c0 .9.35 2.2 1.37 3.47.46.58.96 1 1.44 1.44H4.09l.87.96h2.88a4 4 0 0 0 2.22.64c.77 0 1.5-.22 2.1-.6.58-.07 1.13-.16 1.22-.16h.07c.1 0 .15 0 .17.02.05.04.04.17.03.2a.72.72 0 0 0 .3-.31.45.45 0 0 0 .02-.36.41.41 0 0 0-.3-.27Z" fill="#4B6EBE"/></svg>