<!-- by TradingView --><svg width="18" height="18" viewBox="0 0 18 18" xmlns="http://www.w3.org/2000/svg"><path fill="#F0F3FA" d="M0 0h18v18H0z"/><path d="M7.47 6H6l2.27 3L6 12h1.47L9 9.97 10.53 12H12L9.73 9 12 6h-1.47L9 8.03 7.47 6Z" fill="#A32B25"/><path d="M11.62 3.34c.36.13-.02 1.37-.26 1.97.04 0 .13.06.26.06.57-1.41.5-2.37-.26-2.37-.61 0-1.63 1.63-2.06 2.42L9 5.3V7l1.21-1.24-.33-.12c.42-.8 1.38-2.44 1.74-2.3ZM6.38 14.66c-.36-.13.02-1.37.26-1.97-.04 0-.13-.06-.26-.06-.57 1.41-.5 2.37.26 2.37.61 0 1.63-1.63 2.06-2.42l.3.11V11l-1.21 1.24.33.12c-.42.8-1.38 2.44-1.74 2.3Z" fill="#1D1431"/></svg>