<!-- by TradingView --><svg xmlns="http://www.w3.org/2000/svg" width="18" height="18"><path fill="#F0F3FA" d="M0 0h18v18H0z"/><path d="M14.81 9.13a4.36 4.36 0 00-3.5.28c-.48.29-.77.61-1.24.91.37.62.7.94 1.27 1.17a7 7 0 00.88.22c.15-.03.51-.16.87-.39.5-.32.77-.7 1.26-1.06.45-.3.88-.44 1.1-.49.4-.08.47-.07.55-.08-.5-.3-.84-.44-1.19-.56z" fill="#BAE1D1"/><path d="M4.87 6c-.88 0-2.14.33-2.87.8 1.48.43 2.34 2.08 3.1 3.22 1.42 2.11 2.98 2.62 4.8 2.45a7.14 7.14 0 003.2-1.15 2 2 0 01-1.01.1c-.7-.07-1.2-.47-1.45-.68a3.8 3.8 0 01-.53-.59c-.62-.8-1.04-1.8-1.7-2.57A4.66 4.66 0 004.87 6" fill="#9DD29A"/></svg>