<!-- by TradingView --><svg width="18" height="18" fill="none" xmlns="http://www.w3.org/2000/svg"><path fill="#F0F3FA" d="M0 0h18v18H0z"/><path fill-rule="evenodd" clip-rule="evenodd" d="M6.402 4.664A5.105 5.105 0 004 9.012c0 2.44 1.688 4.48 3.94 4.975 1.755.22 2.763-2.346 2.822-3.254l-1.136-.155c.31-.63 1.08-2.068 1.69-2.778.444.428 1.678 2.25 1.857 2.892h-.748c-.028.564-.288 1.927-1.108 2.706 0 .003-.076.098-.213.232A5.095 5.095 0 0014 9.012C14 6.502 12.215 4.417 9.866 4c-2.025.011-2.608 2.15-2.668 3.064l1.137.155c-.31.63-1.081 2.067-1.69 2.778-.445-.428-1.679-2.25-1.858-2.892h.749c.024-.504.235-1.648.866-2.441z" fill="#F47621"/><path d="M8.86 8.49c-.807 1.594-1.548 4.312-1.548 4.312l3.641-7.55S9.542 7.145 8.86 8.49z" fill="#1C83CE"/><path d="M9.521 9.564c.807-1.594 1.549-4.312 1.549-4.312l-3.641 7.55S8.84 10.909 9.52 9.564z" fill="#F0F3FA"/></svg>