<!-- by TradingView --><svg width="18" height="18" viewBox="0 0 18 18" fill="none" xmlns="http://www.w3.org/2000/svg">
<rect width="18" height="18" fill="#365075"/>
<path fill-rule="evenodd" clip-rule="evenodd" d="M7.19388 5.20324C6.91693 5.25357 6.49579 5.42805 6.29506 5.53149C6.2804 5.53132 6.26576 5.53094 6.2511 5.53056C6.2311 5.53004 6.21107 5.52953 6.19092 5.52953C4.9601 5.52953 3.97465 5.81902 3 6.28903C4.00617 5.52204 5.14106 5.12015 6.29506 5.12215C6.59566 5.1222 6.89592 5.14929 7.19388 5.20324ZM8.18318 5.12803C8.65268 5.04281 9.12583 5.00004 9.59951 5.00002C11.4993 4.99625 13.3649 5.68711 15 7C13.4955 6.12234 11.5799 5.66085 9.55753 5.66085C9.54227 5.66085 9.52709 5.66127 9.5119 5.66168C9.49837 5.66204 9.48484 5.66241 9.47122 5.66249C9.026 5.66536 8.5811 5.69591 8.13794 5.75405C6.74992 5.93716 5.47897 6.28903 4.40874 6.83822C5.57559 5.94842 6.85651 5.36804 8.18318 5.12803ZM3.4132 11.8506H3.41059V12H5.16328V11.8501C4.68244 11.9168 4.57905 11.438 4.57905 10.9878V9.66667H7.42473V10.9878C7.42473 11.4558 7.36678 11.921 6.8405 11.8501V12H8.59319V11.8501H8.51903C8.03547 11.919 8 11.4425 8 10.9878V8.01179C8 7.29973 8.10761 7.17957 8.59319 7.14986V7H6.8405V7.14986C7.36632 7.07938 7.42473 7.54394 7.42473 8.01179V9.33333H4.57905V8.01224C4.57905 7.46026 4.5989 7.43526 4.69507 7.3141C4.69686 7.31186 4.69867 7.30958 4.7005 7.30726C4.76253 7.24413 4.83646 7.19724 4.91689 7.17C4.99733 7.14277 5.08014 7.13589 5.16328 7.14986V7H3.41059V7.15031C3.86945 7.19509 4 7.30771 4 8.01224V10.9882C4 11.4557 3.94487 11.9271 3.4132 11.8506ZM10.0009 10.9882C10.0009 11.4565 9.94926 11.9268 9.41668 11.8506V12H11.1694V11.8501C10.6858 11.919 10.5796 11.4429 10.5796 10.9882V9.67624C10.604 9.67098 10.666 9.66845 10.6908 9.66871C11.0183 9.66667 11.4137 9.71702 11.5363 9.81857C11.8294 10.0873 12.0358 10.3768 12.2558 10.6854C12.3401 10.8035 12.4263 10.9245 12.5201 11.0481C12.842 11.4574 13.1255 11.8354 12.4661 11.8501V11.9996H14.511V11.8497H14.468C14.0242 11.8793 13.7433 11.6906 13.4638 11.3172C13.038 10.7302 12.5812 10.172 12.0955 9.64565C12.0078 9.55059 11.8596 9.37608 11.8596 9.37608C12.2725 9.01753 12.5072 8.58263 12.7727 8.09067C12.7895 8.05958 12.8064 8.02826 12.8235 7.99672C13.2549 7.26958 13.4909 7.17203 14.2188 7.14986V7H12.2748V7.14986C12.6854 7.16538 12.7222 7.20972 12.7222 7.4048C12.6858 7.63983 12.2589 8.43021 11.9251 8.77704C11.4738 9.35433 10.9304 9.47362 10.5796 9.52594V8.01224C10.5796 7.55746 10.6854 7.08058 11.1694 7.14986V7H9.41668V7.15031H9.43702C9.96939 7.07409 10.0009 7.54401 10.0009 8.01224V10.9882Z" fill="white"/>
</svg>
