<!-- by TradingView --><svg width="18" height="18" viewBox="0 0 18 18" xmlns="http://www.w3.org/2000/svg"><path fill="#F0F3FA" d="M0 0h18v18H0z"/><path d="M12.64 3H13c.32 0 .32.4.34.61.04.47.65.81.67 1.3 0 .15-.1.28-.27.28-.22 0-.45-.17-.62-.3a.7.7 0 0 1-.48 0c-1.05 1.47-1.84 3-2.42 4.4.4 1.3.57 3.53.67 4.53v.02c0 .09-.07.16-.16.16h-.16a.16.16 0 0 1-.17-.15c-.07-.89-.19-1.96-.93-2.56-.35 1.1-.55 2-.63 2.57a.17.17 0 0 1-.16.14H8.5c-.1 0-.18-.1-.17-.19.14-.82.23-1.6.25-2.2 0-.29 0-.58-.07-.86a4.07 4.07 0 0 0-1.3-.34c-.28.55-.47 1.3-.47 2v1.43c0 .09-.06.16-.15.16h-.22a.17.17 0 0 1-.16-.17c0-.32 0-.93-.09-1.5-.28.65-.5 1.27-.58 1.55a.17.17 0 0 1-.16.12h-.2c-.11 0-.2-.1-.16-.2.1-.32.3-.99.34-1.23.09-.53.28-1 .43-1.52-.13-.4-.24-.73-.24-.95 0-.18.12-.43.33-.43.12 0-.05-.27-.05-.41 0-.44.32-.93.8-.93.28 0 .55.23.72.45a.96.96 0 0 1-.04-.22c0-.6.41-1.23 1.08-1.23.88 0 1.37.77 1.66 1.49a23.1 23.1 0 0 1 2.4-4.23c.1-.15.26 0 .4.02.13.02.27-.11.4-.02.12.09.25.18.4.24-.23-.38-.6-.7-.64-1.17-.07.14-.27.17-.36.04-.07.12-.2.13-.34.14.05.06.08.13.03.2-.34.6-1.5 1.62-3.05 2.92a.17.17 0 0 1-.24-.02.16.16 0 0 1 .02-.22C10.52 5.5 11.63 4.59 12 3.97l-.12-.2a.16.16 0 0 1 0-.16c.07-.14.35-.08.48-.1.03-.1.02-.22.05-.33.04-.1.13-.18.24-.18ZM8.38 7.67c-.48 0-.74.47-.74.89 0 .68.54 1.18.97 1.65a.8.8 0 0 1 .17.3c.17.08.34.16.5.26.17-.48.35-.98.57-1.5-.22-.7-.63-1.6-1.47-1.6ZM10 9.78l-.43 1.18c.41.3.7.7.88 1.16-.12-.79-.27-1.64-.45-2.34Zm-.82 1.3-.31-.16a4.85 4.85 0 0 1 0 1.19l.3-1.02Zm-.93-.76a3.89 3.89 0 0 1-.74-1.07c.01.3-.05.59-.16.86.26.04.57.1.9.21ZM7 10.07c.11-.25.18-.5.18-.78s-.26-.62-.56-.62c-.25 0-.47.28-.47.59 0 .41.48.74.85.8ZM6.2 10l.02.24c0 .23-.02.5-.1.79l.1.3c.2-.34.44-.64.63-.97-.26-.07-.48-.2-.65-.36Z" fill="#554E4A"/></svg>