<!-- by TradingView --><svg width="18" height="18" viewBox="0 0 18 18" xmlns="http://www.w3.org/2000/svg"><path fill="#F0F3FA" d="M0 0h18v18H0z"/><path d="M9 8.65 4 5.82 9 3l5 2.82-5 2.83ZM8.64 8.82 4 6.18v5.47l1.07.88V7.94l.72.35v4.6l1.07.7V8.82l.71.36v4.94l1.07.88V8.82ZM9.36 15V8.84L14 6.18V7.4l-3.57 2.12v1.23L14 8.65v1.23L10.43 12v1.24L14 11.12v1.23L9.36 15Z" fill="#662D91"/><path d="M8.34 5.9c.22 0 .28.3.28.45l-.19.25.1.15h.04c-.03.15-.23.5-.33.64.15 0 .38-.13.48-.2-.08.36.16.65.28.75.3-.28.32-.61.29-.75.11.2.4.22.52.2a1.9 1.9 0 0 1-.38-.64h.05l.14-.2-.14-.2h-.1c0-.12.06-.37.29-.45.23-.08.16.3.1.5a.7.7 0 0 0 .66-.65c-.04-.76-.62-.72-.9-.6.04-.05.14-.2.14-.45 0-.3-.24-.4-.43-.6C9.14 4 9 3.7 9 3.7s-.1.3-.19.4c-.15.16-.47.3-.47.6 0 .16.06.37.1.45-.25-.15-.91-.05-.87.6.04.52.46.65.67.65-.1-.15-.19-.5.1-.5Z" fill="#FAC83F"/></svg>