<!-- by TradingView --><svg width="18" height="18" viewBox="0 0 18 18" xmlns="http://www.w3.org/2000/svg"><path fill="#F0F3FA" d="M0 0h18v18H0z"/><path d="M4 5v3.23c.18-.19.85-.56 2.04-.56S8.4 8.56 8.84 9c.15-.23.84-.58 1.16-.8A3.3 3.3 0 0 0 7.63 5H4Z" fill="#00ADA9"/><path d="M7.7 11.98a5.52 5.52 0 0 1 1.06-2.32c-.14-.39-1.4-1.16-2.7-1.16-1.05 0-1.81.38-2.06.57.21 2.6 2.55 3.02 3.7 2.91Z" fill="#C1D854"/><path d="M15 8.57c0 1.08-.42 1.75-.63 1.95a3.67 3.67 0 0 0-2.42-.98A4.17 4.17 0 0 0 8.18 12H8a4.82 4.82 0 0 1 7-3.43Z" fill="#00ADA9"/><path d="M12.06 12H9c.27-.57 1.56-2 2.98-2 1.13 0 1.82.5 2.02.74-.48.87-1.5 1.2-1.94 1.26Z" fill="#C1D854"/></svg>