<!-- by TradingView --><svg width="18" height="18" viewBox="0 0 18 18" xmlns="http://www.w3.org/2000/svg"><path fill="#F0F3FA" d="M0 0h18v18H0z"/><path d="M10.88 13.05c0 1.02-.84 1.84-1.88 1.84a1.86 1.86 0 0 1-1.88-1.84c0-.19.12-.68.4-1.46A34.65 34.65 0 0 1 9 8.2a64.3 64.3 0 0 1 .96 2.12c.28-.23.62-.58.8-.99-.39-.88-.8-1.74-1.13-2.4L9 5.67l-.63 1.24C7.5 8.71 6 11.9 6 13.05A2.97 2.97 0 0 0 9 16c1.66 0 3-1.32 3-2.95 0-.34-.13-.86-.34-1.46-.25.26-.59.56-.93.78.1.34.14.57.14.68Z" fill="#0C3271"/><path d="M10.88 9.37a1.9 1.9 0 0 1-2.82 1.59l-.43 1.03c.41.2.88.33 1.37.33 1.66 0 3-1.32 3-2.95 0-1.15-1.5-4.35-2.37-6.13L9 2l-.63 1.24C7.5 5.02 6 8.22 6 9.37c0 .51.13 1 .37 1.42l.86-1.96c.06-.24.16-.55.3-.93A34.66 34.66 0 0 1 9 4.52l.47 1c.37.81.74 1.66 1 2.38.29.79.4 1.28.4 1.47Z" fill="#E83121"/></svg>