<!-- by TradingView --><svg width="18" height="18" xmlns="http://www.w3.org/2000/svg"><path fill="#F0F3FA" d="M0 0h18v18H0z"/><path d="M7.46 14a9.69 9.69 0 01-.105-1.421c0-2.005.613-3.595 1.645-5.079-1.083-1.557-2.628-2.972-4.413-3.483C4.29 3.932 4 4.179 4 4.513v8.975c0 .282.211.512.47.512h2.99z" fill="#239DE0"/><path d="M9 7.5c1.033 1.484 1.645 3.073 1.645 5.079 0 .483-.036.958-.105 1.421h2.99c.26 0 .47-.23.47-.512V4.513c0-.334-.29-.581-.587-.496C11.628 4.529 10.083 5.943 9 7.5z" fill="#99D538"/><path d="M9 7.5c-1.032 1.484-2.083 3.073-2.083 5.079 0 .483.014.958.083 1.421h4c.069-.463.083-.938.083-1.421 0-2.006-1.05-3.595-2.083-5.079z" fill="#1563A9"/></svg>