<!-- by TradingView --><svg width="18" height="18" viewBox="0 0 18 18" xmlns="http://www.w3.org/2000/svg"><path fill="#F0F3FA" d="M0 0h18v18H0z"/><path d="m9.6 11.58.3.82.31.25.18-.17-.34-.92-.44.02Z" fill="#B30838"/><path d="M13.6 4H6.63c-.96 0-1.9.74-2.1 1.66l-1.48 6.68c-.2.92.4 1.66 1.36 1.66h6.98c.96 0 1.9-.74 2.1-1.66l1.48-6.69c.2-.9-.4-1.65-1.35-1.65Zm-.07 2.98v.08l-.07-.02s-.02-.06-.04-.07a.24.24 0 0 0-.1-.02 1.4 1.4 0 0 0-.68.14c-.36.15-.78.32-.8.7 0 .45-.17.89-.48 1.22l-.67.67c-.08.08-.2.18-.3.3l.74 1.53-.72.02.47.89.66.58H8.95l.46-.54-.17-.86-.7.04-.12-.93L7.12 13H5.57l2.46-3.36-.16-.15a59.1 59.1 0 0 1-1.92 2.5s-.5.32-.52-.21l1.98-2.71-.16-.15a67.27 67.27 0 0 1-1.9 2.46s-.5.32-.51-.21l1.95-2.68-.15-.13c-.8 1.06-1.78 2.37-1.85 2.4 0 0-.5.32-.52-.2l2.14-4.3.2-.53c.28-.58.83-.5 1.36-.29.48.2.83.61 1.2.94.32.28.64.56.94.85V7.2l.07-.04-1.36-1.5c.02.03.69-.63.72-.67.21-.21.78-.43.8.05 0 .38-.04.78-.07 1.16l-.03.63-.03.31.36-.2c.46-.27.9-.61 1.43-.69.34-.05.7-.07.98.15.05.04.12.14.08.22l.4.05c.1 0 .07.3.07.3Z" fill="#B30838"/></svg>