<!-- by TradingView --><svg width="18" height="18" xmlns="http://www.w3.org/2000/svg"><path fill="#17217E" d="M0 0h18v18H0z"/><path d="M11.569 4.528l-.026.026c1.05.835 1.612 2.166 1.612 3.627 0 2.583-1.944 4.67-4.45 4.67-2.66 0-4.732-2.008-4.4-4.696.026-.26.154-.783.333-1.148l-.256.156c-.205.548-.358 1.122-.358 1.749C4.024 11.704 6.3 14 9.037 14s4.962-2.296 4.962-5.088c0-1.879-.972-3.497-2.43-4.384z" fill="#fff"/><path d="M4.128 9.903A4.897 4.897 0 014 8.833c0-2.557 1.867-4.67 4.271-5.01 0 0-1.048.6-1.483 1.67.844-1.2 3.81-2.766 6.931-2.452-3.939 1.017-6.343 5.114-7.033 9.002h-.052c-.05-3.6 1.254-6.132 2.251-7.254-.997.444-2.532 1.435-3.248 2.896-.026-.809.307-1.957.614-2.426-1.254.574-2.353 2.557-2.123 4.644z" fill="#FF170F"/></svg>