<!-- by TradingView --><svg width="18" height="18" viewBox="0 0 18 18" xmlns="http://www.w3.org/2000/svg"><path fill="url(#aeuivly34)" d="M0 0h18v18H0z"/><path d="M10 3H8v2l2-.33V3Z" fill="#fff"/><path d="M13 6v1a5.07 5.07 0 0 0-3.45-1.33c-2.19 0-3.46 1.66-3.46 3.66s1.46 3.84 3.46 3.84c1.6 0 2.48-.56 2.72-.84V9H13v3.83c-.24.28-1.27.84-3.45.84-2.73 0-4.55-2-4.55-4.34 0-2.33 2.36-4 4.55-4 1.74 0 3.03.45 3.45.67Z" fill="url(#beuivly34)"/><path d="m10 6-2 .17V15h2V6Z" fill="#fff"/><defs><linearGradient id="aeuivly34" x1="3.35" y1="3.12" x2="21.9" y2="24.43" gradientUnits="userSpaceOnUse"><stop stop-color="#1A1E21"/><stop offset="1" stop-color="#06060A"/></linearGradient><linearGradient id="beuivly34" x1="8.91" y1="5.33" x2="8.91" y2="13.67" gradientUnits="userSpaceOnUse"><stop offset=".33" stop-color="#A29984"/><stop offset=".49" stop-color="#E8E6E2"/><stop offset=".61" stop-color="#A19883"/><stop offset="1" stop-color="#A59C86"/></linearGradient></defs></svg>