<!-- by TradingView --><svg width="18" height="18" viewBox="0 0 18 18" xmlns="http://www.w3.org/2000/svg"><path fill="#F0F3FA" d="M0 0h18v18H0z"/><path d="M8.38 6.77h.65c3.4.02 1.66 0 4.8 0l.02.44v.1l.02.13v.16l.02.17v.18a1.05 1.05 0 0 0 .02.13v.17l.01.13v.01l.01.18.01.11.01.18.01.15v.1a5.1 5.1 0 0 0 .03.33v.16l.02.18.01.23.01.19.02.22v.55l-.11.01h-.18c-1.85 0-3.7-.12-5.56-.12-1.34 0-2.68.12-4.03.13-.88 0-2.1-.9-1.84-2.02-.02-.98.76-2.07 1.8-2.2h4.25Zm1.3 3.42.01.01.1.05.05.03.08.04a1.25 1.25 0 0 0 .52.12h.53c.04 0 .07-.02.1-.05a.18.18 0 0 0 .05-.1 131.03 131.03 0 0 1 0-.63c.02 0 .01.01.02.02l.07.2a1.02 1.02 0 0 0 .49.46 1.26 1.26 0 0 0 .36.12l.16.01h.13l.15-.01a1.77 1.77 0 0 0 .65-.24c.17-.1.32-.24.44-.4a1.38 1.38 0 0 0 .29-.73 2.42 2.42 0 0 0 0-.32v-.04a1.03 1.03 0 0 0-.44-.76 1.17 1.17 0 0 0-.54-.2 1.5 1.5 0 0 0-.38 0l-.14.02a1.73 1.73 0 0 0-.98.6 1.52 1.52 0 0 0-.3.63v-.03a.16.16 0 0 0-.06-.05.18.18 0 0 0-.07-.02.16.16 0 0 0-.08-.03.12.12 0 0 0-.08-.04h-.35a.07.07 0 0 0-.04-.02h-.03c-.02 0-.03-.02-.04-.03h-.04a.08.08 0 0 0-.04-.03h-.03l-.02.02a21.71 21.71 0 0 0 .01.73h.06c.01.04.02.04.06.03h.01l.02.04h.03V9.74l-.03.03a.06.06 0 0 1-.05.01h-.11l-.04-.01h-.06a.65.65 0 0 1-.16-.13.83.83 0 0 1-.2-.33 1.22 1.22 0 0 1-.03-.58c.02-.15.08-.3.17-.42a.7.7 0 0 1 .52-.27H10.84c.02.02.04.04.06.04h.01l.04.03h.06v-.74l-.02-.02-.05.01-.01-.02-.02-.02h-.05V7.3h-.02l-.02-.02h-.02l-.04.04a.24.24 0 0 1-.15.05h-.25l-.2.01-.12.02a1.21 1.21 0 0 0-.73.47 1.43 1.43 0 0 0-.26.54l-.01.02a1.1 1.1 0 0 0-.21-.32l-.04-.03L8.72 8a1.1 1.1 0 0 0-.42-.2 1.19 1.19 0 0 0-.35-.05h-.08l-.1.01-.11.02a1.7 1.7 0 0 0-.77.37l-.07.07a1.29 1.29 0 0 0-.28.35 1.47 1.47 0 0 0-.17.4v-1.3c0-.06.02-.12.06-.17l.01-.02a.04.04 0 0 0 0-.04l-.01-.02h-.06c0-.02-.01-.03-.02-.03h-.06l-.02-.04H5.58c-.04 0-.05.02-.05.06l.01.02v.02l-.04.04-.11.12-.15.14-.14.14a18.44 18.44 0 0 0-.18.16.74.74 0 0 1-.07-.06l-.2-.2-.12-.11-.16-.15-.01-.02.01-.03a.05.05 0 0 0-.01-.06H4.3c0-.02-.01-.02-.02-.03h-.06l-.01-.03-.03-.01a1256.94 1256.94 0 0 0-.65 0h-.02a.04.04 0 0 0-.03 0 .05.05 0 0 0-.02.04l.01.03a.3.3 0 0 1 .07.2v2.54l-.06.12-.02.03v.03l.03.01h.04l.03.04h.05l.01.02a.05.05 0 0 0 .04.02h.64s.02 0 .02-.02l.01-.02v-.03l-.02-.03a.22.22 0 0 1-.05-.09 9466.39 9466.39 0 0 0-.01-1.78v-.15l.06.05.16.16.15.14.03.03.1.1.07.07.03.02h.03l.02.02a.07.07 0 0 0 .05.02h.02a.1.1 0 0 0 .06.04.1.1 0 0 0 .07-.03l.12-.12.12-.13.23-.22.08-.08v.04a5647.49 5647.49 0 0 1-.02 1.78.34.34 0 0 1-.05.08v.06c.02.02.04.02.06.02l.03.03h.05l.01.02a.06.06 0 0 0 .05.02h.65l.01-.02a.04.04 0 0 0 0-.04v-.02a.27.27 0 0 1-.07-.19v-.54l.01.02.06.17a1.03 1.03 0 0 0 .66.6 1.4 1.4 0 0 0 .74.04 1.7 1.7 0 0 0 1.23-1.07v.02l.05.13a1.33 1.33 0 0 0 .54.63c0 .02 0 .02.02.02Z" fill="#4A9FD8"/><path d="M11.9 6.77V6.65l-.06-.37a.58.58 0 0 0-.07-.17.37.37 0 0 0-.18-.14 3.28 3.28 0 0 0-.45-.09h-.06l.14-.02.27-.05a.6.6 0 0 0 .17-.07c.06-.03.11-.09.14-.16a2.15 2.15 0 0 0 .1-.58l.01.02.02.2a1.56 1.56 0 0 0 .1.39c.04.07.1.13.18.16.06.03.13.05.2.06.09.02.17.03.26.03l.06.01-.12.02a2.82 2.82 0 0 0-.4.08.36.36 0 0 0-.13.1.4.4 0 0 0-.09.15 3.35 3.35 0 0 0-.07.44l.02.1h1.9c.01.1.02.26.01.36H11.8c-.02 0-.05 0-.07-.02a.12.12 0 0 1-.04-.03c-.02 0-.03-.17-.04-.18a.73.73 0 0 1-.04-.16v-.04.06l-.03.1c0 .04-.03.22-.06.24a.18.18 0 0 1-.1.03h-3.5a.51.51 0 0 1-.1-.05c-.1-.05-.12-.2-.18-.3h4.25ZM15.04 7.2A2.19 2.19 0 0 1 16 9.05c0 .93-.8 1.99-1.64 2.16l.06-.35c.63-.1 1.25-1.3 1.25-1.88 0-.54-.29-1.06-.7-1.37v-.04l.02-.08.02-.13.03-.16Z" fill="#E30021"/><path d="m12.8 6.57-.1.01a.1.1 0 0 0-.05.03.1.1 0 0 0-.03.05.6.6 0 0 0-.01.1v-.03l-.02-.07a.1.1 0 0 0-.03-.05.1.1 0 0 0-.04-.02.6.6 0 0 0-.1-.02l.04-.01.06-.01a.1.1 0 0 0 .04-.03.1.1 0 0 0 .03-.04l.01-.07a.1.1 0 0 1 0-.04l.03.12a.1.1 0 0 0 .05.05l.07.02h.05Z" fill="#E30021"/><path d="M11.8 6.95h.01l.07.01.04.01h-.07l-.14.04a.13.13 0 0 0-.06.06.55.55 0 0 0-.04.2v.02a1.4 1.4 0 0 0-.04-.2.14.14 0 0 0-.03-.05.13.13 0 0 0-.05-.03.38.38 0 0 0-.11-.03l-.07-.01.04-.01h.06v-.01h.01c.04 0 .07-.01.1-.03a.15.15 0 0 0 .06-.1l.02-.1v-.06l.02.04a.71.71 0 0 0 .03.16l.03.04.05.03.07.02Z" fill="#FAD448"/><path d="m14.42 10.86.17-1.02.04-.23.03-.17.03-.18.02-.13.02-.13.04-.2.02-.12.02-.13.02-.11.02-.14.02-.08.02-.13.02-.12.02-.14.01-.06a38.38 38.38 0 0 0 .03-.16c.41.31.73.83.7 1.37.03.6-.58 1.87-1.25 1.88Z" fill="#4A9FD8"/><path d="m5.65 8.39-.08.08a89.03 89.03 0 0 0-.35.35l-.12.12a.1.1 0 0 1-.07.03.1.1 0 0 1-.06-.03l-.02-.01v-.01a277.45 277.45 0 0 0-.54-.53l-.08-.07c-.02-.02-.03-.03-.05-.01h-.02v.16a31555.8 31555.8 0 0 1 0 1.78l.05.09.02.03v.05l-.03.02h-.66l-.02-.02-.01-.02a.07.07 0 0 1 .02-.05.24.24 0 0 0 .05-.1V7.68a.29.29 0 0 0-.05-.16l-.02-.03v-.03l.02-.03a535.66 535.66 0 0 0 .63 0h.1l.01.02a.05.05 0 0 1 0 .04l-.01.03.01.02.16.15.12.12.2.19.07.06a.2.2 0 0 0 .03.04l.04.03h.05a.1.1 0 0 0 .05-.02l.05-.05a1201.9 1201.9 0 0 1 .33-.31l.2-.2.02-.02-.01-.04v-.03l.02-.03h.73l.01.02a.04.04 0 0 1 0 .04l-.01.02a.27.27 0 0 0-.06.17v1.35a2.2 2.2 0 0 0-.02.33l.01-.07.02-.1c0-.06.02-.11.04-.17a1.49 1.49 0 0 1 .56-.75 1.8 1.8 0 0 1 .94-.34c.15 0 .3.02.45.06a1.06 1.06 0 0 1 .74 1.2v.08l-.04.12-.07.17a1.71 1.71 0 0 1-1.54.93 1.2 1.2 0 0 1-.36-.06 1.03 1.03 0 0 1-.72-.8v.54c-.01.07.01.14.05.19l.02.02a.04.04 0 0 1 0 .04l-.02.01h-.04a628.82 628.82 0 0 1-.66 0v-.06s0-.02.02-.03a.28.28 0 0 0 .06-.19 3040.22 3040.22 0 0 0-.01-1.83l-.03-.02h-.02a.75.75 0 0 0-.1.09ZM4.2 10.33l-.01-.03a924.64 924.64 0 0 0-.02-1.95c0-.04 0-.07.03-.1a.14.14 0 0 1 .06-.05h.08c.02 0 .05.02.07.05l.09.08.04.05.1.1.1.08.18.18a24.6 24.6 0 0 0 .12.12l.02-.02.1-.1.14-.13.1-.1.05-.05.1-.1.13-.12a.13.13 0 0 1 .06-.04h.07c.03.01.05.02.06.04l.04.07v.07a1664.37 1664.37 0 0 0-.01 1.89l-.02.06H6.3v-.02a102.42 102.42 0 0 1-.02-.7v-.18l-.01-.11v-.25l.01-.1a644.2 644.2 0 0 1 0-1.33l.03-.1v-.01a9.84 9.84 0 0 0-.52.02l-.03.06-.03.03-.18.18-.1.1-.04.03-.1.1-.14.14a.2.2 0 0 1-.15.05l-.05-.01s-.02 0-.03-.02a77.12 77.12 0 0 0-.29-.27l-.1-.1-.1-.1c-.05-.04-.1-.08-.13-.13a.12.12 0 0 1-.05-.07.02.02 0 0 0 0-.01h-.5v.02c.02.05.03.12.03.18v2.4c0 .07-.01.13-.03.18v.02h.43Zm3.78-2.3c-.08 0-.15 0-.22.02l-.12.02a1.91 1.91 0 0 0-.62.3 1.74 1.74 0 0 0-.37.42 1.7 1.7 0 0 0-.16.36.81.81 0 0 0-.03.23v.16c.02.08.04.16.08.24a.93.93 0 0 0 .4.46 1.13 1.13 0 0 0 .43.14h.07l.16.01a1.62 1.62 0 0 0 1.2-.66 1.37 1.37 0 0 0 .24-.69V8.9L9 8.8a.98.98 0 0 0-.37-.55c0-.02-.02-.02-.04-.03a.95.95 0 0 0-.32-.14l-.05-.01a.93.93 0 0 0-.16-.02h-.1Z" fill="#E30021"/><path d="m10.4 9.6-.02-.01-.02-.03V8.85l.03-.02h.04l.03.03s.01.02.03.02c.03.03.07.04.11.04h.37c.02 0 .05 0 .07.02l.05.05.02.03v.02l-.01.1v.13V9.21l.03-.12.01-.03a1.43 1.43 0 0 1 .37-.62 1.72 1.72 0 0 1 1.41-.5c.12.02.22.06.33.1a1.06 1.06 0 0 1 .61 1.17c-.04.22-.13.43-.27.6a1.62 1.62 0 0 1-.85.6 1.77 1.77 0 0 1-.39.06h-.13l-.16-.01a1.5 1.5 0 0 1-.36-.12 1.09 1.09 0 0 1-.49-.47 1.17 1.17 0 0 1-.07-.2h-.01v.03a229.3 229.3 0 0 0 0 .6c-.01.03-.03.07-.06.1a.16.16 0 0 1-.1.04h-.53a1.25 1.25 0 0 1-.52-.12l-.08-.04a.1.1 0 0 0-.04-.03l-.02-.02a1.36 1.36 0 0 1-.47-.55 1.81 1.81 0 0 1-.16-.94v-.07l.04-.15a1.54 1.54 0 0 1 .41-.75l.22-.17a1.23 1.23 0 0 1 .7-.18h.26a.2.2 0 0 0 .16-.07h.05l.02.01V8.1l-.02.02a.04.04 0 0 1-.04-.01.16.16 0 0 0-.04-.03.14.14 0 0 0-.06-.03.42.42 0 0 0-.11-.01h-.32a.7.7 0 0 0-.36.12.64.64 0 0 0-.16.15.99.99 0 0 0-.17.42c-.04.2-.02.4.04.58.04.12.1.24.2.33a.65.65 0 0 0 .24.16l.03.01a.7.7 0 0 0 .25.04c.02 0 .03 0 .04-.02l.02-.03v-.25c.01 0 0 0 0 0v-.02h-.04a.09.09 0 0 0-.03.03.14.14 0 0 0-.03.03.07.07 0 0 1-.04.02Zm2.3-1.57h-.12a2 2 0 0 0-.4.1c-.02 0-.04 0-.05.02l-.12.05a1.55 1.55 0 0 0-.28.17l-.12.11a1.14 1.14 0 0 0-.24.3 2.76 2.76 0 0 0-.13.27.98.98 0 0 0-.05.32c0 .07 0 .14.02.2l.06.18a.92.92 0 0 0 .41.47 1.24 1.24 0 0 0 .5.15H12.4l.08-.01a1.9 1.9 0 0 0 .46-.14l.21-.12.06-.04.12-.1a1.68 1.68 0 0 0 .25-.28 1.38 1.38 0 0 0 .2-.58v-.25a.9.9 0 0 0-.11-.31.97.97 0 0 0-.66-.47l-.14-.03a.91.91 0 0 0-.16 0Zm-1.78-.53h-.02a.37.37 0 0 1-.14.03h-.44l-.08.02a1.2 1.2 0 0 0-.44.19 1.1 1.1 0 0 0-.22.2l-.12.16-.06.1-.05.13c-.03.05-.04.1-.06.16l-.02.11a1.52 1.52 0 0 0-.03.46l.02.13a1.38 1.38 0 0 0 .1.37l.06.12.05.1a1.04 1.04 0 0 0 .2.24 1.14 1.14 0 0 0 .77.31H11l.03-.05v-.73L11 9.46V9.3a1.93 1.93 0 0 1 0-.25.1.1 0 0 0-.04-.03h-.35a.4.4 0 0 1-.13-.02h-.03v.43l.1-.02.02.01a.1.1 0 0 1 .05.03.1.1 0 0 1 .02.05 4.93 4.93 0 0 0 0 .32c-.01.02-.02.05-.04.06a.17.17 0 0 1-.13.06 1.03 1.03 0 0 1-.3-.05.64.64 0 0 1-.2-.1.77.77 0 0 1-.24-.3.87.87 0 0 1-.07-.18 1.67 1.67 0 0 1-.06-.38v-.07a1.26 1.26 0 0 1 .08-.36l.11-.23a.78.78 0 0 1 .54-.33l.18-.02a10.58 10.58 0 0 0 .32.01l.08.02V7.5Z" fill="#E30021"/><path d="M10.94 7.35a.22.22 0 0 1-.16.07h-.26l-.17.01a1.23 1.23 0 0 0-.75.34 1.44 1.44 0 0 0-.41.75l-.03.15-.01.07a1.81 1.81 0 0 0 .16.95 1.36 1.36 0 0 0 .47.54l.02.02h-.01a.68.68 0 0 1-.1-.06h-.01l-.01-.01h-.01c0-.02-.02-.02-.03-.02a.24.24 0 0 0-.03-.04 1.35 1.35 0 0 1-.41-.57 1.85 1.85 0 0 1-.08-.24v-.13a1.04 1.04 0 0 0-.2-.8A1.06 1.06 0 0 0 8.38 8a1.48 1.48 0 0 0-.78-.01 1.69 1.69 0 0 0-.78.44 1.49 1.49 0 0 0-.43.76l-.01-.01v-.1l.04-.13.04-.1.1-.18c.01-.04.04-.07.06-.11l.09-.11c.04-.04.07-.09.12-.12l.13-.12A1.46 1.46 0 0 1 7.3 8l.1-.05.14-.04.14-.04h.06a.43.43 0 0 1 .1-.02H8.13l.07.01.08.02a1.26 1.26 0 0 1 .38.16l.12.1.13.14a1.06 1.06 0 0 1 .11.18c.02 0 .01-.01.02-.02.02 0 .01.03.02.04l.01.04.02.05.01-.05a1.33 1.33 0 0 1 .09-.29 1.37 1.37 0 0 1 .29-.45l.06-.06a1.69 1.69 0 0 1 .18-.14 1.16 1.16 0 0 1 .57-.18.1.1 0 0 1 .05 0h.32l.07-.01a.25.25 0 0 0 .12-.06V7.3h.06a.05.05 0 0 1 .03.04Z" fill="#F7C7B9"/><path d="M10.86 7.31a.03.03 0 0 1-.02.03.25.25 0 0 1-.11.05h-.39a1.1 1.1 0 0 0-.37.07 1.16 1.16 0 0 0-.43.26l-.06.06a2.08 2.08 0 0 0-.2.27 1.37 1.37 0 0 0-.14.31l-.04.16-.01.05a.3.3 0 0 1-.01-.05l-.02-.04c0-.01 0-.03-.02-.04l-.01.02L9 8.44a1.06 1.06 0 0 0-.73-.56l-.08-.02a.58.58 0 0 1-.07 0l-.09-.02H7.9l-.06.01h-.01l-.09.01-.06.01-.14.04c-.05 0-.1.02-.14.04L7.3 8a1.65 1.65 0 0 0-.35.21l-.13.12a1.44 1.44 0 0 0-.2.23l-.08.1-.09.19-.04.1-.03.12V8.98a1.47 1.47 0 0 1 .44-.74l.07-.07a1.54 1.54 0 0 1 .48-.28c.1-.04.19-.07.29-.09l.1-.02h.1l.09-.01a3.25 3.25 0 0 1 .35.04 1.15 1.15 0 0 1 .43.21l.06.06.04.03a1.1 1.1 0 0 1 .21.32l.01-.02a1.48 1.48 0 0 1 .62-.86c.12-.07.24-.12.37-.15l.13-.02.19-.01h.25c.06 0 .11-.02.15-.05l.04-.03h.04l.01.01v.02Z" fill="#F7E0DA"/><path d="M4.3 7.42h-.04a624.94 624.94 0 0 1-.63.01l-.02.03v.03l.02.03c.04.05.06.1.06.16v.03a28648.8 28648.8 0 0 0-.01 2.54l-.05.1-.02.02v.03h-.05c-.02 0-.02-.03-.03-.03a.06.06 0 0 1 .02-.05.21.21 0 0 0 .04-.07 4073.95 4073.95 0 0 1 .01-2.67.28.28 0 0 0-.04-.1l-.03-.03c0-.02 0-.03.02-.05a694.88 694.88 0 0 0 .67-.01h.03l.03.01.02.02ZM13.88 8.91l-.01-.06a1.05 1.05 0 0 0-.62-.8 1.35 1.35 0 0 0-.64-.12 1.8 1.8 0 0 0-1.1.5 1.43 1.43 0 0 0-.37.63l-.01.03v-.01l-.01-.04v-.02a2.05 2.05 0 0 1 .14-.33l.03-.06a1.3 1.3 0 0 1 .16-.22l.08-.08a1.01 1.01 0 0 1 .13-.12l.1-.07.09-.05a1.68 1.68 0 0 1 .27-.14l.13-.04a1.62 1.62 0 0 1 .55-.07l.07.01.09.01.2.06c.03 0 .06.02.1.04a1.07 1.07 0 0 1 .56.62.9.9 0 0 1 .05.18v.15Z" fill="#F7C7B9"/><path d="M4.22 7.4a2640.63 2640.63 0 0 1-.67 0 .1.1 0 0 0-.02.05l.03.04a.28.28 0 0 1 .05.18 15668.25 15668.25 0 0 0-.02 2.58.21.21 0 0 1-.04.07l-.02.02v.03H3.5l-.02-.02-.01-.03c0-.01 0-.02.02-.03a.27.27 0 0 0 .06-.16v-2.5a.3.3 0 0 0-.07-.2l-.01-.02V7.4a.05.05 0 0 1 .02-.03.04.04 0 0 1 .03-.01h.02a4189.8 4189.8 0 0 1 .68 0l.01.03ZM13.87 8.77v-.01a.9.9 0 0 0-.1-.32.95.95 0 0 0-.23-.3 1.07 1.07 0 0 0-.28-.19c-.04 0-.07-.02-.1-.03a1.26 1.26 0 0 0-.2-.06l-.09-.01h-.07a.87.87 0 0 0-.2 0h-.1a1.17 1.17 0 0 0-.25.06l-.13.04-.13.06-.14.07-.1.06-.09.07a1.72 1.72 0 0 0-.13.12l-.08.08a1.29 1.29 0 0 0-.16.22l-.03.06a1.45 1.45 0 0 0-.13.33l-.01.02-.01-.02V9l.08-.25a1.52 1.52 0 0 1 .8-.82c.13-.07.26-.11.4-.14l.13-.02a1.5 1.5 0 0 1 .55.04 1.04 1.04 0 0 1 .8.93v.03Z" fill="#F7E0DA"/><path d="m5.72 8.32.03-.02h.02l.03.02a11823.43 11823.43 0 0 0 0 1.84c0 .06-.01.13-.05.18l-.03.03v.03h-.05l-.03-.03a.08.08 0 0 1 .03-.06.27.27 0 0 0 .06-.18 6110.93 6110.93 0 0 0 0-1.8Z" fill="#F7C7B9"/><path d="M5.72 8.32v1.81c.01.07-.01.13-.05.18a.08.08 0 0 0-.03.06l-.05-.01v-.01a.05.05 0 0 1 0-.06.34.34 0 0 0 .04-.08.3.3 0 0 0 .02-.07 3137.37 3137.37 0 0 0 0-1.7v-.05a.75.75 0 0 1 .07-.07Z" fill="#F7E0DA"/><path d="M6.37 7.42h-.04a629.75 629.75 0 0 1-.63.01l-.02.03v.03c0 .01.02.02.01.04l-.01.02a153.4 153.4 0 0 1-.54.51l-.05.05a.1.1 0 0 1-.05.03h-.05a.09.09 0 0 1-.04-.04h.03c.02 0 .03-.02.05-.03L5.1 8l.07-.07.08-.07.07-.08.1-.1.06-.05.12-.12v-.08l.02-.03H6.35l.02.03Z" fill="#F7C7B9"/><path d="M6.3 7.4h-.67a.06.06 0 0 0-.02.02v.08l-.12.12a1.2 1.2 0 0 1-.06.06l-.1.1-.07.06-.08.08L5.1 8l-.08.08a.14.14 0 0 1-.05.03h-.03a.2.2 0 0 1-.03-.04c.01 0 .02 0 .03-.02l.15-.14.14-.14.15-.14.11-.12c.02 0 .03-.02.04-.04a.05.05 0 0 0-.01-.04c0-.04.01-.06.05-.06H6.27l.02.03ZM9.1 9.27l.01.04a1.86 1.86 0 0 0 .24.55 1.35 1.35 0 0 0 .28.3l-.03-.01a1.44 1.44 0 0 1-.48-.61 2.31 2.31 0 0 1-.05-.15l.03-.12Z" fill="#F7E0DA"/><path d="M4.28 8.3c.02 0 .03 0 .05.02l.08.07a2157.44 2157.44 0 0 1 .51.53l-.02-.01-.02-.02a.27.27 0 0 0-.05-.04l-.1-.1-.07-.07-.1-.1-.06-.06-.1-.1-.12-.11Z" fill="#F7C7B9"/><path d="m10.4 9.6.05-.02.03-.03a.01.01 0 0 1 0 .01v.19a.1.1 0 0 1-.03.04.1.1 0 0 1-.05.01h-.09a.68.68 0 0 1-.1-.02v.01l-.03-.01a.14.14 0 0 1-.06-.03l.06.01h.04l.12.01h.04l.02-.04V9.6Z" fill="#F7E0DA"/><path d="M4.19 10.33h-.43v-.02a.66.66 0 0 0 .03-.17V7.73l-.03-.18v-.02h.5v.01c0 .03.02.06.05.07l.12.13.12.1.1.1a192.74 192.74 0 0 0 .31.29l.05.01a.19.19 0 0 0 .15-.05l.15-.14.1-.1.03-.03.1-.1.18-.18.03-.03a.11.11 0 0 0 .03-.06l.01-.02h.5v.02l-.01.1v.03a1582.9 1582.9 0 0 0-.02 1.5V9.42l.02.19a126.89 126.89 0 0 0 .01.72 548.16 548.16 0 0 1-.42 0l.02-.06a1842.6 1842.6 0 0 1 0-1.96.14.14 0 0 0-.03-.07.13.13 0 0 0-.06-.04.13.13 0 0 0-.07 0 .13.13 0 0 0-.06.04l-.13.12-.1.1-.05.05-.1.1-.13.13-.1.1-.03.02h-.01l-.11-.12-.19-.18-.09-.09-.1-.1-.04-.04-.09-.08a.16.16 0 0 0-.07-.05h-.08a.14.14 0 0 0-.06.05.16.16 0 0 0-.03.1v.02a3452.29 3452.29 0 0 1 .02 1.93v.03ZM7.97 8.04h.09c.05 0 .1 0 .16.02l.05.01.05.01a1.29 1.29 0 0 1 .27.13c.02 0 .03.01.04.03a1 1 0 0 1 .37.54l.02.11a1.1 1.1 0 0 1-.11.63 1.37 1.37 0 0 1-.3.41 1.59 1.59 0 0 1-.84.44 1.6 1.6 0 0 1-.34.02l-.07-.01a1.32 1.32 0 0 1-.44-.14.96.96 0 0 1-.47-.76v-.1c0-.08.01-.15.03-.23a1.25 1.25 0 0 1 .16-.36 1.32 1.32 0 0 1 .22-.28 1.74 1.74 0 0 1 .57-.37l.2-.07.12-.02c.07-.01.14-.02.22-.01Zm.69.98v-.03l-.01-.07a.53.53 0 0 0-.15-.3.63.63 0 0 0-.28-.15 1.05 1.05 0 0 0-.33-.04c-.06 0-.11.02-.16.03a1.23 1.23 0 0 0-.78.55.83.83 0 0 0-.1.23.65.65 0 0 0-.01.27.53.53 0 0 0 .2.33c.02.02.06.05.1.06a.94.94 0 0 0 .64.05 1.2 1.2 0 0 0 .8-.64.82.82 0 0 0 .07-.27v-.02ZM12.7 8.03h.16l.14.04c.03 0 .06 0 .08.02a1.08 1.08 0 0 1 .45.27.97.97 0 0 1 .23.87 1.38 1.38 0 0 1-.56.82l-.06.05a1.61 1.61 0 0 1-.67.26h-.08l-.1.01h-.11a1.14 1.14 0 0 1-.77-.38.92.92 0 0 1-.14-.24 1.35 1.35 0 0 1-.06-.18.48.48 0 0 1-.02-.2v-.02a.77.77 0 0 1 .05-.3 1.2 1.2 0 0 1 .13-.27 1.18 1.18 0 0 1 .24-.3l.12-.1a1.58 1.58 0 0 1 .28-.18l.12-.05.04-.02a1.3 1.3 0 0 1 .41-.1h.12Zm-.02.4a1.42 1.42 0 0 0-.64.2 1.2 1.2 0 0 0-.4.44.76.76 0 0 0-.06.23.55.55 0 0 0 .27.56c.04.03.08.05.13.06a.98.98 0 0 0 .48.03 1.52 1.52 0 0 0 .4-.13l.1-.07a1.39 1.39 0 0 0 .25-.23l.09-.13a.77.77 0 0 0 .08-.19 1.02 1.02 0 0 0 .03-.2l-.02-.14a.5.5 0 0 0-.1-.2.6.6 0 0 0-.2-.15.54.54 0 0 0-.17-.05.81.81 0 0 0-.24-.03ZM10.92 7.5v.45l-.08-.02a11.15 11.15 0 0 1-.5 0 .78.78 0 0 0-.53.34 1.08 1.08 0 0 0-.2.6v.06a2.16 2.16 0 0 0 .06.38.87.87 0 0 0 .12.27c.05.08.12.15.2.2l.11.08.08.03.14.04h.17a.17.17 0 0 0 .12-.05.15.15 0 0 0 .03-.06l.02-.1a5.22 5.22 0 0 1-.01-.22.1.1 0 0 0-.03-.05.1.1 0 0 0-.04-.03h-.03a.62.62 0 0 0-.09.01V9h.03a.4.4 0 0 0 .13.03h.35a.1.1 0 0 1 .04.03 1.93 1.93 0 0 0 .01.51c.02.23 0 .46 0 .69v.03l-.02.04a.07.07 0 0 1-.05.01h-.5a1.23 1.23 0 0 1-.42-.08 1.26 1.26 0 0 1-.56-.48l-.06-.09-.05-.12a2.02 2.02 0 0 1-.1-.37l-.02-.13a1.63 1.63 0 0 1 .05-.56c.02-.06.03-.12.06-.17l.05-.12.06-.11a1.61 1.61 0 0 1 .2-.25 1.1 1.1 0 0 1 .66-.31l.13-.01H10.75a.37.37 0 0 0 .16-.03Z" fill="#FAD448"/><path d="M10.2 9.79H10.33l.08.01a.1.1 0 0 0 .05 0 .1.1 0 0 0 .03-.05v-.2a.09.09 0 0 1 .03-.03h.04V9.75a.1.1 0 0 1 0 .04c0 .01 0 .02-.02.03a.06.06 0 0 1-.04.01.83.83 0 0 1-.28-.04Z" fill="#F7C7B9"/><path d="M8.66 9.02v.02a.82.82 0 0 1-.2.48 1.5 1.5 0 0 1-.2.2 1.4 1.4 0 0 1-.34.2 1.2 1.2 0 0 1-.46.07.94.94 0 0 1-.33-.09.57.57 0 0 1-.25-.25.53.53 0 0 1-.04-.14.65.65 0 0 1 .01-.27.83.83 0 0 1 .1-.23 1.18 1.18 0 0 1 .78-.55.92.92 0 0 1 .49 0c.1.04.2.09.28.16a.52.52 0 0 1 .15.37.2.2 0 0 0 0 .03Zm-1.73.36a.2.2 0 0 0 0 .05v.04a.42.42 0 0 0 .2.31c.1.06.2.1.32.1h.16c.04 0 .08 0 .12-.02.27-.05.52-.21.69-.45.05-.07.09-.15.11-.24l.03-.15v-.08h-.01v-.02a.44.44 0 0 0-.1-.19.5.5 0 0 0-.22-.15.93.93 0 0 0-.46-.03c-.12.03-.24.08-.35.14-.18.1-.32.24-.41.42a.65.65 0 0 0-.08.27ZM12.68 8.43a.81.81 0 0 1 .27.03l.13.05a.6.6 0 0 1 .2.16.5.5 0 0 1 .1.2.93.93 0 0 1 .03.16c0 .06-.02.12-.03.17a.78.78 0 0 1-.17.32 1.39 1.39 0 0 1-.25.23l-.11.07a1.52 1.52 0 0 1-.44.14h-.19a.98.98 0 0 1-.24-.04.63.63 0 0 1-.32-.23.55.55 0 0 1-.09-.39.76.76 0 0 1 .08-.24 1.04 1.04 0 0 1 .38-.43 1.4 1.4 0 0 1 .5-.19.6.6 0 0 1 .15-.01Zm-1.01.96v.06c.01.1.07.2.16.28a.6.6 0 0 0 .2.1c.08.03.15.04.23.04h.09l.2-.04a1.1 1.1 0 0 0 .67-.5.7.7 0 0 0 .1-.3L13.3 9v-.06a.4.4 0 0 0-.1-.21.54.54 0 0 0-.24-.16.88.88 0 0 0-.45-.03 1.17 1.17 0 0 0-.68.4.8.8 0 0 0-.14.25.41.41 0 0 0-.03.12.2.2 0 0 0 0 .08Z" fill="#E30021"/><path d="M6.93 9.34c.01-.08.04-.16.08-.23.1-.18.23-.32.4-.42a1.17 1.17 0 0 1 .54-.15c.1 0 .2 0 .28.04a.5.5 0 0 1 .23.15.44.44 0 0 1 .09.2.74.74 0 0 1-.1.26 1.1 1.1 0 0 1-.5.43 1.22 1.22 0 0 1-.5.1l-.08-.01a.74.74 0 0 1-.2-.07.5.5 0 0 1-.13-.1.42.42 0 0 1-.1-.14v-.06Z" fill="#4A9FD8"/><path d="M8.56 9.02c0 .05 0 .1-.03.15a.78.78 0 0 1-.11.24c-.17.24-.42.4-.7.45l-.1.02h-.17a.66.66 0 0 1-.32-.1.42.42 0 0 1-.14-.13.45.45 0 0 1-.06-.18v-.04a.45.45 0 0 0 .15.23l.11.07a.67.67 0 0 0 .28.07h.09l.1-.01.08-.02a1.09 1.09 0 0 0 .78-.64.5.5 0 0 0 .03-.1v-.01Z" fill="#F7C7B9"/><path d="M8.56 9.02h-.01a.7.7 0 0 1-.1.27.93.93 0 0 1-.15.16 1.06 1.06 0 0 1-.74.34h-.09a.65.65 0 0 1-.28-.06.48.48 0 0 1-.11-.07.45.45 0 0 1-.14-.23h-.01a.2.2 0 0 1 0-.05v-.01l.02.03c.02.05.05.1.1.15a.5.5 0 0 0 .13.1.74.74 0 0 0 .4.06 1.05 1.05 0 0 0 .37-.1 1.23 1.23 0 0 0 .38-.27l.11-.15a.74.74 0 0 0 .1-.25h.01v.08Z" fill="#F7E0DA"/><path d="M11.67 9.31a.4.4 0 0 1 .03-.12.8.8 0 0 1 .14-.24c.1-.14.24-.24.39-.3a1.18 1.18 0 0 1 .48-.12c.09 0 .17.02.26.04.09.03.17.09.23.16a.4.4 0 0 1 .1.21c0 .03 0 .06-.02.08-.04.11-.1.21-.17.3a1.12 1.12 0 0 1-.7.36l-.12.01h-.1a.67.67 0 0 1-.21-.05.51.51 0 0 1-.22-.15.48.48 0 0 1-.06-.1l-.03-.08Z" fill="#4A9FD8"/><path d="M13.3 9c.02 0 .01.01.01.02 0 .1-.04.21-.09.3a1.1 1.1 0 0 1-.87.54h-.1a.83.83 0 0 1-.21-.02.6.6 0 0 1-.21-.11.43.43 0 0 1-.16-.28v-.06a.44.44 0 0 0 .23.3.64.64 0 0 0 .28.08h.25l.12-.03a.7.7 0 0 0 .12-.04l.1-.04a1.15 1.15 0 0 0 .31-.24l.07-.08a.79.79 0 0 0 .15-.3V9Z" fill="#F7C7B9"/><path d="M13.3 9v.04a.79.79 0 0 1-.15.3l-.07.08a1.14 1.14 0 0 1-.3.24l-.11.04a.7.7 0 0 1-.12.04.52.52 0 0 1-.12.02c-.02.02-.05 0-.08.02h-.17c-.1-.02-.2-.04-.28-.1a.39.39 0 0 1-.1-.07.44.44 0 0 1-.12-.22h-.01a.2.2 0 0 1 0-.08l.03.08a.5.5 0 0 0 .06.1c.06.07.13.12.22.15.07.03.14.05.22.05h.21a1.12 1.12 0 0 0 .7-.37.86.86 0 0 0 .17-.3l.02-.08V9Z" fill="#F7E0DA"/><path d="m14.07 11.2-.04.02H3.9c-.44 0-.87-.2-1.21-.53a2.21 2.21 0 0 1-.65-1.27 2.6 2.6 0 0 1 .07-1.18c.09-.29.22-.55.4-.77a1.87 1.87 0 0 1 1.15-.68c.08-.02.17-.02.26-.02h3.54v.01a.58.58 0 0 1-.3.3.13.13 0 0 1-.05.01h-.03a17005.24 17005.24 0 0 1-3.1.01 1.88 1.88 0 0 0-.52.13 1.78 1.78 0 0 0-.75.6 1.97 1.97 0 0 0-.1 2.15 1.75 1.75 0 0 0 1.57.86h9.87v.07l.02.15v.15Z" fill="#E30021"/><path d="m14.9 7.26-.02.18-.02.15-.02.08v.05l-.03.17-.02.07-.02.15-.02.13-.02.15-.02.09-.02.15-.02.12-.03.15-.02.14-.04.21-.02.14-.02.14-.03.2-.03.2-.05.25a59.62 59.62 0 0 0-.06.4l-.02.14c-.01.06-.03.13-.03.2l-.03.13a395.84 395.84 0 0 1-.06.39l-.02.14-.02.1h-.31c-.1-.2-.01-.64-.02-.86l-.02-.25-.01-.2-.02-.26v-.2l-.02-.18a2.8 2.8 0 0 0-.02-.35v-.12l-.01-.16-.01-.2-.01-.13-.01-.2-.01-.15-.01-.18v-.01l-.01-.14-.01-.2-.01-.19-.01-.17-.01-.15-.01-.1v-.09l-.01-.17v-.07l-.01-.07v-.02l-.01-.16v-.14l-.01-.11-.01-.13a1.79 1.79 0 0 1-.01-.18l.14-.05 1.4-.22v.03l-.04.26-.02.14-.03.14-.02.13-.02.15-.02.08-.02.15-.01.06c0 .06-.02.12-.03.17l-.01.08Zm-1.19-1.03V6.38l.01.14a.75.75 0 0 1 0 .14c.01.04.02.07.01.1v.04l.01.07v.2l.01.05.01.07a3.34 3.34 0 0 0 .02.41v.14c.02.04 0 .1.02.14v.07l.01.07v.22l.01.02v.16a.9.9 0 0 1 .01.1v.06l.01.07v.06a1.78 1.78 0 0 1 .01.18l.01.1v.14c0 .03 0 .06.02.1v.14c.01.05.02.11.01.16v.06l.01.07V9.87l.01.02.01.12v.19l.01.1.01.1v.12l.01.07v.1l.01.03a10.94 10.94 0 0 1 .02.3.5.5 0 0 1 0 .09l.01.22v.02c.01.03.02.06.01.1v.06l.01.06h.08a.2.2 0 0 0 .01-.03l.03-.16.02-.17.03-.15c0-.05 0-.09.02-.13l.01-.07.01-.1v-.01l.03-.13v-.04l.02-.07v-.02l.02-.12.03-.15v-.05l.02-.13.04-.21v-.06l.02-.09.01-.07.02-.13.02-.12.01-.06.02-.12.02-.12.02-.11c0-.07.02-.13.03-.2l.03-.13v-.09a1.88 1.88 0 0 1 .04-.18l.02-.16.04-.2.01-.12c.02-.05.02-.11.03-.17a.52.52 0 0 0 .02-.13c.02-.05.02-.11.03-.17 0-.07.02-.12.03-.18l.02-.13.03-.15.03-.2c0-.06.02-.12.03-.17l.01-.06.03-.19V6.3l.03-.15.01-.12a.67.67 0 0 1-.1.02l-.16.02-.12.02c-.04 0-.08 0-.13.02l-.16.03h-.02l-.08.01-.12.02-.1.01a.2.2 0 0 1-.04 0l-.03.01a.6.6 0 0 1-.1.01h-.02l-.1.04ZM14.01 13h-.03a1.17 1.17 0 0 1-.44-.08.81.81 0 0 1-.26-.15.44.44 0 0 1-.13-.2.33.33 0 0 1 .03-.27.5.5 0 0 1 .13-.16c.1-.07.22-.13.34-.16a1.3 1.3 0 0 1 .54-.04c.06 0 .13.02.2.04.11.03.22.08.33.16.05.04.1.1.14.17a.33.33 0 0 1 .01.29.47.47 0 0 1-.14.18.88.88 0 0 1-.22.13l-.23.07-.12.01-.15.01Zm0-.11a1.14 1.14 0 0 0 .49-.1.71.71 0 0 0 .19-.12.37.37 0 0 0 .1-.13.23.23 0 0 0-.04-.22.53.53 0 0 0-.12-.11.97.97 0 0 0-.4-.15 1.76 1.76 0 0 0-.23-.02h-.09a1.07 1.07 0 0 0-.37.1.71.71 0 0 0-.2.12.35.35 0 0 0-.09.12.2.2 0 0 0-.01.12c0 .04.02.08.05.11.05.06.1.1.16.14a1 1 0 0 0 .56.14Z" fill="#FAD448"/><path d="M13.71 6.23c.04 0 .07-.03.1-.03h.03a.6.6 0 0 0 .09-.02h.03a.2.2 0 0 0 .04 0l.1-.02.11-.02.09-.01h.02a1 1 0 0 1 .16-.03l.13-.02.12-.02.16-.02.1-.02-.01.12-.03.15v.03l-.03.19-.01.06c-.01.05-.03.1-.03.16l-.03.21-.03.15-.02.13a1.17 1.17 0 0 0-.03.18c-.01.06 0 .12-.03.17 0 .05 0 .09-.02.13-.01.06-.01.12-.03.17l-.01.13-.04.2a1.34 1.34 0 0 0-.02.15l-.03.18-.01.09-.03.14-.03.19-.02.11-.02.12-.02.12v.06l-.03.12c0 .05 0 .09-.02.13v.07l-.02.09-.01.06-.04.21-.02.13v.05l-.03.15-.02.12v.02l-.02.07v.04l-.02.13v.02l-.02.09-.01.07-.02.13-.03.15-.02.17c-.01.06-.03.1-.03.16v.03H14a.13.13 0 0 1 0-.06v-.07c0-.03 0-.06-.02-.1v-.23l-.01-.1v-.09l-.02-.08v-.25l-.01-.07v-.13a.31.31 0 0 1-.02-.1V10.07l-.01-.05-.01-.12V9.66l-.01-.07v-.06c0-.05 0-.1-.02-.16v-.15l-.01-.1v-.05a.5.5 0 0 1 0-.07c0-.04 0-.08-.02-.11v-.02a1.74 1.74 0 0 0 0-.22l-.01-.07v-.05a.9.9 0 0 0-.01-.1V8.3l-.01-.05v-.24l-.02-.07v-.07l-.01-.15V7.6a.3.3 0 0 1-.02-.08.5.5 0 0 0 0-.1v-.13l-.01-.02a3.34 3.34 0 0 1-.01-.2v-.2l-.01-.07v-.04a.42.42 0 0 0-.01-.1v-.14l-.02-.14a1.1 1.1 0 0 1 0-.15ZM14.01 12.89l-.16-.01a1 1 0 0 1-.4-.13.54.54 0 0 1-.16-.14.26.26 0 0 1-.05-.11l.01-.12a.35.35 0 0 1 .09-.12c.06-.05.13-.1.2-.13a.92.92 0 0 1 .37-.08H14l.23.01a.97.97 0 0 1 .4.15l.11.11a.23.23 0 0 1 .04.22.37.37 0 0 1-.1.13.92.92 0 0 1-.45.2l-.22.02Z" fill="#E30021"/><path d="M7.65 6.66c0 .01 0 .02.02.03a.62.62 0 0 0 .36.3.4.4 0 0 0 .08.01l.03.01a.6.6 0 0 0-.38.19c-.1.1-.16.25-.18.4a.66.66 0 0 0-.17-.4.6.6 0 0 0-.38-.19h.04l.07-.03.05-.01a.61.61 0 0 0 .32-.3v-.01l.01-.01a.62.62 0 0 0 .06-.18v-.05l.01.07.05.16h.01Z" fill="#FAD448"/></svg>