<!-- by TradingView --><svg width="18" height="18" viewBox="0 0 18 18" xmlns="http://www.w3.org/2000/svg"><path fill="#F0F3FA" d="M0 0h18v18H0z"/><path d="M13.54 10.54c-.08-.31.13-.62.24-.74.18-.28.4-.71 0-.9-.32-.15-.14-.57-.15-.7.43-.77.18-1.08 0-1.14.08-.67-.5-.87-.8-.89-.08-.56-.59-.78-.84-.83-.1-.76-.62-.78-.86-.7-.14-.1-.47-.28-.7-.12-.22.16-.57.07-.72 0-.62-.88-1.28-.44-1.61-.17-.27.2-.52.22-.62.2-.44.07-1.3.56-1.67.8l-.42.71c-.27-.12-.47.19-.54.36l-.7.58c.1.13.25.43 0 .57-.23.15-.1.47 0 .61V9.4c-.1.03-.24.18 0 .51.26.34 0 .44-.15.44v.73l.46.11.12.46.27.1v.49l.66.33c.12.64.6.68.82.62.18.24.42.32.52.33.12.5.64.42.89.32.12-.32.51-.03.7.16.18-.19.34-.13.4-.08l.6-.08h.28l.1-.17c.23.21.51.2.63.17l.4-.17.3.17c.48-.7.69-.51.84-.95.13-.35.61-.68.84-.8.27-.4.79-1.24.71-1.55Z" fill="#EE3727" fill-opacity=".8"/><path d="M13.72 9.87c-.11.15-.24.4-.18.67.08.31-.44 1.16-.7 1.54-.24.13-.72.46-.85.81-.07.22-.16.28-.29.37-.13.1-.3.22-.54.58l-.3-.17-.41.17a.7.7 0 0 1-.63-.17l-.1.17h-.2a1.91 1.91 0 0 1-.08-.43c0-.2-.35-.48-.52-.6-.31-.02-1.12-.06-1.86-.07a1.74 1.74 0 0 1-1.22-.58c-.12-.12-.21-.2-.3-.2-.18 0-.35-.73-.4-1.1l.15-.96c-.02-.43.04-1.31.5-1.44.56-.15 1 .72.6 1.27-.34.43.13 1.1.4 1.37l.76.45c.22 0 .9-.02 1.89-.1.98-.1 1.06.1.98.21.2.04.75.08 1.26-.1.61-.24.91-1 1.1-1.5l.02-.04c.14-.36.64-.26.92-.15ZM4.1 8.1c-.08-.16-.14-.4.06-.52.24-.14.1-.44 0-.57l.7-.58c.06-.17.26-.48.53-.36l.42-.72a6.63 6.63 0 0 1 1.67-.8c.08.03.25.02.44-.08l.51.3c.02.12-.02.36-.31.46-.3.1-.65.35-.8.47-.1.13-.36.44-.66.6-.29.17-.36.58-.36.77l-.2.98a3.64 3.64 0 0 0-1.22-.42c-.37-.04-.63.24-.78.47Z" fill="#FBBE31"/><path d="m7.95 4.45.47.32c.17-.05.63-.14 1.04-.14.18 0 .2-.12.13-.26-.58-.67-1.18-.27-1.49-.02l-.15.1Zm5.64 4.12c0 .13.04.26.19.33.4.19.18.62 0 .9a.79.79 0 0 0-.07.08c-.22.05-.43.08-.48 0-.1-.12.16-.92.31-1.3h.05Z" fill="#9D3421"/><path d="M4.16 9.15v.25c-.1.03-.25.18 0 .51.25.34 0 .44-.16.44v.73l.46.11.12.46.27.1v.49l.66.33c.12.64.6.68.82.62.18.24.42.32.52.33.12.5.64.42.89.32.12-.32.51-.03.7.16.18-.19.34-.13.4-.08l.6-.08h.12c0-.45-.21-1.14-1.14-1.07-1.28.1-2.58-.28-3.16-1.16-.26-.4-.48-.97-.66-1.47-.16-.43-.3-.82-.44-1Z" fill="#F8A34C"/></svg>