<!-- by TradingView --><svg width="18" height="18" viewBox="0 0 18 18" xmlns="http://www.w3.org/2000/svg"><path fill="#F0F3FA" d="M0 0h18v18H0z"/><path fill-rule="evenodd" d="M14 4H4v10h10V4Zm-.47.49H4.45V11h9.08V4.49Z" fill="#202A44"/><path d="M4.78 8.06v2.5h.47V9.37l.86 1.2.86-1.2v1.2h.47v-2.5L6.1 9.9 4.78 8.06Z" fill="#202A44"/><path fill-rule="evenodd" d="M12.13 10.56a1.25 1.25 0 1 0 0-2.5 1.25 1.25 0 0 0 0 2.5Zm0-.47a.78.78 0 1 0 0-1.56.78.78 0 0 0 0 1.56Z" fill="#202A44"/><path d="M9.15 10.56a1.25 1.25 0 0 0 1.25-1.43H9v.38h.92a.78.78 0 0 1-.76.63.79.79 0 0 1-.79-.8c0-.44.35-.8.79-.8.2 0 .4.1.54.24h.02l.38-.29a1.26 1.26 0 0 0-2.2.82c0 .7.56 1.25 1.25 1.25Z" fill="#202A44"/></svg>