<!-- by TradingView --><svg width="18" height="18" xmlns="http://www.w3.org/2000/svg"><path fill="#E41D38" d="M0 0h18v18H0z"/><path d="M16 8l-3.826 3.676c-.097.1-.214.18-.344.236-.13.055-.27.085-.413.088a1.057 1.057 0 01-.723-.294.982.982 0 01-.294-.703V9.015a.96.96 0 00.292.706 1.06 1.06 0 00.725.299 1.114 1.114 0 00.757-.324L16 6v2z" fill="#fff"/><path d="M12.5 8.957a.954.954 0 00-.288-.7 1.01 1.01 0 00-1.119-.206 1.062 1.062 0 00-.338.231l-3.49 3.4a1.048 1.048 0 01-1.468.03.97.97 0 01-.297-.693V9.333c-.001.13.024-.018.074.102a1.019 1.019 0 001.34.528c.129-.055.244-.134.34-.232L10.76 6.32c.193-.197.458-.312.737-.32a1.035 1.035 0 01.71.295.974.974 0 01.287.697l.006 1.965z" fill="#fff"/><path d="M7.6 9a1.067 1.067 0 00-.29-.738 1.036 1.036 0 00-.712-.297 1.075 1.075 0 00-.746.32L2 12v-2l3.85-3.68c.095-.1.211-.179.34-.234.128-.055.267-.084.408-.086.269.004.525.11.712.297a.966.966 0 01.29.695V9z" fill="#fff"/></svg>