<!-- by TradingView --><svg width="18" height="18" viewBox="0 0 18 18" xmlns="http://www.w3.org/2000/svg"><path fill="#F0F3FA" d="M0 0h18v18H0z"/><path fill-rule="evenodd" d="M9 15A6 6 0 1 0 9 3a6 6 0 0 0 0 12Zm0-1.31A4.69 4.69 0 1 0 9 4.3a4.69 4.69 0 0 0 0 9.38Z" fill="#2E5EB2"/><path fill-rule="evenodd" d="M9 14.13A5.13 5.13 0 1 0 9 3.87a5.13 5.13 0 0 0 0 10.26Zm0 .35A5.48 5.48 0 1 0 9 3.52a5.48 5.48 0 0 0 0 10.96Z" fill="#F2F2F2"/><path d="M9.01 13.32H9c-.27-.08-.7-.35-.33-.9-1.14-.53-3.48-2.02-3.72-3.74-.3-2.17 1.34-2.93 2.12-2.9.78.01.98.67.76.95-.22.28-.94.12-1.3-.2-.43.15-1.26.72-1.14 1.8C5.53 9.7 8.3 11.59 9 11.6c.7-.01 3.48-1.9 3.61-3.25a1.72 1.72 0 0 0-1.14-1.8c-.36.31-1.08.47-1.3.2-.22-.29-.02-.95.76-.97.78-.02 2.43.74 2.12 2.9-.24 1.73-2.58 3.22-3.72 3.75.37.55-.06.82-.33.9Z" fill="#C8CBDD"/><path d="M5.12 10V8h.45l.63 1.36L6.8 8h.44v2H6.8V8.77L6.2 10h-.17l-.56-1.23V10h-.35Zm5.64 0V8h.46l.63 1.36.6-1.36h.43v2h-.43V8.77l-.6 1.23h-.18l-.55-1.23V10h-.36Zm-.92-1.2h.49V10h-.49V8.8ZM9.35 8h-.5v.8H8.1V8h-.51v2h.5v-.95h.76V10h.5V8Z" fill="#2E5EB2"/><path d="M10.08 8.61a.46.46 0 1 0 0-.92.46.46 0 0 0 0 .92Zm-.1-.74h.21v.2h.19v.2h-.19v.19h-.21v-.19h-.19v-.2h.19v-.2Z" fill="#7BA052"/></svg>