<!-- by TradingView --><svg width="18" height="18" fill="none" xmlns="http://www.w3.org/2000/svg"><path fill="#F0F3FA" d="M0 0h18v18H0z"/><path fill-rule="evenodd" clip-rule="evenodd" d="M14 9a5 5 0 01-9.022 2.97c.638-.173.827-.458.911-.586l.002-.003c.286-.434.31-1.17.296-1.494-.178-1.44.036-2.084.15-2.314.009-.015.017-.032.025-.05.12-.249.344-.71 1.017-.71h2.894c1.125 0 1.418 1.405 1.418 1.966.113 1.546.391 2.313.516 2.519.081.216.348.651.647.477.348-.202.145-.603 0-.779-.196-.236-.42-1.014-.416-1.372-.05-1.457-.366-2.371-.575-2.681.1-.132 1.098-.134 1.634-.13C13.82 7.472 14 8.214 14 9zm-8.438.965c.015 1.188-.57 1.482-.922 1.484A4.977 4.977 0 014 9c0-.844.209-1.638.578-2.336l1.49.148c-.132.162-.352.526-.506 1.012-.153.486-.064 1.628 0 2.14zM9 4a4.992 4.992 0 00-3.962 1.95c.367.154 1.363.345 3.056.171.188-.023.626-.233.593-.63v-.78c0-.145.05-.32.318-.313h.09c.094.007.217.079.217.314v1.033c0 .16.176.442.635.442h3.188A4.995 4.995 0 009 4zm-.313 3.792c0 .3-.097.894-.877 1.718-.846.894-.79 1.476-.66 1.974.128.498.72 1.265 2.032 1.265 1.276 0 1.693-.766 1.693-1.652 0-.6-.886-1.876-1.331-1.295-.106.138.047.304.12.384l.026.027c.037.045.078.09.12.137.204.225.44.487.44.833 0 .37-.27.942-1.068.942-.799 0-1.432-.452-1.432-1.26 0-.279.348-.666.521-.847.217-.225.847-1.064.86-1.17.075-.147.181-.514.181-1.056.011-.123-.069-.354-.313-.354-.245 0-.295.161-.312.354z" fill="#D1301D"/></svg>