<!-- by TradingView --><svg width="18" height="18" viewBox="0 0 18 18" xmlns="http://www.w3.org/2000/svg"><path fill="#F0F3FA" d="M0 0h18v18H0z"/><path d="M6.67 9.75V7.5c-.54 0-.67.38-.67.56v2.06c0 1.7 1.67 2.07 2 2.07.27 0 .33.37.33.56v.75c0 .45-1.1.94-1.66 1.13V15h4.66v-.38c-1.06-.14-1.55-.8-1.66-1.12v-.75c0-.45.22-.56.33-.56 1.6-.15 2-1.44 2-2.06V8.05c0-.45-.44-.56-.67-.56v2.25c0 .94-.66 1.88-2.33 1.88s-2.33-.94-2.33-1.88Z" fill="#037DC6"/><ellipse cx="8.17" cy="5.44" rx=".17" ry=".19" fill="#037DC6"/><ellipse cx="9.83" cy="5.44" rx=".17" ry=".19" fill="#037DC6"/><path fill-rule="evenodd" d="M7 4.82C7 3.82 7.75 3 8.67 3h.66c.92 0 1.67.81 1.67 1.82v2c-.37.16-1 .33-1.9.33-1.1 0-1.8-.26-2.1-.43v-1.9Zm0 2.3v2.06c0 1 .75 1.82 1.67 1.82h.66c.92 0 1.67-.81 1.67-1.82V7.21c-.42.16-1.06.3-1.9.3-.99 0-1.7-.2-2.1-.39Zm2-1.75c0 .5-.38.9-.83.9-.46 0-.84-.4-.84-.9s.38-.92.84-.92c.45 0 .83.4.83.9 0-.5.38-.9.83-.9.46 0 .84.41.84.91s-.38.91-.84.91c-.45 0-.83-.4-.83-.9Z" fill="#037DC6"/></svg>