<!-- by TradingView --><svg width="18" height="18" xmlns="http://www.w3.org/2000/svg"><path fill="#63237A" d="M0 0h18v18H0z"/><path d="M9.667 4C7.023 4 4 6.267 4 9.101S6.898 14 9.543 14C12.187 14 14 11.935 14 9.101S12.31 4 9.667 4z" fill="#fff"/><path d="M7.223 8.756C6.209 8.756 5 9.052 5 10.462c0 .495.177.904.511 1.18.292.239.698.371 1.145.371.601 0 1.114-.329 1.324-.558.236.347.507.576 1.044.576.077 0 .161-.005.25-.014.132-.014.258-.052.392-.092.2-.06.425-.127.722-.127.234 0 .508.054.773.107.267.053.543.108.784.108.186 0 .65-.034.927-.352a.542.542 0 00.128-.349c0-.279-.152-.466-.379-.466a.637.637 0 00-.264.06c-.03.011-.058.025-.087.038-.093.043-.19.088-.36.088-.166 0-.31-.037-.461-.076-.157-.04-.318-.08-.511-.08-.041 0-.103 0-.17.005.37-.264.726-.59 1.005-.921.489-.598.736-1.223.736-1.86 0-1.114-.676-1.805-1.766-1.805-.58 0-1.19.253-1.516.63a.636.636 0 00-.153.427c0 .298.19.455.378.455a.606.606 0 00.31-.09c.058-.034.12-.075.18-.115.224-.148.477-.316.785-.316.36 0 .788.146.788.842 0 .537-.239 1.04-.75 1.585-.808.853-1.482 1.406-1.717 1.406-.127 0-.46-.171-.46-.95V8.09c0-1.107-.666-1.794-1.74-1.794-.577 0-1.182.251-1.507.626a.63.63 0 00-.151.424c0 .298.189.454.376.454a.6.6 0 00.308-.092c.056-.032.115-.07.18-.113.221-.147.472-.314.778-.314.516 0 .8.298.8.837v.656a6.297 6.297 0 00-.409-.017zm.447 1.964c-.19.162-.45.38-.921.38-.53 0-.789-.238-.789-.726 0-.72.715-.812 1.339-.812.104 0 .195.007.332.025v.456c0 .201.005.438.04.677z" fill="#63237A"/></svg>