<!-- by TradingView --><svg width="18" height="18" viewBox="0 0 18 18" fill="none" xmlns="http://www.w3.org/2000/svg">
<rect width="18" height="18" fill="url(#paint0_linear_229_20176)"/>
<path d="M7.00683 3L6.09689 5.52188L8.63947 12.3563L8.73545 12.3181L8.24402 11H9.9987L11.5325 15L11.6284 14.9617L7.00683 3Z" fill="url(#paint1_linear_229_20176)"/>
<path d="M5.1239 8.21849L4 11H6.06765L7.5461 15L7.64203 14.9617L5.1239 8.21849Z" fill="url(#paint2_linear_229_20176)"/>
<path d="M8.54277 12.932L6.02956 6.22925L5.93359 6.26746L8.44679 12.9702L8.54277 12.932Z" fill="url(#paint3_linear_229_20176)"/>
<path d="M8.34276 13.4733L5.84108 6.75864L5.74503 6.79662L8.2467 13.5113L8.34276 13.4733Z" fill="url(#paint4_linear_229_20176)"/>
<path d="M8.15431 14.0025L5.64111 7.33333L5.54514 7.37154L8.05834 14.0407L8.15431 14.0025Z" fill="url(#paint5_linear_229_20176)"/>
<path d="M7.96575 14.5318L5.45255 7.829L5.35658 7.86721L7.86978 14.57L7.96575 14.5318Z" fill="url(#paint6_linear_229_20176)"/>
<path d="M14 11L10.9932 3L10.0832 5.52189L12.6258 12.3563L12.7218 12.3181L12.2303 11H14Z" fill="url(#paint7_linear_229_20176)"/>
<path d="M12.5291 12.932L10.0159 6.22925L9.91991 6.26746L12.4331 12.9702L12.5291 12.932Z" fill="url(#paint8_linear_229_20176)"/>
<path d="M12.3292 13.4733L9.82748 6.75864L9.73143 6.79662L12.2331 13.5113L12.3292 13.4733Z" fill="url(#paint9_linear_229_20176)"/>
<path d="M12.1406 14.0025L9.62743 7.33333L9.53146 7.37154L12.0447 14.0407L12.1406 14.0025Z" fill="url(#paint10_linear_229_20176)"/>
<path d="M11.9522 14.5318L9.39569 7.86721L9.29972 7.90541L11.8562 14.57L11.9522 14.5318Z" fill="url(#paint11_linear_229_20176)"/>
<defs>
<linearGradient id="paint0_linear_229_20176" x1="3.34858" y1="3.12159" x2="21.9042" y2="24.4339" gradientUnits="userSpaceOnUse">
<stop stop-color="#1A1E21"/>
<stop offset="1" stop-color="#06060A"/>
</linearGradient>
<linearGradient id="paint1_linear_229_20176" x1="9" y1="3" x2="9" y2="15" gradientUnits="userSpaceOnUse">
<stop offset="0.171669" stop-color="#A8802E"/>
<stop offset="0.481965" stop-color="#F9F1CD"/>
<stop offset="1" stop-color="#A8802E"/>
</linearGradient>
<linearGradient id="paint2_linear_229_20176" x1="9" y1="3" x2="9" y2="15" gradientUnits="userSpaceOnUse">
<stop offset="0.171669" stop-color="#A8802E"/>
<stop offset="0.481965" stop-color="#F9F1CD"/>
<stop offset="1" stop-color="#A8802E"/>
</linearGradient>
<linearGradient id="paint3_linear_229_20176" x1="9" y1="3" x2="9" y2="15" gradientUnits="userSpaceOnUse">
<stop offset="0.171669" stop-color="#A8802E"/>
<stop offset="0.481965" stop-color="#F9F1CD"/>
<stop offset="1" stop-color="#A8802E"/>
</linearGradient>
<linearGradient id="paint4_linear_229_20176" x1="9" y1="3" x2="9" y2="15" gradientUnits="userSpaceOnUse">
<stop offset="0.171669" stop-color="#A8802E"/>
<stop offset="0.481965" stop-color="#F9F1CD"/>
<stop offset="1" stop-color="#A8802E"/>
</linearGradient>
<linearGradient id="paint5_linear_229_20176" x1="9" y1="3" x2="9" y2="15" gradientUnits="userSpaceOnUse">
<stop offset="0.171669" stop-color="#A8802E"/>
<stop offset="0.481965" stop-color="#F9F1CD"/>
<stop offset="1" stop-color="#A8802E"/>
</linearGradient>
<linearGradient id="paint6_linear_229_20176" x1="9" y1="3" x2="9" y2="15" gradientUnits="userSpaceOnUse">
<stop offset="0.171669" stop-color="#A8802E"/>
<stop offset="0.481965" stop-color="#F9F1CD"/>
<stop offset="1" stop-color="#A8802E"/>
</linearGradient>
<linearGradient id="paint7_linear_229_20176" x1="9" y1="3" x2="9" y2="15" gradientUnits="userSpaceOnUse">
<stop offset="0.171669" stop-color="#A8802E"/>
<stop offset="0.481965" stop-color="#F9F1CD"/>
<stop offset="1" stop-color="#A8802E"/>
</linearGradient>
<linearGradient id="paint8_linear_229_20176" x1="9" y1="3" x2="9" y2="15" gradientUnits="userSpaceOnUse">
<stop offset="0.171669" stop-color="#A8802E"/>
<stop offset="0.481965" stop-color="#F9F1CD"/>
<stop offset="1" stop-color="#A8802E"/>
</linearGradient>
<linearGradient id="paint9_linear_229_20176" x1="9" y1="3" x2="9" y2="15" gradientUnits="userSpaceOnUse">
<stop offset="0.171669" stop-color="#A8802E"/>
<stop offset="0.481965" stop-color="#F9F1CD"/>
<stop offset="1" stop-color="#A8802E"/>
</linearGradient>
<linearGradient id="paint10_linear_229_20176" x1="9" y1="3" x2="9" y2="15" gradientUnits="userSpaceOnUse">
<stop offset="0.171669" stop-color="#A8802E"/>
<stop offset="0.481965" stop-color="#F9F1CD"/>
<stop offset="1" stop-color="#A8802E"/>
</linearGradient>
<linearGradient id="paint11_linear_229_20176" x1="9" y1="3" x2="9" y2="15" gradientUnits="userSpaceOnUse">
<stop offset="0.171669" stop-color="#A8802E"/>
<stop offset="0.481965" stop-color="#F9F1CD"/>
<stop offset="1" stop-color="#A8802E"/>
</linearGradient>
</defs>
</svg>
