<!-- by TradingView --><svg xmlns="http://www.w3.org/2000/svg" width="18" height="18"><path fill="#2053A4" d="M0 0h18v18H0z"/><path d="M7.19 7.85c.6 1.09 1.21 2.2 1.86 3.34l.37-.66.55-1 .68-1.2.73-1.32A177.08 177.08 0 0112.8 4.5h.17l.25 2.25a773.42 773.42 0 00.5 4.21L14 13l-.3-.03h-.6l-.3.03-.27-3.13c-.1-1.01-.21-2.04-.34-3.1h-.03a341.6 341.6 0 00-1.7 3.04c-.55 1.01-1.09 2.09-1.6 3.19h-.1a89.96 89.96 0 00-1.6-3.1c-.54-1.02-1.1-2.06-1.65-3.13h-.03l-.2 1.64a62.6 62.6 0 00-.18 1.73l-.16 1.62c-.05.5-.06.92-.06 1.24A3.48 3.48 0 004 13l.34-2.08a1276.9 1276.9 0 00.63-4.37L5.2 4.5h.21c.6 1.15 1.19 2.27 1.79 3.35z" fill="#fff"/></svg>