<!-- by TradingView --><svg xmlns="http://www.w3.org/2000/svg" width="18" height="18" viewBox="0 0 18 18"><path fill="#35C6F5" d="M0 0h18v18H0z"/><path d="M8.79 3.56 4.2 6.21a.47.47 0 0 0-.21.4v5.26c0 .17.07.32.2.4l1.63 1.22.06.01c.06 0 .11-.04.11-.11V7.72c0-.15.07-.33.2-.42l1.6-.83a.1.1 0 0 1 .05-.02c.05 0 .15.02.15.12v3.47c0 .15.03.3.14.38l.62.5A.4.4 0 0 0 9 11c.09 0 .18-.02.26-.07l.6-.5c.12-.1.14-.23.14-.39v-3.5c0-.07.1-.13.16-.13a.1.1 0 0 1 .05.01l.04.03 1.47.8a1 1 0 0 1 .16.1c.11.1.12.23.12.37v5.62c0 .13.12.16.2.16.03 0 .06 0 .09-.03l1.49-1.17c.14-.08.22-.26.22-.43V6.61a.48.48 0 0 0-.22-.4L9.23 3.56a.42.42 0 0 0-.44 0Z" fill="#fff"/></svg>