<!-- by TradingView --><svg width="18" height="18" viewBox="0 0 18 18" xmlns="http://www.w3.org/2000/svg"><path fill="#F0F3FA" d="M0 0h18v18H0z"/><path d="M7 10.4V8.13c.17-.35.63-.53 1.17-.53.53 0 .77.24.83.36.13-.29.67-.36.83-.36.84 0 1.17.47 1.17.7v2.12h-.67V8.65c0-.35-.16-.53-.5-.53-.26 0-.44.24-.5.35v1.94h-.66V8.65c0-.35-.17-.53-.5-.53-.27 0-.4.24-.5.35v1.94H7Z" fill="#14324C"/><ellipse cx="4.5" cy="7.91" rx=".5" ry=".47" fill="#0982AD"/><ellipse cx="6.5" cy="12.91" rx=".5" ry=".47" fill="#0982AD"/><ellipse cx="12.5" cy="12.59" rx=".5" ry=".47" fill="#0982AD"/><ellipse cx="13.5" cy="7.59" rx=".5" ry=".47" fill="#0982AD"/><ellipse cx="8.5" cy="4.47" rx=".5" ry=".47" fill="#0982AD"/><ellipse cx="7.67" cy="5.25" rx=".33" ry=".31" fill="#0982AD"/><ellipse cx="8.67" cy="5.87" rx=".33" ry=".31" fill="#0982AD"/><ellipse cx="6.67" cy="6.5" rx=".33" ry=".31" fill="#014D92"/><ellipse cx="5.33" cy="6.81" rx=".33" ry=".31" fill="#014D92"/><ellipse cx="6" cy="10.25" rx=".33" ry=".31" fill="#014D92"/><ellipse cx="6" cy="11.19" rx=".33" ry=".31" fill="#014D92"/><ellipse cx="9" cy="12.44" rx=".33" ry=".31" fill="#014D92"/><ellipse cx="10.33" cy="12.75" rx=".33" ry=".31" fill="#014D92"/><ellipse cx="12.33" cy="9.94" rx=".33" ry=".31" fill="#014D92"/><ellipse cx="13" cy="9" rx=".33" ry=".31" fill="#014D92"/><ellipse cx="11" cy="6.5" rx=".33" ry=".31" fill="#014D92"/><ellipse cx="10" cy="5.25" rx=".33" ry=".31" fill="#014D92"/><ellipse cx="12.5" cy="6.66" rx=".5" ry=".47" fill="#D21D54"/><ellipse cx="6" cy="8.06" rx=".33" ry=".31" fill="#0982AD"/><ellipse cx="5" cy="9.31" rx=".33" ry=".31" fill="#0982AD"/><ellipse cx="7" cy="11.5" rx=".33" ry=".31" fill="#0982AD"/><ellipse cx="7.67" cy="12.44" rx=".33" ry=".31" fill="#0982AD"/><ellipse cx="11" cy="11.5" rx=".33" ry=".31" fill="#0982AD"/><ellipse cx="12.33" cy="11.19" rx=".33" ry=".31" fill="#0982AD"/><ellipse cx="12.33" cy="8.06" rx=".33" ry=".31" fill="#0982AD"/><ellipse cx="5.83" cy="5.41" rx=".5" ry=".47" fill="#004D8F"/><ellipse cx="4.5" cy="10.72" rx=".5" ry=".47" fill="#004D8F"/><ellipse cx="9.5" cy="13.53" rx=".5" ry=".47" fill="#004D8F"/><ellipse cx="13.5" cy="10.41" rx=".5" ry=".47" fill="#004D8F"/><ellipse cx="11.5" cy="5.09" rx=".5" ry=".47" fill="#004D8F"/></svg>