<!-- by TradingView --><svg width="18" height="18" viewBox="0 0 18 18" xmlns="http://www.w3.org/2000/svg"><path fill="#F0F3FA" d="M0 0h18v18H0z"/><path d="M8.62 10.7h1.35l.58 1.21-.58 1.24H8.62l-.67-1.24.67-1.22Zm.2.3-.46.91.46.94h.95l.5-1.01-.46-.84h-1Z" fill="#DF5E67"/><path d="M10.24 5.15h1.35l.67 1.22-.67 1.25h-1.35l-.66-1.25.66-1.22Zm.2.31-.45.92.45.93h.95l.46-.93-.46-.92h-.95Z" fill="#F09BA8"/><path d="M12.01 4.23h.52v.3l1-.02.47.79-.66 1.08h-1.33l-.66-1.08.66-1.07Zm.2.3-.45.77.45.78h.94l.45-.78-.4-.6.33-.19-1 .03h-.32Z" fill="#F09BA8"/><path d="M6.77 7.62h1.35l.67 1.24-.67 1.22H6.77l-.66-1.22.66-1.24Zm.2.3-.45.94.45.9h.95l.46-.9-.46-.94h-.95Z" fill="#DF5E67"/><path d="M8.54 8.54H9.9l.64 1.21-.7 1.25H8.53L7.9 9.83l.64-1.3Zm.26.3-.52.91.46.94h.88l.53-.94-.46-.9H8.8Z" fill="#DF5E67"/><path d="M10.27 7.3h1.35l.67 1.27-.67 1.2h-1.35l-.66-1.2.66-1.26Zm.2.32-.46.95.46.9h.95l.46-.9-.46-.95h-.95Z" fill="#DF5E67"/><path d="M10.24 3h1.35l.67 1.22-.67 1.24h-1.35l-.66-1.24.66-1.22Zm.2.3-.45.92.45.93h.95l.46-.93-.46-.91h-.95Z" fill="#F09BA8"/><path d="m6.51 5.87.3.2 1.33.81.33.15-.43.9H6.69l-.67-1.15.5-.91Zm.3.2-.38.71.46.84h.95l.3-.74-1.33-.81Z" fill="#DF5E67"/><path d="M5.02 10.7h1.35l.67 1.21-.67 1.24H5.02l-.66-1.24.66-1.22Zm.2.3-.46.91.46.94h.95l.46-.94-.46-.91h-.95ZM10.26 9.46h1.34l.66 1.24-.66 1.22h-1.34l-.65-1.22.65-1.24Zm.26.3-.51.94.45.92h.94l.45-.92-.47-.93h-.86Z" fill="#C01F26"/><path d="M10.29 11.62h1.3l.67 1.21-.67 1.25h-1.35l-.6-1.16.65-1.3Zm.25.3-.49 1 .4.85h.94l.46-.93-.5-.92h-.8Z" fill="#C01F26"/><path d="M8.53 12.85h1.32l.65 1.06L9.85 15h-.5l-1.08-.44-.4-.65.66-1.06Zm.2.3-.46.76.3.45-.3.2 1.08.44v-.34h.3l.45-.75-.45-.76h-.93ZM4.59 9.77 4 11.92v.31h.59l.6-1.24-.6-1.22Zm-.18.3.4.92-.4.93H4l.59-2.15H4v.3h.4Z" fill="#C01F26"/></svg>