<!-- by TradingView --><svg width="18" height="18" viewBox="0 0 18 18" xmlns="http://www.w3.org/2000/svg"><path fill="#F0F3FA" d="M0 0h18v18H0z"/><path fill-rule="evenodd" d="M6.74 6.47c.24.18.38.44.41.77H8.4A2.15 2.15 0 0 0 7.16 5.3C6.77 5.09 6.33 5 5.82 5c-.5 0-.95.1-1.35.29a2.13 2.13 0 0 0-1.28 2c0 .56.17 1 .51 1.34.34.34.8.59 1.4.75l.81.23c.26.07.48.15.68.24.19.1.34.2.45.34.1.13.16.3.16.5 0 .22-.06.42-.18.58-.12.17-.3.3-.5.39-.22.1-.47.14-.75.14-.27 0-.51-.05-.73-.14-.22-.09-.4-.22-.53-.4-.14-.18-.21-.4-.23-.67H3c.02.51.14.95.37 1.3.23.37.55.64.96.83.41.19.9.28 1.45.28.58 0 1.06-.1 1.47-.29.4-.2.71-.46.93-.8.21-.35.32-.76.32-1.21a1.93 1.93 0 0 0-.65-1.52c-.2-.18-.42-.33-.68-.44-.25-.12-.5-.21-.78-.28l-.67-.18a4 4 0 0 1-.44-.14 1.93 1.93 0 0 1-.4-.2.84.84 0 0 1-.38-.73c0-.2.06-.37.16-.52.1-.16.25-.28.45-.36.19-.1.42-.14.7-.14.38 0 .69.1.93.28ZM9 5v8h1.42v-3h1.41l1.58 3H15l-1.7-3.17.15-.06c.42-.21.73-.5.94-.88.22-.37.32-.82.32-1.33 0-.51-.1-.96-.32-1.34a2.16 2.16 0 0 0-.93-.9c-.4-.21-.91-.32-1.52-.32H9Zm1.42 3.87h1.31c.36 0 .65-.05.87-.15.22-.1.4-.25.5-.44.1-.2.16-.44.16-.72 0-.29-.05-.53-.16-.73-.11-.2-.28-.35-.5-.46-.23-.1-.52-.16-.87-.16h-1.3v2.66Z"/></svg>