<!-- by TradingView --><svg width="18" height="18" viewBox="0 0 18 18" xmlns="http://www.w3.org/2000/svg"><path fill="#F0F3FA" d="M0 0h18v18H0z"/><path d="M4.44 5.72c.07-.03.07-.12 0-.15l-1.27-.56c-.08-.03-.17.01-.17.08V6.2c0 .06.1.1.17.07l1.27-.56Zm0 3.35c.07-.03.07-.11 0-.14l-1.27-.56c-.08-.04-.17 0-.17.07v1.12c0 .07.1.1.17.07l1.27-.56Zm2-.98c.07.03.07.11 0 .15l-1.27.56c-.08.03-.17-.01-.17-.08V7.6c0-.06.1-.1.17-.07l1.27.56Zm2 .95c.07-.04.07-.12 0-.15l-1.27-.56c-.08-.03-.17 0-.17.07v1.12c0 .07.1.11.17.08l1.27-.56Zm4.19-.11c.07.03.07.11 0 .14l-1.27.56c-.07.04-.17 0-.17-.07V8.44c0-.07.1-.1.17-.07l1.27.56Zm-2.07-.7c.07-.03.07-.11 0-.14l-1.27-.56c-.08-.04-.17 0-.17.07v1.12c0 .07.1.1.17.08l1.27-.56Zm0 1.53c.07.04.07.12 0 .15l-1.27.56c-.08.04-.17 0-.17-.07V9.28c0-.07.1-.1.17-.08l1.27.56ZM4.44 7.4c.07-.04.07-.12 0-.15l-1.27-.56c-.08-.03-.17 0-.17.07v1.12c0 .07.1.11.17.08l1.27-.56Zm2-.99c.07.03.07.12 0 .15l-1.27.56c-.08.03-.17 0-.17-.07V5.92c0-.06.1-.1.17-.07l1.27.56Zm2 .95c.07-.03.07-.12 0-.15l-1.27-.56c-.08-.03-.17 0-.17.08v1.12c0 .06.1.1.17.07l1.27-.56Zm-4 3.24c.07.04.07.12 0 .15l-1.27.56c-.08.03-.17 0-.17-.07v-1.12c0-.07.1-.11.17-.08l1.27.56Zm2-.69c.07-.03.07-.11 0-.15L5.17 9.2c-.08-.03-.17.01-.17.08v1.12c0 .06.1.1.17.07l1.27-.56Zm2 .66c.07.03.07.11 0 .14l-1.27.56c-.08.04-.17 0-.17-.07v-1.12c0-.07.1-.1.17-.07l1.27.56Zm-4 1.86c.07-.04.07-.12 0-.15l-1.27-.56c-.08-.03-.17 0-.17.07v1.12c0 .07.1.11.17.08l1.27-.56Zm2-.99c.07.03.07.12 0 .15l-1.27.56c-.08.03-.17 0-.17-.07v-1.13c0-.06.1-.1.17-.07l1.27.56Z" fill="url(#amerxlcds)"/><path d="M13.56 5.72c-.07-.03-.07-.11 0-.15l1.27-.56c.08-.03.17.01.17.08V6.2c0 .06-.1.1-.17.07l-1.27-.56Zm0 3.35c-.07-.03-.07-.11 0-.14l1.27-.56c.08-.04.17 0 .17.07v1.12c0 .07-.1.1-.17.07l-1.27-.56Zm-2-.98c-.07.03-.07.11 0 .15l1.27.56c.08.03.17-.01.17-.08V7.6c0-.06-.1-.1-.17-.07l-1.27.56Zm-2 .95c-.07-.04-.07-.12 0-.15l1.27-.56c.08-.03.17 0 .17.07v1.12c0 .07-.1.11-.17.08l-1.27-.56Zm-4.19-.11c-.07.03-.07.11 0 .14l1.27.56c.07.04.17 0 .17-.07V8.44c0-.07-.1-.1-.17-.07l-1.27.56Zm2.07-.7c-.07-.03-.07-.11 0-.14l1.27-.56c.08-.04.17 0 .17.07v1.12c0 .07-.1.1-.17.08l-1.27-.56Zm0 1.53c-.07.04-.07.12 0 .15l1.27.56c.08.04.17 0 .17-.07V9.28c0-.07-.1-.1-.17-.08l-1.27.56Zm6.12-2.36c-.07-.04-.07-.12 0-.15l1.27-.56c.08-.03.17 0 .17.07v1.12c0 .07-.1.11-.17.08l-1.27-.56Zm-2-.99c-.07.03-.07.12 0 .15l1.27.56c.08.03.17 0 .17-.07V5.92c0-.06-.1-.1-.17-.07l-1.27.56Zm-2 .95c-.07-.03-.07-.12 0-.15l1.27-.56c.08-.03.17 0 .17.08v1.12c0 .06-.1.1-.17.07l-1.27-.56Zm4 3.24c-.07.04-.07.12 0 .15l1.27.56c.08.03.17 0 .17-.07v-1.12c0-.07-.1-.11-.17-.08l-1.27.56Zm-2-.69c-.07-.03-.07-.11 0-.15l1.27-.56c.08-.03.17.01.17.08v1.12c0 .06-.1.1-.17.07l-1.27-.56Zm-2 .66c-.07.03-.07.11 0 .14l1.27.56c.08.04.17 0 .17-.07v-1.12c0-.07-.1-.1-.17-.07l-1.27.56Zm4 1.86c-.07-.04-.07-.12 0-.15l1.27-.56c.08-.03.17 0 .17.07v1.12c0 .07-.1.11-.17.08l-1.27-.56Zm-2-.99c-.07.03-.07.12 0 .15l1.27.56c.08.03.17 0 .17-.07v-1.13c0-.06-.1-.1-.17-.07l-1.27.56Z" fill="url(#bmerxlcds)"/><defs><linearGradient id="amerxlcds" x1="12.69" y1="9" x2="3" y2="9" gradientUnits="userSpaceOnUse"><stop stop-color="#EDD8E0"/><stop offset="1" stop-color="#533593"/></linearGradient><linearGradient id="bmerxlcds" x1="11.42" y1="9.46" x2="14.64" y2="4.75" gradientUnits="userSpaceOnUse"><stop stop-color="#27BFCF"/><stop offset="1" stop-color="#C6E9F0"/></linearGradient></defs></svg>