<!-- by TradingView --><svg width="18" height="18" viewBox="0 0 18 18" xmlns="http://www.w3.org/2000/svg"><path fill="#F0F3FA" d="M0 0h18v18H0z"/><path d="M9.09 8.16c.17-.05.35-.09.55-.1l-.04-.93c-.41.03-.8.1-1.14.23l.63.8Zm-.9-.67c-.13.06-.24.12-.35.2-.41.29-.64.65-.72 1.02l1.14.07c.1-.23.33-.43.65-.56l-.73-.73Zm-.2-.2c-.61.34-1.03.83-1.15 1.4l-1.13-.07c.1-.7.48-1.34 1.1-1.83.13-.1.27-.2.41-.28l.76.78Zm.3-.15c.38-.17.82-.28 1.3-.32l-.05-.94c-.7.02-1.35.17-1.91.42l.66.84Zm-.83-1.06c.6-.3 1.3-.48 2.06-.51L9.45 4c-1.1.04-2.11.34-2.96.85l.97 1.23Zm-1.51-.86A4.83 4.83 0 0 0 4 8.5l1.43.09c.13-.92.73-1.73 1.6-2.28l-1.1-1.1Zm-.53 4.05L4 9.37a4.8 4.8 0 0 0 1.87 3.35l1.08-1.1a3.27 3.27 0 0 1-1.53-2.35Zm2.02 2.64-.94 1.24c.85.5 1.86.82 2.95.85l.07-1.57a5.18 5.18 0 0 1-2.08-.52Zm2.1.21a5.14 5.14 0 0 1-1.93-.43l.64-.84c.4.17.84.29 1.32.32l-.04.95Zm.38.32L10 14c1.04-.06 2-.36 2.82-.84l-.86-1.18c-.6.27-1.3.43-2.03.46Zm1.86-.69c-.55.23-1.19.36-1.87.37l-.04-.93a4 4 0 0 0 1.35-.21l.56.77Zm.31-5.66L13 4.95a6.13 6.13 0 0 0-2.9-.94l-.11 1.56c.77.03 1.49.22 2.1.52Zm-2.13-.21c.72.02 1.39.17 1.96.43l-.6.75c-.42-.16-.9-.25-1.41-.25H9.9l.06-.93Zm-.08 1.25-.07.93c.23 0 .45.04.64.1l.69-.87a4.32 4.32 0 0 0-1.26-.16Zm1.16 3.6-.64-.88a2.4 2.4 0 0 1-.58.09l.04.93h.05c.4 0 .79-.04 1.13-.14Zm-1.46.13.04-.93a2.32 2.32 0 0 1-.59-.1l-.6.8c.34.12.73.2 1.15.23Zm-1.49-.4.72-.72c-.32-.16-.54-.39-.58-.65l-1.13.07c.05.42.28.83.74 1.15l.25.16ZM6.82 9.19l-1.12.07c.07.75.45 1.44 1.12 1.96.1.08.2.16.32.23l.76-.78c-.6-.36-1.01-.89-1.08-1.48Z" fill="#303030"/></svg>