<!-- by TradingView --><svg xmlns="http://www.w3.org/2000/svg" width="18" height="18" viewBox="0 0 18 18"><path fill="#F0F3FA" d="M0 0h18v18H0z"/><path d="M13.99 7.5H11v.33h1.16v2.67h.73V7.83H14c.02 0 0-.22 0-.33z"/><path fill-rule="evenodd" d="M9 14.66a5.65 5.65 0 1 0 0-11.3 5.65 5.65 0 0 0 0 11.3zm0 .35a6 6 0 1 0 0-12 6 6 0 0 0 0 12z"/><circle cx="6.5" cy="6" r="1.5" fill="url(#aakzi2kvo)"/><circle cx="5" cy="9.1" r="1.5" fill="url(#bakzi2kvo)"/><circle cx="6.5" cy="12" r="1.5" fill="url(#cakzi2kvo)"/><path d="M7.24 10.29v.21h.62l.36-1.57.71 1.57h.12l.75-1.57.39 1.57h.57l-.65-3h-.23l-.83 2.14-.78-2.14H8l-.65 2.79h-.11zM11.3 8.9c.1 0 .17-.09.17-.2 0-.11-.08-.2-.18-.2-.1 0-.17.09-.17.2 0 .11.08.2.17.2zm-.36.4v-.1c.08.01.28 0 .4-.14h.13v1.44h-.35V9.3h-.18z"/><defs><linearGradient id="aakzi2kvo" x1="7.51" y1="7" x2="6.5" y2="5.92" gradientUnits="userSpaceOnUse"><stop offset=".15" stop-color="#901000"/><stop offset="1" stop-color="#C01802"/></linearGradient><linearGradient id="bakzi2kvo" x1="6.01" y1="10.1" x2="5" y2="9.02" gradientUnits="userSpaceOnUse"><stop offset=".15" stop-color="#0B6E16"/><stop offset="1" stop-color="#26B72D"/></linearGradient><linearGradient id="cakzi2kvo" x1="7.51" y1="13" x2="6.5" y2="11.92" gradientUnits="userSpaceOnUse"><stop offset=".15" stop-color="#202344"/><stop offset="1" stop-color="#142C89"/></linearGradient></defs></svg>