<!-- by TradingView --><svg width="18" height="18" xmlns="http://www.w3.org/2000/svg"><path fill="#636569" d="M0 0h18v18H0z"/><path d="M9.674 6.05l-.671.74-2.206-2.742A.132.132 0 006.698 4h-.93a.132.132 0 00-.067.018.122.122 0 00-.046.048.114.114 0 00.012.124l3.337 4.201 1.8-2.197a.114.114 0 00.012-.125.133.133 0 00-.113-.068h-.927c-.02 0-.04.006-.057.014a.125.125 0 00-.045.035zM13.264 11.818L10.806 9l3.169-3.817a.104.104 0 00.012-.118.138.138 0 00-.112-.065h-.918a.139.139 0 00-.055.014.124.124 0 00-.044.033L9.557 9l2.573 2.955a.123.123 0 00.044.033.136.136 0 00.056.012h.933a.135.135 0 00.066-.017.12.12 0 00.047-.046.103.103 0 00-.012-.119zM5.089 6.19L7.2 9l-3.177 3.82a.111.111 0 00-.011.121.12.12 0 00.045.047c.019.012.041.01.064.011h.918c.02 0 .039.003.056-.005a.126.126 0 00.044-.034L8.45 9 6.222 6.05a.125.125 0 00-.044-.035A.136.136 0 006.122 6h-.933a.134.134 0 00-.112.067.111.111 0 00.012.124zM8.359 11.957l.646-.75 2.225 2.75a.124.124 0 00.044.035.132.132 0 00.056.012h.926a.132.132 0 00.066-.017.122.122 0 00.047-.048.112.112 0 00-.012-.123l-3.354-4.2-1.771 2.198a.114.114 0 00-.012.123c.01.02.027.037.047.048.02.011.042.018.066.018h.926c.02 0 .038-.004.056-.012a.124.124 0 00.044-.034z" fill="#fff"/></svg>