<!-- by TradingView --><svg xmlns="http://www.w3.org/2000/svg" width="18" height="18" viewBox="0 0 18 18"><path fill="#F0F3FA" d="M0 0h18v18H0z"/><path fill-rule="evenodd" d="M3.34 8c-.45.45-.45 1.58 0 2.03.77.78 1.02 1.08 1.24 2.12.02.06.02.13.03.2.05.57.49 1.17 1.04 1.24h.05l.15.03c.92.2 1.36.45 2.12 1l.09.07.03.03c.44.37 1.36.37 1.83.02l.04-.04.14-.1.22-.14a5.14 5.14 0 0 1 1.97-.87h.05a1.58 1.58 0 0 0 1.24-1.23v-.05l.03-.17A5 5 0 0 1 14.7 10l.03-.04c.37-.46.37-1.45 0-1.91a5.16 5.16 0 0 1-1.1-2.18c-.02-.05-.03-.11-.03-.17l-.01-.06a1.57 1.57 0 0 0-1.28-1.21l-.18-.03A4.98 4.98 0 0 1 10 3.34c-.45-.45-1.52-.45-1.97 0l-.22.16c-.63.48-.93.7-1.76.91l-.15.03h-.08c-.58.1-1.3.84-1.38 1.42v.07l-.02.14C4.19 7.1 4.1 7.23 3.34 8Zm6.36.75c0 .41-.6.75-1.35.75C7.6 9.5 7 9.16 7 8.75S7.6 8 8.35 8c.75 0 1.35.34 1.35.75Zm.3 2.01c.55 0 1-.27 1-.61 0-.34-.45-.62-1-.62s-1 .28-1 .62c0 .34.45.61 1 .61Zm1.9-.03c.2.2.1.62-.23.94-.32.33-.74.43-.94.23-.2-.2-.1-.62.22-.95.33-.32.75-.42.95-.22ZM11.4 9c-.4 0-.7-.2-.92-.78-.28-.78-.53-1.2-1.86-1.2h-.19c-.55.01-1.43.03-1.43-.6 0-.73 2.02-.82 2.37-.82.47 0 1.64.03 2.33.38.2.1.3.34.3.51 0 .26-.25.51-.6.51-.19 0-.28.1-.08.37l.12.16c.23.28.56.7.56 1.09 0 .23-.32.38-.6.38Z" fill="url(#aw5t1u5qe)"/><defs><linearGradient id="aw5t1u5qe" x1="2.02" y1="9.49" x2="15.93" y2="9.49" gradientUnits="userSpaceOnUse"><stop offset=".28" stop-color="#04BD84"/><stop offset=".68" stop-color="#04B6B9"/></linearGradient></defs></svg>