<!-- by TradingView --><svg width="18" height="18" xmlns="http://www.w3.org/2000/svg"><path fill="#0C437D" d="M0 0h18v18H0z"/><path d="M6.937 5.028c.127-.023.256-.032.385-.026.143.009.283.043.414.101.271.128.495.344.636.617.12.24.202.499.242.766.042.244.07.492.08.74.055.974-.052 1.902-.103 2.803-.012.224-.02.447-.016.662 0 .204.022.407.062.606l.048.258a.446.446 0 00.098.22c.03.031.067.057.107.074.022.011.044.02.067.027.032.006.024.01.043.009a.288.288 0 00.12-.054.979.979 0 00.123-.101 3.574 3.574 0 00.328-.384c.033-.046.061-.101.097-.143.13-.188.255-.379.381-.57.251-.383.5-.767.764-1.144.262-.377.527-.747.825-1.1a4.84 4.84 0 011.006-.933c.097-.062.199-.117.304-.164.106-.046.216-.08.328-.119.116-.037.238-.057.36-.058a.963.963 0 01.385.073c.25.115.462.306.605.547.14.227.241.476.3.738.103.5.099 1.018-.014 1.516a4.015 4.015 0 01-.569 1.378 3.04 3.04 0 01-.488.572 1.59 1.59 0 01-.645.37 1.088 1.088 0 01-.705-.055 1.186 1.186 0 01-.533-.44 2.935 2.935 0 01-.3-.632c-.077-.22-.142-.442-.206-.663-.126-.444-.247-.892-.458-1.294a1.905 1.905 0 00-.39-.535 1.28 1.28 0 00-.57-.303A1.67 1.67 0 009.4 8.37a2.09 2.09 0 00-.62.214 4.56 4.56 0 00-1.06.82c-.325.32-.618.665-.91 1.014-.294.349-.587.707-.88 1.047-.298.35-.625.674-.976.968a3.154 3.154 0 01-.575.375c-.208.105-.434.17-.665.188a.605.605 0 01-.353-.06.584.584 0 01-.242-.278 1.745 1.745 0 01-.118-.701c.003-.235.022-.469.059-.7.033-.23.079-.459.133-.685.108-.452.242-.897.402-1.332.157-.436.339-.862.545-1.276.203-.416.43-.817.683-1.202.128-.192.263-.38.408-.56.144-.181.3-.352.467-.512.17-.16.355-.304.553-.426.207-.135.442-.216.686-.235zm0 .27a1.238 1.238 0 00-.6.125 2.181 2.181 0 00-.538.376 5.502 5.502 0 00-.863 1.038 12.74 12.74 0 00-1.222 2.449c-.165.428-.305.867-.42 1.313a5.786 5.786 0 00-.195 1.357c-.009.224.029.448.11.657a.48.48 0 00.195.231.51.51 0 00.3.048c.435-.03.835-.264 1.182-.542.345-.29.667-.609.96-.955.3-.341.586-.695.88-1.045.292-.35.593-.696.917-1.019.32-.332.685-.614 1.084-.837.204-.108.422-.183.648-.223a1.77 1.77 0 01.684.02c.227.054.437.165.612.325.17.16.311.35.417.562.198.42.354.86.465 1.314.062.222.125.443.195.66.07.216.164.423.282.616.06.095.13.181.21.258a.66.66 0 00.28.162.833.833 0 00.61-.075 1.22 1.22 0 00.443-.44 2.66 2.66 0 00.256-.58c.122-.41.207-.831.254-1.257a9.9 9.9 0 00.07-1.253c.002-.2-.017-.4-.054-.597a.934.934 0 00-.246-.498.754.754 0 00-.554-.186.816.816 0 00-.314.08 2.17 2.17 0 00-.293.157c-.368.254-.7.56-.986.91a13.2 13.2 0 00-.822 1.09c-.258.378-.505.764-.753 1.149a18.79 18.79 0 01-.781 1.141 1.706 1.706 0 01-.12.138.577.577 0 01-.163.128.284.284 0 01-.065.021l-.057.008a.943.943 0 01-.312-.015.853.853 0 01-.403-.23 1.074 1.074 0 01-.238-.367 3.574 3.574 0 01-.17-.76 9.388 9.388 0 01-.059-.726c-.044-.952.009-1.875-.018-2.753a7.716 7.716 0 00-.048-.637 5.268 5.268 0 00-.114-.569 1.55 1.55 0 00-.176-.477.72.72 0 00-.47-.292z" fill="#fff"/></svg>