<!-- by TradingView --><svg width="18" height="18" viewBox="0 0 18 18" xmlns="http://www.w3.org/2000/svg"><path fill="#F0F3FA" d="M0 0h18v18H0z"/><path d="M10.43 5.8c-.16-.06-.44-.33-.48-.48-.04-.16.34-.3.48-.3.14.03.47.12.5.29.04.18-.25.17-.33.28-.05.1-.02.2-.17.2ZM6.6 9.63c-.01.12.56.34.66.35.06-.01.17-.06.17-.14 0-.16-.8-.46-.83-.21Zm4.8-2.93c.04.09.1.17.2.11.07-.03.15-.1.14-.18 0-.08-.16-.4-.2-.47-.05-.08-.15-.18-.26-.18-.08.01-.11.1-.1.18.05.18.15.35.22.54ZM15 9c0 3.23-2.7 5.97-5.95 6A6.1 6.1 0 0 1 3 8.87 6.09 6.09 0 0 1 9 3c3.26 0 6 2.73 6 6Zm-.34 1.08.06-.42a.2.2 0 0 1-.07-.05c-.16-.19-.2-.51-.27-.74-.02-.1-.1-.2-.2-.17-.12.03-.16.17-.16.27.08.2.14.3.18.54.07.23.3.4.46.57Zm-8.3 4.05a3.2 3.2 0 0 0 .3-1.58.52.52 0 0 0-.27-.26c-.33-.2-.56-.77-.54-1.16.03-.13.45-.46.26-.6-.77-.52-1.67-.83-2.45-1.37-.2-.18-.28-.4-.4-.63l-.02.5a5.82 5.82 0 0 0 3.13 5.1Zm2.64.64c1.38 0 2.72-.5 3.76-1.4-.11-.23-.13-.57-.27-.76-.24-.31.13-.6.06-.93a.45.45 0 0 0-.16-.18c-.84-.6-2.07-1-1.85-2.27.03-.36.71-.74.92-.96.09-.1.2-.17.32-.22.27-.1.7-.13.75.24.04.49.6 0 .83.2.14.13.22.12.4.1.1-.15.33-.2.36-.39a.21.21 0 0 0-.12-.03c-.11.01-.24.22-.34.16-.3-.29-.3-.26-.78-.83-.14-.17-.05.11-.03.17.07.18.06.52-.23.43a.15.15 0 0 1-.1-.15c0-.14.13-.35-.1-.38a.87.87 0 0 0-.7.25c-.13.12-.27.34-.45.35-.17-.03-.25-.27-.25-.42 0-.17.24-.1.34-.12.33-.2.33-1.34.9-1.26.2.03.36.11.57.06.26-.06.6-.36.8-.54-.05-.14-.24-.1-.35-.08a.2.2 0 0 1-.2-.09c-.05-.1.04-.2.15-.26a.37.37 0 0 0 .18-.15l-.13-.15c-.16.11-.28.25-.45.34-.23.18.32.44.06.65-.16.13-.83.05-.9-.17-.1-.28.12-.65.3-.82.15-.2.32-.34.49-.5a5.73 5.73 0 0 0-2.4-1.27c.01.2.06.43.03.63-.14.28-.37.74-.6.95-.23.14-.5.1-.74.24-.26.12-.22.68-.52.68-.5-.1-.79-.86-.83-1.3 0-.37-.02-.91-.58-.74-.17 0-.33 0-.46-.13a6.3 6.3 0 0 0-.56.28l1.09.75c.11.06.2.17.2.3 0 .23-.24.4-.44.43-.94.16-.44-.61-.83-.74-.25.15-.95.76-.95 1.16 0 .02.88.74 1 .55.1-.25-.18-.5-.07-.72.17-.34 1.08.07 1.23.3.16.2.4.43.48.68.05.38-1 .87-1.18 1.12-.37.46-.28.75-.52 1.16-.35.15-1.27-.71-1.27.14 0 .4.45.18.66.27.29.13.13.73.52.73.43-.02 1.03-.16 1.45-.02.34.18.45.68.78.9.17.1 1.18.2 1 .58-.08.13-.19.16-.22.33-.13.72-.29.74-.78 1.36l-1.03 1.18c.56.2 1.16.3 1.76.3Z" fill="url(#at4sjrvdn)"/><defs><linearGradient id="at4sjrvdn" x1="4.76" y1="4.76" x2="13.23" y2="13.24" gradientUnits="userSpaceOnUse"><stop stop-color="#AFB3B3"/><stop offset=".25" stop-color="#D0D2D2"/><stop offset=".5" stop-color="#C1C2C2"/><stop offset=".75" stop-color="#D6D7D7"/><stop offset="1" stop-color="#ADB0B0"/></linearGradient></defs></svg>