<!-- by TradingView --><svg width="18" height="18" viewBox="0 0 18 18" xmlns="http://www.w3.org/2000/svg"><path fill="#202D61" d="M0 0h18v18H0z"/><path d="M13 9V5.17c0-.13-.03-.16-.16-.16H8.69c-.1 0-.13.03-.13.14v3.42c0 .11.03.17.14.15h.5c.2 0 .24 0 .24-.2v-2.3c0-.15 0-.2.14-.2h.52c.1 0 .13.05.13.15v6.65c0 .19 0 .19.2.19H11c.18 0 .22 0 .22-.17V6.16c0-.11 0-.16.1-.16h.45c.2 0 .23.01.23.2v6.64c0 .1.1.16.2.16h.64c.13 0 .16-.06.16-.19v-3.8Z" fill="#fff"/><path d="M5 9v3.84c0 .13.03.16.16.16h4.15c.1 0 .13-.03.13-.14V9.44c0-.11-.03-.17-.14-.15h-.5c-.2 0-.24 0-.24.2v2.32c0 .14 0 .19-.14.19h-.48c-.1 0-.13-.05-.13-.14V5.19c0-.19 0-.19-.2-.19H7c-.18 0-.22 0-.22.17v6.69c0 .1 0 .14-.1.14h-.46c-.2 0-.22 0-.22-.19V5.16C6 5.06 6 5 5.9 5h-.74c-.13 0-.16.06-.16.19v3.8Z" fill="silver"/></svg>