<!-- by TradingView --><svg width="18" height="18" viewBox="0 0 18 18" fill="none" xmlns="http://www.w3.org/2000/svg"><path fill="#F0F3FA" d="M0 0h18v18H0z"/><path d="m12.5 11.85-.09-.32c.04-.22.1-.45.2-.58l.05-.05c.14-.17.32-.36.53-.42h.02c.23-.07.55-.15.71-.1.17.05.31.2.32.3 0 .04.04.1.08.17.07.13.15.27.04.25-.07 0-.16-.05-.26-.1-.17-.08-.36-.16-.46-.11l-.1.04c-.14.06-.3.13-.36.27l-.17.35-.03.03c-.06.05-.18.15-.26.15-.06 0-.1.03-.14.07a.38.38 0 0 1-.07.05Z" fill="url(#afvjynwtz)"/><path d="m14.48 10.39.05.16c.06.05.14.15.22.25l-.02.01c-.03.02-.04.02-.09-.03a2.95 2.95 0 0 1-.6-.8l-.1-.47c-.02-.1-.03-.6.02-.56.04.03.22.5.24.62a8.55 8.55 0 0 0 .28.82Z" fill="#0B15D6"/><path d="M13.15 9.4c-.05-.09-.28-.09-.43-.1-.05.29-.13.92-.1 1.17.05.3.14.36.17.37.03.01.1-.05.13-.13s.07-.42.07-.48c.01-.06.22-.45.26-.6.04-.14-.06-.16-.1-.24Z" fill="#7BBEEF"/><path d="m12.95 10.73-.1.09c-.01-.1-.02-.33 0-.52.03-.23.15-.35.26-.53.1-.17.08-.2.14-.3.07-.1.15-.26.3-.26.14 0 .23.13.3.19.08.05.15.32.13.37-.02.05-.38-.09-.73.08-.27.14-.31.65-.3.88Z" fill="url(#bfvjynwtz)"/><path d="M13.06 7.64c.14.96-.37 2.05-.38 2.19a.74.74 0 0 0 .28-.35c.07-.22.5-.51.62-.91s-.52-2.84-.78-3.02c-.27-.19.11 1.13.26 2.09Z" fill="#EFD249"/><path d="M12.98 9.43c-.03.05 0 .07.06.16 0 .04.2-.1.37-.26.16-.17.06.05.19-.14.14-.18.07-.14.04-.3l-.16-.67c0-.09-.28-1.35-.41-1.98l-.14-.58h-.06l.42 2.26c.04.15.02.44.01.66 0 .23-.29.79-.32.85Z" fill="url(#cfvjynwtz)"/><path d="M12.9 5.33c0-.1-.13-.29-.2-.37-.01 0-.05.03-.06.06-.02.03.15.58.17.6a.6.6 0 0 0 .08.06c.04.04.04.01.07 0 .02-.03-.04-.22-.06-.35Z" fill="#07D9DD"/><path d="m11.7 8.28.24-.9c.17.1.6.45.9.69.4.3.21.7.22.75 0 .04-.02.2-.14.45-.12.25-.13.86-.14 1.1-.01.24.12.43.04.49-.08.06-.27.41-.28.43l-.07-.13c-.05-.1-.26-1.02-.29-1.16l-.47-1.72Z" fill="url(#dfvjynwtz)"/><path d="M11.7 8.05c.01-.05.05-.13.07-.16l.02.08a66.78 66.78 0 0 1-.2.7l.06-.3.06-.32Z" fill="#097BFC"/><path d="M12.28 6.16c-.03.01-.26.84-.37 1.25.04.08.16.3.32.53.19.29.16.1.32.18.16.09.12.12.29.3.13.14.17.46.17.6.04-.07.13-.25.15-.45.02-.24-.22-1.05-.27-1.28-.05-.22-.18-.6-.33-.9-.16-.32-.25-.25-.28-.23Z" fill="url(#efvjynwtz)"/><path d="M12.67 4.94c-.1-.12-.02-.11-.01-.13.06.06.23.29.38.64.19.44.33 1.18.36 1.33.03.14.37 1.55.49 1.89.11.33.06.32-.02.36-.08.03-.16-.2-.23-.5-.08-.3-.2-.63-.24-.78l-.28-1.25-.23-1.05c-.04-.21-.1-.38-.22-.5Z" fill="url(#ffvjynwtz)"/><path d="M11.3 4.37c-.25-.04-.37.07-.4.13.07.17.23.54.34.72.14.24.29.23.61.47.33.24.28.27.37.37.08.1.05-.04.12-.16.07-.12.06-.34.11-.56.06-.22-.08-.22-.1-.4-.03-.18-.19-.3-.46-.46-.27-.17-.27-.06-.59-.11Z" fill="url(#gfvjynwtz)"/><path d="M11.23 4.52c-.14-.02-.22.04-.25.07-.03.02-.08.09-.05.13.05.05.58.23.6.04 0-.19-.14-.23-.3-.24Z" fill="#60EFF9"/><path d="M11.88 4.11c-.06 0-.12.05-.12.07 0 .09-.02.27 0 .27.04 0 .17.15.3.28.13.13.15.2.17.2a.75.75 0 0 0 .1-.14c.03-.07 0-.1-.06-.34-.05-.26-.07-.13-.15-.18-.08-.06-.18-.16-.24-.16Z" fill="#CFBCC5"/><path d="M10.47 4.6c-.04-.04.06-.13.1-.18l.53-.3c.24-.1.22-.07.35-.1.12-.03.12.02.2.1.09.1-.1-.02-.13 0-.04.03-.11.06-.03.13s.28.04.38.1c.1.06.02.13-.07.09-.09-.04-.23-.04-.4-.05-.16 0-.22.01-.47.11-.26.1-.2.14-.3.17-.1.03-.12-.02-.16-.06Z" fill="#F4D6F6"/><path d="m11.54 9.1-.2.7c-.07.02-.17.02-.21-.01a.25.25 0 0 0-.05-.03c-.05-.03-.09-.05-.04-.2a4.96 4.96 0 0 1 .63-1.24l-.04.28-.09.5Z" fill="url(#hfvjynwtz)"/><path d="M10.5 9.64c-.06-.02-.1.13-.11.21l-.12.55c-.01.11.04.09.17.13.14.03.43-.26.58-.35.15-.1.12-.29.14-.43.02-.13-.17.1-.3.22-.11.12-.13-.04-.16-.12-.04-.07-.11-.19-.2-.21Z" fill="#F5E607"/><path d="M10.5 9.01c-.12.16-.16.51-.24.7.02.02.08.04.2.05.14.02.06.1.1.27.03.17.02.12.17.1.14-.02.34-.23.47-.44.13-.21-.02-.08-.05-.08-.02-.01-.33.2-.36.2-.02-.01-.06-.03-.16-.15s.04-.35.06-.55c.02-.19-.07-.26-.2-.1Z" fill="url(#ifvjynwtz)"/><path d="M11.15 7.73c0-.04.14-.37.27-.4.13-.04.2-.07.26.03.05.1.12.44.1.51l-.1.23v.04-.04c.02-.06.02-.17-.07-.27-.13-.17-.17-.22-.24-.21a.86.86 0 0 0-.22.1Z" fill="url(#jfvjynwtz)"/><path d="M11.15 8.16c.01.1.1.14.1.15l.16-.15c.1-.1.06-.3.06-.4 0-.12-.12-.02-.16 0-.04 0-.16.29-.16.4Z" fill="#D2F512"/><path d="M10.64 9.47c-.05.08-.04.25-.03.32.04.23.13.06.39-.03.25-.1.15-.1.25-.22.1-.13.12-.25.17-.36l.17-.51c.07-.18.06-.27.07-.37 0-.09-.06-.16-.07-.22-.01-.07-.11-.04-.17 0-.06.04-.12.23-.2.28-.1.05-.26.48-.32.62-.05.14-.2.4-.26.5Z" fill="url(#kfvjynwtz)"/><path d="M11.9 6.97c-.05-.1-.19-.03-.27-.03a.6.6 0 0 0 .02.3c.05.13.05.24.14.48.1.23.04-.11.1-.24a.82.82 0 0 0 0-.51Z" fill="#0B15D6"/><path d="M11.6 6.91c.02-.22-.03-.27-.04-.3a.5.5 0 0 1 .1.09c.03.05.04.32.04.34 0 .02.1.41.1.6.02.16-.02.31-.04.37 0-.06.02-.22-.02-.4a.7.7 0 0 0-.15-.32c0-.05 0-.2.02-.38Z" fill="#06FDFF"/><path d="M11.63 6.69a3.73 3.73 0 0 0-.2-.55l.32.27c.18.14.09.33.12.46.03.14-.12.12-.14.13-.03.02-.06-.13-.1-.31Z" fill="#FBFA12"/><path d="M11.9 6.68c0-.17-.45-.55-.46-.55-.01 0-.01.04.04.06.07.04.24.22.3.47.07.25.04.31-.02.26-.06-.04-.1-.13-.1-.17 0 .04 0 .16.06.24.07.1.13.07.16.04.02-.04.03-.19.02-.35Z" fill="#F41A7D"/><path d="m11.44 5.89.08-.3c.11.05.38.17.52.3.17.16.06.07.13.23s-.03.12-.02.22c0 .09-.05.2-.07.22-.01.02-.14-.13-.2-.2l-.44-.47Z" fill="url(#lfvjynwtz)"/><path d="M11.5 5.57a6.85 6.85 0 0 0-.9-.06c-.02 0-.05.02 0 .1.07.07.56.37.8.5.06-.16.16-.5.1-.54Z" fill="#1209FB"/><path d="M10.24 5.4c-.2.06-.13.1-.13.16a6.62 6.62 0 0 1 1.48.02c.4.1.36.23.45.24.1.01-.04-.1-.15-.24-.11-.14-.42-.24-.7-.3-.26-.06-.75.07-.95.13Z" fill="url(#mfvjynwtz)"/><path d="M11.15 6.31c-.18-.03-.08.17-.08.21.04.04.15.1.3.1.2.01.1-.06.11-.18 0-.13-.16-.1-.33-.13Z" fill="#F9F1D7"/><path d="M10.95 6.21c-.12-.05-.53.09-.71.16.04.11.14.35.26.4.14.06.2.01.37-.02.17-.04.17-.15.21-.24.04-.08.14-.08.18-.14.03-.06-.15-.1-.3-.16Z" fill="#9CA5F6"/><path d="M10.2 6.4c-.13.01-.09.12-.06.25 0 .05.01.18.06.26.06.09.05-.03.18-.12s.09-.1.21-.16c.13-.05.16-.06.26-.13.1-.06.01-.05-.03-.07-.05-.02-.23.03-.33 0a.71.71 0 0 0-.3-.03Z" fill="url(#nfvjynwtz)"/><path d="M11.15 6.69c-.02.09.1.12.11.16.03-.03.09-.1.1-.17.02-.1-.08-.12-.13-.13-.04-.02-.07.05-.08.14Z" fill="url(#ofvjynwtz)"/><path d="M10.21 6.96c0 .06.01.07.03.1l.2.23c.01.03.29.04.65.1.37.04.15-.44.16-.5 0-.07-.02-.08-.05-.13-.04-.06-.05-.08.02-.15.07-.07.07-.04.04-.08-.04-.05-.06-.08-.14-.08-.08 0-.22.21-.25.27-.03.05-.04.07-.1.05-.06-.01.04-.1.05-.14 0-.03-.08-.02-.17.03-.09.05-.13.01-.16-.01a.4.4 0 0 0-.1-.07c-.06-.02-.07.1-.08.14l-.1.24Z" fill="#EF0BF6"/><path d="M10.32 7.04c-.1.04-.1-.1-.1-.18a1.04 1.04 0 0 0-.21.91c.06.25.13-.05.36-.22.19-.14.31-.62.35-.85-.1.1-.3.3-.4.34Z" fill="#1209FB"/><path d="m9.15 8.28.38-1.38a.7.7 0 0 1 .06-.05c.03-.02.06-.06.08-.1.05-.05.08-.1.09 0 0 .14.02.33-.07.7l-.03.15c-.08.33-.16.7-.25.75-.09.04-.16.03-.18.02H9.2c-.01 0-.03.01-.06-.09Z" fill="url(#pfvjynwtz)"/><path d="M9.44 7.93c-.01.2.14.47.19.54.04 0 .16-.04.27-.3.12-.27.07-.23.03-.17a2.85 2.85 0 0 1 0-.87c.08-.36-.02-.46-.11-.5-.1-.04-.14.3-.2.42-.04.12-.16.69-.18.88Z" fill="#571840"/><path d="M11.08 7.26c-.07.18-.2.64-.25.85.12-.2.37-.61.48-.73.1-.1.26-.12.33-.12V6.8c0-.05-.15-.28-.25-.27-.1.02-.23.51-.31.73Z" fill="url(#qfvjynwtz)"/><path d="M10.3 9.5a28.3 28.3 0 0 0-.3-.76c-.11.07-.35.26-.42.4-.08.19.36.98.45.91.07-.05.2-.39.26-.55Z" fill="#5E9B98"/><path d="M9.48 8.83c.03-.07.08-.07.17-.09l.06-.06a.43.43 0 0 1 .21-.08c.04 0 .03.05.03.23 0 .17-.1.17-.11.23 0 .05-.08.25-.13.37a.92.92 0 0 1-.29.39c-.12.07-.25.1-.31.06-.06-.05-.06-.1-.07-.17a.76.76 0 0 1 .1-.47c.12-.22.1-.07.2-.04.08.03.1-.3.14-.37Z" fill="url(#rfvjynwtz)"/><path d="M9.49 8.89c-.02-.03 0-.05.02-.1a.35.35 0 0 0-.14 0c-.05.02-.08.41-.08.45 0 .03.04.06.08.1.03.02.02 0 .06-.01.03-.02 0-.02 0-.06l-.01-.1c-.02-.05.01-.04.03-.05.02 0-.02-.1-.02-.12 0-.02.03-.01.08-.05.04-.03 0-.03-.02-.06Z" fill="#65E81C"/><path d="M9.47 8.88c.03-.04.02-.06.01-.08l-.13-.02s-.16.29-.17.35c0 .05.02.09.11.15l.06.04c.03.01.01 0 .04-.06s.01-.06 0-.1l-.02-.05c-.01-.03.03-.02.06-.03.03-.02 0-.03-.03-.05-.02-.01-.01-.03 0-.05 0-.02.02-.02.03-.04l.04-.06Z" fill="#DADC0B"/><path d="M9.42 8.87c0-.02-.02-.02-.05-.04-.04.07-.15.23-.15.28-.02.06 0 .09 0 .12.02.04.02.03.04.04.03 0 .04.01.07.03.02.01.01-.02.03-.08.01-.06-.03-.1-.03-.11 0-.01 0-.05.03-.05.02 0 .03-.03.02-.05 0-.02-.04-.04-.02-.05l.06-.02c.02-.01.01-.04 0-.07Z" fill="#EF0BF6"/><path d="M9.54 8.43c-.02-.07-.12-.08-.15-.06a.58.58 0 0 0-.06.21c-.02.16.1.17.06.24-.04.06.1.01.13.03.04.01.08-.07.11-.1.03-.02-.01.13-.03.2-.02.08.03.2-.06.32-.1.13.07.05.12.02.04-.03.2-.43.23-.64.04-.2 0-.2 0-.35 0-.15 0-.26-.03-.33s-.1-.04-.15-.02c-.05.03.05.13.08.19.04.06-.08.35-.1.32 0-.02-.14.04-.15-.03Z" fill="url(#sfvjynwtz)"/><path d="M9.56 8.08c-.04-.12-.08-.15-.16-.14-.02.05.04.44.07.45.03.01.01.12.01.2 0 .1.04.02.06-.01.03-.03.07-.08.1-.07.04.02.03.12 0 .23-.05.11-.06.29-.03.32a2.58 2.58 0 0 0 .2-.85c0-.18.14-.47.13-.53-.01-.06-.09.19-.22.54-.13.35-.05.12-.09.1-.04 0-.02-.13-.07-.24Z" fill="#F5E607"/><path d="M10.09 10.15a.93.93 0 0 1-.51.38c-.03.04-.02.16.19.23.26.08.66 0 1.1-.09.43-.1.26-.42.39-.72s.02-.3-.05-.2c-.07.13-.45.7-.71.7-.26 0 .01-.25 0-.37s.02-.23-.07-.35c-.08-.12-.15.15-.34.42Z" fill="url(#tfvjynwtz)"/><path d="M10.17 12.58c-.27.25-.59.37-.89.4h-.01c-.18-.02-.18-.05-.2-.12 0-.04-.01-.1-.06-.18-.11-.17-.64-.37-.88-.46a.99.99 0 0 1-.12-.05c-.01-.02.07-.2.18-.39.12-.2.14-.21.4-.33.26.14.85.47 1.2.63.36.16.37.29.38.46v.04Z" fill="url(#ufvjynwtz)"/><path d="M10.6 12.03c-.15.3-.35.5-.56.66a.65.65 0 0 1-.04-.05.23.23 0 0 1-.06-.18c0-.07 0-.12-.21-.13a4.26 4.26 0 0 1-1.17-.26c-.1-.04-.2-.1-.1-.11h.08c.07-.01.12-.01.12-.07 0-.09-.01-.14-.05-.16l-.02-.01c-.02-.01-.05-.03-.08-.1l-.02-.03c-.05-.1-.11-.22-.03-.24l.24.16c.07.04.13.07.17.11l.1.06c.03.01.05.02.09.08.05.08.23.12.42.17l.2.06c.26.08.7.06.8.05h.04l.07-.01Z" fill="url(#vfvjynwtz)"/><path d="M7.8 11.93c-.04-.05-.13-.35-.15-.4.03-.02.12-.03.19.06.09.12.1.12.23.03.12-.09.12.06.18.2.05.13-.03.1-.07.22-.04.1 0 .13.07.11.07-.01.1-.17.14-.11.04.05.07.01.2 0 .14-.02.03.08.04.17.01.09.04.04.1.1.06.05.35.1.6.15.26.05.23.08.23.15 0 .07-.1.3-.27.35-.16.05-.74-.05-.86-.12-.11-.08-.34-.4-.36-.47-.03-.08-.24-.4-.28-.44Z" fill="url(#wfvjynwtz)"/><path d="M8.06 10.58c-.03-.14-.13-.03-.2-.04v.15c0 .01 0 .74.1.95.09.2.05.05.18.07.13.03.1.15.12.1l.24-.33c.03-.05.04-.05-.04-.34-.07-.3.02-.32.17-.79.16-.47.02-.22-.03-.21-.05 0-.31.79-.36.96-.06.17-.12.3-.16.27-.03-.04 0-.65-.02-.79Z" fill="url(#xfvjynwtz)"/><path d="m8.5 9.43-.27.2c0 .06.01.19.07.26.07.1.13 0 .24-.02.12-.02.17-.16.17-.24 0-.07-.14-.16-.2-.2Z" fill="url(#yfvjynwtz)"/><path d="M8.55 9.33a3.19 3.19 0 0 1-.14-.47l.12-.2.16.04.08.17c.02.04 0 .32-.02.39-.01.07-.06.16-.08.17-.03 0-.09-.05-.12-.1Z" fill="#9BD8E0"/><path d="m8.51 9.44-.27.22c-.11-.02-.34-.07-.39-.1-.06-.04-.02-.43.13-.73.16-.3.28-.09.29-.09.01 0 .13.14.14.1.02-.02.1.32.15.5l-.05.1Z" fill="url(#zfvjynwtz)"/><path d="M8.15 10.63c-.02.08-.14 0-.28-.07a7.2 7.2 0 0 0-.1-.36c-.07-.18.05-.49.14-.76.1-.27.11-.04.15-.04.04 0 .2.3.2.31l.11.23c.02.04-.06.18-.1.24l-.12.46Z" fill="url(#aafvjynwtz)"/><path d="m6.68 7.63.17-.55a9.58 9.58 0 0 1 1.1 1.24l.27.69a7 7 0 0 0-.21.72c-.02.13-.09.4-.09.6 0 .2-.03.46 0 .72.04.26.15.63.15.73 0 .11-.15.07-.24.04-.08-.04-.25-.66-.32-.88-.07-.22-.27-1.2-.34-1.39-.06-.14-.35-1.34-.49-1.92Z" fill="url(#abfvjynwtz)"/><path d="m8.02 5.4-.3-.43-.16.14c.04.05.13.16.16.22.05.08.14.19.2.31.07.13.33 1.24.4 1.5.07.25.23 1.24.18 1.5-.05.25.02.25.05.3.03.06.18 0 .2-.14.02-.14-.07-.46-.12-.64-.05-.18-.3-1.36-.31-1.44l-.3-1.32Z" fill="url(#acfvjynwtz)"/><path d="M6.45 4.43c-.06 0-.22.04-.24.05.06.02.5.24.63.33.12.08.06.02.17 0 .1 0 .06-.04.07-.13 0-.08.04-.11.08-.18.03-.06-.02-.15-.02-.18 0-.02-.08-.01-.12-.03-.04-.01-.18.06-.34.1-.15.04-.18.03-.23.04Z" fill="url(#adfvjynwtz)"/><path d="m6.91 6.88-.26.88a.73.73 0 0 1-.03-.36c.02-.22.09-.26.13-.42.04-.17.12-.4.14-.47.02-.07.16-.07.17-.05 0 .03-.11.35-.15.42Z" fill="url(#aefvjynwtz)"/><path d="M6.63 6.4c-.05-.11-.27-.3-.34-.35 0 .04 0 .12.02.17.02.05.08.08.17.15.09.08.08.18.12.27.04.09.06.22.04.38-.02.16-.03.14.04.15.08.02.02-.07.08-.17s-.09-.5-.13-.6Z" fill="#F5260E"/><path d="M6.28 6.03c-.07-.1 0-.43 0-.45-.01-.02-.02-.08.02-.14.06-.07.4.03.61.18.22.15.1.17.2.4.11.21 0 .25-.18.44-.17.2-.05.03-.14.05-.1.01-.14-.07-.23-.18-.08-.1-.2-.19-.28-.3Z" fill="#12123B"/><path d="M6.27 5.92c-.02 0-.03.09-.04.13l.32.29c.1.09.1.2.15.45.05.24.01.21-.02.34a.49.49 0 0 0 0 .26c.01.02.07-.4.13-.56.06-.16.08-.17.08-.24 0-.08.14-.03.19-.13.05-.1.1-.33.11-.36.01-.03.19-.42.24-.63.05-.21-.05.02-.12.07-.07.05-.18.04-.21.04-.04 0-.19-.03-.29.04-.1.07 0 .09.04.16.04.06.1.17.14.2.04.04.02.08 0 .18a.85.85 0 0 1-.1.3c-.03.04-.04 0-.14-.1s-.1-.08-.15-.1c-.05-.03-.1-.1-.22-.21-.13-.11-.08-.15-.1-.13Z" fill="url(#affvjynwtz)"/><path d="M6.79 5.55c0-.03-.33-.2-.37-.22a.56.56 0 0 1-.06.08c-.02.02 0 .08 0 .1.07.02.23.08.34.16.15.1.23.3.29.31.05 0-.01-.02-.03-.07-.02-.05-.07-.07-.1-.14a.84.84 0 0 1-.07-.22Z" fill="#6C7A11"/><path d="M5.93 5.78c-.21-.19-.46-.3-.48-.3.04-.03.18-.06.51-.04.34.01.4.1.4.14l-.09.34-.14-.14.14.3c-.04-.02-.17-.14-.34-.3Z" fill="#4038F9"/><path d="m6.37 5.49-.75-.17c.08-.04.27-.11.46-.13.22-.04.33.11.34.13a.8.8 0 0 1-.05.17Z" fill="#EFD987"/><path d="M5.46 5.3c-.32 0-.64.27-.67.32-.02 0-.07.02-.09.06-.02.05.01.02.12-.01.1-.03.5-.19.77-.19s.75.1.77.11l.02-.1a1.5 1.5 0 0 0-.34-.11c-.1-.01-.25-.08-.58-.08Z" fill="url(#agfvjynwtz)"/><path d="M5.41 4.88c.03-.05.33-.4.6-.4.27 0 .5.03.64.11.15.08.17-.02.3.17.1.2.01.15.08.26.06.1.09.01.15.23s.17.38.14.44c-.03.05-.12.24-.16.28-.02.02-.01.02 0 0 0-.02 0-.09-.13-.2a2.9 2.9 0 0 1-.46-.42c-.07-.1 0-.08-.14-.14a1.43 1.43 0 0 0-.47-.17c-.2-.04-.45-.13-.55-.16Z" fill="url(#ahfvjynwtz)"/><path d="M5.24 4.63a1.4 1.4 0 0 0-.3.5c.04.01.15 0 .36-.12.26-.14.12-.18.44-.44s.17-.06.41-.08c.24-.03.32-.03.57-.08.26-.05-.02-.07-.08-.14-.06-.08-.12-.1-.45-.1s-.61.14-.95.46Z" fill="url(#aifvjynwtz)"/><path d="M4.67 5.8v-.02l.03-.06c.12-.1.35-.23.6-.24.3-.01.37.05.53.2l.07.07.2.17c.11.09.2.16.25.26.03.06.07.09.07.09s-.1-.05-.49-.13c-.26-.06-.46-.13-.64-.19-.22-.08-.4-.14-.62-.14Z" fill="#06FDFF"/><path d="M5.34 6.22c-.51.1-.59.26-.64.31-.06.24-.14.8 0 1.04.17.31.33.12.49.08.16-.03.75-.6.92-.78.16-.2.24-.34.22-.46-.02-.12-.49-.29-1-.2Z" fill="url(#ajfvjynwtz)"/><path d="m5.77 11.2-.21.83a1.6 1.6 0 0 1-.04.11c-.22.1-.4.17-.95.19-.47.01-.53-.1-.64-.27a1.45 1.45 0 0 0-.14-.18c-.24-.29.19-.47.32-.52a8.47 8.47 0 0 1 1.66-.16Z" fill="url(#akfvjynwtz)"/><path d="m5.77 11.23-.04.15c-.54.1-1.25.13-1.43.11-.08 0-.15-.04-.2-.06-.07-.04-.1-.05-.05.04.03.07.08.11.12.14.05.03.07.05-.02.11l-.1.06c-.08.06-.11.09-.27.01l-.14-.08a2.17 2.17 0 0 0-.2-.1.51.51 0 0 0-.16-.03c-.1-.02-.16-.02-.2-.28v-.15c.07-.2.18-.32.25-.37l.01-.06c.1.21.3.44.78.49.7.07 1.15.03 1.4 0 .11-.01.18-.02.2 0l.05.02Z" fill="url(#alfvjynwtz)"/><path d="m5.6 11.84-.04.2c-.1.28-.25.5-.47.64-.25.12-.5.22-.58.15-.12-.1-.14-.16.02-.41.12-.2.28-.26.34-.26.01.02.1.05.33-.06.15-.07.3-.17.4-.26Z" fill="#C4F3FD"/><path d="M3.98 11.74c-.04.04-.16-.1-.21-.18-.03 0-.1 0-.14.03-.05.05.03.2.03.34s.06.18.32.38.69.21.73.22c.03 0 .17-.34.18-.36.02 0-.05-.03-.13-.02-.09.01-.1 0-.35-.11-.25-.1-.22-.16-.3-.25-.07-.1.07-.08.07-.12 0-.03-.05-.03-.1-.03-.04 0-.05.05-.1.1Z" fill="url(#amfvjynwtz)"/><path d="M3.37 11.3a.97.97 0 0 1-.06-.5c-.05.1-.17.33-.24.52-.07.24.01.68.11.9.1.23.61.55.83.61.21.07.36-.05.52-.1.15-.04.24-.25.2-.26-.04 0-.26-.05-.6-.23-.33-.18-.09-.1-.3-.24-.21-.16-.1-.1-.15-.25-.04-.17.07-.12.11-.19-.05-.03-.04-.08-.1-.16-.07-.07-.06.14-.1.12-.05-.03-.13-.05-.22-.23Z" fill="url(#anfvjynwtz)"/><path d="M3.22 11.77c-.07-.08-.03-.15-.03-.16.02 0 .06 0 .1.03.03.04.04.1.1.25.05.15-.04-.01-.07-.03-.04-.02-.03 0-.1-.09ZM3.35 11.48c-.07-.08-.03-.15-.02-.17.01 0 .06.01.09.04.03.04.05.1.1.25s-.04-.01-.07-.03c-.03-.02-.03-.01-.1-.09Z" fill="#10E71B"/><path d="M3.31 10.8c-.1.07-.31.34-.31.84 0 .11.02.22.05.33l.11-.08c-.01-.1-.04-.35-.02-.5.01-.07.05-.18.09-.29.04-.11.08-.23.08-.3Z" fill="url(#aofvjynwtz)"/><path d="m5.57 11.99-.01.04c-.19.57-.61.86-1.28.87-.59 0-1.14-.49-1.26-1.05l.1.07.02-.1c.07.25.35.77.9.87.68.13 1.12-.14 1.35-.45l.14-.2.04-.05Z" fill="url(#apfvjynwtz)"/><path d="m6.18 9.65-.44 1.68-.24.05c-.5.08-1.77.03-2.04-.38a11.19 11.19 0 0 1-.13-.22l.13-.64c.13.1.5.33.95.44.58.15.84.06 1.02-.06a4.32 4.32 0 0 0 .75-.87Z" fill="url(#aqfvjynwtz)"/><path d="M4.53 9.17c.06-.14.17-.45.19-.47 0 .06.06.3.32.84s.9.1 1.2-.19c-.15.2-.58.65-1.15.82-.56.18-.6-.59-.56-1Z" fill="#6BA1B2"/><path d="m6.25 9.37-.32 1.23c-.31.2-.71.35-1.13.22-.68-.2-1.15-.49-1.35-.64.12-.53.24-1.03.36-1.48-.05.43-.06 1.17.2 1.05.28-.13.5-.51.57-.69-.01.27.04.83.36.95.39.14.88-.12 1.1-.39.07-.1.15-.18.21-.25Z" fill="url(#arfvjynwtz)"/><path d="m6.38 8.86-.18.72c-.18.11-.47.27-.71.24-.3-.03-.37-.09-.37-.11.09-.42.32-1.39.47-1.84a5.9 5.9 0 0 1 .64-1.47c.11-.04.27.04.25.27a107.73 107.73 0 0 0-.1 2.2Z" fill="url(#asfvjynwtz)"/><path d="M4.72 8.73c.03.34.3.79.42.97l.98-2.9c0-.04.05-.45-.13-.47-.18-.03-.38.33-.58.7-.17.31-.53 1.27-.7 1.7Z" fill="url(#atfvjynwtz)"/><path d="M5.16 7.55c.02.03.06.13.08.4.03.33.2.2 0 .47-.2.28-.27.54-.27.73-.07.15-.25-.42-.25-.45 0-.02-.04-.07-.07-.1v-.01c-.02 0-.01.02 0 0a.7.7 0 0 0 0-.14c0-.23-.03-.42-.08-.46-.05-.04-.15 0-.16-.12-.01-.12-.05-.08.04-.32.08-.23.16-1.01.32-1.07.15-.05.29-.29.25 0-.05.3-.16.58-.16.7 0 .13-.07.2.02.23.1.03.13-.11.36-.43.23-.31.47-.72.33-.36-.1.3-.32.74-.4.93Z" fill="#05EFFA"/><path d="M3.62 9.48c.2-.85.4-1.59.58-2.2.06-.02.09-.02.04.11l-.08.2-.13.35c-.02.1.04.03.11-.04a.93.93 0 0 1 .13-.13c.08-.06.16-.12.05.06a2 2 0 0 0-.29.66v.12c-.02.03-.02.04 0 .06.04.02.17-.03.24-.1.07-.08.1.02.1.19-.02.17-.04.25-.1.39l-.01.03c-.06.11-.1.2-.02.2l.07.01c.07 0 .14 0 0 .12l-.11.1c-.12.1-.2.18-.26.17H3.9c-.07 0-.17.02-.28-.3Z" fill="url(#aufvjynwtz)"/><path d="M3.86 8.5c.18-.67.35-1.24.5-1.72.18-.15.37-.28.38-.23.02.08-.02.28-.05.44l-.02.12c-.02.1 0 .22.02.43l.05.62c.02.25.06.37.09.46.05.14.06.18-.13.45-.12.2-.15.4-.16.52-.02.16-.02.21-.22.06C4 9.38 4 9.3 4 9.15v-.03c0-.06-.02-.14-.05-.25-.03-.1-.07-.23-.09-.38Z" fill="url(#avfvjynwtz)"/><path d="m6.64 8.26-.05-.2-.25 1c-.1-.26-.04-.7.02-1.14.05-.34.1-.7.07-.98-.05-.66-.3-.73-1.04-.71-.46.01-.85.39-1.07.67l.36-1.12.01-.05c.2-.08.34-.07.45-.06h.1c.15 0 .27.07.57.21l.24.12c.4.2.46.47.53.74l.06.2a4.64 4.64 0 0 1 0 1.32Z" fill="#fff"/><path d="M4.87 5.26c.14-.25.33-.59.48-.7l.15-.13c.07-.07.11-.12.32-.15l.09-.02c.24-.05.35-.07.56 0l.18.06c.16.06.31.12.38.07.1-.07.12-.1-.06-.22a1 1 0 0 1-.1-.08A.96.96 0 0 0 6.8 4h-.16c-.95 0-1.48.59-1.78 1.28l.02-.03Z" fill="url(#awfvjynwtz)"/><path d="M5.71 4.5c-.42.05-.42.33-.45.35.03.05.1.13.22 0 .14-.16.54-.34.56-.34.02 0 .1-.05-.33 0Z" fill="#081EFB"/><path d="M4.77 5.49c.05-.14.11-.29.18-.42.13-.1.3-.23.45-.23l.19-.01c.1-.02.18-.03.36.01.23.06.5.16.62.2.02.04.04.13-.07.13l-.12-.02c-.1-.02-.23-.05-.48 0l-.29.03c-.17.01-.32.02-.57.16l-.27.15Z" fill="url(#axfvjynwtz)"/><path d="M4.71 5.67a58.24 58.24 0 0 0 .08-.23c.16-.1.4-.23.68-.29.47-.1.85-.13.95-.06.11.08.5.43.51.5 0 .02.04.06.07.1.06.06.1.1-.18-.07l-.29-.19c-.13-.1-.18-.12-.42-.13-.28 0-.38 0-.54.02l-.17.02c-.21.02-.22.02-.26.05l-.06.04-.16.11c-.07.06-.14.12-.2.13Z" fill="url(#ayfvjynwtz)"/><path d="m6.28 5.9-.15-.12.03.12.08.17.04-.17Z" fill="#0AB0E1"/><path d="M6.7 5.64c-.09-.09-.3-.15-.33-.16v.12l.08.04.3.1c.12.06.08.13.19.26.1.13.09.04.1 0 .03-.04-.01 0-.06-.02-.04-.02-.1-.08-.14-.15a.68.68 0 0 0-.14-.19Z" fill="#C01309"/><path d="M6.53 6.45a52.2 52.2 0 0 0-.14-.22c.05.14.15.46.18.62.04.2.07.1.07.09 0-.02.02-.13 0-.24-.03-.12-.05-.15-.1-.25h-.01Z" fill="#FBFA12"/><path d="M5.94 4.41c-.07-.01-.1.05-.11.07-.01 0-.02.01 0 .02s.14 0 .22-.02c.08 0-.03-.05-.1-.07Z" fill="#C3ACF1"/><path d="M7.04 4.8c-.04.03-.04 0-.07.04v.07c0 .02.07.05.13.06.05 0 .1.07.14.14.04.06.08.21.12.31.04.1-.06.15-.04.15.02 0 .05-.03.12-.15.07-.11.22-.33.24-.39.02-.05-.05-.1-.14-.27-.1-.17-.03-.05-.1-.08s-.07-.07-.12-.18c-.06-.12-.04-.16-.08-.23-.05-.08-.07.13-.1.2-.01.1-.01.08-.04.12-.03.03-.02.2-.06.22Z" fill="url(#azfvjynwtz)"/><path d="M7.05 4.91c-.06-.03-.05.02-.07.04-.01.02.02.09.04.11l.11.15c.08.11.07.15.09.22.01.07.03.1.1.15.07.06.05-.04.08-.06.03-.02-.02-.12-.03-.19-.02-.06-.1-.23-.15-.28a.6.6 0 0 0-.17-.14Z" fill="url(#bafvjynwtz)"/><path d="M6.78 4.01c.02.06.06.1.14.14L7 4.2c.04.02.06.03.09.07l.02.06c0 .02 0 .05.03.11a.5.5 0 0 0 .12.18c.04.04.08.09.11.15l.06.11c.02.07.04.1.08.1.02 0 .04.02.05.03.03.03.05.04.03-.1l-.02-.21c-.02-.13-.03-.22.02-.17l.06.05c.07.05.17.13.38.52a8.33 8.33 0 0 1 .3.6c-.25-.72-.67-1.6-1.56-1.69Z" fill="#3708FC"/><path d="M7.6 4.4c.41.38.64.99.8 1.48.2.63.55 2 .7 2.61l.01-.08c0 .1-.04.21-.06.26l-.12-.27-.07-.28c-.14-.5-.4-1.52-.5-1.78-.11-.34-.32-.83-.41-1.04a.98.98 0 0 0-.18-.27l-.1-.13c-.08-.11-.08-.11-.1-.22v-.11c-.02-.1 0-.15.03-.17Z" fill="#32D5F4"/><path d="M7.75 5.01 7.6 4.8v.1c.02.05.05.06.14.19.08.13.25.5.36.82.1.3.2.97.3 1.23.09.26.28.99.37 1.23.06.19.17.46.22.57l.07-.26c-.08-.14-.42-1.37-.55-1.87-.14-.5-.38-1.2-.5-1.42-.1-.23-.17-.25-.26-.37Z" fill="#D2F512"/><path d="m7.4 5.75-.23.4.2-.58c.04-.15.18-.39.24-.49l.1.16a.67.67 0 0 1-.1.1c-.06.05-.17.32-.21.41Z" fill="url(#bbfvjynwtz)"/><path d="M7.32 6.23c-.15-.07-.18.05-.2.07l.05-.14c.02-.06.2-.37.28-.58.1-.2.23-.32.25-.34.02-.02.06.05.12.21a21.08 21.08 0 0 1 .57 2.69c.04.26-.04.6-.08.74-.1-.3-.35-1.05-.48-1.58-.17-.66-.37-1-.51-1.07Z" fill="url(#bcfvjynwtz)"/><path d="M8.06 9.3c-.14.29-.1.47-.1.49.07-.17.23-.54.28-.62.06-.1.14-.35.17-.67.03-.33-.04-.72-.06-.82l-.26-1.32a7.4 7.4 0 0 0-.29-.93l.4 1.87c.07.28.18.91.15 1.26s-.14.44-.29.73Z" fill="#0BEBB2"/><path d="M8.25 9.11c-.14.3-.25.6-.27.63.82-1.29.52-1.57.48-2.03-.05-.46-.56-2.15-.58-2.18a6.79 6.79 0 0 0-.08-.1l.2.71.4 1.96c.03.24 0 .7-.15 1.01Z" fill="#F5E607"/><path d="M7.02 7.32c-.2-.17-.18-.18-.18-.24.09-.27.28-.8.32-.86.04-.08.16-.07.33.08.17.15.4 1.02.4 1.14 0 .12.4 1.29.44 1.38.03.08-.05.16-.1.2a6.03 6.03 0 0 0-.13-.23c-.07-.1-.16-.43-.18-.48-.02-.05-.16.07-.21.03-.06-.05-.28-.54-.32-.6-.04-.06-.1-.2-.37-.42Z" fill="url(#bdfvjynwtz)"/><path d="M7.78 12.18a2.8 2.8 0 0 1-.14-.28c-.29-.66-.8-2.75-1.03-3.78l.1-.52a436.58 436.58 0 0 0 1.1 4.25c.07.09.1.1.12.1.02 0 .02 0 .02.04 0 .06-.08.12-.17.19Z" fill="url(#befvjynwtz)"/><path d="m7.78 12.18-.14-.28c-.29-.66-.8-2.75-1.03-3.78l.1-.52.36 1.59.09.36.04.16c.13.5.52 2.02.61 2.14.07.09.1.1.12.1.01 0 .02 0 .02.04-.01.06-.08.12-.17.19Z" fill="url(#bffvjynwtz)"/><path d="M8.3 9.89c.2-.2.43-.29.52-.3l-.25.78-.35 1.01c-.05.2-.08.3-.13.22-.05-.08-.09-.26-.1-.52 0-.26.07-.95.32-1.2Z" fill="url(#bgfvjynwtz)"/><path d="M8.64 9.64c-.07 0-.15-.2-.15-.21a.73.73 0 0 0 .04-.1c.01-.03.04 0 .1.04.04.05.07 0 .1-.12.02-.12.01-.25 0-.48a25.6 25.6 0 0 0-.34-1.64L9 8.9l-.17.69c-.04.02-.11.06-.18.05Z" fill="#F55009"/><path d="M11.4 9.62c-.16.56-.36 1.21-.53 1.73-.25.13-.81.37-1.6.34-.82-.03-.85-.72-.76-1.06l.65-2.35.34-.62-.08.93c0 .2-.07.36-.14.53-.06.17-.13.34-.12.53 0 .28.25.14.38.03 0 .22 0 .71.1.89.09.15.21.12.44.07l.4-.07c.36-.05.73-.63.91-.95Z" fill="url(#bhfvjynwtz)"/><path d="M10.03 12.7c-.3.21-.64.3-.95.3-.37 0-.76-.13-1.08-.51-.02-.17 0-.36.01-.46.08.11.3.4.55.62.28.27.65.24.91.21h.06a2 2 0 0 0 .5-.16Z" fill="#BAEC0E"/><path d="M8 12.48c-.09-.1-.16-.2-.23-.33v-.01c.02 0 .04-.03.06-.05l.1-.1.05-.01c.02-.01.03-.01.06-.06l.01-.02c.04-.07.08-.13.06-.03-.01.04.01.06.03.08.03.03.06.06 0 .16a.83.83 0 0 0-.07.19c-.02.06-.03.12-.08.18Z" fill="#fff"/><path d="M10.92 11.2a7.22 7.22 0 0 1-.35.87l-.06.01a.78.78 0 0 0-.2.09.75.75 0 0 1-.4.12h-.1c-.21 0-.33-.01-.53-.08-.24-.09-.6-.29-.6-.34.01-.02.04-.03.07-.04.04-.02.08-.03.1-.08 0-.03.02-.03.02-.04 0 0-.02 0-.12-.1l-.17-.12c-.17-.11-.37-.24-.28-.5.1-.27.16-.32.19-.3-.01.07-.07.69.75.76.52.04 1.07-.1 1.42-.2l.26-.05Z" fill="url(#bifvjynwtz)"/><path d="M9.82 9.16c-.08.24-.3.54-.34.57.03.27.1.81.15.83.04.03.06-.03.19-.1.1-.07.23-.37.28-.51a9.23 9.23 0 0 1-.28-.79Z" fill="url(#bjfvjynwtz)"/><path d="M10.78 6.64a12.06 12.06 0 0 0-.07 1.15c0 .22-.24 1.09-.32 1.4a1.2 1.2 0 0 1-.14.38.77.77 0 0 1-.1-.16c-.04-.07-.15-.45-.18-.53-.02-.08-.1-.29-.08-.51.03-.22-.07-.19-.03-.37.04-.19.09-.35.07-.35-.03 0-.18.35-.22.32-.05-.04-.1-.2-.1-.24.02-.05.18-.85.25-1 .07-.14.2-.22.3-.27.1-.05-.02.2 0 .18.02-.02.07.14.1.22-.02.11-.07.4-.17.65-.13.3.05.17.13.14.07-.03.33-.59.38-.73a.75.75 0 0 1 .18-.28Z" fill="url(#bkfvjynwtz)"/><path d="M10.27 8.94c-.11.22-.02.47 0 .56a26.65 26.65 0 0 0 .45-1.04c.04-.06.33-1.13.36-1.24.03-.1-.12-.5-.22-.47-.1.02-.19.42-.3.7a.84.84 0 0 0-.08.4l.11-.06-.13.83c-.04.2-.07.1-.19.32Z" fill="#3708FC"/><path d="M10.05 8.46c-.06.1-.32.71-.44 1L9.9 9c.12-.16.21-.47.3-.72.08-.25.54-1.35.6-1.5.08-.14.09-.13 0-.07-.07.07-.27.6-.3.65l-.46 1.11Z" fill="#4A4DA8"/><path d="M10.25 9.5c-.12.23-.3.68-.4.88.1-.03.25-.21.36-.42l.4-.8c.06-.12 0-.16 0-.19l-.08.14c-.02.01.02-.07.04-.14.03-.07.03-.18 0-.17-.02 0-.17.42-.32.7Z" fill="#0E40A3"/><path d="M10.65 8.59c-.08.21-.09.32-.08.35l.16-.35c.13-.3.51-1.03.63-1.19.09-.13.25-.09.33-.05-.1-.23-.26-.12-.48.08-.23.2-.45.89-.56 1.16Z" fill="url(#blfvjynwtz)"/><path d="m9.8 5.93.06-.2a.72.72 0 0 1 .33-.17c.3-.06.45-.09.6 0 .1.06.28.2.4.31l.12.09c.07.06.17.2.21.27-.04-.01-.2-.07-.54-.16a1.86 1.86 0 0 0-.91-.08.29.29 0 0 1-.27-.06Z" fill="#06FDFF"/><path d="m9.5 7.05.32-1.17a1 1 0 0 1 .47-.2c.2 0 .28.02.46.1.06.04.14.07.22.1.15.07.32.14.41.22.13.1.19.28.27.53l.05.14c.08.25.1.64.09.8a.8.8 0 0 0-.1-.32c0-.13-.08-.4-.1-.48a1 1 0 0 0-.35-.4c-.2-.13-.35-.14-.64-.07-.29.07-.52.2-.67.37-.1.11-.3.27-.44.38Z" fill="#fff"/><path opacity=".3" d="M5.9 4.61c-.37.06-.75.97-.74 1.2l1.04.35c.08-.3.27-.96.31-1.16.05-.26-.24-.45-.61-.39Z" fill="#fff"/><path d="m9.86 5.73.05-.19c.14-.08.42-.24.57-.28.14-.05.63-.02.84 0h.1c.06 0 .6.35.73.52.11.14.13.3.13.37l-.04.02c-.03.02-.05.03-.06.01 0-.03-.2-.42-.3-.54-.09-.12-.17-.18-.49-.27a1.59 1.59 0 0 0-1.54.36Z" fill="url(#bmfvjynwtz)"/><path d="m9.87 5.7.01-.07c.1-.07.24-.13.35-.15.21-.04.56-.1.73-.08.18.02.5.09.63.12.12.04.44.26.48.34l.05.1c.03.06.06.12.03.11L12.1 6c-.07-.1-.16-.23-.3-.28a3.7 3.7 0 0 0-.55-.14l-.04-.01a2.9 2.9 0 0 0-.75-.05c-.12.03-.46.11-.58.17Z" fill="url(#bnfvjynwtz)"/><path d="m12.14 6.66-.37 1.39c.02-.18.06-.55.09-.64.03-.1 0-.21 0-.38s-.02-.12 0-.25c.01-.13.09-.1.24-.19s.06-.14.07-.3c.02-.17.03-.1.07-.24.04-.15.02-.11.04-.25.03-.13-.03-.42.02-.48.06-.06.18.36.17.38l-.17.46c-.04.14-.13.44-.16.5Z" fill="#07D9EB"/><path d="M11.44 5.87c-.19-.07-.07.2-.07.21v.06c.02.02.19.08.31.23.1.11.17.29.2.36h.14c.1-.03.12-.14.17-.2.06-.07.03-.23 0-.32-.03-.1-.11.32-.14.22a.84.84 0 0 0-.21-.28c-.08-.07-.2-.22-.4-.28Z" fill="url(#bofvjynwtz)"/><path d="M11.42 8.08c.07.11.1.22.1.23.02 0 .07.01.08-.03 0-.05-.02-.06-.08-.17-.06-.1-.02-.16.02-.27.04-.11.08-.06.07-.07 0-.01-.03-.1-.08-.1-.06 0-.19.3-.11.41Z" fill="#06FDFF"/><path d="M10.72 9.15c-.13.16-.14.4-.13.45.02 0 .1-.13.17-.21.09-.1.24-.57.33-.8.1-.22.17-.22.16-.26-.01-.04.01-.18-.05-.2-.07 0-.21.38-.27.5-.06.13-.05.35-.2.52Z" fill="#F319CA"/><path d="M10.57 9.05c0 .1.07.34.09.38.1-.27.35-.84.43-1.04.1-.24.03-.2.16-.47.1-.21.11-.14.1-.08l.24-.22c.06-.06-.01-.05-.04-.08-.02-.03-.26.05-.35.14-.08.1-.54.84-.58 1.03-.05.2-.05.24-.05.34Z" fill="#73DAF7"/><path d="M12.35 5.22c.14.08.05.26.02.36l.1.1.23-.68c.02-.07-.08-.18-.13-.22-.06-.05-.14-.04-.24 0-.1.03-.2.25-.2.33 0 .09.04.02.22.11Z" fill="#5EEA59"/><path d="m9.9 5.59.06-.23c.02-.08.05-.17.1-.26l.03-.02c.14-.08.13-.03.08.07-.02.03-.02.03 0 .01.03-.03.1-.11.19-.12l.1-.01a.9.9 0 0 1 .32 0 .7.7 0 0 0 .22-.01c.1-.01.2-.03.34 0 .26.06.5.14.5.18 0 .03-.1.1-.24.08l-.08-.02-.28-.01h-.14c-.26 0-.4 0-.58.07l-.21.1-.42.17Z" fill="#F3A9F5"/><path d="M10.62 4.63c-.1.04-.13.17-.13.23l.1.1c.05.06.2-.01.27 0 .07 0 .22.04.42.07.2.03.3.08.38.05.07-.02.05-.19-.04-.27-.08-.08-.35-.1-.52-.13-.18-.02-.06-.15-.14-.2-.08-.03-.23.1-.34.15Z" fill="#081EFB"/><path d="M10.06 5.1c.15-.31.41-.7.8-.92 0 .03-.06.08-.13.13l-.14.13c-.07.09-.07.1-.08.13v.02c-.01.04.06.02.13 0l.08-.02c.03 0-.05.09-.12.17l-.1.1a.26.26 0 0 1-.1.09l-.1.05c-.07.05-.17.1-.24.12Z" fill="#9CA5F6"/><path d="M10.55 4.5c.05 0 .12 0 .23-.09.06-.05.1-.1.12-.13l.08-.08c.03 0 .03-.01.03-.02l.12-.05c.2-.06.26-.05.39-.02l.1.03c.04.02.07.03.18.03.09 0 .1-.02.12-.02l.07.09c.06.06.1.07.12.08.03.02.06.02.1.1.05.05.05.14.05.21 0 .1 0 .17.1.14l.11-.03c.07-.01.1-.02.09-.1V4.6c0-.04 0-.08-.02-.15a1.36 1.36 0 0 0-1-.44c-.42 0-.75.18-1 .42a.47.47 0 0 0-.02.07h.03Z" fill="#CF4DF0"/><path d="M11.48 4.1c-.1 0-.07.12-.07.15 0 .02.14.04.29.07.15.03.22.08.31.06.1-.02-.02-.06-.13-.13a.99.99 0 0 0-.4-.16Z" fill="#15E85A"/><path d="M12.55 4.46a6.23 6.23 0 0 0-.07.23l-.02.05c0 .02.03.02.1.06.11.07.19.15.21.18l.14.25.48 1.86a32.43 32.43 0 0 0 .7 2.3l.01.03c.07.19.27.84.34.92 0 .02.02.03.04.05l-.57-1.83a53.1 53.1 0 0 1-.26-1.07c-.17-.73-.37-1.57-.44-1.78V5.7a3.23 3.23 0 0 0-.66-1.23Zm2.2 6.33c.12.18.25.4.25.59 0 .07 0 .16-.02.27l-.02-.08a.58.58 0 0 0-.06-.16c-.01-.01-.02-.02 0-.05.02-.08 0-.13-.06-.23a1.08 1.08 0 0 1-.04-.1l-.11-.19c-.05-.06-.04-.06-.01-.05h.06Z" fill="#29EAEC"/><path d="m12.44 5.78-.15.4a1.36 1.36 0 0 1 .34.72 20 20 0 0 0 .46 1.65c.09.2.07.1.13-.09.02-.18-.03-.74-.1-1.16-.07-.41-.24-1.52-.28-1.65-.03-.12-.08-.02-.14.02-.07.04-.13.1-.16 0-.04-.1-.09.07-.1.1Z" fill="url(#bpfvjynwtz)"/><path d="m12.66 5.06-.2.6c0 .04.08.05.15.07.08.02.08-.04.16-.09.08-.05.05-.03.05-.1 0-.08-.12-.6-.16-.48Z" fill="#09B8FB"/><path d="m13.25 7.3-.34-1.72.44 1.9c.12.46.38 1.4.43 1.47.06.07.15.04.18.02l.08.6c.03.23.3.72.42.94h-.05a4.6 4.6 0 0 1-.29-.52c-.03-.1-.2-.36-.32-.64-.1-.28-.17.06-.27.1-.11.05 0 0-.03-.14-.03-.13-.17.33-.38.34-.22.02.06-.18.24-.33.19-.15.19-.2.24-.3.06-.08-.05-.37-.1-.63l-.25-1.09Z" fill="url(#bqfvjynwtz)"/><path d="m11.79 9.5-.2-.62-.03.13-.02-.1.18-.64c.12.49.4 1.53.48 1.75.1.23 0 .3-.07.32a45.55 45.55 0 0 1-.29-.77l-.05-.07Z" fill="url(#brfvjynwtz)"/><path d="m12.48 11.76-.73-2.37c.03-.03.06-.04.09 0a2.55 2.55 0 0 1 .5 1.09 4.23 4.23 0 0 0 .2.64c.04.07.05.1.02.2l-.08.44Z" fill="url(#bsfvjynwtz)"/><path d="M13.1 9.95c-.16.2-.18.6-.14.77.13-.09.46-.27.77-.33a1 1 0 0 1 .7.16.89.89 0 0 1-.04-.13c-.01-.04-.24-.37-.33-.58-.08-.2-.23-.13-.35-.17-.13-.04-.4.03-.6.28Z" fill="#EAF109"/><path d="M13.05 11.28a.65.65 0 0 0 0 .45c0 .03.04.13.2.23.2.12.46-.09.69-.23.22-.15.12-.6.07-.78-.06-.18-.3-.1-.56-.1-.27 0-.34.28-.4.43Z" fill="url(#btfvjynwtz)"/><path d="M13.47 11.37c-.21.2-.14.21-.16.4.37-.01 1.17-.01 1.36.04.25.07.24-.25.27-.52.02-.26-.18-.4-.45-.71a.53.53 0 0 0-.58-.17c.03.01.12.07.23.25.15.24-.1.06.03.24s.11.2-.05.1c-.15-.1-.08-.04-.21-.1-.11-.05-.16.04-.17.1a.86.86 0 0 1-.27.37Z" fill="#050505"/><path d="M13.95 12.73a1.7 1.7 0 0 1-.73-.06 1.53 1.53 0 0 1-.56-.53c-.12-.24-.06-.43-.03-.45h.03c.02.01.07.03.17-.03l.1-.06c.07-.05.09-.06.1-.01 0 .07.06.25.2.18l.14-.15c.05-.07.1-.14.2-.2l.03-.01c.17-.1.33-.21.48-.23l.08-.02c.09-.01.11-.02.27.09.17.12.26.11.31.1h.01c.05 0 .12.02.12.04 0 .03.07.33-.12.68-.13.25-.48.52-.8.66Z" fill="#C3D5F2"/><defs><linearGradient id="afvjynwtz" x1="13.06" y1="10.63" x2="13.5" y2="11.19" gradientUnits="userSpaceOnUse"><stop stop-color="#fff"/><stop offset=".26" stop-color="#06FDFF"/><stop offset=".39" stop-color="#fff"/><stop offset=".65" stop-color="#fff"/><stop offset=".98" stop-color="#F6890E"/></linearGradient><linearGradient id="bfvjynwtz" x1="13.82" y1="9.59" x2="13.41" y2="9.62" gradientUnits="userSpaceOnUse"><stop stop-color="#F5730F"/><stop offset="1" stop-color="#F0ADA7"/></linearGradient><linearGradient id="cfvjynwtz" x1="13.28" y1="5.66" x2="14.21" y2="8.77" gradientUnits="userSpaceOnUse"><stop offset=".72" stop-color="#6C7A11"/><stop offset=".79" stop-color="#8AB61A"/><stop offset=".99" stop-color="#589459"/></linearGradient><linearGradient id="dfvjynwtz" x1="11.89" y1="7.87" x2="13.16" y2="9.72" gradientUnits="userSpaceOnUse"><stop stop-color="#059281"/><stop offset="1" stop-color="#05EFFA"/></linearGradient><linearGradient id="efvjynwtz" x1="12.27" y1="6.48" x2="13" y2="8.55" gradientUnits="userSpaceOnUse"><stop stop-color="#501259"/><stop offset=".15" stop-color="#350C64"/><stop offset="1" stop-color="#1209FB"/></linearGradient><linearGradient id="ffvjynwtz" x1="12.84" y1="5.12" x2="13.7" y2="8.83" gradientUnits="userSpaceOnUse"><stop stop-color="#CFEF97"/><stop offset=".31" stop-color="#DADC0B"/><stop offset=".99" stop-color="#EAF109"/></linearGradient><linearGradient id="gfvjynwtz" x1="11.68" y1="4.36" x2="11.68" y2="6.09" gradientUnits="userSpaceOnUse"><stop stop-color="#C3ACF1"/><stop offset=".25" stop-color="#08CAB4"/><stop offset=".43" stop-color="#66BAAD"/><stop offset=".59" stop-color="#8095A0"/><stop offset="1" stop-color="#C3ACF1"/></linearGradient><linearGradient id="hfvjynwtz" x1="11.31" y1="9.39" x2="11.43" y2="9.45" gradientUnits="userSpaceOnUse"><stop stop-color="#1250DA"/><stop offset="1" stop-color="#71E7DB"/></linearGradient><linearGradient id="ifvjynwtz" x1="10.26" y1="9.42" x2="10.7" y2="10.06" gradientUnits="userSpaceOnUse"><stop stop-color="#87B79D"/><stop offset=".42" stop-color="#F5730F"/><stop offset=".72" stop-color="#EFD987"/><stop offset="1" stop-color="#C8A28C"/></linearGradient><linearGradient id="jfvjynwtz" x1="11.39" y1="7.33" x2="11.46" y2="7.42" gradientUnits="userSpaceOnUse"><stop stop-color="#EC614E"/><stop offset="1" stop-color="#114585"/></linearGradient><linearGradient id="kfvjynwtz" x1="10.78" y1="9.25" x2="11.48" y2="9.44" gradientUnits="userSpaceOnUse"><stop stop-color="#09B8FB"/><stop offset=".41" stop-color="#B3CBE3"/><stop offset=".75" stop-color="#724211"/></linearGradient><linearGradient id="lfvjynwtz" x1="11.89" y1="6.12" x2="12.06" y2="6.26" gradientUnits="userSpaceOnUse"><stop stop-color="#050505"/><stop offset="1" stop-color="#123A11"/></linearGradient><linearGradient id="mfvjynwtz" x1="10.92" y1="5.36" x2="11.59" y2="5.52" gradientUnits="userSpaceOnUse"><stop offset=".76" stop-color="#C4CF85"/><stop offset="1" stop-color="#6C7A11"/></linearGradient><linearGradient id="nfvjynwtz" x1="10.21" y1="6.45" x2="10.61" y2="6.73" gradientUnits="userSpaceOnUse"><stop stop-color="#fff"/><stop offset=".59" stop-color="#E9F143"/><stop offset="1" stop-color="#C7F06E"/></linearGradient><linearGradient id="ofvjynwtz" x1="11.26" y1="6.54" x2="11.26" y2="6.85" gradientUnits="userSpaceOnUse"><stop stop-color="#EB9E47"/><stop offset=".63" stop-color="#F5260E"/></linearGradient><linearGradient id="pfvjynwtz" x1="9.39" y1="7.54" x2="9.72" y2="7.47" gradientUnits="userSpaceOnUse"><stop stop-color="#0C1A62"/><stop offset=".46" stop-color="#447393"/><stop offset="1" stop-color="#400FD1"/></linearGradient><linearGradient id="qfvjynwtz" x1="11.54" y1="6.53" x2="11.64" y2="6.53" gradientUnits="userSpaceOnUse"><stop stop-color="#E5FAFD"/><stop offset=".33" stop-color="#FBFA12"/><stop offset="1" stop-color="#EF0BF6"/></linearGradient><linearGradient id="rfvjynwtz" x1="9.13" y1="9.25" x2="9.74" y2="9.47" gradientUnits="userSpaceOnUse"><stop stop-color="#73DAF7"/><stop offset=".47" stop-color="#D0E0F1"/><stop offset=".55" stop-color="#8AE4F5"/><stop offset=".69" stop-color="#328EF4"/><stop offset=".78" stop-color="#1250DA"/><stop offset="1" stop-color="#F5260E"/></linearGradient><linearGradient id="sfvjynwtz" x1="9.35" y1="8.52" x2="9.85" y2="8.73" gradientUnits="userSpaceOnUse"><stop stop-color="#A6EDCB"/><stop offset=".35" stop-color="#99EC1D"/><stop offset=".51" stop-color="#BAEC0E"/><stop offset=".72" stop-color="#15E85A"/><stop offset=".85" stop-color="#0CBE94"/><stop offset="1" stop-color="#11EA8B"/></linearGradient><linearGradient id="tfvjynwtz" x1="10.85" y1="10" x2="10.46" y2="10.8" gradientUnits="userSpaceOnUse"><stop stop-color="#DBF6DC"/><stop offset=".52" stop-color="#7BF1F9"/><stop offset="1" stop-color="#8AE4F5"/></linearGradient><linearGradient id="ufvjynwtz" x1="8.42" y1="11.74" x2="9.57" y2="13.09" gradientUnits="userSpaceOnUse"><stop stop-color="#9BD8E0"/><stop offset=".53" stop-color="#F5D4D8"/><stop offset=".81" stop-color="#F0ADA7"/><stop offset="1" stop-color="#F340F7"/></linearGradient><linearGradient id="vfvjynwtz" x1="8.54" y1="11.57" x2="10.34" y2="12.39" gradientUnits="userSpaceOnUse"><stop stop-color="#3EE7AE"/><stop offset=".88" stop-color="#29EAEC"/><stop offset="1" stop-color="#0BEBB2"/></linearGradient><linearGradient id="wfvjynwtz" x1="7.73" y1="11.69" x2="8.95" y2="12.3" gradientUnits="userSpaceOnUse"><stop stop-color="#5485F2"/><stop offset=".32" stop-color="#60EFF9"/><stop offset=".51" stop-color="#09EAD7"/><stop offset=".66" stop-color="#06D7FC"/><stop offset=".74" stop-color="#9CA5F6"/><stop offset=".85" stop-color="#8AE4F5"/><stop offset="1" stop-color="#73DAF7"/></linearGradient><linearGradient id="xfvjynwtz" x1="7.87" y1="10.73" x2="8.37" y2="11.18" gradientUnits="userSpaceOnUse"><stop stop-color="#537ABE"/><stop offset="1" stop-color="#8A90EA"/></linearGradient><linearGradient id="yfvjynwtz" x1="8.27" y1="9.56" x2="8.46" y2="9.85" gradientUnits="userSpaceOnUse"><stop offset=".01" stop-color="#D45218"/><stop offset=".35" stop-color="#F0ADA7"/><stop offset=".55" stop-color="#EFD987"/><stop offset="1" stop-color="#EFE27D"/></linearGradient><linearGradient id="zfvjynwtz" x1="8.25" y1="9.21" x2="8.41" y2="9.4" gradientUnits="userSpaceOnUse"><stop stop-color="#769F75"/><stop offset="1" stop-color="#589459"/></linearGradient><linearGradient id="aafvjynwtz" x1="7.9" y1="9.94" x2="8.14" y2="10.06" gradientUnits="userSpaceOnUse"><stop stop-color="#86CDD5"/><stop offset="1" stop-color="#F5D4D8"/></linearGradient><linearGradient id="abfvjynwtz" x1="6.68" y1="7.41" x2="8.15" y2="11.52" gradientUnits="userSpaceOnUse"><stop stop-color="#0C5453"/><stop offset=".19" stop-color="#06B1B0"/><stop offset=".62" stop-color="#06FDFF"/><stop offset="1" stop-color="#05D3FD"/></linearGradient><linearGradient id="acfvjynwtz" x1="7.74" y1="5.36" x2="8.6" y2="8.98" gradientUnits="userSpaceOnUse"><stop stop-color="#27CCF4"/><stop offset=".14" stop-color="#769F75"/><stop offset=".72" stop-color="#769F75"/><stop offset=".81" stop-color="#B79E5A"/></linearGradient><linearGradient id="adfvjynwtz" x1="6.49" y1="4.57" x2="6.6" y2="4.23" gradientUnits="userSpaceOnUse"><stop stop-color="#A6EDCB"/><stop offset=".21" stop-color="#ACEE90"/><stop offset=".51" stop-color="#EB848A"/><stop offset="1" stop-color="#E9F143"/></linearGradient><linearGradient id="aefvjynwtz" x1="6.83" y1="6.45" x2="6.83" y2="7.76" gradientUnits="userSpaceOnUse"><stop offset=".52" stop-color="#07DCEC"/><stop offset="1" stop-color="#0BEBB2"/></linearGradient><linearGradient id="affvjynwtz" x1="6.05" y1="6.05" x2="7.08" y2="6.45" gradientUnits="userSpaceOnUse"><stop stop-color="#2A3E39"/><stop offset=".42" stop-color="#501259"/><stop offset=".9" stop-color="#1250DA"/><stop offset="1" stop-color="#07E0FB"/></linearGradient><linearGradient id="agfvjynwtz" x1="5.54" y1="5.3" x2="5.54" y2="5.42" gradientUnits="userSpaceOnUse"><stop stop-color="#F7E8FB"/><stop offset="1" stop-color="#EF0BF6"/></linearGradient><linearGradient id="ahfvjynwtz" x1="6.32" y1="4.74" x2="6.77" y2="5.08" gradientUnits="userSpaceOnUse"><stop stop-color="#60EFF9"/><stop offset="1" stop-color="#08CAB4"/></linearGradient><linearGradient id="aifvjynwtz" x1="5.25" y1="4.88" x2="5.81" y2="4.35" gradientUnits="userSpaceOnUse"><stop stop-color="#9BEBF2"/><stop offset="1" stop-color="#DED2F5"/></linearGradient><linearGradient id="ajfvjynwtz" x1="5.48" y1="6.19" x2="5.34" y2="6.91" gradientUnits="userSpaceOnUse"><stop stop-color="#06FDFF"/><stop offset=".41" stop-color="#F2F16C"/><stop offset=".66" stop-color="#EF0BF6"/><stop offset="1" stop-color="#1209FB"/></linearGradient><linearGradient id="akfvjynwtz" x1="4.48" y1="11.76" x2="5.52" y2="11.44" gradientUnits="userSpaceOnUse"><stop stop-color="#F3A9F5"/><stop offset="1" stop-color="#4CE8D9"/></linearGradient><linearGradient id="alfvjynwtz" x1="3.41" y1="11.34" x2="4.3" y2="11.17" gradientUnits="userSpaceOnUse"><stop stop-color="#05D3FD"/><stop offset="1" stop-color="#9CEAF2"/></linearGradient><linearGradient id="amfvjynwtz" x1="3.78" y1="11.73" x2="4.27" y2="12.25" gradientUnits="userSpaceOnUse"><stop stop-color="#CC1BEE"/><stop offset="1" stop-color="#F319CA"/></linearGradient><linearGradient id="anfvjynwtz" x1="3.16" y1="11.68" x2="4.84" y2="11.66" gradientUnits="userSpaceOnUse"><stop offset=".09" stop-color="#05E9EE"/><stop offset=".28" stop-color="#081EFB"/><stop offset="1" stop-color="#A536EC"/></linearGradient><linearGradient id="aofvjynwtz" x1="3.06" y1="10.52" x2="3.06" y2="12.01" gradientUnits="userSpaceOnUse"><stop offset=".19" stop-color="#fff"/><stop offset=".44" stop-color="#AFCEF4"/></linearGradient><linearGradient id="apfvjynwtz" x1="2.96" y1="11.9" x2="3.24" y2="12.39" gradientUnits="userSpaceOnUse"><stop stop-color="#EED648"/><stop offset="1" stop-color="#8FEDDE"/></linearGradient><linearGradient id="aqfvjynwtz" x1="3.74" y1="10.82" x2="5.56" y2="11.01" gradientUnits="userSpaceOnUse"><stop stop-color="#A5E1F5"/><stop offset="1" stop-color="#ABBFF3"/></linearGradient><linearGradient id="arfvjynwtz" x1="3.73" y1="10.39" x2="4.59" y2="9.91" gradientUnits="userSpaceOnUse"><stop stop-color="#BCCAF4"/><stop offset=".52" stop-color="#A7EEE0"/><stop offset="1" stop-color="#F5E607"/></linearGradient><linearGradient id="asfvjynwtz" x1="5.58" y1="8.31" x2="6.32" y2="8.56" gradientUnits="userSpaceOnUse"><stop offset=".57" stop-color="#D5E3F9"/><stop offset="1" stop-color="#0C1A62"/></linearGradient><linearGradient id="atfvjynwtz" x1="5.58" y1="6.87" x2="5.95" y2="6.59" gradientUnits="userSpaceOnUse"><stop stop-color="#5709FE"/><stop offset="1" stop-color="#F218CF"/></linearGradient><linearGradient id="aufvjynwtz" x1="3.82" y1="9.42" x2="4.32" y2="9.18" gradientUnits="userSpaceOnUse"><stop stop-color="#C4F3FD"/><stop offset="1" stop-color="#05EFFA"/></linearGradient><linearGradient id="avfvjynwtz" x1="3.34" y1="8.41" x2="5.03" y2="9.43" gradientUnits="userSpaceOnUse"><stop stop-color="#391AFD"/><stop offset=".22" stop-color="#6D110F"/><stop offset=".29" stop-color="#724211"/><stop offset=".34" stop-color="#89E489"/><stop offset=".39" stop-color="#081EFB"/><stop offset=".43" stop-color="#F319CA"/><stop offset=".48" stop-color="#F5E607"/><stop offset=".53" stop-color="#EAF109"/><stop offset=".61" stop-color="#15E85A"/><stop offset=".7" stop-color="#1DB880" stop-opacity=".77"/><stop offset="1" stop-color="#391AFD" stop-opacity="0"/></linearGradient><linearGradient id="awfvjynwtz" x1="5.21" y1="4.5" x2="6.77" y2="4.16" gradientUnits="userSpaceOnUse"><stop stop-color="#3708FC"/><stop offset=".41" stop-color="#CF4DF0"/><stop offset=".64" stop-color="#E9F143"/><stop offset="1" stop-color="#0BEBB2"/></linearGradient><linearGradient id="axfvjynwtz" x1="5.08" y1="5.13" x2="6.09" y2="5.1" gradientUnits="userSpaceOnUse"><stop stop-color="#F340F7"/><stop offset="1" stop-color="#F4D6F6"/></linearGradient><linearGradient id="ayfvjynwtz" x1="4.73" y1="5" x2="6.57" y2="5.49" gradientUnits="userSpaceOnUse"><stop stop-color="#05EFFA"/><stop offset=".91" stop-color="#96C1F2"/><stop offset="1" stop-color="#3C0EAE"/></linearGradient><linearGradient id="azfvjynwtz" x1="7.4" y1="4.78" x2="7.11" y2="4.71" gradientUnits="userSpaceOnUse"><stop stop-color="#5EEA59"/><stop offset=".47" stop-color="#99EC1D"/><stop offset="1" stop-color="#31D2D2"/></linearGradient><linearGradient id="bafvjynwtz" x1="7.19" y1="5.03" x2="7.13" y2="5.23" gradientUnits="userSpaceOnUse"><stop stop-color="#BFCFAE"/><stop offset="1" stop-color="#C47376"/></linearGradient><linearGradient id="bbfvjynwtz" x1="7.29" y1="5.92" x2="7.66" y2="5.2" gradientUnits="userSpaceOnUse"><stop stop-color="#E9F143"/><stop offset=".3" stop-color="#C3ACF1"/><stop offset="1" stop-color="#09B8FB"/></linearGradient><linearGradient id="bcfvjynwtz" x1="7.55" y1="5.32" x2="8.42" y2="8.53" gradientUnits="userSpaceOnUse"><stop stop-color="#7BF1F9"/><stop offset=".07" stop-color="#7BF1F9"/><stop offset=".13" stop-color="#8FA0B1"/><stop offset=".18" stop-color="#576968"/><stop offset=".86" stop-color="#C5DEFC"/><stop offset=".91" stop-color="#D6E7FC"/></linearGradient><linearGradient id="bdfvjynwtz" x1="7.14" y1="6.53" x2="8.16" y2="7.59" gradientUnits="userSpaceOnUse"><stop stop-color="#1F08FB"/><stop offset=".44" stop-color="#360C89"/><stop offset="1" stop-color="#0F0EFC"/></linearGradient><linearGradient id="befvjynwtz" x1="6.94" y1="8.44" x2="6.61" y2="8.54" gradientUnits="userSpaceOnUse"><stop offset=".18" stop-color="#87384E"/><stop offset=".48" stop-color="#0C138B"/><stop offset=".71" stop-color="#187874"/></linearGradient><linearGradient id="bffvjynwtz" x1="6.94" y1="8.44" x2="7.84" y2="12.03" gradientUnits="userSpaceOnUse"><stop offset=".18" stop-color="#87384E" stop-opacity="0"/><stop offset=".71" stop-color="#E853CB"/></linearGradient><linearGradient id="bgfvjynwtz" x1="8.33" y1="10.35" x2="8.92" y2="10.86" gradientUnits="userSpaceOnUse"><stop stop-color="#F6D009"/><stop offset=".63" stop-color="#60EFF9"/></linearGradient><linearGradient id="bhfvjynwtz" x1="8.8" y1="9.38" x2="11.52" y2="10.27" gradientUnits="userSpaceOnUse"><stop/><stop offset=".1" stop-color="#96C1F2"/><stop offset=".35" stop-color="#9ADBF7"/><stop offset=".65" stop-color="#96C1F2"/><stop offset="1" stop-color="#8DCFF4"/></linearGradient><linearGradient id="bifvjynwtz" x1="9.74" y1="10.68" x2="9.74" y2="12.29" gradientUnits="userSpaceOnUse"><stop stop-color="#CBECE9"/><stop offset=".73" stop-color="#B5E9EE"/><stop offset="1" stop-color="#F2F590"/></linearGradient><linearGradient id="bjfvjynwtz" x1="9.92" y1="9.59" x2="9.53" y2="9.74" gradientUnits="userSpaceOnUse"><stop stop-color="#D45218"/><stop offset=".43" stop-color="#F5E607"/><stop offset=".63" stop-color="#EAF109"/><stop offset=".77" stop-color="#D2F512"/><stop offset="1" stop-color="#ACEE90"/></linearGradient><linearGradient id="bkfvjynwtz" x1="9.62" y1="7.25" x2="10.66" y2="7.84" gradientUnits="userSpaceOnUse"><stop stop-color="#07DCEC"/><stop offset=".19" stop-color="#07DCEC"/><stop offset=".64" stop-color="#05EBFA"/><stop offset="1" stop-color="#097BFC"/></linearGradient><linearGradient id="blfvjynwtz" x1="11.35" y1="7.41" x2="11.03" y2="8.63" gradientUnits="userSpaceOnUse"><stop stop-color="#BAEC0E"/><stop offset=".99" stop-color="#10E71B"/></linearGradient><linearGradient id="bmfvjynwtz" x1="10.11" y1="5.52" x2="11.77" y2="5.78" gradientUnits="userSpaceOnUse"><stop stop-color="#05EFFA"/><stop offset="1" stop-color="#4A4DA8"/></linearGradient><linearGradient id="bnfvjynwtz" x1="10.78" y1="5.48" x2="11.67" y2="5.75" gradientUnits="userSpaceOnUse"><stop offset=".64" stop-color="#EF0BF6"/><stop offset="1" stop-color="#C01309"/></linearGradient><linearGradient id="bofvjynwtz" x1="11.51" y1="6.06" x2="11.99" y2="6.65" gradientUnits="userSpaceOnUse"><stop stop-color="#2A3E39"/><stop offset="1" stop-color="#3C0EAE"/></linearGradient><linearGradient id="bpfvjynwtz" x1="12.4" y1="5.97" x2="13.01" y2="7.86" gradientUnits="userSpaceOnUse"><stop stop-color="#576968"/><stop offset="1" stop-color="#C5DEFC"/></linearGradient><linearGradient id="bqfvjynwtz" x1="13.25" y1="7.25" x2="14.26" y2="9.62" gradientUnits="userSpaceOnUse"><stop stop-color="#EB9E47"/><stop offset=".73" stop-color="#F5260E"/><stop offset=".88" stop-color="#F5260E"/><stop offset="1" stop-color="#F319CA"/></linearGradient><linearGradient id="brfvjynwtz" x1="11.64" y1="8.9" x2="11.91" y2="8.85" gradientUnits="userSpaceOnUse"><stop stop-color="#123A11"/><stop offset=".22" stop-color="#12123B"/><stop offset=".51" stop-color="#87384E"/><stop offset="1" stop-color="#147C1E"/></linearGradient><linearGradient id="bsfvjynwtz" x1="12.12" y1="10.56" x2="12.36" y2="10.52" gradientUnits="userSpaceOnUse"><stop stop-color="#400FD1"/><stop offset=".41" stop-color="#C8A28C"/><stop offset="1" stop-color="#D225E7"/></linearGradient><linearGradient id="btfvjynwtz" x1="13.13" y1="11.37" x2="13.76" y2="11.24" gradientUnits="userSpaceOnUse"><stop stop-color="#99D7B4"/><stop offset="1" stop-color="#64A5D8"/></linearGradient></defs></svg>