<!-- by TradingView --><svg width="18" height="18" viewBox="0 0 18 18" xmlns="http://www.w3.org/2000/svg"><path fill="#F0F3FA" d="M0 0h18v18H0z"/><path d="M11.86 7.4A53.08 53.08 0 0 0 9.04 3a.09.09 0 0 0-.1.03c-.38.45-2.3 3.4-2.8 4.38-1.67 3.2-1.5 6.14.45 7.48l.18.1h.09a.09.09 0 0 0 .03-.1.09.09 0 0 0-.02-.04c-.97-1.03-.7-3.19.71-5.8.25-.45.54-.9.83-1.35l.6-.95c.17.3.37.62.59.95.28.44.57.9.82 1.36 1.41 2.6 1.68 4.76.71 5.8a.09.09 0 0 0 0 .1c0 .02.02.03.04.03h.06l.18-.1c1.94-1.34 2.12-4.27.45-7.48Z" fill="#B5121B"/><path d="M10.72 11.1a38.27 38.27 0 0 0-1.07-2.4.08.08 0 0 0-.08 0A13.51 13.51 0 0 0 9 9.9a13.09 13.09 0 0 0-.57-1.2.09.09 0 0 0-.1.02 40.2 40.2 0 0 0-1.05 2.38c-.66 1.64-.58 3.14.2 3.83a.5.5 0 0 0 .07.06.09.09 0 0 0 .08 0l.03-.02a.09.09 0 0 0 0-.1c-.31-.44-.21-2.3.71-3.68l.55 1.53.03.03a.09.09 0 0 0 .13-.03l.55-1.53c.92 1.39 1.02 3.24.7 3.67a.09.09 0 0 0 .06.14l.05-.01a.5.5 0 0 0 .09-.06c.77-.69.85-2.19.18-3.83Z" fill="#003E7E"/></svg>