<!-- by TradingView --><svg width="18" height="18" xmlns="http://www.w3.org/2000/svg"><path fill="url(#paint0_linear)" d="M0 0h18v18H0z"/><path d="M9.332 14.498c0 .073.028.411-.064.48-.024.169-.144.25-.204.403-.004.02-.008.036-.008.06l-.02.012c-.012-.004-.024-.008-.036-.008-.008-.036-.012-.072-.02-.109.008-.149.064-.274.084-.419v-.12a.078.078 0 01.036-.009v-.004c0-.109.004-.213.008-.318v-.036c-.012-.004-.024-.008-.036-.008-.028-.105-.064-.21-.064-.319l-.032-.02c-.008-.085-.072-.129-.128-.185-.02-.06-.036-.121-.056-.178.036-.056.08-.112.12-.169.028-.14-.048-.322-.056-.483a6.418 6.418 0 00-.036-.137c.028-.065.068-.121.068-.194a.066.066 0 00-.02-.008c-.06-.153.088-.362-.056-.475a2.068 2.068 0 01-.024-.609c0-.048 0-.048.016-.068.048-.222-.208-.335-.196-.564.048-.101.096-.202.148-.303.008-.14.012-.165.112-.254.008-.088.02-.177.036-.265v-.049h.028c.004-.092-.004-.213.036-.298.044-.093.18-.347.08-.447-.036-.15-.08-.27-.092-.423-.124-.093-.092-.133-.072-.295-.028-.245.064-.495.08-.741-.044-.068-.136-.125-.164-.193 0-.06 0-.121.004-.182.02-.145.008-.286.032-.423a.753.753 0 00-.064-.181c0-.077 0-.15.004-.222.032-.149.108-.242.036-.395-.176-.108-.196-.133-.212-.338h.072c.048-.097.012-.383.012-.468-.036-.016-.06-.036-.064-.068.02-.008.044-.008.064-.012 0-.02.004-.036.008-.053-.136-.12-.216-.342-.42-.342a.146.146 0 00-.008.044c-.028-.008-.056-.02-.084-.028-.02-.004-.036-.008-.056-.008-.092-.02-.176-.056-.268-.048-.012.012-.012.012-.036.012-.032.008-.064.012-.091.02-.048.016-.08.02-.108.064a.37.37 0 00.02.11c.028.068.028.068.04.136-.024.02-.048.036-.076.057-.028.112.016.205.028.31-.152.088-.252.088-.348.25-.052.197-.032.403-.048.608.04 0 .084.004.128.008.036.036.036.06.04.113-.024.048-.024.048-.044.161-.036.053-.068.109-.104.165l-.036.049c-.064.08-.052.225-.068.326.008.012.012.024.02.04.168.077.016.351.06.484.064.093.064.093.088.15.02.172.092.33.164.495.048.072.164.185.144.282a.248.248 0 00-.02.048c-.02.028-.036.06-.056.093-.016.036-.016.036-.044.064-.04.077-.04.077-.076.194-.036.064-.08.125-.092.201.132.109.108.161.076.319-.016.149-.064.225.048.326.028.012.056.028.064.056h.012c.008.06-.004.218-.036.25-.008.02-.016.036-.02.057a1.864 1.864 0 00-.04.14c-.036.15-.092.31-.12.452-.032.117-.032.117-.056.157-.02.177-.08.37.012.54.02.133.064.254.072.383-.02.06-.044.12-.064.181.004.08.008.165.008.25-.064.17-.076.165-.008.339 0 .185-.024.366-.048.552.02.225.02.225.056.495 0 .109.04.182.088.282a.594.594 0 01-.064.218c0 .044.024.068.012.109-.136-.045-.056-.258-.064-.35-.024-.053-.08-.118-.088-.142-.02-.024-.036-.048-.056-.076-.008-.02-.02-.037-.024-.049-.084-.463-.152-.935-.252-1.398-.132-.194-.14-.274-.036-.447-.004-.025-.004-.049-.004-.069-.028 0-.124-.19-.124-.193.012-.11.068-.27.02-.375-.108-.085-.164-.12-.208-.246.1-.137.18-.334.272-.492a.99.99 0 01.032-.116c-.012-.238-.032-.48-.036-.718-.052-.032-.096-.064-.144-.092a4.27 4.27 0 00.064-.718v-.012c-.08-.31-.184-.624-.256-.93-.056 0-.168-.327-.22-.383.036-.15.036-.15.072-.238.032-.278.108-.524.188-.782v-.056c-.072-.15.064-.35-.048-.468-.008-.052-.012-.108-.016-.157l-.064-.064c-.08-.045-.172-.085-.188-.182.028-.052.08-.108.08-.169-.04 0-.108-.157-.108-.21-.064-.036-.064-.036-.108-.072-.224-.088-.5-.137-.736-.181-.08 0-.288-.036-.348.028-.056.016-.084.02-.112.028 0-.056.116-.109.156-.137l.084-.036c0-.008 0-.008.004-.012a.729.729 0 00.348-.085l.14-.036c.064-.157.344-.085.48-.08.124-.009.212-.073.328-.121 0-.029.024-.029.048-.037.008-.008.012-.008.02-.012.04-.036.084-.044.136-.048.048-.069.064-.13.148-.145.06.109.08.149.176.221.084.029.084.029.096.04.384.025.384.025.432.037.064.076.108.145.196.076.008-.008.012-.008.02-.012a.087.087 0 01.032-.02c.024-.016.048-.032.075-.044.048-.012.092-.032.148-.036l.012-.049h.044V4.67c.024-.012.048-.024.076-.036.036-.093.22-.02.28-.02.032-.004.064-.008.1-.008a.118.118 0 01.04-.008c.036-.049.048-.09.108-.101.036-.073.312-.093.404-.105.02-.012.044-.02.068-.032.012-.012.012-.012.036-.012.008-.008.012-.008.02-.012a.08.08 0 01.036-.008c.036-.017.076-.029.112-.04.016-.07.064-.09.12-.11.02 0 .04.005.064.009.008.016.012.032.02.048.064.137.216.145.344.21.092.08.16.136.268.189.092.036.1.08.048.169v.065c.108.056.22.044.32.108 0 .016.004.037.008.053a.49.49 0 01-.176.064c-.1.04-.136.141-.232.182-.008.06-.012.12-.016.185-.06.06-.12.12-.176.181-.008.1-.012.13-.096.194a.546.546 0 00.032.185c.028.133.036.165-.02.294 0 .109.08.194.148.278 0 .133-.072.254-.072.387.028.093.056.181.088.274.004.06.016.073.016.129l.012.028v.036c.024.206.012.19-.132.335a.543.543 0 00-.048.097.17.17 0 01.036.116v.077c-.036.153-.036.153-.08.258-.008.02-.008.04-.012.064.016.097.016.097.052.186.02.31.228.568.176.89-.012.033-.02.065-.032.097a.082.082 0 01-.024.008c-.064.085-.064.085-.132.153-.032.06-.06.121-.088.182-.008.136-.02.149-.028.225-.096.141-.132.31-.22.46-.004.032-.008.064-.008.1-.012.08-.056.198.036.242.004.008.008.02.008.032.004.037.004.037-.02.11-.02.035-.02.035-.02.108 0 .056-.008.064.02.113a.056.056 0 01.012.016v.105c-.052.145-.02.33 0 .483 0 .1-.012.121-.092.194-.008.06-.008.06 0 .12.016.045.016.045.02.194-.008.056-.008.113-.012.17a1.638 1.638 0 01-.032.249c-.008.036-.02.072-.028.109 0 .04.024.048.056.068 0 .008 0 .02.004.029l.012.112c.136.218.26.294.096.516-.008.028-.008.028-.008.113 0 .109.004.181-.036.282-.036.036-.016.254-.016.31a.08.08 0 01-.024.008c-.008.004-.012.008-.02.008.004.04-.004.077-.008.113zm1.88-9.74a.118.118 0 00.007-.036c.104-.024.104-.024.164-.028.06-.044.12-.084.18-.125.024-.024.024-.024.052-.028.028-.089.056.028.064.053.012.016.024.032.036.052.044.016.044.016.352.064.048.065.092.125.14.194.196.064.092.137.076.302l.148.036c.032.089.04.157.048.25-.068.109-.068.109-.072.137.12.093.176.121.08.266-.02.028-.036.056-.052.085-.036.08-.036.08-.06.096v.085c-.004.036-.004.08-.004.12-.08.057-.148.098-.164.198v.069a.26.26 0 00-.036.032.228.228 0 00-.016.048c-.008.02-.012.049-.02.073a.233.233 0 00-.044.109c.008.028.012.056.02.084-.044.117-.136.214-.188.327.008.125.02.137.04.294h-.028c.008.093.04.214-.008.294-.012.02-.02.044-.032.065v.036c.02.012.048.028.072.044.08.044.148.093.084.19-.032.193-.032.193-.056.266l-.056.153c-.008.056-.008.116-.012.177.012.044.024.056.024.08.056.15.16.266.236.408a.626.626 0 01.056.237c-.012.02-.024.045-.036.069-.016.032-.016.044-.008.08.016.02.016.02.036.093-.112.29-.112.29-.236.56-.016.053-.072.15-.04.198.02.016.02.016.052.064-.056.056-.008.125.02.177a.2.2 0 01.056.093c.008.052.012.109.02.165-.032.093-.1.19-.124.282h-.02c-.016.037-.032.069-.044.11v.007c0 .049.024.13.012.165.104.105.084.25.084.395a5.109 5.109 0 01-.076.137v.004l.012.02a.247.247 0 00-.02.049c.02.02.02.02.02.044-.008.004-.012.008-.02.008.02.037.024.069.028.113h-.02v.02l.012.25c.008.048.02.097.032.15.008.04-.004.076-.02.116-.036.052-.076.109-.112.165-.06.157-.136.302-.204.443-.024.049-.048.101-.076.154.008.14.008.14.036.29-.032.048-.06.092-.088.145-.012 0-.024.004-.036.008-.048-.395-.048-.395-.064-.44v-.008c-.008-.003-.008-.007-.012-.007.008-.15.02-.303.028-.452.044-.044.036-.177.036-.234a1.59 1.59 0 01-.148-.491c.172-.065.164-.218.176-.375.08-.165-.08-.274-.064-.44.048-.08.096-.164.148-.24.004-.118.008-.235.008-.351.024-.025.012-.121.012-.162.008-.008.012-.008.02-.012-.036-.19-.056-.508.052-.669 0-.044-.032-.072-.056-.108-.008-.105-.008-.206-.012-.307-.068-.137-.172-.302-.128-.467-.016-.173.06-.367.084-.54-.088-.065-.12-.181-.164-.274-.088-.109-.088-.109-.092-.133-.004-.121-.08-.21-.052-.322a.081.081 0 01.036-.025c0-.076 0-.149.004-.221.032-.101.06-.15.012-.25-.02 0-.072-.085-.084-.1-.02-.017-.088-.102-.036-.114.036-.04.336-.314.232-.382-.076-.057-.076-.11-.04-.194.036-.113.052-.173.016-.294 0-.048.04-.262.02-.294 0-.073-.008-.1.02-.165.028-.045.028-.045.032-.077-.008-.008-.02-.008-.024-.012-.044-.024-.064-.036-.072-.08-.008-.017-.008-.029-.012-.04-.016-.005-.028-.009-.04-.009-.004-.016-.008-.032-.008-.048-.12-.037-.22-.08-.335-.121-.009.004-.02.008-.025.012-.112.076-.311.044-.395-.065-.064-.076-.148-.044-.224-.044-.068 0-.14.008-.208-.012.008-.024.1-.1.244-.258a.766.766 0 01.272-.036c.08-.016.16-.093.231-.13.204 0 .284-.08.34-.29z" fill="#0F0"/><defs><linearGradient id="paint0_linear" x1="3.349" y1="3.122" x2="21.904" y2="24.434" gradientUnits="userSpaceOnUse"><stop stop-color="#1A1E21"/><stop offset="1" stop-color="#06060A"/></linearGradient></defs></svg>