<!-- by TradingView --><svg width="18" height="18" viewBox="0 0 18 18" xmlns="http://www.w3.org/2000/svg"><path fill="#F0F3FA" d="M0 0h18v18H0z"/><path d="M9 3 6.58 7.44l4.89-.17L8.99 3Z" fill="#684C96"/><path fill-rule="evenodd" d="M6.35 7.5h5.43L9 3 6.35 7.5Zm.91-.5h3.6L8.99 3.84 7.26 7Z"/><path d="M8 13H3l3.12-4.44H8V13Z" fill="#BD0100"/><path d="M8.5 13H3l2.91-4.5H8.5V13ZM8 9H6.11l-2.18 3.5H8V9Z"/><path d="M10.5 13h4.26l-2.88-4.44H10.5V13Z" fill="#BD0100"/><path d="M10 13h5l-2.82-4.5H10V13Zm.5-4h1.48l2.2 3.5H10.5V9Z"/></svg>