<!-- by TradingView --><svg width="18" height="18" viewBox="0 0 18 18" xmlns="http://www.w3.org/2000/svg"><path fill="url(#a5miu351k)" d="M0 0h18v18H0z"/><path d="M9 4 4 5.45l5 3.02 5-3.02L9 4Z" fill="#39A77A"/><path d="M6.58 7.52 4 8.44l5 3.02 5-3.02-2.6-.92c-.17.12-.72.46-1.25.78L9.02 9c0 .02-.24-.14-.6-.36-.51-.32-1.27-.8-1.84-1.12Z" fill="#3CB0B0"/><path d="m10.97 7.28-1.95-.8-2.08.75 2.05 1.24 1.98-1.2Z" fill="#289369"/><path d="M6.35 10.4 4 11.4 9 15l5-3.6-2.32-.98-1.28.78c-.7.42-1.36.83-1.36.85a73.67 73.67 0 0 0-2.69-1.64Z" fill="url(#b5miu351k)"/><path d="m11.1 10.18-2.07-.84-2.23.8L9 11.45l2.1-1.28Z" fill="#2B8F8D"/><defs><linearGradient id="a5miu351k" x1="9" y1="0" x2="9" y2="18" gradientUnits="userSpaceOnUse"><stop stop-color="#0B5862"/><stop offset="1" stop-color="#0E666A"/></linearGradient><linearGradient id="b5miu351k" x1="9" y1="10.4" x2="9" y2="15" gradientUnits="userSpaceOnUse"><stop stop-color="#30A7DF"/><stop offset="1" stop-color="#3C9CD0"/></linearGradient></defs></svg>