<!-- by TradingView --><svg width="18" height="18" viewBox="0 0 18 18" xmlns="http://www.w3.org/2000/svg"><path d="M0 9a9 9 0 1 1 18 0A9 9 0 1 1 0 9Z" fill="#F0F3FA"/><path fill-rule="evenodd" d="M5 5v9h8V5h-2.46V3.5L10.2 3H7.85l-.39.52V5H5Zm3-1.5h2V5H8V3.5Zm2.42 4.87a.4.4 0 0 1-.1.27.35.35 0 0 1-.26.11.35.35 0 0 1-.25-.11.39.39 0 0 1-.1-.27c0-.1.04-.19.1-.26a.35.35 0 0 1 .39-.08c.04.02.08.04.12.08a.38.38 0 0 1 .1.26ZM7.43 9.5c0-.91.38-1.5 1.04-1.5s1.05.63 1.04 1.5c-.01.9-.47 1.5-1.04 1.5-.57 0-1.04-.56-1.04-1.5Zm1.4-.78c-.1-.2-.22-.32-.36-.32-.14 0-.27.11-.37.32-.1.2-.15.49-.15.78 0 .3.06.57.15.78.1.2.23.32.37.32.14 0 .27-.11.37-.32.1-.2.15-.49.15-.78 0-.3-.06-.57-.15-.78ZM6.22 11c.45 0 1.02-.21 1.02-.85 0-.53-.37-.72-.72-.9-.12-.06-.23-.12-.33-.19-.13-.1-.3-.32-.13-.49.06-.05.15-.09.26-.1h.36l.1.01.27.06.05-.47a2.35 2.35 0 0 0-.7-.07c-.43 0-.93.2-.93.82 0 .28.11.48.28.63.12.12.27.2.42.26.1.06.21.11.31.18.08.06.2.16.2.23 0 .28-.15.41-.4.41-.1 0-.2 0-.3-.02l-.12-.02a1.3 1.3 0 0 1-.33-.1l-.07.5c.23.11.46.11.76.11Zm6.34-3H11v.56h1.55V8Zm-1.46 3c-.71 0-1.38-.57-1.38-1.5h.53c0 .6.41.94.85.94.53 0 .93-.4.93-.94h.53c0 .88-.67 1.5-1.46 1.5Z" fill="#E33022"/></svg>