<!-- by TradingView --><svg width="18" height="18" viewBox="0 0 18 18" xmlns="http://www.w3.org/2000/svg"><path fill="#F0F3FA" d="M0 0h18v18H0z"/><path d="M12.48 6.36c.8 1.13 1.62 2.24 2.37 3.4.12.19.15.43.15.63 0 .87-.75 1.53-1.62 1.53-1 0-1.38-.74-1.84-1.41l.66-.95c.3.36.56.82.93 1.2.26.28.75-.05.75-.37 0-.22-.77-1.18-.79-1.22l-.61-.86h-.07c-.5.72-1.04 1.43-1.52 2.16-.63.95-1 1.53-1.89 1.53-.43 0-.9-.17-1.18-.5a9.65 9.65 0 0 1-.68-1c0-.04.62-.92.65-.92.08 0 .72 1.06 1 1.3.1.09.35.09.43-.02.38-.42.65-.88.97-1.33.75-1.05 1.49-2.1 2.22-3.17h.07Zm-1.62 1.27a9.5 9.5 0 0 1-.67.95L9 6.94c-.48.56-.85 1.16-1.28 1.77-.46.64-.92 1.33-1.4 1.99-.46.6-.84 1.22-1.72 1.22-.72 0-1.6-.56-1.6-1.33 0-.93.61-1.56 1.14-2.3l1.37-1.93.05-.01.9 1.28-.66.95c-.09-.08-.26-.29-.26-.29L4.41 9.85c-.15.24-.29.32-.29.54 0 .26.24.47.48.47.3 0 .46-.34.67-.6l.36-.5.76-1.1 2.54-3.61A.24.24 0 0 1 9.02 5l1.84 2.63Z" fill="#5BA971"/></svg>