<!-- by TradingView --><svg xmlns="http://www.w3.org/2000/svg" width="18" height="18" viewBox="0 0 18 18"><path fill="#F0F3FA" d="M0 0h18v18H0z"/><path d="M6 6.83c.03.2.1.68.2 1 .14.41.24 1.33.26 1.59.02.2.2 1.05.28 1.45.15.15.52.44.81.44.3 0 .46-.46.51-.68.06-.2.2-.66.33-.82.16-.2.37-1.23.43-2.02.14.35.33 1.9 0 5.27.3.36.97.86 1.22 0 .07-.38.24-1.15.27-1.27.04-.15.29-1.16.27-1.8.14-.82.38-2.94.17-4.79.34.6.86 3 .16 7.86-.08.67-.08 2 .57 1.94.16.03.5-.1.53-.83.04-.74.18-1.8.25-2.23.15-1.1.4-3.64.1-4.89-.35-1.56-.98-4.04-2.2-4.05-.1.03-.2.26.07.97.35.89.46 1.98-.14 4.7-.22-1.5-.96-4.42-2.12-4.18-.12.02-.3.2-.1.71.24.65.05 2.42-.32 3.36-.1-.68-.48-2.05-1.27-2.02-.1 0-.3.08-.28.29Zm-.9 3.43a1.1 1.1 0 1 0 0-2.2 1.1 1.1 0 0 0 0 2.2Z" fill="#054F7D"/></svg>