<!-- by TradingView --><svg width="18" height="18" viewBox="0 0 18 18" xmlns="http://www.w3.org/2000/svg"><path fill="#F0F3FA" d="M0 0h18v18H0z"/><path d="M4 4h10v.47A9.95 9.95 0 0 0 9.58 6.4c.27.2.53.43.79.66A8.95 8.95 0 0 1 14 5.49v.68a8.3 8.3 0 0 0-3.14 1.36c.24.23.47.48.69.74A7.3 7.3 0 0 1 14 7.19v.69c-.73.19-1.42.5-2.03.9l.6.81c.43-.29.92-.52 1.43-.67v.7c-.38.13-.74.31-1.08.53.18.3.35.58.5.88.18-.13.38-.24.58-.33v.75c-.1.05-.2.12-.29.18l.29.7V14h-.78A9.84 9.84 0 0 0 4 5.68V4Zm0 2.01A9.5 9.5 0 0 1 12.88 14h-1.35A8.17 8.17 0 0 0 4 7.35V6Zm0 1.67A7.84 7.84 0 0 1 11.19 14H9.83A6.5 6.5 0 0 0 4 9.02V7.68Zm0 1.66A6.19 6.19 0 0 1 9.5 14H8.1A4.84 4.84 0 0 0 4 10.7V9.33Zm0 1.69A4.5 4.5 0 0 1 7.74 14H6.3A3.17 3.17 0 0 0 4 12.37v-1.34Zm0 1.68c.8.14 1.49.62 1.9 1.29H4v-1.29Z" fill="#005941"/></svg>