<!-- by TradingView --><svg width="18" height="18" viewBox="0 0 18 18" xmlns="http://www.w3.org/2000/svg"><path fill="#F0F3FA" d="M0 0h18v18H0z"/><path d="M7.84 5.73A4.35 4.35 0 0 0 4 9c.15-.51 1.53-1.63 3.84-1.73A4.48 4.48 0 0 0 12 4c-.33.48-1.62 1.49-4.16 1.73Zm1 2.5A4.35 4.35 0 0 0 5 11.5c.15-.51 1.53-1.63 3.84-1.73A4.48 4.48 0 0 0 13 6.5c-.33.48-1.62 1.49-4.16 1.73Zm1 2.5A4.35 4.35 0 0 0 6 14c.15-.51 1.53-1.63 3.84-1.73A4.48 4.48 0 0 0 14 9c-.33.48-1.62 1.49-4.16 1.73Z" fill="#223343"/></svg>