<!-- by TradingView --><svg xmlns="http://www.w3.org/2000/svg" width="18" height="18" viewBox="0 0 18 18"><path fill="#F0F3FA" d="M0 0h18v18H0z"/><path d="m9 12.18 4.59-1.77-4.59.87-4.59-.87L9 12.18ZM9.01 10.4l.03.01 1.58-3.17.4 2.69c0 .2-.05.34-.27.4h-.03v.08h1.46v-.07h-.02c-.27-.16-.3-.3-.35-.57l-.47-2.85c0-.06.01-.27.2-.3l.02-.01v-.08h-1.31v.04c0 .11-.05.22-.1.34L8.97 9.23 7.65 6.81l-.02-.04a.45.45 0 0 1-.08-.2v-.04H6.23v.07h.02c.28.13.24.3.21.47v.04l-.42 2.44v.03c-.06.3-.1.56-.39.76h-.01v.07h1.24v-.07h-.02c-.31-.12-.27-.34-.22-.67l.4-2.44 1.32 2.45c.18.34.3.5.65.71Z"/><path fill-rule="evenodd" d="M9 14.5a5.5 5.5 0 1 0 0-11 5.5 5.5 0 0 0 0 11Zm0 .5A6 6 0 1 0 9 3a6 6 0 0 0 0 12Z"/></svg>