<!-- by TradingView --><svg xmlns="http://www.w3.org/2000/svg" width="18" height="18"><path fill="#242B6D" d="M0 0h18v18H0z"/><path d="M7.5 5.35l-.48.42a34.46 34.46 0 00-2.47 2.46l-.36.4c.21-.41.44-.82.69-1.22.15-.24.3-.48.48-.7.17-.23.35-.44.56-.64.1-.1.23-.2.36-.27a.8.8 0 01.46-.07l.52-.45c-.35-.1-.74-.16-1.1-.02-.33.13-.6.4-.8.69A11.41 11.41 0 004.3 8.07c-.1.23-.17.48-.25.72 0 .02 0 .04.02.02a.26.26 0 00.05-.03l.07-.07.18-.15c.1-.09.2-.19.31-.27a34.79 34.79 0 012.94-2.34c.44-.31.9-.59 1.37-.83.24-.12.49-.21.74-.28a1.02 1.02 0 01.76.08c.23.11.44.27.62.45.19.19.37.38.54.58a18.27 18.27 0 011.79 2.72l.1.18a44.28 44.28 0 00-1.2-.86 26.55 26.55 0 00-3.78-2.2L8.4 5.7c-.17.1-.34.22-.5.33.79.3 1.56.65 2.3 1.04.77.38 1.51.78 2.25 1.2l.62.35.3.18.15.09.08.04c0 .01.02.02.03.01a14.28 14.28 0 00-1.55-3.49 3.7 3.7 0 00-1.23-1.26 1.52 1.52 0 00-.88-.2c-.28.04-.55.11-.8.24A7.5 7.5 0 007.5 5.35z" fill="#FC8D1B"/><path d="M6.5 11.33L4.67 9H4v4h.67v-2.9l1.8 2.23h.1l1.76-2.23V13H9V9h-.67L6.5 11.33zM12.44 9H10v4h.67v-1.33h1.77c.96 0 1.56-.5 1.56-1.33C14 9.5 13.4 9 12.44 9zm.1 2h-1.87V9.67h1.87c.2 0 .8.06.8.66 0 .4-.25.67-.8.67z" fill="#fff"/></svg>