<!-- by TradingView --><svg width="18" height="18" viewBox="0 0 18 18" xmlns="http://www.w3.org/2000/svg"><path fill="#F0F3FA" d="M0 0h18v18H0z"/><path d="M10.13 9.75a.55.55 0 0 0-.13.39v4.78c0 .04.03.04.03.04.04 0 .04 0 .04-.04L13 6.1c0-.04-.03-.04-.03-.04h-.04l-2.8 3.7ZM4.35 6.2c-.03 0-.07 0-.07.05v.03l2.93 3.9c.04.03.07.03.1.03h.04l1.24-.46c.03 0 .07-.04.07-.12 0-.04 0-.08-.04-.08L4.35 6.21ZM12.93 5.12c0-.08-.04-.12-.07-.12H4.07c-.03 0-.07.04-.07.08s0 .04.04.08l5.04 3.96c.07.08.18.08.25.08.14 0 .21-.08.32-.15l3.28-3.93ZM8.83 10.25c.1 0 .17.08.17.16v4.55c0 .04-.03.04-.03.04-.04 0-.04 0-.04-.04L7.5 10.88v-.04c0-.04.03-.08.07-.08l1.26-.5Z" fill="#A9CB6B"/></svg>