<!-- by TradingView --><svg width="18" height="18" viewBox="0 0 18 18" xmlns="http://www.w3.org/2000/svg"><path fill="#024780" d="M0 0h18v18H0z"/><path d="M6.48 7C4.7 7 2.75 9.77 2 11c.63-.78 2.13-2.67 3.14-2.77 1-.1.77 1.8.57 2.77.6-.82 2.16-2.46 3.24-2.46 1.07 0 .7 1.64.48 2.46 1.57-1.85 2.66-2.46 3.1-2.46.45 0 .61.15.61.46 0 .3-.16.77-.6.77-.36 0-.6-.2-.68-.3-.07.3.05.91 1.12.91C14.33 10.38 15 8.92 15 8c0-.74-.6-1-.9-1-1.25 0-2.61 1.23-3.13 1.85.3-.62.58-1.85-.68-1.85-1.25 0-2.61 1.23-3.13 1.85C7.69 7.37 6.93 7 6.48 7Z" fill="#F89B10"/></svg>