<!-- by TradingView --><svg width="18" height="18" viewBox="0 0 18 18" xmlns="http://www.w3.org/2000/svg"><path fill="url(#a2vbe4kld)" d="M0 0h18v18H0z"/><path d="M3 12v-.27h.28c.11-.03.33-.18.31-.52V6.74c0-.14-.06-.43-.38-.44H3V6h1.82l1.43 4.9L7.8 6h1.72v.3h-.2a.4.4 0 0 0-.32.44v4.47c.01.17.05.52.4.52h.27V12h-2.3v-.27h.37c.11-.03.27-.18.26-.57V7.21L6.43 12H5.8L4.19 6.87v4.3c0 .16.05.5.27.56h.32V12H3Zm8-1.06c0 .7-.1.83-.74.83V12h2.48v-.23c-.65 0-.74-.13-.74-.83v-1.5h.4c1.14 0 2.6-.19 2.6-1.8C15 6.42 14.05 6 12.87 6h-2.61v.23c.65 0 .74.13.74.83v3.88ZM12.39 9H12V7.06c0-.54.14-.65.63-.65.79 0 1.37.18 1.37 1.24C14 8.87 13.17 9 12.39 9Z" fill="#fff"/><defs><linearGradient id="a2vbe4kld" x1="9" y1="0" x2="9" y2="18" gradientUnits="userSpaceOnUse"><stop stop-color="#4875B6"/><stop offset="1" stop-color="#223A5C"/></linearGradient></defs></svg>