<!-- by TradingView --><svg width="18" height="18" xmlns="http://www.w3.org/2000/svg"><path fill="#F0F3FA" d="M0 0h18v18H0z"/><path d="M4.769 8.17s-.339 1.808-.5 2.786c-.007.039-.018.052-.052.052h-.75c-.03 0-.04-.01-.047-.047-.17-.983-.423-2.792-.423-2.792v2.783c0 .047-.007.06-.048.06-.217-.005-.694 0-.912 0-.03 0-.037-.009-.037-.047.003-1.276.003-2.642.003-3.914 0-.038.01-.047.041-.047.388 0 .988.009 1.376.009.03 0 .047.047.047.047l.41 2.501.363-2.501S4.26 7 4.298 7h1.35c.034 0 .044.009.044.051v3.897c0 .042-.007.055-.041.055h-.838c-.034 0-.041-.013-.041-.055 0-.975-.003-2.779-.003-2.779z" fill="#DA0732"/><path d="M11.352 13h-1.07c.474-.647.938-1.353 1.412-2H9.065c-.064 0-.057-.06-.057-.06V7.069S9.018 7 9.062 7c.27.004.62.004.891 0 .04 0 .047.055.047.055V9.94s.007.06.05.06h1.701l-1.48-1.992c.01-.012.019-.011.026-.011h.992c.008 0 .039.025.046.03l1.84 2.388c.021.03.021.047 0 .072-.595.793-1.242 1.707-1.823 2.513z" fill="#01339F"/><path d="M7.28 7.009h1.193c.213 0 .394.188.427.442a1.3 1.3 0 01.007.114v1.454c0 .232-.083.381-.249.495a.28.28 0 01-.166.04h-1.47c-.036 0-.022.009-.022.057.004.438-.003.906 0 1.344 0 .048-.037.057-.073.057h-.88c-.037 0-.047-.009-.047-.053V8.565c0-.043.01-.055.043-.055h1.913c.083 0 .218-.064.218-.254a.22.22 0 00-.214-.229H6.057C6 8.027 6 8.03 6 7.96v-.903C6 7.013 6.003 7 6.047 7c.408.009.82.009 1.233.009zM11.352 13c.579-.805 1.219-1.724 1.812-2.515.021-.03.021-.047 0-.073A127.392 127.392 0 0011.3 8h.905c.028 0 .05.012.068.042l1.814 2.37c.021.026.025.043 0 .073L12.3 12.959c-.025.034-.047.041-.082.041h-.867zM15.144 8H16s-.774 1.042-.945 1.27c-.022.03-.032.03-.054 0-.132-.18-.403-.54-.403-.54.182-.239.546-.73.546-.73zM14.609 12.329l.413-.562c.025-.038.043.013.043.013s.6.808.892 1.22h-.856s-.328-.45-.492-.671z" fill="#DA0732"/><path d="M15.144 8l-.546.73-.546-.73h1.092zM14.609 12.329l.497.671h-.997l.5-.671z" fill="#01339F"/></svg>