<!-- by TradingView --><svg xmlns="http://www.w3.org/2000/svg" width="18" height="18"><path fill="#F0F3FA" d="M0 0h18v18H0z"/><path d="M7.34 6.95C8.3 5.45 9.57 4 11.6 4c.78 0 1.52.45 1.9.82v.47c-.43-.4-.97-.62-1.62-.62-1.7 0-2.6 1.09-3.41 2.28L4.87 13H3.7l3.64-6.05zm6.16-1.33v.58a1.6 1.6 0 00-1.27-.54C10.76 5.66 9.57 7.3 9.57 9c0 1.79.83 3.01 2.13 3.01.31 0 .52-.04.82-.1v.81c-.36.18-.73.29-1.1.29-2 0-2.83-2-2.83-3.64C8.6 7.12 9.8 5 12 5c.6 0 1.13.23 1.5.62zm0 1.44a.93.93 0 00-.78-.4c-.88 0-1.51 1.13-1.51 2.19 0 1.05.31 1.47 1.02 1.47h.29v1.05c-.25.11-.53.11-.78.11h-.03c-1.23 0-1.69-1.08-1.69-2.43 0-1.73 1.05-3.05 2.32-3.05.55 0 .94.22 1.16.53v.53zM8.26 13h-.99l1.22-2.01c.13.43.25.64.43.92L8.26 13z" fill="#1C2E69"/><path d="M5.47 13h1.22l1.61-2.7c-.07-.39-.13-1.58.1-2.3l-2.93 5z" fill="#FEBF3E"/></svg>