<!-- by TradingView --><svg width="18" height="18" viewBox="0 0 18 18" xmlns="http://www.w3.org/2000/svg"><path fill="#F0F3FA" d="M0 0h18v18H0z"/><circle cx="9" cy="9" r="5" fill="url(#arwhxndhk)"/><path d="M4.56 6.64c.17-.25.53-.78.6-.82 0 .3.2.67.3.82 1.38 1.3 4.35 4.1 5.15 4.8 1 .9.77 1.36.84 1.43-.04.82-1.05 1-1.55.98.46-.61-.07-1.34-.4-1.63L5.04 7.94a1.7 1.7 0 0 1-.48-1.3Z" fill="url(#brwhxndhk)"/><path d="M6 5.06c.41-.47.89-.6.98-.64-.67.56 1.92 2.32 2.45 2.84.53.52 3.42 2.77 3.58 3.83.12.86-.68 1.59-1.1 1.84.19-.96-.4-1.8-.72-2.1a249.6 249.6 0 0 1-4.78-4.8c-.45-.53-.47-.87-.42-.97Z" fill="url(#crwhxndhk)"/><path d="M8.8 5.49c-.72-.72-.83-1.24-.79-1.41.12-.03.44-.08.8-.08 0 .3.95 1.11 1.43 1.49.7.57 2.3 1.94 3.12 2.85.82.9.34 2.24 0 2.8-.02-1.09-.52-1.7-1.14-2.5-.6-.8-2.5-2.26-3.41-3.15Z" fill="url(#drwhxndhk)"/><defs><linearGradient id="arwhxndhk" x1="12.58" y1="5.73" x2="8.06" y2="10.65" gradientUnits="userSpaceOnUse"><stop stop-color="#E8DDBD"/><stop offset="1" stop-color="#E8DDBD" stop-opacity="0"/></linearGradient><linearGradient id="brwhxndhk" x1="4.26" y1="6.94" x2="10.9" y2="13.47" gradientUnits="userSpaceOnUse"><stop stop-color="#C8913F"/><stop offset=".29" stop-color="#E4C95E"/><stop offset=".6" stop-color="#D9AC39"/><stop offset="1" stop-color="#EFCC58"/></linearGradient><linearGradient id="crwhxndhk" x1="6.33" y1="5.14" x2="12.7" y2="12.12" gradientUnits="userSpaceOnUse"><stop stop-color="#E5B851"/><stop offset=".27" stop-color="#F3D776"/><stop offset="1" stop-color="#CD9548"/></linearGradient><linearGradient id="drwhxndhk" x1="8.51" y1="4.65" x2="13.48" y2="10.48" gradientUnits="userSpaceOnUse"><stop offset=".36" stop-color="#F5E58E"/><stop offset="1" stop-color="#A97231"/></linearGradient></defs></svg>