<!-- by TradingView --><svg width="18" height="18" xmlns="http://www.w3.org/2000/svg"><path fill="#0C307A" d="M0 0h18v18H0z"/><path d="M11.149 7.265c.85.16 1.582.42 2.129.735l.048-.222c-.505-.35-1.178-.675-1.916-.966-1.852-.73-3.965-.966-6.116-.715L5 7.17c2.12-.28 4.282-.258 6.149.094zM13.548 7L14 5l-5 .002c.93.219 1.793.533 2.596.917.682.397 1.48.686 1.952 1.081zM10.527 8c-1.505.012-3.197.264-5.142.768-.292.075-.754.22-1.036.303L4 11c.144-.057.168-.072.247-.106 2.079-.886 3.972-1.477 5.765-1.98 1.22-.342 2.365-.412 3.122-.314l.05-.3c-.697-.205-1.549-.308-2.657-.3zM5 13h7.204l.8-4s-1.592.563-3.927 1.727A49.733 49.733 0 005 13z" fill="#fff"/></svg>