<!-- by TradingView --><svg width="18" height="18" viewBox="0 0 18 18" xmlns="http://www.w3.org/2000/svg"><path fill="#F0F3FA" d="M0 0h18v18H0z"/><path d="M4 7h.48l1.2 3.5L6.85 7h.48v4H7V7.53l-1.17 3.45h-.31L4.34 7.54h-.01v3.45H4V7Z" fill="#338BB8"/><path d="M8 7h1.4c.55 0 1.05.24 1.05.99 0 .2-.05.4-.15.56a.75.75 0 0 1-.42.33v.01c.2.02.38.14.5.32.14.18.2.42.2.65 0 .39-.11 1.14-1.19 1.14H8V7Zm.32 1.76H9.4c.5 0 .74-.3.74-.68 0-.5-.25-.75-.74-.75H8.3v1.43Zm0 1.91H9.4c.46 0 .87-.18.87-.82 0-.51-.32-.77-.87-.77H8.3v1.6ZM11 7h1.8c.72 0 1.2.42 1.2 1.15 0 .72-.48 1.25-1.2 1.25h-1.43V11H11V7Zm.37 2.07h1.34c.54 0 .9-.38.9-.93s-.36-.81-.9-.81h-1.34v1.74Z" fill="#4A707E"/><path d="M6.78 5.36c.32.16.64.4.93.64h1.46A4.69 4.69 0 0 0 3 5.32a4.37 4.37 0 0 1 3.78.04Z" fill="#338BB8"/><path d="M8.6 4.57c.66.3 1.27.82 1.8 1.43h1.33a5.88 5.88 0 0 0-2.17-1.83 4.86 4.86 0 0 0-4.75.36 4.55 4.55 0 0 1 3.78.04Z" fill="#4A707E"/><path d="M10.38 3.84c.91.41 1.73 1.19 2.35 2.16H14a6.05 6.05 0 0 0-2.65-2.55 4.91 4.91 0 0 0-4.75.35 4.6 4.6 0 0 1 3.78.04Z" fill="#338BB8"/><path d="M10.1 12.76c-.32-.2-.63-.46-.93-.76H7.62c.45.56.94 1.01 1.46 1.34 1.64 1.03 3.44.85 5.01-.52-1.3.78-2.7.76-3.99-.06Z" fill="#4A707E"/><path d="M8.22 13.8c-.66-.4-1.27-1.01-1.8-1.8H5a6.71 6.71 0 0 0 2.2 2.35c1.64 1.01 3.44.84 5-.5-1.29.76-2.7.74-3.98-.05ZM12.89 12h-2.11c.07.06.14.24.2.3 1.65 1.36 3.45 1.12 5.02-.67-1 .79-2.07.83-3.11.36Z" fill="#338BB8"/></svg>