<!-- by TradingView --><svg xmlns="http://www.w3.org/2000/svg" width="18" height="18"><path fill="#F0F3FA" d="M0 0h18v18H0z"/><circle cx="9" cy="9" fill="#005BD5" r="1.25"/><path d="M10.07 7.3c.19-.72.14-2.08-1.19-3.3-.64 0-3.07.22-4.44 2.9.17-.08 2.45-.7 3.62.33a2 2 0 012 .08z" fill="url(#ajyo15ecj)"/><path d="M8.07 7.23c-.61-.55-1.89-.9-3.62-.34l-.01.02c-.2.48-1.18 2.86.7 5.37.07-.84.6-2.53 1.88-3a2.02 2.02 0 011.05-2.05z" fill="url(#bjyo15ecj)"/><path d="M7.02 9.26c-.71.27-1.75 1.2-1.9 3 .4.5 1.62 1.5 3.28 1.73-.5-.67-1.3-2.26-.69-3.46a2 2 0 01-.7-1.27z" fill="url(#cjyo15ecj)"/><path d="M10.94 8.52a3.2 3.2 0 001.6-3.06A5 5 0 008.88 4c.56.63 1.53 1.82 1.17 3.3a2 2 0 01.88 1.22z" fill="url(#djyo15ecj)"/><path d="M9.94 10.76c.48.48 1.59 1.04 3.43.67.25-.39.74-1.5.6-2.9a4.93 4.93 0 00-1.44-3.06c.05.71-.17 2.22-1.6 3.03a2 2 0 01-.99 2.26z" fill="url(#ejyo15ecj)"/><path d="M7.7 10.52c-.35.66-.44 1.87.63 3.46.92.1 3.5.03 5.05-2.55-.21.05-2.35.42-3.42-.67a2 2 0 01-2.26-.24z" fill="url(#fjyo15ecj)"/><defs><linearGradient id="ajyo15ecj" x1="9.7" y1="5.18" x2="6.61" y2="6.86" gradientUnits="userSpaceOnUse"><stop stop-color="#D859D3"/><stop offset="1" stop-color="#882784"/></linearGradient><linearGradient id="bjyo15ecj" x1="5.58" y1="6.76" x2="5.78" y2="10.77" gradientUnits="userSpaceOnUse"><stop stop-color="#0097FF"/><stop offset="1" stop-color="#005BD5"/></linearGradient><linearGradient id="cjyo15ecj" x1="5.7" y1="10.53" x2="8.18" y2="11.99" gradientUnits="userSpaceOnUse"><stop stop-color="#00B08C"/><stop offset="1" stop-color="#009D7A"/></linearGradient><linearGradient id="djyo15ecj" x1="12.64" y1="6.68" x2="9.3" y2="5.57" gradientUnits="userSpaceOnUse"><stop stop-color="#00B08C"/><stop offset="1" stop-color="#009D7A"/></linearGradient><linearGradient id="ejyo15ecj" x1="11.88" y1="5.5" x2="11.88" y2="11.55" gradientUnits="userSpaceOnUse"><stop stop-color="#005BD5"/><stop offset="1" stop-color="#0097FF"/></linearGradient><linearGradient id="fjyo15ecj" x1="7.62" y1="12.64" x2="11.41" y2="11.08" gradientUnits="userSpaceOnUse"><stop stop-color="#D859D3"/><stop offset="1" stop-color="#882784"/></linearGradient></defs></svg>