<!-- by TradingView --><svg width="18" height="18" viewBox="0 0 18 18" xmlns="http://www.w3.org/2000/svg"><path fill="#F0F3FA" d="M0 0h18v18H0z"/><path fill-rule="evenodd" d="M3.44 7.93c-.59.59-.59 1.55 0 2.14l4.49 4.49c.59.59 1.55.59 2.14 0l4.49-4.49c.59-.59.59-1.55 0-2.14l-4.49-4.49c-.59-.59-1.55-.59-2.14 0L3.44 7.93Zm4.81-2.1c0-.46.34-.83.75-.83s.75.37.75.82v2.04c0 .45-.34.82-.75.82s-.75-.37-.75-.82V5.82Zm-1.5.28c-.41 0-.75.38-.75.85v4.19c0 .47.34.85.75.85s.75-.38.75-.85v-4.2c0-.46-.34-.84-.75-.84Zm4.5 0c-.41 0-.75.38-.75.85v4.19c0 .47.34.85.75.85s.75-.38.75-.85v-4.2c0-.46-.34-.84-.75-.84Z" fill="#D82931"/></svg>