<!-- by TradingView --><svg xmlns="http://www.w3.org/2000/svg" width="18" height="18"><path fill="#F0F3FA" d="M0 0h18v18H0z"/><ellipse cx="4.7" cy="9.72" rx=".7" ry=".71" fill="#00BAF2"/><path d="M6.81 9.94c-.22 1.86-.53 2.53-.65 2.63-.53-.54-.72-1.66-.75-2.13.6-.58.33-1.21.08-1.46.13-2.96.66-3.89.91-3.98h1.66C6.91 6.34 7.1 7.62 6.81 9.94zM9.43 8.5c.06-2.37.62-3.33.9-3.5.5.44.77 1.21.84 1.53-.23.5-.3 2.15-.4 2.94-.27 2.12-.56 2.9-.67 3.01-.55.06-.9-1.11-1-1.71.17-.4.29-1.69.33-2.28z" fill="#19345B"/><path d="M9.17 10.42C8.87 7.23 8.73 5.4 8.07 5a3.7 3.7 0 00-.81 1.46c.17.61.24 1.63.48 3.96.23 2.34 1.1 2.63 1.64 2.57a.94.94 0 00.75-.56c-.6-.23-.89-1.43-.96-2zM11.94 5h-1.62c1.32 1.36 1.17 4.06 1.3 5.2.14 1.37.5 2.8 1.32 2.8.66 0 .98-.37 1.06-.5-.6-.32-1.04-1.83-1.2-4.55-.12-2.17-.62-2.87-.86-2.95zm-6.49 8c-.78 0-1.03-1.71-1.19-2.38a1.2 1.2 0 001.15-.18c.1 1.15.59 1.87.8 2.08a.92.92 0 01-.76.48z" fill="#2B5590"/></svg>