<!-- by TradingView --><svg width="18" height="18" fill="none" xmlns="http://www.w3.org/2000/svg"><path fill="#F0F3FA" d="M0 0h18v18H0z"/><path d="M14.5 5.575H7.837c-.41 0-.751-.414-1.083-.649a3.282 3.282 0 01-.405-.322.579.579 0 00-.52-.182L5.196 4l.22.727a.553.553 0 00.045.543c.085.149.159.304.219.463.094.242.35.616.366.892a1.25 1.25 0 01-.05.42L4 13.45s2.972-1.477 3.4-4.167c0 0 3.072 1.247 3.665 5.217 0 0 .393-1.244.397-2.527.729.165 1.438.366 2.576.197-3.797-1.51-4.35-4.626-4.35-4.626 2.873 0 4.812-1.969 4.812-1.969z" fill="#16387A"/></svg>