<!-- by TradingView --><svg width="18" height="18" xmlns="http://www.w3.org/2000/svg"><path fill="#3C47AF" d="M0 0h18v18H0z"/><path d="M8.54 5c.914-.037 1.4.63 1.573 1.06L11 5.538c-.959-1.93-2.996-1.643-3.895-1.258-2.334 1.258-1.333 3.784-.667 4.689l.356-.236c.385-.38 1.321-1.1 2.075-1.1.753 0 1.003.148 1.131.253v4.971c-1.587.5-3.623.093-3.985-2.2-.028-.563-.322-1.382-.664-1.382-.343 0-.371.681-.343 1.022-.042 3.068 2.782 3.776 3.98 3.697.96-.063 1.74-.498 2.012-.708v-5.86c-.133-.262-.722-.763-2.011-.668-1.29.094-1.915.624-2.195.983C6.162 5.64 7.624 5.037 8.539 5zM12.998 10.515C13.04 11.883 12.35 12.741 12 13V8c.316.238.957 1.15.998 2.515z" fill="#fff"/></svg>