<!-- by TradingView --><svg width="18" height="18" viewBox="0 0 18 18" xmlns="http://www.w3.org/2000/svg"><path fill="url(#amfncy4ak)" d="M0 0h18v18H0z"/><path d="m3 12 1-5.13c.1-.51.48-.87.9-.87h9.35c.5 0 .86.58.72 1.16l-.5 2.04c-.12.48-.48.8-.9.8h-3.54l-.37 2H7.98l.88-4.5h-.88L7.13 12H5.48l.88-4.5h-.8L4.68 12H3Zm7.33-3.38h2.93l.2-1.12h-2.9l-.23 1.13Z" fill="#88D700"/><defs><linearGradient id="amfncy4ak" x1="3.35" y1="3.12" x2="21.9" y2="24.43" gradientUnits="userSpaceOnUse"><stop stop-color="#1A1E21"/><stop offset="1" stop-color="#06060A"/></linearGradient></defs></svg>