<!-- by TradingView --><svg width="18" height="18" viewBox="0 0 18 18" xmlns="http://www.w3.org/2000/svg"><path fill="#F0F3FA" d="M0 0h18v18H0z"/><path fill-rule="evenodd" d="M9 14.65c2.5 0 4.64-2.46 4.64-5.65 0-3.19-2.14-5.65-4.64-5.65-2.5 0-4.64 2.46-4.64 5.65 0 3.19 2.14 5.65 4.64 5.65ZM9 15c2.76 0 5-2.69 5-6s-2.24-6-5-6-5 2.69-5 6 2.24 6 5 6Z" fill="#2C3775"/><path fill-rule="evenodd" d="M9.02 14c2.23 0 4.03-2.24 4.03-5s-1.8-5-4.03-5C6.8 4 5 6.24 5 9s1.8 5 4.02 5ZM7.76 6H6.53v.16c.42 0 .47.29.47.45V8.5c0 .25-.06.34-.12.34-.3 0-.88.16-.88.8 0 .68.53.89.9 1.03a2.37 2.37 0 0 0 .44.16c.3.1.6.18.6.54 0 .38-.47.47-.7.47-.71 0-1-.63-1.06-.95H6V12h.18l.17-.32c.29.26.7.32.89.32.98 0 1.23-.63 1.23-.95 0-.63-.35-.79-.7-.94a1.66 1.66 0 0 0-.25-.07c-.33-.09-.81-.2-.81-.57 0-.38.35-.47.53-.47.56 0 .82.53.88.79h.17l-.17-.95h-.18c0 .1-.03.29-.18.16a.59.59 0 0 0-.35-.16V6.8L8.65 9h.17L10 6.63v1.9c0 .25-.35.31-.47.31H9V9c.42 0 .53.21.53.32v2.2c0 .26-.35.32-.53.32V12h1.94c.7 0 1.06-.32 1.06-.95 0-.5-.7-.73-1.06-.79.24-.1.7-.4.7-.79 0-.38-.35-.63-.7-.63-.28 0-.44-.23-.44-.34V6.76c0-.38.44-.55.62-.6V6H9.88L9 7.9 7.76 6Zm2.83 3.16c-.14 0-.3.1-.35.16v.94h.35c.17-.15.35-.47.35-.79 0-.31-.18-.31-.35-.31Zm0 1.42h-.35v1.26h.35c.23 0 .7-.12.7-.63 0-.5-.47-.63-.7-.63Z" fill="#2C3775"/></svg>