<!-- by TradingView --><svg width="18" height="18" xmlns="http://www.w3.org/2000/svg"><path fill="#068566" d="M0 0h18v18H0z"/><path d="M6.068 3.665a.2.2 0 01.366-.034l2.171 3.938a.2.2 0 01-.175.297H7.337a.2.2 0 01-.173-.101l-.482-.847a.2.2 0 00-.366.045l-1.219 4.29a.2.2 0 00.192.254H8.05a.2.2 0 00.2-.2v-1.09a.2.2 0 00-.2-.2H6.47a.2.2 0 01-.193-.251l.286-1.1a.2.2 0 01.194-.15h4.58a.2.2 0 01.192.146l.309 1.1a.2.2 0 01-.193.254H9.95a.2.2 0 00-.2.2v1.09c0 .111.09.2.2.2h2.767a.2.2 0 00.192-.257l-1.281-4.28a.2.2 0 00-.368-.037l-.452.845a.2.2 0 01-.18.105l-1.04-.012a.2.2 0 01-.172-.3l2.266-3.946a.2.2 0 01.364.04l2.862 9.083a.2.2 0 01-.191.26H3.277a.2.2 0 01-.19-.263l2.981-9.08z" fill="#fff"/></svg>