<!-- by TradingView --><svg width="18" height="18" xmlns="http://www.w3.org/2000/svg"><path fill="#F47D30" d="M0 0h18v18H0z"/><path d="M15.485 10.72a.844.844 0 01-.381-.104c-1.729-.968-3.69-1.54-5.596-1.54-.239 0-.415.01-.638.033.36.615.979 1.508 1.403 2.056.11.142.143.228.143.365 0 .239-.234.47-.482.47-.166 0-.266-.07-.42-.264a23.41 23.41 0 01-1.659-2.463c-1.808.344-3.823 1.493-5.014 2.507-.137.118-.231.166-.368.166-.253 0-.473-.235-.473-.503 0-.154.053-.271.24-.438 1.817-1.627 4.64-2.912 7.038-2.912.95 0 1.867.142 2.754.375.538.141 1.337.43 2.017.748C12.266 8.058 10.03 7 8.619 7c-.361 0-.582.13-.582.391 0 .154.08.36.2.566-.284.031-.656.093-.938.174-.147-.29-.25-.6-.25-.933C7.05 6.456 7.498 6 8.402 6c2.048 0 5.49 2.053 7.208 3.553.196.171.39.384.39.634 0 .247-.199.534-.515.534z" fill="#fff"/></svg>