<!-- by TradingView --><svg xmlns="http://www.w3.org/2000/svg" width="18" height="18"><path fill="#0E3A6E" d="M0 0h18v18H0z"/><path d="M6.74 10.54h.39V9.26c0-.37.04-.66.11-.84a.93.93 0 01.85-.6c.16 0 .3.04.4.12.12.08.2.18.25.31.05.13.07.39.07.75v1.55h.38V9.36c0-.43.04-.74.11-.93a.95.95 0 01.86-.61c.16 0 .29.04.4.11a.6.6 0 01.24.3c.05.12.07.34.07.67v1.66h.4V8.9c0-.38-.05-.67-.12-.85a.97.97 0 00-.36-.45.97.97 0 00-.56-.16c-.22 0-.43.06-.63.2-.2.11-.35.3-.48.53a1.22 1.22 0 00-.21-.4.88.88 0 00-.33-.23.99.99 0 00-.41-.09c-.22 0-.43.06-.63.18-.14.09-.28.23-.41.42v-.52h-.4v3.01z" fill="#fff"/><circle cx="5.8" cy="5.64" r=".41" fill="#fff"/><circle cx="6.67" cy="6.23" r=".41" fill="#fff"/><circle cx="7.7" cy="4.6" r=".41" fill="#fff"/><circle cx="7.85" cy="5.64" r=".41" fill="#fff"/><circle cx="10.21" cy="4.61" r=".41" fill="#fff"/><circle cx="10.13" cy="5.58" r=".41" fill="#fff"/><circle cx="11.27" cy="6.1" r=".41" fill="#fff"/><circle cx="12.2" cy="5.53" r=".41" fill="#fff"/><circle cx="11.33" cy="11.93" r=".41" fill="#fff"/><circle cx="12.27" cy="12.44" r=".41" fill="#fff"/><circle cx="10.13" cy="13.38" r=".41" fill="#fff"/><circle cx="10.15" cy="12.44" r=".41" fill="#fff"/><circle cx="7.95" cy="12.44" r=".41" fill="#fff"/><circle cx="7.87" cy="13.38" r=".41" fill="#fff"/><circle cx="5.65" cy="12.36" r=".41" fill="#fff"/><circle cx="6.6" cy="11.93" r=".41" fill="#fff"/><circle cx="13.49" cy="9.92" r=".41" fill="#fff"/><circle cx="12.46" cy="9.55" r=".41" fill="#fff"/><circle cx="13.47" cy="7.88" r=".41" fill="#fff"/><circle r=".41" transform="matrix(-1 0 0 1 4.55 7.95)" fill="#fff"/><circle cx="12.49" cy="8.29" r=".41" fill="#fff"/><circle r=".41" transform="matrix(-1 0 0 1 5.54 8.36)" fill="#fff"/><circle r=".41" transform="matrix(-1 0 0 1 4.55 9.9)" fill="#fff"/><circle r=".41" transform="matrix(-1 0 0 1 5.52 9.55)" fill="#fff"/><circle cx="9" cy="5.04" r=".72" fill="#02ADF6"/><circle cx="9" cy="12.96" r=".72" fill="#02ADF6"/><circle cx="5.52" cy="10.96" r=".72" fill="#02ADF6"/><circle cx="5.52" cy="6.95" r=".72" fill="#02ADF6"/><circle cx="12.46" cy="10.96" r=".72" fill="#02ADF6"/><circle cx="12.46" cy="6.95" r=".72" fill="#02ADF6"/></svg>