<!-- by TradingView --><svg width="18" height="18" viewBox="0 0 18 18" xmlns="http://www.w3.org/2000/svg"><path fill="#F0392B" d="M0 0h18v18H0z"/><path d="M4 12v-.05c.29-1.25.57-2.5.83-3.75L5 7.73a2.51 2.51 0 0 1 2-1.68c.25-.04.56-.06.96-.04.68.02 1.24.27 1.66.73a.06.06 0 0 0 .08.01 3.6 3.6 0 0 1 3.07-.63c1.03.27 1.4 1.16 1.18 2.15l-.8 3.7c0 .02-.02.03-.05.03h-2.22a.02.02 0 0 1 0-.03l.77-3.7c.08-.39-.31-.58-.66-.47a.71.71 0 0 0-.51.57l-.73 3.6c0 .02-.02.03-.04.03H7.44a.02.02 0 0 1-.01-.03l.84-3.72c.08-.38-.31-.58-.64-.48a.71.71 0 0 0-.53.55l-.84 3.64c0 .03-.02.04-.05.04H4Z" fill="#fff"/></svg>