<!-- by TradingView --><svg width="18" height="18" viewBox="0 0 18 18" xmlns="http://www.w3.org/2000/svg"><path fill="#F0F3FA" d="M0 0h18v18H0z"/><path d="M12.42 12.07c-.33-.4-1.86-1.87-3.42-1.98-1.56.1-3.09 1.58-3.42 1.98.17.12 1.4.24 3.42.24s3.24-.12 3.42-.24Zm.47-1A4.42 4.42 0 0 0 9 8.28a4.42 4.42 0 0 0-3.88 2.8l-.04.17c-.04.16 0 .29.04.31l.09-.07.04-.03c.72-.56 2.4-1.88 3.76-1.94 1.36.06 3.04 1.37 3.75 1.93l.05.04.1.07c.02-.02.07-.15.03-.3a2.33 2.33 0 0 1-.04-.17ZM9 4.92 6.72 8.4a4.13 4.13 0 0 1 2.4-.64c.8.01 1.56.22 2.18.63l-2.3-3.5Zm.07-.9L14 11.32v.06c0 .03-.19.55-.66 1.18-.29.37-2.61.44-3.98.44h-.7c-1.1 0-3.68-.07-3.98-.45A4.53 4.53 0 0 1 4 11.38l.01-.06 4.93-7.3c0-.02.02-.02.04-.02h.05l.03.01Z" fill="#1A3245"/></svg>