<!-- by TradingView --><svg width="18" height="18" viewBox="0 0 18 18" xmlns="http://www.w3.org/2000/svg"><path fill="#002C73" d="M0 0h18v18H0z"/><path d="M13 5.35v7.3c0 .24-.09.35-.35.35h-1.29c-.26 0-.36-.1-.36-.35V9.5c-.24.52-.65 1.4-.97 2.15-.1.23-.24.35-.49.35h-1.1c-.25 0-.37-.14-.47-.35-.38-.82-.71-1.54-.97-2.15v3.15c0 .24-.09.35-.35.35H5.36c-.26 0-.36-.1-.36-.35v-7.3c0-.24.1-.35.36-.35H6.6c.19 0 .26.07.32.19C7.63 6.68 8.22 8.04 9 9.5c.83-1.67 1.44-3.07 2.01-4.34.05-.11.15-.16.34-.16h1.3c.26 0 .35.1.35.35Z" fill="#fff"/></svg>