<!-- by TradingView --><svg width="18" height="18" viewBox="0 0 18 18" xmlns="http://www.w3.org/2000/svg"><path fill="#F0F3FA" d="M0 0h18v18H0z"/><path d="M13.84 7.58a.32.32 0 0 0-.06.18.1.1 0 0 1-.05.08.1.1 0 0 1-.1 0c-.3-.14-.46-.1-.54-.03-.09.08-.13.22-.13.33 0 .06-.04.1-.1.1-.05 0-.1-.04-.1-.1 0-.14.04-.34.2-.47.14-.12.35-.15.64-.05a.5.5 0 0 1 .49-.34c.19 0 .32.08.4.19.08.1.1.21.1.3 0 .04-.04.09-.1.09-.06 0-.1-.05-.1-.1a.32.32 0 0 0-.06-.18c-.05-.06-.12-.1-.25-.1s-.2.04-.24.1ZM4.47 9.5a.24.24 0 0 0-.05.17c0 .1-.03.2-.09.27a.46.46 0 0 1-.2.15c-.15.05-.32.05-.42.05-.02 0-.04.01-.07.08a.62.62 0 0 0-.04.2v1.34c0 .05-.04.1-.1.1-.05 0-.1-.05-.1-.1v-1.33a.8.8 0 0 1 .05-.27c.03-.09.1-.2.26-.2.1 0 .23 0 .34-.05a.26.26 0 0 0 .12-.08.26.26 0 0 0 .04-.16c0-.12.04-.2.1-.28a.48.48 0 0 1 .23-.15c.17-.05.38-.05.58-.05h.01c.06 0 .1.04.1.1 0 .05-.04.1-.1.1-.2 0-.4 0-.53.03a.28.28 0 0 0-.13.08Zm4.27-.25a.1.1 0 0 1 .14.05c.05.1.28.32.72.32.32 0 .5.1.62.17l.02.01c.07.04.1.06.15.07.04 0 .1 0 .19-.05.33-.15.43-.2.52-.2.05 0 .1.05.1.1s-.05.1-.1.1-.11.03-.43.17a.54.54 0 0 1-.3.06.63.63 0 0 1-.25-.1c-.12-.06-.25-.14-.52-.14-.53 0-.82-.27-.9-.43a.1.1 0 0 1 .04-.13Zm5.75 1.73c.19.1.3.26.34.37.01.05-.01.1-.07.12a.1.1 0 0 1-.13-.06.53.53 0 0 0-.24-.27c-.14-.07-.35-.12-.65-.05-.06.02-.11-.02-.13-.07-.01-.05.02-.1.08-.11.35-.08.61-.03.8.07Z" fill="#3E75A3"/><path d="M6.05 5.08a.1.1 0 0 1 .1-.08H7.7c.05 0 .1.04.1.1v1.37l.97 1.17a.1.1 0 0 1 .02.06v3.37l1.08 1.73h.53v-2.1a.1.1 0 0 1 .2 0v.27l.4-.3V9.6c0-.06.04-.1.1-.1h.3V8.43c0-.05.04-.1.1-.1h.75a.1.1 0 0 1 .1.05l.57 1.02h.35a.1.1 0 0 1 .1.08l.4 1.98.78 1.34h.35c.05 0 .1.04.1.1a.1.1 0 0 1-.1.1H9.8a.1.1 0 0 1-.08-.04l-1.13-1.8a.1.1 0 0 1-.02-.06V7.73l-.3-.3v.47a.1.1 0 0 1-.1.1.1.1 0 0 1-.1-.1v-.77l-.28-.3v3.47a.1.1 0 0 1-.1.1.1.1 0 0 1-.1-.1V5.2h-1v1.5a.1.1 0 0 1-.04.08l-.51.38-.2 3.75a.1.1 0 0 1-.05.08l-1.29.77-.3 1.16a.1.1 0 0 1-.1.08h-1a.1.1 0 0 1-.11-.1c0-.06.05-.1.1-.1h.94l.59-2.32a.1.1 0 0 1 .07-.07l.5-.14V6.74a.1.1 0 0 1 .04-.08l.62-.42.2-1.16Zm-1.47 6.4 1.07-.64.2-3.75a.1.1 0 0 1 .04-.07l.51-.37V5.2h-.16l-.2 1.12a.1.1 0 0 1-.03.06l-.61.41v3.55a.1.1 0 0 1-.07.1l-.52.14-.23.9Zm9.74 1.32-.73-1.25-.01-.03-.4-1.92h-.32a.1.1 0 0 1-.08-.05l-.26-.42.24.93.4.58a.1.1 0 0 1 0 .07l-.19 1.35.75.74h.6Zm-.89 0-.64-.63a.1.1 0 0 1-.03-.08l.2-1.37-.38-.56a.1.1 0 0 1-.02-.04l-.39-1.59h-.57V9.6a.1.1 0 0 1-.1.1h-.3v1a.1.1 0 0 1-.02.06l-.58.57v1.47h.58l.56-.92-.2-.96a.1.1 0 0 1 0-.05l.41-1.2a.1.1 0 0 1 .13-.06.1.1 0 0 1 .07.12l-.4 1.18.2.97a.1.1 0 0 1-.02.07l-.51.85h2.01Zm-7.13-5c.05 0 .1.04.1.1v3.2a.1.1 0 0 1-.1.1.1.1 0 0 1-.1-.1V7.9c0-.06.04-.1.1-.1Z"/><path fill-rule="evenodd" d="M12 5.8a.8.8 0 1 0 0-1.6.8.8 0 0 0 0 1.6Zm0 .2a1 1 0 1 0 0-2 1 1 0 0 0 0 2Z"/></svg>