<!-- by TradingView --><svg width="18" height="18" viewBox="0 0 18 18" xmlns="http://www.w3.org/2000/svg"><path fill="#F0F3FA" d="M0 0h18v18H0z"/><path d="M10.67 4.3A5.3 5.3 0 0 0 9.1 4h-.24a5.05 5.05 0 0 0-4.63 3.56c-.02.05 0 .07.05.07 2.15-.01 4.26-.02 6.33 0 .27 0 .45.03.56.1.18.13.25.34.21.63-.08.65-.29 1.25-.62 1.81v.06a10.05 10.05 0 0 1 1.96 2.13h.02a.06.06 0 0 0 .05-.02 5.1 5.1 0 0 0 1.18-3.86 5.01 5.01 0 0 0-3.3-4.18ZM11 6.27c0 .41-.34.75-.75.75a.75.75 0 0 1-.75-.75c0-.42.34-.76.75-.76s.75.34.75.76ZM9.38 14h-.71a4.95 4.95 0 0 1-4.06-2.64c-.33-.6-.54-1.29-.61-2.08v-.5l.09-.7c0-.02 0-.03.02-.04l.03-.01h6.66c.04 0 .08.04.07.08a6.25 6.25 0 0 1-.58 1.73 3.24 3.24 0 0 0-1.7-.6c-.49-.03-.92.06-1.32.27-.65.36-.84 1.22-.25 1.75.25.21.54.34.88.4a2.42 2.42 0 0 0 2.53-1.05.05.05 0 0 1 .04 0h.02c.7.6 1.31 1.29 1.84 2.06.02.03.02.05 0 .07A5.17 5.17 0 0 1 9.37 14Zm.57-3.56c.04-.05.03-.1-.03-.14a2.52 2.52 0 0 0-2.09-.38c-.36.1-.75.38-.6.82.06.16.34.35.49.39.91.27 1.66.04 2.23-.69Z" fill="#004097"/></svg>