<!-- by TradingView --><svg width="18" height="18" viewBox="0 0 18 18" xmlns="http://www.w3.org/2000/svg"><path fill="#F0F3FA" d="M0 0h18v18H0z"/><path d="M13.97 6.07c.02.01.03.03.03.05 0 .03-.01.04-.04.05L9.03 8.25a.23.23 0 0 1-.2 0l-2.06-.94c-.07-.03-.1-.08-.1-.14V5.18c0-.06.03-.07.09-.05l2.05.89c.07.02.13.02.19 0l2.4-.99c.1-.04.2-.04.3 0l2.27 1.04ZM6.3 10.4l-2.21 1c-.06.02-.09 0-.09-.06V6.2c0-.02.01-.04.03-.05l2.22-.99c.05-.03.08 0 .08.05v5.15c0 .02 0 .04-.03.05ZM13.97 11.8l-2.22.99c-.06.02-.08 0-.08-.05V7.58c0-.02 0-.03.03-.04l2.22-1c.05-.01.08 0 .08.06v5.15c0 .02-.01.04-.03.05ZM9.1 9.7l2.2.99c.02 0 .03.02.03.04v2.08c0 .06-.03.08-.08.05l-2.12-.94h-.05l-2.55 1.07h-.06l-2.44-1.08c-.02-.01-.03-.03-.03-.05 0-.02.01-.04.03-.04l5-2.12h.06Z" fill="#4C5FA3"/></svg>