<!-- by TradingView --><svg width="18" height="18" viewBox="0 0 18 18" xmlns="http://www.w3.org/2000/svg"><path fill="#F0F3FA" d="M0 0h18v18H0z"/><path d="M12 6v6h2.17c.94 0 1.83-.52 1.83-1.63 0-.72-.43-1.43-1.15-1.48v-.06c.58-.15.91-.64.91-1.27 0-1.06-.81-1.56-1.7-1.56H12Zm2.2 5.14h-1.4V9.43h1.43c.52 0 .97.27.97.85 0 .6-.51.86-1 .86Zm-.17-2.57H12.8V6.86h1.25c.46 0 .91.3.91.84 0 .53-.46.87-.93.87ZM2 6h.9l1.57 4.35h.06L6.06 6H7v6h-.71V7.88l-1.48 4.1h-.62L2.71 7.87V12H2V6Zm9.5 2.05h-.83c-.09-.65-.52-1.2-1.08-1.2-.93 0-1.36 1.23-1.36 2.15 0 .93.42 2.14 1.36 2.14.54 0 1-.55 1.08-1.16h.83c-.13 1.17-.92 2.02-1.92 2.02-1.4 0-2.08-1.52-2.08-3 0-1.47.68-3 2.08-3 1.03 0 1.8.86 1.92 2.05Z"/></svg>