<!-- by TradingView --><svg width="18" height="18" viewBox="0 0 18 18" xmlns="http://www.w3.org/2000/svg"><path fill="url(#allc4tqon)" d="M0 0h18v18H0z"/><path d="M6 8.17c.19-.37.52-.75.98-.75.85 0 1.02.76 1.02 1.2V12h2V8.61c.04-.4.27-1.19 1.02-1.19.74 0 .98.8.98 1.2V12h2V8.05C13.93 7.37 13.4 6 11.77 6a2.9 2.9 0 0 0-2.09.99A2.4 2.4 0 0 0 7.74 6c-.68 0-1.3.39-1.74.78V6H4v6h2V8.17Z" fill="#fff"/><defs><linearGradient id="allc4tqon" x1="2.66" y1="18" x2="18" y2="4.64" gradientUnits="userSpaceOnUse"><stop stop-color="#A91030"/><stop offset="1" stop-color="#DF5345"/></linearGradient></defs></svg>