<!-- by TradingView --><svg width="18" height="18" viewBox="0 0 18 18" xmlns="http://www.w3.org/2000/svg"><path fill="#F0F3FA" d="M0 0h18v18H0z"/><path fill-rule="evenodd" d="M9 15A6 6 0 1 0 9 3a6 6 0 0 0 0 12Zm0-.7A5.3 5.3 0 1 0 9 3.7a5.3 5.3 0 0 0 0 10.6Z" fill="url(#alfetcwn5)"/><path d="M11.48 7.69 9.65 9.87c-.45.56-.93.84-1.4.7a.99.99 0 0 1-.49-.36 1.8 1.8 0 0 1-.24-.44l-.7-1.87-.01-.01a.8.8 0 0 0-.14-.28c-.07-.08-.12-.09-.15-.09-.05 0-.11.03-.18.12a.75.75 0 0 0-.13.25v.02l-1.09 2.65a.37.37 0 0 1-.68-.27L5.5 7.67c.04-.14.13-.33.27-.5a1 1 0 0 1 .7-.39c.36-.02.62.18.77.36.14.18.23.38.27.53l.7 1.83c.04.1.09.2.14.26.05.07.1.1.12.1 0 0 .19.06.6-.46h.01l1.86-2.21.01-.02c.27-.27.7-.53 1.13-.52.24.02.47.1.65.3.17.2.28.46.34.77v.02l.25 2.65a.37.37 0 0 1-.74.07l-.24-2.62a.77.77 0 0 0-.15-.38.18.18 0 0 0-.14-.07c-.14 0-.36.1-.57.3Z" fill="#3B75FD"/><path d="M6.48 7.53a.32.32 0 0 0-.14.1.75.75 0 0 0-.13.26v.02l-1.09 2.65a.37.37 0 0 1-.68-.27L5.5 7.67c.03-.11.1-.24.18-.37.27-.1.63-.12.8.23Z" fill="#359BFA"/><path d="M12.22 7.5c.04.06.09.17.12.34l.24 2.62a.37.37 0 1 0 .74-.07l-.24-2.65v-.02a1.5 1.5 0 0 0-.35-.76.92.92 0 0 0-.65-.3c-.3-.02-.58.1-.82.26.37-.04.87.03.96.58Z" fill="#384DFD"/><path d="m6.46 7.54.06-.02c.03 0 .08.01.15.1.07.08.12.2.14.27v.01l.71 1.87c.06.13.13.3.24.44.1.14.27.29.49.35.36.12.73-.02 1.08-.35-.51-.02-.77-.21-.87-.35a.28.28 0 0 1-.11-.1c-.05-.07-.1-.16-.14-.26l-.7-1.83a1.54 1.54 0 0 0-.27-.53.91.91 0 0 0-.76-.36 1 1 0 0 0-.71.39l-.1.14a.7.7 0 0 1 .8.23Z" fill="#388FF9"/><circle cx="11.5" cy="9.5" r=".5" fill="url(#blfetcwn5)"/><defs><linearGradient id="alfetcwn5" x1="5.37" y1="4.18" x2="12.78" y2="13.44" gradientUnits="userSpaceOnUse"><stop stop-color="#399EF8"/><stop offset="1" stop-color="#3062F3"/></linearGradient><linearGradient id="blfetcwn5" x1="11.17" y1="9.14" x2="11.74" y2="9.91" gradientUnits="userSpaceOnUse"><stop stop-color="#2B98F3"/><stop offset=".98" stop-color="#3758F5"/></linearGradient></defs></svg>