<!-- by TradingView --><svg width="18" height="18" viewBox="0 0 18 18" xmlns="http://www.w3.org/2000/svg"><path fill="#F0F3FA" d="M0 0h18v18H0z"/><path d="M7.72 4A3.8 3.8 0 0 0 4 7.7v2.72c0 1 .45 1.92 1.15 2.57l1.08-5.6c.01-.07.11-.09.15-.02l1.63 2.74-2.73 3c.67.55 1.53.89 2.44.89h2.69c1.98 0 3.59-1.6 3.59-3.58V7.7c0-1-.42-1.95-1.1-2.63l-1.07 5.58a.08.08 0 0 1-.15.03l-1.63-2.75 2.73-2.99A3.5 3.5 0 0 0 10.4 4H7.72ZM6.34 6.89c0-.04.03-.13.21-.2.61-.25 1.94-.57 2.37.05L11.34 11c.05.1.18.28.35.12 0 .05-.06.17-.35.28-.36.13-1.84.6-2.3-.21l-2.39-4.2c-.05-.09-.2-.23-.31-.1Z" fill="#FF5F0F"/></svg>