<!-- by TradingView --><svg width="18" height="18" viewBox="0 0 18 18" xmlns="http://www.w3.org/2000/svg"><path fill="#F0F3FA" d="M0 0h18v18H0z"/><path d="M12.73 8.68c.38-.33.71-.69.71-1.3 0-.37-.16-1.04-1.25-1.11v.37c.38.18.42.57.42.98 0 .57-.17 1.07-.7 1.07-.06 0-.41-.02-.41-.15V6.7c0-.16.13-.15.18-.16h.1c.04.14.05.26.05.4 0 .16.01.22.08.22.05 0 .08-.07.09-.23V5.46c0-.06.01-.17-.1-.18-.3-.02-.55-.09-.91-.16-.47-.09-1-.12-1.38-.12-1.7 0-3 .73-3.67 2.46l-.97-1.08c-.12-.13-.25-.25-.32-.25s-.1.1-.1.26v4.46c0 .61 0 .96-.13.98-.1.03-.22.04-.3.04-.08 0-.12.01-.12.06 0 .06.06.07.15.07h1.62c.1 0 .16-.02.16-.07s-.04-.06-.12-.06c-.6 0-.81-.37-.81-1.02V7.77c.06.06.4.27.67.58V9c0 2.7 2.07 4 4.3 4 .61 0 1.3-.07 1.68-.23.17-.09.19-.1.25-.3.1-.35.2-1.24.2-1.3 0-.09-.01-.16-.06-.16-.06 0-.08.04-.1.15 0 .08-.04.21-.08.35a1.1 1.1 0 0 1-.07-.02c-.22-.1-.29-.15-.29-.64v-1.7c0-.15.11-.16.14-.16h.28c.73.04 1.25.74 1.25 1.55 0 .77-.56 1.04-.87 1.04h-.1l-.06.33c1.28 0 1.86-.88 1.86-1.68 0-.87-.7-1.34-1.27-1.55ZM8.17 6.22c-.1 0-.18.05-.18.1s.1.06.18.06c.42 0 .55.32.55.77v3.23L6.65 8.15c-.02.2-.01.47-.01.7 0 .23 0 .42.04.64.72.77 1.45 1.53 2.18 2.28.08.08.24.21.32.21.06 0 .09-.05.09-.21V7.05c0-.42.08-.6.27-.66h.85c.23.06.28.2.3.46l-.02 4.46c0 .3-.05.5-.19.53-.06.01-.15.03-.25.03-.08 0-.11.02-.11.06 0 .05.05.07.14.07h1.43c-.35.57-1.18.54-1.72.54-2.04 0-3.47-1.74-3.47-3.7 0-2.23 1.07-3.38 3.06-3.38.63 0 1.74.05 2.12.77H8.17Z" fill="#1C3A6A"/></svg>