<!-- by TradingView --><svg width="18" height="18" xmlns="http://www.w3.org/2000/svg"><path fill="#0054A4" d="M0 0h18v18H0z"/><path d="M4 9.984c0 1.364.385 2.579.578 3.016h7.979c-.131-.715-.595-1.74-.811-2.162 1.41.767 2.478.83 2.837.765.083-.894-.1-1.572-.202-1.8.841-1.405.646-2.319.443-2.6-.326-.213-1.082-.675-1.494-.822-.413-.147-.867-.482-1.043-.63-.637-.614-1.352-.776-1.63-.781-.59 0-1.885-.101-2.347-.506-.462-.405-.92-.477-1.09-.462C4.936 4.637 4 8.279 4 9.984z" fill="#fff"/><path d="M4.695 9.44c.018 1.352.614 2.94.91 3.56h3.313c-.284-.311-.514-1.3-.522-1.902-.007-.482.178-1.306.271-1.659.187-.617.57-1.974.607-2.466.047-.614-.347-.917-.373-.958-.026-.04-.042-.112 0-.152.033-.032.117.013.155.04.226.11.84.912.348 2.424-.395 1.21-.488 2.15-.486 2.47.04 1.03.818 2.203 1.286 2.203.375 0 .404-.61.372-.91-.13-1.22-.84-3.352-.84-3.42 0-.069-.047-.327.095-.343.113-.012.182.161.203.25.07.344.171.576.213.648.94 1.924 1.013 3.322.931 3.775h.591c.057-2.06-1.42-4.355-1.433-4.424-.012-.069-.055-.29.068-.344.097-.043.185.112.217.195.39 1.24.792 1.73.944 1.82.673.574 2.024.768 2.616.794 0-.482-.16-.884-.24-1.025-.69-.062-.765.333-.716.538l-.352-.09c-.291-.768.69-.943 1.217-.935.307-.602.853-1.909-.478-2.447-1.065-.43-1.809-.965-2.047-1.179l.204.282c-.136.154-.094.278-.056.32.273.27.42.539.455.91.027.297-.14.705-.228.871h-.762c.382-.358.478-.662.478-.768-.028-.359-.474-.765-.694-.923l.216-.474c-.537-.645-2.551-1.114-3.492-1.268 0-.086-.1-.259-.5-.27-.5-.012-1.194.59-1.831 1.923-.51 1.066-.652 2.4-.66 2.933z" fill="#0054A4"/><path d="M5.143 8.8c-.035 1.477.742 3.42 1.135 4.2h1.356C4.99 9.071 5.807 7.157 5.864 6.985c.046-.137-.07-.15-.132-.139-.182.036-.555.478-.59 1.955zm1.079-1.878c.062.69.907 1.803 1.321 2.273l.382-.952C6.54 7.64 6.505 6.705 6.509 6.619c.005-.087-.017-.151-.081-.174-.056-.02-.12.039-.145.082a.725.725 0 00-.061.395zm.495-1.002c.485-.153 1.509.151 2.049.414l-.474.942c-.863-1.32-1.65-.979-1.72-.942-.07.036-.131.036-.173-.022-.038-.052-.013-.14.014-.182.1-.141.24-.188.304-.21z" fill="#fff"/></svg>