<!-- by TradingView --><svg width="18" height="18" viewBox="0 0 18 18" xmlns="http://www.w3.org/2000/svg"><path fill="#F0F3FA" d="M0 0h18v18H0z"/><path d="M4 5.91c-.04-.17.2-.61.27-.7.17-.21.46-.33.63-.03.11.19.17.35-.04.5-.18.14-.51.34-.74.32a.12.12 0 0 1-.07-.03.13.13 0 0 1-.04-.06Z" fill="#046982"/><path d="M4.84 5.19c.1.14.17.3.01.42-.18.14-.52.36-.73.33a.07.07 0 0 1-.05-.03.08.08 0 0 1-.01-.06c.04-.21.12-.4.23-.58.04-.05.1-.1.2-.17.14-.07.26-.04.35.09ZM4.98 7.25c.32.51-.66.9-.88.55-.22-.35.55-1.07.88-.55Z" fill="#CFEDF5"/><path d="M4.56 9c.37.04.5.21.42.5-.1.36-.3.53-.58.5-.28-.03-.41-.23-.4-.6.01-.3.2-.43.56-.4Z" fill="#046982"/><path d="M4.76 9.11c.05 0 .1.03.13.06.03.04.04.08.04.12l-.03.16a.8.8 0 0 1-.06.2.65.65 0 0 1-.1.16.43.43 0 0 1-.14.1.27.27 0 0 1-.15.03l-.1-.01c-.09-.01-.17-.07-.22-.18a.66.66 0 0 1-.04-.38l.03-.17.02-.05a.17.17 0 0 1 .05-.05.25.25 0 0 1 .15-.03l.42.04Z" fill="#CFEDF5"/><path d="M12.03 10.56c0 .1 0 .23.02.38v1.13c.04.64.02 1.04.02 1.85a.1.1 0 0 1 0 .03l-.03.03-.03.02h-.03a15.28 15.28 0 0 1-1.99-.72l-.04.01a1.2 1.2 0 0 1-.52.15c-.28.02-.66 0-1.13-.04-.62-.07-.64-.65-.57-1.2v-.05A33.27 33.27 0 0 1 5 10.44a.05.05 0 0 1 0-.04l.13-.19a47.28 47.28 0 0 1 2.12-2.59l-.01-.01-.02-.01-.35-.12h-.01l-.01-.02v-.02l.01-.02.4-.27c.02 0 .03-.02.03-.03v-.05l-.13-.7v-.02h.02l.3.11h.02v-.01l.01-.02-.07-.6v-.02l.02-.01a.03.03 0 0 1 .03 0l.27.27h.04l.01-.02.23-.71v-.01h.04l.19.29a.03.03 0 0 0 .03 0h.01l.12-.21.02-.02h.03l.01.02.08.25.01.02.02.01h.04l.06-.06.02-.01c.01 0 .02 0 .03.02.06.09.13.16.19.2a.04.04 0 0 0 .05 0c.24-.23.6-.54 1.04-.93a7.65 7.65 0 0 1 1.34-.9h.01v.02l.47 4.13v.01h.02a11.87 11.87 0 0 1 1.31-.86 24.45 24.45 0 0 1 .8-.32v.02l.01.02c-.03.3-.05.7-.08 1.24a197.42 197.42 0 0 0-.15 3.46.03.03 0 0 1-.03 0l-.73-.54c-.08-.05-.1-.21-.18-.27-.1-.08-.18.02-.28.06a.05.05 0 0 1-.05-.01l-.43-.43h-.03l-.01.02Z" fill="#1E4549"/><path d="M11.38 5.06v.01h-.03a.5.5 0 0 1-.33-.06.34.34 0 0 1-.16-.26v-.07c-.02-.1.02-.2.1-.28a.53.53 0 0 1 .3-.16h.03l.01.01.08.8Z" fill="#089449"/><path d="M11.36 5.18h.02l.01.01v.01l.02.18v.03h-.02v.01c-.44-.01-.74-.13-.82-.67v-.03l.01-.02.12-.11h.03l.01.02c.05.4.24.66.62.57Z" fill="#C2D898"/><path d="m10.45 4.83.02.04c.17.5.48.71.91.66l.05.01.02.05.02.08a.1.1 0 0 1-.02.06.07.07 0 0 1-.04.04c-.21.05-.54.04-.71-.14-.2-.2-.3-.45-.33-.75v-.04l.03-.02h.02l.03.01Z" fill="#D82458"/><path d="m10.26 4.95.06.22c.16.63.6.81 1.11.72h.04v.02l.01.02.04.28v.02l-.02.01-.01.01h-.02a.84.84 0 0 0-.24-.01c-.22 0-.5-.1-.68-.17a1.87 1.87 0 0 1-.76-.73v-.01l.43-.4h.02l.01.01v.01Z" fill="#008097"/><path d="m9.51 5.56.18-.15.01-.01a.03.03 0 0 1 .02 0l.01.01.13.22a.04.04 0 0 1 0 .04l-.01.01h-.02l-.3-.05-.02-.01-.01-.02v-.02l.01-.02Z" fill="#82448B"/><path d="m8.24 5.77.04.02h.07l.02-.04.05-.12v-.02h.04l.02.01a.3.3 0 0 1 .03.14l.01.03.03.03.02.01h.04a.3.3 0 0 0 .1-.05h.04l.15.15v.01a.02.02 0 0 1 0 .02c-.05.04-.09.06-.13.06a1.44 1.44 0 0 0-.85.14H7.9v-.02l.14-.56.01-.02h.06l.12.2Z" fill="#008097"/><path d="m9.46 6.5.12.14h.01c.2.09.35-.05.33-.29-.03-.23-.21-.29-.37-.37a.08.08 0 0 1-.03-.03.1.1 0 0 1-.01-.05.13.13 0 0 1 .03-.1c.07-.08.25-.02.36 0 .03.01.05.02.07.05a.2.2 0 0 1 .05.08c.04.1.07.24.06.37-.03.32-.02.6-.28.69-.04.01-.1-.01-.18-.08l-.01-.02-.17-.37V6.5h.02ZM8.56 6.52l-.01-.02v-.01c.13-.1.2-.2.3-.28.14-.12.22-.24.35-.36a.1.1 0 0 1 .04-.02h.03l.04.02.02.03c.02.1-.02.2-.08.3a.13.13 0 0 0 0 .09c0 .07.03.13.07.18l.01.03v.04l-.02.02-.03.01-.72-.03Z" fill="#D82458"/><path d="m10.14 5.94.01-.01.28.22v.02c-.01.36-.03.6-.04.7a.65.65 0 0 1-.32.5.13.13 0 0 1-.05.03c-.35.04-.55-.17-.74-.48a.17.17 0 0 1 0-.18v-.01l.04-.02a.06.06 0 0 1 .06 0l.02.02c.09.14.11.26.3.36a.1.1 0 0 0 .07.01c.16-.02.26-.1.32-.25.1-.28.1-.61.05-.9Z" fill="#82448B"/><path d="M7.57 6.07v-.02a.02.02 0 0 1 .03 0l.16.15.01.04v.04a.42.42 0 0 1-.13.12h-.02l-.01-.01v-.01l-.04-.31ZM9.7 6.59h-.01a.02.02 0 0 1-.01 0h-.01l-.05-.09a.84.84 0 0 1-.12-.23c-.01-.08-.01-.13.01-.16.03-.02.08-.01.13.03.06.04.12.1.17.18l.05.08a.03.03 0 0 1 0 .03l-.16.16ZM8.05 6.8l-.02.03a6.6 6.6 0 0 0-.62.63v-.12c.03-.34.16-.68.37-.9.2-.22.5-.32.8-.32a.2.2 0 0 1 .09.01v.01l.01.01v.02a6.5 6.5 0 0 0-.63.64Z" fill="#089449"/><path d="m10.75 10.52.2-.88v-.07l-.28-.42-.01-.03V9.1c.26-.45.12-.92-.08-1.35a.12.12 0 0 1 0-.09l.14-.46a.1.1 0 0 0 0-.04.08.08 0 0 0-.02-.04l-.21-.21v-.01l.02-.68v-.02h.02l.36.11a.1.1 0 0 1 .04.03c.02.01.03.03.03.05.1.27.08.51-.07.72v.04c.26.31.45.72.1 1.08a.05.05 0 0 0 0 .04v.04l.1.1c.3.33.3.68.04 1.04l-.01.04v.04l.24.48a.14.14 0 0 1 0 .14l-.24.4-.01.01h-.03a.78.78 0 0 0-.32-.02Z" fill="#FDDB48"/><path d="M11.61 11.98a.18.18 0 0 0-.1.03l-.02-.02v-.03c.05-.48.1-1.02-.29-1.34v-.01a.03.03 0 0 1 0-.02v-.01l.24-.4a.2.2 0 0 0 0-.2l-.22-.45a.1.1 0 0 1 .01-.09c.2-.3.22-.62.04-.94-.06-.1-.12-.16-.17-.22l-.01-.03v-.03c.28-.34.18-.78-.1-1.07V7.1a.91.91 0 0 0 .06-.75v-.01H11.52v.02c.16 1.46.25 2.42.28 2.86a44.96 44.96 0 0 1 .13 2.65l-.01.03-.03.02-.28.05Z" fill="#D66F34"/><path d="M8.02 7.1 8 7.09v-.05l.42-.38a.07.07 0 0 1 .05-.02l.67.03.02.01.02.02a.06.06 0 0 1 0 .05l-.27.72a.04.04 0 0 0 0 .03l.02.01h.39l.03.01.01.02.01.02v.03l-.16.49a.04.04 0 0 0 0 .03h.03l.34-.02c.1 0 .17.04.2.14v.09l-.35 1.5v.04c.02.1.06.28.12.42a9.12 9.12 0 0 1 .33.97c0 .01 0 .02-.02.02l-.07.04a.11.11 0 0 0-.05.06.14.14 0 0 0 0 .1l.27.77a.03.03 0 0 1 0 .03l-.02.01h-.01a.42.42 0 0 0-.29-.02.07.07 0 0 0-.03.03c-.1.16-.1.32-.1.53l-.01.03-.02.02-.02.01h-.02a.28.28 0 0 1-.12-.08.08.08 0 0 1-.02-.04L9.23 12l.01-.02h.02l.42.06h.01v-.01l.01-.01-.3-.87v-.06a.1.1 0 0 1 .03-.05l.08-.07a.11.11 0 0 0 .04-.06l-.01-.07-.37-.95a.44.44 0 0 1-.03-.2l.09-.38a99.29 99.29 0 0 1 .25-.89h-.03l-.47.12h-.02l-.01-.02V8.5a4.83 4.83 0 0 1 .21-.85l-.02-.02h-.02l-.46.07-.02-.01a.03.03 0 0 1 0-.03l.24-.52a.05.05 0 0 0 0-.04l-.02-.01h-.84Z" fill="#82448B"/><path d="M9.06 7.4v-.01l.13-.42h.01c.12.2.26.34.43.44.12.07.24.1.37.08h.02v.02l.01.01v.02l-.07.38c0 .08-.03.15-.08.2l-.03.02-.03-.01c-.13-.15-.28-.14-.46-.13h-.01l-.02-.01v-.04l.15-.48a.06.06 0 0 0 0-.04l-.02-.02h-.02c-.14 0-.3.03-.38 0Z" fill="#008097"/><path d="m10.43 7.05.01-.02h.04l.14.11.02.04v.04l-.15.38a.22.22 0 0 0 0 .16c.08.16.14.34.2.53.09.3-.01.54-.13.82a.07.07 0 0 0 0 .06l.28.4.01.06v.05l-.18.78c0 .02 0 .03-.02.05l-.03.02-.07.04a.02.02 0 0 1-.03 0v-.03l.06-.5a.17.17 0 0 0-.09-.17l-.02-.02v-.02a2 2 0 0 1-.05-.19 80.37 80.37 0 0 1-.07-.92l-.21-.3a10.38 10.38 0 0 1-.05-.5c-.01-.17.01-.32.07-.45a.2.2 0 0 1 .05-.06c.1-.11.18-.23.22-.36Z" fill="#D66F34"/><path d="M13.88 7.1h.03l.01.02v.02l-.06.65a.1.1 0 0 1-.02.04 5.9 5.9 0 0 0-1.48.9c-.12.08-.19.17-.29.27h-.04v-.03a.05.05 0 0 1 0-.03l1.03-1.43a.13.13 0 0 1 .05-.05l.77-.36Z" fill="#D82458"/><path d="M8.56 12.43a.02.02 0 0 1 0-.02l.28-.05.02-.01.02-.02a.06.06 0 0 0 0-.05l-.23-.76a.05.05 0 0 1 0-.04l.02-.01h.02a.97.97 0 0 0 .38.01.03.03 0 0 0 0-.03l-.33-.68a.02.02 0 0 1 0-.02h.01l.37.05h.02v-.03l-.48-1.05a.03.03 0 0 1 0-.03l.52-.88v-.03l-.02-.01h-.01l-.54.25H8.6V9l.26-.84a.07.07 0 0 0-.01-.06l-.02-.02h-.02l-.54.08h-.02l-.01-.01-.01-.02v-.02l.16-.58a.05.05 0 0 0 0-.03l-.02-.02H7.68v-.01l-.01-.02v-.01l.16-.2a.12.12 0 0 1 .04-.03.1.1 0 0 1 .04 0H8.74a.03.03 0 0 1 0 .03l-.26.57a.02.02 0 0 0 0 .02h.02L9 7.77h.02v.04l-.24.89v.02l.01.02.02.02h.02l.48-.2.02-.01h.01l.01.03v.02l-.32 1.1c-.02.07 0 .17.06.31a14.25 14.25 0 0 1 .34.9l-.02.03-.1.07a.08.08 0 0 0-.04.05.1.1 0 0 0 0 .06l.26.74v.03l-.02.01-.32-.06-.02-.01-.02-.02h-.04l-.01.02v.03l.1.72v.04l-.02.01h-.02l-.2-.03c-.13-.02-.3-.13-.41-.16Z" fill="#089449"/><path d="M8.92 9.01h.01v.03l-.37.65a.06.06 0 0 0 0 .05l.43.89a.02.02 0 0 1 0 .02l-.02.01-.38-.06-.02.02v.02l.35.7a.02.02 0 0 1 0 .02H8.9l-.37-.01-.02.01v.04l.24.8a.03.03 0 0 1 0 .03h-.01l-.35.06h-.05l-.36-.2-.02-.01v-.03a5.6 5.6 0 0 0 .33-2.18 4.6 4.6 0 0 0-.74-2.25H8.25v.02l-.14.61a.03.03 0 0 0 .01.03h.01l.01.01.56-.09h.02l.01.02v.03l-.3.94.01.02h.02l.47-.2Z" fill="#FDDB48"/><path d="m12.78 7.73-.83 1.16h-.02v-.01l-.07-.55V8.3l.9-.6s0-.01 0 0h.02v.02Z" fill="#C1D644"/><path d="m7.64 11.92-.02-.01-.01-.02a.07.07 0 0 1 0-.06c.04-.1.1-.33.16-.67.18-.94.1-1.82-.25-2.64-.09-.2-.21-.38-.3-.55v-.03l.19-.23a.01.01 0 0 1 .01 0 3.32 3.32 0 0 1 .64 1.43 4.4 4.4 0 0 1-.01 2.19 10.35 10.35 0 0 1-.21.65.06.06 0 0 1-.05 0l-.15-.06Z" fill="#008097"/><path d="M13.83 7.98a.02.02 0 0 1 .02 0V8l-.06 1.84v.03l-.02.01-.02.02h-.02a6.84 6.84 0 0 1-1.7-.75v-.02l.01-.01a9.01 9.01 0 0 1 1.8-1.14ZM7.74 9.88a4.56 4.56 0 0 1-.26 1.94.04.04 0 0 1-.04 0l-.22-.15a.07.07 0 0 1-.03-.03v-.05a3.76 3.76 0 0 0-.3-3.28l.02-.05.2-.19h.01a.04.04 0 0 1 .04 0l.02.01c.32.57.5 1.17.56 1.8Z" fill="#82448B"/><path d="m10.22 9.65-.7.3H9.5l-.02-.02v-.02l.48-1.72v-.02H10v.02l.05.93v.01l.18.48a.04.04 0 0 1 0 .03l-.01.01Z" fill="#FDDB48"/><path d="m7.09 11.55-.01.01-.01.01a.03.03 0 0 1-.04 0l-.26-.17a.06.06 0 0 1-.02-.03v-.04c.09-.24.17-.46.2-.68a2.3 2.3 0 0 0-.48-1.82v-.01l.31-.4a.01.01 0 0 1 .02 0c.6 1 .7 2.04.29 3.13Z" fill="#EF668F"/><path d="m10.29 9.5-.16-.38a.14.14 0 0 1 0-.05v-.45h.02c.1.12.15.24.15.43a8.86 8.86 0 0 0 0 .45h-.01Z" fill="#010304"/><path d="M6.63 11.3H6.6l-1.37-.87-.02-.02v-.06l1.12-1.4.02-.02a.04.04 0 0 1 .03 0l.01.01c.54.71.62 1.5.23 2.35Z" fill="#FDDB48"/><path d="M11.95 9.29v-.02h.02c.4.28.83.48 1.3.6a34.35 34.35 0 0 1 .5.15v.03l-.05 1.27v.02l-.02.02h-.02l-.02-.02c-.08-.12-.24-.3-.47-.52-.18-.18-.32-.38-.5-.57-.26-.29-.48-.56-.66-.8a.42.42 0 0 1-.08-.16Z" fill="#007EA4"/><path d="m10.24 9.83-.15.8v.04c.02.07.06.13.12.18a3.76 3.76 0 0 0-.22 1l-.01-.02-.15-.39v-.03l.02-.03.11-.06h.02l.01-.03a.07.07 0 0 0 0-.04l-.44-1.18a.03.03 0 0 1 0-.02v-.01l.63-.28h.05v.07Z" fill="#FDDB48"/><path d="M10.2 10.85a.33.33 0 0 1-.1-.18v-.05l.14-.8c.08-.02.15.04.2.19.01.03.02.06.01.09-.01.24-.02.4-.04.46a.48.48 0 0 1-.2.3Z" fill="#010304"/><path d="M10.13 12.2a.27.27 0 0 1-.04-.1c.04-.44.02-.98.35-1.32a.39.39 0 0 1 .23-.1l.25-.03c.64.06.57.78.47 1.34l-.01.03-.03.02-.3.15H11v-.04c.06-.23.09-.46.08-.7 0-.06-.03-.13-.1-.23a.1.1 0 0 0-.04-.03c-.16-.05-.32-.1-.43.06-.04.08-.1.16-.14.27-.05.16-.09.25-.14.45a1.75 1.75 0 0 1-.1.25l-.01-.01Z" fill="#82448B"/><path d="M11.01 11.75v.03l-.03.01h-.02l-.02-.02c-.04-.12-.1-.19-.16-.21-.21-.08-.32.56-.35.7 0 .03-.02.05-.04.08a.2.2 0 0 1-.07.06l-.05.03h-.04s-.02 0-.02-.02l-.02-.03v-.04l.27-.87a.66.66 0 0 1 .17-.24.1.1 0 0 1 .05-.02c.08-.02.16 0 .24.06l.08.08.02.13v.27Z" fill="#FDDB48"/><path d="M10.77 11.66c.08.04.1.14.1.25-.02.19-.02.26 0 .36 0 .03 0 .06-.03.08-.23.2-.42.47-.55.79 0 .01-.02.03-.04.03h-.05l-.46-.2a.11.11 0 0 1-.05-.04.14.14 0 0 1-.02-.07 1.25 1.25 0 0 1 .06-.48l.02-.02a.07.07 0 0 1 .06 0l.42.18h.04a.31.31 0 0 0 .21-.22c.08-.3.09-.47.21-.64a.07.07 0 0 1 .04-.03h.04Z" fill="#D82458"/><path d="M11.61 11.98c.1.05.18.05.27.02a.04.04 0 0 1 .04 0l.01.03v.1l-.04.02a1.93 1.93 0 0 0-1.27 1.07.15.15 0 0 1-.06.07.12.12 0 0 1-.1 0 .1.1 0 0 1-.03-.02.11.11 0 0 1-.03-.03.13.13 0 0 1 0-.1 1.7 1.7 0 0 1 1-1.02.34.34 0 0 0 .12-.11.18.18 0 0 1 .1-.03Z" fill="#046982"/><path d="M9.83 13.2h.01a.03.03 0 0 1 0 .03c-.2.06-.35.1-.49.1-.38.01-.76 0-1.13-.06-.2-.02-.32-.15-.38-.36-.06-.18-.08-.49.01-.67l.02-.01h.02c.05.01.09.05.1.09a.1.1 0 0 1 .01.05l-.01.24a.5.5 0 0 0 .29.4 32.98 32.98 0 0 1 .35.18c.29.06.55.02.8-.13a.1.1 0 0 1 .09 0l.31.13Z" fill="#2497AF"/><path d="M11.3 12.81a1.87 1.87 0 0 0-.44.63l-.02.01c-.03 0-.07-.01-.12-.04l-.02-.02v-.03c.05-.28.27-.55.47-.73.2-.18.49-.37.73-.34h.02l.01.03a.3.3 0 0 1 0 .14l-.01.03-.02.01a1.5 1.5 0 0 0-.6.31Z" fill="#D82458"/><path d="M9.3 12.98c0 .02 0 .03-.02.03a1.86 1.86 0 0 1-.6.05l-.4-.2a.3.3 0 0 1-.11-.1.37.37 0 0 1-.06-.13l-.03-.13v-.06a.1.1 0 0 1 .04-.05.08.08 0 0 1 .1-.01 13.75 13.75 0 0 0 1.09.6Z" fill="#089449"/><path d="m11.19 13.54-.02.01h-.02l-.13-.04h-.01v-.02l-.01-.01v-.02c.19-.47.49-.72.9-.82h.03v.11c0 .02-.03.03-.06.05-.3.15-.53.4-.68.74Z" fill="#FBF2AF"/><path d="M11.91 12.9h.01v.01h.02v.88l-.01.01h-.02l-.36-.1h-.02a.43.43 0 0 0-.2-.08h-.02l-.02-.02a.05.05 0 0 1 0-.04c.15-.3.36-.51.62-.65Z" fill="#089449"/><path d="M6.3 10.07c-.05 0-.08.02-.1.05a.13.13 0 0 0-.02.04.15.15 0 0 0 0 .11l.05.04c.03.03.08.03.12 0 .07-.05.08-.13.01-.23a.73.73 0 0 0 .05-.2v-.02l.02-.01h.03v.01l.01.01v.02c-.02.1 0 .2.04.32.03.06.04.11.04.16-.03.48-.56.41-.51-.06l.03-.15v-.04l-.02-.02a.18.18 0 0 1-.04-.05.04.04 0 0 1 0-.04l.01-.01h.04c.04.06.07.08.1.07.03-.01.04-.03.04-.07V9.9a.02.02 0 0 1 .03 0c.04.05.07.1.08.18Z" fill="#010304"/><path d="m6.3 10.07.06.01c.07.1.06.18 0 .22-.05.04-.1.04-.14.01a.12.12 0 0 1-.03-.04.15.15 0 0 1-.01-.11c0-.01 0-.03.02-.04.02-.03.05-.04.1-.05Z" fill="#fff"/></svg>