<!-- by TradingView --><svg xmlns="http://www.w3.org/2000/svg" width="18" height="18" viewBox="0 0 18 18"><path fill="#F0F3FA" d="M0 0h18v18H0z"/><path d="M6.37 8.17c-.63-.58-.85-1.88-.88-2.46-2.33 0-1.74 2.46-1.15 3.69l1.4 1.8.9-.38.83-1.42c-.1-.17-.47-.64-1.1-1.23z" fill="#A09B97"/><path d="M6.62 10.87c.74-2.26 2.8-6.58 5.06-5.77a8.43 8.43 0 0 1-1.2 4.55c.23-.55.13-1.26-.67-1.11-.97.18-1.15 1.29-1.4 1.76-.15.17-.72.46-1.79.57z" fill="#A09B97"/><path d="M4.51 11.83c.26-.3 1.11-.67 1.51-.82-.29.34-.32.9-.3 1.15.69.7 3.54.18 4.12-.2.47-.3.6-.78.61-.98 1.5.5 1.45.06 2.32 0 .87-.06 1.08.22 1.26.42.18.2 1.05.48.96.51a7.3 7.3 0 0 1-.8.05c-.23.05-.85.14-1.37.1-.66-.05-.78.05-1.57.3-.78.24-1.47.14-2.14.4-.68.25-1.62.24-2.3.24-.68 0-3.9-.46-3.8-.66.06-.17.74-.29 1.06-.32v-.19c-.03-.29.28-.36.44-.37-.12.14-.05.3 0 .37z" fill="#675E55"/></svg>