<!-- by TradingView --><svg xmlns="http://www.w3.org/2000/svg" width="18" height="18"><path fill="#F0F3FA" d="M0 0h18v18H0z"/><path d="M3.05 6.1v5.8L9 9 3.05 6.1z" fill="#EF3E42"/><path d="M9.03 9l.5-.25h5.46v.5H9.55l-.52-.26z" fill="#004990"/><path d="M3.05 11.9l2.32-1.12H3.05v1.12zm0-1.3h2.69l1-.5H3.06v.5zM15 8.76V6.1L9.52 8.76h5.47zm-5.46.47L15 11.9V9.23H9.53z" fill="#EF3E42"/><path d="M14.93 6H3v6h12V6h-.07zM14 7v4H4V7h10z" fill="#004990"/><path d="M5 10.96l-1.95.94V6.1L5 7.06v3.91z" fill="#004990"/></svg>