<!-- by TradingView --><svg xmlns="http://www.w3.org/2000/svg" width="18" height="18" viewBox="0 0 18 18"><path fill="#F0F3FA" d="M0 0h18v18H0z"/><path d="M6.98 6.27c-.24.27-.56.44-.92.44-.77 0-1.4-.8-1.4-1.8s.63-1.81 1.4-1.81c.43 0 .81.24 1.07.63h.8c.93.01 2.54.65 2.57 3.07v4.85c-.02.25.3.8.71.8h.77c-.02.5.17 1.62 1.02 2.47-1.63.26-4.85.05-5-2.93v-5.2c.01-.17-.37-.58-1.02-.52Z" fill="url(#aupztv5ij)"/><path fill-rule="evenodd" d="M5.74 6.71c.68 0 1.24-.83 1.24-1.85C6.98 3.83 6.42 3 5.74 3c-.69 0-1.24.83-1.24 1.86 0 1.02.55 1.85 1.24 1.85Zm-.06-.47c.52 0 .94-.62.94-1.38 0-.77-.42-1.39-.94-1.39-.51 0-.93.62-.93 1.39 0 .76.42 1.38.93 1.38Z" fill="#1D5B7E"/><path d="M7.09 3.3a.25.25 0 0 1 .34.1c.31.53.74 1.9-.1 3.14a.25.25 0 0 1-.42-.28c.7-1.01.35-2.17.09-2.62a.25.25 0 0 1 .09-.34Zm.92 4.14a.25.25 0 0 1 .34.11c.04.08.13.19.27.29.14.1.3.17.49.2.17.04.36.03.54-.05.18-.07.36-.21.54-.47a.25.25 0 1 1 .4.29c-.21.32-.47.53-.75.65-.28.11-.57.12-.82.07-.26-.04-.5-.15-.68-.28-.19-.13-.35-.3-.44-.47a.25.25 0 0 1 .11-.34Zm.34 3.6a.25.25 0 1 0-.45.23c.17.33.61.67 1.11.76.26.05.55.04.83-.08.28-.11.54-.33.76-.66a.25.25 0 0 0-.42-.27c-.17.26-.36.4-.53.47a.93.93 0 0 1-.54.05 1.15 1.15 0 0 1-.76-.5Z" fill="#1D5B7E"/><defs><linearGradient id="aupztv5ij" x1="8.83" y1="3.1" x2="8.83" y2="15" gradientUnits="userSpaceOnUse"><stop stop-color="#C2E3EC"/><stop offset=".87" stop-color="#007DA5"/></linearGradient></defs></svg>