<!-- by TradingView --><svg width="18" height="18" viewBox="0 0 18 18" xmlns="http://www.w3.org/2000/svg"><path fill="#F0F3FA" d="M0 0h18v18H0z"/><path d="M10.84 4.44c0-.24.2-.44.44-.44C12.62 4 14 5.18 14 6.6c0 .99-.43 1.88-1.26 2.38A2.79 2.79 0 0 1 14 11.2c0 1.62-1.34 2.8-2.92 2.8C9.46 14 8 12.82 8 11.2V8.98C8 7.84 7.57 7 6.52 7 5.5 7 5.02 7.57 5 8.65v2.9c0 .25-.32.45-.56.45a.44.44 0 0 1-.44-.44V8.64C4.02 7.13 5.1 6 6.52 6 8 6 9 7 9 8.98v2.22c0 1.18.87 1.83 2.08 1.83 1.16 0 1.92-.64 1.92-1.83 0-1-.76-1.76-1.71-1.75a.44.44 0 0 1-.08-.87C12.3 8.4 13 7.83 13 6.6c0-.95-.82-1.73-1.72-1.73a.44.44 0 0 1-.44-.44Z" fill="#699816"/></svg>