<!-- by TradingView --><svg width="18" height="18" viewBox="0 0 18 18" xmlns="http://www.w3.org/2000/svg"><path fill="#22A2AF" d="M0 0h18v18H0z"/><ellipse cx="9" cy="9" rx="7" ry="5" fill="#F0F3FA"/><path fill-rule="evenodd" d="M13.66 12.13c1.17-.84 1.84-1.95 1.84-3.13s-.67-2.29-1.84-3.13A8.08 8.08 0 0 0 9 4.5c-1.84 0-3.49.53-4.66 1.37C3.17 6.71 2.5 7.82 2.5 9s.67 2.29 1.84 3.13A8.08 8.08 0 0 0 9 13.5c1.84 0 3.49-.53 4.66-1.37ZM9 14c3.87 0 7-2.24 7-5s-3.13-5-7-5-7 2.24-7 5 3.13 5 7 5Z" fill="#C69B58"/><path d="M7.5 7h-4c.67-.67 2.7-2 5.5-2s4.83 1.33 5.5 2h-4v-.5L9 6l-1.5.5V7ZM9 13a9.8 9.8 0 0 1-5.5-2h11c-.83.67-3.1 2-5.5 2Z" fill="#007581"/><path fill="#605D5D" d="M3 8h4v1H3zM10 7H8l1-.5 1 .5ZM11 8h4v1h-4zM8.5 9.5a.5.5 0 0 1 1 0V11h-1V9.5ZM11 9.5h4v.5h-4v-.5ZM3 9.5h4v.5H3v-.5ZM8 8.5v-1h2v1H8ZM7.5 11v-.5H8v.5h-.5ZM10 11v-.5h.5v.5H10Z"/></svg>