<!-- by TradingView --><svg width="18" height="18" viewBox="0 0 18 18" xmlns="http://www.w3.org/2000/svg"><path fill="url(#ajovblhqt)" d="M0 0h18v18H0z"/><path d="M5.5 12H4V6h1.44l.07.94.14-.18a1.93 1.93 0 0 1 2.47-.52c.76.43.87 1.31.88 2.1V12H7.5V8.2c-.03-.7-.6-1.13-1.33-.92-.22.07-.68.26-.67.55V12ZM10 4h.5v2.94c.4-.52.71-.92 1.43-.94C13.91 6 14 7.9 14 9.52c0 1.35-.66 2.58-2.12 2.47-.64-.02-1-.4-1.38-.9V12H10V4Zm3.5 5.25c0-1.1-.14-2.75-1.53-2.75-.78 0-1.46.87-1.47 1.65v1.77c-.01.73.8 1.57 1.43 1.58 1.22.02 1.57-1.15 1.57-2.25Z" fill="#fff"/><defs><linearGradient id="ajovblhqt" x1="3.35" y1="3.12" x2="21.9" y2="24.43" gradientUnits="userSpaceOnUse"><stop stop-color="#1A1E21"/><stop offset="1" stop-color="#06060A"/></linearGradient></defs></svg>