<!-- by TradingView --><svg xmlns="http://www.w3.org/2000/svg" width="18" height="18"><path fill="#F0F3FA" d="M0 0h18v18H0z"/><path d="M10.55 5.93a8.44 8.44 0 013.77 2.86c.42.61.73 1.15.67 1.92-.15 1.67-1.8 2.29-3.64 2.29-1.67 0-3.32-.5-4.35-1 .98.13 2.2.2 3.1.13 1.74-.25 3.64-.78 3.58-2.83-.02-.92-.99-1.85-1.78-2.31-1.6-.93-4.31-1.42-6.23-.45-.62.3-2.1 1.4-1.67 2.98 0 .01-.42-.53-.63-.88A2.25 2.25 0 013 7.52c0-.65.2-1.04.54-1.39.8-.8 1.9-1.18 3.37-1.12 1.41.05 2.6.47 3.64.92zm-6.9 1.14c.17-.31.4-.7.95-1.04a5.68 5.68 0 011.8-.7c.14-.03.2-.04.08-.05a3.57 3.57 0 00-2.5.75c-.38.33-.6.78-.66 1.49.13-.11.22-.27.32-.45zm7.2 5.52c.93.21 2.17.17 2.92-.35.73-.5.78-.92.86-1.66l.01-.1c-.05.5-.55 1.09-1.61 1.56-.88.4-1.72.47-2.08.5-.17.02-.23.03-.1.05zM11 9a2 2 0 01-2 2 2 2 0 01-2-2c0-1.1.9-2 2-2a2 2 0 012 2zm-3.35-.05s.2-.44.46-.73c.2-.2.5-.34.7-.43.13-.06.2-.1.15-.11-.15-.04-.72-.05-1.04.26-.32.31-.27 1-.27 1z" fill="#005288"/></svg>