<!-- by TradingView --><svg width="18" height="18" viewBox="0 0 18 18" xmlns="http://www.w3.org/2000/svg"><path fill="#F0F3FA" d="M0 0h18v18H0z"/><path d="M8.38 10h3.9C13.35 10 14 9.48 14 8.5S13.35 7 12.28 7h-2l.52-.91a.2.2 0 0 1 .17-.09h1.35C13.9 6 15 6.93 15 8.38 15 9.81 13.9 11 12.32 11H7.79l-.52.91a.21.21 0 0 1-.18.09H5.68C4.06 12 3 10.88 3 9.5S4.06 7 5.68 7h4.64l-.54.92a.21.21 0 0 1-.17.08h-3.9C4.63 8 4 8.53 4 9.46 4 10.4 4.63 11 5.71 11H7.7l.52-.88c.04-.05.1-.12.17-.12Z" fill="#080705"/><path opacity=".2" fill="#080705" d="M8 8h2v2H8z"/></svg>