<!-- by TradingView --><svg width="18" height="18" viewBox="0 0 18 18" xmlns="http://www.w3.org/2000/svg"><path fill="#C33D32" d="M0 0h18v18H0z"/><path d="M13.89 9.52c-.3 0-.65.08-1 .23a2.7 2.7 0 0 0-.92.58c-.19.2-.19.3-.19.35.04.04.15.11.38.11.31 0 .7-.07 1.08-.23.38-.15.69-.35.92-.58.19-.2.19-.3.19-.35-.04-.03-.15-.11-.38-.11h-.08ZM9.4 5.62A4.72 4.72 0 0 0 5 12.15l.15.34c.27-.3.65-.58 1.19-.77.5-.2 1-.3 1.38-.27l-.16-.39a2 2 0 0 1 1.08-2.58 2.04 2.04 0 0 1 2.64 1.08l.16.38.03-.03a3.7 3.7 0 0 1 2.5-1H14l-.15-.4a4.7 4.7 0 0 0-4.45-2.9Zm-3.9 7.6c.03.12.6.24 1.45-.07.38-.15.7-.35.92-.58.2-.2.2-.3.2-.35-.05-.11-.62-.23-1.46.08-.85.3-1.2.81-1.12.93Zm.45.74c-.5 0-.92-.2-1.03-.5l-.46-1.12a5.28 5.28 0 0 1 2.91-6.95 5.58 5.58 0 0 1 4.18 0 5.44 5.44 0 0 1 2.95 2.9l.46 1.11c.08.2.16.54-.3 1a3.7 3.7 0 0 1-2.5 1.01c-.5-.04-.84-.2-.95-.5l-.5-1.12a1.4 1.4 0 0 0-1.84-.73 1.39 1.39 0 0 0-.77 1.77l.46 1.12c.08.2.15.54-.3 1a3.7 3.7 0 0 1-1.16.74c-.38.2-.8.27-1.15.27Z" fill="#FFD77E"/></svg>