<!-- by TradingView --><svg width="18" height="18" viewBox="0 0 18 18" xmlns="http://www.w3.org/2000/svg"><path fill="#F0F3FA" d="M0 0h18v18H0z"/><path fill-rule="evenodd" d="M8.5 3.84 7.5 3l-1 .84a6.55 6.55 0 0 0 0 10.32l1 .84 1-.84a6.55 6.55 0 0 0 0-10.32Zm-.47.36-.52-.45-.54.46A6.26 6.26 0 0 0 4.66 9c0 1.73.74 3.47 2.3 4.8l.53.45.54-.46A6.26 6.26 0 0 0 10.34 9c0-1.73-.74-3.47-2.3-4.8Z" fill="#D1CF26"/><path fill-rule="evenodd" d="M9.5 3.84 8.5 3l-1 .84a6.55 6.55 0 0 0 0 10.32l1 .84 1-.84a6.55 6.55 0 0 0 0-10.32Zm-.47.36-.53-.45-.54.46A6.24 6.24 0 0 0 5.66 9c0 1.73.75 3.47 2.31 4.8l.53.45.54-.46A6.24 6.24 0 0 0 11.34 9c0-1.73-.75-3.47-2.31-4.8Z" fill="url(#asdgt1zh0)"/><path fill-rule="evenodd" d="M10.5 3.84 9.5 3l-1 .84a6.55 6.55 0 0 0 0 10.32l1 .84 1-.84a6.55 6.55 0 0 0 0-10.32Zm-.47.36-.53-.45-.54.46A6.23 6.23 0 0 0 6.66 9c0 1.75.75 3.47 2.31 4.8l.53.45.54-.46A6.23 6.23 0 0 0 12.34 9c0-1.75-.75-3.47-2.31-4.8Z" fill="url(#bsdgt1zh0)"/><path fill-rule="evenodd" d="m11.5 3.84-1-.84-1 .84a6.55 6.55 0 0 0 0 10.32l1 .84 1-.84a6.55 6.55 0 0 0 0-10.32Zm-.47.36-.53-.45-.54.46A6.23 6.23 0 0 0 7.66 9c0 1.75.75 3.47 2.31 4.8l.53.45.54-.46A6.23 6.23 0 0 0 13.34 9c0-1.75-.75-3.47-2.31-4.8Z" fill="url(#csdgt1zh0)"/><defs><linearGradient id="asdgt1zh0" x1="5" y1="9" x2="12.01" y2="9" gradientUnits="userSpaceOnUse"><stop stop-color="#10B3AA"/><stop offset="1" stop-color="#86C449"/></linearGradient><linearGradient id="bsdgt1zh0" x1="6" y1="9" x2="13.01" y2="9" gradientUnits="userSpaceOnUse"><stop stop-color="#1AA3DA"/><stop offset="1" stop-color="#21B064"/></linearGradient><linearGradient id="csdgt1zh0" x1="7" y1="9" x2="14.01" y2="9" gradientUnits="userSpaceOnUse"><stop stop-color="#046AAE"/><stop offset="1" stop-color="#008A62"/></linearGradient></defs></svg>