<!-- by TradingView --><svg width="18" height="18" viewBox="0 0 18 18" xmlns="http://www.w3.org/2000/svg"><path fill="#F0F3FA" d="M0 0h18v18H0z"/><path d="M5.86 12.91a5.53 5.53 0 0 1-1.13-1.66 4.9 4.9 0 0 1 .09-4.69 5.48 5.48 0 0 1 7.9-2.24 5.94 5.94 0 0 0-7.97.43 6.02 6.02 0 0 0 0 8.49 5.94 5.94 0 0 0 7.95.44 5.48 5.48 0 0 1-6.84-.77Z" fill="url(#auhax0sla)"/><path d="M12.48 5.54a4.9 4.9 0 0 1 0 6.9 4.83 4.83 0 0 1-6.02.66 5.23 5.23 0 0 0 7-.38 5.3 5.3 0 0 0 0-7.47 5.23 5.23 0 0 0-7-.39 4.83 4.83 0 0 1 6.02.68Z" fill="url(#buhax0sla)"/><path d="M4.5 9a4.5 4.5 0 1 1 9 0 4.5 4.5 0 0 1-9 0Zm1.48-3.02A4.26 4.26 0 0 0 9 13.27a4.25 4.25 0 0 0 3.02-7.29 4.26 4.26 0 0 0-6.04 0Z" fill="#1F417C"/><path d="M12.09 8.48c.28-.2.56-.5.56-.9 0-.27-.16-.76-1.06-.76l-.74.01h-.15l.02-.23c0-.03-.01-.06-.04-.06-.02 0-.04.03-.08.07-.05.05-.12.07-.24.08h-.9c-.02 0-.03-.01-.03-.04V5.38c0-.03.02-.04.04-.04.1 0 .7 0 .8.02.25.02.3.1.33.19a.5.5 0 0 1 .04.18c0 .04 0 .07.04.07s.05-.06.05-.09c.02-.06.03-.28.03-.33.01-.24.04-.3.04-.33 0-.03 0-.05-.03-.05l-.08.02c-.04.01-.12.03-.22.03H8.35c-.07 0-.11 0-.11.04s.03.05.09.05a.9.9 0 0 1 .2.02c.16.05.2.1.22.28v.87h-.13l-.6-.01c-.08 0-.14 0-.14.05 0 .03.02.05.08.05.07 0 .2 0 .27.03.12.05.16.16.17.48l.04 1.88v.11l.01.42h-.02c-.09-.08-.77-.86-1.11-1.22-.74-.78-1.5-1.65-1.56-1.72-.09-.1-.13-.17-.19-.17-.05 0-.06.07-.06.18l-.05 3.18c0 .47-.02.62-.15.67a.85.85 0 0 1-.23.02c-.05 0-.08.02-.08.05 0 .05.05.05.11.05l.54-.01.63.01c.07 0 .11 0 .11-.05 0-.04-.03-.05-.08-.05-.08 0-.18 0-.26-.03-.1-.04-.17-.18-.18-.6l-.06-2.26h.02c.1.1.65.78 1.2 1.36.42.45.92 1 1.27 1.36-.3.37-.37.8-.37 1.07 0 .44.12.96.56 1.35.4.36.9.49 1.51.49.29 0 .62-.1.8-.17.07-.03.2-.62.2-.67 0-.04-.01-.08-.04-.08-.04 0-.05.02-.06.09a.75.75 0 0 1-.15.3c-.17.21-.39.25-.78.25-.6 0-1.37-.52-1.37-1.6 0-.24.02-.48.1-.7.02-.07.02-.08.05-.13.06-.13.14-.25.25-.35.2-.19.45-.26.83-.26.32 0 .57.07.74.17l-.02.43c-.02.15-.05.25-.15.27a.68.68 0 0 1-.17.02c-.06 0-.08.03-.08.06s.03.05.1.05l.34-.01h.28a16.81 16.81 0 0 1 .81.02c.92 0 1.32-.56 1.32-1.11 0-.6-.5-.97-.91-1.1Zm-.88-1.33c0-.06.01-.08.05-.09h.21c.43 0 .62.42.62.76 0 .25-.1.43-.23.54-.08.07-.22.1-.38.1-.12 0-.19-.01-.23-.03-.02 0-.04 0-.04-.05V7.15Zm-1.78.29v-.41c0-.03.01-.05.03-.05.13 0 .7 0 .8.02.2.02.25.1.28.2.02.06.02.13.02.18l.01.03V8.57c-.13.04-.32.05-.45.05-.52 0-.67-.08-.69-.43v-.75Zm1.06 2.04c-.2-.03-.36-.05-.64-.05-.47 0-.82.1-1.1.26l.02-.8H9.65c.24.02.55.02.92.02v.59l-.08-.02Zm1.25.96c-.11 0-.22 0-.35-.05-.16-.07-.18-.17-.18-.5V8.71c0-.03.01-.03.03-.03h.21c.2 0 .33.05.43.13.37.27.47.67.47.9 0 .57-.34.72-.6.72Z" fill="#1F417C"/><defs><linearGradient id="auhax0sla" x1="5.81" y1="2.16" x2="9.98" y2="12.42" gradientUnits="userSpaceOnUse"><stop offset=".28" stop-color="#1F417C"/><stop offset=".48" stop-color="#fff"/><stop offset=".66" stop-color="#1F417C"/></linearGradient><linearGradient id="buhax0sla" x1="12.26" y1="13.63" x2="9.62" y2="8.19" gradientUnits="userSpaceOnUse"><stop offset=".28" stop-color="#B4975A"/><stop offset=".48" stop-color="#fff"/><stop offset=".66" stop-color="#B4975A"/></linearGradient></defs></svg>