<!-- by TradingView --><svg xmlns="http://www.w3.org/2000/svg" width="18" height="18"><path fill="#F0F3FA" d="M0 0h18v18H0z"/><path d="M14.64 5.32c-.41-.25-.9-.35-1.42-.31a6.16 6.16 0 00-4.23 2.58c-1.17 1.75-.8 3.97.84 4.95.48.29 1.01.44 1.56.46a4.1 4.1 0 003.43-1.9 6.24 6.24 0 001.06-3.05c.04-1.16-.39-2.22-1.24-2.73z" fill="url(#a500mmnsp)"/><path d="M10.23 5h-.19a6.06 6.06 0 00-4.17 2.58 4 4 0 00-.7 2.2A3.2 3.2 0 008.25 13c.54.02 1.08-.08 1.46-.32-1.4-.7-1.7-2.1-1.7-3.05.03-.84.3-1.58.64-2.06a6.3 6.3 0 012.8-2.24c0-.12 0-.07 0 0a2.26 2.26 0 00-1.2-.33z" fill="url(#b500mmnsp)"/><path opacity=".3" d="M8.98 12.18c-.25.09-.57.14-.8.14-.55 0-1.05-.18-1.48-.58a2.82 2.82 0 01-.83-2.07c0-.82.29-1.7.84-2.43.81-1.1 2.1-1.98 3.25-1.93.31.02.6.12.8.33-1.03.57-2.25 1.65-2.64 3.02-.07.27-.12.59-.12.88 0 .79.11 1.84.98 2.64z" fill="url(#c500mmnsp)"/><path opacity=".6" d="M10.2 5.98a5.26 5.26 0 00-2.13 2.83 4 4 0 00-.07.74c0 .86.2 1.78.75 2.43h-.23a1.67 1.67 0 01-.93-.35 2.5 2.5 0 01-1.02-2.08c0-.55.17-1.12.47-1.64a4.44 4.44 0 013.17-1.93z" fill="url(#d500mmnsp)"/><path opacity=".9" d="M7.26 9.28c0 1.02.61 1.3.86 1.4a4.03 4.03 0 01.45-2.99c-.43.07-1.3.75-1.3 1.6z" fill="url(#e500mmnsp)"/><path d="M6.83 5a2.58 2.58 0 011.43.33 6.34 6.34 0 00-2.8 2.26 4.04 4.04 0 00-.68 2.14 3.21 3.21 0 001.8 3c-.5.2-1.03.27-1.54.27a3.13 3.13 0 01-1.53-.44A3.23 3.23 0 012 9.73c.01-.72.25-1.46.69-2.14C3.55 6.27 5.3 5 6.83 5z" fill="url(#f500mmnsp)"/><path opacity=".86" d="M9.56 8H16l-.55 2H9l.56-2z" fill="#002D6A"/><defs><linearGradient id="a500mmnsp" x1="13.86" y1="2.99" x2="9.67" y2="13.93" gradientUnits="userSpaceOnUse"><stop offset=".26" stop-color="#C3C9C9"/><stop offset=".39" stop-color="#D6D9DB"/><stop offset=".52" stop-color="#EBECEE"/><stop offset=".82" stop-color="#C3C4C9"/></linearGradient><linearGradient id="b500mmnsp" x1="10.19" y1="4.73" x2="6.3" y2="13.77" gradientUnits="userSpaceOnUse"><stop offset=".13" stop-color="#F7592F"/><stop offset=".58" stop-color="#F19A25"/><stop offset=".89" stop-color="#FF5733"/></linearGradient><linearGradient id="c500mmnsp" x1="9.22" y1="2.49" x2="5.91" y2="14.06" gradientUnits="userSpaceOnUse"><stop offset=".23" stop-color="#F08528"/><stop offset=".26" stop-color="#F19926"/><stop offset=".35" stop-color="#F4B621"/><stop offset=".41" stop-color="#F5C220"/><stop offset=".53" stop-color="#F6D51E"/><stop offset=".71" stop-color="#F3AB23"/><stop offset=".86" stop-color="#EF7E29" stop-opacity="0"/></linearGradient><linearGradient id="d500mmnsp" x1="9.96" y1="5.98" x2="9.63" y2="12.24" gradientUnits="userSpaceOnUse"><stop offset=".03" stop-color="#F5692D"/><stop offset=".1" stop-color="#F48629"/><stop offset=".22" stop-color="#F5C71F"/><stop offset=".35" stop-color="#FDD953" stop-opacity=".62"/><stop offset=".52" stop-color="#F6EA56" stop-opacity=".51"/><stop offset=".59" stop-color="#FCD552" stop-opacity=".64"/><stop offset=".69" stop-color="#FBCE4F"/><stop offset=".76" stop-color="#F3AD23"/><stop offset="1" stop-color="#EF7E29"/></linearGradient><linearGradient id="e500mmnsp" x1="8.76" y1="7.6" x2="6.94" y2="10.1" gradientUnits="userSpaceOnUse"><stop offset=".16" stop-color="#FFE759" stop-opacity=".3"/><stop offset=".55" stop-color="#F5ED58" stop-opacity=".97"/><stop offset=".9" stop-color="#FFE759" stop-opacity=".53"/></linearGradient><linearGradient id="f500mmnsp" x1="8.88" y1="3.12" x2="3.52" y2="13.81" gradientUnits="userSpaceOnUse"><stop offset=".3" stop-color="#C3C9C9"/><stop offset=".45" stop-color="#D6D9DB"/><stop offset=".58" stop-color="#EBECEE"/><stop offset=".85" stop-color="#C3C4C9"/></linearGradient></defs></svg>