<!-- by TradingView --><svg xmlns="http://www.w3.org/2000/svg" width="18" height="18"><path fill="#000852" d="M0 0h18v18H0z"/><path d="M13.89 7.83c.08-.22.11-.5.11-.72 0-1.42-1.2-2.55-2.72-2.58-.17 0-.23-.06-.37-.11A4.35 4.35 0 009 4c-.68 0-1.31.14-1.91.39-.15.06-.23.11-.38.11C5.2 4.53 4 5.67 4 7.08c0 .3.06.59.14.84.06.14.12.25.09.5v.22c0 1.55.8 2.94 2.03 3.8.26.1.39.33.46.42A2.78 2.78 0 009 14c.91 0 1.74-.44 2.26-1.14.13-.15.3-.31.49-.39a4.66 4.66 0 002.03-3.8c0-.14-.03-.28 0-.45 0-.05.06-.22.12-.39zM5.92 6.58c-.43.59-1.03.9-1.32.7-.29-.2-.2-.84.23-1.42.43-.58 1.06-.89 1.35-.7.28.2.17.84-.26 1.42zm3.04 6.98c-1.12 0-1.78-1.23-1.78-2.25 0-1.03.77-1.8 1.78-1.8.97 0 1.77.74 1.77 1.8-.02 1.08-.66 2.25-1.77 2.25zm4.41-6.28c-.29.2-.89-.09-1.32-.7-.43-.58-.54-1.22-.26-1.41.29-.2.92.08 1.35.7.4.57.52 1.21.23 1.4z" fill="#fff"/></svg>