<!-- by TradingView --><svg xmlns="http://www.w3.org/2000/svg" width="18" height="18"><path d="M0 9a9 9 0 1118 0A9 9 0 010 9z" fill="#F0F3FA"/><path d="M8.7 3.1L4 5.97l1.6 2.4L8.7 3.1z" fill="#70BED8"/><path d="M9.16 3L7.5 6h3.11L14 11.27v-5.3L9.16 3z" fill="#236555"/><path d="M9.16 3l-1.5 3h2.96L9.16 3z" fill="url(#a2ep5jtna)"/><path d="M9.3 14.9l4.7-2.88-1.6-2.4-3.1 5.29z" fill="#71BED8"/><path d="M8.84 15l1.5-2.74H7.39L4 6.73v5.3L8.84 15z" fill="#236555"/><path d="M8.84 15l1.69-3H7.21l1.63 3z" fill="url(#b2ep5jtna)"/><defs><linearGradient id="a2ep5jtna" x1="10.07" y1="4.65" x2="8.16" y2="4.65" gradientUnits="userSpaceOnUse"><stop stop-color="#034532"/><stop offset="1" stop-color="#246654"/></linearGradient><linearGradient id="b2ep5jtna" x1="7.93" y1="13.35" x2="9.85" y2="13.35" gradientUnits="userSpaceOnUse"><stop stop-color="#034532"/><stop offset="1" stop-color="#246654"/></linearGradient></defs></svg>