<!-- by TradingView --><svg width="18" height="18" viewBox="0 0 18 18" xmlns="http://www.w3.org/2000/svg"><path fill="#F0F3FA" d="M0 0h18v18H0z"/><path d="m16 6-4.45 1.72c-.51.22-1.51.95-1.81 1.8-.11.26-.41 1.14-.71 2.58v.07c-.3-1.45-.6-2.32-.72-2.58A3.69 3.69 0 0 0 6.5 7.8L2.05 6.07c.25 1.34.95 1.55 1.38 1.6a12 12 0 0 1 2.82.66 3.3 3.3 0 0 1 1.82 2.07l.96 3.6v-.07l.95-3.6a3.3 3.3 0 0 1 1.83-2.07 12 12 0 0 1 2.82-.67c.42-.04 1.12-.25 1.37-1.59ZM2.75 7.9 2 7.77c.28 1.51 2.08 3.07 2.08 3.07 3.1 2.74 3.87 2.27 4.05 2.16l.04-.02c-2.37-.96-4.6-3.79-5.42-5.08Zm4.53 1.68c-.7-1.21-3.11-1.62-4.23-1.68 1.9 3.02 4.31 4.5 5.28 4.87-.13-.41-.2-.74-.25-1.05a5.66 5.66 0 0 0-.8-2.14ZM16 7.78l-.75.12c-.82 1.3-3.05 4.12-5.42 5.08l.04.02c.18.1.95.58 4.05-2.16 0 0 1.8-1.56 2.08-3.07Zm-1.05.12c-1.12.06-3.53.47-4.23 1.68-.58 1-.69 1.54-.8 2.14-.06.31-.12.64-.25 1.05.97-.36 3.38-1.85 5.28-4.87Z"/></svg>