<!-- by TradingView --><svg width="18" height="18" viewBox="0 0 18 18" xmlns="http://www.w3.org/2000/svg"><path fill="#F0F3FA" d="M0 0h18v18H0z"/><path fill-rule="evenodd" d="M7 13.6c.27.84 1.08 1.4 2 1.4.92 0 1.73-.56 2-1.4.16-.5.1-.96-.17-1.45a7.8 7.8 0 0 0-1.16-1.6.12.12 0 0 1 0-.1l.04-.03.36-.25a.13.13 0 0 1 .18.03c.4.64.9 1.3 1.5 1.76.85.63 2.1.38 2.77-.37.9-1.03.48-2.56-.82-3.1-.85-.34-2.23.14-3.02.47a.13.13 0 0 1-.15-.03.12.12 0 0 1-.02-.05l-.14-.4a.12.12 0 0 1 .01-.1.13.13 0 0 1 .09-.05 8.44 8.44 0 0 0 1.84-.6c2.02-.92 1.29-3.69-.87-3.73-.78-.01-1.55.4-1.89 1.1-.1.2-.16.44-.2.74a7.84 7.84 0 0 0-.01 1.78.09.09 0 0 1-.04.05 3.12 3.12 0 0 1-.59 0 .1.1 0 0 1-.05-.05v-.03a7.8 7.8 0 0 0-.01-1.75c-.04-.3-.1-.55-.2-.74A2.07 2.07 0 0 0 6.57 4c-2.16.04-2.9 2.8-.88 3.73a8.47 8.47 0 0 0 1.9.62.12.12 0 0 1 .04.09v.05l-.14.4a.12.12 0 0 1-.07.07.13.13 0 0 1-.1 0c-.79-.33-2.17-.81-3.02-.46-1.3.53-1.73 2.06-.82 3.09.66.75 1.92 1 2.76.36a6.64 6.64 0 0 0 1.55-1.78.13.13 0 0 1 .1-.02c.01 0 .03 0 .04.02l.36.25a.12.12 0 0 1 .05.08.12.12 0 0 1-.03.1c-.44.47-.84.99-1.14 1.55-.27.49-.33.95-.17 1.44Zm5.19-8.63c.58.42.68 1.17.27 1.74-.34.47-1.62.77-2.16.88-.05.01-.1 0-.12-.02-.03-.02-.05-.05-.06-.1-.04-.54-.1-1.8.27-2.25a1.32 1.32 0 0 1 1.8-.25ZM5.83 5c.57-.42 1.35-.3 1.8.24.37.45.3 1.71.26 2.24 0 .05-.02.09-.05.11-.03.02-.08.03-.12.02-.55-.1-1.82-.41-2.16-.88A1.2 1.2 0 0 1 5.83 5ZM9.5 8.45a3.41 3.41 0 0 0-.5-.02c-.34 0-.5 0-.52.02-.02.01-.08.16-.18.46-.1.3-.15.46-.14.48 0 .02.14.12.4.3.27.19.41.28.43.28.02 0 .16-.1.43-.28.26-.18.4-.28.4-.3 0-.02-.04-.18-.14-.48s-.16-.45-.18-.46Zm-5.65 2.26c-.22-.66.15-1.33.83-1.56.56-.19 1.78.28 2.29.5.04.02.07.04.08.08.01.04 0 .07-.02.12-.28.46-1 1.51-1.57 1.67a1.3 1.3 0 0 1-1.61-.81Zm8.66.81c.69.2 1.39-.14 1.61-.8.22-.67-.15-1.33-.83-1.56-.56-.2-1.78.27-2.28.48-.05.02-.08.05-.1.09 0 .03 0 .07.03.11.28.46 1 1.52 1.57 1.68ZM9 11.02c.04 0 .08.02.11.06.37.4 1.2 1.38 1.18 1.96-.02.69-.57 1.23-1.3 1.23-.71 0-1.26-.55-1.28-1.24-.02-.57.81-1.55 1.18-1.95.04-.04.07-.06.11-.06Z" fill="url(#a)"/><defs><linearGradient id="a" x1="3.36" y1="9.92" x2="14.4" y2="9.73" gradientUnits="userSpaceOnUse"><stop stop-color="#66C8F1"/><stop offset="1" stop-color="#579AF3"/></linearGradient></defs></svg>