<!-- by TradingView --><svg width="18" height="18" viewBox="0 0 18 18" xmlns="http://www.w3.org/2000/svg"><path fill="#F0F3FA" d="M0 0h18v18H0z"/><path d="M7.13 5h.05c.7.03 1.38.28 1.95.68.66.44 1.37.86 2.17.99.42.07.86.02 1.25-.15.43-.17.84-.4 1.2-.67.08-.06.16-.1.25-.12-.02.2-.16.37-.28.53-.36.47-.77.9-1.26 1.24a2.3 2.3 0 0 1-.87.37c-.59.1-1.19-.02-1.72-.27-.35-.17-.65-.42-.98-.63a5.98 5.98 0 0 0-1.42-.7c-1-.25-2.09-.16-3.02.28-.14.06-.28.16-.45.17.1-.33.36-.59.6-.82A3.82 3.82 0 0 1 7.13 5ZM6.22 7.65c.38-.08.78-.12 1.17-.09.39.05.77.15 1.12.32.38.16.69.41 1.04.62.44.27.91.51 1.42.65.43.12.9.15 1.33.01.57-.19 1.1-.5 1.58-.85l.11-.02c-.01.22-.18.38-.3.55-.4.52-.86 1-1.44 1.34-.43.25-.95.32-1.44.24a3.17 3.17 0 0 1-1.32-.5 8.61 8.61 0 0 0-1.66-.97 4.44 4.44 0 0 0-3.4.15c-.14.06-.26.17-.42.17 0-.14.1-.25.18-.37a3.38 3.38 0 0 1 2.03-1.25ZM4.38 11.21a3.67 3.67 0 0 1 4.25-.73c.33.16.63.4.95.6.57.33 1.2.63 1.86.7.34.03.68.01 1-.11.5-.2.98-.45 1.4-.78.04-.05.1-.04.16-.04a.6.6 0 0 1-.09.24c-.23.35-.51.67-.8.98a3 3 0 0 1-1.53.9 3.05 3.05 0 0 1-2.16-.54c-.4-.3-.83-.56-1.27-.79a4.02 4.02 0 0 0-2.38-.37c-.52.07-1.03.21-1.5.46a.51.51 0 0 1-.27.08c.06-.23.22-.42.38-.6Z" fill="#DB9C27"/></svg>