<!-- by TradingView --><svg width="18" height="18" viewBox="0 0 18 18" xmlns="http://www.w3.org/2000/svg"><path fill="#F0F3FA" d="M0 0h18v18H0z"/><path fill-rule="evenodd" d="M9 6a4.03 4.03 0 0 0-4 4.06A4.07 4.07 0 0 0 9.05 14 4.03 4.03 0 0 0 13 10.01c0-2.1-1.76-4-4-4.01Zm.25.29a3.83 3.83 0 0 0-3.8 3.77 3.77 3.77 0 0 0 3.7 3.65 3.71 3.71 0 0 0 .1-7.43Z" fill="#0A3963"/><path fill-rule="evenodd" d="M8.97 13A4.03 4.03 0 0 0 13 9.14 4.07 4.07 0 0 0 9 5a4.03 4.03 0 0 0-4 4.1A4.07 4.07 0 0 0 8.97 13Zm-.08-.14a3.77 3.77 0 0 0 3.68-3.64c.05-2-1.58-3.73-3.57-3.8a3.8 3.8 0 0 0-3.86 3.69 3.77 3.77 0 0 0 3.75 3.75Z" fill="#669A79"/><path fill-rule="evenodd" d="M9.06 12C11.24 12 13 10.2 13 8s-1.76-4-3.94-4a3.97 3.97 0 0 0-3.94 4c0 2.2 1.76 4 3.94 4Zm-.07-.1c2 0 3.72-1.67 3.72-3.73 0-2.05-1.72-3.6-3.72-3.6s-3.7 1.55-3.7 3.6c0 2.06 1.7 3.73 3.7 3.73Z" fill="#0A3963"/></svg>