<!-- by TradingView --><svg xmlns="http://www.w3.org/2000/svg" width="18" height="18"><path fill="#F0F3FA" d="M0 0h18v18H0z"/><path d="M7.38 6.3C7.65 4.6 8.52 4.05 8.93 4c.19.3.17 1.5.14 2.05a3.9 3.9 0 00-1.69.25zm5.09 3.4c1.34 1.11 1.36 2.13 1.2 2.5-.37 0-1.39-.62-1.85-.93.43-.6.61-1.3.65-1.57zm-5.5 2.65c-1.63.63-2.53.15-2.78-.17.18-.32 1.22-.9 1.72-1.15.31.66.84 1.16 1.06 1.32z" fill="#FC7135"/><path d="M8.92 4c.16.02.56.13.9.33.18.96.38 3.32-.27 5.14.67.66 2.43 2.14 4.12 2.72-.12.14-.43.46-.7.59-.95-.33-3.16-1.34-4.38-2.79-.88.23-2.99.98-4.4 2.2a3.57 3.57 0 01-.16-.83c.6-.57 2.37-1.85 4.65-2.43.22-.74.6-3.08.24-4.93zm3.48 9.2c-.17.1-1.6.78-3.4.8-.26.05-1.37-.2-2.4-1.06l.3-.52 1.32-1.93c.56.89 3.08 2.43 4.18 2.72zm.41-6.02a8.28 8.28 0 00-2.38-2.56c.3 1.1.21 4.05-.28 4.97l2.34.19h.6c.22-1.32-.11-2.4-.28-2.6zm-8.8 3.5c0-.2.11-1.78.98-3.37.08-.24.84-1.08 2.09-1.57l.3.52 1.05 2.1c-1.05.05-3.63 1.5-4.41 2.31z" fill="#254060"/></svg>