<!-- by TradingView --><svg width="18" height="18" viewBox="0 0 18 18" xmlns="http://www.w3.org/2000/svg"><path fill="#F0F3FA" d="M0 0h18v18H0z"/><path d="M6.92 11c.69 0 1.3-.3 1.7-.76.39.46 1 .76 1.69.76a2.2 2.2 0 0 0 1.77-.86 2.2 2.2 0 0 0 1.77.86c1.19 0 2.15-.9 2.15-2h-2v.71h1c-.25.35-.67.58-1.15.58-.76 0-1.38-.57-1.39-1.28V9c0-.7.63-1.28 1.39-1.28.48 0 .9.23 1.15.57l.37-.28.22-.17A2.2 2.2 0 0 0 13.85 7c-1.17 0-2.13.87-2.16 1.95V9c0 .71-.62 1.29-1.38 1.29-.77 0-1.39-.58-1.39-1.29 0-.71.62-1.29 1.39-1.29.49 0 .91.24 1.16.6.06-.2.18-.5.35-.73A2.23 2.23 0 0 0 10.31 7c-1.2 0-2.16.9-2.16 2H6.92v.71h1.15c-.24.35-.67.58-1.15.58-.76 0-1.38-.58-1.38-1.29 0-.71.62-1.29 1.38-1.29.43 0 .8.18 1.06.46l.42-.62C8.02 7.2 7.5 7 6.92 7 6.08 7 5.36 7.45 5 8.1V7h-.75v2.58L2.68 7H2v4h.75V8.37L4.26 11H5V9.9c.36.65 1.08 1.1 1.92 1.1Z" fill="url(#aul4bjw4a)"/><path d="M8.62 10.24c-.4.46-1.01.76-1.7.76-.84 0-1.56-.45-1.92-1.1V11h-.74L3.3 9.3l.7-.15.26.43V9.1c.42-.08.85-.14 1.3-.2l-.01.1c0 .71.62 1.29 1.38 1.29.48 0 .9-.23 1.15-.58H6.92V9h1.23l.03-.3.78-.01c-.02.1-.04.2-.04.31 0 .71.62 1.29 1.39 1.29.76 0 1.38-.58 1.38-1.29v-.05l.01-.14.77.08v.12c0 .7.62 1.28 1.38 1.28.48 0 .9-.23 1.15-.58h-1v-.58a18 18 0 0 1 1.9.46A2.14 2.14 0 0 1 13.85 11a2.2 2.2 0 0 1-1.77-.86 2.2 2.2 0 0 1-1.77.86c-.69 0-1.3-.3-1.7-.76ZM2 9.65V11h.75V9.43L2 9.65Z" fill="#3490C9"/><defs><linearGradient id="aul4bjw4a" x1="9" y1="7" x2="9" y2="11" gradientUnits="userSpaceOnUse"><stop stop-color="#628DB1"/><stop offset=".43" stop-color="#00214C"/></linearGradient></defs></svg>