<!-- by TradingView --><svg xmlns="http://www.w3.org/2000/svg" width="18" height="18"><path fill="#F0F3FA" d="M0 0h18v18H0z"/><path d="M9.87 5.72L8.13 4h1.74v1.72zm1.55.87l-.7-2.33 1.53.81-.83 1.52zm1.45-.85l-.61 2.36 1.5-.88-.89-1.48zM14 8.12l-1.74 1.72H14V8.12zm-8.26.04L4 9.88V8.16h1.74zM9.91 14l-1.74-1.72V14H9.9zM5.7 9.85l-.58 2.37-.9-1.48 1.48-.9zm1.59 3.87l-.66-2.35-.86 1.5 1.52.85zM6.6 6.68l-2.4.52.93-1.45 1.47.93zm-.87-1.5l2.42.5-.96-1.44-1.46.95zm5.67 6.18l2.39-.62-.89 1.49-1.5-.87zm.87 1.46l-2.4-.53.92 1.45 1.48-.92z" fill="#7F6C2D"/></svg>