<!-- by TradingView --><svg width="18" height="18" xmlns="http://www.w3.org/2000/svg"><path fill="#005DAA" d="M0 0h18v18H0z"/><path d="M12.151 6.016C12.13 6.002 12.207 6 13.507 6h1.377L13.754 10h-.007H16h-.016l-.6 1.994c-.003.003-.982.005-2.175.004L10.5 12c2 0 4-5.5 1.651-5.984zM9.1 11.996s-.628.003-1.369.002l-1.346-.002S5.18 9.096 5.177 9.1c-.005.005-.765 2.736-.804 2.86L4.36 12H3.18C2.531 12 2 11.996 2 11.996c0-.002.282-1.295.627-2.266.437-1.226.714-2.502 1.148-3.73h2.306l1.21 3.005c.006.01.575-2.078.901-3.002 0 0 .537-.003 1.193-.003h1.19C8.5 6.5 6.65 10.645 9.1 11.996z" fill="#fff"/><ellipse cx="10.646" cy="9.082" rx=".986" ry="1.805" transform="rotate(25.513 10.646 9.082)" fill="#fff"/><path fill="#fff" d="M11.092 8h2.414v1h-2.414z"/><path fill="#005DAA" d="M10 9h2.201v1H10z"/></svg>