<!-- by TradingView --><svg width="18" height="18" viewBox="0 0 18 18" xmlns="http://www.w3.org/2000/svg"><path fill="#F0F3FA" d="M0 0h18v18H0z"/><path d="M14.23 7c-.46 0-.91.2-1.23.52a1.75 1.75 0 0 0-3 1.27V11h1V8.77c0-.41.33-.77.76-.77s.74.36.74.77V11h1V8.77a.74.74 0 0 1 .74-.77c.4 0 .81.38.76.78V11h1V8.78a1.8 1.8 0 0 0-1.1-1.65 1.74 1.74 0 0 0-.67-.13ZM8 13a2 2 0 0 1-2-2h1c0 .58.42 1 1 1 .58 0 1-.42 1-1h1a2 2 0 0 1-2 2ZM6 9.02C6 7.93 5.1 7 4 7a2.04 2.04 0 0 0-2 2.02V11h1V8.97c-.02-.54.46-1.01 1-1.01s1.02.47 1 1V11h1V9.02Z" fill="#0A6160"/><path d="M9.06 7H7.99a1.99 1.99 0 0 0-1.95 2.39 2 2 0 0 0 2.72 1.46A2 2 0 0 0 9.72 8H10V7h-.94ZM9 9a1 1 0 1 1-2 0 1 1 0 0 1 2 0Z" fill="#0A6160"/></svg>