<!-- by TradingView --><svg width="18" height="18" viewBox="0 0 18 18" xmlns="http://www.w3.org/2000/svg"><path fill="#F0F3FA" d="M0 0h18v18H0z"/><path d="m8.16 7 2.44-4v4H15l-4.4 2.58V14l-2.49-2.55L4 14l2.6-4.26L4 7h4.16Z" fill="#95999C"/><path d="M6.59 9.74 4 7h.17l.47.26 2.4 2.56-.45-.08Z" fill="url(#avtzsmo1b)"/><path d="M14.81 7H15l-4.4 2.58v4.16l-.13-.36V9.46l3.63-2.2.71-.26Z" fill="url(#bvtzsmo1b)"/><path d="M10.6 6.93V7H15l-.88.26h-3.79l.26-.33Z" fill="url(#cvtzsmo1b)"/><path d="M10.6 7V3l-.1.15-.17.83v3.28L10.6 7Z" fill="url(#dvtzsmo1b)"/><path d="M10.6 3 8.16 7H4l.59.23h3.85l1.89-3.25.27-.98Z" fill="#FEFEFE"/><path d="m4 14 2.59-4.25.44.09-2.4 3.47L4 14Z" fill="#DCDDE0"/><path d="m4 14 .62-.65L8.2 11.1l-.09.35L4 14Z" fill="#53585E"/><path d="m10.6 14-2.49-2.55.08-.32 2.28 2.25.13.62Z" fill="url(#evtzsmo1b)"/><path d="M7.67 8.98c.07 0 0 .2-.04.29.53-.72 1.6-2.18 1.66-2.23.06-.07.28-.04.47.07.2.1.2.23.18.33-.01.11-.47 1.91-.47 2.18a15.1 15.1 0 0 1 2.13-2.58c.05 0 .35.23.35.4 0 .18-.92 1.05-.97 1.05-.04 0-.08-.05-.1-.07a32.1 32.1 0 0 0-1.46 2.08c-.12.27-.25.43-.35.43-.08 0-.35-.08-.47-.13l.37-2.6c-.5.9-1.57 2.7-1.76 2.7-.23 0-.21-.49-.21-.47 0-.86.6-1.45.67-1.45Z" fill="#E2211C"/><path d="M7.33 9.53c-.05.2-.15.65-.17.9-.03-.05-.04-.67.17-.9Z" fill="url(#fvtzsmo1b)"/><path d="m9.43 7.2-.9 1.04c.23-.32.72-1 .84-1.13.17 0 .3.06.34.09h-.28Z" fill="url(#gvtzsmo1b)"/><path d="m11.62 7.1.15.13-.13-.02-.94.94.92-1.04Z" fill="url(#hvtzsmo1b)"/><defs><linearGradient id="avtzsmo1b" x1="4" y1="7.02" x2="7.1" y2="9.93" gradientUnits="userSpaceOnUse"><stop stop-color="#777C80"/><stop offset="1" stop-color="#909497"/></linearGradient><linearGradient id="bvtzsmo1b" x1="15.01" y1="7.02" x2="10.67" y2="13.9" gradientUnits="userSpaceOnUse"><stop stop-color="#585E62"/><stop offset="1" stop-color="#95999C"/></linearGradient><linearGradient id="cvtzsmo1b" x1="10.33" y1="7.26" x2="15.01" y2="7.26" gradientUnits="userSpaceOnUse"><stop stop-color="#B3B4B8"/><stop offset="1" stop-color="#DCDDDF"/></linearGradient><linearGradient id="dvtzsmo1b" x1="10.46" y1="3" x2="10.46" y2="7.26" gradientUnits="userSpaceOnUse"><stop stop-color="#1A1718"/><stop offset=".52" stop-color="#616365"/></linearGradient><linearGradient id="evtzsmo1b" x1="8.1" y1="11.24" x2="10.83" y2="13.78" gradientUnits="userSpaceOnUse"><stop stop-color="#8D9295"/><stop offset="1" stop-color="#72787C"/></linearGradient><linearGradient id="fvtzsmo1b" x1="7.24" y1="9.53" x2="7.24" y2="10.43" gradientUnits="userSpaceOnUse"><stop stop-color="#FBD7C7"/><stop offset="1" stop-color="#EC563E"/></linearGradient><linearGradient id="gvtzsmo1b" x1="9.12" y1="7.11" x2="9.12" y2="8.24" gradientUnits="userSpaceOnUse"><stop stop-color="#FBD7C7"/><stop offset="1" stop-color="#EC563E"/></linearGradient><linearGradient id="hvtzsmo1b" x1="11.24" y1="7.11" x2="11.24" y2="8.15" gradientUnits="userSpaceOnUse"><stop stop-color="#FBD7C7"/><stop offset="1" stop-color="#EC563E"/></linearGradient></defs></svg>