<!-- by TradingView --><svg width="18" height="18" viewBox="0 0 18 18" xmlns="http://www.w3.org/2000/svg"><path fill="#F0F3FA" d="M0 0h18v18H0z"/><path d="M8.6 5.36c.1.04.66.23.7 1.22 0 .19.03.37.1.49-.14-.08-.53-.3-1.33-.27-1.08.04-2.06.46-2.06 2.65 0 2.2 1.96 4.51 2.48 4.55.49.04.94-.23 1.22-.27.28-.03.91.34 1.37.12.49-.23 1.88-3.18 1.92-4.93.03-1.74-1.36-2.06-2.2-2.06-.42 0-.74.07-.98.19-.1-.2-.21-.59-.14-.7.17-.27 1.12-.3 1.6-.5A6.92 6.92 0 0 0 12.87 4c-.07 0-1.6-.04-2.06.46-.46.49-1.26 1.59-1.26 1.59s-.25-1.25-.6-1.18c-.35.04-.55.23-.35.5Z" fill="#181B1E"/><path d="m7.47 5.4.03.04.04.01c.05.02.18.07.31.2.13.14.27.39.29.83v.2a2.9 2.9 0 0 0-1.08-.13c-.56.01-1.12.13-1.54.53-.42.41-.67 1.09-.67 2.16 0 1.1.5 2.22 1.07 3.05.28.42.58.78.85 1.03.13.13.26.23.37.3.11.08.23.14.33.14.27.02.53-.04.75-.1l.19-.06a12.62 12.62 0 0 1 .31-.1l.22.04c.04 0 .1.02.15.04h.01l.19.05c.25.06.56.1.84-.03.1-.04.19-.13.28-.23a10.25 10.25 0 0 0 .93-1.66c.42-.95.78-2.1.8-2.97.02-.9-.35-1.44-.84-1.75a2.87 2.87 0 0 0-1.51-.4c-.37 0-.66.06-.9.15a1.48 1.48 0 0 1-.1-.36l.01-.04a.46.46 0 0 1 .18-.1l.4-.1.21-.04c.26-.05.54-.1.74-.17h.01c.15-.08.33-.23.5-.41A8.72 8.72 0 0 0 12 4.08L12 4l-.02-.1a.15.15 0 0 0-.13-.06h-.01c-.08 0-.47 0-.9.04a4 4 0 0 0-.69.14c-.22.06-.43.16-.57.3a15.7 15.7 0 0 0-1.08 1.3c-.02-.1-.06-.2-.1-.3-.05-.15-.12-.31-.2-.43-.08-.1-.2-.24-.39-.21-.18.02-.37.08-.47.2a.34.34 0 0 0-.09.26c.01.1.06.18.12.26Z" fill="#61AC4D" stroke="#F0F3FA" stroke-width=".3"/></svg>