<!-- by TradingView --><svg width="18" height="18" xmlns="http://www.w3.org/2000/svg"><path fill="#004684" d="M0 0h18v18H0z"/><path d="M14.301 7.004c.828 0 1.478.34 1.699.52l-.236.535c-.325-.788-1.11-.93-1.463-.902-1.37.07-1.844.86-1.88 1.854-.035.993.852 1.875 1.959 1.826.885-.039 1.368-.6 1.499-.875l.12.507c-.263.271-.904.535-1.698.535-.813 0-2.39-.535-2.39-1.993 0-1.458 1.384-2.007 2.39-2.007zM3.154 7.004h-1.03v.083c.282.004.365.278.372.415.003.745.007 2.422 0 2.822-.008.401-.334.575-.496.612v.068h1.154v-.068c-.283-.07-.386-.437-.403-.612V7.502c1.057 1.12 3.194 3.383 3.294 3.464.1.081.127.014.128-.03v-3.12c0-.506.285-.678.428-.701v-.111H5.578v.111c.327.02.38.476.4.7v2.17L3.154 7.005zM8.489 7.004H6.955v.078c.197 0 .512.234.517.35.004.732.01 2.32 0 2.822-.009.502-.394.655-.516.669v.08h1.533v-.08c-.28-.016-.517-.453-.511-.67v-1.25h2.553v1.25c0 .51-.396.659-.509.67v.08h1.535v-.08c-.29-.008-.51-.45-.512-.67-.003-.849-.008-2.602 0-2.82.007-.218.331-.325.42-.35v-.08h-1.443v.08c.326 0 .505.233.51.35v1.411H7.977V7.433c0-.203.422-.318.51-.35v-.08z" fill="#fff"/></svg>