<!-- by TradingView --><svg width="18" height="18" viewBox="0 0 18 18" xmlns="http://www.w3.org/2000/svg"><path fill="#F0F3FA" d="M0 0h18v18H0z"/><path d="M6.5 14a2.5 2.5 0 0 1 0-5 .34.34 0 0 1 0 .69 1.81 1.81 0 1 0 1.43.7.34.34 0 1 1 .54-.43A2.5 2.5 0 0 1 6.5 14Z" fill="#1E4288"/><path d="m6.07 12.06-.1.1c.01-.13.1-.3.1-.3l.3-.65.45-.87.59-1.08.6-1.1.65-1.12.6-.95a10 10 0 0 1 .83-1.01A3.4 3.4 0 0 1 12.59 4c.5 0 .98.11 1.41.36 0 0-.83.13-1.42.43 0 0-.74.32-1.46 1.4l-.3.42s-.2.29-.6.33c0 0-.73.1-.84.19 0 0 .53-.02.92.18 0 0-1.29.15-1.3.31 0 0 .59-.1.92.14-1.04.24-1.46.52-1.74.83-.24.25-.18.18-.35.43-.22.33-.54.87-.84 1.44l-.63 1.24-.11.18-.08.09-.1.1Z" fill="#768692"/></svg>