<!-- by TradingView --><svg width="18" height="18" viewBox="0 0 18 18" xmlns="http://www.w3.org/2000/svg"><path fill="#F0F3FA" d="M0 0h18v18H0z"/><path d="M11.35 6.65c-.3.03-.53.09-.77.2-.5.22-.95.68-1.23 1.27a4.26 4.26 0 0 0-.29.83c.02.03.05.03.14 0a.9.9 0 0 1 .3-.05c.34-.02.61.09.82.31.2.22.3.5.27.83-.02.35-.15.68-.4 1.06-.37.58-.92.99-1.73 1.27a5.62 5.62 0 0 1-.9.24l.03.02c.08.03.69.02 1.1-.03 1.13-.13 2-.5 2.68-1.15.46-.45.74-.93.82-1.46.03-.15.03-.23.03-.4 0-.61-.18-1.05-.56-1.35a1.44 1.44 0 0 0-1.11-.3l-.3.06c-.05.02-.1.02-.1 0 0-.01.01-.03.07-.05a1.72 1.72 0 0 1 .92-.13c.41.06.75.26.98.58a2.29 2.29 0 0 1 .4 1.47c-.05.55-.3 1.12-.7 1.59-.47.55-1.2 1-2.04 1.23-.71.2-1.48.25-2.56.15-.41-.03-1.18-.12-1.3-.15-.07-.02-.1-.01-.11 0-.02.03-.02.07 0 .09.03.04.28.28.4.38a4.2 4.2 0 0 0 2.23.82 5.82 5.82 0 0 0 3.03-.59 4.76 4.76 0 0 0 2.52-4.3 3.1 3.1 0 0 0-.8-1.76 2.23 2.23 0 0 0-1.44-.68h-.4Z" fill="#00609B"/><path d="m8.6 4-.16.02a.98.98 0 0 0-.3.05c-.31.1-.58.24-.8.44-.07.07-.1.08-.12.08-.02 0-.03 0-.04-.03a.35.35 0 0 1-.02-.06c-.02-.07-.05-.1-.08-.12H7A5.02 5.02 0 0 0 4.84 6.2c-.33.5-.5.94-.55 1.38a1.28 1.28 0 0 0 .06.5c0 .01-.03 0-.06-.03C4.23 8 4.2 7.99 4.16 8c-.02 0-.07.04-.09.08a.96.96 0 0 0-.04.29l-.02.2a4.61 4.61 0 0 0 .04 1.13c.1.8.36 1.49.8 2.15.12.19.15.22.2.21.07-.01.27-.23.41-.43.23-.33.41-.75.53-1.2a5.82 5.82 0 0 0 .18-1.4c.04-.45.14-.84.28-1.14.08-.17.2-.35.32-.44.04-.04.1-.07.14-.08.03 0 .03 0-.03.07-.2.27-.33.64-.4 1.07-.03.23-.04.41-.05.77-.01.35-.02.5-.05.74a4.65 4.65 0 0 1-.63 1.87c0 .06.05.1.12.09a4.1 4.1 0 0 0 .82-.37 4.25 4.25 0 0 0 2-2.8c.1-.39.14-.5.22-.7a3 3 0 0 1 1.94-1.81c.6-.2 1.3-.22 1.97-.06.13.02.16.03.19 0s.04-.07.01-.12a4.71 4.71 0 0 0-.78-.88 4.93 4.93 0 0 0-3.65-1.23Z" fill="#47892B"/></svg>