<!-- by TradingView --><svg width="18" height="18" viewBox="0 0 18 18" xmlns="http://www.w3.org/2000/svg"><path fill="#F0F3FA" d="M0 0h18v18H0z"/><path d="M7.56 6.02A.11.11 0 0 1 7.63 6h3.18c.06 0 .1.04.1.09v5.22c.01.04 0 .1-.05.16a.07.07 0 0 0-.01.02v.05l.03.07c0 .04.03.1.06.16l.04.11.01.02c.03.05-.01.09-.03.1a.24.24 0 0 1-.08.03.64.64 0 0 1-.2.02.21.21 0 0 0-.13.05.88.88 0 0 0-.07.05c-.02.02.03.03.02.04a.31.31 0 0 1-.14.04.3.3 0 0 1-.18-.04.34.34 0 0 0-.15-.03c-.07 0-.14 0-.2.02v.1l.03.1a3.49 3.49 0 0 1 .02.14c0 .03-.02.04-.03.06a.25.25 0 0 1-.04.03.73.73 0 0 1-.14.06l-.04.01-.02.02a.4.4 0 0 0-.04.04l-.03.05a9.29 9.29 0 0 1-.16.2l-.1.04-.04.03-.21.17v.17l-.02.06a1.6 1.6 0 0 1-.1.18c-.02.04-.08.05-.12.04a7.5 7.5 0 0 0-.38-.1.25.25 0 0 1-.11-.07.6.6 0 0 1-.08-.1c-.04-.04-.07-.1-.09-.14a9.1 9.1 0 0 0-.08.08l-.03.08-.02.14-.02.08a.44.44 0 0 1-.07.18.2.2 0 0 1-.04.05l-.03.01a.1.1 0 0 1-.08 0h-.03a.85.85 0 0 1-.23-.15.83.83 0 0 0-.19-.12 5.08 5.08 0 0 1-.27.07.2.2 0 0 0-.03.06.68.68 0 0 0-.03.15c0 .07-.09.1-.16.07l-.56-.3-.03.03a.63.63 0 0 1-.25.1.16.16 0 0 0-.06.01l-.01.03a.1.1 0 0 1-.04.05.14.14 0 0 1-.07.01h-.06a.42.42 0 0 1-.19-.07c-.02 0-.03-.02-.05-.04v.01l-.06.12a.2.2 0 0 1-.17.08.26.26 0 0 1-.16-.05.21.21 0 0 1-.07-.1.49.49 0 0 1-.02-.09v-.03a.11.11 0 0 1-.02-.07v-.05l.04-.11.06-.15.01-.02a.43.43 0 0 1 .09-.13l.01-.02-.03-.02a.12.12 0 0 1-.07-.13l.03-.1a.1.1 0 0 1 .09-.05.79.79 0 0 0 .47-.24.18.18 0 0 0 .04-.1v-.18a3.48 3.48 0 0 1 .3-.4 2.33 2.33 0 0 0-.1-.1.1.1 0 0 1-.04-.08l.01-.07a.54.54 0 0 1 .05-.1v-.14a.74.74 0 0 0-.05-.04l-.06-.04-.03-.03-.02-.04v-.05l.01-.04a.41.41 0 0 1 .05-.05l.05-.04.02-.03a.8.8 0 0 1-.06-.1.1.1 0 0 1 0-.09l.02-.06c.02-.03-.02-.05 0-.07V6.1c0-.06.16-.1.23-.07l.53.32a2.52 2.52 0 0 0 .92-.33Zm-2.05 7.7Zm2.13-7.58c-.1.06-.24.14-.41.21-.19.07-.4.14-.6.14-.02 0-.04 0-.06-.02l-.53-.27v4.62l-.03.06c-.02.02.04.04.02.06l-.01.03.06.1a.1.1 0 0 1 .03.05c0 .02 0 .04-.03.07l-.05.05a1.86 1.86 0 0 0-.07.06l.05.04a.83.83 0 0 1 .09.07l.02.06v.16l-.01.04a.42.42 0 0 0-.05.11l.13.13c.03.03.03.07 0 .1a9.87 9.87 0 0 0-.29.4.1.1 0 0 0 0 .06.26.26 0 0 0 0 .03v.03a.3.3 0 0 1-.07.19c-.05.06-.1.1-.17.15a1 1 0 0 1-.38.15.1.1 0 0 0 0 .02l.09.08c.02.05 0 .09-.01.12l-.04.05-.01.01a.3.3 0 0 0-.05.07l-.01.04a2.44 2.44 0 0 0-.09.26l.01.03.01.04.01.07.03.04.05.01c.02 0 .03 0 .04-.02a.2.2 0 0 0 .03-.07v-.05l.03-.05a.1.1 0 0 1 .06-.05c.05-.02.09 0 .1.02.03.02.06.03.07.05h.01a.24.24 0 0 0 .16.07l.04-.05a.3.3 0 0 1 .14-.05.45.45 0 0 0 .18-.08h.02a.67.67 0 0 1 .04-.04c.02 0 .07-.03.12 0l.52.27.03-.1a.33.33 0 0 1 .05-.1.17.17 0 0 1 .1-.06 5 5 0 0 0 .27-.07h.08c.06.03.19.1.26.17a.55.55 0 0 0 .16.1.34.34 0 0 0 .04-.12l.02-.08a2.74 2.74 0 0 1 .06-.25.2.2 0 0 1 .05-.08l.14-.1c.05-.04.13-.02.16.04a1.2 1.2 0 0 0 .17.26 6.8 6.8 0 0 1 .38.12 1.33 1.33 0 0 0 .06-.12v-.21l.03-.06.25-.2.09-.05c.02 0 .03 0 .04-.02l.01-.01.03-.03a2.69 2.69 0 0 0 .18-.24.16.16 0 0 1 .04-.02.5.5 0 0 1 .07-.04l.05-.01a.55.55 0 0 0 .07-.04.51.51 0 0 0-.01-.08l-.03-.1a.42.42 0 0 1-.01-.14c0-.03.01-.05.03-.08a.15.15 0 0 1 .09-.05l.25-.02a.5.5 0 0 1 .23.06l.08.01.05-.01.01-.01.02-.01.01-.01.08-.06c.06-.04.08-.09.18-.08h.12a2.94 2.94 0 0 1-.12-.33l-.01-.06v-.06a.2.2 0 0 1 .04-.07c.03-.03.03-.05.03-.05v-5.2H7.63Zm2.1 6.34Zm-4.58 1.19Zm.9-1.88Zm-.04-.82Z" fill="#081873"/><path fill-rule="evenodd" d="M9.78 12.13a3.81 3.81 0 0 0 3.77-3.85 3.81 3.81 0 0 0-3.77-3.86 3.81 3.81 0 0 0-3.77 3.86 3.81 3.81 0 0 0 3.77 3.85Zm0-.52a3.3 3.3 0 0 0 3.26-3.33 3.3 3.3 0 0 0-3.26-3.34 3.3 3.3 0 0 0-3.26 3.34 3.3 3.3 0 0 0 3.26 3.33Z" fill="#FFFF10"/><path fill-rule="evenodd" d="M13.5 8.28c0 2.1-1.66 3.8-3.72 3.8a3.77 3.77 0 0 1-3.72-3.8c0-2.1 1.67-3.81 3.72-3.81 2.06 0 3.73 1.7 3.73 3.8Zm-3.72 3.38a3.34 3.34 0 0 0 3.31-3.38 3.35 3.35 0 0 0-3.3-3.39 3.35 3.35 0 0 0-3.32 3.39 3.35 3.35 0 0 0 3.31 3.38Zm0 .47a3.81 3.81 0 0 0 3.77-3.85 3.81 3.81 0 0 0-3.77-3.86 3.81 3.81 0 0 0-3.77 3.86 3.81 3.81 0 0 0 3.77 3.85Zm0-.52a3.3 3.3 0 0 0 3.26-3.33 3.3 3.3 0 0 0-3.26-3.34 3.3 3.3 0 0 0-3.26 3.34 3.3 3.3 0 0 0 3.26 3.33Zm3.48-3.33a3.52 3.52 0 0 1-3.48 3.56A3.52 3.52 0 0 1 6.3 8.28a3.52 3.52 0 0 1 3.48-3.56c1.93 0 3.48 1.6 3.48 3.56Zm.05 0c0 2-1.58 3.6-3.53 3.6a3.57 3.57 0 0 1-3.53-3.6c0-2 1.58-3.61 3.53-3.61a3.57 3.57 0 0 1 3.53 3.6Z"/><path d="M9.77 7.49 7.61 6.06 8.6 7.6l-.77-.13L9 8.29l-1.4 2.2 1.51-.99-.13.79.8-1.22 2.16 1.43-.97-1.55.77.14-1.2-.82L14 4.06l-3.54 2.88.12-.67-.8 1.22Z" fill="#FFFF10"/><path d="m11.75 7.47-1.76.31-1-1.51.3 1.8-1.47 1.02 1.76-.31 1 1.5-.31-1.79 1.48-1.02Z" fill="#FFFF10"/><path d="m9.78 4 .56 3.7 3.63.58-3.63.57-.56 3.7-.56-3.7-3.62-.57 3.62-.58.56-3.7Z" fill="#FFFF10"/><path fill-rule="evenodd" d="m9.23 7.66.07-.46a2.7 2.7 0 0 1-.15-.1v-.03l.15.1L9.78 4l.01.08v3.45c.4 0 .73.34.73.75 0 .12-.03.24-.08.34a.54.54 0 0 0 .08-.34h3.45l-2.76.44.54.37-.77-.14.13.21h-.03l-.23-.39-.43.07-.1-.04v-.01a.73.73 0 0 1-.52.24v3.41l-.02.12-.43-2.83-.36.56.13-.79-1.37.91H7.7l1.51-1.57-.02.01-.47-.08-.23.37h-.03l.23-.37-3.1-.5h3.45c0-.24.11-.46.3-.6l-.1.07v-.02l-.86.14-.57-.4.77.14-.96-1.52v-.01L9.24 7.7l-.01-.04Zm.34-.1Zm.2-.03Zm-.6 1.18.08.12v-.01c.02 0 .03.01.05.03a.75.75 0 0 1-.12-.14Zm.08.13v.02l-.01-.02h.01ZM14 4.06l-3.68 3.67.6.1L14 4.06Zm-2.08 6.39-1.6-1.62-.08.54 1.71 1.13-.03-.05Zm-1.72-3.6.04.27.24-.15.03-.07-.05.04.12-.67-.38.58Zm.08 1.43a.5.5 0 0 1-.5.51.5.5 0 0 1-.5-.51.5.5 0 0 1 .5-.51c.28 0 .5.23.5.5Z" fill="#6B6B08"/><path fill-rule="evenodd" d="M10.54 8.28a.8.8 0 0 0-.2-.53l.56.1 2.76.43-2.83.45-.5.08c.13-.14.2-.33.2-.53Zm-.76.77c.2 0 .38-.08.52-.21l-.52 3.4-.51-3.4c.13.13.31.2.51.2Zm-.75-.77c0 .2.08.39.2.53l-3.32-.53 3.32-.53a.78.78 0 0 0-.2.53Zm1.27-.56-.52-3.4-.39 2.56-.12.84a.74.74 0 0 1 1.03 0Zm-.95-.9L9.78 4l.43 2.82.37-.55-.12.67L14 4.06l-2.88 3.52.63-.11-.54.37 2.76.44-2.76.44.54.37-.77-.14.97 1.55-1.5-1 .13.79-.37-.56-.43 2.83-.43-2.83-.36.56.13-.79-1.5 1 .97-1.55-.77.14.54-.37-2.76-.44 2.76-.44-.54-.37.77.13-.98-1.54 1.51 1L9 6.27l.36.55Zm-.17.27-.1-.6.26.4-.04.28-.12-.08Zm-.05.03v.01h.01l.15.1-.07.47-.47.08-.98-1.56 1.36.9Zm-.5.54-.6-.1.4.27.27-.04-.08-.13Zm-.2 1.07-.4.28.6-.11.07-.13-.27-.04Zm.75.73-.1.61.26-.4-.04-.29-.12.08Zm1.04.2.27.41-.1-.6-.13-.09-.04.28Zm.72-.76.6.1-.4-.27-.28.04.08.13Zm.2-1.07.4-.28-.46.08-.14.17.2.03Zm-.73-.85.08-.5-.27.41.03.22.16-.13Zm-.07 1.87.47-.07.99 1.56-1.53-1.01.07-.48Zm3.33-4.46-2.78 3.4-.55-.09-.08-.54 3.4-2.77Zm-5.9 5.95.98-1.56.47.07.07.48-1.52 1ZM9.78 9c.4 0 .7-.32.7-.72a.7.7 0 0 0-.7-.72.7.7 0 0 0-.7.72c0 .4.31.72.7.72Zm.5-.72a.5.5 0 0 1-.5.5.5.5 0 0 1-.49-.5.5.5 0 1 1 .98 0Zm.04 0c0 .3-.24.55-.54.55a.54.54 0 0 1-.53-.55c0-.3.24-.55.53-.55.3 0 .54.25.54.55Z"/></svg>