<!-- by TradingView --><svg xmlns="http://www.w3.org/2000/svg" width="18" height="18"><path fill="#DF001F" d="M0 0h18v18H0z"/><path d="M7.13 13.77l-2.6-5.24c-.14-.31-.44-.3-.72-.3-.43 0-.8-.2-.81-.7a1 1 0 01.1-.45l1.36-2.63a.83.83 0 01.5-.42.74.74 0 01.61.1c.47.29.33.88.14 1.24-.13.26.06.63.33.63h5.88c.27 0 .45-.37.32-.64-.24-.47-.33-.85.2-1.2a.74.74 0 01.6-.1.82.82 0 01.5.4l1.35 2.62a1.01 1.01 0 01.08.69c-.1.4-.45.46-.81.46-.27 0-.57-.02-.71.3l-2.58 5.24a2.3 2.3 0 01-.79.9A1.97 1.97 0 019 15c-.38 0-.75-.11-1.08-.33a2.3 2.3 0 01-.8-.9zM6.96 8.8l1.63 3.58a.49.49 0 00.4.28H9a.49.49 0 00.41-.28l1.62-3.58c.18-.35-.06-.8-.43-.8H7.38c-.33 0-.58.36-.42.8z" fill="#FAFAFA"/></svg>