<!-- by TradingView --><svg width="18" height="18" viewBox="0 0 18 18" xmlns="http://www.w3.org/2000/svg"><path fill="#F0F3FA" d="M0 0h18v18H0z"/><path d="M7.13 10.14v.07l.01-.06.3.11-.3-.13.36-1.16-.06.24v.37a88 88 0 0 0 .3-1.03l-.16.73-.03.3.12-.22.88-3.19 1.66 3.78 2.75-2.22V9.1l.09-1.53-2.78 2.26-1.11-2.5 1.11 2.42 2.85-2.3-.04 2.02.04.54v-.54l.12-1.51.04.98.06-1.08.13-1.02-1.8 1.41 1.89-1.56-.13 1.33v1.12l.08-.97.05 1.09.03-.95.04-.3.05-.15.14-1.6-2.05 1.63 2.14-1.78-.18 2.17.27-2.31-3.45 2.77L8.3 4c-.08.39-.27 1.26-.33 1.62-.06.37-.33 1.52-.46 2.05l-.22.84.1-.1-.2.77.13-.2c-.02.05-.06.2-.08.38l-.1.76-1.68-.74.8.3-.66-.32.8.3L3.82 8.5l.64 1.32-.77-1.45L6.7 9.66l-.84-.42 1.09.36-1.1-.48L5.69 9l-1.5-.62-.85-.33.54 1.11-.65-1.2 1.24.5 1.45.59C5.2 8.69 3.61 7.94 3 7.76c.43.78 1.34 2.53 1.56 3.24.22.7.46 1.4.55 1.66.04.14.19.4.45.32l.37-.19c.71-.38 2.25-1.21 4.12-1.39 1.9-.17 3.28 0 3.74.1-.14-.09-.56-.27-1.2-.27l.57-.04-.9-.17.87.08c-.26-.1-1.11-.3-2.4-.3-1.6 0-3.3.5-4.95 1.34-.14-.56-.56-1.9-1.07-2.76l1.9.7-2.15-.92 2.67.98Z" fill="#FFAB45"/></svg>