<!-- by TradingView --><svg width="18" height="18" viewBox="0 0 18 18" xmlns="http://www.w3.org/2000/svg"><path fill="#F0F3FA" d="M0 0h18v18H0z"/><path d="M4.22 10.25c-.22 1.09-.48 1.52-.59 1.6L4 12h1.44c.85.01 1.14-.46 1.19-.7L7.39 8c0-.64-.2-1.92-1.1-2-.9-.07-1.23.52-1.28.83-.17.69-.58 2.34-.8 3.42Z" fill="url(#akve2w0nj)"/><path d="M10.42 10.25c-.21 1.09-.48 1.52-.59 1.6l.38.15h1.43c.85.01 1.15-.46 1.19-.7l.94-4.22c0-.64-.37-1-1.28-1.07-.9-.08-1.23.51-1.27.82-.18.69-.59 2.34-.8 3.42Z" fill="url(#bkve2w0nj)"/><path d="M4.7 11.4H2c.2.44.6.58.78.6h2.66a1.6 1.6 0 0 1-.75-.6ZM13.36 7H16c-.12-.81-.7-.99-.87-1h-2.66c.46.18.83.9.89 1Z" fill="#ED1848"/><path d="M8.75 6H6.24c.43.14.7.68.78.93l1.05 4.17a1 1 0 0 0 1.04.9h2.43c-.5-.16-.75-.66-.81-.9L9.72 6.93c-.1-.7-.69-.91-.97-.93Z" fill="url(#ckve2w0nj)"/><defs><linearGradient id="akve2w0nj" x1="5.51" y1="6" x2="5.51" y2="12" gradientUnits="userSpaceOnUse"><stop stop-color="#051B44"/><stop offset=".51" stop-color="#004A79"/><stop offset="1" stop-color="#011E4A"/></linearGradient><linearGradient id="bkve2w0nj" x1="11.71" y1="6" x2="11.71" y2="12" gradientUnits="userSpaceOnUse"><stop stop-color="#051B44"/><stop offset=".51" stop-color="#004A79"/><stop offset="1" stop-color="#011E4A"/></linearGradient><linearGradient id="ckve2w0nj" x1="8.89" y1="6" x2="8.89" y2="12" gradientUnits="userSpaceOnUse"><stop stop-color="#CC1937"/><stop offset=".5" stop-color="#ED1848"/><stop offset="1" stop-color="#C11B2F"/></linearGradient></defs></svg>