<!-- by TradingView --><svg xmlns="http://www.w3.org/2000/svg" width="18" height="18"><path fill="#083B92" d="M0 0h18v18H0z"/><path d="M8.86 4c.1 0 .14.08.18.15l.1.21.89 2.04c.73 1.65 1.45 3.42 2.18 5.06.1.22.22.43.34.64l.21.3c.23.28.55.42.94.44.03 0 .3 0 .3.08s-.11.08-.2.08h-2.35c-.04 0-.08 0-.11-.02-.07-.02-.1-.1-.03-.12.22-.1.17-.24.1-.38l-1.15-2.69c-.07-.16-.07-.16-.27-.16H7.4c-.2 0-.2 0-.27.16l-.79 2.05c-.06.17-.1.34-.14.52-.06.31.1.43.47.45.08 0 .24-.02.27.08.03.12-.18.11-.25.1H4.3c-.1 0-.3 0-.3-.1 0-.11.3-.09.35-.09.4 0 .7-.13.9-.43.13-.2.23-.4.32-.6.85-2.05 1.7-4.21 2.55-6.26a397.36 397.36 0 01.58-1.36c.04-.07.06-.15.16-.15zm-.2 1.75l-.08.1c-.4 1.06-.79 2.24-1.18 3.3.17.05 2.41.05 2.58 0l-.04-.12c-.4-1-.8-2.12-1.2-3.12l-.09-.16z" fill="#fff"/></svg>