<!-- by TradingView --><svg width="18" height="18" viewBox="0 0 18 18" xmlns="http://www.w3.org/2000/svg"><path fill="#F0F3FA" d="M0 0h18v18H0z"/><path fill-rule="evenodd" d="M6.96 6.2c.07-.19.29-.57.67-.6.38-.02.95 0 1.18 0l.64.1.33-.14c.2 0 .65.04.83.22.18.18.34.76.4 1.02l-.13 1.32-.34 1.26a9.3 9.3 0 0 0-.78-.07c-.21 0-.74 0-.82-.04-.05-.03-.9-.26-1.31-.37l-.33-.66-.12-.36c-.14-.38-.35-.94-.35-1 0-.06.09-.48.13-.68Zm.83 2.02c-.1-.11-.45-.5-.44-1.1 0-.54.17-1 .25-1.15l.22-.07.22.3-.22.7v.22l.22.5-.22.63-.03-.03Z" fill="#AA1C18"/><path d="M6.73 6.66c0 .68.44 1.84.66 2.34l.4-.06a37 37 0 0 1-.67-1.49c-.14-.36-.27-1.2.1-1.49.38-.3.95-.35 1.33-.27.37.07.77.18 1 .11.2-.05.4-.07.48-.07.65 0 .84.8.85 1.2 0 1.08-.28 2.06-.42 2.41l.13.03c.17-.43.5-1.47.5-2.24 0-1.35-.65-1.66-.99-1.66-.34 0-.7.05-.83.11a.45.45 0 0 1-.28.03c-1.26-.56-2.26.2-2.26 1.05Z"/><path d="M8.66 4.2 8.6 4c.12-.04.28.04.34.08-.02 0-.06.01-.05.14 0 .1.03.25.04.34.15 0 .3 0 .43.03.24-.12.56-.2.7-.22v.27c4.7 1.07 5.2 5.34 4.86 7.35H5c.2-.27.63-.84.64-.88 0-.06-.08-.08-.2-.12-.1-.03.11-.1.23-.13l.06-.02c.05-.02.97-.06 1.23-.06.27 0 1.06-.05 1.24-.07a.65.65 0 0 0 .33-.2c.1-.01.35-.05.57-.05.26 0 .44-.16.46-.2.03-.03-.02-.03-.28.02s-.63.04-.48 0l.2-.04c.16-.03.36-.06.45-.12.12-.06.56-.08.8-.08h.12a.4.4 0 0 0 .21-.1c.05-.04.09-.07.14-.08h.22c.18 0 .4 0 .51-.05l.24-.06c.15-.04.3-.07.34-.14.06-.12-.12-.22-.44-.23-.23-.01-.33.03-.43.08a.72.72 0 0 1-.11.04.92.92 0 0 1-.35-.03c-.1-.02-.2-.04-.28-.04l-.18.01a.7.7 0 0 1-.34-.01c-.15-.05-.3-.02-.39.01l-.1.02c-.08 0-.22-.04-.28-.06 0 .1-.04.32-.17.51-.13.2-.39.18-.59.17h-.12c-.16 0-.25.1-.27.15l-.65.02c-.01.04-.1.16-.42.27-.31.12-.52.01-.58-.06.03-.02.13-.05.3-.02.18.03.5-.23.63-.36h.47c.17-.02.37-.13.44-.19l-.04-.28c-.01-.1.28-.18.46-.18.15 0 .2.08.22.13-.08 0-.26 0-.4.03-.17.04-.17.32.12.32.23 0 .34-.18.36-.27.04-.07 0-.27-.4-.44-.5-.22-.86-.17-1.04-.13l-.54.16.03-.11c-.1-.1-.48-.3-1.13-.3-.66 0-1.1.5-1.23.76l-1.52 1.54a.46.46 0 0 1-.05-.17 5.9 5.9 0 0 1 5.77-6.39l-.12-.37Zm.12.65c-5.6.45-5.59 5.9-5.52 5.83.06-.06 1.07-1.11 1.28-1.4.2-.27.63-.73 1.36-.73.59 0 1.07.27 1.24.41.2-.04.66-.12 1.05-.09.39.04.84.26 1.02.37.07-.04.27-.12.45-.12.16 0 .41.08.59.13.07.03.13.05.17.05a.2.2 0 0 0 .19-.05c.14.01.47.03.7-.01.21-.05.57.01.72.05.04-.03.2-.06.47 0 .33.07.24.55.21.62-.01.05-.2.06-.36.06-.11 0-.21 0-.26.02-.12.04-.69.16-.77.15-.06 0-.4.1-.56.15l-.57.07-.34.04-.29.07c-.04.01-.2.1-.28.15h-.39a.5.5 0 0 1-.2.15c-.13.05-.32.1-.4.12l-2.35.15-.4.66h9.15c.31-4.6-2.97-6.45-4.7-6.76-.08.19-.22.3-.43.45a.76.76 0 0 1-.58.1c-.03 0-.01.15 0 .23l-.17-.05a14.4 14.4 0 0 1-.07-.58l.04-.24Zm1.11-.33c-.56.07-.83.47-.9.66h.1l.42-.25-.36.34-.06.12c.71-.03.83-.59.8-.87Z"/><path fill-rule="evenodd" d="M7.84 7c.12-.24.35-.76.3-.85-.05-.09-.31-.29-.44-.38-.34.3-.4.46-.4 1.34a1.76 1.76 0 0 0 .61 1.32 1.97 1.97 0 0 0 .19-.77c0-.3-.17-.57-.26-.66Zm0 1.1c.04-.13.08-.3.08-.44a.86.86 0 0 0-.2-.54l-.1-.09.06-.11a6.35 6.35 0 0 0 .28-.7l-.02-.02a1.78 1.78 0 0 0-.22-.19.62.62 0 0 0-.17.27c-.05.16-.07.38-.07.83 0 .44.2.79.36 1Zm.12-1.91Z"/><path d="M4.45 9.5a4.73 4.73 0 0 1 2.43-3.08l.02-.06a4.78 4.78 0 0 0-2.5 3.2l.05-.06Zm9.19 2.44h-.05c.02-.35.02-.7.02-1.08v-.2a4.75 4.75 0 0 0-2.74-4.32l-.02-.07a4.8 4.8 0 0 1 2.8 4.6l-.01 1.07Zm-9.67-1.9a5.12 5.12 0 0 1 3.31-4.22 1.2 1.2 0 0 1 .17-.1A5.16 5.16 0 0 0 3.9 10.1l.06-.06Zm10.05 1.91h-.04v-1.29a5.13 5.13 0 0 0-3.37-4.85.6.6 0 0 0-.07-.08 5.17 5.17 0 0 1 3.5 5.15c0 .37 0 .73-.02 1.07ZM3.54 10.53a5.48 5.48 0 0 1 5.3-5.4v-.05a5.52 5.52 0 0 0-5.34 5.5l.04-.05Zm10.88 1.43h-.05v-1.3a5.5 5.5 0 0 0-4.63-5.48l.04-.04a5.54 5.54 0 0 1 4.64 5.52v1.3ZM8.87 5.48a5 5 0 0 0-.72.06l.27.01.45-.02v-.05Zm.1.04-.02-.04h.01a5 5 0 0 1 1.03.1l-.1.03c-.3-.06-.61-.09-.93-.09Zm1.99 1.27a4.38 4.38 0 0 1 2.28 4.05l-.01 1.09h-.05c.02-.35.02-.71.02-1.09v-.18c0-1.65-.9-3.09-2.24-3.82V6.8Zm-4.13.07c-.8.47-1.44 1.2-1.8 2.07l.06-.04c.36-.83.98-1.52 1.75-1.98v-.05Zm.12.52c-.5.33-.94.78-1.24 1.3h.05c.3-.5.72-.93 1.2-1.25v-.05Zm.15.43a3.4 3.4 0 0 0-.9.91 3 3 0 0 1 .04.01c.24-.34.53-.64.88-.87L7.1 7.8Zm3.8.12.01-.05c.5.36.9.86 1.13 1.44H12a3.38 3.38 0 0 0-1.08-1.4Zm-3.63.34c-.22.17-.43.36-.6.59l.05.02c.16-.22.35-.4.57-.57l-.02-.04Zm3.54.2.01-.06c.3.25.53.56.7.9h-.04a2.9 2.9 0 0 0-.67-.85Zm-3.4.17c-.14.1-.26.23-.37.37l.04.02c.1-.13.22-.25.35-.35l-.02-.04Zm3.28.22.02-.04c.16.16.3.34.42.54h-.05a2.52 2.52 0 0 0-.4-.5Zm1.82.61A3.82 3.82 0 0 0 11 7.45V7.4a3.88 3.88 0 0 1 1.75 3.42c0 .38 0 .75-.02 1.1l-.04-.01c.02-.34.02-.7.02-1.09v-.16a3.89 3.89 0 0 0-.19-1.19ZM5.73 11.12h.09v.66h-.1v-.66ZM6.16 10.92h.1v.86h-.1v-.86ZM6.6 10.92h.1v.86h-.1v-.86ZM6.99 10.92h.09v.86h-.1v-.86ZM7.47 10.86h.09v.92h-.1v-.92ZM7.88 10.86h.09v.92h-.1v-.92ZM8.34 10.79h.09v.99h-.1v-1ZM8.8 10.55h.09v1.23h-.1v-1.23ZM9.23 10.55h.09v1.23h-.1v-1.23ZM9.66 10.32h.09v1.46h-.1v-1.46ZM10.06 10.2h.1v1.58h-.1v-1.59ZM10.53 10.2h.1v1.58h-.1v-1.59ZM10.94 10.02h.09v1.76h-.1v-1.76ZM11.34 10.02h.1v1.76h-.1v-1.76ZM11.74 9.87h.1v1.9h-.1v-1.9Z"/><path d="M12.2 9.87h.1v1.9h-.1v-1.9Z"/></svg>