<!-- by TradingView --><svg width="18" height="18" xmlns="http://www.w3.org/2000/svg"><path fill="#3F4F7D" d="M0 0h18v18H0z"/><path d="M8.647 4v1.136c.007.096-.088.291-.395.286a44.717 44.717 0 00-1.1 0c-.28.007-.84.208-.823.915.016.707.557.856.824.873h4.668c.056 0 .165.057.16.183-.007.127-.102.175-.16.175H5.789c-.278-.005-.839.166-.844.891-.005.725.562.898.844.898h6.488c.06.002.17.059.173.181.003.122-.112.176-.173.176H6.173c-.27.02-.802.211-.786.883.016.671.53.874.786.906h4.66c.068 0 .154.062.154.187s-.084.171-.153.171H9.483c-.256.005-.83.117-.836.884A86.887 86.887 0 008.646 14C5.497 13.847 3 11.667 3 9s2.498-4.847 5.647-5zm.704 0c-.001.209-.002.605.002 1.249.005.897-.594.903-.903.888H7.214a.163.163 0 00-.153.172c.004.135.12.178.153.186h4.745c.245.025.738.22.754.898.016.678-.496.868-.754.89H5.822c-.066 0-.145.072-.148.176-.003.104.095.177.148.177h6.587c.256.025.77.205.77.882 0 .678-.514.887-.77.912H6.252c-.06 0-.151.045-.154.167-.003.122.099.19.154.19h4.754c.233 0 .724.22.73.891.005.672-.49.9-.73.898a70.552 70.552 0 00-1.35 0c-.17.006-.303.169-.303.264V14C12.503 13.848 15 11.667 15 9c0-2.668-2.499-4.848-5.649-5z" fill="#fff"/></svg>