<!-- by TradingView --><svg width="18" height="18" viewBox="0 0 18 18" xmlns="http://www.w3.org/2000/svg"><path fill="#F0F3FA" d="M0 0h18v18H0z"/><path d="M14 5v8h-2.84c-.69 0-1.27-.14-1.74-.41a2.5 2.5 0 0 1-.53-.4L7 10.22V8.07l3.1 3.23.2.14c.2.12.49.13.86.13h1.28V6.43H11V5h3ZM5.56 6.43h1.28c.37 0 .66 0 .87.13l.18.14L11 9.93V7.77L9.1 5.82a2.49 2.49 0 0 0-.53-.4A3.39 3.39 0 0 0 6.85 5H4v8h3v-1.43H5.56V6.43Z" fill="url(#asabcdvyr)"/><defs><linearGradient id="asabcdvyr" x1="9" y1="5" x2="9" y2="13" gradientUnits="userSpaceOnUse"><stop stop-color="#01ADEC"/><stop offset="1" stop-color="#0066BA"/></linearGradient></defs></svg>