<!-- by TradingView --><svg width="18" height="18" viewBox="0 0 18 18" xmlns="http://www.w3.org/2000/svg"><path fill="#F0F3FA" d="M0 0h18v18H0z"/><path d="M13.97 5.64a6 6 0 1 0-9.94 6.72 6 6 0 0 0 9.94-6.72Zm.43 5.6A5.85 5.85 0 1 1 3.6 6.77a5.85 5.85 0 0 1 10.8 4.49Z" fill="#065591"/><path d="M10.82 5.47 13 9.1V5.47h.4A4.68 4.68 0 0 0 11.65 4a5.79 5.79 0 0 0-7 1.34c-.09.1 0 .04-.08.14h.28L7 9.11V5.47h1.82v7.06H7.18L5 8.9v3.63h-.4c.51.68 1 1.09 1.76 1.48a5.8 5.8 0 0 0 7.03-1.39c.07-.08-.01 0 .05-.1h-.21L11 8.8v3.73H9.18V5.47h1.64Z" fill="#065591"/></svg>