<!-- by TradingView --><svg width="18" height="18" xmlns="http://www.w3.org/2000/svg"><path fill="#F0F3FA" d="M0 0h18v18H0z"/><path d="M9.368 6.501c-.52 0-1.05.217-1.37.5L8 6.588c0-.042-.03-.088-.07-.088h-.857c-.04-.014-.07.032-.07.074L7 11.425c0 .04.03.076.07.076h.86c.04 0 .07-.035.07-.077V8.14c-.002-.441.734-.566.994-.566.37 0 1.006.252 1.006.994v2.857c0 .042.05.056.09.056l.84.021c.04 0 .07-.014.07-.056V8.348c.03-1.223-.753-1.847-1.632-1.847z" fill="#A4AAAD"/><path d="M9 4C6.241 4 4 6.241 4 9s2.241 5 5 5 5-2.241 5-5c.01-2.759-2.241-5-5-5zm3.976 5A3.982 3.982 0 019 12.976 3.982 3.982 0 015.024 9 3.982 3.982 0 019 5.024c2.19.01 3.976 1.785 3.976 3.976z" fill="url(#paint0_linear)"/><defs><linearGradient id="paint0_linear" x1="9.003" y1="14.006" x2="9.003" y2="4" gradientUnits="userSpaceOnUse"><stop stop-color="#8AB232"/><stop offset="1" stop-color="#BCCB2A"/></linearGradient></defs></svg>