<!-- by TradingView --><svg width="18" height="18" viewBox="0 0 18 18" xmlns="http://www.w3.org/2000/svg"><path fill="#F0F3FA" d="M0 0h18v18H0z"/><path d="m9.3 5.01-.28.03a7.7 7.7 0 0 0-3.55 1.04c-.93.6-1.42 1.36-1.38 2.18.03.71.3 1.3.78 1.77.52.49 1.2.78 2.16.91.18.03.22.02.17-.01a4.64 4.64 0 0 1-.45-.24c-.8-.47-1.29-1.05-1.45-1.7a1.35 1.35 0 0 1-.03-.42c0-.28 0-.3.04-.49.13-.57.39-1.03.79-1.4.35-.32.76-.58 1.3-.83a9.54 9.54 0 0 1 2.92-.8l-.07-.02-.14-.02a7.23 7.23 0 0 0-.81 0Zm.74.49c-.56.05-1.03.16-1.5.35-.56.23-1.09.57-1.5 1-.21.2-.43.48-.4.5l.2-.08a7.6 7.6 0 0 1 3.4-.68c1.55.09 2.77.68 3.6 1.74a5 5 0 0 1 .83 1.9c.03.2.03.2.08.1l.14-.38a3.19 3.19 0 0 0-.95-3.21 4.43 4.43 0 0 0-2.52-1.2c-.4-.06-1-.08-1.38-.04Zm.8 1.54c-.03.02-.01.03.12.1l.45.28c.6.44.94.8 1.17 1.23.15.28.21.51.21.79 0 .77-.42 1.58-1.1 2.1-.46.35-1.36.79-2.21 1.06a10.75 10.75 0 0 1-1.57.36c-.23.03-.16.05.18.04.95-.03 1.74-.12 2.53-.3a4.98 4.98 0 0 0 2.99-1.73c.14-.2.25-.45.3-.7.05-.2.06-.63.02-.86a2.32 2.32 0 0 0-.35-.96 3.38 3.38 0 0 0-1.14-.98c-.38-.2-.86-.36-1.22-.42a1.51 1.51 0 0 0-.38 0Zm-7.57.58a3.15 3.15 0 0 0-.25 1.04 2.44 2.44 0 0 0 .02.71 3.03 3.03 0 0 0 1.42 2.23 5.89 5.89 0 0 0 3.94.87 4.56 4.56 0 0 0 2.98-1.83c0-.02-.02 0-.09.04-.35.27-.9.51-1.42.64a5.18 5.18 0 0 1-1.73.16c-.4-.03-.63-.06-1.01-.13a6.98 6.98 0 0 1-2.12-.73 3.6 3.6 0 0 1-1.27-1.17 2.94 2.94 0 0 1-.42-1.84c.01-.07-.01-.06-.05.01Z" fill="#5E5E5E"/></svg>