<!-- by TradingView --><svg width="18" height="18" xmlns="http://www.w3.org/2000/svg"><path fill="#3B3B3B" d="M0 0h18v18H0z"/><path d="M9.613 4.526c-.939-.25-1.448.322-1.571.548l.513.184c.124-.106.367-.22.474-.265.65-.212.84.089.854.265.09.712-.16 1.192-.298 1.344-.37.318-1.102.657-1.712.097a1.534 1.534 0 01-.445-1.625c.065-.248.259-.725 1.206-1.186.947-.462 2.121-.554 2.557-.475.147.028.486.136.659.34.173.205.669.88.895 1.193l.289.378c.329.288.327.775.415.83.03.69-.054.784-.18 1.652-.1.693-.779.973-1.186 1.235-.453.308-1.62.864-1.942 1.068-.321.205-.356.958-.404 1.233l-.124.652c-.048.161-.271.399-.584.444-.313.046-.788-.245-1.06-.444-.215-.05-.884-.76-1.584-.403-.7.355-1.362 1.075-1.606 1.39L4 14c.31-.13 1.093-.37 1.496-.843a4.675 4.675 0 011.079-.92c.973-.495 1.67.443 1.98.633.235.17.977.37 1.428 0 .451-.371.705-.93.667-1.28.174-.675.741-1.206 1.056-1.313.664-.334 1.881-.43 2.142-1.408.261-.977.153-2.538 0-2.83-.092-.161-.486-.626-.937-1.33-.45-.704-.991-1.201-1.205-1.362-.474-.262-2.01-.72-3.575-.092-1.565.628-1.824 1.87-1.746 2.355.083.54.774 1.759 2.01 1.88 1.235.121 1.81-.718 1.941-1.087.141-.46.216-1.628-.723-1.877z" fill="#C1A46B"/><path d="M13.038 4.818c-.048-.969-.745-1.285-1.088-1.322.788.466.739 1.252.715 1.604-.175 1.125-.3 1.088-1.072 1.845-.618.606-2.098 1.293-2.741 1.582-.613.155-2.175 1.01-3.34 2.741C4.35 13 4.313 13.452 4 14c.42-.397 1.3-1.17 1.8-1.7.524-.553 1.342-1.584 1.769-1.98.262-.244 1.095-.861 2.548-1.512 1.453-.65 2.182-1.443 2.365-1.713.205-.356.604-1.309.556-2.277z" fill="#C1A46B"/><path d="M6.919 11H3.005v-1h3.914v1zM15 11h-4.092v-1H15v1z" fill="#C1A46B"/></svg>