<!-- by TradingView --><svg width="18" height="18" viewBox="0 0 18 18" xmlns="http://www.w3.org/2000/svg"><path fill="#F0F3FA" d="M0 0h18v18H0z"/><path d="M13.22 9.66A4.25 4.25 0 0 1 4.77 9a4.24 4.24 0 0 1 8-2h-.86l1.72 2L15 7h-.3A6.02 6.02 0 0 0 3 9a6.01 6.01 0 0 0 12 .74l-1.02.67-.76-.75Zm-4.4 1.46c1.14 0 2.07-.95 2.07-2.12 0-1.17-.93-2.12-2.06-2.12-1.14 0-2.06.95-2.06 2.12 0 1.17.92 2.12 2.06 2.12ZM12.27 9a3.48 3.48 0 0 1-3.43 3.53A3.48 3.48 0 0 1 5.4 9a3.48 3.48 0 0 1 3.43-3.53c1.9 0 3.43 1.58 3.43 3.53ZM8.3 8.3h-.85c0-.71.68-1.24 1.37-1.24.68 0 1.2.53 1.2 1.23 0 .57-.69 1.18-1.03 1.42h.86v.7h-2.4c.57-.59 1.71-1.83 1.71-2.12 0-.17 0-.53-.34-.53-.28 0-.46.36-.52.53Z" fill="url(#a)"/><defs><linearGradient id="a" x1="9" y1="3" x2="9" y2="15" gradientUnits="userSpaceOnUse"><stop stop-color="#3572AC"/><stop offset=".25" stop-color="#3A74AA"/><stop offset="1" stop-color="#B3D152"/></linearGradient></defs></svg>