<!-- by TradingView --><svg width="18" height="18" xmlns="http://www.w3.org/2000/svg"><path fill="#14B289" d="M0 0h18v18H0z"/><circle cx="9" cy="9" r="5" fill="#fff"/><path d="M10.7 5.826l-3.21 7.942s.383.13.821.185l3.192-7.804c.025-.107.007-.35-.272-.453-.28-.103-.47.043-.531.13zM12.569 5.498l-3.447 8.501s.466 0 .974-.114l3.076-7.645a4.764 4.764 0 00-.604-.742zM8.188 7.638l-2.11 5.42s.322.238.697.423L8.99 7.96c.026-.107.008-.349-.272-.452-.28-.104-.47.043-.53.13zM5.745 9.635l-.827 2.254s.246.362.625.723l1.005-2.654c.026-.108.008-.35-.272-.453-.28-.103-.47.043-.53.13z" fill="#14B289"/></svg>