<!-- by TradingView --><svg width="18" height="18" xmlns="http://www.w3.org/2000/svg"><path fill="#293E40" d="M0 0h18v18H0z"/><path d="M9.03 4a5.028 5.028 0 00-2.819.873 5.058 5.058 0 00-1.85 2.307 5.08 5.08 0 001.194 5.537.99.99 0 001.29.067 3.59 3.59 0 014.29 0 .991.991 0 001.31-.067 5.08 5.08 0 001.205-5.508 5.058 5.058 0 00-1.823-2.31A5.028 5.028 0 009.03 4zm-.084 7.393c-1.43.046-2.42-1.005-2.386-2.334-.045-1.356.96-2.488 2.386-2.488 1.427 0 2.431 1.132 2.386 2.488.035 1.324-.963 2.372-2.386 2.334z" fill="#fff"/></svg>