<!-- by TradingView --><svg width="18" height="18" viewBox="0 0 18 18" xmlns="http://www.w3.org/2000/svg"><path fill="#F0F3FA" d="M0 0h18v18H0z"/><path d="M9 4c-.68.28-1.4.9-1.4 2.16 0 1.34.1 1.8.2 2.16.05.23.1.42.1.78 0 .92-.96 1.9-1.86 1.9-.9 0-1.98-.67-2.04-2.32A4.85 4.85 0 0 1 9 4Zm3.79 8.25a4.95 4.95 0 0 0-1.43-7.6c-1.53-.76-2.7-.12-3.16.7-.47.8-.07 2.16.76 2.61.33.18.53.23.77.3.37.1.84.22 2.06.88 1.6.87 1.33 2.42 1 3.1v.01ZM9 14c.66 0 1.29-.13 1.86-.36.23-.12.44-.24.62-.36 1.44-.98 1.47-2.4 1-3.29-.34-.63-1.15-1.01-1.88-.99-.29.01-.56.08-.8.23-.32.2-.46.35-.64.53-.27.28-.62.65-1.82 1.4-1.48.91-2.65-.03-3.13-.7A5 5 0 0 0 9 14Z" fill="url(#aumb4mesm)"/><defs><linearGradient id="aumb4mesm" x1="9" y1="4" x2="9" y2="14" gradientUnits="userSpaceOnUse"><stop stop-color="#38499C"/><stop offset="1" stop-color="#00B1E3"/></linearGradient></defs></svg>