<!-- by TradingView --><svg width="18" height="18" viewBox="0 0 18 18" xmlns="http://www.w3.org/2000/svg"><path fill="#F0F3FA" d="M0 0h18v18H0z"/><path d="M13.22 9.26c-.86 2.22-2 3.35-2.8 3.9a4.52 4.52 0 0 1-2.59.84c-.74 0-1.52-.18-2.31-.54a.4.4 0 0 1 .33-.74c1.53.7 2.91.62 4.11-.22 1-.7 1.9-1.95 2.5-3.53.5-1.3.79-2.77.72-3.75a.4.4 0 1 1 .81-.05 10.6 10.6 0 0 1-.77 4.09ZM8 11c0 .22.36.47.58.47a.4.4 0 0 0 .33-.16l3.88-4.94L9 9.94v-1.9c0-.17-.11-.48-.27-.54-.16-.06-.49.02-.6.15l-3.1 3.9c-.4-1.2-.27-2.31.4-3.31a7.63 7.63 0 0 1 3.5-2.6c1.32-.54 2.8-.86 3.85-.83a.4.4 0 0 0 .02-.8c-2.23-.07-6.38 1.24-8.05 3.78-.92 1.4-1 3.02-.22 4.7a.4.4 0 0 0 .67.09L8 9v2Z" fill="url(#a3cdf22hi)"/><defs><linearGradient id="a3cdf22hi" x1="13.14" y1="5.33" x2="6.51" y2="13.99" gradientUnits="userSpaceOnUse"><stop stop-color="#7DA237"/><stop offset="1" stop-color="#5C7C33"/></linearGradient></defs></svg>