<!-- by TradingView --><svg width="18" height="18" viewBox="0 0 18 18" xmlns="http://www.w3.org/2000/svg"><path fill="#F0F3FA" d="M0 0h18v18H0z"/><path d="M9 14a5 5 0 0 0 3.22-8.82.74.74 0 0 1-.55.57l-.1 5.4a.73.73 0 1 1-.97.22L7.9 7.23a.6.6 0 0 1-.24-.02l-2.33 4.15a.73.73 0 0 1-.07.95A4.99 4.99 0 0 0 9 14Zm-3.98-2.88 2.32-4.13a.59.59 0 1 1 .9.07l2.66 4.06a.73.73 0 0 1 .29-.06l.1-5.33a.74.74 0 0 1-.23-1.29 5 5 0 0 0-6.6 6.67.73.73 0 0 1 .56 0Z" fill="url(#aaesxam2s)"/><path d="M9.21 14a5.15 5.15 0 0 1-.43 0l1.85-1.75c.06.08.14.14.23.2L9.2 14Zm3.55-1.7-.22.23-.74-.3c.05-.08.1-.17.12-.27l.84.34Zm-.02-6.62a5 5 0 0 1 .23.28l-1.4 5.2.02-1.19 1.15-4.29ZM6.25 9.71a3330.28 3330.28 0 0 1 4.32 1.72.73.73 0 0 0-.07.57H5.44a.74.74 0 0 0 .03-.3h5a7753.15 7753.15 0 0 0-4.36-1.73l.14-.26Zm4.65-4.26L8.4 6.53a.59.59 0 0 0-.13-.27l2.51-1.08c.02.1.06.2.12.27ZM7.24 6.7c0 .1.04.2.1.28L4.04 8.4a5 5 0 0 1 .05-.34L7.24 6.7ZM4 8.82a424.44 424.44 0 0 1 1.9.75l-.15.26A1637.56 1637.56 0 0 0 4 9.13a5.1 5.1 0 0 1 0-.31Z" fill="#92B4E3"/><defs><linearGradient id="aaesxam2s" x1="12.2" y1="5.04" x2="5.48" y2="12.75" gradientUnits="userSpaceOnUse"><stop stop-color="#495EB2"/><stop offset=".92" stop-color="#06A5C2"/></linearGradient></defs></svg>