<!-- by TradingView --><svg xmlns="http://www.w3.org/2000/svg" width="18" height="18" viewBox="0 0 18 18"><path fill="#F0F3FA" d="M0 0h18v18H0z"/><path d="M7.57 5.02A.27.27 0 0 0 7.48 5h-2.3c-.1 0-.18.08-.18.18v2.49l2.57-2.65zM5.05 12.95c.03.03.08.05.13.05H7.4c.1 0 .16-.08.16-.18V10.3l-2.52 2.65z" fill="#0DB04B"/><path d="M10.43 7.67v5.3l.01.01L13 10.33l-2.57-2.66z" fill="#076836"/><path d="M7.57 10.33v-5.3l-.01-.01L5 7.67v5.15c0 .05.02.1.05.13l2.52-2.62zM13 10.33V5.18c0-.1-.08-.18-.17-.18H10.6c-.1 0-.17.08-.17.18v2.49L13 10.33zM13 10.33l-2.57 2.65.08.02h2.32c.1 0 .17-.08.17-.18v-2.49z" fill="#8BC53F"/><path d="M7.65 5.07a.26.26 0 0 0-.08-.05v5.31l2.78 2.6.08.05V7.67l-2.78-2.6z" fill="#0DB04B"/></svg>