<!-- by TradingView --><svg xmlns="http://www.w3.org/2000/svg" width="18" height="18" viewBox="0 0 18 18"><path d="M18 0H0v18h18V0Z" fill="#F0F3FA"/><path d="M13 7c.23-.02 1 0 1 0v1h-1V7Zm-1 5c.41 0 .59.01.69.02.12 0 .14.01.31-.02.02-.1 0-1.92 0-2.68V9h2V6h-1.01l-1.3-.02c-.66 0-.69.02-.69.02v6ZM9 8V7h1v1H9Zm2 4V6H8v6h1l.01-1.46L9.03 9c.02 0 .96-.05.97 0 .03.26.02 1.07 0 1.88V12h1Zm-4 0H5.5l-.75-2-.25-4L6 10h1v2Zm-4 0v-2h1v2a166.64 166.64 0 0 1-1 0Z" fill="#BF0B26"/><path d="m7 10-.01-4H6v4L4.5 6H3v4h1V8l.75 2H7Z" fill="#3A4774"/><path fill="#F0F3FA" d="M10 8h1v1h-1z"/></svg>