<!-- by TradingView --><svg xmlns="http://www.w3.org/2000/svg" width="18" height="18" viewBox="0 0 18 18"><path fill="#F0F3FA" d="M0 0h18v18H0z"/><path d="M15.99 11.89c.02.03.01.07-.02.1a.06.06 0 0 1-.03.01h-.92a.06.06 0 0 1-.05-.03l-.47-.68a.1.1 0 0 1 0-.1l.46-.76a.05.05 0 0 1 .08-.01l.01.01.94 1.46zM14.96 9.27l-.45-.73a.07.07 0 0 1 0-.08l.47-.72a.06.06 0 0 1 .05-.03h.9c.04 0 .07.04.07.08l-.01.03-.93 1.45c-.02.03-.06.04-.09.02l-.01-.02z" fill="#00405D"/><path d="M14.7 9.9v.01l-.45.71-.84 1.35a.07.07 0 0 1-.05.03h-.92c-.04 0-.07-.04-.07-.08 0-.02 0-.03.02-.05l1.27-1.97.02-.04-.02-.04-1.29-2a.07.07 0 0 1 .02-.1h.98a.06.06 0 0 1 .04.02l.84 1.35.45.71v.01a.1.1 0 0 1 0 .1zM9 9h.45c.78 0 1.33-.28 1.33-1.04 0-.68-.5-.96-1.36-.96-.12 0-.31.03-.42.04V9zm-.07 3h-.85a.08.08 0 0 1-.08-.08V6.18c0-.04.03-.07.07-.08.44-.06.9-.1 1.35-.1 1.49 0 2.32.7 2.32 1.93 0 .87-.49 1.49-1.15 1.75l1.4 2.2c.02.03.01.08-.02.1a.07.07 0 0 1-.05.02h-1.07a.08.08 0 0 1-.06-.03l-1.24-1.93c-.02-.02-.04-.04-.06-.04h-.41c-.05 0-.08.04-.08.09v1.83c0 .04-.03.08-.07.08z" fill="#FFAB3D"/><path d="M6 10.11V6.1c0-.05.05-.09.1-.09h.8c.06 0 .1.04.1.09v5.81a.1.1 0 0 1-.09.1h-.84a.1.1 0 0 1-.07-.04L3 7.9v4c0 .06-.02.1-.07.1h-.84a.1.1 0 0 1-.09-.09V6.08A.1.1 0 0 1 2.1 6h.89a.1.1 0 0 1 .07.04L6 10.11z" fill="#00405D"/></svg>