<!-- by TradingView --><svg width="18" height="18" viewBox="0 0 18 18" xmlns="http://www.w3.org/2000/svg"><path fill="#F0F3FA" d="M0 0h18v18H0z"/><path d="m15.8 7.9.05-.25c.28-1.23-.55-1.78-1.15-2.03a6.16 6.16 0 0 0-1.69-.41c-.62-.07-1.25-.1-1.91-.08a33.24 33.24 0 0 0-4.5.4c1.03-.18 2.06-.32 3.1-.42 1.09-.1 2.19-.15 3.28-.07.41.04.82.1 1.23.2.63.15 2.02.6 1.76 2.08-.04.2-.1.4-.17.58Z" fill="#818285"/><path d="M15.8 7.9c-.18.5-.42 1-.73 1.68.3-.68.33-1.56 0-2.2A2.34 2.34 0 0 0 14 6.41a6.48 6.48 0 0 0-1.76-.56 16 16 0 0 0-2.57-.26 30.35 30.35 0 0 0-4.4.2l1.32-.26v.01h.02l.63-.1c1.28-.17 2.56-.3 3.85-.32.66-.02 1.3.01 1.91.08.56.06 1.14.18 1.7.4.59.26 1.42.81 1.14 2.04l-.05.25ZM11.19 12.48l-.05-.01a27.03 27.03 0 0 1-5.01.4 9.13 9.13 0 0 1-2.48-.36c-.55-.17-1.58-.6-1.56-1.75a2.58 2.58 0 0 1 .23-.99 147.4 147.4 0 0 1 .6-1.35c-.37.87-.3 1.95.27 2.57a3.5 3.5 0 0 0 1.58.9c1.1.35 2.25.46 3.39.5a30.72 30.72 0 0 0 4.45-.18c-.45.1-.93.19-1.42.27Z" fill="#176A93"/><path d="M2.2 10.1c-.07.24-.1.46-.11.66-.02 1.14 1 1.58 1.56 1.75.8.25 1.66.34 2.48.35 1.36.03 2.72-.08 4.08-.26l.93-.13.04.01c-1.25.23-2.5.39-3.77.47-1.15.08-2.33.08-3.47-.16-.66-.14-2.23-.57-1.9-2.19.04-.17.1-.35.16-.5Z" fill="#818285"/><path d="M5 7v4h.6V7.99L7.18 11H8V7h-.6v2.95L5.86 7H5Z" fill="#176A93"/><path d="m8.91 11 1.64-4h.77L13 11h-.73l-.4-1h-1.84l-.4 1H8.9Zm1.32-1.5h1.44l-.72-1.8-.72 1.8Z" fill="#818285"/></svg>