<!-- by TradingView --><svg xmlns="http://www.w3.org/2000/svg" width="18" height="18" viewBox="0 0 18 18"><path fill="url(#abyxuhxbl)" d="M0 0h18v18H0z"/><path d="m11.25 5.5 2.25-1L9 8.36C7.36 6.84 7.43 6.89 7.43 6.89l-1.6-1.46L9 6.48l2.25-.98Zm-4.48 7-2.27 1 4.52-3.87 1.58 1.47 1.59 1.46-3.17-1.05-2.25.99Z" fill="#50B580"/><path d="m6.02 7.01-.97-1.97L8.5 9.01l-1.16 1.25-1.16 1.26.84-2.5-1-2ZM12 11s-.07-.12.96 1.97L9.52 9l1.16-1.25 1.16-1.26-.83 2.5L12 11Z" fill="#5DC0C9"/><defs><linearGradient id="abyxuhxbl" x1="3.35" y1="3.12" x2="21.9" y2="24.43" gradientUnits="userSpaceOnUse"><stop stop-color="#1A1E21"/><stop offset="1" stop-color="#06060A"/></linearGradient></defs></svg>