<!-- by TradingView --><svg width="18" height="18" viewBox="0 0 18 18" xmlns="http://www.w3.org/2000/svg"><path fill="#F0F3FA" d="M0 0h18v18H0z"/><circle cx="9" cy="9" r="5" fill="#77AE41"/><circle cx="9" cy="9" r="4.69" fill="url(#an3wzmhfi)"/><path d="M10.9 4.38c.7.68 1.54 1.8 1.54 3.02 0 .83-.29.98-.77.98-.65 0-3.27-1.05-4.5-1.6l1.51 1.67 3.75 1.28 1.5.1.04-.32-.3-2.28a5.02 5.02 0 0 0-2.77-2.85Z" fill="url(#bn3wzmhfi)"/><path d="m4.13 7.85 1.14.07 3.75 1.29 3.63 2.1-.74-.3c-1.58-.63-4.23-1.7-5.87-1.7-.49 0-.79.05-.79.88 0 1.07 1 2.59 1.75 3.4a5 5 0 0 1-2.87-5.74Z" fill="url(#cn3wzmhfi)"/><path d="M13.27 11.6 8.25 9.27c-.6-.3-1.97-.88-2.62-.88-.42 0-1 .33-1 1.12 0 .74.53 2.31 2.28 4.04a5 5 0 0 1-1.94-7.5A19.25 19.25 0 0 1 9.1 7.63C10.49 8.36 11.7 9 12.57 9c.32 0 .44-.42.43-.94a4.94 4.94 0 0 0-1.99-3.64 5 5 0 0 1 2.26 7.19Z" fill="url(#dn3wzmhfi)"/><defs><linearGradient id="an3wzmhfi" x1="9" y1="4.31" x2="9" y2="13.69" gradientUnits="userSpaceOnUse"><stop stop-color="#ADCA88"/><stop offset=".34" stop-color="#78AD41"/><stop offset=".73" stop-color="#7CAF46"/><stop offset="1" stop-color="#ABC885"/></linearGradient><linearGradient id="bn3wzmhfi" x1="7.76" y1="5.21" x2="11.97" y2="9.04" gradientUnits="userSpaceOnUse"><stop offset=".57" stop-color="#CECFD1"/><stop offset="1" stop-color="#97989D"/></linearGradient><linearGradient id="cn3wzmhfi" x1="4.74" y1="8.72" x2="8.79" y2="13.59" gradientUnits="userSpaceOnUse"><stop stop-color="#BDBEC2"/><stop offset=".8" stop-color="#717276"/></linearGradient><linearGradient id="dn3wzmhfi" x1="14" y1="8.98" x2="4" y2="8.98" gradientUnits="userSpaceOnUse"><stop offset=".1" stop-color="#B4B5B9"/><stop offset=".52" stop-color="#F7F7F7"/><stop offset=".94" stop-color="#B3B7B9"/></linearGradient></defs></svg>