<!-- by TradingView --><svg width="18" height="18" viewBox="0 0 18 18" xmlns="http://www.w3.org/2000/svg"><path fill="#F0F3FA" d="M0 0h18v18H0z"/><path d="M4.97 4c-.27.04-.5.14-.64.28-.17.18-.3.43-.33.8v5.23c0 .02.06.05.06.06a5.05 5.05 0 0 0 .23-.23l2.86-3.42.56-.67c.57-.6 1.98-.68 2.25.33.05.19.03.13.04 2.28v1.97l.13-.13c1.23-1.35 2.04-2.8 3.22-4.2.5-.6.5-.6.56-.73l.06-.17a.9.9 0 0 0 .02-.33c0-.23 0-.24-.02-.33-.11-.4-.35-.63-.74-.72C13.16 4 12.87 4 9.1 4H4.97Zm-.48 7.93-.42.52c-.07.11-.1.49-.05.68.1.48.43.8.91.86l4.1.01c3.55 0 4.05 0 4.15-.02.43-.05.67-.25.77-.64.05-.2.05-.06.05-3V7.6l-.02.02c-.07.05-.31.33-.48.52l-2.3 2.7a246.63 246.63 0 0 0-1.1 1.24c-.19.18-.4.3-.62.34-.5.1-1.44 0-1.44-.83C8 11.43 8 11.1 8 9.26V7.5c0-.03-.05-.09-.06-.09 0 0-2.92 3.89-3.45 4.52Z" fill="#D1232A"/></svg>