<!-- by TradingView --><svg width="18" height="18" viewBox="0 0 18 18" xmlns="http://www.w3.org/2000/svg"><path fill="#00285B" d="M0 0h18v18H0z"/><path d="M7.7 13v-2.21c0-.5-.2-.74-.67-.74-.52 0-.74.25-.74.75V13H5V9h1.2v.52h.02C6.5 9.14 6.88 9 7.4 9c.78 0 1.6.38 1.6 1.48V13H7.7ZM9.94 4l.2 1.38 1.37.62-1.37.62-.23 1.37-1.05-1-1.5.23.7-1.23-.7-1.24 1.5.24L9.95 4Zm-.45 1.23-.4.38-.58-.1.26.48-.27.47.58-.09.4.4.1-.54.52-.23-.52-.24-.09-.53Z" fill="#FEFEFE"/><path d="M11.64 10.18c0-.22-.18-.28-.39-.28-.2 0-.36.1-.36.25 0 .2.2.3.79.43 1 .24 1.32.6 1.32 1.14 0 .79-.76 1.28-1.7 1.28-.95 0-1.63-.48-1.72-1.24h1.25c.04.23.23.34.48.34.22 0 .43-.11.43-.29 0-.2-.14-.31-.77-.49-1.05-.29-1.33-.66-1.33-1.1 0-.74.77-1.22 1.62-1.22.9 0 1.55.44 1.61 1.18h-1.23Z" fill="#C4D82D"/></svg>