<!-- by TradingView --><svg width="18" height="18" viewBox="0 0 18 18" xmlns="http://www.w3.org/2000/svg"><path fill="#295A4F" d="M0 0h18v18H0z"/><path d="M13.55 7.03c-.06.04-.09.08-.08.16l.15 1.35c0 .03 0 .08-.02.13-.34-.22-.68-.44-1-.68-.11-.07-.12-.14-.16-.26a2.12 2.12 0 0 0-1.96-1.58c-.99-.03-1.8.4-2.18 1.34-.09.22-.1.5-.18.76 0 .02-.02.03-.04.04-.32.1-1.06.42-1.22.16a20.6 20.6 0 0 0-.71-1.07.1.1 0 0 0-.12 0l-.19.14c-.19-.14-.32-.31-.39-.52-.12-.37.03-1.01.12-1.42a.04.04 0 0 0-.03-.05h-.02c-.04 0-.06-.02-.06-.06.6-.55 1.26-.95 2-1.21 2.46-.86 5.02.5 6.09 2.77Z" fill="#FFF5CF"/><path d="M5.46 5.47c0 .04.02.06.06.05a.04.04 0 0 1 .04.03v.03c-.09.4-.23 1.05-.1 1.42.06.2.19.38.38.52L4.08 9.05a.1.1 0 0 0-.03.04l-.01.04c-.03.06-.04.06-.04 0a4.87 4.87 0 0 1 1.46-3.66Z" fill="#DDD2B0"/><path d="M8.55 8.28a1.78 1.78 0 0 1 3.5-.3c.03.1 0 .2-.08.28-.3.38-.6.78-1.08.8-.38 0-1.03.08-1.37-.1-.13-.06-1-.5-.97-.68Z" fill="#FDDF6F"/><path d="M13.55 7.03c.12.26.52 1.3.33 1.54a.31.31 0 0 1-.28.1l.02-.13-.15-1.35c-.01-.08.02-.12.08-.16Z" fill="#DDD2B0"/><path d="M6.38 11.25c-.55-.77-1.03-1.94-.72-2.88.01-.03 0-.03 0-.07l.31-.24c.02-.01.04 0 .05.01.2.35.59 1.02.87 1.06.33.04 1.06-.24 1.38-.36a.1.1 0 0 1 .09 0l1.04.6a.01.01 0 0 1 0 .01.01.01 0 0 1 0 .01c-1.1.42-2.37.84-3.02 1.86Z" fill="#9FCCA2"/><path d="M5.66 8.3c0 .04.01.04 0 .07-.31.94.17 2.1.72 2.88l-.73 1.4a.03.03 0 0 1-.06 0 5.1 5.1 0 0 1-1.56-3.01c.44-.5 1.09-.94 1.63-1.34Z" fill="#7FA381"/><path d="M13.62 9.45c-.03.4-.24.86-.43 1.31-.36.85-.96 1.19-1.81 1.37-.35-.22-.7-.59-.57-1.02.03-.08.12-.24.28-.45.25-.33.5-.67.49-1.1 0-.01 0-.03.02-.05l.73-.87a.04.04 0 0 1 .05 0l1.24.8Z" fill="#9FCCA2"/><path d="M11.38 12.13c.85-.18 1.45-.52 1.8-1.37.2-.45.4-.9.44-1.31l.34-.3a.02.02 0 0 1 .03-.01l.01.02a5.16 5.16 0 0 1-1.55 3.38c-.4-.05-.75-.2-1.07-.41Z" fill="#7FA381"/><path d="M11.1 9.68a.23.23 0 0 0-.17-.01c-.64.22-1.23.56-1.78 1.02a2.47 2.47 0 0 0-.92 2.35 2.4 2.4 0 0 0 .28.91v.03c-.9-.1-1.71-.4-2.44-.92a6.55 6.55 0 0 1 1.4-2.18 5.24 5.24 0 0 1 3.65-1.3c.03.03.02.07-.02.1Z" fill="#56ACDE"/><path d="M11.1 9.68c-.22.37-.59.6-.72 1.01-.33 1.02.68 2.06 1.6 2.26a.04.04 0 0 1 .02.03.04.04 0 0 1-.02.03 4.93 4.93 0 0 1-3.48.97v-.06a2.4 2.4 0 0 1-.28-.88c-.12-.96.2-1.74.93-2.35.55-.46 1.14-.8 1.78-1.02.05-.02.1-.01.17.01Z" fill="#2C72B5"/></svg>