<!-- by TradingView --><svg width="18" height="18" viewBox="0 0 18 18" xmlns="http://www.w3.org/2000/svg"><path fill="url(#auvh0hryv)" d="M0 0h18v18H0z"/><path d="M10 13c1.29 0 2.33-1.8 2.33-4S11.3 5 10 5c-.52 0-1 .3-1.4.79.19-.08.37-.12.57-.12 1.2 0 2.16 1.64 2.16 3.66 0 1.8-.75 3.28-1.75 3.6.13.05.28.07.42.07ZM7.33 7.67C4.83 7.87 3 8.53 3 9.3c0 .41 1.33.86 2.67.86C4.8 9.87 4 9.6 4 9.3c0-.44 1.38-.81 3.33-.96v-.68ZM14 10.33s.33-.34.33-.85-.78-.8-2-.98v-.61c1.61.3 2.67.83 2.67 1.42 0 .31-.48.77-1 1.02ZM5.3 11H5v1h.3v-.5l.7.5h.3v-1H6v.5l-.7-.5ZM8 11H7v.25h.3V12h.32v-.75H8V11ZM9 11h-.3v1H9v-1Z" fill="#F0F3FA"/><defs><linearGradient id="auvh0hryv" x1="3.35" y1="3.12" x2="21.9" y2="24.43" gradientUnits="userSpaceOnUse"><stop stop-color="#1A1E21"/><stop offset="1" stop-color="#06060A"/></linearGradient></defs></svg>