<!-- by TradingView --><svg xmlns="http://www.w3.org/2000/svg" width="18" height="18"><path fill="#F0F3FA" d="M0 0h18v18H0z"/><path d="M9 14a5 5 0 005-5.1c-.2.34-1.02 1.03-2.75 1.1-.48-.02-1.6-.12-2.24-.32-.8-.26-2.79-.78-5-.56A5 5 0 009 14zM4 9.12V9a5 5 0 0110-.1 8.46 8.46 0 01-4.13-.45A10.3 10.3 0 007.45 8c-1.6.02-2.96.75-3.45 1.12z" fill="url(#a5xkgygbb)"/><defs><linearGradient id="a5xkgygbb" x1="4" y1="9" x2="14" y2="9" gradientUnits="userSpaceOnUse"><stop stop-color="#D2DA00"/><stop offset=".58" stop-color="#82C9B5"/><stop offset="1" stop-color="#0280C4"/></linearGradient></defs></svg>