<!-- by TradingView --><svg xmlns="http://www.w3.org/2000/svg" width="18" height="18"><path d="M0 9a9 9 0 1118 0A9 9 0 010 9z" fill="#F0F3FA"/><ellipse cx="7.11" cy="6.97" rx="2.81" ry="2.97" fill="#009CDE"/><ellipse cx="7.11" cy="11.03" rx="2.81" ry="2.97" fill="#99CA3C"/><ellipse cx="10.86" cy="11.03" rx="2.81" ry="2.97" fill="#009CDE"/><ellipse cx="10.86" cy="6.97" rx="2.81" ry="2.97" fill="#99CA3C"/><path d="M5.06 9a2.74 2.74 0 012.05-.94c.81 0 1.54.36 2.05.94-.5.58-1.24.94-2.05.94-.8 0-1.54-.36-2.05-.94z" fill="#005E7F"/><path d="M8.99 13.24c.57-.54.94-1.33.94-2.2 0-.89-.37-1.68-.94-2.22a3.04 3.04 0 00-.94 2.21c0 .88.36 1.67.94 2.21z" fill="#005E7F"/><path d="M8.81 9a2.74 2.74 0 012.05-.94c.81 0 1.54.36 2.05.94-.5.58-1.24.94-2.05.94-.8 0-1.54-.36-2.05-.94z" fill="#005E7F"/><path d="M8.99 9.18c.57-.54.94-1.33.94-2.21 0-.88-.37-1.67-.94-2.21a3.04 3.04 0 00-.94 2.2c0 .89.36 1.68.94 2.22z" fill="#005E7F"/><path d="M9.61 9.63s-.35-.2-.7-.54-.55-.71-.55-.71.39.18.74.52c.34.34.51.72.51.72z" fill="#fff"/><path d="M8.36 9.63s.36-.2.7-.54c.35-.34.55-.71.55-.71s-.38.18-.73.52-.52.72-.52.72z" fill="#fff"/></svg>