<!-- by TradingView --><svg width="18" height="18" viewBox="0 0 18 18" xmlns="http://www.w3.org/2000/svg"><path fill="#F0F3FA" d="M0 0h18v18H0z"/><path d="M5.87 8.09a1.4 1.4 0 0 1-.32.47c-.31.31-.7.44-1.11.46l1.53 1.53c.02-.41.14-.8.45-1.12.14-.14.3-.24.47-.32a1.72 1.72 0 0 1-1.02-1.02Z" fill="#FF8300"/><path d="M5.54 11.56a1.5 1.5 0 0 0 0-2.11 1.48 1.48 0 0 0-2.1 0 1.5 1.5 0 0 0 0 2.1c.58.59 1.52.59 2.1 0Z" fill="#FF8300"/><path d="M8.55 6.44a1.5 1.5 0 0 1 0 2.1c-.58.59-1.53.59-2.1 0a1.5 1.5 0 0 1 0-2.1 1.48 1.48 0 0 1 2.1 0Z" fill="#53565A"/><path d="M14.56 6.44a1.48 1.48 0 0 0-2.53 1c-.02.41-.14.8-.45 1.12-.14.14-.3.25-.47.32.48.17.85.55 1.02 1.03a1.6 1.6 0 0 1 1.43-.93c.38 0 .74-.15 1.01-.43.57-.59.57-1.53 0-2.11Zm-.51 1.58a.76.76 0 0 1-1.07 0 .76.76 0 0 1 .53-1.3.75.75 0 0 1 .76.76.7.7 0 0 1-.22.54Z" fill="#00A7CE"/><path d="M11.56 9.46a1.5 1.5 0 0 1 0 2.1c-.58.59-1.52.59-2.1 0a1.5 1.5 0 0 1 0-2.1 1.48 1.48 0 0 1 2.1 0Z" fill="#53565A"/><path d="M9.44 8.56c-.31-.32-.44-.7-.46-1.12L7.45 8.98c.4.02.8.14 1.11.45.31.32.44.71.46 1.12l1.52-1.53a1.6 1.6 0 0 1-1.1-.46Z" fill="#53565A"/></svg>