<!-- by TradingView --><svg width="18" height="18" viewBox="0 0 18 18" xmlns="http://www.w3.org/2000/svg"><path fill="#F0F3FA" d="M0 0h18v18H0z"/><path d="M4.95 5A5.18 5.18 0 0 0 3 9c0 1.45.64 2.78 1.68 3.76l.48-.42a4.57 4.57 0 0 1-1.5-3.35c0-1.18.48-2.27 1.27-3.1l5.66 5 .5-.4C9.03 8.67 6.95 6.75 4.95 5Z" fill="url(#avibhbyb2)"/><path d="m13.04 13-1.17-1 .49-.39.64.57a4.54 4.54 0 0 0 1.33-3.19c0-1.3-.58-2.5-1.52-3.36l.5-.41c1.04.97 1.69 2.3 1.69 3.77 0 1.6-.76 3.02-1.96 4.01Z" fill="url(#bvibhbyb2)"/><path d="M9 12c1.06 0 2-.45 2.62-1.14l.46.44c-.73.8-1.84 1.3-3.08 1.3C6.8 12.6 5 11 5 9c0-.77.26-1.48.71-2.06l.48.44a2.79 2.79 0 0 0-.52 1.61C5.67 10.65 7.16 12 9 12Z" fill="url(#cvibhbyb2)"/><path d="M9 5.38a4.2 4.2 0 0 1 2.9 1.12l-.5.41a3.59 3.59 0 0 0-4.14-.5l-.45-.44A4.3 4.3 0 0 1 9 5.38Z" fill="url(#dvibhbyb2)"/><defs><linearGradient id="avibhbyb2" x1="4.5" y1="5.53" x2="14.21" y2="11" gradientUnits="userSpaceOnUse"><stop stop-color="#7A9DF0"/><stop offset="1" stop-color="#9778E0"/></linearGradient><linearGradient id="bvibhbyb2" x1="4.5" y1="5.53" x2="14.21" y2="11" gradientUnits="userSpaceOnUse"><stop stop-color="#7A9DF0"/><stop offset="1" stop-color="#9778E0"/></linearGradient><linearGradient id="cvibhbyb2" x1="4.5" y1="5.53" x2="14.21" y2="11" gradientUnits="userSpaceOnUse"><stop stop-color="#7A9DF0"/><stop offset="1" stop-color="#9778E0"/></linearGradient><linearGradient id="dvibhbyb2" x1="4.5" y1="5.53" x2="14.21" y2="11" gradientUnits="userSpaceOnUse"><stop stop-color="#7A9DF0"/><stop offset="1" stop-color="#9778E0"/></linearGradient></defs></svg>