<!-- by TradingView --><svg xmlns="http://www.w3.org/2000/svg" width="18" height="18" viewBox="0 0 18 18"><path fill="#830AD1" d="M0 0h18v18H0z"/><path d="M6.48 6c-.56 0-1.04.22-1.4.59H5c-.74 0-1.44.4-1.77 1.05-.15.28-.23.59-.23.89V12h1.5V8.05a2.1 2.1 0 0 1 .57-1.46c1.13 0 1.89.75 1.93 1.95V12h1.5V9.48c0-.62 0-1.15-.04-1.53C8.32 6.78 7.58 6 6.48 6zm5.04 6c.56 0 1.04-.22 1.4-.59H13c.74 0 1.44-.4 1.77-1.05.15-.28.23-.59.23-.89V6h-1.5v3.98a2.02 2.02 0 0 1-.57 1.43c-1.13 0-1.89-.75-1.93-1.95V6H9.5v2.52c0 .62 0 1.15.04 1.53.14 1.17.88 1.95 1.98 1.95z" fill="#fff"/></svg>