<!-- by TradingView --><svg width="18" height="18" viewBox="0 0 18 18" xmlns="http://www.w3.org/2000/svg"><path fill="#F0F3FA" d="M0 0h18v18H0z"/><path d="M8.11 5h.03c.12.06.22.14.3.25.02.03.04.04.07.03.26-.04.5-.02.75.06.04.02.07.01.1 0 .1-.07.2-.1.3-.08.05 0 .07-.02.08-.05.02-.07.06-.11.15-.12l.07.01.32.2a.1.1 0 0 0 .1 0l.32-.14a.11.11 0 0 1 .1 0l.5.26c.03.02.06.02.1.01.1-.02.18 0 .23.06.27.33.6.47 1 .41.03 0 .06 0 .09.02.06.03.13.04.2.02a.1.1 0 0 1 .09 0c.16.08.24.2.25.38 0 .04.02.06.06.06 1.48.16.9 1.62 1.13 1.74l.48.22c.03.02.05.04.06.07v.08c-.04.15-.32.26-.53.34a.16.16 0 0 1-.09 0c-.13-.03-.23 0-.3.1a.1.1 0 0 1-.08.05c-1.19-.03-2 .55-3.1.6a.15.15 0 0 0-.09.03c-.23.19-.8.34-1.1.37a.14.14 0 0 0-.1.04l-.2.2a.2.2 0 0 0-.04.07.96.96 0 0 1-.29.43c-.02.02-.07.04-.07.07v1.55c0 .03.08.1.1.12.16.2.29.04.46.04.15 0 .29.05.41.13l.1.03c.85.05 1.73.1 2.57.26.04 0 .04.02.02.05l-.03.02-.02.01H5.2a4.5 4.5 0 0 1-.54-.03c-.04 0-.05-.03-.05-.06.02-.18 3.08-.26 3.37-.27.04 0 .03-.01.03-.05v-1.82c-.12-.33-.18-.6-.28-.9a.13.13 0 0 0-.06-.07c-.82-.75-1-.35-1.95-.89a.08.08 0 0 0-.1 0c-.06.05-1.3.5-1.36.47a.2.2 0 0 0-.1-.02c-.23 0-.52-.09-.72 0a.1.1 0 0 1-.09 0c-.5-.22-.34-.59-.2-.97a.13.13 0 0 0 .01-.09l-.04-.13c0-.04 0-.07.06-.07.17-.95.77-1.56 1.3-1.74-.02-.04 0-.07.03-.1a.37.37 0 0 0 .15-.25.1.1 0 0 1 .03-.05.1.1 0 0 1 .15-.01c.1.08.22.1.36.07.04-.02.07-.01.1 0 .05.05.12.06.2.05l.08-.03C6.16 5.69 7.64 5.2 8.11 5Z" fill="#231F20"/></svg>