<!-- by TradingView --><svg width="18" height="18" viewBox="0 0 18 18" xmlns="http://www.w3.org/2000/svg"><path fill="#F35F37" d="M0 0h18v18H0z"/><path d="M3 8.99A2 2 0 0 1 5 7a2 2 0 0 1 2 1.99V11h-.53V8.99c0-.83-.63-1.46-1.47-1.46S3.53 8.16 3.53 9V11H3V8.99ZM11 9.01A2 2 0 0 1 9 11a2 2 0 0 1-2-1.99V7h.53v2.01c0 .83.64 1.46 1.47 1.46.84 0 1.47-.63 1.47-1.46V7H11v2.01Z" fill="#fff"/><path fill-rule="evenodd" d="M13 10.47c.84 0 1.47-.63 1.47-1.47S13.84 7.53 13 7.53c-.83 0-1.46.63-1.46 1.47s.63 1.47 1.46 1.47Zm0 .53a2 2 0 1 0 0-4 2 2 0 0 0 0 4Z" fill="#fff"/></svg>