<!-- by TradingView --><svg width="18" height="18" viewBox="0 0 18 18" fill="none" xmlns="http://www.w3.org/2000/svg"><path fill="#F0F3FA" d="M0 0h18v18H0z"/><path d="m5.78 5.78.53-.52c-.12.23-.28.77 0 1.05l-.53-.53ZM9 9 5.78 5.78 3.31 8.26a1.05 1.05 0 0 0 0 1.48l2.47 2.48L9 9Z" fill="#3C953B"/><path d="m5.78 12.22-.52-.53c.23.12.77.28 1.05 0L9 9l3.22 3.22-2.48 2.47c-.4.41-1.07.41-1.48 0l-2.48-2.47Z" fill="#EA3C24"/><path d="m12.22 12.22-.53.52c.12-.23.28-.77 0-1.05l.53.53ZM9 9l3.22 3.22 2.47-2.48c.41-.4.41-1.07 0-1.48l-2.47-2.48L9 9Z" fill="#173F73"/><path d="m12.74 6.3-.52-.52-.53.53c.28-.28.82-.12 1.05 0Zm-.52-.52L9 9 5.78 5.78l2.48-2.47a1.05 1.05 0 0 1 1.48 0l2.48 2.47ZM6.3 5.26l-.53.52.53.53c-.28-.28-.12-.82 0-1.05Z" fill="#FED703"/><circle cx="9" cy="9" fill="#FEFDF8" r="1"/><circle cx="9" cy="9" r="2.75" stroke="#FEFDF8" stroke-width=".5"/></svg>