<!-- by TradingView --><svg width="18" height="18" fill="none" xmlns="http://www.w3.org/2000/svg"><path fill="#F0F3FA" d="M0 0h18v18H0z"/><path d="M9 4a5 5 0 0 0-1.23 9.848V9.784L10 7.764V4.09A5.49 5.49 0 0 0 9 4Z" fill="#EE3342"/><path d="M9 14a5 5 0 0 0 1.255-9.841v4.007L8 10.252v3.662A5.8 5.8 0 0 0 9 14Z" fill="#007DBC"/><path fill="#F0F3FA" d="M8 6h2v6H8z"/><path fill="#F0F3FA" d="M6 10V8h6v2z"/><path fill-rule="evenodd" clip-rule="evenodd" d="M9 3.631A5.369 5.369 0 1 0 9 14.37 5.369 5.369 0 0 0 9 3.63ZM3.325 9a5.676 5.676 0 1 1 11.35 0 5.676 5.676 0 0 1-11.35 0Z" fill="#007DBC"/></svg>