<!-- by TradingView --><svg xmlns="http://www.w3.org/2000/svg" width="18" height="18" viewBox="0 0 18 18"><path d="M18 0H0v18h18V0Z" fill="#F0F3FA"/><path d="M8.12 12.77c.42-.24.9.26 1.09.56l-.71.76c-.38-.27-.99-.96-.38-1.32Zm3.03-.63c.22-.26.7-.22 1.21-.22v1.1c-.33 0-.91.05-1.14-.12a.54.54 0 0 1-.07-.76Zm-4.7-.75c.34-.24.6-.4.77-.53l.7.69h.75v.74H6.45v-.9Zm-1.48.09c0-.8 1.11-.71 1.11-.1v.9h-1.1v-.8Zm4.62 1.45-.55-.64v-.74h1.26l.38-.51.44.43-.57.52-.96.94Zm3.71-2.69c-.56 0-.82-.48-.35-.98.14-.14.24-.28.4-.39l.72.74c-.13.2-.52.63-.77.63ZM5.71 8.96h.56v1.11c.44.35 0 0 .53.44l-.35.3-1.34-1.27.6-.58Zm6.65 1.46v.97h-.58c-.1-.16-.6-.65-.76-.75.08-.12.45-.62.6-.72v-.96h.93c-.37.56-.37.93-.19 1.46ZM3.97 8.39c.52-.82 1.37-.8 1.37.02 0 .23-.48.6-.65.73l-.72-.75Zm7.22-1.24.34-.26 1.39 1.7h-1.3V7.5c-.07-.06-.12-.06-.2-.13-.1-.07-.17-.11-.23-.2Zm-4.92.97v.36H5.7v-2.1h.74l.56.73c-.1.12-.74.86-.74 1.01Zm1.42-1.01.46-.53.15.18h.55v.54l.56.18v-.73h.74V7c.07.09-.02 0 .24.23l-.24.24v.56l.66-.49.32.24.31.25c-.16.19-.19.18-.19.55h-.55c-.16.25-.06.06-.37.6H11.25v.7l-.27-.05-.3.4c-.07-.05-.34-.35-.38-.35l-.52.18.52.57-.5.57a2 2 0 0 1-.13-.22l-.63.19v-.74c-.16-.1 0 0-.38-.2v.94h-.73v-.37a7.33 7.33 0 0 1-.37-.37l.38-.29-.2-.45-.55.56-.55-.37.18-.37v-.56h.53l.2-.37h-.73v-.74h.19l.36-.18.19.18.6-.16-.47-.58Zm4.3-.7v-.77h1.11c0 .48.12 1.34-.55 1.34a.58.58 0 0 1-.56-.58Zm-4.72.35-.23-.3 1.5-1.42.33.3v1.04h-1.3c-.3.38-.01-.02-.3.38Zm2.14-.38v-.74h2.21v.4l-.92.72-.55-.38H9.4ZM6.5 6h-.8V4.9c.61 0 1.34-.08 1.34.62 0 .28-.27.49-.55.49Zm3.12-2.08c.52.41.67.6.67.84 0 .31-.3.6-.67.49-.29-.08-.48-.4-.72-.58.05-.08.67-.75.72-.75ZM7.56 5.21c-.04-.49-.61-.7-1.18-.7H5.34v2.78c-.46-.24-.9-.1-1.27.19l-.86.86c.13.22.73.75 1 1.03s.9.86 1.03 1.05c-.37.03-.64.54-.64.97v1.28l2.96-.01c-.19.37-.44.82.03 1.3.29.3.57.64.9.87l2.03-2.03c.03.4.52.6.97.6h1.26v-2.72c.53.3 1.03.06 1.4-.34l.72-.76-1.18-1.16c-.3-.28 0-.03-.9-.91.38-.04.68-.52.68-.97V5.27h-2.74c.27-.54-.03-1.11-.37-1.44l-.73-.65c-.2.14-1.86 1.88-2.07 2.03Z" fill="#404E8E"/><path d="M8.3 8.6v.73l.37.37h.74l.37-.37V8.6l-.37-.37h-.74l-.37.37ZM7.43 14.65c-.17-.27-.72-.59-.72-1.45H4.94c.04.15.03.08.16.19.28.24.6.52.94.7.28.14 1.03.56 1.4.56ZM3.93 11.87c0-.98-.01-.91.42-1.58-.12-.09-.2-.19-.3-.3l-.92-.9c0 1 .24 1.83.67 2.66.1.2 0 .07.13.12ZM6.12 3.84c.98 0 .92 0 1.57.45L8.9 3.05c-.6 0-1.4.13-1.88.33-.24.1-.8.3-.9.46ZM13.73 7.64l1.22 1.23a6.5 6.5 0 0 0-.46-2.2l-.21-.45c-.1-.2 0-.07-.13-.13 0 1.2-.07.85-.42 1.55ZM3.34 7.42c.3-.2.57-.8 1.39-.8V4.9a6.1 6.1 0 0 0-1.16 1.75c-.07.16-.23.59-.23.77ZM11.4 4.68h1.7a5.7 5.7 0 0 0-2.46-1.4c.18.27.76.62.76 1.4ZM13.3 13.02c.3-.2.61-.71.82-1.04.2-.3.5-.96.58-1.34-.3.08-.4.57-1.15.7-.3.04-.25-.07-.25.71v.97ZM9.25 14.88c.63 0 2.35-.37 2.62-.76-.44 0-.82 0-1.19-.22-.1-.06-.2-.15-.3-.22-.2.34-.66.68-.85.88-.1.1-.2.19-.28.31Z" fill="#00BCD3"/></svg>