<!-- by TradingView --><svg width="18" height="18" viewBox="0 0 18 18" xmlns="http://www.w3.org/2000/svg"><path fill="#F0F3FA" d="M0 0h18v18H0z"/><path d="M12.57 11.54c-.81 1.04-2.34 1.45-3.57 1.45-1.76 0-3.08-1.03-3.6-2.78a3.95 3.95 0 0 1 3.77-5c.95 0 1.65.4 2.37.93 1.31 1.26 1.89.39 2.06 2.34h.07c.04-.57.02-.15 0-.64C13.53 5.4 11.18 4 8.9 4A4.97 4.97 0 0 0 4 9.1C4.17 11.95 6.14 14 9 14a5.4 5.4 0 0 0 3.82-1.64c.76-.9-1.1.9-.25-.82Z" fill="#00B2E1"/><path d="M7 7h1l2 2.2V7h1v4h-1L8 8.8V11H7V7Z" fill="#002E5C"/></svg>