<!-- by TradingView --><svg width="18" height="18" viewBox="0 0 18 18" xmlns="http://www.w3.org/2000/svg"><path fill="#164F9F" d="M0 0h18v18H0z"/><path d="m14.69 10.87-.45-.43A7.52 7.52 0 0 1 9.6 12.5v-.14a7.48 7.48 0 0 0 4.48-1.98l-.64-.61-.47.4-2.48-3h.79v.29h.46v-.2h.84v.2H13V6.3h-.42v.21h-.83V6.3h-.44v.3h-1.2a.12.12 0 0 1-.12-.05l-.34-.42-.04-.06.12-.05A1.6 1.6 0 0 0 9.17 3h-.3c-.14.03-.29.05-.43.1-.58.23-.99.8-1.01 1.42-.02.67.33 1.25.92 1.52.1.04.12.1.04.2L7.15 7.77l-.03.03c-.2-.16-.38-.33-.57-.5l-.16.17-.45-.4c-.1.1-.2.21-.29.33l.45.4-.15.16.6.52-1.43 1.74c-.17-.15-.34-.3-.53-.44l-.64.61a7.2 7.2 0 0 0 4.45 1.97l.01.04v.09a7.45 7.45 0 0 1-4.64-2.04l-.77.72v.01l.55.47a8.15 8.15 0 0 0 3.57 1.72c.12.02.25.05.38.06.04.01.05.03.05.08v.33l.02.17h2.93l.02-.47c0-.08.01-.1.1-.1a7.93 7.93 0 0 0 3.82-1.79l.5-.42.06-.05v-.03a2.48 2.48 0 0 1-.31-.27Zm-5.1-3.86 2.89 3.48a6.32 6.32 0 0 1-2.88.98V7.01ZM8.4 11.46a6.3 6.3 0 0 1-2.82-.94L8.4 7.1v4.36Z" fill="#FFFEFF"/></svg>