<!-- by TradingView --><svg xmlns="http://www.w3.org/2000/svg" width="18" height="18" viewBox="0 0 18 18"><path fill="#F0F3FA" d="M0 0h18v18H0z"/><path d="M7 12L5.6 9.56l1.5-2.67A3.68 3.68 0 0 1 10.3 5h.6L7 12z" fill="#7E57C6"/><path d="M5.3 9.14L3 5h1.24c1.55 0 2.53 1.54 1.78 2.87L5.3 9.14z" fill="#60269E"/><path d="M11.1 14l-1.4-2.44 1.5-2.67A3.68 3.68 0 0 1 14.4 7h.6l-3.9 7z" fill="#FC671A"/><path d="M9.4 11.1L7.1 7h1.24c1.55 0 2.53 1.5 1.78 2.82l-.71 1.27z" fill="#FC7F3F"/><path d="M9.57 7.38L8.45 9.39 7.1 7h1.24c.48 0 .9.14 1.23.38z" fill="#60269E"/></svg>