<!-- by TradingView --><svg width="18" height="18" xmlns="http://www.w3.org/2000/svg"><path fill="#00AAD9" d="M0 0h18v18H0z"/><path d="M6.205 3c-.845 0-1.53.664-1.53 1.483 0 .819.685 1.483 1.53 1.483.844 0 1.529-.664 1.529-1.483C7.734 3.664 7.049 3 6.204 3zm1.199 2.837c-.037.029-.103.08-.192.138-.288.202-.81.425-1.605.22-.842-.219-1.127-.979-1.196-1.162l-.002-.004c-.066-.176-.16-.19-.16.07 0 .652.298 1.047.397 1.16.1.112.147.223.092.287l-.019.022c-.111.132-.254.3-.295.408a.312.312 0 00-.009.09c0 .02 0 .04-.002.053-.017.113-.115.229-.246.382a8.872 8.872 0 00-.113.135c-.104.128-.04.265.048.36.04.041.08.089.118.132.064.074.12.138.148.153.093.052.174.052.253.052.055 0 .11 0 .169.018l.013.003c.142.044.349.107.492.355.058.1.117.216.18.341.172.336.378.739.68 1.09.183.21.185.588.186.723v.006c.011 1.104-.577 2.128-.964 2.802l-.02.035c-.092.16-.073.291.05.293h.61c.176 0 .178-.068.18-.138.002-.032.003-.065.02-.093.013-.022.038-.027.065-.033.054-.011.12-.026.133-.178.002-.039.006-.073.027-.22.13-.913.59-2.27.875-2.447.421.267.927.71 1.076 1.612.046.275.073.52.046.755a2.52 2.52 0 01-.075.447c-.08.244-.015.297.106.292h.646c.172 0 .171-.067.17-.134 0-.032 0-.065.019-.09.014-.017.035-.025.056-.033.042-.016.083-.032.07-.127-.085-.417-.24-.8-.394-1.185-.14-.35-.28-.699-.37-1.073-.131-.557.215-.91.508-.994.463-.134 1.097.087 1.179.132.01.005.02.01.028.016.05.029.063.036.114-.005.524-.419.766-.215.779-.203.06.056.102.35.105.41.063 1.21-1.038 2.38-1.488 2.859-.065.07-.117.124-.149.162-.113.135-.05.27.063.268h.132c.18 0 .468 0 .542-.002.163-.005.16-.067.159-.13-.002-.032-.003-.063.017-.089.014-.017.035-.022.057-.028.035-.009.075-.019.1-.083.194-.502.593-1.465 1.423-2.115.072-.057.14-.198.201-.52a2.52 2.52 0 01.072-.273l.014-.045c.467.589.524 1.642-.268 3.027-.083.145-.03.257.064.257h.08c.145.002.435.003.54 0 .171-.006.168-.078.164-.152v-.034c0-.04-.001-.106.147-.106l.16.002h.096c.091.001.293.003.372-.005.103-.011.113-.114.115-.247.002-.198.013-2.46.002-2.737-.003-.07-.003-.185-.003-.327-.002-.638-.004-1.851-.259-2.294-.37-.645-1.112-.585-1.459-.557h-.005c-.114.01-.249.024-.401.04-.46.047-1.077.11-1.745.113-1.094.004-2.239-.343-2.608-.454a6.664 6.664 0 01-.957-.338c-.173-.08-.097-.116-.02-.153l.011-.005c.397-.192.728-.396.935-.72.158-.249.098-.328-.077-.19l-.003.003zm5.984 2.811v-.064c.011-.112.08-.102.139.054.156.427.108 2.038.099 2.33l-.001.044c.001.053-.067.094-.114.039-.041-.052-.124-.497-.179-.791l-.036-.194c-.03-.149-.006-.297.022-.466.013-.08.027-.163.036-.254a6.34 6.34 0 00.034-.698z" fill="#004F93"/><path d="M6.265 3.31c-.57 0-1.03.447-1.03.998 0 .552.461.999 1.03.999.568 0 1.03-.447 1.03-.999 0-.55-.462-.998-1.03-.998zm2.97 4.788l.003.018c.034.258.03.543.028.632v.009c-.003.218.17.267.288.3l.015.004c.314.09.95.064 1.387-.134.342-.155.135-.71.077-.845-.06-.14-.177-.192-.36-.177a11.99 11.99 0 01-.598.017A5.239 5.239 0 019.7 7.91c-.078-.004-.166-.01-.274-.014-.219-.011-.207.078-.19.203zm2.675-.121c.176.189.28.5.302.634.023.132.209.081.232-.044.034-.185-.027-.492-.168-.656-.065-.077-.175-.11-.305-.086-.122.022-.155.05-.061.152zm-2.619 1.98l.013-.003c.314-.103.91-.172 1.968-.08.498.044.863.192 1.189.39l.017.011c.12.075.421.266.551-.316.035-.148.099-.469.11-.618l.004-.035c.026-.25.153-1.48-.576-1.475-.117.001-.108.046-.077.096a.973.973 0 01.101.251c.086.336.017.516-.103.63-.124.116-.367.126-.413-.043-.146-.525-.337-.954-.763-.899-.088.012-.096.083-.053.185.038.092.094.338.113.534.024.264-.098.388-.287.497-.323.186-1.112.305-1.677.155-.343-.09-.354-.342-.354-.439l.001-.102a7.603 7.603 0 00-.003-.438c-.025-.248-.055-.386-.221-.401-.164-.015-.163.004-.156.1a.957.957 0 01.002.141V8.1c-.001.05-.033.938-.712.92a.234.234 0 01-.228-.29c.06-.255.095-.507.087-.783v-.032c-.005-.186-.006-.24-.427-.372l-.011-.003c-.25-.078-.365-.114-.452-.08-.074.028-.128.107-.229.251l-.033.048a5.028 5.028 0 00-.462.896c-.202.528-.024.87.108 1.093.082.14.306.349.564.498.54.31.944.583 1.335.875.113.083.18.106.185-.129.014-.763.753-.992.89-1.034zM6.308 7.094a16.502 16.502 0 01-.409-.222l-.034-.02c-.47-.265-.711-.402-.892-.26-.193.15-.34.356-.366.429a.537.537 0 00-.02.11c-.008.076-.018.165-.06.215-.02.023-.043.055-.07.092a3.432 3.432 0 01-.153.199c-.12.14-.065.2.046.32l.065.074c.062.072.159.08.278.089.152.011.341.026.542.18.169.129.236.231.436.536l.044.067c.078.119.126.049.19-.114.09-.227.397-.86.63-1.206l.015-.021c.076-.111.164-.24.026-.322a7.638 7.638 0 00-.268-.146zm-1.415.078c-.147-.241.39-.31.415-.235.026.075-.268.477-.415.235zm3.089 1.43c.032-.146.092-.418.063-.739-.012-.142.018-.15.203-.12.188.03.19.077.191.18v.01c.01.454-.112.75-.272.836-.089.047-.202.024-.204-.064 0-.017.008-.053.019-.104z" fill="#fff"/></svg>