<!-- by TradingView --><svg width="18" height="18" viewBox="0 0 18 18" xmlns="http://www.w3.org/2000/svg"><path fill="#F0F3FA" d="M0 0h18v18H0z"/><path d="M7.2 14.99A6.23 6.23 0 0 1 3.1 10c.86 0 2.68.14 3.61.73.65.38 1.3.83 1.3 2.2 0 1.07-.17 1.7-.8 2.06ZM14.95 10c-.37 2.37-2 4.3-4.13 5-.66-.35-.82-.99-.82-2.07 0-1.37.64-1.82 1.29-2.2.95-.6 2.82-.74 3.66-.73Z" fill="#B91F45"/><path fill-rule="evenodd" d="M8.84 3c.02 1.49.06 3.89.12 4.65.06-.76.1-3.16.12-4.65.31 0 .62.03.92.08-.12.24-.24.52-.28.76a.7.7 0 0 0 .06.44c.07.15.26.18.38.07a.7.7 0 0 0 .22-.4c.04-.23.03-.53 0-.8l.65.2C10.58 4.77 9.88 7 9.71 7.71c.3-.68 1.05-2.86 1.54-4.27.26.1.52.23.76.37-.17.18-.33.38-.44.58a.86.86 0 0 0-.1.5c.02.17.18.28.34.21a.74.74 0 0 0 .34-.33c.11-.2.2-.45.26-.7.2.14.4.3.58.46-.93 1.16-2.35 2.99-2.78 3.6.52-.53 2-2.3 2.95-3.45.2.19.37.39.54.6-.2.1-.4.2-.54.33a.82.82 0 0 0-.28.44c-.05.18.09.35.27.34.15 0 .32-.06.49-.19.14-.12.28-.27.4-.44.12.18.23.37.32.56a95 95 0 0 0-3.65 2.23c.64-.3 2.46-1.3 3.75-2.03a6 6 0 0 1 .29.77c-.15.02-.28.05-.4.09a.73.73 0 0 0-.37.24c-.1.12-.03.27.14.31.12.04.28.04.46-.01l.3-.12.08.53c-1.44.32-3.36.76-4.02.95.68-.08 2.6-.45 4.04-.73l.02.47v.02a2.82 2.82 0 0 0-.48-.01.88.88 0 0 0-.49.2c-.14.1-.12.3.05.4.12.06.3.12.51.1.12-.01.25-.04.38-.07l-.05.33-5.88.98L3.08 10a6.06 6.06 0 0 1-.05-.34l.37.06c.22.02.4-.04.52-.1.16-.1.19-.3.04-.4a.89.89 0 0 0-.48-.2H3c0-.16 0-.31.02-.47 1.43.29 3.3.64 3.95.72-.64-.19-2.5-.62-3.93-.94l.08-.54.3.12c.17.05.33.05.46.01.16-.04.23-.19.14-.3a.73.73 0 0 0-.37-.25 2.54 2.54 0 0 0-.4-.09 6 6 0 0 1 .27-.73c1.3.72 3.06 1.7 3.68 2-.57-.4-2.3-1.45-3.58-2.2.09-.18.19-.36.3-.53.12.18.25.35.38.48a.8.8 0 0 0 .51.23c.2.01.35-.2.3-.42a1.07 1.07 0 0 0-.3-.55c-.13-.13-.3-.25-.46-.35l.44-.5c.96 1.16 2.4 2.89 2.91 3.42-.41-.61-1.81-2.4-2.74-3.57.2-.18.41-.35.63-.5.07.25.15.5.26.7.1.18.22.28.34.33.16.07.32-.04.33-.22a.87.87 0 0 0-.1-.49c-.1-.2-.27-.4-.43-.58.23-.13.48-.25.73-.36.48 1.41 1.24 3.58 1.53 4.27-.17-.73-.86-2.93-1.32-4.35.23-.09.45-.15.69-.21-.04.26-.05.56 0 .8.03.17.12.3.21.4.12.1.31.07.39-.08a.7.7 0 0 0 .06-.44 2.78 2.78 0 0 0-.29-.76A6 6 0 0 1 8.84 3Zm-.77 1.77c.2.2.49.62.56.96.04.14 0 .26-.06.35-.08.12-.26.14-.38.06a.55.55 0 0 1-.22-.32c-.08-.34.01-.8.1-1.05Zm.57 2.25a1.26 1.26 0 0 0-.28-.48c-.05.12-.1.36-.05.53.01.07.06.12.1.15.07.05.16.04.2-.02.03-.05.05-.1.03-.18Zm1.28-2.25c-.19.2-.48.62-.56.96-.03.14 0 .26.07.35.07.12.26.14.38.06.1-.07.19-.18.22-.32.07-.34-.02-.8-.1-1.05Zm-.56 2.25c.04-.17.18-.38.28-.48.04.12.09.36.05.53a.27.27 0 0 1-.1.15c-.07.05-.16.04-.2-.02a.23.23 0 0 1-.03-.18Zm-1.88-.71a3.33 3.33 0 0 0-.95-.83c.03.28.15.8.38 1.13.1.15.22.23.34.27.15.06.32-.03.33-.18a.58.58 0 0 0-.1-.4Zm.1.59c.1.07.25.25.32.41a.4.4 0 0 1 .04.2c0 .07-.06.12-.11.09a.28.28 0 0 1-.12-.14 1.95 1.95 0 0 1-.12-.56Zm-2.11-.36c.22.07.63.25.87.48.1.1.16.22.18.33.03.14-.06.26-.17.26-.1-.01-.2-.05-.31-.15a3 3 0 0 1-.57-.92Zm2 1.39a1.59 1.59 0 0 0-.59-.32c.07.16.22.45.38.61.07.07.14.1.2.1.09 0 .14-.08.12-.17a.43.43 0 0 0-.12-.22Zm-1.97.16a2.7 2.7 0 0 0-1.09-.12c.18.2.57.53.9.66.14.05.27.04.37.01.13-.04.18-.2.11-.31a.6.6 0 0 0-.3-.24Zm.68.58c.13-.01.37 0 .54.06a.3.3 0 0 1 .14.12c.04.06.01.14-.05.16a.28.28 0 0 1-.19 0 1.43 1.43 0 0 1-.44-.34ZM4.4 9.5c.18-.06.52-.13.77-.1.1 0 .19.04.24.09.07.05.06.15-.02.2a.46.46 0 0 1-.26.05 2.18 2.18 0 0 1-.73-.24Zm2.18-.1c-.25-.03-.6.04-.77.1.16.09.48.22.73.24.11 0 .2-.02.26-.05.08-.05.1-.15.02-.2a.44.44 0 0 0-.24-.1Zm6.23 0c.25-.03.59.04.76.1-.15.09-.48.22-.73.24-.1 0-.2-.02-.25-.05-.09-.05-.1-.15-.03-.2a.44.44 0 0 1 .25-.1Zm-.65.1a2.24 2.24 0 0 0-.76-.1c-.11 0-.2.04-.25.09-.07.05-.06.15.02.2.07.03.16.06.26.05.25-.02.57-.15.73-.24Zm1.41-1.52a2.7 2.7 0 0 0-1.08.12.6.6 0 0 0-.3.24c-.07.12-.01.27.12.31.1.03.23.04.37-.01.33-.13.71-.46.9-.66Zm-2.3.76c.16-.06.41-.07.54-.06-.09.1-.28.27-.45.33a.28.28 0 0 1-.18.01c-.07-.02-.1-.1-.06-.16a.3.3 0 0 1 .15-.12Zm.37-1.7c.24-.24.65-.42.88-.49a3 3 0 0 1-.57.92c-.1.1-.22.14-.31.15-.12 0-.2-.12-.18-.26.03-.1.08-.23.18-.33Zm-.53.58c-.15.04-.43.16-.59.32a.43.43 0 0 0-.12.22c-.02.09.04.17.12.17.06 0 .14-.03.2-.1.17-.16.32-.45.39-.61Zm.35-2.13c-.27.15-.73.5-.96.83a.58.58 0 0 0-.1.4c.02.14.18.23.33.17a.7.7 0 0 0 .35-.27c.22-.32.35-.85.38-1.13ZM10.1 7.34c.08-.16.22-.35.3-.44-.03.13-.1.38-.18.54a.44.44 0 0 1-.1.15c-.05.04-.08 0-.07-.06 0-.05.02-.11.05-.19Z" fill="#293D82"/></svg>