<!-- by TradingView --><svg width="18" height="18" xmlns="http://www.w3.org/2000/svg"><path fill="url(#paint0_linear)" d="M0 0h18v18H0z"/><path d="M3.384 10.761a.45.45 0 01.352-.53l2.646-.534a.45.45 0 11.177.883l-2.645.534a.45.45 0 01-.53-.353z" fill="#F37021"/><path d="M7.224 8.452a.45.45 0 01-.624.126L4.354 7.084a.45.45 0 11.498-.749L7.098 7.83a.45.45 0 01.126.623" fill="#FDB714"/><path d="M8.927 7.014a.45.45 0 01-.882.178l-.533-2.646a.45.45 0 11.882-.178l.533 2.646z" fill="#D92632"/><path d="M10.046 7.234l1.494-2.247a.45.45 0 11.749.498l-1.493 2.247a.45.45 0 11-.75-.498" fill="#F37021"/><path d="M14.255 9.027l-2.645.534a.45.45 0 11-.178-.883l2.646-.533a.45.45 0 11.177.882z" fill="#FDB714"/><path d="M13.764 12.8a.45.45 0 01-.623.125l-2.248-1.494a.45.45 0 01.497-.749l2.247 1.494a.45.45 0 01.127.623z" fill="#D92632"/><defs><linearGradient id="paint0_linear" x1="3.349" y1="3.122" x2="21.904" y2="24.434" gradientUnits="userSpaceOnUse"><stop stop-color="#1A1E21"/><stop offset="1" stop-color="#06060A"/></linearGradient></defs></svg>