<!-- by TradingView --><svg width="18" height="18" xmlns="http://www.w3.org/2000/svg"><path fill="url(#paint0_linear)" d="M0 0h18v18H0z"/><path d="M7.643 5.072c.014 0 .025-.01.025-.024 0-.013-.011-.023-.025-.023-.014 0-.025.01-.025.023s.011.024.025.024zM8.506 5.079c.018 0 .032-.014.032-.03 0-.017-.014-.03-.032-.03-.018 0-.032.013-.032.03 0 .016.014.03.032.03zM9.369 5.061c.007 0 .014-.006.014-.013 0-.007-.007-.013-.014-.013-.008 0-.015.006-.015.013 0 .007.007.013.015.013zM7.21 5.061c.009 0 .015-.006.015-.013 0-.007-.006-.013-.014-.013s-.015.006-.015.013c0 .007.007.013.015.013zM8.073 5.5c.03 0 .054-.022.054-.05 0-.028-.024-.05-.054-.05s-.053.022-.053.05c0 .028.024.05.053.05zM8.937 5.51c.036 0 .065-.027.065-.06 0-.034-.03-.06-.065-.06-.036 0-.064.026-.064.06 0 .033.028.06.064.06zM9.8 5.497c.028 0 .05-.021.05-.047s-.022-.047-.05-.047c-.028 0-.05.02-.05.047 0 .026.022.047.05.047zM10.663 5.47c.011 0 .021-.009.021-.02 0-.011-.01-.02-.021-.02-.012 0-.022.009-.022.02 0 .011.01.02.022.02zM8.072 5.92c.031 0 .057-.025.057-.054 0-.03-.026-.054-.057-.054-.032 0-.058.024-.058.054s.026.053.058.053zM8.935 5.956c.054 0 .097-.04.097-.09 0-.05-.043-.091-.097-.091-.053 0-.096.04-.096.09 0 .05.043.091.096.091zM9.798 5.956c.054 0 .097-.04.097-.09 0-.05-.043-.091-.097-.091-.053 0-.097.04-.097.09 0 .05.044.091.097.091zM10.66 5.93c.038 0 .069-.029.069-.064s-.03-.064-.068-.064c-.038 0-.068.029-.068.064s.03.064.068.064zM11.524 5.896c.018 0 .032-.013.032-.03s-.014-.03-.032-.03c-.018 0-.032.013-.032.03s.014.03.032.03zM9.368 6.384c.068 0 .122-.051.122-.114 0-.064-.054-.115-.122-.115-.067 0-.121.051-.121.115 0 .063.054.114.121.114zM10.231 6.394c.073 0 .133-.056.133-.124 0-.069-.06-.125-.133-.125-.073 0-.133.056-.133.125 0 .068.06.124.133.124zM11.094 6.364c.055 0 .1-.042.1-.094s-.045-.094-.1-.094c-.055 0-.1.042-.1.094s.045.094.1.094zM11.957 6.327c.033 0 .06-.026.06-.057 0-.032-.027-.057-.06-.057-.034 0-.061.025-.061.057 0 .031.027.057.06.057zM9.368 6.787c.07 0 .126-.053.126-.118s-.056-.118-.126-.118c-.069 0-.125.053-.125.118s.056.118.125.118zM10.231 6.824c.091 0 .165-.07.165-.155 0-.085-.074-.155-.165-.155-.091 0-.165.07-.165.155 0 .086.074.155.165.155zM11.094 6.814c.085 0 .154-.065.154-.145 0-.08-.07-.145-.154-.145-.085 0-.154.065-.154.145 0 .08.069.145.154.145zM11.957 6.77c.059 0 .107-.045.107-.1 0-.057-.048-.102-.107-.102-.06 0-.108.045-.108.101 0 .056.048.1.108.1zM12.82 6.726c.033 0 .06-.025.06-.057 0-.031-.027-.057-.06-.057-.034 0-.062.026-.062.057 0 .032.028.057.061.057zM9.797 7.216c.081 0 .147-.061.147-.137 0-.077-.066-.138-.147-.138-.081 0-.147.061-.147.138 0 .076.066.137.147.137zM10.66 7.25c.1 0 .182-.077.182-.172 0-.094-.081-.171-.182-.171-.101 0-.183.077-.183.171 0 .095.082.172.183.172zM11.523 7.25c.1 0 .182-.077.182-.172 0-.094-.082-.171-.182-.171-.101 0-.183.077-.183.171 0 .095.082.172.183.172zM12.385 7.2c.072 0 .13-.055.13-.121 0-.067-.059-.121-.13-.121-.07 0-.129.054-.129.12 0 .067.058.122.13.122zM13.248 7.15c.042 0 .075-.032.075-.071 0-.04-.033-.07-.075-.07-.041 0-.075.03-.075.07 0 .039.034.07.075.07zM14.111 7.102c.014 0 .025-.01.025-.023s-.011-.024-.025-.024c-.014 0-.025.01-.025.024 0 .013.011.023.025.023zM14.975 8.72c.014 0 .025-.011.025-.024 0-.013-.011-.024-.025-.024-.014 0-.025.01-.025.024 0 .013.011.023.025.023zM10.662 7.657c.101 0 .183-.077.183-.171 0-.095-.082-.172-.183-.172-.1 0-.182.077-.182.172 0 .094.082.171.182.171zM11.525 7.657c.101 0 .183-.077.183-.171 0-.095-.082-.172-.183-.172-.1 0-.183.077-.183.172 0 .094.082.171.183.171zM12.388 7.654c.099 0 .179-.075.179-.168 0-.093-.08-.168-.18-.168-.098 0-.178.075-.178.168 0 .093.08.168.179.168zM13.25 7.593c.064 0 .115-.048.115-.107 0-.06-.051-.108-.114-.108-.064 0-.115.048-.115.108s.051.107.115.107zM14.114 7.54c.031 0 .057-.024.057-.054s-.026-.054-.057-.054c-.032 0-.058.024-.058.054s.026.054.058.054zM6.78 7.923c.01 0 .018-.008.018-.017 0-.01-.008-.017-.018-.017-.01 0-.018.008-.018.017 0 .01.008.017.018.017zM7.643 7.943c.022 0 .04-.017.04-.037 0-.02-.018-.037-.04-.037-.022 0-.04.017-.04.037 0 .02.018.037.04.037zM8.506 7.98c.043 0 .079-.033.079-.074 0-.04-.036-.074-.08-.074-.043 0-.078.033-.078.074 0 .04.035.074.079.074zM9.368 8.017c.066 0 .119-.05.119-.111s-.053-.111-.119-.111c-.065 0-.118.05-.118.11 0 .062.053.112.118.112zM10.231 8.054c.087 0 .158-.066.158-.148 0-.082-.07-.148-.158-.148-.087 0-.158.066-.158.148 0 .082.071.148.158.148zM11.528 8.077c.101 0 .183-.076.183-.171 0-.095-.082-.172-.183-.172-.1 0-.183.077-.183.172 0 .095.082.171.183.171zM12.388 8.077c.1 0 .182-.076.182-.171 0-.095-.081-.172-.182-.172-.101 0-.183.077-.183.172 0 .095.082.171.183.171zM13.25 8.047c.084 0 .151-.063.151-.141 0-.078-.067-.141-.15-.141-.083 0-.15.063-.15.141 0 .078.067.141.15.141zM14.114 7.983c.045 0 .082-.034.082-.077s-.037-.077-.082-.077c-.046 0-.083.034-.083.077s.037.077.082.077zM12.388 8.464c.1 0 .182-.077.182-.172 0-.095-.081-.171-.182-.171-.101 0-.183.076-.183.171 0 .095.082.172.183.172zM13.25 8.464c.101 0 .183-.077.183-.172 0-.095-.082-.171-.182-.171-.101 0-.183.076-.183.171 0 .095.082.172.183.172zM14.114 8.386c.055 0 .1-.042.1-.094s-.045-.094-.1-.094c-.056 0-.1.042-.1.094s.044.094.1.094zM14.976 8.302c.006 0 .011-.005.011-.01s-.005-.01-.01-.01c-.007 0-.011.005-.011.01s.005.01.01.01zM13.25 8.867c.101 0 .183-.077.183-.172 0-.094-.082-.171-.182-.171-.101 0-.183.077-.183.171 0 .095.082.172.183.172zM14.114 8.793c.057 0 .103-.044.103-.098 0-.053-.046-.097-.104-.097-.057 0-.103.044-.103.097 0 .054.046.098.104.098zM14.978 9.115c.006 0 .01-.004.01-.01 0-.005-.004-.01-.01-.01s-.01.005-.01.01c0 .006.004.01.01.01zM13.252 9.277c.101 0 .183-.077.183-.172 0-.095-.082-.171-.183-.171-.1 0-.183.076-.183.171 0 .095.082.172.183.172zM14.115 9.186c.047 0 .086-.036.086-.08 0-.045-.039-.081-.086-.081-.047 0-.086.036-.086.08 0 .045.039.08.086.08z" fill="#FF144B"/><path d="M14.978 9.112c.004 0 .007-.003.007-.007 0-.003-.003-.006-.007-.006s-.007.003-.007.006c0 .004.003.007.007.007zM12.82 9.682c.1 0 .182-.077.182-.172 0-.095-.082-.171-.183-.171-.1 0-.182.076-.182.171 0 .095.081.172.182.172zM13.682 9.628c.07 0 .125-.053.125-.118s-.056-.118-.125-.118c-.07 0-.125.053-.125.118s.056.118.125.118zM14.545 9.56c.02 0 .036-.016.036-.035 0-.018-.016-.033-.036-.033-.02 0-.036.015-.036.033 0 .019.016.034.036.034zM13.25 10.059c.088 0 .158-.066.158-.148 0-.082-.07-.148-.157-.148s-.158.066-.158.148c0 .082.07.148.158.148zM14.114 9.961c.03 0 .053-.022.053-.05 0-.028-.024-.05-.053-.05-.03 0-.054.022-.054.05 0 .028.024.05.053.05zM12.82 10.46c.086 0 .157-.066.157-.148 0-.081-.07-.147-.158-.147-.087 0-.157.066-.157.148 0 .081.07.147.157.147zM13.682 10.363c.03 0 .054-.023.054-.05 0-.028-.024-.05-.054-.05s-.054.022-.054.05c0 .027.024.05.054.05zM12.82 10.808c.055 0 .1-.042.1-.094s-.045-.094-.1-.094c-.056 0-.101.042-.101.094s.045.094.1.094zM11.952 11.257c.077 0 .14-.059.14-.131 0-.073-.063-.132-.14-.132-.077 0-.14.06-.14.132 0 .072.063.13.14.13zM12.815 11.162c.021 0 .039-.016.039-.036 0-.02-.018-.037-.04-.037-.021 0-.039.016-.039.037 0 .02.018.037.04.037zM12.388 11.556c.016 0 .029-.012.029-.026 0-.015-.013-.027-.029-.027s-.028.012-.028.027c0 .014.012.026.028.026zM11.094 12.349c.006 0 .01-.005.01-.01s-.004-.01-.01-.01-.01.005-.01.01.004.01.01.01z" fill="#FF144B"/><path d="M10.23 12.707c-.02 0-.036.015-.036.033 0 .019.016.034.036.034.02 0 .036-.015.036-.034 0-.018-.016-.033-.036-.033zM10.23 12.233c-.063 0-.113.047-.113.106s.05.107.113.107.114-.048.114-.107-.051-.106-.114-.106zM10.662 11.805c-.076 0-.138.058-.138.13 0 .07.062.128.138.128.075 0 .137-.058.137-.129 0-.07-.062-.129-.137-.129zM11.524 11.906c-.016 0-.03.013-.03.028 0 .016.014.028.03.028.017 0 .03-.012.03-.028 0-.015-.013-.028-.03-.028zM11.093 11.4c-.076 0-.138.058-.138.13 0 .07.062.129.138.129.076 0 .137-.058.137-.13 0-.071-.061-.129-.137-.129zM11.956 10.595c-.07 0-.127.053-.127.12 0 .065.056.119.127.119.07 0 .127-.054.127-.12s-.057-.119-.127-.119zM6.78 6.338c.039 0 .07-.03.07-.067 0-.037-.031-.067-.07-.067-.04 0-.072.03-.072.067 0 .037.032.067.071.067zM7.642 6.344c.043 0 .078-.033.078-.073 0-.04-.035-.073-.078-.073s-.078.033-.078.073c0 .04.035.073.078.073zM8.936 6.758c.053 0 .096-.04.096-.09 0-.049-.043-.089-.096-.089-.053 0-.095.04-.095.09 0 .05.042.09.095.09zM7.21 6.776c.063 0 .114-.048.114-.107s-.05-.106-.114-.106c-.062 0-.113.047-.113.106 0 .06.05.107.113.107zM8.073 6.776c.063 0 .114-.048.114-.107s-.051-.106-.114-.106c-.062 0-.113.047-.113.106 0 .06.05.107.113.107zM7.64 5.9c.02 0 .036-.016.036-.034 0-.019-.016-.034-.036-.034-.02 0-.035.015-.035.034 0 .018.016.033.035.033zM6.348 5.472c.013 0 .024-.01.024-.022 0-.013-.01-.023-.024-.023-.013 0-.024.01-.024.023 0 .012.01.022.024.022zM7.21 5.484c.02 0 .036-.015.036-.034 0-.018-.016-.034-.035-.034-.02 0-.036.016-.036.034 0 .019.016.034.036.034zM8.073 5.478c.017 0 .03-.012.03-.028 0-.015-.013-.028-.03-.028-.016 0-.03.013-.03.028 0 .016.014.028.03.028zM6.778 5.9c.02 0 .035-.016.035-.034 0-.019-.016-.034-.035-.034-.02 0-.036.015-.036.034 0 .018.016.033.036.033zM8.504 5.894c.017 0 .03-.013.03-.028 0-.016-.013-.028-.03-.028-.016 0-.03.012-.03.028 0 .015.014.028.03.028zM5.917 6.3c.016 0 .03-.013.03-.029 0-.015-.014-.028-.03-.028-.017 0-.03.013-.03.028 0 .016.013.028.03.028zM8.936 6.322c.03 0 .054-.023.054-.05 0-.029-.024-.051-.054-.051s-.054.022-.054.05c0 .028.024.05.054.05zM12.387 7.958c.03 0 .054-.023.054-.05 0-.028-.024-.05-.054-.05s-.054.022-.054.05c0 .027.024.05.054.05zM5.917 6.72c.03 0 .053-.023.053-.051 0-.028-.024-.05-.053-.05-.03 0-.054.022-.054.05 0 .028.024.05.054.05zM9.799 6.73c.036 0 .065-.027.065-.061s-.029-.062-.065-.062c-.036 0-.066.028-.066.062s.03.062.066.062zM5.482 7.112c.02 0 .035-.015.035-.034 0-.018-.016-.033-.035-.033-.02 0-.036.015-.036.034 0 .018.016.033.036.033zM10.664 7.597c.062 0 .113-.048.113-.107s-.05-.106-.113-.106-.114.047-.114.106c0 .06.05.107.114.107zM9.8 7.168c.053 0 .096-.04.096-.09 0-.05-.043-.09-.096-.09-.052 0-.095.04-.095.09 0 .05.043.09.095.09zM5.484 7.536c.03 0 .054-.022.054-.05 0-.028-.024-.05-.054-.05s-.053.022-.053.05c0 .028.024.05.053.05zM11.093 7.587c.06 0 .107-.046.107-.101 0-.056-.048-.101-.107-.101-.06 0-.108.045-.108.1 0 .056.049.101.108.101zM11.958 7.988c.046 0 .084-.035.084-.078s-.038-.078-.084-.078c-.046 0-.084.035-.084.078s.038.078.084.078zM5.484 7.975c.04 0 .072-.03.072-.068 0-.037-.032-.067-.072-.067-.04 0-.071.03-.071.067 0 .038.032.068.071.068zM11.528 8.014c.061 0 .11-.046.11-.104 0-.057-.049-.103-.11-.103-.06 0-.11.046-.11.103 0 .058.05.104.11.104zM5.484 8.37c.046 0 .084-.035.084-.078s-.038-.078-.084-.078c-.046 0-.083.035-.083.078s.037.079.083.079zM5.054 8.735c.023 0 .042-.018.042-.04 0-.021-.02-.039-.042-.039-.023 0-.042.018-.042.04 0 .021.019.039.042.039zM5.916 8.836c.083 0 .15-.063.15-.14 0-.078-.067-.14-.15-.14-.082 0-.149.062-.149.14 0 .077.067.14.15.14zM11.957 8.41c.069 0 .125-.053.125-.118s-.056-.117-.126-.117c-.069 0-.125.052-.125.117s.056.118.126.118zM12.819 9.223c.069 0 .125-.053.125-.118s-.056-.117-.125-.117c-.07 0-.126.052-.126.117s.056.118.126.118zM5.055 9.15c.027 0 .048-.02.048-.045 0-.024-.021-.044-.048-.044-.026 0-.048.02-.048.044 0 .025.022.045.048.045zM5.918 9.251c.086 0 .155-.065.155-.146 0-.08-.07-.146-.155-.146-.086 0-.155.066-.155.146 0 .08.07.146.155.146zM13.25 8.768c.044 0 .078-.033.078-.073 0-.04-.034-.072-.077-.072s-.078.032-.078.072c0 .04.035.073.078.073zM5.054 9.555c.026 0 .047-.02.047-.045 0-.024-.02-.044-.047-.044s-.048.02-.048.044c0 .025.021.045.048.045zM5.916 9.662c.09 0 .161-.068.161-.152 0-.083-.072-.151-.16-.151-.09 0-.162.068-.162.151 0 .084.072.152.161.152zM5.054 9.86c-.03 0-.054.023-.054.05 0 .029.024.051.054.051s.053-.022.053-.05c0-.028-.024-.05-.053-.05zM5.916 9.754c-.092 0-.167.07-.167.157s.075.157.167.157c.093 0 .167-.07.167-.157s-.074-.157-.167-.157zM12.388 10.18c-.078 0-.141.06-.141.132 0 .074.063.133.14.133.079 0 .142-.06.142-.133 0-.073-.063-.132-.141-.132zM5.484 10.213c-.059 0-.107.045-.107.1 0 .057.048.102.107.102.06 0 .108-.045.108-.101 0-.056-.048-.1-.108-.1zM12.818 10.224c-.052 0-.095.04-.095.09 0 .05.043.09.095.09.053 0 .096-.04.096-.09 0-.05-.043-.09-.096-.09zM5.484 10.613c-.059 0-.107.045-.107.101 0 .056.048.1.107.1.06 0 .108-.044.108-.1 0-.056-.048-.1-.108-.1zM12.387 10.613c-.06 0-.107.045-.107.101 0 .056.048.1.107.1.06 0 .107-.044.107-.1 0-.056-.048-.1-.107-.1zM5.911 10.974c-.089 0-.16.068-.16.152 0 .083.071.15.16.15.09 0 .162-.067.162-.15 0-.084-.073-.152-.162-.152zM5.054 11.086c-.023 0-.042.018-.042.04 0 .021.019.039.042.039.023 0 .042-.018.042-.04 0-.021-.02-.039-.042-.039zM5.916 11.383c-.085 0-.155.066-.155.146 0 .08.07.146.155.146.086 0 .156-.065.156-.146 0-.08-.07-.146-.156-.146zM5.484 11.85c-.05 0-.09.038-.09.084 0 .046.04.084.09.084.05 0 .09-.038.09-.084 0-.046-.04-.084-.09-.084zM5.054 11.912c-.014 0-.024.01-.024.022 0 .013.01.023.024.023.013 0 .024-.01.024-.023 0-.012-.011-.022-.024-.022zM5.916 12.221c-.069 0-.125.053-.125.118s.056.118.125.118c.07 0 .126-.053.126-.118s-.056-.118-.126-.118zM5.484 12.684c-.033 0-.06.025-.06.056s.027.056.06.056.06-.025.06-.056c0-.03-.027-.056-.06-.056zM6.348 12.595c-.086 0-.155.065-.155.145 0 .08.069.146.155.146.085 0 .155-.065.155-.146 0-.08-.07-.146-.155-.146zM9.799 12.656c-.05 0-.09.038-.09.084 0 .046.04.084.09.084.05 0 .09-.037.09-.084 0-.046-.04-.084-.09-.084zM5.916 13.07c-.046 0-.083.035-.083.079 0 .043.037.078.083.078.046 0 .084-.035.084-.078 0-.044-.038-.079-.084-.079zM6.78 12.997c-.09 0-.162.068-.162.152 0 .083.072.151.161.151.09 0 .161-.068.161-.151 0-.084-.072-.152-.16-.152zM7.642 12.975c-.102 0-.185.078-.185.174 0 .096.083.173.185.173s.185-.077.185-.173c0-.096-.083-.174-.185-.174zM8.505 13.02c-.076 0-.138.058-.138.129 0 .07.062.129.138.129.075 0 .137-.058.137-.13 0-.07-.062-.128-.137-.128zM9.367 13.093c-.033 0-.06.025-.06.056 0 .03.027.056.06.056s.06-.025.06-.056-.027-.056-.06-.056zM5.917 13.503c-.03 0-.054.022-.054.05 0 .028.024.05.054.05s.053-.022.053-.05c0-.028-.024-.05-.053-.05zM6.78 13.452c-.06 0-.108.045-.108.1 0 .056.048.102.107.102.06 0 .108-.046.108-.101 0-.056-.049-.1-.108-.1zM7.642 13.44c-.066 0-.12.051-.12.113 0 .062.054.112.12.112s.12-.05.12-.112-.054-.112-.12-.112zM8.505 13.497c-.033 0-.06.025-.06.056 0 .03.027.056.06.056s.06-.025.06-.056c0-.03-.027-.056-.06-.056zM6.348 13.91c-.023 0-.042.018-.042.04 0 .021.019.039.042.039.023 0 .042-.018.042-.04 0-.021-.019-.039-.042-.039zM7.21 13.9c-.03 0-.053.022-.053.05 0 .027.024.05.054.05s.053-.023.053-.05c0-.028-.024-.05-.053-.05zM8.073 13.933c-.01 0-.017.007-.017.016 0 .01.008.017.017.017.01 0 .018-.007.018-.017 0-.009-.008-.016-.018-.016zM5.484 13.536c-.01 0-.018.008-.018.017 0 .01.008.017.018.017.01 0 .018-.008.018-.017 0-.01-.008-.017-.018-.017z" fill="#0041FF"/><path d="M12.605 9.51a.194.194 0 00-.042-.119.19.19 0 00-.017-.156.188.188 0 00.01-.247.185.185 0 00-.037-.176c.03-.03.05-.071.05-.116 0-.094-.082-.17-.182-.17-.052 0-.099.02-.132.054a.219.219 0 00-.135-.015.22.22 0 00-.164-.071.219.219 0 00-.178.088l-.012-.019a.607.607 0 00-.039-.2.177.177 0 00.008-.048.192.192 0 00-.161-.184.699.699 0 00-.374-.187.102.102 0 00.007-.036c0-.06-.051-.107-.114-.107s-.114.048-.114.107c0 .011.003.022.006.032a.718.718 0 00-.147.036.73.73 0 00-.071-.021.1.1 0 00.01-.045c0-.058-.05-.106-.113-.106a.117.117 0 00-.068.022.677.677 0 00-.304-.25.105.105 0 00.053-.09c0-.059-.05-.107-.114-.107-.062 0-.113.048-.113.107a.1.1 0 00.01.043.73.73 0 00-.184-.007.132.132 0 00.006-.036c0-.078-.068-.141-.151-.141-.03 0-.06.008-.083.023a.661.661 0 00-.229-.244.116.116 0 00.01-.045c0-.068-.06-.124-.132-.124a.132.132 0 00-.12.073.73.73 0 00-.142-.014c-.014 0-.028 0-.042.002a.144.144 0 00-.127-.074.144.144 0 00-.132.08.734.734 0 00-.167-.006.15.15 0 00-.133-.078.15.15 0 00-.134.08.738.738 0 00-.156 0 .156.156 0 00-.141-.085.156.156 0 00-.14.082l-.025-.001a.733.733 0 00-.122.01.156.156 0 00-.145-.091.155.155 0 00-.144.093.732.732 0 00-.131-.012h-.017a.16.16 0 00-.244-.043.24.24 0 00-.246-.004.15.15 0 00-.113-.02.238.238 0 00-.335.037.124.124 0 00-.064-.018c-.066 0-.12.05-.12.113 0 .062.054.112.12.112a.126.126 0 00.033-.005c.015.039.04.072.074.096a.626.626 0 00-.042.077.156.156 0 00-.062-.013c-.083 0-.15.063-.15.14 0 .078.067.14.15.14h.005c0 .041.005.082.013.12l-.018-.001c-.096 0-.173.073-.173.163a.16.16 0 00.072.132.164.164 0 00-.027.12.174.174 0 00-.063.132c0 .048.02.092.052.124a.17.17 0 00-.014.137.196.196 0 00-.063.143.2.2 0 00.096.168.259.259 0 00-.016.08.203.203 0 00-.084.161c0 .066.033.124.083.163a.223.223 0 00-.018.087.207.207 0 00-.072.155c0 .062.028.117.072.156a.222.222 0 00-.01.1.206.206 0 00-.062.145c0 .06.026.115.069.153a.222.222 0 00-.006.102.203.203 0 00-.019.274.223.223 0 00-.01.162.203.203 0 00.033.264.223.223 0 000 .112.201.201 0 00-.066.148.2.2 0 00.058.14.219.219 0 00.007.113.206.206 0 00-.066.15c0 .059.024.111.065.15a.22.22 0 00-.005.112.208.208 0 00-.06.146c0 .059.025.111.065.15a.196.196 0 00-.005.104.202.202 0 00-.066.147c0 .116.1.21.223.21a.228.228 0 00.161-.067.227.227 0 00.135.118.205.205 0 00-.07.152c0 .117.102.212.227.212a.234.234 0 00.152-.055.24.24 0 00.099 0c.043.035.1.056.16.056.069 0 .13-.026.175-.068a.27.27 0 00.095.002c.041.039.098.064.162.064a.233.233 0 00.163-.065.282.282 0 00.115-.002.234.234 0 00.16.06.234.234 0 00.165-.067.332.332 0 00.098 0c.042.043.102.07.17.07.06 0 .114-.022.156-.058a.324.324 0 00.103-.005c.034.019.074.03.117.03.124 0 .225-.094.225-.211a.202.202 0 00-.04-.121.3.3 0 00.163-.109c.037.031.085.05.139.05.114 0 .207-.087.207-.195a.19.19 0 00-.078-.152.294.294 0 00.124-.103.245.245 0 00.178.075c.074 0 .14-.031.183-.08l.03.001c.03 0 .059-.005.085-.014.034.03.08.049.13.049.105 0 .19-.08.19-.178 0-.047-.02-.09-.051-.122a.286.286 0 00.051-.12.24.24 0 00.021-.024.324.324 0 00.102-.005.204.204 0 00.127.044c.11 0 .198-.083.198-.186a.183.183 0 00-.087-.153v-.013a.268.268 0 00.125-.118c.04.056.108.093.185.093.122 0 .222-.093.222-.207 0-.07-.037-.131-.093-.169a.281.281 0 00.127-.113c.042.051.107.084.18.084.126 0 .228-.096.228-.214a.208.208 0 00-.085-.166.278.278 0 00.112-.11c.04.051.104.084.177.084.122 0 .221-.093.221-.208a.205.205 0 00-.104-.176.26.26 0 00.13-.127c.036.054.1.09.172.09.111 0 .202-.086.202-.19a.183.183 0 00-.056-.132.192.192 0 00-.01-.101.2.2 0 00.094-.168z" fill="#0041FF"/><path d="M6.572 4.079c.023 0 .042-.018.042-.04 0-.021-.02-.039-.042-.039-.023 0-.042.018-.042.04 0 .021.019.039.042.039zM9.142 4.873c.014 0 .025-.01.025-.023s-.011-.024-.025-.024c-.014 0-.025.01-.025.024 0 .013.011.023.025.023zM5.698 4.472c.016 0 .03-.013.03-.028 0-.015-.014-.027-.03-.027s-.03.012-.03.027.014.028.03.028zM6.561 4.495c.03 0 .054-.023.054-.051 0-.028-.024-.051-.054-.051s-.055.023-.055.05c0 .03.025.052.055.052zM7.424 4.483c.023 0 .042-.017.042-.039s-.02-.04-.042-.04c-.023 0-.042.018-.042.04 0 .022.019.04.042.04zM8.287 4.45a.005.005 0 100-.01.005.005 0 000 .01zM5.698 4.908c.035 0 .063-.026.063-.059 0-.032-.028-.059-.063-.059s-.063.027-.063.06c0 .032.028.058.063.058zM6.56 4.952c.061 0 .11-.046.11-.103 0-.056-.049-.102-.11-.102-.06 0-.108.046-.108.102 0 .057.049.103.109.103zM7.424 4.943c.055 0 .1-.042.1-.094s-.045-.094-.1-.094c-.056 0-.101.042-.101.094s.045.094.1.094zM8.286 4.912c.037 0 .067-.028.067-.063 0-.034-.03-.063-.067-.063-.037 0-.067.029-.067.063 0 .035.03.063.067.063z" fill="#00C8FF"/><path d="M8.288 4.46c.009 0 .017-.006.017-.015s-.008-.016-.017-.016c-.01 0-.017.007-.017.016 0 .009.008.016.017.016zM6.123 4.055c.01 0 .017-.007.017-.015 0-.009-.007-.016-.017-.016-.009 0-.016.007-.016.016 0 .008.007.015.016.015zM5.698 5.337c.049 0 .088-.037.088-.083 0-.045-.04-.082-.088-.082-.049 0-.088.037-.088.082 0 .046.04.083.088.083zM6.56 5.408c.09 0 .164-.069.164-.154 0-.084-.073-.153-.163-.153-.09 0-.164.069-.164.153 0 .085.073.154.164.154zM7.423 5.4c.086 0 .156-.065.156-.146 0-.08-.07-.145-.156-.145-.085 0-.155.065-.155.145 0 .08.07.146.155.146zM8.286 5.364c.065 0 .118-.049.118-.11 0-.06-.053-.11-.118-.11-.064 0-.117.05-.117.11 0 .061.053.11.117.11zM9.15 5.325c.04 0 .075-.032.075-.07 0-.04-.034-.071-.076-.071-.042 0-.075.031-.075.07 0 .04.033.071.075.071zM10.012 5.274c.012 0 .021-.009.021-.02 0-.01-.01-.02-.021-.02-.011 0-.02.01-.02.02 0 .011.008.02.02.02zM5.698 5.753c.056 0 .1-.042.1-.094s-.044-.094-.1-.094c-.056 0-.1.042-.1.094s.044.094.1.094zM6.56 5.86c.119 0 .214-.09.214-.201 0-.11-.095-.2-.213-.2s-.214.09-.214.2c0 .11.096.2.214.2zM7.423 5.852c.114 0 .206-.087.206-.193 0-.107-.092-.193-.206-.193-.113 0-.205.086-.205.193 0 .106.092.193.205.193zM8.286 5.817c.093 0 .168-.07.168-.158 0-.087-.075-.157-.168-.157-.092 0-.167.07-.167.157s.075.158.167.158zM9.149 5.777c.07 0 .126-.053.126-.118s-.057-.118-.126-.118c-.07 0-.126.053-.126.118s.057.118.126.118zM10.012 5.73c.042 0 .075-.032.075-.07 0-.04-.033-.072-.075-.072-.042 0-.075.032-.075.071 0 .04.033.07.075.07zM10.875 5.675c.009 0 .017-.007.017-.016 0-.008-.008-.015-.017-.015-.01 0-.017.007-.017.015 0 .009.008.016.017.016zM5.698 6.17c.063 0 .113-.047.113-.106s-.05-.106-.113-.106c-.062 0-.113.047-.113.106s.05.106.113.106zM6.56 6.264c.119 0 .214-.09.214-.2 0-.111-.095-.201-.213-.201s-.214.09-.214.2c0 .112.096.201.214.201zM7.423 6.264c.118 0 .214-.09.214-.2 0-.111-.096-.201-.214-.201s-.213.09-.213.2c0 .112.095.201.213.201zM8.286 6.26c.116 0 .21-.088.21-.196 0-.109-.094-.197-.21-.197-.115 0-.21.088-.21.197 0 .108.095.196.21.196zM9.149 6.225c.095 0 .172-.072.172-.161 0-.09-.077-.161-.172-.161-.095 0-.172.072-.172.16 0 .09.077.162.172.162zM10.012 6.178c.067 0 .121-.051.121-.114s-.054-.114-.121-.114-.122.05-.122.114c0 .063.055.114.122.114zM10.875 6.13c.04 0 .07-.03.07-.066 0-.037-.03-.067-.07-.067-.04 0-.072.03-.072.067 0 .037.032.067.072.067zM5.266 6.528c.035 0 .063-.027.063-.06 0-.032-.028-.058-.063-.058-.034 0-.063.026-.063.059 0 .032.029.059.063.059zM6.13 6.654c.108 0 .196-.083.196-.185 0-.103-.088-.185-.197-.185-.108 0-.197.082-.197.185 0 .102.089.185.197.185zM6.992 6.67c.118 0 .214-.09.214-.201 0-.111-.096-.2-.214-.2s-.214.089-.214.2c0 .11.096.2.214.2zM7.855 6.67c.118 0 .214-.09.214-.201 0-.111-.096-.2-.214-.2s-.214.089-.214.2c0 .11.096.2.214.2zM8.718 6.67c.118 0 .213-.09.213-.201 0-.111-.095-.2-.213-.2-.119 0-.214.089-.214.2 0 .11.095.2.214.2zM9.58 6.646c.104 0 .189-.08.189-.177 0-.098-.085-.178-.189-.178s-.188.08-.188.178c0 .097.084.177.188.177zM10.443 6.603c.079 0 .143-.06.143-.134 0-.074-.064-.134-.143-.134-.079 0-.142.06-.142.134 0 .074.063.134.142.134zM11.306 6.551c.049 0 .088-.037.088-.082 0-.046-.04-.083-.088-.083-.049 0-.088.037-.088.083 0 .045.04.082.088.082zM12.169 6.489c.011 0 .02-.01.02-.02 0-.011-.008-.02-.02-.02s-.021.009-.021.02c0 .01.01.02.02.02zM5.698 6.984c.065 0 .117-.05.117-.11 0-.061-.052-.11-.117-.11s-.117.049-.117.11c0 .06.052.11.117.11zM6.56 7.074c.119 0 .214-.09.214-.2 0-.111-.095-.201-.213-.201s-.214.09-.214.2c0 .111.096.201.214.201zM7.423 7.074c.118 0 .214-.09.214-.2 0-.111-.096-.201-.214-.201s-.213.09-.213.2c0 .111.095.201.213.201zM8.286 7.074c.118 0 .214-.09.214-.2 0-.111-.096-.201-.214-.201s-.214.09-.214.2c0 .111.096.201.214.201zM9.149 7.074c.118 0 .214-.09.214-.2 0-.111-.096-.201-.214-.201s-.214.09-.214.2c0 .111.096.201.214.201zM10.012 7.066c.113 0 .205-.086.205-.193 0-.106-.092-.192-.205-.192-.114 0-.206.086-.206.192 0 .107.092.193.206.193zM10.874 7.02c.086 0 .156-.066.156-.146 0-.08-.07-.146-.155-.146-.086 0-.155.065-.155.146 0 .08.069.145.154.145zM11.737 6.964c.054 0 .097-.04.097-.09 0-.05-.043-.09-.097-.09-.053 0-.096.04-.096.09 0 .05.043.09.096.09zM12.6 6.901c.017 0 .03-.012.03-.027s-.014-.028-.03-.028-.03.013-.03.028c0 .015.014.027.03.027zM5.698 7.393c.067 0 .122-.052.122-.115s-.055-.114-.122-.114-.121.051-.121.114.054.115.121.115zM6.56 7.479c.119 0 .214-.09.214-.2 0-.112-.095-.201-.213-.201s-.214.09-.214.2c0 .111.096.201.214.201zM7.423 7.479c.118 0 .214-.09.214-.2 0-.112-.096-.201-.214-.201s-.213.09-.213.2c0 .111.095.201.213.201zM8.286 7.479c.118 0 .214-.09.214-.2 0-.112-.096-.201-.214-.201s-.214.09-.214.2c0 .111.096.201.214.201zM9.149 7.479c.118 0 .214-.09.214-.2 0-.112-.096-.201-.214-.201s-.214.09-.214.2c0 .111.096.201.214.201zM10.012 7.479c.118 0 .213-.09.213-.2 0-.112-.095-.201-.213-.201s-.214.09-.214.2c0 .111.096.201.214.201zM10.874 7.46c.107 0 .193-.082.193-.182 0-.1-.086-.18-.193-.18-.106 0-.192.08-.192.18 0 .1.086.181.192.181zM11.737 7.404c.074 0 .134-.056.134-.125 0-.07-.06-.126-.134-.126-.074 0-.134.056-.134.126 0 .069.06.125.134.125zM12.6 7.341c.037 0 .067-.028.067-.063 0-.034-.03-.062-.067-.062-.037 0-.067.028-.067.062 0 .035.03.063.067.063zM5.266 7.75c.04 0 .072-.03.072-.067 0-.037-.032-.067-.072-.067-.039 0-.07.03-.07.067 0 .037.031.067.07.067zM6.13 7.86c.103 0 .188-.079.188-.177 0-.098-.085-.177-.189-.177s-.188.08-.188.177c0 .098.084.177.188.177zM6.992 7.884c.118 0 .214-.09.214-.2 0-.112-.096-.201-.214-.201s-.214.09-.214.2c0 .111.096.201.214.201zM7.855 7.884c.118 0 .214-.09.214-.2 0-.112-.096-.201-.214-.201s-.214.09-.214.2c0 .111.096.201.214.201zM8.714 7.884c.118 0 .214-.09.214-.2 0-.112-.096-.201-.214-.201s-.213.09-.213.2c0 .111.095.201.213.201zM9.58 7.884c.118 0 .214-.09.214-.2 0-.112-.096-.201-.214-.201s-.213.09-.213.2c0 .111.095.201.213.201zM10.443 7.884c.118 0 .214-.09.214-.2 0-.112-.096-.201-.214-.201s-.214.09-.214.2c0 .111.096.201.214.201zM11.306 7.868c.109 0 .197-.083.197-.185s-.088-.185-.197-.185c-.109 0-.197.083-.197.185s.088.185.197.185zM12.169 7.794c.06 0 .11-.046.11-.103 0-.057-.05-.104-.11-.104-.061 0-.11.047-.11.104 0 .057.049.103.11.103zM13.031 7.738c.033 0 .06-.024.06-.055 0-.03-.027-.055-.06-.055-.032 0-.058.025-.058.055s.026.055.058.055zM5.266 8.155c.04 0 .072-.03.072-.067 0-.037-.032-.067-.072-.067-.039 0-.07.03-.07.067 0 .037.031.067.07.067zM6.13 8.257c.099 0 .18-.075.18-.169 0-.093-.081-.169-.18-.169-.1 0-.18.076-.18.17 0 .093.08.168.18.168zM6.992 8.289c.118 0 .214-.09.214-.2 0-.112-.096-.202-.214-.202s-.214.09-.214.201c0 .111.096.2.214.2zM7.855 8.289c.118 0 .214-.09.214-.2 0-.112-.096-.202-.214-.202s-.214.09-.214.201c0 .111.096.2.214.2zM8.718 8.289c.118 0 .213-.09.213-.2 0-.112-.095-.202-.213-.202-.119 0-.214.09-.214.201 0 .111.095.2.214.2zM9.58 8.289c.118 0 .214-.09.214-.2 0-.112-.096-.202-.214-.202s-.213.09-.213.201c0 .111.095.2.213.2zM10.443 8.289c.118 0 .214-.09.214-.2 0-.112-.096-.202-.214-.202s-.214.09-.214.201c0 .111.096.2.214.2zM11.306 8.289c.118 0 .214-.09.214-.2 0-.112-.096-.202-.214-.202s-.214.09-.214.201c0 .111.096.2.214.2zM12.169 8.226c.08 0 .146-.062.146-.138 0-.076-.065-.138-.146-.138-.081 0-.147.062-.147.138 0 .076.066.138.147.138zM13.031 8.163c.045 0 .08-.034.08-.075 0-.041-.035-.075-.08-.075-.043 0-.08.034-.08.075 0 .041.037.075.08.075zM5.266 8.56c.04 0 .072-.03.072-.067 0-.037-.032-.067-.072-.067-.039 0-.07.03-.07.067 0 .037.031.067.07.067zM6.13 8.654c.094 0 .171-.072.171-.161 0-.09-.077-.161-.172-.161-.095 0-.171.072-.171.16 0 .09.076.162.171.162zM6.992 8.694c.118 0 .214-.09.214-.201 0-.11-.096-.2-.214-.2s-.214.09-.214.2c0 .11.096.2.214.2zM7.855 8.694c.118 0 .214-.09.214-.201 0-.11-.096-.2-.214-.2s-.214.09-.214.2c0 .11.096.2.214.2zM8.718 8.694c.118 0 .213-.09.213-.201 0-.11-.095-.2-.213-.2-.119 0-.214.09-.214.2 0 .11.095.2.214.2zM9.58 8.694c.118 0 .214-.09.214-.201 0-.11-.096-.2-.214-.2s-.213.09-.213.2c0 .11.095.2.213.2zM10.443 8.694c.118 0 .214-.09.214-.201 0-.11-.096-.2-.214-.2s-.214.09-.214.2c0 .11.096.2.214.2zM11.306 8.694c.118 0 .214-.09.214-.201 0-.11-.096-.2-.214-.2s-.214.09-.214.2c0 .11.096.2.214.2zM12.169 8.654c.095 0 .171-.072.171-.161 0-.09-.076-.161-.171-.161-.095 0-.172.072-.172.16 0 .09.077.162.172.162zM13.032 8.571c.046 0 .083-.035.083-.078s-.037-.079-.083-.079c-.047 0-.084.036-.084.079 0 .043.037.078.084.078zM5.266 8.965c.04 0 .072-.03.072-.067 0-.037-.032-.067-.072-.067-.039 0-.07.03-.07.067 0 .037.031.067.07.067zM6.13 9.055c.092 0 .167-.07.167-.157s-.075-.158-.168-.158c-.092 0-.167.07-.167.158 0 .087.075.157.167.157zM6.992 9.098c.118 0 .214-.09.214-.2 0-.111-.096-.201-.214-.201s-.214.09-.214.2c0 .112.096.201.214.201zM7.855 9.098c.118 0 .214-.09.214-.2 0-.111-.096-.201-.214-.201s-.214.09-.214.2c0 .112.096.201.214.201zM8.718 9.098c.118 0 .213-.09.213-.2 0-.111-.095-.201-.213-.201-.119 0-.214.09-.214.2 0 .112.095.201.214.201zM9.58 9.098c.118 0 .214-.09.214-.2 0-.111-.096-.201-.214-.201s-.213.09-.213.2c0 .112.095.201.213.201zM10.443 9.098c.118 0 .214-.09.214-.2 0-.111-.096-.201-.214-.201s-.214.09-.214.2c0 .112.096.201.214.201zM11.306 9.098c.118 0 .214-.09.214-.2 0-.111-.096-.201-.214-.201s-.214.09-.214.2c0 .112.096.201.214.201zM12.169 9.098c.118 0 .213-.09.213-.2 0-.111-.095-.201-.213-.201-.119 0-.214.09-.214.2 0 .112.095.201.214.201zM13.031 8.98c.05 0 .088-.037.088-.082 0-.046-.039-.083-.088-.083-.048 0-.088.037-.088.083 0 .045.04.082.088.082zM5.266 9.365c.037 0 .067-.028.067-.062 0-.035-.03-.063-.067-.063-.037 0-.067.028-.067.063 0 .034.03.062.067.062zM6.13 9.452c.087 0 .159-.067.159-.15 0-.082-.072-.149-.16-.149-.088 0-.159.067-.159.15 0 .082.071.15.16.15zM6.992 9.503c.118 0 .214-.09.214-.2 0-.111-.096-.201-.214-.201s-.214.09-.214.2c0 .112.096.201.214.201zM7.855 9.503c.118 0 .214-.09.214-.2 0-.111-.096-.201-.214-.201s-.214.09-.214.2c0 .112.096.201.214.201zM8.718 9.503c.118 0 .213-.09.213-.2 0-.111-.095-.201-.213-.201-.119 0-.214.09-.214.2 0 .112.095.201.214.201zM9.58 9.503c.118 0 .214-.09.214-.2 0-.111-.096-.201-.214-.201s-.213.09-.213.2c0 .112.095.201.213.201zM10.443 9.503c.118 0 .214-.09.214-.2 0-.111-.096-.201-.214-.201s-.214.09-.214.2c0 .112.096.201.214.201zM11.306 9.503c.118 0 .214-.09.214-.2 0-.111-.096-.201-.214-.201s-.214.09-.214.2c0 .112.096.201.214.201zM12.169 9.503c.118 0 .213-.09.213-.2 0-.111-.095-.201-.213-.201-.119 0-.214.09-.214.2 0 .112.095.201.214.201zM13.031 9.385c.05 0 .088-.037.088-.082 0-.046-.039-.083-.088-.083-.048 0-.088.037-.088.083 0 .045.04.082.088.082zM5.266 9.767c.035 0 .063-.027.063-.06 0-.032-.028-.058-.063-.058-.034 0-.063.026-.063.059 0 .032.029.059.063.059zM6.13 9.845c.08 0 .146-.061.146-.137 0-.076-.066-.138-.147-.138-.08 0-.146.062-.146.138 0 .076.065.137.146.137zM6.992 9.908c.118 0 .214-.09.214-.2 0-.111-.096-.201-.214-.201s-.214.09-.214.2c0 .111.096.201.214.201zM7.855 9.908c.118 0 .214-.09.214-.2 0-.111-.096-.201-.214-.201s-.214.09-.214.2c0 .111.096.201.214.201zM8.718 9.908c.118 0 .213-.09.213-.2 0-.111-.095-.201-.213-.201-.119 0-.214.09-.214.2 0 .111.095.201.214.201zM9.58 9.908c.118 0 .214-.09.214-.2 0-.111-.096-.201-.214-.201s-.213.09-.213.2c0 .111.095.201.213.201zM10.443 9.908c.118 0 .214-.09.214-.2 0-.111-.096-.201-.214-.201s-.214.09-.214.2c0 .111.096.201.214.201zM11.306 9.908c.118 0 .214-.09.214-.2 0-.111-.096-.201-.214-.201s-.214.09-.214.2c0 .111.096.201.214.201zM12.169 9.908c.118 0 .213-.09.213-.2 0-.111-.095-.201-.213-.201-.119 0-.214.09-.214.2 0 .111.095.201.214.201zM13.032 9.774c.039 0 .07-.03.07-.066 0-.037-.031-.067-.07-.067-.04 0-.072.03-.072.067 0 .037.032.066.072.066zM5.266 10.167c.033 0 .06-.024.06-.055 0-.03-.027-.055-.06-.055-.032 0-.058.025-.058.055s.026.055.058.055zM6.13 10.223c.064 0 .117-.05.117-.11 0-.061-.053-.11-.118-.11-.064 0-.117.049-.117.11 0 .06.053.11.117.11zM6.992 10.313c.118 0 .214-.09.214-.2 0-.111-.096-.201-.214-.201s-.214.09-.214.2c0 .111.096.201.214.201zM7.855 10.313c.118 0 .214-.09.214-.2 0-.111-.096-.201-.214-.201s-.214.09-.214.2c0 .111.096.201.214.201zM8.718 10.313c.118 0 .213-.09.213-.2 0-.111-.095-.201-.213-.201-.119 0-.214.09-.214.2 0 .111.095.201.214.201zM9.58 10.313c.118 0 .214-.09.214-.2 0-.111-.096-.201-.214-.201s-.213.09-.213.2c0 .111.095.201.213.201zM10.443 10.313c.118 0 .214-.09.214-.2 0-.111-.096-.201-.214-.201s-.214.09-.214.2c0 .111.096.201.214.201zM11.306 10.313c.118 0 .214-.09.214-.2 0-.111-.096-.201-.214-.201s-.214.09-.214.2c0 .111.096.201.214.201zM12.169 10.281c.1 0 .18-.075.18-.169 0-.093-.08-.169-.18-.169-.1 0-.18.076-.18.17 0 .093.08.168.18.168zM13.032 10.16c.027 0 .05-.021.05-.047 0-.027-.023-.048-.05-.048-.028 0-.05.021-.05.048 0 .026.022.047.05.047zM5.698 10.6c.049 0 .088-.037.088-.083 0-.045-.04-.082-.088-.082-.049 0-.088.037-.088.082 0 .046.04.083.088.083zM6.56 10.675c.093 0 .168-.07.168-.158 0-.087-.075-.157-.167-.157-.093 0-.168.07-.168.157s.075.158.168.158zM7.423 10.718c.118 0 .214-.09.214-.2 0-.112-.096-.202-.214-.202s-.213.09-.213.201c0 .11.095.2.213.2zM8.286 10.718c.118 0 .214-.09.214-.2 0-.112-.096-.202-.214-.202s-.214.09-.214.201c0 .11.096.2.214.2zM9.149 10.718c.118 0 .214-.09.214-.2 0-.112-.096-.202-.214-.202s-.214.09-.214.201c0 .11.096.2.214.2zM10.012 10.718c.118 0 .213-.09.213-.2 0-.112-.095-.202-.213-.202s-.214.09-.214.201c0 .11.096.2.214.2zM10.874 10.718c.118 0 .214-.09.214-.2 0-.112-.096-.202-.214-.202s-.213.09-.213.201c0 .11.095.2.213.2zM11.737 10.697c.106 0 .192-.08.192-.18 0-.1-.086-.18-.192-.18-.106 0-.191.08-.191.18 0 .1.085.18.191.18zM12.6 10.592c.044 0 .08-.034.08-.075 0-.041-.036-.074-.08-.074-.044 0-.08.033-.08.074 0 .042.036.075.08.075zM5.266 10.97c.028 0 .05-.022.05-.048 0-.026-.022-.047-.05-.047-.027 0-.05.021-.05.047s.023.047.05.047zM6.13 11.032c.064 0 .117-.049.117-.11 0-.06-.053-.11-.118-.11-.064 0-.117.05-.117.11 0 .061.053.11.117.11zM6.992 11.1c.104 0 .189-.08.189-.178 0-.098-.085-.177-.189-.177s-.189.08-.189.177c0 .098.085.177.19.177zM7.855 11.123c.118 0 .214-.09.214-.201 0-.11-.096-.2-.214-.2s-.214.09-.214.2c0 .11.096.2.214.2zM8.718 11.123c.118 0 .213-.09.213-.201 0-.11-.095-.2-.213-.2-.119 0-.214.09-.214.2 0 .11.095.2.214.2zM9.58 11.123c.118 0 .214-.09.214-.201 0-.11-.096-.2-.214-.2s-.213.09-.213.2c0 .11.095.2.213.2zM10.443 11.123c.118 0 .214-.09.214-.201 0-.11-.096-.2-.214-.2s-.214.09-.214.2c0 .11.096.2.214.2zM11.306 11.095c.101 0 .184-.078.184-.173 0-.095-.083-.173-.184-.173-.102 0-.184.078-.184.173 0 .095.082.173.184.173zM12.169 11.005c.048 0 .088-.037.088-.083 0-.046-.04-.082-.088-.082-.049 0-.088.037-.088.082 0 .046.04.083.088.083zM5.266 11.366c.024 0 .042-.017.042-.039 0-.021-.018-.04-.042-.04-.023 0-.042.018-.042.04 0 .022.02.04.042.04zM6.13 11.425c.057 0 .104-.044.104-.098 0-.054-.047-.098-.105-.098-.057 0-.104.044-.104.098 0 .054.047.098.104.098zM6.992 11.485c.093 0 .168-.071.168-.158 0-.087-.075-.157-.168-.157-.092 0-.168.07-.168.157s.076.158.168.158zM7.855 11.528c.118 0 .214-.09.214-.201 0-.111-.096-.2-.214-.2s-.214.089-.214.2c0 .11.096.2.214.2zM8.718 11.528c.118 0 .213-.09.213-.201 0-.111-.095-.2-.213-.2-.119 0-.214.089-.214.2 0 .11.095.2.214.2zM9.58 11.528c.118 0 .214-.09.214-.201 0-.111-.096-.2-.214-.2s-.213.089-.213.2c0 .11.095.2.213.2zM10.443 11.508c.107 0 .193-.081.193-.181 0-.1-.086-.181-.193-.181-.106 0-.193.081-.193.181 0 .1.087.181.193.181zM11.306 11.441c.067 0 .121-.051.121-.114s-.054-.114-.121-.114-.122.051-.122.114.055.114.122.114zM12.169 11.355c.016 0 .03-.013.03-.028 0-.015-.014-.027-.03-.027s-.03.012-.03.027.014.028.03.028zM5.698 11.79c.035 0 .063-.026.063-.058 0-.033-.028-.06-.063-.06s-.063.027-.063.06c0 .032.028.059.063.059zM6.56 11.846c.068 0 .122-.051.122-.114s-.054-.114-.121-.114-.122.05-.122.114c0 .063.055.114.122.114zM7.423 11.893c.095 0 .172-.072.172-.161 0-.09-.077-.162-.171-.162-.095 0-.172.072-.172.162 0 .089.077.161.171.161zM8.286 11.928c.116 0 .21-.088.21-.196 0-.109-.094-.197-.21-.197-.115 0-.21.088-.21.197 0 .108.095.196.21.196zM9.149 11.932c.118 0 .214-.09.214-.2 0-.111-.096-.201-.214-.201s-.214.09-.214.2c0 .111.096.201.214.201zM10.012 11.897c.097 0 .176-.074.176-.165 0-.092-.08-.166-.176-.166-.098 0-.176.074-.176.166 0 .09.078.165.176.165zM10.874 11.826c.056 0 .1-.042.1-.094s-.044-.094-.1-.094c-.055 0-.1.042-.1.094s.045.094.1.094zM11.738 11.748c.009 0 .016-.007.016-.016 0-.009-.007-.016-.016-.016-.01 0-.017.007-.017.016 0 .009.007.016.017.016zM5.698 12.184c.028 0 .05-.021.05-.047s-.022-.047-.05-.047c-.028 0-.05.02-.05.047 0 .026.022.047.05.047zM6.56 12.25c.068 0 .122-.05.122-.113 0-.064-.054-.114-.121-.114s-.122.05-.122.114c0 .063.055.114.122.114zM7.424 12.274c.08 0 .146-.061.146-.137 0-.076-.065-.138-.146-.138-.081 0-.147.062-.147.138 0 .076.066.137.147.137zM8.286 12.298c.095 0 .172-.072.172-.161 0-.09-.077-.162-.172-.162-.095 0-.172.073-.172.162 0 .089.077.161.172.161zM9.149 12.294c.093 0 .168-.07.168-.157s-.075-.158-.168-.158c-.093 0-.168.07-.168.158 0 .087.075.157.168.157zM10.012 12.263c.074 0 .134-.056.134-.126s-.06-.127-.134-.127c-.075 0-.135.057-.135.127s.06.126.135.126zM10.875 12.18c.025 0 .046-.02.046-.043 0-.024-.02-.043-.046-.043s-.046.019-.046.043c0 .024.02.043.046.043zM5.698 12.577c.021 0 .038-.016.038-.035 0-.02-.017-.036-.038-.036-.02 0-.037.016-.037.036 0 .02.016.035.037.035zM6.56 12.64c.059 0 .106-.044.106-.099 0-.054-.047-.098-.105-.098-.058 0-.105.044-.105.098 0 .055.047.1.105.1zM7.423 12.652c.065 0 .118-.05.118-.11 0-.061-.053-.11-.118-.11-.064 0-.117.049-.117.11 0 .06.053.11.117.11zM8.286 12.664c.072 0 .13-.055.13-.122 0-.068-.058-.122-.13-.122-.071 0-.13.054-.13.122 0 .067.059.122.13.122zM9.15 12.652c.064 0 .116-.05.116-.11 0-.061-.052-.11-.117-.11s-.117.049-.117.11c0 .06.052.11.117.11zM10.012 12.597c.032 0 .059-.025.059-.055s-.027-.055-.06-.055c-.031 0-.058.024-.058.055 0 .03.027.055.059.055zM5.698 12.966c.012 0 .021-.009.021-.02 0-.01-.01-.02-.02-.02-.012 0-.022.01-.022.02 0 .011.01.02.021.02zM6.56 13.001c.033 0 .06-.024.06-.055 0-.03-.027-.055-.06-.055-.032 0-.058.025-.058.055s.026.055.059.055zM7.424 13.025c.046 0 .084-.035.084-.079 0-.043-.038-.078-.084-.078-.047 0-.084.035-.084.078 0 .044.037.079.084.079zM8.286 13.033c.051 0 .092-.039.092-.087 0-.047-.04-.086-.092-.086-.05 0-.092.039-.092.086 0 .048.041.087.092.087zM8.718 13.018c.042 0 .077-.032.077-.072 0-.04-.035-.072-.077-.072-.043 0-.077.032-.077.072 0 .04.034.072.077.072zM9.58 12.97c.014 0 .026-.01.026-.024 0-.013-.012-.023-.025-.023-.014 0-.026.01-.026.023s.012.024.026.024zM6.561 13.383c.019 0 .034-.014.034-.032 0-.017-.015-.031-.034-.031-.019 0-.034.014-.034.031 0 .018.015.032.034.032zM7.424 13.398c.027 0 .05-.02.05-.047 0-.026-.023-.047-.05-.047-.028 0-.05.021-.05.047s.022.047.05.047zM8.286 13.395c.026 0 .047-.02.047-.044 0-.024-.021-.043-.047-.043-.025 0-.046.02-.046.043 0 .024.021.043.046.043z" fill="#00C8FF"/><path d="M11.091 8.445c.1 0 .18-.075.18-.168 0-.093-.08-.168-.18-.168-.099 0-.179.075-.179.168 0 .093.08.168.18.168zM7.21 5.064c.018 0 .032-.014.032-.03 0-.017-.014-.03-.032-.03-.018 0-.032.013-.032.03 0 .016.014.03.032.03zM8.073 5.057c.014 0 .025-.01.025-.024 0-.013-.011-.023-.025-.023-.014 0-.025.01-.025.023s.011.024.025.024zM7.209 4.664c.008 0 .014-.006.014-.013 0-.007-.006-.013-.014-.013s-.015.006-.015.013c0 .007.007.013.015.013zM7.641 4.664c.008 0 .015-.006.015-.013 0-.007-.007-.013-.015-.013s-.014.006-.014.013c0 .007.006.013.014.013zM7.642 5.495c.035 0 .064-.027.064-.06 0-.034-.029-.06-.064-.06-.036 0-.065.026-.065.06 0 .033.029.06.065.06zM8.504 5.492c.034 0 .061-.026.061-.057 0-.032-.027-.057-.06-.057-.034 0-.062.025-.062.057 0 .031.028.057.061.057zM9.367 5.468c.02 0 .036-.015.036-.033 0-.019-.016-.034-.036-.034-.02 0-.036.015-.036.034 0 .018.016.033.036.033zM5.914 5.868c.01 0 .018-.008.018-.017 0-.01-.008-.017-.018-.017-.01 0-.018.008-.018.017 0 .01.009.017.018.017zM7.64 5.925c.043 0 .078-.033.078-.074 0-.041-.035-.074-.079-.074-.043 0-.078.033-.078.074 0 .04.035.074.078.074zM8.503 5.944c.055 0 .1-.042.1-.094s-.045-.094-.1-.094c-.056 0-.1.042-.1.094s.044.094.1.094zM9.366 5.928c.045 0 .082-.035.082-.077 0-.043-.037-.078-.082-.078-.046 0-.083.035-.083.078 0 .042.037.077.083.077zM10.228 5.898c.028 0 .05-.021.05-.047s-.022-.047-.05-.047c-.028 0-.05.02-.05.047 0 .026.022.047.05.047zM8.073 6.352c.057 0 .103-.044.103-.097 0-.054-.046-.098-.103-.098-.058 0-.104.044-.104.098 0 .053.046.097.104.097zM8.935 6.379c.073 0 .133-.056.133-.124 0-.07-.06-.125-.133-.125-.073 0-.132.056-.132.125 0 .068.059.124.132.124zM9.798 6.366c.065 0 .118-.05.118-.111 0-.062-.053-.111-.118-.111s-.118.05-.118.11c0 .062.053.112.118.112zM10.662 6.332c.045 0 .082-.035.082-.078 0-.042-.037-.077-.082-.077-.046 0-.083.035-.083.077 0 .043.037.078.082.078zM11.524 6.292c.022 0 .04-.017.04-.037 0-.02-.018-.037-.04-.037-.022 0-.04.016-.04.037 0 .02.018.037.04.037zM8.935 6.792c.081 0 .147-.062.147-.138 0-.076-.066-.138-.147-.138-.081 0-.147.062-.147.138 0 .076.066.138.147.138zM9.798 6.812c.093 0 .169-.07.169-.158 0-.087-.076-.158-.169-.158-.093 0-.168.07-.168.158 0 .087.075.158.168.158zM10.66 6.778c.074 0 .133-.056.133-.124 0-.069-.059-.125-.132-.125-.073 0-.133.056-.133.125 0 .068.06.124.133.124zM11.524 6.731c.045 0 .082-.034.082-.077s-.037-.077-.082-.077c-.046 0-.083.034-.083.077s.037.077.083.077zM12.386 6.688c.02 0 .036-.015.036-.034 0-.018-.016-.033-.036-.033-.02 0-.035.015-.035.033 0 .019.016.034.035.034zM9.364 7.225c.095 0 .172-.073.172-.162 0-.089-.077-.161-.172-.161-.095 0-.172.072-.172.161 0 .09.077.162.172.162zM10.227 7.235c.1 0 .182-.077.182-.172 0-.094-.082-.171-.182-.171-.101 0-.183.077-.183.171 0 .095.082.172.183.172zM11.09 7.211c.086 0 .157-.066.157-.148 0-.081-.07-.147-.158-.147-.087 0-.157.066-.157.147 0 .082.07.148.157.148zM11.953 7.16c.057 0 .103-.043.103-.097 0-.054-.046-.097-.103-.097-.058 0-.104.043-.104.097 0 .054.046.098.104.098zM12.816 7.11c.027 0 .05-.02.05-.046s-.022-.047-.05-.047c-.028 0-.05.02-.05.047 0 .026.022.047.05.047zM14.111 8.3c.014 0 .025-.01.025-.023s-.011-.023-.025-.023c-.014 0-.025.01-.025.023s.011.024.025.024zM9.367 7.629c.093 0 .168-.071.168-.158 0-.088-.075-.159-.168-.159-.093 0-.169.071-.169.159 0 .087.076.158.169.158zM10.23 7.642c.1 0 .182-.076.182-.171 0-.095-.082-.172-.182-.172-.101 0-.183.077-.183.172 0 .095.082.171.183.171zM11.092 7.642c.1 0 .183-.076.183-.171 0-.095-.082-.172-.183-.172-.101 0-.183.077-.183.172 0 .095.082.171.183.171zM11.956 7.609c.08 0 .146-.062.146-.138 0-.076-.065-.138-.146-.138-.082 0-.147.062-.147.138 0 .076.065.138.147.138zM12.817 7.551c.048 0 .086-.036.086-.08 0-.045-.038-.08-.086-.08-.047 0-.086.035-.086.08 0 .044.039.08.086.08zM13.68 7.494c.014 0 .026-.01.026-.023s-.012-.024-.026-.024c-.014 0-.025.01-.025.024 0 .013.011.023.025.023zM6.347 7.908c.01 0 .018-.008.018-.017 0-.01-.008-.017-.018-.017-.01 0-.018.008-.018.017 0 .01.008.017.018.017zM7.21 7.945c.031 0 .057-.024.057-.054s-.026-.054-.057-.054c-.032 0-.058.024-.058.054s.026.054.058.054zM8.072 7.981c.054 0 .097-.04.097-.09 0-.05-.043-.091-.097-.091-.053 0-.096.04-.096.09 0 .05.043.091.096.091zM8.935 8.019c.075 0 .136-.058.136-.128s-.06-.128-.136-.128c-.075 0-.136.057-.136.128 0 .07.06.128.136.128zM10.23 8.062c.1 0 .182-.076.182-.171 0-.095-.082-.172-.182-.172-.101 0-.183.077-.183.172 0 .095.082.171.183.171zM11.092 8.062c.1 0 .183-.076.183-.171 0-.095-.082-.172-.183-.172-.101 0-.183.077-.183.172 0 .095.082.171.183.171zM11.955 8.062c.101 0 .183-.076.183-.171 0-.095-.082-.172-.183-.172-.1 0-.182.077-.182.172 0 .095.081.171.182.171zM12.818 8.002c.065 0 .118-.05.118-.111 0-.062-.053-.111-.118-.111-.066 0-.119.05-.119.11 0 .062.053.112.119.112zM13.68 7.934c.026 0 .047-.02.047-.043 0-.024-.02-.044-.047-.044-.025 0-.046.02-.046.044 0 .024.02.043.046.043zM11.955 8.449c.101 0 .183-.077.183-.172 0-.095-.082-.172-.183-.172-.1 0-.182.077-.182.172 0 .095.081.172.182.172zM12.818 8.408c.077 0 .14-.058.14-.13 0-.073-.063-.132-.14-.132-.078 0-.14.059-.14.131 0 .073.062.131.14.131zM13.68 8.328c.03 0 .054-.023.054-.05 0-.029-.024-.051-.053-.051-.03 0-.054.022-.054.05 0 .028.024.05.054.05zM11.955 8.852c.101 0 .183-.077.183-.172 0-.094-.082-.171-.183-.171-.1 0-.182.077-.182.171 0 .095.081.172.182.172zM12.818 8.825c.085 0 .154-.065.154-.145 0-.08-.069-.144-.154-.144-.085 0-.154.064-.154.144 0 .08.069.145.154.145zM13.68 8.734c.032 0 .058-.024.058-.054s-.026-.054-.058-.054c-.031 0-.057.024-.057.054s.026.054.057.054zM11.956 9.262c.101 0 .183-.077.183-.172 0-.095-.082-.172-.183-.172-.1 0-.183.077-.183.172 0 .095.082.172.183.172zM12.82 9.235c.084 0 .153-.065.153-.145 0-.08-.069-.144-.154-.144-.085 0-.154.064-.154.144 0 .08.069.145.154.145zM13.683 9.14c.03 0 .053-.022.053-.05 0-.028-.024-.05-.053-.05-.03 0-.054.022-.054.05 0 .028.024.05.054.05zM14.112 7.92c.006 0 .011-.003.011-.009 0-.005-.005-.01-.01-.01-.007 0-.011.005-.011.01 0 .006.004.01.01.01zM12.387 9.667c.1 0 .182-.077.182-.172 0-.095-.081-.172-.182-.172-.101 0-.183.077-.183.172 0 .095.082.172.183.172zM13.25 9.572c.045 0 .082-.034.082-.077s-.037-.077-.083-.077c-.045 0-.082.034-.082.077s.037.077.082.077zM11.955 10.067c.101 0 .183-.076.183-.171 0-.095-.082-.172-.183-.172-.1 0-.182.077-.182.172 0 .095.081.171.182.171zM12.818 9.993c.057 0 .104-.043.104-.097 0-.054-.047-.098-.104-.098-.058 0-.104.044-.104.098 0 .053.046.097.104.097zM11.524 10.469c.1 0 .182-.077.182-.172 0-.095-.082-.171-.182-.171-.101 0-.183.077-.183.171 0 .095.082.172.183.172zM12.387 10.398c.06 0 .107-.045.107-.1 0-.057-.048-.102-.107-.102-.06 0-.108.045-.108.101 0 .056.048.1.108.1zM11.523 10.847c.087 0 .158-.066.158-.148 0-.082-.071-.148-.158-.148-.087 0-.158.066-.158.148 0 .082.07.148.158.148zM12.387 10.746c.028 0 .05-.02.05-.047 0-.026-.022-.047-.05-.047-.028 0-.05.021-.05.047s.022.047.05.047zM11.519 11.198c.051 0 .093-.04.093-.088 0-.048-.042-.087-.093-.087-.052 0-.093.039-.093.087 0 .048.041.088.093.088zM11.092 11.581c.04 0 .072-.03.072-.067 0-.037-.032-.067-.072-.067-.04 0-.072.03-.072.067 0 .037.033.067.072.067zM11.093 11.929c.006 0 .01-.005.01-.01s-.004-.01-.01-.01-.011.005-.011.01.005.01.01.01zM9.798 8.062c.1 0 .183-.076.183-.171 0-.095-.082-.172-.183-.172-.101 0-.183.077-.183.172 0 .095.082.171.183.171z" fill="#FF144B"/><path d="M8.934 12.19c-.078 0-.142.06-.142.134 0 .073.064.133.142.133.078 0 .142-.06.142-.133 0-.074-.064-.134-.142-.134zM9.797 12.262c-.036 0-.066.028-.066.062s.03.062.066.062c.036 0 .066-.028.066-.062s-.03-.062-.066-.062zM10.23 11.84c-.047 0-.085.036-.085.08 0 .042.038.078.084.078.046 0 .084-.036.084-.079 0-.043-.038-.078-.084-.078zM10.66 11.425c-.053 0-.095.04-.095.09 0 .049.042.089.095.089s.095-.04.095-.09c0-.05-.042-.09-.095-.09zM10.655 10.98c-.077 0-.14.058-.14.13 0 .073.063.131.14.131.077 0 .139-.058.139-.13 0-.073-.062-.131-.14-.131zM5.484 6.312c.032 0 .06-.025.06-.056 0-.03-.028-.056-.06-.056-.033 0-.06.025-.06.056s.027.056.06.056zM6.346 6.329c.043 0 .078-.033.078-.073 0-.04-.035-.073-.078-.073s-.077.033-.077.073c0 .04.034.073.077.073zM7.21 6.323c.039 0 .071-.03.071-.067 0-.037-.032-.067-.072-.067-.04 0-.071.03-.071.067 0 .037.032.067.071.067zM7.64 6.755c.06 0 .108-.045.108-.101 0-.056-.048-.1-.107-.1-.06 0-.108.044-.108.1 0 .056.048.1.108.1zM6.778 6.76c.062 0 .113-.047.113-.106s-.05-.107-.113-.107-.114.048-.114.107.05.106.114.106zM5.915 6.755c.06 0 .108-.045.108-.101 0-.056-.049-.1-.108-.1-.06 0-.107.044-.107.1 0 .056.048.1.107.1zM6.344 5.884c.02 0 .036-.015.036-.033 0-.019-.016-.034-.036-.034-.02 0-.035.015-.035.034 0 .018.016.033.035.033zM5.915 5.468c.02 0 .036-.015.036-.033 0-.019-.016-.034-.036-.034-.02 0-.036.015-.036.034 0 .018.016.033.036.033zM6.778 5.468c.02 0 .036-.015.036-.033 0-.019-.016-.034-.036-.034-.02 0-.036.015-.036.034 0 .018.016.033.036.033zM5.482 5.873c.013 0 .024-.01.024-.022 0-.013-.01-.023-.024-.023-.013 0-.024.01-.024.023 0 .012.01.022.024.022zM7.208 5.879c.016 0 .03-.013.03-.028 0-.016-.014-.028-.03-.028-.017 0-.03.012-.03.028 0 .015.013.028.03.028zM8.504 6.284c.017 0 .03-.012.03-.028 0-.015-.013-.028-.03-.028-.016 0-.03.013-.03.028 0 .016.014.028.03.028zM7.64 6.318c.037 0 .067-.028.067-.062s-.03-.061-.066-.061c-.036 0-.066.027-.066.061s.03.062.066.062zM9.367 6.704c.03 0 .054-.022.054-.05 0-.028-.024-.05-.054-.05s-.054.022-.054.05c0 .028.025.05.054.05zM4.62 6.67c.01 0 .018-.007.018-.016 0-.01-.008-.017-.018-.017-.01 0-.017.008-.017.017 0 .01.008.017.017.017zM5.483 6.738c.05 0 .09-.038.09-.084 0-.047-.04-.084-.09-.084-.05 0-.09.037-.09.084 0 .046.04.084.09.084zM8.504 6.715c.036 0 .066-.027.066-.061s-.03-.062-.066-.062c-.036 0-.066.028-.066.062s.03.061.066.061zM5.05 7.142c.046 0 .083-.035.083-.079 0-.043-.037-.078-.084-.078-.046 0-.083.035-.083.078 0 .044.037.079.083.079zM9.363 7.153c.053 0 .096-.04.096-.09 0-.05-.043-.09-.096-.09-.053 0-.095.04-.095.09 0 .05.042.09.095.09zM9.794 7.136c.043 0 .078-.032.078-.073 0-.04-.035-.072-.078-.072-.042 0-.077.032-.077.072 0 .04.035.073.077.073zM5.052 7.566c.056 0 .101-.043.101-.095 0-.053-.045-.096-.101-.096-.056 0-.102.043-.102.096 0 .052.046.095.102.095zM10.66 7.549c.046 0 .083-.035.083-.078 0-.044-.037-.079-.083-.079-.046 0-.084.035-.084.079 0 .043.038.078.084.078zM4.19 7.91c.01 0 .018-.008.018-.017 0-.01-.008-.017-.018-.017-.01 0-.018.007-.018.017 0 .009.008.016.018.016zM5.052 8.005c.066 0 .12-.05.12-.113 0-.061-.054-.112-.12-.112s-.12.05-.12.112.054.113.12.113zM4.189 8.305c.017 0 .03-.012.03-.028 0-.015-.013-.028-.03-.028-.016 0-.03.013-.03.028 0 .016.014.028.03.028zM5.052 8.406c.076 0 .138-.058.138-.129 0-.071-.062-.129-.138-.129-.075 0-.137.058-.137.13 0 .07.062.128.137.128zM4.62 8.77c.053 0 .095-.04.095-.09 0-.05-.042-.09-.095-.09s-.096.04-.096.09c0 .05.043.09.096.09zM11.524 8.395c.07 0 .125-.053.125-.118s-.056-.117-.125-.117c-.07 0-.126.052-.126.117s.056.118.126.118zM11.955 8.798c.07 0 .126-.053.126-.118s-.056-.117-.126-.117c-.069 0-.125.052-.125.117s.056.118.125.118zM11.956 9.377c-.069 0-.125.053-.125.118s.056.118.125.118c.07 0 .126-.053.126-.118s-.056-.118-.126-.118zM4.622 9.185c.056 0 .101-.042.101-.095s-.045-.095-.101-.095c-.056 0-.101.042-.101.095s.045.095.101.095zM12.387 9.017c-.043 0-.077.033-.077.073 0 .04.034.073.077.073s.078-.033.078-.073c0-.04-.035-.073-.078-.073zM11.955 8.35c.042 0 .077-.033.077-.073 0-.04-.035-.073-.077-.073-.043 0-.078.033-.078.073 0 .04.035.073.078.073zM4.62 9.394c-.06 0-.107.045-.107.1 0 .056.048.102.107.102.06 0 .108-.046.108-.101 0-.056-.048-.101-.108-.101zM12.385 9.422c-.043 0-.077.033-.077.073 0 .04.034.073.077.073s.078-.033.078-.073c0-.04-.035-.073-.078-.073zM4.62 9.795c-.06 0-.107.045-.107.1 0 .056.048.101.107.101.06 0 .108-.045.108-.1 0-.056-.048-.101-.108-.101zM11.954 9.778c-.069 0-.125.053-.125.118s.056.118.125.118c.07 0 .126-.053.126-.118s-.056-.118-.126-.118zM4.19 10.248c-.03 0-.054.023-.054.051 0 .028.024.05.053.05.03 0 .054-.022.054-.05 0-.028-.024-.05-.054-.05zM5.052 10.142c-.092 0-.167.07-.167.157s.075.157.167.157c.092 0 .167-.07.167-.157s-.075-.157-.167-.157zM4.19 10.654c-.027 0-.048.02-.048.045 0 .025.021.045.047.045.027 0 .048-.02.048-.045 0-.025-.021-.045-.048-.045zM5.052 10.542c-.092 0-.167.07-.167.157s.075.157.167.157c.092 0 .167-.07.167-.157s-.075-.157-.167-.157zM4.615 11.015c-.056 0-.101.043-.101.095 0 .053.045.096.101.096.056 0 .102-.043.102-.096 0-.052-.046-.095-.102-.095zM11.087 11.01c-.06 0-.107.045-.107.1 0 .056.048.101.107.101.06 0 .107-.045.107-.1 0-.056-.048-.102-.107-.102zM4.62 11.425c-.053 0-.096.04-.096.09 0 .049.043.089.096.089.053 0 .095-.04.095-.09 0-.05-.042-.09-.095-.09zM4.189 11.486c-.016 0-.03.013-.03.028 0 .016.014.028.03.028.017 0 .03-.012.03-.028 0-.015-.013-.028-.03-.028zM5.052 11.785c-.079 0-.143.06-.143.134 0 .074.064.135.143.135.08 0 .144-.06.144-.135 0-.074-.064-.134-.144-.134zM4.62 12.257c-.04 0-.071.03-.071.067 0 .037.032.067.071.067.04 0 .072-.03.072-.067 0-.037-.032-.067-.072-.067zM10.229 12.313c-.007 0-.012.005-.012.01 0 .007.005.012.012.012.006 0 .012-.005.012-.011 0-.006-.006-.011-.012-.011zM5.052 12.624c-.06 0-.108.045-.108.101 0 .056.048.1.108.1s.107-.044.107-.1c0-.056-.048-.1-.107-.1zM8.503 12.602c-.072 0-.13.055-.13.123s.058.123.13.123c.073 0 .132-.055.132-.123s-.06-.123-.132-.123zM4.62 13.1c-.02 0-.036.015-.036.034 0 .018.016.033.036.033.02 0 .036-.015.036-.033 0-.019-.016-.034-.036-.034zM5.484 13.016c-.07 0-.126.053-.126.118s.057.117.126.117.125-.052.125-.117-.056-.118-.125-.118zM6.346 12.965c-.099 0-.179.076-.179.169 0 .092.08.168.18.168.098 0 .178-.076.178-.168 0-.093-.08-.169-.179-.169zM7.21 12.971c-.096 0-.174.073-.174.163 0 .09.078.162.173.162.096 0 .173-.072.173-.162 0-.09-.077-.163-.173-.163zM8.072 13.038c-.056 0-.101.043-.101.096 0 .052.045.095.101.095.056 0 .102-.043.102-.095 0-.053-.046-.096-.102-.096zM4.185 12.313c-.007 0-.012.005-.012.01 0 .007.005.012.012.012.006 0 .012-.005.012-.011 0-.006-.006-.011-.012-.011zM5.484 13.46c-.046 0-.084.035-.084.078s.038.078.084.078c.046 0 .084-.035.084-.078s-.038-.079-.084-.079zM6.346 13.426c-.066 0-.12.05-.12.112s.054.112.12.112.12-.05.12-.112-.054-.112-.12-.112zM7.209 13.448c-.053 0-.096.04-.096.09 0 .05.043.09.096.09.053 0 .095-.04.095-.09 0-.05-.042-.09-.095-.09zM8.072 13.516c-.013 0-.024.01-.024.022 0 .012.01.022.024.022.013 0 .024-.01.024-.022 0-.012-.011-.022-.024-.022zM5.915 13.884c-.03 0-.054.023-.054.05 0 .028.024.05.054.05s.054-.022.054-.05c0-.027-.024-.05-.054-.05zM6.778 13.895c-.023 0-.042.018-.042.04 0 .02.019.038.042.038.023 0 .042-.017.042-.039 0-.021-.019-.039-.042-.039zM5.052 13.918c-.01 0-.018.007-.018.016 0 .01.008.017.018.017.01 0 .018-.007.018-.017 0-.009-.008-.016-.018-.016zM8.935 13.117a.017.017 0 00-.018.017c0 .009.008.017.018.017.01 0 .018-.008.018-.017 0-.01-.008-.017-.018-.017z" fill="#0041FF"/><path d="M4.403 12.92c-.007 0-.012.005-.012.011 0 .006.005.01.012.01.006 0 .012-.004.012-.01s-.006-.01-.012-.01zM6.14 4.047c.013 0 .025-.01.025-.023S6.153 4 6.139 4c-.014 0-.025.01-.025.024 0 .013.011.023.025.023zM9.148 5.263c.014 0 .025-.01.025-.024 0-.013-.01-.023-.025-.023-.014 0-.025.01-.025.023s.011.024.025.024zM5.265 4.476c.028 0 .05-.021.05-.047s-.022-.047-.05-.047c-.028 0-.05.02-.05.047 0 .026.022.047.05.047zM6.128 4.476c.028 0 .05-.021.05-.047s-.022-.047-.05-.047c-.027 0-.05.02-.05.047 0 .026.023.047.05.047zM6.99 4.452c.015 0 .026-.01.026-.023s-.011-.024-.025-.024c-.014 0-.025.01-.025.024 0 .013.011.023.025.023zM4.402 4.862c.017 0 .03-.012.03-.028 0-.015-.013-.027-.03-.027-.016 0-.029.012-.029.027 0 .016.013.028.03.028zM5.265 4.92c.051 0 .092-.038.092-.086 0-.048-.041-.086-.092-.086-.05 0-.092.038-.092.086 0 .048.041.086.092.086zM6.128 4.937c.06 0 .109-.046.109-.103 0-.056-.05-.102-.11-.102s-.108.046-.108.102c0 .057.048.103.109.103zM6.991 4.913c.046 0 .084-.035.084-.079 0-.043-.038-.078-.084-.078-.046 0-.084.035-.084.078 0 .044.038.079.084.079zM7.853 4.873c.024 0 .042-.017.042-.039 0-.021-.018-.04-.042-.04-.023 0-.041.019-.041.04 0 .022.018.04.041.04zM6.57 4.04c.01 0 .017-.007.017-.016 0-.008-.007-.015-.017-.015-.009 0-.016.007-.016.015 0 .01.007.016.016.016zM4.403 5.282c.025 0 .046-.02.046-.043 0-.024-.021-.043-.046-.043-.026 0-.047.02-.047.043 0 .024.021.043.047.043zM5.265 5.369c.077 0 .139-.058.139-.13 0-.072-.062-.13-.139-.13-.076 0-.138.058-.138.13 0 .072.062.13.138.13zM6.127 5.392c.09 0 .164-.068.164-.153 0-.085-.073-.154-.164-.154-.09 0-.163.07-.163.154 0 .085.073.153.163.153zM6.99 5.369c.077 0 .14-.058.14-.13 0-.072-.063-.13-.14-.13-.076 0-.137.058-.137.13 0 .072.061.13.138.13zM7.853 5.33c.053 0 .097-.041.097-.09 0-.05-.044-.091-.097-.091-.053 0-.096.04-.096.09 0 .05.043.09.096.09zM8.716 5.286c.028 0 .05-.021.05-.047s-.022-.047-.05-.047c-.027 0-.05.021-.05.047s.023.047.05.047zM4.402 5.695c.03 0 .055-.023.055-.051 0-.028-.025-.051-.055-.051s-.054.023-.054.05c0 .029.024.052.054.052zM5.265 5.801c.093 0 .168-.07.168-.157s-.075-.158-.168-.158c-.092 0-.167.07-.167.158 0 .087.075.157.167.157zM6.128 5.845c.118 0 .214-.09.214-.201 0-.111-.096-.2-.214-.2s-.214.089-.214.2c0 .11.096.2.214.2zM6.99 5.82c.105 0 .189-.078.189-.176 0-.098-.084-.177-.189-.177-.104 0-.188.08-.188.177 0 .098.084.177.188.177zM7.854 5.782c.08 0 .146-.062.146-.138 0-.076-.065-.138-.146-.138-.081 0-.147.062-.147.138 0 .076.066.138.147.138zM8.716 5.738c.055 0 .1-.042.1-.094s-.045-.094-.1-.094c-.056 0-.1.042-.1.094s.044.094.1.094zM9.58 5.687c.025 0 .045-.02.045-.043 0-.024-.02-.043-.046-.043-.025 0-.046.019-.046.043 0 .024.02.043.046.043zM4.402 6.104c.033 0 .06-.025.06-.055s-.027-.055-.06-.055c-.032 0-.058.024-.058.055 0 .03.026.055.058.055zM5.265 6.23c.107 0 .193-.081.193-.181 0-.1-.086-.181-.193-.181-.106 0-.193.08-.193.18 0 .1.087.182.193.182zM6.128 6.25c.118 0 .214-.09.214-.201 0-.111-.096-.2-.214-.2s-.214.089-.214.2c0 .11.096.2.214.2zM6.99 6.25c.118 0 .214-.09.214-.201 0-.111-.096-.2-.214-.2s-.214.089-.214.2c0 .11.096.2.214.2zM7.853 6.23c.106 0 .193-.081.193-.181 0-.1-.087-.181-.193-.181-.107 0-.193.08-.193.18 0 .1.086.182.193.182zM8.716 6.187c.081 0 .147-.062.147-.138 0-.076-.066-.138-.147-.138-.081 0-.147.062-.147.138 0 .076.066.138.147.138zM9.579 6.14c.053 0 .096-.041.096-.091 0-.05-.043-.09-.096-.09-.053 0-.097.04-.097.09 0 .05.044.09.097.09zM10.442 6.084c.02 0 .038-.015.038-.035 0-.02-.017-.035-.038-.035-.02 0-.038.015-.038.035 0 .02.017.035.038.035zM4.834 6.564c.065 0 .118-.05.118-.11 0-.061-.053-.11-.118-.11s-.117.049-.117.11c0 .06.052.11.117.11zM5.696 6.654c.118 0 .214-.09.214-.2 0-.111-.096-.201-.214-.201s-.214.09-.214.2c0 .111.096.201.214.201zM6.56 6.654c.118 0 .213-.09.213-.2 0-.111-.095-.201-.214-.201-.118 0-.213.09-.213.2 0 .111.095.201.213.201zM7.422 6.654c.118 0 .213-.09.213-.2 0-.111-.095-.201-.213-.201s-.214.09-.214.2c0 .111.096.201.214.201zM8.285 6.65c.115 0 .21-.088.21-.196 0-.109-.095-.197-.21-.197-.116 0-.21.088-.21.197 0 .108.094.196.21.196zM9.148 6.607c.09 0 .163-.068.163-.153 0-.085-.073-.154-.163-.154-.09 0-.164.069-.164.154 0 .085.074.153.164.153zM10.01 6.56c.063 0 .114-.048.114-.106 0-.059-.05-.107-.113-.107s-.114.048-.114.107c0 .058.051.106.114.106zM10.873 6.505c.03 0 .054-.023.054-.051 0-.029-.024-.051-.054-.051s-.055.022-.055.05c0 .029.025.052.055.052zM4.402 6.921c.037 0 .067-.028.067-.063 0-.034-.03-.063-.067-.063-.037 0-.067.029-.067.063 0 .035.03.063.067.063zM5.265 7.043c.11 0 .197-.083.197-.185s-.088-.185-.197-.185c-.108 0-.197.083-.197.185s.089.185.197.185zM6.128 7.06c.118 0 .214-.09.214-.202 0-.11-.096-.2-.214-.2s-.214.09-.214.2c0 .111.096.201.214.201zM6.99 7.06c.118 0 .214-.09.214-.202 0-.11-.096-.2-.214-.2s-.214.09-.214.2c0 .111.096.201.214.201zM7.853 7.06c.118 0 .214-.09.214-.202 0-.11-.096-.2-.214-.2s-.213.09-.213.2c0 .111.095.201.213.201zM8.716 7.06c.118 0 .213-.09.213-.202 0-.11-.095-.2-.213-.2s-.214.09-.214.2c0 .111.096.201.214.201zM9.579 7.028c.1 0 .18-.076.18-.17 0-.093-.08-.169-.18-.169-.1 0-.18.076-.18.17 0 .093.08.169.18.169zM10.441 6.977c.07 0 .126-.053.126-.118 0-.066-.056-.119-.126-.119s-.126.053-.126.119c0 .065.057.118.126.118zM11.304 6.917c.035 0 .063-.026.063-.059 0-.032-.028-.058-.063-.058s-.063.026-.063.058c0 .033.028.06.063.06zM4.402 7.326c.037 0 .067-.028.067-.062 0-.035-.03-.063-.067-.063-.037 0-.067.028-.067.063 0 .034.03.062.067.062zM5.265 7.444c.107 0 .193-.08.193-.18 0-.1-.086-.182-.193-.182-.106 0-.193.081-.193.181 0 .1.087.181.193.181zM6.128 7.464c.118 0 .214-.09.214-.2 0-.112-.096-.202-.214-.202s-.214.09-.214.201c0 .111.096.2.214.2zM6.99 7.464c.118 0 .214-.09.214-.2 0-.112-.096-.202-.214-.202s-.214.09-.214.201c0 .111.096.2.214.2zM7.853 7.464c.118 0 .214-.09.214-.2 0-.112-.096-.202-.214-.202s-.213.09-.213.201c0 .111.095.2.213.2zM8.716 7.464c.118 0 .213-.09.213-.2 0-.112-.095-.202-.213-.202s-.214.09-.214.201c0 .111.096.2.214.2zM9.579 7.464c.118 0 .214-.09.214-.2 0-.112-.096-.202-.214-.202s-.214.09-.214.201c0 .111.096.2.214.2zM10.442 7.417c.09 0 .163-.069.163-.154 0-.084-.073-.153-.163-.153-.09 0-.164.069-.164.153 0 .085.073.154.164.154zM11.305 7.358c.055 0 .1-.043.1-.095 0-.052-.045-.094-.1-.094-.056 0-.1.042-.1.094s.044.095.1.095zM12.167 7.29c.016 0 .03-.011.03-.027 0-.015-.014-.027-.03-.027s-.03.012-.03.027c0 .016.014.028.03.028zM4.833 7.782c.068 0 .122-.05.122-.114 0-.063-.054-.114-.122-.114-.067 0-.121.051-.121.114s.054.114.121.114zM5.696 7.869c.118 0 .214-.09.214-.201 0-.11-.096-.2-.214-.2s-.214.09-.214.2c0 .11.096.2.214.2zM6.56 7.869c.118 0 .213-.09.213-.201 0-.11-.095-.2-.214-.2-.118 0-.213.09-.213.2 0 .11.095.2.213.2zM7.422 7.869c.118 0 .213-.09.213-.201 0-.11-.095-.2-.213-.2s-.214.09-.214.2c0 .11.096.2.214.2zM8.285 7.869c.118 0 .214-.09.214-.201 0-.11-.096-.2-.214-.2s-.214.09-.214.2c0 .11.096.2.214.2zM9.147 7.869c.118 0 .214-.09.214-.201 0-.11-.096-.2-.214-.2s-.213.09-.213.2c0 .11.095.2.213.2zM10.01 7.869c.118 0 .213-.09.213-.201 0-.11-.095-.2-.213-.2s-.214.09-.214.2c0 .11.096.2.214.2zM10.876 7.834c.093 0 .168-.071.168-.158 0-.088-.075-.159-.168-.159-.093 0-.169.071-.169.159 0 .087.075.158.169.158zM11.736 7.758c.053 0 .096-.04.096-.09 0-.05-.043-.09-.096-.09-.053 0-.096.04-.096.09 0 .05.043.09.096.09zM12.6 7.688c.01 0 .02-.009.02-.02 0-.01-.01-.02-.02-.02-.012 0-.022.01-.022.02 0 .011.01.02.021.02zM4.833 8.187c.068 0 .122-.05.122-.114 0-.063-.054-.114-.122-.114-.067 0-.121.051-.121.114s.054.114.121.114zM5.696 8.274c.118 0 .214-.09.214-.201 0-.11-.096-.2-.214-.2s-.214.09-.214.2c0 .11.096.2.214.2zM6.56 8.274c.118 0 .213-.09.213-.201 0-.11-.095-.2-.214-.2-.118 0-.213.09-.213.2 0 .11.095.2.213.2zM7.422 8.274c.118 0 .213-.09.213-.201 0-.11-.095-.2-.213-.2s-.214.09-.214.2c0 .11.096.2.214.2zM8.285 8.274c.118 0 .214-.09.214-.201 0-.11-.096-.2-.214-.2s-.214.09-.214.2c0 .11.096.2.214.2zM9.147 8.274c.118 0 .214-.09.214-.201 0-.11-.096-.2-.214-.2s-.213.09-.213.2c0 .11.095.2.213.2zM10.01 8.274c.118 0 .213-.09.213-.201 0-.11-.095-.2-.213-.2s-.214.09-.214.2c0 .11.096.2.214.2zM10.873 8.248c.103 0 .187-.078.187-.175 0-.097-.084-.176-.187-.176s-.186.079-.186.176c0 .097.083.175.186.175zM11.736 8.175c.06 0 .109-.045.109-.102 0-.057-.049-.102-.109-.102s-.109.045-.109.102c0 .057.049.102.109.102zM12.598 8.108c.021 0 .038-.016.038-.035 0-.02-.017-.035-.038-.035-.02 0-.038.015-.038.035 0 .02.017.035.038.035zM4.834 8.588c.065 0 .118-.05.118-.11 0-.061-.053-.11-.118-.11s-.117.049-.117.11c0 .06.052.11.117.11zM5.696 8.679c.118 0 .214-.09.214-.201 0-.111-.096-.2-.214-.2s-.214.089-.214.2c0 .11.096.2.214.2zM6.56 8.679c.118 0 .213-.09.213-.201 0-.111-.095-.2-.214-.2-.118 0-.213.089-.213.2 0 .11.095.2.213.2zM7.422 8.679c.118 0 .213-.09.213-.201 0-.111-.095-.2-.213-.2s-.214.089-.214.2c0 .11.096.2.214.2zM8.285 8.679c.118 0 .214-.09.214-.201 0-.111-.096-.2-.214-.2s-.214.089-.214.2c0 .11.096.2.214.2zM9.147 8.679c.118 0 .214-.09.214-.201 0-.111-.096-.2-.214-.2s-.213.089-.213.2c0 .11.095.2.213.2zM10.01 8.679c.118 0 .213-.09.213-.201 0-.111-.095-.2-.213-.2s-.214.089-.214.2c0 .11.096.2.214.2zM10.873 8.667c.111 0 .201-.085.201-.189s-.09-.189-.2-.189c-.112 0-.202.085-.202.189s.09.189.201.189zM11.736 8.596c.07 0 .126-.053.126-.118s-.056-.118-.126-.118-.126.053-.126.118.057.118.126.118zM12.599 8.521c.025 0 .046-.02.046-.043 0-.024-.02-.043-.046-.043s-.046.019-.046.043c0 .024.02.043.046.043zM4.834 8.989c.062 0 .113-.048.113-.106 0-.06-.05-.107-.113-.107s-.113.048-.113.107c0 .058.05.106.113.106zM5.696 9.084c.118 0 .214-.09.214-.201 0-.111-.096-.2-.214-.2s-.214.089-.214.2c0 .11.096.2.214.2zM6.56 9.084c.118 0 .213-.09.213-.201 0-.111-.095-.2-.214-.2-.118 0-.213.089-.213.2 0 .11.095.2.213.2zM7.422 9.084c.118 0 .213-.09.213-.201 0-.111-.095-.2-.213-.2s-.214.089-.214.2c0 .11.096.2.214.2zM8.285 9.084c.118 0 .214-.09.214-.201 0-.111-.096-.2-.214-.2s-.214.089-.214.2c0 .11.096.2.214.2zM9.147 9.084c.118 0 .214-.09.214-.201 0-.111-.096-.2-.214-.2s-.213.089-.213.2c0 .11.095.2.213.2zM10.01 9.084c.118 0 .213-.09.213-.201 0-.111-.095-.2-.213-.2s-.214.089-.214.2c0 .11.096.2.214.2zM10.873 9.084c.118 0 .214-.09.214-.201 0-.111-.096-.2-.214-.2s-.214.089-.214.2c0 .11.096.2.214.2zM11.736 9.017c.079 0 .143-.06.143-.134 0-.074-.064-.134-.143-.134-.079 0-.142.06-.142.134 0 .074.064.134.142.134zM12.599 8.926c.025 0 .046-.02.046-.043 0-.024-.02-.043-.046-.043s-.046.019-.046.043c0 .024.02.043.046.043zM4.834 9.39c.06 0 .109-.046.109-.102 0-.057-.05-.103-.11-.103s-.108.046-.108.103c0 .056.048.102.109.102zM5.697 9.484c.116 0 .21-.088.21-.196 0-.11-.094-.197-.21-.197-.116 0-.21.088-.21.197 0 .108.094.196.21.196zM6.56 9.488c.118 0 .213-.09.213-.2 0-.111-.095-.201-.214-.201-.118 0-.213.09-.213.2 0 .111.095.201.213.201zM7.422 9.488c.118 0 .213-.09.213-.2 0-.111-.095-.201-.213-.201s-.214.09-.214.2c0 .111.096.201.214.201zM8.285 9.488c.118 0 .214-.09.214-.2 0-.111-.096-.201-.214-.201s-.214.09-.214.2c0 .111.096.201.214.201zM9.147 9.488c.118 0 .214-.09.214-.2 0-.111-.096-.201-.214-.201s-.213.09-.213.2c0 .111.095.201.213.201zM10.01 9.488c.118 0 .213-.09.213-.2 0-.111-.095-.201-.213-.201s-.214.09-.214.2c0 .111.096.201.214.201zM10.873 9.488c.118 0 .214-.09.214-.2 0-.111-.096-.201-.214-.201s-.214.09-.214.2c0 .111.096.201.214.201zM11.73 9.42c.075 0 .135-.056.135-.126s-.06-.128-.135-.128c-.075 0-.135.057-.135.128 0 .07.06.127.135.127zM12.598 9.323c.021 0 .038-.016.038-.035 0-.02-.017-.036-.038-.036-.02 0-.038.016-.038.036 0 .02.017.035.038.035zM4.834 9.79c.058 0 .105-.043.105-.098 0-.054-.047-.098-.105-.098-.058 0-.105.044-.105.098 0 .055.047.099.105.099zM5.697 9.873c.106 0 .192-.08.192-.18 0-.1-.086-.182-.192-.182-.107 0-.193.081-.193.181 0 .1.086.181.193.181zM6.56 9.893c.118 0 .213-.09.213-.2 0-.111-.095-.201-.214-.201-.118 0-.213.09-.213.2 0 .111.095.201.213.201zM7.422 9.893c.118 0 .213-.09.213-.2 0-.111-.095-.201-.213-.201s-.214.09-.214.2c0 .111.096.201.214.201zM8.285 9.893c.118 0 .214-.09.214-.2 0-.111-.096-.201-.214-.201s-.214.09-.214.2c0 .111.096.201.214.201zM9.147 9.893c.118 0 .214-.09.214-.2 0-.111-.096-.201-.214-.201s-.213.09-.213.2c0 .111.095.201.213.201zM10.01 9.893c.118 0 .213-.09.213-.2 0-.111-.095-.201-.213-.201s-.214.09-.214.2c0 .111.096.201.214.201zM10.873 9.893c.118 0 .214-.09.214-.2 0-.111-.096-.201-.214-.201s-.214.09-.214.2c0 .111.096.201.214.201zM11.736 9.813c.07 0 .127-.054.127-.12 0-.067-.057-.12-.127-.12-.071 0-.129.053-.129.12 0 .066.058.12.129.12zM12.598 9.716c.014 0 .025-.01.025-.024 0-.013-.01-.023-.025-.023-.014 0-.025.01-.025.023 0 .014.011.024.025.024zM4.834 10.188c.053 0 .096-.04.096-.09 0-.05-.043-.091-.096-.091-.054 0-.097.04-.097.09 0 .05.043.09.097.09zM5.697 10.266c.1 0 .18-.075.18-.169 0-.093-.08-.169-.18-.169-.1 0-.18.076-.18.17 0 .093.08.168.18.168zM6.56 10.298c.118 0 .213-.09.213-.2 0-.112-.095-.202-.214-.202-.118 0-.213.09-.213.201 0 .111.095.2.213.2zM7.422 10.298c.118 0 .213-.09.213-.2 0-.112-.095-.202-.213-.202s-.214.09-.214.201c0 .111.096.2.214.2zM8.285 10.298c.118 0 .214-.09.214-.2 0-.112-.096-.202-.214-.202s-.214.09-.214.201c0 .111.096.2.214.2zM9.147 10.298c.118 0 .214-.09.214-.2 0-.112-.096-.202-.214-.202s-.213.09-.213.201c0 .111.095.2.213.2zM10.01 10.298c.118 0 .213-.09.213-.2 0-.112-.095-.202-.213-.202s-.214.09-.214.201c0 .111.096.2.214.2zM10.873 10.298c.118 0 .214-.09.214-.2 0-.112-.096-.202-.214-.202s-.214.09-.214.201c0 .111.096.2.214.2zM11.735 10.19c.055 0 .1-.041.1-.093 0-.051-.045-.093-.1-.093-.055 0-.1.042-.1.093 0 .052.045.094.1.094zM4.402 10.553c.03 0 .055-.023.055-.05 0-.029-.025-.052-.055-.052s-.054.023-.054.051c0 .028.024.051.054.051zM5.265 10.613c.065 0 .117-.05.117-.11 0-.062-.052-.11-.117-.11s-.118.048-.118.11c0 .06.053.11.118.11zM6.128 10.699c.115 0 .21-.088.21-.197 0-.109-.095-.197-.21-.197-.116 0-.21.088-.21.197 0 .109.094.197.21.197zM6.99 10.703c.118 0 .214-.09.214-.201 0-.11-.096-.2-.214-.2s-.214.09-.214.2c0 .11.096.2.214.2zM7.853 10.703c.118 0 .214-.09.214-.201 0-.11-.096-.2-.214-.2s-.213.09-.213.2c0 .11.095.2.213.2zM8.716 10.703c.118 0 .213-.09.213-.201 0-.11-.095-.2-.213-.2s-.214.09-.214.2c0 .11.096.2.214.2zM9.579 10.703c.118 0 .214-.09.214-.201 0-.11-.096-.2-.214-.2s-.214.09-.214.2c0 .11.096.2.214.2zM10.441 10.703c.118 0 .214-.09.214-.201 0-.11-.096-.2-.214-.2s-.214.09-.214.2c0 .11.096.2.214.2zM11.304 10.628c.074 0 .134-.056.134-.126s-.06-.126-.134-.126c-.074 0-.134.057-.134.126 0 .07.06.126.134.126zM12.167 10.522c.012 0 .021-.009.021-.02 0-.01-.009-.02-.02-.02-.012 0-.021.01-.021.02 0 .011.009.02.02.02zM4.834 10.982c.044 0 .08-.034.08-.075 0-.041-.036-.075-.08-.075-.044 0-.08.034-.08.075 0 .041.036.075.08.075zM5.697 11.049c.083 0 .15-.064.15-.142 0-.078-.067-.142-.15-.142-.084 0-.151.064-.151.142 0 .078.067.142.15.142zM6.56 11.107c.118 0 .213-.09.213-.2 0-.111-.095-.2-.214-.2-.118 0-.213.089-.213.2 0 .11.095.2.213.2zM7.422 11.107c.118 0 .213-.09.213-.2 0-.111-.095-.2-.213-.2s-.214.089-.214.2c0 .11.096.2.214.2zM8.285 11.107c.118 0 .214-.09.214-.2 0-.111-.096-.2-.214-.2s-.214.089-.214.2c0 .11.096.2.214.2zM9.147 11.107c.118 0 .214-.09.214-.2 0-.111-.096-.2-.214-.2s-.213.089-.213.2c0 .11.095.2.213.2zM10.01 11.1c.114 0 .205-.087.205-.193 0-.107-.091-.193-.205-.193-.113 0-.205.086-.205.193 0 .106.092.193.205.193zM10.873 11.033c.074 0 .135-.056.135-.126s-.06-.126-.135-.126c-.074 0-.134.056-.134.126s.06.126.134.126zM11.736 10.934c.017 0 .03-.012.03-.027s-.013-.028-.03-.028c-.016 0-.029.013-.029.028 0 .015.013.027.03.027zM4.834 11.379c.04 0 .071-.03.071-.067 0-.037-.032-.067-.071-.067-.04 0-.071.03-.071.067 0 .037.032.067.07.067zM5.697 11.442c.076 0 .138-.058.138-.13 0-.072-.062-.13-.138-.13-.076 0-.138.058-.138.13 0 .072.062.13.138.13zM6.56 11.5c.11 0 .2-.084.2-.188 0-.105-.09-.19-.2-.19-.112 0-.202.085-.202.19 0 .104.09.189.202.189zM7.422 11.512c.118 0 .213-.09.213-.2 0-.111-.095-.2-.213-.2s-.214.089-.214.2c0 .11.096.2.214.2zM8.285 11.512c.118 0 .214-.09.214-.2 0-.111-.096-.2-.214-.2s-.214.089-.214.2c0 .11.096.2.214.2zM9.147 11.512c.118 0 .214-.09.214-.2 0-.111-.096-.2-.214-.2s-.213.089-.213.2c0 .11.095.2.213.2zM10.01 11.457c.086 0 .156-.065.156-.145 0-.08-.07-.146-.155-.146-.086 0-.156.065-.156.146 0 .08.07.146.155.146zM10.873 11.39c.046 0 .084-.035.084-.078s-.038-.079-.084-.079c-.046 0-.084.036-.084.079 0 .043.038.079.084.079zM4.402 11.752c.02 0 .038-.016.038-.035 0-.02-.017-.036-.038-.036-.02 0-.038.016-.038.036 0 .02.017.035.038.035zM5.265 11.803c.051 0 .092-.039.092-.086 0-.048-.041-.087-.092-.087-.05 0-.092.039-.092.087 0 .047.041.086.092.086zM6.128 11.854c.081 0 .147-.061.147-.137 0-.076-.066-.138-.147-.138-.08 0-.147.062-.147.138 0 .076.066.137.147.137zM6.99 11.902c.11 0 .198-.083.198-.185s-.088-.185-.197-.185c-.109 0-.197.083-.197.185s.088.185.197.185zM7.853 11.917c.118 0 .214-.09.214-.2 0-.111-.096-.201-.214-.201s-.213.09-.213.2c0 .111.095.201.213.201zM8.716 11.906c.11 0 .201-.085.201-.19 0-.104-.09-.188-.201-.188-.111 0-.201.084-.201.189 0 .104.09.189.2.189zM9.579 11.847c.076 0 .138-.058.138-.13 0-.072-.062-.13-.138-.13-.077 0-.139.058-.139.13 0 .072.062.13.139.13zM10.442 11.78c.037 0 .067-.029.067-.063 0-.035-.03-.063-.067-.063-.037 0-.067.028-.067.063 0 .034.03.063.067.063zM4.402 12.145c.014 0 .025-.01.025-.023s-.011-.024-.025-.024c-.014 0-.025.01-.025.024 0 .013.011.023.025.023zM5.265 12.195c.043 0 .078-.033.078-.074 0-.04-.035-.073-.078-.073s-.078.033-.078.073c0 .041.035.074.078.074zM6.128 12.24c.07 0 .125-.053.125-.119 0-.065-.056-.118-.125-.118-.07 0-.126.053-.126.118 0 .066.056.118.126.118zM6.99 12.275c.09 0 .164-.069.164-.154 0-.084-.073-.153-.163-.153-.09 0-.164.069-.164.153 0 .085.073.154.164.154zM7.853 12.283c.095 0 .172-.073.172-.162 0-.089-.077-.161-.172-.161-.094 0-.171.072-.171.161 0 .09.077.162.171.162zM8.716 12.26c.081 0 .147-.062.147-.138 0-.076-.066-.138-.147-.138-.081 0-.147.062-.147.138 0 .076.066.137.147.137zM9.579 12.2c.046 0 .084-.035.084-.078 0-.044-.038-.079-.084-.079-.046 0-.084.035-.084.079 0 .043.038.078.084.078zM4.402 12.542c.01 0 .017-.007.017-.016 0-.008-.007-.015-.017-.015-.009 0-.016.007-.016.015 0 .01.007.016.016.016zM5.266 12.582c.032 0 .058-.025.058-.056 0-.03-.026-.055-.058-.055-.033 0-.059.025-.059.055s.026.056.059.056zM6.128 12.62c.056 0 .1-.041.1-.093 0-.053-.044-.095-.1-.095-.056 0-.1.042-.1.095 0 .052.044.094.1.094zM6.99 12.644c.07 0 .127-.053.127-.118s-.057-.118-.126-.118c-.07 0-.126.053-.126.118s.056.118.126.118zM7.854 12.648c.071 0 .13-.054.13-.122 0-.067-.059-.122-.13-.122-.072 0-.13.055-.13.122 0 .068.058.122.13.122zM8.716 12.613c.051 0 .092-.039.092-.087 0-.047-.04-.086-.092-.086-.05 0-.092.039-.092.086 0 .048.041.087.092.087zM9.58 12.546c.011 0 .02-.009.02-.02 0-.01-.009-.02-.02-.02-.012 0-.021.01-.021.02 0 .011.009.02.02.02zM5.266 12.97c.023 0 .041-.017.041-.039 0-.021-.018-.039-.041-.039-.024 0-.042.018-.042.04 0 .021.018.039.042.039zM6.128 13.002c.041 0 .075-.032.075-.07 0-.04-.034-.07-.075-.07-.042 0-.075.03-.075.07 0 .038.033.07.075.07zM6.99 13.018c.052 0 .093-.04.093-.087 0-.048-.041-.086-.092-.086s-.093.038-.093.086c0 .048.042.087.093.087zM7.853 13.014c.049 0 .088-.037.088-.083 0-.045-.04-.083-.088-.083-.049 0-.088.037-.088.083 0 .046.04.083.088.083zM8.285 12.99c.034 0 .062-.026.062-.059 0-.032-.028-.059-.062-.059-.035 0-.063.027-.063.06 0 .032.028.058.063.058zM5.266 13.352c.01 0 .017-.007.017-.016 0-.008-.008-.015-.017-.015-.01 0-.017.007-.017.015 0 .009.008.016.017.016zM6.128 13.375c.023 0 .042-.017.042-.039 0-.021-.019-.04-.042-.04-.023 0-.042.019-.042.04 0 .022.019.04.042.04zM6.99 13.383c.029 0 .051-.02.051-.047 0-.026-.022-.047-.05-.047-.028 0-.05.021-.05.047s.022.047.05.047zM7.853 13.36c.014 0 .025-.01.025-.024 0-.013-.01-.024-.025-.024-.014 0-.025.011-.025.024 0 .013.011.024.025.024z" fill="#00C8FF"/><defs><linearGradient id="paint0_linear" x1="3.349" y1="3.122" x2="21.904" y2="24.434" gradientUnits="userSpaceOnUse"><stop stop-color="#1A1E21"/><stop offset="1" stop-color="#06060A"/></linearGradient></defs></svg>