<!-- by TradingView --><svg width="18" height="18" viewBox="0 0 18 18" fill="none" xmlns="http://www.w3.org/2000/svg">
<rect width="18" height="18" fill="#F0F3FA"/>
<path fill-rule="evenodd" clip-rule="evenodd" d="M9.51561 4C9.68806 4 9.94041 3.786 10.3594 3.53125C10.7755 3.2782 11.3572 3.00003 11.8672 3.00003C11.9258 3.00003 12.0023 3.00003 12.0023 3.10312C12.0023 3.20474 11.5939 3.38992 11.2344 3.625C10.9067 3.83921 10.5312 4.14062 10.5312 4.14062C10.8281 4.35938 12.274 5.29688 13.2812 5.29688C14.1094 5.29688 14.7476 4.9775 14.9513 4.9775C14.9838 4.9775 15 5.00781 15 5.0408C15 5.24206 14.164 6 12.9797 6C11.2812 6 10.0781 5 10.0781 5C9.82031 5.28125 9.54231 6.32708 9.875 6.32812C10.1172 6.32889 10.3594 6 10.6406 6C10.8206 6 10.9997 6.0503 10.9997 6.19508C10.9997 6.33985 10.7376 6.40808 10.6406 6.4336C10.0781 6.58166 9 8.15625 9 9.5C9 10.4531 9.41071 11.2992 10.3906 11.8438C11.7119 12.5779 11.8691 12.3125 12.9797 12.3125C13.773 12.3125 15 12.7222 15 13.1111C15 13.5882 14.6094 13 13.4533 13C12.7969 13 12.0312 13.9375 8.98438 13C8.4375 13 7.6595 14.1374 7.45312 14.3438C7.19487 14.602 6.65082 15 5.8265 15C5.79383 15 5.76696 14.9924 5.76923 14.9774C5.76923 14.9271 5.86288 14.8802 5.97476 14.7833C6.3303 14.4753 7.23828 13.8897 7.23828 13C7.23828 12.3108 6.21981 11.4 5.8265 10.5312C5.0625 8.84375 5.1364 8.05898 4.17186 7.44522C3.20732 6.83147 3 6.71423 3 6.44093C3 6.05483 3.15623 6.00001 3.39061 6.00001C3.76561 6.00001 4.23436 6.15626 4.59373 6.82812C4.678 6.98567 5.04932 7.44522 5.23559 7.44522C5.42186 7.44522 5.34375 4 9.51561 4ZM9.34375 4.8125C9.34375 4.8125 9 5.28125 9 6.67188C9 7.67188 8.54688 8 7.75 8C6.8125 8 6.51757 6.80835 6.99998 6.09375C7.93329 4.71123 9.34375 4.8125 9.34375 4.8125Z" fill="#0093D3"/>
<path d="M8.68735 10.8982C8.76906 10.5357 8.43104 10.3601 8.31746 10.0033C8.19311 9.61264 8.16527 9 7.49364 9C6.76815 9 6.58547 9.84683 6.76315 10.4141C6.91476 10.898 7.53681 11.5 8.03753 11.5C8.16567 11.5015 8.28966 11.4632 8.40153 11.3727C8.58193 11.2268 8.64164 11.1009 8.68735 10.8982Z" fill="#A4E2FF"/>
</svg>
