<!-- by TradingView --><svg xmlns="http://www.w3.org/2000/svg" width="18" height="18"><path fill="url(#avyhdoxlm)" d="M0 0h18v18H0z"/><path d="M10.33 6.02c.1-.28-.12-.51-.42-.52-.18 0-.34.1-.47.24-.24.27-.55.84-.69 1.06-1.21 1.96-1.96 3.8-1.96 3.8-.3-.93-.49-1.96-.57-2.9-.01-.14-.02-.35-.26-.43-.1-.03-.2-.06-.32-.07-.11 0-.24-.04-.34 0-.01.23-.01.4-.1.68-.1.27-.66 1.12-.77 1.3-.54.98-1.15 2.18-1.2 2.25-.08.16-.22.36-.23.52-.01.25.38.36.6.35.19 0 .35-.1.44-.24.05-.24.09-.47.19-.71.44-.93.93-1.83 1.41-2.73.13 1.06.4 2 .52 3.01-.02.4.12.66.53.67.19 0 .31-.13.4-.34.43-1.1 1.56-3.71 2.61-5.07.11-.15.5-.55.63-.87zm2.05 4.78a.84.84 0 01.6-.25c.27 0 .64.26.37.63-.51.73-1.74 1.12-2.52 1.12-1.13 0-1.8-.68-1.83-1.63a4.92 4.92 0 011.1-2.78c1.2-1.68 2.3-2.4 3.09-2.39.78.02 1.11.42 1.11.99 0 .48-.33 1.47-.68 1.95-.18.23-.38.45-.72.43-.46-.03-.49-.43-.28-.78 0 0 .03-.07.5-.74l.05-.1c.14-.23.47-.9-.12-.9-.68-.01-1.89 1.69-2.06 1.92-.67.9-.94 1.74-.93 2.3 0 .35.16.83.77.83.62 0 1.1-.16 1.55-.6z" fill="#fff"/><defs><linearGradient id="avyhdoxlm" x1="3.35" y1="3.12" x2="21.9" y2="24.43" gradientUnits="userSpaceOnUse"><stop stop-color="#1A1E21"/><stop offset="1" stop-color="#06060A"/></linearGradient></defs></svg>