<!-- by TradingView --><svg width="18" height="18" viewBox="0 0 18 18" xmlns="http://www.w3.org/2000/svg"><path fill="#F0F3FA" d="M0 0h18v18H0z"/><path fill-rule="evenodd" d="M9 14c1.08 0 2.08-.34 2.9-.92a.76.76 0 0 0 1.05-.7.76.76 0 0 0-.04-.26 4.98 4.98 0 0 0 .04-6.2.77.77 0 0 0-.76-.86h-.1a4.98 4.98 0 0 0-6.17 0 .77.77 0 0 0-.8.8 4.98 4.98 0 0 0 .02 6.32.76.76 0 0 0 .99.91c.81.57 1.8.91 2.87.91Zm0-.44c-.92 0-1.78-.28-2.5-.75a.76.76 0 0 0 .13-.6 3.98 3.98 0 0 0 4.83-.05.76.76 0 0 0 .09.62c-.73.5-1.6.78-2.55.78ZM5.88 11.6h.1a3.98 3.98 0 0 1-.17-5.03.76.76 0 0 1-.5-.25 4.54 4.54 0 0 0 .08 5.45c.13-.1.3-.17.49-.17Zm.51-6.35a4.54 4.54 0 0 1 5.26.03.76.76 0 0 0-.22.53 3.98 3.98 0 0 0-4.8-.05.76.76 0 0 0-.24-.51ZM13.56 9c0 1.03-.34 1.99-.92 2.75a.76.76 0 0 0-.62-.12 3.98 3.98 0 0 0 .17-5.04c.2 0 .4-.09.53-.22.53.74.84 1.65.84 2.63ZM12 9a3 3 0 1 1-6 0 3 3 0 0 1 6 0Zm-.71 0A2.29 2.29 0 1 1 6.7 9a2.29 2.29 0 0 1 4.58 0ZM10 9a1 1 0 1 1-2 0 1 1 0 0 1 2 0ZM5.88 6.2a.37.37 0 1 0 0-.75.37.37 0 0 0 0 .74Zm6.68-.38a.37.37 0 1 1-.74 0 .37.37 0 0 1 .74 0Zm0 6.55a.37.37 0 1 1-.74 0 .37.37 0 0 1 .74 0Zm-6.31 0a.37.37 0 1 1-.75 0 .37.37 0 0 1 .75 0Z" fill="#02E8E5"/></svg>