<!-- by TradingView --><svg width="18" height="18" xmlns="http://www.w3.org/2000/svg"><path fill="#F0F3FA" d="M0 0h18v18H0z"/><path d="M10.984 6h-.332L9.5 8 8.332 6H8v6h.332L9.5 10.009l1.152 1.99h.332V6z" fill="#6DACDE"/><path d="M8 6H6.416L8 9.005 6.416 12H8V6z" fill="#938647"/><path d="M12.56 6h-1.576v6h1.576l-1.576-2.996L12.56 6z" fill="#6D9A45"/><path d="M14.713 6H12.56l-1.576 3.005 1.576 2.994V10.5h2.584c1.165 0 1.514-1.036 1.514-1.927v-.516c0-1.172-.379-2.057-1.945-2.057zm.369 2.238c0 .355-.107.764-.493.764h-2.03V7.496h1.89c.496 0 .633.23.633.635v.107z" fill="#BFD730"/><path d="M8 9.005L6.413 6l.002 3.63L3.576 6H2v6h1.576V8.25L6.413 12 8 9.005z" fill="#FCB316"/></svg>