<!-- by TradingView --><svg xmlns="http://www.w3.org/2000/svg" width="18" height="18"><path fill="#F0F3FA" d="M0 0h18v18H0z"/><path d="M7.95 13.89a12.77 12.77 0 003.59-2.32 13.18 13.18 0 002.45-2.9L14 9a5 5 0 01-6.05 4.89zm-1.1-.38a5 5 0 116.9-6.05c-.4.85-1.07 1.78-1.94 2.7.12-.36.19-.76.19-1.17 0-1.8-1.34-3.28-3-3.28S6 7.18 6 9s1.34 3.29 3 3.29c.11 0 .23-.01.34-.03a9.83 9.83 0 01-2.5 1.26z" fill="#2C4C95"/><path d="M11.04 11.28c-2.91 2.52-6.3 3.46-7.56 2.1-.68-.73-.61-1.97.04-3.35l.42 1.2c-.24.72-.2 1.33.15 1.71.93 1.01 3.78.02 6.35-2.21 2.58-2.23 3.9-4.86 2.97-5.87-.39-.42-.63-.67-1.52-.45l-1.24-.54c1.66-.62 2.63-.43 3.37.36 1.27 1.37-.07 4.52-2.98 7.05z" fill="url(#atrrakl1i)"/><path d="M11.03 11.26c-1.97 1.72-4.15 2.7-5.75 2.74 0 0 2.72-.73 5.44-3.07C13.3 8.7 14 6.72 14 5.1c0-.7-.5-1.28-.5-1.28.2.1.36.22.5.37 1.27 1.37-.06 4.54-2.97 7.07z" fill="url(#btrrakl1i)"/><defs><linearGradient id="atrrakl1i" x1="13.74" y1="3.98" x2="3.62" y2="13.55" gradientUnits="userSpaceOnUse"><stop stop-color="#89B2DC"/><stop offset="1" stop-color="#319BD2"/></linearGradient><linearGradient id="btrrakl1i" x1="14.48" y1="5" x2="5.85" y2="14.24" gradientUnits="userSpaceOnUse"><stop stop-color="#3194D5"/><stop offset="1" stop-color="#379CD2"/></linearGradient></defs></svg>