<!-- by TradingView --><svg width="18" height="18" viewBox="0 0 18 18" xmlns="http://www.w3.org/2000/svg"><path fill="#F0F3FA" d="M0 0h18v18H0z"/><path d="M14 10.64A3.34 3.34 0 0 1 11.27 12C9.13 12 8 10.66 8 9s1.13-3 3.27-3c1.09 0 2.06.5 2.65 1.25l-.58.37a2.67 2.67 0 0 0-2.07-.87c-1.42 0-2.52.86-2.52 2.25 0 1.4 1.1 2.25 2.52 2.25.87 0 1.64-.33 2.1-.9l.63.3Z" fill="#1C3565"/><path d="M6 6H5v1H4v1h1v2.22c.02.6.1 1.78 1.76 1.78 1.67 0 3.7-1.39 4.42-1.98l-1.43-.29c-.53.33-1.9 1.27-2.64 1.27-.5 0-1.11-.61-1.11-.98V8h1V7H6V6Z" fill="#00AAD4"/><circle cx="11" cy="9" r="1.59" fill="#00AAD4"/><circle cx="11" cy="9" r="1" fill="#9FD4EA"/></svg>