<!-- by TradingView --><svg width="18" height="18" viewBox="0 0 18 18" xmlns="http://www.w3.org/2000/svg"><path fill="#F0F3FA" d="M0 0h18v18H0z"/><path d="M6.68 4c.26 0 .47.12.55.36l1.52 4.38c.07.2.03.44-.05.66l-1.44 4.16c-.16.44-.44.44-.87.44H4.5a.01.01 0 0 1-.01-.02L6.1 9.4c.09-.26.11-.5.03-.73A3100.67 3100.67 0 0 1 4.5 4h2.17ZM9.28 14a4.38 4.38 0 0 0 1.1-1.98c.53-1.47.85-2.4.98-2.8.06-.2 0-.45-.07-.67A33394.2 33394.2 0 0 1 9.72 4h2.15c.26 0 .49.11.57.35l1.5 4.3c.06.18.09.42.03.59l-1.48 4.27c-.12.32-.26.49-.62.49H9.28Z" fill="#38AEC5"/><path d="m10.39 12.02-.02.06c-.21.62-.54 1.47-1.08 1.92-.25 0-.48 0-.59-.2a11604.43 11604.43 0 0 1-.48-.94l.88-2.54c.08-.22.3-.18.4 0l.89 1.7Z" fill="#333"/></svg>