<!-- by TradingView --><svg width="18" height="18" viewBox="0 0 18 18" xmlns="http://www.w3.org/2000/svg"><path fill="url(#a1on0k5vb)" d="M0 0h18v18H0z"/><path d="M3 10.73V7.27c0-.15.13-.27.3-.27h3.98c.1 0 .19.04.24.12l1.43 1.87c.07.09.07.2 0 .3l-1.13 1.59a.3.3 0 0 1-.25.12H6.45c-.21 0-.35-.2-.28-.36l.08-.12.71-1.24a.24.24 0 0 0 .02-.22l-.08-.12-.17-.27a.36.36 0 0 0-.1-.11.32.32 0 0 0-.18-.06H4.8c-.17 0-.3.12-.3.27v1.96c0 .15-.13.27-.3.27h-.9c-.17 0-.3-.12-.3-.27ZM15 7.27v3.46c0 .15-.13.27-.3.27h-3.98a.3.3 0 0 1-.24-.12L9.05 9.01a.25.25 0 0 1 0-.3l1.13-1.59a.3.3 0 0 1 .25-.12h1.12c.21 0 .35.2.28.36l-.08.12-.71 1.24a.24.24 0 0 0-.02.22l.08.12.17.27c.03.04.05.08.1.11.04.04.11.06.18.06h1.65c.17 0 .3-.12.3-.27V7.27c0-.15.13-.27.3-.27h.9c.17 0 .3.12.3.27Z" fill="#fff"/><defs><linearGradient id="a1on0k5vb" x1="3.35" y1="3.12" x2="21.9" y2="24.43" gradientUnits="userSpaceOnUse"><stop stop-color="#1A1E21"/><stop offset="1" stop-color="#06060A"/></linearGradient></defs></svg>