<!-- by TradingView --><svg width="18" height="18" xmlns="http://www.w3.org/2000/svg"><path fill="#423D3E" d="M0 0h18v18H0z"/><path d="M14 4.495a2.76 2.76 0 00-.562.112c-.253.07-.434.142-.543.216-.156.117-.263.34-.32.67-.052.33-.078.75-.078 1.256V14h-.569l-5.62-8.102v5.108c0 .572.027 1.106.093 1.413.07.307.174.526.313.656.1.102.308.198.621.286.314.088.565.135.665.14v.495H4.152v-.495a3.68 3.68 0 00.595-.133c.279-.084.453-.158.523-.223.153-.13.257-.328.314-.593.056-.27.09-.822.09-1.469V6.205c0-.214-.036-.428-.105-.642a1.212 1.212 0 00-.281-.495 1.91 1.91 0 00-.64-.391c-.267-.112-.482-.172-.648-.182V4h3.34l4.523 6.663V6.84c0-.577-.035-1.019-.105-1.326-.07-.311-.17-.518-.3-.62-.123-.09-.323-.175-.602-.259a3.032 3.032 0 00-.627-.14V4H14v.495z" fill="#FDC425"/></svg>