<!-- by TradingView --><svg width="18" height="18" xmlns="http://www.w3.org/2000/svg"><path fill="url(#paint0_linear)" d="M0 0h18v18H0z"/><path d="M11.152 4a.623.623 0 00-.288.08c.382.069.83.115 1.072.426.122.115.084.292-.037.393-.23.243-.622.32-.959.242-1.14-.24-2.218-.708-3.39-.83-.627-.073-1.24.196-1.673.586-.4.358-.545.902-.466 1.393.088.388.41.791.877.849-.276-.268-.329-.733-.042-1.012.161-.18.45-.204.688-.17.908.15 1.793.394 2.698.558.507.123 1.368.357 1.368.357v1.645l-.706.705.706.62v2.463c-.54.372-1.096.31-1.754.24-.698-.034-1.297-.534-1.754-.985L10 10.483V7L6.889 8.069C7.17 7.424 7.745 6.9 8.43 6.59c-.18.01-.367-.002-.534.067-1.282.452-2.34 1.424-2.737 2.61-.266.753-.18 1.576.108 2.313a3.903 3.903 0 001.897 1.958c.492.227 1.023.44 1.587.447 1.17.086 2.56-.33 3.349-1.115.425-.507.518-.76.689-1.176.158-.41.23-.847.213-1.28-.378.67-1.043 1.32-1.73 1.765.004-.78-.002-1.559.002-2.338l.723-.62-.723-.705V6.872c.668-.031 1.437-.346 1.617-.972.125-.408.19-.892-.09-1.262-.258-.262-.592-.49-.985-.553-.217-.017-.447-.094-.665-.084zM8 7.997V11l-.696.31c-.403-.521-.595-.871-.71-1.493a2.95 2.95 0 01.237-1.421L8 7.996z" fill="#fff"/><defs><linearGradient id="paint0_linear" x1="3.349" y1="3.122" x2="21.904" y2="24.434" gradientUnits="userSpaceOnUse"><stop stop-color="#1A1E21"/><stop offset="1" stop-color="#06060A"/></linearGradient></defs></svg>