<!-- by TradingView --><svg width="18" height="18" viewBox="0 0 18 18" xmlns="http://www.w3.org/2000/svg"><path fill="url(#a0bofrstt)" d="M0 0h18v18H0z"/><path fill="url(#b0bofrstt)" d="M0 0h18v18H0z"/><path d="M14 8.9c0 1.63-.72 3.04-1.66 3.9A4.4 4.4 0 0 1 9.3 14c.7-.67 1.7-1.72 1.7-3.1 0-1.1-.66-1.6-1.13-1.9.07-.17.13-.46.13-.66 0-1.67-1.38-2.67-2.95-2.67-.8 0-1.37.25-2.05.74a4.84 4.84 0 0 1 9 2.49Zm-7.2-1a.9.9 0 1 1-1.8 0 .9.9 0 0 1 1.8 0Zm2.22 0a.9.9 0 1 1-1.79 0 .9.9 0 0 1 1.79 0Z" fill="#fff"/><defs><linearGradient id="a0bofrstt" x1="13.5" y1="0" x2="0" y2="14.5" gradientUnits="userSpaceOnUse"><stop offset=".41" stop-color="#FFB0C4"/><stop offset=".62" stop-color="#34F8E5"/></linearGradient><linearGradient id="b0bofrstt" x1="0" y1="-1.75" x2="18" y2="26.75" gradientUnits="userSpaceOnUse"><stop stop-color="#fff" stop-opacity="0"/><stop offset=".59" stop-color="#0B3D7A"/></linearGradient></defs></svg>