<!-- by TradingView --><svg width="18" height="18" viewBox="0 0 18 18" xmlns="http://www.w3.org/2000/svg"><path fill="#F0F3FA" d="M0 0h18v18H0z"/><path d="M4.04 13.73s-.13.12.13.23c.26.1.36 0 .23-.13-.13-.13.57-.93.7-1.03.14-.1 2.48.38 2.84.13.37-.26-.23-.98.13-1.09.37-.1.52.31.76.44.23.13 1.69.67 2.31.05.63-.62-1.77-1.8-1.56-2.11.21-.31 1.15.44 1.22.49.4.23.81.44 1.23.62.36.13.96.28 1.06.18.1-.1 0-.62.13-.73.13-.1.5.13.79-.28.28-.41-1.1-1.34-1.23-1.47a.32.32 0 0 1-.05-.44c.34-.18.73-.28 1.15-.28a.6.6 0 0 0 .62-.54v-.08c0-.36-.5-.62-.62-.98-.13-.36.72-.72.36-1.21-.36-.5-1.35.13-1.59 0-.23-.13-.15-.93-.65-.93-.86 0-1.22 2.19-1.72 2.19-.39 0-.46-1.75-.57-2.12-.1-.36-.26-.64-.75-.64-.5 0-.5.62-.63.72-.13.1-.23 0-.62.13-.4.13-.52 1.03-.4 1.4.14.36 1.02 1.77.53 2.14-.5.36-1.49-2.33-2.34-1.97-.86.37.13 2.69.23 2.92.1.23-.13.36-.36.23-.26-.13-.55-.2-.86-.23-.24 0-.37.13-.5.49s.83 2.84.83 2.84l-.8 1.06Zm1.2-1.3c-.1-.1 2.7-2.78 3.7-3.5.98-.72 4.15-2.92 4.28-2.81.13.1-2.94 2.06-4.03 2.91-1.1.85-3.82 3.53-3.95 3.4Z" fill="#008265"/></svg>