<!-- by TradingView --><svg width="18" height="18" viewBox="0 0 18 18" xmlns="http://www.w3.org/2000/svg"><path fill="#F0F3FA" d="M0 0h18v18H0z"/><path d="M12.75 8a1.25 1.25 0 1 0 0-2.5 1.25 1.25 0 0 0 0 2.5Z" fill="#76BC20"/><path d="M12.94 11.98A4.94 4.94 0 0 1 9.06 14 5.02 5.02 0 0 1 4 9.01C4 6 6.75 4 9 4c.45 0 .9.04 1.36.16C8.18 4.38 6 5.98 6 8.58c0 2.77 2.08 4.02 4.35 4.02.8 0 1.86-.17 2.58-.62Z" fill="#183E83"/><path d="M4 4c1.16 3 3.35 3.57 6 4.22 2.65.65 4 2.56 4 4.78-.75-1.45-2.67-2.92-4.4-3.44C7.71 9 4 9 4 4Z" fill="#76BC20"/></svg>