<!-- by TradingView --><svg xmlns="http://www.w3.org/2000/svg" width="18" height="18" viewBox="0 0 18 18"><path fill="url(#acjh2lgqy)" d="M0 0h18v18H0z"/><path d="M5.97 6.37c1.26 0 2.29 1.06 2.29 2.77 0 2.22-1.28 2.48-1.82 2.48C4.95 11.62 4 10.35 4 8.76c0-1.9 1.08-2.4 1.97-2.4ZM6.19 6C3.87 6 3 7.7 3 9c0 1.35.9 3 3.11 3 1.96 0 3.2-1.39 3.2-3.14C9.31 7.11 8.11 6 6.2 6Zm4.95 3.06C11.1 9.04 11 9 11 8.93V6.52c0-.07.11-.1.17-.11.08-.03.15-.04.35-.04.46 0 1.09.32 1.09 1.44 0 .66-.12 1.03-.36 1.2-.14.1-.24.14-.55.14-.2 0-.37-.02-.53-.08h-.03ZM10 6.62v4.77l-.01.13c-.02.17-.03.28-.15.3-.07.02-.17.04-.29.04-.09 0-.12.02-.12.06 0 .06.05.08.16.08h2c.11 0 .17-.02.17-.08 0-.04-.04-.06-.1-.06l-.38-.03c-.2-.03-.22-.17-.23-.35v-.1C11 11.07 11 10.44 11 9.7v-.11c0-.05.03-.06.07-.06l.55.01c.05 0 .1.01.14.06l.37.52.4.57c.44.61.74.99 1.08 1.17.2.11.56.15 1 .15h.74c.1 0 .15-.02.15-.08 0-.04-.03-.06-.1-.06l-.21-.03h-.01c-.13-.02-.44-.09-.87-.54a27.35 27.35 0 0 1-1.7-2.08c.79-.65 1.03-1.2 1.03-1.78 0-.53-.31-.94-.53-1.09-.43-.3-.95-.34-1.45-.34H9.48c-.11 0-.17.02-.17.07 0 .06.05.07.13.07.11 0 .25.01.31.03.23.05.24.15.25.37v.08Z" fill="#FEFEFE"/><defs><linearGradient id="acjh2lgqy" x1="3.35" y1="3.12" x2="21.9" y2="24.43" gradientUnits="userSpaceOnUse"><stop stop-color="#1A1E21"/><stop offset="1" stop-color="#06060A"/></linearGradient></defs></svg>