<!-- by TradingView --><svg width="18" height="18" viewBox="0 0 18 18" xmlns="http://www.w3.org/2000/svg"><path fill="#F0F3FA" d="M0 0h18v18H0z"/><path d="M10.32 9V7.76l1.24-.63L10.32 9Z" fill="#B280B8"/><path d="M11.56 7.13 12.8 9h-2.48l1.24-1.87Z" fill="#9C5EA5"/><path d="M10.32 9V7.76l-1.24-.63L10.32 9Z" fill="#A569AA"/><path d="m7.84 5.26 1.24 1.87-1.24-.62V5.26Z" fill="#B284BB"/><path d="M9.08 7.13 7.84 9V6.51l1.24.62Z" fill="#AC79B4"/><path d="M9.08 7.13 7.84 9h2.48L9.08 7.13Z" fill="#9A59A2"/><path d="M5.37 9V7.76l1.23-.63L5.37 9Z" fill="#8E62A8"/><path d="M7.84 5.26 6.6 7.13l1.24-.62V5.26Z" fill="#B992C2"/><path d="M6.6 7.13 7.84 9V6.51l-1.24.62Z" fill="#A87DB6"/><path d="M6.6 7.13 7.84 9H5.37L6.6 7.13Z" fill="#9463A8"/><path d="M10.32 9v1.25l1.24.63L10.32 9Z" fill="#8D3B95"/><path d="M11.56 10.88 12.8 9h-2.48l1.24 1.88Z" fill="#904599"/><path d="M10.32 9v1.25l-1.24.63L10.32 9Z" fill="#8D4198"/><path d="m7.84 12.75 1.24-1.87-1.24.62v1.25Z" fill="#642978"/><path d="M9.08 10.88 7.84 9v2.5l1.24-.62Z" fill="#792B8C"/><path d="M9.08 10.88 7.84 9h2.48l-1.24 1.88Z" fill="#9B5EA5"/><path d="M5.37 9v1.25l1.23.63L5.37 9Z" fill="#733B95"/><path d="M7.84 12.75 6.6 10.88l1.24.62v1.25Z" fill="#712C8C"/><path d="M6.6 10.88 7.84 9v2.5l-1.24-.62Z" fill="#84499B"/><path d="M6.6 10.88 7.84 9H5.37l1.23 1.88Z" fill="#7F459A"/><path d="m11.4 6.9-1.08-.63v1.49l1.24-.63-.15-.22Z" fill="#B583BA"/><path d="m10.32 6.27-.48-.28-.76 1.14 1.24.63V6.27Z" fill="#BB8FC1"/><path d="M9.84 5.99 8.6 5.26h-.76l1.24 1.87L9.84 6Z" fill="#D1B3D5"/><path d="m8.05 4.95-.2.31h.75l-.55-.31Z" fill="#DECEE5"/><path d="m7.84 5.26.21-.31-.2-.13v.44Z" fill="#CEB7D8"/><path d="M5.84 5.26h2l-.48-.72-.9-.53-.62 1.25Z" fill="#C8AFD4"/><path d="m5.63 5.67.97 1.46 1.24-1.87h-2l-.2.41Z" fill="#BA99C7"/><path d="m5.63 5.67-.26.55v1.54l1.23-.63-.97-1.46Z" fill="#A783BB"/><path d="m5.37 6.22-.6 1.23.6.31V6.22Z" fill="#9772B1"/><path d="M5.37 9V7.76l-.6-.3-.19.36L5.37 9Z" fill="#8461A8"/><path d="M4.58 7.82 4 9h1.37l-.79-1.18Z" fill="#7C56A3"/><path d="M5.37 9H4l.58 1.19L5.37 9Z" fill="#7651A0"/><path d="m4.76 10.56.6-.3V9l-.78 1.19.18.37Z" fill="#714299"/><path d="m5.37 11.79.26.55.97-1.46-1.23-.63v1.54Z" fill="#6A2C90"/><path d="M5.37 11.79v-1.54l-.6.3.6 1.24Z" fill="#5C2D8A"/><path d="M5.84 12.75h2L6.6 10.88l-.97 1.46.2.4Z" fill="#632D89"/><path d="m6.45 14 .91-.53.48-.72h-2L6.45 14Z" fill="#572A7C"/><path d="m8.05 13.06-.2-.31v.44l.2-.13Z" fill="#722B8F"/><path d="m7.84 12.75.21.31.55-.31h-.76Z" fill="#541F5E"/><path d="m9.08 10.88-1.24 1.87h.76l1.24-.73-.76-1.14Z" fill="#732684"/><path d="m10.32 10.25-1.24.63.76 1.14.48-.28v-1.49Z" fill="#80298F"/><path d="m11.4 11.1.16-.22-1.24-.63v1.5l1.09-.65Z" fill="#883894"/><path d="m12.8 9-1.24 1.88.13.06 1.1-.65V9Z" fill="#852F91"/><path d="M13.41 9.93 12.8 9v1.3l.61-.37Z" fill="#7B2B88"/><path d="m12.8 9 .61.93L15 9h-2.2Z" fill="#8E4D9D"/><path d="M12.8 9H15l-1.59-.92-.61.92Z" fill="#8A489B"/><path d="M12.8 7.72V9l.61-.92-.61-.36Z" fill="#985DA5"/><path d="m12.8 7.72-1.11-.65-.13.06L12.8 9V7.72Z" fill="#9F68AA"/></svg>