<!-- by TradingView --><svg width="18" height="18" viewBox="0 0 18 18" xmlns="http://www.w3.org/2000/svg"><path fill="#F0F3FA" d="M0 0h18v18H0z"/><path d="M12.71 12.35a4.98 4.98 0 0 0-.07-6.77L10.71 7.5c-.3.3-.46.7-.46 1.1v.67c0 .42.17.82.47 1.12l1.99 1.95Z" fill="#5B9DDA"/><path d="m12.5 12.58-1.92-1.88c-.3-.29-.69-.45-1.1-.45h-.86c-.42 0-.81.16-1.1.46l-1.94 1.93a4.98 4.98 0 0 0 6.91-.06Z" fill="#092065"/><path d="M5.36 12.42a4.98 4.98 0 0 1 0-6.85l1.92 1.9c.3.29.47.69.47 1.1v.81c0 .42-.16.81-.46 1.1l-1.93 1.94Z" fill="#2B65B4"/><path d="M5.58 5.35 7.57 7.3c.29.29.68.45 1.1.45h.71c.42 0 .81-.16 1.1-.46l1.94-1.93a4.98 4.98 0 0 0-6.84 0Z" fill="#A4CAE7"/></svg>