<!-- by TradingView --><svg width="18" height="18" viewBox="0 0 18 18" xmlns="http://www.w3.org/2000/svg"><path fill="#F0F3FA" d="M0 0h18v18H0z"/><path fill-rule="evenodd" d="m15.51 7.35.38-.6A2.84 2.84 0 0 0 14.06 6c-1 .01-1.88.67-1.89 1.7-.01 1.08 1.16 1.52 2.02 1.72.65.15 1.11.32 1.11 1.03 0 .7-.61.84-1.24.84-.58 0-1.24-.32-1.63-.76l-.43.52c.49.56 1.32.95 2.06.95.92 0 1.94-.51 1.94-1.55 0-1-.8-1.55-1.67-1.76l-.1-.02c-.52-.12-1.34-.31-1.33-.97.01-.7.5-.94 1.16-.95.52 0 1.07.26 1.45.6ZM5 12a3 3 0 1 0 0-6 3 3 0 0 0 0 6Zm0-.7a2.3 2.3 0 1 0 0-4.6 2.3 2.3 0 0 0 0 4.6ZM8.34 6H12v.7H9v1.94h3v.7H9V12h-.66V6Z" fill="#FE8F1C"/></svg>