<!-- by TradingView --><svg width="18" height="18" viewBox="0 0 18 18" xmlns="http://www.w3.org/2000/svg"><path fill="#F0F3FA" d="M0 0h18v18H0z"/><path d="M7.3 4c2.22 0 2.44 1.74 2.28 2.46-.22-.49-.89-1.3-1.77-.64s-.6 2.12-.36 2.77l-.7-.95c.1 1.8 1.28 2.8 1.85 3.08 2.09.88 2.93.67 3.09.46-2.6-.37-3.67-1.42-3.88-1.9 1.23 1.4 5.76 1.25 7.19 1.15v1.95c-.44-.04-2.63.56-2.98.72l.36.31c-.6.3-1.12.18-1.3.18-1.27-.45-1.3.09-1.14.41a4.25 4.25 0 0 1-1.67-.41c.36-.03.88-.2 0-.72-.88-.51-.82-.06-.67.23a4 4 0 0 1-2.01-1.59l.88.41c.06-.3-.3-1.01-.48-1.33L4.7 8.77c.56 1.16.7 1.9.7 2.13-.28-.38-.93-1.4-1.3-2.49C3.65 7.05 4.7 4 7.3 4Z" fill="url(#aa1fonmh2)"/><defs><linearGradient id="aa1fonmh2" x1="5.36" y1="4.69" x2="13.64" y2="12.33" gradientUnits="userSpaceOnUse"><stop stop-color="#005D7E"/><stop offset=".49" stop-color="#539FB7"/></linearGradient></defs></svg>