<!-- by TradingView --><svg width="18" height="18" viewBox="0 0 18 18" xmlns="http://www.w3.org/2000/svg"><path fill="#B59A64" d="M0 0h18v18H0z"/><path d="m8.44 7.4.2-.28-.44-.15 1.9-2.82c.1-.15.24-.18.36-.13l.24.1-1.78 2.63.35.12 1.64-2.4c.14-.2.24-.17.31-.15.07.03.26.07.26.07S9.7 6.94 9.56 7.17c-.13.2-.24.16-.31.13h-.02l-.2-.06-.11.18c-.05.04-.12.1-.24.04l-.24-.07Zm-1.1-2.78L8.5 6.05l-.24.37-1.59-2.05.97-.27c.23-.07.37.08.4.12l.93 1.14-.26.37-.97-1.24-.38.13Zm2.22 7.28 1.14 1.43-.38.13-.98-1.24-.26.37.93 1.14c.04.04.18.2.4.12l.98-.27-1.6-2.05-.23.37Zm.02-1.34-.19.27.45.2-1.9 2.82c-.1.15-.23.18-.35.13l-.24-.1 1.78-2.63-.36-.12-1.63 2.4c-.15.2-.24.17-.31.15a5.52 5.52 0 0 1-.29-.12l1.93-2.78c.12-.2.23-.16.3-.13h.03l.19.06.12-.17c.04-.05.12-.1.23-.05l.24.07Zm1.62-3.52.61-1.75.29.3-.55 1.48.45.05.5-1.39c.03-.02.07-.25-.1-.44l-.7-.75L10.75 7l.45.05Zm-1.17.65.34.02-.17-.4 3.3.3c.2.03.26.13.29.28l.04.24-3.06-.32.07.4 2.83.3c.23.02.28.12.28.2.03.07.05.29.05.29l-3.25-.37c-.22-.02-.24-.13-.26-.2v-.05l-.05-.2-.2-.02a.24.24 0 0 1-.16-.2l-.05-.27Zm-3.18 3.24-.62 1.73-.28-.3.54-1.48-.45-.05s-.47 1.36-.5 1.39c-.02.02-.07.25.1.44l.71.75.9-2.45-.4-.03Zm1.16-.64-.33-.05.12.44-3.3-.3c-.2-.02-.26-.12-.29-.27l-.04-.24 3.06.34-.07-.4-2.83-.29c-.23-.05-.28-.15-.23-.25-.03-.07-.05-.3-.05-.3l3.25.38c.22.02.24.12.25.2l.01.04.05.2.2.03c.06.02.13.07.16.2l.04.27Zm3.71-.32 1.76-.33-.12.42-1.52.25.19.42 1.4-.24c.05 0 .26-.05.3-.3L14 9.17l-2.5.4.22.4Zm-.97-.4.3-.32 1.38 3.12c.07.17.03.3-.07.4l-.19.17-1.26-2.97-.28.27 1.16 2.7c.1.22.02.3-.02.34l-.24.2s-1.21-2.87-1.33-3.12c-.09-.22 0-.3.05-.35l.02-.02s.1-.07.14-.12l-.07-.2c-.02-.08-.02-.17.07-.25l.2-.17.14.32ZM6.3 7.98l-1.75.33.1-.4 1.51-.25-.19-.42-1.4.25a.35.35 0 0 0-.3.3L4 8.8l2.5-.4-.2-.42Zm1 .4-.33.32s-1.38-3.12-1.4-3.12c-.05-.17-.03-.3.1-.4l.18-.17 1.26 2.95.29-.27-1.17-2.7c-.1-.22-.02-.3.05-.32l.24-.2s1.2 2.87 1.33 3.12c.08.22 0 .3-.06.35l-.01.02-.15.12.08.2c.02.08.02.18-.08.25l-.19.17-.14-.32Z" fill="#fff"/></svg>