<!-- by TradingView --><svg width="18" height="18" fill="none" xmlns="http://www.w3.org/2000/svg"><path fill="#F0F3FA" d="M0 0h18v18H0z"/><path fill-rule="evenodd" clip-rule="evenodd" d="M13.177 7a4.095 4.095 0 00-3.29-1.652c-1.347 0-2.543.65-3.29 1.652H3.358a5.588 5.588 0 014.955-3 5.588 5.588 0 014.954 3h-.09z" fill="#0294CF"/><path fill-rule="evenodd" clip-rule="evenodd" d="M13.73 8a4.99 4.99 0 00-9.46 0H6.05a4.103 4.103 0 017.676 0h.005z" fill="#0070A2"/><path fill-rule="evenodd" clip-rule="evenodd" d="M4.835 11a4.095 4.095 0 003.266 1.62A4.095 4.095 0 0011.366 11h3.246a5.588 5.588 0 01-4.937 2.967A5.588 5.588 0 014.738 11h.097z" fill="#00A441"/><path fill-rule="evenodd" clip-rule="evenodd" d="M4.269 10a4.99 4.99 0 009.437 0h-1.78a4.103 4.103 0 01-7.65 0h-.007z" fill="#1D8246"/><circle cx="9" cy="9" r="1.929" fill="url(#paint0_linear)"/><circle cx="9" cy="9" r=".964" fill="#000"/><circle opacity=".5" cx="8.518" cy="8.285" fill="#C4C4C4" r=".389"/><circle opacity=".5" cx="8.518" cy="8.285" fill="#C4C4C4" r=".176"/><defs><linearGradient id="paint0_linear" x1="9" y1="7.071" x2="9" y2="10.929" gradientUnits="userSpaceOnUse"><stop stop-color="#046EA7"/><stop offset="1" stop-color="#009959"/></linearGradient></defs></svg>