<!-- by TradingView --><svg width="18" height="18" viewBox="0 0 18 18" xmlns="http://www.w3.org/2000/svg"><path fill="#F0F3FA" d="M0 0h18v18H0z"/><path d="m9 14.1 4-2.1v-1.8l-4.15 2.25L9 14.1Z" fill="url(#a3bgnaluz)"/><path d="M9 3.9 5 6v2l4.28-2.4L9 3.9Z" fill="url(#b3bgnaluz)"/><path d="m8 3 5 3v2L8 4.84V3Z" fill="url(#c3bgnaluz)"/><path d="m10 15-5-3v-2l5 3v2Z" fill="url(#d3bgnaluz)"/><path d="m5 12 8-4V6l-8 4v2Z" fill="url(#e3bgnaluz)"/><path d="m5 6 8 4.22V12L5 8V6Z" fill="#FFB81C"/><defs><linearGradient id="a3bgnaluz" x1="10.26" y1="13.49" x2="11.89" y2="11.23" gradientUnits="userSpaceOnUse"><stop offset=".73" stop-color="#FFD00A"/><stop offset="1" stop-color="#FEB405"/></linearGradient><linearGradient id="b3bgnaluz" x1="7.74" y1="4.51" x2="6.11" y2="6.77" gradientUnits="userSpaceOnUse"><stop offset=".73" stop-color="#FFD00A"/><stop offset="1" stop-color="#FEB405"/></linearGradient><linearGradient id="c3bgnaluz" x1="9.57" y1="2.15" x2="13.28" y2="6.93" gradientUnits="userSpaceOnUse"><stop offset=".72" stop-color="#FEB81C"/><stop offset=".86" stop-color="#FF950F"/></linearGradient><linearGradient id="d3bgnaluz" x1="8.43" y1="15.85" x2="4.43" y2="11.33" gradientUnits="userSpaceOnUse"><stop offset=".67" stop-color="#FEB81C"/><stop offset=".86" stop-color="#FF950F"/></linearGradient><linearGradient id="e3bgnaluz" x1="9.28" y1="14.23" x2="12.4" y2="7.28" gradientUnits="userSpaceOnUse"><stop offset=".39" stop-color="#FFD100"/><stop offset=".48" stop-color="#FDB600"/><stop offset=".72" stop-color="#FDB900"/><stop offset=".79" stop-color="#FFCF01"/></linearGradient></defs></svg>