<!-- by TradingView --><svg xmlns="http://www.w3.org/2000/svg" width="18" height="18"><path d="M0 9a9 9 0 1118 0A9 9 0 010 9z" fill="#F0F3FA"/><path d="M10.88 4.02c-.63.1-1.34.43-2.08.98A10.82 10.82 0 006 8.35c-.84 1.55-1.17 3.06-.94 4.17.17.77.61 1.28 1.25 1.44.24.05.68.05.96 0a5.8 5.8 0 002.63-1.54 10.08 10.08 0 003.05-5.5c.05-.36.05-1.08 0-1.37-.17-.83-.61-1.35-1.26-1.5-.21-.05-.58-.06-.82-.03zm.27 1.01c.35.08.62.3.81.66.55 1.03.03 3.1-1.2 4.83a8.05 8.05 0 01-1.66 1.72c-.44.32-.97.6-1.34.7-.23.06-.62.08-.82.04-.54-.1-.93-.54-1.06-1.23a4.11 4.11 0 010-1.07c.34-2.26 2.33-4.92 4.17-5.55.4-.14.77-.17 1.1-.1z" fill="#1C3667"/></svg>