<!-- by TradingView --><svg width="18" height="18" viewBox="0 0 18 18" xmlns="http://www.w3.org/2000/svg"><path fill="url(#aysbmsams)" d="M0 0h18v18H0z"/><path d="m9 8.83.46-1.6c.2-.88.4-1.62.42-1.65.08-.09 1 .18 1.48.42a3.15 3.15 0 0 1 1.76 2.69c.12 1.5-.7 2.67-2.26 3.2a6.1 6.1 0 0 1-1.43.28H9V13l.74-.04c1.93-.14 3.44-.75 4.35-1.76a3.5 3.5 0 0 0 .57-3.86c-.26-.55-1-1.33-1.59-1.68a7.52 7.52 0 0 0-2.95-.92 3.97 3.97 0 0 1-.52-.07l-.28-.84L9 3v5.83Zm-1.16-4.1a8.7 8.7 0 0 0-2.04.5c-.76.3-1.23.61-1.76 1.16-.38.4-.5.57-.68.95-.29.6-.4 1.13-.35 1.73.14 2.06 1.89 3.49 4.7 3.83.35.05.74.1.86.1h.13v-.83h-.14c-.36 0-1.2-.19-1.67-.38a3.02 3.02 0 0 1-1.92-3.7c.03-.13.13-.42.23-.64.47-1.04 1.67-1.78 3.13-1.94l.37-.03v-.8h-.2l-.66.06Z" fill="#fff"/><defs><linearGradient id="aysbmsams" x1="3.35" y1="3.12" x2="21.9" y2="24.43" gradientUnits="userSpaceOnUse"><stop stop-color="#1A1E21"/><stop offset="1" stop-color="#06060A"/></linearGradient></defs></svg>