<!-- by TradingView --><svg width="18" height="18" viewBox="0 0 18 18" xmlns="http://www.w3.org/2000/svg"><path fill="#F0F3FA" d="M0 0h18v18H0z"/><path d="M7.98 7.27 6.58 9H6.5a1.5 1.5 0 1 1 1.48-1.73Z" fill="#ED5F23"/><path d="M5.43 10.2c-.76.76-1.61.8-2 .8-.29.02-.43.62-.43.79 0 .17.08.21.12.21 1.28 0 2.77-.7 4.17-2.82C8.69 7.05 8.96 6 9.63 6c.68 0 2.27 1.51 3.09 2.32.82.8 2.05 1.68 2.15 1.68.08 0 .13-.04.13-.34 0-.2-.1-.38-.22-.48-.92-.54-2.44-1.9-3.13-2.62C10.95 5.83 10.16 5 9.63 5s-1.06.72-1.84 2.15a11.46 11.46 0 0 1-2.36 3.06Z" fill="#333"/><path d="M12.91 9.34 10.2 7c-.21.29-.2.48-.17.53.72.63 2.31 2.01 2.9 2.47.15-.09.06-.48 0-.66Z" fill="#333"/></svg>