<!-- by TradingView --><svg xmlns="http://www.w3.org/2000/svg" width="18" height="18"><path fill="#60B4E4" d="M0 0h18v18H0z"/><path d="M10.06 12.53a.497.497 0 00-.29-.18c-.24 0-.47.1-.7.1 0-.04.15-.21.04-.21-.04 0-.54-.47-.66-.54a.77.77 0 01-.3-.08c.22 0 .83-.3.7-.54 0-.03-.03-.03-.03-.07h.8c.09-.04.29-.1.22-.22-.17-.17-.6-.46-.7-.65.12.04.23 0 .3-.07.11-.11 0-.26-.04-.4.11-.33.33-.54.3-.98.36.27.82.26 1.2.5.15.05.2-.1.27-.17.1.1.1.59.14.72 0 .06-.01.22.08.22.41 0 .36-.8.7-.8 0 .08.1.15.21.15.31 0 .43-.32.66-.44-.03.11-.1.22-.1.33v.58c0 .08.08.2.14.25V5.25a.25.25 0 00-.26-.25H5v.18c1.45 0 2.76.19 4 .8.18.07.33.18.48.25-.94-.46-2.14-.08-3.01-.5-.44-.19-1-.32-1.47-.48v.08c.3.15.96.4 1.36.61.84.4 1.92 1.4 2.35 1.89.23.25.48.52.62.72l-.62-.34c-.74-.46-1.47-.67-2.17-1.36-.07-.13-1.18-1.1-1.4-1.3-.03-.04-.1-.08-.14-.12 0 .11.11.15.15.22.07.07.1.15.18.22 0 .35 1.1 1.48 1.14 1.77.33 1.34.25 1.76.3 1.92C5.9 8.35 5.1 7.5 5.1 6.1c0-.04-.04.07-.07.07 0 .03 0 .07-.04.07v6.52c0 .14.11.25.26.25h4.77v-.22c0-.07.07-.14.03-.25zm1.55-.58s-.17.98-.37.98c-.07-.07-.07-.26-.26-.22-.18.09-.48.15-.62.29h1.87l-.62-1.05zm.84-.07c-.04.14.07.18.07.29-.2-.1-.91-.22-.91-.22l.62 1.05h.55c.15 0 .22-.1.22-.25V11.4c-.18.17-.38.3-.55.47zm.18-1.02c0 .17.23.26.37.26v-.73a.62.62 0 00-.37.47z" fill="#fff"/></svg>