<!-- by TradingView --><svg xmlns="http://www.w3.org/2000/svg" width="18" height="18" viewBox="0 0 18 18"><path fill="#F0F3FA" d="M0 0h18v18H0z"/><path d="M12.39 8H9.6C9.28 8 9 7.78 9 7.5s.27-.5.61-.5h2.78c.33 0 .61.22.61.5s-.28.5-.61.5zM11 10.92v-1.8c0-.35.22-.64.5-.64s.5.29.5.64v1.8c0 .35-.22.64-.5.64s-.5-.29-.5-.64zM9 5.37V3.63c0-.35.22-.63.5-.63s.5.28.5.63v1.74c0 .35-.22.63-.5.63S9 5.72 9 5.37zM9 14.38v-2.76c0-.34.22-.62.5-.62s.5.28.5.62v2.76c0 .34-.22.62-.5.62s-.5-.28-.5-.62zM7.36 7.65v-1.8c0-.35.22-.64.5-.64s.5.29.5.65v1.79c0 .35-.22.64-.5.64-.27 0-.5-.29-.5-.64zM7.36 12.57v-.93c0-.35.22-.64.5-.64s.5.29.5.64v.93c0 .35-.22.64-.5.64-.27 0-.5-.29-.5-.64zM13.06 8.3h1.32c.34 0 .62.22.62.5 0 .27-.28.5-.62.5h-1.32c-.35 0-.63-.23-.63-.5 0-.28.28-.5.63-.5zM3.16 8.3h1.4c.36 0 .66.22.66.5 0 .27-.3.5-.66.5h-1.4c-.36 0-.66-.23-.66-.5 0-.28.3-.5.66-.5zM6 10.92v-1.8c0-.35.22-.64.5-.64s.5.29.5.64v1.8c0 .35-.22.64-.5.64s-.5-.29-.5-.64zM8.92 10.41c.48 0 .87-.4.87-.88a.88.88 0 0 0-.87-.88c-.48 0-.86.4-.86.88 0 .49.38.88.86.88z" fill="#E20177"/><path d="M14.5 8a.5.5 0 1 0 0-1 .5.5 0 0 0 0 1z" fill="#009DDC"/><path d="M7.86 15a.5.5 0 1 0 0-1 .5.5 0 0 0 0 1z" fill="#54B948"/><path d="M6.5 8a.5.5 0 1 0 0-1 .5.5 0 0 0 0 1z" fill="#1B4298"/></svg>