<!-- by TradingView --><svg xmlns="http://www.w3.org/2000/svg" width="18" height="18"><path fill="url(#aglnplknb)" d="M0 0h18v18H0z"/><path d="M4 8.95C4 11.22 6.18 14 10.06 14c1.7 0 1.7-.41 1.7-.87v-.04c0-.38-.09-.68-.18-1-.1-.35-.21-.73-.21-1.25 0-1.07.62-1.54 1.26-2.02.68-.5 1.37-1.03 1.37-2.27C14 5.23 12.95 4 10.18 4 8.37 4 4 4.75 4 8.95zm6.98-.96c0 .33-.29.6-.64.6a.62.62 0 01-.63-.6c0-.34.28-.6.63-.6s.64.26.64.6zm.02 2.63c0 .94-.28 1.7-.63 1.7s-.64-.76-.64-1.7.29-1.7.64-1.7c.35 0 .63.76.63 1.7zm-1.62.04c0 .96-.76 1.73-1.7 1.73-.92 0-1.68-.77-1.68-1.73s.76-1.74 1.69-1.74c.93 0 1.69.78 1.69 1.74zm-1 .02c0 .47-.31.85-.69.85-.37 0-.68-.38-.68-.85s.31-.85.68-.85c.38 0 .68.38.68.85z" fill="#fff"/><defs><linearGradient id="aglnplknb" x1="3.11" y1="2.46" x2="14.28" y2="16.44" gradientUnits="userSpaceOnUse"><stop stop-color="#4CB848"/><stop offset=".72" stop-color="#86C340"/><stop offset="1" stop-color="#F1EB26"/></linearGradient></defs></svg>