<!-- by TradingView --><svg width="18" height="18" fill="none" xmlns="http://www.w3.org/2000/svg"><path fill="#F0F3FA" d="M0 0h18v18H0z"/><path fill-rule="evenodd" clip-rule="evenodd" d="M16 9a3.5 3.5 0 11-1.057-2.507l-.99.99a2.1 2.1 0 10.527.814h1.45c.046.227.07.462.07.703z" fill="#6B9C30"/><path fill-rule="evenodd" clip-rule="evenodd" d="M11.87 11.004a3.5 3.5 0 110-4.008 2.105 2.105 0 00-1.12.843 2.1 2.1 0 100 2.323c.263.395.657.696 1.12.842z" fill="#006838"/><path fill-rule="evenodd" clip-rule="evenodd" d="M5.5 12.5a3.5 3.5 0 100-7 3.5 3.5 0 000 7zm0-1.4a2.1 2.1 0 100-4.2 2.1 2.1 0 000 4.2z" fill="#005129"/><path fill="#6B9C30" d="M12.296 8.3H15.5v1.4h-3.204z"/><path fill-rule="evenodd" clip-rule="evenodd" d="M10.52 8.3H6.169v1.4h4.35a2.096 2.096 0 010-1.4z" fill="#006838"/><path fill-rule="evenodd" clip-rule="evenodd" d="M10.514 8.317h1.434l-.499-.499.42-.42.92.919.07.07.201.2.42.421-1.61 1.611-.42-.42.498-.499H10.52a2.096 2.096 0 01-.006-1.383z" fill="#FBAA19"/></svg>