<!-- by TradingView --><svg width="18" height="18" viewBox="0 0 18 18" xmlns="http://www.w3.org/2000/svg"><path fill="#F0F3FA" d="M0 0h18v18H0z"/><path d="M8.9 7.7c-.59.3-1.16.8-1.74 1.5a2.81 2.81 0 0 0-.62 2.52c.06.25.02.27-.13.04a2.5 2.5 0 0 1-.34-1.98 3.7 3.7 0 0 1 1.04-1.81A7.14 7.14 0 0 1 9.04 6.6a5.6 5.6 0 0 0 .92-.6c.5-.36.9-.78 1.2-1.26.33-.5.52-1 .57-1.5.04-.32.12-.33.24-.04l.02.22c.06.9-.22 1.75-.86 2.54a6.62 6.62 0 0 1-2.24 1.74Z" fill="#9AC32C"/><path d="M9.15 4.33a2.98 2.98 0 0 0-.7 2.2c0 .11-.03.2-.13.26l-.76.5c-.09.06-.13.03-.14-.07 0-.71.1-1.3.3-1.75a2.9 2.9 0 0 1 1.3-1.34c.13-.01.19.02.16.11a.26.26 0 0 1-.03.09ZM10.65 4.38l-.76-.12c-.14-.02-.26.06-.28.19v.02c-.03.12.06.24.2.26l.76.13c.13.02.26-.07.28-.2v-.01c.03-.13-.06-.25-.2-.27ZM10.02 5.17l-.8-.13c-.13-.02-.25.07-.27.19v.02c-.03.12.06.24.19.26l.8.12c.13.02.25-.06.27-.18v-.03c.02-.12-.06-.23-.2-.25Z" fill="#182878"/><path d="M8.93 6.32c.18.03.35-.05.38-.18.02-.13-.1-.27-.3-.3-.18-.03-.35.05-.37.18-.03.13.1.27.29.3ZM8.73 8.04c.06-.04.1-.03.14.03.15.29.41.71.78 1.28.37.57.6.98.71 1.23.33.8.43 1.59.32 2.37a2.88 2.88 0 0 1-1.21 2.03.08.08 0 0 1-.09 0c-.06-.03-.07-.07-.03-.13.67-1.05.7-2.24.1-3.57-.13-.3-.42-.76-.86-1.39-.33-.47-.56-.81-.68-1.04-.06-.1-.04-.19.06-.26l.76-.55Z" fill="#182878"/><path d="m8.93 10.86-1.4-1.3a.25.25 0 0 0-.35 0c-.1.1-.1.24 0 .33l1.4 1.3c.1.09.25.09.35 0v-.01c.1-.1.1-.24 0-.32ZM9.42 12.49l-1.92-1.7a.26.26 0 0 0-.35.01h-.01c-.1.1-.09.25.01.34l1.93 1.7c.1.08.26.08.35-.02.1-.1.1-.25 0-.33ZM8.82 13.3l-1.06-.98a.25.25 0 0 0-.34 0h-.01c-.1.1-.1.24 0 .33l1.06.99c.1.09.25.09.34 0l.01-.01c.1-.09.1-.23 0-.32Z" fill="#9AC32C"/></svg>