<!-- by TradingView --><svg width="18" height="18" viewBox="0 0 18 18" xmlns="http://www.w3.org/2000/svg"><path fill="#F0F3FA" d="M0 0h18v18H0z"/><path d="M4.73 5.93A13.53 13.53 0 0 1 2 7.53c.53.36.96.15 1.12 0 1.03-.78 2.4-1.4 2.94-1.6a3.71 3.71 0 0 0 0 4.74c-.18-.23-.54-.9-.5-1.77.06-1.08.42-3.17 3.6-3.4 2.28-.15 4.79 1.71 6.22 3.4C13.21 4.8 11 4.04 9.58 4c-1.4-.04-3.2.72-4.85 1.93Z" fill="#9D2141"/><path d="M13.27 12.07a13.53 13.53 0 0 1 2.73-1.6c-.53-.36-.96-.15-1.12 0-1.03.78-2.4 1.4-2.94 1.6a3.71 3.71 0 0 0 0-4.74c.18.23.54.9.5 1.77-.06 1.08-.42 3.17-3.6 3.4-2.28.15-4.79-1.71-6.22-3.4C4.79 13.2 7 13.96 8.42 14c1.4.04 3.2-.72 4.85-1.93Z" fill="#184E8E"/><circle cx="9" cy="9" fill="#7189B7" r="2"/><circle cx="9" cy="9" fill="#060709" r="1"/><circle cx="9.89" cy="8.4" fill="#fff" r=".3"/></svg>