<!-- by TradingView --><svg xmlns="http://www.w3.org/2000/svg" width="18" height="18" viewBox="0 0 18 18"><path fill="#F0F3FA" d="M0 0h18v18H0z"/><path d="M8.7 10.64c.2-.43.3-.93.3-1.5v-.27c0-.57-.1-1.07-.31-1.51-.21-.44-.5-.77-.89-1A2.42 2.42 0 0 0 6.5 6a2.32 2.32 0 0 0-2.19 1.36C4.11 7.8 4 8.3 4 8.88v.28c0 .57.1 1.06.32 1.5A2.32 2.32 0 0 0 6.5 12a2.3 2.3 0 0 0 2.19-1.36zM6.5 7c.82 0 1.2.64 1.2 1.87v.28c0 1.21-.38 1.85-1.2 1.85s-1.2-.68-1.2-1.87v-.28C5.3 7.63 5.69 7 6.5 7zm4.1 4h1.82l.35 1H14l-2-6H11L9 12h1.27l.34-1zm1.58-1h-1.32l.66-2.29.66 2.29z"/></svg>