<!-- by TradingView --><svg width="18" height="18" xmlns="http://www.w3.org/2000/svg"><path fill="#F0F3FA" d="M0 0h18v18H0z"/><path d="M9.001 5C5.418 5 3.956 7.684 4 9h2.831c.158 0 .266-.176.266-.176l1.727-2.859c.044-.043.282-.043.31 0 .62.966 1.667 2.802 1.77 2.903.106.106.176.132.265.132H14c0-1.36-1.504-4-4.999-4z" fill="#CB2026"/><path d="M9 14c-3.583 0-5.043-2.684-4.999-4h2.831c.158 0 .266.175.266.175l1.725 2.765c.044.044.282.044.31 0 .62-.965 1.667-2.707 1.77-2.808.106-.106.176-.132.265-.132h2.831c0 1.36-1.504 4-4.999 4z" fill="#010101"/></svg>