<!-- by TradingView --><svg width="18" height="18" xmlns="http://www.w3.org/2000/svg"><path fill="#0084AA" d="M0 0h18v18H0z"/><path d="M9.004 12.327c.863 0 1.547-.288 2.052-.866.51-.576.764-1.397.764-2.461 0-1.06-.255-1.878-.764-2.455-.505-.581-1.189-.872-2.052-.872-.864 0-1.553.289-2.067.865-.514.577-.771 1.398-.771 2.462 0 1.064.257 1.885.771 2.461.514.578 1.203.866 2.067.866zM14 9c0 1.697-.526 2.996-1.578 3.897-.788.736-1.928 1.103-3.418 1.103-1.491 0-2.63-.367-3.419-1.103C4.528 11.996 4 10.697 4 9c0-1.73.528-3.03 1.585-3.897C6.373 4.368 7.513 4 9.004 4c1.49 0 2.63.368 3.418 1.103C13.474 5.97 14 7.269 14 9z" fill="#fff"/></svg>