<!-- by TradingView --><svg width="18" height="18" viewBox="0 0 18 18" xmlns="http://www.w3.org/2000/svg"><path fill="#F0F3FA" d="M0 0h18v18H0z"/><path d="M9 13c2.24 0 4-2 4-4s-1.76-4-4-4-4 2-4 4 1.76 4 4 4Zm0 1A5 5 0 1 0 9 4a5 5 0 0 0 0 10Z" fill="#026899"/><circle cx="9" cy="9" r="4"/><path d="M12 10.9v.1h-1.1v-.1h.1c.1 0 .18-.06.23-.15.03-.07.04-.22.04-.46V7.71c0-.2 0-.34-.02-.4a.25.25 0 0 0-.08-.13.26.26 0 0 0-.17-.07h-.1V7H12v.1h-.1c-.1 0-.17.06-.22.15a1.3 1.3 0 0 0-.05.46v2.58c0 .2.01.34.03.4.01.05.04.1.08.13.05.05.1.07.17.07H12ZM9.45 7.22v1.57h.51c.24 0 .31-.23.33-.55h.07V9.6h-.07c0-.34-.08-.56-.33-.56h-.51v1.25c0 .2 0 .34.02.4.02.05.04.1.08.13.06.05.11.07.17.07h.1V11h-1.1v-.1h.1c.1 0 .18-.06.23-.15.02-.07.04-.22.04-.46V7.71c0-.2 0-.34-.02-.4a.25.25 0 0 0-.08-.13.26.26 0 0 0-.17-.07h-.1V7h1.92v.88h-.07a1.57 1.57 0 0 0-.11-.41.44.44 0 0 0-.16-.2.56.56 0 0 0-.3-.05h-.55Z" fill="#F0F3FA"/><path d="M6 7h.68l1.5 2.95V7.68c0-.3 0-.57-.24-.57h-.08V7h.87v.1h-.1c-.23 0-.29.3-.29.58V11h-.06L6.66 7.83v2.49c0 .24.01.4.05.45.04.08.11.12.21.12h.09V11h-.87v-.1h.09c.1 0 .18-.06.22-.16.03-.06.04-.2.04-.42v-2.8a1.6 1.6 0 0 0-.16-.27.54.54 0 0 0-.17-.12.39.39 0 0 0-.16-.02V7Z" fill="#F0F3FA"/></svg>