<!-- by TradingView --><svg width="18" height="18" viewBox="0 0 18 18" xmlns="http://www.w3.org/2000/svg"><path fill="url(#albuw550p)" d="M0 0h18v18H0z"/><path d="M13 10c0 2.31-1.72 4-4 4a3.9 3.9 0 0 1-4-4c0-2.32 1.72-4 4-4 2.28 0 4 1.67 4 4Zm-2 0c0-1.24-1-2-2-2s-2 .78-2 2c0 1.21 1 2 2 2s2-.77 2-2Z" fill="#fff"/><path d="m7 15 4-1.62H8.3L7 15ZM13 4.49 9 3 5 4.48v1.5l4-1.47L13 6V4.49Z" fill="#fff"/><defs><linearGradient id="albuw550p" x1="9" y1="0" x2="9" y2="18" gradientUnits="userSpaceOnUse"><stop stop-color="#EE620F"/><stop offset="1" stop-color="#E54908"/></linearGradient></defs></svg>