<!-- by TradingView --><svg width="18" height="18" viewBox="0 0 18 18" xmlns="http://www.w3.org/2000/svg"><path fill="url(#anw3zqdbc)" d="M0 0h18v18H0z"/><path d="M4.18 9a4.83 4.83 0 0 1 8.1-3.52l.12-.14a5 5 0 0 0-6.81 7.31l.12-.13A4.8 4.8 0 0 1 4.18 9Z" fill="url(#bnw3zqdbc)"/><path d="m12.4 5.34-.12.14a4.8 4.8 0 1 1-6.56 7.04l-.12.14a5 5 0 1 0 6.8-7.31Z" fill="url(#cnw3zqdbc)"/><path d="M4.8 9a4.2 4.2 0 0 1 7.04-3.06l.13-.14a4.37 4.37 0 1 0-5.95 6.4l.13-.14A4.15 4.15 0 0 1 4.8 9Z" fill="url(#dnw3zqdbc)"/><path d="M13.38 9c0-1.26-.54-2.4-1.4-3.2l-.13.14a4.18 4.18 0 1 1-5.7 6.12l-.13.14A4.38 4.38 0 0 0 13.37 9Z" fill="url(#enw3zqdbc)"/><path d="M5.44 9a3.56 3.56 0 0 1 5.98-2.6l.14-.15a3.75 3.75 0 1 0-5.12 5.5l.14-.15A3.54 3.54 0 0 1 5.44 9Z" fill="url(#fnw3zqdbc)"/><path d="M12.75 9c0-1.09-.46-2.06-1.2-2.75l-.13.15a3.56 3.56 0 0 1-4.84 5.2l-.14.14A3.76 3.76 0 0 0 12.74 9Z" fill="url(#gnw3zqdbc)"/><defs><linearGradient id="anw3zqdbc" x1="3.35" y1="3.12" x2="21.9" y2="24.43" gradientUnits="userSpaceOnUse"><stop stop-color="#1A1E21"/><stop offset="1" stop-color="#06060A"/></linearGradient><linearGradient id="bnw3zqdbc" x1="4" y1="8.33" x2="12.4" y2="8.33" gradientUnits="userSpaceOnUse"><stop offset=".01" stop-color="#fff"/><stop offset=".86" stop-color="#fff" stop-opacity=".05"/><stop offset="1" stop-color="#fff" stop-opacity="0"/></linearGradient><linearGradient id="cnw3zqdbc" x1="5.59" y1="9.67" x2="14" y2="9.67" gradientUnits="userSpaceOnUse"><stop stop-color="#fff" stop-opacity="0"/><stop offset=".14" stop-color="#fff" stop-opacity=".05"/><stop offset=".99" stop-color="#fff"/></linearGradient><linearGradient id="dnw3zqdbc" x1="4.62" y1="8.41" x2="11.98" y2="8.41" gradientUnits="userSpaceOnUse"><stop offset=".01" stop-color="#fff"/><stop offset=".86" stop-color="#fff" stop-opacity=".05"/><stop offset="1" stop-color="#fff" stop-opacity="0"/></linearGradient><linearGradient id="enw3zqdbc" x1="6.02" y1="9.59" x2="13.37" y2="9.59" gradientUnits="userSpaceOnUse"><stop stop-color="#fff" stop-opacity="0"/><stop offset=".14" stop-color="#fff" stop-opacity=".05"/><stop offset=".99" stop-color="#fff"/></linearGradient><linearGradient id="fnw3zqdbc" x1="5.25" y1="8.49" x2="11.55" y2="8.49" gradientUnits="userSpaceOnUse"><stop offset=".01" stop-color="#fff"/><stop offset=".86" stop-color="#fff" stop-opacity=".05"/><stop offset="1" stop-color="#fff" stop-opacity="0"/></linearGradient><linearGradient id="gnw3zqdbc" x1="6.44" y1="9.5" x2="12.75" y2="9.5" gradientUnits="userSpaceOnUse"><stop stop-color="#fff" stop-opacity="0"/><stop offset=".14" stop-color="#fff" stop-opacity=".05"/><stop offset=".99" stop-color="#fff"/></linearGradient></defs></svg>