<!-- by TradingView --><svg width="18" height="18" viewBox="0 0 18 18" xmlns="http://www.w3.org/2000/svg"><path fill="#F0F3FA" d="M0 0h18v18H0z"/><path d="M9 4a5 5 0 1 1 0 10A5 5 0 0 1 9 4Zm.07 1.05A3.76 3.76 0 0 0 6.15 6.6v.03a.08.08 0 0 0 .03.05l.84.59a.05.05 0 0 1 .01.07l-.16.28.86.62a.1.1 0 0 1 .05.1l-.03.23.85.62a.08.08 0 0 1 .03.08.7.7 0 0 0-.03.27l.77.53a.1.1 0 0 1 .04.07c-.01.17 0 .34.01.52.07.6.33 1.13.8 1.57a3.92 3.92 0 0 0 2.68-3.31 3.66 3.66 0 0 0-3.83-3.87Z"/><path d="M10.97 8.58c0-.82-.33-1.77-1.06-2.2a2.54 2.54 0 0 0-1.86-.31c-.04.03-.09.02-.13-.03 1.37-.52 2.83-.3 3.73.94.53.73.65 1.58.35 2.53a.06.06 0 0 1-.07.04l-.95-.27a.05.05 0 0 1-.03-.05l.02-.65Z" fill="#5A5B5F"/><path d="m10.97 8.58-.92-.27a.06.06 0 0 1-.04-.04l-.14-.57a2.04 2.04 0 0 0-1.49-1.52l-.33-.11c.67-.14 1.29-.04 1.86.3.73.44 1.06 1.39 1.06 2.21Z" fill="#97989C"/><path d="M7.92 6.04c.04.05.09.06.13.03l.33.11.33.11c.6.27.98.74 1.16 1.4L9 7.47a.11.11 0 0 1-.08-.08 1.71 1.71 0 0 0-1.14-1.25.03.03 0 0 1 0-.04.23.23 0 0 1 .14-.05Z" fill="#C6C7C9"/><path d="M7.74 8.57c-.1.64-.08 1.21.05 1.71a2.5 2.5 0 0 0 2.1 1.9l.1-.01c.03.05.09.07.16.09-1.4.18-2.71-.44-3.24-1.78a4.01 4.01 0 0 1-.04-2.86l.86.62a.1.1 0 0 1 .05.1l-.04.23Z" fill="#5A5B5F"/><path d="m7.74 8.57.86.62a.08.08 0 0 1 .03.08.7.7 0 0 0-.03.27c-.1.98.2 1.75.9 2.32.14.1.33.2.49.3l-.1.03a2.5 2.5 0 0 1-2.1-1.9 4.11 4.11 0 0 1-.05-1.72Z" fill="#97989C"/><path d="m10.21 12.23-.06.03a.23.23 0 0 1-.16-.1c-.16-.1-.35-.2-.49-.3-.7-.57-1-1.34-.9-2.32l.77.53a.09.09 0 0 1 .03.07c0 .17 0 .34.02.52.07.6.33 1.13.8 1.57Z" fill="#C6C7C9"/></svg>