<!-- by TradingView --><svg width="18" height="18" viewBox="0 0 18 18" xmlns="http://www.w3.org/2000/svg"><path fill="#F0F3FA" d="M0 0h18v18H0z"/><path d="M8.15 3A6.02 6.02 0 0 0 9 15a6.02 6.02 0 0 0 .85-12l-.1.75A5.27 5.27 0 0 1 9 14.25a5.27 5.27 0 0 1-.74-10.5L8.16 3Z" fill="#0D436B"/><path d="M8.8 8.02 8.43 2h1.12l-.35 6.02a1 1 0 1 1-.42 0Z" fill="#0D436B"/><path d="M8.25 6A3.04 3.04 0 0 0 6 8.95 3.02 3.02 0 0 0 9 12c1.66 0 3-1.36 3-3.05 0-1.42-.96-2.61-2.25-2.95v.26c1.15.33 2 1.41 2 2.7 0 1.54-1.23 2.79-2.75 2.79a2.77 2.77 0 0 1-2.75-2.8c0-1.28.85-2.36 2-2.69V6Zm0 .53A2.54 2.54 0 0 0 6.5 8.95c0 1.4 1.12 2.54 2.5 2.54s2.5-1.14 2.5-2.54c0-1.14-.74-2.1-1.75-2.42v.27c.87.31 1.5 1.16 1.5 2.15 0 1.26-1 2.29-2.25 2.29a2.27 2.27 0 0 1-2.25-2.29c0-1 .63-1.84 1.5-2.15v-.27Z" fill="#0D436B"/><path d="M8.1 4.59a4.5 4.5 0 1 0 1.8 0l-.16.99a3.5 3.5 0 1 1-1.48 0l-.16-.99Z" fill="#F8A94D" fill-opacity=".7"/></svg>