<!-- by TradingView --><svg width="18" height="18" xmlns="http://www.w3.org/2000/svg"><path fill="#1F396E" d="M0 0h18v18H0z"/><path d="M14.094 10.061c-.323.527-.707.99-1.605.939-.372-.021-.567-.135-.853-.382-.156-.074-.53-.462-1.01-.959-.354-.366-.765-.792-1.188-1.196l-.289-.294c-.438-.45-1.236-1.268-1.43-1.44A2.876 2.876 0 005.803 6c-.716 0-1.505.325-2.012.886A3.168 3.168 0 003 9.005c0 .795.285 1.556.791 2.118.507.562 1.194.877 1.911.877.402.003 1.093-.044 1.456-.236s.682-.472.934-.819c.194-.292.426-.81.449-1.173l-.93-.887v.389c0 .848-.778 1.65-1.707 1.671C4.923 10.966 4 10.067 4 9.014s.746-1.946 1.803-1.946c.602 0 .983.25 1.31.504.091.08.327.324.614.62.341.352.754.778 1.077 1.089.274.258.578.57.883.881.633.65 1.266 1.298 1.616 1.453.333.206.83.372 1.136.372.575 0 1.062-.108 1.498-.372A2.896 2.896 0 0015 10.485l-.906-.424zM8.13 8.816v-.002h-.002l.002.002zM15 7.672l-.976.33c-.154-.272-.37-.5-.628-.663a1.752 1.752 0 00-.85-.27 1.71 1.71 0 00-.791.141 1.8 1.8 0 00-.654.49c-.135.158-.205.527-.195.962v.41l-.998-.859a2.2 2.2 0 01.438-1.22c.31-.364.7-.643 1.135-.81a2.696 2.696 0 011.363-.155c.46.067.896.252 1.272.539.376.286.68.666.884 1.105z" fill="#fff"/></svg>