<!-- by TradingView --><svg xmlns="http://www.w3.org/2000/svg" width="18" height="18" viewBox="0 0 18 18"><path fill="url(#aknle5b44)" d="M0 0h18v18H0z"/><path d="M4 9.05c0-.9.47-1.64 1.4-2.2A7.01 7.01 0 0 1 9.07 6c.92 0 1.74.12 2.48.35.74.23 1.33.56 1.77 1.01.46.45.68.97.68 1.57 0 .9-.47 1.65-1.41 2.22-.94.57-2.16.85-3.66.85-.92 0-1.74-.11-2.48-.34a4.32 4.32 0 0 1-1.79-1.02A2.2 2.2 0 0 1 4 9.05ZM8.98 6.4c-1.06 0-1.94.23-2.64.68a2.15 2.15 0 0 0-1.03 1.91c0 .81.34 1.46 1.02 1.93.68.46 1.58.7 2.68.7a4.7 4.7 0 0 0 2.64-.68 2.15 2.15 0 0 0 1.04-1.91 2.2 2.2 0 0 0-1.03-1.92 4.65 4.65 0 0 0-2.68-.7Z" fill="#fff"/><defs><linearGradient id="aknle5b44" x1="9" y1="0" x2="9" y2="18" gradientUnits="userSpaceOnUse"><stop stop-color="#0D1836"/><stop offset=".5" stop-color="#122351"/><stop offset="1" stop-color="#0C1838"/></linearGradient></defs></svg>