<!-- by TradingView --><svg width="18" height="18" viewBox="0 0 18 18" xmlns="http://www.w3.org/2000/svg"><path fill="#F0F3FA" d="M0 0h18v18H0z"/><path fill-rule="evenodd" d="M9.07 11.13c.28-.6.42-1.3.42-2.13 0-.82-.14-1.53-.42-2.13A3.29 3.29 0 0 0 7.92 5.5 2.95 2.95 0 0 0 6.25 5c-.63 0-1.19.16-1.68.49-.49.32-.87.78-1.15 1.38C3.14 7.47 3 8.17 3 9c0 .82.14 1.53.42 2.13.28.6.66 1.06 1.15 1.38.5.33 1.05.49 1.68.49.62 0 1.18-.16 1.67-.49.49-.32.87-.78 1.15-1.38ZM6.25 6c1.68 0 2.2 1.55 2.2 3s-.52 3-2.2 3C4.59 12 4 10.46 4 9c0-1.45.56-3 2.25-3Zm6.24-1H10v8h1v-3h1.5c.58 0 1.05-.04 1.42-.26.37-.23.64-.54.81-.92.18-.39.27-.82.27-1.29a3 3 0 0 0-.27-1.28 2.06 2.06 0 0 0-.82-.91A2.67 2.67 0 0 0 12.5 5ZM11 9h1.48c1.09 0 1.57-.56 1.52-1.47-.05-.91-.44-1.53-1.54-1.53H11v3Z" fill="#000D8C"/></svg>