<!-- by TradingView --><svg width="18" height="18" viewBox="0 0 18 18" xmlns="http://www.w3.org/2000/svg"><path fill="#F0F3FA" d="M0 0h18v18H0z"/><path fill-rule="evenodd" d="M12.5 3.5h-7v11h7v-11ZM5 3v12h8V3H5Z" fill="#002D56"/><path d="M8 4H6v10h5v-2H8V4ZM12 6.47V7h-1.94v-.45l.9-1 .18-.25c.05-.08.09-.15.1-.21a.55.55 0 0 0 0-.38.27.27 0 0 0-.1-.14.3.3 0 0 0-.16-.04.27.27 0 0 0-.18.06.4.4 0 0 0-.11.17.67.67 0 0 0-.04.23H10a.96.96 0 0 1 1-1c.2.01.37.04.5.11a.7.7 0 0 1 .32.3c.07.12.1.28.1.46 0 .1 0 .2-.04.3-.03.09-.07.18-.13.28l-.2.28-.29.31-.36.44H12Z" fill="#002D55"/></svg>