<!-- by TradingView --><svg width="18" height="18" viewBox="0 0 18 18" xmlns="http://www.w3.org/2000/svg"><path fill="url(#aym3f0p3d)" d="M0 0h18v18H0z"/><path fill-rule="evenodd" d="M6.86 10c.47.02.88-.3.88-.86 0-.55-.37-.86-.88-.86a.83.83 0 0 0-.86.86c0 .55.39.84.86.86Zm0 1a1.85 1.85 0 1 0 0-3.71 1.85 1.85 0 0 0 0 3.71ZM9 10.8c.64.2 1.6.2 1.6.2.6 0 1.97-.32 2-1.59.02-1.59-1.53-2.1-2.6-1.55V6.42H9v4.37Zm1-.5h.71a.9.9 0 0 0 .83-.96c-.01-.9-.83-1.34-1.54-.74v1.7Z" fill="#fff"/><path d="M4 6.97A6.63 6.63 0 0 1 14 7a5.68 5.68 0 0 0-10-.03ZM4 11.03A6.63 6.63 0 0 0 14 11a5.68 5.68 0 0 1-10 .03Z" fill="#fff"/><defs><linearGradient id="aym3f0p3d" x1="9" y1="0" x2="9" y2="18" gradientUnits="userSpaceOnUse"><stop stop-color="#11D804"/><stop offset="1" stop-color="#12780B"/></linearGradient></defs></svg>