<!-- by TradingView --><svg width="18" height="18" viewBox="0 0 18 18" xmlns="http://www.w3.org/2000/svg"><path fill="#F0F3FA" d="M0 0h18v18H0z"/><path d="M7.36 11.82a4.34 4.34 0 0 1-.94-2.7v-.24c.03-1.08.38-2.04.94-2.7a3.59 3.59 0 0 1 2.96-1.34c.73 0 1.43.05 2.01.44A4.95 4.95 0 0 0 9.02 4H9a5 5 0 1 0 3.33 8.73c-.58.39-1.24.4-1.97.4a3.62 3.62 0 0 1-3-1.31Z" fill="#FF1B2D"/><path d="M7.36 6.18a2.23 2.23 0 0 1 1.7-.86c1.45 0 2.63 1.64 2.63 3.68s-1.18 3.7-2.64 3.7c-.64 0-1.23-.34-1.7-.88a3.77 3.77 0 0 0 2.98 1.53 3.6 3.6 0 0 0 2-.62 5.01 5.01 0 0 0 0-7.46 3.59 3.59 0 0 0-2-.61c-1.2 0-2.26.59-2.97 1.52Z" fill="#9C0000"/></svg>