<!-- by TradingView --><svg xmlns="http://www.w3.org/2000/svg" width="18" height="18" viewBox="0 0 18 18"><path fill="url(#az35uoioz)" d="M0 0h18v18H0z"/><path d="M5.41 5.44A4.89 4.89 0 0 1 9 4 4.89 4.89 0 0 1 14 9a4.87 4.87 0 0 1-5 5 5 5 0 0 1-3.56-1.44A5 5 0 0 1 4 9a4.84 4.84 0 0 1 1.41-3.57ZM9 12.18c1.63 0 3-1.42 3-3.17 0-1.76-1.37-3.2-3-3.2s-3 1.44-3 3.2c0 1.75 1.37 3.17 3 3.17Z" fill="#fff"/><defs><linearGradient id="az35uoioz" x1="18" y1="9" x2="0" y2="9" gradientUnits="userSpaceOnUse"><stop stop-color="#006DFF"/><stop offset="1" stop-color="#052A9B"/></linearGradient></defs></svg>