<!-- by TradingView --><svg width="18" height="18" xmlns="http://www.w3.org/2000/svg"><path fill="#1D5C9F" d="M0 0h18v18H0z"/><path d="M9.335 6.999c-1.219.005-1.957.042-2.217.108a1.005 1.005 0 00-.661.513c-.141.264-.292.694-.45 1.75-.096.474-.142.688-.136.9.01.394.243.618.696.673.332.043.991.063 1.978.057.922-.005 1.541-.025 1.852-.062.313-.036.554-.112.726-.23.153-.107.275-.265.366-.471.09-.208.181-.57.276-1.04.114-.83.177-.99.194-1.252.016-.262-.01-.459-.08-.591-.087-.166-.266-.269-.537-.307-.273-.038-.941-.054-2.007-.048zM9.737 5c1.626-.009 2.736.027 3.33.107.854.117 1.306.544 1.355 1.283.034.508-.072 1.367-.317 2.577-.246 1.215-.488 2.076-.728 2.586-.347.74-.973 1.174-1.877 1.3-.629.087-1.747.135-3.358.144-1.641.009-2.759-.027-3.352-.107-.855-.117-1.307-.545-1.356-1.283-.034-.508.077-1.384.327-2.63.24-1.183.48-2.026.718-2.533.348-.74.974-1.175 1.877-1.3.623-.087 1.751-.135 3.38-.144z" fill="#fff"/></svg>