<!-- by TradingView --><svg width="18" height="18" viewBox="0 0 18 18" xmlns="http://www.w3.org/2000/svg"><path fill="#F0F3FA" d="M0 0h18v18H0z"/><path d="M8.75 7.29h.89L9.9 15h.12l-.27-7.69a3.67 3.67 0 0 1 .85.33l2.06-1.58v8.61h-1.32l.06.33H13V3H5v12h3.46l.3-7.71Zm1.12-.77.12.04v.25a2.1 2.1 0 0 0-.43-.07H9.1v-.31h.4c.12.02.25.05.37.09Zm-.33-.13v-.86h.06c.13.01.25.05.37.1l.02.03v.84l-.45-.11Zm-.04 0h-.56v-.86h.55v.86Zm3.17-.33-1.95 1.5-.13-.07c-.2-.1-.4-.17-.62-.22a3.82 3.82 0 0 0-.87-.07v-.37h.33c.35 0 .7.1 1 .26l.24.11c.03.02.05.03.08.02h.04l.03-.01.01-.03a.12.12 0 0 0-.04-.07l-.5-.2 2.38-1.82v.97Zm0-.97L10.3 6.92l-.19-.07v-.38l-.06-.02v-.33l2.62-2.03v1Zm0-1.76v.76l-2.62 2.03v-.44h.02l.03-.01.01-.03c-.01-.11-.14-.28-.22-.36l2.29-1.95h.49Zm-.5 0L9.9 5.28a.58.58 0 0 0-.4-.15l-.04-.02h.02c.02-.02.02-.02.02-.05a.15.15 0 0 0-.03-.08.17.17 0 0 0-.07-.05h-.14l1.85-1.6h1.08Zm-6.84 5.7 2.45-2.05-.14.84.14.15L5.33 9.9v-.86Zm1.65 5.64H5.83l1.3-1.23-.15 1.23Zm.14-1.23-1.3 1.23h-.49v-.83l1.96-1.5-.17 1.1Zm.17-1.1-1.96 1.5v-1l2.1-1.6-.14 1.1Zm.14-1.1-2.1 1.6v-.98l2.25-1.75-.15 1.13Zm.15-1.13-2.25 1.75v-.98l2.4-1.87-.15 1.1Zm.14-1.1-2.39 1.87V9.9l2.45-1.92-.06 1.04Zm.15-1.1-.07-.04a.18.18 0 0 1-.04-.11c0-.03.01-.06.03-.08a.17.17 0 0 1 .06-.06l.06-.04-.04.33Zm.16-.53c-.1.05-.19.12-.27.2l.07-.5.47-.38-.04.55-.23.13m.27-.82-.52.42-2.45 2.05v-.99l2.93-2.38.04.9Zm-.04-.9L5.33 8.04v-4.7h5.77l-1.85 1.6h-.19c-.08.01-.14.06-.14.12v.02l.02.05-.15.04c-.2.05-.45.18-.5.33a.34.34 0 0 0-.03.16Zm.1.02.08-.04c.12-.05.23-.08.35-.1l.1-.01v.86l-.53.13v-.84Z" fill="#031F73"/><path d="M10.54 9H10l.05 1h.51l-.02-1ZM10.78 12.67h-.52l.02 1h.6l-.1-1Z" fill="#031F73"/><path d="m10.06 6.1 1.44 8.86h1.32V3.19H5.27v11.63H7l.86-6.84.45-.6v-.73l.13-1.29H9.9l.16.74Z" fill="#031F73" fill-opacity=".2"/></svg>