<!-- by TradingView --><svg width="18" height="18" xmlns="http://www.w3.org/2000/svg"><path fill="#F0F3FA" d="M0 0h18v18H0z"/><path d="M7.415 6.328c-.456.083-1.131.485-1.129 1.196.002.646.545 1.037.547 1.883.002.636-.359 1.065-.749 1.302.158-.013.33-.022.52-.022a4.48 4.48 0 01.655.038l2.043-2.438a8.37 8.37 0 00-1.887-1.96zM9.132 12.912c.258-.39.29-1.01.312-1.642.024-.59.15-1.033.962-1.036.18 0 .35.024.66.023 1.19-.005 1.965-.403 2.448-.664a8.654 8.654 0 00-4.212-1.306c-.116.32-1.021 2.766-1.09 2.963.01.012.17.184.367.521.292.463.449.855.553 1.14z" fill="#E1002A"/><path d="M4.815 10.914c-.104 0-.155-.067-.169-.182-.013-.115-.524-4.661-.6-5.35-.011-.1-.037-.284-.037-.35 0-.106.07-.161.154-.161.242-.001 1.562.3 2.963 1.254-.404.11-1.134.518-1.13 1.363.002.748.553 1.16.556 1.91.004 1.22-1.439 1.515-1.737 1.516zM9.25 13.236a.869.869 0 00.063.138c.032.053.074.077.125.077.033 0 .073-.011.117-.03.108-.049 4.376-1.98 5.02-2.269.093-.043.27-.12.328-.153.06-.034.088-.083.088-.132a.154.154 0 00-.025-.082c-.08-.126-.493-.552-1.183-1.018-.549.293-1.404.747-2.678.752-.312 0-.382-.02-.595-.019-.622.002-.777.26-.8.79-.004.1-.005.235-.011.383-.02.473-.078 1.126-.45 1.563z" fill="#EE7602"/></svg>