<!-- by TradingView --><svg width="18" height="18" xmlns="http://www.w3.org/2000/svg"><path fill="#E82C2A" d="M0 0h18v18H0z"/><path d="M9.065 6.141v.634c1.284.02 2.401.821 2.906 2.163h2.024c0-2.163-2.695-3.718-4.93-2.797zM9 11.894v-.64c-1.297-.02-2.452-.897-2.962-2.253H4c0 .822.398 1.593.999 2.142.661.605 1.594.983 2.629.983.466 0 .931 0 1.372-.232zM6.116 8.948h.638C6.774 7.666 7.65 6.524 9 6.02V4C7.086 4 5.875 5.927 5.875 7.676c0 .436.042.877.241 1.272z" fill="#fff"/><path d="M9.063 6c1.879-.625 4.021.077 4.842 1.925 0-.62-.845-2.073-1.444-2.604C11.578 4.539 10.363 4 9.063 4v2zM5.984 8.942c-.702-1.61.227-4.258 1.936-4.812-.405.045-.897.269-1.286.463C5.118 5.501 4 7.15 4 8.943h1.984zM11.911 9.001h-.635c-.02 1.291-.89 2.442-2.234 2.95v2.024c2.29 0 3.688-2.744 2.87-4.974z" fill="#fff"/><path d="M10.107 13.885C12.564 13.283 14 11.583 14 9.001h-1.984c.684 1.877-.105 3.99-1.91 4.884zM9 14v-1.98c-2.289.674-4.083-.384-4.95-1.915C4.616 12.332 6.348 14 9 14z" fill="#fff"/></svg>