<!-- by TradingView --><svg width="18" height="18" xmlns="http://www.w3.org/2000/svg"><path fill="#F60" d="M0 0h18v18H0z"/><path d="M8.744 4.008c.928-.058 1.889.194 2.654.829.662.542 1.138 1.362 1.373 2.263.25.961.282 1.99.16 2.981-.112.854-.388 1.692-.864 2.358a3.621 3.621 0 01-2.107 1.445c-.874.21-1.804.14-2.634-.254-.688-.326-1.287-.906-1.678-1.646-.482-.905-.664-1.991-.647-3.047-.005-1.12.226-2.279.805-3.19a3.668 3.668 0 012.938-1.739zm-.087 2.14c-.438.068-.845.353-1.092.782-.32.553-.418 1.234-.439 1.888-.013.73.057 1.491.373 2.133.219.444.6.77 1.03.873.525.126 1.116.058 1.556-.326.396-.35.608-.91.704-1.467a6.41 6.41 0 00.022-1.926c-.083-.566-.269-1.146-.65-1.53-.406-.416-.986-.516-1.504-.426z" fill="#fff"/></svg>