<!-- by TradingView --><svg width="18" height="18" viewBox="0 0 18 18" xmlns="http://www.w3.org/2000/svg"><path fill="#F0F3FA" d="M0 0h18v18H0z"/><path d="M10.14 13.48 13 12l-1.26-1.13-3.02 1.61 1.42 1Z" fill="url(#a)"/><path d="M10.67 15 5 12l1.56-1 4.1 2.2V15Z" fill="url(#b)"/><path d="M7.86 4.52 5 6l1.25 1.13 3.02-1.61-1.41-1Z" fill="url(#c)"/><path d="M7.3 3 13 6l-1.57 1L7.3 4.8V3Z" fill="url(#d)"/><path d="m5 12 8-4.18V6l-8 4.18V12Z" fill="url(#e)"/><path d="M13 12 5 7.82V6l8 4.18V12Z" fill="#FEB81C"/><defs><linearGradient id="a" x1="12.06" y1="11.52" x2="10.89" y2="13.5" gradientUnits="userSpaceOnUse"><stop stop-color="#FAAF08"/><stop offset=".23" stop-color="#FED000"/></linearGradient><linearGradient id="b" x1="5.75" y1="11.5" x2="8.75" y2="14.16" gradientUnits="userSpaceOnUse"><stop stop-color="#F38F03"/><stop offset=".25" stop-color="#FEB81C"/></linearGradient><linearGradient id="c" x1="5.93" y1="6.48" x2="7.1" y2="4.5" gradientUnits="userSpaceOnUse"><stop stop-color="#FAAF08"/><stop offset=".23" stop-color="#FED000"/></linearGradient><linearGradient id="d" x1="12.24" y1="6.5" x2="9.25" y2="3.84" gradientUnits="userSpaceOnUse"><stop stop-color="#F38F03"/><stop offset=".25" stop-color="#FEB81C"/></linearGradient><linearGradient id="e" x1="11.41" y1="7.12" x2="8.3" y2="13.02" gradientUnits="userSpaceOnUse"><stop offset=".16" stop-color="#FFD101"/><stop offset=".3" stop-color="#FEAF0A"/><stop offset=".54" stop-color="#FBAF03"/><stop offset=".64" stop-color="#FFD101"/></linearGradient></defs></svg>