<!-- by TradingView --><svg xmlns="http://www.w3.org/2000/svg" width="18" height="18" viewBox="0 0 18 18"><path fill="url(#axz14nx0r)" d="M0 0h18v18H0z"/><path d="M11.2 4h-.75v1.25h.57c.37 0 .55.18.55.58v6.34c0 .4-.18.58-.55.58h-.57V14h.76c1.2 0 1.79-.6 1.79-1.83V5.83C13 4.6 12.4 4 11.2 4ZM6.43 12.17V5.83c0-.4.18-.58.57-.58h.55V4H6.8C5.6 4 5 4.6 5 5.83v6.34C5 13.4 5.6 14 6.8 14h.75v-1.25H7c-.39 0-.57-.18-.57-.58Z" fill="#fff"/><path d="M7 6.4a1 1 0 0 1 1-1h2a1 1 0 0 1 1 1v5.2a1 1 0 0 1-1 1H8a1 1 0 0 1-1-1V6.4Z" fill="url(#bxz14nx0r)"/><defs><linearGradient id="axz14nx0r" x1="3.35" y1="3.12" x2="21.9" y2="24.43" gradientUnits="userSpaceOnUse"><stop stop-color="#1A1E21"/><stop offset="1" stop-color="#06060A"/></linearGradient><linearGradient id="bxz14nx0r" x1="10.17" y1="5.56" x2="7.18" y2="12.89" gradientUnits="userSpaceOnUse"><stop stop-color="#fff"/><stop offset=".27" stop-color="#fff" stop-opacity=".19"/><stop offset=".57" stop-color="#fff"/><stop offset=".93" stop-color="#fff" stop-opacity="0"/></linearGradient></defs></svg>