<!-- by TradingView --><svg xmlns="http://www.w3.org/2000/svg" width="18" height="18" viewBox="0 0 18 18"><path fill="#F0F3FA" d="M0 0h18v18H0z"/><path fill-rule="evenodd" d="M4 11a2 2 0 1 0 0-4 2 2 0 0 0 0 4Zm0-1a1 1 0 1 0 0-2 1 1 0 0 0 0 2ZM7.8 7H6.33v4h1V9.47L8.36 11h.53l.03-.02c.09-.08.25-.23.34-.28L8.3 9.36A1.23 1.23 0 0 0 7.8 7Zm-.47.8v.9h.33a.44.44 0 1 0 0-.9h-.33Z" fill="#494D51"/><path d="M9.52 10.44V7h1v2.9c-.37.16-.82.43-1 .54ZM11.37 11l.38-.8h-.23c-.57.18-1.49.62-1.87.8h1.72ZM12.22 10.05l-.47.96h1.07l.46-1.17-1.06.2ZM14.29 9.75l.55 1.26h1.03l-.6-1.22c-.2-.02-.77-.04-.98-.04ZM13.81 7l-1.08 1.82c.3-.08.75-.14.93-.17l.15-.27.14.23.78-.06L13.81 7Z" fill="#494D51"/><path d="M11.33 9.58c2-.9 3.92-.94 4.67-.85l-.4.92a9.3 9.3 0 0 0-3.96.4A9.97 9.97 0 0 0 7.22 13a11 11 0 0 1 4.11-3.42Z" fill="#AF1E28"/></svg>