<!-- by TradingView --><svg width="18" height="18" xmlns="http://www.w3.org/2000/svg"><path fill="#009D57" d="M0 0h18v18H0z"/><path d="M8.936 5.042c-1.563 0-2.402 1.28-2.402 3.693 0 1.763.547 4.213 2.619 4.213 1.665 0 2.313-1.467 2.313-3.809 0-2.47-.953-4.097-2.53-4.097zm4.564 3.91c0 3.15-1.856 5.043-4.59 5.043-2.554 0-4.41-1.907-4.41-4.928 0-2.86 1.881-5.072 4.538-5.072 2.644 0 4.462 2.023 4.462 4.956z" fill="#fff"/><path d="M9.189 11.028a.816.816 0 00.091-.083.22.22 0 01-.091.083zm-.032-2.972a1.542 1.542 0 00-.02-.14l.027.017a2.807 2.807 0 01-.007.123zm1.735.68c0-.307-.267-.556-.596-.556a.622.622 0 00-.361.114.61.61 0 00.058-.199.521.521 0 00.07-.261c0-.307-.266-.556-.595-.556a.616.616 0 00-.414.156.617.617 0 00-.43-.17c-.328 0-.595.248-.595.555 0 .163.076.31.196.412l.035.063-.011.001a.619.619 0 00-.362-.115c-.33 0-.596.25-.596.556 0 .16.074.305.19.406-.098.1-.16.233-.16.379a.56.56 0 00.399.524c.01.008.019.016.03.023a.408.408 0 00.407.033.303.303 0 00.2-.084.433.433 0 00.145-.072l-.03.02a.452.452 0 00.13-.075c.08-.017.162-.028.238-.057l-.034.013c.045-.002.09-.002.136-.005.003.164.006.328-.006.492-.002.035-.017.07-.026.105l.004-.019c-.034.07-.063.141-.101.209a.217.217 0 01.034-.026c-.013.01-.025.022-.038.034-.006.01-.01.02-.017.03a.064.064 0 01.012-.026.374.374 0 00-.103.165v-.018a.288.288 0 00.14.39c.15.069.33.008.403-.137l.014-.026c.149-.155.223-.368.265-.58.038-.19.025-.372.02-.556.23.153.5.183.767.168l.03-.001h.016a.301.301 0 00.257-.142.53.53 0 00.147-.818.53.53 0 00.132-.35z" fill="#fff"/></svg>