<!-- by TradingView --><svg width="18" height="18" viewBox="0 0 18 18" xmlns="http://www.w3.org/2000/svg"><path fill="#F0F3FA" d="M0 0h18v18H0z"/><path d="M9.2 13.95a3.93 3.93 0 0 0 2.5-.42c.58-.3 1.09-.75 1.5-1.3-.44.23-2.36 1.26-3.95 1.7l-.05.02ZM9.2 4.05l.16.06c1.62.47 3.55 1.57 3.9 1.77a4.49 4.49 0 0 0-1.51-1.38 3.95 3.95 0 0 0-2.55-.45Z" fill="#009ADA"/><path d="M6.3 7a5.42 5.42 0 0 0-.03 3.92L6.3 7Z" fill="#2261AE"/><path d="M13.7 6.34a5.5 5.5 0 0 1-.05 5.4c.44-.27 1.2-.84 1.3-1.73l.02-.22c.04-.5.04-1 0-1.51l-.02-.2c-.08-.9-.81-1.46-1.24-1.74Z" fill="#009ADA"/><path d="M10.24 4.65a4.75 4.75 0 0 1 1.63 1.84 5.48 5.48 0 0 1-.03 5.05c-.4.77-.98 1.4-1.67 1.84 1.04-.4 2.06-.89 3.04-1.44l.12-.06a5.33 5.33 0 0 0 .06-5.67 24.49 24.49 0 0 0-3.15-1.55ZM8.47 4.15c-.69 0-1.22.2-1.58.61-.29.34-.46.8-.47 1.26v.5a4.54 4.54 0 0 1 2.65-2.3 3.4 3.4 0 0 0-.57-.07h-.03ZM8.46 13.85c.19 0 .38-.02.56-.06a4.54 4.54 0 0 1-2.65-2.28V12c.02.47.19.9.47 1.24.36.4.9.6 1.59.6h.03Z" fill="#2261AE"/><path d="M4 9c0 1.03.29 2.03.82 2.86a4.43 4.43 0 0 0 2.16 1.79 1.95 1.95 0 0 1-.6-.71 2.22 2.22 0 0 1-.22-.94v-.78a5.55 5.55 0 0 1 .03-4.52v-.72c.01-.5.2-.98.5-1.35.1-.11.22-.22.35-.3-.88.31-1.65.93-2.2 1.77A5.33 5.33 0 0 0 4 9Z" fill="#009ADA"/></svg>