<!-- by TradingView --><svg width="18" height="18" viewBox="0 0 18 18" xmlns="http://www.w3.org/2000/svg"><path fill="#47A98B" d="M0 0h18v18H0z"/><path d="M7.06 5.6c.2-1.22 1.06-2.55 3.41-2.6 1.07-.04 3.25.48 3.47 2.94.07.76-.18 1.3-.6 1.73.42.72.66 1.55.66 2.44C14 12.8 11.76 15 9 15s-5-2.19-5-4.9a4.9 4.9 0 0 1 3.06-4.5Zm2.13-.38c1 .04 1.94.37 2.7.9a.72.72 0 0 0 .04-.18c.04-1.01-1.12-1.19-1.46-1.19-.22 0-.84.03-1.28.47Zm1.37 1.98A3.4 3.4 0 0 0 9 6.82a3.33 3.33 0 0 0-3.36 3.29c0 1.82 1.5 3.29 3.36 3.29 1.14 0 2.14-.55 2.75-1.4H7v-1.43c-.03-.63.52-2.12 2.76-3.11.22-.06.5-.14.8-.26Zm1.78 3.24a3.26 3.26 0 0 0-.39-1.91l-.85.35c-1.05.4-2.03.78-2.19 1.56h3.43Z" fill="#fff" fill-opacity=".7"/></svg>