<!-- by TradingView --><svg width="18" height="18" xmlns="http://www.w3.org/2000/svg"><path fill="url(#paint0_linear)" d="M0 0h18v18H0z"/><path d="M7.46 3.603c-.362.33-.89.813-1.186 1.074-.729.635-1.013.94-1.155 1.238C5.006 6.157 5 6.277 5 8.481c0 2.122.006 2.319.107 2.414.112.108 1.979 1.06 2.459 1.251l.434.178v1.946l.615.34c1.09.553 1.078.553 1.92-.228l1.317-1.28.915-.956s.233-.233.233-.406V9.478c0-2.076.028-2.258-.066-2.347-.101-.095-1.147-.611-1.147-.611s-.921-.478-1.176-.605l-.607-.356V3.71l-.245-.125-.712-.336-.356-.162S8.55 3 8.39 3c-.267 0-.303.025-.93.603zm2.358 6.885l-.89.813s-.781.712-.847.762C7.963 12.153 8 12.223 8 10V7.695l.74-.706c.426-.394.876-.807.995-.921l.269-.236v4.494l-.186.162z" fill="#fff"/><defs><linearGradient id="paint0_linear" x1="3.349" y1="3.122" x2="21.904" y2="24.434" gradientUnits="userSpaceOnUse"><stop stop-color="#1A1E21"/><stop offset="1" stop-color="#06060A"/></linearGradient></defs></svg>