<!-- by TradingView --><svg width="18" height="18" viewBox="0 0 18 18" xmlns="http://www.w3.org/2000/svg"><path fill="#F0F3FA" d="M0 0h18v18H0z"/><path d="m10.98 4.25.32.12v.06c0 .02.01.04.04.05.05.02.11.02.17.01l.18.11a.15.15 0 0 1-.08.03c-.67.02-1.35.23-1.84.65a2.17 2.17 0 0 0-.74 1.8c.02.08.02.15 0 .23-.09-.26-.14-.52-.14-.78.01-1 .49-1.65 1.43-1.99a2.64 2.64 0 0 1 .88-.13v-.02l-.01-.02a2.38 2.38 0 0 0-2.3 1.31c-.22.42-.32.86-.3 1.33.03.6.28 1.14.75 1.6l-1.33-.16c-.65-.34-1.25-.7-1.8-1.1a2.6 2.6 0 0 1-.55-.5c.42-.27.8-.57 1.18-.91l.58-.41c.65-.48 1.31-.84 1.99-1.09.46-.17.99-.23 1.57-.19Z" fill="#2A2B54"/><path d="M11.52 4.5a.37.37 0 0 1-.18-.02c-.03 0-.04-.03-.05-.05l.01-.06c.1.02.18.06.22.12Z" fill="#A1A9B1"/><path d="M12.26 4.81a3.73 3.73 0 0 1 1.6 1.98v.03l-.03.02C13.29 7 12.8 7 12.4 6.8a1.2 1.2 0 0 1-.6-.63c-.1-.23-.1-.46-.03-.7.08-.26.22-.47.41-.65l.04-.02.03.01Z" fill="url(#a)"/><path d="M9.4 4.44c.48-.17 1-.23 1.58-.19A5.73 5.73 0 0 0 9.25 4c-.79 0-1.53.18-2.23.53-.7.35-1.22.85-1.52 1.5l1.34-.1c.2-.12.39-.26.58-.4.65-.48 1.31-.84 1.99-1.09Z" fill="url(#b)"/><path d="M5.66 6.84c.42-.26.8-.56 1.18-.9l-1.34.1c-.05.3 0 .56.16.8Z" fill="url(#c)"/><path d="m11.69 4.6.02.01v.02a.55.55 0 0 0-.07.18c-.15.52-.14 1 .04 1.46.22.4.56.66 1.03.76.2.05.42.05.64.01.2-.03.37-.07.52-.12.02 0 .04 0 .05.03.13.61.16 1.35-.35 1.8-.43.37-.95.53-1.56.5-1.07-.05-2.23-.57-2.78-1.5" fill="url(#d)"/><path d="m9.23 7.75-.2-.44a.51.51 0 0 0 0-.23c-.02-.74.23-1.34.74-1.8a2.93 2.93 0 0 1 1.84-.65c.03 0 .05-.01.08-.03" fill="url(#e)"/><path d="M7.31 13.62c.4 0 .76-.1 1.09-.26a2.06 2.06 0 0 0 1.05-2.14 3.11 3.11 0 0 0-1.33-2.15 5.25 5.25 0 0 0-2.55-.98c-.27 0-.45 0-.54.02-.5.14-.82.46-.97.96-.11.53-.07 1.07.12 1.62 0 .03.03.04.05.03l.07-.02c.15-.06.35-.12.51-.13.57-.02.99.2 1.27.64a1.73 1.73 0 0 1 .16 1.35c-.03.16-.04.3-.02.41.06.33.2.4.68.56 0 0 .3.1.41.1Z" fill="url(#f)"/><path d="M5.84 12.75a.52.52 0 0 0-.06.18c0 .03-.02.04-.05.01a4.44 4.44 0 0 1-1.5-2.1c0-.02.01-.03.04-.04.27-.1.45-.14.54-.13.53 0 .91.2 1.14.58.13.22.18.47.16.75-.02.24-.1.49-.27.75Z" fill="#ECA116"/><path d="M9.34 8.6c.29.25.61.46.98.66.49.26.96.55 1.42.86.34.23.62.46.85.68.07.08.14.17.2.29-1.37.15-2.08-1.15-3.61-1.64a4.76 4.76 0 0 0-1.17-1l1.33.15Z" fill="url(#g)"/><path d="M12.8 11.09c.15.36.12.72-.1 1.08a1.47 1.47 0 0 0-.45-.7c-.02-.02-.04-.02-.06 0a34 34 0 0 1-1.45 1.16 6.08 6.08 0 0 1-2.09 1.04c-.37.12-.7.12-.99 0 .55-.1 1-.32 1.34-.66a2.72 2.72 0 0 0 .18-3.57c1.53.5 2.24 1.8 3.61 1.65Z" fill="url(#h)"/><path d="M13.03 11.47c0 1.49-2.5 2.49-3.72 2.53-.7.02-1.39-.08-2.06-.3.02-.03.04-.04.07-.02h.34c.29.1.62.1 1 0a7.2 7.2 0 0 0 2.08-1.05c1.37-1.03 1.8-1.91 1.85-1.87.22.2.36.43.44.7Z" fill="#0B9A88"/><defs><linearGradient id="a" x1="12.39" y1="5.25" x2="13.15" y2="6.83" gradientUnits="userSpaceOnUse"><stop stop-color="#F3C409"/><stop offset="1" stop-color="#EDA216"/></linearGradient><linearGradient id="b" x1="9.48" y1="4.31" x2="5.83" y2="6.44" gradientUnits="userSpaceOnUse"><stop stop-color="#55719F"/><stop offset="1" stop-color="#425486"/></linearGradient><linearGradient id="c" x1="9.48" y1="4.31" x2="5.83" y2="6.44"><stop offset="1" stop-color="#425486"/></linearGradient><linearGradient id="d" x1="10.45" y1="5.41" x2="12.45" y2="9.21" gradientUnits="userSpaceOnUse"><stop stop-color="#A4ABB3"/><stop offset="1" stop-color="#606C7A"/></linearGradient><linearGradient id="e" x1="10.45" y1="5.41" x2="12.45" y2="9.21" gradientUnits="userSpaceOnUse"><stop stop-color="#A4ABB3"/><stop offset="1" stop-color="#606C7A"/></linearGradient><linearGradient id="f" x1="7.39" y1="9" x2="6.16" y2="11.07" gradientUnits="userSpaceOnUse"><stop stop-color="#C39706"/><stop offset="1" stop-color="#EEBC0A"/></linearGradient><linearGradient id="g" x1="11.42" y1="10.09" x2="8.63" y2="13.77" gradientUnits="userSpaceOnUse"><stop stop-color="#095D61"/><stop offset=".34" stop-color="#09807D"/></linearGradient><linearGradient id="h" x1="11.42" y1="10.09" x2="8.63" y2="13.77" gradientUnits="userSpaceOnUse"><stop stop-color="#095D61"/><stop offset=".34" stop-color="#09807D"/><stop offset="1" stop-color="#0B5559"/></linearGradient></defs></svg>