<!-- by TradingView --><svg width="18" height="18" fill="none" xmlns="http://www.w3.org/2000/svg"><path fill="#998F8E" d="M0 0h18v18H0z"/><path fill-rule="evenodd" clip-rule="evenodd" d="M9.18 14.597a5.578 5.578 0 002.235-.541 6.234 6.234 0 01-.853-.73 5.745 5.745 0 01-1.204 1.15l-.178.121zM14.603 9.2a5.598 5.598 0 01-2.788 4.645 5.833 5.833 0 01-1.013-.847c.72-1.048 1.162-2.367 1.2-3.798h-.406c-.035 1.32-.414 2.537-1.051 3.509A5.773 5.773 0 019.207 9.2H8.8a5.773 5.773 0 01-1.323 3.491c-.627-.974-1-2.187-1.035-3.491h-.438c.038 1.427.478 2.752 1.192 3.806a5.83 5.83 0 01-1.005.839A5.598 5.598 0 013.404 9.2h-.4a6.002 6.002 0 006 5.8 6.002 6.002 0 006-5.8h-.401zm0-.4h.4a6.002 6.002 0 00-6-5.8 6.002 6.002 0 00-6 5.8h.4a5.598 5.598 0 012.789-4.645c.376.248.722.54 1.03.866-.73 1.035-1.18 2.338-1.218 3.78h.438c.034-1.326.405-2.527 1.04-3.484A5.772 5.772 0 018.8 8.8h.407a5.772 5.772 0 011.313-3.48c.647.963 1.04 2.165 1.076 3.48h.406c-.038-1.437-.485-2.747-1.21-3.787.306-.324.65-.612 1.023-.858A5.598 5.598 0 0114.603 8.8zm-5.6 1.768a6.183 6.183 0 001.303 2.478 5.083 5.083 0 01-1.303 1.207 5.1 5.1 0 01-1.29-1.222 6.184 6.184 0 001.29-2.463zm-1.28-5.587c.597.7 1.041 1.534 1.28 2.451a6.183 6.183 0 011.275-2.445 5.286 5.286 0 00-1.275-1.178c-.488.311-.918.707-1.28 1.172zm1.68-1.39c.424.306.81.675 1.147 1.097a6.24 6.24 0 01.865-.744 5.58 5.58 0 00-2.32-.543l.309.19zm-.597 11.006l-.203-.126a5.703 5.703 0 01-1.168-1.136 6.236 6.236 0 01-.844.721 5.577 5.577 0 002.215.54zm-1.34-9.9a5.863 5.863 0 011.182-1.11l.272-.186a5.58 5.58 0 00-2.329.543c.315.224.608.476.876.754z" fill="#fff"/></svg>