<!-- by TradingView --><svg width="18" height="18" xmlns="http://www.w3.org/2000/svg"><path fill="#101B57" d="M0 0h18v18H0z"/><path d="M10.056 9.638C10.056 11.254 9.15 13 6.76 13c-1.73 0-3.315-1.004-3.315-3.362 0-1.943 1.194-3.449 3.542-3.318 2.512.153 3.068 2.161 3.068 3.318zM5.588 8.416c-.227.349-.31.786-.31 1.222 0 .983.474 1.878 1.483 1.878.989 0 1.462-.83 1.462-1.79 0-.699-.165-1.223-.515-1.55-.37-.35-.803-.372-1.07-.35-.495.022-.803.197-1.05.59z" fill="#fff"/><path d="M13 5h-2v5.847c0 .635.038 1.11.296 1.496.41.612 1.144.657 1.792.657.345 0 .502-.045.912-.113v-1.519l-.534.023c-.518 0-.466-.373-.466-.748V7.366h1L15 6h-2V5z" fill="#fff"/></svg>