<!-- by TradingView --><svg xmlns="http://www.w3.org/2000/svg" width="18" height="18"><path fill="url(#aq0sruipk)" d="M0 0h18v18H0z"/><path d="M8.16 13.7c.18-.2.4-.4.53-.5l-.3-.05a8.88 8.88 0 00-.46.43l-.36.38c-.12.03-.2.12-.35.16-.21.06-.4.04-.4.18 0 0-.23.1-.18.27 0 0 .45-.33.83-.39 0 0-.23.15-.21.34 0 0 .31-.44.67-.18 0 0-.16-.2-.09-.32l.32-.33zm3.76-5.54l-2.18.5L14 6.92l-3.51.4 1.88-1.28-2.01.74.3-.58-1.44.98-.01-.02L11.25 3 7.93 6.7l-.02-2.02L6 8.74l.96.39s-.05-.17 0-.23c.02-.02.05-.03.1-.01h.04c.07-.08-.29-.7-.29-.7s-.32-.04-.6.24a.84.84 0 00-.06.06 1.18 1.18 0 01.27-.3.94.94 0 01.34-.18c.04-.08 0-.03.07-.07a2.52 2.52 0 01.73-1.38s-.12.2-.12.35c0 0 .12-.17.28-.32-.03.07-.25.51-.23.64l.44-.38c-.01.02-.41.53-.45.7v.01l.67-.45s-.09.11-.12.17L8 7.34l.36-.14-.04.04-.13.13-.04.03-.24.24-.2.18-.11.11s-.1.1-.11.15c-.01.05.04.08.04.08.05.02.1.07.12.11a.23.23 0 01-.06.27.28.28 0 01-.2.07.28.28 0 01-.17-.06c.01.01.14.17.39.05l.3-.2.01-.02.31-.21c.07.08.14.18.2.29A21.89 21.89 0 007.1 9.79l.11-.5.01-.03H7.2l-.01.01-.01.01h-.01l-.01.01-.01.01h-.01v.02h-.01l-.01.01H7.1a.04.04 0 01-.01.02.07.07 0 01-.01 0l-.01.02a.03.03 0 00-.01 0l-.01.01-.01.01-.01.01a.36.36 0 00-.01.01v.01h-.01a.03.03 0 01-.01.01.06.06 0 01-.01.02h-.01l-.01.02-.01.01-.02.01v.02l-.02.01v.01l-.02.02-.01.01-.02.02v.01l-.03.03-.02.04a.12.12 0 01-.01 0l-.02.03v.01l-.02.03-.01.01-.02.03v.01l-.02.03a.26.26 0 00-.01.01l-.02.03v.02a3.21 3.21 0 00-.08.13l-.12.02.07-.16-.2.26.2-.02c-.17.38-.3.86-.3 1.56l.17-.1c.14.78.82 1.12.82 1.12.37.22.83.39 1.33.45l.14.01h.02c.28.03.54.02.8-.02a.37.37 0 00-.01.03c0 .16.07.25.11.25a6 6 0 00-.48.96l-.12.04c-.02-.02-.12-.01-.3.06a.57.57 0 00-.3.26c.09-.06.23-.16.35-.14-.14.07-.38.21-.4.42 0 0 .83-.55 1.24-.45 0 0-.06.06.08.3l.07-.22c.07-.22-.22-.25-.34-.25l.04-.1a5.31 5.31 0 01.42-.82.1.1 0 000-.02l-.03-.04.04-.05a.32.32 0 00.06-.17.56.56 0 00-.07-.24l.11-.05.02.04.01.03v.01a.54.54 0 00.02.03l.61-.17-.13-.1h-.01l-2.32-2a146 146 0 002.67 1.2c1.25.54 2.05.86 2.46 1.02l.16.06.18.07.02-.01-4.68-3.03 2.9-1.88z" fill="#EF2C33"/><defs><linearGradient id="aq0sruipk" x1="3.35" y1="3.12" x2="21.9" y2="24.43" gradientUnits="userSpaceOnUse"><stop stop-color="#1A1E21"/><stop offset="1" stop-color="#06060A"/></linearGradient></defs></svg>