<!-- by TradingView --><svg width="18" height="18" xmlns="http://www.w3.org/2000/svg"><path fill="#004890" d="M0 0h18v18H0z"/><path d="M7.407 5.015C6.624 6.122 5.989 7.03 5.998 7.04c.01.01.157-.025.336-.075.975-.278 2.383-.268 3.278.03.349.114.885.432 1.154.685.219.208.59.65.59.705 0 .015-.134-.11-.3-.278-.724-.735-1.851-1.077-3.094-.943-.935.1-1.548.308-2.116.73-.68.496-1.006 1.25-.77 1.761.193.412.69.834 1.213 1.027.675.253 2.026.338 2.885.184 1.274-.233 2.285-.829 2.647-1.563.345-.71.184-1.578-.416-2.238-.666-.73-1.784-1.057-2.907-.849-.317.06-.402.04-.201-.045.725-.307 1.87-.287 2.675.055.12.05.228.084.241.074.009-.01-.443-.665-1.006-1.449-.564-.789-1.087-1.528-1.172-1.647-.08-.114-.161-.209-.174-.204-.018 0-.671.908-1.454 2.015z" fill="#fff"/><path d="M7.322 12.866C8.149 14.042 8.842 15 8.856 15c.018.005.55-.725 1.185-1.623a876.69 876.69 0 011.507-2.114c.197-.268.318-.476.273-.451a7.293 7.293 0 01-3.059.67c-1.02 0-1.784-.149-2.941-.616-.009 0 .67.829 1.501 2z" fill="#fff"/></svg>