<!-- by TradingView --><svg xmlns="http://www.w3.org/2000/svg" width="18" height="18" viewBox="0 0 18 18"><path fill="#71D2B8" d="M0 0h18v18H0z"/><path d="M11 10.37c-.4 0-.77-.11-1.12-.32l-.75.78-.14.06a.41.41 0 0 1-.18-.06l-.75-.75a2.25 2.25 0 1 1 .92-2.92 2.2 2.2 0 0 1 2.03-1.3 2.25 2.25 0 0 1 0 4.51Zm3.5-1.36c0-1.32-.5-2.6-1.33-3.58l.38-.78a.18.18 0 0 0-.03-.2c-.03-.05-.12-.08-.17-.08l-1.19.14a5.4 5.4 0 0 0-6.32 0l-1.19-.14a.26.26 0 0 0-.2.08.25.25 0 0 0 0 .2l.38.78A5.39 5.39 0 0 0 3.5 9.01v.15l.4.32c.58.54 1.19 1.06 1.91 1.56 1.41.98 1.39 1.87 1.18 2.65l-.14.35v.03c.66.26 1.38.43 2.14.43a5.1 5.1 0 0 0 2.1-.43l-.14-.38c-.2-.78-.23-1.67 1.18-2.65.67-.46 1.23-.93 1.77-1.43.17-.16.6-.46.6-.6Z" fill="#fff"/><path d="m14.41 9.72-.49.43c-.46.4-.98.81-1.56 1.22-1.15.8-1.18 1.5-1.04 2.13a5.4 5.4 0 0 0 .18.4v-.02.03-.03a5.43 5.43 0 0 0 2.94-4.16h-.03ZM6.62 13.5c.14-.63.11-1.32-1.04-2.13-.58-.4-1.1-.81-1.56-1.22l-.46-.34a5.53 5.53 0 0 0 2.88 4.07c.12-.2.18-.38.18-.38ZM8.99 10.41l-.58-.57c.23-.2.43-.47.58-.75.14.28.31.52.57.75L9 10.4ZM7.89 8.5c-.29.24-.6.35-.95.35s-.67-.11-.93-.34a.22.22 0 0 0-.29.06c-.08.08-.05.2.03.28a1.96 1.96 0 0 0 2.37 0c.11-.08.11-.2.06-.28-.09-.1-.2-.12-.3-.06Zm-2.77-.4a1.84 1.84 0 0 1 3.66-.17c.03.12.03.26 0 .38a1.84 1.84 0 0 1-3.67-.2ZM11.93 8.5c-.29.24-.6.35-.95.35s-.67-.11-.93-.34a.22.22 0 0 0-.28.06c-.1.08-.06.2.02.28a1.96 1.96 0 0 0 2.37 0c.12-.08.12-.2.06-.28-.09-.1-.2-.12-.29-.06Zm-.9-2.21a1.84 1.84 0 1 1 0 3.66c-.95 0-1.73-.72-1.84-1.64v-.38c.11-.92.9-1.64 1.85-1.64Z" fill="#fff"/></svg>