<!-- by TradingView --><svg width="18" height="18" viewBox="0 0 18 18" xmlns="http://www.w3.org/2000/svg"><path fill="url(#a1fgxcsx5)" d="M0 0h18v18H0z"/><path fill-rule="evenodd" d="M13.5 4.5h-9v9h9v-9ZM4 4v10h10V4H4Z" fill="#fff"/><path d="M6.98 7c1.16 0 1.97.8 1.97 1.97 0 1.14-.82 2.03-1.98 2.03C5.81 11 5 10.2 5 9.03 5 7.9 5.82 7 6.98 7Zm-.03.1c-.9 0-1.12 1.22-1.12 1.91 0 .7.26 1.9 1.16 1.9.91 0 1.13-1.23 1.13-1.92 0-.7-.26-1.9-1.17-1.9ZM11.5 7v.1c-.35 0-.5.11-.5.47v2.89c0 .3.12.4.43.4h.4c.65 0 .94-.62 1.01-1.2H13V11H9.8v-.12c.33-.02.47-.12.47-.47V7.57c0-.34-.13-.46-.48-.47V7h1.71Z" fill="#fff"/><defs><linearGradient id="a1fgxcsx5" x1="3.35" y1="3.12" x2="21.9" y2="24.43" gradientUnits="userSpaceOnUse"><stop stop-color="#1A1E21"/><stop offset="1" stop-color="#06060A"/></linearGradient></defs></svg>