<!-- by TradingView --><svg width="18" height="18" xmlns="http://www.w3.org/2000/svg"><path fill="#083970" d="M0 0h18v18H0z"/><path fill="#fff" d="M4 9.054h10v3.944H4z"/><path fill="#fff" d="M8.375 4.647h1.25V9.2h-1.25zM8.688 3.714h.625v.679h-.625z"/><path fill="#fff" d="M8.844 3.466h.313v.679h-.313z"/><path fill="#fff" d="M8.498 4.057h1.004V4.4H8.498z"/><rect x="6.813" y="3.029" width="4.375" height=".343" rx=".171" fill="#fff"/><path fill="#fff" d="M7.75 7.143h2.5v.686h-2.5zM7.75 7.987h2.5v.686h-2.5zM6.344 8.373h.469v.681h-.469zM6.969 8.373h.469v.681h-.469z"/><path fill="#fff" d="M6.188 8.527h1.406v.381H6.188zM10.563 8.373h.469v.681h-.469zM11.188 8.373h.469v.681h-.469z"/><path fill="#fff" d="M10.406 8.527h1.406v.381h-1.406zM6.344 12.998h.469v.686h-.469zM6.969 12.998h.469v.686h-.469z"/><path fill="#fff" d="M6.188 13.136h1.406v.342H6.188zM10.563 12.998h.469v.687h-.469zM11.188 12.998h.469v.687h-.469z"/><path fill="#fff" d="M10.406 13.136h1.406v.342h-1.406zM8.063 6.8h1.875v.361H8.063zM7.75 12.832c0-.093.075-.168.168-.168h2.164c.093 0 .168.075.168.168v.011c0 .087-.07.156-.156.156a.156.156 0 00-.157.157v.53a.686.686 0 01-.685.685h-.504a.686.686 0 01-.686-.686v-.53A.156.156 0 007.906 13a.156.156 0 01-.156-.157v-.011zM9.313 4.054l1.323-.998.176.282-1.323.998zM8.688 4.054l-1.324-.998-.176.282 1.323.998zM8.375 2.156a.156.156 0 01.312 0v.873h-.312v-.873zM8.844 4.4h.313v.343h-.313V4.4z"/></svg>