<!-- by TradingView --><svg width="18" height="18" viewBox="0 0 18 18" xmlns="http://www.w3.org/2000/svg"><path fill="#F0F3FA" d="M0 0h18v18H0z"/><path d="M8.6 8.29c-.07 0-.19-.11-.32-.35l-.17-.3A34.5 34.5 0 0 1 2 5c.62.54 2.44 1.89 4.79 2.97L2.87 6.4c.97.56 3.06 1.7 4.14 2.05C6 8.15 4.07 7.57 3.24 7.2c.86.46 2.86 1.45 4.04 1.8L3.63 7.97c.7.34 2.46 1.12 3.84 1.44l-3.4-.64c.58.2 2.09.68 3.55.96H4.66c.58.1 2.01.32 3.07.32l-.7.4v.14c-.08.01-.24.02-.24 0a.26.26 0 0 0-.26-.23c-.18 0-.21.12-.2.17.05-.02.2-.06.29 0 .1.06.09.3.07.4l.27-.24h.16c-.02.04 0 .13.23.13.21 0 .55-.2.7-.29l-1.16 1.5a4.69 4.69 0 0 0 1.43-1.5l-.85 1.96 1-1.38-.54 1.9.67-1.31-.17 1.82.35-.98L9 14l.22-1.46.35.98-.17-1.82.67 1.3-.53-1.89.99 1.38-.85-1.96c.34.67 1.1 1.28 1.43 1.5l-1.16-1.5c.15.1.49.29.7.29.22 0 .25-.09.23-.13h.16l.27.25c-.02-.11-.02-.35.07-.4.1-.07.24-.03.3 0 0-.06-.03-.18-.2-.18-.23 0-.28.2-.27.23 0 .02-.16.01-.24 0v-.13c0-.02-.47-.28-.7-.4 1.06 0 2.49-.22 3.07-.33h-2.96c1.46-.28 2.97-.75 3.55-.96l-3.4.64c1.38-.32 3.14-1.1 3.84-1.44L10.72 9a27.84 27.84 0 0 0 4.04-1.8c-.83.36-2.75.94-3.77 1.24a28.98 28.98 0 0 0 4.14-2.05l-3.92 1.57A22 22 0 0 0 16 5a34.5 34.5 0 0 1-6.1 2.63l-.18.31c-.13.24-.25.35-.32.35l-.01.01c-.1-.08-.2-.2-.2-.34 0-.21.25-.22.37-.2-.1-.17-.26-.16-.32-.14-.07.04-.21.1-.21 0 0-.09.08-.1.13-.1a.23.23 0 0 0-.17-.07.37.37 0 0 0-.2.07l-.21.04c.05.04.17.16.17.38 0 .14-.08.27-.15.35Z"/></svg>