<!-- by TradingView --><svg xmlns="http://www.w3.org/2000/svg" width="18" height="18" viewBox="0 0 18 18"><path fill="#F0F3FA" d="M0 0h18v18H0z"/><path d="M11.67 5.05v1.71h-.48C8.93 6.7 2.64 6.6 4.66 10.7 3.26 9.76 2.97 8.75 3 8.36c0-3.2 5.78-3.54 8.67-3.31zM9 11.46v2.03c3.39-2.6 3.5-2.88 3.5-3.31 0-.47-1.18-.99-3.39-.99-2.2 0-3.76.62-3.76 1.55 0 .74 1.2 1.23 1.79 1.38l-.1-.25c-.88-.62-.63-.93-.4-1 .63.52 1.8.6 2.36.59zm0-2.93v-1.2c2.98-.23 9.65 2.03 3.45 3.96 3-2.53-2.4-2.76-3.45-2.76z" fill="url(#a3ukxbhre)"/><defs><linearGradient id="a3ukxbhre" x1="3" y1="12.19" x2="16.32" y2="7.31" gradientUnits="userSpaceOnUse"><stop offset=".11" stop-color="#B75626"/><stop offset=".54" stop-color="#FFCD08"/><stop offset=".86" stop-color="#AA5B31"/></linearGradient></defs></svg>