<!-- by TradingView --><svg width="18" height="18" viewBox="0 0 18 18" xmlns="http://www.w3.org/2000/svg"><path fill="#F0F3FA" d="M0 0h18v18H0z"/><path d="m5.63 5.6.45-.08.78-.48.73-.6.58-.3L8.9 4l.54.02.66.3.84.58.62.39.5.28.32.08.01.31.15.51.28.32.3.03.23-.15.38.77.23 1.12.04.87-.07.56-.1.8-.2.66-.4.65-.3-.14h-.23l-.25.34-.1.34-.02.36h-6.6l-.05-.44-.16-.4-.28-.18-.24-.02-.23.14-.34-.63-.28-.8L4 9.57l.05-1.15.2-.78.2-.63.3-.37.24.14.22-.04.2-.12.17-.36.05-.34V5.6Z" fill="#FBB116"/><path fill-rule="evenodd" d="m6.08 5.52-.45.08v.32l-.05.34-.18.36-.19.12-.22.04-.23-.14-.3.37-.2.63-.2.78L4 9.58l.15 1.1.28.8.34.62.23-.14.24.02.28.17.16.41.05.44h6.6l.02-.36.1-.34.25-.34h.23l.3.14.4-.65.2-.66.1-.8.07-.56-.04-.87-.23-1.12-.38-.77-.24.15-.29-.03-.28-.32-.15-.5-.01-.32-.32-.08-.5-.28-.62-.4-.84-.57-.66-.3L8.9 4l-.73.15-.58.29-.73.6-.78.48Zm1.79-.66-.72.59-.9.55-.13.02-.06.39-.27.55-.39.26-.51.09-.15.47-.19.71-.05 1.07.14 1 .25.7.1.2.42.03.51.32.25.63v.06h5.7l.12-.43.47-.61h.57l.13-.22.19-.56.09-.75.06-.51-.04-.8-.2-1.01-.14-.29-.54-.05-.49-.55-.2-.67h-.02l-.57-.34-.64-.4-.8-.56-.54-.23-.38-.02-.6.12-.47.24Z"/><path fill-rule="evenodd" d="M10.16 8.55c-.07.36.38.55.37.92 0 .1 0 .18-.03.24-.02.05 0 .06.04.02a.59.59 0 0 0 .08-.28c.02-.41-.32-.6-.3-.84 0-.04.02-.12-.02-.15s-.13 0-.14.09Zm-2.52 1.83c-.14 0-.12.13-.08.18.04.03.07.02.12 0 .02-.02.06-.03.1-.03l2.56-.03c.12 0 .1-.11 0-.12-.07 0-2.14-.02-2.7 0Zm.97-.8c0 .45-.09.53-.2.53-.13 0-.16-.13-.16-.5 0-.45.1-.54.18-.54.1 0 .18.08.18.52Zm1.1.01c0 .37-.06.53-.19.53-.12 0-.16-.13-.16-.51s.08-.54.2-.54c.13 0 .16.2.16.52Zm-.54 0c0 .38-.06.53-.19.53-.12 0-.18-.04-.18-.54 0-.34.08-.51.22-.51.11 0 .15.06.15.52Zm.44-.94c.23.02.4.15.47.46.02.11.05.44 0 .6-.03.16-.1.13-.1-.02 0-.23 0-.37-.06-.57-.06-.2-.19-.25-.32-.28a8 8 0 0 0-1.14 0c-.17.02-.26.08-.3.18-.06.12-.07.29-.08.32-.02.14-.1.13-.11 0-.02-.1 0-.28.06-.41.08-.18.22-.28.46-.3.3-.02.9 0 1.12.02Zm.54-.58c.1 0 .08.1-.02.11l-1.98.07c-.1 0-.13.06-.17.17-.03.13-.11.25-.25.44-.16.23-.2.64-.04.98.03.06-.03.11-.08.06a.94.94 0 0 1-.08-1.01c.08-.16.24-.37.24-.54 0-.09-.03-.14-.06-.19 0-.02 0-.08.06-.08h2.38ZM10 10.98c.1 0 .06.1-.02.1-.77.03-1.65.04-2.18.07-.12 0-.24.06-.22.36.02.13-.04.22-.1.25-.1.04-.1-.02-.08-.05.05-.1.04-.23-.05-.42-.07-.18.06-.32.22-.32l2.43.01ZM8.72 7.91V5.73c0-.17.13-.3.3-.3.07 0 .14.02.18.07.12.11.05.2-.06.1a.17.17 0 0 0-.12-.04c-.08 0-.15.09-.15.17V7.9h-.15Zm.6-2.54a.42.42 0 0 0-.3-.11c-.25 0-.46.2-.46.45V5.88c0 .13-.08.15-.12 0a.63.63 0 0 1-.02-.15c0-.34.27-.6.6-.6.13 0 .26.05.36.14.14.14.04.21-.07.1Zm1.37 5.76c.03.12-.05.17-.13.29-.09.12-.07.18-.03.27.02.05.04.1-.08.09-.05-.01-.09-.07-.09-.17 0-.09.09-.23.09-.3 0-.16-.1-.15-.14-.2-.03-.05 0-.11.07-.13.08-.03.27 0 .3.15Zm.07.5c0 .17.08.16.17.19.06.02.1.18.04.18h-.74c-.03 0-.06-.07-.06-.1 0-.06.05-.1.05-.23 0-.1-.05-.22-.23-.22-.32 0-.62.25-1.07.25-.38 0-.7-.25-.93-.25-.1 0-.22.09-.22.2 0 .12.06.14.06.25 0 .06-.03.1-.05.1h-.74c-.06 0-.05-.15.03-.18.07-.03.16-.03.16-.15 0-.27-.18-.23-.18-.5 0-.33.37-.25.37-.43 0-.1-.16-.1-.16-.24 0-.14.18-.16.18-.33 0-.24-.25-.3-.25-.8 0-.57.36-.7.36-1.02 0-.19-.16-.21-.2-.32-.03-.05-.01-.12.07-.12h1.13V6.29a.74.74 0 0 1-.25-.56c0-.4.32-.73.71-.73.4 0 .72.33.72.73 0 .23-.1.43-.25.56v1.62h1.14c.06 0 .07.06.07.07 0 .12-.22.2-.22.42 0 .34.34.53.34.98 0 .38-.25.55-.25.81 0 .13.18.19.18.32 0 .1-.15.13-.15.22 0 .17.36.12.36.42 0 .23-.19.26-.19.48Z"/></svg>