<!-- by TradingView --><svg width="18" height="18" viewBox="0 0 18 18" xmlns="http://www.w3.org/2000/svg"><path fill="#F0F3FA" d="M0 0h18v18H0z"/><path fill-rule="evenodd" d="M8 6v5h-.5v1h6c.75 0 1.5-.54 1.5-1.5S13.96 9.07 13.5 9c.34 0 1-.22 1-1.5S13.46 6 13 6H8Zm2.5 1v1.5h1c.34 0 .5-.35.5-.75S11.84 7 11.5 7h-1Zm0 2.5V11h.5c.5 0 1-.25 1-.75s-.47-.75-1-.75h-.5Z" fill="#B2B3B6"/><path d="M3 6h4.84C8.62 6 10 6.21 10 7.75c0 1.82-1.67 1.76-2.02 1.75H6.5V11H7v1H3v-1h1V7H3V6Zm3.5 1v1.5h.25c.4 0 .75-.32.75-.75A.75.75 0 0 0 6.75 7H6.5Z"/></svg>