<!-- by TradingView --><svg width="18" height="18" viewBox="0 0 18 18" xmlns="http://www.w3.org/2000/svg"><path fill="#F0F3FA" d="M0 0h18v18H0z"/><path fill-rule="evenodd" d="M14 9a5 5 0 1 1-8.53-3.54V4.29h.17l.02 1 .15-.14V4.3h.1l.04.75.23-.17.03-.58h.1v.5l.16-.1v-.4h.18v.3A5 5 0 0 1 14 9ZM6.65 5.62a4.12 4.12 0 1 1-.15 6.65L6.2 7.2c-.02-.33.28-.54.44-.61v-.97Zm-.2.15-.14.11v.27h.14v-.38Zm-.34.3-.08.08h.08v-.09Zm-.5.6a4.1 4.1 0 0 0 .06 4.75L5.9 7.2c.01-.25-.15-.43-.3-.53Z" fill="#EE6F27"/><path d="M6.02 4.58v-.12C7.92 4.33 8.52 4 9.76 4 12 4 13 5.1 13 6.61c0 1.51-.94 2.62-2.74 2.62-1.44 0-1.65-.7-1.64-1.17h.12c.04.33.27.88 1.33.88 1.33 0 2.02-1.22 2.02-2.33 0-1.91-1.57-2.22-2.4-2.22-.67 0-1.38.2-1.69.3v7.41c0 .41.29.74.73.74H9V13H6v-.16h.28c.44 0 .72-.33.72-.74V5.27c0-.38-.25-.69-.66-.69h-.32Z"/></svg>