<!-- by TradingView --><svg width="18" height="18" viewBox="0 0 18 18" xmlns="http://www.w3.org/2000/svg"><path fill="#F0F3FA" d="M0 0h18v18H0z"/><path d="M10.07 4A3.93 3.93 0 0 1 14 7.93v2.14A3.93 3.93 0 0 1 10.07 14H7.93A3.93 3.93 0 0 1 4 10.07V7.93A3.93 3.93 0 0 1 7.93 4h2.14ZM8.3 6c-.32.03-.6.1-.77.24-.6.51-.52 1-.53 1.76 0 1.28-.02 2.9 0 3.58 0 .22.2.42.4.42h.58c.19 0 .35-.19.34-.4v-.97c0-.45.35-.54.7-.59.39-.05.82-.03 1.13-.23.62-.4.86-1.1.84-1.83 0-.33-.07-.67-.16-1-.17-.55-.5-.98-1.09-.98H8.31Zm.55 1c.57-.01 1.12.36 1.14.9v.13c.01.54-.52.96-1.08.97H8.5C8.25 9 8 8.81 8 8.57V7.46c0-.24.19-.45.45-.46h.41Z" fill="#0068C8"/></svg>