<!-- by TradingView --><svg width="18" height="18" viewBox="0 0 18 18" xmlns="http://www.w3.org/2000/svg"><path fill="#F0F3FA" d="M0 0h18v18H0z"/><path d="M2.7 10.9v.5c0 .3-.04.6-.35.6S2 11.68 2 11.4V9c0-1.68 1.27-3.01 2.8-3 1.38.01 2.25 1.29 3.14 2.32l1.49-1.74c.79-.91 1.66-1.56 2.83-1.58C14.16 4.96 16 6.66 16 9.06c.01 2.1-1.47 3.96-3.32 3.94-.88 0-1.76-.45-2.33-1.25-.31-.44-.72-1.05-1.22-1.82-.01-.02 0-.05.01-.06l.06-.04h.04l1.43 1.64c.49.55 1.13.73 1.78.73 1.43 0 2.55-1.27 2.55-2.94 0-1.72-1.19-3.24-2.55-3.26-.87-.01-1.53.74-2.1 1.4a27.74 27.74 0 0 1-3.46 3.64c-.71.63-1.39.96-2.22.96-.74 0-1.44-.53-1.97-1.1Zm5.1-2.42C6.94 7.7 6.27 7.02 5.09 7c-1.15-.02-2.1.7-2.08 2 .01 1.42 1.34 2.15 2.62 1.37a9.71 9.71 0 0 0 2.19-1.9Z" fill="#003963"/></svg>