<!-- by TradingView --><svg xmlns="http://www.w3.org/2000/svg" width="18" height="18"><path fill="#F0F3FA" d="M0 0h18v18H0z"/><circle cx="9" cy="9" r="5" fill="#2A4270"/><path d="M10.7 9.95s.33 2.61-.83 3.97a5.03 5.03 0 01-1.74 0c-1.06-1.77-.8-3.93-.8-3.93C8.36 10.86 9 12.02 9 12.02s.92-1.55 1.7-2.07z" fill="#0D87C6"/><path d="M13.96 8.38C11.62 9.1 10.5 9.7 9 12.13 7.6 9.83 6.36 9 4.04 8.38a5 5 0 012.62-3.8S8.01 5.13 9 6.3a5.86 5.86 0 012.34-1.72 5 5 0 012.62 3.8z" fill="#019DD8"/><path d="M7.32 9.99A6.26 6.26 0 019 6.32a6.98 6.98 0 011.7 3.67c-.66.56-1.42 1.66-1.7 2.14a14.08 14.08 0 00-1.68-2.14z" fill="#F0F3FA"/></svg>