<!-- by TradingView --><svg width="18" height="18" viewBox="0 0 18 18" fill="none" xmlns="http://www.w3.org/2000/svg">
<rect width="18" height="18" fill="#F0F3FA"/>
<path fill-rule="evenodd" clip-rule="evenodd" d="M2 7V11H2.66667V9.54545H3.8683C4.49332 9.54545 5 8.98739 5 8.2803C5 7.57321 4.49332 7 3.8683 7H2ZM2.66667 7.72729H3.79965C4.09439 7.72729 4.33333 7.9711 4.33333 8.27186C4.33333 8.57261 4.09439 8.81642 3.79965 8.81642H2.66667V7.72729ZM6.71842 11C7.20813 11 7.65 10.7616 7.96301 10.3791L7.51934 9.86269C7.31723 10.1148 7.02769 10.2727 6.70609 10.2727C6.09521 10.2727 5.6 9.70293 5.6 9.00002C5.6 8.29711 6.09521 7.72729 6.70609 7.72729C7.04745 7.72729 7.35269 7.90522 7.55559 8.18488L8.00001 7.66762C7.68534 7.2579 7.22776 7 6.71842 7C5.76936 7 5 7.89543 5 9C5 10.1046 5.76936 11 6.71842 11ZM15.9596 10.3791C15.618 10.7616 15.1357 11 14.6012 11C13.5654 11 12.7257 10.1046 12.7257 9C12.7257 7.89543 13.5654 7 14.6012 7C15.1572 7 15.6566 7.2579 16 7.66762L15.5344 8.16416C15.3093 7.89646 14.9779 7.72729 14.6084 7.72729C13.9303 7.72729 13.3806 8.29711 13.3806 9.00002C13.3806 9.70293 13.9303 10.2727 14.6084 10.2727C14.9562 10.2727 15.2702 10.1229 15.4936 9.88208L15.9596 10.3791ZM9 11H8.34517V7L10.1726 8.37853L12 7V11H11.3355V8.37853L10.1726 9.29379L9 8.37853V11Z" fill="#020204"/>
<path d="M10.2199 8L8.78809 7.05556L10.2199 6V8Z" fill="#8A92B6"/>
<path d="M10.2195 8L11.6514 7.05556L10.2195 6V8Z" fill="#092976"/>
</svg>
