<!-- by TradingView --><svg width="18" height="18" viewBox="0 0 18 18" xmlns="http://www.w3.org/2000/svg"><path fill="#F0F3FA" d="M0 0h18v18H0z"/><path d="M8.54 4c2.2 0 3.9 1.62 4.46 2.3-.3-.14-1.17-.3-2.36-.3C9.16 6 6 6.72 6 9.56 6 12.41 8.15 13.2 9.06 14 5.26 13.19 4 10.3 4 8.55S5.8 4 8.54 4Z" fill="url(#alybftdaj)"/><path d="M9 13V8h2.16c.88 0 1.84.4 1.84 1.51 0 1.1-.95 1.62-1.82 1.62h-1.6V13H9Zm.57-2.5h1.66c.57 0 1.2-.26 1.2-.99 0-.72-.63-.88-1.2-.88H9.57v1.87Z"/><defs><linearGradient id="alybftdaj" x1="9.33" y1="4" x2="8" y2="14.03" gradientUnits="userSpaceOnUse"><stop stop-color="#6CB7E5"/><stop offset=".3" stop-color="#0A99D4"/><stop offset=".69" stop-color="#71BEEC"/><stop offset="1" stop-color="#17A5E0"/></linearGradient></defs></svg>