<!-- by TradingView --><svg width="18" height="18" viewBox="0 0 18 18" xmlns="http://www.w3.org/2000/svg"><path fill="#F0F3FA" d="M0 0h18v18H0z"/><path d="M4 12V6h2.26c.46 0 .85.09 1.18.26.32.17.57.41.74.72.17.3.25.65.25 1.05s-.08.75-.26 1.06c-.17.3-.42.54-.75.71-.33.17-.73.2-1.2.2H4.85V9h1.18c.6 0 1.1-.28 1.1-.97 0-.61-.5-1.03-1.1-1.03h-.67v5H4ZM9 12V6h2.6c.47 0 .86.08 1.18.24.33.16.58.4.75.69a2 2 0 0 1 .25 1.03c0 1.18-1.04 2.04-2.2 2.04H9.54V9h1.82c.56 0 1.1-.48 1.1-1.04 0-.2-.05-.37-.13-.5a.74.74 0 0 0-.37-.31 1.48 1.48 0 0 0-.6-.15h-1.02v5H9Zm3.5-2.73L14 12h-1.42l-1.47-2.73h1.38Z" fill="#121212"/></svg>