<!-- by TradingView --><svg xmlns="http://www.w3.org/2000/svg" width="18" height="18"><path fill="#F0F3FA" d="M0 0h18v18H0z"/><circle cx="6.75" cy="6.75" fill="url(#aken3hbop)" r="2.75"/><circle cx="13.65" cy="13.65" fill="#0B263B" r=".85"/><path fill-rule="evenodd" d="M7.2 10.78a3.55 3.55 0 002.06-6.46 4.76 4.76 0 013.4 7.43.85.85 0 00-1.19 1.2A4.75 4.75 0 014 8.76a3.54 3.54 0 003.2 2.03zm3.91 0a.68.68 0 11-1.35 0 .68.68 0 011.35 0z" fill="url(#bken3hbop)"/><defs><linearGradient id="aken3hbop" x1="4.77" y1="4.88" x2="8.67" y2="8.62" gradientUnits="userSpaceOnUse"><stop stop-color="#C4E1B1"/><stop offset="1" stop-color="#2CA87A"/></linearGradient><linearGradient id="bken3hbop" x1="6.65" y1="6.48" x2="12.17" y2="12.41" gradientUnits="userSpaceOnUse"><stop stop-color="#178B5C"/><stop offset="1" stop-color="#134158"/></linearGradient></defs></svg>