<!-- by TradingView --><svg width="18" height="18" viewBox="0 0 18 18" xmlns="http://www.w3.org/2000/svg"><path fill="#F0F3FA" d="M0 0h18v18H0z"/><path d="M6.5 9.14 2 12l3.97-1.73-.57.98 1.6-.63-.66 1.08 4.95-3.78.35 1.6.41-.9 2.27 2.43-.35-.91L16 11.38l-4.71-4.1-3.51 2.86-1.27-1Z" fill="url(#a5zu4jh0g)"/><path d="M9.24 6.09a3.13 3.13 0 0 0-1.94.15l.2.62a2.62 2.62 0 0 1 1.59-.14l.15-.63Zm0 .67.15-.63c.62.18 1.17.55 1.61 1.05l-.5.37a2.84 2.84 0 0 0-1.27-.79Zm-1.87.15-.24-.6c-.59.29-1.1.74-1.46 1.32l.46.4c.3-.49.74-.88 1.24-1.12ZM6.04 8.18l-.47-.4A4.3 4.3 0 0 0 5 10l.6-.45c.06-.5.21-.96.44-1.37Z" fill="url(#b5zu4jh0g)"/><defs><linearGradient id="a5zu4jh0g" x1="7.41" y1="11.59" x2="7.41" y2="7.47" gradientUnits="userSpaceOnUse"><stop stop-color="#58449B"/><stop offset="1" stop-color="#39C8D3"/></linearGradient><linearGradient id="b5zu4jh0g" x1="5.47" y1="8.89" x2="10.62" y2="6.95" gradientUnits="userSpaceOnUse"><stop stop-color="#ED6712"/><stop offset="1" stop-color="#FFB231"/></linearGradient></defs></svg>