<!-- by TradingView --><svg width="18" height="18" viewBox="0 0 18 18" xmlns="http://www.w3.org/2000/svg"><path fill="#F0F3FA" d="M0 0h18v18H0z"/><path d="M7.03 3.4a5.2 5.2 0 0 1 6.26 1.71 5.14 5.14 0 0 1 .96 4.06c-.07.34-.18.69-.36 1-.15.24-.34.46-.58.61-.34.23-.72.38-1.1.5-.25.07-.49.13-.73.17a.81.81 0 0 0 .44-.25c.2-.22.32-.5.4-.8.1-.4.14-.82.14-1.23a6.77 6.77 0 0 0-.41-2.25 5.25 5.25 0 0 0-2.59-2.87c-.3-.14-.62-.25-.95-.32-.37-.07-.76-.1-1.13-.03-.57.08-1.11.31-1.54.69l-.24.22c-.01.01-.03.02-.05 0 .01-.06.06-.1.1-.15.36-.47.84-.84 1.38-1.07Zm4.01 2.68c.2.31.35.66.47 1.01a7.72 7.72 0 0 1 .35 2.73c-.02.3-.06.6-.17.9-.05.11-.1.24-.23.3-.1.05-.22 0-.3-.08a1.62 1.62 0 0 1-.34-.53 4.3 4.3 0 0 1-.32-1.12c-.17-1.09.05-2.22.54-3.2Z" fill="#3AAF4A"/><path d="M7.1 4.52c.35-.05.72-.02 1.06.11.26.1.49.26.7.43a6.82 6.82 0 0 1 .93.93.85.85 0 0 0-.56-.29c-.32-.04-.64.02-.94.12A6.25 6.25 0 0 0 4.75 9.1a4.5 4.5 0 0 0-.36 2.32c.05.63.23 1.25.57 1.78a3.13 3.13 0 0 0 1.8 1.32c.02 0 .04.05 0 .05a3.55 3.55 0 0 1-1.94-.87A5.38 5.38 0 0 1 3 9.85a5.8 5.8 0 0 1 .35-2.14 5.06 5.06 0 0 1 3.74-3.19Zm1.17 1.9c.26-.11.52-.22.8-.25.12-.01.26-.02.37.06.08.06.08.18.06.28-.04.21-.16.4-.28.57A5.12 5.12 0 0 1 5.37 9 5.4 5.4 0 0 1 6.7 7.43c.48-.4 1-.75 1.56-1.01Z" fill="#005DA8"/><path d="M14.67 8.59c0-.02.01-.08.04-.05.05.08.07.17.1.25.16.48.22.99.17 1.49a5.48 5.48 0 0 1-1.86 3.46 5.31 5.31 0 0 1-4 1.23c-.89-.1-1.75-.46-2.46-1-.36-.28-.68-.6-.92-.99-.19-.31-.3-.68-.29-1.05 0-.48.11-.95.25-1.41.04-.13.08-.27.14-.4a.82.82 0 0 0 0 .55 2 2 0 0 0 .48.75c.37.39.83.69 1.3.93a5.62 5.62 0 0 0 3.64.63c.4-.06.77-.17 1.12-.34.28-.13.54-.29.8-.46.53-.36.98-.84 1.27-1.42.25-.53.38-1.14.3-1.73-.01-.15-.05-.3-.08-.44ZM6.5 10.1a2 2 0 0 1 .73.01c.53.1 1.03.3 1.5.56a5.54 5.54 0 0 1 1.88 1.86c-.89.01-1.76-.26-2.56-.65-.47-.22-.94-.49-1.34-.83a1.96 1.96 0 0 1-.43-.47c-.05-.1-.1-.2-.05-.3.05-.11.16-.16.27-.18Z" fill="#8E9191"/></svg>