<!-- by TradingView --><svg width="18" height="18" viewBox="0 0 18 18" xmlns="http://www.w3.org/2000/svg"><path fill="#F0F3FA" d="M0 0h18v18H0z"/><path d="M7.78 7.68C7.72 7.18 7.25 7 6.55 7c-.47 0-1.3.1-1.32.68 0 1.6 3.77.33 3.77 2.6C9 11.58 7.6 12 6.53 12c-1.16 0-2.47-.47-2.53-1.81h1.16c.06.68.77.81 1.36.81.51 0 1.47-.1 1.48-.73.01-.93-3.83-.22-3.83-2.55C4.17 6.49 5.53 6 6.57 6c1.01 0 2.32.48 2.34 1.68H7.78ZM10 12V6h1.73C12.94 6 14 6.64 14 7.99 14 9.35 12.93 10 11.7 10h-1.1V9h1.2c.7 0 1.2-.25 1.2-1.01 0-.77-.51-.99-1.2-.99H11v5h-1Z"/></svg>