<!-- by TradingView --><svg width="18" height="18" viewBox="0 0 18 18" xmlns="http://www.w3.org/2000/svg"><path fill="#02203C" d="M0 0h18v18H0z"/><path d="M10 4.73c.72 0 1.2.3 1.2.58 0 0-.23-.29-1.2-.29-2.1 0-2.4 3.17-2.4 4.62 2.43-1.22 4.8-2.95 4.8-4.9 0-.4-.12-1.28-.6-1.74.4 0 1.2.92 1.2 2.31 0 1.3-2.05 3.76-5.37 5.02.12 1.48.53 4.12.87 5.67a18.35 18.35 0 0 1-1.43-5.48c-.94.3-1.96.51-3.07.57A24.8 24.8 0 0 0 7.03 9.9L7 9.07c0-3.76 2.1-4.34 3-4.34Z" fill="#F0FEFF"/><path d="M7 5.95c1.73 1.2 4.54 4.08 1.95 5.91.65-.65 1.17-2.75-1.95-5.9Z" fill="#F0FEFF"/></svg>