<!-- by TradingView --><svg width="18" height="18" viewBox="0 0 18 18" xmlns="http://www.w3.org/2000/svg"><path fill="#022344" d="M0 0h18v18H0z"/><path fill-rule="evenodd" d="M12.74 12c1.8 0 3.26-.53 3.26-1.18 0-.66-1.46-1.19-3.26-1.19-1.8 0-3.27.53-3.27 1.19 0 .65 1.46 1.18 3.27 1.18Zm-.59-.43c1.38 0 2.49-.33 2.49-.75 0-.4-1.11-.74-2.49-.74-1.37 0-2.48.33-2.48.74 0 .42 1.11.75 2.48.75Z" fill="#085CB0"/><path fill-rule="evenodd" d="M11.85 11.35c1.15 0 2.08-.26 2.08-.58 0-.32-.93-.58-2.08-.58s-2.08.26-2.08.58c0 .32.93.58 2.08.58Zm-.44-.3c.75 0 1.35-.14 1.35-.3 0-.18-.6-.32-1.35-.32-.74 0-1.34.14-1.34.31 0 .17.6.31 1.34.31Z" fill="#085CB0"/><path d="M8.93 7.69c1.49.67 3.55 2.3 4 2.89-1.86-1.13-3.7-2.25-4.26-2.55l.26-.34Z" fill="#085CB0"/><path d="M8.9 8.46v-.74C6.3 6.35 4.4 6.02 3.17 6c-.5 0-.9.02-1.18.09 3.28.53 5.74 1.7 6.9 2.37Z" fill="#E51937"/><path fill-rule="evenodd" d="M5 7h1.54a1.2 1.2 0 0 1 0 2.4H6V11H5V7Zm1 .8h.39a.4.4 0 0 1 0 .8h-.4v-.8Z" fill="#fff"/><path d="M8 7h2.38v.8H9v.8h1.2v.8H9V11H8V7Z" fill="#fff"/></svg>