<!-- by TradingView --><svg xmlns="http://www.w3.org/2000/svg" width="18" height="18" viewBox="0 0 18 18"><path fill="#F0F3FA" d="M0 0h18v18H0z"/><path d="M14.83 7.44c.02-.14.19-.44.64-.44.57 0 .58.88.48 1.13-.08.2-.09.4-.08.49-.06.1-.19.37-.25.59-.07.2-.13.55-.15.69l-.4.8a1.2 1.2 0 0 0-.8.22c.21-.53.66-1.7.72-2.07-.17.15-.85.5-2.16.68-.07.42-.3 1.28-.66 1.33-.44.06-.7-.7-.56-1.24.07-.26.19-.52.32-.8.14-.32.28-.65.38-1 .18-.66.41-.72.66-.7.24.01.23.35.11.53-.11.17-.22.73-.19 1.04.65 0 1.98-.08 2.18-.35.07-.2.16-.62 0-.74-.08 0-.24 0-.24-.16zm-12.55.08c-.58.1-.14.46.16.64l1.32-.06a10 10 0 0 0-.68 1.98c-.09.21-.12.7.49.86.6.16.67-.03.63-.15a3.14 3.14 0 0 1-.07-1.18c.04-.76.45-1.4.66-1.62.26 0 .87-.05 1.27-.1.49-.07.17-.37-.16-.65-.26-.22-.52-.03-.62.09H4.2c-.41.08-1.45.16-1.92.19zm5.98.74c.36-.55.03-.8-.18-.84-.8-.08-1.95 1.33-2.29 2.06-.27.59-.04.99.11 1.11.26.22.86.4 1.25-.56.32-.79.5-1 .72-1.26.12-.13.24-.27.4-.51zm.85.13c-.07-.1-.25-.29-.46-.16 0 .1.1.29.46.16zm1.5-1.05c-.99-.2-1.74-.11-2-.04l.81.83c.43.2 1.3.6 1.33.6.24.22-.04.43-.2.5l-.32.52h-.16l-.16.17c-.16.01-.65.02-1.3-.04-.64-.06-.8.69-.8 1.07 2.56-.35 3.52-1.71 3.68-2.35.11-.34.1-1.07-.89-1.26z" fill="#ED0013"/></svg>