<!-- by TradingView --><svg width="18" height="18" viewBox="0 0 18 18" xmlns="http://www.w3.org/2000/svg"><path fill="url(#azh0ip0lg)" d="M0 0h18v18H0z"/><path d="M15 9A6 6 0 1 1 3 9a6 6 0 0 1 12 0Z" fill="url(#bzh0ip0lg)"/><path d="M14.65 9a5.65 5.65 0 1 1-11.3 0 5.65 5.65 0 0 1 11.3 0Z"/><path fill-rule="evenodd" d="M9 12.91A3.91 3.91 0 1 0 9 5.1a3.91 3.91 0 0 0 0 7.82Zm0 .18A4.09 4.09 0 1 0 9 4.9a4.09 4.09 0 0 0 0 8.18Z" fill="#A1A1A1"/><path d="M9.18 12.1A4.06 4.06 0 0 1 6.31 11c2.39 1.3 4.67.5 5.51-.07a3.57 3.57 0 0 1-2.64 1.17Z" fill="url(#czh0ip0lg)"/><path d="M9.07 11.54c-3.04.06-4.47-3.15-4.8-4.77l4.49 2.5.3 2.27Z" fill="url(#dzh0ip0lg)"/><path d="M9 11.51c3.04.07 4.47-3.15 4.8-4.77L9.3 9.24 9 11.52Z" fill="url(#ezh0ip0lg)"/><path d="m8.96 8.42.85-.17-.43.68c-.13.17-.48.34-.64.08-.2-.35.07-.54.22-.59Z" fill="url(#fzh0ip0lg)"/><path d="M9.17 4.54c-2.43 0-3.58 1.35-3.84 1.87L4.7 6.1c.37-.74 1.75-2.26 4.47-2.26 1 0 2.75.41 3.92 2.22l-.59.38a4.01 4.01 0 0 0-3.33-1.9Zm3.01 8.52a5.05 5.05 0 0 1-3 1.08c-2.96 0-4.34-1.75-4.74-2.67l.64-.28c.31.71 1.47 2.25 4.1 2.25.97 0 1.88-.4 2.58-.94.35-.27.63-.56.85-.83.21-.28.33-.52.37-.68l.68.17c-.07.3-.25.62-.5.94-.25.32-.58.66-.98.96Z" fill="#fff" fill-opacity=".8"/><defs><linearGradient id="azh0ip0lg" x1="3.35" y1="3.12" x2="21.9" y2="24.43" gradientUnits="userSpaceOnUse"><stop stop-color="#1A1E21"/><stop offset="1" stop-color="#06060A"/></linearGradient><linearGradient id="bzh0ip0lg" x1="9" y1="3" x2="9" y2="15" gradientUnits="userSpaceOnUse"><stop stop-color="#F8F8F8"/><stop offset=".54" stop-color="#616161"/><stop offset="1" stop-color="#3B3B3B"/></linearGradient><linearGradient id="czh0ip0lg" x1="6.88" y1="11.51" x2="11.2" y2="11.51" gradientUnits="userSpaceOnUse"><stop stop-color="#525252"/><stop offset=".41" stop-color="#fff"/></linearGradient><linearGradient id="dzh0ip0lg" x1="7.85" y1="9.58" x2="6.23" y2="11.08" gradientUnits="userSpaceOnUse"><stop stop-color="#fff"/><stop offset=".96" stop-color="#1A1A1A"/></linearGradient><linearGradient id="ezh0ip0lg" x1="9.3" y1="9.36" x2="10.73" y2="10.93" gradientUnits="userSpaceOnUse"><stop stop-color="#3A3A3A"/><stop offset=".63" stop-color="#F1F1F1"/><stop offset="1" stop-color="#fff"/></linearGradient><linearGradient id="fzh0ip0lg" x1="8.8" y1="8.62" x2="9.24" y2="9.14" gradientUnits="userSpaceOnUse"><stop stop-color="#474747"/><stop offset="1" stop-color="#fff"/></linearGradient></defs></svg>