<!-- by TradingView --><svg width="18" height="18" viewBox="0 0 18 18" xmlns="http://www.w3.org/2000/svg"><path fill="#0C2237" d="M0 0h18v18H0z"/><path d="M8 13v-2.45c.23.26.65.45 1.24.45.8 0 1.76-.69 1.76-2 0-1.33-.97-2-1.77-2-.6 0-1.02.3-1.22.58H8V7H7v6h1Zm1-2.73c-.6 0-1-.57-1-1.27 0-.73.42-1.27 1-1.27.55 0 1 .5 1 1.27 0 .74-.44 1.27-1 1.27ZM4 6h2v1H4V6ZM4 11h2v1H4v-1Z" fill="#F0F3FA"/><path d="M6 6H5v6h1V6ZM14 6h-2v1h2V6ZM14 11h-2v1h2v-1Z" fill="#F0F3FA"/><path d="M12 6h1v6h-1V6Z" fill="#F0F3FA"/></svg>