<!-- by TradingView --><svg xmlns="http://www.w3.org/2000/svg" width="18" height="18" viewBox="0 0 18 18"><path fill="#F0F3FA" d="M0 0h18v18H0z"/><path d="M5.49 10.91c-1.3.24-1.53 1.5-1.48 2.09h.28c.08-.15.26-.5.38-.59.13-.1.45.04.6.12.03-.35.4-1.25.7-1.33.25-.05.63.03.8.08-.05-.3.34-.5.54-.58-.12-.1-.19-.5-.2-.7 0 .2-.31.67-1.62.91Z" fill="#E1DDDE"/><path d="M8.26 11.34c-.43-.17-.82-.5-.96-.64-.4.12-.56.43-.57.54.02.11.13.29.22.37.09.08.45.2.63.23l-.22-.6.44.27.46.86.44-.48c-.2-.15-.37-.43-.44-.55Z" fill="#776F78"/><path d="M7.82 13H4.29c.05-.12.14-.27.29-.52.11-.2.52-.05.69.04 0-.25.3-1 .53-1.24.18-.18.71-.1.96-.01.07.4.54.51.78.51l-.2-.56.48.3.45.84c-.27.2-.42.5-.45.64Z" fill="#969495"/><path d="M9.05 12.23c-.17.1-.4.55-.5.77H10c.17-.15.5-.49.5-.65 0-.17.18-.26.28-.28l.5-.33-.44-.35a2.69 2.69 0 0 1-.65-.2l.06-.08c.29.05.42-.02.45-.07l.82.77a.82.82 0 0 1-.32.36c-.15.07-.4.03-.5 0l-.12.23.12.1-.5.5h1.97l.15-.83-.15-.69-.22-.48-.67-.35-.2.12-.46-.12-.13.12c-.07.05-.43.44-.6.62l.36-.95c-.24.06-.65.1-.73-.05-.06-.12.38-.3.59-.35-.01-.16.07-.69.06-.96-.1.12-.37.25-.46.16-.08-.07-.3-.07-.43-.06-.32.03-.52.22-.56.3-.26.06-.46.06-.69-.13-.18-.15-.28-.15-.3-.12.23.34.7 1.12.68 1.42-.01.3.04.43.07.46.45.08.93-.27 1.12-.46v.65c-.04.05-.15.2-.22.5-.08.3-.26.41-.34.43Z" fill="#797979"/><path d="m11.51 10.04-.75-.45c.1.74-.04 1.01-.12 1.06.45.24.63.06.67 0l.2-.61Z" fill="#9B9B9B"/><path d="M11.95 11c.06-.33-.27-.8-.44-.97l-.22.64.66.33Z" fill="#EBE4E7"/><path d="M13.5 11.12a3.34 3.34 0 0 0-1.6-.52c.07.11.06.32.05.4l.37 1.19-.17.81H14c.02-.7.05-1.45-.48-1.88Z" fill="#BDBCBF"/><path d="M10.56 9.57c-.07-.22-.14-.6-.17-.76-.09.06-.4.08-.49.08l.04.39.23-.16-.07.93.46-.48Z" fill="#BEBEBC"/><path d="M10.6 7.85c-.12 0-.17.11-.19.16l-.08.55-.12.17-2.23-.4c-.09-.11-.37-.45-.52-.68-.15-.22 0-.8.1-1.09.07-.33.47-1.04 1.6-1.1 1.25-.08 1.41 1.06 1.39 1.62l.32-.03c.05.43-.13.78-.27.8Z" fill="#E5E5E5"/><path d="M10.62 7.38c.05-.1-.05-.24-.09-.3h.3c-.07.05-.07.17-.08.2.04.11-.01.2-.04.23-.03.06-.17.11-.23.14l.14-.27Z" fill="#676469"/><path d="M10.17 6.55c-.06-.09-.65-.03-.93 0-.14.02-.26.04-.13.26.1.18.27.3.33.33.2 0 .4-.04.52-.06.1-.02.18-.12.21-.17.16-.1.08-.25 0-.36ZM8.12 6.62c-.23-.04-.49-.05-.57-.04-.07.17-.14.52-.12.77l.3-.15c.08-.06.3-.15.4-.06.09.09.18.12.22.12.05-.06.28-.18.39-.23.09-.16.06-.33 0-.41-.05-.06-.11-.03-.14 0-.06.02-.24.04-.48 0Z" fill="#7A7A7C"/><path d="M10.03 8.46c.14.25.28.35.34.36-.09.05-.27.08-.34.08l-.1.13c-.17-.24-.28-.24-.3-.2l.05.4-.3-.05c-.11-.13-.42-.1-.57-.08-.14-.05-.5-.1-.65-.13-.27-.19-.24-.5-.2-.63.32-.1.58-.26.66-.33 0-.05 0-.14.08-.17.08-.02.1.06.11.11l.74-.16-.17.16.17.31c.1-.03.33-.05.48.2Z" fill="#747474"/><path d="M10.19 8.32c0-.23.17-.3.26-.32v.59c0 .09-.03.3-.14.24-.15-.08-.12-.21-.12-.5Z" fill="silver"/><path d="M9.12 8.65a.4.4 0 0 1 .3.14c-.16-.04-.18 0-.36 0-.13 0-.19-.04-.2-.06.02-.03.1-.08.26-.08Z" fill="#D6CCD1"/><path d="M11.77 6.6c-.49.13-.84.38-.95.5h-.29c-.04-.73-.1-1.76-1.68-1.56-1.26.15-1.47 1.4-1.4 2.02v.9c-1.55.2-2.49-.17-2.6-1.15-.12-.98.88-2.61 2.45-3.05a8.3 8.3 0 0 1 3.13-.2c.71.12 2.19.46 2.4.87.26.52-.45 1.52-1.06 1.67Z" fill="#777579"/><path d="M7.43 8.42V7.6l.57.73c-.11.35.06.56.17.63l.33.05.32.08c-.28.08-.27.33-.2.43-.3.06-.7-.18-.87-.3 0-.08 0-.27-.1-.38a1.7 1.7 0 0 1-.22-.42Z" fill="#939392"/></svg>