<!-- by TradingView --><svg width="18" height="18" viewBox="0 0 18 18" xmlns="http://www.w3.org/2000/svg"><path fill="#F0F3FA" d="M0 0h18v18H0z"/><path d="M4 6.4v1.68c0 .23.11.37.32.26l4.67-2.42 3.14 1.61v.6l-.63-.32v2.29l2.33-1.21c.1-.05.17-.16.17-.28v-2.2a.31.31 0 0 0-.16-.28l-4.7-2.59a.3.3 0 0 0-.3 0l-4.68 2.6A.31.31 0 0 0 4 6.4Z" fill="#012B5D"/><path d="M14 11.6V9.75c0-.23-.23-.23-.44-.12l-4.55 2.46-3.14-1.61v-.6l.63.31V7.91L4.17 9.1A.31.31 0 0 0 4 9.4v2.2c0 .11.06.22.16.27l4.7 2.6c.1.05.2.05.3 0l4.68-2.6c.1-.05.16-.16.16-.27Z" fill="#012B5D"/><path d="m9.03 11.38-.53-.26.03-4.14.5-.24.44.24v4.16l-.44.24Zm-1.9-3.75v2.83l.93.45V7.2l-.94.44Zm3.74.07v2.7l-.93.5V7.2l.93.5Z" fill="#EE3324"/></svg>