<!-- by TradingView --><svg width="18" height="18" viewBox="0 0 18 18" xmlns="http://www.w3.org/2000/svg"><path fill="#F0F3FA" d="M0 0h18v18H0z"/><path d="M11.6 4c-1 .19-1.89.73-2.45 1.6a3.7 3.7 0 0 0-.37 3.25L11.61 4Zm.46.93a3.74 3.74 0 0 0-1.94 2.64L15 4.74a3.74 3.74 0 0 0-2.94.19Zm-3.78.23v5.6a3.72 3.72 0 0 1-1.32-3 3.67 3.67 0 0 1 1.32-2.6Zm.26 7.17L5.75 7.45c-.34.95-.32 2 .15 2.92a3.76 3.76 0 0 0 2.64 1.96Zm1.32 1.47a3.8 3.8 0 0 1-3.27-.4A3.68 3.68 0 0 1 5 10.94l4.86 2.86Z" fill="#EE312F"/></svg>