<!-- by TradingView --><svg xmlns="http://www.w3.org/2000/svg" width="18" height="18" viewBox="0 0 18 18"><path fill="url(#aieetlem3)" d="M0 0h18v18H0z"/><path d="M9.2 11.86c.23-.18.55-.53.45-.96-.16 0-.46.05-.49.18-.03.16-.38.28-.33-.08-.1 0-.31-.04-.28-.2.04-.15.18-.16.25-.14-.06-.08-.14-.25 0-.33.13-.07.19.06.2.13.04-.04.13-.13.2-.13s.14.08.08.23c.27-.13.84-.3 1.04.1.06-.1.3-.32.78-.48-.1-.05-.3-.22-.28-.42.02-.25.2-.5.32-.65V9.1c-.08-.07-.23-.22-.14-.33.08-.11.19-.06.23-.03 0-.08 0-.23.12-.24.12 0 .14.1.14.16.06-.04.2-.12.27-.04.1.1-.01.25-.08.28.07.02.2.09.18.2-.03.11-.2.1-.28.1h-.03c-.08.1-.25.32-.25.44 0 .15.38.24.56 0 .1-.48.49-1.38 1.29-1.2.36.13.5 1.06-.58 1.9.05.1.22.37.43.52.1-.04.29-.15.31-.3-.04-.11-.08-.33.08-.33.15-.01.18.09.18.14.07-.08.23-.2.31-.1.1.11-.04.21-.12.25.08 0 .23.03.24.14.01.13-.12.18-.2.15.03.08.06.26-.11.3-.06 0-.16-.01-.18-.14-.14.2-.5.56-.81.31-.31-.25-.39-.36-.39-.38-.05.28-.4.98-1.41 1.48.15.12.38.43.14.69l-.35.35c.1.06.28.2.21.28-.07.09-.2.04-.24 0 0 .1 0 .3-.13.3-.13-.01-.2-.13-.2-.19-.08.06-.26.16-.34.07-.09-.09.03-.25.1-.32-.08-.03-.22-.12-.17-.23.07-.13.27-.14.37-.12.03 0 .21-.18.3-.27a1.27 1.27 0 0 0-.82-.4A4.08 4.08 0 0 1 4.5 8.62a4.04 4.04 0 1 1 7.53-2.12.2.2 0 0 1-.1.29c-.1.04-.22 0-.28-.1A3.48 3.48 0 0 0 8.7 5.1a3.44 3.44 0 0 0-3.46 3.4 3.44 3.44 0 0 0 3.95 3.37z" fill="#fff"/><defs><linearGradient id="aieetlem3" x1="3.35" y1="3.12" x2="21.9" y2="24.43" gradientUnits="userSpaceOnUse"><stop stop-color="#1A1E21"/><stop offset="1" stop-color="#06060A"/></linearGradient></defs></svg>