<!-- by TradingView --><svg width="18" height="18" viewBox="0 0 18 18" xmlns="http://www.w3.org/2000/svg"><path fill="#F0F3FA" d="M0 0h18v18H0z"/><path d="M5.31 5.35c.6-.77 2-1.1 2.62-1.16-.62.7-1.9 2.43-2.06 3.66-.19 1.53 1.31 2.69 1.87 4.23.45 1.23.2 1.66 0 1.73C4.2 13.04 4 10.35 4 9c0-1.35.56-2.7 1.31-3.65Z" fill="#A8353A"/><path d="M10 4.2 9.23 4c-.93.96-2.43 2.4-2.43 3.75 0 1.15 2.24 3.37 2.24 5.1 0 .46-.24.96-.37 1.15h2.06c1.2 0 2-.51 2.25-.77-.13-.32-.4-1.26-1.13-2.11-.9-1.05-2.8-1.8-2.86-4a5.54 5.54 0 0 1 1-2.93Z" fill="#A8353A"/><path d="M12.42 5.54a3.88 3.88 0 0 0-1.68-1.16 9.5 9.5 0 0 0-.75 2.7c-.19 1.54 1.69 2.5 2.43 3.27.6.61 1.13 1.53 1.32 1.92.18-.77.37-2.3.18-3.08-.18-.77-.93-2.88-1.5-3.65Z" fill="#A8353A"/></svg>