<!-- by TradingView --><svg width="18" height="18" viewBox="0 0 18 18" xmlns="http://www.w3.org/2000/svg"><path fill="#F0F3FA" d="M0 0h18v18H0z"/><path fill-rule="evenodd" d="M3.69 7.73c.1.1.17.23.18.4h.57c0-.23-.06-.42-.16-.59-.1-.17-.23-.3-.4-.4-.18-.1-.38-.14-.6-.14-.23 0-.44.05-.62.14a1.08 1.08 0 0 0-.57 1c0 .29.07.5.23.68.15.16.36.29.63.37l.36.11c.12.04.22.08.3.13.1.04.16.1.21.16.05.07.07.15.08.25 0 .12-.03.21-.09.3a.56.56 0 0 1-.23.19c-.1.05-.2.07-.33.07a.8.8 0 0 1-.33-.07.56.56 0 0 1-.24-.2.66.66 0 0 1-.1-.34H2c0 .26.06.48.17.66.1.18.25.32.43.41.18.1.4.14.65.14.26 0 .48-.05.67-.14.18-.1.32-.24.42-.4.1-.18.14-.38.14-.61 0-.17-.03-.32-.08-.44a.97.97 0 0 0-.21-.32c-.1-.09-.2-.16-.3-.22-.12-.06-.24-.1-.36-.14l-.3-.1a1.68 1.68 0 0 1-.2-.06.85.85 0 0 1-.18-.1.47.47 0 0 1-.13-.16.46.46 0 0 1-.04-.2c0-.1.02-.2.07-.27a.48.48 0 0 1 .2-.18c.09-.04.2-.06.31-.06.18 0 .32.04.43.13ZM5 11V7h1.13c.23 0 .43.06.58.17.16.12.28.27.36.47.08.2.12.43.12.68 0 .26-.04.49-.12.69-.08.2-.2.35-.36.47a.99.99 0 0 1-.59.17h-.57V11H5Zm1.05-1.95h-.5V7.61h.5c.13 0 .24.03.33.09.09.06.15.14.2.25.04.1.06.23.06.37 0 .15-.02.27-.07.38-.04.11-.1.2-.19.26-.08.06-.2.1-.33.1ZM15.34 7H16v2.57c0 .9-.62 1.43-1.32 1.43-.7 0-1.32-.53-1.32-1.43V7H14v2.51c0 .51.27.85.68.85.4 0 .66-.34.66-.85V7Zm-4.47 4h-.6l1.08-4h.7l1.07 4h-.59l-.25-.99h-1.16l-.25.99Zm.84-3.18.4 1.58h-.83l.4-1.58h.03ZM7.4 7v4H8V9.3h1.32V11H10V7h-.68v1.6H8V7h-.6Z"/></svg>