<!-- by TradingView --><svg width="18" height="18" viewBox="0 0 18 18" xmlns="http://www.w3.org/2000/svg"><path fill="#F0F3FA" d="M0 0h18v18H0z"/><path d="M10.32 7.18 12.31 5H9.42l-.62.68 1.52 1.5Z" fill="#0B14BD"/><path d="M7.1 6.54 8.58 5l3.8 4.11-2 2.05L8.95 9.6l.59-.49L7.1 6.54Z" fill="url(#aoqrx0niu)"/><path d="M2 8.99 5.73 13H8.6L4.87 8.99 8.6 5H5.73L2 8.99Z" fill="url(#boqrx0niu)"/><path d="m13.12 9.02-2.38 2.56L12.27 13 16 9.02l-1.92-1.9-1.48 1.33.52.57Z" fill="url(#coqrx0niu)"/><path d="m11.46 7-.32.4 1.43 1.5 1.62-1.68-.23-.22h-2.5Z" fill="url(#doqrx0niu)"/><path d="M7.13 7.51 5.68 9.07 9.36 13h2.93L7.13 7.51Z" fill="url(#eoqrx0niu)"/><defs><linearGradient id="aoqrx0niu" x1="8.59" y1="5.35" x2="10.57" y2="10.55" gradientUnits="userSpaceOnUse"><stop stop-color="#3C0404"/><stop offset=".54" stop-color="#FB0001"/><stop offset="1" stop-color="#A10202"/></linearGradient><linearGradient id="boqrx0niu" x1="5.3" y1="5" x2="5.3" y2="13" gradientUnits="userSpaceOnUse"><stop stop-color="#A20202"/><stop offset=".34" stop-color="#E70001"/><stop offset=".81" stop-color="#3E0404"/></linearGradient><linearGradient id="coqrx0niu" x1="13.37" y1="7.08" x2="13.37" y2="13" gradientUnits="userSpaceOnUse"><stop offset=".11" stop-color="#0B10BC"/><stop offset=".38" stop-color="#06C0DC"/><stop offset=".6" stop-color="#0B1AB9"/><stop offset="1" stop-color="#0E1179"/></linearGradient><linearGradient id="doqrx0niu" x1="12.66" y1="7" x2="12.66" y2="8.89" gradientUnits="userSpaceOnUse"><stop offset=".19" stop-color="#0B17BD"/><stop offset=".62" stop-color="#07A6D7"/><stop offset="1" stop-color="#05D7E1"/></linearGradient><linearGradient id="eoqrx0niu" x1="8.98" y1="7.51" x2="8.98" y2="12.94" gradientUnits="userSpaceOnUse"><stop offset=".06" stop-color="#093FC3"/><stop offset=".36" stop-color="#04FCE9"/><stop offset=".83" stop-color="#0B04A8"/></linearGradient></defs></svg>