<!-- by TradingView --><svg width="18" height="18" viewBox="0 0 18 18" xmlns="http://www.w3.org/2000/svg"><path fill="#F0F3FA" d="M0 0h18v18H0z"/><path d="M13.56 6.9a12.46 12.46 0 0 0-5.53-.78c-.22.26-.5.86-.25 1.08 2.62.04 4.57.55 5.26.81.17-.14.52-.56.52-1.12Zm-1.13-1.57A5.02 5.02 0 0 0 6.8 4.5c-.01.13.01.25.1.32 2.61.04 4.57.55 5.26.82.07-.06.17-.17.27-.32Zm1.2 5.65c-.03.04-.07.06-.1.08a17.11 17.11 0 0 0-5.15-1.32c-.23-.25.11-.82.35-1.05 1.02 0 3.44.25 5.23 1.2-.06.39-.18.75-.33 1.1Zm-.68 1.14c-.29.35-.62.67-.98.93-.93-.35-2.5-.81-4.48-1.04-.14-.14.33-.33.78-.5a3 3 0 0 0 .67-.32c.88 0 2.32.14 4 .93Z" fill="#B87333"/><path d="M4 9.3a5.05 5.05 0 0 1 .12-1.4 13 13 0 0 0 5.73-3.83 5 5 0 0 1 1.23.37c-1.91 2.71-4.94 4.2-7.07 4.85Zm.67 2.19a4.96 4.96 0 0 1-.5-1.17C8.8 9.09 11.19 6.52 12.05 5c.32.25.62.53.88.84-2.1 3.47-6.03 5.13-8.25 5.65Zm1.96 1.91c-.47-.25-.9-.58-1.26-.97 5.01-1.28 7.45-4.15 8.16-5.64.24.48.4 1 .47 1.54-1.96 2.9-5.19 4.44-7.37 5.07Zm7.3-3.34a5.02 5.02 0 0 1-5.57 3.9 12.7 12.7 0 0 0 5.57-3.9Zm-5.65-6a13.7 13.7 0 0 1-3.65 2.52 5.03 5.03 0 0 1 3.65-2.53Z" fill="#8A7760"/></svg>