<!-- by TradingView --><svg width="18" height="18" viewBox="0 0 18 18" xmlns="http://www.w3.org/2000/svg"><path fill="#F0F3FA" d="M0 0h18v18H0z"/><path d="M13.66 7.17a1.14 1.14 0 0 0-1.6.03l-2.87 3-1.92 1.98a1.44 1.44 0 0 1-1.07.44l.58.57.02.01 1.54 1.49a1.14 1.14 0 0 0 1.6-.04l4.75-4.92a1.14 1.14 0 0 0-.04-1.6l-.99-.96ZM10.09 5.4l.01-.02a1.55 1.55 0 0 1 1.21-.47l-.72-.7-.93-.9a1.14 1.14 0 0 0-1.6.04L3.31 8.28a1.14 1.14 0 0 0 .04 1.6l.25.24c.27.26.63.47 1 .46.37 0 .72-.23.98-.5l4.5-4.68Z" fill="#006299"/><path d="m13.86 6.84-1.13-1.11a1.44 1.44 0 0 0-2.03.04L7.96 8.63 6.14 10.5a1.84 1.84 0 0 1-2.26.3c.08.13.17.24.27.33l1.14 1.12c.26.25.6.39.95.4h.15l.14-.02.13-.03h.01l.12-.04h.02l.1-.05.05-.03.1-.06.03-.02.09-.06a1.48 1.48 0 0 0 .14-.13l1.71-1.78.2-.21 2.89-2.99a1.1 1.1 0 0 1 1.59-.02l.5.47c0-.16-.03-.32-.09-.47a1.1 1.1 0 0 0-.26-.38Z" fill="#55AFE2"/></svg>