<!-- by TradingView --><svg width="18" height="18" viewBox="0 0 18 18" xmlns="http://www.w3.org/2000/svg"><path fill="#F0F3FA" d="M0 0h18v18H0z"/><path d="M8.54 5h.11c.32.02.64.07.95.14a1.37 1.37 0 0 1 .48.21 6.23 6.23 0 0 0-1.38-.27v.11c.35 0 .69.1.96.36.38.37.48.93.4 1.49-.09.49-.38.84-.78 1.01v.01l.03.12c.46-.14.8-.44 1.03-.9.3-.63.27-1.45-.25-1.92a4.9 4.9 0 0 1 2.07 2.01c.45-.56 1.15-.75 1.8-.77a6.33 6.33 0 0 1 2.04.29l-3.83 6.1V13H5.5v-.01L2 6.82H2c.5-.17 1-.27 1.51-.3.72-.03 1.52.13 2 .8h.01C6.16 6.07 7.22 5 8.54 5Zm.16 1.4V5.22c-1.02.01-2 .9-1.97 2.14 0 .36.1.68.37.89.13.1.31.11.46.08a.5.5 0 0 0 .31-.26c-.06.37-.24.6-.56.66-.48.09-.83-.3-.9-.83a2.6 2.6 0 0 1 .98-2.37 5.32 5.32 0 0 0-1.87 2.21c-.28-.43-.68-.7-1.12-.82-.7-.2-1.47-.15-2.15.03v.01l3.35 5.9h3.1v-2.4c-.33.43-.73.6-1.24.55a1.04 1.04 0 0 1-.9-1.17l.5-.13h.01l.02.05c-.13.26-.1.58.07.8.13.17.3.25.5.27.5.03.8-.42.91-.93.06-.23.1-.46.09-.72 0-.45-.04-.79-.09-1.31a3.16 3.16 0 0 1 .13-1.42v3.96a2.16 2.16 0 0 0 .39-.8c.1-.03.25.06.34.07a.84.84 0 0 0 .28-.02c-.04.73-.08 1.48.14 2.18.16.5.48.92.96.96.2.01.37-.04.52-.18a2.6 2.6 0 0 0 .51-.7 1.1 1.1 0 0 1-.57.48c-.73.22-1.04-.97-1.11-1.56a6.9 6.9 0 0 1-.06-.88c0-.89.1-1.79.6-2.5.1-.16.23-.31.4-.37.26-.08.43.14.52.4h.01l.37-.32v-.02c-.1-.18-.28-.36-.48-.37-.54-.02-1 .54-1.26 1.03a5.25 5.25 0 0 0-.5 1.62c-.2-.1-.4-.2-.62-.1.08-.65-.03-1.28-.11-1.92A4.9 4.9 0 0 1 9 6.28c.01-.21.06-.42.17-.6a2.98 2.98 0 0 0-.48.72Z" fill="url(#ajmrsaest)"/><defs><linearGradient id="ajmrsaest" x1="-.61" y1="6.93" x2="12.73" y2="10.05" gradientUnits="userSpaceOnUse"><stop stop-color="#F1EDCB"/><stop offset="1" stop-color="#6E6030"/></linearGradient></defs></svg>