<!-- by TradingView --><svg width="18" height="18" viewBox="0 0 18 18" xmlns="http://www.w3.org/2000/svg"><path fill="#F0F3FA" d="M0 0h18v18H0z"/><path d="M14 11H4a5.66 5.66 0 0 0 5 3.5 5.66 5.66 0 0 0 5-3.5ZM4 7a5.43 5.43 0 0 1 5-3.5A5.43 5.43 0 0 1 14 7H4Z" fill="url(#a121yuy21)"/><path d="M14 11H4a5.66 5.66 0 0 0 5 3.5 5.66 5.66 0 0 0 5-3.5ZM4 7a5.43 5.43 0 0 1 5-3.5A5.43 5.43 0 0 1 14 7H4Z" fill="url(#b121yuy21)" fill-opacity=".7"/><path d="M14 11H4a5.66 5.66 0 0 0 5 3.5 5.66 5.66 0 0 0 5-3.5ZM4 7a5.43 5.43 0 0 1 5-3.5A5.43 5.43 0 0 1 14 7H4Z" fill="url(#c121yuy21)" fill-opacity=".5"/><path d="M8.95 11a3.98 3.98 0 0 0-1.7 3.13s.87.37 1.77.37c2.19 0 4.2-1.45 4.98-3.5H8.95Z" fill="url(#d121yuy21)" fill-opacity=".9"/><ellipse cx="7.63" cy="12.23" rx=".98" ry="1.01" fill="#fff" fill-opacity=".8"/><ellipse cx="7.63" cy="12.23" rx=".45" ry=".46" fill="#BD0304"/><path d="M7.65 13.65c.74 0 1.35-.63 1.35-1.4 0-.55-.3-1.02-.73-1.25H7.02c-.43.23-.73.7-.73 1.25 0 .77.6 1.4 1.36 1.4Z" fill="#FFE5B2" fill-opacity=".3"/><path d="M10.21 7h2.65c-.98-1.4-3.22-1.7-3.22-1.1 0 .37.18.6.57 1.1Z" fill="url(#e121yuy21)"/><path d="M4 7a5.52 5.52 0 0 1 2.6-2.9S7 4.53 7 5.67c0 .68.19.99.37 1.33H4Z" fill="url(#f121yuy21)" fill-opacity=".7"/><path fill="#DC2E5C" fill-opacity=".82" d="M2 8h14v2H2z"/><defs><linearGradient id="a121yuy21" x1="9" y1="3.53" x2="6.13" y2="13.51" gradientUnits="userSpaceOnUse"><stop offset=".06" stop-color="#F43F82"/><stop offset=".23" stop-color="#FF325A"/><stop offset=".42" stop-color="#E34539"/><stop offset=".79" stop-color="#E13338" stop-opacity=".5"/><stop offset=".95" stop-color="#E02C37"/></linearGradient><linearGradient id="b121yuy21" x1="12.08" y1="-.4" x2="8.81" y2="8.39" gradientUnits="userSpaceOnUse"><stop offset=".51" stop-color="#AE2620"/><stop offset=".91" stop-color="#fff" stop-opacity="0"/></linearGradient><linearGradient id="c121yuy21" x1="9.91" y1="2.93" x2="2.5" y2="9.02" gradientUnits="userSpaceOnUse"><stop offset=".09" stop-color="#fff" stop-opacity="0"/><stop offset=".36" stop-color="#DD2949" stop-opacity=".94"/><stop offset=".67" stop-color="#D75323" stop-opacity=".27"/></linearGradient><linearGradient id="d121yuy21" x1="9.88" y1="10.3" x2="12.49" y2="13.93" gradientUnits="userSpaceOnUse"><stop offset=".2" stop-color="#C5123D"/><stop offset=".44" stop-color="#DF214A" stop-opacity=".6"/><stop offset=".67" stop-color="#B01A37"/><stop offset=".83" stop-color="#48090B"/></linearGradient><linearGradient id="e121yuy21" x1="11.41" y1="5.01" x2="11.68" y2="9.55" gradientUnits="userSpaceOnUse"><stop offset=".14" stop-color="#F7ACA6" stop-opacity=".18"/><stop offset=".32" stop-color="#FDC99E" stop-opacity=".81"/><stop offset=".65" stop-color="#FFD19C"/></linearGradient><linearGradient id="f121yuy21" x1="4.32" y1="4.6" x2="7.64" y2="7.3" gradientUnits="userSpaceOnUse"><stop offset=".34" stop-color="#A1272C"/><stop offset=".62" stop-color="#F94D31" stop-opacity=".46"/><stop offset=".84" stop-color="#FB7515" stop-opacity=".07"/></linearGradient></defs></svg>