<!-- by TradingView --><svg xmlns="http://www.w3.org/2000/svg" width="18" height="18"><path fill="url(#aef5lxy3m)" d="M0 0h18v18H0z"/><path d="M10.67 9c-.2 0-.34.16-.34.31v1.5L9.3 9.82c-.12-.12-.17-.16-.3-.16-.1 0-.16.04-.28.16l-1.04.97V8.67h2.07c.69 0 1.26-.64 1.26-1.34C11 6.65 10.44 6 9.74 6H7.29a.29.29 0 00-.29.29v5.42c0 .16.1.29.26.29.12 0 .2-.04.31-.16L9 10.51l1.39 1.33c.11.12.2.16.32.16a.3.3 0 00.29-.29V9.33a.32.32 0 00-.33-.33zm-3-2.33H9.6c.4 0 .72.3.72.66 0 .37-.32.67-.72.67H7.67V6.67z" fill="#fff"/><path fill-rule="evenodd" d="M9 14A5 5 0 109 4a5 5 0 000 10zm0 1A6 6 0 109 3a6 6 0 000 12z" fill="#0083FE"/><defs><linearGradient id="aef5lxy3m" x1="3.35" y1="3.12" x2="21.9" y2="24.43" gradientUnits="userSpaceOnUse"><stop stop-color="#1A1E21"/><stop offset="1" stop-color="#06060A"/></linearGradient></defs></svg>