<!-- by TradingView --><svg xmlns="http://www.w3.org/2000/svg" width="18" height="18" viewBox="0 0 18 18"><path fill="#F0F3FA" d="M0 0h18v18H0z"/><path fill="#C3262D" d="M6.46 7h1v4h-1zM9 7h1v4H9z"/><path d="M14.55 7h1.22L14.1 8.87 16 11h-1.25L12.9 8.87 14.55 7Z" fill="#8E2F35"/><path d="M10.61 7h1.22l1.66 1.87L11.64 11H10.4l1.4-1.59c-4.08-.51-7.78 1.87-9.17 3.19L2 12.02a12.3 12.3 0 0 1 9.9-3.57L10.62 7Z" fill="url(#a2rflk41q)"/><path d="M3 7H2v4h1V8h1.5a.5.5 0 1 1 0 1H3.18L3 10h1.5a1.5 1.5 0 0 0 0-3H3Z" fill="#C3262D"/><defs><linearGradient id="a2rflk41q" x1="13.06" y1="8.93" x2="1.59" y2="12.21" gradientUnits="userSpaceOnUse"><stop offset=".26" stop-color="#C3262D"/><stop offset=".49" stop-color="#E37140"/><stop offset=".76" stop-color="#FBAF63"/><stop offset="1" stop-color="#FEF9F3"/></linearGradient></defs></svg>