<!-- by TradingView --><svg width="18" height="18" viewBox="0 0 18 18" xmlns="http://www.w3.org/2000/svg"><path fill="#04427D" d="M0 0h18v18H0z"/><path d="M11.5 4.75s.46-.02 1.17.72c.39.4.33 1.09.33 1.09s-.1.26-.3.26c-.21 0-1.71-.36-3.58-1.63-1.87-1.28 2.27 0 2.27 0s.24.06.41.06c.09 0 .19-.04.2-.08.03-.11-.5-.42-.5-.42Z" fill="#91120E"/><path d="M11.72 7.65S9.34 6.28 8.29 4.87L7.1 4.49l-.87.2S6 4.83 6 4.98c0 .14.22 1.32 5.5 4.65L8.2 8.38 6.4 9.6s4.17 2.4 5.93 2.4c1.75 0 .8-1.58.8-1.58l-1.4-2.77Z" fill="#B21316"/><path d="M5.17 9.25s1.76 1.7 3.42 2.7c.63.37.72.74.72 1.05 0 .52-.4.88-.4.88l-.38.1s-1.67-.1-2.74-1.15c-1.08-1.04 1.4.12 1.4.12l1.18.44s-3.77-2.1-4.32-3.92l.31-1.2.84.57-.03.41Z" fill="#A41313"/><path d="M4.89 6.2s-1.15 1.6-.83 3.27c0 0 .03-.3.56-.3s2.62.6 3.9 1.27c.83.43 1.47-.44 1.47-.92 0-.26-.2-.47-.4-.62-.63-.52-3.79-2.65-4.7-2.7Z" fill="url(#ail1tqbdx)"/><path d="M11.46 13.34C11 12.87 9.65 11.82 9 11.82c-.38 0-1.01.42-1.01.8 0 .38.69.75.69 1.11 0 .22-.2.24-.2.24s1.6.24 2.97-.63Z" fill="#E13520"/><path d="M6.5 13.27s.5-.13.5-.33-.83-.92-1.14-1.11c-.3-.2-1-.69-1.2-.63-.21.06.83 1.39 1.13 1.63 0 0 0-.07.07-.07s.5.25.64.5Z" fill="url(#bil1tqbdx)"/><path d="M13.3 11.51s.8-1.2.7-2.82c0 0-1.52-1.25-2.1-1.25-.58 0-.7.6-.7.76 0 .17-.02.63.77 1.25.78.63 1.38 1.54 1.33 2.06Z" fill="#E54021"/><path d="M6.25 4.69s.34-.06.76-.06c1.2 0 3.72 1.53 4.46 1.56.39.02.34-.35.34-.43C11.81 5.04 9.98 4 9.09 4c-.53 0-1.5-.05-2.84.69Z" fill="#E33B21"/><defs><linearGradient id="ail1tqbdx" x1="4" y1="8.69" x2="10.25" y2="9.01" gradientUnits="userSpaceOnUse"><stop stop-color="#D8101F"/><stop offset=".45" stop-color="#E33C21"/></linearGradient><linearGradient id="bil1tqbdx" x1="4.63" y1="11.67" x2="7.13" y2="11.98" gradientUnits="userSpaceOnUse"><stop stop-color="#D8101F"/><stop offset="1" stop-color="#DD2520"/></linearGradient></defs></svg>