<!-- by TradingView --><svg width="18" height="18" viewBox="0 0 18 18" xmlns="http://www.w3.org/2000/svg"><path fill="#F0F3FA" d="M0 0h18v18H0z"/><path d="M6.51 4.1c.56.11 1.34.27 2.49.27 1.05 0 1.66-.13 2.17-.23.37-.08.67-.14 1.04-.14.9 0 1.79 1.1 1.79 2.2v3.48C14 10.6 12.75 15 9 15s-5-4.58-5-5.32V6.2C4 5.23 4.65 4 5.79 4c.19 0 .42.05.72.1Zm.94 2.1C6.73 6.34 6.18 7.42 6 7.94c2.04-.84 4.36.46 5.27 1.21-.37.48-1.73 1.13-2.36 1.4a7.5 7.5 0 0 1-2.73-2.1c-.43.84.43 1.98.91 2.44-.58-.14-.97-.4-1.09-.52.15.97.9 1.45 1.27 1.56C10.18 11.76 12 9.85 12 9.15c0-.55-.97-1.39-1.45-1.73.58 0 1.09.34 1.27.52-.15-.84-1.03-1.5-1.46-1.74-.29 0-1.09.23-1.45.35-.3-.28-1.1-.35-1.46-.35Zm1.46 2.26c-.3 0-1.1.46-1.46.7.3.27 1.1.57 1.46.69.29 0 1.09-.47 1.45-.7a9.62 9.62 0 0 0-1.45-.7ZM7.64 12.1l1.27.69 1.27-.7a4.25 4.25 0 0 1-1.27-.34c-.3.11-.98.35-1.27.35Z" fill="#143129"/></svg>