<!-- by TradingView --><svg width="18" height="18" viewBox="0 0 18 18" xmlns="http://www.w3.org/2000/svg"><path fill="#F0F3FA" d="M0 0h18v18H0z"/><path d="M10.1 15a1.82 1.82 0 1 0 0-3.64 1.82 1.82 0 0 0 0 3.64Z" fill="#EE5723"/><path d="M6.45 12.1a1.45 1.45 0 1 0 0-2.92 1.45 1.45 0 0 0 0 2.91Z" fill="#FCB017"/><path d="M6 8a1 1 0 1 0 0-2 1 1 0 0 0 0 2Z" fill="#1FA8C3"/><path d="M7.75 5a.75.75 0 1 0 0-1.5.75.75 0 0 0 0 1.5Z" fill="#008B76"/><path d="M10 4a.5.5 0 1 0 0-1 .5.5 0 0 0 0 1Z" fill="#432F90"/><path d="M12.36 4.73a.36.36 0 1 0 0-.73.36.36 0 0 0 0 .73Z" fill="#331D5C"/><path d="M12.64 6.73a.36.36 0 1 0 0-.73.36.36 0 0 0 0 .73Z" fill="#006D5C"/><path d="M12.36 8.73a.36.36 0 1 0 0-.73.36.36 0 0 0 0 .73Z" fill="#127C90"/><path d="M10.25 8a.25.25 0 1 0 0-.5.25.25 0 0 0 0 .5Z" fill="#C78C10"/><path d="M9.15 7a.15.15 0 1 0 0-.3.15.15 0 0 0 0 .3Z" fill="#B94318"/></svg>