<!-- by TradingView --><svg width="18" height="18" viewBox="0 0 18 18" xmlns="http://www.w3.org/2000/svg"><path fill="#F0F3FA" d="M0 0h18v18H0z"/><path d="m6.44 5.48-.86 2.37h.95l.54-1.56h.73c.74-.15 1.15-.64 1.34-1.45.16-.65-.26-.83-.5-.84H6.96l-.34.84h1.36c.1.02.25.13.18.36-.06.19-.38.27-.53.28H6.44Z"/><path d="M6.7 5.65 5.84 8h.95l.54-1.55h.73C8.8 6.3 9.2 5.82 9.4 5.01c.16-.64-.26-.82-.5-.83H7.21L6.87 5h1.35c.11.02.26.13.19.36-.06.18-.38.26-.53.28H6.7Z" fill="#C00"/><path d="m10.24 11.7-.8 2.23h.88l.51-1.47h.68c.69-.14 1.07-.6 1.25-1.35.15-.61-.25-.78-.46-.8h-1.58l-.33.8h1.27c.1.01.24.11.17.33-.06.18-.35.25-.5.26h-1.09Z"/><path d="M10.45 11.78 9.65 14h.88l.5-1.46h.69c.69-.15 1.07-.6 1.25-1.36.14-.61-.25-.78-.47-.8h-1.57l-.33.8h1.27c.1.01.24.12.17.33-.06.18-.35.25-.5.27h-1.1Z" fill="#C00"/><path d="M8.72 9.8H5l.1-.93h3.7l.13-1.12h.92l-.13 1.12h3.24l-.16.93H9.6l-.14 1.14h-.9l.16-1.14Z"/><path d="M8.83 10H5.17l.1-1h3.65l.13-1h.79l-.13 1H13l-.16 1H9.6l-.14 1H8.7l.14-1Z" fill="url(#a1a3uiyox)"/><defs><linearGradient id="a1a3uiyox" x1="5.18" y1="9.52" x2="12.89" y2="9.52" gradientUnits="userSpaceOnUse"><stop stop-color="#F8F8F8"/><stop offset="1" stop-color="#060606"/></linearGradient></defs></svg>