<!-- by TradingView --><svg width="18" height="18" viewBox="0 0 18 18" xmlns="http://www.w3.org/2000/svg"><path fill="#F0F3FA" d="M0 0h18v18H0z"/><path d="M8.81 9.85v3.63l-.37-.2.1.3L9 15l.5-1.54.06-.17-.37.19V9.85l1.53 3.28-.42-.01.09.1.14.14 1 1.06-.15-1.25v-.07l-.06-.47-.26.33L9.44 9.5l2.92 2.32-.38.18.08.03 1.6.58-.93-1.43a9.96 9.96 0 0 0-.06-.08l-.08.42L9.3 8.9l2.84-2.25.44.13L14 5.65l-.67-.16V4.7l-1.42 1.17v.47L9.58 8.2l1.24-2.65.45-.08.77-1.65-.7.2-.34-.69-.75 1.65.23.41-1.3 2.76v-3.1l.38-.23V3L9 3.5 8.44 3v1.82l.37.24v3.1L7.52 5.38l.23-.4L7 3.32l-.33.7-.71-.2.77 1.64.45.08L8.42 8.2 6.09 6.35v-.47L4.67 4.71v.8L4 5.66l1.42 1.13.44-.13L8.7 8.9 5.4 11.52l-.08-.42-.18.27-.8 1.24 1.38-.5.2-.08.1-.03-.39-.18L8.56 9.5l-1.62 3.46-.26-.33-.02.18-.01.1-.18 1.51 1-1.06.14-.15.09-.1-.42.02 1.53-3.28Z" fill="#1B2151"/></svg>