<!-- by TradingView --><svg width="18" height="18" xmlns="http://www.w3.org/2000/svg"><path fill="#005697" d="M0 0h18v18H0z"/><path d="M10.205 7.297L9.391 8.68l1.253-.709 1.096-1.738-1.535 1.064zM9.015 4l-.908 3.262.908 1.49.908-1.49L9.015 4zm1.755 4.148L9.265 9l1.44.816 5.263-.817-5.2-.85zm-3.478 0L2 9l5.325.817L8.796 9l-1.504-.852zm.095 1.88L6.29 11.73l1.566-1.028.814-1.383-1.283.709zm1.628-.78l-.908 1.49L9.015 14l.908-3.262-.908-1.49zm1.629.78l-1.316-.709.846 1.383 1.566 1.029-1.096-1.703zM6.29 6.234l1.097 1.737 1.283.71-.814-1.419L6.29 6.234z" fill="#fff"/></svg>