<!-- by TradingView --><svg width="18" height="18" fill="none" xmlns="http://www.w3.org/2000/svg"><path fill="url(#paint0_linear_3608_50338)" d="M0 0h18v18H0z"/><path fill-rule="evenodd" clip-rule="evenodd" d="M6 5H5v7h1v-1.87L8.3 12l.599-.785-1.82-1.48 1.59-1.603-.664-.703L6 9.45V5zm.012 4.867L6 9.883v-.029l.012.013zM11.001 14h-1V9.047a1.864 1.864 0 010-.094v-1.95h.665v.506A2 2 0 1111 10.733V14zm1.002-5.997a1 1 0 100 2 1 1 0 000-2z" fill="#fff"/><defs><linearGradient id="paint0_linear_3608_50338" x1="3.349" y1="3.122" x2="21.904" y2="24.434" gradientUnits="userSpaceOnUse"><stop stop-color="#1A1E21"/><stop offset="1" stop-color="#06060A"/></linearGradient></defs></svg>