<!-- by TradingView --><svg width="18" height="18" viewBox="0 0 18 18" xmlns="http://www.w3.org/2000/svg"><path fill="#0A1940" d="M0 0h18v18H0z"/><path d="M4 9.05a5.06 5.06 0 0 0 1.53 3.6l.6-2.97a3.73 3.73 0 0 1 3.43-3.8l.8-.81c-.9-.33-2.9-.88-3.76-.49A5.1 5.1 0 0 0 4 9.05Z" fill="#666"/><path d="M8.69 14c2.46 0 3.9-1.8 4.31-2.69A3.8 3.8 0 0 1 9.98 13c-1.38 0-2.9-.75-2.9-1.78 0-1.04 1.57-1.75 2.12-1.95.55-.2 3.3-1.15 3.3-2.65S10.36 4 8.8 4c-1.25 0-2.36.61-2.77.92.24-.15 3.35-.73 3.35.84 0 1.57-1.35 1.8-2.22 2.54a5.7 5.7 0 0 0-1.9 2.4c-.26.76-.01 1.55.15 1.84A4.67 4.67 0 0 0 8.69 14Z" fill="url(#aoitwtldi)"/><path d="M11.26 9c.02.06.06.09.1.09.06 0 .1.05.19.22.08.18.12.23.2.25.05.01.11.06.15.13.03.05.07.1.08.09.04-.05.23.25.25.4.02.18-.03.53-.1.64l-.11.3c-.08.23-.25.45-.34.45-.03 0-.07.03-.09.05-.07.09-.2.1-.25.01-.14-.22-.17-.24-.24-.15-.07.1-.07.1-.13.02-.1-.11-.42-.04-.55.12-.02.03-.05.06-.07.06-.06 0-.2.14-.2.2 0 .02-.05.07-.11.1-.07.02-.17.1-.24.15-.14.14-.27.15-.27.02 0-.05-.08-.16-.22-.32-.12-.13-.2-.25-.18-.26.02-.01 0-.05-.05-.09-.19-.16-.11-.4.21-.66.2-.16.24-.23.24-.42 0-.13 0-.15.05-.13.04.01.05 0 .04-.04-.02-.03-.01-.06 0-.06.02 0 .04-.06.05-.13.03-.18.13-.3.21-.26.13.07.2.02.2-.16 0-.13.02-.18.1-.24.08-.07.09-.09.04-.12-.03-.02 0-.03.11-.03.09 0 .16-.02.18-.04.03-.05.15-.04.15.02 0 .03-.02.06-.03.06l-.02.14c0 .14.48.31.55.2.04-.07.04-.25 0-.36a1.76 1.76 0 0 1-.06-.3c-.02-.25.07-.22.16.04Zm.48 2.87c-.07.1-.12.11-.12.02 0-.04.03-.09.08-.1.1-.04.1-.02.04.08Z" fill="#fff"/><defs><linearGradient id="aoitwtldi" x1="10.33" y1="4.3" x2="8.94" y2="13.98" gradientUnits="userSpaceOnUse"><stop stop-color="#7B797E"/><stop offset=".11" stop-color="#AEACAD"/><stop offset=".33" stop-color="#BBB"/><stop offset=".76" stop-color="#B3B3B3"/><stop offset="1" stop-color="#787677"/></linearGradient></defs></svg>