<!-- by TradingView --><svg width="18" height="18" viewBox="0 0 18 18" xmlns="http://www.w3.org/2000/svg"><path fill="#F0F3FA" d="M0 0h18v18H0z"/><path fill-rule="evenodd" d="M12.67 5.25H5.33v7.5h7.34v-7.5ZM6 6v6h1V6.6h2.34c.46 0 1.47.1 1.47.87s-1.09.98-1.63 1l.38.53c.9 0 2.53-.26 2.54-1.6.01-1.06-1.06-1.38-1.6-1.4H6Zm1.57 6V7h1v4.4h.99c.45 0 1.53-.04 1.53-.79 0-.74-1.3-.92-1.85-.93l.32-.5c.9 0 2.74.13 2.75 1.43.02 1.05-1.06 1.37-1.6 1.39H7.58Z" fill="#0A6961"/><path fill-rule="evenodd" d="M13.33 4.63H4.67v8.75h8.66V4.62ZM4 4v10h10V4H4Z" fill="#B38700"/></svg>