<!-- by TradingView --><svg width="18" height="18" viewBox="0 0 18 18" xmlns="http://www.w3.org/2000/svg"><path fill="#F0F3FA" d="M0 0h18v18H0z"/><path d="M7.5 9.24V15C4.15 14 3 11.2 3 9.15 3 7.52 3.7 6.36 4.06 6h2.33c-.52.47-1.56 1.77-1.56 3.15S5.67 11.43 6 11.7V8.91C6 6.47 8.4 6 9 6c.6 0 3.19.37 3.19 3.15S9.67 12.4 9.18 12.4c-.4 0-.47-.05-.55-.07v-1.83c.12.05.25.14.55.14 1 0 1.32-1 1.32-1.48S10.18 7.8 9.04 7.8c-.9 0-1.54.51-1.54 1.44Z" fill="#00A7E6"/><path d="M10.5 4.9V3c3 .85 4.5 3.5 4.5 5.72 0 1.78-.67 2.93-1 3.28h-2.2a4.4 4.4 0 0 0 1.51-3.24 4.1 4.1 0 0 0-2.81-3.85Z" fill="#032F56"/></svg>