<!-- by TradingView --><svg width="18" height="18" viewBox="0 0 18 18" xmlns="http://www.w3.org/2000/svg"><path fill="#F0F3FA" d="M0 0h18v18H0z"/><path fill-rule="evenodd" d="M12.2 11.86c-.24.3-.52.57-.83.79.5.35.87.48 1.02.34.16-.15.08-.55-.18-1.13Zm-1.12.97a3.9 3.9 0 0 1-1.98.54c-1.45 0-2.73-.8-3.46-2L4.21 12.9c-.19.2-.49.2-.67 0a.52.52 0 0 1 0-.71L5.2 10.4l.73-.76 1.05-1.11c-.27-.35-.52-.7-.75-1.03-.21.44-.34.95-.35 1.48l-.81.86a4.57 4.57 0 0 1 .62-3.19c-.8-1.3-1.16-2.3-.86-2.58.3-.28 1.18.21 2.29 1.2a3.9 3.9 0 0 1 4.94.81l-.62.66A3.13 3.13 0 0 0 9.1 5.67c-1.11 0-2.09.6-2.66 1.5.23.35.5.73.78 1.12l1.81-1.9c.19-.2.49-.2.67 0 .19.19.19.5 0 .7L7.83 9.07a29.52 29.52 0 0 0 .85 1.01l2.94-3.1.63-.67.94-1c.19-.19.49-.19.67 0 .19.2.19.52 0 .72l-1.08 1.14a4.5 4.5 0 0 1-.5 4.6c.42.84.57 1.45.34 1.65-.23.21-.8-.02-1.54-.59Zm-.78-.63c-.37.16-.78.24-1.2.24-1.21 0-2.27-.7-2.81-1.75l1.3-1.38a30.32 30.32 0 0 0 .86 1.01l-.05.05a.52.52 0 0 0 0 .7c.19.2.49.2.68 0l.03-.03c.42.43.82.82 1.2 1.16Zm.31-.16c-.4-.34-.83-.76-1.28-1.23l2.78-2.93c.12.37.2.76.2 1.18 0 1.3-.7 2.41-1.7 2.98Zm-4.68-5.7c.3-.4.65-.72 1.06-.98-.77-.65-1.36-.95-1.57-.76-.2.2 0 .84.5 1.73Z" fill="url(#a5xz2zvcx)"/><defs><linearGradient id="a5xz2zvcx" x1="4.02" y1="12.88" x2="14.13" y2="6.56" gradientUnits="userSpaceOnUse"><stop stop-color="#3397E9"/><stop offset="1" stop-color="#B1C935"/></linearGradient></defs></svg>