<!-- by TradingView --><svg width="18" height="18" fill="none" xmlns="http://www.w3.org/2000/svg"><path fill="#F0F3FA" d="M0 0h18v18H0z"/><path d="M11.612 5c-.984 0-1.753.743-2.45 1.688C8.205 5.466 7.406 5 6.448 5 4.496 5 3 7.549 3 10.247 3 11.935 3.814 13 5.178 13c.981 0 1.687-.464 2.942-2.665l.883-1.565c.126.204.258.424.398.66l.589.993C11.136 12.347 11.774 13 12.932 13 14.261 13 15 11.92 15 10.198 15 7.373 13.47 5 11.612 5zM7.163 9.74c-1.017 1.6-1.37 1.958-1.936 1.958-.583 0-.93-.514-.93-1.43 0-1.958.974-3.96 2.134-3.96.629 0 1.154.363 1.958 1.518C7.626 9.002 7.163 9.74 7.163 9.74zm3.84-.202l-.704-1.177a25.54 25.54 0 00-.548-.858c.634-.981 1.157-1.471 1.779-1.471 1.292 0 2.326 1.909 2.326 4.254 0 .893-.292 1.412-.896 1.412-.58 0-.857-.384-1.957-2.16z" fill="#0281FB"/></svg>