<!-- by TradingView --><svg width="18" height="18" viewBox="0 0 18 18" xmlns="http://www.w3.org/2000/svg"><path fill="url(#avwvsswfy)" d="M0 0h18v18H0z"/><path d="m7.96 4-3.09.8-.85 3.08 1.06 1.09L4 10.03l.8 3.1 3.08.85 1.09-1.06L10.03 14l3.1-.8.85-3.08-1.06-1.09L14 7.97l-.8-3.1-3.08-.85-1.09 1.06L7.96 4Zm-1.9 1.4 1.64-.43.7.73-1.03 1.02-1.3-1.32Zm3.58.3.73-.7 1.62.44-1.32 1.3-1.03-1.03ZM5 7.64l.45-1.62 1.3 1.32-1.03 1.03-.72-.73Zm6.29-.26 1.32-1.3.43 1.63-.73.7-1.02-1.03Zm-3.3-.03 1.04-1.02 1.02 1.04L9 8.38 7.98 7.34ZM6.32 8.98l1.04-1.02L8.38 9l-1.04 1.02-1.02-1.04Zm3.3.02 1.04-1.02 1.02 1.04-1.04 1.02L9.62 9Zm-4.65 1.3.73-.7 1.02 1.03-1.32 1.3-.43-1.63Zm2.99.34 1.03-1.02 1.03 1.04-1.04 1.02-1.02-1.04Zm3.3.03 1.03-1.03.72.73-.45 1.62-1.3-1.32ZM6 12.56l1.32-1.3 1.03 1.03-.73.72-1.62-.45Zm3.58-.26 1.04-1.02 1.3 1.32-1.63.43-.7-.73Z" fill="#fff"/><defs><linearGradient id="avwvsswfy" x1="3.35" y1="3.12" x2="21.9" y2="24.43" gradientUnits="userSpaceOnUse"><stop stop-color="#1A1E21"/><stop offset="1" stop-color="#06060A"/></linearGradient></defs></svg>