<!-- by TradingView --><svg width="18" height="18" xmlns="http://www.w3.org/2000/svg"><path fill="#0060B3" d="M0 0h18v18H0z"/><path d="M5.793 7L4 5h3.479c.362.403 1.132 1.243 1.31 1.38a.317.317 0 00.419 0L10.505 5H14l-1.824 2H5.793zm0 1.996L4 7h3.479c.362.402 1.132 1.24 1.31 1.377a.318.318 0 00.419 0L10.505 7H14l-1.824 1.996H5.793zm0 2L4 8.996h3.479c.362.403 1.132 1.243 1.31 1.38a.317.317 0 00.419 0l1.297-1.38H14l-1.824 2H5.793z" fill="#fff"/><path d="M5.793 13L4 10.996h3.479c.362.404 1.132 1.246 1.31 1.382a.317.317 0 00.419 0l1.297-1.382H14L12.176 13H5.793z" fill="#fff"/></svg>