<!-- by TradingView --><svg width="18" height="18" viewBox="0 0 18 18" xmlns="http://www.w3.org/2000/svg"><path fill="#F0F3FA" d="M0 0h18v18H0z"/><path d="M8.8 7.5H8v3h2v-.75H8.8V7.5ZM10 7.5h1c.5 0 .9.5.9 1.13 0 .62-.4 1.12-.9 1.12h-.36v.75H10v-3Zm.91.75h-.27V9h.27c.2 0 .36-.17.36-.37 0-.21-.16-.38-.36-.38ZM6 7.5h1.05c.53 0 .95.5.95 1.13 0 .62-.42 1.12-.95 1.12h-.38v.75H6v-3Zm.95.75h-.28V9h.28c.21 0 .38-.17.38-.37 0-.21-.17-.38-.38-.38Z" fill="#0033A0"/><path d="M13.75 10.56a5 5 0 0 1-9.5 0H3.16a7.78 7.78 0 0 1 0-3.12h1.09a5 5 0 0 1 9.5 0h1.1a7.79 7.79 0 0 1-.01 3.12h-1.09ZM9 13a4 4 0 1 0 0-8 4 4 0 0 0 0 8Z" fill="#0033A0"/></svg>