<!-- by TradingView --><svg width="18" height="18" viewBox="0 0 18 18" xmlns="http://www.w3.org/2000/svg"><path fill="#F0F3FA" d="M0 0h18v18H0z"/><path d="m14.7 5.68-.36-.16L10.92 4c-.01 0-.03.02-.03.04v.01c.05.03.6.3.92.48.18.1.45.27.45.5 0 .18-.12.36-.2.52-.64 1.13-1.3 2.13-1.95 3.25-.2.33-.36.7-.8.7H6.2c-.3 0-.6.02-.8.25-.22.27-.38.72-.56 1.02L3 14l.23-.04c2.17-3.82 2.62-4.83 0 0l.24-.04c2.06-3.62 2.4-4.45 0 0l1.64-.3c2.5-4.8 2.75-4.87 0 0l.23-.04c2.4-4.6 2.74-4.83 0 0l1.38-.25c.49-.9.97-1.7 1.44-2.62.2-.4.43-.85.95-.88 1.1 0 2.28.13 3.37-.04.42-.07.7-.4.94-.76.52-.78.93-1.64 1.4-2.45.09-.13.17-.24.18-.4.02-.21-.11-.39-.3-.5Z" fill="url(#a4wrw3cxr)"/><defs><linearGradient id="a4wrw3cxr" x1="10.94" y1="4" x2="10.94" y2="14.59" gradientUnits="userSpaceOnUse"><stop offset=".12" stop-color="#2E3A9B"/><stop offset=".49" stop-color="#08AFEF"/><stop offset=".9" stop-color="#333695"/></linearGradient></defs></svg>