<!-- by TradingView --><svg xmlns="http://www.w3.org/2000/svg" width="18" height="18"><path fill="#F34" d="M0 0h18v18H0z"/><path d="M12.1 13.15c-2.84 2.12-6.53 1.97-8.24-.32-1.44-1.94-1.02-4.77.85-6.88-.14-.33-.31-.96-.08-1.27.3-.4.8-.4 1.93-.27 2.73-1.64 6-1.36 7.58.76 1.7 2.3.8 5.87-2.04 7.98zM7.7 4.37c.65 0 1.43.05 2 .23.9.3 1.5.82 1.68 1.04.06.1.2.34.25.6.04.33.4.97.65 1.13.24.16.17.4.12.57v.01c-.04.14-.53 1.41-.77 2.03-.12.25-.56.67-1.28.37a3.9 3.9 0 00-1.38-.4c-.15 0-1.47.06-1.47 1.86.01 1.42 1.15 2.04 2.34 1.95a6.96 6.96 0 001.97-1.03c2.56-1.9 3.38-5.13 1.84-7.2-1.26-1.7-3.7-2.1-5.96-1.16z"/><path fill-rule="evenodd" d="M9.94 13.85s-3.5.62-2.57-3.1c-.67.39-.84 1.48-.84 1.48-.24-1.25.91-2.98 2.68-2.82.36.03.64.15.91.27.3.12.57.24.92.24.48 0 .66-.77.66-.77-.43.03-1.18.03-1.28-.3-.02-.07.01-.22.22-.22.1 0 .17.06.25.13.13.1.29.2.57.2.33 0 .49-.52.53-.79a.32.32 0 00-.06-.1c-.05-.07-.12-.17-.12-.24l.38-.11c-.17-.06-.63-.65-.81-1.36.08-.59-1.39-1.65-3.1-1.65-.44 0-.97.09-1.37.22a2 2 0 01-.31-.07c-.44-.12-1.2-.32-1.57-.11-.38.22-.16.7-.03 1 .05.11.1.2.07.22-1.76 1.98-2.16 4.66-.8 6.48 1.22 1.63 3.49 2.11 5.67 1.4zM4.34 9.4c.2.03.38-.2.43-.51.04-.31-.07-.59-.26-.61-.18-.03-.37.2-.42.51-.04.31.07.59.26.61zm1.03-1.94c-.15.27-.41.4-.58.31-.17-.1-.17-.39-.02-.66.15-.27.41-.4.58-.31.17.1.18.39.02.66zm2.97-2.19c-.03.16.13.32.35.36.22.03.42-.07.45-.23.02-.16-.14-.32-.36-.36-.22-.03-.42.07-.44.23zm2.5 1.22c-.7-.25-1.66-.1-2.06 0 1.68-.2 2.14.86 2.17 1.42.06-.15.05-.75-.07-.96a.68.68 0 01-.04-.46zM5.6 6.22c-.21-.28-.56-.9-.33-1.11.3-.28 1.4.16 1.53.24-.25 0-.84.18-1.2.87z" fill="#fff"/></svg>