<!-- by TradingView --><svg width="18" height="18" viewBox="0 0 18 18" xmlns="http://www.w3.org/2000/svg"><path fill="#F0F3FA" d="M0 0h18v18H0z"/><path d="M5.95 10.5H10c.32.17.78 0 1.16 0h1.9c.37 0 .78-1 .94-1.5a4.87 4.87 0 0 1-.47-1.5c0-.5-.48-.5-.48-1s-.94-1-.94-1.5-.95 0-1.42-.5c-.48-.5-.48 0-.48.5s-.47-1-.94-1c-.48 0-.48.5-.48 1s-.94-1-1.42-1c-.47 0-.94.5-1.42 1-.47.5 0 .5-.47 1s-.47 0-.95.5c-.47.5 0 .5 0 1s-.47 1-.47 1.5.47 1 0 1.5c-.38.4 1.1.17 1.9 0Z" fill-opacity=".5"/><path d="m8.01 10 .07.13c.2.45.26.81.2 1.39-.09.66-.19.77-.72.77-.3 0-.43.04-.53.14-.12.1-.25.13-.7.14-.29-.12-.32-.1-.43-.01-.05.03-.1.08-.2.12.13-.03.15-.02.1.1-.03.1-.02.1.1-.03.21-.23.39-.18.25.08-.06.13-.06.13.1-.02.13-.12.21-.15.35-.12.1.03.15.08.12.13s.06-.02.2-.14c.25-.23.32-.25.54-.15.11.05.1.07-.17.19a9.8 9.8 0 0 0-.73.38l-.08.04c-.1.05-.18.11-.18.14 0 .03.08 0 .18-.05.24-.13.3-.12.25.03-.02.07.09 0 .26-.17.17-.16.36-.3.41-.3.08 0 .02.1-.17.25-.15.14-.26.27-.24.29.02.01.15-.07.29-.2.14-.13.41-.34.6-.48.43-.32.35-.13-.14.33-.35.32-.56.6-.5.68.03.02.09-.05.14-.16.08-.17.44-.5.54-.5.02 0 0 .08-.03.19l-.07.19.12-.16c.46-.67.6-.75.32-.16-.2.42-.25.64-.18.84.06.15.07.14.07-.06 0-.23.16-.58.24-.57.03.01.1-.1.15-.21.08-.2.1-.21.14-.1.04.08.06.31.07.52.01.3.03.33.06.17.03-.13.08-.2.15-.19.07.02.08.01 0-.06-.1-.1-.1-.44-.01-.5.04-.02.07.01.07.08s.02.09.04.04c.01-.04.05-.09.09-.09.08 0 .22.47.18.64-.02.09 0 .16.04.16l.17.04.07.01.17.05-.15-.11c-.08-.07-.15-.17-.15-.24 0-.06-.06-.29-.13-.5l-.13-.38.16.11c.09.07.2.23.26.36.05.13.1.2.1.15.01-.16.18-.08.45.24l.28.32-.14-.27c-.08-.15-.3-.41-.48-.59-.19-.18-.3-.32-.25-.32.16 0 .69.42.82.65.07.13.23.28.34.34l.21.11-.21-.23a27.2 27.2 0 0 0-.14-.14l-.35-.38c-.15-.16-.23-.29-.2-.29s.08.03.1.07c.02.04.1.07.18.07.07 0 .26.13.42.28.17.15.3.25.3.2 0-.03-.04-.08-.08-.1-.06-.02-.05-.04.01-.04.06 0 .18.05.27.11l.02.02c.13.09.13.09.06-.02a.67.67 0 0 0-.23-.15 1.16 1.16 0 0 1-.35-.23.88.88 0 0 0-.32-.22c-.18-.03-.22-.19-.05-.19.07 0 .24.1.37.21.2.18.24.19.27.1.06-.13.22-.13.37 0 .1.1.11.1.08-.03-.05-.18.02-.18.2-.03.08.08.1.08.08.03-.05-.08 0-.09.33-.05.22.03.87.08 1.45.1 0 0-1.12-.2-2.06-.23-.43-.01-.58-.04-.74-.16a.62.62 0 0 0-.64-.08c-.2.08-.47-.08-.6-.38a1.94 1.94 0 0 1-.13-.8c0-.47.03-.6.2-.95l.1-.19h-.44c-.15.28-.29.67-.3.86 0 .08-.03 0-.06-.16-.03-.17-.03-.37.02-.7h-.26c-.05.14-.08.19-.1.15-.05-.05-.08-.1-.1-.15H8Z"/></svg>