<!-- by TradingView --><svg width="18" height="18" viewBox="0 0 18 18" xmlns="http://www.w3.org/2000/svg"><path fill="#F0F3FA" d="M0 0h18v18H0z"/><path d="M12.18 10.57c.17.03.24.07.3.22l-.37.26-.07.05v-.03H12l.17-.5Z" fill="#CE0028"/><path d="m12.01 11.06.17-.49h-.2c-.1 0-.2.02-.31.04a7.06 7.06 0 0 0-.8.2l.42.39h.03l.43-.1" fill="#DC442C"/><path d="M12.49 10.8c.06.17.08.38.08.56a8.26 8.26 0 0 1-.08 1.24l-.31-.01c0-.97 0-1.02-.07-1.54l.38-.26Z" fill="#F73A11"/><path d="M12.11 11.06a4.01 4.01 0 0 1 .05 1.54h-.18a9 9 0 0 0 .08-.8v-.54c0-.07 0-.12-.02-.16l.07-.04Z" fill="#E6231E"/><path d="m12.04 11.1.02.16v.54a19.03 19.03 0 0 1-.4 2.53h-.01v.01l-.07.23c-.02.09-.17.93-.3.9h-.04l-.05-.16-.11-.3-.2-.64-.03-.1-.06-.16v-.03l.1-.23.13-.33.27-.64.1-.25.1-.23.42-1 .13-.3Z" fill="#FF4B04"/><path d="M8.57 11.61c.39.27.77.54 1.2.74.1.05.18.09.28.12a13.73 13.73 0 0 0-.11.48 3.04 3.04 0 0 1-.65-.28 8.9 8.9 0 0 1-.8-.5l.07-.55h.01Z" fill="#BD2230"/><path d="m11.33 11.2-.46-.39-.01.01c-.1.36-.2.72-.34 1.07l.05.02.05.02.04.02.17.08.15.09.03-.06.06-.16c.1-.22.23-.54.26-.7Z" fill="url(#atlnzciop)"/><path d="M10.57 11.91a.25.25 0 0 1-.05-.02l-.04.13c-.05.13-.1.29-.19.38v.01l.38.3c.09-.13.16-.26.23-.4l.08-.19-.15-.09-.17-.08-.04-.02a.22.22 0 0 0-.05-.02Z" fill="url(#btlnzciop)"/><path d="M8.57 11.62h-.02c-.26.09-.5.2-.71.3a2.42 2.42 0 0 0-.42.27l-.03.03.1.06.37.23.63-.34.07-.55Z" fill="url(#ctlnzciop)"/><path d="M12.03 11.07h-.02l-.26.03-.43.1v.02l.07.8.03.35.07.03.42-1 .13-.3v-.03Z" fill="url(#dtlnzciop)"/><path d="m10.3 12.4.37.3-.08.11a.57.57 0 0 1-.24.17.6.6 0 0 1-.15.01 1.1 1.1 0 0 1-.26-.04l.04-.15.07-.33c.1.02.19.02.24-.07Z" fill="#D43A2E"/><path d="m8.47 12.18.72 1.04.02.06-1.42-.75.65-.34h.03Z" fill="#FF4B04"/><path d="m11.3 11.2.01.02.08.8.03.35.07.03-.7 1.68v.03l.06.16h-.05a.83.83 0 0 0-.15-.1c-.5-.27-.9-.63-1.41-.87l-.03-.03a.1.1 0 0 0-.02-.05l-.72-1.04h.02l.8.5c.2.1.43.2.65.27.09.03.17.04.26.05.05 0 .1 0 .15-.02.1-.03.17-.1.24-.17l.08-.1c.09-.13.16-.26.23-.4l.08-.19.03-.06a6.8 6.8 0 0 0 .27-.82l.02-.03Z" fill="url(#etlnzciop)"/><path d="M9.43 14.16a8.77 8.77 0 0 0 1.85 1.3l-.5-1.35-2.95-1.56a8.71 8.71 0 0 0 1.6 1.61Z" fill="url(#ftlnzciop)"/><path d="m7.4 12.21.47.3c0 .03-.02.05-.02.05l-.55.03c-.06-.15-.01-.27.1-.38Z" fill="#FFD2A2"/><path d="m8.1 12.9.01.01c-.04.04-.01.06 0 .1.01.05.03.1.06.14 0 .04.08.1.09.14.06.15.08.52.2.63.02 0 .02.03.02.05l-.02.01c-.32-.3-.63-.61-.9-.96-.1-.13-.2-.28-.27-.44h.17l.37-.02h.01c.08.12.16.23.26.33Z" fill="#F73A11"/><path d="M12.5 12.6a15.21 15.21 0 0 1-.38 1.91l-.15-.05-.01-.02.02-.08a8.06 8.06 0 0 0 .35-1.77h.17ZM12.17 12.61a15.66 15.66 0 0 1-.3 1.75v.04h-.03a15.1 15.1 0 0 0-.19-.06c.14-.58.24-1.16.33-1.74a5.14 5.14 0 0 1 .2.01Z" fill="#CE0028"/><path d="M8.11 12.91c.24.26.48.51.76.76-.4.31-.4.46-.52.07l-.06-.19c-.06-.17-.14-.36-.18-.54-.01-.04-.04-.06 0-.1Z" fill="#E6231E"/><path d="m8.68 13.24 1.97 1.03.23.52-.11-.07a5059.86 5059.86 0 0 0-2.1-1.48Z" fill="#fff"/><path d="m8.87 13.67.13.1c.21.2 1.47 1.2 1.47 1.2l-.32.38a20.57 20.57 0 0 1-1.69-1.37l.02-.01.4-.3Z" fill="#FF7000"/><path d="M12.33 12.6a9.8 9.8 0 0 1-.62 2.53l-.16.36.1-.33a13.1 13.1 0 0 0 .6-3.45v-.21l.12-.07c.01.4 0 .78-.04 1.17Z" fill="url(#gtlnzciop)"/><path d="M11.65 14.34a15.1 15.1 0 0 1 .21.06l-.14.53-.06.23-.1.3-.01.02v-.02l.16-.33a8.7 8.7 0 0 0 .26-.67 16.07 16.07 0 0 0 .17.06l-.2.69-.03.06c-.1.27-.27.74-.53.73a.51.51 0 0 1-.15-.03l.04-.52.02-.04.2-.46s0-.04.1-.38a2.38 2.38 0 0 1 .06-.23Z" fill="url(#htlnzciop)"/><path d="M10.94 15.28a7.96 7.96 0 0 1-.46-.3c-.03 0-.04.02-.05.04l-.01.02-.09.1-.1.09a3.82 3.82 0 0 1-.1.12 7.2 7.2 0 0 0 1.1.62l.04-.52a3.3 3.3 0 0 1-.33-.17Z" fill="url(#itlnzciop)"/><path d="M6.47 11.42c-.11.13-.18.17-.35.14l-.05-.44v-.08h.01l.01.01h.01l.02-.01.35.38Z" fill="#8BCFF2"/><path d="m6.12 11.04.35.38c.04-.04.07-.1.1-.16.05-.1.1-.19.13-.28a6.4 6.4 0 0 0 .22-.77l-.56.16-.01.02a4.64 4.64 0 0 1-.23.65Z" fill="url(#jtlnzciop)"/><path d="M5.56 11.35c.17.09.37.18.56.21l-.05-.44v-.08a4.38 4.38 0 0 1-.64-.35c-.23-.15-.45-.3-.66-.47a4.76 4.76 0 0 1-.12.16h.01l-.16.28c.33.25.7.49 1.06.69Zm.51-.23h-.02.02Z" fill="#136CB0"/><path d="M6.08 11.04c-.05-.01-.1-.03-.16-.07a9.65 9.65 0 0 1-1.15-.75 20.2 20.2 0 0 1-1.4-1.16l-.16-.17c-.07-.06-.75-.61-.66-.7l.03-.03.17.03.32.06.67.16.1.02.18.03.03.02.16.2.22.28.44.55.17.21.15.2.69.86.2.26Z" fill="url(#ktlnzciop)"/><path d="M7.38 7.9c-.44.19-.87.37-1.27.62-.09.05-.17.1-.25.17a14.43 14.43 0 0 0-.37-.34c.17-.15.37-.28.58-.4.27-.14.56-.28.85-.4l.46.34v.01Z" fill="url(#ltlnzciop)"/><path d="m6.34 10.4.58-.19c-.27-.27-.54-.54-.78-.84l-.1-.1a1.15 1.15 0 0 1-.25-.35l-.46.17c.07.13.15.26.24.38l.13.17.04.05.1.14c.16.19.37.47.5.56Z" fill="#164271"/><path d="m7.38 7.9.01-.02c.05-.26.08-.51.09-.75 0-.14 0-.3-.02-.44l-.01-.04V6.6l-.12.05-.4.2v.69l.45.34Z" fill="#0060A7"/><path d="m6.1 11.05.02-.01.1-.24a4.64 4.64 0 0 0 .12-.43l-.76-.34-.33-.15-.06.04.69.86.2.26.01.01h.01Z" fill="#6DCDF5"/><path d="m5.8 8.92-.47.17-.05-.13a.53.53 0 0 1-.03-.29.54.54 0 0 1 .07-.13c.05-.06.1-.13.17-.19l.11.11.26.23c-.07.08-.11.14-.06.23Z" fill="#136AAF"/><path d="M6.92 7.52a8756.88 8756.88 0 0 1-1.36.06l1.4-.8-.03.72v.02Z" fill="#C6EAFA"/><path d="M6.35 10.37h-.02l-.75-.34-.33-.15-.06.04-1.14-1.44a.05.05 0 0 0-.03-.02l-.17-.03.02-.03.17-.08c.49-.27 1.02-.43 1.5-.72l.04-.02.05.02a10386.79 10386.79 0 0 0 1.3-.05c-.3.12-.59.26-.86.4-.21.12-.41.25-.58.4-.07.06-.13.13-.17.2a.54.54 0 0 0-.07.12c-.02.11 0 .2.03.3l.05.12c.07.13.15.26.24.38l.13.17.04.05a7.06 7.06 0 0 0 .6.65l.01.03Z" fill="url(#mtlnzciop)"/><path d="M4.67 7.31c-.96.26-1.8.69-2.1.87l1.46.29 2.9-1.66c-.4-.06-1.68.32-2.26.5Z" fill="#5098D2"/><path d="m7.44 6.62-.5.24-.04-.04.26-.48c.16.03.24.14.28.28Z" fill="#164271"/><path d="M2.97 9.38c.49.45 1 .89 1.53 1.28l.17-.28.1-.16c-.48-.36-.95-.75-1.4-1.15l-.04.03-.1.08a17.7 17.7 0 0 0-.26.2Z" fill="url(#ntlnzciop)"/><path d="M6.45 6.86h.03a3.14 3.14 0 0 1 .43-.05l.18-.33.07-.13a1.87 1.87 0 0 0-.52-.01 8.53 8.53 0 0 0-1.32.28c-.02.03 0 .1.02.2l.05.28c.37-.1.71-.18 1.06-.24Z" fill="#1467AB"/><path d="m5.4 7.1-.17.05c-.28.08-1.83.61-1.83.61l-.16-.46a21.24 21.24 0 0 1 2.08-.7v.03l.07.47Z" fill="#164271"/><path d="M2.97 9.38a9.21 9.21 0 0 1-.51-.52L2.4 8.8c-.19-.21-.51-.6-.38-.8a.49.49 0 0 1 .1-.12l.45.3.03.04.3.4.3.27.07.08.1.09c.08.07-.37.3-.41.32Z" fill="#5694CF"/><path d="M2.9 8a8.05 8.05 0 0 1 .5-.23V7.7l-.02-.02a1.57 1.57 0 0 1-.04-.12c-.01-.05-.02-.1-.04-.13a4.86 4.86 0 0 1-.05-.14 7.25 7.25 0 0 0-1.11.58l.44.3L2.9 8Z" fill="#1069AD"/><path d="m3.94 8.84-.52-.09 1.83 1.62-1.3-1.53Z" fill="#FFFFFD"/><path d="M12.34 9.35c.17.04.25.03.37-.1l-.25-.37-.05-.06-.01.02h-.03l-.03.51Z" fill="#F6C42A"/><path d="m12.37 8.84-.03.51a2.56 2.56 0 0 1-.46-.22 6.84 6.84 0 0 1-.67-.47l.55-.2h.02a4.97 4.97 0 0 0 .6.38Z" fill="url(#otlnzciop)"/><path d="M13 8.76c-.07.17-.17.36-.3.5l-.24-.38-.05-.06.08-.15a4.07 4.07 0 0 0 .2-.5c.1-.26.17-.51.24-.77a5.03 5.03 0 0 0 .19.06v.01l.3.12c-.12.4-.25.8-.41 1.17Zm-.54.12.01-.02-.01.02Z" fill="url(#ptlnzciop)"/><path d="M12.4 8.82h.01l.08-.15c.1-.19.14-.33.2-.5a19.02 19.02 0 0 0 .6-2.5l.03-.24c.01-.1.2-.92.07-.94l-.04-.01-.11.12-.22.24-.43.52-.07.08-.12.13v3.25Z" fill="url(#qtlnzciop)"/><path d="M9.39 7.1c.46-.11.92-.22 1.4-.26h.3a13.7 13.7 0 0 1 .08-.5 3.1 3.1 0 0 0-.7.03c-.32.05-.64.1-.95.18l-.14.54v.01Z" fill="url(#rtlnzciop)"/><path d="m11.79 8.46-.58.2c.05-.38.09-.75.1-1.13V7.4a1.11 1.11 0 0 0-.02-.43l.47-.14.06.45V7.72c0 .24 0 .6-.03.74Z" fill="#F99026"/><path d="M9.38 7.1h-.02c-.2-.2-.38-.37-.54-.55a2.33 2.33 0 0 1-.28-.4l-.02-.04.12-.02.43-.08.45.54-.14.54Z" fill="#FBF69B"/><path d="M12.4 8.84h-.03a4.97 4.97 0 0 1-.6-.4s.3-.53.39-.72l.17-.3V7.4h.07V8.84Z" fill="#FFFCDF"/><path d="m11.29 6.98.47-.15-.04-.12a.54.54 0 0 0-.16-.25.58.58 0 0 0-.13-.06 1.11 1.11 0 0 0-.26-.05l-.02.15-.06.33c.1.02.18.05.2.15Z" fill="#F6C028"/><path d="M9.5 6.53a6860.95 6860.95 0 0 0 1.12-.75l-1.6.2.47.53c0 .01 0 .02.02.02Z" fill="#FEFBE8"/><path d="M11.76 8.45h.02v-.01l.38-.72.17-.3V7.4h.07V5.57l.12-.13-.04-.01a.85.85 0 0 1-.18.04c-.56.07-1.08.25-1.65.3l-.04.02a.1.1 0 0 1-.03.04l-1.07.7.01.02c.31-.07.63-.13.94-.18.24-.03.48-.05.71-.02.1 0 .18.02.26.05.05.01.1.03.13.06.09.07.12.15.16.25l.04.12.06.45v.27a6.73 6.73 0 0 1-.06.87v.03Z" fill="url(#stlnzciop)"/><path d="M11.16 5.03a9.03 9.03 0 0 1 2.22-.54l-.98 1.08-3.34.4a9.05 9.05 0 0 1 2.1-.94Z" fill="url(#ttlnzciop)"/><path d="m8.53 6.12.54-.1v-.06l-.5-.22c-.1.11-.1.25-.04.38Z" fill="#F5CB2B"/><path d="M13.82 5.68c-.1.64-.23 1.29-.4 1.91l-.31-.12a5.1 5.1 0 0 1-.18-.07c.15-.57.27-1.15.36-1.73a36.17 36.17 0 0 1 .2 0 58.14 58.14 0 0 1 .33 0Z" fill="#F8BD1B"/><path d="m9.46 5.73-.02.01a3.05 3.05 0 0 0-.38.22l-.34-.15-.15-.07c.12-.12.27-.23.42-.31a8.39 8.39 0 0 1 1.21-.56c.04.02.07.07.12.17l.13.26c-.36.13-.67.27-1 .43Z" fill="#F5C52A"/><path d="m10.45 5.3.16-.06 1.84-.59-.17-.46a21.27 21.27 0 0 0-2.08.67v.02l.25.42Z" fill="#F6C52A"/><path d="m13.82 5.68.07-.72v-.07c.01-.28.03-.78-.21-.86a.51.51 0 0 0-.15-.03l-.16.5v.54l-.05.39a2.24 2.24 0 0 0-.03.23c-.02.11.48.02.53.02Z" fill="url(#utlnzciop)"/><path d="M13 4.54a8.18 8.18 0 0 0-.56.12l-.02-.06v-.02l-.05-.12-.05-.13a4.44 4.44 0 0 0-.04-.14A7.35 7.35 0 0 1 13.53 4l-.16.5c-.12 0-.24.02-.37.04Z" fill="#F8BD1B"/><path d="m12.7 5.82.37-.38-.43 2.37.06-1.99Z" fill="#F9BD1B"/><path d="M4 4v2.52l1-.36V5h3.73c.43-.32 1.5-.82 2-1H4ZM4 14v-3.49l1 .69V13h2.32c.12.2.55.76.75 1H4ZM14 14h-1.33l.11-1H13V9.39c.5-.59.88-2.04 1-2.7V14Z" fill="#8A8B90"/><defs><linearGradient id="atlnzciop" x1="10.81" y1="10.81" x2="10.81" y2="12.54" gradientUnits="userSpaceOnUse"><stop stop-color="#FAAB42"/><stop offset="1" stop-color="#F15A2B"/></linearGradient><linearGradient id="btlnzciop" x1="10.81" y1="10.81" x2="10.81" y2="12.54" gradientUnits="userSpaceOnUse"><stop stop-color="#FAAB42"/><stop offset="1" stop-color="#F15A2B"/></linearGradient><linearGradient id="ctlnzciop" x1="8.34" y1="12.05" x2="7.73" y2="12.34" gradientUnits="userSpaceOnUse"><stop stop-color="#EC542B"/><stop offset="1" stop-color="#CF302F"/></linearGradient><linearGradient id="dtlnzciop" x1="11.68" y1="11.06" x2="11.68" y2="12.4" gradientUnits="userSpaceOnUse"><stop stop-color="#F69931"/><stop offset="1" stop-color="#FAD5A8"/></linearGradient><linearGradient id="etlnzciop" x1="11.49" y1="12.24" x2="9.37" y2="13.3" gradientUnits="userSpaceOnUse"><stop stop-color="#FFF7F1"/><stop offset=".44" stop-color="#F5A343"/><stop offset="1" stop-color="#F79123"/></linearGradient><linearGradient id="ftlnzciop" x1="10.41" y1="14.16" x2="9.95" y2="14.74" gradientUnits="userSpaceOnUse"><stop stop-color="#F79F38"/><stop offset="1" stop-color="#FDEDDB"/></linearGradient><linearGradient id="gtlnzciop" x1="11.97" y1="11.43" x2="11.77" y2="15.46" gradientUnits="userSpaceOnUse"><stop stop-color="#F59221"/><stop offset="1" stop-color="#F9F5F5"/></linearGradient><linearGradient id="htlnzciop" x1="11.68" y1="14.65" x2="11.42" y2="16" gradientUnits="userSpaceOnUse"><stop stop-color="#E85029"/><stop offset="1" stop-color="#C4282E"/></linearGradient><linearGradient id="itlnzciop" x1="10.34" y1="15.17" x2="11.11" y2="15.74" gradientUnits="userSpaceOnUse"><stop stop-color="#FBE8CF"/><stop offset="1" stop-color="#F9A856"/></linearGradient><linearGradient id="jtlnzciop" x1="6.66" y1="10.37" x2="6.23" y2="11.2" gradientUnits="userSpaceOnUse"><stop stop-color="#3D82C5"/><stop offset="1" stop-color="#095CA5"/></linearGradient><linearGradient id="ktlnzciop" x1="5.69" y1="10.57" x2="3.02" y2="8.48" gradientUnits="userSpaceOnUse"><stop stop-color="#FBFFFE"/><stop offset="1" stop-color="#A5DEF9"/></linearGradient><linearGradient id="ltlnzciop" x1="7.09" y1="7.82" x2="5.74" y2="8.51" gradientUnits="userSpaceOnUse"><stop stop-color="#48BAED"/><stop offset="1" stop-color="#005CA7"/></linearGradient><linearGradient id="mtlnzciop" x1="5.34" y1="10" x2="5.52" y2="7.71" gradientUnits="userSpaceOnUse"><stop stop-color="#00529B"/><stop offset=".44" stop-color="#1A65A8"/><stop offset="1" stop-color="#5694CF"/></linearGradient><linearGradient id="ntlnzciop" x1="4.72" y1="10.31" x2="3.04" y2="9.27" gradientUnits="userSpaceOnUse"><stop stop-color="#367ABB"/><stop offset="1" stop-color="#43C4F1"/></linearGradient><linearGradient id="otlnzciop" x1="11.27" y1="8.37" x2="13.11" y2="9.18" gradientUnits="userSpaceOnUse"><stop stop-color="#F3DB2C"/><stop offset=".66" stop-color="#F79220"/></linearGradient><linearGradient id="ptlnzciop" x1="12.51" y1="9.18" x2="13.17" y2="7.48" gradientUnits="userSpaceOnUse"><stop stop-color="#F6E130"/><stop offset=".88" stop-color="#F69C24"/></linearGradient><linearGradient id="qtlnzciop" x1="13.23" y1="6.14" x2="12.56" y2="5.71" gradientUnits="userSpaceOnUse"><stop stop-color="#F4F994"/><stop offset="1" stop-color="#F5EB33"/></linearGradient><linearGradient id="rtlnzciop" x1="9.57" y1="6.87" x2="11.06" y2="6.55" gradientUnits="userSpaceOnUse"><stop stop-color="#F3D52D"/><stop offset="1" stop-color="#F79123"/></linearGradient><linearGradient id="stlnzciop" x1="12.33" y1="7.56" x2="10.79" y2="5.8" gradientUnits="userSpaceOnUse"><stop stop-color="#F5EB31"/><stop offset=".44" stop-color="#FCF8B1"/><stop offset="1" stop-color="#F5EB36"/></linearGradient><linearGradient id="ttlnzciop" x1="11.47" y1="5.78" x2="11.76" y2="3.87" gradientUnits="userSpaceOnUse"><stop stop-color="#F8AA24"/><stop offset="1" stop-color="#F6DF30"/></linearGradient><linearGradient id="utlnzciop" x1="13.64" y1="5.59" x2="13.51" y2="4.28" gradientUnits="userSpaceOnUse"><stop stop-color="#F79123"/><stop offset=".61" stop-color="#F5C128"/><stop offset="1" stop-color="#F79123"/></linearGradient></defs></svg>