<!-- by TradingView --><svg width="18" height="18" viewBox="0 0 18 18" xmlns="http://www.w3.org/2000/svg"><path fill="#F0F3FA" d="M0 0h18v18H0z"/><path d="M10.67 12h1.12c-.9 1.18-2.3 2-3.88 2A4.95 4.95 0 0 1 3 9c0-2.76 2.2-5 4.91-5 1.7 0 3.21.66 4.09 2h-1.27C9.98 5.15 9.2 5 8 5 5.74 5 4 6.7 4 9s1.75 4 4 4c1.06 0 1.94-.32 2.67-1Z" fill="#5B7E96"/><path d="M7.1 7c.18-.43.61-1.09.9-1.45V7h-.9Zm-.46 1.69c.02-.43.1-.86.2-1.25H8v1.25H6.64Zm-.53 0H4.8c.04-.44.17-.88.37-1.25H6.3c-.1.4-.16.82-.19 1.25ZM6.31 7h-.87c.36-.4.81-.99 1.33-1.2-.18.3-.33.87-.45 1.2Zm2.2-1.45c.29.36.53 1.02.72 1.45H8.5V5.55ZM8 11v1.46A8.43 8.43 0 0 1 7.1 11H8Zm0-1.69v1.25H6.85a5.79 5.79 0 0 1-.21-1.25H8Zm-1.7 1.25H5.17a3.5 3.5 0 0 1-.37-1.25H6.1c.03.43.1.86.2 1.25Zm.02.44c.12.33.27.9.45 1.2-.52-.21-.97-.8-1.33-1.2h.88Zm2.2 0h.7c-.18.43-.42 1.09-.7 1.46V11ZM14.41 8.14a.58.58 0 0 1-.59-.57c0-.32.27-.57.6-.57.32 0 .58.25.58.57 0 .32-.26.57-.59.57ZM13 8.1a.53.53 0 0 1-.54-.52c0-.29.24-.52.54-.52.3 0 .53.23.53.52 0 .29-.23.52-.53.52Zm-1.35-.05a.48.48 0 0 1-.48-.47c0-.26.21-.47.48-.47s.48.21.48.47-.21.47-.48.47ZM10.44 8a.42.42 0 0 1-.42-.42c0-.23.19-.41.43-.41.23 0 .42.18.42.41 0 .23-.19.42-.42.42Zm-1.06-.05A.37.37 0 0 1 9 7.57c0-.2.17-.36.38-.36.2 0 .38.16.38.36 0 .2-.17.37-.38.37ZM14.41 11a.58.58 0 0 1-.59-.57c0-.32.27-.58.6-.58.32 0 .58.26.58.58 0 .32-.26.57-.59.57ZM13 10.95a.53.53 0 0 1-.54-.52c0-.3.24-.53.54-.53.3 0 .53.24.53.53 0 .29-.23.52-.53.52Zm-1.35-.05a.48.48 0 0 1-.48-.47c0-.26.21-.47.48-.47s.48.2.48.47c0 .26-.21.47-.48.47Zm-1.2-.06a.42.42 0 0 1-.42-.41c0-.23.19-.42.43-.42.23 0 .42.19.42.42 0 .23-.19.41-.42.41Zm-1.06-.05a.37.37 0 0 1-.38-.36c0-.2.17-.37.38-.37.2 0 .38.17.38.37 0 .2-.17.36-.38.36Zm5.03-1.22a.58.58 0 0 1-.59-.57c0-.32.27-.58.6-.58.32 0 .58.26.58.58 0 .31-.26.57-.59.57ZM13 9.52a.53.53 0 0 1-.54-.53c0-.28.24-.52.54-.52.3 0 .53.24.53.52 0 .3-.23.53-.53.53Zm-1.35-.05a.48.48 0 0 1-.48-.47c0-.26.21-.47.48-.47s.48.2.48.47c0 .26-.21.47-.48.47Zm-1.2-.06a.42.42 0 0 1-.42-.41c0-.23.19-.42.43-.42.23 0 .42.19.42.42 0 .23-.19.41-.42.41Zm-1.06-.05A.37.37 0 0 1 9 9c0-.2.17-.37.38-.37.2 0 .38.17.38.37 0 .2-.17.36-.38.36Zm-1.06-.05A.32.32 0 0 1 8 9c0-.18.14-.31.32-.31s.32.13.32.3c0 .18-.14.32-.32.32Z" fill="#5B7E96"/></svg>