<!-- by TradingView --><svg xmlns="http://www.w3.org/2000/svg" width="18" height="18"><path fill="#F0F3FA" d="M0 0h18v18H0z"/><circle cx="9.5" cy="8.5" fill="#FE6130" r="1.5"/><path d="M9.5 14A5.5 5.5 0 104 8.32V14h1V8.49A4.5 4.5 0 119.55 13H7.5a.5.5 0 01-.5-.5V8.46A2.51 2.51 0 019.5 6C10.85 6 12 7.12 12 8.46A2.58 2.58 0 019.5 11c-.32 0-.62-.06-.9-.17-.22-.09-.5.06-.5.3v.38c0 .12.07.22.18.27.38.14.8.22 1.22.22 1.93 0 3.5-1.63 3.5-3.54A3.48 3.48 0 009.5 5 3.48 3.48 0 006 8.46v4.85c0 .38.31.69.7.69h2.8z" fill="#233C7D"/></svg>