<!-- by TradingView --><svg width="18" height="18" viewBox="0 0 18 18" xmlns="http://www.w3.org/2000/svg"><path fill="#F0F3FA" d="M0 0h18v18H0z"/><path d="M5.23 11.6c.08-.64.25-1.6.35-2.24v-.03H3.4L3.42 9h2.2l.13-.83v-.05c0-.1-.04-.13-.15-.1-.1.01-.2.05-.3.09a.26.26 0 0 1-.07.02.89.89 0 0 1-.06-.14 4.15 4.15 0 0 1 1.2-.32c.08 0 .1.02.1.1v.19c0 .26-.04.53-.08.8v.08l.01-.02.01-.02.02-.04.1-.16c.13-.24.31-.46.53-.65.14-.13.32-.22.51-.26.33-.06.59.05.73.31.06.12.1.25.1.38.03.2.01.4-.04.62h.5l.09-.16c.1-.27.27-.51.49-.71a1.75 1.75 0 0 1 1.66-.4c.14.05.26.12.36.21.1.1.17.21.2.34.07.22.06.45.02.68V9h.52c.17-.63.57-1 1.36-1.25.24-.09.51-.1.77-.05.23.04.33.17.32.37 0 .09-.02.18-.06.26-.04.1-.1.13-.23.11a.3.3 0 0 1-.03-.13.96.96 0 0 0-.1-.29.3.3 0 0 0-.17-.15.36.36 0 0 0-.24 0 .94.94 0 0 0-.53.34c-.17.23-.3.49-.34.77-.06.23-.07.48-.03.72.01.1.05.21.11.3.05.09.12.15.2.2.1.04.2.06.3.05.26-.01.48-.1.7-.23l.21-.16.1.12.02.02a2.18 2.18 0 0 1-1.5.55c-.21-.01-.4-.07-.57-.17a.79.79 0 0 1-.33-.5 1.52 1.52 0 0 1-.02-.51v-.04h-.55c-.02.02-.03.03-.03.05-.11.29-.3.54-.54.75-.26.23-.6.37-.96.4-.19.02-.37.02-.55-.02-.39-.09-.61-.31-.69-.65a1.3 1.3 0 0 1-.02-.45v-.08h-.55l-.15.26c-.22.37-.59.66-1.03.82-.29.06-.22.04-.94.11l-.11.63-.01.07a3.7 3.7 0 0 0-.03.49c0 .07.04.1.12.1h.56l-.03.19H4.88c0-.06.01-.13.03-.19h.18c.03 0 .06-.01.08-.03.08-.05.05-.1.06-.18Zm4.7-3.47c-.11.14-.2.3-.25.46-.13.36-.17.74-.13 1.12a1 1 0 0 0 .12.39c.06.1.14.19.27.22a.6.6 0 0 0 .49-.1c.13-.1.24-.22.3-.36a3.14 3.14 0 0 0 .18-.51l.03-.16c.04-.27.04-.54 0-.8a.98.98 0 0 0-.15-.35c-.24-.28-.63-.19-.86.1Zm-3.76 2.18c.14.04.3.04.44 0 .28-.06.52-.22.67-.43.3-.4.44-.87.38-1.35 0-.1-.03-.2-.08-.28a.23.23 0 0 0-.09-.1.28.28 0 0 0-.12-.04.4.4 0 0 0-.2.04.82.82 0 0 0-.23.18 2.4 2.4 0 0 0-.53.84 4.4 4.4 0 0 0-.24 1.14Zm9.81-.98L16 9h-1.68c0 .08-.02.25 0 .33h1.66ZM13.81 9h-.46l-.02.33h.47V9ZM9.97 9h.47c0 .08 0 .25-.02.33h-.47L9.97 9Zm-3.24.33h.46L7.21 9h-.47v.17c-.01.04-.02.11-.01.16Z" fill="#10689F"/><path d="M3.98 12.64a3.4 3.4 0 0 1-.53-.23c-.27-.13-.51-.3-.73-.5a2.07 2.07 0 0 1-.62-2.2c.14-.41.34-.8.61-1.13.37-.47.81-.89 1.3-1.24.72-.52 1.5-.96 2.34-1.3a13.82 13.82 0 0 1 5.51-1.03c.4.01.8.06 1.2.13.53.09 1.05.25 1.53.47a3.16 3.16 0 0 1 1.17.95c.09.12.16.25.21.39a4.76 4.76 0 0 1-.05-.08l-.12-.16c-.26-.3-.49-.5-.89-.71a5.03 5.03 0 0 0-1.12-.43 7.6 7.6 0 0 0-1.35-.22 13 13 0 0 0-6.31 1.27 9.4 9.4 0 0 0-2.08 1.34c-.38.33-.72.7-1 1.12-.2.31-.35.66-.43 1.02-.14.73.07 1.35.62 1.88.29.27.63.48 1 .63l.24.1.22.07a6.73 6.73 0 0 0 .82.21H5.5l-.15-.01a5.6 5.6 0 0 1-1.37-.34Z" fill="#10689F"/></svg>