<!-- by TradingView --><svg width="18" height="18" viewBox="0 0 18 18" xmlns="http://www.w3.org/2000/svg"><path fill="#F0F3FA" d="M0 0h18v18H0z"/><path d="M10.45 4.03c-.02.12-.1.2-.15.3l-.35.58-.5.83-.44.77-.43.73-.35.6-.45.75a22.64 22.64 0 0 0-.34.55l-.58-.31-.16-.08-1.02-.54-.81-.42a140.69 140.69 0 0 1-.84-.43L4 7.28V4h6.45l.01.03Z" fill="#0F75BB"/><path d="m10.48 4.86 2.1 3.53a264.71 264.71 0 0 1-.9.47l-.8.41c-.24.13-.49.24-.72.37l-.72.37c-.05.03-.1.07-.18.09l-1.4-.75c0-.09.07-.15.1-.22.2-.3.37-.6.55-.91l.45-.77.54-.92c.16-.28.33-.55.48-.83l.5-.84ZM14 10.78V14H7.75c.01-.05.06-.06.1-.08.16-.09.35-.16.52-.26l.77-.4c.23-.12.48-.23.71-.36.24-.13.49-.24.72-.37l.72-.36c.24-.14.5-.25.73-.38.23-.13.46-.24.7-.36l.74-.38c.17-.1.36-.18.54-.27Z" fill="#25A9E0"/><path d="M10.45 4.03v-.02H14v3.67l-.9.45a.42.42 0 0 0-.13.09L10.5 4.03h-.05ZM4.03 7.36l.17.33.22.39.4.72.66 1.19.45.82a21.24 21.24 0 0 0 .26.5l-.52.91-.55.92-.43.74a.12.12 0 0 0-.02.06c0 .03-.03.04-.05.06H4V7.48c0-.04.04-.12.04-.12Z" fill="#0F75BB"/><path d="m5.14 13.97.41-.7.48-.82c.11-.2.22-.4.35-.6.02-.02.05-.05.04-.08a.06.06 0 0 1 .05 0 .06.06 0 0 1 .02.03l.16.3.42.75.21.38.4.72a.06.06 0 0 1 0 .05H5.14v-.02ZM7.87 13.6l-1.26-2.16.1-.15c.44.64.85 1.3 1.3 1.95l.46-.22.94-.49c.24-.13.49-.24.72-.37l.72-.37c.23-.13.48-.23.72-.37.23-.13.48-.23.71-.36l.73-.37c.2-.12.43-.22.64-.33a.1.1 0 0 1 .08-.02c.02.06.08.11.1.2l-.3.15-1.02.52-.66.34-.77.4c-.22.12-.45.21-.67.34-.25.14-.52.25-.77.4-.22.11-.45.21-.67.33l-.77.4-.33.18Z" fill="#25A9E0"/><path d="M13.45 9.9a.4.4 0 0 1 .06.06l.07.15-.24.14-.5.25-.8.41c-.22.11-.44.21-.65.33-.26.15-.53.27-.79.4-.2.12-.41.21-.62.32-.26.15-.54.27-.8.42l-.7.35c-.1.06-.22.13-.34.18l-.37-.54-.7-.98c-.07-.1-.13-.21-.21-.3-.02-.09.05-.13.08-.2.45.56.9 1.11 1.34 1.68.25-.15.51-.25.75-.4.2-.11.4-.2.61-.3l.75-.38c.23-.13.47-.23.7-.36l.74-.38c.22-.13.47-.23.7-.36.24-.13.49-.24.73-.38l.2-.1Z" fill="#25A9E0"/><path d="m8.41 12.23-1.34-1.56c.05-.05.05-.13.1-.17a.12.12 0 0 1 .09.06c.22.27.49.5.73.75.15.16.29.32.45.47.03.03.05.07.1.1.04 0 .07-.03.1-.04.18-.09.37-.17.55-.27.23-.14.48-.25.72-.38.23-.13.48-.23.71-.36.24-.13.5-.24.73-.38.23-.13.49-.23.72-.37l.71-.36.44-.23a1 1 0 0 1 .13.21l-1.02.52-.73.37c-.23.13-.48.24-.72.38-.23.13-.48.23-.71.36l-.73.37c-.23.13-.48.25-.72.37l-.3.16Z" fill="#25A9E0"/><path d="M12.97 9.08c.07.05.07.14.13.18-.03.05-.09.07-.14.1l-1.1.56c-.24.13-.5.24-.73.37l-.71.37-.73.37c-.23.13-.48.24-.72.37-.1.06-.19.11-.3.15-.12-.13-.25-.26-.39-.38l-.6-.57-.35-.32c-.02-.05 0-.07.02-.1l.04-.08a.06.06 0 0 1 .07 0l.36.3.52.42.35.28.14.1c.16-.08.32-.15.47-.24l.88-.45c.23-.12.46-.22.68-.35l.74-.37c.23-.14.48-.25.72-.38l.65-.33Z" fill="#25A9E0"/><path d="m8.96 10.87-1.4-1.03.1-.19 1.43.87c.19-.1.4-.18.59-.3.26-.13.53-.25.8-.4.2-.12.42-.21.63-.33l.8-.4c.21-.12.42-.23.64-.33.06-.03.1-.08.18-.1l.12.2a.7.7 0 0 1-.17.1c-.17.1-.34.17-.5.26l-.8.4c-.22.12-.45.22-.66.34-.26.15-.52.26-.78.4-.21.12-.44.23-.66.34l-.32.17Z" fill="#25A9E0"/><path d="M14 8.02v.27l-.74.38c-.07-.05-.1-.12-.14-.2.28-.16.58-.3.88-.45ZM13.49 9.1l-.12-.22c.2-.12.42-.2.63-.33v.28c-.16.1-.35.16-.51.26ZM14 9.11v.26l-.26.13a.67.67 0 0 1-.11-.18c.05-.08.15-.13.37-.2ZM5.47 8.32l1.82 1.1-.1.16-1.72-1.26ZM5.34 8.4l1.74 1.4-.11.16-1.63-1.55ZM5.25 8.54l1.61 1.63-.08.15-1.53-1.78ZM5.15 8.63l1.5 1.89-.08.14-1.42-2.03ZM5.03 8.74l1.41 2.15-.08.11-1.33-2.26Z" fill="#0F75BB"/></svg>