<!-- by TradingView --><svg xmlns="http://www.w3.org/2000/svg" width="18" height="18"><path fill="#F0F3FA" d="M0 0h18v18H0z"/><path fill-rule="evenodd" d="M14 9a5 5 0 01-7.27 4.45.94.94 0 01-.11-.62 3.6 3.6 0 011.96-2.03c1.18-.56 1.38-1.11 1.36-1.46v-.53c.2-.07.16-.3.16-.3H8.58a1.55 1.55 0 00-.66-.4 1.1 1.1 0 00-.97.19c-.08-.2-.42-.53-.86-.42-.5.13-.62.64-.62.87l-1.44.6v.22A5 5 0 1114 9zm-3.75-.63H8.84l.39-.64-1.05-.94 1.24-.08-.2-1.1 1.1.49.44-1.1.44 1 1-.39-.24 1.18 1.18.23-1.1.6.62.83-.96-.08V9.5l-.73-.78-.72.62v-.97z" fill="#3B88D8"/></svg>