<!-- by TradingView --><svg width="18" height="18" xmlns="http://www.w3.org/2000/svg"><path fill="#246EB7" d="M0 0h18v18H0z"/><path d="M6.074 10.384V7.828h.702c.729 0 1.093.261 1.093.784 0 .532-.364.798-1.093.798h-.088v.974h-.614zm.614-2.159v.793h.05c.194 0 .341-.028.443-.084.102-.059.152-.165.152-.319 0-.146-.048-.249-.145-.307-.096-.061-.246-.083-.45-.083h-.05zm3.625-.324l-.037.458a1.513 1.513 0 00-.688-.143c-.275 0-.496.08-.662.238-.163.159-.245.374-.245.645 0 .27.078.487.234.648.159.159.38.238.662.238.127 0 .185-.037.185-.037v-.637h-.434V8.84h1.052v1.434c-.265.09-.556.136-.874.136-.406 0-.74-.119-1-.355-.258-.24-.387-.56-.387-.96 0-.398.133-.713.398-.945.265-.232.624-.348 1.075-.348.29 0 .53.033.721.1zm.678 2.476v-2.55h1.537v.398h-.922v.615h.796v.442h-.796v.666l.922.008v.42h-1.537zM3.368 9.83l4.347-5.794-4.347 4.346c-.624.624-.338 1.11 0 1.449zM8.249 3.37l5.796 4.345L9.698 3.37c-.625-.624-1.111-.338-1.45 0zM14.813 8.385l-4.297 5.83 4.31-4.382c.618-.629.328-1.113-.013-1.448zM9.896 15.046l-5.803-4.335 4.355 4.338c.625.623 1.11.336 1.448-.003z" fill="#fff"/></svg>