<!-- by TradingView --><svg width="18" height="18" viewBox="0 0 18 18" xmlns="http://www.w3.org/2000/svg"><path fill="#F0F3FA" d="M0 0h18v18H0z"/><path d="M15 12.77v-.01c-2.89-2.05-4.6-5.39-5.6-8.72 0 0 0-.02-.02-.02L9.36 4h-.03l-.03.02-1.66 1.95a.4.4 0 0 0-.1.3c.2 3.8 4.54 5.74 7.44 6.51H15v-.01Zm-3.4.22c-1.81-.77-5.34-2.32-5.81-4.6 0-.02-.02-.02-.03-.01-.52.5-.98 1.06-1.38 1.67-.3.46-.51.94-.29 1.5.31.77.84 1.24 1.59 1.4.18.03.53.05 1.03.05a3061.71 3061.71 0 0 1 4.9-.01Z" fill="#8EC44A"/></svg>