<!-- by TradingView --><svg width="18" height="18" xmlns="http://www.w3.org/2000/svg"><path fill="#0272A6" d="M0 0h18v18H0z"/><path d="M9.004 9.794C8.424 9.794 8 9.499 8 9.499v-3.06c0-.283.358-.478.622-.514.284-.039 1.588-.252 1.588 1.633 0 2.012-.88 2.236-1.206 2.236zm-4.429-.21C4.19 9.584 4 9.402 4 9.402V7.348c0-.175.147-.295.322-.317.188-.023 1.2-.172 1.2 1.203 0 1.288-.68 1.35-.947 1.35zm8.93-2.3c.53-.17 1.068.006 1.495.392V6.438c-1.381-.238-2.105-.076-2.657.297-.448.311-.639.736-.639.736l-.026.063C11.606 4.75 9.804 5.008 7.74 5.008H6.435v2.367c-.35-1.118-1.309-.998-2.464-.998H3V12h1.431c-.265-.1-.431-.616-.431-.98V9.805l.49.5c.202.053.38.047.38.047.439-.026 1.268-.211 1.565-1.18v3.826H8.31c-.265-.1-.31-.3-.31-.662V9.983l.767.777c.231.09.402.106.597.096.553-.038 1.498-.291 1.993-1.377.04 1.02.348 1.99 1.3 2.392.419.187.895.239 1.39.197.324-.01.638-.041.953-.103V9.008h-1.41c.266.1.412.329.412.692v1.443c-.33.112-.829.002-1.078-.349-.315-.443-.372-1.634-.238-2.484.076-.425.41-.894.819-1.026z" fill="#fff"/></svg>