<!-- by TradingView --><svg width="18" height="18" viewBox="0 0 18 18" xmlns="http://www.w3.org/2000/svg"><path fill="#F0F3FA" d="M0 0h18v18H0z"/><path d="M3 7h1.5C4.95 7 6 7.17 6 8.5S4.77 10 4.5 10H4v2H3V7Zm1 2h.55C4.8 9 5 9 5 8.5S4.72 8 4.53 8H4v1ZM12 7h1.5c.45 0 1.5.17 1.5 1.5S13.77 10 13.5 10H13v2h-1V7Zm1 2h.55c.25 0 .45 0 .45-.5s-.29-.5-.47-.5H13v1Z" fill="#039"/><path d="M7 7h1v1.7l.3.18-.3.62V12H7V7Zm3 0h1v5h-1V9.5l-.28-.62.28-.19V7ZM8.33 8.96c.01.01.05.03.13.03h.39l-.2.2a.14.14 0 0 0-.04.09c0 .04.02.08.07.13.02.03.04.04.07.04h.07a.25.25 0 0 0 .1-.1.4.4 0 0 1 .08-.07.23.23 0 0 1 .13-.05c.05 0 .07.01.1.03l.02.03.01.01.03.03.42.44-.04.08a.18.18 0 0 1-.08.05l-.26-.26-.04.04.27.26a.18.18 0 0 1-.14.12l-.27-.28-.04.03.27.29c0 .02-.03.06-.07.07-.05.02-.08.03-.1.02l-.1-.1.07-.07c0-.04-.01-.11-.06-.16a.12.12 0 0 0-.09-.04c0-.04 0-.1-.03-.15a.11.11 0 0 0-.1-.05.12.12 0 0 0-.07.02l-.07.08a.3.3 0 0 0-.05-.1.1.1 0 0 0-.1-.05.2.2 0 0 0-.09.04l-.05.06a.26.26 0 0 0-.04-.08.11.11 0 0 0-.09-.05.12.12 0 0 0-.07.02l-.08.08-.11-.11.25-.57Zm.36.26.3-.3a.69.69 0 0 1 .22-.04c.08 0 .14.03.2.06.04.03.08.05.13.05.08 0 .14-.02.15-.03l.26.54-.23.19v.01l-.4-.4c0-.02 0-.02-.02-.03v-.02a.3.3 0 0 0-.05-.03.19.19 0 0 0-.12-.04.28.28 0 0 0-.16.05.44.44 0 0 0-.1.1.2.2 0 0 1-.07.06.08.08 0 0 1-.04.01.08.08 0 0 1-.05-.03c-.04-.04-.04-.07-.04-.1 0-.02 0-.04.02-.05Zm.39.9.07.09c-.04.04-.1.1-.12.1-.03 0-.06-.03-.08-.05l.13-.13Zm.05-.12-.22.23-.09-.03c-.03-.02-.04-.05-.05-.07l.25-.26s.04 0 .07.03c.03.03.04.07.04.1Zm-.15-.16-.28.28c-.03.01-.08 0-.11-.03a.22.22 0 0 1-.05-.07l.32-.34h.04c.02 0 .04 0 .05.02.04.05.03.11.03.14Zm-.27-.07-.18.19c-.03 0-.08 0-.12-.03a.1.1 0 0 1-.03-.09l.18-.19a.15.15 0 0 1 .06-.02c.02 0 .04 0 .05.02.03.05.04.1.04.12Zm-.3-.05-.09.1a.18.18 0 0 1-.09-.05.17.17 0 0 1-.04-.06l.1-.1.05-.02c.02 0 .03 0 .05.03.03.05.03.1.03.1Z" fill="#0C97F4"/></svg>