<!-- by TradingView --><svg width="18" height="18" viewBox="0 0 18 18" xmlns="http://www.w3.org/2000/svg"><path fill="#F0F3FA" d="M0 0h18v18H0z"/><path d="M7.9 4.6c1.91 0 2.62 1.68 2.74 2.51a4.55 4.55 0 0 0-2.74-.85c-3.07.1-4.15 2.2-4.3 3.22.06-2.41 1.92-4.9 4.3-4.88Z" fill="#1B2B57"/><path d="M13.03 6.69c.55 1.74-.92 2.88-1.72 3.23.47-.98.23-2.24.05-2.74a4.23 4.23 0 0 0-4.5-2.98c2.44-.65 5.48.31 6.17 2.49Z" fill="#1D4688"/><path d="M12.43 11.91c-1.57 1.04-3.16.06-3.75-.56 1.13.12 2.3-.48 2.75-.8 2.46-1.76 2.08-4.06 1.59-5 1.4 2.02 1.38 5.07-.59 6.36Z" fill="#1A53A2"/><path d="M7.07 13.06c-1.5-1.12-1-2.85-.57-3.58a4.21 4.21 0 0 0 1.63 2.26c2.5 1.7 4.7.67 5.48-.06-1.59 1.88-4.65 2.78-6.54 1.38Z" fill="#416DAC"/><path d="M4.3 8.5c.65-1.7 2.53-1.8 3.4-1.62a4.22 4.22 0 0 0-1.75 2.18c-.92 2.8.8 4.46 1.77 4.94-2.38-.85-4.22-3.35-3.42-5.5Z" fill="#6B84BA"/></svg>