<!-- by TradingView --><svg width="18" height="18" viewBox="0 0 18 18" xmlns="http://www.w3.org/2000/svg"><path fill="#F0F3FA" d="M0 0h18v18H0z"/><path d="M11.97 5.48c1.05 1 2.15 2.46 2.02 3.98-.12 1.43-1.07 2.7-2.16 3.6a.01.01 0 0 1-.01 0 10.17 10.17 0 0 0-2.83-3.21 10.01 10.01 0 0 0-2.84 3.2c-1.19-.98-2.28-2.5-2.14-4.14.05-.56.27-1.13.55-1.62.63-1.1 1.52-1.9 2.5-2.76A29.13 29.13 0 0 1 9.02 3c1.04.78 2.06 1.62 2.96 2.48Zm-.86 1.86A14.35 14.35 0 0 0 8.98 5.4c-.7.53-1.34 1.12-1.93 1.77-.64.69-1.5 1.75-.92 2.72a.03.03 0 0 0 .04 0c.36-.36.73-.72 1.1-1.06.4-.36.82-.74 1.39-1.17l.1-.06c.08-.05.15-.12.23-.16h.03l.43.3a25.43 25.43 0 0 1 2.4 2.16c.07-.11.13-.24.17-.37.23-.78-.43-1.62-.91-2.18Z" fill="#327005"/><path d="M7.02 13.55a1.2 1.2 0 0 1-.3-.23v-.03a8.72 8.72 0 0 1 2.25-2.5h.05a8.4 8.4 0 0 1 2.24 2.53.33.33 0 0 1-.07.08c-.78.58-1.8.65-2.74.57a3.44 3.44 0 0 1-1.43-.42Z" fill="#3CF0A8"/></svg>