<!-- by TradingView --><svg width="18" height="18" viewBox="0 0 18 18" xmlns="http://www.w3.org/2000/svg"><path fill="#F0F3FA" d="M0 0h18v18H0z"/><path d="M7.58 12.94a2.75 2.75 0 0 1-1.82.6c.5-.18 1.02-.5 1.29-.94.07-.1.13-.23.18-.35.22-.5.4-1.04.97-1.31.16-.08.34-.14.52-.16.39-.06.74-.13 1.1-.27.48-.18.97-.54.86-1.08a.8.8 0 0 0-.4-.56c-.1-.05-.22-.1-.35-.14l-.5-.17a4.1 4.1 0 0 1-1.17-.62 2 2 0 0 1-.74-1.07c-.09-.34-.08-.7-.02-1.06a4.55 4.55 0 0 1 .59-1.58c.19-.35.4-.69.52-1.06A1.6 1.6 0 0 0 8.5 2c.44.12.88.36 1.15.7.5.62.3 1.38-.09 1.99l-.2.34c-.47.79-.84 1.87-.06 2.63.31.3.73.48 1.18.53.3.03.65-.04.74-.34.04-.1.05-.21.03-.33a2.32 2.32 0 0 0-.22-.69 1.66 1.66 0 0 1-1.43-.32l.23.05A1.39 1.39 0 0 0 11 6.19c.23-.22.5-.43.85-.51A1.42 1.42 0 0 1 13 5.9c-.17.02-.32.06-.47.13a.93.93 0 0 0-.48.52c-.1.27-.1.52.03.79.1.2.23.4.35.59.2.33.3.72.26 1.1a1.6 1.6 0 0 1-.92 1.33c-.2.1-.42.16-.65.2l-.38.06c-.92.16-1.78.5-2.3 1.23l-.4.56c-.13.19-.28.37-.46.53Z" fill="url(#anrhfwgpg)"/><path d="M6.57 8.4a2.26 2.26 0 0 1-.85-1.86c.02-.94.64-1.68 1.53-2.14-.3.46-.46 1-.48 1.53-.02.49.09.95.33 1.38.25.45.61.85 1.07 1.13.21.13.44.23.67.35.25.12.46.28.6.51a1.49 1.49 0 0 1 .18.44c-.33-.21-.7-.39-1.09-.5l-.36-.09a4.1 4.1 0 0 1-1.6-.76Z" fill="url(#bnrhfwgpg)"/><path d="M6.13 8.72A2.52 2.52 0 0 0 8 9.64c.3.02.63.03.92.1a1.2 1.2 0 0 1 .73.54 1.85 1.85 0 0 0-1.09-.02c-.09.02-.23.08-.34.1-.46.1-.95.05-1.35-.16a1.41 1.41 0 0 1-.75-1.48Z" fill="#E61013"/><path d="M5 15.85c1-.17 1.89-.6 2.55-1.3.48-.51.83-1.14 1.03-1.78l.12-.33a2.36 2.36 0 0 1 1.75-1.36c-.2.07-.38.22-.5.37A2.22 2.22 0 0 0 9.45 13c.02.27.02.55-.03.82-.07.42-.27.8-.6 1.1-.28.28-.63.5-1 .69a4.1 4.1 0 0 1-2.83.23Z" fill="url(#cnrhfwgpg)"/><path d="M10.74 11.35c.42.31.71.7.7 1.2-.03.44-.27.88-.54 1.25l-.19.27a2.15 2.15 0 0 0-.24 1.5c-.5-.58-.8-1.27-.5-1.99.1-.26.27-.5.47-.72l.1-.12c.29-.4.3-.94.2-1.39Z" fill="url(#dnrhfwgpg)"/><defs><linearGradient id="anrhfwgpg" x1="9.38" y1="2" x2="11.09" y2="12.56" gradientUnits="userSpaceOnUse"><stop stop-color="#FFF100"/><stop offset=".43" stop-color="#F6AA01"/><stop offset=".65" stop-color="#E61013"/></linearGradient><linearGradient id="bnrhfwgpg" x1="6.07" y1="5.84" x2="8.42" y2="9.6" gradientUnits="userSpaceOnUse"><stop stop-color="#FFE600"/><stop offset="1" stop-color="#E61013"/></linearGradient><linearGradient id="cnrhfwgpg" x1="8.65" y1="12.56" x2="6.12" y2="16.26" gradientUnits="userSpaceOnUse"><stop stop-color="#E61013"/><stop offset="1" stop-color="#FFF100"/></linearGradient><linearGradient id="dnrhfwgpg" x1="10.64" y1="11.35" x2="10.64" y2="15.57" gradientUnits="userSpaceOnUse"><stop offset=".3" stop-color="#E61013"/><stop offset="1" stop-color="#F29101"/></linearGradient></defs></svg>