<!-- by TradingView --><svg width="18" height="18" viewBox="0 0 18 18" xmlns="http://www.w3.org/2000/svg"><path fill="#F0F3FA" d="M0 0h18v18H0z"/><path d="M8.85 3h.35A6.03 6.03 0 0 1 15 8.8v.41A6.02 6.02 0 0 1 9.06 15h-.11A6.02 6.02 0 0 1 3 9.18v-.44A6.03 6.03 0 0 1 8.85 3Zm5.53 6A5.38 5.38 0 1 0 3.62 9a5.38 5.38 0 0 0 10.76 0Z" fill="#02B6F0"/><path d="M10.23 4.74c-1.44.81-1.45 2.46-.83 3.8.16.32.29.66.4 1 .49 1.59-.2 3.03-1.6 3.83h-.01v-.02a3.8 3.8 0 0 0 .37-4.15c-.16-.3-.34-.65-.44-.94-.6-1.76.57-2.98 2.1-3.56.02 0 .03 0 .02.02l-.01.02Z" fill="#02B6F0"/><path d="M11 8a1 1 0 1 0 0-2 1 1 0 0 0 0 2ZM9.77 8.75c1.37.5 2.77.38 3.55-1h.01v.02c-.45 1.37-1.56 2.57-3.16 2.26a.07.07 0 0 1-.05-.05c-.07-.42-.2-.82-.38-1.2-.01-.03 0-.04.03-.03ZM8.33 9.28a3.73 3.73 0 0 0-3.6.64c-.04.03-.05.02-.03-.02a3.17 3.17 0 0 1 3.12-1.75c.02 0 .03 0 .04.03a5.61 5.61 0 0 0 .49 1.1h-.02Z" fill="#013462"/><path d="m6.94 9.4-.06.05a.16.16 0 0 0 0 .23l1.5 1.5c.07.06.17.06.23 0l.06-.06a.16.16 0 0 0 0-.22l-1.5-1.5a.16.16 0 0 0-.23 0ZM8.48 11.82 6.24 9.58a.2.2 0 1 0-.28.28L8.2 12.1c.08.08.2.08.28 0a.2.2 0 0 0 0-.28ZM8.17 12.56 5.46 9.85a.2.2 0 1 0-.28.28l2.7 2.71c.08.08.2.08.29 0a.2.2 0 0 0 0-.28Z" fill="#02B6F0"/></svg>