<!-- by TradingView --><svg width="18" height="18" xmlns="http://www.w3.org/2000/svg"><path fill="#F0F3FA" d="M0 0h18v18H0z"/><path d="M11.26 7.244c.153.12.31.281.446.429l.016.017.1.11v-.007a1.51 1.51 0 00-.77-1.326l.028.096.014.044.013.041c.052.177.104.374.13.555l.002.018.001.007.02.016zm-5.073.52c0 .052.003.103.008.152l.13-.157a3.31 3.31 0 01.407-.411l.011-.009.007-.006.004-.023a5.11 5.11 0 01.134-.626l.063-.242a1.51 1.51 0 00-.764 1.322zm4.626 1.401l.022.037.005.009.049-.02c.3-.12.551-.341.716-.622l.014-.023.006-.012-.022-.033-.008-.013-.01-.014-.004-.008-.019-.028a3.027 3.027 0 00-2.443-1.35l-.027-.001H9.08l-.017.035a1.545 1.545 0 00-.125.96l.006.035.003.017L9 8.132l.061-.001c.746 0 1.398.415 1.753 1.034zm-2.226-.334a2.156 2.156 0 01-.265-1.039c0-.394.105-.763.287-1.077l.018-.03.008-.016-.039-.036a1.426 1.426 0 00-.861-.37L7.71 6.26l-.014-.001-.019.036a3.228 3.228 0 00-.037 2.918l.006.012.012.024.006.013.039-.002c.331-.016.632-.146.869-.35l.027-.023.012-.012-.02-.037-.004-.008zm-4-1.07c.001.793.286 1.516.752 2.07l.09.108.018-.144c.046-.405.155-.792.316-1.149l.009-.016.003-.009-.01-.027a2.17 2.17 0 01-.166-.833c0-1.165.912-2.108 2.04-2.108.653 0 1.232.317 1.606.81l.011.014.006.008.027.002c.398.025.778.116 1.13.264l.13.053-.049-.134c-.43-1.203-1.547-2.06-2.861-2.063C5.954 4.61 4.59 6.019 4.587 7.76zm3.055 2.156a1.546 1.546 0 00.1.956l.013.027.006.012.041-.002a3.037 3.037 0 002.43-1.49l.014-.022.008-.013-.025-.034a1.456 1.456 0 00-.762-.551l-.03-.01-.015-.004-.025.043A2.026 2.026 0 017.7 9.868h-.032l-.016.001-.01.048zm2.756 1.03l.042-.002c1.65-.046 2.97-1.438 2.974-3.153-.004-1.742-1.367-3.151-3.052-3.155-.159 0-.314.014-.466.038l-.141.024.113.09c.313.251.586.555.807.898l.009.015.004.008.026.005c.957.172 1.686 1.032 1.688 2.071v.007c0 1.055-.75 1.93-1.73 2.083l-.019.004h-.008l-.016.024a3.766 3.766 0 01-.824.88l-.115.087.141.026c.148.027.299.043.453.048l.05.001h.064zm-1.414.327l-.013-.006-.008-.003-.023.01c-.175.069-.392.126-.585.169l-.13.027a1.419 1.419 0 001.584.058l-.24-.064-.03-.008c-.239-.067-.337-.1-.555-.183zm.076 2.12h.022l.056-.001c1.289-.036 2.378-.895 2.793-2.088l.049-.142-.133.062a3.491 3.491 0 01-1.155.312l-.017.002h-.009l-.016.02a2.01 2.01 0 01-1.59.79c-1.127 0-2.04-.944-2.04-2.11 0-.238.038-.467.108-.68l.007-.018.002-.009-.012-.024a3.812 3.812 0 01-.363-1.173l-.021-.147-.089.116a3.217 3.217 0 00-.644 1.935c.003 1.716 1.325 3.11 2.974 3.154h.078zm1.302-9.364c2.01 0 3.639 1.684 3.64 3.762 0 1.163-.512 2.202-1.314 2.893l-.011.01-.007.005-.003.025c-.23 1.848-1.757 3.277-3.607 3.277h-.019c-1.817-.009-3.32-1.398-3.58-3.203l-.003-.02-.001-.007-.02-.016A3.8 3.8 0 014 7.762C4 5.684 5.63 4 7.639 4c.487 0 .952.098 1.377.278l.014.007.008.003.022-.01a3.54 3.54 0 011.302-.248z" fill="#373535"/><path d="M4.587 7.76c.001.793.286 1.516.751 2.07l.092.108.017-.143c.046-.406.155-.792.317-1.149l.007-.017.004-.008-.011-.027a2.183 2.183 0 01-.166-.834c0-1.164.914-2.108 2.04-2.109.653 0 1.233.318 1.607.81l.011.015.006.008.027.002c.397.025.777.117 1.13.263l.129.055-.048-.136c-.43-1.202-1.547-2.06-2.861-2.062C5.954 4.61 4.59 6.02 4.587 7.76zm3.055 2.156a1.544 1.544 0 00.1.957l.014.026.004.013.042-.003a3.034 3.034 0 002.43-1.488l.014-.024.007-.013-.024-.034a1.463 1.463 0 00-.762-.551l-.03-.01-.016-.004-.025.043A2.028 2.028 0 017.7 9.867h-.032l-.016.001" fill="#4598D2"/><path d="M8.587 8.83a2.16 2.16 0 01.023-2.116l.017-.03.009-.016-.039-.035a1.418 1.418 0 00-.862-.37L7.71 6.26h-.013l-.02.036a3.235 3.235 0 00-.036 2.917l.006.012.012.025.005.012.04-.002c.33-.016.633-.145.869-.35l.027-.024.013-.01-.02-.038-.006-.008zm1.813 2.115l.041-.001c1.649-.046 2.97-1.438 2.973-3.153-.003-1.742-1.366-3.151-3.05-3.154-.16 0-.315.013-.467.038l-.141.022.113.09c.313.253.585.556.806.9l.01.015.004.007.026.005c.957.172 1.685 1.032 1.688 2.071v.007c0 1.056-.751 1.93-1.731 2.084l-.018.003-.008.001-.015.024a3.766 3.766 0 01-.825.879l-.115.088.14.025c.148.027.3.044.454.048l.05.001" fill="#FF3818"/></svg>