<!-- by TradingView --><svg width="18" height="18" viewBox="0 0 18 18" xmlns="http://www.w3.org/2000/svg"><path fill="#000AD2" d="M0 0h18v18H0z"/><path d="m10.99 12.05-.45.47-.43-.47-.23-.73-.66-.24v-.46h-.44l-.22 1.16.23.75-1.01.47-.31-.47.21-.47v-.5h-.66l-.88.97-.66-.22v-.98l-1.15-.19-.83.48-.5-.23v-.99l.45-.23 1.76-.93.26.23.66-.7V8.3l.88-.93.44-1 .66-1.15L9.2 5h.44v.45l.88.93v.99l1.38 1.38 1.33.93.66.23.23.7.88.45-.44.47h-.44v-.47l-.66-.22-1.11-1.15-.88-.47-.94-1.4-.43-.45.21-.75-.66-.7-.45.46v1l-.42.45.88.92-.45.48.9.92v.47l.43.92H11l.49-.47-.23-.23-.27-.7h.5l.43.93.45.47-1.37.5Z" fill="#fff"/></svg>