<!-- by TradingView --><svg width="18" height="18" viewBox="0 0 18 18" xmlns="http://www.w3.org/2000/svg"><path fill="#F0F3FA" d="M0 0h18v18H0z"/><path d="M7 3.11c-.07 0-.13-.02-.13-.05 0-.03.06-.06.14-.06.08 0 .14.03.14.06s-.06.05-.14.05Zm1.28.17c.14.05.2.13.14.19-.06.05-.23.06-.38.01-.15-.05-.2-.13-.14-.18.07-.06.24-.07.38-.02Zm1.02.38c.09 0 .2.02.3.06.2.09.31.22.24.31-.04.04-.1.06-.2.06-.09 0-.2-.02-.3-.06-.22-.1-.31-.23-.23-.32.04-.04.1-.05.19-.05Zm-.52.41c.13 0 .28.03.43.1.24.11.38.27.38.42 0 .05-.01.1-.04.13-.13.17-.5.2-.84.05-.24-.12-.38-.27-.38-.42 0-.05.02-.1.06-.14.08-.1.23-.14.39-.14Zm-3.05.04a.7.7 0 0 0-.17-.02.7.7 0 0 0-.47.16c-.06.06-.09.11-.09.17 0 .08.07.16.2.2l.18.02c.18 0 .38-.06.5-.17.04-.05.07-.1.07-.16 0-.09-.08-.17-.22-.2Zm4.89.2c.07 0 .15.03.24.07.14.08.22.2.18.27-.04.07-.2.07-.35-.01-.12-.08-.2-.16-.2-.23l.01-.05c.03-.03.07-.04.12-.04Zm-.1.6a.73.73 0 0 0-.34-.09c-.1 0-.2.03-.24.1-.08.13.03.34.27.47.12.06.23.1.34.1.1 0 .2-.04.24-.11.07-.13-.05-.33-.28-.46Zm1.18.82c.15.1.24.25.2.35-.05.1-.2.1-.36 0-.15-.1-.23-.26-.19-.36.05-.1.2-.08.35 0Zm-.1 1.5c.1-.22-.04-.51-.31-.7-.28-.16-.57-.15-.69.05-.1.2.03.52.32.7.3.18.58.16.69-.05Zm-2.17-.47c.34.2.48.54.33.8-.16.27-.55.33-.9.13-.36-.2-.5-.54-.33-.8.18-.26.57-.31.9-.13Zm3.19 1.21c.06-.19-.04-.45-.25-.62-.22-.16-.45-.15-.54.04-.07.18.04.47.26.63.23.17.45.14.53-.05Zm-.6 1.13c.08-.2-.02-.47-.22-.62-.2-.16-.44-.12-.53.08-.09.19 0 .48.21.63.22.15.44.1.53-.1Zm-5.5 3.26a.4.4 0 0 1-.55.13.4.4 0 0 1-.15-.53.4.4 0 0 1 .55-.14c.19.11.26.35.14.54Zm4.43-1.96c.2.14.43.08.53-.13.1-.2.01-.46-.18-.6-.2-.15-.43-.1-.53.1-.11.21-.03.49.18.63Zm-1.34.3a.4.4 0 0 1-.6.15c-.21-.14-.3-.41-.18-.63.12-.2.39-.27.6-.13.22.13.28.4.18.62Zm-2.92.58c.24.14.52.05.66-.17.13-.22.05-.48-.18-.62a.5.5 0 0 0-.65.16c-.13.22-.06.5.17.63Zm3.63-1.72c-.13.23-.42.3-.7.13-.25-.17-.37-.49-.24-.72.14-.23.43-.28.7-.13.26.17.36.48.24.72ZM7.48 10c.26.15.58.08.73-.16.13-.23.04-.54-.22-.68s-.57-.07-.73.16c-.14.23-.05.54.22.68Zm1.54-1.33c-.16.26-.52.32-.84.16-.31-.19-.42-.51-.26-.77.17-.26.53-.32.83-.15.3.17.41.5.27.76Zm1.79 2.82a.43.43 0 0 0-.13-.53c-.17-.11-.37-.06-.48.12a.44.44 0 0 0 .14.54c.16.11.37.05.47-.13Zm-2.9 1.26c.15.09.2.26.1.4a.32.32 0 0 1-.42.13.29.29 0 0 1-.1-.41c.09-.15.27-.2.42-.12Zm3.9-.59a.3.3 0 0 0-.08-.37c-.12-.07-.24-.03-.31.1-.06.14-.03.3.07.37.12.08.24.03.31-.1Zm-1.43 2.11c.06.03.08.13.03.2s-.12.1-.2.07c-.06-.04-.08-.12-.03-.2.04-.08.13-.1.2-.07Zm.88.66c.04-.05.03-.11-.01-.14-.05-.02-.1 0-.14.05-.04.05-.03.12.02.14.04.03.1 0 .13-.05Zm-2.02-1.35c.09.06.12.19.05.29-.06.1-.19.14-.29.09-.1-.06-.12-.18-.06-.29.07-.1.19-.14.3-.09Zm1.84-.2c.05-.09.03-.2-.05-.24-.07-.05-.17-.02-.22.08-.05.09-.03.2.04.24.08.05.18.01.23-.08Zm-.36-5.78c.28.18.4.5.29.74-.12.23-.43.28-.72.1-.29-.18-.41-.51-.29-.75.13-.23.45-.27.72-.09ZM7.41 4.77c0-.15-.12-.28-.34-.36-.32-.1-.7-.04-.9.15-.18.2-.09.44.23.56.33.11.74.04.93-.15a.32.32 0 0 0 .08-.2Zm.1-1.09c.08 0 .17.02.26.04.22.08.31.22.2.34-.08.07-.2.1-.36.1a.98.98 0 0 1-.26-.03c-.16-.06-.25-.14-.25-.23 0-.04.02-.07.06-.11.08-.07.2-.1.35-.1Zm2.96 2.8c.14-.24-.03-.57-.38-.77-.35-.18-.73-.17-.9.07-.15.23 0 .58.37.8.37.2.77.15.91-.1Zm-1.38-.93c.09-.3-.2-.63-.66-.73-.45-.11-.88.04-.96.34-.09.3.21.63.66.74.45.1.88-.05.96-.35ZM6.05 3.57c0 .08.13.15.3.15.17 0 .3-.07.3-.15 0-.08-.13-.15-.3-.15-.17 0-.3.07-.3.15Zm5.77 1.55c-.03.03 0 .1.07.15.07.04.14.06.17.03.02-.04 0-.1-.08-.15-.06-.05-.14-.07-.16-.03ZM8.03 11.8c0 .24.2.43.45.43.24 0 .44-.2.44-.43 0-.24-.2-.43-.44-.43-.25 0-.45.19-.45.43Zm1.99.92a.25.25 0 0 0-.1-.35.26.26 0 0 0-.35.11.25.25 0 0 0 .1.35c.12.07.28.02.35-.1Zm1.74 1.24c-.06-.02-.08-.1-.06-.16.03-.07.1-.11.15-.1.06.03.08.1.06.17-.03.07-.1.1-.15.09Zm.53-1.34c0 .1.06.18.14.18.08 0 .15-.08.15-.18 0-.1-.07-.17-.15-.17-.08 0-.14.08-.14.17Zm-.03-1.53c-.14.03-.28-.08-.32-.25-.04-.17.04-.33.18-.36.14-.03.29.08.32.25.04.17-.04.33-.18.36Zm.71-1.28a.47.47 0 0 0-.15-.5c-.15-.13-.32-.1-.38.07-.07.16 0 .39.15.51s.32.08.38-.08Zm.22-1.7c.16.1.25.31.21.46-.03.15-.18.18-.34.08-.16-.12-.26-.32-.22-.48.04-.15.2-.17.35-.06Zm.51.95c.05.12.15.2.23.17.07-.03.1-.15.04-.27-.04-.12-.15-.2-.22-.17s-.1.15-.05.27Zm-.07 1.53c-.11.03-.23-.08-.27-.24-.04-.15.02-.3.13-.32.11-.03.23.08.27.23.04.16-.02.3-.13.33Zm-.82.83c0 .13.08.23.17.23.1 0 .17-.1.17-.23s-.07-.23-.17-.23-.17.1-.17.23Z" fill="#A70E14"/></svg>