<!-- by TradingView --><svg width="18" height="18" viewBox="0 0 18 18" xmlns="http://www.w3.org/2000/svg"><path fill="#273F6F" d="M0 0h18v18H0z"/><path d="M6.22 8.3a2.61 2.61 0 0 0-.17-.43 1.41 1.41 0 0 0-.21-.29c-.11-.11-.24-.2-.39-.26-.14-.06-.29-.1-.45-.1a1.22 1.22 0 0 0-.98.47c-.12.16-.2.34-.27.56a2.7 2.7 0 0 0 .04 1.6c.09.25.22.45.38.6a1.52 1.52 0 0 0 1.53.17c.2-.1.4-.25.61-.46l.1.1c-.17.24-.39.42-.65.55-.27.13-.56.19-.88.19a2 2 0 0 1-.77-.14 1.74 1.74 0 0 1-.98-1.02 2.3 2.3 0 0 1-.13-.8c0-.34.06-.64.17-.9a1.75 1.75 0 0 1 1.07-1.02c.21-.08.43-.12.65-.12.28 0 .55.05.83.14.09.04.16.05.22.05.05 0 .1-.01.14-.05a.26.26 0 0 0 .1-.14h.1l.06 1.3h-.12ZM10.13 8.3a2.58 2.58 0 0 0-.17-.43 1.41 1.41 0 0 0-.21-.29c-.11-.11-.24-.2-.39-.26-.14-.06-.29-.1-.45-.1a1.22 1.22 0 0 0-.98.47c-.12.16-.2.34-.27.56a2.7 2.7 0 0 0 .04 1.6c.09.25.22.45.38.6a1.52 1.52 0 0 0 1.53.17c.2-.1.4-.25.61-.46l.1.1c-.17.24-.39.42-.65.55-.27.13-.56.19-.88.19a2 2 0 0 1-.77-.14 1.74 1.74 0 0 1-.98-1.02 2.3 2.3 0 0 1-.13-.8c0-.34.06-.64.17-.9a1.75 1.75 0 0 1 1.07-1.02c.21-.08.43-.12.65-.12.28 0 .55.05.83.14.09.04.16.05.22.05.05 0 .1-.01.14-.05a.26.26 0 0 0 .1-.14h.11l.05 1.3h-.12ZM14.37 11l-2.5-3.2v2.26c0 .15.02.28.03.37.01.1.04.17.08.22.04.05.1.1.17.12.06.02.15.04.26.04V11H11.1v-.19c.11 0 .2-.02.28-.04a.3.3 0 0 0 .16-.12.49.49 0 0 0 .08-.22l.02-.37V7.51l-.15-.16a.42.42 0 0 0-.24-.14.67.67 0 0 0-.15-.02V7h.96l2.17 2.89V7.93c0-.35-.05-.57-.16-.65a.41.41 0 0 0-.15-.06 1.27 1.27 0 0 0-.23-.03V7H15v.2c-.1 0-.18.01-.24.03a.46.46 0 0 0-.13.06c-.1.08-.16.3-.16.64V11h-.1Z" fill="#fff"/></svg>