<!-- by TradingView --><svg xmlns="http://www.w3.org/2000/svg" width="18" height="18"><path fill="#F0F3FA" d="M0 0h18v18H0z"/><path d="M13.31 7.36a4.35 4.35 0 00-2.72-2.83l-.29.89c1.29.35 2.02 1.67 2.23 2.28l.78-.34zm-4.06 4.95a3 3 0 01-2.05-.74l-.8 1.25c.72.75 2.2 1.01 2.85 1.05v-1.56z" fill="#1C769D"/><path d="M9.6 8.69L4.57 4 3 6.13l6.6 2.56z" fill="#24A83B"/><path d="M10.74 4.23c-1.65-.53-3-.03-3.47.28l.87 1.28c.83-.36 1.76-.2 2.13-.08l.47-1.48zM9 14c4.96-.34 5.45-4.97 4.72-6.89l-1.77.73c.67 3.28-1.71 4.16-2.95 4.2V14z" fill="#2956A2"/><path d="M7.62 11.25A2.82 2.82 0 016.42 9H4a5.06 5.06 0 002.24 4.38l1.38-2.13z" fill="#123674"/></svg>