<!-- by TradingView --><svg xmlns="http://www.w3.org/2000/svg" width="18" height="18" viewBox="0 0 18 18"><path fill="#24A79F" d="M0 0h18v18H0z"/><path fill-rule="evenodd" d="M8.34 14.86c1.56.33 2.39 0 2.75-.18 1.21-.62 2.46-2 2.93-2.62l.03-.03c.3-.39.97-1.27.95-2.5a9.55 9.55 0 0 0-.84-3.49 4.18 4.18 0 0 0-2.35-2.16C10.26 3.26 9.34 3 8.15 3c-1.2 0-3.1 1.43-3.55 1.99l-.28.31A4.11 4.11 0 0 0 3 7.97c-.06 1.38.8 3.52 1.05 4.17l.06.16c.1.26.46.91.9 1.25.44.33 1.38.9 3.33 1.3Zm-.1-.66c1.35.29 2.2 0 2.52-.17a8.87 8.87 0 0 0 2.56-2.36c.27-.36.84-1.07.82-2.07a9.1 9.1 0 0 0-.63-3.07 4.04 4.04 0 0 0-2.13-2.06c-1.66-.66-2.07-.69-3.1-.68-1.04 0-2.7 1.48-3.1 1.96-.06.09-.15.18-.25.29-.44.47-1.07 1.14-1.11 2.24-.06 1.27.68 3.32.83 3.72l.02.06c.08.22.4.78.77 1.07.38.29 1.11.71 2.8 1.07ZM9.54 6H7v5.5c0 .28.22.5.5.5H8v-2h1.53a2 2 0 1 0 0-4ZM8 9V7h1.49a1 1 0 1 1 0 2H8Z" fill="#fff"/></svg>