<!-- by TradingView --><svg xmlns="http://www.w3.org/2000/svg" width="18" height="18" viewBox="0 0 18 18"><path fill="#F0F3FA" d="M0 0h18v18H0z"/><path d="M10.8 4c2.4.1 3.7 1.47 4.2 2.16-.5 0-1.27.27-1.31.27A4.47 4.47 0 0 0 9.8 4.74c-1.36 0-2.85 1.06-3.47 1.69C7.94 4.43 9.8 4 10.8 4z" fill="#177EC9"/><path d="M7.41 4c-2.4.1-3.9 1.66-4.41 2.43h1.53C5.85 4.99 6.85 4.79 8.4 4.79c1.36 0 2.84 1 3.47 1.64C10.28 4.43 8.4 4 7.4 4z" fill="#A0D2EA"/><path fill-rule="evenodd" d="M7.54 7H7v7h.54v-2.18a2.72 2.72 0 1 0 0-4.2V7zm0 1.43v2.59a2.16 2.16 0 1 0 0-2.6z" fill="#898788"/></svg>