<!-- by TradingView --><svg xmlns="http://www.w3.org/2000/svg" width="18" height="18"><path fill="#F0F3FA" d="M0 0h18v18H0z"/><path fill-rule="evenodd" d="M8.38 8.94c0 1.04-.84 1.9-1.88 1.9a1.89 1.89 0 01-1.87-1.9c0-1.05.84-1.9 1.87-1.9 1.04 0 1.88.85 1.88 1.9zm.62 0c0 1.4-1.12 2.53-2.5 2.53-.74 0-1.42-.33-1.87-.86v3.08a.31.31 0 01-.63 0V6.72a.31.31 0 01.63 0v.55A2.48 2.48 0 016.5 6.4C7.88 6.4 9 7.54 9 8.94z" fill="#1194C9"/><path d="M9.81 11.35a.31.31 0 01-.31-.3V5.3a.31.31 0 01.62 0v1.82A2.48 2.48 0 0112 6.27c1.38 0 2.5 1.13 2.5 2.54 0 1.4-1.12 2.54-2.5 2.54-.75 0-1.42-.33-1.88-.86v.55c0 .17-.14.31-.3.31zm4.06-2.54A1.9 1.9 0 0012 6.91a1.9 1.9 0 00-1.88 1.9c0 1.05.84 1.9 1.88 1.9a1.9 1.9 0 001.88-1.9z" fill="#613C8C"/></svg>