<!-- by TradingView --><svg width="18" height="18" viewBox="0 0 18 18" xmlns="http://www.w3.org/2000/svg"><path fill="#28314E" d="M0 0h18v18H0z"/><path fill-rule="evenodd" d="M14.96 7.73c.1-.26 0-.56-.2-.68s-.55-.01-.64.24l-1.02 2.78-1.12-2.79c-.07-.17-.33-.28-.48-.28-.16 0-.4.12-.46.3l-1.1 2.77-1.06-2.79c-.1-.25-.44-.35-.65-.23-.2.12-.29.43-.19.68l1.53 3.98c.06.18.2.29.36.29.16 0 .3-.11.37-.28l1.2-3.06 1.23 3.06c.07.17.21.28.37.28s.3-.12.36-.3l1.5-3.97ZM3 7.5c0-.26.2-.47.44-.5H6.97C7.54 7 8 7.5 8 8.12v.76C8 9.5 7.54 10 6.97 10H4v1.5a.5.5 0 0 1-1 0v-4ZM4 9V8h2.48c.29 0 .52.19.52.42v.16c0 .23-.23.42-.52.42H4Z" fill="#fff"/></svg>