<!-- by TradingView --><svg width="18" height="18" viewBox="0 0 18 18" xmlns="http://www.w3.org/2000/svg"><path fill="#F0F3FA" d="M0 0h18v18H0z"/><path d="M10.16 12.35c1.32-1.19 2.96-2.83 2.84-4.72a4.03 4.03 0 0 0-5.14-3.5c-2.51.8-3.75 3.72-2.16 5.92.8 1.11 1.87 2.04 2.87 2.99.02.02.02.04 0 .06l-.64.66c-.02.02-.05.02-.07 0-1.48-1.44-3.53-3.07-3.82-5.22a4.95 4.95 0 0 1 4.32-5.5 4.9 4.9 0 0 1 4.99 7.26c-.19.33-.62.84-1.28 1.53l-1.86 1.93c-.02.02-.05.02-.07 0l-2.6-2.52A10.32 10.32 0 0 1 5.9 9.32c-.64-1.05-.32-2.58.47-3.55a3.45 3.45 0 0 1 5.91 1.17c.62 2.04-.82 3.35-2.13 4.62a.06.06 0 0 1-.04.02c-.02 0-.03 0-.04-.02l-.64-.62c-.03-.03-.03-.06 0-.09.76-.71 1.25-1.22 1.48-1.52.98-1.3.5-2.95-.97-3.6C7.92 4.83 5.87 7 6.82 8.89c.09.18.24.39.45.62.9.98 1.86 1.9 2.82 2.84.02.02.04.02.07 0Z" fill="#231F20"/><path d="M9 15a.67.67 0 1 0 0-1.33A.67.67 0 0 0 9 15Z" fill="#D3222D"/></svg>