<!-- by TradingView --><svg xmlns="http://www.w3.org/2000/svg" width="18" height="18" viewBox="0 0 18 18"><path fill="#F0F3FA" d="M0 0h18v18H0z"/><path d="M7.25 6.93c.06.42.18.83.37 1.22.31.63.73 1.2 1.14 1.77.25.37.49.75.67 1.15.23.51.4 1.06.4 1.62 0 .09-.03.18.02.26.14.23.35.4.58.55.03.01.05.04.09.02.07-.12.1-.25.14-.4.11-.47.03-.98-.13-1.44a7.12 7.12 0 0 0-1.06-1.92 10.2 10.2 0 0 1-1.04-1.7 3.54 3.54 0 0 1 .12-3.2c.2-.34.47-.66.82-.85-.22-.02-.45 0-.68.03-.15.03-.29.1-.42.18-.26.18-.46.44-.62.71a3.3 3.3 0 0 0-.4 2zM7.77 12.54H6.32c.09.36.3.7.6.93.25.2.55.35.87.44.42.08.85.07 1.27.03a2 2 0 0 1-.53-.26c-.4-.27-.62-.7-.76-1.14z" fill="#E8941A"/><path d="M10.35 13.66a2.09 2.09 0 0 1-.97-1.12h-1.4c.08.42.34.8.7 1.04.49.32 1.1.43 1.68.42a2 2 0 0 0 .61-.08.5.5 0 0 0-.12-.05c-.17-.05-.33-.13-.5-.21zM10.78 9.9c-.32-.52-.66-1.03-.95-1.57a4.74 4.74 0 0 1-.43-1.1c-.08-.31-.1-.64-.08-.97.04-.58.23-1.16.62-1.6.2-.25.46-.45.74-.6a7.82 7.82 0 0 0-.72-.05.82.82 0 0 0-.37.09c-.3.14-.55.39-.74.66-.44.63-.6 1.42-.53 2.18.06.4.18.8.35 1.18.32.67.78 1.27 1.2 1.88.42.6.77 1.25.94 1.95.12.46.15.96-.01 1.41-.03.1-.08.18-.1.28.15.06.31.12.49.13.15 0 .3-.02.42-.12.22-.18.36-.44.38-.72.05-.46-.1-.92-.27-1.34-.26-.6-.6-1.14-.94-1.68z" fill="#E16F21"/><path d="M9.77 5.29A3.4 3.4 0 0 0 9.6 6h2.29c0-.25-.05-.7-.12-.95-.08-.24-.19-.49-.36-.69-.1-.1-.23-.2-.38-.2-.2-.01-.37.1-.52.2a2.4 2.4 0 0 0-.74.93z" fill="#E16F21"/><path d="M6.59 8.28c.24.5.54.96.87 1.42.33.45.64.93.88 1.44.17.4.3.81.36 1.24h.94c-.03-.02-.03-.05-.03-.09-.05-.35-.17-.7-.3-1.03-.23-.5-.51-.97-.83-1.4l-.52-.75a5.31 5.31 0 0 1-.87-1.89c-.15-.79-.03-1.63.36-2.34.16-.27.35-.53.6-.72-.38.05-.75.19-1.06.42-.39.32-.63.77-.76 1.25a3.37 3.37 0 0 0 .36 2.45zM6.1 12.54H5c.13.47.51.84.94 1.08.46.25 1 .38 1.52.35a1.87 1.87 0 0 1-.67-.34 2.1 2.1 0 0 1-.69-1.09z" fill="#E9C900"/></svg>