<!-- by TradingView --><svg width="18" height="18" xmlns="http://www.w3.org/2000/svg"><path fill="#E10226" d="M0 0h18v18H0z"/><path d="M5.186 6.729C5.34 5.733 6.256 5 7.328 5h2.459c.918 0 1.782.335 2.427.925L15 8.528c-.765.711-1.955.63-2.6.03l-1.52-1.413a1.6 1.6 0 00-1.082-.416H5.186zM3 8.752C3 7.796 3.841 7 4.857 7c.917 0 1.781.235 2.47.877l2.875 2.674a1.656 1.656 0 010 2.449l-1.727-1.605-2.491-2.308a1.294 1.294 0 00-.875-.335h-.875c-.556 0-.983.467-.907.975C3.12 9.412 3 9.117 3 8.752z" fill="#fff"/><path d="M7.71 7h1.54c.333.575-.112 1.284-.775 1.284-.643 0-1.136-.724-.765-1.284z" fill="#fff"/></svg>