<!-- by TradingView --><svg width="18" height="18" viewBox="0 0 18 18" xmlns="http://www.w3.org/2000/svg"><path fill="#F0F3FA" d="M0 0h18v18H0z"/><path d="M11.01 7.5h-.54c-.02-.62-.39-1-1.08-1-.7 0-1.09.38-1.09.86 0 .34.49.7.7.75l1.1.34c.62.19.91.44.91 1.19 0 .9-.8 1.36-1.6 1.36-.9 0-1.65-.42-1.65-1.5h.54c0 .69.5 1 1.1 1 .47 0 1.07-.2 1.07-.86 0-.63-.37-.66-.8-.8l-.82-.28c-.57-.19-1.1-.61-1.1-1.2 0-.9.9-1.35 1.63-1.36.85 0 1.58.44 1.63 1.5Z" fill="#E73331"/><path fill-rule="evenodd" d="M7.64 8.57C7.64 7.12 6.6 6 5.32 6c-.94 0-1.26.38-1.63.8-.04.05-.07.1-.11.13V6H3v7h.58v-2.92c.26.47.97.92 1.74.92 1.28 0 2.32-.98 2.32-2.43Zm-2.32 1.91c1 0 1.74-.9 1.74-2 0-1.11-.74-1.9-1.74-1.9s-1.74.79-1.74 1.9c0 1.1.74 2 1.74 2ZM16.05 8.57c0-1.45-1.03-2.57-2.32-2.57-.94 0-1.26.38-1.63.8l-.1.13V6h-.59v7H12v-2.95c.26.47.97.95 1.74.95 1.29 0 2.32-.98 2.32-2.43Zm-2.32 1.91c1 0 1.74-.9 1.74-2 0-1.11-.74-1.9-1.74-1.9S12 7.37 12 8.48c0 1.1.74 2 1.74 2Z" fill="#9C9C9C"/></svg>