<!-- by TradingView --><svg width="18" height="18" viewBox="0 0 18 18" xmlns="http://www.w3.org/2000/svg"><path fill="#F0F3FA" d="M0 0h18v18H0z"/><path d="M2.07 5c.43.5 1.8 1.67 3.83 2.22.6.16 1.93.56 2.39.97H9.7c.46-.41 1.78-.81 2.39-.97A8.21 8.21 0 0 0 15.93 5c.26.94-.25 1.46-.53 1.6.15.76-.21 1.12-.41 1.21a1.5 1.5 0 0 1-1.24 1.42c-.2.62-.79.74-1.06.73.04.49-.38.61-.6.61-.32.73-1.58.79-2.17.72l.53 1.1c.22-.05.7-.08.73.22.04.3-.57.28-.87.24-.19.58-.95 1-1.31 1.15m0 0c-.36-.14-1.12-.57-1.3-1.15-.31.04-.92.06-.88-.24.04-.3.5-.27.73-.22l.53-1.1c-.59.07-1.85.01-2.18-.72-.21 0-.63-.12-.6-.61-.26.01-.85-.1-1.05-.73a1.5 1.5 0 0 1-1.24-1.42c-.2-.09-.56-.45-.41-1.2-.28-.15-.79-.67-.53-1.61M9 14" fill="#5C5C5C" fill-opacity=".7"/><path d="M9.57 7.55c.22-.03.44.26.52.4.06.1.36.2.5.25.62.2.62.67.54.88.35.44.19.6.06.63-.05-.26-.3-.33-.42-.33.15.23.22.47.23.55l-.41-.55c-.47.08-.71.6-.78.85l-.24-.2-.19.2-.08-.3-.24.18v-.52h-.24l.06-.51H8.6l.22-.49-.13-.07.28-.32H8.7a.45.45 0 0 1 .46-.25l-.18-.23c.39-.07.68.13.78.23l-.18-.4Z" fill="#fff" fill-opacity=".8"/></svg>