<!-- by TradingView --><svg width="18" height="18" viewBox="0 0 18 18" xmlns="http://www.w3.org/2000/svg"><path fill="#F0F3FA" d="M0 0h18v18H0z"/><path d="M14 9.33 13.87 9c-.26.38-.8.8-1.52.8-.7 0-1.16-.42-1.35-.57.1.23.71.77 1.55.77.67 0 1.25-.44 1.45-.67Z" fill="#75ABC4"/><path d="m14 10.57-.07.53c-.64.37-1.37.42-1.64.4-2.19-.23-2.29-1.7-2.29-2 .1.7 1.18 1.5 2.35 1.5.94 0 1.5-.26 1.65-.43Z" fill="#339AB9"/><path d="M9 10.38c0-.56.34-1.15.5-1.38-.23.46-.19.83-.19 1.08.31 2.16 2.59 2.54 3.69 2.46l-.54.46C9.66 12.88 9 11.1 9 10.38Z" fill="#188CB5"/><path d="M7.5 10.64c0-2.15 1.71-3.32 2.57-3.64-1.77 1.26-1.9 2.68-1.9 3.3 0 1.84 1.57 3.1 2.33 3.5l-1.01.2a4.23 4.23 0 0 1-1.99-3.36Z" fill="#4B8BAE"/><path d="M10.86 5A7.2 7.2 0 0 1 15 6.38 7.16 7.16 0 0 0 9.72 4C5.26 4 3.38 7.68 3 9.52c.18.32.62 1.06.89 1.48.73-4.58 4.57-6 6.97-6Z" fill="#11567D"/><path d="M5.46 11.04c.35-4.27 4.15-5.14 6-5.03-4.17.69-5 3.7-5 5.11A6 6 0 0 0 7.47 14a10.2 10.2 0 0 1-1.35-.41c-.62-.73-.66-2.28-.66-2.55Z" fill="#0A6E90"/></svg>