<!-- by TradingView --><svg width="18" height="18" xmlns="http://www.w3.org/2000/svg"><path fill="url(#paint0_linear)" d="M0 0h18v18H0z"/><path d="M9 14c.507-.673 1.21-.81 2.081-.894 1.032-.098 1.492-.203 2.081-.86.37-.413.628-1.082.628-1.69 0-.423-.022-.772-.231-1.379-.448-1.3-.59-1.788.441-2.98l-2.148-2.152C11.39 4.43 10.387 5.105 9 4c-1.398 1.115-2.368.42-2.852.045L4 6.196c1.024 1.193.93 1.684.44 2.981-.22.585-.23.972-.23 1.38 0 .607.236 1.274.627 1.688.61.645 1.069.763 2.082.861.903.088 1.574.232 2.081.894z" fill="#fff"/><path d="M9 13.544c.503-.558 1.265-.8 2.033-.875.964-.095 1.34-.193 1.874-.758.347-.367.578-.938.578-1.517a3.87 3.87 0 00-.246-1.348c-.498-1.328-.387-1.875.396-2.802l-1.884-1.855S10.54 5.495 9 4.327c-1.532 1.168-2.752.062-2.752.062L4.364 6.244c.802.927.917 1.484.397 2.802-.193.487-.247.96-.247 1.348 0 .568.228 1.166.579 1.517.553.554.912.653 1.873.758.771.085 1.531.317 2.034.875z" fill="url(#paint2_linear)"/><path d="M9 12.998c.781-.495 1.177-.508 1.98-.624.696-.101 1.152-.155 1.66-.653.717-.706.647-1.709.214-2.844-.504-1.317-.059-2.086.363-2.613L11.72 4.79S10.54 5.706 9 4.716c-1.542.99-2.72.074-2.72.074l-1.5 1.474c.42.527.88 1.286.366 2.613-.441 1.14-.492 2.138.214 2.844.503.502.955.554 1.66.653.824.116 1.198.13 1.98.624z" fill="#fff"/><path d="M8.994 12.333c.808-.496 1.3-.445 2.207-.599 1.55-.263 1.455-1.698 1.357-2.255a4.682 4.682 0 00-.105-.47c-.126-.404-.442-.938-.237-2.009H5.757c.221.957-.113 1.69-.234 2.071a4 4 0 00-.08.333c-.097.488-.274 2.045 1.342 2.33.968.171 1.4.103 2.209.6z" fill="#E20010"/><defs><linearGradient id="paint0_linear" x1="3.349" y1="3.122" x2="21.904" y2="24.434" gradientUnits="userSpaceOnUse"><stop stop-color="#1A1E21"/><stop offset="1" stop-color="#06060A"/></linearGradient><linearGradient id="paint2_linear" x1="6.089" y1="5.925" x2="15.583" y2="16.893" gradientUnits="userSpaceOnUse"><stop stop-color="#1A1E21"/><stop offset="1" stop-color="#06060A"/></linearGradient></defs></svg>