<!-- by TradingView --><svg width="18" height="18" viewBox="0 0 18 18" xmlns="http://www.w3.org/2000/svg"><path fill="#F0F3FA" d="M0 0h18v18H0z"/><path d="M7.35 9.4 6.09 8.24a2.54 2.54 0 0 1-.64-1.77l1.7-1.7c1-1.01 2.63-1.01 3.63 0l2.47 2.46c1 1 1 2.62 0 3.62l-1.39 1.39c.13-.58.25-1.31.16-1.76-.13-.64-1.1-1.56-1.64-2.04l-.96-.96a.64.64 0 0 0-.9 0l-1.1 1.1a.64.64 0 0 0-.07.84Z" fill="url(#ap12gdzp3)"/><path d="m10.65 8.6 1.27 1.17c.41.42.64 1.1.63 1.77l-1.7 1.7c-1 1.01-2.63 1.01-3.63 0l-2.47-2.46c-1-1-1-2.62 0-3.62l1.39-1.39a5.03 5.03 0 0 0-.16 1.76c.15.73.99 1.39 1.5 1.9l1.1 1.1c.25.25.65.25.9 0l1.1-1.1a.64.64 0 0 0 .07-.84Z" fill="url(#bp12gdzp3)"/><defs><linearGradient id="ap12gdzp3" x1="6.03" y1="7.8" x2="13.25" y2="8.12" gradientUnits="userSpaceOnUse"><stop stop-color="#C91D23"/><stop offset=".42" stop-color="#DE1D25"/><stop offset="1" stop-color="#E51D25"/></linearGradient><linearGradient id="bp12gdzp3" x1="5.23" y1="9.88" x2="11.65" y2="10.52" gradientUnits="userSpaceOnUse"><stop stop-color="#E51D25"/><stop offset="1" stop-color="#BD1D22"/></linearGradient></defs></svg>