<!-- by TradingView --><svg width="18" height="18" viewBox="0 0 18 18" xmlns="http://www.w3.org/2000/svg"><path fill="#F0F3FA" d="M0 0h18v18H0z"/><path d="M8.69 4h.7l1.09 2.34-.71.08L8.69 4Zm3.2 3.4.25.7 1.42-.43-.2-.53-1.47.26ZM4 9.2l.43 1.32L9.27 9.1l-.3-.98L4 9.2Zm7.78.53-.59.2 1.33 2.95.46-.4-1.2-2.75Z" fill="#1A3D91"/><path d="m5.18 5.18.62-.53 3.47 2.2-.4.54-3.7-2.21Zm7.2 3.5 1.62.9-.15.47-1.67-.85.2-.52Zm-.85-1.85-.5-.33.61-1.4.35.24-.46 1.49ZM9.83 9.6a7 7 0 0 1 .72.3L9.08 14l-.92-.22 1.68-4.17Z" fill="#249CCE"/></svg>