<!-- by TradingView --><svg width="18" height="18" viewBox="0 0 18 18" xmlns="http://www.w3.org/2000/svg"><path fill="#F0F3FA" d="M0 0h18v18H0z"/><path d="M10.99 5.43c.1.45-.47 1.07-1.29 1.39-.82.32-1.57.2-1.69-.25-.1-.45.47-1.07 1.29-1.39.82-.32 1.57-.2 1.69.25Z" fill="#24AC4A"/><path d="m8.9 9.6-.93.52c.38 2.84-1.14 3.59-1.87 3.59-.58 0-.97-.45-1.1-.67.25.67.9.97 1.4.96.76 0 1.78-.78 2.22-1.7.41-.86.46-1.84.28-2.7ZM7.31 7l-1.78.76c.93 0 1.63.87 1.86 1.3.37.05 1.1 0 1.08-.67-.03-.67-.79-1.2-1.16-1.39Z" fill="#253370"/><path d="M13.66 6 15 7.61c-1.64.06-3.6 0-6.3 1.37-2.9 1.47-3.33 2.68-3.33 3.17 0 .39.26.73.39.85-.26-.02-.76-.32-.76-1.12s.72-2.44 2.74-3.72A14.65 14.65 0 0 1 13.66 6Z" fill="#18A3DC"/></svg>