<!-- by TradingView --><svg width="18" height="18" viewBox="0 0 18 18" xmlns="http://www.w3.org/2000/svg"><path fill="#F0F3FA" d="M0 0h18v18H0z"/><path d="M4.1 13.58c.22-.01.68-.16.85-.62a1880 1880 0 0 1 4-9.96l4.1 9.96c.13.21.47.62.84.62H14V14h-2.63v-.42h.16c.05-.03.15-.12.15-.2 0-.09-2.07-5.09-3.1-7.58l-3 7.47c-.03.09-.05.24-.02.31h.33V14H4v-.42h.1Z" fill="#5F6062"/><path d="m12.45 7.64-.61-1.18c-4.68 1.41-6.4 3.72-7.5 5.2l-.02.02c2.04-2.43 6.27-3.7 8.13-4.04Z" fill="#98012E"/><path fill-rule="evenodd" d="M12.03 6 13 7.92l-.5.1c-.92.16-2.52.71-4.06 1.38a10.12 10.12 0 0 0-3.9 2.6L4 11.5l.02-.03c.56-.75 1.15-1.6 2.35-2.58 1.2-.98 2.98-2.08 5.39-2.8l.27-.09ZM4.3 11.71l-.02.03.02-.03a14.49 14.49 0 0 1 7.55-5.26l.6 1.18C9.6 8.14 6.33 9.3 4.3 11.71Z" fill="#fff"/></svg>