<!-- by TradingView --><svg width="18" height="18" viewBox="0 0 18 18" xmlns="http://www.w3.org/2000/svg"><path fill="#F0F3FA" d="M0 0h18v18H0z"/><path d="m8.51 3-.69.1a6.24 6.24 0 0 0-3.37 1.88l.27-.13C5.8 4.3 6.8 3.97 7.77 3.82a7.7 7.7 0 0 1 3 .14 13.36 13.36 0 0 1 2.8 1.02A6.3 6.3 0 0 0 8.52 3ZM5.57 5.5c-.62.15-1.13.33-1.55.53a.77.77 0 0 0-.24.16c-.12.1-.21.26-.3.5l-.2.46.14-.04c1.36-.42 2.94-.66 4.8-.72a17.9 17.9 0 0 1 1.92.01c1.75.1 3.15.32 4.46.72.12.04.12.04.1 0a3.42 3.42 0 0 0-.38-.8.4.4 0 0 0-.15-.17c-.12-.08-.36-.2-.53-.27a13.02 13.02 0 0 0-4.71-.77c-1.13.06-2.25.12-3.36.39Zm2.18 2.8c-1.76.04-3.63.1-4.57.23L3 8.55v.12l.02.93 1 .16a40.97 40.97 0 0 0 9.9 0A24 24 0 0 0 15 9.6v-.53l.01-.52-.16-.02c-1.31-.16-2.83-.2-4.4-.24h-2.7Zm-4.4 2.72.1.27c.22.47.31.62.49.73.12.08.37.2.53.27.34.15.88.31 1.36.42a14.43 14.43 0 0 0 7.05-.2c.42-.12.67-.22.93-.35.16-.08.35-.2.39-.24.04-.06.16-.24.2-.33l.26-.57-.22.07c-1.15.38-2.43.6-4.02.71-.6.04-.68.05-1.34.05-.8 0-1.23-.02-1.84-.07a15.64 15.64 0 0 1-3.9-.76Zm1.2 2.12a6.28 6.28 0 0 0 6.08 1.66 6.15 6.15 0 0 0 2.67-1.52l.14-.14-.23.1a10.9 10.9 0 0 1-3.46 1.04l-.6.04c-.92.03-1.89-.11-2.81-.43a14.3 14.3 0 0 1-1.8-.75Z" fill="#233E8E"/><path d="M8.75 4.45a5.35 5.35 0 0 0-2.1.58l.59-.05a14.9 14.9 0 0 1 3.67.01l.4.03-.1-.05a5.3 5.3 0 0 0-2.46-.52Zm-.4 2.15c-1.03.03-1.92.1-2.88.25-.39.06-.67.13-.71.17a2.6 2.6 0 0 0-.2.4c-.07.18-.25.74-.24.75l.37-.02a68.7 68.7 0 0 1 8.94.02c.02-.02-.25-.78-.38-1.1l-.05-.1-.3-.05a23.38 23.38 0 0 0-4.56-.32Zm-4.03 3.42a9.37 9.37 0 0 0 .45 1.18 23.13 23.13 0 0 0 3.12.4 21.7 21.7 0 0 0 5.3-.4 10.55 10.55 0 0 0 .44-1.15v-.03l-.2.02a45.95 45.95 0 0 1-9.11-.02Zm2.3 3.1a4.84 4.84 0 0 0 3 .55 5.4 5.4 0 0 0 1.62-.49l.11-.05h-.13c-.14 0-.67.05-.95.08-.87.08-1.6.08-2.47 0a176.39 176.39 0 0 0-1.19-.08Z" fill="#61A143"/></svg>