<!-- by TradingView --><svg width="18" height="18" viewBox="0 0 18 18" xmlns="http://www.w3.org/2000/svg"><path fill="#F0F3FA" d="M0 0h18v18H0z"/><ellipse cx="8.11" cy="6.59" rx="2.55" ry="2.59" fill="#2B2C2C"/><ellipse cx="8.11" cy="6.72" rx="1.8" ry="1.84" fill="#1A1B1B"/><path fill-rule="evenodd" d="M8.1 8.94c1.28 0 2.3-1.05 2.3-2.35 0-1.29-1.02-2.34-2.3-2.34A2.32 2.32 0 0 0 5.82 6.6c0 1.3 1.03 2.35 2.3 2.35Zm-.06-2.91-.68-1.27c.25-.17.88-.4 1.43 0l-.75 1.27Zm.5.31.75-1.26c.29.14.84.6.74 1.26H8.54Zm.62 2.03L8.54 6.9l1.5.13c0 .55-.59 1.12-.88 1.33ZM7.92 7.35l-.56 1.2c.06.05.31.13.8.13l-.24-1.33Zm-1.86-.31h1.43l-.75 1.14c-.51-.27-.67-.87-.68-1.14Zm1.43-.7-.75-1.26c-.27.08-.68.76-.68 1.26h1.43Z" fill="url(#ad2m014du)"/><circle cx="8.04" cy="6.66" fill="#B9B6B6" r=".25"/><ellipse cx="11.77" cy="9.44" rx="3.23" ry="3.29" fill="#FD7F2B"/><path fill-rule="evenodd" d="M13.1 12.3a3.04 3.04 0 0 1-2.88-.12c.27-.12.55-.34.84-.61.32-.32.66-.7.97-1.12.6-.8 1.16-1.7 1.5-2.3.23.24.43.46.58.67a5 5 0 0 0-.66 2.13l-.35 1.35Zm.05.12.05.01v-.04a3.28 3.28 0 0 0 1.61-1.84h.01l.05-.16c.08-.3.13-.62.13-.95a3.28 3.28 0 0 0-2.65-3.24 1.25 1.25 0 0 0-.04-.03l-.02.02a3.26 3.26 0 0 0-3.74 3.25c0 1.82 1.44 3.3 3.22 3.3.5 0 .96-.12 1.38-.32Zm-.65-6.05c.07.09.14.2.2.31.1.21.16.46.08.72.25.15.5.34.72.56.24-.32.31-.71.32-.9a3.08 3.08 0 0 0-1.32-.7Zm1.44.8c-.03.23-.12.58-.35.88.24.23.44.46.6.68.2-.2.4-.28.53-.3a3.17 3.17 0 0 0-.78-1.26Zm.81 1.39a.8.8 0 0 0-.48.27 3.52 3.52 0 0 1 .57 1.1 3.26 3.26 0 0 0-.09-1.37Zm0 1.78a.86.86 0 0 0-.03-.38 3.36 3.36 0 0 0-.53-1.03c-.17.26-.48.94-.62 2.04l-.32 1.26a3.16 3.16 0 0 0 1.5-1.89Zm-2.46-4.02c.1.1.22.25.3.42.09.18.14.39.08.6a4.46 4.46 0 0 0-2.54-.59 3.05 3.05 0 0 1 2.16-.43Zm-2.37.58v.01c.5-.1 1.62-.08 2.68.53a6.7 6.7 0 0 1-3.93 1.94c.02-1.01.5-1.91 1.25-2.48ZM8.67 9.44v.07a6.82 6.82 0 0 0 4.04-2c.25.15.5.33.72.55-.33.6-.89 1.5-1.5 2.3-.31.42-.64.8-.96 1.11-.31.3-.61.53-.88.63a3.18 3.18 0 0 1-1.42-2.66Z" fill="#10253F"/><path d="M5.13 12.1c-1.56-.1-2.01-.95-2.05-1.26-.19-1.08 1.49-2.66 2.6-3.23 1.12-.57 4.91-.57 4.54 1.01a5.9 5.9 0 0 1-2.05 3.04c-.5.38-1.06.57-3.04.44Z" fill="#794422"/><path d="m4.32 8.62-.5.5a4.47 4.47 0 0 0 .8 2.92l.7.06c-.65-.5-.94-2.53-1-3.48Z" fill="#FEE7D5"/><path d="M10.23 8.07c.08.17.1.35.05.57A5.95 5.95 0 0 1 8.2 11.7c-.26.2-.53.34-1 .42-.45.08-1.1.1-2.09.03-1.58-.1-2.06-.96-2.1-1.31-.05-.3.02-.6.17-.92.15-.32.39-.64.66-.94a6.75 6.75 0 0 1 1.8-1.44 3.9 3.9 0 0 1 1.26-.31 7.22 7.22 0 0 1 1.6 0c.53.07 1.02.2 1.35.42.16.11.3.25.37.41Zm-3.3-.7c-.51.05-.95.16-1.22.3-.55.28-1.24.8-1.77 1.4-.27.3-.5.61-.64.92-.14.3-.2.58-.16.83.03.29.46 1.12 1.99 1.22 1 .06 1.62.05 2.07-.03.44-.08.69-.22.93-.4a5.83 5.83 0 0 0 2.03-3 .71.71 0 0 0-.04-.48.9.9 0 0 0-.33-.36c-.3-.2-.77-.34-1.29-.4a7.1 7.1 0 0 0-1.58 0Z" fill="#10253F"/><path d="m6.12 8.27-.06-.2.12-.04.05.19.24-.1.04.12-.24.1.03.14-.12.03-.03-.12-.32.15.04.2-.12.02-.04-.16-.26.13.05.2-.12.02-.04-.16c-.1.04-.18.08-.25.13l.03.13-.12.03-.03-.1-.25.14L4.66 9l.28-.16-.06-.21L5 8.6l.05.2a18 18 0 0 1 .25-.14l-.05-.21.12-.03.05.18.26-.13-.06-.28.13-.03.05.25c.1-.04.2-.1.32-.14Z" fill="#FEE7D5"/><ellipse cx="8.91" cy="12.1" rx="1.86" ry="1.9" fill="#184F98"/><path fill-rule="evenodd" d="M8.91 13.87c.96 0 1.74-.79 1.74-1.77s-.78-1.77-1.74-1.77-1.74.8-1.74 1.77c0 .98.78 1.77 1.74 1.77Zm0 .13c1.03 0 1.87-.85 1.87-1.9 0-1.05-.84-1.9-1.87-1.9-1.03 0-1.86.85-1.86 1.9 0 1.05.83 1.9 1.86 1.9Z" fill="#10253F"/><path d="M10.03 12.21H9.9a1.04 1.04 0 0 0 0-.2l.13-.02a1.18 1.18 0 0 1 0 .22Zm-.05-.44-.12.04a1.02 1.02 0 0 0-.07-.19l.11-.06.08.21Zm-.2-.4-.1.09a1 1 0 0 0-.14-.14l.08-.1.16.16Zm-.34-.27-.06.1a.97.97 0 0 0-.18-.07l.04-.12c.07.02.14.05.2.09Zm-.42-.13v.12a.98.98 0 0 0-.2 0l-.02-.12a1.13 1.13 0 0 1 .22 0ZM8.6 11l.04.12a.97.97 0 0 0-.18.08l-.06-.11c.06-.04.13-.07.2-.09Zm-.39.21.08.1a1 1 0 0 0-.13.14l-.1-.08.15-.16Zm-.27.34.1.06-.07.19-.12-.04c.03-.07.05-.14.09-.2ZM7.8 12a1.17 1.17 0 0 0 0 .22h.12a1.05 1.05 0 0 1 0-.2l-.12-.02Zm.04.44.12-.03.08.18-.11.06a1.14 1.14 0 0 1-.09-.2Zm.21.4.1-.09.13.14-.08.1-.15-.16Zm.34.28.06-.12c.05.04.11.06.18.08l-.04.12a1.1 1.1 0 0 1-.2-.08Zm.41.13.02-.13a.98.98 0 0 0 .2 0v.13a1.1 1.1 0 0 1-.22 0Zm.44-.05-.04-.12a.97.97 0 0 0 .18-.08l.06.12a1.1 1.1 0 0 1-.2.08Zm.38-.2-.08-.1.14-.15.1.08-.16.16Zm.28-.35-.11-.06c.03-.06.06-.12.07-.18l.12.03-.08.2Z" fill="#FBFAFB"/><defs><linearGradient id="ad2m014du" x1="8.11" y1="4.25" x2="8.11" y2="8.94" gradientUnits="userSpaceOnUse"><stop stop-color="#B5B5B5"/><stop offset=".45" stop-color="#E7E7E7"/><stop offset="1" stop-color="#B5B5B5"/></linearGradient></defs></svg>