<!-- by TradingView --><svg width="18" height="18" viewBox="0 0 18 18" xmlns="http://www.w3.org/2000/svg"><path fill="#F0F3FA" d="M0 0h18v18H0z"/><path d="M2 11V7h1.58c.82 0 1.49.54 1.49 1.28 0 .8-.63 1.3-1.5 1.3H2.52V9h.95c.48 0 .82-.2.82-.69 0-.4-.36-.74-.83-.74H2.8V11H2ZM7.9 8.14a.55.55 0 0 0-.24-.4 1 1 0 0 0-.55-.14c-.16 0-.3.02-.4.06a.6.6 0 0 0-.27.18.42.42 0 0 0-.1.26c0 .08.03.15.07.21.04.06.1.11.17.16l.23.1.26.07.4.09c.15.03.3.08.45.14.15.06.28.13.4.22a.9.9 0 0 1 .38.76 1 1 0 0 1-.19.6c-.13.17-.3.3-.55.4-.23.1-.52.15-.86.15-.33 0-.61-.05-.85-.14-.24-.1-.43-.23-.57-.41-.13-.18-.2-.4-.22-.66h.76c0 .14.05.25.13.34.08.09.18.16.31.2.13.05.28.07.43.07.17 0 .32-.02.44-.07a.71.71 0 0 0 .3-.2c.07-.08.1-.17.1-.29 0-.1-.03-.18-.09-.25a.71.71 0 0 0-.27-.16 2.71 2.71 0 0 0-.4-.13l-.47-.1a2 2 0 0 1-.82-.38.83.83 0 0 1-.3-.67c0-.23.06-.43.2-.6.13-.18.32-.31.55-.4.23-.1.5-.15.8-.15.3 0 .55.05.78.14.23.1.4.23.53.4s.2.38.2.6h-.73ZM11.56 8.14a.55.55 0 0 0-.25-.4 1 1 0 0 0-.55-.14c-.16 0-.3.02-.4.06a.6.6 0 0 0-.27.18.42.42 0 0 0-.1.26c0 .08.03.15.07.21.04.06.1.11.17.16l.23.1.26.07.4.09c.15.03.3.08.45.14.15.06.28.13.4.22a.9.9 0 0 1 .38.76 1 1 0 0 1-.19.6c-.13.17-.3.3-.55.4-.23.1-.52.15-.86.15-.33 0-.61-.05-.85-.14-.24-.1-.43-.23-.57-.41-.13-.18-.2-.4-.22-.66h.75c.02.14.06.25.14.34.08.09.18.16.31.2.13.05.27.07.43.07.17 0 .32-.02.44-.07a.71.71 0 0 0 .3-.2c.07-.08.1-.17.1-.29 0-.1-.03-.18-.1-.25a.71.71 0 0 0-.26-.16 2.72 2.72 0 0 0-.4-.13l-.47-.1a2 2 0 0 1-.82-.38.83.83 0 0 1-.3-.67c0-.23.06-.43.2-.6.13-.18.32-.31.55-.4.23-.1.5-.15.8-.15.3 0 .55.05.78.14.23.1.4.23.53.4s.2.38.2.6h-.73ZM15.2 8.14a.55.55 0 0 0-.24-.4 1 1 0 0 0-.55-.14c-.16 0-.3.02-.4.06a.6.6 0 0 0-.27.18.42.42 0 0 0-.1.26c0 .08.03.15.07.21.04.06.1.11.16.16l.24.1.26.07.39.09c.16.03.31.08.46.14.15.06.28.13.4.22a.9.9 0 0 1 .38.76 1 1 0 0 1-.19.6c-.13.17-.3.3-.55.4-.23.1-.52.15-.86.15-.33 0-.61-.05-.85-.14-.24-.1-.43-.23-.57-.41-.13-.18-.2-.4-.22-.66h.75c.02.14.06.25.14.34.08.09.18.16.31.2.13.05.27.07.43.07.17 0 .32-.02.44-.07a.71.71 0 0 0 .3-.2c.07-.08.1-.17.1-.29 0-.1-.03-.18-.1-.25a.71.71 0 0 0-.26-.16 2.71 2.71 0 0 0-.4-.13L14 9.2a2 2 0 0 1-.83-.38.83.83 0 0 1-.3-.67c0-.23.07-.43.2-.6.14-.18.33-.31.56-.4.23-.1.5-.15.8-.15.3 0 .55.05.78.14.23.1.4.23.53.4s.2.38.2.6h-.73Z"/></svg>