<!-- by TradingView --><svg width="18" height="18" viewBox="0 0 18 18" xmlns="http://www.w3.org/2000/svg"><path fill="#F0F3FA" d="M0 0h18v18H0z"/><circle cx="8" cy="8" r="2" fill="#E8E700"/><path d="M9 10.98c1.36-.15 2.42-1.2 2.42-2.48S10.36 6.17 9 6.02L9.32 6C10.8 6 12 7.12 12 8.5S10.8 11 9.32 11c-.1 0-.21 0-.32-.02Z" fill="#7FFF00"/><path d="M9.31 11.43c1.74 0 3.14-1.57 3.14-3.5 0-.71-.19-1.38-.51-1.93A3.54 3.54 0 0 1 13 8.56c0 1.9-1.44 3.44-3.22 3.44A3.19 3.19 0 0 1 7 10.3a3 3 0 0 0 2.31 1.13Z" fill="#7FFF00"/><path d="M13.97 9.46c-.26 2-2.16 3.54-4.47 3.54-2.31 0-4.21-1.55-4.47-3.54-.02.15-.03.31-.03.47C5 12.18 7.01 14 9.5 14S14 12.18 14 9.93c0-.16-.01-.32-.03-.47Z" fill="#22CE03"/><path d="M5.87 13A4.98 4.98 0 0 1 4.6 9.67a5.2 5.2 0 0 1 5.3-5.1 5.4 5.4 0 0 1 3 .9A5.27 5.27 0 0 0 9.21 4 5.16 5.16 0 0 0 4 9.1c0 1.56.73 2.97 1.87 3.9Z" fill="#127C09"/></svg>