<!-- by TradingView --><svg width="18" height="18" viewBox="0 0 18 18" xmlns="http://www.w3.org/2000/svg"><path fill="#F0F3FA" d="M0 0h18v18H0z"/><path d="M2 7v5h7V7H2Zm3.67 3h-.44v1h-.87V8h1.3c.69 0 1.21.4 1.21.99 0 .6-.52 1.01-1.2 1.01Z"/><path d="M6.13 9c0 .23-.2.4-.5.4h-.42v-.8h.42c.3 0 .5.17.5.4Z"/><path d="M16 6v5H9V6h7Zm-5.25 1H10v1.96c0 .66.55 1.04 1.25 1.04s1.25-.38 1.25-1.04V7h-.75v1.9c0 .23-.11.43-.5.43-.38 0-.5-.2-.5-.44V7Zm3.51 0H13v3h.78V9h.48c.63 0 1.12-.35 1.12-.94S14.88 7 14.26 7Zm0 .66c.22 0 .39.18.39.4 0 .23-.17.4-.39.4h-.48v-.8h.48Z" fill="#1DCB89"/></svg>