<!-- by TradingView --><svg xmlns="http://www.w3.org/2000/svg" width="18" height="18" viewBox="0 0 18 18"><path fill="#F0F3FA" d="M0 0h18v18H0z"/><path fill-rule="evenodd" d="M15 9A6 6 0 1 1 3 9a6 6 0 0 1 12 0zm-2 0a4 4 0 1 1-8 0 4 4 0 0 1 8 0zM7.05 7.63H5.68l.18.62v2.2h.7v-.57h.49c.61 0 1.1-.5 1.1-1.13 0-.62-.49-1.12-1.1-1.12zm-.48.63v.99h.4c.22 0 .41-.22.41-.5 0-.27-.19-.49-.42-.49h-.4zm3.84-2.04H7.83L8 7h1.34l-1.7 5h2.82l-.23-.84H8.76l1.65-4.94zM10 7.76v1.55c0 .63.52 1.14 1.16 1.14h.15c.64 0 1.16-.51 1.16-1.14V7.63l-.7.13v1.57c0 .23-.32.41-.55.41-.23 0-.51-.18-.51-.41v-1.7l-.71.13z" fill="url(#aao5y4fqy)"/><defs><linearGradient id="aao5y4fqy" x1="3.29" y1="2.9" x2="11.56" y2="11.94" gradientUnits="userSpaceOnUse"><stop stop-color="#07C7EB"/><stop offset=".69" stop-color="#031D5B"/></linearGradient></defs></svg>