<!-- by TradingView --><svg width="18" height="18" viewBox="0 0 18 18" xmlns="http://www.w3.org/2000/svg"><path fill="#2F2F45" d="M0 0h18v18H0z"/><path d="M8.37 3.12a.42.42 0 0 0-.08.2c0 .05-.05.25-.1.46L7.8 5.12c-.2.75-.28 1-.31 1-.08 0-.6-.6-.6-.69 0-.1.23-.98.5-1.87.04-.15.06-.29.04-.31-.03-.03-.4.08-.48.15l-.44 1.56-.03.15-.5-.49-.48-.5-.17.13c-.1.06-.17.14-.17.16 0 .04 2.57 2.66 3.34 3.41.2.2.34.23.34.08 0-.05.04-.25.1-.44l.22-.78a113.44 113.44 0 0 1 .54-1.96l.24-.9c.2-.7.2-.7-.1-.73-.13-.01-.16.01-.22.2-.05.12-.12.35-.16.51a137.74 137.74 0 0 1-.8 2.96c-.09.41-.14.42-.46.09a1.43 1.43 0 0 1-.28-.35 38.76 38.76 0 0 1 .84-3.02c.04-.14.08-.3.08-.37 0-.1-.03-.12-.2-.1-.12 0-.22.05-.27.11Zm2.7.37c-.08.18-.23.7-.64 2.2a884.65 884.65 0 0 1-.7 2.57c.01.03.4-.05.85-.17a56.76 56.76 0 0 1 1.55-.39c.05-.02.22-.07.39-.1a11.9 11.9 0 0 0 2.16-.63.8.8 0 0 0-.08-.21c-.09-.17-.12-.17-.54-.05a33.64 33.64 0 0 1-1.84.48l-1.12.3c-.69.17-.7.17-.7.06.02-.2.2-.69.29-.74.05-.03.41-.13.8-.23a167 167 0 0 0 2.53-.66c.15-.04.15-.04 0-.25-.07-.1-.13-.18-.13-.2l-.3.07-1.15.31c-.48.12-.98.25-1.11.3-.45.12-.55.14-.55.06 0-.06.22-.8.25-.83 0-.02 1.6-.43 1.96-.51.13-.03.23-.07.23-.1 0-.08-.28-.32-.38-.32-.1 0-1.55.36-1.63.4-.07.05-.06-.02.04-.33.1-.33.25-.95.23-.96l-.2-.1c-.17-.1-.17-.09-.22.03ZM4.3 5.25l-.12.17.26.25c.96.97 2.66 2.76 2.66 2.8 0 .03-.17.1-.38.14-.46.1-.4.14-1.08-.57C3.8 6.14 3.78 6.1 3.68 6.2a.68.68 0 0 0-.12.2c-.03.13-.1.04 1.4 1.58.44.46.79.84.78.85-.07.06-.84.22-.91.18-.05-.02-.42-.4-.83-.83a5.05 5.05 0 0 0-.8-.74.77.77 0 0 0-.07.25c-.04.24-.05.22.84 1.14.18.19.3.35.28.36a9.1 9.1 0 0 1-.84.23c-.2.05-.38.11-.4.14-.02.03-.01.12 0 .2.05.21.12.21.93 0a42.84 42.84 0 0 1 2.1-.51 31 31 0 0 0 1.92-.48c.1-.03.03-.12-1.25-1.44l-1.65-1.7c-.3-.3-.56-.55-.59-.55-.03 0-.1.08-.17.16Zm8.98 3.19a576.97 576.97 0 0 0-3.1.77c-.1.02-.15.06-.14.1.01.07.91 1.01 2.9 3.04.57.6.68.64.8.37.07-.14.1-.1-1.3-1.55l-1.11-1.15-.46-.47.18-.07c.1-.04.3-.1.44-.11.24-.03.27-.02.4.12a74.4 74.4 0 0 0 2.37 2.39c.05 0 .22-.32.2-.38-.03-.05-.5-.56-1.44-1.52-.4-.41-.71-.76-.7-.79.02-.02.21-.09.44-.14l.41-.1.8.83c.45.46.83.82.85.8a.74.74 0 0 0 .06-.28l.03-.23-.57-.59c-.32-.32-.58-.6-.58-.63 0-.02.07-.05.15-.07l.4-.1c.13-.05.33-.1.44-.11.24-.04.28-.1.23-.33-.02-.13-.06-.18-.12-.18-.05 0-.77.17-1.58.38ZM8 9.78a121.83 121.83 0 0 0-1.33.35 36.72 36.72 0 0 0-1.9.48 44.62 44.62 0 0 0-1.23.32c-.13.03-.17.07-.17.16 0 .14.15.37.22.33.04-.03.46-.14 1.92-.51a58.09 58.09 0 0 0 1.85-.49c.13-.04.24-.05.26-.04.02.02 0 .15-.05.28-.05.14-.09.3-.09.35 0 .06-.04.13-.09.17-.04.04-.54.19-1.1.33a86.78 86.78 0 0 0-2.1.55c-.14.04-.26.1-.27.12 0 .04.04.13.11.2l.13.15.67-.16 2.33-.6c.1-.03.09.05-.04.54-.09.3-.12.35-.26.38-.24.05-1.65.43-1.88.5-.11.03-.2.07-.2.1 0 .01.08.1.19.17l.2.15.46-.12c.26-.06.58-.15.7-.19.13-.04.3-.08.4-.08h.15l-.07.23a37.39 37.39 0 0 0-.27.9c-.03.1-.01.13.16.2.1.04.21.06.24.05a.9.9 0 0 0 .1-.31l.17-.6.18-.63a395.12 395.12 0 0 1 .9-3.3c0-.04-.07-.04-.3.02Zm1.14.58a5183.87 5183.87 0 0 0-1.16 4.14c-.1.37-.07.46.19.44.2-.02.2-.02.3-.4a72.43 72.43 0 0 1 .6-2.2 59.38 59.38 0 0 1 .35-1.28c.01-.09.05-.15.08-.15.04 0 .19.13.34.3l.28.29-.1.36a21.84 21.84 0 0 0-.26.93l-.08.27c-.04.2-.2.8-.3 1.1l-.13.5-.08.34h.45l.1-.31a58.6 58.6 0 0 0 .39-1.39 15.08 15.08 0 0 0 .38-1.42c.05 0 .67.65.67.7l-.07.31a45 45 0 0 0-.5 1.75c-.03.17.05.19.33.05.16-.07.2-.12.27-.41.14-.58.3-1.19.35-1.26.02-.04.19.08.5.4.5.48.55.5.75.26.06-.07.05-.1-.09-.25-.34-.37-3.4-3.44-3.43-3.44-.02 0-.07.17-.13.37Z" fill="#CF7B30"/></svg>