<!-- by TradingView --><svg width="18" height="18" viewBox="0 0 18 18" xmlns="http://www.w3.org/2000/svg"><path fill="#D93B29" d="M0 0h18v18H0z"/><path d="M6.13 9.5 5 8.59V5h8.3l-.99 1H6.12v3.5ZM8.94 13.11 5 9.33v.76c0 .94 2.24 3.02 3 3.59.6.45.87 1.07.94 1.32v-1.89ZM9.5 9.91v.76c.19-.38 3.19-3.03 3.75-3.6.45-.45.69-1.57.75-2.07-.19.38-3.38 3.21-3.94 3.78A1.8 1.8 0 0 0 9.5 9.9ZM9.5 11.68V13c0-.76 2.25-2.29 3.19-3.23.75-.76.81-1.83.75-2.27-.2.57-2.44 2.48-3.19 3.04-.6.46-.75.95-.75 1.14Z" fill="#F7F7F7"/></svg>