<!-- by TradingView --><svg width="18" height="18" viewBox="0 0 18 18" xmlns="http://www.w3.org/2000/svg"><path fill="#F0F3FA" d="M0 0h18v18H0z"/><path d="M4.57 6.95a3.8 3.8 0 0 0-1.6 1.7l-.19-.68c.2-.52.73-1.26 1.72-1.87C5.49 5.5 6.95 5 9 5c2.11 0 3.57.6 4.52 1.28a5.18 5.18 0 0 1 1.35 1.4l.14.3-.2.66-.1-.2-.26-.37A7.43 7.43 0 0 0 9 5.63c-2.02 0-3.45.73-4.42 1.32Z" fill="#DB8157"/><path d="M2 11V9h.42c.13 0 .24.03.33.08a.5.5 0 0 1 .19.23c.04.1.06.2.06.32a.8.8 0 0 1-.06.32c-.04.1-.1.18-.19.23a.58.58 0 0 1-.33.09h-.25v-.22h.25a.4.4 0 0 0 .22-.05c.05-.04.1-.09.12-.15a.58.58 0 0 0 .04-.22.57.57 0 0 0-.04-.21.3.3 0 0 0-.12-.15.4.4 0 0 0-.23-.06h-.2V11H2ZM4.13 11V9h.21v.9h.89V9h.2v2h-.2v-.9h-.89v.9h-.2ZM8.14 10c0 .2-.04.38-.11.53a.84.84 0 0 1-.31.35.85.85 0 0 1-.46.12.85.85 0 0 1-.45-.12.84.84 0 0 1-.31-.35 1.17 1.17 0 0 1-.11-.53c0-.2.03-.38.11-.53a.84.84 0 0 1 .31-.35.85.85 0 0 1 .45-.12c.17 0 .32.04.46.12.13.08.23.2.3.35.08.15.12.32.12.53Zm-.23 0a.95.95 0 0 0-.09-.43.62.62 0 0 0-.23-.26.61.61 0 0 0-.33-.09.62.62 0 0 0-.32.09.63.63 0 0 0-.23.26.96.96 0 0 0-.09.43c0 .17.03.31.09.43.05.11.13.2.23.26s.2.09.32.09.23-.03.33-.09.17-.15.23-.26a.95.95 0 0 0 .09-.43ZM9 11V9h1.1v.21h-.88v.68h.8v.22h-.8v.68h.88V11H9ZM12.6 9v2l-1.25-1.42V11h-.22V9l1.24 1.45V9h.22ZM13.77 9v2h-.2V9h.2ZM14.89 9l.43.83h.01l.43-.83H16l-.52 1 .52 1h-.24l-.43-.82h-.01l-.43.82h-.24l.54-1-.54-1h.24Z"/></svg>