<!-- by TradingView --><svg xmlns="http://www.w3.org/2000/svg" width="18" height="18" viewBox="0 0 18 18"><path fill="#F0F3FA" d="M0 0h18v18H0z"/><path d="M8.29 5h1.4v1.54h-1.4V5zM4.97 7.24a2.12 2.12 0 0 1 1.83.01c1.29.68 1.4 2.64.15 3.43-.57.37-1.31.46-1.95.22-.19-.07-.34-.22-.51-.34V13H3V7h1.25l.08.7c.2-.16.4-.36.64-.46zm.22.66a.9.9 0 0 0-.7.9c0 .33-.02.7.11.93.34.57 1.21.58 1.59.05.2-.29.25-.59.2-.94-.03-.3-.16-.6-.4-.78a1 1 0 0 0-.8-.16zm8.3-.9h1.5l-1.51 2.04L15 11h-1.6l-.83-1.2-.87 1.2h-1.55l1.58-1.95L10.19 7h1.57l.9 1.36.83-1.36zm-5.2 0H9.7v4H8.3V7z"/><path d="M15 5v1.5c-1.56-.19-4.97-.6-5.12-.68C9.93 5.78 15 5 15 5z" fill="#ED1C24"/></svg>