<!-- by TradingView --><svg width="18" height="18" viewBox="0 0 18 18" xmlns="http://www.w3.org/2000/svg"><path fill="#F0F3FA" d="M0 0h18v18H0z"/><path d="M10.02 4.43c1.85-.12 2.14 1.16 2.14 1.16 1.46.35 1.2 1.85 1.2 1.85.75.6.36 1.5.36 1.5.79 1.23-.33 2.17-.33 2.17.16 1.41-1.1 1.54-1.1 1.54-.22 1.16-1.58.97-1.58.97-.96.63-1.78.22-1.78.22V4.06c.43-.2 1.09.37 1.09.37Z" fill="url(#a30ksersw)"/><path d="M7.84 4.5c-1.79-.1-2.08 1.16-2.08 1.16C4.36 6 4.63 7.5 4.63 7.5c-.72.6-.36 1.5-.36 1.5-.76 1.22.33 2.17.33 2.17-.17 1.4 1.06 1.53 1.06 1.53.23 1.16 1.52.97 1.52.97.92.63 1.75.13 1.75.13V4.03c-.5-.16-1.1.47-1.1.47Z" fill="url(#b30ksersw)"/><path d="M13.45 8.98c0 .13.1.22.23.22.07 0 .1 0 .14-.03 0 0-.04-.1-.14-.22l.07-.19h-.07c-.13 0-.23.1-.23.22ZM4.5 8.98c0 .13-.1.22-.23.22-.03 0-.07 0-.1-.03 0 0 .03-.1.1-.16-.07-.12-.07-.28-.07-.28h.07c.13.03.23.12.23.25ZM6.91 8c0 .13-.1.23-.23.23s-.23-.1-.23-.22c0-.13.1-.22.23-.22s.23.1.23.22ZM8 8.98c0 .13-.1.22-.23.22s-.23-.1-.23-.22c0-.13.1-.22.23-.22s.23.1.23.22ZM9.16 10.14c0 .13-.1.22-.23.22-.14 0-.23-.1-.23-.22s.1-.22.23-.22c.13-.03.23.1.23.22ZM4.83 7.29c.07.1.03.25-.07.31a.3.3 0 0 1-.23 0l.1-.1c-.03-.15 0-.34 0-.34.07 0 .17.06.2.13ZM8.07 4.46c0 .13-.1.22-.23.22-.1 0-.2-.06-.23-.18h.23c.06-.07.2-.16.2-.16 0 .03.03.06.03.12ZM8.4 6.31c0 .13-.1.22-.23.22-.14 0-.23-.09-.23-.22 0-.12.1-.22.23-.22s.23.1.23.22ZM6.32 11.08c0 .13-.1.22-.23.22-.14 0-.23-.1-.23-.22s.1-.22.23-.22c.13-.03.23.1.23.22ZM4.8 11.08c0 .13-.1.22-.23.22v-.1c-.13-.12-.23-.24-.23-.24.03-.07.1-.1.2-.1.16-.03.26.1.26.22ZM7.54 10.7c0 .13-.1.22-.23.22s-.23-.09-.23-.21c0-.13.1-.22.23-.22.13-.04.23.09.23.22ZM5.82 12.68c0 .1-.06.16-.13.19 0 0-.03-.06-.03-.16-.2-.03-.3-.1-.3-.1 0-.12.1-.18.23-.18.13.03.23.13.23.25ZM7.4 13.62c0 .06-.03.13-.06.19 0 0-.1-.03-.16-.1-.1.04-.2 0-.2 0l-.03-.09c0-.12.1-.22.23-.22s.23.1.23.22Z" fill="#F0F3FA"/><path d="m5.26 9.39-.03.1-.86-.42.06-.09.83.4ZM6.68 7.98l.03.1-1.25.15-.03-.13 1.25-.12Z" fill="#F0F3FA"/><path d="m5.4 8.07.06.1-1.1.84-.09-.1 1.12-.84ZM5.99 11.04l-1.26.02v.12L6 11.17v-.13ZM7.28 10.64l.06.1-1.22.4-.03-.12 1.19-.38Z" fill="#F0F3FA"/><path d="m8.9 10.08.03.12-1.59.57-.03-.13 1.58-.56ZM6.61 8.04l.07.1-1.16 1.25-.1-.06 1.2-1.3ZM8.93 7.95H6.68v.12h2.25v-.12Z" fill="#F0F3FA"/><path d="m9 8.04-.14.06-.76-1.72.1-.07.8 1.73ZM6.71 5.94l.1.06-1.38 2.13-.1-.06L6.7 5.94Z" fill="#F0F3FA"/><path d="m8.9 7.98-.07.1-2.05-1.92.1-.1 2.01 1.92ZM9.06 8l-.07-.09 2.08-1.85.07.1L9.06 8ZM6.65 6l.06.1-2.04 1.34-.04-.1L6.65 6ZM8.9 4.97l.06.09L6.78 6l-.03-.12 2.14-.91ZM5.37 8.03l-.03 1.5h.13l.03-1.5h-.13Z" fill="#F0F3FA"/><path d="m4.67 7.47.03-.12.76.72-.1.06-.7-.66ZM7.7 4.53l.14.06-1.13 1.5-.1-.06 1.1-1.5Z" fill="#F0F3FA"/><path d="m6.78 5.94-.07.12-.95-.44.06-.09.96.4ZM8.07 6.25l-.03.13-1.16-.29.03-.12 1.16.28ZM8.9 4.93l.13.07-.83 1.35-.1-.07.8-1.35Z" fill="#F0F3FA"/><path d="M8.9 6.44v.13l-.7-.2v-.12l.7.19ZM5.3 9.45l.1.06-.73 1.54-.14-.03.76-1.57ZM7.7 9.04l.14.03-.47 1.67-.13-.03.46-1.67ZM8.83 7.98l.1.1-1.13.96-.06-.1 1.09-.96Z" fill="#F0F3FA"/><path d="m7.3 10.64-.06.1L5.43 9.6l.06-.1 1.82 1.13ZM7.87 8.89l.03.09-2.5.53v-.1l2.47-.52Z" fill="#F0F3FA"/><path d="m6.12 11.05-.1.06-.66-1.44.1-.06.66 1.44ZM7.84 8.89l-.07.09-1.12-.94.1-.1 1.09.95Z" fill="#F0F3FA"/><path d="m6.65 6.09-.02 1.97h.13l.02-1.97h-.13ZM7.2 13.59l-.09.03-1.02-2.41.1-.03 1.02 2.41ZM8.86 13.62l-.1.06-1.48-2.91.1-.03 1.48 2.88Z" fill="#F0F3FA"/><path d="m9.03 13.65-.1.1-2.88-2.64.1-.06 2.88 2.6ZM10.71 13.53l-.1.06-1.82-2.1.1-.06 1.82 2.1Z" fill="#F0F3FA"/><path d="m7.24 13.65-.1-.06 1.69-2.2.1.07-1.69 2.2ZM5.66 12.68l-.1-.03.43-1.47.1.03-.43 1.47Z" fill="#F0F3FA"/><path d="m8.86 11.33-.03.13-1.4-.7.08-.09 1.35.66ZM7.74 8.98l.06-.06 1.23 1.19-.07.06-1.22-1.19ZM13.09 7.41c0 .13.1.22.23.22.07 0 .13-.03.17-.06 0 0-.07-.1-.17-.16.03-.12.03-.25.03-.25h-.03c-.13 0-.23.13-.23.25ZM10.97 8c0 .13.1.23.24.23.13 0 .23-.1.23-.22 0-.13-.1-.22-.23-.22-.14 0-.24.1-.24.22ZM8.66 5c0 .12.1.22.23.22.14 0 .23-.1.23-.22 0-.13-.1-.22-.23-.22s-.23.1-.23.22Z" fill="#F0F3FA"/><path d="M8.63 10.14c0 .13.1.22.23.22s.23-.1.23-.22-.1-.22-.23-.22c-.13-.03-.23.1-.23.22ZM12.3 8.1c0 .13.1.22.23.22s.23-.1.23-.22-.1-.22-.23-.22-.23.1-.23.22ZM11.9 5.6c0 .12.1.21.23.21.1 0 .2-.06.23-.15 0 0-.13-.07-.23-.07-.03-.12-.1-.22-.1-.22-.06.03-.13.1-.13.22ZM9.75 4.46c0 .13.1.22.23.22.14 0 .23-.09.23-.22v-.03h-.23c-.06-.06-.16-.12-.16-.12a.23.23 0 0 0-.07.15ZM9.42 6.31c0 .13.1.22.23.22.14 0 .23-.09.23-.22 0-.12-.1-.22-.23-.22s-.23.1-.23.22ZM11.57 11.08c0 .13.1.22.23.22s.23-.1.23-.22-.1-.22-.23-.22c-.13-.03-.23.1-.23.22ZM13.15 11.08c0 .13.1.22.24.22v-.19l.2-.19a.26.26 0 0 0-.17-.06c-.17-.03-.27.1-.27.22ZM10.31 10.7c0 .13.1.22.24.22.13 0 .23-.09.23-.21 0-.13-.1-.22-.23-.22-.14-.04-.24.09-.24.22ZM12.06 12.65c0 .1.07.19.17.22 0 0 .07-.1.07-.22.2-.03.26-.06.26-.06a.25.25 0 0 0-.23-.16c-.17 0-.27.1-.27.22ZM10.45 13.62c0 .03 0 .1.03.13 0 0 .13-.07.2-.13.1.03.23 0 .23 0 0-.12-.1-.22-.23-.22s-.23.1-.23.22ZM12.66 9.39l.07.1.89-.42-.07-.09-.89.4Z" fill="#F0F3FA"/><path d="m11.2 7.98-.03.1 1.33.15V8.1l-1.3-.12ZM12.7 8.07l-.1.1 1.05.78.07-.1-1.03-.78ZM11.95 11.03v.12l1.31.02v-.13l-1.31-.01ZM10.58 10.64l-.07.1 1.26.4.03-.12-1.22-.38Z" fill="#F0F3FA"/><path d="m8.9 10.08-.04.12 1.65.57.07-.13-1.69-.56ZM11.27 8.04l-.06.1 1.18 1.25.1-.06-1.22-1.3ZM11.2 7.95H8.87v.12h2.35v-.12Z" fill="#F0F3FA"/><path d="m8.8 8.04.13.06.79-1.72-.13-.07-.8 1.73ZM11.17 5.94l-.1.06 1.42 2.13.1-.06-1.42-2.13Z" fill="#F0F3FA"/><path d="m11.24 6-.07.1 2.12 1.34.03-.12L11.24 6ZM8.9 4.97l-.07.09 2.24.94.07-.12-2.25-.91ZM12.58 8.04h-.13l.03 1.5h.13l-.03-1.5Z" fill="#F0F3FA"/><path d="m13.32 7.44-.03-.1-.8.73.07.06.76-.69ZM10.12 4.5l-.1.09 1.15 1.5.1-.06-1.15-1.53Z" fill="#F0F3FA"/><path d="m11.1 5.94.07.12 1-.44-.07-.09-1 .4ZM9.75 6.25l.03.13 1.23-.29-.04-.12-1.22.28ZM8.9 4.93 8.75 5l.86 1.35.1-.07-.83-1.35Z" fill="#F0F3FA"/><path d="M8.9 6.44v.13l.75-.2-.03-.09-.73.16ZM12.66 9.45l-.1.06.76 1.54.1-.03-.76-1.57ZM10.12 9.04l-.1.03.46 1.67.13-.03-.5-1.67ZM8.96 7.98l-.1.1 1.16.96.1-.1-1.16-.96Z" fill="#F0F3FA"/><path d="m10.54 10.64.07.1L12.5 9.6l-.06-.1-1.89 1.13ZM9.95 8.89l-.03.09 2.6.53.04-.1-2.6-.52Z" fill="#F0F3FA"/><path d="m11.8 11.05.1.06.7-1.44-.14-.06-.66 1.44ZM9.98 8.89l.1.09 1.16-.94-.1-.1-1.16.95Z" fill="#F0F3FA"/><path d="M11.23 6.06h-.14l.03 1.98h.13l-.02-1.98ZM10.64 13.59l.17-.06 1.02-2.32-.13-.03-1.06 2.41ZM8.93 13.62l.1.06 1.55-2.91-.1-.03-1.55 2.88Z" fill="#F0F3FA"/><path d="m8.76 13.65.1.1 3-2.64-.1-.06-3 2.6Z" fill="#F0F3FA"/><path d="m12.23 12.62.1-.03-.43-1.48-.13.03.46 1.48ZM8.93 11.36v.13l1.48-.66-.06-.1-1.42.63ZM10.12 8.98l-.1-.06-1.26 1.19.07.06 1.29-1.19ZM8.83 4.06h.1l.03 1h-.1l-.03-1Z" fill="#F0F3FA"/><path d="M9.1 11.46c0 .12-.1.22-.24.22-.13 0-.23-.1-.23-.22 0-.13.1-.22.23-.22.13-.03.23.1.23.22Z" fill="#F0F3FA"/><defs><linearGradient id="a30ksersw" x1="8.35" y1="9.1" x2="13.85" y2="9.1" gradientUnits="userSpaceOnUse"><stop stop-color="#00B3AE"/><stop offset="1" stop-color="#0E6288"/></linearGradient><linearGradient id="b30ksersw" x1="9.17" y1="9.42" x2="4.07" y2="9.39" gradientUnits="userSpaceOnUse"><stop stop-color="#D8B942"/><stop offset=".34" stop-color="#8FAB42"/><stop offset=".65" stop-color="#53A042"/><stop offset=".88" stop-color="#2D9942"/><stop offset="1" stop-color="#1F9642"/></linearGradient></defs></svg>