<!-- by TradingView --><svg width="18" height="18" viewBox="0 0 18 18" xmlns="http://www.w3.org/2000/svg"><path fill="#F0F3FA" d="M0 0h18v18H0z"/><path d="M10.17 4H6v10.24L9 16v-4h1.5c2 0 3.5-1.3 3.5-3.94A3.79 3.79 0 0 0 10.17 4Z" fill="#FFCE07"/><path fill-rule="evenodd" d="M9 12h1.5c2 0 3.5-1.3 3.5-3.94A3.79 3.79 0 0 0 10.17 4H6v10.24L9 16v-4Zm-1 2.25V11h2.5c.78 0 1.38-.25 1.78-.67.4-.42.72-1.13.72-2.27 0-1.32-.5-2.04-1.04-2.45A3.1 3.1 0 0 0 10.17 5H7v8.66l1 .6Z" fill="#241B3A"/><path d="M8.5 6.5h1.7c.87 0 1.3.7 1.3 1.5s-.43 1.5-1.3 1.5H8.5v-3Zm1 1v1h.7c.29 0 .3-.24.3-.5s-.01-.5-.3-.5h-.7Z" fill="#241B3A"/></svg>