<!-- by TradingView --><svg width="18" height="18" viewBox="0 0 18 18" xmlns="http://www.w3.org/2000/svg"><path fill="#F0F3FA" d="M0 0h18v18H0z"/><path d="M3 12.41 4.19 5H15l-1.23 8a6.71 6.71 0 0 0-2.19-.53.29.29 0 0 0 .02-.09c0-.15-.1-.26-.24-.26H10.1l1.85-2.72c.12-.16.01-.4-.18-.4H9.84c-.12 0-.23.11-.23.25s.1.27.23.27h1.26l-1.85 2.72a.27.27 0 0 0-.04.22c-.75.05-1.38.15-1.95.25l-.3.05.18-.96c.12.09.41.11.54.11.77 0 1.64-.47 1.64-1.7C9.32 9.25 8.54 9 8.2 9h-.77c-.3 0-.57.23-.63.55l-.6 3.31c-.29.03-.57.05-.86.05a5.36 5.36 0 0 1-2.35-.5Zm4.26-1.36.23-1.27c0-.08.06-.25.32-.25h.36c.17 0 .5.12.46.6-.03.6-.18 1.15-.88 1.15h-.26c-.17 0-.23-.15-.23-.23Z" fill="#E70027"/></svg>