<!-- by TradingView --><svg width="18" height="18" viewBox="0 0 18 18" xmlns="http://www.w3.org/2000/svg"><path fill="#F0F3FA" d="M0 0h18v18H0z"/><path d="M5.19 7.22c-.4 0-.73.12-.97.36-.31.3-.46.77-.47 1.4 0 .61.16 1.09.48 1.42.24.26.56.42.96.42.41 0 .75-.16 1-.42.3-.3.45-.75.45-1.34 0-.45-.08-.84-.25-1.15a1.24 1.24 0 0 0-.5-.53 1.45 1.45 0 0 0-.7-.16Zm.55 3.71a2 2 0 0 0 1.62.98V12a3.43 3.43 0 0 1-3.51-1.41c-.26-.17-.47-.4-.63-.67C3.07 9.63 3 9.3 3 8.98c0-.57.22-1.04.65-1.42C4.1 7.2 4.61 7 5.23 7c.55-.01 1.1.19 1.52.57.2.16.37.38.48.63.11.25.17.52.16.79 0 .46-.15.9-.45 1.23-.32.35-.74.6-1.2.71Z" fill="#762123"/><path d="m11.2 7 .1 1.3h-.1c-.14-.38-.34-.66-.59-.84a1.56 1.56 0 0 0-.9-.25c-.28 0-.55.06-.8.2-.56.3-.72.98-.71 1.65-.03 1.1.73 1.7 1.6 1.69.27 0 .53-.05.77-.16.22-.1.46-.32.72-.63l.1.06c-.2.31-.46.57-.77.74-.34.17-.7.25-1.06.24-.99 0-2.18-.62-2.16-1.94C7.39 7.71 8.62 7 9.65 7c.33 0 .65.07.95.2.06.03.12.06.2.06.05 0 .1-.01.14-.05.06-.05.1-.13.13-.2h.12ZM12.58 8.94h.27c.42 0 .74-.08.96-.25a.78.78 0 0 0 .32-.63.83.83 0 0 0-.07-.34.74.74 0 0 0-.19-.27.99.99 0 0 0-.69-.24c-.17 0-.44.03-.6.07v1.66ZM16 11h-1.35l-1.52-1.87h-.55v1.17c0 .25.12.4.18.46.08.08.2.13.37.13h.17V11h-1.9v-.11h.16c.2 0 .33-.06.4-.17.05-.06.04-.2.04-.42V7.7c0-.25 0-.4-.06-.46-.08-.08-.2-.13-.38-.13h-.17V7h1.63c.48 0 .83.03 1.05.1.22.05.41.17.57.34a.8.8 0 0 1 .18.26.92.92 0 0 1-.01.68.83.83 0 0 1-.2.29c-.18.18-.46.3-.83.38l.93 1.15c.2.26.39.44.54.52.19.1.54.15.75.17V11Z" fill="#762123"/></svg>