<!-- by TradingView --><svg width="18" height="18" xmlns="http://www.w3.org/2000/svg"><path fill="#EC6923" d="M0 0h18v18H0z"/><path fill-rule="evenodd" d="M6 4.5a.5.5 0 01.5-.5h6a.5.5 0 010 1H10v4.758a.5.5 0 01.035.926l-.035.015v1.41a.5.5 0 11-1 0v-.959l-2.172.98a.5.5 0 01-.412-.911l.602-.272V5H6.5a.5.5 0 01-.5-.5zm2.018 5.996L9 10.053V9h-.982v1.496zM9 7v1h-.982V7H9zm0-2v1h-.982V5H9zM3.5 6a.5.5 0 000 1H4v1h-.5a.5.5 0 000 1H4v1h-.5a.5.5 0 000 1H4v1.5A1.5 1.5 0 005.5 14h7a.5.5 0 000-1h-7a.5.5 0 01-.5-.5V11h.5a.5.5 0 000-1H5V9h.5a.5.5 0 000-1H5V7h.5a.5.5 0 000-1H5V4.5a.5.5 0 00-1 0V6h-.5zm8.095-.01a.5.5 0 000 1h1.23l-.433 1.26-.338-.778a.5.5 0 00-.917.399l.774 1.78-.789 2.295a.5.5 0 00.946.325l.433-1.262.565 1.299a.5.5 0 10.917-.399l-1-2.301 1.014-2.956a.5.5 0 00-.473-.662h-1.929z" fill="#fff"/></svg>