<!-- by TradingView --><svg width="18" height="18" xmlns="http://www.w3.org/2000/svg"><path fill="#F6F8FD" d="M0 0h18v18H0z"/><ellipse cx="9" cy="9.002" rx="5" ry="4.996" fill="#F4CE29"/><path d="M7.97 4.945c-1.325-.078-2.555.682-2.985 1.085.61-.891 1.748-1.632 2.766-1.866 1.443-.373 2.921-.123 4.244.84a5.064 5.064 0 011.228 1.325c.1.224.128.737-.424.92a1.228 1.228 0 01-1.178-.228l-.877-.82c-.373-.386-1.45-1.178-2.775-1.256zM10.012 13.047c1.324.078 2.58-.67 3.009-1.075-.64.909-1.77 1.637-2.788 1.873-1.465.356-2.924.11-4.247-.857a5.08 5.08 0 01-1.227-1.332c-.1-.226-.129-.741.423-.925a1.224 1.224 0 011.179.23l.877.823c.373.388 1.45 1.184 2.774 1.263z" fill="#6CAC3C"/><path d="M8 6.612V8H6.522c-.205 0-.52.266-.522 1-.002.734.36 1 .522 1H8v1.43c0 .196.342.578 1.016.57.674-.009.98-.383.984-.57V10h1.457c.186 0 .543-.231.543-1 0-.777-.352-1.004-.543-1H10V6.612C10 6.4 9.717 6 9 6c-.716 0-1.004.408-1 .612z" fill="#6CAC3C"/></svg>