<!-- by TradingView --><svg width="18" height="18" viewBox="0 0 18 18" xmlns="http://www.w3.org/2000/svg"><path fill="#F0F3FA" d="M0 0h18v18H0z"/><path d="M9 9.5 6.59 8.33v2.45L9 12V9.5Z" fill="#1C4594"/><path d="M11.53 8.33 9 9.5V12l2.53-1.33V8.33Z" fill="#135BA8"/><path d="M9 9.5 6.59 8.33l2.47-1.16 2.47 1.16L9 9.5Z" fill="#228BD0"/><path d="M5.54 7.67 4 6.67v1.16l1 .61v1.47l-1 .59v1.67L9 15v-1.83l-3.46-1.8v-3.7Z" fill="#1C4594"/><path d="M9 15v-1.83l1.52.92L9 15ZM11.68 13.54l-1.55-.92 2.46-1.29V7.67l1.41-1v5.5l-2.32 1.37Z" fill="#135BA8"/><path d="m14 6.67-1.41 1.02-3.53-1.86L5.53 7.7 4 6.67 5 6l.88.67 1.77-1v-1L9.05 4 14 6.67Z" fill="#228BD0"/><path d="M6.24 6v-.93l.7-.37v.93l-.7.37Z" fill="#135BA8"/><path d="m6.24 5.07-.71-.37v.93l.7.37v-.93Z" fill="#1C4594"/><path d="m6.24 4.33-.71.37.7.37.71-.37-.7-.37Z" fill="#228BD0"/><path d="M3.76 10v-.93l.71-.37v.93l-.7.37Z" fill="#135BA8"/><path d="m3.76 9.07-.7-.37v.93l.7.37v-.93Z" fill="#1C4594"/><path d="m3.76 8.33-.7.37.7.37.71-.37-.7-.37Z" fill="#228BD0"/><path d="M2.7 8v-.93l.71-.37v.93l-.7.37Z" fill="#135BA8"/><path d="M2.7 7.07 2 6.7v.93l.7.37v-.93Z" fill="#1C4594"/><path d="M2.7 6.33 2 6.7l.7.37.71-.37-.7-.37Z" fill="#228BD0"/><path d="M4.12 6v-.93l.7-.37v.93l-.7.37Z" fill="#135BA8"/><path d="m4.12 5.07-.7-.37v.93l.7.37v-.93Z" fill="#1C4594"/><path d="m4.12 4.33-.7.37.7.37.7-.37-.7-.37Z" fill="#228BD0"/></svg>