<!-- by TradingView --><svg width="18" height="18" xmlns="http://www.w3.org/2000/svg"><path fill="#ED2E26" d="M0 0h18v18H0z"/><path d="M9 4c3.255 0 4.892 1.61 4.892 1.61s.188 1.19.068 3.59C13.78 12.823 9 15 9 15s-4.78-2.177-4.96-5.8c-.12-2.4.068-3.59.068-3.59S5.743 4 8.999 4z" fill="#fff"/><path d="M6.557 8.588c0-1.332 1.096-2.416 2.444-2.416a2.5 2.5 0 011.729.689c.458.44.716 1.038.717 1.66 0 1.035-.926 1.886-1.64 2.323.278.152.888.31 1.473.362a3.423 3.423 0 001.012-1.188c.239-.466.363-.978.363-1.496a3.388 3.388 0 00-.275-1.347 3.504 3.504 0 00-.791-1.143 3.668 3.668 0 00-1.187-.764 3.785 3.785 0 00-2.802 0 3.667 3.667 0 00-1.187.764c-.34.327-.609.716-.792 1.143a3.39 3.39 0 00-.274 1.347c0 1.168.506 2.207 1.465 3.002.896.744 2.207 1.24 3.7 1.476.323-.172.876-.678 1.083-.975-1.246-.154-2.426-.446-3.217-.845-1.208-.609-1.821-1.48-1.821-2.592z" fill="#ED2E26"/></svg>