<!-- by TradingView --><svg width="18" height="18" viewBox="0 0 18 18" xmlns="http://www.w3.org/2000/svg"><path fill="#F0F3FA" d="M0 0h18v18H0z"/><path d="M8.55 11h1.32l.93 1.23.44.6L12.7 15h-1.37l-.98-1.45-.34-.52L8.55 11ZM13 9.12c0 2.63-1.46 4.79-4 4.79-2.59 0-4-2.16-4-4.79 0-1.06.17-1.98.52-2.74.35-.77.82-1.35 1.42-1.76C7.54 4.2 8.24 4 9 4c.77 0 1.45.2 2.05.62.6.4 1.08 1 1.43 1.76.35.76.52 1.68.52 2.74Zm-1.33 0c0-.81-.11-1.5-.35-2.05a2.82 2.82 0 0 0-.95-1.26c-.4-.3-.86-.44-1.37-.44-.5 0-.97.15-1.37.44-.4.28-.72.7-.95 1.26a5.34 5.34 0 0 0-.35 2.05c0 1.8.8 3.41 2.67 3.41 1.87 0 2.67-1.22 2.67-3.41Z"/></svg>