<!-- by TradingView --><svg width="18" height="18" xmlns="http://www.w3.org/2000/svg"><path fill="#08090D" d="M0 0h18v18H0z"/><path d="M9.129 11.07c1.58-.01 2.857.756 3.72 2.07a.978.978 0 01.092.167c.22.507-.032 1.09-.564 1.3-.48.19-1.024.011-1.287-.4-.476-.732-1.083-1.159-1.961-1.146h-.533C6.055 13.043 4 11.07 4 8.64v-.244C4 5.953 6.04 4 8.595 4 11.152 4 13 5.953 13 8.396v1.28c0 .548-.424.999-1 .999-.575 0-1-.45-1-1v-1.28c0-1.343-.999-2.431-2.405-2.431C7.19 5.964 6 7.052 6 8.396v.244c0 1.332 1.206 2.414 2.598 2.43h.53z" fill="#fff"/></svg>