<!-- by TradingView --><svg width="18" height="18" xmlns="http://www.w3.org/2000/svg"><path fill="#35AF5D" d="M0 0h18v18H0z"/><path d="M3.997 5.177c0-.652.48-1.18 1.074-1.18h7.854c.594 0 1.075.528 1.075 1.18v7.642c0 .652-.481 1.18-1.075 1.18H5.071c-.593 0-1.074-.528-1.074-1.18V5.177z" fill="#fff"/><path fill="#fff" d="M12.105 11.106H14V14h-1.895z"/><path d="M11 11c0-1.95-1.333-2.114-2-1.953V11h2z" fill="#F6B237"/><path d="M8 6V5c.724-.12.955.23 1 .406V6A.949.949 0 0110 7H9v.521c.903 0 1.067.676 1 .953H9v3.523c2.168.004 1.947.01 2.461 0 .515-.01.567.724.53 1.002H8.71c-.582 0-1.624-.213-1.733-.308 0 .337-.667.33-.978.285V9.51c0-.53.69-.57 1-.51v2.57c0 .332.877.424 1 .428V8.475c-.046.017-.242.04-.762 0s-.558-.692-.512-.953H8v-.52a8.043 8.043 0 01-.762 0c-.52-.014-.558-.73-.512-1.002H8z" fill="#35AF5D"/></svg>