<!-- by TradingView --><svg width="18" height="18" viewBox="0 0 18 18" xmlns="http://www.w3.org/2000/svg"><path fill="#F0F3FA" d="M0 0h18v18H0z"/><path d="M8.67 6.83c0 1.02-.87 1.84-1.84 1.84-.97 0-2-1-2-2 0-1.02 1.03-1.84 2-1.84s1.84 1 1.84 2Z" fill="#2C9ECE"/><path d="M13.17 6.83c0 1.02-.87 1.84-1.84 1.84-.97 0-2-1-2-2 0-1.02 1.03-1.84 2-1.84s1.84 1 1.84 2Z" fill="#FFE203"/><path d="M8.67 11.42c0 1.06-.9 1.91-1.92 1.91-1 0-2.08-1.03-2.08-2.08 0-1.06 1.07-1.92 2.08-1.92s1.92 1.03 1.92 2.09Z" fill="#E32639"/><path fill-rule="evenodd" d="M8.65 13.12c.13-.15.25-.32.35-.5A2.67 2.67 0 0 0 13.98 11h-2.31l-.67.67h1.97a1.67 1.67 0 1 1-.1-1h1.05A2.67 2.67 0 0 0 12.62 9a2.67 2.67 0 1 0-2.66-4.62L9.66 4h-1l.7.88c-.14.15-.26.32-.36.5A2.67 2.67 0 0 0 4.02 7h2.31L7 6.33H5.03a1.67 1.67 0 1 1 .1 1H4.09c.19.72.66 1.32 1.3 1.67a2.67 2.67 0 1 0 2.66 4.62l.3.38h1l-.7-.88Zm1.33-7.43a1.67 1.67 0 1 0 .6-.51L12 7h-1L9.98 5.7Zm-1.96 6.62a1.67 1.67 0 1 0-.6.51L6 11h1l1.02 1.3Z" fill="#181B1E"/></svg>