<!-- by TradingView --><svg xmlns="http://www.w3.org/2000/svg" width="18" height="18" viewBox="0 0 18 18"><path fill="url(#adnnjjoee)" d="M0 0h18v18H0z"/><path d="M3.9 7C2.85 7 2 7.83 2 8.84v.32C2 10.17 2.85 11 3.9 11H8.6c.09 0 .13-.1.06-.16L6.9 9.46H5.15c-.06 0-.09.07-.04.1l.56.44H4.34c-.59 0-1.07-.45-1.07-1s.48-1 1.07-1h1.68c.6 0 1.07.45 1.07 1v.12l1.07.87c.13-.25.2-.53.2-.83v-.32C8.36 7.83 7.51 7 6.46 7H3.9zM14 7h-3.4c-1.06 0-1.92.83-1.92 1.84v.32c0 1.01.86 1.84 1.92 1.84H14v-1h-2.98c-.59 0-1.07-.45-1.07-1s.48-1 1.07-1H14V7zm.3 0h1.3v1h-1.3V7zm0 1.5h1.3V11h-1.3V8.5z" fill="#fff"/><defs><linearGradient id="adnnjjoee" x1="3.35" y1="3.12" x2="21.9" y2="24.43" gradientUnits="userSpaceOnUse"><stop stop-color="#1A1E21"/><stop offset="1" stop-color="#06060A"/></linearGradient></defs></svg>