<!-- by TradingView --><svg width="18" height="18" viewBox="0 0 18 18" xmlns="http://www.w3.org/2000/svg"><path fill="#F0F3FA" d="M0 0h18v18H0z"/><path d="M6.3 8.76C5.26 7.76 5 5.9 5 5c1.3.18 2.78.9 3.7 1.8.93.89.56 2.14.19 2.5-.3.28-1.3.72-2.6-.54Z" fill="url(#a)"/><path d="M10.15 7.55c1.4-.31 3.1.49 3.85.98a7.06 7.06 0 0 1-3.5 2.1c-1.25.28-2.1-.71-2.2-1.22-.07-.4.1-1.46 1.85-1.86Z" fill="url(#b)"/><path d="M9.26 7.87c.1.63-.14 1.2-.37 1.43-.1.1-.29.21-.54.27a.85.85 0 0 1-.05-.16c-.06-.31.04-1.05.96-1.54Z" fill="#53BCAE"/><path d="M9.43 10.95c-.42 1.43-1.93 2.6-2.72 3.05a7.67 7.67 0 0 1-.04-4.21C7.05 8.5 8.31 8.2 8.78 8.36c.37.12 1.19.8.65 2.59Z" fill="url(#c)"/><path d="m8.66 8.34.12.02c.35.11 1.07.7.75 2.23-.7-.22-1.16-.82-1.23-1.18-.04-.22 0-.66.36-1.07Z" fill="#AD6892"/><path d="M6.92 9.25c.51-.82 1.46-1.01 1.86-.89.12.04.28.14.43.3-.07.29-.2.52-.32.64-.25.24-.98.58-1.97-.05Z" fill="#64A5C1"/><defs><linearGradient id="a" x1="5.26" y1="6.77" x2="9.35" y2="8.21" gradientUnits="userSpaceOnUse"><stop stop-color="#0B9AB5"/><stop offset="1" stop-color="#07BFDB"/></linearGradient><linearGradient id="b" x1="11.65" y1="8.01" x2="9.53" y2="9.85" gradientUnits="userSpaceOnUse"><stop stop-color="#76AE02"/><stop offset="1" stop-color="#97D301"/></linearGradient><linearGradient id="c" x1="7.4" y1="13.33" x2="9.16" y2="8.72" gradientUnits="userSpaceOnUse"><stop stop-color="#900E65"/><stop offset="1" stop-color="#B21981"/></linearGradient></defs></svg>