<!-- by TradingView --><svg width="18" height="18" xmlns="http://www.w3.org/2000/svg"><path fill="#FEF200" d="M0 0h18v18H0z"/><circle cx="9" cy="9" r="9" fill="#FFF200"/><path d="M8.778 3.214s-.007.07-.023.11c-.016.039-.057.064-.054.09.003.024.03.054.07.075.041.021.057.037.099.048.038.01.087.037.101.005.014-.032-.007-.072-.03-.11-.041-.067-.062-.083-.122-.174-.012-.02-.022-.041-.04-.044z" fill="#000"/><path d="M8.474 10.395c.004-.012.1.048.15.077.105.063.152.1.245.17.074.055.11.084.183.147.09.078.14.144.164.13.035-.043-.058-.166-.14-.233-.08-.066-.163-.12-.227-.161-.082-.055-.09-.067-.212-.15-.132-.088-.246-.198-.246-.198l-.128-.1-.201-.17-.224-.205-.168-.187s-.132-.16-.153-.19a6.677 6.677 0 01-.134-.214 2.8 2.8 0 00-.142-.202c-.047-.057-.156-.034-.283-.108-.154-.09-.191-.173-.191-.173s-.006-.013-.012-.02a.12.12 0 00-.017-.014l-.08-.056-.047-.03s-.035-.03-.079-.048c-.044-.02-.142-.076-.142-.076l-.176-.112s-.07-.055-.092-.074c-.023-.017-.067-.042-.067-.042s-.027-.014-.036-.015l-.045-.004s-.034-.008-.068.032c-.035.04-.026.019.03.247.022.09.02.406.044.502.03.124.117.284.126.303a.472.472 0 01.015.088s-.003.056.003.091c.026.163.266.056.32.28.051.221-.032.442-.032.442s-.052.11-.125.127c-.072.017-.185-.144-.267-.273-.08-.128-.146-.296-.167-.349-.022-.053-.033-.065-.057-.104-.036-.057-.065-.047-.106-.137-.04-.091-.004-.128-.022-.207-.01-.043-.02-.048-.034-.111-.014-.062-.031-.261-.031-.261l-.026-.185s-.009-.084-.02-.137c-.04-.185-.055-.364-.055-.364l-.008-.073-.002-.076s-.003-.037.006-.074a.283.283 0 01.027-.069s.038-.062.044-.078c.007-.015.083-.103.083-.103s.04-.034.106-.073c.065-.04.124-.037.124-.037s.017-.002.133.012c.117.015.355.078.415.093.06.016.13.041.177.067.133.072.173.041.067-.041-.07-.056-.09-.08-.148-.132-.048-.045-.086-.074-.122-.115a3.706 3.706 0 01-.14-.193L6.2 7.135s-.034-.039-.04-.042l-.022-.016s-.043.002-.087-.006c-.044-.01-.065.053-.065.053s-.096.177-.193.286c-.157.176-.27.296-.328.39-.08.13-.063.273-.105.34-.024.038-.037.043-.05.077-.041.103.107.159.073.272-.054.18-.477.358-.534.329-.058-.031-.01-.274.01-.353.02-.08.079-.196.084-.202a.16.16 0 00.024-.056c.005-.024.006-.076.01-.105.002-.03.014-.076.014-.076s.002-.01.039-.091c.038-.081.176-.27.274-.451.065-.118.092-.19.158-.307.06-.109.162-.274.162-.274s.044-.084.064-.116c.02-.032.064-.092.105-.152.04-.06.05-.105.104-.154a.309.309 0 01.132-.082c.086-.028.145-.013.233.012a.546.546 0 01.213.115c.06.05.104.105.104.105l.03.042.017.011.055.035.127.084.317.215c.016.01.07.054.08.058.012.003.092-.084.25-.191.18-.126.245-.116.305-.15.06-.032.084-.059.13-.105.071-.07.072-.108.152-.206a.958.958 0 01.156-.153l.154-.173a1.57 1.57 0 00.207-.282l.079-.157s.114-.244.15-.34c.037-.098.037-.13.037-.13s.006-.025-.022-.074c-.029-.05-.058-.027-.112-.016-.105.022-.168-.005-.274-.023-.096-.016-.147-.045-.244-.061-.098-.016-.155-.033-.253-.023a.377.377 0 00-.06.013c-.056.018-.071.022-.112.046a.29.29 0 01-.132.03c-.037.002-.06.003-.093-.01a.153.153 0 01-.08-.062c-.002-.01-.005-.01.005-.027s.022-.02.022-.02l.045-.01.07-.019c.005-.001.066-.02.092-.03.027-.008.056-.023.056-.023s.017-.026.01-.04c-.007-.018-.043-.02-.043-.02s-.05.02-.057.02l-.086.027-.112.026c-.05.01-.12.016-.12.016l-.02-.005s-.025-.016-.029-.033a.533.533 0 01-.008-.043c-.01-.062-.023-.1-.008-.16a.375.375 0 01.05-.113l.04-.065.072-.107a.288.288 0 01.074-.056.293.293 0 01.132-.04c.057-.006.065-.006.146-.024.082-.018.14-.05.14-.05s.195-.072.313-.13c.125-.06.18-.125.308-.176.054-.02.086-.03.142-.045a.026.026 0 00.013-.017c.006-.02-.026-.03-.048-.028-.02.002-.064.022-.074 0-.007-.017.041-.027.041-.027s.023-.01.023-.023c0-.02-.032-.007-.047-.009-.076-.008-.082-.022-.134-.034-.062-.016-.095-.035-.16-.037a.541.541 0 00-.144.018c-.035.009-.036-.026-.022-.033.099-.045.1-.05.17-.052a.396.396 0 01.098.009c.006.003.083 0 .102-.02.02-.02-.063-.019-.102-.034-.036-.015-.09-.019-.09-.042.002-.024.029-.011.048-.016.024-.006.038-.005.062-.008.044-.006.048-.01.113-.016.064-.006.157.021.157.021s.097.043.145.066a.55.55 0 00.105.034s.068.01.12-.023c.052-.032.023-.053.004-.082-.018-.028-.04-.068-.007-.143.03-.066.045-.143.054-.15.01-.009.051.05.078.075.095.088.22.132.34.317.009.015.053-.008.19.013.138.02.259.168.29.203.03.035.071.033.071.033l.066.01.24.003s.11-.02.173.005c.044.016.19.114.123.15-.046.027-.09-.03-.133-.033-.05-.003-.071.006-.116.017-.093.023-.293.084-.22.108l.015.004.036.006s.088.02.141.04c.08.032.118.067.192.11.042.025.06.05.107.063.042.012.07 0 .113.007.057.01.089.022.14.047.078.037.107.081.176.131.035.025.064.03.09.063.006.007.011.012.014.02.009.031-.051.013-.083.008-.036-.006-.05-.023-.083-.038-.048-.023-.07-.048-.123-.057-.038-.007-.061-.002-.1 0-.038.002-.058.008-.096.008a.635.635 0 01-.165-.018c-.07-.014-.106-.042-.177-.057-.08-.016-.22-.084-.207-.016.007.033.082.06.082.06s.052.028.1.05a.222.222 0 01.076.053l.034.024s.035.048.08.102c.045.053.124.051.124.051s.048 0 .15.021a.79.79 0 01.21.084s.079.055.126.11c.046.055.02.082.013.088-.005.006-.003.003-.01.006-.005.003-.063-.07-.063-.07l-.04-.034s-.04-.028-.093-.045c-.052-.016-.07-.005-.07-.005s-.11.03-.207.028c-.095-.003-.145-.041-.145-.041l-.06-.04s-.092-.086-.095-.045c-.002.027.04.057.04.057l.049.048c.037.036.052.054.094.092.043.038.069.038.069.038l.031.007c.009.001.024.006.024.006l.08.032a.652.652 0 01.137.084s.006.005.016.007c.01.001.03.01.035.012.006.002.023.002.06.007.04.006.025.03.025.03l-.007.01-.031.02s-.041.012-.069.013c-.028.002-.068-.014-.068-.014l-.085-.031s-.087-.023-.105-.026a3.988 3.988 0 01-.108-.02.4.4 0 01-.062-.024c-.01-.005-.03-.01-.076-.032s-.064-.049-.122-.067c-.058-.018-.093-.022-.137.008-.074.051.113.06.207.106.137.068.215.117.248.19.033.074.066.1.066.1s.097.049.14.1c.024.027.027.05.051.078.053.062.156.058.177.111.02.05-.083.027-.137.022-.097-.01-.12-.097-.21-.133-.051-.02-.084-.02-.136-.038-.095-.031-.14-.072-.234-.101-.058-.018-.162-.093-.149-.035.002.014.011.025.015.033.005.009.029.04.029.04s.032.041.046.053c.014.011.075.057.163.105.087.047.163.139.163.139s.026.037.038.063c.013.029.004.038.025.078.019.04.028.049.054.073.064.062.131.05.213.083.022.01.023.012.047.038.024.025-.004.036-.004.036s-.09.023-.15.018c-.075-.006-.11-.029-.183-.066-.075-.036-.114-.102-.122-.106-.006-.004-.025-.024-.039-.034-.014-.01-.05-.017-.083-.026-.033-.01-.051-.01-.084-.02-.045-.012-.092-.032-.113-.039-.021-.007-.07-.016-.105.005-.07.042.11.07.165.13.03.03.041.05.068.082.021.024.03.041.055.06a.32.32 0 00.05.027s.043.02.106.055a.597.597 0 01.138.133l.045.069.027.039.007.018.01.022s.032.042.056.056c.024.014.02.027.02.027s-.003.009-.02.018c-.016.01-.026.002-.05-.005-.023-.007-.039-.03-.06-.046-.021-.018-.044-.06-.083-.083-.034-.02-.078-.028-.096-.034-.016-.006-.059-.032-.076-.04l-.06-.026s-.084-.047-.131-.06c-.047-.013-.017.016-.017.016s.042.065.082.09c.052.035.125.065.101.093-.016.018-.037.012-.061.009-.04-.005-.087-.051-.087-.051s-.02-.013-.107-.04c-.086-.029-.054.019-.034.044.02.025.046.04.046.04l.06.026.026.008.103.023a.297.297 0 01.122.056s.042.04.1.082a.32.32 0 00.152.06c.032.004.03.026.03.026s.005.021.003.028a.016.016 0 01-.015.013c-.007 0-.01.002-.018.007a.27.27 0 01-.043.01s-.088-.003-.157-.02c-.068-.017-.13-.064-.136-.067-.005-.003-.07-.038-.114-.052a.296.296 0 00-.119-.006c-.007.003-.03.007-.072.019-.04.01.01.026.01.026l.03.003.07.005s.073.009.134.031c.061.023.101.067.142.108.04.04.086.067.086.067l.032.021.017.013.005.011-.005.013c-.002.007-.013.012-.013.012l-.021-.002c-.008 0-.054-.025-.088-.04-.036-.015-.054-.03-.091-.039a.279.279 0 00-.086-.008c-.01.003-.082.013-.137.016a.786.786 0 01-.168-.002c-.093-.011-.216-.084-.232-.064-.032.043.066.055.114.082.065.038.178.071.178.071s.082.019.13.041c.106.05.138.122.223.198a.247.247 0 00.148.07c.054.008.053.001.139-.015.086-.017.138-.099.163-.069.005.006.003.011.002.02-.002.008-.01.023-.01.023s-.009.014-.024.03a.502.502 0 01-.106.06.531.531 0 01-.202.03c-.096-.002-.23-.075-.23-.075l-.097-.04s-.044-.021-.075-.033c-.08-.03-.13-.027-.213-.049-.051-.014-.085-.028-.131-.037-.047-.01-.02.008-.016.014.022.03.051.04.088.056.049.024.083.02.133.04.056.023.105.054.136.074.03.02.053.042.083.073l.102.087s.024.02.027.028c.002.008.014.03.008.063-.005.034-.033.01-.033.01l-.027-.017-.027-.025-.043-.035s-.037-.034-.1-.066a.45.45 0 00-.14-.04s-.067-.01-.065.01c.004.021.019.023.072.037.054.014.089.04.089.04s.055.041.094.086c.04.045.05.089.05.089s.02.036.071.085c.05.05.077.032.075.056-.003.024-.025.028-.025.028l-.019-.001c-.005 0-.018-.007-.032-.013-.014-.005-.068-.042-.068-.042l-.092-.074-.09-.066s-.046-.03-.08-.046a.997.997 0 00-.104-.043c-.025-.008-.071-.01-.071-.01s-.056-.009-.09-.021c-.054-.021-.117-.078-.124-.08a.327.327 0 00-.067-.019.434.434 0 00-.038.15c-.023.227.038.378.133.587.136.303.515.68.515.68s.095.053.136.085c.113.089.3.214.467.38.142.141.331.393.331.393s.11.152.16.259c.062.132.112.333.112.333s.005.034.008.042c.004.007.014.016.02.016l.067.002a.841.841 0 00.132-.017c.049-.013.166-.066.244-.107.077-.04.17-.119.17-.119s.018-.015.108-.115c.091-.1.15-.252.172-.309a1.41 1.41 0 00.053-.35c.014-.188-.012-.384-.012-.384s-.034-.275-.055-.368c-.02-.093-.07-.246-.07-.246s-.035-.135-.046-.22c-.011-.087-.013-.226-.013-.226s0-.085.028-.243a1.09 1.09 0 01.125-.315s.027-.054.132-.178c.106-.127.14-.147.246-.223.083-.06.191-.156.227-.133.039.024-.038.073-.064.098-.066.065-.189.18-.288.352-.087.15-.12.248-.14.346-.023.097-.013.204-.01.24.003.037.023.024.023.024s.21-.169.325-.297c.124-.138.235-.384.278-.386.03-.002.043.064.036.094-.027.128-.036.144-.078.229-.048.097-.092.14-.158.23-.07.094-.104.13-.16.254-.08.18-.033.318-.033.318s.01.084.047.083c.064-.002.203-.178.294-.321.068-.105.092-.227.136-.29.04-.057.075.091.058.179-.02.104-.072.197-.185.345-.11.143-.107.28-.107.28s-.012.062-.021.199c-.009.135.03.341.03.341s.035.172.042.303c.007.131.002.43-.12.661-.05.093-.154.222-.154.222s-.081.082-.147.13c-.067.049-.226.124-.226.124s-.11.037-.125.04c-.016.005-.026.019-.026.019l.014.03.035.084s.033.107.046.191c.012.085-.003.105-.015.17-.011.062-.039.033-.046.155-.006.108.043.162.034.283-.003.053-.063-.067-.093-.117-.062-.11-.047-.28-.048-.322a.56.56 0 00-.02-.142.479.479 0 00-.08-.165c-.033-.042-.067-.065-.079-.06-.011.003-.012.025-.012.036 0 .012.022.052.027.06.006.008.047.082.047.082a.8.8 0 00.025.17c.007.11-.027.247-.027.247s-.045.154-.092.244c-.052.1-.167.236-.167.236s-.083.076-.146.2c-.06.125-.008.179-.031.195-.024.016-.073-.072-.086-.13-.012-.056-.006-.082.016-.143.022-.06.072-.146.072-.146l.074-.126s.09-.17.118-.295c.028-.123-.004-.26-.004-.26s-.004-.046-.035-.043c-.031.001-.053.028-.066.061-.026.068.01.056-.028.17-.03.088-.04.077-.056.13a.586.586 0 00-.028.167c.001.039-.02.023-.02.023s-.039-.07-.039-.158c0-.048.003-.075.008-.122.009-.076.04-.193.04-.193s.034-.115.027-.22c-.008-.106-.045-.125-.045-.125s-.01-.014-.051-.012c-.04.003-.039.076-.039.076s-.012.104-.028.17a1.122 1.122 0 01-.212.423 1.87 1.87 0 01-.293.312c-.065.057-.266.203-.266.203l-.235.156s-.093.09-.136.199a.429.429 0 00-.016.29c.025.1.06.145.08.173.018.027.055.076.066.133.008.035.003.056.005.092.002.031.006.049.005.08 0 .05.008.085-.02.126-.021.03-.077.058-.077.058s-.064.028-.102.051c-.4.24-.543.397-.769.665-.071.086-.019.08-.095.182-.046.06-.154.06-.192.133-.054.099.121.196-.081.283-.262.112-.711.032-.72-.003-.024-.096.088-.208.128-.252.183-.199.346-.204.406-.369.013-.035.008-.065.153-.172.103-.076.511-.382.69-.586.06-.07.113-.117.14-.193.027-.076-.027-.125-.027-.125l-.073-.118-.14-.25s-.06-.133-.091-.21a4.008 4.008 0 01-.095-.283s-.045-.186-.052-.307c-.014-.218.016-.344.073-.555.075-.273.243-.388.31-.659.02-.079.024-.214-.016-.208-.038.007-.04.114-.07.185-.109.27-.252.387-.33.666-.053.189-.075.3-.074.496 0 .112-.004.091.025.285.011.072.028.11.05.18.015.05.055.143.055.143s.056.122.076.208c.006.03.013.046.011.076-.004.052.006.062-.02.109-.03.058-.011.092-.11.113-.088.019-.267-.04-.267-.04s-.738-.222-1.21-.158c-.093.012-.143.046-.237.045-.085-.001-.129-.068-.214-.042-.018.005-.023.017-.039.027-.124.087-.029.23-.358.156-.202-.046-.446-.17-.404-.247.057-.102.133-.119.293-.184.17-.07.426-.05.477-.053.061-.005.15-.048.26-.05.19-.004.224.019.224.019l.323.028.619.008s.11-.008.155-.017c.044-.008.08-.095.103-.137.024-.041 0-.102 0-.102l-.019-.028-.059-.095-.109-.182-.12-.24s-.08-.167-.121-.277c-.042-.11-.066-.17-.094-.284a1.49 1.49 0 01-.05-.303c-.005-.135-.014-.239.023-.348z" fill="#000"/><path d="M12.49 10.172c.13-.167.143-.321.15-.539.007-.158-.053-.402-.053-.402l-.008-.018s-.023-.03-.037.01a.714.714 0 00.006.061l.008.314s-.01.159-.064.322c-.091.275-.333.398-.369.498-.06.164.212-.046.368-.246zM11.126 10.68s-.053.015-.054.068c-.001.052.013.098.011.16 0 .081-.075.174-.027.205.082.051.152-.314.127-.368-.025-.054-.05-.065-.057-.065zM10.207 13.213s-.015-.008-.045.003-.027.042-.027.042-.006.032.018.035c.024.005.063-.054.063-.06 0-.007-.009-.02-.009-.02zM9.342 13.825s-.008.009 0 .015c.007.007.019-.002.019-.002s.15-.116.238-.198c.093-.087.227-.238.227-.238s.01-.011 0-.021c-.012-.01-.037.005-.058.015-.019.01-.03.02-.044.031a2.848 2.848 0 00-.057.058l-.115.111-.073.068-.07.067-.03.034-.01.016a.208.208 0 01-.01.013s-.01.01-.01.014c0 .002-.003.005-.003.008l-.004.01zM9.084 13.994s-.016-.013-.04 0a.203.203 0 00-.056.051c-.002.005-.016.023-.006.04.01.016.041-.008.046-.01.005 0 .047-.033.047-.033s.024-.015.01-.048zM8.59 14.492s-.02-.039-.048-.023c-.028.017-.043.022-.069.057-.004.006-.032.041-.036.05-.005.009-.033.06.023.065.095.005.033-.056.066-.08.026-.018.076-.013.077-.033 0-.02-.013-.036-.013-.036zM6.898 12.501s-.057.014-.062.034c-.004.02.034.04.04.04.006.002.02.017.057-.009.038-.025.036-.047.036-.047s.023-.026-.071-.018zM7.829 12.47s0-.02-.041-.017c-.041.002-.05.01-.051.016-.002.006.002.016.039.02.037.001.052 0 .053-.018zM8.709 12.496c-.074 0-.05.002-.096.004-.083.004-.128.001-.21-.004a4.09 4.09 0 01-.291-.036s-.022-.005-.031.01c-.009.013.021.044.048.052.145.045.153.037.252.04.055 0 .085-.006.14-.009.07-.005.102.005.177-.015.02-.004.04-.041.011-.042zM9.205 12.35s-.015-.017-.046-.002c-.03.014-.048.047-.048.047s-.015.023.016.02a.197.197 0 00.064-.022c.007-.004.03-.025.014-.043zM8.773 6.422s.21-.196.36-.454c.089-.154.127-.512.051-.423-.035.04-.076.226-.142.364-.095.196-.296.474-.296.474s-.044.093.027.039zM7.936 6.918s-.022.017-.012.045c.01.028.053.007.053.007s.097-.036.198-.04c.102-.004.243.026.243.026l.079.022c.01.005.047.023.054.025.005.002.04.02.06.002.019-.018-.123-.147-.268-.166-.24-.033-.4.07-.4.07l-.007.01zM6.943 7.764c.017.015.098-.138.165-.235.05-.07.14-.189.14-.189s.04-.054-.029-.024a.41.41 0 00-.158.177c-.046.09-.136.257-.118.271zM6.386 7.1s-.017.059.052.133c.07.074.088.136.133.091.012-.012-.044-.112-.072-.14-.03-.027-.05-.05-.05-.05l-.018-.015-.023-.013-.014-.005s-.003-.003-.008-.001zM6.16 6.532s-.075.014-.093.05c-.02.037.086.015.086.015s.07.004.072-.023c.002-.027-.009-.03-.065-.042zM4.962 8.51c-.038-.011-.045.064-.05.089-.004.024.017.073.026.073.009-.001.04-.049.041-.072.002-.024.017-.08-.017-.09zM6.206 9.983s-.069-.054-.08-.033c-.01.022.057.117.057.117s.021.032.053.018c.03-.016.02-.05.02-.05s-.021-.044-.05-.052zM5.687 8.39s-.018-.005-.024.017c-.007.02-.006.055-.01.097a.75.75 0 00.008.118s.007.07.02.11a.667.667 0 00.055.108s.015.033.033.032c.018-.002.014-.024.014-.024s-.058-.228-.06-.25c-.006-.077-.006-.17-.006-.17v-.013s-.001-.024-.03-.025zM5.777 7.694s-.032-.006-.061.055c-.03.062-.023.087-.02.09.001.002.025.002.062-.055s.029-.079.029-.079-.002-.01-.01-.01zM6.65 8.325s.038.057-.035.043c-.074-.013-.228-.134-.291-.167-.062-.032-.165-.043-.122-.081.008-.007.01-.013.023-.013.012 0 .055.016.057.018.003 0 .111.045.115.047.004.001.065.027.109.052.043.026.113.075.113.075l.03.026zM8.684 10.07c.02.062-.231-.133-.366-.236-.357-.274-.794-.836-.74-.886.045-.04.224.217.487.5.281.302.608.584.62.622zM9.735 9.801c-.078.083-.106.19-.06.268.043.078.057-.112.106-.168.042-.05.068-.041.137-.09.119-.084-.084-.116-.183-.01zM9.288 8.028c-.054-.009-.052.073-.044.13.035.258.152.457.307.644.094.114.353.317.383.284.01-.011-.247-.21-.41-.464-.117-.18-.178-.333-.193-.482-.002-.019.003-.105-.043-.112zM8.286 4.208c-.116.063-.319.118-.319.118s-.009.02.017.018a.86.86 0 00.332-.076c.092-.04.16-.15.16-.15s.037-.068-.033-.012a1.361 1.361 0 01-.157.102zM9.693 3.765s-.04-.009-.066.008c-.026.017-.019.03-.019.03s.041.031.07.036c.03.005.093.032.09.011-.002-.022-.037-.06-.05-.07-.011-.012-.025-.015-.025-.015zM9.031 4.976c.007.013.125-.019.17-.044.036-.02.05-.087.05-.087s.01-.065-.005-.04c-.068.11-.222.156-.215.17zM9.027 4.673c.048-.091-.13.095-.222.143a2.65 2.65 0 01-.146.068s-.024.03.01.027c.033-.002.118.027.187-.026.016-.013.087-.117.087-.117s.061-.052.084-.095zM9 5.062c.003.015.204.01.254-.005.04-.011.061-.081.061-.081s.024-.061.003-.04c-.09.092-.322.11-.318.126zM5.78 6.89s-.03-.01-.068.046c-.037.056-.206.312-.176.35.035.043.182-.229.226-.28.045-.051.027-.103.027-.103s0-.012-.009-.012zM9.455 11.494c-.018.085.003.258.033.292.071.086.027-.134.038-.211a.45.45 0 01.053-.174c.064-.138-.086-.087-.124.093zM8.84 4.116s-.056.002-.1.026a.113.113 0 00-.054.057s-.01.024-.003.038c.012.029.073-.015.115 0 .033.011.05.021.076.052.023.027.062.066.087.044.026-.022.017-.077.017-.077s-.03-.09-.069-.116c-.039-.026-.07-.024-.07-.024zM7.915 4.75s-.03.006-.023.043c.007.037.027.032.027.032s.065-.028.061-.066c-.005-.04-.065-.008-.065-.008zM7.465 4.55s-.034 0-.058.042-.037.085-.037.085-.011.055.008.072c.02.017.042-.035.07-.056.017-.012.028-.017.045-.03.024-.016.064.005.061-.044-.003-.049-.056-.072-.09-.07zM8.922 4.026s-.076-.01-.074.019c.003.027.042.01.067.022.024.011.04.015.06.033.015.013.013.038.03.038.025 0 .02-.01.02-.01s-.022-.065-.051-.084c-.029-.019-.052-.018-.052-.018zM9.779 4.335c-.011.041-.018.056-.018.056s-.021.084.064.053c.086-.031.041-.018.103-.048.061-.03.06-.013.104-.011.016 0 .025.001.048-.003.02-.005.012-.027-.032-.039-.046-.012-.103-.01-.17-.01-.039 0-.088-.04-.1.002zM9.816 4.022s-.039-.009-.066.008c-.026.016-.018.03-.018.03s.04.032.07.036c.03.005.093.032.09.01-.003-.02-.038-.06-.05-.07a.07.07 0 00-.026-.014zM9.967 4.61s-.041-.01-.07.007c-.028.015-.02.028-.02.028s.044.03.075.034c.032.005.099.03.096.01-.002-.02-.04-.057-.053-.067-.013-.01-.028-.013-.028-.013zM9.98 4.822s-.044-.01-.075.008c-.03.019-.02.033-.02.033s.045.035.079.04c.033.005.105.034.101.01-.002-.022-.042-.064-.056-.076-.014-.012-.029-.015-.029-.015zM10 5.03s-.048-.011-.08.009c-.034.02-.023.037-.023.037s.05.039.085.045c.037.006.114.039.11.013-.002-.026-.046-.074-.06-.087A.073.073 0 0010 5.03zM9.996 5.286s-.048-.01-.08.01c-.034.02-.025.037-.025.037s.051.039.087.045c.036.005.114.039.11.013-.003-.027-.046-.075-.061-.087-.015-.014-.031-.018-.031-.018zM9.96 5.787s-.048-.01-.08.01c-.033.02-.024.036-.024.036s.05.04.086.045c.036.005.114.04.11.013-.002-.026-.046-.074-.061-.087-.015-.014-.03-.017-.03-.017zM9.993 5.536s-.055-.012-.094.012c-.037.023-.026.042-.026.042s.058.045.1.052c.041.006.131.044.128.015-.005-.03-.055-.086-.072-.101-.017-.015-.036-.02-.036-.02zM9.937 6.013s-.04-.01-.067.008c-.027.016-.019.03-.019.03s.042.032.07.037c.03.004.094.032.092.01-.003-.022-.039-.06-.051-.071-.012-.011-.025-.014-.025-.014zM9.899 6.23s-.033-.007-.055.006c-.022.014-.016.025-.016.025s.035.027.059.03c.024.005.078.028.076.01-.002-.018-.033-.05-.042-.06-.01-.009-.022-.011-.022-.011zM9.852 6.428s-.029-.007-.05.005c-.02.013-.014.023-.014.023s.031.024.053.027c.023.004.07.024.068.008-.001-.016-.028-.045-.037-.053-.01-.008-.02-.01-.02-.01zM9.805 6.59s-.03-.007-.05.005c-.02.013-.014.023-.014.023s.03.024.053.027c.022.004.07.024.068.008-.002-.016-.028-.045-.038-.053-.009-.008-.019-.01-.019-.01zM9.749 6.778s-.024-.006-.041.004c-.016.01-.011.018-.011.018s.025.02.043.023c.018.002.057.02.055.006-.002-.013-.024-.037-.03-.043-.008-.007-.016-.008-.016-.008zM9.68 6.954s-.02-.005-.034.003c-.014.01-.01.016-.01.016s.022.017.037.019c.015.003.049.017.047.006 0-.011-.02-.032-.026-.037-.007-.006-.013-.007-.013-.007zM9.611 7.12s-.021-.004-.035.005c-.014.008-.009.015-.009.015s.02.017.037.02c.015.002.048.016.047.005-.001-.011-.02-.032-.026-.037-.007-.006-.014-.007-.014-.007zM5.07 7.972s-.035.067-.018.104c.017.038.064-.059.064-.059s.05-.096.03-.114c-.02-.018-.032.032-.076.069z" fill="#fff"/></svg>