<!-- by TradingView --><svg width="18" height="18" viewBox="0 0 18 18" xmlns="http://www.w3.org/2000/svg"><path fill="#0C9" d="M0 0h18v18H0z"/><path d="M14 7.26v3.91c0 .2-.12.33-.33.33-.22 0-.34-.13-.34-.33v-4a.5.5 0 0 0-.26-.43L9.28 4.7a.57.57 0 0 0-.27-.07c-.09 0-.18.03-.27.07l-3.8 2.05a.5.5 0 0 0-.27.44v3.68c0 .18.1.34.27.43l3.8 2.02c.07.04.16.06.25.06.1 0 .2-.02.3-.07l1.8-1.1a.5.5 0 0 0 .26-.42V8.25a.5.5 0 0 0-.26-.43l-1.8-.92a.57.57 0 0 0-.56 0l-1.78.92c-.16.1-.28.25-.28.43V9.8c0 .17.12.34.29.43l.9.48c.17.1.23.31.13.48a.4.4 0 0 1-.52.12l-.9-.5c-.43-.26-.57-.7-.57-1.17V8.36c0-.48.15-.93.6-1.17l1.67-.8a1.56 1.56 0 0 1 1.49 0l1.65.8c.45.24.59.69.59 1.17v3.4c0 .48-.15.93-.6 1.17l-1.65.89c-.46.24-1.02.24-1.47 0l-3.55-1.93c-.45-.24-.73-.7-.73-1.17V7.27c0-.5.28-.94.73-1.18l3.55-1.9a1.56 1.56 0 0 1 1.46 0l3.53 1.9c.45.24.73.69.73 1.17Z" fill="#fff"/></svg>