<!-- by TradingView --><svg xmlns="http://www.w3.org/2000/svg" width="18" height="18" viewBox="0 0 18 18"><path d="M0 9a9 9 0 1 1 18 0A9 9 0 1 1 0 9z" fill="#0036A7"/><path d="M5 4h8v7.3c0 1.55-2.63 3.36-4 3.7-1.35-.34-4-1.89-4-3.7V4z" fill="#fff"/><path d="M7.75 7.63c0-.49.39-.88.87-.88H9v.38c0 .48-.4.87-.88.87h-.37v-.37zM7.25 7.63c0-.49-.4-.88-.88-.88H6v.38c0 .48.4.87.87.87h.38v-.37zM7.76 6.74a.87.87 0 0 0 0-1.24l-.26-.26-.27.26a.87.87 0 0 0 0 1.24L7.5 7l.26-.26z" fill="#78AF01"/><path d="M6 11.11V9h6v2.11c0 1.17-1.88 2.35-3.05 2.97C7.88 13.58 6 12.4 6 11.1zM10.87 8H9l2.28-2.06v-.69l1.17 1.02h-.67L10.87 8z" fill="#0036A7"/></svg>