<!-- by TradingView --><svg width="18" height="18" viewBox="0 0 18 18" xmlns="http://www.w3.org/2000/svg"><path fill="#F0F3FA" d="M0 0h18v18H0z"/><path d="M15 9a6 6 0 1 1-1.76-4.24S15 6.15 15 9Zm-2.56 0A3.47 3.47 0 0 0 9 5.56 3.61 3.61 0 0 0 5.56 9 3.47 3.47 0 0 0 9 12.44 3.47 3.47 0 0 0 12.44 9Z" fill="#006351"/><path d="M7.14 7.29c-.16 0-.33-.11-.36-.28-.04-.18.1-.22.26-.22h2.41c.44 0 .92.05 1.27.35.6.51.6 1.42-.22 1.73h-.01v.02c.32.23.5.53.57.9.05.23.03.54.08.81v.02h.02c.13.07.2.18.23.32.02.15-.47.23-.58.24a2.3 2.3 0 0 1-.65 0c-.56-.08-.94-.64-.96-1.19-.01-.3-.01-.59-.06-.9a.05.05 0 0 0-.04-.04h-.08a.04.04 0 0 0-.04.03v.02c.02.15 0 .31 0 .44A125.65 125.65 0 0 0 9 10.62h.03c.17-.02.3.04.36.19.07.17 0 .3-.2.3H7.1c-.22 0-.42-.2-.31-.42.04-.08.22-.06.3-.07.02 0 .03 0 .04-.02a.07.07 0 0 0 .02-.05V7.3a.02.02 0 0 0 0-.02h-.01ZM8.8 8.83c.19 0 .4-.04.45.2.04.2.06.4.05.61 0 .49.06 1 .53 1.24.22.1.46.1.71.1.09-.01.74-.06.62-.22h-.12l-.03-.02c-.17-.14-.1-.76-.14-1-.08-.5-.4-.86-.91-.93a.06.06 0 0 1-.05-.03.02.02 0 0 1 0-.02.02.02 0 0 1 .01-.01c.22-.02.43-.07.61-.18.53-.28.53-1.01.1-1.36-.26-.2-.65-.3-.98-.3H6.98c-.08 0-.1.02-.09.1a.05.05 0 0 0 .06.05c.19-.01.32.02.32.24v3.29c-.03.18-.2.14-.32.15-.06.02-.05.17-.02.2h2.15c.22 0 .2-.18.1-.2-.2-.02-.4.04-.4-.23a277.64 277.64 0 0 1 .02-1.68Z" fill="#006351"/><path d="M9.15 7.12c.12.1.18.22.19.37 0 .24 0 .47-.02.7-.02.4-.12.48-.53.47a.01.01 0 0 1 0-.02V7.1a.01.01 0 0 1 0-.02c.15 0 .27-.02.36.05Zm-.03.16h-.1L9 7.3v1.23a.02.02 0 0 0 0 .01c.1 0 .17-.05.18-.16.03-.21.1-.92-.03-1.07a.04.04 0 0 0-.03-.02Z" fill="#006351"/><path fill="#006351" fill-opacity=".5" d="M7.46 7.05h1.01v3.69H7.46zM10.67 7.9c.04-.62-.72-.81-1.1-.83v1.42c.35.06 1.07.02 1.1-.6ZM10.59 9.82c-.08-.72-.72-.84-1.03-.8.03.07.01.7 0 1 .12.78.8.83 1.13.76l-.1-.96Z"/><path fill-rule="evenodd" d="M9 13.22a4.23 4.23 0 1 0 0-8.45 4.23 4.23 0 0 0 0 8.45Zm0 1A5.23 5.23 0 1 0 9 3.77a5.23 5.23 0 0 0 0 10.45Z" fill="#E6E6E6"/></svg>