<!-- by TradingView --><svg xmlns="http://www.w3.org/2000/svg" width="18" height="18" viewBox="0 0 18 18"><path fill="url(#ayacy4fih)" d="M0 0h18v18H0z"/><path d="M3 9.81V8.56l7.75.44v.6C8.49 9.6 3 9.81 3 9.81ZM10.78 9.03v.53c.35.22 1.05.44 1.47.44 1.3 0 2.75-.1 2.75-.1V8.74a35.5 35.5 0 0 0-2.75-.14c-.39 0-1.14.24-1.47.43Z" fill="#D51D2D"/><path d="M13 5v3.5h.5v-3H15V5h-2Zm.5 5.3H13V13h2v-.5h-1.5v-2.2ZM8.35 5c-.26 0-.57.12-.75.3a.98.98 0 0 0-.31.69V13h.49V6.04c.05-.33.22-.54.57-.54.31 0 .47.2.52.53V8.5h.5V6c0-.55-.49-1-1.02-1Zm1.03 5h-.5v3h.5v-3ZM10.42 5l.76 6.5.15-1.1h.52l-.4 2.6h-.55l-1-8h.52Zm2.02 0h-.53l-.43 3.5H12l.44-3.5Z" fill="#fff"/><path d="M5.68 5.18c.2.15.32.53.32.75V8.5h-.5V6.02c0-.23-.12-.53-.47-.52H4.5V13H4V5h1.22s.25.02.46.18ZM5.5 10H6V11.89c.03.28.07.63.5.64V13c-.8 0-.94-.6-1-1.18V10Z" fill="#FFFBFB"/><defs><linearGradient id="ayacy4fih" x1="3.35" y1="3.12" x2="21.9" y2="24.43" gradientUnits="userSpaceOnUse"><stop stop-color="#1A1E21"/><stop offset="1" stop-color="#06060A"/></linearGradient></defs></svg>