<!-- by TradingView --><svg width="18" height="18" viewBox="0 0 18 18" xmlns="http://www.w3.org/2000/svg"><path fill="#F0F3FA" d="M0 0h18v18H0z"/><path d="m8.24 8.97.36.52h.7l.36-.52-.18-.17-.88-.18-.36.35Z" fill="#014F8D"/><path d="m7.03 7.9-2.3-4.55.37-.17 2.77 4.8 7.13.65v.72l-6.75-.63 2.25 4.41-.63.31-2.46-4.81-3.04-.51v-.53l2.66.3Z" fill="#B7B7B7"/><path d="M5.28 14.65 12.1 5.7l.42.32L5.47 15l-.19-.35Z" fill="#B7B7B7"/><path d="M8.7 7.86 5.64 3.18 5.74 3l3.15 4.54 1.85-2.98.3.18-1.93 3.11 1.14 1.64h4.7v.22l-4.46.12 1.61 2.32-.3.2-1.74-2.52H7.88l-2.85 4.58-.3-.18 2.74-4.4L4 9.88v-.35l3.68-.04L8.7 7.86Zm.2.32-.8 1.3h1.72l-.91-1.3Z" fill="#B7B7B7"/></svg>