<!-- by TradingView --><svg width="18" height="18" viewBox="0 0 18 18" xmlns="http://www.w3.org/2000/svg"><path fill="#F0F3FA" d="M0 0h18v18H0z"/><path d="M6.3 12.39 4 13l1.35-2.25 1.34.4-.38 1.24Z" fill="#F6A500"/><path d="m6.7 11.16-1.35-.41L9 4l-2.3 7.16Z" fill="#70247F"/><path d="M6.7 11.16 9 4l2.3 7.16-2.3.61-2.3-.61Z" fill="#51ADE1"/><path d="m6.3 12.39.4-1.23 2.3.61-2.7.62Z" fill="#93C01F"/><path d="m11.3 11.16-2.3.61 2.7.62-.4-1.23Z" fill="#2D2D86"/><path d="m6.12 13 .19-.61L9 11.77l2.7.62.18.61H6.12Z" fill="#E61B72"/><path d="m12.65 10.75-1.34.4L9 4l3.65 6.75Z" fill="#70247F"/><path d="m12.65 10.75-1.34.4.38 1.24L14 13l-1.35-2.25Z" fill="#A61680"/></svg>