<!-- by TradingView --><svg width="18" height="18" viewBox="0 0 18 18" xmlns="http://www.w3.org/2000/svg"><path fill="#F0F3FA" d="M0 0h18v18H0z"/><path fill="#282C1B" d="M6 5h2v7H6zM9 5h1.69C11.4 5 12 5.67 12 6.5S11.41 8 10.69 8H9V5Z"/><path d="M12.41 4c.33 0 .59.29.59.64v6.64c-.01.24-.15.72-.63.72h-1.1c-.36-.06-1.14-.53-1.34-1.63-.2-1.1-.79-1.5-1.14-1.56.84-.03 2.46.36 2.86 2.16.05.32.21.6.5.6.27 0 .4-.07.42-.24V4.82c0-.2-.14-.37-.32-.37h-6.5c-.18 0-.33.17-.33.37v7.82c0 .2.15.36.33.36h6.5c.18 0 .33-.16.33-.36v-.2H13v.92c0 .35-.26.64-.59.64H5.6c-.33 0-.59-.29-.59-.64V4.64c0-.35.26-.64.59-.64h6.82Z" fill="#282C1B"/></svg>