<!-- by TradingView --><svg width="18" height="18" viewBox="0 0 18 18" xmlns="http://www.w3.org/2000/svg"><path fill="#F0F3FA" d="M0 0h18v18H0z"/><path d="M9.35 4.15a.5.5 0 0 0-.7 0L7.58 5.2a.5.5 0 0 0 0 .7l1.07 1.07c.2.2.5.2.7 0l1.07-1.06a.5.5 0 0 0 0-.71L9.35 4.15Zm1.21 2.35a.94.94 0 1 1 1.88 0 .94.94 0 0 1-1.88 0Zm0 5a.94.94 0 1 1 1.88 0 .94.94 0 0 1-1.88 0Zm-1.91-.48c.2-.2.5-.2.7 0l1.07 1.06c.2.2.2.52 0 .71l-1.07 1.06a.5.5 0 0 1-.7 0L7.58 12.8a.5.5 0 0 1 0-.7l1.07-1.07Zm5.2-2.37L12.8 7.58a.5.5 0 0 0-.7 0l-1.07 1.07a.5.5 0 0 0 0 .7l1.06 1.07c.2.2.52.2.71 0l1.06-1.07a.5.5 0 0 0 0-.7Zm-9.7 0L5.2 7.58c.2-.2.51-.2.7 0l1.07 1.07c.2.2.2.5 0 .7l-1.06 1.07a.5.5 0 0 1-.71 0L4.15 9.35a.5.5 0 0 1 0-.7ZM6.5 5.56a.94.94 0 1 0 0 1.88.94.94 0 0 0 0-1.88Zm-.94 5.94a.94.94 0 1 1 1.88 0 .94.94 0 0 1-1.88 0Zm5.17-6.35v-.82a.1.1 0 0 1 .13-.09l.68.28a.1.1 0 0 1 .03.16l-.69.54a.1.1 0 0 1-.15-.07Zm-4.27-.63.68-.28a.1.1 0 0 1 .13.1v.81a.1.1 0 0 1-.15.07l-.69-.54a.1.1 0 0 1 .03-.16Zm6.69 1.92-.41.69a.1.1 0 0 0 .08.14h.82a.1.1 0 0 0 .08-.14l-.4-.69a.1.1 0 0 0-.17 0Zm-.33 4.3h.82a.1.1 0 0 1 .08.13l-.4.69a.1.1 0 0 1-.17 0l-.41-.69a.1.1 0 0 1 .08-.14Zm-2.09 2.93v-.82c0-.08.1-.12.15-.07l.69.54a.1.1 0 0 1-.03.16l-.68.28a.1.1 0 0 1-.13-.1Zm-3.8-.9-.69.55a.1.1 0 0 0 .02.16l.69.28a.1.1 0 0 0 .13-.1v-.81a.1.1 0 0 0-.16-.07Zm-2.57-2.04h.82a.1.1 0 0 1 .08.14l-.41.69a.1.1 0 0 1-.16 0l-.41-.69a.1.1 0 0 1 .08-.14Zm.86-3.61-.54-.69a.1.1 0 0 0-.16.03l-.28.68a.1.1 0 0 0 .1.13h.81a.1.1 0 0 0 .07-.15Z" fill="url(#a)"/><defs><linearGradient id="a" x1="6.19" y1="6.03" x2="11.81" y2="11.5" gradientUnits="userSpaceOnUse"><stop stop-color="#02AE7F"/><stop offset="1" stop-color="#16A7DC"/></linearGradient></defs></svg>