<!-- by TradingView --><svg width="18" height="18" viewBox="0 0 18 18" xmlns="http://www.w3.org/2000/svg"><path fill="url(#akled1noa)" d="M0 0h18v18H0z"/><path d="M10.48 9.28c.8.04 1.31.46 1.55 1.26.27.92.6 1.73.96 2.42.02.02.01.04-.02.04-2.67.08-1.33-3.57-3.33-3.64-.03 0-.1.06-.1.1V12H8.46V9.45c0-.03-.07-.09-.1-.09-1.98.02-.71 3.83-3.34 3.63-.03 0-.04-.02-.02-.06.36-.62.59-1.12.69-1.49.22-.84.6-2.18 1.67-2.13h.02v-.05l-.01-.01c-.65-.16-1.22-.2-1.7-.74-.65-.72-.62-1.9-.05-2.64.8-1.03 2.6-1.28 3.34 0 .02.03.04.03.06 0 .7-1.16 2.29-1.06 3.15-.22.72.7.85 1.93.23 2.75-.49.65-1.2.73-1.94.86-.06.01-.06.02 0 .02Zm-2.01-.32V6.6c-.12-2.04-2.13-1.18-2.4.1C5.72 8.22 7.17 9 8.34 9.04c.04 0 .11-.03.12-.08Zm2.48-3.48c-.85-.42-1.4.27-1.42 1.1v2.38c0 .03.09.07.11.07a2.77 2.77 0 0 0 1.8-.68c.97-.86.58-2.35-.49-2.87Z" fill="#fff"/><defs><linearGradient id="akled1noa" x1="3.35" y1="3.12" x2="21.9" y2="24.43" gradientUnits="userSpaceOnUse"><stop stop-color="#1A1E21"/><stop offset="1" stop-color="#06060A"/></linearGradient></defs></svg>