<!-- by TradingView --><svg xmlns="http://www.w3.org/2000/svg" width="18" height="18"><path d="M0 9a9 9 0 1118 0A9 9 0 010 9z" fill="#F0F3FA"/><path d="M5 11.53c0-1.73 1.5-2.7 3.35-2.96 1.9-.26 2.95-1.06 2.95-1.95 0-1.26-.9-2.2-1.94-2.2h-.33c-1.17 0-1.7 1.27-2.58 1.27-.24 0-.48.04-.48-.3C5.97 4.55 7.6 4 9.04 4 13.32 4 13 5.65 13 9.76v3.1c0 .54-.24.84-.72.84-.4 0-1.13-.3-1.78-.3-1.2 0-1.53.6-2.82.6C6.22 14 5 13.05 5 11.53zm3.55 1.65a2.77 2.77 0 002.83-2.7c0-.98-.73-1.78-1.82-1.78-1.33 0-2.95 1.18-2.95 2.54 0 1.1.9 1.94 1.94 1.94z" fill="#CE0E2D"/></svg>