<!-- by TradingView --><svg width="18" height="18" xmlns="http://www.w3.org/2000/svg"><path fill="#EE2722" d="M0 0h18v18H0z"/><path d="M12.05 8.655c.323-.422.573-1.118.573-1.834C12.623 5.36 11.258 4 8.994 4c-1.389 0-2.492.559-3.238 1.196.365-.12.885-.24 1.534-.24 1.738 0 3.775 1.37 4.761 3.699zm-6.1.69c-.323.422-.574 1.118-.574 1.834 0 1.46 1.367 2.821 3.63 2.821 1.39 0 2.493-.559 3.239-1.195-.365.119-.885.24-1.534.24-1.738 0-3.775-1.37-4.761-3.7zM8.654 5.95c-.42-.323-1.117-.574-1.833-.574C5.36 5.377 4 6.744 4 9.006c0 1.39.559 2.493 1.195 3.239a4.915 4.915 0 01-.24-1.534c0-1.737 1.37-3.774 3.7-4.76zm4.39 1.34c0 1.737-1.37 3.774-3.699 4.76.421.323 1.118.574 1.834.574 1.46 0 2.821-1.366 2.821-3.63 0-1.39-.56-2.493-1.195-3.239.118.365.24.885.24 1.534z" fill="#fff"/></svg>