<!-- by TradingView --><svg xmlns="http://www.w3.org/2000/svg" width="18" height="18" viewBox="0 0 18 18"><path fill="#F0F3FA" d="M0 0h18v18H0z"/><path d="M6.35 13.65H7.4c.3-4.36 3.68-5.58 5.61-5.45v-.13l-.02-.05-1.76.11-.98.25L7.96 9.9l-1.33 2-.28 1.74Z" fill="#F8B041"/><path d="M5.77 13.23 9.16 4h.81l1.41 3.86c.6-.1 1.15-.11 1.62-.11v.32c-.5-.01-1 .04-1.5.14l.78 2.02c.1.25.33.42.6.42H13V11h-2.39v-.35h.4c.23 0 .38-.22.3-.43l-.67-1.76a6.04 6.04 0 0 0-3.07 2.41 7.43 7.43 0 0 0-.8 1.77c-.08.26-.28 1 .22 1h.4V14H5v-.35h.17c.27 0 .5-.17.6-.42Zm1.73-3.11a7.23 7.23 0 0 1 3-2.03l-1.13-3.1-1.87 5.13Z" fill="#282C6C"/></svg>