<!-- by TradingView --><svg width="18" height="18" viewBox="0 0 18 18" xmlns="http://www.w3.org/2000/svg"><path fill="#F0F3FA" d="M0 0h18v18H0z"/><path d="M8.14 4.13a6 6 0 0 0-.54.46l-.35.31-.24.69-.24.68-.92.4c-1.64.7-1.84.79-1.85.88-.01.06.05.05.35-.09.59-.27 2.32-.99 2.33-.97L5.4 10.1c-1.25 3.51-1.57 4.51-1.12 3.54.28-.6 2.13-4.82 2.75-6.28.28-.65.54-1.21.58-1.25.08-.07 1.54-.57 2.09-.72.56-.15 1.07-.2 1.14-.1.14.17-.43.91-1.8 2.35-.53.55-.96 1.03-.95 1.05.02.07-.09.17-.16.14-.08-.03-.2.07-.14.14.06.08-.06.21-.17.2-.1-.01-.1 0-.1.1.02.14-.09.27-.14.18-.02-.03-.05-.03-.1 0-.04.05-.04.08 0 .12.06.1-.04.23-.12.16-.07-.06-.12.06-.06.12.06.07 0 .2-.08.17-.06-.02-.06-.01-.02.07.07.13.3.17.64.1.3-.06.42-.02.42.12 0 .08-.45.13-.65.07-.19-.06-.23-.04-.09.05.06.04.24.06.48.05h.37l.39.57c.2.32.37.59.35.6-.03.03-.47-.13-.7-.27l-.24-.11c0 .07.55.39.8.46.22.07.32.12.39.22s.07.12.01.12c-.09 0-.6-.24-.77-.37-.07-.05-.14-.09-.15-.08a1 1 0 0 0 .26.22c.72.5 1.97.82 3.55.93.68.04 1.94.02 1.94-.03l-.3-.74a1510.34 1510.34 0 0 1-1.83-4.4c-.02 0-.22.12-.45.3-.8.63-1.82 1.3-2.44 1.63-.63.34-.75.38-.75.28 0-.09.1-.17.19-.17.04 0 .09-.04.1-.08.04-.16.1-.22.16-.22.07 0 1.75-1.52 2.7-2.43a9.12 9.12 0 0 0 1.36-1.58c.12-.26.1-.5-.06-.62-.38-.3-1.89.01-4.22.88-.4.16-.74.28-.77.28a29.15 29.15 0 0 0 .71-1.83c0-.08-.05-.06-.26.08Zm3.65 4.03c.08.08.13.27.1.36-.03.07-.47.35-.55.35-.07 0-.2-.3-.17-.38.03-.07.46-.4.52-.4.02 0 .06.03.1.07Zm-.88.75c.1.17.07.23-.2.38l-.18.1-.1-.13a.44.44 0 0 1-.1-.2c0-.06.38-.34.46-.32a.5.5 0 0 1 .12.17Zm1.31.26c.2.46.74 1.71.86 2.03.09.21.1.25.04.3-.05.06-.34.12-1.42.29-.09.01-.16 0-.2-.06-.1-.11-1.04-2-1.01-2.05l.52-.3.7-.42a.92.92 0 0 1 .28-.14c.05 0 .13.13.23.35Zm-2.1.12c.11.15.1.26-.05.34-.18.09-.25.08-.33-.04-.1-.15-.08-.2.1-.3.2-.12.21-.12.29 0Zm-.6.32c.1.16.08.25-.07.3-.13.06-.16.05-.22-.04-.11-.13-.1-.2.04-.29.16-.09.17-.09.25.03Zm-.5.23c.11.13.1.2-.02.26-.1.04-.13.04-.2-.04-.05-.05-.09-.12-.09-.15 0-.05.1-.13.2-.17l.1.1Zm1.6.98c.28.52.49.97.47 1-.03.04-.94.05-1 0-.07-.04-.96-1.57-.94-1.6l.35-.13c.18-.06.36-.14.4-.17.18-.12.22-.07.73.9Zm-1.3.15c.21.34.4.67.43.74l.06.11-.3-.03a2.24 2.24 0 0 1-.34-.06c-.06-.02-.87-1.25-.85-1.27.04-.04.55-.15.59-.14.03.01.2.3.41.65Zm.18 1.06c.1.14.1.2.02.2-.09 0-.34-.27-.3-.33.03-.06.2 0 .28.13Zm3.9-.03c.05.07.09.2.1.3v.17l-.22.03c-.32.03-.36.01-.46-.19-.12-.24-.11-.35.01-.38l.19-.05c.17-.04.3 0 .38.12Zm-3.62-.03c.06.03.2.25.2.32s-.2 0-.28-.1c-.17-.19-.13-.3.08-.22Zm.55.16c.15.16.17.28.04.28-.14 0-.25-.08-.32-.23-.11-.23.08-.27.28-.05Zm1.99-.11c.08.04.25.42.21.48-.03.06-.4.06-.5 0-.07-.04-.17-.27-.17-.4 0-.09.3-.14.46-.08Zm-1.48.05c.07.06.2.34.16.38-.02.02-.1.03-.18.02-.15-.03-.32-.23-.32-.38 0-.06.25-.07.34-.02Zm.8.18c.1.23.1.3-.1.3-.17 0-.28-.08-.36-.24-.1-.2-.06-.28.16-.26.17.01.2.03.3.2Z"/></svg>