<!-- by TradingView --><svg width="18" height="18" fill="none" xmlns="http://www.w3.org/2000/svg"><path fill="#295CA5" d="M0 0h18v18H0z"/><path d="M8.987 6.549c-.15-.256-.38-.622-.635-.731-.256-.11-.63-.073-.832.112-.21.193-.336.479-.48.72-.176.295-.401.705-.401.705l1.48.801.868-1.607z" fill="#38783B"/><path fill-rule="evenodd" clip-rule="evenodd" d="M7.923 5.821a.653.653 0 00-.361.151c-.099.091-.18.205-.254.33a6.049 6.049 0 00-.114.2c-.034.06-.067.12-.102.178a22.037 22.037 0 00-.372.652l1.374.744.824-1.526a3.513 3.513 0 00-.257-.386c-.107-.135-.22-.244-.334-.293a.804.804 0 00-.404-.05zM6.639 7.355l-.054-.027-.027.05 1.586.858.911-1.688-.016-.028a3.77 3.77 0 00-.282-.427c-.11-.14-.238-.268-.38-.329a.928.928 0 00-.47-.059.775.775 0 00-.429.183c-.11.102-.198.227-.275.355a6.17 6.17 0 00-.11.193l-.006.01c-.034.06-.066.119-.1.175a22.16 22.16 0 00-.392.689l-.01.018.054.027z" fill="#fff"/><path d="M8.65 11.775v-1.601H6.839c-.111.194-.254.374-.349.577a.597.597 0 00-.05.304.754.754 0 00.34.592.867.867 0 00.442.128h1.43z" fill="#38783B"/><path fill-rule="evenodd" clip-rule="evenodd" d="M6.803 10.116H8.71v1.718h-1.49a.93.93 0 01-.476-.137.812.812 0 01-.366-.638.654.654 0 01.055-.332 2.476 2.476 0 01.214-.364c.048-.072.095-.144.137-.217l.018-.03zm.07.117c-.039.066-.082.13-.123.195l-.041.062a2.373 2.373 0 00-.165.285.54.54 0 00-.044.275c.017.222.12.429.311.548.14.088.3.12.41.12h1.37v-1.486H6.873z" fill="#fff"/><path d="M7.952 9.437l-.548-.336c-.217.355-.618 1.01-.827 1.345-.055.09-.121.177-.165.273a.85.85 0 00-.072.32 237.4 237.4 0 01-.732-1.363c-.152-.287-.11-.45.05-.697.127-.197.245-.399.366-.599l-.5-.288h1.564l.864 1.345z" fill="#38783B"/><path fill-rule="evenodd" clip-rule="evenodd" d="M5.306 8.034h1.816l.915 1.457-.613-.308a241.098 241.098 0 01-.85 1.378c-.04.061-.078.118-.107.181a.795.795 0 00-.067.297l.022.283-.136-.256c-.188-.348-.567-1.05-.732-1.363-.079-.15-.111-.274-.098-.397a.835.835 0 01.15-.358c.096-.148.187-.299.278-.45L5.94 8.4l-.635-.367zm.438.116l.362.21-.03.05-.087.144c-.091.153-.183.306-.28.456a.727.727 0 00-.132.309c-.01.092.012.193.085.33.142.269.442.827.643 1.199a.851.851 0 01.052-.153c.032-.072.078-.14.12-.205.017-.026.034-.05.048-.074.209-.335.61-.99.827-1.345l.031-.052.378.232-.707-1.1h-1.31z" fill="#fff"/><path d="M11.71 7.836l-1.446.8.898 1.522h.665c.477 0 .849-.572.62-1.09-.063-.139-.16-.268-.239-.4l-.498-.832z" fill="#38783B"/><path fill-rule="evenodd" clip-rule="evenodd" d="M11.732 7.756l.529.883a4.012 4.012 0 00.124.196c.043.067.084.137.117.21a.857.857 0 01-.048.792.743.743 0 01-.627.38h-.7l-.946-1.602 1.552-.86zm-1.386.902l.85 1.441h.63a.622.622 0 00.523-.32.744.744 0 00.042-.687 1.522 1.522 0 00-.11-.196l-.042-.067c-.028-.043-.057-.088-.083-.131l-.468-.783-1.342.743z" fill="#fff"/><path d="M9.948 9.565l-.798 1.41.798 1.313v-.577h.632c.505.013.631-.096.781-.304l.831-1.281a.542.542 0 01-.299.112 87.607 87.607 0 01-1.945-.016v-.657z" fill="#38783B"/><path fill-rule="evenodd" clip-rule="evenodd" d="M9.22 10.974l.667 1.099v-.42h.694c.25.006.396-.018.497-.064a.577.577 0 00.232-.214l.714-1.1a.453.453 0 01-.13.021 87.73 87.73 0 01-1.947-.015l-.06-.002v-.485l-.668 1.18zm.756-1.522l.032.713c.629.011 1.257.017 1.885.015a.482.482 0 00.264-.102l.282-.217-.195.296-.832 1.282-.001.002a.695.695 0 01-.281.254c-.127.057-.296.081-.551.075h-.57v.733l-.929-1.527.896-1.524z" fill="#fff"/><path d="M9.669 5.766h-1.23c.185.064.454.454.565.641l.715 1.17-.582.32 1.662-.08.748-1.33-.498.288-.372-.592c-.037-.058-.071-.115-.117-.167-.215-.247-.448-.235-.891-.25z" fill="#38783B"/><path fill-rule="evenodd" clip-rule="evenodd" d="M8.418 5.822l-.3-.114H9.67l.095.003c.175.005.322.01.448.036a.675.675 0 01.394.232c.045.052.08.108.114.161l.008.013.34.542.637-.368-.87 1.546-1.789.06.588-.378-.684-1.119a3.25 3.25 0 00-.25-.36 1.552 1.552 0 00-.153-.166.415.415 0 00-.13-.088zm.213.003c.056.051.113.114.166.18.106.131.202.277.259.373l.746 1.22-.415.228 1.375-.066.627-1.113-.36.208-.404-.642a1.967 1.967 0 00-.007-.01c-.034-.055-.065-.104-.104-.15a.554.554 0 00-.327-.192 2.532 2.532 0 00-.424-.033l-.095-.003H8.63z" fill="#fff"/><path fill-rule="evenodd" clip-rule="evenodd" d="M13.751 11.481C14.96 10.791 15.6 9.9 15.6 9c0-.9-.641-1.791-1.849-2.481C12.555 5.835 10.876 5.4 9 5.4c-1.876 0-3.555.435-4.751 1.119C3.04 7.209 2.4 8.1 2.4 9c0 .9.641 1.791 1.849 2.481C5.445 12.165 7.124 12.6 9 12.6c1.876 0 3.555-.435 4.751-1.119zM9 13c3.866 0 7-1.79 7-4s-3.134-4-7-4-7 1.79-7 4 3.134 4 7 4z" fill="#fff"/><path fill-rule="evenodd" clip-rule="evenodd" d="M9 12.6c2.628 0 4.6-1.69 4.6-3.6 0-1.91-1.972-3.6-4.6-3.6-2.628 0-4.6 1.69-4.6 3.6 0 1.91 1.972 3.6 4.6 3.6zm0 .4c2.761 0 5-1.79 5-4s-2.239-4-5-4-5 1.79-5 4 2.239 4 5 4z" fill="#fff"/><circle cx="9.001" cy="9.001" r="1.001" fill="#E5E5E5"/></svg>