<!-- by TradingView --><svg xmlns="http://www.w3.org/2000/svg" width="18" height="18" viewBox="0 0 18 18"><path fill="#F0F3FA" d="M0 0h18v18H0z"/><path d="M12.26 6.38a1.4 1.4 0 0 1 .84-1.27 1.36 1.36 0 0 1 1.5.3 1.39 1.39 0 0 1-.97 2.36c-.37 0-.71-.15-.97-.4a1.4 1.4 0 0 1-.4-.99Z"/><path d="M3 6.38a1.4 1.4 0 0 1 .85-1.27 1.36 1.36 0 0 1 1.5.3 1.39 1.39 0 0 1-.98 2.36c-.36 0-.71-.15-.97-.4a1.4 1.4 0 0 1-.4-.99ZM6.09 6.38a1.4 1.4 0 0 1 .84-1.27 1.36 1.36 0 0 1 1.5.3 1.39 1.39 0 0 1-.97 2.36c-.37 0-.72-.15-.97-.4a1.4 1.4 0 0 1-.4-.99ZM12.26 9.5a1.4 1.4 0 0 1 .84-1.28 1.36 1.36 0 0 1 1.5.3 1.39 1.39 0 0 1-.97 2.36c-.37 0-.71-.14-.97-.4a1.4 1.4 0 0 1-.4-.98Z" fill="#C3C5C7"/><path d="M9.17 6.38a1.4 1.4 0 0 1 .85-1.27 1.36 1.36 0 0 1 1.5.3 1.39 1.39 0 0 1-.98 2.36c-.36 0-.71-.15-.97-.4a1.4 1.4 0 0 1-.4-.99Z" fill="#B4121B"/><path d="M9.17 9.5a1.4 1.4 0 0 1 .85-1.28 1.36 1.36 0 0 1 1.5.3 1.39 1.39 0 0 1-.98 2.36c-.36 0-.7-.14-.97-.4a1.4 1.4 0 0 1-.4-.98Z" fill="#FAAF3F"/><path d="M6.09 12.62a1.4 1.4 0 0 1 .84-1.28 1.36 1.36 0 0 1 1.5.3A1.39 1.39 0 0 1 7.46 14a1.36 1.36 0 0 1-1.27-.85 1.4 1.4 0 0 1-.1-.53Z" fill="#C3C5C7"/><path d="M9.17 12.62a1.4 1.4 0 0 1 .85-1.28 1.36 1.36 0 0 1 1.5.3 1.39 1.39 0 0 1-.98 2.36c-.36 0-.71-.15-.97-.4a1.4 1.4 0 0 1-.4-.98Z" fill="#00843F"/></svg>