<!-- by TradingView --><svg width="18" height="18" xmlns="http://www.w3.org/2000/svg"><path fill="#EE3524" d="M0 0h18v18H0z"/><path d="M5.757 5s.233 8.442.243 8.715c.004.124-.129.279-.502.285-.304.005-.51-.117-.498-.285.02-.263.253-8.715.253-8.715h.504zM8.21 5c-.872 0-1.806.51-2.17.725l.223 3.908c.344-.277.976-.93 2.057-.93.922 0 1.305.623 2.321.623 1.079 0 1.542-1.032 2.855-1.032.768 0 1.333.187 1.504.236-.483-.517-1.304-.85-2.015-.914.542-.373 1.192-.478 1.796-.417-.378-.258-1.092-.724-2.143-.724-.73 0-1.071.248-1.705.248C9.565 6.723 9.846 5 8.21 5z" fill="#fff"/></svg>