<!-- by TradingView --><svg xmlns="http://www.w3.org/2000/svg" width="18" height="18"><path fill="#F0F3FA" d="M0 0h18v18H0z"/><path fill-rule="evenodd" d="M5.73 6H3.37c-.36.01-.76.02-1.12 0L2 7.72h.12c.4-1.37.64-1.4 1.72-1.4H4v4.5c0 .86-.3.98-1 1.06V12h5.38v-.12l-.06-.01c-.57-.1-.9-.14-.9-1.05V9.18h.42L10.2 12H13v-.12l-.07-.01c-.56-.1-.93-.15-.93-1.05V9.18h.42L14.77 12H16l-2.46-2.98c.8-.2 1.07-.84 1.07-1.46 0-1.1-.92-1.56-2.1-1.56H10v.17l.07.01c.56.09.93.15.93 1.05v3.6c0 .26-.02.45-.06.6l-1.98-2.4C9.76 8.8 10 8.17 10 7.55 10 6.46 9.1 6 7.92 6H5.73zm.11.32H5v4.5c0 .83.07.97.7 1.05.53-.05.72-.18.72-1.05V7.36c0-.87-.08-.96-.58-1.04zm7.75 1.22c0-.73-.26-1.23-1.13-1.23H12v2.47h.46c.87 0 1.13-.51 1.13-1.24zM7.9 6.3c.86 0 1.11.5 1.11 1.23s-.25 1.24-1.12 1.24h-.46V6.31h.46z" fill="#231F20"/></svg>