<!-- by TradingView --><svg xmlns="http://www.w3.org/2000/svg" width="18" height="18" viewBox="0 0 18 18"><path fill="#F0F3FA" d="M0 0h18v18H0z"/><path d="M7.24 4.86c-.72.39-1.5.88-1.4 1.1.18.37 1.46.28 2.5.2l.3-.03c1-.1 2.23-.21 2.37.52.01.14-.18.48-1.03.79H16c-1.28-.7-4.05-2.05-4.85-1.95H9.98a3.34 3.34 0 0 1-.64-.22c-.3-.13-1.06-.57-1.4-.77a16 16 0 0 0-.41.2A10.4 10.4 0 0 0 2 8.43a13.84 13.84 0 0 1 5.24-3.56Z" fill="#022237"/><path fill-rule="evenodd" d="M5 8h2.38a1.42 1.42 0 0 1 .66 2.67c.5.19.64.78.65 1.08v.47c0 .32.15.66.22.78h-.96c-.14-.05-.2-.75-.2-1.1-.06-.6-.46-.88-.65-.9H6v2H5V8Zm1 2.23V9h1.16a.61.61 0 0 1 0 1.23H6Z" fill="#022237"/><path fill-rule="evenodd" d="m9 13 1.62-5h1.14l1.67 5h-1.19l-.29-.88h-1.54l-.27.88H9Zm1.64-1.82.53-1.85.5 1.85h-1.03Z" fill="#BF7923"/></svg>