<!-- by TradingView --><svg xmlns="http://www.w3.org/2000/svg" width="18" height="18" viewBox="0 0 18 18"><path fill="url(#aweisbj0v)" d="M0 0h18v18H0z"/><path d="M2 7.64c0-.09.02-.17.05-.25a.62.62 0 0 1 .22-.29.6.6 0 0 1 .34-.1h3a.64.64 0 0 1 .58.39c.03.08.04.16.04.24V8.7a.64.64 0 0 1-.18.45.64.64 0 0 1-.2.13.56.56 0 0 1-.22.05H5.1L6.23 11h-.88L4.2 9.33h-.9v-.66h2.28v-1H2.65V11H2V7.64ZM11 10.37a.6.6 0 0 1-.05.24.65.65 0 0 1-.6.39H6.78v-.67h3.58v-1H7.09v-.66h3.26v-1H6.77V7h3.61a.6.6 0 0 1 .35.1.67.67 0 0 1 .27.54v2.73ZM11.77 10.37c0 .08.01.17.05.24a.65.65 0 0 0 .59.39H16v-.67h-3.58v-1h3.25v-.66h-3.25v-1H16V7h-3.62a.6.6 0 0 0-.34.1.62.62 0 0 0-.23.29.67.67 0 0 0-.04.25v2.73Z" fill="#fff"/><defs><linearGradient id="aweisbj0v" x1="3.35" y1="3.12" x2="21.9" y2="24.43" gradientUnits="userSpaceOnUse"><stop stop-color="#1A1E21"/><stop offset="1" stop-color="#06060A"/></linearGradient></defs></svg>