<!-- by TradingView --><svg xmlns="http://www.w3.org/2000/svg" width="18" height="18"><path fill="url(#aik34zcxs)" d="M0 0h18v18H0z"/><path d="M10.86 13.42c.34.17.8.13 1.14-.13a5.24 5.24 0 002-4.34 5.22 5.22 0 00-2.6-4.33 4.9 4.9 0 00-4.16-.29 5.06 5.06 0 00-2.7 2.47c-.7 1.38-.7 3.1-.12 4.46a5.2 5.2 0 002.67 2.7 2.7 2.7 0 01-.36-.64 5.92 5.92 0 01-.32-3.33c.24-1.03 1-2.07 2.08-2.22.62-.09 1.38.14 1.76.7.32.5.33 1.23 0 1.74-.34.54-1 .83-1.6.72h.02l2 2.34c.09.1.19.15.19.15zM7.19 11.7c-.34.83.1 1.62.66 2.24l.04.05c.28-.3.52-.65.66-1.05.13-.36.13-.73.05-1.08-.08-.27-.2-.54-.3-.8a4.3 4.3 0 01-.42-1.38c-.13.74-.4 1.38-.7 2.02z" fill="#BFA161"/><defs><linearGradient id="aik34zcxs" x1="3.35" y1="3.12" x2="21.9" y2="24.43" gradientUnits="userSpaceOnUse"><stop stop-color="#1A1E21"/><stop offset="1" stop-color="#06060A"/></linearGradient></defs></svg>