<!-- by TradingView --><svg width="18" height="18" xmlns="http://www.w3.org/2000/svg"><path fill="#FF7900" d="M0 0h18v18H0z"/><path d="M7.627 8.996c1.81 0 3.803-.606 3.803-2.347C11.43 5.415 10.154 5 9.002 5 7.242 5 4 5.978 4 9.45c0 1.742 1.312 2.63 3.418 2.63 2.226 0 3.792-1.477 4.356-3.273-1.308 2.253-2.97 2.954-4.327 2.954-1.683 0-2.326-1.249-2.326-2.319 0-3.063 2.379-4.12 3.88-4.12 1.015 0 1.716.657 1.716 1.37 0 1.967-2.73 1.995-4.025 1.995l-.651.002-.306.307c.593.084 1.476.22 2.367.67C9.953 10.6 11.482 13 13.788 13c.836 0 1.054-.255 1.212-.478-1.13.72-3.022-.527-4.042-1.492-.84-.793-1.379-1.557-3.331-2.034z" fill="#fff"/></svg>