<!-- by TradingView --><svg width="18" height="18" viewBox="0 0 18 18" fill="none" xmlns="http://www.w3.org/2000/svg">
<rect width="18" height="18" fill="#F0F3FA"/>
<path fill-rule="evenodd" clip-rule="evenodd" d="M11.2727 5.00004L6 5.00002V5.4608H6.33573C6.72473 5.4608 6.72562 5.60497 6.72642 5.73203C6.72651 5.74662 6.7266 5.76099 6.72727 5.77488C6.73123 5.85631 6.70467 5.9216 6.70467 5.9216C6.70467 5.9216 5.60671 10.1338 5.43885 10.8941C5.26025 11.5162 4.69544 11.5387 4.69544 11.5387H4V12H8.54545V11.5387H7.76499C7.11751 11.5387 7.33333 10.9633 7.33333 10.9633L7.89057 9.00002C9.68914 12.502 12.0336 14 12.0336 14H14V13.5392C12.8729 13.5392 12.1295 12.249 12.1295 12.249L10 8.60001C12.1103 8.60001 13 7.05177 13 6.01501C13 4.97824 11.2727 5.00004 11.2727 5.00004ZM8 8.00004L8.77218 5.55293C8.77218 5.55293 11.024 5.02552 11 6.50003C10.9712 8.27075 8 8.00004 8 8.00004Z" fill="#003F7E"/>
</svg>
