<!-- by TradingView --><svg xmlns="http://www.w3.org/2000/svg" width="18" height="18" viewBox="0 0 18 18"><path fill="#F0F3FA" d="M0 0h18v18H0z"/><path d="M6.97 6A3 3 0 0 0 4 9.02c0 .28-.24.48-.5.48S3 9.29 3 9.02A4.1 4.1 0 0 1 7.02 5c.25 0 .48.2.48.5s-.23.5-.53.5Z" fill="#8AB129" style="mix-blend-mode:multiply"/><path d="M8.5 9h-3L7 11.5 8.5 9Z" fill="#672354"/><path d="M10 9a3 3 0 0 0-3-3 .5.5 0 0 1-.5-.5c0-.3.23-.5.5-.5 2.36 0 4 2.06 4 3.96v.1c0 .27-.26.44-.5.44S10 9.26 10 9Z" fill="#E4C71F" style="mix-blend-mode:multiply"/><path d="M7 12a3 3 0 0 0 3-2.98c0-.26.2-.52.5-.52s.5.23.5.52A4.08 4.08 0 0 1 7.05 13h-.1c-.27 0-.45-.28-.45-.5 0-.27.26-.5.5-.5Z" fill="#682458" style="mix-blend-mode:multiply"/><path d="M7.64 9c.27-1.56 1.48-3 3.26-3 .31 0 .6-.2.6-.5s-.28-.5-.55-.5h-.1a4.46 4.46 0 0 0-4.27 4h1.06Z" fill="#622256" style="mix-blend-mode:multiply"/><path d="M14 9a3 3 0 0 0-3-3 .5.5 0 0 1-.5-.5c0-.3.23-.5.5-.5 2.36 0 4 2.06 4 3.96v.1c0 .27-.26.44-.5.44S14 9.26 14 9Z" fill="#115785" style="mix-blend-mode:multiply"/><path d="M11 12a3 3 0 0 0 3-2.98c0-.26.2-.52.5-.52s.5.23.5.52A4.08 4.08 0 0 1 11.05 13h-.1c-.27 0-.45-.28-.45-.5 0-.27.26-.5.5-.5Z" fill="#93BA2A" style="mix-blend-mode:multiply"/><path d="M4 9.03C4 10.76 5.5 12 7 12c.2 0 .5.16.5.5 0 .3-.23.5-.5.5a4.07 4.07 0 0 1-4-4.01c0-.28.25-.49.5-.49.33 0 .5.29.5.53Z" fill="#115785" style="mix-blend-mode:multiply"/></svg>