<!-- by TradingView --><svg width="18" height="18" viewBox="0 0 18 18" xmlns="http://www.w3.org/2000/svg"><path fill="#F0F3FA" d="M0 0h18v18H0z"/><path d="M8.9 4h.12l-.08.39H8.9c-.95 0-1.84.3-2.59.79l-.23-.31A5.05 5.05 0 0 1 8.9 4Zm3.16 1.12a5.3 5.3 0 0 1 1.75 2.63l-.36.12a4.9 4.9 0 0 0-1.62-2.44l.23-.3ZM14 9.78c-.03.31-.08.62-.16.92l-.37-.09c.07-.27.12-.54.15-.83H14ZM4 7.71c.14-.46.34-.9.6-1.3l.34.17c-.25.39-.45.82-.58 1.28L4 7.7Z" fill="#B0ADAB"/><path d="M8.98 5.83v.6c-.84 0-1.6.42-2.07 1.06l-.49-.33a3.14 3.14 0 0 1 2.56-1.33Zm1.23.25c.57.25 1.05.65 1.4 1.17l-.43.4a2.7 2.7 0 0 0-1.16-1l.2-.57Zm1.92 2.48a3.42 3.42 0 0 1-.49 2.44l-.46-.36a2.8 2.8 0 0 0 .38-2l.57-.08Z" fill="#656262"/><path d="M8.94 5.52c.26 0 .51.03.75.09l-.18.72a2.73 2.73 0 0 0-1.72.2l-.3-.67a3.3 3.3 0 0 1 1.45-.34Zm-2.1 1.73c-.17.2-.31.42-.43.66l-.6-.37c.15-.3.33-.56.53-.8l.5.51Zm4.96 1.92a3.17 3.17 0 0 0-1.02-2.18l.41-.6a3.95 3.95 0 0 1 1.3 2.78h-.69Z" fill="#979696"/><path d="M9.76 4.6c.97.2 1.82.72 2.46 1.46-.12.1-.24.2-.32.29a3.98 3.98 0 0 0-2.14-1.3v-.44Zm3.6 4.17c.03.16.03.33.03.5 0 .6-.1 1.2-.3 1.73l-.38-.2a4.55 4.55 0 0 0 .25-1.93l.4-.1Zm-8.15-2.1C5.81 5.72 6.73 5 7.8 4.69l.1.44c-.98.28-1.8.93-2.34 1.8l-.35-.24Z" fill="#28A449"/><path d="m9.18 14-1.66-2.34H7v1.45c0 .3.02.51.1.59.09.11.23.17.42.17h.18V14H5.3v-.13h.18c.21 0 .36-.08.45-.21.05-.08.07-.25.07-.53V9.89c0-.3-.02-.51-.1-.59-.09-.11-.23-.17-.42-.17H5.3V9h2.05c.87 0 2.07.15 2.07 1.27 0 .73-.36 1.13-1.01 1.28l1.03 1.42c.35.48.44.77 1.03.86V14H9.18Zm-2-2.57c.69 0 1.23-.25 1.23-1.04 0-.62-.23-1.09-.85-1.09-.14 0-.33.02-.56.08v2.05h.19Z" fill="#181B1E"/></svg>