<!-- by TradingView --><svg xmlns="http://www.w3.org/2000/svg" width="18" height="18" viewBox="0 0 18 18"><path fill="#F0F3FA" d="M0 0h18v18H0z"/><path d="M6.09 2.5c-.01.31.32 1.1 1.74 1.75l.4.2c1.6.73 2.97 1.36 3.75 2.46.01.26 0 .81-.12.98-.2-.21-.93-.8-2.27-1.44l-.38-.18c-1.6-.75-3.42-1.6-3.12-3.77Zm6.05 5.06c0 .3-.32 1.02-1.6 1.47l-.3.13c-1.79.83-4.46 2.07-4.23 4.33 0-.26.37-.95 1.77-1.68.32-.16.67-.32 1.04-.48 1.68-.75 3.65-1.62 3.32-3.77Z" fill="#EB1C24"/><path d="M6.81 10.96a5.1 5.1 0 0 1 1.03-.75C7.32 9.97 6.3 9.3 6.4 8.45c-.15.46-.28 1.6.4 2.5Zm1.25.93 1.47-.68c1.43.58 4.1 2.24 3.34 4.29.06-.24-.12-.9-1.32-1.6-1.2-.71-2.83-1.64-3.5-2.01Z" fill="#F6931E"/></svg>