<!-- by TradingView --><svg width="18" height="18" viewBox="0 0 18 18" xmlns="http://www.w3.org/2000/svg"><path fill="#F0F3FA" d="M0 0h18v18H0z"/><path d="M10.02 7.33c-.84.04-1.51.22-1.9.53-.2.16-.3.3-.37.5a.86.86 0 0 0-.05.33c0 .12.02.3.03.32l.06-.07c.17-.26.38-.46.62-.6.32-.2.79-.33 1.35-.39l.53-.01a8.18 8.18 0 0 1 4.99 1.67 5.46 5.46 0 0 1 .72.7l-.18-.4a4.6 4.6 0 0 0-1.27-1.33 7.69 7.69 0 0 0-4.53-1.25ZM2 7.65a2.35 2.35 0 0 0 .68 1.18c.48.45.98.77 1.72 1.1a8.36 8.36 0 0 0 4.5.6c.49-.1.92-.29 1.14-.52a1.03 1.03 0 0 0 .29-.77.9.9 0 0 0-.06-.32l-.05.07c-.24.36-.35.47-.6.63-.18.1-.47.22-.69.28a5.23 5.23 0 0 1-1.6.11 8.3 8.3 0 0 1-4-1.19A5.22 5.22 0 0 1 2 7.62l.01.04Z" fill="#B6121B"/><path d="M6.08 6.61a5 5 0 0 1 3.83-.4l.07.04-.42.02c-.46 0-.74.03-1.04.07-.9.14-1.63.4-2.28.84A4.26 4.26 0 0 0 5 8.58a.46.46 0 0 1-.05.08 2 2 0 0 1 .34-1.33c.17-.25.48-.53.79-.72Zm6.2 3.06.18-.28.05-.1v.16c.01.48-.1.9-.34 1.27-.19.3-.5.58-.84.77-.46.26-1 .42-1.6.48-.33.03-.67.04-1.02.01a4.47 4.47 0 0 1-1.13-.23l-.03-.01h.04l.14-.01c.29 0 .88-.04 1.11-.07a5.98 5.98 0 0 0 2.1-.7 3.64 3.64 0 0 0 1.35-1.3Z" fill="#1C3F95"/></svg>