<!-- by TradingView --><svg width="18" height="18" viewBox="0 0 18 18" xmlns="http://www.w3.org/2000/svg"><path fill="#F0F3FA" d="M0 0h18v18H0z"/><path d="M8.37 7.54V4c-.58.99-3.44 2.1-3.9 2.63-.37.43 0 .9.24 1.1L6.82 9c1.3-.36 1.58-1.12 1.55-1.46Z" fill="#0E0FB5"/><path d="M4.34 6.84c.15.06.32.11.45.08.09-.03.2-.12.37-.25.29-.22.71-.55 1.32-.77.86-.3 1.55-.8 1.8-1.76-.44.56-1.53 1.15-2.44 1.64-.64.35-1.19.64-1.37.85a.64.64 0 0 0-.13.21Z" fill="#5758CE"/><path d="M8.37 4.22v3.32c.03.34-.25 1.1-1.55 1.46L4.71 7.72c-.17-.13-.4-.41-.4-.72.83.48 2.28 1.33 2.47 1.47.22.17.36.07.72-.2l.14-.1c.37-.28.42-.66.4-.8V5.14c0-.35.17-.7.33-.93Z" fill="#030460"/><path d="M9.63 7.54V4c.58.99 3.44 2.1 3.9 2.63.37.43 0 .9-.24 1.1L11.18 9c-1.3-.36-1.58-1.12-1.55-1.46Z" fill="#0D0EB6"/><path d="M9.63 7.32v.22c-.03.34.25 1.1 1.55 1.46l2.11-1.28c.24-.18.61-.66.24-1.09a4.14 4.14 0 0 0-.92-.6c.18.23.43.52.64.7.3.27.13.39 0 .41a32.07 32.07 0 0 1-1.83 1.22c-.22.1-.38.17-.97-.12-.37-.19-.66-.6-.82-.92Z" fill="#030460"/><path d="M4 10.77V7.53c.17.37.88.85 1.2 1.05l2.66 1.48c.51.28.83.8.83 1.38v1.91c0 .36-.3.65-.68.65a.7.7 0 0 1-.4-.13l-3.13-2.2a1.1 1.1 0 0 1-.48-.9Z" fill="#FB0608"/><path d="M4 10.73v.04c0 .36.18.69.48.9l3.13 2.2a.7.7 0 0 0 .4.13c.37 0 .68-.29.68-.65v-1.91c0-.51-.25-.98-.67-1.28.12.32.18.73.19.95v1.78c0 .47-.06.67-.39.6a17.06 17.06 0 0 1-2.35-1.67L4 10.72Z" fill="#740003"/><path d="M14 10.77V7.53c-.17.37-.88.85-1.2 1.05l-2.66 1.48c-.51.28-.83.8-.83 1.38v1.91c0 .36.3.65.68.65a.7.7 0 0 0 .4-.13l3.13-2.2c.3-.21.48-.54.48-.9Z" fill="#FC0609"/><path d="M13.75 7.85c-.29.3-.72.59-.96.73l-2.65 1.48c-.51.28-.83.8-.83 1.38v.06c.27-.4.75-.96 1.5-1.34l.73-.35c1.02-.46 2.08-.94 2.21-1.96Z" fill="#FC5658"/><path d="M9.31 13.39c.14.11.32.16.56.05.7-.29 3.65-2.12 3.65-2.5v-.29c-.03-.56-.07-1.6.15-2.21.12-.34.23-.6.33-.8v3.13c0 .36-.18.69-.48.9l-3.13 2.2a.7.7 0 0 1-.4.13.66.66 0 0 1-.68-.61Z" fill="#740003"/></svg>