<!-- by TradingView --><svg width="18" height="18" viewBox="0 0 18 18" xmlns="http://www.w3.org/2000/svg"><path fill="#F0F3FA" d="M0 0h18v18H0z"/><path d="m10.7 6.04-.2-.48c.49-.3 1.86-.56 2.41-.56.63 0 .66.53.66 1.06 0-.27-.28-.53-.66-.53-.48 0-1.79.25-2.22.5ZM6.88 12.88c-1.54 0-2.56-.2-2.88-.29 1.92.68 4.16.47 5.04.29a7.57 7.57 0 0 1-2.4.56c.19.22 1.79.16 2.16 0-.8.56-3.68.19-4.56 0 .72.56 1.92.56 3.36.56 1.68 0 4-.84 4.23-1.13.23-.29.32-1.12-.4-1.12s-2.63 1.13-4.55 1.13Z" fill="#DA1035"/><path d="M8.48 5h3.24c.33 0 .94.3.74 1.45-.2 1.17-.74 2.19-1.5 2.55.1 0 .26.22.26 1.1 0 .86-.17 2.3-.25 2.9H9.23c.16-1.21.35-3.64-.25-3.64h-.5L7.24 13H5.5l2.98-8Zm.5 3.33h.75c.25 0 .8-.28 1-1.15.2-.87-.06-1.18-.23-1.18h-.75l-.77 2.33Z" fill="#111"/><path d="M14 6.14c0-.57-.25-.85-.5-1.14.25.57.25.57.25 1.14 0 .91-1 2.1-1.49 2.57.58-.48 1.74-1.66 1.74-2.57ZM4.24 10.63c0 .26 0 .99.24 1.25A1.93 1.93 0 0 1 4 10.62c0-.63 1.2-1.8 2-2.24-.48.44-1.76 1.65-1.76 2.24Z" fill="#DA1035"/><path d="M5.12 11.18c0 .94 1.33 1.18 1.81 1.11-.8.11-2.26.25-2.26-1.11 0-2 3.77-4.22 4.9-5.06 0 0 .09.24 0 .53-.82.46-4.45 2.8-4.45 4.53Z" fill="#DA1035"/></svg>