<!-- by TradingView --><svg width="18" height="18" fill="none" xmlns="http://www.w3.org/2000/svg"><path fill="#F0F3FA" d="M0 0h18v18H0z"/><path d="M13.793 6.602c0 .62-.482 1.122-1.077 1.122s-1.077-.502-1.077-1.122c0-.62.482-1.122 1.077-1.122s1.077.502 1.077 1.122z" fill="#292F7D"/><ellipse cx="10.815" cy="5.238" rx=".824" ry=".858" fill="#815473"/><path d="M9.752 4.717c0 .43-.334.778-.746.778s-.746-.348-.746-.778c0-.429.334-.777.746-.777s.746.348.746.777zM7.801 5.04a.65.65 0 01-.637.663.65.65 0 01-.636-.663.65.65 0 01.636-.663.65.65 0 01.637.663zM6.285 6.3c0 .33-.257.597-.573.597a.585.585 0 01-.573-.597c0-.33.257-.597.573-.597.316 0 .573.267.573.597z" fill="#815473"/><path d="M4.13 11.242c0-.655.51-1.186 1.139-1.186s1.139.531 1.139 1.187c0 .655-.51 1.186-1.14 1.186-.628 0-1.138-.531-1.138-1.187z" fill="#292F7D"/><ellipse cx="7.279" cy="12.685" rx=".871" ry=".907" transform="rotate(-180 7.279 12.685)" fill="#815473"/><path d="M8.403 13.235c0-.454.353-.822.789-.822.436 0 .789.368.789.822 0 .454-.353.822-.79.822-.435 0-.788-.368-.788-.822zM10.466 12.894c0-.387.301-.701.673-.701.372 0 .673.314.673.701a.688.688 0 01-.673.701.688.688 0 01-.673-.701zM12.069 11.562c0-.348.271-.63.605-.63.335 0 .606.282.606.63 0 .348-.271.63-.605.63a.619.619 0 01-.606-.63z" fill="#815473"/></svg>