<!-- by TradingView --><svg width="18" height="18" xmlns="http://www.w3.org/2000/svg"><path fill="#F0F3FA" d="M0 0h18v18H0z"/><path d="M7.904 10.986c-.4.355-.444.976-.09 1.397.356.4.977.444 1.398.089.399-.355.443-.976.089-1.397-.377-.421-.998-.466-1.397-.089zM4.267 7.993a.777.777 0 00-.066 1.109.777.777 0 001.108.066.777.777 0 00.067-1.109c-.288-.31-.798-.354-1.109-.066zM11.319 5.62a1.06 1.06 0 00-.09 1.508 1.06 1.06 0 001.509.089 1.06 1.06 0 00.088-1.508c-.377-.421-1.064-.465-1.508-.089zM7.505 6.44a.504.504 0 00-.045.733c.2.221.51.243.732.044.222-.2.244-.51.044-.732-.2-.222-.532-.244-.732-.044zM6.418 4.69a.517.517 0 00-.044.709c.177.2.51.221.71.044.199-.177.221-.51.044-.71-.178-.221-.51-.221-.71-.044z" fill="#82D5F0"/><path d="M5.332 10.432a1.294 1.294 0 00-.111 1.818 1.294 1.294 0 001.818.111 1.294 1.294 0 00.11-1.818 1.294 1.294 0 00-1.817-.11zM10.121 4.49a.777.777 0 00-.066 1.108.777.777 0 001.108.067.777.777 0 00.067-1.109.777.777 0 00-1.109-.066zM9.966 11.474a1.192 1.192 0 00-.089 1.685 1.192 1.192 0 001.685.089 1.193 1.193 0 10-1.596-1.774zM8.48 6.995a.557.557 0 00-.044.776c.2.222.554.244.776.045a.557.557 0 00.044-.776c-.2-.244-.532-.266-.776-.045zM5.42 9.28c-.177.154-.177.42-.022.598.155.177.421.177.599.022.155-.133.177-.4.022-.577a.423.423 0 00-.599-.044zM13.048 7.106a.423.423 0 00-.044.599c.155.177.42.2.598.044a.423.423 0 00.044-.599c-.177-.2-.443-.2-.598-.044z" fill="#00A9E0"/><path d="M12.139 11.718a.423.423 0 00-.045.599c.155.177.421.2.599.044a.423.423 0 00.044-.599.423.423 0 00-.598-.044zM9.855 6.929a.423.423 0 00-.044.598.423.423 0 10.643-.554.423.423 0 00-.6-.044zM13.025 10.299a.423.423 0 00-.044.599c.155.177.421.2.599.044a.423.423 0 00.044-.599c-.155-.2-.421-.2-.599-.044z" fill="#00A9E0"/><path d="M11.607 10.321a.726.726 0 00-.067.998c.266.288.71.31.998.066a.726.726 0 00.066-.997c-.244-.289-.687-.31-.997-.067zM5.132 5.798a1.294 1.294 0 00-.11 1.818 1.294 1.294 0 001.817.111 1.294 1.294 0 00.111-1.818 1.295 1.295 0 00-1.818-.111zM10.187 6.02a.423.423 0 00-.044.598c.155.178.421.2.599.045a.423.423 0 00.044-.6.423.423 0 00-.599-.043zM7.438 9.722a.622.622 0 00-.044.865.622.622 0 00.864.045.622.622 0 00.045-.865.602.602 0 00-.865-.045z" fill="#BFE9F7"/><path d="M6.484 9.301a.45.45 0 00-.044.621.45.45 0 00.62.044.45.45 0 00.045-.62.45.45 0 00-.62-.045zM7.039 7.705a.91.91 0 101.22 1.352.91.91 0 00-1.22-1.352zM7.748 4.29a1.166 1.166 0 00-.088 1.663 1.166 1.166 0 001.663.089 1.165 1.165 0 00.088-1.663c-.42-.466-1.153-.51-1.663-.089zM12.205 8.17a1.12 1.12 0 00-.11 1.575c.398.465 1.108.51 1.574.11.465-.399.51-1.108.11-1.574l-.022-.022c-.421-.443-1.108-.488-1.552-.089zM4.334 9.656a.57.57 0 00-.045.82.57.57 0 00.82.045.57.57 0 00.045-.82.612.612 0 00-.82-.045zM10.72 7.261a.348.348 0 00-.023.488.348.348 0 00.488.022.348.348 0 00.022-.487c-.11-.134-.332-.134-.488-.023zM4.29 7.261c-.111.111-.134.288-.023.4.111.11.289.132.4.022.11-.111.132-.289.022-.4-.09-.11-.289-.133-.4-.022zM12.848 11.208c-.11.111-.133.288-.022.4.111.11.288.132.4.021.11-.11.132-.288.021-.399-.088-.11-.266-.133-.399-.022zM7.238 5.909c-.088.066-.11.222-.022.31.067.089.222.111.31.022.09-.066.112-.221.023-.31l-.022-.022c-.067-.067-.2-.067-.289 0zM12.36 7.527c-.088.067-.11.222-.022.31.067.09.222.112.31.023.09-.067.111-.222.023-.31l-.022-.023c-.067-.066-.2-.066-.289 0zM9.744 5.71c-.089.088-.11.22-.022.31.089.088.222.11.31.022.089-.089.111-.222.023-.31v-.023c-.111-.066-.222-.089-.31 0zM9.212 6.241a.423.423 0 00-.045.599c.156.177.422.2.6.044a.423.423 0 00.043-.598.423.423 0 00-.598-.045zM11.407 7.66c-.178.156-.178.422-.022.6.155.176.421.176.598.021.178-.155.178-.421.023-.598-.156-.178-.422-.178-.6-.023z" fill="#0065BD"/><path d="M5.82 8.281a.53.53 0 01.754.045.53.53 0 01-.045.753.53.53 0 01-.754-.044c-.2-.2-.177-.554.045-.754zM8.724 12.893a.632.632 0 01.887.067c.244.266.2.643-.066.887a.622.622 0 01-.865-.045c-.244-.288-.222-.665.044-.909zM6.972 12.56c.266-.243.688-.221.91.045.243.266.221.687-.045.91-.266.243-.687.22-.91-.045-.243-.244-.22-.665.045-.91z" fill="#0065BD"/><path d="M9.034 8.26c-.62.553-.687 1.529-.133 2.15.555.62 1.53.687 2.151.133.621-.554.688-1.508.133-2.15-.576-.622-1.53-.688-2.15-.134z" fill="#F9461C"/><path d="M9.677 8.281l.932 1.131-.932 1.13v-2.26z" fill="#fff"/></svg>