<!-- by TradingView --><svg xmlns="http://www.w3.org/2000/svg" width="18" height="18"><path fill="#F0F3FA" d="M0 0h18v18H0z"/><circle cx="9" cy="9" r="5" fill="url(#awcgdpyx4)"/><path d="M13.38 8.81c0 .5-1.92.37-4.44.37-2.51 0-4.55 0-4.66-.37a4.55 4.55 0 119.1 0z" fill="url(#bwcgdpyx4)"/><path d="M7.7 4.85c-.05-.15-.38-.06-.54 0-1 .25-1.84 1.28-2.23 1.81-.31.42-.5 1.24-.55 1.6l.63.59c.46.2.73-.03.81-.16A4.34 4.34 0 017.7 6.32c.2-.1.21-.4.19-.53-.05-.25-.14-.79-.2-.94zm5.32 2.96c.26.46.2.8.11.95 0-.15-.16-.29-.24-.33-.1.02-.36.05-.6 0a.9.9 0 01-.64-.44c-.13-.22.14-.64.63-.8.4-.13.6.33.74.62z" fill="#fff"/><path d="M5.84 9.39c2.28.74 4.8.17 5.78-.2-1.2 0-6.24 0-7.32-.35-.05.18-.06.55.22.55h1.32z" fill="#252528"/><defs><linearGradient id="awcgdpyx4" x1="9.65" y1="8" x2="4.93" y2="11.9" gradientUnits="userSpaceOnUse"><stop stop-color="#5B5E65"/><stop offset=".84" stop-color="#B0ACB0"/></linearGradient><linearGradient id="bwcgdpyx4" x1="5.37" y1="6.06" x2="12.88" y2="8.66" gradientUnits="userSpaceOnUse"><stop stop-color="#9C95A1"/><stop offset=".44" stop-color="#6A6874"/><stop offset=".69" stop-color="#76727D"/><stop offset="1" stop-color="#958D98"/></linearGradient></defs></svg>