<!-- by TradingView --><svg width="18" height="18" xmlns="http://www.w3.org/2000/svg"><path fill="#0C609A" d="M0 0h18v18H0z"/><path fill-rule="evenodd" d="M9 14A5 5 0 109 4a5 5 0 000 10zm0 1A6 6 0 109 3a6 6 0 000 12z" fill="#fff"/><path d="M10.925 11.994l-1.3-2.081c.813-.044.838-.105.993-.203l1.472 2.284h-1.165z" fill="#7FBBDE"/><path d="M6.694 6.004L5.796 7h1.916v-.996H6.694zm1.338 0h.638V7h-.638v-.996zm2.2 0H8.99V7h1.159c.328 0 .856.374.852.998-.004.625-.491 1.001-.852 1.001h-.585V10C10.148 9.933 12 10 12 8c0-1.757-1.183-1.998-1.768-1.996zM6 9h1v2.996H6V9z" fill="#fff"/><path d="M7 9h2.628v1H7V9z" fill="#7FBBDE"/></svg>