<!-- by TradingView --><svg width="18" height="18" viewBox="0 0 18 18" xmlns="http://www.w3.org/2000/svg"><path fill="#F0F3FA" d="M0 0h18v18H0z"/><path d="m8.41 5-.13 1.21a5.8 5.8 0 0 0-.68.12L6.9 5.3l-1.16.44.39 1.18c-.23.13-.45.28-.66.43L4.3 6.58l-.9.82.95 1.08c-.18.23-.33.48-.47.73l-1.38-.3L2 10l1.32.67c-.1.43-.15.87-.15 1.33h1.16V8.77l.67.21v.28l-.35-.15V12h.85V7.65l.96.23v.29l-.64-.18V12h.87V7.08l2.17.35V7.1h.18v.35l.53.08V6.9h.17v.67l.53.08v-.94h.18v.97l.86.14V12h.92V8.87l-.31-.1v-.29l.63.2V12h.8V9.68L13 9.55v-.29l.67.2V12h1.16c0-.46-.05-.9-.15-1.33L16 10l-.5-1.08-1.38.29c-.13-.25-.3-.5-.47-.73l.95-1.08-.9-.82-1.17.77c-.21-.15-.43-.3-.66-.43l.4-1.18-1.16-.44-.71 1.03c-.23-.05-.45-.1-.68-.12L9.58 5H8.4Zm2.6 7V8.04L7 7.5V12h1.42v-1h1.16v1H11Z" fill="#1C3664"/></svg>