<!-- by TradingView --><svg width="18" height="18" viewBox="0 0 18 18" xmlns="http://www.w3.org/2000/svg"><path fill="#F0F3FA" d="M0 0h18v18H0z"/><path d="M15 7.83c0-.32-1.3-.76-1.5-.83-1 2.5-3.93 3.82-4.44 4.35C14.2 9.27 15 8.23 15 7.83Z" fill="#070946"/><path d="M8.1 6c-1.4 0-5.32.19-7.1.28 8.2-.23 11 .7 11 1.93C12 10 6.91 12.15 5.39 13 10.32 11.13 14 8.91 14 7.5 14 6.09 9.85 6 8.1 6Z" fill="url(#avay1pokk)"/><defs><linearGradient id="avay1pokk" x1="14.03" y1="6.77" x2="4.57" y2="13.06" gradientUnits="userSpaceOnUse"><stop stop-color="#B4C1E3"/><stop offset=".4" stop-color="#13527D"/></linearGradient></defs></svg>