<!-- by TradingView --><svg width="18" height="18" viewBox="0 0 18 18" xmlns="http://www.w3.org/2000/svg"><path fill="#F0F3FA" d="M0 0h18v18H0z"/><path d="M9.57 3v1.7C12.07 4.49 12 6.02 12 6.38v.07a.69.69 0 0 1-.68.6.67.67 0 1 1 .28-1.29c-.23-.47-.7-.98-2.03-.76v6.26c-.01.26-.02.53.27.57l.18.01H10.48V12H7.57v-.16h.16c.16.01.33.02.48-.03.27-.07.27-.37.27-.61V5.32C7.48 5.8 7.04 6.69 7 7.16v2.98c0 .4.3.7.72.7h.32v.15H5v-.15c.22 0 .37-.01.59-.05.28-.08.41-.38.41-.63v-4.1c0-.38-.37-.6-.54-.6H5v-.15h.64c.47 0 .87 0 1.36-.12v.86c.21-.4.83-.86 1.48-1.11V3.89c0-.38-.28-.6-.64-.6H7.4l-.01-.07v-.07c.02-.02.05-.02.07-.02h.58A6.1 6.1 0 0 0 9.57 3ZM12 7.64v.07l-.01 5.1c0 .86-.37 1.94-1.3 2.15-.44.1-.86.03-1.25-.21a1.03 1.03 0 0 1-.46-1.09c.1-.35.46-.5.8-.43a.5.5 0 0 1 .4.44c.03.21-.08.35-.19.48-.08.11-.17.22-.17.36 0 .35.38.4.67.31.33-.1.51-.79.51-1.2v-5.1c0-.34-.1-.61-.46-.61H10.07a.3.3 0 0 1 0-.1v-.05l.06-.01h.42a8.66 8.66 0 0 0 1.1-.08l.1-.02.19-.03H12v.02Z"/></svg>