<!-- by TradingView --><svg width="18" height="18" viewBox="0 0 18 18" xmlns="http://www.w3.org/2000/svg"><path fill="#F0F3FA" d="M0 0h18v18H0z"/><path d="M11.54 13a2.63 2.63 0 0 1-2.29 1.22c-1 0-1.84-.49-2.29-1.22H6c.51 1.19 1.77 2 3.25 2s2.74-.81 3.25-2h-.96Z" fill="#56BE91"/><path d="M9.14 8.67A1.79 1.79 0 0 1 7.3 6.89c0-1 .82-1.72 1.84-1.72 1.05 0 1.92.71 1.92 1.72 0 1-.87 1.78-1.92 1.78ZM12.5 12a3.69 3.69 0 0 0-1.42-2.81 2.8 2.8 0 0 0 1.24-2.3C12.32 5.26 10.9 4 9.14 4 7.44 4 6.07 5.2 6 6.76V12h1.3V9.36c.92.46 1.9.32 2.63.66s1.25.95 1.25 1.98h1.32Z" fill="#463966"/></svg>