<!-- by TradingView --><svg width="18" height="18" viewBox="0 0 18 18" xmlns="http://www.w3.org/2000/svg"><path d="M6.38 6.2c-.5-.11-.96.32-1.13.55A4.4 4.4 0 0 0 5 8.13c-.01.82.21 1.48.38 1.78.1-.44.7-.55 1-.55.3-.33 1.12-.41 1.5-.41.8-.44 1.83-.18 2.25 0 .8-.11 1.33.23 1.5.41.7 0 .96.37 1 .55.25-.55.37-1.23.37-1.78s-.16-1.09-.25-1.38c-.3-.55-.87-.6-1.12-.55-.3-.55-1.21-.6-1.63-.55-.7-.44-1.62-.18-2 0-.87-.14-1.42.28-1.62.55Z" fill="#FAFCFB"/><path d="M6.38 6.2c-.6 0-1 .37-1.13.55a3.35 3.35 0 0 1 1.5-2.06c-.37.41-.37 1.19-.37 1.51ZM11.63 6.2c.6 0 1 .37 1.12.55a3.35 3.35 0 0 0-1.5-2.06c.38.41.38 1.19.38 1.51Z" fill="#A21420"/><path d="M8 5.65c-.9-.11-1.46.32-1.62.55-.1-.99.2-1.42.37-1.51.2-.44 1-.55 1.38-.55-.1.44-.13 1.19-.13 1.51ZM10 5.65c.9-.11 1.46.32 1.63.55.1-.99-.21-1.42-.38-1.51-.2-.44-1-.55-1.37-.55.1.44.12 1.19.12 1.51Z" fill="#C8162C"/><path d="M10 5.65c-.7-.44-1.62-.18-2 0 0-.66.08-1.28.13-1.51C8.2 4.09 8.5 4 9 4s.8.1.88.14c.1.33.12 1.14.12 1.51Z" fill="#D71E2C"/><path d="M9 14.45h-.5l.25.55H9v-.55Z" fill="#404040"/><path d="M9.5 14.45H9V15h.25l.25-.55Z" fill="#616065"/><path d="M8.75 13.9H8.5c-.7-.44-2.37-2.84-3.12-3.99.1-.44.7-.55 1-.55.2 1 1.66 3.44 2.37 4.54ZM9.25 13.9h.25c.7-.44 2.38-2.84 3.13-3.99-.1-.44-.71-.55-1-.55-.2 1-1.67 3.44-2.38 4.54Z" fill="#062F6F"/><path d="M7.88 8.95c-.7-.11-1.3.23-1.5.41.2 1.1 1.66 3.49 2.37 4.54-.37-.83-.79-3.62-.87-4.95ZM10.13 8.95c.7-.11 1.25.14 1.5.41-.2 1.1-1.67 3.49-2.38 4.54.25-.83.8-3.62.88-4.95Z" fill="#00368C"/><path d="M9 8.67c-.6 0-1 .19-1.12.28.1 2.53.37 3.99.87 4.95h.5c.63-1.1.8-3.67.88-4.95-.13-.1-.53-.28-1.13-.28Z" fill="#003EA5"/></svg>