<!-- by TradingView --><svg width="18" height="18" viewBox="0 0 18 18" xmlns="http://www.w3.org/2000/svg"><path fill="url(#a)" d="M0 0h18v18H0z"/><path d="M12.52 7.43a1.97 1.97 0 0 0-2.15-1.93H7.64c-.26 0-.45.01-.57.04a1.9 1.9 0 0 0-1.34.98c-.2.35-.25.73-.25 1.13v1.32c0 .03-.01.03-.03.03H5V9L5 7.72c0-.26.01-.46.03-.59A2.46 2.46 0 0 1 7.65 5h2.96c.3 0 .6.06.9.2a2.54 2.54 0 0 1 .45 4.36c-.35.25-.76.4-1.21.43l-.58.01a827.6 827.6 0 0 1-2.3 0l-.01-.02v-.46a805.46 805.46 0 0 0 2.51-.02 1.99 1.99 0 0 0 2.15-2.07Z" fill="#fff"/><path d="M6.72 7.5c.03.23.25.4.48.36.23-.03.4-.25.37-.48a.43.43 0 0 0-.49-.37.43.43 0 0 0-.36.48ZM8.43 7.5c.04.23.26.39.5.35.23-.03.39-.25.35-.48A.43.43 0 0 0 8.8 7a.43.43 0 0 0-.36.5ZM10.15 7.47c.02.24.23.41.47.38.23-.02.4-.23.38-.47a.43.43 0 0 0-.48-.38.43.43 0 0 0-.37.47ZM5.48 10.34c0 .04.01.04.03.01a2.35 2.35 0 0 1 1.88-.83l.01.02v.44l-.01.01c-.64.04-1.15.21-1.54.66-.17.2-.28.41-.33.67-.03.12-.04.3-.04.56A1248.85 1248.85 0 0 0 5.45 13h-.43A.01.01 0 0 1 5 13V9.48c0-.02 0-.04.02-.04h.44l.02.03v.86ZM12.04 12.36a.3.3 0 0 0 .22.16l.07.02.02.02v.42c0 .02 0 .02-.02.02-.4-.02-.72-.25-.81-.6a569.75 569.75 0 0 1 0-1.98h.47l.02.01-.01.02v1.74c0 .07.03.13.04.17Z" fill="#fff"/><path fill-rule="evenodd" d="M7.19 12.44c-.03-.03-.08-.18-.02-.21a.49.49 0 0 1 .23-.05h.62c.35-.02.63-.21.6-.52-.03-.58-.82-.79-1.37-.59-.28.1-.45.28-.52.52a.98.98 0 0 0-.01.25v.19c0 .15-.01.31.03.43.24.7 1.49.72 1.83.08v-.02l-.01-.01h-.01l-.35-.11h-.02c-.2.32-.78.33-1 .04Zm-.04-.6h.77c.17 0 .34-.04.28-.22a.33.33 0 0 0-.2-.2c-.25-.11-.6-.09-.78.1-.09.1-.09.22-.08.32h.01ZM10.53 11.56c.03.04.08.18.02.22a.49.49 0 0 1-.24.04H9.7c-.36.01-.63.21-.61.52.03.58.82.78 1.37.59.28-.1.46-.27.52-.52a1 1 0 0 0 .02-.25v-.19c0-.15 0-.31-.03-.43-.24-.7-1.49-.72-1.83-.08v.03h.02l.35.11h.02c.19-.32.78-.33 1-.04Zm.03.6-.77.01c-.17 0-.33.03-.27.21.03.1.1.17.2.21.25.1.6.08.78-.12.09-.09.08-.2.07-.3v-.01h-.01Z" fill="#fff"/><defs><linearGradient id="a" x1="9" y1="0" x2="9" y2="18" gradientUnits="userSpaceOnUse"><stop stop-color="#38F74F"/><stop offset="1" stop-color="#12BE1E"/></linearGradient></defs></svg>