<!-- by TradingView --><svg xmlns="http://www.w3.org/2000/svg" width="18" height="18"><path fill="#F0F3FA" d="M0 0h18v18H0z"/><path fill-rule="evenodd" d="M9 14A5 5 0 109 4a5 5 0 000 10zm0 1A6 6 0 109 3a6 6 0 000 12z" fill="#3A8AC7"/><path fill-rule="evenodd" d="M9 11.5a2.5 2.5 0 100-5 2.5 2.5 0 000 5zm0 1a3.5 3.5 0 100-7 3.5 3.5 0 000 7z" fill="#3A8AC7"/><path opacity=".6" d="M14.22 6.04a6.01 6.01 0 00-3.62-2.82l-.26.96a5.01 5.01 0 013.01 2.36l.87-.5zm-9.56 5.44a5.01 5.01 0 003.02 2.34l-.27.97a6.01 6.01 0 01-3.62-2.81l.87-.5zm7.38-.74a3.5 3.5 0 01-2.1 1.63l-.27-.96a2.5 2.5 0 001.5-1.17l.87.5zM8.07 5.62a3.5 3.5 0 00-2.12 1.66l.87.5c.33-.58.87-1.01 1.52-1.2l-.27-.96z" fill="#F0F3FA"/></svg>