<!-- by TradingView --><svg width="18" height="18" viewBox="0 0 18 18" xmlns="http://www.w3.org/2000/svg"><path fill="#CA1001" d="M0 0h18v18H0z"/><path d="M14 9.18c0 1.68-.79 3.17-2 4.11v-2.18l-1.36-2.8c.22-.34.36-.75.36-1.2 0-1.13-.9-2.05-2-2.05s-2 .92-2 2.06c0 .44.14.85.36 1.18L6 11.11v2.18a5.19 5.19 0 0 1-2-4.11 5.07 5.07 0 0 1 5-5.15c2.76 0 5 2.3 5 5.15Zm-3 4.71V15c2.33-.85 4-3.14 4-5.82A6.09 6.09 0 0 0 9 3C5.69 3 3 5.76 3 9.18A6.17 6.17 0 0 0 7 15v-3h4v1.9ZM9.85 9l.98 2.01H7.17l.98-2.02a1.95 1.95 0 0 0 1.7 0ZM10 7.11c0 .57-.45 1.03-1 1.03s-1-.46-1-1.03c0-.57.45-1.03 1-1.03s1 .46 1 1.03Z" fill="#FBFFFD"/></svg>