<!-- by TradingView --><svg width="18" height="18" xmlns="http://www.w3.org/2000/svg"><path fill="#F80" d="M0 0h18v18H0z"/><circle cx="9" cy="9" r="5" fill="#fff"/><path d="M8.16 10l-.34 2H6l1-6h2.714c.43 0 .818.044 1.12.088 1.261.183 1.683 1.536.86 2.54-.215.263-.473.438-.86.57.493.166.817.386.817.963 0 .491-.172.96-.172 1.445 0 .131.043.219.13.219l-.044.175H9.542v-.175-.35c0-.132.043-.307.086-.482s.043-.35.043-.482C9.67 10 9.158 10 8.763 10H8.16zm.262-1.416h.775c.301 0 .517-.044.689-.131.578-.339.388-1.052-.388-1.052h-.904l-.172 1.183z" fill="#0074AE"/></svg>