<!-- by TradingView --><svg width="18" height="18" viewBox="0 0 18 18" xmlns="http://www.w3.org/2000/svg"><path fill="#F0F3FA" d="M0 0h18v18H0z"/><path d="m9.03 5.2-5.96.83A.98.98 0 0 0 2.2 7v4.12c0 .49.38.9.88.96l5.95.73 5.89-.73c.5-.06.88-.47.88-.96V6.99c0-.48-.37-.89-.87-.96l-5.9-.83Z"/><path d="m9.03 5 5.93.84c.6.08 1.04.58 1.04 1.15v4.12c0 .58-.45 1.08-1.06 1.15L9.03 13l-5.97-.74A1.18 1.18 0 0 1 2 11.11V6.99c0-.57.44-1.07 1.04-1.15L9.03 5Zm0 .4-5.93.83c-.4.05-.7.38-.7.76v4.12c0 .39.3.72.71.77l5.92.73 5.86-.73c.4-.05.7-.38.7-.77V6.99c0-.38-.29-.7-.69-.77L9.03 5.4Z" fill="#FECC0C"/><path d="m9 10.47.2.46.51.04-.39.32.12.47-.43-.25-.44.25.12-.47-.38-.32.5-.04.2-.46Z" fill="#FECC0C"/><path d="M13.96 9.9a43 43 0 0 0-10.08 0l-.26-1.98c1.78-.24 6.35-.57 10.6 0l-.26 1.98Z" fill="#FECC0C" fill-opacity=".9"/></svg>