<!-- by TradingView --><svg width="18" height="18" xmlns="http://www.w3.org/2000/svg"><path fill="#337C97" d="M0 0h18v18H0z"/><path d="M11.281 4.711c-.922.66-1.751 1.416-2.074 2.548-.83 2.265-1.52 4.577-2.258 6.842-.507.141-.922.519-1.336.896.83-2.453 1.659-5.048 2.488-7.55.738-1.225 1.844-2.264 3.134-2.783l.046.047z" fill="#fff"/><path d="M12.526 14.293l1.06-1.223-.022.184-.025.194c-.553.519-1.06 1.364-1.843 1.552-.645 0-.737-.707-.968-1.179-.322-1.133-.415-2.45-.921-3.488-.277-.236-.508-.755-.922-.566v-.142c1.566-.66 3.364-1.84 3.825-3.586 0-1.18-.646-2.123-1.66-2.5-1.705-.52-3.87-.189-5.484.896-.737.614-1.474 1.368-1.336 2.407.138.613.645 1.132 1.29 1.18.323.047.646 0 .922-.142.047.33-.368.283-.553.425-.553.047-.875 0-1.244-.33-.46-.378-.6-.85-.645-1.416.184-1.605 1.659-2.548 2.949-3.068 1.89-.708 4.47-.708 6.13.378.645.472.829 1.085.921 1.793-.276 2.36-2.719 2.925-4.424 3.822 2.028.52 1.844 3.062 2.49 4.667.091.142.275.283.46.142z" fill="#fff"/></svg>