<!-- by TradingView --><svg width="18" height="18" viewBox="0 0 18 18" xmlns="http://www.w3.org/2000/svg"><path fill="#F0F3FA" d="M0 0h18v18H0z"/><path fill-rule="evenodd" d="M10.76 9.37a21.13 21.13 0 0 0 0-.74l.33.37-.33.37ZM10.42 9l-.01-.75a21.63 21.63 0 0 0-.66-.66 22.91 22.91 0 0 0-1.5 0 21.33 21.33 0 0 0-.66.66 22.9 22.9 0 0 0 0 1.5 21.32 21.32 0 0 0 .66.66 22.95 22.95 0 0 0 1.5 0 21.85 21.85 0 0 0 .66-.66l.01-.75Zm-1.05 1.76a20.21 20.21 0 0 1-.74 0l.37.33.37-.33Zm-1.68-.38-.04-.03-.03-.04v.07h.07Zm-.04.34.41.02.66.6c-.32.25-.62.5-.92.7-.07-.4-.12-.85-.15-1.32Zm-.37-.37-.02-.41-.6-.66c-.25.32-.5.62-.7.92.4.07.85.12 1.32.15Zm-1.52.14c.47.09 1 .16 1.55.2.04.56.11 1.08.2 1.55-1.2.81-2.18 1.15-2.54.79-.36-.36-.02-1.34.79-2.54Zm-.35-.08C3.95 10.1 3 9.58 3 9s.95-1.1 2.41-1.41c-.12-.2-.23-.38-.32-.56a.33.33 0 1 1 .26-.18l.4.66c.48-.09 1-.16 1.56-.2.04-.56.11-1.08.2-1.55-1.2-.81-2.18-1.15-2.54-.79-.11.12-.27.62-.32 1.04-.16-.57-.14-1 .1-1.25.45-.45 1.54-.16 2.84.65C7.9 3.95 8.42 3 9 3s1.1.95 1.41 2.41c.2-.12.38-.23.56-.32a.33.33 0 1 1 .18.26l-.66.4c.09.48.16 1 .2 1.56.56.04 1.08.11 1.55.2.81-1.2 1.15-2.18.79-2.54a2.53 2.53 0 0 0-1.04-.32c.57-.16 1-.14 1.25.1.45.45.16 1.54-.65 2.84C14.05 7.9 15 8.42 15 9c0 .32-.3.63-.8.89.25-.3.5-.74.5-.89 0-.47-.9-.88-2.29-1.14-.24.37-.52.75-.84 1.14.32.39.6.77.84 1.14l.7-.16a.3.3 0 0 1 .3-.2c.18 0 .33.13.33.3 0 .17-.15.3-.33.3a.36.36 0 0 1-.25-.1l-.57.13c.81 1.3 1.1 2.39.65 2.83-.44.45-1.53.16-2.83-.65C10.1 14.05 9.58 15 9 15c-.32 0-.63-.3-.89-.8.3.25.74.5.89.5.47 0 .88-.9 1.14-2.29A14.4 14.4 0 0 1 9 11.57c-.39.32-.77.6-1.14.84l.16.7c.12.04.2.16.2.3 0 .18-.13.33-.3.33-.17 0-.3-.15-.3-.33 0-.1.04-.19.1-.25l-.13-.57c-1.3.81-2.39 1.1-2.83.65-.45-.44-.16-1.53.65-2.83Zm.18-.27C4.2 9.88 3.3 9.47 3.3 9c0-.47.9-.88 2.29-1.14.24.37.52.75.84 1.14-.32.39-.6.77-.84 1.14Zm.37-2.34c.2.3.45.6.7.92l.6-.66.02-.41c-.47.03-.91.09-1.32.15Zm1.66-.18v.07l.03-.04.04-.03h-.07Zm1-.38a20.65 20.65 0 0 1 .75 0L9 6.9l-.37.33Zm1.7.38.03.03.03.04v-.07h-.07Zm.03-.34-.41-.02-.66-.6c.32-.25.62-.5.92-.7.06.4.12.85.15 1.32Zm.37.37.02.41.6.66c.25-.32.5-.62.7-.92-.4-.06-.85-.12-1.32-.15Zm-2.66-.4-.41.03c.03-.47.08-.91.15-1.32.3.2.6.45.92.7l-.66.6Zm3.98 2.95c-.2-.3-.45-.6-.7-.92l-.6.66-.02.41c.47-.03.91-.09 1.32-.15Zm-1.35.5c.56-.05 1.08-.13 1.55-.21.81 1.2 1.15 2.18.79 2.54-.36.36-1.34.02-2.54-.79.09-.47.16-1 .2-1.55Zm-.34.02c-.03.47-.09.91-.15 1.32-.3-.2-.6-.45-.92-.7l.66-.6.41-.02Zm.03-.34h-.07l.04-.03.03-.04v.07Zm-2.52-4.8c.37.25.75.53 1.14.85.39-.32.77-.6 1.14-.84C9.88 4.2 9.47 3.3 9 3.3c-.47 0-.88.9-1.14 2.29ZM6.91 9l.33.37a20.74 20.74 0 0 1 0-.74L6.9 9Z" fill="#256F3E"/><circle cx="9" cy="9" r="1" fill="#FFB14C"/></svg>