<!-- by TradingView --><svg xmlns="http://www.w3.org/2000/svg" width="18" height="18" viewBox="0 0 18 18"><path fill="#F0F3FA" d="M0 0h18v18H0z"/><path fill-rule="evenodd" d="M4.34 6H2v6h1v-2h1.2l1 2h1.14L5.23 9.8A2 2 0 0 0 4.34 6zM4.3 7H3v2h1.3a1 1 0 1 0 0-2zm5.05-1H7v6h1v-2h1.2l1 2h1.14l-1.11-2.2A2 2 0 0 0 9.34 6zM9.3 7H8v2h1.3a1 1 0 0 0 0-2zm5.54-1h1.16L14.4 8.97 16 12h-1.12l-1.05-1.97L12.78 12h-1.12l1.6-3.03L11.68 6h1.15l1 1.89 1-1.89z" fill="url(#awyacrlhj)"/><defs><linearGradient id="awyacrlhj" x1="2" y1="8.8" x2="14.99" y2="9.33" gradientUnits="userSpaceOnUse"><stop stop-color="#011789"/><stop offset="1" stop-color="#3F59C5"/></linearGradient></defs></svg>