<!-- by TradingView --><svg width="18" height="18" viewBox="0 0 18 18" xmlns="http://www.w3.org/2000/svg"><path fill="#F0F3FA" d="M0 0h18v18H0z"/><path d="M5.5 11A17.26 17.26 0 0 1 2 13h9.27c0-.74.11-1.64.17-2H5.5Z"/><path d="M6.06 13c.87-.9 1.52-1.71 1.73-2h.92c-.38.68-1.12 1.61-1.44 2h-1.2Z" fill="#FEC331"/><path d="M12.57 5c-2.7.62-4.66 1.96-5.3 2.56h5.38C13.43 6.19 15.21 5.28 16 5h-3.43Z"/><path d="M14.42 5A8.85 8.85 0 0 0 9.7 7.56h.9c.97-1.34 3.28-2.27 4.31-2.56h-.5Z" fill="#FEC331"/><path d="m8.64 8.38-.2.46h-.71l.18-.37a.12.12 0 0 0-.11-.17h-.25c-.05 0-.09.03-.1.07L6.8 9.81c-.04.08.02.17.1.17h.2c.05 0 .1-.03.12-.07l.25-.43h.71l-.29.53a.86.86 0 0 1-.71.43H6.7a.6.6 0 0 1-.56-.85l.58-1.23c.14-.3.44-.48.76-.48h.83c.26 0 .44.26.33.5Z"/><path fill-rule="evenodd" d="m8 10.44.21-.45h.18l.76-1.67h-.23l.23-.44h1.56c.26 0 .44.28.32.53l-.39.8a.48.48 0 0 1-.43.27h-.87l-.23.51h.23l-.2.45H8Zm1.58-1.48.29-.62h.29c.09 0 .15.1.1.18l-.18.38a.12.12 0 0 1-.1.06h-.4Z"/><path d="M12.6 7.88h-1.11l-.23.5h.23L10.74 10h-.21l-.19.45h1.15l.2-.45h-.24l.72-1.6h.2l.23-.51Z"/></svg>