<!-- by TradingView --><svg xmlns="http://www.w3.org/2000/svg" width="18" height="18" viewBox="0 0 18 18"><path fill="#F0F3FA" d="M0 0h18v18H0z"/><path fill-rule="evenodd" d="M9 14A5 5 0 1 0 9 4a5 5 0 0 0 0 10Zm-.05-1.98a3.12 3.12 0 1 0 0-6.25 3.12 3.12 0 0 0 0 6.25Z" fill="#9CC8A8"/><path fill-rule="evenodd" d="M9 14A5 5 0 1 0 9 4a5 5 0 0 0 0 10Zm-.05-1.72c1.87 0 3.38-1.5 3.38-3.36a3.37 3.37 0 0 0-3.38-3.36 3.37 3.37 0 0 0-3.39 3.36 3.37 3.37 0 0 0 3.39 3.36Z" fill="#338BAD"/><path fill-rule="evenodd" d="M9 14A5 5 0 1 0 9 4a5 5 0 0 0 0 10Zm-.31-1.72a3.75 3.75 0 1 0 0-7.5 3.75 3.75 0 0 0 0 7.5Z" fill="#F28128"/><path fill-rule="evenodd" d="M9 14A5 5 0 1 0 9 4a5 5 0 0 0 0 10Zm.17-1.56A3.8 3.8 0 0 0 12.9 8.7c0-1.94-1.66-3.3-3.74-3.3S5.4 6.98 5.4 8.92c0 1.94 1.68 3.52 3.76 3.52Z" fill="#9FC89B"/><path fill-rule="evenodd" d="M9 14A5 5 0 1 0 9 4a5 5 0 0 0 0 10Zm.16-1.15a3.74 3.74 0 0 0 3.75-3.72 3.74 3.74 0 0 0-3.75-3.72A3.74 3.74 0 0 0 5.4 9.13a3.74 3.74 0 0 0 3.75 3.72Z" fill="#F4D20D"/><path fill-rule="evenodd" d="M9 14A5 5 0 1 0 9 4a5 5 0 0 0 0 10Zm.16-.68c2.3 0 4.16-1.85 4.16-4.14a4.15 4.15 0 0 0-4.16-4.14 4.15 4.15 0 0 0-4.17 4.14 4.15 4.15 0 0 0 4.17 4.14Z" fill="#2F90BF"/><path fill-rule="evenodd" d="M9 14A5 5 0 1 0 9 4a5 5 0 0 0 0 10Zm.18-.42a4.43 4.43 0 0 0 4.46-4.4c0-2.43-2-4.4-4.46-4.4a4.43 4.43 0 0 0-4.45 4.4c0 2.43 2 4.4 4.45 4.4Z" fill="#A0C899"/><path d="M5.07 6.08c.35-.47.77-.87 1.25-1.2a4.22 4.22 0 0 1 2.9-.56h-.2c-2.54 0-4.61 2.15-4.7 4.86a4.77 4.77 0 0 1 .13-1.3c.07-.65.27-1.27.62-1.8Z" fill="#F48325"/><path fill-rule="evenodd" d="M9 14A5 5 0 1 0 9 4a5 5 0 0 0 0 10Zm0-.31a4.69 4.69 0 0 0 .22-9.37 4.12 4.12 0 0 0-4.77 3.57A4.7 4.7 0 0 0 9 13.69Z" fill="#312345"/></svg>