<!-- by TradingView --><svg width="18" height="18" viewBox="0 0 18 18" xmlns="http://www.w3.org/2000/svg"><path fill="#F0F3FA" d="M0 0h18v18H0z"/><path d="M4.35 8.94a4.72 4.72 0 0 1 3.06-4.66 4.62 4.62 0 0 1 3.87.33 4.77 4.77 0 0 1 2.37 4.29c0 3-3.03 5.17-5.8 4.41a4.67 4.67 0 0 1-3.5-4.37Zm.32.83a4.44 4.44 0 0 0 8.65.1 4.6 4.6 0 0 0-1.09-4.22c-3.12-3.32-8.55-.37-7.56 4.12Z" fill="#BFBAAA"/><path d="M13.31 9.87c-.1.16-.25.3-.33.47a4.35 4.35 0 0 1-2.02 1.94 5.2 5.2 0 0 1-.86.36c-1.13.24-2.21.1-3.25-.41-.14-.07-.4-.26-.79-.57-.63-.5-.94-1.23-1.4-1.89-.98-4.49 4.45-7.44 7.57-4.12a4.6 4.6 0 0 1 1.08 4.22ZM9.66 4.5a3.98 3.98 0 0 0-3.42 1.04 3.63 3.63 0 0 0 .49 5.9 4.34 4.34 0 0 0 5.4-.71c2.13-2.32.32-5.8-2.47-6.23Z" fill="#44511D"/><path d="M9.66 4.5c2.8.44 4.6 3.9 2.48 6.23a4.34 4.34 0 0 1-5.41.71 3.63 3.63 0 0 1-.5-5.9c1-.9 2.14-1.24 3.43-1.04Zm-.81.13-.4.08c-.15-.01-.3.01-.46.07-1.01.26-2 .98-2.5 1.93-.03.06-.01.11.05.15v.05l.01.02a.03.03 0 0 0 .04.01l.02-.01.14-.28a.07.07 0 0 1 .05-.04.73.73 0 0 0 .43-.22c.07-.06.15-.1.24-.12h.07c.25.08.49.04.7-.12a.05.05 0 0 0 .03-.05c-.02-.11.02-.2.1-.26a.1.1 0 0 0 .04-.06c.05-.23.15-.45.29-.64a.05.05 0 0 1 .05-.01c.01 0 .02 0 .02.02l.01.02v.07c-.2.38-.24.8-.1 1.25v.06l-.22.43c-.01.03-.03.04-.06.03l-.17-.06h-.05l-.6.27a.04.04 0 0 0-.02.03.05.05 0 0 0 .02.04c.16.15.34.26.55.33.03 0 .05.03.07.06.01.02.02.06.01.09l-.09.48-.09.24c0 .03-.02.04-.04.05-.23.1-.47.2-.6.45-.2.18-.3.46-.4.62l-.34.51.28.42.08.02c.2.26.42.47.68.63a.1.1 0 0 0 .06.02h.03c.02 0 .03 0 .04.03.02.04.06.08.12.11.37.2.72.33 1.04.4l.18.05c.1.06.2.08.29.04h.06c.6.08.99 0 1.52-.09.33-.08.63-.2.9-.36.3-.15.57-.34.82-.57l.14-.12c.6-.62.92-1.37.97-2.26.05-.16 0-.26-.13-.3a.02.02 0 0 1-.01 0 .02.02 0 0 1 0-.02l.01-.02v-.03a.64.64 0 0 1-.15-.27.06.06 0 0 1 .03-.06l.07-.05h.04l.07.1h.06l.02-.02v-.03a6.18 6.18 0 0 0-.6-1.34 3.77 3.77 0 0 0-2.33-1.63l-.08.01c-.32-.14-.65-.2-1.01-.15Z" fill="#EDF1EB"/><path d="m9.86 4.78.1.2c-.29-.14-.6-.17-.9-.08-.17 0-.32.02-.46.08-.15.06-.27.25-.42.38a.05.05 0 0 1-.07-.02V5.3c.04-.25.48-.52.74-.57l.03-.02c.01-.01.02-.02.01-.04l-.02-.04h-.02c.36-.05.7 0 1.01.14Z" fill="#FCD3B1"/><path d="m8.85 4.63.02.01.02.04v.04l-.04.02c-.26.05-.7.32-.74.57a.05.05 0 0 0 .02.05.05.05 0 0 0 .05 0c.15-.13.27-.32.42-.38.14-.06.3-.08.46-.08-.56.13-.73.48-1.02.92-.11.16-.18.3-.2.44-.06.33 0 .92.35 1.08.01.01.02 0 .03-.01L8.34 7a.1.1 0 0 0 0-.06l-.03-.1a.06.06 0 0 1 .01-.06l.2-.27.06.59a.1.1 0 0 1-.02.06l-.12.22a.08.08 0 0 0 0 .07.2.2 0 0 1-.03.2.06.06 0 0 1-.04.03c-.08 0-.17.1-.29.26 0-.2.16-.66-.23-.62a.06.06 0 0 0-.05.03c-.03.07-.01.15-.03.22-.07.22-.18.41-.34.6-.06 0-.08-.07-.06-.24.02-.28.1-.54.25-.78.01-.02.03-.02.05 0 .03.01.05.01.08-.02.02-.01.02-.03 0-.05-.12-.16 0-.22.02-.34.07-.4-.3-.96.12-1.26a.1.1 0 0 0 .04-.05c.03-.17.1-.33.21-.47a.23.23 0 0 1 .05-.04l.27-.21.39-.08Z" fill="#9F846C"/><path d="m8.46 4.71-.27.2a.23.23 0 0 0-.05.05c-.1.14-.18.3-.21.47a.1.1 0 0 1-.04.05c-.43.3-.05.86-.12 1.26-.02.12-.14.18-.01.34v.05c-.04.03-.06.03-.1.01l-.04.01c-.14.24-.23.5-.25.78-.02.17 0 .25.06.23-.14.12-.24.15-.3.09l.08-.48c.01-.03 0-.07-.01-.1a.13.13 0 0 0-.07-.05 1.5 1.5 0 0 1-.57-.35.05.05 0 0 1 .01-.04l.02-.01.59-.27h.05l.17.06c.03 0 .05 0 .06-.03l.22-.43a.08.08 0 0 0 0-.06c-.14-.45-.1-.87.1-1.25L7.94 5A.07.07 0 0 1 8 4.97c.03 0 .05-.02.05-.05 0-.02 0-.04-.02-.05-.03-.02-.04-.05-.03-.1.16-.05.31-.07.47-.06ZM7.24 7.57l.24-.45c-.04-.02-.08-.02-.13 0a.33.33 0 0 0-.12.14l-.01.02a.38.38 0 0 0-.04.09.3.3 0 0 0 0 .09l.01.07a.1.1 0 0 0 .04.04Z" fill="#FCD3B1"/><path d="M12.86 8.44a.5.5 0 0 0-.29.22l-.02.01a.05.05 0 0 1-.06-.01V8.36l-.01-.06-.2-.2a.15.15 0 0 0-.24 0l-.11.14a.04.04 0 0 1-.06.01.04.04 0 0 1 0-.06c.11-.16.21-.34.3-.53.07-.2.04-.22-.1-.07-.06.06-.12.17-.19.34-.01.03-.03.05-.05.06a.1.1 0 0 1-.09 0 .03.03 0 0 1-.02-.02v-.04c0-.03 0-.04-.03-.04l-.19-.01-.02-.01v-.02c-.03-.3.04-.57-.04-.9a.02.02 0 0 0-.02-.01.02.02 0 0 0-.02.02 2.8 2.8 0 0 1-.09.4c-.06.2-.13.2-.21 0a1.03 1.03 0 0 0-.11-.2.18.18 0 0 1-.03-.07l-.06-.28a.05.05 0 0 0-.06-.04c-.01 0-.02 0-.03.02l-.01.03c0 .4-.07.8-.23 1.17a.09.09 0 0 1-.05.05.8.8 0 0 0-.36.3c.01-.06-.01-.12-.09-.16a.08.08 0 0 0-.05-.02l-.18.03a.59.59 0 0 0-.28.02c-.12-.09-.08-.31.07-.39l.03-.02c.02-.02.02-.05 0-.07l.01-.04.18-.16a.09.09 0 0 0 .03-.06.23.23 0 0 0-.05-.16c.05-.01.09-.04.12-.1.12-.06.22-.2.28-.4.11-.16.17-.26.18-.48 0-.11.03-.22.08-.33a.64.64 0 0 0 0-.26c0-.27-.33-.61-.52-.76l-.1-.2.07-.01H10c.97.26 1.73.8 2.27 1.63a6.18 6.18 0 0 1 .59 1.37l-.02.02a.04.04 0 0 1-.06 0l-.07-.1h-.04l-.07.05a.06.06 0 0 0-.03.06c.03.1.08.2.15.27v.05h-.01v.01a.02.02 0 0 0 .01.02c.14.03.18.13.13.3ZM7.99 4.78c0 .04 0 .07.03.1l.02.04c0 .03-.02.05-.05.05a.07.07 0 0 0-.05.03l-.16.24v-.07a.05.05 0 0 0-.03-.04.04.04 0 0 0-.05.01c-.14.2-.24.4-.29.64a.1.1 0 0 1-.04.06c-.08.06-.12.15-.1.26 0 .02 0 .04-.03.05a.77.77 0 0 1-.7.12h-.07a.51.51 0 0 0-.24.12.73.73 0 0 1-.43.22.07.07 0 0 0-.05.04l-.14.28a.03.03 0 0 1-.04.01l-.02-.01v-.06a.02.02 0 0 0-.01-.01c-.06-.04-.08-.09-.05-.15A4.01 4.01 0 0 1 8 4.78Z" fill="#CCDEE3"/><path d="M9.97 4.98c.2.15.52.49.52.76.08.09.04.19 0 .26a.76.76 0 0 0-.08.33c0 .22-.07.32-.18.48l.03-.33v-.02a.03.03 0 0 0-.03-.02h-.1a.04.04 0 0 1-.04-.03V6.4c0-.1-.03-.14-.11-.14a.03.03 0 0 1-.03-.02.03.03 0 0 1 0-.03c.04-.14.14-.2.3-.19.04 0 .07-.01.07-.06.05-.32-.07-.55-.35-.68a.06.06 0 0 1-.04-.06v-.06c0-.02 0-.03-.03-.03h-.02l-.02.04c-.09.26-.5.03-.63.42-.15.51-.63.38-.7.92l-.2.27a.06.06 0 0 0-.02.05l.03.1a.1.1 0 0 1 0 .07l-.12.33c0 .02-.02.02-.03.01-.36-.16-.41-.75-.35-1.08.02-.13.09-.28.2-.44.29-.44.46-.79 1.02-.92.3-.09.61-.06.9.08Zm-.95.48c-.24.33-.62.47-.71.93a.02.02 0 0 0 .01.02.02.02 0 0 0 .02-.01c.1-.18.22-.34.37-.47.15-.13.25-.1.33-.32.07-.19.24-.31.4-.4v-.02a.03.03 0 0 0 0-.03h-.01c-.14-.03-.35.2-.41.3Zm1.26.83.03-.19a.02.02 0 0 0 0-.01H10.18a.1.1 0 0 0-.03.04l-.02.03v.06c0 .02.02.03.03.04l.04.03.04.01h.01a.01.01 0 0 0 .01 0 .02.02 0 0 0 .01 0Z" fill="#171616"/><path d="M10.23 6.8c-.06.22-.16.35-.28.42-.14-.17-.3-.1-.47-.07-.03 0-.03.02 0 .03l.19.18c.02.02.04.02.06 0l.1-.05c.04.04.06.1.05.16 0 .02 0 .04-.03.06l-.18.16v.04c.01.02 0 .05-.01.07l-.03.02c-.15.08-.2.3-.07.39l-.53 1.15a.06.06 0 0 1-.06.03h-.36c-.03 0-.04 0-.06-.02a2.9 2.9 0 0 1-.54-1.27c.02-.1.05-.15.07-.16.12-.16.21-.25.29-.26l.04-.03a.2.2 0 0 0 .02-.2.08.08 0 0 1 0-.07l.13-.22a.1.1 0 0 0 .02-.06l-.06-.59c.08-.54.56-.4.71-.92.12-.4.54-.16.63-.42l.02-.04h.02c.02 0 .03 0 .03.03v.06c0 .02.02.04.04.06.28.13.4.36.35.68 0 .05-.03.07-.08.06-.15-.01-.25.05-.3.2a.03.03 0 0 0 .02.03h.02c.08.01.11.06.1.15a.04.04 0 0 0 .02.03.04.04 0 0 0 .03.01h.1a.03.03 0 0 1 .03.02v.02l-.03.33Z" fill="#FCD3B1"/><path d="M9.02 5.46c.06-.1.27-.33.4-.3a.03.03 0 0 1 .03.01.03.03 0 0 1-.01.03.89.89 0 0 0-.4.41c-.08.22-.18.2-.33.32a1.57 1.57 0 0 0-.38.48.02.02 0 0 1-.02-.01v-.01c.09-.46.47-.6.7-.93Z" fill="#9F846C"/><path d="M10.28 6.3a.02.02 0 0 1-.02 0l-.05-.01a.14.14 0 0 1-.04-.03.1.1 0 0 1-.03-.04v-.06l.02-.03a.1.1 0 0 1 .03-.03l.05-.02h.05a.02.02 0 0 1 .02.01.02.02 0 0 1 0 .01l-.03.2Z" fill="#FCD3B1"/><path d="M12.86 8.44a3.45 3.45 0 0 1-.97 2.26c-.07-.12-.2-.15-.39-.1-.17.05-.2.36-.47.2a.08.08 0 0 0-.06 0l-.2.03c-.17-.1-.34-.1-.51-.17-.14-.05-.18-.23-.3-.22.16-.04.24-.24.24-.6a.48.48 0 0 0 .06-.27v-.02a.02.02 0 0 0-.03 0l-.01.01c-.03.1-.1.15-.2.15-.02 0-.04 0-.05.03l-.08.15c0-.06-.04-.1-.1-.1a.05.05 0 0 1-.05-.05.05.05 0 0 1 .02-.05l.13-.1a.07.07 0 0 0 .02-.05c.02-.1-.02-.16-.1-.17l.2-.51c0-.02.02-.04.04-.05.1-.08.13-.18.12-.32a.1.1 0 0 0-.03-.06l-.1-.12.12.03a.8.8 0 0 1 .36-.3.09.09 0 0 0 .05-.05 2.88 2.88 0 0 0 .24-1.2.05.05 0 0 1 .09.02l.06.28.03.06c.04.07.08.14.1.21.09.2.16.2.22 0a2.78 2.78 0 0 0 .1-.42h.02l.01.01c.08.33 0 .6.03.9l.01.02h.02l.2.02c.01 0 .02.01.02.03v.05l.02.03a.1.1 0 0 0 .09 0l.05-.07c.07-.17.13-.28.19-.34.14-.15.17-.13.1.07a2.63 2.63 0 0 1-.31.56l.01.03a.04.04 0 0 0 .06 0l.11-.15a.16.16 0 0 1 .12-.06.15.15 0 0 1 .12.05l.2.21.02.06-.02.27.01.03a.05.05 0 0 0 .06.01l.02-.01a.5.5 0 0 1 .3-.22Z" fill="#DB9E52"/><path d="M9.95 7.22c-.03.05-.07.08-.12.09l-.1.06h-.06l-.2-.19c-.02-.01-.02-.03.01-.03.17-.03.33-.1.47.07Z" fill="#9F846C"/><path d="M8.08 7.94c-.02 0-.05.06-.07.16-.27.16-.54.28-.77.5l-.05.1c-.01.01-.03.02-.06.01-.38-.1-.6.31-.74.28.13-.24.37-.35.6-.45.02 0 .03-.02.04-.05l.1-.24c.06.06.16.03.3-.09.16-.18.27-.37.34-.6.02-.05 0-.14.03-.2 0-.03.02-.04.05-.04.4-.04.23.41.23.62Z" fill="#CCDEE3"/><path d="M8 8.1c.08.45.26.88.55 1.27l.06.02h.36a.06.06 0 0 0 .06-.03l.53-1.15a.59.59 0 0 1 .28-.02l.2.12.1.12a.1.1 0 0 1 .03.06c.01.14-.03.24-.12.32a.12.12 0 0 0-.04.05l-.2.5a.94.94 0 0 1-.53.46.03.03 0 0 0 0 .04l.11.22.05.04c.13.04.38-.13.45-.23l.08-.15a.06.06 0 0 1 .05-.03c.1 0 .17-.05.2-.15a.02.02 0 0 1 .04 0c0 .1-.02.19-.06.27a.1.1 0 0 0-.03-.08.07.07 0 0 0-.07-.02.07.07 0 0 0-.05.05l-.23.64c-.55.06-.88.18-1.44.4-.06-.36 0-.7.17-1a.1.1 0 0 0-.06-.14l-.04-.02a.7.7 0 0 0-.25-.16.1.1 0 0 1-.06-.05.32.32 0 0 0-.29-.17 2.7 2.7 0 0 0-.61-.68c.23-.22.5-.34.77-.5Z" fill="#B82510"/><path d="M7.24 8.6c.25.2.45.43.61.68.17.16.15.3.2.52 0 .1.02.19.03.29 0 .02 0 .04-.03.04-.2.03-.38.02-.57.09a4.9 4.9 0 0 1-.53.17l-.48-.25c-.21-.17-.55-.03-.82-.02l.33-.51c.1-.16.22-.44.41-.62.15.03.36-.38.74-.28.03.01.05 0 .06-.02l.05-.09Z" fill="#FCD3B1"/><path d="M7.85 9.28c.14 0 .23.06.3.17a.1.1 0 0 0 .05.05c.1.04.18.1.25.16-.02.15-.09.26-.1.39 0 .04-.02.07-.05.08a.17.17 0 0 0-.1.1.24.24 0 0 0-.01.14l.06.32a.07.07 0 0 1-.03.06l-.03.01-.55.1h-.07a1 1 0 0 0-.5.07c-.03.01-.07 0-.1-.02-.07-.18.06-.34-.02-.52.17-.05.35-.1.53-.17.19-.07.37-.06.57-.09.02 0 .03-.02.03-.04 0-.1-.02-.2-.04-.29-.04-.21-.02-.36-.19-.52Zm-.32.98c-.1.13-.2.2-.34.26-.04.01-.06.03-.06.06a.03.03 0 0 0 .03.03h.01c.24-.1.48-.17.74-.21.05-.01.06-.03 0-.06a.96.96 0 0 0-.33-.1c-.02 0-.04 0-.05.02Z" fill="#9F846C"/><path d="m8.45 9.66.04.02a.1.1 0 0 1 .06.06.1.1 0 0 1 0 .08c-.17.3-.23.64-.17 1l-1.46.31a.04.04 0 0 1-.05-.04l.01-.02a.15.15 0 0 0 .03-.14c.02 0 .04 0 .06-.02.03.03.07.03.1.02a1 1 0 0 1 .5-.07h.07l.55-.1a.06.06 0 0 0 .05-.07l-.05-.32c-.01-.05 0-.1.01-.15a.17.17 0 0 1 .1-.1c.03 0 .04-.03.05-.07.01-.13.08-.24.1-.39ZM10.2 9.83c0 .37-.08.57-.25.61l-.13-.02.23-.64a.07.07 0 0 1 .05-.05.07.07 0 0 1 .07.02.1.1 0 0 1 .03.08Z" fill="#44511D"/><path d="m11.89 10.7-.14.12c-.2 0-.38.1-.58.26a.84.84 0 0 0-.25.31 3.1 3.1 0 0 1-.9.36c-.28-.07-.54-.06-.84-.14-.41-.1-.63.12-1.02.19l-.18-.04.88-.36h.07c.22.1.45.14.68.14.17 0 .33.07.5.05l.03-.01-.53-.14c-.36-.84 1.59-.75 1.9-.84.18-.05.3-.02.38.1Z" fill="#9F846C"/><path d="M4.67 9.77c.45.66.76 1.39 1.4 1.9.38.3.64.49.78.56 1.04.5 2.12.65 3.26.41.12-.02.4-.14.85-.36a4.35 4.35 0 0 0 2.02-1.94c.08-.17.22-.31.33-.47a4.44 4.44 0 0 1-8.64-.1Z" fill="#67761C"/><path d="m9.82 10.42.13.02c.13 0 .24.1.38.15.17.07.27.14.45.24.02.03.03.07.03.1a.03.03 0 0 1-.05.02c-.16-.1-.3-.11-.43-.05a.76.76 0 0 0-.32-.06l-.02.01v.04l.02.01c.2.05.39.15.56.3l.01.04c.01.04 0 .05-.03.04l-.66-.23h-.03a.04.04 0 0 0 0 .07l.38.2a.06.06 0 0 1 .03.06.06.06 0 0 1-.07.05c-.13-.02-.32-.17-.43-.12-.02 0-.02.02 0 .04.09.1.2.14.34.15a.04.04 0 0 1 .04.05.04.04 0 0 1-.04.04c-.17.02-.33-.04-.5-.05-.23 0-.46-.05-.68-.14h-.07l-.88.36a4.75 4.75 0 0 1-1.05-.4.24.24 0 0 1-.11-.12.04.04 0 0 0-.04-.03h-.03a6.68 6.68 0 0 1-1.1-1.09c.29-.04.6-.25 1.28.17.25.73.47.74 1.45.53.56-.22.9-.34 1.44-.4Z" fill="#FCD3B1"/><path d="M10.03 11.75c-.53.09-.91.17-1.52.08l-.06.01c-.1.04-.19.02-.29-.04.39-.07.61-.3 1.02-.19.3.08.56.07.85.14Z" fill="#FCD3B1"/><path d="M15.13 11.24c-.42.15-.64.28-.91.6a.1.1 0 0 0 .02.16.1.1 0 0 0 .06.02c.45-.04.78-.23 1.11-.56l.12-.11c.18-.17.43-.41.47-.59a.07.07 0 0 0-.04-.08.07.07 0 0 0-.09.02c-.2.26-.45.44-.74.54Zm-12.4-.05-.08-.03c-.25-.1-.4-.26-.58-.45l-.03-.02a.03.03 0 0 0-.04 0v.02c0 .16.16.34.31.5l.14.16c.27.32.8.67 1.24.62l.03-.01.02-.03c.02-.37-.69-.64-1.02-.76Zm1.36.26c.35.2.63.46.77.86v.08c-.01.07-.05.1-.11.08-.68-.26-.89-.73-1.16-1.32l-.1-.23c-.05-.1-.04-.17.04-.18a.06.06 0 0 1 .06.03c.12.27.24.52.5.68Zm10.3-.69c-.06.14-.13.26-.2.38-.1.17-.26.27-.41.38-.13.08-.25.16-.35.27-.13.16-.25.33-.34.52v.06c.02.1.08.13.17.1.43-.18.71-.5.93-.95l.08-.17c.1-.18.19-.36.22-.56l-.01-.03a.05.05 0 0 0-.03-.02.05.05 0 0 0-.06.02Zm-9.15 1.35.05.03c.28.2.98.72.82.96-.04.06-.1.08-.17.04-.37-.18-.67-.4-.86-.78a5.07 5.07 0 0 0-.14-.23c-.1-.2-.21-.38-.26-.62v-.02a.04.04 0 0 1 .07 0l.02.04c.14.23.25.42.47.58Zm6.58 1.04a.1.1 0 0 0 .05.02c.51.06 1.34-1.19 1.42-1.63v-.03a.05.05 0 0 0-.06-.02.05.05 0 0 0-.03.02c-.13.25-.26.43-.5.6-.4.26-.73.5-.91.91a.1.1 0 0 0 .04.13Zm1.47-.4a.08.08 0 0 1 .04-.07c.37-.26.8-.38 1.25-.34.14 0 .32-.1.5-.18.08-.05.17-.1.24-.12a.06.06 0 0 1 .07.03.06.06 0 0 1-.01.07c-.57.5-1.24.89-2 .69-.06-.01-.09-.04-.09-.08Zm-8.67-.06a.27.27 0 0 0-.05-.04c-.36-.27-.7-.29-1.11-.31l-.18-.02c-.1 0-.31-.09-.62-.26-.05-.02-.08-.02-.1.02a.03.03 0 0 0 .02.03c.57.5 1.2.9 1.97.76a.11.11 0 0 0 .09-.07.12.12 0 0 0-.02-.11Zm-1.06.48a.07.07 0 0 1-.04-.03.08.08 0 0 1 0-.04c0-.06.03-.08.09-.06.34.13.57.12 1 .06.32-.05.78-.07 1.04.16a.09.09 0 0 1 .03.08.09.09 0 0 1-.06.06c-.37.12-.7.2-1.09.1a6.39 6.39 0 0 1-.97-.33Zm8.73.16c.1.17.65.21.83.21.3 0 .62-.12.93-.23a7.11 7.11 0 0 1 .47-.17v-.02h-.02a1.7 1.7 0 0 0-.46 0l-.26.03c-.16 0-.3-.02-.44-.04-.34-.04-.64-.08-1.02.1a.08.08 0 0 0-.04.09l.01.03Zm-7.15.53-.03-.02a.06.06 0 0 1-.02-.05l.02-.03c.03-.03.09-.05.16-.04h.05c.22.03.43.05.64-.07.34-.2.87-.34 1.24-.16l.03.03a.09.09 0 0 1-.02.12c-.37.23-.7.39-1.15.36a5.8 5.8 0 0 1-.92-.14Zm5.65-.24c0 .03.02.05.04.06.66.42 1.27.35 2 .18l.02-.02.01-.02a.05.05 0 0 0-.02-.06c-.03-.02-.08-.03-.14-.02-.3.06-.6-.05-.87-.16l-.39-.13c-.18-.04-.76-.13-.65.17Z" fill="#BAB5A5"/><path d="M9.76 6.85c-.03-.04.07-.22.13-.31-.19-.06-.32.23-.34.31-.03.08.34.2.42.2.08 0 .13-.16.05-.2-.07-.04-.22.05-.26 0Z" fill="#C3A38A"/><path d="M9.69 7.74c-.88.12-1.13-.42-1.14-.58-.1 0-.2.33-.13.43.13.22.55.38 1.1.38l.17-.23Z" fill="#D0AF8C"/><path d="M9.58 5.85c-.27-.05-.4.1-.43.18.4-.1.45.04.43.12-.12.02-.29.07-.35.1.15.22.35.17.44.14.1-.04.24-.48-.1-.54Z" fill="#5D5546" fill-opacity=".6"/></svg>