<!-- by TradingView --><svg width="18" height="18" viewBox="0 0 18 18" xmlns="http://www.w3.org/2000/svg"><path fill="#F0F3FA" d="M0 0h18v18H0z"/><path d="M5.64 7.56c.26.05.41.1.47.16.41.42.75.91 1.41.94a.05.05 0 0 1 .05.04.05.05 0 0 1-.04.05c-.63.18-1.22 0-1.81-.24-.65-.28-1.07-.42-1.66 0A.04.04 0 0 1 4 8.5v-.02c.08-1.37 1.05-2.16 2.4-2.05.03 0 .04 0 .04-.03-.18-1.44.7-2.22 2.02-2.4a.05.05 0 0 1 .06.05l-.01.03c-.9 1.12.77 2.21.2 3.5-.02.02-.03.02-.03-.01-.04-.4-.2-.74-.5-1.01-.32-.31-.54-.45-.64-.91a.04.04 0 0 0-.03-.03.04.04 0 0 0-.03 0c-.4.41-.41 1.05-.27 1.57a.03.03 0 0 1-.04.04c-.4-.12-1.25-.17-1.56.27a.04.04 0 0 0 0 .04.04.04 0 0 0 .03.02Z" fill="#C951A7"/><path d="M11.61 6.43c1.42-.15 2.27.75 2.39 2.07a.03.03 0 0 1-.02.03.03.03 0 0 1-.03 0c-.67-.53-1.27-.2-1.96.09-.34.14-1.24.36-1.55.1a.04.04 0 0 1 .02-.07c.39-.02.66-.15.95-.44.19-.19.37-.44.62-.55.1-.05.21-.09.32-.12.03-.01.03-.03.01-.05-.36-.4-1.06-.42-1.52-.26a.05.05 0 0 1-.06-.05c.18-.55.1-1.06-.22-1.53a.06.06 0 0 0-.09 0l-.01.02c-.18.79-1.08.92-1.13 1.92a.02.02 0 0 1-.04.01c-.16-.26-.13-.65-.1-.93.13-.92.99-1.67.3-2.6a.04.04 0 0 1 0-.06h.03c1.15.05 2.04.81 2.05 2.01v.38c0 .02.02.04.04.03Z" fill="#5EC235"/><path d="M12.9 5.87a.78.78 0 1 0 0-1.56.78.78 0 0 0 0 1.56Z" fill="#5EC235"/><path d="M5.1 5.88a.78.78 0 1 0 0-1.57.78.78 0 0 0 0 1.57Z" fill="#C951A7"/><path d="m5.63 10.46-.01.01a.03.03 0 0 0-.01.03v.02c.4.38 1.03.42 1.53.29.05-.02.07 0 .05.05-.12.53-.11 1.12.3 1.53a.03.03 0 0 0 .02 0 .03.03 0 0 0 .02-.02c.16-.64.58-.74.91-1.24.14-.2.22-.44.24-.68l.01-.02a.03.03 0 0 1 .04 0l.01.01c.12.51.08.98-.1 1.43-.28.68-.67 1.38-.14 2.08a.03.03 0 0 1-.03.05c-1.1-.17-1.9-.66-2.04-1.82-.03-.18 0-.39 0-.58a.03.03 0 0 0-.03-.04l-.31.02c-1.26.04-2.01-.89-2.08-2.07a.03.03 0 0 1 .05-.02c.41.31.84.33 1.34.14.7-.26 1.36-.64 2.13-.38a.04.04 0 0 1 0 .08c-.54.05-.8.3-1.13.68-.2.23-.46.38-.77.46Z" fill="#57BDED"/><path d="M12.36 10.45c-.83-.14-.93-1.06-1.86-1.12-.04 0-.05-.02-.05-.05l.02-.03.03-.01c1.26-.46 2.32 1.11 3.44.25a.04.04 0 0 1 .05 0v.03c-.11 1.32-.96 2.23-2.4 2.03a.04.04 0 0 0-.04.02v.02c.18 1.43-.69 2.24-2 2.4h-.03a.04.04 0 0 1-.02-.04v-.02c.3-.4.34-.85.14-1.31-.3-.72-.6-1.4-.38-2.2a.03.03 0 0 1 .07 0c0 .31.11.59.3.83.3.4.73.54.82 1.1a.05.05 0 0 0 .07.03l.02-.01c.35-.46.43-.97.25-1.54-.01-.02 0-.03.02-.03.56.14 1.1.11 1.57-.26a.05.05 0 0 0 .02-.05.05.05 0 0 0-.04-.04Z" fill="#3A64A0"/><path d="M12.9 13.69a.78.78 0 1 0 0-1.57.78.78 0 0 0 0 1.57Z" fill="#3A64A0"/><path d="M5.1 13.69a.78.78 0 1 0 0-1.57.78.78 0 0 0 0 1.57Z" fill="#57BDED"/></svg>