<!-- by TradingView --><svg width="18" height="18" viewBox="0 0 18 18" xmlns="http://www.w3.org/2000/svg"><path fill="#F0F3FA" d="M0 0h18v18H0z"/><path d="M13 4.5h-2.39V6H13V4.5Z" fill="#204A23"/><path d="M13 4h-2.34v1H13V4Z" fill="#200D0D"/><path d="M11 4.5H8.62V6H11V4.5Z" fill="#2FB44A"/><path d="M9 4.5H6.79V6h2.2V4.5Z" fill="#147A3D"/><path d="M7 4.5H5V6h2V4.5Z" fill="#122113"/><path d="M11 4H8.62v1H11V4Z" fill="#64BC46"/><path d="M9 4H6.7v1H9V4Z" fill="#19321A"/><path d="M7 4H5v1h2V4Z" fill="#010101"/><path d="M13 12.5h-2.39V14H13v-1.5Z" fill="#0F1B0F"/><path d="M13 12h-2.34v1H13v-1Z" fill="#15793D"/><path d="M11 12.5H8.62V14H11v-1.5Z" fill="#1C3D1C"/><path d="M9 12.5H6.79V14h2.2v-1.5Z" fill="#3E1312"/><path d="M7 12.5H5V14h2v-1.5Z" fill="#0F1B10"/><path d="M11 12H8.62v1H11v-1Z" fill="#3E1312"/><path d="M9 12H6.7v1H9v-1Z" fill="#15A049"/><path d="M7 12H5v1h2v-1Z" fill="#1A351A"/><path d="M13 8.48h-2.39V10H13V8.48Z" fill="#18B24B"/><path d="M13 8h-2.34v1H13V8Z" fill="#6ABD45"/><path d="M11 8.48H8.62V10H11V8.48Z" fill="#1C3D1C"/><path d="M9 8.48H6.79V10h2.2V8.48Z" fill="#9C1C1F"/><path d="M7 8.48H5V10h2V8.48Z" fill="#204A23"/><path d="M11 8H8.62v1H11V8Z" fill="#188441"/><path d="M9 8H6.7v1H9V8Z" fill="#15793D"/><path d="M7 8H5v1h2V8Z" fill="#11190F"/></svg>