<!-- by TradingView --><svg xmlns="http://www.w3.org/2000/svg" width="18" height="18"><path fill="#1F325D" d="M0 0h18v18H0z"/><path fill-rule="evenodd" d="M2 7h1.71a1.29 1.29 0 01.4 2.51L5 11H3.87l-.86-1.43H3V11H2V7zm1 1h.62a.38.38 0 010 .75H3V8zm13-1h-1v1.48h-1.35V7h-1v4h1V9.52H15V11h1V7zM6.38 7h-.96v2.37a1.63 1.63 0 003.27 0V7h-.95v2.32a.68.68 0 11-1.36 0V7zm5.73.45A2.45 2.45 0 0010.7 7c-.89-.03-1.56.5-1.54 1.26.01.76.48 1.1 1.2 1.2.73.1.74.24.74.35 0 .16-.17.26-.43.26-.25.01-.75-.1-1.17-.4l-.48.85c.2.16.8.48 1.65.48 1.07 0 1.5-.7 1.5-1.33 0-.62-.46-1.1-1.25-1.17-.64-.05-.75-.26-.72-.35.02-.08.1-.23.5-.23.37 0 .81.23.98.34l.42-.81z" fill="#fff"/></svg>