<!-- by TradingView --><svg width="18" height="18" viewBox="0 0 18 18" xmlns="http://www.w3.org/2000/svg"><path fill="#F0F3FA" d="M0 0h18v18H0z"/><path d="m8.4 13.22-.2.31c.37.09.76.14 1.16.14 2.56 0 4.64-1.94 4.64-4.34 0-2.1-1.6-3.84-3.72-4.24l-.2.97a3.75 3.75 0 0 1 3.2 3.6c0 2.03-1.75 3.67-3.92 3.67a4.2 4.2 0 0 1-.97-.1Z" fill="#AB3F97"/><path d="M6.77 14A5.33 5.33 0 0 1 4 9.39C4 6.41 6.57 4 9.74 4c.89 0 1.73.19 2.47.52l-1.17 2.04c-.4-.13-.84-.2-1.3-.2-2.18 0-3.95 1.66-3.95 3.7 0 1.2.61 2.27 1.55 2.94l-.57 1Z" fill="#F37021"/></svg>