<!-- by TradingView --><svg width="18" height="18" viewBox="0 0 18 18" xmlns="http://www.w3.org/2000/svg"><path fill="url(#a4koc4evv)" d="M0 0h18v18H0z"/><path fill-rule="evenodd" d="M12.13 4.73c-.23-.08-.36-.18-.39-.3a.9.9 0 0 0-.1-.27c-.06-.1-.16-.14-.3-.16a.54.54 0 0 0-.34.07.73.73 0 0 0-.12.1l-.03.02-.1.13c-.12.14-.23.2-.35.2-1.07 0-2.05.18-2.94.52-.6.23-1.17.53-1.74.88a5.78 5.78 0 0 0-2.62 3.1c-.15.46-.13.87.05 1.24.3.64.89.9 1.76.79.3-.05.59-.14.85-.28.3-.16.52-.36.64-.59a.51.51 0 0 0 .04-.4c-.05-.14-.15-.22-.3-.25-.12-.02-.25.06-.39.24v.01c-.28.37-.71.57-1.29.61-.38.02-.58-.16-.62-.56-.04-.4.08-.82.37-1.3a6.21 6.21 0 0 1 2.12-2.16c1.01-.61 2.23-1 3.65-1.16.1-.01.2 0 .3.02.02.01.03.03.02.05a63.86 63.86 0 0 1-2.08 4.28 150.13 150.13 0 0 0-1.88 3.63c-.15.29-.16.48-.02.58.32.23.57.18.76-.16.17-.29.32-.58.47-.86.16-.31.4-.44.7-.4.92.15 1.78.42 2.58.81.7.34 1.27.6 1.69.78.1.05.23.07.38.06.13 0 .22-.06.28-.16.02-.05.03-.1.03-.16 0-.05-.03-.1-.07-.16a.4.4 0 0 0-.19-.12c-.14-.06-.29-.12-.42-.19l-1.67-.8c-.12-.06-.43-.18-.95-.36-.1-.04-.14-.11-.11-.22l.03-.03a9.48 9.48 0 0 0 3.74-2.98c.22-.33.36-.71.4-1.15a2.75 2.75 0 0 0-1.84-2.94Zm.98 2.74c.06-.51-.03-.97-.3-1.4a1.49 1.49 0 0 0-1.19-.7c-.2-.02-.35.09-.47.33-.98 1.94-1.96 3.81-2.93 5.63-.03.05-.01.08.04.1.18.05.43.02.75-.11a9.01 9.01 0 0 0 3.5-2.54c.34-.39.54-.82.6-1.31Z" fill="#fff"/><defs><linearGradient id="a4koc4evv" x1="3.35" y1="3.12" x2="21.9" y2="24.43" gradientUnits="userSpaceOnUse"><stop stop-color="#1A1E21"/><stop offset="1" stop-color="#06060A"/></linearGradient></defs></svg>