<!-- by TradingView --><svg width="18" height="18" viewBox="0 0 18 18" xmlns="http://www.w3.org/2000/svg"><path fill="url(#a1354f0mw)" d="M0 0h18v18H0z"/><path d="M8.67 10.24v.01l.02.01a.05.05 0 0 0 .04 0c.34-.14.65-.67.78-.96.13-.31.17-.75.25-1.06.13-.52.54-1.66 1.25-1.78.37-.06.35.25.35.45 0 .42-.29.93-.54 1.33l-.55.88c-.15.24-.2.43-.14.68l.02.03.03.02a.1.1 0 0 0 .08 0c.12-.04.22-.1.3-.18.46-.4.8-.74.88-1.31.08-.62.47-2.11 1.28-2.34.2-.05.4 0 .42.2.1.78-.64 1.75-1.07 2.43a.98.98 0 0 0-.17.68c0 .07.06.11.13.07.46-.32.73-.9.96-1.37.04-.1.2-.43.39-.36.09.03.1.1.07.17-.11.26-.6 1.1-.25 1.24.31.13.81-.67.92-.88.16-.3.3-.6.42-.9a.38.38 0 0 1 .11-.18c.15-.11.41.01.34.2-.24.56-.46 1.08-.73 1.65-.15.29-.28.58-.4.88-.1.24-.2.42-.27.54C12.5 12 9.63 12.25 7.78 11.8c-.63-.15-1.27-.42-1.85-.68-.27-.12-1.5-.64-1.66-.37a23 23 0 0 1-.3.5c-.08.14-.16.18-.32.1-.13-.06-.12-.13-.06-.24.64-1.23 1.33-2.44 1.92-3.68a.04.04 0 0 0 0-.03l-.02-.02h-.15c-1.25.14-2.3.67-2.84 1.68a.77.77 0 0 0-.1.43c.05.47.7.24.9.03a4.68 4.68 0 0 0 .15-.15c.16 0 .23.07.22.19-.01.2-.22.33-.43.42-.32.14-.75.15-1.02-.08-.62-.54.23-1.58.72-1.95.74-.54 1.64-.9 2.62-.89.17 0 .18-.15.26-.2.13-.07.25-.06.36.03l.02.03c0 .07.03.12.07.17l.04.03c.8.26 1.18.96.92 1.66-.07.18-.2.39-.42.6a4.79 4.79 0 0 1-1.53 1.06c-.01.04 0 .06.05.08l.32.12c.49.2.95.46 1.44.63 1.41.48 2.85.54 4.3.18a3.56 3.56 0 0 0 1.5-.8 3.32 3.32 0 0 0 .8-1.36c-.35.15-.58.2-.9-.04l-.02-.01a.08.08 0 0 0-.06 0l-.02.02c-.22.23-.43.48-.8.53-.3.04-.36-.28-.38-.46l-.01-.02-.03-.02h-.02l-.03.01-.83.72c-.36.32-.75.34-.87-.17l-.01-.03h-.06l-.02.01c-.2.31-.5.71-.93.8-.22.05-.26-.05-.4-.16-.03-.03-.06-.02-.1 0-.2.22-.57.58-.92.47-.31-.1-.4-.36-.37-.62.05-.5.3-.93.73-1.27.22-.17.55-.31.86-.26.12.02.18.02.24-.07.16-.22.41-.09.32.14l-.38 1a.55.55 0 0 0-.01.37Zm3.9-3.77a3.8 3.8 0 0 0-.7 1.77c.27-.37 1-1.36.9-1.78v-.02l-.02-.01c-.07-.04-.13-.02-.17.04Zm-1.67.38h-.02l-.03.01c-.05.05-.1.1-.13.15a3.8 3.8 0 0 0-.63 1.7c.15-.2 1.22-1.72.81-1.86Zm-4.35.75c-.1-.08-.48-.24-.57-.07a181.71 181.71 0 0 1-1.45 2.7l.01.02.03.02h.04a3.87 3.87 0 0 0 1.9-1.15c.16-.18.27-.34.32-.5.11-.34.06-.77-.28-1.02Zm1.92 1.65c.02-.1-.1-.2-.2-.15-.58.24-1.04.78-1 1.36 0 .16.23.22.36.1.43-.35.7-.8.84-1.31Z" fill="#fff"/><defs><linearGradient id="a1354f0mw" x1="3.35" y1="3.12" x2="21.9" y2="24.43" gradientUnits="userSpaceOnUse"><stop stop-color="#1A1E21"/><stop offset="1" stop-color="#06060A"/></linearGradient></defs></svg>