<!-- by TradingView --><svg width="18" height="18" viewBox="0 0 18 18" xmlns="http://www.w3.org/2000/svg"><path fill="#F0F3FA" d="M0 0h18v18H0z"/><path d="m11.15 7.83 2.67-2.66L11.75 3 8.84 6.02c1.06.12 1.95.84 2.3 1.81ZM5.8 9.13 3 11.94 5.06 14l2.56-2.56a2.8 2.8 0 0 1-1.81-2.3Z" fill="#009CDC"/><path d="M14 10.09A5.08 5.08 0 0 1 9.04 14 5.02 5.02 0 0 1 4 9a5.06 5.06 0 0 1 10-1h-2.04a3.09 3.09 0 0 0-6.01 1 3.09 3.09 0 0 0 5.98 1.09H14Z" fill="#AAA"/><path d="M10.32 10.27c-.15 0-.3-.03-.43-.08-.35-.14-.63-.58-.9-.83H8v.45h.71v.46H6.7V9.8h.88V8h-.88v-.47h2.87c.53 0 1.08.31 1.08.92 0 .54-.5.85-.98.9.21.22.35.46.66.46h3.62v.46h-3.62ZM8 8.9h1.54c.32 0 .66-.08.66-.45 0-.4-.33-.45-.66-.45H8v.9Z"/></svg>