<!-- by TradingView --><svg width="18" height="18" viewBox="0 0 18 18" xmlns="http://www.w3.org/2000/svg"><path fill="#395566" d="M0 0h18v18H0z"/><path d="M14 13.4c0 .4-.37.6-1.1.6-.82 0-1.46-.3-1.92-.92a2.2 2.2 0 0 1-.4-.76c-.05-.25-.13-.87-.25-1.87-.06-.6-.27-1.03-.64-1.27A2.94 2.94 0 0 0 8 8.75v4.6c0 .2.1.33.43.38l1.01.03c.14 0 .2.04.2.11 0 .09-.08.13-.26.13H5.4c-.24 0-.38-.04-.38-.13 0-.06.15-.1.45-.11.44-.02.43-.08.47-.18.04-.05.06-.23.06-.56V5.06c0-.38-.05-.6-.14-.68-.09-.07-.02-.1-.47-.11-.26 0-.39-.04-.39-.13 0-.1.08-.14.25-.14h4c1.38 0 3.18.57 3.18 2.2 0 .65-.3 1.2-.88 1.63-.6.43-1.67.68-2.68.75-.1.01-.15.03-.16.05 0 .03.05.05.16.05 1.1.17 2.14.52 2.55 1.05.42.52.7 1.46.83 2.83.09.77.38 1.16.88 1.16.16 0 .24-.03.24-.09 0 0 0-.02-.02-.03a.6.6 0 0 1-.07-.25c0-.2.11-.3.34-.3.25 0 .38.12.38.36Zm-3.26-7.08c0-1.35-.93-2.02-2.23-2.02-.35 0-.27.04-.4.12-.12.09-.11.22-.11.44v3.59c1 .01 1.63-.14 2.07-.48.45-.33.67-.89.67-1.65Z" fill="#fff"/></svg>