<!-- by TradingView --><svg width="18" height="18" viewBox="0 0 18 18" xmlns="http://www.w3.org/2000/svg"><path fill="#F0F3FA" d="M0 0h18v18H0z"/><path d="M4 7H3v5h1V8.58c.2-.2.64-.4 1.47-.4V7.12c-.3-.12-1-.23-1.47.19V7Z" fill="#A51615"/><path fill-rule="evenodd" d="m8.28 12 1.92-3.1c.23-.91.18-2.9-1.92-2.9-2.05 0-2.17 1.75-2 2.62.11.6.61 1.33 2 1.44L7.02 12h1.26Zm-.04-2.91c.6 0 1.09-.48 1.09-1.08 0-.6-.49-1.07-1.09-1.07-.6 0-1.09.48-1.09 1.07 0 .6.49 1.08 1.1 1.08ZM10.56 6h2.62a1.6 1.6 0 0 1 1.04 2.83 1.72 1.72 0 0 1-.95 3.17h-2.7V6Zm.99 1h1.44a.67.67 0 1 1 0 1.33h-.68l-.3.9h1.12a.89.89 0 0 1 0 1.77h-1.58V7Z" fill="#A51615"/></svg>