<!-- by TradingView --><svg width="18" height="18" viewBox="0 0 18 18" xmlns="http://www.w3.org/2000/svg"><path fill="#0E653A" d="M0 0h18v18H0z"/><path d="M10.51 6.2c.2-.12.44-.22.72-.2.34.03.55.15.66.33.1.16.12.35.11.46 0 .1-.03.49-.33.81-.3.32-.82.54-1.73.43l-.15.49h.43l-.28.45h-.29l-.24.8c.47.14 1.49.47 2.74.95.85.31 1.67.33 2.29.04.61-.28 1.06-.88 1.15-1.87 0-.22-.09-.58-.34-.89a1.9 1.9 0 0 0-1.35-.66c-.16-.01-.43 0-.72.07-.3.07-.6.2-.83.42l-.13.12-.24-.35.1-.08a2.7 2.7 0 0 1 1.8-.59c.51.04 1.07.23 1.48.6.42.37.7.92.63 1.64a2.28 2.28 0 0 1-.76 1.6c-.41.36-.94.54-1.45.59-1.02.1-2.08-.32-3.06-.7l-.02-.02c-.5-.2-.98-.38-1.44-.5-.1.31-.3.71-.56 1.04-.31.37-.75.67-1.3.61-.23.1-.57.2-.9.2-.33.02-.7-.07-.85-.44l-.07-.2h.08l.03-.06c.06-.1.17-.14.3-.13.18.02.27.16.32.24v.01l.1.14c.04.03.08.05.16.05.13 0 .25-.01.36-.05a.92.92 0 0 1-.3-.72c.01-.31.13-.63.39-.87.23-.22.57-.37 1.02-.4l.17-.6h-.53l.29-.44h.38l.27-.77-1.01-.33c-.52-.17-1.08-.35-1.6-.5a5.13 5.13 0 0 0-1.26-.23c-.55 0-1.11.16-1.54.47-.43.3-.73.77-.77 1.43-.03.58.24 1.05.6 1.37.38.32.83.49 1.12.48.26 0 .58-.1.86-.25s.52-.35.64-.56l.06-.1.4.12-.1.15c-.2.34-.85 1-1.86 1C2.9 10.82 2 9.65 2 8.52c0-1.15 1.09-2.27 2.75-2.2 1.07.05 2.1.42 2.96.72.41.14.77.27 1.07.35.1-.16.23-.35.43-.52.23-.19.55-.35.94-.36.08-.1.2-.2.36-.3Zm-2.06 3-.12.43V9.6a5.11 5.11 0 0 0 .12-.41Zm-2.32 2.46-.06-.1a.56.56 0 0 0-.07-.1l-.03-.01a.2.2 0 0 0-.03 0v.02c.04.1.1.15.2.19Zm5.73-4.82Zm-2.8 2.1h-.23a104.95 104.95 0 0 1-.18.63l.21.03.2-.66Zm-.78.86-.01.04-.02.03a8.94 8.94 0 0 1 .03-.07Zm-.34 1.51c.16-.08.3-.23.43-.41.2-.28.32-.63.39-.9a1.07 1.07 0 0 0-.23-.02 4.97 4.97 0 0 1-.6 1.33Zm-.64.04c.06-.06.14-.17.23-.35.12-.22.25-.54.38-.98-.13.04-.28.1-.41.19a1 1 0 0 0-.47.65c0 .13.05.37.27.49Zm2.43-4.3-.17.15c-.1.1-.17.21-.23.3a32.75 32.75 0 0 0 .17.05c.06-.17.14-.34.23-.5Zm-.58.84a10.67 10.67 0 0 0-.18.59h.23l.17-.54-.22-.05Zm.47-.31Zm.78-.66a5.49 5.49 0 0 0-.35.73c.73.06 1.1-.12 1.28-.3.2-.2.23-.44.24-.53a.42.42 0 0 0-.08-.24.4.4 0 0 0-.33-.18.57.57 0 0 0-.34.11.86.86 0 0 0-.06.05c.17.05.3.12.37.2.12.13.12.27.1.35a.3.3 0 0 1-.26.22c-.15 0-.28-.08-.4-.23a.76.76 0 0 0-.17-.18Zm.35-.06c.1.03.14.07.17.1s.03.06.03.08l-.04-.01a.34.34 0 0 1-.1-.1 1.44 1.44 0 0 0-.06-.07Z" fill="#fff"/><path fill="#D9D9D9" d="M4 8h1v1H4zM11 8h1v1h-1zM6 8h1v1H6zM13 8h1v1h-1z"/></svg>