<!-- by TradingView --><svg xmlns="http://www.w3.org/2000/svg" width="18" height="18" viewBox="0 0 18 18"><path fill="#F0F3FA" d="M0 0h18v18H0z"/><path d="M15 9.71V8.6l-2.61-.57c-.15.36-.7 1.22-2.2 1.8-1.96.75-3.37.74-4.14.75l-.53-.86c.77-.68 2.2-1.54 2.94-1.8C6.51 7.8 3.97 8.3 3 8.6v.82c0 1.16.55 2.61 5.7 2.59 5.16-.02 6.3-1.2 6.3-2.29Z" fill="url(#axp2jxtqg)"/><path d="M8.98 6C4 6 3 7 3 8.6c2.58-.63 4.69-.7 5.42-.67 1.46-.46 3.03-.53 3.63-.51l.32.63L15 8.6C14.79 6.76 14.13 6 8.98 6Z" fill="url(#bxp2jxtqg)"/><defs><linearGradient id="axp2jxtqg" x1="15" y1="9.57" x2="3" y2="9.39" gradientUnits="userSpaceOnUse"><stop stop-color="#0680C1"/><stop offset=".36" stop-color="#C0D8F0"/><stop offset=".5" stop-color="#FCFDFF"/><stop offset=".65" stop-color="#C4DAF1"/><stop offset="1" stop-color="#0483C3"/></linearGradient><linearGradient id="bxp2jxtqg" x1="9" y1="6" x2="9" y2="8.61" gradientUnits="userSpaceOnUse"><stop stop-color="#6AAAD6"/><stop offset=".43" stop-color="#AFCEEB"/><stop offset="1" stop-color="#E0F1F9"/></linearGradient></defs></svg>