<!-- by TradingView --><svg width="18" height="18" viewBox="0 0 18 18" xmlns="http://www.w3.org/2000/svg"><path fill="#F0F3FA" d="M0 0h18v18H0z"/><path d="M5.94 9h.41c.39-.03.66-.45.66-.99S6.73 7 6.28 7H3V5h3.48c.27 0 .55.05.8.15 1.19.48 1.86 1.83 1.75 3.2A3.1 3.1 0 0 1 7.6 10.8L8.93 13H6.46a.02.02 0 0 1-.01 0L5 10.64c-.1-.17-.17-.35-.2-.56-.09-.67.31-1.06.96-1.09h.18Z" fill="url(#a3f0tklgc)"/><path d="M15 13 9.32 9 15 5v8Z" fill="url(#b3f0tklgc)"/><defs><linearGradient id="a3f0tklgc" x1="3" y1="9" x2="9.04" y2="9" gradientUnits="userSpaceOnUse"><stop stop-color="#FD1D25"/><stop offset=".68" stop-color="#ED135D"/><stop offset="1" stop-color="#D504B1"/></linearGradient><linearGradient id="b3f0tklgc" x1="15" y1="9" x2="9.32" y2="9" gradientUnits="userSpaceOnUse"><stop stop-color="#F7986D"/><stop offset=".33" stop-color="#FF33AC"/><stop offset="1" stop-color="#DD02CD"/></linearGradient></defs></svg>