<!-- by TradingView --><svg width="18" height="18" fill="none" xmlns="http://www.w3.org/2000/svg"><path fill="#F0F3FA" d="M0 0h18v18H0z"/><path d="M5 11.182C5 10.378 5.308 10 6.13 10h2.74c.822 0 1.13.378 1.13 1.182v2.635C10 14.624 9.694 15 8.87 15H6.13C5.305 15 5 14.624 5 13.817v-2.635zM6 14h3v-3H6v3z" fill="#74C947"/><path d="M8 6.709c0-.272.046-.459.14-.559.092-.1.272-.15.538-.15h1.644c.266 0 .446.05.539.15.092.1.139.287.139.559V8.29c0 .274-.046.461-.14.561-.092.1-.272.15-.537.15H8.678c-.266 0-.446-.05-.539-.15C8.046 8.752 8 8.564 8 8.291V6.708zm.636 1.726h1.73v-1.9h-1.73v1.9z" fill="#17A77B"/><path d="M12 4.473c0-.182.031-.306.093-.373s.181-.1.359-.1h1.096c.178 0 .297.033.36.1.06.067.092.192.092.373v1.054c0 .183-.031.308-.093.374s-.181.1-.359.1h-1.096c-.178 0-.297-.034-.36-.1-.06-.066-.092-.19-.092-.374V4.473zm.424 1.15h1.153V4.359h-1.153v1.266z" fill="#74C947"/><path d="M10 4.236c0-.09.016-.153.046-.186.031-.033.091-.05.18-.05h.548c.089 0 .148.017.18.05.03.033.046.096.046.186v.528c0 .091-.016.154-.046.186-.031.033-.091.05-.18.05h-.548c-.089 0-.148-.017-.18-.05-.03-.032-.046-.095-.046-.186v-.528z" fill="#17A77B"/></svg>