<!-- by TradingView --><svg width="18" height="18" xmlns="http://www.w3.org/2000/svg"><path fill="#0059B3" d="M0 0h18v18H0z"/><path d="M13.461 13.796h.107l.198-.682a1.158 1.158 0 00-.629-.46 2.258 2.258 0 00.856-1.595 2.246 2.246 0 00-.595-1.708l.403-.657a.493.493 0 00.06-.313.337.337 0 00-.202-.27l-1.04-.541h-2.112l-.752.447V6.715h-.242a.656.656 0 00.151-.16l-.016-.062c-.273.206-.402.19-.903.034a.771.771 0 00-.71.144.364.364 0 010-.081c.015-.135.122-.282.5-.257.283.022.653.022.735.022a.827.827 0 00.5-.11.524.524 0 00.208-.372c.022-.119.022-.31.022-.454v-.845H6.546V4h-.852a.948.948 0 00-.904.557.935.935 0 00-.08.363.857.857 0 00.543.815.869.869 0 00.34.062h.05v-.332h-.05a.42.42 0 01-.399-.33.414.414 0 01.003-.183.469.469 0 01.478-.442H6V5h1.257v.344h-.314v.178l.66.25V5h1.884v.482c.008.084.008.169 0 .253a.234.234 0 01-.078.16.284.284 0 01-.19.06h-.788c-.378 0-.84.08-.84.625a.795.795 0 00.538.75c.104.036.214.05.324.043A.868.868 0 009 7.2h.258v.404a2.213 2.213 0 00-1.13.04 4.763 4.763 0 01-.908.104 1.13 1.13 0 01-.777-.305 1.118 1.118 0 01-.353-.753l-.255-.15c-.047.714.19 1.18.944 1.565.916.47 1.532.902 1.78 1.681h.086v-.591c.758.475 1.189.886 1.387 1.349.105.253.169.522.189.795h.072c.08-.381.062-.776-.05-1.149a1.427 1.427 0 00-.094-.194l.714.031c-.015.294-.007.588.025.88h-.255v.097h.267c.016.119.038.238.063.36h.076v-.35l1.224.068c-.007.26-.034.518-.082.773l-.264.032v.05l.248.019a4.852 4.852 0 01-.07.29h.092c.053-.09.102-.182.145-.278l.972.075a1.911 1.911 0 01-.563.558l-.195.021-1.938.298a2.229 2.229 0 00-.148-.391c-.397-.844-.867-1.157-3.04-2.604L7 9.645c-.815-.541-2.099-1.427-2.48-2.15a1.63 1.63 0 01-.179-.745c-.002-.263.08-.518.236-.73v-.24a1.254 1.254 0 00-.576 1.11c.003.252.054.5.151.733.164.42.431.78 1.108 1.387.629.563 1.057 1.03 1.299 1.656h.088v-.626l.466.329a4.39 4.39 0 011.447 1.59h.085v-.592c1.032.689 1.771 1.334 1.931 2.633h.088c.04-.313.026-.63-.037-.94h1.743c.56 0 1.091.157 1.091.736zM8.515 6.755a.607.607 0 01.334.023l.01.01a.452.452 0 01-.324.178.607.607 0 01-.315-.054.605.605 0 01.295-.157zM9.523 8.16l-.844.495.007.006c-.255-.16-.63-.397-.733-.472.332-.078.67-.133 1.01-.163.194.001.386.047.56.134zm3.004.386l-.116.162.006.007a2.339 2.339 0 00-.72-.094 2.277 2.277 0 00-1.825.96 4.009 4.009 0 00-.733-.625l1.513-.908h1.853l.843.438-.315.532a2.183 2.183 0 00-.254-.153l.1-.341-.503-.27-.028.054.179.238zm-.346 1.524c.047.245.074.493.079.742l-1.208.085c.024-.29.07-.576.135-.858l.994.031zm.43.723a3.6 3.6 0 00-.018-.71l.815.03c.097.197.159.41.182.627l-.978.053zm-.808-1.734c.123.226.22.464.29.71l-.856.05a6.1 6.1 0 01.245-.744c.068-.01.136-.015.205-.016h.116zm.727.686a4.187 4.187 0 00-.167-.567l.01.003c.291.118.55.305.752.545l-.595.019zm1.06 1.399c-.01.185-.052.368-.126.538l-1.091.138c.093-.236.16-.482.201-.732l1.016.056zm-3.429-1.28c.194-.289.467-.516.787-.655l.015.01c-.049.2-.085.402-.107.607l-.695.037zm-5.889-.56c.044.635.544 1.063 2.117 2.03 1.655 1.028 2.114 1.654 2.25 2.474H8.55c-.359-.786-1.086-1.224-1.913-1.69v.626H6.55a3.852 3.852 0 00-1.259-1.547 3.655 3.655 0 01-1.028-.967 1.532 1.532 0 01-.261-.867c.005-.233.073-.46.198-.658l.148.097c-.054.162-.079.331-.076.501z" fill="#FD0"/></svg>