<!-- by TradingView --><svg width="18" height="18" xmlns="http://www.w3.org/2000/svg"><path fill="#073590" d="M0 0h18v18H0z"/><path d="M11.221 5.529c.659.184 1.303.369 1.962.468h.472c.287 0 .473-.1.745-.184h.1c0 .099 0 .099-.1.184-.373.284-.745.469-1.117.554-.1 0-.286.1-.372.1-.473.184-1.031.184-1.49.184-.93-.1-1.775-.37-2.705-.37a2.361 2.361 0 00-2.148.924c-.1.369-.286.738-.286 1.107 0 .37.558.469.744.739l.287.554c.1.369.286.738.558 1.107.186.185.372.469.659.554.372.284.658.554.844.923.186.37.373.653.473 1.022.1.185.186.37.186.654v.099c.1.185.1.37.186.469v.099c0 .1.1.284 0 .284a1.793 1.793 0 01-.372-.554c-.1-.369-.373-.738-.659-1.107-.186-.185-.372-.469-.558-.654-.745-.837-1.862-1.391-2.706-2.13 0 0 0-.099-.1-.184-.1-.185-.187-.284-.287-.469-.186-.369-.472-.738-.659-1.207 0-.184-.1-.369-.1-.554v-.1c0-.184-.472-.283-.186-.652.186-.185.745-.37.93-.739v-.184s0-.1-.1-.1-.372.185-.372-.1v-.283c.1-.185.1-.37.1-.554 0-.1.1-.1.187-.1.086 0 .286-.099.372-.099.286 0 .659 0 .845.185.1.185 0 .37 0 .554 0 .184-.186.284-.1.369h.186c.372-.284.744-.653 1.116-1.022.287-.284.745-.37 1.117-.284.845.028 1.504.312 2.348.497z" fill="#F1C931"/><path d="M9.074 7.005c.1.185 0 .284-.1.469-.473.653-.66 1.477-.931 2.23h-.1c-.1 0-.1-.1-.1-.185 0-.838.286-1.577.658-2.315.1-.1.186-.284.372-.185.1-.099.1-.014.2-.014zm1.303.185c.1.284-.1.468-.187.738-.472.923-1.03 1.846-1.303 2.869 0 0 0 .099-.1.099h-.1c-.1-.37 0-.838.1-1.207.287-.838.559-1.661 1.031-2.5.1 0 .1-.099.1-.099.172.015.358.015.459.1zm1.302.1c.1.099.1.283 0 .368-.558 1.207-1.403 2.23-1.775 3.522l-.286.838c0 .1-.1.1-.1 0-.1-.1 0-.284 0-.37.1-1.022.372-2.03.844-2.868.186-.468.473-.838.659-1.292.1-.1.186-.284.372-.284.1-.014.2-.014.286.085zm1.504.084c.1.185 0 .284 0 .469-.373.923-1.031 1.76-1.49 2.684-.472.738-.744 1.576-1.03 2.314-.1.284-.186.469-.287.739h-.1c-.1-.1-.1-.185-.1-.284.1-1.023.473-1.846.845-2.783.472-1.023 1.03-1.946 1.489-2.968.1-.1.186-.284.372-.37.1.015.2.015.3.2z" fill="#F1C931"/></svg>