<!-- by TradingView --><svg width="18" height="18" viewBox="0 0 18 18" xmlns="http://www.w3.org/2000/svg"><path fill="#F0F3FA" d="M0 0h18v18H0z"/><path d="M5.92 4.09c.04-.06.1-.09.17-.09h5.72c.07 0 .14.04.18.1l2.98 5.09a.2.2 0 0 1 0 .2l-2.82 4.51a.22.22 0 0 1-.35.01l-.46-.65a.2.2 0 0 1 0-.21l2.18-3.66a.2.2 0 0 0 0-.2l-2.27-4.07c-.03-.06-.1-.12-.18-.12H6.7a.2.2 0 0 0-.13.06.28.28 0 0 0-.07.1l-.13.32c-.01.04-.03.09-.07.1a.3.3 0 0 1-.12.02H5.2c-.17 0-.27-.16-.17-.3l.88-1.21Zm5.79 5.3a.2.2 0 0 0 0-.2l-1.36-2.44a.2.2 0 0 1 0-.2l.4-.63a.22.22 0 0 1 .36 0l1.96 3.28a.2.2 0 0 1 0 .2l-1.98 3.1a.22.22 0 0 1-.35.02l-.48-.57a.2.2 0 0 1-.02-.24l1.47-2.32Z" fill="url(#adv3gk3f3)"/><path d="M6 7h1.67C8.44 7 10 7.38 10 9c0 .43-.23 1.39-1.17 1.68C9.5 11 10 11.5 10 12v1H8v-1c0-.37-.22-1-1-1H6v2H4V7h2Zm0 1v2h1c.5.03 1-.4 1-1s-.5-1-1-1H6Z" fill="#050608"/><defs><linearGradient id="adv3gk3f3" x1="10" y1="4" x2="10" y2="14" gradientUnits="userSpaceOnUse"><stop stop-color="#216E74"/><stop offset="1" stop-color="#72C043"/></linearGradient></defs></svg>