<!-- by TradingView --><svg width="18" height="18" viewBox="0 0 18 18" xmlns="http://www.w3.org/2000/svg"><path fill="#F0F3FA" d="M0 0h18v18H0z"/><path d="M9 3a6 6 0 1 1 0 12A6 6 0 0 1 9 3Zm4.21 4.1c-.3-.17-.55-.12-.78.14l-.12.21-.03.03a.06.06 0 0 1-.03 0c-.92.06-.8 1.76-.77 2.42v.01h-.02V9.9c-.09-.47-.4-1.65-1-1.5-.16.03-.25.1-.43.24a.14.14 0 0 1-.07.03c-.37.02-.56.06-.82.42-.27.39-.11.67.16.94a.2.2 0 0 1 .05.09v.1c-.04.3 0 .8.3.9.12.04.28.05.46.03.25-.04.4-.2.46-.47.04-.23-.01-.38-.17-.48-.07-.04-.15-.02-.23.06a.11.11 0 0 0-.03.05l-.04.14c0 .01 0 .03-.02.04a.06.06 0 0 1-.03.01H10a.07.07 0 0 1-.02-.03c-.1-.2-.1-.45.12-.53.32-.11.7.2.9.47.59.82.45 2.06-.05 2.86a2.31 2.31 0 0 1-.78.7.02.02 0 0 0 0 .03h.01c.5-.23.92-.5 1.28-.81.34-.3.56-.64.67-1.05.19-.73.17-1.52.1-2.25-.04-.62.03-1.24.63-1.45.59-.2.94.73.28.96a.1.1 0 0 1-.05 0 .11.11 0 0 1-.05-.02.14.14 0 0 1-.04-.05.15.15 0 0 1-.01-.07c0-.03 0-.08.02-.14.06-.23-.19-.36-.31-.2-.2.26-.09.6.14.77.8.6 1.73-1.08.68-1.6a.07.07 0 0 1-.03-.02.08.08 0 0 1-.01-.04c0-.03 0-.1.03-.2.06-.32-.05-.58-.3-.73Zm-1.63 3.33c.02 0 .04 0 .05.03.3.44.38.91.32 1.45-.07.53-.28.96-.66 1.29-.02.01-.04.02-.05.01h-.01l-.01-.02v-.03a2.71 2.71 0 0 0 .34-2.71l.01-.01h.02ZM8.86 4.75C8.28 3.7 7.07 3.9 6.2 4.44a4.72 4.72 0 0 0-1.75 6.03A6.8 6.8 0 0 0 6.51 13h.03v-.03a5.44 5.44 0 0 1-1.88-5c.1-.94.53-1.7 1.28-2.28.41-.33 1.04-.55 1.5-.16.46.39.76 1.17.18 1.63a1.79 1.79 0 0 1-.47.24l-.02-.01v-.05c.23-.23.28-.46.16-.67a.7.7 0 0 0-.9-.31c-.88.42-1.06 1.61-.2 2.18.9.6 1.93.36 2.26-.75a.1.1 0 0 1 .04-.06.1.1 0 0 1 .06-.01C9.3 7.8 10 7.56 10 6.67c0-.62-.3-1.03-.88-1.22a.1.1 0 0 1-.07-.07c-.06-.23-.11-.47-.2-.63ZM5 9 5 9.02c0 .1.03.21.09.35.3.86.99 1.4 1.84 1.82.41.2.73.3.95.59.2.25-.02.45-.3.51h-.04a.06.06 0 0 1-.02-.02l-.02-.03.01-.03.08-.13a.18.18 0 0 0 .03-.1.18.18 0 0 0-.03-.1.47.47 0 0 0-.5-.2.15.15 0 0 0-.07.03c-.4.33-.36.8.09 1.08.18.11.37.18.55.21.37.05.49-.1.62-.39a.13.13 0 0 1 .12-.07c.15 0 .29-.03.4-.07a.17.17 0 0 0 .08-.05c.23-.28.1-.74-.2-.93a6.56 6.56 0 0 0-.22-.14l-.01-.03a.7.7 0 0 1 .01-.09c.08-.26-.38-.46-.56-.49-.66-.11-1.32-.18-1.88-.5-.35-.2-.7-.54-.86-.92a6.4 6.4 0 0 0-.15-.3Zm5.1-.1c.47-.4 1.06.09 1.09.66l-.01.04-.03.03h-.04a.06.06 0 0 1-.03-.04c-.2-.46-.51-.67-.93-.61-.03 0-.05-.01-.05-.05V8.9Zm1.78-.86c.2-.26.59-.3.9-.27l.01.01.01.02v.02h-.02c-.27.1-.53.14-.74.4-.2.25-.22.55-.27.86v.02l-.03.01h-.01v-.02c-.07-.35-.06-.79.15-1.05ZM6 4.94c.78-.58 1.7-.46 2.23.39v.03H8.2l-.3-.2c-.87-.53-1.7-.2-2.45.36l-.02.01-.03-.01v-.04c.22-.23.42-.4.6-.54Z" fill="#C9111B"/></svg>