<!-- by TradingView --><svg width="18" height="18" viewBox="0 0 18 18" xmlns="http://www.w3.org/2000/svg"><path fill="#354046" d="M0 0h18v18H0z"/><path fill-rule="evenodd" d="M13.18 7.07a3.42 3.42 0 0 1-2.59 2.52 3.43 3.43 0 0 1 2.6-2.52ZM9.42 9.2l.45.43a4.14 4.14 0 0 1 4.1-3.34c0 2-1.48 3.65-3.44 3.99l2.1 2.07h.69V13h-2.95l-1.4-1.36L7.58 13H4.62v-.64h.7l2.09-2.07a4.08 4.08 0 0 1-3.44-4 4.13 4.13 0 0 1 4.1 3.35l.45-.43A3.97 3.97 0 0 1 8.97 4a3.97 3.97 0 0 1 .45 5.2Zm2.22 3.15-1.68-1.67-.5.48 1.2 1.19h.98Zm-4.35 0 1.19-1.2-.5-.47-1.67 1.67h.98Zm2.17-2.16-.49-.47-.5.47.5.49.5-.49Zm-.49-5.12a3.3 3.3 0 0 0 0 3.57c.7-1.1.7-2.48 0-3.57ZM4.76 7.07a3.43 3.43 0 0 0 2.59 2.52 3.43 3.43 0 0 0-2.6-2.52Z" fill="#DABE72"/></svg>