<!-- by TradingView --><svg xmlns="http://www.w3.org/2000/svg" width="18" height="18"><path fill="#00325C" d="M0 0h18v18H0z"/><path d="M14.5 8.96c.2-.29.36-.6.5-.91a5.2 5.2 0 00-1.95-1.23 4.77 4.77 0 00-.3-2.15 5.45 5.45 0 00-2.24.33c-.42-.62-1-1.2-1.65-1.6-.65.4-1.2.98-1.62 1.6h3.27c-.26.06-.55.08-.8.19-.27.1-.58.25-.84.41A4.18 4.18 0 007.24 5c-.34.46-.58.95-.69 1.51-.6.05-1.17.22-1.68.5.04.56.22 1.11.52 1.6.19.41.47.77.82 1.06a3 3 0 00-.3 1.3c.42.2.88.3 1.35.3a3.02 3.02 0 00.6 1.16l-.98-.7-1.09-.75c0 .3.04.6.1.9.04.26.1.51.19.77.28.03.57.04.86.01.31-.04.62-.12.92-.23.33.48.76.9 1.27 1.2.5-.31.95-.72 1.27-1.2H7.96c.43-.12.82-.32 1.16-.6.38.27.82.45 1.28.54.28-.37.46-.8.55-1.24a3.3 3.3 0 001.33-.38 3 3 0 00-.39-1.28c.32-.3.57-.66.74-1.05v.01l-.16 1.2-.18 1.21c.52-.2 1-.52 1.39-.92l-.75 1.28-.71 1.2c.13-.5.16-1.04.07-1.56l-.94.8-.95.78a4.3 4.3 0 001.75.1l-1.5.57-1.52.54-1.52-.49-1.53-.5-.86-1.3-.85-1.3v-.02c.18.16.37.3.57.43.27.2.55.36.85.5l-.26-1.26-.23-1.23a4.49 4.49 0 00-.87 1.16l.16-1.12.23-1.52 1.2-1.03L7.24 5a5.66 5.66 0 00-2.31-.2 4.7 4.7 0 00-.1 2.18c-.71.3-1.33.77-1.83 1.32.32.67.78 1.26 1.37 1.74a4.8 4.8 0 00-.52 2.11c.7.32 1.45.5 2.22.5a4.9 4.9 0 001.02 1.95c.74-.18 1.44-.51 2.04-.97a5.4 5.4 0 002.09.88c.46-.59.77-1.26.93-1.98a5.46 5.46 0 002.18-.6 5.01 5.01 0 00-.62-2.12c.3-.25.56-.54.78-.85zm-4.43-3.04l1.16.37c-.45-.02-.92.02-1.34.17a3.02 3.02 0 00-.94-.87l1.12.33zm-2.34.13l1.07-.42a3.16 3.16 0 00-.88.86h1.91c-.33.09-.63.23-.9.43h.03c-.23.15-.43.34-.58.56-.24-.06-.5-.08-.74-.06l.58-.23.71-.29c-.3-.2-.64-.34-1-.4-.43-.1-.9-.07-1.34 0l1.14-.45zm3.24 2.35a1.96 1.96 0 00-.36-.18l-.06-.1c0-.12 0-.24-.02-.36a1.2 1.2 0 00-.09-.3l.38.56.39.57a1.94 1.94 0 00-.25-.2zm.26.35l-.08.63-.1.68a1.8 1.8 0 00-.24-.74c.18-.16.32-.36.42-.57zm-.78.25l-.3.43-.1.5-.51.1-.44.29-.45-.28-.52-.09-.11-.5-.3-.41L8 8.6l.1-.5.52-.1.44-.29.45.28.52.09.11.5.3.41zm-3.36-.54l-.2.16.28-.5.34-.63c-.06.25-.07.5-.03.74-.14.06-.27.14-.39.23zm.42-1c-.3.02-.58.1-.84.21l.55-.5.59-.51c-.15.24-.25.51-.3.79zm-1.66.71c-.16.12-.31.25-.44.4l.57-1.03.55-.99c-.1.4-.1.8-.04 1.2.03.35.14.7.33 1 .11.23.28.44.49.6-.12.24-.19.5-.2.77l-.14-.64-.17-.73c-.25.25-.44.54-.57.85l.12-.87.14-.94c-.23.1-.44.23-.64.38zm4.2 3.34l-.93.33-.92-.28-.94-.3-.52-.8-.53-.8c.25.24.55.43.88.55a3.42 3.42 0 00.17 1.06c.34.03.69 0 1.01-.1a5.62 5.62 0 00.85.67c.14-.1.28-.19.4-.3l.4-.43c.33.09.68.1 1.03.02l-.9.38zm1.38-1.18l-.43.74c.08-.32.1-.64.03-.96l-.57.5-.56.49H8.33l-.57-.43-.61-.5c.25.11.53.17.8.18.07.27.2.53.37.75.28-.07.55-.2.77-.37.23.17.53.3.81.35.17-.22.26-.5.32-.76.29-.02.56-.1.81-.22.32-.13.6-.33.84-.57l-.44.8zm.23-1.27c-.12-.15-.27-.3-.42-.43.15-.31.22-.66.22-1a2.6 2.6 0 00-1.06-.22 1.67 1.67 0 00-.71.07l-.13-.04a1.9 1.9 0 00-.47-.46l.58.19.73.24c-.07-.3-.2-.57-.4-.83l.69.5.78.56.24.94.17.86a2.36 2.36 0 00-.22-.38zm1.67.1c-.2-.26-.43-.5-.68-.7a3.7 3.7 0 00.38-1.66 5.17 5.17 0 00-1.75-.5l.69 1.15.49.72a3.19 3.19 0 00-.99-.55c.04-.45-.03-.9-.19-1.31-.1-.26-.22-.5-.37-.73-.11-.21-.25-.39-.4-.58l1.26.88 1.27.93.37 1.51.26 1.4c-.1-.2-.21-.39-.34-.57z" fill="#fff"/></svg>