<!-- by TradingView --><svg width="18" height="18" viewBox="0 0 18 18" xmlns="http://www.w3.org/2000/svg"><path fill="#F0F3FA" d="M0 0h18v18H0z"/><path d="M10.63 4.27h-.04c-.02.01-.02.02 0 .03l.19.11a2.1 2.1 0 0 0-.06.49c0 .37.04.8.1 1.28.04.22.12.4.24.57.2.28.36.54.5.8.14.27.2.56.16.85a2.74 2.74 0 0 0-.44-1.02 3.3 3.3 0 0 0-1.13-.99 2.35 2.35 0 0 0-1.08-.54.57.57 0 0 0-.36-.18 8.4 8.4 0 0 0-.86-.1c-.3-.02-.58 0-.83.04l-.62.16.64-.21v-.03l-.67.18c-.03 0-.03 0 0-.01l.14-.06c.44-.13.9-.19 1.35-.16a45.77 45.77 0 0 1 .88.05v-.01A2.9 2.9 0 0 0 8 5.4c-.52 0-1.04.07-1.56.23l-.63.26c.4-.25.82-.4 1.28-.44a1021.46 1021.46 0 0 0 1.06-.12l-.64-1.1a4.97 4.97 0 0 1 3.12.04Z" fill="#2E90C3"/><path d="m7.51 4.23.64 1.1-.01.02-1.05.1c-.46.05-.89.2-1.28.44l-.68.57a1.97 1.97 0 0 0-.17.18v.02h.02a4.4 4.4 0 0 1 .98-.7c-.08.04-.09.06-.03.06a1.05 1.05 0 0 1-.28.19V6.2l.09-.08c.01 0 .01 0 0 0a.8.8 0 0 0-.1.08c-.25.14-.45.3-.6.46l-.37.46a1.51 1.51 0 0 0-.25.47l-.13.3c-.06.1-.13.2-.22.28a4.94 4.94 0 0 1 3.44-3.94Z" fill="#1A77AC"/><path d="M10.63 4.27a4.98 4.98 0 0 1 2.4 1.78 10.7 10.7 0 0 1 .15 1.57.33.33 0 0 0 0 .1.5.5 0 0 0-.02-.13 7 7 0 0 0-.06.4l-.04.44a4.02 4.02 0 0 1-.95 1.97l-.15.16c-.12.18-.32.34-.59.48a.56.56 0 0 1-.35.06 3.66 3.66 0 0 0 1.74-2.56c.15-.8.05-1.58-.3-2.32a3.88 3.88 0 0 0-1.68-1.81l-.19-.1c-.02-.02-.02-.03 0-.03h.04Z" fill="#0A5B81"/><path d="m11.02 11.1-.33.24v.04c0 .01 0 .02.02.01.24-.08.46-.2.66-.35.27-.14.47-.3.6-.48l.12-.05-.76.63-.38.22v.04a4.8 4.8 0 0 0 1.24-.87 2.13 2.13 0 0 0 0 .02c-.1.1-.2.2-.26.33v.01h.01l.15-.17c-.08.11-.22.23-.41.37-.39.27-.76.46-1.13.57a5.05 5.05 0 0 1-2.03.21l.28.03a7.15 7.15 0 0 0 1.19-.06c.26-.05.65-.15 1.16-.3l.2-.06c.33-.09.67-.15 1.03-.18.26-.03.62-.04 1.08-.04a4.99 4.99 0 0 1-.8 1.15c-.75.58-1.57.9-2.45.96a3.9 3.9 0 0 1-1.81-.35 3.9 3.9 0 0 1-2.22-2.72 8.04 8.04 0 0 1-.07-.8c0-.17.02-.33.07-.49a2.8 2.8 0 0 0 2.24 2.7c.3.14.64.19 1 .14.03 0 .03-.01 0-.02l-.08-.02c-.02 0-.03-.02-.02-.04l.02-.04h.07c.09.05.19.07.3.05l.56-.12-.42.1v.03h.02c.31-.06.55-.12.7-.17.25-.07.46-.16.64-.28l.62-.4h-.02l-.6.4-.82.3.26-.11.01-.02h-.02c-.2.07-.4.09-.61.05a2.78 2.78 0 0 0 1.7-3.16c.03-.3-.03-.58-.18-.86-.13-.25-.3-.51-.5-.79a1.3 1.3 0 0 1-.22-.57c-.07-.49-.11-.91-.11-1.28 0-.14.02-.3.06-.49a3.88 3.88 0 0 1 1.98 4.13 3.8 3.8 0 0 1-1.74 2.56Z" fill="#3BA8D8"/><path d="m6.5 5.64-.06-.01A5.14 5.14 0 0 1 8 5.4a2.9 2.9 0 0 1 .74.13l-.88-.05c-.46-.03-.91.03-1.35.16Z" fill="#0E6DA0"/><path d="m6.4 5.77-.47.25c-.06 0-.05-.02.03-.06a4.4 4.4 0 0 0-1 .7v-.02c.08-.1.14-.16.17-.18l.68-.57.63-.26h.07a1.78 1.78 0 0 0-.14.08l.66-.18.01.02v.01l-.64.21Z" fill="#0A5B81"/><path d="M9.07 5.85a3.82 3.82 0 0 0-2.84.33A3.88 3.88 0 0 0 4.15 9.9c-.01.03-.03.04-.06.05a4.97 4.97 0 0 1-.02-1.78c.09-.08.16-.18.22-.28a2.76 2.76 0 0 0 .19-.44c.05-.12.11-.23.2-.33l.35-.46a2.28 2.28 0 0 1 .62-.45h.01c.1-.05.19-.11.27-.19l.47-.25.62-.16c.25-.05.52-.06.83-.05.22.02.5.05.86.11.16.03.28.09.36.18Z" fill="#004265"/><path d="M9.07 5.85c.43.1.79.28 1.08.54a21.1 21.1 0 0 0-.87-.2 2.7 2.7 0 0 0-1.96.54l-.4.34v-.04h-.05c-.36.37-.6.8-.76 1.28-.2.51-.32 1.12-.36 1.82 0 .02 0 .04-.03.04-.16.03-.32.04-.48.03a8.23 8.23 0 0 1-.74-.08h-.26c-.02 0-.03 0-.04-.02l-.05-.2a3.88 3.88 0 0 1 2.08-3.72c.9-.48 1.85-.59 2.84-.33Z" fill="#3BA8D8"/><path d="M13.46 11.26c-.46 0-.82.01-1.08.04-.36.03-.7.09-1.02.18l-.2.06c-.52.15-.9.25-1.17.3a7.2 7.2 0 0 1-1.47.02h.01c.69.06 1.36 0 2.02-.2.37-.11.74-.3 1.13-.57.2-.14.33-.26.41-.37a3.5 3.5 0 0 0 .64-.8l-.5.59.56-.75v-.01l-.02-.02h-.03c-.23.33-.4.55-.5.66-.25.31-.56.56-.9.75l.75-.63c.33-.34.58-.72.78-1.16l-.08.24c-.01.02 0 .02 0 0 .06-.04.1-.1.13-.15a4.52 4.52 0 0 0 .36-1.6h-.02l-.01.06c-.08.55-.17.96-.27 1.22.16-.47.24-.95.23-1.44a10.7 10.7 0 0 0-.17-1.63 4.96 4.96 0 0 1 .42 5.2Z" fill="#2E90C3"/><path d="M6.93 7.07a2.82 2.82 0 0 0-.75 1.94c-.05.16-.08.32-.07.48 0 .28.03.55.07.81-.03.28 0 .56.1.83.21.56.53 1.04.95 1.45.27.25.57.46.89.6a4 4 0 0 0 1.93.37c.04 0 .09-.02.14-.06l.04-.05c0-.02 0-.04-.02-.07.88-.06 1.7-.38 2.44-.96A4.9 4.9 0 0 1 8.63 14a4.96 4.96 0 0 1-3.67-2.04l.27-.07.28-.02c.28-.02.5-.04.63-.08.02 0 .03-.01.03-.03a.84.84 0 0 0-.01-.36c-.18-.5-.26-1-.27-1.52 0-.17.03-.43.1-.78l.12-.78c.15-.49.4-.91.76-1.27.01-.02.03-.02.04 0 .01 0 .02.01.02.03ZM13.2 7.68c.02.5-.06.97-.22 1.44l-.11.23c-.2.44-.45.82-.78 1.16 0 .01-.05.03-.13.05l.15-.16.14-.15A4.02 4.02 0 0 0 13.1 8a7 7 0 0 1 .06-.4.5.5 0 0 1 .01.13l.01-.11c0-.02.01-.02.02 0v.06Z" fill="#0E6DA0"/><path d="m12.87 9.35.11-.23a5.74 5.74 0 0 0 .3-1.29v.01a4.52 4.52 0 0 1-.36 1.6.45.45 0 0 1-.12.16c-.02 0-.02 0-.01-.01l.08-.24Z" fill="#1A77AC"/><path d="m6.11 8.31-.13.78c-.06.35-.1.6-.1.78.02.51.1 1.02.28 1.52.02.08.03.2 0 .36 0 .02 0 .03-.02.03a3.6 3.6 0 0 1-.63.08l-.28.02-.27.07a4.93 4.93 0 0 1-.87-2c.03 0 .05-.02.06-.05l.05.2c0 .02.02.03.04.03a1.8 1.8 0 0 1 .46.01l.54.06c.16 0 .32 0 .48-.03.02 0 .03-.02.03-.04.04-.7.16-1.3.36-1.82Z" fill="#2181B5"/><path d="m12.09 10.72-.15.17h-.01v-.01c.07-.13.16-.24.27-.33v-.01l-.39.34a4.8 4.8 0 0 1-.86.52v-.04l.38-.22c.35-.19.66-.44.92-.75a13.69 13.69 0 0 0 .52-.66l.01.02v.01l-.55.75.5-.6a3.5 3.5 0 0 1-.64.8Z" fill="#1A77AC"/><path d="m10.2 13.37.03.07c0 .02-.02.04-.04.05a.29.29 0 0 1-.14.06 4 4 0 0 1-1.93-.36 3.27 3.27 0 0 1-.89-.61c-.42-.4-.74-.9-.95-1.45-.1-.27-.13-.55-.1-.83a3.9 3.9 0 0 0 2.22 2.72 3.9 3.9 0 0 0 1.8.35Z" fill="#004265"/><path d="M11.21 11.34a7.68 7.68 0 0 1 .62-.4l-.62.4Z" fill="#2E90C3"/><path d="M11.37 11.04c-.2.16-.42.27-.66.35l-.03-.01.01-.04c.1-.09.22-.17.33-.24.12.02.24 0 .35-.06Z" fill="#0E6DA0"/><path d="M11.21 11.34c-.18.12-.4.21-.64.28a8.72 8.72 0 0 1-.71.17v-.02l.4-.11.13-.02.82-.3Z" fill="#2E90C3"/><path d="m10.39 11.64-.12.02-.56.12a.37.37 0 0 1-.3-.05l.62-.17c.2.04.41.02.61-.05h.02v.02l-.27.11Z" fill="#1A77AC"/></svg>