<!-- by TradingView --><svg xmlns="http://www.w3.org/2000/svg" width="18" height="18" viewBox="0 0 18 18"><path fill="#F0F3FA" d="M0 0h18v18H0z"/><path d="m3.5 11.36.54-1.2c.51.34 1.24.64 1.9.64.68 0 .95-.26.95-.54 0-.91-3.29-.25-3.29-2.39C3.6 6.84 4.44 6 6.16 6c.75 0 1.53.17 2.1.5l-.5 1.21c-.56-.3-1.1-.51-1.6-.51-.7 0-.94.3-.94.59 0 .88 3.28.22 3.28 2.35 0 1-.84 1.86-2.56 1.86-.95 0-1.9-.26-2.44-.64Z" fill="#364147"/><path d="M13.22 9H14v2.25c-.57.5-1.42.75-2.22.75a2.94 2.94 0 0 1-3.05-3c0-1.73 1.3-3 3.07-3 .9 0 1.68.31 2.2.9l-.5.52a2.24 2.24 0 0 0-1.67-.67A2.2 2.2 0 0 0 9.55 9c0 1.3.95 2.25 2.27 2.25.48 0 1-.1 1.4-.37V9Z" fill="#DD9F27"/></svg>