<!-- by TradingView --><svg width="18" height="18" fill="none" xmlns="http://www.w3.org/2000/svg"><path fill="#F0F3FA" d="M0 0h18v18H0z"/><path d="M9 3a6 6 0 1 0 0 12A6 6 0 0 0 9 3Z" fill="#0F2752"/><path d="M6.276 8.908c.178.082.323.14.48.118.358-.051.464-.192.791-.097a.694.694 0 0 1 .266.167s-.085-.03-.177-.036c-.349-.02-.628.247-.97.16a.55.55 0 0 1-.39-.312Z" fill="#F0F3FA"/><path d="M8.22 8.956c-.114.098-.364.633-.997.332-.019.064.022.27.122.415.086.138.313.196.475.178-.195.182-.066.457-.048.867.11-.225.309-.322.309-.322s-.202.365-.202.56c-.015.307.303.574.58.981.082-.476.063-.648.15-.927.074.165.152.977.125 1.299.477-.383 1.026-.393.784-1.4.145.181.282.546.322.758.225-.366.756-.6.35-1.567.221.181.3.494.39.611.064-.463.328-1.172-.25-1.706l.004-.003a.923.923 0 0 1 .43.329c-.004-.416.262-.655-.324-1.372.109-.18.186-.39.219-.607-.222.026-.483.071-.674.17a.188.188 0 0 0-.155-.107H8.14c-.117 0-.225.158-.29.46-.006-.003-.06-.047-.134-.075-.205-.079-.687-.084-.829.356-.08.207-.016.569-.016.569s.527-.396.784.063m.392-.46c-.084-.051-.145-.21-.043-.29.072-.057.281.05.125.217.145.084.23-.054.236-.104l.05-.004c-.02.102-.165.313-.368.18Z" fill="#F0F3FA"/><path d="M9.819 7.34a.18.18 0 0 1 .102.038l.664-1.437c-.716 0-.46.475-.448.503.012.027-.036.014-.036.014a.249.249 0 0 0-.42.178.25.25 0 0 0 .313.24s-.483.459-.87-.136c-.03-.045.04.054.152.053a.247.247 0 1 0-.14-.45V6.34a.247.247 0 0 0-.153-.441l-.004-.001a.247.247 0 0 0-.152.441v.004a.247.247 0 1 0-.141.45c.112 0 .182-.098.153-.054-.388.595-.87.136-.87.136a.247.247 0 1 0-.107-.418s-.049.013-.037-.014c.012-.028.268-.503-.447-.504l.663 1.438s.045-.036.102-.036H9.82Z" fill="#CFAA41"/><path d="M10.612 8.96c.038-.156.02-.375-.316-.736a3.237 3.237 0 0 1-.346.321c.042.44.06 1.116-.31 1.468 0 0 .005-.287-.157-.598-.016.391-.193.793-.548 1.036 0 0 .06-.272.02-.752a.668.668 0 0 1-.414.43l-.09-.496s.176-.126.177-.131l.057.282c.188-.178.04-.463.218-.527.095-.03.145.041.175.1.083.172.085.32.088.505.112-.261.116-.519.076-.813-.013-.101.035-.154.095-.171.064-.014.114.022.157.072.111.14.185.323.229.486.073-.248.081-.6-.006-.847-.01-.047-.026-.1-.026-.1.257-.218.493-.473.628-.795-.36.106-.831.39-.831.39l-.097-.103.372-.29c.024-.019.034-.046-.033-.048l-1.377.002c-.13 0-.26.041-.26.26l.171.146s.212-.079.414.06l-.027.118s-.089-.06-.134-.026c-.113.292-.303.334-.459.276-.171-.07-.197-.271-.224-.38-.295-.17-.757-.199-.792.323.316-.143.638.031.725.208l.82.237c-.28.21-.656.871-1.117.656.32.347.678-.087.792.095.117.194-.42.243-.333.736.079-.081.24-.253.35-.15.064.058.034.141.013.166-.233.494-.334.721.047 1.112.08-.602.114-.766.273-.771.232-.001.308 1.011.32 1.263.462-.3.532-.353.385-1.092-.03-.132-.01-.208.08-.243.097-.037.18.029.22.092.108.169.22.366.283.566.118-.195.428-.331.09-1.148-.056-.1-.046-.187.03-.234.169-.113.395.168.475.302-.016-.288.125-.648-.326-1.105-.073-.089-.073-.154-.013-.214.098-.101.33-.013.456.062Z" fill="#DB1E31"/><path fill-rule="evenodd" clip-rule="evenodd" d="M9.108 5.204c-1.378 0-2.292.57-2.52.782l-.816-.879c.448-.417 1.653-1.103 3.336-1.103 1.685 0 2.813.689 3.226 1.136l-.882.814c-.168-.182-.966-.75-2.344-.75Z" fill="#CFAA41"/><path fill-rule="evenodd" clip-rule="evenodd" d="M8.948 12.57c1.755 0 2.93-.725 3.24-1.014l.817.879c-.532.494-1.997 1.335-4.057 1.335-2.062 0-3.427-.843-3.911-1.367l.88-.815c.24.259 1.276.982 3.03.982Z" fill="#CBCBCB"/></svg>