<!-- by TradingView --><svg width="18" height="18" xmlns="http://www.w3.org/2000/svg"><path fill="#CC2131" d="M0 0h18v18H0z"/><path d="M7.389 9.888c-1.335-.405-2.345-1.153-2.345-2.586 0-2.087 2.182-3.27 5.113-3.302 2.442 0 4.102 1.037 3.81 3H10.44c.13-.53-.187-.882-.806-.882-.456 0-.814.218-.879.499-.065.374.196.623.814.779.521.155.88.249 1.4.374 1.498.436 2.215 1.277 2.377 2.15l-4.395.435-1.563-.467zm.13 2.274l.283-1.517H4.024C3.764 12.888 5.63 14 8.04 14c2.28 0 4.722-.748 5.243-2.742l-5.764.904z" fill="#fff"/></svg>