<!-- by TradingView --><svg width="18" height="18" viewBox="0 0 18 18" xmlns="http://www.w3.org/2000/svg"><path fill="#F0F3FA" d="M0 0h18v18H0z"/><path d="M6 8.5c-1.19 0-2-.8-2-2.03V4h2.4c1.18 0 2.1 1.02 2.1 2.25V10h-1V6.18c0-.7-.3-1.18-.97-1.18H5v1.5c0 .7.33 1 1 1h1v1H6Z" fill="#005D55"/><path d="M7.33 6.34a1 1 0 1 1-2 0v-1h1a1 1 0 0 1 1 1Z" fill="#9FC130"/><path d="M9.45 6.2c0-1.3.8-2.2 2.05-2.2H14v2.63c0 1.31-1 1.87-2.25 1.87H8v-1h3.8c.7 0 1.2-.48 1.2-.72V5h-1.53c-.7 0-1 .46-1 1.2V7H9.44v-.8Z" fill="#005D55"/><path d="M11.6 7.33a1 1 0 0 1 0-2h1v1a1 1 0 0 1-1 1Z" fill="#9FC130"/><path d="M12 9.5c1.19 0 2 .8 2 2.03V14h-2.4c-1.18 0-2.1-1.02-2.1-2.25V8h1v3.82c0 .7.3 1.18.97 1.18H13v-1.5c0-.7-.33-1-1-1h-1v-1h1Z" fill="#005D55"/><path d="M10.67 11.66a1 1 0 0 1 2 0v1h-1a1 1 0 0 1-1-1Z" fill="#9FC130"/><path d="M8.55 11.8c0 1.3-.8 2.2-2.05 2.2H4v-2.63C4 10.06 5 9.5 6.25 9.5H10v1H6.2c-.7 0-1.2.48-1.2.72V13h1.53c.7 0 1-.46 1-1.2V11h1.02v.8Z" fill="#005D55"/><path d="M6.4 10.67a1 1 0 1 1 0 2h-1v-1a1 1 0 0 1 1-1Z" fill="#9FC130"/></svg>