<!-- by TradingView --><svg width="18" height="18" xmlns="http://www.w3.org/2000/svg"><path fill="#F0F3FA" d="M0 0h18v18H0z"/><path d="M13.99 9.044C13.917 7.849 12.756 7.025 12.695 7l.013.042c.12.404.243 1.438.243 1.438.088.69-.37 1.273-1.498 1.67-.459.16-1.213.376-1.727.64-.331.168-.559.4-.663.964-.049.272-.071.704-.058 1.164.01.308-.036 1.14.955 1.079.989-.062 2.377-.93 3.28-2.24.502-.729.82-1.634.752-2.713z" fill="#3F54F5"/><path d="M12.763 6.624l-.04-.15c-.571-1.987-1.548-2.394-2.92-2.468C7.966 3.9 6.03 5.246 4.788 6.475c-.3.298-.559.586-.764.847-1.473 1.86-1.189 3.743-.206 4.736.284.288.617.518.97.682.42.193.98.36 1.582.19.585-.166.988-.636 1.26-.962.037-.043.108-.133.108-.133l-.121.003c-1.195-.01-2.059-.844-2.137-2.283a2.464 2.464 0 01.502-1.653c.568-.763 1.625-1.269 3.129-1.396 1.444-.121 2.407.189 2.988.53.483.28.817.738.901 1.173v.003c-.016-.1-.122-1.142-.237-1.588z" fill="#FF6E14"/><path d="M5.327 12.896a3.842 3.842 0 01-1.324-.197H4a4.17 4.17 0 002.826 1.297c.65.038 1.135-.19 1.167-.83.023-.456-.006-.771-.14-.957-.093-.13-.234-.197-.442-.208-.214-.011-.355.083-.505.206l-.112.096c-.275.235-.674.561-1.467.593z" fill="#ED9FF3"/></svg>