<!-- by TradingView --><svg width="18" height="18" viewBox="0 0 18 18" xmlns="http://www.w3.org/2000/svg"><path fill="#F0F3FA" d="M0 0h18v18H0z"/><path d="m15.76 7.84.24-.69-.04-.02-.23.66h-3.4v.05h3.43Zm-5.2 2.8 1.13-3.43-.04-.02-1.14 3.43a.4.4 0 0 1-.37.28H9.8v.05h.34c.19 0 .35-.12.42-.32Zm-.13-1.27h-3.4l-.45 1.32a.3.3 0 0 1-.29.21h-.34v.05h.34c.15 0 .28-.1.33-.24l.44-1.3h3.37v-.04ZM6.73 7.7l.18-.46-.04-.02-.19.46a.28.28 0 0 1-.25.18h-2.8l-.31.97h2.81c.1 0 .17.1.13.2l-.53 1.62a.4.4 0 0 1-.38.29H2.1l.06-.16-.04-.01-.08.22h3.32c.2 0 .36-.13.42-.32l.54-1.63c.04-.13-.05-.27-.18-.27H3.38l.29-.86h2.76c.13 0 .24-.08.3-.2Zm8 1.4h.44c.1 0 .16.1.13.2l-.43 1.18a.63.63 0 0 1-.59.44h-3.55v-.05h3.55c.24 0 .46-.16.55-.4l.42-1.2c.03-.06-.02-.13-.08-.13h-.44V9.1Z" fill="#0E1463"/><path d="m6.81 7-.13.42a.35.35 0 0 1-.33.25H3.58l-.34 1.02H6.1c.08 0 .13.09.1.17L5.7 10.5a.47.47 0 0 1-.44.34H2l.12-.28c.1-.22.3-.37.53-.37H5.2l.3-.86H2.77c-.14 0-.24-.16-.2-.3l.45-1.37A.9.9 0 0 1 3.87 7H6.8Zm.1.6c.12-.36.43-.6.78-.6h3.87l-1.1 3.5a.45.45 0 0 1-.42.33h-.29l.52-1.6h-3.3l-.45 1.4a.28.28 0 0 1-.27.2h-.38L6.92 7.6Zm.27.97h3.31l.31-.94H7.48l-.3.94Zm5.06-.92h3.44L15.9 7h-3.4a.85.85 0 0 0-.78.62l-1.04 3.21h3.57a.6.6 0 0 0 .55-.44l.4-1.32h-1.32a.45.45 0 0 0-.41.3l-.13.34h1.12l-.15.5h-2.86l.8-2.56Z" fill="url(#a)"/><defs><linearGradient id="a" x1="4.41" y1="7.07" x2="4.41" y2="10.83" gradientUnits="userSpaceOnUse"><stop stop-color="#0D1361"/><stop offset=".55" stop-color="#1D46A2"/><stop offset=".99" stop-color="#1E76CD"/></linearGradient></defs></svg>