<!-- by TradingView --><svg width="18" height="18" viewBox="0 0 18 18" xmlns="http://www.w3.org/2000/svg"><path fill="#F0F3FA" d="M0 0h18v18H0z"/><path d="m8.9 9.1-.07.02a.02.02 0 0 1-.02-.01c-.02-.04 0-.06.03-.08L8.88 9c.09-.15.3-.14.46-.12l.05.01c.04 0 .08 0 .13.03 0 .03-.02.05-.03.06-.05.02-.52.15-.57.13H8.9Z"/><path d="M10.9 8.72a1 1 0 0 0-.03-.16.2.2 0 0 1 0-.05v-.03h-.03c0-.13.02-.26.05-.38l.05-.14.02-.06.01-.01.25-.08c.02 0 .03-.02.02-.04v-.01l.01-.02-.02-.01-.01-.01c0-.03-.03-.04-.06-.03h-.01l-.06-.03h-.01c-.03.02-.06.02-.08.02h-.03l-.36.09c-.64.15-1.32.23-1.93.46l-.12.01h-.01c.06-.16.1-.32.1-.5 0-.26.04-1-.39-1.04a.06.06 0 0 1-.04-.03l.1-.02h.1c.68-.08 2.19-.72 2.72-.36.1.1.13.27.15.42v.04c.05.3 0 .56-.06.84v.01c.03.04.08.06.12.07l.06.03c.16-.23.13-.81.09-1.06l-.03-.13a.65.65 0 0 0-.22-.4v-.08a.8.8 0 0 0-.26-.1c-.88-.15-1.91.54-2.82.54H8v.01c0 .02 0 .03-.02.04v.01l.04.02v.01a.57.57 0 0 1-.1.06l-.07.02c-.04.01-.08.02-.1.04-.53.29-.9 1.14-1.1 1.65-.37.88-.38 1.81-.48 2.74 0 .03-.02.05-.03.08v.01a.2.2 0 0 0-.02.1v.01c.04.05.1.08.15.1.03 0 .05.02.07.03.43.22.85.41 1.27.64.14.07.3.14.45.16h.01c.01-.02.03-.03.05-.03h.02c.77-.28 3.16-1.33 3.28-1.7l.04-.1v-.01c-.1-.57-.47-1.04-.55-1.64ZM7.8 6.87l-.05.04a2.6 2.6 0 0 0-.6 1.35c-.02.08-.02.17-.03.27v.2c-.06.57 0 1.23.07 1.8l-.01.06v.03l-.01.01a.34.34 0 0 1-.06.04c-.2.1-.45.2-.6.36-.02.03-.05.04-.08.06h-.01c-.02-.72.44-3.76 1.4-4.25l-.03.03Zm.06 1.18c.02.11.1.44.29.44l.1-.01h.01c.01.02.02.03.05.03.8-.12 1.64-.36 2.41-.56.01 0 .01 0 0 0a.92.92 0 0 0-.06.25v.05l-.04.18-.01.01a6.43 6.43 0 0 0-.8.4v.02c.01.03.06.03.1.04.2.04.6-.22.78-.25l.02.06.01.08c.11.42.21 1.33.48 1.56.02.02.02.03.01.05-.05.11-.16.15-.27.18l-.1.04c-.71.3-1.45.7-2.17.95-.17.06-.32.14-.47.23a.29.29 0 0 1-.14.05h-.01V10.8c0-.2-.03-.4-.07-.59a4.02 4.02 0 0 1-.07-.82 4.18 4.18 0 0 1 .38-.14l-.04-.06c-.09-.06-.28-.03-.37 0a.02.02 0 0 1-.03-.03c-.02-.33-.08-.66-.08-1v-.18c0-.27-.01-.58.13-.82v-.03c.05-.1.12-.18.21-.23.28-.13.32.35.26.51h-.02c-.36-.59-.5.6-.5.64Zm-.06 3.73.02.04.04.02V11.9h-.04c-.4-.32-.95-.4-1.35-.67v-.01c.28-.17.6-.29.86-.48.02-.01.04-.03.04-.06.04-.62-.08-1.27-.08-1.9l.01-.24c.04-.26.09-.53.17-.77.06-.18.15-.34.22-.52v.02a2.29 2.29 0 0 0-.12.55c-.07.52.02 1.12.1 1.64.05.26.1.52.12.78.02.1.02.26.03.42.01.24.01.49.03.73a20.23 20.23 0 0 1-.02.17c-.09-.24-.16-.52-.35-.7h-.01c-.03 0-.05-.02-.06-.05v-.01h-.02c-.05.02-.06.05-.04.08.05.1.23.85.45.9Zm.66-3.95a.79.79 0 0 1-.2.45c-.04.03-.1-.02-.13-.05A.6.6 0 0 1 8 7.96c-.02-.06-.02-.13-.03-.2v-.1c0-.02 0-.02.03 0 .3.22.56-.4.46.17Z"/><path fill-rule="evenodd" d="M15 9A6 6 0 1 1 3 9a6 6 0 0 1 12 0Zm-.33 0A5.67 5.67 0 1 1 3.33 9a5.67 5.67 0 0 1 11.34 0Z"/><path d="M13.27 7.88C11.9 5.41 9.8 4.82 8.98 4.82v-.7c1.06 0 3.4.71 4.9 3.43l-.61.33ZM7.6 5.01a7 7 0 0 0-2.9 2.87l-.63-.33a7.7 7.7 0 0 1 3.25-3.18l.28.64Zm-1.55 7.2c.7.68 1.71 1.17 3.13 1.02A4.65 4.65 0 0 0 13.23 10l.68.18a5.35 5.35 0 0 1-4.65 3.74 4.45 4.45 0 0 1-3.68-1.2c-.83-.79-1.3-1.8-1.52-2.53l.67-.2c.2.65.61 1.54 1.33 2.23Z" fill-opacity=".7"/></svg>