<!-- by TradingView --><svg width="18" height="18" viewBox="0 0 18 18" xmlns="http://www.w3.org/2000/svg"><path fill="#F0F3FA" d="M0 0h18v18H0z"/><path d="M7.18 4H13v8.04c0 .25-.06.51-.17.75-.1.24-.27.45-.47.64a2.4 2.4 0 0 1-1.54.58H5V5.95c0-.52.23-1.02.64-1.38.4-.37.96-.58 1.54-.58Z" fill="#113675"/><path d="m8.45 7.76-.16-.05C7.65 7.51 7 7.24 7 6.35 7 5.53 7.68 5 8.67 5c.28 0 .51.06.71.1.14.05.27.08.38.08.13-.01.26-.06.37-.15h.02V6.3c-.4-.68-.8-1.16-1.48-1.16-.43 0-.78.25-.78.69 0 .51.47.69 1.01.85l.08.03c.7.22 1.47.46 1.47 1.48 0 .59-.4 1-.91 1.22v-.72c0-.56-.51-.72-1.1-.92ZM7 8.26h.03c.16.73.5.91.9 1.12L8 9.4l.01.02v.18l-.01.02h-.02a2.42 2.42 0 0 0-.5-.08.77.77 0 0 0-.44.16h-.01l-.01-.01L7 9.69V8.26Z" fill="#fff"/><path d="M10.6 10.7v-.05c.6-.03 1.21-.36 1.21-1 0-.59-.38-.94-1.12-1.05-.03.17-.08.34-.15.5v.01c.1.17.22.5.21.69 0 .6-.44.8-1.04.8H9V8.92c0-.12-.03-.32-.17-.32H8c.16.18.28.47.26.7v2.9c0 .4-.13.65-.26.8h2.27c1.2 0 1.73-.44 1.73-1.21s-.68-1.06-1.4-1.1Zm-.79 2.12H9v-2.05h.81c.72 0 1.19.36 1.19 1.02s-.47 1.03-1.19 1.03Z" fill="#E87425"/></svg>