<!-- by TradingView --><svg xmlns="http://www.w3.org/2000/svg" width="18" height="18"><path fill="#F0F3FA" d="M0 0h18v18H0z"/><path d="M4 6v1a8.72 8.72 0 017-.5L12 5H5S4 5 4 6z" fill="url(#a2jtntmsd)"/><path d="M14 6v3s-.5-.8-1-1.22c-.5-.42-1-.78-1-.78.45-1.35 1-2 1-2s1 0 1 1z" fill="url(#b2jtntmsd)"/><path d="M14 10.1c0-.38-1.34-1.74-2-2.1 0 0-.45 1.9-.76 2.85A6.75 6.75 0 0110 13h2.77s.57 0 .85-.28.38-.6.38-.92v-1.7z" fill="url(#c2jtntmsd)"/><path d="M4 11.82V8s1.28-1 3.13-1c2.2 0 3.38.5 3.38.5s-.27 1.48-1.17 3.1a6.26 6.26 0 01-2.9 2.4H5.2s-.5.04-.89-.35c-.4-.39-.31-.83-.31-.83z" fill="url(#d2jtntmsd)"/><defs><linearGradient id="a2jtntmsd" x1="5.51" y1="4.74" x2="11.38" y2="6.01" gradientUnits="userSpaceOnUse"><stop offset=".23" stop-color="#F9BF13"/><stop offset="1" stop-color="#FDEFCB"/></linearGradient><linearGradient id="b2jtntmsd" x1="11.51" y1="7.09" x2="14.15" y2="6.41" gradientUnits="userSpaceOnUse"><stop offset=".22" stop-color="#FFF3DB"/><stop offset=".91" stop-color="#F9BF13"/></linearGradient><linearGradient id="c2jtntmsd" x1="12.14" y1="7.85" x2="13.62" y2="13.04" gradientUnits="userSpaceOnUse"><stop stop-color="#B9C7E2"/><stop offset=".35" stop-color="#4488BD"/><stop offset=".65" stop-color="#0063A7"/></linearGradient><linearGradient id="d2jtntmsd" x1="3.76" y1="11.71" x2="11.69" y2="7.09" gradientUnits="userSpaceOnUse"><stop offset=".3" stop-color="#0063A7"/><stop offset=".5" stop-color="#3783BA"/><stop offset=".63" stop-color="#5494C4"/><stop offset=".75" stop-color="#6FA4CD"/><stop offset=".88" stop-color="#CBDAED"/></linearGradient></defs></svg>