<!-- by TradingView --><svg width="18" height="18" viewBox="0 0 18 18" xmlns="http://www.w3.org/2000/svg"><path fill="#F0F3FA" d="M0 0h18v18H0z"/><path d="M5.06 14H9c-2.14-.55-5.02-2.48-5.02-4.8 0-2.33 2.34-4.44 3.51-5.2C6 4.48 2 6.42 2 9.2c0 2.21 2.04 4.12 3.06 4.8Z" fill="#B25752"/><path d="M13 14H9.7a5.07 5.07 0 0 0 3.8-4.8c0-2.33-1.73-4.44-2.88-5.2C12.1 4.48 16 6.42 16 9.2c0 2.21-2 4.12-3 4.8Z" fill="url(#agciedw0p)"/><path fill-rule="evenodd" d="M6.45 8.26h.43V8.2c0-.38-.3-.7-.69-.7-.38 0-.69.32-.69.7 0 .24.1.46.26.63l.62.62c.05.04.07.1.07.16v.22c0 .13-.1.24-.24.24a.24.24 0 0 1-.23-.24v-.1H5.5v.05c0 .38.3.7.69.7.38 0 .69-.32.69-.7v-.07c0-.25-.1-.5-.28-.67l-.56-.56a.2.2 0 0 1-.06-.15v-.18c0-.13.1-.23.23-.23s.24.1.24.23v.1Zm.9 2.22H6.9l.53-2.96h.58l.53 2.96h-.47l-.1-.74h-.5l-.12.74Zm.37-2.42.19 1.31h-.39l.2-1.3Zm3.11 2.42h.44l.1-.74h.5l.1.74h.44l-.5-2.96h-.56l-.52 2.96Zm.98-1.11-.19-1.3-.19 1.3h.38Zm-3.24 1.11V7.52h.68l.34 2.1.36-2.1h.68v2.96h-.42V8.4l-.42 2.1h-.45l-.38-2.1v2.1h-.39Z"/><defs><linearGradient id="agciedw0p" x1="12.85" y1="4" x2="12.85" y2="14" gradientUnits="userSpaceOnUse"><stop stop-color="#A25954"/><stop offset="1" stop-color="#984642"/></linearGradient></defs></svg>