<!-- by TradingView --><svg width="18" height="18" viewBox="0 0 18 18" xmlns="http://www.w3.org/2000/svg"><path fill="#F0F3FA" d="M0 0h18v18H0z"/><path d="M8.18 4.72c-3.87-.52-4.82 1.3-4.82 2.27 1.36-.94 3.37-.82 4.2-.64l-.22.74L9.5 5.93 8.47 4l-.29.72Z" fill="#FFFF7E"/><path d="M9.7 13.3c3.85.65 4.86-1.14 4.89-2.11-1.39.9-3.4.7-4.22.5l.24-.74-2.18 1.08L9.4 14l.3-.7Z" fill="#013A5A"/><path d="M3.38 7c-1.53 2.82 1.92 5.09 3.83 5.87l.58-1.65C4.57 9.9 3.51 7.85 3.39 6.99Z" fill="#CABC2B"/><path d="M14.57 11.18c1.63-2.77-1.74-5.15-3.63-6l-.63 1.63c3.16 1.43 4.16 3.51 4.26 4.37Z" fill="#0E233C"/></svg>