<!-- by TradingView --><svg width="18" height="18" viewBox="0 0 18 18" xmlns="http://www.w3.org/2000/svg"><path fill="url(#a1mvja53d)" d="M0 0h18v18H0z"/><path fill-rule="evenodd" d="M9 14.68a6.89 6.89 0 0 1-2.69-1.9 3.66 3.66 0 0 1-1.01-2.16V4.3h7.4v6.32c0 .59-.35 1.39-1.01 2.16A6.89 6.89 0 0 1 9 14.68ZM9 15l-.06-.02C6.58 14.08 5 12 5 10.62V4h8v6.62c0 1.38-1.58 3.46-3.94 4.36L9 15Z" fill="#fff"/><path d="M5.57 4.65v5.79c0 1.2 1.36 3.02 3.38 3.8l.05.03.05-.02c2.02-.79 3.38-2.6 3.38-3.81v-5.8H5.57Z" fill="#D41208"/><path d="M12.01 11.76 9.03 9.43 6 11.78c.22.4.53.78.9 1.15l2.13-1.7 2.07 1.7c.38-.37.69-.77.91-1.17Z" fill="#163576"/><path d="M8.77 6.5c.07-.03.05.02.05.04-.02.04-.07.15-.02.2.06.07.08 0 .07-.02 0-.04-.04-.12.03-.2.05-.04.08 0 .09.03.08.35-.22.37-.29.24-.03-.07-.02-.25.07-.29Zm.55.14c-.1.02-.12.17-.03.24-.23-.06-.3.14-.46.1-.18-.05-.22-.1-.34 0 0-.1.04-.14.13-.18-.05-.09-.02-.16-.02-.16-.1-.02-.17-.16-.1-.26.01.06.04.06.06.07.06.02.23-.03.31-.12.08-.08.17-.13.4-.05-.2 0-.22.08-.25.16.1-.02.24.1.3.2Zm-1.95 1.8c-.03-.08-.05-.22-.06-.33h.12l.09.36c-.05 0-.1 0-.15-.02Zm-.96-2.27c.02-.08.12-.07.1.03-.04.2-.04.42.01.54-.17-.2-.13-.5-.1-.57Zm-.15.02c.04-.1.16-.1.12.03-.04.14-.04.47.08.64a.8.8 0 0 1-.2-.67Zm4.96 2.02c.37.11.52-.3.54-.38.01-.08 0-.09-.05-.05-.54.51-.38-.63-.89-.7.52-.17.21-1.46.82-1.23-.1-.3-.4-.3-.67.03.1-.24.11-.74-.17-.8.25 1.04-.75 1.3-.78 1.67-.06-.06-.15-.27.08-.46.68-.59.32-1.14.43-1.54-.9.55-.3 1.42-1.12 1.55.15-.02.26-.2.26-.36-.62-.15-1.21.21-1.31.37-.52-.25-.9-.2-1.18.01-.08-.11-.2-.2-.36-.34-.04.45-.03.8.1 1.07 0 0-.2-.12-.23-.29a1.98 1.98 0 0 1-.03-.47c.01-.2.06-.54-.13-.56-.43-.04-.44 1.48.48 1.62l.32.08c-.03-.48.21-.76.47-.8-.03.2-.02.5.01.64.16-.06.2-.63.07-.86.5.2.64.83.39 1.14.8.06 1 .52.8.9-.15.28-.68.17-1.14.06-.04-.12-.1-.25-.14-.42.24.05.51.14.8.34.2.1.3-.26.12-.42a2 2 0 0 0-.97-.23 2.35 2.35 0 0 1-.06-.96c-.18.2-.25.48-.2.97l-.13.02-.02-.27-.2-.04v.37c-.18.06-.37.15-.54.3-.16.13-.03.24.11.13.06-.04.22-.14.46-.2l.06.31c-.2-.01-.36.17-.23.37.1.12.6.24 1.1.14.07-.02.05-.05.02-.08-.01 0 0-.01 0 0 1.6.19 2.08.14 1.94 0v-.02c.12.02.5.14.97.15.24 0 .58-.05.7-.25.02-.03 0-.03-.02-.02-.03.01-.06.04-.12.02-.1-.04-.22-.3-.37-.47-.02-.02-.02-.05.01-.04ZM8 6.6c.32.4.1 1.16-.27.96.22-.03.36-.46.27-.96Zm1.22-.9c-.04-.66.52-.71.52-1.08.2.32.1.76-.01 1.11a.82.82 0 0 0-.51-.03Z" fill="#DCD5C3"/><defs><linearGradient id="a1mvja53d" x1="3.35" y1="3.12" x2="21.9" y2="24.43" gradientUnits="userSpaceOnUse"><stop stop-color="#1A1E21"/><stop offset="1" stop-color="#06060A"/></linearGradient></defs></svg>