<!-- by TradingView --><svg width="18" height="18" fill="none" xmlns="http://www.w3.org/2000/svg"><path fill="url(#paint0_linear)" d="M0 0h18v18H0z"/><path d="M13.622 7.042a4.753 4.753 0 00-1.075-1.598 5.13 5.13 0 00-1.602-1.062A4.93 4.93 0 009 4c-.683 0-1.33.127-1.945.382a4.91 4.91 0 00-1.602 1.062A4.991 4.991 0 004 9c0 .695.128 1.345.385 1.952a5.002 5.002 0 002.677 2.67 4.906 4.906 0 001.546.367c.13.01.26-.197.392-.197s.262.207.392.197a4.981 4.981 0 003.155-1.43A4.99 4.99 0 0014 9.003a5.12 5.12 0 00-.378-1.96zm-3.618 4.701c-.378.324-.725.624-.957.93a.061.061 0 01-.097 0c-.231-.304-.579-.603-.954-.93-.863-.743-1.839-1.585-1.839-2.757C6.157 7.383 7.46 6.029 9 6.029c1.54 0 2.843 1.354 2.843 2.957-.003 1.174-.979 2.014-1.839 2.757z" fill="#fff"/><path d="M7.436 11.915c.995.891 1.17 1.622 1.17 2.07a5.3 5.3 0 00.785 0c0-.448.174-1.179 1.169-2.07.765-.687 1.765-1.457 1.765-2.916 0-1.873-1.524-3.456-3.327-3.456S5.67 7.126 5.67 8.999c0 1.46 1 2.23 1.765 2.916zM9 6.432c1.354 0 2.498 1.191 2.498 2.599 0 1.03-.858 1.768-1.614 2.421-.33.285-.638.548-.841.816a.052.052 0 01-.085 0c-.204-.268-.508-.53-.84-.816-.755-.653-1.613-1.393-1.613-2.421C6.503 7.623 7.646 6.432 9 6.432z" fill="url(#paint1_linear)"/><defs><linearGradient id="paint0_linear" x1="3.349" y1="3.122" x2="21.904" y2="24.434" gradientUnits="userSpaceOnUse"><stop stop-color="#1A1E21"/><stop offset="1" stop-color="#06060A"/></linearGradient><linearGradient id="paint1_linear" x1="8.999" y1="14" x2="8.999" y2="5.541" gradientUnits="userSpaceOnUse"><stop stop-color="#F3E794"/><stop offset=".039" stop-color="#ECDF8D"/><stop offset=".208" stop-color="#D1C272"/><stop offset=".376" stop-color="#BEAE5F"/><stop offset=".541" stop-color="#B3A154"/><stop offset=".7" stop-color="#AF9D50"/></linearGradient></defs></svg>