<!-- by TradingView --><svg width="18" height="18" viewBox="0 0 18 18" xmlns="http://www.w3.org/2000/svg"><path fill="#F0F3FA" d="M0 0h18v18H0z"/><path d="M12.93 4.32s-2.24 1.15-2.2 4.82C10.76 12.47 8.68 14 8.68 14c.94-.03 2.59-.08 3.47-.66a3.68 3.68 0 0 0 1.62-2.39c.2-1.14-.22-2.07-1.23-2.43a2.6 2.6 0 0 0 1.42-1.9c.22-1.22-.44-2.01-1.03-2.3Z" fill="#A2A9AD"/><path d="M4 12.82V7.58S3.81 4 6.97 4h1.28S6.98 5.13 7.02 8c.05 3.26-1.62 4.71-3.02 4.82Z" fill="#CB9700"/><path d="M4 13.82V14h2.83c1.18-.55 2.92-1.43 2.92-4.99 0-3.56 2.03-5 2.03-5L9.68 4s-1.77.8-1.71 4.47c.07 4.23-2.96 5.38-3.97 5.35Z" fill="#231F20"/></svg>