<!-- by TradingView --><svg width="18" height="18" viewBox="0 0 18 18" xmlns="http://www.w3.org/2000/svg"><path fill="#F0F3FA" d="M0 0h18v18H0z"/><path fill-rule="evenodd" d="M8.71 13.69c2.44 0 4.41-2.1 4.41-4.69h.3c0 2.76-2.1 5-4.71 5A4.8 4.8 0 0 1 4 9.16 3.53 3.53 0 0 1 4 9c0-2.76 2.1-5 4.71-5 1.32 0 2.52.58 3.37 1.51l-.2.23a4.28 4.28 0 0 0-3.17-1.43 4.42 4.42 0 0 0-4.05 2.82 3.02 3.02 0 0 1 2.43-1.26c1.7 0 3.1 1.47 3.1 3.29 0 1.8-1.4 3.28-3.1 3.28-.78 0-1.5-.31-2.04-.82a4.35 4.35 0 0 0 3.66 2.07ZM4.3 9.09c.02-.91.74-1.65 1.61-1.65.85 0 1.54.68 1.62 1.56h.3A1.96 1.96 0 0 0 5.9 7.13c-.44 0-.85.16-1.17.43a2.76 2.76 0 0 1 2.35-1.37c1.55 0 2.8 1.33 2.8 2.97 0 1.64-1.25 2.96-2.8 2.96-.99 0-1.86-.54-2.35-1.36a1.84 1.84 0 0 0 2.4-.05l-.18-.24c-.29.25-.65.4-1.05.4-.81 0-1.5-.64-1.6-1.48l-.01-.3Zm9.4-.4h.3a5.79 5.79 0 0 0-1.29-3.37l-.2.22c.69.85 1.13 1.95 1.2 3.15Z" fill="url(#albgr1few)"/><defs><linearGradient id="albgr1few" x1="4.15" y1="9.31" x2="13.77" y2="7.22" gradientUnits="userSpaceOnUse"><stop stop-color="#F15F69"/><stop offset="1" stop-color="#273A91"/></linearGradient></defs></svg>