<!-- by TradingView --><svg width="18" height="18" viewBox="0 0 18 18" xmlns="http://www.w3.org/2000/svg"><path fill="#F0F3FA" d="M0 0h18v18H0z"/><path d="m5.05 12.22 1.16-1.44a.2.2 0 0 1 .29-.03 4.61 4.61 0 0 0 2.85 1.03c.7 0 1.07-.25 1.07-.67v-.03c0-.4-.3-.62-1.58-.93-1.97-.47-3.5-1.05-3.5-3.03V7.1c0-1.8 1.37-3.1 3.6-3.1 1.3-.04 2.58.36 3.64 1.15.05.04.08.1.08.15.01.06 0 .12-.03.17L11.58 7a.2.2 0 0 1-.3.05 4.35 4.35 0 0 0-2.41-.82c-.62 0-.93.26-.93.62v.03c0 .44.32.63 1.62.93 2.12.49 3.44 1.2 3.44 3.01v.03C13 12.82 11.5 14 9.25 14a6.38 6.38 0 0 1-4.17-1.46.23.23 0 0 1-.03-.32Z" fill="#0C0C1D"/></svg>