<!-- by TradingView --><svg width="18" height="18" viewBox="0 0 18 18" xmlns="http://www.w3.org/2000/svg"><path fill="#003057" d="M0 0h18v18H0z"/><path fill-rule="evenodd" d="M14 4H6.91A8.92 8.92 0 0 0 4 8.23v.72a8.64 8.64 0 0 1 2.98-4.78h.4l.06.07a.4.4 0 0 0 .52 0 .34.34 0 0 0 .06-.07h.5a11.73 11.73 0 0 0-4.12 9.66H4V14h10V4Zm-.26 8.3.07.03v1.46L5.55 11.8c.03-.28.08-.56.13-.83l8.06 1.31Zm.06-.17h.01v-.65l-1.3-.83-1.02-.09-.18.24 2.5 1.33Zm-3.2-1.84h-.01l-3.26-.12V10h3.9l.55.33-1.19-.04Zm-.13.19-1.66-.15c0 .06-.03.17-.18.17s-.19-.11-.19-.17H7.7c-.06.11-.22.34-.37.34-.14 0-.37-.17-.37-.34V9c0-.17.19-.33.37-.33.15 0 .31.22.37.33h.74c0-.06.04-.17.19-.17s.18.11.18.17h1.12L7.2 7.26a10.6 10.6 0 0 0-1.5 3.56l4.34.7c.12-.45.29-.82.42-1.04Zm-.24 1.07.53.09c.02-.19.08-.32.16-.5a2.52 2.52 0 0 1 .36-.6l-.61-.05c-.13.2-.31.58-.44 1.06Zm.72.12 1.36.22-1.26-.6a1.5 1.5 0 0 0-.1.38Zm1.95.32-1.78-.86.1-.18 2.07 1.1-.4-.06Zm-1.84 1.84h2.24l-2.35-.56a2.37 2.37 0 0 0 .11.56Zm-.3-.6-.74-.18a3.54 3.54 0 0 0 .12.78h.73a1.97 1.97 0 0 1-.1-.6Zm-.82.6-.07-.34c-.03-.19-.04-.37-.04-.49l-4.3-1.02a10.34 10.34 0 0 0-.01 1.85h4.42Zm3.87-4v1.46l-6.5-4.17.41-.58 6.1 3.3ZM7.87 6.36c.66-.82 1.44-1.56 2.31-2.2h2.05l1.58 2.22V9h-1.1L7.86 6.36Zm5.94-.46-1.18-1.73h1.18V5.9Z" fill="#fff"/><path d="M6.96 5.33c0 .19-.16.34-.37.34-.2 0-.37-.15-.37-.34 0-.18.17-.33.37-.33.2 0 .37.15.37.33ZM4.14 12.03A.4.4 0 0 0 4 12v.67a.4.4 0 0 0 .26-.1.33.33 0 0 0 .08-.1.3.3 0 0 0 0-.26.33.33 0 0 0-.08-.11.38.38 0 0 0-.12-.07ZM4 13a.4.4 0 0 1 .26.1c.04.03.06.07.08.1a.3.3 0 0 1 0 .26.33.33 0 0 1-.08.1.4.4 0 0 1-.26.1V13Z" fill="#fff"/></svg>