<!-- by TradingView --><svg width="18" height="18" viewBox="0 0 18 18" xmlns="http://www.w3.org/2000/svg"><path fill="url(#a2f5fahme)" d="M0 0h18v18H0z"/><path d="m8.13 9.36-2.7-.76c-.44-.12-.58-.62-.24-.9l5.42-4.54c.47-.4 1.25.01 1.05.55L9.83 8.63l2.73.77c.46.13.59.63.24.91l-5.54 4.54c-.48.39-1.25-.03-1.04-.57l1.91-4.92Zm1.4-3.68L6.9 7.85l1.6.44 1.04-2.61Zm-1.22 6.69 2.64-2.17-1.6-.44-1.04 2.6Z" fill="#fff"/><defs><linearGradient id="a2f5fahme" x1="0" y1="9" x2="18" y2="9" gradientUnits="userSpaceOnUse"><stop stop-color="#5C56FE"/><stop offset="1" stop-color="#3384FA"/></linearGradient></defs></svg>