<!-- by TradingView --><svg xmlns="http://www.w3.org/2000/svg" width="18" height="18"><path fill="#F0F3FA" d="M0 0h18v18H0z"/><path d="M14 5H5v9h1.5l1.28-2.97L5.54 8.6h3.1l1.28-3.19 1.39 3.19h1L14 5z" fill="#AE1D30"/><path d="M10.17 8.63c.86.03 1.57.53 1.82.78l-1.06 1.06c-.2-.22-.5-.37-.6-.41-.21-.04-.63-.07-.64.18-.01.26.48.38.7.43.92.25 1.42.8 1.45 1.52.03.73-.62 1.81-1.97 1.81-1.08 0-1.87-.5-2.13-.76l1-1.14c.21.26.6.47.91.51.18.03.46.02.46-.2s-.28-.37-.46-.42c-.5-.14-1.64-.5-1.64-1.56 0-1.33 1.1-1.83 2.16-1.8z" fill="#082243"/></svg>