<!-- by TradingView --><svg width="18" height="18" fill="none" xmlns="http://www.w3.org/2000/svg"><path fill="#F0F3FA" d="M0 0h18v18H0z"/><path d="M9.555 11.636c2.296-.972 3.485-3.35 2.654-5.312-.718-1.698-2.712-2.526-4.724-2.09a5.002 5.002 0 0 0-3.282 6.177c1.041 1.54 3.292 2.096 5.352 1.225Z" fill="#AF0000"/><path d="M10 12.274V6.181A.18.18 0 0 0 9.82 6h-.886c-.083 0-.13.018-.204.045l-1.614.82C7.023 6.9 7 6.955 7 7.046v.785c0 .097.066.169.165.169H8v4c.291-.04 1.849.366 2 .274Z" fill="#fff"/><path d="M9 4c-.528 0-1.037.082-1.515.234 2.012-.436 4.006.393 4.724 2.09.83 1.962-.358 4.34-2.654 5.312-2.06.871-4.31.314-5.352-1.225A5.001 5.001 0 1 0 9 4Z" fill="#E60000"/></svg>