<!-- by TradingView --><svg width="18" height="18" viewBox="0 0 18 18" xmlns="http://www.w3.org/2000/svg"><path fill="#F0F3FA" d="M0 0h18v18H0z"/><path fill="url(#apyqp4rjm)" d="M4 4h10v10H4z"/><path d="M6 12.77 9 10l3 2.77-.25.23L9 10.46 6.25 13 6 12.77Z"/><path d="m10 12.76-.22.24-.78-.86-.78.86-.22-.24 1-1.1 1 1.1ZM6 5.23 9 8l3-2.77-.25-.23L9 7.54 6.25 5 6 5.23Z"/><path d="M10 5.24 9.78 5 9 5.86 8.22 5 8 5.24l1 1.1 1-1.1ZM5.23 6 8 9l-2.77 3-.23-.25L7.54 9 5 6.25 5.23 6Z"/><path d="M5.18 10 5 9.78 5.64 9 5 8.22 5.18 8 6 9l-.82 1ZM12.77 6 10 9l2.77 3 .23-.25L10.46 9 13 6.25 12.77 6Z"/><path d="m12.82 10 .18-.22-.64-.78.64-.78-.18-.22L12 9l.82 1Z"/><defs><linearGradient id="apyqp4rjm" x1="4" y1="4" x2="14" y2="14" gradientUnits="userSpaceOnUse"><stop stop-color="#9DA0A2"/><stop offset=".26" stop-color="#E4E6E8"/><stop offset=".51" stop-color="#9FA1A4"/><stop offset=".81" stop-color="#F7F8F9"/><stop offset="1" stop-color="#BDC0C3"/></linearGradient></defs></svg>