<!-- by TradingView --><svg xmlns="http://www.w3.org/2000/svg" width="18" height="18"><path d="M0 9a9 9 0 1118 0A9 9 0 010 9z" fill="#F0F3FA"/><path d="M12.5 6.85h-1.47C10.9 5.92 10 5.44 9.12 5.41c-.74-.02-1.57.32-1.74 1.09-.18.86.45 1.43 1.24 1.6.5.12 1.1.17 1.67.32 1.29.33 2.17 1.28 2.2 2.64.05 1.96-1.64 2.95-3.37 2.94-1.73 0-3.5-1-3.62-2.85h1.52c.16.95 1.13 1.4 2.1 1.42.99.02 1.93-.39 1.9-1.49-.01-.85-.79-1.31-1.56-1.46-.42-.09-.88-.15-1.37-.28C6.71 8.96 5.7 8 5.91 6.5 6.14 4.92 7.53 3.98 9.1 4c1.65.02 3.27 1 3.39 2.85z" fill="#F39800"/></svg>