<!-- by TradingView --><svg width="18" height="18" xmlns="http://www.w3.org/2000/svg"><path fill="#96002D" d="M0 0h18v18H0z"/><path d="M13.998 9.49v-.003c-1.692-.554-4.828.162-6.199-.564-.388-.202-.699-.748-.42-1.173H4.15c-.035.165-.104.455-.121.625h2.734c-.273.277-.543.526-.772.957-.244.458.28.616.598.697 1.726.453 5.428.109 7.002.995l.002-.004.002.001A4.895 4.895 0 0014 9.491h-.002zM9.01 4c-.749 0-1.698.18-2.418.625h4.827C10.879 4.25 9.879 4 9.01 4zm2.765 1.18l-.412.495c-.02.026-.378.43.275.606.44.119.997.11 1.608.053-.34-.535-.779-.962-1.292-1.334H6.066c-.21.152-.515.38-.7.563h5.607c.351-.383.876-.455.802-.383zm-2.66 1.807c-.157.175-.343.356-.462.561-.08.124-.18.4.346.576.5.167 1.04.176 1.561.176 1.13-.02 2.26-.154 3.392-.117l-.004-.012h.004c-.039-.311-.213-.887-.289-1.028l-.001-.002c-.983.095-2.351.39-3.319-.118-.184-.098-.464-.271-.464-.514-.007-.143.2-.522.319-.634H5.1c-.124.16-.298.45-.401.625h4.923c-.146.141-.276.208-.352.308H4.506c-.072.164-.206.459-.262.63H7.95c.524-.326 1.154-.51 1.166-.45zm-3.22 1.7H4c0 .168.006.458.021.626h.957c.272-.21.676-.453.917-.626zm3.667 3.177c-1.52-.88-3.474-.527-4.521-1.137-.446-.26-.62-.853-.538-1.102h-.482C4.375 12.178 6.57 14 9.01 14a4.98 4.98 0 001.328-.183c.198-.704.099-1.446-.776-1.953z" fill="#fff"/></svg>