<!-- by TradingView --><svg width="18" height="18" viewBox="0 0 18 18" xmlns="http://www.w3.org/2000/svg"><path fill="#08954C" d="M0 0h18v18H0z"/><path d="M8.6 4C6.65 4 6 5.75 6 6.64 6 9.1 7.9 9.39 8.25 9.5c1.38.48 2.25.45 2.25 1.75 0 .8-.58 1.4-1.25 1.4-1.13 0-1.86-.72-2-1.98H6V14h1.27v-.83c.6.57 1.33.83 2.1.83C10.9 14 12 12.8 12 11.02c0-2.07-1.1-2.54-2.22-2.92-1.14-.38-2.28-.58-2.28-1.5 0-.81.5-1.28 1.18-1.28.46 0 .83.2 1.12.51.28.3.48.67.58 1.17h1.15V4H10.3v.8C9.85 4.31 9.25 4 8.6 4Z" fill="#fff"/></svg>