<!-- by TradingView --><svg width="18" height="18" viewBox="0 0 18 18" fill="none" xmlns="http://www.w3.org/2000/svg">
<rect width="18" height="18" fill="#F0F3FA"/>
<path d="M13.9989 4H11.5024V6.49921H13.9989V4Z" fill="#867874"/>
<path fill-rule="evenodd" clip-rule="evenodd" d="M5 5H13V13H5V5ZM5.51337 10.4136V10.9075C5.81706 10.9749 6.08702 11.0085 6.32323 10.9973C6.71691 10.9973 6.99811 10.9187 7.17808 10.7503C7.35805 10.5819 7.44803 10.3799 7.44803 10.1441C7.44803 9.98698 7.41429 9.84104 7.3243 9.70633C7.23432 9.57162 7.03185 9.42568 6.71691 9.24607L6.51444 9.13381C6.33447 9.03278 6.22199 8.9542 6.177 8.89807C6.13201 8.84194 6.10951 8.77458 6.10951 8.70723C6.10951 8.61742 6.14326 8.55007 6.22199 8.48271C6.28948 8.42658 6.40196 8.3929 6.54819 8.3929C6.72816 8.3929 7.01891 8.44903 7.31136 8.56129V8.10103C7.01891 8.03368 6.70566 8 6.46945 8C6.16575 8 5.92954 8.07858 5.76082 8.23574C5.5921 8.38168 5.51337 8.57252 5.51337 8.78581C5.51337 8.9542 5.55836 9.10013 5.65959 9.23484C5.76082 9.36955 5.94079 9.50426 6.22199 9.66143L6.41321 9.76246C6.59318 9.86349 6.70566 9.94207 6.75065 10.0094C6.79565 10.0656 6.81814 10.1441 6.81814 10.2227C6.81814 10.3238 6.77315 10.4136 6.69441 10.4921C6.61568 10.5707 6.49195 10.6044 6.32323 10.6044C6.23324 10.6044 6.09902 10.5818 5.98654 10.5594C5.87405 10.5369 5.73833 10.5034 5.51337 10.4136ZM7.553 8.00058L8.61032 10.9994H9.20647L10.2413 8.00058H9.81386L9.01525 10.3173L8.19414 8.00058H7.553ZM10.4452 11V8.00058H11V9.45315L12.0371 8.00058H12.5164L11.6112 9.33601L12.7507 11H12.0371L11 9.51172V11H10.4452Z" fill="#DC2B1B"/>
</svg>
