<!-- by TradingView --><svg width="18" height="18" fill="none" xmlns="http://www.w3.org/2000/svg"><path fill="#F0F3FA" d="M0 0h18v18H0z"/><path fill-rule="evenodd" clip-rule="evenodd" d="m10.721 6.402 2.129-.654C12.54 4.832 11.349 3 9.07 3 6.22 3 5 5.48 5 6.832c0 1.082.429 1.853.643 2.103.046.057.206.155.472.086s.13-.378.029-.524c.104.118.36.319.544.177.184-.142.136-.392.089-.5.088.099.309.259.487.115.209-.169.104-.367.045-.479a2.182 2.182 0 0 1-.011-.02c-.055-.107-.164-.32-.164-.883S7.592 5 8.961 5c1.095 0 1.63.966 1.76 1.402Zm.126 1.334a4.27 4.27 0 0 0-.41-.194.229.229 0 0 0-.292.11.235.235 0 0 0 .117.316c.133.063.211.1.327.159.118.06.272.019.339-.093a.211.211 0 0 0-.081-.298Zm.58.393c.15.117.29.24.398.341a.21.21 0 0 1-.003.308.265.265 0 0 1-.352.003 14.86 14.86 0 0 0-.328-.286.233.233 0 0 1-.027-.335.231.231 0 0 1 .312-.031Zm-3.872.714c.14.081.41.219.602.306.12.055.257.001.313-.117a.277.277 0 0 0-.13-.36l-.072-.036c-.143-.073-.335-.17-.44-.228a.271.271 0 0 0-.364.097.249.249 0 0 0 .09.338Zm-.213.715a6.581 6.581 0 0 1-.5-.35.244.244 0 0 1-.032-.357.308.308 0 0 1 .406-.042c.12.09.272.198.412.294.127.088.161.26.07.384a.268.268 0 0 1-.356.07Zm-.063 2.04-2.13.654C5.46 13.168 6.652 15 8.932 15 11.78 15 13 12.52 13 11.168c0-1.082-.429-1.853-.643-2.103-.047-.057-.206-.155-.472-.086s-.13.378-.029.524c-.104-.118-.36-.319-.544-.177-.184.142-.136.392-.09.5-.087-.099-.308-.259-.486-.115-.209.169-.104.367-.045.479l.011.02c.055.107.163.32.163.883S10.407 13 9.04 13c-1.095 0-1.63-.966-1.76-1.402Zm-1.12-2.033c.108.1.248.224.398.341a.231.231 0 0 0 .312-.031.233.233 0 0 0-.027-.335 14.72 14.72 0 0 1-.327-.286.265.265 0 0 0-.352.002.21.21 0 0 0-.003.309Zm1.388.928a4.307 4.307 0 0 1-.41-.194.211.211 0 0 1-.08-.298.264.264 0 0 1 .338-.092c.116.058.194.096.327.158a.235.235 0 0 1 .118.316.229.229 0 0 1-.293.11Zm.373-.682c.14.05.249.085.435.134a.227.227 0 0 0 .273-.15.237.237 0 0 0-.165-.297 10.61 10.61 0 0 1-.347-.11.262.262 0 0 0-.321.14.213.213 0 0 0 .125.283Zm1.71-1.72c.186.048.294.083.434.133.118.042.172.17.126.283a.262.262 0 0 1-.322.14 10.585 10.585 0 0 0-.347-.11.237.237 0 0 1-.164-.297.227.227 0 0 1 .272-.15Zm1.512.737a6.563 6.563 0 0 0-.5-.35.268.268 0 0 0-.356.07.271.271 0 0 0 .07.384c.14.096.292.205.412.294.123.09.307.073.407-.042a.244.244 0 0 0-.033-.356Zm-1.314.058c.19.087.461.225.602.306.119.069.157.22.09.338a.271.271 0 0 1-.363.097 19.92 19.92 0 0 0-.44-.228l-.073-.036a.277.277 0 0 1-.13-.36.236.236 0 0 1 .314-.117Z" fill="#31312F"/></svg>