<!-- by TradingView --><svg width="18" height="18" xmlns="http://www.w3.org/2000/svg"><path fill="#E81111" d="M0 0h18v18H0z"/><path d="M9 7.613v6.255c0 .184-.116.159-.267.028-.198-.17-1.159-1.013-2.005-1.269-.854-.255-.943-.238-1.82-.24-.845-.003-1.594-.057-1.693-.1-.098-.042-.24-.056-.211-.397l.875-6.176c.041-.271-.028-.412.423-.3.45.113 1.65.098 1.875.113.367.03 1.115.214 1.637.668C8.336 6.648 9 7.215 9 7.613zM9.375 7.41v5.96c0 .285.141.343.31.114.21-.283.377-.513.697-.666 1.128-.543 2.68-.657 2.876-.672.199-.014 1.214-.1 1.355-.143.342-.103.434-.005.367-.699l-.79-6.064c-.028-.273-.085-.259-.255-.217-.168.044-.122.045-.917.187-.38.068-.9.013-1.508.201-.59.18-1.051.501-1.567.97-.194.174-.54.514-.568 1.028z" fill="#fff"/></svg>