<!-- by TradingView --><svg width="18" height="18" xmlns="http://www.w3.org/2000/svg"><path fill="#08090D" d="M0 0h18v18H0z"/><path d="M11.085 4.001s-.016.123-.026.155l-.09.298-.106.367-.085.287-.088.313c-.035.118-.072.235-.106.353-.035.12-.068.258-.103.378-.03.104-.063.206-.092.31-.008.03-.021.04-.05.038h-.162c-.033.001-.04-.012-.034-.04.014-.06.018-.12.025-.18a1.094 1.094 0 00-.116-.64 1.558 1.558 0 00-.378-.464 1.109 1.109 0 00-.978-.23 1.02 1.02 0 00-.42.197.922.922 0 00-.324.547c-.038.172-.033.342.01.51.052.205.156.383.304.532l.595.61.749.768c.015.016.033.025.054.018.036-.011.074-.009.111-.014.171-.024.342-.033.514-.024l.133.005c.024.001.038-.008.047-.033.02-.06.044-.118.063-.177.06-.196.11-.424.07-.633-.025-.138-.092-.243-.22-.297-.044-.02-.059-.043-.057-.091.001-.038.013-.051.049-.051h1.938c.096 0 .095.003.096.101.001.032-.01.045-.038.05-.087.012-.17.038-.251.071a.871.871 0 00-.365.26.643.643 0 00-.093.192c-.032.11-.066.22-.1.33l-.12.388c-.008.023 0 .04.02.047a.727.727 0 00.48.028.701.701 0 00.399-.326c.032-.053.067-.075.126-.067.027.004.04.01.03.04l-.059.215c-.034.125-.068.25-.104.376-.03.106-.061.213-.09.32-.035.121-.069.245-.103.368-.043.152-.089.304-.13.457-.027.11-.024.11-.134.11-.038 0-.046-.016-.038-.051a2.14 2.14 0 00.046-.247c.02-.177.028-.354-.025-.527a.526.526 0 00-.464-.39c-.033-.005-.056.002-.068.044-.048.177-.1.353-.151.528l-.114.394-.082.28-.091.311-.085.297c-.04.138-.083.277-.123.416l-.105.367c-.035.124-.072.247-.109.37-.043.147-.087.331-.129.479-.021.078-.05.153-.049.236a.295.295 0 00.133.253c.09.06.192.073.294.083.011.001.026-.004.03.007a.174.174 0 01.005.109c-.005.025-.031.015-.049.015H8.703c-.09 0-.088 0-.086-.09 0-.028.011-.04.037-.043a.939.939 0 00.256-.066.662.662 0 00.275-.2.659.659 0 00.109-.245c.045-.158.096-.352.143-.51l.127-.434.163-.542c.051-.172.101-.345.153-.517a.139.139 0 00-.013-.111c-.014-.027-.033-.034-.059-.013a.268.268 0 00-.043.048c-.208.301-.495.494-.825.627-.156.063-.319.103-.484.13a2.572 2.572 0 01-.498.028c-.044-.002-.06.017-.066.056-.01.07-.025.14-.038.21-.042.21-.065.424-.07.638-.003.089 0 .178.005.267.013.23.057.452.138.666.114.3.3.545.557.731.183.133.386.223.602.281.213.057.427.084.648.047a2.096 2.096 0 001.293-.753.197.197 0 01.197-.083c.03.004.04.012.02.04-.005.007-.01.016-.017.023-.1.13-.207.255-.326.367-.152.144-.317.27-.497.372a2.412 2.412 0 01-.626.252c-.165.04-.332.066-.5.073a2.35 2.35 0 01-.787-.095 3.164 3.164 0 01-.487-.19 2.457 2.457 0 01-.385-.235 2.438 2.438 0 01-.82-1.028 2.748 2.748 0 01-.203-.78c-.015-.107-.015-.214-.016-.32 0-.103.003-.206.019-.309.014-.099.031-.197.054-.294.011-.047.033-.094.015-.145-.026-.077-.086-.11-.155-.128a.81.81 0 00-.415 0 .558.558 0 00-.368.283c-.017.032-.038.05-.076.047a1.219 1.219 0 00-.12 0c-.032.002-.039-.014-.031-.04l.017-.051.09-.31.104-.351c.04-.14.079-.28.12-.418.043-.145.088-.29.13-.435.035-.116.067-.232.102-.347.007-.02.012-.042.042-.04.048.002.097 0 .145 0 .03 0 .036.009.026.04a2.788 2.788 0 00-.127.513.792.792 0 00.02.371c.046.138.121.259.217.366.077.087.169.15.276.194.074.03.118.009.161-.048.011-.014.018-.033.026-.05.02-.045.04-.09.064-.134.136-.248.31-.466.502-.67a5.05 5.05 0 01.486-.447c.165-.135.335-.26.512-.377.024-.016.024-.027.005-.047-.083-.086-.166-.171-.248-.258-.198-.21-.4-.417-.6-.625-.09-.094-.184-.184-.268-.284a1.849 1.849 0 01-.323-.539A1.594 1.594 0 016.87 6.3c-.01-.25.04-.485.137-.713a1.44 1.44 0 01.485-.596c.155-.114.323-.202.505-.263a1.922 1.922 0 01.786-.092c.123.009.247.019.364.058.192.064.382.133.569.212.117.05.236.084.365.07a.627.627 0 00.328-.133.808.808 0 00.232-.324c.063-.147.113-.518.113-.518h.33zm-2.251 5.61c-.006-.113-.002-.226-.046-.333-.02-.045-.03-.048-.065-.013-.187.187-.351.392-.49.618a2.28 2.28 0 00-.254.582c-.008.027-.005.042.028.05a.585.585 0 00.242 0 .601.601 0 00.387-.259c.136-.191.208-.405.198-.646zm1.352-1.26a.835.835 0 00-.262.062c-.057.024-.075.067-.05.126.01.024.024.045.034.07.061.14.088.29.115.439.01.052.013.106.04.154.016.026.029.026.044 0a.104.104 0 00.011-.025c.028-.086.054-.173.081-.259.044-.138.083-.277.134-.413.029-.078.002-.135-.096-.15-.019-.004-.037-.004-.05-.004z" fill="#fff"/></svg>