<!-- by TradingView --><svg width="18" height="18" viewBox="0 0 18 18" xmlns="http://www.w3.org/2000/svg"><path fill="#F0F3FA" d="M0 0h18v18H0z"/><path fill-rule="evenodd" d="m15 9-3-5H6L3 9l3 5h6l3-5Zm-6 4a4 4 0 1 0 0-8 4 4 0 0 0 0 8Z" fill="#030C35"/><path d="M6 9.43h5V10H6v-.57Z" fill="#030C35"/><path fill="#030C35" d="M7 12V7.71h.67V12z"/><path d="M7 7.66C7 6.74 7.9 6 9 6s2 .74 2 1.66V9h-.67V7.58c0-.56-.66-1-1.33-1s-1.33.44-1.33 1v1.56H7V7.66ZM8.67 10.29H8v1.09c0 .34.37.62.83.62.46 0 .84-.28.84-.62v-1.1h-.5v1.23c0 .15-.11.2-.23.2-.11 0-.27-.04-.27-.2v-1.22Z" fill="#030C35"/><path d="M10.33 10.29H11v1.09c0 .34-.37.62-.83.62-.46 0-.84-.28-.84-.62v-1.1h.5v1.23c0 .15.11.2.23.2.11 0 .27-.04.27-.2v-1.22ZM9.88 7.66h-.55c0-.08-.1-.23-.26-.23-.14 0-.18.1-.18.14 0 .14.25.18.5.29.25.1.61.2.61.52 0 .31-.32.62-.93.62-.75 0-1.03-.49-1.07-.75h.67c0 .2.15.38.4.38.2 0 .26-.11.26-.22 0-.1-.16-.17-.4-.25-.25-.07-.75-.28-.75-.59 0-.5.64-.57.85-.57.68 0 .85.44.85.66Z" fill="#030C35"/></svg>