<!-- by TradingView --><svg width="18" height="18" viewBox="0 0 18 18" xmlns="http://www.w3.org/2000/svg"><path fill="#F0F3FA" d="M0 0h18v18H0z"/><path d="M4.5 9.15V11h2.48c.6 0 1.2-.2 1.65-.57.56-.44.87-1.08.87-1.74V7H6.85c-.59 0-1.15.2-1.58.56-.5.41-.77 1-.77 1.6Zm-.5 0c0-.75.35-1.47.95-1.97.52-.44 1.2-.68 1.9-.68H10v2.19c0 .82-.39 1.6-1.06 2.14-.55.43-1.24.67-1.96.67H4V9.15Z" fill="#00A287"/><path d="M7 11.65v1.85h2.48c.6 0 1.2-.2 1.65-.57.56-.44.87-1.08.87-1.74V9.5H9.35c-.59 0-1.15.2-1.58.56-.5.41-.77 1-.77 1.6Zm-.5 0c0-.75.35-1.47.95-1.97.52-.44 1.2-.68 1.9-.68h3.15v2.19c0 .82-.39 1.6-1.06 2.14-.55.43-1.24.67-1.96.67H6.5v-2.35Z" fill="#97C759"/><path d="M8.5 6.65V8.5h2.48c.6 0 1.2-.2 1.65-.57.56-.44.87-1.08.87-1.74V4.5h-2.65c-.6 0-1.15.2-1.58.56-.5.41-.77 1-.77 1.6Zm-.5 0c0-.75.35-1.47.95-1.97.52-.44 1.2-.68 1.9-.68H14v2.19c0 .82-.39 1.6-1.06 2.14-.55.43-1.24.67-1.96.67H8V6.65Z" fill="#7ECBC2"/></svg>