<!-- by TradingView --><svg xmlns="http://www.w3.org/2000/svg" width="18" height="18"><path fill="#F0F3FA" d="M0 0h18v18H0z"/><path d="M4.09 7.22C6.86 6 9.63 5 11.72 5 13.56 5 15 5.22 15 7.22c0 1.06-.34 2.33-2.19 4.78 0 0 2.86-5.99-2.79-6-1.4.01-3.32.32-5.93 1.22z" fill="#E6C518"/><path d="M4.91 12H3l1.38-6h1.8c.72 0 1.27.15 1.62.45.35.3.47.7.37 1.18-.06.26-.2.5-.41.72a2.1 2.1 0 01-.75.5c.33.12.58.3.74.54.17.25.21.54.13.87-.12.52-.44.95-.97 1.27-.53.32-1.2.47-2 .47zm.62-2.6H4.8L4.42 11H5c.67 0 1.34-.02 1.51-.74.16-.7-.33-.87-.98-.87zM6 7h-.62l-.36 1.5h.6c.51 0 1.08-.13 1.29-.72C7.06 7.03 6.54 7 6 7zm3.8 5L8.45 6h1.28l.9 4.5L13.3 6h1.19l-3.72 6H9.8z" fill="#040F55"/></svg>