<!-- by TradingView --><svg width="18" height="18" viewBox="0 0 18 18" xmlns="http://www.w3.org/2000/svg"><path fill="#F0F3FA" d="M0 0h18v18H0z"/><circle cx="9" cy="9" r="1.49" fill="#009FE3"/><path d="M6 7.5c0-.26.17-.49.37-.64.38-.29.63-.76.63-1.29C7 4.71 6.33 4 5.5 4S4 4.7 4 5.58c0 .52.25 1 .63 1.28.2.15.37.38.37.64s-.17.49-.37.64A1.6 1.6 0 0 0 4 9.43c0 .86.67 1.57 1.5 1.57S7 10.3 7 9.43c0-.53-.25-1-.63-1.29C6.17 8 6 7.76 6 7.5Z" fill="url(#a)"/><path d="M13 11c0-.14.1-.27.22-.33.46-.24.78-.71.78-1.25C14 8.64 13.33 8 12.5 8S11 8.64 11 9.42c0 .54.32 1 .78 1.25.13.06.22.19.22.33s-.1.27-.22.33c-.46.24-.78.71-.78 1.25 0 .78.67 1.42 1.5 1.42s1.5-.64 1.5-1.42c0-.54-.32-1-.78-1.25A.38.38 0 0 1 13 11Z" fill="url(#b)"/><path d="M11 6c-.23 0-.42.17-.55.37-.24.38-.65.63-1.1.63C8.6 7 8 6.33 8 5.5S8.6 4 9.35 4c.45 0 .86.25 1.1.63.13.2.32.37.55.37.23 0 .42-.17.55-.37.24-.38.65-.63 1.1-.63.75 0 1.35.67 1.35 1.5S13.4 7 12.65 7c-.45 0-.86-.25-1.1-.63-.13-.2-.32-.37-.55-.37Z" fill="url(#c)"/><path d="M7 13c-.14 0-.27.1-.33.22-.24.46-.71.78-1.25.78C4.64 14 4 13.33 4 12.5S4.64 11 5.42 11c.54 0 1 .32 1.25.78.06.13.19.22.33.22s.27-.1.33-.22c.24-.46.71-.78 1.25-.78.78 0 1.42.67 1.42 1.5S9.36 14 8.58 14c-.54 0-1-.32-1.25-.78A.38.38 0 0 0 7 13Z" fill="url(#d)"/><defs><linearGradient id="a" x1="5.5" y1="4" x2="5.5" y2="11" gradientUnits="userSpaceOnUse"><stop stop-color="#BDD022"/><stop offset="1" stop-color="#01A5E4"/></linearGradient><linearGradient id="b" x1="12.5" y1="8" x2="12.5" y2="14" gradientUnits="userSpaceOnUse"><stop stop-color="#01A5E4"/><stop offset="1" stop-color="#BDD022"/></linearGradient><linearGradient id="c" x1="14" y1="5.5" x2="8" y2="5.5" gradientUnits="userSpaceOnUse"><stop stop-color="#01A5E4"/><stop offset="1" stop-color="#BDD022"/></linearGradient><linearGradient id="d" x1="10" y1="12.5" x2="4" y2="12.5" gradientUnits="userSpaceOnUse"><stop stop-color="#BDD022"/><stop offset="1" stop-color="#01A5E4"/></linearGradient></defs></svg>