<!-- by TradingView --><svg xmlns="http://www.w3.org/2000/svg" width="18" height="18"><path fill="url(#am0nbxbyd)" d="M0 0h18v18H0z"/><path d="M5.01 11.04c.53 3.42 4.1 3.21 5.79 2.6-2.49.65-3.9-.7-4.31-1.1-.4-.38-.56-1.6-.26-2.71a4.24 4.24 0 011.8-2.12c.9-.2 2.85-.14 3.49.48a8.17 8.17 0 011.38 1.91c.28-1.24-.12-2.34-.1-2.25 0 .09-.32.7-.54.63-.18-.04-.13-.32-.09-.45a1.68 1.68 0 00-.49-1.75c.03.07.1.28.08.56-.02.34-.74 1.06-.6 0 .15-1.07-.75-1.97-1.63-2.3a2.14 2.14 0 01-1.18-.97c-.04.27.13.49.22.56.76.87.38 2.1-.22 2.36-.6.26-.49-.46-.49-.54 0-.09.1-.32-.44-.47-.43-.11-.65-.68-.71-.95-.7.88-.07 1.9.34 2.3.17.17.45.55.25.76-.2.2-.42-.03-.51-.17-.23-.52-.67-.65-.86-.65.2.13.45.64-.22 1.62a4.44 4.44 0 00-.7 2.65z" fill="#5AC315"/><path d="M5.56 11.09c.36 2.77 3.61 3 5.12 2.62-4.1.42-4.38-2.14-4.38-2.93 0-.78.47-3.03 3.15-3.06 2.05-.02 3.16 1.97 3.38 2.83.04-.13.04-.48.1-.99.04-.5-.3-.8-.47-.8-.16 0-.65-.13-.52-.52.1-.31.1-.66.08-.8-.15.29-.66.43-1 .37-.29-.05-.26-.35-.22-.5.14-.26.14-.6.12-.74-.03-.9-.84-1.54-1.24-1.75.13.2.26.75-.23 1.32-.62.72-1.23.76-1.56.6-.26-.12-.3.12-.28.25v.63c-.17.52-.51.38-.66.25-.24-.25-.45-.32-.52-.33.2.62 0 1.07-.13 1.22a3.2 3.2 0 00-.74 2.33z" fill="#A8FF02"/><path d="M7.67 4.75c.52.4.6.84.56 1 .51-.25.29-1.14-.13-1.58-.33-.36-.19-.93-.08-1.17-.71.43-1 1.24-.35 1.75z" fill="#5AC315"/><ellipse cx="8.64" cy="10.19" rx=".73" ry="1.31" fill="#fff"/><ellipse cx="11" cy="10.06" rx=".55" ry="1.06" fill="#fff"/><defs><linearGradient id="am0nbxbyd" x1="3.35" y1="3.12" x2="21.9" y2="24.43" gradientUnits="userSpaceOnUse"><stop stop-color="#1A1E21"/><stop offset="1" stop-color="#06060A"/></linearGradient></defs></svg>