<!-- by TradingView --><svg width="18" height="18" viewBox="0 0 18 18" xmlns="http://www.w3.org/2000/svg"><path fill="#F0F3FA" d="M0 0h18v18H0z"/><path d="M11.6 4.2c.25.05.77.15 1.15.24.54.13.69.17.69.21 0 .05-.76 2.5-.79 2.53h-.1c-.1-.03-.1-.05-.18-.3a3.53 3.53 0 0 0-1.22-1.82c-.1-.08-.14-.13-.13-.19l.01-.42c0-.32.01-.35.06-.34l.51.1Zm-6.47 6.28a3.52 3.52 0 0 0 1.16 2.09c.35.32.66.53 1.1.72l.3.13V14h-.1c-.16 0-.86-.1-1.3-.18-.71-.12-1.5-.35-2.08-.6L4 13.13l.18-.56.43-1.39.27-.83.11.04a.4.4 0 0 1 .14.09Z" fill="#488CC9"/><path d="m8.56 4.28-.01.29-.21.07c-.5.17-.91.54-1.08.98-.12.32-.16.8.01 1.11.26.47.86.7 2.76 1.07 2.26.43 3.09.78 3.61 1.53.45.63.48 1.75.08 2.54a3.81 3.81 0 0 1-2.14 1.73c-.44.16-1.21.36-1.4.37-.03 0-.05-.08-.05-.31v-.31l.25-.12a2 2 0 0 0 .81-.76c.22-.42.27-1.03.06-1.46-.26-.55-.84-.78-3.07-1.2a28.5 28.5 0 0 1-1.3-.27c-1.5-.4-2.17-1.05-2.32-2.23-.2-1.55.79-2.64 2.77-3.1.27-.07.92-.18 1.21-.21.02 0 .02.13.02.28Z" fill="#2B4365"/></svg>