<!-- by TradingView --><svg xmlns="http://www.w3.org/2000/svg" width="18" height="18"><path fill="#F0F3FA" d="M0 0h18v18H0z"/><path d="M9.15 6.33c-.6 0-1-.47-1-1a1 1 0 112 0c0 .53-.4 1-1 1zm0-2.83a1.83 1.83 0 00-1.82 1.83 1.84 1.84 0 001.82 1.84 1.83 1.83 0 001.3-3.13c-.35-.35-.81-.54-1.3-.54z" fill="#5E2A83"/><path d="M10.17 10.26a.09.09 0 00-.03-.02.1.1 0 00-.11.02l-.6.71a.08.08 0 00-.02.05c0 .02 0 .04.02.06l1.8 2.25c.02.02.04.04.06.04h1.24c.04 0 .07-.05.07-.09 0-.01 0-.02-.02-.03l-2.4-2.99zm-.15-.83l.04.03a.1.1 0 00.1-.03l2.42-2.93.01-.04c0-.04-.03-.08-.07-.08h-1.23a.08.08 0 00-.06.03l-1.8 2.2a.09.09 0 00-.02.06c0 .02 0 .04.02.06l.6.7zM6.36 5.78l-.02-.03h-1.3A.07.07 0 005 5.8a.07.07 0 000 .07l3.32 3.9c.05.07.06.11 0 .18l-3.3 3.93a.08.08 0 00-.01.09l.02.03a.1.1 0 00.05.01h1.2a.1.1 0 00.07-.03l2.72-3.23.74-.89-3.46-4.07z" fill="#FA8F1A"/></svg>