<!-- by TradingView --><svg xmlns="http://www.w3.org/2000/svg" width="18" height="18" viewBox="0 0 18 18"><path fill="#F0F3FA" d="M0 0h18v18H0z"/><path d="M13.61 7.7l-.13-.05c.43.42.8 1.04 1.07 1.82.23.7.33 1.32.36 1.53 0 0 .4-.18.3-.81-.05-.29-.5-1.94-1.6-2.48z" fill="#324D80"/><path d="M14.41 8a1.61 1.61 0 0 0-.27-.12c1 .85 1.19 2.11 1.24 2.47 0 0 .26-.39.24-.71-.03-.32-.2-1.12-1.2-1.65z" fill="#324D80"/><path d="M15.24 8.21a1.77 1.77 0 0 0-.43-.14c.93.67.94 1.28.98 1.57 0 0 .73-.84-.55-1.43z" fill="#324D80"/><path d="M8.93 9.88c-1.87 1.04-3.47 1.32-4.79.86a3.94 3.94 0 0 1-1.87-1.45 3.77 3.77 0 0 0 1.47.92c1.4.49 3.13.17 5.15-.92 1.75-.95 3.27-1.42 4.52-1.42l.22.19a14.9 14.9 0 0 0-4.7 1.82z" fill="#FF8300"/><path d="M13 7.53c.07.03.13.07.19.12A10.5 10.5 0 0 0 8.77 9.1c-1.96 1.06-3.63 1.36-4.96.9a3.68 3.68 0 0 1-1.68-1.2 3.65 3.65 0 0 0 1.24.7c1.42.47 3.22.14 5.35-.97 1.67-.88 3.1-1.21 4.29-1z" fill="#FF8300"/><path d="M2.47 8.64A3.32 3.32 0 0 1 2 8.36c.32.36.79.73 1.44.94 1.35.45 3.09.12 5.17-.97a7.62 7.62 0 0 1 3.96-1.07l-.02-.01c-1.1-.46-2.44-.29-4 .5C6.28 8.92 4.4 9.29 2.97 8.85a5.1 5.1 0 0 1-.5-.2z" fill="#FF8300"/></svg>