<!-- by TradingView --><svg width="18" height="18" viewBox="0 0 18 18" xmlns="http://www.w3.org/2000/svg"><path fill="url(#a)" d="M0 0h18v18H0z"/><path d="M6 8H3v.5h3V11H2v-1h3v-.5H2V7h4v1Zm4.5 0H8v2h2.5v1H7V7h3.5v1ZM13 8h2V7h1v4h-1V9h-.5v.5h-1V9H13v2h-1V7h1v1Zm-1.5 2h-1V8h1v2Z" fill="url(#b)"/><defs><linearGradient id="a" x1="9" y1="0" x2="9" y2="18" gradientUnits="userSpaceOnUse"><stop stop-color="#415F6F"/><stop offset="1" stop-color="#333A50"/></linearGradient><linearGradient id="b" x1="1.68" y1="9" x2="16.32" y2="9" gradientUnits="userSpaceOnUse"><stop offset=".02" stop-color="#F321C2"/><stop offset=".67" stop-color="#4BD488"/><stop offset="1" stop-color="#86D15C"/></linearGradient></defs></svg>