<!-- by TradingView --><svg width="18" height="18" viewBox="0 0 18 18" xmlns="http://www.w3.org/2000/svg"><path fill="url(#amna5wylf)" d="M0 0h18v18H0z"/><path d="M5.43 8.05h-.2c0-.37-.46-.76-.78-.76s-.81.14-.81.66c0 .41.38.6.57.65.46.15 1.4.63 1.4 1.34 0 .88-.74 1.06-1.32 1.06-.47 0-.98-.1-1.17-.16L3.05 9.8h.15c.22.81.82 1 1.09.99.26-.02.79-.18.79-.67 0-.47-.41-.66-.75-.82l-.26-.13-.1-.07c-.34-.2-.85-.5-.85-1 0-.55.72-1.08 1.33-1.08.48 0 .8.14.9.2l.08.84Zm9.36 0h-.2c0-.37-.46-.76-.78-.76s-.8.14-.8.66c0 .41.37.6.56.65.46.15 1.4.63 1.4 1.34 0 .88-.74 1.06-1.32 1.06-.47 0-.98-.1-1.17-.16L12.4 9.8h.15c.23.81.82 1 1.09.99.26-.02.79-.18.79-.67 0-.47-.41-.66-.75-.82-.1-.04-.18-.08-.25-.13a7.65 7.65 0 0 0-.12-.07c-.33-.2-.84-.5-.84-1 0-.55.72-1.08 1.33-1.08.48 0 .8.14.9.2l.08.84Zm-7.32 2.81V11h2.01c.33 0 1.34-.41 1.34-2.13 0-1.37-1-1.8-1.51-1.86H7.47v.14h.3v3.71h-.3Zm.79-.48V7.63c0-.2.15-.35.34-.35h.49c.39.02 1.17.37 1.17 1.6 0 1.24-.71 1.75-1.07 1.85H8.6a.35.35 0 0 1-.34-.35ZM7 10.5a.5.5 0 1 1-1 0 .5.5 0 0 1 1 0Zm4.5.5a.5.5 0 1 0 0-1 .5.5 0 0 0 0 1Z" fill="#fff"/><defs><linearGradient id="amna5wylf" x1="3.35" y1="3.12" x2="21.9" y2="24.43" gradientUnits="userSpaceOnUse"><stop stop-color="#1A1E21"/><stop offset="1" stop-color="#06060A"/></linearGradient></defs></svg>