<!-- by TradingView --><svg width="18" height="18" viewBox="0 0 18 18" xmlns="http://www.w3.org/2000/svg"><path fill="#F0F3FA" d="M0 0h18v18H0z"/><path d="M5 9.88v1.4c0 .35.2.68.5.86l1.64.94 1.67-1.02L5 9.88Z" fill="url(#aent24g0a)"/><path d="M13 11.27V9.83L9 7.54l-1.52.93 4.04 2.24-2.49 1.42-1.71 1.04 1.24.72c.27.15.6.15.86 0l3.08-1.76c.3-.18.5-.5.5-.86Z" fill="url(#bent24g0a)"/><path d="m8.99 6.97 1.68-1.02L8.99 5 5 7.28v2.03l3.98 2.28 1.54-.87L6.5 8.48l2.48-1.5Z" fill="url(#cent24g0a)"/><path d="M10.84 6.05 9.17 7.07 13 9.27v-2l-2.16-1.22Z" fill="url(#dent24g0a)"/><path d="M9.92 5 13 6.75V5.61a.63.63 0 0 0-.63-.61H9.92Z" fill="url(#eent24g0a)"/><path d="M8.06 5 5 6.75V5.61c0-.34.28-.61.62-.61h2.44Z" fill="url(#fent24g0a)"/><defs><linearGradient id="aent24g0a" x1="2.74" y1="7.58" x2="9.35" y2="14.53" gradientUnits="userSpaceOnUse"><stop offset=".33" stop-color="#6565F1"/><stop offset=".66" stop-color="#4686F0"/><stop offset="1" stop-color="#339AF0"/></linearGradient><linearGradient id="bent24g0a" x1="4.61" y1="5.8" x2="11.23" y2="12.74" gradientUnits="userSpaceOnUse"><stop offset=".33" stop-color="#6565F1"/><stop offset=".66" stop-color="#4686F0"/><stop offset="1" stop-color="#339AF0"/></linearGradient><linearGradient id="cent24g0a" x1="5.36" y1="5.09" x2="11.97" y2="12.03" gradientUnits="userSpaceOnUse"><stop offset="0" stop-color="#7950F2"/><stop offset=".33" stop-color="#6565F1"/><stop offset=".66" stop-color="#4686F0"/><stop offset="1" stop-color="#339AF0"/></linearGradient><linearGradient id="dent24g0a" x1="7.28" y1="3.26" x2="13.89" y2="10.21" gradientUnits="userSpaceOnUse"><stop offset=".33" stop-color="#6565F1"/><stop offset=".66" stop-color="#4686F0"/><stop offset="1" stop-color="#339AF0"/></linearGradient><linearGradient id="eent24g0a" x1="8.48" y1="2.12" x2="15.09" y2="9.06" gradientUnits="userSpaceOnUse"><stop offset=".33" stop-color="#6565F1"/><stop offset=".66" stop-color="#4686F0"/></linearGradient><linearGradient id="fent24g0a" x1="5.57" y1="4.89" x2="12.18" y2="11.83" gradientUnits="userSpaceOnUse"><stop offset="0" stop-color="#7950F2"/><stop offset=".33" stop-color="#6565F1"/></linearGradient></defs></svg>