<!-- by TradingView --><svg width="18" height="18" xmlns="http://www.w3.org/2000/svg"><path fill="#F0F3FA" d="M0 0h18v18H0z"/><path d="M16 10.778h-.002S11.434 9.674 4.854 12c0 0 .654-.7 2.627-1.843a8.1 8.1 0 00.373-.228c-1.735.088-3.7.337-5.854.846 0 0 .888-.782 3.465-1.933 2.671-1.194 1.468-1.758.603-2.446-.865-.689 3.06-1.112 9.932 4.382z" fill="url(#paint0_linear)"/><path d="M7.798 8.157c.685.44 1.597.77.057 1.773 5.007-.255 8.08.825 8.144.848-5.841-3.774-8.936-3.094-8.201-2.621z" fill="url(#paint1_linear)"/><defs><linearGradient id="paint0_linear" x1="10.181" y1="7.648" x2="4.009" y2="10.549" gradientUnits="userSpaceOnUse"><stop stop-color="#00BEE1"/><stop offset="1" stop-color="#001D43"/></linearGradient><linearGradient id="paint1_linear" x1="12.278" y1="7.216" x2="8.004" y2="9.759" gradientUnits="userSpaceOnUse"><stop stop-color="#FFD900"/><stop offset="1" stop-color="#F7901E"/></linearGradient></defs></svg>