<!-- by TradingView --><svg xmlns="http://www.w3.org/2000/svg" width="18" height="18" viewBox="0 0 18 18"><path fill="#F0F3FA" d="M0 0h18v18H0z"/><path d="M12.14 5.6 9.3 9l-.66-2.27-.6-2.27S7.85 4 7.57 4c-.36 0-.65.69-.65.69l-.32.6-.29.55S5.9 5 5.33 5c-.74 0-1.46 1-1.84 1.68C3.23 7.14 3 7.8 3 8.3c0 .34.27.7.61.7H8v4.72s0 .36.23.67c.33.45.75.61 1.3.61.48 0 .7-.12 1.18-.26a5.88 5.88 0 0 0 4.05-4.12c.16-.56.24-1.19.24-1.8C15 6.9 14.26 5 13.01 5c-.36 0-.87.6-.87.6Z" fill="#1ABEB8"/><path d="M8 7.45v1.57l-1.71-3.2L8 7.46Z" fill="#0032A1"/><path d="M8 9c-.45-.93-1.7-3.16-1.7-3.16l-.57 1.1C5.16 7.89 4.5 8.72 3.77 9H8Z" fill="#3462C8"/><path d="M7.53 4c.16 0 .33.06.4.35.03.14.07.3.07.5v2.62L6.64 6.22l-.34-.38C6.37 5.71 7.01 4 7.53 4Z" fill="#0032A1"/><path d="M8 9V7.44L9.31 9H8ZM9 9h3v3L9 9Z" fill="#0296AB"/><path d="m11.8 14.31-.13.06c.33-.38.33-1.46.33-2.46l1.33 1.24c-.52.53-.9.8-1.53 1.16Z" fill="#0033A3"/><path d="M14.63 11.19a4.9 4.9 0 0 1-1.3 1.96L12 11.96V9h3c0 .57-.2 1.72-.38 2.19Z" fill="#1D50B5"/><path d="M12 9v-.46c0-.84 0-2.98.8-3.43.08-.05.15-.11.26-.11.68 0 1.2.75 1.45 1.36C14.97 7.44 15 8 15 9h-3Z" fill="#3462C8"/><path d="m8.8 10.67.5-1.65s1.34 3.76 1.85 5.64c-.76-1.27-2.35-3.99-2.35-3.99Z" fill="#0296AB"/><path d="M8 13.63V9h1.31l-.5 1.66L8 13.62Z" fill="#0296AB"/></svg>