<!-- by TradingView --><svg width="18" height="18" viewBox="0 0 18 18" xmlns="http://www.w3.org/2000/svg"><path fill="#F0F3FA" d="M0 0h18v18H0z"/><path d="M5 10.3v3.45h.47c-.03-.27-.02-.8.3-.8.4 0 1.47 1.05 3.26 1.05 1.8 0 3.97-.58 3.97-2.58S8.8 7.72 7.7 7.2c-.88-.4-1.1-1.1-1.1-1.39.02-.43.48-1.3 2.13-1.3 2.44 0 3.17 1.64 3.23 2.48h.43V4H12v.79c0 .25-.33.2-.48.14A4.88 4.88 0 0 0 8.72 4C5.83 4 5 5.33 5 6.13c0 .8.25 1.22 1.26 1.99.81.61 2.74 1.56 3.6 1.95.54.28 1.62 1.04 1.62 1.85 0 1.17-1.63 1.49-2.45 1.5a3.3 3.3 0 0 1-3.5-3.12H5Z"/></svg>