<!-- by TradingView --><svg width="18" height="18" viewBox="0 0 18 18" xmlns="http://www.w3.org/2000/svg"><path fill="#F0F3FA" d="M0 0h18v18H0z"/><path d="M12 7v1H9.6c-.13 0-.4.03-.4.17 0 .33.8.39 1.2.5.6.16 1.6.46 1.6 1.16 0 .94-.6 1.17-1 1.17H8v-1h2.2c.07 0 .6.02.6-.17 0-.16-.53-.27-.8-.33l-1.2-.33C8.4 9.06 8 8.67 8 8c0-.67.8-1 1.2-1H12Z" fill="url(#anvxy3kxk)"/><path d="M9.4 3.05c-.87-.13-2.92-.08-4.2 1.12a1.6 1.6 0 0 1 1.08.23A5.86 5.86 0 0 0 4 9c0 3.31 2.87 6 6.4 6 .4 0 .8-.04 1.18-.1C8.41 14.36 6 11.75 6 8.62a6.2 6.2 0 0 1 2.25-4.75l.87-.62c.11-.07.23-.14.36-.2l-.1.01.02-.01Z" fill="url(#bnvxy3kxk)"/><defs><linearGradient id="anvxy3kxk" x1="10" y1="7" x2="10" y2="11" gradientUnits="userSpaceOnUse"><stop stop-color="#A6C1E2"/><stop offset=".32" stop-color="#2D6BBA"/><stop offset="1" stop-color="#2A69B9"/></linearGradient><linearGradient id="bnvxy3kxk" x1="7.79" y1="3" x2="7.79" y2="15" gradientUnits="userSpaceOnUse"><stop stop-color="#92D0AD"/><stop offset=".36" stop-color="#1D9D55"/><stop offset="1" stop-color="#29A15E"/></linearGradient></defs></svg>