<!-- by TradingView --><svg width="18" height="18" viewBox="0 0 18 18" xmlns="http://www.w3.org/2000/svg"><path fill="#F0F3FA" d="M0 0h18v18H0z"/><path d="m13.3 11.99.16.01h.29l.16-.01c.45-.02.88-.16 1.26-.39.3-.19.53-.45.7-.75l.08-.2.05-.09a.88.88 0 0 1-.29.2c-.2.08-.44.13-.67.13-.32 0-.64-.03-.95-.12a7.27 7.27 0 0 1-1.26-.45A13.28 13.28 0 0 0 9.46 9.3 7.6 7.6 0 0 0 8 9.27a5.89 5.89 0 0 0-2.55.86c-.25.16-.48.33-.7.52l-.13.1h.03a5.6 5.6 0 0 1 2.57-.44 7.46 7.46 0 0 1 2.37.55l.4.18.33.14a10.4 10.4 0 0 0 3 .8ZM2 10.47V10.62c.02.14.09.26.2.35.23.22.54.33.87.33.24 0 .48-.06.69-.18.22-.11.4-.3.5-.52.1-.22.12-.46.08-.7-.03-.21-.1-.42-.2-.61a4.9 4.9 0 0 0-.4-.66l-.07-.1-.33-.46a.43.43 0 0 1-.08-.3c0-.05.02-.1.06-.15a.3.3 0 0 1 .14-.1.33.33 0 0 1 .34.04c.08.07.13.15.17.25v.05l.02.03c0 .03.02.04.04.03l.27-.1.02-.02v-.93c0-.05 0-.05-.05-.03l-.29.12c-.05.01-.06.02-.06.07v.1c0 .02-.02.02-.04.02h-.02l-.04-.02a1.3 1.3 0 0 0-.68.05 1.11 1.11 0 0 0-.6 1.27 2 2 0 0 0 .26.6c.1.16.22.32.34.47l.08.11c.13.17.22.36.27.56.04.15.02.31-.05.46a.39.39 0 0 1-.2.19c-.1.04-.2.04-.3 0-.05-.01-.06-.04-.03-.08a.19.19 0 0 0 .03-.05.58.58 0 0 0 0-.38.49.49 0 0 0-.24-.24.52.52 0 0 0-.34-.03.47.47 0 0 0-.22.12.44.44 0 0 0-.12.21l-.01.08Zm6.88-4.45V6h-.73l-.02.04v.19l.08.01c.07 0 .2.06.18.14v1.5l-.93-1.76a.06.06 0 0 0-.02-.02.06.06 0 0 0-.03-.01h-.1l-.42.07-.22.03c-.04.01-.04.02-.04.05v.12c0 .05.04.05.09.05l.08.01a.1.1 0 0 1 .05.06.3.3 0 0 1 .02.1v2.1c0 .04-.02.1-.05.13-.03.03-.1.06-.15.08l-.02.01a.05.05 0 0 0-.03.02v.19c0 .03 0 .04.03.03l.66-.15a.02.02 0 0 0 .02 0 .02.02 0 0 0 0-.03v-.15c0-.03 0-.04-.03-.04-.12 0-.13-.03-.13-.15V7.01l.74 1.45.16.33.03.06.03.05h.06l.44-.01c.05 0 .07 0 .07-.06V6.36c-.01-.1.06-.14.14-.15.03 0 .04-.02.04-.04v-.15Zm.58 0H9.17c-.04 0-.04 0-.04.03a1.34 1.34 0 0 0 0 .11c0 .05 0 .06.05.07.07.03.12.13.12.2V8.4c.01.1-.04.14-.1.19l-.08.08v.21c0 .03 0 .04.04.04h.1a8.1 8.1 0 0 1 1.33.17l.17.04c.05 0 .06 0 .06-.05v-.52a.05.05 0 0 0-.04-.02l-.16-.05c-.04 0-.04 0-.04.03a.85.85 0 0 1-.05.16.1.1 0 0 1-.06.04h-.09l-.05-.01-.37-.06c-.04 0-.05-.02-.05-.06v-.88c0-.03.02-.04.05-.04h.09l.1.02.04.02c.08.02.12.1.12.18 0 .03 0 .04.03.04l.16.02h.02v-.7c0-.02 0-.03-.03-.03l-.14-.02c-.03 0-.03 0-.04.03 0 .08-.08.14-.16.14h-.2c-.03 0-.04-.02-.04-.05v-.92c0-.07 0-.08.08-.07l.3.05.2.04c.03 0 .06.02.08.04l.05.07.03.18c0 .03 0 .05.05.05h.15c.04.01.04.01.04-.07v-.44c0-.05 0-.06-.05-.07l-.09-.01-.45-.08a9.24 9.24 0 0 0-.66-.06l-.18-.02Zm3.43 2.9c-.06.16-.1.34-.1.51l.01.1c.01.14.05.27.11.38.06.11.16.2.28.24a.3.3 0 0 0 .25 0 .24.24 0 0 0 .1-.11c.02-.05.02-.1.02-.14a.22.22 0 0 0-.08-.18.24.24 0 0 0-.19-.05.1.1 0 0 1-.07-.02.1.1 0 0 1-.03-.06l-.06-.33c0-.08 0-.15.02-.22 0-.03.02-.04.05-.02l.19.08.5.23c.02 0 .05.02.05.04.04.23.11.44.22.65.08.17.2.33.34.46a.74.74 0 0 0 .6.2.42.42 0 0 0 .3-.16.38.38 0 0 0 .07-.32.39.39 0 0 0-.17-.27.43.43 0 0 0-.33-.06.09.09 0 0 1-.08-.03 5.96 5.96 0 0 1-.45-1.17 43.74 43.74 0 0 1-.32-1.45c-.01-.08-.01-.09-.1-.12a47.6 47.6 0 0 0-.8-.3l-.08-.03c-.02 0-.03 0-.03.03v.02l.01.12.02.04.03.02c.06.03.13.07.18.12.04.04.07.08.1.14.01.05.02.1 0 .16l-.03.15a24.54 24.54 0 0 1-.28.69c-.1.22-.18.43-.25.65Zm.98.1v.01h-.03l-.57-.25c-.04-.02-.05-.02-.03-.06v-.03l.1-.27a17.3 17.3 0 0 1 .33-.62l.01.03.02.1a9.06 9.06 0 0 0 .1.63c0 .08.02.15.03.23l.04.22Zm-9.35.9v.01Zm0 0h.03a6.22 6.22 0 0 1 1.9-.73c.04 0 .04-.01.04-.05V9.1l.03-.3.01-.15.01-.1c0-.03 0-.03-.03-.03l-.24.05-.02.01v.03l-.01.05v.07c0 .05-.02.1-.06.15a.25.25 0 0 1-.13.09l-.63.22c-.05.01-.07 0-.07-.04V8.13c0-.04.02-.06.06-.07.1-.03.32-.1.34.05v.04c0 .02.01.02.03.02.04 0 .07 0 .1-.02h.03c.04-.02.05-.03.05-.06v-.7H5.9l-.11.03c-.04 0-.05.02-.05.05 0 .05-.01.1-.04.14-.06.07-.18.12-.28.15l-.03.01c-.04.01-.05 0-.05-.03v-.92c0-.02 0-.03.02-.05a.08.08 0 0 1 .04-.02 2.32 2.32 0 0 0 .2-.06l.2-.05a4.47 4.47 0 0 1 .3-.08.11.11 0 0 1 .1.05v.04l.02.13c0 .03 0 .03.04.03l.04-.01.12-.02.04-.02v-.53c0-.05 0-.06-.06-.04a20.85 20.85 0 0 1-.38.07 16.64 16.64 0 0 0-1.5.45l-.03.02-.03.02v.17c0 .04 0 .04.05.04l.1-.02c.08 0 .12.02.12.1v2.37l-.02.07-.01.02a.22.22 0 0 1-.05.07.81.81 0 0 1-.1.08.08.08 0 0 0-.03.03V9.92Zm8.06-1.27-.04-.02v.03a.7.7 0 0 1-.19.4.35.35 0 0 1-.43.08.33.33 0 0 1-.1-.11.81.81 0 0 1-.14-.28 2.67 2.67 0 0 1-.07-1.2c.03-.16.06-.32.12-.48.04-.1.1-.2.17-.28a.3.3 0 0 1 .3-.07c.07.02.14.06.18.12.1.11.16.25.19.39l.03.15v.05c.02.04.03.06.07.06h.08c.03.01.03 0 .03-.01l.02-.1.02-.22.03-.24v-.04a5.53 5.53 0 0 1 .01-.19.05.05 0 0 0-.03-.02l-.04-.01-.06-.02c-.04-.01-.05 0-.05.04 0 0 0 .02-.02.03l-.02.02a.07.07 0 0 1-.07-.01.27.27 0 0 1-.05-.04 1.2 1.2 0 0 0-.23-.22.7.7 0 0 0-.74-.01c-.13.08-.24.18-.32.3a2 2 0 0 0-.35 1.12c0 .15 0 .3.03.45.03.2.1.4.19.58a1 1 0 0 0 .4.42c.17.1.37.15.57.15a.59.59 0 0 0 .46-.21c.11-.15.19-.32.21-.5a.04.04 0 0 0-.02-.04 3 3 0 0 0-.14-.07Z" fill="#C10335"/></svg>