<!-- by TradingView --><svg width="18" height="18" fill="none" xmlns="http://www.w3.org/2000/svg"><path fill="#F0F3FA" d="M0 0h18v18H0z"/><path fill-rule="evenodd" clip-rule="evenodd" d="M8.894 4.001a5.953 5.953 0 00-1.49.2l1.307 1.19.183-1.39zm-1.651.249c-.654.21-1.105.533-1.416.886l2.31.428-.894-1.314zm-1.452.927c-.66.78-.653 1.689-.652 1.85v.013c0 .194 0 2.3 2.861 2.746V6.058l-2.209-.88zM10 6.07V7h2.752a2.557 2.557 0 00-.523-1.77L10 6.07zm2.174-.907c-.312-.377-.77-.711-1.424-.923l-.905 1.325 2.33-.402zm-1.583-.971C10.16 4.07 9.65 4 9.05 4h-.007l.221 1.391 1.326-1.2zM10 11.667V7.994c2.434.391 3 1.992 3 2.806 0 1.06-.53 3.184-3.95 3.2-3.419.016-4.045-2.021-4.045-3H8v.667a1 1 0 102 0z" fill="#225E9C"/></svg>