<!-- by TradingView --><svg width="18" height="18" viewBox="0 0 18 18" xmlns="http://www.w3.org/2000/svg"><path fill="#0B1F70" d="M0 0h18v18H0z"/><path d="M6.98 13C5.67 13 5 12.3 5 11.04v-.44h1.27v.53c0 .5.23.76.7.76.46 0 .55-.25.55-.78 0-.78-.43-1.3-1-1.75C5.71 8.73 5 8 5 6.93c0-.61.2-1.09.54-1.42.34-.34.83-.51 1.48-.51C8.22 5 9 5.78 9 6.98v.32H7.73v-.4c0-.44-.23-.79-.7-.79-.44 0-.52.25-.52.75 0 .74.48 1.25 1.01 1.67.83.66 1.48 1.4 1.48 2.5C9 12.28 8.3 13 6.98 13Zm3.1-8H12l1 8h-1.27l-.21-1.59v.02h-1.05L10.26 13H9l1.08-8Zm1.3 5.35L11 7l-.4 3.35h.78Z" fill="#fff"/></svg>