<!-- by TradingView --><svg width="18" height="18" viewBox="0 0 18 18" xmlns="http://www.w3.org/2000/svg"><path fill="#F0F3FA" d="M0 0h18v18H0z"/><path d="M10.06 5.77c-1.3-.04-2.3.96-2.3 2.16 0 .61.3 1.16.72 1.55.36.33.38.9.03 1.25a.92.92 0 0 1-1.28.02A3.85 3.85 0 0 1 6 7.93 3.93 3.93 0 0 1 10.13 4c.5.02.89.43.87.92a.9.9 0 0 1-.94.85Z" fill="#0BB48B"/><path d="M7.94 12.23c1.3.04 2.3-.96 2.3-2.16 0-.61-.3-1.16-.72-1.55a.87.87 0 0 1-.03-1.25.92.92 0 0 1 1.28-.02c.76.7 1.23 1.7 1.23 2.82A3.93 3.93 0 0 1 7.87 14a.9.9 0 0 1-.87-.92.9.9 0 0 1 .94-.85Z" fill="#0BB48B"/></svg>