<!-- by TradingView --><svg xmlns="http://www.w3.org/2000/svg" width="18" height="18" viewBox="0 0 18 18"><path fill="url(#ascc1gptb)" d="M0 0h18v18H0z"/><path fill-rule="evenodd" d="M13 9a4 4 0 1 1-8 0 4 4 0 0 1 8 0zm1 0A5 5 0 1 1 4 9a5 5 0 0 1 10 0zm-6.5-.02c-.01.8.6 1.49 1.48 1.52.8 0 1.5-.61 1.52-1.48.01-.81-.61-1.5-1.48-1.52-.8-.01-1.5.6-1.52 1.48z" fill="#fff"/><defs><linearGradient id="ascc1gptb" x1="3.35" y1="3.12" x2="21.9" y2="24.43" gradientUnits="userSpaceOnUse"><stop stop-color="#1A1E21"/><stop offset="1" stop-color="#06060A"/></linearGradient></defs></svg>