<!-- by TradingView --><svg width="18" height="18" viewBox="0 0 18 18" xmlns="http://www.w3.org/2000/svg"><path fill="#F0F3FA" d="M0 0h18v18H0z"/><path fill-rule="evenodd" d="M15 6H3v6h12V6Zm-.3.3H3.3v5.4h11.4V6.3Z"/><path d="M3.7 11.3c0 .26.11.54.17.66 1.1.03 3.32.07 3.44 0 .08-.34-.47-.35-.58-.35-.02-.26-.5-.14-.5-.22 0-.09.13-.09.14-.18 0-.1-.23-.25-.27-.32.25-.17 2.45-.4 2.54-.42.1-.02.15.08.15.13-.05.1-.1.56.23.56.88 0 1.85-1.18 2.03-1.4C13.52 8.98 14 7.63 14 7.51c0-.12-1.29-.51-2.31-.51-1.75 0-4.32 1.14-5.12 1.14-.8 0-2.01-.46-2.7-.46-.69 0-.87.15-.87.22s.15.17.39.24c1.41.37 1.7.8 1.7.98 0 .17-.02.18-.13.26-1.36.94-1.26 1.6-1.26 1.92Z"/><path d="M6.25 11.4a.9.9 0 0 1-.14.19c-.04.03-.08.04-.12.04-.05.01-.1.02-.1.07 0 .1-.16.14-.16.09v-.16c.02-.07.16-.15.23-.15s.15-.13.15-.2c-.06.02-.06 0-.07-.05l-.01-.08c-.03-.1-.2-.02-.4.1-.2.11-.38.5-.38.6 0 .04.03.1.06.14h.07c.03-.1.1-.2.18-.2.06 0 .09.06.12.12l.04.09h.23l.01-.01c.05-.07.12-.15.2-.15.11 0 .3-.21.3-.25 0-.03 0-.1.02-.16h-.1l-.13-.02Z" fill="#BABABA"/><path d="M11.44 7.56c.2 0 .29.12.3.18-.03.32-.74.41-.91.48-.17.07-.77.45-.89.45s-.17-.01-.17-.1c0-.46 1.43-1.01 1.67-1.01Z" fill="#FCFCFC"/><path d="M11.02 8.45c.63-.2.93-.47 1-.58 0-.16-.56.26-.7.34-.14.07-.54.12-.76.28-.22.16-.7.31-.76.34-.06.02-.02.11.09.11.22 0 .78-.39 1.13-.5Z" fill="#BABABA"/><path d="M8.76 10.62c.27-.28.68-.73.7-.84-.3.4-1.93.48-3.07.48-1.15 0-1.57.58-1.57.79 0 .2.19.31.33.31.24 0 .8-.22 1.08-.34l-.02-.03a12.46 12.46 0 0 1 2.38-.45c.09-.02.18 0 .18.06v.02Z" fill="#FCFCFC"/><path d="M6.25 8.12c-.02.14.03.31.33.3.15 0 .56-.13 1.11-.3 1.15-.36 2.89-.9 4.09-.9.2 0 .61.06.8.09-.05-.08-.23-.2-.63-.3L11.7 7c-1.05 0-2.38.4-3.46.74-.73.22-1.34.4-1.66.4-.1 0-.2 0-.32-.02ZM3.27 7.87c-.05-.08 0-.08.1-.13.3 0 .91.03 1.08.05.22.04.55.3.19.22-.36-.08-1.31-.05-1.37-.14ZM3.94 10.36c0 .08.03.16.07.2.07.06.17-.07.32-.25l.23-.26c.13-.15.32-.3.48-.42.15-.13.28-.23.28-.27 0-.05-.12-.13-.23-.19 0 .12-.03.14-.11.2l-.02.01c-.53.37-.85.7-1.02.98Z" fill="#BABABA"/><path d="M13.9 7.76c-.5.26-1.31.67-1.6.79-.34.12-.5.05-.53 0-.32.06-.96.25-.97.53-.01.2.13.48.27.68 1.89-.6 2.6-1.54 2.84-2Z" fill="#FCFCFC"/><path d="M9.1 10.6c.06 0 .49-.69.7-1.03a.36.36 0 0 0-.14-.05c-.07 0-.64.91-.68.97-.05.05.05.12.12.11Z" fill="#BABABA"/></svg>