<!-- by TradingView --><svg xmlns="http://www.w3.org/2000/svg" width="18" height="18" viewBox="0 0 18 18"><path fill="#00B37F" d="M0 0h18v18H0z"/><path d="M10.51 8H8.83c-.08 0-.14-.22-.13-.3l.23-1.46c0-.06.06-.24.12-.24h2.6c.57 0 1.05-.13 1.15-.71l.2-1.14a.13.13 0 0 0-.12-.15H8.07c-.8 0-1.48.59-1.62 1.4l-.49 2.87C5.8 9.25 6.52 10 7.5 10h1.7c.07 0 .13.22.12.3l-.23 1.45c-.01.06-.06.25-.12.25h-2.6c-.58 0-1.06.13-1.16.71L5 13.85c-.01.08.05.15.12.15h4.82c.8 0 1.47-.59 1.61-1.4l.5-2.87C12.2 8.75 11.47 8 10.5 8z" fill="#fff"/></svg>