<!-- by TradingView --><svg width="18" height="18" viewBox="0 0 18 18" xmlns="http://www.w3.org/2000/svg"><path fill="#F0F3FA" d="M0 0h18v18H0z"/><path d="M3.75 8.27H5.5l.02.02.02.02v.03l-.1.61-.03.03A.06.06 0 0 1 5.4 9h-1.7l-.04.02a.05.05 0 0 0-.02.04l-.19 1.9c0 .01 0 .03-.02.04a.06.06 0 0 1-.04.01H2.04l-.02-.02-.02-.02v-.02l.47-4.9.02-.03.04-.01h3.48l.02.02.02.02v.02l-.06.9s0 .02-.02.03a.06.06 0 0 1-.04.01H3.9l-.04.01a.05.05 0 0 0-.02.04L3.69 8.2v.02l.01.02.02.01.03.01ZM7.61 8.53a3.88 3.88 0 0 0-1.84.24c-.07.02-.1 0-.1-.07l.07-.52c.01-.06.05-.1.12-.1.85-.04 2.92-.42 2.84.91-.04.6-.09 1.33-.15 1.92 0 .06-.04.09-.1.09H7.6c-.06 0-.09-.03-.08-.08l.06-1.36c0-.07-.04-.1-.11-.07-.38.14-.97.35-1.05.76a.2.2 0 0 0 0 .1.2.2 0 0 0 .07.1l.1.04h.11l.6-.17c.05-.01.08 0 .08.06 0 .52-.4.48-.8.57-1.34.3-1.7-.9-.7-1.46.42-.23 1.66-.53 1.8-.84.04-.07.02-.11-.07-.12ZM14.51 10.91c-1.08.25-2.28.13-2-1.27.33-1.56 2.04-1.67 3.4-1.64.07 0 .1.04.09.1a133.8 133.8 0 0 1-.28 3.09c-.17 1.67-2.17 1.9-3.43 1.79-.05 0-.07-.03-.06-.07l.05-.6c0-.07.04-.1.1-.09.94.08 2.18-.16 2.23-1.23 0-.07-.03-.1-.1-.08Zm-.64-.67c.24.12.48.13.73.03.06-.02.09-.06.1-.11l.1-1.17c0-.05-.02-.07-.07-.08-.76-.1-1.27.5-1 1.17a.3.3 0 0 0 .14.16ZM10.24 8.38c.83-.3 2.14-.95 1.98.7l-.16 1.82c0 .07-.04.1-.11.1h-.88c-.08 0-.12-.04-.11-.12l.18-1.81a.22.22 0 0 0-.12-.23c-.31-.15-.94.03-.96.45-.02.55-.14 1.04-.12 1.6 0 .07-.04.11-.12.11h-.9c-.06 0-.09-.03-.08-.08l.27-2.83c0-.05.03-.09.08-.09h.92c.1 0 .12.06.1.14l-.06.16c-.02.09 0 .11.09.08Z" fill="#B60000"/></svg>