<!-- by TradingView --><svg width="18" height="18" viewBox="0 0 18 18" xmlns="http://www.w3.org/2000/svg"><path fill="#F0F3FA" d="M0 0h18v18H0z"/><path d="M9.05 9.87c1.7 0 3.09-1.31 3.09-2.93A3.02 3.02 0 0 0 9.04 4a3.02 3.02 0 0 0-3.08 2.94 3.02 3.02 0 0 0 3.09 2.93Z" fill="url(#a4izpecsn)"/><path d="M10.91 10.95C12.61 10.95 14 9.63 14 8a3.02 3.02 0 0 0-3.09-2.94 3.02 3.02 0 0 0-3.09 2.94 3.02 3.02 0 0 0 3.09 2.94Z" fill="url(#b4izpecsn)"/><path d="M10.85 13.02c1.71 0 3.1-1.32 3.1-2.94a3.02 3.02 0 0 0-3.1-2.94 3.02 3.02 0 0 0-3.09 2.94 3.02 3.02 0 0 0 3.1 2.94Z" fill="url(#c4izpecsn)"/><path d="M8.94 14c1.7 0 3.09-1.31 3.09-2.94a3.02 3.02 0 0 0-3.09-2.93 3.02 3.02 0 0 0-3.09 2.93A3.02 3.02 0 0 0 8.94 14Z" fill="url(#d4izpecsn)"/><path d="M7.09 12.91c1.7 0 3.09-1.31 3.09-2.94a3.02 3.02 0 0 0-3.09-2.93A3.02 3.02 0 0 0 4 9.97a3.02 3.02 0 0 0 3.09 2.94Z" fill="url(#e4izpecsn)"/><path d="M7.16 10.84c1.71 0 3.1-1.31 3.1-2.93a3.02 3.02 0 0 0-3.1-2.94A3.02 3.02 0 0 0 4.07 7.9a3.02 3.02 0 0 0 3.1 2.93Z" fill="url(#f4izpecsn)"/><path d="m10.73 9.63-.17.78c0 .05-.06.15-.31.15h-.31l.2-.94h-1.3l.16-.3h1.22l.13-.63h-1.2l.16-.31h1.11l.07-.32H9.31v-.31h1.25c.05-.1.19-.31.31-.31h.32l-.07.31h2.57l.15.31h-2.78l-.07.31h1.13l.32.32h-1.52l-.13.62h1.18l.15.31h-1.4ZM5.45 10.25l.11-.47c0-.15.13-.47.63-.47h1.87c.26 0 .75.13.63.63l-.1.31H9l.31.31h-5L4 10.25h1.45Zm.77 0h.16l.12-.63h-.16l-.12.63Zm.78 0h.16l.12-.63h-.16l-.12.63Zm.78 0h.16l.12-.63h-.15l-.13.63ZM6.34 9.16h-.62l.16-.79c.12-.74.57-.93.78-.93h.78l-.16-.32h.63l.15.32h.31l-.15-.32h.47l.31.63h-.94l.31.63.16-.32H9l-.63 1.1h-.46l-.32-1.1h-.93v.16h.93l-.15.47c-.13.37-.37.47-.47.47H6.5V9h.16l.15-.47H6.5l-.16.63Z" fill="#FFE100"/><defs><linearGradient id="a4izpecsn" x1="6.55" y1="6.77" x2="11.34" y2="6.77" gradientUnits="userSpaceOnUse"><stop stop-color="#4C282A"/><stop offset="1" stop-color="#4F2D2D" stop-opacity="0"/></linearGradient><linearGradient id="b4izpecsn" x1="9.11" y1="5.86" x2="11.61" y2="10.52" gradientUnits="userSpaceOnUse"><stop stop-color="#4C2929"/><stop offset="1" stop-color="#4C2929" stop-opacity="0"/></linearGradient><linearGradient id="c4izpecsn" x1="12.61" y1="7.98" x2="9.79" y2="12.21" gradientUnits="userSpaceOnUse"><stop stop-color="#5A3A3C"/><stop offset="1" stop-color="#4F2C2E" stop-opacity="0"/></linearGradient><linearGradient id="d4izpecsn" x1="11.82" y1="10.71" x2="7.35" y2="10.71" gradientUnits="userSpaceOnUse"><stop stop-color="#523132"/><stop offset="1" stop-color="#553435" stop-opacity="0"/></linearGradient><linearGradient id="e4izpecsn" x1="9.74" y1="10.11" x2="4.01" y2="10.94" gradientUnits="userSpaceOnUse"><stop stop-color="#533233"/><stop offset="1" stop-color="#523132" stop-opacity="0"/></linearGradient><linearGradient id="f4izpecsn" x1="4.96" y1="9.8" x2="7.33" y2="5.9" gradientUnits="userSpaceOnUse"><stop stop-color="#563537"/><stop offset="1" stop-color="#5A3B3D" stop-opacity="0"/></linearGradient></defs></svg>