<!-- by TradingView --><svg xmlns="http://www.w3.org/2000/svg" width="18" height="18" viewBox="0 0 18 18"><path fill="#00483C" d="M0 0h18v18H0z"/><path d="M11.87 9.77c-.94 0-1.67-.57-1.67-1.55 0-1.01.72-1.55 1.67-1.55s1.62.53 1.62 1.55c0 .98-.68 1.55-1.62 1.55zm-1.39 1.78h-1.3c.3 1.36 1.44 1.95 2.98 1.95s2.57-.71 2.57-1.8c0-.84-.61-1.23-1.55-1.49a1.97 1.97 0 0 0 1.5-2.02c0-.55-.18-1.03-.5-1.42.26-.06.55-.07.82-.02V5.71a1.66 1.66 0 0 0-1.38.56 3.23 3.23 0 0 0-1.76-.57c-1.64 0-2.87 1.06-2.87 2.49 0 1.87 1.63 2.31 3.13 2.66 1.18.27 1.37.53 1.37.93 0 .44-.3.75-1.35.75-.91 0-1.44-.3-1.66-.98zm-4.57 0c1.49 0 2.53-.74 2.53-1.78 0-2.24-4.13-1.19-4.13-2.47 0-.41.46-.63 1.2-.63.9 0 1.45.28 1.68.98h1.16C8.09 6.37 7.05 5.7 5.52 5.7c-1.52 0-2.45.7-2.45 1.73 0 2.18 4.18 1.1 4.18 2.47 0 .36-.41.67-1.35.67-.93 0-1.63-.43-1.73-.97H3c.26 1.41 1.33 1.95 2.9 1.95z" fill="#E9F960"/></svg>