<!-- by TradingView --><svg xmlns="http://www.w3.org/2000/svg" width="18" height="18"><path fill="#F0F3FA" d="M0 0h18v18H0z"/><path d="M14 4.51v3.34l-1 .54V6.17L9 8.4V7.25l5-2.74z" fill="#0092C8"/><path d="M13 8.39V6.16l-1 .55v1.12l1 .56z" fill="#0072A6"/><path d="M13.01 4l.99.52-5 2.74-5-2.75.98-.51 4 2.18L13.02 4z" fill="#2AACE3"/><path d="M9 7.25V8.4L5 6.25V8.4l4 2.16V15l-5-2.76V11.1l4 2.2v-2.13L4 8.94V4.5l5 2.74z" fill="#0072A6"/><path d="M6 6.76l-1-.53v2.18l1-.54v-1.1z" fill="#0092C8"/><path d="M10 10.02L6.01 7.86 5 8.4l4 2.18 1-.56zm-4.93.52L4 11.1l4 2.21v-1.2l-2.93-1.57zm6.93.59l-2 1.03v1.18l3.02-1.68-1.02-.53zm2-2.2l-.93-.55L11 9.45l1.03.59L14 8.94z" fill="#2AACE3"/><path d="M11 10.58V9.44l1 .54v1.14l-1-.54zm2 .01l-1 .55 1 .52V10.6z" fill="#0072A6"/><path d="M14 8.93L12 10v1.15l1-.55v1.07l-3 1.63v-3.27l-1 .55V15l5-2.76v-3.3z" fill="#0092C8"/></svg>