<!-- by TradingView --><svg width="18" height="18" xmlns="http://www.w3.org/2000/svg"><path fill="url(#paint0_linear)" d="M0 0h18v18H0z"/><path fill-rule="evenodd" d="M10 14c2.21 0 4-1.778 4-3.97 0-2.194-1.79-3.971-4-3.971s-4 1.777-4 3.97C6 12.222 7.79 14 10 14zm.48-.883c1.415 0 2.56-1.053 2.56-2.353 0-1.299-1.145-2.352-2.56-2.352-1.413 0-2.56 1.053-2.56 2.352 0 1.3 1.147 2.353 2.56 2.353z" fill="#fff"/><path d="M4 6.844V4l6 7-6-4.156z" fill="#00833C"/><defs><linearGradient id="paint0_linear" x1="3.349" y1="3.122" x2="21.904" y2="24.434" gradientUnits="userSpaceOnUse"><stop stop-color="#1A1E21"/><stop offset="1" stop-color="#06060A"/></linearGradient></defs></svg>