<!-- by TradingView --><svg xmlns="http://www.w3.org/2000/svg" width="18" height="18"><path fill="#02D902" d="M0 0h18v18H0z"/><path fill-rule="evenodd" d="M4.07 8.3c.1 0 .18 0 .24.02.8.11 1.19.5 1.19 1.17 0 1-.72 1.51-1.7 1.51a2.4 2.4 0 01-1.8-.82l.56-.64c.34.36.7.58 1.28.58.36 0 .86-.2.86-.54 0-.37-.32-.4-.64-.44h-.03l-.16-.02c-.61-.05-1.71-.15-1.71-1.3 0-.81.76-1.32 1.61-1.32.94 0 1.5.46 1.66.6l-.52.6c-.12-.1-.52-.38-1.14-.38-.38 0-.84.15-.84.46 0 .43.7.48 1.14.51zm10.16-1.01c-.54 0-1.1.36-1.1 1.1h2.08c0-.73-.43-1.1-.98-1.1zm-1.89 1.47c0-1.4.72-2.26 1.83-2.26 2.27 0 1.79 2.65 1.79 2.65h-2.8c0 .55.47.98 1.09.98.46 0 .78-.19 1.05-.46l.5.57s-.57.76-1.57.76c-.78 0-1.89-.5-1.89-2.24zm0 0V6.5h-.8v.55c-.3-.37-.74-.55-1.23-.55-.83 0-1.25.5-1.4 1.01-.05.2-.07.57-.07 1.12 0 .52 0 .99.18 1.35.23.5.81.79 1.3.79.46 0 .95-.2 1.23-.53v.13c0 .3-.2.63-.38.79-.18.15-.4.25-.73.25-.29 0-.56-.17-.72-.28l-.6.62c.4.32.85.55 1.34.55.52 0 .94-.16 1.3-.47.36-.29.58-.84.58-1.42V8.76zM8 9.34c0 .8-.5.8-.94.8H7c-.48 0-.78-.15-.78-.53 0-.35.25-.46.76-.46H8v.19zM7.11 6.5c-.86 0-1.43.5-1.53.6l.53.6c.1-.1.46-.38 1.01-.38.66 0 .88.3.88.64v.43H6.8c-.44 0-1.3.12-1.3 1.22 0 .8.4 1.39 1.37 1.39.49 0 .88-.18 1.13-.52V11h.84V8.03c0-1-.54-1.53-1.73-1.53zm4.4 2.8a5.67 5.67 0 000-1.38c-.02-.17-.31-.62-.94-.62-.52 0-.84.35-.89.59-.02.12-.04.27-.04.74 0 .32.01.48.03.6.07.61.77.68.9.68.52 0 .9-.34.95-.6z" fill="#fff"/></svg>