<!-- by TradingView --><svg width="18" height="18" viewBox="0 0 18 18" xmlns="http://www.w3.org/2000/svg"><path fill="#F0F3FA" d="M0 0h18v18H0z"/><path d="M5.1 5.12a2.5 2.5 0 0 0-.03 1.3c.5 1.81 2.56 2.19 4.1 2.27 1.37.08 3 .55 3.63 1.97l.16.34.02-.18c.02-.1.02-.22.02-.34-.03-1.57-1.4-2.55-2.78-2.84a8.73 8.73 0 0 0-1.15-.12c-.84-.04-1.27-.04-1.67-.19-.3-.1-.73-.28-.73-.33 0-.57 2.22-.87 2.5-.87 1.5-.01 2.83.81 3.83 1.92V6.77c0-1.43-.02-1.54-.24-1.98C12.06 3.41 10.36 3.01 9 3c-1.46 0-3.34.53-3.9 2.12Zm6.92.78v.2l-.19-.14c-.75-.6-1.73-.67-2.66-.67-1.22-.01-2.21.06-2.86.68a.89.89 0 0 1-.19.16c-.04 0-.12-.28-.12-.45 0-1.36 2.03-1.54 3-1.54 1.14 0 3.02.16 3.02 1.76Z" fill="#133157"/><path d="M12.9 12.88c.12-.36.13-.91.03-1.3-.5-1.81-2.56-2.19-4.1-2.27-1.37-.08-3-.55-3.63-1.97L5.04 7l-.02.18C5 7.28 5 7.4 5 7.52c.02 1.57 1.4 2.55 2.78 2.84.25.05.64.1 1.15.12.84.04 1.27.04 1.67.19.3.1.73.28.73.33 0 .57-2.22.87-2.5.87A5.23 5.23 0 0 1 5 9.95v1.28c0 1.43.02 1.54.24 1.98.7 1.38 2.4 1.78 3.76 1.79 1.46 0 3.34-.53 3.9-2.12Zm-6.92-.78v-.2l.19.14c.75.6 1.73.67 2.66.67 1.22.01 2.21-.06 2.86-.68a.89.89 0 0 1 .19-.16c.04 0 .12.28.12.45 0 1.36-2.03 1.54-3 1.54-1.14 0-3.02-.16-3.02-1.76Z" fill="#133157"/></svg>