<!-- by TradingView --><svg width="18" height="18" viewBox="0 0 18 18" xmlns="http://www.w3.org/2000/svg"><path fill="#F0F3FA" d="M0 0h18v18H0z"/><path d="m8.84 8.78-.09.19a2 2 0 1 1 .1-.18Z" fill="#76B7A6"/><path d="m4.45 6.84.6.24c.12.06.06.21-.1.16a12.9 12.9 0 0 1-.59-.25l.09-.15ZM8.9 8.67l.57.24c.16.07.08.23-.05.17l-.62-.25.1-.16Z" fill="#5B7F89"/><path d="M14.25 11a.75.75 0 1 0 0-1.5.75.75 0 0 0 0 1.5Z" fill="#0095AF"/><path d="m12.08 9.68 1.08.15c.18.03.15.2-.02.18l-1.1-.16.04-.17ZM11.67 10.37l.54.62c.09.11-.08.2-.18.09l-.53-.6.17-.11Z" fill="#5B7F89"/><path d="M12.5 12a.5.5 0 1 0 0-1 .5.5 0 0 0 0 1Z" fill="#6099AC"/><path d="m12 9.86-.04.2c-.06.25-.2.46-.39.64l-.17.12c-.96.56-2.15-.28-1.85-1.39a1.25 1.25 0 0 1 2.1-.54c.25.25.36.58.35.97Z" fill="#51A59E"/><path d="m4.46 6.99-.09.18c-.3.41-.9.45-1.21.04a.75.75 0 0 1 .26-1.14.75.75 0 0 1 1.04.92Z" fill="#76ADB7"/></svg>