<!-- by TradingView --><svg xmlns="http://www.w3.org/2000/svg" width="18" height="18" viewBox="0 0 18 18"><path fill="#F0F3FA" d="M0 0h18v18H0z"/><path d="M7.87 4H7v2.68c0 .18-.17.32-.33.32H4v.87c0 .35.28.63.63.63H7.8a.7.7 0 0 0 .69-.7V4.64A.63.63 0 0 0 7.87 4z" fill="#C0CDD5"/><path d="M10.13 4H11v2.68c0 .18.17.32.32.32H14v.87c0 .35-.28.63-.63.63H10.2a.7.7 0 0 1-.69-.7V4.64c0-.35.28-.63.63-.63z" fill="#487D93"/><path d="M7.87 14H7v-2.67a.33.33 0 0 0-.33-.33H4v-.87c0-.35.28-.63.63-.63H7.8c.38 0 .69.31.69.7v3.17c0 .35-.28.63-.63.63z" fill="#C0CDD5"/><path d="M10.13 14H11v-2.67c0-.2.17-.33.32-.33H14v-.87a.63.63 0 0 0-.63-.63H10.2a.7.7 0 0 0-.69.7v3.17c0 .35.28.63.63.63z" fill="#487D93"/></svg>