<!-- by TradingView --><svg xmlns="http://www.w3.org/2000/svg" width="18" height="18" viewBox="0 0 18 18"><path fill="#1F2640" d="M0 0h18v18H0z"/><path d="M7.82 7.67h2.38C10.17 6.77 9.42 5 6.68 5 3.28 5 3.3 7.07 3.3 7.68v.02c0 .58.34 2.3 3 2.3.56 0 1.66.08 1.66.46S7.2 11 6.8 11c-.44.03-1.3-.08-1.3-.67H3c-.04.9.63 2.67 3.68 2.67 3.05 0 3.6-1.62 3.6-2.71 0-.98-.33-2.07-2.77-2.3-.69-.02-2.08-.13-2.08-.5 0-.38.83-.5 1.25-.49.38 0 1.14.15 1.14.67zM10.5 5h.96l.22 6.09v-1.1L12.14 5h.71l.43 4.74V11L13.55 5h.95l-.62 8h-.9l-.46-4.78V7.05l-.09 1.17L12 13h-.87l-.63-8z" fill="#FF4A5B"/></svg>