<!-- by TradingView --><svg width="18" height="18" viewBox="0 0 18 18" xmlns="http://www.w3.org/2000/svg"><path fill="#F0F3FA" d="M0 0h18v18H0z"/><path d="M12.62 4.88V4.3c-.27-.1-.58-.3-.85-.4a5.15 5.15 0 0 0-.73-.18c-.1-.02-.19-.02-.28-.05a5.43 5.43 0 0 1-.1-.5l-.33-.05a6.77 6.77 0 0 0-2.98.06l-.07.27-.04.22c-.02.02-.06.01-.08.02-.6.1-1.24.38-1.8.61-.02.19.02.29 0 .47-.3.37-.97.6-1.35.91 0-.03-.03.02 0 0 .14 1 .33 1.97.6 2.92a9.06 9.06 0 0 0 1.27 2.7l.07.1.02.02c.6.86 1.27 1.65 2 2.35l.03.03c.31.28.63.55.96.8.02 0 .04.03.06 0 .31-.21.61-.47.9-.73a14.24 14.24 0 0 0 2.77-3.47c.4-.77.67-1.63.89-2.5.17-.75.32-1.32.42-2.1-.53-.44-.75-.63-1.38-.93Z" fill="#221E2D"/><path d="M8.01 3.07a7.44 7.44 0 0 1 1.68-.04c.37.04.74.12 1.1.2l.1.47c.24.05.47.1.7.17.35.12.7.26 1.05.4 0 .19.03.38.05.56l.63.36c.24.15.47.33.68.53-.04.47-.12.92-.2 1.37-.15.87-.35 1.73-.64 2.55-.14.41-.3.81-.51 1.18-.05.07-.08.15-.13.2l-.03.04a14.95 14.95 0 0 1-2.47 3.13c-.3.27-.6.54-.93.76-.04.02-.08.07-.12.04a10.68 10.68 0 0 1-1.35-1.17 15.47 15.47 0 0 1-2.21-2.93 8 8 0 0 1-.64-1.48c-.36-1.12-.6-2.3-.74-3.5-.01-.06-.02-.13-.01-.2a4.58 4.58 0 0 1 1.3-.87l.06-.57c.35-.15.7-.3 1.07-.41.22-.07.44-.12.66-.16l.1-.47c.27-.06.54-.12.8-.16Zm.63.29c-.4 0-.8.09-1.19.17l-.1.47c-.02.03-.05.02-.08.03-.31.05-.63.12-.94.23l-.69.27-.06.54-.05.04c-.25.13-.5.26-.74.41-.16.1-.3.22-.46.34-.02.02 0 .06 0 .1.12.95.3 1.9.56 2.82.18.62.4 1.24.7 1.8.17.3.36.6.55.9v.03h.02c.56.83 1.19 1.6 1.88 2.27v.02l.01.01h.02c.29.27.58.54.9.77.01 0 .03.03.05.01.3-.21.58-.46.85-.71a13.65 13.65 0 0 0 2.6-3.36c.38-.74.63-1.58.83-2.41.17-.74.3-1.48.4-2.23a4.03 4.03 0 0 0-.53-.39v-.02l-.02-.01c-.25-.12-.48-.26-.72-.38-.03-.18-.04-.37-.06-.55l-.77-.3a4.71 4.71 0 0 0-.68-.17L10.66 4l-.1-.48-.3-.06a6.16 6.16 0 0 0-1.62-.11Z" fill="#DC9D5F"/><path d="M6.4 6.35c.23-.25.53-.4.83-.34.19.06.36.19.53.31l.24.2c-.11.17-.24.32-.36.48-.12-.15-.27-.29-.43-.32-.12-.02-.26 0-.35.11a.68.68 0 0 0-.1.47c.04.14.14.23.23.32.13.12.27.23.39.38.1.14.23.25.34.4.23.3.2.81.05 1.15a.9.9 0 0 1-1.09.44c-.27-.07-.5-.32-.68-.58.1-.15.22-.28.33-.42.18.19.41.33.65.3.1-.02.21-.07.26-.2.04-.09.02-.2-.02-.29a.66.66 0 0 0-.19-.27 8.2 8.2 0 0 1-.6-.57c-.08-.1-.17-.22-.22-.37-.06-.24-.05-.5 0-.75.03-.17.1-.34.2-.45Z" fill="#E79C26"/><path d="M9.63 6h1.02c.15 0 .3-.01.45.05.22.1.42.27.53.52.08.17.1.38.08.57-.03.32-.17.62-.39.82a1 1 0 0 1 .31.39c.14.3.13.66.04.97-.08.26-.24.5-.46.63a.36.36 0 0 1-.19.05H9.63V6Zm.62.64v.9h.31c.1 0 .19.02.27-.03.19-.1.26-.4.19-.63a.36.36 0 0 0-.35-.25h-.42Zm0 1.67v.9l.43.01c.14 0 .26-.1.32-.24.1-.25.03-.7-.33-.68l-.42.01Z" fill="#E8A738"/><path d="M8.58 3.77c.12-.02.25-.02.37-.02v4.26c-.06-.25-.09-.5-.14-.76L8.46 5.3c-.02-.2-.07-.38-.1-.57-.02-.17-.06-.34-.1-.52 0-.13-.05-.26-.06-.4.13-.03.25-.03.38-.04Z" fill="url(#ajxhjp4zv)"/><path d="M9.05 3.76h.18c.12.01.24 0 .37.02l.2.02c0 .14-.04.27-.06.4l-.1.6-.1.56-.08.41h-.19c0 .22-.04.43-.05.65l-.08.88c-.03.23-.03.48-.08.7V3.77Z" fill="url(#bjxhjp4zv)"/><path d="M7.71 3.88c.13-.01.26-.06.4-.05l.18 1.09c.05.21.07.43.12.64l.32 1.83c.03.2.09.4.1.61-.07-.14-.11-.3-.17-.44l-.1-.27c0-.04.03-.08.03-.13 0-.17-.04-.34-.04-.51 0-.05 0-.1-.03-.15-.1-.15-.23-.27-.36-.38-.06-.04-.08-.13-.11-.21l-.47-1.26a4 4 0 0 1-.08-.22l.11-.04.1-.5Z" fill="url(#cjxhjp4zv)"/><path d="M9.9 3.83c.06-.01.12 0 .17.01l.23.05c.04.17.05.35.1.5l.1.05c-.09.28-.2.55-.3.82-.06.17-.13.33-.18.5-.15.01-.3.02-.45.01.02-.23.08-.45.11-.68l.13-.7.1-.56Z" fill="url(#djxhjp4zv)"/><path d="M10.6 4.48c.02-.06.08-.03.12-.03.22.05.45.07.66.16-.2.36-.43.7-.64 1.06-.02.04-.04.09-.08.08h-.53l.1-.28.38-1Z" fill="url(#ejxhjp4zv)"/><path d="M6.97 4.52c.14-.03.28-.07.42-.07l.11.3c.1.22.17.45.26.68l.19.53-.24-.11a1.17 1.17 0 0 0-.38-.08l-.44-.72-.26-.44c.1-.05.22-.07.34-.1Z" fill="url(#fjxhjp4zv)"/><path d="M11.47 4.68c.01-.04.06-.02.1-.01.16.05.31.13.48.18.01 0 .04.01.04.04l.03.28c-.02.06-.07.1-.11.14-.21.21-.4.45-.61.66l-.14-.07a1.67 1.67 0 0 0-.44-.14c.04-.1.1-.17.15-.26l.5-.82Z" fill="url(#gjxhjp4zv)"/><path d="M6.26 4.74c.09-.03.17-.08.26-.09l.46.75.23.38c-.12.01-.24.02-.36.06-.1.03-.18.08-.27.1l-.5-.55c-.06-.07-.14-.12-.19-.2 0-.1 0-.21.03-.31.1-.06.23-.1.34-.14Z" fill="url(#hjxhjp4zv)"/><path d="m5.87 5.34.61.66c-.1.06-.2.14-.3.23-.07.07-.13.16-.19.24-.3-.2-.6-.4-.9-.62.13-.1.28-.16.43-.25l.3-.15c.03-.02.04-.07.05-.1Z" fill="url(#ijxhjp4zv)"/><path d="m11.68 5.83.45-.48c.02.04.03.1.08.1.24.13.48.25.7.4-.3.23-.63.44-.95.66-.1-.12-.18-.25-.3-.34l-.15-.13c.04-.1.11-.14.17-.21Z" fill="url(#jjxhjp4zv)"/><path d="M4.92 5.94c.02 0 .05-.03.07-.01.09.05.17.12.26.18l.37.25.31.22-.07.22c-.04.16-.05.34-.06.5-.26-.08-.51-.18-.77-.28-.1-.04-.2-.07-.29-.12-.03-.26-.1-.5-.1-.76l.28-.2Z" fill="url(#kjxhjp4zv)"/><path d="M13 5.93c.04-.03.08.01.11.03.09.06.18.11.26.19v.16l-.1.6-.97.37c-.06.03-.13.06-.2.06 0-.12.03-.23 0-.35 0-.13-.06-.25-.08-.37.11-.09.23-.16.34-.24.22-.14.43-.3.65-.45Z" fill="url(#ljxhjp4zv)"/><path d="M10.31 6.96c.09.01.2-.04.26.05.1.09 0 .3-.1.28h-.16v-.33Z" fill="#50747F"/><path d="M4.78 7.04c.34.16.7.26 1.03.41.03.12.04.24.08.36.04.13.11.25.16.37-.15 0-.3-.03-.45-.05l-.55-.06c-.03-.01-.07-.01-.08-.06l-.15-.7c-.01-.1-.04-.18-.04-.27Z" fill="url(#mjxhjp4zv)"/><path d="m13.06 7.11.16-.05c0 .1-.03.2-.05.31l-.14.64c0 .04-.04.05-.07.06l-.9.11h-.12l-.04-.05c.05-.11.1-.23.13-.36.03-.1.03-.2.07-.28l.96-.38Z" fill="url(#njxhjp4zv)"/><path d="m8.34 7.4.11-.07c.05.07.07.15.1.23.06.16.13.32.18.49-.1-.12-.17-.27-.25-.4-.05-.08-.11-.15-.14-.25Z" fill="url(#ojxhjp4zv)"/><path d="M7.41 7.43c.02 0 .05-.04.08-.02.07.05.11.13.16.2-.08-.05-.18-.09-.24-.18Z" fill="url(#pjxhjp4zv)"/><path d="m8.11 7.57.12-.09c.03 0 .03.03.05.05.11.2.25.4.36.62l-.42-.45c-.04-.04-.08-.08-.1-.13Z" fill="url(#qjxhjp4zv)"/><path d="M7.86 7.76c.05-.04.1-.08.15-.1.05 0 .08.06.12.1.13.16.3.3.43.48-.24-.15-.47-.32-.7-.48Z" fill="url(#rjxhjp4zv)"/><path d="M7.98 8c.06.02.1.05.15.09l.39.27c-.08-.02-.16-.04-.22-.1l-.26-.2A.2.2 0 0 1 7.98 8Z" fill="url(#sjxhjp4zv)"/><path d="M5.03 8.18c.37.04.75.11 1.13.14.03 0 .06.04.08.06.18.16.38.29.58.4l.04.05c-.12.03-.25.02-.37.05-.18 0-.34.05-.52.06l-.72.09a1.77 1.77 0 0 1-.05-.17c-.06-.22-.13-.44-.17-.68Z" fill="url(#tjxhjp4zv)"/><path d="M12.04 8.3c.31-.03.63-.09.95-.11l-.23.84a8.96 8.96 0 0 1-.55-.07c-.02-.1-.02-.2-.05-.3l-.12-.36Z" fill="url(#ujxhjp4zv)"/><path d="m6.5 9 .45-.06c.09-.02.17.11.12.2-.07.1-.2.09-.3.04-.09-.05-.2-.1-.27-.18Z" fill="#5A7777"/><path d="M5.97 9.06c.07-.01.14-.01.2-.03l-.38.46v.31a.57.57 0 0 1-.23.08c-.1-.24-.2-.48-.26-.73.22-.05.45-.05.67-.09Z" fill="url(#vjxhjp4zv)"/><path d="M12.22 9.09c.17.01.34.03.5.06-.1.24-.16.5-.28.73a1.5 1.5 0 0 1-.27-.1l.05-.26c.02-.14 0-.29 0-.43Z" fill="url(#wjxhjp4zv)"/><path d="M8.82 9.96c.02-.08.08-.14.13-.2v4.49l-.4-.32-.35-.34c-.03-.03 0-.08 0-.13l.08-.5c.05-.21.07-.43.12-.64.13-.79.28-1.57.42-2.36Z" fill="url(#xjxhjp4zv)"/><path d="M9.06 9.88c.08.1.16.22.18.36l.38 2.13c.05.3.12.61.16.92.02.1.05.18.04.28-.02.05-.08.08-.12.13-.21.18-.41.4-.64.55V9.88Z" fill="url(#yjxhjp4zv)"/><path d="M12.11 9.9c.1.01.18.06.27.09 0 .05-.02.1-.04.15l-.25.47c-.02.05-.07.02-.1 0a5.9 5.9 0 0 1-.25-.18c.14-.15.27-.33.37-.53Z" fill="url(#zjxhjp4zv)"/><path d="M5.62 10a.35.35 0 0 1 .18-.05v.3c.11.1.23.18.35.26l-.2.14c-.05-.04-.08-.12-.12-.18-.07-.16-.16-.3-.21-.47Z" fill="url(#aajxhjp4zv)"/><path d="M8.44 10.35c.08-.07.15-.17.24-.24-.04.35-.12.68-.18 1.02-.1.6-.2 1.2-.32 1.8-.03.18-.05.36-.1.54-.1-.1-.21-.2-.3-.32-.1-.1-.2-.2-.28-.32 0-.04.01-.07.03-.1l.37-1c.07-.2.16-.4.23-.62a44 44 0 0 0 .2-.54c.03-.08.05-.16.1-.22Z" fill="url(#abjxhjp4zv)"/><path d="m9.37 10.4.28.44.13.01.04.1.31.85.38 1c.01.04-.02.06-.04.09-.08.08-.15.18-.24.26-.1.1-.19.22-.3.32a.16.16 0 0 1-.02-.07c-.11-.64-.24-1.28-.34-1.92l-.2-1.07Z" fill="url(#acjxhjp4zv)"/><path d="M11.32 10.75c.12-.06.22-.16.33-.24l.35.25c-.11.2-.24.4-.37.59l-.2-.21-.27-.29.16-.1Z" fill="url(#adjxhjp4zv)"/><path d="M8 10.7c.07-.05.13-.1.21-.14-.01.1-.06.19-.1.28-.06.17-.11.35-.19.52l-.51 1.38-.48-.6.13-.23.66-1.08c.1-.04.19-.08.27-.13Z" fill="url(#aejxhjp4zv)"/><path d="m6.02 10.74.24-.15c.07.01.13.07.2.1.12.07.25.1.38.16-.12.15-.25.28-.38.42a.83.83 0 0 1-.08.08 8.83 8.83 0 0 1-.36-.6Z" fill="url(#afjxhjp4zv)"/><path d="M9.9 10.84c.13 0 .27-.01.4.01l.72 1.2.06.09-.48.6c-.07-.16-.12-.34-.2-.51l-.3-.82c-.06-.2-.15-.37-.2-.57Z" fill="url(#agjxhjp4zv)"/><path d="M10.43 10.84h.53c.04 0 .06.03.09.05.16.2.34.36.5.56-.03.11-.12.2-.18.3-.08.09-.13.2-.23.28l-.59-.97-.12-.22Z" fill="url(#ahjxhjp4zv)"/><path d="M7.09 10.9c.15.02.3.01.46-.01-.06.13-.14.23-.2.35-.15.25-.31.48-.45.73-.01.02-.02.05-.04.06-.05-.04-.08-.1-.12-.15-.1-.13-.18-.27-.27-.4-.03-.03 0-.07.02-.09l.44-.45c.04-.06.1-.04.16-.04Z" fill="url(#aijxhjp4zv)"/><defs><linearGradient id="ajxhjp4zv" x1="8.58" y1="3.84" x2="8.58" y2="7.91" gradientUnits="userSpaceOnUse"><stop stop-color="#163636"/><stop offset=".8" stop-color="#50747F"/></linearGradient><linearGradient id="bjxhjp4zv" x1="9.43" y1="3.84" x2="9.43" y2="7.91" gradientUnits="userSpaceOnUse"><stop stop-color="#163636"/><stop offset=".8" stop-color="#50747F"/></linearGradient><linearGradient id="cjxhjp4zv" x1="8.17" y1="3.91" x2="8.17" y2="7.91" gradientUnits="userSpaceOnUse"><stop stop-color="#163636"/><stop offset=".8" stop-color="#50747F"/></linearGradient><linearGradient id="djxhjp4zv" x1="10.04" y1="3.86" x2="10.04" y2="5.73" gradientUnits="userSpaceOnUse"><stop stop-color="#163636"/><stop offset=".8" stop-color="#50747F"/><stop offset="1" stop-color="#5A7777"/></linearGradient><linearGradient id="ejxhjp4zv" x1="10.76" y1="4.47" x2="10.76" y2="5.73" gradientUnits="userSpaceOnUse"><stop stop-color="#163636"/><stop offset=".8" stop-color="#50747F"/><stop offset="1" stop-color="#5A7777"/></linearGradient><linearGradient id="fjxhjp4zv" x1="7.29" y1="4.48" x2="7.29" y2="5.92" gradientUnits="userSpaceOnUse"><stop stop-color="#163636"/><stop offset=".8" stop-color="#50747F"/></linearGradient><linearGradient id="gjxhjp4zv" x1="11.47" y1="4.68" x2="11.47" y2="5.94" gradientUnits="userSpaceOnUse"><stop stop-color="#163636"/><stop offset=".8" stop-color="#50747F"/><stop offset="1" stop-color="#5A7777"/></linearGradient><linearGradient id="hjxhjp4zv" x1="6.55" y1="4.68" x2="6.55" y2="5.91" gradientUnits="userSpaceOnUse"><stop stop-color="#163636"/><stop offset=".8" stop-color="#50747F"/></linearGradient><linearGradient id="ijxhjp4zv" x1="5.78" y1="5.37" x2="5.78" y2="6.45" gradientUnits="userSpaceOnUse"><stop stop-color="#163636"/><stop offset=".8" stop-color="#50747F"/></linearGradient><linearGradient id="jjxhjp4zv" x1="12.21" y1="5.37" x2="12.21" y2="6.49" gradientUnits="userSpaceOnUse"><stop stop-color="#163636"/><stop offset=".8" stop-color="#50747F"/></linearGradient><linearGradient id="kjxhjp4zv" x1="5.28" y1="5.95" x2="5.28" y2="7.28" gradientUnits="userSpaceOnUse"><stop stop-color="#163636"/><stop offset=".8" stop-color="#50747F"/></linearGradient><linearGradient id="ljxhjp4zv" x1="12.7" y1="5.95" x2="12.7" y2="7.31" gradientUnits="userSpaceOnUse"><stop stop-color="#163636"/><stop offset=".8" stop-color="#50747F"/></linearGradient><linearGradient id="mjxhjp4zv" x1="5.42" y1="7.06" x2="5.42" y2="8.16" gradientUnits="userSpaceOnUse"><stop stop-color="#163636"/><stop offset=".8" stop-color="#50747F"/><stop offset="1" stop-color="#5A7777"/></linearGradient><linearGradient id="njxhjp4zv" x1="12.56" y1="7.08" x2="12.56" y2="8.16" gradientUnits="userSpaceOnUse"><stop stop-color="#163636"/><stop offset=".8" stop-color="#50747F"/><stop offset="1" stop-color="#5A7777"/></linearGradient><linearGradient id="ojxhjp4zv" x1="8.54" y1="7.34" x2="8.54" y2="8.03" gradientUnits="userSpaceOnUse"><stop stop-color="#163636"/><stop offset=".8" stop-color="#50747F"/></linearGradient><linearGradient id="pjxhjp4zv" x1="7.53" y1="7.41" x2="7.53" y2="7.6"><stop stop-color="#163636"/></linearGradient><linearGradient id="qjxhjp4zv" x1="8.38" y1="7.5" x2="8.38" y2="8.13" gradientUnits="userSpaceOnUse"><stop stop-color="#163636"/><stop offset=".8" stop-color="#50747F"/></linearGradient><linearGradient id="rjxhjp4zv" x1="8.21" y1="7.66" x2="8.21" y2="8.22" gradientUnits="userSpaceOnUse"><stop stop-color="#163636"/><stop offset="1" stop-color="#5A7777"/></linearGradient><linearGradient id="sjxhjp4zv" x1="8.25" y1="8.01" x2="8.25" y2="8.35" gradientUnits="userSpaceOnUse"><stop stop-color="#163636"/><stop offset="1" stop-color="#5A7777"/></linearGradient><linearGradient id="tjxhjp4zv" x1="5.94" y1="8.2" x2="5.94" y2="9.01" gradientUnits="userSpaceOnUse"><stop stop-color="#163636"/><stop offset=".8" stop-color="#50747F"/></linearGradient><linearGradient id="ujxhjp4zv" x1="12.51" y1="8.2" x2="12.51" y2="9.01" gradientUnits="userSpaceOnUse"><stop stop-color="#163636"/><stop offset=".8" stop-color="#50747F"/></linearGradient><linearGradient id="vjxhjp4zv" x1="5.74" y1="9.05" x2="5.74" y2="9.86" gradientUnits="userSpaceOnUse"><stop stop-color="#163636"/><stop offset=".8" stop-color="#50747F"/></linearGradient><linearGradient id="wjxhjp4zv" x1="12.45" y1="9.1" x2="12.45" y2="9.86" gradientUnits="userSpaceOnUse"><stop stop-color="#163636"/><stop offset=".8" stop-color="#50747F"/><stop offset="1" stop-color="#5A7777"/></linearGradient><linearGradient id="xjxhjp4zv" x1="8.57" y1="9.84" x2="8.57" y2="14.15" gradientUnits="userSpaceOnUse"><stop stop-color="#163636"/><stop offset=".8" stop-color="#50747F"/><stop offset="1" stop-color="#5A7777"/></linearGradient><linearGradient id="yjxhjp4zv" x1="9.44" y1="9.97" x2="9.44" y2="14.16" gradientUnits="userSpaceOnUse"><stop stop-color="#163636"/><stop offset=".8" stop-color="#50747F"/><stop offset="1" stop-color="#5A7777"/></linearGradient><linearGradient id="zjxhjp4zv" x1="12.06" y1="9.92" x2="12.06" y2="10.62" gradientUnits="userSpaceOnUse"><stop stop-color="#163636"/><stop offset=".8" stop-color="#50747F"/></linearGradient><linearGradient id="aajxhjp4zv" x1="5.89" y1="9.97" x2="5.89" y2="10.63" gradientUnits="userSpaceOnUse"><stop stop-color="#163636"/><stop offset=".8" stop-color="#50747F"/></linearGradient><linearGradient id="abjxhjp4zv" x1="8.09" y1="10.18" x2="8.09" y2="13.4" gradientUnits="userSpaceOnUse"><stop stop-color="#163636"/><stop offset=".8" stop-color="#50747F"/><stop offset="1" stop-color="#5A7777"/></linearGradient><linearGradient id="acjxhjp4zv" x1="9.94" y1="10.47" x2="9.94" y2="13.4" gradientUnits="userSpaceOnUse"><stop stop-color="#163636"/><stop offset=".8" stop-color="#50747F"/><stop offset="1" stop-color="#5A7777"/></linearGradient><linearGradient id="adjxhjp4zv" x1="11.58" y1="10.53" x2="11.58" y2="11.33" gradientUnits="userSpaceOnUse"><stop stop-color="#163636"/><stop offset=".8" stop-color="#50747F"/></linearGradient><linearGradient id="aejxhjp4zv" x1="7.57" y1="10.61" x2="7.57" y2="12.7" gradientUnits="userSpaceOnUse"><stop stop-color="#163636"/><stop offset=".8" stop-color="#50747F"/><stop offset="1" stop-color="#5A7777"/></linearGradient><linearGradient id="afjxhjp4zv" x1="6.42" y1="10.6" x2="6.42" y2="11.33" gradientUnits="userSpaceOnUse"><stop stop-color="#163636"/><stop offset=".8" stop-color="#50747F"/></linearGradient><linearGradient id="agjxhjp4zv" x1="10.49" y1="10.88" x2="10.49" y2="12.7" gradientUnits="userSpaceOnUse"><stop stop-color="#163636"/><stop offset=".8" stop-color="#50747F"/><stop offset="1" stop-color="#5A7777"/></linearGradient><linearGradient id="ahjxhjp4zv" x1="10.99" y1="10.87" x2="10.99" y2="12.01" gradientUnits="userSpaceOnUse"><stop stop-color="#163636"/><stop offset=".8" stop-color="#50747F"/></linearGradient><linearGradient id="aijxhjp4zv" x1="7" y1="10.91" x2="7" y2="12" gradientUnits="userSpaceOnUse"><stop stop-color="#163636"/><stop offset=".8" stop-color="#50747F"/></linearGradient></defs></svg>