<!-- by TradingView --><svg width="18" height="18" fill="none" xmlns="http://www.w3.org/2000/svg"><path fill="#F0F3FA" d="M0 0h18v18H0z"/><path fill-rule="evenodd" clip-rule="evenodd" d="M6.032 7l-1.699 3.333L2.623 7H2v4h.467V7.667l1.655 3.318.008.015h.39L6.2 7.667V11h.467V7h-.635zm4.842 2.606c-.257.558-.86.95-1.561.95-.937 0-1.695-.697-1.695-1.556 0-.86.758-1.556 1.695-1.556.717 0 1.33.41 1.577.987l.443-.181C11.01 7.517 10.227 7 9.313 7c-1.204 0-2.18.895-2.18 2s.976 2 2.18 2c.908 0 1.686-.51 2.013-1.234l-.452-.16zm2.793-.828H15.987c.009.073.013.147.013.222 0 1.105-.94 2-2.1 2-1.16 0-2.1-.895-2.1-2s.94-2 2.1-2c.855 0 1.59.487 1.918 1.185l-.429.175a1.64 1.64 0 00-1.489-.916c-.902 0-1.633.697-1.633 1.556 0 .86.73 1.556 1.633 1.556.823 0 1.504-.58 1.617-1.334h-1.85v-.444z" fill="#000"/></svg>