<!-- by TradingView --><svg width="18" height="18" xmlns="http://www.w3.org/2000/svg"><path fill="#FFD500" d="M0 0h18v18H0z"/><path d="M9.002 13.269c-.358 0-.586-.269-.586-.269-.294-.012-2.591-.007-2.591-.007l-.182-2.2s-1.415-.95-1.53-1.06C3.435 6.798 5.89 4 9 4c3.11 0 5.566 2.798 4.886 5.733-.114.11-1.53 1.06-1.53 1.06l-.265 2.2S9.793 12.986 9.5 13c0-.002-.14.269-.498.269z" fill="#ED1C24"/><path d="M9.003 10.084l-.216-5.19c-.261-.052-.93.01-1.288.263l1.04 4.946L7.12 5.36c-.34-.003-1.028.545-1.079.707l2.074 4.208-2.33-3.845c-.228.082-.731.962-.65 1.064l2.595 3.028-2.67-2.585s-.348.504-.123 1.356l1.509 1.038L6.58 12h1.85s.318.305.533.305c.214 0 .5-.305.5-.305h1.851l.243-1.669 1.509-1.037c.227-.854-.122-1.357-.122-1.357l-2.67 2.585 2.597-3.026c.08-.103-.423-.984-.652-1.064l-2.33 3.846 2.074-4.207c-.051-.162-.739-.71-1.078-.707l-1.421 4.742 1.041-4.945c-.358-.254-1.025-.316-1.288-.264l-.215 5.187z" fill="#FCFCFC"/></svg>