<!-- by TradingView --><svg width="18" height="18" xmlns="http://www.w3.org/2000/svg"><path fill="#112369" d="M0 0h18v18H0z"/><path d="M8.776 4.073a4.928 4.928 0 00-4.703 5.148 4.933 4.933 0 109.854-.448 4.928 4.928 0 00-5.151-4.7z" fill="#FEBD5E"/><path d="M8.776 4.006a5.002 5.002 0 00-4.771 5.222 4.995 4.995 0 005.219 4.767 5.006 5.006 0 004.771-5.222 4.995 4.995 0 00-5.219-4.767zm.584 4.848c.889.822 1.377 1.263 1.377 1.263 1.568 1.304 1.032 2.499.435 2.913-.455.313-.964.462-1.622.503-.061.007-.17-.027-.177-.13-.007-.115.163-.142.163-.142 1.48-.292 1.045-1.263.523-1.759-.217-.21-2.274-1.982-2.274-1.982C5.81 7.829 5.973 6.504 5.973 6.504 6.068 4.882 7.487 4.481 8.56 4.57c.129.014.197.088.176.19-.02.116-.19.123-.19.123-.339.02-.644.054-.882.21-.869.584-.61 1.575.543 2.676.142.142.299.285.461.434 0 .014.231.217.693.652zm-.672 4.203c.007.157-.373.231-.815.184-.55-.055-1.208-.231-1.785-.727-.529-.455-.855-1.086-1.01-1.636-.17-.564-.231-1.23.033-1.175.082.013.224.38.38.645.163.272.292.421.414.516.055.04.245-.38.516-.618.156-.129.333-.177.36.217.034.482-.055 1.053.088 1.053.129 0 .428-.102 1.08-.156.243-.02.38.027.148.353-.115.163-.271.394-.638.659.557.522 1.222.461 1.229.685zm.434-5.045a1.67 1.67 0 01-.02-.625c.068-.543.217-.801.387-1.229.224-.57-.326-.903-.231-1.114.122-.285.516.075.95.102.373.02.604.007.896.041.387.054.855.183 1.065.428.19.224-.101.496-.447.326-.258-.122-.577-.048-.387.217.23.251.339.258.57.32.638.17.651.773.217 1.093-.489.36-.984.21-1.188-.496-.102-.353-.346-.53-.604-.428-.25.095-.102.564.088.992.387.984-.57.95-.678.937-.51-.102-.618-.564-.618-.564z" fill="#189BD4"/></svg>