<!-- by TradingView --><svg width="18" height="18" viewBox="0 0 18 18" fill="none" xmlns="http://www.w3.org/2000/svg">
<rect width="18" height="18" fill="#F0F3FA"/>
<path fill-rule="evenodd" clip-rule="evenodd" d="M2.54796 7.30166C2.53385 7.30166 2.5 7.38126 2.5 7.47056C2.5 7.54819 2.5 7.89573 2.93595 8.17529C3.42364 8.82544 4.2958 9.28356 5.32811 9.45936C5.69048 9.52106 6.26029 9.55275 6.68526 9.57638H6.68527H6.68528C6.99787 9.59377 7.2321 9.60679 7.24777 9.6242C7.30533 9.68817 7.3371 9.77274 7.33648 9.86043C7.27484 10.2293 6.65772 10.482 6.31981 10.5141C6.19969 10.5255 6.07864 10.5091 5.96528 10.4662C5.86727 10.1309 5.61771 9.62871 5.2126 9.6294C5.18169 9.8984 5.30143 10.1502 5.49952 10.3225C5.3099 10.2856 5.01649 10.1381 4.70213 9.90509C4.6418 9.58347 4.40617 9.30955 4.10595 9.212C3.95573 9.53428 4.3496 9.91051 4.41894 9.96721L4.39405 9.9605C4.2262 9.9148 3.84856 9.81197 3.58333 10.1849C4.10595 10.4662 4.56421 10.2263 4.68163 10.1381C5.09926 10.3809 5.54507 10.5668 6.00813 10.6914C5.70748 10.7466 5.30215 10.7959 4.98812 10.8083C4.94119 10.6263 4.7781 10.4919 4.5841 10.4919C4.35347 10.4919 4.1665 10.6818 4.1665 10.916C4.1665 11.1501 4.35347 11.34 4.5841 11.34C4.78636 11.34 4.95504 11.194 4.99348 11.0001C5.08103 11.0007 5.1704 11.0036 5.26143 11.0064C5.88619 11.0263 6.58893 11.0486 7.31785 10.3691C7.4473 10.2189 7.5281 10.1252 7.74911 10.2267C7.93446 10.3101 7.79758 10.4193 7.56655 10.6034C7.49105 10.6636 7.4055 10.7318 7.31785 10.8098C7.02648 11.066 6.58663 11.2402 6.28903 11.3581C6.13565 11.4189 6.02006 11.4646 5.98204 11.499C5.76779 11.5281 5.36537 11.6834 5.25732 12.0717C5.81251 12.1785 6.07521 11.7734 6.15904 11.6388C6.4888 11.4446 7.09615 11.2563 7.01604 11.4155C6.89141 11.6578 6.7927 11.9137 6.72168 12.1785C6.38848 12.1785 6.02501 12.3114 5.87771 12.6405C6.24935 12.8086 6.58979 12.5577 6.65647 12.5066C6.53769 12.7967 6.57939 13.1466 6.76266 13.3977C7.19204 13.0675 6.97575 12.5707 6.90176 12.4007L6.90053 12.3979C7.00631 11.6856 7.41512 11.0357 7.99973 10.6506C8.00541 11.0721 8.02848 11.3891 8.04682 11.641C8.09427 12.2929 8.11004 12.5096 7.71096 12.9745C7.39525 12.9745 7.07109 13.3728 7.03281 13.6617C7.50514 13.6617 7.81617 13.2108 7.87304 13.0657C7.9103 13.023 7.95316 12.9725 7.99601 12.9143C7.98483 13.0337 7.98483 13.154 7.99601 13.2734C7.90996 13.4021 7.66276 13.9044 7.96745 14.2667C8.16716 14.162 8.18352 13.9529 8.18956 13.8759C8.1903 13.8664 8.19088 13.859 8.19163 13.8539C8.27063 14.0162 8.40282 14.1436 8.56424 14.2131C8.66146 13.7797 8.3315 13.3636 8.20653 13.2734C8.18732 13.0593 8.20691 12.8433 8.26428 12.6366C8.37125 12.3487 8.37109 11.9438 8.37093 11.5391C8.37064 10.786 8.37034 10.0332 9.05981 10.0332C9.09893 10.1361 9.14551 10.2487 9.19581 10.3691L9.05981 10.9667C8.76936 11.1113 8.4804 11.3592 8.4804 11.7941C8.7729 11.7785 8.97716 11.5649 9.01137 11.5223C9.01018 11.6617 9.01137 11.932 9.2817 12.0676C9.41243 11.9062 9.32824 11.2026 9.24052 11.068C9.28513 10.9391 9.31332 10.8046 9.32436 10.6681C9.44718 10.9518 9.55539 11.2421 9.64853 11.5378C9.71556 11.7958 9.67165 12.2683 9.34858 12.3299C9.01294 12.1848 8.54001 12.3232 8.34626 12.6347C8.84039 12.783 9.12852 12.6344 9.27329 12.5596C9.32338 12.5338 9.35631 12.5168 9.37466 12.524C9.51722 12.5118 9.5945 12.4547 9.67996 12.3916C9.7164 12.3646 9.75433 12.3366 9.79944 12.3105C9.87078 13.017 9.65849 13.7199 9.14399 14.2041C9.08447 14.171 9.01614 14.1521 8.94348 14.1521C8.71284 14.1521 8.52588 14.342 8.52588 14.5762C8.52588 14.8103 8.71284 15.0002 8.94348 15.0002C9.17411 15.0002 9.36108 14.8103 9.36108 14.5762C9.36108 14.5184 9.34971 14.4634 9.32913 14.4132L9.38181 14.3589C9.51847 14.2185 9.69102 14.0412 9.76218 13.9044V13.9045C9.7622 13.9995 9.76224 14.2791 9.97615 14.45C10.2995 14.2408 10.1695 13.5793 10.0006 13.3084C10.0286 13.1997 10.0565 13.0832 10.0808 12.957L10.3211 13.1162C10.2542 13.4389 10.3721 13.7904 10.6173 13.9995C10.7943 13.7711 10.6865 13.3669 10.662 13.3045C10.8955 13.4329 11.184 13.4388 11.4222 13.32C11.1667 12.957 10.6606 12.9433 10.5428 12.9628C10.1663 12.7659 10.1062 12.3703 10.0476 11.9853L10.0476 11.9853L10.0476 11.9853L10.0476 11.9852L10.0476 11.9852L10.0476 11.9852L10.0476 11.9852L10.0476 11.9852L10.0476 11.9852L10.0476 11.9852L10.0476 11.9852C10.0294 11.8653 10.0113 11.7464 9.98388 11.6349C10.1619 11.8962 10.3948 12.1112 10.6644 12.2638C10.6456 12.3121 10.6353 12.3648 10.6353 12.4199C10.6353 12.6541 10.8222 12.8439 11.0529 12.8439C11.2835 12.8439 11.4705 12.6541 11.4705 12.4199C11.4705 12.1857 11.2835 11.9958 11.0529 11.9958C10.9656 11.9958 10.8845 12.023 10.8175 12.0695C10.4313 11.8413 10.108 11.5125 9.87955 11.1146C10.3938 11.4534 10.9908 11.6306 11.5991 11.6252C11.7147 11.6164 11.7677 11.7038 11.7898 11.8399C11.8087 11.9562 11.7894 12.0708 11.7685 12.1942C11.7314 12.414 11.6896 12.662 11.8507 12.9977C12.2585 12.757 12.1445 12.2301 12.1152 12.1086C12.3332 12.2676 12.6211 12.3111 12.8735 12.2231C12.7155 11.7688 12.1496 11.7601 12.0221 11.7688C11.9978 11.695 11.9672 11.6235 11.9308 11.5553C11.7681 11.3391 11.3827 11.2511 10.9734 11.1577C10.5482 11.0606 10.0974 10.9577 9.84415 10.6991C9.87329 10.6452 10.5654 10.7309 10.9595 10.7797L10.9595 10.7797L10.9597 10.7797L10.9597 10.7797L10.9599 10.7797L10.9599 10.7797L10.96 10.7797L10.96 10.7797L10.9601 10.7797L10.9603 10.7798C11.1022 10.7973 11.2053 10.8101 11.2247 10.8098C11.3657 10.8076 11.5052 10.8494 11.6401 10.8899C11.9013 10.9682 12.1453 11.0414 12.3503 10.7798C12.1641 10.41 11.5018 10.5476 11.3371 10.6196C11.0056 10.6571 9.50405 10.3319 9.41243 9.99628C9.53224 9.98153 10.2005 10.0685 10.9868 10.1708C11.75 10.2701 12.6244 10.3839 13.2163 10.4331C13.2163 10.7377 13.7033 10.986 13.9466 11.0117C13.9917 10.6815 13.692 10.4732 13.6223 10.4247L13.615 10.4196C13.8784 10.4505 14.1501 10.3485 14.3341 10.1497C14.0158 9.97004 13.6623 9.98899 13.3616 10.2002C13.0843 10.2061 12.8072 10.1827 12.5344 10.1303C13.0054 10.012 13.4776 9.86086 13.8721 9.56922C14.2139 9.66897 14.6375 9.62067 14.8576 9.30325C14.9397 9.14817 14.3165 9.19381 14.2596 9.21006C14.3833 9.07763 14.5288 8.96135 14.6737 8.84554C14.8506 8.7041 15.0267 8.56334 15.1613 8.39467C15.3718 8.22621 15.4993 7.95549 15.5 7.68099C15.5001 7.63281 15.4965 7.58451 15.4892 7.53657C15.1613 7.68099 14.955 8.16862 14.9489 8.3539C14.872 8.43873 14.7759 8.50214 14.6695 8.53834C14.7308 8.25075 14.8375 7.98573 14.9429 7.72385C15.1268 7.26693 15.3068 6.81955 15.2358 6.27854C15.2569 5.92203 15.1107 5.56325 14.7999 5.37578C14.7214 5.93359 14.9216 6.20163 15.0085 6.29601C15.1038 6.69665 15.0492 7.12006 14.8558 7.48027C14.7719 6.76583 14.6564 6.0708 14.3472 5.51944C14.5557 5.20738 14.4808 4.67542 14.2074 4.4342C14.0528 4.69323 14.0697 5.08242 14.0882 5.14863C13.8117 4.84178 13.3942 4.62121 12.9983 4.50971C12.9684 4.30529 12.7948 4.14844 12.5852 4.14844C12.3546 4.14844 12.1613 4.33828 12.1613 4.57246C12.1613 4.80664 12.3546 4.99649 12.5852 4.99649C12.7692 4.99649 12.9254 4.87562 12.9811 4.7078C13.2498 4.77339 13.5578 4.91563 13.7696 5.08457C13.5388 4.98596 13.3537 5.00904 13.1399 5.09622C13.3317 5.33812 13.7171 5.49407 14.0099 5.35248C14.4218 5.90877 14.5669 6.68857 14.6117 7.37349C14.5443 6.96997 14.3472 6.60234 14.0528 6.33095C14.0381 5.98816 13.8567 5.73373 13.5609 5.57963C13.5078 5.87905 13.5609 6.08633 13.7603 6.28242C13.4925 6.24886 13.3012 6.33949 13.1287 6.51927C13.3741 6.67062 13.6938 6.67062 13.9391 6.51927C15.2358 8.73636 13.0262 9.98931 11.6457 9.88373C11.7436 9.80527 12.025 9.61731 12.1506 9.65659C12.4611 9.74156 12.8073 9.63717 13.0262 9.39256C13.1168 9.24273 12.4629 9.28733 12.4059 9.30519C12.5535 9.15858 12.6386 8.94884 12.6369 8.73636C12.5815 8.4765 11.9421 9.29666 11.9066 9.48963C11.5228 9.67989 10.8614 9.87014 10.4478 9.71871C10.4603 9.67961 10.5853 9.62186 10.7662 9.53832C11.0701 9.39791 11.5319 9.18462 11.8823 8.86449C11.9566 8.80156 12.1303 8.75617 12.3427 8.70066L12.3427 8.70065C12.5077 8.65755 12.696 8.60834 12.8793 8.54006C12.955 8.65938 13.0885 8.73867 13.2375 8.73867C13.4682 8.73867 13.6551 8.54883 13.6551 8.31465C13.6551 8.08047 13.4682 7.89062 13.2375 7.89062C13.0088 7.89062 12.8167 8.07744 12.8136 8.30903C12.634 8.37176 12.4496 8.4186 12.2624 8.44903C12.2947 8.40968 12.3259 8.37121 12.3563 8.33365L12.3563 8.3336C12.6242 8.00282 12.8352 7.7423 13.2722 7.56961C13.5781 7.71842 13.9426 7.69576 14.2111 7.48807C14.0248 7.24228 13.7643 7.26715 13.6816 7.27504L13.6653 7.27646C13.7813 7.14479 13.8475 6.9737 13.8516 6.79499C13.4518 6.73281 13.1926 7.28729 13.1529 7.40653C13.095 7.45178 12.9798 7.49551 12.8868 7.53081C12.8508 7.54449 12.8181 7.55689 12.7934 7.56763C12.9647 7.09989 12.9481 6.58251 12.8607 6.09803C12.9272 6.02293 12.9676 5.92359 12.9676 5.81465C12.9676 5.58047 12.7807 5.39062 12.55 5.39062C12.3194 5.39062 12.1261 5.58047 12.1261 5.81465C12.1261 6.04883 12.3194 6.23867 12.55 6.23867C12.5792 6.23867 12.6076 6.23564 12.6351 6.22987C12.8234 7.27366 11.9824 8.70677 10.69 9.2683C10.7593 9.12684 10.8215 8.98168 10.8763 8.83343C11.1711 8.83343 11.4629 8.51116 11.5278 8.18306C11.1667 8.18306 10.9141 8.44882 10.867 8.51116C10.9295 8.25422 10.8678 7.97115 10.7049 7.7676C10.4478 8.11641 10.5275 8.66408 10.6527 8.86449C10.5626 9.13695 10.3732 9.36152 10.1255 9.48963C9.86203 9.57928 9.59144 9.64425 9.31691 9.68377C9.23538 9.24197 9.37299 7.71206 10.8651 7.61034C10.9831 7.72233 11.8889 7.9471 11.8889 7.62587C11.8889 7.42031 11.2933 7.39584 11.2247 7.40649C11.4337 7.29003 11.587 7.07572 11.6345 6.83378C11.6406 6.62547 10.9272 7.20433 10.8558 7.36378C10.5017 7.38355 10.1545 7.47383 9.83297 7.62975C10.1921 7.1845 10.2874 6.98128 10.4046 6.7312C10.4168 6.70518 10.4292 6.67865 10.4422 6.65129C10.7106 6.08615 11.0726 5.57483 11.5116 5.14087C11.7959 5.34285 12.1609 5.38069 12.4673 5.20494C12.2527 4.81535 11.8029 4.90328 11.6831 4.92671L11.6699 4.92925L11.6872 4.9117C11.803 4.79498 12.1332 4.46212 11.8607 4C11.3676 4.2513 11.3899 4.58404 11.4061 4.82622V4.82623V4.82625V4.82626V4.82627V4.82628V4.8263V4.8263V4.82631V4.82632V4.82633C11.4082 4.85849 11.4103 4.88905 11.411 4.91761C11.205 5.09976 11.025 5.31156 10.8763 5.54662C10.9456 5.34992 10.9748 5.14032 10.962 4.9312C10.9929 4.65915 10.8449 4.36007 10.5912 4.28471C10.4662 4.5207 10.5327 4.84023 10.7403 5.00109C10.8479 5.08737 10.6529 5.8442 10.5149 5.91937C10.5093 5.91203 10.507 5.88128 10.5036 5.83645C10.49 5.65615 10.4593 5.24807 10.1311 5.21853C10.0818 5.20885 10.0313 5.20885 9.98202 5.21853C9.66284 5.25004 9.37286 5.47302 9.24984 5.78153C9.2055 5.99717 10.0117 5.52308 10.0826 5.42626C10.241 5.40296 10.2812 5.42547 10.2532 6.22339C10.2342 6.61638 10.1956 6.67506 10.0291 6.92785C9.94832 7.05059 9.83738 7.2191 9.68393 7.49386C9.66667 7.20295 9.56927 6.9253 9.40585 6.69302C9.41557 6.65712 9.42077 6.61931 9.42077 6.58027C9.42077 6.34609 9.2338 6.15625 9.00317 6.15625C8.77254 6.15625 8.57922 6.34609 8.57922 6.58027C8.57922 6.81446 8.77254 7.0043 9.00317 7.0043C9.09271 7.0043 9.17567 6.97568 9.24366 6.92697C9.54039 7.66529 9.45875 7.82697 9.28946 8.16219C9.23061 8.27874 9.16116 8.41626 9.09334 8.60628C9.03346 8.49357 8.96817 8.38406 8.89772 8.27818C8.78274 8.0411 8.36675 7.7676 7.91781 7.93318C8.13787 8.37619 8.49894 8.37199 8.70425 8.36959L8.71887 8.36943C8.93498 8.54998 8.96293 8.83149 8.9443 9.20035C8.87493 9.15031 8.78454 9.08533 8.69502 9.02751C8.70898 8.98518 8.71655 8.93988 8.71655 8.89277C8.71655 8.65859 8.52958 8.46875 8.29895 8.46875C8.06831 8.46875 7.875 8.65859 7.875 8.89277C7.875 9.12696 8.06831 9.3168 8.29895 9.3168C8.40291 9.3168 8.498 9.27822 8.57109 9.2144C8.80633 9.30467 8.91755 9.47377 8.96479 9.75366C8.669 9.81212 8.36347 9.78458 8.08171 9.67406C7.54887 9.42556 7.25265 8.81013 7.48925 8.31507C7.58781 8.06639 7.71279 7.83001 7.86187 7.61034C8.21294 7.61034 8.52415 7.53272 8.73377 7.22206C8.38287 7.00901 8.05602 7.23954 7.96754 7.30195L7.95688 7.30942C8.06503 7.06348 8.05151 6.76701 7.92148 6.53286C7.48925 6.75245 7.61875 7.303 7.66997 7.47638C7.60476 7.66082 7.46503 7.98503 7.35325 7.83943C7.21352 7.66082 7.13527 6.97356 7.36443 6.51344C7.51191 6.22803 7.75957 6.01308 8.05562 5.91355C8.39179 5.99445 8.68679 5.8868 8.92381 5.63981C8.66047 5.49824 8.33393 5.50271 8.07425 5.65146C7.82694 5.72924 7.60595 5.87872 7.43709 6.08245C7.48707 5.8994 7.56576 5.72621 7.66997 5.56992C7.99911 5.45166 8.23894 5.16741 8.28292 4.81277C7.36443 4.90728 7.08755 6.10702 7.03094 7.05704C6.84182 6.88675 6.68722 6.67883 6.57621 6.44547C6.4652 6.21211 6.40001 5.95801 6.38446 5.69805C6.39766 5.47178 6.44028 5.24842 6.51115 5.03409C6.61638 5.07064 6.72548 5.10089 6.83333 5.1C7.06618 5.09808 7.29326 4.99612 7.46317 4.81665C7.15443 4.62734 6.71423 4.74412 6.62852 4.78947C6.63425 4.78344 6.64129 4.77646 6.64931 4.7685C6.74563 4.67295 6.98416 4.43632 6.81353 4C6.43092 4.12763 6.38535 4.42794 6.3664 4.5528L6.36583 4.5565C6.32445 4.40717 6.11965 4 5.93902 4C5.87695 4.5528 6.14529 4.87843 6.28945 4.98556C6.20685 5.26042 6.17847 5.54986 6.206 5.83645C6.23354 6.12305 6.31642 6.40088 6.44967 6.65323C6.1776 6.47514 5.95478 6.22622 5.80319 5.93102C6.00758 5.64705 6.0116 5.24052 5.83486 4.94285C5.57217 5.18358 5.56984 5.49765 5.57217 5.56216C5.4373 5.38292 5.23105 5.26686 5.01326 5.24765C5.05604 5.61941 5.30767 5.9029 5.65601 6.00674C5.77166 6.31966 5.99925 6.5297 6.2406 6.75245L6.24061 6.75245C6.68356 7.16126 7.17289 7.61286 7.10174 8.82178C6.87041 8.63995 6.70614 8.45624 6.55236 8.28426C6.27268 7.97148 6.02772 7.69752 5.47716 7.54433C5.26328 7.24888 4.87047 7.11866 4.52886 7.22012C4.72635 7.59287 5.09641 7.65784 5.17907 7.66664C4.94639 7.78182 4.77419 8.01442 4.72635 8.27818C5.26972 8.27818 5.40912 7.95395 5.48323 7.78157L5.48324 7.78156L5.48329 7.78145C5.48904 7.76807 5.49439 7.75562 5.49952 7.7443C6.24061 8.27818 6.55959 8.8179 6.65647 9.18871C5.87212 9.26054 4.72635 9.10522 4.62947 9.00039C4.35033 8.62863 4.14741 8.20111 4.03329 7.7443C4.12323 7.2677 4.26441 7.14522 4.39222 7.03433C4.47357 6.96374 4.54951 6.89786 4.60339 6.74836C5.42151 6.57675 5.54537 5.89631 4.8046 6.36784C5.24509 5.53891 4.32681 5.86855 4.41894 6.65129C4.38298 6.72445 4.3044 6.78307 4.21308 6.8512L4.21307 6.8512L4.21307 6.8512L4.21307 6.85121C4.11516 6.92425 4.00261 7.00822 3.91219 7.13275C3.81679 6.44954 3.97105 5.75391 4.34442 5.18358C4.60894 5.29024 4.92204 5.23841 5.14181 5.05156C4.91883 4.90053 4.68121 4.85866 4.41149 4.96032C4.50897 4.7543 4.50109 4.50118 4.391 4.30218C4.1706 4.49357 4.07272 4.74987 4.1339 5.04186C3.8125 5.56992 3.58333 6.18923 3.65137 7.04539C3.65137 7.04539 3.51828 6.8978 3.39148 6.73859C3.47597 6.66099 3.52905 6.5488 3.52905 6.42402C3.52905 6.18984 3.34208 6 3.11145 6C2.88081 6 2.6875 6.18984 2.6875 6.42402C2.6875 6.65821 2.88081 6.84805 3.11145 6.84805C3.15995 6.84805 3.20652 6.83965 3.24982 6.82422C3.4583 7.02372 3.68665 7.28204 3.71471 7.47638C3.8114 7.93159 3.96815 8.37064 4.18047 8.78101C3.83429 8.64518 3.52172 8.43024 3.26571 8.15199C3.45586 7.86833 3.54079 7.54234 3.41103 7.21235C3.30713 7.04995 3.05504 7.76775 3.0496 7.83749C2.99089 7.64833 2.77543 7.30166 2.54796 7.30166ZM5.66967 4.42402C5.66967 4.65821 5.48271 4.84805 5.25207 4.84805C5.02144 4.84805 4.82812 4.65821 4.82812 4.42402C4.82812 4.18984 5.02144 4 5.25207 4C5.48271 4 5.66967 4.18984 5.66967 4.42402Z" fill="#5B5A60"/>
</svg>
