<!-- by TradingView --><svg width="18" height="18" viewBox="0 0 18 18" xmlns="http://www.w3.org/2000/svg"><path fill="#F0F3FA" d="M0 0h18v18H0z"/><path d="M11.6 6.3a.9.9 0 0 1 .55-.27l.06-.02.1-.01a1.13 1.13 0 0 1 .44.1l-.07.04-.12.04c-.25-.03-.43.01-.63.06a3.1 3.1 0 0 1-.33.07Zm1.68-.24c.2.01.39.15.39.37l-.01.01h-.01c-.13-.17-.41-.22-.6-.23h-.02l-.01-.02v-.03c.06-.03.2-.1.26-.1Zm-.35.54c.01.6.03 1.4-.73 1.55v.01c.44.23.87-.5.94-.77.1-.37-.03-.72-.17-1.06l-.01-.04h-.01a.02.02 0 0 0-.02 0v.31Zm-2.66.32.07-.07c.18-.16.35-.32.57-.38.1-.03.2-.02.3 0h.02v.02c-.17 0-.29.12-.4.23h-.01a.6.6 0 0 1-.54.2c-.01 0-.01 0 0 0Zm3.6-.4c.36.1.57.38.58.72v.01h.01c.07 0 .13-.38.11-.43-.08-.26-.37-.33-.69-.33v.01c-.01 0 0 0 0 0v.01Zm-2 1.6c.12-.12.08-.27.03-.43a5.48 5.48 0 0 1-.1-.51c-.03-.22-.06-.44-.14-.65v-.01h.01c.12.1.22.32.29.46l.02.06a2.23 2.23 0 0 1 .13 1.1 3.6 3.6 0 0 0-.13.11c-.15.14-.32.29-.53.32h-.02v-.02l-.01-.02V8.5c.16-.08.3-.22.4-.33l.05-.06Zm1.87-1.44c.14.69-.06 1.5-.98 1.54-.01 0-.01 0 0 0 .2.14.68-.01.86-.14.29-.37.45-1 .19-1.42l-.02-.01h-.03l-.01.01v.02ZM6.91 9.97c.39 0 .72-.14 1.06-.28l.4-.16c.26-.09.55-.1.84-.11l.26-.02h.18c.29-.02.6-.04.83-.18l.12-.09.11-.1h.01l.01.01c-.02.14-.08.21-.21.28l-.06.04c-.14.07-.26.12-.35.28l-.1.17c-.14.24-.29.5-.58.65l-.14.06c-.29.12-.67.29-.73.55l-.03.03v-.01c.04-.37.3-.5.56-.63.2-.1.4-.2.52-.4.04-.07.1-.13.15-.2.1-.1.2-.2.21-.33a6.8 6.8 0 0 0-2.43.52c-.24.09-.47.18-.62.36-.36.43-.8.77-1.33 1-.2.1-.44.12-.67.06-.22-.06-.42-.14-.56-.32a.4.4 0 0 0-.14-.12H4.2c-.41.56-1.42.92-2.06.97-.04 0-.09 0-.13-.02-.01 0-.01 0 0 0a.5.5 0 0 0 .07-.06c.04-.04.08-.08.13-.08a3.62 3.62 0 0 0 1.97-.92c-.17-.45.07-.78.48-1.01l.25-.14c.48-.26 1.04-.56 1.22-1v-.01h.01c.04 0 0 .1-.03.14a7.74 7.74 0 0 1-.82.82c-.28.14-.57.27-.78.48-.19.19-.34.4-.25.66h.01l.04-.02a9.09 9.09 0 0 1 2.3-.75l.15-.03a.02.02 0 0 0 .01-.02c-.13-.21-.04-.44.09-.64.43-.65 1-1.12 1.69-1.53l.92-.54c.12-.07.3-.16.44-.15h.02v.04l-.1.08a63.94 63.94 0 0 1-.5.3c-.82.47-1.68.97-2.21 1.7-.14.2-.21.42-.22.66Zm-2.5.97c.2.29.46.4.81.37.12 0 .27-.05.42-.12a5.7 5.7 0 0 0 1.38-.99.66.66 0 0 0-.2.03.68.68 0 0 1-.18.03c-.59 0-1.08.21-1.6.43l-.62.25Zm6.6-2.82a1.36 1.36 0 0 1 .12.11v.01c-.02.12-.05.3.02.4v.01a.02.02 0 0 0 .02 0l.05-.13c.06-.13.13-.3.08-.4-.04-.1-.23-.18-.38-.24l-.14-.06c-.14-.08-.17-.2-.2-.3-.03-.13-.05-.25-.25-.28h-.01v.01c.03.1.04.2.05.32 0 .1.01.22.05.3.03.1.17.13.31.16.11.02.22.04.28.1Zm3.72.03c0-.14-.02-.28-.05-.42a3.65 3.65 0 0 1-.02-.24h.13c.18.2.22.53-.05.73h-.01v-.07Zm-.2-.58c0-.02-.02-.02-.03-.01l-.42.5c-.17.2-.37.35-.65.33l-.07-.02c-.04-.01-.08-.02-.13-.01h-.01l-.01.01a.02.02 0 0 0 0 .02c.1.15.44.2.58.14.24-.09.41-.38.56-.62l.13-.21a.2.2 0 0 0 .04-.13Zm-1.46 1.56c-.1-.3.24-.41.46-.48h.02c.13.18.4.18.58.06l.13-.1c.13-.1.26-.2.45-.22h.01l.02.01v.01l-.01.02-.18.15c-.23.22-.52.49-.82.42-.06-.01-.1-.07-.15-.13a.4.4 0 0 0-.11-.12.02.02 0 0 0-.02 0l-.37.38h-.01Zm1.79-.62v.08c.01.28-.35.41-.6.5a.68.68 0 0 1-.24.02c-.1 0-.2 0-.3.07v.03c.52.14 1.12.06 1.22-.51.01-.06-.01-.13-.07-.2h-.01Zm-.98.84c.06.55.85.3.9-.1l.01-.01h.02c.21.68-.98.77-1.08.38-.01-.08.06-.23.14-.27Zm-6.55.04c-.24-.06-.24.2-.15.31h.01l.01.01c.06 0 .11-.02.16-.05l.01-.02a.28.28 0 0 0-.02-.23V9.4h-.02Zm2.26 1.22c.12-.14.3-.22.47-.3.32-.16.62-.3.43-.73a.04.04 0 0 1 0-.04l.02-.02h.02l.06-.02h.01l.01.01v.04l.01.02c.07.2.12.36.02.52a1.3 1.3 0 0 1-.4.35l-.1.06c-.16.1-.34.2-.43.33a12.84 12.84 0 0 1-.24.31l.01-.13c.01-.14.02-.3.1-.4Zm3.63-.34-.2.18c-.19.18-.42.53-.3.78s.4.16.61.08v-.01a.8.8 0 0 1-.05-.04c-.06-.04-.1-.07-.16-.05l-.07.02c-.08.02-.14.05-.2 0v-.02c0-.24.18-.43.36-.6.14-.14.22-.3.31-.45l.13-.23.07-.09.04-.04v-.02h-.03c-.15.18-.34.34-.51.5Zm1.14 1.32c.35-.16.39-.64.4-.96v-.18c0-.16 0-.35-.02-.5 0-.02 0-.02.01-.01.04.02.08.07.11.13.17.33.18.68.05 1.05-.1.26-.22.5-.54.5h-.01v-.02Zm-1.11 0c.01.27.32.43.58.31.45-.2.42-1 .33-1.36l-.01-.05c-.01-.06-.02-.12-.07-.17h-.01a2.7 2.7 0 0 0-.11.95c0 .16 0 .25-.13.39-.24.24-.4.11-.57-.08h-.01Z" fill="#047832"/></svg>