<!-- by TradingView --><svg width="18" height="18" viewBox="0 0 18 18" fill="none" xmlns="http://www.w3.org/2000/svg">
<rect width="18" height="18" fill="#EE1B22"/>
<path fill-rule="evenodd" clip-rule="evenodd" d="M7.36338 4H8V5C6.6204 5 6 6.31183 6 7.6828C6 10.2634 9 9.95204 9 10.9198C9 11.3633 8.42647 11.5 8.15299 11.5C6.73801 11.5 6.84188 10.25 6.25924 10.25C6.04521 10.25 5.76471 10.4328 5.76471 10.9973C5.76471 12.9059 6.72771 13 8 13V14C7.41176 14 7.51755 14 7.03216 14C5.5934 13.8656 4.00003 13.1129 4.00003 11.621V6.36559C3.98814 3.97312 6.61427 4.12097 7.36338 4Z" fill="#F0F3FA"/>
<path fill-rule="evenodd" clip-rule="evenodd" d="M10 4.00003H10.2405C11.1323 4.17476 14 3.8253 14 6.28498V11.7285C14 13.2473 12.478 14 11.1225 14H10V13C11.3199 13 12 11.9759 12 10.4437C12 7.86302 9 8.05379 9 6.89788C9 6.61562 9.35953 6.50003 9.71625 6.50003C10.6199 6.50003 10.7658 7.75003 11.4079 7.75003C11.6932 7.75003 12 7.46777 12 6.9839C12 6.29576 11.3416 4.98937 11 5.00003C10.9613 5.00124 10.9267 5.01588 10.8976 5.04598C10.6361 5.32824 10.2941 5.00003 10 5.00003V4.00003Z" fill="#F0F3FA"/>
</svg>
