<!-- by TradingView --><svg xmlns="http://www.w3.org/2000/svg" width="18" height="18"><path fill="#E30613" d="M0 0h18v18H0z"/><path d="M15 7.42a1.42 1.42 0 11-2.84 0 1.42 1.42 0 012.84 0zm-1 2.55a.76.76 0 11-1.53 0 .76.76 0 011.53 0zM9.63 12a.63.63 0 100-1.26.63.63 0 000 1.26zM5.8 8.78a.63.63 0 11-1.27 0 .63.63 0 011.27 0zm5.46.92a.9.9 0 100-1.8.9.9 0 000 1.8zm-3.02-.54a.79.79 0 11-1.58 0 .79.79 0 011.58 0zm3.32 2.41a.67.67 0 100-1.33.67.67 0 000 1.33zM10.11 9.8a.64.64 0 11-1.29 0 .64.64 0 011.29 0zm-2.37 1.9a.63.63 0 100-1.27.63.63 0 000 1.27zm-1.22-1.55a.62.62 0 11-1.24 0 .62.62 0 011.24 0zm-2.9.27a.62.62 0 100-1.25.62.62 0 000 1.25z" fill="#fff"/></svg>