<!-- by TradingView --><svg xmlns="http://www.w3.org/2000/svg" width="18" height="18"><path fill="url(#atn4ddu2n)" d="M0 0h18v18H0z"/><path d="M6 12h.6c.15-.02.49-.12.65-.7l1.67-5.33C9.1 5.13 9.96 4.03 11.2 4h.8v2h2v6h-2V6h-.6c-.2 0-.5.16-.68.76-.17.6-1.15 3.74-1.62 5.23-.25.78-.9 1.93-2.5 2.01H6v-2zM4 6h2v6H4V6z" fill="#fff"/><defs><linearGradient id="atn4ddu2n" x1="3.35" y1="3.12" x2="21.9" y2="24.43" gradientUnits="userSpaceOnUse"><stop stop-color="#1A1E21"/><stop offset="1" stop-color="#06060A"/></linearGradient></defs></svg>