<!-- by TradingView --><svg width="18" height="18" viewBox="0 0 18 18" xmlns="http://www.w3.org/2000/svg"><path fill="#F0F3FA" d="M0 0h18v18H0z"/><path d="m5 9 4-7 4 7-4 7-4-7Z" fill="#751A2A"/><path d="m10.97 6.97-1.07.57L9 6.2l-.54.84 2.54 3.9L9 14l-1.97-2.99 1.1-.53.87 1.3.55-.83L7 7.05 9 4l1.97 2.97Z" fill="#A09E9D"/><path d="M9.01 13.99V14l-1.98-2.99.53.13L9 13.34V14Z" fill="#696969"/><path d="M8.11 10.48h.01l.88 1.3v.67l-1-1.53.11-.44Z" fill="#BCBCBC"/><path d="M9 11.78v.68l.99-1.5h-.44l-.55.82Z" fill="#7D7D7D"/><path d="M9.55 10.96 7 7.04h.44L10 10.96h-.45Z" fill="#696969"/><path d="M9 4v.67L7.44 7.05H7L9 4Z" fill="#7D7D7D"/><path d="m8.46 7.06 2.54 3.9h-.43l-2.55-3.9h.44ZM9 4v.67l1.45 2.19.52.1L9 4Z" fill="#BCBCBC"/><path d="m9.9 7.54 1.07-.57-.52-.11-.43.23-.12.45Z" fill="#828283"/><path d="M9.9 7.54 9 6.2v.02-.68l1.02 1.53-.12.46Z" fill="#696969"/><path d="m9 6.23-.54.82h-.45L9 5.55v.68Z" fill="#979797"/></svg>