<!-- by TradingView --><svg xmlns="http://www.w3.org/2000/svg" width="18" height="18"><path fill="#F0F3FA" d="M0 0h18v18H0z"/><path d="M7.64 9.53c.45-2.26 5.1-2.04 7.23-1.61v.26c-1.96-.28-3.62 0-4.34.63-.55.47 0 1.25.27 1.62.77 1.04.62 1.7.45 1.9-1.19 1.56-4.22 1.71-5.59 1.6l-.44-.35c2.38-.33 3.24-1.05 3.37-1.37.11-.17.2-.68-.34-1.4-.55-.73-.64-1.12-.6-1.28z" fill="url(#anglmem0c)"/><path fill-rule="evenodd" d="M14.5 9c0 3.13-2.37 5.5-5.5 5.5a5.38 5.38 0 01-5.09-3.34L4 11.1c1.5-1.32 3.66-3.2 6.3-3.8 1.4-.3 3.03-.06 4 .18.13.48.2.98.2 1.51zm-.27-1.75A5.35 5.35 0 009 3.53 5.36 5.36 0 003.5 9c0 .37.03.73.1 1.08 1.66-1.89 4.62-5.3 5.37-6.37.34.41 1.44 1.46 3.17 2.37 1 .52 1.67.91 2.1 1.17zM15 9A6 6 0 113 9a6 6 0 0112 0z" fill="url(#bnglmem0c)"/><defs><linearGradient id="anglmem0c" x1="14.87" y1="8.03" x2="5.22" y2="12.23" gradientUnits="userSpaceOnUse"><stop stop-color="#D7A955"/><stop offset=".56" stop-color="#EBBD68"/><stop offset="1" stop-color="#8E5F28"/></linearGradient><linearGradient id="bnglmem0c" x1="10.2" y1="4.34" x2="3" y2="16.01" gradientUnits="userSpaceOnUse"><stop stop-color="#CACACA"/><stop offset=".5" stop-color="#393838"/></linearGradient></defs></svg>