<!-- by TradingView --><svg width="18" height="18" viewBox="0 0 18 18" xmlns="http://www.w3.org/2000/svg"><path fill="#F0F3FA" d="M0 0h18v18H0z"/><path d="M5.92 7.1c.2.14.3.33.33.58h.97c0-.33-.09-.62-.26-.87s-.4-.45-.71-.6C5.95 6.08 5.6 6 5.2 6c-.39 0-.74.07-1.05.22-.3.14-.55.34-.73.6-.18.26-.27.56-.27.9 0 .42.13.75.4 1 .27.26.63.44 1.1.57l.63.17c.2.05.37.11.52.18.16.07.27.15.36.25.08.1.12.22.13.38 0 .16-.05.3-.15.43a.94.94 0 0 1-.4.3c-.16.06-.35.1-.57.1-.22 0-.4-.04-.58-.1a.96.96 0 0 1-.41-.3c-.1-.14-.17-.37-.18-.57H3c.01.38.11.77.29 1.04s.43.48.75.62.7.21 1.13.21c.45 0 .84-.07 1.15-.22.32-.14.56-.34.73-.6.17-.26.25-.56.25-.9a1.46 1.46 0 0 0-.5-1.14 2.13 2.13 0 0 0-.54-.34c-.2-.09-.4-.15-.6-.2l-.53-.14a3.23 3.23 0 0 1-.34-.1c-.12-.05-.22-.1-.31-.16a.6.6 0 0 1-.3-.54c0-.15.04-.28.12-.4.08-.11.2-.2.35-.27.15-.06.33-.1.54-.1.3 0 .55.07.73.21ZM9 6v6H8V6h1Zm1 0h1.06l1.41 4.3h.06L13.94 6H15v6h-1V8.3L12.81 12h-.62L11 8.3V12h-1V6Z"/></svg>