<!-- by TradingView --><svg width="18" height="18" xmlns="http://www.w3.org/2000/svg"><path fill="url(#paint0_linear)" d="M0 0h18v18H0z"/><path d="M13.999 7.75H4v3.899L9 14l4.999-2.306V7.75z" fill="#fff"/><path d="M12.571 8.688v3.673L14 11.707 13.998 6 9 8v6l1.428-.656v-3.77a.308.308 0 01-.226-.292c0-.164.169-.299.392-.299s.397.157.397.314c0 .094-.107.221-.204.276v3.607l1.427-.656V8.688c-.126-.047-.215-.168-.215-.286 0-.164.183-.304.406-.304.223 0 .377.14.377.304 0 .11-.103.231-.21.286z" fill="#007BC6"/><path d="M4.001 9.732l2.96 1.228a.41.41 0 01.223-.063c.198 0 .325.155.325.319s-.127.276-.325.276c-.18 0-.327-.11-.361-.243L4 10.07v1.712L8.999 14V9.868L6.074 8.691c-.06.031-.129.072-.206.072-.198 0-.336-.131-.336-.295 0-.164.138-.3.336-.3.189 0 .31.123.318.271l2.813 1.134V8L4.001 6v3.732z" fill="#005197"/><path d="M4.001 6l4.998-2 5 2-5 2-4.998-2z" fill="#22B2E9"/><defs><linearGradient id="paint0_linear" x1="3.349" y1="3.122" x2="21.904" y2="24.434" gradientUnits="userSpaceOnUse"><stop stop-color="#1A1E21"/><stop offset="1" stop-color="#06060A"/></linearGradient></defs></svg>