<!-- by TradingView --><svg xmlns="http://www.w3.org/2000/svg" width="18" height="18"><path fill="url(#a4rvfxwem)" d="M0 0h18v18H0z"/><path d="M9.67 12.27v-2.1l1.87-1.06 1.86 1.05v2.11l-1.86 1.05-1.87-1.05zM3.6 8.84v-2.1l1.86-1.06 1.87 1.05v2.12L5.46 9.89 3.6 8.84zm4.04 0v-2.1l1.87-1.06 1.87 1.05v2.11L9.51 9.89 7.64 8.85zm1.87-3.52l-2 1.15-2.05-1.15-2.18 1.23v2.47l2.18 1.23 2.05-1.14 1.85 1.05v2.29l2.18 1.23 2.18-1.23V9.99l-2.03-1.15V6.55L9.51 5.32z" fill="#BEB51B"/><path d="M9.36 12.45v-2.29L7.5 9.11l-2.05 1.14-2.18-1.23V6.55l2.18-1.23L7.5 6.47l2-1.15 2.18 1.23v2.29l2.02 1.14v2.47l-2.18 1.23-2.17-1.23zm2.62-3.77L14 9.82v2.79L11.54 14l-2.47-1.4v-2.28l-1.56-.88-2.05 1.13L3 9.18V6.39L5.46 5l2.05 1.14 2-1.14 2.46 1.4v2.28zM9.95 12.1l1.59.89 1.58-.9v-1.78l-1.58-.89-1.59.9v1.78zm-.28-1.95v2.1l1.87 1.06 1.86-1.05v-2.1L11.54 9.1l-1.87 1.05zM3.88 8.68l1.58.9 1.59-.9V6.9L5.46 6l-1.58.9v1.78zM3.6 6.73v2.11l1.86 1.05 1.87-1.04V6.73L5.46 5.68 3.6 6.73zM7.93 8.7l1.58.88 1.59-.9V6.9L9.5 6l-1.58.9v1.78zm-.29-1.96v2.12L9.51 9.9l1.87-1.05v-2.1L9.51 5.67 7.64 6.73z" fill="#BEB51B"/><path fill="#F1F1F1" d="M4.68 7.03h1.54v1.48H4.68zm4.01 0h1.55v1.48H8.69zm2.06 3.38h1.55v1.48h-1.55z"/><defs><linearGradient id="a4rvfxwem" x1="3.35" y1="3.12" x2="21.9" y2="24.43" gradientUnits="userSpaceOnUse"><stop stop-color="#1A1E21"/><stop offset="1" stop-color="#06060A"/></linearGradient></defs></svg>