<!-- by TradingView --><svg xmlns="http://www.w3.org/2000/svg" width="18" height="18"><path fill="#F0F3FA" d="M0 0h18v18H0z"/><path d="M6.07 12c0 .3-.24.55-.53.55A.54.54 0 015 12c0-.3.24-.55.54-.55.3 0 .53.25.53.55z" fill="#1B4A75"/><path d="M10.1 6.53a.5.5 0 01-.5.5.5.5 0 01-.48-.5c0-.28.22-.5.49-.5a.5.5 0 01.48.5z" fill="#D5DA18"/><path d="M5.59 6.44c0 .25-.2.46-.44.46a.45.45 0 01-.45-.46c0-.25.2-.45.45-.45.24 0 .44.2.44.45zM6.48 5c0 .18-.14.33-.32.33a.33.33 0 01-.33-.34c0-.18.15-.33.33-.33.18 0 .32.15.32.33z" fill="#14A8BF"/><path d="M9.62 5c0 .21-.17.39-.38.39a.39.39 0 01-.39-.4.4.4 0 01.39-.39.4.4 0 01.38.4z" fill="#D5DA18"/><path d="M6.3 5.02h2.67" stroke="#D5DA18" stroke-width=".2"/><path d="M6.3 5.02h1.66" stroke="#14A8BF" stroke-width=".2"/><path d="M5.42 6.48h3.85" stroke="#D5DA18" stroke-width=".22"/><path d="M5.42 6.48h2.02" stroke="#14A8BF" stroke-width=".22"/><path d="M5.15 10.03c.01.3-.22.56-.5.57a.54.54 0 01-.56-.53.54.54 0 01.5-.56c.3-.01.55.22.56.52z" fill="#0F748E"/><path d="M8.8 9.62a.3.3 0 01-.28.32.3.3 0 01-.3-.3.3.3 0 01.28-.31c.16 0 .3.12.3.3z" fill="#D5DA18"/><path d="M4.81 10l3.83-.37" stroke="#D5DA18" stroke-width=".2"/><path d="M4.81 10l1.68-.16" stroke="#0F748E" stroke-width=".2"/><path d="M5.13 8.12a.5.5 0 01-.5.51.5.5 0 01-.5-.51.5.5 0 01.5-.52c.27 0 .5.23.5.52z" fill="#0F748E"/><path d="M9.8 8.1c0 .24-.19.43-.42.43a.42.42 0 01-.41-.42c0-.24.18-.43.41-.43.23 0 .42.2.42.43z" fill="#D5DA18"/><path d="M5.12 8.1H9" stroke="#D5DA18" stroke-width=".22"/><path d="M5.12 8.1h1.81" stroke="#0F748E" stroke-width=".22"/><path d="M10.1 5.15a4 4 0 11-3.25 7.23l-.57.81a5 5 0 103.07-9.18l.75 1.14z" fill="#1B4A75"/></svg>