<!-- by TradingView --><svg width="18" height="18" viewBox="0 0 18 18" xmlns="http://www.w3.org/2000/svg"><path fill="#181B1E" d="M0 0h18v18H0z"/><path d="M7 7.67c0-.93.07-1.5.11-1.67 0 .28.19.7.56 1.08C8.7 7.92 9 8.2 9 8.55c0 .34-.63.45-1.11.45.3-.23-.78-1.16-.89-1.33ZM15 6.75V7.9c-.16.03-.58.1-.92.1-.8-1.34-2.82-1.53-3.72-1.46L10 6.12c-.43 0-.99.26-1.25.42-.2.12-.2.3-.16.36-.2-.15-.59-.53-.59-.78 0-.5 1.33-.95 2-1.12l.52.5c.12-.04.41-.1.62-.1 1.67 0 2.66 1 2.94 1.5l.92-.15ZM3 10.5V9c.48.98 1.58 3 4.7 3 3.31 0 4.25-1.5 4.3-2.34v-.14V11.26c0 .23-.61 1.74-4.23 1.74C4.9 13 3.4 11.34 3 10.5Z" fill="#fff"/><path d="M5 9.9V8.69a3.7 3.7 0 0 0 2.95 1.3c1.2 0 1.82-.64 1.82-1s-.15-.6-.15-.99c1 .88 1.38 1.46 1.38 1.76 0 .3-.38.52-.6.69.19-.41-.21-.71-.43-.88.02.52-.1 1.43-2.02 1.43-1.53 0-2.6-.73-2.95-1.1Z" fill="#fff"/></svg>