<!-- by TradingView --><svg width="18" height="18" viewBox="0 0 18 18" xmlns="http://www.w3.org/2000/svg"><path fill="#F0F3FA" d="M0 0h18v18H0z"/><path d="M6.63 12.42c-.21 0-.32-.27-.34-.28l-1.32-.29c.14.37.55 1.1 1.14 1.1 1.81 0 5.19-4.3 6.65-6.45a4.94 4.94 0 0 0-2.2-2.5c-2.05 6.18-3.71 8.42-3.93 8.42Z" fill="url(#a4bompuln)"/><path d="m6.58 12.1-1.62-.41c-.32-.33-.5-.98-.54-1.27l1.67 1.05c.07.23.36.52.5.63Z" fill="url(#b4bompuln)"/><path d="M6.75 11.6 4.1 9.97a10 10 0 0 1-.08-2.12l2.14 2.72c-.05.43.38.86.6 1.03Z" fill="url(#c4bompuln)"/><path d="M7.24 11.23a28.12 28.12 0 0 1-2.09-5.57 5.03 5.03 0 0 0-.68 2.4l2.56 3.45.21-.28Z" fill="url(#d4bompuln)"/><path d="m9.72 10.64-.33.42c.03-.04 2.3-1.31 3.9-2.46a5.95 5.95 0 0 0-.31-1.97 29.2 29.2 0 0 1-3.26 3.79v.22Z" fill="url(#e4bompuln)"/><path d="m14 8.44-4.22 2.58c-.1.43-.42.54-.56.54 1.63.05 3.58-.45 4.35-.7.35-.57.43-1.85.43-2.42Z" fill="url(#f4bompuln)"/><path d="M9.67 11.77c-.22.31-.68.33-.88.3.42.21 1.68.7 3.35.88a3.38 3.38 0 0 0 1.15-1.77c-.75.25-2.72.5-3.62.59Z" fill="url(#g4bompuln)"/><path d="M12 13.15c-1.1-.15-2.19-.55-2.6-.73-.6.55-1.23.08-1.46-.23l-.13.17c.64.75 1.67 1.64 2.6 1.64.73 0 1.37-.56 1.59-.85Z" fill="url(#h4bompuln)"/><defs><linearGradient id="a4bompuln" x1="5.22" y1="12.77" x2="9.9" y2="4.32" gradientUnits="userSpaceOnUse"><stop stop-color="#048DD9"/><stop offset=".11" stop-color="#004297"/><stop offset=".53" stop-color="#2DA5DF"/><stop offset="1" stop-color="#19318D"/></linearGradient><linearGradient id="b4bompuln" x1="4.76" y1="11.06" x2="6.22" y2="11.03" gradientUnits="userSpaceOnUse"><stop stop-color="#0392DC"/><stop offset="1" stop-color="#163591"/></linearGradient><linearGradient id="c4bompuln" x1="3.77" y1="9.72" x2="6.25" y2="9.72" gradientUnits="userSpaceOnUse"><stop stop-color="#019CE5"/><stop offset="1" stop-color="#143F99"/></linearGradient><linearGradient id="d4bompuln" x1="3.9" y1="6.78" x2="7.05" y2="11.12" gradientUnits="userSpaceOnUse"><stop stop-color="#0296E0"/><stop offset="1" stop-color="#182C8A"/></linearGradient><linearGradient id="e4bompuln" x1="13.35" y1="8.03" x2="9.69" y2="9.04" gradientUnits="userSpaceOnUse"><stop stop-color="#182C8A"/><stop offset="1" stop-color="#23A6E2"/></linearGradient><linearGradient id="f4bompuln" x1="13.55" y1="9.13" x2="9.87" y2="10.26" gradientUnits="userSpaceOnUse"><stop stop-color="#19318D"/><stop offset="1" stop-color="#2DA7E0"/></linearGradient><linearGradient id="g4bompuln" x1="9.05" y1="12.06" x2="13.09" y2="11.74" gradientUnits="userSpaceOnUse"><stop offset=".13" stop-color="#10A2E6"/><stop offset="1" stop-color="#182C8A"/></linearGradient><linearGradient id="h4bompuln" x1="7.76" y1="12.64" x2="9.98" y2="11.66" gradientUnits="userSpaceOnUse"><stop offset=".42" stop-color="#153995"/><stop offset="1" stop-color="#019AE3"/></linearGradient></defs></svg>