<!-- by TradingView --><svg width="18" height="18" viewBox="0 0 18 18" xmlns="http://www.w3.org/2000/svg"><path fill="#F0F3FA" d="M0 0h18v18H0z"/><path d="m14 12.98-2.4-4.77c-1.64.04-4.08.27-4.02.64.06.41 3 .84 3.69 2.48.26.62.3 1.17.2 1.67H14v-.02Zm-6.87-4.2c.11-.55 3.29-.66 4.43-.67L9 3l-5 9.98h1.06c.88-.14 4.67-.83 4.36-2.03-.3-1.06-2.44-1.35-2.29-2.17Z" fill="url(#adit0hglr)"/><defs><linearGradient id="adit0hglr" x1="5.18" y1="502.56" x2="1003.98" y2="502.56" gradientUnits="userSpaceOnUse"><stop stop-color="#E7A614"/><stop offset=".25" stop-color="#E2A218"/></linearGradient></defs></svg>