<!-- by TradingView --><svg width="18" height="18" fill="none" xmlns="http://www.w3.org/2000/svg"><path fill="#F0F3FA" d="M0 0h18v18H0z"/><path fill-rule="evenodd" clip-rule="evenodd" d="M4.75 10.264a1.6 1.6 0 0 0 1.196.488c.29.003.577-.07.837-.21.418.236.87.397 1.336.476a3.028 3.028 0 0 1-.996.726 2.82 2.82 0 0 1-1.177.25 2.727 2.727 0 0 1-2.043-.834A3.225 3.225 0 0 1 3 9.002c.011-.407.097-.808.251-1.18.155-.371.375-.706.649-.985.273-.279.595-.496.946-.64.351-.143.725-.21 1.1-.195a2.743 2.743 0 0 1 1.938.741c.54.498.896 1.161.994 1.924a2.035 2.035 0 0 1-1.431-.54 1.817 1.817 0 0 0-.646-.649 1.64 1.64 0 0 0-.855-.225 1.596 1.596 0 0 0-1.197.486 1.887 1.887 0 0 0-.53 1.263c.017.48.208.934.531 1.262Zm5.373-3.503a2.726 2.726 0 0 1 1.931-.742 2.709 2.709 0 0 1 2.04.826A3.23 3.23 0 0 1 15 9.002c-.012.408-.098.81-.253 1.181a3.108 3.108 0 0 1-.65.985 2.814 2.814 0 0 1-.945.637c-.351.143-.724.208-1.098.193a2.813 2.813 0 0 1-1.176-.255 3.032 3.032 0 0 1-.993-.733 4.029 4.029 0 0 0 1.327-.486c.26.15.549.228.842.228.44.015.868-.16 1.19-.488.323-.328.513-.782.53-1.262a1.89 1.89 0 0 0-.528-1.263 1.586 1.586 0 0 0-1.192-.486 1.629 1.629 0 0 0-.845.228c-.26.153-.479.376-.638.646-.396.383-.897.542-1.426.54.098-.763.44-1.408.978-1.906ZM12 9.002v-.975h-.03c-.202.844-1.44 1.64-2.963 1.64-1.522 0-2.775-.796-2.977-1.645H6v.98c.011.186.06.367.14.528.081.161.194.3.328.404.594.482 1.292.672 2.018.725.08 0 .163.005.245.01.085.006.17.011.257.011.172 0 .35 0 .518-.021.727-.041 1.43-.221 2.03-.695a1.18 1.18 0 0 0 .331-.418c.08-.167.126-.353.133-.544Zm-2.947-.676a.067.067 0 0 1-.043 0 .067.067 0 0 1-.05.004 3.854 3.854 0 0 0-.653-1.571 3.24 3.24 0 0 1 .703-.092c.23.005.458.036.683.092-.32.451-.54.99-.64 1.567Z" fill="#D92E27"/></svg>