<!-- by TradingView --><svg width="18" height="18" viewBox="0 0 18 18" xmlns="http://www.w3.org/2000/svg"><path fill="#F0F3FA" d="M0 0h18v18H0z"/><path d="M5.73 8.25c-1.61 0-3.16.83-3.73 1.25.73-.17 2.55-.5 4.04-.5 1.87 0 2.5 1 5.6 1 2.5 0 3.95-1.33 4.36-2-.73.42-2.43 1.25-3.42 1.25-1.25 0-4.82-1-6.85-1Z" fill="#255888"/><path d="M2 10.64c.19.06.73.18 1.4.18.85 0 2.4-.91 3.24-1.64C7.48 8.45 9.04 7 10.16 7c.2 0 .55.2.73.3.08.03.11.06.11.06l-.11-.06a1.82 1.82 0 0 0-.73-.12c-.85 0-1.97 1.82-3.1 2.55A7.88 7.88 0 0 1 3.41 11C2.42 11 2 10.64 2 10.64Z" fill="#AC162C"/><path d="M8.72 9.36A7 7 0 0 1 5 10.8c1.93.54 3.03-.18 4.14-.9 1.1-.73 2.26-2.73 3.03-2.73.35 0 .6.12.83.18a1.91 1.91 0 0 0-.83-.36c-1.1 0-1.93 1.09-3.45 2.36Z" fill="#AC162C"/><path d="M8.92 10.82c-.73.05-.92 0-.92 0 .1.06.43.18.92.18.62 0 2-.18 3.39-1.45.7-.66 2.46-2.37 2.92-2.37.37 0 .67.12.77.18-.37-.29-.67-.36-.77-.36-1.7 0-3.85 3.64-6.3 3.82Z" fill="#3CA1D1"/></svg>