<!-- by TradingView --><svg width="18" height="18" viewBox="0 0 18 18" xmlns="http://www.w3.org/2000/svg"><path fill="#F0F3FA" d="M0 0h18v18H0z"/><path d="M8.45 8.6v-.46H7.9L6.82 9.41V7H6v4h.82v-.67l.42-.43.8 1.1H9L7.76 9.42l.7-.82Z" fill="#181A43"/><path d="m11.19 7-.34 1.15L10.48 7H8v.6h1.82l.36 1.2h.49l-.2.6H9.44v.6h.66c.82 0 1.07-.38 1.3-1.12L12 7h-.81ZM13.54 9.42c-.4 0-.59-.17-.64-.7h2.09V8.5c0-.8-.39-1.5-1.46-1.5C12.48 7 12 7.68 12 8.5c0 .79.42 1.5 1.53 1.5 1.02 0 1.38-.45 1.46-.9h-.8c-.08.2-.28.32-.65.32Zm0-1.82c.42 0 .63.17.66.6h-1.3c.07-.48.24-.6.64-.6ZM3.84 10c.03.26.25.48.72.48.41 0 .54-.13.54-.33 0-.17-.07-.3-.42-.33l-.7-.08c-.58-.07-.9-.35-.9-.82 0-.63.59-.92 1.41-.92.85 0 1.41.28 1.47.9h-.87c-.03-.23-.21-.38-.6-.38-.4 0-.59.14-.59.32 0 .14.11.25.43.29l.65.06c.74.09 1.02.37 1.02.88 0 .55-.39.93-1.46.93-1.1 0-1.52-.47-1.54-1h.84ZM16 7h-.56v.57H16V7Z" fill="#181A43"/></svg>