<!-- by TradingView --><svg width="18" height="18" viewBox="0 0 18 18" xmlns="http://www.w3.org/2000/svg"><path fill="#F93822" d="M0 0h18v18H0z"/><path d="m9.7 8.14-1.45-.3c-.95-.23-1.8-.88-1.8-1.97 0-1.3 1.35-1.49 2.36-1.49.57 0 1.1.1 1.27.33L12.85 7H13l-1-2.62c-.9-.25-1.98-.37-2.91-.38C7 4 5 5.03 5 6.77c0 1.47 1.24 2.39 2.95 2.76l1.28.3c1.14.27 2.13.86 2.13 2.05 0 1.37-1.35 1.76-2.57 1.76-.63 0-1.05-.11-1.26-.44L5.15 10H5l.66 3.64c1 .25 2.02.37 3.05.36 2.64 0 4.29-1.24 4.29-2.96 0-1.62-1.51-2.48-3.3-2.9Z" fill="#fff"/></svg>