<!-- by TradingView --><svg width="18" height="18" viewBox="0 0 18 18" xmlns="http://www.w3.org/2000/svg"><path fill="#F0F3FA" d="M0 0h18v18H0z"/><path fill-rule="evenodd" d="M9 14A5 5 0 1 0 9 4a5 5 0 0 0 0 10Zm0 1A6 6 0 1 0 9 3a6 6 0 0 0 0 12Z" fill="#132545"/><path fill-rule="evenodd" d="M9 12.96a3.96 3.96 0 1 0 0-7.92 3.96 3.96 0 0 0 0 7.92Zm0 .5a4.46 4.46 0 1 0 0-8.92 4.46 4.46 0 0 0 0 8.92Z" fill="#069BD6"/><path d="M7.07 7.76h.38v.54H7.2c-.05 0-.1.04-.1.1v.42l.8.17c.48.07.65.4.68.57v.55c0 .3-.24.54-.54.54h-.37v-.56h.2c.06 0 .1-.04.1-.09v-.44l-.8-.17c-.49-.09-.63-.39-.65-.53V8.3c0-.3.24-.54.54-.54Zm.38 2.33H7.2a.09.09 0 0 1-.1-.09v-.17h-.58v.28c0 .3.24.54.54.54h.38v-.56Zm.5-1.79h-.27v-.54h.37c.3 0 .54.24.54.54v.29h-.54v-.2a.09.09 0 0 0-.1-.09Z" fill="#132545"/><path d="M10.88 10.65h.59L9.89 5.7h-.5l1.12 3.71h-.44l-.14.52h.74l.21.72ZM8.59 12.3l1.35-4.48.26.85-1.04 3.63h-.57Z" fill="#069BD6"/></svg>