<!-- by TradingView --><svg width="18" height="18" xmlns="http://www.w3.org/2000/svg"><path fill="#004483" d="M0 0h18v18H0z"/><path d="M4 6.543c0-.488.144-.868.432-1.138.292-.27.698-.405 1.22-.405.525 0 1.073.137 1.358.41.285.27.428.658.428 1.164v1.117h-1.55V6.465c0-.139-.018-.234-.053-.286-.035-.055-.096-.083-.183-.083-.09 0-.153.03-.192.088-.035.056-.053.15-.053.28v.681c0 .115.013.215.039.302a.876.876 0 00.134.244l1.502 1.648c.128.149.22.306.274.473.054.166.082.43.082.795v.893c0 .492-.145.871-.433 1.138-.285.263-.834.362-1.362.362-.541 0-.951-.139-1.23-.416C4.138 12.307 4 11.9 4 11.358V10h1.25v1.634c0 .132 0 .366.313.366.083 0 .312 0 .312-.366v-.967a.846.846 0 00-.045-.316 1.115 1.115 0 00-.187-.312L4.365 8.475a1.632 1.632 0 01-.283-.478A2.104 2.104 0 014 7.348V6.543zM8.063 13V5h1.25v6.667H10.5V13H8.062zM12.75 11.586V9.75c0-.155-.03-.264-.091-.327-.058-.066-.316-.09-.46-.09h-.077V12h.077c.144 0 .402-.02.46-.082.06-.066.091-.176.091-.332zm0-4.194V6.5c0-.333-.03-.379-.091-.438C12.6 6.004 12.317 6 12.122 6v2c.192 0 .38.045.537-.106.1-.098.091-.326.091-.502zM11 13V5h1.357c.554 0 .966.11 1.235.327.272.215.408.542.408.982v.904c0 .412-.08.715-.24.91-.16.193-.444.505-.85.591v.042c.368.034.642.32.821.525.18.2.269.493.269.877v1.185c0 .602-.131 1.03-.394 1.283-.262.25-.71.374-1.345.374H11z" fill="#fff"/></svg>