<!-- by TradingView --><svg width="18" height="18" xmlns="http://www.w3.org/2000/svg"><path fill="#0E3846" d="M0 0h18v18H0z"/><path d="M11.777 13.629a3.32 3.32 0 00-.48-.423l-.316-.228.275-.193c.15-.107.3-.194.332-.194.105 0 .433.863.435 1.146.001.138-.061.11-.246-.108zM7.915 13.559c-.739-.13-1.578-.508-2.068-.932l-.22-.19.357.112c.41.129 1.381.156 1.824.05.259-.061.26-.06.66.2.424.278.826.46 1.14.516.119.022.041-.025-.203-.122-.403-.16-1.068-.59-1.042-.675.008-.026.235-.125.506-.22.917-.324 1.654-.757 2.252-1.322.377-.356.638-.668.768-.918.137-.265.161-.123.03.18-.28.64-.885 1.32-1.573 1.767-.195.126-.354.253-.354.28 0 .029.136.217.302.419.166.202.302.38.302.396 0 .202-.559.35-.687.376-.197.039-1.44.18-1.994.083zM12.781 12.644a3.513 3.513 0 00-.535-.25c-.153-.054-.277-.12-.277-.146 0-.05.375-.48.444-.508.075-.032.38.343.574.703.219.408.189.437-.206.201z" fill="#FFB926"/><path d="M6.188 12.404c-.963-.197-1.383-.588-1.766-1.643-.124-.34-.13-.388-.047-.316.333.288.984.442 1.743.413l.49-.019.223.32c.123.175.401.518.618.762.394.442.395.443.247.475-.363.077-1.152.081-1.508.008zM7.74 11.96c-.347-.372-.907-1.136-.863-1.18.014-.013.2-.072.415-.13A8.276 8.276 0 009.76 9.455c.742-.549 1.233-1.091 1.617-1.783.17-.308.21-.353.185-.212-.044.259-.384.898-.702 1.319-.377.5-1.11 1.155-1.64 1.464l-.44.256.15.251c.08.139.268.428.416.644l.268.393-.304.132c-.263.114-.693.259-1.109.374-.094.026-.185-.04-.46-.333zM13.57 11.483a3.73 3.73 0 00-.562-.11c-.18-.02-.325-.048-.325-.064 0-.084.296-.604.344-.604.124 0 .818.576.925.768.064.115-.032.118-.382.01z" fill="#FFB926"/><path d="M5.035 10.546a2.066 2.066 0 01-.513-.247c-.313-.234-.369-.432-.335-1.184.016-.356.055-.711.086-.79l.056-.14.28.135c.182.089.407.144.651.162l.373.026.15.492c.083.27.266.73.407 1.021.213.44.242.537.176.579-.141.087-.99.053-1.33-.054zM6.574 10.308c-.287-.504-.697-1.54-.699-1.766 0-.064.071-.097.267-.122.3-.04.86-.22 1.343-.433.818-.362 1.885-1.27 2.206-1.878.165-.312.283-.413.22-.188-.147.518-.698 1.288-1.243 1.738-.232.19-.846.582-1 .637-.04.014.091.325.348.825l.428.836c.034.073-1.435.586-1.68.586-.031 0-.117-.106-.19-.235zM13.142 10.108c.02-.102.052-.276.07-.388.03-.175.05-.2.15-.173.21.056 1.043.483 1.062.544.013.04-.165.07-.545.088-.311.015-.612.047-.67.07-.095.039-.101.025-.067-.141zM13.26 9.02c-.057-.17-.052-.634.008-.656.089-.033.725.06.98.143.308.1.288.173-.068.248-.175.036-.44.126-.592.199-.322.156-.3.151-.328.066z" fill="#FFB926"/><path d="M5.078 8.244c-.275-.058-.631-.257-.631-.353 0-.151.3-.77.555-1.14.269-.394.835-.962 1.254-1.212l.189-.112.227.658c.125.362.328.888.452 1.17.206.468.218.518.134.58-.12.091-1.028.375-1.273.399-.187.018-.191.014-.255-.251-.08-.335-.094-1.339-.021-1.587.03-.102.043-.195.03-.208-.012-.012-.064.115-.114.284-.093.315-.125 1.37-.05 1.664.035.137.028.143-.175.137a2.413 2.413 0 01-.322-.03zM12.956 7.577c-.068-.18-.113-.336-.1-.348.012-.013.245-.052.518-.088.467-.06.79-.041.79.048 0 .021-.114.099-.253.172-.14.072-.372.224-.516.336a2.143 2.143 0 01-.288.205c-.015 0-.083-.147-.15-.325zM12.405 6.568a5.066 5.066 0 01-.206-.291c-.023-.05.515-.292.813-.367.136-.035.29-.075.343-.09.163-.046.108.072-.159.341-.14.142-.316.349-.391.46-.075.112-.154.203-.174.203-.02 0-.122-.115-.226-.256zM11.611 5.735c-.15-.118-.28-.234-.29-.257-.023-.062.522-.476.826-.628.144-.072.261-.104.261-.072s-.066.17-.147.305c-.08.135-.198.386-.261.557l-.115.31-.274-.215zM10.555 5.11c-.159-.076-.288-.168-.288-.204 0-.138.712-.936.837-.938.057-.001.052.042-.036.327a3.985 3.985 0 00-.116.606c-.022.198-.055.357-.074.353a4.024 4.024 0 01-.323-.144zM6.697 5.023c-.087-.24-.137-1.086-.067-1.13.032-.019.13.092.221.249.09.156.264.394.386.53l.223.247-.351.135-.351.136-.06-.167zM7.866 4.737c-.061-.156.16-1.201.254-1.201.021 0 .095.175.164.39.07.215.174.473.233.573.059.1.098.191.087.202-.011.01-.175.04-.364.066-.277.037-.35.03-.374-.03zM9.34 4.771a1.36 1.36 0 01-.262-.066c-.083-.081.459-1.17.582-1.17.024 0 .048.203.052.45.005.247.032.532.062.633.03.101.053.19.053.197 0 .025-.242.003-.488-.044z" fill="#FFB926"/></svg>