<!-- by TradingView --><svg width="18" height="18" viewBox="0 0 18 18" xmlns="http://www.w3.org/2000/svg"><path fill="#F0F3FA" d="M0 0h18v18H0z"/><path d="M3.58 7.8c-.11.17-.17.39-.18.63-.01.18.05.45-.18.4a.1.1 0 0 1-.07-.05.2.2 0 0 1-.03-.1c-.03-.41.05-.78.25-1.1.2-.33.45-.52.77-.58a.1.1 0 0 1 .08.02c.03.01.05.04.05.07.1.28-.12.26-.26.32a.9.9 0 0 0-.43.38Z" fill="#54663E"/><path d="M12.4 7.55h-.32s-.02 0-.03.02l-.01.03-.29 1.9-.01.03-.03.02h-.45v-.02l-.02-.01V9.5l.29-1.9a.05.05 0 0 0 0-.03l-.02-.01H5.45a.6.6 0 0 0-.35.14.12.12 0 0 0-.03.04.15.15 0 0 0 0 .11l.02.05c.32.33.71.36.59 1.08a.74.74 0 0 1-.1.27c-.25.38-.47.35-.9.35a5466.93 5466.93 0 0 1-1.51-.03.14.14 0 0 1-.04-.06.18.18 0 0 1-.01-.08c0-.03.01-.05.03-.07l.13-.17c.08-.1.2-.2.3-.2L5 8.98c.2 0 .25-.21.1-.33l-.36-.28c-.24-.2-.23-.7-.08-.94.14-.23.4-.43.64-.43a911.6 911.6 0 0 0 7.16 0l.02.03.01.03a.1.1 0 0 1 0 .03l-.05.4-.01.05-.03.01Z" fill="#8FBC52"/><path d="M14 8.61h-1.61l-.02-.01v-.04l.05-.43.01-.04h.9l.02-.01.02-.02V8l-.02-.4a.1.1 0 0 0-.02-.05.06.06 0 0 0-.04-.02h-.78l-.01-.01V7.5l.05-.48.01-.02.02-.01h1.07l.03.01.02.04.1.98.01.03.03.02h.5l.03.01.01.03.12.83.01.03h.46L15 9l.01.02v1.4l-.01.03h-.73l-.04.02a.09.09 0 0 0-.02.03c-.44.84-1.43.57-1.45-.43 0-.03.02-.07.05-.07h.26l.05.03.02.05c0 .22.08.28.23.38.3.19.55-.03.58-.42 0-.02.02-.04.04-.04h.51c.03 0 .06-.04.06-.08l.02-.24a.1.1 0 0 0-.02-.06.06.06 0 0 0-.04-.02h-.33l-.03-.01-.01-.04-.11-.9-.01-.03H14ZM3.94 8.16c-.08.15-.09.28-.1.49v.04l-.02.03c-.1.09-.22.06-.24-.1-.02-.26.03-.48.15-.68.11-.2.27-.31.47-.34.13-.02.18.12.13.26a.1.1 0 0 1-.01.04l-.03.02c-.16.05-.26.1-.35.24Z" fill="#54663E"/><path d="M6.45 8.04c.07-.03.12-.14.23-.17.17-.05.34-.03.44.14a1.23 1.23 0 0 0 .07.1.02.02 0 0 0 .02 0l.01-.02c.17-.25.37-.32.63-.18.02 0 .04.02.05.04.1.14.13.34.1.61a160.1 160.1 0 0 1-.13.96.06.06 0 0 1-.05.02h-.34l-.02-.02-.01-.02v-.03c.04-.26.17-.88.07-1.07a.17.17 0 0 0-.05-.06.12.12 0 0 0-.12-.02.15.15 0 0 0-.06.04c-.17.18-.2.87-.2 1.11a.1.1 0 0 1-.03.06.06.06 0 0 1-.04.02h-.35l-.01-.02-.01-.03v-.03l.1-.9c.01-.15-.04-.23-.15-.25-.28-.05-.3.85-.34 1.15a.1.1 0 0 1-.02.06.06.06 0 0 1-.04.02H5.85l-.01-.02-.01-.03v-.02L6 7.96l.02-.05a.05.05 0 0 1 .04-.02h.3c.02 0 .02 0 .03.02l.01.02v.09l.01.01h.01l.01.01h.01ZM10.57 8a.44.44 0 0 1 .38-.15l.01.01v.01l-.05.46-.02.03-.03.01c-.18 0-.32-.02-.4.25a6.24 6.24 0 0 0-.12.92H9.9l-.01-.01V9.5l.2-1.57v-.03l.03-.01h.36l.02.04.02.05V8l.02.01h.03Z" fill="#8FBC52"/><path d="M4.28 8.72c.1 0 .17-.1.17-.21 0-.13-.08-.22-.17-.22-.1 0-.17.1-.17.22s.08.21.17.21Z" fill="#54663E"/><path d="M8.26 8.49c.1-.52.46-.77.86-.59.04.02.1.08.15.18h.04V8c0-.03.01-.06.03-.08a.08.08 0 0 1 .06-.03H9.73l.02.02a.08.08 0 0 1 .01.06l-.19 1.54v.03H9.2l-.04-.01a.08.08 0 0 1-.02-.04v-.03l-.02-.01v-.01h-.04a.48.48 0 0 1-.12.1c-.4.16-.65 0-.74-.51-.02-.16-.02-.34.03-.54Zm.84-.14c-.14-.1-.31 0-.39.2-.08.2-.03.44.1.53.15.1.32 0 .4-.2.08-.2.03-.44-.1-.53ZM12.68 10.3l.04.13v.02h-1.58a.02.02 0 0 1 0-.02l.08-.69v-.01h1.43v.16h-.67v.01l-.01.01-.01.09h.65l.04.14v.02h-.01v.01h-.98l-.01.02-.01.07a.03.03 0 0 0 0 .01l.01.01h1.02v.01Z" fill="#8FBC52"/><path d="M3.02 10.48H3v-.02l.02-.43V10h2.15l.01.03c.04.73.76.76.82.02 0-.02 0-.03.02-.04a.05.05 0 0 1 .03-.02h1.53c.01 0 .03 0 .04.02l.01.04c.05.73.78.71.82-.01l.01-.04H11v.02l.01.01-.02.4v.03l-.03.01H8.8l-.04.02a.1.1 0 0 0-.03.03c-.17.35-.4.5-.71.46-.26-.03-.46-.19-.58-.47a.06.06 0 0 0-.02-.03H6.3a.11.11 0 0 0-.03.05c-.19.36-.45.51-.78.44-.24-.04-.4-.2-.52-.46a.07.07 0 0 0-.02-.03H3.02Z" fill="#54663E"/></svg>