<!-- by TradingView --><svg xmlns="http://www.w3.org/2000/svg" width="18" height="18"><path fill="url(#a3fvj45ib)" d="M0 0h18v18H0z"/><path d="M9.02 4.5L15 5.8v6.44L9.02 13.5 3 12.25V5.8l6.02-1.3zM4 6.61v4.82l5.02 1.05L14 11.44V6.6L9.02 5.52 4 6.62z" fill="#E5415F"/><path d="M5 7.19l3.99-.84L13 7.2V9H5V7.19zm2 4.06c.6.1 1.2.2 1.99.3l4.01-.6V10H5v.95c.78.1 1.39.2 2 .3z" fill="#D9D9D9"/><defs><linearGradient id="a3fvj45ib" x1="1.43" y1="5.38" x2="18" y2="11.51" gradientUnits="userSpaceOnUse"><stop stop-color="#610E48"/><stop offset="1" stop-color="#00086E"/></linearGradient></defs></svg>