<!-- by TradingView --><svg width="18" height="18" xmlns="http://www.w3.org/2000/svg"><path fill="#004C99" d="M0 0h18v18H0z"/><path d="M11.332 8.15a9.048 9.048 0 00-1.627-.204c-1.797-.132-1.497-.104-1.61-.117-.435-.088-.866-.299-.866-.837 0-.765.294-1.069 1.722-.992 0 0 1.327-.015 1.474.088.434.306.248.662.335.782.08.11.205.121.323.122h1.408a.5.5 0 00.359-.157c.095-.1.15-.236.15-.378v-.15c-.039-.879-.233-1.289-.727-1.67-.494-.38-1.57-.637-3.322-.637s-2.564.164-3.181.63C5.222 5.042 5 5.761 5 6.954c0 1.413.267 2.133.938 2.517.49.296.994.384 2.551.5h.282l.3.029h.299c.23.011.46.04.686.088.35.104.704.418.704.922 0 .503-.113.861-.77.988H9 7.997c-.3 0-.474-.2-.474-.2a2.218 2.218 0 01-.133-.27s-.066-.262-.16-.355a.52.52 0 00-.349-.163H5.51a.52.52 0 00-.359.176.552.552 0 00-.15.377v.158c-.005.43.069.566.222.966C5.656 13.72 6.575 14 9.21 14c1.82 0 2.513-.176 3.13-.736.491-.457.659-1.105.659-2.518 0-1.652-.392-2.271-1.668-2.596z" fill="#fff"/></svg>