<!-- by TradingView --><svg width="18" height="18" viewBox="0 0 18 18" xmlns="http://www.w3.org/2000/svg"><path fill="url(#a)" d="M0 0h18v18H0z"/><circle cx="9" cy="9" r="5.65" fill="#F0F3FA"/><path d="M9 3.35a5.65 5.65 0 0 1 0 11.3V15A6 6 0 0 0 9 3v.35ZM9 5.82a3.18 3.18 0 0 0 0 6.36v.35a3.53 3.53 0 0 1 0-7.06v.35Z" fill="#296B47"/><path d="M9 5.82a3.18 3.18 0 0 1 0 6.36v.35a3.53 3.53 0 0 0 0-7.06v.35ZM9 12.18h-.16A3.18 3.18 0 0 1 9 5.81v6.36Z" fill="#020305"/><path d="M9 12.18h.16A3.18 3.18 0 0 0 9 5.81v6.36Z" fill="#296B47"/><path d="M11.3 6.7v4.6H6.7V6.7h4.6Zm-4.42 4.42h4.24V6.88H6.88v4.24Z" fill="#F7CE42"/><path d="m8.47 7.41-.7-.35v.88h-.89l.7.7-.7.36.7.35-.52.89.88-.18v.88l.7-.53.36.7.35-.7.7.53v-.88l.9.18-.54-.89.7-.35-.7-.53.53-.53h-.7v-.88l-.71.35L9 6.88l-.53.53Z" fill="#F7CE42"/><path d="m11.3 6.7.88 2.3-.89 2.3-2.29.88-2.3-.89L5.83 9l.89-2.3L9 5.83l2.3.89Zm-4.46.14L6.01 9l.83 2.16 2.16.83 2.16-.83.83-2.16-.83-2.16L9 6.01l-2.16.83Z" fill="#F7CE42"/><defs><linearGradient id="a" x1="3.35" y1="3.12" x2="21.9" y2="24.43" gradientUnits="userSpaceOnUse"><stop stop-color="#1A1E21"/><stop offset="1" stop-color="#06060A"/></linearGradient></defs></svg>