<!-- by TradingView --><svg width="18" height="18" viewBox="0 0 18 18" xmlns="http://www.w3.org/2000/svg"><path fill="#F0F3FA" d="M0 0h18v18H0z"/><path d="M11.68 9c0-1.98.44-3.94 1.3-5.79a.13.13 0 0 0 0-.11.17.17 0 0 0-.09-.08.22.22 0 0 0-.13-.01.19.19 0 0 0-.1.06c-.4.55-.72 1.33-.96 1.93H9.39c-.22 0-.39.17-.39.45v.1c0 .3.18.45.4.45h1.9c-.55 2-.56 4-.02 6h-1.9c-.2 0-.38.19-.38.47v.1c0 .3.18.43.39.43h2.28c.25.63.58 1.36.98 1.93.03.03.07.05.11.06h.13a.17.17 0 0 0 .1-.09.13.13 0 0 0 0-.11 13.46 13.46 0 0 1-1.31-5.8Z" fill="#7E8AB2"/><path d="M8.62 8.45H7.06c-.1-2.06-.74-3.97-1.72-5.38a.18.18 0 0 0-.1-.06.21.21 0 0 0-.14 0 .17.17 0 0 0-.09.09.14.14 0 0 0 0 .11 13.69 13.69 0 0 1 0 11.57.14.14 0 0 0 0 .11c.02.04.05.07.1.08.04.02.08.02.13.01a.19.19 0 0 0 .1-.06 10.34 10.34 0 0 0 1.72-5.43h1.56c.21 0 .38-.19.38-.47v-.1c0-.3-.17-.47-.38-.47Z" fill="#013B4C"/><path d="M5.36 5.5a1.16 1.16 0 0 1 1.4-1.14 1.17 1.17 0 0 1 .86 1.59 1.17 1.17 0 0 1-1.91.37 1.16 1.16 0 0 1-.35-.82ZM9.9 9.17a1.15 1.15 0 0 1 .73-1.08 1.21 1.21 0 0 1 1.3.25 1.16 1.16 0 0 1 .25 1.28 1.2 1.2 0 0 1-1.94.37 1.16 1.16 0 0 1-.35-.82ZM5.36 12.5a1.16 1.16 0 0 1 1.4-1.14 1.17 1.17 0 0 1 .86 1.59 1.17 1.17 0 0 1-1.91.37 1.16 1.16 0 0 1-.35-.82Z" fill="#EA561D"/></svg>