<!-- by TradingView --><svg width="18" height="18" viewBox="0 0 18 18" xmlns="http://www.w3.org/2000/svg"><path fill="#F0F3FA" d="M0 0h18v18H0z"/><path d="m9.3 10.86.14-1.46c-2.8 0-3.68-.67-3.68-1.33 0-.67.89-1.74 3.53-1.74 2.12 0 3.34.54 3.68.8L14 6.07A9.7 9.7 0 0 0 9.3 5C7.81 5 4 5.4 4 8.2c0 2.24 3.53 2.7 5.3 2.66Z" fill="#1C355E"/><path d="M8.7 7.14 8.57 8.6c2.8 0 3.68.67 3.68 1.33 0 .67-.89 1.74-3.53 1.74-2.12 0-3.34-.54-3.68-.8L4 11.93A9.7 9.7 0 0 0 8.7 13c1.48 0 5.3-.4 5.3-3.2 0-2.24-3.53-2.7-5.3-2.66Z" fill="#63656A"/></svg>