<!-- by TradingView --><svg xmlns="http://www.w3.org/2000/svg" width="18" height="18" viewBox="0 0 18 18"><path fill="#F0F3FA" d="M0 0h18v18H0z"/><path d="M5.9 6c1.15.01 1.9.5 2.13.75l-.61.81C7.17 7.34 6.52 7 5.9 7c-.78.02-1.05.29-1.07.56-.02.27 0 .69 1.5.98 1.48.3 1.86 1.02 1.86 1.77 0 .8-.67 1.66-2.14 1.69a4.09 4.09 0 0 1-2.56-.94l.7-.75c.09.11 1 .73 1.86.69.87-.04 1.04-.39 1.05-.69 0-.3-.2-.55-1.47-.85-1.27-.31-1.9-.82-1.9-1.74.02-.92.74-1.74 2.17-1.72Z" fill="#8C592A"/><path d="M9.35 6h2.59a1.82 1.82 0 0 1 .38 3.59L14 12h-.87l-1.65-2.37H10V12h-.65V6ZM10 8.16V9h1.94a1.16 1.16 0 0 0 0-2.33H10v1.5Z" fill="#575757"/></svg>