<!-- by TradingView --><svg width="18" height="18" viewBox="0 0 18 18" xmlns="http://www.w3.org/2000/svg"><path fill="#F0F3FA" d="M0 0h18v18H0z"/><path d="M8.27 4.28a.14.14 0 0 1-.14 0c.03-.15-.3-.04-.36-.01l-.18.12a.2.2 0 0 1-.05.02l-.2.07a.6.6 0 0 0-.29.1l-.04-.05v-.01l-.03-.01a.65.65 0 0 0-.38.34l-.1.02a.29.29 0 0 0-.24.2.86.86 0 0 1-.28.19c-.1.03-.18.09-.24.17l-.06.07a.75.75 0 0 1-.25.15.07.07 0 0 0-.04.03l-.26.46L5 6.3c-.18.2-.32.44-.41.7l-.07.13h-.03c-.02 0-.04.02-.04.04-.06.14-.09.3-.1.45l-.04.24-.03.04-.1.04c-.03.19-.03.37.01.55.04.2-.02.4-.02.55a6.1 6.1 0 0 0 .43 2.07v.06l.03.03h.09c.02.1.07.17.14.24.01.02.03.02.04 0l1.51-1.88h.04l.63.71a.03.03 0 0 0 .02.01.03.03 0 0 0 .02 0l1.86-2.2h.04l1.84 2.22c.02.02.04.02.06 0l.66-.73h.04l1.48 1.85c.03.04.06.04.08 0 .05-.07.15-.19.09-.28.09-.26.2-.5.36-.74.06-.07.06-.15.08-.24a.41.41 0 0 0 .07-.21l.04-.07c.04.01.07.03.1.06.01 0 .02.02.01.04a5.23 5.23 0 0 1-1.86 2.96A4.32 4.32 0 0 1 9.56 14c-2.32 0-4.43-1.12-5.34-3.34a1.32 1.32 0 0 1-.1-.35c-.08-.73-.2-1.44-.03-2.2.04-.17-.02-.3.04-.47.25-.72.62-1.35 1.12-1.9.32-.35.75-.79 1.2-1.02.25-.13.48-.28.74-.36.47-.14.94-.36 1.42-.36.64 0 1.55.07 2.18.35.39.18.74.29 1.09.6.02.02.02.03 0 .01-.26-.13-.5-.3-.8-.37-.16-.04-.32-.1-.47-.18v-.02l.02-.02a.02.02 0 0 0 0-.02v-.01l-.01-.01c-.29-.05-.56-.14-.85-.14L9 4.16c-.27-.02-.48.04-.72.12Zm.1 6.44a.01.01 0 0 1-.01 0l.38-1.9c.01-.07 0-.07-.03-.02l-1.72 3.08-.01.01h-.02l-.01-.02.01-.73c0-.03 0-.03-.03-.01L5.8 12.46c-.02.03-.02.06 0 .09l.16.13a.06.06 0 0 0 .07.01l.02-.01.63-.7.02-.01a.04.04 0 0 1 .05.02l.28.86c0 .03.02.03.03 0l.97-1.63a.02.02 0 0 1 .02-.01h.01l.47.88h.01l.79-2.1a.02.02 0 0 1 .01-.01.02.02 0 0 1 .02 0l1.06 2.05v.01a.02.02 0 0 0 .03 0v-.01l.12-1.28v-.02h.02a.03.03 0 0 1 .03.01l.57 1.74.01.01h.01l.94-1.07c.01-.02.03-.02.04 0l.57.55h.03l.13-.2a.04.04 0 0 0 0-.05l-1.22-1.66h-.03l-.27 1.16c-.01.03-.02.03-.04.01L9.87 9.57a.02.02 0 0 0-.02 0l.25 1.2h-.02L9.1 8.73a.01.01 0 0 0-.01 0 .01.01 0 0 0-.01 0l-.71 1.99Zm-2.28-.07v-.02h-.01l-1 1.16a.01.01 0 0 0 0 .02h.01l1-1.16Zm-.72 1.45a.02.02 0 0 0-.01.02l.3.33a.02.02 0 0 0 .02 0l.43-.9a.02.02 0 0 0-.01-.03h-.02l-.71.58Z" fill="#346798"/><path d="M14 9.85c-.2.53-.29.9-.53 1.4l-1.71-2.16c-.03-.04-.07-.04-.1 0l-.67.73c-.01.02-.03.02-.04 0L9.02 7.5a.03.03 0 0 0-.02 0 .03.03 0 0 0-.02 0L7.05 9.78a.03.03 0 0 1-.05 0l-.65-.75h-.03l-1.75 2.19-.1-.01-.03-.03C4 10.3 4.01 9.74 4 8.98 3.95 5.33 6.87 4 9 4c3.07 0 5.13 2.08 5 5.3 0 .03-.02.04-.05.02L8.5 6.58c-.02-.01-.03 0-.05.01l-.15.3a.07.07 0 0 0 .01.07l.02.02L14 9.85ZM8.07 6.2c-.17-.1-.46-.31-.62-.08-.09.14-.21.33-.13.5 0 .02.02.03.03.04l.58.3c.29.13.44-.34.47-.53 0-.02.01-.04.03-.05l.03-.04c.01 0 .02-.02 0-.04l-.1-.22.01-.05a8.76 8.76 0 0 1 1.46-1.75 5.6 5.6 0 0 0-2.02 1.7.05.05 0 0 0 .03.04l.26.14v.03c0 .01-.01.02-.03 0Zm-.88.18c.01 0 .04 0 .07-.02a.37.37 0 0 0 .08-.1.37.37 0 0 0 .04-.13c0-.04 0-.06-.02-.07-.01-.01-.04 0-.07.02a.37.37 0 0 0-.08.1.37.37 0 0 0-.04.13c0 .03 0 .06.02.07Zm.62.58-.38-.19a.06.06 0 0 0-.07.02v.02a4.68 4.68 0 0 0-.16 2.59v-.01a8.52 8.52 0 0 1 .64-2.4.06.06 0 0 0-.03-.03Z" fill="#666"/></svg>