<!-- by TradingView --><svg width="18" height="18" viewBox="0 0 18 18" xmlns="http://www.w3.org/2000/svg"><path fill="url(#acien0d5j)" d="M0 0h18v18H0z"/><path d="M3 13h1.55c.08-.77.64-2.33 2.23-2.33h1.86c.32 0 .59-.22.59-.54a.58.58 0 0 0-.6-.57h-.9C6.82 9.56 6 8.9 6 8s.81-1.67 1.74-1.67H11a.7.7 0 0 0 .67-.68c0-.36-.3-.65-.67-.65H5.4L3 13Zm12-8h-1.55c-.08.77-.64 2.33-2.23 2.33H9.36c-.32 0-.59.22-.59.54 0 .32.27.57.6.57h.9c.92 0 1.73.66 1.73 1.56s-.81 1.67-1.74 1.67H7a.7.7 0 0 0-.67.68c0 .36.3.65.67.65h5.6L15 5Z" fill="#053A5A"/><defs><linearGradient id="acien0d5j" x1="3.35" y1="3.12" x2="21.9" y2="24.43" gradientUnits="userSpaceOnUse"><stop stop-color="#1A1E21"/><stop offset="1" stop-color="#06060A"/></linearGradient></defs></svg>