<!-- by TradingView --><svg width="18" height="18" xmlns="http://www.w3.org/2000/svg"><path fill="#3F386A" d="M0 0h18v18H0z"/><path d="M3.665 6.104c-.729.232-1.219.79-1.268 1.44-.03.416.05.691.294 1.028.245.337.772.582 1.752.803C5.78 9.68 6 9.815 6 10.367c0 .527-.429.876-1.072.87-.837-.007-1.346-.486-1.546-1.249h-.99V12h.99v-.459c.832.369 1.918.671 2.79.266.723-.331 1.108-.987 1.035-1.752-.055-.65-.423-1.103-1.066-1.348-.178-.067-.717-.22-1.194-.337-1.25-.312-1.526-.533-1.323-1.06.128-.349.41-.502.9-.502.599 0 1.359.547 1.5 1.185L7 8V6H6v.576c-.025-.013-.38-.246-.583-.35-.492-.246-1.225-.298-1.752-.122zM8 7h1v4H8v1h3v-1h-1V7.342L11.51 11h.99L14 7.347V11h-1v1h3v-1h-1V7h1V6h-2.65l-1.345 3.493S11.008 6.886 10.66 6H8v1z" fill="#fff"/></svg>