<!-- by TradingView --><svg width="18" height="18" viewBox="0 0 18 18" xmlns="http://www.w3.org/2000/svg"><path fill="#F0F3FA" d="M0 0h18v18H0z"/><path d="M9 4C6.3 4 4 6.27 4 9a5 5 0 1 0 5-5Zm1.4 9.5a.64.64 0 0 1-.17.02c-.47 0-.9-.38-.9-.85v-1.75c0-.77 1.03-1.46 1.32-1.63.02-.01.01-.03 0-.03-.6.05-1.03.29-1.15.36 0 0-.02 0-.02-.02.02-.08.08-.32.2-.55 0-.01-.01-.03-.03-.02-.3.18-.52.44-.58.5h-.02c-.05-.1-.28-.63-.56-.88-.02 0-.03 0-.03.02.06.27.13.73.11 1.04 0 .01 0 .02-.02.01a4.25 4.25 0 0 0-1.2-.49c-.01 0-.03.03-.01.03.25.18 1.33.91 1.33 1.66v1.75c0 .47-.44.86-.91.86-.06 0-.12 0-.17-.02A4.76 4.76 0 0 1 4.33 9a4.68 4.68 0 1 1 6.07 4.5Z" fill="#151B22"/><path d="M13.24 4.76a6 6 0 1 0-8.48 8.5 6 6 0 0 0 8.48-8.5ZM9 14.65A5.62 5.62 0 0 1 3.35 9 5.63 5.63 0 0 1 9 3.35c3.13 0 5.65 2.5 5.65 5.65A5.63 5.63 0 0 1 9 14.65Z" fill="#151B22"/><path d="M10.98 7.03 10.96 7c-.05 0-.4-.04-.71.63-.32.66-.25 1.24-.23 1.34l.01.03c.06 0 .4.03.72-.63.33-.65.25-1.24.23-1.34ZM9.1 6.82c-.23.68 0 1.1.04 1.17l.02.01c.07-.02.5-.14.73-.82.24-.67.01-1.1-.03-1.17L9.84 6c-.07.02-.5.15-.73.82ZM12.21 9.13c-.67-.26-1.12-.06-1.2-.02l-.01.01c.01.08.12.49.79.75s1.12.06 1.2.02l.01-.01c-.01-.08-.11-.5-.79-.75ZM7.04 6l-.02.02c-.03.06-.11.37.54.7a2.7 2.7 0 0 0 1.42.26c.03-.06.11-.37-.54-.7a2.68 2.68 0 0 0-1.4-.27ZM7.03 7v.03c-.03.1-.1.68.22 1.34.32.67.66.64.72.63v-.03c.03-.1.1-.68-.22-1.34-.31-.67-.65-.64-.72-.63ZM5.79 9.13C5.1 9.4 5 9.8 5 9.88l.01.01c.08.04.53.24 1.2-.02.68-.26.78-.67.79-.75l-.01-.01c-.08-.04-.54-.24-1.2.02Z" fill="#151B22"/></svg>