<!-- by TradingView --><svg xmlns="http://www.w3.org/2000/svg" width="18" height="18" viewBox="0 0 18 18"><path fill="#F0F3FA" d="M0 0h18v18H0z"/><path d="M15.49 7.84c.23 2.69-2.6 5.38-6.32 6.02-3.73.64-6.92-1.02-7.16-3.7-.23-2.69 2.58-5.38 6.3-6.02 3.73-.64 6.94 1.02 7.18 3.7zM9 4.42c-3.4.42-6.03 2.69-5.88 5.06.16 2.38 3.03 3.97 6.43 3.55 3.4-.42 6.03-2.68 5.88-5.06C15.28 5.58 12.4 4 9 4.42z" fill="#00953B"/><path d="M15 10a1 1 0 1 0 0-2 1 1 0 0 0 0 2z" fill="#D7282F"/><path d="M9.84 8.16l-.92-.52a3.08 3.08 0 0 1-.74-.52c-.15-.15-.2-.34-.2-.55 0-.24.07-.43.26-.55.18-.14.42-.2.68-.2.34 0 .69.11 1.05.32.35.22.61.64.77 1.21l.02.1h.5L11 5.22h-.45v.07a.35.35 0 0 1-.1.19c-.03.02-.08.05-.16.05l-.55-.15a2.83 2.83 0 0 0-.9-.16c-.6 0-1.1.16-1.5.5-.37.33-.55.76-.55 1.28 0 .38.16.73.47 1.06.16.17.4.34.66.5l.9.5c.5.28.84.5 1 .64.23.21.34.45.34.74 0 .3-.1.54-.32.7-.2.17-.47.27-.79.27-.58 0-1.05-.22-1.45-.62a3.3 3.3 0 0 1-.6-.97l-.03-.07H6.5L6.84 12h.45l.02-.1c0-.07.03-.11.08-.18a.21.21 0 0 1 .13-.05s.11 0 .58.16c.37.12.74.17 1.06.17.68 0 1.24-.19 1.68-.52a1.63 1.63 0 0 0 .3-2.35 3.82 3.82 0 0 0-1.3-.97z" fill="#003A70"/></svg>