<!-- by TradingView --><svg width="18" height="18" viewBox="0 0 18 18" xmlns="http://www.w3.org/2000/svg"><path fill="#F0F3FA" d="M0 0h18v18H0z"/><path d="m5.12 13.04 1.42.43.91.53h5.95l.04-.59c1.33-2.44.64-6.85.04-8.58-.29-.81-1.63-.85-2.03-.82H4.61l-.03.18c.64 1.28.18 7.24.54 8.85Z" fill="url(#adqr2hwcb)"/><path d="M8 5.18s-.94.08-.94 1.07c0 .98.94 2.54.94 3.68 0 1.15-.43 1.93-1.65 2.05-1.22.11 1.13-.15 1.13-1.7 0-1.54-.97-2.25-.97-3.86 0-1.6 1.46-1.57 1.49-1.24ZM10 5h.7v6.52H12V12h-2V5Z" fill="#F0F3FA"/><defs><linearGradient id="adqr2hwcb" x1="4" y1="9.63" x2="14.22" y2="9.55" gradientUnits="userSpaceOnUse"><stop stop-color="#FEB81A"/><stop offset="1" stop-color="#F88B1C"/></linearGradient></defs></svg>