<!-- by TradingView --><svg xmlns="http://www.w3.org/2000/svg" width="18" height="18" viewBox="0 0 18 18"><path fill="#EA6831" d="M0 0h18v18H0z"/><path d="M5.43 8.6C4.92 8.6 4.31 8.3 4 8L3 9.47c.67.35 1.4.53 2.17.53 1.3 0 2.75-.64 3.12-2.02.22-.93-.23-1.46-1.17-1.67a2.47 2.47 0 0 0-.23-.03c-.35-.04-.9-.1-.9-.4 0-.24.5-.48.92-.48.5 0 .99.18 1.17.6l.89-1.47A2.9 2.9 0 0 0 7.27 4C5.82 4 4 4.53 4 6.31 4 7 4.55 7.57 5.26 7.7l.42.08.06.01c.2.04.64.11.64.38 0 .44-.67.44-.95.44ZM10.78 7h-1.7l-2.02 6h1.56l.94-3 .16 3h.9s1.47-2.8 1.55-3l-.36 3h1.64L14 7h-1.73l-1.5 3V7Z" fill="#FEFEFE"/></svg>