<!-- by TradingView --><svg width="18" height="18" viewBox="0 0 18 18" fill="none" xmlns="http://www.w3.org/2000/svg">
<rect width="18" height="18" fill="#F0F3FA"/>
<path fill-rule="evenodd" clip-rule="evenodd" d="M2.26074 7.78426C3.03714 6.87977 5.29316 5.14755 8.10605 5.45452C7.42292 5.14822 5.73318 4.6891 4.43925 5.30305C2.96652 6.00184 2.38891 7.46291 2.27976 7.73904C2.26903 7.76616 2.26283 7.78185 2.26074 7.78426ZM10.2096 10.0383C7.51209 10.409 5.87181 12.1522 5.38885 12.9774C5.38966 12.976 5.40701 12.9775 5.43906 12.9803C5.86405 13.0169 8.8746 13.276 10.2096 10.0383Z" fill="url(#paint0_linear_229_11744)"/>
<path fill-rule="evenodd" clip-rule="evenodd" d="M15.7393 7.78426C14.9629 6.87977 12.7068 5.14755 9.89395 5.45452C10.5771 5.14822 12.2668 4.6891 13.5608 5.30305C15.0335 6.00184 15.6111 7.46291 15.7202 7.73904C15.731 7.76616 15.7372 7.78185 15.7393 7.78426ZM7.7904 10.0383C10.4879 10.409 12.1282 12.1522 12.6111 12.9774C12.6103 12.976 12.593 12.9775 12.5609 12.9803C12.1359 13.0169 9.1254 13.276 7.7904 10.0383Z" fill="url(#paint1_linear_229_11744)"/>
<path fill-rule="evenodd" clip-rule="evenodd" d="M2.49939 10.984C2.33293 10.7271 2 10.0936 2 9.61422C2 9.01501 2.61778 8.14703 4.51975 7.0444C8.26913 4.87077 13.6487 5.87516 14.4853 6.08538C14.398 6.08538 14.2948 6.08413 14.177 6.0827C12.1961 6.05868 6.10449 5.9848 2.49939 10.984ZM3.10291 11.5511C3.22813 11.7574 3.64515 12.2827 4.31142 12.734C5.43082 11.0688 7.63105 8.30438 12.2418 8.09298C7.89313 6.54487 4.33726 9.75336 3.10291 11.5511Z" fill="url(#paint2_linear_229_11744)"/>
<path fill-rule="evenodd" clip-rule="evenodd" d="M15.5005 10.984C15.667 10.7271 15.9999 10.0936 15.9999 9.61422C15.9999 9.01501 15.3821 8.14703 13.4802 7.0444C9.7308 4.87077 4.35122 5.87516 3.51465 6.08538C3.60196 6.08538 3.70518 6.08413 3.82292 6.0827C5.80386 6.05868 11.8954 5.9848 15.5005 10.984ZM14.897 11.5511C14.7718 11.7574 14.3548 12.2827 13.6885 12.734C12.5691 11.0688 10.3689 8.30438 5.75812 8.09298C10.1068 6.54487 13.6627 9.75336 14.897 11.5511Z" fill="url(#paint3_linear_229_11744)"/>
<path fill-rule="evenodd" clip-rule="evenodd" d="M8.99994 6.63544C8.13757 6.40466 7.30688 6.26805 6.55635 6.18796C7.36432 5.95252 8.19429 5.81286 8.99994 5.73917C9.80558 5.81286 10.6356 5.95252 11.4435 6.18796C10.693 6.26805 9.8623 6.40466 8.99994 6.63544ZM12.7019 5.79228C13.5888 5.89073 14.237 6.02302 14.4852 6.0854C14.3979 6.0854 14.2947 6.08415 14.1769 6.08272C13.9641 6.08014 13.7039 6.07698 13.4044 6.0796C13.1812 5.97476 12.9467 5.87781 12.7019 5.79228ZM5.29798 5.79228C5.05318 5.87781 4.81863 5.97476 4.59548 6.0796C4.29597 6.07698 4.03573 6.08014 3.82292 6.08272C3.70518 6.08415 3.60196 6.0854 3.51465 6.0854C3.76287 6.02302 4.41107 5.89073 5.29798 5.79228ZM9.90536 10.6688C9.6374 11.1472 9.32825 11.5289 8.99994 11.8329C8.67163 11.5289 8.36247 11.1472 8.09452 10.6688C8.37615 10.5346 8.67805 10.4134 8.99994 10.311C9.32183 10.4134 9.62372 10.5346 9.90536 10.6688ZM10.8174 8.24855C10.1542 8.36578 9.55024 8.53936 8.99993 8.75385C8.44963 8.53936 7.8457 8.36578 7.18251 8.24855C7.74985 8.01251 8.35807 7.83555 8.99994 7.74679C9.64181 7.83555 10.25 8.01251 10.8174 8.24855Z" fill="#874223"/>
<defs>
<linearGradient id="paint0_linear_229_11744" x1="2.95214" y1="10.5943" x2="8.5646" y2="7.3361" gradientUnits="userSpaceOnUse">
<stop stop-color="#7A7C7F"/>
<stop offset="0.898335" stop-color="#989A9D"/>
</linearGradient>
<linearGradient id="paint1_linear_229_11744" x1="8.0401" y1="4.26437" x2="11.7973" y2="12.986" gradientUnits="userSpaceOnUse">
<stop stop-color="#C35525"/>
<stop offset="1" stop-color="#AE4925"/>
</linearGradient>
<linearGradient id="paint2_linear_229_11744" x1="3.29428" y1="10.3163" x2="11.142" y2="7.25894" gradientUnits="userSpaceOnUse">
<stop stop-color="#7A7C7F"/>
<stop offset="0.537963" stop-color="#B3B5B7"/>
<stop offset="1" stop-color="#7A7C7F"/>
</linearGradient>
<linearGradient id="paint3_linear_229_11744" x1="6.1688" y1="6.89257" x2="12.1281" y2="13.3455" gradientUnits="userSpaceOnUse">
<stop stop-color="#A94625"/>
<stop offset="0.461599" stop-color="#DF6626"/>
<stop offset="1" stop-color="#A94625"/>
</linearGradient>
</defs>
</svg>
