<!-- by TradingView --><svg width="18" height="18" viewBox="0 0 18 18" xmlns="http://www.w3.org/2000/svg"><path fill="#F0F3FA" d="M0 0h18v18H0z"/><path d="M9.67 7.11v-1l-1.34-.73v1.94a1.11 1.11 0 0 0 .55.94c.55.27 1.22.65 1.22.65.68.4.57.55.57.95v3.38c0 .1-.04.2-.12.27a.38.38 0 0 1-.27.12H7.72c-.1 0-.2-.04-.27-.12a.4.4 0 0 1-.12-.27v-2.01L6 10.54v2.83c0 .43.17.85.47 1.15.3.3.7.48 1.13.48h2.8c.43 0 .83-.17 1.13-.48.3-.3.47-.72.47-1.15V9.43c0-1.26-1.48-1.73-2.33-2.32Z" fill="#3A6178"/><path d="M10.4 3H7.6c-.43 0-.83.17-1.13.48-.3.3-.47.72-.47 1.15v4.84s1.29.72 2.33 1.24v1.13l1.34.73v-2.6L7.33 8.71V4.76c0-.1.04-.2.12-.27a.38.38 0 0 1 .27-.12h2.56c.1 0 .2.04.27.12a.4.4 0 0 1 .12.27v2.02l1.33.59V4.63c0-.43-.17-.85-.47-1.15-.3-.3-.7-.48-1.13-.48Z" fill="#74B22E"/></svg>