<!-- by TradingView --><svg width="18" height="18" viewBox="0 0 18 18" xmlns="http://www.w3.org/2000/svg"><path fill="#F0F3FA" d="M0 0h18v18H0z"/><path d="M11.48 5.18c-.71-.5-1.57-.8-2.5-.8-2.5 0-4.53 2.16-4.53 4.81A4.7 4.7 0 0 0 8.72 14l-.28.01c-2.6 0-4.72-2.24-4.72-5s2.12-5 4.72-5c1.16 0 2.22.44 3.04 1.18Z" fill="#005AA8"/><path d="M8.99 5.56A3.58 3.58 0 0 0 5.9 9.19 3.58 3.58 0 0 0 9 12.83a3.3 3.3 0 0 1-.37.02c-1.9 0-3.44-1.64-3.44-3.66 0-2.02 1.54-3.65 3.44-3.65.12 0 .25 0 .37.02Z" fill="#005AA8"/><path d="M8.44 6.88A4.57 4.57 0 0 1 5 4.77v.77a5.3 5.3 0 0 0 3.44 1.92v-.58Z" fill="url(#abc2c3wq5)"/><path d="M8.44 8.42C5.86 8.28 3.91 6.7 3.36 5.73v.96C4.63 8.42 6.63 9 8.44 9v-.58Z" fill="url(#bbc2c3wq5)"/><path d="M8.08 10.54C5.5 10.4 3.54 8.8 3 7.84v.97c1.27 1.73 3.27 2.3 5.08 2.3v-.57Z" fill="url(#cbc2c3wq5)"/><path d="M14 8.54h-1.6c0-.3-.27-.39-.4-.39h-2c-.2 0-.4 0-.4.39 0 .3.27.38.4.38h3.2c.6 0 .8.39.8.77v1.54c0 .77-.53.77-.8.77H8.8c-.64 0-.8-.51-.8-.77v-.77h1.6c0 .3.27.39.4.39h2c.2 0 .4 0 .4-.39 0-.3-.27-.38-.4-.38H8.8c-.64 0-.8-.52-.8-.77V7.77c0-.62.53-.77.8-.77h4.4c.64 0 .8.51.8.77v.77Z"/><defs><linearGradient id="abc2c3wq5" x1="5" y1="5.15" x2="8.35" y2="6.91" gradientUnits="userSpaceOnUse"><stop stop-color="#1D64A9"/><stop offset="1" stop-color="#9AAADB"/></linearGradient><linearGradient id="bbc2c3wq5" x1="3.73" y1="7.05" x2="7.37" y2="9.88" gradientUnits="userSpaceOnUse"><stop stop-color="#1D64A9"/><stop offset="1" stop-color="#9AAADB"/></linearGradient><linearGradient id="cbc2c3wq5" x1="3.36" y1="9.16" x2="7.01" y2="12" gradientUnits="userSpaceOnUse"><stop stop-color="#1D64A9"/><stop offset="1" stop-color="#9AAADB"/></linearGradient></defs></svg>