<!-- by TradingView --><svg xmlns="http://www.w3.org/2000/svg" width="18" height="18" viewBox="0 0 18 18"><path d="M18 0H0v18h18V0Z" fill="#F0F3FA"/><path fill-rule="evenodd" d="M12.52 6.05c.5.32.99.65 1.48.95v5l-2 1-1.5-1L9 11c-1.46.94-1.53.98-1.52.99 0 0 .1-.04-1.48 1.01l-2-1V7.1v.07V7c.5-.3.99-.63 1.48-.95C6.63 5.3 7.78 4.55 9 4c1.22.55 2.38 1.3 3.52 2.05Zm-6.84 4.94L6 8l.53-.38C6.76 7.47 7 7.34 9 6c2 1.34 2.24 1.47 2.47 1.62L12 8l.32 3-.82-.5L9 9l-3.32 2Z" fill="#5BC6CC"/><path d="M6 8 4 7v5l2-.83V8Zm6 0v3.03l2 .97V6.35 7l-2 1Z" fill="#00ACA0"/><path d="M6 10.79V13l-2-1 2-1.21Zm6 0V13l2-1-2-1.21Z" fill="#00927C"/></svg>