<!-- by TradingView --><svg xmlns="http://www.w3.org/2000/svg" width="18" height="18" viewBox="0 0 18 18"><path fill="url(#aawwd3ck4)" d="M0 0h18v18H0z"/><path d="M7.74 7.89h-.28c-.31-1.15-.63-1.46-1.42-1.46-.78 0-1.23.34-1.23.78 0 .55.47.72 1.1.94l.13.05c.87.3 1.96.73 1.96 1.87C8 11.35 7.22 12 5.81 12c-.61 0-1.22-.19-1.81-.55V10h.32c.18 1.05.67 1.57 1.68 1.57.57 0 1.22-.24 1.22-.88 0-.52-.47-.68-1.04-.87l-.34-.13C4.97 9.37 4 9 4 7.82 4 6.78 4.77 6 6.04 6c.56 0 1.2.11 1.7.32V7.9Zm3.68 2.23L10.28 6H8.5v.43H9v5.14h-.5V12h1.33v-.43h-.41V6.48L11 12h.26l1.57-5.52v5.1h-.5V12H14v-.43h-.33V6.43H14V6h-1.31l-1.23 4.12h-.04Z" fill="#fff"/><defs><linearGradient id="aawwd3ck4" x1="9" y1="0" x2="6.38" y2="18" gradientUnits="userSpaceOnUse"><stop offset=".13" stop-color="#125AAC"/><stop offset=".62" stop-color="#0C3E72"/></linearGradient></defs></svg>