<!-- by TradingView --><svg width="18" height="18" viewBox="0 0 18 18" xmlns="http://www.w3.org/2000/svg"><path fill="#F0F3FA" d="M0 0h18v18H0z"/><path fill-rule="evenodd" d="M9 15A6 6 0 1 0 9 3a6 6 0 0 0 0 12Zm0-2a4 4 0 1 0 0-8 4 4 0 0 0 0 8Z" fill="#0082B0" fill-opacity=".2"/><path fill-rule="evenodd" d="M9 14A5 5 0 1 0 9 4a5 5 0 0 0 0 10Zm0-1a4 4 0 1 0 0-8 4 4 0 0 0 0 8Z" fill="#0082B0" fill-opacity=".2"/><circle cx="9" cy="9" r="4" fill="#284D6A" fill-opacity=".4"/><circle cx="9" cy="9" r="2" fill="#F0F3FA"/></svg>