<!-- by TradingView --><svg width="18" height="18" viewBox="0 0 18 18" xmlns="http://www.w3.org/2000/svg"><path fill="#F0F3FA" d="M0 0h18v18H0z"/><path fill-rule="evenodd" d="m6.95 9.62 1.42-.75.55.87-1.42.75-.55-.87Zm-.13.45-.37-.57 2.06-1.09.9 1.45.95 1.45.58-.31.9 1.44-.71.38.57.93-.31.17-.58-.93-.54.29-.9-1.45.67-.36-.94-1.44-1.45.76.37.55.15.22 2.07 3.02-.3.18-1.27-1.84-1.3.69-.92-1.44 1.25-.66-.76-1.12-1.67.92-.18-.29 1.73-.95Zm.13 2.22.95-.5.54.86-.94.5-.55-.86Zm3.85-.83-.94.5.55.86.94-.5-.55-.86Z" fill="#76BF4F"/><path fill-rule="evenodd" d="M9 14.67c2 0 3.64-1.5 3.64-3.34 0-.52-.23-1.3-.6-2.22-.86-2.1-2.38-4.35-3.04-5.43-.66 1.08-2.18 3.34-3.03 5.43-.38.92-.6 1.7-.6 2.22 0 1.84 1.62 3.34 3.63 3.34ZM8.8 3.34c-.83 1.34-3.8 5.98-3.8 8C5 13.35 6.8 15 9 15s4-1.64 4-3.67c0-2-2.97-6.65-3.8-8L9 3l-.2.34Z" fill="#58585A"/></svg>