<!-- by TradingView --><svg width="18" height="18" viewBox="0 0 18 18" xmlns="http://www.w3.org/2000/svg"><path fill="url(#adrwctbdj)" d="M0 0h18v18H0z"/><path d="M8.5 4H9v10h-.5V4Zm-3.86 6H3c0 1.3.96 2 2.36 2s2.42-.77 2.42-2.08c0-1.3-1.51-1.7-2.18-1.85-.68-.15-.47-.86.22-.86.55 0 .68.58.68.79H8c.05-.92-.4-2-2.02-2-1.63 0-2.4.71-2.4 1.84 0 1.11.72 1.37 1.82 1.77l.05.01c1.13.4.65 1.11-.1 1.11-.59 0-.72-.46-.71-.73ZM10 12l1.25-.2V8.38l2.88 3.07.87-.1V6.61l-1.25-.18v2.95l-2.78-3.22L10 6v6Z" fill="#fff"/><defs><linearGradient id="adrwctbdj" x1="3.35" y1="3.12" x2="21.9" y2="24.43" gradientUnits="userSpaceOnUse"><stop stop-color="#1A1E21"/><stop offset="1" stop-color="#06060A"/></linearGradient></defs></svg>