<!-- by TradingView --><svg width="18" height="18" viewBox="0 0 18 18" xmlns="http://www.w3.org/2000/svg"><path fill="#F0F3FA" d="M0 0h18v18H0z"/><path d="m3 6.9 1.3.1s1.9-1.18 4.82-1.18c2.32 0 4.34.04 5.8.28l.03-.03c.04-.01.09-.03 0-.1-.12-.07-.3-.13-.38-.15l-.43-.11c-1-.27-2.34-.64-4.7-.7-3.7-.09-4.34.23-5.53.8L3 6.23v.67ZM11 9h.73c.03-.7-.48-2-2.75-2s-2.75 1.31-2.7 1.97c0 .39.32 1.24 1.57 1.5l.72.15c1.06.23 1.56.33 1.97.53.5.23.72.52.72 1 0 .49-.53 1.31-2.25 1.31S6.77 12.92 6.77 12h-.76c-.09.79.39 2 3 2 2.6 0 3.07-1.3 2.98-1.95 0-.46-.34-1.43-1.76-1.7a21.8 21.8 0 0 1-2.57-.6.94.94 0 0 1-.65-.95c0-.78.72-1.3 2.04-1.3C10.36 7.5 11 8.28 11 9Z"/></svg>