<!-- by TradingView --><svg width="18" height="18" viewBox="0 0 18 18" xmlns="http://www.w3.org/2000/svg"><path fill="#F0F3FA" d="M0 0h18v18H0z"/><path fill-rule="evenodd" d="M14 9.02A4.98 4.98 0 0 1 9 14a5 5 0 1 1 5-4.98Zm-7.88-.85c.1-.7.72-1.18 1.49-1.17.64 0 1.32.36 1.3 1.01.02.42-.2.74-.65.88.5.14.74.44.74.9.02.75-.71 1.21-1.49 1.21A1.48 1.48 0 0 1 6 9.96l.36-.17a.47.47 0 0 1 .26-.03c.18.02.28.16.38.3.12.16.25.33.5.32.36.01.67-.25.67-.58 0-.51-.47-.56-.93-.55v-.5c.42 0 .95-.15.94-.6 0-.32-.27-.53-.62-.53-.27 0-.38.15-.5.32a.88.88 0 0 1-.25.28.44.44 0 0 1-.26.02l-.43-.07ZM12 7.33V7H9v.58c0 .09.09.17.19.17h1.86c-.52.9-.92 1.65-1.32 2.4l-.46.85h.63c.19 0 .35-.1.43-.25L11.9 7.7c.06-.12.1-.24.1-.37Z" fill="#6DBE4B"/></svg>