<!-- by TradingView --><svg xmlns="http://www.w3.org/2000/svg" width="18" height="18"><path fill="#F0F3FA" d="M0 0h18v18H0z"/><path d="M12.9 10.65l-1.48-.29a1.93 1.93 0 000-.6v-.04l1.49.93zM9.93 11.9l.08-.04c.13-.05.25-.1.36-.16l.29 1.26-.73-1.06zm-2.5 1.09l.2-1.15.41.14-.62 1zm-2.35-2.3l1.58-1-.03.2.02.45-1.57.35zm.02-3.32l1.48.35a1.65 1.65 0 00-.06.6L5.1 7.37zm3.14-1.04l-.53.17-.34-1.44.87 1.27zm2.15.12a5.12 5.12 0 01-.54-.12l.84-1.19-.3 1.3zm2.52.94L11.02 8.5a.49.49 0 00.14-.25V8.1l-.03-.32 1.77-.39zm-1.65 1.94a1.6 1.6 0 00-.41-.46l-.28-.2L15 8.65l-1.08-.82a5.09 5.09 0 00-1.32-2.38l-1.5 1.9-.05-.79 1.98-2.05-1.39.18A5.02 5.02 0 009 3.93l.34 2.3-.68.04V3l-.77 1.06A5 5 0 005.45 5.4l1.78 1.4c-.2.15-.33.3-.44.45L4.56 4.93l.15 1.4c-.49.78-.77 1.7-.77 2.68l2.63-.34s.25.43.46.6l.05.05L3 9.34l1.07.81a5.1 5.1 0 001.44 2.54l1.13-1.52.01.46.34.04-1.9 1.9 1.35-.18c.75.45 1.63.7 2.56.7h.15l-.28-2.02.47-.07v3l.97-1.08c1.27-.25 2.35-1.4 2.35-1.4L11 11.22c.14-.15.25-.33.33-.52l2.28 2.28-.18-1.52.02-.03c.39-.71.61-1.54.61-2.42v-.05l-2.81.36z" fill="#F47E28"/><path d="M9.67 8.67c.32.16.62.35.9.57.29.22.43.5.43.84 0 .48-.2.86-.62 1.13a2.8 2.8 0 01-1.57.46c-.39 0-.52-.06-.79-.15-.28-.09-.67-.2-1.02-.25V9.9c0-.02 0-.03.04-.04a.64.64 0 01.12-.02c.04 0 .07 0 .11.02.04 0 .06.02.06.04.1.4.4.74.73 1 .33.26.44.43.74.43.33 0 .54-.1.68-.22.14-.11.21-.27.21-.47 0-.24-.14-.45-.42-.61-.29-.17-.6-.33-.92-.5a5.02 5.02 0 01-.92-.56.99.99 0 01-.43-.8c0-.43.2-.78.58-1.07.38-.29.91-.43 1.58-.43.3 0 .56.03.78.09.21.06.48.1.73.15v1.26a.58.58 0 01-.24 0c-.03 0-.06-.02-.07-.03-.1-.36-.26-.63-.46-.84-.2-.2-.45-.3-.75-.3a.98.98 0 00-.6.17.52.52 0 00-.22.43c0 .23.13.42.4.58l.94.5z" fill="#13377D"/></svg>