<!-- by TradingView --><svg width="18" height="18" xmlns="http://www.w3.org/2000/svg"><path fill="#92B7BC" d="M0 0h18v18H0z"/><path d="M11.927 8.688c1.191-.63 2.766-.696 2.835-.699L15 7.98l-.008.23c-.094 2.666-1.466 4.085-2.6 4.806-1.226.778-2.416.924-2.466.93l-.443.052.226-.372c.741-1.219 1.158-2.457 1.24-3.682a6.84 6.84 0 00-.442-2.893 7.796 7.796 0 00-1.496-2.44C7.31 6.375 7.098 8.642 7.096 8.665l-.002.024a5.314 5.314 0 00-.412-.276c.099-.66.525-2.67 2.175-4.265L9.01 4l.157.146c.045.042 1.1 1.04 1.75 2.74a7.29 7.29 0 01.482 2.783l-.002.022a1.94 1.94 0 01-.004.053h.003c-.038 1.097-.33 2.342-1.067 3.687a6.248 6.248 0 001.833-.781c1.453-.93 2.251-2.347 2.375-4.216-.504.046-1.69.204-2.543.71l-.025.015a4.932 4.932 0 00-.042-.47zm-6.932 3.248a5.22 5.22 0 01-1.549-3.513c1.43.066 2.657.583 3.56 1.504.889.907 1.423 2.157 1.552 3.626a5.584 5.584 0 01-3.563-1.617zm3.795 2.057l.24.007-.013-.233c-.2-3.469-2.474-5.737-5.794-5.778L3 7.987v.215a5.634 5.634 0 001.675 4.031 6.043 6.043 0 004.114 1.76z" fill="#fff"/></svg>