<!-- by TradingView --><svg width="18" height="18" xmlns="http://www.w3.org/2000/svg"><path fill="#F2641E" d="M0 0h18v18H0z"/><path d="M12 5c0-1.353-.905-2-2.594-2-1.605 0-2.669.86-2.669 2.157 0 1.069.719 1.475 1.596 1.778.942.331 1.651.379 1.651.974 0 .464-.429.767-1.091.767-.784 0-1.176-.35-1.176-1.05v-.01H6.009C6 7.673 6 7.711 6 7.74 6 9.385 7.25 10 8.743 10c1.419 0 2.921-.634 2.921-2.28 0-1.371-.933-1.674-2.305-2.052-.354-.095-.96-.209-.96-.691 0-.407.382-.672.97-.672.662 0 .923.08.998.695H12zM5 13.984l.537-3H7.57L7.3 13.317l2.232-2.333h2.005l-.537 3H5z" fill="#fff"/></svg>