<!-- by TradingView --><svg xmlns="http://www.w3.org/2000/svg" width="18" height="18" viewBox="0 0 18 18"><path fill="#F0F3FA" d="M0 0h18v18H0z"/><path d="m11.48 5.76.46.59 1.5.7 1.48-.07-3.44-1.22Z" fill="#8B9298"/><path d="m11.87 9.1.34-.87 1.3-.96L15 7.2l-3.13 1.9Z" fill="#5C6670"/><path d="m8.72 4.74.26.45 1.06.52 1.14-.1-2.46-.87Z" fill="#FF8C44"/><path d="m8.5 7.28.38-.65 1.16-.76 1.15-.1-2.7 1.51Z" fill="#FF5000"/><path d="m8.47 7.48.32.69 1.3.9h1.43l-3.05-1.6Z" fill="#EE666C"/><path d="m8.13 11.38.5-1 1.45-1.06 1.46-.02-3.41 2.08Z" fill="#D70036"/><path d="m6.65 4 .15.36.78.39.91-.1L6.65 4Z" fill="#43B6C2"/><path d="m6.1 6.05.42-.53 1.03-.64.93-.1-2.37 1.27Z" fill="#0096A9"/><path d="m6.07 6.2.14.53.9.65h1.11L6.07 6.2Z" fill="#FFC25C"/><path d="m5.28 9.15.53-.75 1.26-.83H8.2l-2.9 1.58Z" fill="#F7A800"/><path d="m5.22 9.38.14.84 1.04 1.14h1.36L5.22 9.38Z" fill="#508898"/><path d="m4 14 .72-1.16 1.62-1.18h1.44L4 14Z" fill="#00586F"/></svg>