<!-- by TradingView --><svg width="18" height="18" viewBox="0 0 18 18" xmlns="http://www.w3.org/2000/svg"><path fill="#00461E" d="M0 0h18v18H0z"/><path d="M9.07 14a5.28 5.28 0 0 1-2.94-.73 2.54 2.54 0 0 1-.85-.88c-.2-.34-.3-.73-.28-1.11v-.41c0-.05 0-.1.03-.15a.34.34 0 0 1 .09-.12.42.42 0 0 1 .14-.08.46.46 0 0 1 .17-.02h.76c.06 0 .11 0 .17.02l.14.08.09.12.03.15v.36c-.01.2.05.41.16.6.11.18.27.34.48.46.44.28 1.09.42 1.9.42.74 0 1.3-.13 1.66-.38.17-.11.3-.26.4-.43.09-.17.13-.36.12-.54a.96.96 0 0 0-.23-.67c-.22-.23-.5-.42-.8-.56-.55-.25-1.1-.47-1.67-.66a20.3 20.3 0 0 1-1.84-.72c-.44-.2-.83-.49-1.13-.83a2 2 0 0 1-.45-1.33c0-.82.34-1.46 1.01-1.92A4.65 4.65 0 0 1 8.9 4c2.04 0 4 .45 4 2.67.01.22-.22.34-.43.33h-.78c-.2.01-.44-.1-.42-.33 0-1.36-1.23-1.39-2.42-1.39-.66 0-1.18.12-1.53.34-.16.11-.3.26-.38.42a.96.96 0 0 0-.1.52c-.02.24.06.47.23.65.2.21.45.38.73.5.35.14.9.34 1.64.59.64.22 1.26.47 1.87.76.47.23.88.54 1.2.91.33.4.5.87.49 1.35.01.37-.08.75-.26 1.09a2.5 2.5 0 0 1-.8.87c-.7.48-1.67.72-2.87.72Z" fill="#fff"/></svg>