<!-- by TradingView --><svg xmlns="http://www.w3.org/2000/svg" width="18" height="18" viewBox="0 0 18 18"><path fill="#F0F3FA" d="M0 0h18v18H0z"/><path d="M6.77 11.45a5.16 5.16 0 0 1 .08-6.17l-.06-.1a5.14 5.14 0 0 0-.8 6.92 4.47 4.47 0 0 0 6.52.85l-.07-.09c-1.92.98-4.3.45-5.67-1.4v-.01zm.48-3.3a4.1 4.1 0 0 1 3.07-4.05V4A4.04 4.04 0 0 0 6.4 8.14a4.03 4.03 0 0 0 3.92 4.13v-.1a4.1 4.1 0 0 1-3.07-4.03zm2.11-2.46a2.67 2.67 0 0 1 3.62-.29l.02-.02a2.68 2.68 0 0 0-3.93 0 3.06 3.06 0 0 0 0 4.15l.02-.02a3.07 3.07 0 0 1 .27-3.82" fill="#F47B20"/></svg>