<!-- by TradingView --><svg xmlns="http://www.w3.org/2000/svg" width="18" height="18" viewBox="0 0 18 18"><path fill="#F0F3FA" d="M0 0h18v18H0z"/><path d="M6.1 8.5H3L5.22 5h3.11l.68 1.17L9.87 5h3.05L15 8.5h-3.1l-.62-.92-.54.92h-3.3l-.66-.96-.68.96z" fill="#999"/><path d="M4.26 12l.53 1h3.54l.5-1H4.25zm4.99 0l.62 1h3.24l.52-1H9.25z" fill="#0C4FA8"/><path d="M4.26 12l-.55-1h10.47l-.56 1H4.26z" fill="#009890"/><path d="M6.1 9.5H3l.71 1.5h10.46L15 9.5h-3.1l-.62 1.32-.54-1.32h-3.3l-.66 1.38L6.1 9.5z" fill="#FD1B29"/></svg>