<!-- by TradingView --><svg width="18" height="18" viewBox="0 0 18 18" xmlns="http://www.w3.org/2000/svg"><path fill="#1F2123" d="M0 0h18v18H0z"/><path d="M6.41 12.5a3.47 3.47 0 0 0 1.51-1c.52-.62.7-1.44.58-2.44a4.63 4.63 0 0 1 .1-1.83c.13-.5.36-.95.68-1.34.45-.54 1-.9 1.53-1.13a.16.16 0 0 0 .01-.3l-1.67-.92a.31.31 0 0 0-.3 0l-4.7 2.6A.28.28 0 0 0 4 6.4v5.22c0 .1.06.2.15.24l1.39.78c.1.05.2.06.3.04.16-.04.36-.09.57-.16Z" fill="#fff"/><path d="M12.46 5.37a.45.45 0 0 0-.3-.04c-.16.04-.36.09-.57.16-.45.16-1.07.47-1.51 1-.52.63-.7 1.45-.58 2.45.1.67.06 1.28-.1 1.83-.13.5-.36.95-.68 1.34-.45.54-1 .9-1.53 1.13a.16.16 0 0 0-.01.3l1.67.92c.1.05.2.05.3 0l4.7-2.6c.1-.06.15-.15.15-.25V6.39c0-.1-.06-.2-.15-.24l-1.39-.78Z" fill="#D9A343"/></svg>