<!-- by TradingView --><svg xmlns="http://www.w3.org/2000/svg" width="18" height="18"><path fill="#02AAD1" d="M0 0h18v18H0z"/><path fill-rule="evenodd" d="M7 5.5a1.5 1.5 0 11-3 0 1.5 1.5 0 013 0zm-1.5 8a1 1 0 100-2 1 1 0 000 2zm0 .5a1.5 1.5 0 100-3 1.5 1.5 0 000 3zm0-3.5a1.5 1.5 0 100-3 1.5 1.5 0 000 3zm7-4a1 1 0 100-2 1 1 0 000 2zm0 .5a1.5 1.5 0 100-3 1.5 1.5 0 000 3zm0 7a1.5 1.5 0 100-3 1.5 1.5 0 000 3zM14 9a1.5 1.5 0 11-3 0 1.5 1.5 0 013 0zM9 7a1.5 1.5 0 100-3 1.5 1.5 0 000 3zm1.5 5.5a1.5 1.5 0 11-3 0 1.5 1.5 0 013 0zM10 9a1 1 0 11-2 0 1 1 0 012 0zm.5 0a1.5 1.5 0 11-3 0 1.5 1.5 0 013 0z" fill="#fff"/></svg>