<!-- by TradingView --><svg width="18" height="18" viewBox="0 0 18 18" xmlns="http://www.w3.org/2000/svg"><path fill="#F0F3FA" d="M0 0h18v18H0z"/><path fill-rule="evenodd" d="M15 9A6 6 0 1 1 3 9a6 6 0 0 1 12 0Zm-.5 0a5.5 5.5 0 0 1-9.28 4h.43l.28-.98c.31.33 1.24.98 2.43.98 1.5 0 2.64-1.02 2.64-2.46 0-1.43-1.33-2.05-2.03-2.21l-1.93-.48c-.3-.06-.87-.35-.87-1.01 0-.83.8-1.04 1.62-1.04.83 0 1.82.77 2.09 2.4h.74V5.4h-.58l-.4.42A2.78 2.78 0 0 0 7.56 5C6.11 5 5 5.76 5 7.37c0 1.55 1.57 1.98 1.99 2.1h.05l.66.17.67.16.11.03c.4.1 1.27.32 1.27 1.17 0 .94-.98 1.07-1.62 1.07-.65 0-2.09-.27-2.35-2.27H5v2.97A5.5 5.5 0 1 1 14.5 9Zm-1.75.5a1.25 1.25 0 1 0 0-2.5 1.25 1.25 0 0 0 0 2.5Zm-.04-.71a.54.54 0 1 0 0-1.08.54.54 0 0 0 0 1.08ZM14 10h-2.5v.5H14V10Z" fill="#E1892A"/></svg>