<!-- by TradingView --><svg xmlns="http://www.w3.org/2000/svg" width="18" height="18"><path fill="#FDD000" d="M0 0h18v18H0z"/><path d="M10.08 4.22c.33-.63 1.55.27 1.76.57.38.54.05 1.96-.78 1.27a3.52 3.52 0 01-.59-.68 8.83 8.83 0 00-.18-.24c-.19-.27-.34-.61-.2-.92zm-1.8-.16c.4-.02.82-.04 1.18.16.35.13.33.74.03.93-.18.11-.35.22-.55.3-.08.04-.18.09-.3.13-.44.19-1.05.44-1.05.88a2.68 2.68 0 00.29 1.67c.09.16.18.33.11.5-.08.22-.37.3-.6.24-.73-.22-1.25-.55-1.39-1.31 0-.31.1-.61.18-.9l.08-.26.02-.02c.24-.23.43-.41.43-.76 0-.35.04-.5.29-.78.24-.25.76-.78 1.15-.78h.14zm.45 4.43c-.2.03-.43.08-.64.13.1.71.93 1.28 1.66 1.28.17 0 .28.05.43.12.34.18.76.47.76.87v.15c0 .37.01.86-.31 1.09l-.03.02c-.36.26-1.1.79-1.55.7a.6.6 0 00-.2-.03c-.26-.04-.54-.08-.73-.26-.09 0-.18.03-.27.05-.12.02-.24.05-.37.05-.15-.02-.2-.37-.25-.68-.03-.2-.06-.37-.1-.45-.17-.23-.49-.3-.76-.26-.2.06-.27.31-.26.5.05.48.34.92.66 1.26a.6.6 0 00.1.08c.07.04.13.07.16.17 0 .19.21.46.34.6.15.13.37.12.58.12h.1l.53-.02a6.18 6.18 0 00.97-.06l.42-.03c.27.03.5-.11.7-.27l.35-.32c.45-.4.9-.79.98-1.42.01-.18-.04-.35-.1-.51a1.3 1.3 0 01-.08-.57c0-.53 0-.98-.39-1.43a7.41 7.41 0 00-.18-.18l-.19-.17a1.9 1.9 0 00-.85-.37h-.35c-.14 0-.3.02-.44 0-.1-.01-.2-.05-.32-.08a1.25 1.25 0 00-.37-.08z" fill="#211814"/></svg>