<!-- by TradingView --><svg width="18" height="18" xmlns="http://www.w3.org/2000/svg"><path fill="#184185" d="M0 0h18v18H0z"/><path d="M11.333 10.791l.607.547.09.081c.084.075.303.175.303.468v1.672l-.333.058v-1.949h-.52c-.388 0-.615 0-.948-.196L8.31 9.386c-.36-.36-.411-.452-.417-.718h.283c.306 0 .638-.193.823-.385.34-.351.336-.891.335-.908v-.041H9v.045c0 .005.013.431-.232.684-.124.127-.374.271-.593.271H6.333v.681L6 9.071V8.01c-.001-.045.025-.19.096-.259.07-.07.206-.084.252-.083H8V6h-.333l-.544.605s-.02.027-.05.052a.163.163 0 01-.043.01h-.696V5h1.32c1.633 0 2.68.905 2.68 2.353v1.424l.741.928s.042.048.072.096c.1.157.186.336.186.531v.46zm-2.666.21v1.09c.001.049.001.153-.03.188-.037.042-.123.053-.16.056H7.172l-.06-.332L8.333 12v-1.269c0-.331.191-.45.453-.446l.797.716h-.916zm3.513-3.667c-.843 0-.847.598-.847 1.479v.661l-.666-.813V7.353c0-.82-.336-1.502-.883-1.975-.525-.452-1.26-.711-2.13-.711H5.982c-.593 0-.648-.24-.648-.436V4H5v.231c0 .233.096.77.98.77H6v2h1.041c.031-.003.138-.007.215-.067a.601.601 0 00.12-.122l.29-.278v.8H6.36c-.048-.002-.314.016-.489.19-.182.18-.205.463-.204.49V9.46l1-.185v-.608h.907c.01.403.126.56.513.947l.427.393c-.298 0-.514.313-.514.648v1.012H6.72l.192 1H8.49a.617.617 0 00.385-.176c.127-.142.127-.369.126-.407v-.75h.898l.41.364c.224.233.666.303 1.172.303h.187V14l1-.175v-1.938c0-.437-.319-.611-.426-.707l-.09-.08-.484-.456V8.813c0-.927.003-1.146.513-1.146h.452c-.063.117-.17.334-.515.334H12v.333h.117c.718 0 .877-.586.88-.838L13 7.334h-.82z" fill="#FFFFFE"/></svg>