<!-- by TradingView --><svg width="18" height="18" viewBox="0 0 18 18" xmlns="http://www.w3.org/2000/svg"><path fill="#01332B" d="M0 0h18v18H0z"/><path d="M8 4c.98 0 1.96.76 1.96 1.76 0 .17-.02.31-.08.43h-.6s.07-.16.07-.49c0-.45-.58-1.08-1.37-1.08-.82 0-1.37.75-1.37 1.52 0 .62.6 1.3 1.4 1.3h1.68c1.77-.02 3.31 1.2 3.31 3.1C13 12.5 11.78 14 9.7 14c-1.87 0-3.4-1.41-3.4-3.2 0-1.27.56-1.82.8-2.11h.73c-.1.1-.92.92-.92 2.06 0 1.34 1.22 2.63 2.78 2.63 1.64 0 2.7-1.3 2.7-2.85 0-1.45-1.35-2.48-2.7-2.47H8c-.98 0-2-.8-2-1.87C6 4.99 6.82 4 8 4Z" fill="#05DD4D"/></svg>