<!-- by TradingView --><svg width="18" height="18" xmlns="http://www.w3.org/2000/svg"><path fill="#004A90" d="M0 0h18v18H0z"/><path d="M13 4l-1.13 2H9.14s-1.505.127-2.282 1.203c-.753 1.1-.588 1.736-.353 2.567 0 0-1.812-1.076-1.459-3.154 0 0 .142-1.59 2.189-2.298 0 0 .635-.245 1.835-.318H13z" fill="#fff"/><path d="M11 9.037c0 1.149-.894 2.102-2 2.102-1.13 0-2.023-.953-2.023-2.102 0-1.15.894-2.103 2.023-2.103 1.106 0 2 .954 2 2.103z" fill="#fff"/><path d="M5 14l1.13-2h2.73s1.14 0 2.282-1.203c.753-1.1.588-1.736.329-2.567 0 0 1.835 1.076 1.482 3.154 0 0-.14 1.59-2.188 2.298 0 0-.635.245-1.835.318H5z" fill="#fff"/></svg>