<!-- by TradingView --><svg xmlns="http://www.w3.org/2000/svg" width="18" height="18" viewBox="0 0 18 18"><path fill="url(#ayuy43pa5)" d="M0 0h18v18H0z"/><path d="m10.95 4.37.06.06-.01.08a.11.11 0 0 1-.13.05s-1.13-.42-2.39.1a3.73 3.73 0 0 0-1.8 1.78c-.02.03-.05 0-.05 0l-.28-.27c-.02-.02 0-.06 0-.06s.53-1.42 2.04-1.92c1.51-.51 2.56.18 2.56.18ZM14 8.23a.1.1 0 0 0-.03-.07 3.28 3.28 0 0 0-2.51-.87 3.53 3.53 0 0 0-2.5 1.34 16.03 16.03 0 0 0-.3.32 3.25 3.25 0 0 1-4.5.74.12.12 0 0 0-.13 0 .08.08 0 0 0-.03.09c0 .02.01.05.03.07.66.62 1.6.93 2.52.86a3.53 3.53 0 0 0 2.49-1.34l.06-.06.23-.26c.28-.3.55-.6.88-.81a3.25 3.25 0 0 1 3.61.08c.05.03.1.02.14-.01.03-.03.04-.05.04-.08Zm-1.05-1.5a.12.12 0 0 0-.05-.07s-.95-.83-2.52-.53c-1.56.3-2.32 1.66-2.32 1.66s-.02.03 0 .06l.28.28s.03.03.05 0c0 0 .72-1.17 2.03-1.52 1.3-.34 2.38.23 2.38.23.04.02.1 0 .13-.03a.09.09 0 0 0 .02-.08Zm-1.03-1.26c.03 0 .04.04.05.06a.1.1 0 0 1-.02.08c-.02.04-.08.06-.13.04 0 0-1.1-.48-2.4-.04-1.27.44-1.9 1.67-1.9 1.67-.01.03-.04 0-.04 0l-.27-.27c-.02-.02 0-.05 0-.05s.63-1.4 2.17-1.82a3.13 3.13 0 0 1 2.54.33ZM7 13.57c0 .02.03.04.05.06 0 0 1.05.7 2.56.18a3.53 3.53 0 0 0 2.05-1.92l-.01-.06-.28-.27s-.02-.03-.04 0c0 0-.55 1.26-1.8 1.78-1.26.52-2.4.1-2.4.1a.11.11 0 0 0-.12.05c-.02.02-.02.05-.01.08Zm-.92-1.04-.04-.07.01-.08c.03-.04.08-.06.13-.04 0 0 1.11.49 2.4.04a3.71 3.71 0 0 0 1.9-1.67c.02-.03.04 0 .04 0l.27.27c.02.03 0 .06 0 .06s-.63 1.4-2.17 1.81c-1.52.42-2.54-.32-2.54-.32Zm-1.02-1.26c0 .03.02.05.04.07 0 0 .96.83 2.52.53 1.56-.3 2.32-1.66 2.32-1.66s.02-.03 0-.06l-.27-.28s-.03-.03-.05 0c0 0-.72 1.18-2.03 1.52a3.55 3.55 0 0 1-2.38-.23c-.05-.02-.1 0-.13.03-.02.02-.03.06-.02.08Z" fill="#fff"/><defs><linearGradient id="ayuy43pa5" x1="3.35" y1="3.12" x2="21.9" y2="24.43" gradientUnits="userSpaceOnUse"><stop stop-color="#1A1E21"/><stop offset="1" stop-color="#06060A"/></linearGradient></defs></svg>