<!-- by TradingView --><svg xmlns="http://www.w3.org/2000/svg" width="18" height="18" viewBox="0 0 18 18"><path fill="url(#az5p2sh15)" d="M0 0h18v18H0z"/><path d="M4.05 7.7a1.16 1.16 0 0 1 0-1.67 7.1 7.1 0 0 1 9.9-.04c.46.46.46 1.2 0 1.66-.47.46-1.23.46-1.7.01a4.66 4.66 0 0 0-6.51.04c-.47.44-1.22.46-1.7 0z" fill="url(#bz5p2sh15)"/><path d="M5.57 13.19a6.75 6.75 0 0 1-1.84-6.66c.18-.63.84-1 1.47-.84.64.17 1.02.82.85 1.44a4.44 4.44 0 0 0 .47 3.44 4.63 4.63 0 0 0 2.8 2.11c.64.17 1.03.82.86 1.44-.17.62-.83 1-1.46.84a6.86 6.86 0 0 1-3.15-1.77z" fill="url(#cz5p2sh15)"/><path d="M8.16 14.66a1.19 1.19 0 0 1-.3-.53c-.18-.62.2-1.27.83-1.45a4.51 4.51 0 0 0 3.25-5.55c-.17-.62.2-1.27.84-1.45.64-.16 1.3.2 1.48.83a6.9 6.9 0 0 1-4.94 8.45 1.2 1.2 0 0 1-1.16-.3z" fill="url(#dz5p2sh15)"/><defs><linearGradient id="az5p2sh15" x1="9" y1="0" x2="9" y2="18" gradientUnits="userSpaceOnUse"><stop stop-color="#011A46"/><stop offset="1" stop-color="#0A3859"/></linearGradient><linearGradient id="bz5p2sh15" x1="6.11" y1="4.01" x2="11.8" y2="9.77" gradientUnits="userSpaceOnUse"><stop stop-color="#00A6D3"/><stop offset="1" stop-color="#17EFFF"/></linearGradient><linearGradient id="cz5p2sh15" x1="5.91" y1="14.23" x2="7.95" y2="6.41" gradientUnits="userSpaceOnUse"><stop stop-color="#166CFE"/><stop offset="1" stop-color="#17EFFF"/></linearGradient><linearGradient id="dz5p2sh15" x1="15.02" y1="9.27" x2="7.11" y2="11.45" gradientUnits="userSpaceOnUse"><stop stop-color="#0C66EE"/><stop offset="1" stop-color="#0FD8FF"/></linearGradient></defs></svg>