<!-- by TradingView --><svg xmlns="http://www.w3.org/2000/svg" width="18" height="18"><path fill="#333" d="M0 0h18v18H0z"/><path d="M13.49 6l-.01-.01zm-.01-.01c-.13-.17-1.15-.63-1.15-.63-.26 0-.33-.14-.39-.26-.04-.09-.08-.17-.2-.17-.17 0-.4.34-.4.34l-.93-.76h-.18l.32.28c.17.29 0 .56-.32.33-.33-.24-.49-.04-.21.1.27.15.29.52-.15.62-.4 0-.73.52-.95.87-.12.2-.22.36-.28.33 0 0-.66-.54-.81-.54-.35 0-.45.33.15.54.43.53-.18.64-.31.53-.34-.31-.91-.16-.91-.16s-.13-.18 0-.37a3.05 3.05 0 00-.33-.2 2 2 0 01-.33-.2V6l-.85 1.44H4A5.27 5.27 0 019.11 3.7c1.81 0 3.41.9 4.37 2.29zm-.58 5.2H14a5.34 5.34 0 01-9.49.45 5.34 5.34 0 008.39-.46zM7.14 8H4.5a.5.5 0 00-.5.5v.87c0 .28.23.5.5.5h1.7v.38H4V11h2.64a.5.5 0 00.5-.5v-.87a.5.5 0 00-.5-.5h-1.7v-.38h2.2v.11-.11h2.2v1.12h.88V8.5a.5.5 0 00-.5-.5H7.14zm6.29 0h-2.65a.5.5 0 00-.5.5v.87c0 .28.23.5.5.5h1.71v.38h-4.4V9.12h-.87v1.38c0 .28.22.5.5.5h5.21a.5.5 0 00.5-.5v-.87a.5.5 0 00-.5-.5h-1.7v-.38h2.2V8z" fill="#fff"/></svg>