<!-- by TradingView --><svg width="18" height="18" viewBox="0 0 18 18" xmlns="http://www.w3.org/2000/svg"><path fill="#F0F3FA" d="M0 0h18v18H0z"/><path d="m14.5 7.92-1.53-.64a.13.13 0 0 1-.07-.06C11.08 4 6.08 4.59 5.38 8.24c-.63 3.23 3 5.58 5.95 3.98.12-.07.26-.12.4-.14a3.54 3.54 0 0 0 2.46-1.8l.33-.53c0 .05.02.13 0 .18a5.12 5.12 0 0 1-3.17 3.66c-3.76 1.52-7.75-1.41-7.32-5.25.27-2.4 2.33-5.16 5.23-4.11h.1c2.74-.98 4.71 1.4 5.14 3.7Z" fill="#00AD51"/><path d="M14.5 7.92c.12.12.27.22.44.3.03.01.05.04.06.07.04.31-.35 1.13-.48 1.46l-.33.53a3.54 3.54 0 0 1-2.45 1.8c-.15.02-.29.07-.41.14-2.94 1.6-6.58-.75-5.95-3.98.7-3.65 5.7-4.24 7.52-1.02.01.03.04.05.07.06l1.53.64Zm-2.86-.6C9.81 7.3 8.84 8.7 8.8 10.3a.1.1 0 0 1-.02.05.1.1 0 0 1-.04.04l-1.05.36c-.1.04-.15.1-.08.2l.05.04a.1.1 0 0 0 .06 0l1.08-.39c.03-.01.06 0 .08.02.41.38.87.7 1.37.98l-.44.07a7.29 7.29 0 0 1-1-.74.07.07 0 0 0-.07 0l-1.2.41c-.05.02-.08 0-.1-.04l-.23-.6c-.01-.04 0-.07.05-.08l1.22-.43c.01 0 .02 0 .02-.02a.04.04 0 0 0 0-.04l-.03-.01a2.32 2.32 0 0 0-2.1.89c-.02.02-.02.05 0 .07a3.87 3.87 0 0 0 4.65.98c.04-.01.04-.03.02-.06a.81.81 0 0 0-.24-.24c2.15.36 3.43-1.6 3.88-3.3a.1.1 0 0 0 0-.06 10.17 10.17 0 0 0-2.31-1.02c.07 0 .14-.03.2-.08.03-.02.03-.05.01-.08a3.7 3.7 0 0 0-3.31-1.85A3.8 3.8 0 0 0 6 7.23a.1.1 0 0 0 0 .05l.03.04a.1.1 0 0 0 .05.02c.58.19 1.02.04 1.32-.45l.01-.01a.02.02 0 0 1 .02 0h.01c.5.74 1.33.7 1.84.02.02-.03.05-.03.07 0 .4.7 1.36.7 1.77 0 .02-.03.04-.03.07 0 .11.17.26.31.44.42Z"/><path d="M11.64 7.32c.23.1.47.12.72.07a10.16 10.16 0 0 1 2.31 1.02.1.1 0 0 1 0 .06c-.44 1.7-1.72 3.66-3.87 3.3a1.48 1.48 0 0 0-.55-.16c-.5-.27-.96-.6-1.37-.98a.08.08 0 0 0-.08-.02L7.72 11a.1.1 0 0 1-.06 0 .09.09 0 0 1-.05-.03c-.07-.1-.03-.16.08-.2l1.05-.36a.1.1 0 0 0 .04-.04.1.1 0 0 0 .02-.05c.04-1.6 1-3.01 2.84-3Zm-1.42 2.81 1.18-.4a.13.13 0 0 1 .1 0l1.14.5c.12.04.22.05.24-.1.02-.07-.01-.11-.07-.14l-.88-.38-.01-.02a.04.04 0 0 1 .02-.06l1.6-.57c.05-.02.07-.05.06-.1V8.8l-.03-.05a.13.13 0 0 0-.14-.04l-1.6.55h-.02v-.03c.09-.19.5-.86.3-1.01a.1.1 0 0 0-.16.04l-.54 1.1a.14.14 0 0 1-.08.08l-1.17.41c-.04.02-.06 0-.04-.03l.7-1.46a.1.1 0 0 0-.03-.13.11.11 0 0 0-.05-.02l-.1-.02c-.04 0-.07 0-.08.04l-.92 1.89a.11.11 0 0 0 0 .09c0 .02.03.05.06.06.63.29 1.26.57 1.9.84.11.05.2.02.27-.08a.08.08 0 0 0 0-.07l-.01-.03-.03-.02-1.61-.72c-.05-.02-.04-.04 0-.06Z" fill="#00AD51"/><path d="m10.22 10.19 1.61.72.03.02a.08.08 0 0 1 .02.06l-.01.04c-.07.1-.16.13-.28.08l-1.89-.84a.12.12 0 0 1-.06-.06.11.11 0 0 1 0-.1l.92-1.88c.01-.04.04-.05.07-.04l.11.02a.11.11 0 0 1 .08.06.1.1 0 0 1 0 .09l-.7 1.46c-.02.03 0 .05.04.03l1.17-.41a.14.14 0 0 0 .08-.07l.54-1.11a.1.1 0 0 1 .12-.06.1.1 0 0 1 .04.02c.2.15-.21.82-.3 1.01v.03h.02l1.6-.56a.13.13 0 0 1 .1.01.12.12 0 0 1 .06.09l.01.07c.01.04-.01.07-.06.09l-1.6.57-.02.01-.01.03v.02l.02.02.88.38c.06.03.08.07.07.14-.02.15-.12.14-.24.1l-1.14-.5a.13.13 0 0 0-.1 0l-1.18.4c-.05.02-.05.04 0 .06Z"/><path d="M9.81 11.68c-.18.12-.34.27-.46.45-.02.02-.04.02-.06 0-.53-.67-1.12-.7-1.75-.09a3.57 3.57 0 0 1-1.17-.95c-.02-.02-.02-.05 0-.07a2.32 2.32 0 0 1 2.13-.88v.04c0 .01 0 .02-.02.02l-1.22.43c-.05.01-.06.04-.05.09l.23.6c.02.03.05.05.1.03l1.2-.42.07.01c.31.28.65.53 1 .74Z" fill="#D05D60"/></svg>