<!-- by TradingView --><svg xmlns="http://www.w3.org/2000/svg" width="18" height="18" viewBox="0 0 18 18"><path fill="#F0F3FA" d="M0 0h18v18H0z"/><circle cx="13.24" cy="5.7" fill="#871625" r=".96"/><circle cx="11.46" cy="4.35" fill="#871625" r=".93"/><circle cx="9.5" cy="3.81" fill="#871625" r=".81"/><circle cx="7.44" cy="3.96" fill="#A33F2F" r=".75"/><circle cx="5.47" cy="5.03" fill="#C06134" r=".69"/><circle cx="4.22" cy="6.79" fill="#DF813A" r=".64"/><circle cx="3.59" cy="8.8" fill="#F59A3E" r=".59"/><circle cx="3.9" cy="10.91" fill="#F39D3E" r=".55"/><circle cx="4.9" cy="12.71" fill="#F89B3C" r=".5"/><circle cx="6.64" cy="14.01" fill="#F89B3C" r=".45"/><circle cx="8.68" cy="14.6" fill="#F89B3C" r=".4"/><circle cx="10.78" cy="14.36" fill="#D77839" r=".35"/><circle cx="12.63" cy="13.23" fill="#B45530" r=".3"/><path d="M9 12a3 3 0 0 0 2.8-4.07 1.4 1.4 0 1 1-1.27-1.51A3 3 0 1 0 9 12Z" fill="#BBBCBE"/></svg>