<!-- by TradingView --><svg width="18" height="18" viewBox="0 0 18 18" xmlns="http://www.w3.org/2000/svg"><path fill="url(#af2kikgej)" d="M0 0h18v18H0z"/><path d="M8.98 7.96c.1.01.34.03.34.14a8.97 8.97 0 0 0-.01.38c-.04.01-.07-.02-.07-.06-.01-.16-.16-.27-.32-.31v.01l.04.01.01.02.01.81c0 .02.01.03.03.03h.02c.25.17.38.4.36.7 0 .07-.06.16-.1.23a.6.6 0 0 1-.27.24v.03l.01.02.03.14c.03.1.28.05.35.1l.01.01c.01.09-.1.1-.15.1a39.7 39.7 0 0 0-1-.03c-.07 0-.08-.08-.02-.1.14-.03.22 0 .25-.17l-.01-.02a1.03 1.03 0 0 1-.4-.1l-.01-.02a17.62 17.62 0 0 1 .04-.5.03.03 0 0 1 .04.02c.01.13.05.28.17.36.15.09.45.15.6 0h-.01a.07.07 0 0 0-.04.02l-.02.02a.6.6 0 0 1-.19.03H8.55l-.01-.01v-.9h-.01c-.1-.03-.23-.16-.28-.24-.03-.04-.05-.1-.07-.15a.54.54 0 0 1 .14-.63A.71.71 0 0 1 8.6 8h-.04a.01.01 0 0 1-.01 0c-.02-.1-.01-.28-.15-.3-.06 0-.19-.01-.23-.04a.03.03 0 0 1 0-.05h1.1c.17 0 .3.01.37.03.35.09.57.34.55.71a.84.84 0 0 1-.6.82.64.64 0 0 1-.28.04.03.03 0 0 1-.01-.06c.22-.08.4-.22.45-.46.09-.45-.12-.9-.62-.92-.13 0-.11.1-.15.18a.01.01 0 0 0 0 .01Zm-.17.16h.06a.01.01 0 0 0 0-.02.18.18 0 0 0-.06 0 .01.01 0 0 0-.01 0 .01.01 0 0 0 .01.02Zm-.15.03c.02-.02.07-.01.09-.03V8.1h-.01l-.1.03h-.01v.02h.03Zm-.13.09c-.14.1-.07.29 0 .4h.01c.02-.02 0-.06 0-.08a41.09 41.09 0 0 1 0-.32ZM9 9.53v.35c.02 0 .03-.02.05-.05a.4.4 0 0 0 .01-.12V9.7a.5.5 0 0 0-.02-.12.12.12 0 0 0-.02-.04L9 9.53Z" fill="#D2AA71"/><path fill-rule="evenodd" d="M9 15A6 6 0 1 0 9 3a6 6 0 0 0 0 12Zm4.87-8.94a5.68 5.68 0 0 0-9.74 0l.57.37a5 5 0 0 1 8.62.03l.55-.4Zm-.06 5.98a5.68 5.68 0 0 1-9.63-.01l.56-.4a5 5 0 0 0 8.5.03l.57.38ZM9 13.39A4.39 4.39 0 1 0 9 4.6a4.39 4.39 0 0 0 0 8.78ZM11.67 9a2.67 2.67 0 1 1-5.34 0 2.67 2.67 0 0 1 5.34 0Zm-.45 0a2.22 2.22 0 1 1-4.44 0 2.22 2.22 0 0 1 4.44 0Z" fill="#D2AA71"/><circle opacity=".7" cx="5.66" cy="9.06" fill="#D2AA71" r=".73"/><circle opacity=".7" cx="12.48" cy="9.06" fill="#D2AA71" r=".73"/><path opacity=".5" d="M11.7 10.41a3.04 3.04 0 0 1-5.44-.09l-.62.58a3.86 3.86 0 0 0 6.67.09l-.61-.58Zm-.13-3.04a3.04 3.04 0 0 0-5.2.09l-.57-.62a3.85 3.85 0 0 1 6.33-.1l-.56.63Z" fill="#D2AA71"/><defs><linearGradient id="af2kikgej" x1="3.35" y1="3.12" x2="21.9" y2="24.43" gradientUnits="userSpaceOnUse"><stop stop-color="#1A1E21"/><stop offset="1" stop-color="#06060A"/></linearGradient></defs></svg>