<!-- by TradingView --><svg xmlns="http://www.w3.org/2000/svg" width="18" height="18" viewBox="0 0 18 18"><path fill="#233E99" d="M0 0h18v18H0z"/><path d="M16 8.57c.12 1.9-2.9 3.64-6.77 3.87-3.86.23-7.1-1.13-7.23-3.04-.12-1.91 2.9-3.64 6.77-3.87 3.86-.23 7.1 1.13 7.23 3.04Z" fill="#fff"/><path d="M11.69 10.9c-3.86 1.6-7.3.85-8.55.28.28 1.08 3.42 1.33 4.96 1.32 1.82-.25 3.87-.5 5.62-1.76 1.4-1 1.4-1.96 1.23-2.3a4.8 4.8 0 0 0-3.6-1.45c-2.28.06-3.48.97-3.41 1.26.07.29 1.08.46 2.56.43 1.5-.03 3.13.07 3.15.74.01.53-1.3 1.2-1.96 1.48Z" fill="url(#ax3b55hlj)"/><path d="M11.07 6.68c-2.7.22-3.2 1.12-3.13 1.54.06-.22.74-.97 3.11-1.2 1.9-.2 3.4.87 3.9 1.42-.75-1.56-2.9-1.83-3.88-1.76Z" fill="#21409A"/><path d="M5.1 6.88c1.98-.92 5.08-.85 6.38-.7-3.9 0-6.1 1.17-6.7 1.76-.08.08-.6.41-.6.87 0 .65 1.1 1.03 2.83 1.13 1.39.07 2.04.33 2.19.44-.8.6-2.2.78-2.8.79-2.49.02-3.5-1.06-3.57-1.6-.08-.54-.19-1.54 2.28-2.7Z" fill="url(#bx3b55hlj)"/><path d="M9.12 9.76c.5.23.26.52.07.63-.5-.27-1.26-.41-2.63-.47-1.38-.06-2.4-.5-2.4-1.08 0-.42.4-.75.59-.88-.28.28-.31.58-.3.69 0 .75 1.8.89 2.69.86.46-.01 1.5.03 1.98.25Z" fill="#21409A"/><defs><linearGradient id="ax3b55hlj" x1="9.08" y1="6.98" x2="9.55" y2="10.94" gradientUnits="userSpaceOnUse"><stop stop-color="#008FD4"/><stop offset="1" stop-color="#233E99"/></linearGradient><linearGradient id="bx3b55hlj" x1="2.8" y1="9.11" x2="7.14" y2="8.93" gradientUnits="userSpaceOnUse"><stop stop-color="#243C98"/><stop offset="1" stop-color="#008FD4"/></linearGradient></defs></svg>