<!-- by TradingView --><svg width="18" height="18" viewBox="0 0 18 18" xmlns="http://www.w3.org/2000/svg"><path fill="#F0F3FA" d="M0 0h18v18H0z"/><path d="m8.44 12.7-.04.3h1.16l.04-.3H8.44ZM3.1 10.63l-.1.3h5.35c.25 0 .35-.3.35-.39-.03.07-.2.09-.29.09H3.1ZM11.01 10.7s-.03.22 0 .3h3.13c.66 0 .75-.55.86-.89-.16.48-.61.57-.8.6h-3.19ZM7.14 8.33l-.1.28H4.28c-.79 0-.79-.55-.76-.83 0 .46.4.53.6.55h3.02ZM5.92 6.39l-.06.28h3.5v-.28H5.92Z"/><path d="m10 5-.31 1H5.68l-.31 1h3.36c.34 0 .66.22.57.5l-.7 2.25c-.05.15-.2.25-.38.25H3l.32-1h4l.22-1H4.1c-.26 0-.47-.2-.46-.42l.01-.09.7-2.15c.06-.2.27-.34.5-.34H10Z" fill="#E81C73"/><path d="M7.77 7.72H4.18L3.95 8h3.6l.22-.28ZM5.55 5.72h3.9l.23.28H5.77l-.22-.28ZM7.82 9.72H3.34L3 10h5.1l-.28-.28Z" fill="#072620"/><path d="m8.4 12 1.48-5h4.5c.41 0 .71.36.6.72l-.54 1.67c-.13.4-.48.61-.95.61H10.3l-.6 2H8.4Zm5.1-3.89h-2.81L10.5 9h2.81l.19-.89Z" fill="#E81C73"/><path d="m8.6 11.7-.2.3h1.29l-.24-.3H8.6Z"/><path d="M9.98 9.7h3.3l.22.3h-3.3l-.22-.3ZM13.5 8.3h-2.82L10.5 8h3.3l-.3.3Z" fill="#072620"/></svg>