<!-- by TradingView --><svg width="18" height="18" viewBox="0 0 18 18" xmlns="http://www.w3.org/2000/svg"><path fill="url(#ak3s0yaju)" d="M0 0h18v18H0z"/><path d="M5.56 5c2.07.13 2.4 1.68 2.3 2.4h-.93c0-1.02-.9-1.36-1.37-1.4-.54-.01-1.56.2-1.56.89 0 1.13.44 1.25 2.23 1.83 1.78.6 1.78 1.79 1.76 2.1-.01.31-.13 2.2-2.68 2.18-2.04-.01-2.38-1.65-2.3-2.4H4c0 .77.46 1.43 1.46 1.4 1.01-.03 1.48-.53 1.54-1.18.06-.65-.46-.91-.77-1.02l-1.66-.54a2.43 2.43 0 0 1-1.56-1.94C2.98 5.37 4.7 4.96 5.56 5Z" fill="#68C0B4"/><path fill-rule="evenodd" d="M9 5h3.5a2.5 2.5 0 0 1 0 5H10v3H9V5Zm1 1h2.5a1.5 1.5 0 0 1 0 3H10V6Z" fill="#fff"/><defs><linearGradient id="ak3s0yaju" x1="3.35" y1="3.12" x2="21.9" y2="24.43" gradientUnits="userSpaceOnUse"><stop stop-color="#1A1E21"/><stop offset="1" stop-color="#06060A"/></linearGradient></defs></svg>