<!-- by TradingView --><svg width="18" height="18" viewBox="0 0 18 18" xmlns="http://www.w3.org/2000/svg"><path fill="#ED1C24" d="M0 0h18v18H0z"/><path d="M7.88 4.13a5.01 5.01 0 0 0-3.5 2.94l4.1 4.51 3.5 1-.34-3.52-3.76-4.93Zm-3.6 3.21a5 5 0 0 0-.23 2.37l1.47 1.02 2.48.71-3.72-4.1Zm-.16 2.74.06.27.55.16-.61-.43Zm.16.57a5 5 0 0 0 1.12 1.82l2.3.1-2.3-1.6-1.12-.32Zm1.4 2.1a4.98 4.98 0 0 0 4 1.2l-1.57-1.1-2.42-.1Zm4.38 1.14.12-.03-.86-.95-.72-.03 1.46 1Zm.4-.1a4.98 4.98 0 0 0 1.5-.76l-2.27-.1.78.85Zm1.94-1.12c.4-.37.74-.82 1-1.3l-.72-.95-.28 2.25Zm1.14-1.57.08-.2-.78-1.69-.1.83.8 1.06Zm.21-.54a5 5 0 0 0-.54-4.26l-.31 2.42.85 1.84ZM13 5.98c-.4-.53-.91-.98-1.5-1.31l.13 1.3 1.07 2.3.3-2.29Zm-1.77-1.46-.34-.16.4.89-.06-.73Zm-.7-.28a5 5 0 0 0-2.35-.17l3.43 4.49-.24-2.53-.83-1.8Zm1.68 7.89-.25-2.68.5.67-.25 2.01Zm.43-3.36-.13.98-.6-.8-.2-2.2.93 2.02Zm-3.19 3.88 2.13.1-2.76-.8.63.7ZM6.2 11.2l2.14.61.74.82-.88-.04-2-1.4Z" fill="#fff"/></svg>