<!-- by TradingView --><svg xmlns="http://www.w3.org/2000/svg" width="18" height="18" viewBox="0 0 18 18"><path fill="#F0F3FA" d="M0 0h18v18H0z"/><path fill-rule="evenodd" d="M16 7.02a96.57 96.57 0 0 0-4.9-.5c-1.67-.1-3.21.3-3.24 1.8-.02 1.51 1.57 1.88 3.05 1.87A5.62 5.62 0 0 0 16 7.02Zm-.64.31c-.95-.1-3.13-.32-4.3-.38-1.47-.08-2.82.23-2.84 1.38-.02 1.15 1.37 1.44 2.67 1.43 1.3-.02 3.2-.4 4.47-2.43Z" fill="#3D4643"/><path fill-rule="evenodd" d="M11.48 8.48c-.9-.12-3-.36-4.12-.43-1.4-.08-2.7.26-2.72 1.53-.02 1.26 1.32 1.57 2.56 1.56a4.72 4.72 0 0 0 4.28-2.66Zm-.61.3c-.77-.08-2.54-.26-3.5-.31-1.18-.06-2.28.19-2.3 1.13-.02.93 1.12 1.16 2.17 1.15a4.13 4.13 0 0 0 3.63-1.97Z" fill="#12A6B3"/><path fill-rule="evenodd" d="M7.66 9.8c-.75-.1-2.48-.3-3.4-.35-1.17-.07-2.24.21-2.26 1.26C1.98 11.75 3.09 12 4.12 12a3.9 3.9 0 0 0 3.54-2.2Zm-.64.26c-.6-.06-2.01-.2-2.77-.25-.95-.04-1.82.16-1.84.9-.01.74.89.93 1.73.92.83 0 2.06-.26 2.88-1.57Z" fill="#3D4643"/></svg>