<!-- by TradingView --><svg width="18" height="18" viewBox="0 0 18 18" xmlns="http://www.w3.org/2000/svg"><path fill="#F0F3FA" d="M0 0h18v18H0z"/><path d="M12.48 9.14c-.35-.4-.76-.7-1.24-.87a11.1 11.1 0 0 0-1.73-.47 6.5 6.5 0 0 1-1.15-.3C8.13 7.4 8 7.25 8 7.05c0-.4.39-.6 1.17-.6.8 0 1.63.23 2.52.7l.9-2.33a5.69 5.69 0 0 0-1.58-.62C10.44 4.07 9.82 4 9.21 4c-.9 0-1.67.14-2.3.42-.63.28-1.1.67-1.42 1.17A2.9 2.9 0 0 0 5 7.22c0 .7.17 1.25.52 1.65.34.41.75.7 1.21.88.47.18 1.05.34 1.74.5.54.11.93.22 1.16.32.24.1.36.25.36.45 0 .17-.1.3-.27.39-.18.09-.49.13-.9.13a5 5 0 0 1-.37-.02l-2.4 2.05.56.16c.7.18 1.44.27 2.19.27.9 0 1.67-.14 2.3-.43.63-.3 1.1-.68 1.42-1.17.32-.48.48-1.03.48-1.63 0-.69-.18-1.23-.52-1.63Z"/></svg>