<!-- by TradingView --><svg xmlns="http://www.w3.org/2000/svg" width="18" height="18"><path fill="#012A4D" d="M0 0h18v18H0z"/><path d="M11 12V6h.84c.1 0 .16.1.16.21V11h2.3c.06 0 .12.04.16.09.04.05.04.11.04.18V12H11zM7.17 9L9.3 6.2c.05-.06.11-.1.18-.15A.48.48 0 019.71 6h1.2l-2.3 3H7.18z" fill="#fff"/><path d="M9.4 11.77L7.29 9h1.45l2.3 3H9.87a.6.6 0 01-.47-.23z" fill="#fff"/><path d="M5.03 11.73L7.17 9h1.45l-2.33 3H5.16a.16.16 0 01-.14-.1.16.16 0 01.01-.16" fill="#F05123"/><path d="M5.18 6.28L7.28 9h1.46l-2.3-3H5.3a.15.15 0 00-.09.03.17.17 0 00-.05.07.18.18 0 00.02.18" fill="#CBDB2A"/><path d="M7.95 7.97L8.75 9H7.16l.78-1.03z" fill="#B4282D"/></svg>