<!-- by TradingView --><svg width="18" height="18" viewBox="0 0 18 18" xmlns="http://www.w3.org/2000/svg"><path fill="#F0F3FA" d="M0 0h18v18H0z"/><path d="M5.68 7.8c-.07-.98-.76-1.2-1.56-1.2s-1.41.31-1.41.95c0 .75.61.92 1.82 1.15.9.17 1.82.43 1.82 1.52 0 1.4-1.11 1.78-2.09 1.78C3 12 2.08 11.5 2 9.97h.52c.09 1.19.79 1.43 1.74 1.43.75 0 1.53-.18 1.53-1.08 0-.82-.8-.96-1.65-1.11l-.17-.03c-1.2-.22-1.82-.6-1.82-1.52C2.15 6.4 3.15 6 4.12 6c1.02 0 2.05.44 2.08 1.8h-.52Zm4.83 0c-.08-.98-.76-1.2-1.57-1.2-.8 0-1.37.31-1.37.95 0 .75.58.92 1.79 1.15.9.17 1.81.43 1.81 1.52 0 1.4-1.1 1.78-2.08 1.78-1.26 0-2.19-.5-2.26-2.03h.51c.1 1.19.8 1.43 1.75 1.43.75 0 1.48-.18 1.48-1.08 0-.82-.77-.96-1.62-1.12l-.15-.02c-1.2-.22-1.83-.6-1.83-1.52C6.97 6.4 7.97 6 8.94 6c1.02 0 2.05.44 2.09 1.8h-.52Zm2.04 3.63V9h2.88v-.58h-2.88V6.57H16V6h-4v6h4v-.57h-3.45Z" fill="#E31C24"/></svg>