<!-- by TradingView --><svg xmlns="http://www.w3.org/2000/svg" width="18" height="18" viewBox="0 0 18 18"><path fill="#F0F3FA" d="M0 0h18v18H0z"/><path d="M10.07 9.26c1.54-2.36.98-4.2-.3-5.31-.06-.05-.15.01-.1.07.99 1.27 1.03 2.33.81 3.14-.24.89-.8 1.8-1.4 2.57-.44.55-.99 1.18-1.52 2.03A3.59 3.59 0 0 0 7 13.68c0 .13.17.13.2 0l.08-.3c.08-.37.19-.72.38-1.06.61-1.1 1.78-2.2 2.41-3.06Z" fill="#00477B"/><path d="M10.36 5.18 8.2 4.84l.08-.5 2.17.35-.08.5Z" fill="url(#asbrn50ad)"/><path d="m10.7 6.24-2.36-.1.02-.5 2.36.1-.02.5Z" fill="url(#bsbrn50ad)"/><path d="m10.79 7.35-2.22.03v-.5l2.2-.03.02.5Z" fill="url(#csbrn50ad)"/><path d="m10.18 11.24-1.46-.77.23-.44 1.46.77-.23.44Z" fill="url(#dsbrn50ad)"/><path d="M7.88 5.34c0-1.01.36-1.81.7-2.3.05-.08.18-.03.15.07a5.47 5.47 0 0 0-.01 3.48c.32.88 1 1.62 1.46 2.46.61 1.2.37 2.36-.04 3.18a7.4 7.4 0 0 1-1.72 2.03c-.41.37-.8.67-.94.72-.26.09-.22-.13 0-.31a9.31 9.31 0 0 0 1.77-1.86c.43-.64.67-1.18.75-1.42a3.35 3.35 0 0 0-.72-2.84 4.97 4.97 0 0 1-1.4-3.21Z" fill="#00833C"/><path d="M9.35 13.1 7.7 11.77l.31-.39 1.65 1.33-.3.4Z" fill="url(#esbrn50ad)"/><defs><linearGradient id="asbrn50ad" x1="10.39" y1="4.91" x2="8.11" y2="4.51" gradientUnits="userSpaceOnUse"><stop stop-color="#00477B"/><stop offset="1" stop-color="#00833C"/></linearGradient><linearGradient id="bsbrn50ad" x1="10.72" y1="6" x2="8.09" y2="6" gradientUnits="userSpaceOnUse"><stop stop-color="#01497A"/><stop offset="1" stop-color="#00833C"/></linearGradient><linearGradient id="csbrn50ad" x1="10.8" y1="7.13" x2="8.33" y2="7.13" gradientUnits="userSpaceOnUse"><stop stop-color="#01497A"/><stop offset="1" stop-color="#00833C"/></linearGradient><linearGradient id="dsbrn50ad" x1="10.3" y1="11.1" x2="8.91" y2="10.11" gradientUnits="userSpaceOnUse"><stop stop-color="#00833C"/><stop offset="1" stop-color="#00477B"/></linearGradient><linearGradient id="esbrn50ad" x1="9.52" y1="13.04" x2="7.93" y2="11.98" gradientUnits="userSpaceOnUse"><stop stop-color="#00833C"/><stop offset="1" stop-color="#00477B"/></linearGradient></defs></svg>