<!-- by TradingView --><svg width="18" height="18" viewBox="0 0 18 18" xmlns="http://www.w3.org/2000/svg"><path fill="#F0F3FA" d="M0 0h18v18H0z"/><path d="M5.33 4C4.6 4 4 4.6 4 5.33v7.34C4 13.4 4.6 14 5.33 14h7.34c.73 0 1.33-.6 1.33-1.33V5.33C14 4.6 13.4 4 12.67 4H5.33Zm7.24 1.02c.06.02.1.09.1.15V7h.26c.04 0 .07.03.07.07v.86c0 .04-.03.07-.07.07h-.26v1.57h.26c.04 0 .07.03.07.06v.87c0 .04-.03.07-.07.07h-.26V12h.26c.04 0 .07.03.07.07v.86c0 .04-.03.07-.07.07h-.86a.07.07 0 0 1-.07-.07v-.68l-1.85-1.68h-.58a.07.07 0 0 1-.07-.07v-.56l-.83-.87-.67.7v.73c0 .04-.03.07-.07.07h-.7L5.57 12.3H7v-.23c0-.04.03-.07.07-.07h.86c.04 0 .07.03.07.07v.23h1v-.23c0-.04.03-.07.07-.07h.86c.04 0 .07.03.07.07v.86c0 .04-.03.07-.07.07h-.86a.07.07 0 0 1-.07-.07v-.28H8v.28c0 .04-.03.07-.07.07h-.86a.07.07 0 0 1-.07-.07v-.28H5.17a.17.17 0 0 1-.16-.1.18.18 0 0 1 .04-.2L7 10.33v-.69c0-.03.03-.06.07-.06h.65l.71-.74-.8-.83h-.56A.07.07 0 0 1 7 7.93v-.86c0-.04.03-.07.07-.07h.86c.04 0 .07.03.07.07v.81l.67.7.76-.8v-.71c0-.04.03-.07.07-.07h.75l2.14-1.96a.16.16 0 0 1 .18-.02Zm-.24 5.55V12h-.1l-1.73-1.58v-.79a.07.07 0 0 0-.07-.06h-.82l-.7-.74.78-.83h.68c.03 0 .06-.03.06-.07V7.3l1.9-1.73V7h-.26a.07.07 0 0 0-.07.07v.86c0 .04.03.07.07.07h.26v1.57h-.26a.07.07 0 0 0-.07.06v.87c0 .04.03.07.07.07h.26Z" fill="url(#ag3tzghz5)"/><defs><linearGradient id="ag3tzghz5" x1="4.33" y1="4.5" x2="13.33" y2="13.67" gradientUnits="userSpaceOnUse"><stop stop-color="#2279BC"/><stop offset="1" stop-color="#27335B"/></linearGradient></defs></svg>