<!-- by TradingView --><svg width="18" height="18" viewBox="0 0 18 18" xmlns="http://www.w3.org/2000/svg"><path fill="#D54D21" d="M0 0h18v18H0z"/><path d="M6 14h6v-2.9c-.14 0-.26.02-.37.03-.28.03-.52.06-.8.06-.38 0-.83-.17-.83-.63V9H8.93c-.25 0-.49 0-.49.2 0 .19.15.24.28.24h.42c.29 0 .47.02.56.16.1.1.14.3.14.6 0 .92-.58.99-1.32.99-.24 0-.56-.03-1.05-.1l-.04-.64c.35.08.65.13.95.13h.04c.18 0 .55 0 .55-.28 0-.17-.13-.24-.26-.24h-.47c-.46 0-.77-.28-.77-.83 0-.86.67-.86 1.3-.86H10l.61-.62H11v.63h1V4H7.52l-.08.28c-.02.1-.04.2-.08.29C6.99 5.6 5.88 6.04 5 6.06V9h1v5Zm6-5h-1v1.12c0 .18.21.44.38.44H12V9Z" fill="#fff"/></svg>