<!-- by TradingView --><svg width="18" height="18" viewBox="0 0 18 18" xmlns="http://www.w3.org/2000/svg"><path fill="#F0F3FA" d="M0 0h18v18H0z"/><path d="M10.1 9.33c.45-.18.7-.7.7-1.12 0-.77-.72-1.2-1.46-1.2H7.05v.28c.27.26.3.63.3.99v1.29c0 .86-.2 1.01-.3 1.1V11H8.4V9.57h.5L9.76 11h1.33v-.33c-.5-.3-.72-.84-1-1.34Zm-.95-.61H8.4v-.86h.75c.45 0 .6.14.6.43 0 .28-.16.43-.6.43ZM4.2 8.2l.02-.1C4.62 6 7 5.02 9.02 5c.73-.01 1.42.1 2.08.4l-.01.02a6.06 6.06 0 0 0-2.12-.22c-1.45.08-2.8.64-3.51 1.89.4.05.8.18 1.14.37v.97h-.33S5.89 8 5.1 8c-.2 0-.8-.02-.9.22v.05c.1.36.93.29 1.2.35.66.12 1.35.36 1.35 1.1 0 .95-1.3 1.3-2.1 1.28-.61 0-1.2-.22-1.65-.46v-.97h.33s.5.4 1.32.43c.1 0 .84-.03.84-.24 0-.17-.31-.22-.43-.24C4.26 9.32 3 9.34 3 8.28c0-.6.64-1.04 1.2-1.14V8.2Zm9 .52H15v1.71c-.18.22-.54.37-1 .46V9.7c0-.28-.62-.3-.8-.33v-.64Zm.3 1.28c-.6 0-1.35-.3-1.35-1 0-.5.52-1 1.35-1 .83 0 1.19.42 1.19.42H15v-.97S14.39 7 13.5 7c-1.18 0-2.4.7-2.4 2 0 .87.6 1.62 1.48 1.85-.72 1.28-2.08 1.87-3.55 1.95-.68.03-1.55-.01-2.13-.22a4 4 0 0 0 1.8.42c2.4 0 4.43-.99 5.25-3.14 0 0-.15.14-.45.14Z" fill="#231F20"/><path d="M3 12v-.5h7v.5H3Z" fill="#E82C2A"/></svg>