<!-- by TradingView --><svg xmlns="http://www.w3.org/2000/svg" width="18" height="18" viewBox="0 0 18 18"><path fill="#0B2240" d="M0 0h18v18H0z"/><path d="m7.35 7.53-.54-1.75.35-.84c.57-.81 1.18-1.44 2.43-1.44.37 0 .91.17.91.17l-.23.94s-.44-.11-.78-.11C8.83 4.5 8 4.94 8 6 8 6.7 8.5 7 9.02 7.52c.53.52 1.03.97 1.45 1.49.56.7 1.03 1.46 1.03 2.51 0 1.53-1.35 2.45-1.35 2.45l.51-2.13a.98.98 0 0 0-.05-.62c-.8-1.84-1.11-1.65-3.26-3.7Z" fill="#B3B3B3"/><path d="M7.49 4.47a3.2 3.2 0 0 0-.99 2.07c0 1.14 1.01 2.23 1.8 2.94.78.71 1.7 1.61 1.7 2.74 0 1.05-.96 1.28-1.84 1.28-.17 0-.66-.1-.66-.1v1.03s.4.07.66.07c.76 0 1.45-.07 2.03-.56.44-.39.81-1.13.81-1.79 0-1.3-.6-2.1-1.56-3.12-.91-.95-2.42-1.7-2.44-3.19 0-.46.21-1.01.51-1.36l.12-.14-.14.13Z" fill="#3557BE"/></svg>