<!-- by TradingView --><svg width="18" height="18" xmlns="http://www.w3.org/2000/svg"><path fill="#209A8D" d="M0 0h18v18H0z"/><path d="M9.428 5.54c0 2.76 4.798 5.347-.428 7.866-.471.227-.899.533-1.319.418A5.003 5.003 0 013.996 9c0-2.761 2.24-5 5.004-5a5.003 5.003 0 014.973 4.438c.02.185-1.464-3.003-4.545-2.899z" fill="#fff"/><path d="M14.004 9c0 2.761-2.24 5-5.004 5-.543 0-.962-.07-1.286-.16 0 0 4.07-1.444 4.07-3.663 0-2.761-2.519-4.741-2.519-4.741 1.895 0 4.444 1.058 4.703 3.022.028.216.036.319.036.542z" fill="url(#paint0_linear)"/><circle cx="9" cy="9" r="4" fill="#209A8D"/><defs><linearGradient id="paint0_linear" x1="12.49" y1="5.386" x2="9.644" y2="14.001" gradientUnits="userSpaceOnUse"><stop offset=".383" stop-color="#00587C"/><stop offset=".599" stop-color="#FDFEFE"/><stop offset=".84" stop-color="#005979"/></linearGradient></defs></svg>