<!-- by TradingView --><svg width="18" height="18" viewBox="0 0 18 18" xmlns="http://www.w3.org/2000/svg"><path fill="#F0F3FA" d="M0 0h18v18H0z"/><path d="M12.16 5.7c.4.5 1.44.34 1.75-.3.12-.26.12-.6 0-.86A.94.94 0 0 0 12.9 4c-.43.08-.83.49-.88 1 0 .06-.05.43.15.7Z" fill="#8ECB36"/><path d="m10.7 5.85.02.08c.02.15.1.45.27.7.3.42.85.5 1.08.54.24.03.37 0 .67.09.1.03.27.07.45.18.18.1.6.33.75.84.14.45.03.98-.26 1.33-.47.56-1.22.37-1.45.31a1.87 1.87 0 0 1-1.18-.89c-.27-.5-.1-.81-.45-1.28a1.38 1.38 0 0 0-.8-.54c-.3-.04-.5-.01-.58 0-.25.03-.6-.06-.82-.24C8 6.63 8 5.96 8 5.86c0-.86.63-1.39.7-1.45.15-.12.83-.64 1.43-.3.23.14.55.45.57.83.01.2-.06.47 0 .9Z" fill="#13907E"/><path d="M6.66 5.91c.06-.5.11-1-.17-1.4-.2-.28-.56-.48-.94-.5-.7-.05-1.16.53-1.23.63-.35.45-.33.94-.32 1.17.01.22.03.58.28.93.23.32.55.48.74.57.34.17.45.13.9.34.19.1.4.19.56.34.14.12.2.26.34.53.07.15.06.17.2.51a4 4 0 0 0 .21.46c.01.02.2.33.5.5.35.2.67.17.99.17.27 0 1.71.06 2.3.84.2.27.3.65.37.85.1.3.03.28.16.72.14.5.27.92.61 1.18.29.2.77.34 1.17.17.8-.34.67-1.75.65-1.92-.04-.4-.09-.8-.4-1.08-.4-.36-1.1-.47-1.87-.59l-.3-.06a2.44 2.44 0 0 1-1.04-.65 2.7 2.7 0 0 1-.6-.76c-.2-.36-.15-.52-.37-.73-.2-.19-.44-.25-.6-.29-.4-.1-.5.02-1-.04-.27-.03-.51-.06-.76-.23A1.22 1.22 0 0 1 6.6 7c-.12-.35.01-.53.07-1.09Z" fill="#156061"/><path d="M6.62 10.3c.2.3.44.44.73.62.39.23.73.31.83.34l.66.09.42.06c.1.03.44.13.63.43.13.22.13.44.07.87-.03.22-.05.4-.18.62-.04.07-.26.44-.7.6-.16.04-.4.12-.64.02-.24-.1-.35-.3-.4-.38-.09-.16-.1-.3-.13-.5-.05-.33.02-.38-.02-.63a1.43 1.43 0 0 0-.9-1.1c-.21-.1-.39-.13-.6-.18-.32-.08-.44-.07-.74-.11a2.59 2.59 0 0 1-1-.28c-.08-.04-.71-.43-.64-.98.05-.4.45-.66.76-.75.5-.14.92.14 1.12.27.25.17.4.4.47.5.16.24.13.3.26.5Z" fill="#E3801E"/><path d="M4.42 12.25c.4-.37.91-.22.96-.21.11.03.37.11.52.39.18.33.07.7.04.77-.13.45-.52.7-.86.78-.09.01-.67.12-.95-.3-.28-.41-.08-1.1.29-1.43Z" fill="#354443"/></svg>