<!-- by TradingView --><svg xmlns="http://www.w3.org/2000/svg" width="18" height="18" viewBox="0 0 18 18"><path fill="#F0F3FA" d="M0 0h18v18H0z"/><path d="M10.66 7.31c.17-.22.34-.43.49-.58.05-.05.01-.16-.06-.15-.55.03-1.53.2-2.6.68-.21.09-.47.22-.65.36-.48.37-.14.59.28.73.58.18 1.18.26 1.76.4.64.15 1.33.38 1.72.8.39.42.39 1.04.2 1.5-.35.86-1.16 1.3-2.04 1.55-1 .29-2.11.43-3.15.4-.56-.02-1.88-.05-1.56-1 .09-.25.27-.48.44-.64.32-.3.7-.43 1.02-.42.06 0 .1.07.06.12l-.16.23c-.04.05 0 .12.06.13a8.6 8.6 0 0 0 3.13-.36c.12-.04.53-.2.84-.39 1.32-.8-1.58-1.23-2.02-1.3-.64-.12-1.5-.08-1.85-.79-.08-.15-.1-.38-.1-.62 0-.97.46-1.57 1.25-2.04 1.1-.64 2.43-.89 3.68-.92.83-.01 1.67 0 1.6.81-.12.71-.6.97-1.15 1.27-.29.15-.53.35-.81.51-.12.07-.23.1-.32.06-.11-.05-.17-.2-.06-.34Z" fill="#8CC540"/></svg>