<!-- by TradingView --><svg width="18" height="18" viewBox="0 0 18 18" xmlns="http://www.w3.org/2000/svg"><path fill="#F0F3FA" d="M0 0h18v18H0z"/><path d="M6.86 5.63c-.1.96.36 1.8 1.01 1.88.66.07 1.27-.65 1.37-1.62.1-.97-.36-1.81-1.02-1.88-.66-.08-1.27.65-1.36 1.62Zm2.96.45c-.42.86-.28 1.83.3 2.15.6.32 1.41-.13 1.83-1 .42-.86.28-1.82-.3-2.14-.6-.32-1.41.12-1.83.99ZM5.28 9.24C4.62 9.28 4.06 8.59 4 7.7c-.05-.9.44-1.66 1.09-1.7.65-.04 1.22.65 1.27 1.54.05.9-.43 1.66-1.08 1.7Zm2.2-.43c.12-.12.24-.21.33-.28.23-.17.48-.27.76-.3.27-.02.53.03.8.13.42.17.7.5.86.98l.1.3a6.8 6.8 0 0 0 .63 1.58c.16.31.29.65.36 1.02.13.62-.06 1.1-.56 1.46-.18.13-.36.21-.55.26a1.3 1.3 0 0 1-.62 0c-.06-.02-.23-.1-.5-.26a16.64 16.64 0 0 0-1.37-.71c-.13-.04-.3-.07-.5-.07l-.96-.04c-.21 0-.38-.02-.5-.05a1.07 1.07 0 0 1-.47-.2 1.6 1.6 0 0 1-.42-.52 1.44 1.44 0 0 1-.06-1.19c.18-.44.54-.8 1.07-1.1.35-.18.63-.34.84-.47.3-.18.55-.37.75-.54Zm4.06 2.26c-.59-.42-.6-1.33-.05-2.05.56-.72 1.48-.97 2.06-.56.58.41.6 1.33.05 2.05-.56.72-1.48.97-2.06.56Z" fill="#0184CB"/></svg>