<!-- by TradingView --><svg width="18" height="18" xmlns="http://www.w3.org/2000/svg"><path fill="#00958F" d="M0 0h18v18H0z"/><path d="M10.415 10.444c-.287-.205-1.125-.386-1.87-.608-.745-.228-1.334-.45-1.769-.669C5.592 8.57 5 7.766 5 6.754c0-.526.158-.994.473-1.404.32-.414.776-.737 1.368-.969C7.437 4.149 8.428 4 9.168 4c.745 0 1.409.127 1.991.381.583.25 1.034.604 1.354 1.063.325.459.487.972.487 1.556h-2.692c0-.899-.578-1.417-1.532-1.417-.732 0-1.627.388-1.627 1.178 0 .316.17.581.508.795.344.214 1.17.381 1.834.568 1.222.343 2.112.769 2.671 1.277A2.46 2.46 0 0113 11.3c0 .842-.341 1.503-1.024 1.985-.683.477-1.602.715-2.758.715-.802 0-1.525-.09-2.184-.362a3.583 3.583 0 01-1.518-1.175C5.172 11.986 5 11.628 5 11h2.654c.003.698.19 1.276 1.564 1.276 1.08 0 2.125-.976 1.197-1.832z" fill="#fff"/></svg>