<!-- by TradingView --><svg width="18" height="18" viewBox="0 0 18 18" xmlns="http://www.w3.org/2000/svg"><path fill="#F0F3FA" d="M0 0h18v18H0z"/><path d="M11 6.73c-.1-.92-1-1.24-1.92-1.24-.86 0-1.88.36-1.9 1.27 0 .85 1.02 1.17 1.78 1.34l.98.22c.39.09.77.2 1.13.35 1.13.45 1.93 1.3 1.93 2.45C13 13.11 10.99 14 9.05 14c-2.09 0-3.96-.68-4.05-2.73h2c.08 1.05.98 1.23 2.03 1.23.93 0 2.03-.4 2.04-1.39 0-.5-.3-.82-.85-1.04-.28-.12-.6-.22-.98-.3l-1.19-.3c-1.43-.34-2.78-1.12-2.78-2.6C5.27 4.99 7.24 4 9.1 4c1.84 0 3.72.9 3.76 2.73H11Z"/></svg>