<!-- by TradingView --><svg width="18" height="18" viewBox="0 0 18 18" xmlns="http://www.w3.org/2000/svg"><path fill="#F0F3FA" d="M0 0h18v18H0z"/><path d="m3 7 8.92 6.27.08.73h-1.76L3 7Z" fill="#12A7A1"/><path d="m11.1 2 .87 12h-1.73l.86-12Z" fill="#A8A9AD"/><path d="m11.97 13.97-1.73.03.13-1.84 1.55 1.1.05.71Z" fill="#14837A"/><path d="M11.92 13.28 12 14h-1.76l-.37-.38 1.27-.94.78.6Z" fill="#14837A"/><path d="m11.84 12.17.13 1.83h-1.73l.05-.7 1.55-1.13Z" fill="#14837A"/><path d="M10.24 14H12l-.08-.73-.8-.57-.83.6-.05.7Z" fill="#115A4F"/></svg>