<!-- by TradingView --><svg width="18" height="18" viewBox="0 0 18 18" xmlns="http://www.w3.org/2000/svg"><path fill="#F0F3FA" d="M0 0h18v18H0z"/><path d="M5.79 11.5c0 1.53 2.06 1.83 3.33 1.83 1.96 0 3.03-.76 3.03-1.8 0-1.25-1.5-1.7-3.3-2.2-1.72-.48-3.77-1.07-3.77-2.81C5.08 5.02 6.55 4 8.85 4c1.71 0 3.96.58 3.96 2.5h-.79c0-1.5-1.9-1.82-3.18-1.82-1.88 0-2.92.75-2.92 1.79 0 1.24 1.44 1.67 3.16 2.17 1.73.5 3.92 1.05 3.92 2.86 0 1.52-1.53 2.5-3.88 2.5C7.42 14 5 13.46 5 11.5h.79Z" fill="#504A4E"/></svg>