<!-- by TradingView --><svg xmlns="http://www.w3.org/2000/svg" width="18" height="18" viewBox="0 0 18 18"><path fill="#F0F3FA" d="M0 0h18v18H0z"/><path d="M13 6a1 1 0 0 0 1-1 1 1 0 0 0-1-1 1 1 0 0 0-1.01 1 1 1 0 0 0 1 1zm-1.32 3.14c0 .46-.37.84-.84.84a.84.84 0 0 1-.83-.84.84.84 0 0 1 1.68 0zm-2.25 4.1a.63.63 0 1 1-1.27 0c0-.34.29-.63.64-.63.35 0 .63.29.63.63z" fill="#1886C4"/><path d="M11.68 5c0 .46-.37.83-.84.83a.84.84 0 0 1-.83-.83.84.84 0 0 1 1.68 0zm-2.88.73c.4 0 .73-.33.73-.73a.73.73 0 0 0-1.47 0c0 .4.33.73.74.73zM7.4 5c0 .36-.3.66-.67.66A.66.66 0 0 1 6.07 5 .66.66 0 0 1 7.4 5zm-2.75.67c.35 0 .64-.29.64-.64a.64.64 0 0 0-.64-.64.64.64 0 0 0-.65.64c0 .35.29.64.65.64zm0 2c.32 0 .58-.27.58-.59a.58.58 0 0 0-.58-.57.58.58 0 0 0-.59.57c0 .32.26.58.59.58zm.52 1.47a.52.52 0 0 1-1.05 0c0-.28.24-.52.53-.52.29 0 .52.24.52.52zm-.52 2.45c.24 0 .44-.2.44-.44s-.2-.44-.44-.44a.44.44 0 0 0 0 .87zm2.58 1.6a.5.5 0 0 1-.5.5.5.5 0 0 1-.5-.5c0-.27.23-.49.5-.49.28 0 .5.22.5.5zm-.5-1.55a.5.5 0 0 0 .5-.5.5.5 0 0 0-.5-.49.5.5 0 0 0-.5.5c0 .27.23.5.5.5zm.6-2.54c0 .33-.27.59-.6.59a.59.59 0 0 1-.58-.59c0-.32.26-.58.58-.58.33 0 .6.26.6.58zm1.47.59a.59.59 0 1 0 0-1.17.59.59 0 0 0-.59.58c0 .33.26.59.59.59zm.59 1.46c0 .32-.27.58-.6.58a.59.59 0 0 1-.58-.58c0-.32.26-.58.59-.58.32 0 .59.26.59.58zm1.45.63c.35 0 .64-.28.64-.63a.63.63 0 0 0-.64-.63.63.63 0 0 0-.63.63c0 .35.29.63.63.63zm.64 1.49c0 .34-.29.62-.64.62a.63.63 0 0 1-.63-.62c0-.35.29-.63.63-.63.35 0 .64.28.64.63zM6.73 7.75c.37 0 .67-.3.67-.66 0-.37-.3-.66-.67-.66-.36 0-.66.3-.66.66 0 .36.3.66.66.66zm2.8-.67a.73.73 0 0 1-1.47 0c0-.4.33-.73.74-.73.4 0 .73.33.73.73zm1.31.73c.41 0 .74-.32.74-.73 0-.4-.33-.73-.74-.73-.4 0-.73.33-.73.73 0 .4.33.73.73.73zm2.93-.73c0 .45-.36.8-.8.8a.81.81 0 0 1-.82-.8c0-.44.36-.8.81-.8.45 0 .81.36.81.8zm-.8 2.87c.44 0 .8-.36.8-.8 0-.45-.36-.81-.8-.81a.81.81 0 0 0-.82.8c0 .45.36.81.81.81zm.73 1.2c0 .4-.33.73-.74.73a.74.74 0 0 1-.74-.73c0-.4.33-.73.74-.73.4 0 .74.33.74.73zM12.96 14c.4 0 .74-.33.74-.73 0-.4-.33-.73-.74-.73-.4 0-.74.32-.74.73 0 .4.33.73.74.73zm-8.31-.37c.24 0 .44-.2.44-.44s-.2-.43-.44-.43c-.25 0-.44.2-.44.43 0 .25.2.44.44.44z"/></svg>