<!-- by TradingView --><svg xmlns="http://www.w3.org/2000/svg" width="18" height="18" viewBox="0 0 18 18"><path fill="#F0F3FA" d="M0 0h18v18H0z"/><path fill-rule="evenodd" d="M4.4 4.4v9.2h9.2V4.4H4.4ZM4.11 14h9.78c.06 0 .11-.05.11-.11V4.11a.11.11 0 0 0-.11-.11H4.11a.11.11 0 0 0-.11.11v9.78c0 .06.05.11.11.11Z" fill="#A68858"/><path d="M8.86 6.39c.08.07.1.2.03.28L6.87 9.22l3.56-.77a.2.2 0 0 1 .17.35l-6.25 5.13a.2.2 0 0 1-.25-.3L9.7 9l-3.3.72a.2.2 0 0 1-.2-.32l2.38-2.99a.2.2 0 0 1 .28-.03Z" fill="#A68858"/><path d="M10.32 8.56a.2.2 0 0 1 .28-.03l1.74 1.43c.08.07.1.18.04.27l-1.2 1.83a.2.2 0 0 1-.22.08l-2.9-.72 1.64 2.26a.2.2 0 0 1-.33.24l-1.96-2.7a.2.2 0 0 1 .2-.32l3.31.82 1.03-1.56-1.6-1.32a.2.2 0 0 1-.03-.28Z" fill="#A68858"/><path d="M8.71 6.42a.1.1 0 0 1 .14.02l1.75 2.14a.1.1 0 1 1-.16.13L8.7 6.56a.1.1 0 0 1 .01-.14ZM12.26 10.07a.1.1 0 0 1 .14.05l1.56 3.66a.1.1 0 1 1-.19.08l-1.56-3.66a.1.1 0 0 1 .05-.13ZM10.99 11.75a.2.2 0 0 1 .22.17l.22 1.86a.2.2 0 1 1-.4.04l-.22-1.85a.2.2 0 0 1 .18-.22Z" fill="#A68858"/><path d="M10.97 11.94a.1.1 0 0 1 .14-.03l2.81 1.87a.1.1 0 0 1-.1.17L11 12.07a.1.1 0 0 1-.03-.13ZM6.3 9.46a.1.1 0 0 1 .15.02l1.11 1.51a.1.1 0 0 1-.16.12L6.3 9.6a.1.1 0 0 1 .02-.14Z" fill="#A68858"/><path d="M6.43 9.46c.04.04.05.1.01.14L5.3 10.93l.5 1.68 1.85 1.2a.1.1 0 1 1-.1.17l-1.9-1.22a.1.1 0 0 1-.04-.05l-.43-1.48-.85 2.45a.1.1 0 0 1-.2-.07l.96-2.74a.1.1 0 0 1 .02-.03l1.2-1.37a.1.1 0 0 1 .13-.01Z" fill="#A68858"/></svg>