<!-- by TradingView --><svg width="18" height="18" viewBox="0 0 18 18" xmlns="http://www.w3.org/2000/svg"><path fill="#F0F3FA" d="M0 0h18v18H0z"/><path d="m14.27 12.07-.04-.02a.58.58 0 0 0-.25-.05H13V5.6c0-.26-.2-.6-.9-.6.08 0-.15.02-.32.17-.07.07-1.02 1.13-1.78 2.33l.43 1c.75-1.16 1.57-2 1.57-2V12h-.98c-.25 0-.52.07-.52.46 0 .5.4.54.52.54h2.96c.25 0 .52-.14.52-.53 0-.31-.17-.37-.23-.4Z" fill="#49A4DB"/><path d="M5 7.1C5 6.15 5.87 6 6.5 6c.98 0 1.25.28 1.67.94.1.18.3.57.41.57.3 0 .42-.24.42-.57C9 5.66 7.51 5 6.5 5 5.09 5 4 5.83 4 7.24 4 9.54 8 9 8 11c0 .78-.81 1-1.5 1-.89 0-1.4-.4-1.58-1.3-.03-.13-.1-.37-.43-.37-.2 0-.49.13-.49.58C4 12.35 5.37 13 6.56 13 8.36 13 9 11.8 9 10.68 9.01 8.02 5 8.7 5 7.1Z" fill="#181B1E"/></svg>