<!-- by TradingView --><svg xmlns="http://www.w3.org/2000/svg" width="18" height="18" viewBox="0 0 18 18"><path fill="#F0F3FA" d="M0 0h18v18H0z"/><circle cx="9" cy="9" r="6" fill="url(#ax2svrvhm)"/><path d="M8.65 3.3a5.65 5.65 0 0 1 5.65 5.66 5.8 5.8 0 0 1-5.65 5.83A5.8 5.8 0 0 1 3 8.96 5.65 5.65 0 0 1 8.65 3.3Z" fill="url(#bx2svrvhm)"/><circle cx="8.3" cy="8.98" r="4.96" fill="url(#cx2svrvhm)"/><path d="M4 7.7v.65h2.12c.12 0 .21.13.21.25v.17H4v.46h2.33v.22c0 .13-.1.2-.21.2H4v.65h2.56c.24 0 .44-.2.44-.46V8.16c0-.25-.2-.46-.44-.46H4ZM10.4 8.35V7.7H8.1c-.22 0-.4.2-.4.46v1.68c0 .26.18.46.4.46H10c.22 0 .4-.2.4-.46V8.78H8.3v-.04c0-.13 0-.39.29-.39h1.81Zm-2.1.97h1.48c0 .14-.04.38-.42.38h-.68c-.34 0-.38-.24-.38-.38Z" fill="#fff"/><path fill-rule="evenodd" d="M11.66 7.7c-.32 0-.66.27-.66.6V9.7c0 .34.34.6.66.6h1.65c.32 0 .69-.26.69-.6V8.3c0-.34-.37-.61-.7-.61h-1.64Zm.34.65c-.12 0-.25.1-.25.22v.86c0 .13.13.22.25.22h1c.13 0 .25-.1.25-.22V8.58c0-.13-.12-.23-.24-.23H12Z" fill="#fff"/><path d="M7.55 6.42c-1.94-.39-2.36.38-2.52.43 0 0-.1-1.23 1.4-2.1a3.71 3.71 0 0 1 1.86-.52c1.06 0 2.1.38 2.72.83 1.5 1.08 2.68 3.7 1.6 4.15-.77.32-3.12-2.4-5.06-2.79Z" fill="url(#dx2svrvhm)" fill-opacity=".8"/><defs><linearGradient id="ax2svrvhm" x1="10.8" y1="-.86" x2="7" y2="22.58" gradientUnits="userSpaceOnUse"><stop offset=".2" stop-color="#187BC3"/><stop offset=".39" stop-color="#064B7F"/><stop offset=".42" stop-color="#08497B"/><stop offset=".53" stop-color="#0C558C"/><stop offset=".76" stop-color="#1C679F"/></linearGradient><linearGradient id="bx2svrvhm" x1="1.88" y1="9.44" x2="12.99" y2="9" gradientUnits="userSpaceOnUse"><stop offset=".14" stop-color="#fff" stop-opacity=".4"/><stop offset=".37" stop-color="#fff" stop-opacity="0"/></linearGradient><linearGradient id="cx2svrvhm" x1="10.19" y1="2.5" x2="8.3" y2="12.06" gradientUnits="userSpaceOnUse"><stop offset=".12" stop-color="#fff" stop-opacity=".77"/><stop offset=".46" stop-color="#fff" stop-opacity=".01"/></linearGradient><linearGradient id="dx2svrvhm" x1="13.03" y1="3.36" x2="8.06" y2="8.35" gradientUnits="userSpaceOnUse"><stop offset=".21" stop-color="#fff" stop-opacity=".69"/><stop offset=".78" stop-color="#fff" stop-opacity="0"/></linearGradient></defs></svg>