<!-- by TradingView --><svg width="18" height="18" viewBox="0 0 18 18" xmlns="http://www.w3.org/2000/svg"><path fill="#F0F3FA" d="M0 0h18v18H0z"/><path d="M8.66 7a38.61 38.61 0 0 1 2.61.17 58.39 58.39 0 0 0-3.5-.02c-.6.02-1.2.07-1.77.14-.62.07-1.2.18-1.79.41-.2.08-.37.18-.53.32-.53.46-.19 1.01.15 1.43a.03.03 0 0 1 0 .03.03.03 0 0 1 0 .02c-.19.1-.31.18-.3.42v.01a.01.01 0 0 1-.02 0A2.3 2.3 0 0 1 3 8.84V8.6c.07-.38.3-.68.66-.88.23-.13.43-.23.69-.3.49-.15.98-.25 1.48-.3.5-.07 1-.1 1.52-.12h1.31Z" fill="#8C2B25"/><path d="M14.32 8.07c0 .1-.04.19-.1.25a.33.33 0 0 1-.24.1.33.33 0 0 1-.24-.1.37.37 0 0 1-.1-.25c0-.1.03-.18.1-.25.06-.07.15-.1.24-.1s.17.03.24.1c.06.07.1.16.1.25Z" fill="#1D1D1D"/><path d="M14 8.07c-.04-.05-.04-.1-.01-.17a.1.1 0 0 1 .1-.07c.07 0 .12 0 .14.09.02.06.02.1 0 .13a.12.12 0 0 1-.1.09c-.06 0-.1-.02-.14-.07Z" fill="#A09FA1"/><path d="M15 9.15v.26c-.07.34-.26.62-.57.81-.6.38-1.33.55-2.02.64-.61.08-1.23.13-1.85.14H9.42a33.78 33.78 0 0 1-2.6-.17c1.04.03 2.08.04 3.12.03.41-.01.88-.04 1.19-.06a13.8 13.8 0 0 0 1.7-.22c.5-.1 1.63-.38 1.75-1.02.07-.39-.19-.73-.4-1.01l-.02-.02v-.01a.04.04 0 0 1 .03-.03c.18-.07.28-.2.28-.38 0-.05.02-.06.05-.01.23.32.41.65.48 1.05Z" fill="#8C2B25"/><path d="M4.14 9.6c-.14.05-.21.14-.2.25 0 .1.04.17.13.2.1.05.19 0 .3-.1a.37.37 0 0 1-.14.27.33.33 0 0 1-.52-.16.37.37 0 0 1 .04-.35.35.35 0 0 1 .25-.14c.05 0 .1 0 .14.02Z" fill="#1D1D1D"/><path d="M4.14 9.6c.07.02.13.07.17.14.04.06.06.14.05.21-.1.1-.2.15-.29.1-.09-.03-.14-.1-.14-.2 0-.11.07-.2.21-.26Z" fill="#7C7B7D"/><path opacity=".5" fill="#394D6E" d="M5 8h8v2H5z"/></svg>