<!-- by TradingView --><svg width="18" height="18" xmlns="http://www.w3.org/2000/svg"><path fill="url(#paint0_linear)" d="M0 0h18v18H0z"/><path d="M14 9A5 5 0 114 9a5 5 0 0110 0z" fill="#007042"/><path fill-rule="evenodd" d="M8.971 5.757c.178.103.367.235.511.375l-.056.057c-.193-.02-.392-.01-.584 0-.091.006-.181.01-.268.012l-.011-.012c-.031-.03-.073-.069-.023-.102l.431-.33zm5.018 3.526l.001.036a5.126 5.126 0 00.006-.516c-.338.253-.615.096-.9-.064-.237-.133-.479-.27-.765-.177l.02.064c.025.078.048.155.105.22.238-.002.444.103.648.207.276.14.547.277.884.144v.086zm-.035.369l.006-.014c-.024.187-.058.37-.102.55a.39.39 0 01.028-.128c-.25.01-.448-.106-.646-.221-.184-.107-.367-.214-.59-.221l-.057-.285c.239-.04.442.065.644.168.223.114.446.228.717.151zm-.34.76c.091.044.146.041.18.013-.033.11-.07.22-.11.326-.177-.03-.33-.119-.484-.208-.156-.091-.312-.182-.494-.21.003-.03.001-.062 0-.094-.002-.064-.005-.128.023-.179.199 0 .359.093.519.185.117.068.234.136.366.167zm-.09.681a.265.265 0 00.03-.027 4.985 4.985 0 01-.167.334v-.023c-.112-.034-.211-.1-.31-.165-.138-.091-.276-.182-.45-.187l.056-.261c.183-.005.338.084.493.172.112.064.224.127.347.157zm-.539.471c.077.043.154.087.238.114a4.895 4.895 0 01-.178.261l.002-.005-.41-.205c-.177-.113-.212.002-.248.123-.02.069-.042.14-.092.172-.374-.021-.576-.2-.797-.396-.047-.042-.094-.085-.145-.126a.827.827 0 01.111-.253c.042-.071.084-.143.105-.224.128-.427-.103-.773-.329-1.111a4.51 4.51 0 01-.193-.308.628.628 0 01-.084-.323 1.6 1.6 0 01.097-.46c.047-.15.095-.3.1-.455.093-.397-.087-.778-.24-1.104l-.01-.019c.106.064.22.15.284.26.212.417.273.996.08 1.443a.775.775 0 00-.058.335c.015.252.16.468.306.686.157.234.316.472.32.76.05.039.1.082.149.126.173.153.35.31.588.238a.458.458 0 01-.015.192c-.01.047-.02.093-.02.137.17-.01.304.066.439.142zm-.2.624l.047.024c-.078.093-.16.183-.245.27a.4.4 0 00.028-.05.913.913 0 00-.374-.159c-.005-.086.044-.154.101-.215.17-.006.307.062.442.13zm-.737.403l.312.112a5.041 5.041 0 01-.265.224.77.77 0 00-.172-.097c-.028-.061.024-.12.075-.178a.73.73 0 00.05-.06zm-.686.195c.1.151.2.303.26.472a5.016 5.016 0 01-.162.096c-.041-.202-.157-.373-.273-.545-.087-.129-.174-.257-.23-.4 0-.026-.002-.054-.004-.082-.01-.147-.022-.309.073-.416l.023.022c-.025.338.144.595.313.853zm-.48.034c.139.217.28.439.3.68-.095.046-.193.09-.292.13.03-.311-.148-.58-.321-.841a5.337 5.337 0 01-.133-.208c-.233-.471.06-.856.335-1.22.066-.086.13-.171.187-.256.215-.456-.056-.853-.304-1.216a5.827 5.827 0 01-.15-.226.593.593 0 01-.103-.38h.001c.012-.216.117-.434.21-.627l.04-.083c.197-.53.06-1.173-.284-1.567.23.095.4.353.476.58.158.393.037.848-.077 1.279-.034.129-.068.256-.093.378v.04c-.003.295.158.513.32.733.118.159.236.319.293.51.104.37-.108.652-.312.922-.053.071-.107.142-.153.213-.41.425-.179.786.06 1.16zm-.601.033c.169.278.341.56.273.9-.113.037-.228.07-.344.1.132-.415-.064-.762-.254-1.1-.064-.115-.128-.228-.179-.343-.15-.43.118-.774.377-1.105.066-.086.133-.171.19-.256.221-.413-.028-.765-.261-1.093a4.87 4.87 0 01-.146-.214.733.733 0 01-.082-.46c.026-.188.115-.37.203-.548a2.85 2.85 0 00.15-.343 1.376 1.376 0 00-.295-1.486l.012-.012c.193.114.367.314.454.51.19.406.044.86-.1 1.31a4.772 4.772 0 00-.16.57l-.012.074c-.007.285.142.473.295.666.082.104.166.21.227.333.23.449-.043.793-.31 1.13-.07.088-.14.177-.2.266-.25.428-.046.761.162 1.101zm-.704-.243c.222.412.465.86.29 1.315a5.03 5.03 0 01-1.702.005c-.185-.414.006-.781.194-1.142.083-.16.166-.319.215-.48.128-.402-.098-.684-.326-.969-.102-.127-.204-.254-.275-.393-.157-.327.018-.574.194-.823.097-.137.194-.274.236-.426.067-.19.2-.142.333-.095.071.025.142.05.202.039a.56.56 0 00.275-.04c.122-.04.237-.078.349.017.042.172.153.314.264.456.14.178.278.355.28.588-.007.282-.187.505-.365.726-.233.29-.462.573-.293.977.04.08.084.162.13.245zm-1.775 1.208c0 .014 0 .026.002.038a4.965 4.965 0 01-.315-.089c-.072-.348.092-.617.256-.886.136-.222.271-.444.273-.71.02-.301-.162-.518-.344-.736-.128-.153-.257-.306-.314-.49-.132-.393.112-.716.341-1.019l.078-.104a.792.792 0 00.13-.54c-.022-.188-.101-.372-.182-.559-.102-.237-.206-.478-.197-.74-.008-.431.181-.855.556-1.056a6.961 6.961 0 01-.07.097c-.092.129-.185.257-.237.402-.18.49.011.925.197 1.348.056.127.11.252.155.378a.745.745 0 01.032.13c.042.295-.115.527-.274.76-.114.168-.228.336-.269.53-.08.338.109.566.3.797.124.15.25.301.302.485.145.39-.025.696-.197 1.005-.164.293-.328.588-.223.959zm-.403-.912c-.147.224-.293.446-.259.736a4.937 4.937 0 01-.29-.127c.016-.247.151-.446.286-.644.084-.123.168-.246.224-.381.192-.403-.047-.703-.286-1.003a2.092 2.092 0 01-.294-.438c-.196-.432.08-.838.353-1.159a.754.754 0 00.222-.607c-.014-.173-.078-.347-.142-.523-.105-.29-.212-.586-.115-.902.091-.318.227-.697.556-.829a1.579 1.579 0 00-.385.965c-.038.28.071.51.178.738.085.18.168.356.178.55a.769.769 0 01-.039.28 2.406 2.406 0 01-.258.404c-.173.235-.345.47-.343.775-.024.307.16.521.343.735.192.223.384.447.338.776-.004.252-.136.454-.267.654zm-.564-.095c-.121.175-.245.353-.267.559a5.16 5.16 0 01-.163-.095c.06-.18.163-.338.265-.497.093-.144.186-.288.247-.447.011-.055.019-.114.027-.173.01-.084.021-.167.04-.236.225.35.041.615-.15.889zm-.746.008l-.181.11a5.043 5.043 0 01-.261-.22c.027-.011.054-.024.08-.038.069-.034.137-.07.226-.057l.022.027c.047.056.094.112.114.178zm-.496-.48c-.089.016-.187.034-.223.1-.066-.07-.13-.142-.192-.215.03-.015.062-.033.094-.051.132-.076.276-.158.42-.069.157.187.04.209-.099.234zm-.548-.441l-.082.053a4.986 4.986 0 01-.193-.284.16.16 0 00.035.016c.074-.03.142-.071.21-.113.138-.083.275-.166.449-.159a.872.872 0 01-.045-.318c.25.066.42-.067.588-.2a2.08 2.08 0 01.16-.118c.037-.32.202-.588.367-.855.075-.122.15-.244.212-.37.022-.09.029-.179.028-.267-.004-.172-.043-.342-.081-.513-.072-.317-.144-.635.008-.97.072-.2.197-.464.41-.52-.39.465-.319 1.176-.114 1.702a.738.738 0 01.052.3c-.01.254-.159.47-.306.686-.095.138-.188.275-.246.422-.185.375-.016.802.193 1.112-.054.041-.106.085-.159.128-.242.2-.486.4-.806.406-.073-.036-.1-.115-.125-.194-.013-.039-.026-.079-.045-.113-.193-.038-.354.067-.51.169zm-.432-.51l.015.04a4.969 4.969 0 01-.175-.346c.092.031.222-.053.362-.144.17-.11.353-.229.501-.163a.681.681 0 00.02.082c.02.063.038.125.014.191-.178-.002-.317.091-.455.184a1.21 1.21 0 01-.282.157zm-.295-.647l.001.02a4.967 4.967 0 01-.278-1.118l.004-.003c.284.09.513-.028.742-.146.196-.1.392-.201.62-.172l-.003.028c-.01.101-.02.206-.076.279-.213.01-.389.11-.565.21-.198.113-.397.226-.65.21l.09.363c.207.021.376-.074.545-.17.17-.096.34-.191.545-.17l-.01.272c-.179.017-.326.107-.474.198-.152.094-.305.188-.491.2zm9.6-2.65zm-2.314-3.36c.301.184.58.398.835.64a4.848 4.848 0 00-.777-.6 3.192 3.192 0 00-.058-.04zm-7.6 4.475l.007-.009c.364.142.695-.03 1.012-.196.091-.047.181-.094.27-.133a.45.45 0 01.116-.012c.08-.001.161-.003.191-.079-.001-.032.02-.065.04-.099.034-.057.067-.112-.017-.15-.257-.035-.477.081-.693.196-.276.147-.547.29-.885.11l-.04-.079a5.077 5.077 0 000 .451zm2.686-4.64a9.478 9.478 0 00.03-.018l-.03.018zm.17 2.61c-.355-.232-.796-.057-1.148.082l-.112.044c-.034-.345-.174-.659-.465-.886-.008-.003-.016-.008-.025-.014a.195.195 0 00-.078-.032c-.02 0-.041.008-.057.035.046.776-.238 1.197-.546 1.653-.075.11-.151.224-.225.345.125.102.325.086.477.056.092-.037.184-.08.276-.124.303-.143.61-.289.972-.216.14-.239.375-.47.568-.659a1.35 1.35 0 01.15-.107.757.757 0 00.213-.176zm1.203.511c-.008.05.004.137.08.103.086-.12.222-.082.339-.048.041.011.08.022.114.025v-.045c-.07-.111-.215-.167-.363-.161a.537.537 0 00-.102.014.088.088 0 00-.068.112zm1.85-.487c-.106-.235-.348-.33-.567-.386a2.948 2.948 0 00-.33-.024h-.063c-.31.007-.607.086-.788.341-.006.02-.02.04-.033.062-.037.061-.079.129 0 .176l.037-.002c.229-.015.48-.032.632.162 0 .05.008.103.017.157.023.145.047.29-.097.354-.084-.079-.177-.058-.271-.038-.088.02-.177.039-.262-.02-.083-.049-.136.009-.17.08-.05.47.196.988.635 1.249.178.064.417.125.602.034.447-.208.632-.685.715-1.124a1.098 1.098 0 01-.004-.04c-.009-.086-.02-.206-.12-.21-.13.082-.318.036-.458.002l-.008-.002c-.04.013-.061.047-.083.082-.024.038-.049.077-.098.09l-.058-.047c-.049-.207-.08-.503.114-.647.216-.087.47-.125.692-.056.028-.048.009-.09-.01-.13-.01-.021-.02-.042-.024-.063zm-.228.373l-.026.001h-.018c-.024.017-.062.024-.101.032-.09.018-.184.037-.126.161.143-.113.342-.034.486.022l.002.001c.043-.021.044-.06.044-.099l.001-.026c-.046-.086-.156-.094-.262-.092zm1.648-1.6c-.187-.01-.353.058-.52.125a2.404 2.404 0 01-.252.091c-.014-.13.04-.266.094-.4.036-.091.072-.181.088-.27-.343.022-.627.196-.909.368l-.181.11-.239-.58.454-.431.012-.057-.613-.034a1.87 1.87 0 01-.113-.254c-.045-.114-.089-.228-.16-.325a4.004 4.004 0 00-.136.296c-.043.099-.085.198-.136.294l-.613.035v.045l.465.42-.013.05c-.053.201-.108.412-.237.563a21.222 21.222 0 01-.137-.083 4.302 4.302 0 00-.702-.371l-.013-.004c-.07-.023-.165-.054-.226-.008l.048.103c.086.178.175.366.157.557-.07-.013-.131-.044-.192-.074-.049-.024-.097-.048-.149-.063l-.088-.027c-.119-.037-.246-.077-.355-.04.227.317.413.65.477 1.032.753-.364 1.631-.564 2.543-.409.35.056.677.183.994.306l.209.08c.011-.314.17-.58.321-.835.042-.07.084-.14.122-.21zm1.293 2.18c.12.032.24.094.36.157.268.14.54.28.82.093a8.445 8.445 0 00-.224-.347c-.314-.468-.631-.941-.513-1.56.015-.053-.019-.106-.068-.114-.23.094-.409.322-.5.545-.013.044-.024.09-.034.135-.022.09-.044.18-.079.262-.276-.143-.571-.283-.908-.25l-.034.005c-.117.013-.263.03-.284.144.382.204.697.545.93.908.164-.027.364-.004.534.022zm-4.04.533l.01.069c.05.033.088.074.124.113.073.077.138.147.274.137.182.01.318-.16.408-.295-.116-.016-.245-.013-.378-.01a2.486 2.486 0 01-.439-.014zm.267-.267a.559.559 0 00-.114-.04c-.023-.01-.016-.029-.003-.047.055-.063.108-.049.163-.034a.282.282 0 00.074.012c.016 0 .033-.006.051-.011.048-.016.104-.033.175.037.017.017.003.04-.007.043-.061.02-.096.036-.122.047-.04.018-.057.025-.112.026-.045-.005-.073-.018-.105-.033z" fill="#fff"/><defs><linearGradient id="paint0_linear" x1="3.349" y1="3.122" x2="21.904" y2="24.434" gradientUnits="userSpaceOnUse"><stop stop-color="#1A1E21"/><stop offset="1" stop-color="#06060A"/></linearGradient></defs></svg>