<!-- by TradingView --><svg width="18" height="18" xmlns="http://www.w3.org/2000/svg"><path fill="#4D89C2" d="M0 0h18v18H0z"/><path d="M7.643 5.903c-.307.182-.654.387-1.224.387H4v-.657h2.419c.403 0 .623-.129.925-.307l.073-.043c.363-.212.797-.431 1.581-.426.775.004 1.27.219 1.652.429.079.043.145.082.205.116.093.054.171.1.258.141.126.06.228.09.336.09H14v.657h-2.551a1.35 1.35 0 01-.597-.15c-.104-.05-.22-.117-.33-.18a9.28 9.28 0 00-.162-.093 2.653 2.653 0 00-1.366-.354c-.64-.004-.967.165-1.273.344l-.078.046z" fill="#fff"/><path d="M7.126 7.31c-.308.168-.64.35-1.169.35H4v-.657h1.957c.368 0 .566-.107.864-.268a12.5 12.5 0 01.183-.097c.424-.22.967-.432 1.992-.432.948 0 1.538.212 1.978.429.103.05.196.1.28.145l.01.006c.089.048.164.087.235.12.14.066.243.097.349.097H14v.656h-2.152c-.23 0-.427-.07-.605-.153a5.691 5.691 0 01-.262-.135l-.009-.004a8.147 8.147 0 00-.263-.137c-.37-.182-.87-.368-1.713-.368-.922 0-1.37.186-1.715.365a8.397 8.397 0 00-.155.083z" fill="#fff"/><path d="M6.473 8.854c-.223.09-.479.146-.837.146H4v-.657h1.636c.292 0 .47-.044.612-.101.105-.043.184-.089.286-.147.056-.032.119-.069.196-.11.42-.226.987-.43 2.266-.43 1.225 0 1.856.204 2.303.425.128.063.228.119.314.167.229.126.355.196.612.196H14V9h-1.775c-.425 0-.714-.163-.98-.312-.072-.04-.141-.079-.212-.114-.35-.173-.887-.363-2.037-.363-1.204 0-1.668.19-1.981.359l-.138.077c-.122.07-.26.15-.404.207z" fill="#fff"/><path d="M6.268 10.224c-.207.095-.447.15-.804.15H4v-.657h1.464c.291 0 .443-.044.554-.095a1.558 1.558 0 00.22-.127c.06-.039.132-.085.212-.13.413-.23 1.031-.428 2.546-.428 1.333 0 1.993.2 2.463.418.116.053.211.102.296.145.264.135.424.217.758.217H14v.656h-1.487c-.489 0-.793-.157-1.084-.307-.074-.038-.146-.076-.222-.11-.375-.173-.946-.362-2.21-.362-1.47 0-1.97.192-2.253.35a3.39 3.39 0 00-.176.108l-.042.027a2.166 2.166 0 01-.258.145z" fill="#fff"/><path d="M5.984 11.526c-.28.084-.649.133-1.227.133H4v-.657h.757c.55 0 .854-.047 1.055-.107.157-.048.255-.103.386-.176l.119-.066c.42-.227.973-.422 2.68-.422 1.559 0 2.162.197 2.621.415.06.028.114.055.164.08.138.068.248.122.4.17.195.06.463.106.91.106H14v.657h-.908c-.489 0-.819-.05-1.088-.134a3.403 3.403 0 01-.517-.219l-.126-.061c-.355-.168-.864-.357-2.365-.357-1.662 0-2.1.19-2.393.35a5.235 5.235 0 00-.09.05c-.138.077-.302.17-.53.238z" fill="#fff"/><path d="M5.744 12.86c-.26.09-.616.14-1.205.14H4v-.657h.539c.565 0 .843-.049 1.01-.107.116-.04.176-.08.266-.14.043-.029.094-.062.161-.103.402-.244 1.013-.438 3.02-.438 1.925 0 2.575.197 3.015.429.078.04.139.076.191.106.104.06.18.104.304.146.174.059.44.107.95.107H14V13h-.545c-.541 0-.88-.05-1.141-.14a2.553 2.553 0 01-.461-.221 3.734 3.734 0 00-.122-.068c-.307-.162-.836-.36-2.735-.36-1.996 0-2.46.2-2.708.35l-.09.06a1.936 1.936 0 01-.454.24z" fill="#fff"/></svg>