<!-- by TradingView --><svg xmlns="http://www.w3.org/2000/svg" width="18" height="18" viewBox="0 0 18 18"><path fill="#F0F3FA" d="M0 0h18v18H0z"/><path d="M4.07 9.02a4.18 4.18 0 0 0 4.86 3.3 4.2 4.2 0 0 1-2.82-6.15 4.44 4.44 0 0 0-2.04 2.85Z" fill="url(#airagkh1l)"/><path d="M5.66 9a4.26 4.26 0 0 1 .45-2.83c1.07-.75 2.76-.53 2.88-.47A4.14 4.14 0 0 0 5.66 9Z" fill="url(#biragkh1l)"/><path d="m8.61 13.99.38.01a5 5 0 1 0-.5-9.97c.74.07 1.36.28 1.87.59a4.35 4.35 0 0 1 1.97 4.4 4.61 4.61 0 0 1-.3 2.51 4.1 4.1 0 0 1-1.3 1.63c-.9.66-1.88.79-2.12.83Z" fill="url(#ciragkh1l)"/><path d="M12.33 9.02a4.61 4.61 0 0 1-.3 2.51 4.1 4.1 0 0 1-1.3 1.63c-.89.65-1.85.79-2.1.82H8.6A5 5 0 0 1 4.03 9.6c-.04-.31.04-.6.04-.58a4.18 4.18 0 0 0 4.86 3.3h.02c2.06-.23 3.38-2.35 3.38-3.3Z" fill="url(#diragkh1l)"/><path d="M9 5.7c1.06.08 2.99 1.2 3.33 3.32a4.56 4.56 0 0 0-.49-2.87c-1.33-.8-2.85-.45-2.85-.45Z" fill="#D9D663"/><path d="M4.03 9.4S4 8.93 4 8.62a4.96 4.96 0 0 1 4.41-4.58c.14-.01.56.06.56.06a4.41 4.41 0 0 0-2.86 2.08C4.93 6.8 4.03 8.36 4.03 9.4Z" fill="#DFD36B"/><path d="M6.1 6.17c1.08-.75 2.77-.53 2.9-.47 0 0 1.51-.35 2.84.45a4.02 4.02 0 0 0-2.9-2.06 4.42 4.42 0 0 0-2.83 2.08Z" fill="#DFC516"/><defs><linearGradient id="airagkh1l" x1="6.5" y1="6.17" x2="6.5" y2="12.42" gradientUnits="userSpaceOnUse"><stop stop-color="#F9C309"/><stop offset="1" stop-color="#B9601C"/></linearGradient><linearGradient id="biragkh1l" x1="8.57" y1="6" x2="5.57" y2="8.3" gradientUnits="userSpaceOnUse"><stop stop-color="#CE9109"/><stop offset=".92" stop-color="#924A0C"/></linearGradient><linearGradient id="ciragkh1l" x1="11.24" y1="4" x2="11.24" y2="14" gradientUnits="userSpaceOnUse"><stop stop-color="#98C044"/><stop offset="1" stop-color="#457A3E"/></linearGradient><linearGradient id="diragkh1l" x1="4.03" y1="9.41" x2="8.21" y2="13.97" gradientUnits="userSpaceOnUse"><stop stop-color="#047195"/><stop offset="1" stop-color="#6EBFDB"/></linearGradient></defs></svg>