<!-- by TradingView --><svg width="18" height="18" viewBox="0 0 18 18" fill="none" xmlns="http://www.w3.org/2000/svg">
<rect width="18" height="18" fill="#F0F3FA"/>
<path d="M9.12698 14C11.3175 14 13 12.9109 13 10.7327C13 9.28053 12.2063 8.42244 10.746 7.9934L8.67302 7.46535C8.16508 7.33333 8 7.13531 8 6.70627C8 6.11221 8.41905 6 8.89524 6C9.94286 6 11 6.65676 11.6349 7.34983L13 5.66667C12.1111 4.80858 10.8095 4 9.19048 4C7.03175 4 5.60317 4.85809 5.60317 6.93729C5.60317 8.58746 6.52381 9.31353 7.92063 9.70957L9.66667 10.1089C10.3016 10.3069 11 10.4719 11 11C11 11.6271 9.88889 12 9.22222 12C8.01587 12 7.12698 11.5908 6.23809 10.6667L5 12.3333C5.63492 13.0924 7.03175 14 9.12698 14Z" fill="#4CB6E8"/>
</svg>
