<!-- by TradingView --><svg width="18" height="18" viewBox="0 0 18 18" xmlns="http://www.w3.org/2000/svg"><path fill="#F0F3FA" d="M0 0h18v18H0z"/><path d="m11.76 5.62-1.15.7a2.01 2.01 0 0 0-.61-.75 1.4 1.4 0 0 0-.78-.2c-.69 0-1.22.46-1.22 1.2 0 .96 1.07 1.22 1.8 1.52 1.25.52 2.2 1.42 2.2 2.84A3 3 0 0 1 8.99 14C7.3 14 6.23 12.77 6 11.17l1.43-.33c.1.95.52 1.66 1.61 1.66.9 0 1.46-.6 1.46-1.47C10.5 9.79 9.28 9.4 8.34 9c-1.28-.56-1.92-1.37-1.92-2.45C6.42 5.02 7.78 4 9.23 4c1.08 0 1.92.54 2.53 1.62Z"/></svg>