<!-- by TradingView --><svg xmlns="http://www.w3.org/2000/svg" width="18" height="18" viewBox="0 0 18 18"><path fill="#F0F3FA" d="M0 0h18v18H0z"/><path fill-rule="evenodd" d="M9 15A6 6 0 1 0 9 3a6 6 0 0 0 0 12zm0-2a4 4 0 1 0 0-8 4 4 0 0 0 0 8z" fill="#0169B4"/><path d="M8.18 12.92c.17-.3.32-.76.32-1.24 0-.9-.56-1.22-1.52-1.2-.1.22-.45.6-1.12.33a.8.8 0 0 1 1.04-.5c.22-.07.74-.19 1.15-.08-.19-.3-.76-.97-1.55-1.15a.97.97 0 0 1-1.23-.32h.01c.13-.07.87-.46 1.26.16.24.07.76.23.92.32 0-.07 0-.21-.03-.24-.19-.1-.5-.43-.24-.98.22.1.59.41.35.96.01.07.06.23.18.34.13.1.56.5.75.68.04.01.12 0 .12-.15a3 3 0 0 0-1.65-2.27c-.2.16-.71.32-1.14-.33.22-.17.76-.37 1.18.19.3.11.96.4 1.26.65.02-.41.11-1.32.28-1.63a.81.81 0 0 1-.14-.4c0-.22.13-.54.43-.7.15.23.34.78-.16 1.1A7.8 7.8 0 0 0 8.6 7.9c.06.37.26 1.1.4 1.13.12.03.1-.6.07-.92-.15-.09-.4-.37-.1-.8.15.06.42.29.22.77 0 .11 0 .32.09.33.03 0 .07-.08.14-.22.15-.31.43-.9 1.03-1.42.07-.25.36-.7 1-.49-.05.22-.29.64-.92.62-.16.18-.51.63-.6.97-.01.02-.02.06.06.03.05-.01.09-.05.14-.11.05-.06.13-.14.24-.22.02-.16.2-.48.74-.4v.02c-.01.09-.03.41-.66.48-.28.23-.88.9-1.01 1.74s.2.77.4.63c.14-.08.44-.3.46-.43.02-.13.02-.29.02-.35-.19-.11-.48-.46-.13-.94.2.1.52.44.26.94-.02.08-.04.24.03.27.08.04.62-.71.7-1.12-.07-.04-.18-.17-.18-.4 0-.24.2-.49.31-.58.07.08.2.31.2.59 0 .28-.17.4-.25.42l-.18.67c-.01.04-.01.1.1.08.1-.02.25-.09.32-.12.13-.24.55-.62 1.22-.21-.16.26-.61.69-1.16.35-.26.14-.82.5-1.08.84 0 .03.06.1.24.12.18.03.33.11.38.15.25-.09.8-.12 1.01.47-.24.11-.8.22-1.06-.3-.26-.07-.83-.16-1.05.04-.3.26-.42.47-.49.9-.06.43.03 1.13.31 1.48a4 4 0 0 0 3.15-3.38 29 29 0 0 1 2 .1 6 6 0 0 1-11.93-.09l1.23-.01h.77a4 4 0 0 0 3.15 3.38z" fill="#73AC41"/></svg>