<!-- by TradingView --><svg width="18" height="18" xmlns="http://www.w3.org/2000/svg"><path fill="#0099D8" d="M0 0h18v18H0z"/><path d="M12.257 8.5H14L12 14h-1.777l2.034-5.5zM14.379 7h-8.17c-.433 0-.992.194-1.302.525-.301.32-.47.754-.47 1.214.002.501.21.936.557 1.288L6.261 11.3c.219.217.015.703-.261.699H2.5l3-7H15l-.621 2z" fill="#fff"/><path d="M10.3 8.5L8.266 14h-.918c-.075-.02-.083-.083-.017-.13.442-.186.803-.624.961-1.143a2.117 2.117 0 00-.351-1.894L6.404 9.15a.424.424 0 01-.068-.435.333.333 0 01.3-.211L10.3 8.5z" fill="#fff"/></svg>