<!-- by TradingView --><svg width="18" height="18" viewBox="0 0 18 18" xmlns="http://www.w3.org/2000/svg"><path fill="#F0F3FA" d="M0 0h18v18H0z"/><path d="M5.62 6.58c.31-.45.73-.82 1.16-1.16.44-.3.9-.58 1.36-.87l1.12-.74c.34-.27.66-.54.94-.87.11-.13.2-.28.29-.43l.2-.44.03-.07c.18.34.08.82-.01 1.17a4.32 4.32 0 0 1-.99 1.52c-.36.35-.75.64-1.17.91-.36.23-.72.43-1.07.66-.48.36-1.06.8-1.34 1.34h2.9c.14 0 .32.13.33.33 0 .2-.2.37-.33.37H5.89c-.07.13-.07.52-.07.7h1.52c.13 0 .32.18.32.36s-.19.34-.32.34H5.89c.2.73.51 1.43.87 2.1-.9-.86-1.66-1.83-1.75-3.1-.05-.76.16-1.49.61-2.12Z" fill="url(#akbzalofc)"/><path d="M12.38 11.43c-.31.44-.73.81-1.16 1.15-.44.3-.9.59-1.36.87l-1.12.74c-.34.27-.66.55-.94.88-.11.13-.2.27-.29.42a5.8 5.8 0 0 0-.2.45l-.03.06c-.18-.34-.08-.82.01-1.17.18-.58.59-1.06.99-1.52.36-.34.75-.64 1.17-.9l1.07-.67c.48-.36 1.06-.8 1.34-1.34h-2.9c-.14 0-.32-.12-.33-.33 0-.2.2-.37.33-.37h3.15c.07-.13.07-.51.07-.7h-1.52c-.13 0-.32-.18-.32-.36 0-.17.19-.34.32-.34h1.45c-.2-.73-.51-1.42-.87-2.1.9.86 1.66 1.84 1.75 3.1.05.76-.16 1.49-.61 2.13Z" fill="#48484A"/><defs><linearGradient id="akbzalofc" x1="7.9" y1="11.8" x2="7.9" y2="2" gradientUnits="userSpaceOnUse"><stop stop-color="#F5DA36"/><stop offset="1" stop-color="#E92E33"/></linearGradient></defs></svg>