<!-- by TradingView --><svg width="18" height="18" fill="none" xmlns="http://www.w3.org/2000/svg"><path fill="#F0F3FA" d="M0 0h18v18H0z"/><path fill-rule="evenodd" clip-rule="evenodd" d="M9.907 13h1.437a.58.58 0 0 0 .575-.437l2.075-8.244c.037-.165-.097-.319-.276-.319a.283.283 0 0 0-.26.161l-4.092 8.074c-.164.363.12.765.541.765Zm-1.966 0H6.884c-.323 0-.536-.315-.399-.588l3.387-6.773a.209.209 0 0 1 .188-.112c.136 0 .235.12.201.243l-1.893 6.92a.436.436 0 0 1-.427.31Zm-2.854 0h-.646c-.323 0-.536-.315-.399-.588l2.664-5.327a.168.168 0 0 1 .151-.09c.109 0 .189.096.162.195l-1.505 5.5a.437.437 0 0 1-.427.31Z" fill="#000"/></svg>