<!-- by TradingView --><svg width="18" height="18" xmlns="http://www.w3.org/2000/svg"><path fill="#0C3E6A" d="M0 0h18v18H0z"/><path d="M9.43 4c1.574.014 3.077.6 3.57 1l-1 1.53c-1.067-.96-3.055-.936-3.79-.508-.474.276-.794.816-.557 1.32.237.503 1.614.708 2.623.92 1.03.218 1.666.656 1.986.973.32.317.738.929.738 1.807 0 .878-.668 1.57-.94 1.807-.38.405-1.611 1.202-3.494 1.148-1.882-.054-3.162-.934-3.566-1.367l1-1.631c.368.371 1.974 1.357 2.99 1.316C10.003 12.275 11 11.743 11 11c0-.745-.716-1.005-2.01-1.249-1.295-.243-2.488-.74-2.924-1.14-.435-.399-.562-.77-.606-1.62-.044-.852.619-1.718.956-2.044.349-.321 1.44-.96 3.015-.946z" fill="#fff"/></svg>