<!-- by TradingView --><svg xmlns="http://www.w3.org/2000/svg" width="18" height="18" viewBox="0 0 18 18"><path fill="#20409A" d="M0 0h18v18H0z"/><path d="M6.8 6.74 5.58 5.7c-.1-.12-.2-.4.09-.63l2.82-1.88c.17-.12.54-.36 1.05 0l4 3.66c.15.13.46.51.46.96v3.82c0 .2-.14.54-.62.24L8 7.33l1.1-.87 2.58 2.13v.4l1 .9V8.24L9 5.15l-2.2 1.6Zm4.4 4.52 1.22 1.04c.1.12.2.4-.09.63l-2.82 1.88c-.17.12-.54.36-1.05 0l-4-3.66A1.38 1.38 0 0 1 4 10.2V6.37c0-.2.14-.54.62-.24L10 10.67l-1.1.87L6.33 9.4v-.4l-1-.83v1.58L9 12.84l2.2-1.58Z" fill="#fff"/></svg>