<!-- by TradingView --><svg width="18" height="18" viewBox="0 0 18 18" xmlns="http://www.w3.org/2000/svg"><path fill="#450099" d="M0 0h18v18H0z"/><path d="M9 8.7a.83.83 0 0 0-.83-.7H8v2.22c0 .45.24.78.64.78H9v-.96c0-.88.07-1.1.4-1.1.24 0 .45-.18.5-.45l.1-.4A.76.76 0 0 0 9.62 8c-.3 0-.47.21-.62.7ZM4.37 9.22l-.4-.14c-.14-.04-.17-.11-.17-.19 0-.11.1-.16.19-.16s.15.03.19.09c.06.1.16.17.26.17H5C5 8.25 4.43 8 3.95 8c-.5 0-.95.43-.95.86 0 .2.02.72.73.96l.28.1c.17.06.19.08.19.17 0 .12-.09.19-.22.19a.24.24 0 0 1-.18-.07.66.66 0 0 0-.48-.21H3c0 .67.5 1 .98 1S5 10.73 5 10.09a.88.88 0 0 0-.63-.87ZM7.27 8H7v-.22C7 7.25 6.96 7 6.25 7H6v1h-.67v.15c0 .4.19.84.67.85v1.23c0 .44.12.77.7.77H7V9h1v-.32C8 8.33 7.7 8 7.27 8ZM13.8 8c-.42 0-.79.2-.95.6-.18-.39-.52-.6-1.04-.6-.3 0-.76.06-.99.45-.11-.24-.24-.45-.62-.45H10v2.21c0 .45.29.79.76.79H11v-.98c0-.76 0-1.02.48-1.02.2 0 .52.09.52.47v.74c0 .45.27.79.75.79H13v-1c0-.74.14-1 .46-1 .33 0 .43.1.43.48v.75c0 .44.37.77.84.77H15V9.45c0-.9-.39-1.45-1.2-1.45Z" fill="#fff"/></svg>