<!-- by TradingView --><svg xmlns="http://www.w3.org/2000/svg" width="18" height="18" viewBox="0 0 18 18"><path fill="#F0F3FA" d="M0 0h18v18H0z"/><path d="M9 9V3l1.49 4.01L9 9Z" fill="#002D62"/><path d="M9 9V3L7.5 7 9 9Z" fill="#CDCCCC"/><path d="M7.5 7H3l6 1.99L7.5 7Z" fill="#002D62"/><path d="M10.5 7H15L9 8.99 10.5 7ZM6.68 9.81 3 7l6 1.98-2.32.83Z" fill="#CDCCCC"/><path d="M11.28 9.82 15 7 9 8.98l2.28.84Z" fill="#002D62"/><path d="M6.68 9.81 5.31 14l3.7-5.02-2.33.83Z" fill="#002D62"/><path d="M11.28 9.81 12.65 14 9 8.98l2.27.83ZM9 11.43 5.32 14 9 8.98v2.45Z" fill="#CDCCCC"/><path d="M9 11.43 12.65 14 9 8.98v2.45Z" fill="#002D62"/></svg>