<!-- by TradingView --><svg width="18" height="18" viewBox="0 0 18 18" xmlns="http://www.w3.org/2000/svg"><path fill="#F0F3FA" d="M0 0h18v18H0z"/><path d="M13 5H5v.7a6.76 6.76 0 0 1 2.61-.43c1.15 0 1.87.1 2.08.15-.94-.12-2.68.27-2.68 1.12 0 .85 1.28 1.56 3.62 2.67 1.23.57 1.97 1.04 2.37 1.34V5Zm0 7.26a6.4 6.4 0 0 1-2.37.47c-.93 0-1.9-.1-2.26-.15.76 0 2.6-.2 2.6-1.16 0-.72-.65-1.06-1.64-1.58a17.7 17.7 0 0 1-1.17-.63c-.46-.28-.98-.54-1.48-.79-.63-.31-1.24-.61-1.68-.93V13h8v-.74Z" fill="#E32A33"/></svg>