<!-- by TradingView --><svg width="18" height="18" viewBox="0 0 18 18" xmlns="http://www.w3.org/2000/svg"><path fill="#F0F3FA" d="M0 0h18v18H0z"/><path d="M4.46 9.76C3.3 10.45 3.14 12.2 3.21 13c.07-.07.33-.14.83-.14h1.47c.67 0 1.25-.65 1.46-.94.35.22 1.17.65 1.67.65s1.15-.15 1.29-.37a6.5 6.5 0 0 0 2.29.33c1.46 0 2.27-1.04 2.27-1.48 0-.43.2-.64.42-1.08.16-.34.07-.72 0-.86.16-.17.07-.5 0-.65v-.43c0-.18-.14-.36-.21-.44v-.43c0-.17-.28-.36-.42-.43.07-.14.17-.43 0-.43s-.35.14-.42.21c-.07-.21-.25-.65-.41-.65-.17 0-.21.15-.21.22a3.1 3.1 0 0 0-2.51.87 1.67 1.67 0 0 0-1.25-1.3v-.22L8.43 5l-.2.22L7.8 5l-.2.43L6.55 5l.43.66H6v.42c-.66.35-1.05 1.44-1.12 1.95-1.5 0-1.88.57-1.88.86.84 0 1.32.58 1.46.87Z" fill="#0C6348"/><path d="M6.66 6h.73v-.35l.41.21.21-.43.42.22.21-.22.42.22v.21l.42.46h-.42v.41l-.42-.22-.2.65-.22-.43-.2.43-.42-.43-.42.43-.21-.65-.63.22.32-.43V6Zm6.16 1.81.42-.43-.21-.43.41.21v-.43l.42.43.21-.21v.43l.42-.22-.21.65.42.22-.21.43h.2l-.2.43.2.87-.2-.44-.42.65v-.86l-.63.43.21-.6h-.41l.2-.66h-.41l.2-.47h-.41Zm-7.73.43v.44h-.63c.34 0 .7.43.84.64l-.63.22c-.17-.52-.77-.8-1.04-.86.5-.35 1.18-.44 1.46-.44Zm-.63 3.68c.28-.22.96-.7 1.46-.87l.84.87c-.2.29-.75.82-1.25.65-.63-.22-.84-.22-1.26-.22-.33 0-.7.29-.83.43.07-.5.29-1.6.62-1.94h.42v-.65l.21.43v-.65l.42.65v-.65l.42.44v-.22l.19.44c-.35.15-1.07.6-1.24 1.29ZM7.4 6.3c.14.07.5.17.83 0 .34-.18.28-.36.21-.43 0 .07-.08.21-.42.21a.92.92 0 0 0-.62.22Zm6.47 1.51c-.2 0-.41.43-.2.65.2.22.62.22.62 0s-.2-.24-.42-.22c.07-.15.16-.43 0-.43Z" fill="#3BAF2A"/><path d="M10.52 6.95c-.17-.52-.9-.94-1.25-1.09 0 .22.77.46.62.65-.14.2-.2 0-.41 0-.21 0 .2.65.2.87 0 .21-.62-.22-.83-.22-.21 0-.21.65-.42.65-.2 0 0-.65-.2-.65-.22 0-.22.65-.43.65-.2 0-.2-.65-.41-.65-.21 0-.21.43-.42.43-.17 0-.21-.43-.21-.64l-.42.21a.65.65 0 0 1-.42-.21c-.2-.22-.2 0-.2.21 0 .22.2.22 0 .22-.17 0-.21.14-.21.21h.2v.22H5.3v.22h.42v.21H5.5v.22l.2.22-.2.21v.22l.62.21h-.41v.22l.2.22h-.2v.21h.41l-.2.22.2.22h.42v.21h-.42v.22h.63c0 .07-.04.21-.2.21-.18 0 .2.15.4.22-.06 0-.16.04 0 .22.22.21.84.86 1.89.86 1.04 0 1.46-1.73 1.67-3.03.21-1.3.21-1.73 0-2.37ZM12.61 6.51c.5 0 .63.15.63.22h-.63c-.17 0 .07.58.2.86-.06.08-.2.26-.2.44 0 .17.14.21.2.21 0 .35.15.44.22.44a1 1 0 0 0 .2.64c-.13 0-.37.05-.2.22.16.17.48.22.62.22 0 .14.05.47.21.65.21.21.42-.44.63-.44.2 0 0 .44 0 .65 0 .22-.2 0-.42 0-.2 0 .21.22.21.43 0 .22-.42-.21-.42 0 0 .22.21.22 0 .44-.2.21-.2 0-.41 0-.21 0 .2.21 0 .43-.21.22-.21-.22-.42-.22s0 .44-.21.44 0-.44-.21-.22c-.2.22 0 .22-.2.22-.18 0-.22-.15-.22-.22l-.2.22h-.22v-.22h-.2v.22h-.21l-.21-.22v.22l-1.05-.44.21-.43c.21.07.63.13.63-.22 0-.34-.28-.28-.42-.21l.2-.65c.15 0 .43-.04.43-.22 0-.17-.14-.21-.21-.21V9.1c.07-.07.2-.26.2-.43 0-.18-.13-.22-.2-.22 0-.22.04-.74.2-1.08.22-.43.84-.87 1.47-.87Z" fill="#E31239"/><path d="M8.64 8.9c-.2 0-.2 0-.2-.44 0-.35.13-.29.2-.22.07.08.21.26.21.44 0 .21 0 .21-.2.21ZM9.69 8.46c.16-.35.2-.29.2-.22.07.08.21.26.21.44 0 .21-.62.21-.41-.22ZM10.1 7.38c0-.35.14-.43.21-.43.21 0 .21.21.21.43 0 .21-.42.43-.42 0ZM7.39 8.24c0-.34.14-.43.2-.43.17 0 .22.29.22.43 0 .15-.05.44-.21.44-.21 0-.21 0-.21-.44ZM8.85 9.54c0-.35.28-.29.42-.22v.44c-.14.07-.42.13-.42-.22ZM9.9 9.97c0-.34.13-.43.2-.43.21 0 .21.22.21.43 0 .22-.42.44-.42 0ZM7.6 10.4c-.17-.34.07-.43.2-.43.18-.05.21.22.21.44 0 .21-.2.43-.41 0ZM9.27 11.05c0-.34.14-.43.2-.43.42 0 .42.43.22.65-.21.22-.42.22-.42-.22ZM8.22 11.49c0-.35.14-.44.21-.44.21 0 .21.44.21.65 0 .22-.42.22-.42-.21ZM7.8 11.49c0 .21-.2.21-.41 0-.17-.18-.07-.36 0-.44.2-.21.41.22.41.44ZM6.76 8.9c0-.35.14-.44.2-.44.12-.06.43.22.43.43 0 .22 0 .22-.21.43-.17.18-.35-.21-.42-.43ZM6.13 9.76c0-.18.14-.22.21-.22.14 0 .42.04.42.22 0 .21 0 .43-.2.43-.22 0-.43-.22-.43-.43ZM5.92 8.03c0-.18.14-.22.21-.22.14-.05.21.65 0 .65-.2 0-.2-.22-.2-.43ZM10.94 8.68c-.07.07-.17.21 0 .21.2 0 .08-.33 0-.21ZM10.73 9.76c0 .07.04.21.2.21.22 0 0-.21-.2-.21ZM11.77 7.38c-.16-.35.07-.43.21-.43.18-.05.21.21.21.43 0 .21-.2.43-.42 0ZM11.36 8.24c-.17-.17.07-.36.2-.43.07 0 .21.04.21.22 0 .21-.2.43-.41.21ZM11.77 8.9c0-.18.14-.22.21-.22.13-.06.2.11.21.21 0 .07-.04.22-.2.22-.22 0-.22 0-.22-.22ZM12.2 10.19c0-.35.27-.29.41-.22.33 0 .28.3.2.44-.2.07-.62.13-.62-.22ZM11.77 10.62c-.16 0-.34-.14-.41-.21 0-.44.62-.44.62-.22s0 .43-.2.43ZM13.24 11.27c-.34 0-.42-.14-.42-.22 0-.34.42-.28.63-.21.07.14.12.43-.21.43ZM11.36 11.49c-.17-.18.07-.36.2-.44.42 0 .42.22.42.44 0 .21-.41.21-.62 0Z" fill="#FEFFFF"/></svg>