<!-- by TradingView --><svg width="18" height="18" viewBox="0 0 18 18" xmlns="http://www.w3.org/2000/svg"><path fill="#F0F3FA" d="M0 0h18v18H0z"/><path d="m3.39 11.5-.22 1.05c-.01.05.02.1.06.08l1-.62a.12.12 0 0 1 .08-.02l10.03 1c.1.02.18-.09.19-.23L15 5.28c0-.15-.08-.29-.18-.28L3.16 6.17c-.1 0-.17.14-.16.29l.4 4.94-.01.1Z" fill="#5E29BA"/><path d="M11 9.89V9.8c0-.46-.37-.79-.96-.94l-1.77-.45c-.23-.05-.38-.16-.38-.27v-.1c0-.3.35-.37 1.05-.38h.07c.7 0 1.07.04 1.11.34v.04h.77V8c-.04-.66-.67-1-1.88-1h-.08c-1.19.01-1.79.37-1.79 1.06v.09c0 .38.32.68.9.82l1.76.45c.3.08.4.2.4.39v.08c0 .48-.8.44-1.2.44-.42 0-1.2.04-1.2-.44v-.06H7v.06C7 10.75 8.16 11 9 11c.83 0 2-.24 2-1.11Z" fill="#fff"/></svg>