<!-- by TradingView --><svg width="18" height="18" viewBox="0 0 18 18" xmlns="http://www.w3.org/2000/svg"><path fill="#F0F3FA" d="M0 0h18v18H0z"/><path d="M9 9.56c.3 0 .55-.25.55-.56A.55.55 0 0 0 9 8.44c-.3 0-.55.25-.55.56 0 .31.25.56.55.56Z"/><path d="M11.98 7.32C11.85 5.34 10.95 3.68 9.77 3c-.34.56-1.17 2.16-.8 3.78.1.5.33.93.55 1.4.5 1.02 1.06 2.18.51 3.96 1.26-.7 2.1-2.62 1.95-4.82ZM6.03 10.73c.17 1.98 1.1 3.62 2.3 4.27.32-.57 1.13-2.18.72-3.8-.12-.5-.34-.93-.57-1.38-.52-1.02-1.1-2.16-.6-3.96-1.24.74-2.04 2.68-1.85 4.87Z" fill="#EE7623"/></svg>