<!-- by TradingView --><svg width="18" height="18" xmlns="http://www.w3.org/2000/svg"><path fill="#022C6C" d="M0 0h18v18H0z"/><path d="M5.778 13c.153-1.26.62-2.657 1.351-3.71a8.29 8.29 0 012.14-2.103 9.225 9.225 0 012.14-1.052l-.188.117c-.063.038-.126.076-.188.116-.878.554-1.672 1.26-2.266 2.087a5.274 5.274 0 00-.476.73c-.64 1.112-.983 2.552-1.02 3.815H5.779zm-1.207-1.847S4.143 12.17 4 13h1.168c.153-1.155.578-2.44 1.234-3.42a8.946 8.946 0 012.173-2.24c-.86.4-1.646.939-2.332 1.58-.685.651-1.243 1.3-1.672 2.233zm8.726-4.684c.164.072.329.145.494.22a43.367 43.367 0 01-.627-1.035l.214-.217c.207-.21.417-.421.622-.642-.304.055-.613.119-.916.181l-.288.06c-.139-.236-.27-.464-.403-.693L12.194 4c-.041.401-.083.787-.133 1.18l-.145.026c-.354.064-.713.128-1.059.199l.237.104c.292.128.587.258.883.377-.037.355-.082.703-.127 1.056l-.015.117.261-.273c.175-.182.35-.364.517-.546.013-.004.024-.014.035-.023.014-.014.028-.027.048-.017.198.092.399.18.6.27z" fill="#fff"/></svg>