<!-- by TradingView --><svg width="18" height="18" viewBox="0 0 18 18" xmlns="http://www.w3.org/2000/svg"><path fill="#F0F3FA" d="M0 0h18v18H0z"/><path d="M5 8a1 1 0 1 0 0-2 1 1 0 0 0 0 2Zm-1.33 3.76a1.6 1.6 0 0 1 1.57-1.14 1.52 1.52 0 0 1 1.49.95c.1.22.2.43.41.43.13 0 .28-.12.3-.24C7.7 10.68 7.15 9 5.25 9a2.23 2.23 0 0 0-2.16 2.82c.03.11.15.18.27.18.14 0 .27-.1.32-.24Z" fill="#45466B"/><path d="M9 8a1 1 0 1 0 0-2 1 1 0 0 0 0 2Zm-1.53 3.76c.16-.48.57-1.14 1.54-1.14.72 0 1.13.35 1.37.72.05.07.09.16.13.25.09.2.18.41.4.41.12 0 .26-.15.29-.27C11.43 10.65 10.92 9 9 9a2.23 2.23 0 0 0-2.17 2.82c.04.11.2.18.32.18.15 0 .27-.1.32-.24Z" fill="#AA96C8"/><path d="M7.14 9.97a2.26 2.26 0 0 0-.33 1.78c.06.1.13.2.23.23l.1.02c.13 0 .28-.12.3-.24a2.5 2.5 0 0 0-.3-1.79Z" fill="#3D3966"/><path d="M13 8a1 1 0 1 0 0-2 1 1 0 0 0 0 2Zm-1.81 3.77c.16-.48.6-1.15 1.55-1.15.98 0 1.47.68 1.65 1.16.04.13.16.22.3.22.12 0 .23-.08.26-.2.23-1.08-.3-2.8-2.2-2.8a2.23 2.23 0 0 0-2.17 2.82c.04.11.15.18.27.18.16 0 .28-.08.34-.23Z" fill="#ACB6C0"/><path d="M10.9 9.95a2.29 2.29 0 0 0-.36 1.71c.08.17.17.32.34.34.06 0 .12-.02.16-.05a.4.4 0 0 0 .16-.22c.12-.54.04-1.23-.3-1.78Z" fill="#8279A2"/></svg>