<!-- by TradingView --><svg width="18" height="18" viewBox="0 0 18 18" xmlns="http://www.w3.org/2000/svg"><path fill="#F0F3FA" d="M0 0h18v18H0z"/><path d="M9 4c2.1.83 4.21 1.2 5 1.28v.2c-.05 8.34-2.92 8.97-5 9.52-2.08-.55-4.95-1.18-5-9.53v-.2C4.79 5.2 6.9 4.84 9 4Zm0 .7c-1.67.63-3.33.98-4.33 1.14.06 3.85.79 5.83 1.6 6.91A4.53 4.53 0 0 0 9 14.37c.99-.26 1.94-.6 2.72-1.62.82-1.08 1.55-3.06 1.61-6.91-1-.16-2.66-.51-4.33-1.14Z" fill="#00C4F6"/><path d="m6 10 5.3-6-1.91 5H12l-5.3 6 1.87-5H6Z" fill="#FFCA00"/></svg>