<!-- by TradingView --><svg width="18" height="18" xmlns="http://www.w3.org/2000/svg"><path fill="#F0F3FA" d="M0 0h18v18H0z"/><path d="M5.36 4.17a13.559 13.559 0 01-.356 9.757c-.02.053.043.1.11.053 2.121-1.51 3.971-4.404 4.58-6.77a17.655 17.655 0 01-4.151-3.168c-.102-.107-.228.01-.184.129z" fill="#ED1C24"/><path d="M14.915 9.046c-1.758-.3-3.47-.926-4.583-1.502-.646 1.838-1.892 3.809-3.196 5.164-.071.066-.014.18.102.092 2.785-2.094 5.688-3.1 7.68-3.519.109-.027.11-.202-.003-.235z" fill="#840041"/></svg>