<!-- by TradingView --><svg width="18" height="18" xmlns="http://www.w3.org/2000/svg"><path fill="#00B35A" d="M0 0h18v18H0z"/><path d="M13.542 6.378a8.93 8.93 0 01-1.005 2.245c-1.397 2.23-3.601 3.563-5.205 4.287-.522.236-1.01.421-1.435.566v.007c1.31-.025 2.491-.23 3.52-.61 1.167-.432 2.117-1.083 2.825-1.931 1.04-1.247 1.491-2.846 1.304-4.564h-.004zM5.02 7.422c-.892 1.115-1.195 2.772-.925 5.068.02.214.044.388.064.51l.01.007c.972-.476 4.761-2.638 4.744-7.348l-.009-.009c-1.812.191-3.084.771-3.885 1.772z" fill="#fff"/><path d="M9.4 5.577l-.007.017c.046.787-.004 1.224-.15 1.954a8.481 8.481 0 01-1.7 3.617 9.969 9.969 0 01-1.239 1.298l.002.004c1.928-.704 4.239-1.958 5.66-4.15 1.405-2.165 1.212-3.065 1.062-3.812l-.004-.001c-.83.637-2.305.868-3.624 1.073z" fill="#fff"/></svg>