<!-- by TradingView --><svg width="18" height="18" fill="none" xmlns="http://www.w3.org/2000/svg"><path fill="#F0F3FA" d="M0 0h18v18H0z"/><path d="m9.903 6.237.747-1.21-.41-.673c-.16-.247-.248-.346-.513-.354-.207.012-.335.132-.43.29L9 4.768l.903 1.468ZM9.004 7.694l-.9-1.462-3.39 5.526c-.096.148-.144.361-.048.52l.893 1.502c-.12-.208-.065-.391.063-.609l3.382-5.477Z" fill="#009DDE"/><path d="M14.952 8.806c.09-.16.042-.341-.058-.498l-2.86-4.01C11.94 4.145 11.809 4 11.537 4H9.673c.276.007.368.107.534.358L13.475 9h.881c.271-.004.459-.002.596-.194ZM6.43 4c.262.008.36.108.518.354l3.32 5.39h1.797l-3.358-5.45C8.617 4.144 8.491 4 8.23 4H6.431ZM12.91 10.66h-1.954l1.036 1.57h.917c.291 0 .442-.106.583-.308.111-.186.076-.368-.028-.535l-.555-.728Z" fill="#329D3B"/><path d="M14.38 8.98H8.205L6.954 11h6.574c.223 0 .511.04.615-.13l.81-2.092c-.132.19-.312.199-.573.202ZM5.56 13.78c.114.172.291.22.49.22h5.867c.251 0 .4-.067.504-.23l1.134-1.985c-.14.2-.225.215-.516.215H6.341l-.405.585c-.515.748-.497.987-.376 1.195ZM3.936 10.906c.084.117.234.092.454.092h.802L6.422 9h-1.54l-.79 1.35-.066.109c-.129.217-.2.256-.08.464l-.01-.017Z" fill="#103A63"/><path d="m7.355 5.016-.407-.662c-.16-.249-.25-.347-.518-.354-.208.01-.339.13-.436.29L3.1 9.072c-.095.154-.149.35-.043.525l.968 1.388c-.034-.22-.083-.328 0-.526l3.329-5.443Z" fill="#009DDE"/></svg>