<!-- by TradingView --><svg width="18" height="18" viewBox="0 0 18 18" xmlns="http://www.w3.org/2000/svg"><path fill="#F0F3FA" d="M0 0h18v18H0z"/><path d="M13 8.55c-.6-.56-1.6-.91-2-1.02V6.32c0-.3-.35-.56-.67-.56H7.57a.56.56 0 0 0-.57.56v.31c0 .55 0 1.22 3.06 1.65 2.45.36 2.98 1.85 2.94 2.56v.11A3.1 3.1 0 0 1 9.84 14H8.3A3.25 3.25 0 0 1 5 10.81V9.3c.47.76 1.53 1.16 2 1.27v.9c0 .3.25.54.55.54h2.83c.34 0 .62-.27.62-.6v-.2c0-.8-.7-1.01-2.62-1.41C5.71 9.24 5 8.55 5 6.88 5 5.2 6.55 4 8.86 4 12.3 4 13 5.88 13 7.44v1.11Z" fill="url(#asxk5cdee)"/><path d="M9.27 14H8.3A3.25 3.25 0 0 1 5 10.81V9.3c.47.76 1.53 1.16 2 1.27v.9c0 .3.25.54.55.54h2.83c.32 0 .58-.23.62-.53v.01c0 1.19-.81 2.24-1.73 2.52Z" fill="url(#bsxk5cdee)"/><defs><linearGradient id="asxk5cdee" x1="5.8" y1="5" x2="11.9" y2="13.14" gradientUnits="userSpaceOnUse"><stop stop-color="#F47220"/><stop offset="1" stop-color="#F78E1E"/></linearGradient><linearGradient id="bsxk5cdee" x1="4.88" y1="9.38" x2="10.45" y2="13.91" gradientUnits="userSpaceOnUse"><stop stop-color="#F57B20"/><stop offset="1" stop-color="#F15A22"/></linearGradient></defs></svg>