<!-- by TradingView --><svg width="18" height="18" viewBox="0 0 18 18" xmlns="http://www.w3.org/2000/svg"><path fill="#FF002E" d="M0 0h18v18H0z"/><path d="m15.55 10.06-.02-.01-.01-.02v-4A.03.03 0 0 0 15.5 6a.03.03 0 0 0-.03 0l-.57.44c-.16.14-.32.28-.46.43 0 0-.04.03-.04.06v3.03c0 .34.08.6.25.77.17.18.5.27.87.27h.43a.04.04 0 0 0 .03-.01v-.92H15.55Z" fill="#fff"/><path d="M14.08 7h-1.04l-.03.01-.02.03-.45 1.57-.35 1.34-.34-1.34a347.28 347.28 0 0 0-.52-1.6L11.3 7l-.52 1.9a279.62 279.62 0 0 1 .69 2.09l.03.01h1.3l.03-.01.02-.03c.45-1.3.88-2.6 1.28-3.89 0-.02-.02-.07-.05-.07Z" fill="#FFDE14"/><path d="M11.3 7h-1.09a.05.05 0 0 0-.04.04 441.66 441.66 0 0 1-.62 2.62l-.28-1.05a421.75 421.75 0 0 1-.47-1.6h-.03l-1-.01-.03.01-.02.03a365.57 365.57 0 0 0-.73 2.62 163.58 163.58 0 0 1-.6-2.62C6.38 7.02 6.36 7 6.34 7H5.28c-.04 0-.06.04-.05.07a117.9 117.9 0 0 0 1.1 3.91l.04.02h1.12l.03-.01.02-.03.47-1.65.23-.86.24.86a706.98 706.98 0 0 0 .5 1.68L9 11a733.92 733.92 0 0 0 1.18-.01l.01-.03.58-2.06.52-1.9Z" fill="#fff"/><path d="m11.45 7.36-.57 1.86-.1-.32.53-1.9a.06.06 0 0 1 .04.04l.1.32Z" fill="#FDBC2C"/><path d="M5.18 9.72c-.02-.39-.17-.82-1.14-1.12l-.15-.05c-.35-.1-.68-.19-.7-.38 0-.19.21-.29.5-.3.24 0 .5.08.8.27a.06.06 0 0 0 .09-.02 2746.31 2746.31 0 0 1 .48-.69.05.05 0 0 0-.02-.03A2.45 2.45 0 0 0 3.62 7c-.94.03-1.6.5-1.57 1.24.02.5.46.84 1.18 1.08l.14.04c.36.12.68.23.68.44.01.2-.16.32-.48.33h-.04a1.75 1.75 0 0 1-.98-.34.06.06 0 0 0-.05 0l-.02.02a1481.74 1481.74 0 0 1-.48.72l.02.03a2.77 2.77 0 0 0 1.54.44c1.03-.03 1.66-.51 1.62-1.28Z" fill="#fff"/></svg>