<!-- by TradingView --><svg width="18" height="18" viewBox="0 0 18 18" xmlns="http://www.w3.org/2000/svg"><path fill="#F0F3FA" d="M0 0h18v18H0z"/><path d="M3 12.57V13h5.83v-.56H3.78l2.85-4.22-.46-.27L3 12.57Z" fill="#0056B8"/><path d="M15 12.57V13H9.4v-.56h4.82l-1.89-2.8.46-.27 2.21 3.2Z" fill="#092C74"/><path d="m6.87 7.86-.44-.25L8.89 4h.22l2.6 3.61-.4.33L8.98 4.8 6.87 7.86Z" fill="#166936"/><path fill-rule="evenodd" d="M7.55 9a1.5 1.5 0 1 1-1.05.38L7.45 8h.79l-.69 1Zm.7 1.5a.75.75 0 1 1-1.5 0 .75.75 0 0 1 1.5 0ZM10.5 12c.83 0 1.5-.89 1.5-1.98 0-.3-.05-.59-.14-.85.1.07.23.11.36.11.37 0 .66-.29.66-.64 0-.35-.3-.64-.66-.64a.65.65 0 0 0-.65.62 1.34 1.34 0 0 0-1.07-.59c-.83 0-1.5.9-1.5 1.99 0 1.1.67 1.98 1.5 1.98Zm.02-.72c.42 0 .75-.57.75-1.26 0-.7-.33-1.27-.75-1.27-.41 0-.75.57-.75 1.27 0 .7.34 1.26.75 1.26Zm1.96-2.64c0 .14-.11.25-.26.25a.26.26 0 0 1-.26-.25c0-.14.12-.25.26-.25.15 0 .26.11.26.25Z" fill="#166936"/></svg>