<!-- by TradingView --><svg width="18" height="18" viewBox="0 0 18 18" xmlns="http://www.w3.org/2000/svg"><path fill="#4CA886" d="M0 0h18v18H0z"/><path d="M4 6.26A2.26 2.26 0 0 1 6.26 4h5.48A2.26 2.26 0 0 1 14 6.26v5.48A2.26 2.26 0 0 1 11.74 14H6.26A2.26 2.26 0 0 1 4 11.74V6.26Z" fill="#fff"/><path d="M6 6.69a.62.62 0 0 0-.1.1L5.84 7h-.22c-.3 0-.5.01-.54.03-.05.04-.08.03-.08.1s0 .08.03.12c.02.02.05.05.09.06.04.02.07.02.95.02.9 0 .9 0 .94-.02.12-.06.15-.15.07-.24C7.02 7 6.98 7 6.67 7h-.38l-.06-.22a.5.5 0 0 0-.09-.1.15.15 0 0 0-.15.01Zm1.64.26c-.2 0-.23.01-.28.08l-.03.04v1.7l-.01 1.5c-.04.27-.03.48-.1.7a.6.6 0 0 0-.02.23c.02.07.11.13.18.13.26 0 .22-.4.24-.56.06-.36.05-.62.05-1.5v-.6h.67v1.09c0 1.36 0 1.3.07 1.44l.03.08a.4.4 0 0 0 .17-.1c.06-.05.06.03.06-1.47a69.55 69.55 0 0 0-.02-1.26.19.19 0 0 0-.11-.12h-.87v-1h.51c.38 0 .42 0 .46-.02.08-.03.12-.1.12-.17 0-.05-.02-.11-.05-.14-.06-.05-.08-.05-.47-.05h-.6Zm1.97-.09c-.07.03-.1.05-.13.14-.06.12-.13.5-.13.66 0 .1.01.14.06.17.07.05.04.05 1.58.05h1.49c.13-.03.21-.16.15-.27a.16.16 0 0 0-.1-.1l-1.41-.01c-1.34 0-1.37 0-1.37-.02l.04-.15c.03-.15.05-.3.04-.34a.2.2 0 0 0-.1-.11c-.05-.02-.1-.03-.12-.02Zm.73 0c-.15 0-.2.03-.23.11a.17.17 0 0 0 0 .16c.04.08.08.1.22.1.16.02 2 .02 2.12 0 .12 0 .17-.04.2-.13a.18.18 0 0 0-.05-.18c-.04-.04-.05-.04-.1-.05h-2.16Zm-4.88.57c-.09.03-.12.1-.12.27a1.97 1.97 0 0 0 .09.56l-.13.02c-.16 0-.2.03-.24.09a.18.18 0 0 0 .03.24c.07.05.1.06.45.06h.4v.2h-.33c-.38 0-.44 0-.49.1a.23.23 0 0 0 0 .17c.03.05.09.09.17.1h.33l.32.02v.5l-.02.57c-.02.2-.06.36-.1.55-.07.24-.07.3-.05.36.05.1.16.13.25.08.04-.02.06-.04.09-.1a4.71 4.71 0 0 0 .22-1.56v-.4l.17-.01c.36 0 .44-.02.5-.1.04-.08.01-.2-.05-.25-.05-.03-.13-.04-.43-.04l-.19.01v-.2h.16c.3 0 .46 0 .51-.04.1-.06.13-.22.04-.3-.03-.03-.13-.05-.25-.06l-.1-.01.03-.13c.05-.2.06-.3.06-.44 0-.12 0-.14-.03-.18a.2.2 0 0 0-.15-.1c-.05 0-.06 0-.1.02-.08.05-.09.07-.12.34-.01.07-.02.46-.07.5a1.9 1.9 0 0 1-.34.03c-.02 0-.14-.16-.18-.28a3.05 3.05 0 0 1-.06-.3c-.03-.22-.04-.25-.11-.3a.17.17 0 0 0-.16 0Zm4.23.7c-.18 0-.23.01-.25.03a.19.19 0 0 0 .03.34c.03.01.38.02 1.5.02h1.47l-.01.52a6 6 0 0 0 .2 2.11c.03.11.05.14.1.16a.2.2 0 0 0 .23-.04c.06-.06.05-.08-.02-.4a4.61 4.61 0 0 1-.1-.52l-.02-1.07c0-.71-.01-1-.02-1.03a.16.16 0 0 0-.11-.1c-.06-.02-2.58-.03-3-.02Zm.58.59a.2.2 0 0 0-.07.06c-.03.04-.03.05-.03.15a1.3 1.3 0 0 0 .04.28l-.29.01c-.32 0-.35.01-.4.09-.04.06-.05.1-.01.17.01.04.04.07.05.08.06.05.1.05.61.05h.5v.26l-.32-.01c-.39 0-.56 0-.62.04-.1.07-.1.23 0 .3.06.04.2.05.6.05h.33v.25h-.47l-.52.01a.23.23 0 0 0-.12.11.18.18 0 0 0 .01.18c.06.08.04.08.6.08h.5V11c.01.21.03.27.1.3.06.04.11.04.17.01.08-.03.1-.1.12-.3v-.12h.42c.49 0 .58-.01.63-.05.1-.07.1-.25-.03-.31-.04-.02-.04-.03-.54-.03h-.5v-.08l.02-.13v-.05h.31c.35.01.55 0 .6-.03a.21.21 0 0 0 .1-.14.2.2 0 0 0-.07-.16c-.05-.05-.08-.05-.53-.05h-.42V9.6h.5c.55 0 .56 0 .62-.06.05-.04.06-.09.05-.16 0-.05-.04-.11-.08-.13a1.45 1.45 0 0 0-.4-.03h-.24l.01-.03a.91.91 0 0 0 .03-.37.2.2 0 0 0-.18-.12.2.2 0 0 0-.14.07c-.03.05-.05.13-.09.3l-.03.14h-.48l-.03-.16c-.05-.23-.07-.3-.15-.33a.17.17 0 0 0-.16 0Zm-4.94.68c-.1.04-.1.08-.13.5a2.4 2.4 0 0 1-.1.62c-.08.32-.08.33-.05.39 0 .03.04.06.06.08.04.02.05.03.1.03.14 0 .18-.07.27-.42.09-.33.12-.6.12-.9 0-.2-.01-.22-.08-.28-.03-.02-.05-.03-.1-.03l-.09.01Zm1.32 0a.2.2 0 0 0-.11.1 4.53 4.53 0 0 0 .17 1.43c.07.18.2.23.31.14.04-.03.07-.1.07-.13l-.06-.28c-.1-.41-.1-.5-.12-.86l-.02-.27a.18.18 0 0 0-.12-.12.16.16 0 0 0-.12 0Z" fill="#4CA886"/></svg>