<!-- by TradingView --><svg width="18" height="18" viewBox="0 0 18 18" xmlns="http://www.w3.org/2000/svg"><path fill="#F0F3FA" d="M0 0h18v18H0z"/><path d="M6.96 13.29c1.38 1 3.2.94 4.53-.13l1.98-1.6c.72-.57.7-1.74-.03-2.29L9.04 6 7.5 7.5l3.5 3-2 2-4.26-3.3-.1.07c-.42.3-.65.76-.64 1.21 0 .42.21.84.6 1.12l2.36 1.69Z" fill="#76BD43"/><path d="M11.04 4.71a3.7 3.7 0 0 0-4.53.13l-1.98 1.6c-.72.57-.7 1.74.03 2.29L9 12l1.5-1.5-3.5-3 2-1.9 4.26 3.2.1-.07c.42-.3.65-.76.64-1.21 0-.42-.21-.84-.6-1.12l-2.36-1.69Z" fill="#4F5354"/></svg>