<!-- by TradingView --><svg width="18" height="18" xmlns="http://www.w3.org/2000/svg"><path fill="#B5121B" d="M0 0h18v18H0z"/><path d="M6.274 11.83c-.016-1.182.75-2.3 1.833-2.298.288-.002.505.046.58.146.013.02.024.06-.097.073-.227-.002-.609.138-.933.475-.29.304-.531.783-.547 1.35.016 1.396 1.181 1.908 1.994 1.897 1.66.011 2.88-2.165 2.896-5.036-.007-1.844-.625-3.658-.925-4.437h-.014c-.228.131-.538.31-.789.482-.897.614-1.994 1.136-3.195 2.715-.715.943-1.678 2.424-1.671 4.378-.007.342.048.622.064.693.03.045-.009.059-.032.038-.103-.098-.466-1.022-.45-1.935C4.976 7.133 8.231 4.958 10.047 4H5.029C4.463 4 4 4.525 4 5.167v7.666C4 13.475 4.463 14 5.029 14h2.377c-.696-.51-1.141-1.312-1.132-2.17z" fill="#fff"/><path d="M12.915 4h-1.254c.484 1.052 1.331 3.32 1.339 5.458-.008 1.96-.8 3.718-2 4.542h1.915c.597 0 1.085-.525 1.085-1.167V5.167C14 4.525 13.512 4 12.915 4z" fill="#fff"/></svg>