<!-- by TradingView --><svg width="18" height="18" xmlns="http://www.w3.org/2000/svg"><path fill="#F0F3FA" d="M0 0h18v18H0z"/><path d="M12 12.667c-.47.207-.996.348-1.525.332-.53-.017-.712-.096-1.164-.332-.452-.236-.722-.577-.98-.972C8.07 11.3 8 10.813 8 10.36V7.646c0-.467-.047-1.05-.31-1.461-.261-.41-1.052-.776-1.69-.848.47-.207.996-.348 1.525-.331.53.016.684.024 1.136.26.452.236.73.47.99.865.259.395.35 1.008.349 1.46v2.715c0 .432.077.73.24 1.069.164.339.354.612.658.87.165.142.702.34 1.102.422z" fill="#FF671F"/><path d="M7 10.335H5.149c-.313 0-1.106-.086-1.518-.26a2.986 2.986 0 01-1.057-.742C2.29 9.02 2.167 8.6 2.07 8.208a2.315 2.315 0 01.015-1.184 2.53 2.53 0 01.606-1.06c.291-.308.64-.593 1.056-.76.417-.166.677-.21 1.135-.2.457.009.714.171 1.12.355-.57.18-1.058.374-1.219.516-.383.335-.737.845-.787 1.149-.05.304-.057.9.066 1.36.122.462.468.918.891 1.241.423.324 1.465.608 2.047.71z" fill="#FF9E1B"/><path d="M16 10.335c0 .456-.063.914-.312 1.313-.248.398-.556.732-.888.914a3.216 3.216 0 01-1.437.39c-.508.017-.92-.123-1.372-.332.85-.141 1.214-.312 1.372-.455.376-.338.49-.51.637-.97.098-.308.05-1.395 0-1.589-.16-.625-.626-1.132-.962-1.31-.356-.355-1.669-.554-2.038-.627h2.038a3.148 3.148 0 012.094.783c.555.5.867 1.177.868 1.883z" fill="#EB3300"/></svg>