<!-- by TradingView --><svg xmlns="http://www.w3.org/2000/svg" width="18" height="18" viewBox="0 0 18 18"><path fill="url(#a110qyids)" d="M0 0h18v18H0z"/><path d="M4 10.4V10h2.59c.03.51.3 1.64 2.35 1.64h.15c2.08 0 2.57-.45 2.57-.92 0-.5-.5-.83-2.33-.88l-1.36-.03C5 9.7 4.1 8.6 4.1 7.26v-.1c0-1.3.7-2.66 4.3-2.66h.74c3.74 0 4.6 1.44 4.6 2.74v.24h-2.58c-.04-.34-.22-1.16-2.29-1.16h-.17c-1.91 0-2.27.47-2.27.83 0 .37.42.64 2.05.67l1.33.02c2.98.07 4.18.85 4.18 2.58v.17c0 1.44-.66 2.91-4.64 2.91h-.73C4.48 13.5 4 11.54 4 10.4z" fill="#fff"/><defs><linearGradient id="a110qyids" x1="3.35" y1="3.12" x2="21.9" y2="24.43" gradientUnits="userSpaceOnUse"><stop stop-color="#1A1E21"/><stop offset="1" stop-color="#06060A"/></linearGradient></defs></svg>