<!-- by TradingView --><svg width="18" height="18" viewBox="0 0 18 18" xmlns="http://www.w3.org/2000/svg"><path fill="#F0F3FA" d="M0 0h18v18H0z"/><path d="M4.93 6.3c-.51 1.17-.43 3.45 1.5 3.45.86 0 1.2-.82 1.71-1.5C8.8 7.41 9.74 6 11.57 6 13.47 6 15 7.34 15 9c0 1.3-.96 2.42-2.3 2.83.28-.6.59-1.42.59-2.08 0-1.13-.86-1.5-1.72-1.5C9.24 8.25 9.54 12 6.43 12 4.53 12 3 10.66 3 9a3 3 0 0 1 1.93-2.7Z" fill="url(#a4cmwzawr)" fill-opacity=".8"/><defs><linearGradient id="a4cmwzawr" x1="9" y1="6" x2="9" y2="11.63" gradientUnits="userSpaceOnUse"><stop stop-color="#A15012"/><stop offset=".41" stop-color="#E49034"/><stop offset="1" stop-color="#FAA647"/></linearGradient></defs></svg>