<!-- by TradingView --><svg width="18" height="18" xmlns="http://www.w3.org/2000/svg"><path fill="#0480BC" d="M0 0h18v18H0z"/><path d="M8 10.986v3.925c0 .054.051.097.104.097h1.8a.096.096 0 00.096-.096v-3.937c0-.087.106-.13.166-.067l2.343 2.487c.048.05.131.035.158-.028l.612-1.407a.097.097 0 00-.027-.113l-1.295-1.07c-.084-.069-.006-.203.096-.163l1.81.585a.096.096 0 00.132-.09v-.449a.097.097 0 00-.045-.081L9.688 8.064a.096.096 0 01-.045-.081V5.726c0-.067.067-.113.13-.09l2.094.775c.096.036.174-.081.104-.156L9.56 3.66l-.001-.002-.126-.352a.45.45 0 00-.85 0l-.125.352-.001.002-2.33 2.593c-.069.075.011.19.106.154l1.994-.769a.096.096 0 01.131.09v2.255a.096.096 0 01-.045.081L4.04 10.612a.096.096 0 00-.045.081v.453c0 .066.066.113.13.09l2-.644c.102-.037.178.096.093.165l-1.338 1.09a.096.096 0 00-.027.114l.633 1.404a.096.096 0 00.16.025l2.195-2.469c.059-.066.16-.024.16.065z" fill="#fff"/><path d="M7.997 7.51V6.505a.096.096 0 00-.16-.073L5.646 8.36c-.082.072 0 .203.1.16l2.192-.92a.096.096 0 00.059-.09zM10.003 7.51V6.506c0-.083.098-.127.16-.073l2.198 1.928c.082.072 0 .204-.1.162L10.062 7.6a.096.096 0 01-.06-.09z" fill="#FFC700"/></svg>