<!-- by TradingView --><svg xmlns="http://www.w3.org/2000/svg" width="18" height="18" viewBox="0 0 18 18"><path fill="#0A1833" d="M0 0h18v18H0z"/><path d="M13.46 9.46a4.11 4.11 0 0 0-2.32-5.44 4.33 4.33 0 0 0-5.6 2.25 4.04 4.04 0 0 0 .31 3.77 2.7 2.7 0 0 1 3.02-.7 2.57 2.57 0 0 1 1.63 2.57 4.25 4.25 0 0 0 2.96-2.45Z" fill="#F8B000"/><path d="M5.85 10.04a2.54 2.54 0 0 0 .99 4.06c1.35.54 2.9-.08 3.46-1.4.11-.25.18-.52.2-.8a4.38 4.38 0 0 1-4.65-1.86Z" fill="#478ACA"/><path d="M8.87 9.35a2.7 2.7 0 0 0-3.02.7 4.38 4.38 0 0 0 4.65 1.87 2.56 2.56 0 0 0-1.63-2.57Z" fill="#EB6823"/><path d="M11.22 3.84A4.59 4.59 0 0 0 5.35 6.2c-.22.5-.33 1.02-.35 1.54v3.94c0 .37.06.75.21 1.1.3.7.84 1.23 1.55 1.5a2.93 2.93 0 0 0 3.13-.6l2.85-2.79a4.32 4.32 0 0 0-1.51-7.06Zm-.93 7.9a4.16 4.16 0 0 1-4.17-1.67c.7-.69 1.74-.9 2.67-.53a2.36 2.36 0 0 1 1.5 2.2Zm-1.5 2.17a2.48 2.48 0 0 1-3.19-1.28 2.28 2.28 0 0 1 .24-2.23 4.59 4.59 0 0 0 4.41 1.77c-.07.39-.4 1.3-1.46 1.74Zm4.48-4.53a4.04 4.04 0 0 1-2.55 2.26 2.78 2.78 0 0 0-1.77-2.48 2.93 2.93 0 0 0-3.06.54 3.86 3.86 0 0 1-.15-3.35 4.16 4.16 0 0 1 5.32-2.14 3.91 3.91 0 0 1 2.2 5.17Z" fill="#E1E6E8"/></svg>