<!-- by TradingView --><svg width="18" height="18" viewBox="0 0 18 18" xmlns="http://www.w3.org/2000/svg"><path fill="#330065" d="M0 0h18v18H0z"/><path d="M12.77 10.22a2.73 2.73 0 0 0-.76-1c-.08-.07-.16-.12-.26-.17-.04-.03-.1-.05-.14-.06l.14-.08c.09-.04.17-.1.26-.16a2.5 2.5 0 0 0 .75-1c.1-.22.16-.44.2-.68.02-.16.04-.33.04-.48v-.23a2.62 2.62 0 0 0-.37-1.13 2.98 2.98 0 0 0-.83-.86c-.19-.1-.37-.2-.58-.27-.21-.06-.43-.1-.65-.1-.22 0-.44.01-.64.06-.2.05-.4.13-.57.24a2.02 2.02 0 0 0-1.03 1.77l.01.26c-.18-.1-.36-.2-.54-.27A2.72 2.72 0 0 0 6.35 6a2.74 2.74 0 0 0-1.12.62c-.12.08-.23.2-.33.31 0 0-.16.16-.24.27-.09.1-.17.23-.27.36l-.2.27a3.78 3.78 0 0 1-.45.54 2.73 2.73 0 0 1-.62.52l-.07.05c-.02 0-.05.03-.05.05 0 .03.03.04.05.06l.07.04.11.08c.2.12.36.28.5.44l.28.3.17.24.2.27.28.36c.07.1.24.27.24.27.1.12.21.23.33.32a2.6 2.6 0 0 0 3.11.28l-.01.27a1.86 1.86 0 0 0 .21.91 2.02 2.02 0 0 0 .82.86c.18.1.36.19.57.24.2.05.42.07.64.06a2.42 2.42 0 0 0 1.23-.37 2.88 2.88 0 0 0 .83-.86 2.83 2.83 0 0 0 .36-1.13l.01-.23c0-.15-.02-.32-.04-.48-.03-.28-.1-.5-.2-.71Z" fill="#F5C300"/><path d="M12.23 10.44a1.96 1.96 0 0 0-1.8-1.2c-.22 0-.43.02-.63.08a2.13 2.13 0 0 0-.87.44l-.34.28c-.1.09-.22.19-.33.26l-.36.2a1.47 1.47 0 0 1-1-.05 1.5 1.5 0 0 1-.47-.35 1.75 1.75 0 0 1-.32-.5 1.9 1.9 0 0 1 0-1.21 1.62 1.62 0 0 1 .78-.85 1.47 1.47 0 0 1 1-.05c.13.05.26.1.37.2.11.07.22.15.33.25.1.1.22.2.34.28a2.85 2.85 0 0 0 .87.46c.2.05.4.07.62.07a1.94 1.94 0 0 0 1.5-.7c.12-.16.23-.33.3-.5a2.3 2.3 0 0 0-.4-2.36 2.21 2.21 0 0 0-.45-.34 2.03 2.03 0 0 0-.53-.2 1.72 1.72 0 0 0-1.15.14 1.69 1.69 0 0 0-.73.83A1.84 1.84 0 0 0 8.9 6.8l.02.08.01.03.02.05.02.01c.02 0 .02-.01.02-.02v-.09c.01-.1.04-.2.08-.3a1 1 0 0 1 .34-.44 1.04 1.04 0 0 1 1.08-.05c.15.08.3.23.38.38a1.25 1.25 0 0 1-.03 1.15.96.96 0 0 1-.41.4.95.95 0 0 1-.55.1 1.5 1.5 0 0 1-.37-.1c-.12-.08-.24-.15-.35-.25l-.33-.3-.36-.3a2.95 2.95 0 0 0-.88-.5 2.39 2.39 0 0 0-1.17-.02c-.15.03-.32.1-.47.2-.13.06-.27.16-.38.27a3.83 3.83 0 0 0-.63.73 9.82 9.82 0 0 1-.6.74c-.1.12-.21.23-.34.3-.02.03-.04.05-.07.06l-.06.03-.02.04.02.04.06.03.07.05a5.48 5.48 0 0 1 .93 1.05l.3.38c.1.12.22.24.34.35a2.12 2.12 0 0 0 .86.48c.2.05.39.07.6.06a1.87 1.87 0 0 0 1.05-.3c.12-.08.26-.17.4-.29l.35-.3.33-.3c.1-.1.23-.16.35-.23.1-.06.24-.1.37-.11a.96.96 0 0 1 .96.5c.1.16.15.36.15.57 0 .2-.04.4-.12.58a.9.9 0 0 1-.38.37c-.18.1-.38.13-.57.12a1.02 1.02 0 0 1-.51-.17 1 1 0 0 1-.34-.43c-.04-.1-.07-.21-.07-.31L9 11.05s0-.02-.02-.02l-.02.02-.02.04v.03a1.92 1.92 0 0 0-.1.7c0 .2.05.38.12.56.07.18.17.35.3.48.12.14.28.26.43.35.18.1.36.15.55.17.2.03.4.02.6-.03.19-.03.35-.1.53-.2.16-.09.32-.21.45-.34a2.06 2.06 0 0 0 .54-1.09c.03-.21.04-.43.02-.66a2.19 2.19 0 0 0-.15-.62Z" fill="#330065"/><path d="M9.44 8.99v-.02c-.24-.06-.44-.2-.64-.35-.2-.15-.39-.33-.6-.48-.2-.14-.43-.28-.68-.29a.98.98 0 0 0-.96.54c-.1.17-.14.38-.14.59 0 .21.04.41.14.6.08.16.22.3.38.4.18.1.37.15.58.14.25-.02.47-.15.68-.3.21-.15.4-.33.6-.48.2-.15.4-.29.63-.34l.01-.01Z" fill="#B6007D"/></svg>