<!-- by TradingView --><svg width="18" height="18" viewBox="0 0 18 18" xmlns="http://www.w3.org/2000/svg"><path fill="#F0F3FA" d="M0 0h18v18H0z"/><path d="M6.75 11.76C5.1 11.53 5.37 10.49 5.72 10c-.57.2-1.72.8-1.72 1.61 0 .82 1.26 1.23 1.9 1.32 3.84.47 7.67-1.66 9.1-2.78-2.92 1.17-6.19 1.9-8.25 1.61Z" fill="#192F64"/><path d="M11.25 8.24c1.65.23 1.38 1.27 1.03 1.76.57-.2 1.72-.8 1.72-1.61 0-.82-1.26-1.23-1.9-1.32C8.27 6.6 4.44 8.73 3 9.85c2.92-1.17 6.19-1.9 8.25-1.61Z" fill="#3F7C38"/><path d="M9.2 11.5H8V9.17c0-.54.53-.67.8-.67H10v2.33c0 .54-.53.67-.8.67Z" fill="#EE732A"/><circle cx="9" cy="6" r="1" fill="#EE732A"/></svg>