<!-- by TradingView --><svg xmlns="http://www.w3.org/2000/svg" width="18" height="18"><path fill="url(#a105pvq5v)" d="M0 0h18v18H0z"/><path d="M4 5h10L9 15 4 5zm9.01.64H5.03l2.83 5.8.53-.51.51-1.51-.21-.61a.97.97 0 00-.19.47l-.58.25c.16-.27.5-.84.58-.93-.3.18-1.06.5-1.64.3-.01-.08.24-.6 1.21-.75l.43.06-.96-.41-.44-.6.18-.15c.16.04.56.2.94.55l-.53-.98.32-.1.68.6c-.2-.23-.43-.81.27-1.33.14.18.34.67.07 1.2.08-.13.36-.45.85-.67 0 .16-.1.64-.52 1.25.15-.21.62-.58 1.42-.58l-.9.74c.18 0 .61.06.85.17l-.52.3-.81-.05c.43.12 1.39.47 1.74.94-.23.1-.88.14-1.66-.43l-.08 1.5-.17.96.86.43 2.92-5.9z" fill="#fff"/><defs><linearGradient id="a105pvq5v" x1="3.35" y1="3.12" x2="21.9" y2="24.43" gradientUnits="userSpaceOnUse"><stop stop-color="#1A1E21"/><stop offset="1" stop-color="#06060A"/></linearGradient></defs></svg>