<!-- by TradingView --><svg width="18" height="18" viewBox="0 0 18 18" xmlns="http://www.w3.org/2000/svg"><path fill="#F0F3FA" d="M0 0h18v18H0z"/><path d="M3 7.5h.33l.9-1.21H6v5.3h-.92V12h2.65v-.4H7V6.28h1.36c.15.05.5.36.62 1.21h.28v-2h-.22l-.36.5h-4.6l-.12-.5h-.24L3 7.5Zm10.52.22h.3l-.15-1.54A7.8 7.8 0 0 0 12.11 6C11.3 6 9 6.42 9 9.17 9 11.93 11.84 12 12.3 12c.37 0 .97-.22 1.22-.33l.48-1.35h-.33c-.18.45-.75 1.35-1.56 1.35-1.01 0-2.02-1.03-2.02-2.68 0-1.65.93-2.62 2.02-2.62 1.08 0 1.4.86 1.4 1.35Z"/></svg>