<!-- by TradingView --><svg width="18" height="18" viewBox="0 0 18 18" xmlns="http://www.w3.org/2000/svg"><path fill="#F0F3FA" d="M0 0h18v18H0z"/><path fill="#3C4C05" d="M7 13h4v1H7zM10.65 12.67h-.89l.45-4.34.44 4.34ZM8.59 12.67h.88l-.44-5-.44 5ZM7.41 12.67h.88l-.14-6.5a6.84 6.84 0 0 0-4.7 2.5 6.97 6.97 0 0 1 4.4-1.84l-.44 5.84Z"/><path d="M9.62 4C7.38 4 4.62 5.67 3 7.33 5.06 6 8 5 9.62 5c1.9 0 2.2.83 2.2 1.33 0 .5-.44 1-1.03 1-.58 0-.73-.33-.73-.66 0-.34.15-.5.3-.5.14 0 .29.1.29.33s-.2.28-.3.33c.15 0 .44-.1.44-.5s-.39-.5-.58-.5c-.6 0-.74.5-.74.84 0 .93.98 1.33 1.47 1.33C12.56 8 13 6.83 13 6.17 13 5.5 12.41 4 9.62 4Z" fill="#3C4C05"/></svg>