<!-- by TradingView --><svg width="18" height="18" viewBox="0 0 18 18" xmlns="http://www.w3.org/2000/svg"><path fill="#635E87" d="M0 0h18v18H0z"/><path d="M3 7H2v1h1v3h1V8h1V7H3ZM8.78 10.47c-.4.33-.93.53-1.52.53C6 11 5 10.1 5 9s1.01-2 2.26-2c.6 0 1.16.21 1.57.56l-.58.63a1.35 1.35 0 0 0-.95-.38C6.6 7.8 6 8.34 6 9c0 .66.59 1.2 1.3 1.2.36 0 .68-.14.92-.36l.56.63ZM12 9.68V7h-1v2.43c-.17.94-1.06.76-1.4.6l-.44.67c.3.24.86.3 1.1.3 1.26-.09 1.74-.88 1.74-1.32ZM12.58 7h.93v1.43H15V7h1v4h-1V9.29h-1.49V11h-.93V7Z" fill="#fff"/></svg>