<!-- by TradingView --><svg width="18" height="18" viewBox="0 0 18 18" xmlns="http://www.w3.org/2000/svg"><path fill="url(#aokeeemps)" d="M0 0h18v18H0z"/><path d="M16 7H2l.53 1H15.5L16 7Z" fill="#CE2A28"/><path d="M8.42 10V7.77h1.16V10L9 11.26 8.42 10Z" fill="#CE2A28"/><path d="M10.5 6.7h-3L9 5l1.5 1.7Z" fill="#5A6771"/><path d="M8.25 13 6 8.3h1.34L9 11.84 10.7 8.3H12L9.76 13h-1.5Z" fill="#013C4D"/><path d="M3.59 8.3h2.19l.3.7H3.95l-.35-.7ZM5.4 9.49h.9l.25.55h-.88l-.27-.55ZM14.48 8.3H12.3l-.32.7h2.15l.35-.7Zm-1.82 1.19h-.9l-.24.55h.87l.27-.55Z" fill="#5A6771"/><defs><linearGradient id="aokeeemps" x1="3.35" y1="3.12" x2="21.9" y2="24.43" gradientUnits="userSpaceOnUse"><stop stop-color="#1A1E21"/><stop offset="1" stop-color="#06060A"/></linearGradient></defs></svg>