<!-- by TradingView --><svg width="18" height="18" viewBox="0 0 18 18" xmlns="http://www.w3.org/2000/svg"><path fill="#F0F3FA" d="M0 0h18v18H0z"/><path fill-rule="evenodd" d="M2 7h3.48v.5H4V11h-.53V7.5H2V7Zm4 0h1.26c.88 0 1.69.8 1.69 1.77v.46c0 .98-.8 1.77-1.69 1.77H6V7Zm.45.5h.73c.74 0 1.33.67 1.33 1.5s-.6 1.5-1.33 1.5h-.73v-3ZM9.6 11H9l1.55-4h.9L13 11h-.58l-.43-1.17h-1.95L9.6 11Zm2.2-1.67-.79-2.12-.79 2.12h1.58ZM14.52 11c.73 0 1.28-.56 1.48-1.33h-.45c-.19.5-.58.83-1.04.83-.64 0-1.06-.67-1.06-1.5s.42-1.5 1.06-1.5c.4 0 .76.26.96.67h.48C15.72 7.47 15.2 7 14.52 7 13.6 7 13 7.9 13 9s.6 2 1.52 2Z"/></svg>