<!-- by TradingView --><svg width="18" height="18" viewBox="0 0 18 18" xmlns="http://www.w3.org/2000/svg"><path fill="#F0F3FA" d="M0 0h18v18H0z"/><path d="M12.04 4 13 5.22v3.81h-.96l-1.28-1.05-.76-.77v3.57h1.08l.9 1.24.02 1.43h-1.67c.43.6.04 1-.64 1-.69 0-1.19-.5-1.81-1h-.96L5.64 12v-1.22h2.03v-2.8L7.24 9h-.96L5 8V4h7.04Z" fill="#15428A"/><path d="M11.67 4.3V8H11l-.88-3H9v6h2v1H8.74c.27.1.4.3.4.61 0 .46-.32.61-.63.61-.33 0-.66-.15-.66-.6 0-.31.15-.52.43-.62H6v-1h2V5H6.92L6 8h-.68V4.3h6.35Z" fill="#EC7624"/></svg>