<!-- by TradingView --><svg width="18" height="18" xmlns="http://www.w3.org/2000/svg"><path fill="#0049B0" d="M0 0h18v18H0z"/><path d="M6.966 7.621a.284.284 0 00-.483.053L4.03 12.575a.293.293 0 00.263.425h3.414a.282.282 0 00.263-.162c.734-1.525.288-3.836-1.005-5.217z" fill="url(#paint0_linear)"/><path d="M8.765 3.157a6.465 6.465 0 00-.385 6.389l1.654 3.292a.293.293 0 00.263.162h3.413a.293.293 0 00.259-.425L9.263 3.158a.276.276 0 00-.498 0z" fill="#fff"/><defs><linearGradient id="paint0_linear" x1="8.31" y1="8.378" x2="5.723" y2="12.86" gradientUnits="userSpaceOnUse"><stop stop-color="#60A0FF"/><stop offset=".92" stop-color="#fff"/></linearGradient></defs></svg>