<!-- by TradingView --><svg width="18" height="18" viewBox="0 0 18 18" xmlns="http://www.w3.org/2000/svg"><path fill="#F0F3FA" d="M0 0h18v18H0z"/><path fill="#E53B2C" d="M9.22 9.86h1.91v1.31H9.22zM4.56 7.01A4.72 4.72 0 0 1 9.1 4.32l.12.01v2.8H4.48l.08-.12Z"/><path fill-rule="evenodd" d="M9 13.38A4.4 4.4 0 0 0 13.38 9 4.4 4.4 0 0 0 9 4.62 4.4 4.4 0 0 0 4.62 9 4.4 4.4 0 0 0 9 13.38ZM9 14A5 5 0 1 0 9 4a5 5 0 0 0 0 10Z"/><path d="M13.2 7.4H3V7h10.2v.4Z"/><path d="M9.4 4.31v9.4H9v-9.4h.4ZM11.4 4.63V15H11V4.63h.4Z"/><path d="M13.61 10H4.33v-.4h9.28v.4ZM13.01 11.4H4.95V11H13v.4Z"/></svg>