<!-- by TradingView --><svg width="18" height="18" viewBox="0 0 18 18" fill="none" xmlns="http://www.w3.org/2000/svg">
<rect width="18" height="18" fill="#F0F3FA"/>
<path fill-rule="evenodd" clip-rule="evenodd" d="M7.15724 6H9.02963L10.546 7.87298L12.0438 6H13.7864L11.4479 8.87869L14 12H12.1787L10.4811 9.84604L8.82838 12H5.97275L7.26565 10.6457C6.99494 10.7341 6.80783 10.8001 6.64687 10.8569C5.98543 11.0902 5.76539 11.1679 2 12C3.36317 11.5292 4.55177 11.1555 5.56287 10.8376C8.37702 9.95277 9.816 9.50033 9.816 8.59028C9.816 7.35326 8.04349 6.32226 7.15724 6ZM4.52476 6H6.33311C7.16878 6.3772 8.84013 7.43291 8.84013 8.39477C8.84013 8.79083 8.54559 9.06272 8.39832 9.14916C8.56271 8.68552 8.01815 7.35792 4.52476 6Z" fill="black"/>
</svg>
