<!-- by TradingView --><svg xmlns="http://www.w3.org/2000/svg" width="18" height="18"><path fill="#F0F3FA" d="M0 0h18v18H0z"/><path d="M11.84 5c-.39 0-2.02.47-2.9.72h3.84C12.53 5 12.1 5 11.84 5z" fill="#093852"/><path d="M11.35 6H14c-1.05.42-2.44 1.53-3 1.94.31-.58.19-1.13.09-1.33a.95.95 0 01-.1-.27c.02-.25.25-.35.36-.34z" fill="url(#anayyiuw1)"/><path d="M10.08 6H8.5v9l2.38-7.32c.05-.18.16-.59 0-1a1 1 0 00-.8-.68z" fill="url(#bnayyiuw1)"/><path d="M8.5 6H3c1.28.75 4.01 1.87 5.5 2.1V6z" fill="url(#cnayyiuw1)"/><defs><linearGradient id="anayyiuw1" x1="11" y1="6.19" x2="12.21" y2="7.04" gradientUnits="userSpaceOnUse"><stop stop-color="#1284AE"/><stop offset="1" stop-color="#1A93CD"/></linearGradient><linearGradient id="bnayyiuw1" x1="10.96" y1="7.05" x2="8.39" y2="8.05" gradientUnits="userSpaceOnUse"><stop stop-color="#1284AE"/><stop offset="1" stop-color="#189CD0"/></linearGradient><linearGradient id="cnayyiuw1" x1="8.48" y1="5.47" x2="7.09" y2="8.93" gradientUnits="userSpaceOnUse"><stop stop-color="#1078A4"/><stop offset=".58" stop-color="#189CD0"/><stop offset=".89" stop-color="#1586B6"/></linearGradient></defs></svg>