<!-- by TradingView --><svg width="18" height="18" viewBox="0 0 18 18" xmlns="http://www.w3.org/2000/svg"><path fill="#F0F3FA" d="M0 0h18v18H0z"/><path d="m9 3-5 9.01V5.9L9 3Z" fill="#98C21E"/><path d="M9 15 4 5.99v6.11L9 15Z" fill="#C1D100"/><path d="M4 5.99 5.67 9 4 12.01V6Z" fill="#4C9D35"/><path d="m9 15 5-9.01v6.11L9 15Z" fill="#98C21E"/><path d="m9 3 5 9.01V5.9L9 3Z" fill="#C1D100"/><path d="M14 12.01 12.33 9 14 5.99V12Z" fill="#4C9D35"/><path fill-rule="evenodd" d="M8.82 12c.06-.17.2-.62.2-1.1 0-.23-.15-.42-.33-.64C8.39 9.89 8 9.4 8 8.4 8 7.13 9.12 6.27 9.69 6c-.18.14-.53.59-.53 1.24 0 .35.15.63.32.95.24.43.52.94.52 1.81 0 1.2-.79 1.83-1.18 2Zm.25-.37c.07-.15.2-.59.2-1.2 0-.41-.16-.67-.3-.9a1.29 1.29 0 0 1-.25-.7c0-.49.12-.66.18-.68.01.13.1.46.32.8.28.4.43.64.43 1.23 0 .48-.39 1.16-.58 1.45Z" fill="#004E70"/></svg>