<!-- by TradingView --><svg width="18" height="18" xmlns="http://www.w3.org/2000/svg"><path fill="#F0F3FA" d="M0 0h18v18H0z"/><path d="M8.543 12.542v-1.375c-.001-.56-.151-1.186-.405-1.824-.288-.727-.703-1.344-1.162-1.794L6 6.526V9.74l2.543 2.802z" fill="#269E75"/><path d="M6 6.515L4.788 5.147a.468.468 0 00-.494-.122A.409.409 0 004 5.41l.011 2.03L6 9.729V6.515z" fill="#9FD142"/><path d="M4.011 7.44l.007 1.166c-.024.599.093 1.288.371 1.986.254.639.586 1.2.978 1.63l.633.737v-3.23l-1.989-2.29z" fill="#35786E"/><path d="M6.001 9.722v3.23l1.752 1.901c.12.134.318.18.495.122a.41.41 0 00.296-.385v-2.048L6 9.722z" fill="#204E77"/><path d="M9.456 12.542v-1.375c.001-.56.151-1.186.405-1.824.289-.727.703-1.344 1.162-1.794l.976-1.023V9.74l-2.543 2.802z" fill="#269E75"/><path d="M12 6.515l1.211-1.368a.468.468 0 01.495-.122c.177.06.296.211.294.385l-.012 2.03L12 9.729V6.515z" fill="#9FD142"/><path d="M13.988 7.44l-.006 1.166c.023.599-.094 1.288-.372 1.986-.254.639-.585 1.2-.978 1.63l-.633.737v-3.23l1.99-2.29z" fill="#35786E"/><path d="M11.998 9.73v3.223l-1.752 1.9a.469.469 0 01-.495.122.41.41 0 01-.295-.385v-2.048l2.543-2.812z" fill="#204E77"/></svg>