<!-- by TradingView --><svg width="18" height="18" fill="none" xmlns="http://www.w3.org/2000/svg"><path fill="#F0F3FA" d="M0 0h18v18H0z"/><path d="M3 6.858C4.637 6.306 7.12 5.995 9.19 6c2.146.005 4.212.488 5.548 1 .003-.006.156-.724.262-1.14-1.47-.573-3.168-.86-4.631-.86C7.734 5 4.855 5.879 3 6.858z" fill="#F63944"/><path d="M4.635 8.667H3L3.316 7.5H8l-.286 1.167H6.29L5.508 12H3.852l.783-3.333zM8.608 7.5h3.885l-.289 1.167H9.826l-.143.606h2.137l-.25.91H9.48L9.047 12h-1.55l1.111-4.5zM13.059 7.5h1.666L13.64 12h-1.666l1.084-4.5z" fill="#919095"/></svg>