<!-- by TradingView --><svg xmlns="http://www.w3.org/2000/svg" width="18" height="18" viewBox="0 0 18 18"><path fill="#F0F3FA" d="M0 0h18v18H0z"/><path fill-rule="evenodd" d="M14 4H4v1.67h3.23c.64-.3 2.33-.84 4.02.08.45.25 1.46.51 2.64.5-.3.24-1.2.84-2.96.5-1.68-.34-2.91-.23-3.93.48V14h7V4ZM5.67 14V7H4v7h1.67Zm6.12-5.68A3.06 3.06 0 0 0 9 8.22v1.4c.83-.76 2.2-.62 2.79-.47a2.7 2.7 0 0 0 2.15-.36 5.64 5.64 0 0 1-2.15-.47ZM9 10.12c.4-.24 1.54-.55 2.79.1.28.15 1.1.44 2.15.47a2.7 2.7 0 0 1-2.15.36c-.58-.16-1.96-.29-2.79.46v-1.4Z" fill="#DF2228"/></svg>