<!-- by TradingView --><svg width="18" height="18" viewBox="0 0 18 18" xmlns="http://www.w3.org/2000/svg"><path fill="#F0F3FA" d="M0 0h18v18H0z"/><circle cx="9" cy="9" r="6" fill="url(#atodcxxbg)"/><path fill-rule="evenodd" d="M11.1 3.38a5.4 5.4 0 0 1 1.87 1.1c.64.6 1.07 1.25 1.2 1.5.11.2.37.7.55 1.27l-.03-.04c-.03-.03-.08-.09-.1-.08-.03 0 0 .12.02.15a28.52 28.52 0 0 1 .29.81c.04.18.1.48.1.79 0 .5-.14 1.58-.37 2.22-.22.64-.8 1.59-1.37 2.1.06-.1.1-.33.15-.53.02-.13.05-.25.07-.3l.08-.13.23-.46.07-.15c.09-.14.18-.31.21-.8.05-.65.05-.81-.1-.85-.12-.04-.48.08-.72.15l-.06.02-.14.04c-.14.04-.21.06-.25.15-.06.12-.06.11-.14.06-.08-.05-.58-.51-.81-.74l.05-.17v-.55l-.2-.2.44-.67a7.92 7.92 0 0 0 .33-.78c0-.02 0-.05.08-.07a.22.22 0 0 0 .03-.05c.02-.02.03-.04.13-.08l.72-.34c.12.17.38.5.45.38.06-.1.07-.16.07-.2 0-.02 0-.03.02-.03.08 0 .4.01.35-.19A2.92 2.92 0 0 0 14 6.1c.02.1.06.3 0 .26l-.26-.26a1.05 1.05 0 0 1-.02-.32v-.11c0-.05-.01-.07.04-.03a.13.13 0 0 1 .07 0l-.11-.1c-.15-.17-.26-.17-.22-.11 0 .02.02.04.04.05.01.02.03.03.01.05l-.06.02c-.05 0-.08 0-.03.05.09.06.15.16.17.23l.02.04c.01.04.02.05 0 .12 0 .09.02.13.05.18l.02.04c.04.09.1.23.09.26 0 .01-.03 0-.08-.05l-.13-.1-.16-.17c-.08-.1-.15-.18-.2-.16-.1.04-.14.07-.07.09h.05c.02 0 .04 0 .1.06l.18.31.02.03a.35.35 0 0 0-.2-.1c-.12-.03-.18-.13-.23-.2-.03-.05-.05-.08-.08-.08-.07 0-.1.02-.17.11-.04.06-.04.11-.04.16 0 .03 0 .07-.02.1l-.05.05c-.02 0-.04.02-.03.06 0 .03.05.07.08.1.08.07.15.14.03.17l-.3.14c-.12.07-.23.13-.26.1-.02-.01-.02-.03-.02-.07V6.9l-.02-.05c-.03-.09-.06-.18-.13-.28a.56.56 0 0 0-.11-.1c-.04-.04-.06-.05 0-.05h.1c.08 0 .17.01.24-.03a.39.39 0 0 1 .12-.05c.05-.02.07-.02.01-.07a.93.93 0 0 1-.19-.19l-.03-.04a.54.54 0 0 1-.12-.2l-.01-.07c0-.06-.01-.11-.05-.14L12 5.58a.48.48 0 0 1-.16-.14c-.04-.07-.1-.22 0-.19.07.03.12.08.17.13l.05.06a.7.7 0 0 0 .21.15.2.2 0 0 1 .04.02c.02.01.04.02.05 0a.4.4 0 0 0 .01-.1c0-.05.01-.09.02-.09.03 0 .08 0 .05-.05l-.08-.1c-.06-.05-.11-.1-.09-.12.03 0 .07.04.12.09l.07.06c.05.03.12 0 .1-.02-.02-.03.03-.08.06-.05l.02.03c.03.03.05.06.05.02v-.03c0-.04 0-.09-.03-.14l-.02-.08c-.05-.14-.14-.4-.18-.4l-.05.02c-.03.02-.07.04-.11.03-.08-.02-.12-.05-.16-.13a.42.42 0 0 1-.03-.08c-.02-.04-.02-.06-.05-.05l-.02.01c-.03.01-.07.03 0 .1l.13.14.1.11h.02c.02.01.05.01.07.07.01.03.04.05.06.07.03.03.04.05-.03.03-.07 0-.1.03-.1.04l-.05.01-.04.02c-.04.03-.08.06-.16-.02L12 4.98c-.1-.1-.17-.17-.17-.27 0-.06-.13-.22-.24-.36-.08-.09-.14-.17-.13-.18.02-.04.06-.12.12-.12l.08.04c.05.03.1.07.17.05l.07-.03h.09c.08.03.2.06.12.1a.2.2 0 0 1-.08.02h-.01l.03.02.03.02.09.05c.05.04.08.05.1.04.02-.03-.06-.25-.28-.39a1.18 1.18 0 0 1-.23-.19c-.05-.05-.1-.1-.18-.14a1.35 1.35 0 0 0-.22-.08c-.16-.05-.32-.1-.26-.18Zm2.44 3.1c0 .02 0 .01-.01 0ZM9.14 4.3c.05.02.13.05.19.13l.12.15c0 .02-.02.08-.01.12 0 .04.03.07.04.09l.03.03v.08c-.04.05-.12.17-.12.27 0 .12.08.2.14.24.02 0 .04.03.05.05.04.04.08.09.13.06.03-.02.04-.04.04-.06 0-.02 0-.03.03-.05.04-.04.12-.08.16-.1.13-.1.4-.3.5-.4.13-.11.16-.17.16-.17-.01 0-.2-.04-.19-.09.02-.04.1-.04.15-.03.05 0 .06-.02.05-.03l-.14-.2c.05.04.13.1.13.05a.25.25 0 0 0-.08-.15L10.3 4l-.02-.07c-.02.03-.08.08-.14.05-.08-.04-.1-.06-.04-.06.07 0 .07-.04.05-.05h-.01c-.03-.03-.07-.07-.12-.05l-.07.04-.04.02h-.03c-.02 0-.03 0-.04.04v.06c0 .01 0 .02-.02.02h-.02s-.02-.02-.07-.02h-.1l-.05-.01a.24.24 0 0 1-.05-.04c-.03-.02-.05-.04-.06-.03-.03 0-.04.06-.03.09v.02c0 .03 0 .06-.02.03L9.38 4c0-.02-.01-.03-.02-.02-.02 0-.16.21-.23.31l.02.01Zm-.44.1c-.08.03-.13 0-.15-.02h-.01l.24-.14c.1-.06.13-.09.13-.12s-.08-.1-.1-.12c-.01-.01 0-.04.15-.05.13 0 .22-.04.26-.05h.02l.03.1s-.04.09-.1.13l-.23.24-.04-.08a.87.87 0 0 1-.2.11Zm-.39-.49-.27.16.12-.03.04.07.11-.2ZM4.43 9.16l.27.22c.06.06.09.14.1.17.04.05.17.16.3.22.17.07.27.04.32 0a.45.45 0 0 0 .07-.08l.38.24.15-.04.6.3c.2.08.27.26.3.33v.01c.02.07.03.13.2.16l.06.01c.14.02.2.03.26.1.07.05.2.27.27.37l-.15.16.15.11a.8.8 0 0 1 .38-.2c.2.19.75.56 1.5.58 0 .14-.04.44-.14.52-.1.07-.23.2-.28.26 0 .02-.01.05.03.1.05.08.07.15-.03.22l-.58.4c.02.06.06.2.06.28 0 .1-.08.18-.15.2l-.03-.04-.4.16.04.12-.26.01.12.06v.02a.3.3 0 0 0 0 .1c.01.03.16.13.23.18l-.06.1c-.53-.12-1.65-.69-1.9-1.9-.1-.06-.4-.21-.61-.39-.27-.22-.34-.28-.35-.4-.02-.1-.04-.11-.05-.1-.17-.07-.5-.28-.5-.62 0-.34.2-.68.29-.82a3.4 3.4 0 0 0-.75-1.14c-.45-.46-.56-.52-.56-.5a4.83 4.83 0 0 1-.05-.62c0-.17.17-.83.25-1.15-.09.16-.27.52-.29.75l-.05.02c.02-.16.09-.52.17-.7.08-.16.15-.24.17-.26l-.02-.2c.13-.14.4-.46.56-.6l1.14-1.01c-.05 0-.16-.01-.15-.03l.19-.22c-.01-.02-.03-.06-.04-.05l-.05.03a.72.72 0 0 0-.07.04c-.02 0-.03-.05-.03-.09a6.23 6.23 0 0 1-.36.12 21.12 21.12 0 0 1 .53-.36h.18c.01-.02.09-.15.11-.14l.1.07c.08-.07.25-.2.25-.18l-.05.11.08.04v.08l-.02.05.29-.02c-.05.05-.12.15-.07.19l.08.02h.08c.04 0 .1 0 .13-.02.06 0 .1-.01.1.02 0 .02-.02.04-.03.05 0 .02-.02.03-.01.04l.06.03.03.02c.01.01.03.04-.05.06l-.06.01c-.12.03-.36.09-.36.13-.01.05 0 .06.05.06a1.75 1.75 0 0 0 .5-.2c0 .05 0 .14.04.14.03 0 .02 0 .02.02h.04c.05 0 .1-.02.12-.04h.03c.03-.02.06-.03.12 0h.04l.07.05c.04.03.11.07.16.06.04-.01.25-.25.31-.43v.01c0 .07 0 .34.05.38.05.04.1.01.13 0a.55.55 0 0 1 .11-.05l.03.06c0 .02-.08.12-.13.17h-.1v-.01C8 5.08 8 5.07 7.92 5.07c-.06 0-.18.07-.3.14l-.2.11-.5.27c-.01.15.01.49.16.69.01 0 .1-.05.24-.23.16-.19.4-.4.5-.48h.2V5.4h.06l.18.3c.01 0 .07.04.13.02.08-.03.2-.05.21-.03.02.03.04.1 0 .14-.03.04-.03.05-.02.09l.01.03c0 .03.02.05.03.06.02.03.03.06 0 .1a.24.24 0 0 0-.02.14l.29-.08a4.15 4.15 0 0 1-.39.34L8.3 6.5h-.04c-.2 0-.52 0-.72.18l.42-.06-.06.11a.87.87 0 0 0 .15.17c-.48.06-1.5.31-1.79.83-.15 0-.48.03-.63.15-.01-.04-.04-.1-.05-.07l-.03.07a.65.65 0 0 0-.06.19c0 .03.03.07.06.1.02.02.03.03.03.05v.08c0 .01-.18.15-.28.21v-.63h-.18l-.04-.18-.18.1a.58.58 0 0 0-.3-.15.72.72 0 0 0-.25 0c0 .05-.04.18-.1.27a.96.96 0 0 1-.2.17v.36c-.01.04-.03.15.04.2l.18.08.07-.08c.05-.06.12-.14.15-.14h.11c-.07.08-.2.27-.2.41 0 .14.02.22.03.24Zm.6-4.45.05-.04-.05.04Zm1.45 2.16-.04.02a.46.46 0 0 1-.3.09c-.03-.07.1-.28.18-.38a.64.64 0 0 0-.24.08c-.1.05-.2.16-.24.21l-.03.03c-.01 0-.02-.04.06-.15.07-.11.25-.26.27-.27a.96.96 0 0 0-.18-.13.3.3 0 0 1 .26-.15c.19 0 .26.17.28.27.02.1.11.22.14.24.03.01-.03.05-.16.14ZM4.85 8.53c.03.04.1.12.2.16a1 1 0 0 0 .18.05c.02.05.07.14.14.17.09.04.15.03.16.02l.06-.04-.04-.05a.93.93 0 0 0-.17-.17l-.14.03a1.6 1.6 0 0 1-.07-.1.47.47 0 0 0-.07-.07h-.25Zm.9.54c0 .06.02.1.04.12h.09l.16.17.16-.15s-.26-.27-.32-.27-.14.06-.14.13ZM8.3 6.6c.01.02.19.2.2.18.03-.03.17-.16.12-.16a6.8 6.8 0 0 1-.32-.02Zm-.94-1.85c-.14 0-.19-.06-.2-.09a60 60 0 0 0 .15-.08v-.15l.03-.12h.06l.08.15c.02.02.07.01.1 0h.04l.16.08c-.08.07-.28.2-.42.2Zm.31-.47h.05l-.08.05a.2.2 0 0 0 .18.11c.12 0 .17-.15.17-.14 0 0-.12.09-.13.08a.53.53 0 0 1-.02-.15.2.2 0 0 0 .03-.05h-.13a.48.48 0 0 0-.2.09h.13Zm.34.08.18-.16.02.12a.64.64 0 0 1-.1.05h-.1Zm.12.24v.1a.3.3 0 0 0 .06-.2c0-.02-.02-.07-.04-.07s-.02.15-.02.17Zm.07.06c.01.03.04.09.09.09h.13c.05.02.11.09.12.1v.05l-.23.3-.22.04.25.01c.03.08.1.22.11.21l.02-.03c.05-.07.18-.24.2-.24.04 0 .15.09.16.1 0 .01.19-.2.15-.22a.22.22 0 0 0-.06-.03L8.89 5v-.02c0-.03 0-.12-.02-.14a.52.52 0 0 1-.08-.09l-.12-.06-.06-.02a.3.3 0 0 1-.07-.1s-.09 0-.11.03c-.03.03-.03-.04-.03-.06 0-.02-.13.03-.19.11ZM10.8 5c.07-.02.18-.05.23-.05.07 0 .19.02.12.06l-.03.04c-.03.03-.06.06-.16.06-.14 0-.25-.02-.26-.06 0-.03.01-.04.03-.04l.07-.01Zm.93.69c-.03-.07.03-.12.07-.14.06-.03.09.02.14.14l.02.04c.04.08.02.08 0 .08-.01 0-.03 0-.05.02a.33.33 0 0 0-.03.06c-.01.04-.02.07-.05.06-.03 0-.05-.08-.07-.16l-.03-.1Zm-3.6 9.25c.07.01.28.06.99.06.67 0 .89-.07.9-.1a5.1 5.1 0 0 0-1.91.03h.02Z" fill="#079547"/><defs><linearGradient id="atodcxxbg" x1="9" y1="3" x2="9" y2="15" gradientUnits="userSpaceOnUse"><stop stop-color="#FDFBD8"/><stop offset="1" stop-color="#A5C693"/></linearGradient></defs></svg>