<!-- by TradingView --><svg width="18" height="18" viewBox="0 0 18 18" xmlns="http://www.w3.org/2000/svg"><path fill="#F0F3FA" d="M0 0h18v18H0z"/><path d="M9 11V7h3v.6H9.75v1.1h2.08v.6H9.75v1.1H12v.6H9ZM8.13 8.3c-.15-.43-.57-.67-1.06-.67-.84 0-1.27.67-1.27 1.36 0 .71.44 1.38 1.3 1.38.6 0 1.11-.44 1.11-1.03l.19.03h-1v-.55H9v.47C9 10.28 8.14 11 7.09 11 5.82 11 5 10.13 5 9c0-1.1.8-2 2.06-2 .87 0 1.76.47 1.9 1.3h-.83ZM15.13 8.3c-.15-.43-.57-.67-1.06-.67-.84 0-1.27.67-1.27 1.36 0 .71.44 1.38 1.3 1.38.6 0 1.11-.44 1.11-1.03l.19.03h-1v-.55H16v.47c0 .99-.86 1.71-1.91 1.71-1.27 0-2.09-.87-2.09-2 0-1.1.8-2 2.06-2 .87 0 1.76.47 1.9 1.3h-.83ZM2 7.6V7h3v.6H3.87V11h-.75V7.6H2Z"/></svg>