<!-- by TradingView --><svg width="18" height="18" viewBox="0 0 18 18" xmlns="http://www.w3.org/2000/svg"><path fill="#F0F3FA" d="M0 0h18v18H0z"/><path d="M6.73 4.03c-.1.08-.1.1-.1 1.95 0 2.03-.02 1.9.2 1.93.15.02.28 0 .35-.07V4.11l-.05-.06c-.09-.06-.32-.07-.4-.02ZM8 5.96v1.57h.15c.46-.01.84-.04 1.03-.48.06-.12.06-.17.06-1.07 0-.6 0-.97-.02-1.04a.82.82 0 0 0-.3-.4c-.2-.13-.3-.15-.8-.15H8v1.57ZM5.18 4.82a.42.42 0 0 0-.1.06c-.09.08-.09.28 0 .38l.07.07h.62c.38.01.63 0 .64-.01a.9.9 0 0 0 .05-.27V4.8h-.61c-.35 0-.65.01-.67.02Zm4.44 1.16v.26l.25.05a3.63 3.63 0 0 1 .98.39c.05.02.08.04.08.06a2.1 2.1 0 0 1 .56.43 2.73 2.73 0 0 1 .56.7 3.28 3.28 0 0 1 .13 2.98 3.9 3.9 0 0 1-.95 1.15c-.12.13-.8.49-1.12.58a4.04 4.04 0 0 1-2.42-.1 3.5 3.5 0 0 1-1.25-.83c-.18-.18-.18-.25 0-.08.12.12.46.36.68.48a3.69 3.69 0 0 0 1.29.4 3.32 3.32 0 0 0 1.12-.1c.26-.06.61-.19.61-.22 0-.21-.28-.8-.5-1.05-.43-.5-1.1-.59-1.7-.64-.96-.07-1.33-.17-1.7-.43-.34-.23-.57-.5-.8-.92-.16-.28-.17-.3-.19-.2-.16.74-.19 1.7-.07 2.36a3.34 3.34 0 0 0 1.46 2.27c.12.08.33.18.46.24l.33.12c.17.08.5.12.86.12a2.17 2.17 0 0 0 1.77-.77c.07-.1.1-.12.32-.19l.26-.1a.13.13 0 0 1 .07-.02l.06-.02c0-.02.1-.07.23-.14.48-.24 1-.7 1.34-1.17.3-.43.44-.72.57-1.22.1-.37.12-1.13.05-1.53-.05-.3-.18-.74-.28-.95a4.74 4.74 0 0 0-.8-1.08 3.99 3.99 0 0 0-2.16-1.07l-.1-.02v.26Zm-4.54.75c-.13.13-.1.34.06.43.1.05.13.05.69.05h.6v-.54h-.65c-.64-.01-.64 0-.7.06Zm1.14 4.64.04.08a.3.3 0 0 1-.07-.08l-.05-.08.08.08Z" fill="#6EB43F"/></svg>