<!-- by TradingView --><svg width="18" height="18" viewBox="0 0 18 18" xmlns="http://www.w3.org/2000/svg"><path fill="url(#a4tspbwhi)" d="M0 0h18v18H0z"/><path d="M4.42 11h-.9V7.8H2V7h4v.8h-.98c-.31 0-.6.25-.6.53V11Zm5.58-.8H7.56v-.8h2.11v-.8H7.56v-.8H10V7H6.65v3.52c0 .35.15.48.45.48H10v-.8Zm3.08-2.51.1.2c.33.7.68 1.42 1 2.13.04.1.1.15.22.12.1-.02.1-.07.1-.17V7h1v3.06c0 .52-.52.94-1.1.94a1.1 1.1 0 0 1-1-.64l-.32-.66c-.28-.58-.55-1.15-.77-1.73-.07-.22-.31-.15-.31.04V11h-1V7.96c0-.51.47-.96 1.05-.96.46 0 .88.3 1.03.69ZM6 10.5a.5.5 0 1 1-1 0 .5.5 0 0 1 1 0Z" fill="#F0F3FA"/><defs><linearGradient id="a4tspbwhi" x1="5" y1="0" x2="11" y2="18.5" gradientUnits="userSpaceOnUse"><stop offset=".42" stop-color="#0064EF"/><stop offset=".89" stop-color="#95E09F"/></linearGradient></defs></svg>