<!-- by TradingView --><svg width="18" height="18" viewBox="0 0 18 18" xmlns="http://www.w3.org/2000/svg"><path fill="#F0F3FA" d="M0 0h18v18H0z"/><path d="M14 8.59a5.03 5.03 0 0 0-3.12-4.23A5.06 5.06 0 0 0 4 8.7h1.34c.13 0 .24-.08.29-.2.1-.28.3-.68.47-.68.21 0 .45.78.54 1.14v.02c-.14.29-.2 1.42-.56 1.42-.16 0-.36-.63-.45-.9a.3.3 0 0 0-.3-.2H4a5.02 5.02 0 0 0 10 .11h-1.86c-.25 0-.5.18-.6.41-.21.51-.44 1.22-.86 1.55a.2.2 0 0 1-.13.04.2.2 0 0 1-.11-.04c-.5-.4-.75-1.52-.9-2.1l-.1-.31c.22-.77.37-1.75 1-2.33a.2.2 0 0 1 .12-.04c.04 0 .08.01.12.04.45.36.62.88.82 1.4.12.28.39.55.7.55H14Zm-5.06-4A4.42 4.42 0 0 1 13.34 8h-1.06c-.08 0-.15-.04-.18-.1-.28-.67-.5-1.4-1.14-1.8a.73.73 0 0 0-.38-.1c-.15 0-.3.04-.43.13-.38.28-.66.63-.89 1.38l-.12.42-.13-.41c-.17-.48-.48-1.11-.96-1.1-.68 0-.96.95-1.11 1.46l.13.35c.04.13.1.27.13.4l.31-.92c.08-.2.31-.71.54-.71.63-.02 1.29 4.28 2.12 4.87.12.09.26.13.41.13.14 0 .28-.03.39-.1.62-.37.88-1.16 1.15-1.8.02-.06.1-.1.17-.1h1.07a4.36 4.36 0 0 1-4.4 3.42A4.5 4.5 0 0 1 4.4 9.59h.86a.1.1 0 0 1 .1.06c.14.39.38 1.1.71 1.1.23 0 .43-.23.64-.69l.12-.3c.15.56.44 1.6 1.22 1.6.56-.01.77-.6.94-.96l-.3-.99c-.05.22-.31 1.36-.73 1.36-.58 0-.94-2.05-1.13-2.6-.14-.42-.34-.94-.74-.94-.34 0-.6.73-.74 1.11a.1.1 0 0 1-.1.07h-.85a4.58 4.58 0 0 1 4.53-3.83Z" fill="#204FEB"/></svg>