<!-- by TradingView --><svg width="18" height="18" viewBox="0 0 18 18" xmlns="http://www.w3.org/2000/svg"><path fill="#F0F3FA" d="M0 0h18v18H0z"/><path d="M11 5a1 1 0 1 1 2 0 1 1 0 0 1-2 0Z" fill="#9AAAD4"/><path d="M5 5a1 1 0 1 1 2 0 1 1 0 0 1-2 0Z" fill="#004B97"/><path d="M7 5a1 1 0 1 1 2 0 1 1 0 0 1-2 0Z" fill="#2E5FA5"/><path d="M9 5a1 1 0 1 1 2 0 1 1 0 0 1-2 0Z" fill="#748CC2"/><path d="M7 7a1 1 0 1 1 2 0 1 1 0 0 1-2 0Z" fill="#5273B2"/><path d="M9 7a1 1 0 1 1 2 0 1 1 0 0 1-2 0Z" fill="#9AAAD4"/><path d="M7 9a1 1 0 1 1 2 0 1 1 0 0 1-2 0Z" fill="#748CC2"/><path d="M7 11a1 1 0 1 1 2 0 1 1 0 0 1-2 0ZM9 11a1 1 0 1 1 2 0 1 1 0 0 1-2 0Z" fill="#9AAAD4"/><path d="M7 13a1 1 0 1 1 2 0 1 1 0 0 1-2 0Z" fill="#9AAAD4"/><path d="M9 13a1 1 0 1 1 2 0 1 1 0 0 1-2 0Z" fill="#6480BB"/></svg>