<!-- by TradingView --><svg width="18" height="18" viewBox="0 0 18 18" xmlns="http://www.w3.org/2000/svg"><path fill="#002A5C" d="M0 0h18v18H0z"/><path d="M9.43 10.38a14.26 14.26 0 0 1-3.17 1.6c1.67-.48 3.28-1.2 4.72-2.28A12.39 12.39 0 0 0 14.22 6h-.73l-.03.03a13.1 13.1 0 0 1-4.03 4.35ZM3 11.39c0 .1.02.18.06.26a14.78 14.78 0 0 0 2.13-.9A13.05 13.05 0 0 0 10.17 6H3.62c-.25 0-.43.03-.56.27-.04.09-.07.25-.07.47v4.65Zm7.77-5.37A13.65 13.65 0 0 1 3.51 12v-.01a13.37 13.37 0 0 0 8-5.99h-.73v.02ZM5 11.95c1.37-.51 2.66-1.25 3.88-2.21A12.65 12.65 0 0 0 12.16 6h.71v.02A13.43 13.43 0 0 1 5 11.95Zm2.59.03a14.11 14.11 0 0 0 3.45-1.79 13.05 13.05 0 0 0 3.74-4.1h.04c.2.18.19.45.17.78v.09a14.04 14.04 0 0 1-1.22 1.48 13.94 13.94 0 0 1-6.18 3.55Zm7.4-.58a477.7 477.7 0 0 0-.02-3.56 14.25 14.25 0 0 1-5.7 4.06l-.07.02h-.03c-.1.05-.1.07 0 .07l5.17.01c.35 0 .65-.14.66-.6Z" fill="#fff"/></svg>