<!-- by TradingView --><svg width="18" height="18" xmlns="http://www.w3.org/2000/svg"><path fill="#EE333E" d="M0 0h18v18H0z"/><path d="M12.769 5.72s-.033 4.829-.033 5.086c0 .64.377.777.672.777V12h-2.82v-.417c.29 0 .673-.136.673-.777 0-1.125.032-4.814.032-5.088h-.689c-.818 0-1.12.199-1.12.782H9V5h6v1.5h-.462c0-.592-.291-.781-1.11-.781h-.66zM4.956 5.724v5.081c0 .64.37.778.643.778V12H3v-.417c.267 0 .62-.136.62-.777V7.402v-1.21c0-.64-.347-.776-.62-.776V5h3.233C8.207 5 8.67 6.067 8.67 6.902c0 .947-.664 1.58-1.59 1.754.982.064 1.556 2.626 2.271 3.566.096.126.346.356.617.356H10V13h-.767c-.564 0-1.135-.254-1.388-.605-.842-1.168-1.166-3.574-2.19-3.65a2.325 2.325 0 00-.092-.001v-.437l.088-.001c1.274-.018 1.504-.713 1.504-1.295 0-.673-.236-1.287-1.398-1.287h-.801z" fill="#fff"/></svg>