<!-- by TradingView --><svg xmlns="http://www.w3.org/2000/svg" width="18" height="18"><path fill="#F0F3FA" d="M0 0h18v18H0z"/><path d="M13.17 6.24a4.44 4.44 0 10.03 5.48 5 5 0 11-.03-5.48z"/><path d="M8.74 8.54a1.88 1.88 0 013.67.15h.7c.25 0 .42-.09.35-.43a3.87 3.87 0 00-3.78-3.01A3.87 3.87 0 005.9 8.33c-.07.36.25.36.43.36H8.7l.03-.15zm-.03.77H6.3c-.18 0-.48 0-.4.36a3.87 3.87 0 003.8 3.08 3.87 3.87 0 003.77-3c.07-.35-.1-.44-.36-.44h-.69a1.88 1.88 0 01-3.7 0z" fill="url(#abbq1fxgp)"/><circle cx="10.87" cy="9" r="1.25" fill="#D7161E"/><defs><linearGradient id="abbq1fxgp" x1="5.88" y1="9" x2="13.48" y2="9" gradientUnits="userSpaceOnUse"><stop stop-color="#3362AF"/><stop offset="1" stop-color="#00ABEB"/></linearGradient></defs></svg>