<!-- by TradingView --><svg xmlns="http://www.w3.org/2000/svg" width="18" height="18" viewBox="0 0 18 18"><path fill="#F0F3FA" d="M0 0h18v18H0z"/><path d="m15 6.1-4.24.92-.28.4L15 6.19V6.1Z" fill="#4C276A"/><path fill-rule="evenodd" d="M3.28 11.21c.75-.27 2.61-1.03 4.1-1.82.68-.97 2.3-3.02 3.35-3.38.26-.06.62.08 0 1.13-.62 1.05-2.2 2.11-2.92 2.51-.33.54-.72 1.93.4 1.96 1 .03 2.9-1.28 3.95-2.01.1-.08.2-.15.3-.2v.08l-.18.15C11.37 10.41 9.52 12 8.2 12c-1.4 0-1.36-1.3-1.16-1.86A46.68 46.68 0 0 1 3 12l.28-.79Zm4.84-2.18c.51-.7 1.74-2.2 2.53-2.62.07-.02.16.02-.07.34a8.38 8.38 0 0 1-2.46 2.28Z" fill="#60BA01"/><path d="m10.34 7.1-6.1 1.35-.2.63 5.9-1.52.2-.23.2-.24Z" fill="#4C276A"/></svg>