<!-- by TradingView --><svg width="18" height="18" viewBox="0 0 18 18" xmlns="http://www.w3.org/2000/svg"><path fill="#272B2E" d="M0 0h18v18H0z"/><path d="M7.93 3.06c-.23.13-.38.62-.63 1.95-.3 1.54-.27 1.48-.5 1.57-.43.17-1.14.5-1.35.63-.42.27-.5.43-.43.84.1.5.28.8.49.8.06 0 .31-.07.56-.16.26-.08.36-.15.41-.15.17 0 .17.08.12 1.22-.03.73-.05 1.24-.05 1.61a5.43 5.43 0 0 0 .97 2.92c.14.2.52.56.65.63l.23.08c.31.05.98-.47 1.24-.97.15-.3.35-.94.4-1.3.05-.35.05-1.15 0-1.5-.09-.6-.24-.8-.63-.83-.2 0-.22 0-.3.08-.08.1-.08.1-.07.58 0 .57-.03 1.05-.13 1.49-.16.69-.35 1.12-.53 1.22-.09.05-.1.05-.17-.04-.05-.05-.1-.2-.14-.34-.06-.22-.1-.35-.07-1.18.03-1.34.28-4.14.36-4.29.02-.04.08-.1.14-.12.14-.08 2.5-.84 2.84-.92.44-.1 1.27-.24 1.5-.24.25 0 .4.05.55.19.15.12.25.11.38-.02.36-.38.3-.81-.18-1.29-.38-.38-.67-.43-1.75-.27-.77.11-.9.14-1.95.4-1.06.27-1.29.32-1.31.25-.02-.03 0-.3.05-.6.12-.94.13-1.16.04-1.43-.08-.28-.28-.6-.46-.77-.15-.13-.15-.13-.28-.04Z" fill="#fff"/></svg>