<!-- by TradingView --><svg xmlns="http://www.w3.org/2000/svg" width="18" height="18" viewBox="0 0 18 18"><path fill="#0F3282" d="M0 0h18v18H0z"/><path fill-rule="evenodd" d="M14 4.55c0-.34-.22-.55-.46-.55H4.75c-.62 0-.75.4-.75.58v8.88c0 .46.27.54.42.54h8.95c.63 0 .63-.4.63-.55v-8.9zM11.2 7.17l-.02.1c-.19.66-.53.95-.83 1.13-.28.16-.52.26-.87.2-.16-.02-.5-.4-.48-.62.03-.32.17-.35.4-.23.54.31 1.1-.12 1.27-.49.12-.3.15-.52.2-.9v-.03h-.02c-.25 0-.5.01-.86.08-.11.02-.23.07-.33.11-.1.04-.19.07-.2.05-.05-.05-.03-.13.01-.25l.01-.03.03-.08a.57.57 0 0 1 .07-.2c.02-.02.17-.05.26-.06.23-.03.47-.04.7-.05h.18l.2-.01.01-.17.02-.22h-.94l-.22.01-.07.01c-.1.01-.2.03-.22 0-.03-.05 0-.23.03-.31l.02-.03c.03-.08.07-.18.15-.18H12.74c.07 0 .18.09.23.15.04.04.02.16-.03.2a.5.5 0 0 1-.21.1 31.2 31.2 0 0 1-1.24.05h-.05l-.03.36H12.1l.5.01h.1c.12.01.27.02.29.04.02.03.02.2.02.24 0 .05-.03.18-.09.18h-1.36l.06.1c.23.3.5.6.77.84.23.2.42.35.67.5.12.07.34.03.5 0 .07-.02.13 0 .13.04.01.05-.31.41-.51.6-.26.26-.46.25-.69-.02l-.22-.26c-.14-.15-.28-.3-.4-.46a10.35 10.35 0 0 1-.57-.8l-.08.3zm1.3 3.35c.09-.06.17-.1.23-.2a31.66 31.66 0 0 0 .03.89c.02.35.04.7.03 1.08v.05c0 .13 0 .25-.1.37-.13.14-.5.1-.59-.02-.12-.16-.12-.16-.17-.16h-.01c-.03 0-.1.02-.12.04l-.06.12-.01.04c-.04.08-.05.1 0 .21.12.23.29.4.47.45.18.04.39.03.57 0a.6.6 0 0 0 .44-.28.9.9 0 0 0 .08-.43v-.35l-.02-.2-.02-.63a8.59 8.59 0 0 1 .05-1.97c.01-.09-.02-.14-.05-.2l-.02-.02-.01-.03c-.02-.04-.05-.09-.09-.1a.22.22 0 0 0-.1-.03.43.43 0 0 0-.17.06l-.03.02c-.14.06-.2.21-.16.36.03.13.04.17.04.34v.2s-.3.08-.42.08c-.02 0-.04-.02-.05-.05a.62.62 0 0 0-.03-.04s0-.02-.02-.03c-.02-.05-.06-.1-.08-.1-.06-.02-.3.07-.32.14a2 2 0 0 0-.01.62c0 .05.05.1.1.14l.01.02c.02.02.04.04.06.04l.11-.05c.06-.04.07-.06.1-.1l.1-.1c.08-.08.16-.13.24-.18zm-2.3-.3V10v-.07h-.07a3.3 3.3 0 0 1-.71.04c-.05 0-.22-.03-.26-.07-.01-.02 0-.07.04-.16.05-.15.19-.35.3-.32.41.13.83.07 1.24-.03.07-.01.13 0 .21.02.03.01.07.02.08.05.01.03 0 .1-.02.13a.3.3 0 0 1-.13.16l-.21.11v.34h.15c.11.01.25.01.35.03.08.01.18.04.24.1.04.03.06.14.05.2-.01.05-.09.12-.14.12h-.45l-.21-.02-.02.4c-.03 1 0 1.35 0 1.57l.02.24c0 .12-.04.2-.07.3l-.06.15c-.02.06-.11.14-.16.13-.05-.01-.14-.17-.16-.24a.85.85 0 0 1-.02-.29v-.28l.02-.53v-1.42l-.3.03h-.05l-.2.04h-.02c-.08.03-.1.04-.18.1l-.2.09H9.2c-.07-.03-.15-.1-.15-.15 0-.05.03-.1.07-.17l.07-.1.03-.08c.02-.05.03-.08.08-.11.04-.03.12-.03.21-.03h.06l.17-.02a9.86 9.86 0 0 1 .48-.03zm-1.06 1.72v.02l.02.2c.02.17.07.25.11.24a.6.6 0 0 0 .24-.07c.25-.17.46-.5.6-.92.05-.18-.05-.25-.16-.3-.1-.07-.18-.02-.23.12a1 1 0 0 1-.44.55c-.1.04-.12.05-.14.09a.2.2 0 0 0 0 .07zm2.42.14l-.1.02h-.02c-.05 0-.11 0-.15-.02a.67.67 0 0 1-.36-.54v-.09l-.05-.3c0-.02-.02-.03-.03-.05-.01-.02-.03-.04 0-.08 0-.03.1-.03.14-.02.05 0 .1.02.15.12.06.12.14.21.21.3.12.12.22.24.23.44a1 1 0 0 1-.02.22zM6.76 4.87c.04.03.08.06.08.12h-.5c-.33 0-.67-.02-.94.08-.1.04-.2.1-.22.2-.03.2.23.24.37.22.65-.07 1.28-.12 1.94-.12h.02l.12.01c-.04.02-.05.25-.05.25-.2 0-.4.02-.6.04h-.1s0-.06-.03-.1c-.02-.02-.2-.02-.23.01-.04.05-.03.14-.03.14l-.18.03c-.1.01-.22.12-.07.2.08.03.13.05.27.06v.2c-.05.02-.1.04-.17.05l-.37.1c-.06.04-.2.32-.08.35.11.03.19 0 .26-.03a2.01 2.01 0 0 1 .89-.18c-.02 0-.04.24-.04.24l-.19.03-.16.02c-.24.01-.63.04-.65.1a.55.55 0 0 0 0 .19l.04.16c.08.26.14.5.05.77-.02.05-.02.07 0 .14l.02.06c.01.06.06.08.12.05l.08-.04a.81.81 0 0 1 .38-.11c.13 0 .27 0 .42.02.28.03.57.05.8-.02.18-.06.19-.18.2-.33v-.04a5.83 5.83 0 0 1 .14-.65l.03-.11c.02-.1-.15-.37-.26-.29-.05.03-.09.12-.09.12a2.7 2.7 0 0 0-.55-.1s.03-.18.02-.22h.28a2 2 0 0 1 .44.12c.27.08.55.18.72.1.11-.05.27-.38.24-.46-.03-.07-.69-.08-1.07-.09h-.26l.02-.1.02-.1.2-.01.12-.01c.2-.04.13-.24-.04-.28a1.27 1.27 0 0 0-.25-.02V5.6a.6.6 0 0 0 0-.19l.24.03c.14.02.29.04.43.03.15 0 .23-.34.06-.38-.17-.03-.31-.04-.46-.05l-.22-.02-.5-.02c.06-.04.02-.13 0-.17-.11-.23-.26-.28-.51-.24-.11.02-.28.11-.28.18 0 .05.04.08.08.11zm-1.4 1.04c.02-.02.17-.01.23 0 .13 0 .25.12.29.25l-.01.14-.01.09v.42c-.01.3-.01.57-.04.89a.94.94 0 0 1-.45.73c-.2.14-.42.21-.64.29l-.05.01c-.2.07-.36-.05-.35-.25 0-.13.03-.25.1-.33a.31.31 0 0 1 .2-.12h.2c.08 0 .16 0 .25-.02.23-.04.34-.27.38-.46l.03-.5V6.9v-.65a.5.5 0 0 0-.09-.21c-.03-.05-.05-.1-.04-.13zm1.83 5.41l.03-.02.06.08-.1.08-.13.12-.27.2c-.16.1-.31.21-.45.35a.64.64 0 0 0-.16.27c-.03.08-.01.15 0 .16.13.12.25-.03.36-.18l.05-.07c.06-.07.23-.2.43-.36l.42-.33c.02.01.06.06.07.1-.07.09-.12.13-.28.28l-.09.08-.26.22-.28.25c-.1.1-.14.14-.17.25-.03.1.02.23.1.25.03.01.13 0 .17-.05.02-.01.03-.04.04-.07.02-.04.04-.09.08-.13.18-.2.26-.29.4-.41l.03-.03.31-.3a.9.9 0 0 1-.09.38c-.08.17-.2.3-.41.5a.48.48 0 0 0-.14.21v.16a1 1 0 0 0 .27 0c.17-.16.33-.32.47-.59.1-.17.2-.4.2-.68l.06.13a5.8 5.8 0 0 0 .4.82c.15.26.42.41.72.18.1-.08.22-.17.2-.22-.01-.02-.04-.03-.09-.05l-.11-.07a3.75 3.75 0 0 1-.92-1.03c.08-.04.17-.09.26-.12l.1-.05c.08-.04.14-.08.16-.13.03-.06.03-.14-.02-.24-.04-.08-.13-.13-.17-.13a.46.46 0 0 0-.17.06l-.4.28-.09.07-.03-.06a1.1 1.1 0 0 0-.2-.27l-.14-.16.02-.03.03-.08a996.76 996.76 0 0 0 1 .12l.07.02c.05.01.14 0 .18-.02.03 0 .05-.06.07-.1l.01-.02.02-.03c.02-.02.03-.04.02-.06 0-.03-.11-.1-.32-.15l-.3-.06s.07-.34.05-.45c-.02-.09-.17-.25-.22-.28.1 0 .35 0 .47-.02.06 0 .16-.03.18-.1.01-.05-.05-.18-.1-.21a.37.37 0 0 0-.24-.09c-.4 0-.82.02-1.22.04-.1 0-.22.02-.27.1a.95.95 0 0 0-.19.33v.14c0 .02.16 0 .26-.02h.04l.17-.03.02.14.03.12.05.2c-.22 0-.37 0-.54.05-.12.05-.15.1-.16.14-.04.12.03.2.05.24.03.03.06.03.1.03h.03l.15-.01.16-.01c0 .03-.09.14-.16.2-.16.11-.26.14-.4.18l-.13.04-.05.02c-.04.01-.08.02-.1.05a.67.67 0 0 0-.1.26v.15c.01.04.15 0 .18-.02l.03-.01c.24-.1.46-.2.69-.35l.2-.15zm-2.25-.68c-.2-.14-.24-.38-.04-.7l.2-.25.1-.12c.1-.13.24-.14.34 0 .1.14 0 .24-.08.3l-.11.1c-.05.03-.1.06-.13.1-.1.08-.1.16-.09.2.03.08.17.08.17.08s.1-.03.2-.09c.13-.09.28-.24.27-.3 0-.02-.03-.07-.06-.08-.03 0-.08-.06 0-.22.04-.07.15-.07.2-.05.07.02.08.07.1.12l.01.08.03.05.03.05c.03.07.03.15.02.2-.02.07-.06.14-.22.26.2.17.29.35.29.51 0 .24-.22.46-.46.57a1.7 1.7 0 0 1-.78.18c-.2.01-.3-.04-.35-.09-.03-.04-.03-.17-.03-.25a.5.5 0 0 1 .07-.22c.1-.16.15-.26.32-.43zm.07 2.3c0 .1.04.23.18.3h.01c.06.03.17.09.3-.02a.82.82 0 0 1 .09-.06c.05-.03.1-.06.1-.1.01-.42.01-.81-.01-1.23 0-.07-.19-.18-.34-.17-.13 0-.33.1-.33.17a9.1 9.1 0 0 0 0 1.12z" fill="#fff"/></svg>