<!-- by TradingView --><svg width="18" height="18" xmlns="http://www.w3.org/2000/svg"><path fill="#D51100" d="M0 0h18v18H0z"/><path d="M7.47 6.902C5.553 6.902 4 8.49 4 10.45S5.554 14 7.47 14c1.917 0 3.47-1.59 3.47-3.55 0-1.96-1.553-3.548-3.47-3.548zm-.18 1.136a2.253 2.253 0 012.243 2.264 2.253 2.253 0 01-2.243 2.263 2.253 2.253 0 01-2.244-2.263A2.253 2.253 0 017.29 8.038z" fill="#fff"/><path d="M9.794 3c-.11-.004-.2.046-.298.117a.942.942 0 00-.284.367c-.314.71-.61 1.396-.91 2.078-.074.168-.159.356-.287.482-.08.078-.16.15-.265.118-.108-.033-.145-.087-.182-.2-.049-.144-.046-.426-.06-.578-.03-.296.007-.601-.065-.89-.034-.135-.149-.436-.326-.447-.27-.016-.465.422-.58.667-.271.571-.36 1.212-.354 2.14 0 .098.006.296.006.296s.386-.137.582-.178a3.356 3.356 0 011.399 0 3.391 3.391 0 011.755.965 3.547 3.547 0 01.998 2.147 3.508 3.508 0 01-.054 1.08 3.582 3.582 0 01-.314.91c.007 0 .035.007.041.008a4.32 4.32 0 001.174.1c.622-.036 1.272-.08 1.821-.394.185-.106.429-.263.435-.486.006-.202-.188-.353-.351-.458-.165-.106-.408-.12-.599-.149-.283-.043-.527-.004-.828-.04-.246-.03-.611-.083-.663-.352-.05-.257.249-.479.426-.662.357-.369.807-.62 1.199-.949.452-.378.886-.72 1.296-1.15.13-.136.256-.241.353-.406.07-.117.152-.3.14-.438a.287.287 0 00-.127-.212c-.117-.084-.243-.074-.383-.073a1.144 1.144 0 00-.405.09c-.378.14-.734.341-1.094.528-.265.139-.5.356-.786.438-.171.05-.42.172-.531.025-.11-.142.062-.362.129-.531.137-.348.359-.652.547-.972.21-.358.457-.691.65-1.06.095-.182.214-.362.247-.567.025-.146.029-.312-.036-.444a.307.307 0 00-.185-.165c-.142-.035-.3.031-.433.094-.196.092-.46.294-.61.458-.504.558-.911 1.049-1.39 1.568-.164.177-.384.494-.598.394-.15-.069-.118-.329-.1-.497.058-.51.16-1.035.216-1.556.026-.245.075-.513.056-.74-.011-.124-.024-.244-.093-.346-.049-.073-.147-.112-.23-.125A.339.339 0 009.793 3zM7.29 8.035c-.155 0-.306.016-.452.046-.146.03-.29.07-.424.128-.004.001-.004.005-.006.006 0 .004.002.012.005.016.25.698.548 1.414 1.007 1.98a5.695 5.695 0 001.705 1.392c.01-.013.017-.026.026-.04a2.272 2.272 0 00.383-1.265 2.302 2.302 0 00-.176-.88 2.272 2.272 0 00-.812-.998 2.23 2.23 0 00-1.255-.385H7.29z" fill="#fff"/><path d="M10.547 12.075a3.594 3.594 0 00.385-1.628 3.536 3.536 0 00-.273-1.38 3.55 3.55 0 00-1.257-1.563 3.424 3.424 0 00-1.585-.586 3.574 3.574 0 00-.71 0 3.553 3.553 0 00-.925.23c.022.29.099.735.216 1.07l.009-.005a2.227 2.227 0 012.46.486 2.255 2.255 0 01.657 1.6 2.292 2.292 0 01-.176.88 2.282 2.282 0 01-.207.386l-.027.038c.434.237.954.369 1.433.472z" fill="#D51100"/></svg>