<!-- by TradingView --><svg width="18" height="18" viewBox="0 0 18 18" xmlns="http://www.w3.org/2000/svg"><path fill="#F0F3FA" d="M0 0h18v18H0z"/><path d="M2 9.01c2.76-.16 9.1-1.2 12.4-4.01-.98 1.84-4.84 5.22-12.4 4.01Z" fill="url(#adcb1cwpg)"/><path d="M3.18 10.52c2.37.5 7.8.9 10.64-1.5-.2 1.67-2.6 4.31-10.64 1.5Z" fill="url(#bdcb1cwpg)"/><path d="M4.36 11.52c1.97.5 6.39 1.3 8.28.5-.8.84-3.55 1.91-8.28-.5Z" fill="url(#cdcb1cwpg)"/><path d="M2.6 9.52c2.55.5 8.62.6 12.4-3.01-.79 2-4.37 5.41-12.4 3Z" fill="url(#ddcb1cwpg)"/><defs><linearGradient id="adcb1cwpg" x1="14.41" y1="5" x2="3.8" y2="10.26" gradientUnits="userSpaceOnUse"><stop stop-color="#91BF42"/><stop offset="1" stop-color="#448932"/></linearGradient><linearGradient id="bdcb1cwpg" x1="4.36" y1="11.02" x2="13.21" y2="10.33" gradientUnits="userSpaceOnUse"><stop stop-color="#9AB920"/><stop offset="1" stop-color="#2E783B"/></linearGradient><linearGradient id="cdcb1cwpg" x1="4.95" y1="12.03" x2="11.43" y2="12.72" gradientUnits="userSpaceOnUse"><stop stop-color="#9AB920"/><stop offset="1" stop-color="#F8C923"/></linearGradient><linearGradient id="ddcb1cwpg" x1="15" y1="6.51" x2="4.27" y2="11.16" gradientUnits="userSpaceOnUse"><stop stop-color="#F6CB3D"/><stop offset=".53" stop-color="#E2C82B"/><stop offset="1" stop-color="#ACC13E"/></linearGradient></defs></svg>