<!-- by TradingView --><svg xmlns="http://www.w3.org/2000/svg" width="18" height="18"><path fill="#F0F3FA" d="M0 0h18v18H0z"/><path d="M9.43 4.55c-1.96-.26-4.37.49-5.32.9 2.08.46 4.06 2.19 4.92 3.15l4.27-3.75c-.47.01-1.9-.03-3.87-.3z" fill="url(#ajbcuxu23)"/><path d="M4.9 9.84L3.5 6.97l5.46 1.79c-.94 3-.33 5.5-.33 5.74C7 13.4 5.88 11.87 4.9 9.84z" fill="url(#bjbcuxu23)"/><path d="M10.37 14.3L9.14 8.75c1.83-.16 4.34-1.78 5.36-2.57-.9 4.74-2.73 5.58-4.13 8.1z" fill="url(#cjbcuxu23)"/><defs><linearGradient id="ajbcuxu23" x1="8.7" y1="4.5" x2="8.7" y2="8.6" gradientUnits="userSpaceOnUse"><stop stop-color="#08586A"/><stop offset=".51" stop-color="#2BA5B3"/><stop offset="1" stop-color="#CBE8EC"/></linearGradient><linearGradient id="bjbcuxu23" x1="8.96" y1="8.94" x2="5.67" y2="11.17" gradientUnits="userSpaceOnUse"><stop stop-color="#D0EAEB"/><stop offset=".44" stop-color="#29A0AE"/><stop offset="1" stop-color="#075366"/></linearGradient><linearGradient id="cjbcuxu23" x1="9.14" y1="8.98" x2="13.01" y2="10.71" gradientUnits="userSpaceOnUse"><stop stop-color="#CAE7EB"/><stop offset=".4" stop-color="#33B7C0"/><stop offset="1" stop-color="#0A5E6F"/></linearGradient></defs></svg>