<!-- by TradingView --><svg width="18" height="18" fill="none" xmlns="http://www.w3.org/2000/svg"><path fill="url(#a)" d="M0 0h18v18H0z"/><path fill-rule="evenodd" clip-rule="evenodd" d="M6 13V6.828l-2 .183V5.585L9 5v1.432l-1.96.221V13H6Zm3-4.694 1.534-.102c-.032-.537.117-1.612.966-1.612 1.06 0 .966 1.184 0 2.183-.773.8-1.989 2.211-2.5 2.817V13h5v-1.5h-2.765l2.121-2.602C13.571 8.653 14 7.93 14 7c0-1.163-.796-2-2.33-2S9 5.939 9 8.306Z" fill="#fff"/><defs><linearGradient id="a" x1="3.349" y1="3.122" x2="21.904" y2="24.434" gradientUnits="userSpaceOnUse"><stop stop-color="#1A1E21"/><stop offset="1" stop-color="#06060A"/></linearGradient></defs></svg>