<!-- by TradingView --><svg xmlns="http://www.w3.org/2000/svg" width="18" height="18" viewBox="0 0 18 18"><path fill="#F0F3FA" d="M0 0h18v18H0z"/><path d="M11.11 13.91s.42-.98.28-1.96a6.43 6.43 0 0 0-1-2.42c-.66-1-1.52-2.15-2.08-3.1-.48-.8-.6-1.33-.61-2.17C7.68 3.18 8.43 2 8.43 2s-.28.92-.26 1.93c.02 1 .32 1.6.97 2.47.71.97 1.57 2.03 2.14 3.23.56 1.19.6 1.85.55 2.55a3.02 3.02 0 0 1-.72 1.73ZM8.82 13.11c-1.96-.14-3.5-1.66-3.5-3.5 0-.68.22-1.36.64-1.93-.06-.25-.09-.5-.09-.75a3.74 3.74 0 0 0-.77 4.26c.32.7.86 1.3 1.54 1.74.69.44 1.5.69 2.32.71l-.14-.53Z" fill="#769FC4"/><path d="M9.45 6.16c1.7.33 2.99 1.72 2.99 3.39 0 .46-.1.92-.3 1.34a4 4 0 0 1 .07.95 3.7 3.7 0 0 0 .4-3.96 4.07 4.07 0 0 0-1.44-1.58 4.56 4.56 0 0 0-2.1-.71c.1.18.23.37.38.57Z" fill="#739EC7"/><path d="M6.43 6.02s.1.7.27 1.06c0 0 .3.75.5 1.06.3.47.63.9 1 1.32.52.59.73 1.05.93 1.52a5.2 5.2 0 0 1 .29 2.84s-.28-1.23-.64-1.95a9.27 9.27 0 0 0-1-1.7 8.08 8.08 0 0 1-1.17-1.78c-.3-.66-.42-1.6-.18-2.37Z" fill="#769FC4"/><path d="M9.33 8.76c3.34 3.96-.55 6.82.03 6.14.66-1.05 1.5-3.27-.68-5.63-2.32-2.52-2.11-4.92-1.52-5.84 0 .57-.79 1.81 2.17 5.33Z" fill="#B1C9DF"/></svg>