<!-- by TradingView --><svg width="18" height="18" viewBox="0 0 18 18" xmlns="http://www.w3.org/2000/svg"><path fill="#F0F3FA" d="M0 0h18v18H0z"/><path d="M8.5 9h1v5h-1V9Z" fill="url(#a540fn54c)"/><path d="M8.96 5c1.92 0 5.53 1.08 7.04 1.62-.29-.06-2.6-.4-4.12-.47-.98-.04-1.61.06-1.61.39 0 .37-.16.61-.23.7 0 2.45-.47 2.76-1.08 2.76-1.04 0-.92-2.16-.92-2.77.02-.1.04-.32-.08-.38 0-.93-.16-1.23-.7-1.23-1.53 0-3.41.84-3.64.84-.24 0-.31-.15-.62-.38C3.54 5.85 6.34 5 8.96 5Z" fill="#4F5B69"/><defs><linearGradient id="a540fn54c" x1="8.5" y1="9" x2="8.5" y2="14" gradientUnits="userSpaceOnUse"><stop stop-color="#645155"/><stop offset="1" stop-opacity="0"/></linearGradient></defs></svg>