<!-- by TradingView --><svg width="18" height="18" viewBox="0 0 18 18" xmlns="http://www.w3.org/2000/svg"><path fill="#414242" d="M0 0h18v18H0z"/><path d="M9.46 6H9v6.32c0 .12.13.22.26.22h1.51c.14 0 .23-.1.23-.22V8h1.76c.13 0 .24-.06.24-.18v-.49c-.04-.08-.18-.15-.29-.15-.1 0-.26.07-.3.15V7.45h-2.05V12h-.75V6.58h4.14c.14 0 .25-.13.25-.26 0-.12-.1-.32-.24-.32h-4.3Z" fill="url(#ae5movyj3)"/><path d="M5.25 5c-.14 0-.25.1-.25.22v1.56c0 .12.11.22.25.22H7.4v6.78c0 .12.16.22.3.22.14 0 .3-.1.3-.22V6.46H5.6v-.93h6.82v.16c.04.08.2.15.3.15.12 0 .24-.07.28-.15v-.47c0-.12-.1-.22-.23-.22H5.25Z" fill="url(#be5movyj3)"/><defs><linearGradient id="ae5movyj3" x1="-511.3" y1="336.94" x2="540.66" y2="336.94" gradientUnits="userSpaceOnUse"><stop stop-color="#00FFC1"/><stop offset="1" stop-color="#4287F2"/></linearGradient><linearGradient id="be5movyj3" x1="-166.4" y1="455" x2="898.96" y2="455" gradientUnits="userSpaceOnUse"><stop stop-color="#00FFC1"/><stop offset="1" stop-color="#4287F2"/></linearGradient></defs></svg>