<!-- by TradingView --><svg width="18" height="18" viewBox="0 0 18 18" xmlns="http://www.w3.org/2000/svg"><path fill="#F0F3FA" d="M0 0h18v18H0z"/><path d="M9.27 3s-2.6.4-4.29 3.02c-1.6 2.49.23 5.08.23 5.08s-.9-2.2.76-4.15a5 5 0 0 1 3.17-1.69L9.27 3Z" fill="#FEC501"/><path d="M9.1 5.26s2.52.38 3.55 2.67c.48 1.07.48 2.28.02 3.35l2.07 1.25s.93-2.27-.72-4.91c-1.37-2.23-4.17-2.36-4.8-2.36H9.1" fill="#63645F"/><path d="m3 12.12 2.21-1.04a4.98 4.98 0 0 0 3.18 1.66 5.2 5.2 0 0 0 4.3-1.48S11.16 14.02 8.01 14C4.68 13.98 3 12.12 3 12.12Z" fill="#A84B47"/><path d="M9.36 11.9H9.3c.35-.1.69-.27.98-.52.38-.14.72-.39 1-.7.28-.32.49-.7.6-1.13a2.6 2.6 0 0 1-2.52 2.36m-.73 0c-.48 0-.95-.14-1.35-.41-.41-.27-.74-.66-.96-1.13.2.4.48.74.82.98.35.25.74.39 1.15.41.13.06.26.11.4.15h-.06M6.08 8.96v.31a2.64 2.64 0 0 0 0-.31m2.64-2.87c-.8.25-1.54.73-2.14 1.38-.1.13-.2.28-.28.44.19-.54.52-1 .95-1.33.43-.33.94-.5 1.47-.5Zm3.17 2.36a2.8 2.8 0 0 0-.86-1.37 2.34 2.34 0 0 0-.85-.62c-.24-.16-.5-.29-.77-.36a2.6 2.6 0 0 1 2.48 2.35Zm-1.05 2.28.12-.18c.22-.23.4-.5.52-.8a2.65 2.65 0 0 0-.1-2.17c.3.4.48.9.52 1.4-.04.48-.2.93-.44 1.31a2.5 2.5 0 0 1-.97.88c.13-.14.25-.29.35-.45M8.6 11.74h.18c.4 0 .78-.1 1.14-.27l.1-.03c-.32.22-.67.36-1.04.42a2.32 2.32 0 0 1-.46-.12h.08M6.3 9.86c.13.4.35.78.63 1.08.29.3.63.52 1 .65-.45-.1-.86-.35-1.18-.73a2.57 2.57 0 0 1-.57-1.36l.12.36Zm-.1-1.35-.03.07c0-.06 0-.11.02-.16.01-.07.03-.13.06-.2l-.06.3Zm1.08-1.6-.3.4a2.5 2.5 0 0 0-.57.68c.07-.17.15-.33.24-.48.18-.23.4-.43.63-.59m.3-.27c-.13.07-.27.14-.39.23.22-.19.46-.34.72-.44l-.33.21Zm.58 4.94a2.54 2.54 0 0 1-.22-.13c.22.1.46.17.7.2H8.6c-.15 0-.3-.03-.45-.07m-.52-.27.18.15a2.58 2.58 0 0 1-.88-.63c.21.2.45.36.7.48Zm-.51-4c-.17.28-.29.6-.35.93l-.1.3c.02-.42.15-.82.37-1.17l.08-.06m.26-.37-.14.18-.05.03c.06-.08.12-.15.2-.21m1.66-.64c-.19.02-.37.06-.54.13-.18 0-.35.03-.52.08L8 6.5c.27-.13.56-.2.86-.22.06 0 .13 0 .19.02ZM6.76 9.6c.04.3.12.58.24.85-.18-.33-.3-.7-.32-1.1l.08.25ZM6.74 9v.22a2.9 2.9 0 0 1-.05-.27l.05-.27V9m.9-1.96-.1.1c-.15.15-.3.32-.41.51l-.16.25c.08-.25.2-.49.34-.7.1-.06.21-.12.33-.16m.98-.51h.1l-.18.06c-.14.03-.29.09-.42.15.13-.08.26-.15.4-.21h.1ZM11.2 9.8l.03-.21c.05-.18.09-.37.1-.55v.06c0 .24-.05.48-.13.7M9.09 6.6h.2c.47.14.9.42 1.24.82a2.26 2.26 0 0 0-2-.64h-.26c.09-.05.18-.09.28-.12.17-.04.35-.06.52-.06m1.61.58c-.36-.36-.8-.59-1.29-.65.22 0 .43.03.64.1.24.14.46.32.65.55m.53 1.5v.04a2.96 2.96 0 0 0-.48-1.18 2.6 2.6 0 0 0-.92-.82c.55.2 1 .62 1.28 1.2.08.24.12.5.12.75m-4.18-.55A2.65 2.65 0 0 0 7.25 10c.2.37.49.68.82.89-.31-.14-.6-.35-.83-.63a2.78 2.78 0 0 1-.42-1.3v-.15c.04-.24.1-.47.2-.7m.96-1.17.07-.05h.06l-.1.06m2.7 2.32c0 .46-.12.92-.36 1.3a2.19 2.19 0 0 1-1.74.48 2.19 2.19 0 0 1-1.12-.85 2.48 2.48 0 0 1-.16-2.6l.22-.25c.29-.24.63-.4.99-.47 1.2.06 2.17 1.1 2.17 2.4m.47-.11c-.1.47-.32.9-.64 1.23a2.58 2.58 0 0 0-.29-2.7c-.33-.45-.8-.75-1.31-.86 1.2 0 2.17 1 2.23 2.25v.08m-.77 1.47c.33-.27.6-.65.75-1.07a2.7 2.7 0 0 1-1.01 1.44h-.03c.1-.1.2-.23.3-.37m-.49.44a2.13 2.13 0 0 1-.79.1c.37-.04.73-.16 1.05-.37l-.26.29m.61-.3-.03.03c.18-.17.33-.37.46-.58l-.14.25c-.09.11-.18.21-.29.3Zm-1.44.56c-.34 0-.66-.07-.97-.22a2.7 2.7 0 0 1-.48-.37c.29.2.6.33.94.39a2.29 2.29 0 0 0 1.18.07l-.04.03-.06.02c-.19.06-.38.08-.57.08m-1.6-.3c-.27-.32-.48-.7-.59-1.13l.1.18c.25.49.63.87 1.1 1.1.19.1.4.2.61.25-.27 0-.55-.04-.81-.14a2.19 2.19 0 0 1-.4-.28m2.07.41.16-.1c.22-.07.42-.17.62-.3-.2.17-.4.3-.63.39l-.15.01M9.46 6.4l.24.09a2.5 2.5 0 0 0-.67 0 2.36 2.36 0 0 0-.23-.03c.16-.04.33-.06.5-.06h.16m-1.69.29c.16-.06.32-.1.49-.12-.17.08-.33.2-.47.32l-.35.14c.1-.12.21-.24.33-.34m1.15 4.9a2.2 2.2 0 0 1-.39-.03h.18c.12 0 .23 0 .35-.02h.1l-.13.05h-.1m-2.69-2.6c0-.14.01-.29.04-.43.11-.38.3-.72.57-.99-.16.35-.25.73-.25 1.12.02.18.02.36 0 .54 0 .36.08.72.22 1.04.14.33.35.61.6.84a2.68 2.68 0 0 1-1.04-1.25 2.78 2.78 0 0 1-.14-.86m5.35-.2c0 .48-.14.95-.4 1.34a2.9 2.9 0 0 0 .02-2.25c-.11-.35-.3-.68-.53-.95.1.06.2.14.3.22.4.43.6 1.02.61 1.63M9.81 6.35l-.13-.02a2.24 2.24 0 0 0-.73-.12h-.3l.42-.1c.26.04.5.12.74.24M12 8.78a2.7 2.7 0 0 0-2.93-2.76 2.7 2.7 0 0 0-2.96 2.39c-.07.27-.11.54-.11.8A2.71 2.71 0 0 0 8.63 12c.25-.04.5-.04.74 0A2.71 2.71 0 0 0 12 9l.01-.22Z" fill="#A84B47"/></svg>