<!-- by TradingView --><svg xmlns="http://www.w3.org/2000/svg" width="18" height="18" viewBox="0 0 18 18"><path fill="#F0F3FA" d="M0 0h18v18H0z"/><path d="M7.33 7.65l2.56-2.4-.78 1.49c-.31.69.4.65.4.65h.94c.65 0 .34.64.34.64l-2.05 3.5s-.39.74-1.44.71c-1.12-.03-1.16-1.44-1.16-1.44 0-.35-.49-.35-.49-.35h-.4C4 10.27 4 8.9 4 8.9V5.68C4 3.94 5.78 4 5.78 4h6.79C14 4 14 5.38 14 5.38v3.39c0 1.68-1.53 1.68-1.53 1.68-.56 0-.47.69-.47.69v.92c0 1.44-1.68 1.44-1.68 1.44H6.87c-.73 0-.73-.5-.73-.5 0-.52.79-.5.79-.5h3.4c.4 0 .67-.53.67-.53v-1.43c0-1.05 1-1.11 1-1.11h.65c.46 0 .35-.72.35-.72V5.68c0-.7-.62-.68-.62-.68h-6.8C5.1 5 5 5.56 5 5.56v3.31c0 .63.62.56.62.56h.65c.85 0 .94.83.94.83v.72c.3.5.78-.07.78-.07l1.12-2.03c.31-.51-.37-.47-.37-.47H7.46c-.75 0-.13-.76-.13-.76zM10.38 15c.34 0 .62-.22.62-.5s-.28-.5-.62-.5H7.62c-.34 0-.62.22-.62.5s.28.5.62.5h2.76z" fill="#E44025"/></svg>