<!-- by TradingView --><svg width="18" height="18" viewBox="0 0 18 18" xmlns="http://www.w3.org/2000/svg"><path fill="#F0F3FA" d="M0 0h18v18H0z"/><path d="M13.64 5.04c.3.12.44.46.32.75l-2.85 6.86a.58.58 0 0 1-.75.3.57.57 0 0 1-.32-.74l2.85-6.86c.12-.29.46-.43.75-.3Z" fill="url(#a3ghh4hsn)"/><path d="M14.59 8.05c.34.12.5.48.36.8l-1.67 3.77c-.14.31-.53.46-.87.33-.34-.12-.5-.48-.36-.8l1.67-3.77c.14-.31.53-.46.87-.33Z" fill="url(#b3ghh4hsn)"/><path d="M11.95 5.75c.13-.28-.02-.6-.34-.7-.32-.12-.68.01-.8.29l-2.76 5.9c-.13.29.02.6.34.72.32.11.68-.02.8-.3l2.76-5.9Z" fill="url(#c3ghh4hsn)"/><path d="M8.59 6.04c.34.1.5.39.36.64L7.28 9.7c-.14.25-.53.37-.87.26-.34-.1-.5-.39-.36-.64L7.72 6.3c.14-.25.53-.37.87-.26Z" fill="url(#d3ghh4hsn)"/><path d="M4.01 6.58c-.06-.3.1-.6.35-.67l3.05-.9c.25-.07.51.11.58.4.06.3-.1.6-.35.68l-3.05.9c-.25.07-.51-.11-.58-.4Z" fill="url(#e3ghh4hsn)"/><path d="M5.02 12.58c-.08-.3.11-.6.43-.67l3.81-.9c.32-.07.64.11.72.4.08.3-.11.6-.43.68l-3.81.9c-.32.07-.64-.11-.72-.4Z" fill="url(#f3ghh4hsn)"/><path d="M3.02 8.53c-.07-.33.1-.66.38-.75l5.95-1.76c.28-.08.56.12.63.45.07.33-.1.66-.38.75L3.65 8.98c-.28.08-.56-.12-.63-.45Z" fill="url(#g3ghh4hsn)"/><path d="M3.02 10.56a.58.58 0 0 1 .4-.7l6.9-1.84c.3-.08.59.1.66.42.08.3-.1.62-.4.7l-6.9 1.84a.55.55 0 0 1-.66-.42Z" fill="url(#h3ghh4hsn)"/><defs><linearGradient id="a3ghh4hsn" x1="7.85" y1="10.29" x2="16.36" y2="8.24" gradientUnits="userSpaceOnUse"><stop offset=".04" stop-color="#FD7103"/><stop offset=".52" stop-color="#E03790"/><stop offset=".83" stop-color="#931C76"/></linearGradient><linearGradient id="b3ghh4hsn" x1="5.21" y1="10.55" x2="14.9" y2="8.06" gradientUnits="userSpaceOnUse"><stop offset=".52" stop-color="#E03790"/><stop offset=".83" stop-color="#931C76"/></linearGradient><linearGradient id="c3ghh4hsn" x1="7.11" y1="10.31" x2="16.16" y2="7.86" gradientUnits="userSpaceOnUse"><stop offset=".04" stop-color="#FD7103"/><stop offset=".52" stop-color="#E03790"/><stop offset=".83" stop-color="#931C76"/></linearGradient><linearGradient id="d3ghh4hsn" x1="6.21" y1="10.16" x2="15.58" y2="7.15" gradientUnits="userSpaceOnUse"><stop offset=".04" stop-color="#FD7103"/><stop offset=".52" stop-color="#E03790"/></linearGradient><linearGradient id="e3ghh4hsn" x1="7.99" y1="5.42" x2="3.95" y2="6.29" gradientUnits="userSpaceOnUse"><stop offset=".04" stop-color="#FD7200"/><stop offset=".71" stop-color="#4A2874"/></linearGradient><linearGradient id="f3ghh4hsn" x1="9.98" y1="11.42" x2="5.06" y2="12.75" gradientUnits="userSpaceOnUse"><stop offset=".04" stop-color="#FD7200"/><stop offset=".71" stop-color="#4A2874"/></linearGradient><linearGradient id="g3ghh4hsn" x1="9.98" y1="6.47" x2="2.9" y2="7.99" gradientUnits="userSpaceOnUse"><stop offset=".04" stop-color="#FD7200"/><stop offset=".71" stop-color="#4A2874"/></linearGradient><linearGradient id="h3ghh4hsn" x1="10.98" y1="8.44" x2="2.97" y2="10.35" gradientUnits="userSpaceOnUse"><stop offset=".04" stop-color="#FD7200"/><stop offset=".71" stop-color="#4A2874"/></linearGradient></defs></svg>