<!-- by TradingView --><svg width="18" height="18" xmlns="http://www.w3.org/2000/svg"><path fill="#00386E" d="M0 0h18v18H0z"/><path d="M8.005 11.521l1.26-4.906c-1.136-.357-3.25-.968-4.096-.535-.396.23-.616.84-.59 1.197.054.28.08.714.529.918.211.101.581.101.793-.077.184-.28.29-.587.687-.638a.723.723 0 01.554.179c.264.255.159.586.053.765-.158.255-.449.484-.792.535-.634.077-1.11.051-1.612-.28-.687-.434-.819-1.122-.792-1.581.052-.459.404-1.375 1.197-1.783C6.2 4.78 7.97 5.035 9 5.29l.502.127c1.347.332 2.536.918 4.069.56.105-.024-.053-.407.29-.381.185.025.185.28 0 .407-.766.587-1.349 1.314-3.144.842l-1.18 4.65c-.264 1.122-.29.97.476 1.02L9.88 13H6.908l.093-.484c.819-.052.793-.128 1.004-.995z" fill="#fff"/></svg>