<!-- by TradingView --><svg xmlns="http://www.w3.org/2000/svg" width="18" height="18" viewBox="0 0 18 18"><path fill="#F0F3FA" d="M0 0h18v18H0z"/><path fill-rule="evenodd" d="M9 15A6 6 0 1 0 9 3a6 6 0 0 0 0 12zm0-2a4 4 0 1 0 0-8 4 4 0 0 0 0 8z" fill="url(#ac4wtsojf)"/><path d="M8.03 11.85l.07.57.35.05c-.05-.2-.14-.63-.13-.67.52.05 1.7-.15 2.27-1.4.57-1.26.55-3.43.47-4.36a5.93 5.93 0 0 1-2 1.57c-1.03.4-2.32.93-2.32 2.56 0 .9.51 1.34 1 1.57l-.02-.04a3.58 3.58 0 0 1 0-1.55c.2-.5 1.5-1.72 2.18-2.1-.55.52-1.7 1.74-1.83 2.54-.1.59-.07.98-.04 1.25z" fill="url(#bc4wtsojf)"/><defs><linearGradient id="ac4wtsojf" x1="3.57" y1="11.36" x2="15" y2="7.69" gradientUnits="userSpaceOnUse"><stop stop-color="#9CC94C"/><stop offset="1" stop-color="#6F9D41"/></linearGradient><linearGradient id="bc4wtsojf" x1="6.74" y1="11.81" x2="11.56" y2="9.14" gradientUnits="userSpaceOnUse"><stop offset=".18" stop-color="#C1D994"/><stop offset="1" stop-color="#719F41"/></linearGradient></defs></svg>