<!-- by TradingView --><svg width="18" height="18" viewBox="0 0 18 18" xmlns="http://www.w3.org/2000/svg"><path fill="#F0F3FA" d="M0 0h18v18H0z"/><path d="M6.67 7.67V6H2.74c-.41 0-.74.3-.74.66v1h4.67ZM3.67 8H5v4H3.67zM11.67 6H13v6h-1.33zM14.95 6h-1.78v1.33H16V7.2C16 6.53 15.6 6 14.95 6ZM14.95 10.33h-1.78V9H16v.14c0 .66-.4 1.2-1.05 1.2ZM14.67 7.48H16v1.37h-1.33z" fill="#1263B2"/><path d="m9.68 6 1.33 1.67H8.16V6.1c0-.06.05-.11.11-.11h1.41ZM8 12l-1.3-1.67h2.8v1.56a.1.1 0 0 1-.11.11h-1.4Z" fill="#F90217"/><path d="M8 6.07V10H6.79c-.07 0-.12-.05-.12-.12V7.94L8 6.07ZM9.67 12V8h1.2c.07 0 .13.05.13.11v2L9.67 12Z" fill="#1263B2"/></svg>