<!-- by TradingView --><svg width="18" height="18" viewBox="0 0 18 18" xmlns="http://www.w3.org/2000/svg"><path fill="#F0F3FA" d="M0 0h18v18H0z"/><path d="M9 5c.42.04.8.11 1.15.22.28.08.52.24.73.46.1.11.15.25.18.38 0 .01 0 .03.02.04a3385.97 3385.97 0 0 0 4.62 1.55c.09.03.12.07.12.16l.07 2.57c0 .08-.04.12-.14.13-.2 0-.44 0-.72.02-.41 0-.82.24-.72.73v.01a.03.03 0 0 1-.02.02h-.02l-.37.02h-.03l-.01.03c-.04.27-.2.51-.53.37a.06.06 0 0 0-.05 0c-.2.1-.4.1-.6 0a.03.03 0 0 0-.03.02l-.16.25-.02.01h-.02v-.01c.07-.15.15-.25.12-.42l-.12-.67a.12.12 0 0 0-.05-.06h-.02l.03.09v.02h-.02l-.08-.03a.14.14 0 0 0-.1 0 .13.13 0 0 0-.07.07c-.06.13-.11.3-.15.52-.03.18 0 .25.1.43.04.1.12.14.23.16h.01v.03a.6.6 0 0 1-.25.13v.02h.01c.79-.1 1.76-.2 2.91-.33.17-.02.3-.05.48-.03.07.01.21-.04.26-.02v.02h-.05l-.02.01-.01.02-.02.05-.01.02h-.02c-.06 0-.1 0-.14.04h-.02l-2.91.86a.43.43 0 0 1-.11.02l-1.51.04h-.01v-.01c0-.02.04-.03.1-.05a234.4 234.4 0 0 1 4.39-.94v-.02h-.02a104.9 104.9 0 0 1-2.46.47 312.75 312.75 0 0 1-2.92.56L9.7 13l-2.6-.05-.47-.02-.01-.01v-.01l.37-.05.01-.02v-.02c-.25-.13-.42-.31-.44-.57v-.03H4.22l-.02.02c-.19.35-.67.53-1.07.43a.67.67 0 0 1-.46-.35 2.23 2.23 0 0 0-.07-.12l-.02-.01c-.28-.08-.5-.2-.57-.49a.9.9 0 0 1 .04-.51c.06-.17.03-.2.06-.39.07-.45.36-.73.86-.84L3 9.94V9.9c.01-.44.14-.84.38-1.2a.11.11 0 0 0 .02-.08 2.38 2.38 0 0 1 0-.7c.02-.11.04-.2.15-.24.16-.07.48-.09.51.15v.46h.01l.4-.06v-.02a1.7 1.7 0 0 1 .1-.97c.02-.08.08-.14.18-.18l.45-.18c.26-.09.5-.44.66-.66.2-.28.43-.5.7-.68.4-.27.89-.45 1.43-.54L9 5ZM7.7 6.14a1.86 1.86 0 0 1 .59-.7v-.01l-.02-.01-.69.1a2.92 2.92 0 0 0-1.59.99 1.82 1.82 0 0 1-.26.28v.02h.02l.3-.02L8 6.76c.27 0 .62-.03.83-.04.14 0 .22.07.23.2v.02h.01a.02.02 0 0 0 .02 0 .65.65 0 0 0 .33-.33 2.42 2.42 0 0 1 .73-1v-.02h-.02a5.6 5.6 0 0 0-1.2-.18l-.19.08a6.58 6.58 0 0 0-1.05.66v-.01Zm2.3.21c.3.04.63.1.7.41.04.12.04.3.02.55-.04.57-.07 1.06-.08 1.47a467.76 467.76 0 0 1-.05 1.81h.08l.02-.02.01-.02c.13-.4.2-.65.2-.78.1-.88.13-1.74.05-2.62-.02-.2-.05-.36-.09-.49-.09-.33-.17-.66-.43-.9a.02.02 0 0 0-.02 0h-.01a2.14 2.14 0 0 0-.42.58l.01.01Zm5.7 3.14a115.7 115.7 0 0 0-.06-1.67l-.02-.02-4.47-1.48a.02.02 0 0 0-.01 0 .02.02 0 0 0-.01.01l.08.59a11.3 11.3 0 0 1-.34 3.5v.02h.01l4.81-.1h.01a.02.02 0 0 0 .02-.01v-.01l-.02-.46a.38.38 0 0 0-.07-.12.02.02 0 0 0-.02 0v.01a.4.4 0 0 0-.04.08l-.02.02a.07.07 0 0 1-.03.02h-.04a.06.06 0 0 1-.02-.03 4.67 4.67 0 0 1-.1-.62c-.01-.12-.1-.24-.04-.36a.46.46 0 0 0 .07-.16 7.24 7.24 0 0 1 .04-.22l.03-.02.03-.01.03.01c.05.04.07.2.07.25l-.01.03-.04.02a.19.19 0 0 0-.07.02l-.01.02-.01.02a2.05 2.05 0 0 0 .03.7l.03.02c.1.04.19.06.19-.05ZM9.95 6.42h-.02a7.45 7.45 0 0 1-.28.54c-.15.27-.36.4-.62.54a.06.06 0 0 0-.03.03v.03c0 .02.01.03.02.03l.04.02c.1 0 .28-.02.4 0a6.34 6.34 0 0 1 1.1.18l.06-.64c.01-.26 0-.55-.28-.63l-.39-.1Zm-1.87.45a54.63 54.63 0 0 0-2.02.02 2.61 2.61 0 0 0-.62.1l.01.01 1.33-.02a3.96 3.96 0 0 1 .48.01l.82-.1v-.01Zm-.2.75c.1-.31.5-.3.72-.14l.01.01v.02h-.03c-.19-.08-.56-.13-.59.14a4.46 4.46 0 0 0 0 .74.04.04 0 0 0 .03 0l.36-.06c.32-.02.27-.43.26-.65l.01-.01h.02v.01l.03.49a.1.1 0 0 1-.01.04.63.63 0 0 1-.15.2v.03h.03l.12-.03s.02 0 .03-.02l.01-.03.04-.51v-.02l.08-.16v-.03l-.05-.67v-.02h-.03A2.19 2.19 0 0 0 8 7.2c-.1.08-.12.28-.13.4v.01h.02Zm.45 3.93c0 .28-.06.57-.16.87-.15.42.02-.24-.3.05.18-.38.25-.76.21-1.16-.01-.17-.15-.57-.4-.35-.27.24-.4.6-.44.94-.03.35.13.94.64.8a.06.06 0 0 1 .05.02l.05.02H8l2.89-.35v-.01c-.23-.02-.53-.14-.47-.4v-.02a.02.02 0 0 0-.02 0v-.01l-1.2.16c-.34.04-.61.1-.65-.28l-.04-.56c-.02-.31.06-.68.48-.7.29-.02.55-.02.84 0l.6.03h.03l.01-.02.01-.02v-.01a46.14 46.14 0 0 1 .06-2.67 7.32 7.32 0 0 0-1.2-.19l.06.24c0 .21 0 .46-.04.67-.04.22-.2.22-.39.21a.03.03 0 0 0-.02 0 .02.02 0 0 0 0 .02l-.08 1.4-.01.01h-.01v-.01l-.02-1.4a.1.1 0 0 0-.03-.08c-.06-.05-.07-.11-.06-.2v-.01l-.01-.01a.03.03 0 0 0-.03 0 5.64 5.64 0 0 1-.92.53v.55c.02.3.57.29.8.29h.01v.03c-.18.08-.43.05-.6 0-.17-.04-.26-.14-.29-.28a2.11 2.11 0 0 1 .02-.57l-.01-.01-.08.01h-.01v-.01l-.01-.01a.02.02 0 0 1 0-.03l.12-.06v-.01l.01-.02v-.23l.01-.01h.01c.02.04.02.1.02.19v.02h.02a.04.04 0 0 0 .03 0l.68-.36.02-.01v-.02l-.01-.02H7.67a.07.07 0 0 1-.03-.04v-.01a.04.04 0 0 1 0-.04h.02l.02-.01h.16a.04.04 0 0 0 .03 0v-.03l-.02-.55-.01-.02h-.02v.02c-.01.15-.05.3-.1.44.02-.19.03-.44.03-.75 0-.1-.02-.17-.06-.21-.17-.22-.53-.23-.8-.22-.66 0-1.32 0-1.93.15-.18.04-.3.05-.35.22a3.39 3.39 0 0 0-.06.77.04.04 0 0 0 .03 0c.41-.06.81-.09 1.21-.07a43.92 43.92 0 0 1 1.38.16v.01a.02.02 0 0 1 0 .02.02.02 0 0 1-.02 0c-.35-.01-.7-.03-1.03-.07a5.3 5.3 0 0 0-1.25.02c-.42.05-.84.1-1.2.3-.17.1-.29.33-.37.52v.01h.04c.35-.27.87-.31 1.3-.28a.7.7 0 0 1 .43.19h.04c.08-.03.16-.1.23-.12a7.83 7.83 0 0 1 1.96-.5v.02l-.02.01c-.07.03-.17.07-.23.08a8.85 8.85 0 0 0-1.87.6l-.01.02v.02c.05.1.08.2.08.33a4.49 4.49 0 0 1-.02 1l.16-.22c.27-.35.66-.48 1.13-.55a1.97 1.97 0 0 1 1.72.66v.02h-.05l-.32-.24a1.94 1.94 0 0 0-1.71-.25c-.56.17-.82.54-.97 1.05a.02.02 0 0 0 0 .02.03.03 0 0 0 .01.01c.05.01.08 0 .1-.03.34-.37.76-.57 1.26-.6.25-.01.54.1.37.4a.7.7 0 0 1-.25.24v.03h.02a1.09 1.09 0 0 1 .3.05v.02h-.01c-.18.01-.4.06-.64.07a28.37 28.37 0 0 1-1.2.05.08.08 0 0 0-.03.03.4.4 0 0 1-.28.2c-.22.05-.42.03-.6-.04-.09-.03-.23-.42-.25-.06a.1.1 0 0 1-.02.06.1.1 0 0 1-.06.03c-.2.04-.39.05-.55.03-.17-.02-.3-.06-.36-.23v-.01h-.02l-.37-.02-.07.01a.13.13 0 0 0-.05.05c-.1.15-.08.27.06.35.17.1.39.17.64.2.87.1 1.74.15 2.62.16.23 0 .5-.04.83-.11.2-.05.36-.15.4-.32.07-.34.22-.65.45-.94.1-.14.28-.26.44-.22.26.09.77 1.36.5 1.37h-.01l-.07-.22h-.01ZM4.51 8.97v-.02h-.13a.03.03 0 0 0-.03 0 .03.03 0 0 0 0 .02l-.03 1.98.01.02.02.01h.11a.03.03 0 0 0 .02 0 .03.03 0 0 0 .01-.03l.02-1.98ZM4.3 9v-.03h-.04l-.1-.01-.03.01V9l-.05 1.95v.02l.04.01h.13v-.03L4.3 9Zm.5-.01v-.01H4.56v2H4.78v-2ZM4.04 9l-.15-.01h-.01l-.06 1.97v.01h.02l.14.01v-.01L4.06 9Zm-.22.05-.01-.01H3.67l-.06 1.92.02.01H3.78l.05-1.92Zm1.13 0h-.12l.01 1.92.01.01h.11l.01-.01-.02-1.91ZM3.56 11l.04-1.88a.2.2 0 0 0-.05 0 .15.15 0 0 0-.04.02.1.1 0 0 0-.03.03l-.01.03-.05 1.71c0 .02.02.05.04.06.02.02.06.03.1.03Zm1.51-.2.06-.67c.01-.16.04-.81-.08-.9a.02.02 0 0 0-.02-.01h-.01v1.29a1.56 1.56 0 0 0 .03.3h.01l.01-.01Zm-1.7-1.54-.06.03-.02.02v1.5c0 .05 0 .08-.02.1l-.01.01a.03.03 0 0 0 0 .04h.02c.04.03.08.02.1 0v-.01l.03-1.67v-.01l-.01-.01a.02.02 0 0 0-.02 0Zm-.13 1.63V9.44h-.01c-.03 0-.06.07-.08.2-.02.14-.03.32-.03.51v.02c0 .19.01.37.03.5.02.14.05.21.08.21Zm-.68.1h.52a.03.03 0 0 0 .02-.02.03.03 0 0 0 0-.02 2.63 2.63 0 0 1-.1-.88.02.02 0 0 0-.01 0 1.6 1.6 0 0 0-.54.28.03.03 0 0 0 .01.04c.2.14.54.46.1.6Zm-.2-.5-.14.36a.02.02 0 0 0 0 .02v.01h.02l.36-.02.03-.01.02-.02a.06.06 0 0 0 0-.06 1.2 1.2 0 0 0-.26-.3h-.03v.02Zm3.12.51a6.08 6.08 0 0 1 .97.02c.15-.09.35-.22.4-.39v-.05a.1.1 0 0 0-.05-.05c-.23-.13-.72.03-.94.14a2.29 2.29 0 0 0-.41.3v.02l.03.01Zm7.13-.25-.05.01-.07-.05a.53.53 0 0 0-.34-.15.84.84 0 0 0-.26 0 1.2 1.2 0 0 1-.33.05.01.01 0 0 0 0 .02c.05.03.1.05.13.05h.05c.26-.13.5-.06.73.09h.03l.1.01h.01l.01-.02Zm-2.91-.06a5.58 5.58 0 0 0-.82.01c-.2.07-.25.28-.25.47 0 .27.02.52.07.78 0 .02.02.04.04.06.02.02.04.03.07.03h.16a60.3 60.3 0 0 1 .69-.11.67.67 0 0 0 .1-.27 2.49 2.49 0 0 0-.04-.97H9.7Zm.79 1.26c.15.05.37-.02.57-.07a.41.41 0 0 0 .2-.11.02.02 0 0 1 .02-.01h.01v.02c-.01.2.04.37.17.52l.04.03h.04l.12-.01.06-.02a.13.13 0 0 0 .04-.04.9.9 0 0 0 .17-.45v-.01h-.03a.99.99 0 0 1-.27.49.01.01 0 0 1-.02 0v-.01c0-.02 0-.04.02-.07.14-.2.23-.42.27-.7.01-.11.04-.3.1-.55a.4.4 0 0 1 .12-.24v-.01a.02.02 0 0 0 0-.02.7.7 0 0 0-.34.03l-.01.01-.01.02a.04.04 0 0 0 0 .04c.04.04.06.1.06.16a.02.02 0 0 1-.01.01h-.02a1.2 1.2 0 0 1-.06-.07c-.15-.21-.39.02-.45.17v.04l-.02.36a.37.37 0 0 1-.28.34l-.49.14v.01Zm-.63-1.22c.06.31.07.63.02.96a.8.8 0 0 1-.07.23h.02c.34-.02.66-.09.98-.18.3-.08.33-.26.34-.54.01-.22.05-.46-.25-.48-.22-.02-.47 0-.7 0a6.92 6.92 0 0 1-.34 0v.01Z" fill="#010101"/><path d="M14.99 10.67c.04-.04.08-.06.12-.06a13.22 13.22 0 0 0 .22 0c.25-.1.43.06.5.28a.93.93 0 0 1-.1.74h-.02v-.01c.09-.26.09-.51-.01-.76-.02-.05-.05-.07-.1-.08-.1 0-.13.04-.13.13v.01l-.01.01h-.03a.35.35 0 0 0-.1-.11c-.13-.07-.08-.25-.33-.14h-.01Z" fill="#010101"/><path d="M15.1 11.27a.96.96 0 0 0 .14.43v.01a.01.01 0 0 1-.02 0h-.01a.78.78 0 0 1-.17-.44c-.01-.15.03-.3.12-.45h.02v.01c-.06.16-.1.3-.08.44ZM14.82 10.93c-.07.31-.1.73.25.87l.02.01v.02l-.01.02h-.02a.53.53 0 0 1-.18-.04h-.05c-.04.01-.12.07-.18.06-.26-.03-.25-.54-.24-.73a.02.02 0 0 1 .02-.01h.01l.06.1.02.02a.08.08 0 0 0 .08 0l.03-.03.16-.3a.01.01 0 0 1 .01 0h.02ZM15.5 11.23c-.02.14.02.26.08.26.05 0 .11-.1.13-.24 0-.14-.03-.26-.09-.26-.05-.01-.11.1-.13.24Z" fill="#010101"/><path d="M15.2 11.23c-.02.14.02.25.07.25.06 0 .11-.1.12-.23.01-.13-.02-.24-.08-.25-.05 0-.1.1-.12.23ZM12.12 11.47c0 .22.07.39.16.39.1 0 .17-.17.18-.39 0-.2-.08-.38-.17-.38-.1 0-.17.17-.17.38ZM15.45 11.54v-.01a.02.02 0 0 1 .02 0h.01l.12.2a.03.03 0 0 1 0 .04l-.02.01H15.37a.02.02 0 0 1 0-.02l.08-.22ZM15.81 11.94h.03c.05-.03.1-.04.15-.03a.01.01 0 0 1 0 .02c-.17.1-.32.18-.5.25a90.96 90.96 0 0 0-1.73.72 39.25 39.25 0 0 0-.76.01.02.02 0 0 1 0-.02 190.2 190.2 0 0 0 2.6-.83l.17-.11a.05.05 0 0 1 .04 0ZM11.5 9.6l-.1-.01a.04.04 0 0 1-.02-.01l-.01-.01v-.02l.1-1.75v-.02h-.02l-.14-.06-.02-.01v-.02l.02-.4.01-.02a.04.04 0 0 1 .03 0l.49.16.01.01v.02l-.01.35a.03.03 0 0 1-.01.02.03.03 0 0 1-.03 0h-.11a.04.04 0 0 0-.03 0 .03.03 0 0 0-.01.03l-.1 1.7-.02.03h-.02ZM12.11 9.7c-.04 0-.09-.03-.13-.1a.82.82 0 0 1-.1-.24 3.43 3.43 0 0 1 .03-1.58c.03-.1.07-.19.11-.24.04-.06.09-.09.13-.08.05 0 .1.03.13.08.04.06.08.14.11.25a3.45 3.45 0 0 1-.03 1.58.82.82 0 0 1-.11.24c-.05.06-.1.09-.14.09Zm.02-.47c.04 0 .1-.07.13-.2.04-.12.06-.29.06-.46 0-.18 0-.35-.04-.48-.03-.12-.07-.2-.12-.2-.05 0-.1.07-.13.2-.04.12-.06.3-.06.47-.01.17 0 .34.04.47.03.13.07.2.12.2ZM12.6 9.67h-.03a.06.06 0 0 1-.04-.02l-.01-.02v-.02l.09-1.94a.02.02 0 0 1 .01-.01c.18 0 .29.1.32.25.06.3.05.6-.02.87-.02.06-.08.14-.16.13h-.05l-.02.01v.02l-.04.68a.05.05 0 0 1-.01.04.06.06 0 0 1-.04.01Zm.11-1.6V8.54h.03a.1.1 0 0 0 .04-.01l.04-.03a.15.15 0 0 0 .02-.05l.01-.05v-.2a.17.17 0 0 0-.03-.1.1.1 0 0 0-.08-.04h-.02l-.01.01ZM13.08 9.7h-.02l-.04-.02a.05.05 0 0 1-.01-.04l.06-1.83V7.8h.02c.17 0 .27.08.3.23.06.29.05.56-.01.82-.02.06-.08.13-.15.12h-.05l-.01.02V9l-.03.64a.05.05 0 0 1-.02.04.05.05 0 0 1-.04.01Zm.1-1.52v.45h.01l.05-.01.03-.04a.18.18 0 0 0 .03-.05v-.06l.01-.13a.21.21 0 0 0-.03-.12c-.02-.03-.05-.05-.08-.05h-.01ZM13.69 9.78c-.07 0-.13-.1-.17-.27a2.84 2.84 0 0 1-.05-1.03l.05-.3a.76.76 0 0 1 .08-.2c.03-.05.06-.07.09-.07.06 0 .12.1.17.27a2.84 2.84 0 0 1 .05 1.02l-.05.3a.76.76 0 0 1-.08.2c-.03.06-.06.08-.1.08Zm0-.39c.02 0 .03-.01.05-.04a.5.5 0 0 0 .04-.12 1.51 1.51 0 0 0 .03-.4c0-.14 0-.28-.03-.39-.02-.1-.05-.16-.09-.16l-.04.04a.5.5 0 0 0-.04.12 1.5 1.5 0 0 0-.04.4c0 .14.01.28.04.39.02.1.05.16.08.16ZM14.06 8.06h-.02c-.02 0-.04.02-.04.04l-.04 1.61c0 .02.02.04.04.04h.02c.03 0 .04-.02.04-.04l.04-1.61c0-.02-.02-.04-.04-.04ZM14.3 8.9v-.01h-.02a5.01 5.01 0 0 0-.05.86h-.08v-.03l.03-1.58v-.01l.01-.01a.04.04 0 0 1 .03-.01h.02l.04.02.01.04.05.64v.01h.05V8.8l.02-.6V8.2l.01-.01a.03.03 0 0 1 .03 0c.1.05.22.04.33.1l.01.01v.21a.1.1 0 0 1-.03.07l-.04.04-.01.02v1.13l-.01.02h-.09l-.01-.03.02-1.16v-.02l-.01-.02-.07-.06h-.03v.01l-.03 1.24-.01.02-.02.01h-.06v-.02c-.06-.3-.08-.6-.08-.86ZM15.15 9.24l-.03.55a.02.02 0 0 1-.02 0 .21.21 0 0 0-.16 0 .02.02 0 0 1-.02 0V8.35a.03.03 0 0 1 0-.02.03.03 0 0 1 .03 0h.04l.01.02v1.38a.01.01 0 0 0 0 .01h.05V8.4a.03.03 0 0 1 .03-.02h.05l.02.03c0 .12 0 .28.05.42a2.94 2.94 0 0 1 .1.98h-.07l-.01-.02-.04-.55-.02-.01-.01.01ZM15.3 8.43a.01.01 0 0 1 .01 0v.28l-.02.09c0 .02-.02.03-.02.03-.02 0-.03-.01-.03-.03v-.37a.01.01 0 0 1 .02 0h.04ZM7.45 11.73c-.01.34.1.62.24.63.15 0 .29-.26.3-.6.02-.34-.08-.62-.23-.63-.15 0-.29.26-.3.6ZM11.41 11.46c-.02.23.05.42.16.43.1.01.2-.17.23-.4.02-.23-.05-.42-.16-.43-.1 0-.2.18-.23.4Z" fill="#010101"/></svg>