<!-- by TradingView --><svg xmlns="http://www.w3.org/2000/svg" width="18" height="18"><path fill="#F0F3FA" d="M0 0h18v18H0z"/><path d="M9.18 14c1.76 0 2.82-1.5 2.82-3.2 0-1.44-.98-2.7-2.29-3.1A1 1 0 018 7a1 1 0 011.97-.24A4.15 4.15 0 0113 10.82c0 .51-.05 1-.22 1.46A5 5 0 009.01 4h-.2C7.13 4.12 6 5.5 6 7.2a3 3 0 002.17 2.87 1 1 0 11-.09.96A3.88 3.88 0 015 7.19c0-.52.05-1 .22-1.46A5 5 0 008.99 14h.2z" fill="url(#aq43solrw)"/><defs><linearGradient id="aq43solrw" x1="9" y1="4" x2="9" y2="14" gradientUnits="userSpaceOnUse"><stop stop-color="#F7BE16"/><stop offset="1" stop-color="#F05123"/></linearGradient></defs></svg>