<!-- by TradingView --><svg width="18" height="18" viewBox="0 0 18 18" xmlns="http://www.w3.org/2000/svg"><path fill="#F0F3FA" d="M0 0h18v18H0z"/><path d="M12.71 8.86a3.86 3.86 0 0 1-4.5 3.8l-.83 1.13A5.19 5.19 0 0 0 14 8.86a5.1 5.1 0 0 0-.85-2.83l-.84 1.13c.26.51.4 1.09.4 1.7Z" fill="#2C2C2A"/><path d="M8.4 10.4c-3.5-.11-3.34 1.28-2.82 2a2.01 2.01 0 0 1-.93-1.69c0-1.68 3.33-1.93 4.83-1.83L8.4 10.4Z" fill="url(#at4vy5ejx)"/><path d="M9.32 7.1c-4.26 0-5.21 2.24-5.16 3.37C4.03 9.7 4 9.07 4 8.86c0-3.05 5-3.21 5.8-3.21.65 0 1.78.1 2.26.16l-.96 1.44a9.15 9.15 0 0 0-1.78-.16Z" fill="url(#bt4vy5ejx)"/><path d="M9.16 4.68C6.58 4.56 5.08 5.7 4.65 6.3a5.26 5.26 0 0 1 5-2.25l-.49.64Z" fill="url(#ct4vy5ejx)"/><defs><linearGradient id="at4vy5ejx" x1="9.17" y1="9.18" x2="4.84" y2="11.55" gradientUnits="userSpaceOnUse"><stop stop-color="#3275BC"/><stop offset="1" stop-color="#75C5DE"/></linearGradient><linearGradient id="bt4vy5ejx" x1="11.9" y1="5.97" x2="4.17" y2="9.85" gradientUnits="userSpaceOnUse"><stop stop-color="#4074BF"/><stop offset="1" stop-color="#71BCDB"/></linearGradient><linearGradient id="ct4vy5ejx" x1="9.48" y1="4.04" x2="4.81" y2="5.98" gradientUnits="userSpaceOnUse"><stop stop-color="#3471AA"/><stop offset="1" stop-color="#70BBDB"/></linearGradient></defs></svg>