<!-- by TradingView --><svg width="18" height="18" viewBox="0 0 18 18" xmlns="http://www.w3.org/2000/svg"><path fill="#F0F3FA" d="M0 0h18v18H0z"/><path d="m6.76 8.09-1.49 2.1c-.2.27-.38.56-.59.81H2c.1-.18.22-.35.35-.51.45-.66.92-1.3 1.38-1.95.2-.28.39-.57.6-.84.28-.39.67-.63 1.1-.67L5.94 7a407.1 407.1 0 0 1 2.28.03l-.29.04c.01 0-.01 0 0 0-.45.1-.78.44-1.06.86l-.11.16ZM11.05 10.11l.28-.36.69-.97 1.16-1.63.1-.15H16c-.3.4-.66.92-.95 1.33l-1.29 1.83c-.28.4-.6.68-1.02.79-.1.03-.21.04-.32.04h-2.38a.2.2 0 0 1-.11 0s0-.01 0 0l.18-.07c.2-.06.39-.16.55-.3.15-.15.31-.28.39-.5Z" fill="#64B8E4"/><path d="m10.78 9.75-.05-.08-1.08-1.53c-.16-.22-.29-.45-.48-.63-.1-.13-.22-.23-.35-.3a1.23 1.23 0 0 0-.6-.21L8 7.02h-.03l-.04.02c-.45.1-.78.44-1.06.86l-.05.07a19.14 19.14 0 0 0 .91 1.27l.02.05c.25.34.48.7.74 1.03.33.44.74.68 1.23.66a.4.4 0 0 0 .2 0c.07 0 .13-.03.2-.05.19-.06.38-.17.54-.31.15-.14.31-.28.39-.5-.1-.12-.17-.26-.27-.37Z" fill="url(#apmporjnx)"/><defs><linearGradient id="apmporjnx" x1="10.48" y1="10.59" x2="7.17" y2="8.44" gradientUnits="userSpaceOnUse"><stop stop-color="#458BC5"/><stop offset=".5" stop-color="#4E95CD"/><stop offset="1" stop-color="#458BC5"/></linearGradient></defs></svg>