<!-- by TradingView --><svg width="18" height="18" viewBox="0 0 18 18" xmlns="http://www.w3.org/2000/svg"><path fill="#F0F3FA" d="M0 0h18v18H0z"/><path d="m7.35 7.17-.48.2C6.3 6.61 5.5 4.86 6.93 4c2.53.71 3.77 2.41 4.07 3.17l-.34-.07a5.68 5.68 0 0 0-2.73-2.38c-1.25.56-.9 1.87-.58 2.45ZM6.5 8.16c-2.3 1.65-2.6 4.56-2.47 5.81 4 .26 5.92-1.4 6.38-2.25l-.5-.43a5.03 5.03 0 0 1-4.78.93C5.1 10.1 6.25 8.86 6.83 8.5l-.32-.34ZM15 11.34c-1.04 1.32-2.8.64-3.55.14l.12-.29c.61.36 2.03.87 2.77 0a5.52 5.52 0 0 0-2.67-2.98v-.35A5.43 5.43 0 0 1 15 11.34Z" fill="#C1C1C1"/><path fill-rule="evenodd" d="M11.03 10.88a3.46 3.46 0 0 1-.24.4 10.34 10.34 0 0 1-3.7-3.43c.74-.45 2.6-1.1 4.2-.14a4.05 4.05 0 0 1-.26 3.17ZM10.86 8c.3 1 .04 2-.26 2.61a10.36 10.36 0 0 1-2.8-2.6c.3-.13.7-.25 1.13-.3.62-.09 1.3-.03 1.93.3Z" fill="#006AB5"/></svg>