<!-- by TradingView --><svg xmlns="http://www.w3.org/2000/svg" width="18" height="18"><path fill="#01568C" d="M0 0h18v18H0z"/><path d="M4.83 5.5H6.1l-.25 1.44H7l-.2 1.09H5.63l-.35 2.14c-.16.8.61.84 1.14.65l-.2 1.09c-.32.07-.76.09-.94.09-1.52.03-1.62-1.08-1.48-1.63l.44-2.34H3.5l.19-1.09h.82l.32-1.44zM7.67 7h1.26l-.12.93c.12-.33.58-.98 1.4-.93 1 .07 1.6 1.18 1.35 2.77C11.3 11.35 10.24 12 9.5 12c-.7 0-1.13-.6-1.16-.77L8 13.5H6.62L7.67 7zm1.98 1a.75.75 0 00-.87.61l-.28 1.6a.75.75 0 001.47.26l.29-1.6c.07-.4-.2-.8-.61-.86zm2.88-1H14l-.83 5h-1.5l.86-5z" fill="#fff"/><path d="M12.63 5.9v.57a1.96 1.96 0 001.28-.48l1.51-1.8c.1-.13.18-.33-.27-.04-.45.3-1.88 1.26-2.52 1.75z" fill="url(#aiqesoxhn)"/><defs><linearGradient id="aiqesoxhn" x1="15.5" y1="4" x2="12.54" y2="6.17" gradientUnits="userSpaceOnUse"><stop stop-color="#0E6C2E"/><stop offset=".35" stop-color="#72BC51"/></linearGradient></defs></svg>