<!-- by TradingView --><svg xmlns="http://www.w3.org/2000/svg" width="18" height="18" viewBox="0 0 18 18" fill="none"><path fill="#F0F3FA" d="M0 0h18v18H0z"/><ellipse cx="9" cy="9" rx="4" ry="3" fill="#D4CFCF"/><path d="M9.35 10.18c.12.07.2.18.38.21.08.02.14-.04.2-.05.05 0 .1-.04.14-.04.04 0 .07.02.12.04.06.02.12.1.17.13.07.04.14.08.25.07.07 0 .11-.03.16-.06.05-.04.13-.18.26-.18.22 0 .6.24.6.24l.44-.24h.55c-.11.18-.21.27-.27.34H8.48l.63.48-1.6.24v.18l-.78-.08c-.3-.12-.52-.3-.73-.47a2.78 2.78 0 0 1-.5-.56l1.23-1.16 1.15.74s.04.3.18.38l.04.02c.08.05.1.03.37-.02s.23-.09.32-.13c.09-.04.18-.22.32-.28.05.02.18.17.24.2Z" fill="#615A4C"/><path d="M9.02 12a4.4 4.4 0 0 0 3.45-1.5H8.28l.74.56-1.63.28-.07.18-.71-.12c.63.35 1.44.6 2.41.6Z" fill="#A29C79"/><path d="m5.14 8.63-.14.2v.42c.1.7.47 1.19.57 1.29.07.07.35.27.6.44l.6.11.19-.33-.42-.49v-.8l.42.53h.16l.17-.2.35.06-.17-.29v-.92l-.23-.13-.28-.24L6.68 8l-.22.24h-.12l-.14.08h-.28l-.32.31h-.46Z" fill="#343235"/><path d="m10 7 .23.72H11l-.62.43.24.73-.62-.46-.62.46.24-.73L9 7.72h.75L10 7Z" fill="#5A2D1A"/><path d="M15.65 9c0 3.07-2.92 5.65-6.65 5.65-3.73 0-6.65-2.58-6.65-5.65 0-3.07 2.92-5.65 6.65-5.65 3.73 0 6.65 2.58 6.65 5.65Z" stroke="#752839" stroke-width=".7"/><path d="M11.59 7.6h.34v.21h-.01l.28 1.54h.18v.3h-.14l.17.92c-.41.47-.9.84-1.57 1.1-.68.24-.01 0-.01 0l.41-2.02h-.17v-.3h.22l.3-1.54V7.6Z" fill="#3D3B3F"/><path d="M14.3 9.01c0 2.33-2.3 4.29-5.29 4.29-3 0-5.31-1.96-5.31-4.29S6.02 4.7 9.01 4.7c3 0 5.29 1.98 5.29 4.31Z" stroke="#716A68" stroke-width=".6"/></svg>