<!-- by TradingView --><svg width="18" height="18" viewBox="0 0 18 18" xmlns="http://www.w3.org/2000/svg"><path fill="#F0F3FA" d="M0 0h18v18H0z"/><path d="M10.43 11.07c-2.4 0-3.95-.71-4.43-1.07 1.14 1.83 3.86 2 4.33 2 .48 0 .67-.23.67-.47 0-.23-.29-.46-.57-.46Z" fill="url(#amqrqbehk)"/><path d="M6.1 10.08A6.16 6.16 0 0 0 11 11.6c-.04.2-.24.39-.67.39-.47 0-3.19-.17-4.33-2l.1.08Z" fill="#083782"/><path d="M9.48 13.06c-1 .03-2.07-.7-2.48-1.06.62 1.6 2 2 2.38 2 .38 0 .62-.2.62-.45 0-.24-.33-.49-.52-.49Z" fill="url(#bmqrqbehk)"/><path d="M9.99 13.63c-.12.03-.37.08-.51.08-.18 0-1.38-.2-2.35-1.6L7 12c.62 1.6 2 2 2.38 2 .34 0 .56-.16.61-.37Z" fill="#083782"/><path d="M7 8.86c-1.28 0-1.87-.35-2-.52.96 2.06 4.7 1.78 6.46 1.38.18-.02.54-.21.54-.86S11.54 8 11.31 8c-.9.29-3.04.86-4.32.86Z" fill="url(#cmqrqbehk)"/><path d="M11.98 8.65c-.48.42-1.65 1.02-3.75 1.02-1.4 0-2.45-.56-3.13-1.13 1.1 1.84 4.66 1.56 6.36 1.18.18-.02.54-.21.54-.86 0-.08 0-.15-.02-.21Z" fill="#083782"/><path d="M4 7.24C4 6.5 6.6 6.1 7.82 6c-1.43.14-2.64.76-2.64.93 0 .17.37.2.57.2 2 0 6.86-2.13 7.27-2.13.4 0 .98.24.98.8 0 .43-.38.7-.57.79C11.63 7.06 7.69 8 6.2 8 4.37 8 4 7.52 4 7.24Z" fill="url(#dmqrqbehk)"/><path d="M4 7.19v.05c0 .28.37.76 2.21.76 1.48 0 5.43-.94 7.22-1.41.19-.08.57-.36.57-.8a.7.7 0 0 0-.04-.25c-1.23.74-4.51 2.21-8.24 2.21-.55 0-1.23-.3-1.72-.56Z" fill="#083782"/><defs><linearGradient id="amqrqbehk" x1="11" y1="10.46" x2="6" y2="10.46" gradientUnits="userSpaceOnUse"><stop offset=".43" stop-color="#072D6B"/><stop offset=".62" stop-color="#83A9E4"/><stop offset=".74" stop-color="#8FB5F0"/><stop offset=".89" stop-color="#083782"/></linearGradient><linearGradient id="bmqrqbehk" x1="10" y1="12.46" x2="7" y2="12.46" gradientUnits="userSpaceOnUse"><stop offset=".43" stop-color="#072D6B"/><stop offset=".62" stop-color="#83A9E4"/><stop offset=".89" stop-color="#083782"/></linearGradient><linearGradient id="cmqrqbehk" x1="12" y1="8.46" x2="5" y2="8.46" gradientUnits="userSpaceOnUse"><stop offset=".43" stop-color="#072D6B"/><stop offset=".62" stop-color="#83A9E4"/><stop offset=".74" stop-color="#8FB5F0"/><stop offset=".89" stop-color="#083782"/></linearGradient><linearGradient id="dmqrqbehk" x1="14" y1="5.69" x2="4" y2="5.69" gradientUnits="userSpaceOnUse"><stop offset=".43" stop-color="#072D6B"/><stop offset=".62" stop-color="#83A9E4"/><stop offset=".74" stop-color="#8FB5F0"/><stop offset=".89" stop-color="#083782"/></linearGradient></defs></svg>