<!-- by TradingView --><svg width="18" height="18" viewBox="0 0 18 18" xmlns="http://www.w3.org/2000/svg"><path fill="#F0F3FA" d="M0 0h18v18H0z"/><path fill-rule="evenodd" d="M9 14.65a5.65 5.65 0 1 0 0-11.3 5.65 5.65 0 0 0 0 11.3ZM9 15A6 6 0 1 0 9 3a6 6 0 0 0 0 12Z" fill="#838387"/><path fill-rule="evenodd" d="M9 14A5 5 0 1 0 9 4a5 5 0 0 0 0 10Zm.36-7.86a.36.36 0 1 1-.72 0 .36.36 0 0 1 .72 0Zm.71 1.07a.36.36 0 1 1-.71 0 .36.36 0 0 1 .71 0ZM7.83 8l-.26-.15-.36.72v.26h.19a.8.8 0 0 1 .5-.48h.74v3.1c0 .12-.1.2-.23.2H8V12h2v-.35h-.42c-.12 0-.22-.08-.22-.2v-3.1h.75c.27 0 .43.32.47.48h.2v-.26l-.36-.72-.2.15H7.83Zm.81-.79a.36.36 0 1 1-.71 0 .36.36 0 0 1 .71 0Z" fill="#00396D"/></svg>