<!-- by TradingView --><svg width="18" height="18" xmlns="http://www.w3.org/2000/svg"><path fill="#571F10" d="M0 0h18v18H0z"/><path d="M10.712 4.199c.584 0 .855-.057 1.059-.1.19-.056.298-.099.556-.099.53 0 1.678.726 1.678 2.263 0 .711-.353 1.18-1.046 1.18-1.18 0-1.167-1.678-1.86-1.678-.529 0-.474.768-.474.881v4.368c0 1.692 1.375.882 1.375 1.877 0 .44-.384 1.109-2.923 1.109C8.385 14 6 13.987 6 12.891c0-.753.688-.455.96-.995.135-.299.19-1.153.203-1.508l.109-3.144c.054-1.494-.23-1.48-.421-1.48-.61 0-.91 1.68-2.01 1.68C4.313 7.443 4 6.93 4 6.418 4 5.209 4.93 4 5.703 4c.095 0 .244.043.502.1.259.042.625.099 1.168.099h3.339z" fill="#fff"/></svg>