<!-- by TradingView --><svg width="18" height="18" viewBox="0 0 18 18" xmlns="http://www.w3.org/2000/svg"><path fill="#F0F3FA" d="M0 0h18v18H0z"/><path d="M14.96 9.92h-.02l-.01.02-.05.08c-.24.44-.6.7-1.12.76-.46.04-.85-.11-1.14-.48a1.9 1.9 0 0 1-.37-.97 3.42 3.42 0 0 1 0-.81c.03-.31.13-.61.28-.89.27-.47.8-.66 1.3-.45.26.11.48.3.63.53a2.55 2.55 0 0 1 .32.64c0 .03.01.06.07.05v-.05a246.9 246.9 0 0 0-.04-1.32c-.06.04-.1.1-.14.15a.45.45 0 0 1-.1.13h-.04a1.72 1.72 0 0 0-1.3-.27 1.9 1.9 0 0 0-1.47 1.06 2.16 2.16 0 0 0-.1 1.7c.12.36.35.67.67.88a2.04 2.04 0 0 0 1.59.25c.53-.14.86-.5 1.08-.97a.23.23 0 0 0-.02-.03h-.02ZM3.08 8.02 3 8v-.98L3.14 7H6.5v1c-.05 0-.06-.02-.07-.05v-.01a2.26 2.26 0 0 0-.44-.74.33.33 0 0 0-.23-.11h-.3l-.32-.01H5v3.49c0 .19.14.28.32.32l.17.03.1.02a.6.6 0 0 1 .09.03l-.02.02-.02.01H3.9l-.03-.04.08-.02.12-.02.19-.03c.05 0 .1-.04.14-.08.06-.07.1-.21.1-.3V7.2l-.01-.06-.02-.06a.61.61 0 0 0-.1-.01h-.55a.4.4 0 0 0-.18.05.42.42 0 0 0-.15.12c-.14.19-.26.4-.35.61L3.1 8Zm6.37.92h.01l.09.02c.16.03.32.08.46.17a.72.72 0 0 1 .31.46l.18.82c0 .05.02.1.04.14a.25.25 0 0 0 .2.18h.12a.26.26 0 0 0 .11-.08c.06-.07.1-.15.12-.23l.04-.26.02-.1h.03v.01c.02.02.02.03.02.05a1 1 0 0 1-.16.64.62.62 0 0 1-.49.24c-.32.02-.54-.13-.66-.45a2.9 2.9 0 0 1-.12-.57c-.01-.2-.06-.4-.13-.57a.67.67 0 0 0-.24-.32.6.6 0 0 0-.38-.09h-.51v1.59c0 .19.14.28.32.32l.13.01.08.02a.4.4 0 0 1 .07.02v.02a.17.17 0 0 1-.05.02h-1.6v-.03a.18.18 0 0 1 .05-.03l.1-.01.12-.02c.19-.03.27-.13.27-.33V7.42c0-.18-.06-.26-.23-.31l-.16-.04-.08-.01a.12.12 0 0 1-.07-.04.2.2 0 0 1 .06-.02h1.86c.25 0 .5.06.71.18.11.06.2.15.28.25a.82.82 0 0 1-.12 1.06c-.2.2-.45.3-.7.37a.63.63 0 0 0-.1.05v.03Zm-.94-.07h.09l.03.01h.16c.13 0 .26 0 .38-.02.3-.05.52-.22.62-.54.05-.2.05-.41 0-.61-.08-.4-.34-.62-.72-.62h-.41l-.15.01v1.77Z" fill="#234D71"/></svg>