<!-- by TradingView --><svg width="18" height="18" viewBox="0 0 18 18" xmlns="http://www.w3.org/2000/svg"><path fill="#F0F3FA" d="M0 0h18v18H0z"/><path d="M8.5 4a.2.2 0 0 1 .18.1c.28.57 1.06.88 1.96 1.23l.32.12.1.04c1.4.56 2.94 1.35 2.94 3.5 0 2.21-1.61 2.99-3.04 3.55l-.09.04-.23.09c-.9.35-1.68.66-1.96 1.23a.2.2 0 0 1-.26.09.15.15 0 0 1-.1-.09.17.17 0 0 1 0-.13c.34-.7 1.23-1.04 2.17-1.4l.04-.02.09-.04.04-.01.14-.06.13-.05.1-.04c.77-.31 1.53-.7 2.03-1.35-.71.7-1.83 1.04-2.9 1.34l-.11.03-.11.03-.13.04c-1.15.32-2.22.64-2.6 1.33a.17.17 0 0 1-.2.07.12.12 0 0 1-.09-.07.14.14 0 0 1 0-.12c.44-.8 1.57-1.13 2.78-1.47l.14-.04.7-.2.1-.03.1-.03A4.52 4.52 0 0 0 13 10.4c-.6.61-1.64.92-2.75 1.17l-.12.02-.73.16c-1.54.3-3 .6-3.5 1.48a.13.13 0 0 1-.17.05.1.1 0 0 1-.07-.06.1.1 0 0 1 .01-.09c.56-.97 2.07-1.27 3.67-1.6l.43-.09.12-.02c1.47-.31 2.8-.67 3.25-1.63-.67.82-2.44 1.08-4.17 1.33l-.14.02-.3.04-.14.03-.14.02c-1.49.23-2.88.52-3.31 1.24a.1.1 0 0 1-.13.03.07.07 0 0 1-.05-.04v-.07c.56-.9 2.32-1.16 4.18-1.43l.2-.03.05-.01.13-.02h.06l.13-.03.13-.02c1.63-.24 3.16-.57 3.52-1.45-.5.7-2.28.9-4.2 1.08l-.22.02-.57.06-.14.02-.15.01c-1.73.18-3.34.43-3.76 1.1a.07.07 0 0 1-.09.03.05.05 0 0 1-.03-.03v-.04c.48-.76 2.24-1 4.08-1.2h.15l.07-.01.21-.02.22-.03.59-.05.13-.02c1.93-.2 3.71-.46 3.71-1.33 0-.87-1.78-1.14-3.71-1.33l-.13-.02-.59-.06c-.07 0-.14 0-.22-.02l-.14-.01-.14-.01-.15-.02c-1.84-.19-3.6-.43-4.07-1.19V6.3c0-.02 0-.03.02-.03h.03c.03-.01.05 0 .06.02.42.68 2.03.93 3.76 1.1l.15.02.14.02.57.05.07.01.14.02c1.93.18 3.72.38 4.2 1.08-.36-.9-1.92-1.22-3.58-1.47l-.12-.01-.2-.03-.12-.02-.19-.03L8.71 7l-.15-.02c-1.72-.26-3.28-.53-3.8-1.38a.08.08 0 0 1 0-.07c.01-.02.03-.04.05-.04a.1.1 0 0 1 .04-.01.1.1 0 0 1 .09.04c.46.77 2 1.05 3.6 1.28l.22.04.21.03.13.02.14.02.26.03.13.02c1.5.23 2.92.52 3.51 1.24-.47-1-1.89-1.35-3.43-1.67l-.19-.03-.18-.04c-1.6-.33-3.1-.63-3.67-1.6a.1.1 0 0 1 0-.1.1.1 0 0 1 .06-.05l.05-.02c.05 0 .09.03.12.06.49.86 1.86 1.16 3.35 1.46l.15.03.3.06.19.04.12.03c1.2.25 2.34.56 3 1.22-.57-.71-1.58-1.07-2.64-1.38l-.1-.03-.43-.12-.14-.04c-1.21-.34-2.34-.68-2.77-1.48a.14.14 0 0 1 0-.1.12.12 0 0 1 .07-.08.16.16 0 0 1 .07-.01c.06 0 .11.02.15.08.39.72 1.52 1.03 2.72 1.36l.87.26.11.03c.81.26 1.6.58 2.13 1.1a4.99 4.99 0 0 0-2.2-1.4l-.1-.04-.26-.1-.13-.05c-.89-.35-1.71-.7-2.04-1.36a.17.17 0 0 1 0-.13.15.15 0 0 1 .1-.09L8.5 4Z" fill="url(#asbkp4azz)"/><defs><linearGradient id="asbkp4azz" x1="14.5" y1="8.75" x2="6.95" y2="8.7" gradientUnits="userSpaceOnUse"><stop stop-color="#F9A032"/><stop offset=".92" stop-color="#55A196"/></linearGradient></defs></svg>