<!-- by TradingView --><svg width="18" height="18" xmlns="http://www.w3.org/2000/svg"><path fill="#08B47A" d="M0 0h18v18H0z"/><path d="M12.964 4c-.417.07-3.143.392-5.152.947C4.95 5.737 5 8.381 5 9.425v3.531c0 .054.036.055.061.02A31.17 31.17 0 019.104 8.15s.01-.013-.009 0c-.854.296-1.679.688-2.46 1.17v-.448c-.012-1.8.947-2.286 2.082-2.638.932-.286 2.67-.45 2.67-.45s-.14 1.121-.327 3.406C10.932 10.853 9.824 11 8.28 11h-.87c-.694 1.108-.787 1.995-.787 1.995h1.704c3.245 0 3.97-1.583 4.126-3.924.195-2.976.466-4.702.547-5.027a.036.036 0 00-.006-.032.03.03 0 00-.014-.01.028.028 0 00-.015-.001z" fill="#fff"/></svg>