<!-- by TradingView --><svg width="18" height="18" xmlns="http://www.w3.org/2000/svg"><circle cx="9" cy="9" r="9" fill="#F6F8FD"/><path d="M18 0H0v8h1.605a7.394 7.394 0 0114.643 0H18V0z" fill="#1C4379"/><path d="M1.597 10H0v8h18v-8h-1.744a7.394 7.394 0 01-14.66 0z" fill="#020910"/><circle cx="9" cy="9" r="6.429" fill="#030A11"/><circle cx="9" cy="9" r="5.464" fill="#FDFCFC"/><path d="M8.728 8.525c0 .238-.044.476.075.714.045.105 0 .224-.015.328-.134.715-.208 1.43-.06 2.144.045.238-.044.476-.104.7-.03.104-.134.089-.208.104-.075.015-.075-.075-.09-.134-.044-.223.015-.432-.014-.655-.09-.7-.09-1.415 0-2.114.03-.239.074-.492-.06-.73-.03-.06-.045-.164.045-.223.044-.03.015-.06 0-.09-.015-.044-.045-.104-.06-.148-.03-.06.06-.194-.06-.194-.133 0-.267.06-.327.179-.03.06-.015.134-.12.119-.103-.015-.178-.06-.208-.164a.457.457 0 01.15-.447c.059-.06.133-.119.208-.134.253-.03.387-.208.52-.387.15-.193.194-.193.418-.074.03.015.044.03.074.015.551-.268 1.162-.387 1.742-.536a3.326 3.326 0 011.578-.015c.09.015.179.045.194.164.015.044.044.089.074.134.209.312.194.565-.074.833-.045.03-.09.09-.09.134-.014.134-.059.209-.208.224-.045 0-.074.044-.09.089-.014.03-.029.074-.044.074-.268.03-.342.328-.58.402-.15.045-.313.134-.388.298-.014.045-.06.045-.089.045-.342.045-.58.283-.893.387-.09.03-.045.074-.015.12.074.118.193.193.313.267.134.104.268.208.327.372.03.06.06.06.104.06a.379.379 0 01.358.164c.119.134.268.178.446.178.194-.015.387 0 .566 0 .313 0 .58-.134.849-.297.178-.105.387-.164.55-.313.06-.045.12-.075.12-.179 0-.06.06-.09.119-.09.089 0 .06.075.06.12.014.223-.105.387-.254.536-.09.09-.178.164-.253.268a.46.46 0 01-.342.149c-.105-.015-.179.015-.194.119-.015.09-.074.104-.149.119-.402.104-.804.09-1.206.12-.119.014-.283-.105-.431-.18-.03-.014-.045-.044-.09-.06-.55-.207-.982-.595-1.4-.982-.118-.104-.238-.149-.401-.089-.105.045-.224.074-.298-.03-.075-.104-.045-.223.015-.327.09-.194.298-.283.461-.417.03-.03.09-.015.134.03.03.044.045.134.105.104.134-.06.297.015.402-.12.044-.044.074-.104.148-.118.328-.06.596-.239.864-.432a1.66 1.66 0 01.357-.194c.358-.134.58-.417.849-.67.134-.119.06-.253-.075-.372-.372-.298-.804-.179-1.206-.149-.565.06-1.101.268-1.622.462a.905.905 0 00-.268.134c-.15.089-.268.178-.224.387.015.074-.015.164-.015.268z" fill="#C92631"/><path d="M6.54 11.95c.134-.18-.03-.373-.03-.566 0-.164-.03-.328.09-.462.044-.045.03-.12.014-.179-.134-.536-.044-1.072.06-1.593.044-.253.015-.491-.015-.73-.03-.237-.06-.476-.03-.729 0-.044.03-.09-.03-.119-.044-.03-.074.015-.104.03-.223.104-.432.208-.655.313a.35.35 0 01-.119.03c-.253-.045-.447.074-.655.193-.12.06-.313-.015-.357-.149a.327.327 0 01.089-.357c.06-.045.134-.09.193-.09.358.03.67-.163 1.013-.208.313-.03.58-.179.685-.506.044-.134.149-.15.268-.09.312.15.58.105.848-.134.045-.044.09-.03.134-.03a.554.554 0 00.343-.074c.402-.208.848-.283 1.295-.387.134-.03.253-.149.402-.119.06.015.134-.03.149.06.015.074 0 .134-.075.163-.074.03-.134.075-.208.105-.372.134-.76.223-1.102.416-.223.134-.461.164-.685.268-.238.105-.446.239-.714.283-.09.015-.12.06-.134.134-.015.209.044.447-.104.64-.015.015 0 .03 0 .06.134.655-.06 1.295-.03 1.95.015.313-.09.64-.09.953-.014.268-.06.536-.06.804 0 .12 0 .238-.059.343-.03.074-.074.149-.163.134-.09-.015-.134-.075-.15-.164 0-.045 0-.104-.014-.194z" fill="#C92631"/></svg>