<!-- by TradingView --><svg width="18" height="18" viewBox="0 0 18 18" xmlns="http://www.w3.org/2000/svg"><path fill="#F0F3FA" d="M0 0h18v18H0z"/><path d="m9.57 3 .14.48h.46l-.37.3.14.48-.37-.3-.38.3.14-.48-.37-.3h.46L9.57 3Zm-.12 2.94L7 7.06l2.51-.74v.16L7.13 7.6l2.43-.76v-.27l2.38 1.1-2.43-.74v.18L7.13 8.24l2.43-.76V7.2l2.38 1.08-2.43-.72v.2L7.13 8.9l2.43-.76v-.3l2.38 1.1-2.43-.75v.22L7.13 9.52l2.43-.76v-.33l2.38 1.11L9.5 8.8V9l-1.7.85.11.05 1.63-.5v-.34l2.39 1.12-2.43-.74v.23l-1.03.49.27.13.81-.25v-.32l2.38 1.09-2.43-.74v.23l-.35.18.4.2v-.33l2.38 1.1-2.43-.74v.25l2.43 1.11-2.43-.73v.25l2.43 1.11-2.43-.73v.25l2.43 1.12-2.43-.74v.25L12 14V7.04l-2.4-.72V4.88a.16.16 0 0 0 .13-.15.15.15 0 0 0-.15-.16.15.15 0 0 0-.15.16c0 .03 0 .06.02.08v1.13ZM7 9.77l-2 1.02 2-.66v.24l1.95 1.01L7 10.7v.22l1.95 1.03L7 11.26v.23l1.95 1.01L7 11.83v.25l1.95 1L7 12.43v.23l2 1.03v-2.87l-2-.68v-.36Zm0 .58-2 1.02 2-.66v-.36Zm-2 1.59 2-1.02v.36l-2 .66Zm2-.46L5 12.5l2-.66v-.36Zm-2 1.6 2-1.01v.36l-2 .66Zm2-.45-2 1.02 2-.66v-.36Zm.99-7.43-.15-.47-.15.47h-.47l.38.28-.14.47.38-.29.38.3-.14-.48.38-.28h-.47Zm3.27-.46.15.46h.47l-.38.3.14.46-.38-.29-.38.29.15-.47-.38-.29h.47l.14-.46Z" fill="#04A6DF"/></svg>