<!-- by TradingView --><svg xmlns="http://www.w3.org/2000/svg" width="18" height="18" viewBox="0 0 18 18"><path fill="#F0F3FA" d="M0 0h18v18H0z"/><path fill-rule="evenodd" d="M8.06 6.1A1.93 1.93 0 0 0 9.31 4L9 4a5 5 0 1 0 .87 9.93c.7-2.31.57-6.08.4-7.7.78 2.3.8 5.21.72 6.38l-.9 1.27a5 5 0 0 0-.77-9.87c1.13 2.52-1.73 4.04-3.17 4.31a9.5 9.5 0 0 0 2.67-2.29l-.76.06Zm1.89.04c-.13.77-1.01 2.51-3.53 3.3a4.3 4.3 0 0 0 2.79-1.11 10.5 10.5 0 0 1-4.02 2.75c.7-.08 2.33-.44 3.3-1.27-.1.2-.5.71-1.25 1.27a4.71 4.71 0 0 0 2.71-4.94Zm-2.2 5.7c1.35-.6 2.08-2.27 2.27-3.04.13.68.05 1.35 0 1.6a3.36 3.36 0 0 1-2.26 1.44Z" fill="url(#a1xniyrtq)"/><defs><linearGradient id="a1xniyrtq" x1="4" y1="9" x2="14" y2="9" gradientUnits="userSpaceOnUse"><stop stop-color="#07350C"/><stop offset="1" stop-color="#429A3A"/></linearGradient></defs></svg>