<!-- by TradingView --><svg width="18" height="18" viewBox="0 0 18 18" xmlns="http://www.w3.org/2000/svg"><path fill="#F0F3FA" d="M0 0h18v18H0z"/><path d="M9.81 7.17c-.56-.68-1.53-1.14-3.05-.56C4.83 7.35 4.5 9.6 4.6 11.4a4.98 4.98 0 0 1-.07-.11L3 8.87l1-.03a5.01 5.01 0 0 1 10 .15c0 .72-.15 1.4-.43 2.02l-4.6.92.01-.93H9a2 2 0 0 0 .81-3.83Z" fill="#120D41"/><path d="M11.14 4.47 12 3c-.47.12-1.04.3-1.61.5-.6.2-1.2.39-1.68.5 1.86.85 3.42 2.13 3.42 3.86 0 2.17-1.25 2.83-2.3 2.96A2 2 0 0 1 7 9a2 2 0 0 1 .23-.93l-.75-.32-.98 4.83a5 5 0 1 0 5.64-8.1Z" fill="#273A8B"/><path d="M13.56 11.04v.01l.02-.02-.81 2.97-.87-.94c-.82.58-1.8.94-2.88.94a5.07 5.07 0 0 1-4.45-2.65C4.44 9.33 5 6.34 8.14 6.34c1.24 0 1.87.49 2.15 1.13a2 2 0 0 0-3.22 1c-.22.28-.43.7-.43 1.2 0 1.06 1.04 3.07 3.2 3.07 1.57 0 2.79-.75 3.5-1.46l.13-.13.09-.11Z" fill="#13A89E"/></svg>