<!-- by TradingView --><svg width="18" height="18" viewBox="0 0 18 18" xmlns="http://www.w3.org/2000/svg"><path fill="#F0F3FA" d="M0 0h18v18H0z"/><path d="M9.5 4h.5s.49.01.5.77v3.07h-1V4Z" fill="#0E88CA"/><path d="m9.5 7.4 2.84-1.66s.98-.59 1.34-.11c.26.34.32.52.32.52l-3.63 2.12s-.87.42-.87-.1V7.4Z" fill="#29B3DF"/><path d="m4.64 6.48-.3.5s-.32.56.36.95c.67.4 2.75 1.54 2.75 1.54L8.1 8.4 4.64 6.48Z" fill="#5E6D70"/><path d="M7.68 8.17 4.81 9.68s-1.02.53-.77 1.06c.18.39.3.53.3.53l3.73-1.98s.77-.47.32-.73l-.7-.39Z" fill="#9DB9BE"/><path d="M9 14h-.33S8 13.99 8 13.23v-3.07h1V14Z" fill="#5EB34F"/><path d="m9 10.6-2.7 1.66s-.96.59-1.3.11a2.25 2.25 0 0 1-.32-.52l3.53-2.12s.79-.42.79.1v.78Z" fill="#A5C64A"/><path d="M9 4h-.33S8 4.01 8 4.77v3.07h1V4Z" fill="#EB5B28"/><path d="M9 7.4 6.3 5.73s-.96-.59-1.3-.11c-.26.34-.32.52-.32.52l3.53 2.12s.79.42.79-.1V7.4Z" fill="#F9B03B"/></svg>