<!-- by TradingView --><svg width="18" height="18" viewBox="0 0 18 18" xmlns="http://www.w3.org/2000/svg"><path fill="#F0F3FA" d="M0 0h18v18H0z"/><path d="M4.67 7.64c.11-.5-.15-1.3-.3-1.63-.24-.73.26-1.05.44-1.14.18-.08 1.57-.45 1.9-.57.34-.13.5-.42.61-.5.12-.07.42-.23.77-.4.34-.18.61-.4.93-.4.32 0 .66.3.84.4l1.23.75c.46.27 2.08.76 2.58.96.4.16.36.82.29 1.12-.19 1.18-.57 3.69-.64 4.31a4.65 4.65 0 0 1-1.1 2.03c-.11.06-.64.7-.83.9-.18.2-.41.27-.59.36-.18.08-.34.37-.57.54-.23.16-.58.23-.71.31-.13.09-.37.32-.6.32-.24 0-.49-.28-.6-.4-.13-.12-.26-.1-.51-.23a10.5 10.5 0 0 1-1.35-.9c-.7-.53-.32-.4-1.16-1.22a5.71 5.71 0 0 1-1.3-1.7v-1.5c0-.68.54-.8.67-1.41Z" fill="#C32A2B"/><path d="M9.86 8.35h.38c-.14-.05-.4-.16-.28-.16h.66c.05 0-.36-.09-.57-.13l.8-.05-.8-.11.6-.06-.99-.21.55-.06-.3-.13.3-.04-.4-.11c.13 0 .37-.01.4-.04l.13-.1-.38-.11c.07-.08.25-.24.38-.26.17-.02.19.07.12.12a.5.5 0 0 0-.12.1c.13-.03.4-.1.45-.13.04-.05.12-.1.15-.13h.28l-.16.16c.1-.05.3-.16.35-.16.06 0 .2.04.16.04-.03 0-.25.1-.28.16-.02.03-.02.03.03.02.04 0 .12-.02.28-.02h.48c.08 0 .23-.07.14-.07a.92.92 0 0 1-.3-.1h.36l.08.01c.09 0 .15 0 .05-.04l-.17-.05c-.12-.04-.22-.07-.02-.06.3.02.54-.04.59-.08l.19-.2c-.06-.07-.19-.2-.26-.18l-.46-.03C11.65 6.09 10.5 6 9.58 6H6.52c-.11 0-.54.06-.52.56v.14c.02.49.04 1.07.2 1.6.19.6.44.71.8.72.27 0 .67-.06.83-.09v.24c0 .04-.05.13-.11.07-.07-.07-.16-.04-.13.11v.1c.02.07.02.08 0 .1l-.05.02c-.05.01-.1.02-.1.1v.19l.01.06c.02.04.04.08.02.12a.45.45 0 0 1-.08.1l-.06.07c0 .05.02.06.04.07.01 0 .03.01 0 .09-.06.13-.07.15-.07.23v.1c-.02.1-.04.25 0 .29l.03.02c.05.04.09.06.04.15-.07.1-.13.34-.14.5 0 .08.02.17.04.26l.03.16v.01c0 .1 0 .3.08.47.09.18.23.4.3.43.05.01.1-.05.13-.1.03.06.11.14.14.1a.43.43 0 0 0 .04-.1l.02-.04c.04.01.16.04.16 0 0-.03-.05-.1-.07-.13.03.02.1.04.07-.06l-.06-.36-.01-.09-.03-.36-.02-.26c-.01-.08-.05.36-.06.49a3.6 3.6 0 0 1 0-1.04 9.95 9.95 0 0 1-.15.12c-.02-.01-.03-.02-.05.1-.03.17-.03.2-.07.18-.04-.02-.09-.07-.05-.15a.24.24 0 0 0 .03-.06c0-.02 0-.03.07-.07.1-.06.12-.14.13-.2v-.07l.01-.06c.02-.01.02 0 .02.01 0 .02.01.06.06.09l.04.02c.02.02.03.03.04.02l.02-.05v-.03l.06-.21a1.73 1.73 0 0 1 .06-.26c.02-.07.05-.14.05 0l-.01.17c-.01.06-.02.08.03.05s.07-.1.1-.14l.01-.05h.01s0 .02.05-.03c.1 0 .03.1 0 .15a.1.1 0 0 1-.04.04c-.02 0-.03.01 0 .03.06.04.12-.02.16-.09l.08-.15c.05-.12.12-.26.15-.26.04.01.03.06.02.1v.09c-.01.01-.01.02.02.04.02 0 .03.02.03.04.02.02.03.04.07 0 .08-.04.11-.1.07-.15a.55.55 0 0 0-.03-.03c-.02-.03-.04-.05-.04-.09 0-.02 0-.02-.02-.02-.03 0-.05 0-.02-.08l.04-.13c.02-.09.04-.17.07-.16.03.02 0 .15-.01.23l-.02.06c0 .02.06.04.1-.02.03-.07.03-.07.07-.08.05 0 .12-.02.08-.08-.01-.03.04-.1.1-.15.04-.05.08-.1.07-.12 0-.02-.04-.02-.06-.02l-.04-.01c0-.02.03-.05.06-.1a.88.88 0 0 0 .2-.33l.01-.16c0-.06 0-.1.05-.18.05-.08.1-.14.15-.18.04-.05.08-.08.08-.1l.01-.16Zm-2.62 2.27c-.05 0-.1-.03-.06-.1l.02-.06c0-.02 0-.03.04-.05l.04-.03c.02-.02.03-.04.02.03a.76.76 0 0 1-.06.21Zm.07-.63.02.08c.01 0 .03 0 .04-.02.02 0 .02-.14 0-.18-.01-.04-.02-.02-.04 0l-.02.02c-.02.02-.02.04 0 .07v.03Zm.18-.49v-.09c.03-.04.06-.05.07 0v.09c0 .02-.05.03-.07.03V9.5Zm.13-.37c.02.04.08.03.1.03.01-.05.03-.14 0-.16-.02-.01-.04 0-.08.03l-.04.03c-.05.03-.04.04-.02.05.01 0 .03 0 .04.02Zm.67 3.08a1.03 1.03 0 0 1-.07-.36c.02-.1.03-.15.05-.15l.02-.02c.02-.03.06-.07.07.08l.02.2c.01.12.02.21 0 .24v.01c-.03.05-.08.12-.1 0Zm-.08-.73c0 .03.04.04.14.07.03-.02.01-.1 0-.16v-.05c0-.04-.14-.02-.2.02-.04.02 0 .05.02.08l.04.04Zm.11-.51c-.02 0-.03 0-.02-.04v-.04c0-.02 0-.03.04-.05l.03-.01c.05-.02.08-.04.07.01l-.03.06c-.02.02-.03.03 0 .03a.1.1 0 0 1 .06.01c.02.01.03.02.07-.04a.7.7 0 0 0 .05-.14c.02-.07.04-.12.06-.1.04.01.04.07.02.13v.03c0 .04-.01.08-.05.11a.38.38 0 0 1-.03.03c-.03.02-.05.04-.05.08 0 .03 0 .06.02.1.01.03.03.07.01.1-.02.06-.1.1-.15.04-.05-.05-.06-.1-.05-.17v-.13l-.05-.01Z" fill="#F0F3FA"/></svg>