<!-- by TradingView --><svg width="18" height="18" viewBox="0 0 18 18" xmlns="http://www.w3.org/2000/svg"><path fill="#F0F3FA" d="M0 0h18v18H0z"/><path d="M9 3a.5.5 0 0 0-.5.5v.84a.5.5 0 0 0 1 0V3.5A.5.5 0 0 0 9 3Zm-.5 2.65a.5.5 0 0 1 1 0v1.16a.5.5 0 0 1-1 0V5.65Zm-1.33-.19a.5.5 0 0 0-.5.5v2.38a.5.5 0 1 0 1 0V5.96a.5.5 0 0 0-.5-.5ZM5 9.04a.5.5 0 0 1 1 0v.54a.5.5 0 1 1-1 0v-.54Zm8 0a.5.5 0 1 0-1 0v1.15a.5.5 0 0 0 1 0V9.04Zm-7.5 1.65a.5.5 0 0 0-.5.5v1.15a.5.5 0 0 0 1 0V11.2a.5.5 0 0 0-.5-.5Zm7.5 1.12a.5.5 0 1 0-1 0v.53a.5.5 0 0 0 1 0v-.53Zm-1.67-5.85a.5.5 0 0 0-1 0v3.3a.5.5 0 1 0 1 0v-3.3ZM7.17 9.19a.5.5 0 0 0-.5.5v4.45a.5.5 0 0 0 1 0V9.7a.5.5 0 0 0-.5-.5Zm4.16 1.39a.5.5 0 0 0-1 0v3.61a.5.5 0 1 0 1 0v-3.61ZM9 7.6a.5.5 0 0 0-.5.5v6.39a.5.5 0 1 0 1 0V8.1a.5.5 0 0 0-.5-.5Z" fill="#EA3329"/></svg>