<!-- by TradingView --><svg width="18" height="18" viewBox="0 0 18 18" xmlns="http://www.w3.org/2000/svg"><path fill="#F0F3FA" d="M0 0h18v18H0z"/><path d="M6.97 3H10v3h2v2h-2v4.46s-.04.54.48.54H12v2H9.7S7 14.67 7 12.24V8H6V6h1l-.03-3Z" fill="url(#amwrjomls)"/><path d="M10 9.59v2.04c-.25.26-.4.69-.4 1.4 0 .87.64 1.57 1.13 1.97h-.8c-.69-.48-1.56-1.33-1.56-2.58 0-1.4.96-2.36 1.63-2.83Z" fill="#6C91A5"/><path d="M10 8.5V9c-.57.2-2.12.78-3 1.9V10c.53-.4 1.4-1 3-1.5Z" fill="#5F889E"/><defs><linearGradient id="amwrjomls" x1="6.45" y1="2.4" x2="11.7" y2="15.75" gradientUnits="userSpaceOnUse"><stop stop-color="#046"/><stop offset="1" stop-color="#3E6F87"/></linearGradient></defs></svg>