<!-- by TradingView --><svg width="18" height="18" xmlns="http://www.w3.org/2000/svg"><path fill="#F0F3FA" d="M0 0h18v18H0z"/><path d="M5.252 11.086s-.53-1.338.581-1.778c1.107-.439 1.312-.916.083-2.025-1.234-1.115-1.311-3.434.88-3.275 2.423.175 2.042 2.324 2.026 2.782-.017.458-.183 2.289 1.128 2.183 1.312-.106 1.804-2.196 2.009-2.712.266-.669 1.03-1.936 2.424-1.443 1.175.415.365 1.919.066 2.077 0 0 .49-1.311-.59-1.311-1.078 0-1.809 2.43-1.875 2.676-.066.246-.515 2.306-2.025 2.148-1.51-.158-1.594-1.726-1.627-3.433-.033-1.708-.847-2.23-1.627-2.201-.706.026-1.154 1.047.016 2.148 1.075 1.01 1.063 2.2.432 2.694-.63.493-1.469.026-1.9 1.47z" fill="#F57F29"/><path d="M5.211 11.517s.365.88.847.493c.481-.387-.1-1.796-1.577-2.87-1.478-1.074-1.702-1.646-1.312-2.077.537-.594 6.176.158 5.429 6.937l-1.196-.475s.092-3.16-.697-4.156c-.757-.955-1.801-1.717-2.183-1.17-.239.34.656.924 1.088 1.487.431.564 2.091 2.818.896 3.293-1.195.475-1.295-1.462-1.295-1.462zm9.529-4.402s-.042.555-1.56.705c-1.428.14-2.773.193-1.66 2.36 1.112 2.165.232 2.288-.266 2.024-.498-.264-1.98-1.504-.254-4.99H9.49s-1.24 6.152 2.038 6.02c1.377-.055 1.576-1.145.672-2.668-.905-1.523-.233-1.779.863-2.042 1.137-.273 1.66-.44 1.677-1.409z" fill="#008599"/></svg>