<!-- by TradingView --><svg width="18" height="18" viewBox="0 0 18 18" xmlns="http://www.w3.org/2000/svg"><path fill="#F0F3FA" d="M0 0h18v18H0z"/><path d="m7.59 8.47.15-.88h2.51l.16.88h-.16c-.02-.35-.3-.53-.47-.53h-.31c-.13 0-.12.12-.12.18v2.12c0 .14.25.29.36.35v.17H8.29v-.17c.25 0 .36-.24.36-.35V8.12c0-.14-.07-.18-.12-.18h-.31c-.26 0-.42.35-.48.53H7.6Z" fill="#005432"/><path fill-rule="evenodd" d="M9 14A5 5 0 1 0 9 4a5 5 0 0 0 0 10Zm0 1A6 6 0 1 0 9 3a6 6 0 0 0 0 12Z" fill="#005432"/><path fill-rule="evenodd" d="M9 12a3 3 0 1 0 0-6 3 3 0 0 0 0 6Zm0 1a4 4 0 1 0 0-8 4 4 0 0 0 0 8Z" fill="#005432" fill-opacity=".5"/></svg>