<!-- by TradingView --><svg width="18" height="18" viewBox="0 0 18 18" xmlns="http://www.w3.org/2000/svg"><path fill="#F0F3FA" d="M0 0h18v18H0z"/><path d="M8.6 4h.75c2.6.2 4.46 2.3 4.65 4.84a5.57 5.57 0 0 1-.49 2.3l.05-.1c.33-.93.24-1.88 0-2.82a4.37 4.37 0 0 0-6.28-2.81c-.94.49-.67 1.36-.21 2.06a18.27 18.27 0 0 0 2.77 3.22c-.94-.67-1.88-1.34-2.71-2.14-.64-.61-1.38-1.47-1.47-2.38C5.5 4.65 7.49 4.08 8.6 4Z" fill="#595A5C"/><path d="M10.05 10.73A14.7 14.7 0 0 1 8.8 9.41a8.9 8.9 0 0 1-1.48-2.39c-.14-.36-.21-.77.1-1.07a1.74 1.74 0 0 1 .78-.37.02.02 0 0 1 .01.01c.02.33.03.68.07.98a10.96 10.96 0 0 0 1.76 4.16ZM7.32 9a28.57 28.57 0 0 0 2.17 1.58c-.86-.38-1.71-.8-2.57-1.22-.35-.18-.7-.38-1.04-.58a4.68 4.68 0 0 1-.73-.53c-.56-.52-.52-1.27-.25-1.94a.01.01 0 0 1 .02 0 9.39 9.39 0 0 0 2.4 2.68Z" fill="#1893D0"/><path d="m8.85 10.4.1.03v.01c-1.05-.18-2.08-.36-3.13-.62-.42-.1-.92-.27-1.26-.54-.5-.4-.6-.97-.54-1.6a.01.01 0 0 1 .02 0c.61.84 1.46 1.37 2.4 1.78.82.36 1.6.65 2.41.94ZM9.99 9c.5.22 1.09.37 1.3.96.07.17.1.38.11.6l.01.03 1.15 1.3c.05.06.04.07-.03.03l-2.22-1.28c-.19-.1-.3-.24-.42-.43a9.85 9.85 0 0 1-.8-1.88c.25.3.55.51.9.67Z" fill="#1893D0"/><path d="M4 9.7a20.11 20.11 0 0 0 4.28.73l-3.03.37v.01a4.36 4.36 0 0 0 3.81 2.81 4.9 4.9 0 0 0 3.44-1.02A5.14 5.14 0 0 1 9.61 14H8.4l-.14-.01A5 5 0 0 1 4 9.79v-.1Z" fill="#595A5C"/></svg>