<!-- by TradingView --><svg width="18" height="18" xmlns="http://www.w3.org/2000/svg"><path fill="#0C3175" d="M0 0h18v18H0z"/><path d="M8.374 9.313h-.548c-.135 0-.245-.177-.245-.313h-.342c0 .114.032.282.089.372h-.056c-.17 0-.309-.202-.309-.372h-.342c0 .17.071.436.186.5-.115.17-.186.331-.186.5h.342c0-.17.139-.369.309-.369h.056a.8.8 0 00-.089.37h.342c0-.136.11-.313.245-.313h.548v-.375zm1.876 2.29V11h-.937V7h.377c1.064 0 1.064.673 1.064 1h.434V6.506H6.813V8h.433c0-.31-.037-1 1.064-1h.378v4H7.75v.602h2.5zM10.875 9h-.313v.306h-.937v.389h.938V10h.312a.5.5 0 01.46-.331V9.33a.5.5 0 01-.46-.331zM9 4.54A4.46 4.46 0 109 13.46 4.46 4.46 0 009 4.54zM14 9a5 5 0 11-10.001-.001A5 5 0 0114 9z" fill="#fff"/></svg>