<!-- by TradingView --><svg xmlns="http://www.w3.org/2000/svg" width="18" height="18"><path fill="#F0F3FA" d="M0 0h18v18H0z"/><path d="M5 7h1V6H3v1h1v3.6c-.02.43.1 1.33 1.23 1.4h3.69c.35 0 .99-.3 1.08-1.23V9.3c0-.09-.03-.36-.22-.47L7.63 7.71c-.05-.03-.14-.12-.13-.18v-.34c.01-.06.07-.19.22-.19H11v5h1V9.5h1.5V12h1.27a.92.92 0 01-.27-.6V9.64c0-.14-.05-.5-.37-.73.15-.15.45-.46.45-.82V6.87c-.02-.27-.46-.85-1.22-.87H7.72c-.36 0-1.14.18-1.22 1.05v.74c-.01.15.11.5.51.73l1.85.91c.06.04.15.14.14.28v1c0 .07-.1.25-.48.29h-3.2c-.11 0-.33-.1-.32-.4V7zm7 0h1.62v1.5H12V7z" fill="#0055A6"/></svg>