<!-- by TradingView --><svg xmlns="http://www.w3.org/2000/svg" width="18" height="18"><path fill="#F0F3FA" d="M0 0h18v18H0z"/><path d="M9.11 3.11c-.9 0-1.51.83-1.57 1.15a2.1 2.1 0 011.57-.8c.74.03 1.31.72 1.5 1.08-.2-1.1-1-1.43-1.5-1.43z" fill="url(#agqaiu0zb)"/><path d="M9.08 3.11c.2-.14.69-.26 1.04.42a1.56 1.56 0 00-1.04-.42z" fill="#CC1127"/><path d="M7.43 4.86c.01.2.18.36.26.4.03-.34.34-1.05 1.32-1.09 1-.04 1.42.78 1.5 1.19.24-.25.2-.63.15-.79-.23-.38-.86-1.15-1.58-1.14-.9 0-1.47.71-1.54.8-.06.06-.07.22-.06.3.01.04.03.14 0 .2a.44.44 0 00-.05.13z" fill="url(#bgqaiu0zb)"/><path d="M7.77 5.68c-.05-.1-.08-.31-.09-.4 0-.4.43-1.17 1.4-1.15.96.02 1.4.82 1.44 1.2l-.06.27c.02-.35-.18-.75-.29-.9v.38l-.4-.5.15.37-.56-.68.28.54-.28-.39-.06.16c.12.29.58.46.8.5-.37 0-.65-.18-.74-.27l.08.27c-.2-.43-.57-.76-.73-.87l-.52.29c0 .14-.15.32-.23.4l-.08.37h-.11v.41z"/><path fill-rule="evenodd" d="M8.11 5.32c.18-.1.53-.19.86.04l.01.03a.4.4 0 01.29 0l.01-.03a.83.83 0 01.86-.04h.23v.14l-.12.08v.23a.54.54 0 01-.53.38c-.3-.02-.42-.18-.46-.38a.87.87 0 01-.01-.27.26.26 0 00-.25 0c.01.08.02.18 0 .27-.04.2-.17.36-.46.38A.54.54 0 018 5.77v-.23l-.12-.08v-.14h.23zm0 .16c.13-.1.5-.25.8 0v.25a.4.4 0 01-.39.28.41.41 0 01-.41-.28v-.25zm2.03 0c-.12-.1-.49-.25-.8 0v.25a.4.4 0 00.39.29c.26 0 .38-.19.41-.29v-.25z"/><path d="M8.36 11.7c-.13.28-.4.51-.5.58l.92.48.52.23c-.1-.36.06-.7.3-.88.18-.15.46-.12.57-.09-.04-.33-.35-.54-.49-.59l-.62.16c-.06 0-.57.1-.7.1z" fill="#878787"/><path d="M7.39 13.25c-.13-.25-.01-.77.07-1h.4l.96.48c-.3.27-1.1.47-1.43.52z" fill="#878787"/><path fill-rule="evenodd" d="M10.25 13.37c.33-.06.57-.33.57-.64 0-.36-.32-.66-.7-.66-.4 0-.72.3-.72.66 0 .13.04.25.11.35l.64.26a.1.1 0 01.05.02h.05zm-.14-.22c.24 0 .43-.2.43-.43 0-.23-.19-.42-.43-.42a.43.43 0 00-.43.42c0 .24.2.43.43.43z" fill="#646464"/><path d="M10.41 13.41c.73-.33.58-.94.4-1.19.55.07.76.57.84.69.07.09.24.56.33.8a7.32 7.32 0 01-1.57-.3z" fill="#878787"/><path d="M6.53 8.06l.84 2.29-.32.1a.42.42 0 00-.27-.23c-.25-.5-.5-1.41-.47-1.8.02-.3.16-.37.22-.36z" fill="#5F5E5C"/><path d="M8.26 7.1c-.1.06-.32.21-.31.34 0 .16.09.26.37.4.28.16.53.36.53.46l-.9.36.04.14 1.23-.5c.25-.1.93-.55 1.06-.74v.2l.23.09c0-.26-.1-.78-.43-.8.08.07.2.24.07.39-.17.2-.43.5-1.13.8a2.3 2.3 0 00-.5-.4c-.2-.09-.58-.3-.26-.74zm-1.6.46a6.9 6.9 0 011.22-.3c.03.08-.08.24-.75.3a.68.68 0 00-.31.21l-.17-.21zm.83 3.11l.42-3.29-.17 3.29h-.25zm2.81-2.82l.49 2.87h.13c-.33.1-.94.28-1.57.28-.66 0-1.52-.21-1.87-.32l-.12-.35-.32.12v.32c.15 0 .26.06.33.1l.05.02c.11-.02.38.02.56.37.22.43.45.46.68.42.22-.04 1.17-.25 1.5-.37.1-.02.3-.05.4-.05.05 0 .1-.02.16-.05.11-.05.23-.1.34-.02.04-.06.08-.24-.04-.51H11l-.44-2.7-.26-.13zm-3.77 5.6V14h5.1l-.05-.35c-.58 0-2.12-.6-2.8-.92-.6.37-1.37.53-1.67.55-.2-.13-.08-.35 0-.44v-.22c-.24.06-.22.43-.18.6l-.15-.1-.06.33h-.19zM10.9 7.3c.06.02.16.13 0 .34-.2.28.03.2.34.07-.05.09-.1.28.09.35.2.07-.05.7-.2 1 .18-.11.52-.53.43-1.25.02-.17-.08-.51-.66-.51zm.71.48c0-.1.08-.27.4-.15a1.14 1.14 0 01.44.25v.02l-.14.4c-.07.21-.14.42-.15.49a6.29 6.29 0 00-.18.7c-.01.2-.03.46-.17.57.03-.1.08-.41.04-.84l.31-.9.14-.33-.22.11-.47-.32zm.28 2.6c.22.03.74.19 1.1.56.03-.68-.02-2.1-.37-2.37-.06-.01-.1.06.15.41-.01.4 0 1.26.16 1.63-.1-.11-.43-.32-1.04-.23zM5.92 7.94a.7.7 0 01.51-.3l-.25.16c.56-.07.66.12.64.23-.2-.16-.4-.15-.47-.13.34.25.37.53.34.64-.21-.56-.6-.64-.77-.6zm-.43.6zm-.22.6c-.01-.34.11-.52.2-.58-.25.17-.58.62-.09 1.21.26.2.82.69 1.04 1.08-.06-.17-.2-.53-.3-.64.1.03.32.15.48.32.03-.18-.05-.56-.57-.7-.25-.07-.75-.3-.76-.68zM5.2 10.4zm-.04.14c-.06.27-.04.73-.03.95.17-.09.59-.27.9-.25.33.01.5.22.56.32-.12-.13-.5-.13-.68-.11-.1-.04-.34-.09-.49.04-.15.14-.28.15-.32.14-.2-.04-.06-.67.06-1.09zm1.57 2.67c-.2.1-.69.25-1.04.14l.84-.26c-.02-.05-.09-.07-.17-.1a.76.76 0 01-.28-.11c-.27-.05-.78-.24-.6-.6.04.1.2.33.5.34-.09-.14-.18-.43.1-.46-.03.13-.05.4.11.46.02-.27.12-.84.34-.89v.39c-.08.23-.15.77.2 1.1zm4.39-1.67c-.13-.18.05-.3.16-.33l-.05.17c.3-.01.91 0 1.08.16.17.16.44.27.55.3.1-.12-.07-.31-.16-.4.22-.01.2-.07.16-.1.03 0 .1.1.14.35.03.25-.18.2-.3.15a3.55 3.55 0 00-1.58-.3zm-.24.7c.22.06.73.39.96 1.15.04.12.19.37.4.42.06.02.26-.37.15-.47.05.02.34-.18.3-.4l.05-.58c-.11-.2-.6-.56-1.05-.49.15.02.5.16.8.63-.2-.22-.83-.47-1.43-.4.43.08 1.3.37 1.28.9-.24-.32-.88-.9-1.46-.76z"/><defs><linearGradient id="agqaiu0zb" x1="7.81" y1="3.82" x2="10.43" y2="3.82" gradientUnits="userSpaceOnUse"><stop stop-color="#8F1A22"/><stop offset="1" stop-color="#D03C4C"/></linearGradient><linearGradient id="bgqaiu0zb" x1="7.55" y1="4.39" x2="10.69" y2="4.7" gradientUnits="userSpaceOnUse"><stop stop-color="#8F1A22"/><stop offset="1" stop-color="#CB0F25"/></linearGradient></defs></svg>