<!-- by TradingView --><svg xmlns="http://www.w3.org/2000/svg" width="18" height="18"><path d="M0 9a9 9 0 1118 0A9 9 0 010 9z" fill="#F0F3FA"/><path d="M13.63 7.6H4.3a5.5 5.5 0 00-.17 1.02h9.67c-.02-.33-.1-.7-.18-1.02zM4.14 9.03c.01.22.03.43.07.64h9.53c.04-.21.06-.42.07-.64H4.14zm.33 1.57h9c.07-.16.11-.31.16-.48H4.3c.04.17.1.32.16.48zm.47-4.44c-.22.33-.4.7-.53 1.08h9.13A4.93 4.93 0 0013 6.16H4.94zm.27-.36a4.82 4.82 0 017.53 0H5.2z" fill="#0079C1"/><path d="M8.96 5.03l-1.23 6.34L14.05 13l-5.1-7.97z" fill="#F0F3FA"/><path d="M7.73 11.37L14.05 13H3.87l3.86-1.63z" fill="#0079C1"/><path d="M8.96 5.03l-1.23 6.34L3.87 13l5.09-7.97z" fill="#7BACDC"/></svg>