<!-- by TradingView --><svg width="18" height="18" viewBox="0 0 18 18" xmlns="http://www.w3.org/2000/svg"><path fill="#181B1E" d="M0 0h18v18H0z"/><path d="M7.66 9.7c.33.12.67.19 1 .3C7.19 7.94 5.57 6 4 4c2.17 4.83 2.26 4.95 3.02 6.57-.36-.31-.7-.65-1.04-.97-.17-.13-.3-.34-.51-.4-.33-.11-.8-.1-1.14-.2 1.48 1.74 3.14 3.31 4.67 5-.43-1.38-.94-2.9-1.34-4.3ZM10.34 9.7c-.33.12-.67.19-1 .3 1.48-2.06 3.1-4 4.66-6-2.17 4.83-2.26 4.95-3.02 6.57.36-.31.7-.65 1.04-.97.17-.13.3-.34.51-.4.33-.11.8-.1 1.14-.2-1.48 1.74-3.14 3.31-4.67 5 .43-1.38.94-2.9 1.34-4.3Z" fill="#fff"/></svg>