<!-- by TradingView --><svg width="18" height="18" viewBox="0 0 18 18" xmlns="http://www.w3.org/2000/svg"><path fill="#FF2E00" d="M0 0h18v18H0z"/><path d="M10.52 4.94a.45.45 0 0 1-.52-.38.46.46 0 0 1 .39-.52c1.72-.25 3.35.64 3.6 2.44a.46.46 0 0 1-.38.52.45.45 0 0 1-.5-.4c-.2-1.3-1.36-1.83-2.6-1.66Zm-.07.7c0-.26.2-.46.45-.46.78 0 1.6.45 1.8 1.25.06.25-.1.5-.33.56a.45.45 0 0 1-.55-.34c-.1-.39-.55-.56-.92-.56a.45.45 0 0 1-.45-.46Z" fill="snow"/><path d="M7.25 4c.5 0 .75.4.75.9V7h2.1c.5 0 .72.21.72.71s-.23.79-.73.79H8v1.86c0 1.05.3 2.14 1.36 2.14H10c.5 0 1 .21 1 .71s-.4.79-.9.79h-.74c-2.18 0-2.86-1.62-2.86-3.64V8.5h-.6c-.5 0-.9-.28-.9-.79 0-.5.4-.71.9-.71h.6V4.9c0-.5.25-.9.75-.9Z" fill="#fff"/></svg>