<!-- by TradingView --><svg width="18" height="18" xmlns="http://www.w3.org/2000/svg"><path fill="url(#paint0_linear)" d="M0 0h18v18H0z"/><path d="M15.143 9.923a3.262 3.262 0 01-.527.923h-2.638c.172-.285.31-.596.405-.923h2.76zm-3.372 1.23h2.57c-.341.35-.765.66-1.252.924h-2.322a3.592 3.592 0 001.004-.923zm-3.944 1.078a3.05 3.05 0 001.33.308c.472 0 .92-.111 1.329-.308h2.3c-1.016.483-2.27.769-3.627.769-1.357 0-2.612-.286-3.63-.77h2.298zm-.282-.154a3.603 3.603 0 01-1.006-.923H3.97c.344.348.768.66 1.256.923h2.32zm-4.38-2.154c.118.325.297.634.53.923h2.637a3.902 3.902 0 01-.407-.923h-2.76zm12.07-.308H12.46a3.821 3.821 0 00.073-.923h2.747c.018.104.028.207.028.308 0 .21-.025.415-.072.615zm-9.387 0a3.808 3.808 0 01-.079-.769c0-.05.002-.102.006-.154H3.03C3.011 8.797 3 8.9 3 9c0 .21.025.415.073.615h2.775zm-.032-1.23H3.118c.109-.302.292-.615.538-.923h2.486a3.618 3.618 0 00-.326.923zm6.373-.923c.148.304.253.617.307.923h2.706a3.19 3.19 0 00-.508-.923h-2.505zm2.246-.308h-2.411a4.323 4.323 0 00-.303-.445h2.251c.168.144.323.293.463.445zm-8.122 0c.093-.152.196-.301.309-.445H4.538v-.116c-.226.18-.432.369-.614.56h2.39zm.745-.923H5.04c.164-.108.336-.21.514-.308h1.87c-.129.095-.251.198-.367.308zm6.275 0h-2.046a3.889 3.889 0 00-.37-.308h1.9c.18.097.352.2.516.308zm-1.701-.823A7.767 7.767 0 009.154 5c-.861 0-1.68.153-2.425.408h1.719a2.576 2.576 0 011.43 0h1.754z" fill="#fff"/><defs><linearGradient id="paint0_linear" x1="3.349" y1="3.122" x2="21.904" y2="24.434" gradientUnits="userSpaceOnUse"><stop stop-color="#1A1E21"/><stop offset="1" stop-color="#06060A"/></linearGradient></defs></svg>