<!-- by TradingView --><svg width="18" height="18" viewBox="0 0 18 18" xmlns="http://www.w3.org/2000/svg"><path fill="#166373" d="M0 0h18v18H0z"/><path d="M4.77 7.4a5.37 5.37 0 0 0 1.56 2.52c.04.04.07.1.08.15.02.13-.03.21-.15.23-.18.03-.4-.02-.65-.14-.28-.15-.58-.32-.9-.53-.06-.04-.09-.02-.08.05.05.25.13.48.27.68.3.47.69.92 1.15 1.36.09.08.16.2.23.36.02.03.02.07 0 .1a.12.12 0 0 1-.1.07.75.75 0 0 1-.4-.04c-.27-.1-.65-.27-1.13-.49-.16-.07-.24-.02-.24.15v1.05c0 .05-.02.08-.08.08h-.27c-.04 0-.07-.02-.07-.06v-1.2c0-.04-.01-.05-.05-.04-.29.1-.46.17-.52.2-.32.17-.7.26-1.12.27a.25.25 0 0 1-.22-.12c-.06-.1-.05-.18.05-.24.97-.69 1.57-1.35 1.79-2 .07-.2.01-.25-.17-.12-.43.29-.86.45-1.28.48-.45.02-.52-.12-.21-.44l.28-.28c.38-.38.63-.65.74-.82.2-.3.36-.71.52-1.25l-.01-.04h-.05c-.77.52-1.33.72-1.66.6a.12.12 0 0 1-.08-.1c0-.04 0-.08.04-.11a7.64 7.64 0 0 0 1.9-2.46c.05-.1.1-.16.13-.19.15-.11.3-.1.43.02.04.03.06.06.08.1.38.96.92 1.8 1.64 2.54.28.28.22.4-.17.34a2.41 2.41 0 0 1-1.02-.55 4.53 4.53 0 0 0-.2-.17c-.06-.04-.08-.03-.06.03Zm4.85-.02c-.09-.07-.11-.05-.08.06.38 1.13.9 1.95 1.56 2.46.06.05.09.1.09.18 0 .19-.1.26-.29.24a3.46 3.46 0 0 1-1.14-.52l-.26-.16c-.08-.05-.1-.03-.09.06.09.38.26.72.52 1.03.39.46.75.86 1.08 1.2.04.03.05.07.05.12 0 .22-.16.28-.46.17a16.2 16.2 0 0 1-1.26-.53.1.1 0 0 0-.1 0 .1.1 0 0 0-.06.1v1.14c0 .04-.02.07-.07.07h-.28c-.04 0-.06-.02-.06-.06v-1.18a.07.07 0 0 0-.04-.06.07.07 0 0 0-.07 0c-.5.27-1 .43-1.5.47-.18.01-.3-.05-.33-.19-.03-.07 0-.13.06-.18.6-.4 1.1-.83 1.45-1.3.17-.23.3-.47.37-.75.04-.14 0-.17-.14-.09-.47.3-.88.47-1.22.5-.58.05-.66-.12-.24-.51.23-.22.5-.5.8-.84a3.74 3.74 0 0 0 .67-1.37c.04-.12 0-.14-.1-.07-.64.4-1.08.6-1.33.6-.42.01-.47-.12-.16-.4a7.43 7.43 0 0 0 1.73-2.3c.07-.13.15-.22.24-.25.11-.04.22-.01.32.08l.13.25c.4.93.96 1.76 1.69 2.5.03.03.05.08.05.15 0 .08-.04.12-.12.1-.43-.05-.79-.2-1.06-.43a7.9 7.9 0 0 0-.35-.29Zm4.6 2.38c-.03-.15.01-.18.14-.1.73.5 1.22.72 1.48.65a.2.2 0 0 0 .15-.15.2.2 0 0 0-.06-.2 5.33 5.33 0 0 1-1.57-2.53c-.04-.11 0-.13.08-.05.23.22.44.38.63.48.22.13.48.2.77.25.05 0 .08-.02.1-.06a.2.2 0 0 0-.01-.14.33.33 0 0 0-.06-.1 7.27 7.27 0 0 1-1.7-2.58.32.32 0 0 0-.23-.2.33.33 0 0 0-.3.05.44.44 0 0 0-.13.19 7.42 7.42 0 0 1-1.88 2.45.12.12 0 0 0-.04.11c0 .05.03.08.07.1.17.08.36.07.57-.02.48-.21.82-.4 1.04-.54.09-.06.12-.04.1.06-.12.41-.25.74-.38 1-.1.2-.37.5-.8.92-.26.26-.43.44-.5.54-.07.1-.05.2.07.27a.2.2 0 0 0 .1.02c.53-.01 1.05-.2 1.55-.54.06-.04.08-.03.08.04 0 .16-.06.35-.18.55-.16.27-.35.52-.58.74a10.95 10.95 0 0 1-1.03.85.17.17 0 0 0-.06.2c.02.07.08.12.16.13.46.07 1-.09 1.66-.45a.07.07 0 0 1 .07 0c.03.01.04.03.04.06v1.18c0 .04.02.06.07.06h.25c.06 0 .09-.03.09-.09v-1.12a.1.1 0 0 1 .05-.1.11.11 0 0 1 .11 0l1.15.5c.16.06.28.1.38.08a.2.2 0 0 0 .18-.13.2.2 0 0 0-.04-.22l-.25-.25c-.39-.4-.67-.7-.82-.91a2.7 2.7 0 0 1-.52-1Z" fill="#fff"/></svg>