<!-- by TradingView --><svg width="18" height="18" viewBox="0 0 18 18" xmlns="http://www.w3.org/2000/svg"><path fill="#F0F3FA" d="M0 0h18v18H0z"/><path fill-rule="evenodd" d="M10.61 5.43v.04c.44.32.87.66 1.3 1.03.07.06.07.13.01.2l-.05.06c-.06.06-.11.06-.17 0a7.9 7.9 0 0 0-3.25-2.01 5.16 5.16 0 0 0-1.89-.23 2.5 2.5 0 0 0-1.68.74c-.24.24-.4.56-.51.96a1.93 1.93 0 0 0 .67 1.92v.03c0 .08-.03.11-.12.1a.1.1 0 0 1-.05-.03 2.27 2.27 0 0 1-.85-2.1c.07-.57.34-1.07.8-1.48A2.7 2.7 0 0 1 6.65 4c.52 0 .9.03 1.15.11l.29.09c.28.08.56.16.82.3l.25.1.4.2a71.19 71.19 0 0 1 .64.36h.04a3.49 3.49 0 0 1 1.8-.24c.87.1 1.22.84.78 1.64-.17.3-.37.56-.6.77-.43.37-.87.67-1.32.9a7.24 7.24 0 0 1-3.8.75c-.02 0-.03-.01-.04-.04 0-.06.05-.1.15-.12h.02a7.12 7.12 0 0 0 4.34-1.41 5 5 0 0 0 .88-.9c.25-.34.45-.88.02-1.15-.49-.32-1.36-.13-1.85.07Zm2.58 1.59.03-.02h.03l.03.02.02.03.67 1.58a.33.33 0 0 1 0 .27.19.19 0 0 1-.04.06l-.02.01a.12.12 0 0 1-.12.02.17.17 0 0 1-.06-.04.26.26 0 0 1-.04-.07L13 7.29a.15.15 0 0 1 0-.08c0-.02 0-.05.03-.06l.15-.13Zm-3.34-.86a1.89 1.89 0 0 0-.5 0 .42.42 0 0 1-.21-.02 2.1 2.1 0 0 0-1.54 0 .05.05 0 0 0-.03.05c-.04.46.42.73.88.79.03 0 .05 0 .07-.02.38-.34.83-.58 1.33-.74.1-.03.1-.05 0-.06Zm-1.33.14c0 .08-.07.14-.16.14s-.16-.06-.16-.14c0-.08.07-.15.16-.15s.16.07.16.15Zm-2.99 3.84a5.77 5.77 0 0 1 2.25-3.29 5.26 5.26 0 0 0 .6.25c-.38.37-.61.76-.7 1.17 0 .02-.02.04-.05.04-.7.07-1.21.71-1.45 1.27-.1.26-.18.55-.22.86-.06.48.02.92.25 1.34.32.59.85.91 1.6.98.09.01.1.04.02.09a1.11 1.11 0 0 1-.55.18h-.01v.04c.63.55 1.59.72 2.44.58a3.3 3.3 0 0 0 2.31-1.4c.4-.57.55-1.2.45-1.9a1.23 1.23 0 0 0-1.1-1.06 2.2 2.2 0 0 0-2.19 1.17c-.08.17-.11.37-.12.6 0 .04.02.04.05.03.89-.3 1.3.81.46 1.05-.52.15-.94-.34-1.03-.75-.17-.84.35-1.6 1.15-2.03.5-.26 1.05-.35 1.67-.28.7.08 1.15.45 1.44 1 .31.61.24 1.44-.1 2.03-.76 1.35-2.32 2-4 1.87-.5-.03-.98-.16-1.45-.37a3.95 3.95 0 0 1-2.15-2.6 3.55 3.55 0 0 1 .54-2.94l-.01-.01h-.35a.03.03 0 0 1 0-.04c.17-.18.36-.33.58-.47.08-.05.07-.08-.02-.09h-.08c-.13.02-.14 0-.04-.07.14-.1.28-.17.42-.25.04-.01.04-.03 0-.04a.26.26 0 0 0-.12-.02c-.02 0-.04-.01-.04-.04S6 7 6.03 6.98c.16-.07.33-.13.5-.18.02 0 .03-.02.03-.04v-.02h-.01a.23.23 0 0 1-.19-.03v-.05l.02-.01.44-.14c.02 0 .03-.02.01-.04a.11.11 0 0 0-.05-.03c-.12-.04-.12-.07 0-.1.2-.06.41-.09.6-.09l.06.02.02.04a.59.59 0 0 0 .23.45.02.02 0 0 1 0 .02h-.01a5.53 5.53 0 0 0-1.81 2.13 3.56 3.56 0 0 0-.34 1.23ZM7.03 7h-.01c-.03-.04-.03-.07-.02-.11a.24.24 0 0 1 .1-.11l.02-.02c.05-.03.1-.04.15-.04.04 0 .08.01.1.04h.01v.02L7.03 7Zm-.5.47.28-.3a.12.12 0 0 0-.06-.03h-.07a.28.28 0 0 0-.13.08l-.01.01a.26.26 0 0 0-.05.06.19.19 0 0 0-.02.07l.01.06c0 .02.02.03.04.04Zm-.41.49H6.1a.11.11 0 0 1-.06-.1.2.2 0 0 1 .05-.13l.01-.01a.26.26 0 0 1 .12-.09h.06l.06.01v.02l-.23.3Zm-.33.57.17-.35v-.01h-.01a.1.1 0 0 0-.06-.01.16.16 0 0 0-.06.02.24.24 0 0 0-.05.05.28.28 0 0 0-.04.06v.01a.23.23 0 0 0-.03.14c0 .04.03.07.06.08h.02Zm-.25.55h-.02c-.03 0-.05-.02-.05-.06v-.15l.04-.06a.22.22 0 0 1 .03-.05.13.13 0 0 1 .05-.03h.06v.02l-.1.32Zm-.17.56.1-.29-.02-.01H5.4a.12.12 0 0 0-.04.02.18.18 0 0 0-.03.04.22.22 0 0 0-.03.06v.02a.2.2 0 0 0-.01.05v.06l.03.04.03.02a.02.02 0 0 0 .02 0Z" fill="#B09068"/></svg>