<!-- by TradingView --><svg width="18" height="18" viewBox="0 0 18 18" xmlns="http://www.w3.org/2000/svg"><path fill="#F0F3FA" d="M0 0h18v18H0z"/><path d="m7.17 7.87 2.29-.57.8-.18c.88-.2 1.77-.14 2.63.19.47.18.92.43 1.36.76l.31.24c.06.04.03.17-.03.14a4.62 4.62 0 0 0-2.42-.43l-.3.03-1.06.22L7.53 9.4c-.46.16-.94.27-1.41.32l-.48.04c-.38.04-.75.02-1.12-.05l-.12-.02a4.54 4.54 0 0 1-1.72-.73l-.64-.44c-.07-.05-.04-.2.03-.2l1.03.18h1.18l.98-.14 1.91-.48Z" fill="url(#ao1ja4kmc)"/><path d="m10.83 10.18-2.18.62-.94.14a5.8 5.8 0 0 1-2.51-.19c-.5-.15-1-.36-1.49-.65l-.06-.04c-.07-.04-.04-.2.03-.19l1.1.26.4.03a6 6 0 0 0 2.41-.36l.32-.12 2.54-.93c.5-.19 1-.3 1.52-.36l.48-.04c.34-.04.68-.02 1.01.04.7.13 1.39.48 2.01 1.02l.5.43c.06.05.03.19-.04.17l-.43-.12a5.96 5.96 0 0 0-1.62-.23h-.15l-.96.1-1.94.42Z" fill="#E03030"/><defs><linearGradient id="ao1ja4kmc" x1="11.7" y1="7.3" x2="3.01" y2="7.88" gradientUnits="userSpaceOnUse"><stop stop-color="#2B7BA6"/><stop offset=".65" stop-color="#287CAB"/></linearGradient></defs></svg>