<!-- by TradingView --><svg width="18" height="18" viewBox="0 0 18 18" xmlns="http://www.w3.org/2000/svg"><path fill="#F0F3FA" d="M0 0h18v18H0z"/><path fill-rule="evenodd" d="M9.02 2a5.93 5.93 0 0 1-1.6 3.35A7.43 7.43 0 0 0 5 10.75C5 12.98 6.8 15 9.02 15c2.23 0 3.98-2.04 3.98-4.25 0-2.2-1.44-4.24-2.35-5.4l-.1-.13C9.68 4.12 9.02 3.3 9.02 2Zm0 1.16A4.87 4.87 0 0 1 7.7 5.9a6.1 6.1 0 0 0-1.99 4.44c0 1.83 1.48 3.5 3.3 3.5 1.84 0 3.28-1.69 3.28-3.5 0-1.82-1.19-3.48-1.94-4.44l-.08-.1c-.71-.9-1.25-1.59-1.25-2.65Z" fill="#00652E"/><path d="M7.99 5.88c.69-.82.97-1.76 1.03-2.13.07.4.36 1.4.95 2.13.74.9 1.97 2.35 1.97 3.94 0 3.08-2.37 3.52-2.79 3.52-.4 0-3.14-.38-3.14-2.98S7.13 6.9 8 5.88Z" fill="url(#a5igzgai3)"/><g opacity=".4" fill="#D2DF28"><path opacity=".3" d="M9.48 6.72c.74.62.86 1.76.28 2.54-.58.8-1.65.93-2.38.31a1.89 1.89 0 0 1-.28-2.54 1.63 1.63 0 0 1 2.38-.3Z"/><path opacity=".5" d="M9.21 7.1c.55.45.64 1.3.2 1.87a1.2 1.2 0 0 1-1.76.23 1.4 1.4 0 0 1-.2-1.88A1.2 1.2 0 0 1 9.2 7.1Z"/><path opacity=".5" d="M8.99 7.4a1 1 0 0 1 .14 1.34.86.86 0 0 1-1.25.16 1 1 0 0 1-.15-1.34.86.86 0 0 1 1.26-.16Z"/><path opacity=".5" d="M8.85 7.58c.3.25.34.7.11 1.01a.65.65 0 0 1-.95.13.75.75 0 0 1-.1-1.02.65.65 0 0 1 .94-.12Z"/></g><path d="M6.26 8.62c-.54.54-.41 1.23-.28 1.5.11-.81 1.63-1.6 1.94-1.77.3-.17 1.71-1.21 1.71-2.32 0-.9-.34-1.58-.52-1.81.06.18.1.78-.2 1.72-.35 1.18-1.98 1.99-2.65 2.68Z" fill="url(#b5igzgai3)"/><path d="M11.97 9.8c-1.66 2.6-3.95 3.04-4.88 2.93 2.74.89 5.1-2.01 5.1-2.3 0-.24-.15-.52-.22-.63Z" fill="url(#c5igzgai3)"/><defs><linearGradient id="a5igzgai3" x1="6.55" y1="6.82" x2="11.28" y2="12.43" gradientUnits="userSpaceOnUse"><stop offset=".02" stop-color="#007D37"/><stop offset=".17" stop-color="#6EB842"/><stop offset=".53" stop-color="#28963E"/><stop offset=".76" stop-color="#006931"/><stop offset=".92" stop-color="#288234"/><stop offset="1" stop-color="#909F3A"/></linearGradient><linearGradient id="b5igzgai3" x1="9.58" y1="5.04" x2="5.77" y2="9.72" gradientUnits="userSpaceOnUse"><stop stop-color="#2C318B"/><stop offset=".27" stop-color="#4E96D1"/><stop offset=".49" stop-color="#F4F6F1"/><stop offset=".67" stop-color="#599DD8"/><stop offset="1" stop-color="#2C318C"/></linearGradient><linearGradient id="c5igzgai3" x1="8.62" y1="12.7" x2="11.31" y2="10.44" gradientUnits="userSpaceOnUse"><stop stop-color="#2C318C"/><stop offset="1" stop-color="#5A9ED5"/></linearGradient></defs></svg>