<!-- by TradingView --><svg width="18" height="18" xmlns="http://www.w3.org/2000/svg"><path fill="#F0F3FA" d="M0 0h18v18H0z"/><path d="M8.32 10.458c-.342-.876.3-1.934.716-2.002 0 0-1.02 1.434 0 2.002.98.544 2.125-.109 2.45-.372.755-.613 1.41-1.903.226-3.651-1.184-1.748-3.701-2.349-4.942-2.43 1.418-.02 4.977.437 6.125 2.43 1.147 1.993.492 3.451-.186 4.023-1.766 1.594-4.048.876-4.39 0z" fill="#367E3D"/><path d="M9.464 8.107a3.445 3.445 0 00-.097-.008c-.984 0-3.488 1.97-2.03 4.074 1 1.446 3.965 1.538 5.195.925-1.348.98-3.319 1.017-4.337.772-1.083-.319-2.817-1.622-2.191-3.64.603-1.948 2.448-2.186 3.363-2.13.035 0 .067.002.097.007z" fill="#367E3D"/><path d="M9.96 7.812c1.209.58 1.056 1.472.829 1.969.522-.967.392-2.256-.828-2.995-1.22-.739-3.352-.227-3.425-.2-.195.072-1.78.495-2.817 2.18-.64 1.04-.719 2.605-.719 3.21.056-.335.55-1.128.719-1.576.722-1.492 1.737-2.166 1.988-2.32.64-.394 2.744-.993 4.254-.268z" fill="#07446A"/></svg>