<!-- by TradingView --><svg width="18" height="18" xmlns="http://www.w3.org/2000/svg"><path fill="url(#paint0_linear)" d="M0 0h18v18H0z"/><path d="M6.332 7.153c0 .579.026 1.308 0 1.887-1.447 0-3.045-.1-3.045-.1.672.94 1.391 1.391 1.48 1.568.304.604-.19.717.888 1.167 0 0 .313.282.423.282.377 0 .283-.511.55-.765.08.057.14.093.212.161v-.24c.317.083.528.031.634.08.161.072 1.65 2.052 1.65 2.052.063.112.063 1.488 1.817 1.488.076 0 .304-.109.338-.12-.046-.173-.38-.713-.38-.805 0-1.055 1.197-1.722 1.861-2.092.046-.024.326-.435.338-.443.22-.149.534-.173.593-.282l.169-1.207c0-.43-.415-.49-.592-1.89-.034-.279.03-.407 0-.484-.09-.008-.148 0-.254 0-.275 0-.605-.362-.677-.362-.089 0-.17.121-.17.121H10.35c-.11 0-.156-.177-.17-.241-.547.024-.826-.161-1.267-.161-.017 0-.17-.117-.17-.242v-.608s-.455.168-1.168.531c-.71.363-.802.447-.955.544-.153.098-.287.16-.287.16z" fill="#439539"/><path d="M8.695 5.785c-.02.007-.472.175-1.184.537-.596.304-.76.414-.893.502l-.074.049-.345.193-.162.151v.538c.003.222 0 .448 0 .668 0 .166.005.16 0 .314-1.389-.006-2.74 0-2.74 0H3c.368.607.85 1.115 1.381 1.584.113.1.24.212.26.25.089.175.1.297.112.416.031.332.122.51.827.808.16.142.368.303.498.303.324 0 .414-.273.48-.472.028-.083.061-.118.103-.19h.755c.115.085.9.97 1.582 1.875.206 1.01.88 1.563 1.943 1.563.17 0 .345-.111.5-.177-.043-.208-.14-.386-.24-.572-.06-.115-.152-.288-.162-.332.001-.957 1.165-1.605 1.79-1.954.16-.084.257-.311.363-.456.087-.056.196-.094.293-.127.134-.045.269-.089.341-.22L14 9.796v-.01c0-.203-.077-.341-.166-.501-.135-.243-.321-.577-.426-1.408-.027-.205.008-.311.008-.413 0-.069-.027-.13-.051-.192l-.351-.001c-.134 0-.327-.148-.442-.237-.105-.08-.163-.125-.235-.125-.104 0-.184.087-.235.142h-1.677v-.338c-.273.002-.675.007-.947.005l-.403-.005V5.7l-.38.085zm-2 1.326l.08-.053c.126-.084.283-.188.864-.485.43-.219 1.098-.448 1.098-.448v.4c0 .548.338.525.822.525h.518c.056.152.007.337.129.337h2.036c.194-.283.49.164.772.164l.114-.002a1.59 1.59 0 000 .361c.112.886.322 1.261.46 1.51.08.144.129.232.13.36l-.16 1.142a.945.945 0 01-.163.066 1.523 1.523 0 00-.375.168c0 .002-.117.144-.117.144-.057.08-.187.26-.224.3-.68.378-1.92 1.076-1.92 2.207 0 .076.05.177.193.449.05.092.105.197.145.28a.921.921 0 01-.16.056c-1.055 0-1.424-.55-1.7-1.432-.69-.916-1.545-1.989-1.705-2.06h-1c-.135.127-.192.288-.241.438-.074.222-.107.278-.213.278a1.757 1.757 0 01-.328-.246l-.04-.025c-.648-.27-.657-.376-.678-.585-.011-.124-.027-.294-.139-.515-.043-.086-.15-.18-.326-.336a8.1 8.1 0 01-1-1.034h2.808v-1.32-.537l.32-.107zM7.028 3.014l-.16.047-.09.057c-.25.158-.502.324-.573.477l-.016.047c-.339 1.02-.31 1.155-.298 1.212.025.125.17.34.353.308.556-.1 1.026-1.862 1.03-1.88l.013-.066L7.11 3l-.081.014zm-.057.315c-.118.435-.519 1.45-.757 1.542a.206.206 0 01-.048-.074v-.006c0-.035.016-.234.29-1.06.051-.205.354-.296.515-.402z" fill="#FD0"/><path d="M7.585 3.053c-.415.075-.506.321-.644.693l-.201.497c-.227.494-.407.66-.514.758-.102.094-.172.168-.172.326a.83.83 0 00.02.168c.042.199.22.335.264.536-.152.019-.294.064-.373.2.13.244.272.276.52.237l.391-.072c.144-.026.318-.181.67-.5l.317-.285.146-.17.1-.12.089-.099c.075-.087.13-.15.23-.225a.97.97 0 01.332-.19.91.91 0 01.232-.039l.069-.006.179-.008.071.06.037-.275c-.19-.06-.35-.374-.52-.642-.273-.427-.611-.958-1.243-.844zM6.35 5.437c-.01-.05-.017-.082-.017-.106 0-.046.022-.066.084-.123.122-.113.329-.302.579-.848l.209-.516c.14-.378.183-.47.43-.514.415-.075.648.235.954.718.104.163.205.32.318.446a1.022 1.022 0 00-.234.045c-.178.057-.27.122-.415.233a1.65 1.65 0 00-.273.265l-.084.095-.113.135-.124.143-.307.277a8.489 8.489 0 01-.388.338c-.312.015-.56-.302-.62-.588z" fill="#FD0"/><path d="M5.996 5.583l-.28.045c-.097.007-.23.016-.683.106l-.15.036-.27.077-.12.036c-.12.031-.255.067-.359.214a.442.442 0 00-.076.345c.053.274.348.499.52.608.323.206.506.264.567.284.01.003-.046-.038-.046-.038l.068.05.102-.011.238-.113c.179-.084.163-.342.149-.592l-.006-.215c.015-.241.046-.243.426-.26l.158-.008-.019-.156-.071-.432-.148.024zm-.084.298l-.013.002c.007 0 .007 0 .013-.002zm-.198.03c-.193.048-.326.165-.345.487l.005.248c.004.053.008.13.008.197a.417.417 0 01-.015.133l-.167.08a2.237 2.237 0 01-.472-.243c-.222-.143-.37-.302-.394-.425a.157.157 0 01.03-.128c.043-.061.092-.076.2-.105l.146-.044.236-.066.143-.035a4.75 4.75 0 01.625-.099z" fill="#FD0"/><path d="M9.078 4.54c-.653.088-.819.29-1.07.595-.17.208-.383.466-.84.804-1.242.92-1.97 1.172-1.977 1.174l-.147.05.063.141c.128.284.954.133 1.034.1.343-.139.429-.199.552-.292.16-.121.4-.304 1.865-.967 1.045-.473 1.932-.526 2.58-.565l.275-.02a.287.287 0 00.208-.203c.056-.16-.07-.302-.123-.363l-.014-.015c-.485-.32-1.136-.419-1.712-.428l-.683-.012h-.011zM7.335 6.165c.485-.358.719-.643.89-.85.237-.29.347-.421.881-.495l.661.011c.121.002 1.197.158 1.331.23.134.071.267.22.273.221l-.25.016c-.67.04-1.587.096-2.68.59-1.493.676-1.75.87-1.919 1-.098.074-.162.123-.488.255-.048.02-.18.036-.318.043.348-.174.893-.484 1.62-1.021z" fill="#FD0"/><defs><linearGradient id="paint0_linear" x1="3.349" y1="3.122" x2="21.904" y2="24.434" gradientUnits="userSpaceOnUse"><stop stop-color="#1A1E21"/><stop offset="1" stop-color="#06060A"/></linearGradient></defs></svg>