<!-- by TradingView --><svg width="18" height="18" viewBox="0 0 18 18" xmlns="http://www.w3.org/2000/svg"><path fill="#33AA2A" d="M0 0h18v18H0z"/><path d="M13.49 4a27.13 27.13 0 0 0-5.02 3.16l-.26.25-.21.2V5.59l-.78 2.7a10.45 10.45 0 0 0-2.61 4.27c-.38-.6-.61-1.44-.61-2.6C4 5.17 9.85 4 13.49 4Zm.51.4a26.57 26.57 0 0 0-5.43 3.42c-.35.26-.78.57-.87.99.47.4 1.38.65 2.23.89.7.19 1.34.37 1.67.61.11-.39.2-.81.27-1.27A9.11 9.11 0 0 1 14 4.41Zm-2.46 6.12a5.87 5.87 0 0 1-4.33-1.37 8.98 8.98 0 0 0-2.13 3.98c.77.71 1.84.87 2.82.87 1.52 0 2.93-1.17 3.64-3.48Z" fill="#FBFFF8"/></svg>