<!-- by TradingView --><svg xmlns="http://www.w3.org/2000/svg" width="18" height="18" viewBox="0 0 18 18"><path fill="#F0F3FA" d="M0 0h18v18H0z"/><path d="M10.81 5.32c2.14 0 4.46.74 5.19 1.13C15.21 5.92 13.23 5 9.23 5 5.23 5 2 6.98 2 9.33 2 11.7 5.7 13 9.33 13c2.92 0 4.22-.32 4.53-.51-3.73.94-10.77-.28-10.86-3.16-.1-3.19 5.14-4 7.81-4z" fill="url(#ahmlaj2rw)"/><path d="M7.96 8.5h-.8c-.23-.3-.65-.49-1.12-.49-.72 0-1.3.44-1.3.99s.58.99 1.3.99c.47 0 .9-.2 1.12-.49h.8c-.28.58-1.04 1-1.92 1C4.9 10.5 4 9.83 4 9s.91-1.5 2.04-1.5c.88 0 1.64.42 1.92 1zm.93-1h-.76l1.47 3h.62l1.47-3h-.73L9.91 9.81 8.89 7.5zm4.74 0h-1.28v3H13V9.39l1.06 1.11h.88l-1.02-1.11c.32-.01.95-.21.98-.94.04-.84-.85-.94-1.27-.95zM13.06 9V8c.6-.02 1.13 0 1.13.45 0 .44-.7.55-1.13.55z" fill="#00704A"/><defs><linearGradient id="ahmlaj2rw" x1="2.28" y1="10.03" x2="13.14" y2="7.24" gradientUnits="userSpaceOnUse"><stop stop-color="#FFD203"/><stop offset="1" stop-color="#00704A"/></linearGradient></defs></svg>