<!-- by TradingView --><svg width="18" height="18" viewBox="0 0 18 18" xmlns="http://www.w3.org/2000/svg"><path fill="#F0F3FA" d="M0 0h18v18H0z"/><path d="m10.02 4.24-.02.23v7.8c0 .26.16 1.39.58 1.4.47.02.42-.48.42-.8V8c.8.07 1.73.82 1.94 1.7.05.18.06.38.06.57 0 .5-.02 1.02-.06 1.52a2.4 2.4 0 0 1-.55 1.24 2.36 2.36 0 0 1-2.18.96c-.33-.02-.66-.09-.98-.19C8.5 13.57 8 13.05 8 12.18V6.13c0-.28.21-.51.39-.7.12-.13.26-.27.4-.36.4-.26.67-.5 1.07-.75l.1-.08h.06ZM5.02 4c.36.2.73.4 1.08.62a7 7 0 0 1 .64.44c.22.16.26.48.26.78v4.8c0 .35.16.7.28 1.03.05.15.13.28.26.37.03.01.04.06.06.09l-.01.03c-.1-.01-.2-.01-.29-.04a3.88 3.88 0 0 1-1.64-.86c-.39-.37-.58-.83-.63-1.38A5.67 5.67 0 0 1 5 9.37V4h.02Z" fill="#00567D"/></svg>