<!-- by TradingView --><svg width="18" height="18" viewBox="0 0 18 18" xmlns="http://www.w3.org/2000/svg"><path fill="#F0F3FA" d="M0 0h18v18H0z"/><path d="M8.32 3.28C7.14 4.34 6.07 5.5 4.95 6.62c-.29.28-.55.64-.7.97-.1.23-.2.56-.23.85-.03.2-.03.68 0 .91.06.55.18.94.44 1.4A9.69 9.69 0 0 0 6.58 13c.1.08.23.15.39.2.13.04.38.04.53 0 .13-.03.3-.1.39-.18l.57-.55c.9-.92 1.82-1.83 2.73-2.74.07-.07.14-.15.18-.23.1-.19.15-.46.12-.64a1.13 1.13 0 0 0-.31-.63 8.87 8.87 0 0 0-.45-.44l-3.35 3.32-.09.08-.08-.07a50.94 50.94 0 0 1-.83-.84c-.36-.36-.41-.43-.5-.64a1.71 1.71 0 0 1-.02-1.24c.1-.23.2-.4.38-.58l.3-.3c1-1 2.03-2 3.03-3.03a1 1 0 0 1 .62-.3c.13-.02.3-.02.4 0h.03a1.02 1.02 0 0 0-2.3-.93Zm1.9 1.63c-.1.06-.26.2-.54.49-.87.9-1.76 1.77-2.65 2.65-.34.32-.37.36-.44.53-.14.32-.1.71.09 1 .07.1.24.3.45.49l.15.14.08-.07.33-.33c.73-.73 1.47-1.46 2.19-2.2a64.24 64.24 0 0 1 .83-.82s.13.11.26.25a73.22 73.22 0 0 0 1 1.02c.21.27.32.69.28 1.05a2.43 2.43 0 0 1-.13.54l-.22.36a206.2 206.2 0 0 0-3.47 3.48 1.06 1.06 0 0 1-1.06.27h-.01c0 .04.92.97 1 1.04.1.07.2.12.35.17.14.04.42.04.56 0 .27-.09.34-.14 1.03-.83 1-1 2.23-1.99 3.06-3.1.42-.58.64-1.27.64-2.04a3.34 3.34 0 0 0-.96-2.4C12.5 6.05 12 5.45 11.4 4.98c-.32-.27-.82-.3-1.19-.08Z" fill="url(#anvbqllmc)"/><defs><linearGradient id="anvbqllmc" x1="9" y1="3" x2="9" y2="15" gradientUnits="userSpaceOnUse"><stop stop-color="#0084CC"/><stop offset="1" stop-color="#005FAC"/></linearGradient></defs></svg>