<!-- by TradingView --><svg width="18" height="18" viewBox="0 0 18 18" xmlns="http://www.w3.org/2000/svg"><path fill="#00713D" d="M0 0h18v18H0z"/><path d="m10 3.64.47-.64c.09.11-.03.56-.1.77.03.06.1.2.1.26-.17.06-.15.22-.15.3 0 .25.45.38.67.41l-.63.83c.23.23.64.79.73.89-.33 0-.68.03-.85.07l.54.32-.6.32.9.23c-.24.05-.74.27-.9.31.34.3 1.12.5 1.52.63-.22.06-.68.28-.92.32.36.16.94.26 1.22.3l-1.83.64.92.41-.92.22 1.22.45-.73.22c.07.04.23.14.37.31a.8.8 0 0 0 .36.28l-1.22.31c.42.28 1.4.84 1.53.94-1.47 0-3.75.69-4.57.95l.6-.63L5 14l1.52-1.57-1.22.18 2.44-2.07-1.83.32L7.74 9.6h-.91c1.04-.43 1.37-.74 1.48-.87h-1.1l.2-.22h-.7l1.33-.9-.91-.21 1.02-.55-.26-.08 1.07-.31-.3-.23.05-.05-.36-.2 1.08-.37-.47-.72L10 4.37l.07-.12-.5-.3.43-.3Z" fill="#fff"/></svg>