<!-- by TradingView --><svg width="18" height="18" viewBox="0 0 18 18" xmlns="http://www.w3.org/2000/svg"><path fill="#F0F3FA" d="M0 0h18v18H0z"/><path d="m12.16 6.68-.2.17.22.7-.62-.34-.22.16.7.39-.74.6-.2-.27.27-.21-.2-.24-.26.21-.21-.28.26-.22-.19-.26L9.43 8.2l1.3 1.03.23-.29c.17 0 .29.15.36.29l-.24.29.14.12c.32-.3.75-.48 1.18-.48.9 0 1.6.74 1.6 1.65 0 .28-.07.62-.24.88l.24.2c0 .16-.17.35-.33.4l-.24-.2c-.32.32-.75.49-1.18.49-.9 0-1.6-.72-1.6-1.63 0-.29.1-.6.22-.86l-.17-.12-.24.31a.44.44 0 0 1-.36-.31l.24-.26-1.08-.91v1.43h.36c.05.08.07.15.07.22s-.02.17-.07.24h-.36v.17c.8.14 1.46.8 1.46 1.62 0 .84-.64 1.5-1.46 1.65v.29a.57.57 0 0 1-.55 0v-.29a1.67 1.67 0 0 1-1.43-1.65c0-.81.62-1.48 1.43-1.6v-.2h-.38a.4.4 0 0 1-.07-.23c0-.1.02-.17.07-.24h.38V8.78l-1.1.91.24.27a.44.44 0 0 1-.36.3l-.24-.3-.14.14c.14.26.24.55.24.86 0 .91-.72 1.63-1.6 1.63-.43 0-.86-.17-1.18-.48l-.24.19a.58.58 0 0 1-.33-.4l.24-.2a1.88 1.88 0 0 1-.24-.88c0-.91.7-1.65 1.6-1.65.43 0 .86.19 1.18.48l.14-.1-.24-.29c.05-.14.2-.26.36-.28l.24.28 1.29-1.03-1.34-1.12-.2.26.27.22-.19.26-.26-.21-.2.24.22.16-.2.27-.7-.6.66-.38-.19-.17-.62.33.19-.64-.2-.17-.23.74-.74-.6.19-.24.26.22.22-.24-.27-.24.2-.24.26.2.19-.25-.57-.43c.04-.19.16-.33.35-.45l3.04 2.49V5.99h-.3v.3h-.32V6h-.31v.3h-.31v-.92l.72.3v-.26l-.67-.28.67-.27v-.24l-.72.3v-.97h.31v.34h.31v-.34h.31v.34h.31v-.74c.1-.03.2-.05.29-.05.1 0 .2.02.26.05v4.09l3.04-2.49c.17.12.29.26.36.45l-.57.46.19.24.26-.2.2.25-.27.23.19.24.26-.21.2.24-.75.6-.21-.77Zm-6.2 4.5c0 .26.2.43.43.45l-.38.29a.81.81 0 0 1-.5-.7c0-.1.02-.14.05-.21h-.08c-.36 0-.64-.34-.71-.67l.4-.31v.12c0 .21.22.4.43.4.24 0 .46-.19.46-.43 0-.28-.22-.47-.5-.47-.53 0-1.06.52-1.06 1.2 0 .18.05.37.12.54l.24-.19c.17.07.29.24.34.43l-.24.2c.24.18.52.28.81.28.62 0 1.1-.5 1.1-.93 0-.27-.17-.48-.43-.48-.29.05-.48.24-.48.48Zm3.26.95c0 .24.19.43.43.43.16 0 .24-.07.35-.16v.5a.7.7 0 0 1-.38.1c-.26 0-.48-.08-.62-.32-.14.24-.38.31-.65.31a.76.76 0 0 1-.38-.1v-.5c.12.13.2.17.36.17.24 0 .43-.19.43-.43s-.14-.43-.4-.43c-.46 0-.65.43-.65.84 0 .57.43 1.08.98 1.17v-.29c.1-.04.19-.04.26-.04.1 0 .2 0 .29.04v.3c.53-.08.98-.63.98-1.18 0-.4-.17-.84-.65-.84-.19-.02-.35.2-.35.43Zm2.72-1.98c0 .21.24.43.46.43.21 0 .43-.2.43-.4v-.13l.38.31c-.07.39-.4.7-.79.67.03.07.03.15.03.22 0 .28-.24.6-.5.7l-.37-.32c.24-.02.43-.2.43-.45 0-.27-.21-.43-.45-.43-.26 0-.43.21-.43.47 0 .31.38.94 1.12.94.3 0 .58-.1.8-.29l-.25-.2c.05-.18.17-.35.34-.42l.24.19c.1-.17.14-.36.14-.55 0-.53-.4-1.2-1.05-1.2-.29 0-.53.17-.53.46Z"/></svg>