<!-- by TradingView --><svg width="18" height="18" viewBox="0 0 18 18" xmlns="http://www.w3.org/2000/svg"><path fill="url(#ac010bsg5)" d="M0 0h18v18H0z"/><path d="M4 7H3v2.94c0 .59.4 1.06.9 1.06h3.2c.5 0 .9-.47.9-1.06V7H7v3H4V7ZM10 7v4h1V8h.2l1.96 2.79c.1.13.25.21.42.21H15v-1h-1.12l-1.96-2.78A.5.5 0 0 0 11.5 7H10ZM13 7h2v1h-2z" fill="#fff"/><defs><linearGradient id="ac010bsg5" x1="3.35" y1="3.12" x2="21.9" y2="24.43" gradientUnits="userSpaceOnUse"><stop stop-color="#1A1E21"/><stop offset="1" stop-color="#06060A"/></linearGradient></defs></svg>