<!-- by TradingView --><svg width="18" height="18" viewBox="0 0 18 18" xmlns="http://www.w3.org/2000/svg"><path fill="#F0F3FA" d="M0 0h18v18H0z"/><path d="M5 4.33h4.06l.41-.04c.26-.02.52-.04.78-.15C11.38 3.68 11.74 3 11.74 3a2.87 2.87 0 0 1-1.04 1.47l-.02.02-.04.02C9.9 5.01 9 5 8.2 5c-.4 0-.76 0-1.06.05-1.44.3-1.42 1-1.42 1a2.24 2.24 0 0 1 2-.03c-.6-.01-.97.2-1.44.5l-.54.3a.85.85 0 0 1-.39.12c-.1 0-.19-.03-.28-.08L5 6.82V4.33Zm6.5.98c.12.17.27.33.42.5.3.34.62.69.78 1.12.11.3.02.77-.07 1.19a7.09 7.09 0 0 0-.56-.95l-.34-.45c-.1-.14-.21-.27-.33-.4 0 0-.7.88.56.94 0 0 .72 1.22 1.04 2.03V4.33h-2.03c-.03.25.2.55.48.92l.05.06ZM9.94 6.77s-1.3 1.09-.37 2.27c.37.48.92.85 1.46 1.22.82.56 1.6 1.1 1.66 1.9.26-.34.43-.73.5-1.13 0 0 .68-.16.81-.92 0 0-.37.47-.72.58a.46.46 0 0 1-.26 0c-.33-.1-.46-.27-.6-.61a1.07 1.07 0 0 0-.6-.52l-.35-.11c-.93-.29-2.55-.78-1.53-2.68ZM11.67 15c.72-.96.8-1.58-.27-2.38-.5-.38-.72.55-.71.55 1.4.71 1.01 1.76.98 1.83ZM5.9 7.8s-2.66.42-2.77-1.24c0 0-.75 1.9 1.47 1.75 0 0-2.23 1.83-.14 3.85-.03-.03-1.22-1.58 1.44-4.36Z" fill="#4AC1C1"/></svg>