<!-- by TradingView --><svg xmlns="http://www.w3.org/2000/svg" width="18" height="18" viewBox="0 0 18 18"><path fill="url(#aegaj0kko)" d="M0 0h18v18H0z"/><path fill-rule="evenodd" d="M9 5.05 8.44 4 6.01 5.25a1.95 1.95 0 0 0-.83 2.66L4 8.1l.43 2.7a1.96 1.96 0 0 0 2.3 1.61l-.17 1.15 2.71.42a1.95 1.95 0 0 0 2.23-1.64l1.01.53 1.27-2.43a1.95 1.95 0 0 0-.88-2.65l.86-.86-1.93-1.94A1.96 1.96 0 0 0 9 5.05Zm2.52 6.86 1.1-2.11a.63.63 0 1 0-1.12-.59l-.7 1.33c.42.33.68.83.72 1.37Zm-1.77-.47.27.14a.63.63 0 0 1-.51 1.1l-2.42-.38c.51-.2.9-.6 1.1-1.1l1.51.23h.05Zm-.19-1.37.63-1.2-.9-.91-1.25.63.2 1.28 1.32.2Zm3.08-2.39a1.96 1.96 0 0 0-1.6.18L9.97 6.78a.63.63 0 1 1 .9-.89l1.77 1.8ZM8.8 5.31 6.58 6.44a.63.63 0 1 0 .57 1.12l1.4-.7A1.95 1.95 0 0 1 8.8 5.3Zm-3.05 5.32-.38-2.45c.34.44.85.7 1.4.75l.23 1.5a.63.63 0 1 1-1.25.2Z" fill="#FFF000"/><defs><linearGradient id="aegaj0kko" x1="3.35" y1="3.12" x2="21.9" y2="24.43" gradientUnits="userSpaceOnUse"><stop stop-color="#1A1E21"/><stop offset="1" stop-color="#06060A"/></linearGradient></defs></svg>