<!-- by TradingView --><svg width="18" height="18" viewBox="0 0 18 18" xmlns="http://www.w3.org/2000/svg"><path fill="url(#az2uqm2sl)" d="M0 0h18v18H0z"/><path d="M6.33 6v.2c.44 0 .67.34.67.51v4.2c-.15.24-.83.73-1.82.73-.98 0-1.48-.8-1.56-1.2V6.02H2v.18h.53c.32 0 .48.27.47.4v3.41C3 11.54 4.15 12 5.06 12c.73 0 1.64-.55 1.94-.82V12h.67V6.88c0-.23.15-.69.7-.69.67 0 2.3.12 2.3 2.93 0 2.25-1.3 2.75-1.99 2.72V12h.03c.3 0 1.92.02 2.62-1.33V12H12V6.17h.56c.3 0 1.44.2 1.44 1.52 0 1.06-.89 1.38-1.33 1.4v.15c.52 0 1.56 1.84 2.04 2.76H16v-.16c-.54 0-1.12-1.1-1.42-1.72-.24-.5-.62-.9-.78-1.03a1.7 1.7 0 0 0 .99-1.4c0-1.37-1.1-1.7-1.65-1.69h-2.47v.17h.14c.33 0 .51.35.52.53v.88A3.01 3.01 0 0 0 8.85 6H6.33Z" fill="#fff"/><defs><linearGradient id="az2uqm2sl" x1="0" y1="9" x2="18" y2="9" gradientUnits="userSpaceOnUse"><stop offset=".22" stop-color="#017E3C"/><stop offset="1" stop-color="#8DC041"/></linearGradient></defs></svg>