<!-- by TradingView --><svg width="18" height="18" viewBox="0 0 18 18" xmlns="http://www.w3.org/2000/svg"><path fill="#F0F3FA" d="M0 0h18v18H0z"/><path d="m4.2 12.52-.21.48A6.92 6.92 0 0 1 3 9.88 5.57 5.57 0 0 1 8.05 4L5.33 5.46l-1.8 2.9.67 4.16Z" fill="url(#amk0eqvy4)"/><path d="M6.52 12.52h-2.3a5.52 5.52 0 0 1-1.03-2.89C3.19 5.68 6.14 4 8.3 4c1.74 0 2.93.8 3.3 1.2l-.03.07a5.09 5.09 0 0 0-2.85-.78C6.91 4.49 4.5 5.77 4.5 8.2c0 1.95 1.35 3.68 2.02 4.3Z" fill="url(#bmk0eqvy4)"/><path d="M6.32 13H3.99l.2-.48h2.34l-.21.48Z" fill="url(#cmk0eqvy4)"/><path d="m10.94 6-.7 6h4.06l.18-1.55H12.2l.06-.68h1.96l.17-1.58h-1.94l.1-.63h2.28L15 6h-4.06ZM5.66 6h1.68l-.43 3.51c-.05.3 0 .9.62.9.63 0 .82-.67.84-1L8.82 6h1.76l-.51 3.89c-.04.7-.6 2.11-2.54 2.11-2.42 0-2.4-1.4-2.37-1.85.02-.36.34-2.92.5-4.15Z"/><defs><linearGradient id="amk0eqvy4" x1="2.9" y1="8.2" x2="5.71" y2="12.89" gradientUnits="userSpaceOnUse"><stop offset=".62" stop-color="#5F0E0D"/><stop offset=".82" stop-color="#AA1D26"/></linearGradient><linearGradient id="bmk0eqvy4" x1="3.79" y1="10.3" x2="12.03" y2="6.3" gradientUnits="userSpaceOnUse"><stop offset=".44" stop-color="#EC2427"/><stop offset=".93" stop-color="#601416"/></linearGradient><linearGradient id="cmk0eqvy4" x1="4.33" y1="13.12" x2="5.28" y2="12.1" gradientUnits="userSpaceOnUse"><stop stop-color="#5B0C11"/><stop offset="1" stop-color="#98171C"/></linearGradient></defs></svg>