<!-- by TradingView --><svg width="18" height="18" viewBox="0 0 18 18" xmlns="http://www.w3.org/2000/svg"><path fill="#F0F3FA" d="M0 0h18v18H0z"/><path d="M11 12.86V10h2.88c.07 0 .12-.06.12-.13v-.74a.12.12 0 0 0-.12-.13H10v3.86c0 .08.04.14.1.14h.8c.06 0 .1-.06.1-.14Z" fill="#BF1C2C"/><path d="M8 10.44v-3.1c0-.2.13-.34.3-.34H15c0 .68-.5 1-1.1 1H9v2.51C9 11.33 8.4 12 7.66 12H5.34C4.6 12 4 11.33 4 10.51V6.23c0-.13.1-.23.2-.23h.6c.1 0 .2.1.2.23v4.2c0 .32.23.57.5.57h2c.27 0 .5-.25.5-.56Z" fill="#002D8B"/></svg>