<!-- by TradingView --><svg width="18" height="18" viewBox="0 0 18 18" xmlns="http://www.w3.org/2000/svg"><path fill="#F0F3FA" d="M0 0h18v18H0z"/><path d="M7.06 9.82c.11-.67-.01-1.36-.35-1.96a2.6 2.6 0 0 0-.81-.8 6.52 6.52 0 0 0-.86-.46c-.06-.03-.04-.5.14-.72.06-.09-.13-.43-.18-.36-.26.33-.32.7-.26 1.1a4.5 4.5 0 0 0-.56 3.71c.22.7.61 1.31 1.15 1.8.5.47 1.07.87 1.67 1.21.11.1.06-.06.05-.1a.7.7 0 0 0-.04-.14 2.45 2.45 0 0 0-.06-.05h-.01c-.18-.14-.35-.25-.41-.74a2 2 0 0 1 .06-.77c.16-.59.36-1.1.47-1.72Zm-.43 3.04-.08-.05c-.1-.07-.2-.15-.29-.24-.73-.78-.87-1.78-.84-2.81.04-1 .1-1.98-.53-2.82a.1.1 0 0 1-.02-.07.1.1 0 0 1 .03-.06c.07-.03.15 0 .18.07.24.38.42.8.52 1.24.1.49.13.98.1 1.47-.01.47-.08.94 0 1.4.18 1.06.61 1.53.93 1.87ZM13.14 6.42a4.68 4.68 0 0 0-3.01-2.32 4.36 4.36 0 0 0-2.17.07c-.66.2-1.3.48-1.9.82-.14.05.02.08.05.09l.15.03.07-.03h.02c.2-.08.39-.17.85.02.25.1.47.25.65.44.45.42.8.85 1.3 1.25a3.2 3.2 0 0 0 1.92.68c.37 0 .79-.14 1.12-.29.3-.15.57-.31.83-.5.06-.04.46.21.57.48.04.1.44.1.4.03-.16-.4-.45-.62-.85-.77Zm-.4.16c-.45.01-.91-.05-1.35-.18a6.16 6.16 0 0 1-1.36-.64c-.4-.25-.8-.55-1.24-.7-1.03-.38-1.66-.24-2.12-.15l.09-.04c.1-.05.22-.1.34-.12 1.06-.23 2.02.14 2.92.7.87.52 1.7 1.06 2.76.95a.1.1 0 0 1 .08.01l.04.06s-.01.1-.16.11ZM13.84 8.38a.74.74 0 0 0-.1.1l-.02.08v.02c-.03.21-.04.41-.44.71-.22.15-.46.27-.72.33-.6.16-1.16.25-1.76.47-.65.24-1.2.7-1.56 1.28-.2.31-.28.74-.3 1.1-.02.31-.01.63.02.95 0 .06-.42.28-.7.24-.11-.01-.32.32-.24.33.43.05.78-.08 1.11-.34 1.32.04 2.7-.45 3.57-1.39.5-.52.85-1.16 1.02-1.86.15-.66.23-1.34.24-2.02.02-.14-.1-.02-.12 0Zm-.13.65-.07.35c-.32 1.01-1.13 1.64-2.07 2.13-.9.46-1.8.9-2.24 1.85 0 .03-.02.05-.04.06a.1.1 0 0 1-.08 0 .14.14 0 0 1-.02-.19c.22-.4.5-.75.84-1.06.38-.32.8-.6 1.25-.82.42-.22.88-.4 1.25-.7.84-.67 1.04-1.28 1.18-1.71v.09Z" fill="#8DC63F"/></svg>