<!-- by TradingView --><svg width="18" height="18" xmlns="http://www.w3.org/2000/svg"><path fill="#005581" d="M0 0h18v18H0z"/><path d="M3.626 5.977h-1.95v3.77a2.277 2.277 0 002.278 2.276h.453A1.823 1.823 0 006.23 10.2h-.646c0 .65-.527 1.177-1.177 1.177h-.453c-.9 0-1.63-.73-1.63-1.63V6.622h.655V9.85a.974.974 0 101.949 0V6.623h.656V7.8h.646V5.977H4.281v3.872a.328.328 0 01-.655 0V5.977zm3.26 0h1.949v2.1h.656v-2.1h1.948v3.817h.003c-.005.475.053.945.46 1.259.71.51 1.782.507 2.587.253.457-.153.843-.627.868-1.102.033-.446-.071-.848-.453-1.114-.313-.198-.666-.301-1.02-.404a5.214 5.214 0 01-.765-.267c-.253-.145-.366-.418-.332-.704a.71.71 0 01.494-.623c.415-.092.996-.104 1.253.302.014.03.03.06.045.088a.644.644 0 01.086.458h-.645l-.003-.024c-.011-.106-.024-.223-.105-.305-.12-.065-.308-.069-.42.004-.078.056-.087.16-.07.245.083.165.25.204.416.244.082.02.163.04.236.074l.024.007c.715.203 1.63.465 1.828 1.296.203.74-.009 1.54-.652 2.034-.764.54-1.84.555-2.757.398-.723-.128-1.448-.607-1.647-1.338a2.302 2.302 0 01-.08-.616v-.165h.003v-3.17h-.656v2.1H8.188v-2.1h-.656v2.1H6.23v.553h1.302v2.1h.656v-2.1h1.949V12h-.646V9.923h-.656v2.1h-1.95v-2.1h-1.3V8.077h1.302v-2.1zM15.859 7.8a1.84 1.84 0 00-.279-.954c-.2-.341-.56-.603-.934-.72-.84-.212-1.802-.197-2.479.358-.606.527-.739 1.416-.46 2.14.298.7 1.075.945 1.751 1.09l.128.031c.155.037.311.074.441.165.083.08.091.201.07.31-.016.08-.09.153-.165.193-.316.109-.657.085-.98.004-.141-.048-.287-.185-.308-.333-.01-.052-.014-.108-.018-.163a1.142 1.142 0 00-.019-.16l-.664.005a1.57 1.57 0 00.05.555c.107.354.486.587.834.667.503.085 1.042.093 1.49-.1a.85.85 0 00.487-.716c.008-.278-.063-.547-.316-.712a4.781 4.781 0 00-.828-.282c-.199-.055-.397-.109-.588-.18a1.53 1.53 0 01-.544-.326c-.32-.318-.344-.816-.232-1.223.1-.37.469-.675.843-.768.448-.096.946-.096 1.37.06.458.168.649.612.674 1.059h.676z" fill="#fff"/></svg>