<!-- by TradingView --><svg xmlns="http://www.w3.org/2000/svg" width="18" height="18"><path fill="#006643" d="M0 0h18v18H0z"/><path d="M13.47 5h-6c-.7 0-1.04.34-1.28 1.32l-.3 1.16c0 .03.03.06.06.03 0 0 .35-.51.94-.51h5.08c.64 0 1.11-.32 1.24-.83l.29-1.14s0-.03-.03-.03zm-1 3H6.74c-.69 0-1 .28-1.28 1.32l-.3 1.15c0 .03.03.06.06.03 0 0 .37-.5.96-.5h4.66c.73 0 1.24-.35 1.47-1.23l.2-.75-.04-.02zm-3.84 3H6c-.68 0-1.02.28-1.26 1.1l-.25.87c0 .02 0 .03.03.03h2.5c.64 0 1.16-.37 1.4-1.18l.23-.79S8.64 11 8.62 11z" fill="#72C642"/></svg>