<!-- by TradingView --><svg width="18" height="18" fill="none" xmlns="http://www.w3.org/2000/svg"><path fill="#021F57" d="M0 0h18v18H0z"/><path d="M5 13h2V8H5.7L9 5l4 3h1L9 4 4 8.571h1V13Z" fill="#F6FAF4"/><path d="M10 12c-.515 0-.88-.098-1.155-.293a1.124 1.124 0 0 1-.474-.94V8.382a.166.166 0 0 0-.084-.152c-.053-.038-.058-.056-.152-.056H8V8h1.56v.175c-.123 0-.56.018-.56.208v2.434c0 .338.211.576.403.715.195.136.456.203.783.203.297 0 .546-.07.75-.208.202-.143.303-.38.303-.71V8.383a.166.166 0 0 0-.084-.152.373.373 0 0 0-.22-.056H10.8V8H12v.175h-.14c-.095 0-.104.018-.16.056a.169.169 0 0 0-.079.152v2.383C11.621 11.59 11.018 12 10 12Z" fill="#F6FAF4"/></svg>