<!-- by TradingView --><svg width="18" height="18" xmlns="http://www.w3.org/2000/svg"><path fill="#54575A" d="M0 0h18v18H0z"/><path d="M10.997 11.966v-4.3-.007a.413.413 0 01.182-.358l2.276-1.453a.325.325 0 01.281-.038l.08.052a.414.414 0 01.183.35V9.04l-.001.008v1.465c0 .014 0 .027-.002.04a.408.408 0 01-.18.31l-2.275 1.453c-.242.155-.544-.04-.544-.35z" fill="#F2BA72"/><path d="M14 10.541V6.23a.4.4 0 00-.213-.351L8.64 3.059c-.284-.156-.637.039-.637.35v4.332c0 .145.082.28.214.352l5.146 2.8c.283.154.636-.04.636-.352z" fill="#EC8834"/><path d="M7 6.02V10.327a.413.413 0 01-.182.359l-2.275 1.453a.325.325 0 01-.28.038l-.081-.052a.414.414 0 01-.182-.35V8.946 8.94 7.474l.002-.04a.408.408 0 01.18-.31L6.456 5.67c.242-.155.544.039.544.35z" fill="#F2BA72"/><path d="M4 7.463v4.312a.4.4 0 00.214.35l5.15 2.82c.283.156.636-.039.636-.35v-4.332a.401.401 0 00-.214-.352l-5.15-2.8C4.354 6.958 4 7.152 4 7.463z" fill="#EC8834"/></svg>