<!-- by TradingView --><svg width="18" height="18" viewBox="0 0 18 18" xmlns="http://www.w3.org/2000/svg"><path fill="#F0F3FA" d="M0 0h18v18H0z"/><path d="M8.3 11.23c-.2 2.08 1.36 2.6 2.17 2.6-.18.07-.71.2-1.4.16C8.05 14 4 13 4 9.14 4 5.3 6.69 4.59 7.5 4.59c.83 0 1.5.44 1.5 1.31C9 7.52 7 7.9 7 9.44c0 1.24.81 1.72 1.3 1.79Z" fill="#05295A"/><path d="M9.7 6.77c.2-2.08-1.36-2.6-2.17-2.6.18-.07.71-.2 1.4-.16C9.95 4 14 5 14 8.86c0 3.84-2.69 4.55-3.5 4.55-.83 0-1.5-.46-1.5-1.33 0-1.62 2-2 2-3.56 0-1.24-.81-1.68-1.3-1.75Z" fill="#BA030E"/><path d="M8.75 8.63c.5-.58.71-1.33.75-1.63.1 0 .5.37.5.8a2.7 2.7 0 0 1-.66 1.6c-.58.61-.8 1.32-.84 1.6-.34-.07-.5-.4-.5-.63 0-.24.11-1 .75-1.74Z" fill="#888686"/></svg>