<!-- by TradingView --><svg width="18" height="18" viewBox="0 0 18 18" xmlns="http://www.w3.org/2000/svg"><path fill="#F0F3FA" d="M0 0h18v18H0z"/><circle cx="9" cy="9" r="5" fill="#00A5FF"/><path d="M9 14c.23 0 .46-.02.68-.05v-.01c-2.46.17-3.5-1.18-3.71-1.87a2.62 2.62 0 0 1-.09-1.69c.28-.82 1.46-1.62 2.32-1.74a6.2 6.2 0 0 1 1.6 0h.2l.14-1.04c-.08-.06-.48-.17-1.48-.17-2.86 0-4.16 1.66-4.54 2.67A5 5 0 0 0 9 14Zm4.03-5.54c.2.15.65.57.84 1.02.03.16-.07.47-.7.47-.63 0-.69-1.09-.64-1.64l.5.15Z" fill="#006BFF"/><path d="M12.9 11.11c-.86 0-1.41-.42-1.58-.64.69-.07 1-.58 1.07-.82.14.14.53.41.95.41.42 0 .6-.27.62-.41.04.54 0 1.46-1.07 1.46Z" fill="#0041E5"/><path d="M8.86 11c.08 0 .14-.05.14-.12V6.1c0-.07-.08-.12-.16-.1l-.74.27c-.06.02-.1.07-.1.13v3.12c-.13.36-.43.72-1 .72-1 0-1-.88-1-1.18V6.68c0-.06-.08-.1-.15-.09l-.78.27c-.04.01-.07.04-.07.08v2.58c.03.5.43 1.48 1.85 1.48.54 0 .9-.18 1.15-.4v.28c0 .07.06.12.14.12h.72Zm.64-2v3.84c0 .09.07.16.16.16h.68c.09 0 .16-.07.16-.16v-2a1.54 1.54 0 0 0 1.2.08c-.32-.17-.5-.4-.58-.52l.04-.06a1.17 1.17 0 1 1 1.25-.9v.01c.15.19.29.3.42.4.11-.26.17-.55.17-.85 0-1.1-.8-2-1.8-2-.25 0-.49.06-.7.17v-.01a.16.16 0 0 0-.16-.16h-.68a.16.16 0 0 0-.16.16V9Z" fill="#F0F3FA"/><circle cx="11.27" cy="9.16" r="1.02" fill="#5DD83F"/></svg>