<!-- by TradingView --><svg width="18" height="18" viewBox="0 0 18 18" xmlns="http://www.w3.org/2000/svg"><path fill="#F0F3FA" d="M0 0h18v18H0z"/><path d="M5.83 12 3 5.5l10.17 1.95L5.83 12Z" fill="#00A1B4"/><path d="m4 6.5 9.17.95L5.83 12 4 6.5Z" fill="#20BCD1"/><path d="M5.83 12H16l-2.83-4.55L5 7l.83 5Z" fill="url(#ae2jxotny)"/><path d="M6.5 8H6v2.14c0 .47.32.86.72.86h.56c.4 0 .72-.39.72-.86V8h-.5v1.94c0 .3-.22.56-.48.56h-.04c-.26 0-.48-.25-.48-.56V8Z" fill="#fff"/><path fill-rule="evenodd" d="M9.5 10H9v1h-.5V8h1a1 1 0 1 1 0 2ZM9 8.5h.5a.5.5 0 1 1 0 1H9v-1ZM11.5 11H11V8h1.5a1.5 1.5 0 1 1 0 3h-1Zm0-2.5h1a1 1 0 1 1 0 2h-1v-2Z" fill="#fff"/><defs><linearGradient id="ae2jxotny" x1="4.34" y1="6.76" x2="16.35" y2="11.64" gradientUnits="userSpaceOnUse"><stop stop-color="#007786"/><stop offset="1" stop-color="#004E58"/></linearGradient></defs></svg>