<!-- by TradingView --><svg xmlns="http://www.w3.org/2000/svg" width="18" height="18" viewBox="0 0 18 18"><path fill="#F0F3FA" d="M0 0h18v18H0z"/><path d="M6.77 4.53L8.06 6l.88-2c-.78.01-1.52.2-2.17.53z" fill="#FFDD84"/><path d="M6.82 13.5L8.04 12l.88 2c-.75 0-1.46-.18-2.1-.5z" fill="#1270A4"/><path d="M11.25 4.53L9.98 6l-1-2H9c.81 0 1.57.2 2.25.53z" fill="#FDB513"/><path d="M11.2 13.48L9.97 12l-1 2h.01c.8 0 1.56-.19 2.22-.52z" fill="#06466C"/><path d="M9 4h-.07l-.87 2h1.93l-1-2z" fill="#FDCA4D"/><path d="M4.58 11.35L6 9.9l-2-.82c.01.83.22 1.6.58 2.28z" fill="#27BFCC"/><path d="M4.56 6.72L6 8.13l-2 .9v-.01c0-.83.2-1.61.56-2.3z" fill="#9AD9E2"/><path d="M4 9.03v.07l2 .8V8.12l-2 .9z" fill="#69CBD6"/><path d="M13.42 11.34L12 9.87l2-.82c-.01.83-.22 1.6-.58 2.29z" fill="#D22135"/><path d="M13.42 6.65L12 8.11l2 .9V9c0-.84-.2-1.64-.58-2.34z" fill="#F16A78"/><path d="M14 9v.07l-2 .8V8.1l2 .9z" fill="#EB4A5C"/><path d="M8.98 14H8.9l-.87-2h1.93l-1 2z" fill="#0F5980"/><path d="M11.52 4.68a5.03 5.03 0 0 1 1.77 1.75l-1.5-.24-.27-1.51z" fill="#F68D20"/><path d="M6.48 4.68A5.03 5.03 0 0 0 4.7 6.44l1.5-.25.28-1.5z" fill="#86CFB1"/><path d="M11.48 4.66L10 6.2h1.84l-.3-1.5-.06-.03z" fill="#F9A55D"/><path d="M6.51 4.67l1.5 1.52H6.14l.31-1.5.05-.02z" fill="#65C39E"/><path d="M11.84 8l1.45-1.57-1.45-.25V8z" fill="#F47822"/><path d="M6.16 8L4.7 6.44l1.46-.25V8z" fill="#6AC59C"/><path d="M10 6.19h1.84V8H10V6.19z" fill="#F6931E"/><path d="M8 6.2H6.15V8H8V6.2z" fill="#47BB8A"/><path d="M6.52 13.34a5.02 5.02 0 0 1-1.78-1.75l1.5.25.28 1.5z" fill="#27B1E5"/><path d="M6.55 13.36L8 11.84H6.2l.3 1.5.05.02z" fill="#11A1D5"/><path d="M6.2 10l-1.46 1.6 1.46.24V10z" fill="#5FCCF3"/><path d="M8 11.84H6.2V10H8v1.84z" fill="#22AEE3"/><path d="M11.5 13.34a5.02 5.02 0 0 0 1.77-1.75l-1.5.25-.28 1.5z" fill="#7C1228"/><path d="M11.46 13.36L10 11.84h1.82l-.31 1.5-.05.02z" fill="#921944"/><path d="M11.81 10l1.46 1.6-1.46.24V10z" fill="#981A40"/><path d="M10 11.84h1.82V10H10v1.84z" fill="#AF2D5D"/></svg>