<!-- by TradingView --><svg width="18" height="18" viewBox="0 0 18 18" xmlns="http://www.w3.org/2000/svg"><path fill="#F0F3FA" d="M0 0h18v18H0z"/><circle cx="9" cy="9" r="6" fill="#FEE101"/><path d="M8.05 3.07c-2 .31-3.83 1.75-4.6 3.62a6.05 6.05 0 0 0 .68 5.82 6.02 6.02 0 0 0 10.72-4.93 5.91 5.91 0 0 0-1.7-2.9 5.97 5.97 0 0 0-5.1-1.6ZM10 3.5c.1.03.08.05-.23.38-.44.48-1.46 1.45-3.77 3.6-1.07 1-2.06 1.95-2.21 2.12-.25.28-.28.3-.33.22a2.37 2.37 0 0 1-.1-.8 5.93 5.93 0 0 1 4.7-5.62 5.08 5.08 0 0 1 1.94.1Zm2.6 1.22a5.82 5.82 0 0 1 1.68 2.4c.28.75.39 1.89.26 2.76a6.1 6.1 0 0 1-.83 2.15l-.09.11-1.02-1.04a52.97 52.97 0 0 1-3.52-3.84c0-.02.49-.48 1.09-1l1.55-1.4c.25-.25.48-.43.5-.42.03.01.2.14.37.28ZM8.51 8.07c.04.03.1.1.11.16.04.14-.18.84-.44 1.44L8 10.1l1.65 1.68c1.8 1.84 2.14 2.01 2.1 2.05-.55.55-1.96.83-2.7.83-1.5 0-2.9-.61-3.98-1.67l-.4-.38.03-.23c.1-.65 1.04-1.97 2.46-3.43.77-.8 1.1-1 1.35-.87Z" fill="#231816"/></svg>