<!-- by TradingView --><svg width="18" height="18" viewBox="0 0 18 18" xmlns="http://www.w3.org/2000/svg"><path fill="#F0F3FA" d="M0 0h18v18H0z"/><path d="M7.33 3.67c0-.37.3-.67.67-.67h1.33c.37 0 .67.3.67.67v.66c0 .37-.3.67-.67.67H7.93c-.09-.01-.18 0-.24.06-.1.09-.11.25-.06.38.02.07.04.15.04.23v.66c0 .08-.02.16-.04.23-.05.13-.05.3.06.38.06.06.15.07.24.06H9.33c.37 0 .67.3.67.67v.66c0 .37-.3.67-.67.67H7.93c-.09-.01-.18 0-.24.06-.1.09-.11.25-.06.38.02.07.04.15.04.23v.66c0 .08-.02.16-.04.23-.05.13-.05.3.06.38.06.06.15.07.24.06H9.33c.37 0 .67.3.67.67v.66c0 .37-.3.67-.67.67H8a.67.67 0 0 1-.67-.67v-.66c0-.08.02-.16.04-.23.05-.13.05-.3-.06-.38a.31.31 0 0 0-.24-.06H5.67a.67.67 0 0 1-.67-.67v-.66c0-.37.3-.67.67-.67H7.07c.09.01.18 0 .24-.06.1-.09.11-.25.06-.38a.67.67 0 0 1-.04-.23v-.66c0-.08.02-.16.04-.23.05-.13.05-.3-.06-.38A.31.31 0 0 0 7.07 7H5.67A.67.67 0 0 1 5 6.33v-.66c0-.37.3-.67.67-.67H7.07c.09.01.18 0 .24-.06.1-.09.11-.25.06-.38a.67.67 0 0 1-.04-.23v-.66Zm2.67 2c0-.37.34-.67.75-.67h1.5c.41 0 .75.3.75.67v.66c0 .37-.34.67-.75.67h-1.5c-.41 0-.75-.3-.75-.67v-.66Zm-5 8c0-.37.34-.67.75-.67h1.5c.41 0 .75.3.75.67v.66c0 .37-.34.67-.75.67h-1.5c-.41 0-.75-.3-.75-.67v-.66ZM10.75 9c-.41 0-.75.3-.75.67v.66c0 .37.34.67.75.67h1.5c.41 0 .75-.3.75-.67v-.66c0-.37-.34-.67-.75-.67h-1.5ZM10 13.67c0-.37.34-.67.75-.67h1.5c.41 0 .75.3.75.67v.66c0 .37-.34.67-.75.67h-1.5c-.41 0-.75-.3-.75-.67v-.66Z" fill="url(#ac4wwijrv)"/><defs><linearGradient id="ac4wwijrv" x1="9" y1="3" x2="9" y2="15" gradientUnits="userSpaceOnUse"><stop stop-color="#55F5A3"/><stop offset="1" stop-color="#3BA4AC"/></linearGradient></defs></svg>