<!-- by TradingView --><svg xmlns="http://www.w3.org/2000/svg" width="18" height="18"><path fill="#F0F3FA" d="M0 0h18v18H0z"/><ellipse cx="8.99" cy="9" rx="5.99" ry="6" fill="#00044C"/><ellipse cx="8.99" cy="9" rx="5.62" ry="5.63" fill="url(#akoap5o4l)"/><path d="M4.35 5.52l.57-.9 2.42-1.25-1.37 6.84c-.12.72.45.88.76.87.89-.03 1.23-.81 1.28-1.2l.93-4.26h2.53l-.94 4.2a3.85 3.85 0 01-1.6 2.61c-1.2.88-2.82.72-3.69.6-.74-.08-1.38-1.3-1.6-1.9l-.2-.97.9-4.64z" fill="#00044C"/><path d="M3.84 10.29l1.13-5.74a5.84 5.84 0 011.97-1.2l-1.34 6.7c-.08.31-.19 1.32 1.1 1.41 1.02.07 1.51-.75 1.63-1.17L9.3 6H11l-.93 4.06a3.27 3.27 0 01-1.52 2.19c-1.09.76-2.87.5-3.55.2-.93-.42-1.24-1.6-1.15-2.16z" fill="#F0F3FA"/><path d="M10.2 13.13l1.24-5.63h2.23l-.06.28c.24-.23.68-.36.87-.4l.3 2h-.68c-.53-.04-.87.77-.97 1.18l-.56 2.56H10.2z" fill="#00044C"/><path d="M10.68 12.75l1.06-4.88h1.38l-.2.98h.2a2.9 2.9 0 011.73-1.15c.1.27.15.96.15 1.3h-.86c-.96 0-1.36 1.22-1.47 1.79l-.45 1.96h-1.54z" fill="#F0F3FA"/><defs><linearGradient id="akoap5o4l" x1="6.22" y1="4.47" x2="12.52" y2="12.19" gradientUnits="userSpaceOnUse"><stop stop-color="#F3DE23"/><stop offset="1" stop-color="#DA8421"/></linearGradient></defs></svg>