<!-- by TradingView --><svg width="18" height="18" viewBox="0 0 18 18" xmlns="http://www.w3.org/2000/svg"><path fill="#F0F3FA" d="M0 0h18v18H0z"/><path d="M4 5.65C4.05 4.42 5.45 4.04 6 4v7.62c0 1.36.53 2.15.94 2.38H5.52A1.68 1.68 0 0 1 4 12.33V5.65Z" fill="url(#a0lx0v3aw)"/><path d="M14 5.65c-.05-1.23-1.45-1.61-2-1.65v7.62c0 1.36-.53 2.15-.94 2.38h1.42A1.68 1.68 0 0 0 14 12.33V5.65Z" fill="url(#b0lx0v3aw)"/><path d="M7 4h4v7.66c0 .74-.64 1.34-1.43 1.34H8.43C7.63 13 7 12.4 7 11.66V4Z" fill="url(#c0lx0v3aw)"/><defs><linearGradient id="a0lx0v3aw" x1="5.47" y1="4" x2="5.47" y2="14" gradientUnits="userSpaceOnUse"><stop stop-color="#0165A3"/><stop offset="1" stop-color="#015581"/></linearGradient><linearGradient id="b0lx0v3aw" x1="12.53" y1="4" x2="12.53" y2="14" gradientUnits="userSpaceOnUse"><stop stop-color="#0165A3"/><stop offset="1" stop-color="#015581"/></linearGradient><linearGradient id="c0lx0v3aw" x1="9" y1="4" x2="9" y2="13" gradientUnits="userSpaceOnUse"><stop stop-color="#F13224"/><stop offset="1" stop-color="#FFB858"/></linearGradient></defs></svg>