<!-- by TradingView --><svg width="18" height="18" xmlns="http://www.w3.org/2000/svg"><path fill="#0C2074" d="M0 0h18v18H0z"/><path d="M3 6v6.21L9 14l6-1.79V6H3z" fill="#D62A43"/><path d="M7 12h2V7H7v2.72c0 .772-.287.93-.614.93-.558 0-.673-.39-.673-.949V7H4v3.483C4 11.59 4.608 12 5.502 12c.76 0 1.143-.13 1.498-.614V12zm5.133-3.922c.112.084.152.327.16.486h1.55C13.8 7.322 12.691 7 11.727 7c-.894 0-2.125.229-2.125 1.452 0 .83.525 1.28 1.824 1.522.792.149.938.233.938.513s-.353.374-.577.374c-.206 0-.37-.056-.455-.14a.61.61 0 01-.207-.43H9.5C9.525 11.543 10.678 12 11.728 12 12.813 12 14 11.635 14 10.291c0-.794-.5-1.158-1.067-1.354-.3-.109-.622-.17-.901-.223-.248-.048-.462-.089-.596-.15-.095-.047-.198-.112-.198-.252 0-.318.275-.374.517-.374.137 0 .275.047.378.14z" fill="#fff"/></svg>