<!-- by TradingView --><svg width="18" height="18" xmlns="http://www.w3.org/2000/svg"><path fill="#F6F8FD" d="M0 0h18v18H0z"/><path d="M13.495 12.44c-.319-.119-.454-.167-.454-.294 0-.112.113-.187.32-.187.25 0 .438.07.547.12l.142-.473a1.707 1.707 0 00-.682-.123c-.52 0-.869.156-.979.481-.272-.423-.84-.462-1.317-.462a4.1 4.1 0 00-.732.055v.667c-.148-.465-.61-.722-1.231-.722-.576 0-.988.225-1.163.688-.156-.449-.54-.688-1.146-.688-.684 0-1.103.35-1.236.937h-.941v-.313h.952v-.625H3.987v2.502h.636V13h.946c.103.564.516 1.003 1.189 1.003h.004c.581 0 1-.289 1.175-.774.16.452.552.774 1.134.774.606 0 1.11-.315 1.269-.838v.782c.13.023.343.045.669.045.495 0 .843-.093 1.12-.31.24-.186.43-.508.439-1.004.123.115.293.205.496.277.285.097.397.164.397.287 0 .127-.112.206-.345.206-.137 0-.272-.023-.392-.056-.092.189-.218.34-.362.451l-.014.01c.147.073.433.146.727.146.739 0 1.076-.369 1.076-.801 0-.351-.202-.59-.655-.758zm-6.703 1.09h-.008c-.326 0-.614-.327-.61-.778 0-.437.284-.749.61-.749.33 0 .605.312.605.745 0 .455-.271.782-.597.782zm2.317-.011c-.327 0-.603-.316-.6-.767 0-.437.273-.749.6-.749.33 0 .636.312.636.745 0 .455-.31.77-.636.77zM11 13.473v-1.528h.151c.405 0 .701.231.701.723 0 .561-.334.806-.852.806z" fill="#EC4025"/><path d="M14.137 11.188c-.401 0-.621-.282-.621-.618 0-.353.245-.633.642-.633.417 0 .628.29.628.613 0 .39-.25.638-.647.638M11.891 6.795c-.814-.324-1.068-.466-1.068-.81 0-.303.287-.617.814-.617.65 0 1.13.314 1.407.436l.363-1.456c-.43-.203-.976-.466-1.752-.466-1.071 0-1.856.515-2.267 1.135V4H7.481v4.087c0 1.082-.08 1.547-.77 1.547-.68 0-.711-.525-.711-1.557V4H4.006v3.936c0 2.184.807 3.205 2.578 3.205 1.809 0 2.804-1.062 2.804-3.165v-.754c.292.42.77.733 1.402.968.727.263 1.014.455 1.014.78 0 .342-.279.555-.871.555-.31 0-.68-.06-1.03-.159-.08.284-.183.55-.317.796a2.988 2.988 0 01-.437.61c.568.177 1.207.26 1.684.26 1.885 0 2.742-1.012 2.742-2.185 0-.95-.526-1.597-1.684-2.052z" fill="#558618"/></svg>