<!-- by TradingView --><svg width="18" height="18" xmlns="http://www.w3.org/2000/svg"><path fill="#008FFF" d="M0 0h18v18H0z"/><path d="M12.904 4.5c-.204 0-.592.261-1.056.734-.464.473-.848 1.02-.848 1.86v3.078C11 11.41 10.176 12 8.998 12 7.821 12 7 11.41 7 10.172V7.094c0-.841-.255-1.387-.718-1.86-.464-.474-.978-.734-1.183-.734a.092.092 0 00-.071.028A.096.096 0 005 4.6v5.774c0 2.505 2.13 3.356 3.998 3.356 1.872 0 4.002-.85 4.002-3.356V4.6a.096.096 0 00-.058-.093.091.091 0 00-.038-.007z" fill="#fff"/></svg>