<!-- by TradingView --><svg xmlns="http://www.w3.org/2000/svg" width="18" height="18" viewBox="0 0 18 18"><path fill="#F0F3FA" d="M0 0h18v18H0z"/><path d="M4 12.38v-6.8L10.34 4 14 5.59v6.8L7.66 14 4 12.38z"/><path d="M7.66 14L4 5.59 10.34 4l2.12 6.02L7.66 14z" fill="url(#aj22fzhif)"/><path d="M5.64 7.72H5V9.1a1.2 1.2 0 1 0 2.41 0V7.72h-.64V9.1a.56.56 0 0 1-1.13 0V7.72zM10.32 7.72H7.9v.65h.8v1.93h.65V8.37h.77l.2-.65z" fill="#fff"/><path fill-rule="evenodd" d="M10.32 10.3l.9-2.58h1.08l.91 2.58h-.74l-.15-.53h-1.1l-.16.53h-.74zm1.1-1.13l.24-.8h.21l.26.8h-.71z" fill="#fff"/><defs><linearGradient id="aj22fzhif" x1="4" y1="5.63" x2="10.52" y2="11.47" gradientUnits="userSpaceOnUse"><stop stop-color="#030303"/><stop offset="1" stop-color="#505254"/></linearGradient></defs></svg>