<!-- by TradingView --><svg width="18" height="18" viewBox="0 0 18 18" xmlns="http://www.w3.org/2000/svg"><path fill="#F0F3FA" d="M0 0h18v18H0z"/><path d="M3.98 8.74V7.4c0-.08 0-.22-.28-.22V7h1.6v.18c-.12 0-.3.05-.3.24v1.49l1 .1V7.4c0-.07-.03-.23-.33-.23V7h1.7v.18c-.12 0-.37.05-.37.24v1.66a32.5 32.5 0 0 0 2 .06V7.22c-.3-.03-.89.08-.92.8l-.3-.05.1-.97h3.22l.12.95C11.6 7.2 12.45 7 13.14 7c.78 0 1.16.16 1.3.22l.07.02c.15.28.17.74.16 1h-.31c-.09-.38-.44-1-1.1-1-1.02 0-1.25 1.1-1.26 1.73a124 124 0 0 0 1.78-.14v.07c-.93.18-3.28.53-5.27.53C3.89 9.43 2 8.96 2 8.61c0-.29.47-.54.7-.64l.09.1c-.05.03-.15.11-.15.23 0 .2.66.38 1.57.51l-.23-.07Zm7.02.3c-.01-.44.07-.79.2-1.06l-.27.04c0-.27-.18-.8-.93-.8V9.1a70 70 0 0 0 1-.06Zm-7 1.01v-.57l1 .14c0 .78.05.96.39.96.27 0 .52-.1.61-.14V9.7l1 .04v1.17l-.54.06-.31-.35c-.44.29-.57.35-.88.35-.9 0-1.28-.59-1.27-.93Zm4.74.95v-.3h.14c.07 0 .12 0 .12-.26V9.7l1-.09v.85c0 .1.02.23.16.23h.13V11H8.74ZM12 9.35l-1 .15c.25 1.22 1.28 1.5 2.23 1.5.75 0 1.37-.18 1.59-.27v-.13c-.08 0-.12-.05-.15-.09a.4.4 0 0 0-.02-.02v-.63c0-.23.24-.29.35-.3v-.1h-2.04v.1c.45 0 .56.2.56.3v.92c-1.15 0-1.5-.95-1.52-1.43Z" fill="#013301"/></svg>