<!-- by TradingView --><svg xmlns="http://www.w3.org/2000/svg" width="18" height="18"><path fill="url(#arzpf0ugg)" d="M0 0h18v18H0z"/><path d="M13.67 9c0-.58-.09-1.15-.26-1.67l-.16-.41A4.67 4.67 0 009 4C6.4 4 4.32 6.24 4.32 9s2.1 5 4.68 5c1 0 1.91-.33 2.67-.9-.67.4-1.45.64-2.29.64-2.58 0-4.67-2.24-4.67-5v-.02l.03.05a4.8 4.8 0 004.65 4.4A4.2 4.2 0 0013.67 9z" fill="#C8000A"/><path d="M13.35 7h-2.74v.75h1.12v2.24h.75V7.75h1.07a6.2 6.2 0 00-.14-.58L13.35 7zm-5.6 0H7v2.5c0 .27.22.5.5.5h2a.5.5 0 00.5-.5V7h-.75v2.24h-1.5V7z" fill="#fff"/><defs><linearGradient id="arzpf0ugg" x1="3.35" y1="3.12" x2="21.9" y2="24.43" gradientUnits="userSpaceOnUse"><stop stop-color="#1A1E21"/><stop offset="1" stop-color="#06060A"/></linearGradient></defs></svg>