<!-- by TradingView --><svg width="18" height="18" xmlns="http://www.w3.org/2000/svg"><path fill="#8B572A" d="M0 0h18v18H0z"/><path d="M13.233 6.5H4.74l-.163.5h8.842l-.187-.5zM13.676 8.85H4.31l-.18.4h9.754l-.207-.4zM13.216 11.003h-8.41l-.05.497h8.46v-.497z" fill="#fff"/><path fill-rule="evenodd" d="M9 13.5a4.5 4.5 0 100-9 4.5 4.5 0 000 9zm0 .5A5 5 0 109 4a5 5 0 000 10z" fill="#fff"/><path fill-rule="evenodd" d="M11.26 12.235c.61-.81 1-1.952 1-3.235s-.39-2.425-1-3.235C10.652 4.955 9.85 4.5 9.003 4.5c-.845 0-1.648.455-2.257 1.265-.608.81-1 1.952-1 3.235s.392 2.425 1 3.235c.61.81 1.412 1.265 2.257 1.265.846 0 1.649-.455 2.257-1.265zM9.003 14c2.075 0 3.757-2.239 3.757-5s-1.682-5-3.757-5-3.757 2.239-3.757 5 1.682 5 3.757 5z" fill="#fff"/><path fill-rule="evenodd" d="M9.92 12.347c.34-.832.56-2.015.56-3.347 0-1.332-.22-2.516-.56-3.347-.17-.417-.359-.721-.544-.913-.183-.191-.33-.24-.432-.24-.103 0-.249.049-.432.24-.185.192-.375.496-.544.913-.339.831-.56 2.015-.56 3.347 0 1.332.221 2.515.56 3.347.17.417.359.721.544.913.183.191.33.24.432.24.103 0 .249-.049.432-.24.185-.192.375-.496.545-.913zM8.945 14c1.125 0 2.036-2.239 2.036-5s-.911-5-2.036-5C7.82 4 6.908 6.239 6.908 9s.912 5 2.036 5z" fill="#fff"/><path d="M8.778 13.932v-9.91h.415v9.91h-.415zM4.679 5.047c.12-.074.254-.058.295.028.041.086.028.225 0 .244-.506.348-1.44 1.582-1.508 3.58-.068 1.996.913 3.326 1.465 3.766.017.014.064.136 0 .249-.065.113-.215.087-.252.073-.383-.37-1.714-1.526-1.678-4.089.035-2.563 1.527-3.758 1.678-3.85zM13.321 5.047c-.12-.074-.254-.058-.295.028-.041.086-.027.225 0 .244.506.348 1.44 1.582 1.508 3.58.068 1.996-.913 3.326-1.465 3.766-.017.014-.064.136 0 .249.065.113.215.087.252.073.383-.37 1.714-1.526 1.678-4.089-.035-2.563-1.527-3.758-1.678-3.85zM2.543 6.399c.076-.11.221-.125.329-.063.108.062.087.26.073.298-1.087 2.647-.022 5.03 0 5.078.013.03.047.186-.082.28-.129.094-.302-.005-.32-.05-1.173-2.905-.095-5.406 0-5.543zM15.457 6.399c-.076-.11-.221-.125-.329-.063-.107.062-.087.26-.073.298 1.087 2.647.022 5.03 0 5.078-.014.03-.047.186.082.28.129.094.302-.005.32-.05 1.173-2.905.095-5.406 0-5.543z" fill="#fff"/></svg>