<!-- by TradingView --><svg xmlns="http://www.w3.org/2000/svg" width="18" height="18"><path fill="#036DB3" d="M0 0h18v18H0z"/><path d="M9.17 8.97l.27.9c1.37-3.35 2.55-4.2 3.12-4.38a5.08 5.08 0 00-.41-.37c-.52.13-1.6.87-2.98 3.85zm4.12-2.54c-.1-.16-.2-.32-.32-.47-.65.21-1.83 1.12-3.44 4.24l.23 1c1.62-3.31 2.83-4.41 3.53-4.77zM9 8.48c.96-2.66 2.08-3.5 2.6-3.75a5 5 0 00-5.2 0c.52.24 1.64 1.09 2.6 3.75zm-.44 1.38l.27-.9C7.46 6 6.37 5.27 5.85 5.13a3.5 3.5 0 00-.4.37c.56.18 1.74 1.03 3.11 4.37zM9 12.87C6.7 9.04 5.24 7.6 4.4 7.05a5 5 0 109.2 0c-.83.54-2.3 2-4.6 5.82zm-.76-1.66c.07-.36.15-.7.23-1-1.61-3.14-2.8-4.04-3.44-4.26l-.32.48c.7.36 1.91 1.46 3.53 4.77zm.7-.06c-.13-.27-.25-.53-.38-.77l-.32.83.4.83.3-.9zm.42.9L9 11.27l-.36.78.36.8.36-.8zm-.03-1.93L9 9.34l-.33.78L9 11l.33-.87zm.03 1.93l-.3-.9.37-.77.33.83-.4.84" fill="#94D4EB"/></svg>