<!-- by TradingView --><svg width="18" height="18" viewBox="0 0 18 18" xmlns="http://www.w3.org/2000/svg"><path fill="#F0F3FA" d="M0 0h18v18H0z"/><path d="M8.45 7.25C6.33 7.25 4.8 6.5 4.27 6c-.1.24-.27.78-.27 1.67 0 2.95 1.64 5.45 2.46 6.33.1-.03.42-.1.54-.1a5.39 5.39 0 0 1-1.38-3.18c0-1.8 2.18-2.7 4.3-3.05 2.89-.44 4.09-.92 4.43-1.06.15-.47.65-1.36.65-1.61-2.02 1.32-3.9 2.25-6.55 2.25Z" fill="#143D8D"/><path d="M7 14c3.56-.73 6.15-4.3 7-6L7 9.48V14Z" fill="url(#aux0i1ubg)"/><defs><linearGradient id="aux0i1ubg" x1="13.56" y1="8.87" x2="6.43" y2="10.83" gradientUnits="userSpaceOnUse"><stop offset=".35" stop-color="#B1C6EE"/><stop offset="1" stop-color="#fff" stop-opacity="0"/></linearGradient></defs></svg>