<!-- by TradingView --><svg width="18" height="18" viewBox="0 0 18 18" xmlns="http://www.w3.org/2000/svg"><path fill="#003449" d="M0 0h18v18H0z"/><path d="M7 13H4.36a.35.35 0 0 1-.36-.34V7.38c0-.11.06-.22.15-.28L8.8 4.06a.38.38 0 0 1 .4 0l4.64 3.02c.1.06.16.17.16.28v5.3c0 .19-.16.34-.36.34H11v-1h1.82c.1 0 .18-.08.18-.17V8a.17.17 0 0 0-.08-.14L9.1 5.29a.2.2 0 0 0-.2 0L5.07 7.86A.17.17 0 0 0 5 8v3.83c0 .1.08.17.18.17H7v1Z" fill="#F0F3FA"/><path d="M7 11H6V8.4c0-.12.07-.23.18-.3l2.6-1.5a.44.44 0 0 1 .44 0l2.58 1.5c.12.06.2.18.2.3V11h-1V8.72a.19.19 0 0 0-.1-.16L9.01 7.53 7.1 8.55A.2.2 0 0 0 7 8.7V11Z" fill="#F0F3FA"/></svg>