<!-- by TradingView --><svg width="18" height="18" viewBox="0 0 18 18" fill="none" xmlns="http://www.w3.org/2000/svg">
<rect width="18" height="18" fill="#F0F3FA"/>
<path d="M5.01732 4.52635C7.65887 3.83179 10.4094 3.81424 13.0217 4.53558C13.8458 4.76279 14.0745 5.27262 13.9801 6.04661C13.7232 8.16229 13.4554 10.2758 13.1764 12.3872C13.085 13.079 12.7376 13.4401 12.0517 13.6137C10.0552 14.1174 8.06005 14.1285 6.06616 13.647C5.02219 13.3939 4.88403 12.8915 4.76338 11.966C4.51301 10.04 4.26848 8.11303 4.02978 6.18515C3.92276 5.31511 4.07162 4.7748 5.01732 4.52635ZM12.3913 4.86439C10.1574 4.32685 7.70654 4.33516 5.48434 4.89579C4.81495 5.06481 4.40826 5.15717 4.50069 5.90068C4.76144 7.9868 5.02575 10.072 5.29364 12.1563C5.36661 12.7234 5.47266 13.0079 6.06032 13.1529C8.01075 13.6338 9.91675 13.6479 11.7783 13.1953C12.3027 13.0679 12.6238 12.9063 12.689 12.3835C12.9595 10.1995 13.2329 8.01482 13.5092 5.82956C13.6016 5.09991 13.0373 5.01955 12.3913 4.86439Z" fill="#D19E2F"/>
<path fill-rule="evenodd" clip-rule="evenodd" d="M12.3914 4.86439C10.1575 4.32685 7.70668 4.33516 5.48447 4.89579C5.47565 4.89802 5.46687 4.90023 5.45813 4.90244C4.80445 5.06736 4.40961 5.16698 4.50082 5.90068C4.76157 7.9868 5.02589 10.072 5.29378 12.1563C5.36675 12.7234 5.4728 13.0079 6.06046 13.1529C8.01089 13.6338 9.91689 13.6479 11.7785 13.1953C12.3029 13.0679 12.624 12.9063 12.6891 12.3835C12.9596 10.1995 13.233 8.01482 13.5093 5.82956C13.5958 5.14717 13.1078 5.03269 12.5158 4.89379C12.4748 4.88417 12.4333 4.87444 12.3914 4.86439ZM10.8191 6.70806C10.6901 6.58676 10.5347 6.52149 10.3531 6.51226C10.244 6.50632 10.306 6.39754 10.3531 6.35432H12.0947C12.1829 6.34755 12.2393 6.36571 12.264 6.40881C12.2911 6.45515 12.2572 6.51465 12.2027 6.51965C11.711 6.56814 11.5974 6.80659 11.4015 7.21749L11.3611 7.30194C11.1269 7.789 10.8963 8.27697 10.6693 8.76587C10.4621 9.21197 10.1157 9.45488 9.70999 9.72734C9.69855 9.73498 9.68482 9.73891 9.67084 9.73857C9.65686 9.73823 9.64337 9.73363 9.63236 9.72545C9.62134 9.71727 9.61339 9.70595 9.60967 9.69315C9.60596 9.68035 9.60668 9.66676 9.61172 9.65438L10.8328 6.77364C10.8431 6.74901 10.8386 6.72715 10.8191 6.70806ZM7.71346 6.68601C7.69968 6.69783 7.68999 6.71342 7.68565 6.73073C7.6813 6.74804 7.68252 6.76627 7.68914 6.783C8.26836 8.27515 8.85375 9.76327 9.4453 11.2473C9.52217 11.4404 9.18747 12.1566 8.99191 12.2247C8.9521 12.2389 8.90857 12.2388 8.87035 12.2246C8.83214 12.2104 8.80215 12.183 8.78662 12.1482C8.06145 10.5037 7.35444 8.86891 6.6656 7.2437C6.5936 7.07397 6.50344 6.9145 6.39512 6.76528C6.37631 6.73917 6.35101 6.72083 6.31923 6.71026L5.66152 6.49483C5.62195 6.48177 5.61514 6.45939 5.64108 6.42768C5.68389 6.37608 5.74714 6.35338 5.83081 6.3596L8.01706 6.35648C8.03556 6.35476 8.09308 6.34946 8.11009 6.35648C8.12711 6.36349 8.14195 6.37451 8.15323 6.38851C8.23298 6.48922 8.06941 6.54493 7.91507 6.59751L7.91506 6.59751C7.83214 6.62575 7.75188 6.65309 7.71346 6.68601Z" fill="#001C59"/>
</svg>
