<!-- by TradingView --><svg width="18" height="18" viewBox="0 0 18 18" xmlns="http://www.w3.org/2000/svg"><path fill="url(#a)" d="M0 0h18v18H0z"/><path d="M9.75 5a6.34 6.34 0 0 0-3.54 6.07L3.1 5.9c-.24-.4.05-.89.52-.89h6.14Z" fill="#FDFFFF"/><path d="M12.84 5c-.94.18-2.35.67-3.53 1.57a5.08 5.08 0 0 0-2.19 4.11c0 .97.24 1.8.42 2.51l.93 1.52c.24.39.82.39 1.06 0l5.38-8.82c.24-.4-.05-.89-.52-.89h-1.55Z" fill="#FDFFFF"/><defs><linearGradient id="a" x1="9" y1="0" x2="9" y2="18" gradientUnits="userSpaceOnUse"><stop stop-color="maroon"/><stop offset="1" stop-color="#EA0001"/></linearGradient></defs></svg>