<!-- by TradingView --><svg width="18" height="18" viewBox="0 0 18 18" xmlns="http://www.w3.org/2000/svg"><path fill="#F0F3FA" d="M0 0h18v18H0z"/><path d="m9.06 9 1.74-3.07L9.07 3V3l4.88 3H11.4S9.83 8.62 9.63 9h-.57ZM6.6 6H4.05L8.9 3v.01L7.19 5.92C7.35 6.27 8.9 9 8.9 9h-.54S6.83 6.45 6.6 6ZM4 6v3h1.67L4 6ZM14 9V6l-1.67 3H14Z" fill="#79211C"/><path d="M14 10h-1.66l1.56 2h-2.34s-1.52-1.7-1.77-2h-.66L11 12.29v.01l-2 1.62-2.03-1.61v-.02L8.86 10V10H8.2c-.25.3-1.78 2-1.78 2H4.01l1.66-2H4v2l5 3 4.93-2.96.06.08H14V10Z" fill="#5E675D"/></svg>