<!-- by TradingView --><svg xmlns="http://www.w3.org/2000/svg" width="18" height="18" viewBox="0 0 18 18"><path fill="url(#a5apqin0b)" d="M0 0h18v18H0z"/><path fill-rule="evenodd" d="M14 9A5 5 0 1 1 4 9a5 5 0 0 1 10 0zm-8.39 1.26l-.94-2h.71l.58 1.3.57-1.3h.7l-.94 2h-.68zm3.72-1V9.43H7.65c.07.21.28.36.52.36.19 0 .4-.06.52-.23l.01-.04v.01l.6.15a.43.43 0 0 1-.05.1c-.2.3-.65.48-1.08.48-.65 0-1.17-.44-1.17-1 0-.55.52-1 1.17-1 .64 0 1.16.45 1.16 1zm-.65-.18a.54.54 0 0 0-.51-.33.54.54 0 0 0-.5.33h1zm1.5.02v1.16H9.5v-2h.67v.2c.23-.22.53-.21.66-.18v.51c-.4-.03-.58.14-.66.3zM11 7.6h.67v.86c.17-.12.38-.2.62-.2.57 0 1.04.45 1.04 1 0 .56-.47 1-1.04 1-.24 0-.45-.07-.62-.19v.2H11V7.6zm.67 1.66c0-.27.23-.49.53-.49.29 0 .53.22.53.5 0 .26-.24.48-.53.48-.3 0-.53-.22-.53-.49z" fill="#fff"/><defs><linearGradient id="a5apqin0b" x1="3.35" y1="3.12" x2="21.9" y2="24.43" gradientUnits="userSpaceOnUse"><stop stop-color="#1A1E21"/><stop offset="1" stop-color="#06060A"/></linearGradient></defs></svg>