<!-- by TradingView --><svg width="18" height="18" viewBox="0 0 18 18" xmlns="http://www.w3.org/2000/svg"><path fill="#F0F3FA" d="M0 0h18v18H0z"/><path d="M12 9c-.6.83-2.05 3-3 5 .58-.3 3.08-1.54 3-5Zm-5.78 1.19c0 .93.35 2.87.53 3.72A3.1 3.1 0 0 1 5 11c0-1.7 1.44-3.72 2.17-4.52L10.03 3l1.68 3.47c-.12.13-.41.41-.66.58-.12-.62-.9-2.07-1.25-2.73-3.4 3.72-3.58 4.71-3.58 5.87Z" fill="#009B62"/><path d="M14.98 6.33c.52 0 .9.13 1.02.17a3.28 3.28 0 0 0-1.61-.5c-3.17 0-5.75 5.4-6 6a12.56 12.56 0 0 1-.27-5A4.73 4.73 0 0 0 7 9.65C7 11 7.74 14.01 8.06 15c3.6-8.3 6.26-8.67 6.92-8.67Z" fill="#58C300"/></svg>