<!-- by TradingView --><svg xmlns="http://www.w3.org/2000/svg" width="18" height="18" viewBox="0 0 18 18"><path d="M18 0H0v18h18V0Z" fill="#F0F3FA"/><path fill-rule="evenodd" d="M14 4H4v10h10V4Zm-.67.73H4.67v8.56h8.66V4.73Zm-.9 5.3v1.18c0 .12-1.86.44-2.61.2a2.4 2.4 0 0 1-1.12-.79 3.29 3.29 0 0 1-.33-1.18l-.6 1.18h-.32c-.6-1.38-1.71-3.78-1.71-3.78s-.16-.05-.32-.05c-.15 0-.3-.29 0-.29H6.87c.1 0 .2 0 .2.1 0 .11-.37.19-.56.2l1.1 2.64.72-1.4.61-1.2c-.03-.08-.16-.1-.29-.1-.13-.02-.26-.04-.26-.14s.17-.1.3-.1H10.1c.25 0 .32.14-.16.3H9.9c-.05 0-.13.01-.18.06l-.4.82.1-.05c.1-.06.27-.17.52-.25.36-.11.9-.08 1.28-.06h.28l.32.03.62.03v1.18h-.31v-.59c-.82-.42-1.99-.45-2.62.27-.57.65-.46 1.94-.02 2.45.26.3.46.38.87.43.3.04.9.08 1.14-.16v-.93c-.1-.1-.28-.09-.4-.08-.13 0-.22 0-.22-.06 0-.15.16-.15.31-.15h1.25c.14 0 .3 0 .31.17 0 .06-.08.06-.16.06-.07 0-.15 0-.15.06Z" fill="#FFC40E"/></svg>