<!-- by TradingView --><svg width="18" height="18" viewBox="0 0 18 18" xmlns="http://www.w3.org/2000/svg"><path fill="#F0F3FA" d="M0 0h18v18H0z"/><path d="M6.82 3.1c.3-.2.7-.1.9.23l1.26 2.21 1.3-2.21c.18-.32.58-.43.9-.23.3.2.4.62.21.94L9.97 6.48c-.46.78-1.53.77-1.98 0l-1.4-2.44a.7.7 0 0 1 .23-.94Z" fill="#A0EFFF"/><path d="M6.82 14.9c.3.2.7.1.9-.23l1.26-2.21 1.3 2.21c.18.32.58.43.9.23.3-.2.4-.62.21-.94l-1.42-2.44a1.13 1.13 0 0 0-1.98 0l-1.4 2.44a.7.7 0 0 0 .23.94ZM12.84 13.88a.7.7 0 0 0 .28-.92l-1.25-2.23h2.48c.36 0 .65-.29.65-.67a.67.67 0 0 0-.65-.68h-2.72c-.87-.01-1.44.94-1.04 1.75l1.37 2.45c.16.34.56.47.88.3ZM5.16 13.88a.7.7 0 0 1-.28-.92l1.25-2.23H3.65a.65.65 0 0 1-.65-.67c0-.37.29-.68.65-.68h2.72c.87-.01 1.44.94 1.04 1.75l-1.37 2.45a.64.64 0 0 1-.88.3ZM5.16 4.14a.7.7 0 0 0-.28.92l1.25 2.22H3.65a.65.65 0 0 0-.65.66c0 .38.29.68.65.69h2.72c.87 0 1.44-.94 1.04-1.75L6.04 4.43a.64.64 0 0 0-.88-.29ZM12.84 4.14a.7.7 0 0 1 .28.92l-1.25 2.22h2.48c.36 0 .65.28.65.66s-.29.68-.65.69h-2.72c-.87 0-1.44-.94-1.04-1.75l1.37-2.45a.64.64 0 0 1 .88-.29Z" fill="#03DFFF"/></svg>