<!-- by TradingView --><svg xmlns="http://www.w3.org/2000/svg" width="18" height="18"><path fill="#356680" d="M0 0h18v18H0z"/><path d="M5.4 7.5h-.67l-.01.02-1.01 2.57-1-2.57-.02-.01-.02-.01h-.65L2 7.51a.03.03 0 000 .04l1.42 3.43.01.01.02.01h.54l.01-.02 1.42-3.43a.03.03 0 000-.04H5.4l-.02-.01zm1.2 0h-.57c-.02 0-.03.01-.03.03v3.44c0 .02.01.03.03.03h.56c.02 0 .03-.01.03-.03V7.53c0-.02-.01-.03-.03-.03zm2.35 0c-1.01 0-1.74.73-1.74 1.75 0 .87.63 1.75 1.83 1.75.6 0 1.07-.23 1.52-.72a.03.03 0 000-.05l-.44-.35a.03.03 0 00-.05 0 1.3 1.3 0 01-1.03.48c-.6 0-1.06-.32-1.17-.86h2.8a.03.03 0 00.04-.03c0-1.18-.7-1.97-1.76-1.97zm0 .64c.55 0 .98.31 1.05.83H7.87c.07-.41.4-.83 1.07-.83zM16 7.51h-.02l-.01-.01h-.6l-.01.02-.78 2.42-.76-2.42-.01-.01-.02-.01h-.6l-.01.02-.77 2.42-.77-2.42v-.01l-.03-.01h-.59l-.01.01a.03.03 0 000 .03l1.16 3.44.01.01h.48l.01-.01.83-2.61.83 2.6V11l.03.01h.46l.01-.02L16 7.54a.04.04 0 000-.03z" fill="#fff"/><path d="M6.31 6.5a.39.39 0 100 .78.39.39 0 000-.78z" fill="#8DBBCA"/></svg>