<!-- by TradingView --><svg width="18" height="18" viewBox="0 0 18 18" xmlns="http://www.w3.org/2000/svg"><path fill="#152640" d="M0 0h18v18H0z"/><path d="M5.8 6h5.85v.19h-.29a3.17 3.17 0 0 1 1.18 2.35c0 .99-2.32 1.98-3.64 2.46 2.98-.2 4.05-1.57 4.05-2.97 0-.9.13-1.25.47-1.25.34 0 .49.24.49.46 0 .23-.25.43-.37.43s-.32-.15-.34-.31l.01.18c.09.86.37 3.76-4.72 3.76-3.46 0-4.07-.43-4.43-1.42.14.28.76.77 2.23 1.01.85-.38 2.26-1.18 2.26-1.93 0-.8-1.58-2.16-2.4-2.77H5.8V6Zm.76 4.93.2.03c.92-.43 2.7-1.47 2.7-2.2 0-.8-1.32-1.97-2.14-2.57h-.57c.77.5 2.24 1.67 2.24 2.6 0 .87-1.51 1.74-2.43 2.14Zm.5.05.24.02c1.04-.5 3.02-1.68 3.02-2.39 0-.8-1-1.82-1.81-2.42h-.6c.77.5 1.99 1.47 1.99 2.4 0 .85-1.85 1.94-2.85 2.4Zm.57.04h.3c1.05-.49 3.3-1.77 3.3-2.5 0-.76-.8-1.72-1.56-2.33H9.1c.75.49 1.68 1.37 1.68 2.3 0 .82-2.04 2-3.16 2.53Zm.66 0h.11c1.14-.46 3.67-1.56 3.67-2.48 0-.97-.58-1.77-1.32-2.35h-.47c.71.5 1.42 1.34 1.42 2.2 0 .83-2.26 2.1-3.4 2.64Zm-1.46.4c-1.86 0-2.66-.79-2.83-1.19.12 1.1.57 1.64.79 1.77h6.96C13.42 12 14 10.5 14 9.8c0-.71-.37-1.52-.59-1.74.13 2.83-3.12 3.43-4.76 3.37H6.83Z" fill="#FEFEFC"/></svg>