<!-- by TradingView --><svg width="18" height="18" viewBox="0 0 18 18" xmlns="http://www.w3.org/2000/svg"><path fill="#F0F3FA" d="M0 0h18v18H0z"/><path d="M8.84 8.4c-1.23.45-2.6 1.2-3.57 2.1 2.27-1.2 5.19-1.8 6.49-2.4a9.35 9.35 0 0 0 2.6-2.1c-2.28 1.2-3.9 1.8-5.52 2.4ZM5.6 9.6C4.03 9.36 3.21 8.5 3 8.1c0 .9.97 1.8 1.62 1.8.52 0 .87-.2.97-.3ZM4.62 10.5c-.78 0-1.4-.8-1.62-1.2.1.5.45 1.5.97 1.5s.65-.2.65-.3Z" fill="#8EC045"/><path d="M3.32 7.8v-.9c.26.96 2.27 1.8 3.25 2.1l-.33.3c-1.81-.24-2.92-.9-2.92-1.5Z" fill="#21AAE2"/><path d="M14.68 10.2c-1.04.96-5.2 1.2-7.14 1.2.54.2 2.14.6 4.22.6 2.07 0 2.8-1.2 2.92-1.8Z" fill="#64318A"/><path d="M6.12 10.7c.84-.43 2.41-1.18 3.37-1.4 1.3-.3 4.21-.9 5.51-2.7-.1.7-.78 2.22-2.6 2.7-2.17.58-4.65.6-6.28 1.4Z" fill="#1575BB"/><path d="M15 8.4c-2.34 1.44-6.38 2.4-8.1 2.7 1.18 0 3.95-.12 5.5-.6A4.27 4.27 0 0 0 15 8.4Z" fill="#1575BB"/></svg>