<!-- by TradingView --><svg xmlns="http://www.w3.org/2000/svg" width="18" height="18" viewBox="0 0 18 18"><path fill="url(#a2nh4bvfb)" d="M0 0h18v18H0z"/><path fill-rule="evenodd" d="M8.34 7.26c-.16-.04-.51-.17-.58-.37v-.02c-.09-.24-.16-.46.4-.99.57-.54 1.58-.88 2.78-.88 1.2 0 .76 1.16.29 1.93-.48.78-.77 1.46-.29 1.33.49-.14 1.96-1.45 2.62-3.18.19.01.53.12.42.47-.14.43-2 3.14-3.51 3.14-.3-.04-.82-.29-.52-.96.1-.21.24-.47.4-.73.45-.8.98-1.72.32-1.84C9.8 5 7.8 6.4 8.34 7.26Zm4.22 1.51c.21.02.36.05.4.07-.1 0-.3.04-.33.04-3.93-.04-5.72.38-6.23.54.12.05.1.19.08.25.5.34.58 1.16.61 1.74.03.58-.63 2.58-1.7 2.6-.86 0-.1-2.96.4-4.44a.9.9 0 0 1-.12-.42c0-.14.17-.2.25-.21.34-1.4 1.15-4.14 1.72-3.92.62.22-.8 2.7-1.24 3.47l-.12.22c-.04.08-.02.17-.01.26l.01.13c2.8-.56 6.03-.35 6.28-.33ZM6.43 8c.2-.77.84-2.64 1.1-2.63.18.03-.36 1.38-1.1 2.63Zm-.28 1.93c-.03 0-.13.05-.26.35-.17.36-.8 3.38-.35 3.37.45 0 1.19-1.26 1.23-2.24.04-.99-.47-1.48-.62-1.48Z" fill="#fff"/><defs><linearGradient id="a2nh4bvfb" x1="3.35" y1="3.12" x2="21.9" y2="24.43" gradientUnits="userSpaceOnUse"><stop stop-color="#1A1E21"/><stop offset="1" stop-color="#06060A"/></linearGradient></defs></svg>