<!-- by TradingView --><svg width="18" height="18" viewBox="0 0 18 18" xmlns="http://www.w3.org/2000/svg"><path fill="#F0F3FA" d="M0 0h18v18H0z"/><path d="M13 9a4 4 0 1 1-8 0 4 4 0 0 1 8 0Z" fill="#616580"/><path d="M14.12 7.96c-.36.09-.82.1-1.38.27-.55.16-.5.2-1.64.89-.24.14-.42-.23-.48-.5-.05-.24-.04-.54.17-.65 1.47.15 1.64.09 2.19-.1.51-.19.47-.19 1-.36.48-.17.76.31.14.45ZM14 12.71c-.25-.15-.53-.38-.94-.6-.4-.2-.39-.14-1.41-.37-.2-.04-.12-.36-.02-.54.1-.17.26-.34.43-.3.78.89.9.95 1.33 1.13.39.18.37.15.76.34.37.17.28.6-.15.34ZM10.34 14.4c-.08-.37-.09-.84-.24-1.4-.14-.57-.18-.5-.83-1.69-.13-.24.23-.42.5-.47.23-.05.52-.03.62.18-.17 1.48-.11 1.66.07 2.22l.32 1.01c.15.5-.32.77-.44.15ZM13.55 10.95c-.4-.12-.86-.36-1.48-.51-.63-.15-.59-.08-2.07-.06-.3 0-.28-.45-.2-.75.08-.26.25-.54.5-.54 1.36.97 1.55 1 2.2 1.12l1.15.22c.56.11.57.73-.1.52Z" fill="#172C4F"/><path d="M14.66 9.8c-.3-.05-.63-.16-1.09-.2-.45-.04-.41 0-1.44.18-.21.03-.25-.3-.22-.5s.12-.41.3-.43c1.04.53 1.18.53 1.64.55l.82.02c.4.02.47.45-.01.38ZM13.96 6.06c-.25.16-.58.3-.95.56-.37.27-.32.28-1 1.1-.13.16-.36-.07-.47-.25-.1-.17-.17-.39-.05-.52 1.13-.28 1.24-.37 1.6-.66l.64-.53c.33-.25.65.03.23.3ZM10.22 3.44c-.04.36-.18.8-.22 1.38-.04.57.01.53.24 1.84.05.27-.34.32-.6.28-.24-.03-.5-.14-.53-.37.63-1.33.63-1.51.64-2.1l.02-1.05c.02-.52.54-.6.45.02ZM7.13 3.67c.09.3.12.68.28 1.15.17.46.2.42.86 1.4.14.2-.2.33-.44.36-.23.03-.5 0-.6-.18.1-1.2.03-1.34-.16-1.8-.18-.43-.18-.4-.35-.84-.17-.42.27-.6.41-.09ZM5.45 4.63c.18.27.36.65.67 1.05.3.4.31.34 1.18 1.04.18.15 0 .43-.17.58-.15.14-.35.24-.5.1-.42-1.28-.52-1.4-.85-1.78l-.59-.7c-.29-.35-.05-.75.26-.3Z" fill="#172C4F"/><path d="M4.47 6.24c.36.26.77.67 1.35 1.05.58.38.56.3 2.02.8.3.11.19.58.04.84-.13.25-.35.48-.61.38-1.12-1.48-1.31-1.59-1.91-1.94-.57-.33-.53-.29-1.1-.63-.53-.32-.4-.96.21-.5ZM3.62 11.6c.36-.19.84-.35 1.38-.67.54-.31.47-.33 1.48-1.32.2-.2.51.09.66.32.13.22.22.5.03.67-1.61.3-1.78.4-2.3.75-.49.33-.44.31-.95.63-.47.3-.91-.07-.3-.38ZM6.9 14.07c.17-.42.48-.9.72-1.57.24-.66.16-.62.35-2.19.04-.32.5-.3.79-.2.26.07.53.25.48.52C8.07 12.07 8 12.28 7.8 12.95c-.2.63-.17.59-.38 1.22-.2.6-.83.62-.52-.1ZM3.34 8.49c.3.04.67.16 1.14.2.47.04.43 0 1.47-.17.2-.04.28.28.28.49 0 .2-.07.4-.25.42-1.14-.52-1.29-.53-1.76-.55l-.85-.02c-.42-.02-.55-.45-.03-.37ZM4.72 13.33c.23-.2.56-.41.9-.75.34-.33.28-.33.84-1.24.11-.19.4-.04.55.1.14.14.25.32.14.48-1.13.53-1.23.64-1.56.99l-.58.64c-.3.3-.69.12-.3-.22Z" fill="#172C4F"/><path d="M8.45 14.65c.04-.3.15-.68.2-1.16.03-.48-.01-.44-.17-1.5-.04-.22.27-.3.48-.3.18 0 .39.07.41.26-.51 1.17-.52 1.32-.53 1.8-.02.45 0 .42-.03.87-.02.43-.43.56-.36.03ZM12.4 13.64c-.2-.19-.38-.46-.7-.73-.32-.28-.32-.23-1.22-.67-.19-.1 0-.34.16-.48.15-.12.35-.22.5-.14.46.95.56 1.03.9 1.3.32.24.3.21.61.46.3.24.07.59-.25.26ZM12.33 5.02c-.25.34-.62.7-.97 1.25-.36.55-.28.54-.76 1.97-.1.3-.52.12-.76-.06-.22-.17-.42-.43-.32-.68 1.35-.96 1.45-1.14 1.77-1.71.3-.54.27-.5.59-1.04.3-.5.87-.3.45.27ZM8.83 5.2c.02.45-.06 1 0 1.7.06.71.12.65.65 2.18.1.32-.36.45-.68.45-.3 0-.63-.08-.72-.35.5-1.72.48-1.94.38-2.64-.1-.65-.1-.6-.18-1.27-.08-.63.53-.84.55-.07Z" fill="#172C4F"/></svg>