<!-- by TradingView --><svg xmlns="http://www.w3.org/2000/svg" width="18" height="18"><path fill="#2B2D2C" d="M0 0h18v18H0z"/><path d="M7.94 10.82L6.32 15 9.5 9.28l.36.14c.42.72 1.93 2.67 2.6 3.38.65.72 1.34 1.67 1.6 2.05L10.8 9.86l3.4.76c.25.05.96.07 1.79.22l-5.6-1.52L14 9l-3.9-.18-.33-.5 1.93-3.73c-.08 0-.3.03-.44.18-.15.16-.15.43-.13.55L9.48 7.85 6 2l3.13 6.36-.09.25L2.5 7c.15.04 2.07.79 2.24.85l2.1.76c.44.16 1.02.42 1.83.65a29.1 29.1 0 00-.73 1.56z" fill="#78787A"/><path d="M11 15L9 3l.1 4.1a741 741 0 00.88 4.85c.09.45.33.91.6 1.55.22.51.37 1.21.42 1.5z" fill="#FBFBFB"/><path d="M9 9c1.28.26 4.02-.1 4.99 0L9 8.5 2.5 7c1.52.75 5.22 1.74 6.5 2z" fill="#78787A"/></svg>