<!-- by TradingView --><svg width="18" height="18" viewBox="0 0 18 18" xmlns="http://www.w3.org/2000/svg"><path fill="#F0F3FA" d="M0 0h18v18H0z"/><path d="M4 6.35c0 1.8.82 5.73 5.16 8.65C13.49 12.08 14 8 14 6.21 14 4.78 10.67 4.19 9 4c-1.67.19-5 .92-5 2.35Z" fill="#503433"/><path d="M4 6.28c0 1.73.8 5.54 5 8.38a10.13 10.13 0 0 0 4.69-8.52c0-1.39-3.23-1.96-4.85-2.14C7.23 4.18 4 4.89 4 6.28Z" fill="url(#apqpahxvo)"/><path d="M4.31 6.47c0 1.63.75 5.2 4.67 7.84a9.47 9.47 0 0 0 4.4-7.96c0-1.3-3.03-1.84-4.54-2-1.5.16-4.53.82-4.53 2.12Z" fill="#503433"/><path d="M4.31 6.4c0 1.57.72 5.01 4.51 7.57a9.15 9.15 0 0 0 4.24-7.7c0-1.25-2.91-1.76-4.37-1.93-1.46.17-4.38.8-4.38 2.06Z" fill="url(#bpqpahxvo)"/><path d="M6.3 6.45v-.34H9v.34h-.32c-.26 0-.32.14-.32.23 0 .06.04.17.06.22l1.1 3.53c.36-.89 1.11-2.73 1.24-3.02.16-.36.23-.65.23-.72-.02-.19-.55-.21-.79-.2V6.1H12v.38c-.36 0-.48.19-.5.27L9.38 13h-.36s-1.96-5.74-2.1-6.19c-.12-.35-.2-.36-.26-.36H6.3Z" fill="#503433"/><path d="M6 6.33V6h2.7v.33h-.42c-.26 0-.28.13-.28.21 0 .07.04.18.06.22L9.22 10c.36-.86 1.11-2.47 1.24-2.75.16-.34.23-.62.23-.69-.02-.18-.39-.23-.69-.23V6h1.7v.36c-.36 0-.48.18-.5.27L9.08 12.5h-.36s-1.96-5.4-2.1-5.82c-.11-.35-.2-.35-.26-.35H6Z" fill="url(#cpqpahxvo)"/><defs><linearGradient id="apqpahxvo" x1="4" y1="6.21" x2="13.69" y2="6.21" gradientUnits="userSpaceOnUse"><stop offset=".07" stop-color="#804118"/><stop offset=".45" stop-color="#FBEE6C"/><stop offset=".52" stop-color="#EDE594"/><stop offset=".82" stop-color="#81421F"/><stop offset=".91" stop-color="#E3D675"/></linearGradient><linearGradient id="bpqpahxvo" x1="4.31" y1="6.34" x2="13.06" y2="6.34" gradientUnits="userSpaceOnUse"><stop offset=".07" stop-color="#804118"/><stop offset=".45" stop-color="#FBEE6C"/><stop offset=".52" stop-color="#EDE594"/><stop offset=".82" stop-color="#81421F"/><stop offset=".91" stop-color="#E3D675"/></linearGradient><linearGradient id="cpqpahxvo" x1="6" y1="7.38" x2="11.7" y2="7.38" gradientUnits="userSpaceOnUse"><stop offset=".16" stop-color="#804118"/><stop offset=".43" stop-color="#FBEE6C"/><stop offset=".57" stop-color="#EDE594"/><stop offset=".8" stop-color="#81421F"/><stop offset=".91" stop-color="#E3D675"/></linearGradient></defs></svg>