<!-- by TradingView --><svg width="18" height="18" viewBox="0 0 18 18" fill="none" xmlns="http://www.w3.org/2000/svg"><path fill="#F0F3FA" d="M0 0h18v18H0z"/><path d="M7.95 6.16c-.46.11-.84.5-.97.68l3.86.9c.1.02.64.03.9.03-.11-.25-.41-.8-.75-1.05a5 5 0 0 0-1.72-.75c-.38-.04-.73.04-1.32.19Z" fill="#007EC1"/><path d="m8.07 7.67-1.35-.55c.07-.1.22-.3.29-.37.08-.08.3-.11.72-.2.42-.1.5 0 .57 0 .09 0 .3-.1.48-.18.19-.08.9.11 1.07.17.17.06.34.26.46.43.13.18.58.25.71.34.13.1.37.13.54.2.18.08.35.52.4.77.05.2.09.54.1.68l-4-1.29Z" fill="#FCFCFC"/><path d="m10.22 9.1-.12-.14.87-.84.02.16-.68.74-.09.07Z" fill="url(#ao10ugv0q)"/><path d="m10.1 9.6-.2.26.17.41.3.58.11.64.19-.52.35-1 .04-.3-.08-1.41-.77.85-.12.5Z" fill="url(#bo10ugv0q)"/><path d="m6.51 9.08.13.68-.1.07-.32.21-.07-.04-.14-.78L6 8.3c0-.03.18-.35.28-.51l.1.24.14 1.05Z" fill="url(#co10ugv0q)"/><path d="M8.41 9.64A1.08 1.08 0 0 0 8 9.32l.3-.03c.45-.02.63.03 1 .2.36.18.55.65.63.88.08.22.13.75.11.91-.01.14-.1.44-.13.57-.16.06-.54.17-.81.19-.33.02-.8-.08-1.01-.17a.9.9 0 0 1-.32-.2c.25-.12.48-.43.56-.58.04-.1.14-.3.18-.43l.09-.47a.99.99 0 0 0-.18-.55Z" fill="url(#do10ugv0q)"/><path d="M8.58 10.08a1.3 1.3 0 0 1-.05.46c-.06.17-.2.5-.3.69-.08.14-.23.28-.35.37a.3.3 0 0 1-.3.03 6.4 6.4 0 0 1-.83-.66 42.2 42.2 0 0 1-.42-.65c-.1-.14-.1-.31.05-.4l.06-.04a3.69 3.69 0 0 1 1.51-.55c.21 0 .45.3.5.37.05.07.1.2.13.38Z" fill="url(#eo10ugv0q)"/><path d="M6.08 8.44s.05.08.1.1c.05.03.09-.03.07-.1 0-.06-.07-.2-.1-.27l-.08.21.01.06Zm.17.72a.4.4 0 0 0-.02-.2.68.68 0 0 0-.16-.2l-.08.23.07.3.19-.13Z" fill="#00794B"/><path d="m6.3 9.1-.28.18.02.1.14.68.13-.08V9.1Z" fill="url(#fo10ugv0q)"/><path d="m6.32 7.75.32 2.02.41-.21.31-.1-.02-.96h-.22l-.05-.04.22-.3v-.7l-.97.3Z" fill="url(#go10ugv0q)"/><path d="m7.27 7.47-.92.26v-.15l.9-.27.02.16Z" fill="#D75639"/><path d="m7.28 7.31-.94.28.06-.2.83-.22.05.14Z" fill="#EFE644"/><path d="m7.24 7.15-.73.19.09-.17.64-.2v.18Z" fill="#EB8D4D"/><path d="M7.25 7.18v-.2h1.03l.03.07-.08.28v.61l.04.16-1 .08.01-.75-.03-.25Z" fill="url(#ho10ugv0q)"/><path d="m7.37 8.5-.29-.04.2-.28.97-.08.23.42-1.1-.01Z" fill="#104F1F"/><path d="m8.93 6.78-.4-.01c0-.02.02-.07.06-.1a.62.62 0 0 1 .18-.06l.04-.09c.03-.05.13-.15.24-.16.11 0 .22.08.26.13.18-.06.26.05.28.11l-.16.08a.62.62 0 0 0-.1.17c-.05 0-.14.03-.17.05a.21.21 0 0 0-.07.07l-.16-.2Z" fill="url(#io10ugv0q)"/><path d="M8.94 6.76h-.4l-.23.25-.04.18h.96l-.29-.43Z" fill="url(#jo10ugv0q)"/><path d="m9.24 7.19-.15-.21.08-.08.15-.04.09-.15.14-.1.18.02.12.14.04.06h.16l.16.1.05.2-.03.2-.28.02-.05-.03-.06.05-.28.28-.16.17-.03.55-.02.46-.02.16-.14.36v-.3l.05-.46v-1.4Z" fill="url(#ko10ugv0q)"/><path d="m9.42 7.26.13.32v.07l.14-.13.12-.17.07-.2s-.03-.04-.09 0l-.19.08-.05-.05c-.04-.04-.14-.1-.19-.09-.05.03 0 .06.06.17Z" fill="url(#lo10ugv0q)"/><path d="M7.35 9.46v-.97l.95.02v.78h-.08l-.31.04-.56.13Z" fill="url(#mo10ugv0q)"/><path fill="#0E94D3" d="M7.42 8.58h.19v.54h-.19zM7.75 8.7l-.02.66.09-.02.05-.46h.12l.04.05v.4l.15-.03-.06-.6h-.37Z"/><path d="m7.87 8.89-.05.46.22-.05-.02-.4-.15-.01Z" fill="#AABE7B"/><path d="M8.24 7.94v-.59l.04-.17.95-.01v1.48l-.05.39v.37l-.12-.02-.2-.08-.33-.04-.22.01v-.75h.15l-.01-.05-.17-.39-.04-.15Z" fill="url(#no10ugv0q)"/><path fill="url(#oo10ugv0q)" d="M8.39 7.46h.26v.47h-.26z"/><path fill="url(#po10ugv0q)" d="M8.82 7.46h.26v.47h-.26z"/><path fill="url(#qo10ugv0q)" d="M8.82 8.02h.26v.35h-.26z"/><path fill="#E3E16A" d="M8.39 8.02h.26v.35h-.26z"/><path d="m8.71 8.46-.24.22.59.03-.22-.25h-.13Z" fill="#A23B2A"/><path d="M8.45 8.7v.57l.26.02.35.09v-.69h-.6Z" fill="#DDD47E"/><path d="M8.6 8.86v.41l.33.07v-.48H8.6Z" fill="url(#ro10ugv0q)"/><path d="m9.34 8.93-.14.49.32.24.18.24.2-.3.13-.4.23-.84-.33-1-.04-.03-.05.04-.44.46-.06 1.1Z" fill="url(#so10ugv0q)"/><path d="m9.5 8.84-.05.4.16.07.1-.42-.2-.05Z" fill="#DC753C"/><path d="m9.78 9.78-.39-.37-.06.1.2.14.15.26.1-.13Z" fill="#6B7016"/><path d="m10.5 7.3-.57.04.31 1 .45.02.2-.22-.38-.84Z" fill="url(#to10ugv0q)"/><path d="m10.38 7.9.06-.3.21.08-.1.27-.17-.05Z" fill="#D75639"/><path d="m10.08 8.95.18-.59h.44l-.51.54-.1.05Z" fill="url(#uo10ugv0q)"/><path d="m10 9.73-.1-.13.04-.12.13-.51.14.12-.12.51-.1.13Z" fill="#5EA5CC"/><path d="m9.99 10.19-.14-.27-.1.07.17.35.07-.15Z" fill="#37481B"/><path d="m10.18 10.62-.1-.18-.11.13.05.23.16-.18Z" fill="#739049"/><path d="m9.97 11.69-.06.12.4-.11v-.25l-.34.24Z" fill="#0C3621"/><path d="m10.34 9.67-.16-.1.16-.41.18.08-.18.43Z" fill="#5F737E"/><path d="m10.76 9.5-.17-.14-.23.39.1.12.3-.36ZM11.01 9.83l-.17-.15-.23.4.1.1.3-.35Z" fill="#57636C"/><path d="m10.55 10.35-.11.07.01.17-.08.12.13.2.05-.1.15-.36-.15-.1Z" fill="#8BBBBC"/><path d="m10.65 7.33-.14.01.37.79.58-.02.04-.11a.18.18 0 0 0-.05-.1.25.25 0 0 0-.12-.06v-.1l-.07-.21a.43.43 0 0 0-.18-.12c-.08-.02-.16.04-.2.07l-.06-.07a.31.31 0 0 0-.17-.08Z" fill="url(#vo10ugv0q)"/><path d="m11.04 9.63-.05-1.5h.57l.46 1.01-.04.3-.91.23-.03-.04Z" fill="url(#wo10ugv0q)"/><path d="m11.02 9.96-.62 1.75.88-.68c.1-.16.35-.53.47-.74.13-.2.23-.65.27-.84l-.95.22-.05.3Z" fill="url(#xo10ugv0q)"/><path d="M11.27 10.35h-.17l.08-.55h.24l-.15.55Z" fill="url(#yo10ugv0q)"/><path d="M11.62 10.25h-.17l.08-.55h.24l-.15.55Z" fill="url(#zo10ugv0q)"/><path d="m10.87 10.72-.11.68.11-.03.09-.52.42.02.07-.13-.43-.02h-.15Z" fill="#8BBBBC"/><path d="m11.35 10.87-.4-.03-.1.52.26-.22.24-.27Z" fill="#AE6A4B"/><path d="M9 3.34a5.7 5.7 0 1 0 0 11.39 5.7 5.7 0 0 0 0-11.4Zm0 8.96a3.29 3.29 0 1 1 0-6.58 3.29 3.29 0 0 1 0 6.58Zm1.2-6.16a3.11 3.11 0 1 0-2.42 5.74 3.11 3.11 0 0 0 2.43-5.74ZM11.96 9a2.94 2.94 0 1 1-5.87 0 2.94 2.94 0 0 1 5.87 0Zm2.93-1.21a6 6 0 1 0-11.76 2.42A6 6 0 0 0 14.88 7.8Zm-.15 2.39A5.85 5.85 0 1 1 3.27 7.83a5.85 5.85 0 0 1 11.46 2.35Z" fill="#000101"/><path d="M6.13 6.73 4.46 6.3l.19-.36.85.28-.47-.77.31-.26.8 1.55h-.01ZM6.8 6 5.8 4.75l-.29.28 1.02 1.24L6.8 6Zm.9-.49-.07-.37-.46.24-.58-1.13-.33.21.72 1.42.72-.37Zm.21-1.72-.38.11.33 1.56.79-.17.03-.37-.51.1L7.9 3.8ZM9.09 5.3l-.37-.14L9.8 3.73l.61 1.7-.4.02-.11-.36-.6-.1-.2.32Zm.35-.6.42.07-.15-.41-.27.35Zm1.52 1.2c.2.11.42.19.65.2l.43-.7-.59-.36-.27.23.35.22-.12.2c-.06 0-.17-.05-.22-.08-.24-.14-.34-.41-.19-.66a.46.46 0 0 1 .65-.16c.12.08.2.19.24.32l.35-.12a.96.96 0 0 0-.72-.63.83.83 0 0 0-.57 1.53ZM12.13 7l.32-.14-.4-.49.24-.2.26.32.26-.21-.26-.32.22-.17.36.44.22-.26-.58-.7-1.22 1.01.58.71Zm-7.27.41.28-.27-.28-.28-.27.28.27.27Zm3.03 6.03.27.27.28-.27-.28-.28-.27.28Zm4.98-6.34.28.28.28-.28-.28-.27-.28.27ZM4.16 8.85c.59.09.53-.65.78-.61.09.01.11.12.1.2-.02.12-.07.18-.16.26l.24.26c.14-.13.23-.3.26-.49.05-.29-.09-.6-.4-.66-.58-.08-.54.65-.79.62-.1-.02-.12-.15-.1-.24a.39.39 0 0 1 .17-.28l-.27-.28a.86.86 0 0 0-.27.53c-.05.33.08.64.44.7Zm.29 1.68 1.08-.2-.11-.39-.87.16c-.22.04-.4.04-.45-.21-.04-.2.1-.27.26-.3l1-.19-.11-.39-1.07.2c-.39.07-.52.37-.45.74.08.4.35.65.72.58Zm.48.87-.08-.12-.49.29-.23-.33 1.41-.83.25.42c.2.35.23.63-.12.83-.27.16-.58.03-.75-.26Zm.54-.08c.1-.06.11-.16.04-.3l-.06-.09-.3.18.06.1c.07.13.17.16.26.1Zm.61 1.34.24-.25-.3-.29.18-.2.43.4.18-.3-.67-.62-1.1 1.18.68.64.3-.18-.46-.44.22-.23.3.29Zm1.59.37c-.07.15-.24.27-.41.25l.12.75-.42-.06-.1-.9-.3.64-.39-.14.72-1.47.4.2c.35.16.54.4.38.73Zm-.57-.45-.2.4c.15.09.3.1.38-.07.09-.18-.03-.27-.18-.33Zm2.93-.02-.39 1.06L9 12.7l-.22 1.69h.41l.04-.79.49.72.32-.83.25.75.39-.11-.65-1.57Zm.7-.33 1.53 1-.32.28-.31-.23-.54.3.02.37-.38.12v-1.83Zm.3 1.03.38-.2-.38-.25v.45Zm1.49-1.27.75.1-.19.4-.88-.2.51.5-.25.31-1.18-1.13.31-.33c.26-.27.55-.38.82-.12.11.11.18.31.1.47h.01Zm-.35-.14c-.14-.13-.26-.05-.37.07l.33.31c.12-.11.18-.25.04-.38Zm.55-1.91-.26.3.43.81v.01l-.67-.31-.14.38 1.48.7.14-.38-.68-.32v-.01l.96-.14.09-.43-.94.17-.41-.78ZM14 9l-.07.63-.31-.04.04-.41-.33-.04-.05.41-.28-.03.07-.58-.35.03-.1.91 1.6.18.1-.93-.32-.13Zm-1.13-1.37-.36.07.21 1.09.38.03-.08-.41 1.25-.24-.11-.39-1.21.23-.08-.38Z" fill="#fff"/><path d="m8.5 6.76.02-.02h.4c.02 0 .03 0 .04.02l.3.4c.01.01 0 .05-.03.05h-.97v-.06h.92l-.26-.35h-.38l-.22.26-.05-.04.23-.26ZM6.24 10.08l-.03-.05.02-.01.02-.02a3.12 3.12 0 0 1 .58-.36c.38-.2.94-.39 1.63-.39.7 0 1.1.33 1.32.72.22.38.27.82.3 1.05.02.37-.13.75-.2.9l-.06-.03c.08-.14.22-.51.2-.87a2.51 2.51 0 0 0-.3-1.03c-.2-.36-.58-.68-1.26-.68a3.6 3.6 0 0 0-2.2.75l-.02.02Z" fill="#000"/><path d="M8.32 9.58c-.13-.13-.29-.2-.39-.24l.02-.06c.11.04.27.12.41.26a.8.8 0 0 1 .25.57c0 .6-.3 1.31-.87 1.62l-.03-.05c.55-.3.84-.98.84-1.57 0-.23-.1-.4-.23-.53ZM8.21 6.71l.1.26.02.08-.07.31v.58l.04.16.21.43-.05.02-.2-.4-.97.05-.2.29-.05-.03.2-.3v-.63l-.89.23.32 2.02H6.6l-.32-2.06.96-.25v-.1l-.85.2-.02-.05.86-.2-.02-.12-.7.16v-.05l.7-.17v-.12l-.07.01a3.56 3.56 0 0 0-.5.16l-.02-.05a9.66 9.66 0 0 1 .58-.18v-.22l1-.03Zm-.94.3v.15l.04.17v.81l.93-.06-.04-.14v-.58l.07-.3L8.25 7h-.98Zm.96-.06h-.96V6.8l.9-.03.06.18Z" fill="#000"/><path d="M7.57 7.54h.33l.05.09h.17l.03.35-.76.05V7.7l.18-.02v-.13Zm.06.06v.12l-.18.02v.23l.64-.05-.02-.23h-.15l-.05-.1h-.24ZM7.84 7.1h.24v.4h-.24v-.4Zm.06.06v.28h.12v-.28H7.9ZM6.32 9.07c.02 0 .03.01.03.03v.88h-.06v-.82a.48.48 0 0 1-.27.13v-.06c.13-.02.23-.1.27-.15a.04.04 0 0 1 .03-.01ZM7.18 9.08l.06.4h.06l-.06-.43a.04.04 0 0 0-.04-.03l-.5.06a.04.04 0 0 0-.03.04l.08.58h.06l-.08-.57.45-.05ZM6.7 7.86l-.17.04.06.32.16-.05-.05-.3Zm.01-.06c.02 0 .04 0 .05.03l.05.35c0 .02-.01.04-.03.04l-.2.07c-.02 0-.04-.01-.05-.03l-.06-.37c0-.02 0-.04.02-.04l.22-.05ZM7.14 7.77l-.18.02.02.33.16-.03v-.32Zm.02-.06c.02 0 .04.02.04.04v.36c0 .01-.01.03-.03.03l-.2.04a.04.04 0 0 1-.05-.03l-.02-.38.03-.03.23-.03ZM6.82 8.55l-.17.04.04.32.16-.04-.03-.32Zm.02-.06c.02 0 .04.01.04.03l.03.36c0 .02 0 .03-.02.04l-.21.05c-.02 0-.04 0-.04-.03l-.05-.37c0-.02 0-.03.02-.04l.23-.04ZM7.32 9.46v-.98h.06v.98h-.06ZM8.33 8.52v.76h-.06v-.76h.06ZM8.35 7.48c0-.02.02-.04.04-.04h.25c.02 0 .04.02.04.04v.46c0 .02-.02.04-.04.04H8.4a.04.04 0 0 1-.04-.04v-.46Zm.06.02v.42h.21V7.5h-.2ZM8.68 8.44h.17l.24.24v.71h-.06v-.67H8.5v.55h-.06v-.6l.24-.23Zm-.14.22H9l-.16-.16H8.7l-.17.16Z" fill="#000"/><path d="M8.57 8.83h.4v.5H8.9V8.9h-.28v.38h-.06v-.44ZM9.2 8.6V7.18h.06V8.6l-.05.46v.36h-.06v-.36l.05-.46Z" fill="#000"/><path d="M9.86 7.32a.06.06 0 0 1 .1.02l.32 1v.03l-.34 1.2v.02l-.2.33-.06-.03.2-.33.34-1.2-.32-1-.47.48-.06 1.09v.01l-.16.51-.05-.01.15-.52.06-1.08.01-.04.48-.48Z" fill="#000"/><path d="M10.9 8.1a.06.06 0 0 1 .04-.01h.6c.02 0 .04.01.05.04l.46 1.04v.04l-.06.25c0 .03-.02.04-.04.05l-.88.19a.06.06 0 0 1-.07-.06l-.04-1.3-.7.77-.03-.02-.03.02-.09-.09a.06.06 0 0 1 0-.08l.8-.83Zm-.67.96.73-.8v-.11h-.02l-.79.83.08.08Zm.78-.91.05 1.49.88-.19.06-.26-.47-1.04h-.52Z" fill="#000"/><path d="m10.06 9.6.12-.55.06.01-.12.55-.01.02-.32.4-.04-.04.31-.4ZM11 9.96l.04-.32h.06l-.05.33v.01l-.61 1.7-.05-.02.6-1.7ZM10.3 9.17a.06.06 0 0 1 .08-.03l.14.07c.03.02.04.05.03.08l-.17.37a.06.06 0 0 1-.09.03l-.11-.07a.06.06 0 0 1-.03-.07l.06.02.11.07.18-.37-.15-.08-.14.38-.06-.02.15-.38Z" fill="#000"/><path d="M10.56 9.37a.06.06 0 0 1 .1-.01l.11.1c.03.03.03.06.01.09l-.25.32a.06.06 0 0 1-.09 0l-.1-.08a.06.06 0 0 1 0-.08l.04.03.1.1.25-.33-.12-.1-.23.33-.04-.03.22-.34ZM10.8 9.7a.06.06 0 0 1 .09-.02l.12.11c.02.02.02.06 0 .08l-.24.33a.06.06 0 0 1-.1 0l-.09-.09a.06.06 0 0 1 0-.07l.04.03.1.09.25-.32-.12-.11-.23.34-.05-.03.23-.35ZM10.07 10a.06.06 0 0 1 .1 0l.09.17v.05l-.25.39-.05-.04.25-.38-.08-.17-.18.34-.06-.02.18-.35ZM9.97 9.75l-.1-.15.05-.03.1.15-.05.03Z" fill="#000"/><path d="m9.97 10.22-.16-.27.05-.03.16.27-.05.03ZM10.35 10.36a.06.06 0 0 1 .1.01l.04.1v.13l-.02.04-.4.45-.04-.04.4-.45v-.1l-.04-.1-.34.42-.04-.03.34-.43ZM10.5 10.87a.06.06 0 0 1 .05-.02l.14.01v.06l-.15-.01-.5.49-.04-.04.5-.5ZM10.59 11.26l-.66.52-.03-.05.65-.52.04.05ZM11.15 9.81c.01-.02.03-.04.06-.04h.18c.04 0 .06.03.05.07l-.13.5c0 .03-.03.05-.06.05h-.13a.06.06 0 0 1-.06-.07l.1-.5Zm.24.01h-.18l-.09.51h.13l.14-.5ZM10.83 10.74c0-.02.03-.04.06-.04h.53c.05 0 .08.05.05.09l-.5.62a.06.06 0 0 1-.04.02h-.14a.06.06 0 0 1-.06-.07l.1-.62Zm.6.01h-.54l-.1.62h.14l.5-.62ZM11.5 9.71c.01-.03.04-.05.07-.05h.17c.04 0 .07.04.06.08l-.14.5c0 .03-.03.04-.05.04h-.13a.06.06 0 0 1-.06-.06l.09-.51Zm.24.01h-.17l-.1.5h.14l.13-.5ZM8.89 6.46a.36.36 0 0 0-.08.14c0 .02-.03.04-.06.04-.13 0-.19.1-.2.14l-.06-.01a.26.26 0 0 1 .27-.19c.01-.05.04-.1.09-.16a.26.26 0 0 1 .2-.09c.13 0 .2.07.24.12v.01h.02c.04-.01.1-.02.16 0 .06.01.11.06.15.14l-.06.03c-.03-.07-.07-.1-.11-.12a.21.21 0 0 0-.13 0 .07.07 0 0 1-.08-.03c-.02-.04-.08-.09-.2-.09a.2.2 0 0 0-.15.07Z" fill="#000"/><path d="M9.62 6.64c-.15 0-.23.12-.25.2 0 .02-.03.04-.06.04-.13 0-.19.09-.2.12l-.06-.02c.02-.05.1-.15.26-.15.03-.1.12-.25.31-.25.1 0 .16.03.2.08.04.04.06.1.07.14.1 0 .22 0 .3.08.1.08.13.22.07.46l-.06-.02c.06-.22.02-.34-.04-.4-.07-.06-.17-.07-.25-.06a.07.07 0 0 1-.08-.05.2.2 0 0 0-.05-.11.2.2 0 0 0-.16-.06Z" fill="#000"/><path d="M9.4 7.15c.02.05.05.12.1.19.06.12.08.27.08.34h-.06c0-.06-.01-.2-.08-.31a1.5 1.5 0 0 1-.1-.24V7.1c0-.01 0-.03.02-.03h.04c.03 0 .08.03.11.06a1.5 1.5 0 0 1 .11.08 1.08 1.08 0 0 1 .19-.1c.02-.01.04-.02.06-.01.02 0 .03.02.03.03v.05l-.03.1-.11.22-.05-.02a2.31 2.31 0 0 0 .14-.33h-.02a1.02 1.02 0 0 0-.17.1.06.06 0 0 1-.07 0 1.45 1.45 0 0 0-.2-.13l.01.03ZM10.7 7.37a.43.43 0 0 0-.17 0l-.01-.05a.49.49 0 0 1 .18 0c.07.01.14.04.18.11h.01a.34.34 0 0 1 .19-.05c.07 0 .14.03.2.12.08.13.1.24.07.31v.02l.02.01c.04.01.1.04.12.08.03.06.03.12-.01.21l-.05-.02c.03-.08.03-.13.01-.16-.01-.03-.05-.04-.08-.05a.08.08 0 0 1-.05-.04.08.08 0 0 1-.01-.06c.01-.05 0-.15-.07-.27-.05-.07-.1-.1-.15-.1-.06 0-.11.03-.15.06-.04.02-.08 0-.1-.03-.03-.05-.08-.07-.14-.09ZM11.82 8.42a.34.34 0 0 0-.07.09l-.05-.03a.4.4 0 0 1 .09-.1c.04-.04.1-.07.16-.08v.06a.2.2 0 0 0-.13.06ZM7.77 8.72h.32l.03.57h.06l-.04-.57a.06.06 0 0 0-.05-.05h-.32a.06.06 0 0 0-.06.05l-.02.63h.06l.02-.63Z" fill="#000"/><path d="M7.82 8.88c0-.04.04-.06.07-.06l.1.01c.04 0 .06.03.06.06l.02.41H8l-.02-.4-.1-.02-.03.45H7.8l.02-.45ZM9.46 8.88c0-.03.04-.06.07-.05l.16.02c.03 0 .05.04.05.08l-.1.36.05.02c.02 0 .04.03.04.05v.18l.14.1-.03.05-.15-.1a.06.06 0 0 1-.02-.05v-.18l-.05-.02a.06.06 0 0 1-.03-.07l.09-.36-.16-.02-.04.37v.02l-.12.24-.06-.03.12-.24.04-.37ZM9.85 7.59c.03-.04.1-.02.1.02l.07.48c.01.05-.04.08-.08.06L9.6 8a.06.06 0 0 1-.02-.09l.27-.31Zm.04.03-.27.32.35.16-.08-.48ZM9.45 8.24c0-.03.04-.06.07-.05l.15.03c.03 0 .05.03.05.06l-.05.43c0 .04-.04.06-.07.05l-.16-.04a.06.06 0 0 1-.04-.07l.05-.41Zm.21.04-.15-.03-.05.41.15.05.05-.43ZM9.82 8.33c0-.03.04-.05.07-.04l.15.05c.03 0 .05.03.04.06l-.1.42c0 .04-.04.06-.07.04l-.15-.06a.06.06 0 0 1-.03-.06l.09-.4Zm.2.06-.14-.05-.1.4.15.07.1-.42ZM7.34 11.13v.05l.02.02c.02.01.05.03.1.03.07.02.15.02.21.01a1.09 1.09 0 0 0-.21-.1.22.22 0 0 0-.1-.02h-.02Zm.14-.05c.08.03.18.08.25.13.02.01.03.03.03.05 0 .02-.03.03-.04.04h-.27a.31.31 0 0 1-.13-.05.1.1 0 0 1-.05-.11.1.1 0 0 1 .04-.06.1.1 0 0 1 .05-.02c.03 0 .08 0 .12.02Z" fill="#000"/><path d="M7.99 11.04s.02 0 .02.05 0 .08-.02.1a.15.15 0 0 1-.08.04.4.4 0 0 1-.16 0 .91.91 0 0 1 .18-.16.19.19 0 0 1 .04-.02h.02Zm-.1-.02c-.06.04-.14.13-.2.2v.04c0 .01 0 .02.02.03.05.01.14.02.22 0a.2.2 0 0 0 .1-.07.18.18 0 0 0 .04-.14c0-.05-.03-.09-.07-.1a.1.1 0 0 0-.05.01.24.24 0 0 0-.06.03ZM7.5 10.92v.02a1.36 1.36 0 0 0 .2.15 18.15 18.15 0 0 0 .19-.2v-.01a.48.48 0 0 0-.13-.1.16.16 0 0 0-.06-.02l-.05.01a.33.33 0 0 0-.06.05.65.65 0 0 0-.1.1Zm0 0Zm.13-.2a.15.15 0 0 1 .08-.02l.08.03a.6.6 0 0 1 .15.13l.01.02v.03h-.01a1.3 1.3 0 0 1-.07.08l-.13.13a.06.06 0 0 1-.07.01 1.4 1.4 0 0 1-.15-.1.35.35 0 0 1-.06-.06c-.02-.02-.03-.05-.01-.08a.7.7 0 0 1 .1-.12.4.4 0 0 1 .08-.05Z" fill="#000"/><defs><linearGradient id="ao10ugv0q" x1="10.93" y1="8.29" x2="10.29" y2="9.08" gradientUnits="userSpaceOnUse"><stop offset=".62" stop-color="#AE6A4B"/><stop offset="1" stop-color="#C4C4C4"/></linearGradient><linearGradient id="bo10ugv0q" x1="10.37" y1="8.72" x2="10.89" y2="10.28" gradientUnits="userSpaceOnUse"><stop stop-color="#E59F6D"/><stop offset=".37" stop-color="#F2D292"/><stop offset="1" stop-color="#FCFCFC"/></linearGradient><linearGradient id="co10ugv0q" x1="6.32" y1="7.79" x2="6.32" y2="10.04" gradientUnits="userSpaceOnUse"><stop stop-color="#FDFBE9"/><stop offset="1" stop-color="#E59F6D"/></linearGradient><linearGradient id="do10ugv0q" x1="8.9" y1="9.28" x2="8.9" y2="12.04" gradientUnits="userSpaceOnUse"><stop stop-color="#57636C"/><stop offset=".19" stop-color="#5F737E"/><stop offset=".43" stop-color="#667C89"/><stop offset=".8" stop-color="#BCDBEE"/><stop offset="1" stop-color="#fff"/></linearGradient><linearGradient id="eo10ugv0q" x1="6.93" y1="9.64" x2="8.12" y2="11.08" gradientUnits="userSpaceOnUse"><stop stop-color="#9BC13F"/><stop offset=".27" stop-color="#FDFBE9"/><stop offset=".51" stop-color="#DFDB23"/><stop offset="1" stop-color="#00794B"/></linearGradient><linearGradient id="fo10ugv0q" x1="6.16" y1="9.1" x2="6.16" y2="10.06" gradientUnits="userSpaceOnUse"><stop stop-color="#F0F0F0"/><stop offset="1" stop-color="#005E93"/></linearGradient><linearGradient id="go10ugv0q" x1="6.43" y1="7.86" x2="7.42" y2="8.23" gradientUnits="userSpaceOnUse"><stop stop-color="#F1E855"/><stop offset=".45" stop-color="#FFF490"/><stop offset="1" stop-color="#FDFBE9"/></linearGradient><linearGradient id="ho10ugv0q" x1="7.33" y1="7.14" x2="8.21" y2="8.05" gradientUnits="userSpaceOnUse"><stop stop-color="#AE3031"/><stop offset="1" stop-color="#E6A59A"/></linearGradient><linearGradient id="io10ugv0q" x1="8.9" y1="6.42" x2="9.13" y2="6.87" gradientUnits="userSpaceOnUse"><stop stop-color="#FDFBE9"/><stop offset=".57" stop-color="#A9C63C"/></linearGradient><linearGradient id="jo10ugv0q" x1="8.75" y1="6.76" x2="8.75" y2="7.19" gradientUnits="userSpaceOnUse"><stop offset=".66" stop-color="#D75639"/><stop offset=".79" stop-color="#6B4B77"/></linearGradient><linearGradient id="ko10ugv0q" x1="9.68" y1="6.62" x2="9.26" y2="9.16" gradientUnits="userSpaceOnUse"><stop offset=".11" stop-color="#F8F6D3"/><stop offset=".2" stop-color="#013822"/><stop offset=".58" stop-color="#0E6942"/><stop offset=".75" stop-color="#739049"/><stop offset="1" stop-color="#A8A651"/></linearGradient><linearGradient id="lo10ugv0q" x1="9.61" y1="7.09" x2="9.61" y2="7.65" gradientUnits="userSpaceOnUse"><stop stop-color="#EAEAEA"/><stop offset=".65" stop-color="#CBA884"/></linearGradient><linearGradient id="mo10ugv0q" x1="7.39" y1="8.91" x2="8.28" y2="8.9" gradientUnits="userSpaceOnUse"><stop stop-color="#E6A59A"/><stop offset="1" stop-color="#6C6C6C"/></linearGradient><linearGradient id="no10ugv0q" x1="8.33" y1="7.39" x2="9.25" y2="8.86" gradientUnits="userSpaceOnUse"><stop stop-color="#764B6C"/><stop offset=".29" stop-color="#8C5578"/><stop offset=".45" stop-color="#A06E80"/><stop offset="1" stop-color="#CBCBCB"/></linearGradient><linearGradient id="oo10ugv0q" x1="8.42" y1="7.52" x2="8.6" y2="7.91" gradientUnits="userSpaceOnUse"><stop stop-color="#E3E16A"/><stop offset="1" stop-color="#F8F6D3"/></linearGradient><linearGradient id="po10ugv0q" x1="8.85" y1="7.52" x2="9.03" y2="7.91" gradientUnits="userSpaceOnUse"><stop stop-color="#E3E16A"/><stop offset="1" stop-color="#F8F6D3"/></linearGradient><linearGradient id="qo10ugv0q" x1="8.85" y1="8.06" x2="8.95" y2="8.37" gradientUnits="userSpaceOnUse"><stop stop-color="#E3E16A"/><stop offset="1" stop-color="#F8F6D3"/></linearGradient><linearGradient id="ro10ugv0q" x1="8.77" y1="8.86" x2="8.71" y2="9.21" gradientUnits="userSpaceOnUse"><stop stop-color="#6B4B77"/><stop offset="1" stop-color="#C19DAE"/></linearGradient><linearGradient id="so10ugv0q" x1="9.46" y1="7.97" x2="9.95" y2="8.69" gradientUnits="userSpaceOnUse"><stop stop-color="#007EC1"/><stop offset="1" stop-color="#D1E4F1"/></linearGradient><linearGradient id="to10ugv0q" x1="9.96" y1="7.5" x2="10.65" y2="8.36" gradientUnits="userSpaceOnUse"><stop stop-color="#3A3A3A"/><stop offset=".21" stop-color="#5C5448"/><stop offset=".75" stop-color="#D4C7A7"/><stop offset="1" stop-color="#D9D7C2"/></linearGradient><linearGradient id="uo10ugv0q" x1="10.22" y1="8.45" x2="10.4" y2="8.64" gradientUnits="userSpaceOnUse"><stop offset=".58" stop-color="#007EC1"/><stop offset="1" stop-color="#A4BFD2"/></linearGradient><linearGradient id="vo10ugv0q" x1="11.25" y1="7.61" x2="10.93" y2="8.1" gradientUnits="userSpaceOnUse"><stop stop-color="#FDFBE9"/><stop offset=".34" stop-color="#BBCD73"/><stop offset="1" stop-color="#00794B"/></linearGradient><linearGradient id="wo10ugv0q" x1="11.22" y1="8.86" x2="11.93" y2="9.13" gradientUnits="userSpaceOnUse"><stop stop-color="#D43B33"/><stop offset=".52" stop-color="#DE8D4F"/><stop offset=".71" stop-color="#E2AB59"/><stop offset="1" stop-color="#fff"/></linearGradient><linearGradient id="xo10ugv0q" x1="11" y1="10.27" x2="11.54" y2="10.8" gradientUnits="userSpaceOnUse"><stop stop-color="#C19D73"/><stop offset="1" stop-color="#fff"/></linearGradient><linearGradient id="yo10ugv0q" x1="11.26" y1="9.79" x2="11.26" y2="10.35" gradientUnits="userSpaceOnUse"><stop stop-color="#8CA7B7"/><stop offset="1" stop-color="#A7A7A7"/></linearGradient><linearGradient id="zo10ugv0q" x1="11.61" y1="9.69" x2="11.61" y2="10.25" gradientUnits="userSpaceOnUse"><stop stop-color="#8CA7B7"/><stop offset="1" stop-color="#A7A7A7"/></linearGradient></defs></svg>