<!-- by TradingView --><svg xmlns="http://www.w3.org/2000/svg" width="18" height="18" viewBox="0 0 18 18"><path fill="url(#alrmfu4za)" d="M0 0h18v18H0z"/><path d="M4 10h2V8H4v2Z" fill="#9C278F"/><path d="M6 8h2V6H6v2Z" fill="#6CAADD"/><path d="M6 10h2V8H6v2Z" fill="#D2A0C5"/><path d="M6 12h2v-2H6v2Z" fill="#9C278F"/><path d="M8 6h2V4H8v2Z" fill="#6CAADD"/><path d="M8 8h2V6H8v2Z" fill="#ABC8E8"/><path d="M8 10h2V8H8v2Z" fill="#FFFEFB"/><path d="M8 12h2v-2H8v2Z" fill="#D2A0C5"/><path d="M8 14h2v-2H8v2Z" fill="#9C278F"/><path d="M10 8h2V6h-2v2Z" fill="#6CAADD"/><path d="M10 10h2V8h-2v2Z" fill="#CBE081"/><path d="M10 12h2v-2h-2v2ZM12 10h2V8h-2v2Z" fill="#7EBF44"/><defs><linearGradient id="alrmfu4za" x1="3.35" y1="3.12" x2="21.9" y2="24.43" gradientUnits="userSpaceOnUse"><stop stop-color="#1A1E21"/><stop offset="1" stop-color="#06060A"/></linearGradient></defs></svg>