<!-- by TradingView --><svg width="18" height="18" viewBox="0 0 18 18" xmlns="http://www.w3.org/2000/svg"><path fill="#14161A" d="M0 0h18v18H0z"/><path d="M11.89 9.93 9.8 13c1.04 0 3.14-1.48 3.74-2.66.41-.82.66-2.26 0-3.89C13.13 5.43 11.68 4 10.85 4c.28.14.96.53 1.45 1.02.63.62 1.04 1.84 1.04 3.07 0 1.23-1.24 2.46-1.45 2.66-.17.16-.07-.48 0-.82Z" fill="url(#afvhm02rw)"/><path d="M13.96 7.68C13.78 5.85 11.9 4 10.85 4c1.25.2 2.5 2.05 2.7 2.66.2.61.43 2.07 0 3.07-.62 1.43-1.92 1.9-2.7 2.25L9.81 13c.63-.07 1.87-.4 2.7-1.23a4.54 4.54 0 0 0 1.45-4.09Z" fill="url(#bfvhm02rw)"/><path d="M10.85 11.98 9.81 13l2.08-3.07-1.04 2.05Z" fill="url(#cfvhm02rw)"/><path d="M6.11 9.93 8.2 13c-1.04 0-3.14-1.48-3.74-2.66a4.79 4.79 0 0 1 0-3.89C4.87 5.43 6.32 4 7.15 4c-.28.14-.96.53-1.45 1.02-.63.62-1.04 1.84-1.04 3.07 0 1.23 1.24 2.46 1.45 2.66.17.16.07-.48 0-.82Z" fill="url(#dfvhm02rw)"/><path d="M4.04 7.68C4.22 5.85 6.1 4 7.15 4c-1.25.2-2.5 2.05-2.7 2.66-.2.61-.43 2.07 0 3.07.62 1.43 1.92 1.9 2.7 2.25L8.19 13a4.95 4.95 0 0 1-2.7-1.23 4.54 4.54 0 0 1-1.45-4.09Z" fill="url(#efvhm02rw)"/><path d="M7.15 11.98 8.19 13 6.1 9.93l1.04 2.05Z" fill="url(#ffvhm02rw)"/><path d="m9.19 10.14-2.7-3.28 3.53 2.05-.83 1.23Z" fill="url(#gfvhm02rw)"/><path d="M11.68 6.86 9.2 10.14 8.15 8.9l3.53-2.05Z" fill="url(#hfvhm02rw)"/><defs><linearGradient id="afvhm02rw" x1="13.76" y1="2.77" x2="8.69" y2="13.88" gradientUnits="userSpaceOnUse"><stop stop-color="#CDCBCC"/><stop offset=".4" stop-color="#6C6A6B"/><stop offset=".55" stop-color="#F0F5F5"/><stop offset=".66" stop-color="#D0D3D5"/><stop offset=".75" stop-color="#535152"/></linearGradient><linearGradient id="bfvhm02rw" x1="13.55" y1="4.41" x2="10.72" y2="13.84" gradientUnits="userSpaceOnUse"><stop stop-color="#FDFDFD"/><stop offset=".57" stop-color="#C2C0C1"/><stop offset=".77" stop-color="#292829"/><stop offset=".89" stop-color="#CBCBCB"/></linearGradient><linearGradient id="cfvhm02rw" x1="11.27" y1="10.14" x2="9.85" y2="13.22" gradientUnits="userSpaceOnUse"><stop stop-color="#585657"/><stop offset=".43" stop-color="#726E70"/><stop offset=".62" stop-color="#B1ACAF"/><stop offset=".78" stop-color="#605E5F"/><stop offset="1" stop-color="#D4D2D3"/></linearGradient><linearGradient id="dfvhm02rw" x1="4.24" y1="2.77" x2="9.31" y2="13.88" gradientUnits="userSpaceOnUse"><stop stop-color="#CDCBCC"/><stop offset=".34" stop-color="#444343"/><stop offset=".4" stop-color="#6C6A6B"/><stop offset=".57" stop-color="#8C8A8B"/><stop offset=".67" stop-color="#CCC"/></linearGradient><linearGradient id="efvhm02rw" x1="4.45" y1="4.41" x2="7.28" y2="13.84" gradientUnits="userSpaceOnUse"><stop stop-color="#FDFDFD"/><stop offset=".57" stop-color="#C2C0C1"/><stop offset=".77" stop-color="#292829"/><stop offset=".89" stop-color="#CBCBCB"/></linearGradient><linearGradient id="ffvhm02rw" x1="6.73" y1="10.14" x2="8.15" y2="13.22" gradientUnits="userSpaceOnUse"><stop offset=".43" stop-color="#726E70"/><stop offset=".62" stop-color="#B1ACAF"/><stop offset=".78" stop-color="#605E5F"/><stop offset="1" stop-color="#D4D2D3"/></linearGradient><linearGradient id="gfvhm02rw" x1="6.08" y1="7.07" x2="8.94" y2="9.77" gradientUnits="userSpaceOnUse"><stop stop-color="#C1C1C1"/><stop offset=".41" stop-color="#ECEAEB"/><stop offset=".68" stop-color="#8F8B8A"/></linearGradient><linearGradient id="hfvhm02rw" x1="7.94" y1="9.32" x2="12.09" y2="8.48" gradientUnits="userSpaceOnUse"><stop offset=".15" stop-color="#504C4E"/><stop offset=".38" stop-color="#CECCCD"/><stop offset=".67" stop-color="#EFEDEE"/><stop offset=".99" stop-color="#524E50"/></linearGradient></defs></svg>