<!-- by TradingView --><svg xmlns="http://www.w3.org/2000/svg" width="18" height="18" viewBox="0 0 18 18"><path fill="#86472C" d="M0 0h18v18H0z"/><path d="M15.47 7.2c-1.16-.43-3.41-.33-3.47 1.88-.02.68.29 1.87 2.19 1.92.3 0 1.03-.08 1.5-.3V9.36L16 9h-1.69l.42.35v1.26c-.5.19-1.73-.04-1.73-1.53 0-.82.25-1.7 1.1-1.75.17 0 .65.02 1.37.77v-.9zM3.83 7H2l.33.4L3.9 11h.19l1.37-3.6.36-.4H4.65l.41.4-.75 2-.86-2 .38-.4zm3.02 3.62l-.38.38H7.6l-.34-.38V8.1l1.37 2.64L10 8.1v2.52l-.33.38h1.66l-.33-.38V7.38l.33-.38h-1.18L8.97 9.36 7.75 7H6.47l.38.53v3.09z" fill="#fff"/></svg>