<!-- by TradingView --><svg width="18" height="18" viewBox="0 0 18 18" xmlns="http://www.w3.org/2000/svg"><path fill="#F0F3FA" d="M0 0h18v18H0z"/><path d="M7.78 14H6.51L4 8.91 6.46 4l.7 1.28-1.89 3.63L7.78 14Z" fill="#0673BA"/><path d="M9.39 14H8.12L5.6 8.91l1.72-3.37.7 1.28-1.15 2.1L9.4 14Z" fill="#8CC640"/><path d="M11.07 14H9.8L7.28 8.91l.87-1.7.7 1.28-.3.42L11.07 14ZM10.22 4h1.27L14 9.09 11.54 14l-.7-1.28 1.89-3.63L10.22 4Z" fill="#EC1F27"/><path d="M8.61 4h1.27l2.52 5.09-1.71 3.37-.71-1.28 1.15-2.1L8.6 4Z" fill="#8CC640"/><path d="M6.93 4H8.2l2.52 5.09-.87 1.7-.7-1.28.3-.42L6.93 4Z" fill="#0673BA"/></svg>