<!-- by TradingView --><svg width="18" height="18" viewBox="0 0 18 18" xmlns="http://www.w3.org/2000/svg"><path fill="#F0F3FA" d="M0 0h18v18H0z"/><path d="M6.44 4.7C7.79 5.71 9.6 7.93 9.89 12c.11-.26.41-1.57.41-3.4 0-1.51-.52-3.25-1.74-4.6a4.9 4.9 0 0 0-2.12.7Z" fill="#F29987"/><path d="M8.87 14a5 5 0 0 1-4.14-7.62A11.04 11.04 0 0 1 8.87 14Z" fill="url(#abs40qsd0)"/><path d="M8.47 11.95a3 3 0 0 1-2.23-4.13c.86 1 1.72 2.4 2.23 4.13Z" fill="url(#bbs40qsd0)"/><path d="M9.85 6.14c.31.82.45 1.67.45 2.46 0 1.68-.25 2.92-.38 3.31l-.03.01a10.71 10.71 0 0 0-1.96-5.7 2.97 2.97 0 0 1 1.92-.08Z" fill="url(#cbs40qsd0)"/><path d="M10.64 4.25c.62.8 1.36 2.17 1.36 3.7 0 1.89-.06 3.7-1.42 5.8a5.01 5.01 0 0 0 .06-9.5Z" fill="url(#dbs40qsd0)"/><defs><linearGradient id="abs40qsd0" x1="7.54" y1="9.02" x2="4.46" y2="11.61" gradientUnits="userSpaceOnUse"><stop stop-color="#ED8F7E"/><stop offset=".84" stop-color="#EB5546"/></linearGradient><linearGradient id="bbs40qsd0" x1="7.51" y1="9.21" x2="6" y2="10.09" gradientUnits="userSpaceOnUse"><stop stop-color="#F37862"/><stop offset="1" stop-color="#EC4F40"/></linearGradient><linearGradient id="cbs40qsd0" x1="9.71" y1="6.18" x2="8.43" y2="11.73" gradientUnits="userSpaceOnUse"><stop offset=".12" stop-color="#E95746"/><stop offset=".37" stop-color="#F49889"/><stop offset="1" stop-color="#EF7059"/></linearGradient><linearGradient id="dbs40qsd0" x1="12.29" y1="4.25" x2="12.29" y2="13.75" gradientUnits="userSpaceOnUse"><stop stop-color="#F59986"/><stop offset="1" stop-color="#EA604A"/></linearGradient></defs></svg>