<!-- by TradingView --><svg width="18" height="18" viewBox="0 0 18 18" xmlns="http://www.w3.org/2000/svg"><path fill="#F0F3FA" d="M0 0h18v18H0z"/><path d="M5.88 7h.98l-1.42 4H4.4L3 7h.97c.32.97-.02.04.96 3 .93-3 .65-2.06.95-3ZM11 9c0 1.1-.65 2-2 2s-2-.9-2-2c0-1.12.66-2 2.02-2C10.39 7 11 7.9 11 9ZM8 9c0 .6.19 1.33 1.02 1.33.84 0 .98-.72.98-1.33 0-.6-.16-1.33-1-1.33S8 8.39 8 9ZM13.71 7.67c-.82 0-1 .72-1 1.33 0 .64.1 1.32.96 1.32.36 0 .89-.07 1.33-.21v.7c-.39.13-1 .19-1.41.19-1.36 0-2.01-.88-2.01-2s.79-2 2.11-2c.46 0 .89.12 1.31.26l-.3.67c-.3-.13-.66-.26-.99-.26Z" fill="#4FA609"/></svg>