<!-- by TradingView --><svg width="18" height="18" viewBox="0 0 18 18" xmlns="http://www.w3.org/2000/svg"><path fill="#F0F3FA" d="M0 0h18v18H0z"/><path d="M8.87 14a5.1 5.1 0 0 0 4.9-3.39c-.54.79-2.08 1.26-3.1.38-.82-.7-1.54-.82-1.8-.8-1.52 0-1.91 1.36-1.92 2.04 0 1.35 1.28 1.74 1.92 1.77Z" fill="url(#abdkdtwtr)"/><path d="M4 8.91c0 3.03 2.28 4.5 3.42 4.86-.8-.53-1.27-2.07-.4-3.08.71-.8.84-1.52.82-1.78 0-1.5-1.37-1.9-2.05-1.9C4.43 7 4.03 8.28 4 8.9Z" fill="url(#bbdkdtwtr)"/><path d="M14 9.17c0-3.03-2.28-4.5-3.42-4.86.8.53 1.27 2.07.4 3.08-.71.8-.84 1.52-.82 1.78 0 1.5 1.37 1.9 2.05 1.9 1.36 0 1.76-1.27 1.79-1.9Z" fill="url(#cbdkdtwtr)"/><path d="M9.11 4a5.1 5.1 0 0 0-4.9 3.39c.54-.79 2.09-1.26 3.1-.38.83.7 1.55.82 1.8.8 1.52 0 1.92-1.36 1.92-2.03 0-1.36-1.28-1.75-1.92-1.78Z" fill="url(#dbdkdtwtr)"/><defs><linearGradient id="abdkdtwtr" x1="6.95" y1="11.81" x2="13.77" y2="11.94" gradientUnits="userSpaceOnUse"><stop stop-color="#DAD601"/><stop offset="1" stop-color="#A0C425"/></linearGradient><linearGradient id="bbdkdtwtr" x1="7.07" y1="13.98" x2="5.61" y2="7.34" gradientUnits="userSpaceOnUse"><stop stop-color="#F3980B"/><stop offset="1" stop-color="#FFE621"/></linearGradient><linearGradient id="cbdkdtwtr" x1="10.15" y1="8.67" x2="14" y2="7.68" gradientUnits="userSpaceOnUse"><stop stop-color="#3598D3"/><stop offset="1" stop-color="#2E3687"/></linearGradient><linearGradient id="dbdkdtwtr" x1="4.64" y1="6.9" x2="11.6" y2="6.87" gradientUnits="userSpaceOnUse"><stop stop-color="#4AADE4"/><stop offset="1" stop-color="#DCEFF3"/></linearGradient></defs></svg>