<!-- by TradingView --><svg width="18" height="18" viewBox="0 0 18 18" xmlns="http://www.w3.org/2000/svg"><path fill="#F0F3FA" d="M0 0h18v18H0z"/><path d="m6.96 7-1.3 4H4.9L3.6 7h.75l.91 3.03h.04L6.2 7h.75ZM9.05 11a1.57 1.57 0 0 1-1.47-.95c-.14-.3-.2-.65-.2-1.05s.06-.75.2-1.05A1.57 1.57 0 0 1 9.05 7c.34 0 .64.08.89.25.25.17.45.4.59.7.14.3.2.65.2 1.05s-.06.75-.2 1.05a1.57 1.57 0 0 1-1.47.95Zm0-.63a.8.8 0 0 0 .55-.19c.15-.12.25-.29.32-.5.07-.2.1-.43.1-.68 0-.25-.03-.47-.1-.68-.07-.2-.17-.37-.32-.5a.8.8 0 0 0-.54-.19c-.22 0-.4.06-.55.19-.15.13-.25.3-.32.5s-.1.43-.1.68c0 .25.03.48.1.68.07.21.17.38.32.5.14.13.33.19.55.19ZM11.97 7l.8 1.56.8-1.56h.76l-1.12 1.99L14.34 11h-.76l-.82-1.52-.8 1.52h-.78l1.12-2.01L11.2 7h.77Z" fill="#CA2135"/><path fill-rule="evenodd" d="M15.47 6.5H2.55v4.98h12.93V6.51ZM2 6v6h14V6H2Z" fill="#CA2135"/></svg>