<!-- by TradingView --><svg width="18" height="18" xmlns="http://www.w3.org/2000/svg"><path fill="url(#paint0_linear)" d="M0 0h18v18H0z"/><circle cx="9" cy="9" r="9" fill="url(#paint1_linear)"/><path d="M11.945 5.752c-.309.693-2.133 4.817-2.948 6.668.173.395.302.68.36.816.308.692.642.757.687.764h.006L14 5.13a1.766 1.766 0 00-.694-.129c-.507 0-1.104.175-1.361.75z" fill="#fff"/><path d="M9.357 13.23c-.334-.751-2.91-6.584-3.3-7.478-.393-.9-1.639-.822-2.056-.628l3.584 8.086c.224.486.687.79 1.406.79h1.06s-.36-.02-.694-.77z" fill="#fff"/><defs><linearGradient id="paint0_linear" x1="17.293" y1="9.541" x2=".5" y2="9.496" gradientUnits="userSpaceOnUse"><stop stop-color="#F7941D"/><stop offset="1" stop-color="#F26322"/></linearGradient><linearGradient id="paint1_linear" x1="17.658" y1="9.633" x2=".5" y2="9.541" gradientUnits="userSpaceOnUse"><stop stop-color="#F7941D"/><stop offset="1" stop-color="#F26322"/></linearGradient></defs></svg>