<!-- by TradingView --><svg width="18" height="18" viewBox="0 0 18 18" xmlns="http://www.w3.org/2000/svg"><path fill="#F0F3FA" d="M0 0h18v18H0z"/><path d="M6.25 6.12c1.2-.14 2.43-.15 3.64-.07.98.08 1.96.23 2.91.49a8.6 8.6 0 0 1 1.68.63c.34.17.67.38.94.65.24.22.44.5.53.81.07.26.07.53-.02.78-.1.3-.29.56-.51.78-.3.28-.64.5-1 .67-.38.2-.79.35-1.2.48-.62.2-1.25.34-1.9.44-.87.14-1.77.2-2.66.22h-.51a17.43 17.43 0 0 1-3.84-.45c-.44-.11-.89-.24-1.31-.41 1.44.41 3 .38 4.5.4 2.04.04 6.98-.4 7.62-2.42.62-1.93-4.38-2.67-5.92-2.78-1.15-.08-2.3-.27-3.45-.16.16-.03.33-.04.5-.06Z" fill="#1176BF"/><path d="M3.33 7.46h.78l1.08 1.86 1.02-1.86h3.15c.45 0 .57.31.57.69v.68c0 .36-.14.71-.54.73H8v.9h-.59V9h1.67c.24-.02.27-.17.28-.4v-.37C9.35 8.12 9.33 8 9.2 8H6.64L5.2 10.46l-1.86-3Zm9.07 0c.32.02.64.1.95.2-.09.18-.13.32-.22.49-.22-.08-.5-.11-.73-.14-.6-.07-1.57.19-1.6.85-.02.61.54 1.05 1.38 1.05.26 0 .46-.05.64-.1V9h.58v1.22c-.33.14-.65.22-1.01.24-.97.04-2.18-.45-2.17-1.5-.02-1.09 1.18-1.56 2.18-1.5Z" fill="#1176BF"/></svg>