<!-- by TradingView --><svg width="18" height="18" viewBox="0 0 18 18" fill="none" xmlns="http://www.w3.org/2000/svg">
<rect width="18" height="18" fill="#F0F3FA"/>
<path fill-rule="evenodd" clip-rule="evenodd" d="M12.7864 4H5.21362C4.54613 4 4 4.54613 4 5.21362V12.7864C4 13.4539 4.54613 14 5.21362 14H12.7864C13.4539 14 14 13.4539 14 12.7864V5.21362C14 4.54613 13.4539 4 12.7864 4ZM12.5498 4.3125H5.45024C4.82447 4.3125 4.3125 4.82447 4.3125 5.45024V12.5498C4.3125 13.1755 4.82447 13.6875 5.45024 13.6875H12.5498C13.1755 13.6875 13.6875 13.1755 13.6875 12.5498V5.45024C13.6875 4.82447 13.1755 4.3125 12.5498 4.3125Z" fill="#59595B"/>
<path fill-rule="evenodd" clip-rule="evenodd" d="M5.45024 4.3125H12.5498C13.1755 4.3125 13.6875 4.82447 13.6875 5.45024V12.5498C13.6875 13.1755 13.1755 13.6875 12.5498 13.6875H5.45024C4.82447 13.6875 4.3125 13.1755 4.3125 12.5498V5.45024C4.3125 4.82447 4.82447 4.3125 5.45024 4.3125Z" fill="#3B3B3B"/>
<path fill-rule="evenodd" clip-rule="evenodd" d="M5.45088 4.3125H12.5544C13.1437 4.3125 13.6322 4.76458 13.6875 5.33785C12.9973 7.79992 11.4258 8.49329 7.85397 9.50796C5.55161 10.162 4.66165 11.5637 4.33571 12.75C4.32048 12.6764 4.3125 12.6003 4.3125 12.5224V5.44646C4.3125 4.82277 4.82476 4.3125 5.45088 4.3125Z" fill="url(#paint0_linear_5825_209827)"/>
<path fill-rule="evenodd" clip-rule="evenodd" d="M9 6H7.79869L6.99998 8.16872L6.20131 6H5L6.47308 10H7.52691L9 6Z" fill="#F0F3FA"/>
<path fill-rule="evenodd" clip-rule="evenodd" d="M10.007 8.25564C10.0694 8.22429 10.5427 8 11.3258 8C12.1678 8 13 8.43518 13 9.39815C13 10.3422 12.6373 10.9748 11 10.9993V12H10V8.25926V8.25391L10.007 8.25564ZM11 8.60068V10.3995C11.5847 10.3936 12 10.3173 12 9.41604C12 8.6473 11.2838 8.5923 11 8.60068Z" fill="#F0F3FA"/>
<defs>
<linearGradient id="paint0_linear_5825_209827" x1="9" y1="4.3125" x2="9" y2="12.75" gradientUnits="userSpaceOnUse">
<stop stop-color="#BCBCC1"/>
<stop offset="0.715247" stop-color="#5B5C5E"/>
</linearGradient>
</defs>
</svg>
