<!-- by TradingView --><svg xmlns="http://www.w3.org/2000/svg" width="18" height="18" viewBox="0 0 18 18"><path fill="#339DD7" d="M0 0h18v18H0z"/><path fill-rule="evenodd" d="M9 4.5c-1.24 0-2.53.3-3 .5h.01c.44-.28 1.63-1 2.94-1 1.29 0 2.52.7 3.01.98L12 5c-.5-.2-1.76-.5-3-.5zm.01.5C5.15 5 2 8.97 2 9.06 3.07 10.37 5.97 13 9.01 13c3.05 0 5.93-2.63 6.99-3.94C14.96 7.7 12.1 5 9.01 5zM4.25 7.26a9.73 9.73 0 0 0-1.98 1.77c.4.45 1.1 1.07 1.96 1.66a3.2 3.2 0 0 1 .02-3.43zm2.7-1.37C7.77 5.96 8.5 6.37 9 7a2.93 2.93 0 0 1 2.04-1.1 6.64 6.64 0 0 0-4.09 0zm6.81 1.4a3.2 3.2 0 0 1 0 3.42c.87-.6 1.56-1.23 1.97-1.68-.4-.46-1.1-1.12-1.97-1.74zm-2.8 4.8A2.93 2.93 0 0 1 9 11.02c-.48.59-1.16 1-1.94 1.09.63.19 1.29.3 1.95.3a6.7 6.7 0 0 0 1.94-.3zM10 10v.43A1.93 1.93 0 0 0 13.2 9a1.93 1.93 0 1 0-3.49-1.1l-.74-.63-.69.61A1.93 1.93 0 0 0 4.8 9 1.93 1.93 0 1 0 8 10.43V10H7V9h4v1h-1zm-4 3.29c.47.17 1.76.21 3 .21s2.53-.04 3.03-.21c-.47.24-1.74.71-3.06.71A6.85 6.85 0 0 1 6 13.29z" fill="#fff"/></svg>