<!-- by TradingView --><svg xmlns="http://www.w3.org/2000/svg" width="18" height="18" viewBox="0 0 18 18"><path fill="#F0F3FA" d="M0 0h18v18H0z"/><path d="M9.17 6.5l-2.63 4.32c.34 1.4 1.36.82 1.82.35L10.21 8h3.66c1.46-.06 2.03.59 2.13.96 0-2.21-1.43-2.4-2.24-2.46h-4.6z" fill="url(#a1c1gg220)"/><path d="M13.7 9.75h-.77c-.63.13-1.4 1.04-1.72 1.53h2.17c1.78 0 2.5-1.09 2.5-1.67 0-1.17-1.02-1.26-1.83-1.21.47.67.06 1.35-.35 1.35z" fill="url(#b1c1gg220)"/><path d="M5.5 12.38L2 6.5h2.1l2.48 4.26c.76 1.25 1.6.62 1.93.15l-.83 1.37c-.2.24-.5.71-1.1.72-.57 0-.91-.37-1.08-.62z" fill="url(#c1c1gg220)"/><path d="M10.22 9.75L8.18 13h2l.93-1.46a4.23 4.23 0 0 1 1.9-1.8h-2.79z" fill="url(#d1c1gg220)"/><defs><linearGradient id="a1c1gg220" x1="15.46" y1="7.22" x2="6.56" y2="10.36" gradientUnits="userSpaceOnUse"><stop stop-color="#499FD8"/><stop offset="1" stop-color="#115FA1"/></linearGradient><linearGradient id="b1c1gg220" x1="15.73" y1="9.18" x2="11.25" y2="10.58" gradientUnits="userSpaceOnUse"><stop stop-color="#DFE0E2"/><stop offset=".48" stop-color="#BBBCBE"/><stop offset="1" stop-color="#999A9E"/></linearGradient><linearGradient id="c1c1gg220" x1="2.98" y1="6.51" x2="8.04" y2="11.84" gradientUnits="userSpaceOnUse"><stop stop-color="#1B67A5"/><stop offset="1" stop-color="#4499D2"/></linearGradient><linearGradient id="d1c1gg220" x1="12.42" y1="9.75" x2="8.01" y2="12.52" gradientUnits="userSpaceOnUse"><stop stop-color="#E3E4E6"/><stop offset=".53" stop-color="#AAABAF"/><stop offset=".9" stop-color="#898A8E"/></linearGradient></defs></svg>