<!-- by TradingView --><svg width="18" height="18" viewBox="0 0 18 18" xmlns="http://www.w3.org/2000/svg"><path fill="#F0F3FA" d="M0 0h18v18H0z"/><path d="m12.04 8.26.35-.14c.22-.07.44-.12.66-.12.85.02 1.65.7 1.88 1.55.05.19.07.54.07 1.07v.91c0 .1-.04.18-.1.26-.2.23-.42.27-.67.12a.45.45 0 0 1-.23-.41V10.1c0-.16-.03-.33-.12-.52a.95.95 0 0 0-.48-.46 1 1 0 0 0-1.22.37c-.13.18-.2.4-.19.66l.01.2v1.12c0 .16-.06.3-.2.4a.48.48 0 0 1-.52.07.42.42 0 0 1-.24-.25 1.07 1.07 0 0 1-.04-.34v-4.8c0-.24.09-.41.25-.5a.5.5 0 0 1 .47 0c.18.09.27.26.28.5a73.1 73.1 0 0 1 0 1.7h.04Z" fill="#444"/><path d="m8.68 8-.08-.08a.2.2 0 0 1-.06-.1c-.05-.22.01-.4.2-.53.13-.1.27-.13.44-.12a1.6 1.6 0 0 1 .47.13c.18.07.31.11.4.11a.4.4 0 0 0 .33-.16c.07-.09.12-.2.14-.33a.52.52 0 0 0-.05-.34 1.08 1.08 0 0 0-.64-.48c-.23-.07-.5-.1-.78-.1-.48.02-.87.2-1.2.55-.2.21-.33.47-.4.76-.08.28-.09.58-.04.9.06.43.34.76.84.98l.66.27c.3.11.5.2.64.26.12.05.18.15.2.31a.81.81 0 0 1-.07.4.62.62 0 0 1-.48.37.85.85 0 0 1-.43 0l-.78-.27a.52.52 0 0 0-.35.02c-.1.04-.19.13-.24.29a.73.73 0 0 0-.03.4c.04.17.13.31.29.42.1.08.25.14.44.2.3.09.6.13.9.14.48 0 .87-.12 1.2-.38.4-.32.63-.77.68-1.33.02-.18.01-.36-.01-.55a1.5 1.5 0 0 0-.65-1.05c-.1-.08-.28-.16-.52-.26l-.2-.07a5.25 5.25 0 0 1-.82-.37Zm-3.4 1.8-.03.03-.02-.02-1.1-3.3c-.11-.33-.29-.5-.53-.5a.52.52 0 0 0-.49.24.68.68 0 0 0-.06.63l.6 1.7.98 2.77c.08.22.15.37.21.45.1.13.24.2.4.2.18 0 .32-.07.42-.2.06-.08.13-.23.2-.45a1044.12 1044.12 0 0 1 1.6-4.47.68.68 0 0 0-.07-.62A.52.52 0 0 0 6.9 6c-.24.01-.41.18-.53.51l-1.1 3.3Z" fill="#1E9AD6"/></svg>