<!-- by TradingView --><svg width="18" height="18" viewBox="0 0 18 18" xmlns="http://www.w3.org/2000/svg"><path fill="#F0F3FA" d="M0 0h18v18H0z"/><circle cx="9" cy="9" r="5" fill="#EEE100"/><path d="m6.41 4.72 1.23 1.6-.26-2.05.3-.1.55 2.03.6-2.2a5.09 5.09 0 0 1 .29 0l-.3 2.31 1.62-2.1.23.08-1.35 2.36 2.5-1.45a.1.1 0 0 1 .13.17l-2.3 1.77 2.88-.38a.1.1 0 0 1 .04.21l-2.8.76 2.8.75a.1.1 0 0 1-.04.2l-2.88-.37 2.3 1.77a.1.1 0 0 1-.11.17L9.32 8.81l1.45 2.5a.1.1 0 0 1-.18.13l-1.77-2.3.38 2.87a.1.1 0 0 1-.2.05l-.76-2.8-.76 2.8a.1.1 0 0 1-.2-.04l.37-2.88-1.77 2.3a.1.1 0 0 1-.17-.12l1.44-2.5-2.51 1.44a.1.1 0 0 1-.12-.17l2.3-1.77L4 8.69l.02-.24 2.67-.72-2.33-.62.12-.26 2.33.3-1.7-1.3.2-.24 1.83 1.04L6.14 4.9l.27-.18Z" fill="#439BD6"/><path d="m6.32 4.78 1.48 1.9-.32-2.44.1-.04.65 2.4.7-2.6a5.2 5.2 0 0 1 .08 0l-.35 2.69 1.88-2.45.03.01-1.54 2.68 2.85-1.64-2.6 2 3.26-.42-3.18.86 3.18.85-3.26-.42 2.6 2-2.85-1.64 1.65 2.85-2.01-2.6.43 3.26-.87-3.17-.85 3.17.42-3.26-2 2.6 1.64-2.84-2.86 1.64 2.61-2-3.17.4 3.08-.84-2.69-.72.03-.06 2.75.35-2-1.54.07-.07 2.17 1.24-1.2-2.09.1-.06Z" fill="#F0F3FA"/></svg>