<!-- by TradingView --><svg xmlns="http://www.w3.org/2000/svg" width="18" height="18"><path fill="url(#amgfpeqht)" d="M0 0h18v18H0z"/><path fill-rule="evenodd" d="M11.3 8.84c.12-.07.53-.23 1.23-.21.89.02 1.43.53 1.47 1.16V12h-.75v-.18c-.1.07-.43.18-.72.18-.42 0-1.53-.08-1.53-1.03 0-.99 1.12-1.13 1.53-1.13.2 0 .47 0 .72.05 0-.33-.29-1-1.94-.49v-.56zm1.95 1.54v.65c-.02.13-.17.41-.68.45-.62.06-.82-.3-.82-.52 0-.22.11-.58.56-.58h.94z" fill="#fff"/><path d="M8.33 5.79c.43 0 .83.12 1.17.35a2.36 2.36 0 10-2.22 4.1v-.26a2.25 2.25 0 01-1.12-1.96A2.2 2.2 0 018.33 5.8z" fill="#FAD13E"/><path d="M9.49 9.83a2.09 2.09 0 10-3.06-1.05 1.91 1.91 0 011.86-2.34 1.9 1.9 0 011.2 3.39z" fill="#FAD13E"/><path d="M10.17 6.33l3.01-1.7-2.65 2.18-.36-.48zM8.1 5.4L8.73 2 8.7 5.44l-.6-.03zm-2.08.98l-2.18-2.7 2.6 2.27-.42.43zM5.46 8.6L2 8.47l3.4-.49.06.6zm1.34 1.8L4.52 13l1.8-2.94.5.34zm2.4-4.8l1.55-2.11-1.05 2.4-.5-.29zm-2.27 0l-.65-2.53 1.2 2.34-.55.2zM5.47 7.43L3.1 6.35l2.57.53-.19.55zm.48 2.29l-2.38 1.07 2.1-1.57.28.5z" fill="#009BDB"/><path d="M7 7.77V12h.74V8.4h1.24c.22-.01.66.1.68.63.02.52-.45.65-.68.68h-.72l-.31.53h.55L9.83 12h.92l-1.27-1.69c.77-.24.94-.95.93-1.28a1.23 1.23 0 00-1.3-1.26H7z" fill="#fff"/><defs><linearGradient id="amgfpeqht" x1="3.35" y1="3.12" x2="21.9" y2="24.43" gradientUnits="userSpaceOnUse"><stop stop-color="#1A1E21"/><stop offset="1" stop-color="#06060A"/></linearGradient></defs></svg>