<!-- by TradingView --><svg width="18" height="18" fill="none" xmlns="http://www.w3.org/2000/svg"><path fill="#F71964" d="M0 0h18v18H0z"/><path d="M13.676 5H5.462c-.637 0-1.045.648-.747 1.187L5.473 8H4.048a.562.562 0 00-.27.062.538.538 0 00-.2.186.508.508 0 00-.015.515l2.643 4.378a.534.534 0 00.201.203.567.567 0 00.565 0 .535.535 0 00.202-.203L7.889 12l.903 1.568a.843.843 0 00.75.431.842.842 0 00.744-.43l4.117-7.413c.29-.525-.106-1.157-.727-1.157zM9.96 8.493l-1.748 3a.356.356 0 01-.134.135.377.377 0 01-.51-.136L5.81 8.507a.337.337 0 01.01-.343.358.358 0 01.132-.124.372.372 0 01.18-.04h3.514c.062 0 .122.01.175.038.053.03.098.07.13.121a.329.329 0 01.009.334z" fill="#fff"/></svg>