<!-- by TradingView --><svg width="18" height="18" viewBox="0 0 18 18" fill="none" xmlns="http://www.w3.org/2000/svg">
<rect width="18" height="18" fill="#F0F3FA"/>
<path d="M11 8.88356V9.30866H8.19593C8.21654 9.78693 8.52177 10 9.02919 10C9.5 10 10.1873 9.83005 10.2697 9.55159L11 10.1731C10.4522 10.7709 9.86766 11 9.05452 11C7.79198 11 7 10.166 7 8.97152C7 7.79913 7.87274 7 9.02919 7C10.107 7 11 7.77126 11 8.88356ZM9.02146 7.83556C8.5378 7.83556 8.22674 8.11901 8.19593 8.59775H9.80069C9.78025 8.10915 9.50489 7.83556 9.02146 7.83556Z" fill="#2B2B2A"/>
<path d="M4.50448 7C5.01741 7 5.40618 7.2611 5.85981 7.69265L5.22818 8.42196C5.03042 8.13656 4.68968 7.89402 4.40016 7.89402C4.12901 7.89402 4 7.96166 4 8.18095C4 8.82388 6 8.34443 6 9.71428C6 10.6427 5.30298 10.9999 4.53867 10.9999C4.10626 11.0041 3.5915 10.9131 3 10.2285L3.5753 9.59881C3.76707 9.89264 4.21459 10.1628 4.54547 10.1628C4.75349 10.1628 5 10.1647 5 9.89686C5 9.5816 4.58997 9.519 4.36532 9.45587C3.66559 9.26885 3.13377 9.06109 3.08414 8.19693C3.08414 7.37868 3.75959 7 4.50448 7Z" fill="#2B2B2A"/>
<path d="M13.5045 7C14.0174 7 14.4062 7.2611 14.8598 7.69265L14.2282 8.42196C14.0304 8.13656 13.6897 7.89402 13.4002 7.89402C13.129 7.89402 13 7.96166 13 8.18095C13 8.82388 15 8.34443 15 9.71428C15 10.6427 14.303 10.9999 13.5387 10.9999C13.1063 11.0041 12.5915 10.9131 12 10.2285L12.5753 9.59881C12.7671 9.89264 13.2146 10.1628 13.5455 10.1628C13.7535 10.1628 14 10.1647 14 9.89686C14 9.5816 13.59 9.519 13.3653 9.45587C12.6656 9.26885 12.1338 9.06109 12.0841 8.19693C12.0841 7.37868 12.7596 7 13.5045 7Z" fill="#2B2B2A"/>
</svg>
