<!-- by TradingView --><svg xmlns="http://www.w3.org/2000/svg" width="18" height="18" viewBox="0 0 18 18"><path fill="#F0F3FA" d="M0 0h18v18H0z"/><path d="M6.83 10.46 9.01 7l2.13 3.45A2.33 2.33 0 0 1 9.16 14h-.4a2.3 2.3 0 0 1-1.94-3.54Z" fill="#E5BF44"/><path d="M6.42 10.26a3 3 0 0 0-.29 1.27L4.4 8.81c-.59-.92-.5-2.12.2-2.95a2.45 2.45 0 0 1 3.92.24l.24.37c-.68 1.09-2.1 3.36-2.33 3.8Z" fill="#ABC27C"/><path d="M11.58 10.26a3 3 0 0 1 .29 1.27l1.74-2.72c.59-.92.5-2.12-.2-2.95a2.45 2.45 0 0 0-3.92.24l-.24.37c.68 1.09 2.1 3.36 2.33 3.8Z" fill="#8FAAA1"/></svg>