<!-- by TradingView --><svg width="18" height="18" viewBox="0 0 18 18" xmlns="http://www.w3.org/2000/svg"><path fill="#F0F3FA" d="M0 0h18v18H0z"/><path d="M14.94 9.8c-.01.09-.04.19-.08.32a1.24 1.24 0 0 1-.54.67.97.97 0 0 1-.51.14H13V8.79h.4c.51 0 .27.37.37.78h.07V7.86h-.07c-.12.5.12.85-.46.85H13V7.08h.67c.58 0 .8.35.98.87h.06V7h-4.07v.08h.61l-1.18 3.18h-.01L8.89 7.08h.62V7h-1.7v.08h.48l.42 1.16-.75 2.02-1.17-3.18h.59V7H5v.08h.62l-1.24 3.18-1.25-3.18h.62V7H2v.08h.5L4.06 11h.14l1.53-3.92h.46L7.63 11h.15l.98-2.64h.01L9.75 11h.14l1.47-3.92H12.43v3.85h-.67V11H15V9.8h-.06Z" fill="#CF3403"/></svg>