<!-- by TradingView --><svg xmlns="http://www.w3.org/2000/svg" width="18" height="18"><path fill="url(#a1jwddbpa)" d="M0 0h18v18H0z"/><path d="M0 0h13.3L5.6 18.08H0V0z" fill="url(#b1jwddbpa)"/><path d="M8.71 14.54L4.62 5.28A.2.2 0 014.81 5h1.85a.2.2 0 01.19.12l2.13 4.8 2.14-4.8A.2.2 0 0111.3 5h1.9a.2.2 0 01.18.28l-4.12 9.26a.3.3 0 01-.55 0z" fill="#fff"/><defs><linearGradient id="a1jwddbpa" x1="13.7" y1="1.58" x2="7.71" y2="19.51" gradientUnits="userSpaceOnUse"><stop stop-color="#4E48DD"/><stop offset="1" stop-color="#302A8B"/></linearGradient><linearGradient id="b1jwddbpa" x1="8.53" y1=".48" x2="-.77" y2="13.52" gradientUnits="userSpaceOnUse"><stop stop-color="#5B62FE"/><stop offset="1" stop-color="#403BBC"/></linearGradient></defs></svg>