<!-- by TradingView --><svg xmlns="http://www.w3.org/2000/svg" width="18" height="18"><path fill="#F0F3FA" d="M0 0h18v18H0z"/><path fill-rule="evenodd" d="M4.99 10.3c-.56-.04-1 .13-1.16.23l-.33.4c.1.14.26.2.33.23l-.1.22h1.11c.3 2.1 2.13 2.62 3.23 2.62a5.6 5.6 0 001.9-.44c.22-.09.45-.17.68-.24a1.97 1.97 0 01-1.53-.99c-.25-.39-.5-.8-.65-1.64 2.05-.61 3.5-1.62 4.05-2.13.87-.81 1.48-1.64 1.48-2.4-.03-1.1-.95-1.3-1.4-1.25-1.9.14-3.58 2.06-4.11 2.66-.11.13-.17.2-.17.18 0 0 .46-1.12.7-1.4a5.6 5.6 0 00-1.9 2.4c.19-1.46 1.6-2.98 2.83-3.72 0 0 1.3-.73 2.02-1.03-4.99.34-6.8 5.1-6.98 6.3zm4.3-2.7c-.5.57-.93 1.64-1.08 2.1 3.95-1.12 5.31-2.85 5.3-3.64-.02-.62-.59-.77-.93-.75-1.56.08-3.05 1.62-3.6 2.39l.31-.1zm1.52 2.4l.77 1.34.27-.33.49.38.16-.18-.49-.4.31-.3-1.51-.5z" fill="#D6000F"/></svg>