<!-- by TradingView --><svg width="18" height="18" viewBox="0 0 18 18" xmlns="http://www.w3.org/2000/svg"><path fill="#F0F3FA" d="M0 0h18v18H0z"/><path fill-rule="evenodd" d="M5.63 7.15c.56.01 1.2.2 1.45.3.6.66 1.53.87 1.92.9v.17c-.13 0-.27-.01-.41-.04l-.23.86H9v2.92h-.26c0 .37-.24.66-.52.85-.28.19-.32.36-.3.75.03.38-.3.63-.76.63s-.73.14-.98.34a.91.91 0 0 1-.57.17c-.38-.05-.38-.36-.34-.51-.24-.02-.21-.2-.17-.3-.2-.01-.2-.18-.17-.26-.26-.07-.22-.25-.17-.33a.27.27 0 0 1-.14-.23c.08-.65.97-.62 1.37-.59.32.03.43-.23.44-.36.04-.54.45-1.04.65-1.22-.1-.2-.1-.46-.1-.56-.08 0-.26-.07-.3-.33-.06-.26.22-.38.36-.41-.03-.13-.01-.4 0-.5a4.32 4.32 0 0 1-2.17-.97c-.12.27-.4.33-.53.33-.54-.03-.54-.4-.47-.59-.06.02-.22.01-.33-.19-.11-.2.05-.39.14-.46-.1-.02-.25-.15-.14-.48.11-.33.43-.3.58-.24-.07-.12-.12-.36.22-.46.33-.1.49.08.53.18.1-.18.29-.32.66-.1.3.16.2.55.1.73ZM9 9.34v2.92h.26c0 .37.24.66.52.85.28.19.32.36.3.75-.03.38.3.63.76.63s.73.14.98.34c.2.15.46.18.57.17.38-.05.38-.36.34-.51.24-.02.21-.2.17-.3.2-.01.2-.18.17-.26.26-.07.22-.25.17-.33a.27.27 0 0 0 .14-.23c-.08-.65-.97-.62-1.37-.59-.32.03-.43-.23-.44-.36a2.03 2.03 0 0 0-.65-1.22c.1-.2.1-.46.1-.56.08 0 .26-.07.3-.33.06-.26-.22-.38-.36-.41.03-.13.01-.4 0-.5a4.33 4.33 0 0 0 2.17-.97c.12.27.4.33.53.33.54-.03.54-.4.47-.59.06.02.22.01.33-.19.11-.2-.05-.39-.14-.46.1-.02.25-.15.14-.48-.11-.33-.43-.3-.58-.24.07-.12.12-.36-.22-.46-.33-.1-.49.08-.53.18-.1-.18-.29-.32-.66-.1-.3.16-.2.55-.1.73-.56.01-1.2.2-1.45.3-.6.66-1.53.87-1.92.9v.17c.21 0 .39-.02.47-.04l.2.86H9Zm-1.71.42c.19-.28.59-1 .62-1.56 0-.02-.42-.27-.62-.4a5.4 5.4 0 0 0-1.96-.44c.12-.17.3-.56.08-.72-.29-.2-.52.2-.54.32 0-.15-.1-.45-.39-.38-.28.07-.18.36-.09.49-.15-.1-.47-.21-.56.1 0 .09.06.28.37.3-.15.05-.41.21-.26.42.15.2.36.11.45.04-.14.11-.35.36-.1.48.25.12.45-.15.52-.3a4.65 4.65 0 0 0 2.54 1.04l-.06.61Zm2.86-1.56c.03.57.42 1.28.62 1.56l-.07-.6c1 0 2.11-.7 2.54-1.05.07.15.27.42.52.3s.04-.37-.1-.48c.1.07.3.16.46-.04.15-.2-.11-.37-.26-.42.3-.02.37-.21.37-.3-.1-.31-.42-.2-.57-.1.1-.13.2-.42-.09-.49-.29-.07-.38.23-.39.38-.02-.11-.25-.52-.53-.32-.23.16-.05.55.07.72a5.4 5.4 0 0 0-1.95.45c-.2.12-.62.37-.62.4Zm-2.5 3.09c.26 0 .79.15.88.84a.73.73 0 0 1-.36.62c-.38.25-.52.5-.52.74 0 .07 0 .14.02.21.02.16.04.3-.08.36-.13.06-.35.1-.45.1-.15 0-.56.03-.91.24-.44.27-.59.32-.68.2-.09-.13 0-.28.3-.47.04-.03.11-.1.08-.14-.03-.04-.12 0-.16.03-.11.11-.35.3-.4.18-.09-.14.14-.3.3-.4.02-.03.08-.08.05-.12-.02-.04-.1 0-.12.03l-.27.23c-.04.04-.14.08-.18 0-.05-.09.06-.18.12-.23l.22-.18c.03-.04.06-.11-.04-.08s-.25.17-.32.23c-.03.02-.1.05-.13-.02-.04-.07.03-.14.06-.17l.27-.18c.02-.04.03-.1-.06-.07-.1.03-.24.17-.3.23-.04-.04-.1-.13 0-.2h.02c.11-.1.34-.27.78-.28.37-.02.53 0 .56 0 .1 0 .31-.08.35-.4 0-.43.2-1.28.97-1.3Zm1.87.88c.1-.69.63-.85.88-.84.77.02.97.87.97 1.3.04.32.25.4.35.4.04 0 .2-.01.56 0 .44.01.67.18.79.27l.02.02c.09.06.03.15 0 .2-.07-.07-.21-.2-.3-.24-.1-.03-.08.04-.07.07l.27.18c.03.03.1.1.07.17s-.1.04-.14.02c-.06-.06-.22-.2-.32-.23s-.06.04-.04.09l.22.17c.07.05.17.15.12.24-.04.07-.13.03-.18 0l-.26-.24c-.04-.03-.1-.07-.13-.03-.03.04.03.1.06.12.15.1.38.26.3.4-.06.12-.3-.07-.4-.18-.05-.03-.14-.07-.17-.03-.03.04.04.1.08.14.31.2.39.35.3.47-.09.12-.24.07-.68-.2a1.82 1.82 0 0 0-.91-.24c-.1 0-.32-.03-.45-.1-.11-.05-.1-.2-.07-.36l.01-.2c0-.24-.14-.5-.52-.75a.73.73 0 0 1-.36-.62Z"/><path d="m7.84 9.28.31-.94.22.09-.35 1.16h2.02l-.35-1.16.23-.09.27.94c.06.2.24.43.32.52.2.15.57.48.5.6-.1.15-.56-.2-.7-.41a.52.52 0 0 0-.4-.22H8.1c-.16 0-.31.14-.37.22l-.48.37c-.05.02-.16.06-.23 0s-.01-.15.03-.19c.06-.04.23-.17.4-.32.18-.15.33-.44.39-.57Z" fill="#F7FA16"/><path fill-rule="evenodd" d="M6.84 5.92h-.25a.8.8 0 0 0-.27.04.14.14 0 0 0-.06.04s-.02.02-.02.07.01.07.02.09l.1.06c.1.05.21.06.24.06h.24l.05.23C7.1 7.47 7.96 8.2 9 8.2c1.04 0 1.9-.73 2.1-1.69l.06-.23h.24c.1 0 .2-.02.26-.05a.1.1 0 0 0 .04-.03l.01-.07a.15.15 0 0 0-.01-.07l-.04-.04a.5.5 0 0 0-.24-.04h-.25l-.04-.25A2.14 2.14 0 0 0 9 3.94c-1.06 0-1.93.75-2.12 1.74l-.04.24Zm4.57-.24A2.44 2.44 0 0 0 9 3.65c-1.2 0-2.2.85-2.41 1.97-.15 0-.65 0-.65.45 0 .44.54.5.66.5A2.44 2.44 0 0 0 9 8.5c1.17 0 2.16-.82 2.4-1.91.25 0 .6-.08.6-.45 0-.36-.32-.45-.59-.45Z"/><path d="M7.26 10.6a.7.7 0 0 0 .11.47c.96-.09 1.33.51 1.39.84H9v-.57c-.73.01-.81-.75-.76-1.14H9v-.18h-.78a.49.49 0 0 0-.37.2c-.21.22-.48.34-.6.38Zm1.74.74c.73 0 .82-.76.78-1.14H9v-.18h.78c.18 0 .32.13.36.2.22.22.49.34.6.38a.7.7 0 0 1-.12.47c-.96-.09-1.32.51-1.38.84H9v-.57Z" fill="#12C3F4"/><path d="M9.5 10.46h-.96c-.03.22.01.66.47.65.45 0 .51-.43.48-.65Z" fill="#FC0A16"/><path d="M8.3 6.2c.34 0 .61-.39.61-.87s-.27-.87-.6-.87c-.35 0-.62.39-.62.87s.27.88.61.88Zm-.44-.87c0-.2.06-.36.14-.49.08.12.18.19.3.19s.22-.07.3-.19c.09.13.14.3.14.49 0 .37-.2.67-.44.67s-.44-.3-.44-.67ZM9.76 6.2c.34 0 .61-.39.61-.87s-.27-.87-.61-.87c-.34 0-.62.39-.62.87s.28.88.62.88Zm-.44-.87c0-.2.05-.36.14-.49.07.12.18.19.3.19s.22-.07.3-.19c.08.13.14.3.14.49 0 .37-.2.67-.44.67s-.44-.3-.44-.67ZM9.06 6.93c-.47 0-.88-.35-1.03-.52-.03-.04-.12-.1-.18-.05-.06.04 0 .14.04.18.18.15.32.51.36.68.11.74.59.92.8.92.67-.05.76-.65.83-.92.05-.22.26-.54.35-.68.04-.04.09-.14.03-.18-.07-.04-.15.03-.19.08-.14.16-.55.5-1.01.5Z"/><path d="M9.4 7.01a.44.44 0 0 0-.35.22.32.32 0 0 0-.27-.22c-.12 0-.36.07-.37.35-.01.27.42.56.64.67.33-.12.66-.41.66-.65 0-.16-.07-.37-.3-.37Z" fill="#FC0A16"/><path d="M8.06 3.4A2.36 2.36 0 0 0 6.3 4.64l1.02-.34.42.04-.13.4a6.42 6.42 0 0 1 1.43-.72 5.2 5.2 0 0 1 1.44.72l-.1-.36.34-.04.99.35a2.47 2.47 0 0 0-1.73-1.3c.18-.17.57-.2.74-.2a1.92 1.92 0 0 0-1.68 0 1.88 1.88 0 0 0-1.72 0c.43 0 .67.13.74.2Z"/></svg>