<!-- by TradingView --><svg width="18" height="18" viewBox="0 0 18 18" xmlns="http://www.w3.org/2000/svg"><path fill="#253551" d="M0 0h18v18H0z"/><path d="M3 5v.22h.3c.32 0 .46.27.48.41l2.52 8.25c.02.07.09.12.16.12h.03c.07 0 .13-.05.15-.12L8.9 7.52l2.4 6.37c.03.07.1.11.16.11h.04c.07 0 .13-.05.16-.12l2.5-8.2c.12-.36.33-.46.41-.46H15V5h-2.42v.22h.34c.33 0 .38.27.36.41l-1.53 5.93L9.38 5.1A.17.17 0 0 0 9.22 5h-.01a.17.17 0 0 0-.16.12l-2.17 6.44C6.38 9.74 5.35 6 5.28 5.63c-.08-.38.12-.43.23-.41h.36V5H3Z" fill="#fff"/></svg>