<!-- by TradingView --><svg width="18" height="18" viewBox="0 0 18 18" xmlns="http://www.w3.org/2000/svg"><path fill="#F0F3FA" d="M0 0h18v18H0z"/><path d="M13.96 6.14a.22.22 0 0 0-.2-.11h-1.65c-.05 0-.1.03-.15.05-.05.03-.07.09-.1.12l-.9 2.88-1.22-2.91c0-.06-.04-.09-.07-.11C9.62 6.03 9.6 6 9.55 6H8.49c-.05 0-.1.03-.13.06a.2.2 0 0 0-.1.1L6.99 9.23l-.9-2.88c-.03-.06-.06-.12-.1-.14l-.13-.06-1.6-.11a.22.22 0 0 0-.2.11.23.23 0 0 0-.02.25l2.07 6.44c.02.11.12.17.22.17h1.3c.05-2.5 1.36-3.5 2.27-3.56-.86.28-1.08 2.89 1.14 3.56h.66c.05 0 .1-.03.13-.06.04-.02.07-.08.1-.1l2.06-6.45a.3.3 0 0 0-.02-.25ZM10.2 9.72a1 1 0 0 0-.49.9c-.02.34.07.67.25.95a1.26 1.26 0 0 1-.47-1.12c.02-.36.2-.67.47-.87.34-.22.37.06.24.14Z" fill="#203365"/></svg>