<!-- by TradingView --><svg width="18" height="18" viewBox="0 0 18 18" xmlns="http://www.w3.org/2000/svg"><path fill="#F0F3FA" d="M0 0h18v18H0z"/><path d="M14.92 8.34a11010.94 11010.94 0 0 1-5.28-5.28c-.06-.07-.14-.08-.21-.02a.08.08 0 0 0-.03.05l.01.18a420.22 420.22 0 0 1 .99 4.34c1.42.3 2.86.63 4.3.96.08.02.14.02.19.02.02 0 .04-.02.05-.03.06-.08.05-.15-.02-.22Zm-7.3-.82.97-4.34c.01-.07-.01-.12-.07-.16-.06-.03-.12-.02-.17.03l-5.3 5.31c-.06.05-.06.1-.03.17.03.06.09.08.15.07l4.34-.98c.06 0 .1-.04.1-.1Zm4.67 4.77a600.85 600.85 0 0 1-2.67 2.67c-.06.05-.12.05-.18 0-.03-.03-.04-.06-.03-.11a601.92 601.92 0 0 1 .98-4.46h.01l4.45-.99c.05 0 .09 0 .11.04.05.06.05.11 0 .17l-2.67 2.68Zm-4.77-1.92L3.18 9.4c-.07-.01-.12 0-.15.07-.04.06-.03.12.02.17l5.3 5.31c.06.05.11.06.17.03.07-.04.09-.09.07-.16l-.97-4.34a.13.13 0 0 0-.1-.1Z" fill="url(#a)"/><defs><linearGradient id="a" x1="9.6" y1="3" x2="6.35" y2="11.8" gradientUnits="userSpaceOnUse"><stop stop-color="#F07C0C"/><stop offset="1" stop-color="#EB551D"/></linearGradient></defs></svg>