<!-- by TradingView --><svg width="18" height="18" viewBox="0 0 18 18" xmlns="http://www.w3.org/2000/svg"><path fill="#042244" d="M0 0h18v18H0z"/><path d="M9 4a5 5 0 1 1 0 10A5 5 0 0 1 9 4Zm0 .3a4.7 4.7 0 1 0 0 9.4 4.7 4.7 0 0 0 0-9.4Z" fill="#fff"/><path d="M11.54 8.1c.13.23.48.74.72.9h-.46l-.15.65h1.3a4 4 0 0 1-7.9-.06h2.9l-.22.7-.17-.4h-.67l.25.73c.08.35.15.5.15.76 0 .2-.08.33-.12.37v.2h1.11v-.2a.56.56 0 0 1-.12-.37c0-.26.07-.41.16-.76l.35-1.03h1.79l-.18.64-.14-.35h-.66c.04.16.2.68.27.86.09.22.12.38.12.64 0 .2-.08.33-.12.37v.2h1.1v-.2c-.06-.02-.1-.16-.11-.22v-.42l.8-3.01Zm-4.9.9H5.8c.23-.16.5-.59.63-.8l.22.8ZM9 5a4 4 0 0 1 3.99 3.7c-.45-.25-1.06-.75-1.06-1.46 0-.2.08-.35.12-.4v-.2h-1.1v.2c.05.06.15.23.15.4 0 .18-.16.6-.24.86l-.24.9h-.69l-.32-.97c-.06-.23-.14-.27-.14-.53 0-.2.08-.33.12-.37v-.19H8.48v.19c.04.04.12.17.12.37-.1.44-.27.97-.45 1.5h-.81l-.23-.8a5.2 5.2 0 0 1-.23-.96c0-.17.1-.34.16-.4v-.2H5.93v.2c.04.05.12.2.12.4 0 .73-.6 1.25-1.04 1.5A4 4 0 0 1 9 5Zm.27 4h-.41l.2-.67.21.67Z" fill="#fff"/></svg>