<!-- by TradingView --><svg width="18" height="18" viewBox="0 0 18 18" xmlns="http://www.w3.org/2000/svg"><path fill="#F0F3FA" d="M0 0h18v18H0z"/><path d="M4.18 7H3l1.34 4H5.4l.69-2.23.68 2.23H9.7v-.1a2 2 0 0 1 0-3.8V7H8l-.68 2.28L6.59 7h-1l-.71 2.23L4.18 7Zm5.5.72a1.41 1.41 0 0 0 0 2.56V7.72Z" fill="#201D1D"/><path d="M11.7 7.66c-.37-.4-.82-.66-1.41-.66h3.26c.7 0 1.15.54 1.15 1.21 0 .6-.3 1.09-.9 1.2L15 11h-.6l-1.5-2h.46c.45 0 .74-.31.74-.74s-.24-.69-.7-.69H12V11h-1.71c.59 0 1.04-.25 1.41-.66l-.42-.41c-.26.3-.56.5-1 .5-.77 0-1.43-.65-1.43-1.43 0-.78.66-1.43 1.44-1.43.43 0 .73.2 1 .5l.4-.41ZM10.29 11H8.86v-.6a2 2 0 0 0 1.43.6Zm0-4a2 2 0 0 0-1.43.6V7h1.43Z" fill="#0059C1"/></svg>