<!-- by TradingView --><svg width="18" height="18" viewBox="0 0 18 18" xmlns="http://www.w3.org/2000/svg"><path fill="#0056FE" d="M0 0h18v18H0z"/><path d="M5 6h.53v1.75c.42.7 1.7 2.24 3.02 3.28l-.32.34a15.31 15.31 0 0 1-2.7-2.76v1.46c0 .32-.1 1.11-.53 1.7l-.4-.25c.35-.49.4-1.17.4-1.45V6Zm8.55.5h-2.1V7H16v-.5h-2V6h-.45v.5Zm-2.98.4-.87-.45v-.44l.88.44v.45Zm-2.05.42c-.58.36-1.38.9-1.7 1.12l-.3-.36c.33-.23 1.13-.77 1.73-1.14l.27.38Zm3.83.68h-.9v4H12V8.5h3.26c.15 0 .25.01.25.15V12H16V8.65c0-.39-.3-.65-.7-.65h-.56l.38-.5h-.6l-.37.5h-1.21l-.38-.5h-.59l.38.5Zm-8.39-.2H2l.25-.47h1.72c.62 0 .87.45.72.98-.12.46-.25.88-.54 1.36-.3.48-.74 1-1.49 1.69l-.34-.32a7.7 7.7 0 0 0 1.4-1.6c.26-.42.38-.79.5-1.24.07-.27.05-.4-.26-.4Zm6.61.23-.87-.45v-.44l.88.44v.45ZM10 10.07v-1.4h.53v1.4c0 .64-.12 1.38-.52 1.93l-.4-.25c.34-.47.39-1.13.39-1.68Zm3.55-.74V9H14v.33h1v.5h-1V10h1v1.2c0 .38-.3.8-.72.8H12.5v-2h1.05v-.17h-1.23l.24-.5h.99ZM13 10.5v1h1.28c.15 0 .15-.17.15-.3v-.7H13Z" fill="#F0F3FA"/></svg>