<!-- by TradingView --><svg xmlns="http://www.w3.org/2000/svg" width="18" height="18"><path fill="#D71638" d="M0 0h18v18H0z"/><path d="M8.7 4c.82-.04 1.83 1.8 2.08 3.4v.01c.71-.73 2.47-2.37 2.99-1.91.62.55-.13 2.23-.87 3.33-1.3 1.92-2.36 2.6-3.07 2.51-.24.3-.5.5-.76.64a8.12 8.12 0 00-2.3-2.62v.11c-.06 1.21.14 2.48 1.23 2.71a1.63 1.63 0 001.06-.22c.48.97.31 1.54.1 1.76-.66.66-2.02.25-3.86-2.17-.82-1.08-1.71-2.8-1.1-3.42.41-.4 1.65.47 2.57 1.22.1-2.14 1.1-5.3 1.94-5.35zm1.12 7.34l.23-.32c.66-1.08.91-2.2.72-3.6l-.3.31c-1.73 2.05-1.45 3.1-1.12 3.4.13.1.3.18.47.21z" fill="#fff"/></svg>