<!-- by TradingView --><svg width="18" height="18" viewBox="0 0 18 18" xmlns="http://www.w3.org/2000/svg"><path fill="#F0F3FA" d="M0 0h18v18H0z"/><path d="M4 6.75v-.07a.27.27 0 0 1 .12-.18c.2-.13.36-.29.52-.45a8.91 8.91 0 0 0 .79-.98c.3-.2.71.08.52.36A6.5 6.5 0 0 1 4.77 6.8c-.09.07-.22.17-.33.2-.2.05-.4-.07-.44-.24ZM12.5 12.61a7.1 7.1 0 0 1-.58 1.1c-.1.16-.2.26-.38.28-.35.05-.63-.34-.51-.72.03-.11.11-.23.18-.33a6 6 0 0 0 .45-.94c.12-.29.22-.62.31-.91 0 0 0-.02 0 0-.28-1.01-.52-2.03-.72-3.06l-.13-.68a1.66 1.66 0 0 1 .01-.79l.52-2.04.08-.24c.25-.5.93-.28.91.29 0 .14-.05.28-.1.43h1.08c.24 0 .38.19.38.42 0 .2-.1.4-.33.4h-1.34c-.1.35-.18.8-.27 1.15 0 0 0-.01 0 0 .12.73.28 1.3.44 2.03a34.13 34.13 0 0 0 .48-2.2c.09-.2.25-.3.42-.3.23 0 .47.17.5.49 0 .06 0 .16-.03.3a37.7 37.7 0 0 1-.75 3.48l-.1.34a8 8 0 0 0 .86 1.97c.12.19.16.4.07.6-.14.32-.49.42-.73.2a6.67 6.67 0 0 1-.72-1.28Z" fill="#005AAB"/><path d="m7.62 5.69.88-.52.9.52.34-.69H11l-.95 2-1.55-.9-1.55.9L6 5h1.26l.36.69Z" fill="#DA2127"/><path d="M5 9.22c-.09.12-.3.49-.39.6l-.13.11c-.16.08-.36 0-.44-.17a.51.51 0 0 1 0-.41A9.32 9.32 0 0 0 5.42 7.1c.06-.06.14-.1.22-.1.18 0 .36.13.36.37v6.03c0 .33-.23.6-.5.6-.24 0-.5-.23-.5-.6V9.23ZM7 8.99 8.5 7 10 9V9H7v-.01ZM8 11v2.46c0 .37-.25.55-.5.54-.26 0-.5-.18-.5-.53a9438.35 9438.35 0 0 0 .02-3.09c.1-.34.4-.38.7-.38h1.56c.38 0 .72.12.72.55v2.94c0 .35-.23.51-.47.51-.27 0-.53-.22-.53-.61V11H8Z" fill="#005AAB"/></svg>