<!-- by TradingView --><svg width="18" height="18" viewBox="0 0 18 18" fill="none" xmlns="http://www.w3.org/2000/svg">
<rect width="18" height="18" fill="#F0F3FA"/>
<path d="M7.73711 12.1369C7.71168 12.8266 8.04896 13.4469 8.45406 13.977C8.46513 13.9916 8.46044 13.9993 8.44 14C8.43507 14.0001 8.42292 13.9962 8.40356 13.9883C7.3946 13.5694 6.49962 12.7216 6.13005 11.6805C5.84796 10.8853 6.03951 9.92924 6.56203 9.28545C6.88506 8.88757 7.2871 8.58744 7.73278 8.34044C9.20493 7.52499 10.6938 6.68713 11.9239 5.51427C12.3637 5.09507 12.7942 4.58553 12.9949 4.00136C12.9952 4.00084 12.9957 4.00043 12.9963 4.0002C12.9968 3.99997 12.9975 3.99994 12.998 4.0001C12.9986 4.00027 12.9991 4.00063 12.9995 4.00112C12.9998 4.00161 13 4.0022 13 4.00281C12.833 4.69762 12.6365 5.36762 12.4106 6.0128C12.2451 6.48548 12.0586 6.92281 11.8511 7.32478C11.6803 7.65563 11.4476 7.95647 11.1828 8.2257C10.6388 8.77861 10.0003 9.30153 9.38205 9.80692C8.64796 10.407 7.77517 11.1043 7.73711 12.1369Z" fill="#797979"/>
<path d="M8.25 7C8.66421 7 9 6.66421 9 6.25C9 5.83579 8.66421 5.5 8.25 5.5C7.83579 5.5 7.5 5.83579 7.5 6.25C7.5 6.66421 7.83579 7 8.25 7Z" fill="#797979"/>
<path d="M8.56412 13.0586C8.56328 13.0834 8.56201 13.1097 8.56033 13.1374C8.55985 13.1444 8.55847 13.1445 8.55618 13.1378C8.41207 12.7034 8.29159 12.0872 8.52949 11.6673C8.75909 11.2622 9.01648 10.9823 9.38839 10.6988C9.87754 10.3259 10.375 9.96612 10.8223 9.54186C11.2469 9.13892 11.519 8.73092 11.8769 8.1809C11.8779 8.17953 11.8793 8.17852 11.8809 8.17803C11.8825 8.17754 11.8842 8.1776 11.8858 8.1782C11.8873 8.1788 11.8887 8.17991 11.8895 8.18135C11.8904 8.18278 11.8908 8.18447 11.8906 8.18614C11.8197 8.65756 11.7353 9.13187 11.5531 9.58775C11.3228 10.1638 10.7143 10.6943 10.195 11.0239C10.0287 11.1294 9.86287 11.2358 9.69754 11.3432C9.12379 11.7157 8.58703 12.3377 8.56412 13.0586Z" fill="#FD872A"/>
</svg>
