<!-- by TradingView --><svg width="18" height="18" viewBox="0 0 18 18" xmlns="http://www.w3.org/2000/svg"><path fill="#F0F3FA" d="M0 0h18v18H0z"/><path d="M12.46 9.47V7.59c0-.19-.1-.33-.2-.34l-.15-.01c-.1 0-.1 0-.1-.12 0-.1.01-.12.1-.12h.92c.06 0 .09 0 .1.02l.35.5 1.79 2.5-.03-2.13c-.02-.4-.05-.62-.26-.64l-.14-.01c-.09-.01-.1 0-.1-.12 0-.1.02-.12.1-.12h1.06c.08 0 .1.02.1.12 0 .12-.01.1-.1.12l-.1.02c-.13.02-.2.12-.23.32 0 .1-.04.72-.04 1.85 0 .87.03 1.34.03 1.42 0 .12-.03.15-.09.15h-.46c-.14 0-.2-.24-.56-.74l-1.73-2.44.04 2.3c.02.4.05.6.26.63l.13.01c.09.01.1 0 .1.12 0 .1-.01.12-.1.12H12.1c-.09 0-.1-.02-.1-.12 0-.12 0-.1.1-.12l.1-.02c.27-.04.25-.43.26-1.27ZM9 10.29V7.72c0-.31 0-.44-.2-.46l-.14-.01c-.1 0-.1 0-.1-.12 0-.1 0-.12.1-.12L11.45 7c.08 0 .1.03.1.12v.73c0 .05-.03.08-.1.08h-.16c-.14 0-.12-.04-.16-.2-.1-.39-.2-.4-.64-.4h-.74v1.4h.2c.3 0 .46-.05.53-.26.06-.2-.02-.31.14-.31h.14c.06 0 .1 0 .1.05v1.27c0 .04-.04.05-.1.05h-.14c-.16 0-.08-.1-.14-.31-.07-.2-.24-.27-.52-.27l-.2.01v1.68c.06.02.14.03.21.03h.5c.5 0 .56-.04.65-.48.05-.25.02-.32.16-.32h.18c.07 0 .1.04.1.13v.83c0 .12-.01.17-.1.17h-2.8c-.1 0-.1-.02-.1-.12 0-.11 0-.1.1-.12h.15c.18-.03.19-.15.19-.42v-.05ZM2.67 8.2c-.17-.6-.26-.92-.48-.95l-.08-.02c-.1-.01-.11.01-.11-.12 0-.1.01-.11.11-.11h1.63c.1 0 .1.02.1.11 0 .12 0 .11-.1.12l-.1.02c-.17.01-.25.1-.25.24 0 .05.02.18.07.37l.59 2.18.78-2.69C4.91 7.09 4.87 7 5 7h.51c.14 0 .1.1.22.5l.78 2.57.54-2.18c.04-.14.06-.26.06-.36 0-.18-.08-.27-.26-.29h-.1c-.1-.02-.1-.02-.1-.13 0-.1.02-.11.13-.11h1.1C8 7 8 7.01 8 7.11c0 .12 0 .11-.1.12l-.05.01c-.24.03-.32.32-.48.83l-.67 2.31c-.14.45-.12.62-.24.62h-.51c-.15 0-.1-.2-.32-.92l-.66-2.16-.73 2.5c-.12.42-.1.58-.23.58h-.5c-.05 0-.07-.01-.08-.05L2.67 8.2Z" fill="#063569"/></svg>