<!-- by TradingView --><svg width="18" height="18" viewBox="0 0 18 18" xmlns="http://www.w3.org/2000/svg"><path fill="#F0F3FA" d="M0 0h18v18H0z"/><path d="M5 5.18c-.6.24-.98.63-.99 1.04C4 7.01 4 7.7 4.05 7.99c.02.17.05.4.05.51.04.37 1.69 2.06 2.37 2.42.51.28.67.44.73.71.05.2.25.5.44.68l.53.45c.06.07.13.25.13.4 0 .5.24 1.18.53 1.52.46.54 1.12.38 1.28-.34.06-.3.04-.34-.23-.34-.29 0-.3-.02-.3-.67 0-.63.04-.73.46-1.2.26-.3.47-.58.47-.65 0-.1.4-.36 1.33-.84.27-.13.83-.62 1.24-1.07.69-.77.77-.9.84-1.5.1-.8.1-.93.01-1.4-.03-.21-.1-.5-.13-.65-.12-.69-1.8-1.1-2.92-.75-.56.19-.66.19-1.2 0-.48-.18-.67-.19-1.1-.06-.67.2-1.03.18-1.71-.04A2.59 2.59 0 0 0 5 5.18Zm2.43.3c.36.09.6.08 1.07-.07.63-.22 1.42-.15 1.07.08-.1.08-.12.12-.02.12.16 0 .83 1.09.84 1.34 0 .09-.04.16-.11.16-.15 0-.58.4-.58.55 0 .06.09.34.22.63.11.29.29.78.38 1.09l.16.58-.32-.02c-.33-.01-.33-.02-.33-.82 0-.56-.03-.77-.11-.68-.07.07-.14.85-.17 1.75a9.03 9.03 0 0 1-.24 2.41c.01.16-.02.31-.07.35-.05.03-.02.28.07.55.1.28.13.5.08.5-.04.02.04.12.19.25.32.3.24.53-.15.46-.5-.1-.55-.2-.34-.56.2-.33.2-.33-.03-.1-.24.2-.25.2-.3-.07a.6.6 0 0 1 .12-.53c.19-.22.19-.24 0-.16-.31.12-.25-.28.06-.43.23-.11.23-.11-.06-.05-.4.1-.42-.1-.06-.37l.26-.22-.28.1c-.36.1-.28-.2.12-.42l.27-.16-.32.05c-.48.07-.36-.3.15-.5l.4-.17-.5.08c-.41.06-.47.03-.41-.13.03-.11.23-.25.44-.31l.36-.12-.46-.02c-.26-.01-.4-.05-.3-.09.12-.05.12-.09 0-.16-.1-.08-.03-.15.25-.23l.4-.12L8.8 10c-.25-.02-.38-.08-.38-.2 0-.14.14-.2.5-.22l.49-.01-.5-.05c-.6-.06-.6-.31-.01-.43l.4-.07L8.85 9C8.32 9 8.3 8.8 8.8 8.61l.37-.12-.42.07c-.52.08-.6-.13-.16-.32.19-.08.4-.08.6.01.4.15.5.06.15-.14a1.06 1.06 0 0 0-.64-.08c-.43.07-.52-.08-.19-.28.19-.13.19-.13-.03-.14-.3 0-.1-.21.29-.29.24-.05.23-.05-.08-.07-.2 0-.4-.08-.46-.15-.13-.24.23-.38.83-.32.4.05.52.03.4-.05-.09-.06-.42-.12-.74-.12-.49 0-.54-.03-.42-.19.09-.11.36-.19.69-.2l.53-.01-.58-.15c-.52-.14-.55-.17-.35-.3.23-.14.21-.14-.09-.15-.18 0-.3.05-.25.1.03.07 0 .16-.05.21-.19.11-.48.83-.48 1.15 0 .18-.04.27-.11.23-.21-.14-.13-.63.18-1.08l.3-.43-.27-.03c-.15-.02-.6-.13-.99-.24a3 3 0 0 0-2.16.15l-.37.2.3-.25c.15-.14.47-.29.69-.34l.52-.1c.13-.04.97.11 1.62.3Zm5.23 0c.15.08.03.09-.33.04-.36-.05-.81 0-1.31.15-.88.25-1.15.17-.31-.1.62-.21 1.6-.25 1.95-.09Zm-7.2.44c-.18.1-.4.18-.47.19-.17 0-.43.34-.47.57-.03.23-.03.23.77-.13a3 3 0 0 1 .9-.3c.12 0 .07.06-.15.15-.18.08-.61.3-.95.5-.82.46-1 .45-.92-.07.1-.5.27-.7.84-.91.58-.23.9-.23.45 0Zm7.7.19c.26.12.48.3.48.37 0 .1-1.07-.38-1.26-.57-.14-.14.33-.02.77.2Zm.11.86c.27.15.49.35.49.45 0 .3-.19.33-.42.05-.1-.13-.49-.41-.82-.62a4.3 4.3 0 0 1-.62-.43c0-.07.85.26 1.37.55Zm-7.63.24c-.17.11-.48.4-.7.64-.37.39-.38.4-.07.2l.34-.21-.2.29c-.27.42-.23.57.08.27.14-.14.42-.35.6-.47.27-.18.21-.08-.24.42-.53.59-.63.65-.85.53-.3-.19-.44-.7-.23-.97A4.84 4.84 0 0 1 5.81 7c.07 0-.01.1-.17.21Zm7.75.69c.14.14.25.34.25.45 0 .23-.45.77-.64.77-.07 0-.29-.25-.5-.57a2.2 2.2 0 0 1-.3-.56l.48.4.43.41-.26-.49-.26-.49.29.22c.44.3.37.11-.13-.4l-.44-.43.4.21c.22.13.53.34.68.48Zm-3.23-.36c0 .03-.05.1-.12.13-.05.04-.11.02-.11-.05s.06-.13.11-.13c.07 0 .12.02.12.05Zm.19.66c-.08.21-.22.14-.26-.15-.01-.1.02-.16.08-.11.06.04.1-.01.12-.1 0-.13.02-.13.07 0 .03.09.02.25-.01.36Zm-2.4 1.25c0 .66-.03.8-.13.7a.53.53 0 0 0-.35-.16c-.23 0-.3-.55-.1-.87.1-.14.11-.08.06.2-.04.32 0 .45.18.55.22.12.23.1.23-.57 0-.37.02-.69.06-.69.03 0 .06.38.06.84Zm-2.27-.4c-.29.48-.09.54.33.12.38-.4.35-.24-.1.4l-.27.41-.27-.28-.27-.27.3-.35c.35-.43.54-.44.28-.03Zm6.62.7c.03 0 0-.15-.05-.3-.1-.3-.1-.3.24-.17.4.17.4.2.01.54l-.3.26-.45-.7-.44-.7.45.52c.26.3.49.54.54.54Zm-5.68.5c-.18.37-.3.44-.45.28-.04-.05.07-.21.24-.37.42-.37.42-.37.21.08Zm1.05.68c0 .42.07.88.15 1.03.2.38.17.44-.08.29-.55-.31-.78-2.22-.27-2.1.16.03.2.18.2.78Zm2.78-.21c-.03.1-.06.31-.06.49 0 .19-.16.49-.4.75-.43.46-.73.49-.35.04.14-.16.23-.52.27-.98.03-.39.11-.75.18-.8.16-.13.44.27.36.5Zm-.44 3.48c-.03.04-.14.05-.22.02-.1-.04-.06-.08.07-.08.13-.01.2.03.15.06Z"/></svg>