<!-- by TradingView --><svg width="18" height="18" viewBox="0 0 18 18" xmlns="http://www.w3.org/2000/svg"><path fill="#FECC00" d="M0 0h18v18H0z"/><path d="M10.98 4A3.03 3.03 0 0 1 14 6.95c-.03.14-.63.08-.76.05-.06-.03-.06-.15-.06-.26v-.19a2.26 2.26 0 0 0-2.2-1.78V4Zm-.63 1.22V6h-1.3v3.22H12V7.68h.6v1.78c0 .15-.42.54-.55.54H5.82v.88c0 .23.5.6.76.56.68-.04 1.4-.02 2.1 0 .8.04 1.6.06 2.34 0 .47-.04.81-.28.8-.8h.79c.07.68-.45 1.35-1.1 1.5.02.39.03.9-.49.83-.3-.04-.3-.36-.3-.56.01-.1.01-.17-.02-.18H6.92c.15 1.13-.97.95-.8-.1-.52-.1-.93-.6-1.07-1.11.03-.65 0-1.32-.02-2-.03-.82-.05-1.63 0-2.4C5.08 6 5.7 5.2 6.31 5.2h4.04v.02ZM8.46 6H6.41c-.14 0-.6.39-.6.52v2.7h2.65V6Zm2.55-1H11Zm0 0v.86c.41.03.71.35.75.8l.76.07C12.58 5.8 11.85 5.01 11 5Z" fill="#262B28"/></svg>