<!-- by TradingView --><svg width="18" height="18" viewBox="0 0 18 18" xmlns="http://www.w3.org/2000/svg"><path fill="#F0F3FA" d="M0 0h18v18H0z"/><path d="M3.16 9a5.84 5.84 0 1 1 11.68 0A5.84 5.84 0 0 1 3.16 9Z" fill="#00AAA7"/><path d="M9 3.35A5.62 5.62 0 0 0 3.35 9c0 3.14 2.5 5.65 5.65 5.65 3.14 0 5.65-2.51 5.65-5.65 0-3.14-2.5-5.65-5.65-5.65ZM3 9a6 6 0 1 1 12 0A6 6 0 0 1 3 9Z" fill="#27953D"/><path d="M4.97 9a4.03 4.03 0 1 1 8.06 0 4.03 4.03 0 0 1-8.06 0Z" fill="#B2E089"/><path d="M9 5.08a3.92 3.92 0 1 0 0 7.84 3.92 3.92 0 0 0 0-7.84ZM4.76 9a4.23 4.23 0 1 1 8.47 0 4.23 4.23 0 0 1-8.47 0Z" fill="#27953D"/><path d="m7.05 10.22.02-.12c0-.17-.04-.33-.08-.44.28-.02.48.05.56.08.09.07.29.18.4.3l.35.33c.18.2.34.37.35.72v1.3c-.02.17-.18.64-.91.64h2.53c-.74 0-.9-.48-.92-.64v-1.27c0-.4.17-.6.34-.79l.27-.24.24-.16.27-.19c.08-.03.27-.1.55-.08-.03.1-.06.23-.06.36-.11.07-.3.2-.37.44l.27.08a.44.44 0 0 1 .14-.21c.04.14.12.28.27.4l.17-.22c-.3-.23-.21-.62-.15-.8.22.06.44.16.65.3-.16.34-.19.94.28 1.3l.16-.22c-.08-.06-.21-.15-.25-.23.06 0 .23.1.32.14l.13-.24c-.1-.05-.35-.2-.5-.16 0-.16.04-.31.08-.41.14.1.34.3.48.45l.11-.27-.18-.19a.35.35 0 0 1 .18-.07l.08-.28a.61.61 0 0 0-.46.17 3 3 0 0 0-.63-.42c.13-.25.28-.44.43-.58.1.25.33.55.7.66l.04-.27a.63.63 0 0 1-.15-.08.53.53 0 0 1 .17-.17V8.84a.8.8 0 0 0-.37.28 1.06 1.06 0 0 1-.16-.29c.2-.13.4-.18.53-.2 0-.1-.02-.18-.03-.27-.07 0-.15.02-.24.05a.44.44 0 0 1 .2-.27l-.06-.27c-.21.11-.45.33-.42.66-.3.15-.63.44-.9.95a1.8 1.8 0 0 0-.62-.1 2.06 2.06 0 0 0 .39-.6l.08-.28c.04-.19.03-.37-.01-.54.2-.1.37-.2.5-.3.4.22.74.17.95.1a3.25 3.25 0 0 0-.1-.26.83.83 0 0 1-.62-.03c.14-.14.26-.29.4-.47l-.16-.25-.02.03-.1.13a.37.37 0 0 1 .01-.32 4.27 4.27 0 0 0-.18-.23c-.13.2-.22.5-.01.78-.2.21-.4.38-.76.55-.04-.11-.1-.22-.17-.34l-.19-.26a3.3 3.3 0 0 0-.07-.1c-.01-.22.03-.42.1-.6.36.03.65-.04.84-.12l.1-.09a3.72 3.72 0 0 0-.18-.17 1.5 1.5 0 0 1-.63.1c.1-.16.2-.3.29-.38l-.23-.15c-.19.2-.48.61-.55 1.12l-.3-.34a1.7 1.7 0 0 1-.12-.13c.4-.23.62-.57.72-.8a4.2 4.2 0 0 0-.24-.11c-.05.1-.12.21-.22.34-.09-.14-.06-.34-.04-.45a3.24 3.24 0 0 0-.26-.08c-.03.16-.08.49.1.72-.06.06-.13.11-.21.16a1.18 1.18 0 0 1-.11-.94 4.05 4.05 0 0 0-.27-.05c-.04.12-.07.29-.05.48-.25-.08-.34-.34-.38-.51H8.84c-.03.17-.13.43-.37.51.01-.2-.02-.36-.05-.48l-.27.05c.05.17.11.52-.11.94-.08-.05-.16-.1-.22-.16.19-.23.14-.56.1-.72l-.26.08c.03.11.05.31-.04.45-.1-.13-.17-.25-.21-.34a4.3 4.3 0 0 0-.25.11c.1.23.32.57.72.8l-.1.13-.31.34c-.08-.5-.37-.91-.55-1.12-.08.04-.16.1-.23.15.08.09.18.22.28.39-.26.01-.48-.05-.62-.11l-.21.2c.18.1.52.22.96.17.07.18.12.4.11.62l-.07.1-.19.25-.18.34a2.15 2.15 0 0 1-.75-.55c.2-.29.11-.59-.02-.78l-.18.23c.04.1.07.2.02.32l-.1-.13-.02-.03-.16.25c.14.18.26.33.4.47a.83.83 0 0 1-.63.03l-.09.25c.21.08.56.13.95-.09.13.1.3.2.5.3l-.03.42.06.27a2.16 2.16 0 0 0 .43.73 1.78 1.78 0 0 0-.63.1 2.1 2.1 0 0 0-.89-.95c.02-.33-.2-.55-.42-.66l-.07.27c.1.06.18.15.21.27a1.74 1.74 0 0 0-.24-.05l-.03.27c.13.02.33.07.53.2-.02.07-.07.18-.16.3a.8.8 0 0 0-.38-.3v.08l.01.23c.06.04.12.1.18.17a.72.72 0 0 1-.16.08l.05.27c.36-.1.59-.41.69-.66.15.14.3.33.43.58-.19.1-.4.23-.62.42a.62.62 0 0 0-.47-.17l.08.28c.06 0 .12.02.18.07l-.12.12.12.27c.13-.14.27-.27.4-.38.05.1.1.25.1.4a.75.75 0 0 0-.44.1l.13.24c.09-.05.2-.08.25-.07a.6.6 0 0 1-.17.21l.16.22c.47-.37.36-.94.2-1.27.22-.15.44-.25.65-.3.06.17.16.56-.14.79l.17.21a.86.86 0 0 0 .27-.4l.03-.1Zm.17-2.34-.2-.07c.17-.43.55-.83.95-1.26.12-.12.2-.24.27-.36.11.05.35.13.63 0l-.11-.25a.46.46 0 0 1-.4 0c.03-.04.05-.1.06-.15.3-.04.47-.23.58-.44.11.2.3.4.59.44l.05.16a.45.45 0 0 1-.4 0l-.1.24c.28.13.51.05.62 0 .07.12.16.24.27.36.25.26.49.52.67.77.12.16.22.32.28.49a8.8 8.8 0 0 1-.19.07l-.26.1-.18.06-.06.02a1.5 1.5 0 0 0-.2-.44 1.13 1.13 0 0 0-.1-.12c.3-.26.25-.6.17-.75l-.24.12c.02.05.11.27-.14.45h-.01c-.36-.2-.22-.51-.19-.57l-.24-.13a.74.74 0 0 0-.08.32.73.73 0 0 0-.5 0 .72.72 0 0 0-.1-.32l-.23.13c.03.06.17.36-.19.57-.26-.18-.17-.4-.15-.45l-.24-.12c-.08.16-.13.5.16.75a1.28 1.28 0 0 0-.29.56l-.06-.02a6.81 6.81 0 0 1-.18-.07l-.26-.09Zm.67 1.74a3.1 3.1 0 0 1-.5-.38c.29-.27.2-.67.19-.7l-.27.07c0 .01.06.26-.1.42a1.22 1.22 0 0 1-.06-.1c-.2-.3-.25-.59-.2-.86l.7.25c.5.17.8.62.97 1.09.12.32.18.65.21.92l-.02.15a2.2 2.2 0 0 0-.4-.49l-.52-.37ZM9 9.56a3.34 3.34 0 0 0-.43-.86c.25-.29.25-.68.25-.7h-.27s0 .28-.16.49a1.69 1.69 0 0 0-.42-.32c.04-.2.14-.46.4-.61a.77.77 0 0 0 .27-.24.5.5 0 0 1 .73.02c.06.08.14.16.26.22.2.11.3.3.36.47l.04.14c-.16.08-.3.2-.43.32A.96.96 0 0 1 9.45 8h-.27a1.21 1.21 0 0 0 .25.7c-.19.26-.33.57-.42.87Zm1.6-.32c-.15.15-.32.27-.48.38-.16-.31.05-.74.06-.74l-.25-.12c0 .02-.29.57-.04 1.01l-.24.17-.21.19c-.1.1-.18.21-.25.35 0-.05 0-.1-.02-.15.08-.65.34-1.73 1.2-2l.69-.26c.04.27-.01.56-.2.87l-.07.1-.18.2Z" fill="#27953D"/><path opacity=".7" d="M5.42 6.23a5.17 5.17 0 0 0-.96 2.76l-1-.04c.03-.89.33-2.2 1.15-3.32A5.06 5.06 0 0 1 8.9 3.6c2.08 0 3.49.92 4.38 2.08a6.73 6.73 0 0 1 1.31 3.39l-1 .08a5.73 5.73 0 0 0-1.1-2.86A4.28 4.28 0 0 0 8.88 4.6c-1.74 0-2.81.73-3.47 1.63Z" fill="#fff"/></svg>