<!-- by TradingView --><svg width="18" height="18" viewBox="0 0 18 18" xmlns="http://www.w3.org/2000/svg"><path fill="#F0F3FA" d="M0 0h18v18H0z"/><path d="M9 4c3.31 0 6 2.24 6 5s-2.69 5-6 5-6-2.24-6-5 2.69-5 6-5Zm0 .33c-3.12 0-5.65 2.1-5.65 4.67 0 2.58 2.53 4.67 5.65 4.67 3.12 0 5.65-2.1 5.65-4.67 0-2.58-2.53-4.67-5.65-4.67Z" fill="#32327A"/><ellipse cx="9" cy="9" rx="5.29" ry="4.33" fill="#32327A"/><path d="M5 9h8l-.49 1.5H5V9ZM10.4 8.5H13L12.52 7H10l.4 1.5Z" fill="#fff"/><path d="M9.18 12h-.93L7 7.25l-.54 1L6.94 7h.93l1.3 5ZM11 12h-.93L8.83 7.25l-.55 1L8.76 7h.93L11 12ZM7.32 12h-.93l-.96-3.57H5V7h1l1.32 5Zm-2.2-3.72h.27l-.26-.98v.98Z" fill="#F65C26"/></svg>