<!-- by TradingView --><svg width="18" height="18" viewBox="0 0 18 18" xmlns="http://www.w3.org/2000/svg"><path fill="#F0F3FA" d="M0 0h18v18H0z"/><circle cx="13" cy="7" r="2" fill="#F25024"/><path d="M7.13 7.1c-.35-.77.04-1.66.87-1.98a1.7 1.7 0 0 1 2.15.8l1.36 3-3.02 1.17L7.13 7.1Z" fill="#064874"/><path d="M12.87 11.9c.35.77-.04 1.66-.87 1.98a1.7 1.7 0 0 1-2.15-.8l-1.36-3 3.02-1.17 1.36 2.98ZM3.13 7.1c-.35-.77.04-1.66.87-1.98a1.7 1.7 0 0 1 2.15.8l1.36 3-3.02 1.17L3.13 7.1Z" fill="#3997CC"/><path d="M8.87 11.9c.35.77-.04 1.66-.87 1.98a1.7 1.7 0 0 1-2.15-.8l-1.36-3L7.5 8.92l1.36 2.98Z" fill="#064874"/></svg>