<!-- by TradingView --><svg width="18" height="18" xmlns="http://www.w3.org/2000/svg"><path fill="#ED3237" d="M0 0h18v18H0z"/><path d="M8.502 11.285c-.186 0-.499-.06-.876-.177C6.056 10.618 5 9.228 5 7.643 5 5.635 6.705 4 8.799 4c1.78 0 3.3 1.16 3.702 2.82l-.41.092c-.356-1.478-1.71-2.506-3.292-2.506-1.864 0-3.376 1.453-3.376 3.237 0 1.41.938 2.646 2.333 3.08.335.104.483.145.746.145v.417z" fill="#fff"/><path d="M5.804 14c-.536 0 .877-1.017 1.62-1.017L10.5 13v-.743c0-.147-.57-.432-.77-.54 0 0-.73-.338-.73-.691V8.41C9 8.262 9.219 8 9.512 8c.293 0 .488.265.488.41v2.414c.213.106.3.202.5.338V6.684c0-.111.187-.429.5-.426.313.003.5.289.5.426V9.35l.5-.205V7.85c0-.108.187-.433.5-.427.312.006.5.282.5.427v1.376c0 .21-.168.439-.326.57-.32.264-1.174.523-1.174.523V13H13v1H5.804z" fill="#fff"/></svg>