<!-- by TradingView --><svg width="18" height="18" viewBox="0 0 18 18" xmlns="http://www.w3.org/2000/svg"><path fill="#F0F3FA" d="M0 0h18v18H0z"/><path d="M14 4v10H4V8.74c.16.08.31.2.48.26.24.04.47.07.71.06.2-.02.38-.1.57-.15.01.2-.02.42.03.62.08.3.4.42.52.68.06.17.1.35.05.53-.13.22-.38.33-.5.55-.07.17-.02.36.04.53.15.37.24.78.5 1.1l-.15.22-.01.32c.24.07.5.07.73-.05a1 1 0 0 0-.26-.4c-.22-.17-.26-.45-.32-.7-.05-.22-.14-.45-.13-.68.22-.2.53-.28.82-.34-.04.2-.2.47.05.58.3.16.52.4.74.63l-.05.37c.18.17.43.17.66.15-.1-.28-.25-.55-.45-.77-.25-.17-.5-.34-.7-.57.34-.35.65-.77.74-1.27.04-.2-.06-.4-.12-.6.55.13 1.05.5 1.64.5.37-.03.73-.14 1.1-.15.22.23.53.4.59.74.1.5.21.98.27 1.48.14.12.26.26.3.45l.1.1.03.18c.22.02.45.02.68 0-.05-.17-.07-.4-.25-.48-.18-.12-.46-.2-.49-.45-.04-.5-.18-.98-.17-1.48.1-.42.19-.85.34-1.26.17-.17.4-.27.63-.36.15-.06.36-.03.42.14.06.23 0 .47-.05.7-.12.03-.29-.04-.36.1a.85.85 0 0 0-.15.67c.3-.05.52-.34.82-.42.06-.37.17-.72.26-1.08.07-.24-.05-.5-.26-.64-.47-.06-1.02.24-1.44-.07-.16-.74-.37-1.56-.04-2.3.19.17.36.35.57.5.18.1.25.3.39.46.16.14.47.03.48-.19-.01-.3-.13-.58-.21-.86-.12-.33-.12-.69-.16-1.04l-.3-.23.16-.21-.32-.04c-.1.08-.2.18-.33.2-.34.06-.67.14-1 .27-.24.12-.45.3-.7.39l-.08.32-.31.2.17.14-.3.25.2.03c-.13.12-.25.24-.39.35l.17.07c-.13.28-.33.56-.63.68-.62.26-1.3.1-1.94.1-.7 0-1.28.48-1.7.99-.3-.14-.82-.14-.87-.55-.05-.21.16-.32.3-.43.28-.2.43-.53.67-.77-.2-.16-.13-.5-.41-.6.03.11.07.23.12.34-.1.21-.15.5-.43.52.06-.16.15-.3.26-.42-.07-.2-.15-.38-.24-.56-.02.22 0 .45-.1.65-.23-.1-.12-.42-.31-.57-.06.3-.02.65-.23.9-.08.11-.31.22-.45.28V4h10Z" fill="#C72D41"/></svg>