<!-- by TradingView --><svg xmlns="http://www.w3.org/2000/svg" width="18" height="18"><path fill="url(#avertungo)" d="M0 0h18v18H0z"/><path d="M13 6l-1.74 6h-1.02L9.01 7.64 7.76 12H6.74L5 6h1.06l1.19 4.17L8.5 6h1l1.3 4.17L11.96 6H13z" fill="#fff"/><path d="M13.82 4.29c-.6-.78-2.24.09-4.33 1.72l.12.37c1.84-1.48 3.12-2.3 3.58-1.7.58.77-.86 3.25-3.22 5.56-2.36 2.3-4.75 3.55-5.33 2.79-.3-.4-.01-1.1.62-2.17H4.9c-.78 1.33-1.12 2.3-.72 2.82.74.97 3.5-.35 6.16-2.95s4.22-5.48 3.49-6.44z" fill="#EEB111"/><defs><linearGradient id="avertungo" x1="3.35" y1="3.12" x2="21.9" y2="24.43" gradientUnits="userSpaceOnUse"><stop stop-color="#1A1E21"/><stop offset="1" stop-color="#06060A"/></linearGradient></defs></svg>