<!-- by TradingView --><svg width="18" height="18" viewBox="0 0 18 18" xmlns="http://www.w3.org/2000/svg"><path fill="#214497" d="M0 0h18v18H0z"/><path d="M11.86 5.43a6.64 6.64 0 0 0-5.72 6.39v1.1l1.43.72h2.5l2.14-1.07 1.43-2.14V8.29l-.71-1.79-1.07-1.07Z" fill="#FCAF1B"/><path d="M9 4a5 5 0 1 0 0 10.01A5 5 0 0 0 9 4Zm4.52 5v.25c-.08.04-.15.05-.22.1H13.21v-.08l.2-.5.09-.11h.02c-.02.1 0 .21 0 .34ZM9 4.5c1.38 0 2.7.63 3.54 1.72-.04-.02-.06-.02-.1-.02-.08 0-.1.06-.12.11l-.02.04s-.02-.02-.02 0l-.01.02h-.02l-.04.05c-.02.04-.03.05-.03.09-.06.12-.06.12-.18.09h-.06l-.01-.06c0-.01 0-.03-.02-.05l-.02-.05c0-.02.02-.04.04-.04.03-.03.09-.05.12-.07l.04-.02.03.04.02.02c.02 0 .02 0 .02-.02.02-.04.05-.06.09-.07.05-.02.12-.06.14-.15 0-.02 0-.02-.02-.03-.01 0-.01-.02-.03-.02a.04.04 0 0 1-.04-.04.22.22 0 0 0-.09-.09c-.03 0-.05 0-.09.02-.02-.09-.09-.12-.14-.14l-.05-.02h-.04c-.05.07-.09.1-.13.1-.03 0-.07-.03-.12-.1-.02-.02-.02-.02-.04 0l-.03.02-.04-.02c-.02-.02-.05-.02-.07-.02h-.1c-.03 0-.08.02-.1 0a.2.2 0 0 0-.14-.05.14.14 0 0 1-.1-.04c-.01 0-.01-.02-.03 0-.02 0-.02 0-.03.02-.04.04-.08.04-.13 0-.02 0-.04-.02-.05 0h-.11l-.07-.02a.2.2 0 0 0-.15-.02h-.01c-.04 0-.04.02-.08-.01 0 0-.01-.02-.01 0l-.02.01-.02.04-.02.04c-.02.01-.03.03-.07.03-.05-.03-.1-.03-.14.02-.08-.07-.15-.04-.2 0l-.16.05-.1.02-.01.02-.02.04-.07-.06h-.04a.22.22 0 0 1-.25 0h-.02l-.01.02-.04.05c-.04-.03-.07-.07-.13-.07a.2.2 0 0 0-.12.06c-.07-.06-.14-.06-.23 0l-.04.01c-.04.02-.05.04-.09.04h-.09a.14.14 0 0 0-.07-.04c-.04 0-.06.02-.07.06l-.06.09.04-.06-.04-.01a.14.14 0 0 1-.09-.04c-.07-.07-.14-.05-.21-.04-.04.02-.1.02-.13.02-.05-.03-.1-.02-.14.04-.04.05-.1.09-.2.07-.07 0-.12.03-.18.07l-.05.07c0 .02-.02.04-.04.06l-.05.03c-.1-.05-.15 0-.18.04a.37.37 0 0 1-.2 0V6.3l-.02-.05c0-.02-.02-.02-.02-.02a.26.26 0 0 0-.1.04c-.06.03-.1.03-.13 0-.02-.02-.02-.02-.03 0l-.04.01c-.02 0-.04.04-.04.04-.01 0-.03 0-.05-.02l-.04-.02h-.01l-.02.02v.1l-.06-.08c-.01-.04-.05-.07-.12-.05h-.18l-.05.01-.06-.03c-.02-.02-.03-.02-.05-.02h-.2s-.02 0-.02.02c-.03.05-.05.05-.14 0A4.52 4.52 0 0 1 9 4.5Zm1.35 7.6-.02.04c-.02.03-.02.05-.07.03v-.16c0-.18.01-.36.09-.52a.5.5 0 0 1 .16-.18c.14-.1.32-.16.5-.2l.07-.01-.05.07-.24.29c-.09.12-.23.28-.35.46a.83.83 0 0 1-.1.18Zm.55-1.11a.85.85 0 0 1-.3.07l-.11.02-.04-.02c-.01-.03-.03-.09-.01-.12.01-.04.03-.08.07-.08.2-.07.37-.18.54-.28.03-.02.07-.02.1-.02h.02l.29-.02h.05l-.03.06-.25.32c-.02.02-.04.02-.06.02-.07-.02-.18.01-.27.05Zm.3-.61h-.03c-.18-.05-.3 0-.4.14 0 .02-.03.02-.05.02l-.1.04c-.08.02-.15.03-.2.07a.22.22 0 0 0-.13.12l-.03.22v.05c0 .13-.04.24-.11.34-.04.1-.07.16-.07.27v.06l-.04.23v.05l-.02-.03c-.03-.06-.07-.1-.12-.15a1.8 1.8 0 0 1-.43-.93c-.02-.1 0-.21.01-.32l.02-.1c.02-.2.06-.42.1-.62 0-.14.03-.28.05-.45V9.25a.28.28 0 0 0-.17-.27.54.54 0 0 1-.14-.07h-.02c-.21-.14-.27-.38-.12-.6l.07-.1L9.4 8c.02-.04.02-.1 0-.15l-.01-.03a.33.33 0 0 1-.04-.13l.02.02c.03.04.05.05.05.1 0 .04.06.08.06.08l.12.05.47.18c.14.06.3.13.43.25.16.18.34.34.54.49.18.14.32.34.41.57l.1.22c.03.03.06.07.08.12l.02.04.07.16c.04.09 0 .2-.07.27-.06.12-.25.2-.43.14ZM9.16 7.96c-.02 0-.02-.02-.03-.02v-.03c0-.04.01-.06.07-.06l-.04.11Zm.45-.23.06-.07.05.12-.1-.05Zm.16.09.06-.04.12.1c-.05-.03-.1-.04-.18-.06Zm.34-.06c.04.02.06.02.1.02.07.02.1.02.12.1h.13l.01.08-.05-.02-.18-.05a.22.22 0 0 1-.09-.1c-.04 0-.04 0-.04-.03Zm.36-1.34v-.05l.07.01v.06c0 .02.02.02.02.02l.06.01a.11.11 0 0 1-.13.02c-.02 0-.02-.02-.02-.07Zm1.22 2.74c0-.03-.01-.05-.03-.07L11.58 9c-.1-.1-.18-.22-.27-.32-.07-.1-.16-.16-.25-.25l-.17-.15-.14-.12c-.05-.04-.07-.1-.07-.16l.21.1h.02l.02-.01.02-.04c.07.07.1.07.23.02.04 0 .06 0 .1.02l.04.01h.02l.02-.01.02-.1-.02-.01h-.07l-.04-.07c-.01-.07-.03-.16-.14-.2-.04-.02-.05-.05-.07-.09-.02-.02-.02-.04 0-.05 0-.02.02-.02.03-.02h.04c.07 0 .13 0 .18.03l.07.04c.02 0 .05-.02.05-.05l.02-.02.02.03.04.13c0 .04.01.07.03.09a.2.2 0 0 0 .1.02l.08-.02h.04c.07.25.27.38.46.47.1.03.15.1.18.2l.06.17.1.36-.01.14v.04c0 .04-.02.07-.04.09-.02.05-.03.09-.03.14a.66.66 0 0 1-.35.54c-.01.02-.03.02-.03.02l-.02-.04c-.03-.09-.09-.2-.14-.27-.11-.18-.18-.34-.24-.5Zm.1-1.5h.03l.09-.08.07.1c.07.08.16.17.23.28l.06.13v.03l-.04-.02c-.14-.05-.25-.1-.32-.23l-.05-.09-.08-.12Zm.68.66c-.04-.05-.06-.13-.08-.2a.78.78 0 0 0-.2-.36c-.05-.05-.1-.1-.15-.18l-.06-.05c.06 0 .07.04.1.09v.02c.06.1.15.18.26.21 0 0 .02 0 .02.02.02 0 .02.02.03.02.11.02.18.1.2.21l.06.18.05.15c.04.14-.02.25-.09.37v-.02c-.02-.03-.02-.07-.02-.08a.63.63 0 0 0-.12-.38Zm-.04-.57.04-.06c.01-.03.01-.03.05-.03.02 0 .04.01.04.03v.1l-.13-.04Zm.25 0c.04.01.07.01.1.03 0 .02.03.04.05.06l.03.03s.02.02.04 0l.05-.02c.05.15.04.3-.09.47a.87.87 0 0 1-.05-.13c-.07-.14-.15-.28-.13-.44Zm.06 1.36c.09-.34.2-.68.44-.95.06-.06.11-.1.18-.13l.06-.03.07.34c-.16.16-.29.37-.36.59l-.14.3-.02.02-.1.07c-.06.02-.1 0-.15-.02-.02-.01-.04-.03-.04-.07l.06-.12Zm.62-1.3c-.01.03-.05.04-.07.06-.03.04-.09.07-.14.05-.06-.01-.07-.08-.1-.12v-.18h.03c.01 0 .03 0 .05.02.04.02.09.02.13 0 .01 0 .03-.02.03 0 .04.05.06.1.07.18Zm-.71-1.44-.02-.04-.02-.04c.02.02.04.04.04.08ZM8.38 8.44l-.1-.09c-.11-.08-.13-.1-.08-.25l.07.06c.16.12.33.25.45.43a.5.5 0 0 1-.29-.1l-.05-.05ZM5.83 7.6v-.02c.13.06.25.04.4 0 .05.04.1 0 .18-.03l.03-.02c.06-.02.1-.05.16-.05.04-.02.06 0 .1 0l.01.05c0 .04.04.04.07.05l.1.04c.05.02.08.04.14.05l.14.08c.05.03.13.05.18.09.1.03.21.1.29.21.05.07.1.14.18.22.03.03.07.07.09.12.01.02.01.04.03.05v.02c-.1.1-.21.11-.38.04-.35-.15-.73-.29-1.09-.41L6.28 8h-.05c-.04 0-.06 0-.1.02-.05.02-.08 0-.16-.03-.05-.04-.08-.08-.16-.13l-.01-.05.03-.22Zm-.05-.02-.04.08c-.02.05-.03.09-.07.1-.04.02-.09-.01-.13-.03h-.01l.09-.16h.01l.02.01.02-.01.02-.06c.03.02.05.06.09.07 0-.01.02-.01 0 0Zm1.13-.2c.03.03.09.03.1-.01.02-.02.04-.02.06-.02.04 0 .07-.02.1-.03l.03-.02.01.3-.01-.02-.11-.05-.11-.04-.07-.01c-.02-.02-.06-.02-.07-.04l.07-.05Zm.43.06v-.09h.04l-.04.1Zm.45.48a.46.46 0 0 0-.25-.2c-.13-.05-.13-.05-.1-.17.02-.04.02-.1.02-.13v-.01l.02-.1c.02 0 .06.02.07 0l.06-.01v.02a.55.55 0 0 0-.04.14c-.02.07 0 .14.07.18l.22.16.07.05C8 7.9 8 7.95 8 8v.23l-.05-.05-.16-.26Zm-.11-.46.09-.27c.07.1.05.16-.04.38-.07-.02-.07-.04-.05-.11Zm.2.18c-.02-.04-.02-.1.02-.16l.05-.18h.04l.09-.1.01.1c0 .02.02.02.02.02h.02l.02-.02c0 .09-.02.2-.1.27a.29.29 0 0 0-.06.12l-.02.04-.1-.1Zm.27.05c.03-.05.05-.1.09-.14.03-.06.09-.1.12-.16l.02-.02.02-.02.02.02h.01l.17.04v.07l.01.01h.04l.04-.01.05-.04.02-.02s.02 0 .02.02l.09.13c.01.03.05.05.07.09l.02.01.03.04c-.02.05-.05.09-.09.13-.09.05-.2.08-.29.12-.12.05-.28-.02-.36-.14-.01-.02-.03-.06-.05-.07l-.03-.06c0 .04-.02.02-.02 0Zm.46.49.08-.04c.07-.04.14-.07.23-.09a.3.3 0 0 1 .12.02l.04.02-.18.4c-.02-.08-.09-.15-.16-.2-.05-.02-.09-.08-.13-.11Zm-3.14-.5c-.02 0-.02 0 0 0l-.02-.02.02.01Zm-.14-.02c-.02.03-.06.05-.13.05l-.07.02c-.09.02-.12 0-.16-.06.07-.05.14-.07.23-.01h.13Zm-.65.09.06-.08.05.04c.14.13.3.16.47.16h.05a1.1 1.1 0 0 1 .41.13l.13.05c.07.04.16.05.23.09l.22.05.38.11c.14.05.3.1.44.18l.45.18c.1.04.18.04.27.02.18-.04.3-.04.45.03.1.07.23.11.36.13.13 0 .2.07.29.18l.02.03c.03.06.08.11.14.15.18.07.23.2.2.36v.14c0 .05-.02.09-.04.12a.54.54 0 0 0-.09.3v.03l-.07.32c0 .02-.02.04-.04.05-.02.02-.05.02-.09 0-.05-.01-.05-.03-.03-.1l.02-.11.01-.1c.04-.15.02-.17-.12-.24l-.22-.11-.12-.07c-.04-.02-.08-.07-.06-.1l.02-.15c0-.04 0-.06.02-.1.02-.14-.06-.2-.15-.3h-.03c-.02 0-.02.02-.02.04v.05l.02.11V9.52c0 .07-.02.13-.04.13h-.12c-.11-.02-.24-.04-.36-.08-.1-.01-.11-.05-.1-.14l.03-.13v-.05c0-.09-.06-.12-.11-.14l-.47-.15c-.07-.03-.16-.05-.23-.09l-.07-.05h-.02s-.02 0-.02.02l-.02.02v.03l.02.02.22.1c.12.08.27.13.4.17l.15.07.02.02.02.03c-.02.06-.04.11-.07.15-.02.02-.04.02-.06.02l-.3-.15-.13-.07-.2-.1c-.07-.04-.1-.08-.1-.13-.02-.15-.1-.22-.24-.24-.2-.01-.32-.14-.46-.28l-.08-.07-.01-.06c0-.02 0-.02-.02-.03l-.02-.06c-.02-.01-.02-.05-.03-.07-.06-.09-.13-.14-.22-.12a.25.25 0 0 1-.16 0c-.02 0-.04-.02-.06-.04l-.05-.04L5.38 8a.26.26 0 0 0-.1-.04h-.23a.2.2 0 0 1-.13-.05l-.04-.04a.34.34 0 0 0-.27-.07l.02-.05h.05Zm4.06 2.49c0 .05-.02.09-.05.12l-.56-.46c.18.05.36.12.52.25.05.01.09.05.09.09ZM5.97 9.1s0-.02 0 0L5.63 9l.02-.05v-.02l-.02-.02h-.05c.16.02.3.07.45.14.18.13.41.18.63.18.07 0 .14.04.2.07l.2.15a.4.4 0 0 1 .08.05c.02 0 .02.02.02.02h-.05l-.26-.04H6.6c-.13-.1-.27-.1-.42-.12-.05 0-.09 0-.14-.02-.06 0-.1-.02-.16-.04h-.02l.02-.01.07-.16c.05 0 .05 0 .03-.02Zm-.82-.5a.33.33 0 0 0-.13-.04h-.05c-.07 0-.13 0-.16-.05h.02c.03 0 .07 0 .1-.02h.04c.04 0 .1 0 .13-.07h.12c.02 0 .02-.02.02-.02v-.02l-.02-.04-.02-.01.1-.02.01-.02c0-.02 0-.02-.02-.03l-.25-.2.16.02c.06.01.1.01.13.03l.09.04.27.05c.05 0 .14.02.18.1.1.35.37.47.64.6l.11.07H6.6c-.12.04-.25.06-.37-.02-.18-.12-.4-.2-.69-.2-.16 0-.28-.08-.4-.15Zm.09.2h-.06v-.04l.06.03Zm-.68.64a.3.3 0 0 1 .12.02h.04l-.04.16c0 .02 0 .02.02.03h.04l.03-.01c.02-.02.04-.02.04-.04l.03-.02.04.1h.04l.03-.03.06-.03.07-.06s.02.02.03.08c0 .01.02.01.02.03l.02.02h.02l.01-.02.06-.03.05-.02.02.03c0 .04.04.07.07.1l.15.01.05-.04c.02-.01.02-.03 0-.03-.02-.05 0-.1.04-.14.01-.02.01-.04.03-.04l.07.02h.02l.02-.02.02-.07.12.02c.16.01.3.05.45.07l.07.02c.15.07.33.12.49.12l.63.05c.07 0 .1.02.12.08 0 .05.06.1.11.12l.02.02.36.21c.09.06.16.13.23.2.04.04.07.06.09.1h.04c.05.05.09.1.09.17 0 .04.01.07.03.09.02.04.06.05.07.09.06.05.1.1.13.16l.2.34c.05.1.1.2.18.29l.66 1a1 1 0 0 1 .16.56V13.4a4.5 4.5 0 0 1-5.5-3.92c0-.01 0-.03.03-.03Zm6.08 3.74-.03-.2a.77.77 0 0 1 .14-.75c.09-.1.16-.23.25-.34l.27-.36c.1-.14.23-.28.36-.43l.34-.4.1-.13c.24-.29.48-.61.82-.8a.36.36 0 0 1 .23-.08c.13 0 .25-.04.36-.1a4.56 4.56 0 0 1-2.84 3.6Z" fill="#fff"/></svg>