<!-- by TradingView --><svg width="18" height="18" viewBox="0 0 18 18" xmlns="http://www.w3.org/2000/svg"><path fill="#F0F3FA" d="M0 0h18v18H0z"/><path d="M8.63 12.86c3.3.58 6.15-.67 6.36-2.8a2.9 2.9 0 0 0-.33-1.6c.04.18.06.36.06.54 0 2.04-2.57 3.69-5.74 3.69-.58 0-1.15-.06-1.68-.16.43.13.87.25 1.33.33ZM3.28 9.4a2.41 2.41 0 0 1-.03-.4c0-2.04 2.56-3.7 5.73-3.7.62 0 1.22.07 1.78.19a9.63 9.63 0 0 0-1.39-.36c-3.3-.58-6.15.67-6.36 2.8-.05.5.05.99.27 1.47Z" fill="#006CB7"/><path fill-rule="evenodd" d="M9 12.27c2.84 0 5.14-1.46 5.14-3.27 0-1.8-2.3-3.27-5.14-3.27S3.86 7.19 3.86 9c0 1.8 2.3 3.27 5.14 3.27ZM13.71 9c0 .33-.11.65-.34.97-.23.32-.56.61-1 .87-.85.5-2.04.82-3.37.82a6.77 6.77 0 0 1-3.38-.82 3.22 3.22 0 0 1-1-.87A1.66 1.66 0 0 1 4.3 9c0-.33.11-.65.34-.97.23-.32.56-.61 1-.87.85-.5 2.04-.82 3.37-.82s2.52.32 3.38.82c.43.26.76.55 1 .87.22.32.33.64.33.97Zm.15 0c0 1.58-2.18 2.86-4.86 2.86S4.14 10.58 4.14 9c0-1.58 2.18-2.86 4.86-2.86S13.86 7.42 13.86 9ZM11 8.4v.4h1v.4h-1v.8h-1V8h2v.4h-1ZM6 8l.43 2h.86l.42-.8.43.8H9l.43-2h-.86l-.21 1.2L8.14 8H7.3l-.22 1.2L6.86 8H6Z" fill="#EE1B2E"/></svg>