<!-- by TradingView --><svg width="18" height="18" viewBox="0 0 18 18" xmlns="http://www.w3.org/2000/svg"><path fill="#F0F3FA" d="M0 0h18v18H0z"/><path d="m14.88 8.04-2.19 4.94-1.64-3.7 1.08-2.4c.23-.53.78-.88 1.38-.88a1.46 1.46 0 0 1 1.37 2.04ZM5.9 6.89A1.52 1.52 0 0 0 4.53 6c-1.08 0-1.8 1.08-1.39 2.04L4.5 11.1A3.23 3.23 0 0 0 7.43 13h1.16L5.91 6.89Zm3.67 0A1.52 1.52 0 0 0 8.19 6C7.12 6 6.4 7.08 6.81 8.04L8.99 13h3.26L9.58 6.89Z" fill="#43C5E4"/><path d="M13.51 8.57c.63 0 1.13-.5 1.13-1.1 0-.6-.5-1.1-1.13-1.1-.62 0-1.13.5-1.13 1.1 0 .6.5 1.1 1.13 1.1ZM8.2 8.57c.63 0 1.14-.5 1.14-1.1 0-.6-.5-1.1-1.13-1.1-.63 0-1.13.5-1.13 1.1 0 .6.5 1.1 1.13 1.1ZM4.53 8.57c.62 0 1.13-.5 1.13-1.1 0-.6-.5-1.1-1.13-1.1-.63 0-1.13.5-1.13 1.1 0 .6.5 1.1 1.13 1.1Z" fill="#fff"/><path d="M13.86 7.2a.94.94 0 0 0-.22.04l.22.57-.59-.22-.03.22c0 .33.27.6.62.6a.6.6 0 0 0 .62-.6c.02-.32-.28-.6-.62-.6ZM8.57 6.5a.94.94 0 0 0-.22.03l.22.57L8 6.89a.6.6 0 0 0 .58.82.6.6 0 0 0 .62-.61c0-.32-.27-.6-.62-.6ZM4.16 7.2a.94.94 0 0 0-.21.04l.21.57-.58-.22a.6.6 0 0 0 .58.82.6.6 0 0 0 .62-.6c0-.32-.27-.6-.62-.6Z" fill="#555759"/></svg>