<!-- by TradingView --><svg width="18" height="18" viewBox="0 0 18 18" xmlns="http://www.w3.org/2000/svg"><path fill="#172339" d="M0 0h18v18H0z"/><path d="M5.76 6.24c-.12 0-.17.08-.17.25l.01.16c.01.07.05.17.1.31l1.2 3.7h.02l1.2-3.76a2.88 2.88 0 0 0 .1-.4c0-.18-.05-.26-.15-.26V6h1.94v.24c-.05 0-.1.02-.12.06a.31.31 0 0 0-.03.15c0 .09.04.24.12.45l1.21 3.76h.02l1.23-3.83a.98.98 0 0 0 .07-.37c0-.05-.01-.1-.05-.15-.04-.04-.08-.07-.14-.07V6H14v.24c-.08 0-.14.05-.19.16l-.14.4-1.63 5.08-.12.38c-.03.1-.05.19-.05.26 0 .06.02.12.05.17.04.04.1.07.16.07V13H10.3v-.24c.05-.02.1-.04.14-.08a.17.17 0 0 0 .08-.14.78.78 0 0 0-.04-.24l-.13-.38L9.04 8H9l-1.24 3.84a3 3 0 0 0-.17.66c0 .14.05.23.15.26V13H6v-.24c.04 0 .09-.01.13-.04.05-.02.07-.07.07-.13a.68.68 0 0 0-.04-.23l-.08-.25-1.82-5.5c-.03-.1-.06-.18-.1-.25A.24.24 0 0 0 4 6.24V6h1.76v.24Z" fill="#fff"/></svg>