<!-- by TradingView --><svg xmlns="http://www.w3.org/2000/svg" width="18" height="18"><path fill="#F0F3FA" d="M0 0h18v18H0z"/><path d="M14 5.88v-.55C14 4.6 13.44 4 12.75 4h-.24c.11.18.3.58.3 1.06-.03.65-.34 1.4-1.16 2.15.6-.04 1.77-.36 1.73-1.33H14zM11.4 4H9.79a3.13 3.13 0 00-1.07 2.55c.02 1.46.36 2.36.53 2.63.17-.58.71-1.87 1.55-2.35-.22-.27-.6-1-.4-1.77l.43.12c-.06.27-.07.92.38 1.37.25-.2.77-.73.8-1.37.03-.49-.3-.91-.61-1.18z" fill="#42718F"/><path d="M7.79 14c.3-.62.8-1.88.8-3.02.01-.49-.07-1.3-1.34-1.18-.12.07-.43.36-.85.83-.54.6-1.75.64-2.19.04l.3-.37c.3.29 1.1.62 1.85-.35-.51.12-1.68.23-2.36-.3v3.02C4 13.4 4.56 14 5.25 14h2.54z" fill="#7B9AAF"/><path d="M14 7.7V6.27a2.02 2.02 0 01-1.2 1.31l-.48.09c-.64.1-1.43.24-1.7.52a4.46 4.46 0 00-.86 2.1c.19-.33.9-1.08 2.23-1.45 1.27-.34 1.85-.89 2.01-1.16z" fill="#003B60"/><path d="M10.7 14h2.05c.69 0 1.25-.6 1.25-1.33v-2.5a2.7 2.7 0 00-1.59-.62c-.93-.02-2.51.64-2.51 2.29 0 .22.1.9.8 2.16zM14 9.36v-.92l-.75.59c.15.05.5.18.75.33zM8.93 4H7.84c.13.32.26.97-.19 1.32l.5.9c.02-.5.2-1.65.78-2.22z" fill="#1B5A7D"/><path d="M7.1 4H5.25C4.56 4 4 4.6 4 5.33v3.4c.23.3.77.75 1.52.67.08-.2.17-.67-.04-1.03-.24-.41-.69-.43-.93-.44h-.04v-.51c.28-.03.95.05 1.37.66.1-.13.45-.36.95-.24l-.1.48c-.18-.04-.54-.02-.66.33.02.14.05.47-.03.68.48-.13 1.65-.3 2.48.07-.09-.46-.37-1.47-.77-1.75-.4-.29-.72-.33-1-.36-.76-.08-2.27-.56-2.18-1.88l.58.14c-.02.28.27.88 1.57 1.07.27.04.9.17 1.27.4-.26-.76-1-2.26-1.92-2.26-.11 0-.43.02-.77.16l-.15-.47c.15-.08.57-.24 1.07-.22.62.03.97.4 1.15.69.13-.17.25-.6-.27-.92z" fill="#1B5A7D"/><path d="M11.5 4.88c.2.27.42.87-.25 1.12-.2-.17-.42-.64.25-1.12zm-5.71.38c0 .44.21 1.24 1.07.9.07-.34-.04-1-1.07-.9zm1.06 6.29c-.1-.5-.05-1.44.98-1.3.16.36.18 1.13-.98 1.3zm6.04-.78c-.37.29-1.18.6-1.46-.49.25-.3.88-.6 1.46.49zM4.42 8.3c0 .31.15.87.75.63.04-.24-.04-.7-.75-.63zm3.12-.16c.04.3-.02.88-.65.75-.08-.22-.07-.7.65-.75zm3.97.17c-.04.3-.25.84-.82.52-.02-.24.12-.7.82-.52zM9.76 5.67c.22.38.41 1.2-.49 1.4-.22-.26-.44-.9.5-1.4z" fill="#CDD90A"/></svg>