<!-- by TradingView --><svg width="18" height="18" xmlns="http://www.w3.org/2000/svg"><path fill="#0055A5" d="M0 0h18v18H0z"/><path d="M8.55 3.865a4.892 4.892 0 00-2.49.965 5.151 5.151 0 00-1.912 2.893c-.12.483-.159.867-.146 1.415.016.587.095 1.18.265 1.677L4.33 11h8.57l.069-.204c.13-.379.185-.748.235-1.164.037-.33.028-.936-.021-1.247-.275-1.774-1.49-3.243-3.126-3.776a4.335 4.335 0 00-1.415-.22c-.496 0-.927.07-1.389.224a5.884 5.884 0 00-.89.404c-.177.106-.083.027.127-.106a4.83 4.83 0 011.83-.673 6.703 6.703 0 011.277.01c.863.136 1.616.48 2.29 1.046.355.299.762.774.999 1.165.236.392.465.944.57 1.378.105.439.124.622.122 1.182 0 .486-.006.553-.051.804a4.872 4.872 0 01-.759 1.911c-.677 1.016-1.83 1.82-3 2.093a5.247 5.247 0 01-1.543.104 4.868 4.868 0 01-2.374-.91 1.416 1.416 0 00-.151-.106c0 .006.083.074.185.155a4.898 4.898 0 003.126 1.086 4.75 4.75 0 001.958-.41 5.131 5.131 0 002.592-2.627 5.335 5.335 0 00.133-3.901c-.18-.5-.504-1.08-.839-1.5a6.624 6.624 0 00-.78-.784c-.998-.796-2.287-1.188-3.524-1.069z" fill="#fff"/></svg>