<!-- by TradingView --><svg xmlns="http://www.w3.org/2000/svg" width="18" height="18" viewBox="0 0 18 18"><path fill="#F0F3FA" d="M0 0h18v18H0z"/><path d="M2 7.37h.5V9.2c0 .4.37.72.75.72S4 9.6 4 9.2V7.37h.5v1.76c0 .44.36.8.79.79.4 0 .72-.4.71-.8V7.37h.5v1.75c0 .73-.49 1.3-1.21 1.3-.4 0-.8-.14-1.04-.45-.23.3-.62.46-1 .46-.26 0-.52-.07-.73-.21A1.26 1.26 0 0 1 2 9.27v-1.9Z"/><path fill-rule="evenodd" d="M11.5 12.5s-.22-.24-1.23-1H8.58C7.76 11.5 7 10.63 7 9.74V7.95c0-.53.2-1.06.56-1.42.3-.32.72-.5 1.15-.53h5.58c.43.03.84.21 1.15.53.36.36.57.9.56 1.42v1.79c0 .9-.75 1.76-1.59 1.76h-1.69c-1 .76-1.22 1-1.22 1Zm.47-2.16h-.5V8.52a.7.7 0 0 0-.68-.72.7.7 0 0 0-.67.72v1.81h-.5V8.6c0-.44-.33-.8-.74-.79-.38 0-.64.4-.64.8v1.74h-.5V8.59c.01-.72.46-1.3 1.14-1.3.38 0 .75.15.98.46.22-.3.57-.46.93-.46.25 0 .5.07.7.21.3.22.44.59.48.95v1.89Zm1.22-2.95a1.43 1.43 0 0 1 1.53.3c.15.14.25.32.35.5l.02.01-1.6.89-.34.18-.23-.4 1.44-.79a.88.88 0 0 0-.66-.28c-.55 0-.99.5-.99 1.06a1 1 0 0 0 1 .97c.51 0 .86-.41.93-.91.13 0 .26.02.38.04l.17.03c-.08.4-.25.79-.58 1.04-.25.22-.58.31-.9.3-.12 0-.23 0-.34-.03a1.51 1.51 0 0 1-1.15-1.44c0-.63.37-1.25.97-1.47Z" fill="#0095D4"/></svg>