<!-- by TradingView --><svg width="18" height="18" viewBox="0 0 18 18" xmlns="http://www.w3.org/2000/svg"><path fill="#1076B4" d="M0 0h18v18H0z"/><path fill-rule="evenodd" d="M12.5 5.5h-7v7h7v-7ZM5 5v8h8V5H5Z" fill="#FEFEFE"/><path d="M14.62 5.06c-.24.13-.98.56-2.04 1.66a20.55 20.55 0 0 0-2.3 2.95S9.3 7.57 8.75 6.9a1.1 1.1 0 0 0-.12-.13c-.23-.2-.71.15-.84.24-.11.08-.43 1.19-.7 2.36l-.12.52a5.97 5.97 0 0 0-1.33-2.07.8.8 0 0 0-.23-.15c-.13-.05-.27-.02-.43.06-.46.22-.98.81-.99.85-.01.06.16.19.48-.03.1-.06.29.08.51.34.53.6 1.25 1.97 1.32 2.57.04.4.3.53.56.54.29 0 .6-.16.7-.33.06-.11.55-2.46.77-2.67.09 0 .19.17.3.4.31.7.67 1.87.7 2.26.01.23.23.32.47.34.3.02.63-.06.69-.13.09-.12 1.9-4.91 4.34-6.41.3-.18.16-.62-.22-.4Z" fill="#FEFEFE"/></svg>