<!-- by TradingView --><svg width="18" height="18" viewBox="0 0 18 18" xmlns="http://www.w3.org/2000/svg"><path fill="#F0F3FA" d="M0 0h18v18H0z"/><path d="M10.98 5h-.4a.15.15 0 0 0-.13.1l-2.43 7.65L5.7 5.37A.51.51 0 0 0 5.22 5h-1.7c-.36 0-.6.36-.5.7l2.48 7.98c.05.2.22.32.41.32h2.15c.2 0 .36-.13.42-.32l2.64-8.48c.03-.1-.04-.2-.14-.2Z" fill="#09B5E7"/><path d="M14.85 5h-.4a.15.15 0 0 0-.13.1l-2.43 7.65-2.31-7.38A.51.51 0 0 0 9.09 5H7.4c-.36 0-.6.36-.5.7l2.47 7.98c.06.2.23.32.42.32h2.15c.19 0 .36-.13.42-.32l2.64-8.48c.03-.1-.04-.2-.14-.2Z" fill="#3A5896"/></svg>