<!-- by TradingView --><svg xmlns="http://www.w3.org/2000/svg" width="18" height="18" viewBox="0 0 18 18"><path fill="#F0F3FA" d="M0 0h18v18H0z"/><path d="M15 6v5.91c0 .07-.03.09-.1.09H9.45c-.07 0-.09-.02-.09-.09l-.01-.81c0-.07.02-.1.09-.1H12.7c.46 0 1.17-.27 1.27-.72.02-.07.02-.21.02-.28l-.01-2.91c0-.07-.01-.09-.08-.09H11.2c-.1 0-.19 0-.19.12V10c0 .16-.07.27-.17.4-.15.22-.52.35-.77.37-.03 0-.06-.01-.05-.04L10 7.1c0-.07.02-.1-.06-.1h-.51c-.06 0-.07 0-.06-.07V6H15z" fill="#A3A4A2"/><path d="M3 6v5.91c0 .07.03.09.1.09h5.46c.07 0 .09-.02.09-.09l.01-.81c0-.07-.02-.1-.09-.1H5.3c-.46 0-1.17-.27-1.27-.72A1.7 1.7 0 0 1 4 10l.01-2.91c0-.07.01-.09.08-.09H6.8C6.9 7 7 7 7 7.12V10c0 .16.07.27.17.4.15.22.52.35.77.37.03 0 .06-.01.05-.04L8 7.1c0-.07-.02-.1.06-.1h.51c.06 0 .07 0 .06-.07V6H3z" fill="#501C23"/></svg>