<!-- by TradingView --><svg width="18" height="18" xmlns="http://www.w3.org/2000/svg"><path fill="url(#paint0_linear)" d="M0 0h18v18H0z"/><path d="M9 6s-1.767 5-1.784 5c.002-.009-1.896-3.966-1.918-4.199-.029-.25.102-.798.102-.798.034 0 0 .028 0 0H3l.252.335C3.516 6.62 7 14.002 7 14.002S8.983 8.99 9 9c.017.011 2.036 5.002 2.036 5.002L14.364 6.9c.086-.176.264-.437.395-.584L15 6h-.876l-.725.003c.2.238-.027.505-.135.896L11.345 11 9 6z" fill="#fff"/><defs><linearGradient id="paint0_linear" x1="3.349" y1="3.122" x2="21.904" y2="24.434" gradientUnits="userSpaceOnUse"><stop stop-color="#1A1E21"/><stop offset="1" stop-color="#06060A"/></linearGradient></defs></svg>