<!-- by TradingView --><svg xmlns="http://www.w3.org/2000/svg" width="18" height="18" viewBox="0 0 18 18"><path fill="#E5FE54" d="M0 0h18v18H0z"/><path fill-rule="evenodd" d="M9 14c-2.66 0-4.04-.57-4.87-1.93A6.92 6.92 0 0 1 3.5 9c0-.9.17-2.3.63-3.07C4.96 4.57 6.34 4 9 4s4.04.57 4.87 1.93c.46.78.63 2.17.63 3.07 0 .9-.17 2.3-.63 3.07C13.04 13.43 11.66 14 9 14Zm1.5-2c-.3 0-.74-.13-.95-.6L8.1 8.37A1 1 0 0 1 9.02 7c.3 0 .73.13.94.6l1.46 3.03A1 1 0 0 1 10.5 12Zm-2.66 0c-.3 0-.74-.13-.95-.6L5.44 8.37A1 1 0 0 1 6.36 7c.3 0 .73.13.94.6l1.46 3.03A1 1 0 0 1 7.84 12ZM12 9.46c-.3 0-.74-.13-.95-.6l-.29-.5A1 1 0 0 1 11.68 7c.3 0 .73.13.94.6l.3.5A1 1 0 0 1 12 9.45Z" fill="#002E91"/></svg>