<!-- by TradingView --><svg width="18" height="18" viewBox="0 0 18 18" xmlns="http://www.w3.org/2000/svg"><path fill="#F0F3FA" d="M0 0h18v18H0z"/><path d="M8.95 4.7a.77.77 0 0 0-.37.16c-.06.04-.64.62-2.13 2.1A271 271 0 0 0 4.34 9.1c-.13.15-.23.33-.29.5a.98.98 0 0 0-.05.34c0 .12.01.21.08.48.03.12.06.23.05.24l1.32 1.34c1.82 1.83 2.69 2.7 2.76 2.75a1.36 1.36 0 0 0 .98.25c.24-.03.48-.13.66-.29.1-.07 2.2-2.16 3.6-3.57 1.37-1.38 1.32-1.32 1.41-1.52a1.28 1.28 0 0 0 .14-.6c0-.15 0-.2-.02-.26a1.3 1.3 0 0 0-.18-.45 4.17 4.17 0 0 0-.91-.9l.03.1c.04.1.08.24.1.36.01.12 0 .34-.02.45-.05.24-.18.48-.36.7l-.53.53a476.87 476.87 0 0 0-3.65 3.62c-.2.15-.4.2-.6.16a.98.98 0 0 1-.33-.18 1007.21 1007.21 0 0 0-2.05-2.05 5.78 5.78 0 0 1-.72-.79.61.61 0 0 1-.12-.35c0-.15.08-.3.26-.51A228.92 228.92 0 0 0 8.96 6.4c.04-.02.07-.02.1 0l.25.24c.64.64 2.32 2.3 2.36 2.32l.03.02.08-.07c.3-.26.44-.4.52-.58.02-.04.05-.1.05-.13a.67.67 0 0 0 0-.28c-.02-.07-.08-.2-.15-.29-.07-.1-2.68-2.7-2.77-2.77a.68.68 0 0 0-.48-.16Z" fill="#00535C"/><path d="M8.73 3c-.24.04-.45.14-.7.33-.1.09-.2.18-1.4 1.38a603.73 603.73 0 0 1-3.26 3.26c-.17.2-.28.4-.34.6-.02.09-.02.1-.03.4v.31l.03.07c.05.14.15.32.25.45a9.85 9.85 0 0 0 .85.85l-.05-.24A1.82 1.82 0 0 1 4 9.93c0-.25.1-.54.3-.8a357.94 357.94 0 0 1 4.2-4.2.95.95 0 0 1 .38-.22.66.66 0 0 1 .25 0c.08.02.2.08.3.14.1.08 2.7 2.68 2.77 2.78.07.09.13.22.15.3.02.06.02.2 0 .27a.9.9 0 0 1-.05.13c-.08.17-.22.32-.52.58l-.08.07-.02-.01-.03-.02-.76.76a317.37 317.37 0 0 0-1.71 1.7.33.33 0 0 1-.16.08.31.31 0 0 1-.14-.06 192.37 192.37 0 0 0-2.44-2.41c-.05-.03-.08-.04-.1-.01l-.07.06c-.07.05-.3.27-.37.37-.13.15-.22.29-.25.4-.03.14 0 .3.11.46.1.16.2.26.73.79a1007.21 1007.21 0 0 1 2.04 2.05c.1.08.24.15.34.18.18.04.4 0 .59-.16l1.64-1.61A484.06 484.06 0 0 1 13.64 9c.18-.22.3-.46.36-.7a1.59 1.59 0 0 0-.11-.92l-.12-.15a272.48 272.48 0 0 0-3.74-3.75c-.2-.18-.38-.3-.56-.4C9.27 3 9.27 3 9 3h-.27Z" fill="#DD3F14"/></svg>