<!-- by TradingView --><svg width="18" height="18" viewBox="0 0 18 18" xmlns="http://www.w3.org/2000/svg"><path fill="#F0F3FA" d="M0 0h18v18H0z"/><path d="m5.5 7.33-1.99.51c.24-.89 1.25-2.4 3.25-2.4 1.6 0 2.34 1.03 2.51 1.54-.25-.34-.98-1.04-1.7-1.04-1.13 0-1.84.93-2.07 1.4Z" fill="#ED1C24"/><path d="m5.2 7.4.3-.07c.23-.46.94-1.4 2.07-1.4.72 0 1.45.7 1.7 1.05a1.65 1.65 0 0 0-.13-.29 2.02 2.02 0 0 0-1.71-.92c-1.29 0-1.98 1-2.22 1.64Z" fill="#0A3C79"/><path d="M3.69 8.65a.92.92 0 0 1-.38 0c-.1.48-.31 1.47-.31 1.54 0 .08.1.09.14.09l1.79-.4c.55-.12.83-.42.9-.55l.92-1.8a8.7 8.7 0 0 1-1.53.74l-1.53.38Z" fill="url(#afxxxfiyd)"/><path fill-rule="evenodd" d="m3.02 11.14.5.75c.02.06.15.16.47.08.32-.09 1.43-.34 1.95-.46l.79-1.21-3.32.84a.72.72 0 0 1-.4 0Zm2.68-.15-.12-.2-.02.23-.21.05.2.08-.02.23.15-.17.2.08-.11-.19.14-.16-.21.05Zm-.96.02.11.19.22-.05-.14.17.11.19-.2-.09-.15.17.02-.22-.2-.09.21-.05.02-.22Zm-.84.2.11.18.22-.05-.15.17.12.19-.2-.09-.15.17.02-.22-.2-.09.2-.05.03-.22Z" fill="url(#bfxxxfiyd)"/><path d="M10.13 12H8.02a.08.08 0 0 1-.08-.08c0-.04.03-.08.08-.08h.31c.32 0 .53-.37.6-.55l2.39-6.2a.14.14 0 0 1 .12-.09c.06 0 .1.03.13.09.7 1.83 2.07 5.46 2.3 6 .23.55.63.73.8.75h.26c.04 0 .07.04.07.08s-.03.08-.07.08h-2.14a.08.08 0 0 1-.07-.08c0-.04.03-.08.07-.08.2-.05.12-.27.04-.4l-1.6-4.58-1.6 4.43c-.13.37.01.52.1.55h.4c.05 0 .08.04.08.08s-.03.08-.08.08Z"/><path d="m6.76 10.16-.84 1.33c.27-.25.57-.38.69-.4 1.68-.37 5.14-1.1 5.47-1.15.33-.06.64-.4.76-.55l.86-1.38c-.23.27-.58.4-.73.42l-5.3 1.12c-.68.14-.74.36-.9.6Z" fill="url(#cfxxxfiyd)"/><path d="M13.37 8.54c-.2.11-.5.21-.68.26-1.55.31-4.8.98-5.3 1.1-.3.06-.54.22-.7.37l-.1.17c.22-.16.6-.27.8-.31l5.2-1.1c.29-.06.53-.21.7-.36l.08-.13Zm-.39.61c-.19.12-.5.22-.67.27-1.56.31-4.8.97-5.3 1.1-.32.06-.56.23-.72.38l-.1.17c.23-.17.62-.29.81-.33l5.2-1.1c.3-.05.53-.2.7-.35l.08-.14Z" fill="#fff"/><path opacity=".5" fill="#222223" d="M7 8h2v1H7z"/><defs><linearGradient id="afxxxfiyd" x1="3.23" y1="8.52" x2="5.61" y2="9.01" gradientUnits="userSpaceOnUse"><stop/><stop offset=".15" stop-color="#58585A"/><stop offset=".24" stop-color="#7C7D80"/><stop offset=".38" stop-color="#59595B"/><stop offset=".57" stop-color="#040405"/><stop offset="1" stop-color="#212122"/></linearGradient><linearGradient id="bfxxxfiyd" x1="3.79" y1="11.59" x2="6.57" y2="11.02" gradientUnits="userSpaceOnUse"><stop stop-color="#0A3C79"/><stop offset="1" stop-color="#005BA9"/></linearGradient><linearGradient id="cfxxxfiyd" x1="6.85" y1="10.44" x2="13.7" y2="9.76" gradientUnits="userSpaceOnUse"><stop stop-color="#EE5F46"/><stop offset=".2" stop-color="#E22726"/><stop offset="1" stop-color="#860B06"/></linearGradient></defs></svg>