<!-- by TradingView --><svg xmlns="http://www.w3.org/2000/svg" width="18" height="18" viewBox="0 0 18 18"><path fill="#F0F3FA" d="M0 0h18v18H0z"/><circle cx="9" cy="9" r="5" fill="#FE8800"/><path d="M10.97 2c.12.53.16 1.74-.68 2.38a.97.97 0 0 1-.27.1c.07-.14.22-.5.22-.84 0-.34-.24-.6-.37-.7.08.1.24.38.24.78s-.24.67-.36.75c-.47-.1-1.48-.18-1.78.22-.12-.07-.38-.25-.39-.44-.01-.2.11-.42.17-.5-.17.16-.44.6-.06 1.14-.13.13-.42.41-.53.46-.15.07-.36 0-.39-.05-.1.01-.3.1-.3.31 0 .22.14.31.21.33.25.08.75.38.75.92 0 .55-.31.93-.47 1.06.07-.01.22-.03.25-.08.04-.05-.2.56-.77.87.09.02.3.05.4-.02a.62.62 0 0 1-.27.23h.2a1.53 1.53 0 0 0-.24 1.37.57.57 0 0 1 .17-.31c0 .12-.01.38-.1.5.05-.04.15-.12.18-.08.03.04.03.08-.05.3-.06.17-.46.94-.66 1.3.08.25.4.82 1.04 1.1l.2 1.33c.05.14-.13.67-.31 1.06.09 0 .53-.16.63-.29l-.05-1.92c.25.05.82.14 1.11.12l-.23-.33c-.16.07-.57.15-.86-.04.04-.4.15-1.3.29-1.68.47.01 1.49-.1 1.84-.65.1.22.38.74.67.99.13.73.25 2.46-.35 3.6l-.16.3c.2-.04.62-.16.68-.19 0-.19.05-.64.16-.97.11-.32.24-.78.29-.97a20 20 0 0 0 .24-2.1c.27-.37.74-1.3.49-2.12.22-.1.59-.49.3-1.1-.03.1-.09.3-.16.33l-.06-.16-.14.28a.7.7 0 0 1-.05-.22c-.04.08-.15.26-.29.31-.12-.13-.4-.4-.52-.39-.04 0-.1.05-.2.1-.23.16-.6.4-1.16.43-.61.03-1-.49-1.1-.75l.18.04-.33-.34.22.02c-.1-.06-.3-.3-.32-.8 0-.09.04-.31.14-.52.11-.21.13-.48.12-.58.23.24.76.48 1.1-.5-.33.1-1.07.22-1.46-.15.02-.17.25-.51 1.06-.55l.42-.01c.7-.01 1.05-.02 1.55-1.04.18-.08.5-.38.44-.85-.01.17-.1.53-.4.65.04-.35.07-1.11-.12-1.44zM7 11.78l-.37.38c.06.13.23.43.45.59-.02-.01-.06-.65-.08-.97z" fill="#FE8800"/><path d="M10.66 4.28a4.96 4.96 0 0 0-.19-.06c-.05.06-.11.11-.18.16a.97.97 0 0 1-.27.1l.14-.35a5.07 5.07 0 0 0-.13-.02.9.9 0 0 1-.28.36c-.47-.1-1.48-.18-1.78.22-.12-.07-.38-.25-.39-.44V4.2l-.08.03c-.02.19.01.41.19.66-.13.13-.42.41-.53.46-.15.07-.36 0-.39-.05-.1.01-.3.1-.3.31 0 .22.14.31.21.33.25.08.75.38.75.92 0 .55-.31.93-.47 1.06.07-.01.22-.03.25-.08.04-.05-.2.56-.77.87.09.02.3.05.4-.02a.62.62 0 0 1-.27.23h.2a1.53 1.53 0 0 0-.24 1.37.57.57 0 0 1 .17-.31c0 .12-.01.38-.1.5.05-.04.15-.12.18-.08.03.04.03.08-.05.3-.06.17-.46.94-.66 1.3.08.25.4.82 1.04 1.1l.09.57c.13.05.26.1.4.13l-.02-.52c.25.05.82.14 1.11.12l-.23-.33c-.16.07-.57.15-.86-.04.04-.4.15-1.3.29-1.68.47.01 1.49-.1 1.84-.65.1.22.38.74.67.99.08.44.16 1.26.07 2.1l.52-.2c0-.05.02-.1.03-.13a20 20 0 0 0 .24-2.1c.27-.37.74-1.3.49-2.12.22-.1.59-.49.3-1.1-.03.1-.09.3-.16.33l-.06-.16-.14.28a.7.7 0 0 1-.05-.22c-.04.08-.15.26-.29.31-.12-.13-.4-.4-.52-.39-.04 0-.1.05-.2.1-.23.16-.6.4-1.16.43-.61.03-1-.49-1.1-.75l.18.04-.33-.34.22.02c-.1-.06-.3-.3-.32-.8 0-.09.04-.31.14-.52.11-.21.13-.48.12-.58.23.24.76.48 1.1-.5-.33.1-1.07.22-1.46-.15.02-.17.25-.51 1.06-.55l.42-.01c.5-.01.83-.01 1.16-.4zm-4.03 7.88l.37-.38c.02.32.06.96.08.97a1.6 1.6 0 0 1-.45-.6z" fill="#F0F3FA"/></svg>