<!-- by TradingView --><svg width="18" height="18" xmlns="http://www.w3.org/2000/svg"><path fill="#F0F3FA" d="M0 0h18v18H0z"/><path d="M6.81 5h4.368c.46 0 .834.358.834.8 0 .442-.373.8-.834.8H6.86a1.48 1.48 0 00-.742.298c-.231.181-.45.482-.451 1.036 0 .56.22.87.45 1.054.262.21.57.28.71.278h4.351c.46 0 .834.359.834.8 0 .442-.373.8-.834.8H6.836c-.528.003-1.218-.194-1.788-.65C4.445 9.734 4 8.976 4 7.934c0-1.048.456-1.798 1.062-2.274a3.168 3.168 0 011.726-.658L6.811 5z" fill="url(#paint0_linear)"/><path d="M11.19 7.134H6.822c-.46 0-.834.358-.834.8 0 .441.373.8.834.8h4.318c.176.013.487.097.742.297.232.182.45.482.451 1.036 0 .56-.22.87-.45 1.055-.262.21-.57.28-.71.278H6.822c-.46 0-.834.358-.834.8 0 .442.373.8.834.8h4.342c.528.003 1.218-.194 1.788-.65.603-.483 1.049-1.242 1.048-2.284 0-1.048-.456-1.797-1.062-2.273a3.169 3.169 0 00-1.726-.658l-.022-.001z" fill="url(#paint1_linear)"/><defs><linearGradient id="paint0_linear" x1="4.375" y1="8.166" x2="11.178" y2="8.166" gradientUnits="userSpaceOnUse"><stop stop-color="#8CC63E"/><stop offset="1" stop-color="#48B845"/></linearGradient><linearGradient id="paint1_linear" x1="13.625" y1="10.299" x2="6.822" y2="10.299" gradientUnits="userSpaceOnUse"><stop stop-color="#00AFE8"/><stop offset="1" stop-color="#00869A"/></linearGradient></defs></svg>