<!-- by TradingView --><svg width="18" height="18" viewBox="0 0 18 18" xmlns="http://www.w3.org/2000/svg"><path fill="#F0F3FA" d="M0 0h18v18H0z"/><path d="M9.03 12.37h-.06C8.4 12.78 7.75 13 7 13a3.36 3.36 0 0 1-1.92-.53 2.2 2.2 0 0 1-1.03-1.37A8.1 8.1 0 0 1 4 9.89V6.9c0-.25.03-.42.09-.52.09-.16.23-.27.42-.33.18-.06.36-.08.56-.04.33.06.93.3.93.67v3.94c0 .47.05.79.6.95.27.07.55.06.84-.04.49-.19.56-.54.56-1.03V8.93c0-.05.13-.06.18-.02.46.42 1.13 1.1 1.78 1.27.03.01.04.03.04.05v.45c.01.35.07.62.4.79.32.16.65.2 1.01.1.49-.1.6-.6.6-1.03l-.01-.28c0-.05.04-.06.1-.08.63-.17 1.39-.86 1.84-1.27.03-.03.05-.03.05.02v1.87c0 .33-.12.66-.34 1-.23.33-.53.6-.91.8a3.77 3.77 0 0 1-3.7-.22Z" fill="#00C6C5"/><path d="M13.77 8.15a2.98 2.98 0 0 0-.65-3.27 2.99 2.99 0 0 0-4.24 0 2.99 2.99 0 0 0 0 4.24 2.99 2.99 0 0 0 4.24 0c.28-.28.5-.6.65-.97ZM12.37 7a1.36 1.36 0 1 1-2.73 0 1.36 1.36 0 0 1 2.72 0Z" fill="#0094FE"/></svg>