<!-- by TradingView --><svg xmlns="http://www.w3.org/2000/svg" width="18" height="18"><path fill="#E4D7B0" d="M0 0h18v18H0z"/><path d="M14 9a5.02 5.02 0 01-5.7 4.96 5.3 5.3 0 001.45-1.7l.08.34c.12-.02.4-.14.52-.52.15-.48.52-.79.98-.84a18.7 18.7 0 001.74-.38.59.59 0 00.42-.56c0-.34-.33-.34-.5-.3-.61.13-1.67.06-2.12 0 .43-.49 1.6-.87 2.12-1 .3-.11.46.16.5.32.17-.1.38-.47.5-.7L14 9zm-5.42 3.6c-.33.43-.85.94-1.1 1.18-.3-.1-.57-.2-.83-.34l1.93-.84zm0-1.36c-.81.18-1.64 1.48-1.99 2.17a5.05 5.05 0 01-.98-.68c.78-.23 1.42-.9 1.76-1.26l.19-.2c.26-.23.8-.5 1.44-.42.5.06 1.13.02 1.38 0a8.97 8.97 0 01-1.68-.41c-.36-.17-.15-.37 0-.45l1.81-1.22c-1.29.35-1.97.3-2.15.23a3.46 3.46 0 00-.68-.13c-.33-.02-.87.06-1.46.59-.43.39-1.43.95-2 1.25-.1-.28-.17-.56-.22-.86.42-.06 1.37-.3 1.72-.53.33-.22.48-.3.84-.46l.32-.15c.48-.24.9-.17 1.04-.11.16.07.58.2.96.19.26-.02.63-.08.93-.14l.33-.05a4.13 4.13 0 011.2 0l-.24.14c-.8.5-2.2 1.35-1.57 1.65a5.8 5.8 0 001.8.41c-.09.13-1.17.32-1.68.34-.4.02-.88.07-1.07.1zm-3.75.62a5 5 0 00.34.43c.95-.32 1.6-.83 1.82-1.07-.3.14-1.47.46-2.16.64zM8.96 4c-2 0-3.73 1.16-4.54 2.84.44-.03 1.44 0 2.24.34.18.08.65.23 1.07.13.52-.13 1.97-.48 3.14 0 .18.05.97.1 2.76-.19A5.04 5.04 0 008.96 4zm1.06 3.44c-1.08.36-1.37.64-1.4.75.2-.1.61-.14.8-.15.35-.01 1.05-.11 1.05-.35-.01-.23-.25-.31-.45-.25zM4.43 7.1c.68.05 2.15.37 2.15.75 0 .42-.49.48-.79.42.15-.08.44-.34.15-.5l-.77-.34-.74-.33zm2.61 2.77c.13-.22.47-.66.78-.68.32 0 .43.18.45.27.04.1-.15.34-1.23.41z" fill="#A6610A"/></svg>