<!-- by TradingView --><svg width="18" height="18" xmlns="http://www.w3.org/2000/svg"><path fill="#194881" d="M0 0h18v18H0z"/><path d="M9.903 7.603c-.071-.217-.183-.492-.183-.679 0-.236.264-.54.558-.708.07-.039.152-.059.223-.078V6H7.408v.138c.395.049.923.462 1.105.825.05.099.294.758.294.856 0 .059-.02.128-.111.373L7.59 11.32h-.02L6.282 7.544c-.06-.177-.162-.472-.162-.58 0-.276.436-.807.77-.826V6H4v.138l.355.196c.314.177.507.482.578.698L7.023 13h.1l1.755-4.985h.02L10.664 13h.081l1.948-5.535a1.67 1.67 0 01.395-.6l.68-.649c.06-.059.142-.078.233-.078V6h-2.505v.138l.426.078c.213.03.69.59.69.895 0 .118-.082.374-.153.59l-1.247 3.579h-.02L9.903 7.603z" fill="#fff"/></svg>