<!-- by TradingView --><svg xmlns="http://www.w3.org/2000/svg" width="18" height="18"><path fill="#F0F3FA" d="M0 0h18v18H0z"/><mask id="a" maskUnits="userSpaceOnUse" x="4" y="6" width="10" height="9"><path d="M4 6h10v9H4V6z" fill="#fff"/></mask><g mask="url(#a)"><path d="M6.23 6.01a4.68 4.68 0 00-.84 2.15c-.3 2.45 1.13 4.7 3.52 5 2.26.27 4.34-1.41 4.65-3.86a4.81 4.81 0 00-.07-1.64c.54 1.7.57 2.32.45 3.29a4.83 4.83 0 01-5.34 4.02c-2.64-.3-4.77-2.26-4.59-5.29.09-1.5 1.2-2.84 2.23-3.68" fill="#2D6FB7"/></g><path d="M4.41 7.87s.3-4 3.88-4.8c0 0 2.13-.48 3.7 1.04 0 0 1.39 1.28 1.2 3.37 0 0-.22 3-3.84 3.3 0 0 3.21-.96 2.1-4.23 0 0-.73-2.35-3.38-2 0 0-2.18.24-3.66 3.32" fill="#7FC241"/><path d="M5.86 8.58S5.5 6.45 7.87 5.63c0 0 1.5-.46 2.61.54 0 0 1.39 1.12.69 2.88 0 0-.26.9-1.85 1.53 0 0 1.7-.93 1.08-2.67 0 0-.46-1.34-2.19-1.34 0 0-2.04 0-2.35 2.01z" fill="#7FC241"/><path d="M9.02 11.12s3.56.48 4.4-2.65c0 0-.32 4.07-4.2 4 0 0-1.92 0-2.83-1.61 0 0-1.08-2.03.58-3.39 0 0 1.4-1.17 2.9.18 0 0-.7-.66-1.77-.25 0 0-1.63.65-1.07 2.22 0 0 .3 1.15 1.99 1.5z" fill="#2D6FB7"/></svg>