<!-- by TradingView --><svg width="18" height="18" xmlns="http://www.w3.org/2000/svg"><path fill="url(#paint0_linear)" d="M0 0h18v18H0z"/><path d="M6.73 11.83c-.058.004 0 .115-.016.176a5.03 5.03 0 00-.064.383c-.068.579.46.49.888.608.255.029 1.35-.117 2.7-1.23.556-.457 1.084-.844 1.86-1.71.912-1.02.599-.916 1.436-1.93.205-.276.41-.554.613-.832.293-.367.692-.774.826-1.198.122-.387-.184-1.063-.653-1.09-.01-.032-.326.056-.303.21.062.274.092.69-.023.925-.267.54-.709 1.013-1.035 1.547-1.415 2.312-3.097 3.658-4.714 4.565-.121.069-.733.257-.843.062-.338-.595 1.193-1.932 1.412-2.469.008-.077.013-.154.02-.232l-.09-.17c-.086-.065-.216-.072-.337-.063l-.06.008a2.78 2.78 0 01-.066.017c-.437.15-.669.576-1.018.845-.447.34-.94.66-1.43.934-.28.156-.702.431-.849.53-.147.098-.642.405-.978.317-.166-.042-.185-.23-.147-.357.13-.465.705-.882 1.09-1.205.404-.342.786-.81 1.067-1.225.12-.181.292-.373.288-.593-.021-.888-1.3.257-1.448.54l.033-.001-.306.286c-.596.856-2.524 2.543-1.024 3.39.225.117.551.163 1.093-.117.407-.21 1.69-.999 2.079-.921z" fill="#fff"/><defs><linearGradient id="paint0_linear" x1="3.349" y1="3.122" x2="21.904" y2="24.434" gradientUnits="userSpaceOnUse"><stop stop-color="#1A1E21"/><stop offset="1" stop-color="#06060A"/></linearGradient></defs></svg>