<!-- by TradingView --><svg width="18" height="18" viewBox="0 0 18 18" xmlns="http://www.w3.org/2000/svg"><path fill="#F0F3FA" d="M0 0h18v18H0z"/><path d="M11.83 7.3a4.26 4.26 0 0 0-1-.9c.08-.03.12-.08.12-.14 0-.11-.07-.16-.18-.2l-.32-.1c-.12-.04-.2-.11-.23-.2a119.52 119.52 0 0 1-.02-.57c0-.12-.13-.14-.21-.11-.1.02-.09.08-.09.17v.4c-.13 0-.27-.02-.4-.05v-.43c0-.11-.13-.12-.22-.1-.06.01-.09.05-.09.11l.02.54a2.9 2.9 0 0 0-.39-.2v-.34c0-.06-.03-.09-.09-.1-.06-.02-.2-.02-.24.05l-.01.08v.43c-.12.02-.24.06-.36.1a6.88 6.88 0 0 1-.04-.63c-.04-.04-.12-.05-.19-.04-.06.01-.09.05-.09.1v.44c0 .14-.04.27-.2.33l-.41.17c-.1.03-.16.07-.15.16 0 .07.05.12.13.15-.15.1-.29.18-.4.28l-.35.3a.93.93 0 0 1-.25.15l-.14-2.3c0-.1-.02-.18-.03-.27v-.13l.01-.09c.05-.23.2-.33.46-.32.2.02.32.17.29.34a.2.2 0 0 1-.13.15c-.14.06-.33-.03-.26-.18 0-.01 0-.01 0 0 .04.03.07.04.1.03.11-.04.05-.17-.07-.13-.15.05-.15.22-.06.32.05.05.12.08.21.08.2 0 .35-.14.35-.32 0-.14-.06-.22-.16-.32V4h4.52c-.1.1-.16.2-.16.32 0 .17.12.31.31.33.18.01.36-.12.3-.3a.17.17 0 0 0-.14-.1c-.09-.02-.14.07-.06.12.04.02.07.02.11-.02h.01c.07.16-.13.23-.27.18a.2.2 0 0 1-.12-.22c.02-.21.22-.3.44-.26.07.01.13.04.18.08.18.16.15.4.12.61l-.01.1-.14 2.46Zm-.91-2.15a.1.1 0 0 0 0-.04.1.1 0 0 0-.03-.04.12.12 0 0 0-.08-.03h-.07l-.05.01a.11.11 0 0 0-.03.03.1.1 0 0 0-.03.07v.62a.1.1 0 0 0 .01.04c0 .02.02.03.03.04l.03.02h.16l.04-.03a.1.1 0 0 0 .03-.07l-.01-.62Zm-3.48 0a.1.1 0 0 0 0-.03.1.1 0 0 0-.03-.04.13.13 0 0 0-.08-.03h-.08a.13.13 0 0 0-.08.04.1.1 0 0 0-.02.03.1.1 0 0 0-.01.04v.64a.1.1 0 0 0 .02.04l.02.03.04.02.04.01h.08a.13.13 0 0 0 .08-.03.1.1 0 0 0 .02-.04.1.1 0 0 0 .01-.04v-.63Z" fill="#AF0004"/><path d="M9.2 5.72c0 .06 0 .13.07.15.1.02.23.01.23-.1V5.6c.13.03.27.05.4.05a.3.3 0 0 1-.08.22.65.65 0 0 1-.21.11l-.35.14c-.13.05-.15.13-.08.24.04.07.12.06.2.03l.3-.1c.12-.05.22-.07.3-.08.1-.01.21 0 .31.04.21.07.39.12.53.15.38.25.72.55 1 .9l-.03.96a26.04 26.04 0 0 0-.02 1.4c-.1.26-.24.51-.45.77l-.41.5v-.34c0-.06-.03-.1-.1-.1-.06-.02-.15-.01-.19.05v.31c0 .2-.25.22-.42.22a147.92 147.92 0 0 0-1.02 0v-.18h.48c.09 0 .16-.02.2-.03.15-.06.28-.19.28-.34a40 40 0 0 0 0-.23l.69-.01c.12 0 .11-.16.1-.24a.1.1 0 0 0-.11-.08 209.52 209.52 0 0 0-1.28 0v-.2l.01-.02h.96c.2 0 .38-.08.38-.28v-.2c0-.1-.13-.1-.22-.08-.14.04 0 .2-.17.22l-.44.02a85.17 85.17 0 0 1-.52 0v-.16c0-.05 0-.1-.05-.12-.09-.04-.26-.03-.25.1a89.39 89.39 0 0 1 0 .74h-.46l-.01-.73c0-.1-.1-.12-.2-.1-.1 0-.11.06-.11.14a3.14 3.14 0 0 1 0 .15 91.53 91.53 0 0 1-.96-.02c-.1-.01-.07-.1-.08-.15-.03-.12-.3-.11-.3.01v.2c0 .25.24.29.46.28a375.08 375.08 0 0 1 .89 0v.22h-.01l-1.26.03c-.13 0-.12.15-.1.23.02.1.09.08.19.08a51.65 51.65 0 0 1 .58 0v.18c0 .25.22.4.47.39a30.54 30.54 0 0 1 .53 0v.18l-.02.01-1 .02c-.17 0-.4-.02-.4-.23l-.01-.25c0-.1-.07-.15-.17-.14-.12.01-.14.1-.13.2v.25c0 .43.35.51.74.51a374.7 374.7 0 0 0 .98 0v.18a6780.67 6780.67 0 0 0-1.68.04c-.06.05-.06.17-.04.24.02.1.09.08.19.08a1465.15 1465.15 0 0 0 1.54 0v.2h-.01a489.16 489.16 0 0 1-1.25.02 4.4 4.4 0 0 1-.64-.28c-.28-.16-.54-.36-.83-.55a33.26 33.26 0 0 0 .03-4.22c.1-.04.18-.1.25-.15l.35-.3c.11-.1.25-.19.4-.28a6.79 6.79 0 0 0 .7-.2c.1-.02.22 0 .33.03a44.83 44.83 0 0 1 .5.15c.16-.02.2-.2.08-.28a10.92 10.92 0 0 1-.48-.18.3.3 0 0 1-.18-.2c.12-.04.24-.08.37-.1v.14c0 .06.04.1.11.1.1.01.23 0 .23-.1V5.5l.38.21Zm-.34 1.75v.33h-.47c-.2.02-.43.08-.52.26a.61.61 0 0 0-.03.25v.25c0 .07.04.1.1.11.08.02.2 0 .2-.08v-.34c.02-.14.23-.15.34-.16a8.29 8.29 0 0 1 .38 0v.46c0 .11.14.13.23.11.08-.02.1-.06.1-.13a58.16 58.16 0 0 0 0-.44h.5c.1.01.23.04.23.16v.3c0 .1.14.11.21.1.07-.02.09-.06.09-.12v-.37c-.04-.28-.3-.35-.57-.36a11.28 11.28 0 0 0-.47-.01v-.33h.01l.93-.02c.09 0 .14 0 .16-.1.01-.07 0-.2-.12-.2a71.83 71.83 0 0 1-.98 0v-.32h.01l.99-.02c.14 0 .3.04.38.16.03.07.05.15.06.24l.01 1.31c0 .07.02.12.1.13.08.02.2 0 .2-.1 0-.7-.02-1.14-.02-1.34 0-.34-.11-.63-.53-.68l-.33-.01L8 6.53c-.25 0-.59 0-.74.23a.74.74 0 0 0-.12.42l.01 1.4c0 .1.14.12.23.1.05-.02.08-.06.08-.1l-.02-1.34c0-.26.12-.4.42-.41a203.68 203.68 0 0 1 1 0v.33a3042.16 3042.16 0 0 0-1.03.02c-.06.03-.06.12-.06.17.01.08.05.12.14.12a57.09 57.09 0 0 1 .95 0Z" fill="url(#a)"/><path d="M11.78 9.52a76.26 76.26 0 0 0 .2 3.78c.03.2.04.43-.14.58-.12.1-.34.1-.48.02a.26.26 0 0 1-.11-.3c.05-.22.46-.2.38.06-.04-.05-.1-.06-.14-.01-.05.06.02.13.1.1.19-.06.16-.27.01-.36a.33.33 0 0 0-.24-.03c-.2.04-.3.22-.25.4.02.08.07.16.15.24H6.73a.45.45 0 0 0 .16-.26c.02-.1 0-.19-.06-.27-.12-.14-.4-.18-.52 0-.07.1-.04.26.11.28.06.01.09 0 .1-.04.03-.08-.1-.13-.14-.05h-.01c-.06-.14.09-.23.22-.2.17.04.2.2.14.34-.06.13-.25.18-.4.15-.21-.03-.32-.21-.33-.4v-.13a464.25 464.25 0 0 1 .03-.27l.11-1.78c.3.2.55.4.83.55.2.1.42.2.64.28-.23.04-.45.14-.45.38v.27c0 .05.03.09.09.1.06.01.17.01.2-.05l.02-.08c0-.13-.04-.28.15-.31.07-.02.13-.02.18-.02a104.4 104.4 0 0 1 1.07 0 19.65 19.65 0 0 0 .01.39c.04.05.14.06.2.05.07 0 .1-.04.1-.1a20.96 20.96 0 0 0 .01-.35h1.07c.1 0 .2.01.28.03.09.02.1.08.1.15 0 .1-.02.21.07.24.07.02.18.02.21-.04l.02-.1v-.27c-.03-.26-.34-.3-.57-.3a172.66 172.66 0 0 1-1.19-.01v-.22h.01a138 138 0 0 0 1.72-.03c.07-.05.07-.27-.01-.31a719.93 719.93 0 0 1-1.72 0v-.18l.01-.01 1-.01c.15 0 .29-.03.42-.07.2-.06.3-.23.3-.42l.41-.5a2.57 2.57 0 0 0 .46-.84v-.07Z" fill="#AF0004"/><path d="M9.8 10.3h.01v.09c0 .05-.02.1-.07.14a.25.25 0 0 1-.16.06l-1.1.01a.25.25 0 0 1-.17-.06.19.19 0 0 1-.07-.14v-.09l1.56-.02Z" fill="#C5000F"/><defs><linearGradient id="a" x1="8.98" y1="5.51" x2="8.98" y2="12.2" gradientUnits="userSpaceOnUse"><stop offset=".11" stop-color="#AF0004"/><stop offset=".5" stop-color="#C5000F"/><stop offset="1" stop-color="#AF0004"/></linearGradient></defs></svg>