<!-- by TradingView --><svg width="18" height="18" viewBox="0 0 18 18" xmlns="http://www.w3.org/2000/svg"><path fill="#F0F3FA" d="M0 0h18v18H0z"/><path d="M8.6 7c-3.42.3-5.1 1.02-5.1 1.9 0 1.12 3.6 1.97 8.68 1.97 1.2 0 2.37-.23 3.42-.31h.09c-1.34.17-2.88.44-4.52.44C6.08 10.99 2 10.07 2 8.95 2 8.02 4.77 7.25 8.6 7Z" fill="#EB2429"/><path d="M9.73 7.59c-2.54.2-3.23.73-3.23 1.34 0 .79 2.12 1.39 5.9 1.39.86 0 1.73-.24 2.6-.24-1 .12-2.14.33-3.36.33C7.87 10.41 5 9.77 5 8.98c-.02-.66 1.88-1.2 4.73-1.4Z" fill="#EB2429"/><path d="M10 9.95c.2.02.41.06.63.05C13.7 9.97 16 9.5 16 8.93c0-.47-1.52-.83-3.83-.93 2.07.13 2.33.5 2.33.93 0 .56-1.41.98-4.48 1.01l-.02.01Z" fill="#EB2429"/><path d="M10.24 8c.53.08.76.24.76.44 0 .27-.23.48-1 .48-.74 0-1-.23-1-.48 0-.2.22-.36.74-.44l-.12.02C8.95 8.1 8 8.27 8 8.48c0 .3.9.52 2 .52s2-.23 2-.52c0-.2-.96-.38-1.63-.46-.05-.02-.09-.02-.13-.02Z" fill="#EB2429"/></svg>