<!-- by TradingView --><svg width="18" height="18" xmlns="http://www.w3.org/2000/svg"><path fill="#0058AA" d="M0 0h18v18H0z"/><path d="M9 14A5 5 0 119 4a5 5 0 010 10zm0-9.263A4.268 4.268 0 004.737 9 4.268 4.268 0 009 13.263 4.268 4.268 0 0013.263 9 4.268 4.268 0 009 4.737zm2.722 3.013c.002-.208-.108-.377-.373-.378a.75.75 0 00-.16.014.29.29 0 00-.173.147.778.778 0 00-.045.238c.002.107.03.216.08.272.128.142.474.283.502.297.29.142.498.235.685.41.002.001.001.003-.003.006.14.14.272.36.272.717 0 .703-.294 1.143-1.178 1.126-.863-.015-1.018-.512-1.04-.939l-.004-.534h.712v.448c0 .208.11.376.376.376a.799.799 0 00.16-.016.293.293 0 00.173-.147c.003-.01.045-.132.043-.239-.003-.107-.032-.216-.082-.27-.128-.143-.476-.282-.504-.296-.149-.076-.288-.14-.415-.213-.011-.004-.02-.007-.027-.012a.865.865 0 01-.088-.059c-.055-.037-.097-.081-.145-.126-.004-.003-.012-.002-.003-.005a1.015 1.015 0 01-.274-.724c.005-.704.301-1.142 1.184-1.122.864.021 1.017.519 1.036.945V8.2l-.71-.003.001-.448zm-2.73 3.778c-.863-.016-1.018-.513-1.04-.94l-.003-.534h.712v.448c0 .208.11.376.375.376a.77.77 0 00.16-.015.289.289 0 00.172-.148.755.755 0 00.044-.238.449.449 0 00-.081-.271c-.129-.143-.476-.28-.504-.295-.15-.076-.29-.141-.418-.214l-.025-.011a1.303 1.303 0 01-.092-.062c-.031-.021-.053-.044-.082-.067a1.015 1.015 0 01-.335-.786c.004-.703.3-1.141 1.183-1.12.864.02 1.017.518 1.036.944l.001.535-.71-.004.001-.448c.001-.208-.109-.376-.374-.378a.693.693 0 00-.16.015.289.289 0 00-.173.146.765.765 0 00-.044.239c0 .107.03.215.08.271.127.143.474.284.502.297.289.143.498.235.684.41.003.002-.003-.004-.007-.002.14.14.277.368.277.725 0 .704-.295 1.143-1.178 1.127zm-2.391-.966c-.662 0-1.033-.387-1.033-1.107v-2.56h.735l-.005 2.67c0 .17.095.364.318.362.224-.002.288-.226.288-.376l.007-2.646h.737l.005 2.566c.003.58-.251 1.091-1.052 1.091z" fill="#fff"/></svg>