<!-- by TradingView --><svg width="18" height="18" viewBox="0 0 18 18" xmlns="http://www.w3.org/2000/svg"><path fill="#F0F3FA" d="M0 0h18v18H0z"/><path opacity=".5" d="M9.2 5.16c-.7 0-.53-.15-.93-.99-.47-.32-.9.52-1.28.52-.37 0-.6 0-.9.12-.3.13.53 1 0 1.39-.52.39-.42-.67-.67-.4-.25.27.52 1.14 0 1.01-.53-.12-.7-.22-1.18-.27-.47-.05-.17.86.25 1.04.43.17.78.15 1.18.69.4.54-.45.6-1.18 1.13-.72.55 0 .62.4 1.09.4.47-.25.42-.4 1.04-.15.61.9.12 1.45.34.55.22 1.1 1.85 1.7 2.1.6.25.26-1.06.3-1.26.06-.2 1.46 0 2.68 0 1.23 0 .65.74 1.53 1.01s.35-.76 0-1.3c-.35-.55-.45-.38.35-.77.98.07.6-.27.63-.52.02-.25-.98-.42-1.6-.94-.63-.51.37-.27.97 0s1.25.55 2.23.3c.97-.25-.95-.84-1.28-.89-.32-.05-1.3-.64-.95-.74.35-.1.85-.69.95-1.28.1-.6.83-1.14.6-1.38-.22-.25-.75.39-1.4.61-.65.22-.5-.57-.35-1.16.15-.59.2-.89-.15-.96-.35-.07-.45.74-.88.47-.42-.27.05-.99-.22-1.14-.28-.14-.65.42-.75 1-.1.56-.4.14-1.1.14Z" fill="#367765"/></svg>