<!-- by TradingView --><svg xmlns="http://www.w3.org/2000/svg" width="18" height="18"><path fill="#F0F3FA" d="M0 0h18v18H0z"/><path d="M5.71 5H3l2.53 4L3 13h2.71l1.17-1.85L8.05 13h2.71L8.24 9l2.52-4h-2.7L6.87 6.85 5.71 5z" fill="#B6D43E"/><path fill-rule="evenodd" d="M12.86 6h-2.2v6h2.2c.6 0 2.13-.18 2.14-1.57 0-1.12-.96-1.51-1.45-1.57l.08-.04c.36-.14 1.1-.45 1.1-1.52S13.5 5.99 12.87 6zm.1.67h-1.58v2h1.16c.77 0 1.47-.38 1.47-1.16 0-.6-.69-.83-1.04-.84zm-1.58 2.66h1.38c.77 0 1.52.37 1.52 1.08 0 .78-.94.92-1.79.92h-1.1v-2z" fill="#838383"/></svg>