<!-- by TradingView --><svg width="18" height="18" viewBox="0 0 18 18" xmlns="http://www.w3.org/2000/svg"><path fill="#F0F3FA" d="M0 0h18v18H0z"/><path d="M7.18 4.53a1.9 1.9 0 0 0-2.63 0c-.73.7-.73 1.85 0 2.56L6.52 9l-1.97 1.91c-.73.71-.73 1.85 0 2.56.72.7 1.9.7 2.63 0l3.27-3.18a1.78 1.78 0 0 0 0-2.58L7.18 4.53Z" fill="#17D4FC"/><circle cx="6" cy="6" r="2" fill="#0082E6"/><circle cx="6" cy="12" r="2" fill="#0082E6"/><circle cx="12" cy="6" r="2" fill="#17D4FC"/><circle cx="12" cy="12" r="2" fill="#17D4FC"/></svg>