<!-- by TradingView --><svg xmlns="http://www.w3.org/2000/svg" width="18" height="18" viewBox="0 0 18 18"><path fill="#F0F3FA" d="M0 0h18v18H0z"/><path d="m10.18 8.07-1.8.18-.3.58 2.1-.2v-.56Zm-.12 1.7-2.12.2v.56l2.12-.2v-.56ZM7.94 11.6l1.98-.2v.56l-1.98.2v-.56Z" fill="#165D31"/><ellipse cx="8.49" cy="3.72" rx=".69" ry=".72" fill="#23355D"/><path d="M7.44 7.96c.67-1.87.42-2.82.2-3.07 1.62-.15 1.48 1.41 1.2 2.2L8.1 9.49c-.57 2.13.21 3.57.63 3.9-1.82-1-2.12-3.1-1.29-5.42Z" fill="url(#aoo3vtedx)"/><path d="M10.57 11.96c-.66 1.84-.41 2.79-.2 3.03-1.6.15-1.46-1.4-1.19-2.19l.73-2.35c.57-2.1-.2-3.54-.61-3.86 1.79 1 2.09 3.06 1.27 5.37Z" fill="url(#boo3vtedx)"/><defs><linearGradient id="aoo3vtedx" x1="8.01" y1="4.88" x2="8.01" y2="13.38" gradientUnits="userSpaceOnUse"><stop stop-color="#22345D"/><stop offset=".33" stop-color="#3466AF"/><stop offset=".63" stop-color="#1F6451"/><stop offset="1" stop-color="#155F3B"/></linearGradient><linearGradient id="boo3vtedx" x1="10.01" y1="15" x2="10.01" y2="6.59" gradientUnits="userSpaceOnUse"><stop stop-color="#22345D"/><stop offset=".33" stop-color="#3466AF"/><stop offset=".63" stop-color="#1F6451"/><stop offset="1" stop-color="#155F3B"/></linearGradient></defs></svg>