<!-- by TradingView --><svg xmlns="http://www.w3.org/2000/svg" width="18" height="18"><path fill="#F0F3FA" d="M0 0h18v18H0z"/><path d="M9.58 12.87L6.93 10.7a1.31 1.31 0 01-.17-1.86L8.83 6.4a1.35 1.35 0 00-.33.14L4.66 8.77a1.3 1.3 0 00-.47 1.81l2.27 3.77c.19.3.48.52.83.6a1.37 1.37 0 001.02-.13l3.84-2.24a1.34 1.34 0 00.55-.61c.1-.26.14-.54.08-.81l-1.31 1.53a1.37 1.37 0 01-1.89.18z" fill="#BBE2DC"/><path d="M13.5 8.23l-.77-.63-.33.92c-.12.32-.38.6-.7.74l.92 1.51c.08.12.13.25.17.4l.9-1.07a1.31 1.31 0 00-.18-1.87z" fill="#B7E0D3"/><path d="M11.7 9.27a1.36 1.36 0 01-1.03.05l-1.3-.46a1.34 1.34 0 01-.77-.68 1.3 1.3 0 01-.06-1.02l.28-.76-2.06 2.45a1.31 1.31 0 00.17 1.86l2.65 2.16a1.37 1.37 0 001.9-.18l1.3-1.53a1.3 1.3 0 00-.16-.4l-.91-1.5z" fill="#6BC8C6"/><path d="M10.86 6.07l1.87 1.54.14-.38c.12-.33.1-.7-.05-1.01a1.34 1.34 0 00-.77-.68l-1.3-.46a1.37 1.37 0 00-1.04.05c-.32.15-.57.42-.69.75l-.2.52.14-.16a1.37 1.37 0 011.9-.17z" fill="#00B9AD"/><path d="M10.35 7l1.36 2.26c.32-.15.57-.41.69-.74l.33-.92-1.88-1.54a1.37 1.37 0 00-1-.28 1.36 1.36 0 00-.9.47l-.14.16a1.35 1.35 0 011.53.59z" fill="#00B0AD"/><path d="M8.82 6.4l-.28.76a1.32 1.32 0 00.82 1.7l1.31.47a1.39 1.39 0 001.04-.06L10.35 7a1.35 1.35 0 00-.66-.55 1.4 1.4 0 00-.87-.05z" fill="#00AAA9"/><path d="M11 5a1 1 0 100-2 1 1 0 000 2z" fill="#793393"/></svg>