<!-- by TradingView --><svg width="18" height="18" viewBox="0 0 18 18" xmlns="http://www.w3.org/2000/svg"><path fill="#F0F3FA" d="M0 0h18v18H0z"/><path d="m10.56 12.23.44 2.29s-.04.48-.5.48-.5-.48-.5-.48l.43-2.28h.13ZM10.44 5.77 10 3.48s.04-.48.5-.48.5.48.5.48l-.43 2.28h-.13ZM7 9.06l-2.48.4S4 9.43 4 9c0-.42.52-.46.52-.46l2.48.4v.12ZM8 11.38l-1.2 1.66s-.33.27-.65-.02c-.32-.3-.03-.61-.03-.61l1.78-1.1.1.07ZM8 6.62 6.8 4.96s-.33-.27-.65.02c-.32.3-.03.61-.03.61l1.78 1.1.1-.07ZM11 8c-.56.02-1 .46-1 1s.44.98 1 1V8ZM10 7c-.38.05-.7.18-1 .37l.75.63c.08-.04.16-.07.25-.09V7Zm-1.56.72c-.22.26-.38.49-.44.82h1.13c.03-.08.06-.07.11-.14l-.8-.68ZM8 9.36c.06.33.21.55.43.8l.8-.67c-.04-.07-.08-.06-.1-.13H8Zm1 1.25c.3.2.6.34 1 .39v-.9c-.1-.02-.19-.06-.27-.1l-.73.61ZM9.3 4.85c-.46.1-.89.28-1.28.5l.66.93c.27-.15.56-.26.86-.34l-.23-1.1ZM6.55 6.69C6.3 7.07 6.1 7.55 6 8L7.16 8c.08-.29.2-.35.35-.6l-.97-.7ZM6 10.05c.1.42.29.9.52 1.26l.97-.72c-.15-.24-.26-.32-.34-.59l-1.15.05Zm2 2.59c.38.23.82.4 1.28.51l.25-1.09c-.31-.08-.6-.2-.87-.34l-.67.92Z" fill="#0074B7"/></svg>