<!-- by TradingView --><svg xmlns="http://www.w3.org/2000/svg" width="18" height="18" viewBox="0 0 18 18"><path fill="#F0F3FA" d="M0 0h18v18H0z"/><path d="M7.58 5h1.7L7.05 7.9 9.43 11h-1.7L6.22 9 4.7 11H3l2.37-3.1L3.16 5h1.69l1.36 1.79L7.58 5Z" fill="#69A8BD"/><circle cx="13.23" cy="7.17" fill="#BA1D4A" r=".83"/><path d="M13.66 5h-1.54L9 9.48 10.1 11h2.37v2H14v-2h1V9.68h-1V8.35h-1.53v1.33H10.7l1.28-2.02a1.46 1.46 0 0 1-.12-.57 1.36 1.36 0 0 1 1.37-1.4l.44-.69Z" fill="#69A8BD"/><path fill="#1A2C35" fill-opacity=".8" d="M3 12h9v1H3z"/></svg>