<!-- by TradingView --><svg width="18" height="18" fill="none" xmlns="http://www.w3.org/2000/svg"><path fill="#00B8D4" d="M0 0h18v18H0z"/><path fill-rule="evenodd" clip-rule="evenodd" d="M8.903 4.835c-.198.108-.443.336-.709.715a.5.5 0 0 1-.82-.574c.313-.445.664-.808 1.049-1.018.399-.219.86-.282 1.297-.06.41.208.704.619.913 1.129.212.518.363 1.2.447 2.048a.5.5 0 0 1-.995.099c-.08-.794-.215-1.372-.378-1.768-.166-.405-.334-.563-.44-.616-.076-.039-.181-.055-.364.045ZM9.098 13.26c.197-.11.443-.337.709-.716a.5.5 0 1 1 .819.574c-.312.445-.664.808-1.048 1.018-.4.219-.86.282-1.298.06-.41-.208-.703-.619-.912-1.129-.212-.518-.363-1.2-.447-2.048a.5.5 0 0 1 .995-.098c.079.793.215 1.37.378 1.767.165.405.334.563.439.616.076.039.182.055.365-.045Z" fill="#fff"/><path fill-rule="evenodd" clip-rule="evenodd" d="M12.574 6.816c-.193-.115-.514-.21-.976-.245a.5.5 0 0 1 .076-.997c.542.04 1.033.158 1.41.382.392.232.681.596.713 1.086.03.458-.174.92-.506 1.36-.337.446-.847.924-1.534 1.428a.5.5 0 1 1-.592-.805c.642-.473 1.07-.884 1.328-1.226.264-.349.314-.575.306-.692-.005-.086-.045-.185-.225-.29ZM5.426 11.278c.194.115.515.21.977.245a.5.5 0 0 1-.076.998c-.542-.042-1.033-.16-1.41-.383-.392-.232-.681-.596-.713-1.086-.03-.458.174-.92.506-1.36.337-.446.847-.924 1.534-1.428a.5.5 0 0 1 .592.805c-.643.473-1.07.884-1.328 1.226-.264.349-.314.575-.306.692.005.086.045.185.224.29Z" fill="#fff"/><path fill-rule="evenodd" clip-rule="evenodd" d="M12.706 11.052c.004-.225-.072-.551-.27-.97a.5.5 0 0 1 .905-.427c.232.492.373.977.365 1.415-.009.456-.182.887-.592 1.157-.384.252-.886.303-1.433.232-.555-.073-1.222-.28-2-.628a.5.5 0 0 1 .408-.913c.728.325 1.297.494 1.722.55.434.056.655-.012.753-.077.072-.047.138-.13.142-.339ZM5.295 7.042c-.004.225.072.551.269.97a.5.5 0 0 1-.904.427c-.232-.492-.373-.977-.365-1.415.008-.455.182-.887.592-1.157.384-.252.886-.303 1.433-.232.555.073 1.222.28 2 .628a.5.5 0 1 1-.408.913c-.728-.325-1.297-.493-1.722-.55-.434-.056-.655.012-.753.077-.072.047-.138.13-.142.339Z" fill="#fff"/></svg>