<!-- by TradingView --><svg width="18" height="18" fill="none" xmlns="http://www.w3.org/2000/svg"><path fill="#2E7D32" d="M0 0h18v18H0z"/><path d="M4 9.17V7.752c1.191.537 3.1.71 3.93.707-.345.472-.385 1.127-.385 1.417-1.862-.02-3.14-.478-3.545-.704Z" fill="#fff"/><ellipse cx="7.61" cy="6.014" rx="3.61" ry="1.062" fill="#fff"/><path d="M4 11.718v-1.36c1.03.566 2.829.624 3.6.582.093.733.39 1.333.526 1.54-2.528.023-3.804-.499-4.126-.762Z" fill="#fff"/><path d="M14.616 10.487a2.971 2.971 0 0 1-2.97 2.972c-1.64 0-2.97-1.33-2.97-2.972a2.972 2.972 0 0 1 2.97-2.973c1.64 0 2.97 1.33 2.97 2.973Z" stroke="#2E7D32" stroke-width="3"/><ellipse cx="11.739" cy="10.58" rx="3.282" ry="3.28" fill="#fff"/></svg>