<!-- by TradingView --><svg xmlns="http://www.w3.org/2000/svg" width="18" height="18"><path fill="#F0F3FA" d="M0 0h18v18H0z"/><path d="M7.57 6.44a5.74 5.74 0 00-2.97 4.11c-.01.13.03.2.05.23.07.13.3.24.68-.35.35-.55.95-.63 1.46-.7.2-.03.37-.05.52-.1.54-.17.96-.5.98-1.2.02-.69.12-.84.68-1.37.4-.38 1.59-.99 2.7-1.55.8-.4 1.55-.79 1.95-1.06.14-.07.4-.24.38-.36-.03-.12-.27-.1-.38-.06-1.12.32-3.9 1.25-6.05 2.41zm1.1 3.7c-1.5-.39-2.7.29-3.1.67a.23.23 0 00-.07.13c-.02.1.05.25.47.13.4-.11.71.1.99.3l.28.17c.33.16.67.19.96-.14.3-.32.4-.35.9-.36.34-.01 1.16.22 1.92.43.55.15 1.07.3 1.37.34.1.03.3.06.33-.01.03-.07-.09-.16-.16-.2a22.5 22.5 0 00-3.88-1.47zM6 11.63c.28-.05.97-.02 1.52.55.56.57 1.1 1.36 1.31 1.68.02.03.06.1.02.13-.03.02-.1-.05-.14-.09-.12-.1-.31-.3-.51-.51-.28-.3-.57-.62-.73-.7-.21-.13-.27-.15-.47-.09-.21.06-.35-.04-.46-.2l-.08-.15c-.07-.15-.15-.34-.35-.4-.21-.05-.2-.14-.17-.17l.06-.04z" fill="#2087EC"/></svg>