<!-- by TradingView --><svg width="18" height="18" viewBox="0 0 18 18" xmlns="http://www.w3.org/2000/svg"><path fill="#F0F3FA" d="M0 0h18v18H0z"/><path d="M8.3 6.08c.46-.1.94-.1 1.4 0l6.08 1.33c.13.03.22.14.22.26v2.66c0 .12-.09.23-.22.26L9.7 11.92c-.46.1-.94.1-1.4 0L2.22 10.6a.27.27 0 0 1-.22-.26V7.67c0-.12.09-.23.22-.26L8.3 6.08Z" fill="#00457C"/><path fill-rule="evenodd" d="M7.04 8C6.47 8 6 8.27 6 8.6v.8c0 .33.47.6 1.04.6h.92C8.53 10 9 9.73 9 9.4v-.8c0-.33-.47-.6-1.04-.6h-.92Zm.46.5c-.28 0-.5.1-.5.22v.56c0 .12.22.22.5.22.27 0 .5-.1.5-.22v-.56c0-.12-.23-.22-.5-.22Z" fill="#fff"/><path d="M3.85 8c-.47 0-.85.3-.85.65v.7c0 .36.38.65.85.65h1c.08 0 .15-.05.15-.12v-.26c0-.07-.07-.12-.15-.12h-.83c-.2 0-.35-.12-.35-.27v-.46c0-.15.15-.27.35-.27h.83c.08 0 .15-.05.15-.12v-.26C5 8.05 4.93 8 4.85 8h-1Zm9.95.15c0-.08-.1-.15-.22-.15h-.36c-.12 0-.22.07-.22.15v1.7c0 .08.1.15.22.15h1.56c.12 0 .22-.07.22-.15v-.2c0-.08-.1-.15-.22-.15h-.98V8.15ZM10.2 8c-.11 0-.2.07-.2.15v1.7c0 .08.09.15.2.15h.28c.1 0 .19-.07.19-.15v-.6h.71c.34 0 .62-.22.62-.5V8.5c0-.28-.28-.5-.62-.5H10.2Z" fill="#fff"/></svg>