<!-- by TradingView --><svg width="18" height="18" viewBox="0 0 18 18" xmlns="http://www.w3.org/2000/svg"><path fill="url(#artjhtmsp)" d="M0 0h18v18H0z"/><path d="m9.94 4.83-.77-.77a.29.29 0 0 0-.34 0l-.77.77a.29.29 0 0 0 0 .34l.77.77a.29.29 0 0 0 .34 0l.77-.77a.29.29 0 0 0 0-.34Z" fill="#8DBA38"/><path d="m12.95 12.98-2.88-2.86a.21.21 0 0 1 0-.27l2.88-2.87a.21.21 0 0 0 0-.27l-.66-.66a.21.21 0 0 0-.28 0L9.38 8.67a.54.54 0 0 1-.76 0L5.99 6.05a.26.26 0 0 0-.31 0l-.63.66a.21.21 0 0 0 0 .27l2.88 2.86a.21.21 0 0 1 0 .28l-2.88 2.86a.2.2 0 0 0 0 .28l.63.69a.21.21 0 0 0 .27 0l2.63-2.62a.54.54 0 0 1 .77 0l2.63 2.62a.21.21 0 0 0 .28 0l.65-.66a.22.22 0 0 0 .04-.3Z" fill="#B51A65"/><defs><linearGradient id="artjhtmsp" x1="3.35" y1="3.12" x2="21.9" y2="24.43" gradientUnits="userSpaceOnUse"><stop stop-color="#1A1E21"/><stop offset="1" stop-color="#06060A"/></linearGradient></defs></svg>