<!-- by TradingView --><svg width="18" height="18" viewBox="0 0 18 18" xmlns="http://www.w3.org/2000/svg"><path fill="#F0F3FA" d="M0 0h18v18H0z"/><path d="M8.58 4.82a.3.3 0 0 0-.16-.03l-.8.04a.02.02 0 0 1-.02-.02V4.8c.16-.25.14-.46.12-.74v-.02l.02-.01c.33-.04.62-.04.86 0 .19.04.26.16.32.34a1.98 1.98 0 0 1 .07.5.02.02 0 0 1-.02 0l-.39-.05Z" fill="#5988A6"/><path d="m8.58 4.82.03.19c-.06.01-.1 0-.14-.02l-.05-.2a.3.3 0 0 1 .16.03Z" fill="#595959"/><path d="M8.47 5c.04.02.08.02.14 0 .31.02.62.07.91.17.82.27.8 1.55.7 2.18v.01a.02.02 0 0 1-.03.01c-.25-.07-.52-.1-.8-.08-.24.02-.43.04-.57.08a15.76 15.76 0 0 1-2.62.14 2.95 2.95 0 0 0 .37-2.4V5.1h.01A11.66 11.66 0 0 1 8.47 5Z" fill="#5988A6"/><path d="M12.92 9.4a.33.33 0 0 1-.17.11 3.2 3.2 0 0 0-1.96.05v-.02c.26-.77.37-1.56.27-2.36a3.6 3.6 0 0 0-.86-1.96c1.64.84 2.6 2.41 2.72 4.19Z" fill="#5988A6"/><path d="m8.82 7.37.01.2-.04.02a5.06 5.06 0 0 1-.23 0 .33.33 0 0 0-.02-.19c.06-.04.15-.05.28-.03Z" fill="#595959"/><path d="m10.18 10.17-.93.35-.66-.06a.58.58 0 0 0-.25 0H8.3v.02h-.04l-.6.05a23.56 23.56 0 0 0-2.9.48V11a2.63 2.63 0 0 0 .34-3.15h.02a30.88 30.88 0 0 0 3.7-.28 4 4 0 0 1 .77 0c.78.09 1.09.66.97 1.36-.07.42-.2.82-.4 1.2v.04Z" fill="#5988A6"/><path d="m8.3 10.48.01-.02h.03c.1-.02.18-.02.25 0l-.04.39v.01h.02l.68-.34.93-.35a5.35 5.35 0 0 1 2.08-.34l.5-.32c.05-.01.1-.04.16-.1l1.04-.7H14v.02l-.8.7a.14.14 0 0 0-.03.07l-.02.04a.17.17 0 0 1-.05.08l-.49.38-.01.02v.03a.99.99 0 0 1-.03.45l-.01.01h-.01l-.01-.01a.53.53 0 0 0-.41-.3 2.86 2.86 0 0 0-1.5.28c.38-.09.73-.15 1.05-.16.08 0 .15 0 .21.03a.08.08 0 0 1 .04.05.08.08 0 0 1 0 .06 5.7 5.7 0 0 0-.67 1.39c.18-.45.44-.86.74-1.24.12-.15.28-.28.48-.13.02.01.04.04.04.07v.08c-.13.26-.29.52-.47.77l-.45.55a3.1 3.1 0 0 0-.68 1.24l-.02.01-.58.08c-.66.05-1.66.12-2.44.12l-1.12-.04a8.38 8.38 0 0 1-1.12-.13l-1.12-.24c-.1-.02-.18-.06-.29-.1a.13.13 0 0 1-.07-.06 1.63 1.63 0 0 1-.12-.96h.25c.5-.04.98-.12 1.46-.24.11-.03.18-.07.29-.12h.01a.03.03 0 0 1 .03.01v.02c.01.16.01.38-.18.44a8.4 8.4 0 0 1-.46.15h.01c.19-.03.5-.1.75-.18a9.84 9.84 0 0 0 2.04-.96l.06-.5Z" fill="#595959"/><path d="M4 12.96c1.07.3 2.16.47 3.28.52a22.76 22.76 0 0 0 5.25-.36.02.02 0 0 1 0 .01c-.21.17-.46.3-.75.38-.5.14-1 .22-1.52.24a19 19 0 0 1-5.44-.5 5.09 5.09 0 0 1-.82-.28Z" fill="#5988A6"/><path d="M11.28 13.74c-.27.07-.53.11-.77.14-1.12.13-2.25.16-3.38.07a5.45 5.45 0 0 1-1.65-.33 1 1 0 0 1-.3-.2l.02-.01c1.22.27 2.45.43 3.7.47a14.58 14.58 0 0 0 2.38-.14Z" fill="#5988A6"/></svg>