<!-- by TradingView --><svg xmlns="http://www.w3.org/2000/svg" width="18" height="18" viewBox="0 0 18 18"><path fill="#F0F3FA" d="M0 0h18v18H0z"/><path d="M9.75 13.8A4.3 4.3 0 0 0 14 9.48c0-.35 0-.98-.2-1.48.09.32.12.73.12 1.1 0 2.14-1.77 3.9-3.96 3.9S6 11.47 6 9.29c0-1.74.95-3.4 2.56-3.88-.91.08-3.16 1.33-3.16 4.26a4.3 4.3 0 0 0 4.35 4.13Z" fill="#0072BB"/><path d="M11.46 7.62V8c-.27-.44-1-.75-1.71-.75-.5 0-1.4.28-1.75.9.28-.07.68-.15 1.05-.15C10.12 8 11 8.37 11 9.63c0 1.09-1.22 1.4-2.16 1.4-.45 0-1.22-.17-1.71-.28L7 10.72A4.33 4.33 0 0 0 9.97 12C11.62 12 13 10.6 13 8.93c0-.78-.1-1.28-.2-1.74-.08-.37-.15-.7-.15-1.11 0-1.36.7-2.42 1.35-3.08-2.34 1.06-2.54 3.34-2.54 4.62ZM11 4.5c-.37-.07-.75-.1-1.14-.1a5.03 5.03 0 0 0-5.16 5c0 2.79 2.24 4.9 5.16 4.9 1.4 0 2.7-.46 3.64-1.3a5.66 5.66 0 0 1-10-3.51C3.5 6.48 6.1 4 9.22 4c.69 0 1.51.23 1.78.5Zm-.85 2.2a.85.85 0 1 0 0-1.7.85.85 0 0 0 0 1.7Z" fill="#013D85"/></svg>