<!-- by TradingView --><svg width="18" height="18" xmlns="http://www.w3.org/2000/svg"><path fill="url(#paint0_linear)" d="M0 0h18v18H0z"/><path d="M9.854 11c.08.226.055.516.016.691-.069.312-.393.643-.947.643-.518 0-.923-.351-.923-.86V11H6v.288C6 13.37 7.456 14 9.016 14c1.5 0 2.761-.766 2.933-2.133.101-.807.027-1.336-.008-1.53-.35-1.956-3.5-2.54-3.735-3.634a1.344 1.344 0 01-.008-.49c.058-.301.345-.628.863-.628.487 0 .939.338.939.846V7h2v-.647C12 4.318 10.174 4 9 4c-1.476 0-2.682.55-2.903 2.074-.058.417-.068.79.02 1.259.36 1.907 3.308 2.46 3.737 3.668z" fill="#fff"/><defs><linearGradient id="paint0_linear" x1="3.349" y1="3.122" x2="21.904" y2="24.434" gradientUnits="userSpaceOnUse"><stop stop-color="#1A1E21"/><stop offset="1" stop-color="#06060A"/></linearGradient></defs></svg>