<!-- by TradingView --><svg width="18" height="18" viewBox="0 0 18 18" xmlns="http://www.w3.org/2000/svg"><path fill="#485D1C" d="M0 0h18v18H0z"/><path d="M7.2 6.88A8.87 8.87 0 0 0 9 3c.13.76.68 2.61 1.8 3.88 1.4 1.6 2.2 2.5 2.2 3.58 0 1.32-.94 3.4-4 3.4-2.28 0-3.39-1.15-3.8-2.29.33.18.78.35 1.28.35 1.05 0 1.86-.54 2.53-1.54a3.19 3.19 0 0 1 1.85-1.23 2.54 2.54 0 0 0-1.68.6c0-.75-.02-2-1.26-3.16l.14.33c.4.87.64 1.42.64 2.23 0 .91-.73 2.08-1.9 2.08-.61 0-1.29-.43-1.8-.87.05-1.04.84-1.94 2.2-3.48Z" fill="url(#apkvd5edv)"/><path d="M11.81 8c-1.08 0-1.66.88-1.81 1.32.25-.17.78-.44 1.18-.44.5 0 .82.02 1.18.26-1.29 0-2.03.6-2.19.89.12.32.59.97 1.44.97.86 0 1.95-1.12 2.39-1.68C13.72 8.88 12.9 8 11.81 8Z" fill="url(#bpkvd5edv)"/><path d="M10 7.72C10 5.19 7 4.18 5.5 4c-.17.26-.5 1.13-.5 2.58C5 9.9 8.05 10 8.77 10c0-1.73-.72-3.07-1.46-3.98C9.15 6.7 9.62 8.7 9.63 9.6c.12-.2.37-.87.37-1.88Z" fill="url(#cpkvd5edv)"/><defs><linearGradient id="apkvd5edv" x1="9" y1="3" x2="9" y2="13.87" gradientUnits="userSpaceOnUse"><stop stop-color="#F1EF8D"/><stop offset="1" stop-color="#EAD431"/></linearGradient><linearGradient id="bpkvd5edv" x1="10.83" y1="7.78" x2="12.13" y2="10.95" gradientUnits="userSpaceOnUse"><stop offset=".7" stop-color="#35B119"/><stop offset="1" stop-color="#209A1C"/></linearGradient><linearGradient id="cpkvd5edv" x1="7.5" y1="4" x2="7.5" y2="10" gradientUnits="userSpaceOnUse"><stop offset=".7" stop-color="#35B119"/><stop offset="1" stop-color="#209A1C"/></linearGradient></defs></svg>