<!-- by TradingView --><svg width="18" height="18" viewBox="0 0 18 18" xmlns="http://www.w3.org/2000/svg"><path fill="#F0F3FA" d="M0 0h18v18H0z"/><path d="M7 4H5v2.19c0 .47.22.92.57 1.26L7.3 9l-1.77 1.65A1.8 1.8 0 0 0 5 11.87V14h2v-2.16c0-.16.07-.3.18-.42l1.72-1.39c.02-.02.06-.03.1-.03.03 0 .06 0 .09.03l1.73 1.39c.11.11.18.26.18.42V14h2v-2.14c0-.44-.18-.87-.5-1.2L10.7 9l1.77-1.56c.34-.33.53-.78.53-1.25V4h-2v2.07c0 .15-.1.3-.2.41L9.08 7.97c-.03.02-.06.03-.1.03-.03 0-.07 0-.1-.03L7.17 6.49A.57.57 0 0 1 7 6.07V4Z" fill="#00B9E7"/></svg>