<!-- by TradingView --><svg width="18" height="18" xmlns="http://www.w3.org/2000/svg"><path fill="#0070B8" d="M0 0h18v18H0z"/><path d="M16.001 7h-3.55l.06.12v3.78l-.06.1H14.065L14 10.892V9.338h1.578l.133.067v-.783l-.164.048H14V7.668h1.909l.092.08V7zM3.456 7.005H2.002l.1.089 1.392 2.382V10.9L3.367 11h1.756L5 10.9V9.475l1.314-2.363L6.402 7H4.948l-.727 1.511-.765-1.506z" fill="#fff"/><path d="M7.503 7h1.385c1.33 0 1.739.027 1.896.084.203.073.45.254.57.417.155.21.197.4.185.823-.006.221-.054.495-.15.647a1.325 1.325 0 01-.653.548c-.139.038-.54.147-1.196.165H9v1.198l.075.118H7.483l.082-.138V7.175L7.503 7zm1.73.61H9v1.398h.334c.169 0 .358-.01.42-.022.15-.029.311-.12.368-.21.137-.216.124-.498.072-.745a.521.521 0 00-.278-.335c-.117-.052-.389-.087-.683-.087z" fill="#fff"/></svg>