<!-- by TradingView --><svg width="18" height="18" fill="none" xmlns="http://www.w3.org/2000/svg"><path fill="url(#paint0_linear)" d="M0 0h18v18H0z"/><path d="M7.633 10.607l1.05-1.05-.354-.353-1.05 1.05-1.049-1.05-.354.354 1.05 1.049-1.05 1.05.354.353 1.05-1.05 1.049 1.05.353-.354-1.049-1.05z" fill="#fff"/><path d="M10.277 9.765H9.064v-.5h2.925v.5h-1.213v2.238h-.5V9.765zM7.032 7.725L5.696 6.389l.35-.35 1.233 1.234 1.234-1.234.35.35-1.336 1.336v1.278h-.495V7.725zM10.5 6.503a1 1 0 101 1h.5a1.5 1.5 0 11-.441-1.063l-.353.354a.996.996 0 00-.706-.291z" fill="#fff"/><path d="M9.484 8.143l1.53-1.529.298-.282.247.106.162.176-1.883 1.883-.354-.354z" fill="#fff"/><circle cx="9" cy="9" r="6" stroke="#fff" stroke-width=".5"/><defs><linearGradient id="paint0_linear" x1="3.349" y1="3.122" x2="21.904" y2="24.434" gradientUnits="userSpaceOnUse"><stop stop-color="#1A1E21"/><stop offset="1" stop-color="#06060A"/></linearGradient></defs></svg>