<!-- by TradingView --><svg width="18" height="18" viewBox="0 0 18 18" xmlns="http://www.w3.org/2000/svg"><path fill="#F0F3FA" d="M0 0h18v18H0z"/><path d="M12.57 5.5H11.5v1h-5v-1H5.43a4.98 4.98 0 0 0-.2 6.8c.53-.5 1.44-1.27 1.9-1.27.33 0 .62.32.89.6.23.26.45.5.67.5.22 0 .4-.2.6-.42.22-.25.47-.52.8-.52.37 0 .95.21 1.43.39.34.13.63.23.76.23h.85a4.98 4.98 0 0 0-.56-6.31Zm-.72 7.6c-.57-.54-1.44-1.29-1.76-1.29-.21 0-.4.27-.6.56-.22.33-.47.7-.8.7-.37 0-.73-.54-1.04-.99-.21-.31-.4-.58-.53-.58-.21 0-.68.95-.97 1.6a4.98 4.98 0 0 0 5.7 0ZM6.5 5H6a5 5 0 0 1 .5-.33V5ZM7 5v-.58a4.98 4.98 0 0 1 4 0V5H7Zm4.5 0v-.33c.17.1.34.21.5.33h-.5Zm-.5.5V6H7v-.5h4ZM6.5 8H5v-.5h2v3H5V10h1.5V8Zm3.5-.5v2.25l-.8.75H8v-3h2ZM8.5 8v2h.43l.57-.5V8h-1Zm2.5-.5h2V8h-1.5v2H13v.5h-2v-3Z" fill="#EF7C1F"/></svg>