<!-- by TradingView --><svg width="18" height="18" viewBox="0 0 18 18" xmlns="http://www.w3.org/2000/svg"><path fill="#F0F3FA" d="M0 0h18v18H0z"/><path d="M9.15 4c-.2.38-.6.86-1.25 1.18l.12.24c.31-.18.58-.37.82-.55a3.8 3.8 0 0 0 .78-.83A5.02 5.02 0 0 0 9.15 4ZM8.55 4.02c-.22.28-.56.6-1.08.8-.51.21-1.05.24-1.49.2.73-.56 1.6-.92 2.57-1ZM5.49 5.44c-.16.16-.3.32-.44.5.24.02.52.04.8.04.58-.01 1.2-.1 1.72-.33l-.13-.28c-.72.23-1.44.18-1.95.07ZM4.73 6.4l-.14.24a5.37 5.37 0 0 0 3.38-.2L7.8 6.1c-.62.27-1.32.37-1.94.38-.42 0-.8-.03-1.13-.08ZM4.37 7.1l-.13.37c.35.3 1.74.33 2.8.13l-.03-.35a5.83 5.83 0 0 1-2.64-.15ZM4.1 8c-.04.18-.06.37-.08.56 1.03.16 2.67.16 4.56-.57l-.15-.34c-1.28.53-2.93.6-4.33.34ZM4 9.06c0 .14 0 .28.02.42.65.27 1.96.35 3.62-.06.42-.12.86-.28 1.34-.48l-.2-.48a9.52 9.52 0 0 1-4.78.6Z" fill="#7E7E7E"/><path d="M4.1 10.04c.04.19.1.37.15.54.68.17 1.83.24 3.4-.2l-.1-.4c-1.55.4-2.69.3-3.44.06ZM4.47 11.14l.22.41c.8.12 2.05.1 3.64-.36.45-.13.93-.3 1.44-.51l-.13-.5c-.57.25-1.1.45-1.6.6-1.53.47-2.73.5-3.57.36ZM5.06 12.1c.14.17.29.34.45.5a14 14 0 0 0 2.95-.42l-.2-.45a9.6 9.6 0 0 1-3.2.36ZM6.07 13.07c.1.08.22.16.34.23.4-.03.88-.08 1.38-.17.84-.13 1.73-.35 2.46-.68l-.1-.29c-.42.17-.85.3-1.27.43-1.04.28-2.01.42-2.81.48Z" fill="#05AADF"/><path d="m7.27 13.71.32.11a12.74 12.74 0 0 0 2.9-.64l-.08-.25a10.66 10.66 0 0 1-3.14.78ZM9.47 14c.89-.08 1.7-.4 2.4-.88a10.84 10.84 0 0 1-2.39.88ZM13.16 11.8c.13-.2.25-.42.36-.64a35.27 35.27 0 0 1-2.65 1.55l.1.29a16.51 16.51 0 0 0 2.19-1.2Z" fill="#7E7E7E"/><path d="m13.82 10.36.08-.36a14 14 0 0 1-1.09.79v.23c.4-.25.74-.48 1-.66Z" fill="#07A9E0"/><path d="M14 9.27a5.15 5.15 0 0 0 0-.43c-.38.32-.9.7-1.62 1.1a22.43 22.43 0 0 1-3.63 1.65l.2.45a14.62 14.62 0 0 0 5.04-2.77ZM13.94 8.21a5 5 0 0 0-.16-.67c-.13.15-.3.3-.49.47-.3.26-.68.54-1.16.84l.23.52a9.55 9.55 0 0 0 1.58-1.16Z" fill="#7E7E7E"/><path d="M13.58 7a5 5 0 0 0-.26-.5c-.1.17-.25.36-.43.56l.28.39c.18-.17.31-.32.41-.45Z" fill="#07A9E0"/><path d="M13.01 6.02a5.03 5.03 0 0 0-.4-.47c-.24.5-.73 1.12-1.58 1.72-.47.34-1.06.68-1.8 1l.2.47c1.5-.69 2.41-1.34 2.95-1.88.34-.33.53-.62.63-.84ZM12.23 5.18a5.06 5.06 0 0 0-.24-.19c-.12.27-.32.55-.6.85-.19.18-.42.38-.69.58l.23.3a3.78 3.78 0 0 0 1.3-1.54ZM11.56 4.7c-.17-.1-.36-.2-.54-.28-.1.16-.22.33-.36.5l.52.4c.2-.23.32-.44.38-.61ZM10.54 4.24a4.95 4.95 0 0 0-.4-.11l-.14.23a4 4 0 0 1-.63.7l.27.26a6.33 6.33 0 0 0 .9-1.08ZM8.42 6.22l-.18-.35c.27-.16.52-.32.74-.48l.28.26c-.25.2-.53.4-.84.57ZM9.8 5.85c.2-.18.38-.36.54-.54l.48.37a8.65 8.65 0 0 1-3.18 1.78l-.14.04v-.36a6.4 6.4 0 0 0 2.3-1.3ZM8.89 7.44c.55-.25 1-.5 1.4-.74l.24.3c-.4.28-.9.55-1.49.8l-.15-.36ZM9.41 9.3a11.96 11.96 0 0 0 3.12-1.88l.26.36c-.3.23-.66.49-1.11.76a20.64 20.64 0 0 1-3.54 1.69l-.12-.4c.44-.14.9-.31 1.4-.53ZM10.1 9.96c.61-.3 1.14-.58 1.6-.84l.23.5c-.48.27-1.04.56-1.7.86l-.13-.52ZM10.62 11.97c.62-.27 1.19-.57 1.69-.87v.22c-.5.3-1.05.62-1.6.9l-.09-.25Z" fill="#7E7E7E"/></svg>