<!-- by TradingView --><svg xmlns="http://www.w3.org/2000/svg" width="18" height="18" viewBox="0 0 18 18"><path fill="#F0F3FA" d="M0 0h18v18H0z"/><path d="M10.1 4.02c-.1.02-.28.04-.41.04-.13 0-.29.03-.36.05l-.3.09a4.28 4.28 0 0 0-1.14.4 10.15 10.15 0 0 0-.89.52c-.07.06-.25.1-.3.18-.01.03-.13.13-.25.22-.34.24-.9.79-1.2 1.18-.83 1.04-1.65 3.38-1.03 4.58C4.78 12.44 5.78 13 7.18 13c.4 0 1.12-.09 1.31-.16.13-.04.2-.11.27-.23.3-.53.73-1.87 1.27-2.18.1-.06.1-.06.07.08-.15.64-.21 1.28-.28 1.92-.02.16-.03.54-.01.57h3c.09-2.38.69-4.69.69-7.08a.23.23 0 0 0-.07-.16.2.2 0 0 1-.06-.13.2.2 0 0 0-.07-.13c-.04-.03-.07-.07-.07-.1 0-.08-.32-.45-.59-.67a2.79 2.79 0 0 0-1.13-.58 1.55 1.55 0 0 0-.47-.09L10.45 4c-.1 0-.26 0-.35.02Zm.21 2.6c.05.03.12.06.15.06.09 0 .28.17.4.35.26.41.07.99-.11 1.38a4.15 4.15 0 0 1-1.6 1.62c-.42.22-.91.43-1.4.43-.4 0-.71-.13-.94-.4-.3-.38-.15-1.08.07-1.47a4.5 4.5 0 0 1 1.35-1.46 3.73 3.73 0 0 1 1.15-.52c.2-.08.82-.08.93 0Z" fill="#A63B3B"/></svg>