<!-- by TradingView --><svg width="18" height="18" viewBox="0 0 18 18" xmlns="http://www.w3.org/2000/svg"><path fill="#F0F3FA" d="M0 0h18v18H0z"/><path d="m9 7 3 5s1.7.08 3-.55c0 0-1.47-.4-3.16-1.55 0 0 .44-.03 1.27-.31 0 0-1.97-.87-2.69-1.56 0 0 .78-.16 1.1-.3 0 0-1.23-.94-1.66-1.56 0 0 .87-.16 1.03-.3 0 0-1.17-.5-1.89-1.87-.7 1.37-1.9 1.86-1.9 1.86.17.13 1.04.31 1.04.31-.43.62-1.67 1.55-1.67 1.55.35.15 1.1.31 1.1.31C6.87 8.71 4.9 9.6 4.9 9.6c.83.28 1.27.3 1.27.3A11.35 11.35 0 0 1 3 11.46c1.3.63 3 .55 3 .55l3-5Z" fill="#00774E"/><path d="M7 11h1l-.09 1h-.8L7 11Z" fill="url(#as1wbaa0s)"/><path d="M9.49 8.7a4 4 0 0 1 .18.01l.02-.05s.42.39.5.79l.03.16c.07.34.14.69.36 1.19l-.06.03s-.22-.41-.48-1.34l-.4-.62-.15.01.14 3.12H8.37l.08-1.58-.45.28.05-.2c0-.02.27-.3.41-.4l.07-1.83c0-.09.06-.16.06-.16l.37-.34h.09s.12.1.28.27c.17.16.15.22.15.22v.45ZM6 13h6v-.5H6v.5Z" fill="#181B1E"/><defs><linearGradient id="as1wbaa0s" x1="7.5" y1="11" x2="7.5" y2="12"><stop offset="1" stop-color="#181B1E"/></linearGradient></defs></svg>