<!-- by TradingView --><svg width="18" height="18" viewBox="0 0 18 18" xmlns="http://www.w3.org/2000/svg"><path fill="#F0F3FA" d="M0 0h18v18H0z"/><path d="M6.04 12.62c.9-1.68 1.27-2.77 3.08-3.73 1.8-.96 2.24-.46 4.08-.23.1.99.67.98 1.17 1.94-1.3 0-2.74.24-3.98.9a7.9 7.9 0 0 0-3 3c-.84-.32-.65-1.19-1.35-1.88Z" fill="#59B6E5"/><path d="M14.37 10.6c-1.9.14-3.88-.26-5.69-1.25-1.77-1-1.6-1.62-2.37-3.3.77-.63.53-1.06 1.1-2.02a6.88 6.88 0 0 0 2.85 2.84c1.23.7 2.6 1 3.98.96.3.86.33 1.85.13 2.78Z" fill="#1DA6DE"/><path d="M7.38 4a8.94 8.94 0 0 1 1.67 5.25c0 1.95-.64 3.77-1.67 5.25A5.6 5.6 0 0 1 5 13a6.82 6.82 0 0 0 1.06-3.75c0-1.39-.32-2.69-1.06-3.74C5.67 4.8 6.47 4.3 7.38 4Z" fill="#0097D6"/></svg>