<!-- by TradingView --><svg width="18" height="18" viewBox="0 0 18 18" xmlns="http://www.w3.org/2000/svg"><path fill="#F0F3FA" d="M0 0h18v18H0z"/><path d="M4 7.5v3.06S4.05 12 5.5 12 7 10.48 7 10.48V8H6v2.5s-.1.5-.5.5-.5-.42-.5-.5v-3s.1-.5.64-.5H6l.4-.36-.14-.57-.3-.07h-.42S4 6 4 7.5Z" fill="url(#aqmvgz5ng)"/><path d="m11 7-2.66 4 .66.6L12 7h-1Z" fill="#FECC33"/><path d="M7 6h5.35c.17 0 1.65.25 1.65 1.61 0 .52-.25.76-.25.76l-3.34 5.76s-.4.87-1.5.87c-1.16 0-1.94-.85-1.9-1.77 0-.32.2-.56.3-.8.44-.64 1.04-1.43 1.04-1.43l.65.61c-.19.32-1 1.4-1 1.7 0 .52.54.69.9.69.55 0 .8-.55.88-.68l3.05-5.43s.17-.28.17-.56c0-.13-.12-.33-.38-.33H6.68L7 6Z" fill="url(#bqmvgz5ng)"/><path d="M6 10.34v-4S5.93 4 8 4h2c.12 0 2 0 2 2h-1s0-1-1-1H8S7 5 7 6.35v4.02l-.29.63-.71-.66Z" fill="url(#cqmvgz5ng)"/><defs><linearGradient id="aqmvgz5ng" x1="5.91" y1="6.83" x2="5.16" y2="8.22" gradientUnits="userSpaceOnUse"><stop stop-color="#91B4BD"/><stop offset="1" stop-color="#6CCEFF"/></linearGradient><linearGradient id="bqmvgz5ng" x1="10.95" y1="9.02" x2="8.37" y2="11.42" gradientUnits="userSpaceOnUse"><stop stop-color="#FF6602"/><stop offset="1" stop-color="#FECC33"/></linearGradient><linearGradient id="cqmvgz5ng" x1="12" y1="6.18" x2="6.43" y2="4.83" gradientUnits="userSpaceOnUse"><stop stop-color="#C8CA7F"/><stop offset=".6" stop-color="#6CCEFF"/></linearGradient></defs></svg>