<!-- by TradingView --><svg width="18" height="18" xmlns="http://www.w3.org/2000/svg"><path fill="#F0F3FA" d="M0 0h18v18H0z"/><path d="M10.296 4.16L7 9.875v3.712a4.977 4.977 0 002 .416v-3.908l-1.003.56-.202-.914L9 8.986h1.001v4.91l-.097.026c.48-.088.937-.245 1.358-.46A4.075 4.075 0 0111 12c0-1.657.928-3 2.072-3 .33 0 .642.112.918.31a5.008 5.008 0 00-3.695-5.15z" fill="#23AD4E"/><path d="M13.734 10.612C13.55 10.236 13.29 10 13 10c-.552 0-1 .855-1 1.91 0 .358.052.694.142.981a5.016 5.016 0 001.592-2.279z" fill="#23AD4E"/><path d="M4.955 6.054l1.052 2.008 2.35-4.031a4.996 4.996 0 00-3.402 2.023zM5 12.001V9.875l-.928-1.732A5.046 5.046 0 004 8.997 4.99 4.99 0 005 12z" fill="#FBAE42"/></svg>