<!-- by TradingView --><svg width="18" height="18" viewBox="0 0 18 18" xmlns="http://www.w3.org/2000/svg"><path fill="#F0F3FA" d="M0 0h18v18H0z"/><path d="M9.43 9.42s-1.9-3.66-2.27-4.2C6.78 4.65 6.29 4 5.71 4c-.57 0-.71.54-.71.73 0 .2.2.45.52.7.35.26 2.04 3.3 3.18 5.63l.86-.52-.13-1.12Z" fill="url(#as42alnd4)"/><path d="M12.82 5.24c-.48.92-2.82 6.76-4.68 8.34-.57.3-.98.42-1.3.42-.78 0-.87-.7-.84-.8.05-.13.08-.56.64-.56.57 0 1.05-.36 1.81-1.75.82-1.47 2.42-4.84 2.74-5.35.63-1.22 1.1-1.58 1.4-1.54.29 0 .4.22.41.49 0 .24-.07.53-.18.75Z" fill="#EA2330"/><defs><linearGradient id="as42alnd4" x1="5.33" y1="4.59" x2="8.07" y2="10.98" gradientUnits="userSpaceOnUse"><stop offset=".75" stop-color="#EA2330"/><stop offset=".9" stop-color="#A71A23"/></linearGradient></defs></svg>