<!-- by TradingView --><svg width="18" height="18" viewBox="0 0 18 18" xmlns="http://www.w3.org/2000/svg"><path fill="#F0F3FA" d="M0 0h18v18H0z"/><path d="M13.3 4H4.7c-.38 0-.69.3-.69.7v8.61c0 .38.3.69.7.69h8.61c.38 0 .69-.3.69-.7V4.7c0-.38-.3-.69-.7-.69Zm-8.06 6.06a4 4 0 0 1 3.82 1.6l.19-.24a4 4 0 0 1 3.52-1.37c-.03.17-.09.33-.16.49h-.33a3.48 3.48 0 0 0-2.93 1.59h-.59a3.76 3.76 0 0 0-.66-.76 3.48 3.48 0 0 0-2.7-.81 1.9 1.9 0 0 1-.16-.5Zm7.55-.3a4.2 4.2 0 0 0-3.73 1.44 4.28 4.28 0 0 0-3.85-1.42v-.09c0-1.04.83-1.9 1.88-1.92a1.93 1.93 0 0 1 3.85 0c1.05.02 1.88.88 1.89 1.92a.09.09 0 0 0-.04.08Z" fill="#FF6C0C"/></svg>