<!-- by TradingView --><svg width="18" height="18" viewBox="0 0 18 18" xmlns="http://www.w3.org/2000/svg"><path fill="#F0F3FA" d="M0 0h18v18H0z"/><path d="M6 11.1C6 8.47 7.53 5.27 8.3 4c-.58 1.53-1.71 5.02-1.71 6.77 0 2.2 1.21 2.6 2.02 2.6.8 0 1.86-.34 1.86-2.6 0-1.8-1.13-5.26-1.7-6.77a26.43 26.43 0 0 1 2.15 6.36c.39 2.3-.7 3.64-2.14 3.64C7.74 14 6 13.7 6 11.1Z"/><path fill-rule="evenodd" d="M5.44 7.27c-.05.17-.14.59-.1.94.33-.27 1.47-.81 3.37-.81L6.28 9.88c-.48.52-.9.92-1.06 1.06H5v.16a9.08 9.08 0 0 1 2.06.39c.64.19 1.4.4 2.02.4.8 0 1.28-.66 1.26-1.59-.1.43-.52 1.28-1.38 1.28-.27 0-.55-.03-.84-.08 1.11-1.29 2.23-1.36 2.66-1.24.77 1.2 2.47 2.04 3.22 2.31v-.11c-1.85-.64-3.59-3.42-4.22-4.74l-2.26 3.66c-.28-.06-.55-.13-.78-.2a6.2 6.2 0 0 0-.64-.14l3.58-3.9c-.65.05-2.42.13-4.24.13Zm4.3 1.42-.76 1.44 1.76-.1-1-1.34Z" fill="url(#ayw4oi4qc)"/><path d="M11.65 7.26c.04-.13.19-.4.47-.4.36 0 .65.42-.42 1.3.17-.04.5 0 .42.34l-.57-.22c-.04.1-.18.3-.41.3-.29 0-.28-.25-.18-.34.1-.09.3-.11.49-.09.21-.2.66-.65.73-.8.07-.2-.04-.28-.15-.28-.1 0-.13 0-.38.2Zm-.3 1.04c-.02-.01-.1-.02-.22-.02-.14 0-.14.2.04.17.15-.02.19-.11.19-.15Z" fill="url(#byw4oi4qc)"/><defs><linearGradient id="ayw4oi4qc" x1="9.5" y1="7.14" x2="9.94" y2="12.58" gradientUnits="userSpaceOnUse"><stop offset=".04" stop-color="#313036"/><stop offset=".44" stop-color="#F3F7F8"/><stop offset=".52" stop-color="#7F848A"/><stop offset=".83" stop-color="#020107"/></linearGradient><linearGradient id="byw4oi4qc" x1="11.67" y1="6.86" x2="11.67" y2="8.57" gradientUnits="userSpaceOnUse"><stop stop-color="#232228"/><stop offset="1" stop-color="#8B8C91"/></linearGradient></defs></svg>