<!-- by TradingView --><svg width="18" height="18" viewBox="0 0 18 18" xmlns="http://www.w3.org/2000/svg"><path fill="#F0F3FA" d="M0 0h18v18H0z"/><path d="M12.99 8.1a.16.16 0 0 0-.15-.1H8.8c-.09 0-.15.07-.15.16s.05.16.14.17l2.9.32-3.41 3.41.53-1.59a.17.17 0 0 0-.08-.2c-.08-.04-.17 0-.2.07l-1.5 3.42a.17.17 0 0 0 .04.2c.03.03.06.04.1.04.03 0 .07-.02.1-.04l5.69-5.67a.17.17 0 0 0 .04-.18Z" fill="#04ADBF"/><path d="M10.94 4.03a.14.14 0 0 0-.2.01L5.05 9.71a.17.17 0 0 0-.04.18c.02.07.08.11.15.11H9.2c.09 0 .15-.07.15-.16s-.05-.16-.14-.17l-2.9-.32 3.41-3.41-.53 1.59c-.03.08 0 .17.08.2.08.04.17 0 .2-.07l1.5-3.42a.17.17 0 0 0-.04-.2Z" fill="#002F6C"/></svg>