<!-- by TradingView --><svg width="18" height="18" viewBox="0 0 18 18" xmlns="http://www.w3.org/2000/svg"><path fill="#F0F3FA" d="M0 0h18v18H0z"/><path d="M10.46 3.98s.38 1.6 2.1 1.35L11.37 7.6S10.56 6.33 9.15 6l1.3-2.02Z" fill="#BDC98B"/><path d="M7.9 3.86S7.6 5.39 5.4 5.33L6.66 7.5S7.44 6 9.16 6L7.9 3.86Z" fill="#BDC98B"/><path d="M10.48 14s.36-1.59 2.07-1.33l-1.22-2.16s-.85 1.16-2.18 1.49l1.33 2ZM7.88 14.15s-.29-1.48-2.48-1.48l1.41-2.34s.64 1.34 2.35 1.34l-1.28 2.48Z" fill="#70ACDE"/><path d="M4.08 7s.94 1.67 0 4l2.73-.17s-.83-1.99 0-3.33L4.08 7Z" fill="#FCCE5C"/><path d="M12.5 5a1.5 1.5 0 1 1 0 3 1.5 1.5 0 0 1 0-3ZM9 3a1.5 1.5 0 1 1 0 3 1.5 1.5 0 0 1 0-3Z" fill="#83B11D"/><path d="M12.5 10a1.5 1.5 0 1 1 0 3 1.5 1.5 0 0 1 0-3Z" fill="#3F7CBF"/><path d="M5.5 5a1.5 1.5 0 1 1 0 3 1.5 1.5 0 0 1 0-3ZM5.5 10a1.5 1.5 0 1 1 0 3 1.5 1.5 0 0 1 0-3Z" fill="#F08D01"/><path d="M9 12a1.5 1.5 0 1 1 0 3 1.5 1.5 0 0 1 0-3Z" fill="#3F7CBF"/><path d="M11.81 9c0 1.66-1.13 3-2.73 3s-2.9-1.34-2.9-3 1.3-3 2.9-3c1.6 0 2.73 1.34 2.73 3Z" fill="#F0F3FA"/></svg>