<!-- by TradingView --><svg width="18" height="18" viewBox="0 0 18 18" xmlns="http://www.w3.org/2000/svg"><path fill="#F0F3FA" d="M0 0h18v18H0z"/><path d="M10.22 6.6H6.04a1.7 1.7 0 0 1-.69-.17.65.65 0 0 1-.28-.3.82.82 0 0 1 .1-.83.88.88 0 0 1 .73-.3 10308.47 10308.47 0 0 1 6.3 0c.1 0 .22.03.33.07a.72.72 0 0 1 .44.76c-.01.11-.04.22-.09.32-.1.21-.26.43-.5.65a106.25 106.25 0 0 0-.69.65c-1.4 1.33-4.24 3.95-4.24 3.95h4.63c.42 0 .9.25.92.8a.8.8 0 0 1-.1.45.58.58 0 0 1-.35.28l-.19.02a11.1 11.1 0 0 1-1.6.05h-.19a985.93 985.93 0 0 1-4.37-.02h-.08c-.16 0-.3 0-.42-.04a.69.69 0 0 1-.44-.31.88.88 0 0 1-.06-.83c.07-.16.17-.3.3-.42a380.36 380.36 0 0 1 4.95-4.57c.21-.2.07-.21-.23-.21Z" fill="#105981"/></svg>