<!-- by TradingView --><svg xmlns="http://www.w3.org/2000/svg" width="18" height="18"><path fill="#004F2F" d="M0 0h18v18H0z"/><path fill-rule="evenodd" d="M14.28 6.5c-.26-.16-1-.5-1.88-.5-1.09 0-2.7.56-2.7 2.08-.02 1.21 1.23 1.61 1.85 1.66.23.02.69.11.68.35-.02.3-.36.34-.56.34-.21 0-.87-.09-1.48-.6l-.69 1.6c.35.2 1.31.6 2.37.57 1.33-.03 2.63-.82 2.63-2.01 0-1.2-1.03-1.6-1.65-1.73h-.02c-.6-.13-.89-.18-.89-.4 0-.18.18-.3.46-.3.27 0 .72.06 1.24.45l.64-1.5zM9 9a3 3 0 11-6 0 3 3 0 016 0zm-.84-.56c.37 1.36-.3 2.73-1.5 3.05-1.18.31-2.44-.54-2.8-1.9-.37-1.37.3-2.74 1.49-3.06 1.19-.31 2.45.54 2.81 1.9z" fill="#fff"/></svg>