<!-- by TradingView --><svg xmlns="http://www.w3.org/2000/svg" width="18" height="18" viewBox="0 0 18 18"><path fill="url(#agbjelwta)" d="M0 0h18v18H0z"/><path d="m12.22 5.87-2.8-2.8A.23.23 0 0 0 9.26 3c-.06 0-.1.03-.12.04a.22.22 0 0 0-.09.27l1.04 2.56.01.06-.01.05-1.04 2.57c-.04.1 0 .21.09.27.03.03.08.04.12.04.06 0 .1-.02.15-.07l2.8-2.8.07-.06-.06-.06ZM8.93 14.68l-1.04-2.56-.01-.06.01-.05 1.04-2.57c.05-.12-.02-.22-.08-.27a.23.23 0 0 0-.13-.04c-.04 0-.1.02-.16.07L5.76 12l-.07.07.07.06 2.8 2.8c.05.04.1.07.16.07s.1-.03.13-.04a.23.23 0 0 0 .08-.28Z" fill="#82BC00"/><path d="m5.45 11.7.82-.83a3.32 3.32 0 0 1 3.3-5.12l-.5-1.25H9a4.52 4.52 0 0 0-3.58 7.23l.03-.03ZM12.57 6.27l-.04.03-.83.83a3.3 3.3 0 0 1-3.28 5.13l.5 1.24H9a4.48 4.48 0 0 0 3.57-7.23Z" fill="#fff"/><defs><linearGradient id="agbjelwta" x1="3.35" y1="3.12" x2="21.9" y2="24.43" gradientUnits="userSpaceOnUse"><stop stop-color="#1A1E21"/><stop offset="1" stop-color="#06060A"/></linearGradient></defs></svg>