<!-- by TradingView --><svg width="18" height="18" viewBox="0 0 18 18" xmlns="http://www.w3.org/2000/svg"><path fill="#0F88EB" d="M0 0h18v18H0z"/><path fill-rule="evenodd" d="M9 5h5v8h-1.67l-2.08 1-.42-1H9V5Zm1 1h3v6h-.67l-1.66 1-.25-1H10V6Z" fill="#F0F3FA"/><path d="m6 4-.88 2.23S4.78 7 4 7l1.08-2.4S5.29 4 6 4Z" fill="#F0F3FA"/><path d="M5 6h4v-.5c0-.22-.22-.5-.48-.5H5v1ZM4 9h5s.03-.95-.25-1H4.83S4.2 8.31 4 9ZM7.47 10.44 7 11.47 8.73 14s.27-.74.27-1c0-.24-.57-1.02-.67-1.25l-.86-1.3Z" fill="#F0F3FA"/><path d="M7 5.8V9.56s-.5 2.94-3 4.37c0 0 .41.07.83.07s2.5-.56 3.17-4.17V5.5l-1 .3Z" fill="#F0F3FA"/></svg>