<!-- by TradingView --><svg xmlns="http://www.w3.org/2000/svg" width="18" height="18"><path fill="#1D2B62" d="M0 0h18v18H0z"/><path d="M5.2 4.52L4.9 4l-.3.52H4l.3.52-.3.51h.6l.3.52.3-.52h.6l-.29-.51.3-.52h-.6zm1.26 2.27l-.3-.51-.3.51h-.61l.3.52-.3.52h.6l.3.52.3-.52h.6l-.29-.52.3-.52h-.6zM10.36 4l.3.52h.61l-.3.52.3.51h-.6l-.3.53-.3-.53h-.6l.29-.51-.3-.52h.6l.3-.52zm1.79 2.8l-.3-.52-.3.51h-.6l.29.53-.3.51h.6l.3.52.3-.52h.61l-.3-.51.3-.53h-.6zM7.63 4l.3.52h.6l-.29.52.3.51h-.6l-.3.53-.3-.53h-.61l.3-.51-.3-.52h.6l.3-.52zM9.3 6.8L9 6.27l-.3.51h-.6l.3.53-.3.51h.6l.3.52.3-.52h.6l-.3-.51.3-.53h-.6zM13.1 4l.3.52h.6l-.3.52.3.52h-.6l-.3.52-.3-.52h-.6l.29-.52-.3-.52h.6l.3-.52zM4 9h3.75v.92L5.61 12h2.14v1H4v-.92L6.15 10H4V9zm4.38 0h1v4h-1V9zM10 13V9h1.23l.8 1.84.74-1.84H14v4h-1v-2l-.7 2h-.6l-.7-2v2h-1z" fill="#fff"/></svg>