<!-- by TradingView --><svg width="18" height="18" xmlns="http://www.w3.org/2000/svg"><path fill="#6BBF45" d="M0 0h18v18H0z"/><path d="M5.173 6.836C5.633 6.224 7.125 5 9.422 5c2.48 0 4.343 1.936 5.232 2.86.14.145.256.266.346.35-.795.73-3.055 2.098-5.74 1.728l2.237-1.729c-.843-.992-3.288-2.657-6.324-1.373zm7.654 4.328c-.46.612-1.952 1.836-4.249 1.836-2.48 0-4.343-1.936-5.232-2.86-.14-.145-.256-.266-.346-.35.795-.73 3.055-2.098 5.74-1.728L6.504 9.791c.843.992 3.288 2.657 6.324 1.373z" fill="#fff"/></svg>