<!-- by TradingView --><svg width="18" height="18" viewBox="0 0 18 18" xmlns="http://www.w3.org/2000/svg"><path fill="#F0F3FA" d="M0 0h18v18H0z"/><path d="M12.8 10.23a4 4 0 1 1-2.7-5.08l.37-.93A4.98 4.98 0 0 0 4 9a5 5 0 0 0 9.69 1.68l-.88-.45ZM9 12a3 3 0 0 0 2.25-1.02l-.9-.5a2 2 0 1 1-.2-3.13l.4-.92A3 3 0 1 0 8.98 12Zm4-4a1 1 0 1 0 0-2 1 1 0 0 0 0 2Zm-1.5 2a.5.5 0 1 0 0-1 .5.5 0 0 0 0 1Zm2.5-.5a.5.5 0 1 1-1 0 .5.5 0 0 1 1 0ZM11.5 6a.5.5 0 1 0 0-1 .5.5 0 0 0 0 1Z" fill="url(#a)"/><defs><linearGradient id="a" x1="13.46" y1="6.16" x2="4.47" y2="11.16" gradientUnits="userSpaceOnUse"><stop stop-color="#368F8E"/><stop offset="1" stop-color="#0E223B"/></linearGradient></defs></svg>