<!-- by TradingView --><svg width="18" height="18" viewBox="0 0 18 18" xmlns="http://www.w3.org/2000/svg"><path fill="#7000FD" d="M0 0h18v18H0z"/><path d="M5.15 5c.05 0 .1.02.14.06l3.65 3.7c.08.07.08.21 0 .3l-3.53 3.87a.2.2 0 0 1-.3 0l-.94-.97a.23.23 0 0 1-.01-.3L6.56 9l-2.5-2.6a.23.23 0 0 1 0-.3L5 5.06A.2.2 0 0 1 5.15 5Z" fill="#00F6C6"/><path d="M12 9a3 3 0 0 1-4.62 2.52l-1.36 1.5a5 5 0 1 0-.05-7.99l1.42 1.44A3 3 0 0 1 12 9ZM4.31 10.74 5.87 9 4.28 7.35a5 5 0 0 0 .03 3.39Z" fill="#F0F3FA"/></svg>