<!-- by TradingView --><svg width="18" height="18" xmlns="http://www.w3.org/2000/svg"><path fill="#008CFE" d="M0 0h18v18H0z"/><path d="M7.75 6H3.96l-.653 1h2.286l-2.94 3.587L2 12h4.875L7.324 11H4.197l3.03-4 .522-1z" fill="#fff"/><mask id="a" maskUnits="userSpaceOnUse" x="6" y="6" width="10" height="7"><path fill-rule="evenodd" d="M6.973 7.411L7.733 6h4.94l-.25.642c1.058-.828 2.32-.787 2.966-.217.85.751.846 2.795-.216 4.22-1.063 1.426-2.595 1.703-3.632.942-.977-.812-.863-2.755.153-4.176h-1.173L8.596 12H6.871L8.787 7.41H6.973zm7.373 2.056c-.372.902-1.047 1.331-1.578 1.157-.516-.215-.61-1.218-.238-2.12.396-.96 1.171-1.338 1.585-1.147.445.206.603 1.208.23 2.11z" fill="#fff"/></mask><g mask="url(#a)" fill="#fff"><path d="M6.502 6h9.8v.353h-9.8zM6.502 6.665h9.8V7h-9.8v-.335zM6.502 7.412h9.8v.353h-9.8zM6.502 8.117h9.8v.353h-9.8zM6.502 8.823h9.8v.353h-9.8zM6.502 9.529h9.8v.353h-9.8zM6.502 10.234h9.8v.353h-9.8zM6.502 11.002h9.8v.353h-9.8zM6.502 11.646h9.8v.353h-9.8z"/></g></svg>