<!-- by TradingView --><svg width="18" height="18" xmlns="http://www.w3.org/2000/svg"><path fill="#F60" d="M0 0h18v18H0z"/><path d="M14.345 11.335l.655.905c-.435.423-1.957 1.76-4.242 1.76-3.216 0-3.444-2.636-6.651-2.636L3 11.357v-1L6.053 7.34H3.371L4.2 6h4.32l-.713 1.34-2.878 3.018c2.692 0 3.332 2.339 5.973 2.339 1.615-.005 2.98-.876 3.443-1.362z" fill="#fff"/><path d="M11.056 10.586c-.655 0-1.052-.513-1.052-1.246 0-.995.598-2.353 1.627-2.353.785 0 1.03.677 1.03 1.224 0 1.06-.641 2.375-1.605 2.375zM11.784 6c-1.836 0-3.11 1.564-3.11 3.37 0 1.272.842 2.198 2.203 2.198 1.836 0 3.123-1.551 3.123-3.357C14 7.03 13.236 6 11.784 6z" fill="#fff"/></svg>