<!-- by TradingView --><svg width="18" height="18" viewBox="0 0 18 18" xmlns="http://www.w3.org/2000/svg"><path fill="#0AC0DD" d="M0 0h18v18H0z"/><path d="M14.98 6H15c-.1.71-.28 1.4-.51 2.09a9.1 9.1 0 0 1-1.4 2.68 5.36 5.36 0 0 1-1.76 1.48c-1 .52-2.15.76-3.29.75a12.68 12.68 0 0 1 1.91-3.5 6.02 6.02 0 0 1 1.95-1.67c-.23.08-.44.19-.65.3-.67.4-1.22.93-1.71 1.5-.64.78-1.16 1.63-1.6 2.52.05-.63.19-1.26.42-1.86.29-.76.74-1.45 1.34-2a7.9 7.9 0 0 1 2.28-1.44c.96-.4 1.97-.69 3-.85ZM4.02 6.47c.87.34 1.7.79 2.46 1.35a5.02 5.02 0 0 1 1.7 2.06c.02.05.06.1.04.16-.2.53-.35 1.09-.43 1.65-.39-.86-.84-1.7-1.4-2.47a4.3 4.3 0 0 0-.89-.9c.63.86 1.24 1.75 1.73 2.7.2.41.4.84.5 1.3v.6a4.98 4.98 0 0 1-2.5-1.6 5.74 5.74 0 0 1-1.06-2.49 9.51 9.51 0 0 1-.15-2.36Z" fill="#fff"/></svg>