<!-- by TradingView --><svg width="18" height="18" viewBox="0 0 18 18" xmlns="http://www.w3.org/2000/svg"><path fill="#F0F3FA" d="M0 0h18v18H0z"/><path d="M5.36 10.55a.02.02 0 0 0 0 .02l.02.01h2.44a.27.27 0 0 1 .21.1.25.25 0 0 1 .05.22l-.26.92a.24.24 0 0 1-.09.13.26.26 0 0 1-.15.05H3.26a.27.27 0 0 1-.2-.1.24.24 0 0 1-.05-.2l.24-.85c.05-.17.13-.3.26-.45A3406 3406 0 0 1 6.32 7.4H4.51a.27.27 0 0 1-.2-.1.24.24 0 0 1-.05-.21l.25-.91a.22.22 0 0 1 .09-.12.24.24 0 0 1 .14-.05H8.5a.27.27 0 0 1 .2.1.24.24 0 0 1 .05.21l-.2.7c-.02.1-.08.2-.18.32-.56.58-1.56 1.66-3 3.22Z" fill="#1A8ACB"/><path d="M12.17 10.84h-.81a.05.05 0 0 0-.05.03l-.6 1.1a.06.06 0 0 1-.04.03H9.28a.25.25 0 0 1-.24-.24c0-.04 0-.08.02-.12l2.85-5.43c.07-.14.19-.18.36-.18.71-.04 1.24-.04 1.57 0 .1.01.16.09.16.23 0 .45 0 2.28-.04 5.5a.24.24 0 0 1-.24.24H12.5c-.19 0-.28-.1-.28-.28v-.84c0-.03-.02-.04-.05-.04Zm1.66.98.06-5.62v-.02a.06.06 0 0 0-.05-.04h-.19c-.02 0-.03.01-.03.02l-.06 5.7.03.01a.4.4 0 0 0 .07 0h.12a.06.06 0 0 0 .05-.05ZM11.8 9.23l.38-.73c.04-.09.05-.25.02-.49 0-.02 0-.02-.02 0l-.78 1.46c-.02.03 0 .04.03.04h.75c.02 0 .04 0 .04-.04v-.16c0-.02-.01-.03-.03-.03h-.36c-.04 0-.05-.02-.03-.05Zm.39-.5-.2.38c-.02.03 0 .05.03.05h.16c.02 0 .04-.01.04-.04v-.37c0-.04-.01-.04-.03-.01Zm-1.5 2.57-.29.54c0 .03 0 .04.02.04h.2a51.87 51.87 0 0 1 .55-1.02c0-.03 0-.04-.02-.04h-.2c-.02 0-.03.02-.05.05l-.22.43Z" fill="#8FC320"/></svg>