<!-- by TradingView --><svg width="18" height="18" viewBox="0 0 18 18" xmlns="http://www.w3.org/2000/svg"><path fill="#F0F3FA" d="M0 0h18v18H0z"/><path d="M14.97 11.5c.02 0 .03.01.03.03v.44c0 .02-.01.03-.03.03H3.03C3 12 3 11.99 3 11.97v-.44c0-.02.01-.03.03-.03h11.94ZM4.5 5.8c.5-.26 1.03-.35 1.6-.28.8.1 1.44.49 1.9 1.15.45.66.6 1.37.44 2.15a2.73 2.73 0 0 1-1.82 2.04 2.72 2.72 0 0 1-2.7-.58l2.4-2.4a.02.02 0 0 1 .01-.01h.01l.27.26v.03L5.16 9.62v.03h.01a1.5 1.5 0 0 0 1.87-.6c.16-.26.23-.54.22-.85-.01-.3-.1-.58-.28-.82-.3-.42-.72-.63-1.24-.63s-.93.22-1.23.65c-.18.25-.27.53-.27.84a1.6 1.6 0 0 0 .25.88v.02l-.85.84H3.6A2.67 2.67 0 0 1 3 8.48 2.73 2.73 0 0 1 4.5 5.8Zm7.25-.25a2.67 2.67 0 0 1 2.33.64 2.73 2.73 0 0 1 .9 1.78h-1.23l-.02-.03a1.49 1.49 0 0 0-1.06-1.14 1.52 1.52 0 0 0-1.52.42c-.34.35-.47.77-.39 1.27.08.49.33.85.76 1.08.4.22.8.25 1.24.1a1.35 1.35 0 0 0 .9-.82h-.01v-.01h-2.07l-.01-.01v-.38c0-.02 0-.04.02-.04h3.39l.02.04c-.03.49-.18.9-.45 1.3a2.67 2.67 0 0 1-1.85 1.2c-.8.14-1.52-.05-2.15-.55a2.7 2.7 0 0 1-.98-1.57 2.76 2.76 0 0 1 2.19-3.28Z" fill="#3F2BFD"/></svg>