<!-- by TradingView --><svg width="18" height="18" viewBox="0 0 18 18" xmlns="http://www.w3.org/2000/svg"><path fill="url(#a)" d="M0 0h18v18H0z"/><path d="M8.99 4a14.02 14.02 0 0 0-2.25.6.04.04 0 0 1-.03-.03c0-.02 0-.03.02-.04A4.24 4.24 0 0 1 9 4Z" fill="#A17AA8"/><path d="M12.93 5.86a5.2 5.2 0 0 0-2.42-1.67.18.18 0 0 0-.11 0l-.47.12A41.92 41.92 0 0 0 4.8 6.37a3.31 3.31 0 0 1 1.67-1.64c.13-.04.25-.1.37-.16.68-.24 1.4-.43 2.16-.56L9.44 4c.12 0 .27.02.48.06.19.04.33.05.43.06.15 0 .3.03.45.08a5.1 5.1 0 0 1 2.17 1.62c0 .02-.01.03-.04.04Z" fill="#231C31"/><path d="m12.93 5.86-.03.1c-.1.01-.16.04-.19.08l-.45.14-.6.02c-.12 0-.15-.05-.08-.15l.07-.14c.07-.11.17-.16.3-.15l.76.1h.01v-.03c0-.03 0-.05-.02-.06l-.95-.19.16-.27c.03-.06.02-.06-.03-.03l-.35.28-.98-.08c-.08 0-.11-.06-.1-.14.02-.04.05-.1.1-.16v-.01l-.02-.02c-.02-.02-.03-.02-.05 0-.1.17-.24.26-.4.26h-.1c-.17 0-.3 0-.37-.02a.33.33 0 0 1-.25-.22.1.1 0 0 1 .01-.1l.56-.76.47-.12h.1a5.2 5.2 0 0 1 2.43 1.67Z" fill="#FDD1ED"/><path d="m9.93 4.31-.56.76a.1.1 0 0 0 0 .1c.03.11.11.19.24.22.07.02.2.02.37.02h.1c.16 0 .3-.1.4-.26.02-.02.03-.02.05 0l.01.02v.01a.48.48 0 0 0-.08.16c-.02.08.01.13.1.14l.97.08c-.1.14-.17.2-.2.15l-.81-.06a.14.14 0 0 0-.15.08 1.3 1.3 0 0 0-.15.49c-.07.04-.13.04-.16.02s-.04-.06-.03-.13c.04-.2.15-.38.3-.53.03-.02.03-.03.02-.05l-.02-.04c-.01-.02-.03-.02-.05 0l-.26.22a.68.68 0 0 0-.5-.04c-.06.02-.08.05-.04.12.1.17.23.2.4.06a.79.79 0 0 1-.31.3c-.08.04-.21.09-.39.13a3.8 3.8 0 0 0-.2.06c-.17.05-.33.08-.47.1l-.69.08c.17-.19.3-.38.38-.59 0-.03 0-.04-.03-.05-.02 0-.04 0-.05.02-.2.27-.43.53-.7.78a1.3 1.3 0 0 1-.44.23 3 3 0 0 0-.23.08l-.8.4-.4.24c-.12.05-.28.14-.47.29-.2.14-.55.32-1.04.54C4 8.43 4 8.4 4 8.38l.09-.35c0-.07.02-.12.03-.15.15-.6.37-1.1.66-1.5 1.69-.81 3.4-1.5 5.14-2.07Z" fill="#996C90"/><path d="M11.75 5.58c-.18.17-.32.36-.4.56a.13.13 0 0 1-.08.07.12.12 0 0 0-.06.04c-.03.03-.02.05.03.05l.7.04c0 .2-.05.42-.15.62-.02.04-.02.07.02.1.15.08.3.11.45.1.02 0 .04.02.04.04v.03l-.02-.02a.23.23 0 0 0-.2-.03L11.52 7c-.03 0-.05 0-.06.03v.03c-.02.03-.03.04-.06.02a2.06 2.06 0 0 0-.61-.3.15.15 0 0 0-.14.03.16.16 0 0 0-.06.13c0 .2-.12.3-.36.29-.04 0-.06-.03-.04-.07.01-.03.05-.07.12-.1l.04-.04c.01-.04 0-.05-.04-.05a.77.77 0 0 0-.34.06c-.14.22-.3.34-.49.37a.22.22 0 0 0-.1.05.2.2 0 0 1-.13.05c-.04 0-.06-.02-.04-.06.03-.07.1-.14.2-.2a.37.37 0 0 0 .26-.33c0-.04.03-.06.08-.06l.16.03c.02 0 .04 0 .05-.03l.02-.03c0-.02-.01-.04-.03-.05l-.2-.11c-.04-.02-.04-.04 0-.06l.05-.03h.02c.1.06.19.07.26.05a.1.1 0 0 0 .08-.09c.02-.11.06-.17.13-.18.04 0 .06-.02.08-.05l.02-.06c.33-.07.64-.24.94-.53.03.04.1 0 .2-.15l.35-.28c.05-.04.06-.03.02.02l-.15.28Z" fill="#5639D4"/><path d="m10.22 6.22.17.02-.02.06a.09.09 0 0 1-.08.05c-.07.01-.12.07-.13.18a.1.1 0 0 1-.08.1c-.07.02-.16 0-.26-.06H9.8l-.05.03c-.04.02-.04.04 0 .06l.2.11c.02.01.03.03.03.05l-.02.04a.06.06 0 0 1-.05.02l-.17-.02c-.04 0-.06.01-.07.05a.37.37 0 0 1-.25.33.52.52 0 0 0-.36-.04c-.04-.03-.09-.02-.14.02A.54.54 0 0 0 9 7.03a.14.14 0 0 0 .08-.06c.02-.03.01-.05-.02-.06l-.03-.02c.06 0 .1-.03.13-.06.09.05.15.06.18 0 .04-.07-.02-.12-.19-.13.1-.08.15-.17.11-.25a.11.11 0 0 0-.1-.08c-.04 0-.08.01-.1.05-.1.11-.29.2-.59.26-.17.03-.3.06-.37.1-.16.06-.32.1-.5.13-.04.01-.05 0-.03-.05a.8.8 0 0 1 .26-.34l.68-.08c.15-.02.3-.05.48-.1l.2-.06c.18-.04.3-.09.39-.13a.79.79 0 0 0 .31-.3l.13-.14.27-.22c.02-.02.03-.02.05 0l.02.04-.01.05a.95.95 0 0 0-.3.53c-.02.07-.01.1.02.13.03.02.09.02.16-.02Z" fill="#261449"/><path d="m11.75 5.58.95.2c.02 0 .02.02.02.05v.03h-.01l-.76-.1c-.13-.01-.23.04-.3.15l-.07.14c-.07.1-.04.15.09.15l.59-.02c-.12.08-.23.13-.33.16l-.7-.04c-.04 0-.05-.02-.02-.05a.12.12 0 0 1 .06-.04.13.13 0 0 0 .07-.07c.1-.2.23-.39.4-.56Z" fill="#9C86D0"/><path d="m10.01 5.7-.13.15c-.17.13-.3.11-.4-.06-.04-.07-.02-.1.04-.12a.68.68 0 0 1 .5.04ZM11.33 5.71c-.3.29-.61.46-.94.53l-.17-.02c.01-.16.06-.32.15-.49a.14.14 0 0 1 .15-.08l.8.06Z" fill="#FDD1ED"/><path d="m6.81 6.22.06.01c.02.02.04.04.04.07 0 .02 0 .05-.03.07-.14.12-.2.22-.16.3.04.08.02.13-.06.16-.42.15-.83.33-1.23.53-.05.02-.11.07-.2.14a.66.66 0 0 1-.22.14c-.05.01-.06 0-.04-.05.43-.74.99-1.33 1.69-1.78a.09.09 0 0 1 .1 0c.04.03.05.07.04.1a.79.79 0 0 1-.07.21c-.08.12-.05.15.08.1Z" fill="#A17AA8"/><path d="M7.82 6.52a.8.8 0 0 0-.26.34c-.02.04 0 .06.04.05.17-.02.33-.07.5-.14.07-.03.19-.06.36-.1.3-.05.5-.14.58-.25a.11.11 0 0 1 .12-.05c.04.01.08.04.1.08.03.08-.01.17-.12.25-.08-.02-.13 0-.16.02-.04.03-.03.04.01.05.06 0 .11.03.16.06-.03.03-.07.05-.13.07-.08-.01-.12 0-.13.05v.03c.02.03.05.05.1.05 0 .05-.03.11-.07.19.03.04-.01.08-.11.12L7.07 7.3a.93.93 0 0 1-.5.18c-.19.03-.37.1-.55.23H6c-.03 0-.04 0-.05-.03-.01-.02 0-.04.01-.05.29-.2.6-.36.92-.47.02 0 .02-.01 0-.02-.1-.05-.15-.1-.13-.15a3 3 0 0 1 .22-.08c.22-.08.37-.15.46-.23.26-.25.49-.5.7-.78l.04-.02c.03 0 .04.03.02.05-.08.2-.2.4-.37.6Z" fill="#070118"/><path d="M12.9 5.96a.1.1 0 0 1 .09.03c.05.05.04.09-.02.12l-.5.53a.33.33 0 0 1-.13.04c-.05 0-.06-.03-.03-.06l.4-.58c.03-.04.09-.07.19-.08Z" fill="#261449"/><path d="m12.71 6.04-.4.58c-.03.04-.02.06.03.06l.13-.04a.14.14 0 0 0-.03.05c0 .04.01.06.05.06.15 0 .3.04.44.14-.06-.02-.11-.03-.14 0-.03.02-.03.04-.01.08.04.06.03.12-.03.17v-.09c0-.04-.02-.06-.05-.07-.07 0-.12.04-.15.13-.02.05 0 .1.08.11-.09 0-.13.02-.11.07.01.03.03.06.07.09l-.24-.1a.08.08 0 0 1-.05-.05V7.2c0-.02-.02-.03-.04-.03a.83.83 0 0 1-.45-.12c-.04-.02-.04-.05-.02-.09.1-.2.15-.41.14-.62.1-.03.2-.08.33-.16l.45-.14Z" fill="#3F2789"/><path d="M12.97 6.11c.15-.02.23.05.24.2a.85.85 0 0 0-.37.24c-.05.05-.04.09.03.1.2.06.39.08.57.05l.05.16c0 .04-.02.06-.03.08l-.53-.05a.72.72 0 0 0-.44-.14c-.04 0-.06-.02-.05-.06l.03-.05.5-.53Z" fill="#7E5373"/><path d="m13.22 6.31.05.06c0 .03 0 .05-.04.06l-.14.06c-.02 0-.02.01-.02.03 0 .01.01.02.03.02.17-.02.29.03.34.16a1.4 1.4 0 0 1-.56-.04c-.07-.02-.08-.06-.04-.11.1-.11.23-.2.38-.24Z" fill="#FED4DA"/><path d="M10.69 6.46c.04.04 0 .11-.11.23a.07.07 0 0 1-.08.01.1.1 0 0 1-.03-.01.1.1 0 0 1-.02-.03.07.07 0 0 1 .01-.08c.11-.12.19-.16.23-.12Z" fill="#9C52E4"/><path d="M9.14 6.7c.17.01.23.06.19.13-.03.06-.09.05-.18 0A.36.36 0 0 0 9 6.77c-.04 0-.05-.03-.01-.05.03-.03.08-.04.16-.02Z" fill="#996C90"/><path d="M12.08 7.18a2.05 2.05 0 0 0-.3.4v.03c.03.03.06.04.1.02.22-.12.36-.26.4-.42l.02.02.05.04c-.05.17-.16.36-.35.58l-.74-.08a.12.12 0 0 0-.11.05.12.12 0 0 0-.02.12c.07.2.08.4.03.6l-.11-.42c-.01-.04-.03-.05-.07-.03-.15.1-.3.21-.43.34a.81.81 0 0 1-.22.14l-.18.09c-.03-.1-.02-.18.02-.24a.54.54 0 0 1 .17-.14l.08-.04c.1-.07.24-.22.41-.46l.12-.15c.06-.08.1-.18.14-.32l.01-.09c.01-.02 0-.05-.02-.06a.06.06 0 0 0-.06-.02c-.2.08-.38.16-.51.27-.1.07-.2.25-.3.55l-.06.14c-.03.08-.08.1-.16.08a.32.32 0 0 0-.17 0c-.04.02-.05.05-.04.09.04.12 0 .24-.14.37a.07.07 0 0 0-.02.08c.01.03.03.04.06.05h.05a.1.1 0 0 1 .08.07c.02.08 0 .12-.07.14v-.04a.05.05 0 0 0-.03-.05l-.06.01-.34.35c-.04.04-.06.03-.08-.02-.03-.06 0-.12.05-.2l.25-.21a.08.08 0 0 0 .02-.09.62.62 0 0 1 .08-.49c.1-.03.16-.11.2-.22a.1.1 0 0 0 0-.1.19.19 0 0 1 0-.2c.1-.21.16-.44.14-.69.1-.04.22-.07.34-.06.04 0 .05.02.04.05l-.04.03c-.07.04-.1.08-.12.11-.02.04 0 .07.04.07.24.01.36-.08.36-.29 0-.05.02-.1.06-.13a.15.15 0 0 1 .14-.03c.18.05.38.15.6.3.04.02.05.01.06-.02l.01-.03c.01-.02.03-.03.06-.02l.56.17Z" fill="#E28CF6"/><path d="m13.5 6.86.26.84a16.1 16.1 0 0 0 0 2.25l-.08.02c-.04 0-.06 0-.07-.04a.27.27 0 0 0-.1-.14 24.3 24.3 0 0 1-.02-2.12c0-.07-.02-.12-.07-.14l.03-.08c.12-.22.12-.4.01-.51a.27.27 0 0 0 .03-.08Z" fill="#4D4468"/><path d="M9.02 6.9h.03c.03.02.04.04.02.07a.14.14 0 0 1-.07.06c-.05 0-.09-.02-.1-.05v-.03c0-.05.04-.06.12-.05Z" fill="#7E5373"/><path d="m12.93 6.9.54.04c.1.12.1.29-.02.5l-.8.53-.04-.2c.05-.16.04-.3-.02-.4a.22.22 0 0 1-.07-.08c-.02-.05.02-.07.11-.07a.2.2 0 0 0 .12-.08c.06-.05.07-.1.03-.17-.03-.04-.02-.06.01-.08.03-.02.08-.02.14 0Z" fill="#030306"/><path d="M12.75 7.14a.2.2 0 0 1-.12.08c-.08-.02-.1-.05-.09-.11.04-.1.09-.13.16-.12.03 0 .06.02.06.06a.2.2 0 0 1-.01.09Z" fill="#5639D4"/><path d="M6.75 6.99c-.02.05.02.1.13.15.02 0 .02.01 0 .02-.33.1-.63.26-.92.46-.01.02-.02.04-.01.06 0 .02.02.03.05.03h.03l-.38.48a.7.7 0 0 1 .1-.25c.02-.03.02-.05 0-.07a.15.15 0 0 0-.06-.04c-.06-.02-.07-.05-.02-.08.13-.1.22-.22.27-.36l.81-.4Z" fill="#4D4468"/><path d="M9.97 7.03c.02.25-.03.48-.15.68a.19.19 0 0 0 0 .2.1.1 0 0 1 .02.1.38.38 0 0 1-.21.23.57.57 0 0 1-.3-.1.2.2 0 0 0-.09-.03l-.18-.03a.8.8 0 0 1 .31-.02c.02 0 .03 0 .03-.02v-.03a.24.24 0 0 0-.13-.06.1.1 0 0 1-.08-.06c-.01-.03 0-.06.02-.08a.13.13 0 0 0 .03-.06c.02-.03 0-.06-.03-.1l-.2-.11a.08.08 0 0 1-.03-.05c-.01-.04 0-.07.05-.07l.06-.01c.05 0 .06-.03.01-.06-.1-.09-.12-.14-.04-.15a.52.52 0 0 1 .36.03c-.11.07-.18.14-.21.21-.02.04 0 .06.04.06a.2.2 0 0 0 .13-.04c.04.06.1.09.2.07.08-.02.1-.05.02-.1-.03-.02-.06-.03-.12-.03.19-.03.35-.15.5-.37Z" fill="#9C52E4"/><path d="m10.15 8.66-.06.52c-.03.13-.19.18-.46.17-.04 0-.06-.02-.06-.06v-.05l.17-.26c.07-.02.1-.06.07-.14a.1.1 0 0 0-.08-.07h-.05a.07.07 0 0 1-.06-.05c0-.03 0-.06.02-.08.14-.13.18-.25.14-.37-.01-.04 0-.07.04-.08a.32.32 0 0 1 .17-.01c.08.02.13 0 .16-.08l.05-.15c.11-.3.22-.47.3-.55.14-.1.31-.18.52-.26.02 0 .04 0 .06.02.02.01.03.04.02.06l-.01.1a.78.78 0 0 1-.14.3c-.03.04-.06.1-.12.16a2.18 2.18 0 0 1-.49.5.54.54 0 0 0-.17.13c-.04.07-.05.15-.02.25Z" fill="#FEF8FD"/><path d="M9.06 7.2c-.08.01-.06.06.05.15.04.03.04.05-.02.06h-.06c-.04.01-.06.04-.05.08 0 .02.02.04.04.05l.2.12c.03.03.04.06.03.09l-.04.06c-.02.02-.03.05-.01.08a.1.1 0 0 0 .07.06c.06.01.1.03.13.06v.03c0 .02-.01.02-.03.02a.8.8 0 0 0-.3.02l-.19.1.03-.17c0-.04 0-.07-.04-.08-.11-.05-.2 0-.27.11a.57.57 0 0 1-.24.25c-.14-.1-.21-.18-.21-.26a.14.14 0 0 0 .06-.07c0-.03 0-.05-.03-.07H8.1c0-.07-.03-.11-.1-.12-.11-.01-.3 0-.57.03-.03-.05-.12-.07-.27-.04l1.5-.33c.18-.03.23-.06.15-.1.1-.03.14-.07.11-.11.05-.04.1-.05.14-.02Z" fill="#3F2789"/><path d="M12.28 7.21c-.04.16-.18.3-.4.42-.04.02-.07.01-.1-.02v-.05c.1-.14.2-.27.3-.38a.24.24 0 0 1 .2.03Z" fill="#FEF8FD"/><path d="M12.59 7.38c.06.1.07.23.02.4-.06.38-.2.71-.43 1.01l.14-.77c.02-.08-.09-.14-.32-.17.19-.21.3-.4.35-.58l.24.1ZM8.8 7.34c.09.03.04.06-.14.1a26.3 26.3 0 0 0-1.67.36l.08-.5 1.74.04Z" fill="#9C86D0"/><path d="m7.07 7.3-.08.5-.38.08c-.1.02-.15.09-.16.2l-.03.54c-.1-.03-.14-.14-.1-.35.03-.31.12-.57.24-.8.15.01.32-.05.5-.17Z" fill="#4D4468"/><path d="M5.94 7.4a.84.84 0 0 1-.27.35c-.05.04-.04.06.02.08.02.01.05.02.06.04.02.02.02.04 0 .07a.7.7 0 0 0-.1.25l-.35.36c.04-.11.1-.22.18-.32V8.2l-.02-.02c-.02-.02-.03-.02-.05 0l-.23.23c-.1.08-.17.16-.23.24-.14.22-.32.45-.53.68-.03.02-.05.03-.05.01l-.02-.08.52-.65c.06-.06.13-.21.24-.46l.43-.52.4-.24Z" fill="#030306"/><path d="M9.48 7.4c.06 0 .1.01.12.03.07.05.06.08-.02.1-.1.02-.16 0-.2-.07a.22.22 0 0 1 .1-.06Z" fill="#E28CF6"/><path d="m13.45 7.45-.03.08c-.18.2-.4.5-.66.9l-.31.49.2-.95.8-.52Z" fill="#7E5373"/><path d="M6.56 7.48c-.12.22-.2.48-.25.8-.02.2.01.31.11.34l.2.86c0 .06.03.13.08.2h-.06c-.22-.27-.33-.59-.33-.95 0-.06-.02-.08-.08-.06-.14.05-.27.12-.37.21a.13.13 0 0 0-.05.1c-.02.34.06.64.24.9l.06.9a.1.1 0 0 1-.04.1l-.27.22a.61.61 0 0 0-.36.31c-.02.04 0 .06.03.05.11 0 .2-.06.29-.16l.75.07c-.54 0-.87.22-.98.65-.07-.16-.27-.18-.58-.08l-.12-.18.33-.33a.5.5 0 0 0-.1.17c-.02.04 0 .06.04.06.1 0 .18-.02.26-.08.03-.01.04-.04.03-.07-.04-.21.03-.35.22-.42a.56.56 0 0 0 .24-.2.1.1 0 0 0 .02-.09.1.1 0 0 0-.06-.08 1.6 1.6 0 0 1-.6-.46 3 3 0 0 0-.1-.1c-.15-.19-.22-.34-.21-.47.03-.33.03-.55 0-.64 0-.04.02-.07.06-.07.08 0 .12-.07.12-.19 0-.03.01-.06.05-.08.09-.05.15-.1.17-.16l.34-.36.38-.48c.18-.12.36-.2.54-.23Z" fill="#9C86D0"/><path d="M13.42 7.53c.05.02.07.07.07.15-.03.62-.02 1.33.01 2.11.02.02.02.05.02.08 0 .06-.01.12-.05.19a.47.47 0 0 0-.04.1c-.04.14-.05.29-.04.42-.39.47-.85.71-1.38.71l.36-.53c.02-.02.01-.03-.01-.03h-.04c-.03 0-.05 0-.08.03l-.65.72-.37-.4.17-.1c.02-.01.02-.03 0-.04l-.13-.06-.16-.19c-.03-.04-.03-.07 0-.1l.28-.22c.04-.03.09-.03.14 0 .1.1.21.13.3.1.03-.01.04-.03.01-.06l-.19-.2c-.05-.04-.05-.1 0-.15l.52-.59a.1.1 0 0 1 .07-.03l.51-.06c.07-.01.07-.03 0-.05-.08-.03-.2-.06-.35-.08-.05 0-.06-.03-.05-.07l.1-.26c.08-.1.19-.27.32-.49.26-.4.48-.7.66-.9Z" fill="#FED4DA"/><path d="m5.54 7.63-.43.52-1.02.41c-.05-.06-.07-.1-.05-.1.49-.22.83-.4 1.03-.54.2-.15.36-.24.47-.3Z" fill="#231C31"/><path d="M13.77 9.95a16.1 16.1 0 0 1 0-2.25c.28.78.3 1.56.08 2.35l-.04.03c-.02 0-.03 0-.04-.03-.02-.04-.02-.07 0-.1Z" fill="#FDD1ED"/><path d="M7.16 7.76c.15-.03.24-.01.27.04l-.68.18a.14.14 0 0 0-.11.13l-.06.44c0 .05.01.08.06.09h.09c.04.01.05.03.03.07l-.04.07c-.02.04-.02.08.02.11l.14.14.04.08c.05.38-.04.5-.3.37l-.2-.86.03-.55c0-.1.06-.17.16-.2L7 7.8a.44.44 0 0 1 .17-.04Z" fill="#261449"/><path d="M8.1 7.89a.4.4 0 0 0-.08.11c-.02.04 0 .06.03.07.03 0 .06 0 .1-.04 0 .08.07.16.2.26.02.17.08.3.18.42.07.06.19.08.35.06h.03c-.03.1-.03.16 0 .2.03.04.06.05.1.03l.2-.1c.03.03.06.08.07.13-.06.08-.08.14-.05.2.02.05.04.06.08.02l.34-.35c.02-.01.04-.02.06 0 .02 0 .03.02.03.04v.04l-.16.27a.15.15 0 0 0-.08.06c-.02.03-.02.05 0 .07.08.07.12.16.14.28 0 .04 0 .07-.03.1-.05.05-.12.07-.23.05a.1.1 0 0 0-.08.02l-.07.05c-.04.03-.06.02-.07-.03l-.02-.1.22-.28c.03-.05.03-.07-.03-.04a.97.97 0 0 0-.23.16.08.08 0 0 1-.09.02c-.15-.07-.27-.05-.36.04-.03.04-.06.04-.08-.01v-.1c.1-.17.24-.21.39-.11.04.02.08.04.1.03.05 0 .08-.03.1-.07.02-.03.02-.06-.01-.09-.08-.07-.16-.07-.23-.03a.18.18 0 0 1-.1-.13.08.08 0 0 0-.06-.07c-.07-.02-.1-.06-.08-.1.02-.06 0-.08-.05-.07l-.1.01c-.03 0-.06-.01-.08-.04-.04-.08-.1-.11-.17-.1-.11-.08-.2-.07-.25 0-.03.05 0 .14.06.28-.01 0-.03 0-.07.04a.33.33 0 0 0-.16-.16v-.01l-.06-.43c0-.04.01-.06.04-.08.06-.03.1-.07.1-.11.02-.04 0-.05-.02-.03l-.52.34c-.05.06-.06.11-.04.17l.05.04.04.06v.1c-.13.29-.26.56-.41.82-.02.03-.05.04-.08.03a.68.68 0 0 1-.26-.15.37.37 0 0 1-.08-.2c.26.13.35.01.3-.37a.13.13 0 0 0-.04-.08l-.14-.14c-.04-.03-.04-.07-.02-.11l.04-.07c.02-.04 0-.06-.03-.06l-.09-.01c-.05 0-.07-.04-.06-.09l.06-.44c0-.07.04-.11.1-.13l.7-.18c.26-.03.45-.04.55-.03.08 0 .12.05.1.12Z" fill="#5639D4"/><path d="M12 7.85c.23.03.34.09.32.17l-.14.77c-.14.3-.3.6-.48.89-.07.11-.16.22-.27.32l-.31.28c-.74.64-1.59.95-2.55.92l-1.2-.21a2.58 2.58 0 0 0-.98-.18c-.06 0-.08-.02-.06-.08.06-.17-.02-.43-.23-.76a7.73 7.73 0 0 1-.05-.09 1.39 1.39 0 0 1-.24-.9c0-.04.02-.07.05-.1.1-.09.23-.16.37-.21.05-.02.08 0 .08.06 0 .36.11.68.33.96l.28.31c.03.03.06.03.1.01l.22-.12c.18-.1.22-.07.11.11 0 .02-.05.05-.13.11-.07.05-.07.1-.02.16.28.31.66.5 1.12.58.45.08.86.03 1.23-.14.27-.13.26-.23-.02-.3-.07-.02-.21.01-.44.1a.14.14 0 0 0-.08.07c-.04.09-.12.12-.24.1-.06 0-.07-.03-.02-.07a.42.42 0 0 1 .1-.05.14.14 0 0 0 .09-.06.41.41 0 0 1 .12-.14 11.53 11.53 0 0 1 1.31-.7l.23-.12c.05-.02.06-.01.03.03l-.14.27c-.2 0-.32.04-.37.1a.17.17 0 0 1-.08.06l-.26.1a.08.08 0 0 0-.05.06v.08c.04.14.08.14.14.01l.03-.06a.08.08 0 0 1 .08-.05c.09.01.16.03.23.06l-.1.11v.03l.03.03h.05c.5-.42.81-.94.92-1.58l.05-.25c.05-.2.04-.4-.03-.6a.12.12 0 0 1 .02-.12.12.12 0 0 1 .11-.05l.74.08Z" fill="#FEF8FD"/><path d="m12.61 7.78.05.2-.22.94-.1.26c-.01.04 0 .06.05.07.15.02.27.05.36.08.06.02.06.04 0 .05l-.52.06a.1.1 0 0 0-.06.03l-.53.58c-.05.06-.05.12 0 .17l.2.2c.02.02.01.04-.02.05-.09.03-.2 0-.3-.1-.05-.03-.1-.03-.14 0l-.27.22c-.04.03-.04.06-.01.1l.16.19-.16.02-.17-.11a.09.09 0 0 0-.1 0l-.58.32-.14.06a.78.78 0 0 0-.47.13l-1.09.1c-.28-.1-.6-.1-.94 0-.05 0-.07-.01-.04-.06l.03-.04c.02-.02.05-.03.1-.04.28 0 .57-.03.87-.06.96.03 1.81-.28 2.55-.92l.3-.28c.12-.1.2-.2.28-.32.18-.29.34-.58.47-.89.24-.3.38-.64.44-1.01Z" fill="#261449"/><path d="M8.15 8.03c-.04.03-.07.04-.1.04-.04 0-.05-.03-.03-.07a.4.4 0 0 1 .08-.11h.08c.03.02.03.04.03.07-.01.03-.03.05-.06.07Z" fill="#E28CF6"/><path d="M8.88 8.17a.62.62 0 0 0-.17.3c-.01.04 0 .07.04.08.12.04.22.1.29.17l-.12.05h-.04c-.16.02-.28 0-.35-.06a.61.61 0 0 1-.17-.42c.09-.04.17-.13.24-.25.07-.12.15-.16.27-.11.03.01.05.04.04.08l-.03.16Z" fill="#070118"/><path d="m11.16 8.54-.05.25c0-.18 0-.3-.02-.38-.04-.2-.1-.21-.16-.02l-.05.17c-.03.14-.1.15-.18.04-.01-.01-.03-.02-.07-.01-.04 0-.06.02-.06.06l-.03.2c-.05-.24-.13-.15-.25.27-.06.16-.09.32-.09.49 0 .04.02.06.06.05h.11a.26.26 0 0 1-.16.09c-.2 0-.28-.04-.26-.13.13-.05.18-.19.14-.44l.06-.52.18-.1c.11-.04.18-.09.22-.13.14-.13.28-.24.43-.34.04-.02.06 0 .07.03l.11.42Z" fill="#5639D4"/><path d="M5.1 8.15c-.1.25-.17.4-.23.46l-.52.65c-.12.22-.22.3-.3.25-.06-.5-.07-.8-.02-.92.03-.06.05-.07.06-.03l1.02-.41Z" fill="#A17AA8"/><path d="m9.06 8.08.19.03a.2.2 0 0 1 .07.03c.1.06.2.1.31.1a.62.62 0 0 0-.08.5c.01.03 0 .06-.02.08l-.24.21a.37.37 0 0 0-.08-.14.58.58 0 0 0 .07-.16c.02-.18-.02-.2-.14-.06-.03.04-.06.06-.1.05a.72.72 0 0 0-.3-.17c-.03-.01-.04-.04-.03-.07a.62.62 0 0 1 .17-.3l.18-.1Z" fill="#9C86D0"/><path d="M5.3 8.55a.37.37 0 0 1-.17.16.09.09 0 0 0-.05.08c0 .12-.04.18-.12.19-.05 0-.06.03-.05.07.02.1.02.3-.01.64-.01.13.06.28.22.46a3 3 0 0 1 .08.1c.16.2.36.36.6.47a.1.1 0 0 1 .07.08.1.1 0 0 1-.03.1.56.56 0 0 1-.23.19c-.2.07-.26.2-.22.42 0 .03 0 .06-.03.07a.44.44 0 0 1-.26.08c-.04 0-.06-.02-.04-.06a.5.5 0 0 1 .1-.17c.03-.06.07-.1.12-.14.01 0 .02-.02 0-.03h-.03l-.36.28c-.04.03-.07.03-.1-.01l-.12-.22c-.03-.05-.01-.08.04-.1.03-.01.07-.05.1-.1.02-.05 0-.06-.04-.05a.72.72 0 0 0-.25.12 1.83 1.83 0 0 1-.27-.63.78.78 0 0 0-.09-.29c.1.01.17-.03.22-.14.02-.04.01-.06-.03-.05a.35.35 0 0 0-.18.08 1.77 1.77 0 0 1-.11-.64c.07.05.17-.03.3-.25v.08a4.78 4.78 0 0 0 .59-.69c.06-.08.14-.17.23-.24l.23-.23c.02-.02.03-.02.05 0l.02.02v.03c-.09.1-.15.2-.18.32Z" fill="#996C90"/><path d="M8.02 9.09c.07.22.18.34.35.36.17.01.18-.02.03-.1a.66.66 0 0 1-.31-.3c-.07-.14-.09-.23-.06-.27.06-.08.14-.09.26-.01-.04.1 0 .17.1.22.04.02.06.04.08.07.1.16.24.23.45.21.07-.04.15-.04.23.03.03.03.03.06.02.09-.03.04-.06.07-.1.07-.03 0-.06 0-.11-.04-.15-.1-.28-.05-.38.12-.02.02-.02.06 0 .1.01.05.04.05.07.01.09-.1.2-.1.36-.04.03.01.07 0 .1-.02a.97.97 0 0 1 .22-.16c.06-.03.07-.01.03.04l-.22.28-.25.36a.11.11 0 0 1-.09.05l-.07.01a.32.32 0 0 0-.18-.02l-.31-.01-.03-.02-.05-.1a.12.12 0 0 0-.07-.07l-.4-.14-.2-.08c-.08-.04-.1-.1-.07-.19.07-.16.17-.3.3-.42.05-.04.04-.06-.02-.07-.09 0-.13-.06-.13-.15a.1.1 0 0 0-.05-.09.25.25 0 0 1-.12-.2l.52-.34c.03-.02.04-.01.03.03-.01.04-.05.08-.1.11-.04.02-.05.04-.05.08l.05.43.01.01c.07.04.12.09.16.16Z" fill="#FDD1ED"/><path d="M11.11 8.79a2.54 2.54 0 0 1-.92 1.58h-.05l-.03-.03v-.03l.1-.1c.15-.1.24-.22.28-.37l.14-.27c.03-.04.02-.05-.03-.03l-.22.12h-.12c-.04 0-.06-.01-.06-.05 0-.17.03-.33.1-.49-.02.04-.02.07 0 .1s.04.04.07.04c.02 0 .04-.02.05-.04l.12-.37.03-.2c0-.04.03-.06.06-.06h.07c.09.12.15.1.18-.03l.05-.17c.07-.2.12-.19.17.02.01.07.02.2.01.38Z" fill="#3F2789"/><path d="M8.12 8.51h.17c.02 0 .03.02.03.04l-.01.04a.35.35 0 0 1-.15.07c-.05.01-.07 0-.08-.05v-.03c0-.04.01-.06.04-.07Z" fill="#FEC6FB"/><path d="M9.2 8.9 9 9c-.03.02-.06.01-.08-.02-.04-.05-.04-.12 0-.21l.12-.05c.04 0 .07 0 .1-.05.11-.14.16-.12.13.06 0 .03-.02.08-.07.16Z" fill="#FEF8FD"/><path d="M7.4 8.61c0 .09.05.16.12.2a.1.1 0 0 1 .05.1c0 .08.04.13.13.14.06 0 .07.03.02.07-.13.12-.23.26-.3.42-.04.09-.01.15.07.19l.2.08.07.07v.05a.05.05 0 0 1-.05.02l-.14-.01h-.03a.08.08 0 0 0-.02.05c0 .01 0 .02.02.03l.28.08a.2.2 0 0 0 .1 0 .4.4 0 0 1 .32.04.37.37 0 0 0-.16.03c-.04.02-.04.04-.01.07l.03.04c.03.03.06.03.1.02.1-.04.22-.06.35-.07.04 0 .05-.02.03-.05a.11.11 0 0 0-.03-.03c.05-.01.11 0 .18.02-.04.09-.05.16-.04.21 0 .04.03.06.07.04.06-.03.1-.07.1-.13.04-.17.14-.24.31-.2.04 0 .07 0 .09-.03l.07-.07a.16.16 0 0 1 .1-.05.8.8 0 0 0 .52-.32c-.02.09.07.13.26.13-.47.22-.86.42-1.15.6a.41.41 0 0 0-.12.15.14.14 0 0 1-.08.06.42.42 0 0 0-.11.05c-.05.04-.04.06.02.07.13.02.2-.01.24-.1a.14.14 0 0 1 .08-.07c.23-.09.37-.12.44-.1.29.07.3.17.03.3-.38.17-.8.22-1.24.14a1.87 1.87 0 0 1-1.12-.58c-.05-.06-.05-.11.02-.16l.13-.1c.11-.19.07-.22-.11-.12L7 10c-.03.02-.06.02-.09 0l-.28-.32c.03 0 .05 0 .06-.02.08.08.16.13.26.16.03 0 .06 0 .08-.04.15-.25.28-.52.4-.82.02-.04.03-.07.01-.1a.14.14 0 0 0-.04-.05.16.16 0 0 1-.04-.05c-.03-.05-.01-.1.03-.16Z" fill="#9C52E4"/><path d="m10.54 8.85-.12.37c0 .02-.03.04-.05.04-.03 0-.05 0-.06-.03-.03-.04-.03-.07-.02-.1.12-.43.2-.52.25-.28Z" fill="#FDD1ED"/><path d="M8.92 9.27c-.2.02-.35-.05-.45-.21a.18.18 0 0 0-.07-.07c-.1-.05-.15-.13-.11-.22.07-.01.12.02.16.1.02.03.05.04.08.04l.1-.01c.05 0 .07.01.05.06-.01.05.02.09.09.1.03.02.05.04.06.08 0 .06.04.1.09.13Z" fill="#E28CF6"/><path d="M5.14 9.27c.15.08.24.18.28.3 0 .02 0 .05-.03.07-.05.04-.1.03-.16-.03-.12-.13-.2-.29-.24-.49 0-.02 0-.03.02-.05h.03s.02 0 .02.02l.03.08c0 .05.02.08.05.1Z" fill="#FEF8FD"/><path d="M10.1 9.18c.03.25-.01.4-.15.44a.8.8 0 0 1-.53.32.16.16 0 0 0-.1.05l-.06.07a.1.1 0 0 1-.09.02c-.17-.03-.27.04-.3.2a.18.18 0 0 1-.1.14c-.05.02-.07 0-.08-.04-.01-.05 0-.12.04-.2l.07-.02c.04 0 .07-.02.09-.05l.25-.36.02.1c0 .05.03.06.07.03l.07-.05a.1.1 0 0 1 .08-.02c.1.02.18 0 .23-.05a.12.12 0 0 0 .03-.1.41.41 0 0 0-.13-.28c-.03-.02-.03-.04-.01-.07a.15.15 0 0 1 .08-.06v.04c0 .04.01.06.05.06.27.02.43-.04.46-.17Z" fill="#9C86D0"/><path d="M8.21 10.12a.4.4 0 0 0-.29-.02.2.2 0 0 1-.1 0l-.28-.08c-.02 0-.02-.02-.02-.03 0-.02 0-.03.02-.04 0-.01.02-.02.03-.01l.14.01c.02 0 .04 0 .05-.02a.05.05 0 0 0 0-.05.22.22 0 0 0-.07-.07l.4.14c.03.01.06.03.07.07l.05.1ZM10.5 9.84a.62.62 0 0 1-.29.36.62.62 0 0 0-.23-.06.08.08 0 0 0-.08.05l-.03.06c-.06.13-.1.13-.14 0v-.1c0-.03.02-.05.05-.06l.26-.1a.17.17 0 0 0 .08-.05c.05-.06.18-.1.37-.1ZM7.37 10.99c-.09.05-.21.07-.38.03a.1.1 0 0 0-.09.02c-.03.03-.02.05.02.06l.25.07-.05.07-.6.13-.76-.07c.1-.11.1-.18.04-.2l.27-.23a.1.1 0 0 0 .04-.09l-.06-.9.06.1c.2.32.28.58.22.75-.02.06 0 .09.06.08.33 0 .66.05.98.18Z" fill="#E28CF6"/><path d="m13.6 10.02-.17.62c-.02.05-.03.05-.04 0v-.06c-.01-.13 0-.28.04-.43l.04-.1a.35.35 0 0 0 .05-.18c.04.04.06.09.07.15Z" fill="#A17AA8"/><path d="M4.16 10.26c-.03-.04-.02-.08 0-.1a.35.35 0 0 1 .19-.1c.04 0 .05.02.03.06-.05.1-.12.15-.22.14Z" fill="#FED4DA"/><path d="M13.6 10.02c.16.27.17.58 0 .94A5.03 5.03 0 0 1 9.64 14a.2.2 0 0 1-.1-.02c-.04-.02-.05-.05-.04-.08.17-.42.27-.83.29-1.23 0-.19.03-.35.07-.5.05-.16.06-.33.02-.5 0-.05.01-.07.05-.09l1.29-.5.37.4-.2.25c-.11.16-.09.2.09.08.16-.11.34-.28.53-.52.53 0 1-.24 1.38-.7v.04c.01.06.02.07.04 0l.16-.6Z" fill="#FEC6FB"/><path d="m8.24 10.14.31.01.03.03c.02.03 0 .05-.03.05-.13 0-.25.03-.36.07a.07.07 0 0 1-.09-.02l-.04-.04c-.02-.02-.02-.05.01-.07.05-.02.1-.03.17-.03Z" fill="#3F2789"/><path d="M7.93 10.58c.11.03.2.03.22 0 0-.03-.07-.08-.18-.11-.11-.04-.2-.04-.22 0 0 .02.07.07.18.1Z" fill="#FEC6FB"/><path d="M4.67 10.94a.44.44 0 0 1-.11.1c-.03.01-.05 0-.07-.03L4.47 11c-.01-.03 0-.06.02-.07a.64.64 0 0 0 .12-.1l.16-.1h.08c.03.01.04.03.05.06 0 .03 0 .05-.03.06a.26.26 0 0 1-.1.04.14.14 0 0 0-.1.06Z" fill="#E28CF6"/><path d="M12.01 11.3c-.19.23-.37.4-.53.5-.18.12-.2.1-.09-.08l.2-.25.66-.71a.08.08 0 0 1 .07-.03h.04c.02 0 .03 0 .01.03l-.36.53Z" fill="#FEF8FD"/><path d="M11.1 10.9v.16c-.01.03-.03.05-.06.06l-.6.22a.14.14 0 0 1-.13-.02.14.14 0 0 1-.06-.13v-.08l.58-.33a.09.09 0 0 1 .1 0l.17.12Z" fill="#FEC6FB"/><path d="m11.26 10.88.12.06c.03.01.03.03 0 .04l-.16.1-1.3.5c-.03.02-.04.04-.03.08.03.18.02.35-.03.51-.04.15-.07.31-.07.5-.02.4-.12.8-.29 1.22 0 .04 0 .07.03.09a.2.2 0 0 0 .1.02h-1.1c.05-.06 0-.1-.14-.11l-.17-.03c-.12-.03-.19 0-.2.05a4.9 4.9 0 0 1-2.75-1.58l.06-.15c.02-.06.05-.06.1-.01.13.18.29.32.48.43.03.02.04 0 .03-.03a1.1 1.1 0 0 0-.4-.55c.1-.43.43-.64.97-.65l.6-.13c.06.1.14.1.26-.02.02-.03.02-.05-.01-.07-.07-.04-.13-.03-.19.02l-.25-.07c-.04-.01-.05-.03-.02-.06a.1.1 0 0 1 .1-.02c.16.03.28.02.37-.03l1.2.2c-.3.04-.59.06-.87.07-.05 0-.08.02-.1.04a.25.25 0 0 0-.03.04c-.03.05-.01.07.04.05.34-.09.66-.08.94 0 .27.2.62.21 1.05.05.17.06.35.06.54 0 .11-.05.13-.12.06-.21a.37.37 0 0 0-.08-.06l.13-.06v.08c0 .05.01.1.06.13.04.03.09.04.14.02l.6-.22c.02-.01.04-.03.05-.06a.27.27 0 0 0 0-.16l.16-.02Z" fill="#996C90"/><path d="m5.16 11.43-.33.33-.31-.58c.08-.06.16-.1.25-.12.05-.01.06 0 .03.05-.02.05-.06.09-.1.1-.04.02-.05.05-.03.1l.13.22c.02.04.05.04.09.01l.36-.29.03.01c.02.01.02.02 0 .03a.45.45 0 0 0-.12.14Z" fill="#E28CF6"/><path d="M5.8 11.1c.07.02.05.09-.04.2-.08.1-.18.16-.29.16-.04 0-.05-.01-.03-.05.07-.15.2-.25.36-.31Z" fill="#FEF8FD"/><path d="m10.12 11.17.08.06c.07.1.05.16-.06.2a.74.74 0 0 1-.54 0l.04-.13c.15-.1.3-.14.48-.13Z" fill="#FDD1ED"/><path d="m9.64 11.3-.04.14c-.43.16-.78.15-1.05-.04l1.09-.1Z" fill="#FED4DA"/><path d="M12.52 11.43a.08.08 0 0 1 0-.05c0-.03.03-.05.06-.05l.04.01.36.32c.08.07.09.15.02.24l-.06.09c-.05.08-.1.07-.15-.02l-.27-.54Z" fill="#FEF8FD"/><path d="M5.53 12.02c.22.17.35.36.4.56.02.03 0 .04-.02.02a1.6 1.6 0 0 1-.49-.43c-.04-.05-.07-.05-.1.01l-.05.15-.32-.39c.32-.1.51-.08.58.08Z" fill="#B7D5F4"/><path d="M8.53 14c-.17 0-.34-.03-.5-.09 0-.06.07-.08.2-.05l.16.03c.14.01.19.05.14.1Z" fill="#FED4DA"/><defs><linearGradient id="a" x1="3.35" y1="3.12" x2="21.9" y2="24.43" gradientUnits="userSpaceOnUse"><stop stop-color="#1A1E21"/><stop offset="1" stop-color="#06060A"/></linearGradient></defs></svg>