<!-- by TradingView --><svg width="18" height="18" viewBox="0 0 18 18" xmlns="http://www.w3.org/2000/svg"><path fill="url(#a)" d="M0 0h18v18H0z"/><path fill-rule="evenodd" d="M15 9A6 6 0 1 1 3 9a6 6 0 0 1 12 0Zm-1 0A5 5 0 1 1 4 9a5 5 0 0 1 10 0ZM7.76 6C6.6 6 6.23 7.1 6.2 7.66l.66.2c-.02-.36.13-1 .85-1s.95.6.96.93v.78h-1.2c-.94 0-1.47.69-1.47 1.6 0 .9.44 1.83 1.46 1.83.82 0 1.32-.7 1.47-1.05.11.35.55 1.05 1.42 1.05 1.12 0 1.5-1.1 1.55-1.66l-.63-.17c-.03.35-.27.97-.96.97-.88 0-.99-1.06-.98-1.71H12v-1C12 7.66 11.57 6 10.46 6c-.9 0-1.22.5-1.39.85A1.42 1.42 0 0 0 7.76 6Zm1.57 2.57h2c.03-.57-.13-1.71-.99-1.71-.85 0-1.03 1.14-1 1.71Zm-.66.86v.39c.01.44-.2 1.32-1.17 1.32-.73 0-.86-.6-.83-.9 0-.27.16-.81.83-.81h1.17Z" fill="#fff"/><defs><linearGradient id="a" x1="3.35" y1="3.12" x2="21.9" y2="24.43" gradientUnits="userSpaceOnUse"><stop stop-color="#1A1E21"/><stop offset="1" stop-color="#06060A"/></linearGradient></defs></svg>