<!-- by TradingView --><svg xmlns="http://www.w3.org/2000/svg" width="18" height="18" viewBox="0 0 18 18"><path fill="url(#ady2fjwoh)" d="M0 0h18v18H0z"/><path d="M9.63 4.17C9.66 4.07 9.6 4 9.5 4H5.64c-.09 0-.17.08-.13.17.12.3.71.2.98.47.16.17.25.4.25.65v7c0 .3-.15.57-.38.7-.27.14-.76.12-.85.34-.04.09.04.17.13.17h6.77c.11 0 .2-.09.23-.2l.36-1.87c.02-.1-.06-.2-.16-.2-.07 0-.11.04-.14.1-.29.58-.64 1.5-1.4 1.5H8.7c-.39 0-.7-.36-.7-.78V5.37c0-.28.14-.57.35-.73.31-.24 1.19-.17 1.28-.47z" fill="#fff"/><defs><linearGradient id="ady2fjwoh" x1="3.35" y1="3.12" x2="21.9" y2="24.43" gradientUnits="userSpaceOnUse"><stop stop-color="#1A1E21"/><stop offset="1" stop-color="#06060A"/></linearGradient></defs></svg>