<!-- by TradingView --><svg width="18" height="18" viewBox="0 0 18 18" xmlns="http://www.w3.org/2000/svg"><path fill="url(#a)" d="M0 0h18v18H0z"/><path d="M10.54 4.5a2.4 2.4 0 0 0-.26.69c0 .03 0 .06.04.08.19.11.4.14.65.1l.04.01.83.39a3.71 3.71 0 0 1 1.2.87v.03l.03.04c.01.06 0 .1 0 .14l-.02.01h-.03a1.68 1.68 0 0 0-.73-.54A6.14 6.14 0 0 0 10.65 6a11.22 11.22 0 0 0-2.54.2c-.37.2-.74.41-1.1.66a2.71 2.71 0 0 1-.05-.64c.01-.15.06-.3.14-.42l.03-.02.03.01.13.13c.04.02.05.01.03-.02a.71.71 0 0 0-.14-.2c-.01 0-.02-.02 0-.03.04-.09.12-.12.23-.09l.04.02c.14.03.26.05.37.05.15 0 .29 0 .4.04l.04-.01c.1-.09.23-.18.4-.3.06-.04.11-.1.15-.14l.1-.2a.6.6 0 0 1 .2-.23v-.03h-.03a.5.5 0 0 0-.27.28c-.06.13-.1.2-.15.22a1.3 1.3 0 0 0-.35.25l-.1.05h-.02v-.02c.22-.2.33-.38.32-.53 0-.01 0-.02-.02-.03h-.04a1.87 1.87 0 0 0-.28.18h-.03c-.01-.01-.02-.02-.01-.04l.14-.26v-.05l-.18-.57.08-.04v-.03a3.28 3.28 0 0 0-.88.38c-.2.12-.33.25-.4.38a11.05 11.05 0 0 0-.52 1.18v-.2a.4.4 0 0 1 .15-.31.22.22 0 0 0 .05-.06l.02-.03c.04-.05.04-.1 0-.18a.33.33 0 0 0-.11-.14.26.26 0 0 0-.35.05c-.04.03-.04.08-.02.15.02.05.04.1.08.13.03.04.02.05-.02.04a.56.56 0 0 1-.26-.16 3.27 3.27 0 0 0-.1-.09h-.05c-.06.09-.12.16-.2.23-.07.06-.19.08-.36.08-.18 0-.29-.03-.33-.1H4.8c-.1.1-.15.2-.17.3h-.01l-.1-.01V5.8a.26.26 0 0 1 .06-.07l.01-.04.59-.6c0 .06.03.1.08.12.05.04.05.06-.02.06-.09 0-.15.02-.18.06 0 .02 0 .02.02.02h.03c.1 0 .18-.02.23-.03a.29.29 0 0 0 .16-.11c.18-.27.39-.48.61-.63l.24-.2a.85.85 0 0 1 .27-.16 3.02 3.02 0 0 1 .47-.13c.39-.1.8-.13 1.21-.06.05 0 .07.02.06.06l.01.03.02.01h.02l.02-.06c.01-.03.03-.04.06-.03l.7.12a12.42 12.42 0 0 1 1.34.33Z" fill="#353247"/><path d="M8.08 4.26a3.07 3.07 0 0 0-.87.43.79.79 0 0 0-.18.18c-.14.22-.22.36-.24.42l-.44 1.09c-.01.02-.03.05-.07.08h-.03V6.4c.06-.1.1-.19.1-.28l.07-.16c.2-.46.34-.8.46-1.01.07-.13.2-.26.39-.38a3.28 3.28 0 0 1 .88-.38c.02 0 .02.02 0 .03l-.07.04Z" fill="#14171A"/><path d="m8.08 4.26.18.57v.05l-.14.27.01.02h.05L8.44 5h.04c.02 0 .02.02.02.03 0 .15-.1.33-.32.53v.02h.02l.1-.05c.12-.11.24-.2.35-.25.05-.02.1-.1.15-.22v-.02a.5.5 0 0 1 .28-.26h.01v.03a.6.6 0 0 0-.2.24.97.97 0 0 1-.09.19.61.61 0 0 1-.16.15c-.16.1-.29.2-.39.29a.04.04 0 0 1-.04 0 1.45 1.45 0 0 0-.4-.03 1.33 1.33 0 0 1-.41-.07c-.11-.03-.2 0-.24.09v.04c.07.06.12.12.15.19.02.04.01.04-.03.02a.58.58 0 0 1-.13-.13h-.06a.94.94 0 0 0-.14.44c-.01.15 0 .36.05.63l-.43.3c-.12.09-.33.28-.62.57a3.14 3.14 0 0 1 0-.31c.02-.06 0-.07-.05-.03a1 1 0 0 0-.04.04c-.08.08-.16.11-.23.11l-.02-.01v-.02c.07-.06.13-.1.2-.13.05-.02.05-.03 0-.04l-.07-.01c-.02 0-.03-.01-.03-.03-.02-.05 0-.1.07-.14.08-.05.14-.1.2-.16.02-.02.02-.04 0-.06a.28.28 0 0 0-.19-.1l-.12.02a.42.42 0 0 1-.07.02c-.04 0-.06-.01-.06-.05l.21-.35v-.02l-.03-.01H5.7l-.01.01-.5.77a.75.75 0 0 0-.44.32h-.03c-.01 0-.02-.01-.01-.03.06-.15.07-.3.03-.45v-.04l.06-.23a30.55 30.55 0 0 0 .24-.54 47.47 47.47 0 0 0 .29-.5.14.14 0 0 0-.09.06 8.01 8.01 0 0 0-.49.85l-.06.16-.16.09c-.03.02-.07.02-.1-.01v-.02c-.03-.03-.03-.05 0-.06a.78.78 0 0 0 .14-.08c.08-.05.07-.07-.03-.06a.35.35 0 0 0-.1.06c-.07.03-.09.02-.07-.04l-.02-.09c0-.01-.01-.02-.03-.01l-.26.14h-.04v-.02l.01-.02c.13-.06.24-.14.34-.22.06-.06.12-.1.18-.12l.3-.09c.08-.03.08-.04-.01-.04-.15 0-.3.04-.45.13h-.03v-.04l.08-.1.04-.03c.01 0 .02 0 .02-.02v-.01l-.01-.01c-.06 0-.1 0-.14-.02l.1-.2c.02-.02.01-.02-.01-.01l-.04.02.2-.25-.01.04a.26.26 0 0 0-.07.07l.01.02.1.02.01-.01c.02-.1.08-.2.18-.3h.04c.04.07.15.1.33.1.17 0 .3-.02.36-.08.08-.07.15-.14.2-.22.02-.02.03-.02.05 0l.1.08c.1.1.18.15.26.16.04 0 .05 0 .02-.04a.34.34 0 0 1-.08-.13c-.02-.07-.02-.12.02-.15.04-.06.1-.09.16-.1.06 0 .13 0 .19.05.05.03.09.08.12.14.03.07.03.13-.01.18l-.02.03a.22.22 0 0 1-.05.06.4.4 0 0 0-.15.3v.2a.75.75 0 0 1-.11.28v.06h.03a.26.26 0 0 0 .07-.08l.44-1.1c.02-.05.1-.2.24-.41a.79.79 0 0 1 .2-.2 3.07 3.07 0 0 1 .85-.41Z" fill="#3A385A"/><path d="M10.97 5.37a.87.87 0 0 1-.65-.1c-.03-.02-.05-.05-.04-.08.05-.24.13-.46.26-.69.16.04.31.1.45.19a5.5 5.5 0 0 1 .5.35 6.49 6.49 0 0 1 1.18 1.12l-.01.01h-.01c-.27-.18-.48-.3-.64-.38-.38-.2-.67-.33-.88-.43a2.14 2.14 0 0 0-.55-.14l.39.15Z" fill="#33303B"/><path d="M11.38 6.14c-.09.02-.23.05-.42.07-.12.01-.28.05-.48.1-.03.01-.04.03-.04.05v.02h.02a6.7 6.7 0 0 1 1.14-.15c.2.01.35.05.46.1.06.04.15.08.27.13a3.17 3.17 0 0 1 .22.1v.02h-.02l-.17-.07-.32-.12a2.26 2.26 0 0 0-1.63.18l-.02.03c0 .01 0 .03.02.04l-.01.04v.03h.04c.15-.03.29-.08.41-.15a.13.13 0 0 1 .1-.02v.03l-.61.34h-.05A.63.63 0 0 0 10 6.7c-.34-.12-.7-.2-1.07-.25l.4-.04c.22.05.45.12.67.2.06.03.14.01.23-.05.02-.01.02-.02.01-.04a.36.36 0 0 0-.15-.13.82.82 0 0 1-.41-.32 7 7 0 0 1 1.7.07Z" fill="#8B59C7"/><path d="m9.57 6.07.13.13c0 .01 0 .02-.01.01l-.4-.1a.54.54 0 0 1 .28-.04Z" fill="#8B59C7"/><path d="M9.68 6.07c.09.14.22.25.4.32.06.02.1.06.16.14v.03c-.1.06-.18.08-.25.06a6.96 6.96 0 0 0-.67-.21 1.5 1.5 0 0 0-1.03.03 1.5 1.5 0 0 0-.27.17c-.16.12-.3.2-.42.25-.14.06-.31.08-.51.07-.03 0-.05.02-.05.04V7c0 .02.01.03.04.03l.44.02c.02 0 .04 0 .05-.02.47-.4.86-.6 1.17-.6l.18.02c.38.04.73.13 1.08.25.12.04.22.11.3.2 0 .02.02.02.04.01l.6-.34c.22-.09.36-.14.45-.13.13 0 .27.02.4.05.31.09.61.2.9.32.07.04.08.03.04-.03l-.04-.03a2.92 2.92 0 0 0-.9-.34c-.48-.08-.94 0-1.39.23a.12.12 0 0 1 0-.04l.01-.03.21-.1a2.26 2.26 0 0 1 1.91.12l.02-.01v-.02l-.01-.02a3.16 3.16 0 0 0-.2-.08 2.58 2.58 0 0 1-.28-.12c-.1-.06-.26-.1-.46-.1-.16-.01-.33 0-.5.02a6.7 6.7 0 0 0-.65.12v-.02c-.01-.02 0-.04.02-.04.2-.06.36-.1.48-.11a4 4 0 0 0 .43-.07c.44.05.85.19 1.22.4.04.03.07.06.08.1 0 .01 0 .03.02.04l.11.08.01.03v.36c0 .05-.01.1-.05.14l-.39.37c-.13.14-.33.26-.6.36-.02 0-.02.02 0 .04.3.24.48.53.57.88l.02.04.11.06.02.01c.15.2.14.38-.03.57v.02c.12.02.2.07.27.16h.03l.13-.04c.1-.06.19-.08.24-.08.09 0 .17.04.24.12a2.98 2.98 0 0 1 .07.1v.08c0 .02.01.03.03.03.18.02.3.11.35.29h.01v-.01l.02.19c0 .01 0 .02.02.03.04.02.06.06.09.13.05.16.04.3-.05.43v.04l.02.04c.02 0 .03.02.03.04l-.01.3-.02.04c-.05.05-.07.1-.07.12a2.84 2.84 0 0 1 0 .22.27.27 0 0 1-.08.16c-.1.08-.22.12-.38.1-.01 0-.03 0-.03.02v.02l-.01.02c-.13.18-.31.24-.54.2-.02 0-.03 0-.04.02-.05.07-.12.12-.23.13-.1.01-.2 0-.3-.04h-.04c-.16.12-.3.1-.45-.05a15.1 15.1 0 0 1-.2.08c-.18.07-.3.08-.37 0a.97.97 0 0 0 .51-.17c.01-.01.02-.02 0-.03a.08.08 0 0 1-.01-.03c-.06-.28-.04-.48.06-.6.04-.07.1-.1.18-.09.06.01.13.04.2.1l.01-.01c.12-.21.28-.26.47-.15h.03c.07-.12.16-.17.28-.16.12 0 .2.07.25.18l.02.02c.01 0 .02 0 .02-.02v-.03c-.02-.16 0-.27.06-.32.1-.08.2-.1.33-.05h.04c.11-.04.19-.1.23-.2.06-.08.06-.2 0-.33 0-.05-.03-.07-.06-.07a.43.43 0 0 0-.2.1c-.05.04-.1.05-.13.05s-.03-.02 0-.04l.25-.18a.08.08 0 0 0 .04-.07.4.4 0 0 0-.2-.33.12.12 0 0 0-.1-.01h-.03l-.02.02-.12.17c-.03.05-.06.08-.1.08-.04 0-.05-.02-.02-.05.05-.05.09-.1.13-.17.05-.08.07-.15.05-.19a.32.32 0 0 0-.1-.15c-.04-.05-.1-.06-.16-.05-.25.07-.35.14-.3.22.02.2 0 .34-.03.46-.03.09-.08.14-.17.16a.36.36 0 0 1-.25-.06.84.84 0 0 1-.35-.41.26.26 0 0 1 .05-.27c.08-.08.18-.16.3-.25.15-.1.2-.24.14-.4 0-.05-.02-.1-.08-.13-.07-.05-.15-.04-.25.02a1.27 1.27 0 0 0-.23.23 3.07 3.07 0 0 1-.6.44.27.27 0 0 0-.12.14.95.95 0 0 0-.04.22c-.04.35-.2.64-.47.89l-.12.13-.06-.02a6.4 6.4 0 0 0 .31-.37c.05-.04.04-.05-.02-.04-.16.04-.32.09-.46.15l-.38.15c-.04.01-.07 0-.1-.02a.3.3 0 0 1 .12-.06.43.43 0 0 0 .1-.04v-.01c-.48.05-.95.08-1.43.08a.18.18 0 0 1-.12-.08h.39a7.56 7.56 0 0 0 1.73-.18c.18-.05.3-.14.37-.27 0-.07 0-.14.04-.2v-.01c0-.01 0-.02-.02-.02-.7.02-1.4-.03-2.08-.14a3.73 3.73 0 0 1-1.84-.7.96.96 0 0 1-.25-.29.37.37 0 0 1-.06-.23c.02-.12.1-.2.28-.25.12-.04.27-.04.43-.02.05 0 .12.03.2.08.2.12.36.21.49.26.38.16.77.27 1.16.33.8.13 1.61.15 2.42.06.04 0 .07-.03.1-.06.1-.1.2-.2.34-.27.01 0 .02-.02.01-.03-.07-.31-.23-.57-.46-.78l-.08-.08a.06.06 0 0 0-.05-.01l-.65.12c-.03 0-.03.01-.01.02.08.06.08.08 0 .08l-.65-.31v-.03h.01a2.97 2.97 0 0 0 1.55-.05.97.97 0 0 0 .3-.18c.12-.14.26-.28.43-.42a.25.25 0 0 0 .08-.11c0-.02 0-.03-.03-.03a289.47 289.47 0 0 0-2.43.03c-.02.01-.02.02 0 .03 0 .01.02.02.01.04l-.04.22c-.03.14-.13.24-.28.3l-.53.05a4.7 4.7 0 0 1-1.18-.04 1.37 1.37 0 0 1-.67-.3c-.04-.03-.02-.04.05-.03.02 0 .04 0 .05.02.12.1.24.16.37.2a6.02 6.02 0 0 0 1.83.02c.14-.02.22-.08.26-.17.03-.1.05-.2.06-.31 0-.01 0-.02-.02-.02l-3.11-.1c-.04 0-.06 0-.07-.03-.04-.03-.05-.07-.05-.1l.19-.12c.17.02.33 0 .49-.08a2.5 2.5 0 0 0 .47-.31c.13-.1.3-.16.53-.19h.32c.36.05.7.13 1.02.25.05.02.1.03.15.02l.02-.01-.01-.02a2.65 2.65 0 0 0-1.22-.38c.14-.03.26-.03.37-.02l.4.1h.01l-.13-.14h.12Z" fill="#FEFDFE"/><path d="M8.91 6.13c.41.03.78.14 1.11.32a46.6 46.6 0 0 1-.8-.2c-.1-.03-.2-.02-.27.02h-.32c0-.02 0-.04-.03-.04-.04-.01-.1 0-.18.01a.67.67 0 0 1-.14.02.38.38 0 0 0-.18.06 15.13 15.13 0 0 0-.47.27c-.02 0-.03-.01-.01-.02l.01-.04.4-.23a.82.82 0 0 1 .25-.08l.63-.09Z" fill="#AE78F2"/><path d="m4.35 6.14.14.02h.02v.02l-.03.02a.07.07 0 0 0-.04.03l-.08.1v.04h.03c.15-.09.3-.13.45-.13.09 0 .1.01 0 .04a5.5 5.5 0 0 0-.29.1.59.59 0 0 0-.18.1c-.1.1-.21.17-.34.23.08-.2.2-.4.32-.57Z" fill="#181F31"/><path d="M8.63 6.27a1.07 1.07 0 0 0-.6.23 2.5 2.5 0 0 1-.4.27.89.89 0 0 1-.5.08l.5-.32-.01.03c-.02.02-.01.03 0 .03l.04-.01c.2-.13.36-.22.44-.26a.38.38 0 0 1 .18-.06c.03 0 .08 0 .13-.02a.56.56 0 0 1 .2-.01c.02 0 .03.01.02.04ZM10.02 6.45a.4.4 0 0 1 .11.06v.02c-.06.02-.1.01-.16 0-.32-.13-.66-.21-1.02-.26.07-.04.16-.05.28-.02l.8.2Z" fill="#8B59C7"/><path d="m10.95 6.57-.01-.03c-.03 0-.06 0-.09.02a1.4 1.4 0 0 1-.41.16l-.03-.01-.01-.03v-.04c.45-.23.9-.3 1.39-.24.17.03.4.11.72.25l.12.06c.02 0 .03.02.06.04l.04.03c.05.06.03.07-.04.03a5.72 5.72 0 0 0-.9-.32 1.7 1.7 0 0 0-.4-.05c-.08 0-.23.04-.44.13Z" fill="#AE78F2"/><path d="m5.54 6.83-.83 1.4-.17.32h-.01v-.01a7.67 7.67 0 0 1 .67-1.3l.49-.78h.01l.02-.01h.03v.03l-.21.35ZM8.23 7.02v.02c0 .02 0 .02-.03.02l-.5-.02c-.02 0-.02 0 0-.02.11-.1.3-.23.56-.38.16-.08.32-.13.49-.13a4.5 4.5 0 0 1 1.32.29c.02 0 .07.05.14.12l.02.04v.11c-.01.04-.04.06-.08.06l-.77-.03c-.01 0-.02 0-.02-.02v-.16l-.01-.05a4.99 4.99 0 0 0-.15-.15.4.4 0 0 0-.17-.11.67.67 0 0 0-.75.2.76.76 0 0 0-.06.16v.05ZM10.9 6.85l-.02.25c0 .02 0 .03-.02.03l-.54-.03h-.01v-.02c.02-.02.03-.04.01-.06l.01-.03c.33-.2.61-.35.84-.44a.77.77 0 0 1 .38-.04c.1.01.24.05.43.1a6.13 6.13 0 0 1 .76.32l-.01.15c0 .01-.01.02-.03.02l-.6-.02h-.01v-.16a.2.2 0 0 0-.06-.13.6.6 0 0 0-.17-.14c-.37-.16-.69-.1-.94.16a.06.06 0 0 0-.02.04Z" fill="#14171A"/><path d="m4.7 6.83-.32 1c0-.06-.02-.1-.07-.13a.1.1 0 0 1-.03-.03c-.06-.08-.15-.12-.28-.11l.01-.83v.01h.05l.26-.13.03.01.02.09c-.02.06 0 .07.06.04a.35.35 0 0 1 .11-.06c.1-.01.1 0 .03.06a.78.78 0 0 1-.13.08c-.04.01-.04.03-.02.06l.01.02c.03.03.06.03.1 0l.16-.08Z" fill="#181F31"/><path d="M8.63 6.72c.04 0 .07 0 .1.02v.03a.13.13 0 0 1-.1.04.14.14 0 0 1-.1-.03l.01-.03a.16.16 0 0 1 .1-.03Z" fill="#14171A"/><path d="m4.8 6.8-.06.23v.04c.04.15.03.3-.03.45l.01.04.03-.01a.75.75 0 0 1 .45-.32l-.05.08a7.67 7.67 0 0 0-.62 1.24h.01l.17-.32c.04.16.05.32.02.48 0 .05.02.1.06.13l.02.04v.2l.16.44v.04a.3.3 0 0 1-.1.06c-.03 0-.04 0-.02-.02l.04-.09c0-.01 0-.02-.02-.01a.26.26 0 0 0-.14.14.67.67 0 0 0-.03.19v.02c0 .06-.06.17-.15.34l-.05.08c0 .01 0 .02.02.02h.03l.3-.46c.04-.07.08-.11.12-.15l.04-.01a46.69 46.69 0 0 1 .17.26c.04.07.1.14.17.2l.22.18-.46.19c-.01 0-.02.01-.02.03l.02.02.18.07c.82.32 1.44.54 1.87.65l.31.1v.03l-1.1-.33a344.8 344.8 0 0 1-1.5-.56c-.07-.05-.15-.06-.24-.02H4.6l-.1-.12a.04.04 0 0 0-.04-.02c-.02 0-.03.02-.04.04a.1.1 0 0 0 0 .05l-.03-.02-.02-.02-.2-.26c0-.02 0-.04.02-.06v.03c.03.02.05 0 .06-.02a15.85 15.85 0 0 0 .21-.4l-.05-.06V9.6l.2-.1a.32.32 0 0 0 .11-.11l.03-.04V9.3a.33.33 0 0 1-.08-.16l-.04-.17a.97.97 0 0 0-.14-.2.07.07 0 0 1-.02-.04.46.46 0 0 1 .1-.35v-.03l-.03-.02c-.04 0-.05-.01-.06-.05l-.03-.39c.1-.29.2-.59.28-.9 0-.04.03-.1.08-.18Z" fill="#181F31"/><path d="M5.54 6.83c0 .04.02.05.06.05.01 0 .04 0 .07-.02.05-.02.1-.02.12-.02.08 0 .14.04.2.1V7l-.22.16c-.06.04-.08.09-.06.14 0 .02.01.03.03.03l.07.01c.05.01.05.02 0 .04a.54.54 0 0 0-.2.13v.02l.02.01c.07 0 .15-.03.23-.1a1 1 0 0 1 .04-.05c.05-.04.07-.03.05.03l-.01.1v.2a.82.82 0 0 0-.24.83c.07.28.16.5.27.66.1.16.25.29.41.4l.5.31c.47.26.84.48 1.12.65.15.1.37.25.65.48l.09.08c.02.05.05.09.1.12l.2.26c0 .02 0 .03-.02.03-.16.02-.32.02-.48.02a.16.16 0 0 1-.14-.1.22.22 0 0 0-.04-.05c-.1-.1-.2-.12-.32-.1-.1.03-.2.09-.3.18a3.26 3.26 0 0 1-.99-.04c-.02-.1-.13-.19-.32-.27a.11.11 0 0 1-.07-.1l1.1.32h.02v-.02l-.32-.1a1.2 1.2 0 0 0-.3-.2 8.17 8.17 0 0 1-1.51-.95.78.78 0 0 1-.17-.2A46.69 46.69 0 0 0 5 9.66l-.04.01a.58.58 0 0 0-.12.14 7.38 7.38 0 0 1-.31.47h-.02c-.02 0-.02-.01-.02-.02l.05-.08c.1-.17.14-.28.15-.34v-.02c0-.1.02-.15.03-.19.03-.06.07-.1.14-.14.02 0 .03 0 .02.01l-.04.09c-.01.02 0 .02.01.02a.3.3 0 0 0 .1-.06c.02-.01.02-.03.01-.04-.04-.1-.1-.24-.15-.44a.54.54 0 0 1-.01-.2c0-.02 0-.03-.02-.04a.13.13 0 0 1-.06-.13 1.3 1.3 0 0 0-.02-.48l.83-1.4Z" fill="#33303B"/><path d="M11.66 7c.06 0 .1-.05.08-.1-.01-.03-.06-.06-.12-.05-.05.01-.09.06-.08.1.01.04.06.06.12.05ZM9.07 6.91v.03l-.02.01a.18.18 0 0 1-.22 0l-.01-.01v-.01h.01a.18.18 0 0 1 .21-.05l.02.01v.02Z" fill="#14171A"/><path d="M6.95 6.97c0 .03.01.07.05.1-.26.23-.5.46-.73.7a.27.27 0 0 0-.07.14v.16a3.87 3.87 0 0 0 .13.77c.15.4.43.72.84.96l.83.5.47.29c.15.1.3.2.47.29h-.39a18.01 18.01 0 0 0-.53-.38l-1.3-.75c-.4-.23-.67-.49-.8-.78a1.5 1.5 0 0 1-.15-.51c0-.02 0-.02.03-.01l.02.05v.01c-.03.05-.05.03-.06-.04-.03-.2-.02-.34.05-.44.06-.1.17-.23.31-.39.19-.2.46-.42.83-.67Z" fill="#8B59C7"/><path d="M11.31 7.07c.05.01.1 0 .1-.03 0-.02-.03-.05-.07-.06-.05-.01-.1 0-.1.03s.03.05.07.06ZM8.64 7.07c.04 0 .07-.02.07-.04S8.67 7 8.63 7s-.08.03-.07.05c0 .02.04.03.08.02Z" fill="#14171A"/><path d="M7.58 7.5h-.01v.04a.9.9 0 0 0 .45.29c.35.1.73.16 1.15.17-.2.1-.38.2-.54.26-.04.01-.06.03-.07.06l-.14.05c-.03.03-.03.04.02.03a1.4 1.4 0 0 0 .44-.11c.38-.13.74-.3 1.08-.52.15-.05.25-.15.28-.29l.04-.22c0-.01 0-.03-.02-.04V7.2h.04l2.4-.03c.03 0 .03 0 .03.03a.25.25 0 0 1-.08.11c-.17.15-.31.28-.43.42a.97.97 0 0 1-.3.17c-.3.13-.65.2-1.02.23-.02 0-.05 0-.09-.02a6.06 6.06 0 0 0-.43-.16l-.02.01v.03l.66.31c0 .04.04.07.11.1.02 0 .03 0 .04-.02v-.02c-.01-.03 0-.06.03-.06l.6-.13c.23.2.39.47.46.78l-.01.03c-.13.07-.25.16-.34.27a.14.14 0 0 1-.1.06c-.8.09-1.61.07-2.42-.06-.4-.06-.78-.17-1.16-.33a3.73 3.73 0 0 1-.49-.26.57.57 0 0 0-.2-.08c-.16-.02-.3-.02-.43.02-.17.04-.26.13-.28.25 0 .07.01.15.06.23.06.11.15.2.25.29 0 .06.04.12.15.2.24.15.46.27.66.35.79.32 1.62.5 2.49.5l.6.02c-.06.13-.19.22-.37.27a7.58 7.58 0 0 1-1.73.18 6.08 6.08 0 0 1-.47-.3L8 10.3l-.84-.48c-.4-.25-.68-.57-.84-.97a3.87 3.87 0 0 1-.13-.92c0-.06.03-.1.07-.14.23-.25.47-.48.73-.7 0 .02.03.03.07.03a127.05 127.05 0 0 1 3.13.1c0 .12-.03.22-.06.32s-.12.15-.25.17a6.02 6.02 0 0 1-1.84-.02c-.13-.04-.25-.1-.37-.2a.09.09 0 0 0-.05-.02c-.07 0-.09 0-.05.04Z" fill="#AE78F2"/><path d="M7.58 7.5c.2.16.43.26.67.3.43.05.82.06 1.18.02l.53-.05a5.53 5.53 0 0 1-1.52.63c-.05 0-.05 0-.02-.03a.33.33 0 0 1 .14-.05h.1a49.74 49.74 0 0 0 1.01-.45c.02-.06 0-.07-.06-.05L9.17 8a4.8 4.8 0 0 1-1.15-.17.9.9 0 0 1-.46-.3V7.5h.02Z" fill="#8B59C7"/><path d="M4 7.56c.13 0 .22.03.28.11l.03.03c.05.03.08.07.07.14l-.06.14c-.01.02-.02.02-.03 0a.33.33 0 0 0-.14-.12H4.1c-.02 0-.03.02-.03.03l.01.02.02.04c.05.25.05.5 0 .71v.05l.01.03c0 .02 0 .02.02 0a.33.33 0 0 0 .03-.02c.04-.09.06-.08.06 0v.1c-.01.12 0 .2.02.26.02.03.03.08.03.16 0 .01 0 .03-.02.04l-.15.08c-.02 0-.03 0-.03-.02l-.01-.21c0-.1 0-.2-.02-.25A.67.67 0 0 1 4 8.7V7.56Z" fill="#353247"/><path d="M8.56 8.32c0-.03.03-.05.06-.06.17-.07.35-.15.55-.26l.44-.18c.06-.02.08 0 .06.05l-.05.03-.96.42h-.1Z" fill="#FEFDFE"/><path d="m4.18 10.08.1-.2a.52.52 0 0 0 .04-.21c0-.07 0-.13.02-.2l.05-.18a.35.35 0 0 0 0-.2.97.97 0 0 1-.03-.2v-.8c0-.05.03-.12.08-.2l.03.38c0 .04.03.05.06.05.01 0 .02 0 .03.02v.03a.46.46 0 0 0-.1.35l.02.04.14.2.04.17c0 .06.03.11.08.16v.05l-.03.04a.32.32 0 0 1-.1.1l-.2.11c-.02.02-.02.03-.01.04l.05.06c0 .02 0 .05-.02.08l-.19.32c-.01.03-.03.03-.07.02l.01-.03Z" fill="#3A385A"/><path d="m11.8 8.16-.6.13c-.03 0-.04.03-.03.06v.02c0 .02-.02.02-.04.02-.07-.03-.11-.06-.12-.1.08 0 .08-.02 0-.08-.02-.01-.02-.02 0-.02l.66-.12.05.01.08.08Z" fill="#8B59C7"/><path d="M11.3 9.69h-.46a8.17 8.17 0 0 1-2.17-.27 6.44 6.44 0 0 1-1.2-.44.1.1 0 0 0-.06.05c.06.06.1.1.16.12a5 5 0 0 0 1.23.46 9.4 9.4 0 0 0 2.35.22v.03a.52.52 0 0 0-.06.2c-.61.02-1.22-.02-1.83-.1a5.9 5.9 0 0 1-1.05-.22 3.25 3.25 0 0 1-1.08-.6.52.52 0 0 1-.1-.14.38.38 0 0 1-.03-.18c0-.01 0-.02-.02-.02-.03 0-.04-.01-.04-.03a.69.69 0 0 1 .53-.14c.1.01.21.07.36.16l.18.1c.48.22.97.37 1.49.44a9.8 9.8 0 0 0 2.24.06l-.44.3Z" fill="#38C2FD"/><path d="M6.94 8.76c0 .03 0 .04.04.04.02 0 .02 0 .02.02 0 .07 0 .13.02.18l.11.14c.05.05.1.1.15.13.26.2.58.36.93.47.3.1.65.17 1.05.22.6.08 1.22.12 1.83.1.01.05 0 .07-.05.07a11.33 11.33 0 0 1-2.45-.21c-.37-.09-.7-.2-.99-.34a1.39 1.39 0 0 1-.66-.6c-.03-.06-.03-.13 0-.22Z" fill="#0183C5"/><path d="M12.5 9.2a.52.52 0 0 1-.19.32l-.33.25c-.11.09-.12.22-.02.4.07.14.16.27.28.39.12.12.25.16.39.13.07-.01.14-.07.19-.16.1-.19.1-.38 0-.56-.06-.08.04-.16.3-.22.05-.01.1 0 .16.05.04.04.08.1.1.15 0 .04-.01.1-.06.2a.96.96 0 0 1-.13.16c-.03.03-.02.04.03.04.03 0 .06-.02.1-.07.07 0 .14-.06.2-.15 0-.02 0-.03-.02-.04h-.02c.04-.01.08-.01.1.01.13.08.2.2.2.33 0 .03-.01.05-.04.07l-.26.18c-.02.02-.02.03.01.04.04 0 .08-.01.13-.04.05 0 .1 0 .16-.02h.05c.04.01.06 0 .05-.02.06.14.06.25 0 .33a.55.55 0 0 1-.39.08.6.6 0 0 0-.15 0 .14.14 0 0 0-.1.07 3.4 3.4 0 0 0-.1.19h-.02c-.07-.09-.16-.1-.25-.07a.78.78 0 0 0-.22.16c-.01.02-.03.02-.04 0-.07-.07-.16-.1-.27-.05-.09.04-.16.1-.21.19-.01.01-.02.02-.04 0a.3.3 0 0 0-.29-.04.45.45 0 0 0-.23.18l-.01.04c0 .03-.02.06-.05.08l-.01.02v.1c0 .02-.01.03-.03.02-.04 0-.06-.01-.06-.04a1 1 0 0 0-.33-.6 6.9 6.9 0 0 0-.37-.3 1.38 1.38 0 0 0 .48-.91c0-.09.02-.15.03-.19a.27.27 0 0 1 .12-.15 3.07 3.07 0 0 0 .83-.66c.1-.06.18-.07.25-.03.06.04.08.1.08.15Z" fill="#AE78F2"/><path d="M12.5 9.2c.06.16.01.3-.14.4-.12.09-.22.17-.3.25a.26.26 0 0 0-.05.27c.08.18.2.31.35.4.1.06.18.08.25.07.09-.02.14-.07.17-.16.04-.12.05-.27.04-.46.1.18.1.37 0 .57-.05.08-.11.14-.2.15-.13.03-.26-.01-.38-.13a1.58 1.58 0 0 1-.28-.38c-.1-.19-.09-.32.02-.4l.34-.26c.09-.07.15-.18.18-.31ZM11.04 10.43l-.6-.02a6.76 6.76 0 0 1-2.49-.5c-.2-.08-.42-.2-.66-.36-.1-.07-.16-.13-.15-.2.41.35 1.03.59 1.84.71a12.51 12.51 0 0 0 2.1.16v.02a.3.3 0 0 0-.04.2Z" fill="#8B59C7"/><path d="m12.44 9.7-.18.15c-.11.08-.14.17-.1.27.04.08.1.15.18.22.1.1.19.12.26.09.02 0 .02-.02.03-.03.01-.09.04-.14.1-.17a.3.3 0 0 1-.09.27.06.06 0 0 1-.04.02c-.15 0-.3-.09-.44-.3a.3.3 0 0 1-.06-.25c.03-.14.14-.22.34-.26Z" fill="#8B59C7"/><path d="M12.72 10.23c-.05.03-.08.08-.1.17 0 .01 0 .02-.02.03-.07.03-.16 0-.26-.09a.7.7 0 0 1-.17-.22c-.05-.1-.02-.2.09-.27l.18-.14c.14.01.23.08.26.2.03.1.04.2.02.32Z" fill="#AE78F2"/><path d="M13.48 10.09h.02c.02 0 .03.02.02.04-.06.09-.13.14-.2.15a2.76 2.76 0 0 1 .13-.19h.03Z" fill="#8B59C7"/><path d="M4.37 10.5a.35.35 0 0 0 .02.25c.02.03.03.08.02.14 0 .07.04.12.12.16.07.02.15.03.25.03.13 0 .27 0 .41-.02a5.97 5.97 0 0 0 2.44.53l-.13.16.01.01h.02l.05-.01c.14-.16.25-.27.34-.32.2-.1.34-.08.44.08.03.04.03.1 0 .17-.12.25-.2.5-.25.75 0 .02 0 .02.02.02h.02c.02-.01.03-.03.03-.05.04-.19.08-.35.14-.47.05-.1.08-.2.11-.3 0-.01.01-.02.03-.02.39.02.77-.03 1.16-.14a1.44 1.44 0 0 0 .28-.12c.04-.02.1-.03.16-.03.09 0 .15-.03.2-.08a.09.09 0 0 1 .04-.03.51.51 0 0 1 .4.05c-.02.1-.04.22-.05.38 0 .17-.07.3-.19.41-.07.06-.2.14-.39.23l-.36.2a.08.08 0 0 0-.04.06c0 .03 0 .05.03.07l.12.13c.01.02 0 .02-.01.03l-.52.06.01-.34c0-.02 0-.03-.02-.03h-.03c-.02-.01-.03 0-.03.01v.34l-.88.05c-.28.02-.6-.03-.95-.15a.9.9 0 0 1-.46-.38.04.04 0 0 0-.03-.02.1.1 0 0 0-.05 0l-.02.03-.05.2-.02.01h-.03l-.1-.12a.06.06 0 0 0-.06-.03c-.02 0-.03.01-.05.03l-.18.24-.03.01-.03-.01a.9.9 0 0 0-.4-.32c-.03-.01-.05-.03-.05-.06 0-.02 0-.05.03-.06l.12-.1.02-.02c0-.02 0-.03-.02-.04a.92.92 0 0 0-.63-.16c-.1.01-.14.06-.14.14l.05.2.02.05c0 .02 0 .03-.02.03l-.15.03h-.04c-.18-.14-.3-.25-.36-.33a1.8 1.8 0 0 0-.36-.36.12.12 0 0 1-.06-.07l.15-.1a.9.9 0 0 1 .24-.1l.16-.04c.04-.02.04-.03 0-.04-.12-.02-.3.05-.55.2-.02 0-.02.02-.02.04l-.16-.23.08.09c.05.05.1.05.16 0l.18-.16c.02-.01.02-.02 0-.02l-.1-.02h-.01v-.02l.08-.04c.01 0 .02 0 .02-.02 0-.01 0-.02-.02-.02l-.11-.05c-.03-.01-.04-.03-.04-.05v-.17c.01-.02 0-.03-.02-.03l-.09.01c-.01 0-.02.01 0 .03.03.07.04.12.02.16-.03.09-.05.09-.05 0v-.04c0-.02 0-.03-.02-.03h-.04a.34.34 0 0 1-.12.04C4 11 4 11 4 10.97v-.59l.02-.04.11-.07h.04l.2.24Z" fill="#353247"/><path d="M5.57 10.31c.43.31.86.57 1.28.77.14.06.24.13.31.2a20.62 20.62 0 0 1-2.06-.75l.01-.03.46-.19ZM6.36 11.07c0 .05.03.09.08.1.18.1.3.18.32.28a5.18 5.18 0 0 1-1.28-.33c-.44-.18-.8-.4-1.07-.68a.1.1 0 0 1 0-.05c0-.02.02-.03.04-.04.02 0 .03 0 .04.02l.1.11c.02.01.03.02.04.01.1-.04.17-.03.24.02l.04.02a329.72 329.72 0 0 0 1.46.54ZM4.37 10.5l.19.16a.23.23 0 0 0-.06.22c.02.05.06.08.13.09.02 0 .03-.01.04-.03 0-.05 0-.1-.03-.14v-.03l.03-.01h.01l.51.3a3.9 3.9 0 0 1-.41.02.66.66 0 0 1-.24-.03c-.1-.04-.13-.1-.13-.16s0-.1-.02-.14a.35.35 0 0 1-.02-.24Z" fill="#3A385A"/><path d="M9.88 10.99a17.27 17.27 0 0 1-1.1.07.13.13 0 0 1-.1-.1 13.54 13.54 0 0 0 1.42-.07.43.43 0 0 1-.1.04.3.3 0 0 0-.12.06ZM13.88 10.97a.33.33 0 0 1-.23.2h-.04c-.13-.04-.24-.03-.33.05-.06.05-.08.16-.07.32v.03l-.01.02-.02-.02c-.05-.11-.13-.18-.25-.18-.12-.01-.21.04-.28.16h-.03c-.19-.1-.35-.06-.47.15h-.01a.45.45 0 0 0-.2-.08.19.19 0 0 0-.18.07c-.1.13-.12.33-.06.61 0 0 0 .02.02.03v.03c-.13.1-.3.15-.52.17a.92.92 0 0 0 .04-.4c-.03-.19-.1-.38-.2-.57a.82.82 0 0 0-.45-.42l.12-.13.37.3a1 1 0 0 1 .33.6c0 .02.02.03.06.04.01 0 .02 0 .02-.03v-.1l.02-.02c.03-.02.05-.05.05-.08v-.04a.45.45 0 0 1 .24-.18.3.3 0 0 1 .3.05h.03a.44.44 0 0 1 .21-.2c.11-.04.2-.02.27.05.01.02.03.02.04 0a.78.78 0 0 1 .22-.16c.1-.03.18-.01.25.06l.02.01.02-.01.07-.18a.14.14 0 0 1 .11-.08.6.6 0 0 1 .15 0l.1.01c.1 0 .19-.02.29-.08Z" fill="#8B59C7"/><path d="M8.84 11.25a.22.22 0 0 1-.1-.12c.03.03.06.03.08.01l.05-.01h.07l.16-.01c.16-.03.3-.04.44-.04.04 0 .1 0 .18-.02l.08-.02c.08-.01.11.02.1.09l.04.1v.03c-.25.16-.52.24-.82.26l-.04-.01-.2-.32c-.02-.02-.03-.02-.05 0-.02.01-.01.03.01.06Z" fill="#181F31"/><path d="m13.71 11.25.01-.03.1-.06.04.01c.03.1.04.19.02.26-.03.11-.05.11-.06 0a.66.66 0 0 0-.1-.18ZM13.61 11.24c-.13.02-.2.05-.2.1v.33c0 .07.02.14.05.2l.1.19c-.14.03-.23-.08-.28-.34-.01-.06 0-.17.02-.34.01-.08.04-.13.09-.15.06-.02.13-.02.22.01Z" fill="#8B59C7"/><path d="M13.56 12.06a2.52 2.52 0 0 1-.1-.19.5.5 0 0 1-.05-.2v-.33c0-.05.07-.08.2-.1.11.14.18.31.19.51 0 .19-.07.3-.24.3Z" fill="#AE78F2"/><path d="m10.83 12.15-.06.19a.45.45 0 0 1-.08.18.83.83 0 0 1-.23.18l-.29.12c-.03 0-.03.03-.01.05l.04.01h.48A5.05 5.05 0 0 1 8.56 14a6.14 6.14 0 0 1-2.75-.95 5.2 5.2 0 0 1-1.46-1.38c.11.08.23.2.36.36.06.08.18.19.36.32 0 .01.02.02.04.01l.15-.02c.02 0 .02-.02.02-.03l-.02-.06a.63.63 0 0 1-.05-.2c0-.08.05-.13.14-.14.23-.02.44.03.63.17.01 0 .02.01.02.03 0 .01 0 .02-.02.03l-.12.09-.03.06c0 .03.02.05.05.06.17.07.3.18.4.32l.03.01.03-.01.18-.24a.06.06 0 0 1 .05-.02c.03 0 .04 0 .06.02l.1.11c.01.01.02.02.03.01.01 0 .02 0 .02-.02l.05-.19c0-.01 0-.02.02-.03a.1.1 0 0 1 .05 0c.01 0 .03 0 .03.02.14.2.3.33.46.38.36.12.67.17.95.16l.87-.05v.04c0 .02 0 .03.02.03a.1.1 0 0 0 .04 0l.02-.03v-.03l.52-.06c.02 0 .02-.01 0-.03l-.11-.13a.08.08 0 0 1-.03-.07c0-.02.02-.04.04-.05.07-.06.2-.13.36-.2.2-.1.32-.17.4-.24.1-.1.17-.24.18-.4 0-.16.03-.3.05-.4a1.25 1.25 0 0 1 .39 1.35.1.1 0 0 1-.07.07H11c-.03.01-.04 0-.03-.03a.5.5 0 0 0 .01-.2 17.31 17.31 0 0 0-.12-.6.08.08 0 0 0-.05 0c-.02 0-.03 0-.03.03l.05.28Z" fill="#33303B"/><path d="m4.3 11.6-.03-.04c0-.02 0-.03.02-.04.25-.15.43-.22.55-.2.04 0 .04.02 0 .04l-.16.05a.9.9 0 0 0-.24.1l-.15.09Z" fill="#14171A"/><path d="M13.09 12.3a.4.4 0 0 1-.13-.04c-.02-.02-.03-.05-.03-.1 0-.2-.06-.4-.2-.56 0-.07.04-.12.16-.14.08-.02.16.04.24.16a2.2 2.2 0 0 1 .19.47c-.05.12-.12.19-.23.2ZM12.4 12.46l-.11-.82c.13-.13.24-.11.33.05.1.17.13.37.11.59 0 .08-.03.14-.09.17a.43.43 0 0 1-.24.01Z" fill="#AE78F2"/><path d="M12.73 11.6c.14.17.2.35.2.55 0 .06 0 .09.03.1a.4.4 0 0 0 .13.05.31.31 0 0 1-.24.02c-.02 0-.03-.01-.02-.03.01-.2-.02-.4-.1-.57a.14.14 0 0 1 0-.12ZM12.4 12.46a.25.25 0 0 1-.11-.04l-.02-.03a.99.99 0 0 0 .01-.3l-.01-.06a.96.96 0 0 1-.05-.2c0-.07.02-.14.07-.19l.1.82ZM12.06 11.74c-.13 0-.2.01-.21.06a.62.62 0 0 0 .06.52c.02.04.07.07.16.09l.04-.01.03-.01h.02c.02 0 .03.01.02.04-.05.08-.14.1-.25.05-.1-.04-.15-.15-.17-.33a.95.95 0 0 1 .04-.38c.01-.04.05-.07.11-.08.04 0 .09 0 .15.05Z" fill="#8B59C7"/><path d="M12.18 12.43c0-.03 0-.04-.03-.05h-.02l-.02.02a.05.05 0 0 1-.04 0c-.09-.01-.14-.04-.16-.08a.62.62 0 0 1-.06-.52c.01-.05.08-.07.2-.06.13.18.17.41.13.69Z" fill="#AE78F2"/><path d="M10.83 12.15c.05.2.06.4.02.6l.02.02c.02.01.02.02 0 .02l-.19.09h-.48l-.04-.01c-.02-.03-.02-.04.01-.05l.29-.12c.09-.05.17-.11.23-.18.03-.04.06-.1.08-.18l.06-.19Z" fill="#181F31"/><path d="M9.3 12.83v.03l-.03.02a.1.1 0 0 1-.04 0c-.02 0-.03 0-.02-.02v-.05l.01-.34c0-.01.01-.02.03-.02h.03l.02.04v.34Z" fill="#14171A"/><defs><linearGradient id="a" x1="3.35" y1="3.12" x2="21.9" y2="24.43" gradientUnits="userSpaceOnUse"><stop stop-color="#1A1E21"/><stop offset="1" stop-color="#06060A"/></linearGradient></defs></svg>