<!-- by TradingView --><svg width="18" height="18" viewBox="0 0 18 18" xmlns="http://www.w3.org/2000/svg"><path fill="#F0F3FA" d="M0 0h18v18H0z"/><path d="M9.45 4c.13.02.26.08.35.18l4.02 4.39c.18.2.22.41.14.65a.75.75 0 0 1-.16.23l-3.99 4.37a.5.5 0 0 1-.37.17.03.03 0 0 1-.01-.01V4.04c0-.02 0-.03.02-.03Z" fill="#6667AA"/><path d="M8.57 5.86a.79.79 0 0 0-.37.12 5337.75 5337.75 0 0 0-3.03 2.1l.02.02a1739.45 1739.45 0 0 0 1.3.9v.02h-.02a90.43 90.43 0 0 1-1.28.91.04.04 0 0 0 0 .03l.01.01c1 .7 2 1.38 3 2.06.09.06.21.1.37.12v1.83a.03.03 0 0 1-.01.02h-.01a.7.7 0 0 1-.42-.15 1150.22 1150.22 0 0 0-4.03-2.77c-.16-.13-.1-.35.05-.46a207.78 207.78 0 0 1 .98-.7l-.93-.63c-.14-.1-.26-.23-.16-.42.02-.05.07-.1.14-.14a1097.26 1097.26 0 0 1 .95-.67l-.98-.68c-.18-.12-.2-.36-.02-.49l4.01-2.74A.7.7 0 0 1 8.55 4h.01v.02h.01v1.84Z" fill="#B3B3D5"/><path d="M8.57 5.86v1.87a.64.64 0 0 0-.35.1A284.08 284.08 0 0 0 6.55 9v.02l.02.02 1.57 1.08c.06.04.16.1.21.1l.22.06v1.87a.84.84 0 0 1-.37-.12 8268.63 8268.63 0 0 1-3.01-2.08v-.03A90.3 90.3 0 0 0 6.5 9V9l-.02-.02a1730.08 1730.08 0 0 1-1.3-.9l.01-.02L8.2 5.98c.1-.07.22-.1.37-.12Z" fill="#8B8DC0"/><path d="M8.57 7.73v2.55a4.1 4.1 0 0 0-.22-.05.78.78 0 0 1-.21-.11A1682.67 1682.67 0 0 0 6.55 9V9l.02-.02 1.65-1.13c.1-.07.21-.1.35-.1Z" fill="#787AB5"/></svg>