<!-- by TradingView --><svg width="18" height="18" viewBox="0 0 18 18" xmlns="http://www.w3.org/2000/svg"><path fill="url(#adkevvvyf)" d="M0 0h18v18H0z"/><path d="M5.43 13.98a.17.17 0 0 1-.22-.04l-.18-.24c-.05-.07-.03-.15.03-.2.61-.42 1.11-.9 1.5-1.4a4.9 4.9 0 0 0 0-6.2c-.39-.5-.89-.98-1.5-1.4-.06-.05-.08-.13-.03-.2l.18-.24a.17.17 0 0 1 .22-.04l8.23 4.44c.45.25.45.83 0 1.08l-8.23 4.44Z" fill="url(#bdkevvvyf)"/><defs><linearGradient id="adkevvvyf" x1="3.35" y1="3.12" x2="21.9" y2="24.43" gradientUnits="userSpaceOnUse"><stop stop-color="#1A1E21"/><stop offset="1" stop-color="#06060A"/></linearGradient><linearGradient id="bdkevvvyf" x1="5.67" y1="8.43" x2="13.53" y2="8.43" gradientUnits="userSpaceOnUse"><stop stop-color="#3E68C7"/><stop offset="1" stop-color="#3768D9"/></linearGradient></defs></svg>