<!-- by TradingView --><svg width="18" height="18" viewBox="0 0 18 18" xmlns="http://www.w3.org/2000/svg"><path fill="url(#a)" d="M0 0h18v18H0z"/><path d="m10.62 4.27-.1.08a4.89 4.89 0 1 0-2.32 9.48l.04.11a5.03 5.03 0 0 1-3.3-7.85 5.03 5.03 0 0 1 5.68-1.82Z" fill="#8C5F13"/><path d="M10.52 4.35c.3.1.61.23.9.4.24.15.48.3.71.48.03.02.06 0 .1-.04a5 5 0 0 1 1.76 3.61v-.06c0-.01 0-.02-.02-.01h-.05c-.01 0-.02.01-.02.03-.01.21-.01.45-.03.64a4.86 4.86 0 0 1-1.01 2.6l-.65-.66a.03.03 0 0 0-.04 0 13.83 13.83 0 0 1-.42.52l-.37.3a3.27 3.27 0 0 1-.73.45.04.04 0 0 0 0 .03l.49.76a4.86 4.86 0 0 1-3.69.24 14.88 14.88 0 0 1-1.11-1.72 3.95 3.95 0 0 0 4.03.78l-.01-.03c-.03-.01-.04-.03-.03-.04l.11-.05a3.9 3.9 0 0 0 1.82-1.49l.1-.14c.04 0 .08-.02.1-.05a4.44 4.44 0 0 0 .49-1.8 3.95 3.95 0 0 0-5.98-3.48 6.3 6.3 0 0 0-.55-.76 4.82 4.82 0 0 1 4.1-.51Z" fill="#FFD374"/><path d="M12.23 5.19c-.04.04-.07.06-.1.04a7.96 7.96 0 0 0-.71-.48c-.29-.17-.6-.3-.9-.4l.1-.08.16.06c.54.2 1.02.49 1.45.86Z" fill="#BA8942"/><path d="M6.42 4.86a16.8 16.8 0 0 1 .54.76c-.28.17-.53.37-.76.6a6.05 6.05 0 0 1-.62-.7c.26-.25.54-.47.84-.66Z" fill="#FFDFB0"/><path d="M12.89 9.62h-.03c-.02 0-.03 0-.02-.02 0-.15.02-.26.03-.35a3.84 3.84 0 1 0-7.47.98 3.86 3.86 0 0 0 2.7 2.5l.03.04c.03.05.03.08.01.09a3.95 3.95 0 1 1 4.75-3.24Z" fill="#663A0D"/><path d="M12.89 9.62c-.04.22-.1.44-.16.65h-.05c-.03.07-.07.14-.1.24-.06.14-.14.3-.23.44l-.08.14a.55.55 0 0 1-.15-.16 3.7 3.7 0 0 0 .54-2.2 3.63 3.63 0 0 0-1.37-2.54v.03a3.59 3.59 0 0 0-3.85-.42l-.19-.22a3.8 3.8 0 0 1 3.54-.01 3.84 3.84 0 0 1 2.05 4.03c0 .02 0 .03.02.02h.03Z" fill="#B0731A"/><path d="m12.05 10.86-.46-.5V6.89c-.01-.08-.04-.13-.1-.17l-.08-.04a310.33 310.33 0 0 0-1.86.02l-.01.02c0-.02-.01-.03-.03-.03a.27.27 0 0 0-.09.03c-.02 0-.03.03-.03.05-.04 0-.08.04-.13.1-.04-.12-.13-.18-.25-.18l-.78-.01-.7-.78a.05.05 0 0 0-.07-.01l-.1.04-.02-.02c.33-.19.68-.32 1.05-.38l.2-.03.41-.03a3.56 3.56 0 0 1 3.05 5.4Z" fill="#B0731A"/><path d="M5.58 5.52a19.17 19.17 0 0 0 .62.7 3.95 3.95 0 0 0-1.14 3.03.54.54 0 0 1-.06-.12l-.03-.11c-.2-.53-.4-1.08-.58-1.63.25-.72.65-1.34 1.19-1.87Z" fill="#FFD374"/><path d="m7.25 5.58.2.22C7 6 6.62 6.3 6.3 6.69l-.16-.24a3.9 3.9 0 0 1 1.1-.87Z" fill="#E29E3D"/><path d="M8.23 6.67a1139.56 1139.56 0 0 1-1.6.01c-.07 0-.13.1-.18.14v.02a.32.32 0 0 1-.08-.1c.28-.33.61-.6 1-.82l.1-.04a.05.05 0 0 1 .05.01l.7.78Z" fill="#E29E3D"/><path d="m7.34 5.9.02.02a3.5 3.5 0 0 0-1.77 3.6 3.55 3.55 0 0 0 1.22 2.2c0 .02 0 .02-.02.02a3.54 3.54 0 0 1 .55-5.84Z" fill="#8C5F13"/><path d="m12.12 10.93-.18.25c-.28.37-.62.67-1 .9-.02.01-.03 0-.03-.01a3.6 3.6 0 0 0 .37-5.88.03.03 0 0 1 .02 0h.02a3.63 3.63 0 0 1 .8 4.74Z" fill="#663A0D"/><path d="m6.15 6.45.16.24-.33.45a3.6 3.6 0 0 0 1.86 5.24h.02v-.02c-.4-.15-.75-.35-1.07-.62.01 0 .02 0 .02-.02l-.01-.02a3.55 3.55 0 0 1-.43-4.95l.08.1h.02-.01v.01a139.04 139.04 0 0 0 0 1.67h.02c-.02.02-.01.05 0 .07a.5.5 0 0 0 .07.05 928.4 928.4 0 0 1 .85.02l.06.03h.02a.12.12 0 0 1-.06.02 149.76 149.76 0 0 1-.88.88c-.05.05-.08.1-.09.17a89.05 89.05 0 0 0 .03 1.36c.04.09.11.13.2.13h1.3c.16 0 .26-.15.36-.25a231.13 231.13 0 0 1 .62-.58l.28.4v.01h.02c.01.09 0 .22.03.3 0 .01.01.02.03.02v.03a.3.3 0 0 0 .23.08l.74 1.05a.13.13 0 0 0-.07.03v.02c0 .02.02.02.04.01.22-.08.44-.19.65-.31 0 .01 0 .02.02.02a2.9 2.9 0 0 1-.58.3.03.03 0 0 0 0 .02l.1.14v.03l-.12.05a4.13 4.13 0 0 1-1.46.21c-.17 0-.37-.03-.52-.04-.06 0-.12-.03-.18-.04h-.04l-.03-.02a3.86 3.86 0 0 1-1.95-6.29Z" fill="#B0731A"/><path d="m8.23 6.67.78.01.04.13.02.02h.06a.07.07 0 0 1 .06.05l.03.1h.01l.03-.12c.05-.06.1-.1.13-.1l.06.1c0 .02.01.02.02.01l.06-.04.01-.02v-.1l.01-.02.02-.02h1.84l.09.04-.06.1v.03c.03 0 .05.02.06.04h.09v3.49a63.43 63.43 0 0 0-.02.73l-.07-.02a54.7 54.7 0 0 1 0-.84c0-.1-.13-.14-.15-.24V8a26.85 26.85 0 0 0-.01-1.1H9.58c-.03 0-.06.01-.1.06l-.46.46a.05.05 0 0 1-.07 0l-.17-.16a.04.04 0 0 1 0-.06l.2-.2a.28.28 0 0 0 .08-.08v-.02h-.61c-.03-.06-.08-.1-.14-.1H6.69l-.06-.13h.01l1.59-.01Z" fill="#663A0D"/><path d="M9.54 6.71v.1l-.01.02-.06.04h-.02l-.06-.11c0-.02 0-.04.03-.05a.27.27 0 0 1 .09-.03c.02 0 .03 0 .03.03ZM11.6 6.88h-.1a.17.17 0 0 0-.05-.04c-.01 0-.02-.02-.01-.03l.06-.1c.05.04.08.1.1.17Z" fill="#FFD374"/><path d="M8.45 6.9a238.74 238.74 0 0 0-1.76.04v.02l.01.01.04.04.01.02v1.31a.03.03 0 0 0 .03.03h.7c.05 0 .08-.02.1-.06l1.1-1.08.19-.18C8.9 7 8.93 7 8.97 7l-.19.2a.04.04 0 0 0 0 .06l.17.16a.05.05 0 0 0 .07 0l.47-.46.01.04v.02l-.53.53-1.16 1.17-.02.01-.1.03V8.7a.32.32 0 0 0-.07-.06c.02-.03.02-.06.01-.08 0-.02-.02-.03-.03-.03a.2.2 0 0 1-.07 0c.02-.07-.02-.11-.1-.1a30.14 30.14 0 0 1-.72-.02.05.05 0 0 1-.02-.04V7.3c0-.05-.02-.1-.06-.16v-.02l-.01-.16.02-.04V6.9a.17.17 0 0 0 .05-.07H8.3c.06 0 .1.03.14.09Z" fill="#B0731A"/><path d="m6.47 6.85.15.1v.16l.01.02c.04.06.06.11.06.16a153.69 153.69 0 0 1 .02 1.13.05.05 0 0 0 .03.01h.7c.07 0 .1.04.1.1h-.86l-.05-.05H6.6l-.12.06-.02-.01V8.5a139.04 139.04 0 0 1 0-1.66Z" fill="#663A0D"/><path d="M8.98 7c-.05 0-.08.01-.11.05l-.19.18v-.06c-.03-.04-.06-.04-.1 0a5775.76 5775.76 0 0 1-1.1 1.1l.01.04c.03.03.06.04.1 0-.03.04-.06.06-.1.06a100.35 100.35 0 0 0-.73-.01V7.28l.07.08a.01.01 0 0 0 .01 0 .01.01 0 0 0 0-.01v-.2c0-.06.04-.08.1-.08a253.66 253.66 0 0 0 1.44 0c.18.02.22-.02.1-.09h.23c.11 0 .2-.01.27-.06h.08v.01a.28.28 0 0 1-.08.08ZM9.58 6.91v.05l.02.01h.44a.2.2 0 0 1-.07.02l-.01.02v.02c0 .01 0 .02.02.02H10l-.33.02a.17.17 0 0 0-.12.06l-.5.5c.02-.02.01-.04 0-.05a.18.18 0 0 0-.09-.02l.53-.53v-.02l-.01-.04c.03-.05.06-.06.1-.06Z" fill="#FFD374"/><path d="m11.5 11.08-.1.05H9.57a.14.14 0 0 1-.12-.05 103.72 103.72 0 0 0-.01-1.11c-.04-.05-.09-.06-.15-.03l-.48.5a.31.31 0 0 0-.07-.14h-.03l-.7.7a.1.1 0 0 1-.07.03H6.7a.02.02 0 0 1 0-.02V9.8l.05-.01v1.14a.03.03 0 0 0 .04.03h1.16l.03-.01.83-.82.64-.64c.03-.02.05-.06.1-.06a.03.03 0 0 1 .02.04v1.49h1.71c.02 0 .03 0 .03-.03V7.01a.04.04 0 0 0-.04-.03H9.6l-.01-.02V6.9h1.75l.01.02a27.03 27.03 0 0 1 0 1.2v.17a595.54 595.54 0 0 0 0 1.7c.02.1.16.13.16.24a43.35 43.35 0 0 1 0 .84Z" fill="#B0731A"/><path d="M11.31 7.84v.07a.04.04 0 0 1-.05.04h-.02c-.05-.03-.06-.06-.06-.11a49.4 49.4 0 0 1-.01-.76h-1.04l-.12-.03h-.03c-.02 0-.02 0-.02-.02v-.02L9.97 7a.2.2 0 0 0 .07-.02h1.23a.04.04 0 0 1 .03.04l.01.83Z" fill="#FFF2DF"/><path d="M10.13 7.09c-.15.02-.3.02-.45.01-.05 0-.08.01-.12.05-.07.1-.17.18-.22.23-.08.1-.17.18-.25.26l-1.2 1.22-1.02 1.01h-.01v-.02l1.01-1.02 1.2-1.2.49-.5a.17.17 0 0 1 .12-.06c.11 0 .22 0 .33-.02.03 0 .07 0 .12.04Z" fill="#E29E3D"/><path d="M11.31 7.84v2.19l-.1-.09a.02.02 0 0 0-.02 0 .01.01 0 0 0 0 .02v.88l-.02.02H9.74l-.01-.01v-.02h1.42v-.02a65.72 65.72 0 0 1 0-.89A429.62 429.62 0 0 0 9.1 7.63l.25-.25c.05-.05.15-.14.22-.23.04-.04.07-.05.13-.05.14.01.3 0 .44-.01l1.04-.01v.01l.01.75c0 .05.01.08.06.1a.04.04 0 0 0 .05 0l.01-.03.01-.07Z" fill="#FFD374"/><path d="M7.82 7.9a10.53 10.53 0 0 1-.38.33v-.01l-.53-.76a.18.18 0 0 1-.04-.1v-.23a.03.03 0 0 1 .03-.02h1.68a429.87 429.87 0 0 1-.77.79ZM11.15 7.11v.73a.01.01 0 0 1-.01.01l-.97-.72V7.1h.97a.01.01 0 0 1 .01.01Z" fill="#FFF2DF"/><path d="M4.39 7.39c.18.55.37 1.1.58 1.63 0 0 0 .04.03.1.02.05.03.09.06.13a3.94 3.94 0 0 0 1.27 2.68c.33.59.7 1.16 1.12 1.71A4.9 4.9 0 0 1 4.4 7.4Z" fill="#E29E3D"/><path d="m8.97 7.56.08.02c.02.01.03.03.02.04l-1.2 1.2a.14.14 0 0 1-.04-.04.03.03 0 0 0-.03-.01H7.8c-.07.05-.13.1-.18.16l-.65.66-.2.2H6.7v-.03l1-1 .09-.02.02-.01 1.16-1.17ZM11.3 10.03v.9c0 .02 0 .03-.02.03h-1.7v-1.5a.03.03 0 0 0-.04-.03c-.04 0-.06.04-.09.06l-.64.64c-.04.01-.07-.01-.08-.06v-.03a40.47 40.47 0 0 1 .9-.89c.03-.04.04-.03.04.02v1.68a.01.01 0 0 0 .01 0h.01V9.1c0-.03 0-.04-.03-.01l-.93.93c-.02.02-.03.01-.04 0l-.8-1.16 1.2-1.22a425.1 425.1 0 0 1 2.06 2.28v.1a65.73 65.73 0 0 0-.02.8h-1.4v.04h1.44l.01-.02v-.89a.02.02 0 0 1 .02-.01l.1.09Z" fill="#FFF2DF"/><path d="M7.53 8.54a.2.2 0 0 0 .07 0l.03.03-.16.1c-.01 0-.02.01-.01.03l-.06-.02h-.03a928.48 928.48 0 0 0-.82-.03c.05-.02.1-.06.13-.12h.85Z" fill="#E29E3D"/><path d="M7.63 8.57v.08c-.03.05-.08.07-.15.05h-.02l.01-.03.16-.1Z" fill="#FFDFB0"/><path d="M7.7 8.77a109.58 109.58 0 0 0-1 1.03V11a.02.02 0 0 0 0 .03h1.25a.1.1 0 0 0 .07-.03l.7-.7h.03c.03.04.06.08.07.13l-.67.68a.07.07 0 0 1-.05.02H6.72c-.07-.05-.05-.07-.06-.13 0-.02-.01-.02-.02-.01l-.17.1-.01-.02v-1.3c0-.07.03-.12.08-.17a149.44 149.44 0 0 0 .88-.88c.02 0 .04 0 .06-.02.07.02.12 0 .14-.05l.07.06v.06Z" fill="#663A0D"/><path d="M14 8.8v.32a5 5 0 0 1-5.76 4.82l-.04-.1.48.05a4.86 4.86 0 0 0 4.18-1.9c.59-.76.93-1.62 1.01-2.6.02-.18.02-.42.03-.63 0-.02 0-.02.02-.03h.05l.02.01v.06Z" fill="#BA8942"/><path d="M7.87 8.83 6.86 9.85v.02h.01l1.01-1.01.81 1.16c.01.01.02.02.04 0l.93-.93c.03-.03.04-.02.04.01v1.75h-.03V9.17c0-.05-.01-.06-.05-.02l-.15.17a40.45 40.45 0 0 0-.74.75c.01.05.04.07.08.06l-.83.82a.05.05 0 0 1-.03.01H6.79a.03.03 0 0 1-.04-.03V9.79c.08-.06.15-.13.21-.2l.65-.66a1.04 1.04 0 0 1 .2-.16.03.03 0 0 1 .01 0l.01.01c0 .02.02.03.04.05Z" fill="#FFD374"/><path d="m9.44 10.02-.15.13a.09.09 0 0 1-.04-.02v-.03l.05-.16c.06-.03.11-.02.15.03v.05Z" fill="#FFDFB0"/><path d="m9.3 9.94-.06.16v.03l.05.02-.02.04a67.06 67.06 0 0 0-.02.65l-.3-.41a.02.02 0 0 0 0-.01.02.02 0 0 0-.02 0l-.6.59c-.1.1-.2.26-.35.26h-1.3l.04-.15H8.1a.08.08 0 0 0 .05-.01l.67-.68.48-.49Z" fill="#E29E3D"/><path d="m9.44 10.02.02.01v1.05l-.14.08c-.02 0-.03 0-.03-.02-.04-.08-.02-.21-.02-.3a67.06 67.06 0 0 1 .02-.69l.15-.13Z" fill="#663A0D"/><path d="M12.73 10.27c-.08.23-.17.44-.28.63-.01.03-.05.05-.1.05.1-.15.17-.3.23-.44a3.15 3.15 0 0 1 .12-.24h.03ZM12.05 10.86l-.12.18a3.55 3.55 0 0 1-1.64 1.28l-.74-1.05h1.82c.09 0 .16-.05.2-.14v-.03c.02 0 .02-.03.02-.06v-.67l.46.5Z" fill="#E29E3D"/><path d="M12.12 10.93c.04.07.09.12.15.16a3.9 3.9 0 0 1-1.83 1.5v-.04a.97.97 0 0 0-.1-.15v-.01a.03.03 0 0 1 .03-.02 3.7 3.7 0 0 0 1.75-1.44Z" fill="#E29E3D"/><path d="m6.72 11.12-.03.14a.22.22 0 0 1-.21-.13v-.04l.16-.1h.02c0 .07 0 .1.06.13Z" fill="#FFD374"/><path d="M9.46 11.08c.02.03.06.05.12.05h1.81c.03 0 .06-.02.11-.05l.07.02v.03c-.04.1-.11.14-.2.14H9.55a.3.3 0 0 1-.23-.08v-.03l.14-.08ZM12.86 12a4.84 4.84 0 0 1-1.72 1.4l-.49-.76a.04.04 0 0 1 0-.05h.02c.26-.12.5-.26.7-.43.17-.13.27-.2.38-.3a14.28 14.28 0 0 0 .45-.52h.01l.65.66Z" fill="#FFDFB0"/><path d="M9.73 12.35v.03H9.7a5.39 5.39 0 0 0-.12.03v.01l.13-.02.02.01v.02l-.01.02-.14.04v.01l.1-.03c.03 0 .04 0 .06.02v.02c0 .02 0 .02-.02.03l-.22.04a.03.03 0 0 1-.03-.03v-.18l.02-.01.19-.03c.02 0 .04 0 .04.02Z" fill="#FFD374"/><path d="m9.37 12.6.08-.03.01-.01v-.18l.02.09v.08a.03.03 0 0 0 .03.03l.22-.04c.02 0 .03-.01.03-.03l-.01-.02a.05.05 0 0 0-.06-.02l-.1.03v-.01l.14-.04.01-.02v-.02h-.02l-.13.02v-.02a6.14 6.14 0 0 1 .14-.03v-.03h.03l.03.16a.05.05 0 0 1-.04.06l-.33.05c-.02 0-.04-.01-.05-.03Z" fill="#8C5F13"/><path d="M8.91 12.43v-.01h-.02v.17l-.03.01H8.8c-.04 0-.06-.02-.07-.06H8.7v.03l-.02.01-.2-.02c-.01 0-.02 0-.02-.02v-.03c0-.01 0-.02-.02-.01l-.09.04-.04-.01a.04.04 0 0 1-.01-.04v-.02l.02-.01c.03-.02.1-.05.15-.1h.05l.2.01c.02 0 .02.01.03.02v.04a.02.02 0 0 0 .03.01v-.03c0-.02.02-.02.03-.02H9.02v.2L9 12.6h-.08v-.17ZM9.47 12.38l-.01.17-.01.02-.08.02h-.01v-.06h-.02c-.03.05-.07.07-.12.07a.06.06 0 0 1-.03-.05l-.02-.01-.02.04c0 .02 0 .02-.02.02h-.07l-.01-.01v-.18l.01-.02c.08-.02.14 0 .17.06a.02.02 0 0 0 .03 0c.05-.08.11-.1.2-.07Z" fill="#FFD374"/><path d="m8.57 12.46.01.09.02-.08v-.08l-.03.07Z" fill="#8C5F13"/><path d="M9.36 12.59c-.06.05-.1.05-.14 0 .05.01.09 0 .12-.06h.02v.06Z" fill="#663A0D"/><path d="M10.33 12.63c-.01.01 0 .03.03.04v.03s0 .02-.02.02a3.77 3.77 0 0 1-2.2.14c.02-.01.02-.04 0-.1h.03l.18.04c.15 0 .35.04.52.04.3 0 .51 0 .65-.02.23-.02.5-.09.81-.2Z" fill="#BA8942"/><defs><linearGradient id="a" x1="3.35" y1="3.12" x2="21.9" y2="24.43" gradientUnits="userSpaceOnUse"><stop stop-color="#1A1E21"/><stop offset="1" stop-color="#06060A"/></linearGradient></defs></svg>