<!-- by TradingView --><svg width="18" height="18" viewBox="0 0 18 18" xmlns="http://www.w3.org/2000/svg"><path fill="url(#a3j2e0mhj)" d="M0 0h18v18H0z"/><path d="M14 9.5H4c.05.53.19 1.03.4 1.5h9.2c.21-.47.35-.97.4-1.5Zm-.98 2.5H4.98a5.03 5.03 0 0 0 8.04 0ZM14 8.5H4c.05-.53.19-1.03.4-1.5h9.2c.21.47.35.97.4 1.5ZM13.02 6a5.03 5.03 0 0 0-8.04 0h8.04Z" fill="#fff"/><defs><linearGradient id="a3j2e0mhj" x1="3.35" y1="3.12" x2="21.9" y2="24.43" gradientUnits="userSpaceOnUse"><stop stop-color="#1A1E21"/><stop offset="1" stop-color="#06060A"/></linearGradient></defs></svg>