<!-- by TradingView --><svg xmlns="http://www.w3.org/2000/svg" width="18" height="18"><path fill="#F0F3FA" d="M0 0h18v18H0z"/><path d="M11.5 5.06a3.42 3.42 0 00-5.45.63l-1.6 2.7c-.08.14-.15.27-.2.41v.01c.16.63.6 2.11 2.48 2.34l.29.02c-.66 0-1.3-.93-.97-1.5l2.1-3.6c.08-.12.45-.43.56-.5.52-.55 1.43-.73 2.8-.51z" fill="url(#aih5bi1rl)"/><path d="M11.5 5.06c.2.2.33.45.47.7l1.59 2.63c.99 1.76.31 4.61-2.63 4.61H10c1.3-1.36 2.48-2.43 2.12-3.05l-.08-.17L9.8 6.02a.96.96 0 00-1.23-.34c.95-1.07 2.24-.76 2.94-.62z" fill="url(#bih5bi1rl)"/><path d="M11.42 12.91c1.26-.49 1.02-2.49.66-3.05.23.5-.21 1.14-.84 1.14H6.8a2.77 2.77 0 01-2.56-2.2c-.9 1.96.72 4.2 3.22 4.2h2.96c.4 0 .7-.03 1-.09z" fill="url(#cih5bi1rl)"/><defs><linearGradient id="aih5bi1rl" x1="8.83" y1="4.27" x2="4.67" y2="10.2" gradientUnits="userSpaceOnUse"><stop stop-color="#FCCA02"/><stop offset="1" stop-color="#AB1414"/></linearGradient><linearGradient id="bih5bi1rl" x1="9.92" y1="4.98" x2="14.25" y2="12.38" gradientUnits="userSpaceOnUse"><stop offset=".05" stop-color="#AA1215"/><stop offset=".93" stop-color="#FDCB02"/></linearGradient><linearGradient id="cih5bi1rl" x1="4" y1="11.48" x2="12.18" y2="11.48" gradientUnits="userSpaceOnUse"><stop offset=".16" stop-color="#FCCA02"/><stop offset="1" stop-color="#AB1414"/></linearGradient></defs></svg>