<!-- by TradingView --><svg width="18" height="18" xmlns="http://www.w3.org/2000/svg"><path fill="url(#paint0_linear)" d="M0 0h18v18H0z"/><path d="M9 13.07a4.07 4.07 0 100-8.14 4.07 4.07 0 000 8.14z" fill="#2C3154"/><path d="M9 2.84c-.074 0-.235.068-.432.458-.185.365-.346.897-.474 1.54C7.84 6.11 7.724 7.708 7.724 9a22.79 22.79 0 00.37 4.164c.133.64.29 1.173.477 1.537l.001.001c.198.392.355.457.428.457.074 0 .235-.067.432-.457.185-.365.346-.897.474-1.539.253-1.274.37-2.872.37-4.163 0-1.287-.113-2.889-.37-4.162-.132-.64-.29-1.175-.477-1.538l-.001-.002C9.23 2.906 9.073 2.84 9 2.84zm-.878.232c.21-.416.497-.731.878-.731.382 0 .665.317.874.73.219.426.387 1.014.522 1.666v.002c.265 1.315.38 2.952.38 4.261 0 1.314-.119 2.946-.38 4.26-.131.661-.304 1.244-.518 1.668-.21.416-.497.731-.878.731-.382 0-.665-.316-.874-.73-.219-.426-.387-1.014-.522-1.666l-.002-.006A23.29 23.29 0 017.224 9c0-1.314.119-2.946.38-4.26.131-.661.304-1.244.518-1.668M7.224 9h.25-.25z" fill="#A3A9D0"/><path d="M3.666 5.918c-.037.067-.055.239.178.602.312.437.68.833 1.092 1.177l.002.002a22.787 22.787 0 003.421 2.407h.001c1.21.702 2.48 1.29 3.796 1.76h.003a6.341 6.341 0 001.567.36c.434.018.571-.082.608-.144.037-.067.055-.239-.178-.602a6.286 6.286 0 00-1.092-1.177l-.002-.002A22.785 22.785 0 009.64 7.894H9.64a22.792 22.792 0 00-3.794-1.759c-.618-.208-1.157-.338-1.567-.36-.438-.02-.576.081-.613.143zm10.884 6.289l.216.126c-.191.328-.607.413-1.07.392h-.012v-.001a6.839 6.839 0 01-1.697-.388 23.292 23.292 0 01-3.877-1.797A23.292 23.292 0 014.615 8.08a6.785 6.785 0 01-1.182-1.275l-.007-.01c-.25-.388-.383-.793-.194-1.126l.002-.002c.191-.328.608-.413 1.07-.392h.002c.477.026 1.068.173 1.702.387l.004.002A23.29 23.29 0 019.89 7.46a23.292 23.292 0 013.496 2.46l-.162.19.16-.192h.001c.447.373.844.802 1.182 1.276l.007.01c.25.388.383.793.194 1.126l-.218-.124z" fill="#A3A9D0"/><path d="M13.726 5.774a6.341 6.341 0 00-1.567.36h-.003a22.79 22.79 0 00-3.796 1.76A22.794 22.794 0 004.94 10.3c-.488.428-.868.833-1.094 1.176-.235.366-.218.538-.18.606.037.062.177.162.608.144a6.342 6.342 0 001.567-.36h.003a22.786 22.786 0 003.796-1.76A22.782 22.782 0 0013.06 7.7c.488-.428.868-.833 1.094-1.176.236-.366.218-.538.18-.606-.037-.062-.177-.162-.608-.144zM3.449 12.207l-.217.124c-.19-.333-.056-.738.195-1.127l.001-.002c.262-.397.68-.837 1.183-1.279l.003-.002A23.29 23.29 0 018.11 7.46a23.29 23.29 0 013.877-1.797 6.842 6.842 0 011.697-.388l.013-.001c.457-.02.878.064 1.07.392v.002c.19.333.057.738-.194 1.127v.002c-.263.397-.68.837-1.184 1.28l-.003.002a23.292 23.292 0 01-3.496 2.46 23.285 23.285 0 01-3.877 1.796 6.84 6.84 0 01-1.697.388l-.013.001c-.457.02-.878-.064-1.07-.392l.216-.126z" fill="#A3A9D0"/><path d="M9 9.814a.814.814 0 100-1.628.814.814 0 000 1.628zM4.32 8.186a.61.61 0 100-1.22.61.61 0 000 1.22zM7.983 13.883a.61.61 0 100-1.22.61.61 0 000 1.22zM12.052 6.558a.61.61 0 100-1.22.61.61 0 000 1.22z" fill="#F0F3FA"/><defs><linearGradient id="paint0_linear" x1="3.349" y1="3.122" x2="21.904" y2="24.434" gradientUnits="userSpaceOnUse"><stop stop-color="#1A1E21"/><stop offset="1" stop-color="#06060A"/></linearGradient></defs></svg>