<!-- by TradingView --><svg width="18" height="18" viewBox="0 0 18 18" xmlns="http://www.w3.org/2000/svg"><path fill="url(#a)" d="M0 0h18v18H0z"/><path d="M7.03 6c.15 0 .25.04.3.13a.7.7 0 0 1 .1.35v1.46c0 .18.06.3.18.35.1.05.24.07.42.05.13-.02.21-.07.27-.15a.7.7 0 0 0 .07-.3l.08-1.42a.8.8 0 0 1 .07-.33c.05-.09.14-.13.28-.14h.39c.22 0 .34.12.36.33l.08 1.54c0 .2.06.33.16.4.07.06.17.08.31.08.13 0 .23-.02.31-.06.1-.06.16-.16.17-.32.02-.33 0-.88 0-1.64 0-.13.08-.22.17-.27a.73.73 0 0 1 .33-.06h3.51c.25 0 .39.13.4.37v.41c0 .28-.16.43-.45.42a2.98 2.98 0 0 0-.71.01.75.75 0 0 0-.53.42.5.5 0 0 0 0 .44c.13.3.38.44.73.46l.47.01a.7.7 0 0 1 .35.07c.1.05.14.15.14.3 0 .1-.01.2-.04.3-.04.13-.16.2-.37.2h-.24c-.24 0-.4 0-.48.03a.93.93 0 0 0-.34.17.72.72 0 0 0-.22.27.55.55 0 0 0-.04.33c.02.12.09.24.19.34.11.12.26.2.44.24.1.02.27.01.5.01h.26c.18 0 .29.12.32.29.04.22.04.44-.01.66a.3.3 0 0 1-.13.2.48.48 0 0 1-.25.05 5972.02 5972.02 0 0 1-4.4 0c-.17 0-.29-.01-.35-.03-.1-.03-.17-.1-.2-.22a32.7 32.7 0 0 0-.13-1.58 1.2 1.2 0 0 0-.1-.43c-.08-.14-.21-.21-.38-.22-.2 0-.33.07-.41.24-.05.1-.09.27-.1.49-.04.36-.06.79-.1 1.28a.7.7 0 0 1-.07.33c-.06.09-.15.13-.29.14h-1.7a.8.8 0 0 1-.33-.05c-.1-.05-.14-.13-.15-.25v-.08c-.01-.24-.04-.4-.08-.5-.06-.15-.2-.23-.4-.25a1.1 1.1 0 0 0-.56.04c-.18.08-.27.24-.29.47v.12c-.01.17-.03.28-.06.35-.06.1-.17.15-.33.15H3.4c-.27 0-.4-.11-.4-.34v-5.3c0-.18.05-.28.17-.33.05-.02.19-.03.4-.03h3.45ZM5.18 8.4c-.24 0-.44.22-.44.49v.22c0 .27.2.5.43.5h.08c.24 0 .44-.23.44-.5V8.9c0-.27-.2-.49-.44-.49h-.07Z" fill="#E0E0E0"/><defs><linearGradient id="a" x1="0" y1="3.6" x2="9" y2="18" gradientUnits="userSpaceOnUse"><stop stop-color="#102329"/><stop offset="1" stop-color="#254750"/></linearGradient></defs></svg>