<!-- by TradingView --><svg xmlns="http://www.w3.org/2000/svg" width="18" height="18"><path fill="url(#aau1eef4o)" d="M0 0h18v18H0z"/><path fill="url(#bau1eef4o)" d="M0 0h18v18H0z"/><path d="M3.46 5.8c.28-.3 3.66 1.14 4.79 2.06.28.22-.47.79-.75.56l-.75-.47-1.21 1.09c-.12.1-.34.32-.49.24-.16-.1-.31-.4-.18-.65.2-.37 1.2-1.15 1.2-1.15-.5-.34-1.55-.67-1.73.43-.12.7-.15 3.54 1.37 2.92 2-.8 3.47-2.47 4.98-3.75 1.13-.96 2.55-2 3.18-1.74 1.13.46 1.52 5.49.68 6.4-.29.3-2.18 0-4.79-1.83-.22-.18.31-.83.61-.7.8.36 2.94 2.08 3.22.93.17-.7 0-3.66-.84-3.43-.46.13-1.08.52-1.69.95-1.31.96-5.36 5.45-7.03 4.77-1.13-.46-1.35-5.79-.57-6.63z" fill="#fff"/><defs><linearGradient id="aau1eef4o" x1="9" y1="0" x2="9" y2="18" gradientUnits="userSpaceOnUse"><stop stop-color="#00D2F7"/><stop offset="1" stop-color="#004CDC"/></linearGradient><linearGradient id="bau1eef4o" x1="18" y1="9" x2="0" y2="9" gradientUnits="userSpaceOnUse"><stop stop-color="#8476F4"/><stop offset=".48" stop-color="#0083EC" stop-opacity="0"/><stop offset="1" stop-color="#8763EF"/></linearGradient></defs></svg>