<!-- by TradingView --><svg width="18" height="18" viewBox="0 0 18 18" xmlns="http://www.w3.org/2000/svg"><path fill="#FFCE4E" d="M0 0h18v18H0z"/><path d="m12.76 4.83.25-.18a.93.93 0 0 1 .32-.13c.18-.05.34 0 .46.12.1.11.17.27.19.47.06.56-.01.95-.21 1.18a.52.52 0 0 1-.47.17 1.09 1.09 0 0 1-.49-.19.11.11 0 0 0-.08-.01c-1.8.32-3.17.8-4.12 1.45A3.73 3.73 0 0 0 7 10.51c-.06.52-.06 1.11.01 1.77.02.2.02.33 0 .42-.05.24-.14.43-.28.58-.16.18-.34.25-.54.21-.1-.02-.23-.09-.4-.21A4.5 4.5 0 0 1 4 9.36 4.73 4.73 0 0 1 6.49 5.5a7.36 7.36 0 0 1 3.06-.86 12.9 12.9 0 0 1 3.21.18Z"/><path d="M11.26 6.25c-.3-.15-.35-.33-.19-.53a.6.6 0 0 1 .2-.12.85.85 0 0 0 .2-.14c.4 0 .82.03 1.25.09a.3.3 0 0 0 .23-.07c.22-.17.37-.39.45-.65.06-.03.11-.02.16.03.03.03.06.07.07.13.1.35.09.7-.04 1.03a.19.19 0 0 1-.13.12c-.07.02-.16.01-.28-.03a.93.93 0 0 1-.25-.14.27.27 0 0 0-.22-.04c-.54.1-1.02.21-1.45.32Z" fill="#B3D020"/><path d="M13.4 4.83c-.08.26-.23.48-.45.65a.3.3 0 0 1-.23.07 8.7 8.7 0 0 0-1.25-.09l-.22-.03c-.2-.11-.26-.27-.2-.46.58.03 1.15.1 1.72.21.05 0 .09 0 .12-.04.13-.14.3-.25.51-.31Z" fill="#798D14"/><path d="M11.05 4.97c-.06.2 0 .35.2.46l-.7.08a.4.4 0 0 0-.05-.25c-.04-.05-.1-.07-.15-.05-.07.02-.1.06-.12.12 0 .04 0 .1.03.2l-.08.03c.02-.1 0-.19-.05-.26-.05-.09-.12-.1-.22-.06a.08.08 0 0 0-.03.05c-.04.1-.03.2.03.33-.88.18-1.68.52-2.41 1.03-.04-.08-.1-.11-.16-.1-.18.06-.36.17-.54.34-.05.05-.08.1-.07.15 0 .06.04.12.1.16a4.1 4.1 0 0 0-1.24 3.33 6 6 0 0 0 .35 1.33c.09.27.12.48.09.63a.18.18 0 0 1-.09.12.66.66 0 0 1-.36.08 3.6 3.6 0 0 1-.87-1.23l.06-1.42c.08-1.09.5-2.03 1.26-2.82A9.43 9.43 0 0 1 8 5.8L9.55 5c.47-.06.97-.07 1.5-.03Z" fill="#E2B013"/><path d="m9.55 5-1.56.8c-.38.2-.76.44-1.14.72-.3.22-.58.45-.82.7a4.43 4.43 0 0 0-1.26 2.82l-.06 1.42a4.2 4.2 0 0 1-.14-3.32c.35-.93.97-1.68 1.85-2.23A6.27 6.27 0 0 1 9.55 5Z" fill="#A2560A"/><path d="M10.18 5.56a.17.17 0 0 1-.06.08.1.1 0 0 1-.09.02.32.32 0 0 1-.12-.04.42.42 0 0 1-.03-.33c0-.02.02-.04.04-.05.09-.05.16-.03.21.06.05.07.07.16.05.26Z"/><path d="m11.25 5.42.22.04a.85.85 0 0 1-.2.13.6.6 0 0 0-.2.13c-.16.2-.1.37.19.53a9.2 9.2 0 0 0-2.62 1.06 4.04 4.04 0 0 0-1.61 1.85c-.2.48-.33 1.02-.37 1.64-.03.48 0 1.04.06 1.68.02.14-.02.3-.13.47-.11.19-.25.26-.4.2a3.11 3.11 0 0 1-.62-.46c.16 0 .28-.03.37-.09a.18.18 0 0 0 .09-.11c.03-.15 0-.36-.1-.63a6 6 0 0 1-.34-1.33A3.89 3.89 0 0 1 6.84 7.2l.62-.37c.04-.02.06-.08.04-.18.73-.5 1.53-.85 2.4-1.04.04.03.09.04.13.05a.1.1 0 0 0 .1-.02.17.17 0 0 0 .05-.08l.08-.03c.02.08.08.13.16.12.07 0 .12-.05.14-.14l.69-.09Z" fill="#FEE819"/><path d="M7.5 6.65c.02.1 0 .16-.04.18l-.62.37c-.07-.04-.1-.1-.11-.16 0-.05.02-.1.07-.16.18-.16.36-.28.54-.33.06-.01.12.02.16.1Z"/></svg>