<!-- by TradingView --><svg width="18" height="18" viewBox="0 0 18 18" xmlns="http://www.w3.org/2000/svg"><path fill="#F0F3FA" d="M0 0h18v18H0z"/><path d="M7.9 3.72c-.2.14-.45.11-.72-.08a.24.24 0 0 1-.1-.14.22.22 0 0 1 .03-.17l.14-.22.14-.1a.09.09 0 0 1 .1 0l.28.13.04.04v.06c-.05.09-.03.15.05.21l.04.04v.05c-.02.07-.02.13 0 .18Z" fill="#3E251E"/><path d="M9.53 5.77v.02c-.06-.07-.12-.1-.18-.1a.1.1 0 0 0-.08.05l-.51.9a.08.08 0 0 0 0 .09c.03.04.08.06.15.07 0 .02 0 .04.02.06l-.17.28a.1.1 0 0 0 0 .09l.01.04.04.02 1.23.57a.06.06 0 0 0 .04 0 .06.06 0 0 0 .03-.02l.18-.31.01-.02a.07.07 0 0 1 .05-.02h.03l.53.25a.1.1 0 0 1 .03.02l.02.03a.08.08 0 0 1 0 .07l-.26.44c-.03.06-.08.08-.15.05l-1.62-.76a.15.15 0 0 0-.11 0c-.1.03-.1.1-.03.18a.4.4 0 0 0 .1.09l.02.03v.04a.3.3 0 0 0-.05.1c-.01.03 0 .06.03.08.03.03.08.05.14.07-.02-.01-.02 0 0 .05a.2.2 0 0 0-.07.12v.04l.04.03.43.2-.58.93c-.03.04-.02.08.03.1.12.05.23.13.32.21.02.03.03.05.01.08l-.33.58-.01.02c-.42.2-.7.51-.84.94-.06.06-.13.07-.2.04l-.23-.11c-.03-.02-.04-.05-.02-.08l.27-.47c.03-.06.01-.1-.05-.14l-.27-.12c-.08-.04-.13-.02-.17.04l-.38.69-.01.01-.02.01H6.9l-.56-.26a.09.09 0 0 0-.06-.01.08.08 0 0 0-.05.03l-.06.1c-.02.04-.05.05-.09.03l-.5-.24a.12.12 0 0 0-.1 0c-.06.02-.09.06-.1.1 0 .05-.02.06-.07.04l-.33-.15c-.05-.03-.06-.06-.03-.11l.14-.26.03-.03a.1.1 0 0 1 .1 0l.3.15a.07.07 0 0 0 .07 0l.02-.03.04-.06a.1.1 0 0 1 .08-.04h.17a.1.1 0 0 0 .08-.05.98.98 0 0 0 .17-.35h.04c.04.07.1.11.17.1a.1.1 0 0 0 .05 0 .1.1 0 0 0 .03-.03l.06-.1c.02-.03.05-.03.09-.02l.1.05c.03.02.06 0 .09-.03l1.07-1.91c.04-.07.1-.08.16-.05l.25.11c.06.03.11.02.15-.04l.13-.23c.03-.06.02-.1-.05-.13l-.3-.14-.03-.02-.01-.02a.06.06 0 0 1 0-.05l.42-.73c.01-.03 0-.06-.02-.08a.17.17 0 0 0-.1-.03l-.03-.01a.07.07 0 0 1-.02-.02.06.06 0 0 1 0-.06l.28-.5c.02-.03 0-.06-.03-.08-.13-.1-.13-.22.02-.37a.13.13 0 0 0 .03-.05.1.1 0 0 0 0-.05.08.08 0 0 0-.06-.07c-.02 0-.04-.02-.05-.05a.14.14 0 0 1-.02-.1c.02-.13-.07-.2-.1-.3l-.25-.76a.13.13 0 0 0-.06-.08l-.24-.15-.02-.02v-.1l.03-.03a.09.09 0 0 1 .08 0l2.58 1.2c.03 0 .04.03.03.07l-.03.1c-.01.02 0 .05.01.07l.1.08.03.03v.04c0 .03-.02.05-.05.07h-.1c-.1-.02-.18.02-.25.11-.02.03-.05.03-.08.02a5.8 5.8 0 0 1-.4-.19c-.08-.04-.14-.06-.18-.05-.07.02-.12.07-.14.16Z" fill="#FECC48"/><path d="m14.7 5.7-.05.34c0 .04-.02.06-.06.06l-.1-.01a.08.08 0 0 0-.09.02c-.02.02-.1.1-.2.25-.1.12-.27.24-.5.33a.09.09 0 0 0-.05.07.3.3 0 0 0 .05.21c-.4.1-.72.06-.96-.11a.1.1 0 0 1-.04-.04.09.09 0 0 1 .02-.1.1.1 0 0 1 .04-.03c.28-.1.58-.15.82-.28.42-.23.63-.58.63-1.06V5.3l.04-.03a.09.09 0 0 1 .09.01c.15.12.27.26.36.41Z" fill="#FDB833"/><path d="M9.53 5.79 8.91 6.8c-.07 0-.12-.03-.15-.07a.08.08 0 0 1 0-.09l.5-.9a.1.1 0 0 1 .1-.05c.05 0 .11.03.17.1Z" fill="#0D0D0E"/><path d="M14.81 5.7c.06.35-.03.61-.28.8l-.83.47a.3.3 0 0 1-.05-.2c0-.04.02-.06.06-.08.22-.1.38-.2.48-.33l.21-.25a.08.08 0 0 1 .09-.02c.04.01.07.02.1.01.04 0 .06-.02.06-.06l.05-.34c.01.04.03.06.05.08.02.01.04-.01.06-.08Z" fill="#A86F28"/><path d="m5.85 9.26.4-.7a.1.1 0 0 1 .03-.04.12.12 0 0 1 .08-.02h.04l.47.23c.09.04.1.1.06.16l-.24.44c-.03.06-.09.08-.16.04l-.29-.13a.07.07 0 0 0-.05 0h-.03l-.01.03c-.06.12-.14.14-.25.08a.08.08 0 0 0-.08 0l-.02.02-.04.07c-.03.05-.08.06-.13.04l-.97-.45A.07.07 0 0 1 4.64 9a.06.06 0 0 1-.01-.03V8.8a.07.07 0 0 0-.04-.06c-.1-.05-.11-.13-.06-.22.09-.14.16-.28.26-.42a.08.08 0 0 1 .05-.03.1.1 0 0 1 .05 0c.1.04.18.02.23-.06.03-.03.06-.04.1-.04.07.01.11.03.13.04a.1.1 0 0 1 .02.12c0 .02-.02.04-.04.06a.18.18 0 0 1-.07.03.22.22 0 0 1-.14-.02.1.1 0 0 0-.1 0L5 8.24l-.28.5c-.02.03-.01.05.03.07l.1.05h.05c.02 0 .04-.01.04-.03l.16-.28c.03-.05.07-.07.13-.05h.04l.04.03a.1.1 0 0 1 .03.03.1.1 0 0 1 0 .1l-.15.26c-.03.05-.02.09.04.11l.05.03c.07.03.12.01.15-.05l.15-.26c.05-.07.12-.07.2 0a.09.09 0 0 1 .02.11l-.15.27a.09.09 0 0 0 0 .07c0 .03.02.05.05.06l.07.03c.03.02.06.01.08-.02Z" fill="#0D0D0E"/><path d="m10.26 8.74-.1.02a.06.06 0 0 0 0-.05c0-.02 0-.03-.03-.04a41.64 41.64 0 0 1-1.06-.47.06.06 0 0 0-.05.03v-.05a.48.48 0 0 1 .12-.16c.03-.02.06-.03.1-.01l.95.45c.04.01.06.04.06.07l.01.21Z" fill="#DF2A2B"/><path d="M10.17 8.76a.2.2 0 0 1-.07.12.09.09 0 0 1-.1 0l-.57-.26-.43-.2a.08.08 0 0 1-.03-.03.07.07 0 0 1-.01-.04.2.2 0 0 1 .06-.12.06.06 0 0 1 .05-.03l.05.01a41.76 41.76 0 0 0 1.05.5v.05Z" fill="#0D0D0E"/><path d="m10.17 8.76.1-.02.03.02c.03.02.05.04.06.07a.1.1 0 0 1 0 .08l-1.3 2.3a.1.1 0 0 1-.08.04c-.04 0-.08 0-.12-.03-.04-.01-.08 0-.1.03l-.03.06c-.02.04-.05.05-.1.04-.12-.05-.22-.02-.29.08-.02.02-.05.03-.08.02-.1-.04-.18-.03-.23.03a1.57 1.57 0 0 1 .85-.96l.33-.58c.02-.03.01-.05-.01-.08-.1-.08-.2-.16-.32-.21-.05-.02-.06-.06-.03-.1l.58-.93.58.26c.03.02.06.02.09 0a.2.2 0 0 0 .07-.12Z" fill="#FDB833"/><path fill-rule="evenodd" d="m7.25 3.11-.14.22a.22.22 0 0 0-.03.17c.02.05.05.1.1.14.27.19.52.22.73.08l3.02 1.4c.03.02.05.04.05.08s0 .1-.02.16c0 .04 0 .06.05.07.1.02.13.1.06.22-.02.03 0 .06.03.08l.54.25c.04.01.05.04.03.07l-.04.13a.1.1 0 0 0 0 .04v.03l.07.03a.1.1 0 0 1 .04 0l.03.03.02.03v.04a.77.77 0 0 1-.15.26c-.05.06-.04.11.04.15l.03.01c.07.03.11.02.15-.04l.6-1.08a.1.1 0 0 1 .06-.05.1.1 0 0 1 .05 0s.02 0 .03.02c.06.04.14 0 .26-.1a.08.08 0 0 1 .1 0c.08.03.14.01.18-.06l.03-.03a.12.12 0 0 1 .08-.03l.05.01.66.31c.03.02.06 0 .07-.02.09-.2.1-.35.03-.46-.07-.1-.05-.2.04-.28l.03-.03c.09-.08.17-.07.23.03l.45.71c-.02.07-.04.1-.06.08a.16.16 0 0 1-.05-.08 1.3 1.3 0 0 0-.36-.4.09.09 0 0 0-.09-.01.08.08 0 0 0-.03.02l-.01.04c0 .48-.2.83-.63 1.06-.15.08-.32.13-.5.18l-.32.1a.1.1 0 0 0-.04.03.1.1 0 0 0-.03.05l.01.05.04.04c.24.17.56.2.96.11l.83-.47a1.27 1.27 0 0 0 .44.24l.02.03.01.03v.03l-.53.93-.02.02h-.02a.08.08 0 0 1-.06 0l-.1-.04c-.03-.02-.07 0-.1.03l-.14.27a.1.1 0 0 1-.06.05l-.09-.01-1.44-.67c-.04-.02-.07-.01-.1.03l-.15.27c-.02.03-.01.06.01.09.03.03.06.05.1.06a.1.1 0 0 1 .02.02.08.08 0 0 1 .02.07v.03l-.16.27c-.01.03 0 .05.02.08.02.02.05.04.1.05.05.02.07.05.04.1l-.28.5c-.02.04-.06.05-.12.03l-.98-.46a.09.09 0 0 0-.07 0 .08.08 0 0 0-.04.03l-1.57 2.78v.03c0 .02.01.02.02.03l.57.26.02.02.02.03a.06.06 0 0 1-.01.05c-.04.06-.04.1 0 .15l.07.12a15.93 15.93 0 0 1 .28.82c.04.08.07.17.07.27l.01.05.04.03a.1.1 0 0 0 .1 0l.15-.1a.1.1 0 0 1 .09 0l.25.11a.1.1 0 0 0 .08 0c.34-.22.66-.23.96-.03.1.06.16.15.2.27.01.04.02.08.04.1.1.3.16.49-.05.8-.08.1-.17.16-.27.15-.03 0-.07 0-.1.03l-.08.05c-.03.02-.06.02-.1.02a.29.29 0 0 0-.24.07.12.12 0 0 1-.1.02c-.11-.02-.2.02-.23.1-.02.03-.04.04-.08.02l-.57-.27c-.04-.01-.06 0-.08.03l-.07.12c0 .02-.03.03-.06.02l-1.01-.48a.12.12 0 0 1-.05-.03.11.11 0 0 1-.02-.05.1.1 0 0 1 0-.05c0-.02.02-.03.03-.05a.61.61 0 0 0 .14-.2c.01-.04 0-.06-.03-.07l-.09-.04c-.03-.02-.05-.05-.04-.09.03-.13.1-.25.2-.34a.12.12 0 0 1 .1-.03c.11.02.2-.02.26-.12.03-.06.03-.13 0-.22l-.26-.71c-.02-.05-.02-.09-.02-.12v-.08a.1.1 0 0 0-.07-.07l-.73-.34h-.06a.07.07 0 0 0-.04.03l-.06.1c0 .02-.01.03-.02.03a.1.1 0 0 1-.12 0 .73.73 0 0 0-.29-.18c-.02 0-.04 0-.06.03l-.06.1c0 .02-.02.03-.04.04H7.8l-.32-.15a.1.1 0 0 0-.06 0 .08.08 0 0 0-.05.03L6.4 13.4c-.02.04-.01.08.04.1l.3.14c.05.02.08.01.1-.03.04-.1.13-.14.27-.08.03.01.06 0 .08-.03l.03-.06c.03-.05.07-.06.12-.04l.72.34a.1.1 0 0 1 .05.03.1.1 0 0 1 .01.05c.01.1.04.2.1.27a.1.1 0 0 1 .01.09c-.09.26-.22.5-.39.7-.02.04-.05.04-.1.03l-.01-.02a.09.09 0 0 0-.1.01c-.17.12-.34.1-.53-.03-.04-.04-.06-.07-.05-.1 0-.03.02-.06.04-.07a.11.11 0 0 1 .1-.03c.1.02.2 0 .27-.06a.14.14 0 0 1 .1-.03c.17 0 .28-.1.31-.3.01-.03 0-.06-.01-.09a.73.73 0 0 1-.1-.27.1.1 0 0 0-.06-.07l-.47-.22a.07.07 0 0 0-.09.02c-.1.13-.17.27-.25.42-.03.05-.05.08-.08.1-.04.01-.09 0-.14-.02-.03-.01-.04-.04-.04-.07v-.18l-.02-.05a.1.1 0 0 0-.05-.03h-.04a.1.1 0 0 0-.1.05l-.14.27a.08.08 0 0 1-.05.03h-.06l-.74-.33-.08-.07c0-.04 0-.07.02-.1.03-.06.03-.1-.02-.14l-.05-.05-.03-.02a.07.07 0 0 0-.06.01l-.01.02-.19.33c-.02.03 0 .05.03.07l.05.02.03.03.02.04v.19c0 .02 0 .04.03.06l.57.26c.03.01.05 0 .05-.02.03-.12.1-.16.2-.13.15.06.48.21.97.46.05.02.06.06.04.11l-.02.03c-.04.07-.1.09-.17.05l-.98-.45c-.03-.02-.06-.01-.07.02a.4.4 0 0 1-.09.11.08.08 0 0 1-.1.01l-.76-.35a.09.09 0 0 1-.02-.02l-.02-.03a.07.07 0 0 1 0-.06l.16-.27c.01-.03 0-.06-.03-.07-.1-.05-.13-.12-.1-.22.08-.22.2-.3.35-.26.04 0 .07 0 .1-.04.03-.07.13-.09.28-.05a.07.07 0 0 0 .05 0l.02-.03v-.02c.01-.07.1-.08.3-.05h.02l.87-1.55a.05.05 0 0 0 0-.07h-.02l-.56-.27c-.04-.02-.07 0-.1.03l-.05.1c-.02.03-.05.04-.09.02l-.57-.26c-.03-.02-.06 0-.08.02l-.06.12c-.02.03-.04.03-.08.02l-.32-.15c-.05-.02-.08-.01-.1.03l-.04.05a.11.11 0 0 1-.06.05h-.09l-.52-.25c-.06-.02-.08-.06-.04-.12l.27-.48c.02-.05.06-.06.1-.03l.3.13c.03.02.05.02.08 0a.23.23 0 0 0 .07-.07l.03-.03H5.1c.03 0 .05-.02.06-.05l.04-.06.02-.02.03-.01a.08.08 0 0 1 .05 0c.11.07.2.05.25-.05 0-.01.02-.03.04-.03h.05l.07.02h.1a.18.18 0 0 0 .06-.05c.07-.1.16-.09.27-.03a.98.98 0 0 1-.17.35.1.1 0 0 1-.08.05h-.17a.1.1 0 0 0-.08.04l-.04.06-.02.02-.03.01a.07.07 0 0 1-.05 0l-.29-.16a.1.1 0 0 0-.07 0 .1.1 0 0 0-.06.04l-.14.26c-.03.05-.02.08.03.1l.33.16c.05.02.07 0 .08-.04 0-.04.03-.08.1-.1a.12.12 0 0 1 .08 0l.51.24c.04.02.07 0 .09-.02l.06-.1a.08.08 0 0 1 .05-.04h.06l.56.27a.06.06 0 0 0 .07-.01v-.02l.4-.68c.03-.06.08-.08.16-.04l.27.12c.06.03.08.08.05.14l-.27.47c-.02.03-.01.06.02.08l.13.06.1.05c.07.03.14.02.2-.04.05-.06.13-.07.23-.03.03.01.06 0 .08-.02.07-.1.17-.13.3-.08.04.01.07 0 .09-.04l.03-.06c.02-.03.06-.04.1-.03l.12.03a.1.1 0 0 0 .08-.05l1.3-2.29a.1.1 0 0 0 0-.08.12.12 0 0 0-.06-.07l-.04-.02-.01-.2c0-.04-.02-.07-.06-.08L9.23 8c-.03-.02-.06-.01-.1.01a.48.48 0 0 0-.1.16.48.48 0 0 1-.14-.07c-.03-.02-.04-.05-.03-.08a.3.3 0 0 1 .04-.1.05.05 0 0 0-.01-.07.4.4 0 0 1-.1-.09c-.07-.09-.06-.15.03-.18a.15.15 0 0 1 .11 0l1.62.76c.07.03.12.01.15-.05l.25-.44a.08.08 0 0 0-.01-.1.1.1 0 0 0-.03-.02l-.53-.24a.08.08 0 0 0-.08 0l-.01.03-.18.3-.01.02a.06.06 0 0 1-.04.02l-.02-.01-1.23-.57a.12.12 0 0 1-.04-.03.1.1 0 0 1-.02-.03.1.1 0 0 1 .01-.09l.17-.28c.07-.02.12-.02.16 0 .03.03.05.07.04.12 0 .04 0 .08-.02.11-.02.04 0 .06.03.08l.5.22c.17.06.22.01.14-.15l-.1-.07c-.02-.02-.03-.04-.01-.07a.21.21 0 0 0 .03-.12c0-.03-.01-.06-.04-.07a.35.35 0 0 1-.1-.07c-.02-.03-.02-.06 0-.09l.04-.08c.02-.03 0-.05-.02-.06a.3.3 0 0 1-.13-.09.06.06 0 0 1 0-.07l.26-.47a.08.08 0 0 0 0-.09.3.3 0 0 0-.18-.12c.03-.09.07-.14.14-.16.04 0 .1.01.18.05l.4.19c.03.01.06 0 .08-.02.07-.09.15-.13.26-.11h.09c.03-.02.05-.04.06-.07l-.01-.04a.08.08 0 0 0-.03-.03.34.34 0 0 1-.1-.08.08.08 0 0 1-.01-.08l.03-.1c.01-.03 0-.05-.03-.07L8 4.05a.09.09 0 0 0-.08.01.08.08 0 0 0-.03.03v.1l.02.02.24.15c.03.01.05.04.06.07a64.84 64.84 0 0 0 .3.87c.03.06.06.12.05.2 0 .04 0 .07.02.1.01.03.03.05.06.05a.08.08 0 0 1 .06.07.1.1 0 0 1 0 .05l-.04.05c-.15.15-.15.28-.02.37.04.02.05.05.03.08l-.28.5a.06.06 0 0 0 0 .06l.02.02.04.01c.04 0 .07.01.1.03.02.02.02.05 0 .08l-.4.73a.06.06 0 0 0 0 .07l.03.02.3.14c.07.03.08.07.05.13l-.13.23c-.04.06-.09.07-.15.04l-.25-.11c-.07-.03-.12-.02-.16.05l-1.07 1.91c-.03.04-.06.05-.1.03l-.1-.05c-.03-.01-.06 0-.08.03l-.06.08a.1.1 0 0 1-.03.04.1.1 0 0 1-.05 0c-.07 0-.13-.03-.17-.1l.14-.3c.01-.03.04-.04.08-.04.05 0 .1 0 .15.02a.1.1 0 0 0 .06 0c.02 0 .04-.02.05-.04l.97-1.73v-.04a.06.06 0 0 0-.02-.04l-1.03-.48a.07.07 0 0 0-.07.01l-.01.02-.3.53c-.02.02 0 .04.03.05l.09.05c.03.02.06.05.06.07.01.07-.02.12-.1.15a.15.15 0 0 1-.16-.02.12.12 0 0 1-.04-.07c0-.03 0-.06.02-.08l.04-.07c.02-.03 0-.06-.03-.08l-.1-.05c-.04-.01-.07 0-.08.03a.39.39 0 0 1-.08.12.07.07 0 0 1-.08.01l-.3-.14c-.07-.03-.08-.07-.05-.13l.03-.04a.1.1 0 0 1 .06-.05h.08l.33.16c.02.01.04 0 .05-.01l.5-.9c.04-.07.1-.09.17-.06l1.2.56h.05c.02 0 .03-.01.04-.03l.28-.5c.02-.02.01-.05 0-.07a.2.2 0 0 0-.09-.05c-.07-.02-.09-.06-.05-.13l.37-.66c.02-.04.01-.08-.04-.1-.1-.05-.13-.1-.11-.18a.85.85 0 0 0 .02-.07c0-.06-.03-.1-.09-.12-.03-.02-.04-.04-.04-.07a.35.35 0 0 0-.05-.24 23.72 23.72 0 0 0-.29-.8c-.03-.12-.1-.15-.2-.21a3.47 3.47 0 0 1-.06-.03.08.08 0 0 1-.05-.08V4.1a.07.07 0 0 0-.04-.03l-.72-.34a.1.1 0 0 1-.05-.05.1.1 0 0 1 0-.07c.06-.16.16-.31.27-.47.03-.05.12-.06.25-.03Zm2.23 10.93c.01-.08 0-.18-.06-.23a.08.08 0 0 1-.02-.09c.04-.13.09-.21.14-.26.06-.05.11-.06.17-.02.03.03.04.06.04.1-.03.18.09.3.35.35.03 0 .06 0 .08-.04l.12-.21a.13.13 0 0 1 .07-.06l.41-.13a.09.09 0 0 1 .08.01l.03.04v.03a.34.34 0 0 0 0 .2l.04.05c.02.02.04.02.06.02h.06a.1.1 0 0 0 .05-.05l.24-.42a.15.15 0 0 1 .08-.07.17.17 0 0 1 .1 0h.04c.18.07.4.13.48.34.09.23.08.42-.02.59a.52.52 0 0 1-.3.2c-.21.07-.35.1-.42.09-.04 0-.07.01-.1.05l-.02.05c-.02.03-.04.04-.07.03l-.51-.22a.21.21 0 0 0-.07-.02l-.06.01a.13.13 0 0 0-.05.03.1.1 0 0 0-.03.04c0 .02-.03.03-.08.03l-.08-.01c-.24-.1-.48-.22-.7-.35-.04-.02-.05-.05-.05-.08Zm3.8-8.26-.05.1c-.03.04-.06.04-.1.02-.11-.06-.18-.04-.22.06-.02.04-.05.06-.1.04l-.13-.03c-.05-.02-.08 0-.1.03l-.39.7c-.02.03 0 .05.03.07l.12.05.02.02.01.02a.06.06 0 0 1 0 .05l-.06.1c-.02.03-.01.06.03.08l1.43.66c.06.02.11.01.16-.04l.01-.05V7.6a.1.1 0 0 0-.06-.04l-.48-.22a.1.1 0 0 1-.06-.07.2.2 0 0 1 0-.1c0-.04 0-.06-.05-.06-.2 0-.6-.06-.68-.26a.18.18 0 0 1 0-.15.2.2 0 0 1 .05-.06.21.21 0 0 1 .07-.04l.67-.22c.05-.01.06-.04.01-.07-.1-.07-.1-.14-.03-.23.02-.03.05-.03.09-.02.13.06.22.04.26-.08 0-.03 0-.06-.04-.08l-.31-.14c-.05-.02-.08-.02-.1.02Zm-2.48.07c-.07-.03-.14-.01-.17.04l-.25.44c-.03.06 0 .12.05.15h.01c.06.03.13 0 .16-.04l.25-.45c.03-.05 0-.12-.05-.14Zm-.75.51c0 .07-.05.12-.12.12-.07 0-.13-.05-.13-.12 0-.06.06-.11.13-.11s.12.05.12.11Zm.9.03c.01.06.07.11.14.1.07 0 .11-.06.1-.13a.12.12 0 0 0-.13-.1.12.12 0 0 0-.1.13Zm-.21.26c.02.06-.03.12-.1.14-.08.02-.15-.02-.17-.07-.02-.06.03-.13.1-.14.08-.02.15.01.17.07Zm3.62.35c.12.05.24.03.27-.03.03-.06-.05-.15-.17-.2-.13-.04-.25-.02-.27.04-.03.06.05.15.17.2Zm-3.24.33-.3-.15-.01-.02a.06.06 0 0 1-.01-.05V7.1c.05-.05.06-.1.03-.15a.1.1 0 0 0-.04-.05.12.12 0 0 0-.16.04l-.17.26c-.02.03-.01.06.02.08l.57.26c.05.02.1.01.12-.03a.13.13 0 0 0 .02-.04c0-.06-.02-.1-.07-.13Zm.5.47.12.09c.03.01.04.03.02.07l-.16.28c-.02.04-.05.05-.1.03l-.32-.15c-.04-.02-.05-.05-.03-.08l.62-1.1a.1.1 0 0 1 .02-.03.1.1 0 0 1 .08-.02.1.1 0 0 1 .03.02l.06.03c.02 0 .03.02.04.03v.05l-.4.69v.04c0 .02 0 .04.02.05Zm2.71-.34h.01l.08-.16v-.02l-.01-.01-.14-.06a10.54 10.54 0 0 0-.64-.2l-.06.11a8.54 8.54 0 0 0 .6.28l.15.06h.01Z" fill="#0D0D0E"/></svg>