<!-- by TradingView --><svg width="18" height="18" viewBox="0 0 18 18" xmlns="http://www.w3.org/2000/svg"><path fill="#F0F3FA" d="M0 0h18v18H0z"/><path d="M14.2 6H3.8a6 6 0 0 1 10.4 0Z" fill="url(#acg5ht1kj)"/><path d="M15 9c0-1.1-.3-2.12-.8-3H3.8c-.5.88-.8 1.9-.8 3h12Z" fill="url(#bcg5ht1kj)"/><path d="M14.21 12A6 6 0 0 0 15 9.02V9H3a5.87 5.87 0 0 0 .79 3H14.2Z" fill="url(#ccg5ht1kj)"/><path d="M8.95 15a6 6 0 0 1-5.16-3H14.2a6 6 0 0 1-5.16 3h-.1Z" fill="url(#dcg5ht1kj)"/><defs><linearGradient id="acg5ht1kj" x1="9" y1="4.5" x2="9" y2="6" gradientUnits="userSpaceOnUse"><stop stop-color="#BBDBFF"/><stop offset="1" stop-color="#22A6DE"/></linearGradient><linearGradient id="bcg5ht1kj" x1="9" y1="6.03" x2="9" y2="8.98" gradientUnits="userSpaceOnUse"><stop offset=".59" stop-color="#FF6B6B"/><stop offset="1" stop-color="#F61312"/></linearGradient><linearGradient id="ccg5ht1kj" x1="9" y1="9" x2="9" y2="12" gradientUnits="userSpaceOnUse"><stop stop-color="#F1E869"/><stop offset=".51" stop-color="#F3DF5E"/><stop offset="1" stop-color="#FEA514"/></linearGradient><linearGradient id="dcg5ht1kj" x1="9" y1="12" x2="9" y2="15" gradientUnits="userSpaceOnUse"><stop offset=".41" stop-color="#BBFFCA"/><stop offset="1" stop-color="#5FE337"/></linearGradient></defs></svg>