<!-- by TradingView --><svg width="18" height="18" viewBox="0 0 18 18" xmlns="http://www.w3.org/2000/svg"><path fill="url(#amcs2gtsi)" d="M0 0h18v18H0z"/><path d="M10.62 4.34A2.22 2.22 0 0 0 9.45 4H7c.65 0 1 .56 1 1.25V9h1.45c.42 0 .82-.12 1.16-.34.26-.16.49-.36.67-.61a2.61 2.61 0 0 0-.66-3.71Z" fill="#D85111"/><path d="M11.3 8c-.47.63-1.2 1-1.95 1H8V5.25C8 4.56 7.64 4 7 4c-.65 0-1 .56-1 1.25V14h4.08c.2 0 .4-.02.59-.06A3.08 3.08 0 0 0 13 10.87c0-1.24-.72-2.37-1.7-2.87Z" fill="#fff"/><defs><linearGradient id="amcs2gtsi" x1="3.35" y1="3.12" x2="21.9" y2="24.43" gradientUnits="userSpaceOnUse"><stop stop-color="#1A1E21"/><stop offset="1" stop-color="#06060A"/></linearGradient></defs></svg>