<!-- by TradingView --><svg width="18" height="18" viewBox="0 0 18 18" xmlns="http://www.w3.org/2000/svg"><path fill="#182610" d="M0 0h18v18H0z"/><path d="M9 5.81c.07 0 .13.01.2.03a.1.1 0 0 1 .06.04c.2.27.29.66.41.8.43.45.97.24 1.26-.24.04-.06.08-.22.14-.48a1.66 1.66 0 0 1 .3-.66c.38-.36.97-.43 1.37-.04.39.4.32.99-.04 1.37a1.67 1.67 0 0 1-.66.3c-.26.06-.42.1-.48.14-.48.3-.69.83-.24 1.26.14.12.53.2.8.41a.1.1 0 0 1 .04.06.8.8 0 0 1 0 .4.1.1 0 0 1-.04.06c-.27.2-.66.29-.8.41-.45.43-.24.97.24 1.26.06.04.22.08.48.14a1.66 1.66 0 0 1 .66.3c.36.38.43.97.04 1.37-.4.39-.99.32-1.37-.04a1.67 1.67 0 0 1-.3-.66c-.06-.26-.1-.42-.14-.48-.3-.48-.83-.69-1.26-.23-.12.13-.2.52-.41.8a.1.1 0 0 1-.06.03.82.82 0 0 1-.4 0 .1.1 0 0 1-.06-.04c-.2-.27-.29-.66-.41-.8-.43-.45-.97-.24-1.26.24-.04.06-.08.22-.14.48a1.66 1.66 0 0 1-.3.66c-.38.36-.97.43-1.37.04-.39-.4-.32-.99.04-1.37a1.66 1.66 0 0 1 .66-.3c.26-.05.42-.1.48-.14.48-.3.69-.83.23-1.26-.13-.12-.52-.2-.8-.41a.1.1 0 0 1-.03-.06.82.82 0 0 1 0-.4.1.1 0 0 1 .04-.06c.27-.2.66-.29.8-.41.45-.43.24-.97-.24-1.26a2.05 2.05 0 0 0-.48-.14 1.66 1.66 0 0 1-.66-.3c-.36-.38-.43-.97-.04-1.37.4-.39.99-.32 1.37.04l.04.05c.12.16.2.37.26.61.06.26.1.42.14.48.3.48.83.69 1.26.24.12-.14.2-.53.41-.8a.1.1 0 0 1 .06-.04.8.8 0 0 1 .2-.03Z" fill="#D7F9C0"/></svg>