<!-- by TradingView --><svg width="18" height="18" viewBox="0 0 18 18" xmlns="http://www.w3.org/2000/svg"><path fill="#55872E" d="M0 0h18v18H0z"/><path d="M9.19 8.22a.08.08 0 0 0-.07-.04c-.03 0-.05 0-.07.03l-.12.16-.15.21a.81.81 0 0 1-.2.17l-.57.32a1 1 0 0 1-.26.1l-.28.03c-.18.02-.32.05-.4.08l-.2.03a.89.89 0 0 0-.2.05c-.18.06-.44.1-.79.1-.37 0-.7-.06-.97-.16a2.67 2.67 0 0 0-.44-.1 3.4 3.4 0 0 1-.45-.1.74.74 0 0 1-.35-.2 1.64 1.64 0 0 0-.44-.38.43.43 0 0 1-.23-.33 1.26 1.26 0 0 1 .12-.6l.1-.16c.08-.1.13-.17.15-.23.1-.2.25-.33.45-.41.1-.04.18-.09.25-.14.18-.14.43-.23.73-.3a7.15 7.15 0 0 1 1.27-.09l.14.04h.34l.18.03c.15.02.27.05.34.07.12.03.23.08.31.15.23.17.48.31.75.41.03.01.06.04.08.07.17.23.37.35.6.37.2.01.36-.09.47-.3a.18.18 0 0 1 .06-.08 5.32 5.32 0 0 0 .66-.5l.3-.19c.27-.13.53-.27.79-.42.41-.24.9-.48 1.46-.7.39-.16.85-.23 1.38-.2.19 0 .36.04.5.12.13.06.27.17.4.3.12.12.17.25.17.4 0 .08-.03.21-.1.4l-.06.2a.84.84 0 0 0-.02.22c.01.67-.14 1.04-.47 1.1-.14.02-.3.07-.45.14l-.42.22-.45.23c-.17.08-.33.13-.48.15l-.61.1c-.53.13-1.12.16-1.78.12-.13-.01-.26-.04-.4-.1a4.27 4.27 0 0 1-.5-.27l-.07-.12Z" fill="#010101"/><path d="M9.85 7.17a.25.25 0 0 1-.24.06c-.04-.01-.04-.02 0-.04a.5.5 0 0 0 .3-.29.14.14 0 0 1 .07-.08 77.9 77.9 0 0 0 .74-.37c.17-.07.32-.16.46-.26.08-.07.18-.13.3-.18l.31-.14c.22-.08.38-.16.48-.22a3.05 3.05 0 0 1 1.85-.3c.23.02.41.14.53.35.09.14.07.3-.04.48a.09.09 0 0 1-.06.05c-.1 0-.18-.01-.28-.05a1.63 1.63 0 0 1-.25-.12 1.46 1.46 0 0 0-1.36-.03c-.29.13-.6.25-.96.34a.8.8 0 0 0-.2.1l-.18.12-.2.14a.71.71 0 0 1-.25.08.98.98 0 0 0-.31.1c-.07.04-.17.07-.3.1l-.22.05a.58.58 0 0 0-.2.11Z" fill="#55872E"/><path d="M12.72 6.35c.03 0 .07-.02.13-.05.14-.05.25-.09.32-.1a.7.7 0 0 1 .36.03c.28.1.57.19.88.27.05.01.08.05.1.1.03.04.04.09.04.15 0 .21-.04.38-.1.5a.63.63 0 0 1-.39.31 6.96 6.96 0 0 0-1.4.6.1.1 0 0 1-.05-.03c-.1-.12-.15-.23-.13-.33.04-.25.04-.46.01-.63a.81.81 0 0 0-.3-.5.07.07 0 0 1-.02-.07c0-.03.02-.05.04-.06l.51-.19Z" fill="#E4E4E4"/><path d="M7.07 7.08 7 7.05a.64.64 0 0 0-.2-.06c-.27 0-.51.02-.74.08-.07.01-.17.05-.3.11l-.25.1a4.38 4.38 0 0 0-1.1.68c-.31.3-.66.39-1.02.28-.1-.03-.15-.1-.14-.2 0-.07.04-.15.1-.23l.17-.25.15-.24a1 1 0 0 1 .2-.2c.26-.2.56-.35.88-.45a5.44 5.44 0 0 1 1.07-.15l.03.02h.04c.3-.02.67.03 1.1.16.1.03.22.09.37.18l.17.1a23.46 23.46 0 0 1 .71.43c.04.1.02.12-.07.08-.38-.15-.74-.3-1.1-.41Z" fill="#55872E"/><path d="M11.66 7.24a.07.07 0 0 1-.05 0 .07.07 0 0 1-.05-.02l-.02-.03a.32.32 0 0 1-.05-.23.26.26 0 0 1 .12-.19l.02-.01a.27.27 0 0 1 .22-.03c.08.02.15.07.2.15l.01.02c.01.02.02.04.01.06 0 .02-.01.03-.03.04l-.38.24ZM12.2 7.82l-.02.04-.03.01h-.07a.22.22 0 0 1-.16-.06.21.21 0 0 1-.07-.15V7.6c0-.06.02-.11.06-.16.04-.04.1-.07.16-.07h.06l.04.01.01.04.01.4ZM11.57 7.8l.09.1c.02.05.03.08.01.13a.12.12 0 0 1-.1.07h-.02c-.1.02-.18.03-.23.02a.3.3 0 0 1-.21-.09.99.99 0 0 1-.17-.26.2.2 0 0 1 0-.17c.02-.06.06-.1.12-.12l.18-.06c.12-.04.2 0 .25.1a.6.6 0 0 1 .04.18c0 .04.02.07.04.1ZM9.79 8.25l-.01.01h-.01a.46.46 0 0 1-.31-.12.35.35 0 0 1 .02-.55c.08-.07.19-.1.31-.1h.01l.01.01-.02.75ZM6.02 9.04a.4.4 0 0 0 .14.06.5.5 0 0 1 .1.04c.03.01.03.02 0 .03-.47.04-.86 0-1.19-.11a12.93 12.93 0 0 0-1.2-.37c-.05-.02-.05-.03 0-.05.24-.11.49-.25.72-.42a.6.6 0 0 0 .13-.15.48.48 0 0 1 .17-.16l.64-.3c.08-.05.1-.02.08.06l-.07.25.01.25.02.06c.05.21.1.36.13.45a1 1 0 0 0 .32.36ZM7.68 8.1l-.26-.3a.03.03 0 0 1 0-.04l.03-.01.39.03.02.01v.03l-.14.27-.02.01h-.02ZM8.3 7.78l.44.03c.02 0 .04 0 .05.03l.05.21-.01.05-.46.46a.04.04 0 0 1-.05 0c-.02 0-.03-.01-.04-.04l-.02-.69.01-.03a.05.05 0 0 1 .04-.02ZM8 8.3l-.08.34c0 .03-.02.04-.05.04H7.7c-.02 0-.03-.01-.04-.03v-.04l.1-.2V8.4l.16-.14c.02-.02.03-.02.05 0 .02 0 .03.02.02.04Z" fill="#E4E4E4"/><path d="M14.32 10.13a9.89 9.89 0 0 1-.39.56c-.12.13-.27.22-.46.29a2.51 2.51 0 0 1-1.15.14c-.77-.09-1.44-.12-2-.1-.33.02-.65.1-.95.27l-.3.15c-.27.14-.46.25-.58.33l-.9.63c-.58.36-1.2.56-1.9.6-.38.01-.71 0-1-.07-.3-.06-.61-.19-.9-.37a1.19 1.19 0 0 1-.49-.72 1.98 1.98 0 0 1-.05-.85.6.6 0 0 1 .38-.45c.22-.09.4-.15.51-.17.2-.05.38-.04.52.02.38.15.87.24 1.46.25.23 0 .44-.03.64-.1.09-.03.2-.1.34-.2.13-.09.22-.15.3-.18.45-.2.9-.41 1.38-.65.35-.17.7-.23 1.06-.16l.08.03c.03.02.07.02.1.02.47-.03.95-.02 1.45.02.28.02.53 0 .74-.07.21-.06.42-.19.62-.37a2.42 2.42 0 0 1 .76-.43c.17-.05.32-.08.45-.07.15 0 .26.06.34.17.2.26.3.51.27.75-.02.11-.05.23-.11.35-.05.1-.12.23-.22.38Z" fill="#010101"/><path d="m8.04 10.2.36-.16a8.53 8.53 0 0 0 .42-.25.9.9 0 0 1 .44-.11c.54-.02 1.05-.02 1.51 0 .47.03.9.03 1.3 0 .28-.01.53-.12.76-.32.24-.2.5-.38.77-.52.18-.1.34-.12.47-.06.12.06.22.18.3.37.03.1.03.2-.02.3-.16.36-.33.67-.53.94-.1.14-.3.26-.64.35a3.34 3.34 0 0 1-.66.12c-.34-.01-.71-.05-1.12-.11a3.6 3.6 0 0 0-1.97.18c-.4.17-.8.4-1.21.71-.46.35-.88.6-1.25.77a4.47 4.47 0 0 1-1.53.32 2.3 2.3 0 0 1-.73-.11 4.41 4.41 0 0 0-.24-.07c-.2-.06-.35-.1-.45-.15a.73.73 0 0 1-.33-.33c-.09-.19-.15-.35-.19-.48a.84.84 0 0 1-.02-.4c.05-.25.29-.43.7-.55a.87.87 0 0 1 .18-.04c.05 0 .11 0 .18.04.61.28 1.24.38 1.9.3.24-.04.49-.14.74-.3.28-.2.57-.34.86-.44Z" fill="#864B2F"/><path d="M8.78 10.7a99.22 99.22 0 0 0-1.33.78c-.26.09-.51.2-.76.31a2.6 2.6 0 0 1-1.9.2 1.62 1.62 0 0 1-.6-.33c-.21-.18-.32-.37-.32-.56 0-.03.01-.05.04-.05.08-.02.14 0 .18.08.08.13.2.25.34.35a1.81 1.81 0 0 0 .98.33c.18.01.35-.01.5-.06.42-.14.83-.3 1.24-.46.1-.05.23-.1.36-.18a9.8 9.8 0 0 0 .58-.38l.25-.13c.16-.07.27-.14.34-.2.21-.16.48-.25.8-.26h2.36c.27 0 .5-.01.67-.05.24-.05.44-.14.6-.28.23-.18.43-.37.6-.57.06-.06.13-.1.21-.1.04 0 .06.02.06.06 0 .1-.04.2-.12.3-.04.06-.12.14-.24.24l-.16.15a1.86 1.86 0 0 1-1.18.49c-.72.02-1.46.02-2.23.02a2.14 2.14 0 0 0-1.27.3Z" fill="#010101"/></svg>