<!-- by TradingView --><svg width="18" height="18" viewBox="0 0 18 18" xmlns="http://www.w3.org/2000/svg"><path fill="url(#aucqi35pw)" d="M0 0h18v18H0z"/><circle cx="9" cy="9" r="5" fill="#FFDD02"/><path d="M9.76 12.56c-2.5-2.65-1.9-4.07-3.12-5.29-.1.56-.1.44-.1 1.16 0 .65.03.6-.17 1.15-.22.6-.51 1.49-.3 2.16.12.35.38.52.75.61.36.1.62.27.95.4.36.13.56.28 1.1.24.3-.02.78-.25.89-.43Z" fill="#3A2A0C"/><path d="M6.64 7.27c.06.06.04.02.03.24 0 .3.05.5.1.79l.05.3c0 .08-.05.14-.22.6-.14.37-.32.9-.33 1.4 0 .48.18.92.7 1.13.17.07.27.1.47.12.3.05.3-.03.52.12.34.24.8.5 1.26.57.17.03.44 0 .54.02.23-.11.45-.16.6-.34-.6-1.81-2.68-4.04-3.47-5.18h-.1l-.15.23Z" fill="#895729"/><path d="M7.72 8.4c.1.02.03.46.03.6-.03.5-.24.52.04.54 1.48 1.52 3.85-.49 4.13-.22a5.07 5.07 0 0 0-.79-1.4c-.27-.31-1.44-.69-1.55-.87-.12-.21-.52-1.13-.9-1.04-.1.02-.08.03-.11.08.2.57.27 1.44-.54 1.47-.26-.28-.49-.57-.84-.75a.36.36 0 0 0-.14-.03c-.1 0-.21.15-.26.26h.1c.35.5.63.57.83 1.35Z" fill="#F59935"/><path d="M10.36 12.22c.31-.1.57-.62.74-.88-1.83.36-3.26-1.72-3.38-1.83.05-.2.12-1.08 0-1.12-.25.18-.12.2-.17.53-.01.13-.04.12-.1.22-.12.23-.36.84-.36 1.3 0 .97 1.65 1.75 2.51 1.78.28.01.56-.04.76 0Z" fill="#DA8515"/><path d="M11.1 11.34c.17-.07.28-.07.37-.22-1.04.1-3.34-.26-4-1.34a.42.42 0 0 0-.1.31c.03.54.63 1.12 1.15 1.23.48.1.9.13 1.34.12.39 0 .78 0 1.24-.1Z" fill="#727070"/><path d="M7.47 9.78c-.24 1.24 1.82 1.4 2.66 1.4a15 15 0 0 0 1.34-.06c.3-.14.45-.62.48-.88-.99.86-3.49.48-4.16-.7h-.1l-.05.04c-.1.06-.12.09-.17.2Z" fill="#B0B0B0"/><path d="M7.65 7.95c.58-.05.3-.34.1-.48L7.29 7c-.1.02-.2.02-.28.07 0 .34.04.7.2.92.3.02.28-.01.45-.04Z" fill="#ECB595"/><path d="M7.79 9.54c-.17.12-.3.21-.13.5.24.42.66.58 1.12.74.36.1 1.45.15 2.13.15h.4c.25-.19.41-.5.64-.7.06-.05.05-.35.05-.45 0-.25-.04-.26-.08-.46a.35.35 0 0 0-.33-.2c-.21 0-.35 0-.57.07-.56.15-1.32.71-1.88.7-.48-.01-.83-.37-1.35-.35Z" fill="#F4F4F4"/><path d="M8.3 7.57c.02.11.08.04.36.08.14.02.27.03.42.03.14-.3-.08-.04.3-.22-.1-.07-.21.02-.35-.06-.16-.1-.2-.82-.18-.94l-.02-.01-.06-.06c-.04-.04-.04-.05-.06-.1l-.05-.12-.1-.08c-.28.44-.21.92-.26 1.48Z" fill="#985B17"/><path d="M11.74 10c.57-.85.1-1.18-.42-.9-.2.1-.44.33-.25.6a1 1 0 0 0 .67.3Z" fill="#2C2B2A"/><path d="M8.74 6.43c-.03.14-.03.99.26 1.12.54.04.67-.12.43-.48a5.8 5.8 0 0 0-.6-.81c-.05.08 0 .09-.1.17Z" fill="#ECB595"/><path d="M10.1 8.25c-.07.35.74.48.8.17.08-.41-.75-.44-.8-.17Z" fill="#E8E8E8"/><path d="M9 9.3c.14.39.8.2.82-.05 0-.18-.38-.35-.47-.17-.15.27-.2.1-.35.22ZM10.1 8.9c.05.17.15.23.41.2.1 0 .17-.02.25-.07.1-.06.12-.08.15-.23a.35.35 0 0 0-.43-.19c-.2.1.07.05-.15.2-.06.03-.16.02-.24.1Z" fill="#131011"/><path d="M8.67 8.37c-.25-.16-.65.3-.42.44.3.19.61-.32.42-.44Z" fill="#E8E8E8"/><path d="M10.7 4.55c0 .76 0 1.45-.2 1.45-.26 0-.34-.3-.46-1.04-.12-.72.04-.96.26-.96s.4.18.4.55Z" fill="url(#bucqi35pw)"/><circle cx="10.5" cy="6.5" r=".5" fill="url(#cucqi35pw)"/><path d="M11.91 4.75c-.32.7-.61 1.34-.78 1.24-.21-.13-.15-.45.07-1.2.21-.72.43-.87.62-.76.18.11.25.37.1.72Z" fill="url(#ducqi35pw)"/><path d="M13.03 5.41c-.48.37-.91.7-1 .55-.1-.2.05-.4.47-.85.4-.43.62-.43.71-.27.1.17.06.4-.18.57Z" fill="url(#eucqi35pw)"/><path d="M11.77 6.92a.5.5 0 1 1-.54-.84.5.5 0 0 1 .54.84Z" fill="url(#fucqi35pw)"/><defs><linearGradient id="aucqi35pw" x1="14.46" y1="2.25" x2="4.34" y2="16.71" gradientUnits="userSpaceOnUse"><stop stop-color="#F1B600"/><stop offset="1" stop-color="#FC6B02"/></linearGradient><linearGradient id="bucqi35pw" x1="10.03" y1="5.33" x2="10.83" y2="5.16" gradientUnits="userSpaceOnUse"><stop offset=".07" stop-color="#6C1A1C"/><stop offset=".47" stop-color="#DE1A26"/></linearGradient><linearGradient id="cucqi35pw" x1="10.05" y1="6.66" x2="10.69" y2="6.04" gradientUnits="userSpaceOnUse"><stop offset=".07" stop-color="#6C1A1C"/><stop offset=".47" stop-color="#DE1A26"/></linearGradient><linearGradient id="ducqi35pw" x1="11.04" y1="5.14" x2="11.77" y2="5.32" gradientUnits="userSpaceOnUse"><stop offset=".07" stop-color="#6C1A1C"/><stop offset=".47" stop-color="#DE1A26"/></linearGradient><linearGradient id="eucqi35pw" x1="12.27" y1="5.29" x2="12.77" y2="5.72" gradientUnits="userSpaceOnUse"><stop offset=".07" stop-color="#6C1A1C"/><stop offset=".47" stop-color="#DE1A26"/></linearGradient><linearGradient id="fucqi35pw" x1="11.12" y1="6.21" x2="11.99" y2="6.41" gradientUnits="userSpaceOnUse"><stop offset=".07" stop-color="#6C1A1C"/><stop offset=".47" stop-color="#DE1A26"/></linearGradient></defs></svg>