<!-- by TradingView --><svg width="18" height="18" viewBox="0 0 18 18" xmlns="http://www.w3.org/2000/svg"><path fill="#F4BD2F" d="M0 0h18v18H0z"/><path d="M9.98 14.74v.16c.02.06-.01.11-.08.1a.6.6 0 0 1-.29-.2.42.42 0 0 1-.1-.23c-.01-.04-.03-.04-.04-.01l-.03.02a13.44 13.44 0 0 1-.44.35c-.04 0-.1-.01-.13-.05-.09-.12-.2-.25-.35-.38-.02-.02-.02-.04-.02-.07l-.01-.03-.09-.1-.02-.01c-.07 0-.09-.03-.13-.07-.03-.04-.04-.07-.03-.1a.59.59 0 0 1 .16-.28v-.01a1.48 1.48 0 0 1-.4-.22.48.48 0 0 0-.18-.08 1.56 1.56 0 0 1-1.04-.8 1.06 1.06 0 0 0-.12-.18c-.1-.11-.15-.19-.17-.23a5.46 5.46 0 0 1-.32-.72c-.1-.15-.12-.34-.16-.5V11a.77.77 0 0 1-.15-.52v-.03c-.06-.1-.12-.16-.14-.29l-.01-.03c-.06-.06-.2-.28-.19-.38l.02-.04h.04l.15.02h.02l.3-.22v-.03c-.27-.24-.5-.66-.36-1l.01-.03V8.16c-.04-.09.01-.13.1-.14a1.1 1.1 0 0 0 .56-.14.02.02 0 0 0 0-.03 1.68 1.68 0 0 1-.54-.87 2.05 2.05 0 0 1-.06-.6c.02-.26.07-.52.15-.77a8.2 8.2 0 0 1 1.05-2.15c.09-.14.25-.35.4-.4.26-.1.4.3.44.5.08.32.12.56.22.88.12.42.35.86.47 1.33l.02.01.32-.02a143.37 143.37 0 0 0 .82-.02c.02-.1.04-.2.07-.26.15-.41.34-.83.57-1.26.16-.31.28-.56.34-.84.03-.15.03-.26.13-.33.12-.09.24-.05.36.04a1.06 1.06 0 0 1 .37.48 6.75 6.75 0 0 1 .46 1.47c.07.29.1.57.16.88.07.3.12.57.15.82.03.24-.05.4-.18.6v.03c.05.05.04.1-.01.17a1.26 1.26 0 0 1-.5.38h-.01v.01c.11.05.22.09.34.12.07.02.18.03.26.07l.03.03a.06.06 0 0 1 0 .06c0 .02-.02.02-.03.03l-.11.05c-.04.02-.03.03 0 .03.1 0 .3-.01.44.03 0 0 .02 0 .02.02.02.04 0 .08-.03.12a2.91 2.91 0 0 0-.18.24c0 .16-.07.3-.19.42a14.43 14.43 0 0 1-.39.44l.15.1c.16.08.43.07.5.19a.03.03 0 0 1 .01.02c-.06.1-.18.2-.28.27l-.01.03v.2l-.12.3c-.04.13-.15.25-.22.34-.04.06-.08.11-.1.17-.07.13-.16.29-.29.49-.15.25-.24.55-.29.86-.02.13-.02.3-.13.34l-.02.02c.01.32-.02.62-.2.88l-.22.33c-.12.2-.14.36-.2.65-.01.04-.04.07-.08.08-.08.03-.16-.06-.2-.12-.01-.02-.02-.01-.02 0Z" fill="#030202"/><path d="M10.9 6.46h.02c.02 0 .03-.02.03-.04l-.12-.48v-.02a.33.33 0 0 0 .1-.06h.01l.13.31c.03.07.08.08.14.05a.02.02 0 0 1 .02 0 .02.02 0 0 1 .01.01c.06.25.05.5 0 .75-.02.04-.03.05-.05 0-.19-.43-.6-.82-1.01-1.05a1.12 1.12 0 0 0-.47-.15.02.02 0 0 1 0-.03c.05-.21.15-.48.29-.78.1-.22.25-.54.48-.97.1-.22.2-.47.25-.75.01-.07.03-.11.06-.13.06-.04.13-.05.2 0 .13.07.23.15.3.25l.15.35a2.9 2.9 0 0 1 .27.8l.16.61.08.5.14.7c.05.26.07.43.07.53 0 .18-.08.3-.18.46-.03.05-.02.07.01.12a.04.04 0 0 1 0 .05c-.1.12-.21.21-.36.29l-.14.08c-.03.02-.05.02-.06-.02l-.15-.62v-.08l.05-.22.04-.1c.07-.08.11-.12.14-.24.14-.44.13-.86.04-1.32l-.3-1.25a1.1 1.1 0 0 0-.24-.5c-.07-.07-.17-.06-.18.04l-.08.6c-.07.43-.1.86-.08 1.3.02.33.1.6.2.98l.01.02.02.01ZM8.4 5.8c-.16.01-.32.06-.48.14-.34.17-.7.4-.93.69-.2.26-.35.56-.44.9a.68.68 0 0 1-.13.26.03.03 0 0 1-.02 0h-.01a4.01 4.01 0 0 1-.34-.4 1.48 1.48 0 0 1-.18-.49c-.06-.31-.05-.63.02-.94a7.23 7.23 0 0 1 1.41-2.8c.11-.1.2-.03.27.08.06.11.1.2.1.24.09.35.14.69.26 1.03.08.26.22.6.3.8.06.15.1.31.17.47v.01Z" fill="#403442"/><path d="M6.9 5.94A1.54 1.54 0 0 0 6.73 7l-.01.01a.03.03 0 0 1-.04 0c-.05-.03-.05-.15-.06-.21-.01-.11-.1-.24-.14-.31-.05-.13-.1-.31-.1-.47a4.47 4.47 0 0 1 .73-2.31c.04-.07.1-.11.15-.14a.1.1 0 0 1 .06 0c.02 0 .03 0 .05.02.03.04.05.08.06.13.07.3.08.56.05.9-.02.4-.06.74-.11 1.05 0 .03-.03.07-.06.12-.03.06-.08.07-.12.01h-.02l-.14.3-.03.02c-.02.02-.04.02-.05 0l-.01-.03-.01-.15H6.9Z" fill="#030202"/><path d="M11.33 6.2c-.02-.06-.07-.13-.14-.07-.03.02-.04.01-.06-.01l-.1-.27c-.05-.1-.12-.1-.19-.02-.02.02-.03.02-.04-.01-.07-.41-.05-.8-.01-1.26.02-.31.09-.63.13-.96l.01-.03a.01.01 0 0 1 .03 0c.04.05.07.1.09.16.18.57.33 1.13.44 1.68.02.11.04.36.03.54-.02.24-.02.42-.1.63a.42.42 0 0 1-.04.09h-.01c0-.17-.02-.32-.04-.47ZM7.03 5.65h-.05s-.02 0-.03.02c-.16.28-.29.55-.33.86 0 .04-.01.04-.03 0-.25-.53-.12-1.09.04-1.63.1-.35.26-.7.48-1.05a.74.74 0 0 1 .17-.2.02.02 0 0 1 .02 0c.05.12.08.25.08.38.03.54-.01 1.1-.12 1.65 0 .03-.01.04-.03.01l-.04-.03-.04.01a.07.07 0 0 0-.03.03l-.09.18c-.02.04-.03.04-.02 0l.03-.2-.01-.03Z" fill="#AD6862"/><path d="M11.16 7.14a.08.08 0 0 1-.03.02c-.09-.21-.22-.4-.4-.55a.65.65 0 0 0-.4-.17c-.29-.01-.63 0-.84.13a.01.01 0 0 1-.02 0v-.15l-.01-.02h-.02v.02l-.03.17a22.27 22.27 0 0 0 0 .77l.01.04.05.54c.01.08.05.2.1.36a.4.4 0 0 1-.14-.09c-.16-.17-.4-.35-.64-.27a.93.93 0 0 0-.3.2l-.28.24c-.22.18-.46.15-.73.08-.3-.07-.59-.06-.79.18-.28.33-.27.66-.09 1.06.09.18.2.36.31.52.15.18.38.4.57.6.05.08.09.17.11.27.03.19.1.37.18.54.04.13.1.26.17.38l.05.2a6.33 6.33 0 0 1-1.08-.24 2.5 2.5 0 0 1-.45-.2c-.25-.14-.31-.34-.37-.64a3.15 3.15 0 0 1 .57.52v-.05c-.1-.16-.2-.28-.28-.34-.24-.21-.44-.36-.45-.69 0-.01 0-.02.02 0 .05.04.14.1.2.12a2.68 2.68 0 0 1 .77.59h.01v-.06a2.21 2.21 0 0 0-.56-.5c-.27-.14-.44-.23-.57-.49 0-.02 0-.02.01-.01a.75.75 0 0 0 .63.03.01.01 0 0 0 0-.01l-.01-.02H6.4c-.35.05-.7-.04-.8-.41V9.8l.53.07a.02.02 0 0 0 .02 0 .02.02 0 0 0 0-.02V9.8a.05.05 0 0 0-.04-.02l-.25-.04c-.02 0-.03 0-.01-.02l.2-.15.04-.01.04.01.56.52h.04c.02 0 .03 0 .01-.01-.16-.17-.32-.36-.51-.53L6 9.34a.94.94 0 0 1-.28-.74c0-.02.02-.03.04 0l.15.14.03.01h.01a.02.02 0 0 0 0-.03c-.1-.14-.2-.23-.18-.42 0-.01 0-.02.01-.01.09.05.19.06.3.05l.01-.02V8.3h-.02a.46.46 0 0 1-.3-.15l-.01-.01v-.02l.02-.01c.13-.02.32-.03.44-.07a.64.64 0 0 0 .4-.45c.14-.53.39-.99.87-1.3.27-.18.53-.33.82-.4a17.44 17.44 0 0 1 1.32-.04c.41.02.8.3 1.09.6.2.22.36.45.44.7Z" fill="#DDAC78"/><path d="M8.71 7.14a1.7 1.7 0 0 0-.13.19c-.05.08-.17.04-.24 0a5.16 5.16 0 0 0-.48-.31.49.49 0 0 0-.26-.03 2.34 2.34 0 0 0-.67.26l-.03-.01-.02-.03v-.07c.22-.41.54-.73 1.05-.8.4-.05.59.22.78.48h.01l.03-.18.01-.01h.03v.3c0 .08-.03.14-.08.2ZM11.13 7.16c.02.05.02.1 0 .12v.02a.05.05 0 0 1-.06 0c-.2-.13-.35-.23-.6-.24a2.03 2.03 0 0 0-1.02.3h-.04a22.27 22.27 0 0 1 .03-.96h.02l.01.02v.15a.01.01 0 0 0 .02 0c.2-.13.55-.14.84-.13.16.02.3.07.4.17.18.15.31.34.4.55Z" fill="#030202"/><path d="M8.71 7.14 8.45 8c.06-.36-.06-.62-.36-.77a.67.67 0 0 0-.32-.06l-.25.02.34-.18.48.3c.07.05.19.1.24 0l.13-.18ZM11.13 7.16s.02 0 .03-.02l.03.1.03.1.14.56c.01.05.05.08.11.08l.03.01c.17.1.34.14.53.18.02 0 .02.02 0 .03l-.18.1s-.02 0-.02.02v.02c0 .04.03.05.09.06a29.34 29.34 0 0 1 .48.02v.01a2.82 2.82 0 0 1-.36.42v.01c.02.02.04.02.06.01l.05-.03h.02c.01.07-.13.25-.18.3a23 23 0 0 1-.44.42c.07-.14.1-.28.11-.44.01-.22.02-.38-.13-.54a.89.89 0 0 0-.4-.24.64.64 0 0 0-.2-.02h-.26c.2-.18.29-.38.39-.61v-.1c-.25-.3-.63-.5-1.05-.38a.6.6 0 0 0-.38.76c.07.19.2.33.42.42a.85.85 0 0 1-.47-.1c-.06-.17-.1-.3-.1-.37a6.78 6.78 0 0 1-.07-.58h.07c.29-.17.66-.3 1-.3.24 0 .4.1.59.24a.05.05 0 0 0 .05 0l.02-.02v-.12Z" fill="#965B55"/><path d="M8.45 8.01a.56.56 0 0 0-.08.11.62.62 0 0 1-.46.32.63.63 0 0 1-.62-.18 1.3 1.3 0 0 1-.3-.5c-.02-.07 0-.12.04-.18.13-.16.3-.28.49-.38.08 0 .17 0 .25-.02a.67.67 0 0 1 .32.06c.3.15.42.41.36.77Z" fill="#030202"/><path d="M7.83 7.3c-.25.17-.37.47-.22.72.09.13.23.18.42.17.08-.01.15-.04.22-.1v.02a.63.63 0 0 1-.17.17.79.79 0 0 1-.5.04c-.15-.04-.24-.17-.29-.32-.05-.16-.1-.32 0-.47.12-.19.3-.27.53-.25.02 0 .02.01 0 .02ZM10.02 8.2c.38-.04.57-.35.38-.67-.09-.14-.21-.2-.39-.19v-.02c.2-.06.45.04.61.17.22.18.17.45.06.68-.07.15-.32.2-.47.19a.56.56 0 0 1-.33-.15c-.03-.03-.03-.04.01-.02l.13.02Z" fill="#fff"/><path d="M10.18 7.45c.12.04.18.17.2.28.03.09 0 .18-.08.26a.41.41 0 0 1-.31.13c-.06 0-.13-.03-.2-.1-.02 0-.02 0 0 0 .16.04.3 0 .42-.1.1-.09.1-.22.07-.34-.01-.05-.07-.09-.1-.13ZM7.67 7.62c0 .15.06.27.19.36.1.07.25.06.36.03.03-.01.03 0 0 0-.09.07-.19.12-.3.1-.25-.05-.3-.2-.28-.4 0-.03 0-.07.02-.1.01-.01.02-.01.01.01Z" fill="#C3E7EF"/><path d="M9.58 8.3c.15.08.3.12.47.11.22.06.43.03.62-.09h.26c.09 0 .16 0 .2.02.16.05.3.13.4.24.15.16.14.32.13.54a1.15 1.15 0 0 1-.1.45h.01l-.02.03c-.44.4-.7.9-1.17 1.4h-.02l.01-.04c.17-.23.29-.47.34-.74l.1-.63c0-.15.05-.3.16-.4.07-.07.15-.08.23-.03a.3.3 0 0 1 .14.15h.01l.02-.02v-.05c-.1-.13-.25-.26-.41-.14-.14.1-.2.24-.23.4l-.07.56-.1.4c-.08.24-.22.45-.42.61-.32.27-.85.24-1.2.02a.06.06 0 0 0-.07 0c-.2.19-.52.18-.76.07a1.04 1.04 0 0 1-.64-.76c-.07-.32.04-.69-.11-1.01a.55.55 0 0 0-.3-.3c-.16-.06-.38-.04-.45.14v.02h.02c.02.02.04.01.06 0a.21.21 0 0 1 .07-.07c.2-.09.38-.02.48.16.07.1.1.23.12.37v.53c0 .15.05.3.13.47a.1.1 0 0 1-.01.1c-.19-.2-.42-.4-.57-.6a2.58 2.58 0 0 1-.3-.51c-.19-.4-.2-.73.08-1.06.2-.24.5-.25.79-.18.27.07.5.1.73-.08l.29-.25c.12-.1.22-.17.29-.19.24-.08.48.1.64.27a.4.4 0 0 0 .15.1Z" fill="#403442"/><path d="M8.2 9.32a2.96 2.96 0 0 1 .52-.24.69.69 0 0 1 .3 0c.4.06 1 .29 1.05.74.03.29-.17.57-.44.7-.12.07-.2.17-.3.24-.14.09-.41.07-.56-.02-.08-.06-.15-.17-.22-.23a6 6 0 0 0-.25-.18c-.24-.18-.52-.49-.32-.79.05-.07.13-.14.22-.22Z" fill="#030202"/><path d="M9.64 9.94a.21.21 0 0 1-.1-.05c0-.02-.03-.05-.07-.08.02.01.03 0 .04-.01v-.04a.06.06 0 0 0-.03-.03 1.27 1.27 0 0 0-1.05.01c-.03.02-.05.04-.03.08-.05.01-.07.03-.07.07l-.25.1a.33.33 0 0 1-.04-.38c.14-.22.35-.32.62-.42a.46.46 0 0 1 .16-.04c.35 0 .81.13 1.04.4.11.13.18.33.1.49h-.03a.27.27 0 0 0-.29-.1Z" fill="#7A7A7A"/><path d="m8 12.21-.06-.2.02.03c.05.02.06.01.04-.03a4.2 4.2 0 0 1-.15-.33c-.02-.04-.04-.05-.08-.05a1.76 1.76 0 0 1-.18-.54 5.23 5.23 0 0 1 .24.36c.25.32.6.5 1.02.56.55.07 1.1-.21 1.38-.65l.16-.24c.22-.24.45-.52.67-.83a5.65 5.65 0 0 1 .58-.65c.18.18.37.17.6.25l.01.01a.02.02 0 0 1 0 .02c-.11.1-.23.2-.37.3-.1.07-.27.08-.4.1l-.02.04v.02l.01.01h.01c.21-.01.37-.04.51-.15H12c.01.18-.07.26-.23.34-.1.06-.4.21-.4.34h.01l.01.02h.03a1.4 1.4 0 0 1 .5-.33.01.01 0 0 1 0 .02l-.13.18c-.12.16-.18.25-.26.4l-.2.34-.17.32c-.05.1-.33.2-.52.25a9.3 9.3 0 0 1-.55.13c-.2.05-.38.07-.55.08h-.65a17.8 17.8 0 0 1-.9-.12Z" fill="#965B55"/><path d="m9.47 9.8.07.09c0 .01-.01.02-.03.01-.16-.07-.32-.1-.48-.11-.07 0-.19.01-.35.04a6.8 6.8 0 0 1-.35.06c0-.04.02-.06.07-.07l.3-.07c.28-.07.54-.05.77.06Z" fill="#030202"/><path d="m9.54 9.89.1.05a.54.54 0 0 0-.22.14c-.12.12-.08.28.1.32l.1.01c.04 0 .04.01 0 .04-.1.05-.18.12-.27.2-.09.1-.26.1-.39.08-.14-.02-.22-.12-.32-.25v-.02c0-.01 0-.03.02-.05.15-.24-.07-.47-.34-.42a.48.48 0 0 0-.16.07h-.03a.12.12 0 0 1-.05-.06l.25-.11.35-.06c.16-.03.28-.04.35-.04.16 0 .32.04.48.11l.03-.01Z" fill="#4F4F4F"/><path d="M10.22 11.11a.4.4 0 0 1 .01-.01c.03-.02.03-.01.03.01-.14.38-.49.66-.88.78-.38.1-.8.03-1.14-.17a1.54 1.54 0 0 1-.59-.75c0-.02 0-.03.02 0 .17.14.34.26.57.32a.79.79 0 0 0 .66-.1l.02-.01h.03c.39.22.92.22 1.27-.07Z" fill="#403442"/><path d="M10.27 11.74a2.16 2.16 0 0 0-.05.32h-.02l-.01-.04c0-.07.01-.17.04-.29.02-.12.04-.21.07-.28 0-.02.02-.03.03-.03h.02a.01.01 0 0 1 0 .02l-.08.3Z" fill="#030202"/><path d="m8.55 12.58-.01.28c0 .07 0 .12.04.16.02.02.01.03-.02.03l-.95-.06c-.12 0-.27-.04-.42-.1-.25-.11-.53-.4-.65-.62a4.22 4.22 0 0 1-.22-.5c.26.19.6.3.92.38.3.08.6.13.88.17.66.08 1.26.16 1.85.04a6.29 6.29 0 0 0 1.1-.3c-.07.22-.11.45-.13.67-.01.07-.05.1-.11.1a20.91 20.91 0 0 0-1.44.22c.1-.13.02-.37-.05-.49s-.21-.01-.18.1l.02.12c0 .04 0 .04-.03.01a.21.21 0 0 0-.05-.04c-.12-.07-.2-.05-.27.05-.01.01-.02.01-.02-.01 0-.1 0-.19-.07-.27a.13.13 0 0 0-.18-.01v.07Z" fill="#FFD931"/><path d="M8.7 12.6c.03.17.01.36.22.35h.01l.02.08-.01.02a.76.76 0 0 1-.26-.06.07.07 0 0 1-.03-.02.06.06 0 0 1-.02-.04v-.35l.02-.02c.03 0 .04.01.05.04ZM9.23 12.91c.05-.1.04-.14.02-.25v-.04c0-.04 0-.04.02 0 .05.08.08.19.08.3 0 .08-.04.1-.12.13l-.02-.01c0-.05 0-.08.02-.13Z" fill="#FFD931"/><path d="M8.93 12.86c-.03 0-.03 0-.03-.02l.02-.03.03-.02h.02c.22.03.15.28.13.43 0 .02-.01.03-.03.04h-.02c-.03-.02-.04-.03-.04-.06.02-.07.05-.38-.08-.34Z" fill="#FFD931"/><path d="M7.76 13.28c-.02.03-.02.06 0 .08l.05.1a1.6 1.6 0 0 1-.88-.61c-.02-.03-.02-.04.01-.01.28.2.64.25.99.25a19.63 19.63 0 0 1 1 .08c-.02.05 0 .1.03.13l.01.01a.02.02 0 0 1 0 .02v.01a4 4 0 0 1-.34.26c-.06.05-.07.08-.07.15v.02l-.02.02a.05.05 0 0 1-.05 0c-.04 0-.06 0-.1-.03l-.29-.17a1.18 1.18 0 0 1-.3-.3c-.01-.01-.02-.02-.04-.01Z" fill="#DDAC78"/><path d="m10.2 14.7-.1-.32a.82.82 0 0 0-.15-.26c0-.08.03-.15.06-.23a7.53 7.53 0 0 1 .26-.59h-.03c-.15.25-.28.44-.35.67a2.41 2.41 0 0 0-.7-.73c-.01-.06.04-.1.15-.1h.16a23.36 23.36 0 0 1 1.32-.2 2 2 0 0 1-.06.57c-.03.1-.12.24-.2.35-.16.22-.28.42-.32.64l-.04.2Z" fill="#965B55"/><path d="M9.9 13.97a.91.91 0 0 0 .02.63v.03a.62.62 0 0 0-.02.26c0 .02 0 .03-.02.02-.2-.1-.28-.29-.37-.42v-.03a.18.18 0 0 1 .11-.09 7 7 0 0 0 .1-.03c.06-.03.08-.08.08-.15a43.68 43.68 0 0 0-.02-.18.46.46 0 0 0-.17-.13h-.03l-.03.02h-.03v-.03a.2.2 0 0 0-.03-.18 1.5 1.5 0 0 0-.34-.35v-.02a.25.25 0 0 0 .04-.08c.3.2.53.45.7.73Z" fill="#DDAC78"/><path d="M9 13.59a.17.17 0 0 0-.06.03l-.2.17H8.7l-.04-.06a.03.03 0 0 1-.01-.03.03.03 0 0 1 .01-.02c.14-.09.27-.2.38-.3h.02c.17.12.3.26.39.4v.03l-.1.04H9.3c-.15-.19-.25-.27-.3-.26Z" fill="#FFD931"/><path d="M8.63 13.96a.23.23 0 0 0-.07-.1v-.02l.03-.03h.02c.06.1.12.1.2.03a1.56 1.56 0 0 0 .21-.16h.01l.22.23c.06.05.12.03.17 0 .06-.02.08 0 .05.05l-.02.02v.03c.03.07.13.14.13.21 0 .06-.03.1-.06.12-.05.04-.05.03-.02-.02.05-.06-.05-.15-.1-.17a.1.1 0 0 0-.11 0l-.22.16h-.03l-.21-.2a.1.1 0 0 0-.06-.03.1.1 0 0 0-.07.03l-.03.03h-.03l-.06-.08v-.03l.04-.04v-.02c.01 0 .01 0 0 0Z" fill="#FFD931"/><path d="M8.87 14.01 8.86 14a.05.05 0 0 1 .02-.06l.06-.05a.1.1 0 0 1 .04-.03.12.12 0 0 1 .08.01c.02 0 .03.02.04.03l.05.04.02.04a.1.1 0 0 1 .01.04.1.1 0 0 1-.03.08l-.06.05a.06.06 0 0 1-.05.02.06.06 0 0 1-.04-.02L8.87 14Z" fill="#030202"/><path d="M8.53 13.95v.02a.17.17 0 0 1-.07.04h-.05l-.02-.03v-.04l.02-.03.03-.03h.02l.07.07Z" fill="#FFD931"/><path d="m9.61 14.14-.07-.12v-.03c.03-.02.05-.03.08-.01.04.02.07.04.09.07.02.02.02.04 0 .06l-.06.04-.04-.01Z" fill="#DDAC78"/><path d="m8.34 14.2-.03-.03-.01-.03.01-.1h.01l.09.05v.01l-.05.1a.01.01 0 0 1-.02 0ZM8.6 14.2l-.07.14-.09-.12a.02.02 0 0 1 0-.02l.03-.1.01-.01a.02.02 0 0 1 .02 0l.1.1Z" fill="#F4BD2F"/><path d="M10.2 14.7a.2.2 0 0 1-.02.08h-.02c-.2-.14-.24-.43-.2-.66.08.11.13.2.14.26l.1.32Z" fill="#DDAC78"/><path d="m9 14.38.05.02.05-.01.22-.16a.05.05 0 0 1 .06 0l.03.02c.02.02.02.04 0 .06l-.3.27c-.01.02-.04.02-.06 0l-.33-.35v-.04c.03-.02.05-.02.08 0l.2.2Z" fill="#FFD931"/><path d="m8.95 14.82-.35-.37c-.01-.01-.02-.03 0-.04l.04-.1c0-.02.02-.02.03-.01l.36.37-.07.15ZM9.06 14.78l.02-.08c0-.02 0-.02.02-.03a.25.25 0 0 0 .1-.05 5.29 5.29 0 0 1 .22-.2c0 .05-.01.08-.02.09a9.42 9.42 0 0 1-.34.27Z" fill="#F4BD2F"/></svg>