<!-- by TradingView --><svg xmlns="http://www.w3.org/2000/svg" width="18" height="18"><path fill="url(#ahuxvjj3m)" d="M0 0h18v18H0z"/><path fill-rule="evenodd" d="M3.29 8.3a1 1 0 000 1.41l5 5a1 1 0 001.41 0l5-5a1 1 0 000-1.41l-5-5a1 1 0 00-1.41 0l-5 5zm2.51.22c-.07-.7.45-2.08 3.05-2.1 3.15-.04 3.3 1.5 3.35 2.04v.06c0 .02-.05.08-.26.08-.2 0-.65-.1-.85-.15-.05-.07-.18-.21-.31-.24-.11-.02-.18.08-.23.14l-.04.04h-.13c-.36-.03-1.43-.1-2.51 0-.01-.11-.09-.34-.34-.33-.25.02-.37.25-.4.37-.23 0-.82 0-1.33.09zm.12 1.7c.48.02 1.53.08 1.87.08.07.16.26.48.43.48.18 0 .5-.29.63-.44.92-.01 2.85-.1 3.18-.3.09.08.21.28.05.53l-.01.02c-.21.32-.65 1-2.93 1.02-2.34.03-3.11-.4-3.28-1.04-.04-.13-.1-.37.06-.36zm-.27-1.04c-.22.26-.24.46-.22.53 0 .11.13.23.22.24.05 0 .13-.1.23-.2.07-.09.15-.18.22-.22.1-.07.17.05.25.17.05.07.1.15.15.18.08.06.13 0 .19-.08.04-.05.1-.12.17-.17.11-.06.2.04.3.16.07.1.15.2.26.22.15.04.33-.21.47-.43.1-.13.17-.24.23-.26.07-.03.12.04.19.12.06.08.14.18.25.2.16.02.25-.1.35-.21l.1-.11c.08-.08.13.03.19.16.04.1.08.19.14.23.1.08.11.05.18-.05.02-.05.06-.12.13-.2.13-.18.24-.01.34.15.06.09.12.17.17.21.1.07.21-.06.32-.18.07-.1.15-.18.22-.19.08 0 .14.06.2.13s.12.13.2.13c.12 0 .18-.11.26-.24l.08-.13c.1-.13.61.41.86.7.33-.37.25-.62.17-.7-1.92-1.37-6.55-.5-6.82-.16z" fill="#F6B744"/><defs><linearGradient id="ahuxvjj3m" x1="3.35" y1="3.12" x2="21.9" y2="24.43" gradientUnits="userSpaceOnUse"><stop stop-color="#1A1E21"/><stop offset="1" stop-color="#06060A"/></linearGradient></defs></svg>