<!-- by TradingView --><svg width="18" height="18" xmlns="http://www.w3.org/2000/svg"><path fill="#F0B90B" d="M0 0h18v18H0z"/><path d="M11.04 5.283a.198.198 0 01.28 0l1.283 1.279a.197.197 0 010 .28l-5.777 5.786a.198.198 0 01-.28 0l-1.283-1.28a.197.197 0 010-.278l5.778-5.787zm2.34 2.315a.198.198 0 01.279 0l1.283 1.278a.197.197 0 010 .28l-5.778 5.786a.198.198 0 01-.279 0l-1.283-1.279a.197.197 0 010-.279l5.777-5.786zm-2.981-2.982a.197.197 0 000-.28L9.114 3.059a.198.198 0 00-.28 0l-3.52 3.527a.197.197 0 000 .279L6.59 8.15a.198.198 0 00.28 0l3.529-3.534zm-4.533 4.54a.197.197 0 000-.279L4.589 7.592a.198.198 0 00-.28 0L3.058 8.845a.197.197 0 000 .279l1.283 1.279a.198.198 0 00.28 0l1.245-1.247z" fill="#fff"/></svg>