<!-- by TradingView --><svg xmlns="http://www.w3.org/2000/svg" width="18" height="18"><path fill="url(#aq1vrktft)" d="M0 0h18v18H0z"/><path fill-rule="evenodd" d="M9 7.5a2.5 2.5 0 11-5 0 2.5 2.5 0 015 0zm-1 0a1.5 1.5 0 11-3 0 1.5 1.5 0 013 0zM6.49 13a2.2 2.2 0 01-2.16-2h.95a1.25 1.25 0 002.44 0h.93a2.2 2.2 0 01-2.16 2zm5.01-5a2.5 2.5 0 110 5 2.5 2.5 0 010-5zm0 1a1.5 1.5 0 110 3 1.5 1.5 0 010-3zm0-4c1.2 0 2.19 1 2.19 2.24 0 .34-.08.66-.21.95-.24-.21-.5-.4-.8-.52a1.25 1.25 0 10-2.36 0c-.3.13-.56.3-.8.52-.13-.29-.2-.6-.2-.95C9.31 6 10.28 5 11.5 5zM7 7.5a.5.5 0 11-1 0 .5.5 0 011 0zm4.5 3.5a.5.5 0 100-1 .5.5 0 000 1z" fill="#0A0000"/><defs><linearGradient id="aq1vrktft" x1="0" y1="9" x2="18" y2="9" gradientUnits="userSpaceOnUse"><stop stop-color="#D7B252"/><stop offset="1" stop-color="#EED362"/></linearGradient></defs></svg>