<!-- by TradingView --><svg width="18" height="18" xmlns="http://www.w3.org/2000/svg"><path d="M0 9a9 9 0 1118 0A9 9 0 010 9z" fill="url(#paint0_linear)"/><path d="M11 10.639C10.537 11.445 9.95 12 8.564 12 7.18 12 6 11.12 6 9.581 6 8.043 7.167 7 8.564 7c1.223 0 2.064.622 2.436 1.5h2c-.483-1.946-2.281-3.361-4.436-3.361C6.045 5.139 4 7.124 4 9.569 4 12.015 6.045 14 8.564 14c2.147 0 3.945-1.423 4.435-3.361H11z" fill="#FFB0C2"/><path d="M12.166 6.83c.477-.39.834-1.042.834-1.704A2.125 2.125 0 0010.876 3a2.137 2.137 0 00-2.124 2.14h.12c1.353 0 2.515.69 3.294 1.69z" fill="#CC91F0"/><path d="M10.88 7.251c.507 0 .921-.123 1.286-.42-.775-1.005-1.931-1.692-3.296-1.692h-.12a2.12 2.12 0 002.13 2.112z" fill="#CB65B7"/><defs><linearGradient id="paint0_linear" x1="3.349" y1="3.122" x2="21.904" y2="24.434" gradientUnits="userSpaceOnUse"><stop stop-color="#1A1E21"/><stop offset="1" stop-color="#06060A"/></linearGradient></defs></svg>