<!-- by TradingView --><svg width="18" height="18" xmlns="http://www.w3.org/2000/svg"><path d="M0 9a9 9 0 1118 0A9 9 0 010 9z" fill="#F0F3FA"/><path d="M13 11.068l-2.378.604-.133.4.374 1.41c1.192-.77 1.921-1.93 2.137-2.414zM9.918 13.874l.453-1.4.284 1.118c-.154.1-.555.23-.737.282zM10.186 11.798l-2.21.571 1.172 1.628c.167.015.423-.026.53-.049l.589-1.881-.08-.269zM7.752 12.428l-1.435.386c1.02.995 2.125 1.199 2.55 1.176l-1.115-1.562z" fill="#3E3A39"/><path d="M10.693 11.433l1.372-4.375c.771 1.566.629 3.253.462 3.902l-1.834.473z" fill="#595758"/><path d="M6.13 12.61c-.977-1.003-1.158-3.105-1.127-4.03l2.594 3.659-1.467.37zM10.356 11.498L8.426 4c1.634.803 2.895 2.539 3.32 3.306l-1.303 4.192h-.087z" fill="#888"/><path d="M5.505 8.876c.371-1.955 2.068-3.554 2.87-4.109l1.755 6.801-2.293.603-2.332-3.295z" fill="#68C6E0"/></svg>