<!-- by TradingView --><svg width="18" height="18" viewBox="0 0 18 18" xmlns="http://www.w3.org/2000/svg"><path fill="url(#a)" d="M0 0h18v18H0z"/><path d="M10.44 6.4c0-.23.17-.4.39-.4h.78c.22 0 .39.17.39.4v.83a.4.4 0 0 1-.4.4h-.77a.4.4 0 0 1-.4-.4V6.4ZM12.44 7.4c0-.23.17-.4.39-.4h.78c.22 0 .39.17.39.4v.77a.4.4 0 0 1-.4.4h-.77a.4.4 0 0 1-.4-.4V7.4ZM11.44 4.4c0-.23.17-.4.39-.4h.78c.22 0 .39.17.39.4v.77a.4.4 0 0 1-.4.4h-.77a.4.4 0 0 1-.4-.4V4.4ZM11.19 9.4c0-.22.17-.4.39-.4h1.03c.22 0 .39.18.39.4v2.2a.4.4 0 0 1-.4.4h-1.02a.4.4 0 0 1-.4-.4V9.4Z" fill="#10F077"/><path d="M6 5.4c0-.23.17-.4.4-.4h2.13c.22 0 .47.17.47.4v2.28c0 .04.04.07.08.07h1.1c.2 0 .38.17.38.4v.77c0 .04.03.08.07.08h1.97c.22 0 .4.17.4.4v.77a.4.4 0 0 1-.4.4h-2.2a.4.4 0 0 1-.4-.4V9.4c0-.04-.03-.08-.07-.08h-.54A.4.4 0 0 1 9 8.92v-.54H7.75a.4.4 0 0 1-.4-.4V7.3a.31.31 0 0 0-.3-.31h-.56c-.04 0-.07.04-.07.08v.53a.4.4 0 0 1-.39.39h-.39c-.04 0-.08.03-.08.07v2.86c0 .04.04.07.08.07h.97c.22 0 .39.17.39.4v.96c0 .04.03.08.07.08h2.86c.04 0 .07-.04.07-.08v-.78c0-.22.17-.4.4-.4h.7c.23 0 .4.18.4.4v.78a.4.4 0 0 1-.4.39h-.47c-.04 0-.07.04-.07.08v.78a.4.4 0 0 1-.4.39H6.4a.4.4 0 0 1-.4-.4v-.52c0-.04-.03-.08-.07-.08h-.54a.4.4 0 0 1-.39-.4v-.53c0-.04-.04-.07-.08-.07H4.4c-.22 0-.39-.37-.39-.59V7.84c0-.22.17-.4.4-.4h.52c.04 0 .08-.03.08-.07v-.48c0-.22.17-.39.4-.39h.53c.04 0 .07-.04.07-.08V5.4Z" fill="#10F077"/><defs><linearGradient id="a" x1="3.35" y1="3.12" x2="21.9" y2="24.43" gradientUnits="userSpaceOnUse"><stop stop-color="#1A1E21"/><stop offset="1" stop-color="#06060A"/></linearGradient></defs></svg>