<!-- by TradingView --><svg width="18" height="18" viewBox="0 0 18 18" xmlns="http://www.w3.org/2000/svg"><path fill="url(#az05ci021)" d="M0 0h18v18H0z"/><path fill-rule="evenodd" d="m5.02 6 1.13-1.5-2.22.68-.41.63.37 1.32 1.07.49-1.55.26L3 9.14l1.36.6 1.02-.3.14 1.17 1.35 2.94L9 15l2.13-1.45 1.35-2.94.14-1.18 1.02.3 1.36-.6-.4-1.25-1.56-.26 1.07-.49.37-1.32-.4-.63-2.23-.68L12.98 6l-.5.13-1.95-1.32L9 5 7.47 4.8 5.53 6.13l-.51-.12ZM3.69 8.19l1.66-.29v1.2l-.96.28-.96-.42.26-.77ZM5.74 6.4v.95l1.12.56L8.7 5.3l-1.13-.13L5.74 6.4Zm.2 4.13-.17-1.18 1.39-.3.47 1.54-.9 1.74-.8-1.8ZM4.78 6.3l.56.16v.95l-1.04-.47.48-.64Zm-.82-.23.15.54.31-.41-.46-.13Zm1.27-.94-.6.78L4 5.73l.17-.26 1.08-.33ZM7.2 8.02 9 5.46l1.79 2.56-.2.62H7.4l-.19-.62Zm3.93-.1 1.12-.57V6.4l-1.82-1.24-1.13.13 1.83 2.62Zm.13 4.42v-.01l.8-1.8.16-1.18-1.39-.3-.47 1.54.9 1.75Zm1.38-4.92v-.95l.56-.16.48.64-1.04.47Zm1.23-.8-.31-.41.46-.13-.15.54Zm-.53-.7.66-.19-.17-.26-1.08-.33.6.78Zm-.7 3.17v-1.2l1.66.29.26.77-.96.42-.96-.28Zm-2.11 2.6.56 1.08-.17.36-1.53-.43.2-.19.22-.16v-.03l.72-.64Zm.15 1.72L9 14.57 7.31 13.4 9 12.94l1.69.47ZM9.5 12.16l-.5.39-.5-.38-.03-.1-.42-1.34h1.9l-.43 1.38-.02.05Zm-2.04-.48-.56 1.09.17.36 1.53-.43-.2-.19-.22-.16v-.03l-.72-.64Zm2.6-1.28H7.94l-.42-1.36h2.94l-.42 1.36Z" fill="url(#bz05ci021)"/><defs><linearGradient id="az05ci021" x1="3.35" y1="3.12" x2="21.9" y2="24.43" gradientUnits="userSpaceOnUse"><stop stop-color="#1A1E21"/><stop offset="1" stop-color="#06060A"/></linearGradient><linearGradient id="bz05ci021" x1="15" y1="9.75" x2="3" y2="9.75" gradientUnits="userSpaceOnUse"><stop stop-color="#F86"/><stop offset=".49" stop-color="#A5A9DB"/><stop offset="1" stop-color="#FEFEFF"/></linearGradient></defs></svg>