<!-- by TradingView --><svg width="18" height="18" xmlns="http://www.w3.org/2000/svg"><path fill="#F0F3FA" d="M0 0h18v18H0z"/><path d="M4.782 11.88c-.42-1.274-.035-2.395.21-2.796-.22-1.005-.662-3.01-.675-2.998-.724 2.512-.04 4.936.394 5.834l.07-.04z" fill="url(#paint0_linear)"/><path d="M4.284 6.376c.06-.48.366-1.056.56-1.323l3.555-.89c.312.03 2.19.685 2.96 1.138-.443-.09-1.137.546-1.115.976-.344-.14-1.195-.439-1.845-.499-.812-.075-.42.67-.372 1.357.22 1.46-.115 1.63-.631 2.383-.182-.367-.583-1.064-1.3-1.111-.573-.038-1.13.678-1.252.942-.031-.029-.14-.506-.2-.701a3.966 3.966 0 01-.36-2.272z" fill="url(#paint1_linear)"/><path d="M4.67 6.35a2.012 2.012 0 010-.943c.099-.374.596-1.167 1.79-1.352 1.192-.185 2.258.143 2.643.348.107.273.21.806-.533.599-1.084-.308-1.251.099-1.162.66.242 1.242.1 2.073 0 2.334 0 0-.323.804-.591.55-.458-.451-.883-.363-1.352-.242-.375.097-.488-.165-.497-.308a29.37 29.37 0 00-.299-1.647z" fill="url(#paint2_linear)"/><path d="M5.719 4.275c-.851.4-.543 1.961-.278 2.733.289-.178 1.174-.107 1.445.178-.405-2.266.552-3.173.841-3.155 0 0-.475-.05-.805-.023-.396.023-.823.088-1.203.267z" fill="url(#paint3_linear)"/><path d="M12.457 7.752c-.672.74-2.87 1.043-3.885 1.102.211 1 .02 2.524-.103 3.16 1.308-.407 4.03-1.243 4.452-1.328.528-.107 1.175-.925 1.067-2.115-.107-1.19-1.1-1.265-1.53-.819z" fill="url(#paint4_linear)"/><path d="M8.06 6.875c-.16.067.363 1.354.531 1.998 2.626-.194 3.501-.836 3.512-.836-1.472-1.203-3.844-1.245-4.044-1.162z" fill="url(#paint5_linear)"/><path d="M12.423 7.796c-.39-1.451-4.041-2.238-4.416-1.983-.224.152-.133.74 0 1.072 1.81-.174 3.507.698 4.078 1.144a.988.988 0 00.338-.233z" fill="url(#paint6_linear)"/><path d="M10.8 5.098c-.6-.109-.64.653-.557 1.078 1.6.623 2.136 1.55 2.175 1.609.731-.614 1.475.072 1.542.595-.08-1.699-2.343-3.134-3.16-3.282z" fill="url(#paint7_linear)"/><path d="M13.012 8.096c-.763.143-.7-.172-.572-.348.404-.488 1.096-.203 1.391 0 .045.057-.057.205-.82.348z" fill="url(#paint8_linear)"/><ellipse rx="1.606" ry="2.445" transform="rotate(-4.426 143.535 -74.733) skewX(.127)" fill="url(#paint9_linear)"/><path d="M5.972 9.515c-.534.097-.975-.068-1.13-.163.146-.29.526-.92 1.246-.968.65-.043 1.066.474 1.253.864-.272-.021-.834.169-1.369.267z" fill="url(#paint10_linear)"/><path d="M6.78 14c.915.02 1.497-1.164 1.674-1.758l-.866-.067c-.079.346-.479 1.011-1.23 1.096-.797.09-1.391-.899-1.576-1.396a.17.17 0 01-.074.042c.243.746.928 2.058 2.072 2.083z" fill="url(#paint11_linear)"/><path d="M6.78 14c.915.02 1.497-1.164 1.674-1.758l-.866-.067c-.079.346-.479 1.011-1.23 1.096-.797.09-1.391-.899-1.576-1.396a.17.17 0 01-.074.042c.243.746.928 2.058 2.072 2.083z" fill="url(#paint12_linear)"/><path d="M7.893 6.547C8.305 7.857 7.787 9 7.444 9.44c.538 1.233.149 2.45.149 2.795 0 .345.748.253.864 0 .432-1.32.408-3.66-.564-5.688z" fill="url(#paint13_linear)"/><defs><linearGradient id="paint0_linear" x1="4.641" y1="8.227" x2="2.807" y2="10.927" gradientUnits="userSpaceOnUse"><stop stop-color="#FF9100"/><stop offset=".314" stop-color="#D4FF23"/><stop offset=".49" stop-color="#87FF70"/><stop offset=".688" stop-color="#1CFFDB"/><stop offset="1" stop-color="#00BEFF"/></linearGradient><linearGradient id="paint1_linear" x1="5.569" y1="4.571" x2="8.545" y2="6.881" gradientUnits="userSpaceOnUse"><stop stop-color="#FF4E00"/><stop offset="1" stop-color="#FF7300"/></linearGradient><linearGradient id="paint2_linear" x1="7.853" y1="4.879" x2="9.307" y2="5.083" gradientUnits="userSpaceOnUse"><stop stop-color="#FA0F00"/><stop offset="1" stop-color="#FF6E01"/></linearGradient><linearGradient id="paint3_linear" x1="5.453" y1="5.116" x2="6.417" y2="7.713" gradientUnits="userSpaceOnUse"><stop stop-color="#A80000"/><stop offset="1" stop-color="#FA0F01"/></linearGradient><linearGradient id="paint4_linear" x1="10.768" y1="8.518" x2="11.435" y2="11.139" gradientUnits="userSpaceOnUse"><stop stop-color="#FFE600"/><stop offset=".469" stop-color="#7AFF7D"/><stop offset=".891" stop-color="#1CFFDB"/><stop offset="1" stop-color="#00DCFE"/></linearGradient><linearGradient id="paint5_linear" x1="10.16" y1="7.475" x2="9.893" y2="8.739" gradientUnits="userSpaceOnUse"><stop stop-color="#F1FC06"/><stop offset=".469" stop-color="#7AFF7D"/><stop offset="1" stop-color="#1CFFDB"/></linearGradient><linearGradient id="paint6_linear" x1="8.737" y1="6.34" x2="10.88" y2="8.875" gradientUnits="userSpaceOnUse"><stop stop-color="#FFC100"/><stop offset="1" stop-color="#F1FC06"/></linearGradient><linearGradient id="paint7_linear" x1="10.422" y1="5.088" x2="13.707" y2="7.94" gradientUnits="userSpaceOnUse"><stop stop-color="#FF7301"/><stop offset="1" stop-color="#FFE601"/></linearGradient><linearGradient id="paint8_linear" x1="13.101" y1="7.479" x2="13.101" y2="8.132" gradientUnits="userSpaceOnUse"><stop stop-color="#FFC801"/><stop offset="1" stop-color="#FFE601"/></linearGradient><linearGradient id="paint9_linear" x1="1.02" y1=".343" x2="1.59" y2="4.892" gradientUnits="userSpaceOnUse"><stop stop-color="#FFA300"/><stop offset=".214" stop-color="#DEFF19"/><stop offset=".464" stop-color="#A4FF53"/></linearGradient><linearGradient id="paint10_linear" x1="3.951" y1="8.864" x2="7.249" y2="9.19" gradientUnits="userSpaceOnUse"><stop stop-color="#FF8A01"/><stop offset="1" stop-color="#FFDB00"/></linearGradient><linearGradient id="paint11_linear" x1="7.871" y1="12.657" x2="6.596" y2="13.913" gradientUnits="userSpaceOnUse"><stop stop-color="#14F3E6"/><stop offset="1" stop-color="#0040FF"/></linearGradient><linearGradient id="paint12_linear" x1="4.985" y1="12.101" x2="6.293" y2="12.951" gradientUnits="userSpaceOnUse"><stop stop-color="#09D3F3"/><stop offset="1" stop-color="#0001FC" stop-opacity="0"/></linearGradient><linearGradient id="paint13_linear" x1="7.753" y1="9.271" x2="8.676" y2="13.143" gradientUnits="userSpaceOnUse"><stop stop-color="#FF9100"/><stop offset=".314" stop-color="#D4FF23"/><stop offset=".49" stop-color="#87FF70"/><stop offset=".688" stop-color="#1CFFDB"/><stop offset="1" stop-color="#00D8FF"/></linearGradient></defs></svg>