<!-- by TradingView --><svg xmlns="http://www.w3.org/2000/svg" width="18" height="18" viewBox="0 0 18 18"><path fill="#3A3A3A" d="M0 0h18v18H0z"/><path d="M10.26 5.88h-.63V7h.63V5.88zM8.37 4h-.63v1h.63V4z" fill="#1682FE"/><path d="M6.17 5h-.63v1.19h.63V5z" fill="#60D8A4"/><path d="M5.23 9H4.6v3h.63V9z" fill="#F4BB3B"/><path d="M5.23 6H4.6v3h.63V6z" fill="#60D8A4"/><path d="M11.52 6.81h-.63V8h.63V6.81z" fill="#1682FE"/><path d="M11.52 10h-.63v1.19h.63V10zM10.26 11h-.63v1.13h.63V11zM8.4 12.95h-.75V14h.75v-1.05z" fill="#FF5A5A"/><path d="M6.17 11.81h-.63V13h.63v-1.19z" fill="#F4BB3B"/><path d="M13.4 8V6h-.94V5h-2.2V4H8.37v1h-2.2v1h-.94v6h.94v1h2.2v1h1.89v-1h2.2v-1h.94v-2h-1.88v1h-1.26v1H8.37v-1H7V7h1.38V6h1.89v1h1.26v1h1.88z" fill="#fff"/></svg>