<!-- by TradingView --><svg width="18" height="18" viewBox="0 0 18 18" xmlns="http://www.w3.org/2000/svg"><path fill="url(#a)" d="M0 0h18v18H0z"/><path fill-rule="evenodd" d="M7.43 6.18H7.4l-.17-.13a23.55 23.55 0 0 0-.94-.7 2.2 2.2 0 0 0-.8-.25h-.36l-.15.04a.54.54 0 0 0-.33.29 1 1 0 0 0-.12.7c.04.13.1.26.2.37.09.11.19.2.29.29l.52.4.17.15.05.04c.06.06.1.15.13.24a110 110 0 0 1 .54 2.07 14.89 14.89 0 0 1 .18 2c.04.32.13.63.26.93l.24.48c.04.08.09.15.14.2.15.18.32.33.52.46.15.1.3.18.46.22.05.02.1.02.14.02.55-.03 1.03-.2 1.44-.53.19-.16.36-.34.51-.53a5 5 0 0 0 .61-1.1c.1-.26.19-.48.24-.65.25-.78.37-1.45.55-2.34l.06-.31.06-.31v-.02c.05-.19.09-.35.18-.5.04-.05.14-.1.2-.13.38-.17.68-.31.9-.45.4-.22.67-.53.83-.95a.7.7 0 0 0 .06-.23V5.7c0-.1-.05-.17-.12-.24A1.36 1.36 0 0 0 12.7 5c-.19.01-.36.04-.5.09-.23.06-.46.15-.7.25a26.35 26.35 0 0 0-.9.44l-.03.02c-.2.1-.38.17-.58.24-.1.03-.21.04-.32.05l-.18-.03a3.1 3.1 0 0 0-.67-.08l-.16.02a4.41 4.41 0 0 0-.93.14l-.3.03Zm3.38.67-.07-.01c-.1-.02-.17-.08-.18-.17l.02-.01h.04c.11-.02.32-.04.26-.2-.03-.06-.1-.09-.16-.13h-.02l-.02-.02v-.02c.02-.07.08-.09.15-.09l.23-.01c.04 0 .06-.02.08-.06.03-.03.1-.1.16-.07l.1.07v.02l-.09.09a.02.02 0 0 0 0 .02v.01l.1.09v.02h-.02l-.12.03c-.15.04-.15.18-.15.3 0 .15-.01.28-.2.28h-.01a.2.2 0 0 1-.09-.13l-.01-.01ZM9.7 8.3c.08-.1.17-.18.29-.23a.5.5 0 0 1 .62.14c.11.13.2.27.23.44a1.87 1.87 0 0 0 .07.33v.18c-.03.13-.08.26-.15.39a.44.44 0 0 1-.33.23.88.88 0 0 1-.33 0 3.43 3.43 0 0 1-.3-.06.74.74 0 0 1-.25-.13.56.56 0 0 1-.2-.39c-.02-.33.12-.65.34-.9Zm-1.85.94c.07-.1.1-.22.1-.35a.63.63 0 0 0-.1-.36.58.58 0 0 0-.57-.27c-.1.01-.18.05-.27.12a.64.64 0 0 0-.21.5c0 .19.06.38.2.5.1.08.19.12.28.13.25.02.44-.07.57-.27ZM9.6 13c-.2.38-.67.6-1.1.66-.17.02-.32.01-.45-.03a.68.68 0 0 1-.38-.24.6.6 0 0 1-.12-.3 1.94 1.94 0 0 1 0-.35c.01-.18.05-.32.1-.45a.66.66 0 0 1 .1-.17c.11-.14.29-.28.46-.34.45-.18.97-.04 1.27.3a.8.8 0 0 1 .12.92Z" fill="#fff"/><defs><linearGradient id="a" x1="3.35" y1="3.12" x2="21.9" y2="24.43" gradientUnits="userSpaceOnUse"><stop stop-color="#1A1E21"/><stop offset="1" stop-color="#06060A"/></linearGradient></defs></svg>