<!-- by TradingView --><svg width="18" height="18" viewBox="0 0 18 18" xmlns="http://www.w3.org/2000/svg"><path fill="#181B1E" d="M0 0h18v18H0z"/><path d="M9 4a5 5 0 1 1-.37 9.98L8.6 14l-.01-.02A5 5 0 0 1 9 4Zm-.66 8.64.56 1.04H9c.76 0 1.48-.18 2.12-.5l-2.4-4.4-.38 3.86ZM4.45 7.86a4.7 4.7 0 0 0 3.96 5.79L5.22 7.6l-.77.25Zm5.3 1.3-.19.3 1.92 3.52c.48-.3.9-.69 1.25-1.14l-.3-.07-2.47-2.82-.13-.04-.09.25ZM8 11.98 8.3 9l-.46.46-.6.18-.6-1.13-.74-.5L8 11.97Zm1-7.67a4.69 4.69 0 0 0-4.4 3.06l.76-.25 1.59 1.1.5.92.18-.05.88-.9.47.2.35.65.04-.07.21-.58.61.19 2.47 2.81.32.09A4.69 4.69 0 0 0 9 4.32Z" fill="#FDFEFC"/></svg>