<!-- by TradingView --><svg width="18" height="18" xmlns="http://www.w3.org/2000/svg"><path d="M0 9a9 9 0 1118 0A9 9 0 010 9z" fill="#014A7F"/><path d="M4 14l1.518-6.787H7.18l.386-1.786h1.662l.314-1.397c4.877-.369 5.648 2.788 5.424 4.412C14.248 12.777 10.623 14 8.539 14H4z" fill="#fff"/><path d="M14.159 7.35c-.55-2.465-2.927-2.775-4.047-2.637l-.176.714c3.387.075 3.566 2.625 3.207 3.846-.802 2.439-3.388 3.297-4.419 3.297h-2.75L7.016 8H6.05l-1.158 5.284h3.231c1.854 0 2.878-.498 3.4-.806 1.14-.673 3.185-2.663 2.636-5.128z" fill="#014A7F"/><path d="M10.368 6.141H8.093L7.87 7.213h2.334c.466 0 1.161.254 1.1 1.133-.067.94-.976 1.424-1.422 1.548l.485 1.56c.734-.294 2.163-1.393 2.225-3.018.062-1.625-1.532-2.295-2.225-2.295z" fill="#014A7F"/><path d="M6.83 11.856L7.733 8h1.592c.44 0 1.195-.032 1.148.538-.051.617-.787.736-1.148.72H8.055l-.156.667h1.134l.506 1.826a2.265 2.265 0 01-.506.105H6.831z" fill="#014A7F"/></svg>