<!-- by TradingView --><svg width="18" height="18" viewBox="0 0 18 18" xmlns="http://www.w3.org/2000/svg"><path fill="#24201F" d="M0 0h18v18H0z"/><path fill-rule="evenodd" d="M11.15 7.69a21.03 21.03 0 0 0-.67.63l-.8-.8a.01.01 0 0 1 0-.01.01.01 0 0 1 0-.01l.5-.5c.22-.21.38-.45.47-.73A1.74 1.74 0 0 0 8.4 4.1a1.73 1.73 0 0 0-.64 2.83 213.32 213.32 0 0 1 .55.59l-.8.8a.02.02 0 0 1-.02 0l-.39-.39c-.17-.17-.3-.3-.4-.36-.6-.42-1.49-.4-2.08.1-.4.32-.6.74-.63 1.25a1.74 1.74 0 0 0 2.8 1.44c.15-.12.3-.27.44-.42a8.86 8.86 0 0 1 .29-.25l.79.78a.02.02 0 0 1 0 .03l-.4.4c-.18.18-.3.32-.38.43a1.73 1.73 0 1 0 2.86-.09 3.5 3.5 0 0 0-.35-.37 14.2 14.2 0 0 1-.36-.39l.78-.79a.03.03 0 0 1 .03 0 .03.03 0 0 1 .02 0l.47.47a1.75 1.75 0 0 0 1.9.45 1.74 1.74 0 0 0 .62-2.81 1.7 1.7 0 0 0-1.32-.53c-.38.02-.78.17-1.04.42ZM9.57 6.27a.78.78 0 1 0-1.28-.87c-.18.36-.05.69.23.96.17.16.32.3.46.46h.04l.55-.55ZM8.99 9.8l-.8-.78a.02.02 0 0 1 0-.04L9 8.2A.02.02 0 0 1 9 8.19h.01l.79.8a.02.02 0 0 1 0 .02l-.79.8a.03.03 0 0 1-.03 0Zm-2.7-1.35a.79.79 0 0 0-1.24.16c-.19.31-.12.73.16.98.24.2.59.25.87.11.1-.04.2-.13.33-.26a10.48 10.48 0 0 1 .42-.45v-.01l-.54-.53Zm5.98 1.33c-.3.02-.5-.03-.7-.22a29.67 29.67 0 0 1-.55-.57l.54-.54a.7.7 0 0 1 .4-.22h.36c.48.01.83.5.71.94a.8.8 0 0 1-.76.61Zm-4.01 2.23a.73.73 0 0 0 .04.61c.16.3.4.44.73.43.14 0 .27-.04.4-.12a.79.79 0 0 0 .29-.98 1.2 1.2 0 0 0-.3-.38 9.76 9.76 0 0 1-.43-.4l-.45.45a1.1 1.1 0 0 0-.28.4Z" fill="#F1E1D4"/></svg>