<!-- by TradingView --><svg width="18" height="18" viewBox="0 0 18 18" xmlns="http://www.w3.org/2000/svg"><path fill="url(#a5cpodmdl)" d="M0 0h18v18H0z"/><path fill-rule="evenodd" d="M15 9A6 6 0 1 1 3 9a6 6 0 0 1 12 0Zm-.5 0a5.5 5.5 0 1 1-11 0 5.5 5.5 0 0 1 11 0ZM12 10h-.5v1.5H8.13l2.2-2.5-2.2-2.5h3.37V8h.5V6H7.5L5 9l2.5 3H12v-2ZM7.64 6.82 5.78 9l1.86 2.19 1.88-2.19-1.88-2.17Z" fill="#fff"/><defs><linearGradient id="a5cpodmdl" x1="3.35" y1="3.12" x2="21.9" y2="24.43" gradientUnits="userSpaceOnUse"><stop stop-color="#1A1E21"/><stop offset="1" stop-color="#06060A"/></linearGradient></defs></svg>