<!-- by TradingView --><svg width="18" height="18" viewBox="0 0 18 18" xmlns="http://www.w3.org/2000/svg"><path fill="#181B1E" d="M0 0h18v18H0z"/><path d="M13.8 11a4.93 4.93 0 0 1-4.63 3A5.15 5.15 0 0 1 4 9.03 5.1 5.1 0 0 1 9.14 4c2.5.03 4.92 1.9 4.86 4.44-.04 1.65-1.16 3.04-3 3.06a3.11 3.11 0 0 1-2.58-1.41c-.32-.44-.74-1.25-1.37-1.25-.72 0-1.06.67-1.05 1.25.03 1.6 1.68 2.82 3.17 2.85.3 0 .53-.02.83-.08-.34.11-.6.2-.94.2a3.8 3.8 0 0 1-3.73-3.8C5.34 7.7 6.47 6 8.17 6c.93 0 1.64.51 2.25 1.13.15.14.4.3.64.3.37.01.62-.32.62-.62C11.67 5.56 9.68 5 8.55 5 6.2 5 4.47 7.16 4.5 9.3a4.6 4.6 0 0 0 4.56 4.39 5.1 5.1 0 0 0 4.29-2c.15-.21.28-.38.45-.69Z" fill="#fff"/></svg>