<!-- by TradingView --><svg width="18" height="18" viewBox="0 0 18 18" xmlns="http://www.w3.org/2000/svg"><path fill="#181B1E" d="M0 0h18v18H0z"/><path d="M4.47 12.07c.55.7 1.5.94 2.62.93a7.45 7.45 0 0 0 4.03-1.25c2.5-1.66 3.58-4.23 2.4-5.72-1.16-1.49-4.14-1.35-6.64.32-2.5 1.67-3.58 4.23-2.4 5.72ZM11 7.57c0 .47-.04 1.63-1.18 2.4a3.5 3.5 0 0 1-2.04.61c-.43 0-.55-.05-.78-.15.04-.21-.05-1.5 1.1-2.26.78-.52 1.61-.89 2.3-.88.41 0 .36.12.6.28Z" fill="url(#aj1e3paap)"/><path d="M4.5 12.1c.54.68 1.47.9 2.56.9 1.26 0 2.73-.36 4.06-1.25 2.43-1.62 3.52-4.08 2.5-5.6-.32-.19-1-.58-1.65-.58C10.69 5.57 6 6.63 6 9.17c0 .9 1.07 1.32 1 1.26.04-.21-.05-1.5 1.1-2.26a4.5 4.5 0 0 1 2.11-.84c.14 0 .63.1.79.26.13.15.31.58.31 1.27 0 .88-1.24 3.57-5.32 3.57-.62 0-1.11-.12-1.5-.33Z" fill="url(#bj1e3paap)"/><path d="m13.6 6.12-.54-.26c.13.13.32.57.31 1.28 0 .36-.07.8-.23 1.3.2-.36.63-1.23.7-1.85a2.9 2.9 0 0 0-.24-.47Z" fill="#DE91D6"/><path d="M13.83 6.56c-.4 1.72-2.1 5.19-5.9 6.39a7.84 7.84 0 0 0 3.19-1.2c2.22-1.48 3.32-3.67 2.71-5.19Z" fill="url(#cj1e3paap)"/><defs><linearGradient id="aj1e3paap" x1="13.77" y1="10.54" x2="3.8" y2="10.65" gradientUnits="userSpaceOnUse"><stop offset=".21" stop-color="#426ED2"/><stop offset="1" stop-color="#58B3E7"/></linearGradient><linearGradient id="bj1e3paap" x1="14.02" y1="8.03" x2="6.97" y2="10.37" gradientUnits="userSpaceOnUse"><stop stop-color="#DC7BC9"/><stop offset="1" stop-color="#5B3CE6"/></linearGradient><linearGradient id="cj1e3paap" x1="14.02" y1="6.55" x2="9.48" y2="13.38" gradientUnits="userSpaceOnUse"><stop stop-color="#DC7BC9"/><stop offset="1" stop-color="#5B3CE6"/></linearGradient></defs></svg>