<!-- by TradingView --><svg width="18" height="18" viewBox="0 0 18 18" xmlns="http://www.w3.org/2000/svg"><path fill="#1B2B3A" d="M0 0h18v18H0z"/><path d="M4.1 7.48c-.24-.45-.03-.98.46-1.2l5.03-2.2a1.02 1.02 0 0 1 1.31.44c.24.45.03.98-.46 1.2L5.4 7.92c-.5.2-1.08.01-1.31-.44Z" fill="#37BEC1"/><path d="M4.1 11.52c-.23-.42-.03-.92.44-1.12l3.11-1.32c.47-.2 1.04-.02 1.26.4.22.42.02.92-.45 1.12l-3.11 1.32c-.47.2-1.04.02-1.26-.4Z" fill="#FAB244"/><path d="M7.1 13.48c-.24-.45-.03-.98.46-1.2l5.03-2.2a1.02 1.02 0 0 1 1.31.44c.24.45.03.98-.46 1.2l-5.03 2.2c-.5.2-1.08.01-1.31-.44Z" fill="#E5615D"/></svg>