<!-- by TradingView --><svg width="18" height="18" viewBox="0 0 18 18" xmlns="http://www.w3.org/2000/svg"><path fill="#205976" d="M0 0h18v18H0z"/><path fill-rule="evenodd" d="M4 6.6c0-.54.28-1.03.74-1.29L8.4 3.26a1.98 1.98 0 0 1 1.96 0L13.39 5c.78.45.82 1.58.06 2.08l-.69.45.61.34c.84.47.84 1.7 0 2.18l-.66.38.66.37c.84.47.84 1.7 0 2.17l-3.16 1.8a1.8 1.8 0 0 1-1.8-.02l-3.58-2.1A1.7 1.7 0 0 1 4 11.2V6.6ZM8.85 4.1c.33-.18.71-.18 1.03 0l3 1.74c.08.04.12.12.12.2 0 .08-.03.16-.1.2l-1.2.82-1.6.93a1.4 1.4 0 0 1-1.4 0L6.27 6.64A1.31 1.31 0 0 0 5 6.6c0-.19.1-.35.25-.44l3.6-2.05ZM5.33 7.53a.89.89 0 0 0-.33.7v1.25s.55-.36.88-.18l3 1.68c.27.15.6.16.87 0l3.12-1.79c.09-.05.13-.14.13-.24a.27.27 0 0 0-.14-.22l-1.04-.61-1.25.72c-.72.42-1.6.43-2.33.02L5.8 7.49c-.17-.1-.32-.08-.48.04Zm0 2.94c-.21.16-.33.4-.33.67v.05c0 .26.09.49.3.62l3.59 2.1c.26.15.59.15.86 0l3.12-1.79c.09-.05.13-.14.13-.23 0-.1-.05-.19-.14-.24l-1.04-.6-1.25.72c-.72.42-1.6.42-2.33.02L5.8 10.42c-.17-.1-.32-.08-.48.04Z" fill="#fff"/></svg>