<!-- by TradingView --><svg width="18" height="18" viewBox="0 0 18 18" xmlns="http://www.w3.org/2000/svg"><path fill="#181B1E" d="M0 0h18v18H0z"/><path d="M5.05 5.68 9 4.2v7.08H5.05v-5.6Z" fill="url(#a)"/><path d="M13 5.67 9 4.33v7h4V5.67Z" fill="url(#b)"/><path d="M4 10.83 6.38 9.3l-.13-1.7L4 9v1.83Z" fill="url(#c)"/><path d="M9 4.76 4 7.8V6.06L9 3l4 2.67-1.38.79L9 4.76Z" fill="url(#d)"/><path d="m9 6.33 1.56.84L9 8l-1.56-.83L9 6.33Z" fill="#21DBDA"/><path d="m9 8.97 3.65 2.2L9 13.35l-3.64-2.2L9 8.96Z" fill="url(#e)"/><path d="m9 8 1.56-.83v3.95L9 12V8Z" fill="url(#f)"/><path d="m9 8-1.56-.83v3.95L9 12V8Z" fill="url(#g)"/><path d="m9 9.24 5-3.17v5.87L9 15l-5-3.07V9l1.56.82v1.25L9 13.24l3.44-2.17V8.72L9 11V9.24Z" fill="url(#h)"/><path d="m4 6.07 5 3.17V11L4 7.84V6.07Z" fill="url(#i)"/><defs><linearGradient id="a" x1="7.03" y1="4.2" x2="7.03" y2="11.28" gradientUnits="userSpaceOnUse"><stop stop-color="#034A66"/><stop offset="1" stop-color="#01637C"/></linearGradient><linearGradient id="b" x1="11.03" y1="4.33" x2="11.03" y2="11.33" gradientUnits="userSpaceOnUse"><stop stop-color="#006D81"/><stop offset="1" stop-color="#003050"/></linearGradient><linearGradient id="c" x1="4.35" y1="8.68" x2="5.45" y2="9.94" gradientUnits="userSpaceOnUse"><stop stop-color="#0196A6"/><stop offset="1" stop-color="#02879B"/></linearGradient><linearGradient id="d" x1="10.25" y1="3.92" x2="4.22" y2="6.21" gradientUnits="userSpaceOnUse"><stop stop-color="#1DD8D9"/><stop offset="1" stop-color="#14BAC8"/></linearGradient><linearGradient id="e" x1="6.85" y1="10.35" x2="8.57" y2="13.29" gradientUnits="userSpaceOnUse"><stop stop-color="#02627A"/><stop offset="1" stop-color="#003F60"/></linearGradient><linearGradient id="f" x1="9.78" y1="7.33" x2="9.78" y2="12" gradientUnits="userSpaceOnUse"><stop stop-color="#025E77"/><stop offset="1" stop-color="#003652"/></linearGradient><linearGradient id="g" x1="8.22" y1="7.33" x2="8.22" y2="12" gradientUnits="userSpaceOnUse"><stop stop-color="#03768B"/><stop offset="1" stop-color="#004260"/></linearGradient><linearGradient id="h" x1="14" y1="10.54" x2="4" y2="10.54" gradientUnits="userSpaceOnUse"><stop stop-color="#0883AB"/><stop offset="1" stop-color="#1FE4DD"/></linearGradient><linearGradient id="i" x1="9" y1="8.49" x2="4" y2="8.49" gradientUnits="userSpaceOnUse"><stop stop-color="#18B1C3"/><stop offset="1" stop-color="#22EAE7"/></linearGradient></defs></svg>