<!-- by TradingView --><svg xmlns="http://www.w3.org/2000/svg" width="18" height="18"><path fill="#D5EEEF" d="M0 0h18v18H0z"/><path d="M10.1 9.23C9.77 7.21 9.46 5.82 9 5.2c-.46-.16-1.82-.38-2.32 0-.5.37-.57 2.01-.62 2.79l1.86.62 1.4 1.7h.46c.16-.05.44-.34.31-1.08z" fill="#B9E3E1"/><path d="M11.33 5.5v.88l-.01.02a1 1 0 00-.3.7v.27h-.62V6.5c0-.05.02-.09.05-.12l.88-.88z" fill="#A39F99"/><path d="M5.75 7.99c0-.77.31-2.11.47-2.68l.3.08c-.16.57-.46 1.88-.46 2.6h-.31zm1.42-1.34c.1-.53.21-1.05.29-1.34l.3.08a17.52 17.52 0 00-.46 2.75h-.31c0-.38.08-.95.18-1.49zm2.38-.57c-.07-.22-.14-.39-.2-.49l.25-.17c.09.14.17.34.25.57a8.3 8.3 0 01.4 2.31h-.31a8.01 8.01 0 00-.39-2.22z" fill="#47443D"/><path d="M5.75 4.58c2.73-.25 4.19.15 4.34.62l-.3.62c-.75-.38-2.6-.37-3.42-.31l-.14-.1a1 1 0 01-.42-.59l-.06-.24z" fill="#FFBC50"/><path d="M5.88 5.09l-.05-.2a7.2 7.2 0 012.4 0c.31.3.31.65.31.65-.78-.08-1.67-.07-2.17-.03h-.31l-.1-.22a1 1 0 01-.08-.2z" fill="#47443D"/><path d="M9.78 7.52c.83-.05 2.67-.03 3.41.47.46.3.77.68.94.93 0 0 .07.38-.24.62l-.39.31h-1.86l-.16-.22a1 1 0 00-.8-.4h-.48a.79.79 0 01-.67-.33 5.56 5.56 0 01-.09-.13.84.84 0 01.02-.94c.11-.16.24-.3.32-.3z" fill="#FFBC50"/><path d="M10.71 11.1a7.13 7.13 0 002.8-.78c.22-.14.35-.31.46-.47.31-.47.27-.78.16-.93-.63 0-.88.41-.94.62l-1.55.15-.17-.17a1 1 0 00-.7-.3h-.68s-.15.94-.3.94H9l-.62-1.4L6.68 8l-1.55.15-1.09.78 4.5 2.17h2.17z" fill="#47443D"/><path d="M13.97 9.85c.31-.47.27-.78.16-.93-.28 0-.48.08-.63.19 0 .28.23.6.47.74z" fill="#FCFAFD"/><path d="M6.32 8.14c1.4 0 2.55 1.04 2.69 2.35a.16.16 0 10.3-.04 2.98 2.98 0 00-3-2.62c-1.07 0-2.02.55-2.55 1.38a.16.16 0 00.26.17 2.73 2.73 0 012.3-1.24z" fill="#FFBC50"/><path d="M12.73 9.54a.16.16 0 00-.16-.16c-1.17 0-2.14.87-2.3 2a.16.16 0 00.3.04c.15-.97.99-1.73 2-1.73.09 0 .16-.06.16-.15z" fill="#A6A29C"/><path d="M11.18 5.97c0 .26.07.47.15.47.09 0 .16-.21.16-.47s-.07-.46-.16-.46c-.08 0-.15.2-.15.46z" fill="#A09B95"/><path d="M14.4 11.64a1.85 1.85 0 11-3.7 0 1.85 1.85 0 013.7 0zm-5.57-.74a2.6 2.6 0 11-5.2 0 2.6 2.6 0 015.2 0z" fill="#47443D"/><path d="M6.23 12.04a1.15 1.15 0 110-2.29 1.15 1.15 0 010 2.3z" fill="#FFBC50"/><path d="M6.23 11.13a.24.24 0 110-.47.24.24 0 010 .47z" fill="#47443D"/><path d="M12.55 12.52a.9.9 0 110-1.79.9.9 0 010 1.8z" fill="#FFBC50"/><path d="M12.57 11.87a.24.24 0 110-.47.24.24 0 010 .47zm-1.55-4.5s-.3-.31-.62-.47v2.64h.62V7.37z" fill="#47443D"/><path d="M11.18 8.6a.31.31 0 00-.31-.3h-.31a.31.31 0 00-.31.3v.78c0 .18.14.31.3.31h.32c.17 0 .3-.13.3-.3V8.6z" fill="#48453E"/></svg>