<!-- by TradingView --><svg width="18" height="18" viewBox="0 0 18 18" xmlns="http://www.w3.org/2000/svg"><path fill="#F0F3FA" d="M0 0h18v18H0z"/><path d="M7.13 7.23v-.01l.21-.62.01-.02h1.03l.01-.02c.27-.8.71-1.48 1.31-1.94.55-.42 1.2-.63 1.96-.62a2 2 0 0 1 .77.15.9.9 0 0 1 .51.48c.06.13.07.27.05.4a.57.57 0 0 1-.2.37.74.74 0 0 1-.7.15c-.25-.07-.41-.22-.47-.45a.86.86 0 0 1-.01-.24c.02-.25-.03-.4-.14-.46-.17-.09-.34-.02-.51.19-.11.13-.2.3-.28.5a17.33 17.33 0 0 0-.44 1.49h1.07v.02l-.21.61-.01.01h-1.03l-.02.01v.01c-.45 1.64-.84 2.81-1.22 3.78a4.81 4.81 0 0 1-2.52 2.66c-.42.21-.84.31-1.28.31-.4 0-.7-.12-.89-.36a.55.55 0 0 1-.12-.47.65.65 0 0 1 .3-.42.8.8 0 0 1 .58-.12c.2.03.37.12.52.26.14.15.3.27.47.38.12.07.24.08.35.02.1-.04.18-.12.24-.24s.12-.28.2-.49a348.17 348.17 0 0 0 1.5-5.32H7.13Z" fill="#1D1D1F"/><path d="M10.84 14c.47 0 .85-.32.85-.73 0-.4-.38-.72-.85-.72-.46 0-.84.32-.84.72 0 .4.38.73.84.73Z" fill="#F96D30"/></svg>