<!-- by TradingView --><svg xmlns="http://www.w3.org/2000/svg" width="18" height="18"><path fill="#272C33" d="M0 0h18v18H0z"/><path d="M6.98 11.25c-.26.11-.74.27-1.3.37L6.03 13h1.53l.72-1.94c-.43.04-.8.1-1.04.13l-.23.64-.03-.58zm.71-1.35c.32-.1.69-.18 1.1-.2L9 9.13l.2.57c.48.01.81.1 1.1.21l-.97-2.46h-.77L7.69 9.9zm3.14 1.36l.22.57.03-.5.42.1.17.05c.2.06.46.08.65.08L11.95 13h-1.57l-.7-1.96c.4.05.8.14 1.15.22zm1.77-.79a4.63 4.63 0 01-1.45-.2v-.07L12.44 5H14l-1.4 5.47zm-7.2.07L4 5h1.56l1.35 5.2a33.6 33.6 0 00-.63.26c-.29.09-.62.1-.87.08z" fill="#00F3AB"/></svg>