<!-- by TradingView --><svg width="18" height="18" viewBox="0 0 18 18" xmlns="http://www.w3.org/2000/svg"><path fill="url(#a)" d="M0 0h18v18H0z"/><path d="M8.65 5.64h.01l.46-.97c.07-.13.17-.25.32-.38.37-.34.91-.37 1.36-.13.13.06.26.16.38.3.14.14.19.31.24.5l.01.02h.02c.35-.03.65.06.9.25a1.1 1.1 0 0 1 .3 1.52.02.02 0 0 0 .02.01c.32-.04.6.04.85.24.64.5.63 1.3.03 1.8l-.98.83c-.2.17-.3.34-.46.59a3.2 3.2 0 0 0-.42.92l-.18.54a3.75 3.75 0 0 1-2.32 2.17 3.4 3.4 0 0 1-1.88.03 5.97 5.97 0 0 1-.76-.27c-.51-.2-.92-.47-1.31-.86a2.5 2.5 0 0 1-.73-2.04c.04-.36.14-.71.3-1.07l.45-1.04c.1-.2.21-.38.35-.51a1.33 1.33 0 0 1 .55-.37V7.7l.05-1.97c.01-.36.04-.6.09-.73.16-.45.58-.74 1.1-.75.39 0 .7.13.95.39.24.25.34.65.3 1Z" fill="#fff"/><path d="M11.57 7.8h.01l.6-.48c.25-.2.56-.31.87-.21.26.08.46.3.56.52.14.33 0 .68-.26.92l-1.06.9c-.2.16-.32.37-.49.62-.21.32-.36.68-.47 1.07-.07.24-.13.42-.18.53-.59 1.32-1.98 2.28-3.55 1.94-1.07-.22-2.25-.84-2.63-1.88a2.68 2.68 0 0 1 .17-2.03l.41-.92c.07-.16.13-.27.19-.34.18-.24.41-.43.73-.47h.02v-.02l.07-2.49c0-.4.2-.8.65-.87.48-.09.92.12 1.07.57.03.1.04.26.03.5a639.81 639.81 0 0 1-.03 1.57l1.06-2.24c.1-.2.18-.33.25-.4a.83.83 0 0 1 1.02-.17c.42.21.56.54.44.97l-.03.13h.01c.32-.27.67-.3 1.04-.1.45.26.54.79.27 1.2l-.77 1.17Z"/><path d="M6.49 8.43c-.01.14-.04.4.03.48.1.12.3.12.37-.01a.53.53 0 0 0 .03-.22L7 5.6c0-.2 0-.35.11-.49.18-.2.58-.12.7.1a.8.8 0 0 1 .06.39l-.07 2.5c0 .16.03.27.21.3.2.04.25-.1.33-.26L9.8 5.05c.1-.2.26-.38.53-.3.42.15.35.47.19.8-.04.06-.48 1-1.34 2.8-.07.13.03.27.19.29.17.02.22-.16.3-.27l1.47-2.29c.18-.28.4-.51.73-.27.21.15.24.36.07.62l-1.41 2.15c-.07.1-.19.21-.15.33.01.06.05.1.1.13.13.07.21.01.32-.07l1.52-1.23c.2-.15.46-.38.72-.17.16.14.22.3.15.47-.03.1-.15.22-.36.39l-.63.53c-.31.26-.56.53-.75.83-.26.42-.44.85-.57 1.33a3 3 0 0 1-.71 1.26 2.64 2.64 0 0 1-2.91.71c-.5-.16-1-.4-1.38-.77-.72-.67-.72-1.56-.36-2.39L6 8.85a.94.94 0 0 1 .45-.46h.02l.01.02v.02Z" fill="url(#b)"/><defs><linearGradient id="a" x1="3.35" y1="3.12" x2="21.9" y2="24.43" gradientUnits="userSpaceOnUse"><stop stop-color="#1A1E21"/><stop offset="1" stop-color="#06060A"/></linearGradient><linearGradient id="b" x1="6.29" y1="5.85" x2="10.51" y2="11.92" gradientUnits="userSpaceOnUse"><stop stop-color="#70F856"/><stop offset="1" stop-color="#20D9DE"/></linearGradient></defs></svg>