<!-- by TradingView --><svg xmlns="http://www.w3.org/2000/svg" width="18" height="18"><path fill="#F0F3FA" d="M0 0h18v18H0z"/><path d="M4 12.99v-.41h.15a4.04 4.04 0 00.54-.12c.18-.06.34-.16.46-.3.09-.09.16-.2.23-.3.09-.14.16-.3.23-.45l.43-.93 1.44-3.23c.47-1.04.9-2.07 1.37-3.11L9.3 4c.22.47.43.96.62 1.43.63 1.57 1.27 3.13 1.92 4.68l.54 1.28a3.81 3.81 0 00.4.7c.14.22.38.37.65.43.15.03.3.06.44.07l.12.02v.38c0-.04 0 .04 0 0h-3.75v-.38l.06-.02a4.26 4.26 0 00.63-.13.76.76 0 00.08-.04c.15-.07.21-.18.2-.33a.93.93 0 00-.04-.2l-.11-.29c-.78-1.9-1.54-3.8-2.3-5.72 0-.02-.01-.04-.04-.06l-.02.01a.1.1 0 00-.01.03l-1.16 2.8a76.01 76.01 0 00-1.17 2.92c-.04.1-.07.22-.08.33a.73.73 0 00-.01.22c.01.1.07.2.16.25.06.04.13.07.2.09a11.24 11.24 0 00.73.13h.02l.05.02v.37H4.01z"/></svg>