<!-- by TradingView --><svg width="18" height="18" xmlns="http://www.w3.org/2000/svg"><path d="M0 9a9 9 0 1118 0A9 9 0 010 9z" fill="#26B6EA"/><path d="M5.47 5.03L8.98 3l3.55 2.03v7.879L8.98 15l-3.51-2.091V5.03z" fill="#fff"/><path d="M6.353 5.221L9 3.6l2.647 1.621L9 6.796 6.353 5.221zM6.06 8.4V5.7l2.352 1.357L6.06 8.4zM9.294 10.35v-2.7l2.353 1.357-2.353 1.343zM11.94 8.4V5.7L9.589 7.057 11.941 8.4zM8.705 10.35v-2.7L6.352 9.007l2.353 1.343z" fill="#26B6EA"/><path d="M6.059 12.6V9.469L9 11.1l2.941-1.631V12.6l-2.94 1.8-2.942-1.8z" fill="#26B6EA"/><path d="M4 13.556V11.7h.588v1.562l1.47.773v.665L4 13.556zM14 4.444V6.3h-.588V4.738l-1.47-.773V3.3L14 4.444z" fill="#fff"/></svg>