<!-- by TradingView --><svg xmlns="http://www.w3.org/2000/svg" width="18" height="18"><path fill="url(#ajvbwg0qh)" d="M0 0h18v18H0z"/><path d="M4.12 5.28l.6-.64.6-.64.11.12a68.81 68.81 0 00.98.94l.23.23.12.11.1-.06a4.56 4.56 0 011.62-.57 4.19 4.19 0 012.83.66c.02 0 .32-.32.69-.71.37-.4.68-.71.69-.71.01 0 1.24 1.17 1.25 1.2l-.7.75-.7.74.06.1a4.28 4.28 0 01-.01 4.34l-.08.12.17.16L14 12.7c0 .02-1.2 1.29-1.2 1.28-.02 0-1.1-1.05-1.4-1.34l-.13-.13-.13.08a4.17 4.17 0 01-4.35-.06l-.09-.05-.1.1-.71.76-.63.66-.04-.04C5.12 13.88 4 12.8 4 12.78l.03-.03.7-.75.73-.78-.07-.17a4.26 4.26 0 01.05-4.28l.08-.12-.05-.04a79.42 79.42 0 01-1.35-1.33zM9 11.65a2.65 2.65 0 100-5.3 2.65 2.65 0 000 5.3z" fill="#fff"/><defs><linearGradient id="ajvbwg0qh" x1="3.35" y1="3.12" x2="21.9" y2="24.43" gradientUnits="userSpaceOnUse"><stop stop-color="#1A1E21"/><stop offset="1" stop-color="#06060A"/></linearGradient></defs></svg>