<!-- by TradingView --><svg width="18" height="18" viewBox="0 0 18 18" xmlns="http://www.w3.org/2000/svg"><path fill="url(#a)" d="M0 0h18v18H0z"/><path d="m6.76 10.15-.61.32c-.02 0-.02.02-.01.03a2.94 2.94 0 0 0 5.03-.3.64.64 0 0 0 .06-.37c-.02-.13-.1-.22-.25-.28a1 1 0 0 0-.36-.05c-.22 0-.48.04-.76.11a8.42 8.42 0 0 0-1.38.42L13.92 7c.07-.04.13-.02.17.04v.04c0 .04 0 .06-.03.08l-.3.2c-.23.19-.39.42-.47.7a2.54 2.54 0 0 0-.05.74 4.42 4.42 0 0 1-1.63 3.61c-.75.62-1.61.98-2.58 1.07a4.71 4.71 0 0 1-4.45-2.14c-.02-.02-.04-.03-.06-.02L2.03 12.6 2 12.6l.03-.03 2.44-1.36.01-.02a4.4 4.4 0 0 1-.42-3.42 4.52 4.52 0 0 1 2.8-2.97 4.76 4.76 0 0 1 3.72.14 4.7 4.7 0 0 1 1.32.88l1.15-.76c.1-.07.2-.04.28.1h.01c.05.11.02.2-.1.27l-4.49 2.5h-.01V7.9l1.61-1.07c.02 0 .02-.02 0-.03l-.03-.02-.44-.27a2.93 2.93 0 0 0-4.15 1.94c-.12.62-.04 1.23.27 1.81.01.03.03.03.05.02l8.36-4.9c.1-.06.18-.1.23-.1a.32.32 0 0 1 .36.3c0 .1-.02.17-.07.22a3311.99 3311.99 0 0 0-8.17 4.34Z" fill="#fff"/><defs><linearGradient id="a" x1="18" y1="0" x2="0" y2="18" gradientUnits="userSpaceOnUse"><stop offset=".28" stop-color="#010101"/><stop offset="1" stop-color="#E57536"/></linearGradient></defs></svg>