<!-- by TradingView --><svg width="18" height="18" fill="none" xmlns="http://www.w3.org/2000/svg"><path fill="#F0F3FA" d="M0 0h18v18H0z"/><path fill-rule="evenodd" clip-rule="evenodd" d="M9 13a4 4 0 100-8 4 4 0 000 8zm0 1A5 5 0 109 4a5 5 0 000 10z" fill="#1F0448"/><path fill-rule="evenodd" clip-rule="evenodd" d="M9 12.372a3.372 3.372 0 100-6.744 3.372 3.372 0 000 6.744zm0 1a4.372 4.372 0 100-8.744 4.372 4.372 0 000 8.744z" fill="#FB74F7"/><path fill-rule="evenodd" clip-rule="evenodd" d="M9 11.712a2.712 2.712 0 100-5.424 2.712 2.712 0 000 5.424zm0 1a3.712 3.712 0 100-7.424 3.712 3.712 0 000 7.424z" fill="url(#paint0_linear)"/><circle cx="9" cy="9" r="3.179" fill="url(#paint1_linear)"/><path fill="#EAE6E6" d="M6 8h6v2H6z"/><defs><linearGradient id="paint0_linear" x1="10.807" y1="9.863" x2="6.359" y2="6.495" gradientUnits="userSpaceOnUse"><stop stop-color="#FDB6FA"/><stop offset="1" stop-color="#B400EF"/></linearGradient><linearGradient id="paint1_linear" x1="9" y1="5.821" x2="9" y2="12.179" gradientUnits="userSpaceOnUse"><stop stop-color="#F934F3"/><stop offset="1" stop-color="#7D17F8"/></linearGradient></defs></svg>