<!-- by TradingView --><svg xmlns="http://www.w3.org/2000/svg" width="18" height="18"><path fill="url(#aihu4uzlz)" d="M0 0h18v18H0z"/><path fill-rule="evenodd" d="M8.5 10C9.92 10 11 8.92 11 7.5S9.92 5 8.5 5A2.45 2.45 0 006 7.5C6 8.92 7.08 10 8.5 10zm0 1a3.5 3.5 0 100-7 3.5 3.5 0 000 7zM14 4.5a.5.5 0 11-1 0 .5.5 0 011 0zm-2.05 7.68a.5.5 0 10-.68-.73l-2.88 2.69a.5.5 0 10.68.73l2.88-2.69z" fill="#fff"/><defs><linearGradient id="aihu4uzlz" x1="16.34" y1="4.29" x2="1.24" y2="13.67" gradientUnits="userSpaceOnUse"><stop stop-color="#361C86"/><stop offset="1" stop-color="#497DCF"/></linearGradient></defs></svg>