<!-- by TradingView --><svg width="18" height="18" fill="none" xmlns="http://www.w3.org/2000/svg"><path d="M0 9a9 9 0 1118 0A9 9 0 010 9z" fill="#DD1235"/><g opacity=".6"><circle cx="9" cy="9" r="8.875" stroke="#E0E3EB" stroke-width=".25"/><rect x="3.05" y="5.05" width="11.9" height="7.9" rx=".95" stroke="#E0E3EB" stroke-width=".1"/><rect x="2.05" y="6.05" width="13.9" height="5.9" rx=".95" stroke="#E0E3EB" stroke-width=".1"/><rect x="4.05" y="4.05" width="9.9" height="9.9" rx=".95" stroke="#E0E3EB" stroke-width=".1"/><rect x="5.05" y="3.05" width="7.9" height="11.9" rx=".95" stroke="#E0E3EB" stroke-width=".1"/><rect x="6.05" y="2.05" width="5.9" height="13.9" rx=".95" stroke="#E0E3EB" stroke-width=".1"/><circle cx="9" cy="9" r="4.875" stroke="#C1C4CD" stroke-width=".25"/></g><path d="M10.985 10c.013.001.03.023.035.032a.041.041 0 01.002.039l-1.935 2.91a.044.044 0 01-.036.019h-1.26a.043.043 0 01-.02-.005.039.039 0 01-.015-.054l1.934-2.91c.006-.01.023-.03.036-.031h1.26zm-1.26-2c-.015 0-.029-.02-.037-.033L7.756 5.06a.038.038 0 01.015-.055A.043.043 0 017.79 5h1.26c.007 0 .014.002.02.006a.043.043 0 01.016.014l1.933 2.907a.039.039 0 010 .04C11.013 7.98 11 8 10.984 8h-1.26z" fill="#fff"/><path d="M10.141 5.06a.037.037 0 010-.041.04.04 0 01.017-.015.045.045 0 01.023-.004h1.3c.008 0 .015.002.021.005a.04.04 0 01.016.015l2.476 3.96a.037.037 0 010 .04l-2.476 3.96a.041.041 0 01-.016.015.044.044 0 01-.02.005H10.18a.045.045 0 01-.022-.005.041.041 0 01-.016-.015.038.038 0 010-.04L12.604 9l-2.463-3.94zm-1.15 3.92c.005.007.009.013.009.02a.049.049 0 01-.008.023L6.539 12.98A.05.05 0 016.5 13a.05.05 0 01-.037-.02L4.006 9.02a.04.04 0 010-.042l2.459-3.956C6.471 5.013 6.488 5 6.5 5c.014 0 .032.011.04.022L8.992 8.98z" fill="#fff"/></svg>