<!-- by TradingView --><svg width="18" height="18" viewBox="0 0 18 18" xmlns="http://www.w3.org/2000/svg"><path fill="#F0F3FA" d="M0 0h18v18H0z"/><circle cx="9" cy="9" r="6" fill="url(#a)"/><path fill-rule="evenodd" d="M9 14.58A5.58 5.58 0 1 0 9 3.42a5.58 5.58 0 0 0 0 11.16Zm0-.65a4.93 4.93 0 1 0 0-9.86 4.93 4.93 0 0 0 0 9.86Z" fill="#A43000"/><path fill-rule="evenodd" d="M9 14.58A5.58 5.58 0 1 0 9 3.42a5.58 5.58 0 0 0 0 11.16Zm0-.48A5.1 5.1 0 1 0 9 3.9a5.1 5.1 0 0 0 0 10.2Z" fill="url(#b)"/><path fill-rule="evenodd" d="M9 15A6 6 0 1 0 9 3a6 6 0 0 0 0 12Zm0-.68A5.32 5.32 0 1 0 9 3.68a5.32 5.32 0 0 0 0 10.64Z" fill="url(#c)"/><path d="M14.1 12.1a5.87 5.87 0 0 1-3.95 2.81.63.63 0 0 1 .24-.13c.28-.06.53-.16.78-.3.13-.08.16-.19.07-.32a1.5 1.5 0 0 1-.14-.27 5.15 5.15 0 0 0 1.41-.92l.37.43c.04.04.07.04.1 0l.1-.14c.02-.04.02-.07-.01-.1l-.35-.38.4-.44.35.29c.04.03.08.03.12-.01l.51-.51Z" fill="#FFA605"/><path d="m10.29 5.85-.03.07-.54-.24c-.15-.1-.37-.12-.68-.06-.22.04-.39.13-.49.27 0 .01 0 .02-.02.01h-.02v-.03l.06-.12c.05-.1.02-.14-.09-.1a2.09 2.09 0 0 0-.63.38.01.01 0 0 1-.01-.01l-.08-.23a.06.06 0 0 0-.1-.03.51.51 0 0 1-.2.12c-.02 0-.04 0-.06-.02a.08.08 0 0 0-.04-.02c-.03 0-.05.01-.05.04a.2.2 0 0 1-.02.08.04.04 0 0 1-.06 0c-.17-.15-.51-.41-.77-.37a.87.87 0 0 0-.39-.05c-.1.01-.1.03 0 .07.17.06.32.18.45.36l.27.61c0 .03-.03.04-.06.02a.11.11 0 0 1-.05-.07c-.1-.3-.27-.57-.5-.78a1.1 1.1 0 0 0-.22-.13.13.13 0 0 0-.1-.01.51.51 0 0 0-.4.35c-.06.08-.07.14-.04.15a.72.72 0 0 0-.16.47c0 .64.24 1.13.72 1.45.07.04.13.05.19.03h.05l-.55.79-.14.17a.22.22 0 0 0-.04.08.45.45 0 0 1-.1.16c-.17.2-.22.42-.16.64.03.2-.04.32-.2.37L5 10.25A2.16 2.16 0 0 1 5.44 9c.09-.14.18-.26.28-.38.08-.1.17-.24.25-.4.01-.03 0-.05-.02-.07-.1-.09-.3-.19-.38-.3a1.88 1.88 0 0 1-.28-1.77c.12-.36.4-.57.83-.61.33-.04.66.06 1 .3l.07.02c.22 0 .4-.03.56-.11.03-.02.05-.02.08 0 .03.04.04.07.04.1v.03l.03.01h.07l.5-.23a.14.14 0 0 1 .1 0c.11.02.18.03.22.02.3-.1.62-.12.93-.09a.1.1 0 0 1 .08.04c.12.15.28.25.49.3Z" fill="#B83C01"/><path d="m12.37 7.99-.35.23a.06.06 0 0 1-.08-.08l.01-.02c.02-.03.01-.05 0-.07-.05-.05-.06-.08-.02-.1h.08c.42-.26.67-.66.73-1.2a1 1 0 0 1 .02-.11v-.12a4.5 4.5 0 0 0-.15-.5.73.73 0 0 0-.63-.47c-.43-.03-.78.08-1.06.34a.08.08 0 0 0-.02.08l.09.38-.04-.01a.04.04 0 0 1-.03-.03l-.13-.4a.14.14 0 0 0-.16-.08.13.13 0 0 0-.06.03c-.1.1-.2.12-.3.06-.01-.01 0-.03.02-.07.04.03.08.03.13 0 .14-.1.27-.14.4-.11l.08-.01c.2-.11.36-.18.46-.21.66-.19 1.14.01 1.41.6.02.03.04.04.08.04.06-.01.1.03.11.13 0 .03 0 .03-.02.03l-.07-.03c-.05-.01-.07 0-.06.05.03.27.02.54-.04.8-.04.15-.06.29-.06.4l-.03.08-.3.37Z" fill="#A12C01"/><path d="M6.46 5.59c.14.2.16.32.06.38a.94.94 0 0 0-.45-.36c-.1-.04-.1-.06 0-.07.12-.01.25 0 .39.05Z" fill="#FDFCB7"/><path d="M11.98 5.55c-.03.05-.06.07-.07.08-.19.05-.32.14-.39.28-.13.28-.25.45-.34.5-.11-.01-.18-.03-.2-.07l-.08-.37c-.01-.03 0-.06.02-.08.28-.26.63-.37 1.06-.34Z" fill="#FCE92F"/><path d="M12.74 6.75c-.17-.11-.42-.13-.76-.04l-.53-.01-.03-.07a.17.17 0 0 1-.03-.14c.08-.33.25-.6.52-.8.02-.01.02-.03.01-.04a.04.04 0 0 0-.01-.02c.01 0 .04-.03.07-.08.3.03.5.2.63.47l.15.5v.12a.97.97 0 0 0-.02.11Z" fill="#DB7008"/><path d="M9.72 5.68c-.01.18 0 .35.06.5.05.15 0 .3-.12.4-.16.17-.28.36-.38.58a.22.22 0 0 1-.04-.05c-.02-.04-.03-.04-.04 0a.42.42 0 0 1-.08.16.04.04 0 0 1-.06-.02c-.06-.57-.38-.81-.95-.72-.52.08-.95.13-1.29.13 0-.04-.02-.07-.03-.08l-.27-.6c.1-.07.08-.2-.06-.4.26-.03.6.23.77.39a.04.04 0 0 0 .06-.01.2.2 0 0 0 .02-.07c0-.03.02-.05.05-.05l.04.03c.02.01.04.02.07 0a.51.51 0 0 0 .2-.1.06.06 0 0 1 .1.02l.07.23a.01.01 0 0 0 .02 0c.2-.16.4-.29.62-.37.11-.04.14 0 .09.1l-.06.12v.03h.04c.1-.15.27-.24.5-.28.3-.06.52-.03.67.06Z" fill="#FCE92F"/><path d="M6.79 6.58c.02.01.03.04.03.08h-.11a.06.06 0 0 0-.03.03v.04l.04.12v.08a.46.46 0 0 0 .02.38c.08.11.02.16-.16.13-.01-.14 0-.28.04-.44.03-.2 0-.34-.07-.46a1.18 1.18 0 0 0-.7-.48l-.38-.1c.06-.19.2-.3.4-.35h.09c.1.06.18.1.22.14.23.21.4.47.5.78 0 .03.02.05.05.07.03.02.05.01.06-.02Z" fill="#E9940E"/><path d="M11.9 5.63c.01 0 .02 0 .02.02v.04c-.28.2-.45.47-.53.8-.01.05 0 .1.03.14a.22.22 0 0 1-.07.07c-.06-.06-.11-.07-.15-.03-.12-.06-.25-.11-.4-.15l-.01-.01c0-.02 0-.03.02-.03l.37-.08c.1-.04.2-.2.34-.49.07-.14.2-.23.39-.28Z" fill="#A12C01"/><path d="M10.26 5.92c.1.06.2.04.31-.06a.13.13 0 0 1 .19 0l.03.06.13.39c0 .02.01.03.03.03H11c.01.04.08.06.19.06l-.37.08c-.02 0-.02 0-.02.03l.02.01c.14.04.27.09.39.15a.51.51 0 0 1-.3.06c-.03 0-.05 0-.07.03l-.2.22c-.14.13-.35.15-.54.22a.18.18 0 0 0-.11.15.79.79 0 0 1-.21.48c-.08.1-.08.17 0 .25l-.02.59a.16.16 0 0 1-.25.1c-.06-.04-.1-.06-.16-.05a.02.02 0 0 0-.01.01.02.02 0 0 0 0 .02c.06.03.17.06.34.1.06 0 .1.03.1.08 0 .03 0 .05-.03.06-.11.04-.12.06-.04.08.14.07.25.17.34.3.02.01.02.03 0 .05v.07l.44.5a.4.4 0 0 0-.13.07.2.2 0 0 0-.2.06c0 .03-.02.04-.04.05-.04 0-.05 0-.05-.05a.65.65 0 0 0-.14-.46c-.02-.04-.04-.04-.04.01s.02.1.06.15c-.06.03-.12.03-.16 0a.16.16 0 0 0-.09-.04l-.11-.01c-.03 0-.05 0-.06.03l-.06.2-.02-.1c0-.03-.02-.04-.05-.03a.48.48 0 0 1-.34.07c.1-.27-.04-.75-.14-.97-.05-.1-.02-.2-.06-.29a.05.05 0 0 1 0-.03.04.04 0 0 1 .02-.03L9 8.58c.06-.02.09-.06.1-.12l.18-1.3c.1-.22.22-.4.38-.57.11-.12.17-.26.12-.42a1.32 1.32 0 0 1-.06-.49l.54.24Z" fill="#FAC52A"/><path d="m6.62 7-.27-.36c-.29-.32-.6-.5-.93-.53-.03-.01-.02-.06.05-.15l.37.1c.34.1.57.26.71.48.07.11.1.27.07.46Z" fill="#EBA818"/><path d="M6.35 6.64a2.36 2.36 0 0 1-.86.36.04.04 0 0 1-.03-.04l-.02-.17c0-.06-.02-.06-.05-.02a.15.15 0 0 0-.02.13c.12.46.37.8.77 1.04.03.01.04.04.04.07l-.01.05c-.06.02-.12.01-.19-.03-.48-.32-.72-.8-.72-1.45 0-.19.06-.34.16-.47.33.03.64.2.93.53Z" fill="#FEDD43"/><path d="M7.52 6.37c.1-.02.19-.05.19-.08s-.1-.04-.2-.02c-.11.01-.2.05-.2.08.01.02.1.03.21.02Z" fill="#FDFCB7"/><path d="m9.28 7.16-.18 1.3c-.01.06-.04.1-.1.12l-.13.04a.04.04 0 0 0-.03.03.04.04 0 0 0 0 .03c.05.09.02.18.07.29.1.22.24.7.14.97a.6.6 0 0 1-.38.03.07.07 0 0 0-.08.03l-.02.03c-.05.03-.07.02-.06-.04v-.06c0-.03.02-.04.05-.04h.02c.02-.02.02-.04.02-.06l-.14-.44a.07.07 0 0 0-.12-.03.32.32 0 0 0-.06.08.3.3 0 0 1-.2-.16.3.3 0 0 1 .26-.05l.02-.01.01-.03c0-.02 0-.03-.02-.03l-.1-.02c-.05 0-.06-.02-.05-.06.04-.14.14-.22.3-.24.04.04.13.04.25 0 .04 0 .05-.03.04-.06v-.04c.01-.05 0-.06-.05-.05l-.05.07c-.02.02-.04.03-.06 0a.15.15 0 0 1-.03-.06.06.06 0 0 1 .01-.07h.03l.1-.04c.03 0 .04-.03.03-.07l-.2-.88c-.05-.29-.15-.5-.3-.63a.96.96 0 0 0-.74-.25.12.12 0 0 0-.08.04.52.52 0 0 0-.1.24c0 .03.01.05.03.07l.3.23-.65.07-.08-.01-.2-.09a.46.46 0 0 1-.03-.38v-.08l-.04-.12v-.04l.03-.03a8.96 8.96 0 0 0 1.4-.13c.57-.1.89.15.95.72a.03.03 0 0 0 .06.02.42.42 0 0 0 .08-.17c.01-.03.02-.03.04 0 0 .02.02.03.04.06Z" fill="#FEF47F"/><path d="M6.62 7c-.04.16-.05.3-.04.44l-.36.62h-.05v-.05c.01-.03 0-.06-.03-.07a1.6 1.6 0 0 1-.77-1.04.15.15 0 0 1 .02-.12c.03-.05.05-.05.06.01v.17a.04.04 0 0 0 .06.04c.33-.08.6-.2.84-.36l.27.36Z" fill="#FAC52A"/><path d="M11.45 6.7c-.04.1-.08.19-.05.3l.08.31c.01.03.03.04.07.03a.1.1 0 0 1 .06 0l.04.03.03.01c.17.17.38.23.61.2l-.3.25c-.06.03-.07.07-.06.12-.04.02-.03.05.01.1.03.02.03.04.01.07l-.01.02a.06.06 0 0 0 .08.08l.35-.23a.8.8 0 0 0-.11.48c-.03-.09-.07-.14-.15-.15-.08-.02-.1.01-.05.08.18.27.37.55.58.82a2 2 0 0 1 .32 1.08c-.33-.13-.66-.2-1-.22a1.1 1.1 0 0 0-.19-.95v-.05c0-.04 0-.05.05-.05.03 0 .05.03.07.06.07.09.15.17.26.23.1.06.1.03.05-.07a.39.39 0 0 0-.12-.11c-.2-.13-.3-.37-.38-.6-.05-.13-.08-.28-.08-.47 0-.12-.04-.29-.1-.5a.16.16 0 0 0-.06-.07c-.05-.04-.08-.07-.1-.14a1.37 1.37 0 0 1-.01-.66.22.22 0 0 0 .07-.07l.03.07Z" fill="#E3670D"/><path d="M11.35 6.7c-.05.2-.04.42.02.66.01.07.04.1.1.14l.04.08c.07.2.1.37.1.5.01.18.04.33.09.47.08.22.19.46.38.59.06.04.1.07.12.1.06.11.04.14-.05.08a.9.9 0 0 1-.26-.23.12.12 0 0 0-.07-.06c-.04 0-.06.01-.05.05v.05a.98.98 0 0 1-.33.03l-.38-.05c0-.03 0-.07-.04-.11.08 0 .12-.02.12-.09a.37.37 0 0 0-.1-.29c.05-.1.03-.17-.07-.21a.14.14 0 0 1-.05-.23c.05-.05.1-.1.15-.18.03-.03.03-.06-.01-.08.02-.03.02-.05.01-.07-.01-.04-.04-.05-.07-.04l-.28.09c-.05.01-.05.03 0 .06.03.02.08.03.15.02.02.06.01.1-.01.11l-.09.03c-.15.04-.24 0-.29-.14a.07.07 0 0 0-.06-.06.35.35 0 0 0-.37.14.09.09 0 0 1-.08.03l-.2-.01c-.08-.07-.08-.16 0-.25.13-.14.2-.3.21-.48a.18.18 0 0 1 .11-.15c.19-.07.4-.09.53-.22.08-.07.14-.14.2-.22a.08.08 0 0 1 .08-.03c.11 0 .21-.01.3-.06.04-.04.09-.03.15.03Z" fill="#E9940E"/><path d="M12.74 6.75c-.06.54-.3.94-.73 1.2h-.08c-.01-.05 0-.09.05-.12a3 3 0 0 0 .37-.31c0-.03 0-.05-.02-.07a2.9 2.9 0 0 1-.13-.12 32.35 32.35 0 0 0-.52-.35.1.1 0 0 1 0-.1.1.1 0 0 1 .04-.03l.26-.14c.34-.09.6-.07.76.04Z" fill="#FAC52A"/><path d="m11.98 6.7-.26.15a.1.1 0 0 0-.05.09.1.1 0 0 0 .04.08l.5.31.12.12c.02.02.03.05.03.07 0 .03-.03.05-.07.06a.68.68 0 0 1-.6-.2l-.04-.01a.45.45 0 0 0-.04-.02.1.1 0 0 0-.06 0c-.04 0-.06 0-.07-.04a60.5 60.5 0 0 1-.08-.3c-.03-.12.01-.2.05-.31h.53Z" fill="#E9940E"/><path d="m8.5 8.84-.26-.69a.11.11 0 0 1 0-.08c.05-.12.04-.2-.01-.27a4.5 4.5 0 0 1-.35-.44.21.21 0 0 0-.1 0l-.1-.01-.3-.24a.07.07 0 0 1-.02-.07c.01-.1.04-.17.09-.23a.11.11 0 0 1 .08-.05c.28-.02.52.06.74.26.15.13.25.33.3.62l.2.89c.01.03 0 .05-.03.06l-.1.03a.06.06 0 0 0-.04.03.06.06 0 0 0 0 .05c0 .03.01.05.03.06.02.03.04.02.06 0 .02-.04.04-.06.05-.06.05-.02.06 0 .05.04v.04c0 .03 0 .05-.03.06-.13.04-.22.04-.26 0Z" fill="#FDFCB7"/><path d="M7.68 7.35h.2c.06.03.1.08.12.15 0 .11.05.21.16.3a.1.1 0 0 1 .03.13c-.03.04-.08.07-.16.09-.04 0-.09-.01-.16-.04-.1-.05-.2-.08-.33-.1a.09.09 0 0 1-.07-.06c-.01-.03-.03-.04-.07-.03a.1.1 0 0 1-.06 0l-.15-.07c.18-.02.32-.05.4-.08.22-.08.22-.14-.01-.18-.16-.02-.34 0-.56.08-.04.02-.05.06-.02.12-.04.01-.06.03-.06.05-.01.03 0 .06.03.07.12.05.23.1.31.17.05.04.05.06-.02.05l-.43-.06c-.03 0-.03.01-.02.03l.01.02c-.18.18-.31.4-.4.65l-.4.35c-.02.02-.02.05.01.07l.06.03-.11.14c-.02-.04-.05-.07-.09-.07a.1.1 0 0 0-.07.02l-.2.17c-.06-.03-.1-.07-.1-.13-.01-.03 0-.06.02-.08.1-.09.2-.2.26-.32.02-.04 0-.05-.03-.03l-.1.06.55-.8.36-.6c.18.02.24-.03.16-.14l.2.09.1.01.64-.06Z" fill="#FCE92F"/><path d="m10.24 7.52.02-.03.04-.02a.99.99 0 0 1 .66.09c.03.01.03.03 0 .05-.29.15-.47.22-.55.23a.86.86 0 0 0-.43.13.08.08 0 0 1-.06 0c-.03 0-.06-.01-.07-.04l.01-.06.23-.4c.03-.05.05-.04.06 0l.02.04c.03.03.05.03.07 0Z" fill="#FEDD43"/><path d="m7.19 7.72-.2-.06c-.02-.06 0-.1.03-.11.22-.09.4-.11.56-.09.23.04.23.1.02.18-.1.03-.23.06-.41.08Z" fill="#FDFCB7"/><path d="m8 7.5.23.3c.05.06.06.15 0 .26a.11.11 0 0 0 0 .1l.27.67c-.16.03-.26.11-.3.25-.01.04 0 .06.05.06l.1.02c.02 0 .03 0 .02.03l-.01.03h-.02a.3.3 0 0 0-.26.06l-.49.64a.14.14 0 0 1-.07.05l-.07.02a.17.17 0 0 1-.08-.15.18.18 0 0 1 .1-.15c.25-.12.44-.3.6-.54.06-.1.08-.22.07-.4v-.42c0-.02-.01-.03-.03-.04l-.05-.01c-.03-.01-.04 0-.04.03.03.2.02.35 0 .48a.8.8 0 0 1-.63.64.83.83 0 0 1-.3-.1v-.07l.05-.01h.08a.02.02 0 0 0 0-.03c-.17-.06-.28-.15-.32-.27a.12.12 0 0 1 0-.09l.25-.58a.08.08 0 0 0-.01-.08.43.43 0 0 0-.22-.16.22.22 0 0 1-.1-.05l-.01-.02c-.01-.02 0-.03.02-.03l.43.06c.07 0 .07-.01.02-.05a1.2 1.2 0 0 0-.3-.17c-.04-.01-.05-.04-.04-.07 0-.02.02-.04.06-.05l.19.06.15.07a.1.1 0 0 0 .06 0c.04 0 .06 0 .07.03.02.03.04.05.07.05.12.03.24.06.33.1.07.04.12.05.16.05.08-.02.13-.05.16-.09a.1.1 0 0 0-.03-.13c-.1-.09-.16-.19-.16-.3Z" fill="#D85402"/><path d="M11.06 7.92c-.07.06-.13.08-.19.06-.07.01-.12 0-.16-.02-.04-.03-.04-.05.01-.06L11 7.8c.03-.01.06 0 .07.04.01.02 0 .04-.01.07Z" fill="#FAC52A"/><path d="M10.87 7.98c.06.02.12 0 .19-.06.04.02.04.05.02.08-.06.07-.1.13-.16.18a.14.14 0 0 0 0 .19c0 .02.03.03.05.04.1.04.12.1.07.21-.07.14-.08.26-.02.38.03.04.04.08.04.11-.11.06-.13.2-.27.27a.3.3 0 0 1-.16.03.7.7 0 0 1-.58-.33.1.1 0 0 0-.06-.04.1.1 0 0 0-.07 0c-.01.02-.02.03-.01.06-.1-.08-.18-.1-.2-.03-.1-.02-.08-.04.03-.08.03 0 .04-.03.03-.06 0-.05-.04-.07-.1-.09a1.3 1.3 0 0 1-.34-.1.02.02 0 0 1 .02-.02c.04 0 .1.01.15.06a.16.16 0 0 0 .25-.11l.03-.59.2.01c.03 0 .05 0 .07-.03.1-.13.22-.17.37-.14.03 0 .05.03.06.06.05.13.14.18.3.14l.08-.03c.02-.01.03-.05.01-.1Z" fill="#DB7008"/><path d="M6.82 8c.04.02.07.04.1.04 0 .39-.06.76-.15 1.11l-.13-.05a.08.08 0 0 0-.08 0l-.27.15a.03.03 0 0 0 0 .06l.38.19c-.16.12-.35.12-.56 0-.08-.04-.13-.09-.14-.15l.28-.25v-.03l-.03-.01h-.09c-.03-.01-.04-.03-.01-.06l.3-.36c.09-.25.22-.47.4-.65Z" fill="#FEF47F"/><path d="M7.1 9.32c-.17-.02-.28-.07-.33-.17.1-.35.14-.72.15-1.11.09.03.16.08.22.16.01.02.02.05 0 .08l-.24.58a.12.12 0 0 0 0 .1c.04.11.15.2.33.26a.02.02 0 0 1 0 .03h-.1l-.04.01v.06Z" fill="#FCE92F"/><path d="M7.1 8.77c.4.07.62-.1.65-.48.05-.04.05-.08 0-.12-.09-.05-.16-.06-.23-.03-.04.02-.06.03-.07.02-.03 0-.04-.02-.05-.06a.05.05 0 0 1 .04-.06c.23-.05.38.03.46.24.04.1.02.22-.06.34-.18.25-.41.47-.73.34-.03-.02-.04-.04-.04-.07l.03-.12Z" fill="#E9940E"/><path d="m10.63 8.61-.01-.03h-.04l-.03.01c-.1.22-.32.41-.53.18A.1.1 0 0 1 10 8.7v-.17l.01-.09c.05-.1.14-.22.26-.34a.06.06 0 0 1 .07-.02c.18.07.3.18.35.32a.2.2 0 0 1 .02.1v.18a.08.08 0 0 1 0 .08.94.94 0 0 1-.51.3c-.02.01-.04 0-.04-.01L10.15 9c-.01-.02 0-.04.02-.04.14 0 .28-.05.35-.2l.1-.16ZM7.75 8.3c-.03.38-.25.54-.65.47-.01-.23.07-.4.23-.52a.08.08 0 0 1 .09 0 .1.1 0 0 0 .03 0 .1.1 0 0 0 .05-.01c.07-.04.15-.02.25.05Z" fill="#FAC52A"/><path d="M10.19 8.33c-.06.07-.06.16 0 .2.05.05.13.03.19-.03.05-.06.05-.15 0-.2-.05-.04-.14-.03-.2.03ZM7.32 8.35c-.05.07-.05.16 0 .2.05.03.13.01.19-.06.05-.07.05-.15 0-.2-.05-.03-.13 0-.19.06Z" fill="#FDFCB7"/><path d="M8.08 9.28a.3.3 0 0 0 .2.16l.02.07-.32.09a.12.12 0 0 0-.07.06l-.14.25a.06.06 0 0 0 0 .07.3.3 0 0 0 .09.07H7l.01-.2c0-.03-.01-.05-.04-.05l-.14-.02c-.03 0-.05-.02-.04-.05l.01-.04c.29-.04.48-.12.59-.26A.8.8 0 0 0 8 8.8c.03-.13.04-.29.01-.48 0-.03.01-.04.04-.03l.05.01c.02 0 .03.02.03.04v.42c.01.18-.01.31-.07.4-.16.24-.35.42-.6.54a.18.18 0 0 0-.1.15.17.17 0 0 0 .08.15l.07-.02c.03-.01.06-.03.07-.05l.49-.64Z" fill="#FEDD43"/><path d="M12.26 8.47c0 .09.04.16.12.21.02.02.05.03.08.03.11 0 .17.07.18.2 0 .01 0 .02-.02.03l-.03.02v.03c0 .02.03.05.05.06.03.02.05.04.06.07.12.23.2.47.28.71.05.2.05.35-.02.47a2 2 0 0 0-.32-1.08l-.58-.82c-.05-.07-.03-.1.05-.08.08 0 .12.06.15.15Z" fill="#A12C01"/><path d="m6.41 8.64-.3.36c-.02.03-.01.05.02.06h.09a.2.2 0 0 0-.13.03l-.06-.03C6 9.04 6 9 6.03 8.99l.38-.35Z" fill="#D85402"/><path d="M11.02 9c-.06-.12-.05-.24.02-.38.07.07.1.17.1.3 0 .06-.04.09-.12.08Z" fill="#FEDD43"/><path d="M5.62 9.35c-.18.1-.3.29-.39.56-.06-.23 0-.44.16-.65a.45.45 0 0 0 .1-.16c0-.03.02-.06.04-.08l.14-.17.1-.06c.04-.02.05 0 .03.03-.07.13-.15.23-.26.32a.08.08 0 0 0-.03.08c0 .06.04.1.11.13Z" fill="#DB7008"/><path d="m12.6 9.53-.33-.5a.02.02 0 0 1 0-.04l.03-.01h.03l.3.52-.01.02-.02.01Z" fill="#A12C01"/><path d="m11.06 9.11.38.05c-.08.2-.19.38-.32.53a.09.09 0 0 1-.08.03c-.2-.03-.39-.1-.55-.18-.06-.04-.07-.03-.03.03.08.12.2.2.33.23a.05.05 0 0 1 .03.02v.04l-.02.06c-.03.02-.05.02-.08 0-.03-.03-.08-.03-.13-.01l-.68-.8v-.06a.1.1 0 0 1 .08-.01.1.1 0 0 1 .06.04c.13.2.32.31.58.33a.3.3 0 0 0 .16-.03c.14-.08.16-.21.27-.27Z" fill="#FEDD43"/><path d="M6.77 9.15c.05.1.16.15.33.17.07.05.17.09.29.11-.1.14-.3.22-.59.26l-.05-.1c.04-.05.05-.08.01-.1a.08.08 0 0 0-.1 0l-.37-.18a.03.03 0 0 1 0-.06l.27-.15a.08.08 0 0 1 .08 0l.13.05Z" fill="#FDFCB7"/><path d="M11.77 9.13c.21.28.28.6.2.95L10.6 10c.02-.04.02-.07 0-.1.04-.02.09-.02.13.01.02.02.04.02.07 0a.13.13 0 0 0 .03-.06.05.05 0 0 0 0-.04.05.05 0 0 0-.04-.02.55.55 0 0 1-.33-.23c-.04-.06-.03-.07.03-.03.16.09.34.15.55.18.03 0 .06 0 .08-.03.13-.15.24-.33.32-.53.1.01.22 0 .33-.03ZM5.98 9.23c-.05.07-.05.1 0 .12 0 .06.05.11.12.16.22.1.4.1.57-.01a.08.08 0 0 1 .09 0c.04.01.03.04-.01.09l-.15.11a.54.54 0 0 1-.16.1.71.71 0 0 0-.38.3l-1.05.22.02-.05c.16-.05.23-.18.2-.36.08-.27.21-.46.4-.56l.19-.17a.1.1 0 0 1 .07-.02c.04 0 .07.03.09.07Z" fill="#FAC52A"/><path d="M9.05 9.94c.12.02.23 0 .34-.07.03-.01.04 0 .05.03l.02.1c-.04.11-.04.2.02.25.03.04.1.05.2.06h.25c-.06.06-.06.12 0 .16.16.1.32 0 .46.14l.01.03a.05.05 0 0 1-.05.06.1.1 0 0 1-.1-.06c-.02-.03-.04-.03-.07-.01l-.11.07c-.28.1-.62.11-1.01.06-.04-.03-.04-.1.02-.22a.1.1 0 0 1 .06-.05c.03-.01.07-.04.1-.1.04-.06.04-.12 0-.2-.02-.03-.04-.03-.05 0l-.03.07c-.01.03-.04.05-.07.03l-.24-.08c.06.02.11 0 .14-.04.02-.02.01-.05-.01-.07-.07-.07-.16-.08-.27-.03a.04.04 0 0 0-.02.03v.02a.16.16 0 0 0-.05.03l-.02.02v.02a.04.04 0 0 0 .03.03c.1.03.16.08.19.15 0 .02 0 .03-.03.04h-.03a.06.06 0 0 0-.07 0c-.11.1-.2.18-.35.25l-.69.28c0-.03-.02-.05-.05-.05.03-.03.05-.05.05-.07 0-.03 0-.03-.03-.02-.1.05-.19.03-.24-.05-.02-.03-.01-.05.02-.06a2.08 2.08 0 0 1 .7-.21l.02-.03c0-.04 0-.05-.03-.04.34-.05.45-.14.3-.29a2.91 2.91 0 0 1-.03-.38c0-.1-.03-.17-.08-.23l-.02-.07a.32.32 0 0 1 .06-.08.07.07 0 0 1 .12.03l.14.44c0 .02 0 .04-.02.05l-.02.01c-.03 0-.04.01-.05.04v.06c-.01.06 0 .07.06.04l.02-.03a.07.07 0 0 1 .08-.03.6.6 0 0 0 .38-.03Z" fill="#EBA818"/><path d="M8.3 9.5c.05.07.08.14.08.24 0 .13.02.26.03.38-.21.1-.4.12-.54.03.02-.02.03-.05.02-.06a.07.07 0 0 0-.03-.04.3.3 0 0 1-.09-.07.06.06 0 0 1 0-.07l.14-.25a.12.12 0 0 1 .07-.06l.32-.1ZM6.75 9.59l.05.1v.04c-.02.03 0 .04.03.05l.14.02c.03 0 .04.02.04.05l-.01.2-.94.05c.08-.14.21-.24.38-.3a.54.54 0 0 0 .16-.1l.15-.11Z" fill="#FEF47F"/><path d="M10.16 10.12c.04.04.12.05.2.03l.21.06c.03 0 .05.03.06.06a.2.2 0 0 1-.01.12.13.13 0 0 1-.14.03c-.17-.06-.3-.1-.4-.11a.1.1 0 0 0 0-.04.04.04 0 0 0-.03-.03H10l-.07-.42a.25.25 0 0 1-.06-.15c0-.05.02-.05.04-.01.11.13.16.29.14.46 0 .04.01.05.05.05.02 0 .03-.02.05-.05Z" fill="#E9940E"/><path d="m9.94 9.82.07.42a.19.19 0 0 0-.08.07h-.25c-.1 0-.17-.02-.2-.06-.06-.05-.06-.14-.02-.25l.06-.2c.01-.03.03-.04.06-.03l.11.01c.04 0 .07.02.1.04.03.03.09.03.15 0Z" fill="#FEF47F"/><path d="M5.84 10.05c-.05.03-.1.02-.16-.03L5.67 10v-.05c0-.03.02-.03.03-.02.09.07.18.09.27.06.02 0 .03 0 .03.03v.02l-.03.02c-.02 0-.04 0-.06-.02a.07.07 0 0 0-.07 0Z" fill="#B83C01"/><path d="M7 10.04h.86c.01.02.03.03.03.05.01.01 0 .03-.02.06l-.32.02a.11.11 0 0 0-.1.1c-.02.13-.08.2-.2.2l.1-.24c.02-.03 0-.05-.03-.05-.5-.06-.99-.04-1.48.08-.33 0-.56.07-.67.23.05.24.12.42.23.55-.06.08-.11.13-.16.14 0-.2-.04-.38-.15-.55a.2.2 0 0 1-.03-.08v-.07c0-.05-.02-.06-.06-.05l-.08.03c-.05.01-.06 0-.05-.05.02-.07.07-.1.14-.1l1.05-.2.94-.07Z" fill="#A12C01"/><path d="m8.85 10.21-.16-.09v-.02c0-.02.01-.03.02-.03.1-.05.2-.04.27.03.02.02.03.05 0 .07-.02.04-.07.06-.13.04Z" fill="#FDFCB7"/><path d="m10.35 10.06.02.1c-.1.01-.16 0-.21-.04a.2.2 0 0 1 .19-.06Z" fill="#A12C01"/><path d="m8.1 10.4-.82.16a.12.12 0 0 1-.03-.09c.12 0 .18-.06.2-.19a.11.11 0 0 1 .1-.1l.32-.03c.15.09.33.08.54-.03.15.15.04.24-.3.29Z" fill="#FEDD43"/><path d="m7.25 10.47-1.06.3-.44-.3a.4.4 0 0 0 .09-.21c.5-.12.99-.14 1.48-.08.03 0 .05.02.03.05l-.1.24Z" fill="#EBA818"/><path d="m8.69 10.12.16.09.24.08c.03.02.06 0 .07-.03l.03-.06c.01-.04.03-.04.05 0 .04.07.04.13 0 .19-.03.06-.07.09-.1.1a.1.1 0 0 0-.06.05c-.06.11-.06.19-.02.22.04.14.1.24.17.29a.1.1 0 0 1 .04.04c.01.02.02.03.01.05l-.23.12a.11.11 0 0 1-.08 0l-.33-.1a.03.03 0 0 1-.03-.03v-.02l.02-.01a.69.69 0 0 0 .32-.27v-.03l-.03-.01H8.9c-.29.34-.64.44-1.07.3H7.8l-.01.03a.01.01 0 0 0 0 .02l.24.08c.06.03.1.04.13.03.04 0 .09-.03.15-.06a.23.23 0 0 1 .3.05c.22.28.47.3.76.05.02-.02.03-.03.03-.05a.1.1 0 0 0-.02-.06c.03-.02.07-.03.1-.01.03 0 .04.02.05.02.38.1.66.02.84-.22.5.2.96.5 1.42.88l-.48.1a.15.15 0 0 0-.09-.08c-.03 0-.04-.03-.04-.06 0-.04.03-.08.07-.1a.07.07 0 0 0 .02-.11 1.26 1.26 0 0 0-.43-.28l-.35-.16h-.05l-.44.14c-.03 0-.05.03-.05.07v.04l-.06.15-.02.03a1 1 0 0 1-.85.48.95.95 0 0 1-.55-.18.83.83 0 0 1-.37-.39.14.14 0 0 0-.04-.09c-.01-.05-.03-.07-.05-.08a10.67 10.67 0 0 1-.45-.2h-.04l-.96.57c-.06.04-.12.08-.2.11l-.03.03c0 .02 0 .04.02.05-.04.02-.06.05-.06.1-.04-.02-.08-.02-.12 0-.16.13-.3.22-.41.29l-.03-.01v-.04a4.63 4.63 0 0 1 .31-.3h-.02c-.17-.27-.46-.42-.66-.58a.07.07 0 0 0-.07-.02l-.38.17H4.9l-.03-.01c-.02-.02-.02-.03 0-.05a8.57 8.57 0 0 1 2.41-.88l.83-.15c.04-.01.05 0 .04.04a.05.05 0 0 1-.04.04c-.22.02-.45.08-.68.2-.03.01-.04.03-.02.06.05.08.13.1.24.05.02-.01.03 0 .03.02s-.02.04-.05.07a.2.2 0 0 0-.15.05h-.04c-.01 0-.02-.01-.02-.03l-.01-.02-.02-.02h-.06c-.1.02-.2.06-.27.13H7c.08-.1.17-.18.27-.22.06-.03.06-.05-.01-.06a.6.6 0 0 0-.23 0c-.3.07-.64.17-1.03.3-.09.04-.15.08-.17.13a.05.05 0 0 1-.03.03.05.05 0 0 1-.04 0c-.07-.04-.16-.03-.26.05-.04.02-.04.05 0 .08.13.11.26.19.39.23.07.02.19-.02.34-.1l.37-.24c.02.05.05.07.07.07l-.26.16-.37.21c-.03.02-.03.04 0 .06l.1.11a.21.21 0 0 0-.03.05c-.01.04 0 .05.05.01a6.76 6.76 0 0 1 2.2-1.21c.16-.07.24-.14.35-.25a.06.06 0 0 1 .07 0h.03c.03-.01.03-.02.03-.04-.03-.07-.09-.12-.19-.15h-.02v-.03a.04.04 0 0 1 0-.04l.06-.03Z" fill="#B83C01"/><path d="m12.24 10.27.01.15-.24.26a.22.22 0 0 1-.2 0c-.12-.08-.22-.08-.28-.02a.31.31 0 0 1-.31-.2.11.11 0 0 0-.06-.05.13.13 0 0 0-.14.02.08.08 0 0 1-.08.01l-.16-.07c.05-.01.07-.03.08-.06.01-.06-.02-.1-.1-.13.49-.05.98-.02 1.48.09Z" fill="#EBA818"/><path d="M5.84 10.26a.4.4 0 0 1-.1.21c.1.2.25.3.45.3l1.06-.3c0 .04 0 .07.02.1-.7.14-1.38.37-2.02.68a.14.14 0 0 1-.01-.07c.05-.01.1-.06.16-.14a.1.1 0 0 0 .05.02.05.05 0 0 0 .06-.04c.03-.14.08-.27.15-.39.03-.04.02-.05-.02-.03l-.1.02a.13.13 0 0 1-.08 0l-.3-.13c.12-.16.35-.24.68-.23Z" fill="#FAC52A"/><path d="m12.7 11.1-1.17-.44c.06-.07.16-.06.29.01.06.03.12.04.2.01.12.01.22-.07.3-.23.02-.03.01-.04-.02-.05-.02 0-.03 0-.05.02l-.02-.15c.21 0 .4.05.58.16.02.02.04.01.06 0 0-.01.01-.02.02-.01.02 0 .03.02.02.04l-.2.5c-.02.03-.02.08 0 .15Z" fill="#D85402"/><path d="M10.62 10.4c.02.02.04.02.07.02l.05-.05h.04l.16.07c.03.01.06 0 .08-.01a.13.13 0 0 1 .14-.02c.02 0 .05.03.06.05.06.14.17.2.31.2l1.17.45.03.1h-.07a8.58 8.58 0 0 0-2.68-.8.04.04 0 0 1 0-.04.2.2 0 0 1 .1-.06c.1.01.23.05.4.11.05.02.1.01.14-.03Z" fill="#FEDD43"/><path d="m5.75 10.47.44.3c-.2 0-.34-.1-.44-.3Z" fill="#A12C01"/><path d="M5.4 11.04c-.1-.13-.18-.31-.23-.55l.29.13h.09l.09-.03c.04 0 .05 0 .02.04-.07.11-.12.24-.15.4a.05.05 0 0 1-.06.03.1.1 0 0 1-.05-.02Z" fill="#DB7008"/><path d="M10.07 10.7c.04.06.06.07.05.04-.01.05 0 .09.02.1.08.03.16.07.24.13-.18.25-.46.32-.84.22l-.05-.02c-.03-.02-.07-.01-.1 0l-.1-.02c0-.02 0-.04-.02-.06a.1.1 0 0 0-.04-.04c-.07-.05-.13-.14-.17-.29.4.05.73.03 1-.06Z" fill="#D85402"/><path d="m7 11-.4.2-.37.23c-.15.1-.27.13-.34.1a1.15 1.15 0 0 1-.4-.22c-.03-.03-.03-.05.01-.08.1-.07.2-.1.26-.06h.02a.05.05 0 0 0 .04 0v-.02c.03-.05.1-.1.18-.12.39-.14.73-.24 1.03-.3a.61.61 0 0 1 .23 0c.07 0 .07.02 0 .05A.65.65 0 0 0 7 11Z" fill="#E3670D"/><path d="m11.84 11.77-.6-.43c.08-.07.16-.07.23-.02.03.03.05.02.06-.01a.4.4 0 0 1 .1-.18.04.04 0 0 0 0-.05.04.04 0 0 0-.04-.02.93.93 0 0 1-.34.06.23.23 0 0 1-.2-.12l-.12-.2a.06.06 0 0 1 .06-.09l1.18.38h.02l.01.03v.05l-.04.03v.03h.04v.06c-.19.15-.38.18-.57.08-.03-.01-.05 0-.06.02l-.01.02v.01l.43.24c.04.01.04.04 0 .06-.02.03-.07.04-.15.05Z" fill="#D85402"/><path d="M10.65 10.96c.12.12.26.2.42.22.02.06.08.12.17.16l.6.43c.03.05.07.09.1.11v.07l-.14-.1a5.63 5.63 0 0 0-1.42-.88c-.08-.06-.16-.1-.24-.13-.02-.01-.03-.05-.02-.1.2.12.37.2.53.22Z" fill="#FEDD43"/><path d="m9.28 11.14.1.04a.1.1 0 0 1 .03.06c0 .02 0 .03-.03.05-.3.24-.54.23-.76-.04a.23.23 0 0 0-.3-.06.64.64 0 0 1-.15.06c-.03.01-.07 0-.13-.03a1.04 1.04 0 0 0-.24-.08v-.01l.01-.04h.02c.43.14.78.04 1.06-.3h.03l.02.01c.01.01.02.02 0 .03-.09.14-.2.23-.3.27h-.02a.03.03 0 0 0 0 .05h.02l.33.11a.1.1 0 0 0 .08 0l.23-.12Z" fill="#FAC52A"/><path d="M7.62 10.9c.03 0 .05.01.05.04-.54.24-1.05.55-1.51.93-.05.04-.06.03-.05 0l.03-.06c.15-.1.24-.22.27-.38l.26-.16c.1.07.23-.03.38-.27a.67.67 0 0 1 .27-.14.08.08 0 0 1 .06.01l.02.02.01.02c0 .02 0 .03.02.03h.04a.2.2 0 0 1 .15-.05Z" fill="#FEDD43"/><path d="M11.07 11.18a.68.68 0 0 1-.42-.21c.15-.13.29-.06.42.21Z" fill="#E9940E"/><path d="M7 11h.05c-.15.24-.28.34-.38.27-.02 0-.05-.02-.07-.07L7 11Z" fill="#A12C01"/><path d="M8.07 11.41a.77.77 0 0 1-.54.22l-.02.01-.02.04.01.02c.24.02.44-.05.6-.2.07.16.2.28.38.39-.13.1-.3.14-.5.13a.15.15 0 0 1-.1-.03.49.49 0 0 0-.5-.06 2.79 2.79 0 0 0-.44-.07.92.92 0 0 1-.37-.16l.96-.57a.09.09 0 0 1 .08 0l.41.2c.02 0 .04.04.05.08Z" fill="#FEDD43"/><path d="m10.85 11.33-.4.03c-.04 0-.06.02-.07.05-.02.06.01.12.08.15l.01.02-.02.02-.49-.19v-.04c0-.04.02-.06.05-.07l.44-.14h.05l.35.17ZM8.77 11.53a.7.7 0 0 1-.28-.12c-.04-.03-.07-.02-.09.03l-.01.03a.06.06 0 0 0 .03.08c.1.06.24.11.39.16h.04l.03-.02c.04-.02.04-.04 0-.06a.2.2 0 0 1-.08-.09c.21.03.41-.01.6-.12.08-.04.15-.06.2-.05.09.01.15.06.18.14.01.03 0 .06-.02.08-.13.14-.22.22-.26.24-.15.1-.4.13-.72.1a.48.48 0 0 1-.24-.1 18.15 18.15 0 0 0-.31-.26.29.29 0 0 1-.05-.1l.01-.1a.14.14 0 0 1 .05-.07.28.28 0 0 1 .22-.04c.04.01.1.04.15.1l.16.17Z" fill="#EBA818"/><path d="M11.32 11.96c-.02.12-.16.16-.42.12a.1.1 0 0 0-.08.02c-.14.1-.3.13-.47.08-.02-.01-.02-.03-.01-.05l.02-.02h.02c.04 0 .07-.02.11-.04.03-.03.03-.04-.01-.05L10.3 12l-.01-.01.01-.03c.02-.03.01-.05-.02-.05l-.15-.02c-.03 0-.05.01-.07.04a.35.35 0 0 0-.02.11c0 .01 0 .03-.02.04l-.03.01c-.57.08-1.13.11-1.67.1-.28-.01-.59-.1-.94-.26a.49.49 0 0 1 .5.06c.03.02.06.03.1.03.2.01.37-.03.5-.13.19.12.37.18.55.18a1 1 0 0 0 .85-.47c0 .12.09.15.23.11.04 0 .04-.02 0-.04l-.2-.11.05-.15.48.19h.01l.02-.02v-.02c-.08-.04-.1-.09-.09-.15.01-.03.03-.05.06-.05l.41-.03c.14.05.29.14.43.27a.07.07 0 0 1 .02.06.07.07 0 0 1-.04.05.12.12 0 0 0-.07.1c0 .03.01.05.04.07.05.01.07.04.09.08Z" fill="#DB7008"/><path d="m8.77 11.53.03.01a.2.2 0 0 0 .08.1c.04.01.04.03 0 .05l-.03.02H8.8c-.15-.05-.28-.1-.4-.16a.06.06 0 0 1-.02-.08l.01-.03c.02-.05.05-.06.1-.03.08.06.17.1.27.12Z" fill="#FEF47F"/><path d="M6.4 11.43a.56.56 0 0 1-.26.38l-.1-.11c-.03-.02-.03-.04 0-.06l.37-.21Z" fill="#E9940E"/><path d="M7.36 11.52c-.19-.01-.37.02-.52.18h-.01v-.08c.15-.14.3-.2.47-.2.04.01.07.02.09.04.05.04.04.06-.03.06Z" fill="#D85402"/><path d="m9.9 11.56.22.11c.03.02.03.03 0 .04-.15.05-.23 0-.24-.11l.02-.04Z" fill="#FAC52A"/><path d="M6.57 11.7c.16.1.28.15.37.16.17.01.32.03.44.07.35.16.66.25.94.26a10.67 10.67 0 0 0 1.7-.11l.02-.04c0-.03 0-.07.02-.1.02-.04.04-.05.07-.05l.15.02c.03 0 .04.02.02.05l-.01.03V12l.19.02c.04 0 .04.02.01.05a.18.18 0 0 1-.11.04.05.05 0 0 0-.04.02v.05h-.03c-.02.01-.03.02-.01.05l.02.05c0 .02 0 .04-.02.05a.06.06 0 0 1-.05.03l-.6.01c-.03 0-.04 0-.03-.02v-.03c0-.03 0-.04-.03-.04h-.04c-.03 0-.04.01-.02.04l.03.05c.01.03 0 .05-.02.06a.24.24 0 0 1-.19.04c-.12-.03-.32-.1-.49-.03-.07.02-.2.03-.35.02a.06.06 0 0 1-.05-.03.06.06 0 0 1 0-.06.28.28 0 0 1 .1-.06c.02 0 .02-.02 0-.02l-.02-.01h-.02a.87.87 0 0 1-.6.09l-.1-.01c-.07-.01-.1-.05-.12-.1a.07.07 0 0 0-.06-.06l-.82-.1a.09.09 0 0 1-.08-.06L6.73 12a.1.1 0 0 0-.08-.05l-.29-.06c-.02-.01-.02-.03-.02-.05l.04-.03.19-.11Z" fill="#D85402"/><path d="m11.8 11.85.14.1c.11.07.2.15.29.25v.04l-.03.01h-.01l-.36-.26a.12.12 0 0 0-.1-.02l-.3.05c-.02 0-.04.02-.04.05-.03.11-.1.16-.21.15a10.94 10.94 0 0 1-.24-.03l-.43.13a.17.17 0 0 0-.07.05c-.11.11-.32.1-.56.12-.18 0-.4.12-.57.09a1.4 1.4 0 0 0-.6-.01h-.16l-.45-.1a2.28 2.28 0 0 1-.45-.09c-.24-.08-.4-.13-.47-.14a2.88 2.88 0 0 0-.51-.04.07.07 0 0 1-.03-.03l-.03-.09a.08.08 0 0 0-.06-.05l-.25-.05c0-.04.02-.07.06-.09l.3.06a.1.1 0 0 1 .07.05l.01.04c.02.03.04.05.08.06l.82.1a.07.07 0 0 1 .06.05c.01.06.05.1.11.1l.1.02c.23.04.43.01.61-.1h.02l.02.02c.02 0 .02.01 0 .02a.28.28 0 0 0-.1.06.06.06 0 0 0 0 .06.06.06 0 0 0 .05.03c.16.01.28 0 .35-.02.17-.06.37 0 .5.03.06.01.12 0 .18-.04.03-.01.03-.03.02-.06l-.03-.05c-.02-.03 0-.04.02-.04h.04c.02 0 .03.01.03.04v.03c0 .02 0 .03.02.02l.61-.01c.02 0 .04-.01.05-.03a.09.09 0 0 0 .02-.05l-.02-.06c-.02-.02-.01-.03.01-.04h.04c.17.05.33.02.47-.08a.1.1 0 0 1 .08-.02c.26.04.4 0 .42-.12l.48-.11Z" fill="#6E0501"/><defs><linearGradient id="a" x1="5.44" y1="5.41" x2="11.27" y2="13.46" gradientUnits="userSpaceOnUse"><stop stop-color="#F4CD29"/><stop offset=".73" stop-color="#A64000"/><stop offset="1" stop-color="#CC4A00"/></linearGradient><linearGradient id="b" x1="5.76" y1="4.85" x2="11.73" y2="13.45" gradientUnits="userSpaceOnUse"><stop stop-color="#FB7A15"/><stop offset=".82" stop-color="#FFD91C"/><stop offset="1" stop-color="#FDFEC5"/></linearGradient><linearGradient id="c" x1="5.37" y1="3.57" x2="12.57" y2="13.94" gradientUnits="userSpaceOnUse"><stop stop-color="#FFFDDA"/><stop offset=".22" stop-color="#FEEA31"/><stop offset="1" stop-color="#EC6315"/></linearGradient></defs></svg>