<!-- by TradingView --><svg width="18" height="18" viewBox="0 0 18 18" xmlns="http://www.w3.org/2000/svg"><path fill="url(#a)" d="M0 0h18v18H0z"/><path d="M10.5 4c.33 0 .6.21.8.48a3.74 3.74 0 0 1 .6 1.4l.02.08.04.16a9.19 9.19 0 0 1 .16.88l.02.1.06.52v.03a3.74 3.74 0 0 1 1.32.58l.22.2c.15.16.26.35.26.57v.04c0 .33-.21.6-.48.8a3.74 3.74 0 0 1-1.32.58l-.02.13-.04.38-.03.15-.05.34-.03.15-.07.32-.03.12-.12.41a4.37 4.37 0 0 1-.51 1.1c-.08.1-.16.2-.26.27a.86.86 0 0 1-.55.21.77.77 0 0 1-.23-.04.96.96 0 0 1-.31-.17 1.54 1.54 0 0 1-.33-.38 3.51 3.51 0 0 1-.44-.99c-.07-.2-.13-.42-.18-.66-.05.24-.11.46-.18.66l-.1.32c-.12.3-.26.57-.41.78-.2.27-.47.48-.8.48-.34 0-.6-.21-.8-.48-.2-.27-.38-.65-.52-1.1a7.27 7.27 0 0 1-.12-.4c0-.05-.02-.1-.03-.13a9.18 9.18 0 0 1-.15-.8c0-.06-.02-.11-.03-.16l-.04-.37-.02-.14a3.74 3.74 0 0 1-1.32-.58c-.27-.2-.48-.47-.48-.8V9c0-.22.1-.41.26-.57l.22-.2a3.74 3.74 0 0 1 1.32-.58v-.03l.06-.53.01-.09a11.14 11.14 0 0 1 .17-.88l.04-.16a8.19 8.19 0 0 1 .1-.38c.15-.45.32-.83.53-1.1.2-.27.46-.48.8-.48.33 0 .6.21.8.48a3.74 3.74 0 0 1 .6 1.42l.1.34a8.42 8.42 0 0 1 .17-.66c.12-.4.27-.73.44-1l.07-.1c.2-.27.47-.48.8-.48Zm-4.12 6.65c.08.61.19 1.16.33 1.6.13.42.28.74.43.94.16.21.29.26.37.26.08 0 .2-.05.36-.26.15-.2.3-.52.43-.93a7.1 7.1 0 0 0 .31-1.46 12.9 12.9 0 0 1-2.24-.24l.01.09Zm5.25-.1c-.66.14-1.42.23-2.24.25a10.78 10.78 0 0 0 .3 1.46c.14.41.29.73.44.93.16.21.28.26.36.26.07 0 .18-.04.3-.19l.07-.07a1.81 1.81 0 0 0 .22-.39c.07-.15.14-.33.21-.54.14-.45.25-1 .33-1.61v-.1Zm-2.95-2.7c-.89.02-1.7.11-2.37.26a14.54 14.54 0 0 0 0 1.78c.67.15 1.48.24 2.37.25.02-.31.04-.64.04-.98v-.33c0-.32-.01-.63-.04-.93v-.05Zm.63.08c-.02.29-.03.59-.03.9V9.13c0 .35.01.69.04 1.01.88-.01 1.7-.1 2.37-.25a14.4 14.4 0 0 0 0-1.78c-.67-.15-1.48-.24-2.37-.26v.08Zm-3.57.32-.5.18c-.17.08-.32.16-.43.24-.2.15-.25.27-.26.35 0 .07.06.18.26.32.2.15.52.29.93.41h.02l-.01-.17v-.12a15.34 15.34 0 0 1 0-.92V8.24v.01Zm6.5 0a15.1 15.1 0 0 1 .01 1.24v.26c.42-.12.74-.26.94-.4.2-.15.25-.26.26-.33 0-.08-.07-.2-.26-.35a2.33 2.33 0 0 0-.43-.24 4.77 4.77 0 0 0-.5-.18h-.02Zm-1.75-3.7c-.08 0-.2.05-.36.26-.15.2-.3.52-.43.93l-.04.16a7.16 7.16 0 0 0-.28 1.37c.82.02 1.6.1 2.26.24l-.02-.1a9.1 9.1 0 0 0-.33-1.67 3.22 3.22 0 0 0-.43-.93c-.16-.21-.29-.26-.37-.26Zm-2.98 0c-.08 0-.21.05-.37.26-.15.2-.3.52-.43.93a9.1 9.1 0 0 0-.35 1.77 12.9 12.9 0 0 1 2.26-.24v-.03a9.87 9.87 0 0 0-.27-1.34l-.05-.16a3.22 3.22 0 0 0-.43-.93c-.16-.21-.28-.26-.36-.26Z"/><defs><linearGradient id="a" x1="16.62" y1="0" x2="-2.88" y2="11.71" gradientUnits="userSpaceOnUse"><stop stop-color="#0ACDED"/><stop offset=".51" stop-color="#D0ED71"/><stop offset="1" stop-color="#36ECCB"/></linearGradient></defs></svg>