<!-- by TradingView --><svg width="18" height="18" viewBox="0 0 18 18" xmlns="http://www.w3.org/2000/svg"><path fill="url(#a)" d="M0 0h18v18H0z"/><path fill-rule="evenodd" d="M9.96 13.52c.03-.02.04-.01.04.02v.39c0 .03.02.07.05.07h1.92c.02 0 .03-.03.03-.05V7.26c0-.02 0-.03-.03-.03H9.6c-.22 0-.37-.04-.46-.07a.67.67 0 0 1-.42-.45.7.7 0 0 1 .09-.62c.13-.21.36-.32.67-.32h1.14c.02 0 .06 0 .06-.03v-1.7c0-.02-.04-.04-.08-.04H9.47a2.57 2.57 0 0 0-2.64 2.05c-.09.48-.03.95.17 1.42l-.01.03A3.14 3.14 0 0 0 5.2 9.44a3.72 3.72 0 0 0-.13 1.9 3.16 3.16 0 0 0 3.74 2.6c.48-.08.85-.26 1.15-.42ZM10 9.04v-.02L9.96 9h-.98c-.46-.02-.78 0-.97.07a1.5 1.5 0 0 0-.97 1.8c.06.26.2.48.38.68a1.45 1.45 0 0 0 1.4.4 1.5 1.5 0 0 0 1.08-.97c.06-.19.1-.51.09-.97v-.98Z" fill="#BFF009"/><defs><linearGradient id="a" x1="3.35" y1="3.12" x2="21.9" y2="24.43" gradientUnits="userSpaceOnUse"><stop stop-color="#1A1E21"/><stop offset="1" stop-color="#06060A"/></linearGradient></defs></svg>