<!-- by TradingView --><svg width="18" height="18" viewBox="0 0 18 18" xmlns="http://www.w3.org/2000/svg"><path fill="#181B1E" d="M0 0h18v18H0z"/><path d="M4 4.68c0-.37.3-.68.68-.68h2.64c.37 0 .68.3.68.68V7h2.42l.59-.57-.01-.08v-1.7c0-.36.3-.65.65-.65h1.7c.36 0 .65.3.65.65v1.7c0 .36-.3.65-.65.65h-1.76l-.6.6a.7.7 0 0 1 .01.08v2.64l-.01.14.55.55.11-.01h1.7c.36 0 .65.3.65.65v1.7c0 .36-.3.65-.65.65h-1.7a.65.65 0 0 1-.65-.65v-1.7l.01-.11-.55-.55-.14.01H8v2.32c0 .37-.3.68-.68.68H4.68a.68.68 0 0 1-.68-.68v-2.64c0-.37.3-.68.68-.68H7V8H4.68A.68.68 0 0 1 4 7.32V4.68Z" fill="#32FFDC"/></svg>