<!-- by TradingView --><svg width="18" height="18" xmlns="http://www.w3.org/2000/svg"><path fill="url(#paint0_linear)" d="M0 0h18v18H0z"/><path d="M9 5a4 4 0 103.767 2.651.5.5 0 01.942-.337 5 5 0 11-3.179-3.076.5.5 0 11-.306.953A3.998 3.998 0 009 5z" fill="#fff"/><path d="M13.034 5.896a.931.931 0 01-.93.93c-.15 0-.302.035-.408.14l-.39.391c-.413.412-.444 1.06-.444 1.643A1.862 1.862 0 119 7.138c.548 0 1.152-.042 1.54-.43l.53-.53a.394.394 0 00.102-.282.931.931 0 111.862 0z" fill="#fff"/><defs><linearGradient id="paint0_linear" x1="14.53" y1="2.315" x2="4.845" y2="16.216" gradientUnits="userSpaceOnUse"><stop stop-color="#00ECD2"/><stop offset="1" stop-color="#1B456E"/></linearGradient></defs></svg>