<!-- by TradingView --><svg width="18" height="18" xmlns="http://www.w3.org/2000/svg"><path fill="url(#paint0_linear)" d="M0 0h18v18H0z"/><path d="M14.322 5.412c-.225-.203-.475-.355-.775-.405-.375-.051-.75.202-1 .38-.25.177-.75.634-.95.811-.2.177-.7.279-1.524.786C9.248 7.49 6.05 9.57 6.05 9.57h.825L3.15 11.52h.375L3 11.928c.3.076.6.025.875-.127v.127s4.424-1.774 5.273-1.318l-.525.152c.05 0 .875.05.875.05.05.356.25.685.55.863.5.33.525.532.525.532s-.25.101-.25.254a2.28 2.28 0 011.425 0s-.025-.153-.375-.254c-.35-.152-.65-.38-.875-.71-.2-.279-.275-.634-.15-.963.125-.33.55-.507 1.425-.963 1.024-.533 1.274-.938 1.4-1.268.124-.33.374-.938.474-1.242.1-.279.275-.507.5-.71.275-.152.575-.279.85-.38.05.025-.5-.431-.675-.558z" fill="#fff"/><defs><linearGradient id="paint0_linear" x1="3.349" y1="3.122" x2="21.904" y2="24.434" gradientUnits="userSpaceOnUse"><stop stop-color="#1A1E21"/><stop offset="1" stop-color="#06060A"/></linearGradient></defs></svg>