<!-- by TradingView --><svg width="18" height="18" fill="none" xmlns="http://www.w3.org/2000/svg"><path fill="#F0F3FA" d="M0 0h18v18H0z"/><path d="M4.4 10.556a1.336 1.336 0 010-1.905L9.61 3.5l.244.24c.532.526.532 1.38 0 1.906l-5.212 5.15-.243-.24z" fill="url(#paint0_linear_1530)"/><path d="M6.273 12.408a1.336 1.336 0 010-1.905l5.211-5.151.243.24c.533.526.533 1.38 0 1.905l-5.211 5.151-.243-.24z" fill="url(#paint1_linear_1530)"/><path d="M8.146 12.354a1.336 1.336 0 000 1.906l.243.24 5.212-5.151a1.336 1.336 0 000-1.905l-.243-.24-5.212 5.15z" fill="url(#paint2_linear_1530)"/><defs><linearGradient id="paint0_linear_1530" x1="6.523" y1="6.552" x2="11.419" y2="11.505" gradientUnits="userSpaceOnUse"><stop stop-color="#6BB7FF"/><stop offset="1" stop-color="#053BF7"/></linearGradient><linearGradient id="paint1_linear_1530" x1="6.523" y1="6.552" x2="11.419" y2="11.505" gradientUnits="userSpaceOnUse"><stop stop-color="#6BB7FF"/><stop offset="1" stop-color="#053BF7"/></linearGradient><linearGradient id="paint2_linear_1530" x1="6.523" y1="6.552" x2="11.419" y2="11.505" gradientUnits="userSpaceOnUse"><stop stop-color="#6BB7FF"/><stop offset="1" stop-color="#053BF7"/></linearGradient></defs></svg>