<!-- by TradingView --><svg width="18" height="18" fill="none" xmlns="http://www.w3.org/2000/svg"><path fill="#F0F3FA" d="M0 0h18v18H0z"/><path d="M15 9.257l-.8-.739-.952 1.137c-.126.108-.506.304-1.016.228-.51-.076-.788.095-.863.19l-3.158 3.662L9 14.5c1.111-1.286 3.403-3.944 3.654-4.21.315-.331.594-.142 1.043-.085.36.046.557-.07.611-.133L15 9.257z" fill="url(#paint0_linear_1530)"/><path d="M7.253 12.792l-.782-.739 2.4-2.777c.279-.322.665-.085 1.096-.085a1.2 1.2 0 00.737-.275l1.798-2.057.772.75c-.38.441-1.2 1.394-1.437 1.667-.297.341-.665.19-1.052.095-.309-.076-.608.12-.719.227l-2.813 3.194z" fill="url(#paint1_linear_1530)"/><path d="M9.009 3.5l-3.47 4.006c-.22.254-.818.238-1.185.159-.293-.063-.542.126-.63.228L3 8.716l.8.744c.325-.407 1.034-1.263 1.26-1.438.281-.218.714-.129.977 0 .21.103.483-.043.593-.129l3.187-3.63L9.01 3.5z" fill="url(#paint2_linear_1530)"/><path d="M5.531 11.149l-.783-.762c.427-.498 1.36-1.582 1.584-1.826.281-.307.789-.116 1.161-.124.298-.007.571-.203.67-.3l2.603-2.953.769.776c-.667.73-2.047 2.258-2.24 2.536a.606.606 0 01-.605.266 32.245 32.245 0 01-.527-.127c-.299-.074-.57.124-.67.232l-1.962 2.282z" fill="url(#paint3_linear_1530)"/><defs><linearGradient id="paint0_linear_1530" x1="14.302" y1="9.433" x2="9.565" y2="14.228" gradientUnits="userSpaceOnUse"><stop offset=".205" stop-color="#00C967"/><stop offset=".325" stop-color="#15E882"/><stop offset="1" stop-color="#16EA84"/></linearGradient><linearGradient id="paint1_linear_1530" x1="12.135" y1="8.355" x2="7.582" y2="12.756" gradientUnits="userSpaceOnUse"><stop offset=".232" stop-color="#00C969"/><stop offset=".416" stop-color="#09F183"/></linearGradient><linearGradient id="paint2_linear_1530" x1="7.692" y1="7.498" x2="5.301" y2="9.97" gradientUnits="userSpaceOnUse"><stop stop-color="#1BC775"/><stop offset=".715" stop-color="#0DD976"/></linearGradient><linearGradient id="paint3_linear_1530" x1="10.38" y1="6.674" x2="5.723" y2="11.018" gradientUnits="userSpaceOnUse"><stop offset=".401" stop-color="#1BD27F"/><stop offset=".609" stop-color="#2FE18B"/></linearGradient></defs></svg>