<!-- by TradingView --><svg width="18" height="18" viewBox="0 0 18 18" xmlns="http://www.w3.org/2000/svg"><path fill="#FDF5E0" d="M0 0h18v18H0z"/><path d="m5.86 5.53 2.27-1.3a1.72 1.72 0 0 1 1.74 0l2.27 1.3c.55.31.86.85.86 1.47v4c0 .62-.31 1.15-.86 1.47l-2.27 1.3c-.55.3-1.19.3-1.74 0l-2.27-1.3A1.65 1.65 0 0 1 5 11V7c0-.62.31-1.15.86-1.47Z" fill="#DC2625"/><path d="m10 6 .35 1.72c.08.37.3.65.63.8L12 9l-1.02.47c-.33.16-.55.44-.63.81L10 12l-.35-1.72c-.08-.37-.3-.65-.63-.8L8 9l1.02-.47c.33-.16.55-.44.63-.81L10 6ZM7 9l.18.86c.03.19.15.33.31.4l.51.24-.5.23a.56.56 0 0 0-.32.41L7 12l-.18-.86a.56.56 0 0 0-.31-.4L6 10.5l.5-.23a.56.56 0 0 0 .32-.41L7 9ZM8 6l.18.57c.03.13.15.22.31.27L9 7l-.5.16c-.17.05-.29.14-.32.27L8 8l-.18-.57c-.03-.13-.15-.22-.31-.27L7 7l.5-.16c.17-.05.29-.14.32-.27L8 6Z" fill="#F0F3FA"/></svg>