<!-- by TradingView --><svg width="18" height="18" viewBox="0 0 18 18" xmlns="http://www.w3.org/2000/svg"><path fill="url(#amerd4hxv)" d="M0 0h18v18H0z"/><path d="m14.77 8 .05.4a5.8 5.8 0 0 1-5.23 6.41 5.81 5.81 0 0 1-4.5-1.46 5.8 5.8 0 0 1 .27-8.92 5.8 5.8 0 0 1 7.5.18A5.77 5.77 0 0 1 14.76 8Z"/><path fill-rule="evenodd" d="M14.87 7.8a6.1 6.1 0 0 0-2.1-3.46 5.98 5.98 0 0 0-6.28-.8 6.03 6.03 0 0 0-3.31 6.9 5.99 5.99 0 0 0 11.7-2.65Zm-.1.2A5.84 5.84 0 1 0 3.24 9.99 5.84 5.84 0 0 0 14.77 8Z" fill="url(#bmerd4hxv)"/><path fill-rule="evenodd" d="M10.67 4a5.26 5.26 0 1 0 3.58 4.72c-.57 0-1.13-.04-1.69-.13l-.4-.12a2.5 2.5 0 0 1-.8-.5 97.6 97.6 0 0 0-.65-.6c-.32-.28-.68-.51-1.07-.69a2.5 2.5 0 0 0-.48-.13 4.17 4.17 0 0 0-2.65.6l-.06.02c-.02 0-.02.01 0 .02l.12.04c.55.14 1.1.3 1.51.7a1.03 1.03 0 0 1 .26.37.02.02 0 0 1-.02.02 5.27 5.27 0 0 0-2.63 1.5l.83.12a5 5 0 0 1 1.48.49c.35.19.67.46.78.86.18.62-.04 1.2-.56 1.57-.4.29-.89.36-1.43.21-.3-.1-.57-.26-.81-.47A4.7 4.7 0 0 1 9.7 4.33a6.37 6.37 0 0 1 2.24.74 4.26 4.26 0 0 1 1.95 1.99A5.29 5.29 0 0 0 10.67 4Zm1.25 8.7a4.71 4.71 0 0 0 1.74-3.12 2.67 2.67 0 0 1-2.07.2 8.74 8.74 0 0 1-1.08-.45l-.17-.08A5.2 5.2 0 0 0 9.62 9c-.5-.15-1.1-.18-1.6-.03-.34.11-.68.28-1.01.5H7v.01c.61.14 1.28.4 1.75.8.42.36.64.87.65 1.44a2 2 0 0 1-1.37 1.87c-.03 0-.03.01 0 .02a4.79 4.79 0 0 0 3.9-.9Zm-1.3 1.19a.15.15 0 0 0 0 .03l.03.04a.12.12 0 0 1-.03-.07Zm.03.07h-.01m2.38-4.72c-.47.16-.96.14-1.47-.05l-.84-.37a5.19 5.19 0 0 0-1.79-.53 1.86 1.86 0 0 0-.9-1.1L8 7.17l.01-.01.02-.01a2.4 2.4 0 0 1 1.5.1c.29.13.55.3.79.52l.6.55a3.3 3.3 0 0 0 2.1.9c.04 0 .04 0 0 .02Zm-.77-.17Zm-2.6-.46v.01a1 1 0 0 0 0-.03v.02Z" fill="url(#cmerd4hxv)"/><defs><linearGradient id="amerd4hxv" x1="9" y1="0" x2="9" y2="18" gradientUnits="userSpaceOnUse"><stop stop-color="#151723"/><stop offset="1" stop-color="#37112A"/></linearGradient><linearGradient id="bmerd4hxv" x1="9" y1="3" x2="9" y2="15" gradientUnits="userSpaceOnUse"><stop stop-color="#71AED8"/><stop offset="1" stop-color="#C06493"/></linearGradient><linearGradient id="cmerd4hxv" x1="3.75" y1="8.61" x2="14.27" y2="8.82" gradientUnits="userSpaceOnUse"><stop stop-color="#2BC8BD"/><stop offset=".53" stop-color="#118FF9"/><stop offset="1" stop-color="#ED69BD"/></linearGradient></defs></svg>