<!-- by TradingView --><svg width="18" height="18" fill="none" xmlns="http://www.w3.org/2000/svg"><path fill="#1C68F3" d="M0 0h18v18H0z"/><path fill-rule="evenodd" clip-rule="evenodd" d="M14 7v3H5.308C5.688 11.685 7.2 12.75 9 12.75c1.488 0 2.822-1 3.438-2.25H14V13a1 1 0 01-1 1H5a1 1 0 01-1-1V7h10zm-2.5 3.5A3.091 3.091 0 019 11.813c-1.01 0-1.97-.538-2.5-1.313h5zM6.812 7.75c-.783 0-1.454.496-1.562 1.25h.924a.637.637 0 01.638-.469c.322 0 .532.179.625.469h.938c-.108-.754-.779-1.25-1.563-1.25zm4.375 0c-.783 0-1.454.496-1.562 1.25h.938c.093-.29.303-.469.624-.469.322 0 .532.179.626.469h.937c-.108-.754-.779-1.25-1.563-1.25zM13 4a1 1 0 011 1v1H4V5a1 1 0 011-1h8z" fill="#fff"/></svg>