<!-- by TradingView --><svg width="18" height="18" viewBox="0 0 18 18" xmlns="http://www.w3.org/2000/svg"><path fill="#8C44EE" d="M0 0h18v18H0z"/><path d="M12.26 7.05a.8.8 0 0 0-.75 0L6.46 9.92a.8.8 0 0 1-.75 0l-1.16-.76C4.33 9.03 4 8.8 4 8.54V6.46c0-.26.11-.49.36-.61L5.7 5.1a.8.8 0 0 1 .75 0l1.2.74a.7.7 0 0 1 .34.6v1.28l1-.65V6.1c0-.25-.07-.48-.3-.61l-2.22-1.4a.8.8 0 0 0-.75 0L3.38 5.5A.68.68 0 0 0 3 6.1v2.82c0 .25.13.48.38.6l2.33 1.4c.22.13.5.13.75 0l5.05-2.82a.8.8 0 0 1 .75 0l1.15.74c.22.12.59.36.59.6v2.1a.7.7 0 0 1-.39.6l-1.35.77a.8.8 0 0 1-.75 0l-1.13-.76a.69.69 0 0 1-.38-.6v-1.28l-1 .65v.98c0 .25.04.48.28.6l2.25 1.4c.22.13.51.13.75 0l2.34-1.4a.72.72 0 0 0 .38-.6V9.08a.68.68 0 0 0-.38-.6l-2.36-1.43Z" fill="#fff"/></svg>