<!-- by TradingView --><svg width="18" height="18" xmlns="http://www.w3.org/2000/svg"><path fill="url(#paint0_linear)" d="M0 0h18v18H0z"/><path d="M7 7v4h3L7 7z" fill="url(#paint1_linear)"/><path d="M4 11h3V7l-3 4z" fill="#fff"/><path d="M5.914 13c.86.627 1.929 1 3.086 1a5.218 5.218 0 003.086-1H5.914z" fill="#FF2D55"/><path d="M10.47 11H4c.16.357.363.693.6 1h5.872v-1h-.002z" fill="#FFBC5B"/><path d="M11 9v3h2.358L11 9z" fill="url(#paint2_linear)"/><path d="M8.644 12H11V9l-2.356 3z" fill="#fff"/><path d="M11 8a1 1 0 100-2 1 1 0 000 2zM6.992 6.288a.643.643 0 100-1.285.643.643 0 000 1.285z" fill="#FFC95B"/><defs><linearGradient id="paint0_linear" x1="15.364" y1="2.636" x2="2.636" y2="15.364" gradientUnits="userSpaceOnUse"><stop stop-color="#FF2D55"/><stop offset="1" stop-color="#FFBC5B"/></linearGradient><linearGradient id="paint1_linear" x1="8.548" y1="7" x2="8.548" y2="11" gradientUnits="userSpaceOnUse"><stop stop-color="#A524B3"/><stop offset="1" stop-color="#FF2D55"/></linearGradient><linearGradient id="paint2_linear" x1="12.178" y1="9" x2="12.178" y2="12" gradientUnits="userSpaceOnUse"><stop stop-color="#A524B3"/><stop offset="1" stop-color="#FF2D55"/></linearGradient></defs></svg>