<!-- by TradingView --><svg width="18" height="18" viewBox="0 0 18 18" xmlns="http://www.w3.org/2000/svg"><path fill="url(#agxces1hz)" d="M0 0h18v18H0z"/><path fill="#441A32" d="M6.35 4h5.29v.79H6.35z"/><path fill="#FDE851" d="M7.06 4.77h4.64v.79H7.06zM7.06 12.44h4.69v.78H7.06z"/><path fill="#441A32" d="M6.35 13.22h5.29V14H6.35zM4 6.35h.75v5.29H4z"/><path d="M4.75 6.35h.72v5.3h-.72v-5.3ZM11.74 6.35h.79v5.29h-.79z" fill="#A2472A"/><path d="M5.47 6.35h.8v5.3h-.8v-5.3ZM12.53 6.35h.72v5.3h-.72v-5.3Z" fill="#FDE851"/><path d="M7.1 5.56h3.82v.77h.2v.02h.62v5.3h-.62v.02h-.15v.77H7.06v-.77h-.8V6.33h.83v-.77Z" fill="#E49303"/><path fill="#441A32" d="M13.25 6.06H14v5.29h-.75zM4.75 5.58h.72v.78h-.72zM4.75 12.44h.72v-.8h-.72zM5.47 4.77h.79v.81h-.79zM5.47 13.22h.8v-.78h-.8zM11.7 4.77h.83v.78h-.83zM11.75 13.22h.78v-.78h-.78zM12.53 5.54h.72v.81h-.72zM12.53 12.44h.72v-.8h-.72z"/><path fill="#FDE851" d="M11.7 5.54h.83v.81h-.83zM11.75 12.44h.78v-.8h-.78z"/><path fill="#A2472A" d="M10.92 5.56h.78v.8h-.78zM10.97 12.44h.78v-.8h-.78zM6.26 4.77h.83v.81h-.83zM6.26 13.22h.8v-.78h-.8zM5.47 5.58h.79v.78h-.79zM5.47 12.44h.8v-.8h-.8z"/><path fill="#FDE851" d="M6.26 5.58h.83v.78h-.83zM6.26 12.44h.8v-.8h-.8z"/><path d="M7.86 7H7v4h1V9.29h.71V7h-.85Zm1.43 0H11v4h-1V9.29h-.71V10H8.7V7.86h.58V7Z" fill="#A1482A"/><defs><linearGradient id="agxces1hz" x1="3.35" y1="3.12" x2="21.9" y2="24.43" gradientUnits="userSpaceOnUse"><stop stop-color="#1A1E21"/><stop offset="1" stop-color="#06060A"/></linearGradient></defs></svg>