<!-- by TradingView --><svg width="18" height="18" viewBox="0 0 18 18" xmlns="http://www.w3.org/2000/svg"><path fill="url(#a)" d="M0 0h18v18H0z"/><path d="M10.74 4h.03l.01.01L14 8.8a.04.04 0 0 1 0 .03v.01l-.02.01-1.09.63a.09.09 0 0 0-.04.08v1.51a.06.06 0 0 1-.04.06c-.11.03-.21-.02-.3-.15l-.02-.03-2.94-4.39a.49.49 0 0 1-.08-.28 238.63 238.63 0 0 0 0-1.52l.03-.03L10.74 4ZM8 5.44h.04l3.21 4.8a.04.04 0 0 1 0 .04l-1.1.63a.09.09 0 0 0-.04.08v1.51a.06.06 0 0 1-.04.06c-.12.03-.21-.02-.3-.15a285.83 285.83 0 0 0-3.04-6.23l.02-.02L8 5.44ZM5.28 6.88h.03l3.22 4.79a.04.04 0 0 1 0 .04h-.01l-1.1.64a.09.09 0 0 0-.04.08v1.5a.06.06 0 0 1-.04.06c-.11.03-.21-.02-.3-.14l-.01-.04-2.95-4.38A.49.49 0 0 1 4 9.14a238.63 238.63 0 0 0 0-1.52l.03-.02 1.25-.72Z" fill="#fff"/><defs><linearGradient id="a" x1="3.35" y1="3.12" x2="21.9" y2="24.43" gradientUnits="userSpaceOnUse"><stop stop-color="#1A1E21"/><stop offset="1" stop-color="#06060A"/></linearGradient></defs></svg>