<!-- by TradingView --><svg width="18" height="18" xmlns="http://www.w3.org/2000/svg"><path fill="url(#paint0_linear)" d="M0 0h18v18H0z"/><path d="M3.273 5.055a.5.5 0 01.52.04l4 2.895A.5.5 0 018 8.395V12.5a.5.5 0 01-1 0V8.65L4 6.48v6.02a.5.5 0 01-1 0v-7a.5.5 0 01.273-.445zM14.727 5.055a.5.5 0 00-.52.04L10.203 7.99a.5.5 0 00-.207.405V12.5a.5.5 0 001 0V8.65L14 6.48V12.5a.5.5 0 001 0v-7a.5.5 0 00-.273-.445z" fill="#fff"/><defs><linearGradient id="paint0_linear" x1="0" y1="9" x2="18" y2="9" gradientUnits="userSpaceOnUse"><stop stop-color="#1BC4A3"/><stop offset="1" stop-color="#586979"/></linearGradient></defs></svg>