<!-- by TradingView --><svg width="18" height="18" viewBox="0 0 18 18" xmlns="http://www.w3.org/2000/svg"><path fill="#F2BB15" d="M0 0h18v18H0z"/><path d="M4 5h2v1c0 .26.03.54.2.73l.04.04c.19.2.49.23.76.23a1 1 0 0 1 1 1.13c-.04.24-.03.5.13.69.1.11.25.18.4.18h.93c.16 0 .3-.07.41-.18.16-.18.17-.45.14-.69A1 1 0 0 1 11 7c.27 0 .57-.03.76-.23l.04-.04c.17-.2.2-.47.2-.73V5h2v1a1 1 0 0 1-1.11 1l-.73.78a.81.81 0 0 0-.18.4c-.05.26-.05.53.12.73l.08.09h.32a1.5 1.5 0 0 1 .25 2.98.9.9 0 0 0-.44.18l-.05.04c-.22.19-.26.51-.26.8v1h-2v-1a1 1 0 0 1 1-1c.17 0 .55-.5.8-.82.13-.17.2-.37.2-.58 0-.2-.07-.4-.2-.56l-.15-.16a.94.94 0 0 0-1.65.62v.5a1 1 0 1 1-2 0v-.5a.94.94 0 0 0-1.65-.62l-.22.25a.53.53 0 0 0-.13.35c0 .33.12.66.33.92.24.29.53.6.67.6a1 1 0 0 1 1 1v1H6v-1c0-.29-.04-.61-.26-.8L5.5 12a1.5 1.5 0 0 1 0-3h.32l.08-.1c.17-.19.17-.46.12-.71a.81.81 0 0 0-.18-.41l-.73-.79L5 7a1 1 0 0 1-1-1V5Z"/></svg>