<!-- by TradingView --><svg xmlns="http://www.w3.org/2000/svg" width="18" height="18"><path fill="#0E122E" d="M0 0h18v18H0z"/><path d="M12.98 8.83A3.92 3.92 0 009 4.5a3.96 3.96 0 00-3.97 4.43A3.21 3.21 0 017.2 8c1.07.01 1.97.57 2.28.83.27.23 1.1.66 1.97.56.7-.08 1.24-.36 1.53-.56z" fill="#F2B705"/><path d="M12 10.96c0-.15.11-.43.5-.43s.5.28.5.43v.63c0 .16-.15.41-.5.41s-.5-.25-.5-.4v-.64zm-6-.55c0-.12.19-.42.5-.41.31 0 .5.29.5.41v1.7c0 .12-.16.41-.5.41-.35 0-.5-.29-.5-.41v-1.7zm4 .99c0-.1.1-.4.5-.4s.5.3.5.4v1.2c0 .1-.11.4-.5.4s-.5-.3-.5-.4v-1.2zm-2-1c0-.12.18-.4.5-.4.33 0 .5.28.5.4v3.19c0 .12-.1.41-.5.41-.39 0-.5-.3-.5-.41V10.4z" fill="#52CAC7"/><path d="M7.47 9.2c-1.01-.08-1.61.56-1.97.9-.1.1-.35.02-.44-.1a.31.31 0 01.03-.4c.38-.37 1.2-1.16 2.42-1.06a2.9 2.9 0 011.76.7c.52.46 1.13.67 1.84.68a2 2 0 001.34-.49c.11-.1.38-.09.5.09.08.12.06.3-.05.4-.27.23-.97.67-1.8.66a3.2 3.2 0 01-1.87-.56c-.58-.45-.98-.76-1.76-.82z" fill="#52CAC7"/></svg>