<!-- by TradingView --><svg width="18" height="18" xmlns="http://www.w3.org/2000/svg"><path d="M0 9a9 9 0 1118 0A9 9 0 010 9z" fill="url(#paint0_linear)"/><path d="M7.445 10.515l1.491 3.069.69-2.338-2.181-.731zM4.455 8.94l2.284.547.706-2.012-2.99 1.465zm3.271.987s1.376.452 2.216.73a.347.347 0 00.232-.03L13.37 9.06l-2.078-.661a.38.38 0 00-.26.016c-1.021.497-2.288 1.01-3.306 1.513zm2.9-2.125c-.617-1.251-.916-1.844-1.54-3.11L7.56 9.228l3.066-1.425zM3 9.001l1.724-.854c.959-.472 1.917-.946 2.878-1.416a.356.356 0 00.199-.225c.375-1.12.756-2.238 1.135-3.356.014-.041.031-.082.057-.15.039.074.067.127.093.18.734 1.489 1.466 2.978 2.206 4.463.036.072.13.132.212.16 1.11.383 2.223.76 3.336 1.138l.16.056c-.102.052-.178.092-.255.13-1.433.707-2.866 1.416-4.302 2.119a.479.479 0 00-.269.308c-.37 1.11-.75 2.216-1.127 3.323-.01.03-.022.06-.047.123l-.262-.525c-.667-1.354-1.336-2.707-2-4.063a.39.39 0 00-.247-.221c-1.114-.373-2.226-.753-3.338-1.131-.04-.014-.08-.031-.153-.059z" fill="#fff"/><defs><linearGradient id="paint0_linear" x1="3.349" y1="3.122" x2="21.904" y2="24.434" gradientUnits="userSpaceOnUse"><stop stop-color="#1A1E21"/><stop offset="1" stop-color="#06060A"/></linearGradient></defs></svg>