<!-- by TradingView --><svg width="18" height="18" viewBox="0 0 18 18" xmlns="http://www.w3.org/2000/svg"><path fill="#F5AD37" d="M0 0h18v18H0z"/><circle cx="9" cy="9" fill="#776601" r="6"/><path d="M13.55 5.28a5.92 5.92 0 0 1 1.3 4.29 5.8 5.8 0 0 1-1.5 3.36 5.97 5.97 0 0 1-5.03 1.85 5.88 5.88 0 0 1-5.18-6.03A5.83 5.83 0 0 1 9.3 3.17a5.75 5.75 0 0 1 4.24 2.1Z" fill="#F0DF72"/><path d="m9.97 3.44.1.08a1.6 1.6 0 0 1-.48-.06c-.11-.02-.2 0-.25.06H9.2c.02 0 .03-.02.03-.03l-.01-.02h-.74c-.04 0-.1 0-.17.02l-.17.03c-.8.12-1.56.43-2.27.9l-.1-.02c-.03 0-.03 0-.01-.02a5.93 5.93 0 0 1 2.25-.92c.17-.04.37-.04.51-.06.23-.03.4-.04.53-.04s.43.04.91.08Z" fill="#B6A824"/><path d="M12.87 4.94a.66.66 0 0 1-.22-.13 5.68 5.68 0 0 0-2.46-1.23.4.4 0 0 1-.12-.06l-.1-.08a6.26 6.26 0 0 1 2.87 1.4v.03c-.01 0 0 .03.03.07Z" fill="#CEBA49"/><path d="M9.21 3.52h-.44a5.65 5.65 0 0 0-4 1.96h-.02a.01.01 0 0 1-.02 0v-.02a5.77 5.77 0 0 1 3.76-2 39.5 39.5 0 0 0 .75.03l-.03.03Z" fill="#554A04"/><path d="M10.07 3.52a.4.4 0 0 0 .12.06c.92.21 1.74.62 2.46 1.23.06.06.14.1.22.13a2 2 0 0 1 .48.49 2.9 2.9 0 0 0-.62-.48 5.54 5.54 0 0 0-3.4-1.43c.06-.06.15-.08.26-.05.2.04.36.06.48.05Z" fill="#776601"/><path d="M12.73 4.95a2.9 2.9 0 0 1 .96.9c-.08 0-.14-.03-.18-.07-.07-.08-.08-.07-.02.02l.04.04c.04.04.09.05.12.1.39.6.65 1.24.79 1.93l.06.18c.01.03.02.08.01.14v.2c0 .02 0 .02.03.02-.01.03-.02.07 0 .12a.46.46 0 0 0-.06.22c-.06-.11-.12-.21-.2-.3a.92.92 0 0 0-.27-.24 14.74 14.74 0 0 0-1.86-.92v-.02c.09-.11.2-.22.32-.31.14-.11.22-.2.26-.25.07-.1.12-.22.14-.35l.28-.8v-.04l-.02-.01a1.16 1.16 0 0 0-.59-.1c-.21.02-.39.06-.53.1-.12.04-.25.07-.37.08-.2.02-.38.06-.56.13a.42.42 0 0 1-.25.03c-.26-.07-.43-.17-.72-.31h-.02v.02c.27.15.56.28.86.4.14.04.2.1.3.2h.01l.02-.01v-.03a.44.44 0 0 0-.2-.17c-.03-.02-.03-.03 0-.04l1.07-.25.66-.07-.23.16c-.09.06-.17.1-.25.12-.11.03-.24.08-.4.15-.1.04-.15.11-.15.2 0 .03 0 .04-.02.06a.37.37 0 0 1-.17.05l-.02.01v.01c-.01.02-.01.03.01.03h.05c.01 0 .03 0 .04.02l.02.03v.03c0 .02 0 .03-.02.04a.37.37 0 0 1-.2.12.1.1 0 0 0-.08.08.1.1 0 0 0 0 .03c.03.12.1.22.2.3h.02c.02.09.13.1.2.13l.02.04.08.38a.79.79 0 0 0-.07.35c0 .03.01.05.04.07h.01a.02.02 0 0 0 .02 0 .02.02 0 0 0 0-.01l.02-.28c-.02.3-.02.48.01.56l.19.5c.03.1.03.23 0 .4l-.11.38a.78.78 0 0 1-.1.21l-.11.2a5.26 5.26 0 0 1-.32.36c-.04.03-.06.02-.06-.03.01-.09.02-.3.02-.64 0-.07.02-.14.05-.22 0-.03 0-.05-.03-.07a.04.04 0 0 1-.02-.04c.01-.07 0-.09-.05-.08a.78.78 0 0 0-.1-.24.11.11 0 0 1-.02-.05v-.04l-.06-.04c.02-.05 0-.08-.03-.1a.3.3 0 0 1-.07-.06c0-.04 0-.07-.02-.1l-.2-.32v-.04l.16-.15a1.5 1.5 0 0 1 .32.7l.01.01.3.17a.07.07 0 0 1 .03.07c-.03.17 0 .3.13.4l.07-.05a.18.18 0 0 0 .06-.08c.08-.2.1-.4.04-.61a6.44 6.44 0 0 0-.17-.36.55.55 0 0 1-.07-.26v-.42c0-.07-.03-.1-.11-.1.08-.05.08-.1-.02-.14h-.04a.25.25 0 0 0-.1.18c0 .13-.04.25-.08.36 0 .02-.01.02-.03.02l-.21-.04c-.05-.02-.07-.05-.09-.08l.05-.18c.07-.16.03-.3-.12-.43-.06-.05-.09-.04-.08.04 0 .06-.02.11-.07.17-.16.1-.32.3-.2.5l.06.22c0 .15.04.3.1.42.03.03.04.07.05.12l.05.13a.6.6 0 0 0-.3.02.32.32 0 0 1-.17-.1.03.03 0 0 0-.03-.01.03.03 0 0 0-.02 0v.04l-.3-.47a.22.22 0 0 0-.2-.11h-.15c-.07 0-.08.02-.04.07.3.35.52.58.69.7l.01.1c-.13.1-.2.2-.2.3l.01-.03a.04.04 0 0 0-.03-.03c-.06 0-.09-.02-.1-.05-.07-.14-.12-.23-.18-.26a.05.05 0 0 1-.03-.05v-.13a.09.09 0 0 0-.05-.08.09.09 0 0 0-.1.02l-.17.17c-.04.03-.07.05-.1.05a.93.93 0 0 1-.34-.1.69.69 0 0 1-.18-.15l-.35-.33a3.16 3.16 0 0 0-.7-.43.83.83 0 0 1-.18-.1c-.13-.1-.31-.22-.47-.2-.21.05-.4.1-.55.16a.64.64 0 0 1-.2.04.95.95 0 0 0-.23.04l-.06-.01-.03-.02c-.02-.01-.04 0-.06.02a.27.27 0 0 0-.06.17l.01.15c0 .27 0 .45.02.53.01.05.07.2.19.43v.05c-.04.07-.05.14-.03.2a3.38 3.38 0 0 0 .31.58l.57.79a.37.37 0 0 1-.16-.08 8.4 8.4 0 0 1-.65-.61c-.22-.24-.35-.41-.4-.51l-.08-.21a2.95 2.95 0 0 1-.22-1.6l.04-.01c.1 0 .21 0 .3.03h.05a.26.26 0 0 0 .07-.13.09.09 0 0 1 .05-.06.1.1 0 0 1 .07 0c.14.05.26.02.38-.08a.16.16 0 0 0 .05-.09l.05-.1a.04.04 0 0 0 0-.04.5.5 0 0 0-.15-.08.02.02 0 0 1-.01-.02.02.02 0 0 1 0-.02l.1-.1a.03.03 0 0 0 0-.02.02.02 0 0 0 0-.01c-.05-.05-.06-.07-.04-.08a.43.43 0 0 1 .1-.02l.07.01.12.05a.06.06 0 0 0 .05-.01c.08-.06.16-.1.26-.12.1-.02.16-.05.2-.1.13-.11.23-.24.28-.37v-.36a.8.8 0 0 1 .21-.26.04.04 0 0 0 .01-.05l-.06-.27a.05.05 0 0 1 .03-.06c.34-.1.68-.14 1.01-.15.08 0 .09 0 0-.03H8.8c-.43-.03-.84.01-1.26.13a6.99 6.99 0 0 1-.4-.28 1.76 1.76 0 0 0-.24-.16 19.5 19.5 0 0 1-.26-.14.4.4 0 0 0-.37-.02 1.3 1.3 0 0 1-.55 0c-.01-.01-.02-.02 0-.03a5.45 5.45 0 0 1 6.38-.14c.3.21.51.36.63.42Z" fill="#DAC751"/><path d="M7.54 5.3v.04a.2.2 0 0 1-.15-.04 6.1 6.1 0 0 0-.95-.57c-.02 0-.05 0-.07.02a1 1 0 0 0-.27.21c-.03.04-.05.08-.05.11l-.01.05c-.06.05-.1.1-.11.12-.12.21-.21.42-.29.63-.05.15-.04.29-.05.42l-.02.32-.03 1c0 .08-.04.26-.1.54a5.55 5.55 0 0 0 .01.81c.04.18.04.36.1.55.08.23.18.45.29.66-.02 0-.04.01-.06.05-.24-.37-.4-.77-.45-1.2a4.63 4.63 0 0 1 .02-1.17l.1-.68v-.82c0-.16.02-.3.06-.42.08-.3.2-.58.34-.8.09-.16.23-.3.42-.43a.4.4 0 0 1 .37.02l.26.14c.08.05.17.1.24.16.13.1.26.2.4.28Z" fill="#776601"/><path d="M7.55 5.34a.55.55 0 0 1 .21-.01c.02 0 .03 0 .03.03-.01.1 0 .21.03.31a.05.05 0 0 1-.01.05.78.78 0 0 0-.1.12.2.2 0 0 0-.05.15v.12c-.15.02-.18.1-.09.2a.06.06 0 0 0 .07.02l.02-.01v-.05l.01.04v.04a1.1 1.1 0 0 1-.27.38.43.43 0 0 1-.21.1.67.67 0 0 0-.26.1.07.07 0 0 1-.05.02.34.34 0 0 1-.12-.05.12.12 0 0 0-.07-.01c-.03 0-.06 0-.1.02-.02 0-.01.03.04.08a.02.02 0 0 1 0 .02v.01l-.1.1a.02.02 0 0 0 .01.04c.06.02.1.05.14.08a.04.04 0 0 1 .01.04.44.44 0 0 0-.05.1.16.16 0 0 1-.05.1c-.12.1-.24.12-.38.07a.1.1 0 0 0-.1.02l-.02.04a.26.26 0 0 1-.07.12.05.05 0 0 1-.05.01.81.81 0 0 0-.3-.03.05.05 0 0 0-.05.04 2.95 2.95 0 0 0 .31 1.78c.05.1.18.27.4.5.15.17.36.38.65.62.04.04.1.06.16.08.07.05.1.1.1.15l-1.27-.6a.3.3 0 0 1-.13-.1 4.07 4.07 0 0 1-.28-.67c-.07-.19-.07-.37-.1-.55-.03-.1-.04-.24-.04-.4a5.55 5.55 0 0 1 .12-.96 42.98 42.98 0 0 0 .05-1.3c0-.14 0-.28.05-.42.08-.22.17-.43.29-.64a.65.65 0 0 1 .1-.12.05.05 0 0 0 .02-.05c0-.03.02-.07.05-.1a1 1 0 0 1 .27-.22.15.15 0 0 1 .14 0c.31.16.6.34.88.55.05.04.1.05.16.04Z" fill="#AA991C"/><path d="M5.44 7.17c-.02.22-.05.45-.1.68a3.43 3.43 0 0 0 .44 2.37l.13.17c-.44-.2-.62-.18-1.04-.28-1.37-.32-1.03.67-.38 1.01l.86.45c.13.07.28.17.45.32l.02-.01v-.18c0 .06 0 .11.04.17v.05c0 .12.01.23.05.34l.14.66c.02.11.1.23.21.37.04.05.1.13.15.23.05.07.1.14.18.21-.01.06 0 .1.04.14.03.02.05.02.07 0a.04.04 0 0 0 .01-.04.22.22 0 0 1 0-.1 2 2 0 0 1 .25-.52l.17-.24-.02.11c0 .04 0 .04.03.02l.06-.05a.08.08 0 0 1 .05-.02c.2 0 .37 0 .5.03.15.04.37.12.67.26.73.32 1.46.63 2.2.93a5.7 5.7 0 0 1-4.27-.44c-.26-.15-.4-.22-.6-.36a5.6 5.6 0 0 1-2.18-3.39c-.04-.23-.1-.44-.1-.68l.01.06h.02l.02-.01c-.02-.13-.04-.25-.04-.38a5.04 5.04 0 0 1 .6-2.63c0-.02-.01-.02-.06-.02a4.42 4.42 0 0 1 1.12-1.5h.03a25.28 25.28 0 0 0-.5.54 5.14 5.14 0 0 0-.08.16h.05a.28.28 0 0 1 .04-.06c.05-.03.05-.02.02.03l-.42.58-.01.04.01.05c.11.23.27.42.48.57.13.1.35.22.68.36Z" fill="#CEBA49"/><path d="m6.77 6 .01-.05v-.03a3.72 3.72 0 0 1-.32-.37c-.11-.15-.16-.14-.14.03 0 .04-.01.1-.05.2-.03.08-.06.08-.13.12a.07.07 0 0 0-.04.05 1.7 1.7 0 0 0 0 .51l.02.05c.17.13.26.23.4.27l-.03.07c0 .03-.01.04-.04.05l-.03-.01-.08-.07c-.02-.02-.03-.02-.03.02 0 .06.04.12.1.17v.01l-.02.02h-.02a.6.6 0 0 0-.19-.12c-.07-.02-.08-.01-.02.04l.11.1c.07.06.06.08-.02.04a.74.74 0 0 1-.37-.3.05.05 0 0 1 0-.04v-.02a.04.04 0 0 1 .06 0l.13.04c.02 0 .03-.01.03-.03 0-.14-.06-.21-.18-.2-.01 0-.02 0-.03-.02l.01-.03c.01-.01.02-.02.04 0l.07.04a.02.02 0 0 0 .03 0 .02.02 0 0 0 0-.03.15.15 0 0 0-.07-.07c-.08-.04-.13.01-.18.07v.04l.02.05c.02.02 0 .03-.02.02a.26.26 0 0 1-.13-.07.04.04 0 0 1 0-.05c.04-.14.1-.22.1-.35l.03-.17.17-.35a3.86 3.86 0 0 0 .13-.31h.04c.02 0 .03.01.03.03 0 .04.02.06.06.08a.05.05 0 0 0 .04 0c.06-.04.1-.08.11-.11a.09.09 0 0 1 .08-.05h.04c.16.08.29.17.37.29.01.01.03.02.04.01l.08-.01c.02 0 .03 0 .03.02.01.04.03.07.07.1.01.01.02.02 0 .04l-.07.14a.1.1 0 0 1-.04.03l-.2.1Z" fill="#776601"/><path d="M12.87 6.36c-.1.12-.2.22-.26.32a.94.94 0 0 1-.13.17c-.13.13-.29.24-.38.37-.08.12-.14.25-.17.4l-.01.27-.01.02a.02.02 0 0 1-.02 0l-.02-.01a.07.07 0 0 1-.03-.07c-.01-.11.01-.23.07-.35a.38.38 0 0 0 .01-.19c0-.02 0-.03.03-.03l.02-.01c.02 0 .03-.01.04-.03.1-.12.2-.23.32-.32.17-.12.24-.25.4-.5.1-.13.15-.24.19-.34a27.5 27.5 0 0 0 .15-.5l-.02-.02a.42.42 0 0 0-.24-.05 7.47 7.47 0 0 0-1.72.32c-.04 0-.04.02 0 .04.08.04.14.1.18.17v.03h-.02c-.1-.08-.17-.15-.3-.2a6.14 6.14 0 0 1-.87-.4h.01l.02-.01c.3.14.46.24.72.3.07.02.15.02.25-.02.18-.07.36-.11.56-.13.12-.01.25-.04.37-.08.14-.04.32-.08.53-.1.2-.02.4.01.59.1a.04.04 0 0 1 .02.04l-.28.8Z" fill="#8E7C0B"/><path d="M6.77 6c-.03.02-.03.05 0 .08a.4.4 0 0 1-.1.07c-.06.03-.06.05 0 .07l.02.04c.02.05-.13.05-.04.13.05.05.04.06-.03.04l-.05-.01c-.02-.01-.03 0-.04.02 0 .04 0 .07.02.1a.5.5 0 0 1 .03.1v.13h-.05c-.15-.04-.24-.13-.4-.26a.07.07 0 0 1-.03-.05 1.7 1.7 0 0 1 .01-.54l.03-.02c.07-.04.1-.04.13-.12.04-.1.05-.16.05-.2-.02-.17.03-.18.14-.03a3.72 3.72 0 0 0 .32.4l-.01.04Z" fill="#2D2601"/><path d="m11.9 7.47-.07-.38a.05.05 0 0 0-.03-.03c-.07-.03-.17-.05-.19-.12l.08-.03a.41.41 0 0 0 .21-.09c.13-.1.32-.22.36-.3a2.08 2.08 0 0 1 .22-.33l.06-.24c0-.04 0-.07-.05-.08-.11-.03-.18-.02-.2.03-.16 0-.27.04-.32.11l-.14.18a.38.38 0 0 0-.1.11c-.02.08 0 .17-.06.22-.02.01-.02.03-.01.05l.03.01a.04.04 0 0 1 .03.03.04.04 0 0 1-.01.04.56.56 0 0 0-.12.27.52.52 0 0 1-.2-.29.09.09 0 0 1 .01-.07.1.1 0 0 1 .06-.04.37.37 0 0 0 .21-.12.07.07 0 0 0 .02-.08.06.06 0 0 0-.06-.04h-.05c-.02 0-.03 0-.02-.03h.01l.02-.02c.07 0 .13-.03.17-.06a.06.06 0 0 0 .02-.04c0-.1.05-.17.15-.21.15-.07.29-.12.4-.15l.25-.12.23-.16c.08 0 .16.01.24.05l.02.02v.03l-.15.47c-.04.1-.1.21-.18.33-.17.25-.24.39-.4.51-.13.1-.24.2-.33.32a.07.07 0 0 1-.04.03h-.02c-.02.01-.03.02-.03.04.01.07 0 .13-.01.18Z" fill="#AA991C"/><path d="m10.09 6.5-.07.15a.3.3 0 0 0-.02.04v.05c.02.05.02.05-.01 0a.1.1 0 0 0-.05-.04.31.31 0 0 0 .04-.07.1.1 0 0 0 0-.07 2.09 2.09 0 0 0-.31-.66h-.04a.01.01 0 0 0-.01 0 .01.01 0 0 0 0 .02c.12.22.2.44.27.67a.87.87 0 0 1-.3-.3 1.11 1.11 0 0 0-.12-.34.4.4 0 0 1-.04-.14l-.02-.17c0-.02 0-.03.02-.03.14-.03.29.08.43.18.08.05.15.06.24.07a.06.06 0 0 1 .05.08l-.07.19c-.04.1 0 .26 0 .37Z" fill="#B6A824"/><path d="M13.69 5.86c.46.67.75 1.4.89 2.17.02.13.01.26-.04.38l-.04-.01.01-.21-.01-.14a.66.66 0 0 1-.06-.18c-.14-.7-.4-1.33-.79-1.93-.03-.05-.08-.06-.12-.1a.56.56 0 0 1-.05-.04c-.05-.1-.04-.1.03-.02.04.04.1.07.18.08ZM11.7 6.91c.04-.07.09-.14.15-.2.05-.05.08-.1.1-.14l.07-.16c.03-.05.03-.11.04-.17 0-.01 0-.03.02-.04.09-.1.16-.2.2-.3.03-.05.1-.06.21-.03.04.02.06.04.05.08l-.06.25a.23.23 0 0 1 0 .02c-.09.1-.16.2-.22.3-.04.08-.23.2-.36.3a.41.41 0 0 1-.2.1Z" fill="#776601"/><path d="M12.28 5.9c-.04.1-.11.2-.2.3a.07.07 0 0 0-.02.04c-.01.06-.01.12-.04.17a.92.92 0 0 0-.07.16.45.45 0 0 1-.1.14l-.16.2-.08.03c0-.02-.01-.02-.02-.02.02-.1.06-.19.12-.27a.04.04 0 0 0-.02-.07l-.03-.01v-.05c.08-.05.05-.14.08-.22a1.6 1.6 0 0 0 .23-.29c.05-.07.16-.11.31-.11Z" fill="#2D2601"/><path d="M9.95 6.7a.36.36 0 0 1-.06-.11 3.3 3.3 0 0 0-.26-.69h.04c.15.21.25.43.32.66a.1.1 0 0 1 0 .07.31.31 0 0 1-.04.07ZM6.57 6.77a.38.38 0 0 0 .01-.14.5.5 0 0 0-.03-.09.18.18 0 0 1-.02-.1c0-.02.02-.03.04-.02l.05.01c.07.02.08 0 .03-.04l-.02-.04a.03.03 0 0 1 0-.04h.02l.03-.01c.01-.01.02-.02.01-.04 0-.03-.01-.04-.02-.04-.06-.02-.06-.04 0-.07a.4.4 0 0 0 .1-.07c.03 0 .06 0 .1.03l.05.07c.03.05.08.1.14.12v.01l-.01.02h-.01l-.02.01a.35.35 0 0 1-.12-.05h-.04v.02l.02.05v.03a.12.12 0 0 1-.05.03.05.05 0 0 0-.03.03.05.05 0 0 0 0 .04l.08.13v.05c-.08.09-.18.12-.3.1Z" fill="#776601"/><path d="M9.6 6.28c.06.12.16.22.3.3l.04.12a.1.1 0 0 1 .05.04c.03.05.04.05.02 0L10 6.7V6.7l.02-.04.07-.15c.02-.1.05-.18.1-.26a.07.07 0 0 1 .05-.03.07.07 0 0 1 .05.02c.05.04.07.06.07.14-.02.15-.07.28 0 .43l.13.35c.03.1.04.2.02.31-.01.08-.05.13-.12.16-.04.02-.1.01-.18-.01l-.34-.11a.72.72 0 0 1-.43-.41c-.09-.2-.14-.36-.17-.5a.7.7 0 0 1 0-.27.39.39 0 0 0 0-.17c-.03-.07-.02-.09.05-.05l.27.18Z" fill="#F0DF72"/><path d="M7.66 6.11V6.32a.05.05 0 0 1-.04.01.06.06 0 0 1-.04-.02c-.1-.11-.07-.18.08-.2Z" fill="#776601"/><path d="M4.02 6.4c.05 0 .07 0 .06.02l-.1.23a5.04 5.04 0 0 0-.5 2.4c0 .13.02.25.04.38 0 .01 0 .02-.02.02H3.5v-.01l-.03-.06-.04-.17a3.85 3.85 0 0 1-.02-.77c.08-.72.29-1.4.62-2.04Z" fill="#8E7C0B"/><path d="M9 7.31c-.43-.27-.75-.21-.95.17 0-.14.03-.28.07-.42.05-.14.06-.23.09-.36a.03.03 0 0 1 .01-.02.03.03 0 0 1 .03 0l.51.19c.08.02.13.05.17.1l.1.14v.05A.17.17 0 0 0 9 7.3Z" fill="#AA991C"/><path d="M11.15 7.6c-.03-.18-.12-.26-.27-.23a.24.24 0 0 0 .07-.17c0-.08.02-.1.08-.04.15.13.19.27.12.43Z" fill="#776601"/><path d="m9 7.31.22.17c.05.07.07.17.01.24a.8.8 0 0 0-.08.13c0 .02-.02.03-.04.03-.1 0-.2.04-.31.1a1 1 0 0 1-.68-.25c-.02-.02-.01-.02 0-.02h.02a.2.2 0 0 0 .13.03c.03 0 .03-.01 0-.03a.55.55 0 0 1-.22-.23c.2-.38.52-.44.95-.17Z" fill="#2D2601"/><path d="M8.77 7.73c.06-.1.07-.2.01-.31v-.1c0-.02 0-.03.02-.02.04.01.06.03.07.05l.22.25c.04.04.03.07-.03.08l-.29.05Z" fill="#FEF7BC"/><path d="m11.15 7.6-.05.17c-.16.13-.3.17-.42.1-.12-.2.04-.4.2-.5.15-.03.24.05.27.22Z" fill="#040302"/><path d="M11 7.6c0-.07-.05-.1-.07-.16a.02.02 0 0 1 0-.02.02.02 0 0 1 .02-.01c.06 0 .1.04.1.09l.02.1v.1a.2.2 0 0 1-.1.08c-.02.01-.02 0-.01-.02.03-.04.04-.1.04-.16Z" fill="#CEBA49"/><path d="M8.8 7.97a.99.99 0 0 1 .31-.1c.02 0 .03 0 .04-.02a.8.8 0 0 1 .08-.13c.06-.07.04-.17 0-.24l.23.1c.09.05.15.1.17.18.04.11.05.21.02.3a.33.33 0 0 1-.24.23.44.44 0 0 1-.3-.03.64.64 0 0 1-.31-.29Z" fill="#AA991C"/><path d="M11.67 7.47c.08 0 .12.03.11.1V8c0 .1.03.19.07.26a6.83 6.83 0 0 1 .17.36c.05.21.04.42-.04.61a.18.18 0 0 1-.06.08 3.2 3.2 0 0 1-.07.05.38.38 0 0 0 0-.17.98.98 0 0 1-.02-.32 26.62 26.62 0 0 0-.22-.7.6.6 0 0 1-.03-.29 2 2 0 0 1 .09-.4Z" fill="#FEFFEF"/><path d="M11.1 7.77c.02.03.04.06.09.08l-.13.15-.15.15c-.01.01-.02.02 0 .04l.19.32v.02c-.01.02-.02.02-.03 0l-.33-.44-.06-.22c.11.07.26.03.42-.1Z" fill="#8E7C0B"/><path d="m11.1 8.51.02.1h-.01s-.01 0 0 0a3.43 3.43 0 0 1 .08.15h.03l.05.05-.33-.05a.49.49 0 0 1-.05-.13.46.46 0 0 0-.04-.12.9.9 0 0 1-.1-.42l.32.45h.02V8.5Z" fill="#AA991C"/><path d="M9.04 9.8c-.11.12-.19.23-.23.31a.36.36 0 0 0 0 .33.3.3 0 0 1 .02.12v.11a.1.1 0 0 1-.02.07.1.1 0 0 1-.06.03c-.1.02-.2.01-.28-.03a4.65 4.65 0 0 1-.86-.53 2.57 2.57 0 0 0-.31-.3.8.8 0 0 1-.23-.35l.03-.03a.01.01 0 0 1 .02 0c.13.2.35.2.57.15.02 0 .03-.01.02-.03a2 2 0 0 0-.17-.3c-.1-.11-.23-.23-.42-.36-.16-.1-.22-.26-.21-.47V8.4c.02-.05.05-.08.1-.09.06-.01.11 0 .16.05.1.09.2.25.34.35l.11.06c.15.06.26.11.32.15.09.04.15.02.22-.03a.04.04 0 0 1 .06.02v.02c-.03.1-.15.16-.27.26a.03.03 0 0 0-.02.02.03.03 0 0 0 .01.03l.4.38c.03.04.08.07.14.08l.56.1Z" fill="#FEF7BC"/><path d="M14.54 8.54a5.06 5.06 0 0 1-.05 1.36 5.51 5.51 0 0 1-.51 1.55 5.29 5.29 0 0 1-1.69 1.97 1.64 1.64 0 0 0-.7-.84 8.74 8.74 0 0 0-1.14-.59.06.06 0 0 1-.01-.04c.03-.2.08-.42.18-.59.06-.09.1-.14.15-.17a2 2 0 0 0 .54-.46 105.12 105.12 0 0 0 .56-.61l.2-.25a.46.46 0 0 0 .09-.24.05.05 0 0 1 .06-.04l.48.15.43.39h.02a.03.03 0 0 0 .03 0V9.4l.01-.01h.01l.93.81.02.01a.03.03 0 0 0 .03-.01v-.16c.12-.1.2-.22.27-.35.04-.09.06-.2.06-.36 0-.18.02-.4-.03-.58 0-.08.02-.15.06-.21Z" fill="#CEBA49"/><path d="M11.12 8.6a.3.3 0 0 0 .07.07c.04.02.05.05.03.1l-.03-.01-.02-.02a3.26 3.26 0 0 0-.06-.13h.01Z" fill="#2D2601"/><path d="m10.64 8.78-.21.21a.28.28 0 0 1-.01-.1c.06-.03.06-.1 0-.18v-.03a.03.03 0 0 1 .02-.01.03.03 0 0 1 .03 0c.05.06.1.1.17.11Z" fill="#AA991C"/><path d="m10.94 8.76.33.05v.04l.03.05c.05.08.08.16.1.24.08.16.06.29-.06.37a.63.63 0 0 1-.4.48.1.1 0 0 0-.06.08.1.1 0 0 0 .03.1c.1.1.24.13.4.07.05.02 0 .07-.12.13-.19-.01-.37-.03-.55-.06l-.34-.02c-.28 0-.55-.07-.8-.22a.3.3 0 0 1-.07-.1c.05-.02.12.01.2.1.25.13.53.16.82.1a.35.35 0 0 0 .17-.07.13.13 0 0 0 .05-.1.13.13 0 0 0-.05-.1c-.11-.1-.21-.2-.3-.32a.7.7 0 0 1-.08-.28c0-.1.06-.21.19-.3l.2-.22a.6.6 0 0 1 .3-.02Z" fill="#2D2601"/><path d="M10.75 9.2c-.08-.07-.15-.05-.2.04-.03.03-.09.04-.16.04a.04.04 0 0 1-.04-.01v-.05c.1-.16.25-.36.44-.38.11-.02.21.02.3.1a.5.5 0 0 1 .15.18c.03.06.02.12-.02.18a.25.25 0 0 1-.18.1c-.02 0-.03.02-.03.04v.03c0 .03-.02.05-.04.06a.11.11 0 0 1-.1 0c-.02-.01-.03-.03-.02-.05.06-.1.03-.2-.1-.29Z" fill="#554A04"/><path d="M12.13 9.07c.02.23 0 .39-.05.49a108.14 108.14 0 0 1-.27.45.76.76 0 0 0-.07.14.43.43 0 0 1-.08.13l-.35.38-.02-.03c-.01-.02-.02-.02-.04 0-.13.12-.24.2-.33.24l-.8.39c-.04.02-.09.02-.13.03h-.02v-.02l.01-.02.17-.05v-.02c.01-.02 0-.02-.01-.03h-.04v-.02l.27-.1V11l-.01-.01h-.02a8.7 8.7 0 0 1-1 .2c-.06 0-.17.04-.34.1a1 1 0 0 1-.34.06 2.4 2.4 0 0 1-.72-.11c.04.01.05 0 .04-.02H8c.02-.01.02-.02 0-.04a.57.57 0 0 1-.17-.26 2.43 2.43 0 0 1-.05-.45l.01-.01a.03.03 0 0 1 .03 0c.26.15.43.26.52.3.1.06.26.1.36.09.32-.04.22-.29.15-.5a.23.23 0 0 1 0-.17l.15-.24c.04-.06.1-.1.2-.1.09 0 .16.05.22.12a.3.3 0 0 0 .06.12c0 .1.03.2.14.27l.24.17c.1.08.23.1.37.09h.23c.28.04.52-.04.72-.24.12-.06.17-.1.13-.13.02-.14 0-.3.06-.45v-.05l-.04-.23c.12-.08.14-.2.06-.36.04-.02.06 0 .05.07 0 .02 0 .03.02.04.03.02.04.04.03.07a.68.68 0 0 0-.05.22c0 .34 0 .55-.02.64 0 .05.02.06.06.03a5.22 5.22 0 0 0 .32-.36l.12-.2a.78.78 0 0 0 .09-.2l.1-.4Z" fill="#AA991C"/><path d="m11.34 9.51.04.23v.05c-.07.15-.04.3-.06.45-.17.06-.3.04-.41-.07a.1.1 0 0 1 .03-.18.63.63 0 0 0 .4-.48Z" fill="#776601"/><path d="M5.9 10.4c.02 0 .04.02.04.04v.06a.06.06 0 0 1 .04.03.06.06 0 0 1 0 .05c-.14.37-.19.74-.15 1.12v.18c-.01.02-.02.02-.03 0a2.5 2.5 0 0 0-.45-.31l-.86-.44a2.73 2.73 0 0 1-.62-.45.52.52 0 0 1-.14-.32l.01-.05c.2-.33.5-.45.9-.36.41.1.84.25 1.27.44Z" fill="#DAC751"/><path d="M11.2 10.37c-.21.2-.45.28-.73.24a.93.93 0 0 0-.23 0 .51.51 0 0 1-.37-.09l-.24-.17c-.1-.08-.15-.17-.14-.27.26.14.53.22.81.21.14 0 .25 0 .34.02.18.03.36.05.55.06Z" fill="#776601"/><path d="M5.84 10.17a.3.3 0 0 0 .13.12c.01.1.05.18.1.2l.19.13c.05.07.1.13.18.18l.05.01a.8.8 0 0 1 .46.15 3.62 3.62 0 0 0 1.6.62.02.02 0 0 1 0 .02c-.06.06-.12.08-.2.06h-.02a.02.02 0 0 0 0 .02c.07.16.18.21.33.16.01 0 .02 0 .03-.02l.1-.18.02-.01.18-.07.16.01c.03 0 .08 0 .15.02.14.02.27 0 .4-.05l.63-.27c.1-.05.2-.06.3-.05-.16.18-.26.4-.29.66 0 .03 0 .06-.02.09a.3.3 0 0 0-.02.08c0 .02-.01.04-.03.05-.12.12-.23.2-.33.24a5.43 5.43 0 0 1-.69.19H7.97a.9.9 0 0 0-.38.07c-.17.09-.33.21-.46.38l-.17.24a2 2 0 0 0-.26.5l.01.12-.01.04c-.02.01-.04 0-.07-.01-.04-.03-.05-.08-.04-.14l-.16-.3-.16-.23a.66.66 0 0 1-.14-.25 5.75 5.75 0 0 0-.1-.4.46.46 0 0 0-.06-.15.8.8 0 0 1-.07-.13.27.27 0 0 1 .1-.07c.01.1.05.18.1.25.02.02.03.03.05.03h.26a.06.06 0 0 1 .05.04.82.82 0 0 0 .11.29.04.04 0 0 0 .03 0h.02l.37-.22c.02-.02.05-.02.1 0 .01 0 .02.01 0 .03a.24.24 0 0 0-.04.12c-.02.22.27-.06.3-.09.03-.04.07-.22.14-.26.32-.16.65-.13 1.07 0v.01h.01l.41.01a3.92 3.92 0 0 1 .45-.1v-.02l-.15-.05c-.07-.03-.02-.11.03-.1.11.01.24.03.33-.01a.04.04 0 0 1 .04 0 .04.04 0 0 1 .01.04l.01.06h.05c.1-.04.18-.1.26-.18a.07.07 0 0 0 .03-.04l.01-.16c0-.02.02-.04.04-.06l.18-.1.03-.03a.4.4 0 0 0-.01-.14c.02-.03.01-.05-.03-.05l-.02.01-.21.18c-.08.03-.13.03-.17.01a.1.1 0 0 0-.06 0 .11.11 0 0 0-.05.02.13.13 0 0 0-.04.05l-.01.06.01.18c0 .02-.01.03-.03.03h-.11c-.02 0-.03 0-.03-.02a.51.51 0 0 1-.05-.25c0-.03-.01-.04-.03-.04h-.09c-.01 0-.03.02-.02.04.05.12.01.23-.12.33-.02.02-.05.02-.07 0v-.03c0-.01 0-.03.02-.04.02 0 .03-.01.03-.03v-.08c.06-.05.05-.07-.03-.06-.03.01-.08 0-.14 0l-.04.01-.16.16-.01.01a.15.15 0 0 1-.04.03h-.04a.3.3 0 0 0-.19-.03l-.26-.08-.44-.13c-.02 0-.02-.02-.02-.04a.2.2 0 0 1 .04-.1v-.04c-.08-.12-.17-.19-.27-.2-.11.01-.19.07-.22.18-.1.06-.23.02-.41-.11a.05.05 0 0 1-.02-.05l.04-.3a.06.06 0 0 0-.03-.06l-.17-.1a.1.1 0 0 0-.13.04c-.1.24-.25.44-.42.61-.06.06-.1.04-.16.03-.02 0-.03 0-.04.02a.34.34 0 0 0-.02.11c-.03.03-.05.03-.08.02l-.01-.02v-.02c0-.07.05-.13.05-.2v-.33c.01-.15.06-.28.05-.42v-.02H6l-.02.03h-.02l-.01-.01v-.01a.8.8 0 0 0 .04-.3l-.02-.05a.11.11 0 0 0-.03-.02.08.08 0 0 0-.03-.05l-.13-.17c.02-.04.04-.05.06-.05Z" fill="#201A01"/><path d="m7.23 10.88.3.21c.07.07.2.11.4.15.24.07.48.11.73.11A1 1 0 0 0 9 11.3c.17-.06.29-.1.35-.1a8.7 8.7 0 0 0 1.02-.19v.02l-.27.1v.02l.04.01c.01 0 .02.01.02.03v.01l-.01.01-.17.05-.01.02v.02H10c.04-.01.09-.01.13-.03l.8-.39c.1-.04.2-.13.33-.25.02-.01.03 0 .04.01l.02.03-.04.03c-.13.16-.23.26-.3.3a2.2 2.2 0 0 0-.33.23.58.58 0 0 0-.3.05l-.63.27a.72.72 0 0 1-.41.05 1.1 1.1 0 0 0-.15-.02 2.97 2.97 0 0 1-.6-.07 2.04 2.04 0 0 1-.28-.05L8 11.39a1.02 1.02 0 0 1-.24-.07 38.68 38.68 0 0 1-.82-.46 1.39 1.39 0 0 0-.23-.1c-.06-.02-.15-.01-.21-.03-.08-.02-.14-.09-.23-.11a3.93 3.93 0 0 0-.2-.12c-.04-.03-.08-.1-.1-.21l1.27.6Z" fill="#776601"/><path d="m6.03 11.8-.08.2v.05l.05.15a.28.28 0 0 0-.1.06.95.95 0 0 1-.03-.34l-.01-.06a2.37 2.37 0 0 1 .13-1.31.06.06 0 0 0-.02-.04h-.03c-.01-.01-.01-.03 0-.07l.03.02.02.04a.8.8 0 0 1-.04.32.02.02 0 0 0 .03 0s.02 0 .02-.02h.03l.02.02c0 .14-.05.27-.05.41l-.01.33c0 .07-.04.14-.05.2v.03l.02.02c.02.01.04 0 .07-.02Z" fill="#2D2601"/><path d="m9 11.56-.19.07-.02.01-.1.18-.03.02c-.15.05-.26 0-.34-.16a.02.02 0 0 1 .01-.02h.01c.09.02.15 0 .2-.06a.02.02 0 0 0 0-.03h-.01a3.62 3.62 0 0 1-1.58-.61.8.8 0 0 0-.46-.15c-.02 0-.04 0-.05-.02a.68.68 0 0 1-.18-.17c.09.02.15.1.23.11.06.02.15 0 .21.03.11.04.19.07.23.1a37.87 37.87 0 0 0 .82.46l.24.07c.1.01.19.03.28.06l.29.05.43.06Z" fill="#554A04"/><path d="m11.27 10.7.04.03a2 2 0 0 1-.54.46.51.51 0 0 0-.15.17c-.1.17-.15.4-.18.59v.04l.04.03c.38.16.75.35 1.1.56.34.2.58.48.71.84a6 6 0 0 1-1.66.84c-.75-.3-1.48-.62-2.2-.94-.3-.13-.53-.22-.68-.26-.13-.03-.3-.04-.5-.03l-.05.02-.06.05c-.03.02-.04.02-.03-.02l.02-.1c.13-.17.29-.3.46-.38a.9.9 0 0 1 .38-.08 34.8 34.8 0 0 1 1.29 0c.07 0 .15 0 .24-.03l.44-.15c.1-.05.2-.13.33-.24a.07.07 0 0 0 .03-.05.3.3 0 0 1 .02-.08.27.27 0 0 0 .02-.09c.03-.26.13-.48.3-.66.1-.09.21-.16.34-.23.06-.04.16-.13.29-.3Z" fill="#DAC751"/><path d="M6.12 11.1a.3.3 0 0 1 .12-.18h.03a.02.02 0 0 1 .01.02l-.05.31c-.05.16-.1.16-.14 0 0-.01 0-.07.03-.15ZM7.39 11.6c.09.1.2.15.3.16.06.01.07 0 .03-.04a.44.44 0 0 1-.11-.3c.1.01.2.08.27.2v.04a.2.2 0 0 0-.04.1c0 .02 0 .03.02.04l.44.13c-.2.15-.13.2.24.16.02 0 .03-.02.03-.04v-.04a.3.3 0 0 1 .18.02h.04c.01 0 .03 0 .04-.02a.77.77 0 0 1-.12.24.04.04 0 0 0 0 .04.04.04 0 0 0 .03.02H9a.04.04 0 0 0 .04-.04l-.07-.28c0-.02-.01-.03-.03-.03a.2.2 0 0 0-.1.04l.17-.16a.05.05 0 0 1 .04-.01h.14c.08 0 .09.01.04.06-.02.01-.02.04-.01.08 0 .01 0 .03-.03.03-.02.01-.03.02-.03.04v.02l.03.02h.03l.02-.01c.13-.1.17-.22.12-.33a.03.03 0 0 1 0-.03h.01l.01-.01h.09c.02 0 .03.01.03.03 0 .1 0 .18.05.26 0 .01.01.02.03.02h.11A.03.03 0 0 0 9.7 12a.03.03 0 0 0 .01-.02l-.01-.18a.14.14 0 0 1 .05-.12.11.11 0 0 1 .05-.02.1.1 0 0 1 .06.01c.04.02.1.01.17-.01-.03.03-.03.05 0 .06h.02l.02-.01.22-.19a.4.4 0 0 1 0 .13c0 .02 0 .03-.02.04l-.18.1a.08.08 0 0 0-.04.06l-.01.16-.03.04a.97.97 0 0 1-.26.19c-.02 0-.03 0-.05-.02a.07.07 0 0 1 0-.05.04.04 0 0 0-.04-.05h-.02c-.09.05-.2.06-.3.04l-.08.01v.06h.02l.14.06c.02 0 .02.01 0 .03a12.2 12.2 0 0 1-.87.07 1.23 1.23 0 0 0-.76.01c-.03 0-.07 0-.13-.03l.37-.14c.02 0 .03-.02.03-.03 0-.05 0-.1.02-.16a.04.04 0 0 0 0-.03l-.02-.02-.2-.07c-.03 0-.04 0-.05.02l-.27.47c0 .04-.03.07-.1.1-.07.04-.06.1-.1.14a.64.64 0 0 1-.17.16.08.08 0 0 1-.11-.03.08.08 0 0 1-.01-.04c0-.05.02-.09.04-.12.02-.02.01-.03 0-.04h-.1a71.77 71.77 0 0 1-.4.23.04.04 0 0 1-.03-.02.82.82 0 0 1-.1-.27c0-.01 0-.02-.02-.03a.06.06 0 0 0-.03-.02h-.25c-.03 0-.04 0-.05-.02a.56.56 0 0 1-.12-.25l-.05-.15V12l.09-.2c0-.05 0-.09.02-.12.01-.02.02-.03.04-.02.07.01.1.02.16-.03a2.05 2.05 0 0 0 .44-.64.09.09 0 0 1 .07-.02.1.1 0 0 1 .04.01l.17.1a.06.06 0 0 1 .03.06l-.04.3c0 .02 0 .03.02.04.18.14.31.18.4.12Z" fill="#554A04"/><path d="M6.43 12.03c-.02.02-.02.04 0 .06h.02l.12.05.02.04c0 .1-.05.2-.12.26l-.38-.2v-.01a.04.04 0 0 1-.02-.03l.01-.02c.1-.13.14-.21.25-.31a.98.98 0 0 0 .15-.18c.07-.1.17-.16.24-.27.03-.04.05-.03.06.02 0 .02 0 .05-.02.08a.34.34 0 0 1-.04.07.36.36 0 0 0-.08.3c0 .01 0 .02-.03.03a.63.63 0 0 1-.2.06c-.02 0-.03 0-.04.02 0 .02 0 .03.02.03h.04ZM7.6 11.43c.01.11.05.21.12.3.03.03.03.04-.02.04a.5.5 0 0 1-.31-.17c.03-.1.1-.17.22-.17Z" fill="#8E7C0B"/><path d="M7.53 12.1a.77.77 0 0 0-.38-.18l.02-.02a.08.08 0 0 0 .03-.04c0-.04.04-.07.09-.07.06 0 .13.03.22.08.08.06.09.14.02.23ZM7.15 11.92l-.24.43v-.03c-.02-.02-.03-.02-.05-.01-.05.03-.13.03-.23 0l.02-.25c0-.02-.01-.04-.03-.05a.16.16 0 0 0-.09 0 214.34 214.34 0 0 0 .5-.1h.12Z" fill="#776601"/><path d="m7.53 12.1-.6.33-.02-.01a.2.2 0 0 1 0-.07l.24-.43c.14.02.26.08.38.18Z" fill="#B6A824"/><path d="M7.66 12.37a.23.23 0 0 1-.12.04l.27-.47c0-.02.02-.03.05-.02l.2.07a.03.03 0 0 1 .03.02.04.04 0 0 1 0 .03.3.3 0 0 0-.03.16c0 .02 0 .03-.03.04l-.37.13Z" fill="#776601"/><path d="M8.83 12.01V12a.2.2 0 0 1 .1-.04c.02 0 .03 0 .03.03l.07.28a.04.04 0 0 1-.02.04h-.27a.04.04 0 0 1-.03-.02.04.04 0 0 1 0-.04c.05-.07.1-.15.12-.24Z" fill="#8E7C0B"/><path d="m6.53 12 .1.01.02.05-.02.25c.02.1-.03.14-.16.13a.42.42 0 0 0 .12-.25c0-.02 0-.04-.02-.05a.35.35 0 0 0-.12-.04l-.02-.01c-.02-.02-.02-.04 0-.06l.1-.02Z" fill="#B6A824"/><path d="M6.6 13.73a.97.97 0 0 1-.19-.21c-.06-.1-.1-.18-.15-.23a.91.91 0 0 1-.21-.37l-.15-.66.07.14c.04.05.06.1.07.14l.09.4c0 .07.06.15.14.26l.16.23.16.3Z" fill="#8E7C0B"/><path d="M6.52 12.83v.1c-.02.1-.07.15-.16.15-.02 0-.03-.01-.05-.03-.08-.08-.12-.21-.1-.38 0-.01 0-.02.02-.02l.17.06c.05.03.08.06.08.08 0 .02.02.03.04.04ZM6.7 12.87c.11 0 .2.03.25.1V13l-.18.3c-.16.08-.24.01-.23-.22l.02-.05a.07.07 0 0 0 .02-.04.1.1 0 0 1 .03-.05.27.27 0 0 1 .1-.08Z" fill="#8E7C0B"/><path d="M13.81 9.24v-.02h-.05l-.91-.9c-.05-.04-.07-.03-.07.03v.73c0 .02-.01.03-.03.03h-.17c-.03 0-.05.02-.05.06v.12c0 .04.02.06.05.06h.17c.02 0 .03.02.03.04l-.01.49.4.44.03.01h.02l.01-.02V9.5a.01.01 0 0 1 .03 0l.98.91.02.01h.02l.01-.01V8.34a.04.04 0 0 0-.04-.05h-.41c-.03 0-.04.02-.04.05v.88l.01.02Z" fill="#B6A824"/></svg>