<!-- by TradingView --><svg width="18" height="18" viewBox="0 0 18 18" xmlns="http://www.w3.org/2000/svg"><path fill="url(#a)" d="M0 0h18v18H0z"/><path d="M6.24 5.35A4.14 4.14 0 0 0 5 7.95v3.2c0 .18.06.32.17.4.11.08.25.11.4.09.15-.02.26-.1.34-.24a.66.66 0 0 0 .06-.32V8.42c0-.36.01-.62.05-.8.14-.6.42-1.13.84-1.57a3.62 3.62 0 0 1 2.6-1.15 3.79 3.79 0 0 1 2.76 1c.15.1.3.12.47.07a.43.43 0 0 0 .3-.35.37.37 0 0 0-.08-.32A4.84 4.84 0 0 0 9.28 4a4.78 4.78 0 0 0-3.04 1.35Zm1.38 5.2a705.17 705.17 0 0 0 0-1.93c0-.26 0-.45.03-.58A2.03 2.03 0 0 1 9.6 6.46c.57 0 1.07.19 1.5.59a.3.3 0 0 0 .24.08.3.3 0 0 0 .2-.1c.08-.1.1-.2.05-.32a.58.58 0 0 0-.18-.21 2.68 2.68 0 0 0-1.88-.63 2.62 2.62 0 0 0-2.5 2.1c-.02.13-.03.33-.03.6v2.02c0 .11 0 .19.03.23.05.1.14.16.27.15a.3.3 0 0 0 .28-.15.64.64 0 0 0 .04-.28ZM13 9.36v.13c0 .4-.01.7-.04.89a4.15 4.15 0 0 1-1.4 2.45c-.52.46-1.12.78-1.8.97a5.01 5.01 0 0 1-4.47-.91.98.98 0 0 1-.24-.27.38.38 0 0 1-.02-.33.4.4 0 0 1 .2-.23.54.54 0 0 1 .5-.01l.25.2.17.13a3.74 3.74 0 0 0 2.45.7 3.7 3.7 0 0 0 2.5-1.1 3.18 3.18 0 0 0 .94-2.5V6.8c0-.1.04-.2.12-.29.17-.16.37-.2.6-.08.16.07.24.2.24.38v2.57ZM10.4 7.7a162.48 162.48 0 0 0 0 2.05c0 .23-.01.4-.04.54-.05.19-.11.36-.2.5-.4.68-.97 1.02-1.74 1.03a1.95 1.95 0 0 1-1.4-.56.33.33 0 0 0-.14-.08.47.47 0 0 0-.16 0c-.09 0-.15.06-.19.15a.33.33 0 0 0 0 .26c.01.04.07.1.16.2a2.57 2.57 0 0 0 2.16.6A2.56 2.56 0 0 0 11 9.87V7.57a.23.23 0 0 0-.07-.17c-.1-.1-.2-.12-.31-.08a.3.3 0 0 0-.18.14.5.5 0 0 0-.04.23Z" fill="#fff"/><defs><linearGradient id="a" x1="9" y1="0" x2="9" y2="18" gradientUnits="userSpaceOnUse"><stop stop-color="#916EFF"/><stop offset="1" stop-color="#4460FF"/></linearGradient></defs></svg>