<!-- by TradingView --><svg width="18" height="18" xmlns="http://www.w3.org/2000/svg"><path d="M0 9a9 9 0 1118 0A9 9 0 010 9z" fill="#24397D"/><path d="M5.79 6.924c.903-.731 3.145-1.621 4.889.665-.938.742-3.23 1.647-4.89-.665zM7.166 13.987c-.787-.843-1.764-2.95.624-4.636.799.875 1.793 3.028-.624 4.636zM9.181 10.856c.088-1.122 1-3.254 3.944-2.814-.105 1.152-1.04 3.328-3.944 2.814zM10.09 4c-.419.695-.78 2.289 1.13 3.11.396-.728.724-2.368-1.13-3.11zM9.199 11.566c.217.772 1.145 2.146 3.113 1.461-.258-.78-1.243-2.166-3.113-1.461zM4.001 9.97c.733.4 2.417.746 3.29-1.057-.767-.378-2.5-.694-3.29 1.057zM7.38 4.284c-.046.552.254 1.64 1.822 1.57.004-.56-.355-1.658-1.822-1.57zM11.535 11.116c.379.423 1.4.997 2.463-.097-.414-.4-1.486-.941-2.463.097zM4.32 12.45c.583.053 1.737-.215 1.686-1.7-.592-.011-1.758.312-1.687 1.7z" fill="#fff"/></svg>