<!-- by TradingView --><svg width="18" height="18" viewBox="0 0 18 18" xmlns="http://www.w3.org/2000/svg"><path fill="url(#a0dfahjvo)" d="M0 0h18v18H0z"/><path fill-rule="evenodd" d="m8.55 4.27-4.36 6.85c-.12.2-.19.42-.19.65 0 .68.58 1.23 1.29 1.23h7.42c.71 0 1.29-.55 1.29-1.24 0-.22-.06-.44-.18-.64L9.54 4.27a.59.59 0 0 0-.5-.27c-.2 0-.39.1-.5.27Zm4.39 7.2L9.5 6.21V12h3.08c.36 0 .52-.23.36-.53Zm-7.88 0L8.5 6.21V12H5.44c-.37 0-.54-.23-.38-.53Z" fill="#fff"/><defs><linearGradient id="a0dfahjvo" x1="3.35" y1="3.12" x2="21.9" y2="24.43" gradientUnits="userSpaceOnUse"><stop stop-color="#1A1E21"/><stop offset="1" stop-color="#06060A"/></linearGradient></defs></svg>