<!-- by TradingView --><svg width="18" height="18" viewBox="0 0 18 18" xmlns="http://www.w3.org/2000/svg"><path fill="url(#a)" d="M0 0h18v18H0z"/><path d="M9 3a6 6 0 0 1 3.24 11.05h.01-.03A6 6 0 1 1 9 3ZM3.6 7.31a5.64 5.64 0 0 0 7.4 6.97 16.1 16.1 0 0 1-4.8-3.72 26 26 0 0 1-2.6-3.25ZM9 3.35c-1.22 0-2.35.4-3.27 1.05 1.56.71 3.03 1.67 4.33 2.84v.66a19.77 19.77 0 0 0-4.64-3.27A5.67 5.67 0 0 0 4 6.38c.24.54.84 1.53 2 2.86V6h1.42l3.08 3.79V6H12v6h-1.39L7.5 8.07v2.75l.32.32a14.45 14.45 0 0 0 4.01 2.74 5.67 5.67 0 0 0 1.72-1.53c-.39-.72-.85-1.43-1.37-2.12v-.72c.6.8 1.14 1.64 1.58 2.52A5.65 5.65 0 0 0 9 3.35Z" fill="#fff"/><defs><linearGradient id="a" x1="1.62" y1="4.96" x2="15.33" y2="15.94" gradientUnits="userSpaceOnUse"><stop stop-color="#37ECCF"/><stop offset="1" stop-color="#5575FD"/></linearGradient></defs></svg>