<!-- by TradingView --><svg width="18" height="18" viewBox="0 0 18 18" xmlns="http://www.w3.org/2000/svg"><path fill="url(#ahoblcmql)" d="M0 0h18v18H0z"/><path fill-rule="evenodd" d="M4 12c1.1 0 2-1.34 2-3s-.9-3-2-3-2 1.34-2 3 .9 3 2 3Zm-.01-.75c.74 0 1.33-1 1.33-2.25 0-1.24-.6-2.25-1.33-2.25-.74 0-1.33 1-1.33 2.25 0 1.24.6 2.25 1.33 2.25ZM7 12h.57V7.68L8.63 12h.67l1.13-4.32V12H11V6h-.92l-1.11 4.79L7.87 6H7v6Zm7 0c.54 0 1.03-.32 1.38-.84V12H16V9h-2v.75h1.32c-.18.9-.7 1.56-1.32 1.56-.76 0-1.38-1-1.38-2.25 0-1.24.62-2.25 1.38-2.25.7 0 1.1.48 1.27 1.19h.64c-.2-1.17-.83-2-1.91-2-1.1 0-2 1.34-2 3s.9 3 2 3Z" fill="#fff"/><defs><linearGradient id="ahoblcmql" x1="3.35" y1="3.12" x2="21.9" y2="24.43" gradientUnits="userSpaceOnUse"><stop stop-color="#1A1E21"/><stop offset="1" stop-color="#06060A"/></linearGradient></defs></svg>