<!-- by TradingView --><svg width="18" height="18" xmlns="http://www.w3.org/2000/svg"><path d="M0 9a9 9 0 1118 0A9 9 0 010 9z" fill="url(#paint0_linear)"/><path d="M11.764 4c-1.18 0-2.233.966-2.264 2.15v2.398c-.217 0-.252.031-.5.031s-.283 0-.5.031V6.15C8.5 4.965 7.495 3.968 6.283 4 5 4 4.031 4.997 4 6.15v5.731c.031 1.184 1.072 2.15 2.283 2.118 1.18-.03 2.217-.965 2.217-2.118V9.482c.217 0 .252-.03.5-.03s.283 0 .5-.032v2.43c.031 1.184 1.053 2.18 2.264 2.15 1.18-.032 2.236-.998 2.236-2.15v-5.7C14 4.965 12.944 4 11.764 4zm-5.48 1C6.997 5 7.5 5.433 7.5 6.15v2.523a8.1 8.1 0 00-1.885.53c-.249.124-.398.248-.615.435V6.15C5 5.464 5.57 5 6.283 5zM7.5 11.881C7.5 12.597 6.998 13 6.283 13 5.57 13 5 12.598 5 11.881v-.56c0-.5.304-.998.988-1.278.465-.218.984-.343 1.512-.436v2.274zM11.764 13c-.714 0-1.264-.402-1.264-1.119V9.358a8.344 8.344 0 001.916-.53c.249-.124.367-.249.584-.436v3.489c0 .716-.553 1.119-1.236 1.119zm.28-4.982c-.466.218-1.016.343-1.544.436V6.15c0-.716.55-1.149 1.264-1.149S13 5.433 13 6.15v.56c.031.53-.273.997-.957 1.308z" fill="#fff"/><defs><linearGradient id="paint0_linear" x1="15.507" y1="2.746" x2="3.825" y2="16.33" gradientUnits="userSpaceOnUse"><stop stop-color="#00E8A2"/><stop offset="1" stop-color="#00B1E2"/></linearGradient></defs></svg>