<!-- by TradingView --><svg width="18" height="18" xmlns="http://www.w3.org/2000/svg"><path d="M0 9a9 9 0 1118 0A9 9 0 010 9z" fill="#F0F3FA"/><path d="M6.78 5.302c.19-.23.365-.425.531-.589-2.814-.096-1.995 2.06-2.912 4.253-1.056 2.524.125 3.486 1.883 3.785a4.099 4.099 0 01-.594-1.03c-1.14-1.522-.681-4.295 1.091-6.419z" fill="#EFE812"/><path d="M13.551 7.991c-.262.782-.742 1.66-1.422 2.523a6.93 6.93 0 01-1.726 1.586 4.465 4.465 0 01-2.548.767 9.49 9.49 0 01-1.573-.116c.29.363.643.664 1.053.874 2.545 1.305 2.705-1.118 5.397-2.348 1.512-.69 1.518-2.04.819-3.286z" fill="#EFE812"/><path d="M10.402 5.47c.376.072.732.203 1.05.394.855.512 1.633 1.296 2.099 2.127.458-1.369.245-2.445-.758-2.64-1.102-.213-1.964-.282-2.792-.895-1.02-.755-1.914-.506-2.69.258.055.001.111.004.169.007 1.076.068 2.103.29 2.922.748z" fill="#EEE809"/><path d="M6.78 5.302C5.007 7.426 4.548 10.2 5.688 11.721c-.512-1.274-.476-2.863.245-4.132.961-1.69 2.888-2.426 4.47-2.12-.82-.458-1.847-.68-2.923-.748a7.105 7.105 0 00-.168-.008 8.2 8.2 0 00-.532.59z" fill="#DEC21C"/><path d="M11.453 5.864a3.227 3.227 0 00-1.05-.394c1.079.603 1.797 1.618 1.788 3.234a4.113 4.113 0 01-1.788 3.396 6.923 6.923 0 001.726-1.586c.68-.864 1.16-1.741 1.422-2.523-.466-.83-1.244-1.615-2.098-2.127z" fill="#E5CB22"/><path d="M10.225 11.332c-1.219.83-2.843.46-3.629-.827S6.2 7.56 7.38 6.672c1.32-.995 3.012-.602 3.629.827.601 1.393.435 3.003-.783 3.833zm.178-5.863c-1.582-.306-3.51.43-4.47 2.12-.721 1.269-.757 2.858-.245 4.131.152.377.35.726.594 1.031a9.49 9.49 0 001.573.116c.974 0 1.846-.285 2.548-.767a4.111 4.111 0 001.788-3.396c.009-1.616-.71-2.63-1.789-3.235z" fill="#CCA727"/></svg>