<!-- by TradingView --><svg width="18" height="18" viewBox="0 0 18 18" xmlns="http://www.w3.org/2000/svg"><path fill="url(#aee5wkpgr)" d="M0 0h18v18H0z"/><path d="M6 5.16C6 4.52 6.45 4 7 4s1 .52 1 1.16v7.68C8 13.48 7.55 14 7 14s-1-.52-1-1.16V5.16Z" fill="url(#bee5wkpgr)"/><path d="M6.5 6.04c-.49-.32-.63-1-.33-1.52a1 1 0 0 1 1.44-.35l5.79 3.9c.48.32.63 1 .32 1.52a1 1 0 0 1-1.43.34l-5.8-3.89Z" fill="url(#cee5wkpgr)"/><path d="M7.73 13.8c-.49.33-1.22.2-1.52-.33-.3-.52-.06-1.22.43-1.54L12.4 8.1a1 1 0 0 1 1.43.36c.3.51.16 1.2-.33 1.52L7.73 13.8Z" fill="url(#dee5wkpgr)"/><defs><linearGradient id="aee5wkpgr" x1="0" y1="9" x2="18" y2="9" gradientUnits="userSpaceOnUse"><stop stop-color="#06E595"/><stop offset="1" stop-color="#00C8D2"/></linearGradient><linearGradient id="bee5wkpgr" x1="7" y1="4" x2="7" y2="14" gradientUnits="userSpaceOnUse"><stop offset=".19" stop-color="#fff" stop-opacity="0"/><stop offset=".35" stop-color="#fff"/></linearGradient><linearGradient id="cee5wkpgr" x1="7.01" y1="5.17" x2="13.14" y2="9.14" gradientUnits="userSpaceOnUse"><stop offset=".5" stop-color="#fff"/><stop offset=".93" stop-color="#fff" stop-opacity="0"/></linearGradient><linearGradient id="dee5wkpgr" x1="12.93" y1="8.53" x2="7.95" y2="11.73" gradientUnits="userSpaceOnUse"><stop offset=".71" stop-color="#fff"/><stop offset="1" stop-color="#fff" stop-opacity="0"/></linearGradient></defs></svg>