<!-- by TradingView --><svg width="18" height="18" viewBox="0 0 18 18" xmlns="http://www.w3.org/2000/svg"><path fill="#EBF6F9" d="M0 0h18v18H0z"/><path d="m14 11.52-.14.18a6.1 6.1 0 0 0-1.3-1.81l.12-.14c.51-.58.64-1.22.39-1.93l-.18-.36a.81.81 0 0 1-.08-.32l.03-.42c.01-.28-.02-.54-.1-.77l-.01-.07a1.92 1.92 0 0 0-.72-1 5.42 5.42 0 0 0-1.73-.63.06.06 0 0 0-.03.03.65.65 0 0 1-.22.2H10v.01l.16.18.04.07.04.06c.04.05.02.1.01.15a2.4 2.4 0 0 1-.4-.06c-.08-.02-.09-.07-.07-.13.01-.07.08-.06.14-.06.02 0 .02 0 0-.01l-.01-.02a.91.91 0 0 0-.11-.15c-.04-.03-.05-.08-.02-.14l.17-.1c.01 0 0 0 0 0h-.63c-.03-.05-.04-.08-.03-.1a13.82 13.82 0 0 0 .28-.43h.01v-.02h-.04c-.26.07-.5.18-.73.33-.05.03-.1.1-.16.1-1.04.1-2.19.22-3.04.89A2.92 2.92 0 0 0 4.53 7.4c.01.43.1.81.25 1.16l.38.82c.06.11.16.32.13.41-.14.42-.5.74-.74 1.12-.15.24-.29.5-.41.76L4 11.48c.13-.26.27-.49.4-.67l.49-.67c.06-.08.12-.18.17-.3.05-.1-.01-.23-.06-.36-.12-.29-.3-.6-.37-.77-.37-.81-.4-1.73-.07-2.55.31-.77.86-1.33 1.64-1.68.5-.22 1.04-.34 1.6-.42l.75-.08c.02 0 .04 0 .07-.03a3.1 3.1 0 0 1 1.04-.45h.08l.02.03c.04.08.05.16 0 .24l-.07.16a.78.78 0 0 0-.08.13l.01.02h.39c.88.08 1.69.27 2.28.94.41.47.65 1 .73 1.59l-.01.54c0 .12.13.32.19.43a1.78 1.78 0 0 1-.45 2.2l.01.02A5.95 5.95 0 0 1 14 11.52Z" fill="#010101"/><path d="M9.58 3.75h-.01l-.02.02-.27.4c-.03.03-.01.07.05.12l.62-.02c.02 0 .02 0 0 .01l-.16.1c-.09.06-.05.16.13.29l.02.02v.01c-.07 0-.14 0-.15.06-.02.06 0 .1.07.13l.4.06a.33.33 0 0 0 .04-.06v-.06a.63.63 0 0 0-.09-.14 3.27 3.27 0 0 1-.19-.22c.1-.05.18-.12.23-.2l.03-.02h.03a5.42 5.42 0 0 1 1.7.63c.34.25.59.58.72 1l.01.07a69.23 69.23 0 0 0-.35-.39c-.16-.12-.34-.2-.55-.25a1.01 1.01 0 0 0-.77.13c-.22.13-.33.24-.52.41a.35.35 0 0 1-.15.1.25.25 0 0 1-.18-.03c-.28-.17-.55-.32-.8-.45-.86-.41-1.88-.6-2.7 0a2 2 0 0 0-.74.98c-.15.43-.2.91-.07 1.36.12.43.3.83.57 1.18l.55.73c.27.33.48.68.64 1.03.24.54.27 1.11 0 1.64-.12.2-.36.61-.51.94l-.16.31-.02.01a.03.03 0 0 1-.03 0l-.41-.16c.07-.27.12-.54.17-.82a1.9 1.9 0 0 0-.16-1.23c-.02-.02-.03-.03-.06-.02a.03.03 0 0 0-.03.01v.02c.17.4.16.84.09 1.25l-.18.72c-.9-.42-1.64-1-2.23-1.75.12-.27.26-.52.41-.76.25-.38.6-.7.74-1.12.03-.1-.07-.3-.13-.4l-.38-.83a2.82 2.82 0 0 1-.25-1.16c0-.89.36-1.78 1.09-2.35.85-.67 2-.78 3.04-.89.07 0 .11-.07.16-.1a2.77 2.77 0 0 1 .77-.33v.02h-.01Z" fill="#8AAAF8"/><path d="M12.74 5.95c.08.23.11.5.1.77 0 .18-.02.31-.03.42a.82.82 0 0 0 .08.32l.18.36c.25.7.12 1.35-.39 1.93l-.11.14c-.2.2-.36.36-.24.6l.11.18c.17.18.34.4.5.65.03.03.06.05.1.05.13.26.25.54.36.84A6.35 6.35 0 0 1 7 13.66v-.02l.15-.31c.15-.33.4-.74.5-.94.28-.53.25-1.1 0-1.64-.15-.35-.36-.7-.63-1.03l-.55-.73a3.54 3.54 0 0 1-.57-1.18c-.13-.45-.08-.93.07-1.36a2 2 0 0 1 .74-.98c.82-.6 1.84-.41 2.69 0 .26.13.53.28.8.45.06.03.12.04.2.02.03 0 .08-.03.13-.09.2-.17.3-.28.53-.41.23-.15.49-.19.77-.13.2.05.4.13.55.25a70.18 70.18 0 0 1 .35.39Z" fill="#FFFDF5"/><path d="M8.4 7.73a.54.54 0 0 1-.22-.02.58.58 0 0 1-.2-.1.63.63 0 0 1-.23-.4.62.62 0 0 1 .1-.46.54.54 0 0 1 .8-.1.63.63 0 0 1 .22.4.62.62 0 0 1-.1.45.54.54 0 0 1-.37.23ZM12.08 7.66c-.06 0-.11 0-.17-.03a.45.45 0 0 1-.15-.11.6.6 0 0 1-.11-.17.73.73 0 0 1-.05-.43.6.6 0 0 1 .08-.2c.03-.05.08-.1.12-.13a.34.34 0 0 1 .33-.03c.06.02.1.06.15.1a.73.73 0 0 1 .16.6.6.6 0 0 1-.07.2.44.44 0 0 1-.13.14.34.34 0 0 1-.16.06Z" fill="#010101"/><path d="M11.94 6.95c.02.15.14.26.25.24.12-.02.2-.16.17-.31s-.14-.26-.26-.24c-.12.01-.19.15-.16.3ZM8.2 7.03c.02.18.18.31.33.29.16-.02.26-.2.23-.38s-.18-.31-.34-.29c-.16.02-.26.2-.23.38ZM11.81 7.43c.07 0 .12-.05.12-.1a.11.11 0 0 0-.12-.12.11.11 0 0 0-.11.11c0 .06.05.11.11.11ZM8.06 7.53c.07 0 .12-.05.12-.12a.12.12 0 0 0-.12-.11.12.12 0 0 0-.12.11c0 .07.06.12.12.12Z" fill="#FFFDF5"/><path d="M11.08 7.8v.01c0 .05-.01.1-.04.14-.17.27-.4.43-.74.3-.18-.06-.39-.16-.48-.32v-.02c0-.04 0-.06.03-.08.1-.08.2-.15.34-.2.3-.13.65-.04.89.16Z" fill="#F0B458"/><path d="m13.86 11.7-.33.37-.15-.34a4.45 4.45 0 0 0-.63-.98c0-.01-.02-.02-.04 0h-.01c-.02.02-.02.04 0 .06.13.18.24.37.34.56a.12.12 0 0 1-.1-.05 4.88 4.88 0 0 0-.5-.65.83.83 0 0 1-.1-.17c-.13-.25.02-.42.23-.61a6.1 6.1 0 0 1 1.3 1.8Z" fill="#8AAAF8"/><path d="m13.53 12.07-.13.14a6.54 6.54 0 0 0-.7-1.46c.03-.02.04-.02.05 0a4.45 4.45 0 0 1 .78 1.32ZM6.54 13.5l-.17-.08c.1-.35.15-.6.18-.72a2.14 2.14 0 0 0-.09-1.27h.01l.01-.01h.01c.03 0 .04 0 .06.02.2.38.23.8.16 1.23-.05.28-.1.55-.17.82Z" fill="#010101"/></svg>