<!-- by TradingView --><svg width="18" height="18" viewBox="0 0 18 18" xmlns="http://www.w3.org/2000/svg"><path fill="#F0F3FA" d="M0 0h18v18H0z"/><path d="m13.96 6.35-.17-.22h.5l.1.22h-.43Z" fill="#DDC6B8"/><path d="M14.4 6.34h-.44l.11.15h.38l-.06-.15Z" fill="#503B20"/><path d="m14.18 6.63-.1-.14h.37l.07.14h-.34Z" fill="#FFF7D6"/><path d="m14.8 7.4-.62-.77h.34c.1.11.22.56.27.77Z" fill="#1B1306"/><path d="m11.24 4.04.21-.53c.48.13 1 .54 1.21.72v1.3l-1.02 1-.4-2.49Z" fill="#DDE18C"/><path d="M3.37 6.93c-.08.17-.22.8-.28 1.1l3.58.1.64.12v1.63l.86-.78-.1-1.4.82-1.63-.3-1.04.13-.97L8.55 3c-.24.01-.93.16-1.24.23V6.1l-.1.82H3.38Z" fill="url(#akq3fw5nw)"/><path d="M9.1 6.14c-.28-.49-.2-1.66-.12-2.19.45-.42 1.22-.27 1.55-.14.25.2.82.72 1.09 1.18.26.46.1.72 0 .78v.58c-.43.43-1.32 1.29-1.49 1.28-.22-.02-.68-.89-1.03-1.5Z" fill="#EEE7CB"/><path d="M9.48 4.45c-.11-.24.18-.57.35-.7-.2-.1-.73.2-.83.62-.1.42.38.65.55.72.14.06.22.24.25.32-.03-.1.16-.14.22-.03.06.11.03.57.03.61 0 .03.2-.04.3-.08 0-.15.03-.47.05-.53.03-.08.38-.13.57-.1.2.01.09.34-.05.42-.13.07-.09.08 0 .32.08.2-.2.4-.34.47l.54.22.1-.58.24-.96c0-.04-.17-.72-.24-.82a4.9 4.9 0 0 0-.57-.49l-.52-.06c.43.31.24.78.08.97-.2.02-.6-.03-.73-.32Z" fill="#DAB98C"/><path d="M9.3 5.87c-.06-.18.22-.5.37-.65-.2.2-.38.31-.45.34l-.33.27.33.54.67 1c.09.02.27.04.27-.04 0-.1.5-.37.65-.32.15.04.94-.68.87-.84-.08-.15-.1-.62-.06-.87.04-.25.16-.08.03-.2-.1-.1-.23.03-.28.1-.1.2-.27.65-.25.8a.71.71 0 0 1-.15.54c-.1.1-.29.04-.37 0 .03.06.04.2-.16.32-.25.16-.53-.09-.44-.2.08-.1.68-.14.47-.15-.17-.01-.18-.39-.16-.57l-.46.1c0-.02-.07 0-.26.13-.23.18-.2-.09-.28-.3Z" fill="#D89C78"/><path d="M9.19 4.7c-.18-.33.08-.67.23-.8-.26.11-.8.44-.83.8-.04.35.22.57.35.63l.58-.27c-.03.01-.15-.04-.33-.37Z" fill="#BC855C"/><path d="M9 15a6 6 0 0 0 6-6.08l-1.95-2.54-8.43 6.7A5.97 5.97 0 0 0 9 15Z" fill="url(#bkq3fw5nw)"/><path d="M9.26 6.27c-.2-.18-.56-.7-.62-.8.2.4.84 1.53 1.04 1.81.3.43.5.25.6.17-.04.04-.24.04-.37-.09-.17-.15-.4-.86-.65-1.09Z" fill="#572F23"/><path d="m8.87 9.72-.2-.4 4.45-3.48 1.78 2.01c.06.22.08.8.08 1.07l-1.97-2.46-1.1.85-3.04 2.41Z" fill="url(#ckq3fw5nw)"/><path d="m10.7 8.27-6.07 4.82-.17-.18-.16-.19 6.08-4.87.31.42Z" fill="url(#dkq3fw5nw)"/><path d="M6.74 14.55a4.07 4.07 0 0 1-.8-.41l8.25-6.27.33.44-7.78 6.24Z" fill="#E6D399"/><path d="m13.72 12.7-1.92-2.3c.16-.2.5-.59.52-.59.02 0 1.25 1.47 1.86 2.2l-.46.69Z" fill="#E6D399"/><ellipse cx="12.23" cy="10.25" rx=".55" ry=".52" fill="#EAE9CD"/><path d="M9.17 5.19c-.21.02-.4-.37-.47-.57l-.05.76.34.64c-.09-.2.1-.37.22-.44l.02-.2c.07-.07.15-.21-.06-.2Z" fill="#361822"/><path d="M9.7 6.43c.06-.01.1-.3.13-.44.07-.01.19 0 .13.11-.07.15.24.46.1.47-.11 0-.19.1-.21.14.03.1.13.29.3.3a2 2 0 0 0 .42 0l-.25.15c-.07.09-.13.35-.26.31-.12-.04-.5-.55-.6-.76l-.55-.8.13-.32c-.01.04-.01.17.1.42.15.31.5.43.56.42Z" fill="#9A634E"/><path d="M9.7 5.47c-.07-.1-.3.15-.41.29.1-.22.38-.63.47-.52.09.11.1.56.1.77l-.1.03c0-.15 0-.47-.06-.57Z" fill="#CCB98E"/><path d="M10.05 6.81c-.11 0-.12-.08-.1-.12-.02 0-.01-.01.17-.07.47-.14.5-.06.61-.05-.16.08-.57.24-.68.24Z" fill="#A2776E"/><path d="M10.3 6.85c-.13.05-.27-.01-.3-.02 0 .05.06.13.22.15.16.02.39-.2.48-.31l-.4.18Z" fill="#A2776E"/><path d="M9.8 6.84a.27.27 0 0 1 .18-.3c.22-.08.61-.18.87.07-.18-.13-.42-.03-.6.03a.75.75 0 0 1-.2.06c-.13 0-.22.1-.25.14Zm.13.08c.13.03.43.05.58-.12-.24.5-.49.28-.58.12Z" fill="#390800"/><path d="M7.01 6.94h-3.6l.14-.3h3.4c.13 0 .13-.07.12-.11v-3.2l.3-.12v3.1l.08.33-.21.3H7Z" fill="url(#ekq3fw5nw)"/><path d="M7.12 6.64H3.51l.1-.22h3.3V3.37l.21-.07v3.34Z" fill="#CFBB96"/><path d="M6.92 6.41H3.59l.07-.14h2.97V3.48l.29-.12v3.05Z" fill="#401D07"/><path d="m3.78 6.05-.11.23h2.96v-2.8l-.07.02v2.55H3.78Z" fill="#D8C19E"/><path d="M5.94 3.83A5.76 5.76 0 0 0 4.1 5.54h1.84v-1.7Z" fill="#DDB963"/><path d="M4.1 5.54c-.07.08-.24.38-.31.51h2.77V3.51c-.12.02-.47.22-.63.32v1.7H4.1Z" fill="#301617"/><path d="M7.15 8.28h-4.1l-.02.23h3.9v1.73l.22-.1V8.28Z" fill="#E7D0B1"/><path d="M3.03 8.51c-.02.17-.02.4-.02.5h3.46v1.51l.47-.29V8.51h-3.9Z" fill="#3B2323"/><path d="m7.25 9.82-3.2 2.54.15.23.17.21L6.5 11l6.65-5.11 1.74 1.98-.09-.46-1.75-2.25-5.8 4.66Z" fill="url(#fkq3fw5nw)"/><path d="m3.09 8.02-.04.27h4.1v1.73l.29-.11V8.36l-.34-.34H3.09Z" fill="#301900"/><path d="m3.58 9.44-.57-.42c-.06.5.2 1.86.57 2.54V9.44Z" fill="#4A1F0F"/><path d="M3.59 9.44 3 9.02h3.48l-.5.42H3.6Z" fill="#EAD697"/><path d="M5.99 10.89V9.43l.5-.42v1.49l-.5.39Z" fill="#59301E"/><path d="M6 9.43H3.58v2.13l.16.27h1.05L6 10.9V9.43Z" fill="#D09F52"/><path d="M4.05 12.36a12.1 12.1 0 0 1-.33-.53H4.8l-.74.53Z" fill="#2C1608"/><path d="M8.94 3.6V3h-.39l.14 1.04.25-.44Z" fill="#1C0D0A"/><path d="M7.21 7.63c-.07-.2 0-.41.15-.56a.63.63 0 0 1 .22-.16c.08-.03.15-.03.2-.01.2.09.3.3.31.39l.12-.03a.7.7 0 0 0-.38-.47.38.38 0 0 0-.29 0c-.1.05-.19.11-.27.2-.16.17-.26.42-.17.68.08.2.26.33.44.4.19.07.39.09.51.09v-.12c-.12 0-.3-.02-.46-.08-.17-.06-.32-.17-.38-.33Zm.8.27c-.01 0-.39 0-.53-.2s-.06-.66.22-.66.47.48.31.86Z" fill="#1B1107"/><path d="M7.75 8.7c-.02-.52-.14-.7-.2-.73 1.17.2.74.87.72.89l-.32.53c-.06-.02-.18-.17-.2-.69Z" fill="#39201B"/><path d="M8.64 6.67c.25-.2.13-.83.04-1.12.26.44.82 1.4 1.05 1.7.22.3.43.29.5.24l-2.2 1.87.06-.39c.17-.56-.37-1.18-.37-1.64 0-.45.61-.4.92-.66Z" fill="#141416"/><path d="M11.1 3.37A6.2 6.2 0 0 0 8.79 3l.1.63.9-.11c.49-.05 1.07.33 1.3.52v-.67Z" fill="#BC8F65"/><path d="M11.08 4.03v-.67c.1.02.3.11.38.15l-.11.35.14.36-.4-.2Z" fill="#1B0000"/><path d="M12.65 5.55V4.23l.26.2v.9l-.26.22Z" fill="#100000"/><path d="M12.9 5.3v-.86a9.3 9.3 0 0 1 1.38 1.7h-.48l-.9-.84Z" fill="#240C00"/><path d="M10.21 5.08c.01-.04.07-.14.2-.16.15-.02.25-.01.28 0-.02.06-.09.2-.2.22h-.03c-.12.03-.25.05-.25-.06Zm-1 .33c.08-.07.25-.2.33-.2.1-.02.05.36-.26.38-.01 0-.06 0-.08-.03-.03-.03 0-.11.01-.15Z" fill="#E4DAB6"/><path d="M8.75 5c.15.24.14.73.12.95-.46-.45-.47-1.13-.48-1.36v-.01c0-.21.48-1 .54-1.03l.04-.03c.15-.12.63-.49 1.19-.38.45.1.67.33.82.5.07.06.12.12.17.15.18.1.36.3.5.56.1.2.12.7.1.97 0-.05-.03-.13-.14-.2-.17-.09-.18.19-.18.35V5.65c0 .09 0 .14-.03.12-.04-.02-.05-.18-.05-.26.02-.5-.12-.7-.18-.79l-.02-.02-.03-.07c-.1-.22-.39-.84-.96-.84-.66 0-1.1.36-1.14.4-.05.06-.45.51-.27.81Zm3 .36a.1.1 0 0 0 0-.04v.04Zm-1.69-.3-.15-.2c.11.02.22-.03.33-.1a.95.95 0 0 1 .25-.1c.17-.02.3.06.35.1h-.09c-.2-.02-.3.07-.38.14a.77.77 0 0 1 .27-.03l.11.05h-.03a.35.35 0 0 1-.12.17.33.33 0 0 1-.06.04l.02-.02h-.04c-.07 0-.13-.04-.13-.1l.03-.06a.46.46 0 0 0-.15.07.53.53 0 0 0-.02.23l-.02-.07c-.03-.14-.12-.14-.17-.13Zm.5-.13.13-.01a.37.37 0 0 1-.05.1c0-.04-.03-.08-.08-.1Zm-1.38.18c-.2.1-.26.26-.26.33.1-.14.31-.22.4-.23a.44.44 0 0 0-.18.23c-.03.11.04.18.08.2V5.6c.08.03.22-.05.28-.1a.37.37 0 0 1-.29.04v-.07c.01-.06.09-.12.18-.16-.02.04-.04.11.02.15.08.03.23-.04.19-.14a.09.09 0 0 0-.06-.06.4.4 0 0 1 .11 0c.07 0 .1.03.12.05a3.75 3.75 0 0 1 .06.41c0 .21-.03.26-.04.26-.03.06-.05.2.08.23.09.02.12-.02.16-.06.03-.04.07-.08.14-.09h.09c.1-.02.15-.02.15-.13 0-.13-.28-.14-.33-.05-.05.08-.19.12-.21.03l-.01-.12c0-.12-.02-.31-.09-.54V5.1c-.01-.2-.33-.1-.59.02Z" fill="#390800"/><path d="M9.54 3.31c-.24.1-.37.3-.4.4.33-.3 1.21-.22 1.62-.15l-.38-.25a1.53 1.53 0 0 0-.84 0Z" fill="#5D3E2C"/><defs><linearGradient id="akq3fw5nw" x1="3.71" y1="7.25" x2="7.74" y2="7.48" gradientUnits="userSpaceOnUse"><stop stop-color="#E8D394"/><stop offset=".52" stop-color="#E4E1B3"/><stop offset="1" stop-color="#E2D07A"/></linearGradient><linearGradient id="bkq3fw5nw" x1="8.11" y1="10.01" x2="12.21" y2="14.87" gradientUnits="userSpaceOnUse"><stop stop-color="#B69961"/><stop offset=".17" stop-color="#90703F"/><stop offset=".36" stop-color="#CFB885"/><stop offset=".5" stop-color="#95713A"/><stop offset=".71" stop-color="#E0D792"/><stop offset="1" stop-color="#DBC07D"/></linearGradient><linearGradient id="ckq3fw5nw" x1="11.83" y1="5.84" x2="11.83" y2="9.68" gradientUnits="userSpaceOnUse"><stop stop-color="#664F41"/><stop offset=".33" stop-color="#745A37"/><stop offset=".74" stop-color="#948149"/></linearGradient><linearGradient id="dkq3fw5nw" x1="4.9" y1="12.75" x2="9.61" y2="9.43" gradientUnits="userSpaceOnUse"><stop stop-color="#12140D"/><stop offset=".83" stop-color="#4A3D25"/><stop offset="1" stop-color="#846E40"/></linearGradient><linearGradient id="ekq3fw5nw" x1="4.87" y1="7.04" x2="7.45" y2="3.87" gradientUnits="userSpaceOnUse"><stop stop-color="#23150A"/><stop offset="1" stop-color="#241500"/></linearGradient><linearGradient id="fkq3fw5nw" x1="9.48" y1="5.16" x2="4.44" y2="12.28" gradientUnits="userSpaceOnUse"><stop stop-color="#2F2218"/><stop offset="1" stop-color="#12140D"/></linearGradient></defs></svg>