<!-- by TradingView --><svg width="18" height="18" fill="none" xmlns="http://www.w3.org/2000/svg"><path fill="url(#paint0_linear_1530)" d="M0 0h18v18H0z"/><path fill-rule="evenodd" clip-rule="evenodd" d="M8.418 14.24L3.517 9.39c-.412-.447-.8-1.58-.232-2.13l.724-.693C4.812 5.8 5.97 4.69 6.612 4.051c.6-.596 1.339-.803 2.051-.14a60.6 60.6 0 011.721 1.675l-1.367 3.99-1.3 1.253 1.326 1.34-.625 2.072zM5.053 8.168l2.701-2.589 1.287 1.3-2.67 2.616-1.318-1.327z" fill="#3BEBAA"/><path fill-rule="evenodd" clip-rule="evenodd" d="M7.67 8.224l2.665 2.662-1.952 1.909c-.235.242-.565.87 0 1.446.566.576 1.248.059 1.519-.272L14.52 9.37c.3-.358.842-1.414.122-2.147a91.752 91.752 0 00-2.078-2.03c-.34-.28-1.263-.595-2.234.394-.971.989-2.175 2.176-2.66 2.637zm2.71 0L11.71 9.57l1.32-1.274-1.372-1.337-1.28 1.266z" fill="#02BCE4"/><defs><linearGradient id="paint0_linear_1530" x1="3.349" y1="3.122" x2="21.904" y2="24.434" gradientUnits="userSpaceOnUse"><stop stop-color="#1A1E21"/><stop offset="1" stop-color="#06060A"/></linearGradient></defs></svg>