<!-- by TradingView --><svg width="18" height="18" xmlns="http://www.w3.org/2000/svg"><path fill="url(#paint0_linear)" d="M0 0h18v18H0z"/><path d="M8.915 10.997c.01-.02.183-.008.194 0l.376 2.579-.472.424-.508-.424c.072-.773.4-2.56.41-2.58z" fill="#E61E28"/><path d="M8.499 9.5l.279-.325.23.419.25-.419.261.324-.512 1.253L8.5 9.5z" fill="url(#paint1_linear)"/><path d="M8.765 9.183l.246-.231.25.231-.25.422-.246-.422z" fill="url(#paint2_linear)"/><path d="M4.316 9.362l-.224-.6 4.535 1.754.288.464-.394 2.618-.345-.294.57-2.324-4.43-1.618z" fill="url(#paint3_linear)"/><path d="M13.684 9.362l.224-.6-4.534 1.754-.29.464.395 2.618.345-.294-.57-2.324 4.43-1.618z" fill="url(#paint4_linear)"/><path d="M7.775 9.07L3 6l1.106 2.77 4.541 1.795-.872-1.495z" fill="url(#paint5_linear)"/><path d="M10.225 9.07L15 6l-1.14 2.87-4.525 1.712.89-1.512z" fill="url(#paint6_linear)"/><defs><linearGradient id="paint0_linear" x1="3.349" y1="3.122" x2="21.904" y2="24.434" gradientUnits="userSpaceOnUse"><stop stop-color="#1A1E21"/><stop offset="1" stop-color="#06060A"/></linearGradient><linearGradient id="paint1_linear" x1="9.009" y1="9.175" x2="9.009" y2="10.752" gradientUnits="userSpaceOnUse"><stop stop-color="#E9231E"/><stop offset="1" stop-color="#E42021"/></linearGradient><linearGradient id="paint2_linear" x1="9.013" y1="8.952" x2="9.013" y2="9.605" gradientUnits="userSpaceOnUse"><stop stop-color="#E53A2D"/><stop offset="1" stop-color="#E82620"/></linearGradient><linearGradient id="paint3_linear" x1="4.092" y1="8.762" x2="8.526" y2="12.232" gradientUnits="userSpaceOnUse"><stop stop-color="#F0341E"/><stop offset="1" stop-color="#E31D26"/></linearGradient><linearGradient id="paint4_linear" x1="13.908" y1="8.762" x2="9.474" y2="12.232" gradientUnits="userSpaceOnUse"><stop stop-color="#F0341E"/><stop offset="1" stop-color="#E31D26"/></linearGradient><linearGradient id="paint5_linear" x1="3.087" y1="6" x2="7.774" y2="9.904" gradientUnits="userSpaceOnUse"><stop stop-color="#F7691F"/><stop offset="1" stop-color="#E9342A"/></linearGradient><linearGradient id="paint6_linear" x1="14.912" y1="6" x2="10.226" y2="9.904" gradientUnits="userSpaceOnUse"><stop stop-color="#F7691F"/><stop offset="1" stop-color="#E9342A"/></linearGradient></defs></svg>