<!-- by TradingView --><svg width="18" height="18" viewBox="0 0 18 18" xmlns="http://www.w3.org/2000/svg"><path fill="url(#a2hqechcy)" d="M0 0h18v18H0z"/><circle cx="9" cy="9" r="5" fill="#FDFEE9"/><circle cx="9" cy="9" fill="#44D995" r="4"/><path d="M9.22 5.56a2.47 2.47 0 0 0-2.4 2.13v3.68c0 .23.36 1.08 1.24 1.08.68 0 1.1-.4 1.25-.91l.08-1.02c1.9-.3 2.37-1.85 2.32-2.58a2.44 2.44 0 0 0-2.49-2.38Z" fill="#383838"/><path d="M9.28 6.32c-1.36.03-1.83 1.04-1.84 1.55v3.48c0 .26.28.47.62.46.34 0 .63-.2.63-.46V7.97c0-.38.24-.55.42-.6.24-.04.78.06.8.6.02.56-.5.67-.8.67l-.19 1.02c.44.16 2.13-.09 2.06-1.69-.06-1.33-1.16-1.65-1.7-1.65Z" fill="#FDFEE9"/><defs><linearGradient id="a2hqechcy" x1="3.35" y1="3.12" x2="21.9" y2="24.43" gradientUnits="userSpaceOnUse"><stop stop-color="#1A1E21"/><stop offset="1" stop-color="#06060A"/></linearGradient></defs></svg>