<!-- by TradingView --><svg width="18" height="18" viewBox="0 0 18 18" xmlns="http://www.w3.org/2000/svg"><path fill="#FF3D00" d="M0 0h18v18H0z"/><path d="M6.26 9.55a5872.18 5872.18 0 0 0 .01-3.3H9.51a.02.02 0 0 0 0-.01l-.66-.7-.45-.47A.22.22 0 0 0 8.24 5h-.97a194.87 194.87 0 0 1-2.25.02C5 5.03 5 5.05 5 5.09v3.18c0 .07.02.12.06.16l.46.44a26.48 26.48 0 0 1 .74.69v-.01ZM9.7 9.5l1.25 1.17h.02a.02.02 0 0 0 .02 0V7.72a.02.02 0 0 0 0-.01L9.72 6.48H9.7l-.01.02v3Zm1.9 2.07v-3.4c0-.04.01-.04.04-.01l.78.78.49.5a.3.3 0 0 1 .08.2v2.88c0 .04 0 .09.04.12l.14.18.2.24.04.06.08.34v.02h-.02v.01l-.34-.05a.19.19 0 0 1-.1-.05l-.4-.35a.18.18 0 0 0-.12-.05H9.57a.14.14 0 0 1-.1-.04l-1.3-1.3c-.03-.04-.03-.05.01-.05h3.42l.01-.03ZM6.57 9.74l1.16 1.25.01.01h2.99v-.03L9.57 9.7l-.01-.01H6.57v.03Z" fill="#fff"/></svg>