<!-- by TradingView --><svg width="18" height="18" viewBox="0 0 18 18" xmlns="http://www.w3.org/2000/svg"><path fill="#131B24" d="M0 0h18v18H0z"/><path fill-rule="evenodd" d="M9 15A6 6 0 1 0 9 3a6 6 0 0 0 0 12Zm0-.5a5.5 5.5 0 1 0 0-11 5.5 5.5 0 0 0 0 11Z" fill="url(#acc2on42r)"/><path d="M6 10.04c0-1.33.8-2.2 1.21-2.46.04-.06.12-.22.1-.32-.03-.09.04-.2.08-.25l.24-.23a.29.29 0 0 1-.11-.35c-.12-.18.03-.34.11-.4V5.8c-.15-.05-.44-.2-.44-.37 0-.17.3-.21.44-.21-.03-.04-.01-.14.28-.2.29-.08.56.17.66.3.1-.1.33-.3.4-.3a.2.2 0 0 1 .15.05l.06-.03c.13-.04.28.02.34.21s.15.24.4.4c.2.11.2.32.17.41.02-.05.09-.14.24-.07.15.08.18.2.18.27a.2.2 0 0 1 .15.2c0 .14-.13.24-.2.27l-.05.1.25.26v.2l.13.3c.94.59 1.2 1.9 1.21 2.45C12 11.8 10.47 13 8.94 13A3 3 0 0 1 6 10.04Z" fill="#fff"/><circle cx="8.97" cy="9.97" fill="url(#bcc2on42r)" r="2.84"/><path d="M8.74 5.44c-.1.03-.13.1-.14.13l.24.05-.2.07c.04.02.15.04.2.02l.25-.1c.16.23-.07.43-.2.5-.09-.04-.3-.13-.42-.14-.12 0-.19.24-.2.36-.03-.02-.1-.04-.18.02-.08.06.04.35.1.49l1.23-.02.4-.03c.06-.29.15-.88.06-.87-.1.02-.32.12-.42.17.14-.49-.12-.7-.27-.74l.17-.15c.07-.08-.2.02-.34.08.03-.05.06-.14 0-.1-.07.03-.16.21-.28.26Z" fill="#249F47"/><path d="M8.37 5.46c-.16-.14-.23-.07-.36-.08a.5.5 0 0 0-.27.1c.11-.04.39.25.55.28.12.02.33-.09.42-.15a.73.73 0 0 1-.34-.15Z" fill="#E6AD4E"/><path d="M8.01 6.23c.09.14-.16.06-.3 0-.1 0-.01.12.05.18-.06.06-.1.17.19.17.36 0 .13-.46.18-.46.05-.01.09-.06.1-.08a2 2 0 0 1 .11.01c.08.02 1.01-.07 1.27-.07.25 0 .31.03.32-.03 0-.06-.14-.19-.29-.26-.15-.07-.2.09-.62.11a4.5 4.5 0 0 1-1.06-.06c-.18-.05-.05.3.05.49ZM10.15 6.38c-.03-.06-.17-.11-.23-.13l-.04.22.04.02c.06 0 0 .27.12.3.13.02.25-.21.3-.25.05-.04.16-.03 0-.14-.16-.11 0-.15-.07-.23-.06-.07-.09.28-.12.2Z" fill="#D02028"/><path d="m8.23 7.31-.33-.53-.16-.32c.25-.01.34.13.36.2.02-.26.16-.32.22-.32.23 0 .33.15.35.22.02-.1.1-.3.31-.3.22 0 .31.2.33.3.04-.09.16-.26.36-.22.2.04.24.2.24.26.16-.18.26-.07.28 0l-.44.71c-.03.05-.24.13-.77.13s-.72-.08-.75-.13Z" fill="#CC8F3F"/><path d="M9 7.2c-.43 0-.66.06-.73.1.11.03.42.1.73.1.3 0 .58-.07.69-.1a1.92 1.92 0 0 0-.7-.1Z" fill="#522B16"/><path d="M7.96 9.58V7.43h2.06v2.1c0 .19-.2.24-.29.24H9.2c-.1 0-.18.1-.2.16a.33.33 0 0 0-.23-.16h-.51c-.22 0-.29-.13-.3-.19Z" fill="#fff"/><path d="M8.08 8.58V7.54h.89v1.04h-.9Z" fill="#D02028"/><path fill="#fff" d="M8.27 7.76h.48v.59h-.48z"/><path d="M8.11 7.58h.14v.16H8.1v-.16Zm.32 0h.14v.16h-.14v-.16Zm-.18.37H8.1v.16h.14v-.16Zm-.14.4h.14v.16H8.1v-.16Zm.81-.4H8.8v.16h.13v-.16Zm-.13.4h.13v.16H8.8v-.16Zm.13-.77H8.8v.16h.13v-.16Z" fill="#DE8D46"/><path d="M8.47 7.85h.1v.1h-.1v-.1Zm0 .3h.1v.11h-.1v-.1Zm.1-.16h-.1v.13h.1V8Zm.02 0h.07v.13H8.6V8Zm-.15 0h-.07v.13h.07V8Z" fill="#2B4571"/><path d="M9.04 9.67V8.63h.89v.95a.1.1 0 0 1-.1.1h-.8Z" fill="#D02028"/><path fill="#fff" d="M9.23 8.86h.48v.59h-.48z"/><path d="M9.43 8.95h.1v.09h-.1v-.1Zm0 .3h.1v.1h-.1v-.1Zm.1-.17h-.1v.14h.1v-.14Zm.02 0h.07v.14h-.07v-.14Zm-.15 0h-.08v.14h.08v-.14Z" fill="#2B4571"/><path fill="url(#ccc2on42r)" d="M9.02 7.54h.9v1.04h-.9z"/><path d="m9.14 7.72-.03.67h.19l-.05-.67h-.11Z" fill="#1D3967"/><path d="m9.4 8.27-.03.14v.05l.2-.02-.03-.06c0-.04-.02-.12 0-.14.02-.04 0-.07 0-.09 0-.02 0-.05.03-.1.01-.05 0-.13-.02-.17L9.5 7.7h-.05l-.05.17-.02.08-.03.05v.1l.03.04-.02.02v.07l.02.05Z" fill="url(#dcc2on42r)"/><path fill="url(#ecc2on42r)" d="M8.07 8.62h.9v1.04h-.9z"/><path d="m8.85 8.8.02.67h-.19l.05-.67h.12Z" fill="#1D3967"/><path d="m8.44 9.35-.03.14v.05l.2-.02-.03-.06c0-.04-.01-.12 0-.14.02-.03.01-.07.01-.09l.02-.1c.02-.05 0-.13-.02-.17l-.03-.19H8.5l-.04.18-.03.07-.03.05v.1l.03.04-.02.02v.07l.03.05Z" fill="#E58287"/><path d="m7.47 7.2.3-.29.24.23-.31.3-.23-.24ZM10.49 7.2l-.3-.29-.24.23.3.3.24-.24ZM7.47 8.02h.34v.44h-.34zM7.47 9.13h.34v.44h-.34zM10.15 8.02h.34v.44h-.34zM10.15 9.13h.34v.44h-.34zM10.02 9.9l.09.32-.43.11-.09-.32zM7.94 9.9l-.09.32.43.11.09-.32z" fill="#B27130"/><path d="M7.63 7.36c-.08.04-.23.17-.23.33 0 .15.15.25.23.28.07-.02.21-.11.21-.28 0-.18-.1-.3-.16-.33.02.11.04.36-.05.42s-.04-.26 0-.42Zm0 1.1c-.08.04-.23.17-.23.33 0 .15.15.25.23.28.07-.02.21-.1.21-.28 0-.18-.1-.3-.16-.33.02.11.04.36-.05.42s-.04-.26 0-.42ZM7.5 10c-.06-.15.03-.32.08-.4.03.17.1.48.16.4.06-.1-.05-.31-.11-.41.06.01.21.08.28.24.06.16-.04.3-.1.34-.08 0-.25-.03-.31-.17Zm2.85-2.64c.08.04.23.17.23.33 0 .15-.15.25-.23.28-.07-.02-.21-.11-.21-.28 0-.18.1-.3.16-.33-.02.11-.04.36.05.42s.04-.26 0-.42Zm0 1.1c.08.04.23.17.23.33 0 .15-.15.25-.23.28-.07-.02-.21-.1-.21-.28 0-.18.1-.3.16-.33-.02.11-.04.36.05.42s.04-.26 0-.42Zm.13 1.54c.06-.15-.03-.32-.08-.4-.03.17-.1.48-.16.4-.06-.1.05-.31.11-.41a.41.41 0 0 0-.28.24c-.06.16.04.3.1.34.07 0 .25-.03.31-.17Zm-1.7-.1-.4.21c.25.07.43.02.49-.02l-.1-.2Zm.8.21-.4-.22-.09.2c.06.04.23.09.48.02Zm-.74.05-.44.02c.19.17.37.2.44.2v-.22Zm.73.03-.45-.02v.22c.07 0 .26-.03.45-.2Z" fill="#39B54A"/><path d="m8.99 10.11.13.45.45-.11-.33.33.33.33-.45-.1-.13.44-.13-.45-.45.11.33-.33-.33-.33.45.11.13-.45Z" fill="#B27130"/><path fill-rule="evenodd" d="M9 11.15a.31.31 0 1 0 0-.62.31.31 0 0 0 0 .62Zm0 .1a.4.4 0 1 0 0-.81.4.4 0 0 0 0 .8Z" fill="#39B54A"/><path fill-rule="evenodd" d="m7.53 11.8-.52-.9.52-.3.08.17-.31.2.1.18.32-.17.1.17-.3.18.2.36-.19.1Zm2.4-.14.4-.97.33.11a.34.34 0 1 1-.22.64l-.15-.05-.15.34-.2-.07Zm.42-.43.12-.3c.1.02.26.1.18.26-.06.12-.22.07-.3.04Zm-1.18.43.05-.16a.83.83 0 0 0-.22-.04c-.1 0-.47.05-.47.43s.45.47.67.38l-.03-.15a.79.79 0 0 1-.17.03c-.06 0-.27-.05-.27-.26 0-.2.24-.37.44-.23Z" fill="#fff"/><defs><linearGradient id="acc2on42r" x1="4.77" y1="5.03" x2="12.76" y2="13.66" gradientUnits="userSpaceOnUse"><stop stop-color="#4C4F52"/><stop offset=".45" stop-color="#FEFEFE"/><stop offset="1" stop-color="#525457"/></linearGradient><linearGradient id="bcc2on42r" x1="6.3" y1="10.1" x2="11.81" y2="8.77" gradientUnits="userSpaceOnUse"><stop stop-color="#1D3967"/><stop offset=".85" stop-color="#358FCA"/></linearGradient><linearGradient id="ccc2on42r" x1="9.47" y1="7.54" x2="9.47" y2="8.58" gradientUnits="userSpaceOnUse"><stop offset=".35" stop-color="#6DB4E0"/><stop offset=".81" stop-color="#1D3967"/></linearGradient><linearGradient id="dcc2on42r" x1="9.4" y1="8.47" x2="9.42" y2="7.78" gradientUnits="userSpaceOnUse"><stop offset=".31" stop-color="#D02028"/><stop offset=".88" stop-color="#E58287"/></linearGradient><linearGradient id="ecc2on42r" x1="8.52" y1="8.62" x2="8.52" y2="9.66" gradientUnits="userSpaceOnUse"><stop offset=".05" stop-color="#fff"/><stop offset=".2" stop-color="#6DB4E0"/><stop offset=".35" stop-color="#6DB4E0"/><stop offset=".77" stop-color="#F8FBFE"/><stop offset=".81" stop-color="#1D3967"/></linearGradient></defs></svg>