<!-- by TradingView --><svg width="18" height="18" xmlns="http://www.w3.org/2000/svg"><path fill="#45DAE2" d="M0 0h18v18H0z"/><path opacity=".9" d="M8.972 3.868l1.713 1.713-1.713 1.717-1.717-1.713 1.717-1.717z" fill="#fff"/><path opacity=".85" d="M6.39 4.584l2.353.578-.578 2.358-2.353-.578.577-2.362v.004z" fill="#fff"/><path opacity=".3" d="M11.532 4.564l-1.412.38.637.641-1.152 1.151.218.803 2.342-.633-.633-2.342z" fill="#fff"/><path opacity=".35" d="M13.391 6.424l-.577 2.354-2.358-.574.577-2.358 2.358.578z" fill="#fff"/><path opacity=".4" d="M14.143 9.011l-1.678 1.757-1.752-1.674 1.677-1.756 1.753 1.677v-.004z" fill="#fff"/><path opacity=".45" d="M13.43 11.69l-2.353.585-.585-2.354 2.353-.586.586 2.354z" fill="#fff"/><path opacity=".5" d="M11.564 13.52l-2.354-.577.573-2.35 2.358.578-.577 2.354v-.004z" fill="#fff"/><path opacity=".55" d="M8.98 14.237l-1.713-1.713 1.713-1.717 1.717 1.717-1.717 1.713z" fill="#fff"/><path opacity=".6" d="M6.425 13.58l-.633-2.342 2.338-.633.633 2.338-2.338.633v.004z" fill="#fff"/><path opacity=".65" d="M4.53 11.622l.573-2.354 2.358.578-.577 2.354-2.358-.578h.004z" fill="#fff"/><path opacity=".7" d="M3.857 9.114L5.57 7.397l1.717 1.717-1.713 1.713-1.717-1.713z" fill="#fff"/><path opacity=".75" d="M4.49 6.428l2.346-.582.586 2.354-2.354.586-.586-2.354.008-.004z" fill="#fff"/></svg>