<!-- by TradingView --><svg width="18" height="18" viewBox="0 0 18 18" xmlns="http://www.w3.org/2000/svg"><path fill="#F0F3FA" d="M0 0h18v18H0z"/><path d="m6.47 3.34-.93.37c-.02.02.24.37.58.76l1.5 1.76c.48.57.9 1.03.93 1.03.08 0 2-1.16 2-1.21 0-.1-1.16-1.5-1.73-2.1C8.12 3.24 7.8 3 7.54 3c-.1 0-.57.16-1.07.34Zm4.81.91-.16.53c-.08.26-.23.66-.33.89-.1.22-.16.42-.13.44l1.07.68 1 .63.04.6.08 1.25.03.64-.86.69c-.54.43-.9.68-.96.66-.06-.02-.56-.24-1.11-.5l-1.13-.48c-.11-.03-.26.25-1.18 2.11a32 32 0 0 0-1.06 2.26c0 .16.24.25.88.32.86.1 1.2-.01 1.61-.5.21-.26 1.54-2.26 1.92-2.9.17-.28.13-.31.58.57.42.85.52.99.72.99.18 0 .4-.22.86-.83.26-.36.3-.43.3-.73 0-.48-.11-.98-.29-1.34-.08-.17-.24-.31-.23-.32l.48-.07c.6-.07.62-.12.57-.95-.07-1.3-.1-1.34-.78-1.41a1.4 1.4 0 0 1-.41-.08c-.02-.03.01-.2.06-.4.19-.67 0-1.46-.48-2.04-.17-.22-.9-.76-1-.76a.1.1 0 0 0-.09.05ZM5.45 7.5c-2.12.15-2.24.16-2.35.3-.11.12-.12.2-.08.95.06 1.14.04 1.07.23 1.2.1.06.46.05 2.13.05 2.33 0 3.21 0 3.3-.05a30.4 30.4 0 0 0-.18-2.48c-.04-.18-.06-.18-3.05.03Z"/></svg>