<!-- by TradingView --><svg width="18" height="18" fill="none" xmlns="http://www.w3.org/2000/svg"><path fill="#62CBC1" d="M0 0h18v18H0z"/><path fill-rule="evenodd" clip-rule="evenodd" d="M8.967 13h4.969c.065 0 .084-.105.041-.154l-1.403-1.723a4.533 4.533 0 00-.247-5.563 4.445 4.445 0 00-2.524-1.478 4.415 4.415 0 00-2.888.417 4.48 4.48 0 00-2.013 2.133 4.542 4.542 0 00-.275 2.934 4.504 4.504 0 001.58 2.476c.788.623 1.76.96 2.76.958zM6.5 8.5C6.486 7.016 7.531 6 9 6c1.125 0 1.922.424 2.318 1.408.18.449.037 1.235-.078 1.592H11c-3.168 0-3.171.009-3.171.009L10 11c-.254.116-1.087.073-1.51 0-1.339-.416-1.991-1.193-1.99-2.5z" fill="#FCFCFC"/></svg>