<!-- by TradingView --><svg width="18" height="18" xmlns="http://www.w3.org/2000/svg"><path fill="#2E9AD0" d="M0 0h18v18H0z"/><path fill-rule="evenodd" d="M7.583 4.603h2.746l2.217 1.623.842 2.614-.813 2.48.995.916-.19.207-.978-.9-2.095 1.511H7.56L5.343 11.43l-.842-2.614.856-2.61 2.226-1.603zm4.885 6.138L12.2 8.817l.277-1.886.615 1.908-.624 1.902zm-.334-4.468L10.559 5.12l.527 1.55 1.048-.398zm-1.123.897l-.747 1.646.747 1.623.887-1.623-.887-1.646zm.966 2.087l-.78 1.427 1.042.45-.262-1.877zm.152 2.136l-1.045-.452-.547 1.6 1.592-1.148zm-1.911 1.212l.575-1.685-1.606.207 1.03 1.478zM9.19 10.842l1.6-.205-.691-1.504-.91 1.71zm.91-2.348l.693-1.529-1.605-.237.912 1.766zm-.151.322L8.93 6.842l-1.14 1.973 1.14 1.915L9.95 8.816zm-1.262 2.313l-1.05 1.494-.705-1.703 1.755.209zm-1.766-.494l.72-1.52 1.03 1.728-1.75-.208zm.55-1.819l-.767 1.62-.851-1.62.85-1.644.769 1.644zm-.833-2.15l.656-1.508-1.54 1.108.884.4zm-1.243.326l-.599 1.825.589 1.828.168-1.829-.158-1.824zm.396 2.311l.727 1.385-.893.423.166-1.808zm.001-.982l-.156-1.8.881.4-.725 1.4zm-.056 3.049l1.547 1.133-.646-1.56-.901.427zm2.14 1.403h2.114l-1.053-1.511-1.06 1.51zM7.66 5.026L6.94 6.68l1.746-.24L7.66 5.027zm.245-.141L8.94 6.311l1.062-1.426H7.904zm2.332.158l-1.044 1.4 1.6.237-.556-1.637zM8.673 6.727l-1.753.24.721 1.545 1.032-1.785zm3.307 1.65l-.78-1.449 1.052-.399-.272 1.847z" fill="#fff"/><path d="M8.225 4.888a.563.563 0 11-1.126 0 .563.563 0 011.126 0zm2.528 0a.563.563 0 11-1.126 0 .563.563 0 011.126 0zm-5.349 1.97a.563.563 0 100-1.126.563.563 0 000 1.126zm6.475-.563a.563.563 0 101.126 0 .563.563 0 00-1.126 0zM6.816 7.421a.563.563 0 100-1.126.563.563 0 000 1.126zm3.65-.563a.563.563 0 101.127 0 .563.563 0 00-1.126 0zm-1.543.282a.563.563 0 100-1.126.563.563 0 000 1.126zM7.662 12.207a.563.563 0 110 1.126.563.563 0 010-1.126zm2.528 0a.563.563 0 110 1.126.563.563 0 010-1.126zm-4.223-.845a.563.563 0 10-1.126 0 .563.563 0 001.126 0zm6.475-.563a.563.563 0 100 1.126.563.563 0 000-1.126zm.563 1.708a.563.563 0 111.126 0 .563.563 0 01-1.126 0zm-6.189-2.27a.563.563 0 110 1.125.563.563 0 010-1.126zm3.65.562a.563.563 0 111.127 0 .563.563 0 01-1.126 0zm-.417-2.533a.563.563 0 100 1.126.563.563 0 000-1.126zm-1.818.563a.563.563 0 10-1.126 0 .563.563 0 001.126 0zm3.766-.563a.563.563 0 100 1.126.563.563 0 000-1.126zm-5.598.563a.563.563 0 10-1.126 0 .563.563 0 001.126 0zm6.867-.563a.563.563 0 100 1.126.563.563 0 000-1.126zm-8.137.563a.563.563 0 10-1.126 0 .563.563 0 001.126 0zm3.794 1.689a.563.563 0 110 1.126.563.563 0 010-1.126z" fill="#fff"/></svg>