<!-- by TradingView --><svg xmlns="http://www.w3.org/2000/svg" width="18" height="18" viewBox="0 0 18 18"><path fill="url(#aisscas1x)" d="M0 0h18v18H0z"/><path d="M9 3h1v1.43h2v2.86h-.28c-.23-1.18-1.42-2.6-2.74-2.6-1 0-2.08.45-2.08 1.29 0 1.02 1.15 1.56 1.95 1.9v2.16c-.26-.08-.5-.16-.7-.25C6.88 9.22 5.48 8.5 5.5 7 5.54 5.39 7.17 4.43 9 4.43V3z" fill="#040708"/><path d="M9 13.57h.45H6v-3.14h.25c.32 1.4 1.4 2.86 3.15 2.86 1.27 0 1.83-.72 1.77-1.75-.04-.63-.7-.91-1.4-1.2v-2.2l.02.01.14.07.15.07c1.18.5 2.42 1.12 2.42 2.58 0 1.84-1.56 2.7-2.9 2.7l.4-.09V15H9v-1.43z" fill="#040708"/><defs><linearGradient id="aisscas1x" x1="3.35" y1="3.12" x2="14.79" y2="16.88" gradientUnits="userSpaceOnUse"><stop stop-color="#E7F88F"/><stop offset="1" stop-color="#50F0F8"/></linearGradient></defs></svg>