<!-- by TradingView --><svg xmlns="http://www.w3.org/2000/svg" width="18" height="18"><path fill="#5431A9" d="M0 0h18v18H0z"/><path d="M8.23 9.35h.19c.45 0 .87-.08 1.26-.25.4-.17.75-.38 1.04-.64.3-.26.53-.55.7-.87.17-.32.26-.63.26-.94 0-.21-.05-.42-.14-.61-.08-.2-.23-.36-.42-.5a2.2 2.2 0 00-.73-.35 5.5 5.5 0 00-2.27-.01c-.33.07-.62.17-.87.3a2.63 2.63 0 00-1.04.9 9.4 9.4 0 00-.32.48c-.1.16-.2.3-.3.42-.1.12-.22.22-.35.3a.9.9 0 01-.47.11c-.26 0-.45-.05-.58-.17A.63.63 0 014 7.04c0-.2.06-.4.18-.63.12-.22.29-.45.5-.67a5.92 5.92 0 011.9-1.2 7.4 7.4 0 014.33-.36c.48.11.9.29 1.27.52.37.23.66.52.87.87a2.27 2.27 0 01.13 2.14c-.13.28-.3.55-.52.8a4.6 4.6 0 01-.77.69 6.62 6.62 0 01-1.96.96c-.35.12-.69.2-1.01.25a4.96 4.96 0 00.6 1.46c.15.24.32.44.5.6a.96.96 0 00.7.28h.11c.37 0 .7-.05 1-.16.29-.1.53-.23.72-.36.23-.15.43-.32.6-.52.16-.16.32-.24.48-.24.1 0 .2.04.26.1.07.06.11.15.11.26 0 .1-.04.22-.11.36-.08.14-.2.28-.38.43-.53.43-1.04.75-1.55.95-.5.2-.97.3-1.42.3-.37 0-.7-.1-1.02-.28a3.2 3.2 0 01-.85-.74 6.01 6.01 0 01-.7-1.1c-.2-.43-.4-.87-.55-1.34-.1.18-.2.4-.29.65a31.37 31.37 0 01-.66 1.56 4.6 4.6 0 01-.41.7c-.15.2-.3.36-.48.5a.9.9 0 01-.55.18 1 1 0 01-.4-.07.63.63 0 01-.23-.17.65.65 0 01-.15-.45c0-.1.01-.2.04-.32.03-.1.07-.2.13-.3l2.26-3.65.58-.88c.2-.29.4-.54.58-.76.19-.22.36-.4.52-.53.17-.14.32-.2.46-.2.03 0 .08 0 .13.02.05 0 .1.03.13.06.05.03.08.07.11.13.03.05.05.12.05.2 0 .1-.03.21-.09.36a18.39 18.39 0 01-.93 1.9z" fill="#fff"/></svg>