<!-- by TradingView --><svg width="18" height="18" viewBox="0 0 18 18" xmlns="http://www.w3.org/2000/svg"><path fill="#F5E8D7" d="M0 0h18v18H0z"/><path d="M8.85 8.35h-.02a8333.3 8333.3 0 0 0-4.33-.02 4.43 4.43 0 0 1 4.35-4.31 7962.73 7962.73 0 0 0 0 4.33Z" fill="#6696AD"/><path d="M13.15 6.7a4.52 4.52 0 0 1-.9 4.82c-.02.02-.03.02-.05 0-.88-.84-1.93-1.97-3.16-3.13a.14.14 0 0 1-.03-.05 1114.89 1114.89 0 0 0 0-4.31C9 4 9 4 9.02 4a4.64 4.64 0 0 1 4.12 2.7Z" fill="#4281A4"/><path d="M4.67 8.5h4.29l4.39 4.48v.01l-.01.01h-4.3L4.66 8.52V8.5Z" fill="#8AAAB7"/><path d="m4.67 12.97 2.02-2.06h.03l2.02 2.06v.02l-.01.01H4.68l-.02-.01v-.02Z" fill="#ADBFC3"/></svg>