<!-- by TradingView --><svg width="18" height="18" viewBox="0 0 18 18" xmlns="http://www.w3.org/2000/svg"><path fill="url(#aavxokaun)" d="M0 0h18v18H0z"/><path d="M5.67 6.5a.83.83 0 0 1-.43-.12A4.58 4.58 0 1 0 9 4.42V4a5 5 0 1 1-4.06 2.08.83.83 0 1 1 .72.42Zm0-.42a.42.42 0 1 0 0-.83.42.42 0 0 0 0 .83ZM9 12a3 3 0 1 0 0-6 3 3 0 0 0 0 6Z" fill="#fff"/><defs><linearGradient id="aavxokaun" x1="9" y1="0" x2="9" y2="18" gradientUnits="userSpaceOnUse"><stop stop-color="#E92121"/><stop offset="1" stop-color="#9C0403"/></linearGradient></defs></svg>