<!-- by TradingView --><svg width="18" height="18" viewBox="0 0 18 18" xmlns="http://www.w3.org/2000/svg"><path fill="#F0F3FA" d="M0 0h18v18H0z"/><path fill-rule="evenodd" d="M5 11.78V4.74c0-.41.34-.74.76-.74h6.48c.42 0 .76.33.76.74v7.04c0 .22-.1.44-.29.58l-3.24 2.48a.77.77 0 0 1-.93 0l-3.25-2.48a.73.73 0 0 1-.29-.58Zm3-2.56v3.67c0 .1-.11.14-.19.09L6.1 11.63a.22.22 0 0 1-.09-.18V5.79A.8.8 0 0 1 6.84 5h4.34a.8.8 0 0 1 .83.79V7.8c0 .56-.57.76-.85.8.57 0 .8.5.85.74v2.1c0 .07-.03.13-.09.18l-1.72 1.34c-.08.06-.2 0-.2-.09V9.84A.86.86 0 0 0 9.16 9h-.92c-.13 0-.24.1-.24.22ZM8 6.1v1.8c0 .06.06.1.12.1h1.14c.4 0 .74-.27.74-.6V6.1c0-.06-.06-.1-.12-.1H8.12c-.06 0-.12.04-.12.1Z" fill="#1273EA"/></svg>