<!-- by TradingView --><svg width="18" height="18" fill="none" xmlns="http://www.w3.org/2000/svg"><path fill="#fff" d="M0 0h18v18H0z"/><circle cx="9" cy="8.96" r="5.599" fill="url(#paint0_linear_1530)"/><path fill-rule="evenodd" clip-rule="evenodd" d="M9 14.639A5.639 5.639 0 109 3.36 5.639 5.639 0 009 14.64zm0-.404a5.235 5.235 0 100-10.47 5.235 5.235 0 000 10.47z" fill="#FF7534"/><path fill-rule="evenodd" clip-rule="evenodd" d="M9 15A6 6 0 109 3a6 6 0 000 12zm0-.43A5.57 5.57 0 109 3.43a5.57 5.57 0 000 11.14z" fill="#FFD58D"/><path fill-rule="evenodd" clip-rule="evenodd" d="M7.438 8.445l-.576.69.81.303c.011.306.084.433.12.459l-.309.285.308.315.304-.315c.217.083.442.077.528.064l.283.827.714-.649.179-.794c1.648-1.5 1.833-2.696 1.72-3.107-1.46-.104-2.767 1.098-3.237 1.711l-.844.211zm.036 2.342l-2.447 2.257-.258-.28 2.446-2.257.259.28zm-.785.052l-2.007 1.835-.257-.281 2.007-1.835.257.281zm.681.637l-2.024 1.86-.258-.28 2.024-1.86.258.28zM9.6 8.825a.472.472 0 100-.943.472.472 0 000 .943z" fill="#fff"/><defs><linearGradient id="paint0_linear_1530" x1="4.304" y1="12.713" x2="14.599" y2="5.133" gradientUnits="userSpaceOnUse"><stop stop-color="#FB9533"/><stop offset=".261" stop-color="#FEBA67"/><stop offset=".747" stop-color="#FF9976"/><stop offset="1" stop-color="#FF6350"/></linearGradient></defs></svg>