<!-- by TradingView --><svg width="18" height="18" xmlns="http://www.w3.org/2000/svg"><path fill="#1E222D" d="M0 0h18v18H0z"/><path d="M8.651 12.735l-3.15 2.267 2.003-9.208 1.147 6.941zm.068-.017l1.912.023-3.054-6.92 1.142 6.897zm2.098-.157l1.468-5.445-.557-.675-.911 6.12zm-.709-8.54L7.69 5.654l3.533-1.142-1.114-.49zm-.304 0l-1.502.057-.225.619 1.727-.675z" fill="#3D4FC5"/><path d="M7.616 5.76l3.105 6.947.945-6.379-4.05-.568zM8.077 4.77l1.913-.748-2.374 1.597.461-.849zM8.325 3.983l.484-.524 1.102.484-1.586.04zM8.882 3.398l.76-.35.967 1.109-1.727-.76zM9.692 2.998h.81l.45.49-1.26-.49zM10.783 4.23l.191-.58.197.766-.388-.186z" fill="#DF5D44"/><path d="M7.751 5.698l3.87.529-.382-1.631L7.75 5.698zM11.278 4.45l-.247-.906 1.738.512-1.49.393zM10.918 3.6l-.214.58-.9-1.064 1.114.484z" fill="#E99749"/></svg>