<!-- by TradingView --><svg width="18" height="18" viewBox="0 0 18 18" xmlns="http://www.w3.org/2000/svg"><path fill="url(#a)" d="M0 0h18v18H0z"/><path fill-rule="evenodd" d="M3.53 10.28a1.8 1.8 0 0 1 0-2.56l4.2-4.2c.7-.7 1.84-.7 2.55 0l4.2 4.2c.7.7.7 1.85 0 2.56l-4.2 4.2c-.7.7-1.85.7-2.56 0l-4.2-4.2Zm3.62 2.22c-.91 0-1.65-.74-1.65-1.65v-3.7c0-.91.74-1.65 1.65-1.65h3.7c.91 0 1.65.74 1.65 1.65v3.7c0 .91-.74 1.65-1.65 1.65h-3.7Zm1.36-.7a.7.7 0 0 0 .98 0l2.3-2.3a.7.7 0 0 0 0-1L9.5 6.2a.7.7 0 0 0-.98 0L6.2 8.5a.7.7 0 0 0 0 1l2.3 2.3Z" fill="#fff"/><defs><linearGradient id="a" x1="3.35" y1="3.12" x2="21.9" y2="24.43" gradientUnits="userSpaceOnUse"><stop stop-color="#1A1E21"/><stop offset="1" stop-color="#06060A"/></linearGradient></defs></svg>