<!-- by TradingView --><svg width="18" height="18" viewBox="0 0 18 18" xmlns="http://www.w3.org/2000/svg"><path fill="#FFEEDA" d="M0 0h18v18H0z"/><path d="M4 6.43c0 .8.5 1.52.87 1.92.1.1.26.1.36-.01.11-.13.1-.34-.02-.47-.3-.3-.58-.83-.58-1.44 0-1.36 1.04-1.72 1.59-1.76h5.76c.15 0 .25.06.25.22v5.2c.34.09.73.2.77.24V4.9c0-.5-.57-.9-1.03-.9H6.33C4.86 4 4 5.27 4 6.43ZM5.57 6H5v.67h.33v5.74c0 .88.81 1.6 1.66 1.6h4.8c.94 0 1.7-.8 1.7-1.8 0-.98-.76-1.88-1.7-1.88h-4.6c-.32 0-.56.19-.56.52v.87c0 .32.24.6.56.6h.42v-.65H7.3V11h.12c.77 0 .86.96.86 1.17 0 .22-.05 1.23-1.1 1.23-.85 0-1.15-.65-1.17-.98V6.37C6 6.09 5.83 6 5.57 6Zm4.93 0H7v.67h3.5c.17 0 .3-.15.3-.34 0-.18-.13-.33-.3-.33ZM7 7.33h4.13c.17 0 .3.15.3.34 0 .18-.13.33-.3.33H7v-.67Zm3.5 1.34H7v.66h3.5c.17 0 .3-.15.3-.33 0-.18-.13-.33-.3-.33Z" fill="#190602"/><path d="M11.78 11H8.7c.14.15.41.57.41 1.1 0 .52-.27 1.04-.41 1.23h3.08c.6 0 1.08-.52 1.08-1.16 0-.65-.47-1.17-1.08-1.17Z" fill="#EBC28E"/></svg>