<!-- by TradingView --><svg width="18" height="18" viewBox="0 0 18 18" xmlns="http://www.w3.org/2000/svg"><path fill="url(#a)" d="M0 0h18v18H0z"/><path d="M13 6.16c-.02.43-.2.74-.56.93-.27.15-.62.22-1.05.2l-.02-.01.01-.03c.4-.42.54-.92.38-1.51-.1-.36-.3-.55-.65-.56-.45-.02-.78.3-.97.96-.13.44-.22.95-.26 1.54-.03.37-.04.92-.04 1.63 0 .24-.04.53-.1.9-.18.96-.6 1.69-1.28 2.19a3.5 3.5 0 0 1-2 .6c-.57.02-1.07-.1-1.51-.35-.52-.3-.83-.74-.92-1.3-.05-.28-.03-.57.04-.87a.96.96 0 0 1 .37-.57c.2-.13.4-.16.62-.07.15.05.25.15.32.3.07.14.09.3.06.48-.04.3-.2.5-.51.56-.03.01-.05.03-.06.07-.09.44.01.82.3 1.14.27.3.6.46 1 .48.8.03 1.39-.29 1.8-.94.19-.3.34-.74.45-1.3.1-.5.14-.97.13-1.44a5.7 5.7 0 0 1 .52-2.79 2.51 2.51 0 0 1 2.09-1.39c.68-.06 1.22.1 1.6.5.1.1.25.5.24.65Z" fill="#fff"/><defs><linearGradient id="a" x1="-1.66" y1="0" x2="18.48" y2="16.73" gradientUnits="userSpaceOnUse"><stop offset=".1" stop-color="#F34112"/><stop offset=".53" stop-color="#FDA10C"/><stop offset="1" stop-color="#EE7A23"/></linearGradient></defs></svg>