<!-- by TradingView --><svg width="18" height="18" viewBox="0 0 18 18" xmlns="http://www.w3.org/2000/svg"><path fill="url(#aldwf5el3)" d="M0 0h18v18H0z"/><path d="M6.38 7.16C6.3 7.09 6.22 7 6.12 7h-2.1L4 6.95v-.91L4.02 6A.07.07 0 0 1 4.06 6h2.22c.56 0 1.04.2 1.44.58l.61.75-.93.96-1.02-1.13Zm3.9-.58c.41-.39.9-.58 1.46-.58h2.2l.05.01.01.04v.9l-.01.04-.05.01h-2.1c-.1 0-.18.04-.25.1L10.05 9l1.8 1.9c.07.07.15.1.25.1h1.84c.02 0 .04 0 .05.02l.01.04v.9l-.01.02-.05.02h-2.2c-.57 0-1-.26-1.4-.65l-1.28-1.33-1.34 1.4c-.4.39-.89.58-1.45.58h-2.2c-.03 0-.04 0-.05-.02a.05.05 0 0 1-.01-.03v-.9l.01-.04.04-.01h2.1c.1 0 .18-.09.26-.16l3.86-4.26Z" fill="#00D1FF"/><defs><linearGradient id="aldwf5el3" x1="9" y1="0" x2="9" y2="18" gradientUnits="userSpaceOnUse"><stop offset=".27" stop-color="#08021F"/><stop offset="1" stop-color="#0F0439"/></linearGradient></defs></svg>