<!-- by TradingView --><svg width="18" height="18" viewBox="0 0 18 18" xmlns="http://www.w3.org/2000/svg"><path fill="url(#a)" d="M0 0h18v18H0z"/><path d="M13.48 6.78v.01l-.45.15a3.83 3.83 0 0 1-1.61.02c-.93-.2-1.68-.7-2.24-1.5a.1.1 0 0 0-.1-.05c-.05 0-.08.03-.08.07a5.17 5.17 0 0 1-4.77 5.03 4.96 4.96 0 0 1 1.68-5.43 4.93 4.93 0 0 1 4.98-.7 4.92 4.92 0 0 1 2.59 2.4Z" fill="url(#b)"/><path d="M4.52 11.22a.01.01 0 0 1 0-.01h.01l.44-.14a3.82 3.82 0 0 1 1.61-.03c.93.2 1.68.7 2.24 1.5a.1.1 0 0 0 .1.05c.05 0 .08-.03.08-.07a5.17 5.17 0 0 1 4.77-5.03 4.96 4.96 0 0 1-1.68 5.43 4.93 4.93 0 0 1-4.98.7 4.92 4.92 0 0 1-2.59-2.4Z" fill="url(#c)"/><defs><linearGradient id="a" x1="3.35" y1="3.12" x2="21.9" y2="24.43" gradientUnits="userSpaceOnUse"><stop stop-color="#1A1E21"/><stop offset="1" stop-color="#06060A"/></linearGradient><linearGradient id="b" x1="12.12" y1="3.65" x2="6.86" y2="10.18" gradientUnits="userSpaceOnUse"><stop stop-color="#2F28F1"/><stop offset=".65" stop-color="#3FC4ED"/><stop offset="1" stop-color="#44C0EE"/></linearGradient><linearGradient id="c" x1="14" y1="9.57" x2="7" y2="14.69" gradientUnits="userSpaceOnUse"><stop stop-color="#F50947"/><stop offset="1" stop-color="#4D6CF3"/></linearGradient></defs></svg>