<!-- by TradingView --><svg width="18" height="18" viewBox="0 0 18 18" xmlns="http://www.w3.org/2000/svg"><path fill="url(#a)" d="M0 0h18v18H0z"/><path d="M9 5c.17 0 .29.13.36.38.04.15.07.38.08.7v.06c.04.56.06 1.31.07 2.25v.01h.01v.01c.83.02 1.49.05 1.98.08h.05c.28.02.48.05.61.1.23.08.34.22.34.41 0 .2-.11.33-.34.41a2.48 2.48 0 0 1-.66.1 44.11 44.11 0 0 1-1.98.08v.02c-.02.94-.04 1.69-.07 2.25v.06c-.02.32-.05.55-.1.7-.06.25-.18.38-.35.38-.17 0-.3-.13-.36-.38a3.63 3.63 0 0 1-.09-.7v-.06c-.03-.56-.05-1.31-.07-2.25V9.6l-.01-.01a45.33 45.33 0 0 1-2.02-.08 2.46 2.46 0 0 1-.62-.1C5.61 9.33 5.5 9.2 5.5 9c0-.2.11-.33.33-.41.13-.05.34-.08.62-.1h.04a44.98 44.98 0 0 1 1.99-.08v-.02c.02-.94.04-1.69.07-2.25v-.06c.02-.32.05-.55.09-.7C8.7 5.13 8.83 5 9 5Zm2.2 1.2c1.2 0 2.28.25 3.24.73.42.21.78.48 1.05.8.34.4.51.82.51 1.26 0 .45-.17.87-.5 1.26-.28.33-.63.6-1.06.8-.96.49-2.04.74-3.24.75a.74.74 0 0 1-.2-.04c-.16-.05-.25-.16-.25-.34 0-.18.06-.31.2-.4a.73.73 0 0 1 .29-.1 19.25 19.25 0 0 0 2.5-.62c.3-.12.57-.26.82-.43.15-.12.28-.24.38-.37a.84.84 0 0 0 .19-.5.85.85 0 0 0-.2-.51c-.1-.14-.22-.26-.38-.37a3.77 3.77 0 0 0-.81-.43 19.29 19.29 0 0 0-2.5-.6.73.73 0 0 1-.3-.1.45.45 0 0 1-.2-.4c0-.18.09-.3.25-.35.09-.03.16-.04.2-.04Zm-4.4 0c.05 0 .12.01.21.04.16.05.24.16.25.34 0 .18-.07.31-.2.4a.73.73 0 0 1-.3.1 19.3 19.3 0 0 0-2.5.6c-.3.13-.57.27-.81.44-.16.11-.29.24-.39.37a.85.85 0 0 0-.19.5c0 .17.07.34.2.5.09.14.22.26.37.38.25.17.52.31.82.43a19.24 19.24 0 0 0 2.5.61c.13.02.23.06.3.1.13.1.2.23.19.4 0 .18-.09.3-.25.35a.72.72 0 0 1-.2.04 7.36 7.36 0 0 1-3.24-.74 3.3 3.3 0 0 1-1.06-.8A1.9 1.9 0 0 1 2 8.98c0-.44.17-.86.5-1.26.29-.32.64-.59 1.06-.8A7.36 7.36 0 0 1 6.8 6.2Z" fill="#F8FBD3"/><defs><linearGradient id="a" x1="9" y1="0" x2="9" y2="18" gradientUnits="userSpaceOnUse"><stop stop-color="#62829E"/><stop offset="1" stop-color="#8997A3"/></linearGradient></defs></svg>