<!-- by TradingView --><svg width="18" height="18" fill="none" xmlns="http://www.w3.org/2000/svg"><path fill="#FA2714" d="M0 0h18v18H0z"/><path d="M7.91 15c.039-.009.077-.017.116-.024-.053-2.087-.257-4.18.303-6.213-.097-.08-.141-.137-.2-.163-.305-.133-.608-.269-.921-.385-.55-.203-.761-.552-.663-1.178.121.055.23.11.342.156.37.153.735.325 1.116.448.505.163.604.287.526.8-.054.348-.122.696-.15 1.048-.026.32.293.759.55.811.222.046.566-.227.674-.576.044-.14.025-.304.009-.454-.037-.35-.095-.699-.131-1.05-.031-.299.135-.456.427-.555.413-.138.813-.313 1.218-.473.11-.043.22-.092.343-.145.057.707-.132.973-.763 1.196-.342.12-.667.28-1.044.443.563 2.114.35 4.212.382 6.314.163-.177.277-.362.378-.554.088-.168.158-.343.24-.514.386-.812.788-1.617 1.15-2.439.114-.256.174-.554.178-.834.015-1.377.011-2.755 0-4.133-.003-.329-.02-.674-.126-.98-.187-.55-.356-1.14-.702-1.596-.625-.82-1.578-1.044-2.606-.917-.821.102-1.547.456-1.92 1.166-.39.745-.64 1.557-.633 2.417.01 1.355-.01 2.71 0 4.066.001.217.035.45.124.645.515 1.13 1.05 2.252 1.583 3.375.05.105.132.199.2.297z" fill="#1D181F"/></svg>