<!-- by TradingView --><svg xmlns="http://www.w3.org/2000/svg" width="18" height="18" viewBox="0 0 18 18"><path fill="#27204B" d="M0 0h18v18H0z"/><path d="M7.32 5.34h2.34v1.08H7.32V5.34zM9.42 8.28h.78v.57h-.78v-.57z" fill="#FEEB94"/><path fill="#FEEB94" d="M10.2 6.12v2.16H8.28V6.12zM7.02 7.32H5.64v2.4h1.38v-2.4z"/><path d="M6.91 9.34h.1v.2h-.1v-.2zM7.69 9.63h.48v.3H7.7v-.3z" fill="#FEEB94"/><path d="M8.16 9.48h1.08v.96H8.16v-.96zM8.16 9.36H6.9v1.08h1.26V9.36z" fill="#FEEB94"/><circle cx="8.04" cy="8.04" r="1.68" fill="#fff"/><path fill="#7C79F7" d="M4 4h3.01v3.01H4z"/><path fill="#9695F8" d="M4.39 4.39h2.33v2.23H4.39z"/><path fill="#7C79F7" d="M5.17 4.78h1.55v.39H5.17z"/><path fill="#7C79F7" d="M6.72 4.87v.97h-.39v-.97zM5.17 5.17v1.17h-.39V5.17zM5.45 7H4.38v-.38h1.07z"/><path fill="#7C79F7" d="M5.94 6.23v.4H4.77v-.4zM6.72 6.23v.4h-.39v-.4z"/><path fill="#C6C6FF" d="M5.55 5.46h.39v.39h-.39zM5.94 5.84h.78v.39h-.78zM5.94 6.23h.39v.39h-.39z"/><path fill="#7C79F7" d="M5.17 7.01h1.55v.39H5.17zM6.33 7.4H7.4v.39H6.33z"/><path d="M7.4 7.4h.77v.77H7.4V7.4zm.77.77H7.8v.4h.38v-.4zm.78.78v.39h-.39v-.39h-.38v-.78h.78v.78zm.39.39v.39h-.39V8.56h.39v.78zm.78.78v-.78h-.4v-.39h-.38v1.17h.39v.38h.39v-.38zm.39.38h-.4v.4h.4v-.4zm0 .4h.38v.38h-.38v-.39zm1.16.77v-.78h-.78v.78h.4v.39h.38v-.39zm.39.78v-1.17h-.39v1.17h.39zm.78 0v.78h-.4v-.4h-.38V11.67h.39v.39h.39v.39zm0 .38v.78h.38V12.45h-.38v.38zm.38.78v-.78h.4v.4H14v.38h-.78zm-2.71-3.1v-.78h-.4v.77h.4zm0 0h.38v.38h-.38v-.39zM8.18 7.78h.38v.38h-.38V7.8zm2.33 2.33h.38v.38h-.38v-.38zm.77.38h-.39v.4h.4v-.4zM14 13.61h-.78V14H14v-.39z" fill="#625FE6"/><path fill="#7C79F7" d="M7.4 7.4V6.23h.4V7.4zM7 6.62V5.07h.4v1.55z"/><path fill="#C4C4C4" d="M6.72 7.11h.68v.29h-.68z"/><path fill="#7C79F7" d="M6.72 6.62h.68v.78h-.68z"/></svg>