<!-- by TradingView --><svg width="18" height="18" xmlns="http://www.w3.org/2000/svg"><path fill="#181B62" d="M0 0h18v18H0z"/><path d="M9 12.235c-1.377 0-2.493-1.231-2.493-2.75 0-1.478 2.251-4.084 2.344-4.187l.112-.144.111.144c.093.103 2.4 2.71 2.4 4.187.019 1.519-1.097 2.75-2.474 2.75zm-.02-6.547c-.204.246-.614.739-1.023 1.355C7.232 8.11 6.842 8.95 6.842 9.485c0 1.313.967 2.38 2.158 2.38 1.19 0 2.158-1.067 2.158-2.38 0-.534-.39-1.375-1.135-2.443a18.72 18.72 0 00-1.042-1.354z" fill="#71E0EC"/><path d="M9 13.117c-1.823 0-3.293-1.62-3.293-3.632 0-1.95 2.474-4.68 2.586-4.803a.18.18 0 01.242 0 .234.234 0 010 .267c-.037.02-2.493 2.73-2.493 4.536 0 1.806 1.32 3.263 2.958 3.263 1.637 0 2.958-1.457 2.958-3.263 0-.739-.428-1.765-1.246-2.956-.633-.923-1.265-1.62-1.265-1.62-.075-.063-.075-.186 0-.268.055-.082.167-.082.241 0 .112.123 2.624 2.894 2.624 4.844-.019 2.011-1.489 3.633-3.312 3.633z" fill="#71E0EC"/><path d="M9 14c-2.195 0-4-1.99-4-4.413 0-1.005.465-2.237 1.358-3.673a17.328 17.328 0 011.358-1.847c.056-.082.168-.082.242 0 .075.061.075.184 0 .266 0 0-.67.76-1.32 1.806-.857 1.355-1.303 2.545-1.303 3.469 0 2.237 1.656 4.043 3.665 4.043 2.01 0 3.665-1.847 3.665-4.064 0-.923-.446-2.113-1.302-3.468-.651-1.026-1.321-1.785-1.321-1.806a.233.233 0 010-.267.18.18 0 01.242 0C10.377 4.19 13 7.186 13 9.587 13 12.01 11.214 14 9 14z" fill="#71E0EC"/></svg>