<!-- by TradingView --><svg width="18" height="18" xmlns="http://www.w3.org/2000/svg"><path fill="#171FC9" d="M0 0h18v18H0z"/><path d="M5.332 4.66c.123.022-.179.82-.011 1.731.145.782 1.955 3.821 1.882 4.86-.056.66-1.547 2.19-1.704 2.09-.167-.05.453-1.09.224-1.956-.274-1.016-1.866-3.63-1.866-4.787 0-.843 1.369-1.994 1.475-1.938zm3.407-1.196c.157.028-.223 1.045-.01 2.212.183 1 2.496 4.871 2.401 6.2-.073.833-1.972 2.783-2.173 2.654-.218-.056.576-1.385.28-2.491-.336-1.29-2.375-4.631-2.375-6.1 0-1.084 1.743-2.542 1.883-2.475h-.006zm3.525 1.196c.123.022-.179.82-.011 1.731.145.782 1.955 3.821 1.888 4.86-.056.66-1.547 2.19-1.71 2.09-.167-.05.453-1.09.224-1.956-.268-1.016-1.866-3.63-1.866-4.787 0-.843 1.369-1.994 1.475-1.938z" fill="#fff"/></svg>