<!-- by TradingView --><svg xmlns="http://www.w3.org/2000/svg" width="18" height="18"><path fill="url(#a1alse0x5)" d="M0 0h18v18H0z"/><path d="M8.72 4.09a.5.5 0 01.56 0l4.5 3.1a.5.5 0 01-.02.84l-4.5 2.8a.5.5 0 01-.52 0L5 8.5v.38l4 2.48 4.24-2.63a.5.5 0 01.76.43v1.4a.5.5 0 01-.23.41l-4.5 2.95a.5.5 0 01-.53 0l-4.5-2.79a.5.5 0 11.52-.85L9 12.91l4-2.63v-.23l-3.74 2.32a.5.5 0 01-.52 0l-4.5-2.79A.5.5 0 014 9.16V7.6a.5.5 0 01.22-.4l4.5-3.11zm-3.3 3.5L9 9.8l3.59-2.23L9 5.11 5.41 7.58z" fill="#fff"/><defs><linearGradient id="a1alse0x5" x1="9" y1="0" x2="9" y2="18" gradientUnits="userSpaceOnUse"><stop stop-color="#1B71BD"/><stop offset="1" stop-color="#10449E"/></linearGradient></defs></svg>