<!-- by TradingView --><svg width="18" height="18" viewBox="0 0 18 18" xmlns="http://www.w3.org/2000/svg"><path fill="#F0F3FA" d="M0 0h18v18H0z"/><path d="M11.4 7.59c.42.56.67 1.27.67 2.05 0 .79-.26 1.5-.69 2.07l-.03.05-.01-.06-.03-.16c-.22-1.01-.92-1.88-2.07-2.58-.77-.48-1.22-1.05-1.33-1.7a2.82 2.82 0 0 1 .5-2.05l.44-.58c.08-.1.22-.1.3 0l2.25 2.96Zm.7-.59L9.12 3.06a.14.14 0 0 0-.22 0L5.89 7v.01A4.48 4.48 0 0 0 5 9.71C5 12.07 6.8 14 9 14s4-1.92 4-4.3c0-1.01-.33-1.95-.88-2.69L12.1 7Zm-5.5.57.28-.35v.07l.03.15c.17.98.8 1.8 1.83 2.43.9.55 1.42 1.19 1.57 1.88.07.3.08.58.05.83v.01l-.01.01c-.41.21-.87.33-1.35.33-1.7 0-3.07-1.47-3.07-3.3 0-.77.26-1.49.68-2.06Z" fill="#4BA2FF"/></svg>