<!-- by TradingView --><svg width="18" height="18" viewBox="0 0 18 18" xmlns="http://www.w3.org/2000/svg"><path fill="#F25C37" d="M0 0h18v18H0z"/><path fill-rule="evenodd" d="M9 3.5c-1.66.04-2.58 2.11-2.83 3.14.35-.3 1.32-.83 1.92-1.16a.1.1 0 0 0-.02-.18l-.48-.08a.2.2 0 1 1 .07-.38l1.13.24c.21.05.36.03.4 0 .67-.2 1.48-.3 1.8-.34-.76-1.1-1.64-1.28-1.99-1.23ZM6.31 5.16c-2.78.35-2.48 2.44-1.99 3.44a7.71 7.71 0 0 1 1.36-1.53c.1-.6.46-1.52.63-1.91Zm0 7.7c-1.1-.02-3.03-.74-1.98-3.43a9.27 9.27 0 0 0 3.78 3.1c.06.03.07.1 0 .14-.18.09-.56.2-1.16.2a.37.37 0 0 1-.29-.2l-.2-.4a.2.2 0 0 0-.35.17l.2.42Zm.7.42c.63.93 2.3 2.23 3.96 0-.4-.05-1.3-.2-1.73-.33a.77.77 0 0 0-.47 0c-.27.08-1.54.3-1.75.33Zm6.67-4.68c.5-1 .79-3.1-1.99-3.44.17.39.54 1.32.63 1.9.29.26.97.91 1.36 1.54Zm-9.05.57c.2.36.68.9.9 1.12-.05-.27-.06-1.1-.06-1.62a.2.2 0 1 1 .4 0v.76c.02.66.1 1.1.13 1.24 1.77 1.63 3.64 2 4.4 2.15l.15.03c.5.1.69-.02.75-.13.17-.32.33-.74.43-1.05.03-.1-.08-.17-.16-.11-.36.27-.8.52-1.1.67-.08.05-.2 0-.23-.1a.18.18 0 0 1 .08-.22A13.9 13.9 0 0 0 12 10.7c.12-.52.14-1.53.13-2.12 0-.11.09-.2.2-.2.1 0 .19.08.2.18a8.99 8.99 0 0 1-.85 4.27c2.78-.24 2.48-2.38 1.99-3.42l-.38.56c-.26.25-.4-.2-.3-.31.2-.21.24-.54.24-.68-.06-1.12-2.26-2.53-3.35-3.1l.5-.19c.4.21 1.13.71 1.44.93-.02-.1-.26-.83-.42-1.19-.13-.28-.35-.32-.44-.31A8.76 8.76 0 0 0 6 7.3c-.54.47-1.55 1.5-1.37 1.85Zm4.33-2.45a.05.05 0 0 1 .08 0l.35.7c.02.03 0 .06-.04.06h-.7a.05.05 0 0 1-.05-.07l.36-.7Zm0 4.59c.01.03.06.03.08 0l.35-.7c.02-.03 0-.07-.04-.07h-.7c-.04 0-.06.04-.05.07l.36.7Zm2.37-2.32c.03.02.03.07 0 .08l-.7.36c-.03.01-.07-.01-.07-.05v-.7c0-.04.04-.06.07-.04l.7.35Zm-4.66.07a.05.05 0 0 1 0-.09l.7-.35c.03-.02.07 0 .07.04v.7c0 .04-.04.07-.07.05l-.7-.35Zm.7-1.73a.05.05 0 0 0-.06.06l.25.74c0 .03.05.05.07.02l.5-.5a.05.05 0 0 0-.02-.08l-.74-.24Zm-.05 3.31c-.02.04.02.08.06.06l.73-.24a.05.05 0 0 0 .02-.08l-.5-.5a.05.05 0 0 0-.07.02l-.24.74Zm3.3-3.32c.04-.01.08.02.06.06l-.24.74a.05.05 0 0 1-.08.02l-.5-.5a.05.05 0 0 1 .02-.08l.74-.24Zm.07 3.33a.05.05 0 0 1-.06.06l-.74-.24a.05.05 0 0 1-.02-.08l.5-.5a.05.05 0 0 1 .07.02l.25.74ZM9 10.22c.69 0 1.25-.55 1.25-1.22 0-.68-.56-1.22-1.25-1.22S7.75 8.32 7.75 9c0 .67.56 1.22 1.25 1.22Z" fill="#fff"/></svg>