<!-- by TradingView --><svg width="18" height="18" viewBox="0 0 18 18" xmlns="http://www.w3.org/2000/svg"><path fill="url(#a)" d="M0 0h18v18H0z"/><path d="m13.83 10.31-.14.41c-.15.45-.39.85-.7 1.2-.39.45-1.2.89-1.58.14a2.27 2.27 0 0 1-.16-.47 5.5 5.5 0 0 1-.13-.85c-.06-.78-.04-1.77-.04-2.39 0-.74-.52-1.46-1.35-1.2a.75.75 0 0 0-.43.38c-.24.4-.2.97-.02 1.4.1.23.26.55.49.94l.59 1.02c.2.38.4.76.55 1.16.05.15.08.28.08.4.06 1.05-.86 1.5-1.77 1.54a5 5 0 0 1-4.91-6.73c.15-.41.35-.78.61-1.1.3-.36.84-.76 1.31-.58.53.21.46.98.4 1.48-.08.77-.18 1.45.04 2.15.17.53.6 1.03 1.22.84.45-.15.63-.62.63-1.08 0-.54-.24-.98-.53-1.43l-.53-.84c-.24-.4-.46-.82-.45-1.28 0-.39.16-.72.48-.99.44-.32 1-.43 1.53-.43a5 5 0 0 1 4.8 6.31Z" fill="#fff"/><defs><linearGradient id="a" x1="14.63" y1="2.17" x2="2.44" y2="13.72" gradientUnits="userSpaceOnUse"><stop stop-color="#FC8541"/><stop offset="1" stop-color="#FD8D4E"/></linearGradient></defs></svg>