<!-- by TradingView --><svg width="18" height="18" xmlns="http://www.w3.org/2000/svg"><path fill="#C4342B" d="M0 0h18v18H0z"/><path opacity=".12" d="M13.491 7.27l-1.275-.909-.026-.02a.57.57 0 00-.168-.092l-.005-.005-3.424-.842-3.057-.755-.076-.02a.781.781 0 00-.312-.041.214.214 0 00-.086.03l-.03.026a.352.352 0 00-.083.127l-.005.02v.113l.005.015 1.94 5.48 1.5 4.22c.03.097.117.158.224.169h.026a.264.264 0 00.234-.133l1.868-2.76 1.362-2.021.562-.827.933-1.377.02-.026v-.03c.011-.082.011-.256-.127-.348v.005zm-2.184 1.005l-1.337.709.786-.857 1.005-1.092.006-.01.102-.113.081-.081c.3.208.597.419.893.632-.514.267-1.026.538-1.536.812zm-1.133-.123L9.14 9.28a668.669 668.669 0 00-2.02-2.475l-.91-1.102-.203-.255-.133-.158.822.204.73.178 4.107 1.01-1.357 1.48v-.01zm-1.188 4.67l.081-.766.061-.613.103-.97v-.05c.025-.21.05-.424.06-.638a.704.704 0 01.088-.04l.102-.052 1.643-.867 1.653-.873c-.502.739-1.002 1.479-1.5 2.22L9.99 12.07c-.169.255-.347.51-.51.765-.194.27-.388.562-.577.842.023-.286.05-.572.082-.857zM5.7 5.855l-.092-.26L7.51 7.918l.97 1.188c.066.072.127.154.188.23.082.097.158.199.25.296l-.081.735-.051.505-.031.321-.051.475-.005.02-.148 1.444-.061.597-.036-.102a10.68 10.68 0 01-.102-.296l-.255-.714L5.7 5.857z" fill="#fff"/><path fill-rule="evenodd" d="M4.629 4.165a.5.5 0 01.49-.15l7.063 1.727a.5.5 0 01.175.081l1.437 1.047a.5.5 0 01.119.686l-4.944 7.226a.5.5 0 01-.884-.114l-3.556-10a.5.5 0 01.1-.503zM6.37 6.862l1.932 5.43.317-2.814L6.37 6.862zm3.236 2.79l-.328 2.907 2.774-4.054-2.446 1.147zm2.916-2.472l-1.207.566.81-.855.397.29zm-1.413-.671L6.395 5.356 9.158 8.57l1.95-2.062z" fill="#fff"/></svg>