<!-- by TradingView --><svg width="18" height="18" viewBox="0 0 18 18" xmlns="http://www.w3.org/2000/svg"><path fill="#7A2BF9" d="M0 0h18v18H0z"/><path fill-rule="evenodd" d="M14 9A5 5 0 1 1 4 9a5 5 0 0 1 10 0ZM9.16 5.4c-.06.1-.15.18-.27.14a5.76 5.76 0 0 0-2.55-.2.05.05 0 0 1-.02-.03.05.05 0 0 1 .02-.04A4.59 4.59 0 0 1 9.8 4.5a.07.07 0 0 1 0 .1c-.27.23-.48.5-.64.8ZM4.52 8.04a.11.11 0 0 0-.02.04 4.6 4.6 0 0 0 .65 3.42c.05.07.15.1.2.02.17-.34.4-.64.67-.9.1-.1.15-.1.25-.03.1.06.18.18.08.28-.24.24-1 1.08-.56 1.35.1.06.23.1.39.11.23.02.46 0 .7-.03.48-.08.97-.2 1.48-.39a14.16 14.16 0 0 0 3.76-2.06c.07-.05.07-.1.07-.17v-.03c.07-.9.02-1.75-.13-2.56a6.1 6.1 0 0 0-.35-1.17c-.22-.53-.75-1.43-1.45-1.11a1.8 1.8 0 0 0-.74.8c-.04.06-.03.13.05.16a8.96 8.96 0 0 1 2.2 1.25c.1.12.13.27.15.42l.01.08c.02.08.01.15-.01.21-.03.1-.1.15-.18.18a11.32 11.32 0 0 0-2.72 1.06.07.07 0 0 1-.07-.06c0-.12 0-.22.02-.31 0-.04.02-.07.06-.09a11.73 11.73 0 0 1 2.66-1.03.02.02 0 0 0 0-.01 8.17 8.17 0 0 0-2.6-1.43c-.89-.3-1.9-.45-2.8-.24-.39.1-.77.27-1.03.57-.64.73-.3 1.73.17 2.44.25.37.56.72.92 1.05.18.16.27.2.48.04.4-.32.83-.62 1.3-.89.21-.13.22-.24.22-.44V8.5c.05-.76.19-1.5.42-2.23.02-.07.07-.1.14-.09.1.02.3.06.26.2a9.67 9.67 0 0 0-.2 4.88c.03.1 0 .18-.1.23h-.01c-.18.1-.37.18-.57.09a8.29 8.29 0 0 1-2.64-1.85A4.62 4.62 0 0 1 4.6 8.05c-.03-.07-.05-.07-.1 0Zm7.66-2.35c.46.46.82.98 1.07 1.57a.1.1 0 0 1 0 .08.06.06 0 0 1-.07.04 3.7 3.7 0 0 0-.45-.03c-.15 0-.23-.1-.25-.23a6.8 6.8 0 0 0-.4-1.44.04.04 0 0 1 .04-.02.1.1 0 0 1 .06.03Zm1.14 2.88a.14.14 0 0 0 .05-.06c.08-.14.18-.4.08-.54-.11-.16-.42-.2-.62-.2h-.1a.04.04 0 0 0-.02.03.1.1 0 0 0 .01.1 6.46 6.46 0 0 1 .54.68l.06-.01Zm-.58 0 .24.4.01.04-.01.03-.26.28a.06.06 0 0 1-.08 0l-.01-.03V8.6a.06.06 0 0 1 .1-.03Zm.8.6c-.01 0-.02-.04-.02-.09 0-.04.01-.08.03-.08.02 0 .04.04.04.08 0 .05-.02.08-.04.08Zm-5.14 2a8.56 8.56 0 0 1-1.45-.84 12.14 12.14 0 0 1 1.37-.95l.02.02c0 .63.08 1.23.2 1.8 0 .03 0 .04-.02.03a2.01 2.01 0 0 1-.12-.05Zm4.05.38c.79-.38 1.06-1.13.8-1.95-.02-.09-.12-.1-.18-.05l-.39.36a.37.37 0 0 0-.12.24c-.05.4-.13.83-.25 1.28a.1.1 0 0 0 .14.12Zm-2.34.05a13.87 13.87 0 0 0 1.94-1.16c.03 0 .05.02.04.05-.07.42-.16.8-.29 1.17-.02.08-.1.1-.16.11a4.96 4.96 0 0 1-1.58-.07h-.01a.05.05 0 0 1 0-.04c0-.02 0-.04.03-.05l.03-.01Zm.07 1.67c.59.24 1.08-.44 1.32-.89a.34.34 0 0 0 .03-.09.06.06 0 0 0 0-.02.06.06 0 0 0-.01-.04.07.07 0 0 0-.02-.01l-.04-.01a6.12 6.12 0 0 1-2.05-.23c-.1-.02-.2.01-.16.13.17.44.48.98.93 1.16Zm1.85-1.05.01-.02c.02-.05.04-.1.1-.1a1 1 0 0 1 .13-.04c.1-.01.12.02.05.1a2.61 2.61 0 0 1-.3.27h-.04a.04.04 0 0 1-.01-.05l.06-.16Zm-2.38 1.22a3 3 0 0 1-.79-1.18c-.03-.05-.07-.07-.13-.05a7.71 7.71 0 0 1-2.21.55.05.05 0 0 0-.01.08 4.57 4.57 0 0 0 3.06.71c.03 0 .07-.02.09-.05l-.01-.06Z" fill="#fff"/></svg>