<!-- by TradingView --><svg width="18" height="18" viewBox="0 0 18 18" xmlns="http://www.w3.org/2000/svg"><path fill="#8237E2" d="M0 0h18v18H0z"/><path d="M12.82 5c.65 0 1.18.48 1.18 1.08v1.87c0 .6-.78 1.05-1.43 1.05h-.22c-.2 0-.35.14-.35.32v2.75c0 .13-.05.27-.15.38l-.92 1.33a.68.68 0 0 1-.5.22H7.08C6.49 14 6 13.55 6 13v-.8c0-.52-.45-.94-.87-.94-.7 0-1.13-.65-1.13-1.28V8.51c0-.27.1-.52.27-.73l2.06-2.44A1 1 0 0 1 7.08 5h5.74ZM7.54 6c-.3 0-.54.2-.54.44v1.12c0 .24.24.44.54.44h.92c.3 0 .54.2.54.44v2.19c0 .2.2.37.46.37h1.08c.26 0 .46-.17.46-.37V8.44c0-.24.24-.44.54-.44h.92c.3 0 .54-.2.54-.44V6.44c0-.24-.24-.44-.54-.44H7.54Z" fill="#fff"/></svg>