<!-- by TradingView --><svg width="18" height="18" fill="none" xmlns="http://www.w3.org/2000/svg"><g clip-path="url(#clip0)"><path fill="#1A5AFF" d="M0 0h18v18H0z"/><path fill-rule="evenodd" clip-rule="evenodd" d="M5.498 5h-2.5v2.5a2.5 2.5 0 002.5-2.5zm2.414 0a2 2 0 00-1.743 1.019L3.096 12.04 4.83 13l3.083-6H10V5H7.912zm3.27 1.02A2 2 0 0112.925 5H15v2h-2.075l-2.8 4.98A2 2 0 018.383 13H7v-2h1.382l2.8-4.98zM13.5 12a1.5 1.5 0 100-3 1.5 1.5 0 000 3z" fill="#fff"/></g><defs><clipPath id="clip0"><path fill="#fff" d="M0 0h18v18H0z"/></clipPath></defs></svg>