<!-- by TradingView --><svg width="18" height="18" viewBox="0 0 18 18" xmlns="http://www.w3.org/2000/svg"><path fill="url(#a)" d="M0 0h18v18H0z"/><path fill-rule="evenodd" d="M12.54 12.54a5 5 0 1 0-7.07-7.08 5 5 0 0 0 7.07 7.08Zm-.03-5.36-1.1-1.1a.03.03 0 0 0-.03-.01.03.03 0 0 0-.02 0L7.8 9.65a.03.03 0 0 1-.05 0L6.34 8.23a.03.03 0 0 0-.05 0l-1.1 1.1a.03.03 0 0 0 0 .05l2.56 2.56a.03.03 0 0 0 .04.01l4.72-4.72a.03.03 0 0 0 .01-.04Z" fill="#EFB307"/><defs><linearGradient id="a" x1="3.35" y1="3.12" x2="21.9" y2="24.43" gradientUnits="userSpaceOnUse"><stop stop-color="#1A1E21"/><stop offset="1" stop-color="#06060A"/></linearGradient></defs></svg>