<!-- by TradingView --><svg width="18" height="18" viewBox="0 0 18 18" xmlns="http://www.w3.org/2000/svg"><path fill="#F0F3FA" d="M0 0h18v18H0z"/><path d="m13.27 7.37-1.25-2.61h.1c.2 0 .68.1.92.2.24.08.27.15.29.17l.23.41.12.51-.06.5c-.07.2-.2.64-.24.72-.03.08-.09.1-.11.1Z" fill="#8E909D"/><path d="M12.5 5.1c-.06-.08-.28-.13-.38-.14.04.2.18.63.38.8.24.2.25-.11.25-.14 0-.03-.19-.41-.25-.52Z" fill="#5E4D5E"/><path d="M7.23 6.32c-.54.46-.6 1.94-.52 2.28 0 .93 3.2 1.16 3.68 1.12a16.2 16.2 0 0 0 2.03-.48l.53-.9.25-.5c.03-.1.1-.32.1-.48 0-.2-.1-.43-.18-.53a.47.47 0 0 1-.09-.24.9.9 0 0 1-.17-.18c-.05-.07-.6-1.13-.69-1.26-.08-.12-.7-.17-1.68-.17s-2.73.87-3.26 1.34Z" fill="url(#aolrgd433)"/><path d="M11.9 6.12c-.03-.3.08-.5.15-.55.26.16.8.53.83.7.02.23.16.43.18.47.02.03.07.08.14.2.08.13.06.21.07.23 0 .01.03.24-.03.55-.05.32-.17.35-.26.4-.08.04-.26-.2-.39-.2-.12 0-.23-.05-.32-.07-.08-.02-.54 0-.6-.06-.05-.06.3-.23.45-.34.16-.11.02-.22-.07-.46-.1-.24-.1-.5-.15-.87Z" fill="#FEF9E3"/><path d="M12.24 8.64c-.09.27-.46.52-.64.6.03 0 .15-.01.36-.1.26-.1.58-.41.64-.66.06-.24-.06-.25-.16-.25-.09 0-.09.06-.2.4Z" fill="#F1DB9F"/><path d="M8.9 8.74a.29.29 0 0 1-.15.13c-.01.08-.02.23.06.2.1-.02.13-.12.56-.29.43-.17 1.2-.33 1.52-.4.33-.07.62 0 1.04-.05.41-.05.66-.12.87-.23.21-.12-.13-.14-.23-.14s-.13.07-.41.14c-.28.07-.26-.05-.55-.05-.3 0-.69.08-1.1.19-.42.11-1.2.23-1.02.2.16-.03 1.34-.39 1.59-.44.24-.05.54-.08.8-.15.25-.07.5-.04.6 0 .11.04.14.06.21.03.07-.03.15-.15.15-.2 0-.06-.1-.06-.15-.06-.05 0-.1.12-.23.13-.13 0-.32-.06-.52-.15-.19-.08-.22-.1-.32-.1s-.43.24-.57.31c-.13.07-.4.17-.58.24-.19.08-.54.14-.78.18-.25.03-.46.15-.56.19-.1.04-.18.22-.23.32Z" fill="url(#bolrgd433)"/><path d="M9.21 7.31c-.17.24-.57.36-.59.37-.03.01 0-.17.32-.37.32-.2.27-.47.34-.7.07-.24-.1-.4-.27-.52s-.25-.06-.39-.18c-.13-.12.03-.26.14-.32.1-.07.45.17.52.18.07 0 .23.32.3.42.07.1.16.3.17.47 0 .18-.36-.07-.31.09.05.16-.05.32-.23.56Z" fill="url(#colrgd433)"/><path d="M11.04 9.39c.88-.1 1.63-.76 1.9-1.09l-.15.4a6.3 6.3 0 0 1-1.14.92c-.28.1-1.94.2-2.54.1-.6-.08-1.77-.47-2.13-.65a3.82 3.82 0 0 1-.82-.7l.47-1.8a8.97 8.97 0 0 1 2.7-1.43c1.08-.29 2.31-.23 2.8-.17l.22.33.18.26-.4.19-.2-.34-.98.03c-.4 0-1.5.37-1.55.37-.06 0 .14.49.06.62-.08.14-.26-.39-.35-.56-.09-.17-.19-.15-.37-.18-.18-.04.11.15.25.28.13.14.01.16-.11.13-.13-.02-.48-.3-.75-.29-.21.01-.95.69-1.28 1.02.04.06.14.24.2.44.07.25.17.2.33.3.12.06 0 .13-.09.16.06.02.3.04.78 0 .48-.04.9-.32 1.04-.46-.06.09-.27.3-.62.5-.36.21-.8.2-.98.16.02.07.07.2.06.22-.02.03 0 .46.5.64.39.15.64.09.71.04l.07.28c.02 0 .1.01.21.06.1.05-.01.14-.08.17.31.06 1.17.14 2.06.05Z" fill="#C3752A"/><path d="M7 6.98c-.17.1-.5.4-.53.8-.03.4.12.67.2.74l-.07-.36-.01-.05v.05c.05.2.23.55.66.78.6.3 1.12.2 1.67.03a.96.96 0 0 1-.48.23c-.29.04-.4.09-.37.11.04.03.96.3 1.24.36l.96.15c-.03.12-.15.36-.41.37a40.5 40.5 0 0 1-3.58-1.1c-.04-.03-.72-.46-.76-.67-.04-.22.22-.44.27-.51.04-.07.66-1.14.77-1.26.08-.1.3-.24.4-.29l.04.62Z" fill="url(#dolrgd433)"/><path d="M6.88 6.6c.06-.1.18-.22.23-.27l.12.53c.02.09.2.42.29.57-.09-.01-.3-.06-.45-.15a.57.57 0 0 1-.23-.3c0-.08-.01-.27.04-.37Z" fill="url(#eolrgd433)"/><path d="M9.61 5.06c-.6.1-2.51 1.09-2.57 1.12-.08-.06-.24-.18-.26-.25a4.2 4.2 0 0 1 .3-1.1c.23-.67.88-.77 1.64-1 .77-.23 1 .12 1.1.16.09.03.45.63.62.92l-.83.15Z" fill="#E9C281"/><path d="M7.06 6.08c-.23.15-.46.37-.55.47-.07 0-.22-.06-.23-.27-.02-.26.09-1.45.11-1.52.02-.07.49-.55 1.1-.82a2.18 2.18 0 0 1 1.47-.15c.27.07.72.37.92.5a2.93 2.93 0 0 0-.92-.14c-.37.03-.8.44-1.06.5-.25.06-.14-.11-.3-.12-.15 0-.41.48-.52.75-.08.22-.05.63-.02.8Z" fill="#CE8C4F"/><path d="M6.33 5.9c.03.28.1.59.14.7l-.21.34-.15-.54-.07-.7a2.73 2.73 0 0 1 .48-1.35c.05-.08.4-.13.36-.07l-.3.5c-.1.26-.28.85-.25 1.12Z" fill="#A15C3B"/><path d="m6.56 6.48-.09.12a2.57 2.57 0 0 1-.12-.64c-.01-.28.12-.9.16-.96.04-.06.03.68.02.92 0 .2.02.46.03.56Z" fill="#D8AF8F"/><path d="M8.28 3.71c1.35 0 1.86.78 1.95 1.17.23-.04.78-.14 1.2-.13.4 0 1.05.09 1.32.13l-.32-.2c-.13-.07-.26-.18-.27-.18l-.17-.04-.39-.25c-.09-.07-.35-.2-.47-.26-.14-.1-.58-.36-1.17-.5a4.55 4.55 0 0 0-1.31-.12c-.19 0-.65.04-.97.18-.32.14-.56.29-.63.35-.12.08-.39.28-.5.47.05 0 .25-.05.58-.21.4-.2.72-.4 1.15-.4Z" fill="url(#folrgd433)"/><path d="M6.27 4.81c-.14-.01-.2-.14-.22-.2l-.09.2-.1.44-.06.34.02.46.1.61c.05.22.14.7.14.8 0 .1-.07.45-.11.62l.11.12c.07-.05.2-.17.22-.2.03-.02.1-.53.15-.78.04-.11.17-.38.34-.58.18-.2.47-.4.6-.49.38-.23 1.3-.72 1.85-.86a9.5 9.5 0 0 1 1.88-.32A7 7 0 0 1 12.1 5l.02-.24h-1.06l-.84.12-.91.22-.75.23-.88.38c-.16.08-.56.32-.89.56-.33.25-.48.54-.52.65l-.12-.44a2.78 2.78 0 0 1-.1-.93c.04-.37.16-.65.21-.74Z" fill="url(#golrgd433)"/><path d="m5.18 6.24-.33.03-.04-.05.09-.66c.04-.4.26-.6.26-.61 0-.02.08-.1.12-.12.04 0 .13.03.2 0l.19-.1h.06c0-.03.04-.09.11-.13.1-.05.1-.03.15-.08l.35-.3-.3.43c-.02.02-.12.32-.17.46l-.07.45c-.02.15.04.64.07.87l.04.24c-.07-.09-.31-.33-.4-.37a.72.72 0 0 0-.33-.06Z" fill="#B29F98"/><path d="M5.46 8c-.11.1-.28.18-.34.21-.05.01-.13.04-.11.06.02.03.49.08.74.03.2-.03.32-.1.35-.13A.86.86 0 0 1 6 8.06c-.02-.04.01-.08.05-.19.04-.09.02-.3 0-.4-.03 0-.1.04-.15.06-.06.03-.2.05-.24.08-.04.02-.08.26-.21.39Z" fill="#AF998C"/><path d="M4.88 8.18a1 1 0 0 1-.28-.25l-.3-.76-.02-.11c0-.04 0-.27.03-.36.02-.1.14-.27.16-.29.01-.02.16-.13.29-.12.13 0 .27.05.36.1.08.03.21.16.27.22.05.08.15.26.17.35l.03.26c0 .07 0 .26-.02.4s-.1.3-.14.36c-.04.05-.13.16-.18.2a.4.4 0 0 1-.37 0Z" fill="#66505C"/><path d="M4.47 6.71c-.05.12-.08.28-.08.35l.23.88c.02.02.08.07.15.08.08.01.23 0 .3-.01.05-.02.19-.12.25-.22.05-.09.09-.29.1-.37 0-.1 0-.3-.03-.4-.03-.15-.12-.3-.24-.44a.46.46 0 0 0-.4-.13c-.1.02-.21.12-.28.26Z" fill="#80747E"/><path d="M4.84 7.22c-.05-.12-.21-.19-.29-.2.15-.12.25-.07.33-.05.08.02.27.15.27.46 0 .31-.1.4-.24.46-.1.05-.17.03-.2.01.23-.2.2-.53.13-.68Z" fill="#573F4C"/><path d="M4.27 7.35a.65.65 0 0 0 0 .2l.05.14c.04.09.24.23.31.24.07.02.14-.07.18-.12a.81.81 0 0 0 .08-.3.77.77 0 0 0-.12-.36.4.4 0 0 0-.25-.14c-.06 0-.16.1-.18.12a.87.87 0 0 0-.07.22Z" fill="#A8918B"/><path d="M5.24 8.65a4.93 4.93 0 0 1-.3-.39l.72.06c.04.03.11.1.1.12l-.16.53a6.42 6.42 0 0 1-.36-.32Z" fill="#9D7F77"/><path d="m5.72 8.54.14-.05.58.26.13.08c.04.03 0 .26 0 .27 0 .02-.24-.06-.37-.12a3.1 3.1 0 0 1-.48-.44Z" fill="#9E8080"/><path d="M5.71 8.54c-.04.11-.05.45-.05.47l.24.16c.02 0 .4.26.49.25.09 0 .12-.16.16-.25.04-.08-.02-.12-.04-.16a.67.67 0 0 0-.15-.12l-.32-.16-.33-.2Z" fill="#B49992"/><path d="m12.82 8.72-.02-.12-.1.1c-.1.13-.32.38-.34.39-.02 0-.27.19-.4.28-.28.12-1.03.37-1.76.4a8.89 8.89 0 0 1-1.7-.13c-.3-.07-.92-.24-1.05-.3l-.83-.36-.06.06v.1l.16.08c.14.08.56.28 1.06.4.63.16 1.02.26 1.08.26l.92.07c.27 0 1.2-.07 1.4-.1l.61-.22c.16-.1.52-.3.67-.42.15-.12.3-.37.36-.49Z" fill="#715966"/><path d="M12.68 12.31c-.31 0-.5-.24-.5-.28a.89.89 0 0 1 .2-.08c.04 0 .25.1.48.14.2.02.3-.13.34-.2l-.02.12c-.07.1-.25.3-.5.3Z" fill="url(#holrgd433)"/><path d="M13.1 12.17c-.09.1-.24.17-.43.17-.3 0-.45-.18-.49-.28l.06-.02c.03.08.15.25.43.25.17 0 .3-.07.4-.16l.1-.14a.23.23 0 0 0 .02-.12h.05c0 .04 0 .09-.02.14a.52.52 0 0 1-.11.16Z" fill="#4C2624"/><path d="M10.6 14.42a.23.23 0 0 1-.08.13c0 .03.05.07.08.08.03.01.08.02.2.02.13-.01.32-.07.44-.09.12-.01.15-.01.22.02l.4.19c.06.03.18.02.25.02s.22-.14.26-.17c.04-.02.08-.02.2 0l.39.08h.35c.07-.01.07-.1.07-.12 0-.03-.09-.14-.13-.15-.05-.01-.08-.11-.1-.14-.02-.02-.08-.02-.15-.09-.07-.07-.45-.21-.55-.33-.1-.12.02-.14.07-.2.05-.07.2-.3.31-.52.11-.23.01-.14 0-.22-.01-.08-.31-.35-.41-.38-.1-.03-.54.07-.56.08-.02 0-.67.7-.68.71-.01.02-.44.8-.51.9-.07.11-.05.09-.07.18Z" fill="#F2A346"/><path d="M11.47 13.21c-.05.07-.2.37-.28.52.03 0 .08.03.1.08.04.07-.04.1-.13.16l-.22.1c-.02.02.03.01.09.03.06.01-.03.05-.12.1-.08.04-.17.15-.24.15-.07 0-.1 0-.12-.02a1.8 1.8 0 0 0-.24-.01.24.24 0 0 1-.1-.03l.14-.12.46-.27c.05-.1.17-.32.26-.43.1-.14.36-.38.44-.49.08-.11.12-.28.14-.36a.66.66 0 0 1 .1-.18c0-.02.27-.05.4-.04l.5.01.04.15a34.27 34.27 0 0 1 .2.56c.02.06-.07.24-.1.3l-.26.28c-.01.01-.05.02-.09 0-.05-.03-.35.02-.45 0l-.17-.04c-.07-.03-.19-.05-.29-.05-.1 0-.08-.03 0-.14a.86.86 0 0 1 .4-.23c.05 0-.07.17-.23.26-.16.1.13.02.23.02l.31.03c.06 0 .16.07.23 0s.27-.34.28-.5c0-.17-.26-.42-.4-.42-.13 0-.27.07-.44.14-.17.07-.39.36-.44.44Z" fill="#9F542C"/><path d="M12.02 12.45c-.07.04-.32.09-.34.1.02-.05.08-.16.13-.22s.03-.15.02-.19l.39-.08c.02.04.1.13.19.2.12.07.22.07.23.07v.12a.4.4 0 0 1-.1.04c-.09.02-.23-.06-.3-.09-.05-.03-.14 0-.22.05Z" fill="#A4531F"/><path d="M11.22 14.35c0 .06-.14.13-.16.15l-.05.12.28-.06c.08 0 .17 0 .25.04l.24.12a1.96 1.96 0 0 1-.06-.18c-.02-.08.29-.24.34-.24.05 0 .03-.06-.07-.06s-.23.15-.25.17c-.02.03-.04-.04-.04-.11s.1-.17.1-.18l-.34-.05c-.1-.02-.07.11-.08.3-.01.15-.1.13-.13.1 0-.02.04-.07.06-.1.02-.03-.13-.16-.21-.21.04.04.1.14.12.2Z" fill="#AB5323"/><path d="M12.3 14.54c.01-.07-.1-.17-.16-.21.03 0 .1.03.1.04.01.02.04-.03.03-.08a.4.4 0 0 1 0-.15l.15-.03c.03 0 .12.19.19.32.06.1.14.11.18.1 0-.04 0-.14.02-.2.03-.05.1-.06.16-.08.06-.02.09-.06.1-.07.02 0 .04.07.05.1l-.11.03a.2.2 0 0 0-.15.16c-.01.06.05.1.08.1l.07-.1a.42.42 0 0 1 .16-.1l.05.04a2.4 2.4 0 0 1-.1.06c-.04.02-.1.08-.11.13 0 .04.01.07.03.09l-.1-.01a5.05 5.05 0 0 1-.28-.06h-.27l-.11.06.02-.14Z" fill="#B15929"/><path d="m12.64 9.54-.3.6c.04.16 0 .27 0 .3.02.05.95.1 1.03.11l.29.08c.04.01.3.02.3-.02.01-.03-.1-.29-.1-.32l-.17-.25-.24-.23a5.17 5.17 0 0 1-.66-.67l-.04.06-.11.34Z" fill="#F5D985"/><path d="M13.95 11.15c-.01.06-.13.16-.2.2-.12 0-.39-.03-.45-.12-.09-.1-.04-.2.05-.36.09-.15.27-.23.36-.26.1-.03.21 0 .24.03.02.03 0 .42 0 .5Z" fill="#FCC077"/><path d="M13.3 10.13c-.09 0-.15.04-.16.06-.04.05-.14.18-.19.28-.07.13.03.13.1.2.08.07.26.15.37.2.12.04.1 0 .15-.03.06-.03.07-.14.14-.17.08-.03.21-.02.21-.04l-.13-.03c-.08-.01-.05-.1-.03-.17a.19.19 0 0 1 .1-.1c.02 0 0-.04 0-.05a.26.26 0 0 1-.07.03c-.01 0-.08-.1-.16-.13a.9.9 0 0 0-.32-.05Z" fill="#F5B957"/><path d="M11.36 11.04c.02.08.26.2.37.26.14-.04.46-.19.6-.39.14-.2.06-.26 0-.27l-.18-.2.04-.23c-.16.07-.52.25-.64.34-.16.12-.2.4-.19.5Z" fill="#AB8377"/><path d="M7 12.2c.07-.31.8-1.15 1.14-1.53 1.05.08 3.13.22 3.15.2.02 0 .27.11.33.15.06.03.15.28.16.44 0 .15.02.58.05.63.04.05-.01.2-.03.24-.02.03-.17.3-.18.4 0 .1-.07.18-.12.26-.04.08-.35.38-.38.4-.02 0-1.05.9-1.34.96-.3.06-2.56-.52-2.73-.7-.17-.2-.14-1.08-.05-1.46Z" fill="#F4EEE0"/><path d="M10.92 11.95c-.01-.09-.12-.4-.17-.55.02-.06.1-.15.14-.03.05.11.17.55.22.75h.07c.02 0 .04-.04 0-.12-.04-.09.06-.23.12-.3a.33.33 0 0 1-.16-.15c-.03-.09.08-.19.13-.23v-.18l.03-.2.1-.11.04.5.17.44.05.25c0 .01.04.16 0 .2-.04.04-.05-.01-.11-.05s-.23.06-.37.09c-.14.02-.15.03-.18 0a.84.84 0 0 1-.08-.31Z" fill="#836F7A"/><path d="M10.18 11.62c.29.04.45-.2.46-.28-.01-.01-.06-.03-.17-.03-.14 0-.77-.11-1.2-.4-.43-.28-1.64-.27-2.21-.2-.57.06-.11.25-.1.4.02.15.54.4.81.57.28.18.19.33.24.56.05.24-.18.45-.43.68-.25.22.12.34.38.54s1.37.5 1.97.45c.6-.06.46-.16.62-.31.15-.15.5-.66.63-.86.13-.2.1-.16.12-.35.02-.2.22-.09.32-.11.1-.02.05-.11-.04-.15-.08-.04-.28.04-.4 0-.1-.03-.17-.13-.2-.18-.1.07-.33.22-.51.22-.22 0-.88.14-1.2.29-.32.14-.28.01-.46-.07-.17-.08.11-.07.55-.22.45-.16.38-.2.42-.3.05-.1-.1-.12-.25-.12-.14 0-.55.02-.85 0-.29-.02-.04-.1.05-.22.08-.12.29-.02.47 0 .19.03.7.06.98.1Z" fill="#E6DBC5"/><path d="M7.83 11.78c.03.01.12.14.1.22 0 .05-.1.14-.17.22l-.1.1c-.06.08-.1.17-.1.2.01.01-.01.06-.04.1l-.07.16.16.03c.18.03.41.07.51.07l.16-.02c.1-.03.22-.05.4.02.14.06.25.08.34.1.07.02.12.03.14.05.03.02-.04.06-.1.09h-.01.1l-.12.01c-.05.03-.09.05-.05.06l.07.01c.06 0 .12 0 .14.08l.01.03c.15 0 .26 0 .26.02a6.38 6.38 0 0 0-.22.05c.01.04.03.06.08.13l.05.09c.03.05.04.07.2.1h.1c.03 0 .04 0 .06-.02.05-.02.08-.04.13.02l.01.02a2.68 2.68 0 0 1 .25.03c.12-.05.3-.11.3-.08.01.02.06 0 .11 0 .06-.02.14-.03.14 0 .01.05-.43.4-.64.54-.05.08-.1.15-.27.17a3.69 3.69 0 0 0-.4.07H9.2c-.2.03-.4.05-.59.02a1.9 1.9 0 0 0-.28-.01c-.1 0-.18 0-.48-.08-.5-.13-1.52-.91-1.44-1.23.04-.17.33-.28.6-.33a2.3 2.3 0 0 1 .1-.17c.03-.05-.03-.14-.09-.23-.05-.07-.09-.14-.08-.17l.01-.07c.01-.09.02-.2.22-.25l.65-.15Z" fill="#A9866A"/><path d="M9.5 9.98a9.7 9.7 0 0 1-1.78-.28c-.28.18.77.74.98.81.21.08 1.96.28 2.22.3.26.03.65-.14.8-.21.14-.08.25-.22.26-.23.01-.01.27-.26.28-.3l.26-.52.25-.39c.06-.11.1-.37.09-.4 0-.02-.05-.01-.05 0l-.23.34c-.12.1-.38.3-.4.3l-.36.24c-.03.02-.37.16-.64.2-.27.04-.85.17-1.67.14Z" fill="url(#iolrgd433)"/><path d="M10.73 10.17c-.4.05-1.45.05-1.93.04.02.2.1.62.28.8.18.16.76.2 1.02.2l.63-.06c.4-.04.44-.1.56-.12.12-.02.16-.2.22-.24l.57-.5a.84.84 0 0 1-.21.09c-.09.02.12-.24.24-.38l-.2.16a.23.23 0 0 1-.18-.03c-.09-.05.34-.37.56-.52-.2.12-.64.35-.73.37-.11.02-.33.13-.83.2Z" fill="#C5B2A1"/><path d="M6.6 9.12c.18.1.65.35 1.13.48l1.14.28.83.06.83-.02.53-.08.25-.06.54-.19.33-.17.34-.26c-.14.15-.46.46-.67.53l-.6.21c-.27.05-.91.14-1.27.14-.46.01-1.31-.06-1.46-.1l-.82-.18c.27.1.94.31 1.4.37a8 8 0 0 0 1.66 0c.4-.04.57-.1.6-.12.04 0 .52-.12.88-.35a11.26 11.26 0 0 0-.67.42c-.15.05-.87.16-1.13.17l-1.34.04c-.2.01-.06.09.04.12.02.03.09.07.16.09.1.01-.3-.02-.2.08.1.1.23.13.3.16.08.02.37.09.43.13.07.03.24.25.26.28a.1.1 0 0 1 0 .08 8.82 8.82 0 0 0 .56-.07l.45-.05.2-.1c0 .04.02.13-.01.18a.42.42 0 0 1-.17.16c-.07.03-.12.07-.2.09a4.93 4.93 0 0 1-2.29-.21c-.42-.15-.52-.3-.68-.29-.17.02-.08.08-.37 0-.29-.07-.4-.27-.43-.17-.02.1-.07.23 0 .22.07 0 .03-.15.18-.07.14.07.47.18.5.24.04.05.02.15 0 .2h-.25c-.16-.03-.5.07-.66.12-.08.02-.27.05-.34.04-.1 0-.27-.06-.23-.11l.14-.21c.05-.08.06-.19.09-.36.02-.17-.18-.97-.15-1 .02-.05.05.01.15-.03l.27-.14c.01-.01-.01-.1-.03-.14l-.3-.24.03-.11.05-.06Z" fill="#A4846B"/><path d="M6.71 9.71c-.1.07-.23.06-.28.05l-.14-.09-.05-.15.31-.19.3.26c0 .01-.05.06-.14.12Z" fill="#543948"/><path d="M6.83 10.72c.02.3 0 .65-.02.8-.09 0-.3.02-.42 0-.16 0-.1-.15-.08-.21.02-.07.19-.54.24-.76.05-.17-.09-.64-.16-.85.14.22.42.73.44 1.02Z" fill="#8A6761"/><path d="M6.37 9.95a1.4 1.4 0 0 0-.22-.47 11.4 11.4 0 0 0-.77-.06c-.05.02-.5.72-.51.77-.03.06-.3 1.56-.3 1.59.02.02.76.63.98.83.2.19 1.18.13 1.34.13.16 0 .46.05.6.05.14 0 .2-.02.23-.14.03-.12-.18-.13-.24-.14a9.11 9.11 0 0 1-.34-.1c-.05-.02-.08-.1-.1-.14l.56-.19c.02-.01.26-.13.27-.15.02-.03.07-.08.04-.16-.04-.09-.18-.09-.2-.1 0 0-.03-.05-.08-.06-.06 0-.05-.25-.07-.25a6.73 6.73 0 0 0-.85.15c-.1.02-.3.01-.34-.07-.04-.09 0-.13 0-.17 0-.05.18-.21.18-.29 0-.07-.1-.25-.1-.32s-.05-.53-.08-.7Z" fill="#D38D38"/><path d="M6.95 12.55c.03-.06.13-.17.15-.18l.37.14c.1.03-.05.14-.06.19-.02.05-.06.02-.2 0l-.3-.05c-.02 0 0-.05.04-.1Z" fill="#FFCA82"/><path d="M6.9 12.07c.04.07 0 .23-.03.3l.14-.05a.47.47 0 0 0 .16-.12c.03-.05-.04-.14-.09-.21-.05-.08-.02-.09 0-.12s.2-.06.3-.08c.1-.03.19-.07.22-.09.08-.03.24-.11.26-.17.02-.05-.02-.1-.04-.12-.02.07-.14.13-.22.15-.06.02-.07-.11-.07-.18h-.2c-.05 0 0 .24 0 .26 0 .02-.17.06-.28.09-.1.02-.2-.15-.25-.2-.05-.05-.13 0-.16 0a.87.87 0 0 1-.26-.04c-.03-.01 0-.08.03-.16.02-.08.13-.2.16-.27.04-.06-.03-.15-.07-.17-.03-.03-.5.13-.55.15-.05.03-.08.29-.07.37 0 .07.05.19.12.3.07.1.17.66.2.61a2.2 2.2 0 0 0-.08-.65c-.05-.17.1 0 .18.02.08.03.36.01.43.01.08 0 .08.16.1.25.02.08.04.03.07.12Z" fill="#CB7333"/><path d="M5.9 9.45c.1 0 .24.18.3.27.01 0 .05.02.05 0l-.07-.2a1.57 1.57 0 0 0-.34-.32.56.56 0 0 0-.21-.08c-.07-.01-.2.07-.23.08l-.3.25-.5.65-.32.47-.19.43a.5.5 0 0 0 0 .37l.27.44.51.52.37.25c.03.02.19.05.4.13.2.08.7.2.84.19.14-.02.13-.03.22-.08a.88.88 0 0 1 .33-.05c.07 0 .24.03.38.03.11 0 .17-.02.18-.03a.24.24 0 0 0-.06-.05c-.03-.01-.02-.07-.04-.1-.01-.03-.06.07-.11.07s-.16-.05-.21-.07c0 0-.18 0-.28-.02-.1-.02-.04-.02-.05-.09 0-.07.09-.1.2-.16.1-.05 0-.03 0-.06-.02-.02-.1-.02-.13-.02-.02 0-.09.1-.14.15-.06.05-.29.18-.45.2-.16.02-.36-.03-.39-.04-.02 0-.07-.02-.1-.05-.02-.04 0-.06 0-.12 0-.07-.04-.06-.1-.1a4.24 4.24 0 0 1-.18-.11c-.06-.04-.1.06-.1.1 0 .03-.05.07-.1.07-.05.01-.19-.13-.24-.21-.04-.09 0-.2.02-.21.01-.02-.01-.12-.02-.18 0-.06.1-.13.1-.16-.01-.02-.11.1-.13.03a.83.83 0 0 0-.14-.27c-.03-.04-.13-.11-.15-.16-.02-.05 0-.17 0-.26s-.11-.27-.13-.4a.44.44 0 0 1 .07-.3c.06-.1.4-.43.5-.53.11-.1.54-.27.67-.27Z" fill="#9E5329"/><path d="M5.58 9.01c0-.03-.2-.22-.3-.3l-.22.27c-.03.04-.04.15-.04.18l.04.26h.04l.33-.26c.07-.04.15-.1.15-.15Z" fill="#A25424"/><path d="m5.05 9.2.06.22-.06.08-.09-.4c0-.05.04-.11.1-.16.04-.03.15-.16.2-.23l.08.05-.27.3a.2.2 0 0 0-.02.14Z" fill="#CA8969"/><path d="M4.39 11.86a2.2 2.2 0 0 1-.2-.29c-.05.12-.13.37-.12.4 0 .05.11.4.11.4 0 .01.28.3.32.31.04.02.47.07.61.08.11 0 .3-.06.38-.1l-.55-.26-.22-.21-.33-.33Z" fill="#5A3A45"/><path d="m4.35 12.35.2.25-.09.02a1.13 1.13 0 0 1-.28-.16 2.12 2.12 0 0 1-.15-.47l.14-.42.05.07-.02.17c0 .02-.04.2-.03.26 0 .05.12.21.18.28Z" fill="#806E7C"/><path d="m5.43 14.21-.32.57c-.05.05 0 .13.03.14l.17.01c.07 0 .37-.08.5-.12l.03.06.1.07.13.04h.19c.09 0 .5-.15.55-.16.04 0 .1.02.23.07.12.04.38.03.42.04.03 0 .05-.02.13-.06a.53.53 0 0 0 .14-.11l.27.03.21.04c.05 0 .1 0 .14-.03a.13.13 0 0 0 .09-.1l-.03-.1-.16-.07c-.02 0-.03-.09-.05-.1-.02 0-.09-.07-.12-.1-.1-.1-.32-.32-.43-.39-.14-.07-.47-.5-.53-.55a2.7 2.7 0 0 0-.8-.39c-.15.01-.76.49-.78.54-.02.04-.07.58-.11.67Z" fill="#E69C39"/><path d="m5.98 13.69.55-.05a3.4 3.4 0 0 0-.52-.12c-.22-.02-.2-.03-.19-.05.01 0 .22-.17.4-.21.18-.04.35-.06.54-.02.2.05.22.18.26.28.05.1-.07.07-.18.11a1.1 1.1 0 0 0-.17.08c.15 0 .46-.02.53-.06.08-.04-.02-.14-.07-.23-.04-.08-.28-.4-.33-.45-.05-.04-.49.05-.7.04-.23-.02-.7.14-.73.15-.02.01-.08.56-.08.56l.1.46-.05.23.1-.08.36-.35.08-.11-.32.07.15-.1.27-.15Z" fill="#BD6C2A"/><path d="M5.98 13.7c.12-.04.54-.05.55-.05a12 12 0 0 0-.54-.03c-.08 0-.37.11-.53.07-.16-.04-.15-.18-.12-.29.03-.1.24-.2.71-.28.47-.08.66-.02.76 0 .1.02.15.15.2.24l.13.43c.02.05.1.05.18.1a20.35 20.35 0 0 0 .77.48l-.05-.12-.23-.3-.27-.26-.24-.22a1.5 1.5 0 0 1-.16-.2.74.74 0 0 1-.07-.23l-.23-.1-.25-.07c-.01 0-.14.04-.31.05a1 1 0 0 1-.41-.13l-.37-.12-.16.04c-.04.01-.32.05-.47.05a1.5 1.5 0 0 1-.27-.01l-.03.03-.07.28.12.4c.03.09.18.2.27.27l.42.31.09.14c.03.06-.04.19-.07.24 0 0 .03 0 .07-.03l.34-.4.13-.15-.25.07c.08-.06.26-.18.36-.21Z" fill="#9F4E21"/><path d="M6.07 14.7a.24.24 0 0 0 0 .16c.12.03.4.08.5.05.14-.02.26-.31.31-.47.06-.16-.11-.25-.2-.29-.09-.04-.23.1-.33.15a.5.5 0 0 0-.19.2c0 .04-.06.14-.09.2Z" fill="#E79D44"/><path d="M5.44 14.44c-.04.1-.2.2-.27.24l.1-.18.2-.28c.01-.03.17-.22.26-.26.06-.04.4-.1.57-.12-.12.04-.4.12-.51.17-.14.06-.3.3-.35.43Z" fill="#7B3919"/><path d="M5.65 14.69c-.06.1-.19.19-.24.22l.39-.07c.04-.04.13-.12.1-.12-.02 0-.04-.09-.03-.11 0-.02.1-.14.14-.2a4.8 4.8 0 0 1-.04-.17c0-.03-.02-.01-.09.03-.06.04-.16.28-.23.42Z" fill="#A24C29"/><path d="m6.38 14.88-.14.1.28-.06c.14-.03.26-.08.35-.08.1 0 .28.04.4.08s.2-.01.24-.02c.03 0 0-.07 0-.11-.01-.05-.15-.16-.2-.2-.04-.04-.1.06-.15.06-.04 0 .01-.06.03-.09.02-.02.17-.1.24-.1.08.01.19.13.22.22.04.09-.03.17-.02.16.02 0 .08-.07.14-.08l.37.05c.03 0 .02-.04.01-.07v-.15l-.07-.03c0 .02-.04.07-.07.07a.58.58 0 0 1-.22-.1l-.2-.2.03.08c-.1-.1-.33-.2-.43-.23.12.05.36.24.46.33a1.82 1.82 0 0 0-.17-.07c-.05-.01-.2-.04-.23 0-.04.04-.18.1-.2.07-.03-.03-.2-.26-.25-.35-.06-.09-.02.1-.07.28a.67.67 0 0 1-.24.37l-.1.07Z" fill="#B2612A"/><path d="m7.75 14.16.36.24v-.04l-.43-.29-.62-.35c-.1-.04-.32-.07-.4-.06-.08.01-.5.06-.61.09a1 1 0 0 0-.29.14l.55-.08c.12-.01.56-.06.7-.03.14.04.72.37.74.38Z" fill="#863807"/><path d="M4.61 13.11c.02.13.18.44.26.59a1.2 1.2 0 0 1-.26-.24c-.05-.09-.1-.29-.1-.38 0-.08.03-.24.05-.31h.11a.84.84 0 0 0-.06.34Z" fill="#CA855C"/><path d="M4.96 12.75c.15 0 .4-.07.43-.08l.02-.03c-.06.02-.19.05-.24.05H4.8a1.3 1.3 0 0 1-.27-.06c-.05-.02-.2-.08-.25-.17-.04-.1-.15-.26-.17-.3a.4.4 0 0 1-.04-.16l.1-.4-.04-.1-.1.43c-.01.03-.04.14-.03.19 0 .04.11.27.19.39s.28.2.31.2c.03.01.32.05.46.04Z" fill="#352027"/><path d="M5 9.1c-.01.05.03.26.06.36l-.04.05a3.17 3.17 0 0 1-.07-.46c0-.03.2-.28.28-.4l.06.06c-.1.1-.3.33-.3.38Z" fill="#532725"/><path d="M4.17 11.29c.02.08 0 .15-.02.18-.04-.06-.12-.22-.09-.36.04-.17.11-.4.18-.52.06-.11.46-.64.56-.78.07-.12.36-.37.49-.49l-.35.45c-.14.2-.44.66-.56.8-.14.18-.17.36-.2.47-.04.1-.03.14 0 .25Z" fill="#CE9367"/><path fill-rule="evenodd" d="m4.38 11.9-.27-.39a.6.6 0 0 1-.07-.47c.05-.2.17-.44.3-.62l.14-.22.23-.34.26-.34.05-.06.26-.22.25-.2.03-.08.28.23a.78.78 0 0 0-.23-.02c-.08 0-.15.06-.24.12l-.13.1c-.14.09-.42.45-.54.62l-.06.07c-.06.07-.36.53-.48.78s-.07.5.02.65a3.03 3.03 0 0 0 .75.83c.08.07.34.2.53.27s.64.21.75.23c.1.02.35.02.43-.02l.05-.02a.44.44 0 0 1 .3-.07c.2.03.43.05.51.04.09-.01.16-.05.18-.08.02-.03.01-.07-.02-.1-.04-.02-.08-.04-.16-.05a.85.85 0 0 1-.22-.05c-.06-.02-.28-.14-.28-.19 0-.05.01-.09.12-.1.07 0 .21-.06.3-.1l.08-.02.27-.12c.03-.02.14-.09.12-.15 0-.06-.1-.1-.19-.1a.54.54 0 0 0-.18.03c-.01-.02-.03-.04 0-.06h.02c.05-.02.22-.08.25-.11.04-.03.08-.12-.02-.16-.1-.04-.2-.05-.43-.01a6.7 6.7 0 0 0-.4.09l-.23.04c-.13.03-.14.03-.23 0-.09 0-.14-.03-.15-.08-.01-.05.05-.21.12-.29.07-.07.1-.13.06-.18-.04-.05-.12-.04-.18-.02a1.8 1.8 0 0 0-.31.18.3.3 0 0 1-.11.06 1.18 1.18 0 0 1 .15-.23.42.42 0 0 1 .18-.12c.11-.04.24-.13.24-.3 0-.16-.08-.44-.1-.52-.03-.05-.11-.31-.15-.43.05.03.16.1.18.13.01.03.17.47.21.84.04.37-.01.57-.05.6-.04.02-.06.03-.03.06l.03.02c.03.02.04.04.03.05l-.1-.02c.03.02.09.07.08.08 0 .02-.03.02-.04 0-.01-.01-.05-.04-.07-.03-.02 0-.08.05-.07.09.02.04.05.05.1.05h.05l.27-.01.29-.06.32-.07c.17-.03.46-.01.46.1 0 .1-.04.17-.15.23.06 0 .2.02.21.14.02.14-.2.25-.35.3l-.16.06-.34.12c-.02 0 .06.07.15.12.06.03.17.05.25.06l.08.02c.08.01.19.07.19.2 0 .12-.2.14-.33.14l-.13-.01c-.2-.02-.51-.05-.6.06l.35.13c.02.01.06.05.06.13 0 .1.19.35.3.44l.37.32a1.5 1.5 0 0 1 .31.46c.06.03.16.09.16.11v.06l.14.07c.05.03.07.1.07.14 0 .04-.07.1-.18.11-.09.02-.4-.04-.55-.06-.03.06-.13.18-.38.18-.18 0-.29-.04-.38-.07a.52.52 0 0 0-.17-.04.5.5 0 0 0-.17.05c-.1.04-.25.1-.47.1-.28 0-.36-.1-.36-.15a10.29 10.29 0 0 0-.36.07c-.07.02-.13.03-.2.03-.1 0-.17-.01-.17-.1a.29.29 0 0 1 .07-.18c.02-.02.15-.26.18-.36.04-.09.04-.16-.02-.22l-.35-.25-.06-.04c-.03-.03-.44-.34-.44-.72 0-.11.05-.29.08-.36.11.01.36.04.46.03.13-.01.3-.05.4-.1a3.1 3.1 0 0 1-.47-.22c-.1-.07-.4-.38-.55-.53Zm.23.86c.14.03.5.06.86-.04a1.42 1.42 0 0 1 .35.1c.13.05.31.13.46.13.16 0 .32-.04.38-.05l.37.14a.8.8 0 0 0 .18.37 7 7 0 0 0 .54.5c.06.04.2.27.27.37l.17.18c.04.02.04.06.03.08.04 0 .13.03.17.08.05.06.02.12-.03.15-.05.04-.16.05-.23.04a6.42 6.42 0 0 0-.39-.07c-.03 0-.06.02-.1.06-.04.04-.13.11-.3.11-.1 0-.2-.03-.3-.06-.1-.03-.17-.05-.23-.05a.5.5 0 0 0-.17.05 1.1 1.1 0 0 1-.46.12c-.26 0-.34-.1-.34-.16-.18.04-.55.11-.61.1-.07-.01-.16-.04-.09-.14s.27-.48.27-.56c0-.08-.04-.17-.15-.24-.1-.06-.4-.27-.58-.5-.18-.23-.19-.55-.07-.71Z" fill="url(#jolrgd433)"/><path d="M6.3 9.59c0 .02.08.1.11.14l.04.04c-.07-.03-.2-.1-.23-.17a1.94 1.94 0 0 0-.28-.31 112.93 112.93 0 0 1-.7-.6 5.91 5.91 0 0 1-.34-.45h.05l.28.37c.01.01.35.3.4.36l.28.17c.08.05.26.16.36.18.1.02.2-.05.24-.09.12.11.38.34.38.36 0 .02-.04.03-.06.03a1.53 1.53 0 0 1-.06-.05c-.02-.02-.17-.2-.2-.18-.03.02-.27.17-.27.2Z" fill="#381B2F"/><path d="M10.17 10.76c-.14 0-.59-.14-.63-.15-.04 0 .16-.04.38 0l.43.07c.07.01-.04.08-.18.08Z" fill="#F0DED2"/><path d="m10.4 13.97-.57.37c.4-.08.92-.54 1.1-.67.17-.13.23-.34.2-.33-.03 0-.52.5-.72.63Z" fill="#7A5D61"/><path d="M13.2 10.75c-.1-.1-.44-.1-.46-.1a.87.87 0 0 1-.22.02 3.5 3.5 0 0 0-.37-.03c-.05 0-.22.11-.23.11-.02 0-.17.1-.24.14a.37.37 0 0 0-.09.08c0 .02.05.02.13.03.07.01.21.08.25.1.04 0 .07.05.09.07l-.57.16c-.03.01-.1.07-.12.1-.03.02-.06.15-.06.17 0 .03.09.05.12.06.02.02.19 0 .2 0l.01.08-.24.15c-.05.02 0 .07 0 .1s.15.05.28.05c.13 0 .25 0 .44-.08.2-.08.5.03.65.08.15.04.26-.06.34-.08.08-.03.26-.21.27-.22l.19-.2.2-.25a.42.42 0 0 0 .06-.22c0-.06-.12.14-.19.14-.06 0-.16-.14-.2-.22-.03-.08-.13-.14-.23-.24Z" fill="#EFA345"/><path d="M12.88 10.68c-.14-.03-.2 0-.21.02l-.05.02-.26-.09a.45.45 0 0 0-.1-.12c-.05-.02-.07-.11-.07-.19a4.35 4.35 0 0 1 .58-1.15l-.15.53c-.01.09-.17.36-.23.41-.07.05.02.1.06.17.03.07.1-.06.18-.13.08-.07 0-.1 0-.12l.12-.13c.02.03.08.08.13.08.04 0 .1-.07.12-.1.02.02.06.08.05.11 0 .01-.02.03-.06.05a.94.94 0 0 1 .4-.05c.06.01-.02.05-.08.07-.05.02-.32.13-.36.17-.03.03.03.05.1-.01.08-.07.2-.09.18-.06 0 .02-.11.08-.14.15-.02.07-.04.14 0 .15.02 0 .01.02-.02.07s.09.11.15.14c.05.04.18.13.3.17.17.04.04.04-.02.06-.05.03-.15-.03-.23-.06-.09-.04-.2-.13-.39-.16Z" fill="#CA7531"/><path d="M11.74 11c-.07.01-.12-.04-.15-.05-.05.06.07.08.12.09.05 0 .23.07.29.08.05.01.14.03.32-.01.18-.05.1-.05.16-.13.05-.09-.06-.06-.08-.04-.02.02-.06-.02-.03-.09.03-.06-.05-.08-.05-.07 0 .02-.05.12-.1.16-.04.03 0-.05 0-.11a.36.36 0 0 0-.06-.16v.11c0 .04 0 .17-.02.18-.03.02-.04-.01-.07-.06a.68.68 0 0 0-.15-.15l-.05.03-.01.14c-.01.02-.05.06-.12.08Z" fill="#9F4D15"/><path d="M11.53 11.5c.03.09-.05.14-.1.15-.03.05.04.04.26.04.21 0 .35-.06.62-.13.26-.07.3-.06.4-.1.11-.04.04-.11-.04-.15a.74.74 0 0 0-.33-.07c-.14 0 0 .06-.03.12-.02.07-.1.07-.14.06-.04 0-.05-.14-.12-.16-.06-.02.03.11 0 .16s-.13.07-.18.02c-.04-.05-.08-.1-.15-.1-.07 0 .06.09.02.18-.04.1-.13.07-.14.04-.02-.03 0-.16.04-.22.04-.07 0-.05-.02-.05a.68.68 0 0 0-.15.06.64.64 0 0 0-.09.08c.04-.01.12 0 .15.08Z" fill="#9E4913"/><path d="M11.55 12c-.06.04-.13-.07-.12-.08-.02.03-.01.09.1.13.15.06.2.06.24.06.05 0 .41-.1.57-.13.15-.03.22.04.4.05.2 0 .08-.04.17-.09.07-.04.07-.06.06-.06 0-.03-.02-.09-.05-.1-.04 0-.16-.03-.31-.1-.15-.06-.07-.01-.16.02-.09.04-.16.03-.22.06-.06.02-.08.03-.21.01-.13-.02 0 .06-.08.1-.08.04-.08-.05-.12-.07-.04-.01-.04.08-.07.12-.03.04-.05.03-.09.01-.03-.02-.05-.07-.04-.05 0 .03-.01.09-.07.12Z" fill="#A14F1D"/><path d="M11.29 11.54c-.02.17.2.2.32.18-.13.05-.24.13-.26.24-.01.11.33.14.36.14.03 0 .15-.07.21-.1l-.3.03c-.04.01-.18-.05-.2-.1-.02-.05.16-.14.2-.16.05-.02.87-.23.93-.26.06-.03 0-.03-.01-.03l-.22.03-.67.14a.62.62 0 0 1-.28-.06c-.02-.02 0-.09 0-.13.01-.04.2-.14.28-.15l.6-.17c.03 0 .06-.05.05-.06 0-.02-.17.02-.2.02a1.3 1.3 0 0 1-.28-.1c-.05-.03-.15-.01-.2-.04-.04-.02.04-.04.08-.07.03-.03.23-.12.29-.14.06-.03.1-.08.24-.08.15 0 .49.14.55.18.06.04.15.18.2.25.04.08.04.18.1.18.06 0-.02-.25-.1-.36a1.21 1.21 0 0 0-.32-.23h.2c.1 0 .37.12.5.18a6.49 6.49 0 0 1-.23-.18.57.57 0 0 0-.34-.08l-.28.04a.92.92 0 0 0-.38-.04c-.15.04-.11.03-.18.08-.07.06-.23.14-.3.19-.08.05-.08.1-.07.13 0 .03 0 .04.14.05.11 0 .23.06.27.08l-.38.12c-.08.02-.3.07-.32.28Z" fill="#623D2D"/><path d="M13.99 11.14c-.02.04-.1.1-.11.1l-.03.02c.02-.03.06-.1.1-.12.03-.04 0-.36-.01-.49s-.08-.3-.1-.35c-.04-.05-.08-.16-.14-.22l-.33-.32s-.25-.22-.28-.27l-.32-.35.02-.03.31.33.38.36c.04.03.29.29.35.37.06.08.12.27.15.34.03.08.02.3.02.36l-.01.27Z" fill="#713B2F"/><path d="M10.43 14.34h-.3a.5.5 0 0 1 .25-.06c.12 0 .23.06.28.09a.35.35 0 0 1-.1.15c-.08.05.07.1.15.1.09.02.23-.01.35-.04.13-.03.24-.06.32-.06.05 0 .12.04.15.06.13.06.4.18.52.18.14 0 .27-.18.39-.18s.3.06.38.07l.36.02c.14 0 .18-.08.18-.1 0-.01-.05-.08-.08-.1a.33.33 0 0 1-.11-.1l-.1-.16a.87.87 0 0 0-.25-.2c-.02 0-.27-.14-.31-.18-.05-.04-.06-.12-.04-.12.02 0 .03-.02.1-.1.08-.1.28-.34.28-.44 0-.1-.05-.25-.09-.31l-.13-.33a.68.68 0 0 1 0-.21h.07v.21c.01.1.12.3.19.48a.41.41 0 0 1-.07.38l-.24.32c-.03.03-.03.06-.03.07l.54.36c.06.05.1.13.1.16.02 0 .06 0 .16.06.1.05.1.13.1.16-.05-.08-.17-.14-.23-.15a3.53 3.53 0 0 0 .23.2c.01.03 0 .04-.03.08a.23.23 0 0 1-.16.07h-.39c-.18 0-.3-.08-.43-.08-.14 0-.21.17-.4.17-.17 0-.28-.07-.37-.1-.09-.04-.24-.14-.3-.14-.05 0-.22.04-.29.06-.07.01-.19.05-.33.05-.15 0-.24-.03-.25-.1-.01-.08.04-.1.08-.16.04-.05-.02-.06-.15-.08Z" fill="#4C1512"/><path d="M10.67 14.52h.12c.1 0 .1-.1.07-.12a.24.24 0 0 0-.09-.01c-.02 0-.1.12-.1.13Z" fill="#F2CA8D"/><path d="M5.95 8.7 5.9 9l.28.13.1-.28-.33-.16Z" fill="#826F73"/><path d="M6.36 8.83c.02.02.01.05 0 .06l-.45-.23c-.01 0 0-.06.03-.06l.42.23Z" fill="#E8D9DC"/><path d="M5.55 8.71a.35.35 0 0 0 0 .23l.12.07c-.01-.1.03-.35.05-.46l.14-.06-.07-.03h-.1c-.01 0-.1.1-.14.25Z" fill="#715459"/><path d="M5.24 8.38c-.2-.03-.28-.1-.3-.14l.71.03c.25 0 .28-.05.46-.17.18-.12.18-.31.24-.68.06-.36.18-.46.32-.69.11-.18.44-.4.59-.5-.08.07-.28.23-.4.36-.16.15-.34.47-.37.57-.04.1-.1.36-.1.62s-.21.4-.28.48c-.05.06-.21.09-.28.1l-.03.11-.1-.02a.65.65 0 0 1-.09-.05c-.06-.04-.13.02-.37-.02Z" fill="#4D313D"/><path d="M5.81 4.27c-.35.28-.63.6-.75.85-.18.41-.22.92-.22 1.12H4.8c0-.2.03-.72.22-1.14.12-.26.4-.59.77-.87.36-.28.8-.51 1.21-.58L7 3.7c-.4.07-.83.3-1.19.57Z" fill="#432F38"/><path d="M6 8.05c.02-.08.04-.27.04-.42 0-.2-.06-.6-.1-.77a6.06 6.06 0 0 1-.16-1.16c0-.42.17-.96.28-1.14.11-.18.3-.37.33-.4l.53-.48-.36.36c-.04.04-.35.37-.45.54-.1.17-.25.66-.28 1.02-.02.37.07.8.1.93 0 .1.1.6.16.83.04-.16.17-.53.38-.8a5 5 0 0 1 1.66-1.08 11.1 11.1 0 0 1 3.24-.76c1 0 1.46.08 1.76.28l.14.12.03.03-.03-.03c-.16-.13-.67-.34-1.67-.34-1.35 0-2.76.45-3.47.75-.72.3-1.41.77-1.66 1.11-.2.28-.32.7-.36.87 0 .15-.03.47-.1.54Z" fill="#492F38"/><path d="M5.67 4.67v-.31l.07-.07-.01.33c0 .1.03.2.04.26l.08.33-.02.04c0-.05-.03-.14-.04-.16 0-.02-.12-.3-.12-.42Z" fill="#432F38"/><path d="M9.44 3.08a4.4 4.4 0 0 0-2.45.65l-.06-.06A4.5 4.5 0 0 1 9.44 3c1.63 0 3 1 3.82 2.05.16.13.45.5.45 1.1 0 .6-.25 1.1-.38 1.29l-.07-.05c.12-.17.36-.65.36-1.24 0-.58-.28-.93-.42-1.04a4.93 4.93 0 0 0-3.76-2.03Z" fill="#3F3242"/><path d="M12.7 6.78c-.38 0-.63-.35-.71-.52l.59-.24c.15-.07.41-.14.46-.12.04 0 .05.19.05.28.02.2-.03.6-.4.6Z" fill="#8B421F"/><path d="M12.82 5.46c.19.11.3.28.3.5 0 .3-.03.54-.04.63 0 .03 0 .07.02.11l.04.11c.06.07.2.24.2.5s-.04.42-.17.67l-.34.66-.07-.03.34-.66c.13-.24.17-.4.17-.64 0-.23-.13-.4-.18-.46a.37.37 0 0 1-.06-.13.98.98 0 0 1-.03-.13c.02-.08.05-.32.05-.64 0-.19-.1-.33-.27-.43-.17-.1-.42-.14-.7-.13v-.07c.29-.01.55.04.74.14Z" fill="#2B1E28"/><path d="M12.05 6.29c0 .04.04.16.05.18-.15-.12-.17-.45-.17-.71 0-.21.1-.38.15-.43l.3.05c.18.02.57.19.65.32.06.1.06.26.05.33-.05 0-.15 0-.2.03-.03.02-.05.1-.05.14-.03.08-.14.24-.33.24a.87.87 0 0 1-.45-.15Z" fill="url(#kolrgd433)"/><path d="M12.2 5.57a.68.68 0 0 1-.15.16.6.6 0 0 0 .16.12c.13.06.3 0 .46.03.16.01.2-.14.2-.24 0-.1-.09-.13-.14-.16a1.57 1.57 0 0 0-.43-.05c-.08.01-.07.07-.1.14Z" fill="#4C3B43"/><path d="M7 6.8c0-.23.06-.4.08-.46.25-.2.8-.6 1.04-.62.31-.03.68.18.82.36.13.18.24.4.24.53 0 .12 0 .27-.08.4-.09.12-.4.27-.48.32-.09.05-.32.17-.7.17-.3 0-.5-.08-.58-.12-.11-.1-.33-.36-.33-.59Z" fill="url(#lolrgd433)"/><path d="M8.09 6.05c-.1.03-.23.14-.29.2-.06.05.17.07.43.1.27.02.32-.05.48-.1.16-.07 0-.2-.16-.26-.16-.07-.35.03-.46.06Z" fill="#513F3F"/><path d="M7.38 6.96a.53.53 0 0 0-.14.08c.02.11.2.34.72.34.64 0 .81-.57.8-.57h-.3c-.05.1-.2.2-.45.2a.64.64 0 0 1-.38-.12l-.25.07Z" fill="#843A1D"/><path d="M8.97 6.66c0 .28-.18.5-.27.58.13-.05.4-.23.4-.54a.76.76 0 0 0-.24-.57c.04.06.11.24.11.53Z" fill="#BDB7B7"/><path d="M9.35 8.36c-.16.06-.3.22-.36.29.28-.1.47-.3.69-.33.22-.04.5-.11.75-.18.25-.06.5-.17.63-.2.13-.01.6-.1.78-.14.17-.03.5.01.67.03.18.02.16.02.18 0 .02-.01.01-.1-.02-.13s-.08.02-.13.07c-.06.06-.33-.02-.47-.05-.14-.03-.36-.13-.46-.13-.1 0-.62.3-.8.38-.17.1-.66.2-.85.24-.2.04-.42.07-.61.15Z" fill="#361B22"/><defs><linearGradient id="aolrgd433" x1="9.15" y1="8.27" x2="11.55" y2="5.71" gradientUnits="userSpaceOnUse"><stop stop-color="#F8C05F"/><stop offset="1" stop-color="#FECC66"/></linearGradient><linearGradient id="bolrgd433" x1="8.69" y1="9.08" x2="9.99" y2="8.51" gradientUnits="userSpaceOnUse"><stop stop-color="#C3752A"/><stop offset=".41" stop-color="#E1A149"/></linearGradient><linearGradient id="colrgd433" x1="9.16" y1="5.58" x2="9.16" y2="7.68" gradientUnits="userSpaceOnUse"><stop stop-color="#BF7940"/><stop offset=".57" stop-color="#E9AE54"/></linearGradient><linearGradient id="dolrgd433" x1="7.16" y1="7.42" x2="6.44" y2="8.8" gradientUnits="userSpaceOnUse"><stop offset=".39" stop-color="#843B22"/><stop offset="1" stop-color="#BB6228"/></linearGradient><linearGradient id="eolrgd433" x1="6.88" y1="6.96" x2="7.15" y2="7.45" gradientUnits="userSpaceOnUse"><stop stop-color="#7F706B"/><stop offset=".36" stop-color="#B5BAB6"/></linearGradient><linearGradient id="folrgd433" x1="8.29" y1="3.52" x2="9.6" y2="4.27" gradientUnits="userSpaceOnUse"><stop stop-color="#E8CDAC"/><stop offset="1" stop-color="#fff"/></linearGradient><linearGradient id="golrgd433" x1="6.51" y1="7.33" x2="9.74" y2="4.48" gradientUnits="userSpaceOnUse"><stop stop-color="#7A6F80"/><stop offset="1" stop-color="#80757D"/></linearGradient><linearGradient id="holrgd433" x1="12.49" y1="12.18" x2="13.16" y2="12.22" gradientUnits="userSpaceOnUse"><stop stop-color="#A9847C"/><stop offset="1" stop-color="#F4DDE0"/></linearGradient><linearGradient id="iolrgd433" x1="11.2" y1="9.78" x2="11.62" y2="10.44" gradientUnits="userSpaceOnUse"><stop stop-color="#F0E8DD"/><stop offset="1" stop-color="#E5D3CF"/></linearGradient><linearGradient id="jolrgd433" x1="4.36" y1="12.2" x2="7.04" y2="11.72" gradientUnits="userSpaceOnUse"><stop stop-color="#6C372A"/><stop offset="1" stop-color="#3D1921"/></linearGradient><linearGradient id="kolrgd433" x1="12.31" y1="6.09" x2="12.48" y2="6.47" gradientUnits="userSpaceOnUse"><stop stop-color="#271B25"/><stop offset="1" stop-color="#4B1912"/></linearGradient><linearGradient id="lolrgd433" x1="7.9" y1="6.03" x2="8.07" y2="7.5" gradientUnits="userSpaceOnUse"><stop offset=".41" stop-color="#281322"/><stop offset=".58" stop-color="#3C1D1A"/></linearGradient></defs></svg>