<!-- by TradingView --><svg width="18" height="18" viewBox="0 0 18 18" xmlns="http://www.w3.org/2000/svg"><path fill="url(#awv5gh22r)" d="M0 0h18v18H0z"/><path d="M9.94 13.63c-.12.17-.24.37-.5.37-.24 0-.44-.2-.56-.38l-4.6-7.36c-.12-.2-.24-.4-.28-.65-.03-.37.2-.61.63-.61h3.16c.43 0 .74.17.98.55.5.88.86 1.63 1.52 2.45 1.56 1.53 3.09 0 3.71-.61l-4.06 6.24Z" fill="#30FFE0"/><defs><linearGradient id="awv5gh22r" x1="3.35" y1="3.12" x2="21.9" y2="24.43" gradientUnits="userSpaceOnUse"><stop stop-color="#1A1E21"/><stop offset="1" stop-color="#06060A"/></linearGradient></defs></svg>