<!-- by TradingView --><svg width="18" height="18" fill="none" xmlns="http://www.w3.org/2000/svg"><path fill="#F0F3FA" d="M0 0h18v18H0z"/><path fill-rule="evenodd" clip-rule="evenodd" d="M11.85 7l.595.004c.067-.006.136-.005.204 0l1.454.009a.436.436 0 01.397.445.46.46 0 01-.104.294l-.708 1.299a1.14 1.14 0 01-.017.032l-1.751 3.222a1.296 1.296 0 01-1.106.695H10.76l-5.182-.028H5v-.011c.439-.065.808-.36.995-.768h.004l2.539-4.69A.86.86 0 019.308 7h-.024 2.565z" fill="#2BBDF7"/><path fill-rule="evenodd" clip-rule="evenodd" d="M7.784 5.004h4.58a.434.434 0 01.32.676l-1.236 2.192-1.313 2.33h.011l-.42.745c-.688.627-.489 1.425.108 1.805l.038.022c.168.1.349.156.53.174v.031H8.571l-.001.002H4.816a1.323 1.323 0 01-.63-.173 1.379 1.379 0 01-.52-1.852l2.849-5.254a1.327 1.327 0 011.27-.698z" fill="#2B6DEF"/><path fill-rule="evenodd" clip-rule="evenodd" d="M9.415 7L12 7.004l-.374.675-1.346 2.428h.011l-.43.775c-.363.653-.16 1.485.453 1.88l.038.024c.172.103.357.162.543.18v.033H8.677V13H5a1.36 1.36 0 001.02-.662l.026-.045 2.719-4.936A.875.875 0 019.425 7h-.01z" fill="#003CB2"/></svg>