<!-- by TradingView --><svg width="18" height="18" viewBox="0 0 18 18" xmlns="http://www.w3.org/2000/svg"><path fill="url(#awcmjys40)" d="M0 0h18v18H0z"/><path d="M7 4.5C5.17 5.22 4 6.97 4 9a4.75 4.75 0 0 0 3 4.5v-.62A4.11 4.11 0 0 1 4.62 9c0-1.72.87-3.2 2.38-3.89v-.6ZM11 12.88A4.11 4.11 0 0 0 13.38 9c0-1.72-.87-3.2-2.38-3.89V4.5c1.83.72 3 2.47 3 4.5a4.75 4.75 0 0 1-3 4.5v-.62Z" fill="#fff"/><path d="M7.18 8 9 4.92 10.86 8H12v.46H6V8h1.18Zm.69 0h2.22L9 6.1 7.87 8ZM7.17 10 9 13.1l1.87-3.1H12v-.45H6V10h1.17Zm.68 0h2.25L9 11.93 7.85 10Z" fill="#fff"/><defs><linearGradient id="awcmjys40" x1="3.35" y1="3.12" x2="21.9" y2="24.43" gradientUnits="userSpaceOnUse"><stop stop-color="#1A1E21"/><stop offset="1" stop-color="#06060A"/></linearGradient></defs></svg>