<!-- by TradingView --><svg width="18" height="18" viewBox="0 0 18 18" xmlns="http://www.w3.org/2000/svg"><path fill="#216C58" d="M0 0h18v18H0z"/><path d="M11.26 5H6.74c-.13 0-.24.18-.24.4v.2c0 .22.1.4.24.4h4.52c.13 0 .24-.18.24-.4v-.2c0-.22-.1-.4-.24-.4Z" fill="#fff"/><path opacity=".7" d="M10 5v8.74c0 .14-.36.26-.8.26h-.4c-.44 0-.8-.12-.8-.26V5h2Z" fill="#fff"/><path d="M8.5 7.5c.17-.07.37-.1.62-.1.37 0 .64.07.84.2.14.1.23.2.28.35.05.14.18.28.36.28h1.07c.2 0 .36-.16.34-.37a1.8 1.8 0 0 0-.37-.86 2.37 2.37 0 0 0-1.01-.74A3.95 3.95 0 0 0 9.13 6c-.56 0-1.06.09-1.5.26-.44.17-.8.42-1.06.74s-.39.7-.38 1.12c0 .52.19.95.58 1.26.39.3.9.52 1.54.66l.81.18c.37.08 1.18.2 1.18.71 0 .57-.78.7-1.2.7-.51 0-1.17-.14-1.32-.7-.04-.15-.18-.3-.36-.3H6.34c-.19 0-.36.16-.33.37.04.4.17.73.4 1.02.26.34.63.6 1.09.77.46.17 1 .25 1.61.25.62 0 1.15-.08 1.6-.25.45-.17.8-.41 1.04-.73.25-.32.37-.7.38-1.12a1.7 1.7 0 0 0-.68-1.38 2.9 2.9 0 0 0-.74-.42c-.62-.24-2.16-.24-2.61-.87a.38.38 0 0 1-.06-.24c0-.12.03-.22.1-.31a.8.8 0 0 1 .37-.23Z" fill="#fff"/><path d="M14.83 9.35c-.1 0-.17.07-.18.16a5.68 5.68 0 0 1-11.3 0c0-.1-.09-.16-.18-.16-.1 0-.18.08-.17.18a6.01 6.01 0 0 0 12 0c0-.1-.07-.18-.17-.18Zm-11.66-.7c.1 0 .17-.07.18-.16A5.64 5.64 0 0 1 9 3.38a5.64 5.64 0 0 1 5.65 5.11c0 .1.09.16.18.16.1 0 .18-.08.17-.18a6.01 6.01 0 0 0-12 0c0 .1.07.18.17.18Z" fill="#fff"/></svg>