<!-- by TradingView --><svg width="18" height="18" viewBox="0 0 18 18" xmlns="http://www.w3.org/2000/svg"><path fill="url(#a)" d="M0 0h18v18H0z"/><path fill-rule="evenodd" d="M10.89 6.2c-.2-.39-.46-.68-.78-.89a2.04 2.04 0 0 0-2.07-.06c-.43.23-.76.55-.98.97-.27.48-.33.97-.2 1.47a2.65 2.65 0 0 0 2.6 1.91l.02.02v.04c-.2.44-.45.87-.75 1.3-.01.02-.03.02-.04 0l-.24-.37v-.01l-.04-.05a8.7 8.7 0 0 0-1.33-1.57A7.9 7.9 0 0 0 3.83 7.1a6.98 6.98 0 0 0-.74-.12c-.07.03-.1.08-.09.14 0 .07.04.11.1.15a10.04 10.04 0 0 1 4.5 4.75l.05.08a31.6 31.6 0 0 1 .1.24c.06.14.11.24.16.3.11.16.27.27.47.32.36.1.67.01.92-.25.33-.36.66-.8 1-1.33.39-.63.68-1.31.88-2.05 0-.02.01-.04.04-.05a7.72 7.72 0 0 0 2.53-1.61c.01-.05 0-.1-.02-.14-.03-.05-.07-.07-.12-.06a.23.23 0 0 0-.1.03 8 8 0 0 1-2.18.92 4.76 4.76 0 0 0-.44-2.22ZM9.42 8.6l.39.05h.01l.01-.02c.1-.4.13-.8.08-1.22-.07-.39-.18-.69-.35-.9a.71.71 0 0 0-.67-.27.97.97 0 0 0-.64.35.88.88 0 0 0-.17.92c.1.3.28.55.52.74.22.18.5.3.82.35Z" fill="url(#b)"/><path d="M14.25 6.84a.53.53 0 0 1 .2-.12.56.56 0 0 1 .25-.03c.19.03.29.14.3.34 0 .12-.03.23-.1.33a.5.5 0 0 1-.28.2.3.3 0 0 1-.25-.03.38.38 0 0 1-.16-.22.9.9 0 0 1-.05-.25c0-.1.03-.17.1-.22Z" fill="url(#c)"/><defs><linearGradient id="a" x1="1.36" y1="4.89" x2="15.22" y2="16.01" gradientUnits="userSpaceOnUse"><stop stop-color="#CEF4EE"/><stop offset="1" stop-color="#EBFDD9"/></linearGradient><linearGradient id="b" x1="3.74" y1="7.19" x2="10.27" y2="12.55" gradientUnits="userSpaceOnUse"><stop stop-color="#379D9F"/><stop offset="1" stop-color="#328F8F"/></linearGradient><linearGradient id="c" x1="3.74" y1="7.19" x2="10.27" y2="12.55" gradientUnits="userSpaceOnUse"><stop stop-color="#379D9F"/><stop offset="1" stop-color="#328F8F"/></linearGradient></defs></svg>