<!-- by TradingView --><svg width="18" height="18" viewBox="0 0 18 18" xmlns="http://www.w3.org/2000/svg"><path fill="url(#a)" d="M0 0h18v18H0z"/><path d="M9 15a6 6 0 0 0 5.84-7.38c-.06-.07-.14-.13-.21-.13-.12 0-.22.15-.26.23l-2.09 3.39c-.34.55-.97.89-1.65.89H9.37V8.52l-1.48 2.6c-.35.55-.97.88-1.65.88H5V6h2.5v4.26L9.54 6h2.09v4.35l2.41-3.78c.05-.09.18-.38.12-.57l.06.04A6 6 0 1 0 9 15Z" fill="#fff"/><defs><linearGradient id="a" x1="3.35" y1="3.12" x2="21.9" y2="24.43" gradientUnits="userSpaceOnUse"><stop stop-color="#1A1E21"/><stop offset="1" stop-color="#06060A"/></linearGradient></defs></svg>