<!-- by TradingView --><svg width="18" height="18" viewBox="0 0 18 18" xmlns="http://www.w3.org/2000/svg"><path fill="url(#aqa1h1fj4)" d="M0 0h18v18H0z"/><path d="M13.12 13.36a5.98 5.98 0 0 1-8.19.05l.5-.5a5.27 5.27 0 0 0 7.2-.05l.5.5Zm.44-.46a5.98 5.98 0 0 0-.15-7.96l-.5.5a5.27 5.27 0 0 1 .15 6.96l.5.5ZM5.6 4.94a5.27 5.27 0 0 1 6.86.05l.5-.5a5.98 5.98 0 0 0-7.86-.05l.5.5Zm-.46.44-.5-.5a5.98 5.98 0 0 0-.15 8.08l.5-.5a5.27 5.27 0 0 1 .15-7.08Z" fill="#fff"/><path d="M9 7.95 6.53 9C7.35 7.73 9 5.18 9 5.12v2.83Z" fill="#868686"/><path d="M9 7.95 11.47 9C10.64 7.73 9 5.18 9 5.12v2.83Z" fill="#312706"/><path d="M9 10.41 6.53 9 9 7.94v2.47Z" fill="#363636"/><path d="M9 10.41 11.47 9 9 7.94v2.47Z" fill="#130F03"/><path d="m9 10.92-2.47-1.4L9 12.89v-1.96Z" fill="#868686"/><path d="m9 10.92 2.47-1.4L9 12.89v-1.96Z" fill="#312807"/><defs><linearGradient id="aqa1h1fj4" x1="0" y1="9" x2="18" y2="9" gradientUnits="userSpaceOnUse"><stop stop-color="#F8D33A"/><stop offset="1" stop-color="#F0BA0C"/></linearGradient></defs></svg>