<!-- by TradingView --><svg width="18" height="18" viewBox="0 0 18 18" xmlns="http://www.w3.org/2000/svg"><path fill="#AB987D" d="M0 0h18v18H0z"/><path d="M11.7 4.5c.06.12.16.26.31.42.14.14.15.36.27.52.1.14.21.23.17.45v.08c.04.13.1.26.1.4-.01.22.31.43.5.53.15.08.24.2.28.38 0 .02.02.04.04.06.15.1.25.2.3.27a8.8 8.8 0 0 0 .33.6 40.3 40.3 0 0 0 0 .5l-.03.03c-.03 0-.05 0-.06-.03l-.02-.06a.56.56 0 0 0-.26-.52c-.03-.02-.03-.04-.02-.07.13-.23-.34-.5-.5-.56h-.03l-.06.01c-.03.02-.05.01-.05-.02s0-.05.02-.07a.07.07 0 0 0 .03-.06c0-.02 0-.03-.02-.04a.08.08 0 0 0-.05-.01.31.31 0 0 1-.25-.1.17.17 0 0 0-.07-.03c-.14-.05-.28-.1-.4-.18a.12.12 0 0 1-.06-.07.17.17 0 0 1-.01-.07c0-.03 0-.05-.03-.07L12 6.7a.6.6 0 0 0-.52.05.06.06 0 0 1-.07 0l-.3-.17a.86.86 0 0 0-.35-.08c-.11 0-.23-.02-.36-.05a.24.24 0 0 0-.23-.03c-.18.06-.25.08-.45.02a1.76 1.76 0 0 0-.69-.03c-.04-.02-.07 0-.1.03a.21.21 0 0 1-.12.1.62.62 0 0 1-.25.01c-.08 0-.1-.04-.02-.09a.5.5 0 0 1 .19-.08.05.05 0 0 0 .04-.03.05.05 0 0 0-.02-.06.14.14 0 0 0-.09-.02c-.12 0-.24.15-.38.18a.16.16 0 0 0-.07.04l-.17.16-.34.07a.15.15 0 0 0-.07.03c-.07.05-.08.1-.17.14-.1.06-.19.06-.26 0a.07.07 0 0 0-.08-.01c-.7.73-.6.79-1.36.79a.06.06 0 0 1-.08-.01l-.03-.03a.06.06 0 0 0-.07-.02.08.08 0 0 0-.04.04.05.05 0 0 0 0 .05.05.05 0 0 0 .05.02c.06 0 .1.01.13.06.01.03 0 .05-.01.07a.2.2 0 0 1-.1.06c-.05.18-.3.23-.56.41a.1.1 0 0 0-.02.08c.02.15-.06.23-.24.23h-.04c-.03 0-.04 0-.03-.03.26-.45.6-.84.9-1.26.23-.35.9-.73 1.38-.8a.13.13 0 0 1 .06-.05l.32-.2a.15.15 0 0 1 .11-.01l.18.03a.05.05 0 0 0 .05 0 .05.05 0 0 0 0-.05c-.02-.1.01-.16.1-.2.07-.01.1-.1.03-.12l-.1-.06a.08.08 0 0 1-.05-.07c0-.02 0-.04.02-.05a.1.1 0 0 1 .09-.02c.07.02.12 0 .15-.08.01-.03 0-.05-.01-.08-.02-.02-.06-.04-.1-.03-.1 0-.12-.04-.08-.12.03-.05.08-.06.15-.03a.04.04 0 0 0 .05 0A.12.12 0 0 0 8 5.28c0-.02-.01-.02-.03-.02h-.02a.05.05 0 0 1-.03-.06l.01-.14c0-.02.02-.03.04-.05.12-.08.25-.14.4-.2a.1.1 0 0 1 .06.01.1.1 0 0 1 .05.04c.03.05.04.1.04.15a.12.12 0 0 1-.05.1.12.12 0 0 1-.12.01.22.22 0 0 1-.1-.06.06.06 0 0 0-.06-.02.15.15 0 0 0-.1.1c-.01.03 0 .04.04.04.1-.02.2 0 .3.04.1.04.1.1.03.16a.2.2 0 0 1-.16.05.27.27 0 0 0-.25.1c-.03.03-.02.04.02.04.06 0 .12-.02.18-.05a.13.13 0 0 1 .16.04l.03.05a.3.3 0 0 1-.06.23.1.1 0 0 0-.02.07c0 .02.43.06.45.05a.2.2 0 0 1 .08-.05c.08-.02.13-.06.15-.12.03-.08 0-.11-.09-.1a.96.96 0 0 0-.12.05c-.13.05-.23-.01-.28-.17a.07.07 0 0 1 .04-.1c.06-.02.1-.01.1.04.02.06.05.07.1.03l.16-.12a.2.2 0 0 0 .08-.05c.02-.02.02-.04 0-.05-.04-.02-.08-.02-.1 0a.65.65 0 0 1-.18.05c-.1-.05-.13-.1-.1-.17 0-.03.02-.05.05-.04l.07.01.07-.01c.14-.08.28-.2.45-.11.14.08.3.05.4.17a.07.07 0 0 0 .04.03.07.07 0 0 0 .05-.02l.17-.17a.17.17 0 0 1 .18-.04c.12.05.25.08.4.07.04 0 .04-.01.01-.03a.43.43 0 0 0-.38-.1.1.1 0 0 1-.09-.01.19.19 0 0 0-.09-.03c-.03 0-.05 0-.08.02-.1.06-.2.08-.32.05a.15.15 0 0 1-.1-.08c-.03-.08-.02-.14.03-.18h.06l.05.08a.05.05 0 0 0 .04.03.05.05 0 0 0 .05-.01c.08-.1.17-.17.27-.23a.06.06 0 0 1 .08 0 12.15 12.15 0 0 0 .2.17l.02-.02a.03.03 0 0 0 .01-.03v-.01l-.01-.01-.2-.15a.1.1 0 0 0-.1-.01l-.22.08h-.08a.35.35 0 0 1-.17-.15.04.04 0 0 0-.04-.02.04.04 0 0 0-.03.02l-.08.15c-.1.04-.19.05-.26.02a.11.11 0 0 1-.07-.08.11.11 0 0 1 .03-.1c.05-.05.12-.1.2-.14a.11.11 0 0 1 .1 0 .1.1 0 0 0 .12-.01.09.09 0 0 1 .11 0c.08.07.17.09.26.06.01 0 .02 0 .02-.02v-.04a.67.67 0 0 1-.35-.14c-.05-.04-.1-.04-.14 0a.1.1 0 0 1-.08.03c-.1 0-.2.03-.3.1-.07.05-.1.03-.1-.07.01-.05.05-.1.12-.15l.2-.15c.03-.03.03-.05-.02-.05s-.1.01-.14.03a.09.09 0 0 1-.07 0 .14.14 0 0 1-.09-.08.06.06 0 0 0-.04-.04.33.33 0 0 0-.28.05c-.04.04-.05.07 0 .11.1.11.04.27-.13.27-.02 0-.05 0-.06.02a1.3 1.3 0 0 1-.23.18c-.05.03-.07.02-.06-.04 0-.06.02-.1.04-.16l.04-.05.23-.23c.03-.02.02-.04-.02-.04-.1 0-.18.1-.25.1-.04 0-.08-.03-.11-.07-.06-.04-.07-.08-.05-.13a.07.07 0 0 1 .08-.04c.1.01.2-.02.3-.09a.2.2 0 0 1 .13-.04c.09 0 .17-.01.24-.05.04-.03.04-.04 0-.04a.63.63 0 0 0-.48.12.07.07 0 0 1-.09 0l-.08-.04a.13.13 0 0 0-.1-.02.25.25 0 0 0-.14.09c-.03.03-.03.06 0 .09.07.05.1.12.09.21l-.04.1c-.01.04-.03.05-.06.02a.11.11 0 0 0-.12-.04c-.2.06-.17.27-.45.22-.03 0-.06 0-.09.02a.4.4 0 0 0-.14.15c-.02.03-.01.05.02.06h.1c.03 0 .04.02.04.05a.33.33 0 0 1-.07.14c-.01.02-.03.02-.06.01a.2.2 0 0 0-.1-.01.06.06 0 0 0-.05.04c-.04.1-.1.22-.2.28l-.23.15c-.08.05-.07.08.02.08h.14a.09.09 0 0 0 .07-.03c.08-.12.2-.22.35-.3.02-.01.04 0 .06.04a.06.06 0 0 1-.01.07c-.16.15-.32.28-.5.39-.13.08-.21.19-.33.28a.13.13 0 0 1-.08.02.19.19 0 0 0-.17.11c-.01.02 0 .04.02.05h.03a.1.1 0 0 0 .05-.03c.08-.07.17-.12.28-.1.18.02.2-.2.31-.3a.05.05 0 0 1 .06 0 .06.06 0 0 1 .03.04c0 .1.02.18.05.26.01.04 0 .07-.03.1a1.4 1.4 0 0 0-.35.44h-.04l-.02-.02v-.03l.11-.33c.03-.08 0-.1-.07-.07a.35.35 0 0 0-.22.29c0 .03-.02.05-.03.07L6 6.5c-.03.04-.05.03-.06-.01-.03-.11.07-.25.13-.35.03-.03.03-.06.01-.1-.02-.03-.04-.03-.07 0-.2.16-.27.32-.2.48v.09c-.07.15-.1.3-.1.45-.04.06-.08.1-.13.11-.03 0-.04 0-.04-.03.01-.28.04-.53.1-.76.05-.25.13-.54.24-.86.02-.04.05-.07.11-.08.04 0 .07-.02.1-.04.06-.06.1-.13.11-.2 0-.04-.01-.06-.05-.06h-.08c-.04 0-.05-.02-.04-.06a.8.8 0 0 1 .17-.23.1.1 0 0 1 .06-.03.5.5 0 0 0 .36-.2c.13-.15.3-.12.38-.36.02-.04 0-.07-.05-.06-.16.02-.24.1-.26.22a.1.1 0 0 1-.05.07l-.42.27c-.03.01-.05 0-.06-.02V4.7l.3-.27c.17-.13.19-.32.42-.38.15-.05.3-.13.44-.23.12-.09.16-.22.18-.35.02-.18.19-.3.35-.34.21-.06.42-.1.63-.12.2-.03.36.02.48.15.04.05.1.09.15.11.13.07.25.15.36.25.02.01.04.02.06 0 .33-.23.53-.11.83.01l.33.13c.29.1.5.24.61.41.14.2.28.34.4.43Z" fill="#F3C3A7"/><path d="M10.09 3.84c-.04-.08-.1-.13-.22-.14-.1 0-.15.04-.15.14v.04l-.04.02a.45.45 0 0 1-.18.02c-.03 0-.04-.03-.03-.06.04-.08.1-.12.2-.14.02 0 .04-.02.05-.04.13-.17.31-.06.44.02s.27.1.41.11a.2.2 0 0 1 .1.06.8.8 0 0 0 .26.17c.19.07.27.25.42.38.02.02.02.03-.01.04l-.04.01a.1.1 0 0 1-.08-.01c-.07-.05-.13-.05-.2 0a.04.04 0 0 1-.04 0 .1.1 0 0 1-.06-.07c0-.04 0-.05.04-.04h.05c.03-.03.03-.05.01-.08a.21.21 0 0 0-.22-.09.07.07 0 0 0-.05.04c-.03.05-.06.05-.11.02a3.57 3.57 0 0 0-.11-.07.1.1 0 0 0-.09-.01.35.35 0 0 1-.19 0c-.03 0-.04 0-.02.03a4.33 4.33 0 0 0 .52.33c.04.06.1.1.15.13.23.13.47.32.72.56.18.19.29.4.46.6v.02l-.02.02a.03.03 0 0 1-.04 0c-.12-.1-.22-.22-.31-.36-.12-.18-.3-.37-.5-.46-.18-.09-.33-.2-.46-.35a.77.77 0 0 0-.45-.21.2.2 0 0 1-.16-.16.5.5 0 0 0-.25-.36c-.03-.02-.04-.04-.03-.07l.02-.01h.02a3.47 3.47 0 0 1 .17.02.03.03 0 0 0 .02-.03v-.02Z" fill="#AD725C"/><path d="M9.37 4.62c.23.68.18.49-.52.54a.11.11 0 0 1-.07.01l-.07-.01c-.03 0-.05 0-.06.04-.02.06.02.12.11.17.16-.02.23-.01.2.05l-.17.12c-.04.04-.07.03-.09-.03-.01-.05-.04-.06-.1-.03a.07.07 0 0 0-.04.09c.05.16.15.22.28.17a.95.95 0 0 1 .12-.04c.1-.02.12 0 .09.1-.03.05-.07.1-.15.11a.2.2 0 0 0-.08.05.57.57 0 0 1-.3.16l-.1-.01c-.02 0-.03-.01-.03-.03v-.03l-.02-.14c0-.03 0-.05.02-.07a.3.3 0 0 0 .06-.23.12.12 0 0 0-.07-.09.13.13 0 0 0-.12 0 .54.54 0 0 1-.18.05c-.04 0-.05-.01-.02-.04.07-.08.15-.1.25-.1a.2.2 0 0 0 .16-.05c.07-.07.06-.12-.02-.16a.54.54 0 0 0-.31-.04c-.04 0-.05-.01-.04-.05a.15.15 0 0 1 .1-.09.06.06 0 0 1 .07.02c.02.03.05.05.1.06a.13.13 0 0 0 .14-.06l.02-.05c0-.05-.01-.1-.04-.15a.1.1 0 0 0-.05-.04.1.1 0 0 0-.06 0 1.5 1.5 0 0 0-.4.2.08.08 0 0 0-.04.04.4.4 0 0 0-.01.14c0 .03.01.04.03.05h.02c.02 0 .02.01.03.03 0 .05 0 .09-.04.12a.04.04 0 0 1-.05 0c-.07-.03-.12-.02-.15.03-.04.08-.01.12.07.12.05 0 .09 0 .1.03.03.03.03.05.02.08-.03.07-.08.1-.15.08a.1.1 0 0 0-.09.02.05.05 0 0 0-.02.05c0 .03.02.06.05.07l.1.06c.03 0 .04.03.04.06s-.03.06-.06.07c-.1.03-.13.1-.1.19a.05.05 0 0 1-.01.04.05.05 0 0 1-.05.01l-.18-.03c-.04-.01-.07 0-.1.01l-.33.2a.13.13 0 0 0-.06.05c-.1.21-.31.2-.51.22a.1.1 0 0 0-.07.04l-.27.31c-.06 0-.13 0-.22.03a.32.32 0 0 1-.13.03c-.07 0-.1-.04-.1-.11 0-.15.04-.3.1-.45a.11.11 0 0 0 0-.09c-.06-.16.01-.32.21-.49.03-.02.05-.02.07.01.02.04.02.07 0 .1-.07.1-.17.24-.14.35.01.04.03.05.06 0l.22-.28a.15.15 0 0 0 .03-.07.35.35 0 0 1 .22-.29c.08-.04.1-.01.07.07l-.12.33.01.03.02.02h.04c.1-.19.21-.33.35-.45a.08.08 0 0 0 .03-.09.9.9 0 0 1-.05-.26.05.05 0 0 0-.03-.05.06.06 0 0 0-.06.02c-.1.1-.13.31-.31.29-.11-.02-.2.03-.28.1a.1.1 0 0 1-.08.03c-.03-.01-.04-.03-.02-.05.03-.07.1-.1.17-.1l.08-.03c.12-.1.2-.2.33-.28A2.97 2.97 0 0 0 7.13 5v-.04c-.02-.04-.04-.05-.06-.04-.15.08-.27.18-.36.3a.08.08 0 0 1-.06.03H6.5c-.1 0-.1-.03-.02-.08l.24-.15c.1-.06.15-.18.19-.28 0-.03.02-.04.05-.04a.2.2 0 0 1 .1.01c.03.01.05 0 .06-.01a.33.33 0 0 0 .07-.14c0-.03 0-.04-.04-.04l-.1-.01c-.03 0-.04-.03-.03-.06a.4.4 0 0 1 .15-.15.12.12 0 0 1 .1-.02c.27.05.25-.16.44-.22.05-.01.09 0 .12.04.03.03.05.02.06-.01l.04-.1c.02-.06.05-.08.1-.07.03.04.07.06.1.07.08 0 .15-.1.26-.1.04 0 .05.02.02.04l-.23.23a.17.17 0 0 0-.04.05.79.79 0 0 0-.04.16c-.01.06.01.07.06.04.08-.05.16-.11.23-.18a.09.09 0 0 1 .06-.02c.17 0 .23-.16.12-.27-.04-.04-.03-.07.01-.1.1-.07.19-.09.28-.06.02 0 .04.02.04.04.02.04.05.07.09.09h.07c.05-.03.1-.04.14-.04.05 0 .05.02.02.05l-.2.15c-.07.05-.1.1-.11.15-.02.1.02.12.1.06.09-.06.19-.1.3-.09a.1.1 0 0 0 .07-.03c.04-.04.09-.04.14 0 .1.08.22.13.34.14.02 0 .02.01.02.02v.02l-.03.02c-.1.03-.18 0-.26-.06a.09.09 0 0 0-.1 0 .1.1 0 0 1-.13 0 .11.11 0 0 0-.1 0l-.2.15a.11.11 0 0 0-.03.1.11.11 0 0 0 .07.08c.07.03.16.02.26-.02Z" fill="#72493D"/><path d="m9.3 5.05.01-.07c.09-.1.08-.18-.03-.24-.02-.02-.02-.04-.01-.06l.03-.01a.1.1 0 0 0 .07-.05l.08-.15a.04.04 0 0 1 .03-.02.04.04 0 0 1 .03.02c.05.07.1.12.17.14h.09l.22-.07a.1.1 0 0 1 .1.01l.2.15a.03.03 0 0 1 0 .05l-.03.02h-.01a11.7 11.7 0 0 1-.19-.16.06.06 0 0 0-.07-.01c-.1.06-.2.13-.28.23a.05.05 0 0 1-.04.01.05.05 0 0 1-.04-.03.27.27 0 0 0-.05-.07c-.02-.02-.04-.02-.06 0-.06.03-.07.09-.03.17a.14.14 0 0 0 .1.08c.11.03.22 0 .32-.05a.14.14 0 0 1 .08-.02c.03 0 .06 0 .1.03a.1.1 0 0 0 .08 0c.13-.02.26 0 .38.1.03.03.03.04-.01.04-.15 0-.28-.02-.4-.07a.17.17 0 0 0-.19.04l-.16.17a.07.07 0 0 1-.05.02.07.07 0 0 1-.05-.03c-.1-.12-.25-.09-.39-.17ZM10.88 6.08h.1c.05 0 .05.01.01.03-.14.08-.52-.02-.69-.08-.05-.01-.07-.05-.06-.1a1.13 1.13 0 0 0-.09-.55.08.08 0 0 0-.09-.02l-.3.13a.1.1 0 0 1-.07 0l-.15-.05a.07.07 0 0 0-.06.01.06.06 0 0 0-.03.05c0 .08.05.12.14.12.04 0 .08-.01.11-.03a.07.07 0 0 1 .07 0 .07.07 0 0 1 .03.07c0 .02 0 .05-.02.07-.03.04-.06.04-.1 0-.02-.02-.05-.03-.07-.02-.12.02-.15.1-.08.21.03.05.01.07-.04.07h-.08a.07.07 0 0 1-.05-.01.06.06 0 0 1-.02-.05l.03-.42c0-.03 0-.06-.03-.08l-.07-.06c-.03-.03-.03-.05 0-.07a.4.4 0 0 1 .21-.03c.03 0 .05 0 .07.03.24.2.36-.06.6.03l.08-.01c.18-.11.38.1.58.11.04 0 .04.02.02.05-.08.1-.24.03-.34-.04-.06-.05-.1-.03-.13.07l.01.1.08.06.33.1h.05l.1-.05a.05.05 0 0 1 .05.01l.01.02a.02.02 0 0 1 .01.02v.01h-.01c-.1.08-.21.13-.34.08a.34.34 0 0 0-.23-.01h-.01a.04.04 0 0 0 0 .06c.07.1.28.13.4.17h.07Z" fill="#5F3D32"/><path d="M9.03 6.4c-.05.03-.08.1-.08.21 0 .03 0 .05-.03.06a.42.42 0 0 0-.1.09.2.2 0 0 1-.06.05l-.06.02a.07.07 0 0 0-.04.06.1.1 0 0 1-.03.07c-.1.1-.22.13-.35.1H8.2a.51.51 0 0 1-.27.03c-.08-.01-.08-.04-.01-.07.08-.04.16-.1.25-.12l.31-.06c.04 0 .04-.01 0-.03a.53.53 0 0 1-.16-.1.17.17 0 0 0-.1-.05l-.18-.01.17-.16a.16.16 0 0 1 .07-.04c.11-.03.21-.08.3-.15a.11.11 0 0 1 .08-.03c.03 0 .06 0 .09.02a.05.05 0 0 1 .02.06l-.02.02-.02.01a.5.5 0 0 0-.19.08c-.07.05-.06.08.02.1.09 0 .17 0 .25-.02a.21.21 0 0 0 .12-.1c.03-.04.06-.05.1-.03Z" fill="#72493D"/><path d="M9.03 6.4c.24-.03.47-.01.7.04.2.06.26.04.44-.02a.24.24 0 0 1 .23.03c.1.09.23.13.38.11a.1.1 0 0 1 .07.02c.05.03.08.08.1.14 0 .03-.02.04-.04.05h-.1c-.03.02-.03.01-.01 0a.65.65 0 0 0-.42-.06.1.1 0 0 0-.06.03l-.16.16a.08.08 0 0 0-.01.08.08.08 0 0 0 .06.05c.1.01.18.03.27.08.1.05.22.06.35.04.03 0 .05 0 .07.03l.16.18a.1.1 0 0 0 .05.03l.08.03c.03 0 .05.02.07.05l.08.1c.03.05.06.09.1.1a.6.6 0 0 0 .17.05.04.04 0 0 0 .02-.01v-.02c0-.06 0-.1-.05-.14a.08.08 0 0 1-.03-.06v-.08c0-.03.02-.05.05-.05h.4a.06.06 0 0 0 .05-.02.05.05 0 0 0 0-.05.48.48 0 0 0-.18-.2.22.22 0 0 1-.12-.07l-.16-.07a.08.08 0 0 1-.04-.06c0-.03 0-.05.03-.08a.07.07 0 0 1 .06 0l.29.06c.03 0 .04 0 .04-.04a.1.1 0 0 0-.06-.08h-.01v-.02a.01.01 0 0 1 .01 0c.04 0 .07 0 .09-.03l.13.1c.02 0 .03.03.03.06v.07l.06.07c.13.07.27.13.4.18.03 0 .06.02.08.04.07.07.15.1.25.09l.05.01.02.04c0 .02 0 .04-.03.06a.08.08 0 0 0-.02.07c0 .03.02.04.05.02a.12.12 0 0 1 .06-.01.1.1 0 0 1 .03 0c.16.06.63.33.5.56-.01.03 0 .05.02.07.18.12.27.3.26.52l-.04.07a.07.07 0 0 0 .01.07c.05.07.05.14 0 .2l-.4.47c-.28.02-.53-.13-.75-.42a.07.07 0 0 0-.06-.03.34.34 0 0 0-.26.09 8.86 8.86 0 0 1-.24.12l.32-.25a.19.19 0 0 1 .23 0l.12.1c.09.07.14.05.15-.05l-.01-.05c-.1-.2-.23-.35-.37-.46a.12.12 0 0 0-.07-.03c-.05 0-.07-.02-.08-.07a.2.2 0 0 0-.02-.07.46.46 0 0 0-.16-.18 1.96 1.96 0 0 0-.22-.1 1.05 1.05 0 0 1-.2-.1.82.82 0 0 0-.3-.13 1.18 1.18 0 0 1-.39-.16.71.71 0 0 0-.35-.11 4.75 4.75 0 0 1-.96-.15.55.55 0 0 0-.41.06 3.7 3.7 0 0 0-.76.07c-.1.01-.16.08-.26.1a.59.59 0 0 0-.2.08c-.1.06-.22.11-.34.14l-.25.1c-.19.09-.33.12-.48.28a.17.17 0 0 1-.07.04c-.14.05-.28.12-.41.21a.54.54 0 0 0-.16.18.67.67 0 0 1-.36.31.24.24 0 0 0-.16.24c0 .04 0 .08-.02.11-.02.04-.05.06-.1.06-.04 0-.06-.02-.07-.06a.05.05 0 0 0-.03-.04h-.03c-.02 0-.04 0-.05.03-.03.1-.02.2.01.3.04.1.02.16-.08.19-.04 0-.05.03-.05.07l.03.19c0 .02 0 .04-.03.05a.23.23 0 0 0-.06.09c-.02.03 0 .04.02.05l.22.01c.04 0 .08 0 .1-.03a.3.3 0 0 0 .06-.1c.04.07.03.1-.03.12 0 .04-.05.05-.13.05a.1.1 0 0 0-.1-.02c-.1.02-.19 0-.26-.06-.14-.15-.33-.14-.44-.38a11.9 11.9 0 0 1-.27-.64.1.1 0 0 1 .04-.07.1.1 0 0 1 .04-.02c.03 0 .05 0 .07.02.02.02.04.02.06 0l.2-.2a.02.02 0 0 0-.02-.04h-.03c0-.01 0 0 0 0-.07.08-.13.13-.2.13-.05 0-.07-.02-.08-.06a.49.49 0 0 1 .04-.34c.18 0 .26-.08.24-.23 0-.03 0-.06.02-.08a.7.7 0 0 1 .27-.23c.1-.03.2-.08.29-.18a.2.2 0 0 0 .1-.06c.02-.02.02-.04.01-.07-.02-.05-.07-.07-.13-.06a.05.05 0 0 1-.05-.02.05.05 0 0 1 0-.05.08.08 0 0 1 .04-.04c.03-.01.06 0 .08.02l.02.03a.06.06 0 0 0 .08 0l.3-.17c.11.03.2.03.28 0a.41.41 0 0 0 .2-.1c.02-.02.02-.04 0-.08-.01-.04 0-.07.03-.08l.55-.35a.07.07 0 0 1 .08 0c.07.07.16.07.26.01.1-.04.1-.09.17-.14a.15.15 0 0 1 .07-.03l.34-.07.18.01c.04 0 .07.02.1.05l.17.1c.03.02.03.03 0 .03l-.32.06c-.1.02-.17.08-.25.12-.07.03-.07.06.01.07.1.02.18 0 .27-.03a.13.13 0 0 1 .08 0c.13.03.25 0 .35-.1a.1.1 0 0 0 .04-.07l.03-.06.06-.02a.2.2 0 0 0 .06-.05.42.42 0 0 1 .1-.09.06.06 0 0 0 .03-.06c0-.11.03-.18.08-.2Z" fill="#5F3D32"/><path d="M10.4 6.45c.12.03.24.04.36.05.15.01.26.04.34.08l.3.17h.07A.6.6 0 0 1 12 6.7c-.02.02-.04.03-.08.02l-.01.01v.01a.1.1 0 0 1 .07.09c0 .1-.29-.02-.33-.03a.07.07 0 0 0-.06.01c.66.44.69.61.05.88a.03.03 0 0 1-.02.03h-.02a.6.6 0 0 1-.14-.04.26.26 0 0 1-.11-.1c-.04-.06-.08-.14-.15-.16l-.08-.03a.1.1 0 0 1-.05-.03l-.16-.18a.07.07 0 0 0-.07-.03.56.56 0 0 1-.36-.04.74.74 0 0 0-.26-.08.08.08 0 0 1-.07-.05v-.04l.03-.27c.15-.16 1.03.14.68-.09a.1.1 0 0 0-.08-.02.49.49 0 0 1-.37-.1Z" fill="#72493D"/><path d="m12.82 9.08-.32-.47c-.05-.07-.16-.11-.32-.14a6.4 6.4 0 0 1-.23-.13 12.49 12.49 0 0 0-.76-.27 6.15 6.15 0 0 1-.53-.26.14.14 0 0 0-.08-.02c-.16.01-.3 0-.44-.02a.17.17 0 0 0-.17.05.11.11 0 0 1-.04.03c-.15.04-.22.14-.23.3 0 .1-.07.18-.15.26a.13.13 0 0 1-.15.01.13.13 0 0 1-.04-.03.19.19 0 0 0-.1-.07.34.34 0 0 1-.1-.04l-.1-.07a.16.16 0 0 1-.07-.06l-.13-.24a.09.09 0 0 0-.06-.05.76.76 0 0 0-.34-.02c-.22.04-.44.13-.65.27-.13.1-.27.18-.41.25a1.58 1.58 0 0 0-.44.4.05.05 0 0 0 .02.04h.16a.2.2 0 0 1 .08 0 1 1 0 0 0 .58 0c.2-.06.37.03.5.25a.7.7 0 0 0-.6-.19l-.24.03a2.27 2.27 0 0 0-.28.04.08.08 0 0 0-.03.1l.09.2c-.12-.2-.33-.12-.51-.1-.03 0-.05 0-.08-.02a.25.25 0 0 0-.28 0 .87.87 0 0 0-.3.36l-.14.25c-.04.06-.04.17-.02.33a.24.24 0 0 0-.01.1.3.3 0 0 1-.06.1c-.03.01-.06.03-.1.02l-.22-.01c-.03 0-.04-.02-.03-.05a.23.23 0 0 1 .07-.09.06.06 0 0 0 .03-.05l-.03-.2c0-.03.01-.05.05-.06.1-.03.12-.1.08-.2a.44.44 0 0 1 0-.3c0-.02.02-.03.04-.02h.03c.02 0 .03.02.03.04 0 .04.03.06.07.06.04 0 .08-.02.1-.06a.23.23 0 0 0 .02-.11.24.24 0 0 1 .16-.24.67.67 0 0 0 .35-.3c.05-.08.1-.14.17-.19.13-.09.26-.16.4-.2.04-.01.06-.03.08-.05.15-.16.3-.19.48-.28l.25-.1c.12-.03.23-.08.34-.14a.59.59 0 0 1 .2-.08c.1-.02.15-.09.25-.1a3.7 3.7 0 0 1 .76-.07c.14-.08.28-.1.42-.06.32.08.64.13.96.15.13 0 .24.04.35.1.13.09.26.14.4.17.1.02.2.06.3.12.06.05.12.08.2.1l.2.1c.08.05.12.12.17.19a.2.2 0 0 1 .02.07c0 .05.03.07.08.07.02 0 .05.01.07.03.14.1.26.26.37.46v.05c0 .1-.05.12-.14.06Z" fill="#321B0D"/><path d="m12.82 9.08-.12-.1a.19.19 0 0 0-.23-.01l-.33.24c-.27-.04-.47 0-.61.14a.53.53 0 0 1 .08-.15c.2-.16.17-.25-.08-.28l-.18-.05c-.13-.05-.3-.06-.5-.02a.35.35 0 0 0-.22.13c-.43.53.28.64.63.62-.19.07-.39.08-.6.03-.08-.02-.15-.08-.21-.19a.17.17 0 0 0-.06-.06.12.12 0 0 1-.05-.08.13.13 0 0 0-.05-.08l-.33-.28a.18.18 0 0 0-.28.06c-.05.12-.12.2-.23.23-.14.03-.3-.03-.45-.03a.1.1 0 0 0-.06.02 1 1 0 0 0-.28.32l-.01.04c0 .04-.02.06-.06.08a.15.15 0 0 0-.07.05l-.67.82a.1.1 0 0 1-.15.02 1.5 1.5 0 0 0-.58-.33.38.38 0 0 1-.18-.11l-.14-.17a5.47 5.47 0 0 0-.06-.36c-.02-.1-.1-.18-.18-.25a.1.1 0 0 0-.07-.03.28.28 0 0 0-.17.05c-.01.02-.02.03-.01.05 0 .03 0 .06-.03.1-.1.1-.21.18-.34.26l-.02.3c-.03-.17-.02-.28.01-.34.06-.08.1-.16.14-.25a.82.82 0 0 1 .3-.35c.09-.07.19-.07.29-.01l.07.02c.18-.02.4-.1.5.1.22.35.58.44.97.42a.1.1 0 0 0 .07-.03l.2-.2c.1-.16.05-.29-.17-.37-.13-.22-.3-.3-.5-.25a1 1 0 0 1-.58 0 .2.2 0 0 0-.08 0H7a.05.05 0 0 1-.04-.02.05.05 0 0 1 0-.05c.13-.15.26-.27.43-.37.14-.07.28-.16.42-.25.2-.14.42-.23.64-.27.1-.02.22-.01.34.02.03 0 .05.02.06.05l.14.24.05.06.12.07.09.04c.04.01.08.03.1.07a.13.13 0 0 0 .1.05.13.13 0 0 0 .1-.03c.07-.08.14-.15.15-.27 0-.15.07-.25.22-.3.02 0 .03 0 .05-.02.04-.05.1-.07.16-.05.14.03.28.03.44.02.03 0 .06 0 .08.02a6.21 6.21 0 0 0 .53.27 12.49 12.49 0 0 1 .76.26 6.4 6.4 0 0 0 .23.13c.17.03.27.07.32.14.1.15.22.3.32.47Z" fill="#533D22"/><path d="m11.53 9.35-.27.25c-.35.02-1.06-.09-.63-.62a.35.35 0 0 1 .22-.13c.2-.04.36-.03.5.02l.18.05c.25.03.28.12.08.28a.53.53 0 0 0-.08.15ZM8.3 9.05c.22.08.28.21.16.38l-.19.19a.1.1 0 0 1-.07.03c-.4.02-.75-.07-.96-.42l-.09-.2a.08.08 0 0 1 .07-.11l.24-.03.24-.03a.7.7 0 0 1 .6.19Z" fill="#0B0908"/><path d="m11.26 9.6.27-.25c.13-.14.34-.18.61-.14a9.4 9.4 0 0 0 .24-.11c.08-.07.17-.1.27-.09l.06.03c.22.3.47.44.75.42l-.1.06a.39.39 0 0 1-.2.02.09.09 0 0 0-.07.02c-.1.08-.1.17-.01.3a.07.07 0 0 1 0 .08.08.08 0 0 1-.08.03c-.1-.02-.14-.09-.14-.2 0-.13-.03-.22-.1-.27-.1-.19-.26-.17-.43-.15v-.01a.5.5 0 0 0 .1-.03c.02 0 .02 0 0-.01l-.1.02a.23.23 0 0 0-.08.04l-.25.17a.12.12 0 0 0-.05.06l-.1.23-.07.11a.32.32 0 0 1-.32.2c-.03 0-.05-.01-.07-.03a.29.29 0 0 0-.14-.03c-.02 0-.03-.01-.05-.03a.44.44 0 0 0-.24-.1.1.1 0 0 0-.07.03.17.17 0 0 1-.09.04c-.03 0-.05-.01-.06-.04a.14.14 0 0 0-.07-.07.16.16 0 0 1-.09-.07.59.59 0 0 0-.2-.24.22.22 0 0 0-.25.01.7.7 0 0 1-.55.17c-.02 0-.04 0-.05.02l-.04.02a.9.9 0 0 1-.31-.03c-.12-.04-.25-.03-.37-.03-.03 0-.04 0-.06.03a.5.5 0 0 1-.16.13.68.68 0 0 0-.27.27c-.06.1-.13.19-.2.27a2.8 2.8 0 0 0-.26.3l-.08.4h-.03a.1.1 0 0 0-.06.05l-.03.04c-.03.05-.04.04-.04 0a.5.5 0 0 0 0-.2.08.08 0 0 0-.04-.05c-.1-.06-.14-.15-.15-.25l-.01-.06a1.22 1.22 0 0 0-.5-.42.03.03 0 0 1 0-.02l.01-.01h.03c.03.02.04.01 0-.01a1.23 1.23 0 0 0-.18-.16.28.28 0 0 1-.12-.24c0-.1 0-.2-.03-.29a.14.14 0 0 0-.11-.1.14.14 0 0 0-.14.05l-.15.19a.11.11 0 0 1-.08.04.2.2 0 0 1-.05 0c-.03 0-.06 0-.07.04-.01.04-.04.04-.1 0 .13-.07.24-.16.34-.26.03-.03.04-.06.03-.09 0-.02 0-.03.02-.05.05-.03.1-.05.17-.05a.1.1 0 0 1 .07.03c.07.07.16.15.17.25a5.47 5.47 0 0 1 .07.36l.14.17c.05.05.1.09.18.1.2.07.4.18.57.34a.1.1 0 0 0 .13.01.1.1 0 0 0 .03-.03l.67-.82a.15.15 0 0 1 .07-.05c.04-.02.05-.04.05-.08l.01-.04a1 1 0 0 1 .3-.32A.1.1 0 0 1 9 9.2c.15 0 .3.06.45.03.1-.03.18-.1.23-.23a.17.17 0 0 1 .12-.1.18.18 0 0 1 .15.04l.34.28c.02.02.04.04.04.08 0 .03.03.06.06.08l.06.06c.05.1.13.17.21.2.2.04.4.03.6-.04Z" fill="#765B35"/><path d="m12.76 9.5-.03.01c-.02.01-.04 0-.05-.02h-.02c-.01-.01-.02 0 0 .01l.08.17v.08c0 .06 0 .1.03.15l.01.08v.23c0 .06 0 .13-.03.2a2.64 2.64 0 0 0-.11.37c0-.11.03-.26.06-.43a.43.43 0 0 0-.1-.4.15.15 0 0 1-.05-.08.75.75 0 0 0-.1-.24.08.08 0 0 0-.1-.03.08.08 0 0 0-.02.01.33.33 0 0 0-.1.2.1.1 0 0 1-.04.08.57.57 0 0 0-.14.18.36.36 0 0 1-.2.18.76.76 0 0 0-.15.08c-.1.06-.21.1-.32.13a.12.12 0 0 0-.07.06.85.85 0 0 0-.1.25c0 .06.01.11.07.15a.05.05 0 0 1 0 .07.19.19 0 0 0-.03.08c0 .02-.01.03-.03.04a.06.06 0 0 1-.04.01h-.1c-.03 0-.04-.01-.02-.04a.16.16 0 0 0 .03-.07c.01-.04 0-.07-.02-.1-.13-.2-.24-.4-.33-.64-.05-.12-.13-.18-.25-.18-.02 0-.04 0-.05.02l-.14.13a.1.1 0 0 1-.07.02 19.62 19.62 0 0 0-.53-.02 3.13 3.13 0 0 0-.44-.05.53.53 0 0 0-.21.05 1.6 1.6 0 0 1-.21.08h-.05a.05.05 0 0 0-.07 0 .24.24 0 0 1-.2.06c-.03 0-.05 0-.05.03v.02c.01.05 0 .07-.05.06-.05 0-.09 0-.13.04-.16.11-.28.26-.36.44a.09.09 0 0 0 .04.12.1.1 0 0 0 .05.01h.09c.02 0 .05 0 .07.02.1.04.16.02.2-.09a5.29 5.29 0 0 1 .2-.48.09.09 0 0 1 .1 0c.06.04.12.05.18.04l.71-.06c.08 0 .16 0 .24.04l.23.06c.11.03.2-.02.27-.1s.11-.07.1.04v.3c-.23-.2-.53-.28-.9-.26-.03 0-.04.01-.06.03l-.02.01a.05.05 0 0 1-.05.02 2.1 2.1 0 0 0-.5-.02l-.2-.01a.1.1 0 0 0-.1.05c-.06.1-.11.22-.16.33a.48.48 0 0 1-.13.19 3 3 0 0 1-.25.2c-.06.04-.12.05-.16.04a.26.26 0 0 1-.13-.1.06.06 0 0 1 0-.07c.03-.05.05-.1.03-.13l.08-.4c0-.02.02-.04.03-.05.07-.1.14-.18.22-.25.08-.08.15-.17.2-.27.07-.11.16-.2.28-.27a.5.5 0 0 0 .16-.13.07.07 0 0 1 .06-.03c.12 0 .25-.01.37.03.1.03.2.04.31.03.02 0 .03 0 .04-.02a.04.04 0 0 1 .05-.02.7.7 0 0 0 .55-.17.21.21 0 0 1 .26 0c.08.05.15.13.2.23.01.03.04.06.08.07l.07.07c0 .03.03.04.06.04s.06-.02.09-.04a.1.1 0 0 1 .07-.03c.09.01.17.05.24.1l.05.03c.05 0 .1.01.14.03.02.02.04.02.07.03.15 0 .25-.06.32-.2a13.2 13.2 0 0 1 .22-.4l.25-.17a.23.23 0 0 1 .09-.04l.1-.02v.01a.5.5 0 0 1-.11.02v.01c.17-.01.34-.03.43.16Z" fill="#9D7F50"/><path d="M7.78 11.15c.02.03 0 .08-.03.13a.06.06 0 0 0 0 .07c.04.05.08.08.13.1.05.01.1 0 .16-.05a3 3 0 0 0 .25-.2c.06-.05.1-.1.13-.18.05-.11.1-.22.17-.33a.1.1 0 0 1 .1-.05c.06 0 .12.02.18.01.17-.01.34 0 .52.02.02 0 .03 0 .04-.02l.02-.01a.08.08 0 0 1 .06-.03c.37-.02.68.07.9.26v.2c.01.06 0 .11 0 .14-.01.02-.02.02-.02 0 .01-.14-.01-.24-.05-.3-.09-.13-.22-.2-.39-.18-.37.03-.73.03-1.08 0a.32.32 0 0 0-.33.23l-.11.38a.8.8 0 0 1-.15.27.73.73 0 0 0-.17.46c0 .05-.02.1-.06.15a.24.24 0 0 1-.14.07l-.21.03a.05.05 0 0 0-.04.03.05.05 0 0 0 .01.05c.06.06.13.11.21.15l.11.14c.02.02.02.05.02.07-.02.06-.06.09-.13.09a.15.15 0 0 1-.1-.04.2.2 0 0 0-.15-.05.1.1 0 0 1-.07-.02.15.15 0 0 0-.12-.04c-.2-.14-.4-.33-.58-.56-.28-.35-.52-.7-.7-1.03a3.01 3.01 0 0 1-.3-.85c.07-.01.08-.05.04-.12 0-.03 0-.06.02-.09l.02-.3c.05.04.08.04.1 0 0-.03.03-.05.06-.04a.2.2 0 0 0 .05 0c.04 0 .06-.01.09-.04l.14-.19a.14.14 0 0 1 .14-.05.14.14 0 0 1 .11.1c.03.1.04.19.03.29a.27.27 0 0 0 .12.24c.07.04.13.1.2.16.02.02.01.03-.02 0h-.03v.03a.03.03 0 0 0 0 .02c.23.12.4.26.49.41l.02.06c0 .1.05.19.14.25l.04.05a.5.5 0 0 1 0 .2c0 .04.01.05.04 0l.03-.04a.1.1 0 0 1 .06-.05h.03Z" fill="#83755D"/><path d="M12.64 10.78c0 .08-.02.14-.07.2l-.25.36a2.6 2.6 0 0 0-.35.4.37.37 0 0 1-.12.1l-.12.09a.7.7 0 0 0-.15.16c-.08.13-.24.2-.48.2-.08 0-.13-.03-.15-.1l-.01-.01h-.03l-.02-.03-.12-.26a.11.11 0 0 0-.05-.06c-.1-.05-.16-.1-.2-.2a.36.36 0 0 0-.1-.15.07.07 0 0 1-.02-.07.8.8 0 0 0 .02-.34v-.5c0-.1-.04-.12-.11-.04-.07.08-.16.13-.27.1a3.5 3.5 0 0 1-.23-.06.62.62 0 0 0-.24-.04l-.71.06c-.06.01-.12 0-.17-.04a.09.09 0 0 0-.08-.02.09.09 0 0 0-.06.05l-.17.45c-.04.1-.1.13-.2.09a.15.15 0 0 0-.07-.02h-.1a.1.1 0 0 1-.08-.08v-.05c.09-.18.2-.33.36-.44a.18.18 0 0 1 .13-.04c.05 0 .06-.01.05-.06v-.02c0-.03.02-.04.05-.03.07 0 .14-.01.2-.06a.05.05 0 0 1 .07 0h.05l.21-.08a.53.53 0 0 1 .21-.04 3.13 3.13 0 0 1 .44.04v.01l.01.01h.53a.1.1 0 0 0 .06-.02l.14-.13a.08.08 0 0 1 .05-.02c.12 0 .2.06.25.18.09.24.2.45.33.64.02.03.03.06.02.1 0 .03-.01.05-.03.07-.02.03-.01.04.02.04h.1a.06.06 0 0 0 .07-.05c0-.03.02-.05.04-.08v-.03l-.01-.04a.15.15 0 0 1-.06-.15.85.85 0 0 1 .1-.25.12.12 0 0 1 .06-.06c.1-.04.22-.07.32-.13l.15-.08c.09-.03.16-.1.2-.18a.57.57 0 0 1 .14-.18.1.1 0 0 0 .04-.07.33.33 0 0 1 .1-.2.08.08 0 0 1 .06-.03.08.08 0 0 1 .06.04c.05.07.08.15.1.24l.04.08c.1.1.15.24.11.4l-.06.43Z" fill="#B7A176"/><path d="M5.38 10.23c.07.07.16.08.25.06a.1.1 0 0 1 .1.02c.03.02.04.04.02.07-.04.02-.06.06-.04.12.02.06.04.08.06.06.06.06.09.14.09.22 0 .03 0 .05.02.07.08.12.12.25.13.38.01.11.05.2.07.31 0 .07.03.15.08.22.06.1.09.2.1.3 0 .1.03.2.08.31l.13.3a.7.7 0 0 1-.13-.08h-.01v.02h-.01a.25.25 0 0 0-.1-.09l-.3-.33a.1.1 0 0 1-.02-.05 2.04 2.04 0 0 1 .03-.5H5.9l-.01.01c0 .04 0 .08-.02.12l-.04.02-.01-.1c-.02-.03-.03-.03-.04 0l-.07.2c.04-.14.06-.28.07-.43 0-.09.02-.17.04-.24.04-.1.02-.23-.04-.36a.07.07 0 0 0-.06-.04l-.15-.01a.05.05 0 0 1-.05-.04c-.04-.14-.02-.25.07-.31.14-.12.12-.16-.06-.14-.06.01-.1-.02-.15-.09Z" fill="#765B35"/><path d="M5.87 10.26c.07.34.16.62.29.85.18.33.41.68.7 1.03.18.23.38.42.58.56.2.14.4.27.63.35.16.06.3.14.4.24.07.06.15.1.25.13l.32.09c.09.02.15.07.24.07l.38-.05.15-.01c.04 0 .06.03.06.07v.08c-.02.04-.05.06-.1.05a.38.38 0 0 0-.13-.01c-.06 0-.09.03-.08.09 0 .02 0 .04.02.05l.05.08c0 .03-.01.06-.05.07H8.53c-.03-.01-.05-.04-.08-.07a.1.1 0 0 1-.03-.07c0-.06-.02-.1-.06-.13a.1.1 0 0 1-.03-.1c.01-.12-.03-.2-.14-.24a.1.1 0 0 0-.1.01.33.33 0 0 1-.17.06c-.03 0-.05 0-.06-.04l-.03-.1a.07.07 0 0 0-.04-.04 1.53 1.53 0 0 0-.38-.15 1.6 1.6 0 0 1-.36-.14l-.58-.31-.13-.31a.93.93 0 0 1-.08-.3c-.01-.12-.04-.22-.1-.31a.55.55 0 0 1-.08-.22c-.02-.1-.06-.2-.07-.31a.82.82 0 0 0-.13-.38.15.15 0 0 1-.02-.07.33.33 0 0 0-.1-.22l-.01-.18c.02-.03.01-.05-.02-.07.09 0 .13-.01.14-.05Z" fill="#533D22"/><path d="M10.34 10.91c.05.25.02.5-.1.77a.44.44 0 0 0-.1.27c0 .02 0 .05.02.07.04.06.07.12.08.18 0 .02.02.03.04.05a.2.2 0 0 1 .07.08l.04.05.12.07c.08.02.11.11.07.18a.05.05 0 0 1-.05.01h-.02c-.14-.11-.3-.13-.46-.05a.13.13 0 0 1-.06.02c-.12-.01-.24 0-.37.02-.17.03-.35.02-.55-.02a10.23 10.23 0 0 0-.38-.04c-.1 0-.18.03-.27.07a.07.07 0 0 0-.03.03c-.02.03-.05.04-.08.04-.09-.03-.17-.02-.21-.11-.01-.03-.01-.05.01-.07a.26.26 0 0 1 .22-.06c-.1-.01-.2 0-.3.03a.03.03 0 0 0-.02.02v.02c.02.06.01.06-.03.02l-.02-.01c-.03-.01-.03-.03-.02-.05.02-.03.06-.05.1-.04h.1c.04-.03.03-.04-.02-.04a.3.3 0 0 1-.1-.02.27.27 0 0 0-.11-.03.32.32 0 0 0-.12.03.04.04 0 0 0-.02.03v.02l.02.01c.04.02.07.05.1.1a.75.75 0 0 1-.22-.16.05.05 0 0 1-.01-.05l.01-.02.03-.01.21-.03c.05 0 .1-.03.14-.07.04-.05.06-.1.06-.15.01-.18.07-.33.17-.46a.8.8 0 0 0 .15-.27l.12-.38a.32.32 0 0 1 .33-.22c.34.02.7.02 1.07-.01.17-.01.3.05.39.18Z" fill="#3D362B"/><path d="m11.95 12.96.32-.12.04-.05.02-.03c.03-.05.02-.05-.02-.02-.12.13-.28.09-.42.16-.06.03-.13.03-.2 0l-.21-.12c-.07-.04-.14-.03-.2.02a.07.07 0 0 1-.05.02l-.02-.01c-.01-.01-.03-.02-.04 0a.4.4 0 0 1-.15.05H11l-.01-.01v-.03c.27-.35.58-.66.94-.93.09-.07.14-.16.2-.25.06-.08.18-.16.2-.3.07-.12.15-.23.24-.35a.35.35 0 0 0 .07-.2v-.02.05c.01.03.03.03.04 0a.4.4 0 0 1 .03-.07c.02-.03.03-.03.05 0 .06.1.08.2.05.3a.99.99 0 0 0-.03.3c0 .12-.01.25-.05.4-.01.07.01.17-.03.23a.13.13 0 0 0-.02.07c0 .24-.07.46-.18.66a.08.08 0 0 1-.05.03c-.07.03-.1.1-.18.14-.1.04-.2.07-.32.08Z" fill="#765B35"/><path d="m9.66 12.48-.02.02c-.17.03-.33.03-.46.01-.19-.03-.2-.09-.03-.17l.14-.07a.14.14 0 0 0 .08-.11.14.14 0 0 0-.05-.13.62.62 0 0 0-.25-.11c-.39-.1-.37-.37-.37-.69 0-.06.02-.12.06-.17.04-.04.1-.07.16-.09.27-.05.57-.06.92-.03.13 0 .22.07.33.13a.08.08 0 0 1 .04.05c.02.1.02.2-.02.3a.14.14 0 0 0-.01.08.33.33 0 0 1-.13.35c-.12.1-.27.16-.47.21-.07.02-.08.06-.05.11.05.08.15.13.3.16l.03.02a.06.06 0 0 1 0 .08l-.02.02a.27.27 0 0 1-.16.02h-.02Z" fill="#0B0908"/><path d="M10.33 10.91c.05.06.07.16.06.3 0 .02 0 .02.01 0a.28.28 0 0 0 .02-.14.8.8 0 0 1-.02.34c0 .03 0 .05.02.07.05.04.08.09.1.14.03.1.1.16.2.2l.05.07.11.26.03.02.03.01v.01c.03.07.08.1.16.1.23 0 .4-.07.48-.2a.7.7 0 0 1 .15-.16l.12-.09a.37.37 0 0 0 .12-.1c.1-.14.21-.27.35-.4-.01.14-.13.22-.18.3-.06.1-.12.18-.21.25a4.74 4.74 0 0 0-.94.96.03.03 0 0 0 .03.01.4.4 0 0 0 .15-.06h.04c0 .02.01.02.02.02.02 0 .04 0 .06-.02.06-.05.12-.06.2-.02l.21.12c.07.03.13.03.19 0 .14-.07.3-.03.43-.16.03-.03.04-.03.01.02l-.02.03c0 .02-.02.04-.04.05l-.31.12a.4.4 0 0 0-.25.09l-.2.04a.52.52 0 0 0-.17.07l-.2.14a.13.13 0 0 1-.08.03c-.14 0-.27-.02-.4.02-.2.07-.34.2-.4.43-.01.04 0 .07.03.09.03.02.03.04 0 .06-.12.06-.2.07-.4.07h-.32c.04 0 .06-.04.06-.07a.16.16 0 0 0-.05-.08.08.08 0 0 1-.03-.05c0-.06.03-.09.09-.1.04 0 .09 0 .13.02.05 0 .08 0 .1-.05v-.08c0-.04-.02-.07-.06-.07h-.15c-.12.03-.25.05-.38.06-.1 0-.15-.05-.24-.07l-.32-.09a.53.53 0 0 1-.25-.13 1.1 1.1 0 0 0-.4-.24 2.45 2.45 0 0 1-.63-.35c.05 0 .09 0 .12.04a.1.1 0 0 0 .07.02c.06 0 .1.02.15.05.03.02.06.04.1.04.06 0 .1-.03.12-.09.01-.02 0-.05 0-.07l-.12-.14c.07.03.16.1.27.23.05.07.14.1.26.1.03 0 .06-.01.07-.04.01-.03.04-.05.08-.04l.08-.01.03-.03c.01-.03.03-.04.06-.03h.2c.09-.02.13 0 .15.08 0 .03.02.05.05.06l.2.06a.2.2 0 0 0 .24-.08l.03-.01c.02 0 .04 0 .05-.02.1-.11.2-.13.33-.06h.06l.1-.03a.12.12 0 0 1 .09.01c.23.13.44.09.61-.13a.06.06 0 0 0-.02-.1l-.3-.14a.36.36 0 0 1-.2-.26.18.18 0 0 0-.03-.07c-.07-.1-.09-.22-.04-.36.1-.26.14-.52.08-.77Z" fill="#71624D"/><path d="M6.21 12.52v.34a.07.07 0 0 0 .03.07l.11.04a.14.14 0 0 1 .1.05c.07.11.1.23.1.37a.16.16 0 0 1-.04.12.16.16 0 0 1-.12.04.61.61 0 0 0-.44.16.09.09 0 0 0-.03.08c.02.15.25.2.25.2H5.9a.33.33 0 0 0 0-.15c0-.02-.03-.04-.05-.04a.2.2 0 0 1-.15-.06.19.19 0 0 1-.05-.12c0-.1-.02-.22-.05-.34a.11.11 0 0 0-.06-.07.12.12 0 0 0-.1 0 .67.67 0 0 0-.23.15.07.07 0 0 0-.02.04c0 .04-.02.06-.05.07a.15.15 0 0 0-.08.06l-.2.33c-.05.07-.03.1.05.1l.21.04H4c.15-.1.27-.27.43-.36.13-.07.22-.18.35-.25.28-.13.5-.27.65-.41.19-.18-.04-.36.13-.53a.1.1 0 0 0 .03-.05l.13-.5.07-.2c0-.04.02-.04.03-.01l.01.1.01.34c0 .05.02.1.06.13.03.02.03.02.01-.01l-.02-.03a.05.05 0 0 1-.02-.04v-.4a.28.28 0 0 0 .02-.13c0-.01 0-.02.02-.02h.02c-.03.17-.04.33-.03.5 0 .03.01.04.03.06l.28.33Z" fill="#9D7F50"/><path d="M10.25 11.68c-.05.14-.03.26.04.36l.03.07c.02.12.09.21.2.26a8.67 8.67 0 0 0 .34.19v.03l-.02.02c-.17.22-.38.26-.61.13a.12.12 0 0 0-.1 0l-.09.02h-.06c-.13-.07-.24-.05-.33.06a.05.05 0 0 1-.05.02l-.03.01a.2.2 0 0 1-.24.08 1.73 1.73 0 0 0-.2-.06.07.07 0 0 1-.05-.06c-.02-.07-.06-.1-.14-.09a.58.58 0 0 1-.2 0c-.04 0-.06.01-.07.04l-.03.03a.13.13 0 0 1-.08.01c-.04 0-.07 0-.08.04a.07.07 0 0 1-.07.04c-.12 0-.2-.03-.26-.1a.8.8 0 0 0-.27-.23.18.18 0 0 0-.09-.09.04.04 0 0 1-.01-.05l.01-.01a.32.32 0 0 1 .12-.03c.02 0 .05 0 .1.03a.3.3 0 0 0 .11.02c.05 0 .05.01.01.03a.12.12 0 0 1-.09.01c-.04 0-.08 0-.1.04-.01.02 0 .04.02.05l.02.01c.04.04.05.04.03-.02v-.02c0-.01 0-.02.02-.02a.85.85 0 0 1 .3-.03.26.26 0 0 0-.22.06c-.02.02-.03.04-.01.07.04.1.12.08.2.1.04.01.07 0 .09-.03l.03-.03c.09-.04.16-.08.26-.07a10.23 10.23 0 0 1 .39.04c.2.04.38.05.54.02.14-.02.26-.03.37-.02.03 0 .05 0 .06-.02.17-.08.33-.06.47.04a.05.05 0 0 0 .07 0c.04-.07 0-.16-.07-.18a.37.37 0 0 1-.12-.07.13.13 0 0 1-.04-.05.2.2 0 0 0-.07-.08.09.09 0 0 1-.04-.05.58.58 0 0 0-.08-.18.12.12 0 0 1-.02-.07c0-.1.04-.2.1-.27Z" fill="#765B35"/><path d="m6.21 12.52.11.09v-.02h.02l.13.09.58.3c.12.07.24.12.36.15.13.03.26.08.38.15.02 0 .03.02.04.04l.03.1c0 .03.03.05.06.04.06 0 .12-.02.17-.06a.1.1 0 0 1 .1-.01c.1.04.15.12.13.25 0 .04.01.07.04.09.04.03.06.07.06.13a.1.1 0 0 0 .03.07c.03.03.05.06.08.07H6.16c-.14.01-.22-.06-.24-.21 0-.03 0-.06.02-.08.12-.11.27-.16.45-.16a.16.16 0 0 0 .15-.1l.01-.06a.62.62 0 0 0-.1-.37.13.13 0 0 0-.1-.05.27.27 0 0 1-.11-.04.08.08 0 0 1-.04-.07l.01-.34Z" fill="#71624D"/><path d="M11.98 13.03a1.7 1.7 0 0 0-.39.09 5.33 5.33 0 0 0-.6.33.3.3 0 0 0-.32.05.23.23 0 0 0-.05.06l-.12.22a.06.06 0 0 0 .03.09c.12.05.23.06.35.04l.3-.03c.18 0 .34-.02.5-.06a.15.15 0 0 0 .09-.06.13.13 0 0 1 .06-.05.33.33 0 0 0 .18-.17c.1-.14.2-.18.33-.13.13-.13.25-.18.38-.16a.1.1 0 0 1 .08.07c.03.12.08.23.16.35l.02.09c0 .07.01.12.07.17.03.03.02.07-.02.07H9.89c.15-.07.28 0 .4-.07.03-.02.03-.04 0-.06-.03-.02-.04-.05-.03-.1.06-.21.2-.35.4-.42.13-.04.26-.01.4-.02.03 0 .05-.01.07-.03l.2-.14a.52.52 0 0 1 .19-.07l.2-.04.26-.02Z" fill="#765B35"/><path d="M11.98 13.03H12c.15-.03.26-.02.34.02.06.03.09.08.08.15 0 .03-.01.04-.04.05a.5.5 0 0 0-.37.3.33.33 0 0 1-.18.16.13.13 0 0 0-.06.05.15.15 0 0 1-.09.06c-.16.04-.32.06-.5.06-.1 0-.2 0-.3.03a.61.61 0 0 1-.35-.04.06.06 0 0 1-.03-.08l.12-.23a.23.23 0 0 1 .05-.06c.1-.08.2-.1.32-.05h.04c.04 0 .06-.02.07-.04a5.34 5.34 0 0 1 .49-.29c.08-.03.2-.06.39-.09Z" fill="#9D7F50"/><path d="M5.98 14H4.86c-.09 0-.11-.03-.06-.1l.23-.35a.16.16 0 0 1 .09-.06c.03-.02.05-.04.06-.07 0-.02 0-.04.02-.05a.77.77 0 0 1 .27-.17.14.14 0 0 1 .1 0l.05.04.02.05c.04.12.05.24.06.35 0 .05.03.06.06.1.04.05.1.03.16.03.03 0 .05.08.06.1.02.04.02.09 0 .13Z" fill="#B7A176"/></svg>