<!-- by TradingView --><svg width="18" height="18" xmlns="http://www.w3.org/2000/svg"><path d="M0 9a9 9 0 1118 0A9 9 0 010 9z" fill="#F0F3FA"/><path d="M9.21 8.117l2.234 2.715-2.557.077.324-2.792zM8 7H4l3.34.697 1.494 3.116L8 7z" fill="#15A4FC"/><path d="M12.758 6.931l.054 3.251-1.513-1.797 1.459-1.454z" fill="url(#paint0_linear)"/><path d="M11.839 7.85l.918-.919L14 8.327l-2.161-.478z" fill="#15A4FC"/><path d="M12.811 10.182L9.86 6.53l-2.07-.46 1.044 4.743.09 1.74 3.906-2.371h-.018z" fill="url(#paint1_linear)"/><path d="M4.854 15l4.321-2.6-.324-1.587L4.854 15z" fill="url(#paint2_linear)"/><path d="M3 5h5.563l1.296 1.53L3 5z" fill="#15A4FC"/><defs><linearGradient id="paint0_linear" x1="11.982" y1="6.859" x2="12.191" y2="9.938" gradientUnits="userSpaceOnUse"><stop stop-color="#0094FF"/><stop offset="1" stop-color="#1145EA"/></linearGradient><linearGradient id="paint1_linear" x1="10.516" y1="10.73" x2="8.12" y2="6.904" gradientUnits="userSpaceOnUse"><stop stop-color="#15A4FC"/><stop offset="1" stop-color="#1145EA"/></linearGradient><linearGradient id="paint2_linear" x1="6.987" y1="13.222" x2="9.862" y2="11.192" gradientUnits="userSpaceOnUse"><stop stop-color="#15A4FC"/><stop offset="1" stop-color="#1145EA"/></linearGradient></defs></svg>