<!-- by TradingView --><svg width="18" height="18" xmlns="http://www.w3.org/2000/svg"><path fill="url(#paint0_linear)" d="M0 0h18v18H0z"/><ellipse cx="8.988" cy="9.564" rx="2.946" ry=".835" fill="#fff"/><path fill-rule="evenodd" d="M12.754 5H5.23L3 9.53 9 15l6-5.47L12.754 5zM9.5 10.822c1.657-.089 2.929-.61 2.929-1.238 0-.69-1.535-1.25-3.429-1.25s-3.429.56-3.429 1.25c0 .629 1.272 1.15 2.929 1.238V13h1v-2.178z" fill="#fff"/><path d="M11 6H7v1h1.5v3h1V7H11V6z" fill="#DDA85B"/><defs><linearGradient id="paint0_linear" x1="9" y1="0" x2="9" y2="18" gradientUnits="userSpaceOnUse"><stop stop-color="#D29C55"/><stop offset="1" stop-color="#E9B662"/></linearGradient></defs></svg>