<!-- by TradingView --><svg width="18" height="18" viewBox="0 0 18 18" xmlns="http://www.w3.org/2000/svg"><path fill="#162F29" d="M0 0h18v18H0z"/><path d="m6.64 11.66.03.02.83 1 .02.01h.02l.04-.03.02-.01.02.01 1.1 1.32V14H8.7l-.43-.04a.13.13 0 0 1-.1-.05l-.84-1.03v-.03l.04-.03a.04.04 0 0 0 .02-.03v-.01l-.01-.01-.9-1.1v-.01h.15Zm.63-.08 1.05 1.04v.01h.04l.04-.05h.02l1.35 1.34v.02l-.42.04a.04.04 0 0 1-.03 0l-1.14-1.14v-.04l.03-.03h.01v-.06l-1.1-1.09v-.01l.12-.04h.01l.02.01Zm-1.17.05a.1.1 0 0 1 .06.04l.63.97.01.01a.02.02 0 0 0 .02 0 .16.16 0 0 1 .06-.04h.03l.77 1.2v.02a2.67 2.67 0 0 1-.54-.19l-.53-.83v-.03l.05-.03.01-.01v-.03l-.7-1.09v-.02h.01l.12.03Zm1.67-.26 1.35 1.1a.03.03 0 0 0 .03 0s.02-.01.02-.03l.02-.01h.04a598.23 598.23 0 0 0 1.5 1.25l-.32.11a.1.1 0 0 1-.05 0 .11.11 0 0 1-.05-.01l-1.3-1.07L9 12.7v-.04l.03-.04v-.01a.03.03 0 0 0 0-.02l-1.4-1.15.12-.07h.01Zm-2.39 0 .18.11.46.86.01.01h.03l.05-.03h.03v.01l.62 1.15v.01h-.01l-.52-.3a.15.15 0 0 1-.06-.05l-.34-.63a.03.03 0 0 1 0-.04.06.06 0 0 1 .04-.02h.02v-.02a.04.04 0 0 0 0-.03 310.1 310.1 0 0 0-.51-1.02Zm2.8-.23 1.6 1.02h.01l.01-.01.02-.04.01-.02h.05l1.76 1.12v.03l-.3.17h-.05L9.68 12.4l-.01-.02v-.01l.03-.04v-.03a.04.04 0 0 0-.01-.02l-1.64-1.04v-.02l.08-.07h.04Zm-3.2 0 .15.1.02.02.19.54v.01h.01l.02.01.07-.02.02.01.38 1.1a5.98 5.98 0 0 1-.56-.54 5.67 5.67 0 0 1-.15-.45l.01-.01a.2.2 0 0 0 .06-.03.02.02 0 0 0 0-.02l-.24-.7v-.01h.01Zm3.64-.41 1.76.92h.01a.03.03 0 0 0 .02 0v-.02a.2.2 0 0 1 .03-.05l.02-.01h.02l1.94 1.01.01.01v.02l-.26.23h-.02l-1.85-.96-.01-.01v-.02l.04-.05v-.02l-.02-.01-1.79-.94-.01-.01a.03.03 0 0 1 0-.03l.06-.05a.04.04 0 0 1 .05-.01Zm.27-.39 1.99.75h.02l.02-.02.01-.05.02-.01h.02l2.12.8h.01v.03l-.2.26h-.02l-2.04-.76-.02-.01v-.03c.03-.04.03-.07 0-.08a2014.29 2014.29 0 0 0-2.03-.8l.06-.06.02-.02h.02Zm-4.42.3.16.2v.01a3.83 3.83 0 0 1 .1.4H4.84l.18.8h-.02a4.85 4.85 0 0 1-.45-.74c.04 0 .06-.03.04-.08a19.73 19.73 0 0 1-.1-.58Zm6.74-.19h.02l.01-.01.03-.06.01-.01h.02l2.28.56-.12.33h-.02l-2.23-.55a.03.03 0 0 1-.02-.02v-.02l.01-.04v-.02l-.01-.02h-.01l-2.15-.54a.03.03 0 0 1-.02-.01v-.02l.03-.07.02-.02h.03l2.12.52Zm-7.19-.63a2.47 2.47 0 0 0 .25.56v.35h-.01a5.67 5.67 0 0 1-.24-.91Zm7.42-.07h.02v-.02l.02-.06.02-.02h.02l2.38.29-.09.35-2.34-.28a.04.04 0 0 1-.02-.02V9.9h-.02l-.01-.01-2.25-.28a.03.03 0 0 1-.02-.02v-.01l.02-.07.02-.03h.02l2.23.27Zm2.55-.92a3.2 3.2 0 0 1 0 .34h-2.38l-.04-.02-.02-.03V9.1h-.03a14.72 14.72 0 0 1-.8-.04 1453.88 1453.88 0 0 1-1.5-.02.17.17 0 0 1 0-.09v-.01h.02a1103.25 1103.25 0 0 1 2-.02 13.15 13.15 0 0 1 .31-.04c0-.02.01-.03.02-.03l.04-.02 2.37-.01h.01Zm-.17-1.12.1.35h-.01l-2.4.3-.01-.01-.02-.02-.01-.06-.01-.01h-.02l-2.23.26h-.03l-.01-.03-.02-.07V8.4h.02l2.25-.29h.01l.01-.01v-.09l.02-.01h.01l2.34-.3Zm-9.55-.58v.48c0 .02 0 .04-.02.06-.1.2-.19.38-.24.58H4a4.86 4.86 0 0 1 .27-1.12Zm9.19-.39v.01l.12.3a.02.02 0 0 1 0 .01l-.01.01h-.01l-2.26.57h-.02l-.01-.02-.02-.06-.02-.01h-.01l-2.15.53h-.01l-.02-.01-.03-.09v-.02h.01v-.01l2.17-.54h.01v-.02l-.01-.07V7.3h.02l2.23-.56h.02Zm-.56-.84.2.26h.01v.02l-.01.01-2.13.8h-.02l-.01-.01-.02-.05v-.01h-.02V6.9h-.02l-1.98.75a.04.04 0 0 1-.05-.02l-.05-.06v-.02a.03.03 0 0 1 0-.02l2.02-.76c.03 0 .04-.04 0-.08v-.02l.01-.02h.01l2.04-.77h.02ZM5 5.95h.01l-.17.8a.02.02 0 0 1-.01.01H4.8c-.03-.01-.05-.02-.07 0-.02 0-.02.03-.03.07a3.82 3.82 0 0 1-.08.33l-.17.2h-.01l.13-.59c.01-.04 0-.07-.04-.08h-.01v-.02A4.86 4.86 0 0 1 5 5.95Zm7.17-.8.27.23v.03l-1.97 1.02h-.03l-.03-.07h-.03l-1.77.92h-.03l-.07-.07H8.5a.02.02 0 0 1 0-.03h.01l1.8-.95h.02V6.2l-.04-.06v-.02l.01-.01 1.85-.96a.02.02 0 0 1 .02 0Zm-.86-.57.33.18h.01v.02L9.87 5.93a.02.02 0 0 1-.03 0l-.04-.07h-.02l-1.6 1.01h-.02l-.1-.05h-.02v-.02l.01-.01 1.66-1.05V5.7l-.04-.07v-.02l1.63-1.04h.01Zm-5.47.51-.38 1.1h-.02l-.06-.01a.03.03 0 0 0-.03 0l-.01.02-.19.53c0 .01 0 .02-.02.03l-.15.1h-.01v-.01l.24-.7v-.03a.2.2 0 0 0-.06-.03h-.01v-.01a.03.03 0 0 1-.01-.02l.15-.43a5.86 5.86 0 0 1 .56-.54Zm4.58-.88.31.1a.02.02 0 0 1 .01.02v.01A587.24 587.24 0 0 0 9.2 5.58h-.02l-.01-.02a.18.18 0 0 0-.02-.03l-.02-.01h-.02l-1.35 1.1v.01h-.01l-.12-.06 1.4-1.15v-.04L9 5.34V5.3h.01l1.3-1.08a.1.1 0 0 1 .1-.01Zm-3.66.3v.01l-.61 1.15h-.03l-.06-.02h-.03l-.46.86v.01l-.18.1h-.01l-.01-.01V6.6a341.26 341.26 0 0 0 .53-1.03v-.02h-.03l-.03-.02v-.04l.33-.63a.14.14 0 0 1 .06-.06l.52-.3Zm3-.45h.02v.02L8.43 5.42H8.4l-.04-.04v-.01h-.04L7.27 6.42h-.03l-.12-.02a.01.01 0 0 1 0-.01v-.01l1.1-1.1a.04.04 0 0 0 0-.04v-.01a.11.11 0 0 1-.04-.03v-.04l1.14-1.13A.04.04 0 0 1 9.36 4l.4.05Zm-2.08.12-.77 1.2-.01.01h-.02a.16.16 0 0 1-.06-.03l-.01-.01a.02.02 0 0 0-.02 0l-.63.98a.1.1 0 0 1-.05.04l-.12.03h-.01l-.01-.01v-.01l.7-1.09a.03.03 0 0 0 0-.02v-.02l-.05-.03H6.6v-.03l.54-.83.02-.03a2.69 2.69 0 0 1 .51-.15ZM8.71 4h.01v.02l-1.1 1.34H7.6l-.07-.06h-.01l-.87 1.04h-.16v-.01l.92-1.11V5.2l-.07-.05v-.02l.88-1.07.49-.06Z" fill="#FEFFFF"/></svg>