<!-- by TradingView --><svg width="18" height="18" xmlns="http://www.w3.org/2000/svg"><path fill="#2E84FD" d="M0 0h18v18H0z"/><path d="M10.253 14.459c-.781 0-1.348-.186-1.712-.563-.353-.376-.535-.78-.535-1.212 0-.163.037-.294.096-.403a.685.685 0 01.257-.257.803.803 0 01.396-.093c.155 0 .294.033.401.093a.705.705 0 01.348.655c0 .197-.043.35-.134.475a.648.648 0 01-.326.235c.107.152.278.256.513.322.23.065.466.098.696.098.311.004.617-.088.877-.262.268-.175.455-.437.578-.775.128-.344.187-.732.187-1.163 0-.475-.064-.873-.203-1.206a1.491 1.491 0 00-.589-.753 1.576 1.576 0 00-.856-.24c-.192 0-.444.081-.743.245L9 9.928v-.273L11.42 7H8v2.78c0 .744.695 1.262 1.343.776.183-.136.342-.302.471-.491a.185.185 0 01.064-.077.127.127 0 01.08-.033c.049 0 .102.028.161.071.058.062.09.144.09.23a1.616 1.616 0 01-.031.174 1.663 1.663 0 01-.589.726c-.624.423-1.642.358-2.175-.185A1.644 1.644 0 017 9.78V7H4.986V6H7V4.662l-.325-.322V4h.962L8 4.662V6h4.521l.45.33-2.766 2.605c.166-.067.34-.11.518-.126.3 0 .643.098 1.017.29.375.185.663.447.867.774.203.328.337.64.39.94.06.263.092.531.097.802a3.34 3.34 0 01-.337 1.484c-.215.45-.574.812-1.017 1.027a3.316 3.316 0 01-1.487.338v-.005z" fill="#fff"/></svg>