<!-- by TradingView --><svg width="18" height="18" viewBox="0 0 18 18" xmlns="http://www.w3.org/2000/svg"><path fill="#3C8464" d="M0 0h18v18H0z"/><path d="M13.41 11.35a5 5 0 0 1-8.82 0h.33a4.7 4.7 0 0 0 8.16 0h.33Zm0-4.7a5 5 0 0 0-8.82 0h.33a4.7 4.7 0 0 1 8.16 0h.33ZM14 9c0 .6-.53 1-1.2 1H12V8h.77c.7 0 1.23.36 1.23 1Zm-.57 0c0-.37-.26-.59-.67-.59h-.19v1.17h.18c.41 0 .68-.21.68-.59ZM10.96 8.54a.57.57 0 0 0-.22-.12.75.75 0 0 0-.5 0 .27.27 0 0 0-.08.06.13.13 0 0 0-.04.09c0 .03.01.06.03.08l.08.06.13.04a8.47 8.47 0 0 0 .44.12c.1.02.19.05.27.1.07.04.14.1.2.16.04.06.07.14.07.24 0 .1-.03.2-.09.28a.64.64 0 0 1-.22.2c-.1.05-.2.09-.32.11a2.1 2.1 0 0 1-.92-.03 1.28 1.28 0 0 1-.43-.2l.41-.31a.94.94 0 0 0 .7.2.4.4 0 0 0 .12-.04.2.2 0 0 0 .08-.07.16.16 0 0 0 .03-.1.13.13 0 0 0-.04-.09.33.33 0 0 0-.1-.06 6.2 6.2 0 0 0-.65-.18.98.98 0 0 1-.22-.11.58.58 0 0 1-.15-.15.42.42 0 0 1-.05-.22c0-.1.03-.2.09-.27a.68.68 0 0 1 .23-.19 1.93 1.93 0 0 1 1.14-.08c.16.04.3.1.4.17l-.4.31ZM9 9.21c0 .5-.47.79-1 .79-.54 0-1-.3-1-.79V8h.57v1.17c0 .24.15.4.43.4.27 0 .43-.16.43-.4V8H9v1.21ZM4.95 7.5H4l.18.75c.06.26.32.45.62.45h.4l-.25-1.2ZM6.05 10.5H7l-.18-.75c-.06-.26-.32-.45-.62-.45h-.4l.25 1.2Z" fill="#fff"/><path d="M7 7.5h-.96l-.1.62a.84.84 0 0 1-.45.6l-.9.48a.85.85 0 0 0-.44.57L4 10.5h.93l.1-.63c.05-.25.22-.46.45-.59l.95-.5c.24-.13.4-.34.45-.6L7 7.5Z" fill="#fff"/></svg>