<!-- by TradingView --><svg width="18" height="18" viewBox="0 0 18 18" xmlns="http://www.w3.org/2000/svg"><path fill="#F0F3FA" d="M0 0h18v18H0z"/><path d="M8.52 4c.27 0 .48.22.48.48V6c0 .55.35 1 .9 1 .22 0 .44-.08.61-.22l2.75-2.65a.43.43 0 0 1 .3-.13c.23 0 .44.2.44.43 0 .12-.04.24-.13.33l-4.06 3.9A.22.22 0 0 0 10 9h3.52c.27 0 .48.22.48.48v4.04c0 .26-.21.48-.48.48H9.48a.48.48 0 0 1-.48-.48V12c0-.55-.35-1-.9-1a.99.99 0 0 0-.61.22l-2.75 2.65a.43.43 0 0 1-.3.13.44.44 0 0 1-.44-.41c0-.13.04-.25.13-.35l4.06-3.9A.22.22 0 0 0 8 9H4.48A.48.48 0 0 1 4 8.52V4.48c0-.26.21-.48.48-.48h4.04Z" fill="#0F0F0F"/></svg>