<!-- by TradingView --><svg xmlns="http://www.w3.org/2000/svg" width="18" height="18"><path fill="url(#a2uwfyiie)" d="M0 0h18v18H0z"/><path d="M12.78 6.47L9.17 4.89 5.33 6.47l-.24.4.16 1.4.4 2.18 1.27 1.98L9 13.73l1.62-.93 1.39-1.77.76-2.53V6.47z" fill="url(#b2uwfyiie)"/><path d="M9.3 7.62l-.64-1.23-.7-.51-2.27.08A88.33 88.33 0 017.75 9.5c.21 2.52-.37 1.9-.37 2.64l.37.5 2.82.05-.4-1.14V9.77l1.85-3.21-.5-.68-1.95.08.2.77-.47.89z" fill="url(#c2uwfyiie)"/><path fill-rule="evenodd" d="M8.98 15c-4.73-1.68-5.19-6.93-4.92-9.32L9.03 3.5l4.94 2.18c.4 6.02-2.76 8.67-5 9.32zm-2.7-3.67a7.95 7.95 0 01-.97-4.77l.32-.14c.1.09.2.18.23.24l.5.83 1.15 1.9v2.08l-.31.26-.43-.81-.48.41zm1.18 1.34c.42.32.9.6 1.48.8a4.4 4.4 0 001.38-.7H7.64l-.18-.25v.15zm4.1-1.23a7.8 7.8 0 001.05-4.88l-.74-.34.22.32-1.79 3.23v2.08l.17.25.55-.76.53.1zm-.6-5.62l-1.5-.67-.49.33c-.1-.1-.3-.23-.46-.34l-1.54.68h1.1l.67.57.53 1c.12-.21.37-.66.39-.82.01-.15-.35-.45-.53-.58l.11-.17h1.72zM5.7 6h2.33l.6.53.73 1.46.62-1.21c.03-.18.04-.63-.22-.78h1.7l.37.53-1.75 3.21v2.25l.4.58H7.83l-.38-.46.42-.48V9.3L6.26 6.62c-.1-.17-.33-.54-.56-.63z" fill="url(#d2uwfyiie)"/><defs><linearGradient id="a2uwfyiie" x1="3.35" y1="3.12" x2="21.9" y2="24.43" gradientUnits="userSpaceOnUse"><stop stop-color="#1A1E21"/><stop offset="1" stop-color="#06060A"/></linearGradient><linearGradient id="b2uwfyiie" x1="12.78" y1="8.81" x2="5.66" y2="8.81" gradientUnits="userSpaceOnUse"><stop stop-color="#012274"/><stop offset=".51" stop-color="#0035B0"/><stop offset="1" stop-color="#022372"/></linearGradient><linearGradient id="c2uwfyiie" x1="8.6" y1="6.1" x2="8.6" y2="12.11" gradientUnits="userSpaceOnUse"><stop stop-color="#5183E2"/><stop offset="1" stop-color="#1150B9"/></linearGradient><linearGradient id="d2uwfyiie" x1="9" y1="3.5" x2="9" y2="15" gradientUnits="userSpaceOnUse"><stop offset="0" stop-color="#A7924D"/><stop offset=".48" stop-color="#FAF9AB"/><stop offset="1" stop-color="#A7924D" stop-opacity=".89"/></linearGradient></defs></svg>