<!-- by TradingView --><svg width="18" height="18" viewBox="0 0 18 18" xmlns="http://www.w3.org/2000/svg"><path d="M0 0h18v18H0V0z" fill="#EF5350" shape-rendering="crispEdges"/><path d="M0 13h18v5H0v-5z" fill="#4CAF50" shape-rendering="crispEdges"/><path d="M0 5h18v8H0V5z" fill="#F8F9FD" shape-rendering="crispEdges"/><path d="M7 11h4V9.6l-1.06.34L9 9l-.94.94L7 9.6V11zM5.64 9.78l.15.45h.47l-.38.28.14.45-.38-.28-.38.28.15-.45-.38-.28h.47l.14-.45zM6.1 8.22l.14.45h.47l-.38.27.15.45-.38-.28-.39.28.15-.45-.38-.27h.47l.15-.45zM7.39 7.04l.14.45H8l-.38.28.15.45-.38-.28-.38.28.14-.45-.38-.28h.47l.15-.45zM12.36 9.78l-.15.45h-.47l.38.28-.15.45.39-.28.38.28-.15-.45.38-.28h-.47l-.14-.45zM11.9 8.22l-.14.45h-.47l.38.27-.15.45.38-.28.39.28-.15-.45.38-.27h-.47l-.15-.45zM10.61 7.04l-.14.45H10l.38.28-.15.45.38-.28.38.28-.14-.45.38-.28h-.47l-.15-.45zM9 6.46l.15.45h.47l-.38.27.14.45L9 7.35l-.38.28.14-.45-.38-.27h.47L9 6.46z" fill="#FDD835"/></svg>