<!-- by TradingView --><svg width="18" height="18" viewBox="0 0 18 18" xmlns="http://www.w3.org/2000/svg"><path d="M0 0h18v18H0V0z" fill="#EF5350" shape-rendering="crispEdges"/><path d="M0 12v6h18v-6H0z" fill="#4CAF50" shape-rendering="crispEdges"/><path d="M18 6V0H0v6h18z" fill="#4A89DC" shape-rendering="crispEdges"/><path d="M0 7v4h18V7H0zM4.11 3.26c0-.84.6-1.55 1.39-1.72a1.76 1.76 0 1 0 0 3.44A1.76 1.76 0 0 1 4.1 3.26zM6.54 4.06l.12.37h.38l-.31.22.12.37-.31-.23-.31.23.11-.37-.3-.22h.38l.12-.37zM7.77 4.06l.12.37h.38l-.3.22.11.37-.31-.23-.31.23.12-.37-.32-.22h.39l.12-.37zM9 4.06l.12.37h.38l-.3.22.11.37L9 4.8l-.31.23.12-.37-.32-.22h.39L9 4.06zM10.23 4.06l.12.37h.39l-.32.22.12.37-.3-.23-.32.23.12-.37-.31-.22h.38l.12-.37zM11.46 4.06l.12.37h.39l-.32.22.12.37-.3-.23-.32.23.12-.37-.31-.22h.38l.12-.37zM7.77 2.78l.12.37h.38l-.3.22.11.37-.31-.23-.31.23.12-.37-.32-.22h.39l.12-.37zM9 2.78l.12.37h.38l-.3.22.11.37L9 3.51l-.31.23.12-.37-.32-.22h.39L9 2.78zM10.23 2.78l.12.37h.39l-.32.22.12.37-.3-.23-.32.23.12-.37-.31-.22h.38l.12-.37zM11.46 2.78l.12.37h.39l-.32.22.12.37-.3-.23-.32.23.12-.37-.31-.22h.38l.12-.37zM9 1.5l.12.37h.38l-.3.22.11.37L9 2.23l-.31.23.12-.37-.32-.22h.39L9 1.5zM10.23 1.5l.12.37h.39l-.32.22.12.37-.3-.23-.32.23.12-.37-.31-.22h.38l.12-.37zM11.46 1.5l.12.37h.39l-.32.22.12.37-.3-.23-.32.23.12-.37-.31-.22h.38l.12-.37z" fill="#F8F9FD" shape-rendering="crispEdges"/></svg>