<!-- by TradingView --><svg width="18" height="18" xmlns="http://www.w3.org/2000/svg"><path fill="#255398" d="M0 0h18v18H0z"/><path d="M6.702 10.208l-1.019-.441 4.223-.515c.073.123.147.233.234.343l-3.438.613zM15 7.965h-.516c0 .344-.049.638-.16.895-.318.82-1.116 1.213-1.914 1.2-.786-.025-1.584-.429-1.94-1.176a2.16 2.16 0 01-.196-.919H2l1.51.968 6.322-.33c.122.453.343.845.638 1.138a2.716 2.716 0 001.94.821c.7.012 1.411-.244 1.914-.808.476-.518.676-1.195.676-1.789zm-.675 3.468l.16.294-.16.073-.43.196-.49-.967a3.345 3.345 0 01-.995.183 3.157 3.157 0 01-1.08-.146l-.418.93c-.135.012-.319 0-.442-.085a.323.323 0 01-.147-.184l.147-.245.356-.638c-.11-.073-.208-.122-.307-.22l.295-.355c.504.306 1.056.477 1.596.477.54.013 1.08-.158 1.583-.514l.332.098.135.049c-.05.037-.086.073-.135.11-.098.099-.184.196-.344.281l.344.663zm0-5.01c.319.38.552.845.675 1.383h-.528a2.975 2.975 0 00-.147-.465c-.356-.931-1.08-1.593-1.915-2.144-.11-.062-.209-.135-.32-.197.111.038.21.074.32.111.761.306 1.436.722 1.915 1.311zM12.9 9.876a1.29 1.29 0 00.503-.22l-.835-1.654.872-.417-.737-.637-.295.135-1.264.575.368.834.602-.27.786 1.654zm-2.283.232c-.05-.037-.099-.085-.148-.123a1.57 1.57 0 01-.245-.257l-2.883.544 1.227.411 2.049-.575zm-.786-1.016a3.44 3.44 0 01-.123-.332l-5.769.332 1.166.564 4.726-.564z" fill="#fff"/></svg>