<!-- by TradingView --><svg width="18" height="18" viewBox="0 0 18 18" xmlns="http://www.w3.org/2000/svg"><path fill="#97D8EA" d="M0 0h18v18H0z"/><path d="M4.2 10.44A5.03 5.03 0 0 0 7.94 14h.04a1.02 1.02 0 0 1-.04-.06 2.97 2.97 0 0 0-.06-.06l-.12-.13c-.15-.2-.27-.41-.38-.63a5.46 5.46 0 0 0-1.25-1.6 5.86 5.86 0 0 0-.7-.6c-.3-.22-.57-.46-.78-.77a1.96 1.96 0 0 1-.38-1.3c.03-.28.1-.53.24-.78.2-.37.5-.67.83-.92a7.86 7.86 0 0 0 1.9-2 40.28 40.28 0 0 0 .35-.64c.1-.17.2-.33.35-.45l.02-.03.02-.03a7.33 7.33 0 0 1-.19.04 4.83 4.83 0 0 0-2.66 1.72 5.12 5.12 0 0 0-.94 4.68Zm6.64-5.17c.23.35.5.67.78.98l.12.12.28.26.58.47c.22.18.44.36.62.58.24.3.42.63.48 1.03.03.19.04.38 0 .57-.06.41-.24.77-.5 1.08-.2.21-.4.4-.64.57a6.87 6.87 0 0 0-1.78 1.9l-.23.41-.17.3c-.09.15-.19.3-.33.41l-.02.02V14a4.95 4.95 0 0 0 3.07-2.07 5.23 5.23 0 0 0 .1-5.7 4.98 4.98 0 0 0-2.07-1.86 3.6 3.6 0 0 0-1.11-.35l.01.02.03.03.06.05.11.13c.12.15.21.31.3.48l.06.1.07.13.18.3Z" fill="#124066"/></svg>