<!-- by TradingView --><svg width="18" height="18" xmlns="http://www.w3.org/2000/svg"><path fill="url(#paint0_linear)" d="M0 0h18v18H0z"/><path d="M6 4H4v3h2V4z" fill="#E51636"/><path d="M5.403 11.872c-.134.064-.373.128-.693.128C3.683 12 3 11.317 3 10.039 3 8.875 3.717 8 4.863 8c.256 0 .421.056.54.112v.677a1.725 1.725 0 00-.52-.087c-.618 0-.936.604-.936 1.32 0 .795.356 1.28.936 1.28.175 0 .38-.032.52-.093v.663zM9.003 7H8v1.523c-.134-.262-.316-.412-.662-.412-.678 0-1.31.639-1.31 1.97 0 1.144.456 1.918 1.266 1.918h1.711L9.003 7zM8 11.444h-.446c-.386 0-.61-.594-.61-1.352 0-.678.167-1.277.632-1.277.271 0 .385.27.424.575.013.077 0 .162 0 .234v1.82zM11.002 8.571V12H10V8h1.806C12.54 8 13 8.368 13 9.288V12h-1V9.371c0-.396-.081-.8-.503-.8h-.495zM15.997 11.872a1.681 1.681 0 01-.693.128c-1.028 0-1.71-.683-1.71-1.961 0-1.164.717-2.039 1.863-2.039.255 0 .421.056.54.112v.677a1.74 1.74 0 00-.522-.087c-.617 0-.934.604-.934 1.32 0 .795.356 1.28.935 1.28.175 0 .381-.032.52-.093v.663z" fill="#fff"/><defs><linearGradient id="paint0_linear" x1="3.349" y1="3.122" x2="21.904" y2="24.434" gradientUnits="userSpaceOnUse"><stop stop-color="#1A1E21"/><stop offset="1" stop-color="#06060A"/></linearGradient></defs></svg>