<!-- by TradingView --><svg xmlns="http://www.w3.org/2000/svg" width="18" height="18"><path fill="#005B9C" d="M0 0h18v18H0z"/><path d="M10.25 5.71a.62.62 0 00-.2.04L9.27 4c1.37.07 2.6.7 3.46 1.67l-1.93.4a.63.63 0 00-.56-.36zm2.82.39l-2.2.29a.62.62 0 01-.1.3l3.16 3.13a4.98 4.98 0 00-.85-3.72zm.74 4.26L10.54 6.9a.62.62 0 01-.12.05l1.03 6.42c1.14-.64 2-1.71 2.36-3zm-2.87 3.25l-.82-6.66a.62.62 0 01-.07-.02l-2.98 6.68A4.98 4.98 0 009 14a5 5 0 001.94-.4zm-4.36-.24l3.22-6.6a.62.62 0 01-.02-.02l-5.57 3.67a5.02 5.02 0 002.37 2.95zm-2.5-3.51L9.6 6.52 4.85 6.2A4.98 4.98 0 004 9c0 .29.03.58.07.86zM5.23 5.7l4.4.54a.62.62 0 01.1-.28L8.7 4a4.99 4.99 0 00-3.46 1.7z" fill="#fff"/></svg>