<!-- by TradingView --><svg width="18" height="18" xmlns="http://www.w3.org/2000/svg"><path d="M0 0h18v18H0V0z" fill="#D69A00"/><path d="M4.156 9a.26.26 0 00-.217.107L2.215 11.68c-.096.143.024.32.217.32h6.135c.193 0 .313-.177.217-.32L7.06 9.107A.26.26 0 006.843 9H4.156zm7 0a.26.26 0 00-.217.107L9.215 11.68c-.096.143.024.32.217.32h6.136c.192 0 .312-.177.216-.32L14.06 9.107A.26.26 0 0013.843 9h-2.687zm-3.5-4a.26.26 0 00-.217.107L5.715 7.68c-.096.143.024.32.217.32h6.136c.192 0 .312-.177.216-.32L10.56 5.107A.26.26 0 0010.343 5H7.656z" fill="#fff"/></svg>