<!-- by TradingView --><svg width="18" height="18" xmlns="http://www.w3.org/2000/svg"><path fill="#234396" d="M0 0h18v18H0z"/><path d="M6.59 12.61c-.511.488-1.188.902-1.462.902-.091 0-.128-.076-.128-.15 0-.565.603-.846.823-1.297.219-.432.292-.865.457-1.297.164-.432.54-1.1.822-1.465l.933 1.841s-.987 1.015-1.445 1.466zm3.565-2.781a.316.316 0 01.128.244C8.346 11.05 7.322 13.286 5.347 14c-.073-.094-.091-.17-.128-.263 1.92-.695 2.889-2.95 4.936-3.908zM6.397 7c.676-.45 1.309-.647 1.912-.985a2.167 2.167 0 00-.073.6c0 .151.073.47.073.47L6.908 8s-.402-.756-.511-1zm.614 1.965L6.908 8H8.41l-1.4.965zm1.444-.414c.128.338.311.62.567.902.274-.094.329-.432.567-.545l.438.714c-.694.451-1.992 1.522-1.992 1.522l-.933-1.841a6.939 6.939 0 011.353-.752zM8.31 7.086L8.411 8H6.908l1.401-.914zM15 5.056c0 .865-1.152 1.109-1.974 1.109-.42 0-.841-.038-1.243-.056v.056l.365.15c-.018.282-.457.244-.695.357.055.057.147.019.147.094v.019c-.165.188-.384.244-.604.244a.926.926 0 01-.438-.094l-.055.057v.169c0 .131-.037.695-.201.695-.092 0-.147-.075-.238-.132-.073.188-.037.451-.183.602-.128 0-.22-.17-.31-.207-.129.3-.22.601-.421.864-.402-.075-.475-.732-.475-1.127 0-.15.018-.32.054-.489-.146-.225-.274-.526-.274-.826C8.455 5.45 9.597 5 10.402 5c.804 0 1.582.207 2.404.207.732 0 1.5-.075 2.176-.207l.018.056z" fill="#FD0"/></svg>