<!-- by TradingView --><svg width="18" height="18" viewBox="0 0 18 18" xmlns="http://www.w3.org/2000/svg"><path fill="#025696" d="M0 0h18v18H0z"/><path d="M9.6 14.4a1.24 1.24 0 0 1-1.2 0c-.18-.1-.34-.24-.47-.43l-.26.3c.16.23.36.41.6.54a1.53 1.53 0 0 0 1.47 0c.23-.12.43-.31.6-.54l-.27-.3c-.13.19-.3.33-.47.43M12.21 11.75a1.64 1.64 0 0 1-1.28 0 1.4 1.4 0 0 1-.5-.36l-.14-.16-.15.16a1.4 1.4 0 0 1-.5.36 1.64 1.64 0 0 1-1.28 0c-.2-.08-.36-.2-.5-.36l-.15-.16-.14.16c-.14.16-.3.28-.5.36a1.65 1.65 0 0 1-1.28 0 1.4 1.4 0 0 1-.5-.36l-.29.25c.18.2.4.35.64.46a2.02 2.02 0 0 0 2.07-.31 2.02 2.02 0 0 0 2.57 0 2.02 2.02 0 0 0 2.08.3c.25-.1.46-.25.64-.45l-.29-.25a1.4 1.4 0 0 1-.5.36M10.9 13.12a1.6 1.6 0 0 1-1.27 0c-.18-.08-.35-.2-.49-.36L9 12.6l-.14.16c-.14.16-.3.28-.5.36a1.6 1.6 0 0 1-1.25 0c-.19-.08-.36-.2-.5-.36l-.28.25c.18.2.39.35.63.46A1.95 1.95 0 0 0 9 13.16c.14.13.3.23.49.3a1.95 1.95 0 0 0 1.55 0c.24-.1.46-.25.63-.45l-.28-.25c-.14.16-.3.28-.5.36ZM12.8 9.3l-.47-.04V6H5.67v3.26L5 9.32l.29 1.24c.13.12.28.22.45.3l-.29-1.23L9 9.22V11c.48 0 .95-.19 1.27-.53.32.34.79.54 1.26.53.43 0 .88-.15 1.18-.44l.25-1.05.04-.2-.2-.01ZM7.67 9 6 9.23V8.5h1.67V9Zm0-1.75H6v-.94h1.67v.94Zm2.33.94H8v-.63h2v.63Zm0-.94H8v-.94h2v.94Zm2 1.97L10.33 9V8.5H12v.72Zm0-1.05h-1.67v-.6H12v.6ZM7.33 5h.34V3h-.34L7 3.2v.31l.33-.2V5ZM8 4.4c0 .09.01.17.04.24a.57.57 0 0 0 .27.32.47.47 0 0 0 .54-.13.58.58 0 0 0 .12-.2.65.65 0 0 0 .03-.22.6.6 0 0 0-.05-.25.5.5 0 0 0-.15-.2.65.65 0 0 0 .12-.17.64.64 0 0 0-.09-.63.45.45 0 0 0-.15-.12A.4.4 0 0 0 8.5 3a.38.38 0 0 0-.18.04.44.44 0 0 0-.15.12.58.58 0 0 0-.1.19.65.65 0 0 0-.04.22c0 .08.02.15.05.22.03.07.07.13.12.18a.5.5 0 0 0-.15.19.58.58 0 0 0-.05.25Zm.34-1.05c.04-.04.1-.07.16-.07s.12.03.16.07c.03.03.05.06.06.1.01.03.02.07.01.11l-.01.12a.27.27 0 0 1-.06.1.22.22 0 0 1-.16.07.22.22 0 0 1-.16-.08.27.27 0 0 1-.06-.1.3.3 0 0 1-.01-.1l.01-.12a.27.27 0 0 1 .06-.1Zm-.02.83a.25.25 0 0 1 .18-.09c.07 0 .14.04.19.1.03.02.05.06.06.1l.02.12c0 .04 0 .08-.02.12a.3.3 0 0 1-.06.1.26.26 0 0 1-.09.07.23.23 0 0 1-.2 0 .26.26 0 0 1-.08-.07.3.3 0 0 1-.06-.1.34.34 0 0 1-.02-.12c0-.05 0-.09.02-.13a.31.31 0 0 1 .06-.1ZM9.91 4.29c.12 0 .23-.02.34-.06v.18c0 .2-.09.3-.25.3a.21.21 0 0 1-.13-.04.24.24 0 0 1-.1-.12h-.26c.02.13.08.25.18.33.08.07.2.12.3.12.14 0 .26-.05.36-.15a.6.6 0 0 0 .15-.42v-.86a.6.6 0 0 0-.15-.42.49.49 0 0 0-.16-.11.46.46 0 0 0-.2-.04.46.46 0 0 0-.33.15.57.57 0 0 0-.16.42v.17a.6.6 0 0 0 .11.41c.04.05.09.08.14.1.05.03.1.04.16.04m-.16-.71c0-.2.08-.3.24-.3.16 0 .26.1.26.3v.16c0 .2-.1.3-.25.3-.16 0-.25-.1-.25-.3v-.16ZM11.25 3.29h.47L11.12 5h.28l.6-1.71V3h-1v.58h.25v-.3Z" fill="#fff"/></svg>