<!-- by TradingView --><svg width="18" height="18" viewBox="0 0 18 18" xmlns="http://www.w3.org/2000/svg"><path fill="#F0F3FA" d="M0 0h18v18H0z"/><path d="M5.95 4.82a1.92 1.92 0 0 1-.47-.28c-.05-.04-.04-.06.02-.05.3.05.6.05.89 0a.62.62 0 0 0 .2-.07 3.2 3.2 0 0 1 1.16-.4c.44-.06.82.01 1.16.2a1.52 1.52 0 0 1 .77 1.58 2.28 2.28 0 0 1-.48 1.02c-.05.06-.06.14-.02.23a7.46 7.46 0 0 0 .16.38c-.01.02-.02.03-.04.03l-.1-.01a5.82 5.82 0 0 0-.74-.2.95.95 0 0 0-.66.15.7.7 0 0 0-.3.45.93.93 0 0 0 .05.55c.07.19.2.35.38.49l.44.3c.28.18.48.33.6.43.2.19.35.38.45.6v.02l-.03.01c-.5-.09-.96-.25-1.4-.5l-1.08-.6c-.97-.54-1.72-.64-2.27-.3a.97.97 0 0 0-.4.56 2.3 2.3 0 0 0-.1.72 4.72 4.72 0 0 1-.12-1.75 4.8 4.8 0 0 1 .6-1.98 4.65 4.65 0 0 1 1.33-1.58Z" fill="#E64E25"/><path d="M8.63 6.47a.2.2 0 0 0 .07-.25.18.18 0 0 0-.25-.07.2.2 0 0 0-.08.26c.05.1.16.12.26.06Z" fill="#fff"/><path d="M11.26 9.37c-.05-.25 0-.42.17-.51a.48.48 0 0 1 .25-.06c.1 0 .2.02.3.07a1.35 1.35 0 0 1 .67.68c.01.02 0 .04-.02.06-.84.48-1.74.72-2.69.7a.05.05 0 0 1-.04-.04 1.02 1.02 0 0 1-.08-.82 3.53 3.53 0 0 1 .43-.81.92.92 0 0 0 .15-.41.46.46 0 0 0-.14-.4 3.31 3.31 0 0 1-.16-.17c0-.02 0-.03.02-.04.01 0 .04 0 .07-.02a.98.98 0 0 0 .16-.06c.05-.02.1-.06.12-.1a.8.8 0 0 1 .43-.42.88.88 0 0 1 .59-.01c.17.05.3.16.4.32.08.15.13.33.13.53a11.76 11.76 0 0 1 .03.6 2 2 0 0 0 .11.42c.01.03 0 .04-.02.02-.16-.1-.31-.17-.45-.2-.2-.03-.34.02-.44.14a.42.42 0 0 0-.08.27c0 .1.01.19.05.27.05.1.06.1.04 0Z" fill="#E64E25"/><path d="m8.8 12.96.35.04a5.52 5.52 0 0 0 3.9-1.33 4.7 4.7 0 0 1-2.92 2.18 4.98 4.98 0 0 1-5.77-3.1 1.85 1.85 0 0 1-.04-1.1c.13-.38.41-.6.86-.67a3 3 0 0 1 .6 0 4.45 4.45 0 0 1 1.17.4c.34.2.68.39 1.01.56.88.47 1.8.63 2.78.49a5.2 5.2 0 0 0 3.24-1.77l.01.02c.03.27-.04.56-.21.88-.16.3-.34.53-.57.71a5.73 5.73 0 0 1-3.56 1.25 5.9 5.9 0 0 1-1.97-.26h-.05v.03a.1.1 0 0 0 .05.05 5.89 5.89 0 0 0 4.84-.38c.43-.25.8-.54 1.09-.87.02-.03.03-.02.03.01.01.27-.05.53-.18.79-.11.23-.28.45-.49.65-.61.57-1.46.98-2.54 1.23a5.83 5.83 0 0 1-1.63.16v.03Z" fill="#E64E25"/></svg>