<!-- by TradingView --><svg width="18" height="18" xmlns="http://www.w3.org/2000/svg"><path fill="url(#paint0_linear)" d="M0 0h18v18H0z"/><path fill="url(#paint1_linear)" d="M0 0h18v18H0z"/><path d="M9 5.25a3.75 3.75 0 103.75 3.697l1.17-.84a5 5 0 11-1.774-2.994l-1.067.766A3.732 3.732 0 009 5.25z" fill="#fff"/><path d="M13.58 6.992l-4.567 3.275-.006-.01-.007.01-1.866-1.338V7.38l1.873 1.343L12.93 5.91c.26.33.479.693.65 1.082z" fill="#fff"/><defs><linearGradient id="paint0_linear" x1="9" y1="0" x2="9" y2="18" gradientUnits="userSpaceOnUse"><stop stop-color="#0E8FE2"/><stop offset="1" stop-color="#2EAE4C"/></linearGradient><linearGradient id="paint1_linear" x1="3.555" y1="16.694" x2="14.895" y2="7.688" gradientUnits="userSpaceOnUse"><stop stop-color="#EFE436"/><stop offset="1" stop-color="#fff" stop-opacity="0"/></linearGradient></defs></svg>