<!-- by TradingView --><svg width="18" height="18" xmlns="http://www.w3.org/2000/svg"><path fill="#0079C2" d="M0 0h18v18H0z"/><path d="M11.333 4.986c-.243-1.021-.852-1.852-.935-1.986-.133.19-.619.924-.865 1.736a6.054 6.054 0 00-.217 2.504c.093.793.442 1.608.442 1.608.185.425.463.884.643 1.109.265-.331.874-1.318 1.064-2.604.106-.719.11-1.346-.132-2.367zM10.398 9.7c-.12-.216-.305-.625-.323-1.262-.004-.612.252-1.14.326-1.249.067.11.287.568.314 1.196a2.602 2.602 0 01-.317 1.315zm.864-2.982a5.38 5.38 0 01-.119 1.049 6.272 6.272 0 00-.132-1.49c-.102-.465-.389-1.245-.618-1.604-.212.343-.472 1.017-.609 1.601-.137.584-.141 1.293-.141 1.505a7.17 7.17 0 01-.102-1.458c.022-.528.15-1.074.22-1.324.27-.833.575-1.367.632-1.452.057.085.44.744.64 1.434.198.69.238 1.352.23 1.739z" fill="#fff"/><path d="M10.81 10.333H8.963v1.05l.005-.003a1.146 1.146 0 011.576 0 1.038 1.038 0 010 1.511c-.002.004-.004.004-.006.007-.003 0-.005.003-.007.006a2.272 2.272 0 01-1.568.618 2.26 2.26 0 01-1.574-.624 2.073 2.073 0 01-.272-2.704c.078-.113.169-.219.272-.319.435-.418 1.041-.624 1.611-.624V6.39c-2.189 0-4 1.701-4 3.803C5 12.295 6.774 14 8.963 14c1.141 0 2.314-.465 3.037-1.205v-2.462h-1.19z" fill="#fff"/></svg>