<!-- by TradingView --><svg width="18" height="18" xmlns="http://www.w3.org/2000/svg"><path d="M0 0h18v18H0V0z" fill="#ADABB8"/><path d="M4.156 9a.26.26 0 00-.216.107L2.215 11.68c-.095.143.025.321.217.321h6.136c.192 0 .313-.178.217-.321L7.06 9.107A.26.26 0 006.844 9H4.156zm7 0a.26.26 0 00-.216.107L9.215 11.68c-.096.143.025.321.217.321h6.136c.192 0 .313-.178.217-.321L14.06 9.107A.26.26 0 0013.844 9h-2.688zm-3.5-4a.26.26 0 00-.216.107L5.715 7.68c-.095.143.025.321.217.321h6.136c.192 0 .313-.178.217-.321L10.56 5.107A.26.26 0 0010.345 5H7.656z" fill="#fff"/></svg>