<!-- by TradingView --><svg xmlns="http://www.w3.org/2000/svg" width="18" height="18" viewBox="0 0 18 18"><path fill="#1D8C2E" d="M0 0h18v18H0z"/><path d="M8.2 3.07c-.7.12-1.24.34-1.8.71-.25.16-.61.49-1.26 1.12C3.92 6.1 3.57 6.57 3.3 7.33c-.23.64-.29.94-.29 1.64s.04.98.23 1.54c.28.85.53 1.2 1.72 2.4 1.05 1.06 1.41 1.36 2.01 1.64.73.35 1.39.48 2.26.44.9-.03 1.7-.3 2.47-.82a22.6 22.6 0 0 0 2.41-2.4c.6-.8.9-1.71.9-2.75 0-1.25-.4-2.25-1.29-3.24-.54-.61-1.69-1.71-2.02-1.93a4.82 4.82 0 0 0-3.5-.78zm2.96 3.16c-.7-.69-.91-.9-1.45-1.04a2.63 2.63 0 0 0-1.86.23c-.23.12-.48.34-1.1.95-.43.41-.97 1-1.07 1.14-.37.46-.56.98-.56 1.57 0 .6.19 1.12.56 1.58.1.14.62.66.99 1.02.75.73 1.07.89 1.6 1.03.38.1.9.1 1.25.02.62-.15 1.1-.42 2.18-1.52.7-.63.9-1.04 1.07-1.52.1-.27.11-.37.11-.77a2 2 0 0 0-.1-.78c-.16-.47-.53-.83-1.3-1.58l-.14-.15-.18-.18zm-1.2-2.4c.4.1.91.27 1.26.5.33.23 2.03 1.87 2.35 2.28a4.24 4.24 0 0 1 .73 2.36c0 .88-.22 1.67-.72 2.35-.23.3-2.07 2.12-2.36 2.33-.28.2-.89.45-1.26.55-.47.13-1.48.13-1.95 0-.4-.1-.84-.3-1.15-.5a30.3 30.3 0 0 1-2.37-2.3 4.65 4.65 0 0 1-.69-1.42 3 3 0 0 1-.1-1c0-.59.02-.68.12-1 .27-.87.52-1.3 1.7-2.5 1.17-1.18 1.53-1.35 2.3-1.6.6-.2 1.51-.22 2.14-.06zm-2.7 1.1c.32-.2.75-.38 1.1-.45.45-.1 1.1-.09 1.54.02.76.2 1.07.52 2.1 1.57a31.66 31.66 0 0 0 .15.14c.92.93 1.15 1.17 1.37 1.98.1.38.1 1.15-.02 1.56a3.5 3.5 0 0 1-.58 1.2 21.7 21.7 0 0 1-2.12 2.07c-1.11.75-2.6.76-3.72.02a20 20 0 0 1-2.03-2 2.84 2.84 0 0 1-.64-1.77c0-.88.2-1.57.7-2.23.28-.36 1.89-1.93 2.16-2.1zM7.15 6.9c-1 1.01-1.1 1.15-1.25 1.63a2.07 2.07 0 0 0 2.24 2.58c.52-.08.84-.26 1.4-.82L10 9.8l-.27-.7c-.02-.02-.21.18-.54.5l-.05.05c-.66.66-.83.76-1.28.76-.5 0-.97-.38-1.2-.84a.98.98 0 0 1-.13-.52c0-.45.2-.67 1.1-1.56l.78-.78-.26-.7c-.03-.1-.11-.02-1 .88zm2.53.05c-.42.12-.65.27-1.16.77l-.49.48.27.66c.02.07.12-.01.6-.5.67-.66.83-.76 1.29-.76.69 0 1.3.64 1.29 1.34 0 .47-.07.57-.97 1.48-.44.44-.8.82-.8.85l.2.76c.03.04 1.83-1.8 1.98-2.03.23-.35.31-.69.3-1.2a1.99 1.99 0 0 0-2.51-1.85z" fill="#fff"/></svg>