<!-- by TradingView --><svg width="18" height="18" viewBox="0 0 18 18" xmlns="http://www.w3.org/2000/svg"><path fill="url(#amhmfmyld)" d="M0 0h18v18H0z"/><path d="M4 4v5.66c0 1.3.63 2.5 1.65 3.17L9 15l3.35-2.17A3.76 3.76 0 0 0 14 9.66V4H4Z" fill="#fff"/><path d="M6 6h6v2.4c-.33-.35-.77-.4-1.23-.4H10v2.66c0 .5.14.99.47 1.34H7.56c.33-.35.44-.84.44-1.34V8h-.77c-.46 0-.9.05-1.23.4V6Z" fill="#333"/><defs><linearGradient id="amhmfmyld" x1="2.57" y1="2.57" x2="15.59" y2="15.59" gradientUnits="userSpaceOnUse"><stop stop-color="#FDE76D"/><stop offset="1" stop-color="#FEDD2C"/></linearGradient></defs></svg>