<!-- by TradingView --><svg xmlns="http://www.w3.org/2000/svg" width="18" height="18"><path fill="#F0F3FA" d="M0 0h18v18H0z"/><path d="M8.43 11.82a4.6 4.6 0 01-2.6-3.06 1.9 1.9 0 01.27-1.42c.17-.27.38-.3.38-.3s-.21-.1-.5-.14c-.36-.06-.83-.02-1.13.45a4.59 4.59 0 001.42 5.37c.37.28.78.5 1.22.65l.19.06a5.28 5.28 0 00.61.13l.17.02.25.02h.41l.25-.03h.02l.2-.03.12-.02h.02a4.59 4.59 0 002.54-1.6c-1.08.54-2.5.54-3.84-.1zM6.08 6.58A4.13 4.13 0 018.83 5a4 4 0 013.03.88 4.3 4.3 0 00-6.64.82c.27-.13.57-.16.86-.12z" fill="#024278"/><path d="M8.64 11.49c.55.32 1.15.5 1.74.55.25-.06.49-.15.7-.28.84-.54 3.32-4.07 3.32-4.07s-1.35-.28-1.94.16c-.58.44-1.03 1.13-1.68 1.89-.64.75-.93 1.23-1.5 1.38-.43.1-.83.09-1.2 0 .18.13.36.25.56.37z" fill="#024278"/><path d="M12.65 11.65c.53-.4 1.74-2.1 1.74-2.1s-.93-.49-1.78 0c-.85.51-.82.64-1.66 1.35-.84.71-1.46.8-1.93.75h-.07c1.2.57 2.78.67 3.7 0z" fill="#EE2121"/><path d="M14.39 4.67s-1.34-.37-2.4.57c-.77.69-2.43 5.26-3.72 5.52-.2.04-.41.05-.62.04.22.02.47 0 .77-.05 1.3-.26 3.02-4.48 3.81-5.13.8-.64 1.75-.48 1.75-.48l-.8 1.46 1.2-1.93z" fill="#024278"/></svg>