<!-- by TradingView --><svg xmlns="http://www.w3.org/2000/svg" width="18" height="18"><path fill="#07F" d="M0 0h18v18H0z"/><path fill-rule="evenodd" d="M4.54 4.85C4 5.49 4 6.45 4 8.39V9.6c0 1.93 0 2.9.54 3.54.09.12.2.22.3.31.65.54 1.62.54 3.55.54H9.6c1.93 0 2.9 0 3.54-.54.12-.09.22-.2.31-.3.54-.65.54-1.62.54-3.55V8.4c0-1.93 0-2.9-.54-3.54-.09-.12-.2-.22-.3-.32C12.5 4 11.53 4 9.6 4H8.4c-1.93 0-2.9 0-3.54.53-.12.1-.22.2-.31.32zM5.7 7.48c.05.69.28 1.44.6 1.95.59.97 1.49 1.47 2.8 1.54l.22.02V9.55l.16.02c.63.08 1.27.58 1.54 1.22l.08.2h.2c.33 0 .95.02.95 0a3.26 3.26 0 00-1.6-1.96l-.08-.05.13-.1A3 3 0 0012 7.1V7h-1.05l-.08.2c-.2.5-.67 1.04-1.08 1.24-.15.07-.3.11-.47.13V7h-.97v2.77l-.15-.05c-.4-.15-.78-.52-1.01-.96-.2-.37-.34-.96-.38-1.48L6.8 7H5.67l.04.48z" fill="#fff"/></svg>