<!-- by TradingView --><svg width="18" height="18" viewBox="0 0 18 18" xmlns="http://www.w3.org/2000/svg"><path fill="#F0F3FA" d="M0 0h18v18H0z"/><path d="M7.67 5c2.93 0 4.1 2 4.33 3-.8-1.07-2.56-1.33-3.33-1.33h-3.5c.05.33.23 1.46.5 3.33.26 1.87 1.22 2.78 1.66 3a4.12 4.12 0 0 1-3.66-3.33L3 5h4.67Z" fill="#60AD31"/><path d="M7.67 9h1l1 1.33 1-1.33h1l-1.5 2 1.5 2h-1l-1-1.33-1 1.33h-1l1.5-2-1.5-2ZM14.83 9.62 15 9h-2.67L12 11.15h.67c.16-.1.56-.3.83-.3.67 0 .83.3.83.77 0 .46-.16.76-.83.76a.86.86 0 0 1-.83-.61H12c0 .46.5 1.23 1.5 1.23s1.5-.77 1.5-1.38c0-.62-.5-1.39-1.33-1.39-.67 0-.95.2-1 .3l.16-.91h2Z"/></svg>