<!-- by TradingView --><svg xmlns="http://www.w3.org/2000/svg" width="18" height="18"><path fill="url(#attoqjems)" d="M0 0h18v18H0z"/><ellipse cx="9" cy="9" rx="4" ry="6" fill="#E21C2A"/><ellipse cx="9" cy="9" rx="3.58" ry="5.53" fill="#1F211D"/><path d="M12.08 10.54A3.55 3.55 0 019 12.25c-1.33 0-2.5-.69-3.08-1.7.4 2.15 1.63 3.73 3.08 3.73 1.45 0 2.68-1.58 3.08-3.74zm0-3.1A3.55 3.55 0 009 5.74c-1.33 0-2.49.69-3.08 1.7C6.32 5.3 7.55 3.72 9 3.72c1.45 0 2.68 1.57 3.08 3.72z" fill="#fff"/><path d="M11.15 6.67c-.27-.22-.58-.4-.92-.52V8.6h-.92v.69h.93v2.55c.34-.13.64-.3.91-.52V9.3h.16v1.9a3 3 0 00.94-1.6h-.94v-.3h1a2.86 2.86 0 00-.02-.7h-.98v-.2h.94a3 3 0 00-.94-1.6v1.8h-.16V6.68zm-1.07 5.23V9.47H9.3v2.59c.26-.03.52-.08.77-.16zm-1.39.16V5.94c-.2.02-.41.06-.61.11v5.9c.2.05.4.09.61.1zm-1.23-.34V6.28c-.22.1-.43.24-.62.39v4.66c.2.15.4.28.62.39zm-1.23-1.03V7.31a2.9 2.9 0 000 3.38zm3.08-4.75v2.5h.77V6.1c-.25-.08-.5-.13-.77-.16z" fill="#E21C2A"/><path d="M10.08 6.1c-.25-.08-.5-.13-.77-.16v2.5h.77V6.1zm0 3.37H9.3v2.58c.27-.02.52-.07.77-.15V9.47zm1.23 1.73a3 3 0 00.97-1.73h-.97v1.73zm0-2.76h.95a3 3 0 00-.95-1.64v1.64z" fill="#fff"/><defs><linearGradient id="attoqjems" x1="3.35" y1="3.12" x2="21.9" y2="24.43" gradientUnits="userSpaceOnUse"><stop stop-color="#1A1E21"/><stop offset="1" stop-color="#06060A"/></linearGradient></defs></svg>