<!-- by TradingView --><svg width="18" height="18" xmlns="http://www.w3.org/2000/svg"><path fill="#DE3F6B" d="M0 0h18v18H0z"/><path d="M5.873 6.107h-.526c-.705.053-1.37.35-1.877.838a2.98 2.98 0 00-.899 1.835v.451c.078.697.4 1.346.91 1.832s1.177.78 1.884.83h.467c1.146-.099 2.104-.822 2.806-1.655l-.52-.735a3.788 3.788 0 01-1.812 1.545c-.707.249-1.526.087-2.11-.347a2.118 2.118 0 01-.784-1.117 2.098 2.098 0 01.065-1.36 2.29 2.29 0 011.166-1.176 2.324 2.324 0 011.663-.09c.82.295 1.353 1.001 1.85 1.662l.113.149c.177.224.345.456.513.688.427.589.853 1.178 1.428 1.643.562.463 1.257.74 1.987.793h.438a3.103 3.103 0 002.3-1.315h-.99c-.698.594-1.776.783-2.601.296-.927-.54-1.526-1.385-2.126-2.23-.368-.52-.737-1.04-1.182-1.49-.567-.572-1.333-.972-2.163-1.047zm8.548 3.896h.829V10h.179V9c-.083-.7-.409-1.566-.923-2.055a3.082 3.082 0 00-1.894-.838h-.439v.006c-1.157.104-2.11.839-2.793 1.695.16.234.324.465.49.694a3.754 3.754 0 011.748-1.47 2.348 2.348 0 011.469-.043c.481.143.903.436 1.202.836.205.32.38.629.38 1.175H12v1h2.422v.003z" fill="#fff"/></svg>