<!-- by TradingView --><svg width="18" height="18" xmlns="http://www.w3.org/2000/svg"><path fill="url(#paint0_linear)" d="M0 0h18v18H0z"/><path d="M11.752 10.687c.51 1.257.841 1.517 1.2 1.517.064 0 .064.296 0 .296H10.2c-.065 0-.065-.296 0-.296.596 0 .936-.029.578-.89L8.676 6.197l-1.744 4.575c-.39 1.058.047 1.433.86 1.433.065 0 .065.296 0 .296H5.041c-.055 0-.055-.296 0-.296.585 0 .897-.22 1.45-1.716l2.376-5.943c.011-.053.174-.066.195 0l2.69 6.142z" fill="#fff"/><defs><linearGradient id="paint0_linear" x1="3.349" y1="3.122" x2="21.904" y2="24.434" gradientUnits="userSpaceOnUse"><stop stop-color="#1A1E21"/><stop offset="1" stop-color="#06060A"/></linearGradient></defs></svg>