<!-- by TradingView --><svg width="18" height="18" xmlns="http://www.w3.org/2000/svg"><path d="M0 9a9 9 0 1118 0A9 9 0 010 9z" fill="#2075E8"/><path d="M9.83 3.188l4.183 2.014c.297.143.547.36.722.628.174.268.266.576.265.89V8h-1V6.72c0-.095.012-.187-.078-.23l-4.81-2.314a.295.295 0 00-.251 0L4.09 6.49c-.09.043-.091.135-.091.23V8H3V6.72c0-.314.091-.622.265-.89.175-.268.425-.485.722-.628l4.184-2.014a1.917 1.917 0 011.658 0zM10 9c-.003-.653-.5-1-1-1s-.994.356-1.002 1c-.007.644.429 1 1.002 1s1.002-.347 1-1zm3.922 2.51c.09-.043.078-.135.078-.23V10h1v1.28c0 .314-.091.622-.265.89a1.77 1.77 0 01-.722.628L9.83 14.812a1.924 1.924 0 01-1.66 0l-4.182-2.014a1.77 1.77 0 01-.723-.628A1.62 1.62 0 013 11.28V10h1v1.28c0 .098-.012.186.08.23L8.5 13.63V11C7.466 10.55 7 10.079 7 9s.666-2.019 2-2c1.335.019 2 1 2 2s-.56 1.589-1.5 2v2.631l4.422-2.121z" fill="#fff"/></svg>