<!-- by TradingView --><svg width="18" height="18" viewBox="0 0 18 18" xmlns="http://www.w3.org/2000/svg"><path fill="url(#adk1esjok)" d="M0 0h18v18H0z"/><path d="M13.95 7.08c-.03.16-.06.23-.1.32-.05.1-.1.21-.15.43a2.8 2.8 0 0 0-.04.2v.01a1.25 1.25 0 0 1-.3.65c-.1.13-.3.35-.54.37h-.08c-.7-.31-1.31-.55-1.52-.6-.25-.06-.22-.52-.19-.93.01-.18.03-.35.02-.5-.04-.51-.14-1.08-.66-1.35-.3-.16-.7-.21-1.08-.21l.23-.11c.23-.12.5-.26.78-.28l.27-.03c.55-.05 1.03-.1 1.54.05.23.07.7.3.82.51.08.15.23.27.52.5l.32.24c.1.08.12.1.15.15.1.16.06.34.01.58ZM11.38 9.19c.04.01.05.05.03.09a5.9 5.9 0 0 0-.39.6.93.93 0 0 0-.16.5c0 .15-.01.22-.11.28-.08.04-.17.06-.75.14a.72.72 0 0 0-.2.05c-.04.01-.08-.02-.08-.05v-.53c0-.13 0-.19.03-.24.05-.07.09-.09.15-.12.09-.05.2-.12.38-.33.1-.1.12-.17.13-.22 0-.02 0-.03.08-.08.07-.05.3-.2.6-.16l.29.07ZM9.08 11.52a.06.06 0 0 1-.04.02c-.06 0-.1-.01-.14-.04-.06-.06-.05-.2-.03-.27l.24-.05c.02.11.03.28-.03.34ZM9.1 10.75V11a.67.67 0 0 1-.23.02v-.31a1 1 0 0 0 .08 0 .6.6 0 0 1 .16-.02.6.6 0 0 1 0 .05ZM8.65 11.45c-.01.11-.05.25-.17.27-.05 0-.08 0-.1-.02-.07-.06-.08-.26-.07-.4.05 0 .12 0 .2-.02.05 0 .1-.02.14-.03v.2ZM8.6 11.06l-.27.08a4.8 4.8 0 0 0 .07-.38h.02l.17-.01v.31ZM8.17 10.99c-.02.03-.04.13-.05.2H7.8c.02-.1.04-.19.07-.26.03-.07.06-.13.1-.14.02-.02.1-.02.14 0 .08.06.1.13.07.2ZM8.04 11.87a.13.13 0 0 1-.09.05c-.04 0-.06 0-.09-.02-.1-.08-.1-.36-.09-.49.14-.03.29-.05.36-.05.01.1.01.4-.09.51ZM7.6 11.17l-.04.1a.9.9 0 0 1-.28-.01l.09-.46c.13-.03.3-.04.33 0 .05.04-.05.27-.1.37ZM7.46 11.94c-.07.07-.17.1-.3.1-.1 0-.13-.03-.14-.05-.08-.1 0-.35.07-.5l.45.02v.1c.01.1 0 .25-.08.33Z" fill="#fff"/><path d="M11.18 8.64c-.4-.1-.37-.62-.33-1.12 0-.18.02-.34.01-.48-.03-.47-.12-.98-.55-1.2-.47-.25-1.23-.2-1.7-.15-.17.05-.33.08-.46.07-.27 0-.49-.11-.68-.2a1.01 1.01 0 0 0-.4-.13h-.02c-.36.02-.53.1-.68.22-.04.03-.08.11-.24.5-.07.19-.09.3-.1.4-.02.09-.03.18-.09.33l-.1.27c-.07.22-.13.39-.3.6-.03.02-.05.05-.08.1l-.16.2a.87.87 0 0 0-.15.33c.01.1.05.17.1.24.04.07.08.16.1.27v.02c.01.18-.02.27-.41.58-.26.2-.44.38-.56.52 0 .02 0 .03.02.03h.01a.35.35 0 0 1 .07 0c.1.01.2.05.26.1.01.02.03.02.04.02a.48.48 0 0 1 .2-.02c.09 0 .17.03.22.07a.1.1 0 0 0 .08.02.4.4 0 0 1 .2.01c.04.02.08.04.1.07.04.02.09.03.13.01a.3.3 0 0 1 .04-.02.46.46 0 0 1 .27.02l.12.04c.06.04.1.09.13.15.02.04.09.05.13.03.05-.04.1-.04.14-.02l.04.02c.03.03.08.07.13.06.13-.03.29-.01.4.04.04.02.09.05.12.1v-.03l.02-.01.03-.01c.06-.02.4-.1.53.02h.02a.18.18 0 0 1 .04-.04.33.33 0 0 1 .33.03c.02.01.05 0 .07-.01l.03-.03a.19.19 0 0 1 .12-.03l.19-.01a3.08 3.08 0 0 0 .24-.02l.07-.02c.09-.01.19-.03.27 0 .08.03.07.11.06.18v.13l-.01.16v.03c.01.03.05.05.09.04a.62.62 0 0 0 .15-.11l.01-.05c.01-.06.03-.18.03-.43v-.25c-.02-.14-.02-.24.05-.35.08-.1.15-.14.22-.18a.98.98 0 0 0 .41-.43c.02-.07.05-.1.16-.19.1-.06.38-.25.77-.19a3.52 3.52 0 0 1 .53.15.14.14 0 0 1 .04 0c.17.07.34.14.45.2.04 0 .08 0 .1-.03a.4.4 0 0 1 .11-.08l.04-.02c.04-.03.04-.09 0-.1a7.63 7.63 0 0 0-1.22-.42Zm-3.87.1c-.12.48-.97 1-1.36 1a.2.2 0 0 1-.05 0h-.02a.68.68 0 0 1-.24-.13.3.3 0 0 1-.1-.15v-.03a.44.44 0 0 1 .03-.35l.03-.06V9a3.82 3.82 0 0 0 .07-.13l.03-.1.01-.07.05-.24a.65.65 0 0 1 .11-.32.28.28 0 0 1 .06-.06l.02-.01a.38.38 0 0 1 .06-.03h.02a.78.78 0 0 1 .3-.02 1.7 1.7 0 0 1 .51.1l.04.02.05.02a.97.97 0 0 1 .26.15c.16.15.15.33.12.43Zm.4-1.8-.02.08c-.04.2-.12.46-.45.53-.3.07-.38.08-.6.09h-.02c-.16 0-.47-.09-.53-.3-.03-.15.04-.25.16-.42l.06-.1c.16-.23.22-.4.27-.53a.71.71 0 0 1 .2-.32.56.56 0 0 1 .23-.13.86.86 0 0 1 .23-.03c.15 0 .3.04.4.12.05.03.12.1.16.3.02.1-.01.29-.1.7Zm2.3.55c-.1.16-.17.26-.26.32-.2.14-.42.17-.6.17l-.3-.02c-.2-.03-.55-.09-.67-.33a.23.23 0 0 1-.02-.12l-.02-.25v-.01a.64.64 0 0 1 0-.25v-.01c.07-.3.09-.34.1-.37.04-.05.12-.08.18-.05.07.03.1.1.07.16l-.08.3v.02a.44.44 0 0 0 0 .17v.01l.02.28v.02c.02.05.06.08.11.1.05.03.1-.01.09-.05-.06-.26-.05-.55.06-.73l.17-.26.02-.03.02-.03a11.27 11.27 0 0 1 .09-.13L9 6.38h.01v-.01l.01-.01.05-.07c.04-.04 0-.1-.06-.07a.9.9 0 0 0-.17.09.15.15 0 0 1-.19-.02c-.05-.05-.04-.13.02-.17.07-.04.44-.28.88-.17.32.08.49.3.55.37.05.07.2.26.2.54 0 .2-.1.35-.28.63Z" fill="#fff"/><path d="M7.14 6.06a11.6 11.6 0 0 0-.26.54l-.15.23c-.05.06-.08.11-.1.18a.67.67 0 0 0-.03.4c-.09-.01-.23-.07-.24-.13-.02-.05.02-.1.12-.24l.06-.1c.18-.25.25-.44.3-.57.05-.15.08-.22.17-.27a.39.39 0 0 1 .13-.04ZM6.98 11.34c-.1.17-.21.32-.29.4a1.69 1.69 0 0 1-.13-.75.46.46 0 0 1 .08-.21c.03-.04.1-.07.2-.07a.5.5 0 0 1 .2.05c.04.01.08.04.09.14 0 .12-.07.29-.15.44Z" fill="#fff"/><path d="M12.12 9.48v.02c-.02.04-.06.08-.1.12-.04.05-.1.1-.15.2-.07.12-.1.23-.1.52-.02.34 0 .53 0 .67.02.14.02.22 0 .35-.06.27-.2.44-.36.66-.2.28-.42.57-.77.66l-.13.01-.47.01c-.46.01-.7.02-.89.05-.2.04-.32.08-.42.12l-.36.1c-.1 0-.26.03-.78.03-.54 0-.87 0-1.3-.04-.6-.06-.9-.1-1.1-.18-.46-.22-.66-.61-.99-1.26 0 0 0-.02.02-.01l.04.02a.3.3 0 0 0 .16 0h.01c.03.06.06.1.11.13l.18.03c.07 0 .13 0 .2-.02.03 0 .06.02.08.04.05.13.13.21.23.23h.03a.2.2 0 0 0 .1-.03c.04-.02.12 0 .16.03a.5.5 0 0 0 .07.06c.11.1.38.15.61.15.13 0 .24-.02.3-.05.1-.03.1-.1.1-.12a3.57 3.57 0 0 1-.02-.13c.01.02.03.05.08.06h.01c.07 0 .16.02.18.07 0 .03.02.06.04.08.04.05.11.11.27.12.18 0 .32-.05.41-.15L7.6 12c.03-.04.13-.05.17-.01a.27.27 0 0 0 .2.05c.09 0 .15-.04.2-.1a.45.45 0 0 0 .08-.15c0-.01.03-.02.05 0 .03.02.08.05.16.05h.06c.16-.03.23-.14.27-.27a.3.3 0 0 0 .24.1l.02-.01c.07 0 .12-.03.16-.07a.35.35 0 0 0 .08-.21c0-.03.02-.06.05-.07a.83.83 0 0 0 .33-.22.1.1 0 0 1 .06-.04L9.9 11a.5.5 0 0 1 .13-.03c.6-.08.7-.1.84-.17.19-.11.2-.26.2-.41.01-.12.02-.27.13-.43l.14-.22c.08-.13.2-.32.29-.43.02-.02.05-.03.08-.02.2.08.37.15.4.18Z" fill="#fff"/><path d="M6.4 11a3 3 0 0 0 .04.99.7.7 0 0 1-.26.03c-.21 0-.42-.05-.48-.11l-.01-.01c-.05-.04-.09-.06-.1-.13l.04-.07.05-.06.13-.16a3.37 3.37 0 0 1 .26-.35 4.2 4.2 0 0 0 .27-.35l.12-.12c0 .03 0 .07-.02.11l-.03.23ZM6.3 8.25l-.1.15c-.1.2-.1.3-.1.4l-.01.12a.94.94 0 0 1-.05.1.75.75 0 0 0-.1.49c-.05-.03-.12-.07-.13-.1a.8.8 0 0 0-.01-.03c-.02-.07-.03-.1.02-.2a1.2 1.2 0 0 0 .16-.43l.05-.25c.02-.1.03-.18.07-.23.01-.02.05-.03.11-.03h.09ZM6.14 10.74a.6.6 0 0 0-.04-.18l-.01-.02-.02-.02a.18.18 0 0 0-.03-.03h-.03v-.01l-.13-.03H5.8l-.01.01h-.01l-.02.02-.01.01a3.1 3.1 0 0 1-.17.23l-.11.14-.07.07v.02h.07a4.18 4.18 0 0 0 .52.05 5.4 5.4 0 0 0 .17-.22.1.1 0 0 1-.02-.04ZM5.74 11.15c-.01.08-.11.27-.26.46-.13.16-.21.2-.23.2-.06-.01-.12-.14-.17-.27l-.05-.16a.93.93 0 0 1-.03-.32c.13.07.35.08.67.08h.07ZM5.51 10.52l-.17.22-.08.1-.06.07-.13-.03a1.25 1.25 0 0 1-.13-.04.08.08 0 0 0-.03-.03l.04-.07.08-.12a.6.6 0 0 1 .19-.2h.01a.27.27 0 0 1 .1-.04H5.4l.03.01.03.02.02.02c.03.03.03.05.04.1ZM5.08 10.32a.9.9 0 0 0-.24.27l-.1.17v.02a1.12 1.12 0 0 1-.24-.07l.1-.15.16-.19.08-.06c.03-.02.07-.02.1-.01l.12.01.02.01ZM4.92 11.5l-.02.02a2 2 0 0 1-.22 0l-.07-.01-.02-.1c-.04-.15-.04-.3-.02-.46.1.03.19.06.28.07a1.12 1.12 0 0 0 .07.49ZM4.62 10.27a2.4 2.4 0 0 0-.21.27l-.08.12a.37.37 0 0 1-.1-.03.89.89 0 0 1-.06-.04l-.03-.02.02-.06a1.27 1.27 0 0 1 .18-.26l.06-.05h.08c.06.01.1.03.14.07ZM4.4 10.9a1.53 1.53 0 0 0 0 .49H4.34c-.02 0-.02 0-.03-.02a.15.15 0 0 1-.05-.04.31.31 0 0 1-.04-.16c0-.11 0-.22.03-.32l.06.02.09.03Z" fill="#fff"/><defs><linearGradient id="adk1esjok" x1="9" y1="18" x2="9" y2="0" gradientUnits="userSpaceOnUse"><stop stop-color="#073183"/><stop offset="1" stop-color="#0054F9"/></linearGradient></defs></svg>