<!-- by TradingView --><svg xmlns="http://www.w3.org/2000/svg" width="18" height="18"><path fill="#F6B817" d="M0 0h18v18H0z"/><path d="M13.27 9a9.7 9.7 0 01-4.28 5.95L8.9 15l-.08-.05A9.7 9.7 0 014.55 9h8.72z" fill="#971A2E"/><path d="M8.9 3l.12.14c.13.17.38.38.7.6a11.42 11.42 0 003.47 1.64l.1.02.02.1c.44 2.1.3 6.47-4.32 9.45L8.9 15l-.08-.05C4.2 11.97 4.06 7.6 4.5 5.49l.02-.1.1-.01A11.42 11.42 0 008.1 3.75c.31-.23.56-.44.7-.6L8.9 3zM4.79 5.65c-.4 2.05-.21 6.15 4.13 9 4.33-2.85 4.53-6.95 4.13-9a11.71 11.71 0 01-3.48-1.66 4.73 4.73 0 01-.65-.53c-.16.16-.39.34-.65.53a11.71 11.71 0 01-3.48 1.66z" fill="#1D1C1A"/><path opacity=".6" fill="#F6B817" d="M7 10h4v2H7z"/><path d="M10.61 7.9l.33.36c.17.2.17.42.12.65 0 .02-.03.04-.05.04h-.28c-.04 0-.05-.04-.07-.07a.1.1 0 010-.07c.02-.07-.01-.13-.05-.2-.04-.06-.04-.07.02-.12.06-.07.09-.14.07-.23l-.06-.22c0-.03-.03-.05-.05-.08v-.04l.02-.01z" fill="#F6B817"/><path d="M4.65 9h8.36v.3H4.65V9z" fill="#1D1C1A"/><path d="M6.69 5.94c-.06.17.76.07.76.07h1.32s1.47-.03 2.17.17c.4.12.67.26.76.66.05.28.07.55.07.83 0 .04 0 .07.03.1l.2.25c.2.25.35.38.25.7l-.08.28h-.48c.12 0 .09-.36.1-.4a.33.33 0 00-.14-.34l-.22-.16-.11-.08c.06.1.12.18.2.26.06.07.08.15.04.24-.06.17-.16.34-.22.48h-.33c.02 0 .04-.07.05-.08.05-.22.05-.44-.12-.63-.67-.75-.06-.03-.31.22-.06.05-.06.05-.02.12.05.09.02.17.05.25.02.03.07.11.12.12h-2.3c-.1-.16 0-.23.09-.27-.06-.07-.22-.26-.1-.32.1-.05.16-.09.23-.17.08-.09.06-.2.18-.27.09-.06.16-.02.25.01.02-.07.04-.09.09-.08.06 0 .17.1.16.15 0 .1.15.21.19.29.02.04.02.1-.03.14-.08.05-.17.04-.26.04 0 .05-.01.28.04.29.14.03.2.15.36.14h.11a1.28 1.28 0 01-.1-.24c-.02-.08 0-.13.08-.16.06-.03.14-.04.2-.08l-.27-.22c-.02-.04-.04-.06-.09-.06a.26.26 0 01-.17-.07c-.08-.08.02-.14.1-.17.1-.03.2-.1.3.05.06.1.13 0 .2-.06-.02-.13-.03-.4-.25-.42l-.1.17c-.07.14-.1.15-.23.05l-.18-.16c-.03-.03-.05-.02-.08.02l-.1.16c-.06.1-.14.1-.21 0a.45.45 0 00-.09-.08c-.17-.12-.21.11-.3.2-.06.05-.1.05-.15 0-.05-.06-.09-.12-.15-.17-.01.17-.08.3-.13.45-.09.24-.15.48-.13.74 0 .04.02.1.05.1h-.71c.11 0 .16-.05.17-.16.05-.36.07-.72.07-1.08 0-.13-.04-.22-.17-.28a4.58 4.58 0 00-1.8-.43c-.1-.02-.04-.25-.1-.34a.46.46 0 01-.05-.1c-.03-.13-.02-.16.08-.24.04-.03.08-.3.1-.36l.03-.1c.03-.05.17-.33.23-.33l.11.3h.3c.02 0 .04 0 .04-.04-.03-.37.52-.3.4.1z" fill="#7B7B7B"/></svg>