<!-- by TradingView --><svg width="18" height="18" viewBox="0 0 18 18" fill="none" xmlns="http://www.w3.org/2000/svg">
<rect width="18" height="18" fill="#F0F3FA"/>
<path fill-rule="evenodd" clip-rule="evenodd" d="M9 15C12.3137 15 15 12.3137 15 9C15 5.68629 12.3137 3 9 3C5.68629 3 3 5.68629 3 9C3 12.3137 5.68629 15 9 15ZM8.99999 13.6473C11.5666 13.6473 13.6473 11.5666 13.6473 8.99996C13.6473 6.43331 11.5666 4.35262 8.99999 4.35262C6.43334 4.35262 4.35266 6.43331 4.35266 8.99996C4.35266 11.5666 6.43334 13.6473 8.99999 13.6473Z" fill="url(#paint0_linear_2363_47902)"/>
<circle cx="11.0589" cy="11.5858" r="1.01613" fill="url(#paint1_linear_2363_47902)"/>
<path d="M10.451 3.23199C11.4286 3.30182 12.5846 4.16303 13.0405 4.5849L13.6224 5.21044C12.5604 4.71583 11.6294 4.16303 10.451 4.19212C9.27268 4.22122 7.75974 5.41411 7.87612 7.63986C7.9925 9.86562 9.7091 11.0731 10.9456 11.4804C11.9349 11.8062 12.035 11.3582 11.9478 11.0867C12.3466 11.8629 11.8185 12.6296 10.9456 12.7024C10.2474 12.7606 9.33571 12.2514 8.96718 11.9895C7.97796 11.2961 6.10425 9.28954 6.52321 6.81066C7.04692 3.71206 9.22903 3.14471 10.451 3.23199Z" fill="url(#paint2_linear_2363_47902)"/>
<circle cx="5.70593" cy="9.57757" r="1.02494" transform="rotate(118.455 5.70593 9.57757)" fill="url(#paint3_linear_2363_47902)"/>
<path d="M13.352 13.0199C12.8248 13.8461 11.5138 14.4855 10.9258 14.6853L10.0985 14.8988C11.0394 14.2008 11.972 13.6122 12.5078 12.5624C13.0437 11.5125 12.7158 9.61401 10.7035 8.65584C8.69114 7.69767 6.81167 8.63159 5.86439 9.52466C5.10656 10.2391 5.46076 10.5443 5.7411 10.597C4.88366 10.597 4.4381 9.74448 4.79003 8.94243C5.07157 8.30078 5.95359 7.74187 6.3594 7.54262C7.44039 7.0033 10.0973 6.31201 12.0771 7.86146C14.5518 9.79827 14.011 11.9871 13.352 13.0199Z" fill="url(#paint4_linear_2363_47902)"/>
<circle cx="10.1824" cy="5.91452" r="1.02494" transform="rotate(-120.996 10.1824 5.91452)" fill="url(#paint5_linear_2363_47902)"/>
<path d="M3.33153 10.7497C2.88795 9.8757 2.9784 8.42041 3.1053 7.81243L3.34185 6.99148C3.46475 8.15651 3.5228 9.26011 4.15456 10.2552C4.78631 11.2503 6.58799 11.9329 8.43598 10.6869C10.284 9.44094 10.435 7.34766 10.1474 6.07794C9.91726 5.06216 9.4613 5.22212 9.27347 5.43679C9.72211 4.65814 10.683 4.7379 11.1949 5.44865C11.6043 6.01725 11.6373 7.06091 11.6027 7.51167C11.5177 8.71674 10.7626 11.3562 8.4219 12.2737C5.49607 13.4204 3.886 11.8421 3.33153 10.7497Z" fill="url(#paint6_linear_2363_47902)"/>
<path d="M12.3484 4.61901C10.0912 3.50767 8.74442 4.76619 8.35315 5.53437C9.60234 3.8975 11.2787 4.73747 11.9607 5.36207L12.3484 4.61901Z" fill="url(#paint7_linear_2363_47902)"/>
<path d="M11.0375 14.1472C13.2142 12.7461 12.8528 10.9787 12.4188 10.2339C13.1188 12.1703 11.5001 13.1364 10.6057 13.3717L11.0375 14.1472Z" fill="url(#paint8_linear_2363_47902)"/>
<path d="M3.54723 8.0775C3.57361 10.666 5.19494 11.3276 6.13476 11.3495C4.12302 10.9105 4.23972 9.0315 4.41052 8.13685L3.54723 8.0775Z" fill="url(#paint9_linear_2363_47902)"/>
<path d="M10.0538 4.89722C10.5539 5.32864 11.244 6.57962 10.634 8.78934C9.81523 11.7556 7.1734 12.1727 5.84476 12.0028L5.90548 11.3227C6.65233 11.442 7.53873 11.2917 8.43605 10.6867C10.284 9.44077 10.4351 7.3475 10.1474 6.07778C9.91733 5.062 9.46129 5.22814 9.27347 5.44281C9.48552 5.05987 9.7572 4.93915 10.0538 4.89722Z" fill="url(#paint10_linear_2363_47902)"/>
<path d="M12.5464 10.5351C12.2733 9.82313 11.6914 9.12609 10.7035 8.65569C8.69116 7.69751 6.81169 8.63143 5.86441 9.5245C5.10659 10.239 5.47181 10.5469 5.75214 10.5996C5.38315 10.6034 5.1012 10.444 4.91364 10.2228C4.9459 9.65168 5.49057 8.55609 7.54402 7.83062C10.3395 6.84299 12.4877 8.57827 13.1166 10.0915L12.5464 10.5351Z" fill="url(#paint11_linear_2363_47902)"/>
<path d="M8.73668 5.0052C8.18587 5.58547 7.81514 6.47424 7.8761 7.64002C7.99248 9.86577 9.70907 11.0732 10.9456 11.4805C11.9348 11.8064 12.035 11.3619 11.9477 11.0903C12.1307 11.4197 12.1149 11.7293 12.0024 12.0032C11.2094 12.2271 9.61663 12.0958 8.08566 10.1112C6.10325 7.54146 7.63556 5.4003 8.15058 4.68064C8.18695 4.62983 8.21825 4.5861 8.24287 4.5498L8.73668 5.0052Z" fill="url(#paint12_linear_2363_47902)"/>
<defs>
<linearGradient id="paint0_linear_2363_47902" x1="13.5024" y1="5.24333" x2="4.87351" y2="13.4202" gradientUnits="userSpaceOnUse">
<stop stop-color="#0AE2FF"/>
<stop offset="0.189164" stop-color="#047DA5"/>
<stop offset="0.277706" stop-color="#0279C2"/>
<stop offset="0.420448" stop-color="#018AF6"/>
<stop offset="0.552795" stop-color="#0076ED"/>
<stop offset="0.744311" stop-color="#4350D3"/>
<stop offset="0.873359" stop-color="#910659"/>
<stop offset="1" stop-color="#CB006D"/>
</linearGradient>
<linearGradient id="paint1_linear_2363_47902" x1="11.0589" y1="10.5697" x2="11.0589" y2="12.602" gradientUnits="userSpaceOnUse">
<stop stop-color="#016FD8"/>
<stop offset="1" stop-color="#003A72"/>
</linearGradient>
<linearGradient id="paint2_linear_2363_47902" x1="13.13" y1="4.82736" x2="10.0427" y2="12.707" gradientUnits="userSpaceOnUse">
<stop stop-color="#09DEFC"/>
<stop offset="0.269368" stop-color="#028DF7"/>
<stop offset="0.482538" stop-color="#0056AF"/>
<stop offset="0.794521" stop-color="#3AA7F7"/>
<stop offset="1" stop-color="#086EE8"/>
</linearGradient>
<linearGradient id="paint3_linear_2363_47902" x1="5.70593" y1="8.55263" x2="5.70593" y2="10.6025" gradientUnits="userSpaceOnUse">
<stop stop-color="#344ABE"/>
<stop offset="1" stop-color="#392470"/>
</linearGradient>
<linearGradient id="paint4_linear_2363_47902" x1="10.772" y1="14.7006" x2="4.67314" y2="9.02348" gradientUnits="userSpaceOnUse">
<stop stop-color="#3458D8"/>
<stop offset="0.131183" stop-color="#0187F5"/>
<stop offset="0.463208" stop-color="#0271C2"/>
<stop offset="0.809863" stop-color="#01BCF8"/>
<stop offset="1" stop-color="#534BCF"/>
</linearGradient>
<linearGradient id="paint5_linear_2363_47902" x1="9.22672" y1="5.3404" x2="10.9975" y2="6.40423" gradientUnits="userSpaceOnUse">
<stop stop-color="#027ED5"/>
<stop offset="1" stop-color="#02517B"/>
</linearGradient>
<linearGradient id="paint6_linear_2363_47902" x1="3.56706" y1="11.0253" x2="11.6638" y2="6.22025" gradientUnits="userSpaceOnUse">
<stop stop-color="#BD1493"/>
<stop offset="0.527861" stop-color="#005AB9"/>
<stop offset="0.760102" stop-color="#03DEFE"/>
<stop offset="1" stop-color="#06C1FD"/>
</linearGradient>
<linearGradient id="paint7_linear_2363_47902" x1="12.2592" y1="4.68775" x2="10.853" y2="6.10118" gradientUnits="userSpaceOnUse">
<stop stop-color="#08CDED"/>
<stop offset="0.330098" stop-color="#06ACCF"/>
<stop offset="1" stop-color="#03618E"/>
</linearGradient>
<linearGradient id="paint8_linear_2363_47902" x1="10.9151" y1="13.5225" x2="12.4898" y2="11.66" gradientUnits="userSpaceOnUse">
<stop stop-color="#2660DE"/>
<stop offset="1" stop-color="#004988"/>
</linearGradient>
<linearGradient id="paint9_linear_2363_47902" x1="3.60864" y1="8.52491" x2="4.65378" y2="8.79538" gradientUnits="userSpaceOnUse">
<stop stop-color="#4C46C3"/>
<stop offset="0.244184" stop-color="#4250D3"/>
<stop offset="0.585267" stop-color="#3B54D6"/>
<stop offset="1" stop-color="#4F1964"/>
</linearGradient>
<linearGradient id="paint10_linear_2363_47902" x1="9.08661" y1="4.90121" x2="6.18855" y2="11.6609" gradientUnits="userSpaceOnUse">
<stop stop-color="#05B2FC"/>
<stop offset="1" stop-color="#7E2B9F"/>
</linearGradient>
<linearGradient id="paint11_linear_2363_47902" x1="5.20793" y1="10.1107" x2="12.8388" y2="10.2075" gradientUnits="userSpaceOnUse">
<stop stop-color="#6340C6"/>
<stop offset="0.179021" stop-color="#1F61E0"/>
<stop offset="1" stop-color="#0184EF"/>
</linearGradient>
<linearGradient id="paint12_linear_2363_47902" x1="8.59242" y1="4.81297" x2="11.5245" y2="11.8248" gradientUnits="userSpaceOnUse">
<stop stop-color="#04A9F0"/>
<stop offset="0.312086" stop-color="#0167C3"/>
<stop offset="0.576658" stop-color="#066DE9"/>
<stop offset="1" stop-color="#007AEF"/>
</linearGradient>
</defs>
</svg>
