<!-- by TradingView --><svg width="18" height="18" viewBox="0 0 18 18" fill="none" xmlns="http://www.w3.org/2000/svg">
<rect width="18" height="18" fill="#3D3DC1"/>
<path fill-rule="evenodd" clip-rule="evenodd" d="M10 6H11.7045V7H10V9.39921V11.7971C10 13.075 9.04979 14 7.76206 14C6.47432 14 5.5 13.0796 5.5 11.7971C5.5 10.5147 6.54925 9.5 7.73479 9.5C8.58649 9.5 9 9.87855 9 9.87855V7H8.45455V6H9V5.71887C9 4.55666 10.0991 4.0557 10.5828 4.02899C11.0257 3.99029 11.5571 3.97517 12 4.08242V5.15438C11.4044 4.96384 11.2069 4.98257 10.9243 5.00935C10.8998 5.01168 10.8746 5.01406 10.8485 5.01637C10.4738 5.04959 10 5.44386 10 5.97153V6ZM9 11.75C9 12.4404 8.44036 13 7.75 13C7.05964 13 6.5 12.4404 6.5 11.75C6.5 11.0596 7.05964 10.5 7.75 10.5C8.44036 10.5 9 11.0596 9 11.75Z" fill="white"/>
</svg>
