<!-- by TradingView --><svg width="18" height="18" viewBox="0 0 18 18" xmlns="http://www.w3.org/2000/svg"><path fill="#E84142" d="M0 0h18v18H0z"/><path d="M6.51 12H4.83c-.36 0-.53 0-.64-.06a.38.38 0 0 1-.19-.3c0-.12.08-.25.26-.53l4.15-6.6c.17-.28.26-.42.38-.47a.47.47 0 0 1 .38 0c.12.05.2.2.38.47l.86 1.35c.2.3.29.46.33.62.05.17.05.36 0 .53-.04.16-.14.31-.33.62L8.23 11.1v.01c-.2.3-.3.46-.43.58a1.3 1.3 0 0 1-.52.27c-.18.04-.37.04-.77.04Zm4.25 0h2.4c.36 0 .54 0 .65-.06a.38.38 0 0 0 .19-.3c0-.12-.08-.25-.25-.5l-.01-.04-1.21-1.86-.01-.02c-.17-.26-.26-.39-.37-.44a.47.47 0 0 0-.39 0c-.1.05-.2.2-.37.47l-1.2 1.86c-.18.28-.27.41-.27.53.01.12.08.23.2.3.1.06.28.06.64.06Z" fill="#fff"/></svg>