<!-- by TradingView --><svg width="18" height="18" xmlns="http://www.w3.org/2000/svg"><path fill="#F0F3FA" d="M0 0h18v18H0z"/><path fill-rule="evenodd" d="M12.693 12.391A3.458 3.458 0 008.49 6.898c-1.723 1.318-2.21 3.868-2.46 5.935a.326.326 0 00.277.362c2.047.298 4.673.507 6.387-.804zm-.487-.49a2.775 2.775 0 00-3.372-4.407C7.47 8.538 7.07 10.546 6.867 12.193a.326.326 0 00.278.362c1.632.235 3.703.385 5.06-.654z" fill="#70B1C7"/><path fill-rule="evenodd" d="M11.304 9.287A3.458 3.458 0 006.32 4.492c-1.503 1.564-1.6 4.159-1.535 6.24a.326.326 0 00.329.316c2.068-.015 4.695-.206 6.191-1.76zm-.555-.41a2.774 2.774 0 00-4-3.847C5.56 6.27 5.468 8.314 5.517 9.972a.326.326 0 00.329.316c1.65-.015 3.719-.18 4.904-1.411z" fill="#FF3838"/></svg>