<!-- by TradingView --><svg width="18" height="18" xmlns="http://www.w3.org/2000/svg"><path fill="#FF4724" d="M0 0h18v18H0z"/><path d="M9 4c-.04 0-.08.01-.115.029a.221.221 0 00-.084.077l-4.77 7.578a.2.2 0 000 .213l2.911-1.436L9 7.076V4zM13.969 11.684l-4.77-7.578A.238.238 0 009 4v3.077l2.053 3.39 2.916 1.43a.2.2 0 000-.213z" fill="#fff"/><path d="M13.968 11.902L10.816 10H7.203L4.03 11.902c.02.03.05.054.084.071A.261.261 0 004.23 12h9.539a.26.26 0 00.115-.026.216.216 0 00.085-.072z" fill="#fff"/></svg>