<!-- by TradingView --><svg width="18" height="18" xmlns="http://www.w3.org/2000/svg"><path fill="url(#paint0_linear)" d="M0 0h18v18H0z"/><path d="M3.858 9c0-2.793 2.381-5.142 5.15-5.142 3.623 0 6.135 3.868 4.747 7.14a5.238 5.238 0 01-4.747 3.144A5.233 5.233 0 013.858 9zm.657.004a4.497 4.497 0 108.994-.012 4.497 4.497 0 00-8.994.016v-.004zm1.875 1.998c.644 1.392 2.171 2.033 3.654 1.985-1.938.475-4.11-.49-4.564-2.551a3.77 3.77 0 013.79-4.6v.7c-.942 0-1.844.383-2.457 1.107a3.066 3.066 0 00-.724 1.962c-.005.482.098.96.3 1.396zm3.077 1.344c-1.088-.193-2.021-.858-2.366-1.859a2.294 2.294 0 013.066-2.875l.297-.625a2.987 2.987 0 00-3.382 4.774c.83.898 2.084 1.108 3.251 1.108l.04-.012c.34-.123.751-.273 1.012-.514a5.482 5.482 0 01-1.918.007v-.004zm-.119-.878c.768.257 1.74.21 2.196.178l.538-.047.134-.016c-.186.233-.4.443-.633.629-.787.17-1.689.166-2.452-.083a2.974 2.974 0 01-1.776-1.515 2.128 2.128 0 01-.02-1.673 2.176 2.176 0 012.8-1.16c.457.19.834.53 1.069.966l-.626.312a1.452 1.452 0 00-1.265-.74 1.464 1.464 0 00-1.444 1.444c0 .803.716 1.452 1.48 1.701v.004z" fill="#fff"/><defs><linearGradient id="paint0_linear" x1="3.349" y1="3.122" x2="21.904" y2="24.434" gradientUnits="userSpaceOnUse"><stop stop-color="#1A1E21"/><stop offset="1" stop-color="#06060A"/></linearGradient></defs></svg>