<!-- by TradingView --><svg width="18" height="18" viewBox="0 0 18 18" xmlns="http://www.w3.org/2000/svg"><path fill="url(#aftwttezh)" d="M0 0h18v18H0z"/><path d="M4.74 9.35c.7.06 1.63-.48 2-.76-1.04 1.99 1.28 2.39 1.97 2.25-.27.24-.59.62-.67.78-.37-.46-.81-.44-1.18 0a.85.85 0 0 0-.1.99c-.48-.25-.75-1.19-.83-1.63-.37 1.13.24 2 .58 2.3-.16.12-.15.38-.1.56.01.05.07.1.14.1h3.19l.14-.16.22.15h1.11c.04 0 .07 0 .1-.02.07-.03.15-.03.22-.05h.04c.22 0 .29-.21.28-.35-.02-.46-.48-.4-.71-.31.58-.6.6-1.54.23-1.6-.23-.05-.59.11-.74.2-.04-.26-.2-.72-.28-.91.55.09 1 .07 1.32 0 .94-.17 1.51-1.08.97-1.9.58.43 1.45.53 1.35-1.34-.1-1.87-.9-3.3-1.45-3.3-.45 0-1.05.4-1.3.6a4.54 4.54 0 0 0-3.18-.02c-.53-.5-1.37-1.1-1.95-.85-1.18.48-1.83 2.58-2 3.57-.1.54-.09 1.64.63 1.7Z" fill="#fff"/><path d="M6.14 4.03c.77-.21 1.71.62 2.09 1.07l-.06.03c-1.05-1.07-1.8-1.1-2.03-.99-1 .43-1.68 1.97-1.9 3.25-.08.5-.29 1.65.43 1.85.42.11 1-.15 1.43-.37.38-.2.75-.46.92-.74.33-.55.4-1.86.4-2.44.1.71-.02 2.43-.47 2.78-.4.3-1.56 1.07-2.28.95-.7-.12-.7-1.13-.66-1.63.1-1.68 1.34-3.54 2.13-3.76Z" fill="#110206"/><path d="M9.43 4.64c-.66.02-1.18.16-1.4.28l.04.07c3.01-.8 4.46.75 4.46 1.63 0 .46-.2 1.38-.32 1.78.24.32.74.98.5 1.7-.4.89-1.73.85-2.34.72a.74.74 0 0 1-.55.24c-.3-.02-.55-.27-.55-.27s.05-.07.09-.09c-1.93.31-2.57-.36-2.79-.9-.17-.43.06-1 .2-1.24l-.1.05c-.19.35-.28.75-.2 1.13.22 1.08 1.72 1.24 2.71 1.1.1.11.38.32.67.32.29 0 .48-.17.54-.26 1 .15 1.66-.03 2.03-.3.42-.31.55-.78.4-1.25a3.66 3.66 0 0 0-.52-.98c.25-1.1.76-2.2-.4-3.05-.7-.5-1.6-.7-2.47-.68Z" fill="#110206"/><path d="M13.48 9.23c1.08-.27.34-4.8-.99-4.89-.43-.02-1.3.62-1.3.62l.07.03c.72-.53 1.08-.61 1.23-.6 1.33.18 1.99 4.7.87 4.78-.3.02-.65-.18-.78-.29a1 1 0 0 0 .9.35ZM8.04 11.58c.25-.4.52-.66.62-.74h.07c-.22.17-.51.58-.63.76l.07.18c-.27-.32-.53-.5-.83-.42-.43.1-.63.52-.58.9.08.57.47 1.01 1 1.12a1.15 1.15 0 0 1-.89-.53c-.19-.27-.3-.6-.2-.9.09-.34.37-.64.71-.68a.7.7 0 0 1 .66.3ZM11.37 11.55c-.23-.03-.6.12-.77.21l.02.13c.16-.1.55-.28.75-.25.48.07.1 1.34-.37 1.58l.1.03c.53-.33.84-1.62.27-1.7ZM9.8 13.02l-.02.01h.01c.12-.07.64-.5.65-1.37.12.3.14 1.02-.65 1.36Z" fill="#110206"/><path d="m10.24 13.3.07-.73-.11.08-.1.76.14-.11Z" fill="#110206"/><path fill-rule="evenodd" d="M9.9 13.52c.2-.2.73-.5 1.28-.26.22.09.35.21.3.44-.04.24-.18.3-.43.3h-.74c-.31 0-.37-.05-.47-.1l.05-.38Zm.94-.2c.15 0 .27.04.36.08.3.13.23.45-.13.52h-.9c-.1 0-.22-.05-.21-.21 0-.13.1-.16.22-.22.16-.1.42-.19.66-.17Z" fill="#110206"/><path d="M11.16 13.15c.24-.08.72-.13.72.4 0 .35-.24.35-.47.34h-.07l.06-.08c.44.06.4-.27.4-.36-.03-.18-.16-.27-.34-.27-.12 0-.25.02-.33.04l-.07.04-.02-.01.12-.1ZM10.52 13.92c.06-.05.05-.32.04-.45 0 0 .04-.02.04 0 .04.15.02.38-.01.45h-.07ZM8.31 12.64c-.06-.27.07-.7.13-.88-.03.13-.05.45 0 .77s.26.57.34.66l-.22.08c-.06-.1-.19-.36-.25-.63ZM8.86 12.7a2.2 2.2 0 0 0-.05-.63c.12.2.21.47.21.58l.42.54-.3-.05-.28-.43Z" fill="#110206"/><path d="M8.37 13.93c-.08-.06-.24-.23-.22-.41.03-.23.7-.46 1.1-.4.38.07.57.18.64.26.03.03.03.1.03.19a.77.77 0 0 1-.1.36c-.07.07-.24.07-.35.07h-.8c-.09 0-.25-.01-.3-.07Zm.2-.04.58.02h.36c.06 0 .17-.02.2-.09.02-.08.1-.3.07-.37s-.27-.21-.7-.19c-.3.02-.55.08-.68.18-.09.07-.11.12-.06.21.05.1.14.23.24.24Z" fill="#110206"/><path d="M9.36 13.95c.03-.08.04-.31.04-.43 0-.02.02-.03.03-.03.02 0 .03 0 .03.02a.9.9 0 0 1-.04.44h-.06ZM5.96 11c.22 1.1.63 1.42.76 1.53l.07.14c-.54-.27-.8-1.09-.86-1.52H5.9c-.27.92.27 1.77.64 2.12l-.07.06c-.9-.86-.78-2-.56-2.34.02-.02.05-.01.05.01Z" fill="#110206"/><path d="M8.02 14c.26 0 .35-.04.44-.05l-.09-.08c-.23.02-.35.02-.58.02H6.97c-.2 0-.38-.02-.42-.18a.83.83 0 0 1-.02-.2c0-.3.53-.33.8-.31-.78-.16-1.02.18-.99.46.04.28.24.34.52.34h1.16Z" fill="#110206"/><path d="M6.92 13.64c.01.1.03.26.02.28H7l-.03-.3a.03.03 0 0 0-.06 0ZM8.17 6.5c-.6.62-.45 1.7.13 2.15h.09a1.45 1.45 0 0 1-.46-1.44c.06-.24.17-.47.34-.64.13-.13.3-.24.5-.26.32-.02.53.2.64.42.2.34.22.8.13 1.17-.05.26-.2.5-.4.71l.07.03c.45-.31.7-1.52.16-2.14-.35-.41-.83-.38-1.2 0Z" fill="#110206"/><path d="M7.94 8.7c.56-.2 1.06-.17 1.6-.03-.27-.01-.97-.02-1.6.04Z" fill="#110206"/><ellipse cx="8.69" cy="7.83" rx=".49" ry=".67" fill="#110206"/><ellipse cx="8.53" cy="7.55" rx=".16" ry=".15" fill="#fff"/><path d="M11.72 8.55h.07c.4-.34.4-1.4-.03-1.88-.26-.29-.6-.26-.82.05-.36.52-.26 1.4.08 1.83l.08-.02c-.22-.16-.53-1.15-.08-1.72.19-.24.42-.3.66-.09.43.4.43 1.47.04 1.83Z" fill="#110206"/><ellipse cx="11.23" cy="7.93" rx=".39" ry=".61" fill="#110206"/><ellipse cx="11.13" cy="7.7" rx=".15" ry=".13" fill="#fff"/><path d="m9.73 9.15.8.46c.09.05.2.04.29-.01l.65-.45c.17-.16.27-.37 0-.5-.08-.04-.19-.07-.3-.09a4.1 4.1 0 0 0-.88-.05c-.2.01-.6.02-.73.2-.11.17 0 .37.17.44ZM9.8 10.28l.21.06c.04.07.04.16 0 .24-.07.17-.27.13-.38 0-.12-.14-.14-.38-.13-.51l.09.08.2.13Z" fill="#110206"/><path d="M9.7 10.54a.69.69 0 0 1-.14-.4l.23.14.16.04c.03.08.04.16.01.22-.05.15-.19.1-.27 0Z" fill="#B9273C"/><path d="M10.62 10.05c-.65.51-1.1.08-1.25-.2.34.77.97.53 1.25.31.1.13.24.12.29.1-.14-.01-.25-.14-.3-.2ZM4.6 5.98a.4.4 0 0 0 .23.07c.26 0 .47-.24.47-.55 0-.2-.09-.37-.22-.47-.19.3-.35.62-.49.95ZM8.31 4.83v.03c0 .21.3.39.66.39.36 0 .65-.18.65-.4a.28.28 0 0 0-.08-.18c-.53 0-.95.07-1.23.16ZM9.61 5.84c-.07-.17-.02-.36.3-.37.37 0 .4.2.34.37-.09.31-.49.34-.64 0Z" fill="#110206"/><ellipse rx=".3" ry=".69" transform="matrix(.9968 -.07995 .09263 .9957 13.21 6.35)" fill="#110206"/><ellipse cx="12.88" cy="8.32" rx=".19" ry=".35" fill="#110206"/><ellipse cx="7.5" cy="9.31" rx=".26" ry=".32" fill="#110206"/><ellipse cx="8.92" cy="11.29" rx=".35" ry=".34" fill="#110206"/><ellipse cx="5.75" cy="6.4" rx=".25" ry=".3" fill="#110206"/><ellipse cx="4.99" cy="7.97" rx=".45" ry=".7" fill="#110206"/><path d="M10.8 13.2c-.02-.25-.1-1.58-.44-2.31l-.11.02c.28.5.4 1.74.44 2.28h.12Z" fill="#110206"/><defs><linearGradient id="aftwttezh" x1="3.35" y1="3.12" x2="21.9" y2="24.43" gradientUnits="userSpaceOnUse"><stop stop-color="#1A1E21"/><stop offset="1" stop-color="#06060A"/></linearGradient></defs></svg>