<!-- by TradingView --><svg xmlns="http://www.w3.org/2000/svg" width="18" height="18" viewBox="0 0 18 18"><path fill="url(#agxtjtzxm)" d="M0 0h18v18H0z"/><path d="M9 14A5 5 0 1 0 9 4a5 5 0 0 0 0 10z" fill="#231F20"/><path d="M10.73 8.78c-.06-.02-.1.05-.07.1.1.12.15.25.15.39 0 .72-1.46 1.3-3.27 1.3-.52 0-1-.04-1.44-.13-.06 0-.09.06-.04.1.58.37 1.61.62 2.79.62 1.8 0 3.27-.59 3.27-1.31 0-.44-.55-.84-1.39-1.07z" fill="url(#bgxtjtzxm)"/><path d="M10.17 6.84c-.05-.02-.09.04-.06.08.09.1.13.22.13.34 0 .62-1.25 1.12-2.8 1.12-.44 0-.86-.04-1.24-.12-.04 0-.07.06-.03.08.5.32 1.38.54 2.39.54 1.55 0 2.8-.5 2.8-1.12 0-.38-.47-.72-1.2-.92z" fill="url(#cgxtjtzxm)"/><defs><linearGradient id="agxtjtzxm" x1="17.52" y1="6.11" x2="1.61" y2="15.11" gradientUnits="userSpaceOnUse"><stop stop-color="#CD9CBC"/><stop offset="1" stop-color="#AD8BD4"/></linearGradient><linearGradient id="bgxtjtzxm" x1="6.04" y1="9.97" x2="12.12" y2="9.97" gradientUnits="userSpaceOnUse"><stop stop-color="#8077F2"/><stop offset="1" stop-color="#FFB29B"/></linearGradient><linearGradient id="cgxtjtzxm" x1="6.15" y1="7.86" x2="11.36" y2="7.86" gradientUnits="userSpaceOnUse"><stop stop-color="#8077F2"/><stop offset="1" stop-color="#FFB29B"/></linearGradient></defs></svg>