<!-- by TradingView --><svg width="18" height="18" xmlns="http://www.w3.org/2000/svg"><path fill="#275589" d="M0 0h18v18H0z"/><path d="M9 5.3a.9.9 0 100-1.8.9.9 0 000 1.8zm0 9.2a.9.9 0 100-1.8.9.9 0 000 1.8zM9.321 6H8.68v1h.642V6zm0 5H8.68v1h.642v-1zM5.3 9a.9.9 0 10-1.8 0 .9.9 0 001.8 0zm8.3-.9a.9.9 0 110 1.8.9.9 0 010-1.8zM5.996 9.279v-.6H7v.6H5.996zm5.004 0v-.6h.996v.6H11zM6.38 5.114a.9.9 0 11-1.274 1.272.9.9 0 011.273-1.272zm6.506 7.772a.9.9 0 10-1.272-1.272.9.9 0 001.272 1.272zM7.22 6.295l-.92.925.85.855.92-.925-.85-.855zm3.615 3.615l-.925.925.855.855.92-.925-.85-.855zm.782-3.527A.9.9 0 1012.89 5.11a.9.9 0 00-1.273 1.273zm-5.234 6.5A.9.9 0 115.11 11.61a.9.9 0 011.273 1.273zm1.556-2.701a1.5 1.5 0 102.122-2.121 1.5 1.5 0 00-2.122 2.121zM11.71 7.22l-.935-.93-.855.855.935.935.855-.86zm-3.615 3.62l-.935-.935-.855.855.935.93.855-.85z" fill="#fff"/></svg>