<!-- by TradingView --><svg width="18" height="18" xmlns="http://www.w3.org/2000/svg"><path fill="#81A9D1" d="M0 0h18v18H0z"/><path d="M11.24 4.272L11.488 6h-.394c-.146-1.033-.905-1.51-1.722-1.552C8.37 4.398 7 5.068 7 6.345c0 1.427 2.182 1.935 3.16 2.356.589.2 1.804 1.003 1.84 2.46C12.042 12.98 10.086 14 8.816 14c-1.016 0-2.107-.326-2.525-.49L6 12h.38c.305 1.265 1.692 1.552 2.436 1.51.745-.04 2.183-.605 2.183-1.86 0-1.132-1.461-1.797-2.183-2.025-.931-.294-2.933-1.295-2.816-3.067C6.147 4.344 8.467 4 9.371 4c.725 0 1.548.181 1.87.272z" fill="#fff"/></svg>