<!-- by TradingView --><svg width="18" height="18" viewBox="0 0 18 18" xmlns="http://www.w3.org/2000/svg"><path fill="url(#ap03c4wwq)" d="M0 0h18v18H0z"/><path d="M8.13 3.38 3.38 8.05c-.27.27-.38.6-.38.94 0 .33.11.66.38.94l4.75 4.69c.27.26.61.37.95.37.34 0 .68-.1.95-.38l3.03-2.98c-.77-.07-1.04.1-1.35.3-.2.12-.43.26-.83.36-.2.04-.37.07-.51.07-.35 0-.52-.11-.67-.22-.11-.08-.21-.15-.37-.15H7.56c.29-.44.1-.58.1-.58s-.62-.15-.48-1.67c-1.25-1.36-1.14-3-1.14-3s.42 1.35 2.28 2.06c-.08-1.02.2-1.43.33-1.61a.71.71 0 0 0 .05-.08l.07.13c.17.38.4.9 1.64 1.19.4-.5.56-.63.9-.9l.06-.04c-.3-.95-.24-1.48 0-1.88l.08.2c.26.67.69 1.74 2.55 1.47l-3.97-3.92A1.32 1.32 0 0 0 9.08 3c-.34 0-.68.1-.95.38Z" fill="url(#bp03c4wwq)"/><path d="m9.65 9.65-.19.1c.74.62 1.48-.54 1.14-.75-.36.34-.7.52-.95.65Z" fill="url(#cp03c4wwq)"/><defs><linearGradient id="ap03c4wwq" x1="3.35" y1="3.12" x2="21.9" y2="24.43" gradientUnits="userSpaceOnUse"><stop stop-color="#1A1E21"/><stop offset="1" stop-color="#06060A"/></linearGradient><linearGradient id="bp03c4wwq" x1="8.89" y1="2.81" x2="9.08" y2="15.38" gradientUnits="userSpaceOnUse"><stop stop-color="#F15F3E"/><stop offset="1" stop-color="#EF2357"/></linearGradient><linearGradient id="cp03c4wwq" x1="8.89" y1="2.81" x2="9.08" y2="15.38" gradientUnits="userSpaceOnUse"><stop stop-color="#F15F3E"/><stop offset="1" stop-color="#EF2357"/></linearGradient></defs></svg>