<!-- by TradingView --><svg xmlns="http://www.w3.org/2000/svg" width="18" height="18"><path fill="#005A9B" d="M0 0h18v18H0z"/><path d="M10.91 10H8.8l.26-1h1c.35-.72-.01-.99-.31-1-1.09 0-1.38 1.3-1.52 1.75-.15.47-.27.78-.08 1.04.2.28 1.4.2 2.02.12L9.74 12H7.92c-1.13-.05-1.45-.9-1.35-1.34.07-.31.28-1.1.66-1.93A3.03 3.03 0 0110.04 7c1.23.09 1.38.7 1.41 1.18.03.38-.35 1.38-.54 1.81zm1.2-1.83L10.75 12h1.36l.7-2h1.5l.32-1h-1.5l.28-.56c.1-.32.44-.44.6-.44h1.56L16 7h-1.98c-1.22 0-1.72.7-1.9 1.17z" fill="#fff"/><path d="M10.03 6.55c.05.07.09.17.1.29l.49-.04c-.02-.2-.07-.39-.19-.55-.18-.27-.48-.4-.8-.45-.34-.05-.73 0-1.14.1-.83.21-1.82.7-2.78 1.4a8.67 8.67 0 00-2.19 2.27c-.23.37-.39.73-.45 1.07-.07.33-.04.67.15.93.27.4.77.5 1.3.46.55-.04 1.2-.24 1.89-.58L6.2 11a5 5 0 01-1.7.53c-.48.04-.76-.08-.88-.25-.08-.12-.12-.3-.07-.55.05-.25.18-.56.39-.9A8.17 8.17 0 016 7.73 7.95 7.95 0 018.6 6.4c.38-.1.7-.12.95-.09.25.04.4.13.48.25z" fill="#FFC95B"/><path d="M3.93 7.99a8.16 8.16 0 002.47 2.4l-.27.42-.42-.3a8.66 8.66 0 01-2.2-2.25c-.23-.37-.39-.74-.45-1.07a1.2 1.2 0 01.15-.94c.18-.26.47-.4.8-.44.31-.05.69-.02 1.09.08.8.19 1.76.65 2.7 1.32l-.28.41A7.72 7.72 0 005 6.38a2.45 2.45 0 00-.91-.07c-.24.03-.38.12-.47.24-.08.12-.11.3-.07.54.05.26.18.56.4.9z" fill="#FFC95B"/></svg>