<!-- by TradingView --><svg xmlns="http://www.w3.org/2000/svg" width="18" height="18" viewBox="0 0 18 18"><path fill="#F0F3FA" d="M0 0h18v18H0z"/><path d="m9 2.5.55 1c.11.21.11.46 0 .67l-3.28 5.96 1.55 2.8c.25.45.7.72 1.18.72s.93-.27 1.18-.71l1.55-2.81-.41-.76-1.76 3.19a.62.62 0 0 1-1.1 0l-1.35-2.43 3.04-5.53.55 1c.11.2.11.46 0 .67l-2.12 3.86.42.76 2.3-4.2 1.53 2.76c.23.42.23.94 0 1.37l-1.54 2.8A2.65 2.65 0 0 1 9 15a2.67 2.67 0 0 1-2.29-1.38l-1.54-2.8a1.44 1.44 0 0 1 0-1.37L9 2.5Z" fill="#E81C1C"/></svg>