<!-- by TradingView --><svg width="18" height="18" xmlns="http://www.w3.org/2000/svg"><path fill="#6FB315" d="M0 0h18v18H0z"/><path d="M4 4.008s1.22.786 1.91 2.087c.437.825.54 1.563.61 1.801 1.361.024 1.94.65 2.723 2.08.172.309.352.634.524.935-.25-.388-.532-.817-.783-1.158-.563-.778-1.29-1.508-2.41-1.532-.258-.007-.336-.007-.438-.007-.102 0-.235 0-.641-.008 1.205.682 1.298 2.372 2.065 3.467.704 1.008 1.323 1.85 3.107 2.198.25.048.845.143 1.119.127-.368-.317-.658-.761-.986-1.325a12.207 12.207 0 01-.845-2.071 63.316 63.316 0 01-.838-3.142c-.336-1.444-.907-2.77-2.59-3.285C6.02 4.024 5.05 4 4.47 4 4.188 4 4 4.008 4 4.008z" fill="#fff"/><path d="M12.443 4l-1.878 7.192c.383.96.743 1.755 1.322 2.285L13.953 5.6l.016-.062c.023-.094.031-.188.031-.281-.008-.757-.68-1.24-1.557-1.256zM5.425 8.434L4.04 14h1.925l.79-3.224c-.36-1.06-.72-1.882-1.33-2.342z" fill="#0F0708"/></svg>