<!-- by TradingView --><svg width="18" height="18" xmlns="http://www.w3.org/2000/svg"><path fill="#015194" d="M0 0h18v18H0z"/><path d="M2.676 9.655c-.19 0-.332-.012-.581-.06l-.083.604c.273.049.617.085 1.009.085.759 0 1.127-.314 1.127-.968 0-.411-.214-.678-.593-.75l-.451-.085c-.06-.012-.301-.066-.301-.236 0-.23.324-.248.574-.248.213 0 .427.024.628.06l.048-.592a5.093 5.093 0 00-.854-.073c-.487 0-.76.11-.95.303-.154.145-.249.35-.249.64 0 .231.13.618.629.74l.45.096c.108.012.226.06.226.242 0 .06-.023.097-.059.133-.071.085-.261.109-.57.109z" fill="#fff"/><path d="M12.77 9.16c0-.65-.376-1.22-1.083-1.22-.72 0-1.095.57-1.095 1.22s.376 1.188 1.095 1.188c.707 0 1.083-.539 1.083-1.189zm-1.473 0c0-.295.135-.595.39-.595.254 0 .378.3.378.594 0 .295-.124.562-.378.562-.255 0-.39-.267-.39-.562z" fill="#fff"/><path d="M10.472 10.257l-.092.011c-.189.025-.373.048-.566.048-.765 0-1.171-.524-1.171-1.157 0-.703.406-1.187 1.267-1.187.24 0 .383.024.574.06l-.12.65a1.665 1.665 0 00-.323-.035c-.502 0-.65.322-.65.512 0 .227.172.505.627.505.12 0 .239-.012.346-.024l.108.617zM5.002 8.917c-.002-.294-.003-.619 0-.913h-.61c-.004.304-.003.639-.002.943v.508c0 .393.211.88.884.88.744 0 .945-.404.945-1.082l.011-1.25h-.614v1.37c0 .215-.13.322-.291.322-.181 0-.323-.095-.323-.286v-.492zM7.442 8.004h-.84v2.28h.614V9l.398 1.285h.83v-2.28H7.83V9.32h-.01l-.378-1.316z" fill="#fff"/><path d="M14.887 10.284h-.759l-.468-.99v.99h-.614v-2.28h1.01c.53 0 .696.297.696.684 0 .298-.166.547-.405.56l.54 1.036zM13.66 9l.198-.001c.124 0 .228-.012.228-.202 0-.143-.041-.238-.208-.238h-.218v.44z" fill="#fff"/><path d="M15.205 11.57h.401a3.77 3.77 0 001.09-1.354c.5-.988.428-2.451-.151-3.38-.638-1.036-1.649-1.692-2.84-1.738h-.267l-.137.008c-1.23.11-2.44 1.037-2.863 2.282h.6l.313-.497c.803-1.037 2.128-1.435 3.343-1.01 1.058.355 1.867 1.485 1.976 2.62a3.23 3.23 0 01-1.465 3.068z" fill="url(#paint0_linear)"/><defs><linearGradient id="paint0_linear" x1="10.557" y1="5.06" x2="17.187" y2="11.394" gradientUnits="userSpaceOnUse"><stop stop-color="#F3AE18"/><stop offset="1" stop-color="#DD3E31"/></linearGradient></defs></svg>