<!-- by TradingView --><svg width="18" height="18" xmlns="http://www.w3.org/2000/svg"><path fill="#EE2722" d="M0 0h18v18H0z"/><path d="M5.371 8.717c-1.086-.002-2.531-.33-3.37-.357L2 8.36c0-.001 0-.002.002-.002.839-.026 2.283-.355 3.37-.357h7.257c1.086.002 2.53.33 3.369.357.001 0 .002 0 .002.002l-.002.001c-.838.026-2.283.355-3.37.357H5.372zM6.27 9.608c-1.087-.002-2.532-.33-3.37-.357l-.002-.001.002-.002c.839-.026 2.284-.355 3.37-.357h5.46c1.086.002 2.531.331 3.37.357.001 0 .002 0 .002.002l-.002.001c-.838.026-2.284.355-3.37.357H6.27zM7.083 10.5c-1.086-.002-2.532-.331-3.37-.357l-.001-.002.001-.002c.84-.025 2.284-.354 3.37-.356h3.834c1.086.002 2.53.33 3.369.357l.002.001c0 .001 0 .002-.002.002-.838.026-2.283.355-3.37.356H7.084zM8.038 11.391c-1.086-.002-2.531-.33-3.37-.356l-.001-.002c0-.001 0-.002.002-.002.838-.026 2.283-.354 3.37-.357h1.923c1.086.003 2.531.331 3.37.357 0 0 .002 0 .002.002l-.002.001c-.838.027-2.284.355-3.37.357H8.038zM8.922 12.283c-1.086-.002-2.531-.33-3.37-.357l-.001-.002.002-.001c.838-.026 2.283-.355 3.37-.357h.155c1.086.002 2.53.33 3.369.357l.002.001c0 .001 0 .002-.002.002-.838.026-2.283.355-3.37.357h-.155z" fill="#fff"/></svg>