<!-- by TradingView --><svg xmlns="http://www.w3.org/2000/svg" width="18" height="18"><path fill="#37CBD4" d="M0 0h18v18H0z"/><path d="M5.74 5.76c-.2-.81.34-1.63 1.16-1.75a1.4 1.4 0 011.58 1.34l.05 1.16a7.46 7.46 0 01.84 0l.05-1.16A1.4 1.4 0 0111 4.01c.82.12 1.36.94 1.15 1.75l-.33 1.33c1.26.58 2.1 1.54 2.18 2.64v.96C13.94 12.53 11.72 14 9 14c-2.7 0-4.9-1.45-5-3.27v-.85c0-1.13.82-2.14 2.09-2.75l-.35-1.37z" fill="#CA7D45"/><path d="M8.13 6.96l-.06-1.59a.98.98 0 00-1.11-.94.99.99 0 00-.81 1.23l.42 1.7-.3.15c-1.19.58-1.85 1.46-1.85 2.37v.83c.04.73.5 1.44 1.33 1.98a6 6 0 003.25.89c1.3 0 2.44-.35 3.27-.9.83-.55 1.29-1.27 1.31-2v-.92c-.06-.88-.75-1.74-1.93-2.29l-.32-.15.42-1.66a.99.99 0 00-.8-1.23.98.98 0 00-1.12.94l-.06 1.58-.42-.02a7.07 7.07 0 00-.8 0l-.42.03zM14 9.73v.97c-.06 1.83-2.28 3.3-5 3.3-2.7 0-4.9-1.45-5-3.27v-.85c0-1.13.82-2.14 2.09-2.75l-.35-1.37c-.2-.81.34-1.63 1.16-1.75a1.4 1.4 0 011.58 1.34l.05 1.16a7.43 7.43 0 01.84 0l.05-1.16A1.4 1.4 0 0111 4.01c.82.12 1.36.94 1.15 1.75l-.33 1.33c1.26.58 2.1 1.54 2.18 2.64z" fill="#522D0B"/><ellipse cx="9" cy="10.41" rx="4.67" ry="3.17" fill="#FBD984"/><ellipse cx="9" cy="9.99" rx="4.67" ry="2.88" fill="#CA7D45"/><ellipse cx="7.04" cy="9.88" rx=".54" ry=".85" fill="#522D0B"/><ellipse cx="10.96" cy="9.88" rx=".54" ry=".85" fill="#522D0B"/></svg>