<!-- by TradingView --><svg width="18" height="18" xmlns="http://www.w3.org/2000/svg"><path d="M0 0h18v18H0V0z" fill="url(#paint0_linear)"/><path d="M9.149 6.025a2.125 2.125 0 00-.86.255 2.388 2.388 0 00-1.045 1.13c-.112.246-.181.49-.22.773-.02.145-.022.475-.004.618.043.364.16.725.332 1.025.24.417.622.774 1.032.966.282.131.548.196.858.207.63.022 1.208-.213 1.674-.683l.074-.074-.313-.313a9.488 9.488 0 00-.322-.314c-.005 0-.018.012-.031.026a1.463 1.463 0 01-.093.089 1.35 1.35 0 01-1.252.311 1.422 1.422 0 01-.85-.652 1.732 1.732 0 01.058-1.847c.373-.532 1.022-.741 1.615-.517.18.068.36.188.503.336l.051.052.248-.248a46.377 46.377 0 00.332-.332l.056-.054-.07-.07c-.455-.454-1.025-.697-1.618-.689-.068 0-.138.003-.155.005zM4 4h10v1H4V4z" fill="#fff"/><path d="M5 4v10H4V4h1zM14 4v10h-1V4h1z" fill="#fff"/><path d="M4 12h10v2H4v-2z" fill="#fff"/><defs><linearGradient id="paint0_linear" x1="3.349" y1="3.122" x2="21.904" y2="24.434" gradientUnits="userSpaceOnUse"><stop stop-color="#1A1E21"/><stop offset="1" stop-color="#06060A"/></linearGradient></defs></svg>