<!-- by TradingView --><svg width="18" height="18" xmlns="http://www.w3.org/2000/svg"><path fill="#3147A4" d="M0 0h18v18H0z"/><path d="M12.832 7.708L9.807 5.042a1.963 1.963 0 00-1.638-.518C5.804 4.896 4 6.862 4 9.23 4 11.865 6.231 14 8.983 14c2.688 0 4.882-2.197 4.984-4.746.006-.182-.152-.248-.313-.248h-1.928a.561.561 0 00-.328.14l-2.354 2.395a.102.102 0 01-.14 0L6.543 9.279a.09.09 0 010-.133L8.94 6.791a.1.1 0 01.139 0l2.15 1.964c.146.124.285.191.465.052l1.14-1.099z" fill="#fff"/><path d="M13.898 6.285L12.3 4.902c-1.802-1.663-3.884-.518-3.884-.518s.885-.454 2.016.685l2.65 2.407.786-.744c.132-.131.164-.296.03-.447z" fill="#fff"/></svg>