<!-- by TradingView --><svg width="18" height="18" xmlns="http://www.w3.org/2000/svg"><path d="M0 9a9 9 0 1118 0A9 9 0 010 9z" fill="url(#paint0_linear)"/><path d="M9.088 4c2.019 0 3.416 1.215 3.9 1.87-.392.535-1.455.722-2.289.284a3.528 3.528 0 00-1.611-.419c-1.762 0-2.771 1.322-3.056 2.015H4.194C4.899 5.502 6.758 4 9.088 4z" fill="url(#paint1_linear)"/><path d="M9.1 14c2.018 0 3.416-1.215 3.9-1.87-.392-.535-1.455-.722-2.29-.284-.666.35-1.269.419-1.61.419-1.762 0-2.772-1.322-3.057-2.015H4.205C4.911 12.498 6.77 14 9.1 14z" fill="url(#paint2_linear)"/><path d="M6.085 12.199c-1.264-.372-1.788-1.47-1.892-1.949h1.848c.76 1.646 2.33 2.04 3.03 2.014-.475.13-1.723.306-2.986-.065z" fill="url(#paint3_linear)"/><path d="M6.073 5.801c-1.264.372-1.788 1.47-1.892 1.949H6.03c.76-1.646 2.348-2.037 3.042-2.014-.476-.129-1.735-.306-2.998.065z" fill="url(#paint4_linear)"/><ellipse cx="5.634" cy="8.998" rx=".998" ry="1" fill="url(#paint5_linear)"/><ellipse cx="4.999" cy="8.998" rx=".999" ry="1" fill="url(#paint6_linear)"/><defs><linearGradient id="paint0_linear" x1="3.349" y1="3.122" x2="21.904" y2="24.434" gradientUnits="userSpaceOnUse"><stop stop-color="#1A1E21"/><stop offset="1" stop-color="#06060A"/></linearGradient><linearGradient id="paint1_linear" x1="9.581" y1="4" x2="9.484" y2="5.849" gradientUnits="userSpaceOnUse"><stop stop-color="#0DC4FA"/><stop offset="1" stop-color="#2797FD"/></linearGradient><linearGradient id="paint2_linear" x1="9.045" y1="14" x2="9.045" y2="12.151" gradientUnits="userSpaceOnUse"><stop stop-color="#0DC4FA"/><stop offset="1" stop-color="#2797FD"/></linearGradient><linearGradient id="paint3_linear" x1="8.207" y1="12.427" x2="5.294" y2="10.248" gradientUnits="userSpaceOnUse"><stop stop-color="#6619D1"/><stop offset="1" stop-color="#2A71F6"/></linearGradient><linearGradient id="paint4_linear" x1="8.542" y1="5.573" x2="5.259" y2="7.756" gradientUnits="userSpaceOnUse"><stop stop-color="#6619D1"/><stop offset="1" stop-color="#2A71F6" stop-opacity="0"/></linearGradient><linearGradient id="paint5_linear" x1="6.301" y1="8.341" x2="5.493" y2="9.997" gradientUnits="userSpaceOnUse"><stop stop-color="#F7D037"/><stop offset="1" stop-color="#F36F43"/></linearGradient><linearGradient id="paint6_linear" x1="5.731" y1="8.313" x2="4.31" y2="9.621" gradientUnits="userSpaceOnUse"><stop stop-color="#5F24D6"/><stop offset="1" stop-color="#3069F4"/></linearGradient></defs></svg>