<!-- by TradingView --><svg width="18" height="18" xmlns="http://www.w3.org/2000/svg"><path d="M0 9a9 9 0 1118 0A9 9 0 010 9z" fill="#F0F3FA"/><path d="M3.273 8.124c-.189 0-.273.076-.273.228v3.924c0 .171.084.229.273.229 2.08.019 4.622-1.658 6.723-2.972V5C7.916 6.295 5.31 8.143 3.273 8.124z" fill="url(#paint0_linear)"/><path d="M14.727 9.895c.189 0 .273-.076.273-.228V5.743c0-.171-.084-.229-.273-.229-2.102-.019-4.623 1.658-6.725 2.972V13c2.08-1.295 4.686-3.143 6.725-3.105z" fill="url(#paint1_linear)"/><path d="M10.002 9.461V7.25c-.728.407-1.36.815-2 1.248v2.264c.7-.423 1.367-.878 2-1.3z" fill="#194AAD"/><defs><linearGradient id="paint0_linear" x1="7.142" y1="11.945" x2="6.13" y2="5.619" gradientUnits="userSpaceOnUse"><stop offset=".1" stop-color="#194AAD"/><stop offset=".5" stop-color="#248FCB"/><stop offset=".8" stop-color="#2BBFDF"/></linearGradient><linearGradient id="paint1_linear" x1="12.272" y1="5.099" x2="10.934" y2="13.471" gradientUnits="userSpaceOnUse"><stop offset=".1" stop-color="#194AAD"/><stop offset=".5" stop-color="#248FCB"/><stop offset=".8" stop-color="#2BBFDF"/></linearGradient></defs></svg>