<!-- by TradingView --><svg width="18" height="18" viewBox="0 0 18 18" xmlns="http://www.w3.org/2000/svg"><path fill="#2F0D30" d="M0 0h18v18H0z"/><path d="M9.89 13c1.57 0 2.91-1.2 3.11-2.73V10h1c-.2 2.09-1.97 4-4.12 4H8.13A4.13 4.13 0 0 1 4 9.87V8.13A4.14 4.14 0 0 1 8.13 4h1.75C12.03 4 13.8 5.91 14 8h-1c-.2-1.52-1.54-3-3.11-3H8.14A3.16 3.16 0 0 0 5 8.13v1.74C5 11.58 6.42 13 8.14 13h1.75Zm-.9-6c.56 0 1 .37 1 1H10c0 .44-.22.84-.54 1.03L9.83 11H8.17l.37-1.97A1.2 1.2 0 0 1 8 8c0-.63.45-1 1-1Z" fill="#FF6B4D"/></svg>