<!-- by TradingView --><svg xmlns="http://www.w3.org/2000/svg" width="18" height="18"><path fill="#1B38DA" d="M0 0h18v18H0z"/><path d="M6.13 4.68H7.5l1-.66H7.24l-1.11.66zm.34 1.7l.75-1.4H5.75l-.7 1.45 1.42-.05zm-.07.28v1.55H4.9V6.66h1.5zm3.08.6l1 .63h1.31l-1-.64H9.5zm0 6.74h1.24l1.05-.65h-1.32l-.98.65zM7.5 10.17l1 .64H7.2l-1-.64h1.3zm4.08-.32v1.55h1.5V9.85h-1.5zm-.81-1.68l.74 1.4 1.42.05-.7-1.45h-1.46zm-4.3.33l.75 1.4H5.75l-.7-1.45 1.42.05zm4.3 4.58l.74-1.4 1.42-.05-.7 1.45h-1.46z" fill="#7899F8"/><path d="M10.66 4H9.2l.78 1.41h1.46L10.65 4zm.45.25l.65 1.24 1.11.61-.61-1.15-1.15-.7zM9.27 6.97l.72-1.33 1.49.07-.73 1.26H9.27zm1.73.1l.78-1.28 1.23.74-.75 1.3L11 7.08zm-7 .97l.69-1.13v1.31L4 9.46V8.04zm.83.54l-.8 1.37.77 1.35.72-1.35-.69-1.37zm.1 2.94l.8-1.36 1.32.8-.81 1.3-1.3-.74zm1.29.98l-1.08-.55.6 1.13 1.06.65-.58-1.23zm1.04 1.47l-.73-1.37h1.5l.7 1.37H7.26zM8.4 6.58l-.6 1.13L8.96 7l.51-1.06-1.08.65zm-.7-1.71l1.23-.8.76 1.37-1.28.82-.7-1.4zm-.18.24l-.85 1.36.78 1.31.74-1.3-.67-1.37zm-.85 1.86v1.36l.66 1.11V8.08l-.66-1.11zm.63 4.08l-.8 1.24h1.55l.7-1.24H7.3zm1.19 1.04l.62-1.1 1.04-.66-.67 1.18-1 .58zm1.03-.32l-1.23.76.78 1.38 1.2-.79-.75-1.35zm1.17-3.2l.64 1.14v1.38l-.64-1.12v-1.4zm-.16 1.7l.76 1.29-.84 1.36-.74-1.32.82-1.33zm2.7-3.55l-.75 1.34.68 1.42.84-1.42-.78-1.34zm.04 3.1l.7-1.22v1.33l-.7 1.1V9.82z" fill="#fff"/></svg>