<!-- by TradingView --><svg width="18" height="18" xmlns="http://www.w3.org/2000/svg"><path fill="#E9570F" d="M0 0h18v18H0z"/><path d="M7 7.001A3 3 0 0110 4V3a4 4 0 00-4 4.001h1z" fill="#fff"/><path d="M9 7a1 1 0 011-1V5a2 2 0 00-2 2h1zM6 8a1 1 0 001 1v1a2 2 0 01-2-2h1z" fill="#fff"/><path d="M6.999 11A3 3 0 014 8H3a4 4 0 003.999 4v-1zM12 10a1 1 0 00-.999-1V8a2 2 0 012 2h-1z" fill="#fff"/><path d="M11.001 7.02a3 3 0 012.999 3h1a4 4 0 00-3.999-4v1zM9 11a1 1 0 01-1 1v1a2 2 0 002-2H9z" fill="#fff"/><path d="M8.001 14A3 3 0 0011 11h1a4 4 0 01-3.999 4v-1z" fill="#fff"/></svg>