<!-- by TradingView --><svg width="18" height="18" xmlns="http://www.w3.org/2000/svg"><path fill="#2970FF" d="M0 0h18v18H0z"/><path d="M8.524 10h2.544c.91-.006 1.713-.799 1.71-1.76.003-.963-.8-1.9-1.71-1.907h-.811L8.524 5h2.544a3.22 3.22 0 013.154 2.617 3.249 3.249 0 01-1.945 3.63L14.286 13h-2.303l-3.459-3z" fill="#fff"/><path d="M7.223 8h2.533L6.302 5H4l2.009 1.752a3.242 3.242 0 00-1.62 1.464c-.726 1.352-.376 3.08.784 4.042a3.22 3.22 0 002.05.742h2.539l-1.733-1.333h-.806C6.067 11.663 5.166 10.25 5.637 9.1c.256-.625.925-1.099 1.586-1.101z" fill="#fff"/></svg>