<!-- by TradingView --><svg xmlns="http://www.w3.org/2000/svg" width="18" height="18"><path fill="url(#agg3whzgx)" d="M0 0h18v18H0z"/><path d="M8.61 14v-2.2c-.57-.1-1.8-.61-2.17-1.92-.36-1.24.2-2.17.56-2.53l-1.25-2.1A5.08 5.08 0 004 9a4.99 4.99 0 004.61 5z" fill="url(#bgg3whzgx)"/><path d="M13.92 9.88c-.48 1.86-2.3 3.06-3.35 3.52L5.75 5.25A5.01 5.01 0 009.03 4a4.99 4.99 0 014.9 5.88zm-5.28-3.4l2.36 4c.5-.42 1.25-1.64.26-3.15-.7-1.11-2.04-1.03-2.62-.85z" fill="#7FFFD4"/><defs><linearGradient id="agg3whzgx" x1="3.35" y1="3.12" x2="21.9" y2="24.43" gradientUnits="userSpaceOnUse"><stop stop-color="#1A1E21"/><stop offset="1" stop-color="#06060A"/></linearGradient><linearGradient id="bgg3whzgx" x1="9.14" y1="8.03" x2="3.1" y2="12.08" gradientUnits="userSpaceOnUse"><stop offset=".31" stop-color="#B5BDD3"/><stop offset="1" stop-color="#C9D7FA"/></linearGradient></defs></svg>