<!-- by TradingView --><svg width="18" height="18" xmlns="http://www.w3.org/2000/svg"><path fill="#341A95" d="M0 0h18v18H0z"/><path d="M8.648 6.941V5.667h1.642l2.034 1.862.441 1.765c0 3.53-3.529 4.706-4.853 4.706C6.54 14 6 13.147 6 13l1.912-.177c.98-.637 2.971-2.235 3.089-3.529 0-1.323-1.52-2.108-2.353-2.353z" fill="url(#paint0_linear)"/><path d="M9 11.687l-1.5-.04V4h1c2.04 0 4.413 1.765 4.266 5.588C12.472 6.941 10.128 5.667 9 5.667v6.02z" fill="url(#paint1_linear)"/><path d="M7.5 4L6 5.01V13h1.175c2.325 0 4.077-1.636 3.801-3.802-.553 2.021-2.416 2.166-3.476 2.166V4z" fill="url(#paint2_linear)"/><defs><linearGradient id="paint0_linear" x1="9.236" y1="5.765" x2="9.236" y2="14" gradientUnits="userSpaceOnUse"><stop stop-color="#5A3B90"/><stop offset=".292" stop-color="#614397"/><stop offset=".615" stop-color="#8071B3"/><stop offset=".857" stop-color="#AEBADE"/><stop offset="1" stop-color="#C2DCF1"/></linearGradient><linearGradient id="paint1_linear" x1="12.765" y1="7.526" x2="7.177" y2="7.526" gradientUnits="userSpaceOnUse"><stop stop-color="#6C5DF4"/><stop offset=".437" stop-color="#8093D6"/><stop offset="1" stop-color="#9DE2AE"/></linearGradient><linearGradient id="paint2_linear" x1="6" y1="8.909" x2="12.911" y2="8.909" gradientUnits="userSpaceOnUse"><stop stop-color="#5B51EF"/><stop offset=".19" stop-color="#8367D3"/><stop offset=".45" stop-color="#B483AA"/><stop offset=".715" stop-color="#E7A081"/></linearGradient></defs></svg>