<!-- by TradingView --><svg width="18" height="18" xmlns="http://www.w3.org/2000/svg"><path d="M0 9a9 9 0 1118 0A9 9 0 010 9z" fill="#1676CF"/><path d="M12.1 3c-.47 0-1.1.351-1.1.838-.006 2.088 0 4.177 0 6.265C11 11.629 10.05 13 8.556 13S6 11.972 6 10.377c0-1.595.955-2.538 2.4-2.538l-.58.58a.827.827 0 000 1.144.827.827 0 001.143 0l1.483-1.96a.826.826 0 000-1.143L8.93 4.382a.827.827 0 00-1.143 0 .828.828 0 000 1.143l.612.613C5.947 6.138 4 7.848 4 10.378 4 12.928 6.042 15 8.54 15 11 15 13 12.95 13 10.377v-6.54c0-.489-.424-.837-.9-.837z" fill="#fff"/></svg>