<!-- by TradingView --><svg width="18" height="18" xmlns="http://www.w3.org/2000/svg"><path fill="url(#paint0_linear)" d="M0 0h18v18H0z"/><path d="M7.234 6.131a3.24 3.24 0 013.532 0l1.13-1.127C11.011 4.338 10.056 4 9 4c-1.058 0-2.023.338-2.885 1.004l1.12 1.127zm-1.129 4.621A3.11 3.11 0 015.57 9c0-.635.174-1.22.534-1.752L4.985 6.13C4.33 6.991 4 7.945 4 9.011c0 1.044.329 2.007.996 2.878l1.109-1.137zm4.661 1.117a3.178 3.178 0 01-1.756.553 3.053 3.053 0 01-1.776-.543l-1.13 1.117c.873.676 1.838 1.014 2.906 1.004 1.058-.01 2.013-.349 2.875-1.004l-1.12-1.127zm1.098-4.631c.36.543.544 1.137.534 1.782a3.125 3.125 0 01-.534 1.722l1.13 1.116C13.66 10.998 14 10.045 14 9c.01-1.066-.329-2.029-1.006-2.9l-1.13 1.138zm1.181 4.979a.79.79 0 11-.79.789c0-.44.348-.789.79-.789zm-8.07 0c.431 0 .78.348.78.789 0 .43-.349.789-.78.789a.781.781 0 01-.78-.79.78.78 0 01.78-.788zm8.08-8.043c.431 0 .78.349.78.79a.78.78 0 01-.78.788.781.781 0 01-.78-.789c0-.44.349-.789.78-.789zm-8.09 0c.43 0 .79.349.79.779 0 .43-.349.779-.79.779a.788.788 0 01-.79-.78.78.78 0 01.79-.778zm6.894 7.967l-6-6 .282-.282 6 6-.282.282z" fill="#fff"/><path d="M6.141 12.141l6-6-.282-.282-6 6 .282.282z" fill="#fff"/><defs><linearGradient id="paint0_linear" x1="3.349" y1="3.122" x2="21.904" y2="24.434" gradientUnits="userSpaceOnUse"><stop stop-color="#1A1E21"/><stop offset="1" stop-color="#06060A"/></linearGradient></defs></svg>