<!-- by TradingView --><svg xmlns="http://www.w3.org/2000/svg" width="18" height="18"><path fill="url(#aqpvku1k4)" d="M0 0h18v18H0z"/><path fill-rule="evenodd" d="M9.02 10.28l.6.62c.7.66 1.4 1.1 2.45 1.07A2.96 2.96 0 0015 8.98 2.96 2.96 0 0012.07 6c-.7 0-1.39.17-1.9.63l-.73.72.39.4.67-.67c.41-.37.96-.5 1.53-.5 1.3 0 2.37 1.07 2.37 2.4 0 1.33-1.06 2.4-2.37 2.4-.85.04-1.4-.32-1.97-.85l-.65-.66.44-.45 1.25-1.27a1.2 1.2 0 011.72 0c.48.49.48 1.27 0 1.76a1.2 1.2 0 01-1.72 0l-.49-.5-.39.4.5.5c.68.7 1.8.7 2.5 0 .68-.71.68-1.85 0-2.56-.7-.7-1.82-.7-2.5 0l-2.36 2.38-.42.43c-.56.54-1.12.9-1.97.86a2.38 2.38 0 01-2.37-2.4c0-1.34 1.06-2.41 2.37-2.41.57 0 1.12.13 1.53.5l1.09 1.07L7.2 9.54l-.37.38c-.4.4-1 .47-1.46.21L6.4 9.08 7.46 8l-.24-.24c-.69-.7-1.8-.7-2.5 0-.69.7-.69 1.85 0 2.55.7.7 1.81.7 2.5 0l2.14-2.13-.38-.38-1.15-1.13a2.76 2.76 0 00-1.9-.63A2.96 2.96 0 003 9.01 2.96 2.96 0 005.93 12c1.05.04 1.75-.4 2.45-1.07l.64-.65zM5.1 8.14a1.27 1.27 0 00-.16 1.57l1.7-1.74a1.21 1.21 0 00-1.54.17z" fill="url(#bqpvku1k4)"/><defs><linearGradient id="aqpvku1k4" x1="3.35" y1="3.12" x2="21.9" y2="24.43" gradientUnits="userSpaceOnUse"><stop stop-color="#1A1E21"/><stop offset="1" stop-color="#06060A"/></linearGradient><linearGradient id="bqpvku1k4" x1="15" y1="9" x2="4.55" y2="9" gradientUnits="userSpaceOnUse"><stop stop-color="#23ACDD"/><stop offset="1" stop-color="#28A6E1"/></linearGradient></defs></svg>