<!-- by TradingView --><svg width="18" height="18" viewBox="0 0 18 18" xmlns="http://www.w3.org/2000/svg"><path fill="#F0F3FA" d="M0 0h18v18H0z"/><path d="M9 2.5v4.8l4 1.82L9 2.5Z" fill="#8FFCF3"/><path d="M9 2.5 5 9.12 9 7.3V2.5Z" fill="#CABCF8"/><path d="M9 12.23v3.27l4-5.62-4 2.35Z" fill="#CBA7F5"/><path d="M9 15.5v-3.27L5 9.88l4 5.62Z" fill="#74A0F3"/><path d="m9 11.48 4-2.36L9 7.3v4.18Z" fill="#CBA7F5"/><path d="m5 9.12 4 2.36V7.3L5 9.12Z" fill="#74A0F3"/><path fill-rule="evenodd" d="M9 11.48 5 9.12 9 2.5l4 6.62-4 2.36ZM5.27 8.93l3.67-6.08v4.42L5.27 8.93Zm-.06.16 3.73-1.68v3.88L5.2 9.09Zm3.85-1.68v3.88l3.73-2.2-3.73-1.68Zm0-.14 3.67 1.66-3.67-6.08v4.42Z" fill="#202699"/><path fill-rule="evenodd" d="m9 12.18-4-2.3 4 5.62 4-5.63-4 2.31Zm-3.55-1.9 3.49 2.01v2.9l-3.5-4.9Zm3.61 2.01v2.9l3.5-4.9-3.5 2Z" fill="#202699"/></svg>