<!-- by TradingView --><svg width="18" height="18" xmlns="http://www.w3.org/2000/svg"><path d="M0 9a9 9 0 1118 0A9 9 0 010 9z" fill="url(#paint0_linear)"/><path fill="#fff" d="M4 4.001h1.998v1.996H4zM7.002 4.001H9v1.996H7.002zM7 7.002h1.998V9H7zM10 4.001h1.998v1.996H10zM12.998 4.5h1v.999h-1zM12.998 7.502h1v.999h-1zM12.998 10.498h1v.999h-1zM12.998 12.999h1v.999h-1zM10.499 7.502h1v.999h-1zM7.499 10.512h1v1h-1zM10.499 10.498h1v1h-1zM10.499 12.999h1v1h-1zM4 13h1v.999H4zM7.501 13h1v.999h-1zM4 7.004h1.998V9H4zM4 10h1.998v1.996H4z"/><defs><linearGradient id="paint0_linear" x1="3.349" y1="3.122" x2="21.904" y2="24.434" gradientUnits="userSpaceOnUse"><stop stop-color="#1A1E21"/><stop offset="1" stop-color="#06060A"/></linearGradient></defs></svg>