<!-- by TradingView --><svg xmlns="http://www.w3.org/2000/svg" width="18" height="18"><path fill="url(#an1wqn2hq)" d="M0 0h18v18H0z"/><path fill-rule="evenodd" d="M6.29 7.5L9 5.98l2.71 1.52v3L9 12.04 6.29 10.5v-3zm.54.26L9 6.55l2.17 1.21v2.42L9 11.45l-2.17-1.27V7.76z" fill="url(#bn1wqn2hq)"/><path fill="#8081EE" d="M8.75 8.92h.5v5.23h-.5z"/><path fill="#8081EE" d="M9.25 8.8L9 9.2 4.14 6.48l.25-.4z"/><path fill="#8081EE" d="M8.76 8.77l.25.4 4.63-2.6-.25-.4z"/><path fill-rule="evenodd" d="M4 6.26L9 3.5l5 2.76v5.48L9 14.5l-5-2.76V6.26zm.67.26L9 4.04l4.33 2.48v4.96L9 13.96l-4.33-2.48V6.52z" fill="#8081EE"/><defs><linearGradient id="an1wqn2hq" x1="19" y1="9" x2="0" y2="9" gradientUnits="userSpaceOnUse"><stop stop-color="#151924"/><stop offset=".53" stop-color="#27395D"/><stop offset="1" stop-color="#141923"/></linearGradient><linearGradient id="bn1wqn2hq" x1="9.67" y1="5.54" x2="7" y2="11.73" gradientUnits="userSpaceOnUse"><stop stop-color="#86E0E9"/><stop offset="1" stop-color="#259AC1"/></linearGradient></defs></svg>