<!-- by TradingView --><svg width="18" height="18" xmlns="http://www.w3.org/2000/svg"><path fill="#F0F3FA" d="M0 0h18v18H0z"/><path d="M8.993 11.145v3.585c0 .223-.163.33-.364.236l-2.264-1.24A.698.698 0 016 13.148v-3.49c.04.029.083.053.128.075l2.865 1.412z" fill="#425CC7"/><path d="M6.306 9.119l5.39-2.452A.55.55 0 0012 6.203v-2.98c0-.185-.137-.27-.304-.197L6.74 5.286c-.526.244-.77.36-.74.874v2.763c0 .175.14.27.306.196z" fill="#005CB9"/><path d="M6.306 5.798l5.39 2.383a.553.553 0 01.304.464v3.034c0 .184-.137.27-.304.197L6.306 9.43A.553.553 0 016 8.966V5.995c0-.182.14-.271.306-.197z" fill="#3CB4E5"/><path d="M6.306 9.179l3.805-1.702-3.805-1.7a.22.22 0 00-.214 0A.587.587 0 006 6.063v2.88a.469.469 0 00.045.185c.05.075.162.1.249.056a.25.25 0 01.012-.006z" fill="#00A0DF"/></svg>