<!-- by TradingView --><svg width="18" height="18" xmlns="http://www.w3.org/2000/svg"><path fill="url(#paint0_linear)" d="M0 0h18v18H0z"/><path d="M7.432 6.49L5.7 8.168C5.368 8.5 5 8.5 5 8V6.922c.011-.337.14-.656.357-.89.218-.235.51-.366.812-.365h1.263l-.34.384-.393.439h.733z" fill="url(#paint1_linear)"/><path d="M13.474 7.302v.093a3.28 3.28 0 01-.86 2.128l-4.157 4.158a1.257 1.257 0 01-1.088.296l-.244-.075a6.07 6.07 0 01-.761-.326l-.053-.03a.174.174 0 01-.07-.144.19.19 0 01.035-.111l4.663-4.996C11.356 7.842 10.884 7 10.311 7H8.608l1.145-.75a.327.327 0 00.087-.087.3.3 0 00-.25-.46H7.155s.238-.255.33-.348c.21-.227.466-.518.745-.721A3.26 3.26 0 0110.172 4c.413 0 .823.077 1.21.227l.156.064c.28.128.54.294.774.494l.046.04h.006a3.308 3.308 0 011.11 2.472v.005z" fill="url(#paint2_linear)"/><path d="M10.036 5.667h-2.84l-1.14 1.012a.188.188 0 00.14.321h3.187l.899-.88a.254.254 0 00.053-.161.29.29 0 00-.088-.207.3.3 0 00-.21-.085zm-1.226.836a.195.195 0 01-.134-.053.187.187 0 01-.059-.13.184.184 0 01.088-.155.185.185 0 01.099-.029c.05 0 .097.018.133.052a.182.182 0 01.004.26.189.189 0 01-.131.055z" fill="#E35CC7"/><path opacity=".48" d="M8.881 6.552a.186.186 0 100-.372.186.186 0 000 .372z" fill="url(#paint3_linear)"/><path opacity=".75" d="M10.035 5.667H7.191L6.174 6.679c-.113.114-.03.318.134.321H9.5l.78-.88a.253.253 0 00.053-.161.29.29 0 00-.087-.207.301.301 0 00-.21-.085zm-1.233.836a.19.19 0 01-.133-.054.183.183 0 01-.054-.13.184.184 0 01.088-.155.185.185 0 01.099-.028.189.189 0 01.128.056.18.18 0 01.053.128.187.187 0 01-.054.126.194.194 0 01-.127.057z" fill="url(#paint4_linear)"/><path d="M7.583 5.667H7.19l-1.126.99c-.142.13-.116.343.103.343h.743l1.423-1.333h-.75z" fill="url(#paint5_linear)"/><path opacity=".43" d="M9.953 7l.314-.87L9.5 7h.453z" fill="url(#paint6_linear)"/><defs><linearGradient id="paint0_linear" x1="3.349" y1="3.122" x2="21.904" y2="24.434" gradientUnits="userSpaceOnUse"><stop stop-color="#1A1E21"/><stop offset="1" stop-color="#06060A"/></linearGradient><linearGradient id="paint1_linear" x1="5" y1="7.167" x2="7.333" y2="7.167" gradientUnits="userSpaceOnUse"><stop stop-color="#4750D9"/><stop offset=".41" stop-color="#5C45DC"/><stop offset="1" stop-color="#8131E1"/></linearGradient><linearGradient id="paint2_linear" x1="6.242" y1="9" x2="13.474" y2="9" gradientUnits="userSpaceOnUse"><stop stop-color="#E96161"/><stop offset=".2" stop-color="#E65B76"/><stop offset=".61" stop-color="#DF4AAC"/><stop offset="1" stop-color="#D739E6"/></linearGradient><linearGradient id="paint3_linear" x1="8.694" y1="6.366" x2="9.063" y2="6.366" gradientUnits="userSpaceOnUse"><stop stop-color="#B100D3"/><stop offset=".69" stop-color="#67008E"/></linearGradient><linearGradient id="paint4_linear" x1="5.667" y1="6.5" x2="10.333" y2="6.5" gradientUnits="userSpaceOnUse"><stop stop-color="#D0D7D3"/><stop offset=".52" stop-color="#D9C5E8"/><stop offset="1" stop-color="#E3B1FF"/></linearGradient><linearGradient id="paint5_linear" x1="5.67" y1="6.5" x2="8.333" y2="6.5" gradientUnits="userSpaceOnUse"><stop stop-color="#B277EC"/><stop offset=".77" stop-color="#9336E7"/><stop offset="1" stop-color="#8921E6"/></linearGradient><linearGradient id="paint6_linear" x1="9.123" y1="6.794" x2="10.329" y2="6.794" gradientUnits="userSpaceOnUse"><stop offset=".4" stop-color="#6D4173" stop-opacity=".82"/><stop offset=".7" stop-color="#9B5DA4"/><stop offset="1" stop-color="#AA66B4"/></linearGradient></defs></svg>