<!-- by TradingView --><svg xmlns="http://www.w3.org/2000/svg" width="18" height="18"><path fill="url(#aiwtoslgf)" d="M0 0h18v18H0z"/><path d="M13 5l-.3.99a13.1 13.1 0 01-1.11 2.63c-.53.84-1.22.9-1.86.2C8.84 7.84 8 11 8 11h2.6l-.33 1H8v2H7V5h6zm-1.1 1H8v3c.51-1.07 1.15-1.96 2.17-.87.45.49.66.35.97-.25.21-.4.47-1.02.77-1.87z" fill="#fff"/><defs><linearGradient id="aiwtoslgf" x1="3.35" y1="3.12" x2="21.9" y2="24.43" gradientUnits="userSpaceOnUse"><stop stop-color="#1A1E21"/><stop offset="1" stop-color="#06060A"/></linearGradient></defs></svg>