<!-- by TradingView --><svg width="18" height="18" viewBox="0 0 18 18" xmlns="http://www.w3.org/2000/svg"><path fill="#F0F3FA" d="M0 0h18v18H0z"/><path d="m13.63 6-.04-.03a.32.32 0 0 0-.04-.03l-4.08-2.3a.9.9 0 0 0-.13-.06.74.74 0 0 0-.7.01L6.06 5.05l-1.6.9a.33.33 0 0 0-.06.03l-.02.01a.71.71 0 0 0-.27.26.7.7 0 0 0-.11.35v4.71c0 .15.05.3.13.43s.19.23.32.3l4.2 2.37a.73.73 0 0 0 .71 0l4.27-2.4a.72.72 0 0 0 .36-.61V6.6a.7.7 0 0 0-.36-.6Z" fill="#EC1966"/><path d="M4 6.71v4.66c0 .31.24.55.5.7l4.13 2.33c.2.11.37.02.37-.2v-5c0-.1-.1-.2-.2-.25l-4.35-2.5a.3.3 0 0 0-.36.05.3.3 0 0 0-.09.21" opacity=".1"/><path d="M13.55 6.45 9.15 8.9a.3.3 0 0 0-.15.27v4.92c0 .22.22.38.42.27l4.13-2.31a.89.89 0 0 0 .45-.76V6.7a.28.28 0 0 0-.08-.2.3.3 0 0 0-.2-.1.3.3 0 0 0-.17.05" opacity=".2"/><path opacity=".7" d="M9.42 7.13 7.64 6.1 9 5.34l1.7 1.05-1.28.74ZM11 12V9.55L12 9v2.37L11 12ZM7 9.55V12l-1-.63V9l1 .55Z" fill="#F0F3FA"/></svg>