<!-- by TradingView --><svg width="18" height="18" viewBox="0 0 18 18" xmlns="http://www.w3.org/2000/svg"><path fill="#72F597" d="M0 0h18v18H0z"/><path d="M5.22 7.7c0-.17-.1-.29-.2-.29H3.4c-.11 0-.2.15-.2.3 0 .17.1.29.2.29h1.62c.12 0 .2-.15.2-.3ZM6.57 9.7c0-.17-.1-.29-.2-.29H4.75c-.12 0-.2.15-.2.3 0 .17.1.29.2.29h1.62c.1 0 .2-.12.2-.3ZM6.24 8.7c0 .18-.11.3-.22.3H4.09c-.12 0-.21-.15-.21-.3 0-.16.1-.29.21-.29h1.93c.13-.02.22.13.22.3ZM3.24 8.41c-.14 0-.24.15-.24.3 0 .17.12.29.24.29h.1c.15 0 .25-.15.25-.3 0-.17-.12-.29-.24-.29h-.1ZM7 10.7c0-.17-.1-.29-.2-.29H3.74c-.11 0-.2.15-.2.3 0 .17.1.29.2.29h3.08c.1 0 .19-.12.19-.3Z" fill="#231F20"/><path d="M13.62 10.46c-.64-.27-.94-.43-1.2-.18.13-.29.08-.3-.04-.5-.22-.41-.8-1.09-1-2.39 0 0 .32-.92.35-1.5 0 0 .12-.38-.42-.2 0 0-.66.36-1.03.47-.67-.09-1.68-.53-2.05-1.31 0 0 .3-.68.04-.84-.19-.1-.74.5-.74.5L5.61 6.98c-.05.11-.05.25.03.38.47.67 2.29 3.23 3.36 4.64-2.33.01-3.97.34-4 .58 0 .07.11.13.38.17.96.14 3.25.1 4.88.09.2.07.37.16.63.16h2.73c.6 0 1.39 0 1.38-.72 0-.72-.4-1.41-1.38-1.82Zm-4.87-.48.07-1.3H8.1l1.02-2.05L8.97 8h.68l-.9 1.98Z" fill="#231F20"/></svg>