<!-- by TradingView --><svg width="18" height="18" xmlns="http://www.w3.org/2000/svg"><path fill="#00A6C4" d="M0 0h18v18H0z"/><path d="M13.18 6.5l.096.15A4.75 4.75 0 0114 9.168a4.703 4.703 0 01-1.455 3.401A5.164 5.164 0 019 14h-.01c-2.752 0-5-2.182-4.99-4.85 0-.895.257-1.764.733-2.518l.086-.137.457.441c-.085.123-.162.26-.214.41-.174.46-.15.969.067 1.413.217.444.608.79 1.09.96a2 2 0 001.714-.21L9 10.546l1.219-1.182a1.95 1.95 0 001.617.187c.266-.088.509-.232.709-.422a1.771 1.771 0 00.544-1.491 1.768 1.768 0 00-.289-.774l.38-.364zm-7.342.977L7.271 8.86a.983.983 0 01-.619.21 1.053 1.053 0 01-.722-.293.96.96 0 01-.297-.694c0-.227.077-.437.205-.605zm5 1.296l1.42-1.368c.109.159.17.35.17.55 0 .545-.457.986-1.019.986-.214 0-.404-.06-.57-.168zM9.02 9.809L4.891 5.795l.161-.163a5.298 5.298 0 011.773-1.208A5.512 5.512 0 018.957 4h.01a5.44 5.44 0 013.971 1.714l.157.168L9.02 9.809zM5.562 5.795L9.019 9.15l3.41-3.286a4.876 4.876 0 00-1.58-1.029 5.062 5.062 0 00-1.873-.367h-.01a4.943 4.943 0 00-3.404 1.327z" fill="#fff"/></svg>