<!-- by TradingView --><svg width="18" height="18" xmlns="http://www.w3.org/2000/svg"><path fill="#56428E" d="M0 0h18v18H0z"/><path fill-rule="evenodd" d="M8 6c0-.64.254-1.254.707-1.707L9 4H6l.293.293C6.746 4.746 7 5.36 7 6H4.79L3.195 8.994 4.79 12H7c0 .64-.254 1.254-.707 1.707L6 14h3l-.293-.293A2.414 2.414 0 018 12h3c0 .64-.254 1.254-.707 1.707L10 14h3l-.293-.293A2.414 2.414 0 0112 12h1.272l1.156-1.558-.803-.596L12.77 11H12V7h.925l.828 1.273.838-.546L13.467 6H12c0-.64.254-1.254.707-1.707L13 4h-3l.293.293C10.746 4.746 11 5.36 11 6H8zm3 3.5V11H8V9.5h3zm0-1V7H8v1.5h3zM7 7H5.39L4.328 8.995 5.39 11H7V7z" fill="#fff"/></svg>