<!-- by TradingView --><svg width="18" height="18" viewBox="0 0 18 18" xmlns="http://www.w3.org/2000/svg"><path fill="#F0F3FA" d="M0 0h18v18H0z"/><path fill-rule="evenodd" d="M14 14H4V4h10v10ZM7.85 5h1.78s-.54.4-.54 1.2c0 .72.8 1.13.8 1.13s.38.2 1.04.5c.67.31 2.07 1.03 2.07 2.42 0 2.1-2.63 2.75-2.63 2.75H8.25s.73-.44.73-1.24-1.9-1.51-1.9-1.51S5 9.65 5 7.79C5 5.56 7.85 5 7.85 5Zm-2.18 7.33V13H5v-2h.67v.67h.66V11H7v2h-.67v-.67h-.66Zm6-6h.18l.4.67H13l-.68-1.2L13 5h-.68l-.58.67h-.07V5H11v2h.67v-.67Z" fill="#EC1D24"/></svg>