<!-- by TradingView --><svg xmlns="http://www.w3.org/2000/svg" width="18" height="18"><path fill="#F0F3FA" d="M0 0h18v18H0z"/><path d="M4 9a5 5 0 1110 0A5 5 0 014 9z" fill="#133A66"/><path d="M13.55 9a4.55 4.55 0 11-9.1 0 4.55 4.55 0 019.1 0z" fill="#67C3F0"/><path d="M9 13.68c2.9-1.87.46-6 0-6.47-.46.47-2.9 4.6 0 6.47z" fill="#133A66"/><path d="M9 13.4c1.6-1.25 1.16-3.8 0-5.7-1.16 1.9-1.6 4.45 0 5.7z" fill="#fff"/><path d="M9 13.4c1.05-1.57-.08-3.54 0-3.41.08-.13-1.05 1.84 0 3.4z" fill="#133A66"/></svg>