<!-- by TradingView --><svg width="18" height="18" viewBox="0 0 18 18" xmlns="http://www.w3.org/2000/svg"><path fill="#00473F" d="M0 0h18v18H0z"/><path d="m8.6 3-.72.6V8c-.25-.1-.49-.19-.72-.25V4.26l-.72.6V7.6c-.25-.04-.5-.05-.72-.05V5.49L5 6.1V7.6c-.99.15-1.7.6-2 .95v.23a3.17 3.17 0 0 1 2-.9V12h.72V7.87c.24.02.48.06.72.11V12h.72V8.18c.25.08.5.18.72.28V12h.72V8.8a10.35 10.35 0 0 1 .8.46V15l.72-.6V9.64c.25.13.49.24.72.33v3.77l.72-.6v-2.9c.25.09.5.15.72.2v2.07l.72-.6v-1.35c1.16.09 1.78-.3 2-.68v-.32c-.55.62-1.15.83-2 .69V6h-.72v4.07a9.66 9.66 0 0 1-.72-.27V6h-.72v3.47c-.23-.1-.47-.22-.72-.35V6H9.4v2.75l-.8-.42V3Z" fill="#fff"/></svg>