<!-- by TradingView --><svg width="18" height="18" viewBox="0 0 18 18" xmlns="http://www.w3.org/2000/svg"><path fill="#F0F3FA" d="M0 0h18v18H0z"/><path d="M4.29 4a.29.29 0 0 0-.29.29v9.42c0 .16.13.29.29.29h9.42c.16 0 .29-.13.29-.29V9.68c0-.2-.16-.35-.35-.35a.37.37 0 0 0-.37.32 4.33 4.33 0 1 1 .02-1.2c.02.19.17.33.36.33.19 0 .34-.15.34-.34V4.29a.29.29 0 0 0-.29-.29H4.3Z" fill="#E70012"/><path fill-rule="evenodd" d="M10.38 6H7v6h3.3l.7-.5V9.36l-.41-.38.41-.37V6.46L10.38 6ZM8.33 7h1.34v1.33H8.33V7Zm1.34 2.67H8.33V11h1.34V9.67Z" fill="#E70012"/><path d="M9 12.99A3.99 3.99 0 1 0 9 5 3.99 3.99 0 0 0 9 13ZM12.67 9a3.67 3.67 0 1 1-7.34 0 3.67 3.67 0 0 1 7.34 0Z" fill="#E70012"/></svg>