<!-- by TradingView --><svg width="18" height="18" viewBox="0 0 18 18" xmlns="http://www.w3.org/2000/svg"><path fill="url(#a40deinvm)" d="M0 0h18v18H0z"/><path d="M5.99 6c1.43 0 2.34.92 2.61 1.39l-2.14.46.59-.46c-1.36-.97-3.15.25-3.15 1.53 0 1.02.85 1.68 1.23 1.89-1.15-.16-1.92-.95-2-1.2-.06-.2-.13-.46-.13-.69A2.97 2.97 0 0 1 5.99 6Z" fill="url(#b40deinvm)"/><path d="M12.01 12a3.12 3.12 0 0 1-2.61-1.4l2.14-.46-.59.46c1.36.97 3.15-.25 3.15-1.53 0-1.02-.85-1.68-1.23-1.88 1.15.16 1.92.94 2 1.2.06.2.13.45.13.68A2.97 2.97 0 0 1 12.01 12Z" fill="url(#c40deinvm)"/><path d="M5.27 10.93c-1.2 0-1.94-.72-2.16-1.08C3.28 10.86 4.46 12 6.03 12c1.25 0 2.34-1.1 2.73-1.65l1.54-2.27a3 3 0 0 1 2.09-1.06c.97 0 2.15.7 2.61 1.06-.2-.69-1-2.06-2.61-2.06a3.78 3.78 0 0 0-3.06 1.7c-.58.8-1.81 2.44-2.03 2.63-.28.24-.54.58-2.03.58Z" fill="url(#d40deinvm)"/><defs><linearGradient id="a40deinvm" x1="3.35" y1="3.12" x2="21.9" y2="24.43" gradientUnits="userSpaceOnUse"><stop stop-color="#1A1E21"/><stop offset="1" stop-color="#06060A"/></linearGradient><linearGradient id="b40deinvm" x1="7.67" y1="6.41" x2="5.77" y2="10.79" gradientUnits="userSpaceOnUse"><stop stop-color="#68D869"/><stop offset=".8" stop-color="#C6F88A"/></linearGradient><linearGradient id="c40deinvm" x1="12.2" y1="12" x2="15.04" y2="8.3" gradientUnits="userSpaceOnUse"><stop stop-color="#1CD7CA"/><stop offset=".39" stop-color="#1BB8CA"/><stop offset="1" stop-color="#1CD7CA"/></linearGradient><linearGradient id="d40deinvm" x1="3.11" y1="12" x2="13.56" y2="2.81" gradientUnits="userSpaceOnUse"><stop stop-color="#ADF160"/><stop offset=".65" stop-color="#17B6D7"/><stop offset=".92" stop-color="#0061A0"/></linearGradient></defs></svg>