<!-- by TradingView --><svg width="18" height="18" viewBox="0 0 18 18" xmlns="http://www.w3.org/2000/svg"><path fill="url(#anpza543o)" d="M0 0h18v18H0z"/><path fill-rule="evenodd" d="M5.08 4h7.8L14 5.44l-2.76 3.59L14 12.59 12.89 14h-7.8L4 12.6l2.75-3.57L4 5.43 5.08 4Zm.03.5 7.15 9h-7.1l-.54-.5h5.33c.07 0 .11-.15.07-.2L4.34 5.45l.77-.96Zm2.76 6 1.1 1.5H7.3c-.22 0-.34-.27-.2-.45l.78-1.05Zm3.16-1.74-.94-1.18.8-1c.14-.17.02-.58-.2-.58H9c-.1-.05-.22-.17-.12-.2a.4.4 0 0 1 .12-.01h4.47l-2.43 2.97Z" fill="#fff"/><defs><linearGradient id="anpza543o" x1="3.03" y1="18" x2="15.73" y2="2.13" gradientUnits="userSpaceOnUse"><stop stop-color="#9722AD"/><stop offset=".78" stop-color="#592E9C"/></linearGradient></defs></svg>