<!-- by TradingView --><svg width="18" height="18" xmlns="http://www.w3.org/2000/svg"><path fill="#103657" d="M0 0h18v18H0z"/><path d="M6.816 7.788l2.183-1.217V4L4.5 6.504l2.316 1.284z" fill="#4C8ECB"/><path d="M9 11.5l2.188-1.233L13.5 9v2.535L9.003 14 9 11.5zM9 6.571l2.184 1.216 2.311-1.288L8.999 4v2.571z" fill="#2E73AF"/><path d="M9 11.5l-2.25-1.25-2.25 1.254L9 14v-2.5z" fill="#4C8ECB"/><path d="M6.816 10.217V7.788L4.5 6.504l.007 5 2.309-1.287z" fill="#2E73AF"/><path d="M9 6.5l2.25 1.251v2.499L9 9V6.5z" fill="#808184"/><path d="M9 6.5L6.75 7.753v2.497L9 9V6.503" fill="#58595B"/></svg>