<!-- by TradingView --><svg width="18" height="18" viewBox="0 0 18 18" xmlns="http://www.w3.org/2000/svg"><path fill="url(#aycv0cuix)" d="M0 0h18v18H0z"/><path d="M8.48 4A2.88 2.88 0 0 0 5.9 5.6 2.32 2.32 0 0 0 4.05 7.7a2.4 2.4 0 0 0 1.35 4.4 2.32 2.32 0 0 0 2.58 1.02 2.82 2.82 0 0 0 3.57.45c.36-.23.66-.54.86-.9a2.6 2.6 0 0 0 2.27-3.82 1.94 1.94 0 0 0-.38-2.19c-.3-.3-.65-.48-1.05-.56a2.38 2.38 0 0 0-2.3-1.68c-.26 0-.53.05-.78.13A2.89 2.89 0 0 0 8.48 4Zm0 .4c.6 0 1.17.22 1.62.6.27-.12.56-.18.85-.18.98 0 1.81.7 1.97 1.64.85.03 1.53.72 1.53 1.56 0 .3-.08.59-.25.84a2.16 2.16 0 0 1-2.04 3.38 2.3 2.3 0 0 1-2.13 1.35c-.78 0-1.5-.36-1.91-.95a1.9 1.9 0 0 1-2.48-.97l-.2.01a2 2 0 0 1-.98-3.77v-.12c0-.91.73-1.68 1.73-1.83A2.45 2.45 0 0 1 8.5 4.4" fill="#F0F0F0"/><path d="M14.57 10.16a1.97 1.97 0 0 1-3.83.65c-1.6.11-2.5-.6-2.88-1.95a2.25 2.25 0 1 1 2.25-3.7 1.75 1.75 0 0 1 1.65-.14c.62.26 1.06.87 1.07 1.59v.05a1.31 1.31 0 0 1 1.33.5 1.31 1.31 0 0 1-.1 1.69c.32.35.5.8.5 1.31" fill="#FF5CAA"/><path d="M10.22 5.08c.04.07.02.15-.04.19-.23.15-.43.36-.56.61a.13.13 0 1 1-.23-.12c.15-.3.37-.54.64-.72a.13.13 0 0 1 .19.04Zm-1.87.6c.07 0 .14.06.14.13.05.72.65 1.28 1.37 1.28a.13.13 0 0 1 0 .27c-.87 0-1.58-.67-1.64-1.53 0-.07.05-.14.13-.14Zm2.79.74c.05.05.05.14 0 .2a2.04 2.04 0 0 0 1.5 3.42c.15 0 .3-.02.44-.05a.13.13 0 0 1 .05.27c-.16.03-.32.05-.48.05v-.14.14a2.3 2.3 0 0 1-1.7-3.88.13.13 0 0 1 .19 0Zm1.82.22a.13.13 0 0 1-.1.15c-.19.04-.36.13-.5.25a.13.13 0 0 1-.17-.2c.17-.16.38-.26.6-.3.08-.02.15.02.17.1Z" fill="#103849"/><path d="M8.45 4.55a2.13 2.13 0 0 0-.56 4.2c.04 0 .07.03.08.07.19.66.5 1.15.94 1.47.45.31 1.04.46 1.82.4.05 0 .1.03.12.08a1.85 1.85 0 0 0 3.6-.6c0-.48-.18-.92-.47-1.24a.12.12 0 0 1 0-.16 1.2 1.2 0 0 0-1.13-1.99.12.12 0 0 1-.14-.12v-.03a1.64 1.64 0 0 0-2.54-1.37.12.12 0 0 1-.15-.02 2.12 2.12 0 0 0-1.57-.7Zm4.5 1.98a1.43 1.43 0 0 1 1.59 1.42c0 .34-.12.65-.32.9.29.36.46.81.46 1.3v.01a2.09 2.09 0 0 1-4.02.77c-.77.04-1.4-.1-1.88-.45a2.74 2.74 0 0 1-1.01-1.53 2.37 2.37 0 1 1 2.36-3.94 1.88 1.88 0 0 1 2.82 1.52Z" fill="#103849"/><path d="M13.6 8.44a.13.13 0 0 1 .19-.02 4.26 4.26 0 0 1 .37.33c.05.06.05.14 0 .2a.13.13 0 0 1-.19 0v-.01l-.02-.02a3.33 3.33 0 0 0-.33-.29.13.13 0 0 1-.02-.19Zm-5.58 3.28c.07-.01.14.04.14.12.03.18.08.36.16.53.03.06 0 .14-.07.18a.13.13 0 0 1-.18-.07c-.09-.2-.15-.4-.17-.61 0-.08.04-.14.12-.15Z" fill="#103849"/><path d="M12.06 11.05c.07.2.1.4.1.6 0 1.06-.93 1.92-2.07 1.92-.85 0-1.58-.47-1.9-1.15-.26.18-.57.29-.91.29-.76 0-1.4-.53-1.6-1.24a1.8 1.8 0 0 1-2.25-1.75c0-.77.48-1.42 1.15-1.68-.03-.11-.04-.22-.04-.34 0-.9.84-1.64 1.87-1.64.6 0 1.12.25 1.47.62.27-.15.59-.23.93-.23a1.86 1.86 0 0 1 1.9 1.89c.86.16 1.51.95 1.51 1.9 0 .3-.06.57-.16.81" fill="#FF5CAA"/><path d="M7.81 6.57c-.25.13-.47.32-.64.54a.13.13 0 0 0 .03.19c.05.04.14.03.18-.03.15-.19.34-.35.55-.46l.05-.04a.13.13 0 0 0-.17-.2ZM5.18 7.9c0 .08-.04.14-.12.15-.15.01-.3.05-.43.1a.13.13 0 0 1-.1-.25c.16-.06.33-.1.5-.12.08 0 .14.05.15.12Zm1.48 1.47c.03.07 0 .15-.06.18a1.6 1.6 0 0 0-.8 1.87.13.13 0 1 1-.26.07 1.9 1.9 0 0 1 .94-2.18c.07-.03.15 0 .18.06Zm4.62.7a.13.13 0 0 1 .18-.03c.33.25.59.58.72.96a.13.13 0 1 1-.25.1 1.79 1.79 0 0 0-.62-.84.13.13 0 0 1-.03-.19Z" fill="#103849"/><path d="M6.41 6.18c-.98 0-1.75.7-1.75 1.52 0 .1 0 .21.03.31a.12.12 0 0 1-.07.14 1.68 1.68 0 0 0 .61 3.25c.14 0 .28-.01.41-.05.07-.01.13.02.14.08.2.67.8 1.16 1.5 1.16.31 0 .6-.1.85-.26a.12.12 0 0 1 .17.04c.3.64.99 1.08 1.8 1.08 1.08 0 1.94-.81 1.94-1.8 0-.19-.03-.38-.1-.56a.12.12 0 0 1 0-.08c.11-.23.17-.5.17-.76 0-.9-.62-1.65-1.43-1.8a.12.12 0 0 1-.1-.12v-.06c0-.94-.79-1.7-1.77-1.7-.32 0-.62.08-.88.22a.12.12 0 0 1-.14-.03 1.86 1.86 0 0 0-1.38-.58ZM4.42 7.7c0-.98.9-1.75 2-1.75.58 0 1.12.22 1.48.59.27-.13.58-.2.9-.2 1.1 0 2 .84 2.02 1.9.87.21 1.52 1.03 1.52 2 0 .3-.06.57-.16.82.07.19.1.4.1.6h-.12.12c0 1.13-.99 2.03-2.19 2.03-.84 0-1.58-.44-1.94-1.1l.11-.07-.06-.1-.11.05.06.12c-.26.15-.56.24-.87.24a1.8 1.8 0 0 1-1.69-1.23l.11-.02-.03-.11-.11.03.03.1c-.12.03-.24.04-.36.04v-.12.12a1.92 1.92 0 0 1-.78-3.67 1.56 1.56 0 0 1-.03-.27Zm6.3.57h.1-.1" fill="#103849"/><path d="M10.38 8.44c-.46 0-.89.2-1.2.53a.13.13 0 0 1-.19 0 .13.13 0 0 1 0-.19 1.92 1.92 0 0 1 1.74-.57.13.13 0 0 1-.05.26l-.3-.03Zm-1.94.27c.06.05.06.13.02.2-.2.22-.3.51-.3.81a1.3 1.3 0 0 0 2.32.81.13.13 0 0 1 .19-.02c.05.05.06.13.02.2a1.56 1.56 0 0 1-2.8-.99c0-.36.13-.7.36-.99a.13.13 0 0 1 .19-.02ZM7.9 9.72h.13-.13Z" fill="#103849"/><path d="M6.33 8.04a.13.13 0 0 1 .2 0 .95.95 0 0 0 .93.23c.07-.02.14.02.16.1a.13.13 0 0 1-.09.16 1.22 1.22 0 0 1-1.2-.3.13.13 0 0 1 0-.19Zm.86.54v-.14.14Zm5.52-.29a.73.73 0 0 0-.44.15.13.13 0 0 1-.18-.03.13.13 0 0 1 .02-.19 1 1 0 0 1 .78-.18.13.13 0 0 1-.05.26.74.74 0 0 0-.13 0Zm0-.27v.14-.14ZM5.92 10a1.41 1.41 0 0 0-1.32-.15.13.13 0 0 1-.1-.25 1.68 1.68 0 0 1 1.57.18c.06.04.08.13.04.19a.13.13 0 0 1-.19.03Zm-.8-.51v.13-.13Zm3.15.75a.13.13 0 0 1-.1.16c-.4.08-.74.31-.95.64a.13.13 0 0 1-.19.03.13.13 0 0 1-.04-.18c.26-.38.66-.66 1.12-.75.07-.01.14.03.16.1Zm1.57.74a.13.13 0 0 1 .18.05c.13.26.21.54.21.85a.13.13 0 1 1-.27 0c0-.26-.06-.5-.18-.72a.13.13 0 0 1 .06-.18Z" fill="#103849"/><defs><linearGradient id="aycv0cuix" x1="3.35" y1="3.12" x2="21.9" y2="24.43" gradientUnits="userSpaceOnUse"><stop stop-color="#1A1E21"/><stop offset="1" stop-color="#06060A"/></linearGradient></defs></svg>