<!-- by TradingView --><svg width="18" height="18" fill="none" xmlns="http://www.w3.org/2000/svg"><path fill="#F0F3FA" d="M0 0h18v18H0z"/><path fill-rule="evenodd" clip-rule="evenodd" d="M14.5 9a5.5 5.5 0 11-11 0 5.5 5.5 0 0111 0zm.5 0A6 6 0 113 9a6 6 0 0112 0zm-1 0A5 5 0 114 9a5 5 0 0110 0zM9.309 6.351a.75.75 0 100-1.5.75.75 0 000 1.5zM7.29 8.247L10 6.762v2.312l2.675-1.361v.495L10 9.592v1.703c0 1.3-.794 2.107-1.732 2.107-.847 0-1.657-.442-1.657-1.509 0-.973 1.264-1.774 2.39-2.301V7.909l-1.71.852v-.514zM9 11.113v-.909c-.697.371-1.171.98-1.253 1.373-.081.392-.015 1.016.558.927.573-.09.695-.927.695-1.39z" fill="#F6931E"/></svg>