<!-- by TradingView --><svg width="18" height="18" xmlns="http://www.w3.org/2000/svg"><path d="M0 9a9 9 0 1118 0A9 9 0 010 9z" fill="url(#paint0_linear)"/><path d="M4 5.99L9 3l5 2.99v5.994L9 15l-5-3.016V5.99z" fill="#fff"/><path d="M8.463 5h2.149c.136 0 .384.16.384.5 0 .34-.23.5-.384.5H9v1h1.211c.135 0 .401.145.401.5s-.271.5-.4.5H9v2.307H8V5.436c.009-.335.304-.433.463-.436z" fill="url(#paint1_linear)"/><ellipse cx="8.501" cy="11.5" rx="1.501" ry="1.5" fill="url(#paint2_linear)"/><circle cx="8.5" cy="11.496" fill="#fff" r=".5"/><defs><linearGradient id="paint0_linear" x1="9" y1="0" x2="9" y2="18" gradientUnits="userSpaceOnUse"><stop stop-color="#4AB0E1"/><stop offset="1" stop-color="#58B9CF"/></linearGradient><linearGradient id="paint1_linear" x1="9.468" y1="5.007" x2="9.468" y2="12.683" gradientUnits="userSpaceOnUse"><stop stop-color="#4AB0E1"/><stop offset="1" stop-color="#58B9CF"/></linearGradient><linearGradient id="paint2_linear" x1="8.501" y1="10" x2="8.501" y2="13" gradientUnits="userSpaceOnUse"><stop stop-color="#52B5D5"/><stop offset="1" stop-color="#58B9CF"/></linearGradient></defs></svg>