<!-- by TradingView --><svg width="18" height="18" xmlns="http://www.w3.org/2000/svg"><path fill="#137CAB" d="M0 0h18v18H0z"/><path d="M3 12l1.318-1.556L5.637 12H3zM6.124 12l1.319-1.556L8.76 12H6.124zM9.239 12l1.318-1.556L11.885 12H9.24zM12.363 12l1.319-1.556L15 12h-2.637zM9.66 5.668c.133.253.315.72.315.972 0 .82-.44 1.311-.985 1.311-.535 0-.955-.504-.955-1.311 0-.265.191-.782.354-1.072.19-.328.363-.568.601-.568.258 0 .469.29.67.668zM10.567 6.968c.181 0 .563.466.707.693.095.164.44.72.44.87 0 .518-.755 1.376-1.147 1.376-.382 0-1.128-.846-1.128-1.375 0-.164.373-.782.488-.959.133-.202.458-.605.64-.605zM7.424 6.968c.181 0 .563.466.707.693.095.164.439.72.439.87 0 .518-.755 1.376-1.146 1.376-.392 0-1.128-.846-1.128-1.375 0-.164.373-.782.487-.959.144-.202.469-.605.64-.605zM12.134 8.847c.095 0 .62.605.697.719.048.075.535.693.535.769 0 .24-1.041 1.387-1.232 1.387-.191 0-1.223-1.147-1.223-1.387 0-.076.535-.757.592-.845.067-.101.535-.643.63-.643zM8.99 8.847c.096 0 .621.605.698.719.048.075.535.693.535.769 0 .24-1.042 1.387-1.233 1.387-.19 0-1.223-1.147-1.223-1.387 0-.076.535-.757.593-.845.076-.101.544-.643.63-.643zM5.876 8.847c.095 0 .62.605.697.719.048.075.535.693.535.769 0 .24-1.041 1.387-1.232 1.387-.191 0-1.223-1.147-1.223-1.387 0-.076.535-.757.592-.845.077-.101.545-.643.63-.643z" fill="#fff"/></svg>