<!-- by TradingView --><svg width="18" height="18" xmlns="http://www.w3.org/2000/svg"><path fill="#2319DC" d="M0 0h18v18H0z"/><path d="M5.5 9c1 0 1.023-1.533.988-1.817-.059-.438-.62-1.203-1.381-1.143-.959.079-1.099 1.35-1.099 1.35C3.878 7.978 4 9 5.5 9zm2-2c.654 0 1.366-.645 1.366-1.5 0-.854-.529-1.545-1.183-1.545-.653 0-1.183.691-1.183 1.545 0 .855.347 1.5 1 1.5zm3 0c.875.104 1.437-.752 1.549-1.402.114-.648-.45-1.401-1.07-1.53-.62-.13-1.395.781-1.465 1.376-.084.727.113 1.453.986 1.556zm3.495 1.283c0-.311-.28-1.246-1.323-1.246-1.044 0-1.184.882-1.184 1.506 0 .596.215 1.483 1.512 1.457 1.297-.026.995-1.405.995-1.717zM12.457 10.974s-1.262-.972-1.998-2.023c-.998-1.549-2.417-.918-2.891-.13-.473.787-1.209 1.286-1.314 1.417-.105.13-1.523.892-1.208 2.285C5.36 13.914 6.5 14 6.5 14c.59.04 1.148-.116 1.726-.243a3.73 3.73 0 011.76.052s2.208.736 2.812-.682c.604-1.418-.34-2.153-.34-2.153z" fill="#fff"/></svg>