<!-- by TradingView --><svg width="18" height="18" viewBox="0 0 18 18" xmlns="http://www.w3.org/2000/svg"><path fill="#EE2722" d="M0 0h18v18H0z"/><path d="M4.33 6.34A3.3 3.3 0 0 0 3.04 9c0 1.1.5 2.06 1.3 2.66V6.34Zm.08-.06h4.15c-.6-.5-1.25-.64-2.1-.64a3.5 3.5 0 0 0-2.05.64Zm0 5.44c.57.4 1.27.64 2.05.64.86 0 1.5-.15 2.1-.64H4.41Zm.57-.72h2.97L6.01 9l1.94-2H4.98v4Zm1.97-2 2.16 2.27.05.05L11.36 6h1.75l2.5 6h-2.8l-.57-1.23-.57 1.23H9.15A4.09 4.09 0 0 1 2.4 9a4.08 4.08 0 0 1 7.1-2.67L6.94 9Zm7.54 2.27L12.64 6.7h-.81l-1.87 4.57h1.23l1.05-2.04 1.02 2.04h1.23Z" fill="#fff"/></svg>