<!-- by TradingView --><svg width="18" height="18" xmlns="http://www.w3.org/2000/svg"><path fill="#F0F3FA" d="M0 0h18v18H0z"/><path d="M4.413 11.67c1.215.583 3.557 1.135 4.604 1.33 1.803-.302 3.738-.946 4.573-1.318 1.146-.607 1.213-1.345 1.251-1.77l.001-.012s.123-1.51.157-2.466c.033-.957-.638-1.02-1.223-1.02l-4.759-.323c-1.353.086-4.274.274-5.125.342-.852.068-.925.706-.883 1.149l.144 2.18c.059 1.133.71 1.643 1.26 1.907z" fill="url(#paint0_linear)" stroke="#080300" stroke-width=".2"/><path d="M9.017 13c-1.047-.195-3.389-.747-4.604-1.33-.55-.264-1.201-.775-1.26-1.907l-.07-1.072-.002-.019.001.02c.012.157.113 1.257.74 2.043.156.196.408.432.901.65 1.39.613 3.984 1.203 4.294 1.18.866-.069 4.734-.973 5.178-1.83 0 0 .566-.615.755-2.063L14.842 9.9v.012c-.04.425-.106 1.163-1.252 1.77-.835.372-2.77 1.016-4.573 1.318z" fill="url(#paint1_linear)" stroke="#000" stroke-width=".2"/><path d="M3.627 7.619L3.7 8.654l2.752.205.087-1.908-2.45.18c-.405 0-.476.325-.462.488zm10.753 0l-.074 1.035-2.751.205-.088-1.908 2.451.18c.404 0 .476.325.461.488z" fill="#252525"/><path d="M7.283 8.892l-.134-1.896 1.844-.126 1.87.126-.134 1.896-1.736.134-1.71-.134zm-.778.86l-2.768-.386c.1 1.064.374 1.217.885 1.516.41.239 1.521.585 2.026.728l-.143-1.858zm4.982 0l2.767-.386c-.1 1.064-.374 1.217-.885 1.516-.409.239-1.52.585-2.025.728l.143-1.858z" fill="#006EBC"/><path d="M8.995 10.04L7.23 9.843v1.934l1.765.342 1.745-.342V9.843l-1.745.197z" fill="#252525"/><defs><linearGradient id="paint0_linear" x1="9" y1="6.091" x2="9" y2="13" gradientUnits="userSpaceOnUse"><stop stop-color="#FBFAF8"/><stop offset=".264" stop-color="#DDBB7D"/><stop offset="1" stop-color="#A08757"/></linearGradient><linearGradient id="paint1_linear" x1="3.157" y1="9.907" x2="14.82" y2="10.1" gradientUnits="userSpaceOnUse"><stop stop-color="#553F1C"/><stop offset="1" stop-color="#120903"/></linearGradient></defs></svg>