<!-- by TradingView --><svg xmlns="http://www.w3.org/2000/svg" width="18" height="18" viewBox="0 0 18 18"><path fill="#F0F3FA" d="M0 0h18v18H0z"/><path d="M6.08 6.27a.42.42 0 0 0-.12-.2L5.88 6a.2.2 0 0 0-.05-.13.7.7 0 0 0-.23-.12 1.53 1.53 0 0 0-.34-.03l-.14.02c-.06.01-.1.03-.19.07-.08.04-.16.1-.22.15l-.19.2-.15.2-.13.11a.73.73 0 0 0-.12.21l-.06.18c-.03.05-.02.11-.04.15 0 .04-.01.06-.04.15-.02.1.02.2.04.25.02.04.17.16.2.22s.07.15.13.22c.05.07.15.12.18.14.03.03.09.05.13.06l.1.01c.05.01.1 0 .16-.02l.1-.02c.1-.03.13-.07.17-.1l.14-.18c.04-.04.1-.07.13-.09l.22-.17.05-.04c.04-.05.06-.1.07-.13l.12-.17.05-.12.07-.17a2 2 0 0 0 .05-.32v-.18l-.01-.1Zm-.26.2v.14l-.02.05c-.02.01-.06 0-.06-.02l.01-.06c0-.04-.05-.1-.06-.12l-.04-.06c-.03-.04-.11-.07-.14-.08-.02 0-.03 0-.03-.04 0 0 0-.02-.02-.02l-.08-.04c-.03 0-.07-.02-.09-.04l-.02-.01-.01-.01c-.02 0-.03-.04 0-.04.02 0 .06 0 .08.02.02 0 .07 0 .09.02.02.02.05.03.08.03a.5.5 0 0 1 .06 0 .34.34 0 0 0 .07.02c.05.03.14.1.16.14.01.04.03.09.02.11Z" fill="#ED6D46"/><path d="M3.1 9.23c-.1.04-.34.14-.57.3l-.09.06a.36.36 0 0 1-.05.04l-.02.02-.13.1c-.08.08 0 .08.04.06.02 0 .06 0 .03.04l-.16.16-.07.1a1.02 1.02 0 0 1-.03.07.4.4 0 0 1-.02.03l-.02.06v.08l.04.03a.8.8 0 0 1 .06.01l.03.01c.05 0 .08-.02.1-.04h.01l.04-.03.16-.12c.1-.08.4-.23.5-.26l.13-.05a4.85 4.85 0 0 1 .72-.24l.17-.04.1-.03.13-.02.09-.02.08-.02h.02l.08-.03h.02l.3-.09.3-.07.13-.02.14-.03h.08l.07-.01.07-.02.03-.01h.19c.03 0 .09 0 .14-.02h.14a.74.74 0 0 0 .15-.04h.09a.83.83 0 0 0 .08 0l.05-.01.04-.02c.03 0 .07 0 .12-.03l1.1-.11.2-.02h.06l.07-.01a7.68 7.68 0 0 1 .46-.03h.04l.08-.02H10.03l.06.01H10.38l.06.01h.11l.02.01h.05l.07-.01c.1 0 1.3.17 1.3.17l.06.01.05.01h.07a1.18 1.18 0 0 0 .1 0l.1.01.04.01.08.01.04.02.03.01.07.03.08.02a.7.7 0 0 0 .17.08h.16l.02.01h.03l.08.02h.08l.1.02.09.02c.04.01.08.03.13.03h.05a.94.94 0 0 1 .17.01l.2.05.25.08c.06.02.17.05.23.05s.08-.04.06-.07c-.01-.02.04-.01.06 0 .03 0 .05.02.08.03h.01l.27.15h.02c.07.05.3.14.3.14.15.04.17.03.26.01l.16-.03.06-.01h.02l.15-.03c.02-.01.06-.08.07-.1a.2.2 0 0 0 0-.1 3.74 3.74 0 0 1-.05-.22c-.01-.04-.07-.06-.12-.07h-.02a3.75 3.75 0 0 1-.73-.12l-.21-.12a1.86 1.86 0 0 0-.23-.11l-.07-.03a2.17 2.17 0 0 1-.1-.04l-.13-.06-.2-.03-.27-.04a5.28 5.28 0 0 1-.14-.02c-.12-.01-.4-.05-.45-.07a2.58 2.58 0 0 1-.13-.04l-.13-.05a15.82 15.82 0 0 0-.64-.09c-.07 0-.2-.03-.25-.04a5.77 5.77 0 0 1-1.95-.3l-.1-.01h-.14l-.73-.02a128.06 128.06 0 0 1-.92-.03l-.37.03-1.33.18-.3.05c-.1 0-.27.03-.35.04l-.17.01-.18.02-.2.03-.07.02a2.7 2.7 0 0 0-.56.15l-.23.07a2.6 2.6 0 0 1-.25.09 6.12 6.12 0 0 0-.33.13l-.08.01c-.1.01-.16.03-.27.1-.05.02-.38.17-.5.2Zm1.39 1.24h-.03l-.05.02h-.04a.2.2 0 0 0-.05.01c-.03.01-.05.04-.07.06l-.02.03-.01.02c0 .01 0 .02-.02.02l-.02.13.01.03v.02l.03.14c0 .04.03.09.1.12.04.03.08.06.17.04H5.41c.12.02.25 0 .25 0h.02l.07-.02h.11l.24-.02h.11c.08 0 .2 0 .3-.03l.13-.05c.12-.03 1.12.05 1.31.12l.1.01h.16a1.66 1.66 0 0 1 .2 0l.08.01h.05a.2.2 0 0 1 .06 0l1.03.16.32.05.35.01h.2l.2-.01a4.46 4.46 0 0 0 1.28-.44c.04-.03.1-.05.15-.06.07-.02.2-.04.26-.03h.1l.05-.04c.02-.04 0-.1-.01-.13v-.03h.08l.08.05a.6.6 0 0 0 .06.02l.09.02a1 1 0 0 1 .05 0l.04.01.03.01.06.03c.02.02.05.03.1.04a1 1 0 0 0 .31.05c.04 0 .07 0 .1-.05s-.01-.1-.01-.1c-.02-.03 0-.09.02-.1.04-.04.03-.09 0-.11a.47.47 0 0 0-.07-.07.34.34 0 0 1-.06-.07c-.02-.03-.06-.03-.07-.03-.02 0-.05-.01-.07-.05-.01-.04-.08-.08-.12-.1l-.1-.03a7.73 7.73 0 0 0-.3-.08 1.8 1.8 0 0 0-.18-.03h-.1a16.76 16.76 0 0 0-1.04-.04l-.8.02h-.12l-.17-.04a.84.84 0 0 0-.22-.02h-.17l-.61-.06-.71-.07H8.28a1.25 1.25 0 0 0-.25.01l-.13.03a38.06 38.06 0 0 1-1.74.24 2 2 0 0 0-.39.09c-.03 0-.15.05-.25.09l-.1.04-.32.07c-.05.02-.13.02-.22.04-.1 0-.2.02-.29.03l-.07.02h-.03Z" fill="#00AB84"/><path d="M8.5 4H10v8H8.5V4ZM8 5.5H6.5v7H8v-7Zm4 .5h-1.5v7H12V6Z" fill="#002F7B"/></svg>