<!-- by TradingView --><svg width="18" height="18" viewBox="0 0 18 18" xmlns="http://www.w3.org/2000/svg"><path fill="#E1251B" d="M0 0h18v18H0z"/><path fill-rule="evenodd" d="M2 12v-1h1.01c.55 0 1-.43 1-.96V6h1v4.11C5 11.15 4.1 12 2.98 12H2Zm4-6h1.7c1.27 0 2.8 1.2 2.8 2.69v.62C10.5 10.8 8.97 12 7.7 12H6V6Zm1 1h.5c.83 0 2 .85 2 1.9v.2c0 1.05-1.17 1.9-2 1.9H7V7Zm5-1h-1v6h1V9.51h1.37c.3 0 .63.32.63.66V12h1V9.83c0-.8-.59-1.44-1.32-1.44H12V6Zm4.29 0c-1.15.43-1.25 1.35-1.15 1.76.04-.14.26-.31.45-.46l.22-.17c.47-.46.52-.94.48-1.13Zm-2.06 1.98c.56.45.68.87.67 1.02.12-.3.3-1.03 0-1.67-.3-.64-.8-.97-1.02-1.06-.11.39-.2 1.26.35 1.71Z" fill="#fff"/></svg>