<!-- by TradingView --><svg xmlns="http://www.w3.org/2000/svg" width="18" height="18" viewBox="0 0 18 18"><path fill="#FF4907" d="M0 0h18v18H0z"/><path fill-rule="evenodd" d="M7.46 8.67c.8 0 1.52-.38 1.96-.96.38.38.91.62 1.5.62 1.15 0 2.08-.9 2.08-2s-.93-2-2.08-2c-.59 0-1.12.24-1.5.63A2.45 2.45 0 0 0 7.46 4a2.38 2.38 0 0 0-2.42 2.33 2.38 2.38 0 0 0 2.42 2.34Zm0-1c.76 0 1.38-.6 1.39-1.32v-.03C8.84 5.59 8.22 5 7.46 5c-.76 0-1.38.6-1.38 1.33 0 .74.62 1.34 1.38 1.34Zm3.46-.34c-.57 0-1.03-.44-1.04-.98v-.02c.01-.56.47-1 1.04-1 .58 0 1.04.45 1.04 1 0 .56-.46 1-1.04 1Zm-3.86 5.33-1.82 1A.84.84 0 0 1 4 12.91v-2.7a.84.84 0 0 1 1.2-.74l1.85.9C7.25 9.6 7.95 9 8.78 9h2.44c.98 0 1.78.82 1.78 1.83v1.34c0 1.01-.8 1.83-1.78 1.83H8.78c-.82 0-1.5-.57-1.72-1.34ZM8.76 10a.77.77 0 0 0-.76.77v1.46c0 .42.34.77.77.77h2.46c.43 0 .77-.35.77-.77v-1.46a.77.77 0 0 0-.77-.77H8.77Zm-2 1.42-1.38-.73c-.16-.08-.34.04-.34.22v1.51c0 .18.18.3.34.22l1.39-.72v-.5Z" fill="#FFFEFF"/></svg>