<!-- by TradingView --><svg xmlns="http://www.w3.org/2000/svg" width="18" height="18"><path fill="url(#a1gtemwwc)" d="M0 0h18v18H0z"/><path d="M9.3 6H16l-2.16 6H9.3V9.39h1.57l.34-2.18L9.3 6z" fill="url(#b1gtemwwc)"/><path d="M5.46 6h1.8L5.6 8.88 7.4 12H5.6l-.9-1.56L3.8 12H2l1.8-3.12L2.14 6h1.8l.76 1.32L5.46 6zm3.9 0H8.02v6h1.34V6zm0 0h1.14a2 2 0 010 4H9.36V8.65h1.04a.6.6 0 100-1.2H9.36V6z" fill="#fff"/><defs><linearGradient id="a1gtemwwc" x1="3.35" y1="3.12" x2="21.9" y2="24.43" gradientUnits="userSpaceOnUse"><stop stop-color="#1A1E21"/><stop offset="1" stop-color="#06060A"/></linearGradient><linearGradient id="b1gtemwwc" x1="9.3" y1="9" x2="15.5" y2="9" gradientUnits="userSpaceOnUse"><stop stop-color="#3CBEEB"/><stop offset="1" stop-color="#E261A5"/></linearGradient></defs></svg>