<!-- by TradingView --><svg width="18" height="18" xmlns="http://www.w3.org/2000/svg"><path fill="#FF6709" d="M0 0h18v18H0z"/><path d="M13.933 6h-.866c-.037 0-.067.043-.067.097v5.807c0 .053.03.096.067.096h.866c.037 0 .067-.043.067-.096V6.097c0-.054-.03-.097-.067-.097zM9.114 6H4.102A.1.1 0 004 6.097v5.807a.1.1 0 00.102.096h.797a.097.097 0 00.098-.096V7.148c0-.052.05-.148.106-.148h3.885C9.785 7 10 7.642 10 8.023v3.88c0 .054.057.097.114.097h.784c.056 0 .102-.043.102-.096v-4.12C11 6.76 10.204 6 9.114 6z" fill="#fff"/><path d="M7.951 8h-.884C7.035 8 7 8.047 7 8.105v3.79c0 .058.035.105.067.105h.884c.032 0 .049-.047.049-.104V8.105C8 8.047 7.983 8 7.951 8z" fill="#fff"/></svg>