<!-- by TradingView --><svg width="18" height="18" viewBox="0 0 18 18" xmlns="http://www.w3.org/2000/svg"><path fill="#F0F3FA" d="M0 0h18v18H0z"/><path d="M4 9.59 8.41 14s-1.23-2.11-1.82-2.7C6 10.7 4 9.58 4 9.58Z" fill="#5496F8"/><path d="m7.53 8.12-3.44.9c-.05 0-.08.04-.09.08 0 .05.01.09.05.12l2.33 1.49c.1.06.2.07.32.03a.32.32 0 0 0 .21-.24l.62-2.38Z" fill="#126BF9"/><path d="m9.88 10.47-.87 3.44a.11.11 0 0 1-.2.03l-1.51-2.3a.33.33 0 0 1-.04-.32.34.34 0 0 1 .24-.22l2.38-.63Z" fill="#0037D1"/><path d="M7.68 7.82 8.7 4.1c.01-.03 0-.07-.03-.09-.03-.02-.07-.01-.1.02L4.03 8.57c-.02.03-.02.06-.01.1.02.03.05.04.09.03l3.58-.88Z" fill="#5496F8"/><path d="M10.18 10.47 9.3 13.9c-.01.03 0 .07.03.09.03.02.07.01.1-.02l4.55-4.54c.02-.03.02-.06.01-.1-.02-.03-.05-.04-.09-.03l-3.72 1.17Z" fill="#0127AF"/><path d="m10.18 10.18 3.44-1.16a.12.12 0 0 0 .08-.08.1.1 0 0 0-.05-.1L11.3 7.57a.4.4 0 0 0-.33-.03.3.3 0 0 0-.21.22l-.58 2.4Z" fill="#2C4FF9"/><path d="m7.97 7.82.94-3.72c.01-.06.04-.1.09-.1a.1.1 0 0 1 .1.06l1.31 2.57c.06.11.08.23.04.36a.36.36 0 0 1-.23.23l-2.25.6Z" fill="#78A8F9"/><path d="m7.82 8.12 2.38-.58s.34-.1.26.28l-.58 2.36-2.35.58s-.35.07-.29-.32c.06-.4.58-2.32.58-2.32Z" fill="#126BF9"/><path d="M9.3 4 14 8.7s-2.34-1.05-2.92-1.69A22.09 22.09 0 0 1 9.29 4Z" fill="#0037D1"/></svg>