<!-- by TradingView --><svg width="18" height="18" fill="none" xmlns="http://www.w3.org/2000/svg"><path fill="#F0F3FA" d="M0 0h18v18H0z"/><path fill-rule="evenodd" clip-rule="evenodd" d="M4.32 5.614L7.668 4.25c.49-.189 1.679-.453 2.524 0 .845.454.825.962.71 1.16l2.963.638-1.215.628-2.598-.628-.926.354 1.944 1.036-1.598.84-5.15-2.664zm3.012-.165l1.15-.46c.144-.05.475-.12.645 0 .213.152.093.34-.1.46-.154.096-.618.3-.83.39l-.865-.39z" fill="#01D8DD"/><path d="M4 6.14v5.17l1 .623V8.871l1.014 2.008 1.221-1.11v3.293L9 14V8.747l-1.655-.801-1.12.882-1.048-2.052L4 6.14z" fill="#00A3FE"/><path d="M14 6.595l-4.454 2.14v1.287L11 9.329V12l-1.453.724V14L14 11.719v-1.265l-1.273.724V8.486L14 7.838V6.595z" fill="#0061FE"/></svg>