<!-- by TradingView --><svg width="18" height="18" fill="none" xmlns="http://www.w3.org/2000/svg"><path fill="url(#paint0_linear)" d="M0 0h18v18H0z"/><path fill-rule="evenodd" clip-rule="evenodd" d="M6.924 4.735A.5.5 0 006 5v3.5H5a.5.5 0 000 1h1V13a.5.5 0 001 0V9.5h1.723l2.353 3.765A.5.5 0 0012 13V9.5h1a.5.5 0 000-1h-1V5a.5.5 0 00-1 0v3.5H9.277L6.924 4.735zM9.902 9.5L11 11.257V9.5H9.902zm-1.804-1L7 6.743V8.5h1.098z" fill="#fff"/><defs><linearGradient id="paint0_linear" x1="18" y1="0" x2="0" y2="18" gradientUnits="userSpaceOnUse"><stop stop-color="#0A87F5"/><stop offset=".504" stop-color="#6E55D8"/><stop offset="1" stop-color="#DC1EB9"/></linearGradient></defs></svg>