<!-- by TradingView --><svg width="18" height="18" xmlns="http://www.w3.org/2000/svg"><path fill="#2E4D5E" d="M0 0h18v18H0z"/><path fill-rule="evenodd" d="M9.901 3.467a.25.25 0 01.208.015l1.748.96.024.014.952.67a.25.25 0 01.08.093l1.09 2.172a.25.25 0 01.041.141.25.25 0 01-.373.219l-2.39-.845a.25.25 0 01-.162-.282l.34-1.831-1.452-.797-.99.714 1.448 1.803a.25.25 0 11-.39.313l-1.349-1.68L8.1 6.664a.25.25 0 01-.462-.191l.668-1.614-1.625-.259-.957 1.03 1.171.838a.25.25 0 11-.29.406l-1.115-.796-1.133 3.97 2.416 1.53a.25.25 0 01.106.14l.429 1.448.328-1.37a.25.25 0 01.426-.113l1.888 2.03-.028-1.855a.25.25 0 11.5-.008l.03 2.065 1.775-1.103-1.046-.83a.25.25 0 01.31-.392l1.089.864 1.144-2.127a.25.25 0 01.44.237l-1.265 2.352a.249.249 0 01-.104.132l-2.454 1.525a.25.25 0 01-.151.037l-2.876-.228a.25.25 0 01-.126-.046l-2.285-1.638a.25.25 0 01-.094-.132l-.974-2.31a.25.25 0 01-.02-.108l.157-3.28a.25.25 0 01.067-.158L6.405 4.16a.25.25 0 01.137-.075l3.36-.62zm-.968.686l-.868.16.53.085.338-.245zM4.82 6.602l-.354.38-.049 1.03.403-1.41zm-.215 4.195l.574 1.362.93-.41-1.504-.952zm1.874 1.335l-.933.412 1.34.96-.407-1.372zm1.164 1.774l1.946.154-1.576-1.696-.37 1.542zm4.269-8.816l.582.41.796 1.586-1.64-.58.262-1.416z" fill="#249BD5"/><path fill-rule="evenodd" d="M8.5 6.496h-2V12h2v-1.884L9.375 12H11.5V6.496h-2V8.72l-1-2.224zm1.5.5V8.72a.5.5 0 01-.956.205l-.867-1.93H7v4.506h1v-1.384a.5.5 0 01.953-.21l.741 1.594H11V6.996h-1z" fill="#fff"/></svg>