<!-- by TradingView --><svg width="18" height="18" xmlns="http://www.w3.org/2000/svg"><path fill="#F0F3FA" d="M0 0h18v18H0z"/><path d="M4 10.023a.796.796 0 111.592 0 .796.796 0 01-1.592 0zM6.09 10.04a.81.81 0 01.808-.812.81.81 0 01.808.813.81.81 0 01-.808.813.81.81 0 01-.807-.813zM8.205 10.023a.796.796 0 111.591 0 .796.796 0 01-1.591 0zM10.295 10.04a.81.81 0 01.808-.812.81.81 0 01.807.813.81.81 0 01-.807.813.81.81 0 01-.808-.813zM12.41 10.023a.796.796 0 111.59 0 .796.796 0 01-1.59 0z" fill="#006CB7"/><path d="M4 12.17a.796.796 0 111.592 0 .796.796 0 01-1.592 0zM6.09 12.187a.81.81 0 01.808-.813.81.81 0 01.808.813.81.81 0 01-.808.813.81.81 0 01-.807-.813zM8.205 12.17a.796.796 0 111.591 0 .796.796 0 01-1.591 0zM10.295 12.187a.81.81 0 01.808-.813.81.81 0 01.807.813.81.81 0 01-.807.813.81.81 0 01-.808-.813zM12.41 12.17a.796.796 0 111.591 0 .796.796 0 01-1.592 0z" fill="#ED1C24"/><path d="M4 7.91a.796.796 0 111.592 0A.796.796 0 014 7.91zM6.09 7.927a.81.81 0 01.808-.813.81.81 0 01.808.813.81.81 0 01-.808.813.81.81 0 01-.807-.813zM8.205 7.91a.796.796 0 111.591 0 .796.796 0 01-1.591 0zM10.295 7.927a.81.81 0 01.808-.813.81.81 0 01.807.813.81.81 0 01-.807.813.81.81 0 01-.808-.813zM12.41 7.91a.796.796 0 111.59 0 .796.796 0 01-1.59 0z" fill="#739DD3"/><path d="M4 5.796a.796.796 0 111.592 0 .796.796 0 01-1.592 0zM6.09 5.813A.81.81 0 016.899 5a.81.81 0 01.808.813.81.81 0 01-.808.813.81.81 0 01-.807-.813zM8.205 5.796a.796.796 0 111.591 0 .796.796 0 01-1.591 0zM10.295 5.813A.81.81 0 0111.103 5a.81.81 0 01.807.813.81.81 0 01-.807.813.81.81 0 01-.808-.813zM12.41 5.796a.796.796 0 111.59 0 .796.796 0 01-1.59 0z" fill="#BFDCF3"/></svg>