<!-- by TradingView --><svg width="18" height="18" xmlns="http://www.w3.org/2000/svg"><path fill="#F0F3FA" d="M0 0h18v18H0z"/><path d="M9 3.003C4.078 8.613 3 13.01 3 13.01c2.27.291 4.282.386 6 .373 1.718.013 3.73-.082 6-.373 0 0-1.078-4.397-5.996-10.006V3H9v.003z" fill="#007AC3"/><path d="M8.081 8.023l1.354-1.685 1.85-.68.86.71-.133.914-.197.741-.329.738-.269.467-.923-.792-.824-.68-.295-.22-.466.22-.628.267zM8.017 11.3l-2.312-.206L4.124 10l.257-1.022.954-.355.813-.163.893-.064.598-.007-.33.988-.246.982-.113.295.496.294.57.352zm3.204-1.587l.954 1.892-.27 1.774-1.115.31-.82-.561-.618-.521-.526-.566-.348-.463 1.234-.356 1.074-.301.344-.061.034-.528.057-.62z" fill="#8F989D"/><path d="M8.49 7.8l.677-.264c-1.517 1.374-2.266 3.28-2.266 3.28s.17-1.51.92-3.72l.143.477C8.365 6.87 9.886 4.94 11.471 5.4c0 0 1.93.61-.181 3.696l.136-.243c1.31-3.121-.707-2.78-.707-2.78-.9.123-1.642.877-2.229 1.727z" fill="#fff"/><path d="M7.498 11.212l-.59-.393c2.085.488 4.305.115 4.305.115s-1.494.664-4.063 1.148l.394-.349c-.885.04-3.51-.173-3.859-1.631 0 0-.318-1.798 3.723-1.71l-.356.02c-3.677.546-2.338 1.937-2.338 1.937.571.636 1.668.836 2.784.863z" fill="#fff"/><path d="M11.304 10.271l-.083.657c-.571-1.862-2.043-3.395-2.043-3.395s1.449.866 3.144 2.572l-.534-.128c.48.666 1.585 2.806.348 3.804 0 0-1.554 1.192-3.488-1.987l.17.227c2.365 2.573 3.042.84 3.042.84.333-.759-.026-1.71-.556-2.59z" fill="#fff"/></svg>