<!-- by TradingView --><svg width="18" height="18" xmlns="http://www.w3.org/2000/svg"><path d="M0 9a9 9 0 1118 0A9 9 0 010 9z" fill="#007CFF"/><path d="M4.595 5.976c-1.068 2.228-.463 4.982 0 6.025l1.768-1.874c-.173-.718-.137-1.805.079-2.695.26-1.068 1.142-2.141 2.51-2.158.957-.012 1.635.463 1.782.702l-5.98 6.376c.246.44.977 1.545 2.067 2.159 1.026.578 2.603.596 3.614.301 1.01-.295 2.793-1.454 3.345-3.849.528-2.29-.015-4.35-.378-4.987l-1.736 1.858c.115.714.097 2.317-.3 3.33s-1.21 1.573-2.415 1.573c-.69 0-1.468-.474-1.689-.736l5.966-6.41c-1.43-2.543-3.95-2.715-4.86-2.543-.911.172-2.704.7-3.773 2.928z" fill="#fff"/></svg>