<!-- by TradingView --><svg width="18" height="18" viewBox="0 0 18 18" xmlns="http://www.w3.org/2000/svg"><path fill="#F0F3FA" d="M0 0h18v18H0z"/><path d="M10.5 13a3.5 3.5 0 1 0 0-7 3.5 3.5 0 0 0 0 7Z" fill="url(#aaj3cxm50)"/><path d="M10.5 13a3.5 3.5 0 1 0 0-7 3.5 3.5 0 0 0 0 7Z" fill="url(#baj3cxm50)" style="mix-blend-mode:multiply"/><path d="M14 9.5c0-.11 0-.23-.02-.32L9.9 6.05a3.5 3.5 0 1 0 2.51 6.38l1.43-1.86c.1-.34.16-.7.16-1.07Z" fill="url(#caj3cxm50)" style="mix-blend-mode:multiply"/><path d="M10.5 13a3.5 3.5 0 1 0 .01-6.99A3.5 3.5 0 0 0 10.5 13Z" fill="url(#daj3cxm50)" style="mix-blend-mode:multiply"/><path d="M7.5 12a3.5 3.5 0 1 0 0-7 3.5 3.5 0 0 0 0 7Z" fill="url(#eaj3cxm50)"/><defs><linearGradient id="aaj3cxm50" x1="21.12" y1="19.03" x2="8.28" y2="7.5" gradientUnits="userSpaceOnUse"><stop stop-color="#004CFF"/><stop offset="1" stop-color="#66D4FF"/></linearGradient><linearGradient id="caj3cxm50" x1="4.42" y1="5.72" x2="13.28" y2="12.2" gradientUnits="userSpaceOnUse"><stop offset=".43" stop-color="#89ACFF"/><stop offset=".77" stop-color="#fff"/></linearGradient><linearGradient id="daj3cxm50" x1="2.09" y1="5.58" x2="14.82" y2="11.29" gradientUnits="userSpaceOnUse"><stop offset=".54" stop-color="#195DFF" stop-opacity=".93"/><stop offset=".64" stop-color="#5E8EFF" stop-opacity=".73"/><stop offset=".73" stop-color="#97B6FF" stop-opacity=".54"/><stop offset=".82" stop-color="#C4D6FF" stop-opacity=".37"/><stop offset=".89" stop-color="#E4ECFF" stop-opacity=".22"/><stop offset="1" stop-color="#fff"/></linearGradient><linearGradient id="eaj3cxm50" x1="4" y1="6.93" x2="11.37" y2="11.74" gradientUnits="userSpaceOnUse"><stop stop-color="#FFBE3B"/><stop offset=".13" stop-color="#FFB445"/><stop offset=".36" stop-color="#FF995E"/><stop offset=".66" stop-color="#FF6D88"/><stop offset=".71" stop-color="#FF6490"/></linearGradient><radialGradient id="baj3cxm50" cx="0" cy="0" r="1" gradientUnits="userSpaceOnUse" gradientTransform="rotate(12.7 -34.41 48.45) scale(6.25014 6.25009)"><stop stop-color="#fff"/><stop offset=".37" stop-color="#FDFEFF"/><stop offset=".51" stop-color="#F6F9FF"/><stop offset=".6" stop-color="#EBF1FF"/><stop offset=".68" stop-color="#DAE5FF"/><stop offset=".75" stop-color="#C4D5FF"/></radialGradient></defs></svg>