<!-- by TradingView --><svg width="18" height="18" viewBox="0 0 18 18" fill="none" xmlns="http://www.w3.org/2000/svg">
<rect width="18" height="18" fill="#FE0420"/>
<path fill-rule="evenodd" clip-rule="evenodd" d="M3.64398 11.5333C4.07903 11.8444 4.63715 12 5.31834 12C6.14264 12 6.80091 11.8139 7.29322 11.4417C7.78551 11.0639 8.13181 10.4944 8.33218 9.73332C8.45238 9.26667 8.55541 8.78611 8.6413 8.29167C8.66992 8.11389 8.68421 7.96667 8.68421 7.85C8.68421 7.46111 8.58403 7.12778 8.38369 6.85C8.18333 6.56667 7.90858 6.35556 7.5594 6.21667C7.21021 6.07222 6.81524 6 6.37447 6C4.75449 6 3.74988 6.76389 3.36063 8.29167C3.22325 8.85278 3.11735 9.33333 3.04293 9.73332C3.01431 9.9111 3 10.0611 3 10.1833C3 10.7667 3.21466 11.2167 3.64398 11.5333ZM6.74367 9.68334C6.5793 10.3215 6.12578 10.7368 5.43855 10.7368C4.75869 10.7368 4.52622 10.2771 4.64859 9.68334C4.75163 9.14445 4.85467 8.68889 4.95771 8.31667C5.13523 7.62748 5.55191 7.26316 6.26284 7.26316C6.93965 7.26316 7.16201 7.71644 7.04422 8.31667C6.9755 8.70556 6.87535 9.1611 6.74367 9.68334ZM9.34562 11.94C9.37902 11.98 9.42633 12 9.48761 12H10.6235C10.6792 12 10.732 11.98 10.7822 11.94C10.8323 11.9 10.8629 11.8486 10.874 11.7857L11.2693 10H12.425C13.1544 10 13.6887 9.75144 14.1063 9.43716C14.5295 9.12285 14.8107 8.63714 14.9499 7.98C14.9833 7.82571 15 7.67714 15 7.53429C15 7.03714 14.8107 6.65714 14.432 6.39429C14.059 6.13143 13.5634 6 12.9453 6H10.7237C10.668 6 10.6151 6.02 10.565 6.06C10.5149 6.1 10.4843 6.15143 10.4731 6.21429L9.32055 11.7857C9.30941 11.8429 9.31778 11.8943 9.34562 11.94ZM13.4047 7.96286C13.3008 8.4217 12.9369 8.74352 12.4671 8.74352H11.5066L11.8011 7.26316H12.8034C13.1446 7.26316 13.4298 7.33041 13.4298 7.70571C13.4298 7.78 13.4214 7.86571 13.4047 7.96286Z" fill="white"/>
</svg>
