<!-- by TradingView --><svg width="18" height="18" viewBox="0 0 18 18" xmlns="http://www.w3.org/2000/svg"><path fill="#1B1452" d="M0 0h18v18H0z"/><path opacity=".6" d="M9.38 4.92a4.03 4.03 0 0 0-2.9.62l-.03.03c.32-.2.79-.38.79-.38-1.2.72-1.57 1.54-1.57 1.54.46-.93 1.84-1.6 2.91-1.64 1.08-.04 1.78.29 2.64 1a4.47 4.47 0 0 1 1.33 3.35c-.04 1.17-.64 2.1-.64 2.1.41-.54.66-.93.81-1.34l.08-.38a4.25 4.25 0 0 0-3.42-4.9Z" fill="#fff"/><path d="M13.65 5.15c-.1-.4-.44-.8-1.04-1.26-.48-.36-1-.57-1.4-.57-.08 0-.16.01-.23.03a.68.68 0 0 0-.45.38c-.13.24-.16.57-.08.77l.11.2c-.39.25-.61.32-.64.33a4.43 4.43 0 0 1 2.4 2.05l.02-.1c.02-.25.1-.54.2-.84.1.03.2.05.3.05a.8.8 0 0 0 .67-.32c.15-.21.2-.49.14-.72Z" fill="#5E12A0"/><path d="M12.58 5.92c.68.2.95-.35.86-.7-.1-.37-.4-.73-.95-1.15-.55-.41-1.11-.58-1.47-.5-.35.08-.46.63-.37.85.04.08.12.2.23.34l-.38.25c.68.31 1.27.8 1.72 1.41.05-.2.12-.39.2-.55l.16.05Z" fill="url(#aaoebanfd)"/><path d="M8.72 13.42c2.29 0 4.14-1.91 4.14-4.28a4.22 4.22 0 0 0-4.14-4.28 4.22 4.22 0 0 0-4.15 4.28 4.22 4.22 0 0 0 4.15 4.28Z" fill="url(#baoebanfd)"/><path opacity=".6" d="M13.1 4.86a2.74 2.74 0 0 0-1.6-.9c-.45-.1-.34-.37.2-.31-.25-.1-.5-.12-.68-.08-.35.08-.46.63-.37.85.04.08.12.2.23.34-.2.14-.37.24-.51.32a3.4 3.4 0 0 1 .77.49c-.41-.37-.32-.54.25-.95.17-.13.5-.12.8.04.31.16.67.57.67.57l-.35.67.07.03c.22.06.39.04.52-.01.16-.1.56-.44 0-1.06Z" fill="#A98698"/><path d="M11.48 4.33a4.15 4.15 0 0 1 1.26.9 4.1 4.1 0 0 0-.53 1.17l.16.23c.06-.19.14-.47.26-.76l.1.01c.1 0 .2-.01.28-.08.06-.05.13-.13.12-.29 0-.14-.11-.33-.34-.55a5.48 5.48 0 0 0-.6-.5c-.65-.43-1.1-.55-1.3-.35-.13.14-.11.3-.07.43-.23.16-.43.28-.57.35.1.03.17.07.26.11.24-.13.58-.35.97-.67Zm1.4 1.1c.03.03.04.07.04.1 0 .06-.03.08-.04.1a.26.26 0 0 1-.14.04c.04-.1.1-.17.15-.25Zm-1.83-1.15c.03-.02.08-.04.18-.02l-.22.17c0-.06 0-.11.04-.15Z" fill="#5E12A0"/><path opacity=".6" d="M8.72 13.42c2.29 0 4.14-1.91 4.14-4.28a4.15 4.15 0 1 0-8.3 0 4.22 4.22 0 0 0 4.16 4.28Z" fill="url(#caoebanfd)"/><path d="M12.55 9.1a3.97 3.97 0 0 1-3.87 4.07A3.98 3.98 0 0 1 4.81 9.1h7.74Z" fill="url(#daoebanfd)"/><path opacity=".6" d="M12.24 9.1a3.98 3.98 0 0 1-3.71 4.07h.15a3.97 3.97 0 0 0 3.87-4.07h-.3Z" fill="url(#eaoebanfd)"/><path d="M12.55 9.14c0-.46-.77-.73-1.8-.82a5.9 5.9 0 0 0-2.36.29c-.74.23-1.41.19-1.9.13-1.09-.13-1.68-.15-1.68.4 0 .8 1.54 1.8 3.86 1.45 1.17-.18 1.78-.54 2.47-.78.75-.26 1.4-.25 1.4-.67Z" fill="url(#faoebanfd)"/><path d="M10.13 7.2a.65.65 0 1 0 0-1.29.65.65 0 0 0 0 1.3ZM11.1 7.85a.32.32 0 1 0 0-.64.32.32 0 0 0 0 .64Z" fill="#fff"/><path d="M8.72 4.62a4.46 4.46 0 0 0-4.4 4.53c0 2.5 1.97 4.53 4.4 4.53a4.4 4.4 0 0 0 4.31-4.53 4.4 4.4 0 0 0-4.31-4.53Zm0 8.73a4.09 4.09 0 0 1-4.07-4.2c0-2.37 1.77-4.2 4.07-4.2 2.29 0 3.99 1.83 3.99 4.2 0 2.36-1.7 4.2-4 4.2Z" fill="#5E12A0"/><path d="M12.8 3.63c.62.46 1.03.93 1.16 1.44.1.34 0 .71-.19.98a1.11 1.11 0 0 1-1.01.46l-.04.16c.4.73.63 1.58.63 2.48A4.72 4.72 0 0 1 8.72 14 4.79 4.79 0 0 1 4 9.15c0-2.68 2.1-4.86 4.72-4.86.49 0 .96.08 1.4.23a1.46 1.46 0 0 1 .12-.93A1 1 0 0 1 11.2 3c.5 0 1.08.25 1.6.63Zm-2.27.1c-.13.24-.16.57-.08.77l.09.17.02.04a8.3 8.3 0 0 1-.33.19 4.18 4.18 0 0 0-1.51-.28 4.46 4.46 0 0 0-4.4 4.53c0 2.5 1.97 4.53 4.4 4.53a4.4 4.4 0 0 0 4.31-4.53 4.7 4.7 0 0 0-.66-2.42c.04-.19.1-.39.17-.59.1.03.2.05.3.05a.8.8 0 0 0 .67-.32c.15-.21.2-.49.14-.72-.1-.4-.44-.8-1.04-1.26-.48-.36-1-.57-1.4-.57-.08 0-.16.01-.23.03a.68.68 0 0 0-.45.38Z" fill="#fff"/><defs><linearGradient id="caoebanfd" x1="8.05" y1="13.36" x2="9.46" y2="4.93" gradientUnits="userSpaceOnUse"><stop stop-color="#81FFFF"/><stop offset=".62" stop-color="#fff" stop-opacity="0"/></linearGradient><linearGradient id="daoebanfd" x1="4.81" y1="11.14" x2="12.55" y2="11.14" gradientUnits="userSpaceOnUse"><stop stop-color="#0002E9"/><stop offset="1" stop-color="#FF00C7"/></linearGradient><linearGradient id="eaoebanfd" x1="12.91" y1="9.46" x2="8.5" y2="13.43" gradientUnits="userSpaceOnUse"><stop offset=".29" stop-color="#fff"/><stop offset=".78" stop-color="#fff" stop-opacity="0"/></linearGradient><linearGradient id="faoebanfd" x1="4.81" y1="9.48" x2="12.55" y2="9.48" gradientUnits="userSpaceOnUse"><stop stop-color="#000292"/><stop offset="1" stop-color="#BE00C7"/></linearGradient><radialGradient id="aaoebanfd" cx="0" cy="0" r="1" gradientUnits="userSpaceOnUse" gradientTransform="matrix(3.31651 0 0 3.42249 13.3 4.73)"><stop stop-color="#FFEAFF" stop-opacity=".6"/><stop offset=".68" stop-color="#A087C9"/><stop offset="1" stop-color="#10002F"/></radialGradient><radialGradient id="baoebanfd" cx="0" cy="0" r="1" gradientUnits="userSpaceOnUse" gradientTransform="matrix(8.11428 0 0 8.37355 11.46 6.2)"><stop stop-color="#FFEAFF" stop-opacity=".6"/><stop offset=".68" stop-color="#A087C9"/><stop offset="1" stop-color="#10002F"/></radialGradient></defs></svg>