<!-- by TradingView --><svg width="18" height="18" xmlns="http://www.w3.org/2000/svg"><path d="M0 9a9 9 0 1118 0A9 9 0 010 9z" fill="#5F45BA"/><path d="M5.93 4.755a.5.5 0 11-.86-.51.5.5 0 01.86.51zM4.349 4.802a.405.405 0 11-.698-.415.405.405 0 01.698.415zM9.588 13.965a5 5 0 10-1.243-9.922 4.157 4.157 0 00-1.222.307c-.453.22-.743.473-.743.968 0 .682.571.93 1.05.93.107 0 .48-.118.569-.149.329-.115.772-.122 1.142-.099C10.703 6.098 12 7.318 12 8.974 12 10.783 10.645 12 8.874 12 6.956 12 6.064 10.25 6 8.656c-.022-.627-.36-1.072-.99-1.072-.54 0-.835.294-.97.791-.026.098-.04.384-.036.422a5 5 0 005.584 5.168z" fill="#fff"/><path d="M5.09 6.7A.786.786 0 113.739 5.9a.786.786 0 011.35.802z" fill="#fff"/></svg>