<!-- by TradingView --><svg width="18" height="18" xmlns="http://www.w3.org/2000/svg"><path fill="#F0F3FA" d="M0 0h18v18H0z"/><path d="M4 5.962l.9-.327L4.015 4 4 5.962z" fill="#231F20"/><path d="M4.567 5.583c.28 0 .506.252.506.553 0 .302-.225.554-.506.554s-.506-.252-.506-.554c0-.301.225-.553.506-.553z" fill="#231F20"/><path d="M5.25 6.5c.256-.176.377-.285.754-.478s.715-.268 1.068-.352c.168-.05.682-.093.722.05.08.184-.112.218-.048.42.064.209 2.16-.303 2.866-.21.86.016 2.248.318 2.248.318-.112.176-.153 1.5.136 2.616.241 1.332 1.004 2.59 1.004 2.59 0 .042-.988-.268-1.814-.235-.827.034-1.325.587-2.409.596-1.076 0-1.244-.403-1.678-.495-.433-.084-1.204.126-1.204.126-.016.008-.257-1.425-.433-2.163C6.14 7.916 5.25 6.5 5.25 6.5z" fill="#E71D1C"/><path d="M9.352 6.692c1.06-.058 1.99.83 2.063 1.979.072 1.148-.73 2.13-1.799 2.188-1.06.059-1.99-.83-2.063-1.979-.072-1.14.739-2.129 1.799-2.188z" fill="#fff"/><path d="M9.4 6.952c.747-.042 1.405.746 1.47 1.76.063 1.007-.49 1.862-1.237 1.904-.747.042-1.405-.746-1.47-1.76C8.1 7.848 8.662 6.993 9.4 6.951z" fill="#005A9C"/><path d="M4.426 5.668l-.29-1.29.587 1.181-.297.11z" fill="#fff"/><path d="M4.715 6.585L7.309 14" stroke="#000" stroke-width=".5"/></svg>