<!-- by TradingView --><svg width="18" height="18" fill="none" xmlns="http://www.w3.org/2000/svg"><path fill="#F0F3FA" d="M0 0h18v18H0z"/><path fill-rule="evenodd" clip-rule="evenodd" d="M10.136 5.222A.747.747 0 009.606 5h-.002a.735.735 0 00-.53.225L3.22 11.188a.757.757 0 00-.219.538.762.762 0 00.464.702.743.743 0 00.819-.167l5.856-5.963a.768.768 0 00-.003-1.076z" fill="#2DB8E3"/><path fill-rule="evenodd" clip-rule="evenodd" d="M13.536 5.072a.737.737 0 00-.818.167L6.86 11.203c-.14.143-.195.337-.194.538 0 .202.056.395.197.538a.746.746 0 001.062-.003l4.546-4.657v4.12c0 .202.106.395.247.538a.746.746 0 001.061 0 .767.767 0 00.22-.538V5.776a.764.764 0 00-.464-.704z" fill="#3840C7"/></svg>