<!-- by TradingView --><svg width="18" height="18" viewBox="0 0 18 18" xmlns="http://www.w3.org/2000/svg"><path fill="url(#af0ga1hx4)" d="M0 0h18v18H0z"/><path d="M6.58 9.58 13 5.33A4.18 4.18 0 0 0 9.95 4C7.77 4 6 5.64 6 7.66c0 .68.2 1.34.58 1.92Zm5.85-3.17c.38.58.57 1.25.57 1.94a3.7 3.7 0 0 1-1.56 2.98c-1.3.99-5.43 3.67-5.43 3.67L6 10.82l.17-.11L9.3 8.55l3.12-2.14Z" fill="#F3F3F3"/><defs><linearGradient id="af0ga1hx4" x1="16.04" y1="1.84" x2="1.38" y2="14.03" gradientUnits="userSpaceOnUse"><stop stop-color="#EC5A8B"/><stop offset="1" stop-color="#E2D17A"/></linearGradient></defs></svg>