<!-- by TradingView --><svg width="18" height="18" fill="none" xmlns="http://www.w3.org/2000/svg"><path fill="#333" d="M0 0h18v18H0z"/><path d="M18 0L0 18V0h18z" fill="#5901F6"/><path fill-rule="evenodd" clip-rule="evenodd" d="M6.384 11.638a4.526 4.526 0 01-.034-.034C4.016 9.27 3.3 6.201 4.75 4.751c1.451-1.451 4.519-.735 6.853 1.6l.02.02-.843.848a4.126 4.126 0 00-.023-.023C8.9 5.338 6.597 4.63 5.613 5.614c-.983.984-.275 3.287 1.582 5.145l.032.031-.843.848z" fill="url(#paint0_linear_1530)"/><path fill-rule="evenodd" clip-rule="evenodd" d="M11.616 6.362l.034.034c2.334 2.334 3.05 5.403 1.6 6.853-1.45 1.451-4.519.735-6.853-1.6a10.328 10.328 0 01-.02-.02l.843-.848.023.023c1.857 1.858 4.16 2.566 5.144 1.582.983-.983.275-3.287-1.582-5.145l-.032-.031.843-.848z" fill="url(#paint1_linear_1530)"/><defs><linearGradient id="paint0_linear_1530" x1="10.906" y1="6.415" x2="6.618" y2="10.671" gradientUnits="userSpaceOnUse"><stop stop-color="#FBFCFA"/><stop offset=".817" stop-color="#9359FD" stop-opacity=".07"/></linearGradient><linearGradient id="paint1_linear_1530" x1="6.9" y1="11.576" x2="11.242" y2="7.978" gradientUnits="userSpaceOnUse"><stop stop-color="#01FDFE"/><stop offset="1" stop-color="#01FDFE" stop-opacity=".06"/></linearGradient></defs></svg>