<!-- by TradingView --><svg width="18" height="18" xmlns="http://www.w3.org/2000/svg"><path d="M0 9a9 9 0 1118 0A9 9 0 010 9z" fill="#5140A4"/><path d="M9 12.428a.419.419 0 000-.837c-.715 0-1.363-.29-1.832-.76a2.586 2.586 0 01-.76-1.833.419.419 0 00-.836 0A3.43 3.43 0 009 12.428zM9 5.572a.419.419 0 000 .836c.715 0 1.363.291 1.832.76.47.47.76 1.118.76 1.833a.419.419 0 00.836 0A3.429 3.429 0 009 5.572z" fill="#05C7FF"/><path d="M9.003 7c.554 0 1.052.225 1.413.587.362.36.584.861.584 1.411a.458.458 0 01-.915 0 1.084 1.084 0 10-1.85.769c.195.196.466.318.765.318A.458.458 0 019 11c-.55 0-1.051-.222-1.413-.587a1.993 1.993 0 010-2.823A1.98 1.98 0 019.003 7zM10.854 10.854a.495.495 0 000-.702l-.007-.007a.5.5 0 00-.704 0 .502.502 0 000 .702l.008.007a.497.497 0 00.703 0zM9 4a.419.419 0 000 .836c1.15 0 2.193.467 2.944 1.22a4.154 4.154 0 011.22 2.945.419.419 0 00.836 0c0-1.381-.56-2.632-1.466-3.535A4.98 4.98 0 009 4zM9 14a.419.419 0 000-.836 4.141 4.141 0 01-2.944-1.221 4.154 4.154 0 01-1.22-2.945.419.419 0 00-.418-.418.421.421 0 00-.418.421c0 1.382.56 2.633 1.466 3.536A4.972 4.972 0 009 14z" fill="#05C7FF"/></svg>