<!-- by TradingView --><svg width="18" height="18" xmlns="http://www.w3.org/2000/svg"><path d="M0 9a9 9 0 1118 0A9 9 0 010 9z" fill="#4CBBFD"/><path d="M13.063 9a4.04 4.04 0 00-.656-2.21L14 5.197 12.803 4 11.21 5.593a4.045 4.045 0 00-4.42 0L5.198 4 4 5.197 5.593 6.79a4.045 4.045 0 000 4.42L4 12.802 5.197 14l1.593-1.593a4.046 4.046 0 004.42 0L12.802 14 14 12.803l-1.594-1.592a4.04 4.04 0 00.657-2.21V9zM6.63 9a2.37 2.37 0 114.532.967L9.598 8.4 8.401 9.598l1.564 1.564A2.365 2.365 0 016.63 9z" fill="#fff"/></svg>