<!-- by TradingView --><svg width="18" height="18" viewBox="0 0 18 18" xmlns="http://www.w3.org/2000/svg"><path fill="#F0F3FA" d="M0 0h18v18H0z"/><path d="M8.12 7.63V3.27s-1.39.7-1.39 2.2c0 1.49 1.39 2.16 1.39 2.16Z" fill="#006E3C"/><path d="M8.12 3.27s1.38.7 1.38 2.2c0 1.49-1.38 2.16-1.38 2.16V3.27Z" fill="#00B43C"/><path d="m11.72 9.67 2.06-1.1s-.71-.45-1.41-.07-.65 1.17-.65 1.17Z" fill="#006E3C"/><path d="M13.78 8.58s.04.8-.66 1.18c-.7.38-1.4-.09-1.4-.09l2.06-1.1Z" fill="#00B43C"/><path d="M13.88 8.4c-.03-.02-.9-.45-1.63-.05-.6.32-.7.96-.73 1.23l-.27.14a.78.78 0 0 0-.53-.2c-.2 0-.38.07-.52.2l-1.23-.68A.58.58 0 0 0 9 8.87a.7.7 0 0 0-.54-.67v-.42c.36-.22 1.39-1.02 1.39-2.3 0-1.46-1.43-2.37-1.5-2.42L8.25 3l-.12.06c-.07.05-1.4.96-1.4 2.43 0 1.27 1.03 2.06 1.39 2.29v.42c-.32.08-.63.35-.63.67 0 .06 0 .12.03.17l-1.25.68a.78.78 0 0 0-.52-.2c-.4 0-.75.32-.75.71 0 .33.38.6.7.68v1.4c-.36 0-.7.36-.7.69 0 .38.33.7.75.7.23 0 .42-.08.56-.23l1.2.66a.58.58 0 0 0-.02.17c0 .38.33.7.75.7.41 0 .76-.32.76-.7 0-.06-.01-.12-.03-.17l1.2-.66c.14.15.34.24.56.24.41 0 .75-.32.75-.71 0-.33-.29-.6-.6-.68v-1.4c.31-.1.6-.36.6-.69l-.01-.16.27-.14c.16.07.47.18.82.18.22 0 .45-.04.67-.16.73-.4.77-1.33.77-1.36v-.12l-.12-.07Zm-2.94 2.07a.36.36 0 0 1-.2.07c-.05 0-.09 0-.13-.02a.18.18 0 0 1-.08-.05.33.33 0 0 1-.13-.2v-.09c.02-.12.1-.21.2-.25a.33.33 0 0 1 .25 0c.12.04.2.16.2.29v.04c-.01.1-.05.17-.11.21Zm.12 2.53c0 .17-.16.31-.34.31a.3.3 0 0 1-.17-.05.32.32 0 0 1-.16-.26v-.01c0-.03 0-.07.02-.1a.3.3 0 0 1 .1-.14c.05-.04.1-.06.15-.07h.06c.08 0 .16.02.2.06.1.06.14.15.14.26Zm-.52-.68a.75.75 0 0 0-.3.13l-1.26-.69.02-.14c0-.06-.01-.14-.04-.2l1.25-.68c.09.08.2.14.33.17v1.4Zm-2.3 2.3a.33.33 0 0 1-.33-.27v-.05c0-.13.08-.25.2-.3a.36.36 0 0 1 .26 0c.12.05.2.17.2.3v.05a.34.34 0 0 1-.33.26Zm-.73-2.86-1.27.7c-.08-.07-.1-.12-.2-.14v-1.4c.12-.04.15-.1.23-.18l1.25.68a.77.77 0 0 0-.03.2c0 .05 0 .1.02.14ZM6.1 13a.3.3 0 0 1-.17.26.32.32 0 0 1-.17.05.33.33 0 0 1-.33-.31.32.32 0 0 1 .33-.32h.06l.15.07c.05.04.08.1.1.15.02.03.03.06.03.1 0-.01 0-.01 0 0Zm-.68-2.77c0-.18.15-.31.33-.31.05 0 .09 0 .12.02.11.04.2.14.2.25v.1a.3.3 0 0 1-.12.2.76.76 0 0 1-.09.05.34.34 0 0 1-.33-.04c-.06-.08-.11-.17-.11-.27Zm2.62-1.6a.36.36 0 0 1 .4 0c.08.04.12.12.13.2v.04c0 .1-.05.2-.13.26l-.09.04a.29.29 0 0 1-.12.03l-.12-.03a.18.18 0 0 1-.08-.04.3.3 0 0 1-.13-.26v-.04a.38.38 0 0 1 .14-.2Zm.54 3c0 .1-.06.18-.13.23l-.05.04a.37.37 0 0 1-.17.04.3.3 0 0 1-.15-.04l-.05-.04a.3.3 0 0 1-.13-.24v-.09a.37.37 0 0 1 .12-.17.3.3 0 0 1 .13-.05l.08-.01h.09l.12.06c.05.04.1.1.11.17v.08l.03.02ZM10 10.06a.58.58 0 0 0 0 .35l-1.26.69a.7.7 0 0 0-.28-.16V9.55c.12-.03.21-.09.3-.17l1.24.68ZM7.08 5.5c0-1.05.83-1.8 1.16-2.02.34.22 1.26.97 1.26 2.02 0 .87-.63 1.5-1.04 1.8V5.65c0-.1-.06-.2-.17-.2-.12 0-.17.1-.17.2V7.3C7.7 7 7.08 6.37 7.08 5.5Zm.64 3.88c.09.08.28.14.4.17v1.4c-.12.03-.3.07-.38.14l-1.27-.69a.58.58 0 0 0 0-.34l1.25-.68ZM6.5 13.12V13c0-.08 0-.15-.03-.22l1.23-.67c.09.09.29.15.42.2v1.3c-.12.04-.3.1-.4.18l-1.22-.67Zm2.26.67a.7.7 0 0 0-.3-.17V12.3c.13-.03.24-.1.32-.2l1.23.68a.59.59 0 0 0-.03.22v.12l-1.22.67Zm4.25-4.19c-.28.15-.58.12-.82.07l.4-.23c.11-.06.14-.17.08-.27a.2.2 0 0 0-.28-.07l-.4.23c.05-.22.19-.49.46-.64.4-.22.88-.08 1.1 0-.03.23-.14.7-.54.91Z"/></svg>