<!-- by TradingView --><svg width="18" height="18" fill="none" xmlns="http://www.w3.org/2000/svg"><path fill="url(#paint0_linear_1530)" d="M0 0h18v18H0z"/><path fill-rule="evenodd" clip-rule="evenodd" d="M9 12a3 3 0 100-6 3 3 0 000 6zm0-.61a2.39 2.39 0 100-4.78 2.39 2.39 0 000 4.78z" fill="url(#paint1_linear_1530)"/><path fill-rule="evenodd" clip-rule="evenodd" d="M6.941 12.566a4.117 4.117 0 104.118-7.132 4.117 4.117 0 00-4.118 7.132zM9 12.532a3.533 3.533 0 100-7.066 3.533 3.533 0 000 7.066z" fill="url(#paint2_linear_1530)"/><path fill-rule="evenodd" clip-rule="evenodd" d="M9 14A5 5 0 109 4a5 5 0 000 10zm0-.598a4.402 4.402 0 100-8.804 4.402 4.402 0 000 8.804z" fill="url(#paint3_linear_1530)"/><defs><linearGradient id="paint0_linear_1530" x1="3.349" y1="3.122" x2="21.904" y2="24.434" gradientUnits="userSpaceOnUse"><stop stop-color="#1A1E21"/><stop offset="1" stop-color="#06060A"/></linearGradient><linearGradient id="paint1_linear_1530" x1="5.97" y1="9.078" x2="12.03" y2="9" gradientUnits="userSpaceOnUse"><stop offset=".349" stop-color="#F9F9F9"/><stop offset="1" stop-color="#F9F9F9" stop-opacity="0"/></linearGradient><linearGradient id="paint2_linear_1530" x1="13.111" y1="8.999" x2="2.556" y2="9" gradientUnits="userSpaceOnUse"><stop offset=".069" stop-color="#F0F0F0"/><stop offset=".216" stop-color="#F0F0F0" stop-opacity=".916"/><stop offset=".761" stop-color="#F0F0F0" stop-opacity="0"/></linearGradient><linearGradient id="paint3_linear_1530" x1="4" y1="9" x2="14" y2="9" gradientUnits="userSpaceOnUse"><stop offset=".396" stop-color="#F0F0F0"/><stop offset="1" stop-color="#F0F0F0" stop-opacity="0"/></linearGradient></defs></svg>