<!-- by TradingView --><svg xmlns="http://www.w3.org/2000/svg" width="18" height="18"><path fill="#0887F4" d="M0 0h18v18H0z"/><path d="M12.99 5.98a3.94 3.94 0 00-3.1-1.58C7.5 4.4 5.77 6.6 5.77 9c0 1.67 1.11 2.92 2.34 2.92.12 0 .23-.01.34-.04A3.58 3.58 0 017.1 9c0-1.9 1.28-3.37 2.79-3.37 1.64 0 2.79 1.64 2.79 3.37 0 1.28-.46 2.55-1.27 3.49-.7.82-1.6 1.34-2.6 1.5L9 14a5 5 0 003.99-8.02zM12.23 9c0-1.67-1.11-2.92-2.34-2.92-.12 0-.23.01-.34.04.82.6 1.35 1.7 1.35 2.88 0 1.9-1.28 3.37-2.79 3.37-1.64 0-2.79-1.64-2.79-3.37 0-1.28.46-2.55 1.27-3.49.7-.82 1.6-1.34 2.6-1.5L9 4a5 5 0 00-3.99 8.02 3.94 3.94 0 003.1 1.58c2.38 0 4.12-2.2 4.12-4.6z" fill="#fff"/></svg>