<!-- by TradingView --><svg width="18" height="18" xmlns="http://www.w3.org/2000/svg"><path fill="url(#paint0_linear)" d="M0 0h18v18H0z"/><path d="M7.833 4H6.155c-.122 0-.168.132-.158.199v1.584c0 .223-.117.21-.193.217H4.169c-.114 0-.16.143-.169.207v1.58C4 8 4.131 8 4.203 8h1.601c.187 0 .195.216.193.274v1.503c0 .172-.106.218-.154.223H4.206c-.113 0-.184.114-.206.168.002-.238.005 1.49 0 1.621-.004.133.078.204.119.211h1.725c.123 0 .157.071.153.12v1.73c0 .106.07.144.11.15h1.736c.091 0 .151-.1.157-.15-.002-.608-.004-1.635 0-1.73.005-.095.064-.111.106-.12h1.756c.128 0 .134.07.138.118v1.732c0 .094.113.14.15.15h1.714c.11 0 .132-.1.136-.15v-1.73c0-.1.086-.114.126-.12h1.685c.124 0 .178-.133.19-.186L14 10.224a.227.227 0 00-.19-.224c-.422.002-1.59.006-1.682 0-.092-.006-.128-.094-.128-.141V8.17c0-.135.09-.169.128-.171h1.683c.145 0 .186-.096.189-.148V6.18c0-.109-.1-.18-.19-.18h-1.682c-.074 0-.12-.101-.128-.16V4.2A.21.21 0 0011.85 4h-1.658c-.12 0-.192.132-.192.199V5.84c0 .115-.029.16-.115.16 0 0-1.655.006-1.786 0S7.995 5.896 8 5.84c.002-.521.006-1.376 0-1.586-.006-.21-.122-.257-.167-.254z" fill="#fff"/><path d="M9.86 8H8.108C8.036 8 8 8.048 8 8.092v1.804c0 .062.07.102.108.102.53.001 1.622.004 1.752 0 .13-.004.146-.07.138-.102-.002-.548-.005-1.666 0-1.755.005-.09-.09-.131-.138-.141z" fill="#121418"/><defs><linearGradient id="paint0_linear" x1="3.349" y1="3.122" x2="21.904" y2="24.434" gradientUnits="userSpaceOnUse"><stop stop-color="#1A1E21"/><stop offset="1" stop-color="#06060A"/></linearGradient></defs></svg>