<!-- by TradingView --><svg width="18" height="18" viewBox="0 0 18 18" xmlns="http://www.w3.org/2000/svg"><path fill="#F0F3FA" d="M0 0h18v18H0z"/><path d="M10.5 5.12c0 .61-.65 1.12-1.46 1.12-.8 0-1.46-.5-1.46-1.12C7.58 4.5 8.24 4 9.04 4c.81 0 1.47.5 1.47 1.12Z" fill="url(#ak5sl3ovt)"/><path d="m8.7 12.96.15-6.73h.33l.12 6.73h-.6Z" fill="#F08000"/><path d="M7.66 7.8c-.43-.36-.3-1.22-.23-1.7.03.16.18.53.6.74.43.22.54.66.55.86v.97c-.15-.2-.43-.46-.92-.87Z" fill="url(#bk5sl3ovt)"/><path d="M10.3 7.83c.42-.36.3-1.22.22-1.7-.02.16-.17.53-.6.74-.43.21-.54.66-.54.85v.97c.15-.2.42-.45.91-.86Z" fill="url(#ck5sl3ovt)"/><path d="M7.66 9.47c-.43-.36-.3-1.22-.23-1.7.03.16.18.53.6.74.43.21.54.66.55.85v.97c-.15-.2-.43-.45-.92-.86Z" fill="url(#dk5sl3ovt)"/><path d="M10.3 9.5c.42-.37.3-1.23.22-1.7-.02.16-.17.53-.6.74-.43.2-.54.65-.54.85v.97c.15-.2.42-.46.91-.87Z" fill="url(#ek5sl3ovt)"/><path d="M7.66 11.17c-.43-.36-.3-1.22-.23-1.7.03.16.18.53.6.74.43.22.54.66.55.86v.97c-.15-.2-.43-.46-.92-.87Z" fill="url(#fk5sl3ovt)"/><path d="M10.3 11.2c.42-.36.3-1.22.22-1.7-.02.16-.17.53-.6.74-.43.21-.54.66-.54.85v.97c.15-.2.42-.45.91-.86Z" fill="url(#gk5sl3ovt)"/><path d="M6.53 7.3C6.47 5.6 5.15 5.21 4.5 5.23c.59.47.51 1.37.5 1.76v2.39c0 2.54 2.28 2.96 3.31 2.86-1.54-.5-1.78-1.93-1.78-2.62V7.3Z" fill="url(#hk5sl3ovt)"/><path d="M11.47 7.3c.06-1.7 1.38-2.09 2.03-2.07-.45.4-.51 1.37-.5 1.76v2.39c0 2.54-2.28 2.96-3.31 2.86 1.54-.5 1.78-1.93 1.78-2.62V7.3Z" fill="url(#ik5sl3ovt)"/><path d="M8.12 12.91c-1.36.45-2.25-.83-2.53-1.53.1 2.53 1.73 2.59 2.53 2.3.72.58 1.38.24 1.61 0 2.05.62 2.57-1.27 2.57-2.3-.88 1.74-2.08 1.75-2.57 1.53-.65.45-1.34.19-1.61 0Z" fill="url(#jk5sl3ovt)"/><defs><linearGradient id="ak5sl3ovt" x1="7.85" y1="5.02" x2="10.26" y2="5.01" gradientUnits="userSpaceOnUse"><stop stop-color="#008DD7"/><stop offset=".51" stop-color="#9BCFEF"/><stop offset="1" stop-color="#008DD7"/></linearGradient><linearGradient id="bk5sl3ovt" x1="7.73" y1="6.21" x2="7.74" y2="8.67" gradientUnits="userSpaceOnUse"><stop stop-color="#FFD500"/><stop offset=".53" stop-color="#F08000"/><stop offset="1" stop-color="#FFD500"/></linearGradient><linearGradient id="ck5sl3ovt" x1="10.23" y1="6.24" x2="10.22" y2="8.69" gradientUnits="userSpaceOnUse"><stop stop-color="#FFD500"/><stop offset=".53" stop-color="#F08000"/><stop offset="1" stop-color="#FFD500"/></linearGradient><linearGradient id="dk5sl3ovt" x1="7.73" y1="7.88" x2="7.74" y2="10.33" gradientUnits="userSpaceOnUse"><stop stop-color="#FFD500"/><stop offset=".53" stop-color="#F08000"/><stop offset="1" stop-color="#FFD500"/></linearGradient><linearGradient id="ek5sl3ovt" x1="10.23" y1="7.9" x2="10.22" y2="10.36" gradientUnits="userSpaceOnUse"><stop stop-color="#FFD500"/><stop offset=".53" stop-color="#F08000"/><stop offset="1" stop-color="#FFD500"/></linearGradient><linearGradient id="fk5sl3ovt" x1="7.73" y1="9.58" x2="7.74" y2="12.04" gradientUnits="userSpaceOnUse"><stop stop-color="#FFD500"/><stop offset=".53" stop-color="#F08000"/><stop offset="1" stop-color="#FFD500"/></linearGradient><linearGradient id="gk5sl3ovt" x1="10.23" y1="9.61" x2="10.22" y2="12.06" gradientUnits="userSpaceOnUse"><stop stop-color="#FFD500"/><stop offset=".53" stop-color="#F08000"/><stop offset="1" stop-color="#FFD500"/></linearGradient><linearGradient id="hk5sl3ovt" x1="6.41" y1="5.23" x2="6.41" y2="12.25" gradientUnits="userSpaceOnUse"><stop stop-color="#FFD500"/><stop offset=".52" stop-color="#F08000"/><stop offset="1" stop-color="#FFD500"/></linearGradient><linearGradient id="ik5sl3ovt" x1="11.59" y1="5.23" x2="11.59" y2="12.25" gradientUnits="userSpaceOnUse"><stop stop-color="#FFD500"/><stop offset=".52" stop-color="#F08000"/><stop offset="1" stop-color="#FFD500"/></linearGradient><linearGradient id="jk5sl3ovt" x1="5.67" y1="12.28" x2="12.23" y2="12.41" gradientUnits="userSpaceOnUse"><stop stop-color="#003F92"/><stop offset=".51" stop-color="#0087CD"/><stop offset="1" stop-color="#043C91"/></linearGradient></defs></svg>