<!-- by TradingView --><svg width="18" height="18" viewBox="0 0 18 18" xmlns="http://www.w3.org/2000/svg"><path fill="#F0F3FA" d="M0 0h18v18H0z"/><path fill-rule="evenodd" d="M11.73 11.4c.3 1.76.1 3.11-.66 3.5-.77.38-1.93-.33-3.04-1.72-1.34.13-2.52-.3-3.13-1.3-.69-1.12-.46-2.66.46-4.02-.67-2.34-.56-4.29.37-4.76.84-.41 2.12.45 3.32 2.08 1.7-.47 3.3-.09 4.05 1.12.88 1.44.26 3.56-1.37 5.1Zm-.68-2.46c.7-1 .94-2.04.48-2.71-.38-.58-1.19-.74-2.12-.53a15.74 15.74 0 0 1 1.64 3.24Zm-1.9-3.18a13.83 13.83 0 0 1 1.66 3.48 6.33 6.33 0 0 1-2.42 1.8 14 14 0 0 1-1.72-3.77 6.53 6.53 0 0 1 2.47-1.5Zm-.37-.5C8 4.24 7.24 3.71 6.76 3.96c-.5.24-.57 1.27-.27 2.62a7.01 7.01 0 0 1 2.3-1.32ZM5.62 8.7c-.38.77-.44 1.52-.09 2.04.26.39.72.6 1.28.62a16.6 16.6 0 0 1-1.2-2.66Zm4.2 4a6.8 6.8 0 0 0 1.47-.9c-.01.6-.16 1.02-.45 1.17-.27.13-.62.02-1.02-.27Z" fill="url(#au4wgrfr0)"/><defs><linearGradient id="au4wgrfr0" x1="5.46" y1="3.17" x2="11.7" y2="14.59" gradientUnits="userSpaceOnUse"><stop stop-color="#FF7819"/><stop offset=".1" stop-color="#FEA90B"/><stop offset=".27" stop-color="#FFE800"/><stop offset=".4" stop-color="#F76021"/><stop offset=".53" stop-color="#E34A25"/><stop offset=".72" stop-color="#E34825"/><stop offset="1" stop-color="#891C22"/></linearGradient></defs></svg>