<!-- by TradingView --><svg xmlns="http://www.w3.org/2000/svg" width="18" height="18"><path fill="#F0F3FA" d="M0 0h18v18H0z"/><path d="M8.4 3.9a4.3 4.3 0 00-3.82 3.91 4.3 4.3 0 003.82-3.9z" fill="#EE3224"/><path d="M8.7 2a3.5 3.5 0 00-.3 1.9c.26.09 1.21 0 1.9-.35l-1.22-.34L8.7 2z" fill="#EE3224"/><path d="M4.15 8.1a4.45 4.45 0 002.5 4.95c.26-1.1.13-3.61-2.5-4.95zm-1.71-.94c.55.55 1.43.94 1.7.94a3.5 3.5 0 00.27-1.91l-.7 1.03-1.27-.06z" fill="#80C342"/><path d="M13.5 6.85a4.46 4.46 0 00-4.88-2.62 4.46 4.46 0 004.88 2.62zm1.92-.21a3.5 3.5 0 00-1.92.21c0 .28.37 1.16.9 1.73l-.03-1.26 1.05-.68z" fill="#F99D28"/><path d="M12.56 12.8a4.36 4.36 0 00.7-5.45 4.36 4.36 0 00-.7 5.45zm.89 1.74a3.58 3.58 0 00-.9-1.74c-.25.1-.95.73-1.29 1.42l1.17-.45 1.02.77z" fill="#939598"/><path d="M6.68 13.56c.96.6 3.4 1.29 5.44-.8a4.37 4.37 0 00-5.44.8zm-1.39 1.33a3.44 3.44 0 001.39-1.33 3.58 3.58 0 00-1.75-.86l.78 1-.42 1.19z" fill="#0077C0"/></svg>