<!-- by TradingView --><svg width="18" height="18" viewBox="0 0 18 18" xmlns="http://www.w3.org/2000/svg"><path fill="#FECC00" d="M0 0h18v18H0z"/><path d="M8.86 3c-.73.37-1.44.78-2.12 1.24-.4.26-.77.58-1.09.94-.46.55-.55.86-.57.95-.1.47.11 1.09.11 1.09l.18-.2.2-.22c.09-.1.18-.18.29-.27l.04-.04v-.16c.02-.33.11-.64.27-.9.4-.65 1.16-1.28 1.44-1.52.29-.24.72-.55 1.25-.91Zm-.05 1.84c-.02-.02-.5.23-.95.5-.62.39-1.21.8-1.78 1.26-.32.24-.6.53-.8.87-.13.23-.21.47-.25.73 0 .27.07.88.16 1.12l-.07.17c-.1.3-.14.6-.1.91.05.47.28.85.72 1.35.66.7 1.43 1.3 2.28 1.76l1.6-.55v-.45l-1.31-.82h.02l1.29-.47v-.47L8 10.33l1.64-1.04a7.6 7.6 0 0 1-.76-.3 9.5 9.5 0 0 1-1.7-.95c.3-.24.73-.64 1.09-.98l.48-.44s-.57.29-1.03.56a10.53 10.53 0 0 0-1.78 1.27 3.48 3.48 0 0 0-.07-.3c-.02-.35.1-.7.3-.97.29-.42.64-.78 1.03-1.1.6-.5 1.1-.87 1.37-1.06l.24-.18Zm3.99 3.22.01.07.04-.06v-.03a2.1 2.1 0 0 0-.36-1.8c-.26-.37-.59-.7-.96-.97a7.12 7.12 0 0 0-1.89-1.2l-.48-.23.54.36c.18.13.3.2.43.28l.19.12c.4.23.78.5 1.12.82.27.22.48.5.6.83.1.3.11.61.06.91l.05.06.13.14.1.11a1.4 1.4 0 0 1 .42.6Zm-.63.92-.16.3a9.08 9.08 0 0 0-1.51-1.13l-.07-.04-.4-.22-.2-.1c-.19-.12-.56-.28-.56-.28 0 .1.54.46.9.68.28.18.59.38.88.61a.96.96 0 0 0-.08.1l-.18.15c-.24.2-.52.43-.79.43v3.55a8.54 8.54 0 0 1-.73.39c-.26.12-.46.22-.77.29V15l.04-.01a9.91 9.91 0 0 0 2.96-1.55c.39-.28.73-.6 1.03-.99.16-.2.3-.43.37-.69.07-.25.1-.5.1-.78a2.33 2.33 0 0 0-.26-.79c.1-.21.21-.47.23-.55.04-.2.04-.4 0-.59a2.1 2.1 0 0 0-.17-.65 5.8 5.8 0 0 0-1.85-1.9 8.74 8.74 0 0 0-1.72-.88l.57.36.48.3.36.23c.3.2.58.41.84.65.2.19.37.4.5.64.1.22.17.45.21.7.05.15.04.32-.02.48Z" fill="#fff"/></svg>