<!-- by TradingView --><svg xmlns="http://www.w3.org/2000/svg" width="18" height="18" viewBox="0 0 18 18"><path fill="#94B2CE" d="M0 0h18v18H0z"/><path fill-rule="evenodd" d="M16 6.6a.1.1 0 0 0-.06-.08.19.19 0 0 0-.1-.02.81.81 0 0 0-.25.07c-.17.08-.37.2-.45.28l-.88.84-1.34 1.27a1.76 1.76 0 0 1-.28-.2.83.83 0 0 1-.13-.15.27.27 0 0 1-.05-.13 6.49 6.49 0 0 1 .15-.82l.03-.14-.09.1c-.3.3-.78.73-1.28 1.06-.26.17-.51.32-.76.41-.24.1-.46.13-.64.09a4.4 4.4 0 0 1-1.33-.67c-.46-.32-.9-.67-1.15-.9a63.14 63.14 0 0 0-.87-.55 3 3 0 0 0-.22-.12l-.05-.25a.53.53 0 0 0-.05-.11c-.01-.03-.04-.07-.08-.07l-.04.01-.04.01-.14.05-.3.11-.06.03a13.07 13.07 0 0 1-.56.2h-.03l-.02-.02-.02-.02v-.01a.42.42 0 0 0-.04-.05c-.05-.07-.16-.14-.42-.17-.4-.05-1.16-.02-1.5 0a4.65 4.65 0 0 0-.82-.12.22.22 0 0 0-.09.03.09.09 0 0 0-.04.07v.02l.18.22v.01h.01l.26.3c.05.04.09.12.13.21l.09.32c.05.22.07.46.08.6v.04h.03c.05 0 .14 0 .22-.04a.46.46 0 0 0 .22-.15 9.41 9.41 0 0 0 1.23.74c.13.06.26.1.36.11l.27.28c-.04.51.12 1.65 1.13 2.2l.01.01h.28v-.04c0-.14.02-.37.08-.56.03-.1.07-.18.12-.23a.24.24 0 0 1 .14-.08l.29.12c.9.33 1.78.35 2.13.32.08.07.26.16.55.24.3.08.72.16 1.28.19h.05l-.01-.04c-.03-.17-.05-.4 0-.6.03-.1.08-.2.14-.26.05-.05.11-.08.19-.1H11.53l.07.07c.04.03.1.06.19.09.16.05.42.08.79.06h.02v-.02a.95.95 0 0 1 .13-.18.58.58 0 0 1 .2-.16l.04-.01-.02-.04a.77.77 0 0 1-.06-.37c.01-.06.03-.1.07-.14.04-.03.1-.06.2-.06s.18.02.27.04v.01h.01l.2.07.09.03a.8.8 0 0 0 .61.03c.4-.15.73-.4.85-.52l.02-.02v-.02a5.3 5.3 0 0 1-.2-.9.5.5 0 0 1 .01-.11l.02-.06.15-.13h.02l.22-.2c.13-.14.24-.32.18-.54a3.68 3.68 0 0 0 .36-.6.37.37 0 0 0 .03-.18zm-2.54 3.08l.21.07.08.03c.17.07.34.11.57.03.37-.14.68-.37.8-.49a5.36 5.36 0 0 1-.18-.9l.01-.13A.2.2 0 0 1 15 8.2l.16-.13.02-.02c.06-.05.14-.11.2-.18.14-.14.23-.3.17-.48v-.04a3.58 3.58 0 0 0 .36-.6.3.3 0 0 0 .03-.14l-.02-.03a.13.13 0 0 0-.07 0 .75.75 0 0 0-.22.06c-.17.07-.36.2-.43.26l-.88.85c-.34.45-1 1.37-1.09 1.5v.08c0 .04.03.08.06.13.05.08.13.16.18.22zm.55-1.65l-1.06 1-.01.01c-.22.26-.63.4-1.05.46-.41.06-.84.06-1.11.03h-.01l-.27-.2c-.12.08-.35.18-.58.18-.32 0-2.04-.76-2.95-1.23a6.43 6.43 0 0 0-2.21-.77 3.23 3.23 0 0 1 1.51 0c.19.07.51.25.9.48.67.38 1.52.88 2.23 1.1-.29-.13-.6-.32-.9-.52-.46-.32-.9-.67-1.15-.9a62.98 62.98 0 0 0-.96-.6 3.22 3.22 0 0 0-.62-.08 18.1 18.1 0 0 0-.82 0h-.02L4.5 7a3.78 3.78 0 0 1-1.55-.27 4.6 4.6 0 0 0-.8-.13.16.16 0 0 0-.06.02l.15.2a4.4 4.4 0 0 1 1.25.58l.13.12c.03.05.05.1.05.14v.02l-.01.02c.27.03.66.09 1 .2a10.76 10.76 0 0 1 2.28 1.22c.81.6 1.92 1.33 2.74 1.42l1.75-.15c.17-.08.6-.3.84-.54a.95.95 0 0 1 .52-.22c.19-.02.37-.02.49 0l.06.01a1.2 1.2 0 0 1-.11-.14.53.53 0 0 1-.07-.15.19.19 0 0 1 .01-.15l.85-1.17zm-1.08 1.66c-.04 0-.1 0-.14.02a.88.88 0 0 0-.48.2c-.2.19-.52.37-.73.48v.01l.06.07.17.08c.15.05.39.08.74.06.03-.05.07-.12.13-.18a.69.69 0 0 1 .2-.16.82.82 0 0 1-.06-.38.3.3 0 0 1 .11-.2zm-1.73.84L9.33 11c.09.05.25.13.5.2.29.08.69.15 1.22.18-.03-.16-.04-.4.02-.59.02-.1.07-.19.13-.26zm-1.98.43v-.01l1.81-.45-1.38.11c-.49.2-1.58.36-2.63-.48a11.68 11.68 0 0 1-1.54-1.47l-.16-.18c0 .17-.07.29-.16.37a.55.55 0 0 1-.28.13c.2.21.54.54.94.85a6.1 6.1 0 0 0 1.07.68v.02a5.42 5.42 0 0 0 2.33.44zm-2.47-.42a6.39 6.39 0 0 1-.98-.65 9.74 9.74 0 0 1-.62-.54c-.03.52.16 1.56 1.09 2.08h.2c0-.15.01-.37.07-.55.04-.1.08-.2.14-.26a.34.34 0 0 1 .1-.08zm-1.97-1.6l-.16-.23a6.71 6.71 0 0 1-.79-.41.82.82 0 0 1-.18-.16.48.48 0 0 1-.06-.49.2.2 0 0 0-.04-.08.6.6 0 0 0-.1-.12A2.12 2.12 0 0 0 3 7.2l.12.28c.1 0 .26 0 .26.09s-.12.12-.2.13c.05.14.07.28.06.4a9.34 9.34 0 0 0 1.22.73c.12.05.23.09.31.1zm-1.6-.85c.01-.14-.03-.32-.1-.5a3.35 3.35 0 0 0-.17-.44c-.2-.09-.41-.17-.59-.22l.18.19c.06.06.1.15.14.25l.1.32c.04.22.07.43.07.58a.6.6 0 0 0 .17-.03.37.37 0 0 0 .2-.15zM3.1 6.72a4.02 4.02 0 0 0 1.75.2V6.9a.35.35 0 0 0-.03-.04c-.04-.05-.13-.12-.37-.15-.36-.04-.98-.02-1.35 0zm2.14.2a13.14 13.14 0 0 1 1 .03 1.62 1.62 0 0 0-.1-.33.1.1 0 0 0-.02-.03H6.1l-.04.01-.13.05-.3.11-.06.03-.33.12zm5.19 2.28l.36.26c.27.02.69.03 1.1-.04.4-.06.77-.18.98-.4a1.83 1.83 0 0 1-.28-.21.9.9 0 0 1-.13-.16.35.35 0 0 1-.07-.17 6.42 6.42 0 0 1 .12-.72c-.3.3-.74.68-1.2.99a4 4 0 0 1-.88.45zm-5.8-1.23a5.2 5.2 0 0 0-1-.2.4.4 0 0 0 .08.33c.03.04.08.08.16.14l.26.15.5.25v-.67zm.49.82a.48.48 0 0 1-.27.12l-.17-.23h.02v-.69l.2.09c.12.08.22.2.34.31.02.2-.04.32-.12.4z"/><path d="M12.51 7.71c-.1.12-.72.63-1.01.86l-.04.02c-.18.17-.78.46-1.07.6l.41.31 1.05-.05c.6-.04.96-.3 1.06-.43l-.23-.19c-.12-.09-.22-.26-.26-.34a3.2 3.2 0 0 1 .14-.75l-.05-.03zM6.83 10.54a6.33 6.33 0 0 1-1.68-1.25c-.02-.02-.04.11.05.78.1.67.71 1.2 1.01 1.4h.27v-.22c.03-.48.25-.67.35-.71zM11.08 11.42c-.56 0-1.4-.22-1.78-.42l.97-.27 1.06-.26c-.28.12-.28.68-.25.95zM12.26 9.88a7.4 7.4 0 0 1-.72.5c.07.13.38.36 1.04.26 0-.1.22-.27.33-.34 0-.01.01-.08-.06-.26-.07-.18.1-.33.18-.38-.08-.01-.6.06-.77.22zM14 8.11l-.83 1.15.04.16.24.29.51.15H14c.33.12.91-.3 1.16-.52a6.05 6.05 0 0 1-.18-.88l.03-.24c.56-.34.62-.7.58-.85.16-.22.45-.69.32-.83-.12-.14-.65.25-.9.47l-.7.68-.3.42z" fill-opacity=".3"/></svg>