<!-- by TradingView --><svg width="18" height="18" viewBox="0 0 18 18" xmlns="http://www.w3.org/2000/svg"><path fill="#00654F" d="M0 0h18v18H0z"/><path d="m8.52 6.7.5-3.7.48 3.7h-.98ZM4.07 8.77c-.14-.69-.18-2.04.86-2.18.36-.05.95.1.9.99-.07 1-.62 1.55-1.12 2.05l-.16.16c.13-.35.33-1.1.14-1.27-.2-.18-.5.09-.62.25Zm9-2.18c1.04.14 1 1.5.86 2.18-.13-.16-.42-.43-.62-.25-.19.17.01.92.14 1.27l-.16-.16c-.5-.5-1.05-1.04-1.11-2.05-.06-.9.53-1.04.9-1Zm-7 .74v.37c0 .24-.05.75-.39 1.1l-.12.13c-.49.52-1.59 1.66-1.56 2.6.03 1.02.63 1.52 2 1.48v-2.3a.71.71 0 0 1-.48-.71c0-.36.23-.69.4-.87l.02-.03c.18-.19.49-.52.49-.96 0-.31-.24-.73-.36-.81Zm5.86.37v-.37c-.12.08-.36.5-.36.8 0 .45.31.78.49.97l.02.03c.17.18.4.5.4.87a.71.71 0 0 1-.48.71V13c1.37.04 1.97-.46 2-1.49.03-.93-1.07-2.07-1.56-2.59l-.12-.12c-.34-.36-.4-.87-.4-1.1ZM10.5 7h-3v1.25h3V7ZM7 8.69h4v1.87H7V8.7ZM11.5 11h-5v2h5v-2Z" fill="#fff"/></svg>