<!-- by TradingView --><svg width="18" height="18" viewBox="0 0 18 18" xmlns="http://www.w3.org/2000/svg"><path fill="#F0F3FA" d="M0 0h18v18H0z"/><path d="M10.83 3.16C10.82 3.18 9.47 5 9.24 5.2c-.55.45-1.84.57-2.14.53h-.03L6.98 6h.03c.02 0 1.3.32 1.94.7a9.2 9.2 0 0 1 1.53 1.44l.2-.26a4.4 4.4 0 0 1-.65-2.2c.04-.31.84-2.47.85-2.49l.07-.19-.12.16Z" fill="#C22821"/><path d="M10.48 8.14c-.08.1-.15.17-.19.2-.53.44-1.75.57-2.11.53a9 9 0 0 0-.1.3c.19.04 1.33.33 1.92.69.63.39 1.53 1.43 1.54 1.44l.02.03.21-.25-.01-.02a4.4 4.4 0 0 1-.68-2.23c.04-.31.84-2.46.85-2.49l.07-.19-.12.16a71 71 0 0 1-1.2 1.57l-.2.26Z" fill="#2F4486"/><path d="m8.09 9.16-.05.19c-.08.7.44 1.87.67 2.2l-.21.26a9.2 9.2 0 0 0-1.54-1.43c-.63-.4-1.92-.7-1.93-.7L5 9.67l.09-.28h.02c.31.04 1.6-.08 2.15-.53.23-.19 1.57-2 1.59-2.02l.1-.13-.06.16c0 .01-.47 1.27-.71 2l-.1.3Z" fill="#5F666F"/><path d="m8.5 11.8-.2.21c-.54.46-1.83.58-2.14.53h-.02l-.09.28h.03c.01.01 1.3.32 1.93.71.64.4 1.54 1.43 1.55 1.45l.02.02.2-.25v-.02a4.4 4.4 0 0 1-.69-2.23c.04-.3.85-2.46.85-2.48l.06-.16-.1.13c-.01.01-.72.96-1.2 1.56l-.2.26Z" fill="#C3C4C7"/></svg>