<!-- by TradingView --><svg xmlns="http://www.w3.org/2000/svg" width="18" height="18"><path fill="#215A96" d="M0 0h18v18H0z"/><path d="M8.54 4.01A5.05 5.05 0 005.3 5.66l4.23.5.06-.1a.85.85 0 01.11-.16.72.72 0 00.06-.08l-.52-.91L8.71 4h-.05l-.12.01zm.8.02l.35.84.33.82h.16c.13 0 .18 0 .25.03a.7.7 0 01.31.26l.08.1 1.9-.44A5 5 0 009.42 4c-.09-.01-.1-.01-.08.02zm2.6 2.22l-1.07.14-.02.08a.5.5 0 01-.06.17l-.04.1 1.47 1.4 1.6 1.51.14.12.02-.16a5.97 5.97 0 00-.01-1.33 5.1 5.1 0 00-.77-2.02c-.09-.14-.1-.14-.15-.14l-1.1.13zm-7.17.07a5.04 5.04 0 00-.7 3.5L9.53 6.6v-.1l-.03-.08h-.1a342.03 342.03 0 00-4.45-.24l-.1-.01-.09.14zm2.18 2.3c-1.5.97-2.72 1.79-2.73 1.8a5 5 0 002.35 2.94 1356.87 1356.87 0 003-6l.22-.45-.05-.04a.18.18 0 00-.06-.05s-1.24.8-2.73 1.8zm3.53-1.66c-.07.03-.07.04-.07.09l.51 3.19.5 3.14.15-.09a5.05 5.05 0 002.23-2.87c0-.02-3.22-3.5-3.24-3.5l-.08.04zm-1.92 3.35L7.1 13.6a5.05 5.05 0 003.67.06c.09-.02.1-.03.1-.07l-.73-6.56-.06-.02H10L8.56 10.3z" fill="#fff"/></svg>