<!-- by TradingView --><svg width="18" height="18" xmlns="http://www.w3.org/2000/svg"><path fill="#FFC920" d="M0 0h18v18H0z"/><path d="M13.893 8.343l-3.586.553a.129.129 0 01-.107-.04.136.136 0 01-.037-.11l.106-1.964a.39.39 0 01.09-.266.371.371 0 01.243-.13l2.292-.347a.367.367 0 01.265.047c.08.049.139.126.166.217l.663 1.852a.137.137 0 01-.095.188zm-2.615 5.205l-1.642-3.316a.14.14 0 01.042-.165.133.133 0 01.054-.025l1.85-.53a.366.366 0 01.275.005.379.379 0 01.198.194l1.05 2.117a.389.389 0 01-.134.526l-1.497 1.228a.13.13 0 01-.196-.034zM5.6 12.6L8.18 9.99a.13.13 0 01.11-.033.13.13 0 01.094.068l1.033 1.651a.39.39 0 01-.041.53l-1.652 1.669a.37.37 0 01-.517.034l-1.595-1.09a.133.133 0 01-.064-.105.138.138 0 01.046-.114h.005zm-.867-5.808l3.221 1.706a.133.133 0 01.065.097.138.138 0 01-.034.112l-1.208 1.53a.366.366 0 01-.496.122L4.217 9.266a.38.38 0 01-.189-.204.393.393 0 01-.002-.28L4.54 6.89a.137.137 0 01.07-.1.129.129 0 01.12.002zm5.137-2.646l-.597 3.672a.137.137 0 01-.07.094.129.129 0 01-.115.001l-1.794-.709a.376.376 0 01-.215-.172.392.392 0 01-.044-.275l.382-2.347a.386.386 0 01.133-.245.368.368 0 01.26-.088L9.727 4a.128.128 0 01.11.04.136.136 0 01.037.114l-.005-.008z" fill="#4C4F50"/></svg>