<!-- by TradingView --><svg width="18" height="18" viewBox="0 0 18 18" xmlns="http://www.w3.org/2000/svg"><path fill="url(#ayebopkjh)" d="M0 0h18v18H0z"/><path d="m11.36 4-.04.11-.06.18-.03.07h-.4a4.42 4.42 0 0 0 .32.23 10.53 10.53 0 0 1-.12.37 3.95 3.95 0 0 0 .33-.23 4.66 4.66 0 0 1 .34.22 7.97 7.97 0 0 0-.13-.36 37.6 37.6 0 0 1 .33-.22H11.49a13.56 13.56 0 0 0-.13-.37Zm-4.66.07-.07.18-.04.11h-.4a4.3 4.3 0 0 0 .32.23l-.06.18-.06.19a3 3 0 0 0 .17-.11l.16-.12.18.13.15.1a3.54 3.54 0 0 0-.12-.36 3.24 3.24 0 0 1 .33-.23H6.85L6.72 4l-.02.07Z" fill="#FC1"/><path d="m5.51 5.73-.67.67-.01.02a2.99 2.99 0 0 1 .26.22 1.65 1.65 0 0 1 .16.22 1.31 1.31 0 0 1 .11.27 1.05 1.05 0 0 1 .04.25 1.33 1.33 0 0 1-.03.38 1.73 1.73 0 0 1-.11.37l-.04.1-.04.08-.05.1-.06.12a5.46 5.46 0 0 1-.12.2l-.05.09a4.83 4.83 0 0 1-.3.45 4.24 4.24 0 0 0-.12.22l-.04.08-.04.08a1.7 1.7 0 0 0-.1.3 2.94 2.94 0 0 0-.07.45 2.07 2.07 0 0 0 0 .26v.1a3.02 3.02 0 0 0 .17.68 5 5 0 0 0 .23.45 3.13 3.13 0 0 0 .33.4 2.07 2.07 0 0 0 .15.12l.07.05a2.4 2.4 0 0 0 .87.4 4.24 4.24 0 0 0 1.09.15 3.6 3.6 0 0 1 1.62.6l.1.07.09.07.05.05h.02l.07-.06a4.21 4.21 0 0 1 .25-.17l.09-.06a4.1 4.1 0 0 1 .73-.34 3.02 3.02 0 0 1 .28-.08l.09-.02a2.75 2.75 0 0 1 .3-.05l.1-.01.1-.01a16.63 16.63 0 0 1 .51-.05l.12-.02a8.12 8.12 0 0 0 .32-.07l.1-.03a2.85 2.85 0 0 0 .9-.46 2.98 2.98 0 0 0 .37-.4 2.3 2.3 0 0 0 .43-1.1v-.09l.02-.09a3.78 3.78 0 0 0-.03-.53 2.6 2.6 0 0 0-.57-1.24 3.56 3.56 0 0 1-.06-.1l-.07-.1a6.07 6.07 0 0 1-.2-.36c0-.03-.03-.07-.04-.1a2.53 2.53 0 0 1-.2-.7 1.41 1.41 0 0 1 .1-.61l.03-.06a2.15 2.15 0 0 1 .16-.23l.06-.06a1.4 1.4 0 0 1 .2-.16l.02-.03a498.26 498.26 0 0 0-1.35-1.35l-.08.03a5.48 5.48 0 0 1-.25.12l-.1.05a4.62 4.62 0 0 1-.26.1l-.12.03a6.8 6.8 0 0 1-.11.04l-.1.02-.1.03-.11.03-.13.02-.12.03-.1.01-.09.02a8.52 8.52 0 0 1-.29.04l-.12.01-.1.01h-.1l-.1.01h-.14a8.43 8.43 0 0 1-.65 0h-.16a6.52 6.52 0 0 1-.2-.01l-.1-.01-.11-.02a5.63 5.63 0 0 1-1.93-.56l-.67.67Z"/><path d="m4.51 6.44.16-.16.47-.47a104.14 104.14 0 0 0 .69-.7l.2-.2.15.15-.67.67-.22.22-.32.32-.14.15.16.13c.21.2.37.45.4.74.07.61-.25 1.12-.56 1.62-.23.36-.45.72-.55 1.12-.43 1.89 1.15 2.8 2.86 2.98.7.08 1.32.36 1.86.79.03.02.15-.08.24-.16l.1-.07c.4-.28.88-.46 1.37-.53 1.16-.2 2.52-.47 2.94-1.66.31-.87.06-1.7-.45-2.46-.26-.39-.5-.82-.56-1.28-.06-.47.15-.91.53-1.2.06-.04-.38-.46-.57-.64l-.08-.07-.67-.67.16-.14.67.68.06.05.07.07a12.5 12.5 0 0 1 .47.47l.08.12.03.09a.2.2 0 0 1-.09.2c-.33.24-.5.62-.45 1.01.05.42.27.82.53 1.2.53.8.81 1.69.47 2.64a2.27 2.27 0 0 1-1.3 1.31c-.57.26-1.23.38-1.8.47-.47.07-.91.24-1.29.5l-.02.01-.04.03-.02.02-.08.07a1.2 1.2 0 0 1-.12.09.38.38 0 0 1-.09.04.25.25 0 0 1-.22-.04c-.52-.4-1.1-.67-1.76-.74a4.32 4.32 0 0 1-2.34-.9 2.23 2.23 0 0 1-.7-2.32c.1-.44.35-.83.58-1.19l.13-.2c.26-.44.45-.83.4-1.29a1.1 1.1 0 0 0-.48-.74l-.19-.13Zm7.34-1.38c-.84.45-1.88.61-2.84.61a6.3 6.3 0 0 1-2.83-.61l-.15-.14.1-.11.15.07c.82.42 1.78.6 2.73.6.94 0 1.93-.17 2.74-.6l.14-.07.12.11-.16.14Z" fill="#fff"/><path d="m5.65 5.81-.57.58a2.2 2.2 0 0 1 .26.28 1.65 1.65 0 0 1 .14.24 1.06 1.06 0 0 1 .07.23l.02.09v.07a1.93 1.93 0 0 1-.08.67l-.03.1a2.47 2.47 0 0 1-.16.36l-.06.12-.06.11a6.39 6.39 0 0 1-.23.37c-.03.04-.06.1-.09.12a3.82 3.82 0 0 0-.1.18l.91-.55 1.34-.8.9-.55.9-.54 1.29-.78.87-.52.02-.02-.07.02-.12.03-.12.03-.11.03a7.6 7.6 0 0 1-.22.04l-.13.02a10.54 10.54 0 0 1-.53.06l-.14.01-.14.01a10.83 10.83 0 0 1-.93 0l-.12-.02h-.08a6.58 6.58 0 0 0-.46-.06l-.1-.02-.1-.01-.12-.03a7.43 7.43 0 0 1-.36-.08l-.08-.02-.1-.04-.12-.03-.1-.04a4.06 4.06 0 0 1-.22-.08l-.09-.04a10.46 10.46 0 0 1-.22-.1l-.56.56Z" fill="#fff"/><path d="M6.75 5.75H6.7a1.26 1.26 0 0 0-.28.08 1.89 1.89 0 0 0-.16.08 1.14 1.14 0 0 0-.37.4.83.83 0 0 0-.09.3 1.12 1.12 0 0 0 .08.5.96.96 0 0 0 .4.42 1.31 1.31 0 0 0 .23.1 1.4 1.4 0 0 0 .22.05 1.67 1.67 0 0 0 .35-.02 1.22 1.22 0 0 0 .28-.1 1.41 1.41 0 0 0 .2-.16 1.11 1.11 0 0 0 .23-.3 1.03 1.03 0 0 0 .07-.22V6.8a1.3 1.3 0 0 0 0-.18v-.06a1.32 1.32 0 0 0-.04-.16.89.89 0 0 0-.26-.38 2.1 2.1 0 0 0-.17-.13 1.32 1.32 0 0 0-.18-.08l-.05-.02-.05-.02a1.43 1.43 0 0 0-.13-.02h-.23Z"/><path d="M11.27 5.79h-.03l-.45.29-.59.36a.76.76 0 0 0-.15.1 1.16 1.16 0 0 0-.06.08l-.02.06-.01.02v1.24c0 .04.01.06.02.07l.01.03.03.03.03.02h.04a.2.2 0 0 0 .04 0l.04-.02.3-.17.5-.3a10.04 10.04 0 0 0 .28-.18.6.6 0 0 0 .08-.11.53.53 0 0 0 .04-.12l.01-.03v-.55l-.26.14-.25.15v.35a6.6 6.6 0 0 1-.35.18l-.01-.01V7.4l-.01-.04-.01-.34V6.7a.14.14 0 0 1 .03-.05 4.4 4.4 0 0 1 .39-.25h.01v.05l.01.04.23-.13.22-.14v-.37a.14.14 0 0 0-.03-.04l-.02-.01h-.06Zm-4.48.06.02.02a2.25 2.25 0 0 1 .24.32 1.54 1.54 0 0 1 .1.2l.01.07a1.68 1.68 0 0 1 .05.2 1.44 1.44 0 0 1 0 .24v.07a.57.57 0 0 0 .07-.11 1.13 1.13 0 0 0 .04-.13 1.2 1.2 0 0 0 .03-.13v-.09a1.07 1.07 0 0 0-.04-.23 1.16 1.16 0 0 0-.08-.23l-.05-.09-.03-.06-.04-.02a1.35 1.35 0 0 0-.15-.03 1.11 1.11 0 0 0-.17 0Zm-.15.01h-.03a2.74 2.74 0 0 0-.19.07 1.3 1.3 0 0 0-.16.1l-.04.03-.02.02.01.18.01.06a1.13 1.13 0 0 0 .14.38 1.27 1.27 0 0 0 .06.09.84.84 0 0 0 .18.14 1.28 1.28 0 0 0 .18.08 1.39 1.39 0 0 0 .13.03h.02A.62.62 0 0 1 7 7L7.04 7a.7.7 0 0 1 .04-.02h.02a1.25 1.25 0 0 0-.03-.47 1.18 1.18 0 0 0-.18-.39l-.06-.07a1.76 1.76 0 0 0-.1-.1c0-.02-.03-.04-.04-.06l-.03-.02h-.02Zm.66.11.02.06a2.72 2.72 0 0 1 .1.27 1.37 1.37 0 0 1 .03.24.7.7 0 0 1-.05.3 1.37 1.37 0 0 1-.08.15l-.02.03a.55.55 0 0 0 .17-.06.64.64 0 0 0 .14-.13.78.78 0 0 0 .14-.3.65.65 0 0 0-.06-.18 1.04 1.04 0 0 0-.12-.18 1.6 1.6 0 0 0-.18-.16 1 1 0 0 0-.1-.06v.02Zm-1.21.23a1.04 1.04 0 0 0-.13.2.72.72 0 0 0-.05.19.88.88 0 0 0 .02.34l.04.03a1.88 1.88 0 0 0 .25.13 1.64 1.64 0 0 0 .3.06 1.13 1.13 0 0 0 .35-.02h-.03a1.21 1.21 0 0 1-.33-.14 1.25 1.25 0 0 1-.1-.08.86.86 0 0 1-.17-.2 1.22 1.22 0 0 1-.09-.23 3.1 3.1 0 0 1-.06-.28Zm5.8.46-.22.12v.4l.22-.13.21-.13v-.39l-.22.13Zm-4.13.12-.02.04a1.66 1.66 0 0 1-.07.1.62.62 0 0 1-.36.2h-.03v.01a1.01 1.01 0 0 0 .13.08.58.58 0 0 0 .13.03h.04l.02-.02.03-.04.03-.05.03-.05a1.05 1.05 0 0 0 .05-.14l.02-.07v-.05a.3.3 0 0 0 .01-.04v-.02l-.01.02Zm-.64.25h-.04a.55.55 0 0 0-.05.03.2.2 0 0 0-.08.06v.04l.02.01.04.01a.23.23 0 0 0 .08 0l.06-.03a.14.14 0 0 0 .05-.03.16.16 0 0 0 .03-.04v-.04h-.02l-.05-.02h-.04Zm-1.14.05.02.04a1.21 1.21 0 0 0 .12.16l.04.04.02.02.1.02a1.95 1.95 0 0 0 .32 0 1.79 1.79 0 0 0 .13-.03.96.96 0 0 0 .14-.06l.04-.03.01-.01h-.07a1.45 1.45 0 0 1-.21.02.97.97 0 0 1-.26-.02 1.59 1.59 0 0 1-.16-.04l-.06-.03a2.1 2.1 0 0 1-.14-.06L6 7.08Zm2.36.46L7.6 8v.3l.1-.06.11-.06v1l-.2.14v.28l.5-.3.5-.28v-.3a4.59 4.59 0 0 0-.26.16V8.5l.25-.15v.2l.14-.09.13-.08v-.63l-.12.08-.12.08v.12l-.28.14-.01.01v-.32l.36-.22.04.02.06.02.16-.1.15-.1v-.4l-.76.46ZM7.2 7.2v.01a.76.76 0 0 1-.02.2.66.66 0 0 1-.04.11.3.3 0 0 0-.02.03h.04a.92.92 0 0 0 .29-.17l.04-.03.02-.02h-.04a.53.53 0 0 1-.15-.06.83.83 0 0 1-.1-.06L7.2 7.2h-.01Zm4.48.28-.44.26v5.09h.06l.1-.02a4.94 4.94 0 0 0 .82-.19V7.18s-.3.15-.54.3Zm-4.6-.24c-.02 0-.02 0-.05.03a.58.58 0 0 1-.15.1 1.04 1.04 0 0 1-.2.07 1.1 1.1 0 0 1-.22.02 1 1 0 0 0-.1 0l.01.01a2.95 2.95 0 0 0 .16.07 1.18 1.18 0 0 0 .26.05h.17a.64.64 0 0 0 .06-.07.55.55 0 0 0 .05-.08.4.4 0 0 0 .03-.18l-.01-.02h-.02Zm2.36.87-.21.13v.4a13.03 13.03 0 0 0 .42-.27l.01-.2V8l-.22.12Zm.47.44-.57.35v4.5l.2-.13a10.42 10.42 0 0 1 .43-.2l.13-.04.21-.04V8.32l-.4.23Zm-3.47.16a50.55 50.55 0 0 0-1.24.72l-.01.03-.01.03a.5.5 0 0 0 0 .11v.5c0 .03.01.05.02.05l.01.03.02.01a.13.13 0 0 0 .07.01.3.3 0 0 0 .09-.03l.05-.02.05-.03a19.33 19.33 0 0 1 .51-.3.2.2 0 0 1 .05 0h.03l.02.02v.35a7.17 7.17 0 0 1-.41.23l-.01-.01v-.13l-.01-.12-.5.29a4.14 4.14 0 0 0 .02.46l.02.03.02.01.03.01h.03a.29.29 0 0 0 .08-.03l.42-.24.52-.32.15-.09.04-.03.03-.03a.29.29 0 0 0 .05-.11 5.34 5.34 0 0 0 0-.35V9.5a.33.33 0 0 0-.07-.07l-.03-.01a.25.25 0 0 0-.1-.01.43.43 0 0 0-.12.03L6 9.57a3.83 3.83 0 0 1-.28.14H5.7l-.02-.02v-.02l-.01-.1v-.1a.18.18 0 0 1 .03-.05l.03-.03a3.83 3.83 0 0 1 .34-.18l.01.01.02.02v.06a.4.4 0 0 0 0 .06l.24-.14.24-.13v-.3a.2.2 0 0 0-.04-.06.06.06 0 0 0-.03-.02.21.21 0 0 0-.08 0Zm6.58 1.8v1.6l.03-.03a2.01 2.01 0 0 0 .23-.3l.04-.06a4.38 4.38 0 0 0 .22-.5 2.74 2.74 0 0 0 .1-.57 2.2 2.2 0 0 0-.02-.47l-.02-.1a3.2 3.2 0 0 0-.18-.5 3.58 3.58 0 0 0-.4-.65v1.59Zm-4.88-.9-.4.27v3.07l.16.06a5.2 5.2 0 0 1 .19.07l.08.03.08.03a4.28 4.28 0 0 1 .22.1l.07.04.16.11V9.3s-.32.17-.56.32Zm-1.06-.08-.2.12v.4a19 19 0 0 0 .42-.26V9.4l-.22.13Zm-.71 1.15-.44.27-.09.06v1.59c.09.06.2.09.22.1a4.47 4.47 0 0 0 .56.1l.1.02H6.8v-2.4l-.44.26Zm-1.5.9-.16.1.02.04a1.43 1.43 0 0 0 .17.24l.05.06.05.06a.2.2 0 0 0 .03.03 12.02 12.02 0 0 0 0-.62l-.16.1Z" fill="#fff"/><defs><linearGradient id="ayebopkjh" x1="3.35" y1="3.12" x2="21.9" y2="24.43" gradientUnits="userSpaceOnUse"><stop stop-color="#1A1E21"/><stop offset="1" stop-color="#06060A"/></linearGradient></defs></svg>