<!-- by TradingView --><svg width="18" height="18" xmlns="http://www.w3.org/2000/svg"><path fill="url(#paint0_linear)" d="M0 0h18v18H0z"/><path fill-rule="evenodd" d="M8.368 7.262c-1.434-.804-.956-2.592.597-2.592 1.723 0 2.868 1.205 3.107 1.606l.358-.401C11.713 4.803 10.518 4 8.965 4c-.61 0-1.288.172-1.804.465-1.091.62-2.317 2.85-.705 4.27.683.602 1.523 1.027 2.27 1.405 1.046.531 1.912.97 1.912 1.675 0 1.205-2.64 2.396-4.66.133l-.478.268c.753.844 1.727 1.42 2.353 1.632.626.211 1.66.194 2.352 0 1.38-.387 2.487-1.643 2.267-3.1-.255-1.681-1.766-2.378-3.099-2.992a14.678 14.678 0 01-1.005-.494zM7.053 5.253c-.584.453-1.195 2.204-.12 3.08.443.36 1.082.668 1.736.982 1.112.535 2.266 1.09 2.566 1.964.232.675-.239 1.473-.239 1.473s1.256-.826.837-2.143c-.346-1.086-1.41-1.57-2.476-2.057-.776-.354-1.553-.708-2.058-1.295-.804-.936-.246-2.004-.246-2.004z" fill="#fff"/><defs><linearGradient id="paint0_linear" x1="3.349" y1="3.122" x2="21.904" y2="24.434" gradientUnits="userSpaceOnUse"><stop stop-color="#1A1E21"/><stop offset="1" stop-color="#06060A"/></linearGradient></defs></svg>