<!-- by TradingView --><svg width="18" height="18" fill="none" xmlns="http://www.w3.org/2000/svg"><path fill="#FC1E1F" d="M0 0h18v18H0z"/><path d="M4.692 10.531c0-.925.454-2.025.681-2.46-.347-1.097-.91-3.395-.39-3.8.52-.407 1.777.942 2.34 1.668.23-.123.882-.368 1.651-.368s1.492.245 1.758.368c1.514-1.707 2.148-1.824 2.275-1.669.535.681-.023 2.818-.368 3.802.223.36.669 1.357.669 2.46 0 1.377-1.967 3.351-4.342 3.351-2.376 0-4.274-2.196-4.274-3.352z" fill="#EB9A2E"/><path d="M7.437 8.454c-.272.05-.523.054-.69.045a.175.175 0 01-.17-.16c-.021-.283.085-.661.404-.646.382.018.55.303.608.538.026.105-.048.203-.152.223zM10.574 8.454c.272.05.523.054.69.045a.175.175 0 00.17-.16c.022-.283-.085-.661-.404-.646-.382.018-.55.303-.608.538-.026.105.047.203.152.223z" fill="#FEFFF7"/><path d="M8.733 13.827c-3.268-.502-4.056-2.41-4.041-3.302 1.689-.126 2.268.533 2.346.877.045-.525.485-1.575 1.882-1.575 1.397 0 1.837 1.05 1.882 1.575a2.307 2.307 0 012.562-.765c-.8 2.677-3.42 3.242-4.63 3.19z" fill="#EAEAE8"/><path d="M6.502 8.838c-.167-.066-.17.089-.15.174v.131a.58.58 0 00.37.54c.507.193 1.363.458 1.27.18-.124-.367-1.281-.942-1.49-1.025zM11.463 8.838c.167-.066.17.089.15.174v.131a.581.581 0 01-.37.54c-.507.193-1.363.458-1.27.18.124-.367 1.28-.942 1.49-1.025z" fill="#000"/><path fill-rule="evenodd" clip-rule="evenodd" d="M7.325 5.73a9 9 0 00-1.167-1.215c-.233-.193-.471-.357-.69-.444-.217-.087-.446-.111-.626.028a.593.593 0 00-.189.292c-.038.118-.06.258-.067.41-.016.304.019.676.08 1.064.119.755.343 1.59.519 2.149-.241.47-.685 1.559-.685 2.49 0 .32.132.7.356 1.08.226.383.551.778.952 1.135.8.712 1.914 1.281 3.158 1.281 1.24 0 2.37-.51 3.189-1.195.815-.682 1.345-1.556 1.345-2.301 0-1.093-.427-2.082-.67-2.493.176-.502.396-1.268.511-1.999.06-.379.092-.752.074-1.078-.019-.322-.087-.616-.246-.816l-.002-.002c-.07-.083-.184-.103-.304-.085-.123.02-.278.081-.47.198-.375.228-.913.68-1.66 1.506a4.984 4.984 0 00-1.759-.348c-.725 0-1.351.206-1.649.342zm-1.94-1.443c-.19-.076-.32-.068-.406-.003a.366.366 0 00-.11.181c-.03.092-.049.209-.056.349-.014.28.017.633.077 1.014.12.76.35 1.61.526 2.16l.015.048-.023.044c-.228.432-.68 1.52-.68 2.424 0 .262.11.598.323.96.212.36.522.737.906 1.08.77.685 1.833 1.223 3.009 1.223 1.179 0 2.26-.485 3.045-1.142.79-.662 1.261-1.477 1.261-2.121 0-1.083-.444-2.067-.663-2.417l-.03-.048.02-.054c.174-.491.401-1.27.518-2.01.058-.37.088-.725.07-1.028-.017-.304-.08-.536-.193-.68-.003-.002-.025-.017-.096-.006-.083.013-.21.06-.388.168-.357.216-.895.666-1.663 1.523l-.055.062-.075-.034a4.7 4.7 0 00-1.743-.36c-.763 0-1.409.241-1.628.357l-.083.044-.058-.075a8.869 8.869 0 00-1.191-1.25c-.225-.188-.442-.334-.63-.409z" fill="#000"/><path fill-rule="evenodd" clip-rule="evenodd" d="M9.428 10.332h-.906a.23.23 0 00-.228.233v.45c.014.15.152.436.59.475v.43H8v.312h2v-.312h-.915v-.43c.44-.037.565-.325.57-.475v-.45a.23.23 0 00-.227-.232z" fill="#000"/></svg>