<!-- by TradingView --><svg xmlns="http://www.w3.org/2000/svg" width="18" height="18" viewBox="0 0 18 18"><path fill="#F0F3FA" d="M0 0h18v18H0z"/><path d="M9 10.1L5.72 8.2l-.1.13A4.02 4.02 0 0 0 9 14.5a4 4 0 0 0 3.37-6.17l-.09-.14L9 10.11z" fill="url(#aeyay5l5l)"/><path d="M12.28 8.2L9 10.1 5.7 8.21l3.3-1.73 3.27 1.72z" fill="url(#beyay5l5l)"/><path d="M9 3l2.83 4.44L9 9.09V3z" fill="url(#ceyay5l5l)"/><path d="M9 3v6.09L6.18 7.44 9 3z" fill="url(#deyay5l5l)"/><defs><linearGradient id="aeyay5l5l" x1="9" y1="8.19" x2="9" y2="14.5" gradientUnits="userSpaceOnUse"><stop stop-color="#498BE9"/><stop offset="1" stop-color="#56F2FF"/></linearGradient><linearGradient id="beyay5l5l" x1="9" y1="6.48" x2="9" y2="10.1" gradientUnits="userSpaceOnUse"><stop stop-color="#4A8CEA"/><stop offset=".7" stop-color="#5ABEF4"/></linearGradient><linearGradient id="ceyay5l5l" x1="10.72" y1="6.39" x2="9.58" y2="9.09" gradientUnits="userSpaceOnUse"><stop stop-color="#FB8174"/><stop offset=".56" stop-color="#568FDD"/></linearGradient><linearGradient id="deyay5l5l" x1="6.77" y1="6.04" x2="7.28" y2="8.51" gradientUnits="userSpaceOnUse"><stop stop-color="#FFE235"/><stop offset=".61" stop-color="#5DCBA2"/></linearGradient></defs></svg>