<!-- by TradingView --><svg xmlns="http://www.w3.org/2000/svg" width="18" height="18" viewBox="0 0 18 18"><path fill="url(#awswzxy2n)" d="M0 0h18v18H0z"/><path d="M7.3 5.71a.23.23 0 0 1 0-.3L8.81 3.6c.1-.12.27-.12.37 0l1.52 1.83c.07.08.07.2 0 .3L9.18 7.48a.24.24 0 0 1-.36 0L7.3 5.71z" fill="#009CF2"/><path d="M7.28 12.63a.23.23 0 0 1 0-.29l1.53-1.83c.1-.11.27-.11.36 0l1.53 1.83c.07.09.07.21 0 .3l-1.53 1.78a.24.24 0 0 1-.36 0l-1.53-1.79z" fill="#00649B"/><path d="M5.06 8.47a.23.23 0 0 1 0-.3l1.52-1.83c.1-.11.27-.11.37 0l1.52 1.83c.07.1.07.21 0 .3l-1.53 1.78a.24.24 0 0 1-.36 0L5.06 8.47zM9.53 8.47a.23.23 0 0 1 0-.3l1.52-1.83c.1-.11.28-.11.37 0l1.53 1.83c.07.1.07.21 0 .3l-1.53 1.78a.24.24 0 0 1-.36 0L9.53 8.47z" fill="#009CF2"/><defs><linearGradient id="awswzxy2n" x1="3.35" y1="3.12" x2="21.9" y2="24.43" gradientUnits="userSpaceOnUse"><stop stop-color="#1A1E21"/><stop offset="1" stop-color="#06060A"/></linearGradient></defs></svg>