<!-- by TradingView --><svg width="18" height="18" xmlns="http://www.w3.org/2000/svg"><path d="M0 9a9 9 0 1118 0A9 9 0 010 9z" fill="url(#paint0_linear)"/><path d="M12.561 6.906a.319.319 0 01-.226.094H4.321a.323.323 0 01-.23-.548l1.315-1.355A.319.319 0 015.636 5h8.044c.284 0 .427.347.226.55L12.56 6.906z" fill="url(#paint1_linear)"/><path d="M12.561 12.906a.319.319 0 01-.226.094H4.321a.323.323 0 01-.23-.548l1.315-1.355a.319.319 0 01.23-.097h8.044c.284 0 .427.347.226.55l-1.345 1.356z" fill="url(#paint2_linear)"/><path d="M12.561 8.094A.319.319 0 0012.335 8H4.321a.323.323 0 00-.23.548l1.315 1.355c.06.062.143.097.23.097h8.044a.323.323 0 00.226-.55L12.56 8.094z" fill="url(#paint3_linear)"/><defs><linearGradient id="paint0_linear" x1="3.349" y1="3.122" x2="21.904" y2="24.434" gradientUnits="userSpaceOnUse"><stop stop-color="#1A1E21"/><stop offset="1" stop-color="#06060A"/></linearGradient><linearGradient id="paint1_linear" x1="4" y1="6.591" x2="13.998" y2="4.984" gradientUnits="userSpaceOnUse"><stop stop-color="#599DB0"/><stop offset="1" stop-color="#47F8C3"/></linearGradient><linearGradient id="paint2_linear" x1="4" y1="12.679" x2="14.007" y2="11.333" gradientUnits="userSpaceOnUse"><stop stop-color="#C44FE2"/><stop offset="1" stop-color="#73B0D0"/></linearGradient><linearGradient id="paint3_linear" x1="4.574" y1="9" x2="13.611" y2="9" gradientUnits="userSpaceOnUse"><stop stop-color="#778CBF"/><stop offset="1" stop-color="#5DCDC9"/></linearGradient></defs></svg>