<!-- by TradingView --><svg width="18" height="18" viewBox="0 0 18 18" xmlns="http://www.w3.org/2000/svg"><path fill="#F0F3FA" d="M0 0h18v18H0z"/><path d="M9 15A6 6 0 1 0 9 3a6 6 0 0 0 0 12Z" fill="url(#a300lqidd)"/><g mask="url(#b300lqidd)"><path d="M9 13.06a4.06 4.06 0 1 0 0-8.12 4.06 4.06 0 0 0 0 8.12Z" fill="#F8BA3A"/><path d="M9 5.12a3.88 3.88 0 1 0 0 7.77 3.88 3.88 0 0 0 0-7.77ZM4.76 9a4.24 4.24 0 1 1 8.47 0 4.24 4.24 0 0 1-8.47 0Z" fill="#F0F3FA"/><path d="M9.21 4.88 8.67 9.1h.54L9 13.1l2.24-.69 1.55-1.83.25-2.1-.58-1.82-.97-.9-2.28-.9Z" fill="#F0F3FA"/><path d="M12.95 7.52c-.03-.27-.23-.45-.47-.56a2.94 2.94 0 0 0-.92-.21c-.73-.08-1.71-.03-2.79.1h-.02c-1.05.13-2 .25-2.67.45-.33.1-.62.24-.83.43a.87.87 0 0 0-.28.77c.05.41.21.84.47 1.16.27.32.65.55 1.12.49 1.34-.17 1.98-.7 2.25-1.3l.09-.27c.18.25.4.46.7.61.6.33 1.43.4 2.41.29a.8.8 0 0 0 .51-.3c.13-.15.22-.34.29-.54.13-.38.18-.82.14-1.12Z" fill="#01C1AE"/><path d="M9.04 11.63c.9-.08 1.57-.8 1.5-1.62l-3.24.26c.06.82.85 1.43 1.74 1.36Z" fill="#F0F3FA"/><path d="M9.95 8.9c-.7-.26-.98-.96-1.03-1.27 0-.43.49-.49 1.67-.49s1.9.1 1.95.4c.06.55-.13 1.36-.4 1.5-.28.13-1.32.2-2.2-.14ZM7.9 9.27c.56-.37.85-1.08.67-1.68-.1-.34-.64-.26-1.66-.1-.91.14-1.6.54-1.53.9.04.56.48 1.16.74 1.27.25.1 1.08.07 1.78-.4Z"/></g><path d="M10.45 10.13H9.1v-.5h1.88v.25c0 .32-.14.84-.44 1.3a2 2 0 0 1-1.5.95l-.05-.5a1.5 1.5 0 0 0 1.14-.73c.17-.27.27-.55.32-.77Z" fill="#F8BA3A"/><defs><linearGradient id="a300lqidd" x1="9" y1="3" x2="9" y2="15" gradientUnits="userSpaceOnUse"><stop stop-color="#F5B745"/><stop offset="1" stop-color="#FC8B47"/></linearGradient></defs></svg>