<!-- by TradingView --><svg width="18" height="18" xmlns="http://www.w3.org/2000/svg"><path fill="#1B1230" d="M0 0h18v18H0z"/><path d="M3.057 12.964l5.02-8.11c.252-.475 1.515-.167 1.915 0l-5.038 7.993c-.212.361-1.441.157-1.897.117z" fill="#DAD9DC" fill-opacity=".45"/><path d="M11 5.427V7h4V5.427c0-.47-.655-1.397-2.026-1.426C11.603 3.97 11 4.939 11 5.427z" fill="#fff"/><path d="M11.997 5.476v.525h2v-.525c0-.156-.328-.465-1.013-.475-.686-.01-.987.313-.987.475z" fill="#1B1230"/><path d="M13.772 11H11v1h2.32c.204.012.68.025.68.525s-.476.446-.68.475H11v1h2.772c.377-.033 1.228-.324 1.228-1.475 0-1.14-.806-1.517-1.228-1.525zM11.004 9.016c-.016-1.185.909-1.495 1.31-1.501v.776c-.162.098-.415.382-.399.725.016.343.136.555.4.555.263 0 .326-.235.408-1.176.075-.862.791-.959 1.088-.931.372-.02 1.13.22 1.186 1.47.057 1.25-.861 1.59-1.327 1.603v-.786c.08.01.44-.143.481-.817.033-.54-.174-.654-.34-.643-.165.01-.39.046-.406.993-.017.948-.81 1.182-1.215 1.182-.467 0-1.17-.266-1.186-1.45z" fill="#fff"/><path d="M7.066 8c.287.008.537.677.537.998 0 .322-.25.994-.537 1.002H5.638c-1.373-.018-2.657-1.5-2.657-3s1.284-2.983 2.657-3.001h3.68C9.608 4.007 10 4.504 10 5c0 .496-.238.987-.681 1H6.36C5.77 6 5 6.282 5 7c0 .847.68 1 1.457 1h.607z" fill="#fff"/><path d="M5.994 10c-.293-.008-.548-.68-.548-1.001 0-.322.255-.99.548-.999h1.454C8.847 8.018 10 9.5 10 11s-1.153 2.98-2.552 2.998h-3.75C3.26 13.986 3.011 13.508 3 13c-.01-.507.398-.992.698-1h2.76C7.254 12 8 11.747 8 11s-.576-1-1.367-1h-.64z" fill="#fff"/></svg>