<!-- by TradingView --><svg width="18" height="18" viewBox="0 0 18 18" xmlns="http://www.w3.org/2000/svg"><path fill="url(#ar5r5b33m)" d="M0 0h18v18H0z"/><circle cx="9" cy="9" r="6"/><path d="m8.86 5.86.28.28L6.48 8.8h6l-3.34 3.34-.28-.28 2.66-2.66h-6l3.34-3.34Z" fill="url(#br5r5b33m)"/><circle cx="9" cy="6" r="1" fill="url(#cr5r5b33m)"/><circle cx="9" cy="12" r="1" fill="url(#dr5r5b33m)"/><circle cx="6" cy="9" r="1" fill="url(#er5r5b33m)"/><circle cx="12" cy="9" r="1" fill="url(#fr5r5b33m)"/><defs><linearGradient id="ar5r5b33m" x1="3.54" y1="2.57" x2="13.5" y2="16.39" gradientUnits="userSpaceOnUse"><stop stop-color="#F207F9"/><stop offset="1" stop-color="#7C45F2"/></linearGradient><linearGradient id="br5r5b33m" x1="7.33" y1="7.33" x2="10.5" y2="11" gradientUnits="userSpaceOnUse"><stop stop-color="#672B80"/><stop offset="1" stop-color="#5E3C80"/></linearGradient><linearGradient id="cr5r5b33m" x1="8" y1="6" x2="10" y2="6" gradientUnits="userSpaceOnUse"><stop stop-color="#CE54FF"/><stop offset="1" stop-color="#B87BFF"/></linearGradient><linearGradient id="dr5r5b33m" x1="8" y1="12" x2="10" y2="12" gradientUnits="userSpaceOnUse"><stop stop-color="#CE54FF"/><stop offset="1" stop-color="#B87BFF"/></linearGradient><linearGradient id="er5r5b33m" x1="5" y1="9" x2="7" y2="9" gradientUnits="userSpaceOnUse"><stop stop-color="#CE54FF"/><stop offset="1" stop-color="#B87BFF"/></linearGradient><linearGradient id="fr5r5b33m" x1="11" y1="9" x2="13" y2="9" gradientUnits="userSpaceOnUse"><stop stop-color="#CE54FF"/><stop offset="1" stop-color="#B87BFF"/></linearGradient></defs></svg>