<!-- by TradingView --><svg width="18" height="18" xmlns="http://www.w3.org/2000/svg"><path fill="#FFC04E" d="M0 0h18v18H0z"/><path d="M8.807 6H4.521l-1.27 6H4.65l.964-5H7.33L6.3 12h1.275l1.232-6zM3.932 7h-1.36l.251-1h1.36l-.25 1z" fill="#000"/><path fill-rule="evenodd" d="M11.186 6L9.91 12h2.673c.795 0 2.037-.457 2.164-1.5.044-.762-.063-1.51-.89-1.647.775-.103 1.044-.815 1.104-1.353 0 0 .172-1.404-1.66-1.5h-2.116zm1.805 2.424H11.91L12.16 7h.83c.282.002.538.27.566.602.033.382-.245.819-.566.822zM11.4 11h1.302c.38 0 .69-.477.69-.886 0-.408-.304-.565-.69-.565h-.991L11.4 11z" fill="#000"/><path d="M9.745 11.327L8.64 8.384l.466-2.288 1.104 2.805-.466 2.426zM14 10h1.479l-.277 1H14v-1zM14.327 7H16l-.306 1h-1.367V7z" fill="#000"/></svg>