<!-- by TradingView --><svg width="18" height="18" xmlns="http://www.w3.org/2000/svg"><path d="M0 9a9 9 0 1118 0A9 9 0 010 9z" fill="url(#paint0_linear)"/><path d="M7 3v4.126L5 9v-4L7 3z" fill="#fff"/><path d="M13 10c0 2.025-1.79 4-4 4s-4-1.642-4-3.667V8.5h2v1.833c0 1.011.845 1.668 2 1.667 1.155 0 2-.99 2-2h2z" fill="#fff"/><path d="M13 7.001l-2 2H5l2-2h6z" fill="#00E8B4"/><defs><linearGradient id="paint0_linear" x1="3.349" y1="3.122" x2="21.904" y2="24.434" gradientUnits="userSpaceOnUse"><stop stop-color="#1A1E21"/><stop offset="1" stop-color="#06060A"/></linearGradient></defs></svg>