<!-- by TradingView --><svg width="18" height="18" xmlns="http://www.w3.org/2000/svg"><path fill="#FF4A4A" d="M0 0h18v18H0z"/><path d="M13.364 5H4.636a.654.654 0 00-.45.18.613.613 0 00-.186.433v6.927a.447.447 0 00.14.326.48.48 0 00.337.134h.985c.26 0 .538-.214.538-.46V7.266C6 7.104 6.089 7 6.257 7h5.41c.168 0 .332.104.333.266v5.274c0 .249.206.46.463.46h1.06a.491.491 0 00.337-.134.46.46 0 00.14-.326V5.613a.596.596 0 00-.187-.434.637.637 0 00-.449-.179zM8 10.599V9.401A.403.403 0 018.405 9h1.19a.403.403 0 01.405.4V10.6a.403.403 0 01-.405.401h-1.19A.403.403 0 018 10.599z" fill="#fff"/></svg>