<!-- by TradingView --><svg width="18" height="18" xmlns="http://www.w3.org/2000/svg"><path fill="#F0F3FA" d="M0 0h18v18H0z"/><path d="M11.564 4.912C8.76 3 6.094 4.542 5.057 5.58c0 0 2.892-2.28 6.006.222 1.183.95 2.058 3.003 1.891 5.005-.186 1.96-1.502 3.226-1.502 3.226s1.642-1.279 2.114-3.059c.516-1.946-.17-4.811-2.002-6.062z" fill="#144379"/><path d="M11.675 4.968c-2.803-1.913-5.302-.574-6.34.464 0 0 2.892-2.28 6.006.222 1.184.951 2.058 3.004 1.892 5.006-.187 1.96-1.502 3.226-1.502 3.226s1.42-1.243 1.89-3.023c.517-1.946-.113-4.644-1.946-5.895z" fill="#6EB9E6"/><path d="M7.615 12.754c1.505 0 2.725-.896 2.725-2.002 0-1.035-1.07-1.887-2.441-1.991.09-.007.18-.011.272-.011 1.505 0 2.725.971 2.725 2.169s-1.22 2.169-2.725 2.169c-.71 0-1.356-.216-1.84-.57.382.15.82.236 1.284.236z" fill="#144379"/><path fill-rule="evenodd" d="M8.171 14.2c2.304 0 4.171-1.469 4.171-3.281s-1.867-3.281-4.17-3.281C5.867 7.638 4 9.107 4 10.918 4 12.732 5.868 14.2 8.171 14.2zm0-1.112c1.505 0 2.725-.971 2.725-2.17 0-1.197-1.22-2.168-2.725-2.168-1.505 0-2.725.971-2.725 2.169s1.22 2.169 2.725 2.169z" fill="#6EB9E6"/></svg>