<!-- by TradingView --><svg width="18" height="18" xmlns="http://www.w3.org/2000/svg"><path fill="url(#paint0_linear)" d="M0 0h18v18H0z"/><path d="M4.797 11.901A5.193 5.193 0 014 9.124C4 6.294 6.239 4 9 4c1.066 0 1.52.301 1.675.435.274.237.459.565.437.903-.087 1.33-1.948 1.056-3.794 1.5-2.694.647-3.53 3.038-2.52 5.063z" fill="#8CC542"/><path d="M11.087 5.07c.102.395.055.69-.081.965-.962 1.943-4.66.58-5.544 3.756-.36 1.478.389 3.238 1.912 4.097.144.081.128.129-.029.072a5.036 5.036 0 01-2.548-2.059c-1.01-2.025-.174-4.416 2.52-5.063 1.847-.444 3.708-.17 3.795-1.5a.875.875 0 00-.025-.268z" fill="#4E7223"/><path d="M10.82 4.35a5.09 5.09 0 012.946 3.222s.33 1.244-.437 2.327c-1.386 1.959-3.846 1.253-4.09-.1-.393-2.188 2.534-1.97 2.307-4.127-.068-.526-.386-.977-.777-1.257-.149-.107-.119-.133.05-.065z" fill="#0078AD"/><path d="M10.617 13.974c-.145.05-.174.029-.038-.078.257-.2.477-.527.42-.972-.159-1.257-1.92-1.073-2.198-2.595-.133-.73.157-1.589 1.245-2.387-.538.429-.974.925-.806 1.858.136.754.961 1.198 1.905 1.2.749.002 1.572-.235 2.185-1.1.766-1.084.437-2.328.437-2.328.151.49.233 1.011.233 1.552 0 2.25-1.415 4.16-3.383 4.85z" fill="#004260"/><defs><linearGradient id="paint0_linear" x1="3.349" y1="3.122" x2="21.904" y2="24.434" gradientUnits="userSpaceOnUse"><stop stop-color="#1A1E21"/><stop offset="1" stop-color="#06060A"/></linearGradient></defs></svg>