<!-- by TradingView --><svg width="18" height="18" xmlns="http://www.w3.org/2000/svg"><path fill="#F0F3FA" d="M0 0h18v18H0z"/><path d="M10.066 13.363L8.18 10.555h1.758l1.384 2.195c-.172.397-.5 1.107-.688 1.107-.076 0-.39-.264-.568-.494z" fill="#34B234"/><path d="M12.198 7.428l-1.719.01 1.959 3.124H14a.702.702 0 00-.097-.38l-.001-.003-1.704-2.75z" fill="#003C6A"/><path d="M8.193 10.563l2.287-3.126.814 1.305-1.357 1.82H8.193z" fill="#015BBB"/><path d="M7.87 4.607l-1.915 2.84h1.718l1.45-2.134c-.178-.399-.59-1.234-.77-1.162-.146.059-.34.246-.483.456z" fill="#AD98DB"/><path d="M12.209 7.447h-1.736l-2.155-3.28a.977.977 0 01.402-.15c.08-.01.207-.017.69-.017.345 0 .644.246.822.458l1.977 2.99z" fill="#663AB6"/><path d="M12.463 13.474l1.51-2.627c.027-.074.027-.279.027-.347h-1.597l-1.81 3.33a.85.85 0 00.389.152c.078.011.247.024.656.01.292-.01.562-.163.825-.518z" fill="#018B96"/><path d="M5.958 7.437L4 10.562h1.736l1.17-1.874-.948-1.251z" fill="#5EB6E4"/><path d="M8.195 10.563L5.957 7.437h1.725l1.387 1.93-.874 1.195z" fill="#0098DB"/><path d="M8.195 10.57L5.971 14h1.736L9.082 11.9l-.887-1.33z" fill="#7BB801"/></svg>