<!-- by TradingView --><svg width="18" height="18" xmlns="http://www.w3.org/2000/svg"><path fill="#00009A" d="M0 0h18v18H0z"/><path d="M4.02 8.974c0-4.07 3.735-5.581 6.489-4.72-.917 0-1.18.381-1.45.771l-.008.01-3.308 5.644C4.263 10.625 4 9.357 4.021 8.974z" fill="#fff"/><path d="M11.65 4.744c3.511 1.826 2.428 6.82.74 7.845.472-.795.278-1.15.079-1.585L9.304 5.279c.802-1.245 2.028-.749 2.346-.535z" fill="#fff"/><path d="M11.47 13.348c-4.032 2.005-7.23-1.232-7.423-3.436.464.8 1.085 1.05 1.562 1.088h6.541c.696 1.307-.33 2.17-.68 2.348z" fill="#fff"/></svg>