<!-- by TradingView --><svg width="18" height="18" xmlns="http://www.w3.org/2000/svg"><path fill="#F0F3FA" d="M0 0h18v18H0z"/><path d="M10.371 8.668c-1.37-1.722-3.832-1.5-4.518.592 0 .037-.037.056-.074.056-.055 0-.092-.037-.092-.092-.037-4.056 4.758-4.482 6.203-1.89.074.186.148.352.148.556 0 .556-.463 1.019-1.018 1.019-.241 0-.5-.075-.649-.241z" fill="#CC203C"/><path d="M7.63 9.353c1.371 1.722 3.834 1.5 4.519-.593 0-.037.037-.055.074-.055.055 0 .092.037.092.092.037 4.055-4.758 4.481-6.203 1.889-.074-.167-.148-.352-.148-.556a1.016 1.016 0 011.019-1.018c.24 0 .5.074.648.241z" fill="#3A3B92"/><path d="M3.317 10.964a5.928 5.928 0 01-.315-1.944 6.002 6.002 0 0111.22-2.981c.075.166.13.333.13.518a1.114 1.114 0 01-1.11 1.11c-.297 0-.612-.092-.778-.332C8.946 2.687 2.743 6.02 3.52 10.927c0 .055-.037.111-.093.111-.056.019-.093-.019-.111-.074z" fill="#3A3B92"/><path d="M14.685 7.057c.222.685.315 1.26.315 1.963 0 3.314-2.685 5.999-6 5.999a6.002 6.002 0 01-5.221-3.037 1.191 1.191 0 01-.13-.518 1.114 1.114 0 011.111-1.111c.297 0 .593.092.778.333 3.518 4.648 9.72 1.315 8.943-3.592 0-.056.037-.111.093-.111.056-.019.093.018.111.074z" fill="#CC203C"/></svg>