<!-- by TradingView --><svg width="18" height="18" xmlns="http://www.w3.org/2000/svg"><path fill="#F0F3FA" d="M0 0h18v18H0z"/><path d="M10.064 9.138a.857.857 0 11-1.713 0 .857.857 0 011.713 0z" fill="#0E6971"/><path d="M9.752 7.508a.53.53 0 11-1.061 0 .53.53 0 011.06 0z" fill="#BE252A"/><path d="M7.657 7.179a.449.449 0 11-.897 0 .449.449 0 01.897 0zM8.962 6.444a.449.449 0 11-.897 0 .449.449 0 01.897 0zM10.431 6.444a.449.449 0 11-.897 0 .449.449 0 01.897 0zM11.655 7.179a.449.449 0 11-.897 0 .449.449 0 01.897 0z" fill="#0E6971"/><path d="M12.92 7.301a.449.449 0 11-.898 0 .449.449 0 01.897 0zM11.57 5.922a.449.449 0 11-.897 0 .449.449 0 01.898 0zM9.656 5.386a.449.449 0 11-.897 0 .449.449 0 01.897 0zM7.78 5.914a.449.449 0 11-.898 0 .449.449 0 01.898 0zM6.393 7.266a.449.449 0 11-.898 0 .449.449 0 01.898 0zM5.903 9.139a.449.449 0 11-.898 0 .449.449 0 01.898 0zM6.393 11.054a.449.449 0 11-.898 0 .449.449 0 01.898 0zM7.78 12.44a.449.449 0 11-.898 0 .449.449 0 01.898 0z" fill="#BE252A"/><path d="M8.392 13.517a.367.367 0 11-.734 0 .367.367 0 01.734 0zM10.757 13.543a.367.367 0 11-.734 0 .367.367 0 01.734 0zM12.756 12.36a.367.367 0 11-.734 0 .367.367 0 01.734 0zM13.899 10.32a.367.367 0 11-.734 0 .367.367 0 01.734 0zM13.94 7.995a.367.367 0 11-.735 0 .367.367 0 01.734 0zM12.756 5.996a.367.367 0 11-.734 0 .367.367 0 01.734 0zM10.757 4.813a.367.367 0 11-.734 0 .367.367 0 01.734 0zM8.392 4.813a.367.367 0 11-.735 0 .367.367 0 01.735 0zM6.392 5.996a.367.367 0 11-.734 0 .367.367 0 01.734 0zM5.21 7.995a.367.367 0 11-.735 0 .367.367 0 01.734 0zM5.25 10.32a.367.367 0 11-.734 0 .367.367 0 01.734 0zM6.392 12.36a.367.367 0 11-.734 0 .367.367 0 01.734 0z" fill="#0E6971"/><path d="M6.963 13.665a.367.367 0 11-.734 0 .367.367 0 01.734 0zM9.592 14.363a.367.367 0 11-.734 0 .367.367 0 01.734 0z" fill="#BE252A"/><path d="M7.92 14.767a.204.204 0 11-.409 0 .204.204 0 01.408 0zM10.92 14.766a.204.204 0 11-.407 0 .204.204 0 01.408 0zM13.49 13.257a.204.204 0 11-.407 0 .204.204 0 01.408 0zM15 10.687a.204.204 0 11-.408 0 .204.204 0 01.408 0zM15 7.668a.204.204 0 11-.408 0 .204.204 0 01.408 0zM13.49 5.098a.204.204 0 11-.407 0 .204.204 0 01.408 0zM10.92 3.63a.204.204 0 11-.407 0 .204.204 0 01.408 0zM7.908 3.618a.204.204 0 11-.408 0 .204.204 0 01.408 0zM5.332 5.098a.204.204 0 11-.408 0 .204.204 0 01.408 0zM3.822 7.668a.204.204 0 11-.407 0 .204.204 0 01.407 0zM3.822 10.687a.204.204 0 11-.407 0 .204.204 0 01.407 0zM5.332 13.257a.204.204 0 11-.408 0 .204.204 0 01.408 0z" fill="#0E6971"/><path d="M12.144 13.624a.367.367 0 11-.734 0 .367.367 0 01.734 0zM14.103 11.748a.367.367 0 11-.734 0 .367.367 0 01.734 0zM14.796 9.178a.367.367 0 11-.734 0 .367.367 0 01.734 0zM14.1 6.567a.367.367 0 11-.734 0 .367.367 0 01.734 0zM12.185 4.69a.367.367 0 11-.734 0 .367.367 0 01.734 0zM9.575 4a.367.367 0 11-.735 0 .367.367 0 01.735 0zM7.004 4.69a.367.367 0 11-.734 0 .367.367 0 01.734 0zM5.087 6.608a.367.367 0 11-.734 0 .367.367 0 01.734 0zM4.391 9.178a.367.367 0 11-.734 0 .367.367 0 01.734 0zM5.087 11.75a.367.367 0 11-.735 0 .367.367 0 01.735 0zM9.656 12.93a.449.449 0 11-.897 0 .449.449 0 01.897 0zM11.57 12.457a.449.449 0 11-.898 0 .449.449 0 01.897 0zM12.96 11.088a.449.449 0 11-.897 0 .449.449 0 01.897 0zM13.45 9.137a.449.449 0 11-.898 0 .449.449 0 01.898 0z" fill="#BE252A"/><path d="M12.392 8.453a.449.449 0 11-.897 0 .449.449 0 01.897 0zM12.39 9.871a.449.449 0 11-.898 0 .449.449 0 01.897 0zM11.655 11.177a.449.449 0 11-.897 0 .449.449 0 01.897 0zM10.431 11.91a.449.449 0 11-.897 0 .449.449 0 01.897 0zM8.962 11.91a.449.449 0 11-.897 0 .449.449 0 01.897 0zM7.657 11.177a.449.449 0 11-.897 0 .449.449 0 01.897 0zM6.922 9.871a.449.449 0 11-.897 0 .449.449 0 01.897 0zM6.922 8.484a.449.449 0 11-.897 0 .449.449 0 01.897 0z" fill="#0E6971"/><path d="M11.171 8.321a.53.53 0 11-1.06 0 .53.53 0 011.06 0zM11.171 9.994a.53.53 0 11-1.06 0 .53.53 0 011.06 0zM9.737 10.811a.53.53 0 11-1.06 0 .53.53 0 011.06 0zM8.31 9.994a.53.53 0 11-1.061 0 .53.53 0 011.06 0zM8.31 8.321a.53.53 0 11-1.061 0 .53.53 0 011.06 0z" fill="#BE252A"/></svg>