<!-- by TradingView --><svg xmlns="http://www.w3.org/2000/svg" width="18" height="18"><path fill="#F0F3FA" d="M0 0h18v18H0z"/><path fill-rule="evenodd" d="M9 13.38a4.38 4.38 0 100-8.76 4.38 4.38 0 000 8.75zM9 14A5 5 0 109 4a5 5 0 000 10z" fill="#527FB6"/><path d="M9.31 5.59l2.57 2.56-.45.45-2.12-2.13-2.28 2.28-.44-.44 2.72-2.72z" fill="#58992C"/><path d="M6.03 7.46l3.13 3.13 3.12-3.13 1.63 1.63-.44.44-1.19-1.18-5.09 5.09-.44-.44 1.97-1.97-2.69-2.68-1.5 1.5-.44-.45 1.94-1.94z" fill="#527FB6"/></svg>