<!-- by TradingView --><svg width="18" height="18" xmlns="http://www.w3.org/2000/svg"><path fill="url(#paint0_linear)" d="M0 0h18v18H0z"/><path d="M10.396 5H12v2.85h-1.604V5z" fill="#888"/><path fill-rule="evenodd" d="M8.124 12.96c2.14 0 3.874-1.781 3.874-3.98 0-2.198-1.735-3.98-3.874-3.98C5.984 5 4.25 6.782 4.25 8.98c0 2.199 1.734 3.98 3.874 3.98zm0-1.686c1.233 0 2.232-1.027 2.232-2.294 0-1.266-1-2.293-2.232-2.293-1.233 0-2.232 1.027-2.232 2.293 0 1.267 1 2.294 2.232 2.294z" fill="url(#paint2_angular)"/><path d="M10.842 6.145L9.687 7.342c.378.36.898 1.21 1.992 3.238.92 1.704 2.279 2.51 3.321 2.412V11.33c-.286 0-1.243-.136-2.126-2.015-.707-1.503-1.585-2.73-2.032-3.17z" fill="#fff"/><defs><linearGradient id="paint0_linear" x1="3.349" y1="3.122" x2="21.904" y2="24.434" gradientUnits="userSpaceOnUse"><stop stop-color="#1A1E21"/><stop offset="1" stop-color="#06060A"/></linearGradient><radialGradient id="paint2_angular" cx="0" cy="0" r="1" gradientUnits="userSpaceOnUse" gradientTransform="rotate(-46.183 14.594 -5.037) scale(3.93105 3.9281)"><stop stop-color="#535353"/><stop offset="1" stop-color="#fff"/></radialGradient></defs></svg>