<!-- by TradingView --><svg width="18" height="18" xmlns="http://www.w3.org/2000/svg"><path fill="#F0F3FA" d="M0 0h18v18H0z"/><path d="M7.928 9.562l-3.896.002a4.509 4.509 0 01-.015-.92l3.91.838v.08z" fill="#3F9B2C"/><path d="M10.572 9.094l3.309-1.273c.052.252.099.516.12.807l-3.407.538-.022-.072z" fill="#EF3120"/><path d="M7.992 9.076l-3.92-.956c.061-.34.199-.835.339-1.13l3.606 2.013a.313.313 0 00-.025.073zM10.156 8.448l2.193-3.206c.254.231.553.533.722.813l-2.86 2.443c-.014-.015-.032-.035-.055-.05zM8.257 8.599L4.75 6.332c.18-.335.726-.954 1.011-1.176l2.544 3.39a.253.253 0 00-.048.053zM9.525 8.142L9.62 4c.45.05 1.069.213 1.416.39L9.59 8.154a.22.22 0 00-.064-.012zM8.794 8.21l-2.247-3.6a4.973 4.973 0 011.8-.607l.519 4.182a.438.438 0 00-.072.024zM4.352 10.831s-.067-.177-.135-.403a10.987 10.987 0 01-.124-.464c1.277-.167 3.27-.176 4.641-.176 0 0-2.651.252-4.382 1.043zM7.185 13.665s-.312-.1-.699-.321a4.485 4.485 0 01-.675-.494c.768-.99 3.267-2.938 5.611-3.066 0 0-2.415.87-4.237 3.881z" fill="#3F9B2C"/><path d="M10.32 13.827s-.588.178-1.312.173c-.708-.005-1.032-.107-1.032-.107.146-.51 1.821-3.486 3.828-4.109 0 0-1.548 1.67-1.485 4.043zM5.28 12.339s-.153-.139-.409-.51c-.235-.341-.335-.572-.335-.572.632-.41 2.855-1.473 6.008-1.473 0 0-2.735.5-5.264 2.555z" fill="#3F9B2C"/></svg>