<!-- by TradingView --><svg width="18" height="18" xmlns="http://www.w3.org/2000/svg"><path fill="#50104A" d="M0 0h18v18H0z"/><path d="M8.177 13.958a5.02 5.02 0 01-3.608-2.633 5.033 5.033 0 013.159-7.183C8.244 4.01 8.338 4 9.008 4c.584 0 .637.004.925.061a4.98 4.98 0 012.606 1.395 5.004 5.004 0 011.439 3.038C14 9 14 11.246 14 11.246V14h-3v-1.49c0-.279.002-.538.003-.75a8.272 8.272 0 00-.003-.549c-.006-.004-.046.044-.146.162-.205.242-.664.784-1.6 1.793-.722.781-.777.837-.817.834a8.16 8.16 0 01-.26-.042zM11 9.94c.004-.698-.002-1.111-.018-1.22a2 2 0 00-3.772-.609 2.11 2.11 0 00-.205 1.013c.062.817.588 1.51 1.343 1.77.112.038.255.078.319.088.063.011.612.018 1.22.017l1.107-.003L11 9.94z" fill="#fff"/></svg>