<!-- by TradingView --><svg width="18" height="18" viewBox="0 0 18 18" xmlns="http://www.w3.org/2000/svg"><path fill="#1D8DC5" d="M0 0h18v18H0z"/><path d="M10.56 5.38h-4.7l-.7.62h5.4C11.4 6 12 6.67 12 7.44V14h.67V7.48c0-1.15-.86-2.1-2.1-2.1zM14 14V7.48A3.35 3.35 0 0 0 10.56 4H7.31l-.73.62h3.98c1.67 0 2.77 1.33 2.77 2.86V14H14zm-3.43-7H4.54L4 7.6v2.92A3.36 3.36 0 0 0 7 14l.57-.63h-.14c-1.66 0-2.76-1.32-2.76-2.85V7.6h.66v2.9c0 1.16.86 1.87 2.1 1.87H8.5l.6-.62H7.44c-.83 0-1.43-.47-1.43-1.24V7.6h.67v2.73c0 .39.35.66.76.66h2.4l.67-.61H7.33V7.6h3.34V14h.65V7.65c0-.38-.34-.65-.75-.65z" fill="#fff"/></svg>