<!-- by TradingView --><svg width="18" height="18" xmlns="http://www.w3.org/2000/svg"><path fill="#1F196B" d="M0 0h18v18H0z"/><path d="M7.735 5.627L5.878 9.701l.937-.6 1.308-2.7.814 1.638c-2.008 1.21-4.125 2.86-4.933 3.534l.153.269c1.664-1.434 4.008-2.898 4.973-3.45l.107.216C7.3 9.724 5.154 11.39 4.324 12.085l.215.246c1.522-1.334 3.885-2.8 4.864-3.359l.1.191c-1.545.92-3.825 2.667-4.75 3.412l.238.228c1.72-1.407 3.912-2.746 4.756-3.226l1.068 1.996c.223.42-.16.396-.283.422H10V13h3.687l-1.354-2.244c.922-.726 1.481-1.742 1.666-2.168l-.185-.775c-.655-.395-2.11.222-2.765.58l-.11-.213c1.726-.824 2.608-.698 2.84-.533l-.147-.435c-.696-.289-2.208.28-2.876.6l-.106-.165c1.657-.853 2.654-.726 2.945-.556l-.276-.52c-.815-.25-2.255.324-2.873.641L9 4H8l-.587.998.322.63z" fill="#fff"/><path d="M13.274 8.513c-.35-.395-1.47.038-1.997.288l.923 1.685c.756-.703 1.51-1.48 1.074-1.973z" fill="#1F196B"/></svg>