<!-- by TradingView --><svg width="18" height="18" xmlns="http://www.w3.org/2000/svg"><path fill="#008FBE" d="M0 0h18v18H0z"/><path d="M10.948 9.239c-.15.039-.303.069-.457.09-.41.06-.832.116-1.266.162-.403.043-.8.115-1.189.216-.325.08-.625.22-.88.408a.901.901 0 00-.344.76 1.04 1.04 0 00.142.554c.097.16.23.302.393.418.175.12.377.212.594.267.213.06.435.09.66.09.359.002.716-.045 1.058-.14a2.77 2.77 0 00.88-.418c.526-.392.818-.963.796-1.556V9.033h-.03a.57.57 0 01-.357.206z" fill="#fff"/><path d="M9 4a5 5 0 100 10A5 5 0 009 4zm1.2 8.697c-1.145.386-2.493.274-3.51-.396 0 0-1.49-1.086-.433-2.4.91-1.12 2.597-1.098 3.914-1.261 1.062 0 1.542-.914 1.092-1.897a1.273 1.273 0 00-.45-.504 1.803 1.803 0 00-.667-.258c-.785-.125-1.646-.113-2.316.366a2.137 2.137 0 00-.703 1.152c-.072.228-.198.348-.426.337a.432.432 0 01-.45-.385c.07-.655.438-1.31.96-1.71.638-.484 1.466-.644 2.251-.643.594.002 1.245.157 1.74.487 1.139.783.986 1.812 1.013 3.415.026 1.603-.206 3.089-2.014 3.697z" fill="#fff"/></svg>