<!-- by TradingView --><svg width="18" height="18" xmlns="http://www.w3.org/2000/svg"><path fill="#00B0B9" d="M0 0h18v18H0z"/><path d="M11.99 8.925l2.09-1.17-4.78-2.49v2.33l2.69 1.33zM6.154 8.92L8.7 7.595v-2.33l-4.78 2.49L6.153 8.92zm-2.572 1.325l1.96-1.004-1.96-1.005v2.01zm8.124 1.49v-2.33L9 8.075 6.767 9.24l4.938 2.495zm.595 0l2.113-1.17v-2.33L12.3 9.405v2.33zm-6.146.156l2.234-1.165L6.153 9.56 3.92 10.726l2.234 1.165zm5.71.578L9 11.046l-2.72 1.419a.276.276 0 01-.253 0l-2.902-1.514A.225.225 0 013 10.755V7.726c0-.083.05-.159.13-.199l5.745-2.996a.275.275 0 01.252 0l5.746 2.998c.079.04.127.116.127.197v3.029c0 .08-.048.156-.125.196l-2.758 1.518a.276.276 0 01-.253 0z" fill="#fff"/></svg>