<!-- by TradingView --><svg xmlns="http://www.w3.org/2000/svg" width="18" height="18" viewBox="0 0 18 18"><path fill="#F0F3FA" d="M0 0h18v18H0z"/><ellipse cx="4.47" cy="11.72" rx=".97" ry=".96" fill="url(#a2ffpsthw)"/><ellipse cx="13.53" cy="6.6" rx=".97" ry=".96" fill="url(#b2ffpsthw)"/><path d="M7.28 7.44c-.21-.28-.6-.37-.94-.47a1.01 1.01 0 0 1-.74-.96C5.6 5.45 6.07 5 6.65 5c.59 0 1.06.45 1.06 1 0 .34-.02.7.19.97l2.86 3.67c.18.23.5.3.8.36.47.1.84.5.84 1 0 .55-.47 1-1.05 1-.59 0-1.06-.45-1.06-1 0-.33.02-.68-.19-.94L7.28 7.44Z" fill="url(#c2ffpsthw)"/><path d="M6.78 10.56c-.24-.33-.7-.41-1.09-.57a.94.94 0 0 1-.57-.86c0-.51.42-.93.94-.93.51 0 .93.42.93.93 0 .33-.03.7.15.98.24.37.5.7.92.7l.1.01a.93.93 0 0 1-.1 1.86.93.93 0 0 1-.94-.93c0-.33.03-.7-.17-.96l-.17-.23Z" fill="url(#d2ffpsthw)"/><path d="M10.99 8c-.25-.33-.71-.41-1.1-.57a.94.94 0 0 1-.57-.86c0-.51.42-.93.94-.93s.94.42.94.93c0 .33-.03.7.15.98.24.37.5.7.92.7l.1.01a.93.93 0 0 1-.1 1.86.93.93 0 0 1-.94-.93c0-.33.03-.7-.17-.96L10.99 8Z" fill="url(#e2ffpsthw)"/><defs><linearGradient id="a2ffpsthw" x1="5.44" y1="11.3" x2="3.76" y2="12.26" gradientUnits="userSpaceOnUse"><stop offset=".08" stop-color="#D1DAF1"/><stop offset=".59" stop-color="#2378BF"/><stop offset="1" stop-color="#0565B2"/></linearGradient><linearGradient id="b2ffpsthw" x1="14.5" y1="6.18" x2="12.82" y2="7.14" gradientUnits="userSpaceOnUse"><stop offset=".08" stop-color="#D1DAF1"/><stop offset=".59" stop-color="#2378BF"/><stop offset="1" stop-color="#0565B2"/></linearGradient><linearGradient id="c2ffpsthw" x1="10.44" y1="7.86" x2="8.14" y2="9.64" gradientUnits="userSpaceOnUse"><stop stop-color="#F3F6FB"/><stop offset=".39" stop-color="#839ED3"/><stop offset=".73" stop-color="#086AB6"/><stop offset="1" stop-color="#0960A7"/></linearGradient><linearGradient id="d2ffpsthw" x1="7.88" y1="9.8" x2="6.59" y2="10.82" gradientUnits="userSpaceOnUse"><stop stop-color="#F3F6FB"/><stop offset=".39" stop-color="#839ED3"/><stop offset=".73" stop-color="#086AB6"/><stop offset="1" stop-color="#0960A7"/></linearGradient><linearGradient id="e2ffpsthw" x1="12.09" y1="7.24" x2="10.79" y2="8.26" gradientUnits="userSpaceOnUse"><stop stop-color="#F3F6FB"/><stop offset=".39" stop-color="#839ED3"/><stop offset=".73" stop-color="#086AB6"/><stop offset="1" stop-color="#0960A7"/></linearGradient></defs></svg>