<!-- by TradingView --><svg width="18" height="18" xmlns="http://www.w3.org/2000/svg"><path fill="#0093C9" d="M0 0h18v18H0z"/><path d="M5.264 4.006c-.145.159-.347.376-.564.607.318.723 1.2 1.75 2.067 2.4.246-.202.42-.404.622-.607C6.753 5.9 5.8 5.09 5.293 4.02c.014-.014-.015-.028-.03-.014z" fill="#fff"/><path d="M4.454 4.888c-.145.159-.29.318-.42.448-.028.03-.043.072-.028.101.115.767.838 1.793 1.75 2.444.462-.246.606-.434.737-.607-.796-.651-1.707-1.678-2.04-2.386.015 0 0 0 0 0z" fill="#949598"/><path d="M11.727 8.734c-2.719 1.836-2.762 4.439-2.415 5.928v.015c0 .014.015 0 .015 0 .028-.188.043-.853.303-1.663.347-1.084 1.258-2.473 2.849-3.673-.29-.216-.579-.448-.752-.607zM6.507 7.274c-.246.202-.491.433-.752.621 1.59 1.186 2.213 2.372 2.502 3.47.144.579.188 1.186.202 1.692.376-1.605.853-3.745-1.952-5.783z" fill="#54565A"/><path d="M10.83 7.881c-.303.246-.795.65-1.04.94-.261.318-.463.694-.594 1.084 0 .015-.014 0-.014 0-.029-1.229-.405-2.067-.94-2.704-.246-.303-.535-.55-.839-.795-.202.203-.404.405-.621.607 1.503 1.128 2.371 2.27 2.299 4.237v.29c.332-1.172 1.084-2.155 2.371-3.066-.231-.203-.42-.39-.622-.593z" fill="#66BEDF"/><path d="M12.883 5.712l-.101-.101c-.014-.015-.058-.015-.058.014-.477 1.085-1.258 1.75-1.894 2.256.203.217.362.42.622.607.91-.636 1.62-1.518 1.923-2.255-.188-.203-.362-.376-.492-.52z" fill="#fff"/><path d="M13.62 6.507c-.303.723-1.04 1.605-1.893 2.227.188.188.26.29.751.607.94-.665 1.519-1.547 1.59-2.313a.205.205 0 00-.028-.087 6.14 6.14 0 01-.42-.434z" fill="#949598"/></svg>