<!-- by TradingView --><svg width="18" height="18" xmlns="http://www.w3.org/2000/svg"><path fill="#E20F38" d="M0 0h18v18H0z"/><path d="M8.238 7.872c0-.002 0-.002 0 0H7.144c.196.214.384.458.636.458a.446.446 0 00.278-.096l.344.644V8.04a.168.168 0 00-.164-.168zM9.768 7.87h-.006a.169.169 0 00-.164.17v.836l.344-.646a.455.455 0 00.276.094c.252 0 .438-.242.634-.454H9.768z" fill="#fff"/><path d="M9 4C6.242 4 4 6.244 4 9s2.244 5 5 5 5-2.244 5-5-2.244-5-5-5zm4.588 4.39a5.047 5.047 0 00-1.834-1.496.878.878 0 00-.066-.502c.56.154 1.088.412 1.558.764.168.388.284.802.342 1.234zm-.708-1.912a4.966 4.966 0 00-1.888-.594v.002a.875.875 0 00-.78.318l-.356-.298a4.639 4.639 0 012.02-.528c.392.31.73.682 1.004 1.1zm-1.484.276a.493.493 0 01-.128.334l-.77-.646a.504.504 0 01.898.312zm0-1.712a5.012 5.012 0 00-1.844.606l-.264-.222 1.03-.864c.382.114.744.276 1.078.48zM9 4.372c.298 0 .588.028.872.082L9 5.184l-.872-.73c.282-.054.574-.082.872-.082zm-1.32.19l1.03.864-.264.222a4.975 4.975 0 00-1.844-.606 4.581 4.581 0 011.078-.48zm-1.558.816c.706.02 1.398.2 2.02.528l-.364.304a.87.87 0 00-.82-.32 4.98 4.98 0 00-1.838.588c.272-.418.612-.79 1.002-1.1zm.924.874c.016-.002.032-.002.05-.002a.5.5 0 01.4.198l-.772.646a.503.503 0 01.306-.838l.016-.004zm-2.292.904c.464-.35.988-.608 1.544-.762a.86.86 0 00-.066.504A5.035 5.035 0 004.41 8.39c.058-.432.176-.846.344-1.234zm-.382 1.966a4.661 4.661 0 012-1.878c.02.03.044.06.068.088l-.052.044c-.102.086-.2.174-.292.266h-.002l-.006.006-.008.01a4.984 4.984 0 00-1.438 2.906 4.645 4.645 0 01-.27-1.442zm1.498 3.286a4.651 4.651 0 01-.896-1.126l-.002-.076c0-.934.28-1.83.79-2.586.014.17.06.336.136.486a5.017 5.017 0 00-.028 3.302zm.962.68a4.751 4.751 0 01-.366-.216 4.577 4.577 0 01-.492-2.076c0-.452.064-.896.192-1.324.072.068.15.13.238.18l.022.012c.176.1.318.242.418.41a5.012 5.012 0 00-.012 3.014zm3.864.218a4.604 4.604 0 01-1.698.322c-.6 0-1.172-.114-1.698-.322a4.614 4.614 0 01-.272-2.398c.062.306.252.568.508.726.024.78.25 1.464 1.402 1.464h.114c1.15 0 1.376-.682 1.402-1.462.258-.158.448-.42.512-.728.034.23.052.462.052.696a4.532 4.532 0 01-.322 1.702zm-2.778-1.528a.905.905 0 00.148.014h.03a1.073 1.073 0 00.902-.48 1.076 1.076 0 00.902.48h.03c.05-.002.098-.006.146-.014-.046.63-.266.948-1.022.948H8.94c-.756.002-.976-.318-1.022-.948zm2.702-1.134v.042a.73.73 0 01-.696.736.716.716 0 01-.734-.652c.142-.134.28-.258.414-.368A2.247 2.247 0 009 10.318c-.206 0-.408.03-.602.084.132.112.272.236.414.37a.703.703 0 01-.214.45.708.708 0 01-.52.202.73.73 0 01-.696-.736v-.042H7.38a1.508 1.508 0 00-.754-1.294c-.004-.002-.008-.004-.012-.008l-.002-.002-.014-.008a.95.95 0 01-.464-.814.94.94 0 01.222-.608c.088-.086.18-.17.276-.252l2.374-1.992 2.366 1.992c.09.076.178.156.262.238l.01.01a.944.944 0 01-.24 1.424l-.014.008-.004.002-.012.006c-.462.268-.75.762-.754 1.296zm.91 2.23a5.057 5.057 0 01-.362.214 5.006 5.006 0 00-.016-3.016c.1-.166.242-.308.418-.408l.022-.012c.086-.052.166-.112.238-.18.128.428.192.872.192 1.324a4.58 4.58 0 01-.492 2.078zm1.496-1.592c-.24.422-.544.802-.9 1.13a5.034 5.034 0 00.268-1.616c0-.58-.098-1.148-.294-1.69.076-.152.122-.316.136-.488.512.756.792 1.654.792 2.588-.002.026-.002.05-.002.076zm-1.414-3.906l-.06-.05a.893.893 0 00.066-.086 4.667 4.667 0 012.008 1.882c-.014.504-.108.99-.27 1.442a5 5 0 00-1.744-3.188z" fill="#fff"/></svg>