<!-- by TradingView --><svg width="18" height="18" xmlns="http://www.w3.org/2000/svg"><path fill="#007D55" d="M0 0h18v18H0z"/><path d="M8.696 4.316c-.224.246-1.02 2.049-1.79 4.024-1.84 4.642-2.064 5.062-2.71 5.383-.448.197-.175.271 1.317.247 1.02 0 1.617-.074 1.318-.124-.97-.123-1.119-.642-.621-2.074l.447-1.333h3.705l.423.889c.941 2.667.57 2.298 0 2.518-.448.173.074.148 1.566.148 1.766.025 1.915-.024 1.368-.296-.45 0-.995-1.235-2.487-4.913-1.044-2.544-1.94-4.692-2.014-4.766-.074-.074-.323.074-.522.297zm.647 3.456c.348.84.646 1.655.646 1.803 0 .148-.646.247-1.517.247-1.119 0-1.492-.074-1.417-.321.075-.149.398-1.037.721-1.95.323-.915.671-1.581.746-1.482.1.098.472.864.82 1.703z" fill="#fff"/></svg>