<!-- by TradingView --><svg xmlns="http://www.w3.org/2000/svg" width="18" height="18"><path fill="url(#amzbcamxg)" d="M0 0h18v18H0z"/><path d="M5 13h2.38A9.6 9.6 0 019.6 9.79l1.07 2.92H9.7V13h3.44v-.29h-.93l-1.44-3.76c.5-.42 2.18-1.58 4.24-2.07-.63-.01-2.4.23-4.4 1.3L9.03 4l-3.17 8.71H5V13zm1.64-1.4l1.83-4.94.86 2.33c-.49.34-1.71 1.34-2.7 2.6z" fill="url(#bmzbcamxg)"/><defs><linearGradient id="amzbcamxg" x1="3.35" y1="3.12" x2="21.9" y2="24.43" gradientUnits="userSpaceOnUse"><stop stop-color="#1A1E21"/><stop offset="1" stop-color="#06060A"/></linearGradient><linearGradient id="bmzbcamxg" x1="10" y1="4" x2="10" y2="13" gradientUnits="userSpaceOnUse"><stop stop-color="#fff"/><stop offset="1" stop-color="#BABBC0"/></linearGradient></defs></svg>