<!-- by TradingView --><svg width="18" height="18" xmlns="http://www.w3.org/2000/svg"><path fill="#EAE4E1" d="M0 0h18v18H0z"/><path d="M14.441 8.89c0 2.928-2.439 5.301-5.448 5.301-3.01 0-5.449-2.373-5.449-5.3 0-2.929 2.44-5.302 5.449-5.302S14.44 5.962 14.44 8.89z" fill="#F8F5F5"/><path fill-rule="evenodd" d="M8.993 14.06c2.94 0 5.317-2.318 5.317-5.17s-2.377-5.17-5.317-5.17c-2.94 0-5.318 2.318-5.318 5.17s2.378 5.17 5.318 5.17zm0 .131c3.009 0 5.448-2.373 5.448-5.3 0-2.929-2.439-5.302-5.448-5.302-3.01 0-5.449 2.373-5.449 5.301s2.44 5.301 5.449 5.301z" fill="#577F73"/><path d="M6.09 12.277c.736-1.62 2.81-7.215 2.81-7.215h.294c.932 2.405 2.857 7.245 3.092 7.362.236.118.442.148.59.148.343 0 .365.294.147.294h-2.504c-.071 0-.147-.294 0-.294s.24-.104.24-.148l-1.86-5.3-1.914 5.3s-.147.148.589.148c.115 0 .115.294 0 .294H5.218c-.147 0-.115-.294 0-.294.282 0 .727.024.871-.295z" fill="#7C7C7F"/><path d="M9.963 10.068H7.754l.147-.441h1.915l.147.441z" fill="#7C7C7F"/><path d="M9.103 14.78V3h-.131v11.78h.13z" fill="#577F73"/><path fill-rule="evenodd" d="M12.838 5.193H5.295v7.542h7.543V5.193zm-7.674-.131v7.804h7.805V5.062H5.164z" fill="#577F73"/><path d="M12.821 12.802L5.228 5.21l.084-.084 7.593 7.594-.084.083z" fill="#577F73"/><path fill-rule="evenodd" d="M5.228 12.832l7.594-7.594-.084-.083-7.593 7.593.083.084zM8.55 5.553a.196.196 0 100-.393.196.196 0 000 .393zm0 .098a.295.295 0 100-.59.295.295 0 000 .59zM9.537 5.556a.196.196 0 100-.393.196.196 0 000 .393zm0 .098a.295.295 0 100-.59.295.295 0 000 .59zM10.466 12.563a.196.196 0 100-.393.196.196 0 000 .393zm0 .098a.294.294 0 100-.589.294.294 0 000 .589zM7.231 12.53a.196.196 0 100-.392.196.196 0 000 .393zm0 .099a.294.294 0 100-.589.294.294 0 000 .589zM12.707 12.539a.564.564 0 100-1.13.564.564 0 000 1.13zm0 .098a.663.663 0 100-1.326.663.663 0 000 1.326z" fill="#577F73"/><path fill-rule="evenodd" d="M5.532 12.547a.564.564 0 100-1.129.564.564 0 000 1.13zm0 .098a.663.663 0 100-1.325.663.663 0 000 1.325z" fill="#577F73"/></svg>