<!-- by TradingView --><svg width="18" height="18" xmlns="http://www.w3.org/2000/svg"><path fill="#101E40" d="M0 0h18v18H0z"/><path d="M4.885 5.673c.085 3.357 2.099 5.329 2.788 5.399.04.004-.044-.074-.044-.074-.825-.652-2.214-1.861-2.362-5.327l-.382.002z" fill="#FFB608"/><path d="M11.455 10.978v-.343l-.345-.279.114.092c.13.073.2.153.2.235a.234.234 0 01-.026.127 5.55 5.55 0 01-1.072.373.214.214 0 00-.186-.077c-.164 0-.362.187-.388.214a.19.19 0 00-.237-.08l-.033.014.016.032c.01.025.018.05.023.075a.36.36 0 00-.209-.24.688.688 0 00-.34-.01.409.409 0 00-.18.115.162.162 0 00-.065-.014.265.265 0 00-.17.107.021.021 0 01-.009.007.055.055 0 01-.017-.019.261.261 0 00-.137-.108.585.585 0 00-.205-.02.362.362 0 00-.102.025.466.466 0 01-.16.02.601.601 0 01-.141-.018 5.654 5.654 0 01-1.153-.397.162.162 0 01-.037-.13l-.041-.045c-.025.05-.047.102-.066.154-.123-.062-.295-.133-.412-.202l-.11.091c.045.07.093.137.146.2.07.044.136.019.182.031a.31.31 0 01.139.093c.055.052.105.108.15.169.075.107.19.169.34.253.065.042.14.066.218.068a.469.469 0 01.12.02.24.24 0 01.111.085c.062.07.138.127.222.169a.86.86 0 00.179.068.289.289 0 01.098.041.37.37 0 01.1.126.33.33 0 00.095.117c.059.04.127.064.198.07 0 .151.072.237.196.24 0 .126.051.148.115.162a.14.14 0 00.021.097.085.085 0 00.047.033v.006a.196.196 0 00.023.141.085.085 0 00.066.027c.01.019.025.038.037.057a.67.67 0 01.153.422c-.007.136-.04.269-.096.393a.927.927 0 00-.086.316c0 .09.016.18.046.266v.01c-.092-.104-.14-.317-.142-.638.002-.238.03-.475.085-.707a.04.04 0 010-.012c.01-.05-.01-.078-.032-.085-.023-.006-.063 0-.096.053-.13.268-.2.561-.204.858 0 .36.11.697.262.825h.333a.384.384 0 00.094-.132.782.782 0 00.026-.203c.02-.103.046-.205.079-.306.058-.132.105-.27.14-.41 0 .009.006.019.008.027.028.114.05.23.066.346 0 .029.015.106.065.106.049.001.066-.072.071-.103a2.346 2.346 0 00-.015-.518.517.517 0 00-.03-.101.876.876 0 01-.068-.361c.003-.114.015-.227.037-.338.008-.04.013-.072.016-.095a.235.235 0 00-.022-.135.152.152 0 00.048 0 .136.136 0 00.029-.011.041.041 0 01.018-.004c.01.024.014.05.01.077v.018a.452.452 0 000 .144c.008.03.02.059.038.085.017.023.027.05.031.077v.02c.032.182-.042.987-.065 1.107-.01.05-.017.092-.023.13a.767.767 0 01-.029.137l-.043.066c-.06.085-.141.205-.145.302a.2.2 0 00.03.085h.626a.326.326 0 00.038-.063.128.128 0 00-.05-.145.641.641 0 00-.094-.06c-.05-.03-.107-.062-.109-.093a.212.212 0 01.039-.1.26.26 0 00.044-.11.095.095 0 00-.037-.086c-.011-.012-.014-.015-.01-.038a.61.61 0 01.022-.07c.132-.373.214-.763.242-1.158a.878.878 0 00-.085-.422.06.06 0 00.035.02.067.067 0 00.05-.024c.08-.09.13-.201.145-.32l.017-.075a.32.32 0 01.06-.023.683.683 0 00.204-.09c.081-.066.154-.14.218-.222a.728.728 0 01.114-.12.112.112 0 01.074.006.275.275 0 00.119.012c.201-.03.496-.302.71-.506.075-.07.125-.15.17-.181a.419.419 0 01.232-.063c.027-.008.085-.01.106-.035.045-.052.135-.297.368-.452l-1.152.735zm-2.237 1.357c-.06.004.056.048.05.132-.004.053-.058.076-.112.084-.053.008.014.037.033.07.027.046-.036.09-.103.094a1.532 1.532 0 01-.216 0c-.072-.01-.059-.052-.019-.064.04-.011.1-.023.15-.043.085-.032.03-.052.006-.056-.025-.004-.096-.014-.185-.033-.058-.014-.075-.06-.058-.092.01-.018.036-.023.062-.025.076-.004.153-.012.229-.024.057-.013.085-.07 0-.077-.064-.005-.185 0-.303-.017a.378.378 0 01-.272-.146c-.075-.09-.085-.281-.157-.391a.255.255 0 00-.197-.115.196.196 0 00-.102.019c-.023.01-.025.02 0 .032.07.032.081.148.066.144a1.22 1.22 0 00-.442-.243.853.853 0 01-.192-.117c-.035-.02-.17-.114-.227-.112a.336.336 0 01-.352-.197c-.032-.055.043-.034.066-.025.12.076.248.137.382.182.17.053.23.036.36.085.09.036.164.146.263.142.117-.005.126-.072.294-.099a.714.714 0 01.175.008c.08.025.077.035.116.035.054 0 .107-.04.139-.043a.047.047 0 01.034.011.046.046 0 01.016.032c0 .02-.007.105-.004.141a.234.234 0 00.126.224.565.565 0 00.262.09v.095a1.584 1.584 0 01-.164-.026c-.018 0-.026 0-.03.01-.003.009-.012.04.016.05.028.008.091.02.113.03.022.01.062.07.09.093.028.023.05.016.047-.02a.058.058 0 01.015-.047.059.059 0 01.048-.018c.086 0 .166.006.166.111 0 .106-.091.108-.189.116zm1.43-1.028a.478.478 0 00-.283.092c-.008.007-.015.017-.025.025-.031.027-.037.01-.04 0-.002-.01-.029-.032-.053.01-.123.214-.213.267-.34.32-.03.014-.04.012-.032-.011a.61.61 0 00.027-.162.393.393 0 00-.034-.15c-.007-.017-.023-.026-.006-.031a.694.694 0 01.287-.076c.071 0 .085.048.114.054.029.007.034-.015.04-.025a.197.197 0 01.133-.084.444.444 0 01.212.017c.019.011.014.02 0 .02z" fill="#FFB608"/><path d="M3 5.663c0 .986 1.054 5.82 6.037 5.82 4.636 0 5.963-4.4 5.963-5.82h-.204c0 .887-1.04 5.676-5.77 5.676-3.957 0-5.799-3.671-5.799-5.676H3z" fill="#FFB608"/><path d="M7.372 5.663c.121 3.222.814 5.315 1.222 5.405.042.01-.062-.243-.062-.243-.269-.8-.48-1.73-.692-5.164l-.468.002zM10.675 5.663c-.121 3.222-.814 5.315-1.222 5.405-.04.01.061-.243.061-.243.269-.8.48-1.73.694-5.164l.467.002zM13.128 5.673c-.085 3.357-2.099 5.329-2.789 5.399-.04.004.043-.074.043-.074.826-.652 2.215-1.861 2.364-5.327l.382.002z" fill="#FFB608"/><path d="M3.697 7.8C3.99 6.888 7.21 6.199 8.95 6.199c1.967 0 5.281.801 5.326 1.547l-.056.299C14.078 7.2 11.323 6.57 8.938 6.57c-2.137 0-5.016.56-5.13 1.491l-.11-.261zM4.799 9.496c.31-.866 2.42-1.198 4.16-1.198 1.967 0 4.216.472 4.263 1.218l-.141.214C13.014 8.9 11.32 8.53 8.94 8.53c-2.137 0-3.783.338-4.004 1.192l-.137-.227zM6.465 10.792c.066-.606 1.278-.872 2.494-.872 1.101 0 2.617.163 2.56.881l-.113.102c.16-.353-.395-.788-2.467-.788-2.136 0-2.38.471-2.352.732l-.122-.055z" fill="#FFB608"/></svg>