<!-- by TradingView --><svg xmlns="http://www.w3.org/2000/svg" width="18" height="18" viewBox="0 0 18 18"><path fill="#1C558C" d="M0 0h18v18H0z"/><path d="M3.5 10a1.5 1.5 0 1 0 0-3 1.5 1.5 0 0 0 0 3Z" fill="#F58220"/><path d="M7.43 10a1.18 1.18 0 0 0 1.1-.73 1.2 1.2 0 0 0-.86-1.64 1.18 1.18 0 0 0-1.22.51A1.2 1.2 0 0 0 7.43 10Z" fill="#F89848"/><path d="M10.6 10a.88.88 0 0 0 .82-.55.9.9 0 0 0-.65-1.22.88.88 0 0 0-.91.38.9.9 0 0 0 .74 1.4Z" fill="#FAB072"/><path d="M13.24 10a.66.66 0 0 0 .62-.41.68.68 0 0 0-.49-.92.66.66 0 0 0-.68.29.68.68 0 0 0 .55 1.04Z" fill="#FDC99B"/><path d="M15.5 10a.5.5 0 0 0 .46-.3.51.51 0 0 0-.1-.56.5.5 0 0 0-.86.36.5.5 0 0 0 .3.47.5.5 0 0 0 .2.03Z" fill="#FEDCBD"/></svg>