<!-- by TradingView --><svg width="18" height="18" xmlns="http://www.w3.org/2000/svg"><path fill="url(#paint0_linear)" d="M0 0h18v18H0z"/><path d="M8.018 14h1.827c.77 0 1.368-.445 1.54-1.289L12.837 4.8c.129-.578-.256-.8-.77-.8h-.213c-.514 0-.685.178-.77.667l-1.326 7.066c-.08.329-.234.53-.875.53-.547 0-.701-.204-.78-.53L6.778 4.667C6.693 4.177 6.522 4 6.008 4h-.213c-.514 0-.899.222-.77.8l1.454 7.911c.17.844.77 1.289 1.54 1.289z" fill="#fff"/><defs><linearGradient id="paint0_linear" x1="3.349" y1="3.122" x2="21.904" y2="24.434" gradientUnits="userSpaceOnUse"><stop stop-color="#1A1E21"/><stop offset="1" stop-color="#06060A"/></linearGradient></defs></svg>