<!-- by TradingView --><svg xmlns="http://www.w3.org/2000/svg" width="18" height="18" viewBox="0 0 18 18"><path fill="#F0F3FA" d="M0 0h18v18H0z"/><ellipse cx="6.34" cy="5.26" rx=".61" ry=".59" fill="#00B7AE"/><ellipse cx="10.42" cy="6.79" rx=".75" ry=".73" fill="#006571"/><ellipse cx="9.35" cy="9.67" rx=".61" ry=".59" fill="#006571"/><ellipse cx="4.58" cy="8.47" rx=".58" ry=".56" fill="#006571"/><ellipse cx="7.47" cy="10.76" rx=".58" ry=".56" fill="#01B6AD"/><ellipse cx="5.42" cy="12.07" rx=".72" ry=".7" fill="#01B6AD"/><ellipse cx="6.89" cy="13.61" rx=".4" ry=".39" fill="#01B6AD"/><ellipse cx="9.55" cy="12.44" rx=".58" ry=".56" fill="#82C539"/><ellipse cx="7.96" cy="7.72" rx=".38" ry=".36" fill="#00B7AE"/><ellipse cx="8.97" cy="4.39" rx=".4" ry=".39" fill="#00B7AE"/><ellipse cx="11.43" cy="8.83" rx=".38" ry=".36" fill="#82C539"/><ellipse cx="13.62" cy="11.18" rx=".38" ry=".36" fill="#82C539"/><ellipse cx="12.12" cy="12.24" rx=".72" ry=".7" fill="#82C539"/><path d="m8.92 4.43-2.2.8-.07-.18 2.2-.8.07.18ZM7.76 7.6 6.4 5.69l.17-.12L7.93 7.5l-.17.12Z" fill="#01B7A8"/><path d="m9.46 9.21.75-1.87.18.08-.75 1.87-.18-.08Z" fill="#006571"/><path d="m11.9 11.67-.51-2.54.2-.04.51 2.54-.2.04ZM12.61 11.8l.7-.53.11.16-.69.53-.12-.16Z" fill="#80C43F"/><path d="m10 12.28 1.48-.08.01.2-1.47.08-.01-.2Z" fill="#82C539"/><path d="m4.95 8.46 3.87 1-.05.2L4.9 8.65l.05-.2Z" fill="#006571"/><path d="m5.88 11.65 1.1-.7.1.17-1.09.7-.1-.17ZM5.92 12.48l.84.83-.14.15-.84-.84.14-.14Z" fill="#01B6AD"/></svg>