<!-- by TradingView --><svg width="18" height="18" xmlns="http://www.w3.org/2000/svg"><path fill="gold" d="M0 0h18v18H0z"/><path d="M14.277 11.108c.036.042.1-.009.072-.05l-4.161-6.73-.784-1.27A.143.143 0 009.287 3a.107.107 0 00-.1.076L8.054 6.608c-.18.555.27 1.11.882 1.11h1.135c.658 0 1.289.27 1.721.732l2.486 2.658z" fill="#08090D"/><path d="M7.27 6.835l.882-2.75c.018-.05-.054-.076-.081-.034l-5.054 8.167c-.036.059-.009.1.018.126.027.025.072.05.135.025l.019-.008 4.485-1.54c.54-.184.766-.773.478-1.236L7.476 8.51a2.027 2.027 0 01-.207-1.674z" fill="#08090D"/><path d="M14.88 12.992c.064 0 .1-.043.109-.068.009-.025.027-.067-.018-.117l-3.378-3.609c-.415-.445-1.18-.378-1.495.135l-.64 1.043c-.27.429-.685.757-1.19.934l-4.692 1.606a.043.043 0 00.018.084l11.287-.008z" fill="#08090D"/></svg>