<!-- by TradingView --><svg width="18" height="18" xmlns="http://www.w3.org/2000/svg"><path fill="#00285F" d="M0 0h18v18H0z"/><path d="M14 12c-.453.012-1.117.007-1.57 0V6.88c0-.865-.176-1.625-.764-2.133-.73-.633-1.722-.726-2.629-.744a8.998 8.998 0 00-3.463.59c.11.574.249 1.141.399 1.704 1.08-.284 2.205-.441 3.315-.282.363.057.627.283.707.704L10 8.446c-1.394.155-2.726.218-3.929 1.075-1.02.709-1.359 2.27-.81 3.411.409.824 1.358 1.101 2.175 1.065 1.082-.02 1.824-.692 2.564-1.483.052.367.298.755.543 1.043.223.28.577.376.906.41.921.085 1.843-.313 2.551-.925V12zm-4-.395c-.773.25-1.449.666-2.26.357-.625-.277-.56-1.294-.041-1.657.718-.535 1.465-.522 2.301-.654v1.954z" fill="#DA343F"/></svg>