<!-- by TradingView --><svg width="18" height="18" xmlns="http://www.w3.org/2000/svg"><path fill="#1D2B93" d="M0 0h18v18H0z"/><path d="M14 13h-2.374s.374-.146.374-.761V8.875c0-.641-.42-.893-.912-1.04-.414-.122-.936.01-1.241.176-.57.26-1.335.577-1.847.864V5.791c0-.531-.247-.511-.36-.666L10 4v3.375c.754-.298 1.88-.876 2.875-.51.437.16 1.125.705 1.125 1.407V13z" fill="#fff"/><path d="M10 11.879C10 12.364 9.76 13 9.127 13H8V8.874h1.056c.524 0 .946.276.944.958v2.047zM6 12.999H3c.429-.632 2.532-4.242 3-6.75V13z" fill="#fff"/></svg>