<!-- by TradingView --><svg width="18" height="18" xmlns="http://www.w3.org/2000/svg"><path fill="#0E5640" d="M0 0h18v18H0z"/><path d="M6.5 3v3.84s.037-.064.067-.086c1.018-.805 2.176-1.113 3.458-.872 1.717.321 3.007 1.582 3.32 3.262.265 1.407-.137 2.633-1.157 3.654a3.947 3.947 0 01-2.496 1.18C7.31 14.194 4.987 12.585 5 9.86 5.011 7.573 5 3 5 3h1.5zm2.733 4.151c-1.532 0-2.8 1.234-2.8 2.725a2.787 2.787 0 002.8 2.785c1.54 0 2.806-1.232 2.82-2.712.02-1.585-1.365-2.83-2.82-2.798z" fill="#fff"/><path d="M7.31 8.504c.415 0 .726.195 1.027.42.272.205.544.407.81.618.084.068.139.062.22-.003a20.89 20.89 0 011.007-.759c.217-.153.457-.237.719-.273.074-.01.12-.01.08.085-.177.442-.11.908-.106 1.364 0 .433-.026.856-.33 1.204a.812.812 0 01-.574.293 5.169 5.169 0 01-.502.01c-.139 0-.272.006-.365.127-.036.045-.068.039-.1-.004-.088-.117-.215-.127-.35-.123-.201.003-.402.023-.596-.023-.382-.088-.606-.358-.722-.716A2.16 2.16 0 017.44 10a10.15 10.15 0 00-.013-1.087c-.013-.134-.09-.257-.116-.41zm.554 1.286c-.003.055-.01.107-.01.162-.003.244-.022.489.078.72.175.407.638.547.972.293.33-.251.44-.912.207-1.26a.396.396 0 00-.434-.173c-.162.046-.262.192-.265.384 0 .069 0 .114.084.062.055-.035.12-.048.181-.006.117.081.104.205.107.322a.224.224 0 01-.133.221c-.184.088-.356-.006-.366-.214-.01-.287 0-.573-.003-.86-.003-.237-.175-.446-.382-.478-.055-.007-.097-.02-.075.068.072.247.023.505.04.759zm2.222.227c.039-.058.006-.097.003-.14-.03-.211-.123-.325-.295-.354-.178-.03-.333.048-.417.23-.153.32-.14.652.025.954.272.495.846.512 1.134.05.09-.147.12-.31.126-.482.016-.42-.061-.844.026-1.264.016-.074-.042-.055-.084-.052a.468.468 0 00-.373.433c-.01.293 0 .586-.006.88-.003.175-.09.276-.233.27-.114-.004-.217-.04-.253-.163-.039-.14-.042-.287.068-.397.09-.088.188-.017.279.035zm-.839 1.39c.185-.201.204-.377.071-.524-.055-.061-.09-.055-.139.004-.12.146-.1.315.068.52zm.8-1.152c.006-.052-.016-.085-.068-.088-.049-.003-.081.023-.084.075-.004.049.013.085.068.088.055 0 .084-.023.084-.075zm-1.503-.091c-.052 0-.08.03-.087.078-.007.049.023.085.074.088.052.003.081-.023.088-.075.003-.055-.026-.081-.075-.091z" fill="#fff"/><path d="M8.132 8.351h2.237c0 .045-.055.085-.084.109-.302.247-.619.482-.92.73-.081.065-.137.075-.22.006-.316-.257-.637-.508-.955-.759-.022-.024-.055-.034-.058-.086z" fill="#fff"/></svg>