<!-- by TradingView --><svg width="18" height="18" xmlns="http://www.w3.org/2000/svg"><path fill="url(#paint0_linear)" d="M0 0h18v18H0z"/><path d="M3 5h2.943c1.611 0 2.73.721 2.73 2.096a1.977 1.977 0 01-.928 1.69c.378.12.707.364.933.692.227.328.34.723.32 1.122 0 1.758-1.455 2.4-3.038 2.4H3V5zm2.965 3.115a.667.667 0 00.672-.455.68.68 0 00.033-.288.657.657 0 00-.455-.659.645.645 0 00-.283-.023H5v1.425h.965zm.168 3.246a.784.784 0 00.812-.508.8.8 0 00.05-.338.777.777 0 00-.507-.78.762.762 0 00-.327-.042H5v1.69l1.133-.022z" fill="#fff"/><path d="M10 8V5h1v3h3V5h1v8h-1V9h-3v4h-1V8z" fill="#00AEEF"/><defs><linearGradient id="paint0_linear" x1="3.349" y1="3.122" x2="21.904" y2="24.434" gradientUnits="userSpaceOnUse"><stop stop-color="#1A1E21"/><stop offset="1" stop-color="#06060A"/></linearGradient></defs></svg>