<!-- by TradingView --><svg width="18" height="18" xmlns="http://www.w3.org/2000/svg"><path fill="#F6F8FD" d="M0 0h18v18H0z"/><path d="M10.24 5.451c1.92 3.82 1.49 6.323 1.035 7.098l3.511-2.223c-.404-1.187-3.51-4.496-4.546-4.875z" fill="#3780AD"/><path d="M1.929 7.37c3.495 3.839 7.693 5.065 9.351 5.175l3.5-2.216c-4.623.303-10.275-2.126-12.851-2.96z" fill="#B7DEF6"/><path d="M14.779 10.33v-.001c-1.008.066-2.066.002-3.13-.147.069 1.174-.148 1.978-.372 2.362h.003a6.6 6.6 0 00.031-.018l3.468-2.196z" fill="#88CAEF"/></svg>