<!-- by TradingView --><svg width="18" height="18" xmlns="http://www.w3.org/2000/svg"><path fill="url(#paint0_linear)" d="M0 0h18v18H0z"/><path d="M13 4.75V4H5.001v2.97a29.627 29.627 0 012.565 2.49A31.291 31.291 0 0113 4.75zM12.999 9.35V8a29.047 29.047 0 00-3.96 4.051c.228.329.495.62.723.949.952-1.314 2.056-2.518 3.237-3.65zM8 10.245c.211.273.458.512.669.785C9.972 9.495 11.415 8.095 13 6.9V5.776a29.24 29.24 0 00-5 4.47zM10 14h3v-3.311c-1.075 1.053-2.104 2.144-3 3.31zM6.322 11.03c.215-.273.465-.546.68-.785C6.357 9.53 5.678 8.88 5 8.232v1.365c.465.444.893.921 1.322 1.433zM5.001 14c.334-.552.667-1.041 1-1.592-.333-.49-.666-.98-1-1.408v3zM8.558 12.666c-.307-.41-.666-.87-.974-1.28-.358.41-.666.82-.973 1.28.358.462.666.872.973 1.333.308-.41.615-.871.974-1.333z" fill="#FAB834"/><defs><linearGradient id="paint0_linear" x1="3.349" y1="3.122" x2="21.904" y2="24.434" gradientUnits="userSpaceOnUse"><stop stop-color="#1A1E21"/><stop offset="1" stop-color="#06060A"/></linearGradient></defs></svg>