<!-- by TradingView --><svg width="18" height="18" xmlns="http://www.w3.org/2000/svg"><path fill="#7CC242" d="M0 0h18v18H0z"/><path d="M2 7.002h1V9h2.003V7h.993v4.996L5.003 12V9.997H3V12H2V7.002zm5.93 3.532c0-.346.163-.52.428-.665.36.34.714.686 1.055 1.066-.238.18-.435.263-.721.263-.383 0-.763-.248-.763-.664zm2.49-1.313c-.012.312-.047.745-.265.988-.265-.264-.538-.52-.817-.77.504-.298 1.061-.58 1.061-1.19 0-.9-.85-1.249-1.68-1.249C7.97 7 7 7.339 7 8.19c0 .421.323.75.706 1.056-.586.277-.934.644-.934 1.315 0 .997.892 1.437 1.798 1.437.518 0 1.068-.06 1.477-.42.102.112.19.288.284.42h1.188l-.675-1.008c.443-.443.653-1.153.68-1.769h-1.103zM8.159 8.25c0-.243.275-.43.569-.43.293 0 .552.146.552.43 0 .319-.32.613-.552.751-.191-.153-.569-.474-.569-.751zM13 8h.863c.47 0 .653.222.653.505 0 .283-.153.495-.653.495H13V8zm-1 3.996h1v-2h1c.068-.002.54.322.775 1.062l.227.938.998.002s-.203-1.047-.338-1.38c-.134-.332-.253-.724-.662-.835.612-.145.662-.664.662-1.347 0-.683-.496-1.436-1.146-1.436H12v4.996z" fill="#fff"/></svg>