<!-- by TradingView --><svg width="18" height="18" xmlns="http://www.w3.org/2000/svg"><path fill="url(#paint0_linear)" d="M0 0h18v18H0z"/><path d="M8.234 6.949c0 .997-.633 1.541-1.288 1.768 1.098.181 1.71.884 1.71 1.971C8.656 12.66 6.546 13 5.237 13H3V5h2.343c.696 0 2.89 0 2.89 1.949zm-1.393.09c0-.951-.675-1.016-1.667-1.016L4.35 6v2.263h.76c.615.004 1.73.01 1.73-1.223zm-2.49 4.918l.844.023c1.287 0 2.068-.25 2.068-1.36 0-1.133-.95-1.314-2.132-1.314h-.78v2.652zm10.122-4.713c0 1.2-.908 1.926-1.689 2.243L15 13h-1.498l-2.068-3.286h-.781V13h-1.33V5h2.237c1.71 0 2.913.748 2.913 2.244zm-3.82 1.45h.654c1.118 0 1.836-.317 1.836-1.382 0-.998-.59-1.312-1.667-1.312h-.823v2.694z" fill="#fff"/><defs><linearGradient id="paint0_linear" x1="3.349" y1="3.122" x2="21.904" y2="24.434" gradientUnits="userSpaceOnUse"><stop stop-color="#1A1E21"/><stop offset="1" stop-color="#06060A"/></linearGradient></defs></svg>