<!-- by TradingView --><svg width="18" height="18" xmlns="http://www.w3.org/2000/svg"><path fill="#17468B" d="M0 0h18v18H0z"/><path d="M9 6.646l-.213 5.9-.931-2.898.485 2.93-1.513-2.435 1.067 2.504-3.744-3.182L7.45 12.77l-2.106-.943L7.036 13C5.463 13 3.579 11.504 3 8.4c0 0 3.363.047 4.486 1.845C7.275 7.713 8.73 5.325 9 5c.27.326 1.725 2.713 1.514 5.245C11.637 8.447 15 8.4 15 8.4 14.421 11.504 12.537 13 10.964 13l1.692-1.171-2.106.942 3.299-3.306-3.744 3.182 1.067-2.504-1.513 2.435.485-2.93-.931 2.898L9 6.646z" fill="#FAB41D"/></svg>