<!-- by TradingView --><svg width="18" height="18" xmlns="http://www.w3.org/2000/svg"><path fill="#EE3524" d="M0 0h18v18H0z"/><path d="M12 13.754a.24.24 0 01-.07.17.259.259 0 01-.174.076H10.22a.24.24 0 01-.163-.079.224.224 0 01-.056-.167v-1.499c0-.129.085-.255.22-.255h1.535a.267.267 0 01.174.081.25.25 0 01.07.174v1.499zM9 10.792c0 .134-.134.209-.262.209H7.254c-.128 0-.255-.075-.255-.21V9.238a.262.262 0 01.082-.171A.244.244 0 017.254 9h1.484c.128 0 .262.103.262.237v1.555zM12 10.79c0 .135-.11.21-.244.21H10.22a.197.197 0 01-.219-.21V9.238A.219.219 0 0110.219 9h1.537a.24.24 0 01.244.237v1.553zM6 7.763A.225.225 0 015.774 8H4.236A.233.233 0 014 7.763V6.209c0-.133.103-.208.236-.208h1.538A.202.202 0 016 6.21v1.554zM9 7.763C9 7.896 8.866 8 8.738 8H7.255a.244.244 0 01-.173-.066A.262.262 0 017 7.763V6.208C7 6.074 7.127 6 7.255 6h1.483c.128 0 .262.074.262.208v1.555zM12 7.763a.24.24 0 01-.243.237H10.22a.219.219 0 01-.219-.237V6.209a.197.197 0 01.219-.207h1.537c.133 0 .243.074.243.207v1.554z" fill="#000"/></svg>