<!-- by TradingView --><svg width="18" height="18" xmlns="http://www.w3.org/2000/svg"><path fill="#0982C6" d="M0 0h18v18H0z"/><path d="M7.037 8.218c.244 0 1.83.747 1.83 3.43 0 1.283-.405 2.352-.643 2.352-.106 0-.146-.112-.146-.328 0-.475.157-.896.157-1.909 0-1.957-.755-2.747-1.093-3.19-.1-.132-.176-.218-.176-.295 0-.032.021-.06.07-.06zm3.997.06c0 .077-.076.163-.176.294-.338.444-1.092 1.234-1.092 3.191 0 1.014.156 1.434.156 1.909 0 .216-.04.328-.145.328-.239 0-.644-1.07-.644-2.352 0-2.683 1.587-3.43 1.831-3.43.05 0 .07.028.07.06z" fill="#fff"/><path d="M8.42 8.755c0 .35.26.634.58.634.32 0 .58-.284.58-.634 0-.351-.26-.634-.58-.634-.32 0-.58.283-.58.634z" fill="#F8971F"/><path d="M5.991 7.752c-.302-.146-.529-.439-.566-.723.225-.158.58-.17.883-.024.317.153.391.412.393.64-.161.149-.392.26-.71.107zm.87-1.708c-.196-.32-.241-.724-.12-1.003.288-.004.616.205.81.524.204.335.13.614.008.821-.227.035-.496-.007-.699-.342zm.45 1.692c-.24-.217-.375-.546-.34-.816.243-.081.57.007.81.224.252.228.256.484.202.692-.183.09-.42.128-.672-.1zm.735-.817c-.104-.357-.045-.752.138-.981.274.078.53.37.634.726.108.374-.032.616-.199.776-.222-.031-.466-.148-.573-.521zM6.78 9.522c-.239.05-.491-.023-.627-.176.071-.197.28-.366.52-.415.25-.052.398.07.49.205-.038.163-.131.334-.383.386zm-.632-.756c-.272-.031-.52-.199-.618-.411.137-.186.414-.293.686-.262.286.033.407.216.463.394-.091.162-.245.312-.531.28zm-.024-2.16c-.214-.194-.334-.486-.303-.726.217-.072.507.006.72.199.224.203.228.43.18.615a.494.494 0 01-.597-.088zM7.58 5.071c-.087-.297-.037-.626.115-.818.228.066.443.309.529.606a.602.602 0 01-.166.647c-.185-.027-.388-.124-.478-.435zM4 12.78c0 .008.005.015.014.015.01 0 .025-.008.043-.015.856-.327 2.119-.729 3.892-.852.002-.017.013-.101.013-.166 0-.137-.015-.28-.02-.304-1.816.178-3.07.74-3.894 1.28-.034.023-.048.028-.048.042zm7.299-5.136c.002-.228.076-.487.393-.64.303-.146.658-.134.883.024-.037.284-.264.577-.566.723-.318.154-.549.042-.71-.107zm-.858-1.259a.746.746 0 01.008-.82c.194-.32.522-.53.81-.525.121.28.075.684-.119 1.003-.203.335-.473.377-.7.342zm-.425 1.45c-.053-.208-.05-.464.203-.692.24-.217.566-.305.81-.224.035.27-.1.6-.34.816a.557.557 0 01-.673.1zM9.38 7.44c-.167-.16-.306-.402-.198-.776.103-.356.36-.648.634-.726.183.23.242.624.138.98-.108.374-.351.49-.574.522zm1.457 1.696c.092-.136.239-.257.49-.205.24.05.448.218.52.415-.135.153-.388.226-.628.176-.25-.052-.345-.223-.382-.386zm.484-.649c.056-.178.177-.36.463-.394.272-.031.548.076.686.262-.097.212-.346.38-.618.411-.286.033-.44-.117-.531-.279zm-.043-1.793a.578.578 0 01.18-.615c.214-.193.504-.271.72-.199.032.24-.088.532-.302.726a.494.494 0 01-.598.088zM9.94 5.506a.602.602 0 01-.165-.647c.086-.297.3-.54.528-.606.154.192.202.52.116.818-.09.311-.293.408-.479.435zm4.012 7.234c-.824-.54-2.078-1.103-3.895-1.28-.004.023-.019.166-.019.303 0 .065.01.15.013.166 1.773.123 3.036.525 3.892.852.018.007.034.015.042.015.01 0 .015-.007.015-.015 0-.014-.015-.019-.048-.041zM9 5.818c-.235-.117-.467-.334-.467-.786 0-.431.19-.846.467-1.032.277.186.467.601.467 1.032 0 .452-.231.67-.467.786z" fill="#56B948"/></svg>