<!-- by TradingView --><svg width="18" height="18" xmlns="http://www.w3.org/2000/svg"><path fill="#027C4B" d="M0 0h18v18H0z"/><path d="M8.08 8.939c.421-.136.421-.765.421-.892C8.501 7.514 8.131 7 7.038 7H5v4h2.033c1.099 0 1.503-.574 1.503-1.15 0-.697-.455-.911-.455-.911zM6 7.999h1.345c.154.029.256.14.256.298 0 .161-.11.295-.27.317H6V8zM7.274 10H6v-.614h1.309c.166.02.292.138.292.305 0 .183-.149.307-.327.309zM13 7h3v1h-2v.538h1.714v.924H14V10h2.016v1H13M11.144 7H9v4h1V9.335l1.07-.001a.556.556 0 01.543.566V11h.958V9.705c0-.598-.468-.775-.468-.775s.468-.176.468-.883c0-.865-.739-1.047-1.427-1.047zm.528 1.368c-.017.132-.148.253-.311.253H10v-.617h1.361c.163 0 .29.119.311.277M4.536 9.998l-1.595.004c-.687-.072-.935-.597-.935-1.04 0-.552.354-.85.901-.927C3.167 8 4.521 8 4.536 8V7H2.889c-.18.012-.477.034-.781.167a1.941 1.941 0 00-.738.635c-.242.347-.37.76-.37 1.192 0 .136.01.27.03.4a1.93 1.93 0 001.025 1.378c.18.085.46.187 1.022.22L3.38 11 4.536 11V9.998z" fill="#fff"/></svg>