<!-- by TradingView --><svg xmlns="http://www.w3.org/2000/svg" width="18" height="18"><path fill="#FFBF25" d="M0 0h18v18H0z"/><path fill-rule="evenodd" d="M3.16 8.46a1 1 0 000 1.08l2.54 4a1 1 0 00.84.46h4.92a1 1 0 00.84-.46l2.55-4a1 1 0 000-1.08l-2.55-4a1 1 0 00-.84-.46H6.54a1 1 0 00-.84.46l-2.54 4zM7.7 6a.71.71 0 000 1.43h2.58a.71.71 0 100-1.43H7.7zm-1 2.29a.71.71 0 100 1.42h4.58a.71.71 0 100-1.42H6.7zm.29 3c0-.4.32-.72.71-.72h2.58a.71.71 0 110 1.43H7.7a.71.71 0 01-.71-.71z" fill="#fff"/></svg>