<!-- by TradingView --><svg width="18" height="18" xmlns="http://www.w3.org/2000/svg"><path fill="#A22928" d="M0 0h18v18H0z"/><path d="M8.917 12.803c-1.32-.006-2.091-.225-2.064-1.8 1.156.357.943 1.483 2.064 1.8zM7.768 6.621c-.901.788-1.81.047-2.656.821.668-1.099 1.246-1.635 2.656-.82z" fill="#fff"/><path d="M5.147 7.085C5.319 5.88 4.54 5.225 6.433 4c.867 1.542-.578 1.8-1.286 3.085zm1.465.271c-.371 1.119-1.54.907-1.871 1.986 0-1.265.227-2.006 1.871-1.986z" fill="#fff"/><path d="M4.583 9.09c-.475-1.125-1.494-1.317-.489-3.29 1.548.92.434 1.84.489 3.29zM3 8.481c1.823.053 1.335 1.39 2.133 2.615-.99-.742-1.975-.417-2.133-2.615zm.454 2.853c1.61-.827 1.878.563 3.206 1.238-1.252-.166-1.933.589-3.206-1.238z" fill="#fff"/><path d="M5.401 11.175c-.653-1.099-.846-1.853.592-2.621.255 1.145-.86 1.529-.592 2.621zm.682-1.284c.818.867.048 1.74.853 2.555-1.142-.642-1.7-1.205-.853-2.555zm-.757 3.694c.963-1.49 1.912-.418 3.42-.47-1.17.456-1.37 1.442-3.42.47zm3.764-.782c1.32-.006 2.091-.225 2.064-1.8-1.163.357-.943 1.476-2.065 1.8zm1.142-6.182c.901.788 1.802.047 2.655.821-.66-1.099-1.245-1.635-2.655-.82z" fill="#fff"/><path d="M12.853 7.085c-.172-1.205.613-1.86-1.287-3.085-.86 1.542.585 1.8 1.287 3.085zm-1.465.271c.371 1.119 1.54.907 1.871 1.986 0-1.265-.227-2.006-1.871-1.986z" fill="#fff"/><path d="M13.417 9.09c.475-1.125 1.494-1.317.489-3.29-1.548.92-.434 1.84-.489 3.29zM15 8.481c-1.823.053-1.335 1.39-2.133 2.615.99-.742 1.975-.417 2.133-2.615zm-.454 2.853c-1.61-.827-1.879.563-3.207 1.238 1.253-.166 1.934.589 3.207-1.238z" fill="#fff"/><path d="M12.599 11.175c.653-1.099.846-1.853-.592-2.621-.255 1.145.867 1.529.592 2.621zm-.675-1.291c-.819.867-.048 1.741-.853 2.555 1.135-.635 1.693-1.198.853-2.555zm.75 3.701c-.963-1.49-1.913-.418-3.42-.47 1.17.463 1.37 1.442 3.42.47z" fill="#fff"/></svg>