<!-- by TradingView --><svg width="18" height="18" xmlns="http://www.w3.org/2000/svg"><path fill="#CD192E" d="M0 0h18v18H0z"/><path d="M8.99 7.399c.828-.107 1.794-.366 2.877-1.033.85-.518 1.964-1.592 1.185-1.914-.51-.212-1.69.453-2.829 1.526-.186.172-1.015 1.17-1.119 1.281-.017.022-.06.075-.115.14zM8.856 5.64c1.544-1.041 3.273-1.839 4.5-1.596.69.136.911.892.231 1.723-.49.6-1.793 1.275-2.56 1.526-.325.104-1.35.43-2.38.553-.93 1.238-1.355 1.763-1.894 3.21-.402 1.078-.261 2.153.578 2.334.727.161 1.643-1.022 1.84-1.405 1.32-2.558-.009-2.43-.608-1.442-.359.592-.213 1.117-.375 1.14-.104.013-.14-.434-.073-.818.173-.965.988-1.931 1.847-1.76.508.103.644.692.514 1.416-.196 1.095-1.165 2.386-1.805 2.85-.343.247-1.154.78-2.113.588-.587-.115-1.369-.63-1.526-1.813-.12-.921.104-1.774.403-2.414.324-.69.716-1.374 1.22-2.029-.272-.096-.534-.232-.72-.42-.836-.84-.198-1.627.072-1.803.536-.351 1.583-.222 1.572 0-.005.101-1.092.036-1.227.863-.092.565.226.854.597.999A9.382 9.382 0 018.857 5.64z" fill="#fff"/></svg>