<!-- by TradingView --><svg width="18" height="18" xmlns="http://www.w3.org/2000/svg"><path fill="#F0F3FA" d="M0 0h18v18H0z"/><path d="M4.67 11.567l1.732-1.664-1.66.247 2.6-.873-2.731-.292 2.787-.155-2.54-1.097 2.606.573-2.098-1.66L7.7 7.917 6.103 5.704l1.853 1.883-.88-2.562 1.4 2.485-.208-2.767.671 2.68.51-2.748-.075 2.835 1.191-2.485-.775 2.62 1.834-2.086-1.475 2.358 2.316-1.485-2.051 1.874 2.624-.796-2.246 1.136 2.477.058-1.4.281 2.093.69c.053-.475.2-1.941-.87-3.527-1.018-1.51-2.577-1.95-3.248-2.079-1.068-.206-3.562-.072-4.985 2.106-1.424 2.179-.779 4.466-.188 5.392z" fill="#EEDA1B"/><path d="M9.454 9.006c-1.123-.054-2.41.954-2.913 1.464.539-.319 1.896-.767 2.96-.133.914.544 2.13 1 2.75 1 1.399 0 2.392-1.036 2.745-1.498-.58.297-2.036.712-3.215 0-1.18-.711-2.043-.852-2.327-.833z" fill="#373474"/><path d="M8.102 10.673c-1.195-.054-2.564.953-3.1 1.464.573-.32 2.018-.767 3.15-.134.973.544 2.267 1 2.927 1 1.488 0 2.545-1.035 2.92-1.497-.617.297-2.166.712-3.42 0-1.256-.712-2.175-.852-2.477-.833z" fill="#373474"/></svg>