<!-- by TradingView --><svg width="18" height="18" xmlns="http://www.w3.org/2000/svg"><path fill="#5D2482" d="M0 0h18v18H0z"/><path d="M8.303 6.015c-2.093.092-3.961.574-5.13 1.324-.523.334-.906.74-1.063 1.123C2.023 8.67 2 8.784 2 9c0 .239.03.368.139.602.474 1.016 2.174 1.863 4.46 2.221a14.13 14.13 0 002.155.175c1.174.017 2.173-.068 3.207-.277 2.522-.507 4.11-1.603 4.037-2.79-.024-.372-.186-.71-.502-1.046-.574-.61-1.573-1.113-2.892-1.456-1.268-.329-2.823-.48-4.3-.414z" fill="#fff"/><path d="M10.808 7.5l-.5.636s-.366-.31-1.096-.31c-.977 0-1.442 1.507-.712 2.126.584.496 1.334.207 1.577 0l.353.902c-.608.413-2.148.525-3.026-.592C6.578 9.211 7.236 7.547 8.5 7c1.5-.527 2.308.5 2.308.5z" fill="#5D2482"/></svg>