<!-- by TradingView --><svg width="18" height="18" xmlns="http://www.w3.org/2000/svg"><path fill="#009577" d="M0 0h18v18H0z"/><path d="M5.609 5.532c-.42.85-.952 1.928-1.184 2.403-.231.47-.425.897-.425.945 0 .192.102.059.339-.438.135-.283.678-1.383 1.205-2.44.528-1.057.964-1.938.974-1.965C6.53 4.016 6.497 4 6.454 4c-.065 0-.323.47-.845 1.532zM7.53 4.278c-.07.155-.473.977-.893 1.831-.42.849-1.19 2.397-1.7 3.438-.856 1.72-1.018 2.093-.894 2.082.021 0 .323-.581.673-1.291 1.539-3.14 2.9-5.9 2.997-6.076.13-.235.13-.262.027-.262-.048 0-.14.123-.21.278zM8.698 4.577L7.466 7.07c-.522 1.057-1.211 2.45-1.529 3.097-.317.646-.882 1.793-1.259 2.546C4.307 13.472 4 13.984 4 14h1.26l.284-.603c.151-.395.426-1.116.609-1.602.376-.998 1.668-4.4 1.792-4.725.403-1.041.635-1.703.608-1.762-.011-.037.107-.33.263-.646.318-.635.329-.662.232-.662-.038 0-.2.262-.35.577zM9.505 5.586L8.144 8.35c-.318.646-.926 1.869-1.346 2.723-1.14 2.307-1.361 2.867-1.361 2.926h1.001l.371-.844c.2-.528.56-1.468.791-2.082.646-1.692 1.071-2.813 1.324-3.497.124-.336.269-.71.317-.822.049-.118.076-.246.06-.288-.027-.07.253-.662.952-2.056.162-.32.188-.411.124-.411-.06 0-.345.523-.872 1.586zM11.54 4.117c-.028.07-.501 1.036-1.056 2.152A916.163 916.163 0 008.94 9.392c-.296.604-.936 1.896-1.42 2.878-.485.977-.883 1.703-.883 1.73h.94s.459-.972 1.858-4.688c.21-.56.43-1.137.484-1.281.06-.15.103-.315.097-.374-.005-.112.178-.512 1.136-2.424.328-.656.597-1.206.597-1.212 0-.01-.038-.021-.08-.021-.05 0-.103.053-.13.117zM12.61 4.603l-1.361 2.76a698.466 698.466 0 00-1.545 3.124c-.258.528-.764 1.559-1.124 2.285-.356.726-.64 1.228-.64 1.228h.839s.204-.384.387-.87c.178-.486.398-1.063.485-1.282.08-.219.247-.651.366-.96.118-.31.338-.892.495-1.293.15-.405.263-.758.247-.785-.021-.032.22-.576.538-1.217 1.233-2.504 1.744-3.545 1.744-3.572 0-.01-.033-.021-.065-.021-.037 0-.204.272-.366.603zM13.552 5.345c-.205.422-.867 1.762-1.47 2.98a996.802 996.802 0 00-1.41 2.856c-.171.352-.564 1.153-.882 1.778A6.53 6.53 0 009.365 14h.65l.109-.283c.84-2.189 1.35-3.604 1.345-3.7 0-.064.29-.72.657-1.452 1.846-3.727 1.959-3.978 1.84-3.978-.021 0-.21.342-.414.758zM13.854 7.374c-.027.07-.399.833-.83 1.698-1.974 3.999-2.459 4.89-2.459 4.928h.588c.027-.048.23-.534.456-1.137l.517-1.351c.06-.139.091-.288.075-.326-.016-.037.372-.875.856-1.858.484-.977.899-1.847.92-1.927.043-.176-.059-.198-.123-.027zM13.923 9.932C13.86 10.017 11.857 14 11.857 14h.57l.172-.63c.162-.411.296-.833.307-.94.01-.106.205-.56.425-1.003.474-.935.689-1.437.668-1.511-.011-.032-.044-.022-.076.016z" fill="#fff"/></svg>