<!-- by TradingView --><svg width="18" height="18" xmlns="http://www.w3.org/2000/svg"><path fill="#0047BA" d="M0 0h18v18H0z"/><path d="M12.784 7.732c-2.341-.527-3.69-2.005-6.527-1.688-2.486.249-2.744.44-4.257.964v2.52s.784-.582 2.483-1.321c1.42-.633 4.399-1.688 6.03-1.002.497.21.781.474 1.136.738.354.264.71.528 1.064.686.284.158.497.264.78.37-2.909.843-5.604 2.742-10.5.632 3.264 3.43 7.45 2.48 10.358 1.214 1.637-.73 1.774-.813 2.649-1.317V8.52c-1.459-.18-1.201-.34-3.216-.788z" fill="#fff"/></svg>