<!-- by TradingView --><svg width="18" height="18" xmlns="http://www.w3.org/2000/svg"><path fill="#451400" d="M0 0h18v18H0z"/><path d="M7.575 12.5c0-.335-.415-.754-.538-1.05-.114-.499-.386-.949-.423-1.469-.069-.675-.108-1.527.295-2.085.183-.181.755-.237 1.204-.293.626.015 1.025.142 1.537.503.1.055-.797 2.076-.935 2.379-.16.406.086.995.192 1.399.09.35.205.657.32.923.077.196.18.266-.038.21-.603-.165-.998-1.453-1.243-1.987-.287-.689-.609-1.264-.346-2.084.013-.392.295-.308.525-.294.381 0 .462.174.462.546 0 .296-.173.576-.282.839-.003.005 0-.54-.23-.476-.324.059-.206.471-.18.7.051.266.243.475.474.364.077-.085.14-.182.14-.294 0-.254.195-.661.321-.868.129-.422.24-1.129-.32-1.273-.427-.066-.83.086-1.243.168-.25.078-.143 1.036-.218 1.231-.058.938.849 2.085 1.243 3.008.238.52 1.244 1.439 1.73.98.089-.099-.103-.267-.142-.294-.33-.334-.406-.888-.602-1.316-.129-.443-.25-.915-.179-1.385.089-.905.943-1.583 1.166-2.434.038-.169-.452-.703-.564-.825-.064-.07-.205-.182-.282-.14-.102.056-.128.168-.243.168-.419 0-.887-.044-1.268-.252-.09-.056-.244 0-.359.014-.59.14-1.204-.098-1.242.672-.126.787-.154 1.505-.154 2.308 0 1.043.856 1.789 1.422 2.406z" fill="#fff"/><path d="M8.382 6.274l-.845-.756c-.026 0-.064.014-.09.014-.294.084-.87.028-1.127.21-.41.252-.679.7-.974 1.021-.09.056-.05.294-.09.406-.323.99-.331 2.41-.076 3.413 0 .672 1.383 2.225 2.165 3.708.115.252.192.252.397.28.422.153.873.234 1.306.363.503.15 1.17 0 1.691 0 0 0 .59.128 1.179-.335.287-.118.524-.667.602-.98.038-.154 0-.307-.154-.35-.159-.051-.452-.15-.576-.265-.167-.14-.372-.28-.538-.434-.156-.13-.608-.569-.82-.518-.116.028-.18-.307-.128-.573.038-.196-.039-.224-.09-.364-.128-.322-.269-.154.038-.448.46-.376 1.311-2.019 1.14-2.672-.025-.473-.734-1.868-1.127-2.056a.75.75 0 00-.256.014c-.077.028-.192.322-.282.322.295.335.513.7.73 1.035.167.364.36.601.333 1.021-.083.911-.758 1.532-1.114 2.309-.051.111 0 .461.013.587.038.182.166.14.205.322.076.279.013.713.013 1.007 0 .14.179.028.281.056.331.083.828.671 1.102.895.154.126.013-.07-.038.14-.526.42-1.205.462-1.845.406-1.268-.112-1.358.014-1.845-.615-.627-.952-1.268-1.861-1.883-2.938-.038-1.032.129-2.048.129-3.064.09-.546.525-.896.91-1.035.55-.112 1.1-.126 1.664-.126z" fill="#fff"/><path d="M7.217 5.252c-.232-.178-.46-.07-.666-.028-.018-.004.553-.414.59-.433.192.028.473.126.653.21.166.042.41.125.589.125a27.316 27.316 0 012.152-1.916c.115-.056 1.114-.21 1.383-.21.325.166 1.22.568 1.064 1.147 0 .294-.09.588-.154.896 0 .004-.867-.005-.871-.014.18-.14.282-.238.448-.448.146-.16-.274-.776-.307-.937-.32.014-.743.014-1.064.097-.343.167-.597.43-.858.728.026.308-.14.602-.102.923.153.35.09.266.602.308.09.014.243-.014.294.014.089.048-.088.324-.14.35-.54.294-.955.242-1.486.615-.25.183-.805.14-.871-.223-.056-.244-.992-.919-1.256-1.204z" fill="#fff"/></svg>