<!-- by TradingView --><svg width="18" height="18" xmlns="http://www.w3.org/2000/svg"><path fill="#003A72" d="M0 0h18v18H0z"/><path d="M6.473 10.486l-.02.023c-.329.355-.71.545-1.101.545-.819 0-1.414-.654-1.414-1.553 0-.902.595-1.556 1.414-1.556.392 0 .772.189 1.101.547l.02.02L7 7.836l-.013-.017C6.549 7.269 6.023 7 5.377 7c-.648 0-1.24.213-1.67.631C3.245 8.086 3 8.743 3 9.501c0 .756.244 1.447.708 1.9.429.42 1.021.599 1.67.599.645 0 1.17-.268 1.609-.82L7 11.164l-.527-.677zM9 7H8v5h1V7zM13.115 10.962c-.26.148-.5.223-.718.223-.314 0-.394-.271-.394-.502L12 8.007h1V7.004h-1V5.5l-1 .501v1.003h-1v1.003h1v2.922c0 .685.423 1.058 1.067 1.07.437.008.7-.112.86-.204l.01-.006.234-.86-.056.033zM15 7h-1v5h1V7z" fill="#F0F3FA"/><path d="M15 6c-.727-1.173-2.067-2-3.5-2-1.409 0-2.75.803-3.5 2h.875a3.619 3.619 0 012.626-1.17c.914 0 1.94.412 2.624 1.17H15z" fill="#ED1B2E"/></svg>