<!-- by TradingView --><svg width="18" height="18" xmlns="http://www.w3.org/2000/svg"><path fill="#F0F3FA" d="M0 0h18v18H0z"/><path d="M8.86 7.528c-.347-1.052-.905-1.443-1.787-1.443-1.537.007-2.222 1.352-2.222 2.787 0 1.763.85 3.035 2.23 3.035 1.007 0 1.46-.595 1.97-1.554l.13.027c-.113.393-.301 1.123-.442 1.472a7.423 7.423 0 01-1.632.257C4.92 12.107 4 10.54 4 9.082c0-1.884 1.38-3.19 3.263-3.19a6.174 6.174 0 011.564.236c.07.504.104.905.15 1.38l-.117.02zM10.349 10.358c.164.42.65 1.509 1.605 1.509.66 0 1.084-.412 1.084-1.17 0-.924-.703-1.216-1.172-1.473-.338-.182-1.431-.602-1.431-1.654.002-.887.635-1.679 1.765-1.679.495 0 .781.146 1.04.21.035.32.088.686.151 1.243l-.13.027c-.19-.558-.452-1.262-1.257-1.262-.668 0-.972.481-.972 1.052 0 .677.495 1.005 1.154 1.326.66.32 1.475.694 1.475 1.783 0 1.024-.816 1.82-1.91 1.837a3.127 3.127 0 01-1.268-.352c-.078-.238-.173-.887-.26-1.371l.126-.026z" fill="#275499"/></svg>