<!-- by TradingView --><svg width="18" height="18" xmlns="http://www.w3.org/2000/svg"><path fill="#0092CE" d="M0 0h18v18H0z"/><path d="M6.094 10.279a.967.967 0 010 1.36l-.313.314a.948.948 0 01-1.348 0l-2.154-2.17a.967.967 0 010-1.36l.313-.315a.946.946 0 011.347-.002l.001.002 2.154 2.17zm-.215-4.13a.948.948 0 00-1.348 0l-.313.316a.966.966 0 000 1.359l2.153 2.17a.948.948 0 001.349 0l.313-.314a.967.967 0 000-1.36L5.88 6.15zm5.747 1.915a.949.949 0 00-1.348 0l-.314.316a.966.966 0 000 1.36l2.154 2.17a.949.949 0 001.348 0l.314-.315a.967.967 0 000-1.36l-2.154-2.17zm1.941-1.955a.952.952 0 00-1.348 0l-.313.316a.965.965 0 00-.003 1.356l.002.003 2.154 2.17a.948.948 0 001.348 0l.313-.315a.966.966 0 00.001-1.358V8.28l-2.154-2.171zM9.983 3.956a.967.967 0 000-1.36l-.314-.315a.948.948 0 00-1.347 0L6.17 4.452a.966.966 0 000 1.36l.313.315a.952.952 0 001.348 0l2.154-2.17h-.001zm1.941 1.956a.966.966 0 000-1.359l-.313-.315a.948.948 0 00-1.349 0L8.11 6.408a.967.967 0 000 1.36l.313.316a.948.948 0 001.348 0l2.154-2.172zm-1.937 5.68a.967.967 0 000-1.36l-.314-.315a.948.948 0 00-1.348 0l-2.154 2.17a.966.966 0 000 1.36l.314.316a.949.949 0 001.348 0l2.154-2.171zm1.94 1.957a.97.97 0 000-1.36l-.313-.316a.949.949 0 00-1.349 0l-2.153 2.171a.966.966 0 000 1.359l.313.315a.948.948 0 001.348.001l2.155-2.172-.001.002z" fill="#fff"/></svg>