<!-- by TradingView --><svg xmlns="http://www.w3.org/2000/svg" width="18" height="18" viewBox="0 0 18 18"><path fill="#F0F3FA" d="M0 0h18v18H0z"/><path d="M7.05 5.3C5.11 5.3 3.4 6.34 3.4 8.1c0 .75.4 1.92 1 2.86A4.37 4.37 0 0 1 2.5 7.5c0-2.15 2.38-3 4.23-3a11 11 0 0 1 7.23 2.85c-2.38-1.3-4.1-2.05-6.9-2.05Z" fill="#0B3275"/><path d="M14.5 11.06c0 1.56-1.57 2.2-2.5 2.44 1.4 0 3.5-.38 3.5-2.06C15.5 7.92 10.72 6 7.75 6c-.37 0-.71.06-1.01.1 2.64.13 7.76 1.59 7.76 4.96Z" fill="#B9CD30"/><path d="M5.47 8.38c.01-1.04.8-1.65 1.46-1.9-.24.08-2.4.08-2.43 2.08-.04 2.5 3.45 4.03 5.78 4.03.58 0 1.12-.06 1.69-.15-2.4-.01-6.55-1.16-6.5-4.06Z" fill="#108E9A"/><path d="M7.87 10.49A2.14 2.14 0 0 1 6.78 8.7c.03-.87 1.03-1.34 1.78-1.34 1.62 0 3.25.8 4.44 2.6-1.31-1.69-6.22-3.13-5.13.52Z" fill="#E45D2A"/><path d="M9.56 10.41c.67.13 1.06-.11 1.19-.32.27-.44-.14-.84-.4-1.09l.06.03c.6.2 1 .69 1 1.15 0 .08-.02.16-.04.23-.12.37-.5.59-.96.59a2.27 2.27 0 0 1-1.85-1.03c.2.2.66.38 1 .44Z" fill="#F5CE1D"/></svg>