<!-- by TradingView --><svg width="18" height="18" xmlns="http://www.w3.org/2000/svg"><path fill="#002F6C" d="M0 0h18v18H0z"/><path d="M12.314 6.036c-1.078 0-1.856.522-2.26 1.315L9.978 5.02h-.291c-.187.443-.39.468-.819.34-.198-.064-.44-.151-.729-.225A4.053 4.053 0 007.092 5C4.683 4.995 2.994 6.706 3 9.01c-.006 2.533 1.778 3.985 4.115 3.99a3.878 3.878 0 002.966-1.394l-.23-.277c-.825.79-1.46 1.091-2.64 1.097-1.923-.003-2.784-1.717-2.779-3.322-.005-2.07.862-3.667 2.703-3.582 2.02.096 2.565 1.512 2.583 3.298-.006 1.408 1.046 2.657 2.593 2.646C13.983 11.477 15 10.102 15 8.584c.003-1.498-1.092-2.537-2.686-2.548zm1.496 3.23c-.092.989-.603 1.891-1.496 1.815-1.095-.093-1.55-1.378-1.403-2.991.098-1.001.62-1.731 1.472-1.671 1.317.12 1.525 1.802 1.427 2.846z" fill="#fff"/></svg>