<!-- by TradingView --><svg width="18" height="18" xmlns="http://www.w3.org/2000/svg"><path fill="#FF4A6A" d="M0 0h18v18H0z"/><path d="M9 3L4 6.056v5.883L9 15l5-3.06V6.055L9 3zm4 8.625L9 14l-4-2.375v-5.25L9 4l4 2.375v5.25z" fill="#fff"/><path d="M8.62 12.691c0 .044-.04.07-.072.048l-2.475-1.717a.181.181 0 01-.072-.147V7.807c0-.043.04-.07.072-.048l2.475 1.464c.043.03.072.087.072.147v3.322zM11.959 6.984L9.119 8.58a.236.236 0 01-.225 0l-2.84-1.596a.055.055 0 010-.096l2.84-1.596a.236.236 0 01.224 0l2.84 1.596c.035.025.035.075 0 .096zM11.959 11.298L9.44 12.742c-.037.021-.084-.004-.084-.046V9.804c0-.042.047-.067.084-.046l2.518 1.444c.034.02.034.071 0 .096z" fill="#fff"/></svg>