<!-- by TradingView --><svg xmlns="http://www.w3.org/2000/svg" width="18" height="18" viewBox="0 0 18 18"><path fill="#1B3058" d="M0 0h18v18H0z"/><path d="M13 9.19v-.35H9.19V5h-.38v2.83c-.1-.26-.26-.51-.37-.76l-.41-.91-.43-.91-.26.1c.1.33.22.64.34.95l.35.94.3.77-.59-.58-.73-.69-.74-.67-.2.2.67.74.69.73.58.6-.77-.3-.94-.36c-.31-.12-.62-.24-.94-.34l-.11.26.9.43.92.4c.25.12.5.3.76.4H5v.36h3.81s.05 3.73 0 3.81h.38v-2.85c.11.26.26.52.38.78l.41.91.43.9.24-.1-.33-.94-.36-.93-.3-.8.6.6.73.68.75.67.18-.18-.67-.75-.69-.73-.58-.6.79.3.93.36c.32.1.63.22.95.33l.1-.24-.9-.43-.92-.41c-.26-.12-.52-.27-.78-.38H13z" fill="#fff"/><path d="M9 15a6 6 0 1 1 .01-12.01A6 6 0 0 1 9 15zM9 3.7C6 3.7 3.7 6 3.7 9S6 14.3 9 14.3 14.3 12 14.3 9 12 3.7 9 3.7z" fill="#fff"/></svg>