<!-- by TradingView --><svg width="18" height="18" xmlns="http://www.w3.org/2000/svg"><path fill="#0D5DB8" d="M0 0h18v18H0z"/><path d="M9.926 13.482h0-.002c-.594.247-1.314.368-2.142.368-1.021 0-1.79-.158-2.32-.447h0c-.53-.283-.914-.784-1.163-1.529-.235-.717-.197-1.674.147-2.857h0v-.001c.443-1.576 1.202-2.77 2.25-3.602 1.06-.833 2.329-1.264 3.825-1.264 1.174 0 1.992.243 2.49.706h0l.003.002c.641.57.818 1.5.835 2.403h-2.487c-.056-.399-.223-.74-.595-.968h0a1.557 1.557 0 00-.82-.206c-.707 0-1.34.29-1.871.867-.405.429-.728 1.09-.988 1.966h0l-.001.002c-.153.537-.246.998-.272 1.379-.026.378.012.695.138.932.235.455.69.68 1.3.68.593 0 1.099-.182 1.499-.523.292-.234.557-.576.787-.956h2.447c-.322.69-.903 1.477-1.402 1.966a5.213 5.213 0 01-1.658 1.082z" fill="#fff" stroke="#000" stroke-width=".3"/></svg>