<!-- by TradingView --><svg width="18" height="18" xmlns="http://www.w3.org/2000/svg"><path fill="#E2A305" d="M0 0h18v18H0z"/><path d="M8.075 13.85c-.956-.303-1.636-.907-2.015-1.82-.282-.68-.282-1.371-.07-2.07.16-.535.39-1.032.648-1.53.206-.396.423-.788.64-1.18.189-.342.378-.683.56-1.028.353-.673.68-1.353.911-2.077.096-.314.18-.629.225-.956.005-.05.016-.095.032-.162L9.012 3c.09.774.347 1.473.636 2.159.09.213.186.434.295.635l.088.17c.132.255.266.515.412.762a.19.19 0 00-.01.002c.07.089.12.188.17.288l.052.1.079.14c.334.595.668 1.192.948 1.817.206.46.385.925.45 1.422.09.655-.02 1.278-.347 1.85-.52.919-1.322 1.454-2.375 1.611-.443.082-.892.05-1.335-.107zm.985-.384c-.21.004-.421-.02-.632-.057l-.135-.02a.107.107 0 00-.022 0h.01l.134.02c.215.043.43.068.645.057zm-.048-8.672c-.001.02-.002.041 0 .062.018.027.02.053.022.075l.004.026-.007.42c-.01.558-.019 1.117-.044 1.676a5.478 5.478 0 01-.154 1.12 3.178 3.178 0 01-.854 1.498c-.295.295-.571.598-.783.963a.742.742 0 00-.03.051c-.018.035-.036.07-.066.1a3.051 3.051 0 00-.27.88c-.026.215-.026.422.013.636-.051-.005-.066-.034-.08-.062l-.01-.02c-.372-.598-.462-1.233-.295-1.913.122-.516.34-1 .578-1.472.187-.367.386-.731.585-1.094l.262-.48c.449-.83.879-1.667 1.11-2.592.021.042.02.084.019.126z" fill="url(#paint0_linear)"/><path d="M6.561 11.84c.314.757.879 1.258 1.672 1.508v-.002.003c.367.13.74.156 1.107.088.873-.13 1.539-.574 1.97-1.336a2.37 2.37 0 00.287-1.535c-.053-.412-.202-.798-.372-1.18a18.956 18.956 0 00-.787-1.506l-.065-.117-.043-.083a1.33 1.33 0 00-.142-.239.154.154 0 01.01-.001c-.123-.205-.234-.42-.343-.631l-.073-.142c-.09-.167-.17-.35-.245-.527-.24-.569-.452-1.148-.527-1.79l-.005.022c-.013.055-.022.093-.027.134a5.057 5.057 0 01-.186.794c-.192.6-.463 1.164-.756 1.722-.151.286-.308.57-.464.852-.18.326-.36.65-.532.98a7.394 7.394 0 00-.537 1.269c-.176.58-.176 1.153.058 1.717zm2.489 1.19a2.776 2.776 0 01-.524-.047l-.112-.016a.09.09 0 00-.019 0h.008l.112.016c.178.036.357.057.535.048zm-.04-7.193a.384.384 0 000 .052.12.12 0 01.018.062.14.14 0 00.003.022c-.798 3.604-1.407 5.245-.037-.24.018.035.017.07.015.104z" fill="#4C4D4F"/><path d="M8.162 13.348c-.763-.25-1.306-.751-1.608-1.508-.225-.564-.225-1.138-.056-1.717.128-.444.528-.856.733-1.269.307-.616.645-1.216.957-1.832.282-.558.42-1.08.605-1.68.077-.261.143-.522.18-.794.004-.047.015-.088.03-.156.16 1.427.742 3.145 1.37 4.424.179.36.446 1.108.543 1.495.098.365.123.73.03 1.101-.214.882-.952 1.646-1.938 1.902-.498.103-.846.034-.846.034z" fill="#060709"/><path d="M7.093 10.797c-.122.283-.23.566-.27.881-.025.214-.025.422.014.636-.058 0-.07-.05-.09-.082a2.397 2.397 0 01-.295-1.913c.122-.516.34-1 .577-1.473.27-.535.565-1.05.847-1.573.45-.83.88-1.668 1.11-2.593.033.063.014.126.02.189-.045.157-.039.321-.064.478a7.484 7.484 0 01-.584 1.932c-.27.604-.559 1.202-.828 1.8a5.08 5.08 0 00-.405 1.296c-.019.133-.05.271-.032.422z" fill="#F9E4B9"/><path d="M7.093 10.797c-.019-.145.013-.29.039-.434.077-.447.218-.881.404-1.296.27-.605.559-1.202.828-1.8a7.484 7.484 0 00.584-1.932c.026-.158.02-.321.064-.479.026.038.02.076.02.114-.013.698-.02 1.397-.052 2.095-.02.378-.064.75-.154 1.12a3.178 3.178 0 01-.853 1.498c-.296.296-.578.598-.783.963-.033.05-.052.107-.097.151z" fill="#E8A707"/><defs><linearGradient id="paint0_linear" x1="5.838" y1="8.5" x2="14.042" y2="13.463" gradientUnits="userSpaceOnUse"><stop stop-color="#060709"/><stop offset="1" stop-color="#E9A804"/></linearGradient></defs></svg>