<!-- by TradingView --><svg xmlns="http://www.w3.org/2000/svg" width="18" height="18"><path fill="url(#a4a3itug3)" d="M0 0h18v18H0z"/><path d="M12.97 6.56a5.23 5.23 0 00-3.23-1.13C7.62 5.43 6 6.97 6 8.93a3.5 3.5 0 003.56 3.6A5.6 5.6 0 0013 11.35l-.3 1.89a7.4 7.4 0 01-3.33.76c-2.81.07-5.45-2.04-5.37-5.01C4 6.05 6.54 4 9.4 4c1.29 0 2.36.24 3.25.73l.32 1.83z" fill="#fff"/><defs><linearGradient id="a4a3itug3" x1="3.35" y1="3.12" x2="21.9" y2="24.43" gradientUnits="userSpaceOnUse"><stop stop-color="#1A1E21"/><stop offset="1" stop-color="#06060A"/></linearGradient></defs></svg>