<!-- by TradingView --><svg width="18" height="18" xmlns="http://www.w3.org/2000/svg"><path fill="#09456A" d="M0 0h18v18H0z"/><path d="M7.752 3.088c.185-.078.422-.104.66-.078.052 0 .105.026.158.026.606.13 1.002.702.87 1.327L8.965 6.73 7.752 3.088zM5.485 4.077c.132-.157.316-.26.554-.339.052-.026.105-.026.158-.026a1.119 1.119 0 011.344.859l.528 2.342-2.584-2.836zM3.797 5.898c.053-.182.185-.364.37-.52a.462.462 0 01.131-.105c.501-.364 1.213-.26 1.582.235l1.477 1.925-3.56-1.535zM3.007 8.214c-.027-.208.026-.417.132-.625.026-.052.052-.078.079-.13a1.113 1.113 0 011.529-.416l2.135 1.17H3.007zM3.244 10.66a1.224 1.224 0 01-.158-.625V9.88c.053-.624.606-1.067 1.24-1.015l2.425.234-3.507 1.562zM4.484 12.82c-.158-.105-.29-.287-.396-.521-.026-.052-.026-.104-.053-.156-.184-.573.132-1.223.712-1.405l2.32-.78-2.583 2.861zM6.487 14.276a1.592 1.592 0 01-.58-.312l-.105-.104a1.107 1.107 0 01.079-1.587l1.793-1.64-1.187 3.643zM8.94 14.797c-.185.052-.423.026-.66-.052-.053-.026-.105-.026-.132-.052-.58-.234-.843-.911-.58-1.457l.976-2.212.395 3.773zM11.364 14.302c-.158.104-.369.183-.633.209h-.158a1.118 1.118 0 01-1.134-1.12l-.026-2.42 1.951 3.331zM13.394 12.871a1.11 1.11 0 01-.474.443c-.053.026-.08.052-.132.052-.58.26-1.24 0-1.503-.547l-1.028-2.185 3.137 2.237zM14.66 10.738a1.11 1.11 0 01-.264.598.204.204 0 01-.105.104c-.422.469-1.134.495-1.609.104l-1.845-1.587 3.823.78zM14.95 8.292c.053.182.079.416 0 .65a.197.197 0 01-.053.13c-.184.599-.817.911-1.424.729l-2.346-.729 3.823-.78zM14.186 5.95c.132.156.237.338.29.598 0 .053.026.105.026.157.08.624-.369 1.17-1.002 1.223l-2.425.286 3.11-2.264zM12.525 4.129c.184.078.369.208.5.416.027.052.053.078.08.13.316.52.132 1.223-.396 1.535L10.6 7.433l1.925-3.304zM10.257 3.114c.21 0 .422.052.633.182.052.026.079.052.131.078.501.364.633 1.067.264 1.561L9.861 6.913l.396-3.8z" fill="#fff"/></svg>