<!-- by TradingView --><svg width="18" height="18" xmlns="http://www.w3.org/2000/svg"><path fill="#FF1900" d="M0 0h18v18H0z"/><path d="M7.011 4.006c.01.01.104.064.208.129.862.547 1.505 1.266 1.89 2.104.114.257.249.665.3.934.219 1.116-.259 2.415-1.39 3.81-.354.44-.894.977-1.35 1.364a12.392 12.392 0 01-2.576 1.6C4.031 13.978 4 13.988 4 14c.031 0 .52-.161.82-.268 1.381-.494 2.617-1.192 3.572-2.03a8.73 8.73 0 00.914-.965c.53-.677.84-1.342.976-2.072a4.54 4.54 0 00.031-1.063c-.177-1.342-1.111-2.49-2.658-3.296a8.674 8.674 0 00-.644-.3z" fill="#fff"/><path d="M13.646 5.498a9.655 9.655 0 00-2.72.655c-.302.129-.841.376-.883.418-.02.011-.052.043-.093.054-.032.022-.084.043-.115.065a.926.926 0 01-.093.053 7.97 7.97 0 00-.25.161c-1.245.859-1.837 1.965-1.546 2.92.051.161.166.44.186.43.021-.011.322-.494.426-.666.083-.15.083-.15.083-.322 0-.3.063-.569.198-.859.394-.826 1.287-1.589 2.564-2.168a9.829 9.829 0 012.41-.709c.103-.021.186-.032.186-.032.01-.032-.073-.021-.353 0zm-4.018 5.507c-.073.086-.166.193-.218.258-.104.118-.114.107.135.214.218.097.488.194.737.269l.197.053.187-.204.197-.225a.617.617 0 00-.207-.086 5.308 5.308 0 01-.727-.333c-.083-.043-.145-.086-.156-.086-.02-.01-.083.054-.145.14z" fill="#fff"/></svg>