<!-- by TradingView --><svg width="18" height="18" xmlns="http://www.w3.org/2000/svg"><path fill="#F0F3FA" d="M0 0h18v18H0z"/><path d="M13.243 6.31a2.858 2.858 0 00-4.958 0 5.798 5.798 0 012.479-.552c.886 0 1.727.198 2.479.553z" fill="#EF5530"/><path d="M10.098 4.098a2.857 2.857 0 00-3.505 3.506A5.795 5.795 0 017.955 5.46a5.797 5.797 0 012.143-1.362z" fill="#F5911E"/><path d="M6.31 4.757a2.858 2.858 0 000 4.958 5.798 5.798 0 01-.552-2.479 5.8 5.8 0 01.553-2.479z" fill="#FFCC25"/><mask id="a" maskUnits="userSpaceOnUse" x="4" y="7" width="4" height="5"><path d="M4 7.902h3.604v3.603H4V7.902z" fill="#fff"/></mask><g mask="url(#a)"><path d="M4.098 7.902a2.858 2.858 0 003.506 3.505 5.8 5.8 0 01-2.144-1.362 5.8 5.8 0 01-1.362-2.143z" fill="#B8CF32"/></g><path d="M4.757 11.69a2.858 2.858 0 004.958 0 5.798 5.798 0 01-2.479.552 5.798 5.798 0 01-2.479-.553z" fill="#1EA34E"/><path d="M7.902 13.902a2.858 2.858 0 003.505-3.506 5.8 5.8 0 01-1.362 2.144 5.798 5.798 0 01-2.143 1.362z" fill="#4290CD"/><path d="M11.69 13.243a2.858 2.858 0 000-4.958c.354.752.552 1.592.552 2.479 0 .886-.198 1.727-.553 2.479z" fill="#6F54A1"/><path d="M13.902 10.098a2.858 2.858 0 00-3.506-3.505 5.8 5.8 0 012.144 1.362 5.799 5.799 0 011.362 2.143z" fill="#CF1874"/></svg>