<!-- by TradingView --><svg width="18" height="18" xmlns="http://www.w3.org/2000/svg"><path fill="#1E4BA1" d="M0 0h18v18H0z"/><path d="M10.792 10.287c.076.545.625.722 1.153.722.287 0 .52-.032.699-.095.34-.12.509-.345.509-.674a.497.497 0 00-.253-.445c-.168-.102-.432-.193-.793-.272l-.615-.138c-.606-.136-1.024-.285-1.256-.445-.392-.268-.588-.687-.588-1.257 0-.52.19-.952.569-1.296.379-.344.935-.517 1.67-.517.612 0 1.134.163 1.566.49.434.322.662.743.683 1.36h-1.168c-.021-.349-.174-.548-.458-.695a1.537 1.537 0 00-.707-.146c-.313 0-.563.063-.75.19a.602.602 0 00-.28.527.5.5 0 00.277.465c.118.069.37.149.757.24l1.003.241c.44.105.77.246.994.422.348.273.521.668.521 1.186 0 .53-.204.971-.611 1.323-.406.35-.98.525-1.721.525-1.122 0-2.361-.49-2.361-1.711h1.16zM5 7v4h1.394c.574 0 .974-.329 1.2-.909.287-.74.308-1.835-.095-2.533C7.315 7.23 6.947 7 6.394 7H5zm1.478-.99c.36.005.66.07.9.151.407.138.738.39.99.757.203.297.34.618.415.963.073.346.11.675.11.988 0 .793-.155 1.465-.466 2.015-.42.743-1.07 1.114-1.95 1.114H4V6.01h2.478z" fill="#fff"/></svg>