<!-- by TradingView --><svg width="18" height="18" xmlns="http://www.w3.org/2000/svg"><path fill="url(#paint0_linear)" d="M0 0h18v18H0z"/><path d="M3 6v1h1v4.999h1.932c2.13 0 3.699-.762 3.699-2.994C9.63 6.562 8.24 6 5.734 6H3zm3 1c1.119 0 1.705.427 1.705 1.893 0 1.163-.335 1.964-1.705 1.964V7z" fill="#FE0"/><path d="M12.151 6c-2.008 0-3.17 1.097-3.17 3.001 0 1.684.858 2.999 2.996 2.999.655 0 1.31-.164 1.724-.404l.22.404h1.078V9H12v1h1v.64c-.202.082-.312.144-.587.144-1.005 0-1.49-.639-1.49-1.844 0-1.094.452-1.725 1.126-1.725.532 0 .786.302.923.855l1.9-.283C14.598 6.617 13.64 6 12.152 6z" fill="#FE0"/><defs><linearGradient id="paint0_linear" x1="3.349" y1="3.122" x2="21.904" y2="24.434" gradientUnits="userSpaceOnUse"><stop stop-color="#1A1E21"/><stop offset="1" stop-color="#06060A"/></linearGradient></defs></svg>