<!-- by TradingView --><svg width="18" height="18" xmlns="http://www.w3.org/2000/svg"><path fill="url(#paint0_linear)" d="M0 0h18v18H0z"/><path d="M13 4c1 0 1.147.841.85 2.396-.315 1.757-.62 3.504-.978 5.25-.357 1.747-.892 2.322-2.362 2.333L4 14v-.213c.193-.327.35-.685.467-1.065.29-1.427.536-2.865.765-4.26.23-1.395.425-2.982.638-4.462H13zM8.08 5.523l-1.318 7.04h3.28c.458 0 .485-.427.544-.725.298-1.395.536-2.811.79-4.26.12-.66.23-1.33.357-2.055H8.08z" fill="url(#paint2_linear)"/><defs><linearGradient id="paint0_linear" x1="3.349" y1="3.122" x2="21.904" y2="24.434" gradientUnits="userSpaceOnUse"><stop stop-color="#1A1E21"/><stop offset="1" stop-color="#06060A"/></linearGradient><linearGradient id="paint2_linear" x1="8.993" y1="4" x2="8.993" y2="14" gradientUnits="userSpaceOnUse"><stop stop-color="#fff"/><stop offset="1" stop-color="#C7C7C7"/></linearGradient></defs></svg>