<!-- by TradingView --><svg width="18" height="18" xmlns="http://www.w3.org/2000/svg"><path fill="#F0F3FA" d="M0 0h18v18H0z"/><path d="M8.375 10.473v2.555c-.017.662-.023.676-.034.698C8.28 13.903 8 13.995 8 14h2a.935.935 0 01-.3-.288c-.015-.022-.075-.043-.075-1.068V7.76l-1.67 1.751c.112-.05.274-.022.351.074.077.086.07.133.07.887z" fill="#000"/><path d="M4 9.058c0-.176.009-.35.026-.521l4.45-4.51a5.016 5.016 0 011.225.024L4.05 9.777A5.152 5.152 0 014 9.057M5.728 12.885a5.117 5.117 0 01-.615-.643L7.647 9.69c.112-.049.276-.023.353.073v.73l-2.272 2.392zM12.133 5.128c.23.188.442.396.635.622L10 8.537V7.27l2.133-2.143zM11.167 4.505c.275.135.536.294.78.476l-6.979 7.071a5.111 5.111 0 01-.47-.789l6.67-6.758zM9.984 4.1c.331.068.651.17.955.3l-6.544 6.632a5.075 5.075 0 01-.296-.968L9.984 4.1zM4.08 8.145c.37-2.062 1.975-3.687 4.01-4.063L4.08 8.145z" fill="#6FBE4A"/><path d="M12.891 12.164a5.12 5.12 0 01-.61.65L10 10.516v-1.27l2.891 2.918zM13.516 11.218c-.13.277-.256.517-.432.763l-3.065-3.106.591-.6 2.906 2.943zM13.908 10.015a5.086 5.086 0 01-.289.97l-2.843-2.878.625-.633 2.507 2.541zM12.357 6.505l.564-.57c.48.619.835 1.34.989 2.144l-1.553-1.574zM12.191 6.673l1.778 1.803a5.203 5.203 0 01-.014 1.25l-2.388-2.42.624-.633z" fill="#00954C"/></svg>