<!-- by TradingView --><svg xmlns="http://www.w3.org/2000/svg" width="18" height="18"><path fill="#F0F3FA" d="M0 0h18v18H0z"/><path d="M4 13h-.5c-.27 0-.5-.21-.5-.54V5.55c0-.33.23-.55.5-.55H4v8z" fill="#00B2A9"/><path d="M4.69 13C6.7 13 9 11.89 9 9c0-3.03-2.2-4-4.47-4H4v1h.47C6.47 6 8 6.88 8 9c0 1.88-1.41 3-3.44 3H4v1h.69z" fill="#34B233"/><path d="M12.57 12.97c.41 0 .6-.14.7-.36l2.68-6.78a.69.69 0 00.05-.28c0-.21-.1-.38-.3-.48a.93.93 0 00-.35-.07.67.67 0 00-.57.37l-2.73 6.82c-.17.38.2.78.52.78z" fill="#6E2CA9"/><path d="M12.76 13c-.42 0-.61-.17-.71-.38l-2.99-6.8A.7.7 0 019 5.56c0-.21.12-.38.32-.48A.93.93 0 019.67 5c.23 0 .47.17.56.37l3.04 6.83c.17.38-.13.8-.51.8z" fill="#C70099"/></svg>