<!-- by TradingView --><svg xmlns="http://www.w3.org/2000/svg" width="18" height="18"><path fill="#F0F3FA" d="M0 0h18v18H0z"/><path d="M8.76 6.39A7.24 7.24 0 016.57 3c-.4.75-.76 1.82-.76 1.82.47.7 1.8 1.73 2.41 2.16l-.88.98.3.07A7.15 7.15 0 015 9.68c.4.26 1.32.65 1.72.8l.72-.66-.62 3.99 1 .19h2.44l.97-.2-.59-3.98c.31.48.6 1.3.7 1.66.35-.64.67-1.47.78-1.8a9.83 9.83 0 00-1.7-1.65l.33-.07-.9-.98A6.37 6.37 0 0113 4.83a9.1 9.1 0 00-1.75-.8 9.93 9.93 0 00-1.93 2.36l-.28-.32-.28.32z" fill="#004167"/></svg>