<!-- by TradingView --><svg width="18" height="18" xmlns="http://www.w3.org/2000/svg"><path fill="#F0F3FA" d="M0 0h18v18H0z"/><path d="M4.2 6.001h3.901L7.753 7.66H5.935l-.16.673h1.818l-.297 1.491H5.68l-.205.8c.418.163 1.738-.066 2.435-.268L7.59 12H3L4.2 6z" fill="#00214A"/><path d="M11.1 6H8.84l-.939 4.38L7.574 12H9.6l.6-1.667.468 1.667L12 10.333 11.7 12h2.1L15 6h-2.4l-.993 1.333L11.1 6z" fill="#BB000D"/><path d="M8.1 6.001H9l-.3 1.666h1.952c.362 0 .463.31.447.52 1.034-.101 1.392.304 1.445.561l.057.584s-.055-.08-.097-.125c-.107-.115-1.133.057-1.133.057-1.616.34-1.763.493-3.412 1.085-1.319.473-2.65.44-2.859.318l.3-1h1.8l.3-1.334H5.7l.3-1h1.8l.3-1.332z" fill="#F0F3FA"/></svg>