<!-- by TradingView --><svg xmlns="http://www.w3.org/2000/svg" width="18" height="18"><path fill="green" d="M0 0h18v18H0z"/><path fill-rule="evenodd" d="M15 8.62c-.02 1.14-.67 2.16-1.78 2.24-.26.02-.79-.04-.85-.42-.15.14-.55.42-1.09.42a1.7 1.7 0 01-1.6-1.77c0-1.21.92-1.92 1.78-1.92.59 0 .83.23.94.32l.04.04.05-.28h.83l-.27 2.56c-.01.09 0 .28.13.28.27 0 .89-.28.95-1.5.05-1.2-.92-2.21-2.45-2.21a2.73 2.73 0 00-2.8 2.7c.01 1.55 1.24 2.54 2.76 2.54 1.15 0 1.88-.33 2.15-.52l.37.85c-.52.35-1.34.55-2.65.55a3.5 3.5 0 110-7c2.26 0 3.36 1.23 3.49 3.12zm-4.37.51c.03-.87.64-1.08.95-1.07.76.05.75.73.66 1.07-.09.3-.35.86-.92.8-.58-.05-.7-.55-.7-.8zM4 6h3.31v1.36H5.38v.96H7.3v1.36H5.38v.96H7.3V12H4V6z" fill="#fff"/></svg>