<!-- by TradingView --><svg width="18" height="18" xmlns="http://www.w3.org/2000/svg"><path fill="#E2231A" d="M0 0h18v18H0z"/><path d="M10.934 7H9.527l-.446.81L8.636 7H7.231l1.054 2-1.095 2H8.57l.473-.905.486.905h1.379L9.812 9l1.122-2zM5.81 9.034c.055-.068.568-.702.568-1.323 0-1.08-.878-1.674-1.96-1.674-1.35.013-1.945.837-1.945 1.674 0 .5.216.837.527 1.107-.176.135-.797.661-.797 1.417 0 .918.743 1.796 2.148 1.796 1.433 0 2.149-.878 2.149-1.769 0-.58-.297-.958-.69-1.228zM4.393 7.292c.378 0 .608.216.608.54 0 .351-.149.621-.203.716-.513-.216-.932-.419-.932-.797 0-.256.162-.459.527-.459zm-.04 3.483c-.393 0-.703-.297-.703-.675 0-.31.175-.553.31-.702.568.257 1.082.46 1.082.783 0 .392-.257.594-.69.594zM15.108 9.034c.054-.068.568-.702.568-1.323 0-1.08-.879-1.674-1.96-1.674-1.351 0-1.946.823-1.946 1.66 0 .5.216.837.527 1.107-.175.135-.797.662-.797 1.404 0 .918.743 1.796 2.149 1.796 1.432 0 2.148-.878 2.148-1.769 0-.553-.297-.931-.689-1.201zM13.69 7.292c.379 0 .608.216.608.54 0 .351-.148.621-.202.716-.514-.216-.933-.419-.933-.797 0-.256.162-.459.527-.459zm-.04 3.483c-.392 0-.703-.297-.703-.675 0-.31.176-.553.31-.702.568.257 1.082.46 1.082.783 0 .392-.257.594-.69.594z" fill="#fff"/></svg>