<!-- by TradingView --><svg width="18" height="18" xmlns="http://www.w3.org/2000/svg"><path fill="#0B2677" d="M0 0h18v18H0z"/><path d="M13.933 9.82a5 5 0 10-9.14 1.882c.22-.659.534-1.47.698-1.893l.066-.171a.89.89 0 01.561-.485c.153.306.46.51.816.536a2.4 2.4 0 00-.306.56 8.246 8.246 0 01-.56 1.046c-.077.102-.18.179-.307.179-.192-.105-.229-.354-.257-.55a.816.816 0 00-.049-.215c0-.026-.05-.051-.076-.051-.013 0-.02 0-.023.003-.003.003-.003.01-.003.022-.033.033-.023.16-.012.309.006.082.012.17.012.252-.05.28-.153.562-.28.842.408.51.892.944 1.453 1.25.102-.612.23-1.199.408-1.786 0 0 0-.025-.025-.025-.204.459-.46.867-.714 1.275-.026.026-.102 0-.153-.127-.026-.128-.051-.179-.128-.179-.178 0-.331-.127-.357-.28a.173.173 0 01.102-.205c.026 0 .051-.006.077-.012a.319.319 0 01.076-.013c.332-.102.46-.255.638-.561.085-.146.17-.338.264-.55.102-.231.215-.485.348-.725.28-.485.561-.918.867-1.046.561-.23.842.026.918.102-.586-.025-.918.383-1.198.842v.05h.05c.23-.229.715-.586 1.53-.56-1.45 1.775-.816 3.82-.574 4.452a5.125 5.125 0 00.87-.015C7.72 9.818 11.66 7.489 13.776 10.48a4.97 4.97 0 00.107-.403c-1.658-2.497-4.17-.975-4.297-.847a.502.502 0 01.255-.383 3.249 3.249 0 012.066-.383c.733.102 1.466.553 2.025 1.356zm-.22.855c-2.318-3.095-5.368-.25-3.647 3.211a4.96 4.96 0 00.963-.315c-1.324-2.282.947-4.4 2.423-2.292.1-.194.187-.396.26-.604zm-.36.786c-1.349-1.99-3.222-.065-1.936 1.917a5.023 5.023 0 001.936-1.917zm-5.78 2.332c.025-2.32.56-3.237.892-3.773v-.025h-.026c-.51.331-1.096 1.426-1.376 3.616.165.07.335.13.51.182zm2.192-6.782c-.076-.026-.102-.051-.102-.102 0-.026-.025-.153-.05-.28 0-.052 0-.128.05-.128.051.063.109.12.16.172.05.05.095.095.12.134.052.05.052.102-.025.153a.362.362 0 01-.153.05zm-.382.79c-.153.026-.714-.05-.816-.484a.362.362 0 00-.051-.153s-.026 0-.026.05c0 .052 0 .077-.05.103-.052.025-.205 0-.358-.23-.127-.23-.025-.28 0-.28.077-.026.153.025.179.102v.025c.025.102.178.153.153-.102-.026-.127 0-.255.102-.331a1.28 1.28 0 01.154-.102c.065-.038.105-.062.075-.077a.785.785 0 00-.331-.076.993.993 0 00-.791.459c-.025.05-.102.076-.153.076.561-.841 1.173-1.199 1.556-1.199.102 0 .178.026.23.102a1.871 1.871 0 00-.51.128 1.493 1.493 0 00-.434.255c.025.051.076.051.127.051a.32.32 0 00.077-.013.32.32 0 01.076-.012l.038-.017c.551-.24.6-.261.65-.136l.03.05c.081.139.11.19-.004.281-.03.02-.066.039-.101.057-.141.073-.276.142-.052.326a.82.82 0 00.104.084c.102.073.196.14.177.35 0 .066-.044.122-.09.18-.095.123-.201.259.039.533zM7.29 6.985a.275.275 0 00.256.204.485.485 0 00.156-.027.393.393 0 01.124-.024c-.076.179-.28.28-.459.204a.454.454 0 01-.204-.178.457.457 0 01.127-.179zm-.178-.204c-.255.408-.663-.05-.332-.178.077.102.204.153.332.178zM8.55 8.87c-.112-.027-.775-.19-1.438.616-.434-.051-.587-.306-.638-.434l.103-.038c.256-.091.847-.304 1.02-.498.255-.306.382-.969.382-.969 0-.05.051-.076.077-.076.102 0 .178.076.23.153.11.135.114.264.12.44.006.192.014.439.16.81l-.016-.004zm1.674-1.654a.276.276 0 010 .28c.025.051.025.077.025.128a.276.276 0 01-.076.178v.026a.366.366 0 01-.128.459.954.954 0 01-.46.127c-.152 0-.382-.025-.382-.025a.937.937 0 00.026.459 1.462 1.462 0 01-.153-.638c.074.013.16.02.244.025.089.007.175.013.24.026.128.026.255-.025.383-.102.076-.05.102-.153.076-.23-.05-.076-.05-.152.026-.229.05-.025.025-.102-.026-.127-.05-.026-.05-.051 0-.102.077-.077.077-.102.026-.179-.026-.025-.026-.05-.026-.076 0-.051 0-.077.051-.077.103-.025.179-.102.179-.204a.193.193 0 00-.051-.102c-.102-.127-.204-.255-.332-.382-.05-.051-.05-.128-.025-.204a.163.163 0 000-.153 1.691 1.691 0 00-.23-.485c0-.026-.025-.051-.025-.051.076-.179-.153-.536-.485-.536-.05 0-.102 0-.153-.025-.127-.077-.306-.153-.74-.153-.203 0-.407.025-.611.102-.332.127-.613.459-.485.765 0-.051.178-.612.714-.561a.411.411 0 00-.153.331.11.11 0 00.102.102c.051 0 .077-.025.102-.076.133-.31.285-.255.34-.235l.017.005s-.204.077-.127.357c0 .026 0 .077-.051.077H8.03c-.028 0-.048-.004-.064-.007-.056-.01-.069-.013-.267.185-.153.128-.358.103-.485-.05l-.026-.026a.533.533 0 00-.102.153c-.127.357.255.332.255.332l-.153.23a.377.377 0 01-.408-.358c0-.051 0-.127.026-.178a.363.363 0 00-.153.408c-.612.306-.23.841.178.867 0-.026-.025.51.357.51.065 0 .098-.014.131-.027.046-.02.093-.039.227-.024a.532.532 0 01-.409.204c-.28 0-.51-.23-.51-.51a1.07 1.07 0 01-.357-.23c-.05-.05-.382-.51.179-.867 0-.658.384-.872.486-.93.013-.006.021-.01.024-.014.331-.994 1.76-.867 2.142-.612.756.098.72.638.715.708v.006c.101.153.178.332.229.51a.47.47 0 01-.018.25l-.008.031.197.238c.167.199.211.252.211.349a.558.558 0 01-.204.357z" fill="#fff"/></svg>