<!-- by TradingView --><svg width="18" height="18" xmlns="http://www.w3.org/2000/svg"><path fill="#DE411B" d="M0 0h18v18H0z"/><path d="M7.468 14C6.695 14 6 13.295 6 12.43v-1.122c0-.097.022-.353-.12-.513-.144-.16-.436-.128-.503-.128h-.974C3.63 10.667 3 9.865 3 9c0-.833.63-1.667 1.403-1.667h.974s.33 0 .502-.192c.143-.16.121-.417.121-.449V5.571C6 4.705 6.695 4 7.468 4c.687 0 1.231.513 1.374 1.218a1.1 1.1 0 01.03.32v1.09c0 .096.056.353.2.513.2.224.486.256.486.256h.974c.774 0 1.404.706 1.404 1.57 0 .866-.63 1.572-1.404 1.572-.773 0-1.403-.706-1.403-1.571V7.846a.919.919 0 00-.2-.513c-.144-.16-.43-.224-.459-.224H6.494s-.315.032-.487.224c-.143.16-.2.449-.2.513v2.212c0 .064.057.352.2.512.2.225.487.225.487.225h.974c.773 0 1.403.705 1.403 1.57-.029.93-.659 1.635-1.403 1.635zM9.1 5.57c0 .866.63 1.571 1.404 1.571h.973s.287.032.487.224c.143.16.2.481.2.513v2.244c0 .096-.057.32-.2.513-.172.192-.487.224-.487.224H9.53a.73.73 0 01-.458-.224.919.919 0 01-.2-.513V9c0-.865-.631-1.57-1.404-1.57-.773 0-1.404.705-1.404 1.57 0 .865.63 1.57 1.404 1.57h.974s.286.033.486.257c.144.16.2.48.2.513v1.121c0 .129 0 .193.03.321.143.705.687 1.218 1.374 1.218.774 0 1.468-.705 1.468-1.57v-1.122a.88.88 0 01.165-.481c.171-.192.424-.16.458-.16h.974c.773 0 1.403-.834 1.403-1.699 0-.865-.63-1.635-1.403-1.635h-.974a.767.767 0 01-.458-.192c-.143-.16-.165-.417-.165-.48V5.57C12 4.705 11.306 4 10.532 4 9.73 4.032 9.1 4.705 9.1 5.57z" fill="#fff"/></svg>