<!-- by TradingView --><svg width="18" height="18" xmlns="http://www.w3.org/2000/svg"><path fill="#F0F3FA" d="M0 0h18v18H0z"/><path d="M6.623 4.657c.238-.158.946-.497 1.874-.592l.987.683a9.727 9.727 0 01-1.947.63l-.914-.72zm-2.362 5.93c1.733-.096 5.546-.56 6.942-1.646l2.383.58c-1.046.738-4.136 2.318-7.364 2.606-1.36-.692-1.898-1.092-1.96-1.54z" fill="url(#paint0_linear)"/><path d="M4.357 7.127c1.556-.082 5.023-.52 6.434-1.613l1.92.838c-.95.663-3.563 2.04-6.408 2.251-.508-.282-1.61-.973-1.946-1.476zm6.73 5.072c-.198.15-.873.524-1.989.811l2.128.452a4.66 4.66 0 001.279-.893l-1.419-.37z" fill="#3B393A"/><path d="M8.343 4.044c1.048-.173 3.509.07 4.97 2.436-.77-.12-2.843-.777-4.97-2.436zm-1.533.473c.795.946 3.301 2.88 6.963 3.046a5.28 5.28 0 01.197 2.062c-2.825-.523-4.106-.818-8.792-3.809.186-.262.773-.888 1.632-1.299zm6.832 6.283c-4.563-.108-8.088-2.502-9.28-3.685-.217.421-.332 1.329-.362 1.73 3.009 2.433 5.892 3.128 7.749 3.575.271.066.521.126.746.186.809-.807 1.102-1.54 1.147-1.806zm-9.317-.003c2.816 1.847 3.928 2.077 6.94 2.643-1.469.813-5.171 1.297-6.94-2.643z" fill="url(#paint1_linear)"/><defs><linearGradient id="paint0_linear" x1="7.831" y1="4.282" x2="10.167" y2="11.593" gradientUnits="userSpaceOnUse"><stop stop-color="#2259A3"/><stop offset="1" stop-color="#214987"/></linearGradient><linearGradient id="paint1_linear" x1="4.412" y1="6.453" x2="13.049" y2="11.659" gradientUnits="userSpaceOnUse"><stop stop-color="#FAE637"/><stop offset="1" stop-color="#EA4938"/></linearGradient></defs></svg>