<!-- by TradingView --><svg width="18" height="18" xmlns="http://www.w3.org/2000/svg"><path fill="url(#paint0_linear)" d="M0 0h18v18H0z"/><path d="M7.622 8.832c-.033.033-.063.068-.095.098-.76-.694-1.38-1.588-1.818-2.614A9.06 9.06 0 015 3h2.065c0 1.775.568 3.1 1.934 4.465-.02.022-.04.041-.061.062L7.62 8.832zm2.851.098a3.71 3.71 0 00-.08.084l-1.318 1.308c-.027.025-.05.052-.076.077 1.358 1.365 1.949 2.831 1.935 4.6h2.064a9.41 9.41 0 00-.706-3.376c-.436-1.049-1.057-1.97-1.819-2.693z" fill="#fff"/><path d="M10.935 3.002c0 1.775-.568 3.1-1.934 4.465l-.062.062L7.62 8.834l-.094.098c-.76.725-1.379 1.644-1.815 2.692A9.47 9.47 0 005 14.997h2.064c-.013-1.768.578-3.234 1.935-4.601.025-.026.048-.053.075-.077l1.318-1.304c.028-.028.056-.056.08-.084.76-.695 1.382-1.589 1.82-2.615A9.06 9.06 0 0013 3h-2.065v.002z" fill="#A275FF"/><defs><linearGradient id="paint0_linear" x1="3.349" y1="3.122" x2="21.904" y2="24.434" gradientUnits="userSpaceOnUse"><stop stop-color="#1A1E21"/><stop offset="1" stop-color="#06060A"/></linearGradient></defs></svg>