<!-- by TradingView --><svg width="18" height="18" xmlns="http://www.w3.org/2000/svg"><path fill="url(#paint0_linear)" d="M0 0h18v18H0z"/><path d="M3.088 5.552C2.885 5.334 3.056 5 3.369 5h3.033c.108 0 .211.044.281.119L9.487 8.14c.203.218.032.552-.282.552H6.173a.385.385 0 01-.282-.119L3.088 5.552z" fill="#95C93D"/><path d="M8.513 5.552C8.31 5.334 8.48 5 8.795 5h3.032c.108 0 .212.044.282.119l2.803 3.021c.203.218.032.552-.281.552h-3.033a.385.385 0 01-.281-.119L8.513 5.552z" fill="#317CC0"/><path d="M14.912 9.86c.203-.219.032-.552-.281-.552h-3.033a.384.384 0 00-.281.119l-2.804 3.021c-.203.218-.032.552.282.552h3.032a.385.385 0 00.282-.12l2.803-3.02z" fill="#073552"/><path d="M9.487 9.86c.203-.219.032-.552-.282-.552H6.173a.385.385 0 00-.282.119l-2.803 3.021c-.203.218-.032.552.281.552h3.033a.384.384 0 00.281-.12l2.804-3.02z" fill="#ACB1BA"/><defs><linearGradient id="paint0_linear" x1="3.349" y1="3.122" x2="21.904" y2="24.434" gradientUnits="userSpaceOnUse"><stop stop-color="#1A1E21"/><stop offset="1" stop-color="#06060A"/></linearGradient></defs></svg>