<!-- by TradingView --><svg xmlns="http://www.w3.org/2000/svg" width="18" height="18"><path fill="#F0F3FA" d="M0 0h18v18H0z"/><path d="M5.3 13.73l.6-.8a5 5 0 015.35-8.4l.6-.81A6 6 0 005.3 13.73z" fill="#F29D5E"/><path d="M9 15a6 6 0 003.67-10.75l-.6.8a5 5 0 01-5.3 8.43l-.6.81C7 14.74 7.97 15 9 15z" fill="#FFC315"/><path d="M9.35 6H8.6L7.28 8.67h.76L9.35 6zM7.68 9.33H6.9L5.61 12h.76l1.3-2.67zM10.1 6h.77L9.56 8.67h-.77L10.1 6zm-.9 3.33h-.77L7.12 12h.76L9.2 9.33zM11.6 6h.77l-1.31 2.67h-.77L11.61 6zm-.9 3.33h-.77L8.63 12h.76l1.31-2.67z" fill="#023F5C"/></svg>