<!-- by TradingView --><svg width="18" height="18" xmlns="http://www.w3.org/2000/svg"><path fill="#E21D38" d="M0 0h18v18H0z"/><path d="M14 9a5 5 0 01-8.687 3.377c.854.159 1.865.269 3.014.292v-.338c-.675-.044-.99-.135-1.037-.27-.089-.255-.187-2.616-.165-3.686h1.187c.092-.041.202-.081.312-.121.131-.048.262-.096.36-.145V7.75H7.126s.007-1.027.03-1.456c.024-.293.317-.473.497-.473.38-.032.695.132 1.015.298.118.061.237.123.36.175.067.024.158.044.226-.023l.048-.06c.074-.092.147-.182.222-.254.044-.068.023-.112 0-.136-.138-.108-.265-.205-.396-.305a95.045 95.045 0 01-.189-.144c-.302-.247-1.053-.07-1.436.02-.038.01-.073.017-.103.024-.878.247-1.96.855-2.074 1.868-.024.159-.075.565-.075.565-.136.013-.26.029-.383.045-.1.012-.199.025-.3.036-.013.108-.019.21-.025.312-.005.089-.01.178-.02.272.124-.013.254-.018.388-.024.112-.005.226-.01.34-.02-.006.902.045 2.074.079 2.872l.022.537c-.023.091-.11.136-.336.136l.259.32a5 5 0 117.65-6.433 9.996 9.996 0 01-.475-.078 8.746 8.746 0 00-.605-.094 18.269 18.269 0 00-1.645-.135c-.388 1.081-.84 2.456-1.314 3.899 2.456.202 3.402.878 3.358 1.8-.044.497-.517.97-1.125 1.014-.72.044-1.058-.247-1.26-.564-.106-.174-.22-.347-.339-.525l-.246-.377c-.042-.088-.13-.028-.196.019a3.844 3.844 0 00-.302.295l-.133.138c-.091.091-.068.159-.044.227l.04.094c.122.283.243.566.365.828.226.135 1.24.314 1.983.247a3.534 3.534 0 001.69-.632c.516-.405.901-.946.969-1.824.023-.54-.068-1.105-.541-1.622-.473-.517-1.284-.946-2.929-1.057.041-.123.078-.24.113-.355.043-.14.086-.275.134-.412.99.044 1.868.112 2.614.203.033-.14.055-.275.077-.407.018-.114.037-.226.061-.338.522.79.826 1.737.826 2.754z" fill="#fff"/></svg>