<!-- by TradingView --><svg width="18" height="18" xmlns="http://www.w3.org/2000/svg"><path fill="#1C4094" d="M0 0h18v18H0z"/><path d="M8 5v2H4V5h4zm.166 4.178c-.198-.64-.75-1.052-1.488-1.178H4c1.079.36 1.415 1.26 1.415 1.26C5.675 10.523 4 11 4 11h3.013c.778-.1 1.403-1.013 1.153-1.822zm4.711 1.19c.674-.123 1.315-.752 1.055-1.51-.179-.58-.772-.853-1.403-.858h-2.344c1.004.325 1.19.907 1.19.907s.461 1.172-1.064 1.46c.528.13.923.56 1.065 1.065.26 1.155-1.154 1.568-1.154 1.568h2.269c.707 0 1.661-.644 1.488-1.568-.113-.604-.542-.856-1.102-1.065zM8.288 13l2.232-8H10l-2.195 8h.483z" fill="#fff"/></svg>