<!-- by TradingView --><svg width="18" height="18" fill="none" xmlns="http://www.w3.org/2000/svg"><path fill="#F0F3FA" d="M0 0h18v18H0z"/><path fill-rule="evenodd" clip-rule="evenodd" d="m2 12 1.1-4.844A1.474 1.474 0 0 1 4.531 6H7.21l-1.123 4.85A1.474 1.474 0 0 1 4.656 12H2Zm1.574-3.932L3.042 10.5c.403 0 .856-.28.943-.673l.105-.452h.727c.344 0 .668-.19.872-.513l.15-.237H4.263l.087-.375h1.233c.264 0 .512-.196.671-.406l.261-.344H4.28a.723.723 0 0 0-.706.568Z" fill="#1369B2"/><path fill-rule="evenodd" clip-rule="evenodd" d="m5.723 13 1.771-6.466C7.67 5.636 8.348 5 9.131 5h3.059l-1.798 6.475C10.214 12.368 9.537 13 8.757 13H5.723ZM7.78 7.667l-.834 2.666c.484 0 1.034-.252 1.129-.603l.106-.392h1.608c.463 0 .867-.232.982-.564l.152-.438c.117-.34-.23-.67-.702-.67H7.779Zm.693.666-.124.37h1.44l.16-.37H8.472Z" fill="#F27227"/><path fill-rule="evenodd" clip-rule="evenodd" d="m10.831 12 1.09-4.844A1.465 1.465 0 0 1 13.344 6H16l-1.114 4.85a1.465 1.465 0 0 1-1.42 1.15h-2.635Zm1.348-4.45v.239a.48.48 0 0 0 .479.482h.545l-.513 2.166h.062c.375 0 .698-.232.774-.554l.378-1.612h1.054v-.24a.48.48 0 0 0-.479-.482h-2.3Z" fill="#29B047"/></svg>