<!-- by TradingView --><svg width="18" height="18" xmlns="http://www.w3.org/2000/svg"><path fill="#124B88" d="M0 0h18v18H0z"/><path d="M9.136 5.75c-.523.167-.904.443-1.04.756a.915.915 0 00-.092.354v.553c0 .084-.045.146-.113.167a.506.506 0 00-.114.062l-.114.042L4 9v5h3l2.444-1.101a1.39 1.39 0 00.341-.188c.25-.166.236-.435.236-1.232L14.001 10V4L9.135 5.75z" fill="#F6F8FD"/><path d="M6 10.688a54.074 54.074 0 002.363-.875c.114-.063.233-.127.324-.231v.667c-.023.208-.21.376-.415.438-.772.313-1.43.542-2.271.834v-.834zm3.386-4.053C8.886 6.8 9 6.937 9 7.29v.543c0 .384-1.046.774-1.046.774L4 10.004V14h2v-.854l1.977-.792S9 12 9 11.521c0 0 0-.438.022-.73 0-.155-.022-.458.16-.458l3.814-1.33V7.44L9.318 8.708c-.523.188-.63.396-.63.396v-.396c0-.062.016-.22.744-.49L12.996 7V5.401l-3.61 1.234z" fill="#D11F44"/></svg>