<!-- by TradingView --><svg width="18" height="18" fill="none" xmlns="http://www.w3.org/2000/svg"><path fill="#063" d="M0 0h18v18H0z"/><path d="M11 13c2.756-1.874 3.972-1.685 4.517-1.564C15.415 11.799 14 13 13.5 13H11z" stroke="#fff" stroke-width=".3"/><path d="M12.519 11.436c1.015-.87 2.453-.967 2.453-.967s-.06.665-.181.846" stroke="#fff" stroke-width=".3"/><path d="M13.824 9.622s-.786.242-.943.484l-.362 1.33 1.088-.847c.277-.423.217-.967.217-.967zM13.607 10.59c.12-.142.447-.472.786-.666.338-.193 1.22-.241 1.607-.12 0 0-.314 1.124-1.184 1.51M12.731 9.018c0 2.585-1.769 4.636-3.9 4.636-2.132 0-3.9-2.051-3.9-4.636 0-2.586 1.768-4.637 3.9-4.637 2.131 0 3.9 2.051 3.9 4.637z" stroke="#fff" stroke-width=".3"/><path d="M9 12.07V5.5c0-.435.416-.369.577-.308C11.451 5.857 12 7.577 12 7.758c0 .145-.06.242-.182.242h-.544c-.096 0-.201-.08-.241-.121L10 6.659v4.84c.677-.338 1-1.116 1-1.5V8.775c0-.145.12-.242.215-.242h.578c.242 0 .207.242.207.242V10c0 1.5-1.412 2.718-2 2.718h-.265c-.532 0-.715-.466-.735-.648zM8.474 6.39V5.15C7 5.499 5.99 6.709 5.748 8.594c-.242 1.886.7 3.602 1.486 4.146h1.562c.048-.145-.02-.16-.06-.181-1.319-.66-1.981-2.612-1.88-3.56h1.376c.194 0 .242-.142.242-.182V8.18c0-.145-.12-.181-.181-.181H7c.242-.87 1.053-1.61 1.474-1.61z" fill="#fff"/><path d="M3.874 10.469c-.181-.242.035-.968.035-.968s.57.182.69.423L5 11" stroke="#fff" stroke-width=".3"/><path d="M3.5 11.5c-.66-.248-.558-1.031-.558-1.031a8.76 8.76 0 011.088.12c.531.09.686.119 1.23.663" stroke="#fff" stroke-width=".3"/><path d="M3.874 10.529c0-.345-.873-.665-1.149-.665H2s0 .423.06.544c.06.12.182.544 1.028.907M6 12.5c-.5-.5-2.822-1.125-3.097-1.125h-.747s.121.484.423.847c.303.362.999.778 1.421.778h2.5" stroke="#fff" stroke-width=".3"/></svg>