<!-- by TradingView --><svg width="18" height="18" viewBox="0 0 18 18" xmlns="http://www.w3.org/2000/svg"><path fill="#F0F3FA" d="M0 0h18v18H0z"/><path d="M15 9A6 6 0 1 1 3 9a6 6 0 0 1 12 0Z" fill="#7EC500"/><path fill-rule="evenodd" d="M9 14.5a5.5 5.5 0 1 0 0-11 5.5 5.5 0 0 0 0 11Zm0 .5A6 6 0 1 0 9 3a6 6 0 0 0 0 12Z" fill="#013A81"/><path d="M13.33 9a4.33 4.33 0 1 1-8.66 0 4.33 4.33 0 0 1 8.66 0Z" fill="#F0F3FA"/><path d="M7 6.17c0-.1.07-.17.17-.17h1.66c.1 0 .17.07.17.17v1c0 .09-.07.16-.17.16h-.16v1h.16c.1 0 .17.08.17.17v1c0 .1-.07.17-.17.17h-.16v2.16c0 .1-.08.17-.17.17H7.17a.17.17 0 0 1-.17-.17V6.17ZM9.33 8.5c0-.1.08-.17.17-.17h1.33c.1 0 .17.08.17.17v1c0 .1-.07.17-.17.17H9.5a.17.17 0 0 1-.17-.17v-1ZM9.5 6c-.1 0-.17.07-.17.17v1c0 .09.08.16.17.16h1.67c.09 0 .16-.07.16-.16v-1c0-.1-.07-.17-.16-.17H9.5Z" fill="#013A81"/></svg>