<!-- by TradingView --><svg width="18" height="18" xmlns="http://www.w3.org/2000/svg"><path fill="#F0F3FA" d="M0 0h18v18H0z"/><path d="M5.33 13.982H4v-1.243c.12.287.3.546.529.76.229.215.502.379.801.483zM4 10.7V4h3.653c-.59.241-1.235.636-1.444 1.322-.4 1.224.209 2.522.513 2.985C6.209 8.585 4.684 9.494 4 10.7zM9.344 12.405c-1.559 1.336-3.934 1.224-4.257-.778C4.783 9.79 6.95 8.864 6.95 8.864c1.445 2.577 2.395 3.541 2.395 3.541z" fill="#ED1C24"/><path d="M7.349 5.618c.133-1.242 1.197-1.335 1.463-1.298.247.037 1.273.39 1.045 1.558-.228 1.187-1.843 1.891-1.843 1.891s-.722-1.576-.665-2.15M9.8 12.85s.874.798 1.558 1.15H7.52c.173-.035.344-.078.513-.13.627-.185 1.216-.575 1.748-1.057l.019.037z" fill="#ED1C24"/><path d="M14 7.547h-3.193v.352s1.045-.167 1.027.76c-.02 1.039-1.35 2.485-1.464 2.597-.247-.279-.494-.612-.798-1.002a19.712 19.712 0 01-1.33-2.058s1.805-.723 2.28-1.687c.418-.853.342-1.953-1.235-2.509H14v3.547z" fill="#ED1C24"/><path d="M12.764 8.79a18.169 18.169 0 01-1.957 2.948c.655.692 1.696 1.557 2.766 1.335.154-.032.3-.095.426-.186V7.9a1.89 1.89 0 00-.715.316c-.213.153-.39.35-.52.574M13.43 13.982c.201-.077.393-.176.57-.297v.296h-.57z" fill="#ED1C24"/></svg>