<!-- by TradingView --><svg width="18" height="18" xmlns="http://www.w3.org/2000/svg"><path fill="#09382B" d="M0 0h18v18H0z"/><path d="M11.027 12.258a.5.5 0 00-.448-.162c-.143-.028-.355.248-.443.39l-.222.232-.787-.31-.115-.528-.233-1.039.191-.506c.138-.001.455-.015.605-.012.15.003.26.14.297.201.267.029 1.27.205 1.486.581.535.396.225.933.012 1.153-.043.074-.172.176-.343 0z" fill="#fff"/><path d="M10.855 12.022c-.1-.102-.067-.203-.134-.338-.033-.135-.033-.102-.033-.102s.134.068.368.203c.267.17.167.406.167.406s0 .034.067.034c.067.034.1-.034.067 0a.105.105 0 01.033.067s.067.305-.133.44c-.168.101-.402.067-.402.067s.2-.033.234-.27c.034-.135-.067-.27-.067-.27s.034-.034.034-.068c0-.102-.1-.068-.201-.17zm-4.75-3.043c.066.102.1.17.1.17-.067.067-.067.202 0 .304.066.135.1.236.1.236s-.067.068-.034.17c.034.168.1.337.268.506.2.237.268.372.268.372s-.067.102.033.237c.1.169.368.27.435.405.034.17.268.17.301.271.034.135.167.203.234.27.067 0 .134.034.134.102.034.135.301.169.435.27 0 0-.636.237-1.17.474-.603.236-.904-.136-.904-.136s.1.643.702.744c.302.068.603 0 .603 0s-.168.17-.402.304c-.267.135-.401.068-.401.068s.134.237.568.135c.201-.034.368-.169.368-.169s0 .135-.2.237c-.168.135-.268.135-.268.135s.134.034.301.135a1.1 1.1 0 00.502.135c.167-.033.368-.169.368-.169s-.033.102-.033.136c0 .101.033.135.033.135s.034-.27.602-.068c.603.203.87.068.87.068s-.1-.068-.167-.135c-.034-.068-.034-.136-.034-.136s.168.17.67.034c.368-.067.635-.372.635-.372s-.435-.067-.702-.743c-.168-.406-.1-.643 0-.778.1-.169.267-.237.267-.237s-.234 0-.401.17c-.134.135-.167.236-.167.236s-.168-.101-.1-.406c0 0-.068 0-.168.068-.034.068-.134.135-.268.135-.134-.034-.167-.067-.167-.067s.134-.034.2-.17c.068-.168.168-.202.168-.202s-.067-.034-.167 0l-.134.067s-.034-.101.067-.236c.134-.17.3-.27.3-.27s-.1-.034-.233-.102c-.168-.101-.335 0-.335 0s.067-.135.234-.237c.134-.101.201-.135.201-.135s-.067 0-.134-.101c-.033-.102-.067-.203-.134-.27-.1-.136-.267-.102-.267-.102s.1-.068.2-.102c.168-.067.302-.034.302-.034s-.502-.574-.77-1.386a.484.484 0 01-.067-.202c-.401-1.522-.535-1.59-.535-1.59-.1 0-.1.136-.1.136s-.134-.101-.57-.879c-.167-.338-.334-.879-.367-.879-.034.034-.1.102-.1.27v.271s-.268-.338-.503-.913c-.167-.405-.267-.946-.334-.913-.1.034-.2.17-.167.372.033.203.2.778.2.778s-.267-.27-.468-.642c-.2-.338-.368-.913-.435-.913-.1.034-.2.304.067.946.134.372.268.609.268.609s-.368-.135-.603-.811c-.267-.677-.3-1.082-.3-1.082s-.068-.034-.135.135c-.066.135-.066.54.1 1.014.168.507.302.676.302.676s-.268-.101-.435-.405c-.234-.305-.368-.812-.368-.812s-.034.034-.067.102c-.033.067-.1.338.067.777.067.237.268.507.268.507s-.168-.067-.268-.203c-.1-.067-.2-.236-.2-.236-.135.034-.034.405.1.608.066.27.2.372.368.541.167.203.167.304.167.304-.067.102.2.372.301.44.167.135.2.169.2.169s-.133.068.168.338c.1.068.134.101.134.101s-.234.068.301.508c.134.101.167.169.167.169-.1.101-.067.169.034.304.033.067.067.169.067.169s-.1.034 0 .203c0 0 .033.033.033.067zm4.148 1.758c.368.135.836.068 1.104.372 0 0-.034-.068-.034-.169-.033-.203.034-.237.235-.575.401-.54 1.74-1.96 1.94-2.467.1-.203.2-.609.301-.947.134-.473.201-.913.201-.913-.134-.067-.234.203-.335.507-.033.136-.066.203-.066.203s-.034-.135.066-.54c.067-.339.134-.44.134-.44-.067-.068-.267.034-.368.405l-.134.406s-.033 0-.033-.169a.381.381 0 01.033-.27s-.133 0-.267.27c-.067.135-.1.372-.1.372-.034-.068-.034-.237-.034-.237-.067 0-.167.136-.2.305-.068.135-.068.338-.068.338-.067-.034-.067-.136-.067-.136s-.133.068-.2.372v.237c-.067-.034-.067-.135-.067-.135-.1.033-.201.202-.268.507 0 0-.1-.034-.167.067-.067.102-.134.338-.235.406-.066-.034-.133.034-.167.068-.067.101-.134.236-.2.304-.034-.034-.134 0-.168.034-.067.067-.134.236-.2.27-.034-.034-.134 0-.168.034-.033.034-.033.135-.1.203-.067-.034-.1 0-.134.067-.067.068-.067.136-.134.203-.067-.034-.134.034-.167.068-.034.034-.067.135-.1.203-.168.033-.235.54-.235.54s.168.136.402.237z" fill="#DDAD1B"/></svg>