<!-- by TradingView --><svg xmlns="http://www.w3.org/2000/svg" width="18" height="18" viewBox="0 0 18 18"><path fill="#F0F3FA" d="M0 0h18v18H0z"/><path d="M14.5 8h-11l.21 2h3.37c.66-.58 1.2-.9 1.95-.9.55 0 1.36.2 1.89.9h3.37l.21-2z" fill="#49C7ED"/><path d="M6.94 9.63c-1.26 1.36-1.86 3.65-1.95 4L6.4 14c.32-1.27 1.36-3.87 2.59-3.87 1.23 0 2.27 2.6 2.59 3.87l1.42-.36c-.09-.36-.69-2.65-1.95-4.01l-.14-.15H7.08l-.14.15z" fill="#005F9E"/><path d="M7.08 10h3.84C10.39 9.4 9.76 9 9 9s-1.4.4-1.92 1z" fill="#001738"/><path d="M9 7c1.5 0 1.5-2.92 1.5-2.92V3.5l-3 .58S7.5 7 9 7z" fill="#005F9E"/></svg>