<!-- by TradingView --><svg width="18" height="18" xmlns="http://www.w3.org/2000/svg"><path fill="#3B73B9" d="M0 0h18v18H0z"/><path fill-rule="evenodd" d="M13.401 11.375A4.978 4.978 0 0014 9c0-2.747-2.238-5-5-5a5 5 0 100 10c.86 0 1.668-.217 2.375-.599a5.166 5.166 0 002.026-2.026zm-3.177-3.719c0-.597.404-1.175.624-1.066.252.126-.188.688-.624 1.066zm-2.747.218c0-.48.473-1.392.763-1.295.341.114-.284 1.033-.763 1.295zm-.843 3.069c0 .232.128.442.346.432.747-.034 1.058-1.101 1.175-1.973-.655.32-1.521.917-1.521 1.541zm3.489-.873c0-.436.377-.8.871-.8.64 0 .975.552.975 1.148 0 .654-.584 1.408-1.413 1.408-1.004 0-1.494-.914-1.494-1.67 0-1.06.726-1.512 1.031-1.672a.583.583 0 01-.145-.174c-.349.248-.666.466-1.334.844-.03.466-.076.974-.192 1.322-.264.812-.774 1.35-1.442 1.35-.567 0-.825-.477-.825-.914 0-.32.189-.726.522-1.032.395-.354.829-.58 1.408-.883.04-.02.079-.04.119-.062.015-.086.03-.174.043-.276a.89.89 0 01-.581.204c-.305 0-.552-.262-.61-.539-.407-.028-.712-.32-.727-.785 0-.334.13-.625.348-.625.088 0 .117.073.117.13 0 .022-.01.06-.021.107-.022.087-.052.208-.052.33 0 .19.087.436.32.436 0-.755.552-1.73 1.206-1.73.436 0 .44.32.44.466 0 .683-.629 1.439-1.181 1.628.014.058.073.218.247.218.218 0 .48-.203.611-.364.058-.305.276-.741.566-.741.117 0 .175.087.175.189 0 .218-.24.501-.413.69a2.594 2.594 0 00-.056.44c.508-.304.79-.476 1.167-.752-.03-.102-.03-.219-.03-.334 0-.684.451-1.44 1.047-1.44.334 0 .51.233.51.495 0 .494-.422.93-1.018 1.38a.476.476 0 00.214.268s.195-.07.388-.062c.174.007.414.069.426.23.025.355-.75.23-.807.22a.32.32 0 00-.003 0c-.32.086-.905.45-.905 1.38 0 .626.35 1.277.96 1.277.464 0 .878-.444.892-.982 0-.349-.163-.687-.511-.687-.175 0-.35.125-.363.311-.01.158.063.242.13.318.053.06.102.116.102.2 0 .13-.102.189-.204.189-.29 0-.508-.291-.508-.654zm3.297.432c.016.005.024 0 .027-.005.002-.006.241-.648.233-1.497-.016-1.657-.843-3.372-2.66-3.925-.378-.117-.698-.188-1.06-.188-.502 0-.716.17-.89.306-.117.094-.217.173-.376.173a.348.348 0 01-.363-.348c0-.335.392-.597 1.017-.596.61 0 1.031.153 1.107.18a.156.156 0 00.013.005c.004.001.013 0 .02-.015.004-.011 0-.021-.005-.025-.026-.02-.706-.253-1.483-.247-1.672.013-3.373.857-3.925 2.66-.116.378-.19.698-.19 1.061 0 .501.17.72.308.897.094.121.173.223.173.383 0 .203-.16.348-.349.348-.334 0-.596-.377-.596-1.017 0-.157.011-.306.028-.44.043-.346.121-.6.143-.669 0-.004.002-.007.003-.01 0-.004-.002-.014-.015-.019-.013-.004-.023 0-.026.005A4.85 4.85 0 004.319 9c0 1.686.858 3.386 2.66 3.938.378.117.698.19 1.062.19.5 0 .714-.175.888-.317.118-.096.217-.178.377-.178a.36.36 0 01.363.363c0 .32-.378.582-1.018.582a3.654 3.654 0 01-1.117-.173c-.007-.003-.018.004-.022.014-.005.013 0 .025.007.03.163.072.71.23 1.482.23 1.67 0 3.386-.843 3.924-2.66.116-.363.188-.697.188-1.046 0-.511-.17-.728-.308-.903-.093-.118-.171-.217-.171-.376 0-.218.145-.364.35-.364.333 0 .593.393.594 1.033.002.54-.143 1.016-.17 1.104a.357.357 0 00-.004.015c0 .008.003.014.016.019z" fill="#fff"/></svg>