<!-- by TradingView --><svg xmlns="http://www.w3.org/2000/svg" width="18" height="18" viewBox="0 0 18 18"><path fill="#380D76" d="M0 0h18v18H0z"/><path d="M9 14l1.84-6H7.16L9 14z" fill="#E34329"/><path d="M4.58 8l-.56 1.82c-.05.17 0 .35.14.45L9 14 4.58 8z" fill="#FCA325"/><path d="M4.58 8h2.58L6.05 4.63c-.06-.17-.3-.17-.36 0L4.58 8z" fill="#E34329"/><path d="M13.42 8l.56 1.82c.05.17 0 .35-.14.45L9 14l4.42-6z" fill="#FCA325"/><path d="M13.42 8h-2.58l1.11-3.37c.06-.17.3-.17.36 0L13.42 8z" fill="#E34329"/><path d="M9 14l1.84-6h2.58L9 14zM9 14L4.58 8h2.58L9 14z" fill="#FC6E26"/></svg>