<!-- by TradingView --><svg width="18" height="18" xmlns="http://www.w3.org/2000/svg"><path fill="#F0F3FA" d="M0 0h18v18H0z"/><path d="M14.27 8.304c-.105-1.353-1.01-3.046-1.778-3.527.655.262 2.137 1.323 2.455 3.527.33 2.281-.961 3.835-1.688 4.383 1.427-1.528 1.15-2.613 1.011-4.383z" fill="#D27A42"/><path d="M13.003 9.274c.086-1.964-.766-3.683-1.34-4.297.66.276 2.005 1.522 2.103 4.297.098 2.776-1.862 4.24-2.854 4.626 1.458-1.085 1.984-2.17 2.091-4.626z" fill="#F17F26"/><path d="M10.063 13.513c1.678-3.252 1.231-7.046.798-8.536.394.289 1.14 1.565.967 4.36-.172 2.794-1.273 4.273-1.801 4.663-.186-.014-.054-.33.036-.487z" fill="#EA7826"/><path d="M9.82 6.444c.07-1.054.347-1.399.477-1.439-.058.258.232.717.232.913.087 2.54-.497 5.499-.858 6.601-.29.882-1.007 1.408-1.223 1.453.505-.323 1.286-6.21 1.372-7.528z" fill="#DB4A2D"/><path d="M8.74 5.654c.23-.496.253-.79.235-.875.251.223.36.824.307 1.067-.083.349-.236 1.565-.654 3.803-.418 2.238-.72 3.728-.685 4.202-.502-.273-.593-1.03-.575-1.374-.053-2.116 1.084-6.203 1.372-6.823z" fill="#C01D41"/><path d="M6.031 8.49c.844-2.957 2.278-3.703 2.693-3.765-2.038 3.105-2.203 6.69-2.009 7.809.157.9.033 1.095 0 1.063-.448-.43-1.34-2.805-.684-5.106z" fill="#8C2361"/><path d="M4.417 8.14c1.018-2.828 2.686-3.704 3.392-3.788-1.003.904-1.558 1.62-2.495 3.788-.846 1.957 0 4.045.426 4.971C3.867 11.42 4.078 9.092 4.417 8.14z" fill="#682672"/><path d="M6.991 4c-2.237.437-5.567 3.174-3.147 7.48C3.282 9.573 3.282 5.538 6.991 4z" fill="#323262"/></svg>