<!-- by TradingView --><svg xmlns="http://www.w3.org/2000/svg" width="18" height="18" viewBox="0 0 18 18"><path fill="#F0F3FA" d="M0 0h18v18H0z"/><path fill-rule="evenodd" d="M7.64 12h1.31V9.98h.98c.92 0 2.07-.4 2.07-1.93 0-1.7-1.7-2-1.7-2H7.63l.76.69v4.61l-.74.65Zm1.31-4.63v1.4h1.92v-1.4H8.95Z" fill="url(#azdwqfcgp)"/><path d="m8.37 6.75-.7-.68v5.87l.65-.5.05-4.69Z" fill="#DCDCDC"/><path fill-rule="evenodd" d="M10.2 6H7.6v6H9v-2h.81c.47 0 1.02-.07 1.45-.37.44-.3.74-.8.74-1.58a1.9 1.9 0 0 0-.9-1.69 2.71 2.71 0 0 0-.9-.36Zm-2.1 5.63-.3.26h1.03V9.92h.98c.45 0 .98-.1 1.4-.38.4-.28.7-.74.7-1.5a1.8 1.8 0 0 0-.86-1.59 2.61 2.61 0 0 0-.86-.35H7.75l.68.68v4.54l-.06.06v.05l-.27.2Zm.18-.3-.58.57V6.19l.58.59v4.55Z"/><path d="M8.4 9.35h1.85s1.07-.18 1.07-1.28c0-.33-.13-.61-.26-.8l-.48.41c.06.09.07.16.07.35 0 .5-.4.57-.7.57h-1l-.55.75Z" fill="url(#bzdwqfcgp)"/><path d="M8.36 9.42V6.7h1.9s.5.13.81.57l-.45.49a.62.62 0 0 0-.58-.36H9v1.2l-.64.82Z"/><path d="m13.7 7.95-.57.65V7.55l1.25-1.2-.68 1.6Z" fill="url(#czdwqfcgp)"/><path d="m14.38 11.35-.68.65H15V6l-.62.35v5Z" fill="#2C171C"/><path d="m14.38 11.39-.68.61V7.97l.68-1.62v5.04Z" fill="url(#dzdwqfcgp)"/><path d="M13.76 6 12.2 7.74l.93.86v-.93l1.25-1.32-.62-.35Z" fill="url(#ezdwqfcgp)"/><path d="M15 6h-1.24l.6.35L15 6Z" fill="#9F4745"/><path d="m5.12 7.3.75-1.16a1.64 1.64 0 0 0-.55-.08H3.8c-.56 0-1.02.38-1.33.82-.29.4-.4 1.08-.4 1.08v2c0 .53.3 1.08.65 1.44l.52-.53-.27-2.91 1.11-.82 1.04.17Z" fill="url(#fzdwqfcgp)"/><path d="M6.96 8H5.6v-.68l-.49-.07.75-1.1c.24.08.46.22.66.42.36.38.43 1.43.43 1.43Z" fill="url(#gzdwqfcgp)"/><path d="M6.56 6.56c-.2-.22-.43-.38-.68-.47l-.07.1c.22.08.5.24.68.44.18.2.24.5.32.8.05.2.04.37.06.46H5.6l.05-.55-.45-.07-.17.08.48.07V8H7c0-.34-.13-1.1-.44-1.44Z"/><path d="M3.98 12c-.43 0-.95-.23-1.27-.54l.7-.76 2.2.28.52-1.6L7 8.6v1.7c0 .37-.26.92-.52 1.17-.34.31-.91.53-1.36.53H3.98Z" fill="url(#hzdwqfcgp)"/><path d="m6.32 9.34.57-.7-2.34.06.59.64h1.18Z" fill="url(#izdwqfcgp)"/><path d="M4.55 9.98V8.62l.58.66-.58.7Z" fill="#E1DFE2"/><path d="M4.98 10.59H3.84l-.58.38s.47.32.89.32H5.3c.3 0 .59-.13.74-.27.16-.14.34-.48.34-.77V9.3l-.63.35v.4c0 .16 0 .31-.07.39-.09.1-.25.14-.4.14h-.3Z" fill="url(#jzdwqfcgp)"/><path fill-rule="evenodd" d="M3.8 6c-.58 0-1.09.4-1.4.84-.15.21-.24.5-.3.71-.04.12-.1.36-.1.49v1.91c0 .56.33 1.12.7 1.5l.02.03.74-.8-.1-.05-.64.7a2.19 2.19 0 0 1-.62-1.38V7.96a3.5 3.5 0 0 1 .37-1.05c.3-.43.79-.8 1.33-.8h1.52c.16 0 .32.02.47.06l.1.04.05-.1-.06-.02C5.71 6.03 5.52 6 5.32 6H3.8Zm1.33 3.34.01.01H6.4L7 8.6H4.51l-.01-.01V10l.63-.66ZM4.6 8.8v.96l.48-.49-.48-.47Zm.59.44-.53-.54H6.8l-.49.54H5.18Z"/><path d="M5.75 10H4.5l.6-.7h1.33l-.68.7Z"/><path d="M4.77 7.41c.18 0 .4.03.48.08l.41-.63a1.32 1.32 0 0 0-.59-.15h-.94c-.35 0-.87.28-1.1.55-.23.27-.38.56-.38.92l-.01.54c-.02.48-.04.92.08 1.39.13.47.52.86.52.86l.6-.38s-.2-.13-.34-.26c-.28-.26-.25-.58-.25-1.05v-1c0-.17.08-.38.22-.58.15-.2.35-.29.6-.29h.7Z" fill="#010101"/><path d="m6.13 7.56-.6.44c0-.33-.16-.45-.28-.51l.4-.63c.27.14.42.4.48.7Z" fill="url(#kzdwqfcgp)"/><defs><linearGradient id="azdwqfcgp" x1="9.38" y1="5.38" x2="13.62" y2="9.32" gradientUnits="userSpaceOnUse"><stop offset=".08" stop-color="#F0F3FA"/><stop offset=".33"/><stop offset=".49" stop-color="#010101"/></linearGradient><linearGradient id="bzdwqfcgp" x1="9.85" y1="10.2" x2="11.5" y2="7.14" gradientUnits="userSpaceOnUse"><stop offset=".21" stop-color="#F0F3FA"/><stop offset=".37" stop-color="#C4C4C4"/><stop offset=".71" stop-color="#3D3C3C"/></linearGradient><linearGradient id="czdwqfcgp" x1="14.25" y1="6.2" x2="12.61" y2="7.95" gradientUnits="userSpaceOnUse"><stop stop-color="#C12725"/><stop offset=".37" stop-color="#38071C"/><stop offset=".74" stop-color="#1D1D1B"/></linearGradient><linearGradient id="dzdwqfcgp" x1="14.44" y1="8.86" x2="13.31" y2="8.86" gradientUnits="userSpaceOnUse"><stop stop-color="#DC3237"/><stop offset=".52" stop-color="#B02626"/></linearGradient><linearGradient id="ezdwqfcgp" x1="13.34" y1="6.1" x2="13.34" y2="8.49" gradientUnits="userSpaceOnUse"><stop stop-color="#DE3137"/><stop offset=".75" stop-color="#C33833"/></linearGradient><linearGradient id="fzdwqfcgp" x1="3.97" y1="6.06" x2="6.78" y2="7.75" gradientUnits="userSpaceOnUse"><stop stop-color="#F0F3FA"/><stop offset=".32" stop-color="#9D9D9D"/><stop offset=".52" stop-color="#3D3D3D"/></linearGradient><linearGradient id="gzdwqfcgp" x1="5.36" y1="6.59" x2="6.54" y2="7.82" gradientUnits="userSpaceOnUse"><stop stop-color="#464646"/><stop offset=".56" stop-color="#171717"/></linearGradient><linearGradient id="hzdwqfcgp" x1="7" y1="8.72" x2="2.58" y2="11.44" gradientUnits="userSpaceOnUse"><stop offset=".15"/><stop offset=".4" stop-color="#272727"/><stop offset=".85"/></linearGradient><linearGradient id="izdwqfcgp" x1="4.55" y1="9.02" x2="7" y2="9.02" gradientUnits="userSpaceOnUse"><stop offset=".07" stop-color="#E1DFE2"/><stop offset=".7" stop-color="#484647"/></linearGradient><linearGradient id="jzdwqfcgp" x1="5.59" y1="9" x2="3.04" y2="10.18" gradientUnits="userSpaceOnUse"><stop offset=".23" stop-color="#504E4F"/><stop offset=".54" stop-color="#F0F3FA"/><stop offset=".72" stop-color="#AEACAD"/><stop offset=".94" stop-color="#363435"/></linearGradient><linearGradient id="kzdwqfcgp" x1="5.51" y1="7.14" x2="6.02" y2="8.21" gradientUnits="userSpaceOnUse"><stop stop-color="#403C3D"/><stop offset=".81" stop-color="#828284"/></linearGradient></defs></svg>