<!-- by TradingView --><svg width="18" height="18" xmlns="http://www.w3.org/2000/svg"><path fill="#009662" d="M0 0h18v18H0z"/><path d="M7.403 12V6h2.351c.495 0 1.069.575 1.069 1.407 0 .962-.488 1.372-.765 1.458.304-.053.945.195.945 1.444 0 1.25-.765 1.69-1.249 1.69H7.403zM5.136 6C6.672 6 7.062 7.375 7 8H6c.003-.35-.256-1-1-1-.619 0-1.006.377-1.003.647V10c0 .653.415 1 1.003 1 .588 0 1-.43 1-.663V10H5V8.998h2V12H6v-.6c-.272.428-.907.574-1.227.594-1.451.094-1.786-1.066-1.773-1.657V7.832c0-.605.126-1.833 2.136-1.833zM12 6h-.997l1.23 3-1.23 3H12l1.002-2.4L14 12h1l-1.23-3L15 6h-1l-.998 2.4L12 6z" fill="#fff"/><path d="M8.401 8.379V7c.812 0 1.25.031 1.25.695 0 .663-.427.684-1.25.684zM8.4 10.97V9.313c1.052 0 1.6.038 1.6.835 0 .798-.515.822-1.6.822z" fill="#009662"/></svg>