<!-- by TradingView --><svg width="18" height="18" xmlns="http://www.w3.org/2000/svg"><path fill="url(#paint0_linear)" d="M0 0h18v18H0z"/><path d="M10 9l.156.014c.612.043.602.142.673.2.057.042.171.22.171.89v2.204c0 .1-.028.185-.071.228-.029.028-.03.1-.442.242a2.94 2.94 0 01-.611.142 4.47 4.47 0 01-.57.043c-.938 0-1.735-.342-2.375-1.025-.64-.683-.968-1.65-.968-2.873 0-1.494.327-2.575.968-3.216.64-.64 1.394-.967 2.233-.967.84 0 1.494.27 2.006.81.285.314.57.812.854 1.452l.042.1h.598L12.55 4h-.583l-.043.1a.804.804 0 01-.17.27c-.03.028-.114.071-.314.071-.028 0-.156-.014-.853-.213A5.586 5.586 0 008.965 4c-1.522 0-2.774.526-3.699 1.58C4.426 6.531 4 7.684 4 9.007c0 1.508.54 2.731 1.593 3.642.954.81 2.149 1.223 3.543 1.223.754 0 1.536-.142 2.347-.412 1.081-.37 1.517-.598 1.517-.811V9.918c0-.384.071-.662.228-.776.042-.042.203-.1.616-.128L14 9V8h-4v1z" fill="#fff"/><defs><linearGradient id="paint0_linear" x1="3.349" y1="3.122" x2="21.904" y2="24.434" gradientUnits="userSpaceOnUse"><stop stop-color="#1A1E21"/><stop offset="1" stop-color="#06060A"/></linearGradient></defs></svg>