<!-- by TradingView --><svg xmlns="http://www.w3.org/2000/svg" width="18" height="18" viewBox="0 0 18 18"><path fill="#F0F3FA" d="M0 0h18v18H0z"/><path d="M3 5h1.5v3.25h3.83V5L10 13H8.33V9.75H4.5V13H3V5Z"/><path d="M12.58 5H8.72l.82 3.9.13.65V6.33h2.5a1 1 0 1 1 0 2h-1.5v1.34h1.66a1 1 0 1 1 0 2h-2.25l.26 1.33h2.56a2.1 2.1 0 0 0 .72-4.07A2.1 2.1 0 0 0 12.58 5Z" fill="url(#au5uj3ks3)"/><defs><linearGradient id="au5uj3ks3" x1="8.94" y1="5" x2="12.86" y2="12.93" gradientUnits="userSpaceOnUse"><stop stop-color="#BCD52F"/><stop offset="1" stop-color="#02733D"/></linearGradient></defs></svg>