<!-- by TradingView --><svg width="18" height="18" xmlns="http://www.w3.org/2000/svg"><path fill="#292775" d="M0 0h18v18H0z"/><path d="M11.508 5.857a3.856 3.856 0 011.481 2.734c.066 1.05-.164 2.218-.916 3.008-.129.136-.257.269-.395.394-.247-.45-.474-.897-.743-1.344a12.137 12.137 0 00-.894-1.23 2.736 2.736 0 001.705-1.4 2.11 2.11 0 00-.242-2.154M11.396 12.053c.055.105.052.115-.041.178-.094.062-.155.11-.236.162a5.05 5.05 0 01-.538.292c-.362.154-.747.25-1.14.287a4.016 4.016 0 01-2.96-.84c.205-.426.44-.84.703-1.234.424-.642.893-1.253 1.405-1.827.126-.14.244-.282.377-.416.494.5.95 1.037 1.364 1.604.21.284.395.587.58.892.184.304.323.593.491.89M6.292 11.967a4.072 4.072 0 01-1.154-1.94 3.917 3.917 0 01.058-2.254c.265-.718.655-1.46 1.283-1.914a2.149 2.149 0 00-.248 2.136c.165.341.398.643.682.888.285.244.616.425.972.532a14.794 14.794 0 00-1.604 2.552" fill="#fff"/><path d="M4.443 9.013a4.556 4.556 0 109.113 0 4.556 4.556 0 00-9.113 0zM4 9a5 5 0 1110 0A5 5 0 014 9z" fill="#fff"/></svg>