<!-- by TradingView --><svg width="18" height="18" xmlns="http://www.w3.org/2000/svg"><path fill="url(#paint0_linear)" d="M0 0h18v18H0z"/><path d="M13.974 4.497c.14-.495-.313-.583-.615-.426-.301.158-4.877 5.413-5.252 5.949-.374.536-.363.296-.363.296.02-.283.541-1.24.834-1.686.293-.447.106-.613.017-.682-.09-.07-3.248-.958-3.957-.944-.71.015-.636.666-.636.666.044.805 1.057.656 1.057.656s1.535-.115 2.15 0c.616.115.302.588.302.588l-2.046 4.378a.67.67 0 00-.04.488c.105.322.453.55 1.648-1.276 1.733-2.67 5.08-6.258 5.289-6.431.21-.174.15.05.15.05-.558.534-2.056 4.176-2.127 4.232-.071.055-.049.1-.669-.385s-.619.402-.619.402c-.108 1.919-.045 3.32.467 3.343.511.023 1.065-2.1 1.124-2.288.059-.187.16-.152.16-.152.755-.015 1.136-.099 1.358-.177a.769.769 0 00.373-.284c.193-.283.076-.665-.23-.52-.636.296-1.163.203-1.271.11-.11-.092.276-1.027.62-1.628s2.138-3.781 2.276-4.28zm-4.267 7.46s-.183.029-.15-.587c.03-.615.472-.25.487-.157.015.092-.106.806-.337.745z" fill="#F6F8FD"/><defs><linearGradient id="paint0_linear" x1="3.349" y1="3.122" x2="21.904" y2="24.434" gradientUnits="userSpaceOnUse"><stop stop-color="#1A1E21"/><stop offset="1" stop-color="#06060A"/></linearGradient></defs></svg>