<!-- by TradingView --><svg width="18" height="18" xmlns="http://www.w3.org/2000/svg"><path fill="#F0F3FA" d="M0 0h18v18H0z"/><path d="M8 10H7v4h1v-4z" fill="#000"/><path d="M12.375 8.481H9V9h3.375V8.48z" fill="#F581C6"/><path d="M3.646 11.904l2.327-2.429.685.69-2.341 2.437-.671-.698z" fill="#044E7C"/><path d="M4.173 4.73l-.474.481 2.314 2.314.48-.484-2.32-2.31z" fill="#11B798"/><path d="M8 4H7v3h1V4z" fill="#72C155"/><path d="M8.658 7.457l2.387-2.543.298.323-2.394 2.55-.29-.33z" fill="#F89F2F"/><path d="M6 8H3v1h3V8z" fill="#00AEEF"/><path d="M10.364 10c.681 0 1.115.458 1.294.698l-.706.787c-.184-.258-.357-.307-.588-.313-.231-.006-.706.214-.706.835 0 .622.411.866.763.854a.67.67 0 00.53-.288l.707.755c-.46.584-.919.672-1.358.672-.574 0-1.686-.545-1.64-1.993C8.705 10.56 9.483 10 10.364 10zM12 14v-4h2v1h-1v1h1v1h-1v1h-1z" fill="#000"/></svg>