<!-- by TradingView --><svg width="18" height="18" xmlns="http://www.w3.org/2000/svg"><path fill="#6CB33F" d="M0 0h18v18H0z"/><path d="M10.718 13.695c1.656-.634 2.789-1.96 3.159-3.571a4.502 4.502 0 00-3.159 3.57zM4.22 7.532c-1.172 4.015 2.568 7.38 6.253 6.245.133-2.636-2.046-6.245-6.253-6.245zm1.647-2.424c-.45.363-.837.801-1.14 1.298 3.134.355 5.733 3.27 5.927 6.034.175-3.15-1.815-6.21-4.787-7.332zm5.039 6.714c.76-2.992-.394-6.227-1.349-7.787-.724-.112-1.674.065-2.185.241 2.118 1.55 3.804 4.74 3.534 7.546zm.117-7.39c1.875.822 3.134 2.807 2.962 5.014-1.196.215-2.22 1.067-2.797 2.09 1.105-3.218.325-6.057-.165-7.105z" fill="#fff"/></svg>