<!-- by TradingView --><svg width="18" height="18" xmlns="http://www.w3.org/2000/svg"><path fill="#F0F3FA" d="M0 0h18v18H0z"/><path d="M12 3H6v2c.675 0 .979.387 1 .709.007 2.347 0 6.053 0 6.51 0 .455-.491.803-1 .781v2h6v-2c-.747 0-1.028-.498-1-.782v-6.51c0-.545.512-.76 1-.708V3z" fill="#A0ADE5"/><path d="M11.333 4H6.666v.504c.826-.105 1.32.561 1.334.83.005 1.956.012 6.748 0 7.347-.012.598-.98.751-1.333.732V14h4.666v-.587c-.86.015-1.333-.465-1.333-.732V5.333c0-.643.994-.873 1.333-.829V4z" fill="#003E7D"/></svg>