<!-- by TradingView --><svg xmlns="http://www.w3.org/2000/svg" width="18" height="18" viewBox="0 0 18 18"><path fill="#F0F3FA" d="M0 0h18v18H0z"/><path fill-rule="evenodd" d="M8 5h3.2c1.27 0 2.3.97 2.3 2.17 0 .77-.43 1.44-1.07 1.83a2.14 2.14 0 0 1 1.07 1.83c0 1.2-1.03 2.17-2.3 2.17H8V5zm1 1h2.03c.81 0 1.47.56 1.47 1.25s-.66 1.25-1.47 1.25H9V6zm0 3.5h2.03c.81 0 1.47.56 1.47 1.25 0 .7-.66 1.25-1.47 1.25H9V9.5z" fill="url(#apcfjelao)"/><path fill="url(#bpcfjelao)" d="M5 5h1v8H5z"/><defs><linearGradient id="apcfjelao" x1="10.75" y1="5" x2="10.75" y2="13" gradientUnits="userSpaceOnUse"><stop stop-color="#9E9FA1"/><stop offset="1" stop-color="#707072"/></linearGradient><linearGradient id="bpcfjelao" x1="5.5" y1="5" x2="5.5" y2="13" gradientUnits="userSpaceOnUse"><stop stop-color="#676C9F"/><stop offset="1" stop-color="#373C80"/></linearGradient></defs></svg>