<!-- by TradingView --><svg width="18" height="18" xmlns="http://www.w3.org/2000/svg"><path fill="#F0F3FA" d="M0 0h18v18H0z"/><path d="M6.324 6.233l.085-.051c-.461-.365-1.02-.633-1.504-.626-.505.007-.949.33-1.274.81-.292.432-.47 1.001-.568 1.559-.236 1.356.17 2.697 1.542 2.697 1.195 0 2.894-.794 3.052-2.103.052-.428-.151-1.033-.522-1.568-.041.097-.043.095-.08.19-.032.08-.065.175-.065.175.114.274.174.561.156.849C7.09 9.126 5.892 9.9 4.91 9.929c-1.166.033-1.6-.953-1.563-1.849.05-1.228.59-2.24 1.448-2.373.438-.067.988.175 1.446.58 0 0 .06-.04.084-.054z" fill="#040706"/><path d="M9.462 10.536c-.297.3-1.228.975-2.042.834l.09.141c.03.046.1.143.1.143.487.1 1.747-.393 2.185-1.118h-.333zm.503-2.965c-.29-.862-1.046-1.407-2.356-1.13-.903.19-2.013 1.025-2.326 2.269-.1.397-.067.795.067 1.157 0 0-.13.033-.3.051-.194.02-.317.007-.317.007a2.45 2.45 0 01.021-1.868 4.108 4.108 0 012.972-2.381c.96-.168 1.945.234 2.34.956.201.365.303.59.357.94h-.458zm-4.633 2.965c-.164.035-.21.04-.21.04a3.071 3.071 0 001.688 1.007s-.063-.11-.114-.217c-.052-.105-.095-.202-.095-.202a2.419 2.419 0 01-.924-.724 3.333 3.333 0 01-.345.096z" fill="#518BC9"/><path d="M10.746 4c-1.431 0-2.708.707-3.552 1.817.221-.076.407-.12.532-.141a2.61 2.61 0 01.305-.034c.745-.746 1.731-1.285 2.836-1.285 1.875 0 3.484 1.388 4.002 3.226l.13-.512C14.306 5.267 12.663 4 10.747 4zM6.562 6.914c.26-.182.535-.32.8-.406-.083.143-.16.29-.229.443-.041.094-.043.095-.079.185v.002l-.001.005c-.032.08-.065.175-.065.175a4.741 4.741 0 00-.256 1.755c-.157.177-.35.332-.561.46a5.29 5.29 0 01-.026-.537 5.3 5.3 0 01.417-2.082zM10.75 14a4.336 4.336 0 002.712-.963l.205-.823c-.736.718-1.712 1.072-2.78 1.072-1.986 0-3.652-1.41-4.063-3.438a3.42 3.42 0 01-.546.345C6.775 12.375 8.588 14 10.75 14z" fill="#B2B3B5"/><path fill="#08090D" d="M9 8.001h5v2.002H9z"/></svg>