<!-- by TradingView --><svg width="18" height="18" xmlns="http://www.w3.org/2000/svg"><path fill="#00426C" d="M0 0h18v18H0z"/><path d="M9.522 10.65L8.257 6.717C8.1 6.22 8.021 6 7.505 6 7.062 6 7 6.254 7 6.93v3.573c0 1.16-.728 1.709-1.61 1.709-.669 0-1.266-.3-1.266-.87 0-.179.136-.342.324-.342.186 0 .327.163.327.343 0 .273.165.565.593.565.408 0 .632-.334.632-1.02v-3.96C6 6.15 5.649 6 5 6v-.274h4.75V6c-.658 0-.68.162-.529.62l.723 2.226.931-3.12h.375l.84 3.129.723-2.234c.141-.429.132-.621-.438-.621v-.274h1.498V6c-.457.04-.56.25-.703.718l-1.092 3.372c1.055-.082 2.052.01 2.922.177v-4.6A.666.666 0 0014.333 5H3.667A.666.666 0 003 5.667v6.666c0 .369.298.667.667.667h2.708c1.062-1.16 1.988-1.902 3.147-2.35z" fill="#fff"/><path d="M9.75 10.566a9.643 9.643 0 011.875-.434l-.875-2.586-1 3.02zM9.003 13h5.37c.347 0 .627-.27.627-.604v-1.374c-2.641-.192-4.736.902-5.997 1.978z" fill="#fff"/></svg>