<!-- by TradingView --><svg width="18" height="18" xmlns="http://www.w3.org/2000/svg"><path fill="#128AD8" d="M0 0h18v18H0z"/><path d="M9.002 13.54c-3.055 0-5.52-2.028-5.52-4.54 0-2.513 2.465-4.542 5.52-4.542 3.055 0 5.521 2.029 5.521 4.541 0 2.512-2.466 4.54-5.52 4.54zM3 9c0 2.762 2.686 5 6 5s6-2.238 6-5c0-2.761-2.686-5-6-5-3.32 0-6 2.239-6 5z" fill="#fff"/><path d="M10 12V9.51c.43.923 1.19 1.049 1.808 1.049h1.712V9.482h-1.198c-.618 0-.812-.44-.812-.692 0-.522.58-1.032 1.198-1.339h-1.263C10.811 7.665 10 8.183 10 8.843V6H8v2.843c-.265-.66-.838-1.179-1.417-1.366h-1.24c.521.284 1.176.69 1.176 1.302 0 .252-.194.691-.812.691H4.505v1.073H6.22c.618 0 1.348-.11 1.779-1.033V12h2zm-2.469.452l.002-1.65c-.122.08-.427.198-1.055.198H4V8.994h1.535c.38 0 .404-.218.404-.283C5.94 8.15 5.116 7.804 4 7l2.796-.005c.167.063.59.265.739.347l.002-1.85h2.959l-.002 1.85c.131-.137.508-.255.739-.342H14c-1.116.805-1.91 1.162-1.91 1.722 0 .066.024.283.404.283H14V11h-2.45c-.627 0-.932-.119-1.054-.198l-.002 1.65H7.531z" fill="#fff"/></svg>