<!-- by TradingView --><svg width="18" height="18" xmlns="http://www.w3.org/2000/svg"><path fill="#005288" d="M0 0h18v18H0z"/><path d="M7 7H4v4h3v3h4v-3h3V7h-3V4.004H7V7z" fill="#fff"/><path d="M9.517 8.955c1.072-1.601.137-3.839-.465-4.757-1.63 2.345-1.081 4.148-.603 4.757L7.17 7.575c-.423-.313-.665-.265-.998-.264-.33.001-.666.264-.666.264-.8.671-.334 1.656 0 2.064-.078-.435.212-.766.366-.877.665-.422 1.96.409 2.526.877l-.097.158c-.085.127.108.31.215.387-.155.105-.526.316-.769.316s-.447-.398-.518-.597c-.186 0-.382.214-.482.597a.878.878 0 00.086.666s.222.335.664.335c.443 0 .637-.498.804-.703-.271 1.025.387 1.832.75 2.107.987-.9.817-1.78.608-2.107.186.239.432.689.867.703.318.01.563 0 .742-.335.179-.335.131-.462.028-.776-.102-.315-.582-.593-.528-.487.053.105-.054.421-.412.597-.286.14-.679-.152-.84-.316.372-.14.358-.316.304-.387l-.16-.158c-.048-.076.171-.358 1.43-.877 1.257-.52 1.524.368 1.5.877.286-.333.486-1.745-.184-2.176-.185-.118-.298-.152-.545-.152-.215 0-.696.066-.961.376-.48.561-1.086 1.08-1.383 1.268z" fill="#005288"/></svg>