<!-- by TradingView --><svg xmlns="http://www.w3.org/2000/svg" width="18" height="18" viewBox="0 0 18 18"><path fill="url(#awxjxqhv1)" d="M0 0h18v18H0z"/><path d="M13.3 6.72s.31-.02-.02-.39c0 0-.57-.64-1.64-1.13-.58-.26-1.23-.15-1.17.48.04.44-.38.61-.71.57-.4-.05-.63-.36-.57-.62.07-.27.22-.48.44-.65.14-.11.25-.19.52-.25.16-.03.38-.08.44.1.11-.06.31-.42-.34-.43 0 0-.1-.2-.32-.16 0 0-.65-.62-1.37.15 0 0-.28.1-.3 0 .07.05.17-.1.03-.15-.07-.03-.15.04-.16.1 0 .06 0 .17.15.2h.1l-.04.05c-.22.09-.43.02-.47-.13.05.03.1 0 .13-.06.01-.06-.03-.14-.11-.15-.12-.02-.17.12-.15.24.04.18.23.3.46.27l-.04.06s-.24.3-.43.63c-.2.33-1 .7-.87-.1.05-.25-.39-.56-1.15-.05-.4.27-.9.68-1.26 1.34 0 0-.17.25.1.26 0 0-.55.6-.55 1.43 0 .36-.01.82.12 1.34 0 0 .07.33.25.15 0 0 .17.83.52 1.52.27.54.79 1.33.59 1.53-.2.2-.49-.2-.44-.04.1.33.43.38.62.23.42-.32-.26-2.21-.35-2.77.2.08 1.1-1.2 1.12-1.34.31.05 1.04-.18 1.25-.4.08.23.23.44.44.62 0 0-.04.33-.41.44 0 0-.45-.18-.94 0-.45.17-.27.65.06.53-.1-.05-.13-.2.03-.24.16.13.33.06.41-.06 0 0 .32.24.53 0 .1 0 .17.15.03.22.27.06.37-.22.26-.37l.13-.1s.09-.08.15-.18c0 0 .27.21.76.33 0 0-.25.42-.64.5 0 0-.54-.17-.91.05 0 0-.2.1-.17.32.02.16.16.27.35.24-.08-.04-.25-.23-.03-.31.15.22.54.06.59 0 .07.07.4.04.45-.08.1-.02.26.03.2.23.13-.01.33-.24.03-.42 0 0 .18-.1.33-.22l.21-.21s.27-.1.26.2a.3.3 0 0 1 .34.37s-.1.23-.41.17c-.32-.06-.31.21-.08.23-.15.05-.26.34.26.34 0 0 .12.67-.58.6-.09-.02-.07-.1-.06-.17.11-.04.12-.16.07-.22-.06-.06-.19-.09-.28.02-.06.07-.09.2-.07.33-.11-.03-.17-.08-.17-.18.13-.06.04-.31-.18-.22-.1.04-.16.15-.12.33.05.25.37.36.63.39.15.14.39.3.93.2 0 0-.24 1.24-1.84 1.19 0 0-.63-.24-.44-.75.04-.1.17-.27.3-.27 0 0 .22.07.22-.12 0 0-.02-.14-.16-.16-.14-.01-.47.02-.63.46-.06.2-.05.53.14.76-.6-.16-1.07-.61-.88-1.22.1-.33.54-.65.9-.43-.01.16.06.28.22.28.13 0 .2-.13.18-.3-.03-.14-.22-.34-.56-.36a1 1 0 0 0-1.06.97c-.04.72.42 1.24 1.59 1.4l.01.02s.7.48 1.7.22c0 0 2.02-.4 1.59-2.64 0 0 .49-1.46-.57-2.31.57.27 1.26.2 1.46 0-.07.3.06.69.43.6 0 0-.37 1.05.07 1.09 0 0-1.1 2.33-.46 2.62.22.1.48.05.61-.22.1-.23-.24.22-.44.02-.24-.23.05-.8.35-1.38.4-.8.68-1.39.73-1.78 0 0 .24.17.32-.44.1-.4.14-.93.14-.93l-.04-.76s-.11-.55-.65-1.07zm-2.36 5.07s.06-.1.1.04c0 0 .05.79-.42 1.27-.32.32-1.05.78-1.88.58 0 0 1.32-.1 1.66-1.37l.04-.15s.33-.08.5-.37z" fill="#F9F9F9"/><defs><linearGradient id="awxjxqhv1" x1="9" y1="0" x2="9" y2="18" gradientUnits="userSpaceOnUse"><stop stop-color="#0E6592"/><stop offset=".82" stop-color="#26B5E7"/></linearGradient></defs></svg>