<!-- by TradingView --><svg xmlns="http://www.w3.org/2000/svg" width="18" height="18"><path fill="#003A6C" d="M0 0h18v18H0z"/><circle cx="9" cy="9" r="5" fill="url(#az35e3wg4)"/><path d="M13.38 9a4.37 4.37 0 11-8.75 0 4.37 4.37 0 018.75 0z" fill="url(#bz35e3wg4)"/><path fill-rule="evenodd" d="M9 12.88a3.87 3.87 0 100-7.75 3.87 3.87 0 000 7.75zm0 .5a4.37 4.37 0 100-8.75 4.37 4.37 0 000 8.75z" fill="url(#cz35e3wg4)"/><path fill-rule="evenodd" d="M8.9 7.34c.13-.15.34-.49.34-.74 0-.27-.1-.77-.73-.8-.55 0-1.35.53-1.43 1.74-.06.97.4 1.96.63 2.33.24.37.21.79-.1.75-.38-.05-1.25-.05-1.28.7-.04.75 1.22.65 1.62.25.22.21.87.64 1.67.67.8.03 1.23-.6 1.35-.92a5.2 5.2 0 01-1.35.25c-.59 0-1.24-.33-1.36-.6.09-.28.09-.87.09-1.1 0-.38-.2-.84-.4-1.27-.34-.75-.34-2.56.56-2.56.28 0 .68.4.38 1.3zm-1.31 3.84c-.26-.19-1-.36-1 .1 0 .66 1 .17 1-.1z" fill="#5E3917"/><path d="M8.8 8.83c-.04-.94.35-1.32.56-1.4v1.4H10V7.54c0-1.1.64-1.54 1.04-1.5.4.04.5.29.5.5 0 .23-.21.44-.34.51.1-.26.2-.77-.16-.77-.46 0-.67.65-.43 2.03.13.78.2 1.72.18 1.96 0 .54-.53.73-.8.71.16 0 .2-.26.21-.4V9.37h-.68v.84c0 .27-.12.82-.53.78-.4-.04-.46-.43-.44-.61.1.17.28.16.36.13V9.48l-.48-.65h.36z" fill="#5E3917"/><defs><linearGradient id="az35e3wg4" x1="6.41" y1="4.87" x2="12.45" y2="12.55" gradientUnits="userSpaceOnUse"><stop stop-color="#FFFEBE"/><stop offset=".48" stop-color="#EED667"/><stop offset="1" stop-color="#896327"/></linearGradient><linearGradient id="bz35e3wg4" x1="6.33" y1="5.73" x2="11.81" y2="12.07" gradientUnits="userSpaceOnUse"><stop stop-color="#FAF597"/><stop offset="1" stop-color="#966E28"/></linearGradient><linearGradient id="cz35e3wg4" x1="6.08" y1="5.81" x2="11.72" y2="12.2" gradientUnits="userSpaceOnUse"><stop stop-color="#573E1B"/><stop offset=".3" stop-color="#F0D16A"/><stop offset=".64" stop-color="#452D1C"/><stop offset="1" stop-color="#F4F07E"/></linearGradient></defs></svg>