<!-- by TradingView --><svg width="18" height="18" xmlns="http://www.w3.org/2000/svg"><path fill="#EF4123" d="M0 0h18v18H0z"/><path d="M12.094 4h1.804c.054 0 .102.044.102.098v1.804c0 .055-.048.098-.102.098h-1.804A.094.094 0 0112 5.902V4.098c0-.054.04-.098.094-.098zM12.098 6.667h1.804c.054 0 .098.044.098.098v1.804a.098.098 0 01-.098.098h-1.804A.097.097 0 0112 8.569V6.765c0-.054.044-.098.098-.098zM12.098 9.333h1.804c.054 0 .098.044.098.099v1.804a.098.098 0 01-.098.097h-1.804a.097.097 0 01-.098-.097V9.432c0-.055.044-.099.098-.099zM9.431 4h1.804c.054 0 .098.044.098.098v1.804a.098.098 0 01-.098.098H9.43a.097.097 0 01-.098-.098V4.098c0-.054.044-.098.098-.098zM9.431 6.667h1.804c.054 0 .098.044.098.098v1.804a.098.098 0 01-.098.098H9.43a.097.097 0 01-.098-.098V6.765c0-.054.044-.098.098-.098zM9.431 9.333h1.804c.054 0 .098.044.098.099v1.804a.098.098 0 01-.098.097H9.43a.097.097 0 01-.098-.097V9.432c0-.055.044-.099.098-.099zM6.764 4h1.804c.054 0 .099.044.099.098v1.804A.098.098 0 018.568 6H6.764a.097.097 0 01-.097-.098V4.098c0-.054.043-.098.097-.098zM6.764 9.333h1.804c.054 0 .099.044.099.099v1.804a.098.098 0 01-.099.097H6.764a.097.097 0 01-.097-.097V9.432c0-.055.043-.099.097-.099zM4.098 4h1.804c.054 0 .098.044.098.098v1.804A.098.098 0 015.902 6H4.098A.097.097 0 014 5.902V4.098C4 4.044 4.044 4 4.098 4zM4.098 6.667h1.804c.054 0 .098.044.098.098v1.804a.098.098 0 01-.098.098H4.098A.097.097 0 014 8.569V6.765c0-.054.044-.098.098-.098zM4.098 9.333h1.804c.054 0 .098.044.098.099v1.804a.098.098 0 01-.098.097H4.098A.097.097 0 014 11.236V9.432c0-.055.044-.099.098-.099zM12.098 12h1.804c.054 0 .098.044.098.098v1.804a.098.098 0 01-.098.098h-1.804a.097.097 0 01-.098-.098v-1.804c0-.054.044-.098.098-.098zM4 13.902v-1.804c0-.054.044-.098.098-.098h1.804c.054 0 .098.044.098.098v1.804a.098.098 0 01-.098.098H4.098A.098.098 0 014 13.902zM6.667 13.902v-1.804c0-.054.043-.098.097-.098H8.57c.054 0 .098.044.098.098v1.804a.098.098 0 01-.098.098H6.764a.098.098 0 01-.097-.098zM9.333 13.902v-1.804c0-.054.044-.098.098-.098h1.805c.054 0 .097.044.097.098v1.804a.098.098 0 01-.097.098H9.43a.098.098 0 01-.098-.098z" fill="#fff"/></svg>