<!-- by TradingView --><svg xmlns="http://www.w3.org/2000/svg" width="18" height="18" viewBox="0 0 18 18"><path fill="#FFE6C6" d="M0 0h18v18H0z"/><path d="M10.91 4 12 5.4v.22C12 8.9 8.83 13 5.6 13c-.92 0-1.42-1.36-1.6-2 0 0 .57 1 1.36 1 2.93 0 5.7-4.06 5.7-6.88 0-.55-.15-1.12-.15-1.12Z" fill="#46D85C"/><path d="M8.7 14c-.51 0-1.14-.44-1.71-1.01C5.24 11.23 4 8.4 4 8.4c.16-.5.4-1.04.67-1.41 0 0 1.02 3.28 3.44 5.67.26.25.65.33.89.33s.65-.13.86-.33C12.28 10.27 13.33 7 13.33 7c.27.37.51.92.67 1.41 0 0-1.24 2.82-2.99 4.58-.57.57-1.2 1.01-1.72 1.01h-.58Z" fill="#378CFF"/><path d="M6 5.4 7.15 4s-.2.67-.2 1.23c0 2.62 3 6.77 5.75 6.77.94 0 1.3-1 1.3-1-.18.64-.68 2-1.54 2C9.46 13 6 8.58 6 5.65V5.4Z" fill="url(#ao40v0x5m)"/><defs><linearGradient id="ao40v0x5m" x1="6.05" y1="4.48" x2="12.94" y2="12.47" gradientUnits="userSpaceOnUse"><stop offset=".36" stop-color="#32B5CD"/><stop offset=".86" stop-color="#2D48C0"/></linearGradient></defs></svg>