<!-- by TradingView --><svg width="18" height="18" xmlns="http://www.w3.org/2000/svg"><path fill="#F0F3FA" d="M0 0h18v18H0z"/><path d="M8.58 10H6.724l-1.227 3h4.194v-1.944C9.721 10.456 9.18 10 8.58 10c.029 0 .029 0 0 0zM8.722 5h-2.34c-.713 0-1.398.485-1.626 1.17L3.3 10h3.425l1.997-5z" fill="#F26722"/><path d="M9.72 8h1.855l1.256-3h-4.11v2.001c0 .6.372.999 1 .999zM9.72 13h2.255c.714 0 1.399-.485 1.627-1.17L15 8h-3.424L9.72 13z" fill="#ED145B"/><path d="M15 8l-2.17-3-1.255 3H15z" fill="#CD163F"/><path d="M3.3 10l2.2 3 1.225-3H3.3z" fill="#E82C2A"/></svg>