<!-- by TradingView --><svg width="18" height="18" xmlns="http://www.w3.org/2000/svg"><path fill="#5D524A" d="M0 0h18v18H0z"/><path d="M8.477 7.313L7.26 7s-.695.469-.521.469h.695c0 .156.149.468.566.468V9.5l.477.313-.521.624-.696-.312v-1.25l-1.043-.938-.348.313.696.625v1.719L8 11.063V12h2v-.938l1.433-.468V8.875l.695-.625-.347-.313-1.044.938v1.25l-.695.313-.522-.626L10 9.5V7.937c.417 0 .564-.312.564-.468h.695c.174 0-.522-.469-.522-.469l-1.217.313V9H8.477V7.312zM5 9.031c0-.156.522-.469.522-.469s0 1.094.173 1.407C5.745 10.058 5 9.5 5 9.344V9.03zM13 9.031c0-.156-.522-.469-.522-.469s0 1.094-.173 1.407c-.05.089.695-.469.695-.625V9.03zM13.045 4h-3.12l4.121 4.039V5.002L13.045 4zM13.045 14.039h-3.12L14.046 10v3.037l-1.001 1.002zM5.001 4h3.12L4 8.039V5.002L5 4zM5.001 14.039h3.12L4 10v3.037L5 14.04z" fill="#fff"/></svg>