<!-- by TradingView --><svg width="18" height="18" viewBox="0 0 18 18" xmlns="http://www.w3.org/2000/svg"><path fill="#F0F3FA" d="M0 0h18v18H0z"/><path d="M9.93 10.26c.82.05 1.96-.22 2.74-.72-.04-.18-.26-.4-.43-.54-.27-.18-.53-.27-.75-.18-.17.09-.26.27-.26.5v.04c.05.14-.04.05-.04 0v-.04c-.09-.27 0-.54.22-.63.22-.1.52 0 .78.18a.86.86 0 0 1-.09-.32c-.04-.22-.04-.45-.04-.68 0-.54-.26-.99-.87-.94-.3 0-.57.22-.7.5-.13.13-.39.13-.39.17 0 .05.13.14.22.23.13.13.09.36.04.54-.13.5-.91 1.13-.43 1.9Zm1.09-2.84c.08 0 .13.05.13.14 0 .09-.05.13-.13.13-.1 0-.14-.04-.14-.13s.05-.14.14-.14Zm-2.14 5.54c2.05.23 3.8-.9 4.18-1.35A4.84 4.84 0 0 1 9.2 14c-3.7.09-5.71-3.7-4.62-4.77.22-.23.56-.32.96-.32.82.05 1.56.54 2.35.95a4.96 4.96 0 0 0 6.1-1.26c.13.45-.35 1.21-.61 1.44-1.48 1.4-3.92 1.7-5.67 1.17-.13-.05-.17.04 0 .09 2.75.94 5.1-.27 5.93-1.3.09 1.88-3.05 2.96-4.8 2.83-.12.09-.04.13.05.13ZM4.61 8.82c.35-.22.74-.27 1.18-.18 1.3.27 2.22 1.35 3.66 1.58C9 9.14 7.62 9.09 7.49 8.14c-.05-.54.3-.94.87-.94.26 0 .48.09.74.18.13.04.22.04.22.04.04-.09-.3-.45-.13-.63.65-.8.65-1.84-.1-2.43-.73-.58-1.73-.4-2.6.14-.31 0-.66 0-1-.05-.05 0-.05 0 0 .05.12.09.3.22.52.31A4.94 4.94 0 0 0 4.05 8.1c-.1.95-.05 1.35.08 2.03 0-.5.09-1.04.48-1.31Zm3.92-2.75c.09 0 .18.1.18.18 0 .1-.09.18-.18.18-.08 0-.17-.09-.17-.18s.09-.18.17-.18Z" fill="#E74011"/></svg>