<!-- by TradingView --><svg width="18" height="18" xmlns="http://www.w3.org/2000/svg"><path fill="url(#paint0_linear)" d="M0 0h18v18H0z"/><path d="M3 5.308h1.895v4.439c0 .729.336 1.163.6 1.35-.28.248-1.306.465-1.946-.063-.377-.31-.549-.822-.549-1.303V5.308zM14.369 9v-.616H15V6.846h-.631C14.21 5.77 13.249 5 12.158 5c-1.258 0-2.526.923-2.526 2.318v3.99c.358.05.928-.08 1.292-.38.377-.31.605-.831.605-1.312l-.003-.308H12V7.766h-.473l-.002-.205.002-.1c0-.317.154-.615.473-.615.32 0 .474.298.474.616V9c0 1.425 1.268 2.308 2.526 2.308v-1.7c-.32 0-.631-.29-.631-.608zM7.5 6.846v2.43c0 .142-.07.34-.236.34-.15 0-.264-.198-.264-.34v-2.43H5.211v2.87c0 .527.18 1.194.998 1.411.82.218 1.1-.232 1.1-.232-.044.296-.129.513-.581.56a2.58 2.58 0 01-1.044-.146v1.538c.557.163 1.358.197 1.886.095 1.045-.201 1.746-1.07 1.746-2.226v-3.87H7.5z" fill="#fff"/><defs><linearGradient id="paint0_linear" x1="0" y1="0" x2="18" y2="18" gradientUnits="userSpaceOnUse"><stop stop-color="#FF08F3"/><stop offset="1" stop-color="#FF09C8"/></linearGradient></defs></svg>