<!-- by TradingView --><svg width="18" height="18" xmlns="http://www.w3.org/2000/svg"><path fill="#005A97" d="M0 0h18v18H0z"/><path d="M8.738 8.827c-.025.3-.361.302-.526.266-.126.114-.17.355-.177.461-.035.555.59.747.908.774v.457c-.71.45-.28.909.023 1.082v.396c-.627.385-.238.777.035.924v.324c-.455.3-.19.582 0 .687v.214c-.78-.287-.507-.793-.272-1.01-.774-.53-.392-1.09-.104-1.303-.763-.472-.465-1.138-.22-1.412-.324-.098-.956-.462-.9-1.133.054-.67.51-.956.73-1.015.179-.029.528-.012.503.288zM9.263 8.827c.025.3.361.302.526.266.126.114.17.355.177.461.035.555-.59.747-.908.774v.457c.71.45.28.909-.023 1.082v.396c.627.385.239.777-.034.924v.324c.455.3.19.582 0 .687v.214c.78-.287.506-.793.271-1.01.774-.53.392-1.09.104-1.303.763-.472.465-1.138.22-1.412.324-.098.956-.462.9-1.133-.054-.67-.51-.956-.73-1.015-.179-.029-.528-.012-.503.288z" fill="#fff"/><path d="M7.469 5.882c.355 0 .957.488 1.2.756l-.05-.61.415-.11.332.11-.062.61c.272-.253.849-.756 1.188-.756.34 0 .553.118.99.118H15l-.374.333-1.098.725-1.1.678-1.47 1.04c-.517-.95-1.377-.883-1.757-.71l-.125 6.792c.003.044-.008.136-.075.142-.067.005-.086-.093-.087-.142l-.13-6.792c-1.08-.336-1.674.347-1.823.71L5.506 7.737l-1.104-.68-1.108-.73L3 6h3.536c.223 0 .54-.118.933-.118z" fill="#fff"/><path d="M9.6 5.588a.594.594 0 01-.6.589.594.594 0 01-.6-.589C8.4 5.263 8.669 5 9 5c.331 0 .6.263.6.588z" fill="#fff"/></svg>