<!-- by TradingView --><svg width="18" height="18" xmlns="http://www.w3.org/2000/svg"><path fill="#F0F3FA" d="M0 0h18v18H0z"/><path d="M15 8.78C15 6.698 12.314 5 9 5 5.687 5 3 6.698 3 8.78v.221C3 11.211 5.348 13 9 13c3.674 0 6-1.789 6-3.998V8.78z" fill="#002F6D"/><path d="M14.77 8.778c0 1.963-2.583 3.555-5.769 3.555s-5.768-1.592-5.768-3.555S5.815 5.223 9 5.223s5.77 1.592 5.77 3.555z" fill="#FFE900"/><path d="M7.086 7.657c-.003.005-.06.063-.024.109.092.112.373.176.657.115.17-.037.386-.203.597-.364.227-.174.454-.349.68-.418a.806.806 0 01.497-.013c.112.032.243.103.453.255.395.285 1.982 1.62 2.256 1.85a14.05 14.05 0 012.537-.786c-.116-.685-.55-1.311-1.205-1.825-.914.37-2.032.563-3.125.05-.005-.003-.597-.273-1.18-.26-.867.02-1.242.381-1.64.764l-.503.523z" fill="#fff"/><path d="M12.138 9.337c-.019-.016-1.867-1.573-2.285-1.877-.242-.175-.377-.22-.519-.237a.734.734 0 00-.246.023c-.195.051-.45.215-.676.388-.234.18-.454.349-.66.393-.26.056-.58-.01-.726-.105a.314.314 0 01-.12-.128c-.054-.12.045-.216.061-.232l.51-.532c.06-.057.119-.114.18-.17-.164.02-.316.061-.464.101-.185.05-.363.098-.543.098-.075 0-.477-.064-.553-.084a8.487 8.487 0 01-1.472-.512c-.724.52-1.21 1.17-1.35 1.886.105.026.273.074.343.09 1.64.35 2.152.713 2.244.788a.555.555 0 01.851.048.636.636 0 01.391-.132c.076 0 .155.013.235.04.185.06.28.18.33.287a.565.565 0 01.228-.047c.089 0 .18.02.273.058.303.125.35.411.322.627a.64.64 0 01.715.623.603.603 0 01-.077.296c.098.053.346.172.565.146.174-.022.24-.079.264-.111.016-.022.034-.048.017-.067l-.462-.495s-.077-.07-.051-.097c.026-.027.073.012.106.04.236.189.523.475.523.475.005.003.024.039.13.057a.496.496 0 00.366-.082.552.552 0 00.08-.079l-.004.004c.118-.146-.014-.294-.014-.294l-.54-.584s-.077-.069-.051-.097c.024-.024.073.013.107.04.171.138.413.371.644.59.046.032.25.153.519-.018.164-.103.196-.23.192-.326-.012-.126-.114-.217-.114-.217l-.738-.715s-.078-.064-.05-.096c.022-.028.072.012.106.039.235.189.871.751.871.751a.462.462 0 00.501-.01.32.32 0 00.165-.254c.009-.182-.124-.29-.124-.29z" fill="#fff"/><path d="M8.558 10.243c-.115-.001-.24.064-.257.055-.009-.006.007-.05.018-.076.011-.025.162-.462-.206-.614-.28-.116-.452.015-.512.074-.015.015-.022.014-.024-.006a.391.391 0 00-.285-.362.565.565 0 00-.626.214.396.396 0 00-.397-.338.396.396 0 00-.403.388c0 .214.18.387.402.387a.407.407 0 00.279-.108c.002.002.003.006.002.013-.017.096-.048.445.33.587a.407.407 0 00.389-.058c.032-.022.037-.013.032.016-.013.09.004.282.283.39a.369.369 0 00.421-.075c.036-.031.046-.026.047.023.01.26.234.465.506.465.28 0 .506-.217.507-.487a.5.5 0 00-.506-.488z" fill="#fff"/><path d="M8.558 11.184a.459.459 0 01-.47-.432c0-.021-.002-.076-.05-.076-.02 0-.038.011-.058.028a.335.335 0 01-.383.07c-.267-.105-.271-.282-.26-.354.003-.019.004-.038-.01-.054l-.016-.014h-.017c-.014 0-.027.005-.047.018a.402.402 0 01-.227.078.367.367 0 01-.127-.024c-.352-.132-.325-.453-.307-.55.002-.019-.003-.034-.016-.044l-.025-.02-.023.022a.37.37 0 01-.253.098.36.36 0 01-.366-.352.36.36 0 01.366-.353c.183 0 .338.133.362.308l.012.095.054-.08a.54.54 0 01.426-.225c.052 0 .105.008.16.024a.358.358 0 01.259.332c.003.046.037.048.044.048.019 0 .033-.011.042-.021.041-.041.13-.11.27-.11a.53.53 0 01.202.044c.344.143.188.564.186.569-.03.07-.03.1-.003.119l.014.006h.01c.015 0 .035-.007.067-.017a.466.466 0 01.654.414c0 .25-.211.453-.47.453zm3.651-2.034c-.569-.478-1.884-1.58-2.24-1.837-.204-.148-.343-.226-.465-.26a.798.798 0 00-.228-.035.992.992 0 00-.29.047c-.23.07-.46.246-.68.416l-.012.009c-.207.158-.42.321-.582.356-.07.016-.143.023-.216.023-.18 0-.343-.05-.404-.125-.01-.012-.004-.032.02-.061l.003-.004.5-.52c.393-.378.763-.734 1.616-.753h.042c.53 0 1.061.228 1.12.255a3.583 3.583 0 001.529.353c.538 0 1.093-.128 1.677-.387a4.68 4.68 0 00-.203-.155c-.513.214-1.002.323-1.473.322-.481 0-.963-.111-1.43-.33-.024-.012-.61-.278-1.22-.279h-.048c-.716.017-1.12.262-1.39.477-.264.006-.492.067-.695.122-.18.048-.336.09-.489.09-.062 0-.175-.006-.185-.006-.175-.005-1.057-.213-1.759-.47-.072.05-.14.1-.208.151.733.29 1.625.514 1.907.531.078.005.161.014.245.014.186 0 .372-.05.552-.099a4.31 4.31 0 01.347-.083l-.099.095-.509.53c-.04.039-.127.143-.07.27a.349.349 0 00.134.144c.122.078.339.131.54.132.077 0 .149-.008.216-.022.213-.046.437-.218.673-.4.19-.144.458-.327.663-.381a.778.778 0 01.232-.022c.136.017.267.061.501.23.418.303 2.266 1.86 2.284 1.875.001.001.119.1.11.262-.004.09-.056.171-.147.227a.463.463 0 01-.242.073.409.409 0 01-.214-.06c-.007-.005-.64-.564-.873-.752-.038-.03-.073-.057-.11-.057a.06.06 0 00-.048.022c-.037.044.004.104.052.144l.74.716c.001 0 .092.083.102.193.006.119-.053.218-.175.295a.49.49 0 01-.263.084.391.391 0 01-.21-.062l-.107-.1c-.194-.185-.394-.375-.54-.492-.036-.029-.074-.055-.11-.055a.064.064 0 00-.047.019c-.017.018-.028.05.013.103.017.022.038.04.038.04l.54.584c.004.005.11.127.011.25l-.019.022a.488.488 0 01-.05.047.443.443 0 01-.337.075c-.053-.01-.088-.024-.106-.044l-.006-.006a8.137 8.137 0 00-.527-.478c-.03-.024-.067-.054-.105-.054a.065.065 0 00-.049.02c-.044.048.023.118.051.144l.46.489a.102.102 0 01-.017.03c-.017.022-.072.075-.24.096a.513.513 0 01-.06.003c-.173 0-.356-.08-.45-.129a.64.64 0 00.064-.28.675.675 0 00-.71-.662c.012-.167-.013-.482-.349-.621a.745.745 0 00-.287-.061.605.605 0 00-.21.037.573.573 0 00-.337-.275.78.78 0 00-.246-.042c-.14 0-.269.04-.384.118a.59.59 0 00-.861-.046c-.144-.106-.712-.454-2.233-.786a8.545 8.545 0 01-.347-.092c-.017.079-.03.16-.038.24l.335.077c1.554.332 2.068.678 2.155.743a.547.547 0 00-.045.216.573.573 0 00.689.552c.048.227.203.4.439.488a.593.593 0 00.34.023c.044.107.142.24.361.326.077.03.154.045.229.045.061 0 .12-.01.178-.03a.7.7 0 001.127.21c.11.059.344.166.58.166.031 0 .06-.002.089-.005.234-.029.344-.117.394-.186a.288.288 0 00.024-.038.7.7 0 00.186.028.643.643 0 00.376-.13c.122-.084.21-.206.222-.31a.06.06 0 000-.004.644.644 0 00.126.012c.132 0 .262-.04.386-.118.24-.151.28-.348.277-.478a.65.65 0 00.489-.094.507.507 0 00.171-.712 15.343 15.343 0 012.397-.723 2.293 2.293 0 00-.033-.24c-1.306.28-2.28.686-2.525.79z" fill="#002F6D"/></svg>