<!-- by TradingView --><svg width="18" height="18" xmlns="http://www.w3.org/2000/svg"><path fill="#0027A0" d="M0 0h18v18H0z"/><path d="M13.004 11.697c.035.599.024.913.574.972l.377.035c.069.073.057.253-.023.3h-2.803c-.083-.057-.095-.227-.023-.3l.338-.036c.574-.058.559-.25.559-1.02V6.635h-.044c-.083.132-.527 1.095-.762 1.562L10.153 10.3c-.526 1.06-1.055 2.188-1.268 2.74-.021.038-.067.05-.115.05-.023 0-.082-.012-.104-.05-.203-.635-.765-1.815-1.035-2.403L6.578 8.316c-.248-.552-.494-1.177-.752-1.73h-.024c-.045.744-.08 1.442-.116 2.14a60.86 60.86 0 00-.082 2.825c0 .89.069 1.083.528 1.118l.446.035c.082.073.07.267-.013.3H4.068c-.072-.057-.097-.239-.024-.3l.258-.036c.492-.058.656-.144.727-.983.071-.796.13-1.456.198-2.648.053-.892.096-1.785.13-2.68.025-.757-.071-.912-.787-1.034L4.384 5.3c-.06-.072-.048-.252.047-.3H6.4c-.048.468.177 1.215.54 1.983l1.336 2.778c.27.564.526 1.116.81 1.645h.023c.316-.562.61-1.189.903-1.804l1.103-2.295c.54-1.092.867-1.692.89-2.307h1.926c.07.048.07.252.01.3l-.248.023c-.738.087-.902.303-.89 1.144.023 1.275.105 3.497.2 5.23z" fill="#fff"/></svg>