<!-- by TradingView --><svg width="18" height="18" xmlns="http://www.w3.org/2000/svg"><path fill="#065FA3" d="M0 0h18v18H0z"/><path d="M4.017 6.101c.686-.491 1.35-.831 2.162-.987 1.025-.197 2.135-.212 2.901.564 1.445 1.464 2.616 3 3.884 4.673.05.066.046.246.002.272-.9.54-1.793.983-2.753 1.355-.153.06-.346-.011-.441-.102-.783-.748-1.432-1.576-2.083-2.405-.551-.703-1.104-1.407-1.74-2.066A4.592 4.592 0 004.054 6.22c-.058-.019-.068-.096-.037-.119zM10 6.207c.031-.456.533-.874 1.017-.99.94-.223 1.52-.22 2.755-.216.35.002.75.003 1.228 0-1.297.971-2.332 2.502-2.1 3.999-.287-.196-.516-.444-.743-.69-.143-.155-.286-.31-.442-.45l.028-.047c.14-.228.28-.456.362-.715.143-.453.534-.56 1.028-.547.037 0-.03-.35-.166-.38-.16-.036-.31-.038-.463-.04a2.02 2.02 0 01-.645-.083c-.138-.045-.293.016-.409.065-.152.065-.28.163-.409.26-.167.128-.335.255-.559.313L10 6.207zM6.197 15c.709-1.041 1.665-1.92 2.786-2.626L9 11.244a65.014 65.014 0 00-1.66-1.722L6.825 9c-.052 1.006-.126 1.944-.516 2.909-.4.992-.383 2.07-.112 3.091z" fill="#fff"/></svg>