<!-- by TradingView --><svg width="18" height="18" xmlns="http://www.w3.org/2000/svg"><path fill="#F0F3FA" d="M0 0h18v18H0z"/><path d="M8.75 9.239c-.762-1.124-.745-2.37-.745-2.37V3c3.608 2.575 5.002 4.72 5.002 4.72 1.713 2.2.68 4.297.68 4.297-2.094 4.19-5.684 2.732-5.684 2.732 2.906-.033 2.524-2.089 2.524-2.089-.252-1.416-1.043-2.413-1.2-2.64-.159-.229-.31-.387-.577-.781z" fill="#006BB6"/><path d="M8 10v2.818s-.001.177.234.182c0 0 .436.01.66-.558 0 0 .56-1.236-.894-2.442zM7 6v7.005s-.113.79 1 .995c0 0-1.08 1.058-2.674.086 0 0-1.705-.861-1.248-3.271 0 0 .226-1.637 2.922-4.815z" fill="#009CDC"/></svg>