<!-- by TradingView --><svg width="18" height="18" xmlns="http://www.w3.org/2000/svg"><path fill="#026770" d="M0 0h18v18H0z"/><path d="M8.781 12.323c-1.822 0-3.299-1.52-3.299-3.394s1.477-3.394 3.3-3.394c1.82 0 3.298 1.52 3.298 3.394 0 1.875-1.477 3.394-3.299 3.394zm6.13-4.646c-.562-2.662-3.665-4.228-6.93-3.498-3.265.73-5.456 3.481-4.893 6.144.563 2.662 3.666 4.228 6.93 3.498 3.266-.73 5.456-3.482 4.894-6.144z" fill="#fff"/><path d="M8.22 12.817c-1.698 0-3.074-1.549-3.074-3.46 0-1.91 1.376-3.459 3.075-3.459 1.698 0 3.075 1.549 3.075 3.46 0 1.91-1.377 3.459-3.075 3.459zM9 5C6.791 5 5 7.015 5 9.5S6.791 14 9 14s4-2.015 4-4.5S11.209 5 9 5z" fill="#9BD3CD"/></svg>