<!-- by TradingView --><svg width="18" height="18" xmlns="http://www.w3.org/2000/svg"><path fill="#F0F3FA" d="M0 0h18v18H0z"/><path d="M8.995 4.003H5.213a.805.805 0 100 1.61h3.605c-.014 0-.03.003-.044.005.073-.005.147-.008.221-.008 1.853 0 3.188 1.444 3.188 3.324 0 1.962-1.335 3.46-3.188 3.46-1.851 0-3.187-1.498-3.187-3.46 0-1.172.52-2.175 1.36-2.763-.012.008-.026.015-.037.025H5.998a.803.803 0 01-.769-.584C4.452 6.482 4 7.642 4 8.933 4 11.78 6.07 14 9 14s5-2.22 5-5.068C14 6.166 11.93 4 9 4M5.227 5.613h-.001.002" fill="#80CC28"/><path d="M5.996 6.196h1.133c.011-.009.025-.017.036-.025a3.118 3.118 0 011.607-.553l.044-.005H5.224v.001l-.002.002a.803.803 0 00.77.584" fill="#6A9E47"/></svg>