<!-- by TradingView --><svg width="18" height="18" xmlns="http://www.w3.org/2000/svg"><path fill="#023F74" d="M0 0h18v18H0z"/><path d="M5.378 14c.311-1.604.598-2.697.822-3.61l.211-.83.137-.552.285-1.176 1.38 2.558A66.815 66.815 0 0110 14h1.606c.124-.609.249-1.203.373-1.812A139.52 139.52 0 0114.005 4H12.55c-.286 1.494-.447 2.325-.61 2.96l-.21.913-.274 1.135-.087.414-.161.678c-.361-.72-.46-.913-.56-1.092C9.32 6.588 8.906 5.715 8.135 4H6.386C5.89 6.559 5.33 9.021 4.46 12.285c-.15.567-.298 1.148-.46 1.715h1.378z" fill="#F6F8FD"/></svg>