<!-- by TradingView --><svg xmlns="http://www.w3.org/2000/svg" width="18" height="18" viewBox="0 0 18 18"><path fill="#78A12F" d="M0 0h18v18H0z"/><path fill-rule="evenodd" d="M9 15A6 6 0 1 0 9 3a6 6 0 0 0 0 12Zm3.2-7.92c-.02.07-.05.14-.12.14-.26.03-.25-.16-.24-.36 0-.13.01-.26-.06-.33-.04-.03-.07-.06-.06-.17.01-.1-.03-.05-.09 0-.16.16-.55-.04-.42-.26.03-.05.06-.1.06-.14 0-.1-.23-.05-.45 0-.24.05-.48.1-.47 0 0-.06.02-.13.04-.2.05-.15.1-.33-.04-.4-.13 0-.24.07-.35.14-.13.08-.25.16-.4.1.14-.24.08-.44-.14-.6a.8.8 0 0 0-.15.23c-.07.14-.14.27-.3.29a.86.86 0 0 0-.37.16c-.19.12-.36.24-.6.02-.12-.12-.36.06-.3.21.07.2-.05.27-.16.35-.2.12-.26.08-.35.02-.06-.04-.14-.08-.26-.09-.12 0-.18-.01-.4-.25v.19c-.03.23-.06.46.21.54l-.01.04c-.05.12-.09.22-.25.18-.13-.05-.2.02-.25.12a1.5 1.5 0 0 0-.16.72c0 .15-.1.2-.2.24-.08.04-.16.08-.19.19-.03.14-.17.16-.28.17-.05.01-.1.02-.1.04-.04.1-.1.16-.14.2-.03.02-.05.04-.06.08 0 .03.05.1.1.19.22.33.04.64-.12.27-.03.06-.12.36-.12.52 0 .07.04.12.08.16.06.06.1.11 0 .16-.04.02-.08.04-.08.08 0 .21.25.32.45.32.16 0 .32.05.48.11.12.04.24.09.35.1a1.67 1.67 0 0 1 .87.32c.1.08.15.12.27.12.3 0 .53 0 .66-.25.06-.12.13-.25.2-.25h.32v1.84L7 12.5v.5h4v-.5a.72.72 0 0 0-.21 0l-1-.16V10.5h.44c.15 0 .22.11.28.22.04.08.09.16.18.16.19 0 .41.04.6.08l.25.04c.1 0 .1-.12.1-.21v-.09c.17-.14.25-.1.33-.08.03.02.07.03.1.03a.6.6 0 0 0 .27-.12c.09-.06.17-.12.33-.12.33-.01.33-.02.33-.3-.04-.07-.17-.04-.3-.02-.16.03-.32.07-.32-.1 0-.21.13-.26.25-.3.23-.1.17-.24.1-.37s-.13-.27.09-.35c.09-.03.18-.07.18-.19 0-.3-.09-.86-.32-1.1-.02-.02-.02-.02-.07-.28a.28.28 0 0 0-.03-.08.66.66 0 0 1-.08-.17c-.02-.06-.17-.24-.24-.18-.04.02-.05.07-.06.11Z" fill="#fff"/></svg>