<!-- by TradingView --><svg width="18" height="18" xmlns="http://www.w3.org/2000/svg"><path fill="#174489" d="M0 0h18v18H0z"/><path d="M5.665 12.957a.188.188 0 01-.12.043h-2.35a.193.193 0 01-.178-.104.18.18 0 01.05-.216l4.288-3.515a.193.193 0 000-.3l-4.282-3.54a.187.187 0 01-.07-.174A.186.186 0 013.187 5H5.45c.043 0 .086.015.12.042l4.667 3.821.043.035a.15.15 0 01.004.23l-.046.04-4.572 3.79z" fill="#A8CB3A"/><path d="M10.864 8.342a.207.207 0 00.261 0l3.76-3.018a.186.186 0 00.07-.173.186.186 0 00-.186-.151H12.5a.195.195 0 00-.122.042L9.74 7.12a.19.19 0 000 .298l1.125.925zM10.851 9.661a.207.207 0 01.262 0l3.815 3.01a.186.186 0 01.07.174.186.186 0 01-.185.15H12.54a.195.195 0 01-.12-.042l-2.622-2.108a.19.19 0 010-.298l1.052-.886z" fill="#fff"/></svg>