<!-- by TradingView --><svg width="18" height="18" xmlns="http://www.w3.org/2000/svg"><path fill="url(#paint0_linear)" d="M0 0h18v18H0z"/><path d="M10 10h1c-.27 1.948-2 3-3.944 3C4.843 13 3 11.21 3 9c0-2.209 1.843-4 4.056-4C8.79 5 10.73 6.052 11 8h-1v2zM8.382 9c0-.728-.604-1.333-1.334-1.333-.729 0-1.333.605-1.333 1.334 0 .727.604 1.332 1.333 1.332.73 0 1.334-.605 1.334-1.332zM11 5v3h2v2h-2v3h3V5" fill="#fff"/><defs><linearGradient id="paint0_linear" x1="3.349" y1="3.122" x2="21.904" y2="24.434" gradientUnits="userSpaceOnUse"><stop stop-color="#1A1E21"/><stop offset="1" stop-color="#06060A"/></linearGradient></defs></svg>