<!-- by TradingView --><svg width="18" height="18" xmlns="http://www.w3.org/2000/svg"><path fill="#6C2078" d="M0 0h18v18H0z"/><path d="M6.429 7.765s.002-.438 0-.598V5.654c4.715.701 5.14 3.961 5.142 3.992L13 9.961c-.355-2.142-1.759-4.19-3.924-5.124A10.918 10.918 0 005.178 4H5v3.765l1.429.314v-.314z" fill="#fff"/><path d="M6.429 4.627v.628c.606.074 1.342.163 2.153.445 1.505.519 2.613 1.631 2.988 2.693h.002c-.004-.024-.501-3.22-5.143-3.766z" fill="#6C2078"/><path d="M11.572 10.275v2.137c-4.734-.702-5.143-3.706-5.143-3.706L5 8.392c.356 2.142 1.758 3.878 3.924 4.81 1.92.828 3.817.838 3.897.838H13V10.59c0-.096 0-.02 0 0l-1.428-.314z" fill="#fff"/><path d="M11.572 13.413v-.628c-.63-.074-1.315-.15-2.19-.445-1.573-.532-2.56-1.294-2.953-2.379.025.152.39 2.907 5.143 3.452z" fill="#6C2078"/></svg>