<!-- by TradingView --><svg width="18" height="18" xmlns="http://www.w3.org/2000/svg"><path fill="#46B555" d="M0 0h18v18H0z"/><circle cx="8.726" cy="9.274" r="4.726" fill="#fff"/><circle cx="12.562" cy="5.393" r="2.438" fill="#fff"/><path d="M11.074 5.178c1.356.729 2.026 2.16 2.126 2.568.556-.103 1.222-.676 1.327-.89-.714-1.595-2.066-2.649-2.624-2.92-.61.364-.798.863-.83 1.242zM12.654 9.408C9.156 8.832 8.591 5.88 8.817 4.545c.964.05 1.165.17 1.382.236-.444 1.972 1.195 3.012 2.182 3.041a3.96 3.96 0 01.273 1.586z" fill="#46B555"/></svg>