<!-- by TradingView --><svg width="18" height="18" xmlns="http://www.w3.org/2000/svg"><path fill="#F0F3FA" d="M0 0h18v18H0z"/><path d="M5.055 6.04c1.76-2.314 4.708-2.083 5.904-1.62-3.043-.182-4.515 1.505-5.093 3.01-.49 1.513 0 3.203.463 3.82 1.873 2.498 4.283 2.2 5.672 1.852-1.042.81-3.357 1.422-5.44.232-2.432-1.39-3.53-4.63-1.506-7.293z" fill="#029CD7"/><path d="M9.57 4.767c2.572-.343 4.283 1.737 4.515 2.894-1.274-1.852-3.357-2.083-4.862-1.389-1.19.6-1.845 1.684-1.968 2.316-.518 2.662.926 3.588 1.968 4.283-.81-.116-2.72-.764-3.242-3.01-.476-2.05.824-4.724 3.589-5.094z" fill="#15499F"/><path d="M13.853 8.24c-3.01-1.504-5.21-.115-6.135 1.621-.024.044 1.397-.352 2.894-.463 2.083-.155 3.473.81 3.473.81.06 0 .063-.734 0-1.157-.07-.472-.232-.81-.232-.81z" fill="#097CC1"/><path d="M13.969 10.44c-.94-.66-1.968-.81-2.894-.81 0 0 .757.516 1.158 1.62.276.763.115 1.62.115 1.62s.463-.23 1.042-1.041c.463-.81.62-1.36.579-1.39z" fill="#F7931D"/></svg>