<!-- by TradingView --><svg width="18" height="18" xmlns="http://www.w3.org/2000/svg"><path fill="#F0F3FA" d="M0 0h18v18H0z"/><path d="M4 5.741c3.645-1.097 6.872-.404 7.966 1.676.815 1.551.258 3.677-1.363 5.583h1.921c1.453-1.899 1.917-3.962 1.015-5.584C12.654 5.824 10.646 5 8.219 5 6.9 5 5.456 5.244 4 5.741z" fill="url(#paint0_linear)"/><path d="M5 13V6h2v7H5z" fill="#273E64"/><path d="M6 7.35V6h2c1.473 0 2.481.946 2.55 2.163.08 1.43-1.26 2.187-2.55 2.187H6V9h2c.494 0 1-.182 1-.837 0-.426-.274-.813-1-.813H6z" fill="#273E64"/><defs><linearGradient id="paint0_linear" x1="9.039" y1="7.742" x2="9.557" y2="13.327" gradientUnits="userSpaceOnUse"><stop stop-color="#F79248"/><stop offset="1" stop-color="#EA3732"/></linearGradient></defs></svg>