<!-- by TradingView --><svg width="18" height="18" xmlns="http://www.w3.org/2000/svg"><path fill="#F0F3FA" d="M0 0h18v18H0z"/><path d="M5.028 5.61c.946-1.39 3.125-1.104 4.097-.786h.59c2.25-.811 3.506.848 3.853 1.778.783 1.804.326 3.675 0 4.385-1.305.628-2.663.11-3.18-.228L8.33 9.022c-1.093-1.142-3.336-.6-4.321-.186-.098-1.572.638-2.806 1.019-3.227z" fill="#D22030"/><path d="M7.922 13.916c-3.228-.582-3.956-3.656-3.915-5.104 1.06-.548 2.285-.569 2.774-.513 1.085.072 2.276 1.088 2.765 1.69 1.37 1.547 3.245 1.288 4.033.976-1.353 2.96-4.332 3.228-5.657 2.95z" fill="#F58220"/><path d="M9.986 4.75h-.001l-.016.076-.158.752.138-.056c.104-.041.203-.08.28-.107.037-.012.08-.027.12-.037a.535.535 0 01.201-.019.507.507 0 01.45.403.505.505 0 01-.118.435.604.604 0 01-.099.088 1.503 1.503 0 01-.127.08c-.09.052-.227.125-.417.223-.22.112-.485.19-.673.237a5.693 5.693 0 01-.323.072L9.22 6.9l-.006.001h-.003l-.086-.492.086.493-.236.04-.18-.157-.006-.005-.022-.02a5.244 5.244 0 00-.286-.224c-.054-.025-.103-.046-.152-.067l-.128-.056-1.063-.478 1.079-.441a.592.592 0 01.355-.026.878.878 0 01.221.085l.196-.933.149-.707v-.001l.005-.025.006-.02c.015-.046.612-.347.98.167a.946.946 0 01-.007.054v.008l-.002.008-.002.01-.133.636z" fill="#000"/></svg>