<!-- by TradingView --><svg xmlns="http://www.w3.org/2000/svg" width="18" height="18" viewBox="0 0 18 18"><path fill="#F0F3FA" d="M0 0h18v18H0z"/><path d="M14.19 7c-1.21.1-1.63 1.04-1.64 1.03L12.74 7h-.98L11 11h.98l.28-1.46s.04.51.34.91c.3.4.78.54 1.23.55.17 0 .34-.01.5-.04l.27-.06-.48-.64-.15.01a.6.6 0 0 1-.41-.1c-.38-.3-.32-1.07-.2-1.5.16-.47.48-.94.97-.94.48 0 .67.5.66.94 0 .18-.02.34-.05.51h-1.15L15.02 11H16l-.47-.72s.3-.42.41-1c.25-1.26-.33-2.3-1.6-2.28h-.15Z" fill="#040404"/><path d="M2.8 7 2 11h.98l.28-1.45h.37c.26 0 .54-.01.8-.08.34-.08.63-.3.83-.63L4.82 11h2.69l.14-.73h-1.7l.19-.9h1.54l.15-.73H6.3l.16-.91h2.36L8.18 11h1l.64-3.27h.93L10.9 7H5.62l-.2 1.02L5.4 8C5.32 6.94 4.23 7 3.5 7h-.7Zm1.28.74c.21.04.33.23.34.46.02.38-.2.57-.61.62h-.39l.2-1.1h.2l.26.02Z" fill="#EE631C"/></svg>