<!-- by TradingView --><svg width="18" height="18" xmlns="http://www.w3.org/2000/svg"><path fill="#006F7A" d="M0 0h18v18H0z"/><path d="M9.017 4.003L7.17 5.881l1.848 1.877 1.849-1.877-1.849-1.878zm-3.935 4.01L6.93 6.137l1.848 1.878L6.93 9.89 5.082 8.014zm6.023-1.877L9.257 8.014l1.848 1.877 1.848-1.877-1.848-1.878zM4.848 8.222L3 10.1l1.848 1.877L6.696 10.1 4.848 8.222zm4.17 0L7.168 10.1l1.848 1.877 1.849-1.877-1.849-1.878zm2.286 1.878l1.848-1.878L15 10.1l-1.848 1.877-1.848-1.877z" fill="url(#paint0_linear)"/><defs><linearGradient id="paint0_linear" x1="9" y1="7.7" x2="9.048" y2="2.048" gradientUnits="userSpaceOnUse"><stop stop-color="#fff"/><stop offset="1" stop-color="#fff" stop-opacity="0"/></linearGradient></defs></svg>