<!-- by TradingView --><svg width="18" height="18" xmlns="http://www.w3.org/2000/svg"><path fill="#D9212A" d="M0 0h18v18H0z"/><path d="M15 13.636c-2.649-.814-4.502-1.202-5.338-1.194.988-1.69 1.049-3.025.667-4.14-1.204-3.525-4.28-3.06-5.121-2.325.962-.32 1.646-.101 1.733-.067-1.343.118-2.704 1.03-2.626 2.822.763-1.276 3.545-2.02 4.853.39.477.878.538 2.044 0 3.312-.693.008-3.2.27-6.168 1.202V14c3.069-.727 6.375-1.41 12-.013v-.35zM9.052 5.131c.32-.228.338-.236.676-.473-.182.313-.173.66-.043.845l.702-1.36c-.338-.186-1.144-.296-1.751.363.303-.034.59-.068.85-.101-.365.228-.417.524-.434.726z" fill="#F6F8FD"/><path d="M11.05 10.287c1.953-2.702 1.557-4.306.155-5.058.137-.413.077-.793.077-.793l-.662.66-.233-.958-.559 1.083s.456 1.67 1.222 5.066z" fill="#F6F8FD"/></svg>