<!-- by TradingView --><svg width="18" height="18" xmlns="http://www.w3.org/2000/svg"><path fill="#C52033" d="M0 0h18v18H0z"/><path d="M14 4.911c-.023-1.723-2.24-2.209-4.425-1.745-2.093.442-4.3 1.977-4.548 3.723C4.8 8.446 6.079 8.534 6.317 8.5c.158-.022.18-.11.113-.232-.09-.165-.317-.574 0-1.513.317-.95 1.47-2.408 3.44-2.762 1.946-.342 2.795.453 2.421 1.9-.35 1.381-1.754 2.486-3.078 3.038a8.5 8.5 0 01-1.165.387c.034-.11.08-.21.113-.32.917-2.42 1.663-3.712 1.822-4.021.124-.255-.023-.398-.34-.277-.34.133-1.063.608-1.572 1.436-.51.829-1.415 2.563-2.082 4.43-.657 1.867-.838 3.325-.306 4.02.204.266.475.387.566.399.158.033.317.044.373-.365.068-.453.441-2.353 1.086-4.374a9.644 9.644 0 002.524-.862c1.923-.939 3.79-2.651 3.768-4.474z" fill="#fff"/></svg>