<!-- by TradingView --><svg width="18" height="18" xmlns="http://www.w3.org/2000/svg"><path fill="#0075BB" d="M0 0h18v18H0z"/><path d="M8.317 9.317v2.913c0 .63.063 1.02.19 1.173.171.216.431.324.779.324H9.7V14h-4v-.273h.346c.388 0 .666-.138.833-.413.09-.152.136-.514.136-1.084V5.77c0-.63-.061-1.02-.183-1.173-.176-.216-.438-.324-.786-.324H5.7V4H9.07c.822 0 1.47.093 1.945.28a2.67 2.67 0 011.2.93c.325.437.487.956.487 1.555 0 .817-.248 1.48-.745 1.992-.493.51-1.19.767-2.094.767-.221 0-.46-.018-.718-.052a8.674 8.674 0 01-.827-.155zm0-.42c.24.049.452.086.637.11.185.025.343.037.474.037.47 0 .874-.196 1.213-.59.344-.398.515-.912.515-1.541 0-.433-.081-.833-.244-1.202-.162-.374-.393-.652-.691-.833a1.874 1.874 0 00-1.016-.28c-.23 0-.527.046-.888.14v4.159z" fill="#fff"/></svg>