<!-- by TradingView --><svg xmlns="http://www.w3.org/2000/svg" width="18" height="18"><path fill="url(#avjxlb1y0)" d="M0 0h18v18H0z"/><path d="M10 4.8c-.3-.48-.89-.82-1.51-.8-.33 0-.66.08-.95.22-.3.14-.55.34-.74.58-.53.62-.8 1.54-.8 2.74C6 10.14 7.2 11 8.33 11c.6.01 1.3-.15 1.67-.57V14h1V4h-1v.8zm0 1v3.5c-.32.52-.84.7-1.36.7C7.68 10 7 9.27 7 7.53 7 5.85 7.74 5 8.69 5c.55.02 1.16.33 1.31.8z" fill="#fff"/><defs><linearGradient id="avjxlb1y0" x1="2.22" y1="3.36" x2="15.5" y2="15.08" gradientUnits="userSpaceOnUse"><stop stop-color="#21DBAA"/><stop offset=".38" stop-color="#00B0EE"/><stop offset="1" stop-color="#5F1AE5"/></linearGradient></defs></svg>