<!-- by TradingView --><svg width="18" height="18" xmlns="http://www.w3.org/2000/svg"><path fill="url(#paint0_linear)" d="M0 0h18v18H0z"/><path d="M5 8.664c0 2.768 2.298 5.08 5 5.336v-3.522c-1.266-.121-2.35-1.075-2.35-2.338 0-1.224.803-2.11 1.91-2.11 1.014 0 1.7.645 1.7 1.6 0 .846-.311 1.397-1.26 1.545v1.303c1.95-.053 3-1.263 3-3.078C13 5.438 11.498 4 9.442 4 6.912 4 5 6.015 5 8.664z" fill="#fff"/><defs><linearGradient id="paint0_linear" x1="2.993" y1="15.362" x2="10.629" y2="-.85" gradientUnits="userSpaceOnUse"><stop stop-color="#0073C0"/><stop offset=".1" stop-color="#007AC3"/><stop offset=".4" stop-color="#218FCF"/><stop offset=".5" stop-color="#2D97D3"/><stop offset=".6" stop-color="#2EA1D5"/><stop offset=".7" stop-color="#30ABD6"/><stop offset=".8" stop-color="#32B4D7"/><stop offset=".9" stop-color="#35BED7"/><stop offset="1" stop-color="#37C7D8"/></linearGradient></defs></svg>