<!-- by TradingView --><svg xmlns="http://www.w3.org/2000/svg" width="18" height="18"><path fill="#F0F3FA" d="M0 0h18v18H0z"/><path d="M5 8.85h1.7c.58-.98 1.43-1.93 2.22-2.75V5H5v3.85zm0 .3V13c.25-1.21.8-2.6 1.49-3.85H5zM12.77 5c.14-.1.37-.21.6-.33-.3.12-.6.2-.8.33h-.37c.22-.18.65-.43 1-.6-.38.12-1.66.35-1.97.6-.71.56-2.13 1.58-2.9 2.58l.82.87c1-1.28 2.62-2.72 3.62-3.45zM8.85 8.85l-.83-.72c-.15.22-.45.48-.6.72h1.43zm.3.3v1.29c.27-.4.8-.92 1.12-1.3H9.15zm5.03-2.37c-.41.22-.87.45-1.18.66-.5.37-1.37 1.03-1.77 1.41h1.07c.17-.16 1.59-1.85 1.88-2.07zm-3.22 2.37c-.63.64-1.33 1.45-1.81 2.2V13c.45-1.17 1.62-2.64 2.76-3.85h-.95zM8.86 13v-1.36c-.26.35-.61 1-.8 1.36h.8zm-1.24 0c.29-.73.84-1.52 1.23-2.15V9.5A15.99 15.99 0 007.16 13h.46zm-.46-3.85c-.8 1.3-1.38 2.71-1.6 3.85H6.7c.33-1.3.96-2.65 1.79-3.85H7.16zM9.76 13H13V9.15h-.5A13.92 13.92 0 009.78 13zm1.2-8.44c-.3.15-.9.33-1.1.44h-.71v.82c.23-.23 1.56-1.06 1.8-1.26zm2.97.61c-.27.07-.67.23-.93.43a17.04 17.04 0 00-3.48 3.25h1.11c.7-.72 1.43-1.44 2.37-2.16.17-.13.49-.32.75-.45-.24.07-.55.03-.75.12v-.38c.22-.24.62-.68.93-.8z" fill="#1C1A1B"/></svg>