<!-- by TradingView --><svg width="18" height="18" xmlns="http://www.w3.org/2000/svg"><path fill="#4C80B2" d="M0 0h18v18H0z"/><path d="M8 12.646c0 .34.09.59.167.749.077.149.22.255.429.318.22.064.566.096 1.039.096.033 0 .05.032.05.096 0 .063-.017.095-.05.095H8.579 5.05C5.016 14 5 13.968 5 13.905c0-.064.016-.096.05-.096.351 0 .54-.026.54-.026.171 0 .275-.128.33-.277.055-.159.082-.398.082-.716V5.417c0-.365.008-.931-.412-1.067-.165-.063-.2-.111-.54-.111-.034 0-.05-.032-.05-.096C5 4.08 5.016 4 5.05 4H9.37c1.122 0 2.007.228 2.656.685.649.446.973 1.14.973 2.086 0 .658-.174 1.41-.526 1.867a3.288 3.288 0 01-1.369 1.035A4.28 4.28 0 019.406 10c-.297 0-.555-.003-.775-.056-.022 0-.033-.027-.033-.08 0-.032.005-.063.016-.095.022-.032.044-.043.066-.032.165.042.352.064.561.064.506 0 .924-.229 1.254-.685.34-.457.51-1.277.51-2.116 0-.839-.188-1.508-.562-1.965-.363-.456-.896-.685-1.6-.685-.308 0-.517.07-.627.207-.11.138-.216.409-.216.812v7.277z" fill="#fff"/></svg>