<!-- by TradingView --><svg xmlns="http://www.w3.org/2000/svg" width="18" height="18"><path fill="#F0F3FA" d="M0 0h18v18H0z"/><path d="M9.5 9h-.9V7.57h.88c.43 0 .92.2.92.75 0 .4-.42.68-.9.68zm.1-2H8.16c-.12 0-.16.1-.16.2v3.55c0 .11.01.25.16.25h.27c.15 0 .17-.14.17-.25V9.57h1.05c.8 0 1.35-.47 1.35-1.25C11 7.56 10.54 7 9.6 7z" fill="#4FC8ED"/><path d="M15 10.85c0 .08-.07.15-.16.15h-.29a.15.15 0 01-.15-.15V7.58l-.82 3.27c-.02.08-.07.15-.15.15h-.45c-.08 0-.13-.07-.15-.15L12 7.58v3.27c0 .08-.07.15-.16.15h-.29a.15.15 0 01-.15-.15v-3.7c0-.09.07-.15.15-.15h.84c.07 0 .13.05.15.11l.67 2.95.69-2.93a.15.15 0 01.14-.13h.8c.09 0 .16.07.16.15v3.7z"/><path d="M3 11h4V7H3v4z" fill="#4FC8ED"/></svg>