<!-- by TradingView --><svg xmlns="http://www.w3.org/2000/svg" width="18" height="18" viewBox="0 0 18 18"><path fill="#F0F3FA" d="M0 0h18v18H0z"/><path fill-rule="evenodd" d="M9 15A6 6 0 1 0 9 3a6 6 0 0 0 0 12Zm.19-11H8.8v10h.38V4ZM4.43 8.55a1.67 1.67 0 1 1 3.34 0v.9c0 .5-.22.95-.57 1.25l.73.68-.38.37-.8-.76a1.67 1.67 0 0 1-2.31-1.54v-.9Zm.54-.07a1.12 1.12 0 1 1 2.25 0v1.04a1.12 1.12 0 1 1-2.25 0V8.48Zm8.2-.34c.02-.4-.24-1.22-1.43-1.26-1.2-.03-1.5.76-1.5 1.16 0 .32.23.9 1.25 1.16 1.18.3 1.15.68 1.14.82v.03c0 .15-.15.63-.88.63-.72 0-1.06-.42-1.08-.8h-.54c0 .41.32 1.24 1.62 1.24 1.26 0 1.48-.83 1.45-1.24-.02-.26-.3-.92-1.35-1.12-.93-.17-1.1-.68-1.02-.9.03-.18.26-.54.9-.53.81.02.9.71.9.81h.53Z" fill="#F40"/></svg>