<!-- by TradingView --><svg width="18" height="18" xmlns="http://www.w3.org/2000/svg"><path fill="#07365A" d="M0 0h18v18H0z"/><path fill-rule="evenodd" d="M6.942 10.569L8.469 13h2.425l-.003-.002c.32.01.639-.015.932-.07C13.518 12.608 14 11.601 14 9.685V6.897c0-1.301.11-1.461 1-1.486V5c-.347.006-.714.016-1.08.026-.355.009-.708.018-1.039.024-.278-.006-.575-.016-.869-.025-.284-.01-.566-.019-.828-.025v.417c1.046-.025 1.081.527 1.081 1.487v2.05c0 .354.004.675.008.966.021 1.738.03 2.397-.897 2.534-.645.085-1.241-.388-1.354-1.082-.094-.614.066-1.204.238-1.351a.422.422 0 01.136-.085l.006-.006-.078-.467-.433.084-1.558.327-.617-.867c.878-.154 1.687-.834 1.687-1.909 0-.843-.364-1.484-1.059-1.804-.475-.227-1.257-.267-1.77-.294h-.007c-.299.007-.592.017-.884.026-.286.01-.571.02-.859.026-.298-.006-.596-.016-.895-.025-.307-.01-.616-.02-.929-.027v.435c1.002-.038 1.001.536 1 1.463v4.242c0 .948.001 1.444-1 1.406v.434h3.68v-.428c-1.027.04-1.027-.523-1.027-1.49V9.44c.03 0 .058-.003.086-.006a.745.745 0 01.086-.007c.297-.023.765.592 1.117 1.14zm-.881-1.69c1.036 0 1.562-.448 1.562-1.637 0-1.102-.404-1.683-1.425-1.683H6.17c-.136-.001-.456-.004-.485.127-.032.14-.035.948-.035 1.128v2.062l.41.003z" fill="#fff"/></svg>