<!-- by TradingView --><svg xmlns="http://www.w3.org/2000/svg" width="18" height="18"><path fill="#ED1C24" d="M0 0h18v18H0z"/><path d="M10.04 6h-.21a7 7 0 00-2.71.76c-.53.3-.72.5-.67.67.05.17.22.31.31.37 0 0 .9-.6 1.76-.83.68-.18 1.28-.18 1.73.14.45.33.46.98.3 1.36-.17.38-.75 1.5-2.45 1.63.28-.89.6-1.53.75-1.8.17-.27-.03-.41-.09-.45-.05-.04-.16-.08-.45.03-.28.12-.98.46-1.09.55a.87.87 0 00-.24.4l-1.42 4.12c-.05.17-.14.36-.1.43.06.08.2.2.43.16.23-.03 1-.21 1.13-.25.11-.04.21-.1.26-.3l.61-2.32s.21.72.34 1.03c.12.32.44 1.18.72 1.56.27.38.5.79.85.74a1.6 1.6 0 001.02-.56c.22-.3-.06-.56-.17-.68-.11-.13-.87-.91-1.3-2.12.66-.1 1.77-.54 2.31-1.15.6-.67.9-1.4.52-2.2A2.32 2.32 0 0010.04 6z" fill="#fff"/><path d="M15 7.04a13.4 13.4 0 00-3.08-1.92c-3.54-1.62-7.04-1.44-7.78.27-.32.75-.07 1.67.6 2.61l.1-.08c.14-.1.56-.26.74-.3-.37-.67-.4-1.13-.13-1.66.74-1.49 3.14-1.64 6.24-.28 1.1.48 2.22 1.08 3 1.72.05-.06.24-.31.31-.36z" fill="#8D0C10"/></svg>