<!-- by TradingView --><svg xmlns="http://www.w3.org/2000/svg" width="18" height="18" viewBox="0 0 18 18"><path fill="url(#avyrl5r0g)" d="M0 0h18v18H0z"/><path d="M9.94 3.34c.69.56 4.36 4.42 5.04 5.14.05.06 0 .17-.08.17h-1.6c-.17 0-.22-.03-.32-.15l-.63-.68a51.53 51.53 0 0 0-2.87-2.86.8.8 0 0 0-.48-.2.8.8 0 0 0-.48.2c-.59.51-2.2 2.13-2.87 2.86l-.63.68c-.1.12-.15.15-.32.15H3.1c-.08 0-.13-.1-.08-.17.68-.72 4.35-4.58 5.04-5.14a1.45 1.45 0 0 1 1.88 0zM8.06 14.66a147.9 147.9 0 0 1-5.04-5.14c-.05-.06 0-.17.08-.17h1.6c.17 0 .22.03.32.15l.63.68c.66.73 2.28 2.35 2.87 2.86.22.19.46.2.48.2.02 0 .25-.01.48-.2.59-.51 2.2-2.13 2.87-2.86l.63-.68c.1-.12.15-.15.32-.15h1.6c.08 0 .13.1.08.17-.68.72-4.36 4.58-5.04 5.14a1.45 1.45 0 0 1-1.88 0zm.43-4.39c-.3-.28-.81-.8-1-1.04-.1-.1-.09-.23-.09-.23s0-.13.08-.24c.2-.23.72-.76 1.01-1.04.13-.11.16-.19.16-.33v-1.6c0-.06-.08-.1-.13-.05-.66.64-2.14 2.15-2.63 2.74-.24.25-.21.52-.21.52s-.02.26.21.52c.5.59 1.97 2.1 2.63 2.74.06.05.13.02.13-.06v-1.59c0-.15-.03-.22-.16-.34zm2.03-1.04c-.2.24-.72.76-1.02 1.05-.12.11-.15.19-.15.33v1.6c0 .07.07.1.13.05.66-.64 2.13-2.15 2.63-2.74.23-.26.21-.52.21-.52s.02-.26-.21-.52c-.5-.59-1.97-2.1-2.63-2.74-.06-.05-.13-.02-.13.06v1.59c0 .14.03.22.15.33.3.29.82.81 1.02 1.05.09.1.08.23.08.23s0 .13-.08.23z" fill="#FFB013"/><defs><linearGradient id="avyrl5r0g" x1="3.35" y1="3.12" x2="21.9" y2="24.43" gradientUnits="userSpaceOnUse"><stop stop-color="#1A1E21"/><stop offset="1" stop-color="#06060A"/></linearGradient></defs></svg>