<!-- by TradingView --><svg width="18" height="18" xmlns="http://www.w3.org/2000/svg"><path fill="#F0F3FA" d="M0 0h18v18H0z"/><path d="M10.773 4.169A.094.094 0 0010.717 4H7.27a.937.937 0 00-.675.287L4.262 6.71A.937.937 0 004 7.36v3.387c0 .253.102.495.283.671l2.377 2.316c.175.17.41.266.654.266H9.99c.1 0 .13-.135.04-.178L4.843 11.31a.938.938 0 01-.53-.844V9.45c0-.296.14-.575.378-.752l6.083-4.53z" fill="url(#paint0_linear)"/><path d="M11.892 4.856a.625.625 0 00-.786-.072l-6.067 4.08a.937.937 0 00-.414.778v.576c0 .376.225.716.57.863l5.62 2.388a.937.937 0 001.036-.207l1.881-1.922a.937.937 0 00.268-.655v-3.37a.938.938 0 00-.282-.67l-1.826-1.789z" fill="#AB2534"/><path d="M8.566 11h1.372l.216-1h1.162l.118.492a.659.659 0 00.638.508H13l-1.28-4h-1.415a.658.658 0 00-.626.464L8.566 11zm2.181-3.147h.01l.349 1.148h-.724l.365-1.148z" fill="#fff"/><path d="M7.76 9.129v-.012c.516-.137.861-.445.861-1.056C8.621 7.296 8.091 7 7.23 7H5v4h1.314V9.667h.376c.17 0 .314.019.396.202.061.13.092.365.117.6A.59.59 0 007.8 11h.91c-.144-.387-.129-1.022-.34-1.444a.865.865 0 00-.609-.427zm-1.446-1.24H6.7c.278 0 .538.033.538.393 0 .4-.276.386-.558.386h-.366v-.779z" fill="#fff"/><defs><linearGradient id="paint0_linear" x1="7.693" y1="4" x2="7.994" y2="9.685" gradientUnits="userSpaceOnUse"><stop stop-color="#F67F35"/><stop offset="1" stop-color="#AB2534"/></linearGradient></defs></svg>