<!-- by TradingView --><svg width="18" height="18" xmlns="http://www.w3.org/2000/svg"><path fill="#D52027" d="M0 0h18v18H0z"/><path d="M9.007 8.91a.125.125 0 01-.11-.061c-.013-.024-.889-2.187-1.12-2.64-.027-.054-.027-.072-.076-.072s-.066.064-.066.064L6.557 9.105s-.205.021-.197.16a.123.123 0 00.148.122s.494-.04.582-.05c.09-.01.192-.021.18-.149-.012-.127-.297-.124-.297-.124l.165-.501.273.296.13-.01.234-.286.195.399s-.248.037-.245.169c.003.131.148.117.148.117s1.038-.046 1.148-.054a.148.148 0 00.158-.16c.014-.089-.103-.118-.172-.124zm-1.804-.485l.255-.673.255.634-.51.039zM9.506 6.666s-.253-.091-.25-.232c.003-.141.093-.149.244-.168.355-.014.71-.009 1.063.015.128.02.206.07.206.169a.197.197 0 01-.092.148.56.56 0 01-.16.076v2.151s0 .117.045.148c.044.031.148.017.148.149s-.122.123-.208.121c-.148 0-1.008-.035-1.008-.035s-.19.007-.19-.134c0-.14.14-.126.177-.148.037-.022.03-.079.028-.116-.001-.037-.009-.041-.003-2.144zM12.78 6.325c-.05-.01-.08.05-.08.05l-1.675 2.64s-.203-.03-.224.108a.123.123 0 00.119.148c.52.064.431.057.593.069.09.007.194.017.21-.11.017-.128-.283-.172-.283-.172l.284-.469.21.349.134.015.296-.233.23 1.116s1.057-.05 1.133-.018c-.043-.137-.757-2.932-.89-3.41-.012-.054-.009-.07-.058-.083zm-.999 2.14l.398-.611.161.7-.559-.09zM3.387 8.164l.52.464c1.236.989 1.187.97 1.313 1.07.148.123-.079.22-.168.252h1.186c.054-.254.04-.518-.038-.766a1.116 1.116 0 00-.378-.455c-.09-.067-1.213-.793-1.413-1.216a.193.193 0 01.03-.21c.259-.32.889-.141 1.185-.035a.26.26 0 01.149.095c.027.053.04.113.034.172 0 .175.038.393.204.393.214 0 .218-.34.215-.688v-.185-.224c0-.288-.016-.593-.215-.593-.278 0-.172.485-.244.552-.073.066-.101.013-.217-.042a3.696 3.696 0 00-.482-.197 1.927 1.927 0 00-.74-.033c-.361.036-.95.297-1.119.758a.783.783 0 00.141.843l.037.045z" fill="#fff"/><path d="M6.201 9.639S5.015 9.52 5.11 9.602c.093.082-.046.126-.055.129-.01.003-2.657.832-2.657 1.672 0 .189.537.445 1.168.445.5 0 1.275-.351 1.796-.793.341-.293.628-.644.845-1.038L6.2 9.64zm-2.018 1.462c-.533.313-1.146.227-1.168.148-.022-.079.363-.394.847-.64.38-.173.777-.303 1.186-.387 0 0-.09.427-.865.879zM12.594 9.987l.012.078c.213.382.493.722.828 1.005.52.444 1.295.793 1.795.793.631 0 1.168-.252 1.168-.445 0-.84-2.72-1.693-2.72-1.693l-1.14-.17.057.432zm1.158.255c.409.088.807.22 1.186.396.484.245.87.553.845.64-.023.085-.633.162-1.166-.149-.78-.461-.865-.886-.865-.886z" fill="#fff"/><path d="M9.237 9.403c-1.166.01-2.729.172-2.948.192h-.05l-.257.547c.6.063 1.195.174 1.779.33.547.16 1.053.438 1.482.814l-.006-1.883z" fill="#fff"/><path d="M9.238 9.403c1.17.01 2.73.172 2.95.192l.368.026.093.506c-.65.068-1.294.184-1.927.348a3.909 3.909 0 00-1.483.814l-.001-1.886z" fill="#fff"/></svg>