<!-- by TradingView --><svg width="18" height="18" xmlns="http://www.w3.org/2000/svg"><path fill="#04A6E4" d="M0 0h18v18H0z"/><path d="M13 11.506c0-2.536-1.43-3.29-3.452-3.83-1.654-.435-2.202-.843-2.22-1.765 0-.913.647-1.41 1.798-1.41.548 0 .944.071 1.285.23l.414 1.872h1.726V3.614C11.697 3.18 10.657 3 9.165 3 6.477 3 5.054 4.386 5.054 6.266c0 2.243 1.34 3.077 3.29 3.6 1.636.434 2.256.842 2.256 1.95 0 1.047-.548 1.588-1.95 1.588-.738 0-1.007-.062-1.493-.293l-.368-1.705H5v2.752c.845.478 2.112.842 3.676.842C11.301 15 13 13.838 13 11.506z" fill="#fff"/></svg>