<!-- by TradingView --><svg width="18" height="18" xmlns="http://www.w3.org/2000/svg"><path fill="#444492" d="M0 0h18v18H0z"/><path d="M13.816 7.65l.144.644c.252 2.01-.813 4.09-2.571 5.089-1.492.842-3.42.82-4.894-.053l-.34-.223-.342-.263c1.983.533 3.413-.432 4.382-2.17.703-1.578 1.603-3.362 3.62-3.025zm-.053-.145c-1.155-1.448-2.587-1.084-4.21-.619-.924.189-1.893.086-2.27-.907-.29-1.456 1.362-2.233 2.57-1.894 1.842.47 3.226 1.674 3.91 3.42zM4.016 8.688c-.157 1.587.84 4.397 2.9 3.88.742-.335 1.165-1.246.603-1.96-.39-.443-.945-.65-1.51-.86-.557-.207-1.122-.417-1.547-.863l-.223-.223-.197-.25-.026.276z" fill="#fff"/></svg>