<!-- by TradingView --><svg width="18" height="18" xmlns="http://www.w3.org/2000/svg"><path fill="#006BB6" d="M0 0h18v18H0z"/><path d="M8.049 8h2.559c1.213 0 1.868.603 1.672 1.683-.164.901-.31 1.672-.595 2.805C11.405 13.6 10.387 14 9.267 14H4l.366-2h4.245c.553-.005 1.237.048 1.389-.5.09-.325.223-.935.266-1.17.06-.332-.119-.33-.557-.33l-2.903-.002c-.667 0-1.462-.724-1.4-1.623.024-.354.116-.9.28-2.002.38-2.562 1.776-2.37 2.414-2.37H13L12.61 6s-2.768-.001-4.038-.004c-.873-.001-.868.405-1.007 1.095-.092.474-.264.909.484.909z" fill="#fff"/></svg>