<!-- by TradingView --><svg xmlns="http://www.w3.org/2000/svg" width="18" height="18" fill="none"><path fill="#F0F3FA" d="M0 0h18v18H0z"/><path d="M6.13 12.22s.2.37 1.07.34c.61-.03.99-.34 1.16-.36.23 0 .72-.16 1.53.72 0 0 .12.07.19-.06 0 0-.56-.53-1.08-.7-.6-.2-1.16-.23-1.7-.06-.1.03-.9.3-1.17.12zm1.29-.29s-.29-.1-.45-.62c-.11-.37-.51-.53-.67-.72 0 0 .26.9.56 1.15 0 0-.13.01-.25-.03-.13-.04-.67-.2-.82-.2-.13-.02-.3-.2-.36-.23 0 0 .11.57 1.03.78.14.03.43 0 .6-.05l.36-.08z" fill="#00276F"/><path d="M6.4 11.54s-.08-.47-.16-.82c-.08-.38-.37-.64-.45-.88 0 0-.01.97.4 1.48 0 0-.12 0-.2-.1-.13-.2-.54-.6-.72-.68a1.07 1.07 0 01-.4-.4s-.02 1.1 1.54 1.4z" fill="#00276F"/><path d="M5.61 10.56s0-.4.1-.84c.08-.37-.13-.6-.13-.84 0 0-.3.8-.07 1.4 0 0-.08-.07-.13-.2a2.24 2.24 0 00-.45-.61A2.31 2.31 0 014.56 9s.02.17.12.45c.02.1.02.44.51.78.5.34.42.33.42.33z" fill="#00276F"/><path d="M4.53 7.85s-.25.86.67 1.66c0 0 .02-.35.23-.76.1-.18.08-.5.08-.74 0 0-.51.66-.38 1.2 0 0 0-.1-.09-.22-.07-.14-.1-.5-.3-.71a.86.86 0 01-.2-.42l-.01-.01z" fill="#00276F"/><path d="M5.05 6.69s-.6.72-.04 1.82c0 0 .2-.34.52-.68.07-.08.21-.44.3-.69 0 0-.65.32-.75 1.04 0 0 .02-.1-.02-.24-.02-.13.05-.49.05-.76 0-.2-.07-.43-.06-.49z" fill="#00276F"/><path d="M5.69 6.01s-.64.29-.45 1.49c0 0 .26-.27.6-.5.08-.05.28-.34.4-.54 0-.01-.68.3-.86.75l.02-.24c0-.12.08-.33.18-.57.07-.15.1-.33.11-.39z" fill="#00276F"/><path d="M6.42 5.8s-.7.27-.91 1.06c0 0 .87-.54.91-1.05V5.8zm5.35 6.42s-.2.37-1.07.34c-.61-.03-.98-.34-1.16-.36-.22 0-.7-.16-1.53.72 0 0-.12.07-.18-.06 0 0 .55-.53 1.07-.7.6-.2 1.17-.23 1.7-.06.09.03.9.3 1.17.12zm-1.29-.29s.29-.1.45-.62c.1-.37.51-.53.67-.72 0 0-.26.9-.56 1.15 0 0 .14.01.26-.03s.66-.2.8-.2c.15-.02.32-.2.37-.23 0 0-.11.57-1.03.78-.13.03-.43 0-.58-.05l-.38-.08z" fill="#00276F"/><path d="M11.5 11.54l.16-.82c.08-.38.37-.64.44-.88 0 0 .02.97-.38 1.48 0 0 .11 0 .2-.1.12-.2.53-.6.7-.68.2-.09.4-.34.42-.4-.01 0 0 1.1-1.55 1.4z" fill="#00276F"/><path d="M12.3 10.56s0-.4-.1-.84c-.1-.37.12-.6.12-.84 0 0 .3.8.08 1.4 0 0 .07-.07.11-.2.06-.14.32-.48.47-.61.14-.14.34-.42.36-.47 0 0-.02.17-.11.45-.04.1-.04.44-.52.78-.48.34-.41.33-.41.33z" fill="#00276F"/><path d="M13.38 7.85s.23.86-.68 1.66c0 0-.02-.35-.23-.76-.09-.18-.08-.5-.08-.74 0 0 .52.66.38 1.2 0 0 0-.1.08-.22.08-.14.13-.5.32-.71a.92.92 0 00.2-.42v-.01z" fill="#00276F"/><path d="M12.85 6.69s.6.72.04 1.82c0 0-.2-.34-.52-.68-.07-.08-.2-.44-.3-.69 0 0 .64.32.75 1.04 0 0-.01-.1.02-.24.03-.13-.05-.49-.04-.76 0-.2.06-.43.05-.49z" fill="#00276F"/><path d="M12.2 6.01s.65.29.46 1.49c0 0-.26-.27-.6-.5a2.61 2.61 0 01-.4-.54c0-.01.68.3.87.75 0 0-.02-.11-.02-.24 0-.12-.08-.33-.19-.57-.06-.15-.1-.33-.11-.39z" fill="#00276F"/><path d="M11.48 5.8s.7.27.91 1.06c0 0-.86-.54-.91-1.05V5.8zm-4.12 8.57l.37.1-.03.1.22.07.07-.23-.3-.07c-.23-.06-.3-.15-.25-.34l.04-.15c.05-.2.15-.24.4-.19l.63.16-.09.34-.35-.09.03-.1-.23-.06-.05.21.29.08c.22.05.31.15.27.3l-.05.23c-.03.1-.07.14-.16.17a.48.48 0 01-.25-.01l-.65-.17.09-.35zm2.36.6l-.66.03c-.13 0-.2 0-.26-.05s-.1-.1-.1-.18l-.02-.65c0-.12.02-.17.08-.22a.49.49 0 01.25-.07l.66-.03v.38l-.34.01v-.13l-.25.01.03.68.25-.01-.01-.18.35-.02.02.43zm.36-.33l.1-.02-.19-.65-.1.02-.07-.23.58-.17.07.25-.09.01.2.65.08-.02.07.24-.58.16-.07-.24zM6.42 5a4.2 4.2 0 00-.91.3l-.36-.37-.09.08-.08-.08c.37-.35.57-.5 1-.77l.05.09-.18.12.23.33v.05c0 .03-.02.06-.04.07l-.2.06v-.03l-.02-.04-.02-.01-.19-.25c-.1.07-.15.1-.23.18l.31.36c.26-.1.4-.14.66-.2l.07.1z" fill="#00276F"/><path d="M7.45 4.44c-.15.05-.22.09-.36.15-.06-.12-.1-.18-.15-.31l-.21.1-.06-.12.22-.1-.14-.28L6.5 4l.1.2.02.04c0 .02-.02.04-.04.06l-.04.05a8.14 8.14 0 01-.1.11l.05-.02h.11c.04 0 .07 0 .08.02l.05.1.03.03h.07l.03-.01c.02 0 .03 0 .04-.02l.06.09-.2.1-.08.04-.08.02-.06-.01a.12.12 0 00-.03-.04l-.08-.13-.01-.01-.05-.02H6.3c0 .02 0 .02-.02.02l-.08-.1h.03l.03-.04.05-.05c.02-.01.02-.04 0-.08v-.03l-.1-.17c-.1.06-.14.07-.21.13l-.07-.09a5 5 0 011.31-.62l.04.1-.22.09.24.62.12-.04c0 .04.02.07.03.1zM9 4.16c-.16 0-.24.01-.4.03l-.03-.34-.23.03-.01-.13.22-.03-.03-.3c-.12 0-.17.01-.28.03 0 .09.02.14.03.23v.03l-.05.05a.42.42 0 01-.06.03l-.06.04-.07.03h.06c.02 0 .03 0 .05.02l.05.01c.04.01.07.03.07.06l.01.1.03.04.05.02h.09v.1c-.07 0-.11.01-.2.03l-.09.01h-.08l-.04-.03L8 4.17l-.02-.14-.01-.02-.04-.03h-.09a.5.5 0 00-.04-.12h.04l.02-.02.07-.04c.02-.01.03-.04.04-.06l-.01-.05-.04-.19-.24.06c0-.04 0-.07-.03-.1.56-.14.85-.17 1.42-.18v.1l-.23.01.04.67h.1a.5.5 0 00.02.1z" fill="#00276F"/><path d="M9.57 4.18c-.15-.02-.23-.02-.39-.02v-.78h-.16v-.1h.2l-.03-.04-.05-.07a.34.34 0 00-.1-.07h-.16a.1.1 0 00-.07.02c-.02.01-.03.04-.03.06v.05c0 .01 0 .02.03.02l-.25.02-.06-.03a.18.18 0 01-.04-.07c0-.04.02-.07.07-.1a.72.72 0 01.23-.05L9.03 3c.05 0 .1 0 .16.03.06.01.11.04.17.08a.5.5 0 01.1.12c.03.02.03.03.03.06l.27.01-.02.12-.23-.02-.04.66h.11v.12zm1.37-.36c0 .04-.04.06-.1.07h-.16l.04.01.03.02.07.05.04.06v.04l-.1.25v.03l-.04.01c-.04.01-.1.02-.15 0l-.33-.07-.05-.02a.14.14 0 01-.07-.05l-.02-.04-.01-.03.03-.2.24.06-.03.12c0 .05.02.08.09.1l.06-.01c.03-.01.04-.02.04-.04a4.08 4.08 0 01.05-.23c-.01-.02-.02-.04-.05-.05h-.02l-.04-.01-.11-.03c0-.04.02-.06.03-.1l.1.01.05.02h.06c.03 0 .06-.03.06-.06l.03-.1c.01-.02 0-.04-.02-.06a.16.16 0 00-.06-.04h-.08c-.02 0-.03.03-.04.04v.03l-.26-.06c0-.03 0-.05.02-.08 0-.02 0-.03.02-.03l.05-.03h.14a4.72 4.72 0 01.47.14l.07.05v.04l.01.02-.06.17zm.37.82c-.14-.06-.22-.1-.37-.15l.16-.39-.17-.06.05-.1.16.06.1-.24-.11-.04a.42.42 0 00.03-.1c.26.1.4.15.64.27l-.05.1-.21-.1-.28.6c.03.03.06.04.1.06l-.05.1z" fill="#00276F"/><path d="M11.82 4.93c-.13-.09-.2-.12-.34-.2a27 27 0 01.38-.69c-.06-.03-.1-.04-.15-.08l.04-.1c.28.14.4.2.65.37l-.06.09-.2-.12-.35.57c.03.03.06.04.1.06l-.07.1z" fill="#00276F"/><path d="M13.15 4.95L13 4.82c-.06.07-.1.1-.15.18l-.2-.17-.01-.04a.12.12 0 00-.05-.05l-.07-.04-.05.01c0 .02-.02.02-.03.04v.06l.03.04.05.05.12.09.05.04.05.07v.09l-.1.09-.04.03h-.06l-.07-.03-.08-.06-.06-.04.07.25-.24-.13v-.14l-.04-.13a.21.21 0 00-.09-.08l-.01-.02-.03-.01.07-.1.08.09.05.05.06.05c.1.08.17.1.2.07l.03-.03v-.06a.2.2 0 00-.06-.07l-.12-.09-.07-.05-.03-.05a.12.12 0 01-.02-.05l.01-.06c.04-.04.04-.07.08-.1.02-.04.04-.04.09-.04.01 0 .04 0 .06.02.03.02.04.04.08.05l.2.16.08-.08a4.29 4.29 0 00-.48-.34l.07-.08c.36.23.54.36.86.67l-.08.07zm.29-.17l-.04-.03-.02-.04a.55.55 0 00-.15-.09h-.07c-.02 0-.04.02-.05.03l-.03.04v.06l-.2-.18v-.05c0-.03.02-.04.03-.05a.23.23 0 01.05-.05h.1c.03 0 .07.01.13.05.06.02.1.07.15.1l.16.15-.06.06z" fill="#00276F"/><path opacity=".4" d="M11.8 8.7a2.8 2.8 0 11-5.6 0 2.8 2.8 0 015.6 0z" fill="#00276F"/><path d="M11.55 8.7a2.55 2.55 0 11-5.1 0 2.55 2.55 0 015.1 0z" stroke="#00276F" stroke-width=".5"/><path d="M9.75 8.7a.75.75 0 11-1.5 0 .75.75 0 011.5 0z" fill="#00276F"/></svg>