<!-- by TradingView --><svg xmlns="http://www.w3.org/2000/svg" width="18" height="18"><path fill="#F0F3FA" d="M0 0h18v18H0z"/><path d="M13.66 4.8L7.86 4l.13 9.91 5.67-.76c1.09-.36 1.35-1.1 1.34-1.43V6.55c-.03-1.27-.9-1.7-1.34-1.75z" fill="#3D82B3"/><path d="M4.18 4.66L7.88 4C9.08 4 9.5 5.2 9.5 5.68v6.4c-.1 1.68-1.44 1.97-2.1 1.91l-3.22-.68C3.25 13.03 3 12.13 3 11.71V6.7c.07-1.33.7-1.88 1.18-2.03z" fill="#19458C"/><path d="M12.7 6.43l-1.05-.12v2.11h-1.6v1.16h1.6v2.11l1.06-.1V9.58h1.58V8.42h-1.58V6.43zm-6.58-.48c2.06-.22 2.2.8 2.2 1.68l-1.2.11c-.06-.85-.7-.9-1.36-.78-.62.11-.96.36-.9.9.07.54.33.64.56.64.18 0 .5 0 1.7.11 1.22.11 1.43 1.26 1.42 1.75 0 .5 0 1.2-.64 1.52-.63.31-1.6.2-2.9 0-1.06-.17-1.17-1.34-1.1-1.9l.9.1c-.03.72.32.93.5.95l1.19.13c.28 0 .7-.13.71-.8.02-.67-.33-.76-.61-.8-.08-.01-.41-.1-1.4-.17-1.25-.1-1.28-1.25-1.28-1.53 0-.33-.2-1.65 2.21-1.9z" fill="#fff"/></svg>