<!-- by TradingView --><svg width="18" height="18" xmlns="http://www.w3.org/2000/svg"><path fill="#7DAED3" d="M0 0h18v18H0z"/><path d="M6.388 11c.212 1.063.53 1.307.988 1.78.46.472.953.708 1.553.708.565 0 .953-.157 1.2-.512a1.63 1.63 0 00.353-1.023c0-.433-.14-.788-.388-1.024-.176-.157-.494-.394-.988-.67l-.812-.472C7.482 9.354 6.918 8.882 6.6 8.45c-.318-.433-.6-.971-.6-1.601C6 4.921 7.42 4 9 4c.46 0 1.024.079 1.447.236.424.158.67.236.741.236.141 0 .247-.039.283-.118.035-.078.105-.197.14-.354H12v3h-.353a4.315 4.315 0 00-.882-1.78c-.424-.511-1.06-.808-1.66-.808-.458 0-.987.14-1.234.415-.247.275-.353.59-.353.945 0 .433.106.787.353.984.211.236.74.551 1.517.984l.918.512c.423.236.741.512.988.787.459.552.706 1.181.706 1.93 0 1.94-1.562 2.952-3.141 2.952-.247 0-.494-.04-.777-.079-.399-.063-1.25-.573-1.588-.196-.035.078-.106.196-.141.354H6v-3h.388z" fill="#fff"/></svg>