<!-- by TradingView --><svg width="18" height="18" xmlns="http://www.w3.org/2000/svg"><path fill="#F0F3FA" d="M0 0h18v18H0z"/><path d="M9.103 6.756c-.75.951-1.803 2.455-2.765 3.833.67-1.317 1.661-3.066 2.545-4.267-.04-.078-.08-.155-.12-.229-.501.644-1.281 1.68-1.95 2.728.66-1.53 1.21-2.61 1.59-3.375a6.425 6.425 0 00-.139-.224l-.037-.056s-3.074 5.603-4.144 7.672L4 13h1.313l.03-.067c.56-1.168 2.68-4.264 3.888-5.92-.043-.088-.085-.173-.128-.257z" fill="#FDB813"/><path d="M14.004 13l-.705-1.286h-2.116c-2.042-.036-3.52-.367-4.816-.522l-.154.242c1.18.187 3.04.44 4.664.602-.55.024-1.233 0-1.819 0-.896 0-2.087-.068-3.1-.192l-.135.222c.801.12 2.121.251 3.318.32-1.593.176-2.842.245-3.68.293-.045.083-.085.184-.119.255l-.03.066h8.692z" fill="#00446A"/><path d="M11.354 11.715h.276c-.433-1.151-1.2-2.892-1.886-4.44.78 1.244 1.798 3.043 2.37 4.44h.243c-.282-.74-.918-2.084-1.48-3.215.962 1.348 1.661 2.494 2.12 3.216l.298-.001C12.076 9.575 10.05 5.972 8.845 4l-.618 1.171c.708 1.085 2.328 4.638 3.128 6.545" fill="#E4701E"/></svg>