<!-- by TradingView --><svg width="18" height="18" xmlns="http://www.w3.org/2000/svg"><path fill="#385072" d="M0 0h18v18H0z"/><path d="M11.4 4v3.307h-.246c-.08-.634-.224-1.14-.433-1.516a2.274 2.274 0 00-.879-.895 2.336 2.336 0 00-1.185-.332c-.462 0-.843.15-1.145.452-.302.296-.453.634-.453 1.015 0 .292.095.557.286.797.275.353.93.823 1.965 1.41.843.48 1.418.849 1.724 1.108.311.253.549.554.713.902.169.348.253.713.253 1.093 0 .724-.266 1.35-.8 1.876-.527.522-1.209.783-2.044.783a4.1 4.1 0 01-.739-.063c-.137-.024-.424-.109-.859-.254-.43-.15-.703-.226-.819-.226a.35.35 0 00-.266.106c-.062.07-.109.216-.14.437h-.246v-3.28h.246c.115.687.27 1.202.466 1.545.195.339.493.62.892.846.404.226.846.339 1.326.339.555 0 .992-.155 1.312-.465.324-.31.486-.678.486-1.1 0-.236-.063-.473-.187-.713a2.049 2.049 0 00-.566-.67c-.173-.14-.646-.44-1.418-.896-.773-.46-1.323-.827-1.652-1.1a2.935 2.935 0 01-.739-.902A2.346 2.346 0 016 6.518c0-.687.249-1.277.746-1.77C7.243 4.249 7.876 4 8.644 4c.48 0 .988.125 1.525.374.248.117.424.176.526.176a.38.38 0 00.28-.106c.075-.075.135-.223.18-.444h.246z" fill="#fff"/></svg>