<!-- by TradingView --><svg width="18" height="18" xmlns="http://www.w3.org/2000/svg"><path fill="#F0F3FA" d="M0 0h18v18H0z"/><path d="M9.044 10.529c.822-.661 1.234-1.549 1.271-1.82.714.654 2.064 2.067 1.763 2.66-.3.591-1.867 2.165-2.59 2.798.26-.243.757-.91.677-1.64-.08-.728-.803-1.61-1.117-1.994l-.004-.004z" fill="#FBB416"/><path d="M5 8.918c-.02-.967.623-2.19.994-2.68-.26.682.225 1.394.645 1.899.42.504 1.143 1.189 1.934 1.91.481.438.794.721 1.167 1.187.372.465.62 1.349.366 2.006-.254.657-1.06 1.447-1.43 1.76.801-1.166-2.525-3.397-3.106-4.232-.243-.35-.55-.884-.57-1.85z" fill="#F26F24"/><path d="M7.881 5.233C7.857 4.383 8.86 3.368 9.423 3a1.575 1.575 0 00.362 1.377c.843.968 1.734 1.895 2.573 2.867.336.43.68 1.052.638 1.977-.041.925-.704 1.949-1.038 2.34 0-2.674-3.998-3.538-4.077-6.328z" fill="#18457A"/></svg>