<!-- by TradingView --><svg width="18" height="18" xmlns="http://www.w3.org/2000/svg"><path fill="#053E5E" d="M0 0h18v18H0z"/><path d="M3.294 8.257c-.183.732-.091 1.19.23 1.556h-.916c-.412.55-.669 1.181-.596 1.694.074.513.779.87 1.557.916h7.829c.96 0 1.877-.183 2.472-.687.543-.46 1.053-1.144 1.19-1.694.223-.892-.412-1.373-.412-1.373h.778c.046 0 .47-.687.55-1.099.228-1.19-1.206-1.526-1.832-1.556-1.327-.031-4.578 0-6.913 0-3.021 0-3.765 1.556-3.937 2.243z" fill="#B0B4B7"/><path d="M6.99 6.345c-1.173.132-1.675.435-2.21 1.34-.282.478-.395.725-.366 1.14.038.539.458.961.458.961s-.102.004-.476.004h-.482l-.2.401c-.326.66-.33 1.095-.024 1.456.224.264.496.377 1.027.44.56.064 5.68.064 6.356 0 1.031-.098 1.586-.376 2.097-1.05.681-.89.915-1.77.491-2.258a4.55 4.55 0 00-.229-.229h.641l.168-.284c.253-.426.355-.846.277-1.11-.131-.43-.491-.694-1.114-.816-.477-.088-5.587-.088-6.414.005zm5.689.47c.131.038.326.146.438.244.184.166.2.195.2.44 0 .307-.16.777-.205.777h-1.827l.031-.123c.034-.132-.063-.254-.243-.298-.064-.015-.735-.02-1.494-.01-1.11.015-1.407.035-1.548.098-.326.142-.438.46-.219.601.097.069.39.083 1.908.103.988.014 1.937.049 2.107.073.565.088.88.347.88.718 0 .416-.413 1.256-.793 1.608-.603.557-1.445.699-4.2.699-1.956 0-2.506-.078-2.744-.381-.146-.18-.127-.528.044-.914l.178-.343h.87s.925.017.915 0c0 .046-.058.167-.094.255-.05.127.165.25.506.288.477.05 2.598-.01 2.842-.083.228-.073.452-.351.423-.542-.03-.205-.229-.23-1.888-.235-2.34-.005-2.837-.078-3.066-.45-.136-.21-.107-.498.097-.977.317-.757.706-1.153 1.353-1.373.696-.234 1.173-.269 3.538-.254 1.334.005 1.81.025 1.99.078z" fill="#053E5E"/><path d="M13.17 8.289h-1.9c.138-.32-.114-.412-.16-.412-.823 0-1.706-.06-2.471 0-.233.018-.458.03-.596.091-.412.184-.366.412-.229.55.138.137 3.48.137 3.663.137.183 0 .824 0 1.19.55.16.24-.137 1.281-.687 1.83-.439.44-1.087.55-1.465.596-1.213.147-3.708.183-4.806.046a1.736 1.736 0 01-.596-.184c-.468-.255-.152-1.068.092-1.419H6.99c0 .092-.137.275-.091.367.033.065.137.137.366.183.229.045 2.655.045 3.022-.092.366-.137.563-.647.091-.687-1.694-.14-4.532.184-4.715-.549-.12-.478.275-1.373.687-1.785.183-.275.869-.552 1.19-.641.824-.23 4.715-.183 5.127-.092.412.092.595.275.687.504.068.17-.076.747-.183 1.007z" fill="#fff"/></svg>