<!-- by TradingView --><svg xmlns="http://www.w3.org/2000/svg" width="18" height="18" viewBox="0 0 18 18"><path fill="url(#a0fcyti4o)" d="M0 0h18v18H0z"/><path fill-rule="evenodd" d="M4 7.62V12h10V7.62l-1-.53V6h-1v.57L9.02 5 4 7.62zm1 .51V11h.51V8.58l3.5-1.74 3.51 1.74V11H13V8.13L9.02 6.2 5 8.13zM6 11V8.93l3.01-1.4L12 8.94V11h-.36V9.26L9.01 8 6.38 9.26V11H6zm1-1.48V11h4V9.52L9 8.6l-2 .93z" fill="#7CCDE8"/><defs><linearGradient id="a0fcyti4o" x1="3.35" y1="3.12" x2="21.9" y2="24.43" gradientUnits="userSpaceOnUse"><stop stop-color="#1A1E21"/><stop offset="1" stop-color="#06060A"/></linearGradient></defs></svg>