<!-- by TradingView --><svg width="18" height="18" xmlns="http://www.w3.org/2000/svg"><path fill="#007E44" d="M0 0h18v18H0z"/><path d="M10.02 8.92c0 1.143.976 2.033 2.058 2.033 1.082 0 2.059-.89 2.059-2.033 0-1.143-.977-2.033-2.059-2.033-1.082 0-2.059.89-2.059 2.033zm2.058 3.064c-1.8 0-3.227-1.34-3.227-3.064s1.427-3.064 3.227-3.064c1.16 0 2.164.557 2.732 1.414C13.92 5.34 11.604 4 9.097 4 5.893 4 3 6.189 3 9a4.2 4.2 0 00.689 2.282L6 6h.75l2.53 6H7.996l-.371-1H5.076l-.584 1.244C5.637 13.324 7.319 14 9.097 14c2.714 0 5.204-1.57 5.903-3.758-.513 1.04-1.62 1.742-2.922 1.742zM5.478 10h1.753l-.856-2.429L5.479 10z" fill="#fff"/></svg>