<!-- by TradingView --><svg width="18" height="18" xmlns="http://www.w3.org/2000/svg"><path fill="#003059" d="M0 0h18v18H0z"/><path d="M6.55 8.697s.412-.532.969-.547c.858-.014 1.557 1.381 1.668 1.582C10.14 7.805 11.729 6.093 13 5H5v8.021c0 .432-.087.748-.12.892.35-.043 1.86-.24 3.195-.671 2.383-.777 3.32-1.597 3.32-1.611l.064-.058.032.072s.302.604.588.92c.333.346.508.389.603.36.127-.043.223-.23.255-.56.031-.317.063-1.05.063-1.928V5.705c-2.288 2.56-3.988 6.415-3.988 6.415S7.884 8.668 6.55 8.697z" fill="#fff"/></svg>