<!-- by TradingView --><svg width="18" height="18" xmlns="http://www.w3.org/2000/svg"><path fill="#133156" d="M0 0h18v18H0z"/><path d="M9 4C6.239 4 4 6.244 4 9c0 2.757 2.239 5 5 5s5-2.243 5-5c-.014-2.763-2.239-5-5-5zm1.518 5.63L9.15 12.955S9.103 13 9 13s-.137-.045-.137-.045S7.462 9.671 7.448 9.63a.265.265 0 01.02-.212c.055-.089.172-.102.172-.102h2.727c.103 0 .15.034.178.116.041.096-.027.198-.027.198zm.027-1.06c-.034.083-.082.117-.178.117H7.64s-.117 0-.172-.102a.267.267 0 01-.02-.213l1.415-3.288S8.897 5 9 5c.09 0 .151.084.151.084l1.374 3.295c-.007-.013.061.103.02.192z" fill="#fff"/></svg>