<!-- by TradingView --><svg width="18" height="18" viewBox="0 0 18 18" xmlns="http://www.w3.org/2000/svg"><path fill="#F0F3FA" d="M0 0h18v18H0z"/><path fill="#A6A8AB" d="M11 4h2v9h-2z"/><path d="M7.91 8h1.91a2.07 2.07 0 0 0-.8-1.42A3.28 3.28 0 0 0 6.95 6c-.58 0-1.08.09-1.5.26a1.92 1.92 0 0 0-1.33 1.9c0 .52.15.94.47 1.28.31.33.8.56 1.43.68l1.12.23c.27.05.46.13.59.22.12.1.19.21.19.37 0 .17-.09.3-.25.4-.17.11-.38.16-.64.16-.29 0-.53-.06-.71-.2a.8.8 0 0 1-.27-.3H4c.1.58.4 1.04.87 1.4.53.4 1.25.6 2.16.6.58 0 1.08-.1 1.53-.28.44-.2.8-.46 1.05-.8.26-.35.39-.76.39-1.22 0-.5-.16-.9-.48-1.2-.3-.3-.78-.5-1.42-.64l-1.23-.25a1.24 1.24 0 0 1-.57-.23.44.44 0 0 1-.15-.34c0-.17.08-.31.25-.41.16-.1.36-.15.6-.15.18 0 .34.03.47.1a.86.86 0 0 1 .44.42Z" fill="#A20C33"/></svg>