<!-- by TradingView --><svg xmlns="http://www.w3.org/2000/svg" width="18" height="18" viewBox="0 0 18 18"><path fill="#F63" d="M0 0h18v18H0z"/><path d="M9 3C5.7 3 3 5.7 3 9s2.7 6 6 6 6-2.7 6-6-2.7-6-6-6zm3.37 10.35a.67.67 0 0 0-.49-.18c-.58 0-.94.41-.81.93a5.53 5.53 0 0 1-4.16 0c.09-.46-.2-.92-.79-.92a.64.64 0 0 0-.43.14l-.05.04a5.58 5.58 0 0 1-2.1-3.62c.25-.09.5-.4.5-.74 0-.42-.18-.63-.5-.75.2-1.42.95-2.71 2.08-3.6.1.1.3.18.5.18.59 0 .93-.41.8-.93a5.5 5.5 0 0 1 4.15 0c-.1.52.23.93.8.93.26 0 .4-.08.51-.17a5.6 5.6 0 0 1 2.06 3.62c-.26.1-.5.37-.5.72 0 .43.15.61.5.77a5.52 5.52 0 0 1-2.07 3.58zm-.49-5.2a.82.82 0 1 0 0-1.64.82.82 0 0 0 0 1.64zm.82 2.51a.82.82 0 1 1-1.64 0 .82.82 0 0 1 1.64 0zm-.88-1.3a.35.35 0 1 0 0-.71.35.35 0 0 0 0 .7zm-1.06-2.83a.35.35 0 1 1-.7 0 .35.35 0 0 1 .7 0zm2.47 2.12a.35.35 0 1 0 0-.71.35.35 0 0 0 0 .7zm-1.05 3.53a.35.35 0 1 1-.71 0 .35.35 0 0 1 .7 0zM10.4 5.12a.35.35 0 1 0 0-.7.35.35 0 0 0 0 .7zm-.59.54a.82.82 0 1 1-1.64 0 .82.82 0 0 1 1.64 0zM7.6 6.88a.35.35 0 1 0 0-.7.35.35 0 0 0 0 .7zM6.53 5.82a.35.35 0 1 1-.7 0 .35.35 0 0 1 .7 0zM6.1 8.15a.82.82 0 1 0 0-1.64.82.82 0 0 0 0 1.64zm.42.85a.35.35 0 1 1-.7 0 .35.35 0 0 1 .7 0zm-1.77 1.06a.35.35 0 1 0 0-.7.35.35 0 0 0 0 .7zm3.18 1.41a.35.35 0 1 1-.7 0 .35.35 0 0 1 .7 0zm-.35 2.12a.35.35 0 1 0 0-.7.35.35 0 0 0 0 .7zm2.23-1.26a.82.82 0 1 1-1.64 0 .82.82 0 0 1 1.64 0zm.6-.5a.35.35 0 1 0 0-.71.35.35 0 0 0 0 .7zm-3.5-1.16a.82.82 0 1 1-1.63 0 .82.82 0 0 1 1.64 0z" fill="#fff"/></svg>