<!-- by TradingView --><svg width="18" height="18" xmlns="http://www.w3.org/2000/svg"><path fill="#1E7591" d="M0 0h18v18H0z"/><path d="M5.706 10.928c.277.331 1.157 1.442 3.436 1.442 1.684 0 2.335-.56 2.335-1.199 0-.638-.799-.97-1.99-1.182-.245-.042-.962-.171-1.171-.208C6.827 9.52 4.49 9.04 4.49 6.837 4.491 5.04 6.269 4 8.975 4c3.407 0 4.704 1.72 4.817 1.843l-1.656 1.13c-.228-.261-1.067-1.34-3.189-1.34-1.096 0-1.998.334-1.998.984 0 .835 1.181 1.017 2.022 1.166l1.38.239c1.916.33 3.649 1.223 3.649 2.98C14 12.944 11.913 14 9.167 14 5.565 14 4.234 12.404 4 12.152l1.706-1.224z" fill="#fff"/></svg>