<!-- by TradingView --><svg width="18" height="18" xmlns="http://www.w3.org/2000/svg"><path fill="#FFEC00" d="M0 0h18v18H0z"/><path d="M13.525 7.612v-.239C13.525 5.78 12.15 5 9.38 5c-2.152 0-4.533.621-4.533 2.883 0 1.226.811 1.31 2.451 1.597 1.43.255 2.329.303 2.329.908 0 .414-.424.653-1.147.653-.864 0-1.252-.27-1.252-.892v-.095h-3.21c0 .143-.018.19-.018.27C4 12.506 6.399 13 8.321 13c2.188 0 4.71-.733 4.71-3.042 0-2.023-1.799-1.645-3.563-1.916-.423-.064-1.129-.111-1.129-.637 0-.382.388-.637.988-.637.706 0 1.058.223 1.058.717 0 .031 0 .08-.017.127h3.157z" fill="#000"/></svg>