<!-- by TradingView --><svg width="18" height="18" xmlns="http://www.w3.org/2000/svg"><path fill="#0AA8BA" d="M0 0h18v18H0z"/><path d="M15.86 8.525a5.715 5.715 0 00-1.626-1.613C12.848 5.99 11.01 5.5 9.064 5.5c-1.946 0-3.786.519-5.172 1.412a5.715 5.715 0 00-1.625 1.613A2.657 2.657 0 002 9h1.04c.133 0 .24-.058.32-.144.293-.346.64-.648 1.092-.965 1.226-.807 2.852-1.268 4.611-1.268 1.76 0 3.385.433 4.611 1.268.48.317.853.662 1.147 1.037a.147.147 0 010 .202 5.148 5.148 0 01-1.147.98 6.942 6.942 0 01-1.439.748c.347-.547.56-1.167.613-1.858h-1.066c-.133 1.325-1.2 2.377-2.479 2.377-1.28 0-2.319-1.023-2.479-2.377H5.758c.133 1.959 1.68 3.5 3.519 3.5 1.839 0 3.518-.518 4.904-1.412.693-.46 1.253-1.008 1.626-1.613.053-.086.106-.173.133-.23a.473.473 0 000-.461c.027-.115-.027-.173-.08-.26z" fill="#fff"/></svg>