<!-- by TradingView --><svg xmlns="http://www.w3.org/2000/svg" width="18" height="18"><path fill="#000098" d="M0 0h18v18H0z"/><path d="M13 8h1V5h-1v1.81c.01.35.02.69-.5.69-.48 0-.5-.32-.5-.67V5h-1v1.93c0 .22.03.43.1.57.21.38.7.5 1.17.5.23 0 .56-.04.73-.21V8zm-8 2H4v3h1v-1.52c0-.38 0-.78.5-.78s.5.4.5.78V13h1v-1.53c0-.38 0-.77.5-.77s.5.4.5.77V13h1v-2.03c0-.56-.3-.97-1.02-.97-.47 0-.85.08-1.13.4-.23-.26-.45-.4-.92-.4-.47 0-.7.13-.93.4V10zm7.5 0c1.32 0 1.5.96 1.5.96v1.09s-.23.95-1.5.95-1.5-.95-1.5-.95v-1.1s.18-.95 1.5-.95zm0 .5c-.49 0-.5.5-.5.5v1s.01.5.5.5.5-.5.5-.5v-1s-.01-.5-.5-.5zm-6.86-5c.34 0 .76.1.9.38L7 5.5c-.32-.37-.83-.5-1.35-.5-.36 0-.77.06-1.07.23a.68.68 0 00-.28.37v.6s.04.28.38.4c.26.1.53.15.8.19.08 0 .15.02.22.03.18.03.55.14.55.3 0 .26-.56.35-.78.33-.54-.04-.8-.21-1-.45L4 7.45c.4.39 1.04.55 1.64.55C6.2 8 6.9 7.8 7 7.38v-.62s-.07-.31-.4-.43a3.97 3.97 0 00-1.08-.2c-.19-.04-.52-.09-.52-.3 0-.23.42-.33.64-.33z" fill="#fff"/></svg>