<!-- by TradingView --><svg xmlns="http://www.w3.org/2000/svg" width="18" height="18"><path fill="#F0F3FA" d="M0 0h18v18H0z"/><path d="M4.73 6.49C5.14 6.12 7.56 4 9 4c1.47 0 3.69 1.97 4.23 2.45l.06.05a10.95 10.95 0 00-5.24-.76l-.2.02a12.57 12.57 0 00-3.12.73zM8.6 9.23C8.28 8.6 7.5 7.48 7 7.4c-1.55 0-2.61.1-3.72.92-.46.34-.36.95.2 1.3 2.2 1.38 3.25 2.22 4.57 4 .2.27.4.38.65.38.2 0 .46-.06.6-.24a.74.74 0 00.13-.38c0-1.6-.06-2.75-.83-4.15zm5.4-1.3c-.32-.2-2.05-.52-3.01-.53-.47.02-.99.15-.99.56 0 .29.12.5.26.78.23.44.54 1.02.54 2.26 0 .43-.03 1.44-.3 2.18 1-1.32 1.76-1.8 3.2-2.74l.79-.52c.38-.25.51-.5.51-.75 0-.41-.47-.8-.86-1.13L14 7.92z" fill="#36A1D7"/></svg>