<!-- by TradingView --><svg width="18" height="18" xmlns="http://www.w3.org/2000/svg"><path fill="#593988" d="M0 0h18v18H0z"/><path d="M10.5 4.717c0-.458-.304-.8-1.46-.8-1.157 0-1.54.342-1.54.799v1.243c0 .376.264.752.676 1.063l3.929 2.943c.562.408.895.916.895 1.44v1.863C13 14.379 11.503 15 9.04 15 6.307 15 5 14.461 5 13.268V12h2.5v1.202c0 .557.454.883 1.54.883 1.006 0 1.497-.326 1.497-.883V11.55c0-.408-.19-.719-.713-1.127L6.196 7.659C5.523 7.152 5 6.76 5 6.156V4.732C5 3.572 6.537 3 9.04 3 11.804 3 13 3.571 13 4.652V6h-2.5V4.717z" fill="#fff"/></svg>