<!-- by TradingView --><svg width="18" height="18" xmlns="http://www.w3.org/2000/svg"><path fill="url(#paint0_linear)" d="M0 0h18v18H0z"/><path d="M11.1 6.537L7.5 7.768v-.615c-1.42.187-2.981 1.133-2.991 2.402-.008 1.014 1.294 1.677 1.945 1.882-.347-.11-.966-.108-2.173-.832C3.073 9.88 3 8.9 3 8.432c0-.252.143-.938 1.112-1.695C5.08 5.98 6.785 5.684 7.5 5.614V5l3.6 1.537z" fill="#fff"/><path d="M6.93 11.46l3.57-1.23v.615c1.42-.187 2.981-1.131 2.991-2.4.008-1.014-1.294-1.677-1.945-1.882.347.11.966.108 2.174.832C14.927 8.12 15 9.1 15 9.568c0 .252-.143.938-1.112 1.695-.969.758-2.673 1.051-3.388 1.12V13l-3.57-1.54z" fill="#D01820"/><defs><linearGradient id="paint0_linear" x1="3.349" y1="3.122" x2="21.904" y2="24.434" gradientUnits="userSpaceOnUse"><stop stop-color="#1A1E21"/><stop offset="1" stop-color="#06060A"/></linearGradient></defs></svg>