<!-- by TradingView --><svg width="18" height="18" xmlns="http://www.w3.org/2000/svg"><path fill="url(#paint0_linear)" d="M0 0h18v18H0z"/><path d="M11.026 9.14V6.488c-.01-.078.047-.097.113-.048.66.49 1.247 1.476 1.432 2.76l.123.95c.009.079-.076.069-.142.03l-1.366-.754c-.094-.05-.16-.177-.16-.284zm.773-3.407L9.642 4.03c-.104-.079-.33.01-.33.137v5.199c.01.44.339.832.716 1.018l3.363 1.577c.339.156.659-.147.602-.529l-.423-2.575c-.208-1.253-.81-2.35-1.771-3.124z" fill="#B3B3B3"/><path d="M8.296 13.875l-3.2-.902c-.158-.051-.103-.174.037-.236l.204-.092c.278-.113.584-.143.872-.051l2.134.666c.157.051.463.143.593.102l.242-.071c.055-.02.027-.082-.065-.113l-2.023-.666c-.352-.113-.63-.574.14-.923l1.001-.45c.455-.195 1.216-.195 1.763.06l2.876 1.292c.176.082.158.205.037.236l-.677.195c-.26.071-.538.082-.798-.01l-2.115-.82c-.195-.072-.436-.175-.594-.103l-.213.082c-.065.02-.075.103-.01.123l1.587.584c.872.318.751.82.343.943l-.668.184c-.566.154-.956.103-1.466-.03z" fill="gray"/><path d="M4.593 7.864c-.02.117.094.255.188.176l2.1-1.628c.076-.059.114-.03.114.069v.569c-.01.147-.093.235-.215.314L5.073 8.59a.573.573 0 00-.235.353l-.113.735c-.01.079.084.128.15.098L6.92 8.55c.047-.03.113.03.113.079l-.037.549a.306.306 0 01-.17.245l-2.59 1.432c-.142.079-.151.157-.18.294l-.046.236c-.066.402.254.735.603.578l3.362-1.579c.387-.186.704-.618.713-1.059v-5.12c0-.137-.213-.264-.317-.176L5.44 6.344c-.47.363-.744.922-.847 1.52z" fill="#F0F0F0"/><defs><linearGradient id="paint0_linear" x1="3.349" y1="3.122" x2="21.904" y2="24.434" gradientUnits="userSpaceOnUse"><stop stop-color="#1A1E21"/><stop offset="1" stop-color="#06060A"/></linearGradient></defs></svg>