<!-- by TradingView --><svg xmlns="http://www.w3.org/2000/svg" width="18" height="18"><path fill="#0D2C58" d="M0 0h18v18H0z"/><path d="M11.08 5L9.45 7.5c-.12.19-.16.4-.12.52.09.31.22.67.22.67h.67c.12 0 .3-.13.41-.3L12.83 5h-1.75z" fill="#FAC319"/><path d="M6.93 5l1.63 2.5c.12.18.16.4.12.52-.09.31-.22.67-.22.67h-.67c-.12 0-.3-.13-.41-.31L5.18 5h1.75z" fill="#71BE4B"/><path d="M11.24 13l-1.79-2.58c-.12-.17-.16-.37-.12-.48l.23-.63h.66c.13 0 .3.12.41.3L13 13h-1.76z" fill="#00A1DF"/><path d="M6.75 13l1.81-2.58c.12-.17.16-.37.12-.49-.09-.29-.22-.62-.22-.62h-.67c-.12 0-.3.12-.41.29L5 13h1.75z" fill="#E84B50"/></svg>