<!-- by TradingView --><svg width="18" height="18" fill="none" xmlns="http://www.w3.org/2000/svg"><path fill="#fff" d="M0 0h18v18H0z"/><path d="M6 11V7.004c.426.34 1.3 1.127 1.378 1.174.077.048.198.02.248 0L9 7.004c.435.341 1.326 1.13 1.395 1.174.069.044.175.018.22 0L12 7.004V11H6z" fill="#D71635"/><path d="M7.677 8.615c-.16-.132-.306-.055-.358 0L6.31 9.617c-.024.014-.068.067-.058.167.01.1.089.207.18.207.683.002 2.068.005 2.15 0 .104-.007.168-.138.168-.207a.409.409 0 00-.057-.167c-.272-.279-.855-.87-1.016-1.002zM10.677 8.615c-.16-.132-.306-.055-.358 0L9.31 9.617c-.024.014-.068.067-.058.167.01.1.089.207.18.207a207.5 207.5 0 002.15 0c.104-.007.168-.138.168-.207a.408.408 0 00-.057-.167c-.272-.279-.855-.87-1.016-1.002z" fill="#fff"/><rect x="4.497" y="5.5" width="9.003" height="7" rx=".5" stroke="#000"/></svg>