<!-- by TradingView --><svg width="18" height="18" viewBox="0 0 18 18" xmlns="http://www.w3.org/2000/svg"><path fill="#F0F3FA" d="M0 0h18v18H0z"/><path d="M7.93 9.69C8.2 12.3 9.85 13 11.48 13c.73 0 2.36-.06 2.36-1.3-.02-.34-.19-.52-.47-.52-.83 0-1.43.4-2.41.17-.55-.18-1.24-.65-1.35-1.43l-1.68-.23Z" fill="url(#azf15texz)"/><path d="M15 7.73c-.02-2-1.67-2.73-3-2.73-1.38 0-3.5.83-3.84 2.73l1.56.31c.17-.04.72-1.05 2.06-1.08.32-.01 1.66.3 1.66.87l1.56-.1Z" fill="url(#bzf15texz)"/><path d="m6.64 9.54 1.27.18c0-.03 1.59.17 1.75.25.76.06 1.53.16 2.3.16 1.2 0 3.04-.48 3.04-2.46l-1.56.1c0 .08-.02.1-.04.17-.47.27-1.32.23-1.83.24-.28-.02-1.69-.22-1.8-.18l-1.58-.32A70.95 70.95 0 0 0 3 6.45C2.52 6.5 2 7 2 7.64c0 .45.06.83.37 1.13.3.28.85.22 1.3.27.3.02 2.9.42 2.97.5Z" fill="url(#czf15texz)"/><path d="M5.48 10.84c.06.47.25 1.01.36 1.47.09.4.26.69.53.69.1 0 .2-.03.3-.1.42-.25.33-.77.24-1.34-.09-.5-.29-1.6-.29-2.1l-2.23-.4c.62.22.8.75 1.1 1.78Z" fill="url(#dzf15texz)"/><defs><linearGradient id="azf15texz" x1="7.49" y1="9.36" x2="14.82" y2="11.79" gradientUnits="userSpaceOnUse"><stop stop-color="#07BBCD"/><stop offset="1" stop-color="gold"/></linearGradient><linearGradient id="bzf15texz" x1="15.43" y1="7.55" x2="7.63" y2="7.66" gradientUnits="userSpaceOnUse"><stop stop-color="#3B48FF"/><stop offset="1" stop-color="#07A9E9"/></linearGradient><linearGradient id="czf15texz" x1="15.43" y1="8.09" x2="1.28" y2="8.21" gradientUnits="userSpaceOnUse"><stop offset=".12" stop-color="#5C39FE"/><stop offset=".41" stop-color="red"/></linearGradient><linearGradient id="dzf15texz" x1="5.47" y1="8.64" x2="7.22" y2="13.32" gradientUnits="userSpaceOnUse"><stop stop-color="red"/><stop offset=".74" stop-color="#FF7800"/></linearGradient></defs></svg>