<!-- by TradingView --><svg xmlns="http://www.w3.org/2000/svg" width="18" height="18" viewBox="0 0 18 18"><path fill="#F0F3FA" d="M0 0h18v18H0z"/><path d="M8.13 7.89c0 .5-.42.91-.93.91-.5 0-.92-.4-.92-.91 0-.5.41-.91.92-.91s.93.4.93.91Z" fill="#002D5B"/><path fill-rule="evenodd" d="M7.19 9.06c.6 0 1.1-.49 1.1-1.12 0-.62-.5-1.12-1.1-1.12-.6 0-1.1.5-1.1 1.12 0 .63.5 1.12 1.1 1.12Zm0 1.07a2.18 2.18 0 1 0 0-4.37 2.18 2.18 0 0 0 0 4.37Z" fill="#00B6DE"/><path opacity=".6" d="M11.04 4.28C9.42 4.86 8.27 5.7 7.84 6l.81.71c.25-.3 1.5-1.3 2.55-2.1.18-.13.05-.39-.16-.32ZM13.86 7.59c-1.88-.56-4-.6-4.85-.52v1.22c.56-.27 3.08-.36 4.79-.36.22 0 .28-.28.06-.34ZM12.28 12.44c-2.07-1.8-3.48-2.56-4.13-2.82l.8-.95a14.8 14.8 0 0 1 3.62 3.54c.17.24-.07.42-.29.23ZM8.35 13.89a15.76 15.76 0 0 1-1.8-4.02l1.07-.17a25.7 25.7 0 0 0 1.08 4c.09.27-.2.42-.35.19ZM4.95 11.78c.12-1.39.32-2.16.54-2.77l.8.46c-.42.64-.83 1.6-1.12 2.36-.04.12-.23.08-.22-.05ZM5.24 7.77c-.35.18-.81.56-1.18.92-.15.16 0 .35.2.26.48-.2.88-.35 1.05-.4l-.07-.78ZM5.4 7.2c-.07-.06-.33-.22-.6-.44-.24-.2-.02-.58.28-.47.33.1.59.23.73.3l-.41.61ZM7.33 4.13a7.6 7.6 0 0 0-.8 1.82l1.03.08.24-1.7c.05-.3-.3-.46-.47-.2Z" fill="#00B6DE"/></svg>