<!-- by TradingView --><svg width="18" height="18" xmlns="http://www.w3.org/2000/svg"><path fill="#08090D" d="M0 0h18v18H0z"/><path d="M12.78 9c1.314-.655 2.172-1.637 2.219-2.727 0 0-.347-.303-1.468-.77C12.547 5.093 12 5 12 5v2.429c0 .363 0 .888-.572 1.062a9.26 9.26 0 00-2.427-.318c-.863 0-1.686.115-2.43.318C6.172 8.37 6 7.963 6 7.22V5s-.549.094-1.533.503C3.347 5.97 3 6.273 3 6.273c.046 1.09.905 2.073 2.22 2.727-1.314.655-2.172 1.638-2.219 2.727 0 0 .347.303 1.468.77C5.453 12.906 6 13 6 13v-2.429c0-.363.162-.845.572-1.062a9.232 9.232 0 002.427.318c.863 0 1.686-.114 2.43-.318.484.196.571.699.571 1.062V13s.549-.094 1.533-.504c1.12-.466 1.467-.769 1.467-.769-.047-1.09-.905-2.073-2.22-2.727zm-3.806.546c-.778 0-1.413-.216-1.878-.546.568-.403 1.24-.537 1.904-.546.664.008 1.335.143 1.904.546-.466.33-1.1.546-1.88.546" fill="#fff"/></svg>