<!-- by TradingView --><svg xmlns="http://www.w3.org/2000/svg" width="18" height="18"><path d="M0 9a9 9 0 1118 0A9 9 0 010 9z" fill="#F0F3FA"/><path opacity=".7" d="M13.27 12.4a4.05 4.05 0 10-4.61 0h4.6z" fill="#2BABE2"/><path opacity=".9" d="M7.06 5c.33 0 .66.04.97.12A4.06 4.06 0 006.7 12.4H4.75A4.05 4.05 0 017.05 5z" fill="#384693"/><path opacity=".2" d="M9 5c.34 0 .67.04.98.12a4.06 4.06 0 00-1.32 7.28H6.7A4.05 4.05 0 019 5z" fill="#2BABE2"/><path d="M8.66 12.4h.7a4.05 4.05 0 00-.35-6.9 4.06 4.06 0 00-.35 6.9z" fill="#2BABE2"/><path fill="#F0F3FA" d="M3.91 12h10.21v1.77H3.91z"/></svg>