<!-- by TradingView --><svg width="18" height="18" xmlns="http://www.w3.org/2000/svg"><path fill="#00939A" d="M0 0h18v18H0z"/><path d="M13.814 8.4c-1.594 1.056-3.068.942-4.425-.34 2.75-.93 4.199-2.365 5.61-1.134l-1.046 1.32h-.002v.003h-.002v.002h-.004c-.001 0 0 .002-.002.002v.002h-.001l-.001.002c-.003 0-.004.003-.005.003v.001l-.001.002-.002.001c0 .002-.003.005-.005.005v.004h-.001v.001l-.001.001h-.002v.003h-.001l-.003.002h-.001a.147.147 0 00-.014.016v.001l-.002.004v.001c-.002 0-.006.005-.008.005l-.012.007h-.002l-.001.002h-.002v.001l-.003.002h-.001v.001a.033.033 0 01-.007.004l-.002.003-.002.002h-.001c0 .025-.039.034-.039.05 0 .001-.005.005-.005.007l-.003.003c-.003.002-.001.01-.001.012z" fill="#ECB833"/><path d="M13.955 8.244C9.801 11.56 8.171 3.717 3 6.685L8.827 14" fill="#fff"/></svg>