<!-- by TradingView --><svg xmlns="http://www.w3.org/2000/svg" width="18" height="18"><path fill="url(#aoqyqro0e)" d="M0 0h18v18H0z"/><path d="M11.9 4L7.83 5.06l-.6 1.04H5.99L3 9l2.99 2.9h1.23l.6 1.04L11.91 14 13 10.03 12.38 9 13 7.97 11.9 4zM7.32 6.27l3.13-.78-1.8 3.04H5.07L7.3 6.27zm0 5.46L5.06 9.47h3.59l1.79 3.04-3.13-.78zm4 .3L9.52 9l1.8-3.02.86 3.02-.87 3.02z" fill="#fff"/><defs><linearGradient id="aoqyqro0e" x1="3.35" y1="3.12" x2="21.9" y2="24.43" gradientUnits="userSpaceOnUse"><stop stop-color="#1A1E21"/><stop offset="1" stop-color="#06060A"/></linearGradient></defs></svg>