<!-- by TradingView --><svg width="18" height="18" viewBox="0 0 18 18" xmlns="http://www.w3.org/2000/svg"><path fill="#006EAB" d="M0 0h18v18H0z"/><path d="M7.85 6H4.94l2.55 6.36a1 1 0 0 0 .92.63h2.27L13.5 6h-2.96L9.21 9.64 7.85 6z" fill="#fff"/><path d="M15.6 9.17a.28.28 0 0 1 .24.5c-.77.34-6.48 2.47-7.15 1.15-.22-.43.23-.93.48-1.2l.3-.34c.07-.07.22-.25.16-.4-.04-.12-.25-.24-.76-.26h-.03l-.2-.52c.65 0 1.37.2 1.52.6.13.36-.03.7-.36 1.01 0 0-.68.63-.6.87.17.5 3.83-.3 6.4-1.4zM6.19 9.13l-.2-.47c-.83.26-1.9.64-2.66 1a.27.27 0 0 0-.16.23.27.27 0 0 0 .4.24c.66-.35 1.77-.74 2.62-1z" fill="#006EAB"/><path d="M15.49 8.9c.04-.03.09-.04.14-.04a.28.28 0 0 1 .1.53c-.77.34-6.48 2.47-7.15 1.15-.22-.43.23-.93.48-1.2l.3-.34c.08-.07.22-.25.17-.4-.05-.12-.26-.24-.77-.26h-.03l-.2-.52c.65 0 1.37.2 1.52.6.13.36-.03.7-.35 1.01 0 0-.7.63-.61.87.17.5 3.83-.3 6.4-1.4zM6.08 8.85l-.19-.47c-.84.26-1.9.64-2.67 1a.27.27 0 0 0-.16.23.27.27 0 0 0 .4.24c.66-.35 1.77-.74 2.62-1z" fill="#FFCF00"/></svg>