<!-- by TradingView --><svg width="18" height="18" xmlns="http://www.w3.org/2000/svg"><path fill="#005DAA" d="M0 0h18v18H0z"/><path d="M14 14V4H4v1.411l.398-.1a6.557 6.557 0 014.88.887 6.727 6.727 0 012.877 4.07A6.806 6.806 0 0111.978 14H14zM5.02 14h-.782a7.58 7.58 0 00.639-.26l.143.26z" fill="#fff"/><path d="M5.49 14l-.256-.433c.42-.233.84-.491 1.237-.804l.64.839c.144-.107.278-.224.42-.348l.025-.02a8.04 8.04 0 00-.664-.83c.304-.259.596-.575.854-.877.248.247.492.512.729.77.16-.168.296-.345.418-.525-.25-.261-.498-.5-.759-.744.233-.29.403-.567.557-.876.272.206.532.42.789.644.108-.205.209-.416.287-.635a8.578 8.578 0 00-.796-.6c.099-.223.194-.538.23-.74.258.135.577.345.8.509.059-.234.08-.6.072-.806a6.897 6.897 0 00-.782-.427c.006-.145 0-.296-.02-.442.254.1.5.222.746.347a2.779 2.779 0 00-.284-.844c-.213-.076-.43-.153-.65-.217a2.014 2.014 0 00-.162-.33c.13.028.256.067.38.106.064.02.127.04.19.058-.042-.074-.106-.144-.168-.212l-.026-.03a2.404 2.404 0 00-.632-.495l-.23-.029a1.807 1.807 0 00-.267-.232c.318.1.768.248 1.174.691.76.833 1.014 1.98.746 3.098C9.663 11.32 8.32 12.9 6.804 14H5.49zM7.393 14h-.358l.106-.084c.048-.038.092-.073.132-.102l.12.186z" fill="#fff"/><path d="M8.158 14c-.113-.15-.297-.392-.435-.562.362-.308.615-.585.917-.943.128.14.247.284.366.428.067.081.135.163.204.243.157-.176.31-.357.444-.547-.189-.225-.38-.449-.585-.663.225-.311.482-.715.609-.965.206.184.413.398.602.605.117-.217.214-.44.296-.68a5.462 5.462 0 00-.597-.572c.11-.268.207-.572.253-.84.191.136.386.298.572.482.047-.29.07-.598.053-.912a5.763 5.763 0 00-.53-.41 4.007 4.007 0 00-.034-.5c.138.076.276.165.412.252l.054.034a3.554 3.554 0 00-.44-1.043l-.278-.13a3.874 3.874 0 00-.2-.385l.213.082c.768.851 1.073 1.998.854 3.175-.2 1.123-.777 2.09-1.506 2.994-.253.296-.527.588-.812.857h-.432z" fill="#fff"/><path d="M10.006 14c.731-.894 1.261-1.88 1.484-2.986.241-1.173.05-2.413-.695-3.297l-.05-.06a.981.981 0 00-.175-.175l-.004.009c.334.415.599.86.736 1.357l-.003.005-.257-.197c.033.201.059.389.066.599.121.092.254.214.357.341.018.342.018.707-.04 1.043a3.863 3.863 0 00-.399-.451c-.04.248-.131.64-.242.902.158.173.319.393.42.553-.059.206-.173.483-.296.714l-.13-.174c-.09-.121-.178-.242-.307-.396a8.37 8.37 0 01-.652 1.038c.165.198.318.404.462.613-.135.192-.281.382-.439.562h.164z" fill="#fff"/><path d="M10.877 14h-.239l-.205-.335c.24-.343.463-.7.649-1.065.051.072.1.157.149.242.026.046.052.091.08.136.114-.24.23-.54.292-.759l-.206-.363c.117-.332.196-.634.252-.96l.186.233c.07-.355.09-.7.078-1.043 0 0-.109-.17-.2-.27a5.637 5.637 0 00-.096-.704l.029.029c.204.458.374.936.35 1.485-.046 1.255-.474 2.365-1.12 3.374z" fill="#fff"/><path d="M11.477 14h-.44c.153-.245.302-.52.432-.781.046.076.097.174.123.257.114-.272.203-.53.273-.771l-.086-.241c.123-.333.209-.667.268-1.026l.055.076c.02-.106.032-.217.044-.33.007-.063.014-.127.023-.191h.002c.06.551-.05 1.089-.17 1.592A8.008 8.008 0 0111.477 14zM11.847 14h-.226l.11-.23c.014.038.031.072.049.107.146-.452.32-1.086.417-1.6-.052.61-.175 1.247-.35 1.723zM9.834 14H8.811c.196-.192.369-.397.54-.6l.019-.021.102.134c.122.162.245.324.362.487zM4.895 5.357c.627-.11 1.326-.066 1.858.232.356.185.69.525.856.89.283.553.253 1.318.08 1.912-.472 1.72-2.095 3.303-3.689 4.021v-.44l.123.244c.12-.053.197-.09.29-.15L4 11.225v-.379a3.73 3.73 0 00.67-.448c.182.256.494.664.753.986.13-.09.238-.184.348-.3a14.95 14.95 0 00-.816-.927c.235-.185.395-.356.583-.584 0 0 .636.513.946.775.084-.103.223-.276.32-.42a12.05 12.05 0 00-.993-.69 5.21 5.21 0 00.37-.583c.354.153.71.346 1.058.544.076-.138.159-.325.216-.492a8.466 8.466 0 00-1.074-.46c.066-.147.115-.3.153-.456.374.077.817.21 1.093.31.047-.173.073-.396.077-.576a7.286 7.286 0 00-1.08-.199 2.26 2.26 0 00.01-.295 7.74 7.74 0 011.052.14 1.756 1.756 0 00-.12-.52 6.957 6.957 0 00-.987-.04 1.067 1.067 0 00-.073-.221c.24-.027.63-.031.925-.012a1.392 1.392 0 00-.322-.41c-.267.01-.577.047-.788.086a.793.793 0 00-.134-.159 6.14 6.14 0 01.687-.112 2.293 2.293 0 00-.542-.282c-.118.023-.36.088-.475.13a1.102 1.102 0 00-.19-.096c.106-.045.26-.096.348-.12a3.04 3.04 0 00-.867-.05l-.032.016-.22-.025z" fill="#fff"/><path d="M6.683 5.407a1.82 1.82 0 00-.168-.068c.612.073 1.196.216 1.668.625.778.633 1.102 1.569.938 2.562-.207 1.246-.902 2.289-1.78 3.255A7.893 7.893 0 014 13.95v-1.388s.118-.042.236-.108c.122.265.352.73.542 1.051.109-.04.217-.1.32-.165 0 0-.403-.762-.566-1.043.41-.221.691-.419 1.042-.7.146.185.74.957.74.957.148-.108.293-.23.409-.347 0 0-.581-.71-.777-.918.257-.218.511-.51.726-.773.305.26.671.594.89.828a3.69 3.69 0 00.38-.485c-.3-.275-.619-.534-.93-.783.178-.234.329-.491.448-.742.35.197.685.423 1.02.655.109-.18.203-.382.267-.568a11.609 11.609 0 00-1.06-.604c.074-.202.136-.41.184-.624.376.13.737.307 1.09.486.054-.22.08-.45.078-.693a7.954 7.954 0 00-1.087-.398c-.001-.12-.002-.24-.011-.36.36.075.713.193 1.056.317a2.342 2.342 0 00-.214-.683 9.437 9.437 0 00-.954-.187 3.782 3.782 0 00-.108-.272c.29.026.616.073.853.128-.115-.208-.321-.41-.524-.561a7.22 7.22 0 00-.626-.014 2.66 2.66 0 00-.193-.195 4.87 4.87 0 01.48-.012 3.018 3.018 0 00-.957-.334l-.038.007a9.478 9.478 0 01-.034-.016z" fill="#fff"/><path d="M4 5.574c.732-.174 1.562-.128 2.103.427.102.102.17.215.232.332.356.755.078 1.644-.29 2.3-.45.82-1.253 1.594-2.045 2.066V9.525l.513.665c.093-.068.18-.142.267-.222L4 9.126v-.04a3.53 3.53 0 00.37-.371c.34.22.65.451.963.698a3.32 3.32 0 00.255-.31 12.185 12.185 0 00-1.04-.602c.094-.117.189-.274.245-.39.342.097.863.295 1.157.435a3.74 3.74 0 00.185-.377 7.516 7.516 0 00-1.205-.332c.04-.09.077-.194.092-.28.436.03.83.078 1.261.178.04-.141.07-.306.087-.433a8.835 8.835 0 00-1.282-.045c.007-.062.014-.163.014-.214a8.248 8.248 0 011.28-.03c0-.134-.021-.266-.058-.388-.421.017-.851.074-1.242.15a.87.87 0 00-.04-.158c.317-.092.787-.164 1.199-.208a1.028 1.028 0 00-.192-.302 8.602 8.602 0 00-1.091.3.7.7 0 00-.085-.133c.336-.139.67-.231 1.018-.315a1.163 1.163 0 00-.347-.224 5.499 5.499 0 00-.836.358.43.43 0 00-.098-.078c.188-.128.48-.264.72-.351a1.649 1.649 0 00-.541-.094 4.669 4.669 0 00-.458.297.766.766 0 00-.134-.043c.103-.086.217-.174.336-.246-.182-.001-.38.03-.533.064v-.068z" fill="#fff"/><path d="M4 6.111v-.195c.352.048.72.268.872.618.25.638-.025 1.3-.374 1.81-.14.198-.318.387-.498.566v-.443s.092.054.163.103c.048-.044.119-.131.155-.185A3.399 3.399 0 004 8.222v-.346c.168.027.394.1.548.152.043-.07.093-.167.12-.237l-.107-.021A4.168 4.168 0 004 7.684s0-.176.002-.176c.23-.006.559.009.763.028.034-.082.053-.176.07-.266a6.58 6.58 0 00-.833.057v-.132c.277-.056.506-.097.847-.13 0-.067-.003-.163-.02-.236a5.53 5.53 0 00-.827.219v-.115c.242-.096.54-.205.795-.256a.64.64 0 00-.073-.19c-.241.076-.495.19-.724.303v-.126c.134-.072.422-.215.629-.298a.597.597 0 00-.15-.149 7.753 7.753 0 00-.477.28v-.122c.094-.066.197-.127.3-.187l.067-.04a.884.884 0 00-.26-.112L4 6.11z" fill="#fff"/></svg>