<!-- by TradingView --><svg width="18" height="18" xmlns="http://www.w3.org/2000/svg"><path fill="#300" d="M0 0h18v18H0z"/><path fill-rule="evenodd" d="M12.653 14.082C11.847 14.74 9.292 15.874 9 16c-.292-.126-2.847-1.26-3.653-1.918C4.458 13.354 4 12.303 4 11.057V5c1.389-.742 3.07-1 5-1 1.93 0 3.611.258 5 1v6.057c0 1.246-.458 2.297-1.347 3.025zm-1.028-9.09c-2.416 0-5.014.688-7.167 2.677v3.388c0 1.106.417 2.03 1.181 2.66.68.56 2.764 1.513 3.361 1.779l.075-.034c.67-.305 2.619-1.193 3.286-1.744.778-.645 1.18-1.633 1.18-2.753V5.091a21.414 21.414 0 00-1.916-.098zM6.195 12C5.333 12 5 11.54 5 10.615V8h.778l-.014 2.657c0 .252.056.616.458.616.18 0 .32-.042.417-.112L6.653 8h.861L7.5 11.665c-.333.224-.778.335-1.305.335zm3.027.001c-.18 0-.305-.028-.388-.056L8.847 14H8V8.308C8.306 8.112 8.667 8 9.139 8c1.042 0 1.611.798 1.611 2.072 0 1.183-.555 1.93-1.528 1.93zm-.11-.714a.692.692 0 01-.278-.056l.013-2.46a.658.658 0 01.306-.07c.5 0 .708.405.708 1.385 0 .874-.25 1.201-.75 1.201zm2.68-.907c-.722-.434-.847-.784-.847-1.246 0-.7.597-1.148 1.166-1.134.457-.013.705.171.86.287l.029.021v.756c-.18-.196-.403-.364-.708-.364-.25 0-.5.112-.514.42-.013.28.202.409.48.576l.09.054c.722.434.847.585.833 1.103-.028.56-.403 1.147-1.264 1.147-.347 0-.64-.069-.917-.237v-.812c.222.196.514.35.792.35.32 0 .542-.182.528-.49 0-.19-.065-.217-.228-.286a2.408 2.408 0 01-.3-.145z" fill="#FFBE00"/></svg>