<!-- by TradingView --><svg xmlns="http://www.w3.org/2000/svg" width="18" height="18" viewBox="0 0 18 18"><path fill="#ECB1C9" d="M0 0h18v18H0z"/><path fill-rule="evenodd" d="M10.56 5.6h-.13c-.21-1.23-1.22-1.44-1.8-1.24-.47.16-.58.55-.57.72 0 .74 1.17 1.5 2.01 2.05l.41.27c.17.12.33.24.47.38l.93-2.33c.04-.23-.03-.69-.64-.69v-.12h2.26v.12c-.23 0-.75.15-1.03.77l-1.17 2.6c.8.94 1.03 2.03 1.03 2.56 0 3.15-2.88 3.35-3.6 3.3-.94-.06-3-.84-3-2.81 0-1.23.63-1.93 1.29-2.28L5.58 5.67c-.12-.3-.5-.9-1.08-.9v-.13h2.48v.12c-.19.02-.51.17-.32.7.11.29.7 1.67 1.36 3.15h.12c.64 0 1.18.23 1.37.34v1.23h-.16c-.01-.68-.87-1.24-1.2-1.26l1.23 2.8 1.1-2.77a6.45 6.45 0 0 0-1.1-.96c-.69-.49-1.93-1.37-1.93-2.38C7.45 4.43 8.47 4 9.2 4c.6 0 1.14.24 1.35.36V5.6zM9.04 13.2l1.74-3.89c.4.53.73 1.22.73 2.05 0 1.66-1.3 2.34-2.52 2.34s-2.53-1.64-2.53-2.6c0-.68.08-1.5.68-1.91l1.79 4h.1z" fill="#fff"/></svg>