<!-- by TradingView --><svg width="18" height="18" fill="none" xmlns="http://www.w3.org/2000/svg"><path fill="url(#paint0_linear_3186)" d="M0 0h18v18H0z"/><path d="M12 8.362a.826.826 0 01-.07.201l-2.106 3.104c-.132.202-.458.333-.83.333-.372 0-.698-.13-.83-.333L6.042 8.5A.61.61 0 016 8.364V5H4v3.236c0 .456.242.904.446 1.2l2.28 3.562C7.137 13.616 8.09 14 8.994 14c.953 0 1.822-.387 2.226-1.002l2.303-3.488c.257-.393.477-.787.477-1.274V5h-2v3.362z" fill="#fff"/><defs><linearGradient id="paint0_linear_3186" x1="3.349" y1="3.122" x2="21.904" y2="24.434" gradientUnits="userSpaceOnUse"><stop stop-color="#1A1E21"/><stop offset="1" stop-color="#06060A"/></linearGradient></defs></svg>