<!-- by TradingView --><svg width="18" height="18" xmlns="http://www.w3.org/2000/svg"><path fill="url(#paint0_linear)" d="M0 0h18v18H0z"/><path d="M9.086 6.5a2 2 0 012.828 0l.091.09a2.309 2.309 0 013.127.128c.556.556.868 1.309.868 2.095V11a1 1 0 11-2 0V8.414a.53.53 0 00-1 0V11a1 1 0 11-2 0V8.414a.53.53 0 00-1 0V11a1 1 0 11-2 0V8.5a.505.505 0 00-.98-.17l-1.125 3.117a1 1 0 01-1.79 0l-2-4a1 1 0 111.79-.894L5 8.763l.956-1.91a1.543 1.543 0 012.236-.594l.68.454.214-.213z" fill="#fff"/><defs><linearGradient id="paint0_linear" x1="3.349" y1="3.122" x2="21.904" y2="24.434" gradientUnits="userSpaceOnUse"><stop stop-color="#1A1E21"/><stop offset="1" stop-color="#06060A"/></linearGradient></defs></svg>