<!-- by TradingView --><svg xmlns="http://www.w3.org/2000/svg" width="18" height="18" viewBox="0 0 18 18"><path fill="#F0F3FA" d="M0 0h18v18H0z"/><path d="M15.62 7h-3.01c-.43 0-.6.4-.61.79v2.41c0 .37.17.78.59.8h3.17c.12 0 .22 0 .24-.14V9.84c0-.13-.08-.17-.2-.17h-2.1a.38.38 0 0 1-.37-.35v-.64c.01-.2.17-.34.38-.35h2.1c.09 0 .19-.05.19-.15V7.16C16 7 15.86 7 15.72 7h-.1zM7.61 7h3.11c.14 0 .28 0 .28.16v1.02c0 .1-.1.15-.18.15h-2.1a.36.36 0 0 0-.39.35v.64c.02.18.17.35.38.35h2.09c.12 0 .2.04.2.17v1.02c-.02.14-.12.14-.24.14H7.6c-.42-.02-.58-.43-.59-.8V7.8c.01-.38.18-.79.6-.79zM2.18 7h1c.14.01.15.09.15.22v1.11h1.34V7.17c0-.13.06-.17.17-.17h1c.13 0 .15.06.16.19v3.63c0 .12-.04.18-.17.18h-.99c-.1 0-.18-.05-.17-.16V9.67H3.33v1.19c0 .1-.07.14-.16.14h-1c-.11 0-.18-.06-.17-.16V9.09l.98-.76H2V7.15c0-.12.08-.15.18-.15z" fill="#0D5E8B"/></svg>