<!-- by TradingView --><svg width="18" height="18" xmlns="http://www.w3.org/2000/svg"><path fill="#2D4691" d="M0 0h18v18H0z"/><path opacity=".98" d="M3.6 12.98c-.375-.021-.597-.4-.597-1.05 0-2.24-.007-4.131 0-6.37 0-.29.357-.56.551-.56h10.855c.296 0 .544.36.591.624v6.304c0 .572-.236 1.051-.64 1.051 0 0-7.75.047-10.76 0zM7.12 8.7s.16 1.734.234 2.302h1.294s.195-.443.432-1.259c.237-.816.41-1.526.41-1.526l-1.028-.044-.191.716c-.227.94-.173.888-.273-.095l-.07-.646-1.501-.063-.612 1.367.11-1.39-.998-.04-.298 2.98h1.419L7.12 8.701zm4.293 2.3c.255 0 .659.02 1-.254 1.169-.927 1.58-2.586.825-3.394-.156-.168-.479-.32-.744-.352H10.158l-.248.783h2.014c.471 0 .522.862.334 1.323-.256.62-.94 1.036-1.532.923-.021-.004.076-.414.209-.88.13-.466.223-.859.223-.859l-1.38-.06-.41 1.453c-.227.808-.428 1.319-.428 1.319L11.413 11zM6.14 7H5.032l-.09.783h1.064L6.139 7zm1.664 0h-.83l-.417.783h1.345L7.803 7zM9.91 7H8.807l-.26.783H9.63L9.911 7z" fill="#fff"/></svg>