<!-- by TradingView --><svg xmlns="http://www.w3.org/2000/svg" width="18" height="18"><path d="M0 9a9 9 0 1118 0A9 9 0 010 9z" fill="#333F48"/><path d="M11.25 8.3c-.2-.93-.92-1.3-1.63-1.3-.94 0-1.83.71-1.83 2.02 0 1.3.88 2.02 1.83 2.02a1.6 1.6 0 001.6-1.13c.12-.36.13-.72.1-1.1H9.66v.7h.97c-.15.6-.5.76-1 .76-.64 0-1.05-.5-1.05-1.25 0-.7.38-1.26 1.05-1.26.41 0 .7.15.88.53h.75zm1.25.7c0-.83.51-1.2 1.02-1.2.5 0 1 .37 1 1.2 0 .9-.54 1.21-1 1.21-.5 0-1.02-.32-1.02-1.21zm-.8 0c0 1.4.93 2.02 1.8 2.02 1.08 0 1.83-.83 1.83-2.02 0-1.39-.94-2.02-1.81-2.02-.88 0-1.83.63-1.83 2.02zm-5.66.57L6.7 7h.82v.12L6.3 11.01h-.48l-.71-2.1h-.02l-.69 2.1h-.5L2.65 7.13v-.12h.81l.7 2.57h.02l.73-2.45h.35l.77 2.45h.02z" fill="#fff"/></svg>