<!-- by TradingView --><svg xmlns="http://www.w3.org/2000/svg" width="18" height="18" viewBox="0 0 18 18"><path fill="#F0F3FA" d="M0 0h18v18H0z"/><mask id="az00jw2o4" maskUnits="userSpaceOnUse" x="4" y="5" width="11" height="8"><path d="M4.88 5h9.5v8h-9.5V5z" fill="#fff"/></mask><g mask="url(#az00jw2o4)"><path d="M13.35 5a.4.4 0 0 0-.37.27l-2.41 6.1L10.1 5H9.4a.4.4 0 0 0-.37.26l-2.5 6.08L6.1 5h-.7a.4.4 0 0 0-.3.14.45.45 0 0 0-.1.34L5.7 13h.82c.16 0 .3-.1.37-.26l2.47-5.99.48 6.25h.82c.16 0 .3-.1.37-.26L14.3 5h-.95z" fill="#4B2B6D"/></g></svg>