<!-- by TradingView --><svg width="18" height="18" xmlns="http://www.w3.org/2000/svg"><path fill="#E52011" d="M0 0h18v18H0z"/><path d="M4.84 6.952c.235.199 1.416 0 1.622-.163.177 0-.378 1.985-.44 2.449-.047.355.18.823.281 1.133.046.14.096.213.24.126.114-.068.158-.06.263.012.152.105.3.223.494.237.71.045.878-1.103.913-1.683.063-.882.107-1.602-.936-1.782.145-.134.301-.595.285-.791-.008-.081.351-.285.52-.341.249-.083 1.131-.075 1.462-.083.249-.004.568-.188.594-.474.03-.396-.46-.549-.716-.549-.35 0-2.217.312-2.648.55-.402.215-1.003.203-1.402.383-.108.044-.109 0-.092-.036 1.216-2.646 4.142-1.944 5.062-1.556.409.144 1.357.6 1.654.834 1.716.93 2.681 5.494 1.448 5.747-.112.03-.162.103-.152.228-.215-.255-.69-.508-.977-.24-.037.035-.24 0-.214.108.01.041.047.04.075.033.282-.067.558.57.802.692-.067.005-.117.05-.182.05-.28.135-.198.921-.743 1.375-.223.242-1.097 1.203-2.024.585-.278-.186-.95-.135-1.026-.043-.22.276-.68.138-.94-.017-.599-.364-1.457-.398-1.997-1.188-.669-.98-1.734-1.346-2.02-2.72-.265-1.709.697-2.956.793-2.876zm4.575 4.623c.11.148.23.457.408.526.31.12.353-.29.364-.495.025-.458.056-1.057-.029-1.515-.091-.54-.037-1.082-.06-1.624a.94.94 0 00-.12-.43c-.102-.172-.353-.088-.463.038-.066.078-.1.04-.15-.002-.085-.072-.137-.058-.16.046-.156.67.063 1.553-.212 2.188-.206.47-.162 1.456-.1 1.928.029.21.038.421.05.637.005.08.03.084.078.016.29-.435.077-1.145.304-1.625.118.125-.029.163.09.312zm1.92.046a.435.435 0 00-.192.081c-.17.118-.33.153-.514.235-.117.051-.22.132-.344.17-.076.025-.158.22-.057.256.054.02.07.057.079.108.023.15.294.277.407.338.452.24 1.062.19 1.382-.252.128-.178.127-.616.002-.822-.147-.24-.292-.556-.594-.624-.04-.01-.15-.048-.097-.103.207-.222.332-.56.444-.84.064-.161-.102-.374-.227-.37-.043.002-.054-.02-.049-.058.019-.112.094-.177.124-.284.048-.163.192-.386.16-.56a.423.423 0 00-.202-.302c-.077-.046-.226.016-.195-.117.054-.23.013-.545.018-.785 0-.025-.001-.078.064-.029.173.133.23.406.484.369.154-.02.309-.213.259-.379-.051-.157-.035-.498-.303-.421-.093.026-.289.239-.383.154-.086-.08-.109-.192-.102-.307.008-.135-.102-.319-.252-.319-.082.004-.167.112-.16.196.035.482.05 1.417.046 1.478-.003.056.03.285-.05.338a1.212 1.212 0 00-.304.298c-.137.19-.093.39.097.56.028.026.048.057.042.088-.058.276-.277.36-.408.588-.082.142-.028.335.119.397.197.083.483-.168.62-.293.018.015.013.026.01.036-.036.221-.18.387-.303.553-.123.166-.318.085-.432.203-.054.06-.166.307-.117.382.19.309.202.24.49.121.119-.047.442-.227.55-.08.148.196.274.416.154.668-.152.302-.545.315-.832.288a.584.584 0 01-.277-.111c-.072-.051-.049-.122.032-.143.176-.043.336.053.519.014a.23.23 0 00.179-.301c-.039-.112.015-.335.113-.418zm-.366-2.969c-.048-.06-.021-.163-.088-.233a.171.171 0 01-.047-.079c-.015-.074-.07-.1-.137-.062a.195.195 0 01-.158.024c-.075-.022-.114.035-.144.076-.047.063.008.293.079.34.065.047.115.11.197.14.112.04.304-.035.298-.206z" fill="#fff"/><path d="M7.322 8.635c-.234-.099-.426.004-.64.084-.05.018-.068.001-.068-.055 0-.414.26-.603.573-.785.027-.015.045-.009.072.012.118.09.174.79.063.744zM6.95 9.387c.142.046.215-.072.337-.077.081-.005.113.01.103.094-.018.177-.038.373-.09.543-.027.086-.053.098-.14.083-.359-.065-.537-.749-.21-.643zM9.356 11.454h-.012c0-.002 0-.005.002-.007l.01.01v-.003zM9.8 10.614c-.014.175.002.348 0 .523-.003.103-.02.204-.014.308.001.026-.029.065-.072.045-.117-.057-.2-.154-.299-.238-.134-.112.043-.384.077-.511.028-.102.184-.093.25-.158.015-.013.035-.024.054-.013.017.006.006.029.005.044zM9.751 9.918c-.007.09-.058.112-.125.13-.027.007-.034-.008-.037-.03-.025-.142.017-.274.067-.405.008-.022.027-.027.047-.027.021 0 .026.017.031.032a.927.927 0 01.017.3zM9.723 9.212c0 .016.005.038-.017.041-.018.002-.032-.015-.032-.032.012-.161-.058-.315-.035-.48.012-.075.045-.14.052-.216.002-.017.01-.036.03-.032.025.003.012.024.015.039.047.2-.008.47-.013.68z" fill="#fff"/></svg>