<!-- by TradingView --><svg width="18" height="18" xmlns="http://www.w3.org/2000/svg"><path fill="#D32323" d="M0 0h18v18H0z"/><path d="M13.514 10.637c-.189-.136-.22-.157-1.356-.513.984-.23 1.026-.254 1.2-.363.396-.254.607-.676.576-1.133l-.003-.05c-.08-.734-1.076-2.118-1.746-2.429a1.38 1.38 0 00-1.32.075c-.182.115-.206.13-.955 1.1-.072-1.133-.213-3.132-.247-3.319l-.008-.043-.01-.041c-.129-.44-.491-.77-.972-.884-.801-.19-2.921.378-3.49.935-.334.33-.462.776-.347 1.194l.023.083.04.077c.054.107.198.333 1.428 2.166l.454.679c-1.102-.428-1.146-.43-1.374-.431a1.315 1.315 0 00-1.13.592l-.006.008c-.135.206-.209.726-.261 1.02 0 0-.09 2.065.266 2.443.39.415 1.92.175 1.92.175.202.101-1.161 1.288-.669 1.75.493.464.95.673.95.673.717.383 1.765.674 2.326.582.483-.081.863-.377 1.024-.79l.009-.022c.068-.188.079-.223.084-1.287.614.942.646.967.819 1.097.37.274.858.335 1.308.163.723-.276 1.828-1.61 1.938-2.341a1.212 1.212 0 00-.471-1.166zm-1.466 3.507l-.004.002.004-.002z" fill="#fff"/><path d="M5.063 8.809c-.175.266-.249 1.105-.188 1.662.022.184.057.337.108.429a.38.38 0 00.321.206c.086.004.14-.01 1.758-.504l.722-.219c.179-.043.3-.2.311-.4a.44.44 0 00-.283-.451l-.508-.197c-1.739-.68-1.817-.707-1.904-.708a.381.381 0 00-.337.182zM8.952 13.883c.028-.077.032-.13.036-1.744l.005-.72c.012-.176-.108-.335-.302-.406-.201-.073-.418-.028-.54.116l-.355.4c-1.218 1.358-1.269 1.42-1.298 1.501a.314.314 0 00-.02.148.387.387 0 00.099.21c.282.319 1.637.792 2.07.722.15-.026.259-.106.305-.226zM11.7 13.321c.408-.154 1.299-1.23 1.361-1.645a.352.352 0 00-.13-.347c-.069-.05-.12-.068-1.737-.572 0 0-.71-.223-.719-.227a.453.453 0 00-.5.15c-.136.158-.157.367-.047.525l.285.441c.96 1.48 1.033 1.585 1.102 1.636.107.08.243.093.385.04zM10.864 9.51c1.837-.423 1.908-.445 1.98-.49a.35.35 0 00.158-.335V8.67c-.047-.428-.837-1.543-1.227-1.724a.399.399 0 00-.39.014c-.072.044-.124.11-1.107 1.389l-.45.58c-.117.135-.12.33-.004.495a.473.473 0 00.502.208s-.007.013-.01.015c.091-.032.253-.07.548-.137zM9.02 8.07c-.03-.692-.25-3.772-.276-3.914-.037-.13-.143-.222-.296-.258-.469-.11-2.262.366-2.594.692-.107.105-.146.236-.114.351.053.102 2.274 3.421 2.274 3.421.328.506.596.427.684.401.087-.025.353-.104.323-.693z" fill="#D32323"/></svg>