<!-- by TradingView --><svg width="18" height="18" xmlns="http://www.w3.org/2000/svg"><path fill="#0076BE" d="M0 0h18v18H0z"/><path d="M15.972 9.575c.229 1.444-.983 2.26-2.195 2.346-.618 1.145-1.89 2.076-3.73 2.076a4.332 4.332 0 01-2.165-.491c-.163.03-.328.044-.494.045-.642 0-1.08-.149-1.508-.656.866-1.164 3.501-3.258 6.71-2.177 1.716.577 2.163-.778 1.732-1.285-1.617-1.916-5.273-.192-5.403-.047 1.428-2.29 6.563-2.93 7.053.189zm-4.92-2.63c.01 0-1.165-.435-2.81.306a1.997 1.997 0 01-.194-.093c1.58-1.092 2.967-1.558 4.155-1.385C11.438 5.1 10.6 5 9.378 5c-1.356 0-2.558.531-3.32 1.353a3.25 3.25 0 00-.718-.076c-1.837 0-3.431 1.732-3.336 3.7.095 1.966 2.16 3.193 3.336 2.863a.247.247 0 01.087 0c.26-1.301 1.32-4.328 5.625-5.895z" fill="#fff"/></svg>