<!-- by TradingView --><svg width="18" height="18" xmlns="http://www.w3.org/2000/svg"><path fill="url(#paint0_linear)" d="M0 0h18v18H0z"/><path d="M11.408 9.15l-.775-.714v1.99h.775V9.15zM8.28 7.018h1.91l-.775-.696H8.4c.646-.058 1.181-.548 1.181-1.153 0-.638-.572-1.169-1.3-1.169v2.313L6.13 4.406c-.12.058-.222.108-.323.166-.12.075-.222.15-.342.216l2.03 1.824v3.997l1.56 1.4v-1.002l-.794-.713.018-3.276z" fill="#fff"/><path d="M9.046 7.018v3.408h.794V7.731l-.794-.713zM11.75 8.436l-.793-.705H9.84l.794.705h1.116zM6.694 9.937V6.91L4.886 5.285a3.05 3.05 0 00-.443.605L5.9 7.2v1.004L4.138 6.612c-.083.273-.12.564-.138.879.018 0 2.61 2.371 2.694 2.446zM4.037 8.494v1.003L9.047 14v-.979l-5.01-4.527zM12.985 9.556h-.793v.895h-.794c0 .639.59 1.17 1.301 1.17.71 0 1.301-.531 1.301-1.17l-1.015-.895z" fill="#fff"/><defs><linearGradient id="paint0_linear" x1="3.349" y1="3.122" x2="21.904" y2="24.434" gradientUnits="userSpaceOnUse"><stop stop-color="#1A1E21"/><stop offset="1" stop-color="#06060A"/></linearGradient></defs></svg>