<!-- by TradingView --><svg width="18" height="18" xmlns="http://www.w3.org/2000/svg"><path fill="url(#paint0_linear)" d="M0 0h18v18H0z"/><path d="M4 13.507c.852-.83 2.89-1.496 5.034-1.774.398-.052.795-.092 1.182-.122l.132-.006.178.413.216-.44.172-.01a23.782 23.782 0 012.748.016c-.174.378-.558 1.2-.558 1.2-.634-.209-2.603-.438-4.512-.28A19.013 19.013 0 004 13.506" fill="#EE2624"/><path d="M10.53 11.969L9.082 8.396l-1.448 3.572-3.47-7.133 1.345 3.76L7.59 14.01l1.49-3.394 1.492 3.394 2.082-5.415L14 4.835l-3.47 7.134z" fill="#fff"/><path d="M13.274 4.846l-2.68 3.54-1.507-3.443L7.58 8.386 4.9 4.846l2.7 5.356 1.487-3.834 1.486 3.834 2.7-5.356z" fill="#fff"/><defs><linearGradient id="paint0_linear" x1="3.349" y1="3.122" x2="21.904" y2="24.434" gradientUnits="userSpaceOnUse"><stop stop-color="#1A1E21"/><stop offset="1" stop-color="#06060A"/></linearGradient></defs></svg>