<!-- by TradingView --><svg xmlns="http://www.w3.org/2000/svg" width="18" height="18"><path fill="#4C1767" d="M0 0h18v18H0z"/><path d="M10.77 7.92a12.9 12.9 0 00-5.73-1l.73.68a5.9 5.9 0 012.44.14A8.96 8.96 0 003 11h1.19c4.5-2.86 9.72-1.27 11.81-.18a11.23 11.23 0 00-10.23-1.3c.83-.8 3.68-1.4 5-1.6z" fill="#fff"/><path d="M5.67 6.63c.07-.51.73-.63.96-.63-.4.18-.44.48-.4.63.46 1.97 3.42 3.62 4.47 3.53.19-.02.57-.15.6-.57.02-.41-.3-1.05-.52-1.32.32.36 1.1 1.27 1.1 1.89 0 .62-.64.84-1.02.84-2.15 0-5.35-3.07-5.19-4.37z" fill="#009F9B"/></svg>