<!-- by TradingView --><svg width="18" height="18" xmlns="http://www.w3.org/2000/svg"><path fill="url(#paint0_linear)" d="M0 0h18v18H0z"/><path d="M9.425 6.746c1.047-.006 1.16.763 1.16 1.195 0 .18-.18.195-.246.207H9.85c-.149 0-.261-.073-.261-.182 0-.446-.545-.46-.618-.46-.072 0-.64.007-.64.552 0 .519.689.605 1.258.605.361 0 1.113.23 1.113 1.307 0 1.095-.827 1.32-1.278 1.307v.517c0 .144-.146.21-.211.21h-.389a.257.257 0 01-.252-.21v-.517c-1.274 0-1.278-1.051-1.278-1.24 0-.15.074-.175.111-.175.201-.003.634-.006.756 0a.168.168 0 01.17.155v.188c0 .258.45.313.689.313.238 0 .654-.07.654-.548 0-.463-.558-.558-.85-.548-.493 0-1.509-.114-1.53-1.322-.02-1.208.83-1.406 1.278-1.354V6.23c0-.079.13-.225.461-.225.26 0 .388.152.391.225v.516z" fill="#fff"/><path d="M13 8.063c-.334-1.305-1.423-3.1-4-3.063-2.577.036-3.757 2.058-4 3.063h-.913C4.56 5.67 6.6 4 9 4c2.4 0 4.447 1.663 4.915 4.063H13zM13 9.937c-.34 1.239-1.295 3.075-4 3.063-2.705-.012-3.75-2.06-4-3.063h-.914C4.586 12.337 6.59 14 8.99 14a5.01 5.01 0 004.923-4.063H13zM4 8.568h1v.845H4zM12.998 8.568H14v.871h-1.002z" fill="#fff"/><defs><linearGradient id="paint0_linear" x1="0" y1="9" x2="18" y2="9" gradientUnits="userSpaceOnUse"><stop stop-color="#8668C6"/><stop offset="1" stop-color="#7A3E91"/></linearGradient></defs></svg>