<!-- by TradingView --><svg width="18" height="18" viewBox="0 0 18 18" xmlns="http://www.w3.org/2000/svg"><path fill="#F0F3FA" d="M0 0h18v18H0z"/><path d="M6.08 5.92c.08.25.4.86 1.09 1.31.7.46 3.55-1.27 4.89-2.2C11.78 4.7 10.82 4 9.2 4c-1.62 0-2.6.85-2.9 1.27l-.22.65Zm4.73 7.72c-.17.08-.58.28-.77.27-.24 0-.97-.42-1.4-1.2-.42-.79-.43-1.3-.08-1.77.27-.37.85-.84 1.1-1.03l3.62.65c.04.22-.08.87-.86 1.73a5.77 5.77 0 0 1-1.54 1.32l-.07.03Z" fill="#183EA4"/><path d="M7.58 5.14c-.63 1.02-2.72 1.73-3.06 1.62A5.43 5.43 0 0 1 6.45 4.5c.29-.18.59-.2.69-.2.93.02.44.82.44.83Z" fill="url(#aqamjaojn)"/><path d="M7.06 12.3c.05.32 0 1.58-.06 1.69-.05 0-.16 0-.48-.18a4.97 4.97 0 0 1-1.56-1.5A5.46 5.46 0 0 1 4 9.13a5.82 5.82 0 0 1 .3-1.86c.37.52.79.99 1.14 1.5.34.5.8 1.31.9 1.48.58 1.08.68 1.74.72 2.05Z" fill="url(#bqamjaojn)"/><path d="M14 9.13c0 .7-.12 1.37-.35 1.98-.59.68-4.56-1-4.6-1.01-.54-.26-2.2-1.04-2.34-2.26-.22-1.76 3.1-2.99 4.56-3.04.18 0 .71.01 1.02.28A5.54 5.54 0 0 1 14 9.13Z" fill="url(#cqamjaojn)"/><path d="M11.31 13.9c-.43.22-.9.06-.78-.4.23-.86 2.31-1.75 2.77-1.8.05 0 .08.03.05.08a5.24 5.24 0 0 1-2.04 2.12Z" fill="url(#dqamjaojn)"/><defs><linearGradient id="aqamjaojn" x1="4.99" y1="6.44" x2="7.75" y2="5.55" gradientUnits="userSpaceOnUse"><stop stop-color="#58C07B"/><stop offset="1" stop-color="#5599E0"/></linearGradient><linearGradient id="bqamjaojn" x1="3.55" y1="9.36" x2="6.58" y2="9.09" gradientUnits="userSpaceOnUse"><stop offset=".32" stop-color="#57BC87"/><stop offset=".99" stop-color="#5493F1"/></linearGradient><linearGradient id="cqamjaojn" x1="6.85" y1="8.04" x2="14.39" y2="7.88" gradientUnits="userSpaceOnUse"><stop stop-color="#58C56E"/><stop offset="1" stop-color="#5492F3"/></linearGradient><linearGradient id="dqamjaojn" x1="10.64" y1="13.2" x2="13.5" y2="12.21" gradientUnits="userSpaceOnUse"><stop stop-color="#58C178"/><stop offset="1" stop-color="#5493F0"/></linearGradient></defs></svg>