<!-- by TradingView --><svg width="18" height="18" xmlns="http://www.w3.org/2000/svg"><path fill="#00CCDA" d="M0 0h18v18H0z"/><path d="M7 4.779C7 4.25 6.813 4 6.5 4s-.5.367-.5.779v8.599c.004.072.04.295.264.503.194.182.579.116.715.057L14.51 9.68c.156-.077.478-.275.49-.671.012-.396-.278-.575-.425-.662l-4.14-2.777c-.16-.107-.727-.173-1.002 0-.374.235-.433.527-.433.643v5.342c0 .095-.015.144-.04.157-.36.208-1.66.898-1.808.96-.148.064-.154-.026-.152-.078V4.779z" fill="#fff"/><path d="M10.754 10.64a.5.5 0 01-.754-.424V7.469c0-.394.443-.634.778-.422l2.275 1.44c.315.2.303.66-.024.848l-2.275 1.305z" fill="#00CCDA"/></svg>