<!-- by TradingView --><svg width="18" height="18" xmlns="http://www.w3.org/2000/svg"><path fill="#1EAB89" d="M0 0h18v18H0z"/><path fill-rule="evenodd" d="M10.107 6.539a1.955 1.955 0 10-2.206.056l.004.01A.944.944 0 017.34 8.31a.945.945 0 01-.696-.305L6.634 8l-.013-.02a.948.948 0 01-.113-.164 1.955 1.955 0 10.082 2.264l.018-.007a.946.946 0 111.076 1.49v.004a1.955 1.955 0 102.33-.17l.009-.002-.001-.005a.97.97 0 01.557-1.766.97.97 0 01.798.417l.01.003a1.955 1.955 0 10.106-2.23.972.972 0 11-1.388-1.271l.002-.004zm-.018-1.585a1.125 1.125 0 11-2.25-.001 1.125 1.125 0 012.25 0zM8.963 14.17a1.125 1.125 0 100-2.25 1.125 1.125 0 000 2.25zm5.207-5.164a1.125 1.125 0 11-2.25-.001 1.125 1.125 0 012.25 0zM4.956 10.13a1.125 1.125 0 100-2.25 1.125 1.125 0 000 2.25zm4.837-5.177a.83.83 0 11-1.66 0 .83.83 0 011.66 0zm-.83 8.922a.83.83 0 100-1.66.83.83 0 000 1.66zm4.912-4.87a.83.83 0 11-1.66-.001.83.83 0 011.66 0zm-8.92.83a.83.83 0 10.002-1.661.83.83 0 00-.001 1.66z" fill="#fff"/></svg>