<!-- by TradingView --><svg width="18" height="18" xmlns="http://www.w3.org/2000/svg"><path fill="#312541" d="M0 0h18v18H0z"/><path d="M12.154 6.099l-.275.274a3.887 3.887 0 010 5.246l.275.275a4.279 4.279 0 000-5.802V6.1zm-5.775.023a3.887 3.887 0 015.246 0l.274-.274a4.279 4.279 0 00-5.801 0l.28.274zm-.257 5.5a3.887 3.887 0 010-5.243l-.274-.275a4.279 4.279 0 000 5.802l.274-.284zm5.5.254a3.887 3.887 0 01-5.246 0l-.274.274a4.279 4.279 0 005.801 0l-.28-.274z" fill="#D4D3D7"/><path d="M9.781 8.216c0 .353-.312.47-.625.47h-.468v-.94h.625a.46.46 0 01.468.47zm.275 1.587c0 .385-.431.57-.743.57h-.625v-1.06h.625c.28 0 .743.114.743.49zm.678-1.72C10.678 7.512 10.25 7.06 9.624 7V6H9v.995c-.127 0-.181 0-.31.005V6H8v1H7v.745h.475c.119 0 .275 0 .275.25v2.1c0 .003 0 .278-.181.278h-.473L7 11h1v1h.688l-.004-1H9v1h.625v-1c.816-.05 1.315-.338 1.387-1.102.057-.615-.232-.89-.694-1 .281-.143.458-.395.415-.814z" fill="#fff"/><path d="M9 4.39A4.607 4.607 0 1013.61 9 4.614 4.614 0 009 4.39zM9 14a5 5 0 115-5 5.006 5.006 0 01-5 5z" fill="#fff"/></svg>