<!-- by TradingView --><svg width="18" height="18" fill="none" xmlns="http://www.w3.org/2000/svg"><path fill="#092049" d="M0 0h18v18H0z"/><path d="M10.447 5.443L5.37 10.53l2.026 2.124 5.233-5.16-2.182-2.05z" fill="url(#paint0_linear_1530)"/><path fill-rule="evenodd" clip-rule="evenodd" d="M6.5 8a1.5 1.5 0 100-3 1.5 1.5 0 000 3zm0 5a1.5 1.5 0 100-3 1.5 1.5 0 000 3zm6.5-1.5a1.5 1.5 0 11-3 0 1.5 1.5 0 013 0zM11.5 8a1.5 1.5 0 100-3 1.5 1.5 0 000 3z" fill="#fff"/><defs><linearGradient id="paint0_linear_1530" x1="11.439" y1="6.258" x2="5.971" y2="11.502" gradientUnits="userSpaceOnUse"><stop stop-color="#A3AABA"/><stop offset=".461" stop-color="#A3AABA" stop-opacity=".576"/><stop offset="1" stop-color="#A3AABA"/></linearGradient></defs></svg>