<!-- by TradingView --><svg width="18" height="18" viewBox="0 0 18 18" xmlns="http://www.w3.org/2000/svg"><path fill="url(#atgkre0bl)" d="M0 0h18v18H0z"/><path d="m13.83 6.92-3.66 6.44a1.27 1.27 0 0 1-1.1.64A1.25 1.25 0 0 1 8 13.36l-.64-1.13v-.02h.02a1.05 1.05 0 0 0 1.32.14c.14-.1.25-.21.33-.36l3.07-5.4a1.08 1.08 0 0 0-.66-1.58.01.01 0 0 1 .01-.01h1.3a1.25 1.25 0 0 1 1.1.64 1.3 1.3 0 0 1 0 1.28ZM9.5 5H8.23a.01.01 0 0 0-.01.01.01.01 0 0 0 0 .02.64.64 0 0 1 .38.38.66.66 0 0 1-.05.54L6.7 9.2a.64.64 0 0 1-.45.31.63.63 0 0 1-.53-.16h-.01a.01.01 0 0 0 0 .02l.65 1.15a.84.84 0 0 0 .72.42.82.82 0 0 0 .72-.42l2.42-4.25a.86.86 0 0 0-.3-1.16A.82.82 0 0 0 9.5 5ZM5.1 5c-.44 0-.85.27-1.02.69-.3.72.27 1.56 1.01 1.56.58 0 1.1-.52 1.1-1.14 0-.6-.51-1.11-1.1-1.11Z" fill="url(#btgkre0bl)"/><defs><linearGradient id="atgkre0bl" x1="3.35" y1="3.12" x2="21.9" y2="24.43" gradientUnits="userSpaceOnUse"><stop stop-color="#1A1E21"/><stop offset="1" stop-color="#06060A"/></linearGradient><linearGradient id="btgkre0bl" x1="13.87" y1="12.12" x2="2.32" y2="4.4" gradientUnits="userSpaceOnUse"><stop stop-color="#5433FF"/><stop offset=".5" stop-color="#20BDFF"/><stop offset="1" stop-color="#5CFFA2"/></linearGradient></defs></svg>