<!-- by TradingView --><svg width="18" height="18" xmlns="http://www.w3.org/2000/svg"><path fill="#041742" d="M0 0h18v18H0z"/><path d="M13.068 6.086l-.817 1.267a3.645 3.645 0 01-2.665 5.24 3.63 3.63 0 01-2.215-.344l-1.27.817a4.991 4.991 0 007.882-3.66 5.016 5.016 0 00-.915-3.323h.003l-.003.003z" fill="url(#paint0_radial)"/><path d="M9.007 11.505a2.509 2.509 0 002.47-2.058 5.722 5.722 0 00-4.553.947 2.514 2.514 0 002.083 1.111z" fill="url(#paint1_radial)"/><path d="M10.245 8.861c.43 0 .853.047 1.274.139a2.514 2.514 0 00-4.92-.723c-.102.344-.13.705-.08 1.06a5.5 5.5 0 00-.942.88A3.645 3.645 0 018.54 5.4a3.63 3.63 0 012.094.353l1.265-.82A4.992 4.992 0 004.012 8.65a4.998 4.998 0 00.968 3.325c.235-.426.524-.823.853-1.179.272-.281.567-.54.882-.773a5.972 5.972 0 013.533-1.162h-.003z" fill="#fff"/><defs><radialGradient id="paint0_radial" cx="0" cy="0" r="1" gradientUnits="userSpaceOnUse" gradientTransform="matrix(8.40979 0 0 8.42062 13.071 6.08)"><stop offset=".1" stop-color="#26DB8D"/><stop offset=".26" stop-color="#23D29A"/><stop offset=".56" stop-color="#1ABBBB"/><stop offset=".89" stop-color="#0E9DE5"/></radialGradient><radialGradient id="paint1_radial" cx="0" cy="0" r="1" gradientUnits="userSpaceOnUse" gradientTransform="matrix(8.4098 0 0 8.42065 13.071 6.08)"><stop offset=".26" stop-color="#23D29A"/><stop offset=".56" stop-color="#1ABBBB"/><stop offset=".89" stop-color="#0E9DE5"/></radialGradient></defs></svg>