<svg xmlns="http://www.w3.org/2000/svg" viewBox="0 0 100 100" width="100px" height="100px"><circle cx="13" cy="29" r="2" fill="#ee3e54"/><circle cx="77" cy="13" r="1" fill="#f1bc19"/><circle cx="50" cy="50" r="37" fill="#fce0a2"/><circle cx="83" cy="15" r="4" fill="#f1bc19"/><circle cx="87" cy="24" r="2" fill="#ee3e54"/><circle cx="81" cy="76" r="2" fill="#fbcd59"/><circle cx="15" cy="63" r="4" fill="#fbcd59"/><circle cx="25" cy="87" r="2" fill="#ee3e54"/><circle cx="18.5" cy="53.5" r="2.5" fill="#fff"/><circle cx="21" cy="67" r="1" fill="#f1bc19"/><circle cx="80" cy="34" r="1" fill="#fff"/><path fill="#7e96af" d="M37.631,71.323c-4.479,0-8.123-3.644-8.123-8.123V36.8c0-4.479,3.644-8.123,8.123-8.123h26.4 c4.479,0,8.123,3.644,8.123,8.123v26.4c0,4.479-3.644,8.123-8.123,8.123H37.631z"/><polygon fill="#cfd7e2" points="72.492,43.231 69.108,45.938 66.4,51.426 63.692,46.615 60.985,48.646 58.862,43.871 58.277,43.986 57.793,43.906 55.611,50 53.557,50.721 50.831,54.738 48.123,53.385 45.415,46.615 42.708,51.985 40,50.677 37.292,54.062 35.262,54.826 32.554,53.385 29.846,52.708 29.565,63.622 31.002,68.106 34.386,70.646 37.198,71.323 65.297,71.255 68.583,70.159 71.477,66.634 72.177,62.561"/><g><path fill="#472b29" d="M66.4,51.955c-0.18,0-0.347-0.097-0.436-0.255l-2.428-4.313l-2.252,1.688 c-0.122,0.091-0.279,0.125-0.426,0.083c-0.147-0.038-0.269-0.142-0.331-0.28l-2.142-4.818c-0.112-0.252,0.001-0.548,0.254-0.66 c0.254-0.11,0.548,0.002,0.66,0.254l1.887,4.245l2.206-1.654c0.115-0.086,0.263-0.116,0.403-0.089 c0.141,0.029,0.262,0.118,0.333,0.244l2.243,3.984l2.289-4.638c0.032-0.065,0.079-0.123,0.136-0.169l3.384-2.708 c0.216-0.172,0.531-0.136,0.703,0.078c0.172,0.216,0.137,0.53-0.078,0.703l-3.297,2.639l-2.659,5.388 c-0.082,0.166-0.25,0.273-0.435,0.278C66.409,51.955,66.404,51.955,66.4,51.955z"/></g><g><path fill="#472b29" d="M35.262,55.326c-0.081,0-0.162-0.02-0.235-0.059l-2.654-1.413l-2.648-0.661 c-0.268-0.067-0.431-0.339-0.364-0.606c0.067-0.269,0.337-0.432,0.606-0.364l2.708,0.677c0.04,0.01,0.078,0.024,0.114,0.044 l2.508,1.335l1.691-0.637l2.622-3.277c0.146-0.184,0.397-0.237,0.608-0.138l2.265,1.095l2.487-4.932 c0.088-0.176,0.264-0.284,0.468-0.274c0.197,0.009,0.37,0.132,0.443,0.314l2.637,6.593l2.146,1.073l2.481-3.656 c0.06-0.088,0.147-0.155,0.248-0.19l1.829-0.642l2.102-5.87c0.093-0.26,0.38-0.394,0.639-0.302c0.26,0.093,0.396,0.379,0.302,0.64 l-2.182,6.094c-0.051,0.142-0.163,0.253-0.305,0.303l-1.898,0.666l-2.635,3.882c-0.14,0.206-0.413,0.279-0.637,0.166l-2.708-1.354 c-0.109-0.055-0.195-0.147-0.241-0.262l-2.296-5.74l-2.209,4.381c-0.123,0.243-0.417,0.345-0.664,0.225l-2.348-1.135l-2.458,3.073 c-0.056,0.07-0.13,0.124-0.214,0.155l-2.031,0.765C35.381,55.315,35.321,55.326,35.262,55.326z"/></g><g><path fill="#472b29" d="M34.75,71.234c-0.138,0-0.25-0.112-0.25-0.25V43.907c0-0.138,0.112-0.25,0.25-0.25 S35,43.77,35,43.907v27.077C35,71.122,34.888,71.234,34.75,71.234z"/><path fill="#472b29" d="M34.75,40.773c-0.138,0-0.25-0.112-0.25-0.25v-2.708c0-0.138,0.112-0.25,0.25-0.25 S35,37.678,35,37.815v2.708C35,40.661,34.888,40.773,34.75,40.773z"/><path fill="#472b29" d="M34.75,36.034c-0.138,0-0.25-0.112-0.25-0.25v-6.769c0-0.138,0.112-0.25,0.25-0.25 S35,28.878,35,29.016v6.769C35,35.922,34.888,36.034,34.75,36.034z"/></g><g><path fill="#472b29" d="M42.75,71.573c-0.138,0-0.25-0.112-0.25-0.25v-5.754c0-0.138,0.112-0.25,0.25-0.25 S43,65.432,43,65.569v5.754C43,71.461,42.888,71.573,42.75,71.573z"/></g><g><path fill="#472b29" d="M42.75,63.111c-0.138,0-0.25-0.112-0.25-0.25V29.354c0-0.138,0.112-0.25,0.25-0.25 S43,29.216,43,29.354v33.508C43,62.999,42.888,63.111,42.75,63.111z"/></g><g><path fill="#39c1d7" d="M58.5,71.234c-0.42,0-0.75-0.407-0.75-0.927V29.523c0-0.512,0.336-0.928,0.75-0.928 s0.75,0.416,0.75,0.928v40.784C59.25,70.827,58.92,71.234,58.5,71.234z"/><path fill="#472b29" d="M58.5,28.846c0.276,0,0.5,0.304,0.5,0.677v40.785c0,0.374-0.224,0.677-0.5,0.677 S58,70.681,58,70.308V29.523C58,29.15,58.224,28.846,58.5,28.846 M58.5,28.346c-0.561,0-1,0.517-1,1.177v40.785 c0,0.66,0.439,1.177,1,1.177s1-0.517,1-1.177V29.523C59.5,28.863,59.061,28.346,58.5,28.346L58.5,28.346z"/></g><g><path fill="#39c1d7" d="M58.5,43.75c-1.241,0-2.25-1.01-2.25-2.25s1.009-2.25,2.25-2.25s2.25,1.01,2.25,2.25 c0,0.996-0.667,1.885-1.623,2.161C58.925,43.72,58.714,43.75,58.5,43.75z"/><path fill="#472b29" d="M58.5,39.5c1.103,0,2,0.897,2,2c0,0.885-0.593,1.675-1.443,1.922 C58.878,43.474,58.69,43.5,58.5,43.5c-1.103,0-2-0.897-2-2S57.397,39.5,58.5,39.5 M58.5,39c-1.381,0-2.5,1.119-2.5,2.5 s1.119,2.5,2.5,2.5c0.242,0,0.476-0.034,0.697-0.098C60.238,43.6,61,42.639,61,41.5C61,40.119,59.881,39,58.5,39L58.5,39z"/></g><g><path fill="#472b29" d="M66.25,71.573c-0.138,0-0.25-0.112-0.25-0.25v-28.77c0-0.138,0.112-0.25,0.25-0.25 s0.25,0.112,0.25,0.25v28.77C66.5,71.461,66.388,71.573,66.25,71.573z"/><path fill="#472b29" d="M66.25,40.096c-0.138,0-0.25-0.112-0.25-0.25v-2.03c0-0.138,0.112-0.25,0.25-0.25 s0.25,0.112,0.25,0.25v2.03C66.5,39.983,66.388,40.096,66.25,40.096z"/><path fill="#472b29" d="M66.25,36.034c-0.138,0-0.25-0.112-0.25-0.25v-6.431c0-0.138,0.112-0.25,0.25-0.25 s0.25,0.112,0.25,0.25v6.431C66.5,35.922,66.388,36.034,66.25,36.034z"/></g><g><path fill="#472b29" d="M50.75,65.819c-0.138,0-0.25-0.112-0.25-0.25v-2.708c0-0.138,0.112-0.25,0.25-0.25 S51,62.724,51,62.861v2.708C51,65.707,50.888,65.819,50.75,65.819z"/><path fill="#472b29" d="M50.75,61.081c-0.138,0-0.25-0.112-0.25-0.25V38.492c0-0.138,0.112-0.25,0.25-0.25 S51,38.354,51,38.492v22.339C51,60.969,50.888,61.081,50.75,61.081z"/><path fill="#472b29" d="M50.75,36.712c-0.138,0-0.25-0.112-0.25-0.25v-1.354c0-0.138,0.112-0.25,0.25-0.25 S51,34.97,51,35.107v1.354C51,36.6,50.888,36.712,50.75,36.712z"/><path fill="#472b29" d="M50.75,71.573c-0.138,0-0.25-0.112-0.25-0.25v-3.046c0-0.138,0.112-0.25,0.25-0.25 S51,68.14,51,68.277v3.046C51,71.461,50.888,71.573,50.75,71.573z"/><path fill="#472b29" d="M50.75,32.65c-0.138,0-0.25-0.112-0.25-0.25v-3.047c0-0.138,0.112-0.25,0.25-0.25 S51,29.216,51,29.354V32.4C51,32.538,50.888,32.65,50.75,32.65z"/></g><path fill="#472b29" d="M65,29.4c3.639,0,6.6,2.961,6.6,6.6v28c0,3.639-2.961,6.6-6.6,6.6H37c-3.639,0-6.6-2.961-6.6-6.6V36 c0-3.639,2.961-6.6,6.6-6.6H65 M65,28H37c-4.418,0-8,3.582-8,8v28c0,4.418,3.582,8,8,8h28c4.418,0,8-3.582,8-8V36 C73,31.582,69.418,28,65,28L65,28z"/></svg>