<svg xmlns="http://www.w3.org/2000/svg" viewBox="0 0 66 55" fill="none">
  <path
    d="M8 51V55M46 51V55M6 18H14M6 34H14M34 26C34 29.3137 31.3137 32 28 32C24.6863 32 22 29.3137 22 26M34 26C34 22.6863 31.3137 20 28 20M34 26H38M22 26C22 22.6863 24.6863 20 28 20M22 26H18M28 20V16M24 22L21 19M32 22L35 19M24 30L21 33M2.625 1H51.375C52.2688 1 53 1.75 53 2.66667V47.6667C53 49.5 51.5375 51 49.75 51H4.25C2.4625 51 1 49.5 1 47.6667V2.66667C1 1.75 1.73125 1 2.625 1ZM11.6401 8H44.3599C45.262 8 46 8.74483 46 9.65517V42.3448C46 43.2552 45.262 44 44.3599 44H11.6401C10.738 44 10 43.2552 10 42.3448V9.65517C10 8.74483 10.738 8 11.6401 8Z"
    stroke="#000" stroke-miterlimit="10"/>
  <path
    d="M25 32C25 30.9 25.9474 30 27.1053 30H62.8947C64.0526 30 65 30.9 65 32V44C65 45.1 64.0526 46 62.8947 46H27.1053C25.9474 46 25 45.1 25 44V32Z"
    fill="#00ED64" stroke="#000" stroke-miterlimit="10"/>
  <path
    d="M31 36L33 38M33 38L35 40M33 38L35 36M33 38L31 40M39 36L41 38M41 38L43 40M41 38L43 36M41 38L39 40M47 36L49 38M49 38L51 40M49 38L51 36M49 38L47 40M55 36L57 38M57 38L59 40M57 38L59 36M57 38L55 40"
    stroke="#001E2B" stroke-miterlimit="10"/>
</svg>
