<svg xmlns="http://www.w3.org/2000/svg" width="64" height="58"
     viewBox="0 0 64 58" fill="none">
  <path
    d="M16 4.09998C16 4.09998 30 8.09998 48 4.09998M64 24.9H61.9M61.9 24.9C58.8 24.9 56.3 27.4 56.3 30.5V48.8C56.3 53.3 52.6 57 48.1 57H16C11.5 57 7.8 53.3 7.8 48.8V30.6C7.8 27.5 5.3 25 2.2 25H0M61.9 24.9C58.8 24.9 56.3 22.4 56.3 19.3V9.2C56.3 4.7 52.6 1 48.1 1H16.1C11.6 1 7.9 4.7 7.9 9.2V19.3C7.9 22.4 5.4 24.9 2.3 24.9H0"
    stroke="#001E2B" stroke-miterlimit="10"/>
  <path
    d="M39.0414 28.5301C38.6816 24.8621 35.6943 22 32.0624 22C29.2391 22 26.7755 23.7781 25.6599 26.2757C25.5639 26.4906 25.3397 26.62 25.1049 26.6048C25.0041 26.5982 24.9024 26.5949 24.8 26.5949C22.5846 26.4034 20 28.4406 20 31.1897C20 33.9389 22.149 36 24.8 36H40.4923C42.4296 36 44 34.5389 44 32.5299C44 30.5209 42.4296 28.8923 40.4923 28.8923C40.2684 28.8923 40.0201 28.9449 39.7779 29.0178C39.4372 29.1205 39.0762 28.8842 39.0414 28.5301Z"
    fill="#00ED64" stroke="#001E2B"/>
</svg>
