<svg viewBox="0 0 152 44" fill="none" xmlns="http://www.w3.org/2000/svg">
  <title>Alpaca</title>
  <desc>http://alpaca.markets/</desc>
  <path class="nav__logo__letter"
        d="M68.8585 32.3337L67.4321 28.0499H58.3032L56.8771 32.3337H52.7246L60.6171 9.44263H65.1182L73.0107 32.3337H68.8585ZM59.4445 24.5181H66.2911L62.9311 14.3806H62.8043L59.4445 24.5181Z"
        fill="white"></path>
  <path class="nav__logo__letter" d="M75.2332 32.3337V9.44263H79.0367V32.3337H75.2332Z" fill="white"></path>
  <path class="nav__logo__letter"
        d="M91.552 16.2773C93.5382 16.2773 95.1865 17.0404 96.4966 18.5665C97.8279 20.0926 98.4935 22.0764 98.4935 24.5182C98.4935 26.9381 97.8279 28.9111 96.4966 30.4371C95.1654 31.9632 93.5171 32.7262 91.552 32.7262C90.5375 32.7262 89.6184 32.5191 88.7944 32.105C87.9701 31.6689 87.3573 31.1129 86.9558 30.4371H86.8607V39.659H83.0571V16.6698H86.5121L86.6707 18.6646H86.7975C87.1989 17.9451 87.8329 17.3674 88.6992 16.9314C89.5656 16.4954 90.5166 16.2773 91.552 16.2773ZM90.6645 29.2271C91.8479 29.2271 92.7986 28.8022 93.5171 27.9519C94.2567 27.1017 94.6265 25.9572 94.6265 24.5182C94.6265 23.0575 94.2567 21.902 93.5171 21.0518C92.7986 20.2015 91.8479 19.7764 90.6645 19.7764C89.5868 19.7764 88.6781 20.1361 87.9385 20.8556C87.22 21.5532 86.8607 22.4144 86.8607 23.439V25.5646C86.8607 26.5892 87.22 27.4614 87.9385 28.1807C88.6781 28.8785 89.5868 29.2271 90.6645 29.2271Z"
        fill="white"></path>
  <path class="nav__logo__letter"
        d="M112.81 16.6698H116.265V32.3338H112.81L112.619 30.339H112.524C112.102 31.0586 111.457 31.6363 110.591 32.0724C109.746 32.5082 108.805 32.7262 107.77 32.7262C105.784 32.7262 104.125 31.9632 102.793 30.4371C101.462 28.9111 100.796 26.9381 100.796 24.5182C100.796 22.0983 101.462 20.1252 102.793 18.5992C104.125 17.0513 105.784 16.2773 107.77 16.2773C108.805 16.2773 109.746 16.4954 110.591 16.9314C111.457 17.3674 112.102 17.9451 112.524 18.6646H112.619L112.81 16.6698ZM112.461 25.5646V23.439C112.461 22.4144 112.091 21.5532 111.352 20.8556C110.633 20.1361 109.725 19.7764 108.626 19.7764C107.463 19.7764 106.512 20.2015 105.773 21.0518C105.033 21.902 104.663 23.0575 104.663 24.5182C104.663 25.9572 105.033 27.1017 105.773 27.9519C106.512 28.8022 107.463 29.2271 108.626 29.2271C109.725 29.2271 110.633 28.8785 111.352 28.1807C112.091 27.4614 112.461 26.5892 112.461 25.5646Z"
        fill="white"></path>
  <path class="nav__logo__letter"
        d="M127.158 32.7262C124.897 32.7262 123.038 31.9632 121.58 30.4371C120.143 28.9111 119.424 26.9381 119.424 24.5182C119.424 22.0983 120.143 20.1252 121.58 18.5992C123.038 17.0513 124.908 16.2773 127.19 16.2773C129.113 16.2773 130.74 16.8224 132.071 17.9124C133.403 18.9807 134.206 20.4196 134.48 22.229L130.645 22.8504C130.497 21.9129 130.096 21.1717 129.441 20.6267C128.806 20.0598 128.046 19.7764 127.158 19.7764C126.038 19.7764 125.109 20.2124 124.369 21.0845C123.65 21.9347 123.291 23.0793 123.291 24.5182C123.291 25.9572 123.65 27.1017 124.369 27.9519C125.109 28.8022 126.049 29.2271 127.19 29.2271C128.078 29.2271 128.849 28.9657 129.504 28.4424C130.18 27.8973 130.603 27.156 130.772 26.2186L134.48 26.84C134.206 28.606 133.392 30.0339 132.04 31.1238C130.687 32.1922 129.06 32.7262 127.158 32.7262Z"
        fill="white"></path>
  <path class="nav__logo__letter"
        d="M148.516 16.6698H151.971V32.3338H148.516L148.326 30.339H148.231C147.808 31.0586 147.164 31.6363 146.297 32.0724C145.452 32.5082 144.512 32.7262 143.476 32.7262C141.49 32.7262 139.831 31.9632 138.5 30.4371C137.168 28.9111 136.503 26.9381 136.503 24.5182C136.503 22.0983 137.168 20.1252 138.5 18.5992C139.831 17.0513 141.49 16.2773 143.476 16.2773C144.512 16.2773 145.452 16.4954 146.297 16.9314C147.164 17.3674 147.808 17.9451 148.231 18.6646H148.326L148.516 16.6698ZM148.167 25.5646V23.439C148.167 22.4144 147.798 21.5532 147.058 20.8556C146.34 20.1361 145.431 19.7764 144.332 19.7764C143.17 19.7764 142.219 20.2015 141.479 21.0518C140.74 21.902 140.37 23.0575 140.37 24.5182C140.37 25.9572 140.74 27.1017 141.479 27.9519C142.219 28.8022 143.17 29.2271 144.332 29.2271C145.431 29.2271 146.34 28.8785 147.058 28.1807C147.798 27.4614 148.167 26.5892 148.167 25.5646Z"
        fill="white"></path>
  <path class="nav__logo__circle" fill-rule="evenodd" clip-rule="evenodd"
        d="M15.1067 42.9709L16.823 24.641H16.6669C15.2924 24.6412 14.1555 24.1443 13.1094 23.2396C12.0632 22.3349 11.3689 21.0814 11.1511 19.7042L14.3912 17.5785V17.5521C14.3911 16.1033 14.9422 14.7105 15.9294 13.6641C16.9168 12.6176 18.264 11.9985 19.6902 11.9358V11.9299H20.6537V8.50766C21.3367 8.50768 21.9977 8.75318 22.5194 9.20063C23.0411 9.64811 23.3897 10.2686 23.5036 10.9521H23.544V8.50766C24.0575 8.50768 24.5617 8.64649 25.0047 8.90982C25.4478 9.17317 25.8137 9.55152 26.0649 10.006C26.3161 10.4605 26.4434 10.9746 26.434 11.4956C26.4243 12.0166 26.2781 12.5256 26.0106 12.9702C26.8808 13.5474 27.5954 14.3357 28.0902 15.2638C28.5847 16.1918 28.8435 17.2303 28.843 18.2854V40.4075C28.843 40.7318 28.97 41.0427 29.1957 41.2717C29.4217 41.5011 29.728 41.6297 30.0473 41.6297H31.4757C29.4696 42.6632 27.2843 43.3889 24.9791 43.7464C35.3846 42.1329 43.3557 33.0111 43.3557 21.9999C43.3557 9.84971 33.6501 0 21.6778 0C9.70548 0 0 9.84971 0 21.9999C0 31.8255 6.34679 40.1466 15.1067 42.9709ZM17.6563 18.116C17.5323 18.242 17.4625 18.4127 17.4622 18.5908L17.4015 19.2637H18.7262C19.0776 19.2637 19.4146 19.122 19.663 18.8698C19.9114 18.6176 20.051 18.2756 20.051 17.9189H18.1241C17.9486 17.9192 17.7804 17.9901 17.6563 18.116Z"
        fill="#FCD72B"></path>
</svg>
