<svg xmlns="http://www.w3.org/2000/svg" viewBox="0 0 40 40">
  <path d="M10.294 27.111l1.403 1.1 1.404 1.097s.234-.837.822-1.936l-2.806-2.197c-.589 1.1-.823 1.936-.823 1.936z"
        fill="#C86400"></path>
  <path d="M11.295 24.856l2.806 2.197c.305-.53.69-1.106 1.165-1.67l-2.806-2.196c-.476.564-.86 1.139-1.165 1.67z"
        fill="#D28214"></path>
  <path d="M12.7 22.916l2.805 2.196c.44-.486.952-.956 1.541-1.373l-2.805-2.197a9.305 9.305 0 00-1.541 1.374z"
        fill="#D29628"></path>
  <path d="M23.676 16.315l2.805 2.195c.47-.444.933-.939 1.385-1.498l-2.807-2.196c-.45.558-.914 1.054-1.383 1.499z"
        fill="#F5D246"></path>
  <path d="M16.973 20.184l2.806 2.195c.67-.266 1.398-.55 2.156-.893l-2.807-2.196c-.758.342-1.484.626-2.155.894z"
        fill="#FADE6E"></path>
  <path
    d="M14.794 21.18l-.24.15 2.808 2.198c.079-.05.157-.103.238-.15.513-.307 1.12-.57 1.792-.844l-2.806-2.195c-.672.272-1.28.536-1.792.842z"
    fill="#FAAA00"></path>
  <path d="M27.706 10.351l2.806 2.196c.268-.617.524-1.276.767-1.98L28.472 8.37a27.425 27.425 0 01-.766 1.98z"
        fill="#E39205"></path>
  <path d="M26.611 12.535l2.808 2.195c.327-.567.641-1.178.942-1.843l-2.805-2.196a21.708 21.708 0 01-.945 1.844z"
        fill="#E5A40A"></path>
  <path d="M19.495 19.12l2.807 2.197a18.03 18.03 0 001.94-1.063l-2.806-2.197a17.96 17.96 0 01-1.94 1.063z"
        fill="#FFFABA"></path>
  <path d="M21.755 17.849l2.806 2.196a14.62 14.62 0 001.652-1.288l-2.806-2.195c-.546.491-1.1.916-1.652 1.287z"
        fill="#FFDC7D"></path>
  <path d="M25.282 14.533l2.807 2.196c.393-.51.777-1.07 1.146-1.685l-2.807-2.195a17.622 17.622 0 01-1.146 1.684z"
        fill="#EBB000"></path>
  <path d="M6.215 23.92l1.403 1.097 1.403 1.1s.233-.837.823-1.939L7.04 21.982c-.592 1.103-.824 1.939-.824 1.939z"
        fill="#880012"></path>
  <path d="M7.215 21.664l2.807 2.196c.305-.53.69-1.105 1.165-1.669L8.38 19.995a11.46 11.46 0 00-1.166 1.669z"
        fill="#B40A1E"></path>
  <path d="M8.618 19.724l2.807 2.196c.44-.486.952-.956 1.543-1.373l-2.807-2.198a9.374 9.374 0 00-1.543 1.375z"
        fill="#BB001E"></path>
  <path d="M19.596 13.122l2.807 2.195c.47-.444.933-.938 1.384-1.496l-2.807-2.197a15.298 15.298 0 01-1.384 1.498z"
        fill="#D93636"></path>
  <path d="M12.893 16.991l2.807 2.196c.67-.267 1.398-.55 2.155-.893l-2.806-2.195c-.76.343-1.485.626-2.156.892z"
        fill="#FC8D8D"></path>
  <path
    d="M10.715 17.988c-.082.049-.16.1-.239.15l2.807 2.197c.078-.05.157-.102.238-.15.512-.306 1.12-.57 1.791-.843l-2.806-2.195c-.672.272-1.279.537-1.791.841z"
    fill="#E60000"></path>
  <path d="M22.533 9.343l2.807 2.195c.326-.567.64-1.179.941-1.843L23.475 7.5c-.3.663-.616 1.275-.942 1.843z"
        fill="#BC001D"></path>
  <path d="M15.416 15.928l2.805 2.196c.635-.3 1.285-.646 1.942-1.063l-2.807-2.197c-.656.416-1.306.764-1.94 1.064z"
        fill="#FFCECE"></path>
  <path d="M17.675 14.656l2.807 2.197a14.74 14.74 0 001.652-1.288l-2.806-2.196c-.546.493-1.1.918-1.653 1.287z"
        fill="#EB8998"></path>
  <path d="M21.203 11.34l2.806 2.196c.394-.509.776-1.07 1.146-1.684L22.35 9.657a18.1 18.1 0 01-1.147 1.683z"
        fill="#CB0013"></path>
  <path d="M14.374 30.304l1.402 1.098L17.18 32.5s.232-.835.822-1.936l-2.805-2.197c-.59 1.101-.823 1.937-.823 1.937z"
        fill="#880012"></path>
  <path d="M15.374 28.05l2.807 2.194c.304-.53.689-1.105 1.165-1.668L16.54 26.38c-.477.565-.86 1.14-1.166 1.67z"
        fill="#B40A1E"></path>
  <path d="M16.778 26.108l2.806 2.197a9.448 9.448 0 011.543-1.374l-2.806-2.195a9.34 9.34 0 00-1.543 1.372z"
        fill="#BB001E"></path>
  <path d="M27.755 19.506l2.806 2.196c.47-.444.933-.938 1.384-1.497l-2.806-2.197c-.45.558-.914 1.055-1.384 1.498z"
        fill="#D93636"></path>
  <path d="M21.052 23.377l2.806 2.195c.67-.268 1.398-.55 2.157-.894l-2.806-2.195c-.76.343-1.486.626-2.157.894z"
        fill="#FC8D8D"></path>
  <path
    d="M18.874 24.372l-.239.151 2.805 2.196c.08-.05.158-.101.24-.149.512-.306 1.12-.57 1.791-.844l-2.805-2.195c-.672.274-1.28.537-1.792.841z"
    fill="#E60000"></path>
  <path d="M23.576 22.312l2.805 2.197c.634-.3 1.285-.647 1.94-1.063l-2.807-2.196a17.7 17.7 0 01-1.938 1.062z"
        fill="#FFCECE"></path>
  <path d="M25.834 21.042l2.806 2.196c.553-.37 1.106-.795 1.653-1.289l-2.806-2.195c-.546.491-1.1.917-1.653 1.288z"
        fill="#EB8998"></path>
  <path d="M29.363 17.726l2.806 2.196c.393-.51.775-1.07 1.145-1.685l-2.807-2.195a17.71 17.71 0 01-1.144 1.683z"
        fill="#CB0013"></path>
</svg>
