<svg viewBox="0 0 219 36" fill="none" xmlns="http://www.w3.org/2000/svg" class="sc-ipEyDJ dcChHu">
  <path
    d="M142.711 19.257v9.899a.58.58 0 01-.583.582h-2.529a.585.585 0 01-.583-.582v-9.532c0-2.566-1.467-3.967-3.831-3.967-2.6 0-4.341 1.606-4.341 4.924v8.582a.58.58 0 01-.583.583h-2.526a.583.583 0 01-.583-.583V6.4a.585.585 0 01.583-.583h2.526a.581.581 0 01.583.583v8.432c1.129-1.745 2.874-2.632 5.301-2.632 3.934.011 6.566 2.68 6.566 7.057zm57.664-.002v9.899a.58.58 0 01-.583.582h-2.529a.581.581 0 01-.583-.582v-9.532c0-2.567-1.467-3.967-3.831-3.967-2.599 0-4.341 1.606-4.341 4.924v8.582a.58.58 0 01-.583.583h-2.526a.583.583 0 01-.583-.583V13.235a.58.58 0 01.583-.583h2.526a.578.578 0 01.412.171.582.582 0 01.171.412v1.606c1.129-1.745 2.874-2.632 5.301-2.632 3.93 0 6.566 2.669 6.566 7.046zM85.077 27.6a9.165 9.165 0 116.394 2.6 8.697 8.697 0 01-6.394-2.6zm6.394-.99a5.157 5.157 0 003.794-1.539 5.62 5.62 0 000-7.728 5.452 5.452 0 00-7.592 0 5.623 5.623 0 000 7.728 5.156 5.156 0 003.798 1.54zm15.251-11.081c.879-2.02 2.533-2.797 4.905-2.867a.367.367 0 01.366.367v2.636a.575.575 0 01-.52.579 5.864 5.864 0 00-3.171 1.144c-1.06.751-1.573 2.016-1.573 3.761v8.032a.585.585 0 01-.583.583h-2.526a.581.581 0 01-.583-.583V13.238a.588.588 0 01.171-.412.579.579 0 01.412-.171h2.526a.586.586 0 01.583.583l-.007 2.291zm71.458-2.873h2.515a.585.585 0 01.582.583v15.933a.588.588 0 01-.17.412.59.59 0 01-.412.17h-2.526a.578.578 0 01-.539-.36.588.588 0 01-.044-.222v-1.877c-1.401 1.946-3.384 2.907-5.983 2.907a8.009 8.009 0 01-6.02-2.6 9.437 9.437 0 010-12.787 8.007 8.007 0 016.02-2.599c2.599 0 4.582.957 5.983 2.87v-1.832a.585.585 0 01.594-.598zm-5.987 14.02a5.26 5.26 0 003.864-1.54 5.426 5.426 0 001.54-3.934 5.292 5.292 0 00-1.54-3.897 5.531 5.531 0 00-7.728 0 5.284 5.284 0 00-1.54 3.897 5.407 5.407 0 001.54 3.933 5.25 5.25 0 003.864 1.544v-.004zM159.978 5.817h-2.526a.583.583 0 00-.583.583v22.77c0 .322.261.583.583.583h2.526c.322 0 .583-.26.583-.583V6.4a.583.583 0 00-.583-.583zM75.98 6.4v17.117L65.977 6.254a.872.872 0 00-.755-.437h-3.604a.583.583 0 00-.583.583v22.77a.583.583 0 00.583.583h2.768a.583.583 0 00.583-.583V12.075l9.953 17.231a.873.873 0 00.755.436h3.666a.583.583 0 00.583-.583V6.4a.583.583 0 00-.582-.583h-2.768a.583.583 0 00-.594.583zm141.846 23.353h-3.01a.87.87 0 01-.759-.447l-3.574-6.551h-3.458v6.426a.584.584 0 01-.582.583h-2.53a.581.581 0 01-.583-.583V6.401a.58.58 0 01.583-.584h2.53a.585.585 0 01.582.583v12.95h3.128l3.585-6.25a.872.872 0 01.759-.44h3.068a.363.363 0 01.289.182.371.371 0 01.012.341l-4.557 7.853 4.825 8.194a.36.36 0 01.035.174.363.363 0 01-.343.35zM154.342 8.527V6.4a.585.585 0 00-.583-.583h-3.831a2.455 2.455 0 00-2.457 2.457v4.38h-2.016a.582.582 0 00-.583.584v2.393a.588.588 0 00.171.413.579.579 0 00.412.17h2.016v12.96a.585.585 0 00.583.583h2.53a.583.583 0 00.583-.583V16.21h2.595a.581.581 0 00.583-.583v-2.394a.588.588 0 00-.171-.412.577.577 0 00-.412-.171h-2.595V9.102h2.595a.585.585 0 00.58-.575zm-33.959 10.829v-3.145h3.666a.583.583 0 00.583-.583v-2.39a.58.58 0 00-.583-.583h-3.666V6.4a.585.585 0 00-.583-.583h-2.53a.583.583 0 00-.583.583v6.255h-2.566a.582.582 0 00-.583.583v2.39a.58.58 0 00.583.583h2.566v9.847a3.69 3.69 0 001.083 2.613 3.694 3.694 0 002.613 1.082h3.666a.583.583 0 00.583-.583v-2.126a.58.58 0 00-.583-.583h-2.306a1.36 1.36 0 01-1.36-1.36v-5.745z"
    fill="#fff"></path>
  <path
    d="M35.209 17.099l-3.688.909-2.105-3.666-1.301-2.259-1.466-2.522-3.41-5.906h-5.514L3.934 27.547l2.76 4.766H8.8v3.666H5.64a1.833 1.833 0 01-1.58-.913L.245 28.467a1.833 1.833 0 010-1.833L15.096.913A1.833 1.833 0 0116.677 0h7.626a1.833 1.833 0 011.58.913l4.994 8.64.648 1.134 1.467 2.518.653 1.13 1.565 2.764z"
    fill="url(#LogoType_svg__paint0_linear)"></path>
  <path d="M19.839 26.436l-4.99 8.641a1.834 1.834 0 01-1.58.917H8.8l-4.864-8.432 2.76 4.766h5.5l5.52-9.561 2.123 3.67z"
        fill="url(#LogoType_svg__paint1_linear)"></path>
  <path
    d="M35.208 18.924l-3.813 6.6a1.833 1.833 0 01-1.58.916h-4.458l-1.466-2.523-.653-1.129h5.5l2.756-4.765-.524-.91h4.212a1.832 1.832 0 01.026 1.811z"
    fill="url(#LogoType_svg__paint2_linear)"></path>
  <path d="M45.32 3.674h-5.521l-5.5 9.558-2.104-3.667 4.993-8.64a1.833 1.833 0 011.58-.913h4.447l2.105 3.662z"
        fill="url(#LogoType_svg__paint3_linear)"></path>
  <path
    d="M51.767 9.366L36.919 35.084a1.833 1.833 0 01-1.58.916h-7.625a1.833 1.833 0 01-1.58-.916l-4.34-7.516-1.306-2.255-1.466-2.522-.653-1.129-1.58-2.738 3.688-.917 2.108 3.666.653 1.13.652 1.128 1.467 2.523.649 1.125 2.107 3.666.653 1.13h5.5L48.06 8.478l-2.757-4.766h-2.042L43.196.047h3.16a1.833 1.833 0 011.58.913l3.813 6.599a1.834 1.834 0 01.018 1.807z"
    fill="url(#LogoType_svg__paint4_linear)"></path>
  <path
    d="M23.245 13.228l-2.757 4.766.528.916H16.8a1.833 1.833 0 010-1.833l3.813-6.599a1.833 1.833 0 011.584-.916h4.461l1.467 2.522.652 1.129-5.532.015z"
    fill="url(#LogoType_svg__paint5_linear)"></path>
  <defs>
    <linearGradient id="LogoType_svg__paint0_linear" x1="-1.228" y1="25.93" x2="29.93" y2="7.941"
                    gradientUnits="userSpaceOnUse">
      <stop offset="0.2" stop-color="#668CFF"></stop>
      <stop offset="0.49" stop-color="#0AF"></stop>
      <stop offset="0.8" stop-color="#00BFB5"></stop>
    </linearGradient>
    <linearGradient id="LogoType_svg__paint1_linear" x1="6.986" y1="32.852" x2="19.403" y2="25.681"
                    gradientUnits="userSpaceOnUse">
      <stop offset="0.5" stop-color="#668CFF"></stop>
      <stop offset="1" stop-color="#0AF" stop-opacity="0"></stop>
    </linearGradient>
    <linearGradient id="LogoType_svg__paint2_linear" x1="24.657" y1="25.234" x2="36.092" y2="18.631"
                    gradientUnits="userSpaceOnUse">
      <stop stop-color="#0AF" stop-opacity="0"></stop>
      <stop offset="0.4" stop-color="#00BFB5"></stop>
    </linearGradient>
    <linearGradient id="LogoType_svg__paint3_linear" x1="31.92" y1="9.14" x2="44.337" y2="1.973"
                    gradientUnits="userSpaceOnUse">
      <stop stop-color="#00BFB5" stop-opacity="0"></stop>
      <stop offset="0.5" stop-color="#00CC7C"></stop>
    </linearGradient>
    <linearGradient id="LogoType_svg__paint4_linear" x1="22.087" y1="28.078" x2="53.241" y2="10.092"
                    gradientUnits="userSpaceOnUse">
      <stop offset="0.2" stop-color="#0AF"></stop>
      <stop offset="0.51" stop-color="#00BFB5"></stop>
      <stop offset="0.8" stop-color="#00CC7C"></stop>
    </linearGradient>
    <linearGradient id="LogoType_svg__paint5_linear" x1="15.917" y1="17.392" x2="27.355" y2="10.786"
                    gradientUnits="userSpaceOnUse">
      <stop offset="0.6" stop-color="#0AF"></stop>
      <stop offset="1" stop-color="#00BFB5" stop-opacity="0"></stop>
    </linearGradient>
  </defs>
</svg>
