<!-- by TradingView --><svg xmlns="http://www.w3.org/2000/svg" width="18" height="18" viewBox="0 0 18 18"><path fill="#F0F3FA" d="M0 0h18v18H0z"/><path d="M4 4h4.6v.5H4.5v9h3.39v.5H4V4zm9.5.5H9.22V4H14v10H9.5v-.5h4v-9z" fill="#B1B2B5"/><path d="M8.7 4.88c0-.82.64-1.11.9-1.17-.95.54-.65 1.44-.41 1.99.1.25.34.94.38 1.6.04.68-.24 1.37-.38 1.63.62.05 1.14-.31 1.32-.5.55-.63.9-.8 1-.8-.4.2-.82.9-1 1.14-.18.24-.3.36-1.16.59-.87.23-1.05.8-1.1 1.47-.03.55.15 1.14.24 1.37.45-.54.84-.78 2.1-.85 1.01-.05 1.46-.67 1.56-.97-.18.8-.78 1.04-1.13 1.12-.22.05-.75.17-1.23.31-.61.2-.88.58-.58 1.6.24.8.15 1.34.08 1.59H7.91c.4-1.02.23-1.52.09-1.72-.1-.15-.31-.6-.47-1.2-.16-.6-.74-.86-1-.92-1.1-.4-1.1-1.6-.96-2.13 0 1.23.57 1.56 1.14 1.77a2 2 0 0 1 .78.44c-.03-.37 0-1.03.36-1.53.34-.5.67-1.15.05-2.09-.5-.74-.45-1.18-.36-1.3-.06.16-.02.57.55.99.57.42.68.92.66 1.12.3-.18.69-.9.3-2.04a4.5 4.5 0 0 1-.35-1.51z" fill="#A95E2A"/><path d="M9.08 3.78c-.15-.1-.31-.46.17-1.08.07.09.22.33.23.63.02.3-.26.42-.4.45zm.3 1.74c.01-.3.25-1.01 1.17-1.36.07.43-.07 1.3-1.17 1.36zM7.4 4.15c.24-.13.78-.2 1 .5-.24.04-.79-.01-1-.5zm.8 1.45c.16.24.37.82-.05 1.26-.23-.25-.53-.85.05-1.26zm-1.77.1c.22-.13.72-.22.97.55-.2.02-.69-.05-.97-.55zm-.38 1.54c.32-.23 1.1-.46 1.63.43a1.4 1.4 0 0 1-1.63-.43zm4.74-.74c-.23.18-.62.7-.31 1.42.34-.03.87-.35.31-1.42zm1.66.52c-.17.06-.55.32-.68.89.3-.01.87-.2.68-.89zm-1.5 1.66c.55-.4 1.25-.15 1.53.03 0 0-.05 0-.6.22-.56.23-.86-.07-.94-.25zM4.65 9c-.07.24-.08.76.49.94.07-.22.08-.7-.49-.94zm2.17 1.58c-.7-.51-.3-1.16 0-1.43 0 .17.12.38.17.47a.76.76 0 0 1-.17.96zm3.06-.64c-.28.3-.72.97-.25 1.33.27-.02.7-.3.25-1.33zm1.48-.14c-.12.25-.3.82-.06 1.04.3-.09.73-.43.06-1.04zm1.92.7c-.2-.05-.7-.05-1.03.38.23.18.76.35 1.03-.38zm-2.37 1.4c.76-.4 1.42-.04 1.65.19-.2.06-.37.15-.43.19-.64.42-1.08-.08-1.22-.37zm-4.42-.5c-.41-.14-1.33-.26-1.74.38.32.26 1.12.55 1.74-.38z" fill="#009891"/></svg>