<!-- by TradingView --><svg xmlns="http://www.w3.org/2000/svg" width="18" height="18" viewBox="0 0 18 18"><path fill="#F0F3FA" d="M0 0h18v18H0z"/><path d="M14.4 5.63c-.01.1-.03.21-.06.31-.08.32-.34.84-1 .75-.07 0-.13-.02-.2-.04-.27-.1-.54-.21-.8-.35-.88-.35-1.28-.08-1.51.2a1.03 1.03 0 0 0 .1 1.34c.21.24.62.48 1 .37a.68.68 0 0 0 .54-.56.5.5 0 0 0-.14-.46c-.29-.3-.8-.14-.72.15a.17.17 0 0 0 .1.14.18.18 0 0 0 .16 0 .16.16 0 0 1 .16.02.16.16 0 0 1 .06.15.2.2 0 0 1-.06.13.21.21 0 0 1-.14.06.44.44 0 0 1-.23-.07.87.87 0 0 1-.27.18c-.56-.62.16-1.44.9-1.15a.8.8 0 0 1 .48 1c-.18.74-.88.96-1.56.78A1.67 1.67 0 0 1 10 6.51c.22-.9.94-1.56 2.22-1.25.4.1.7.25.93.38.2.1.36.2.52.2a.93.93 0 0 0 .72-.2Zm-7 .62.06.05a.18.18 0 0 0 .3 0c.2-.2-.15-.6-.55-.49a.52.52 0 0 0-.35.34.67.67 0 0 0 .19.75c.28.29.75.28 1.05.18a1.04 1.04 0 0 0 .76-1.11c-.06-.36-.28-.79-1.2-.92-.3-.02-.6-.05-.88-.1h-.01a1.22 1.22 0 0 1-.18-.07c-.29-.09-.78-.44-.5-1.15l.11-.3a.9.9 0 0 0 .52.55c.15.07.33.08.56.08.27.01.59.02.98.14 1.26.37 1.56 1.3 1.3 2.19-.29.93-1.15 1.44-2.08 1.2-.68-.19-1.17-.73-.96-1.47a.8.8 0 0 1 .33-.49.82.82 0 0 1 .58-.13c.79.12 1 1.2.22 1.44a.9.9 0 0 1-.15-.28.43.43 0 0 1-.23-.06.2.2 0 0 1-.08-.26.15.15 0 0 1 .12-.1l.09.01Zm.26 2.96a.9.9 0 0 0-.1-.7.93.93 0 0 0-.55-.42.95.95 0 0 0-.7.1.9.9 0 0 0-.1 1.51.94.94 0 0 0 1.3-.17c.07-.1.12-.2.15-.32Zm3.72.05a.93.93 0 0 0-.7.1.9.9 0 0 0 .22 1.66c.24.07.5.03.7-.09a.9.9 0 0 0 .44-.55.93.93 0 0 0-.1-.69.95.95 0 0 0-.56-.43Zm-2.54 4.3a.93.93 0 0 0-.1-.7.95.95 0 0 0-.56-.43.93.93 0 0 0-.7.1.9.9 0 0 0 .23 1.66c.24.07.49.03.7-.09a.9.9 0 0 0 .43-.55Zm.24-2.64a.93.93 0 0 1 .7-.09c.24.07.44.23.56.44.12.2.16.45.1.68a.9.9 0 0 1-.43.56.93.93 0 0 1-.7.08.92.92 0 0 1-.64-.58.9.9 0 0 1 .42-1.08Zm-1.48-.67a.93.93 0 0 0-.7.09.9.9 0 0 0 .22 1.67c.24.06.5.03.7-.09a.9.9 0 0 0 .44-.55.93.93 0 0 0-.1-.7.95.95 0 0 0-.56-.42Zm2.25-.46a.93.93 0 0 0-.1-.68.95.95 0 0 0-.56-.43.93.93 0 0 0-.7.08.9.9 0 0 0 .23 1.68c.24.06.49.03.7-.1a.9.9 0 0 0 .43-.55ZM7.9 4.86a1.89 1.89 0 0 1 .51.15V5c-.04-.07-.11-.22-.5-.34a2.44 2.44 0 0 0-.42-.07c-.38-.04-.83-.1-1.1-.45a.93.93 0 0 1-.11-.22.63.63 0 0 0 .04.46c.07.14.2.26.35.31.05.03.1.04.16.06.35.06.71.1 1.07.11Zm3.4 5.34a.36.36 0 0 1-.42-.05.36.36 0 0 1-.09-.12.26.26 0 0 1-.02-.16c-.3.18-.18.74-.18.74s-.5-.7.18-1.1c.34-.18.6-.04.7.15a.38.38 0 0 1-.17.54Zm-3.2 3.17a.36.36 0 0 1-.5-.16.24.24 0 0 1-.02-.17c-.3.18-.18.75-.18.75s-.5-.71.18-1.11c.33-.17.6-.04.7.15a.38.38 0 0 1-.05.45.38.38 0 0 1-.12.1Zm1.46-1.55c.05 0 .1-.02.14-.05a.38.38 0 0 0 .2-.23.38.38 0 0 0-.03-.3c-.1-.2-.36-.33-.7-.16-.68.4-.17 1.1-.17 1.1s-.13-.56.18-.74c-.01.06 0 .12.02.17a.36.36 0 0 0 .22.19l.14.02Zm-2.6-2.79A.36.36 0 0 1 6.53 9a.36.36 0 0 1-.08-.12.3.3 0 0 1-.02-.16c-.31.18-.2.73-.2.73a.5.5 0 0 1-.12-.19.7.7 0 0 1 .29-.89.52.52 0 0 1 .71.13.38.38 0 0 1-.17.54h.01Zm.56 2.16a.36.36 0 0 1-.42-.05.36.36 0 0 1-.09-.12.28.28 0 0 1-.02-.16c-.3.18-.18.74-.18.74s-.5-.7.18-1.1c.34-.18.6-.05.7.15a.38.38 0 0 1 .03.3.38.38 0 0 1-.2.24Zm5.67-4.74c.05.02.1.03.16.03.16.03.33 0 .46-.1a.63.63 0 0 0 .27-.37.93.93 0 0 1-.22.14c-.4.18-.82 0-1.17-.16a2.4 2.4 0 0 0-.39-.15c-.39-.08-.53 0-.6.05h-.02a1.72 1.72 0 0 1 .52.13c.33.16.65.3 1 .43ZM9.12 9.61a.36.36 0 0 1-.41-.04.36.36 0 0 1-.1-.12.24.24 0 0 1-.01-.16c-.31.18-.18.74-.18.74s-.5-.71.17-1.11c.34-.17.6-.04.7.15a.38.38 0 0 1-.17.54Z" fill="url(#acrldgml2)"/><defs><linearGradient id="acrldgml2" x1="14.78" y1="-12.12" x2="7.73" y2="14.2" gradientUnits="userSpaceOnUse"><stop stop-color="#EDA141"/><stop offset="1" stop-color="#EFC586"/></linearGradient></defs></svg>