<!-- by TradingView --><svg width="18" height="18" viewBox="0 0 18 18" xmlns="http://www.w3.org/2000/svg"><path fill="#F0F3FA" d="M0 0h18v18H0z"/><path d="M6.12 9.34c0-.02 0-.03-.03-.05a.12.12 0 0 0-.02-.06l-.02-.04v-.03a.36.36 0 0 0-.18-.21c-.26-.14-.46-.16-.57-.07a.05.05 0 0 1-.04.01c-.1 0-.2-.03-.28-.08-.1-.05-.16-.12-.17-.21a.5.5 0 0 1 .1-.37c.05-.1.08-.16.08-.2.02-.12 0-.2-.03-.24a7.17 7.17 0 0 0-.39-.32c-.04-.03-.03-.04.01-.04l.48-.02c.03 0 .08-.01.14-.04a.5.5 0 0 1 .2-.05c.1 0 .19 0 .24-.04l.7-.34a.79.79 0 0 1 .4-.07c.06 0 .16.03.27.08a2.37 2.37 0 0 0 .78.19l.44.06a16.45 16.45 0 0 0 .96 0c.1.02.15.02.18.01l.05-.01c.06-.02.11-.04.15-.04.05-.01.1-.01.14 0 .04.01.1.05.18.1l.04.03a5.75 5.75 0 0 1 .34.14c.1.04.16.16.2.36v.43c-.01.08-.04.2-.09.34 0 .02-.01.03-.03.03l-.07-.02c-.02 0-.03 0-.03-.02l.02-.11a1.99 1.99 0 0 0 0-.8c-.01-.05-.05-.08-.1-.1a1.33 1.33 0 0 1-.44-.22.15.15 0 0 0-.08-.03h-.1a1.3 1.3 0 0 1-.37.05c-.34 0-.7-.02-1.11-.05-.44-.02-.8-.09-1.1-.2a1.1 1.1 0 0 0-.28-.1.53.53 0 0 0-.28.07l-.72.36a.33.33 0 0 1-.28.03.15.15 0 0 0-.12 0 3.5 3.5 0 0 0-.37.1c-.03 0-.03.02 0 .03.09.06.15.1.17.13.05.06.07.13.06.2a.67.67 0 0 1-.05.23l-.12.26c-.04.08-.04.16 0 .22s.1.1.2.12c.02.01.07 0 .12-.02a.32.32 0 0 1 .09-.02.9.9 0 0 1 .58.15c.05.03.1.07.13.13l.08.15.1.2c.06.07.1.13.13.2a.06.06 0 0 0-.02-.01h-.02v.02c.04.04.08.06.13.06l.03.02v.04c-.01.02-.03.02-.05.01a1.1 1.1 0 0 1-.36-.33Z" fill="#F80000"/><path d="M9.97 8.54a1.6 1.6 0 0 0 0-.76c-.02-.03 0-.05.03-.05h.07c.03 0 .05.02.05.05l.01.46v.12a.4.4 0 0 1-.02.15c-.03.06-.07.08-.12.07-.02 0-.03-.02-.02-.04Z" fill="#F80000"/><path d="M11.95 7.35a.06.06 0 0 1-.06.03h-.04c-.02-.02-.02-.03 0-.05a.37.37 0 0 1 .1-.09l.1-.06a.25.25 0 0 1 .1-.06.4.4 0 0 0 .13-.08c.02-.01.02-.01 0 0a.69.69 0 0 1-.28.25.06.06 0 0 0-.02.02l-.03.04ZM12.58 7.2l-.12.11v.02h.02l.12-.1V7.2h-.02Z" fill="#C8C8C8"/><path d="M12.12 7.52c-.06-.02-.1-.02-.14.01-.05.04-.04.05.02.03.03-.01.05 0 .06.02a.46.46 0 0 1-.13.13h-.06v-.03a.9.9 0 0 0 .08-.03c.06-.03.05-.04 0-.04-.02 0-.03 0-.06.03a.7.7 0 0 1-.14.08c-.02.01-.02.02 0 .02a.1.1 0 0 0 .07 0h.02l.01.03c.01.03 0 .05-.04.05l-.02.02-.2.22c-.08-.02-.13-.01-.16.04-.01.02 0 .03.01.02.03 0 .05-.02.08-.04h.03v.01a.45.45 0 0 1-.2.18 2.6 2.6 0 0 1-.15.2.42.42 0 0 0-.05.1.53.53 0 0 1-.04.07h-.03l.02-.09a.73.73 0 0 1 .1-.21.3.3 0 0 0 .07-.15c0-.06.01-.1.03-.13a1.92 1.92 0 0 1 .57-.59.76.76 0 0 1 .12-.09c.05-.02.08-.05.1-.07h.14v.01l.01.05v.02a.54.54 0 0 1-.12.13Z" fill="#B56605"/><path d="M12.85 7.54a.72.72 0 0 0-.12.18h-.02l-.02-.01c.06-.14.12-.24.2-.29.06-.04.07-.03.03.04a.4.4 0 0 1-.07.08ZM13.1 7.8c-.01.02-.02.02-.04.01-.02 0-.02-.01-.01-.02a3.02 3.02 0 0 1 .2-.3c.02-.02.02-.01 0 .02l-.15.3Z" fill="#C8C8C8"/><path d="M12.96 7.8v-.04h-.01a.13.13 0 0 0-.05.04v.02h.02l-.01.06c-.07.1-.15.18-.24.27a.35.35 0 0 0-.13.1.38.38 0 0 1-.18.06l-.03.01a.7.7 0 0 1-.18.12.8.8 0 0 0-.21.1c-.03.02-.02.03 0 .03.12.02.24.02.36 0 .05.02.11.03.17.02.02 0 .04 0 .05-.02a.1.1 0 0 1 .04 0c0 .02.02.02.04.01.05 0 .1-.02.15-.04l.01-.02h.01c0-.02.01-.02.02-.02h.13l.17-.07c.04-.01.04-.03 0-.04l-.06.01a.32.32 0 0 1-.1.03c-.01 0-.02 0-.03.02l-.04.02c-.01 0-.02 0-.02-.02a17.47 17.47 0 0 1 .17-.1.24.24 0 0 1 .18-.01l.04-.01c.03-.05.07-.07.1-.05h.04a.43.43 0 0 1 .1-.1c.02 0 .03 0 .03.02l-.01.02c-.04 0-.05.01-.04.04l-.01.03-.07.03h-.09c-.04.02-.04.03 0 .04.02 0 .05 0 .09-.03h.03l.06-.03.03-.02c.02 0 .05 0 .09.02h.03c.03-.02.06-.03.1-.01h.03l.04-.04h.04c.04.01.08 0 .13-.03l.07.01v.02a.17.17 0 0 1-.09.01h-.01v.02c-.02.01-.01.02 0 .02h.02l-.08.02c-.04-.03-.08-.03-.12 0l-.03.01c-.05 0-.09 0-.12.02h-.03c-.05-.01-.08-.02-.1 0a.68.68 0 0 1-.17.05.37.37 0 0 0-.07.03l-.09.02v.02l-.02.01c-.08.02-.11.04-.09.06l-.37.1a.61.61 0 0 1-.34.01l-.02-.02c0-.02-.02-.02-.05-.02h-.25c-.06 0-.12 0-.18.04h-.03a39.96 39.96 0 0 0 .17-.17.63.63 0 0 1 .17-.1 2.71 2.71 0 0 1 .2-.13.5.5 0 0 1 .1-.14 3.49 3.49 0 0 0 .24-.24.14.14 0 0 1 .06-.07s.02 0 .02-.02l.05-.06.15-.16c.04-.05.08-.06.13-.06l.02.02v.08l-.03.05a.35.35 0 0 0-.05.11l-.05.04ZM12.12 7.52a.18.18 0 0 1-.06.06c0-.03-.03-.03-.06-.02-.06.02-.07.01-.02-.03.04-.03.08-.03.14-.01Z" fill="#CAB536"/><path d="M10.92 8.65a1.7 1.7 0 0 1-.01-.42c0-.06 0-.14-.04-.23a1.85 1.85 0 0 1-.03-.06c-.01 0-.02 0-.02.02v.01c0 .12.02.2.04.25l.02.09a.8.8 0 0 0-.05.32h-.02v-.25l-.01-.22-.01-.06a.56.56 0 0 1 .08-.4v-.03a.03.03 0 0 0-.02-.02.22.22 0 0 1-.14-.08v-.02h.24l.03.01v.03c-.01.06-.04.13-.07.2-.02.06-.01.14.02.27l.02.05v.16c0 .13-.01.25-.03.38Z" fill="#B56605"/><path d="m11.93 7.71-.08.06-.01-.03h-.02a.1.1 0 0 1-.07 0c-.02 0-.02-.01 0-.02a.7.7 0 0 0 .14-.08c.02-.03.04-.04.05-.03.06 0 .06.01.01.04a.9.9 0 0 1-.08.03v.02c.01.02.04.02.06.01Z" fill="#CAB536"/><path d="M12.54 8.25a.35.35 0 0 1 .13-.1c0 .06.02.06.07 0a.43.43 0 0 1 .06-.06.26.26 0 0 0 .08-.1c0-.01 0-.02.02-.03.02 0 .06-.03.11-.08a.34.34 0 0 1 .04-.04c.03-.02.04-.01.02.02a.72.72 0 0 1-.53.39Z" fill="#C8C8C8"/><path d="M11.5 7.98c.03 0 .05 0 .07-.02l.02-.03c0-.03.02-.05.06-.05.02 0 .02 0 .01.02l-.03.02a.03.03 0 0 0-.02.02c0 .02-.01.05-.05.07-.02.01-.04 0-.06-.01l-.02-.01-.03.01-.12.18h-.03v-.03a5 5 0 0 1 .12-.17c.02-.02.04-.03.07-.02h.01v.02ZM10.92 8.65c-.04-.02-.07-.02-.09-.02 0-.1.01-.22.05-.32l-.02-.09a.94.94 0 0 1-.04-.26l.01-.02h.01v.01l.03.05c.03.09.05.17.04.23a1.7 1.7 0 0 0 0 .42Z" fill="#CAB536"/><path d="m13.16 8.16-.12.08h-.01v-.05c.16-.1.33-.17.52-.24h.03c.04.03.07.03.1.02a.21.21 0 0 1 .05-.02c.07 0 .07.02 0 .04a.65.65 0 0 0-.23.1h-.05c-.04 0-.08 0-.1.02a19.3 19.3 0 0 0-.17.06h-.02ZM11.87 8.12c-.08.04-.16.07-.24.08h-.02v-.02c0-.01.01-.02.03-.02.05 0 .12-.02.21-.07.1-.04.17-.08.2-.12h.04V8c-.07.05-.14.1-.22.13ZM14.1 8.01l-.07.02-.03.01-.32.04c-.02 0-.02 0 0-.02.12-.09.26-.12.41-.08v.03Z" fill="#C8C8C8"/><path d="M13.94 8.3h-.02c-.01 0-.02-.01-.01-.02v-.01h.02l.09-.02v-.02c-.03-.01-.05-.02-.07 0-.05.02-.1.03-.13.02h-.04l-.04.03h-.03l-.1.01h-.03a.23.23 0 0 0-.1-.01l-.02.02a.09.09 0 0 1-.06.03h-.04c-.03.03-.06.04-.08.03-.04-.01-.04-.02 0-.04h.08l.08-.03c.01 0 .02-.02.01-.03 0-.03 0-.04.03-.04.02 0 .02 0 .02-.02 0-.01-.01-.02-.02-.01a.43.43 0 0 0-.11.08c-.01.01-.02.02-.04 0-.03 0-.07 0-.1.06h-.04a.24.24 0 0 0-.17.02 16.72 16.72 0 0 0-.18.1c0 .02 0 .03.02.02.02 0 .03 0 .04-.02l.03-.02c.02 0 .05 0 .1-.03.03-.01.05-.02.07-.01.03.01.03.03 0 .04l-.18.07h-.13l-.02.01v.01l-.02.02-.15.04h-.04l.04-.02c.09-.02.14-.04.16-.07l.04-.04a.31.31 0 0 1 .12-.1 708.35 708.35 0 0 1 .47-.18l.14-.02h.06l.06-.01c.1-.02.22-.03.36-.02a.2.2 0 0 1 .08.03l.02.01.01.02-.02.01c-.02 0-.02.02-.01.03.02 0 .03.01.03.02v.02l-.18.05Z" fill="#B56605"/><path d="M13.86 8.32a.92.92 0 0 1-.23.05.34.34 0 0 0-.1.02.25.25 0 0 1-.07.02h-.06l-.38.13c-.02-.02 0-.04.09-.06h.01v-.02h.01l.09-.03a.36.36 0 0 1 .07-.03c.05 0 .11-.03.17-.06l.1.02h.03a.15.15 0 0 1 .12-.03h.03c.04-.04.08-.04.12 0Z" fill="#B56605"/><path d="m6.05 9.19.02.04a.15.15 0 0 0-.13 0 .21.21 0 0 0-.09.1 6.59 6.59 0 0 1-.01.36l.32.2.02.02.01.03.03.03a.4.4 0 0 0 .08.05l.1.09c.06.03.1.07.1.12l-.04-.03A5.83 5.83 0 0 0 6 9.87a1.24 1.24 0 0 0-.2-.13c-.07-.03-.14-.12-.21-.27a.7.7 0 0 0-.34-.31 2.79 2.79 0 0 0-.55-.17.42.42 0 0 1-.17-.1h-.01v.03c.05.07.12.14.2.2a1.79 1.79 0 0 1 .2.19l.08.08c.1.11.18.18.24.2a6.07 6.07 0 0 1 1.01.55l.18.17a3.21 3.21 0 0 1-.27-.19s-.02 0-.02.02v.03l.07.04a1.13 1.13 0 0 1 .22.18l-.24-.15-.03-.01-.02-.02a.04.04 0 0 0-.01-.02l-.1-.06v-.03h.03l.01.01v.01l.02.02.04-.02v-.03a2.09 2.09 0 0 0-.32-.2.03.03 0 0 0-.03-.02.07.07 0 0 1-.05-.03.03.03 0 0 0-.03-.01c-.02 0-.03.01-.04.04v.02a2.42 2.42 0 0 1 .34.2c0 .02 0 .02-.02.01a76 76 0 0 1-.36-.2c-.02-.02-.04-.03-.07-.02l-.01-.01v-.03c0-.01.01-.02.03 0l.05.02h.02v-.02c.02-.01.01-.02 0-.03a.6.6 0 0 0-.14-.07.87.87 0 0 1-.19-.06A1.21 1.21 0 0 0 5 9.6h-.01v.02a2.6 2.6 0 0 1 .53.19l-.01.02H5.5l-.45-.16c-.03-.02-.06-.01-.07 0v.02H5l.12.04a4.52 4.52 0 0 0 .54.27 3.1 3.1 0 0 1 .74.5l-.36-.24-.01-.01c-.02-.03-.04-.04-.06-.03h-.01c0-.02 0-.03-.02-.04a.72.72 0 0 0-.2-.08v-.01h.02c0 .01.01.01 0 0h-.01l-.02-.02-.02-.02H5.7c-.03 0-.04 0-.05-.03 0-.02-.01-.02-.03-.01-.02 0-.03 0-.03-.03 0 0-.01-.02-.03-.02-.02 0-.03 0-.04.02-.02 0-.02.02 0 .03l.13.07.01.01c.02.01.03.02.04 0 .02 0 .02 0 .02.02l.02.02c.1.06.2.13.34.19a.2.2 0 0 1 .07.05c.02.03.06.05.1.08l.03.02c.02 0 .03.03.04.05.02.03.05.06.09.08v.01h-.01c-.1-.05-.18-.11-.25-.18a.68.68 0 0 0-.17-.12c-.09-.04-.2-.12-.34-.21H5.6l-.01.03v.02l.32.18.02.03c0 .02.01.03.02.02h.03l.35.26a1.1 1.1 0 0 1-.29-.14h-.01v.01l-.03.01-.17-.04v.01a1.4 1.4 0 0 1 .56.45v.02h-.02l-.03-.04a.61.61 0 0 0-.13-.14c-.15-.1-.31-.2-.48-.29a.24.24 0 0 0-.12-.03h-.39c-.01-.01-.01 0 0 0 .02.03.08.06.16.08a.5.5 0 0 1 .16.06c.2.14.4.25.6.34.1.04.2.06.3.06h.32c.02 0 .04 0 .05-.02a.06.06 0 0 0 0-.06l-.04-.1.1.11v.03c0 .04-.03.07-.07.08h-.15c-.2.02-.36 0-.49-.04-.23-.1-.42-.2-.57-.3a.62.62 0 0 0-.28-.13c-.04 0-.08-.04-.14-.1a.64.64 0 0 0-.06-.05.29.29 0 0 0-.11-.03.79.79 0 0 1-.2-.05c-.07-.03-.1-.08-.11-.14v-.07a.04.04 0 0 0-.03-.03.32.32 0 0 0-.15-.06c-.1 0-.2 0-.3-.03a.7.7 0 0 1-.17-.07 2.36 2.36 0 0 0-.07-.04.24.24 0 0 0-.1-.02h-.02c-.01 0-.02-.01 0-.02.01-.02.03-.03.04-.02h.04a.88.88 0 0 0 .6-.04c.06-.04.06-.05 0-.03a.22.22 0 0 0-.1.04.26.26 0 0 1-.09.03.72.72 0 0 1-.08-.07.53.53 0 0 0-.11-.09.4.4 0 0 0-.17-.02l-.18-.01a.32.32 0 0 1-.15-.12.07.07 0 0 0-.03-.02l-.03-.02a.44.44 0 0 1-.11-.07c-.04-.03-.03-.07 0-.1l.01-.02-.01-.02h-.03c-.01 0-.02 0-.02-.02 0-.06.05-.08.16-.08l.03.01c.02.03.06.06.1.07v.02l-.03.08c0 .02.02.04.04.05l.07.02c.13-.02.3 0 .53.04a5.6 5.6 0 0 0 .13.01l-.15-.15-.02-.02v-.04l-.04-.12c-.06-.08-.1-.14-.15-.18-.02-.03-.02-.04.02-.03.14.02.23.06.26.13.03.1.1.15.19.16a1.75 1.75 0 0 1 .25.05v-.01a1.67 1.67 0 0 1-.32-.3.8.8 0 0 1-.1-.3l-.01-.04v-.05l.03-.02h.02a.4.4 0 0 0 .18.33c.07.05.18.09.34.12l.35.13a.6.6 0 0 1 .3.28c.05.11.1.2.16.26.04.04.05.03.04-.02V9.35c.01-.05.04-.1.09-.13.05-.02.1-.03.16-.03Z"/><path d="M6.46 10.2c.01.15 0 .19-.04.11a.97.97 0 0 0-.18-.17 6.07 6.07 0 0 0-1.01-.55.72.72 0 0 1-.24-.2 1.39 1.39 0 0 0-.14-.14l-.14-.13a1.42 1.42 0 0 1-.2-.2v-.03h.01l.17.1.12.03c.2.05.34.1.43.14a.7.7 0 0 1 .34.3c.07.16.14.25.2.28l.21.13.13.1.34.23ZM4.79 9.52a.5.5 0 0 0-.11 0c-.08 0-.15-.02-.2-.06a.86.86 0 0 1-.16-.18.08.08 0 0 1-.01-.03.3.3 0 0 0-.09-.2c-.05-.04-.04-.06.02-.05.03 0 .06.03.08.08l.02.05c.02.04.05.07.08.08.1.06.23.09.4.1.03 0 .06.01.08.04l.18.2c.02.01.02.02 0 .02-.12-.01-.22-.03-.29-.05Z" fill="#00CE02"/><path d="m4.16 9.49-.01.04a.1.1 0 0 0-.04.02h-.03a.48.48 0 0 0-.21 0c-.05 0-.05.01 0 .02h.25c0 .02.01.03.03.03l.01.02v.01c-.02-.01-.04-.02-.06 0h-.02c-.2.02-.34-.02-.41-.12l-.03-.02-.12-.07a.05.05 0 0 1-.03-.04l.01-.03.02-.06-.01-.02h-.02c-.02-.02-.02-.02 0-.03.06-.03.11-.02.16.03v.04c-.03.09.01.14.12.14.13 0 .26.01.4.04Z" fill="#925B5C"/><path d="M4.94 9.22c.13.03.24.1.33.2v.01h-.01a.52.52 0 0 0-.27-.17c-.02 0-.03-.01-.05-.04Z"/><path d="m6.07 9.23.02.06a.43.43 0 0 0-.16.06.05.05 0 0 0-.02.02.2.2 0 0 0 .05.23 42.5 42.5 0 0 0 .4.4l-.06.02a.4.4 0 0 1-.08-.05.98.98 0 0 0-.03-.03l-.01-.03s0-.02-.02-.02l-.32-.2-.01-.01a6.59 6.59 0 0 0 .02-.34.21.21 0 0 1 .09-.1.15.15 0 0 1 .13 0Z" fill="#00CE02"/><path d="m6.1 9.3.02.04a.2.2 0 0 0-.17.04l-.02.03v.02c0 .05 0 .1.04.13a7.34 7.34 0 0 1 .44.46c.02.03.01.03-.02.01a.5.5 0 0 1-.04-.03 42.48 42.48 0 0 1-.4-.4.2.2 0 0 1-.04-.23l.02-.02c.05-.03.1-.05.17-.06Z"/><path d="m4.3 9.63-.01.04c-.03.06-.07.04-.13-.04v-.01l-.01-.02c-.02 0-.03 0-.03-.03.06-.02.07-.03.03-.04l.01-.04.19.03c.01 0 .02.01 0 .02 0 .01 0 .03-.03.05a.1.1 0 0 0-.02.02v.02Z" fill="#C8C8C8"/><path d="m5.66 9.7-.44-.2H5.2v.02l.45.2h.02V9.7Z"/><path d="m4.74 9.54.02.03c0 .01 0 .02-.02.02l-.04.01v.02h.03a.25.25 0 0 1-.06.04h-.01l-.02-.01v-.02l.02-.01V9.6h-.08l-.12-.04h-.01l-.05.03v.03l.03.01.02.02c0 .02 0 .04-.02.05v.01c-.01.02 0 .02.02.03v.02c-.03.01-.04 0-.05-.01l-.03-.01h-.02v.03l.02.01-.01.02c-.03 0-.05-.02-.07-.05v-.03a.12.12 0 0 1 .05-.03v-.02h-.06l.02-.04c.04 0 .08-.02.12-.09h.2a.15.15 0 0 1 .12 0Z" fill="#925B5C"/><path d="M4.73 9.62H4.7V9.6a.06.06 0 0 1 .05-.01l.01-.02s0-.02-.02-.03l.13.02c.04 0 .04.02 0 .04a.67.67 0 0 1-.14.02ZM6.42 10.31c.04.08.05.04.04-.11l.03.03a.45.45 0 0 0 .02.25l-.01.02-.02.01c-.01.01-.02.02 0 .03l.02.04v.03a.24.24 0 0 1-.1.06l-.08-.03-.35-.25h-.03c-.01 0-.02-.01-.02-.03l-.02-.03-.32-.18v-.04c.02-.02.03-.02.05-.01.14.1.25.17.34.21.06.03.12.07.17.12a1.45 1.45 0 0 0 .26.18.25.25 0 0 1-.09-.09.14.14 0 0 0-.04-.05l-.03-.02a.38.38 0 0 1-.1-.08.2.2 0 0 0-.07-.05 2.56 2.56 0 0 1-.36-.21c0-.01 0-.02-.02-.01h-.04l-.01-.02-.13-.07c-.02-.01-.02-.02 0-.03l.04-.02c.02 0 .02.01.03.02 0 .03.01.04.03.03h.03c0 .03.02.04.05.03h.02l.02.03.02.01.02.02-.03-.01h-.01v.01c.1.02.16.05.21.08.01 0 .02.02.01.03 0 .02 0 .02.02.01s.04 0 .06.03l.01.01.35.24v-.01a.48.48 0 0 0-.16-.14 3.1 3.1 0 0 0-.64-.4 3.4 3.4 0 0 0-.62-.28c.02-.01.05-.02.08 0l.45.16.01-.02V9.8A2.6 2.6 0 0 0 5 9.62c-.01 0-.02 0-.01-.01V9.6H5c.13.02.23.04.3.08.08.03.14.06.19.06a.6.6 0 0 1 .14.07v.04c0 .01-.01.02-.02.01l-.05-.03-.03.01v.03l.01.01c.03 0 .05 0 .07.02l.03.02.07.02a76 76 0 0 0 .28.15s0-.02-.02-.03a8.78 8.78 0 0 1-.32-.2c0-.02.02-.03.04-.03l.03.01c0 .02.03.03.05.03.01 0 .02 0 .03.02l.08.05.03.01.2.14v.03s-.01.02-.03.02c-.01 0-.02 0-.02-.02v-.02h-.04v.03l.1.06.01.02.02.02.03.01.23.15-.2-.18a6.47 6.47 0 0 1-.08-.07l.02-.02h.02l.25.2Z" fill="#CAB536"/><path d="M4.99 9.73c.02 0 .03 0 .04.02l.02.01h.03l.39.18v.02h-.01l-.4-.16-.02-.02v-.01c0-.01-.01-.02-.02-.01l-.06-.01-.02-.02-.07-.01V9.7a.1.1 0 0 1 .09.02h.03ZM4.33 9.86v-.02l.1-.03a.22.22 0 0 1 .08-.04c.06-.02.07 0 .01.03a.68.68 0 0 1-.19.06ZM5.46 10.1v-.04c0-.01 0-.02-.02-.01H5.4a.12.12 0 0 0-.1-.07l-.02-.01c-.02-.02-.05-.04-.09-.04h-.03a.48.48 0 0 0-.15-.09.23.23 0 0 1-.14-.05v-.02h.09a8.27 8.27 0 0 1 .22.12l.14.05c.06.04.13.08.23.11v.04l-.05.02c-.03.01-.03.02 0 .03a.6.6 0 0 1 .17.11l.03.01.1.05a3.11 3.11 0 0 1 .22.15l-.02.01H6a1.6 1.6 0 0 1-.33-.16 8.38 8.38 0 0 0-.41-.24l-.54-.28v-.02h.01l.23.1.04.01.03.01.09.06h.03l.08.04.16.07.02.03.05.03v-.02Z" fill="#CAB536"/><path d="M5.08 10.03v.06c0-.02 0-.04-.02-.04l-.01.18c-.01.02 0 .04.03.04l.17.01-.01-.02h.02l.05.03a6.43 6.43 0 0 1 .54.16h-.02l-.02.01a1.68 1.68 0 0 0-.47-.05c-.08 0-.2-.02-.36-.06a5.25 5.25 0 0 0-.17-.04c-.05-.01-.08-.06-.1-.15 0-.06-.04-.1-.11-.13a.53.53 0 0 0-.2-.03.82.82 0 0 1-.24-.04l-.02-.01.01-.02a.8.8 0 0 0 .25-.04.62.62 0 0 1 .16-.05c.05 0 .1.02.16.05a.5.5 0 0 0 .12.04c.08.02.17.05.24.1Z" fill="#00CE02"/><path d="M4.61 9.98c.05.01.08.02.09.01l-.08-.04-.08-.01.07.04Z"/><path d="m6.32 10.64.08.03c-.03 0-.05.01-.05.02v.06l.05.04.14.03h.22l.04.1v.06a.06.06 0 0 1-.05.03h-.32c-.1-.01-.2-.03-.3-.07-.2-.1-.4-.2-.6-.34a.5.5 0 0 0-.16-.06c-.08-.02-.14-.05-.16-.08-.01 0-.01-.01 0 0h.4l.11.03c.17.09.33.19.48.3a.6.6 0 0 1 .13.13l.03.05h.02v-.03a1.4 1.4 0 0 0-.56-.45v-.01l.17.04h.03v-.02h.01c.1.06.19.1.29.14Z" fill="#00CE02"/><path d="M6.7 10.48c0 .04.02.06.03.06.01 0 .02-.03 0-.07 0-.04-.02-.07-.03-.07v.08Z" fill="#C8C8C8"/><path fill-rule="evenodd" d="M13.23 11.1c1.08-.55 1.74-1.3 1.74-2.1s-.66-1.55-1.74-2.1A9.7 9.7 0 0 0 9 6.04a9.7 9.7 0 0 0-4.23.88C3.7 7.45 3.03 8.19 3.03 9c0 .8.66 1.55 1.74 2.1a9.7 9.7 0 0 0 4.23.87 9.7 9.7 0 0 0 4.23-.88ZM9 12c3.31 0 6-1.34 6-3s-2.69-3-6-3-6 1.34-6 3 2.69 3 6 3Z"/><path opacity=".3" d="M7 9h6.05v2H7zM7 8h2v1H7z"/></svg>