<!-- by TradingView --><svg width="18" height="18" viewBox="0 0 18 18" xmlns="http://www.w3.org/2000/svg"><path fill="#F0F3FA" d="M0 0h18v18H0z"/><path d="M8.99 6.47c-.36-.01-.88.16-.99.52V10.73h.86V9.31h.3v1.42H10V7.02c-.11-.38-.62-.57-1.01-.55Zm.18 1.04v1.2h-.33V7.18A.16.16 0 0 1 9 7.1c.07 0 .15.02.18.08v.33Z" fill="#1F4064"/><path fill-rule="evenodd" d="M3 10.18c.17.35.77 1.04 1.8 1.07 1.26.03 1.83.06 1.92.27.07.18-.88.54-1.36.7.35.17 1.2.39 1.87-.1h.62l-.36.35c-.52.49-1.17 1.1-1.51 1.21.6.18 1.8.23 2.75-1.23l.66-.1c-.15.24-.41.79-.34 1.12l.92-.93c.02.13.04.51-.11 1-.18.63.17 1.18.78 1.46-.05-.23-.1-.85.17-1.53.14-.17.42-.69.39-1.4.07.01.23.11.31.38.08-.15.23-.58.18-1.06.14.02.46.17.6.67.14.5.5.69.76.78-.12-.2-.2-.66-.2-1.32-.02-.65-.2-1.17-.29-1.34.12 0 .4.02.57.17a16.3 16.3 0 0 0-.29-.68c-.02-.06.02-.04.12 0 .13.04.34.13.58.1.41-.03 1.15.02 1.46.41.02-.26-.4-1.05-2.25-2.17.02-.1.2-.3.7-.3-.1-.15-.43-.48-.89-.6.12-.02.44-.1.76-.25.13-.07.2-.13.27-.19.16-.13.27-.22.8-.18l-.55-.5a9.67 9.67 0 0 0-1.94 0c.01-.08.12-.28.44-.43-.16-.1-.61-.21-1.05.16-.1-.05-.16-.23.3-.57.46-.33.58-.73.58-.89-.05.12-.28.36-.88.38-.6.01-.97.52-1.07.78-.18-.19-.38-.7.26-1.27-.4-.07-1.35.02-1.88 1-.15-.1-.36-.48-.08-1.12.28-.63.17-.95.08-1.03 0 .09-.17.44-.9 1.15-.75.72-.72 1.42-.62 1.68l-.36.39c.09-.57.08-1.77-.67-2.07.12.28.25 1-.17 1.68-.41.68-.26 1.08-.13 1.19-.26-.17-.77-.67-.68-1.3-.36.44-.8 1.7.3 3.22-.24-.04-.88-.1-1.54 0l.04.05c.08.12.29.44.92.6.65.15.7.36.66.44-.21 0-.74.07-1.13.32-.4.24-1.04-.01-1.32-.17Zm6 1.73a3.16 3.16 0 0 0 3.15-3.18A3.16 3.16 0 0 0 9 5.55a3.16 3.16 0 0 0-3.15 3.18A3.16 3.16 0 0 0 9 11.91Z" fill="#FF820A" fill-opacity=".7"/></svg>