<!-- by TradingView --><svg width="18" height="18" viewBox="0 0 18 18" xmlns="http://www.w3.org/2000/svg"><path fill="#F0F3FA" d="M0 0h18v18H0z"/><path d="M10.23 7.22c-.29.11-.43.28-.42.5 0 .22.14.39.42.5l2.61 1.03c.34.13.6.31.8.54.24.25.36.55.36.87v2.64c0 .06-.03.1-.09.1a.66.66 0 0 1-.31-.06A5.64 5.64 0 0 1 9.8 11.7a2.24 2.24 0 0 1-.8-1.78V7.56c0-.76.03-1.26.11-1.5.21-.64.66-1.1 1.34-1.4a40.83 40.83 0 0 1 1.7-.66c.12 0 .18.08.18.21l-.02 1.17c-.02.63-.33 1.09-.94 1.36l-1.15.48Z" fill="#0162AD"/><path d="M7.25 10.28a.73.73 0 0 0-.33-.23c-.66-.26-1.3-.52-1.92-.79a1.94 1.94 0 0 1-.7-.46C4.1 8.58 4 8.32 4 8L4 5.92c0-.05.02-.09.07-.1.05-.03.14-.02.25.03l.04.01 2.26.92c.62.26 1.04.64 1.23 1.15.09.22.14.62.14 1.19L8 10.68c0 .84-.03 1.36-.09 1.57-.15.55-.53.96-1.14 1.23-.37.16-.78.33-1.25.5a.13.13 0 0 1-.13 0 .14.14 0 0 1-.06-.12l-.01-1.44c0-.56.26-.96.77-1.18l.85-.36a.6.6 0 0 0 .3-.24c.09-.13.09-.25 0-.36Z" fill="#B4B8B9"/></svg>