<!-- by TradingView --><svg width="18" height="18" viewBox="0 0 18 18" xmlns="http://www.w3.org/2000/svg"><path fill="#F0F3FA" d="M0 0h18v18H0z"/><path fill-rule="evenodd" d="M9 14.65a5.65 5.65 0 1 0 0-11.3 5.65 5.65 0 0 0 0 11.3ZM9 15A6 6 0 1 0 9 3a6 6 0 0 0 0 12Z" fill="#A4A6A9"/><path d="M9 13.94a4.94 4.94 0 0 0 4.86-5.81l-6.12 5.65c.4.1.82.16 1.26.16Zm-2.34-.59L11.29 9H4.06a4.94 4.94 0 0 0 2.6 4.35ZM4.16 8h9.68a4.9 4.9 0 0 0-.32-1H4.48a4.9 4.9 0 0 0-.32 1Zm.91-2a4.93 4.93 0 0 1 7.86 0H5.07Z" fill="url(#a)"/><path d="M4.54 7h-.06a4.9 4.9 0 0 0-.32 1h.25c.01-.34.05-.68.13-1Zm-.05 2h-.43a4.94 4.94 0 0 0 2.6 4.35l.69-.65A5.15 5.15 0 0 1 4.49 9Zm8.06 3.43a5.4 5.4 0 0 1-4.07.67l-.74.68a4.95 4.95 0 0 0 4.81-1.35Z" fill="#F58F24"/><defs><linearGradient id="a" x1="11.82" y1="5.29" x2="6.71" y2="12.35" gradientUnits="userSpaceOnUse"><stop stop-color="#F7B225"/><stop offset=".43" stop-color="#F99F33"/><stop offset="1" stop-color="#FED4A9"/></linearGradient></defs></svg>