<!-- by TradingView --><svg width="18" height="18" viewBox="0 0 18 18" xmlns="http://www.w3.org/2000/svg"><path fill="#F0F3FA" d="M0 0h18v18H0z"/><path d="M8.15 6c-.01 0-.02 0-.03-.02l.01-.02c.13-.1.19-.2.17-.35a1.6 1.6 0 0 1 .01-.58c.06-.2.22-.33.47-.42.25-.08.55-.12.88-.12l1.67-.01c.6-.01 1.1-.17 1.5-.46A.11.11 0 0 1 12.9 4a.1.1 0 0 1 .07.03c.23.27.28.57.14.92a1.7 1.7 0 0 1-.69.79.89.89 0 0 1-.64.12c-.15-.02-.37-.1-.66-.22a3.47 3.47 0 0 0-.63-.2.86.86 0 0 0-.6.08c-.1.06-.14.13-.13.22 0 .08.05.15.15.22v.03L9.9 6H8.15ZM12.7 11.95c.04 0 .05-.02.05-.05V7.46c0-.04-.02-.06-.05-.06h-2.56c-.05 0-.07-.02-.07-.06v-1.3c0-.03.01-.04.04-.04h3.84c.03 0 .05.02.05.05v6.9c0 .03-.02.05-.05.05a2386.52 2386.52 0 0 1-9.9 0c-.03 0-.05-.02-.05-.05v-6.9c0-.03.02-.05.05-.05h3.84c.02 0 .04.01.04.03v1.3c0 .05-.03.07-.07.07H5.3c-.03 0-.05.02-.05.06v4.44c0 .03.02.05.05.05 0 0 4.94.03 7.4 0Z" fill="#FE6400"/><path d="M7.21 8.33h1.4c.02 0 .03.02.03.04v.9c0 .03-.01.05-.05.05H7.52c-.04 0-.06.02-.06.06a22.31 22.31 0 0 0 0 .9c0 .05.02.07.06.07H8.6c.04 0 .05.01.05.05v.9c0 .02 0 .03-.03.03a226.2 226.2 0 0 1-2.8 0c-.01 0-.02-.01-.02-.03v-.9c0-.04.01-.05.05-.05H6.9c.04 0 .07-.02.07-.06a22.46 22.46 0 0 0 0-.91c0-.04-.03-.06-.07-.06H5.84c-.04 0-.05-.02-.05-.05v-.9c0-.02 0-.03.03-.03h1.4ZM11.03 9.83v.46c0 .04.03.06.07.06h1.06c.04 0 .05.01.05.05v.9c0 .02 0 .03-.03.03a150.8 150.8 0 0 1-2.82-.03v-.9c0-.04.01-.05.05-.05h1.07c.04 0 .06-.02.06-.06a22.63 22.63 0 0 0 0-.91c0-.04-.03-.06-.06-.06H9.4c-.04 0-.05-.02-.05-.05v-.9c0-.02 0-.03.03-.03a224.93 224.93 0 0 1 2.8 0c.01 0 .02 0 .02.03v.9c0 .03-.01.05-.05.05H11.1c-.04 0-.07.02-.07.06v.45Z" fill="#FE6400"/></svg>