<!-- by TradingView --><svg width="18" height="18" viewBox="0 0 18 18" fill="none" xmlns="http://www.w3.org/2000/svg">
<rect width="18" height="18" fill="#F0F3FA"/>
<path d="M5 5.99998C5.55228 5.99998 6 5.55227 6 4.99999C6 4.44771 5.55228 4 5 4C4.44772 4 4 4.44771 4 4.99999C4 5.55227 4.44772 5.99998 5 5.99998Z" fill="#02309B"/>
<path d="M9 5.99998C9.55228 5.99998 10 5.55227 10 4.99999C10 4.44771 9.55228 4 9 4C8.44772 4 8 4.44771 8 4.99999C8 5.55227 8.44772 5.99998 9 5.99998Z" fill="#02309B"/>
<path d="M13 5.99998C13.5523 5.99998 14 5.55227 14 4.99999C14 4.44771 13.5523 4 13 4C12.4477 4 12 4.44771 12 4.99999C12 5.55227 12.4477 5.99998 13 5.99998Z" fill="#02309B"/>
<path d="M5 9.99992C5.55228 9.99992 6 9.55221 6 8.99993C6 8.44765 5.55228 7.99994 5 7.99994C4.44772 7.99994 4 8.44765 4 8.99993C4 9.55221 4.44772 9.99992 5 9.99992Z" fill="#02309B"/>
<path d="M5 14C5.55228 14 6 13.5523 6 13C6 12.4477 5.55228 12 5 12C4.44772 12 4 12.4477 4 13C4 13.5523 4.44772 14 5 14Z" fill="#02309B"/>
<path d="M9 9.99998C9.55228 9.99998 10 9.55227 10 8.99999C10 8.44771 9.55228 8 9 8C8.44772 8 8 8.44771 8 8.99999C8 9.55227 8.44772 9.99998 9 9.99998Z" fill="#02309B"/>
<path d="M9 14C9.55228 14 10 13.5523 10 13C10 12.4477 9.55228 12 9 12C8.44772 12 8 12.4477 8 13C8 13.5523 8.44772 14 9 14Z" fill="#02309B"/>
<path d="M13 9.99998C13.5523 9.99998 14 9.55227 14 8.99999C14 8.44771 13.5523 8 13 8C12.4477 8 12 8.44771 12 8.99999C12 9.55227 12.4477 9.99998 13 9.99998Z" fill="#02309B"/>
<path d="M13 14C13.5523 14 14 13.5523 14 13C14 12.4477 13.5523 12 13 12C12.4477 12 12 12.4477 12 13C12 13.5523 12.4477 14 13 14Z" fill="#02309B"/>
</svg>
