<!-- by TradingView --><svg width="18" height="18" viewBox="0 0 18 18" xmlns="http://www.w3.org/2000/svg"><path fill="#B0283C" d="M0 0h18v18H0z"/><path d="M8.51 6.89c-.4-.4-.87-.68-1.4-.83-.04-.01-.04-.02 0-.03a4 4 0 0 1 2.71.6c.07.04.15.07.24.08l.82.1c.9.1 1.66.35 2.29.74.8.5 1.19 1.15 1.17 1.95v.26c0 .02 0 .04.02.06.23.23.44.48.62.74.03.04.02.05-.02.03a.44.44 0 0 1-.08-.05A12.25 12.25 0 0 0 8.55 9.4c-1.99.19-4.81 1.54-5.5 3.53-.04.1-.06.1-.05-.01a6.94 6.94 0 0 1 5.5-6c.03 0 .03-.01.01-.03Z" fill="#fff"/></svg>