<!-- by TradingView --><svg width="18" height="18" viewBox="0 0 18 18" xmlns="http://www.w3.org/2000/svg"><path fill="#00804C" d="M0 0h18v18H0z"/><path d="M11.23 3.03c.18.2-.82 1.34-1 1.55a7.4 7.4 0 0 1-1.61 1.48c-.9.57-1.16.42-2.14 1.07-.45.25-.84.58-1.15.99a2.93 2.93 0 0 0-.46 2.34c.3 1.16 1.4 1.71 1.93 1.98.92.47 1.3.28 2.23.74.7.34 1.34.86 1.81 1.47v-4.13a.8.8 0 0 0-.46.05c-.08.04-.15.1-.22.15-.16.14-.34.26-.54.35-.11.04-.23.07-.35.09-.52.18-.66.78-.82.74-.15-.04-.11-.41-.11-.44.03-.72.3-1.42.74-2 .45-.59 1.02-1.1 1.66-1.48.24-.13.49-.23.75-.3h.04c.08 0 .14-.02.18-.03l.12-.04.11-.08c.11-.07.1-.3.1-.35a1.47 1.47 0 0 0-.57-.86c-.3-.28-.38-.25-.47-.43a.86.86 0 0 1 .04-.8.7.7 0 0 1 .36-.32.66.66 0 0 1 .58.05.67.67 0 0 1 .3.52l1.22 1.3-1.6-.78c-.02.04-.02.08 0 .12.01.08.07.15.14.2l.46.32a1.07 1.07 0 0 1 .36.76 1.5 1.5 0 0 1-.9 1.34c-.2.1-.2.05-.52.17-.67.27-1.24.74-1.17.92a.3.3 0 0 0 .3.14c.3-.08.6-.2.88-.35a.55.55 0 0 1 .42-.12c.07.02.13.06.18.11a.46.46 0 0 1-.03.5c-.1.15-.2.13-.36.3-.08.1-.14.2-.18.33-.04.1-.1.56-.1 1.22V15h-.59a4.22 4.22 0 0 0-1.92-1.58 6.3 6.3 0 0 0-1.41-.38l-.63-.1a3.68 3.68 0 0 1-2.44-1.55c-.89-1.45 0-3.2.1-3.43.6-1.17 1.65-1.82 2.52-2.34.87-.53.92-.35 1.51-.8.76-.6 1.14-1.25 2.17-1.7.43-.17.51-.12.54-.1Z" fill="#EFF4E0"/></svg>