<!-- by TradingView --><svg width="18" height="18" viewBox="0 0 18 18" xmlns="http://www.w3.org/2000/svg"><path fill="#7A8D6C" d="M0 0h18v18H0z"/><path d="m5.05 4 1.4 7h1c.3 0 .59-.17.59-.48 0-.3-.28-.47-.55-.47h-.1v-1.1c.15 0 .28-.02.41-.06.03 0 .07-.02.1-.04a.25.25 0 0 0 .06-.08.19.19 0 0 0 0-.1.18.18 0 0 0-.05-.1.48.48 0 0 0-.33-.12h-.94l.33-1.37c.02-.08.48-.06.68-.05h.07c.26 0 .52.06.76.15.23.09.44.25.59.47.15.21.23.47.24.73 0 .18-.05.34-.13.5a1.1 1.1 0 0 1-.31.37c-.02 0-.03.02-.05.03-.06.04-.12.07-.08.15.02.05.09.1.15.14.05.03.1.07.12.1.08.1.15.22.19.35a1.95 1.95 0 0 1-.05 1.44 1.25 1.25 0 0 1-.78.68 2.9 2.9 0 0 1-1.17.11l-.56-.06.25-.56L6.15 13l-.6-1h-.87l-.43 1L3 11h.7l1.35-7Zm.06 4.63L4.81 11h.6l-.3-2.37ZM12.82 4l1.41 7H15l-1.09 2-.59-1h-.87l-.43 1-1.25-2h.7l1.35-7Zm.08 4.63L12.59 11h.6l-.3-2.37Zm-1.52-.96c.21.3.35.65.39 1.03.03.31-.03.63-.15.92a1.7 1.7 0 0 1-.58.7c-.12.07-.3.11-.44.13v2H9.35V7h1.2c.33.14.62.37.83.67Zm-.83.64v1.31c.24-.15.34-.53.3-.8a.7.7 0 0 0-.3-.51Z" fill="#7C1618"/></svg>