<!-- by TradingView --><svg width="18" height="18" viewBox="0 0 18 18" xmlns="http://www.w3.org/2000/svg"><path fill="#F0F3FA" d="M0 0h18v18H0z"/><path d="m6.06 14.99 8.93-6v-.03L6.06 3C6.02 3 6 3 6 3.05V5.3c0 .02 0 .03.02.04l.14.02.05.01c1.18.28 2.28.6 3.3 1 .7.26 1.32.6 1.89 1.05.2.16.38.34.52.54.16.23.26.45.3.68.03.22.03.43 0 .65a1.91 1.91 0 0 1-.67 1.12 7.88 7.88 0 0 1-2.03 1.15c-.54.2-1.07.4-1.58.55-.41.13-1.05.28-1.9.47-.03 0-.04.02-.04.04v2.32c0 .05.02.06.06.04ZM7.5 9.34v-.69c0-.01.01-.02.03-.02h4.02c.05 0 .06-.03.05-.07a2.46 2.46 0 0 0-.62-.72 8.12 8.12 0 0 0-2.83-1.32 60.86 60.86 0 0 1-2.13-.58.04.04 0 0 0-.02.04v5.98c0 .02 0 .02.03.02 1.04-.24 1.8-.43 2.28-.58.4-.13.87-.3 1.41-.55a4.78 4.78 0 0 0 1.89-1.42c.03-.03.02-.05-.03-.05H7.53c-.03 0-.03-.02-.03-.04Z" fill="#E30079"/></svg>