<!-- by TradingView --><svg width="18" height="18" viewBox="0 0 18 18" xmlns="http://www.w3.org/2000/svg"><path fill="#F0F3FA" d="M0 0h18v18H0z"/><path d="M8.5 4a4.95 4.95 0 0 1 4.55 4.74c0 .03.02.06.05.07h.09c.05-.05.1-.12.13-.22l.33-.96c.04-.11.08-.1.1 0l.45 1.5.04.01c.01 0 .02 0 .03-.02l.46-1.46c.03-.11.07-.11.1 0l.38 1.07c.03.07.08.11.16.12l1 .11c.17.02.17.04 0 .07-.33.06-.77.1-1.32.15-.05 0-.08-.02-.1-.07l-.09-.31c-.03-.11-.06-.11-.1 0l-.48 1.54c-.03.09-.06.09-.09 0l-.47-1.57c-.02-.08-.05-.08-.07 0l-.12.37c-.01.05-.04.07-.1.07h-.3c-.04 0-.07.02-.07.07a5.1 5.1 0 0 1-1.4 3.21A4.9 4.9 0 0 1 8.54 14h-.8a5 5 0 0 1-4.23-3.29c-.03-.07 0-.12.07-.15l.58-.17c.05-.02.1 0 .11.06.17.61.45 1.15.83 1.6.33.4.7.69 1.12.88a2.61 2.61 0 0 0 2.47-.13c.4-.23.75-.56 1.05-.98.38-.54.63-1.15.76-1.82 0-.04-.01-.07-.05-.07a9.05 9.05 0 0 0-5.33 1.48c-.04.02-.07.02-.1-.02-.2-.35-.34-.7-.44-1.08-.01-.05 0-.08.06-.1.98-.28 2.05-.47 3.22-.57.94-.08 2.05-.11 3.32-.09.08 0 .12.05.1.13l-.12.68c-.02.07 0 .08.05.03l1.11-1.12c.01-.02.02-.03.01-.05a26.54 26.54 0 0 0-7.83.4c-.06.02-.08 0-.08-.06V8.44c0-.06.03-.08.08-.07 1.52.27 3.04.42 4.54.42l3.23.01c.08 0 .1-.02.04-.08l-1.1-1.1c-.05-.06-.07-.05-.05.03l.13.71c.01.06-.01.09-.07.09-1.29.02-2.4-.01-3.33-.1-1.17-.1-2.25-.29-3.25-.57-.08-.02-.1-.06-.07-.13L5 6.6c.03-.05.06-.06.11-.03a9.03 9.03 0 0 0 5.35 1.49c.03 0 .05-.02.04-.05a4.5 4.5 0 0 0-.89-2.01 2.82 2.82 0 0 0-2.15-1.19c-.86-.04-1.6.29-2.24.99a4.2 4.2 0 0 0-.96 1.77c-.01.07-.05.09-.11.06l-.58-.25c-.05-.02-.06-.05-.04-.1A4.93 4.93 0 0 1 7.73 4h.78Z" fill="#1F5DA2"/></svg>