<!-- by TradingView --><svg width="18" height="18" viewBox="0 0 18 18" xmlns="http://www.w3.org/2000/svg"><path fill="#F0F3FA" d="M0 0h18v18H0z"/><path d="M6.9 4.54c-1.38 1.84-3 3.98-2.9 5.99C4.17 13.27 6.18 15 9.09 15c2.82 0 4.77-1.79 4.92-4.47.1-2-1.47-4.15-2.82-5.99-.7-.95-1.33-1.82-1.64-2.54.47 1.78 1.2 3.09 1.84 4.24.76 1.36 1.39 2.49 1.3 3.89-.14 2.5-2.37 3.36-3.6 3.36-1.24 0-3.57-.87-3.72-3.36-.08-1.4.56-2.53 1.34-3.9C7.36 5.1 8.11 3.79 8.6 2c-.32.72-.98 1.59-1.7 2.54Z" fill="url(#ay44usxkd)"/><path d="M12.3 10a3.22 3.22 0 0 1-3.27 3.17A3.22 3.22 0 0 1 5.77 10c0-2.06 3.26-6.69 3.26-6.69s3.26 4.46 3.26 6.7Z" fill="url(#by44usxkd)"/><path d="M11.04 11.74c.94-.9.8-2.52.57-3.2 0 2.94-2.02 3.88-3.03 3.99.41.13 1.64 0 2.46-.79Z" fill="#B1E6F6"/><path d="M9.04 3.5c-2.22 4.9-2.18 7.21-2.1 7.94a2.19 2.19 0 0 1-.7-1.64c0-1.37 1.9-4.87 2.8-6.3Z" fill="url(#cy44usxkd)"/><defs><linearGradient id="ay44usxkd" x1="9" y1="2" x2="9" y2="15" gradientUnits="userSpaceOnUse"><stop stop-color="#F19C29"/><stop offset=".54" stop-color="#F79700"/><stop offset="1" stop-color="#FEDE74"/></linearGradient><linearGradient id="by44usxkd" x1="9.03" y1="3.3" x2="9.03" y2="13.17" gradientUnits="userSpaceOnUse"><stop stop-color="#A8CFEC"/><stop offset=".54" stop-color="#048BCD"/><stop offset="1" stop-color="#0085C9"/></linearGradient><linearGradient id="cy44usxkd" x1="7.64" y1="3.5" x2="7.64" y2="11.44" gradientUnits="userSpaceOnUse"><stop stop-color="#DAECF6"/><stop offset="1" stop-color="#BFE4F7"/></linearGradient></defs></svg>