<!-- by TradingView --><svg width="18" height="18" viewBox="0 0 18 18" xmlns="http://www.w3.org/2000/svg"><path fill="url(#aog5xgzgd)" d="M0 0h18v18H0z"/><path fill-rule="evenodd" d="M9.17 5.93c.48.2 1.09-.05 1.36-.56.28-.51.11-1.1-.36-1.3-.48-.2-1.1.05-1.37.56-.28.51-.11 1.1.37 1.3Zm-1.63.35c-.6-.18-.9-.5-.99-.63.25 1.6 1.81 2.05 2.57 2.07-.75.34-1.07 1.32-1.13 1.77-.37.34-1.1 1.18-1.1 1.84 0 .66.18 1.25.27 1.47L6 14h4.21l-1.1-1.1c.34-.52 1-1.79 1-2.68a6.1 6.1 0 0 0-.31-1.94c.2-.16.73-.55 1.19-.85.39-.26.93-1 1.3-1.52.18-.23.32-.42.39-.49L14 4h-.9c-.1.25-.34.85-.6 1.27-.3.48-.76.8-1.17 1.08l-.14.1c-.36.24-1.36.8-1.82 1.06-.7-.9-1.03-1-1.64-1.18l-.2-.05ZM9.62 8.6 7.96 9.75a4.3 4.3 0 0 0 .15 1.89c.15-.2.58-.76 1.03-1.3.45-.55.5-1.38.48-1.73Z" fill="#fff"/><defs><linearGradient id="aog5xgzgd" x1="18" y1="8.08" x2="0" y2="9" gradientUnits="userSpaceOnUse"><stop stop-color="#19A69C"/><stop offset=".77" stop-color="#286BB2"/></linearGradient></defs></svg>