<!-- by TradingView --><svg width="18" height="18" viewBox="0 0 18 18" xmlns="http://www.w3.org/2000/svg"><path fill="#F0F3FA" d="M0 0h18v18H0z"/><path d="m11.56 5.2.32.36.41.09-.2.16.32.39-.47-.28-.25.17-.06-.36-.48-.3.45.08-.04-.31ZM12.91 6.8l.36.43.37.02-.13.27.36.47-.46-.28-.17.29-.14-.49-.48-.3h.4l-.1-.41ZM13.01 8.8l.55.68.52-.09-.15.56.57.76-.7-.36-.21.65-.25-.9-.72-.4.58-.14L13 8.8ZM6.42 4l.24.43.73.16-.57.14.23.47-.66-.38-.72.16.29-.41-.66-.4.85.16.27-.33ZM11.33 10.8l.54.86.7-.26-.33.86.59.98-.85-.35-.47 1.11-.1-1.36-.88-.42.84-.36-.04-1.06ZM4.94 6.2l.28.69 1.13.06-.96.42.26.78-.99-.48-1.3.53.65-.86L3 6.81l1.4.04.54-.65ZM6.93 9.8l.4.97 1.1-.23-.83.92.4 1.14-1.07-.45L5.7 13.4l.5-1.57-1.1-.54 1.4-.34.43-1.15ZM9.52 4l.27.36.53.14-.34.11.27.39-.52-.31-.42.11.07-.33-.53-.33.58.14.09-.28Z" fill="#005496"/></svg>