<!-- by TradingView --><svg width="18" height="18" viewBox="0 0 18 18" xmlns="http://www.w3.org/2000/svg"><path fill="#F0F3FA" d="M0 0h18v18H0z"/><path d="m9.9 6.46-.05.08c-.3-.05-.63-.07-.95-.07-2.65 0-4.8 1.54-4.8 3.42 0 1.38 1.14 2.58 2.8 3.12l-.45.99C4.44 13.4 3 11.98 3 10.32c0-2.2 2.5-3.99 5.55-3.99.46 0 .91.05 1.34.13Z" fill="#A61B78"/><path d="m9.85 6.54-.04.11a5.06 5.06 0 0 0-.83-.07c-2.12 0-3.84 1.3-3.84 2.88 0 1.16.95 2.15 2.2 2.61l-.43.95c-1.68-.54-2.82-1.74-2.82-3.13 0-1.88 2.16-3.42 4.8-3.42.33 0 .65.02.96.07Z" fill="#2A4E98"/><path d="m9.8 6.65-.04.1c-.27-.06-.56-.1-.86-.08-1.54.05-2.76 1.13-2.71 2.4.02.9.68 1.65 1.6 2l-.45 1.01c-1.31-.46-2.22-1.45-2.22-2.61 0-1.6 1.74-2.89 3.86-2.89.28 0 .56.03.83.07Z" fill="#67C1F6"/><path d="m8.1 11.55.05-.1c.31.04.62.07.95.07 2.65 0 4.8-1.52 4.8-3.41 0-1.38-1.15-2.57-2.8-3.11l.45-1C13.56 4.6 15 6.02 15 7.7c0 2.18-2.5 3.97-5.55 3.97-.46 0-.91-.04-1.34-.12Z" fill="#A61B78"/><path d="m8.2 11.36.04-.1c.27.06.56.09.86.08 1.54-.05 2.77-1.13 2.72-2.4-.03-.9-.7-1.65-1.62-2l.47-1.02c1.3.46 2.22 1.45 2.22 2.6 0 1.6-1.75 2.9-3.87 2.9-.28 0-.56-.02-.83-.06Z" fill="#67C1F6"/><path d="m8.15 11.46.04-.1c.28.04.55.07.83.07 2.12 0 3.86-1.3 3.86-2.9 0-1.15-.9-2.15-2.21-2.61l.43-.93c1.66.54 2.8 1.74 2.8 3.12 0 1.89-2.15 3.42-4.8 3.42-.32 0-.64-.02-.95-.07Z" fill="#2A4E98"/><circle cx="9" cy="9" r="1.68" fill="#737373"/></svg>