<!-- by TradingView --><svg width="18" height="18" viewBox="0 0 18 18" xmlns="http://www.w3.org/2000/svg"><path fill="#F0F3FA" d="M0 0h18v18H0z"/><path d="M3.5 6S3 7.34 3 9s.5 3 .5 3V6Z" fill="#009572"/><path d="M3.5 6S4 7.34 4 9s-.5 3-.5 3V6Z" fill="#016E53"/><path d="M5.02 6s-.16 1.57.52 3.23C6.22 10.88 7.48 12 7.48 12L5.02 6Z" fill="#009572"/><path d="M5.02 6s1.26 1.12 1.94 2.77c.68 1.66.52 3.23.52 3.23L5.02 6ZM9.98 6s.16 1.57-.52 3.23C8.78 10.88 7.5 12 7.5 12l2.47-6Z" fill="#016E53"/><path d="M9.98 6S8.72 7.12 8.04 8.77C7.36 10.43 7.51 12 7.51 12l2.47-6ZM10.02 12s-.17-1.57.54-3.23C11.27 7.12 12.58 6 12.58 6l-2.56 6Z" fill="#009572"/><path d="M10.02 12s1.3-1.12 2.02-2.77c.7-1.66.54-3.23.54-3.23l-2.56 6ZM14.99 12s.14-1.57-.51-3.23C13.83 7.12 12.61 6 12.61 6L15 12Z" fill="#016E53"/><path d="M14.99 12s-1.22-1.12-1.87-2.77c-.65-1.66-.5-3.23-.5-3.23l2.37 6Z" fill="#009572"/></svg>