<!-- by TradingView --><svg width="18" height="18" viewBox="0 0 18 18" xmlns="http://www.w3.org/2000/svg"><path fill="#0060A9" d="M0 0h18v18H0z"/><path d="M4.35 8.77c.6.03 1.2-.46 1.8-.46.71 0 1.07.36 1.44.71-.74-.35-1.44.37-2.17.37-.4 0-.77-.13-1.07-.38a4.65 4.65 0 0 0 1.86 3.73c.55.41 1.11.7 1.79.83v-.63a1.9 1.9 0 0 1-1.25-1.76c0-.78.59-1.5 1.33-1.76v-.84a1.95 1.95 0 0 1-1.33-1.75c0-.79.51-1.5 1.25-1.76v-.63a4.1 4.1 0 0 0-1.79.84 4.65 4.65 0 0 0-1.86 3.49ZM11.86 9.5c-.72 0-1.08-.37-1.44-.72.73.35 1.44-.36 2.16-.36.4 0 .77.13 1.07.37A4.63 4.63 0 0 0 10 4.44v.63c.74.26 1.25.97 1.25 1.76 0 .78-.57 1.5-1.31 1.75v.84c.74.26 1.31.98 1.31 1.76 0 .79-.5 1.5-1.25 1.76v.63a4.65 4.65 0 0 0 3.67-4.53c-.62-.03-1.21.46-1.81.46Z" fill="#fff"/><path d="M9.01 3a6 6 0 1 0-.02 12 6 6 0 0 0 .02-12Zm-.38 2.07c0 .24-.08.46-.29.57-.52.14-.84.64-.84 1.19 0 .51.28.99.77 1.17.24.09.35.33.36.6v.82c0 .26-.12.5-.36.58-.5.18-.77.67-.77 1.19 0 .54.32 1.04.84 1.18.22.1.29.34.29.57v1.35a5.3 5.3 0 0 1 0-10.55v1.33Zm3.17 8.43c-.74.47-1.54.74-2.43.79v-1.35c0-.23.08-.46.29-.57.52-.14.84-.64.84-1.18 0-.52-.27-1-.76-1.19-.25-.08-.37-.32-.37-.58V8.6c0-.27.12-.51.37-.6.48-.18.76-.66.76-1.17 0-.55-.31-1.05-.84-1.19-.21-.1-.28-.33-.29-.57V3.73a5.28 5.28 0 0 1 4.26 2.7c.44.8.62 1.68.62 2.58 0 .9-.18 1.78-.61 2.57a5.28 5.28 0 0 1-1.84 1.92Z" fill="#fff"/></svg>