<!-- by TradingView --><svg width="18" height="18" viewBox="0 0 18 18" xmlns="http://www.w3.org/2000/svg"><path fill="#0B5EA2" d="M0 0h18v18H0z"/><path d="M7.62 6.48A3.96 3.96 0 0 1 9.8 4.13c.19-.08.18-.12-.03-.13-1.51-.04-2.57.73-3.19 2.31a7.92 7.92 0 0 0-.38 4.17c.02.11-.03.17-.15.17-.7 0-1.02-.28-.97-.85.04-.38.23-.83.58-1.36.02-.03.02-.08 0-.12-.04-.07-.08-.08-.14-.02-.2.18-.4.43-.6.74-.23.35-.38.68-.48 1-.24.85.05 1.35.86 1.5 1.47.25 2.9-.3 4.3-1.67.2-.21.35-.45.43-.73.07-.23 0-.4-.21-.52l-.46-.27a.2.2 0 0 1-.12-.19V7.13c0-.14.07-.18.2-.15.9.27 1.66.73 2.26 1.4.7.77.95 1.59.78 2.45-.05.3-.21.48-.47.56a2.8 2.8 0 0 1-.82.04h-.28c-.04 0-.07.01-.08.04-.01.04 0 .07.03.1.63.42 1.2.58 1.75.45.6-.13.9-.62.88-1.45a4.59 4.59 0 0 0-1.09-2.82 6 6 0 0 0-2.46-1.8c-.1-.05-.11-.1-.04-.19.3-.35.66-.54 1.05-.55.42-.01.74.2.94.62.23.48.37.74.42.78.06.06.09.06.09-.01 0-.72-.18-1.31-.52-1.77-.42-.56-.98-.67-1.68-.33A3.61 3.61 0 0 0 8.4 6.62a6.3 6.3 0 0 0-.3 2.83c.01.18-.05.32-.2.4l-.17.1c-.17.1-.28.05-.31-.14a6.29 6.29 0 0 1 .2-3.33Zm4 3.3-.6-.43c-.13-.09-.23-.06-.32.08a6.02 6.02 0 0 1-3.8 2.71c-.84.2-1.74-.03-2.69-.7a.13.13 0 0 0-.1-.03l-.05.01c-.06.03-.08.06-.04.12A2.79 2.79 0 0 0 6.33 13c.86.07 1.78-.13 2.78-.6a6.15 6.15 0 0 0 2.6-2.24c.08-.14.05-.26-.1-.37Z" fill="#FEFEFE"/></svg>