<!-- by TradingView --><svg width="18" height="18" viewBox="0 0 18 18" xmlns="http://www.w3.org/2000/svg"><path fill="#F0F3FA" d="M0 0h18v18H0z"/><path fill-rule="evenodd" d="M3 10.18c.17.35.77 1.04 1.8 1.07 1.26.03 1.83.06 1.92.27.07.18-.88.54-1.36.7.35.17 1.2.39 1.87-.1h.62l-.36.35c-.52.49-1.17 1.1-1.51 1.21.6.18 1.8.23 2.75-1.23l.66-.1c-.15.24-.41.79-.34 1.12l.92-.93c.02.13.04.51-.11 1-.18.63.17 1.18.78 1.46-.05-.23-.1-.85.17-1.53.14-.17.42-.69.39-1.4.07.01.23.11.31.38.08-.15.23-.58.18-1.06.14.02.46.17.6.67.14.5.5.69.76.78-.12-.2-.2-.66-.2-1.32-.02-.65-.2-1.17-.29-1.34.12 0 .4.02.57.17-.08-.18-.23-.58-.29-.68-.02-.06.02-.04.12 0 .13.04.34.13.58.1.41-.03 1.15.02 1.46.41.02-.26-.4-1.05-2.25-2.17.02-.1.2-.3.7-.3-.1-.15-.43-.48-.89-.6.12-.02.44-.1.76-.25.13-.07.2-.13.27-.19.16-.13.27-.22.8-.18l-.55-.5a9.67 9.67 0 0 0-1.94 0c.01-.08.12-.28.44-.43-.16-.1-.61-.21-1.05.16-.1-.05-.16-.23.3-.57.46-.33.58-.73.58-.89-.05.12-.28.36-.88.38-.6.01-.97.52-1.07.78-.18-.19-.38-.7.26-1.27-.4-.07-1.35.02-1.88 1-.15-.1-.36-.48-.08-1.12.28-.63.17-.95.08-1.03 0 .09-.17.44-.9 1.15-.75.72-.72 1.42-.62 1.68l-.36.39c.09-.57.08-1.77-.67-2.07.12.28.25 1-.17 1.68-.41.68-.26 1.08-.13 1.19-.26-.17-.77-.67-.68-1.3-.36.44-.8 1.7.3 3.22-.24-.04-.88-.1-1.54 0l.04.05c.08.12.29.44.92.6.65.15.7.36.66.44-.21 0-.74.07-1.13.32-.4.24-1.04-.01-1.32-.17Zm6.08 1.75a3.16 3.16 0 0 0 3.15-3.18 3.16 3.16 0 0 0-3.15-3.18 3.16 3.16 0 0 0-3.15 3.18 3.16 3.16 0 0 0 3.15 3.18Z" fill="#DDAE47"/><path fill-rule="evenodd" d="M12 8.77a2.93 2.93 0 1 1-5.85 0 2.93 2.93 0 0 1 5.85 0Zm-.47 0a2.46 2.46 0 1 1-4.92 0 2.46 2.46 0 0 1 4.92 0Zm-2.46 2.32c1.2 0 2.17-.9 2.3-2.05h-.94v1H8.66v-.35h-.2l-.08-1.45h-.24L8.06 9.7h-.22L7.7 7.64h-.24l-.14 2.05h-.38c.35.82 1.17 1.4 2.12 1.4ZM6.8 8.75v-.2l.51-.19v.4h-.5Zm1.9-.92-.89.37.04.2.2-.05.04-.19.56-.03-.17.43.06 1.06h.24v.35H9.9l-.27-1.21h1.68v-.2l-1.9-.73-.3-1.25H9l-.28 1.25Zm.2-.03.16-.64.16.64H8.9Zm.55.27.13.5h1.12l-1.25-.5Zm-.55-.11-.18.69.35.31.32-.31-.19-.69h-.3Zm.16 1.13-.38.33.38.2.37-.2-.37-.33Z" fill="#1C4F9E"/></svg>