<!-- by TradingView --><svg width="18" height="18" viewBox="0 0 18 18" xmlns="http://www.w3.org/2000/svg"><path fill="#F0F3FA" d="M0 0h18v18H0z"/><path d="M14 5v.36H7.77a4.37 4.37 0 0 1 2.27 3.46H16v.36h-5.95a4.34 4.34 0 0 1-2.31 3.46H14V13H5.88a3.9 3.9 0 0 1-2.44-.92 3.89 3.89 0 0 1-1.43-2.74 3.98 3.98 0 0 1 2.07-3.87c.5-.27 1.03-.45 1.6-.47H14Zm-7.98.36A3.72 3.72 0 0 0 2.36 8.9a3.69 3.69 0 0 0 3.75 3.74A3.63 3.63 0 0 0 6 5.36Z" fill="#2F21AF"/><path d="M3.22 9h.4v.85L4.3 9h.48l-.73.94.77 1.06h-.47l-.73-.95V11h-.4V9Zm4 0h.4v.86L8.3 9h.48l-.73.94.77 1.06h-.47l-.73-.95V11h-.4V9Zm-1.7 1c0-.85.82-.66.8-.3h.43c-.14-.6-.43-.72-.92-.7-.5.04-.75.48-.75 1.05 0 .63.59 1.13 1.2.9.38-.19.52-.66.48-.68h-.44c.03.36-.78.6-.8-.28Z" fill="#2F21AF"/><circle cx="5.8" cy="7.29" r="1.29" fill="#E7AE27"/></svg>