<!-- by TradingView --><svg xmlns="http://www.w3.org/2000/svg" width="18" height="18" viewBox="0 0 18 18"><path fill="#F0F3FA" d="M0 0h18v18H0z"/><path d="M6.1 10.6C5.9 11.64 5.6 12 4.94 12c-.73-.08-.95-.65-.95-1.4C4 9.2 5.72 5 10 5c-2.33.84-3.46 3.1-3.9 5.6Z" fill="#8F8F8F"/><path d="M9.1 10.6C8.9 11.64 8.6 12 7.94 12c-.73-.08-.95-.65-.95-1.4C7 9.2 8.72 5 13 5c-2.33.84-3.46 3.1-3.9 5.6Z" fill="#48BBFA"/><path d="M12.1 10.6c-.19 1.03-.5 1.4-1.15 1.4-.73-.08-.95-.65-.95-1.4C10 9.2 11.72 5 16 5c-2.33.84-3.46 3.1-3.9 5.6Z" fill="#040404"/></svg>