<!-- by TradingView --><svg width="18" height="18" viewBox="0 0 18 18" xmlns="http://www.w3.org/2000/svg"><path fill="#F0F3FA" d="M0 0h18v18H0z"/><path d="M13.83 7.29A9.47 9.47 0 0 0 10 6.09V5c.99 0 2.73.46 4.31 1.33.66.36.75 1.23.31 1.77l-.8.97 1.03 1.07c.2.2.2.54.01.75-1.3 1.5-5.53 3.63-11.64.48l.47-.98c5.17 2.68 8.7 1.24 10.04.12l-.98-1.02a.56.56 0 0 1-.03-.74l1.1-1.36a.1.1 0 0 0 .03-.07V7.3l-.02-.01Z" fill="#EE2E24"/><path d="m3.25 7.18.25.48.03-.02a8.26 8.26 0 0 1 .43-.23l.62-.28A.3.3 0 0 1 5 7.4v3.34l1 .38V6.8a.3.3 0 0 1 .2-.29c.73-.23 1.11-.39 1.8-.42L8.01 5c-1.35.05-2.24.44-3.25.86a17.54 17.54 0 0 0-1.72.82L3 6.7H3l.25.48Z" fill="#EE2E24"/><path d="M8 6.45c-.37 0-.48.03-1 .13v4.87l1 .14V9.97c0-.16.13-.3.3-.3h1.92l1.75 1.49a5.56 5.56 0 0 0 1.03-.53l-1.86-1.58.06-.05c.5-.45.87-1.12.96-2.07-.23-.08-.57-.16-.9-.23L11 6.63c-.03.84-.22 1.3-.52 1.58-.33.3-.74.4-.98.4H8.3a.3.3 0 0 1-.3-.3V6.44Z" fill="#EE2E24"/></svg>