<!-- by TradingView --><svg width="18" height="18" viewBox="0 0 18 18" xmlns="http://www.w3.org/2000/svg"><path fill="#F0F3FA" d="M0 0h18v18H0z"/><path fill-rule="evenodd" d="M3 10.18c.17.35.78 1.04 1.8 1.07 1.26.03 1.83.06 1.92.27.08.18-.88.54-1.36.7.35.17 1.2.39 1.87-.1h.62l-.36.35c-.52.49-1.17 1.1-1.51 1.21.6.18 1.8.23 2.75-1.23l.66-.1c-.15.24-.41.79-.34 1.12l.92-.93c.02.13.04.51-.1 1-.2.63.16 1.18.77 1.46-.05-.23-.1-.85.17-1.53.14-.17.42-.69.39-1.4.07.01.23.11.31.38.08-.15.23-.58.18-1.06.14.02.46.17.6.67.14.5.5.69.76.78-.12-.2-.2-.66-.2-1.32-.02-.65-.2-1.17-.29-1.34.12 0 .4.02.57.17a16.3 16.3 0 0 0-.29-.68c-.02-.06.02-.04.12 0 .13.04.34.13.58.1.41-.03 1.15.02 1.46.41.02-.26-.4-1.05-2.25-2.17.02-.1.2-.3.7-.3-.1-.15-.43-.48-.89-.6.12-.02.44-.1.76-.25.13-.07.2-.13.27-.19.16-.13.27-.22.8-.18l-.55-.5a9.66 9.66 0 0 0-1.94 0c.01-.08.12-.28.44-.43-.16-.1-.6-.21-1.05.16-.1-.05-.16-.23.3-.57.46-.33.58-.73.58-.89-.05.12-.28.36-.88.38-.6.01-.97.52-1.07.78-.18-.19-.38-.7.26-1.27-.4-.07-1.35.02-1.88 1-.14-.1-.36-.48-.08-1.12.28-.63.17-.95.08-1.03 0 .09-.17.44-.9 1.15-.75.72-.72 1.42-.62 1.68l-.36.39c.1-.57.08-1.77-.67-2.07.12.28.25 1-.16 1.68-.42.68-.27 1.08-.14 1.19-.26-.17-.77-.67-.68-1.3-.36.44-.8 1.7.3 3.22-.24-.04-.88-.1-1.54 0l.04.05c.08.12.29.44.92.6.65.15.7.36.66.44-.21 0-.73.07-1.13.32-.4.24-1.04-.01-1.32-.17Zm6.1 1.62c1.71 0 3.1-1.4 3.1-3.12a3.11 3.11 0 0 0-3.1-3.13C7.39 5.55 6 6.95 6 8.68a3.11 3.11 0 0 0 3.1 3.12Z" fill="#A48858" fill-opacity=".7"/><path d="M9.84 8.4H7.77l1.75-2.71a3.1 3.1 0 0 0-3.07 1.62c-.19.38-.27.67-.29 1.09H3.7l-1.3 2.1h4.31c.24.35.68.71 1.15.95L9.84 8.4Z" fill="#A48858"/><path d="M11.68 8.43c-.18-.04-.35-.11-.54-.13-.13-.01-.26 0-.39.03-.05 0-.12.05-.28.1l-.12.05a.5.5 0 0 1-.13.02.55.55 0 0 1-.18-.03l-.07-.03-.28.42c.05.02.07.05.18.09.31.13.62.02.92-.08l.15-.05a.8.8 0 0 1 .28 0c.17.04.33.12.5.15h.3v-.53c-.12.01-.23.02-.34 0Zm0 .82c-.18-.05-.35-.12-.54-.14-.13 0-.26 0-.39.04-.05 0-.12.04-.28.1l-.12.05a.5.5 0 0 1-.13.02.55.55 0 0 1-.18-.03l-.12-.05-.04-.02a1.3 1.3 0 0 0-.3-.07h-.07l-.4.61.12-.04.15-.05c.1-.02.2-.02.28 0 .08.02.08.04.22.1.31.13.62.02.9-.08a.8.8 0 0 1 .44-.05c.18.04.35.12.53.14h.1c.06-.17.12-.34.15-.52-.11 0-.21.02-.32-.01Zm-.18.76a1.33 1.33 0 0 0-.36-.09c-.24-.02-.44.05-.67.14l-.12.04a.48.48 0 0 1-.31 0l-.16-.07a1.3 1.3 0 0 0-.3-.07c-.24-.03-.44.05-.67.13h-.03l-.36.57c.11.02.23.02.33 0 .06 0 .17-.05.39-.13l.15-.05c.1-.03.2-.03.28 0 .09.02.08.04.23.1.3.12.6.01.89-.09l.15-.05a.79.79 0 0 1 .47.06c.1-.13.2-.27.28-.42l-.19-.07Zm-1.14.89c-.15.05-.28 0-.43-.04-.1-.05-.22-.08-.34-.1-.24-.02-.45.06-.67.14a.54.54 0 0 1-.47.03l-.08-.04-.26.4c.2.17.48.24.74.17.05 0 .16-.05.38-.13a.71.71 0 0 1 .44-.05c.13.03.24.11.36.14.44-.14.84-.38 1.16-.71h-.05c-.29-.02-.52.09-.78.19Zm1.5-3.24h-.04a.82.82 0 0 1-.14-.02c-.18-.05-.35-.12-.54-.14-.24-.02-.44.06-.67.14l-.12.05a.5.5 0 0 1-.13.02.55.55 0 0 1-.18-.03l-.12-.05-.04-.02a1.03 1.03 0 0 0-.69-.04c-.05 0-.12.05-.28.1a.75.75 0 0 1-.22.08c-.09 0-.17 0-.24-.04l-.08-.07-.27.46h2.08l-.04.07h.26c.06 0 .17-.05.39-.13l.15-.05a.8.8 0 0 1 .28 0l.28.08a.87.87 0 0 0 .49.07 2.85 2.85 0 0 0-.13-.48ZM9.2 11.51l-.13.04h.11c.2 0 .38-.02.57-.05a1.03 1.03 0 0 0-.55.01Z" fill="#A48858"/><path d="m3.4 10 .63-1h4.38l-.57 1H3.4Z" fill="#EAEAEA"/></svg>