<!-- by TradingView --><svg width="18" height="18" viewBox="0 0 18 18" xmlns="http://www.w3.org/2000/svg"><path fill="#F0F3FA" d="M0 0h18v18H0z"/><path d="M7.5 4H4v9h3V8.5c1.33-.33 4-1.4 4-3C11 4 9 4 7.5 4Z" fill="url(#a)"/><path d="M11 10V7C7 8.5 7 8.5 7 9c0 .4 2.67.83 4 1Z" fill="url(#b)"/><path d="M15 11v2h-5c-1.6 0-2.67-.67-3-1l1-2c2.4.8 5.67 1 7 1Z" fill="url(#c)"/><defs><linearGradient id="a" x1="4" y1="4.5" x2="9" y2="9" gradientUnits="userSpaceOnUse"><stop stop-color="#BFA159" stop-opacity=".1"/><stop offset="1" stop-color="#BFA159"/></linearGradient><linearGradient id="b" x1="11" y1="8.5" x2="7" y2="8.5" gradientUnits="userSpaceOnUse"><stop stop-color="#9C9C9C" stop-opacity=".1"/><stop offset=".64" stop-color="#9C9C9C"/></linearGradient><linearGradient id="c" x1="8" y1="12" x2="14.5" y2="11" gradientUnits="userSpaceOnUse"><stop stop-color="#BFA159" stop-opacity=".1"/><stop offset="1" stop-color="#BFA159"/></linearGradient></defs></svg>