<!-- by TradingView --><svg xmlns="http://www.w3.org/2000/svg" width="18" height="18" viewBox="0 0 18 18"><path fill="#F0F3FA" d="M0 0h18v18H0z"/><path d="M4 8.55V5.87c0-.16.1-.31.24-.39l4.48-2.4a.7.7 0 0 1 .65 0l4.4 2.4c.14.08.23.23.23.4v2.67c0 .25-.2.45-.45.45h-9.1A.45.45 0 0 1 4 8.55zm1.35-2.8c-.36.15-.15.4 0 .5-.15.31.16.36.34.34a144.2 144.2 0 0 0 3.55-1.8c.31-.19.08-.4-.08-.48 0-.37-.29-.33-.44-.27-.97.5-3 1.54-3.37 1.7zm7.75 3.12c.14 0 .19-.13.2-.2.22.06.34-.06.38-.12V5.7c0-.07-.13-.23-.22-.23-.07 0-.11.07-.12.1-.15 0-.4.19-.51.29V8.6c0 .12.09.27.27.27zm.23 2.28V12c0 .05-.02.16-.13.16-.1 0-.15-.1-.17-.16-.15.16-.3.07-.36 0v-.65c0-.14.21-.18.32-.19.1-.13.27-.05.34 0zm-8.28.53c.03-.18.18-.48.52-.29.35.2 2.41 1.25 3.4 1.75.14.08.32.3-.05.5 0 .16-.1.47-.45.32-.34-.14-2.54-1.28-3.6-1.83-.1-.14-.2-.4.18-.45z" fill="#0194A8"/></svg>