<!-- by TradingView --><svg width="18" height="18" viewBox="0 0 18 18" xmlns="http://www.w3.org/2000/svg"><path fill="#D9B138" d="M0 0h18v18H0z"/><path d="M8.39 9.55c.14-.17.6-.6.8-.79.04.12.17.82.23 1.15a6.9 6.9 0 0 1-1.03-.36Z" fill="#fff"/><path d="M4.67 4C4.3 4 4 4.3 4 4.67v8.66c0 .37.3.67.67.67h8.66c.37 0 .67-.3.67-.67V4.67c0-.37-.3-.67-.67-.67H4.67Zm3.43 8.46-2.5-.87c-.1-.05-.22-.11-.22-.44s.14-1.5.27-2c.1-.42.5-.38.68-.31l1.07.36-.8-1.35c-.2-.31-.05-.54.04-.62L8.53 5.5c.07-.1.28-.27.6-.12.38.2 1.37.92 1.7 1.23.26.25.15.47.07.55l-.97.94 1.63.05c.35 0 .47.22.49.33l.47 2.45c.1.48-.1.68-.27.75l-1.62.65c-.56.14-.75-.12-.82-.38L9.6 10.9l-.52.82-.36.57c-.17.26-.47.22-.62.17Z" fill="#fff"/></svg>