<!-- by TradingView --><svg width="18" height="18" viewBox="0 0 18 18" xmlns="http://www.w3.org/2000/svg"><path fill="url(#amkf4yebs)" d="M0 0h18v18H0z"/><path d="M8.8 4a5.3 5.3 0 0 0-3.78 1.58.18.18 0 0 0 0 .16c.02.04.04.07.08.09.05.02.1.02.15 0l.09-.1c.37-.32.82-.55 1.31-.68a6.43 6.43 0 0 1 1.62-.3c.24.64.43 1.59.55 2.25h2.53l-.05 1H8.96c.04.35.08.3.08.7.01.55-.01.75-.08 1.3h2.33l.05 1H8.82c-.12.66-.3 1.55-.55 2.18h-.3c-.36-.03-.71-.1-1.06-.2-.58-.2-1.13-.49-1.62-.85H5.2a.2.2 0 0 0-.1.03.19.19 0 0 0-.07.08.21.21 0 0 0 0 .14 5.28 5.28 0 0 0 7.45.17A4.85 4.85 0 0 0 14 9.05c0-1.3-.54-2.57-1.5-3.5A5.49 5.49 0 0 0 8.8 4Z" fill="#fff"/><defs><linearGradient id="amkf4yebs" x1="0" y1="9" x2="18" y2="9" gradientUnits="userSpaceOnUse"><stop stop-color="#FF8601"/><stop offset=".5" stop-color="#FF9300"/><stop offset="1" stop-color="#FF8601"/></linearGradient></defs></svg>