<!-- by TradingView --><svg width="18" height="18" viewBox="0 0 18 18" xmlns="http://www.w3.org/2000/svg"><path fill="#FC171A" d="M0 0h18v18H0z"/><path fill-rule="evenodd" d="M13.62 10.91a4.95 4.95 0 0 0-1.08-5.45 4.95 4.95 0 0 0-5.45-1.08A4.95 4.95 0 0 0 4 9a4.95 4.95 0 0 0 3.09 4.62 4.95 4.95 0 0 0 5.45-1.08c.46-.47.83-1.01 1.08-1.63Zm-3.3-2.14h.01v2.31c0 .14.03.25.05.31l.01.04a.75.75 0 0 0 .48.52.86.86 0 0 0 .7-.05.8.8 0 0 0 .26-.23c.07-.1.12-.22.15-.35.02-.08.02-.2.02-.36V6.98a1 1 0 0 0-.63-.92.95.95 0 0 0-.38-.06c-.32 0-.59.13-.8.37a183.05 183.05 0 0 0-1.18 1.92l-1-1.61c-.06-.1-.13-.2-.2-.28a1.06 1.06 0 0 0-.4-.32 1.05 1.05 0 0 0-.96.07.96.96 0 0 0-.45.82v4.1c0 .15.01.26.03.32.03.13.08.23.16.32.07.1.17.17.28.21.15.07.3.09.44.08.53-.06.76-.52.76-.97a1087.53 1087.53 0 0 0 .01-2.3l.1.19c.06.14.15.33.32.58l.18.25c.2.24.46.35.75.34a.97.97 0 0 0 .8-.48l.42-.72.06-.12Z" fill="#fff"/></svg>