<!-- by TradingView --><svg width="18" height="18" viewBox="0 0 18 18" xmlns="http://www.w3.org/2000/svg"><path fill="#0070C2" d="M0 0h18v18H0z"/><path d="m14.32 11.8-.16.23c.44-1.8-.36-2.06-.38-3.2v-.29a4.72 4.72 0 0 0-2.93-3.96 4.78 4.78 0 0 0-5.23 1.05A4.78 4.78 0 0 0 11.66 13c1.34-.88 1.64-3.08-.26-3.58l-.1-1.19c.98-.42.68-1.66-.2-1.63L11 5.52c1.8.28 2.32 2.14 1.26 3.22 1.5.69 2.2 3 .64 4.71-.98 1-2.4 1.55-3.9 1.55a5.97 5.97 0 0 1-6-6 6 6 0 1 1 11.32 2.8ZM8.16 8.98l.64 3.78h.54l.64-3.78.26 3.78h.9l-.5-7.28h-.92l-.66 4.31-.64-4.3h-.94L7 12.74h.9l.26-3.78ZM6.92 7.1l.28-1.59a4.35 4.35 0 0 0-.66 7.23l.24-1.5c-1.04-.63-1.38-2.9.14-4.14Z" fill="#fff"/></svg>