<!-- by TradingView --><svg width="18" height="18" viewBox="0 0 18 18" xmlns="http://www.w3.org/2000/svg"><path fill="url(#axey30qjj)" d="M0 0h18v18H0z"/><path d="M9 14c.22 0 .44-.01.65-.04a2.51 2.51 0 0 1-.08-1.8c.15-.49.43-.9.66-1.15a2.94 2.94 0 0 0-1.67-.06c-1.17.24-1.98 0-2.41-.24-.08.31-.15.74-.1 1.14.08.52.39 1.21.82 1.67.64.3 1.37.48 2.13.48Zm4.98-4.5a5 5 0 0 1-4.02 4.4 2.3 2.3 0 0 1-.08-1.66c.16-.5.45-.9.67-1.12.4.08.8.05 1.21-.12.5-.07 1.6-.48 2.22-1.5Zm.02-.7a3.2 3.2 0 0 1-2.06 1.81 3.57 3.57 0 0 0-.83-2c-.75-.83-.92-1.2-.98-1.57a2.9 2.9 0 0 0 2.9-1c.57.78.92 1.73.97 2.76ZM9.27 5.5c.26.22.68.8.8 1.2a2.69 2.69 0 0 0 2.75-.92 4.99 4.99 0 0 0-5.87-1.34c1.24.05 2.03.7 2.32 1.05ZM4.44 6.94c.4-.9 1.07-1.66 1.9-2.19 1.33-.09 2.26.54 2.59.9a3.26 3.26 0 0 0-1.42 1.96c-.18.87-.52 1.21-.78 1.4a2.94 2.94 0 0 0-2.29-2.07Zm-.14.34A2.73 2.73 0 0 1 6.45 9.2c-.27.23-.52.68-.57 1.15a4 4 0 0 0-.17 1.5c.05.4.18.85.43 1.25A5 5 0 0 1 4.3 7.3ZM9 10a1 1 0 1 0 0-2 1 1 0 0 0 0 2Z" fill="#fff"/><defs><linearGradient id="axey30qjj" x1="9" y1="0" x2="9" y2="18" gradientUnits="userSpaceOnUse"><stop stop-color="#1B75B9"/><stop offset="1" stop-color="#81B3D8"/></linearGradient></defs></svg>