<!-- by TradingView --><svg width="18" height="18" viewBox="0 0 18 18" xmlns="http://www.w3.org/2000/svg"><path fill="#005F95" d="M0 0h18v18H0z"/><path d="m5.68 10-.04-.52c0-.01 0-.02.02 0l1.08.75h.01V8.9a.11.11 0 0 0-.04-.08L4.53 7h-.02L4.5 7v3.52c0 .04.01.07.04.1l4.12 3.36h.02V7.05c0-.02-.01-.04-.04-.05A2.09 2.09 0 0 1 8 6.67a1.12 1.12 0 0 1-.42-.55.58.58 0 0 1 .1-.54c.1-.14.26-.24.47-.31.4-.13.83-.16 1.27-.07.26.05.48.16.65.34.2.2.27.42.2.66-.12.37-.46.63-1.03.76-.02 0-.03.02-.03.04v.85c0 .04.02.06.05.06l.97.27c.04 0 .06.03.06.07v1.14c0 .02 0 .04-.02.05l-.9.89a.13.13 0 0 0-.05.12v1.35l.04.02h.03c1.22-1 2.56-2.05 4.03-3.13.06-.04.08-.1.08-.17a54.05 54.05 0 0 1-.06-1.64h-.02l-2.57 2.04c-.02.01-.03 0-.03-.02l-.04-1.38c0-.05.02-.1.06-.12.37-.35.62-.7.76-1.05.17-.44.13-.86-.11-1.24a2.08 2.08 0 0 0-.79-.7 3.82 3.82 0 0 0-2.48-.32c-.5.1-.94.3-1.31.58-.51.4-.72.88-.62 1.45a1.8 1.8 0 0 0 .5.93 4.14 4.14 0 0 0 .58.63c.02.1.02.2.02.32.03 1.1 0 3.3 0 3.3l-.01.03h-.03L5.7 10V10Zm3.64 2.71v1.27l.01.02h.02l4.1-3.33.01-.02V9.18l-.01-.02h-.02l-4.1 3.53v.02Z" fill="#fff"/></svg>