<!-- by TradingView --><svg xmlns="http://www.w3.org/2000/svg" width="18" height="18"><path fill="#E30613" d="M0 0h18v18H0z"/><path d="M6.86 12.71c-.65-.64-.14-1.82-.03-2.87-.15.14-1.58 3.14-2.89 3.14-1.26 0-1-1.55-.65-2.46h1.88c-.58 1.48.21.87.76-.07A31.94 31.94 0 008.27 5h2.05c-.6 1.87-1.19 3.6-1.44 5.42 0 .06.04.13.11.1.43-.07 2.81-5.18 3.03-5.52H14c0 .17-2.2 5.92-1.84 6.46.18.3.43-.27.65-.5l.33.3c-.65.68-1.41 1.89-2.5 1.69a.87.87 0 01-.39-.2c-1.12-.92.9-4.21.69-4.43-.07 0-.14.18-.26.4-.53 1.03-1.65 3.5-2.7 4.14-.35.22-.85.2-1.12-.15z" fill="#fff"/></svg>