<!-- by TradingView --><svg width="18" height="18" viewBox="0 0 18 18" xmlns="http://www.w3.org/2000/svg"><path fill="#F0F3FA" d="M0 0h18v18H0z"/><path fill-rule="evenodd" d="m10.36 9.84.87 1.9.85-1.89-.86.68-.86-.69Zm1.41-1.05-.5-3.99-.53 3.98.5 1 .53-1Zm-.2-4.76.78 5.45 2.18.32c.03-.21.05-.43.05-.64h-2.23v-.32h2.25a5.64 5.64 0 0 0-2.4-4.45l-.33-.18-.3-.18ZM11 3.77l-.83 5.71-5.27.69 1.24.18h-.1l.01.12c.13.72.36 1.42.68 2.07.1.2.21.38.33.55-.48.1-.95.25-1.4.44a5.61 5.61 0 0 1-2.28-4.37h2.58c0 .2 0 .4.03.62l.02.09h.3l-.02-.12c-.04-.2-.04-.4-.04-.6h2.58v.32h.3v-.3h1.02v-.3H9.15V5.02c.46-.01.82-.03 1.4-.13l.08-.01.04-.25-.02-.03a6.1 6.1 0 0 0-1.12-1.2c.51.06 1 .18 1.48.36Zm.06-.4A6 6 0 0 0 9.03 3h-.06a6 6 0 1 0 5.83 7.54l2.2-.37-2.06-.3a6 6 0 0 0-3.45-6.33L11.27 2l-.2 1.37Zm3.28 7.25-2.09.35-1 1.93-.99-1.93-1.12-.17v2.08c.48 0 .94.05 1.42.14l.3-.47.09-.17.16.32-.03.05a5.5 5.5 0 0 1-.21.34c.47.1.93.26 1.37.45a5.6 5.6 0 0 0 2.1-2.92Zm-7.98-.24v.05a7.38 7.38 0 0 0 1.03 2.6c.47-.09.95-.14 1.44-.15v-2.13l-2.47-.37ZM8.4 3.43a5.6 5.6 0 0 0-2.34.8c.4.16.82.29 1.25.37.31-.43.68-.83 1.1-1.17ZM9.42 14.6a5.6 5.6 0 0 0 2.56-.85c-.42-.17-.84-.3-1.27-.4-.38.46-.82.88-1.3 1.25Zm-3.46-.85c.78.5 1.66.79 2.57.86a7.53 7.53 0 0 1-1.26-1.24c-.45.09-.88.21-1.3.38Zm4.4-.47c-.4-.07-.8-.1-1.21-.1v1.25a7 7 0 0 0 1.2-1.15Zm-1.52 1.17v-1.27c-.41 0-.83.05-1.23.11.36.44.77.83 1.23 1.16Zm-1.7-9.6a7.7 7.7 0 0 1-1.38-.43A5.6 5.6 0 0 0 3.4 8.86h2.57a7.8 7.8 0 0 1 1.18-4Zm1.7.2c-.47 0-.93-.04-1.39-.12a7.52 7.52 0 0 0-1.2 3.94h2.59V5.05Zm-1.2-.4a5.8 5.8 0 0 1 1.2-1.19v1.28c-.4 0-.8-.04-1.2-.1Zm1.5-1.19v1.28c.4 0 .79-.04 1.18-.1a5.8 5.8 0 0 0-1.18-1.18Z" fill="#006BAE"/></svg>