<!-- by TradingView --><svg width="18" height="18" viewBox="0 0 18 18" xmlns="http://www.w3.org/2000/svg"><path fill="#CECDC9" d="M0 0h18v18H0z"/><path d="m4.76 5.53 1.26 3.43a.1.1 0 0 1 0 .07l-1.26 3.41c0 .02-.02.04-.03.05a.07.07 0 0 1-.1-.02.09.09 0 0 1-.02-.06V5.56l.01-.06a.08.08 0 0 1 .05-.03l.06.01.03.05Z" fill="url(#ag1wrucuv)"/><path d="M4.69 12.55h-.03c-.04 0-.03.2-.04.2a1.34 1.34 0 0 1-.07-.34c-.05-.64-.04-2.7-.05-3.56 0 0 .01-2.41.05-3.29l.02-.14c0-.07.06-.2.09-.2s0 .1.08.21l.07.08 1.26 3.44v.1L4.8 12.47a.5.5 0 0 1-.12.08Zm0-7.03h-.01v.01a.02.02 0 0 0-.01.02v6.86a.03.03 0 0 0 0 .02.02.02 0 0 0 .02.01.02.02 0 0 0 .02 0L5.96 9 4.7 5.56v-.01l-.01-.01v-.02Z" fill="#1D1D1B"/><path d="M4.86 5.12c.4-.04.82-.06 1.26-.06.55 0 1.07 0 1.55.06.04 0 .08.01.1.03a.2.2 0 0 1 .08.1l.8 2.38h.73v-2.3c0-.06.02-.11.05-.15a.19.19 0 0 1 .14-.06 22.6 22.6 0 0 1 2.87 0c.04 0 .08 0 .11.03a.2.2 0 0 1 .07.1l1.22 3.46.01.1c0 .04.04.13.02.16s-.1-.01-.12 0a.18.18 0 0 1-.1.03H6.17a.19.19 0 0 1-.1-.04.2.2 0 0 1-.08-.1L4.7 5.4a.22.22 0 0 1 .02-.19.2.2 0 0 1 .06-.06.19.19 0 0 1 .09-.03Z" fill="url(#bg1wrucuv)"/><path d="M13.68 9.05H6.16a.24.24 0 0 1-.14-.04.26.26 0 0 1-.09-.12L4.64 5.42a.28.28 0 0 1 .03-.24.26.26 0 0 1 .09-.09 17.18 17.18 0 0 1 2.93-.03c.05 0 .1.02.14.05.04.03.07.07.09.12l.78 2.35h.65V5.32c0-.07.02-.13.07-.18a.24.24 0 0 1 .18-.08c.46-.03.93-.06 1.4-.06.47 0 .98 0 1.47.06.05 0 .1.02.14.05.04.03.07.07.09.12l1.21 3.46c.02.05.02.09.02.13 0 .04 0 .12-.03.15-.02.04-.07.03-.1.05a.24.24 0 0 1-.12.03Zm-8.8-3.9c-.08 0-.15.08-.16.16l.01.07 1.29 3.46c0 .03.03.05.05.07.02.02.03.09.05.09h7.53l.16-.03.05-.02-.05-.21-1.22-3.47a.15.15 0 0 0-.05-.07 22 22 0 0 0-1.51-.08h-.02a14.02 14.02 0 0 0-1.46.06.14.14 0 0 0-.05.03.15.15 0 0 0-.04.11v2.34h-.84l-.8-2.41a.15.15 0 0 0-.06-.07 16.99 16.99 0 0 0-2.89-.03Z" fill="#1D1D1B"/><path d="m10.32 7.67-.86-2.38v2.38h.86Z" fill="url(#cg1wrucuv)"/><path d="M12.46 12.85a14.63 14.63 0 0 1-2.94-.01.12.12 0 0 1-.04-.04.13.13 0 0 1 0-.11l.8-2.16a.19.19 0 0 0 0-.16.17.17 0 0 0-.07-.05.16.16 0 0 0-.07-.02H8.79a.16.16 0 0 0-.1.03.18.18 0 0 0-.06.08l-.77 2.33a.18.18 0 0 1-.06.08 11.68 11.68 0 0 1-3.04.01.18.18 0 0 1-.07-.05.18.18 0 0 1 0-.17L6 9.1a.17.17 0 0 1 .06-.07.16.16 0 0 1 .08-.03h7.67a.1.1 0 0 1 .05.01.1.1 0 0 1 .03.04.12.12 0 0 1 .02.1l-1.29 3.59a.19.19 0 0 1-.06.08.17.17 0 0 1-.1.03Z" fill="url(#dg1wrucuv)"/><path d="M6.26 13h-.13a11.76 11.76 0 0 1-1.4-.12.23.23 0 0 1-.12-.18c0-.04 0-.08.02-.11l1.3-3.52a.23.23 0 0 1 .09-.1c.03-.03.08.03.12.03h7.65c.02 0 .07-.07.1-.06l.05.05a.17.17 0 0 1 .02.16l-1.29 3.59a.24.24 0 0 1-.08.11.22.22 0 0 1-.13.04c-.45.05-.91.1-1.37.11-.46 0-1.02-.06-1.53-.1l-.07-.03a.17.17 0 0 1-.06-.05.19.19 0 0 1 0-.17l.81-2.17a.13.13 0 0 0-.01-.1.11.11 0 0 0-.04-.04.1.1 0 0 0-.05-.02H8.8a.1.1 0 0 0-.07.02.12.12 0 0 0-.04.06l-.77 2.34a.23.23 0 0 1-.08.1.21.21 0 0 1-.12.05c-.48.07-.96.1-1.45.1Zm-.12-4h-.05l-.05.13-1.31 3.51a.12.12 0 0 0 0 .11l.04.04.05.01a11.68 11.68 0 0 0 2.92-.02.12.12 0 0 0 .04-.05l.78-2.34a.23.23 0 0 1 .08-.12.21.21 0 0 1 .12-.04h1.34c.04 0 .07.01.1.03l.08.07a.24.24 0 0 1 .02.22l-.78 2.16a.07.07 0 0 0 0 .06l.02.02h.02c.5.06 1.02.1 1.53.1.5 0 .9-.05 1.36-.1.03 0 .05 0 .07-.02a.13.13 0 0 0 .04-.06l1.28-3.59c.02-.04-.04-.12-.09-.12H6.14Z" fill="#1D1D1B"/><path d="M9.4 12.73V10.3h.72c.02 0 .05 0 .07.02.03.01.05.03.07.06a.19.19 0 0 1 .01.17l-.82 2.19-.01.01H9.4v-.02Z" fill="#383736"/><path d="m9.51 12.88-.09-.03c-.01-.02-.05-.04-.06-.09V10.27h.73c.04 0 .07 0 .1.02a.2.2 0 0 1 .07.07.22.22 0 0 1 .02.2l-.8 2.19-.03.03.06.1Zm-.09-2.55v2.37l.82-2.17a.16.16 0 0 0-.02-.14.15.15 0 0 0-.05-.04.14.14 0 0 0-.06-.02h-.69ZM14 8.93a.2.2 0 0 1 0 .13l-.1.25.02-.63.08.25Z" fill="#1D1D1B"/><path d="m6.13 9-.17.03-1.28-3.5v-.14a.49.49 0 0 1 .05-.1l1.4 3.7Z" fill="#fff"/><path d="M5.99 8.92h.12l-1.37 3.74a.1.1 0 0 0 0 .05.48.48 0 0 1-.05-.12.5.5 0 0 1 0-.12v-.05L6 8.92Z" fill="#fff"/><defs><linearGradient id="ag1wrucuv" x1="5.32" y1="5.47" x2="5.32" y2="12.5" gradientUnits="userSpaceOnUse"><stop stop-color="#1D1A15"/><stop offset="1" stop-color="#D2CFCA"/></linearGradient><linearGradient id="bg1wrucuv" x1="9.27" y1="5.06" x2="9.27" y2="9" gradientUnits="userSpaceOnUse"><stop stop-color="#BCB4AD"/><stop offset="1" stop-color="#FFFEFF"/></linearGradient><linearGradient id="cg1wrucuv" x1="9.89" y1="5.29" x2="9.89" y2="7.67" gradientUnits="userSpaceOnUse"><stop stop-color="#2C2824"/><stop offset="1" stop-color="#A39B98"/></linearGradient><linearGradient id="dg1wrucuv" x1="9.29" y1="9" x2="9.29" y2="13.74" gradientUnits="userSpaceOnUse"><stop offset=".06" stop-color="#393532"/><stop offset="1" stop-color="#EAE5E2"/></linearGradient></defs></svg>