<!-- by TradingView --><svg width="18" height="18" viewBox="0 0 18 18" xmlns="http://www.w3.org/2000/svg"><path fill="#F0F3FA" d="M0 0h18v18H0z"/><path fill-rule="evenodd" d="M14.06 11.21A5.4 5.4 0 0 1 9 14.5c-1.27 0-2.42-.4-3.33-1.08l8.39-2.2Zm.13-.34-1 .26-1.88-2.6c.88-.63 1.84-1.12 2.86-1.46a5.7 5.7 0 0 1 .02 3.8Zm-.55-4.88c-1.36.54-2.47 1.2-3.64 2.1V6.53l-1 .3v.8c-.42.08-1.1.27-1.5.38V6.23l5.18-1.36c.37.32.7.7.96 1.12Zm-9.73.87A5.4 5.4 0 0 1 9 3.5c1.3 0 2.48.42 3.4 1.14L3.9 6.86ZM3.55 9.8a5.89 5.89 0 0 1 .24-2.6l2.58-.67v1.83c-.96.35-1.97.84-2.82 1.44Zm1.82 3.4a5.35 5.35 0 0 1-1.56-2.32c.77-.57 1.7-1.07 2.56-1.45v3.5l-1 .26Zm5.32 1.57A6 6 0 1 1 7.32 3.23a6 6 0 0 1 3.37 11.53ZM7.5 9.02c.41-.1 1.08-.28 1.5-.32v3.51l-1.5.43V9.02Zm2.87.31 1.58 2.12-1.95.48V9.74l.37-.4Z" fill="#0A47B9"/></svg>