<!-- by TradingView --><svg width="18" height="18" viewBox="0 0 18 18" xmlns="http://www.w3.org/2000/svg"><path fill="#F0F3FA" d="M0 0h18v18H0z"/><path d="M14.79 9.28a25.5 25.5 0 0 1 0-.56c0-.03-.02-.04-.05-.04h-2.09c-.03 0-.05-.02-.05-.06V7.7c0-.04.02-.06.05-.06h2.31c.03 0 .04 0 .04-.03v-.58c0-.02-.01-.03-.04-.03h-3.28c-.02 0-.03.01-.04.03a390.47 390.47 0 0 0 0 3.94c0 .02.02.03.04.03h3.28c.03 0 .04-.01.04-.03v-.58c0-.02-.01-.03-.04-.03h-2.3c-.05 0-.06-.02-.06-.06v-.92c0-.04.02-.06.05-.06h2.1c.02 0 .04 0 .04-.04Zm-9.4-.36c.1.13.26.39.56.78.04.05.05.04.05-.01V7.04c0-.03.02-.04.05-.04h.9c.03 0 .05.01.05.04v3.92c0 .03-.01.04-.04.04H6.1a.11.11 0 0 1-.1-.04l-1.36-1.8a2.3 2.3 0 0 1-.06-.09c-.08-.13-.26-.39-.55-.77-.03-.05-.04-.04-.04.01v2.65c0 .03-.07.04-.1.04h-.85c-.03 0-.05-.01-.05-.04V7.04C3 7 3.01 7 3.04 7h.85c.04 0 .07.01.1.04l1.36 1.8.05.08Zm5.97 1.47v.58c0 .02-.01.03-.04.03H8.04C8 11 8 10.99 8 10.97V7.03c0-.02.01-.03.04-.03h.9c.03 0 .06.01.06.03v3.3c0 .02 0 .03.02.03h2.3c.03 0 .04.01.04.03Z" fill="#0D1A8D"/></svg>