<!-- by TradingView --><svg width="18" height="18" viewBox="0 0 18 18" xmlns="http://www.w3.org/2000/svg"><path fill="#1C408E" d="M0 0h18v18H0z"/><path d="M14.44 7.85v.01l.43.07a1.72 1.72 0 0 1 .37.08l.36.16c.1.06.18.12.25.2.08.1.13.2.14.3.05.31-.1.6-.47.88a2.57 2.57 0 0 1-.94.44 8.7 8.7 0 0 0-.4.1 12.27 12.27 0 0 0-.54.08l-.1.32-.02.01h-1.35c-.01 0-.02 0-.01-.02l.1-.31v-.01a2.71 2.71 0 0 0-.2-.02c-.1-.03-.21-.04-.31-.06-.06 0-.15-.03-.27-.07l-.05-.01a1.28 1.28 0 0 1-.51-.29.58.58 0 0 1-.2-.54c.07-.39.36-.7.88-.94a2.87 2.87 0 0 1 .86-.26c.08-.03.2-.04.36-.06a4.87 4.87 0 0 0 .24-.04l.11-.33c.01-.03.03-.04.06-.04h1.32v.02l-.1.33Zm.18 1.05c.03-.22-.06-.38-.28-.49l-.03-.01a.1.1 0 0 0-.04-.02l-.02.01-.41 1.22v.02c.2-.05.36-.14.5-.26.16-.14.25-.3.28-.47Zm-2.24.7.03.01a.1.1 0 0 0 .03.02l.02-.01.4-1.2V8.4c-.19.05-.35.14-.48.25a.75.75 0 0 0-.28.47c-.03.22.06.38.28.48Zm-4.52-.74c.02 0 .02 0 0 0a598.68 598.68 0 0 1-1.52.51c-.1.04-.2.06-.29.07a8.07 8.07 0 0 0-.43.04 9.49 9.49 0 0 1-1.4 0l-.04-.01a2.12 2.12 0 0 1-.3-.08.97.97 0 0 1-.24-.12.36.36 0 0 1-.14-.2v-.11c.22-.57 1.28-.59 1.86-.55l.47.04h.01a1.96 1.96 0 0 1 .31.06c.02 0 .03 0 .03-.02l.18-.37c0-.01 0-.05-.02-.05a14.86 14.86 0 0 1-.57-.05c-.43-.02-.84-.03-1.24-.01-.82.03-1.97.1-2.43.74a.53.53 0 0 0-.07.12c-.08.26 0 .48.25.64a3.89 3.89 0 0 0 2.62.44l.62-.25c.22-.09.45-.19.68-.26h.01v.01l-.27.54.01.01H7.4c.02 0 .03-.01.03-.02l.52-1.1h.02l.13.1.43.34.75.62c.05.04.11.06.2.06h1.45v-.01L9.54 8.87v-.01l.01-.02 1.75-.82c.01 0 .01 0 0 0L11.26 8H9.74c-.05 0-.1.01-.15.04a150.33 150.33 0 0 1-1.62.75l.06-.1.1-.22.2-.46-.02-.01H6.86a11 11 0 0 0-.36.85h1.36Z" fill="#FFFFFB"/></svg>