<!-- by TradingView --><svg width="18" height="18" viewBox="0 0 18 18" xmlns="http://www.w3.org/2000/svg"><path fill="#2C78BE" d="M0 0h18v18H0z"/><path d="M6 11V4l.75.82V11H6Zm1.13 0V5.23l.75.83V11h-.75Zm1.12 0V6.47l.56.62V11h-.56Zm.94 0V6.96l.56-.6V11h-.56Zm.94 0V5.97l.75-.79V11h-.75Zm1.12 0V4.79L12 4v7h-.75ZM6 14v-1h.75v1H6Zm1.13 0v-1h.75v1h-.75Zm1.12 0v-1h.56v1h-.56Zm.94 0v-1h.56v1h-.56Zm.94 0v-1h.74v1h-.74Zm1.12 0v-1H12v1h-.75Z" fill="#fff"/><path opacity=".5" fill="#fff" d="M5 11h8v2H5z"/></svg>