<!-- by TradingView --><svg xmlns="http://www.w3.org/2000/svg" width="18" height="18"><path fill="#007AC2" d="M0 0h18v18H0z"/><path d="M11.33 4.99c-.24-1.03-.85-1.86-.93-1.99a6.05 6.05 0 00-.64 5.85c.18.42.46.88.64 1.1A5.9 5.9 0 0011.33 5zM10.4 9.7a2.57 2.57 0 010-2.51c.07.1.29.57.31 1.2.02.6-.19 1.1-.31 1.31zm.86-2.98c0 .39-.06.8-.12 1.05a6.27 6.27 0 00-.13-1.5 6.3 6.3 0 00-.62-1.6 6.27 6.27 0 00-.75 3.11 6.26 6.26 0 01.75-4.23c.06.08.44.74.64 1.43s.24 1.35.23 1.74z" fill="#fff"/><path d="M10.8 10.33H8.97v1.05a1.15 1.15 0 011.58 0c.44.42.44 1.1 0 1.51v.01c-.44.42-1.01.62-1.58.62-.57 0-1.14-.2-1.57-.62a2.07 2.07 0 010-3.02A2.35 2.35 0 019 9.25V6.4c-2.19 0-4 1.7-4 3.8C5 12.3 6.77 14 8.96 14c1.14 0 2.32-.47 3.04-1.2v-2.47h-1.2z" fill="#fff"/></svg>