<!-- by TradingView --><svg width="18" height="18" viewBox="0 0 18 18" xmlns="http://www.w3.org/2000/svg"><path fill="#ED1B24" d="M0 0h18v18H0z"/><path d="M5.31 7.89c-1.74 3.11.53 5.18 1.8 5.83 2.47-.28 6.56-2.5 5.47-8.05-4.64.55-5.74 5-5.74 5 0-.38.2-1.26.2-1.26A4.34 4.34 0 0 0 5.31 7.9Z" fill="url(#aoz0o3fil)"/><path fill-rule="evenodd" d="M7.12 14c-1.64-.83-4.65-3.33-2.19-7.22a3.7 3.7 0 0 1 2.19 1.94A7.18 7.18 0 0 1 13.67 4c.55 2.78 1.37 9.17-6.55 10Zm0-.28C5.84 13.07 3.57 11 5.32 7.9c.34.17 1.27.71 1.72 1.52 0 0-.2.88-.2 1.26 0 0 1.1-4.45 5.74-5 1.1 5.55-3 7.77-5.46 8.05Z" fill="#fff"/><defs><linearGradient id="aoz0o3fil" x1="8.72" y1="5.67" x2="8.72" y2="13.72" gradientUnits="userSpaceOnUse"><stop stop-color="#00AE4D"/><stop offset="1" stop-color="#8CC540"/></linearGradient></defs></svg>