<!-- by TradingView --><svg width="18" height="18" viewBox="0 0 18 18" xmlns="http://www.w3.org/2000/svg"><path fill="#F0F3FA" d="M0 0h18v18H0z"/><path fill-rule="evenodd" d="M12.1 4.9c0-.02.01-.04.03-.04a.1.1 0 0 1 .09.02c.34.3.57.68.67 1.12 0 .02.02.02.03 0 .2-.3.31-.6.32-.9 0-.17-.07-.42-.22-.75l-.6-1.33c-.02-.03-.03-.03-.04 0-.13.46-.22.74-.27.83l-.13.22c-.2.33-.31.58-.35.73-.09.33 0 .72.25 1.18.03.06.06.06.07 0 .08-.36.13-.72.15-1.07Zm-3.06 8.18a4.03 4.03 0 0 1-4.11-4.33c.03-.68.23-1.32.6-1.92a3.9 3.9 0 0 1 1.45-1.39 4.22 4.22 0 0 1 3.44-.26c.02 0 .03 0 .03-.02v-.89c0-.03-.01-.05-.04-.06a5.15 5.15 0 0 0-2.78-.04 5.03 5.03 0 0 0-2.06 8.47 5.12 5.12 0 0 0 4.6 1.22 5.14 5.14 0 0 0 3.55-3.18 4.85 4.85 0 0 0-.05-3.42c-.01-.03-.03-.05-.06-.05h-.93c-.02 0-.03.02-.02.04.53 1.12.56 2.19.1 3.32a3.93 3.93 0 0 1-2.2 2.2c-.49.2-1 .3-1.52.31Zm3.01-7.15.03-.15c.07-.36.1-.6.1-.73 0-.06.01-.07.06-.03.17.17.31.36.41.56.1.2.16.4.15.59 0 .44-.3.72-.89.84-.3.06-.62.07-.98.03-.07 0-.07-.02 0-.05.28-.11.52-.25.7-.42.24-.2.38-.4.42-.64Zm-.74 3.42c-.03.02-.03.05 0 .06.63.38.86.9.7 1.55-.04.2-.13.4-.28.57-.14.17-.3.3-.48.38a.88.88 0 0 1-.56.07.85.85 0 0 1-.51-.35c-.15-.2-.34-.5-.56-.87a1.47 1.47 0 0 0-.31-.42c-.35-.24-.68-.1-1 .4l-.16.29c-.23.39-.41.64-.56.75-.24.2-.77.23-1.11.11-.29-.1-.46-.34-.48-.72V7.62c0-.44.04-.75.09-.92a.93.93 0 0 1 .56-.6c.17-.07.67-.1 1.01-.1h2.58c.15 0 .21.08.21.23v.54c0 .15-.06.23-.2.23H7.38c-.25 0-.38.13-.38.4v3.82c0 .05.02.07.06.05.04 0 .07-.04.1-.1.3-.52.67-1.29 1.12-2.3L8.67 8c.07-.18.2-.22.37-.23.15 0 .3.12.45.44.43.94.87 1.97 1.32 3.07.01.03.04.04.07.03.3-.11.48-.28.52-.49.04-.2.03-.38-.04-.56a.86.86 0 0 0-.44-.5c-.16-.1-.26-.18-.3-.25-.04-.1 0-.2.1-.3l.49-.42a.08.08 0 0 0 .03-.09c-.01-.03-.04-.06-.07-.06a1.6 1.6 0 0 0-.48 0c-.13.01-.2-.05-.2-.19v-.29c0-.13.06-.21.2-.23.25-.05.54-.06.84-.02.17.02.3.1.4.22.1.13.13.28.08.45a.92.92 0 0 1-.22.41 2.37 2.37 0 0 1-.48.37Zm-2.3-.38h.01l.42.98c.02.04.01.06-.03.04A1.17 1.17 0 0 0 9 9.87c-.1 0-.24.04-.41.11-.05.02-.06 0-.04-.04l.43-.97H9Z" fill="#0073BB"/></svg>