<!-- by TradingView --><svg width="18" height="18" viewBox="0 0 18 18" xmlns="http://www.w3.org/2000/svg"><path fill="#F0F3FA" d="M0 0h18v18H0z"/><path d="M3.5 12.94a296.7 296.7 0 0 1 .8-3.96l.6-3.08c.05-.22.12-.39.2-.5.23-.25.53-.39.9-.4h2.8c.04 0 .05.02.05.06L8.62 6.2c0 .03-.02.04-.05.04-1.5.18-2.43.94-2.8 2.28-.02.04 0 .06.04.06h5.86c.04 0 .06-.02.05-.06a2.75 2.75 0 0 0-1.75-2.05c-.03-.01-.05-.03-.04-.07l.26-1.35c.01-.04.04-.06.08-.06h3.67c.05 0 .07.02.06.07l-.2.98-.13.72-.6 2.96c-.2 1.13-.38 2-.52 2.6-.1.45-.43.67-.96.67H8.7c-.05 0-.07-.03-.06-.07l.23-1.15c0-.03.02-.04.05-.05 1.08-.1 1.9-.56 2.45-1.38a2.8 2.8 0 0 0 .34-.85c0-.02 0-.03-.03-.03H5.81c-.03 0-.05.01-.04.04a2.8 2.8 0 0 0 1.77 2c.03 0 .04.03.04.06l-.27 1.38c0 .03-.03.05-.06.05H3.56c-.05 0-.07-.02-.06-.06Z" fill="#0093D2"/></svg>