<!-- by TradingView --><svg width="18" height="18" viewBox="0 0 18 18" xmlns="http://www.w3.org/2000/svg"><path fill="#007BFC" d="M0 0h18v18H0z"/><path d="M5.73 5.25a4.19 4.19 0 0 1 4.25.89c.03.02.03.05 0 .08L8.78 7.4c-.02.03-.05.03-.08 0a2.45 2.45 0 0 0-.82-.49 2.34 2.34 0 0 0-2.4.54 2.3 2.3 0 0 0-.65 1.68c.06.58.27 1.06.64 1.43a2.33 2.33 0 0 0 3.23.06c.03-.03.06-.03.08 0l1.2 1.17c.03.03.03.06 0 .09a4.18 4.18 0 0 1-6.22-.57A3.79 3.79 0 0 1 3 9c0-.85.25-1.61.76-2.3a4.12 4.12 0 0 1 1.97-1.45ZM13 8h2v2h-2v2h-2v-2H9V8h2V6h2v2Z" fill="#fff"/></svg>