<!-- by TradingView --><svg width="18" height="18" viewBox="0 0 18 18" xmlns="http://www.w3.org/2000/svg"><path fill="#F0F3FA" d="M0 0h18v18H0z"/><path d="M6.38 12.48H3l1.27-.8h2.67l.3.32h3.54l.29-.32h2.66l1.27.8h-3.38l-.32.52H6.7l-.33-.52Z" fill="#9A2A2B"/><path d="M4.28 11.8 3 12.47l1.73-2.69-.38-.37L6.6 5.86h.68L9 3v1.4L7.71 6.46h-.6L5.37 9.42l.22.37-1.3 2Z" fill="#F62D33"/><path d="m13.74 11.8 1.26.68-1.73-2.69.38-.37-2.22-3.56h-.7L9 3v1.4l1.33 2.06h.55l1.76 2.96-.22.37 1.32 2Z" fill="#C22E30"/><path d="M7.47 11.26H5.21l1.24-.5H7.9l.12.2h1.96l.11-.2h1.44l1.27.5h-2.27l-.17.31H7.64l-.17-.3Z" fill="#00509F"/><path d="m6.45 10.76-1.24.5 1.15-1.54-.23-.4 1.4-2.23h.37L9 5.29v1.4l-.72 1.2h-.35l-.95 1.6.2.16-.73 1.11Z" fill="#007BC1"/><path d="m11.52 10.76 1.27.5-1.15-1.54.22-.4-1.4-2.24h-.36L9 5.3v1.4l.71 1.2h.35l.96 1.6-.2.16.7 1.1Z" fill="#0068B4"/><path d="m9 9.44-1.59.83h.9l.1.11h1.17l.1-.1h.9L9 9.43Z" fill="#9A2A2B"/><path d="M9 9.44v-1.7l-.46.71h-.15l-.62.97.12.1-.48.75L9 9.44Z" fill="#F62D33"/><path d="M9 9.44v-1.7l.46.71h.14l.62.97-.12.1.49.75L9 9.44Z" fill="#C22E30"/></svg>