<!-- by TradingView --><svg width="18" height="18" viewBox="0 0 18 18" xmlns="http://www.w3.org/2000/svg"><path fill="#F0F3FA" d="M0 0h18v18H0z"/><path d="M8.23 6.74h.02l-.4 1a2.96 2.96 0 0 0-.52.06 3981.5 3981.5 0 0 1-1.22 3.11c.13.1.26.17.4.24l-.3.79-.04-.03a5.68 5.68 0 0 1-.35-.26L4.91 14l-.02.01h-.88S4 14 4 14L6.33 8l-.4-.34a4.97 4.97 0 0 1 .7-.44L8.3 3.01V3h.9L7.7 6.85a5.37 5.37 0 0 1 .53-.11Z" fill="#E52D2E"/><path d="M10.69 5.53c-.48.34-.91.73-1.29 1.16a5.85 5.85 0 0 0-1.17.05L9.7 3.01h.01l.99 2.52Z" fill="#3757A1"/><path d="m10.69 5.53.19.49c-.34.22-.64.46-.92.74a5.72 5.72 0 0 0-.56-.07c.38-.43.8-.82 1.29-1.16Z" fill="#E52D2E"/><path d="m12.2 14-.38-.09a4.98 4.98 0 0 1-2.07-1.03l-.17-.16c.55-.06 1.04-.2 1.5-.42.37-.18.7-.42.97-.7a2.87 2.87 0 0 0 .62-1l-.05-.12a4262.09 4262.09 0 0 0-1.29-3.27c-.4-.22-.86-.37-1.37-.45.28-.28.58-.52.92-.74l.46 1.19h.01c.39.2.7.47.97.78a2.41 2.41 0 0 1 .55 1.79 3.38 3.38 0 0 1-.2.83L14 14h-1.8ZM7.84 7.74c.26 0 .51.01.77.06-.25.46-.44.94-.56 1.44l-.86.18.65-1.68Z" fill="#3757A1"/><path d="M9.08 7.94c-.2.37-.35.76-.44 1.17l-.59.13c.12-.5.3-.98.56-1.44.16.04.31.08.47.14Z" fill="#E52D2E"/><path d="M8.76 11.44v-.01a3.89 3.89 0 0 1-.23-1.46l1.43-.41c.02 0 .02 0 0 0H8.54v-.01c-.01 0-.01 0 0 0l.44-.5s0-.01 0 0l-.34.06c.09-.4.24-.8.44-1.17.4.14.73.35.99.62.27.28.43.6.48.97.06.46-.08.86-.4 1.22a2.81 2.81 0 0 1-1.39.7ZM7.97 9.7l-.01.16-.26.33c0 .01 0 .02.01.01l.23-.06c0 .46.07.92.23 1.36a3.58 3.58 0 0 1-1.66-.35l.57-1.45h.9Z" fill="#3757A1"/><path d="m7.96 9.86.01-.16h.1c.01 0 .01 0 0 0l-.11.16ZM8.53 9.97a3.89 3.89 0 0 0 .23 1.47c-.2.04-.39.06-.59.06a3.7 3.7 0 0 1-.23-1.37l.59-.16Z" fill="#E52D2E"/><path d="M6.2 11.94a4.75 4.75 0 0 0 2.57.8l.2.02c.32.34.7.62 1.14.86a6.13 6.13 0 0 0 .85.38H5.4l.8-2.06Z" fill="#3757A1"/><path d="M9.59 12.72a3.97 3.97 0 0 0 .85.65 4.98 4.98 0 0 0 1.77.63h-1.26v-.01a4.67 4.67 0 0 1-1.98-1.23c.21 0 .42-.02.62-.04Z" fill="#E52D2E"/></svg>