<!-- by TradingView --><svg width="18" height="18" viewBox="0 0 18 18" xmlns="http://www.w3.org/2000/svg"><path fill="#F0F3FA" d="M0 0h18v18H0z"/><path d="M12.14 8.33h-1.77l1.1.66-1.1.69h2.18L14 8.37V6.6l-1.86 1.72Z" fill="url(#alxmf3dmf)"/><path d="M10.7 8.33h-1L11.1 9l-1.42.68h1.03l1.1-.68-1.1-.66Z" fill="#54BEE3"/><path d="M7.63 8.33H5.45L4 10v1.87l1.93-2.19h1.7L7.79 9l-.16-.66Z" fill="url(#blxmf3dmf)"/><path d="M7.75 8.33h-.33L7.6 9l-.17.68h.33l.16-.68-.16-.66Z" fill="#4B9BD2"/><path d="M7.38 10.77 11.1 9H7.91l-.53 1.77Z" fill="#D0D5D6"/><path d="M4 4v6.03l1.45-1.7H7.7l-.3-1.16 2.76 1.16h1.99L14 6.67V4H4ZM12.52 9.67h-2.37l-2.87 1.18.43-1.18H5.93L4 11.7V14h10V8.35l-1.48 1.32Z" fill="#1B4692"/><path d="M7.38 7.21 11.1 9H7.91l-.53-1.79Z" fill="#fff"/><path d="M7.39 8.33h.32l-.33-1.12 2.33 1.12h.72L6.87 6.62l.52 1.71ZM9.7 9.67l-2.32 1.1.33-1.1H7.4l-.52 1.7 3.55-1.7H9.7Z" fill="#1B4692"/><defs><linearGradient id="alxmf3dmf" x1="14" y1="8.16" x2="3.95" y2="8.16" gradientUnits="userSpaceOnUse"><stop offset=".16" stop-color="#57C8E8"/><stop offset=".78" stop-color="#478ECC"/></linearGradient><linearGradient id="blxmf3dmf" x1="13.99" y1="10.08" x2="3.99" y2="10.08" gradientUnits="userSpaceOnUse"><stop offset=".16" stop-color="#57C8E8"/><stop offset=".78" stop-color="#478ECC"/></linearGradient></defs></svg>