<!-- by TradingView --><svg width="18" height="18" viewBox="0 0 18 18" xmlns="http://www.w3.org/2000/svg"><path fill="#002D8B" d="M0 0h18v18H0z"/><path d="m9.59 8.65 2.74-3.33.12.03-2.17 3.29h2a1.86 1.86 0 0 0-.87-1.05L12.45 6C14 6.67 15 7.75 15 8.97c0 2.01-2.68 3.66-6 3.66-.44 0-.89-.02-1.34-.08L8.9 11H9c1.56 0 2.87-.65 3.23-1.52H9.7L6.81 13l-.11-.03L9 9.47l-2.78 3.35-.12-.03L8.39 9.3l-2.76 3.36-.1-.03 2.54-3.88L11.16 5l.12.03-2.29 3.49 2.77-3.36.11.04L9.6 8.65ZM3 9c0 1.2 1 2.3 2.55 2.96l1.04-1.57c-.57-.36-.92-.85-.92-1.39 0-1.1 1.5-2 3.33-2h.1l1.25-1.52c-.45-.07-.9-.1-1.36-.1C5.7 5.36 3 6.96 3 8.98Z" fill="#fff"/></svg>