<!-- by TradingView --><svg width="18" height="18" viewBox="0 0 18 18" xmlns="http://www.w3.org/2000/svg"><path fill="#F0F3FA" d="M0 0h18v18H0z"/><path fill-rule="evenodd" d="M9 3C7.79 4.07 4.5 6.76 4.5 9.68A4.42 4.42 0 0 0 9 14c2.48 0 4.5-1.94 4.5-4.32C13.5 6.76 10.21 4.07 9 3Zm0 2.02c-.84.74-3.12 2.62-3.12 4.66 0 1.67 1.39 2.95 3.12 2.95 1.73 0 3.12-1.28 3.12-2.95 0-2.04-2.27-3.92-3.12-4.66Z" fill="#0033A0" fill-opacity=".9"/><path d="M8.99 9c-.5.18-1.58.61-2.25.14.22 1.5 1.55 1.16 2.27.95.42-.12 1.58-.6 2.25-.14-.22-1.49-1.55-1.2-2.27-.94Z" fill="#FF6900"/></svg>