<!-- by TradingView --><svg width="18" height="18" viewBox="0 0 18 18" xmlns="http://www.w3.org/2000/svg"><path fill="#F0F3FA" d="M0 0h18v18H0z"/><path d="M5.56 6.6H4V8h2v3.77c0 .68.36 1.23 1.04 1.23H9v-1.28H7.37c-.05 0-.1-.03-.1-.09V8.2c-1.1-.12-1.69-1.18-1.7-1.6Z" fill="#64757F"/><path d="M6 6.71V5h1.33v1.53c0 .07.06.14.13.14H9V8H7.3A1.3 1.3 0 0 1 6 6.71Z" fill="#F15A23"/><path d="M12.27 8.17V10H11V8.22c0-.08-.17-.22-.24-.22H9.3V6.67h1.6c.67 0 1.36.75 1.36 1.5Z" fill="#64757F"/><path d="M11.19 6.5V5h1.25v1.5c0 .05.08.1.13.1H14V8h-1.5c-.04-.76-.7-1.46-1.31-1.5Z" fill="#F15A23"/></svg>