<!-- by TradingView --><svg width="18" height="18" viewBox="0 0 18 18" xmlns="http://www.w3.org/2000/svg"><path fill="#FFC536" d="M0 0h18v18H0z"/><path d="M12 9h-1.74v3H9V9H8V7.8h1v-.43c0-.42.14-.76.4-1 .27-.25.63-.37 1.09-.37h2.11v1.2h-1.89c-.28 0-.45.15-.45.42v.18H12V9Zm-6.53 3c-.78 0-1.4-.14-1.83-.4-.42-.27-.64-.6-.64-1.1h1.1c0 .45 1.06.45 1.38.45.82 0 1.15-.1 1.15-.38v-.05c0-.3-.39-.33-.62-.35h-.04l-1.09-.13a2.77 2.77 0 0 1-1.34-.42c-.27-.2-.41-.5-.41-.89v-.09c0-.45.2-.8.6-1.06.41-.25 1-.38 1.73-.38.76 0 1.35.14 1.76.4.4.27.6.6.6 1.1h-1.1c0-.42-.97-.45-1.3-.45-.24 0-1.13 0-1.13.33v.06c0 .1.02.19.12.24.1.06.25.1.47.12l1.1.12a3.1 3.1 0 0 1 1.43.43c.28.2.43.51.43.9v.1c0 .46-.2.81-.62 1.07-.42.25-1 .38-1.75.38Zm9.37-4.66c-.19.19-.8.21-1.08.06-.19.09-.26.25-.26.48V12h-1.2V7.8h.12c.94-.03 1.08-1.1 1.09-1.2.01-.18.07-.35.15-.44.21-.21.97-.21 1.18 0 .21.21.21.97 0 1.18Z" fill="#3F3F3F"/></svg>