<!-- by TradingView --><svg xmlns="http://www.w3.org/2000/svg" width="18" height="18" viewBox="0 0 18 18"><path fill="#F0F3FA" d="M0 0h18v18H0z"/><path fill-rule="evenodd" d="M13 5H5v8h8V5zm-2.91 2.67C8.8 6.42 6.59 6.3 5.57 6.45c1.43.11 2.22.47 3.68 1.72 2.05 1.76 2.2 3.32 2.28 4.24v.01c.24-1.72-.04-3.38-1.44-4.75zM7 8.5H5.5V9H6v1h.5V9H7v-.5zM9.55 10H9v1.5h.55v-.59l.37.59h.58l-.47-.75.47-.75h-.58l-.37.59V10zm-2.27-.5H7V11h.38V9.96l.2 1.04h.32l.22-1.07V11h.38V9.5h-.6l-.15.81-.14-.81H7.27z" fill="#F37022"/></svg>