<!-- by TradingView --><svg width="18" height="18" viewBox="0 0 18 18" xmlns="http://www.w3.org/2000/svg"><path fill="#F0F3FA" d="M0 0h18v18H0z"/><path d="M7.94 8H5v1h2.8c.4.01.57.43.59.57v.31c0 .4-.24.74-.36.87L4.5 14h5v-1H7.12l1.55-1.36c.65-.53.81-1.33.82-1.66v-.6C9.43 8.3 8.43 8.02 7.94 8Z" fill="#00537F"/><path d="m9.7 11.17.3-.04c-.12.2-.36.67-.3.96l.83-.8c.02.11.03.44-.1.87-.16.54.15 1.02.7 1.26-.06-.2-.1-.74.14-1.33.13-.14.38-.6.35-1.22.06.02.2.1.28.34.07-.14.2-.51.16-.92.12.01.4.15.53.58.12.44.45.6.68.67a2.58 2.58 0 0 1-.19-1.14c0-.57-.17-1.01-.25-1.16.1 0 .35.01.5.14-.06-.16-.2-.5-.25-.59-.02-.05.02-.03.1 0 .12.04.31.11.52.1.37-.03 1.03 0 1.3.35.02-.23-.36-.92-2-1.89.02-.09.18-.26.62-.26-.09-.13-.38-.42-.79-.52.1-.02.4-.08.68-.22.1-.05.18-.11.24-.16.13-.11.24-.2.7-.16l-.48-.43a8.8 8.8 0 0 0-1.73 0c.01-.07.11-.25.4-.38-.15-.09-.55-.18-.94.15-.08-.05-.14-.21.27-.5.4-.29.51-.64.51-.77-.04.1-.25.3-.78.32-.54.02-.86.46-.95.68-.16-.16-.34-.61.23-1.1-.36-.07-1.2.02-1.67.87-.13-.1-.32-.42-.07-.97s.15-.83.07-.9c0 .08-.15.38-.8 1-.67.62-.64 1.23-.55 1.46l-.32.34c.08-.5.07-1.54-.6-1.8.1.24.23.87-.15 1.46-.37.59-.23.93-.11 1.03-.24-.15-.69-.58-.61-1.12-.22.26-.48.88-.28 1.68h1.27A2.8 2.8 0 0 1 9.8 5.22c1.55 0 2.8 1.23 2.8 2.76a2.78 2.78 0 0 1-2.9 2.75v.44Z" fill="#C16528"/></svg>