<!-- by TradingView --><svg width="18" height="18" viewBox="0 0 18 18" xmlns="http://www.w3.org/2000/svg"><path fill="#F0F3FA" d="M0 0h18v18H0z"/><path d="M11.94 6.59c-.08-.88-.23-1.74-.44-2.59h-.03a5.62 5.62 0 0 0-5.79 5.12 2.73 2.73 0 0 0-.18 1.1c0 .16 0 .28.02.35.06.45.24.93.52 1.46.07.13.12.23.14.33.03.1.05.21.04.32 0 .09-.04.23-.1.43l-.07.21a.43.43 0 0 0 .04.32c.6-.7 1.1-1.44 1.5-2.21.17-.36.32-.76.42-1.2.03-.14 0-.24-.09-.3-.04-.03-.1-.04-.22-.04h-.37a.43.43 0 0 1-.18-.04.24.24 0 0 1-.12-.16c-.02-.07 0-.14.04-.19l3.04-3.29c.07-.08.16-.1.26-.05.15.07.19.18.11.34L9.5 8.74c-.04.1-.02.2.06.28.04.04.08.06.12.06h.88c.08 0 .14.02.17.03.06.03.1.08.12.15.02.06.02.12-.02.18-.01.04-.06.07-.13.1A4.78 4.78 0 0 0 8.74 11c-.47.6-.78 1-.93 1.17a17.73 17.73 0 0 1-1.6 1.7c.02.06.05.1.1.12h.09a267.24 267.24 0 0 1 1.26-.84.26.26 0 0 1 .13-.03 4.6 4.6 0 0 0 1.99-.5c.6-.32 1.09-.79 1.45-1.4.42-.7.66-1.58.74-2.62.05-.67.04-1.35-.03-2.02ZM9.18 9.32a.12.12 0 0 1-.04-.07.56.56 0 0 1 .02-.24c.06-.22.2-.57.4-1.04a9.64 9.64 0 0 0 .2-.53c-.07-.04-.15-.05-.22-.01a.52.52 0 0 0-.14.14L8.13 9.24a.22.22 0 0 0-.04.13c0 .06.01.1.05.13l.06.04c.06.03.09.05.1.08.02.05.03.12.02.21a4.27 4.27 0 0 1-.27 1 4.5 4.5 0 0 0-.15.51c0 .02 0 .03.02.03.09.04.16.04.23 0a.48.48 0 0 0 .13-.15l1.04-1.57a.22.22 0 0 0 .03-.14c0-.06-.02-.1-.06-.12l-.03-.01a.56.56 0 0 1-.08-.06Z" fill="#72AB2B"/></svg>