<!-- by TradingView --><svg width="18" height="18" viewBox="0 0 18 18" xmlns="http://www.w3.org/2000/svg"><path fill="#F0F3FA" d="M0 0h18v18H0z"/><ellipse cx="4.8" cy="4.79" rx=".8" ry=".79" fill="#007BC3"/><ellipse cx="4.8" cy="6.9" rx=".8" ry=".79" fill="#E84735"/><ellipse cx="4.8" cy="9" rx=".8" ry=".79" fill="#E84735"/><ellipse cx="4.8" cy="11.1" rx=".8" ry=".79" fill="#E84735"/><ellipse cx="4.8" cy="13.21" rx=".8" ry=".79" fill="#E84735"/><ellipse cx="6.9" cy="4.79" rx=".8" ry=".79" fill="#007BC3"/><ellipse cx="6.9" cy="6.9" rx=".8" ry=".79" fill="#E84735"/><ellipse cx="6.9" cy="9" rx=".8" ry=".79" fill="#E84735"/><ellipse cx="6.9" cy="11.1" rx=".8" ry=".79" fill="#E84735"/><ellipse cx="6.9" cy="13.21" rx=".8" ry=".79" fill="#E84735"/><ellipse cx="9" cy="4.79" rx=".8" ry=".79" fill="#007BC3"/><ellipse cx="9" cy="6.9" rx=".8" ry=".79" fill="#007BC3"/><ellipse cx="9" cy="9" rx=".8" ry=".79" fill="#007BC3"/><ellipse cx="9" cy="11.1" rx=".8" ry=".79" fill="#007BC3"/><ellipse cx="9" cy="13.21" rx=".8" ry=".79" fill="#007BC3"/><ellipse cx="11.1" cy="4.79" rx=".8" ry=".79" fill="#007BC3"/><ellipse cx="11.1" cy="6.9" rx=".8" ry=".79" fill="#E84735"/><ellipse cx="11.1" cy="9" rx=".8" ry=".79" fill="#E84735"/><ellipse cx="11.1" cy="11.1" rx=".8" ry=".79" fill="#E84735"/><ellipse cx="11.1" cy="13.21" rx=".8" ry=".79" fill="#E84735"/><ellipse cx="13.2" cy="4.79" rx=".8" ry=".79" fill="#007BC3"/><ellipse cx="13.2" cy="6.9" rx=".8" ry=".79" fill="#E84735"/><ellipse cx="13.2" cy="9" rx=".8" ry=".79" fill="#E84735"/><ellipse cx="13.2" cy="11.1" rx=".8" ry=".79" fill="#E84735"/><ellipse cx="13.2" cy="13.21" rx=".8" ry=".79" fill="#E84735"/></svg>