<!-- by TradingView --><svg width="18" height="18" viewBox="0 0 18 18" xmlns="http://www.w3.org/2000/svg"><path fill="#F0F3FA" d="M0 0h18v18H0z"/><path d="m7.49 6-.55 3h.81l.47-2.5h.7L8.45 9h.81l.47-2.5h.58L9.94 9h3.97c.09-.63.09-.78.09-1.02C14.1 4.8 11.56 4 10.28 4 5.9 4 4.23 8.1 4 10.1v.46h.63v-.47c.44-3.03 2.65-5.46 5.65-5.46 2.16 0 2.94 2.1 2.9 3.35h-2.2L11.32 6l-.29-.43H8.01L7.49 6Z" fill="#1E76B8"/><path d="M13.69 9.76h-.83c-1.54 2.34-2.95 3.35-5.2 3.35-1.8 0-2.24-.45-2.24-.67h1.42l.35-1.56.47.93h.71l.95-.94-.36 1.57h.83l.7-2.8-.35-.33h-.47l-1.45 1.56-.68-1.56h-.47l-.47.34-.47 1.85H4c.28 1.88 2.56 2.46 3.66 2.5 3.31 0 5.4-2.83 6.03-4.24Z" fill="#225C94"/></svg>