<!-- by TradingView --><svg width="18" height="18" viewBox="0 0 18 18" xmlns="http://www.w3.org/2000/svg"><path fill="#F0F3FA" d="M0 0h18v18H0z"/><path d="M11.93 6c.08.01.15.05.2.12.05.07.08.14.1.24l.35 1.47v.02l-1.57 2.67-.33-1.37-1.1 1.84H6.57l-.63-1.56L4.8 11H2.39c-.13.01-.26-.03-.33-.16a.39.39 0 0 1-.06-.2c0-.26.2-.26.41-.26h2.02l.1-.11c.49-.68.9-1.17 1.23-1.63a.32.32 0 0 1 .1-.08c.09-.06.18-.07.28-.04.09.04.16.11.2.22L7 10.37h2.25c.03-.06.81-1.5 2.33-4.11a.76.76 0 0 1 .13-.17.34.34 0 0 1 .18-.1h.05Zm2.17 0c.09 0 .17.05.23.11.05.06.09.15.11.25A900.16 900.16 0 0 0 15 8.7l-1.23 2.03a.77.77 0 0 1-.14.2.3.3 0 0 1-.22.06c-.17 0-.28-.12-.33-.35a388.66 388.66 0 0 1-.38-1.53l-1 1.66a.54.54 0 0 1-.13.15.34.34 0 0 1-.18.07.25.25 0 0 1-.2-.08.3.3 0 0 1-.1-.22c0-.07.03-.15.07-.21l2.56-4.26c.07-.13.18-.2.31-.22h.07Zm-.13.2a.26.26 0 0 0-.1.1l-2.56 4.26a.3.3 0 0 0-.04.12c-.01.04 0 .08.03.1.04.05.1.05.15 0a.43.43 0 0 0 .12-.13 3585.69 3585.69 0 0 0 1.2-1.98l.47 1.9c.03.15.08.22.15.24.08.02.15-.03.22-.13l1.2-2.02-.54-2.29a.28.28 0 0 0-.07-.13.2.2 0 0 0-.1-.06c-.05 0-.09 0-.13.02ZM4.53 9.28l-.1.61v.01a124.49 124.49 0 0 0-1.33-.02.3.3 0 0 1-.17-.18.3.3 0 0 1 .02-.26.3.3 0 0 1 .29-.16h1.29Zm4.22 0a.3.3 0 0 1 .3.2.31.31 0 0 1-.3.42 1071.3 1071.3 0 0 0-1.58 0l.07-.61.01-.01h1.5Zm.27-.78.24.01c.07.03.12.07.16.13.04.05.05.1.05.17a.32.32 0 0 1-.21.3 539.5 539.5 0 0 0-2 0 104.26 104.26 0 0 1 .1-.54.2.2 0 0 1 .08-.06l.12-.01h1.46Zm-4.54 0c.08.01.13.05.15.12a.3.3 0 0 1 0 .14l-.07.35A660.77 660.77 0 0 0 2.9 9.1a.3.3 0 0 1-.2-.36c0-.05.03-.1.07-.14.06-.07.15-.1.26-.1h1.44Z" fill="#EF7F1A"/></svg>