<!-- by TradingView --><svg xmlns="http://www.w3.org/2000/svg" width="18" height="18" viewBox="0 0 18 18"><path fill="#15316C" d="M0 0h18v18H0z"/><path d="M8.79 8.48c-.13 3.38-.45 5.31-1.04 6.33a4.02 4.02 0 0 0 2.5 0c-.59-1.01-.91-2.94-1.04-6.33H8.8Z" fill="#fff"/><path d="M12.67 11.36C12.67 9.6 11 8.23 9 8.23s-3.66 1.36-3.67 3.13c0 .56.18 1.13.53 1.65a8.06 8.06 0 0 0 2.09-4.4c.03-.02.32-.08.53-.1 0 .28-.23 4.39-1.68 5.84A4 4 0 0 1 8.13 7.1c.1-1.3.1-1.96.1-2.6h.31l-.02 2.53.34-.03V3h.27v4l.34.03-.02-2.53h.32c0 .64 0 1.3.1 2.6a4 4 0 0 1 1.33 7.25C9.75 12.9 9.52 8.8 9.52 8.51c.21.02.5.08.53.1a8.02 8.02 0 0 0 2.09 4.4c.35-.52.53-1.1.53-1.65Z" fill="#fff"/></svg>