<!-- by TradingView --><svg xmlns="http://www.w3.org/2000/svg" width="18" height="18" viewBox="0 0 18 18"><path fill="#F0F3FA" d="M0 0h18v18H0z"/><path d="M10.52 13H9l1.15-8h1.53l-.43 2.93h.8L12.49 5H14l-1.15 8h-1.52l.6-4.1h-.8l-.61 4.1z" fill="#3459C3"/><path d="M6.88 6.15c.32 0 .48.17.48.51 0 .13-.02.25-.03.37l-.06.42c-.07.5-.16.84-.26 1.02-.1.17-.28.26-.54.26h-.25l.4-2.58h.26zM6.05 9.9h.58c.48.01.94-.13 1.35-.41.2-.14.37-.33.5-.56.14-.22.23-.48.27-.76l.22-1.45.03-.4c0-.5-.17-.86-.5-1.06A2.68 2.68 0 0 0 7.15 5H5.21L4 13h1.59l.46-3.1z" fill="#E90C15"/></svg>