<!-- by TradingView --><svg width="18" height="18" viewBox="0 0 18 18" xmlns="http://www.w3.org/2000/svg"><path fill="#F0F3FA" d="M0 0h18v18H0z"/><path fill-rule="evenodd" d="M10.54 6.03c.08-.17.13-.36.13-.56C10.67 4.66 9.92 4 9 4c-.92 0-1.67.66-1.67 1.47 0 .19.04.37.11.53H5.57l1.16 1h1.6v5.66L5 9.7V12h.79l2.51 2h1.27l2.9-2.53c.17-.08.53-.44.53-1.27 0-.66-.65-1.23-.97-1.34.13-.13.4-.56.4-1.2 0-.79-.96-1.63-1.89-1.63Zm-.9-.52c0 .31-.29.56-.64.56-.35 0-.64-.25-.64-.56 0-.3.29-.55.64-.55.35 0 .64.25.64.55Zm.9 1.49h-.87v1.47h.87c.44 0 .8-.33.8-.73 0-.41-.36-.74-.8-.74Zm-.87 2.59v3.09l1.73-1.64c.57-.53.17-1.45-.64-1.45h-1.1Z" fill="#00478B"/></svg>