<!-- by TradingView --><svg width="18" height="18" viewBox="0 0 18 18" xmlns="http://www.w3.org/2000/svg"><path fill="#F0F3FA" d="M0 0h18v18H0z"/><path d="M13 4v3h-3l3-3Z" fill="#4C9D37"/><path d="M13 7v3h-3l3-3Z" fill="#6FB93E"/><path d="M10 7v3H7l3-3Z" fill="#B8BA3B"/><path d="M10 10v3H7l3-3Z" fill="#FEB93A"/><path d="M7 10v3H4l3-3Z" fill="#FD8900"/><path d="M10 4h3l-3 3V4Z" fill="#5FB63E"/><path d="M10 7h3l-3 3V7Z" fill="#86CF52"/><path d="M7 7h3l-3 3V7Z" fill="#C8CC3A"/><path d="M7 10h3l-3 3v-3Z" fill="#FDCA4E"/><path d="M4 10h3l-3 3v-3Z" fill="#F9AA00"/></svg>