<!-- by TradingView --><svg width="18" height="18" viewBox="0 0 18 18" xmlns="http://www.w3.org/2000/svg"><path fill="#005D9C" d="M0 0h18v18H0z"/><path d="M8.43 11a25.94 25.94 0 0 1-4.64-.54c-.02 0-.03-.03-.15-.49l-.12-.48-1.5-.13C2 9.36 2 9.28 2 9.03v-.34h.02l1.5-.11a16.1 16.1 0 0 0 .25-.98l.56-.12a23.22 23.22 0 0 1 9.92.13l.13.5c.1.42.11.5.13.5l1.48.08.01.34v.34h-.08a77.58 77.58 0 0 1-1.43.12 14.7 14.7 0 0 0-.24.95c0 .02-.17.05-.6.13a25.68 25.68 0 0 1-5.22.43Zm1.53-.36c1.06-.04 2.08-.14 3.16-.32.4-.06.86-.17.87-.19 0-.01.15-.63.14-.64l-1.34.1-1.35.12h-.03v-.66l-.2.35-.21.35-1 .05-1 .05v-.6l-.4.59-.77-.04V8.76L7 8.8v.94l-3.12-.26h-.03l.08.33.08.32c0 .01.7.16 1.08.22 1.62.25 3.2.35 4.87.28Zm.29-1.18h.13V9.2h.44l.27-.45.27-.46.07-.23.07-.23h.05l.53.03.42.03v1.38h.05a31.09 31.09 0 0 0 1.55-.09h.05v-.1l-.01-.09-.53-.04-.47-.04h-.06v-.38h.08l.47.04.5.02-.14-.67c-.01-.02-.77-.2-1.23-.28a23.74 23.74 0 0 0-4.59-.29c-1.1.05-2.05.14-3.1.33-.48.08-1.06.23-1.07.25l-.15.7.49-.02a668 668 0 0 1 1.06-.05l.6-.03v-.24H5.66v.19H5.6a3.7 3.7 0 0 1-.39.04h-.07v-.55L7 7.84v.46l-.16.16h.06l1.8-.13v.58l.34-.63 1.85.13-.1.18-.11.18h-.81v.71h.17l.2-.02ZM6 9.1v-.23l-1.07.06L3.87 9c-.02 0-.03 0-.03.08v.08l.12.01 1.94.15H6v-.22Z" fill="#fff"/></svg>