<svg viewBox="0 0 200 200" fill="none" xmlns="http://www.w3.org/2000/svg">
  <path d="M149.599 69.5996H48.3994L35.3994 105.5H162.599L149.599 69.5996Z" fill="#00A564" stroke="#001E2B"
        stroke-width="0.5" stroke-miterlimit="10" stroke-linejoin="round"></path>
  <path d="M149.6 69.5996V105.5H162.6L149.6 69.5996Z" fill="#00222F" stroke="#001E2B" stroke-width="0.5"
        stroke-miterlimit="10" stroke-linejoin="round"></path>
  <path d="M48.3994 69.5996V105.5H35.3994L48.3994 69.5996Z" fill="#00885A" stroke="#001E2B" stroke-width="0.5"
        stroke-miterlimit="10" stroke-linejoin="round"></path>
  <path
    d="M102.8 89.2996L99.8 84.8996C98.8 83.4996 97.2 82.5996 95.5 82.5996H79.1C77.4 82.5996 75.8 83.3996 74.8 84.8996L71.8 89.2996C70.6 91.0996 68.5 92.0996 66.4 92.0996H43V155.2H155V92.0996H108.2C106 92.0996 104 90.9996 102.8 89.2996Z"
    fill="#FFC010" stroke="#001E2B" stroke-width="0.5" stroke-miterlimit="10"></path>
  <path
    d="M47.8994 139.9V76.2998H105.499C107.599 76.2998 109.499 75.2998 110.699 73.5998L113.699 69.1998C114.699 67.6998 116.399 66.7998 118.199 66.7998H134.499C136.299 66.7998 137.999 67.6998 138.999 69.1998L141.999 73.5998C143.199 75.2998 145.099 76.2998 147.199 76.2998H149.999V139.9H47.8994Z"
    fill="#FFEEA9"></path>
  <path
    d="M134.5 67.0996C136.2 67.0996 137.8 67.8996 138.8 69.3996L141.8 73.7996C143 75.5996 145.1 76.5996 147.2 76.5996H149.7V139.7H48.0996V76.5996H105.4C107.6 76.5996 109.6 75.4996 110.8 73.7996L113.8 69.3996C114.8 67.9996 116.4 67.0996 118.1 67.0996H134.5ZM134.5 66.5996H118.2C116.3 66.5996 114.6 67.4996 113.5 69.0996L110.5 73.4996C109.4 75.0996 107.5 76.0996 105.5 76.0996H48.0996H47.5996V76.5996V139.7V140.2H48.0996H149.7H150.2V139.7V76.5996V76.0996H149.7H147.2C145.2 76.0996 143.3 75.0996 142.2 73.4996L139.2 69.0996C138.1 67.4996 136.4 66.5996 134.5 66.5996Z"
    fill="#001E2B"></path>
  <path d="M109.4 30.1992L75.2998 87.8992L119.4 113.899L144.4 71.3992L153.4 56.0992L109.4 30.1992Z" fill="white"
        stroke="#231F20" stroke-width="0.5" stroke-miterlimit="10"></path>
  <path d="M136.599 49.599L110.099 33.999L78.8994 87.099L118.299 110.299L141.999 69.999L149.499 57.199L136.599 49.599Z"
        fill="#00ED64" stroke="#001E2B" stroke-width="0.5" stroke-miterlimit="10" stroke-linejoin="round"></path>
  <path
    d="M139.2 61.1992C139 61.1992 138.8 61.0992 138.6 60.9992L110.6 44.4992C110.3 44.2992 110.2 44.0992 110.1 43.7992C110 43.4992 110.1 43.1992 110.2 42.8992L110.3 42.7992C110.5 42.4992 110.9 42.1992 111.3 42.1992C111.5 42.1992 111.7 42.2992 111.9 42.3992L139.9 58.8992C140.5 59.1992 140.6 59.9992 140.3 60.4992C140.1 60.8992 139.7 61.1992 139.2 61.1992Z"
    fill="#FFEEA9"></path>
  <path
    d="M111.3 42.5996C111.5 42.5996 111.6 42.5996 111.7 42.6996L139.7 59.1996C140.1 59.4996 140.3 59.9996 140 60.4996C139.8 60.7996 139.5 60.9996 139.2 60.9996C139 60.9996 138.9 60.9996 138.7 60.8996L110.7 44.3996C110.3 44.1996 110.1 43.5996 110.4 43.1996L110.5 43.0996C110.7 42.6996 111 42.5996 111.3 42.5996ZM111.3 42.0996C110.8 42.0996 110.4 42.3996 110.1 42.7996L110 42.8996C109.8 43.1996 109.8 43.5996 109.9 43.8996C110 44.2996 110.2 44.5996 110.5 44.6996L138.5 61.1996C138.7 61.2996 139 61.3996 139.2 61.3996C139.7 61.3996 140.2 61.0996 140.4 60.6996C140.8 59.9996 140.6 59.0996 139.9 58.6996L111.9 42.1996C111.7 42.0996 111.5 42.0996 111.3 42.0996Z"
    fill="#001E2B"></path>
  <path
    d="M123.9 61.4991L106.6 51.2991C106.2 51.0991 106 50.4991 106.3 50.0991L106.4 49.9991C106.6 49.5991 107.2 49.3991 107.6 49.6991L124.9 59.8991C125.3 60.0991 125.5 60.6991 125.2 61.0991L125.1 61.1991C124.9 61.5991 124.3 61.7991 123.9 61.4991Z"
    fill="#00ED64" stroke="#001E2B" stroke-width="0.5" stroke-miterlimit="10" stroke-linejoin="round"></path>
  <path
    d="M130.1 75.6989L102 59.0989C101.6 58.8989 101.4 58.2989 101.7 57.8989L101.8 57.7989C102 57.3989 102.6 57.1989 103 57.4989L131 74.0989C131.4 74.2989 131.6 74.8989 131.3 75.2989L131.2 75.3989C131 75.7989 130.5 75.8989 130.1 75.6989Z"
    fill="#00ED64" stroke="#001E2B" stroke-width="0.5" stroke-miterlimit="10" stroke-linejoin="round"></path>
  <path
    d="M120.8 91.2991L92.7999 74.7991C92.3999 74.5991 92.1999 73.9991 92.4999 73.5991L92.5999 73.4991C92.7999 73.0991 93.3999 72.8991 93.7999 73.1991L121.9 89.6991C122.3 89.8991 122.5 90.4991 122.2 90.8991L122 90.9991C121.8 91.4991 121.3 91.5991 120.8 91.2991Z"
    fill="#00ED64" stroke="#001E2B" stroke-width="0.5" stroke-miterlimit="10" stroke-linejoin="round"></path>
  <path
    d="M112.2 75.6993L97.3995 66.9993C96.9995 66.7993 96.7995 66.1993 97.0995 65.7993L97.1995 65.6993C97.3995 65.2993 97.9995 65.0993 98.3995 65.3993L113.2 74.0993C113.6 74.2993 113.8 74.8993 113.5 75.2993L113.4 75.3993C113.2 75.7993 112.6 75.9993 112.2 75.6993Z"
    fill="#00ED64" stroke="#001E2B" stroke-width="0.5" stroke-miterlimit="10" stroke-linejoin="round"></path>
  <path
    d="M125.5 83.4991L117.6 78.7991C117.2 78.5991 117 77.9991 117.3 77.5991L117.4 77.4991C117.6 77.0991 118.2 76.8991 118.6 77.1991L126.5 81.8991C126.9 82.0991 127.1 82.6991 126.8 83.0991L126.7 83.1991C126.4 83.5991 125.9 83.7991 125.5 83.4991Z"
    fill="#00ED64" stroke="#001E2B" stroke-width="0.5" stroke-miterlimit="10" stroke-linejoin="round"></path>
  <path
    d="M134.7 67.7989L129.3 64.5989C128.9 64.3989 128.7 63.7989 129 63.3989L129.1 63.2989C129.3 62.8989 129.9 62.6989 130.3 62.9989L135.7 66.1989C136.1 66.3989 136.3 66.9989 136 67.3989L135.9 67.4989C135.6 67.9989 135.1 68.0989 134.7 67.7989Z"
    fill="#00ED64" stroke="#001E2B" stroke-width="0.5" stroke-miterlimit="10" stroke-linejoin="round"></path>
  <path
    d="M96.0993 87.2989L88.1993 82.5989C87.7993 82.3989 87.5993 81.7989 87.8993 81.3989L87.9993 81.2989C88.1993 80.8989 88.7993 80.6989 89.1993 80.9989L97.0993 85.6989C97.4993 85.8989 97.6993 86.4989 97.3993 86.8989L97.2993 86.9989C97.0993 87.3989 96.4993 87.5989 96.0993 87.2989Z"
    fill="#00ED64" stroke="#001E2B" stroke-width="0.5" stroke-miterlimit="10" stroke-linejoin="round"></path>
  <path
    d="M116.2 99.1993L100.6 89.9993C100.2 89.7993 99.9997 89.1993 100.3 88.7993L100.4 88.6993C100.6 88.2993 101.2 88.0993 101.6 88.3993L117.3 97.5993C117.7 97.7993 117.9 98.3993 117.6 98.7993L117.5 98.8993C117.2 99.2993 116.6 99.3993 116.2 99.1993Z"
    fill="#00ED64" stroke="#001E2B" stroke-width="0.5" stroke-miterlimit="10" stroke-linejoin="round"></path>
  <path
    d="M45.2998 146.4V82.7998H85.8998C87.9998 82.7998 89.8998 81.7998 91.0998 80.0998L94.0998 75.6998C95.0998 74.1998 96.7998 73.2998 98.5998 73.2998H114.9C116.7 73.2998 118.4 74.1998 119.4 75.6998L122.4 80.0998C123.6 81.7998 125.5 82.7998 127.6 82.7998H152.5V146.4H45.2998Z"
    fill="#FFC010"></path>
  <path
    d="M114.9 73.5996C116.6 73.5996 118.2 74.3996 119.2 75.8996L122.2 80.2996C123.4 82.0996 125.5 83.0996 127.6 83.0996H152.3V146.2H45.5V83.0996H85.9C88.1 83.0996 90.1 81.9996 91.3 80.2996L94.3 75.8996C95.3 74.4996 96.9 73.5996 98.6 73.5996H114.9ZM114.9 73.0996H98.6C96.7 73.0996 95 73.9996 93.9 75.5996L90.9 79.9996C89.8 81.5996 87.9 82.5996 85.9 82.5996H45.5H45V83.0996V146.2V146.7H45.5H152.3H152.8V146.2V83.0996V82.5996H152.3H127.6C125.6 82.5996 123.7 81.5996 122.6 79.9996L119.6 75.5996C118.6 73.9996 116.8 73.0996 114.9 73.0996Z"
    fill="#001E2B"></path>
  <path d="M31.0996 41.3996L62.2996 100.7L107.5 76.9996L84.5996 33.2996L76.2996 17.5996L31.0996 41.3996Z" fill="white"
        stroke="#231F20" stroke-width="0.5" stroke-miterlimit="10"></path>
  <path
    d="M61.9998 28.3994L34.7998 42.6994L63.3998 97.2994L103.9 75.9994L82.1998 34.5994L75.2998 21.3994L61.9998 28.3994Z"
    fill="#00ED64" stroke="#001E2B" stroke-width="0.5" stroke-miterlimit="10" stroke-linejoin="round"></path>
  <path
    d="M72.5995 32.4997L43.8995 47.5997C43.4995 47.7997 42.8995 47.6997 42.6995 47.1997L42.5995 47.0997C42.3995 46.6997 42.4995 46.0997 42.9995 45.8997L71.7995 30.7997C72.2995 30.5997 72.7995 30.6997 73.0995 31.1997C73.2995 31.6997 73.0995 32.2997 72.5995 32.4997Z"
    fill="#00ED64" stroke="#001E2B" stroke-width="0.5" stroke-miterlimit="10" stroke-linejoin="round"></path>
  <path
    d="M65.3997 45.4997L47.5997 54.7997C47.1997 54.9997 46.5997 54.8997 46.3997 54.3997L46.2997 54.2997C46.0997 53.8997 46.1997 53.2997 46.6997 53.0997L64.4997 43.7997C64.8997 43.5997 65.4997 43.6997 65.6997 44.1997L65.7997 44.2997C65.9997 44.7997 65.8997 45.2997 65.3997 45.4997Z"
    fill="#00ED64" stroke="#001E2B" stroke-width="0.5" stroke-miterlimit="10" stroke-linejoin="round"></path>
  <path
    d="M51.4995 63.1998C51.0995 63.1998 50.6995 62.9998 50.4995 62.5998L50.3995 62.4998C50.0995 61.9998 50.2995 61.2998 50.8995 60.9998L79.6995 45.8998C79.8995 45.7998 79.9995 45.7998 80.1995 45.7998C80.5995 45.7998 80.9995 45.9998 81.1995 46.3998L81.2995 46.4998C81.5995 46.9998 81.3995 47.6998 80.7995 47.9998L51.9995 63.0998C51.7995 63.1998 51.6995 63.1998 51.4995 63.1998Z"
    fill="#FFEEA9"></path>
  <path
    d="M80.2995 46C80.5995 46 80.8995 46.2 81.0995 46.5L81.1994 46.6C81.3995 47 81.2995 47.6 80.7995 47.8L51.8995 62.9C51.7995 63 51.5995 63 51.4995 63C51.1995 63 50.8995 62.8 50.6995 62.5L50.5995 62.4C50.3995 62 50.4995 61.4 50.9995 61.2L79.7995 46.1C79.9995 46 80.0995 46 80.2995 46ZM80.2995 45.5C80.0995 45.5 79.8995 45.6 79.6994 45.7L50.7995 60.8C50.0995 61.2 49.8995 62 50.1995 62.7L50.2995 62.8C50.4995 63.3 50.9995 63.5 51.4995 63.5C51.6995 63.5 51.8995 63.4 52.0995 63.3L80.9995 48.2C81.2995 48 81.5994 47.7 81.6994 47.4C81.7994 47.1 81.7995 46.7 81.5995 46.4L81.4995 46.3C81.1995 45.8 80.7995 45.5 80.2995 45.5Z"
    fill="#001E2B"></path>
  <path
    d="M89.1999 63.8001L60.2999 79.0001C59.8999 79.2001 59.2999 79.1001 59.0999 78.6001L58.9999 78.5001C58.7999 78.1001 58.8999 77.5001 59.3999 77.3001L88.1999 62.2001C88.5999 62.0001 89.1999 62.1001 89.3999 62.6001L89.4999 62.7001C89.7999 63.1001 89.5999 63.6001 89.1999 63.8001Z"
    fill="#00ED64" stroke="#001E2B" stroke-width="0.5" stroke-miterlimit="10" stroke-linejoin="round"></path>
  <path
    d="M71.3993 62.9001L56.1993 70.9001C55.7993 71.1001 55.1993 71.0001 54.9993 70.5001L54.8993 70.4001C54.6993 70.0001 54.7993 69.4001 55.2993 69.2001L70.4993 61.2001C70.8993 61.0001 71.4993 61.1001 71.6993 61.6001L71.7993 61.7001C71.8993 62.2001 71.7993 62.7001 71.3993 62.9001Z"
    fill="#00ED64" stroke="#001E2B" stroke-width="0.5" stroke-miterlimit="10" stroke-linejoin="round"></path>
  <path
    d="M84.8993 55.7995L76.6993 60.0995C76.2993 60.2995 75.6993 60.1995 75.4993 59.6995L75.3993 59.5995C75.1993 59.1995 75.2993 58.5995 75.7993 58.3995L83.9993 54.0995C84.3993 53.8995 84.9993 53.9995 85.1993 54.4995L85.2993 54.5995C85.4993 54.9995 85.3993 55.5995 84.8993 55.7995Z"
    fill="#00ED64" stroke="#001E2B" stroke-width="0.5" stroke-miterlimit="10" stroke-linejoin="round"></path>
  <path
    d="M76.5001 39.6999L71.0001 42.5999C70.6001 42.7999 70.0001 42.6999 69.8001 42.1999L69.7001 42.0999C69.5001 41.6999 69.6001 41.0999 70.1001 40.8999L75.6001 37.9999C76.0001 37.7999 76.6001 37.8999 76.8001 38.3999L76.9001 38.4999C77.1001 38.8999 76.9001 39.4999 76.5001 39.6999Z"
    fill="#00ED64" stroke="#001E2B" stroke-width="0.5" stroke-miterlimit="10" stroke-linejoin="round"></path>
  <path
    d="M72.6997 82.7999L64.5997 86.9999C64.1997 87.1999 63.5997 87.0999 63.3997 86.5999L63.2997 86.4999C63.0997 86.0999 63.1997 85.4999 63.6997 85.2999L71.8997 80.9999C72.2997 80.7999 72.8997 80.8999 73.0997 81.3999L73.1997 81.4999C73.2997 81.9999 73.0997 82.4999 72.6997 82.7999Z"
    fill="#00ED64" stroke="#001E2B" stroke-width="0.5" stroke-miterlimit="10" stroke-linejoin="round"></path>
  <path
    d="M93.3999 71.9001L77.2999 80.4001C76.8999 80.6001 76.2999 80.5001 76.0999 80.0001L75.9999 79.9001C75.7999 79.5001 75.8999 78.9001 76.3999 78.7001L92.4999 70.2001C92.8999 70.0001 93.4999 70.1001 93.6999 70.6001L93.7999 70.7001C93.9999 71.1001 93.7999 71.7001 93.3999 71.9001Z"
    fill="#00ED64" stroke="#001E2B" stroke-width="0.5" stroke-miterlimit="10" stroke-linejoin="round"></path>
  <path
    d="M42.6992 152.9V89.2998H66.3992C68.4992 89.2998 70.3992 88.2998 71.5992 86.5998L74.5992 82.1998C75.5992 80.6998 77.2992 79.7998 79.0992 79.7998H95.3992C97.1992 79.7998 98.8992 80.6998 99.8992 82.1998L102.899 86.5998C104.099 88.2998 105.999 89.2998 108.099 89.2998H155.199V152.9H42.6992Z"
    fill="#FFEEA9"></path>
  <path
    d="M95.3994 80.0996C97.0994 80.0996 98.6994 80.8996 99.6994 82.3996L102.699 86.7996C103.899 88.5996 105.999 89.5996 108.099 89.5996H154.899V152.7H42.8994V89.5996H66.2994C68.4994 89.5996 70.4994 88.4996 71.6994 86.7996L74.6994 82.3996C75.6994 80.9996 77.2994 80.0996 78.9994 80.0996H95.3994ZM95.3994 79.5996H78.9994C77.0994 79.5996 75.3994 80.4996 74.2994 82.0996L71.2994 86.4996C70.1994 88.0996 68.2994 89.0996 66.2994 89.0996H42.8994H42.3994V89.5996V152.7V153.2H42.8994H154.899H155.399V152.7V89.5996V89.0996H154.899H108.099C106.099 89.0996 104.199 88.0996 103.099 86.4996L100.099 82.0996C98.9994 80.4996 97.1994 79.5996 95.3994 79.5996Z"
    fill="#001E2B"></path>
  <path
    d="M40.0996 159.4V95.7998H46.7996C48.8996 95.7998 50.7996 94.7998 51.9996 93.0998L54.9996 88.6998C55.9996 87.1998 57.6996 86.2998 59.4996 86.2998H75.7996C77.5996 86.2998 79.2996 87.1998 80.2996 88.6998L83.2996 93.0998C84.4996 94.7998 86.3996 95.7998 88.4996 95.7998H157.8V159.4H40.0996Z"
    fill="#FFC010"></path>
  <path
    d="M75.8994 86.5996C77.5994 86.5996 79.1994 87.3996 80.1994 88.8996L83.1994 93.2996C84.3994 95.0996 86.3994 96.0996 88.5994 96.0996H157.599V159.2H40.3994V95.9996H46.8994C49.0994 95.9996 51.0994 94.8996 52.2994 93.1996L55.2994 88.7996C56.2994 87.3996 57.8994 86.4996 59.5994 86.4996H75.8994V86.5996ZM75.8994 86.0996H59.5994C57.6994 86.0996 55.9994 86.9996 54.8994 88.5996L51.8994 92.9996C50.7994 94.5996 48.8994 95.5996 46.8994 95.5996H40.3994H39.8994V95.9996V159.1V159.6H40.3994H157.599H158.099V159.1V95.9996V95.4996H157.599H88.5994C86.5994 95.4996 84.6994 94.4996 83.5994 92.8996L80.5994 88.4996C79.4994 86.9996 77.7994 86.0996 75.8994 86.0996Z"
    fill="#001E2B"></path>
  <path d="M162.699 105.5H35.3994V178.6H162.699V105.5Z" fill="#00ED64" stroke="#001E2B" stroke-width="0.5"
        stroke-miterlimit="10" stroke-linejoin="round"></path>
  <path
    d="M115.199 129.6H82.799C79.099 129.6 75.999 126.6 75.999 122.8C75.999 119.1 78.999 116 82.799 116H115.299C118.999 116 122.099 119 122.099 122.8C121.999 126.6 118.999 129.6 115.199 129.6Z"
    fill="#00222F" stroke="#001E2B" stroke-width="0.5" stroke-miterlimit="10" stroke-linejoin="round"></path>
  <path d="M162.599 105.5H137.799L125.899 178.6H162.599V105.5Z" fill="#00222F" stroke="#001E2B" stroke-width="0.5"
        stroke-miterlimit="10" stroke-linejoin="round"></path>
  <path
    d="M115.2 116.1H82.7998C80.8998 116.1 79.0998 116.9 77.8998 118.2C77.4998 119 77.2998 119.9 77.2998 120.9C77.2998 124.6 80.2998 127.7 84.0998 127.7H116.6C118.5 127.7 120.3 126.9 121.5 125.6C121.9 124.8 122.1 123.9 122.1 122.9C122 119.1 119 116.1 115.2 116.1Z"
    fill="#FFEEA9" stroke="#001E2B" stroke-width="0.5" stroke-miterlimit="10"></path>
</svg>
