<svg xmlns="http://www.w3.org/2000/svg" viewBox="0 0 595.46 436.38">
  <defs>
    <clipPath id="d">
      <path style="fill:none" d="M147.76 109.78h334.32v238.39H147.76z"/>
    </clipPath>
    <style>
      .f{fill:none;stroke-dasharray:0 0 2.04 2.04}.f,.i{stroke:#001e2b}.f,.l{stroke-miterlimit:10}.m{fill:#0d427c}.i,.m,.o,.q{stroke-linecap:round;stroke-linejoin:round}.m,.o,.q{stroke:#001932}.l{stroke:#001f2c}.i,.l{fill:#fff}.o{fill:#001932}.q{fill:#00d2ff}
    </style>
  </defs>
  <g id="b">
    <g id="c">
      <circle class="m" cx="141.01" cy="126.36" r="9.81"/>
      <path class="o" d="m147.11 134.21-21.97 21.97"/>
      <path class="f" d="m141.01 126.36-42.22 42.23"/>
      <path class="i" d="M147.76 109.49h334.32v238.39H147.76z"/>
      <path style="fill:#00ed64;stroke-miterlimit:10;stroke:#001e2b" d="M147.76 109.49h334.32v27.14H147.76z"/>
      <circle class="i" cx="164.38" cy="122.53" r="5.48"/>
      <circle class="i" cx="183.43" cy="122.38" r="5.48"/>
      <circle class="i" cx="202.7" cy="122.53" r="5.48"/>
      <path style="fill:#e3fcf7" d="M163.26 153.58h303.32v177.17H163.26z"/>
      <path class="o" d="m94.94 47.25-4.16-13.74-11.61-3.55 11.61-3.54 4.16-13.74 4.17 13.74 11.61 3.54-11.61 3.55-4.17 13.74z"/>
      <path style="fill:#e3fcf7;stroke-linecap:round;stroke-linejoin:round;stroke:#001e2b" d="m98.78 44.06-4.17-13.74L83 26.78l11.61-3.54 4.17-13.75 4.16 13.75 11.62 3.54-11.62 3.54-4.16 13.74z"/>
      <circle class="q" cx="452.3" cy="331.69" r="104.19"/>
      <path class="o" d="M481.68 406.33c-57.54 0-104.19-46.65-104.19-104.19 0-21.12 6.29-40.78 17.1-57.2-28.01 18.68-46.47 50.55-46.47 86.75 0 57.54 46.65 104.19 104.19 104.19 36.42 0 68.46-18.69 87.09-46.99-16.52 11.02-36.37 17.44-57.72 17.44Z"/>
      <g style="clip-path:url(#d)">
        <path style="fill:#001f2c;stroke:#001f2c;stroke-miterlimit:10" d="m111.5 197.51.38 23.74 53.23 21.06-52.85 21.83v23.74l86.16-36.38-.38-18.38-86.54-35.61z"/>
        <circle class="o" cx="243.34" cy="263" r="16"/>
        <path class="o" d="M337.24 185.77h-25.58L274.37 279h24.5l38.37-93.23z"/>
      </g>
      <path style="stroke:#001f2c;fill:#97ff00;stroke-linecap:round;stroke-linejoin:round" d="M122.11 177.98v23.74l53.61 21.45-53.23 21.44v23.74l86.16-36.37v-18.39l-86.54-35.61z"/>
      <circle class="o" cx="175.64" cy="36.54" r="27.87"/>
      <circle class="l" cx="255.56" cy="255.21" r="16"/>
      <path class="l" d="M352.91 177.98h-25.58l-37.29 93.23h24.51l38.36-93.23z"/>
      <circle cx="182.69" cy="28.37" r="27.87" style="fill:#006cfa;stroke:#001932;stroke-linecap:round;stroke-linejoin:round"/>
      <path class="o" d="m101.93 69.71 61.05-61.05"/>
      <path class="f" d="m202.39 48.08-38.07 38.07"/>
      <path class="o" d="m182.69 28.37-98.32 98.32M73.75 137.35l-15.19 15.19"/>
      <circle class="m" cx="42.58" cy="100.69" r="9.81"/>
      <path class="o" d="m34.74 94.6-21.98 21.97"/>
      <path class="f" d="M42.58 100.69.35 142.91"/>
      <path class="q" d="M421.61 340.41h114.53M359.31 306.52h72.57M448.37 306.52h15.5M428.52 264.97h62.93M513.09 372.6h35.06"/>
      <circle class="i" cx="582.37" cy="310.92" r="12.59"/>
      <path d="M582.41 323.51c-6.95 0-12.58-5.62-12.59-12.57 0-3.16 1.19-6.21 3.33-8.54-.4 1.24-.6 2.53-.6 3.83 0 6.95 5.62 12.59 12.56 12.59 3.54 0 6.92-1.48 9.3-4.1a12.596 12.596 0 0 1-12.01 8.78Z" style="fill:#001e2b"/>
      <path class="f" d="M452.3 203.66c55.9 0 103.43 35.82 120.89 85.75"/>
      <path style="stroke-linecap:round;stroke-linejoin:round;stroke:#001e2b;fill:none" d="M428.52 391.76h27.6"/>
      <path class="i" d="m35.3 203.15-4.16-13.74-11.62-3.54 11.62-3.54 4.16-13.74 4.17 13.74 11.61 3.54-11.61 3.54-4.17 13.74z"/>
      <path class="o" d="m331.97 435.88-4.17-13.74-11.61-3.54 11.61-3.55 4.17-13.74 4.16 13.74 11.61 3.55-11.61 3.54-4.16 13.74z"/>
      <circle class="l" cx="255.56" cy="255.21" r="16"/>
    </g>
  </g>
</svg>
