<svg xmlns="http://www.w3.org/2000/svg" height="40px" viewBox="0 0 1500.000000 342.000000"
     preserveAspectRatio="xMidYMid meet">
  <g transform="translate(0.000000,342.000000) scale(0.100000,-0.100000)"
     fill="#000000" stroke="none">
    <path fill="#11bd50"
          d="M3 3406 c8 -21 1737 -3358 1753 -3383 l14 -23 433 0 c441 0 601 8 742 36 581 116 1062 542 1244 1102 92 280 106 605 40 892 -176 764 -805 1312 -1584 1379 -75 7 -598 11 -1384 11 -1074 0 -1262 -2 -1258 -14z"/>
    <path
      d="M5920 1958 c0 -178 -3 -434 -7 -570 l-6 -248 41 0 42 0 0 526 0 527 360 -524 360 -524 45 -3 45 -3 0 570 0 571 -35 0 -35 0 -2 -520 -3 -521 -355 518 -356 518 -47 3 -47 3 0 -323z"/>
    <path
      d="M7480 1710 l0 -570 390 0 390 0 0 30 0 30 -350 0 -350 0 0 250 0 250 325 0 325 0 0 35 0 35 -325 0 -325 0 0 225 0 225 345 0 345 0 0 30 0 30 -385 0 -385 0 0 -570z"/>
    <path
      d="M8730 2250 l0 -30 200 0 200 0 0 -540 0 -540 40 0 40 0 0 540 0 540 200 0 200 0 0 30 0 30 -440 0 -440 0 0 -30z"/>
    <path
      d="M10180 2102 c0 -98 3 -355 7 -571 l6 -393 206 4 c190 4 211 6 273 30 91 34 157 79 222 149 167 180 192 450 61 675 -40 69 -149 173 -222 212 -106 56 -192 72 -385 72 l-168 0 0 -178z m420 93 c221 -67 371 -267 371 -495 0 -101 -11 -151 -51 -230 -58 -114 -163 -202 -288 -240 -53 -16 -93 -20 -223 -20 l-159 0 0 506 0 507 148 -6 c93 -3 167 -12 202 -22z"/>
    <path
      d="M11947 2193 c-19 -48 -121 -301 -226 -562 -105 -261 -191 -478 -191 -483 0 -4 17 -8 38 -8 l37 1 70 179 70 180 274 -2 274 -3 70 -177 70 -178 39 0 c33 0 38 3 34 18 -4 9 -104 265 -224 567 l-217 550 -41 3 -41 3 -36 -88z m203 -313 c61 -162 113 -297 116 -302 3 -4 -107 -8 -244 -8 l-250 0 117 298 c65 163 121 306 125 317 10 28 8 32 136 -305z"/>
    <path
      d="M12820 2250 l0 -30 200 0 200 0 0 -540 0 -540 40 0 40 0 0 540 0 540 200 0 200 0 0 30 0 30 -440 0 -440 0 0 -30z"/>
    <path
      d="M14460 2255 c-13 -33 -413 -1026 -435 -1078 l-16 -38 42 3 41 3 71 178 71 177 274 -2 275 -3 69 -177 70 -178 39 0 c21 0 39 1 39 3 0 1 -101 256 -223 567 l-223 565 -42 3 c-37 3 -43 0 -52 -23z m191 -408 c56 -147 100 -270 97 -272 -3 -3 -113 -4 -245 -3 l-241 3 58 145 c31 80 88 223 125 318 l68 174 19 -49 c10 -26 64 -169 119 -316z"/>
  </g>
</svg>
