<svg xmlns="http://www.w3.org/2000/svg" xmlns:xlink="http://www.w3.org/1999/xlink" viewBox="0 0 368.69 125.59">
  <defs>
    <style>
      .cls-1{fill:none}.cls-2{clip-path:url(#clip-path)}.cls-3{fill:#a32422}.cls-4{fill:#dc382c}.cls-5{fill:#000}.cls-6{fill:#741113}.cls-7{fill:#ac2724}
    </style>
    <clipPath id="clip-path" transform="translate(0.01 0.01)">
      <rect class="cls-1" width="146.42" height="125.48"></rect>
    </clipPath>
  </defs>
  <g id="Layer_2">
    <g id="Layer_1-2">
      <g class="cls-2">
        <path class="cls-3"
              d="M140.66 96.74c-7.8 4.08-48.28 20.73-57 25.3s-13.39 4.44-20.21 1.18S13.7 102.5 5.92 98.78C2 96.94.0 95.37.0 93.9V79.09S56.08 66.92 65.13 63.64 77.31 60.28 85 63.1 138.79 74.24 146.4 77V91.6c0 1.52-1.75 3-5.74 5.13z"
              transform="translate(0.01 0.01)"></path>
        <path class="cls-4"
              d="M140.66 82c-7.8 4.06-48.28 20.71-57 25.2s-13.39 4.45-20.21 1.2S13.7 87.69 5.92 84s-7.93-6.27-.3-9.25S56.08 55 65.13 51.7 77.31 48.33 85 51.16 133 70 140.57 72.79s7.92 5.08.09 9.13z"
              transform="translate(0.01 0.01)"></path>
        <path class="cls-3"
              d="M140.66 72.62c-7.8 4.07-48.28 20.71-57 25.2S70.31 102.27 63.49 99 13.7 78.37 5.92 74.66C2 72.8.0 71.24.0 69.76V55S56.08 42.79 65.13 39.51 77.31 36.14 85 39s53.79 11.1 61.4 13.88v14.6C146.4 69 144.65 70.52 140.66 72.62z"
              transform="translate(0.01 0.01)"></path>
        <path class="cls-4"
              d="M140.66 57.81c-7.8 4.08-48.28 20.72-57 25.21s-13.39 4.46-20.21 1.2S13.7 63.57 5.92 59.85-2 53.6 5.62 50.62s50.46-19.79 59.51-23S77.31 24.21 85 27s48 18.94 55.57 21.65 7.92 5.09.09 9.13z"
              transform="translate(0.01 0.01)"></path>
        <path class="cls-3"
              d="M140.66 47.59c-7.8 4.08-48.28 20.73-57 25.21S70.31 77.25 63.49 74 13.7 53.34 5.92 49.63C2 47.79.0 46.22.0 44.74V29.93S56.08 17.76 65.13 14.49 77.31 11.12 85 13.94s53.77 11.14 61.38 13.92v14.6C146.4 44 144.65 45.5 140.66 47.59z"
              transform="translate(0.01 0.01)"></path>
        <path class="cls-4"
              d="M140.66 32.8c-7.8 4-48.28 20.75-57 25.2s-13.39 4.44-20.21 1.2S13.7 38.53 5.92 34.83s-7.93-6.27-.3-9.25S56.08 5.8 65.13 2.54 77.31-.82 85 2s48 18.85 55.57 21.63 7.92 5.09.09 9.14z"
              transform="translate(0.01 0.01)"></path>
      </g>
      <polygon fill="#fff"
               points="75.51 11.78 85.17 8.61 82.55 14.87 92.38 18.55 79.71 19.87 76.86 26.71 72.28 19.08 57.63 17.76 68.57 13.82 65.28 7.76 75.51 11.78 75.51 11.78 75.51 11.78"></polygon>
      <polygon fill="#fff" points="76.12 51.71 52.44 41.88 86.36 36.67 76.12 51.71 76.12 51.71 76.12 51.71"></polygon>
      <path fill="#fff" d="M43.28 22.34c10 0 18.13 3.15 18.13 7s-8.15 7-18.13 7-18.14-3.15-18.14-7 8.13-7 18.14-7z"
            transform="translate(0.01 0.01)"></path>
      <polygon class="cls-6"
               points="107.39 20.42 127.46 28.35 107.41 36.28 107.39 20.42 107.39 20.42 107.39 20.42"></polygon>
      <polygon class="cls-7"
               points="107.39 20.42 107.41 36.28 105.23 37.13 85.17 29.2 107.39 20.42 107.39 20.42 107.39 20.42"></polygon>
      <path class="cls-5"
            d="M193 41.4a17.36 17.36.0 016.23-4.34 20 20 0 017.3-1.61 6.71 6.71.0 015 1.61 5 5 0 011.52 3.79 5.39 5.39.0 01-1.52 3.79 4.9 4.9.0 01-3.79 1.63c-6.24.55-14.9 6.77-14.9 15.22V80.67a5.57 5.57.0 01-5.42 5.41 4.92 4.92.0 01-3.87-1.67 5.36 5.36.0 01-1.62-3.79v-40a5.35 5.35.0 011.62-3.79 7.2 7.2.0 014.07-1.36 5.52 5.52.0 015.41 5.4z"
            transform="translate(0.01 0.01)"></path>
      <path class="cls-5"
            d="M258.71 59a5.25 5.25.0 01-1.35 3.54 6.11 6.11.0 01-3.79 1.62h-32a10.31 10.31.0 003.47 6.56 14.46 14.46.0 009.48 4.57 14.07 14.07.0 0010.56-2.44 5.52 5.52.0 014.07-1.63 4.65 4.65.0 013.51 1.36 4.41 4.41.0 01.26 6.24c-.08.09-.17.17-.26.26a24.49 24.49.0 01-17.59 6.5A23 23 0 01217.5 78a26.67 26.67.0 01-7.3-17.9 24.31 24.31.0 017.3-17.88 22.59 22.59.0 0117.06-7.31 22 22 0 0116.74 6.78 24.78 24.78.0 017.61 16.74v.53zm-24.1-14.35a14.2 14.2.0 00-9.13 3.53 13.17 13.17.0 00-4.33 7h28.43a12.39 12.39.0 00-4.88-6.76 17.3 17.3.0 00-10-3.81"
            transform="translate(0.01 0.01)"></path>
      <path class="cls-5"
            d="M309.66 80.12a5.57 5.57.0 01-5.41 5.42 5.85 5.85.0 01-5.42-4.34A23.23 23.23.0 01285 85.54a23.57 23.57.0 01-17.33-7.31 24.14 24.14.0 01-7.05-17.88 25.75 25.75.0 017.05-17.87A23.85 23.85.0 01285 34.87a22.34 22.34.0 0113.53 4.34V20.28a4.92 4.92.0 011.63-3.79A5.37 5.37.0 01304 14.86a4.92 4.92.0 013.79 1.63 5.36 5.36.0 011.63 3.79V80.12zM285.31 74.7a12 12 0 009.47-4.32 14.4 14.4.0 000-20A13 13 0 00285.31 46a11.65 11.65.0 00-9.48 4.34 14.4 14.4.0 000 20 12.49 12.49.0 009.48 4.32"
            transform="translate(0.01 0.01)"></path>
      <path class="cls-5"
            d="M325.67 20.28v2.18A5.5 5.5.0 01324 26.58a4.64 4.64.0 01-3.79 1.35 4.86 4.86.0 01-3.78-1.61 5.44 5.44.0 01-1.63-4.06v-2a5.28 5.28.0 011.63-3.79 5.33 5.33.0 013.78-1.63A5 5 0 01324 16.49a4.9 4.9.0 011.66 3.79m-9.13 16.53a5.28 5.28.0 013.79-1.63 4.85 4.85.0 013.79 1.63 5.48 5.48.0 011.55 4V80.42A4.55 4.55.0 01324 84.21a5.33 5.33.0 01-3.78 1.63 4.9 4.9.0 01-3.79-1.63 5.28 5.28.0 01-1.63-3.79V40.85a5.39 5.39.0 011.63-4"
            transform="translate(0.01 0.01)"></path>
      <path class="cls-5"
            d="M364.08 40.6a5.29 5.29.0 012.17 3.24 7.17 7.17.0 01-.54 4.06 5.4 5.4.0 01-3.25 2.16 5.61 5.61.0 01-4.07-.81c-3.79-2.43-6.75-3.78-9.2-3.78a8.74 8.74.0 00-6 1.88c-1.08.82-1.62 1.36-1.62 1.9a2 2 0 00.27 1.36 3.74 3.74.0 001.08.81 16.19 16.19.0 007.32 2.43h0a37.75 37.75.0 019.74 3 13.57 13.57.0 016.5 5.7 13.46 13.46.0 01-4.06 18.67 21.79 21.79.0 01-13 4.06c-6.23.0-12.18-2.43-17.87-7a5.77 5.77.0 01-1.9-3.53 5.2 5.2.0 018.4-4.56 15.73 15.73.0 0011.1 4.33 11.61 11.61.0 006.77-1.9c1.08-1.08 1.9-1.89 1.9-2.71s0-1.08-.27-1.35c0-.28-.55-.81-1.36-1.08a20.15 20.15.0 00-8.13-2.86h0a28.26 28.26.0 01-9.2-3 16.56 16.56.0 01-6.5-5.67 12.61 12.61.0 01-1.61-6.23 13.3 13.3.0 015.95-11.11 21.82 21.82.0 0112.45-3.79c4.56.28 9.48 2.16 14.89 5.69"
            transform="translate(0.01 0.01)"></path>
    </g>
  </g>
</svg>
