<svg xmlns="http://www.w3.org/2000/svg" width="453.18" height="68.88" viewBox="0 0 119.904 18.224">
  <defs>
    <linearGradient id="a" x1="3864.982" x2="3893.389" y1="49.001" y2="49.001"
                    gradientTransform="matrix(-1 0 0 1 3894.245 0)" gradientUnits="userSpaceOnUse">
      <stop offset="0" style="stop-color:#d81222"/>
      <stop offset="1" style="stop-color:#960b1a"/>
    </linearGradient>
  </defs>
  <g transform="translate(13.083 -171.471)">
    <path
      d="M1.943 188.93H.038v-9.207h1.905ZM9.113 182.502c.45.37.661.979.661 1.825v4.604H7.95v-4.128c0-.37-.053-.635-.132-.82-.186-.344-.503-.529-1.006-.529-.608 0-1.005.265-1.243.767a2.77 2.77 0 0 0-.186 1.032v3.704H3.61v-6.826h1.72v1.006c.238-.344.45-.609.634-.768.37-.264.82-.423 1.403-.423.714 0 1.296.185 1.746.556zM10.648 183.454v-1.27h.952v-1.905h1.773v1.905h1.111v1.27h-1.111v3.598c0 .291.026.45.106.53.079.079.29.105.661.105h.371v1.323l-.9.027c-.847.026-1.429-.106-1.72-.45-.212-.212-.29-.53-.29-.952v-4.18zM19.96 182.263a2.9 2.9 0 0 1 1.192 1.006c.29.397.45.873.555 1.402.053.318.08.767.053 1.35h-4.974c.026.687.264 1.164.714 1.428.265.159.609.265.98.265.396 0 .74-.106.978-.318a1.42 1.42 0 0 0 .37-.476h1.826c-.053.397-.264.82-.661 1.244-.609.661-1.455 1.005-2.567 1.005-.9 0-1.72-.291-2.407-.847-.688-.555-1.032-1.481-1.032-2.725 0-1.19.317-2.09.952-2.725.635-.635 1.429-.953 2.434-.953.582.027 1.112.133 1.588.344zm-2.671 1.535c-.265.265-.424.609-.477 1.058h3.07c-.027-.476-.186-.82-.477-1.084a1.61 1.61 0 0 0-1.058-.37c-.45 0-.794.131-1.058.396zM26.576 181.972h.158v1.826c-.106 0-.211-.026-.29-.026h-.212c-.715 0-1.191.238-1.456.687-.132.265-.211.662-.211 1.218v3.254h-1.8v-6.8h1.694v1.19c.264-.45.503-.767.714-.925.344-.291.768-.424 1.297-.424.053-.026.08-.026.106 0zM30.465 184.803c.344-.052.582-.105.714-.158.265-.106.397-.265.397-.503 0-.291-.106-.476-.29-.582-.186-.106-.477-.159-.874-.159-.423 0-.74.106-.9.318-.132.158-.211.37-.264.635h-1.72c.027-.609.212-1.085.503-1.482.476-.609 1.296-.9 2.434-.9.74 0 1.429.16 2.01.45.583.291.874.847.874 1.667v3.916c0 .238.053.397.106.476a.72.72 0 0 0 .264.212v.264h-1.931a2.203 2.203 0 0 1-.106-.396c-.027-.133-.027-.265-.053-.424-.238.265-.53.503-.847.688-.396.212-.82.344-1.323.344-.608 0-1.137-.185-1.534-.53-.397-.343-.609-.846-.609-1.507 0-.847.318-1.455.98-1.826.37-.212.872-.344 1.587-.45zm1.085.82c-.106.08-.238.133-.344.186-.106.053-.265.08-.477.132l-.396.08c-.37.079-.662.158-.82.238-.292.158-.424.423-.424.767 0 .317.08.53.265.661.158.133.37.212.635.212.397 0 .74-.106 1.084-.344.318-.238.503-.635.503-1.243v-.688zM38.932 184.565a1.298 1.298 0 0 0-.265-.688c-.212-.264-.503-.423-.926-.423-.609 0-1.005.291-1.244.9-.105.317-.185.74-.185 1.27 0 .502.053.9.185 1.217.212.555.609.846 1.217.846.424 0 .715-.105.9-.344.185-.238.291-.529.318-.873h1.825a3.046 3.046 0 0 1-.582 1.535c-.556.767-1.376 1.164-2.487 1.164-1.111 0-1.905-.317-2.434-.979-.53-.661-.767-1.508-.767-2.54 0-1.164.29-2.09.846-2.725.582-.662 1.35-.98 2.381-.98.847 0 1.562.186 2.09.583.53.397.874 1.058.98 2.037zM41.34 183.454v-1.27h.952v-1.905h1.772v1.905h1.112v1.27h-1.112v3.598c0 .291.027.45.106.53.08.079.291.105.662.105h.37v1.323l-.873.027c-.847.026-1.429-.106-1.72-.45-.211-.212-.29-.53-.29-.952v-4.18zM48.166 181.31h-1.8v-1.64h1.8zm-1.826.821h1.8v6.826h-1.8zM53.96 182.131h1.905l-2.46 6.826h-1.88l-2.433-6.826h2.01l1.43 5.027zM61.077 182.263a2.9 2.9 0 0 1 1.19 1.006c.292.397.45.873.556 1.402.053.318.08.767.053 1.35h-4.974c.027.687.265 1.164.715 1.428.264.159.608.265.978.265.397 0 .741-.106.98-.318a1.42 1.42 0 0 0 .37-.476h1.825c-.052.397-.264.82-.661 1.244-.609.661-1.455 1.005-2.566 1.005-.9 0-1.72-.291-2.408-.847-.688-.555-1.032-1.481-1.032-2.725 0-1.19.317-2.09.952-2.725.635-.635 1.43-.953 2.435-.953.582.027 1.11.133 1.587.344zm-2.672 1.535c-.265.265-.423.609-.476 1.058h3.069c-.027-.476-.185-.82-.476-1.084a1.61 1.61 0 0 0-1.059-.37c-.45 0-.794.131-1.058.396zM64.04 179.75h3.97c1.084 0 1.851.317 2.301.952.265.37.397.82.397 1.323 0 .582-.159 1.059-.503 1.43-.158.184-.423.37-.74.528.476.185.82.37 1.058.609.423.397.608.952.608 1.667 0 .582-.185 1.137-.555 1.614-.556.714-1.455 1.084-2.673 1.084h-3.915v-9.207zm3.52 3.89c.529 0 .952-.08 1.243-.212.476-.239.688-.635.688-1.244 0-.608-.238-1.005-.74-1.217-.292-.106-.689-.185-1.244-.185h-2.25v2.857zm.423 4.233c.767 0 1.323-.212 1.64-.662.212-.29.318-.608.318-1.005 0-.662-.291-1.112-.9-1.376-.317-.132-.74-.185-1.27-.185h-2.487v3.228zM72.507 182.237h1.059v1.164c.079-.238.29-.503.635-.82.343-.318.74-.476 1.19-.476h.106c.053 0 .132 0 .265.026v1.19c-.08 0-.133-.026-.186-.026h-.185c-.555 0-1.005.186-1.296.556-.318.37-.45.794-.45 1.27v3.863h-1.138zM81.53 182.898c.582.583.9 1.43.9 2.54 0 1.085-.266 1.985-.795 2.673-.529.714-1.323 1.058-2.434 1.058-.926 0-1.64-.317-2.17-.926-.529-.635-.82-1.455-.82-2.514 0-1.137.291-2.01.847-2.698.556-.662 1.323-1.006 2.275-1.006.874.027 1.588.318 2.196.873zm-.715 4.472c.265-.556.423-1.19.423-1.879 0-.635-.105-1.137-.29-1.534-.318-.609-.847-.926-1.615-.926-.687 0-1.164.264-1.481.793-.318.53-.476 1.165-.476 1.905 0 .715.158 1.297.476 1.773.317.476.794.715 1.481.715.715 0 1.218-.291 1.482-.847zM83.673 179.75h1.084v5.344l2.884-2.857h1.43l-2.567 2.487 2.725 4.207H87.8l-2.117-3.413-.926.9v2.513h-1.084zM93.912 182.422c.45.212.794.503 1.005.873.212.344.37.741.45 1.19.08.318.106.795.106 1.483h-4.868c.026.688.185 1.217.476 1.64.291.423.767.609 1.376.609.582 0 1.058-.186 1.402-.583.185-.238.344-.476.423-.793h1.112c-.027.238-.133.529-.291.82-.16.291-.344.556-.556.74-.344.345-.767.556-1.27.689-.265.08-.582.106-.926.106-.82 0-1.535-.292-2.117-.9-.582-.609-.873-1.455-.873-2.54s.291-1.958.873-2.62c.582-.66 1.35-1.005 2.276-1.005.502-.053.952.08 1.402.291zm.423 2.646c-.053-.476-.158-.873-.317-1.164-.318-.556-.82-.82-1.535-.82-.502 0-.952.185-1.296.555-.344.37-.53.847-.556 1.429zM96.822 182.237h1.059v1.164c.08-.238.29-.503.635-.82.344-.318.74-.476 1.19-.476h.106c.053 0 .132 0 .265.026v1.19c-.08 0-.133-.026-.185-.026h-.186c-.555 0-1.005.186-1.296.556-.318.37-.45.794-.45 1.27v3.863h-1.138zM101.744 186.84c.026.371.132.662.29.874.292.37.794.555 1.509.555.423 0 .794-.079 1.138-.264.317-.185.476-.45.476-.847 0-.29-.133-.502-.397-.661-.159-.08-.503-.185-.98-.318l-.899-.238c-.582-.132-1.005-.29-1.296-.476-.503-.318-.74-.714-.74-1.27 0-.635.237-1.138.687-1.535.45-.397 1.085-.582 1.879-.582 1.031 0 1.772.291 2.222.9.291.37.423.794.423 1.217h-1.058a1.298 1.298 0 0 0-.265-.688c-.264-.291-.714-.45-1.375-.45-.424 0-.768.08-.98.238-.211.16-.343.37-.343.635 0 .291.158.53.45.688.158.106.423.185.74.265l.768.185c.82.185 1.375.397 1.666.582.45.291.662.74.662 1.35 0 .608-.238 1.11-.688 1.534-.45.423-1.164.662-2.09.662-1.006 0-1.72-.239-2.143-.688-.424-.45-.635-1.006-.688-1.694h1.032z"
      class="st0" style="fill:#000;stroke-width:.26458332"/>
    <path d="M.9 64.6V33.4l28.4 31.2z" class="st1" style="fill:url(#a)"
          transform="matrix(.26458 0 0 .26458 -12.821 171.839)"/>
    <circle cx="-6.127" cy="182.687" r="2.249" class="st2" style="fill:#d81222;stroke-width:.26458332"/>
    <path d="M.9 33.4v31.2L29.3.5z" class="st2" style="fill:#d81222"
          transform="matrix(.26458 0 0 .26458 -12.821 171.839)"/>
  </g>
</svg>
