<svg xmlns="http://www.w3.org/2000/svg" viewBox="0 0 581 89" fill="none">
<path d="M137.963 62.5907L107.775 10.1815C101.187 -0.732962 84.9635 -0.83129 78.5721 10.6732L46.8117 65.1472C40.912 75.1767 48.1883 87.6645 60.0861 87.6645H123.705C135.701 87.7628 144.649 74.7835 137.963 62.5907Z" fill="#003087"/>
<path d="M94.4029 66.7205L92.5343 63.4756C90.7644 60.4274 86.9299 53.9377 86.9299 53.9377L61.3644 9.49326C54.7764 -0.339596 39.0439 -1.22457 32.4559 11.2632L2.66207 62.7873C-3.53263 73.6035 3.8423 87.6645 17.215 87.7628H80.4401H107.382H123.41C107.087 87.8611 101.876 79.3065 94.4029 66.7205Z" fill="#1877F2"/>
<path d="M94.4031 66.5238L92.5345 63.2789C90.7646 60.2307 86.9301 53.7411 86.9301 53.7411L70.4106 24.6358L46.7138 65.0489C40.814 75.0784 48.0904 87.5661 59.9881 87.5661H80.3419H107.284H123.41C106.989 87.5661 101.876 79.2082 94.4031 66.5238Z" fill="url(#paint0_linear_10907_320)"/>
<path d="M530.955 24.481C535.379 20.3512 543.147 18.3846 554.455 18.3846H580.905V3.34033H549.637C542.164 3.34033 535.871 4.12698 530.955 5.70024C526.137 7.2735 521.908 9.73169 518.27 13.1732C514.435 16.9097 511.387 21.5311 509.224 27.0375C507.061 32.6422 505.979 38.7386 505.979 45.13C505.979 51.2264 507.061 57.1261 509.224 62.5342C511.387 67.9422 514.435 72.662 518.27 76.3985C521.81 79.84 526.038 82.2982 530.758 83.8715C535.576 85.4447 541.967 86.2313 549.637 86.2313H580.905V71.3837H554.455C548.457 71.3837 544.327 71.1871 541.967 70.6954C539.509 70.2038 537.248 69.4172 535.379 68.2372C531.643 65.8773 528.791 62.8291 526.923 58.9943C525.153 55.2578 524.268 50.5381 524.268 45.0317C524.268 35.5921 526.53 28.6108 530.955 24.481Z" fill="#05152F"/>
<path d="M300.767 86.428H374.514V71.8754H318.761V51.128H367.434V37.362H318.761V18.0896H374.514V3.43866H300.767V86.428Z" fill="#05152F"/>
<path d="M392.901 3.43866L427.513 44.9333L392.901 86.428H415.222L442.459 53.5862V36.3787L415.222 3.43866H392.901Z" fill="#05152F"/>
<path d="M476.677 3.43866L449.44 36.3787V53.5862L476.677 86.428H498.998L464.386 44.9333L498.998 3.43866H476.677Z" fill="#05152F"/>
<path d="M228.496 44.3434L195.359 3.43866H178.25V86.428H196.244V31.069L224.956 65.484H231.937L260.649 30.7741V86.428H278.643V3.43866H261.731L228.496 44.3434Z" fill="#05152F"/>
<defs>
<linearGradient id="paint0_linear_10907_320" x1="38.2579" y1="46.7869" x2="111.716" y2="73.9321" gradientUnits="userSpaceOnUse">
<stop stop-color="#003087" stop-opacity="0"/>
<stop offset="1" stop-color="#003087"/>
</linearGradient>
</defs>
</svg>