<svg xmlns="http://www.w3.org/2000/svg" viewBox="0 0 180 180" fill="none">
  <rect width="180" height="180" rx="40" fill="#FFDD2D"/>
  <path fill-rule="evenodd" clip-rule="evenodd" d="M165.938 79.364L159.42 79.57C158.866 79.57 154.863 79.4558 150.977 76.651C151.268 76.6775 151.557 76.7203 151.854 76.7203C155.851 76.7203 159.725 74.3255 161.274 70.8944L164.078 64.7013C160.559 64.7482 157.345 64.3055 157.345 64.3055C157.319 64.3035 154.783 63.9771 151.852 60.9968C149.751 58.8611 147.148 57.7289 144.332 57.7289C143.098 57.7289 141.997 57.9513 141.046 58.2511C141.196 57.7493 141.333 57.2393 141.415 56.7151C142.313 50.9177 138.568 46.4993 138.566 46.5034L133.659 40.4572L130.619 47.5601C130.609 47.5805 129.839 49.2471 128.467 50.0569C128.055 47.9701 127.035 45.6222 124.858 43.3824C120.754 39.1557 115.761 38.5233 113.148 38.5233C111.939 38.5233 111.074 38.6539 110.863 38.6886L104.943 39.8452C105.285 38.5315 106.015 36.2366 107.343 34.1723L110.611 29.1092L102.389 30.0394L99.7718 24.5052L94.7009 27.1061L90.0133 22.5L85.338 27.1061L80.2569 24.5052L77.6435 30.0394L69.4243 29.1072L72.6976 34.1743C74.0279 36.2366 74.7535 38.5254 75.0917 39.8391L69.4427 38.7314L69.248 38.6988C68.9672 38.6539 68.1084 38.5233 66.8909 38.5233C64.2796 38.5233 59.2845 39.1557 55.1913 43.3803C53.0125 45.6201 51.9897 47.9701 51.5737 50.0569C50.2106 49.2532 49.4461 47.6151 49.4461 47.6151L46.4003 40.4714L41.4196 46.5544C40.8088 47.3377 37.8101 51.493 38.6238 56.7212C38.7078 57.2434 38.8452 57.7493 38.9927 58.2511C38.0478 57.9472 36.9451 57.7289 35.7132 57.7289C32.8949 57.7289 30.2939 58.8611 28.1868 60.9968C25.264 63.9649 23.2752 64.1735 22.7675 64.2994C22.2598 64.4253 20.1009 64.7767 15.9748 64.7013L18.7665 70.8944C20.3161 74.3255 24.192 76.7203 28.1827 76.7203C28.484 76.7203 28.771 76.6775 29.0661 76.651C25.1882 79.4558 21.1851 79.57 20.7014 79.5721L14.0625 79.364L16.0732 85.6428C17.0858 88.8781 20.4698 94.2369 26.9447 94.8141C26.2396 97.7516 24.6778 101.046 21.2466 102.466L16.3007 104.493L18.9981 109.169C20.519 111.69 24.0977 114.64 29.1871 114.64C30.2857 114.636 31.3474 114.526 32.3723 114.309C32.6346 115.462 32.9605 116.617 33.3479 117.763C34.8626 122.253 33.557 125.382 33.5426 125.417L31.0994 130.508L36.5516 131.938C36.6192 131.959 38.2671 132.409 40.3291 132.409C41.2638 132.409 42.1615 132.313 42.9958 132.114C43.6291 131.967 44.2399 131.771 44.8241 131.534C45.5312 132.793 46.388 133.943 47.3862 134.973C50.8809 138.541 55.8329 140.349 62.1029 140.349H62.1234L66.5998 140.291L57.3517 144.12L64.3739 147.498C66.9278 148.735 69.949 150.197 73.0317 151.317L72.1524 153.706L74.5751 154.803C74.7904 154.901 79.4452 156.972 87.1807 157.414C87.1807 157.414 89.05 157.5 90.0789 157.5C91.1058 157.5 92.9505 157.408 92.9505 157.408C100.639 156.955 105.257 154.901 105.472 154.803L107.899 153.702L107.013 151.311C110.18 150.158 113.318 148.637 115.765 147.447L122.654 144.116L113.437 140.291L117.932 140.349C124.212 140.349 129.164 138.539 132.653 134.967C133.647 133.945 134.502 132.799 135.213 131.534C135.799 131.771 136.414 131.967 137.049 132.118C137.884 132.313 138.777 132.409 139.712 132.409C141.739 132.409 143.403 131.965 143.448 131.95L148.923 130.508L146.537 125.51C146.482 125.382 145.176 122.253 146.693 117.759C147.076 116.612 147.4 115.458 147.665 114.309C148.694 114.526 149.768 114.636 150.876 114.64C157.36 114.64 160.467 110.103 161.067 109.116L163.74 104.489L158.794 102.47C155.355 101.046 153.797 97.7536 153.1 94.8182C159.491 94.2634 162.92 88.9005 163.968 85.6448L165.938 79.364Z" fill="#FEFEFE"/>
  <path fill-rule="evenodd" clip-rule="evenodd" d="M100.816 37.7954C97.8334 36.1431 93.9656 35.2027 90.0139 35.2027C86.0826 35.2027 82.2148 36.1431 79.2243 37.7954C78.9517 36.8876 78.5725 35.7841 78.056 34.6295L79.1793 34.7621L80.3599 34.8865L80.8682 33.8135L82.3563 30.6496L85.1151 32.0714L86.1851 32.612L87.0357 31.7757L90.0139 28.8362L92.9982 31.7757L93.8529 32.612L94.9228 32.0714L97.6674 30.6496L99.1759 33.8135L99.674 34.8865L100.857 34.7621L101.984 34.6295C101.467 35.7841 101.084 36.8876 100.816 37.7954ZM90.0138 41.7267C84.7748 41.7328 80.8476 43.4402 79.9929 45.4495L90.0138 49.3885L100.037 45.4495C99.1902 43.4402 95.261 41.7328 90.0138 41.7267ZM90.12 145.913H90.1097H90.0236H89.9252H89.917C86.7462 145.933 82.3701 145.284 80.2672 144.674L77.7338 151.496C79.4022 152.087 85.0634 153.224 90.0236 153.224C94.9736 153.224 100.637 152.087 102.303 151.496L99.7739 144.674C97.6628 145.284 93.2929 145.933 90.12 145.913ZM100.748 142.522C103.196 141.781 107.407 140.186 109.293 139.124L108.034 143.223L112.301 144.635C109.721 145.924 106.594 147.127 102.804 148.157L100.748 142.522ZM70.7439 139.124L72.0064 143.223L67.7353 144.635C70.3135 145.924 73.4533 147.127 77.2284 148.157L79.2881 142.522C76.8451 141.781 72.6294 140.186 70.7439 139.124ZM150.303 71.7992C150.818 71.9766 151.338 72.0542 151.855 72.0542C154.091 72.0542 156.247 70.616 156.992 68.9719C156.992 68.9719 152.896 68.7251 148.489 64.2761C147.089 62.8339 145.603 62.4034 144.331 62.4034C142.353 62.4034 140.869 63.4397 140.869 63.4397C143.741 64.9617 145.379 66.9801 146.755 68.6755C147.927 70.1205 148.909 71.3308 150.303 71.7992ZM29.7192 71.7992C29.2191 71.9766 28.6964 72.0542 28.1799 72.0542C25.9457 72.0542 23.7833 70.616 23.0475 68.9739C23.0475 68.9739 27.1407 68.7251 31.5414 64.2761C32.9495 62.8318 34.4314 62.4034 35.7124 62.4034C37.6781 62.4034 39.1662 63.4417 39.1662 63.4417C36.3019 64.9605 34.6626 66.9749 33.2842 68.6686C32.1058 70.1165 31.1182 71.33 29.7192 71.7992ZM148.7 104.272C144.582 102.253 141.985 96.8919 141.356 94.9622C140.672 105.59 135.459 112.968 129.363 120.071C126.199 123.753 125.096 127.333 125.096 127.333C125.096 127.333 125.707 123.276 128.441 119.975C134.129 113.176 139.534 104.711 139.936 94.9213C140.21 88.0898 138.448 82.5514 135.693 77.9841C137.234 82.7391 137.015 88.561 131.784 93.9973C131.784 93.9973 142.201 81.5764 127.64 68.8413C123.503 65.4004 119.087 62.894 115.699 60.9712L115.699 60.9711C114.315 60.1855 113.102 59.4973 112.15 58.8826C124.01 62.7339 129.802 58.495 129.802 58.495C126.016 61.7609 121.111 61.7058 118.072 61.2346C118.898 61.6344 119.755 62.0526 120.677 62.5462C130.677 67.9519 139.665 76.8479 141.198 89.1668V89.073C143.525 101.17 148.7 104.272 148.7 104.272ZM151.744 90.1786C151.838 90.1847 151.916 90.1847 152.01 90.1847C157.585 90.1847 159.473 84.2425 159.473 84.2425H159.365C158.342 84.2425 150.053 84.0018 144.195 76.5929C144.031 76.3857 143.868 76.1795 143.707 75.9746L143.707 75.9745C140.065 71.3579 136.912 67.3601 130.936 65.7468L130.321 65.6407L130.189 65.0165C130.015 64.07 130.671 63.1786 132.153 62.2198C140.768 56.6061 134.916 49.444 134.916 49.444C134.916 49.444 132.456 55.172 126.953 55.172C126.887 55.172 126.82 55.17 126.752 55.168C126.684 55.1659 126.614 55.1639 126.545 55.1639L126.423 55.1576C125.841 55.1276 125.276 55.0985 124.709 54.9803L123.696 54.7824C123.696 54.7824 125.264 50.5333 121.476 46.6351C118.623 43.6915 115.153 43.1917 113.148 43.1917C112.14 43.1917 111.498 43.3203 111.498 43.3203C113.401 45.7946 114.776 49.903 112.581 52.4386C111.845 53.2809 110.7 53.8132 109.572 54.3373C107.785 55.1675 106.042 55.9773 106.042 57.9667C106.042 59.3436 107.336 60.947 109.652 62.3871C116.623 66.7545 123.542 72.5539 126.422 80.3218C130.015 90.0113 125.965 96.4431 120.185 100.133C120.185 100.133 121.999 101.794 124.627 102.006C125.162 102.057 125.684 102.083 126.172 102.083C131.723 102.083 134.594 99.4907 134.594 99.4907C134.594 99.4907 134.121 103.071 131.233 106.394C128.566 109.462 125.069 111.271 119.732 111.344C119.732 111.344 119.564 113.811 121.925 115.944C123.44 117.291 126.931 117.727 126.931 117.727C126.931 117.727 120.392 119.047 119.671 128.657C119.279 133.865 117.941 135.676 117.941 135.676H118.057C133.231 135.676 132.844 122.725 132.844 122.725C132.844 122.725 133.897 126.558 138.132 127.56C138.642 127.69 139.188 127.743 139.708 127.743C141.069 127.743 142.254 127.425 142.254 127.425C142.254 127.425 140.036 122.772 142.238 116.263C144.06 110.861 143.767 106.861 143.767 106.861C143.767 106.861 145.81 109.935 150.877 109.964H150.93C155.15 109.964 156.989 106.779 156.989 106.779C146.872 102.599 147.872 89.1117 147.872 89.1117C147.872 89.1117 149.186 90.0868 151.744 90.1786ZM38.6748 94.9603C39.3635 105.59 44.5758 112.968 50.6695 120.069C53.8322 123.753 54.9492 127.331 54.9492 127.331C54.9492 127.331 54.3302 123.274 51.5837 119.978C45.9081 113.176 40.5031 104.709 40.1055 94.9215C39.8206 88.0879 41.5853 82.5496 44.3442 77.9843C42.8049 82.7413 43.016 88.5611 48.2529 93.9995C48.2529 93.9995 37.8344 81.5766 52.4035 68.8415C56.5373 65.4021 60.9467 62.8974 64.3315 60.9747C65.7164 60.188 66.9299 59.4988 67.8827 58.8828C56.0274 62.7341 50.235 58.4931 50.235 58.4931C54.0187 61.7611 58.9215 61.706 61.9653 61.2348L61.8954 61.2686C61.0925 61.6582 60.2505 62.0667 59.3601 62.5485C49.3557 67.9521 40.374 76.8501 38.8347 89.167V89.0711C36.5124 101.168 31.339 104.272 31.339 104.272C35.4527 102.253 38.0455 96.89 38.6748 94.9603ZM58.1161 115.943C56.6014 117.291 53.1067 117.727 53.1067 117.727C53.1067 117.727 59.6513 119.045 60.3708 128.657C60.7622 133.865 62.0884 135.674 62.0884 135.674H61.9818C46.8039 135.674 47.1934 122.723 47.1934 122.723C47.1934 122.723 46.1337 126.558 41.9052 127.56C41.3989 127.69 40.8578 127.743 40.329 127.743C38.968 127.743 37.7894 127.425 37.7894 127.425C37.7894 127.425 39.9949 122.774 37.7956 116.263C35.9775 110.861 36.2727 106.859 36.2727 106.859C36.2727 106.859 34.2312 109.935 29.1603 109.966H29.1091C24.8908 109.966 23.0482 106.779 23.0482 106.779C33.1592 102.6 32.1692 89.1119 32.1692 89.1119C32.1692 89.1119 30.8554 90.087 28.2912 90.1787C28.197 90.1849 28.1129 90.1849 28.0248 90.1849C22.4476 90.1849 20.5578 84.2427 20.5578 84.2427H20.6705C21.6995 84.2427 29.9802 84.002 35.8361 76.5931C36.0012 76.3845 36.165 76.1771 36.3278 75.9709L36.3281 75.9705C39.9702 71.3575 43.1251 67.3617 49.0893 65.747L49.7165 65.6389L49.8498 65.0167C50.024 64.0702 49.3701 63.1767 47.8903 62.22C39.2755 56.6062 45.1252 49.4462 45.1252 49.4462C45.1252 49.4462 47.5705 55.1722 53.0903 55.1722C53.1559 55.1722 53.2199 55.1707 53.285 55.1692L53.2851 55.1692C53.3522 55.1676 53.4203 55.1661 53.492 55.1661L53.6522 55.1573C54.2182 55.1264 54.7759 55.096 55.3285 54.9804L56.3452 54.7826C56.3452 54.7826 54.769 50.5335 58.565 46.6352C61.4161 43.6917 64.8882 43.1899 66.8887 43.1899C67.9033 43.1899 68.5367 43.3204 68.5367 43.3204C66.6387 45.7948 65.2633 49.9031 67.4585 52.4367C68.1933 53.2801 69.338 53.8129 70.4649 54.3375C72.249 55.168 73.9888 55.9778 73.9888 57.9668C73.9888 59.3417 72.6975 60.9471 70.3814 62.3873C63.4104 66.7547 56.4928 72.5561 53.615 80.322C50.024 90.0135 54.0741 96.4453 59.8604 100.133C59.8604 100.133 58.0444 101.794 55.4105 102.006C54.8756 102.057 54.359 102.082 53.861 102.082C48.3166 102.082 45.445 99.4909 45.445 99.4909C45.445 99.4909 45.9226 103.071 48.7921 106.396C51.4751 109.462 54.9698 111.271 60.3072 111.345C60.3072 111.345 60.4753 113.811 58.1161 115.943ZM86.5897 69.9997H90.1701H93.7403V72.4412C92.902 71.4173 91.2625 71.6274 91.2625 71.6274V75.1458C91.2625 75.1458 91.326 76.8795 91.9347 77.6281H90.1701H88.3953C89.0142 76.8795 89.0696 75.1458 89.0696 75.1458V71.6274C89.0696 71.6274 87.4361 71.4173 86.5897 72.4412V69.9997ZM78.7961 70.3676C79.0441 70.6327 79.288 70.9204 79.5258 71.2121L79.5584 71.2514L79.5584 71.2515C79.6018 71.3037 79.6438 71.3544 79.6898 71.4181C79.907 71.7057 80.1264 72.0117 80.3395 72.3259C80.3668 72.3612 80.3933 72.4006 80.4208 72.4414L80.4472 72.4806L80.462 72.5021L80.4716 72.5158L80.483 72.5319C80.7372 72.9133 80.977 73.3091 81.2147 73.7171C83.4038 77.4766 86.9046 79.7266 90.014 79.7307C93.1254 79.7266 96.6242 77.4766 98.8194 73.7171C99.0613 73.2989 99.3073 72.8929 99.5614 72.5135C99.6004 72.4605 99.6393 72.4054 99.6741 72.3483C99.8894 72.024 100.117 71.7098 100.353 71.4038C100.385 71.3621 100.416 71.3229 100.446 71.2852L100.496 71.2223C100.74 70.9204 100.992 70.6307 101.248 70.3574C101.266 70.3401 101.283 70.3232 101.299 70.3067L101.299 70.3066C101.323 70.2822 101.346 70.2589 101.371 70.237C102.486 69.1028 103.814 68.2359 105.555 67.7565L104.78 67.3077H104.739L101.658 65.5289L98.4935 63.7236L90.0386 68.3052L90.014 68.2848L89.9976 68.3052L81.5406 63.7236L78.378 65.5289L75.2912 67.3077H75.2563L74.4754 67.7565C76.2176 68.2359 77.5417 69.0926 78.6608 70.2288C78.6801 70.2472 78.6973 70.2665 78.7145 70.2859C78.7395 70.314 78.7646 70.3422 78.7961 70.3676ZM87.3191 56.7719V54.4753L83.1607 52.7334C83.1607 52.7334 83.1976 54.0673 85.0687 55.5155C86.0818 56.3108 86.7098 56.515 86.8479 56.56C86.8646 56.5654 86.8742 56.5685 86.8764 56.57L87.3191 56.7719ZM89.2833 50.9592V65.2629L82.548 61.7319L80.1356 47.8749L89.2833 50.9592ZM92.715 54.4753L96.8733 52.7334C96.8733 52.7334 96.8385 54.0673 94.9612 55.5155C93.9469 56.3146 93.3181 56.517 93.1826 56.5606C93.167 56.5656 93.1579 56.5685 93.1556 56.57L92.715 56.7719V54.4753ZM97.4856 61.7319L99.8899 47.8749L90.7484 50.9592V65.2629L97.4856 61.7319ZM78.8712 98.8004C78.3199 98.8004 77.2378 98.7352 76.3483 98.4129C75.3666 98.0519 73.9033 96.259 74.2394 94.2846C74.6637 94.0256 75.6474 93.4749 76.5676 93.4749C77.2767 93.4749 77.7604 93.8053 78.1006 94.5172C78.3957 95.1352 78.9286 95.5451 79.3016 95.7797C79.2893 96.3569 79.234 97.2523 79.0782 98.0458C79.0434 98.2232 78.9983 98.3864 78.9511 98.5475C78.9329 98.6174 78.9117 98.6797 78.8936 98.7329L78.8833 98.7633C78.879 98.7764 78.8749 98.7887 78.8712 98.8004ZM91.6595 95.772L91.6594 95.7721L91.4675 95.9587C91.4306 95.9948 91.4062 96.0187 91.3956 96.0294L91.1926 96.2293L80.686 96.0641C80.6799 97.1003 80.5097 97.9816 80.3458 98.6262C80.3191 98.7343 80.2904 98.8465 80.2617 98.9587L92.7607 101.194C94.0602 100.291 97.6389 97.6899 99.0286 96.6699C98.0181 95.2032 97.9217 93.4591 98.1513 92.2311C97.4852 91.8109 96.9809 91.3336 96.5792 90.8277C95.1344 92.3941 92.5087 94.9466 91.6611 95.7704L91.66 95.7716L91.6595 95.772ZM91.1872 81.7316C93.2615 81.5256 95.5817 80.6403 98.0045 78.2515H113.805C113.117 80.063 112.547 82.0233 112.547 83.9734L112.553 96.5616C109.909 96.1189 109.595 93.2876 109.585 93.1652L109.538 92.5859L108.97 92.5369C107.818 92.4288 107.06 91.9453 106.416 91.3232C105.121 90.0319 105.119 87.9431 105.121 87.9267C105.121 87.9286 105.12 87.931 105.119 87.934C105.117 87.9385 105.114 87.9443 105.111 87.9513C105.103 87.9679 105.09 87.9913 105.073 88.0213C104.838 88.4518 103.868 90.2248 105.33 92.1412C106.015 93.0428 107.013 93.5976 108.302 93.8179C108.605 95.3866 109.778 97.606 112.553 97.9426V104.107H104.754C101.159 102.112 102.684 98.6076 102.752 98.4587L103.057 97.7957L102.368 97.5346C98.4738 96.0985 99.5458 92.233 99.5971 92.0636L99.7549 91.5027L99.2261 91.2538C96.0101 89.7688 96.4447 85.7747 96.4877 85.6074C95.4998 86.405 95.1431 88.0328 95.8236 89.628C95.4757 90.0264 95.0136 90.5019 94.5037 91.0266L94.503 91.0272L94.5024 91.0278L94.4196 91.1131C91.0888 90.2665 90.9843 87.2209 90.9843 87.0843L90.9761 86.6151L90.5395 86.4458C89.24 85.9664 88.3464 85.2484 87.9077 84.2835C87.4138 83.2166 87.588 82.0947 87.7233 81.5562C88.1045 81.6418 88.4817 81.699 88.8465 81.7316C89.2216 81.7704 89.6028 81.7928 89.9923 81.7928H90.0148H90.0435C90.4309 81.7928 90.808 81.7704 91.1872 81.7316ZM77.0134 84.0203L76.8003 92.0342L77.7184 92.1729L79.9565 84.4833L78.8211 82.1173L77.0134 84.0203ZM81.4258 113.207C81.4094 113.468 81.5999 113.688 81.86 113.694C82.112 113.717 82.3291 113.523 82.3537 113.268C82.364 113.023 82.1776 112.795 81.9154 112.785C81.6593 112.762 81.4483 112.96 81.4258 113.207ZM101.915 120.818C101.842 120.798 101.764 120.791 101.696 120.791C101.245 120.791 101.048 121.187 101.048 121.187C101.35 121.993 101.426 122.572 101.494 123.096C101.571 123.68 101.639 124.198 102.001 124.89C102.432 125.715 103.148 126.412 103.587 126.838C103.667 126.917 103.739 126.986 103.797 127.046C103.797 127.046 103.694 127.782 103.588 128.335L102.612 133.38C101.991 133.465 101.339 133.51 100.663 133.541L101.686 128.688C101.835 127.987 100.987 127.52 99.8569 126.898C98.6683 126.244 97.1668 125.418 96.1824 123.965C95.2436 125.016 93.4788 125.33 91.7038 125.33C90.0846 125.33 88.4674 125.071 87.4815 124.877C87.2335 124.841 86.9957 124.81 86.76 124.81C86.1922 124.81 85.6736 124.985 85.3149 125.583L85.0341 126.058L79.7357 124.814L78.4157 126.991C78.2313 127.341 78.219 127.637 78.5182 127.966L78.8749 128.355C78.6289 129.122 77.5262 130.285 77.5262 130.285L76.7391 129.306C76.116 128.612 76.2185 127.341 76.8641 126.167L78.9671 122.638L83.4559 123.28L82.7611 121.699C82.1058 120.238 82.6049 118.5 83.0178 117.063L83.0178 117.063L83.0179 117.062C83.1965 116.44 83.3589 115.875 83.4047 115.412C83.3534 115.875 82.925 115.981 82.427 115.981C82.185 115.981 81.927 115.956 81.688 115.933C81.4816 115.912 81.2894 115.894 81.1336 115.894C81.0004 115.894 80.8876 115.908 80.8282 115.951L79.6107 116.687L78.6535 115.845C78.5367 115.684 78.4998 115.3 78.7806 115.016L81.0004 112.538L78.3788 109.488L82.0519 111.324L83.1751 109.972C83.4825 110.27 83.3473 111.057 83.3473 111.057C84.491 111.086 87.709 112.852 87.8791 116.985C87.8852 117.111 87.8852 117.252 87.8852 117.391C87.8852 117.391 87.918 117.44 87.9734 117.526C88.2009 117.836 88.8281 118.631 89.6213 118.707L94.7004 119.206H94.7189C94.9334 119.206 95.2293 119.11 95.5934 118.991C96.1753 118.802 96.9314 118.556 97.8077 118.556C98.5805 118.556 99.4413 118.752 100.362 119.329C100.362 119.329 100.825 118.966 101.573 118.925C101.63 118.921 101.696 118.921 101.747 118.921C103.661 118.921 104.634 120.367 105.622 121.836C105.809 122.115 105.998 122.395 106.193 122.666C107.109 123.965 108.341 125.889 108.341 125.889C107.886 126.422 107.466 126.721 106.759 126.721C106.566 126.721 106.345 126.707 106.103 126.656C104.699 126.4 103.986 124.638 103.368 123.112C102.912 121.985 102.507 120.986 101.915 120.818ZM74.6252 125.38C74.6252 125.38 76.3836 124.66 76.5394 124.15L76.3037 123.564C76.1377 123.185 76.1623 122.773 76.482 122.548L78.3778 121.245L81.5442 121.851C81.5442 121.851 80.9724 121.137 81.0277 120.182L78.0027 119.546L75.154 121.272C73.9304 122.183 73.8423 123.67 74.2461 124.553L74.6252 125.38ZM98.9148 133.57C98.2283 133.57 97.5991 133.578 97.0334 133.603L98.5213 128.991C98.6776 128.563 98.1938 128.05 97.7133 127.54C97.4817 127.294 97.2509 127.049 97.0929 126.815C97.8266 127.272 99.7223 128.275 100.636 128.677C100.544 128.826 98.9148 133.57 98.9148 133.57Z" fill="white"/>
  <path fill-rule="evenodd" clip-rule="evenodd" d="M102.539 104.107H67.4873V83.9731C67.4873 82.023 66.9134 80.0626 66.2349 78.2512H82.0318C83.5342 79.7363 85.0038 80.6624 86.4038 81.1703C86.2234 81.8863 85.9815 83.3652 86.6559 84.8421C87.2072 86.0314 88.2034 86.9473 89.6484 87.5592C89.8021 89.028 90.7409 91.2392 93.3214 92.2163C92.1879 93.3525 91.0893 94.4235 90.6445 94.8539L80.1584 94.6887C79.9206 94.5703 79.5148 94.3031 79.3344 93.9278C79.3234 93.8992 79.3088 93.8778 79.2938 93.8558C79.281 93.8369 79.2679 93.8176 79.2565 93.7931L80.968 94.0685C81.0049 94.0726 81.0418 94.0726 81.0787 94.0726C81.4087 94.0726 81.6977 93.8462 81.751 93.5096C81.8063 93.1302 81.5542 92.7834 81.1853 92.7283L79.0782 92.3979L81.4148 84.3689L79.2012 79.7363L75.6573 83.4652L75.4421 91.8124L73.0604 91.4371C72.6914 91.3657 72.3409 91.6309 72.2753 92.0021C72.22 92.3693 72.47 92.7181 72.8431 92.7834L73.8433 92.9344C73.4867 93.1363 73.251 93.2975 73.2223 93.3199L73.0194 93.4606L72.964 93.7095C72.384 96.0513 73.6937 98.2748 75.1121 99.2682L75.0588 99.564C75.0014 99.923 75.0854 100.274 75.3027 100.57C75.5097 100.87 75.8213 101.049 76.18 101.112C76.2517 101.127 76.3296 101.133 76.4013 101.133C77.0121 101.133 77.5491 100.71 77.6967 100.09C78.2255 100.156 78.7093 100.166 79.0393 100.166H79.316L93.0734 102.642L93.3091 102.487C94.4016 101.726 98.5829 98.697 99.9521 97.6893C100.327 98.0137 100.749 98.3034 101.26 98.5461C100.813 100.027 100.786 102.306 102.539 104.107ZM67.4872 105.465H112.551L112.56 122.335C112.56 127.927 109.262 131.831 104.062 133.104L104.933 128.59L104.944 128.526C104.989 128.274 105.038 127.992 105.074 127.753C105.32 127.855 105.581 127.941 105.859 127.992C106.185 128.053 106.484 128.084 106.759 128.084C108.087 128.084 108.862 127.388 109.377 126.794L110.045 126.019L109.499 125.171C109.45 125.087 108.239 123.186 107.312 121.884C107.13 121.629 106.956 121.372 106.78 121.099C105.722 119.524 104.398 117.554 101.748 117.554L101.508 117.558C101.073 117.586 100.698 117.67 100.393 117.786C99.5606 117.401 98.6977 117.197 97.8061 117.197C96.7095 117.197 95.7851 117.497 95.1702 117.707C95.1158 117.722 95.0632 117.739 95.0128 117.754C94.8997 117.789 94.7975 117.821 94.7111 117.835L89.7549 117.35C89.6935 117.34 89.4885 117.221 89.2425 116.93V116.905L90.3145 116.477C90.0132 112.921 86.5841 110.734 84.6697 109.994C84.5857 109.637 84.4135 109.282 84.1142 108.992L83.0484 107.987L82.1117 109.102L81.6505 109.674L74.7062 106.834L79.2258 112.479L77.4446 115.165C76.7907 115.857 77.5102 116.546 77.5102 116.546L79.3528 117.811L81.2611 117.101C81.3078 117.101 81.3497 117.108 81.3921 117.115C81.411 117.118 81.43 117.121 81.4497 117.123C81.3968 117.284 81.3363 117.71 81.2796 118.11C81.2351 118.423 81.1929 118.72 81.1586 118.859L77.8443 118.211L74.3639 120.167C72.5745 121.476 72.3306 123.639 72.9947 125.12L73.3801 125.96L73.9273 127.147L75.1489 126.646C75.1653 126.644 75.1817 126.635 75.1899 126.627C74.7534 128.018 74.9317 129.342 75.7106 130.209L76.4525 131.133L77.4364 132.369L78.5166 131.217C78.8322 130.903 79.8652 129.752 80.1829 128.771L80.4146 128.018L79.8898 127.439L79.7997 127.337L80.3961 126.362L84.7209 127.376L85.6925 127.6L86.209 126.75L86.4919 126.287C86.5452 126.187 86.5574 126.172 86.7583 126.172C86.91 126.172 87.0637 126.187 87.2297 126.225C88.8633 126.531 90.3678 126.684 91.7021 126.684C92.9996 126.684 93.7744 126.635 94.6947 126.331C94.6947 126.331 97.017 128.957 97.0969 129.053L95.6765 133.424L95.6109 133.685C92.9196 133.903 91.6079 134.491 90.0235 136.066C87.7237 133.795 86.0901 133.555 79.9062 133.555C72.5028 133.555 67.4872 129.234 67.4872 122.335V105.465Z" fill="#FFDD2D"/>
  <path fill-rule="evenodd" clip-rule="evenodd" d="M80.3591 34.8867L79.1785 34.7622L78.0552 34.6276C78.5718 35.7862 78.9509 36.8857 79.2236 37.7955C82.214 36.1453 86.0818 35.2049 90.0131 35.2049C93.9648 35.2049 97.8346 36.1453 100.815 37.7955C101.085 36.8857 101.467 35.7862 101.983 34.6276L100.856 34.7622L99.6732 34.8867L99.1751 33.8157L97.6686 30.6498L94.922 32.0716L93.8521 32.6142L92.9974 31.7738L90.0131 28.8363L87.0349 31.7738L86.1843 32.6142L85.1143 32.0716L82.3555 30.6498L80.8674 33.8157L80.3591 34.8867ZM101.863 40.4538C99.528 38.5975 95.2975 36.8534 90.0134 36.8534C84.7375 36.8534 80.5234 38.5975 78.1724 40.4538C78.1724 40.4538 77.4817 36.2965 75.1122 32.6308L79.3674 33.1122L81.5913 28.4041L85.8772 30.5991L90.0134 26.5193L94.164 30.5991L98.4396 28.4041L100.668 33.1122L104.927 32.6308C102.555 36.2965 101.863 40.4538 101.863 40.4538ZM81.9164 112.784C81.6603 112.76 81.4473 112.96 81.4268 113.208C81.4084 113.467 81.6009 113.688 81.8611 113.694C82.113 113.714 82.3302 113.523 82.3548 113.268C82.365 113.023 82.1786 112.794 81.9164 112.784ZM102.806 148.157L100.748 142.521C103.195 141.781 107.407 140.186 109.292 139.123L108.036 143.225L112.301 144.634C109.721 145.923 106.593 147.125 102.806 148.157ZM90.0242 153.223C85.064 153.223 79.4028 152.088 77.7343 151.497L80.2677 144.673C82.3686 145.285 86.7447 145.932 89.9176 145.912H89.9258H90.0242H90.1103H90.1205C93.2914 145.932 97.6613 145.285 99.7745 144.673L102.304 151.497C100.635 152.088 94.9742 153.223 90.0242 153.223ZM67.7357 144.634L72.0067 143.224L70.7422 139.123C72.6257 140.185 76.8434 141.78 79.2864 142.521L77.2267 148.156C73.4536 147.124 70.3118 145.923 67.7357 144.634ZM112.493 143.382L109.896 142.393L110.613 139.721L111.402 136.812C111.402 136.812 106.803 139.296 100.32 141.161C98.4813 141.685 97.0895 141.924 97.0895 141.924V143.906C97.0895 143.906 93.6215 144.506 90.1206 144.506H90.0776H90.0243H89.9567H89.9177C86.4107 144.506 82.9488 143.906 82.9488 143.906V141.924C82.9488 141.924 81.555 141.685 79.7185 141.161C73.2354 139.296 68.642 136.812 68.642 136.812L69.4189 139.721L70.1486 142.393L67.5455 143.382L64.6575 144.457C64.9743 144.61 65.3028 144.769 65.6417 144.933C68.841 146.481 72.9569 148.473 76.7526 149.506L75.7626 152.199C75.7626 152.199 81.0877 154.614 89.9567 154.636V154.64H89.9833H90.0243H90.0571H90.0776V154.636C98.9588 154.614 104.278 152.199 104.278 152.199L103.284 149.506C107.111 148.464 111.269 146.448 114.472 144.894C114.782 144.744 115.084 144.598 115.375 144.457L112.493 143.382ZM156.989 106.78C156.989 106.78 155.151 109.966 150.929 109.966H150.877C145.808 109.936 143.767 106.86 143.767 106.86C143.767 106.86 144.058 110.862 142.234 116.261C140.037 122.775 142.254 127.424 142.254 127.424C142.254 127.424 141.068 127.742 139.707 127.742C139.186 127.742 138.643 127.691 138.128 127.56C133.896 126.557 132.842 122.722 132.842 122.722C132.842 122.722 133.23 135.675 118.056 135.675H117.937C117.937 135.675 119.275 133.864 119.669 128.658C120.39 119.048 126.929 117.726 126.929 117.726C126.929 117.726 123.438 117.289 121.928 115.941C119.56 113.809 119.728 111.343 119.728 111.343C125.068 111.27 128.567 109.46 131.231 106.394C134.119 103.071 134.591 99.4914 134.591 99.4914C134.591 99.4914 131.721 102.08 126.17 102.08C125.683 102.08 125.162 102.058 124.625 102.005C121.999 101.794 120.183 100.132 120.183 100.132C125.961 96.4459 130.016 90.01 126.421 80.3205C123.541 72.5567 116.621 66.7553 109.652 62.3858C107.334 60.9457 106.043 59.3423 106.043 57.9654C106.043 55.9765 107.784 55.1674 109.569 54.3376C110.697 53.8133 111.843 53.2808 112.579 52.4373C114.774 49.9017 113.397 45.7954 111.497 43.321C111.497 43.321 112.136 43.1904 113.147 43.1904C115.153 43.1904 118.624 43.6902 121.475 46.6358C125.262 50.5341 123.692 54.7831 123.692 54.7831L124.707 54.979C125.285 55.1015 125.862 55.1294 126.456 55.1583L126.543 55.1626C126.611 55.1626 126.68 55.1646 126.748 55.1666C126.817 55.1687 126.886 55.1707 126.953 55.1707C132.455 55.1707 134.914 49.4447 134.914 49.4447C134.914 49.4447 140.764 56.6048 132.151 62.2185C130.669 63.1793 130.016 64.0708 130.188 65.0152L130.321 65.6394L130.934 65.7476C136.905 67.359 140.056 71.3512 143.692 75.9577L143.694 75.9601L143.714 75.985L143.726 75.9996L143.73 76.0048L143.741 76.0187L143.752 76.0334L143.76 76.0428C143.903 76.2249 144.048 76.4078 144.193 76.5916C150.053 84.0025 158.338 84.2412 159.361 84.2412H159.474C159.474 84.2412 157.582 90.1834 152.009 90.1834C151.914 90.1834 151.834 90.1834 151.744 90.1773C149.184 90.0855 147.87 89.1125 147.87 89.1125C147.87 89.1125 146.872 102.598 156.989 106.78ZM152.01 92.0032C158.844 92.0032 161.131 85.0839 161.223 84.7881L161.988 82.3484L159.426 82.428H159.417C158.514 82.428 150.971 82.2301 145.627 75.4678L145.123 74.8416L145.097 74.8083C141.614 70.4 138.303 66.2101 132.394 64.2974C132.567 64.1444 132.811 63.9547 133.147 63.7364C136.291 61.6823 138.119 59.1814 138.578 56.2806C139.251 51.9173 136.451 48.4352 136.328 48.2945L134.426 45.9547L133.237 48.731L133.235 48.7344C133.134 48.9573 131.134 53.3534 126.955 53.3534H126.639C126.565 53.3492 126.492 53.3452 126.419 53.3413C126.211 53.3301 126.006 53.319 125.807 53.3024C125.954 51.3217 125.592 48.2516 122.792 45.3693C119.428 41.9035 115.304 41.3813 113.148 41.3813C112.132 41.3813 111.417 41.4924 111.204 41.5256C111.175 41.53 111.156 41.5331 111.145 41.5343L108.272 42.1014L110.047 44.4268C111.434 46.2199 112.697 49.5286 111.201 51.2543C110.75 51.7743 109.848 52.2015 108.957 52.6235L108.799 52.6986C106.866 53.5839 104.22 54.8221 104.22 57.9656C104.22 59.9973 105.806 62.127 108.682 63.9363C117.19 69.2605 122.441 74.8192 124.708 80.9531C128.217 90.3897 123.638 95.7729 119.197 98.6084L117.2 99.8833L118.944 101.479L118.946 101.48C119.191 101.694 121.32 103.558 124.468 103.826C125.067 103.863 125.637 103.898 126.172 103.898C128.191 103.898 129.914 103.582 131.314 103.155C130.929 103.826 130.453 104.514 129.861 105.201C127.319 108.129 124.194 109.461 119.701 109.534L118.03 109.561L117.903 111.227C117.887 111.564 117.76 114.654 120.701 117.284C121.15 117.692 121.693 118.026 122.265 118.297C120.269 120.084 118.243 123.197 117.852 128.525C117.52 132.976 116.456 134.621 116.442 134.639L114.595 137.444L117.932 137.489C123.444 137.489 127.662 135.977 130.587 132.976C132.317 131.202 133.305 129.197 133.889 127.424C134.846 128.238 136.084 128.952 137.701 129.331C138.314 129.474 138.982 129.549 139.708 129.549C141.222 129.549 142.5 129.238 142.699 129.19L142.713 129.186L144.842 128.623L143.901 126.647L143.897 126.637C143.783 126.371 142.085 122.433 143.967 116.853C144.791 114.403 145.211 112.21 145.416 110.503C146.759 111.197 148.554 111.772 150.876 111.78C156.07 111.78 158.403 107.974 158.569 107.704L158.575 107.694L159.614 105.895L157.69 105.105C151.405 102.509 150.016 95.5363 149.737 91.7645C150.305 91.8727 150.954 91.9726 151.686 91.993L152.01 92.0032ZM148.491 64.2771C147.087 62.8328 145.603 62.4024 144.33 62.4024C142.352 62.4024 140.87 63.4428 140.87 63.4428C143.742 64.9639 145.38 66.9815 146.756 68.6763C147.928 70.1203 148.91 71.3299 150.303 71.7982C150.817 71.9756 151.336 72.0532 151.854 72.0532C154.088 72.0532 156.245 70.615 156.991 68.975C156.991 68.975 152.896 68.7261 148.491 64.2771ZM145.337 69.8176C144.035 68.2122 142.549 66.4008 140.001 65.0504L137.384 63.649L139.815 61.9457L139.846 61.9257C140.163 61.724 141.95 60.5871 144.33 60.5871C146.357 60.5871 148.241 61.4173 149.797 62.9942C153.58 66.8394 156.981 67.1494 157.104 67.1535L159.746 67.3086L158.653 69.7197C157.569 72.1247 154.706 73.8607 151.855 73.8607C151.121 73.8607 150.405 73.7505 149.733 73.52C147.855 72.9015 146.648 71.4235 145.384 69.8759L145.337 69.8176ZM141.198 89.0725V89.1643C139.664 76.8474 130.679 67.9515 120.676 62.5458C119.754 62.0521 118.897 61.636 118.071 61.2361C121.113 61.7053 126.018 61.7604 129.801 58.4945C129.801 58.4945 124.011 62.7334 112.15 58.8821C113.101 59.4969 114.314 60.1851 115.698 60.9707C119.086 62.8935 123.502 65.3999 127.639 68.8409C142.2 81.5759 131.783 93.9968 131.783 93.9968C137.014 88.5605 137.231 82.7407 135.692 77.9837C138.449 82.551 140.212 88.0893 139.935 94.9209C139.533 104.71 134.13 113.174 128.44 119.975C125.706 123.277 125.097 127.333 125.097 127.333C125.097 127.333 126.202 123.753 129.365 120.071C135.458 112.968 140.673 105.594 141.353 94.9617C141.985 96.8914 144.582 102.252 148.699 104.272C148.699 104.272 143.524 101.169 141.198 89.0725ZM47.1908 122.722C47.1908 122.722 46.8034 135.675 61.9792 135.675H62.0879C62.0879 135.675 60.7597 133.864 60.3702 128.658C59.6488 119.046 53.1062 117.726 53.1062 117.726C53.1062 117.726 56.5988 117.29 58.1135 115.941C60.4748 113.809 60.3067 111.343 60.3067 111.343C54.9673 111.27 51.4726 109.46 48.7896 106.394C45.92 103.072 45.4445 99.4915 45.4445 99.4915C45.4445 99.4915 48.314 102.08 53.8584 102.08C54.3565 102.08 54.873 102.058 55.41 102.005C58.0418 101.795 59.8599 100.132 59.8599 100.132C54.0736 96.4459 50.0214 90.0121 53.6124 80.3206C56.4902 72.5568 63.4079 66.7553 70.3809 62.3859C72.697 60.9457 73.9863 59.3424 73.9863 57.9654C73.9863 55.9768 72.2478 55.1676 70.4642 54.3374C69.337 53.8128 68.1918 53.2797 67.456 52.4353C65.2628 49.9017 66.6361 45.7934 68.5321 43.3211C68.5321 43.3211 67.9028 43.1905 66.8882 43.1905C64.8836 43.1905 61.4156 43.6903 58.5624 46.6359C54.7644 50.5341 56.3426 54.7832 56.3426 54.7832L55.328 54.979C54.7637 55.0986 54.1941 55.1281 53.6191 55.1579L53.4895 55.1647C53.418 55.1647 53.3507 55.1662 53.2841 55.1678L53.2839 55.1678C53.2189 55.1693 53.1546 55.1708 53.0877 55.1708C47.57 55.1708 45.1227 49.4469 45.1227 49.4469C45.1227 49.4469 39.2749 56.6048 47.8877 62.2186C49.3696 63.1774 50.0214 64.0688 49.8472 65.0153L49.716 65.6395L49.0888 65.7476C43.1208 67.3629 39.9657 71.3588 36.3221 75.9734C36.1603 76.1783 35.9976 76.3845 35.8335 76.5917C29.9797 84.0026 21.699 84.2413 20.67 84.2413H20.5552C20.5552 84.2413 22.4471 90.1835 28.0243 90.1835C28.1124 90.1835 28.1964 90.1835 28.2887 90.1774C30.8528 90.0856 32.1667 89.1125 32.1667 89.1125C32.1667 89.1125 33.1567 102.598 23.0476 106.78C23.0476 106.78 24.8883 109.964 29.1085 109.964H29.1577C34.2307 109.936 36.2701 106.86 36.2701 106.86C36.2701 106.86 35.975 110.862 37.793 116.261C39.9923 122.775 37.7869 127.424 37.7869 127.424C37.7869 127.424 38.9634 127.742 40.3285 127.742C40.8553 127.742 41.3964 127.691 41.9026 127.558C46.1332 126.557 47.1908 122.722 47.1908 122.722ZM63.5889 134.628C63.592 134.633 63.5937 134.636 63.5939 134.637L65.4407 137.444L62.1038 137.489C56.5922 137.489 52.3781 135.975 49.445 132.977C47.7212 131.202 46.7292 129.197 46.1491 127.424C45.1981 128.238 43.9478 128.952 42.3306 129.331C41.7239 129.474 41.0536 129.549 40.3301 129.549C38.7845 129.549 37.4748 129.224 37.3269 129.187L37.3253 129.186L35.1915 128.623L36.1364 126.647L36.1429 126.632C36.2758 126.319 37.9427 122.396 36.0688 116.853C35.2448 114.401 34.8247 112.21 34.6197 110.503C33.2771 111.197 31.4837 111.772 29.1757 111.778C23.935 111.778 21.5978 107.92 21.4635 107.699L21.4608 107.694L20.4236 105.893L22.3421 105.105C28.6264 102.509 30.0202 95.5363 30.3051 91.7646C29.7271 91.8727 29.0774 91.9727 28.3559 91.9931L28.0259 92.0033C21.1881 92.0033 18.9069 85.0839 18.8167 84.7882L18.0337 82.3484L20.6081 82.428C21.512 82.428 29.0671 82.2301 34.4065 75.4679L34.9107 74.8416L34.9466 74.7962C38.4261 70.3924 41.7319 66.2084 47.6433 64.2975C47.4712 64.1445 47.2355 63.9548 46.8932 63.7365C43.7489 61.6823 41.9186 59.1814 41.4636 56.2807C40.7959 51.9998 43.4823 48.5672 43.6867 48.3061L43.6957 48.2945L45.6183 45.9548L46.803 48.731C46.8788 48.9065 48.8711 53.3534 53.0893 53.3534H53.3988C53.4697 53.3494 53.5398 53.3456 53.6092 53.3418L53.6093 53.3418L53.6094 53.3418L53.6094 53.3418L53.6096 53.3418C53.8194 53.3304 54.0237 53.3193 54.2269 53.3024C54.0834 51.3197 54.4503 48.2537 57.2522 45.3673C60.6157 41.9035 64.7315 41.3813 66.8898 41.3813C67.9135 41.3813 68.6237 41.4933 68.8313 41.526C68.8581 41.5302 68.8766 41.5331 68.8862 41.5343L71.7742 42.1014L69.991 44.4269C68.5992 46.2179 67.3366 49.5286 68.835 51.2544C69.281 51.7688 70.1685 52.1906 71.0502 52.6097L71.0502 52.6097L71.2372 52.6986C73.1721 53.5839 75.81 54.8222 75.81 57.9656C75.81 59.9974 74.2359 62.127 71.3602 63.9364C62.8396 69.2605 57.5966 74.8192 55.3296 80.9532C51.8267 90.3897 56.3873 95.7709 60.8453 98.6084L62.8396 99.8834L61.0913 101.479C60.8556 101.687 58.7198 103.557 55.5633 103.826C54.9689 103.863 54.4032 103.898 53.86 103.898C51.8349 103.898 50.1214 103.582 48.7235 103.155C49.113 103.826 49.5885 104.512 50.1767 105.201C52.7163 108.127 55.8502 109.461 60.3288 109.534L62.0116 109.561L62.1243 111.227C62.1448 111.564 62.2719 114.654 59.3326 117.284C58.8817 117.692 58.3468 118.026 57.7667 118.297C59.7672 120.084 61.7923 123.197 62.1899 128.525C62.5174 132.81 63.5095 134.493 63.5889 134.628ZM31.5417 64.2748C32.9498 62.8326 34.4318 62.4001 35.7108 62.4001C37.6785 62.4001 39.1686 63.4405 39.1686 63.4405C36.3047 64.9607 34.6656 66.9742 33.2877 68.667C32.1084 70.1157 31.1204 71.3295 29.7196 71.7979C29.2194 71.9754 28.6988 72.0529 28.1802 72.0529C25.9481 72.0529 23.7857 70.6148 23.0479 68.9747C23.0479 68.9747 27.1431 68.7259 31.5417 64.2748ZM28.1794 73.8605C28.9131 73.8605 29.6264 73.7523 30.3028 73.5218C32.188 72.9005 33.3956 71.4192 34.6592 69.8692L34.7014 69.8174L34.7382 69.7724C36.0387 68.1802 37.5026 66.388 40.0306 65.0502L42.6542 63.6488L40.2171 61.9454L40.1843 61.9247C39.8643 61.7207 38.0851 60.5869 35.7099 60.5869C33.6786 60.5869 31.7929 61.4151 30.2372 62.994C26.4535 66.8412 23.0613 67.1513 22.9383 67.1533L20.2983 67.3083L21.3826 69.7195C22.471 72.1245 25.3344 73.8605 28.1794 73.8605ZM44.3437 77.9841C41.5848 82.5514 39.8221 88.0877 40.107 94.9213C40.5026 104.711 45.9055 113.176 51.5831 119.975C54.3297 123.274 54.9467 127.333 54.9467 127.333C54.9467 127.333 53.8316 123.753 50.671 120.069C44.5773 112.968 39.365 105.59 38.6763 94.9621C38.045 96.8919 35.4522 102.253 31.3405 104.272C31.3405 104.272 36.5119 101.17 38.8341 89.0709V89.1668C40.3734 76.8479 49.3572 67.9519 59.3617 62.5462C60.1842 62.104 60.9639 61.7224 61.7067 61.3589L61.9648 61.2325C58.9251 61.7058 54.0202 61.7609 50.2345 58.495C50.2345 58.495 56.0268 62.7339 67.8842 58.8826C66.9337 59.4965 65.7236 60.1837 64.3425 60.968L64.3424 60.9681C60.9557 62.8913 56.5408 65.3985 52.403 68.8413C37.8359 81.5764 48.2565 93.9993 48.2565 93.9993C43.0134 88.5609 42.8044 82.7391 44.3437 77.9841ZM86.5909 70.0004V72.4419C87.4374 71.418 89.0708 71.628 89.0708 71.628V75.1465C89.0708 75.1465 89.0154 76.8802 88.3965 77.6288H90.1713H91.9359C91.3272 76.8802 91.2637 75.1465 91.2637 75.1465V71.628C91.2637 71.628 92.9033 71.418 93.7415 72.4419V70.0004H90.1713H86.5909ZM86.8501 56.5627C86.7149 56.5188 86.0858 56.3147 85.0695 55.5136C83.1963 54.0675 83.1594 52.7355 83.1594 52.7355L87.3198 54.4754V56.7741L86.8771 56.5722C86.8748 56.5707 86.8657 56.5678 86.8502 56.5627L86.8501 56.5627ZM94.9615 55.5136C96.8408 54.0675 96.8777 52.7355 96.8777 52.7355L92.7153 54.4754V56.7741L93.1559 56.5722C93.1582 56.5707 93.1673 56.5678 93.1828 56.5627C93.318 56.5188 93.9469 56.3148 94.9615 55.5136ZM79.9927 45.4493L90.0136 49.3883L100.037 45.4493C99.19 43.44 95.2608 41.7347 90.0136 41.7285C84.7746 41.7347 80.8475 43.44 79.9927 45.4493ZM90.7495 65.2627L97.4867 61.7337L99.889 47.8726L90.7495 50.961V65.2627ZM104.739 67.3067L101.658 65.5279L98.4931 63.7226L90.0382 68.3042L90.0136 68.2858L89.9972 68.3042L81.5423 63.7226L78.3776 65.5279L75.2908 67.3067H75.258L74.4771 67.7575C76.2172 68.2348 77.5393 69.0916 78.6625 70.2298C78.6804 70.2468 78.6967 70.2654 78.7131 70.2842C78.7381 70.3128 78.7636 70.3419 78.7957 70.3665C79.0437 70.6317 79.2897 70.9213 79.5254 71.211C79.5357 71.2236 79.546 71.2359 79.5562 71.2482C79.6007 71.3018 79.6444 71.3544 79.6894 71.4191C79.9066 71.7047 80.126 72.0127 80.3391 72.3248C80.3658 72.3594 80.3918 72.3986 80.4186 72.439C80.4392 72.47 80.4603 72.5018 80.4826 72.5329C80.7368 72.9123 80.9766 73.3101 81.2143 73.718C83.4034 77.4776 86.9043 79.7255 90.0136 79.7296C93.1271 79.7255 96.6259 77.4776 98.819 73.718C99.0609 73.2999 99.3069 72.8919 99.561 72.5145C99.5979 72.4615 99.6389 72.4043 99.6737 72.3493C99.889 72.0249 100.116 71.7087 100.352 71.4048C100.378 71.3711 100.404 71.3384 100.429 71.3069C100.452 71.2774 100.475 71.2488 100.496 71.2212C100.74 70.9213 100.992 70.6296 101.248 70.3563C101.268 70.3377 101.287 70.3187 101.306 70.3002C101.327 70.2781 101.349 70.2568 101.371 70.238C102.488 69.1018 103.814 68.2348 105.554 67.7575L104.779 67.3067H104.739ZM112.546 83.9726C112.546 82.0225 113.115 80.0621 113.804 78.2507H98.0032C95.5846 80.6394 93.2623 81.5268 91.186 81.7308C90.8109 81.7695 90.4296 81.794 90.0443 81.794H90.0135H89.991C89.6057 81.794 89.2203 81.7695 88.8473 81.7308C88.4845 81.7002 88.1032 81.643 87.722 81.5553C87.5867 82.0939 87.4125 83.2138 87.9065 84.2827C88.3492 85.2475 89.2388 85.9676 90.5403 86.4449L90.9789 86.6143L90.9851 87.0834C90.9851 87.2242 91.0876 90.2677 94.4183 91.1122L94.4386 91.0915C94.9737 90.5428 95.46 90.0442 95.8223 89.6292C95.1418 88.032 95.4985 86.4041 96.4885 85.6065C96.4454 85.7759 96.0109 89.7679 99.2248 91.2509L99.7557 91.5039L99.5978 92.0669C99.5466 92.2342 98.4746 96.0977 102.367 97.5358L103.056 97.7929L102.752 98.4599C102.683 98.6109 101.158 102.115 104.753 104.104H112.552V97.9459C109.781 97.6072 108.604 95.3899 108.301 93.8171C107.014 93.5988 106.015 93.042 105.329 92.1403C103.868 90.222 104.837 88.4505 105.072 88.0204C105.1 87.9693 105.118 87.9372 105.12 87.9259C105.118 87.9443 105.12 90.0352 106.417 91.3244C107.057 91.9445 107.821 92.4279 108.969 92.5361L109.537 92.5891L109.588 93.1643C109.598 93.2888 109.908 96.1181 112.552 96.5608L112.546 83.9726ZM104.933 128.589L104.062 133.103C109.262 131.83 112.56 127.926 112.56 122.335L112.552 105.465H67.4855V122.335C67.4855 129.236 72.5031 133.554 79.9066 133.554C86.0925 133.554 87.722 133.795 90.0238 136.065C91.6082 134.491 92.9179 133.903 95.6112 133.685L95.6748 133.422L97.0972 129.056C97.0173 128.954 94.695 126.331 94.695 126.331C93.7727 126.635 92.9979 126.686 91.7025 126.686C90.3681 126.686 88.8616 126.531 87.2301 126.225C87.0661 126.188 86.9124 126.174 86.7587 126.174C86.5578 126.174 86.5475 126.188 86.4922 126.286L86.2114 126.749L85.6949 127.6L84.7192 127.375L80.3965 126.362L79.8041 127.337L79.8922 127.441L80.4149 128.018L80.1812 128.769C79.8656 129.752 78.8326 130.902 78.5169 131.216L77.4367 132.373L76.4529 131.133L75.7129 130.209C74.9361 129.342 74.7557 128.018 75.1944 126.625C75.1841 126.635 75.1657 126.641 75.1493 126.645L73.9297 127.147L73.3825 125.962L72.9951 125.121C72.331 123.638 72.5749 121.476 74.3643 120.166L77.8446 118.212L81.1589 118.861C81.1947 118.719 81.2378 118.414 81.283 118.094C81.3389 117.7 81.3979 117.283 81.45 117.123C81.4288 117.12 81.4081 117.117 81.3874 117.113C81.3459 117.106 81.3045 117.098 81.2594 117.098L79.3532 117.808L77.5105 116.548C77.5105 116.548 76.7931 115.854 77.4429 115.165L79.224 112.478L74.7086 106.834L81.6509 109.673L82.1141 109.102L83.0508 107.986L84.1146 108.992C84.4159 109.282 84.5881 109.636 84.6721 109.993C86.5824 110.732 90.0135 112.921 90.3169 116.478L89.2429 116.907V116.929C89.4909 117.221 89.6917 117.339 89.7553 117.351L94.7135 117.837C94.7957 117.821 94.8912 117.791 94.9977 117.759C95.0532 117.742 95.1116 117.724 95.1726 117.706C95.7854 117.5 96.7098 117.196 97.8085 117.196C98.7001 117.196 99.5609 117.398 100.393 117.786C100.699 117.672 101.074 117.586 101.51 117.559L101.748 117.553C104.399 117.553 105.719 119.519 106.776 121.093L106.78 121.099C106.956 121.374 107.13 121.627 107.313 121.884C108.241 123.185 109.449 125.085 109.5 125.17L110.045 126.019L109.377 126.794C108.862 127.388 108.086 128.083 106.757 128.083C106.485 128.083 106.188 128.053 105.86 127.991C105.579 127.938 105.321 127.855 105.075 127.753C105.036 128.012 104.98 128.322 104.933 128.589ZM76.5388 124.148L76.3052 123.564C76.1371 123.185 76.1597 122.773 76.4814 122.549L78.3772 121.247L81.5436 121.851C81.5436 121.851 80.9718 121.137 81.0271 120.183L78.0042 119.546L75.1534 121.272C73.9298 122.184 73.8417 123.67 74.2475 124.554L74.6246 125.38C74.6246 125.38 76.3851 124.66 76.5388 124.148ZM102.613 133.381L103.587 128.334C103.695 127.783 103.798 127.045 103.798 127.045C103.743 126.99 103.678 126.927 103.605 126.856C103.168 126.431 102.439 125.724 102 124.893C101.638 124.2 101.57 123.681 101.493 123.095C101.425 122.57 101.349 121.992 101.049 121.186C101.049 121.186 101.244 120.791 101.695 120.791C101.764 120.791 101.842 120.799 101.916 120.819C102.507 120.986 102.911 121.984 103.367 123.11C103.984 124.636 104.698 126.399 106.104 126.657C106.345 126.704 106.565 126.721 106.757 126.721C107.467 126.721 107.887 126.423 108.34 125.888C108.34 125.888 107.11 123.967 106.194 122.669C106 122.399 105.813 122.121 105.626 121.843C104.636 120.37 103.662 118.92 101.748 118.92C101.695 118.92 101.629 118.92 101.574 118.928C100.824 118.963 100.362 119.328 100.362 119.328C99.4422 118.753 98.5813 118.557 97.8086 118.557C96.9316 118.557 96.1743 118.803 95.5921 118.993C95.2285 119.111 94.9332 119.208 94.7197 119.208H94.6992L89.6242 118.706C88.8289 118.632 88.1997 117.837 87.9742 117.523C87.9189 117.439 87.8881 117.388 87.8881 117.388C87.8881 117.253 87.8881 117.111 87.8799 116.986C87.7078 112.853 84.4918 111.085 83.346 111.056C83.346 111.056 83.4813 110.273 83.1718 109.971L82.0506 111.323L78.3776 109.488L81.0012 112.537L78.7814 115.018C78.5006 115.301 78.5354 115.681 78.6523 115.842L79.6115 116.686L80.829 115.954C80.8885 115.907 81.0012 115.895 81.1324 115.895C81.288 115.895 81.4799 115.913 81.6862 115.933C81.9257 115.956 82.1844 115.981 82.4278 115.981C82.9238 115.981 83.3522 115.876 83.4034 115.413C83.3576 115.876 83.1955 116.441 83.0172 117.063C82.605 118.5 82.1065 120.237 82.7619 121.698L83.4588 123.281L78.9679 122.635L76.867 126.168C76.2173 127.343 76.1168 128.614 76.7379 129.307L77.525 130.286C77.525 130.286 78.6277 129.124 78.8736 128.357L78.517 127.967C78.2157 127.636 78.2321 127.343 78.4166 126.99L79.7325 124.817L85.0329 126.058L85.3158 125.584C85.6745 124.989 86.191 124.811 86.7588 124.811C86.9945 124.811 87.2343 124.838 87.4823 124.879C88.4661 125.072 90.0833 125.329 91.7026 125.329C93.4776 125.329 95.2444 125.013 96.1832 123.967C97.166 125.417 98.6662 126.243 99.8545 126.897C100.986 127.52 101.834 127.987 101.685 128.689L100.662 133.538C101.338 133.511 101.992 133.466 102.613 133.381ZM97.0338 133.602C97.5974 133.58 98.2307 133.572 98.9132 133.572C98.9132 133.572 100.545 128.826 100.637 128.675C99.7227 128.275 97.827 127.273 97.0932 126.814C97.2513 127.05 97.4836 127.297 97.7164 127.544C98.1961 128.053 98.6783 128.564 98.5197 128.993L97.0338 133.602ZM77.0125 84.0214L76.8014 92.0332L77.7175 92.1739L79.9555 84.4823L78.8201 82.1183L77.0125 84.0214ZM79.2994 95.7792C78.9284 95.5447 78.3956 95.1347 78.0984 94.5167C77.7623 93.8048 77.2766 93.4744 76.5695 93.4744C75.6472 93.4744 74.6635 94.0251 74.2393 94.2842C73.9031 96.2606 75.3665 98.0514 76.3481 98.4125C77.2376 98.7347 78.3177 98.802 78.871 98.802C78.8784 98.7779 78.8873 98.7515 78.8969 98.7229C78.9142 98.6716 78.9338 98.6133 78.951 98.5491C78.9981 98.388 79.0432 98.2228 79.0801 98.0473C79.2338 97.2519 79.2891 96.3565 79.2994 95.7792ZM92.7601 101.193C94.0596 100.29 97.6404 97.6888 99.028 96.6709C98.0175 95.2022 97.9212 93.4581 98.1487 92.2341C97.4867 91.8119 96.9824 91.3325 96.5787 90.8266C95.0444 92.4918 92.1785 95.2673 91.5243 95.9008C91.4549 95.9681 91.4104 96.0112 91.395 96.0263L91.1921 96.2303L80.6875 96.063C80.6793 97.1013 80.5112 97.9805 80.3473 98.6272C80.3314 98.6916 80.314 98.7574 80.2966 98.8239C80.2847 98.869 80.2728 98.9143 80.2612 98.9597L92.7601 101.193ZM86.4021 81.1677C85.0063 80.6619 83.5346 79.7357 82.0301 78.2507H66.2333C66.9117 80.0621 67.4856 82.0225 67.4856 83.9726V104.104H102.539C100.787 102.305 100.815 100.027 101.256 98.5497C100.748 98.3049 100.328 98.0132 99.9525 97.6909C98.5813 98.6965 94.4041 101.724 93.3075 102.487L93.0738 102.64L79.3184 100.169H79.0376C78.7076 100.169 78.2259 100.155 77.6971 100.092C77.5496 100.71 77.0125 101.13 76.3997 101.13C76.33 101.13 76.2521 101.126 76.1804 101.112C75.8217 101.051 75.5101 100.869 75.3011 100.569C75.0858 100.275 75.0018 99.9245 75.0612 99.5655L75.1104 99.2677C73.6941 98.2743 72.3844 96.0528 72.9644 93.709L73.0198 93.4601L73.2227 93.3194C73.2493 93.2969 73.4871 93.1358 73.8417 92.9359L72.8435 92.7829C72.4684 92.7176 72.2163 92.3688 72.2757 92.0036C72.3393 91.6324 72.6918 91.3631 73.0608 91.4345L75.4425 91.8119L75.6597 83.4667L79.2036 79.7357L81.4152 84.3683L79.0807 92.3953L81.1836 92.7258C81.5546 92.7849 81.8067 93.1297 81.7514 93.5091C81.6961 93.8457 81.4091 94.0721 81.077 94.0721C81.0402 94.0721 81.0053 94.0721 80.9684 94.068L79.259 93.7947C79.2695 93.8186 79.2824 93.8375 79.2951 93.8564C79.3096 93.8778 79.3239 93.8991 79.3348 93.9273C79.5152 94.3046 79.921 94.5698 80.1588 94.6881L90.6429 94.8534L90.6856 94.8118C91.1553 94.3552 92.2251 93.3151 93.3218 92.2138C90.7392 91.2407 89.8025 89.0295 89.6447 87.5587C88.2038 86.9468 87.2076 86.0308 86.6542 84.8416C85.9819 83.3667 86.2197 81.8878 86.4021 81.1677ZM89.2838 50.961L80.1361 47.8726L82.5465 61.7337L89.2838 65.2627V50.961ZM90.0361 39.5173C96.55 39.5173 102.453 42.6567 102.453 46.1469L102.326 47.0057L99.7229 61.8683L102.326 63.3779L109.098 67.3067H109.074C109.074 67.3067 110.596 68.0839 111.291 68.5633C113.88 70.34 114.421 72.9388 112.925 74.0118C112.552 71.8944 110.873 69.6832 107.727 69.6832C105.458 69.6832 103.732 70.8418 102.326 72.5941C101.976 73.0347 101.635 73.5059 101.313 74.0118C100.92 74.6523 100.53 75.2133 100.141 75.7518H117.561C116.276 78.3139 115.063 81.025 115.063 83.9726V122.335C115.063 131.622 107.897 136.051 100.131 136.051C99.6786 136.051 99.2558 136.049 98.8592 136.048C93.9912 136.03 93.0696 136.027 90.0238 139.062C86.9649 136.027 86.0422 136.03 81.1773 136.048C80.781 136.049 80.3585 136.051 79.9066 136.051C72.1465 136.051 64.9706 131.622 64.9706 122.335V83.9726C64.9706 81.025 63.7552 78.3139 62.4741 75.7518H79.8923C79.5008 75.2133 79.1073 74.6523 78.7158 74.0118C78.4001 73.5059 78.0578 73.0347 77.6971 72.5941C76.3053 70.8479 74.5754 69.6832 72.3085 69.6832C69.1581 69.6832 67.4774 71.8944 67.1084 74.0118C65.6142 72.9388 66.1615 70.34 68.7359 68.5633C69.441 68.0839 70.9618 67.3067 70.9618 67.3067H70.9372L77.6971 63.3779L80.3125 61.8683L77.7094 47.0057L77.5802 46.1469C77.5802 42.6567 83.4833 39.5173 89.9972 39.5173H90.0136H90.03H90.0361Z" fill="#231F20"/>
</svg>
