<svg viewBox="0 0 16 16" fill="none" xmlns="http://www.w3.org/2000/svg">
  <path fill-rule="evenodd" clip-rule="evenodd"
        d="M10 3C10.5523 3 11 2.55228 11 2V1C11 0.447715 10.5523 0 10 0H6C5.44772 0 5 0.447715 5 0.999999V2C5 2.55228 5.44772 3 6 3L10 3ZM11 5C12.1 5 13 4.1 13 3V1H14C14.6 1 15 1.4 15 2V13C15 14.1 14.1 15 13 15H3C1.9 15 1 14.1 1 13V2C1 1.4 1.4 1 2 1H3V3C3 4.1 3.9 5 5 5H11ZM7 9.6L6.7 9.3C6.3 8.9 5.7 8.9 5.3 9.3C4.9 9.7 4.9 10.3 5.3 10.7L6.3 11.7C6.7 12.1 7.3 12.1 7.7 11.7L10.7 8.7C11.1 8.3 11.1 7.7 10.7 7.3C10.3 6.9 9.7 6.9 9.3 7.3L7 9.6Z"
        fill="rgb(136, 147, 151)"/>
</svg>
