<svg viewBox="0 0 16 16" fill="none" xmlns="http://www.w3.org/2000/svg">
  <path fill-rule="evenodd" clip-rule="evenodd"
        d="M12.667 14C14.536 13.829 16 12.218 16 10.276a3.73 3.73 0 0 0-1.933-3.281c.005-.084.007-.169.007-.254C14.074 4.123 12.05 2 9.555 2c-1.734 0-3.24 1.026-3.998 2.53a3.332 3.332 0 0 0-.224-.007c-1.49 0-2.75.992-3.178 2.36A3.726 3.726 0 0 0 0 10.276C0 12.218 1.464 13.829 3.333 14h9.334Zm-.66-5.851.063-1.255c.002-.05.004-.101.004-.153C12.074 5.135 10.857 4 9.555 4c-.913 0-1.763.539-2.211 1.43l-.597 1.185-1.324-.09a1.34 1.34 0 0 0-1.359.954l-.265.85-.808.371C2.415 8.965 2 9.564 2 10.276c0 .907.662 1.615 1.444 1.724h9.112c.782-.11 1.444-.817 1.444-1.724 0-.67-.367-1.24-.891-1.526l-1.102-.601Z"
        fill="rgb(136, 147, 151)"/>
</svg>
