<svg viewBox="0 0 16 16" fill="none" xmlns="http://www.w3.org/2000/svg">
  <path fill-rule="evenodd" clip-rule="evenodd"
        d="M5 1C5 0.447715 4.55228 0 4 0C3.44772 0 3 0.447715 3 1V4H2.57C2.03823 4 1.77235 4 1.56713 4.09855C1.36222 4.19694 1.19694 4.36222 1.09854 4.56713C1 4.77235 1 5.03823 1 5.57V10.43C1 10.9618 1 11.2277 1.09854 11.4329C1.19694 11.6378 1.36222 11.8031 1.56713 11.9015C1.77235 12 2.03823 12 2.57 12H3V15C3 15.5523 3.44772 16 4 16C4.55228 16 5 15.5523 5 15V12H5.43C5.96177 12 6.22765 12 6.43287 11.9015C6.63778 11.8031 6.80306 11.6378 6.90145 11.4329C7 11.2277 7 10.9618 7 10.43V5.57C7 5.03823 7 4.77235 6.90145 4.56713C6.80306 4.36222 6.63778 4.19694 6.43287 4.09855C6.22765 4 5.96177 4 5.43 4H5V1ZM13 1C13 0.447715 12.5523 0 12 0C11.4477 0 11 0.447715 11 1V3H10.57C10.0382 3 9.77235 3 9.56713 3.09854C9.36222 3.19694 9.19694 3.36222 9.09855 3.56713C9 3.77235 9 4.03823 9 4.57V7.43C9 7.96177 9 8.22765 9.09855 8.43287C9.19694 8.63778 9.36222 8.80306 9.56713 8.90145C9.77235 9 10.0382 9 10.57 9H11V12C11 12.5523 11.4477 13 12 13C12.5523 13 13 12.5523 13 12V9H13.43C13.9618 9 14.2277 9 14.4329 8.90145C14.6378 8.80306 14.8031 8.63778 14.9015 8.43287C15 8.22765 15 7.96177 15 7.43V4.57C15 4.03823 15 3.77235 14.9015 3.56713C14.8031 3.36222 14.6378 3.19694 14.4329 3.09854C14.2277 3 13.9618 3 13.43 3H13V1ZM5 10V6H3V10H5ZM13 5V7H11V5H13Z"
        fill="rgb(9, 19, 44)"></path>
</svg>
