<svg viewBox="0 0 16 16" fill="none" xmlns="http://www.w3.org/2000/svg">
  <path fill-rule="evenodd" clip-rule="evenodd"
        d="M8 2C11.3137 2 14 4.68629 14 8C14 11.3137 11.3137 14 8 14C4.68629 14 2 11.3137 2 8C2 4.68629 4.68629 2 8 2ZM8 16C12.4183 16 16 12.4183 16 8C16 3.58172 12.4183 0 8 0C3.58172 0 0 3.58172 0 8C0 12.4183 3.58172 16 8 16ZM4.29289 7.29289C4.68342 6.90237 5.31658 6.90237 5.70711 7.29289L7.09384 8.67962L10.4 5.2C10.8418 4.86863 11.4686 4.95817 11.8 5.4C12.1314 5.84183 12.0418 6.46863 11.6 6.8L7.6 10.8C7.20188 11.0986 6.64478 11.059 6.29289 10.7071L4.29289 8.70711C3.90237 8.31658 3.90237 7.68342 4.29289 7.29289Z"
        fill="rgb(11,176,109)"/>
</svg>
