<svg viewBox="0 0 17 16" fill="none" xmlns="http://www.w3.org/2000/svg">
  <circle cx="12.5" cy="14.5" r="1.5" fill="rgb(136, 147, 151)"/>
  <circle cx="6.5" cy="14.5" r="1.5" fill="rgb(136, 147, 151)"/>
  <path fill-rule="evenodd" clip-rule="evenodd"
        d="M0.999939 1.00018C0.507662 1.00018 -6.10352e-05 1.54501 -6.10352e-05 2.03729C-6.10352e-05 2.52956 0.507662 3.00018 0.999939 3.00018H1.99998L2.44818 4.89184C2.44784 4.93233 2.45165 4.97359 2.46001 5.01517L3.58182 10.5002C3.74913 11.3327 4.15078 12.0002 4.99994 12.0002H12.9999C13.8491 12.0002 14.8326 11.3327 14.9999 10.5002L15.9788 5.72647C16.1267 4.99076 15.7504 4.00018 14.9999 4.00018L3.99998 4.00018L3.61322 2.03729C3.52515 1.62631 2.92024 1.00018 2.49994 1.00018H0.999939Z"
        fill="rgb(136, 147, 151)"/>
</svg>
