<svg viewBox="0 0 16 16" fill="none" xmlns="http://www.w3.org/2000/svg">
  <path fill-rule="evenodd" clip-rule="evenodd"
        d="M8 15C11.866 15 15 11.866 15 8C15 4.134 11.866 1 8 1C4.134 1 1 4.134 1 8C1 11.866 4.134 15 8 15ZM10.6745 9.62376L8.99803 8.43701L8.9829 4.5097C8.98078 3.95742 8.53134 3.51143 7.97906 3.51356C7.42678 3.51568 6.98079 3.96512 6.98292 4.5174L7.00019 9.00001C7.00152 9.34537 7.18096 9.66281 7.47482 9.84425L9.62376 11.3255C10.0937 11.6157 10.7099 11.4699 11 11C11.2901 10.5301 11.1444 9.91391 10.6745 9.62376Z"
        fill="rgb(9, 19, 44)"></path>
</svg>
