<?xml version="1.0" encoding="UTF-8" standalone="no"?>
<svg
  xmlns:svg="http://www.w3.org/2000/svg"
  xmlns="http://www.w3.org/2000/svg"
  version="1.0"
  width="921.25983"
  height="223.58267"
>
  <g
    transform="translate(46.719064,-552.09867)"
  >
    <g
      transform="translate(17.716536,17.639191)"
    >
      <path
        d="M 460.75865,581.08405 C 518.39462,581.08405 526.76222,579.27663 526.76222,641.12984 L 526.76222,641.26377 C 526.76222,703.18391 518.32768,700.77408 460.69172,700.77408 L 394.88895,700.77408 L 395.02282,581.08405 L 460.75865,581.08405 z M 481.37637,661.94842 L 481.37637,620.24433 L 439.73927,620.24433 L 439.73927,661.94842 L 481.37637,661.94842 z M 568.39932,700.84101 L 521.34004,700.84101 L 577.16859,581.15098 L 623.35772,581.15098 L 679.25319,700.84101 L 632.19389,700.84101 L 625.63368,686.98429 L 574.95957,686.98429 L 568.39932,700.84101 z M 600.33006,623.85915 L 587.14274,652.44286 L 613.45044,652.44286 L 600.33006,623.85915 z M 283.23179,581.08405 C 252.57293,581.61953 252.77379,601.63483 252.84073,618.63777 L 252.84073,618.63777 C 252.77379,635.77459 251.97046,656.6601 283.23179,657.1287 M 283.23179,657.1287 L 344.21484,657.1287 L 344.21484,665.29545 L 257.52657,665.29545 L 257.52657,700.77408 L 340.66695,700.77408 L 352.78325,700.77408 C 384.11152,700.30548 383.24125,679.41996 383.24125,662.28315 L 383.24125,662.28315 C 383.24125,645.07934 384.04453,624.32775 352.78325,623.79222 L 289.18951,623.79222 L 289.18951,615.69235 L 374.13731,615.69235 L 374.13731,581.15098 L 283.03099,581.08405 M -4.0108943,644.74467 L 52.085456,700.84101 L 92.517666,700.84101 L 92.517666,581.15098 L 49.876376,581.15098 L 49.809446,637.18034 L -6.2869043,581.15098 L -46.719064,581.15098 L -46.719064,700.84101 L -4.0108943,700.84101 L -4.0108943,644.74467 z M 673.69719,640.92903 C 673.69719,703.11697 682.33249,701.37655 739.96849,701.37655 L 740.03539,701.37655 C 797.67139,701.37655 806.10589,703.11697 806.10589,640.92903 L 806.10589,640.79516 C 806.10589,578.54029 797.67139,580.34765 740.03539,580.34765 L 739.96849,580.34765 C 682.33249,580.34765 673.69719,578.54029 673.69719,640.79516 L 673.69719,640.92903 z M 719.08299,661.74761 L 719.08299,620.04352 L 760.78699,620.04352 L 760.78699,661.74761 L 719.08299,661.74761 z M 801.21929,740.40296 L 801.21929,699.83688 L 760.72009,699.83688 L 760.72009,740.40296 L 801.21929,740.40296 z M 150.01971,686.98429 L 200.69388,686.98429 L 207.25407,700.84101 L 254.31341,700.84101 L 198.41792,581.15098 L 152.22879,581.15098 L 96.400176,700.84101 L 143.45952,700.84101 L 150.01971,686.98429 z M 188.51064,652.44286 L 162.20295,652.44286 L 175.39026,623.85915 L 188.51064,652.44286 z "
        style="fill:#339dc7;fill-opacity:1;fill-rule:nonzero;stroke:none;stroke-width:0.5;stroke-linecap:butt;stroke-linejoin:miter;stroke-miterlimit:4;stroke-dasharray:none"
      />
      <path
        d="M 816.34789,564.61658 C 816.34789,558.65886 820.76599,554.17382 826.45589,554.17382 C 832.14589,554.17382 836.56399,558.65886 836.56399,564.61658 C 836.56399,570.5743 832.14589,575.05934 826.45589,575.05934 C 820.76599,575.05934 816.34789,570.5743 816.34789,564.61658 z M 826.45589,577.13449 C 833.28389,577.13449 839.10769,571.84617 839.10769,564.61658 C 839.10769,557.45392 833.28389,552.09867 826.45589,552.09867 C 819.62799,552.09867 813.80409,557.45392 813.80409,564.61658 C 813.80409,571.84617 819.62799,577.13449 826.45589,577.13449 z M 823.84519,565.55378 L 826.32199,565.55378 L 830.13759,571.84617 L 832.61449,571.84617 L 828.53099,565.48685 C 830.60619,565.21905 832.21279,564.08104 832.21279,561.53735 C 832.21279,558.65886 830.53929,557.45392 827.12529,557.45392 L 821.63619,557.45392 L 821.63619,571.84617 L 823.84519,571.84617 L 823.84519,565.55378 z M 823.84519,563.74637 L 823.84519,559.26133 L 826.79059,559.26133 C 828.33019,559.26133 829.93679,559.59606 829.93679,561.40342 C 829.93679,563.6125 828.33019,563.74637 826.45589,563.74637 L 823.84519,563.74637 z "
        style="fill:#339dc7;fill-opacity:1;fill-rule:nonzero;stroke:none;stroke-width:0.5;stroke-linecap:butt;stroke-linejoin:miter;stroke-miterlimit:4;stroke-dasharray:none"
      />
    </g>
  </g>
</svg>
