<!-- by TradingView --><svg width="18" height="18" viewBox="0 0 18 18" xmlns="http://www.w3.org/2000/svg"><path fill="#EE2722" d="M0 0h18v18H0z"/><path fill-rule="evenodd" d="M10.86 11.81V8h2.51v3.81h-2.51ZM5 12.44h4.39c-.5.56-1.48.94-2.37.94a3.35 3.35 0 0 1-3.4-3.4 3.42 3.42 0 0 1 3.4-3.48c.9 0 1.78.4 2.26.94H5v5Zm3.7-.63H5.65V8H8.9L7.06 9.98 8.7 11.8Zm-.79-1.83 2.32-2.54v5L7.9 9.98Zm5.25-2.54H14v5h-3.77A4.36 4.36 0 0 1 7.02 14a4.07 4.07 0 0 1 0-8.13c1.26 0 2.44.67 3.2 1.57h.85A1.87 1.87 0 0 1 12.15 4a1.88 1.88 0 0 1 1 3.44Zm.21-1.56c0 .69-.56 1.25-1.26 1.25-.69 0-1.25-.56-1.25-1.25a1.25 1.25 0 0 1 2.51 0Z" fill="#fff"/></svg>