<!-- by TradingView --><svg width="18" height="18" xmlns="http://www.w3.org/2000/svg"><path fill="#0093D0" d="M0 0h18v18H0z"/><path d="M10.274 6.087a.853.853 0 01-.486-.768c0-.464.383-.855.869-.855.471 0 .869.377.869.855a.85.85 0 01-.501.768v.246c.265.03.59.13.795.232.089-.014.207-.014.324-.014 1.09 0 1.856.71 1.856 1.68 0 .61-.545 1.16-1.164 1.16-.618 0-1.178-.594-1.06-1.203 0 0-.059.203-.059.464v3.073c-.03.348-.5 2.275-2.71 2.275-2.209 0-2.68-1.928-2.71-2.275V8.652c0-.246-.073-.464-.073-.464.118.58-.457 1.203-1.06 1.203-.62 0-1.164-.55-1.164-1.16 0-.97.766-1.68 1.856-1.68.117 0 .235 0 .324.014.191-.101.53-.217.795-.232v-.246a.853.853 0 01-.486-.768c0-.464.383-.855.869-.855s.869.377.869.855a.85.85 0 01-.5.768v.319c.073.029.146.043.22.087.133-.29.398-.507.707-.609v-.26a.85.85 0 01-.5-.769c0-.464.382-.855.868-.855.471 0 .869.377.869.855a.863.863 0 01-.486.768v.261c.31.102.574.319.707.609l.22-.087-.058-.319z" fill="#fff"/><path d="M13.632 8.246c0-.797-.545-1.434-1.679-1.434-.751 0-1.635.623-1.635 2.203v2.347c.324-.217.78-.405 1.017-.405V8.768c0-.84.618-1.087.898-1.087a.72.72 0 00-.265.565c0 .45.368.812.825.812a.811.811 0 00.84-.812zm-9.323 0c0-.797.545-1.434 1.679-1.434.75 0 1.649.623 1.649 2.203v2.347c-.324-.217-.78-.405-1.016-.405V8.768c0-.84-.619-1.087-.899-1.087a.72.72 0 01.266.565c0 .45-.383.812-.825.812-.486 0-.84-.333-.854-.812z" fill="#ED1B2F"/><path d="M8.978 13.667c1.885 0 2.312-1.55 2.37-1.957v-.521c-.588.145-1.104.449-1.457.913-.118-.537-.472-.986-.913-1.29-.442.29-.781.753-.914 1.29-.353-.464-.868-.768-1.458-.913v.521c.045.406.472 1.957 2.372 1.957zM9.11 5.45v.652c.325.043.605.26.708.521a2.028 2.028 0 00-.84 1.087 2.028 2.028 0 00-.84-1.087.92.92 0 01.708-.521v-.653a.607.607 0 01-.472-.58c0-.333.28-.593.604-.593.339 0 .604.26.604.594a.607.607 0 01-.471.58z" fill="#ED1B2F"/><path d="M7.446 5.913v.681c.825.16 1.414 1.015 1.414 1.812v2.203c-.383.217-.766.666-.884 1.029-.03-.03-.059-.073-.103-.102v-2.84c0-.855-.471-1.725-1.296-2 0 0 .265-.116.604-.116v-.681a.593.593 0 01.133-1.174c.338 0 .603.26.603.594 0 .29-.206.522-.47.594zm3.329 0v.667c.338 0 .604.116.604.116-.84.29-1.297 1.16-1.297 2v2.84l-.103.102c-.117-.377-.5-.826-.883-1.03V8.407c0-.797.589-1.652 1.413-1.812V5.9a.593.593 0 01.133-1.174c.339 0 .604.26.604.594a.582.582 0 01-.471.594z" fill="#ED1B2F"/></svg>