<!-- by TradingView --><svg width="18" height="18" viewBox="0 0 18 18" xmlns="http://www.w3.org/2000/svg"><path fill="#F0F3FA" d="M0 0h18v18H0z"/><path d="M8.41 6.76V5C4.84 5.18 4 5.82 4 6.29c0 .46 1.31.92 2.38.87a8.1 8.1 0 0 0 2.03-.4Z" fill="#45549E"/><path d="M4.88 8.68 4 7.12c1.76 1.2 4 .46 5.38-.16 1.37-.63 2.67-1.17 3.39-1.14.71.02 1.2.51 1.23 1.25.02.6-.24 1.25-.38 1.5-.26-1-1.13-1.26-4.24.11-2.61 1.16-4.1.45-4.5 0Z" fill="#57B648"/><path d="M6.2 11.34 5.42 10c1.03.8 2.88.3 3.75-.1.86-.37 2-.75 2.46-.76.46 0 .84.23.89.77.04.43-.2.95-.32 1.15-.36-.49-.78-.62-2.95.27-1.74.7-2.77.3-3.07 0Z" fill="#25B7AA"/><path d="m7.59 13.83-.81-1.33c.62.5 1.73.24 2.17.06l1.27-.5c.3-.12 1.05-.1 1.02.5-.02.6-.38 1-.56 1.13-.23-.3-.45-.26-1.54.14-.87.31-1.4.13-1.55 0Z" fill="#2F98CE"/></svg>