<!-- by TradingView --><svg xmlns="http://www.w3.org/2000/svg" width="18" height="18"><path fill="#F0F3FA" d="M0 0h18v18H0z"/><path fill-rule="evenodd" d="M9 14.5a5.5 5.5 0 100-11 5.5 5.5 0 000 11zm0 .5A6 6 0 109 3a6 6 0 000 12z" fill="#144A90"/><path fill="#144A90" d="M5 6h2v6H5zm3 0h2v6H8zm3 2h.5c.83 0 1.5.67 1.5 1.5V12h-2V8z"/><path d="M10 8.02a5.3 5.3 0 00-5 2.35l1.54.63A5.94 5.94 0 0110 8.02z" fill="url(#akkfunapx)"/><defs><linearGradient id="akkfunapx" x1="8.46" y1="7.42" x2="6.42" y2="11.06" gradientUnits="userSpaceOnUse"><stop stop-color="#445EAB"/><stop offset=".21" stop-color="#52B7E5"/><stop offset=".46" stop-color="#18934B"/><stop offset=".63" stop-color="#9ECF1F"/><stop offset=".77" stop-color="#E0E101"/><stop offset=".89" stop-color="#E3BA10"/><stop offset="1" stop-color="#D1483E"/></linearGradient></defs></svg>