<!-- by TradingView --><svg width="18" height="18" viewBox="0 0 18 18" xmlns="http://www.w3.org/2000/svg"><path fill="#F0F3FA" d="M0 0h18v18H0z"/><path d="M14.5 10.43c-.98 0-1.33-.74-1.33-1.43 0-.9.52-1.43 1.4-1.43.92 0 1.43.5 1.43 1.4 0 .94-.47 1.42-1.43 1.46h-.08Zm.07-2.3c-.5 0-.61.46-.61.84 0 .57.2.83.63.83.44 0 .64-.27.64-.84 0-.62-.16-.82-.66-.82ZM11.63 10.43c-1-.07-1.21-.82-1.21-1.43 0-.41.09-.75.27-.99.21-.3.56-.44 1.02-.44h1.11v.59h-.99c-.2 0-.37.06-.46.2-.1.12-.15.32-.14.6V9c0 .24 0 .77.6.83h.99v.6h-1.2ZM7.88 10.43v-.59h1.1c.14 0 .33-.07.32-.28 0-.2-.1-.29-.28-.29h-.47c-.43-.01-.74-.27-.74-.85s.25-.85.8-.85h1.34v.59H8.78c-.12 0-.25.08-.24.26-.02.24.16.26.3.26h.34c.42 0 .9.28.9.89.03.56-.33.86-.73.86H7.88ZM6.04 10.43c-.98 0-1.33-.74-1.33-1.43 0-.9.52-1.43 1.4-1.43.92 0 1.43.5 1.43 1.4 0 .94-.47 1.42-1.43 1.46h-.07Zm.07-2.3c-.5 0-.61.46-.61.84 0 .57.2.83.64.83.43 0 .63-.27.63-.84 0-.62-.15-.82-.66-.82ZM3.21 10.43C2.21 10.36 2.01 9.6 2 9c0-.41.09-.75.27-.99.22-.3.56-.44 1.02-.44h1.12v.59H3.39c-.2 0-.35.06-.44.2-.13.17-.12.44-.12.58v.1c-.01.22-.03.72.6.78h.98v.6H3.2Z" fill="#154B83"/><path d="M14.37 6.35A4.75 4.75 0 0 0 10.28 4c-1.73 0-3.32.9-4.15 2.35l-.03.06h.6V6.4a4.06 4.06 0 0 1 7.08 0l.02.02h.6l-.03-.06Z" fill="#BD1D21"/><path d="M4.2 6.41h-.6l.03-.07A4.6 4.6 0 0 1 7.77 4c1.65 0 3.03.78 4.1 2.33l.05.08h-.64l-.01-.03a4.22 4.22 0 0 0-3.52-2.07A4.04 4.04 0 0 0 4.2 6.4l-.02.02Z" fill="#154B83"/><path d="M14.37 11.65A4.75 4.75 0 0 1 10.28 14c-1.73 0-3.32-.9-4.15-2.35l-.03-.06h.6v.02a4.06 4.06 0 0 0 7.08 0l.02-.02h.6l-.03.06Z" fill="#BD1D21"/><path d="M4.2 11.59h-.6l.03.07.23.36A4.76 4.76 0 0 0 7.77 14c1.65 0 3.03-.78 4.1-2.33l.05-.08h-.64l-.01.03a4.22 4.22 0 0 1-3.52 2.07A4.04 4.04 0 0 1 4.2 11.6l-.02-.02Z" fill="#154B83"/></svg>