<!-- by TradingView --><svg width="18" height="18" xmlns="http://www.w3.org/2000/svg"><path fill="#EA5504" d="M0 0h18v18H0z"/><path d="M8.001 11.3a.3.3 0 01.3-.3h1.404a.3.3 0 01.3.3v1.4a.3.3 0 01-.3.3H8.302a.3.3 0 01-.3-.3v-1.4z" fill="#fff"/><path d="M13.919 12.167L10.229 4.4l-.004-.007C10.12 4.178 9.92 4 9.647 4H8.46c-.27 0-.467.18-.575.387L4.08 12.172c-.08.17-.124.387-.02.578.106.194.301.25.46.25h1.187a.56.56 0 00.342-.095.734.734 0 00.216-.286l2.786-5.856 2.682 5.844.003.007a.73.73 0 00.218.287c.113.081.235.099.34.099h1.184c.159 0 .356-.06.461-.256.103-.191.058-.408-.021-.577z" fill="#fff"/></svg>