<!-- by TradingView --><svg width="18" height="18" viewBox="0 0 18 18" xmlns="http://www.w3.org/2000/svg"><path fill="#F0F3FA" d="M0 0h18v18H0z"/><path d="M4.98 4H8.5v1H5.79a.78.78 0 0 0-.79.78v6.44c0 .43.35.78.79.78h2.7v1H5a.98.98 0 0 1-.99-.97V4.97c0-.54.44-.97.98-.97Zm7.23 9H9.5v1h3.52c.54 0 .98-.43.98-.97V4.97a.98.98 0 0 0-.98-.97H9.5v1h2.71c.44 0 .79.35.79.78v6.44c0 .43-.35.78-.79.78ZM5.5 5.8c0-.17.14-.3.3-.3h6.4c.16 0 .3.13.3.3v6.4a.3.3 0 0 1-.3.3H12v-1.9c0-.37-.27-.6-.5-.6h-.69v-.69h.9a.31.31 0 1 0 0-.62h-.9V8h.77c.23 0 .42-.15.42-.36V6.3a.3.3 0 1 0-.6 0v.2H9.6v-.2a.3.3 0 0 0-.6 0v1.34c0 .2.19.36.42.36h.77v.69h-.85a.31.31 0 1 0 0 .62h.85V10h-.67c-.24 0-.52.23-.52.6v1.9H8V6.32A.31.31 0 0 0 7.67 6H6.5a.31.31 0 0 0 0 .63h.9v.8h-.9c-.28 0-.5.2-.5.46v4.61h-.2a.3.3 0 0 1-.3-.3V5.8Zm1.83 2.6v4.1h-.66V8.4a.33.33 0 0 1 .66 0ZM9.87 7a.27.27 0 1 0 0 .53h1.26a.27.27 0 1 0 0-.53H9.87Zm-.27 5.44v-1.58a.3.3 0 1 1 .6 0v1.58h-.6Zm1.2-1.58v1.58h.6v-1.58a.3.3 0 0 0-.6 0Z" fill="#E7330C"/></svg>