<!-- by TradingView --><svg width="18" height="18" fill="none" xmlns="http://www.w3.org/2000/svg"><path fill="#D30212" d="M0 0h18v18H0z"/><path fill-rule="evenodd" clip-rule="evenodd" d="M14.7 9c0 .986-.599 1.907-1.63 2.594-1.029.687-2.467 1.12-4.07 1.12-1.603 0-3.041-.433-4.07-1.12C3.898 10.907 3.3 9.986 3.3 9c0-.986.599-1.907 1.63-2.594 1.029-.687 2.467-1.12 4.07-1.12 1.603 0 3.041.433 4.07 1.12C14.102 7.093 14.7 8.014 14.7 9zM9 13c3.314 0 6-1.79 6-4s-2.686-4-6-4-6 1.79-6 4 2.686 4 6 4zm-.031-7.43C5.999 5.59 3.6 7.157 3.6 9.084c0 .795.436 1.483 1.059 2.014l-.002.001c1.562 1.332 4.193 1.618 4.193.193V7.063L6.816 8.086v1.697c.026 1.045-.93 1.187-.93 1.187a1.28 1.28 0 01-.194.014c-.66 0-1.621-.448-1.616-1.9.008-1.79 2.205-3.24 4.924-3.24 2.72 0 4.917 1.45 4.925 3.24.007 1.452-.954 1.9-1.616 1.9a1.23 1.23 0 01-.194-.014s-.956-.142-.93-1.187V8.086L9.15 7.063v4.365c0 1.424 2.632 1.002 4.193-.33.62-.531 1.057-1.22 1.057-2.015 0-1.927-2.4-3.493-5.37-3.512H8.97z" fill="#fff"/></svg>