<!-- by TradingView --><svg width="18" height="18" xmlns="http://www.w3.org/2000/svg"><path fill="#F26E20" d="M0 0h18v18H0z"/><path d="M4.012 10.623c1.39-.324 2.721-1.028 3.946-1.743-.092-.286-.227-.185-.384-.092-.776.53-1.653 1.085-2.58 1.29-.222.04-.36.022-.472-.198-.15-.29-.338-.56-.522-.854.73-.182 1.44-.469 2-1.026H4.687v-.5H4V5h3.758l-.077-.677L9.811 4c.035.104.07.19.097.279.146.53.146.721.722.721H14v2.5h-.987L13 8h-.355l1.067 1.19L12 10.288l2 2.002-1.294 1.486-1.742-1.348c-.031.174-.05.312-.081.45a1.08 1.08 0 01-.352.71 1.148 1.148 0 01-.754.296c-.549.063-1.105.096-1.658.115a.558.558 0 01-.384-.186c-.219-.245-.365-.661-.622-.743-.257-.081-.618.179-.933.29-.314.111-.675.245-1.017.338-.088.026-.211-.056-.318-.093 0 0-.023-.033-.039-.052L4 12.44c.115-.037.207-.078.307-.1a13.19 13.19 0 004.123-1.798c.08-.052.115-.168.169-.253a.922.922 0 00-.3.07c-.97.67-2.054 1.173-3.201 1.486a.338.338 0 01-.374-.076.314.314 0 01-.068-.113c-.195-.35-.414-.672-.644-1.033zM11.559 7s.038-.35-.22-.35H6.446c-.08 0-.238.168-.238.168L6.445 7h5.114zM10 8s.204.599.338.788a.188.188 0 00.161.063C10.832 8.698 11.5 8 11.5 8H10zm-1.82 4.559c.53.152.876-.063.795-.49l-.795.49z" fill="#fff"/></svg>