<!-- by TradingView --><svg width="18" height="18" viewBox="0 0 18 18" xmlns="http://www.w3.org/2000/svg"><path fill="#E2221D" d="M0 0h18v18H0z"/><path d="M6.33 6H5v1.27h.81c.3 0 .52-.25.52-.56V6ZM5 7.58h.73c.34 0 .6.26.6.58v2.06c0 .66-.67 1.78-2.06 1.78A3.02 3.02 0 0 1 2 11.02l1.2-.84c.09.18.42.56.99.56.57 0 .81-.5.81-.87v-2.3ZM6.67 6h2.66A3 3 0 0 1 12 7.62V6h1.33v4.74H16V12h-4v-1.62A3 3 0 0 1 9.33 12H6.67V8.08c0-.28.22-.5.5-.5H8v3.16h1.26a1.74 1.74 0 0 0 0-3.48h-2.1a.5.5 0 0 1-.5-.5V6Z" fill="#fff"/></svg>