<!-- by TradingView --><svg width="18" height="18" viewBox="0 0 18 18" xmlns="http://www.w3.org/2000/svg"><path fill="#F0F3FA" d="M0 0h18v18H0z"/><path fill-rule="evenodd" d="M14 4H4v10h2c.01-.06.03-.12.06-.17l1.54-2.6a.45.45 0 0 1 .79 0l1.53 2.6c.04.05.06.11.06.17h.43c0-.06.02-.12.06-.17l1.53-2.6a.44.44 0 0 1 .21-.2.45.45 0 0 1 .58.2L14 13.28v-2.45a.45.45 0 0 1-.45-.21L12.4 8.66l-1.16 1.96a.45.45 0 1 1-.77-.46L12 7.56a.44.44 0 0 1 .4-.23.45.45 0 0 1 .39.23L14 9.61V4Zm-.62 10-.98-1.67-1 1.67h1.98Zm-4.4 0L8 12.33 7 14h1.98ZM7.8 7.38a.45.45 0 0 0-.2.18l-1.54 2.6a.45.45 0 0 0 .78.46l1.15-1.96 1.16 1.96a.45.45 0 1 0 .77-.46L8.4 7.56a.45.45 0 0 0-.59-.18Z" fill="#FBB03F"/></svg>