<!-- by TradingView --><svg width="18" height="18" xmlns="http://www.w3.org/2000/svg"><path fill="#FF2911" d="M0 0h18v18H0z"/><path d="M9.625 5v1.912l.375.171v1.402l-1-.586-4.452 2.671L4 9.583l4.375-2.67V5h1.25zm-4.643 6.3l1.518-.9v-.608l1.25-.749V10.4l4.374 2.614-.549.986-4.45-2.671-1.595.956-.548-.986zM6.5 7.7V5h1.25v1.912L6.5 7.7zm6.04 4.585l-1.665-.956-.416.247-1.097-.658.888-.518V5h1.25v5.4l1.587.9-.548.985zm-3.838.408L6.493 14l-.549-.986 1.662-.979 1.096.658zm3.11-4.459L14 9.584l-.547.986-1.64-1.02V8.233z" fill="#fff"/></svg>