<!-- by TradingView --><svg width="18" height="18" xmlns="http://www.w3.org/2000/svg"><path fill="#B00831" d="M0 0h18v18H0z"/><path fill-rule="evenodd" d="M8.113 10c-.065 0-.116-.042-.116-.105V8.106c0-.062.051-.106.116-.106H9.89c.064 0 .112.044.112.106v1.789c0 .063-.048.105-.112.105H8.113zm.262 2.883c-1.893-.28-3.298-1.911-3.298-3.882S6.482 5.399 8.375 5.12v1.89h-.38c-.656 0-.992.37-.992 1.028v1.77c0 .658.336 1.189.993 1.189h.379v1.886zm1.25-1.886h.376c.659 0 1-.531 1-1.189v-1.77c0-.658-.341-1.028-1-1.028h-.376V5.12c1.893.28 3.298 1.91 3.298 3.88 0 1.972-1.405 3.603-3.298 3.883v-1.886zM4 9a5 5 0 1110.001 0A5 5 0 014 9z" fill="#fff"/></svg>