<!-- by TradingView --><svg width="18" height="18" viewBox="0 0 18 18" xmlns="http://www.w3.org/2000/svg"><path fill="#F0F3FA" d="M0 0h18v18H0z"/><path d="M11.36 8c-.1-.24-.23-.47-.38-.67H10V8h1.36ZM10 8.33v.52h1.53a1.8 1.8 0 0 0-.08-.52H10ZM8 8v-.67h-.98c-.15.2-.28.43-.38.67H8Zm-1.45.33c-.06.21-.07.29-.08.52H8v-.52H6.55Zm3.45 3.2V12h1.65a3.99 3.99 0 0 1-3.65.89V12H6.26A5.03 5.03 0 0 1 5 9.12h8c-.03 1-.37 1.72-1 2.4h-2ZM6.82 7c-.4.51-.68 1.13-.7 1.85H5c.04-.98.44-1.76 1.05-2.43h2.28V6H6.32c.7-.64 1.65-1 2.68-1 1.03 0 1.97.36 2.68 1H9.67v.42h2.3c.61.67 1 1.45 1.03 2.43h-1.1A3.26 3.26 0 0 0 11.18 7H9.67v1.85H8.34V7H6.82Z" fill="#E10019"/><path fill-rule="evenodd" d="M9 13.5a4.5 4.5 0 1 0 0-9 4.5 4.5 0 0 0 0 9ZM9 15A6 6 0 1 0 9 3a6 6 0 0 0 0 12Z" fill="#898989" fill-opacity=".65"/></svg>