<!-- by TradingView --><svg width="18" height="18" viewBox="0 0 18 18" xmlns="http://www.w3.org/2000/svg"><path fill="#F0F3FA" d="M0 0h18v18H0z"/><path d="M9 4a5 5 0 1 1 0 10A5 5 0 0 1 9 4Z" fill="#A0223C"/><path fill-rule="evenodd" d="M12 7a1 1 0 1 0-2 0 1 1 0 0 0 2 0Zm-.57 0a.43.43 0 1 0-.86 0 .43.43 0 0 0 .86 0ZM8 10a1 1 0 1 0-2 0 1 1 0 0 0 2 0Zm-.57 0a.43.43 0 1 0-.86 0 .43.43 0 0 0 .86 0Z" fill="#F0F3FA"/><path d="M10.1 8.5h1.8c.05 0 .1-.08.1-.17v-.16c0-.1-.05-.17-.1-.17h-1.8c-.05 0-.1.08-.1.17v.16c0 .1.05.17.1.17ZM6.1 11h1.8c.05 0 .1.08.1.17v.66c0 .1-.05.17-.1.17H6.1c-.05 0-.1-.08-.1-.17v-.66c0-.1.05-.17.1-.17ZM6.08 8h1.84c.04 0 .08.08.08.17v.16c0 .1-.04.17-.08.17H6.08c-.04 0-.08-.08-.08-.17v-.16c0-.1.04-.17.08-.17ZM6.91 6h1.02c.04 0 .07.03.07.06V8h-.67V6.6c0-.02 0-.03-.02-.03h-.34c-.17 0-.3.15-.3.34V8H6V6.83c0-.46.41-.83.91-.83ZM10.08 11h1.84c.04 0 .08.08.08.17v.66c0 .1-.04.17-.08.17h-1.84c-.04 0-.08-.08-.08-.17v-.66c0-.1.04-.17.08-.17Z" fill="#F0F3FA"/><path d="M10.91 9h1.02c.04 0 .07.03.07.07v2.12h-.67V9.65c0-.01 0-.03-.02-.03h-.34c-.17 0-.3.17-.3.38v1.19H10V9.9c0-.5.41-.91.91-.91ZM12.3 9h.4c.02 0 .03.01.04.03v.05l-.37.51a.08.08 0 0 1-.07.04h-.1l-.06-.03a.07.07 0 0 1-.01-.06l.08-.48c0-.03.04-.06.08-.06ZM8.43 8.38h.25c.05 0 .12.04.16.09l.76 1.06c.04.05.03.1-.03.1h-.25a.23.23 0 0 1-.16-.1L8.4 8.47c-.04-.05-.03-.1.03-.1Z" fill="#F0F3FA"/><path d="M9.57 8.38h-.25a.23.23 0 0 0-.16.09L8.4 9.53c-.04.05-.03.1.03.1h.25c.05 0 .12-.05.16-.1l.76-1.06c.04-.05.03-.1-.03-.1Z" fill="#F0F3FA"/></svg>