<!-- by TradingView --><svg width="18" height="18" viewBox="0 0 18 18" xmlns="http://www.w3.org/2000/svg"><path fill="#F0F3FA" d="M0 0h18v18H0z"/><path d="M11 4.85 9.99 4s-.4 1.7-2.36 2.93C5.68 8.15 5.1 7.57 4 10.13l.97.87s.36-1.58 1.84-2.35c1.48-.78 2.94-.92 4.19-3.8Z" fill="url(#ac3d32d03)"/><path d="M13 5.87 11.9 5s-.5 2.08-2.31 3.46C7.77 9.84 6.1 9.27 5 12.1l1.06.9s.33-1.54 1.9-2.38c1.61-.8 3.65-1.08 5.04-4.75Z" fill="url(#bc3d32d03)"/><path d="M14 8.82 12.93 8c-.18.32-.64 1.29-2.16 2.12-1.53.83-2.77.68-3.77 3.03l1.03.85s.4-1.54 1.96-2.3c1.57-.75 2.47-.65 4.01-2.88Z" fill="url(#cc3d32d03)"/><defs><linearGradient id="ac3d32d03" x1="10.71" y1="4.48" x2="3.81" y2="10.08" gradientUnits="userSpaceOnUse"><stop stop-color="#911017"/><stop offset=".52" stop-color="#E6C1C2"/><stop offset="1" stop-color="#621314"/></linearGradient><linearGradient id="bc3d32d03" x1="13" y1="5.64" x2="5" y2="12.52" gradientUnits="userSpaceOnUse"><stop stop-color="#C6800D"/><stop offset=".51" stop-color="#FEF6AC"/><stop offset="1" stop-color="#A45316"/></linearGradient><linearGradient id="cc3d32d03" x1="14.48" y1="8" x2="7.7" y2="14.18" gradientUnits="userSpaceOnUse"><stop stop-color="#911017"/><stop offset=".47" stop-color="#E6C1C2"/><stop offset="1" stop-color="#621314"/></linearGradient></defs></svg>