<!-- by TradingView --><svg width="18" height="18" viewBox="0 0 18 18" xmlns="http://www.w3.org/2000/svg"><path fill="#F0F3FA" d="M0 0h18v18H0z"/><path d="M2.35 9c0 3.33 3.99 4.64 6.65 4.64s6.65-1.3 6.65-4.64c0-3.33-3.99-4.64-6.65-4.64S2.35 5.66 2.35 9ZM9 4c2.8 0 7 1.52 7 5s-4.2 5-7 5-7-1.52-7-5 4.2-5 7-5Z" fill="#1B5628"/><path d="m15 10.45-.55-.45c-.95 1.24-3.11 2.25-5.45 2.25-2.43 0-4.38-.93-5.29-2.25l-.71.39C4.05 11.93 6.3 13 9 13c2.58 0 4.9-1.12 6-2.55ZM3 8.5l.55.5C4.5 7.34 6.66 5.71 9 5.71A6.05 6.05 0 0 1 14.29 9l.71-.5A6.65 6.65 0 0 0 9 5a7.16 7.16 0 0 0-6 3.5Z" fill="#0E5B20" fill-opacity=".5"/><path d="M6.66 7.4c-.6.42-.95.98-.95 1.6 0 .62.63.97 1.22 1.39.6.41 1.15.9 2.07.9.92 0 1.47-.49 2.07-.9.6-.42 1.22-.77 1.22-1.39 0-.62-.36-1.18-.95-1.6A4.1 4.1 0 0 0 9 6.72a4.1 4.1 0 0 0-2.34.68Zm-.12-.18A4.3 4.3 0 0 1 9 6.5c.96 0 1.83.27 2.46.72.63.45 1.04 1.07 1.04 1.78 0 .7-.68 1.12-1.31 1.56-.64.45-1.23.94-2.19.94s-1.55-.5-2.19-.94C6.18 10.12 5.5 9.71 5.5 9c0-.7.4-1.33 1.04-1.78Z" fill="#1A5A29"/><path d="M12.5 9c-.16 1.4-1.67 2.5-3.5 2.5S5.66 10.4 5.5 9h7Z" fill="url(#aoxitq1xt)"/><path d="m8.97 6.5.02.1.01.1a1.91 1.91 0 0 0-.11.01c-1.27.2-2.52.93-2.52 2.29h-.29c0-1.46 1.41-2.27 2.77-2.48a3.3 3.3 0 0 1 .11-.02h.01ZM9 6.7l.01-.1.02-.1a1.99 1.99 0 0 1 .12.02c1.36.2 2.77 1.02 2.77 2.48h-.3c0-1.36-1.24-2.09-2.5-2.29A3.07 3.07 0 0 0 9 6.7H9Z" fill="#1A5A29"/><path d="M7.83 9h-.29c0-.82.3-2.5 1.46-2.5v.28C7.96 6.78 7.87 8.3 7.83 9ZM9 6.5h.1c1.1 0 1.32 1.71 1.36 2.5h-.32c-.03-.67-.12-2.03-.85-2.22V9H9V6.5Z" fill="#1A5A29"/><path d="M12.2 8.36H5.8v-.3h6.4v.3Z" fill="#1A5A29"/><path d="m7.83 9 .57.4-.35 2.05.5.05.82-2 .8-.3-.3-.2H7.82Z" fill="#F0F3FA"/><defs><linearGradient id="aoxitq1xt" x1="9" y1="9" x2="9" y2="11.5" gradientUnits="userSpaceOnUse"><stop stop-color="#10521F"/><stop offset="1" stop-color="#008524"/></linearGradient></defs></svg>